<svg xmlns="http://www.w3.org/2000/svg" xmlns:xlink="http://www.w3.org/1999/xlink" version="1.2" width="194.68mm" height="56.06mm" viewBox="-2.6632 -0.0000 110.7837 31.8990">
<style type="text/css">
<![CDATA[
tspan { white-space: pre; }
]]>
</style>
<g transform="translate(28.0260, 2.3654)">
<text font-family="serif" font-weight="bold" font-size="3.4929" text-anchor="start" fill="currentColor">
<tspan>Symphony No. 9 Bass Chorus 257–</tspan>
</text>
</g>
<g transform="translate(87.6003, 5.8654)">
<text font-family="serif" font-size="2.2000" text-anchor="start" fill="currentColor">
<tspan>Ludwig van Beethoven</tspan>
</text>
</g>
<g transform="translate(33.5447, 15.5697)">
<rect x="0.0000" y="-2.0000" width="0.1900" height="4.0000" ry="0.0000" fill="currentColor"/>
</g>
<g transform="translate(0.0000, 17.5697)">
<line stroke-linejoin="round" stroke-linecap="round" stroke-width="0.1000" stroke="currentColor" x1="0.0500" y1="0" x2="108.0705" y2="0"/>
</g>
<g transform="translate(0.0000, 16.5697)">
<line stroke-linejoin="round" stroke-linecap="round" stroke-width="0.1000" stroke="currentColor" x1="0.0500" y1="0" x2="108.0705" y2="0"/>
</g>
<g transform="translate(0.0000, 15.5697)">
<line stroke-linejoin="round" stroke-linecap="round" stroke-width="0.1000" stroke="currentColor" x1="0.0500" y1="0" x2="108.0705" y2="0"/>
</g>
<g transform="translate(0.0000, 14.5697)">
<line stroke-linejoin="round" stroke-linecap="round" stroke-width="0.1000" stroke="currentColor" x1="0.0500" y1="0" x2="108.0705" y2="0"/>
</g>
<g transform="translate(0.0000, 13.5697)">
<line stroke-linejoin="round" stroke-linecap="round" stroke-width="0.1000" stroke="currentColor" x1="0.0500" y1="0" x2="108.0705" y2="0"/>
</g>
<g transform="translate(107.9305, 15.5697)">
<rect x="0.0000" y="-2.0000" width="0.1900" height="4.0000" ry="0.0000" fill="currentColor"/>
</g>
<g transform="translate(83.9285, 15.5697)">
<rect x="0.0000" y="-2.0000" width="0.1900" height="4.0000" ry="0.0000" fill="currentColor"/>
</g>
<g transform="translate(58.6295, 15.5697)">
<rect x="0.0000" y="-2.0000" width="0.1900" height="4.0000" ry="0.0000" fill="currentColor"/>
</g>
<a style="color:inherit;" xlink:href="textedit:///Volumes/sandisk/local/junk/2025/2025-01-09/ninth-257.ly:18:14:15">
<g transform="translate(102.4879, 15.5697)">
<path stroke-width="0.0800" stroke-linejoin="round" stroke-linecap="round" stroke="currentColor" fill="currentColor" d="M1.5042 -1.2283C2.2565 -1.9874 4.4903 -1.9874 5.2426 -1.2283L5.2426 -1.2283C4.4903 -1.8674 2.2565 -1.8674 1.5042 -1.2283z"/>
</g>
</a>
<a style="color:inherit;" xlink:href="textedit:///Volumes/sandisk/local/junk/2025/2025-01-09/ninth-257.ly:23:14:15">
<g transform="translate(93.6107, 21.0826)">
<rect x="0.0000" y="-0.5500" width="0.6600" height="0.1300" ry="0.0400" fill="currentColor"/>
</g>
</a>
<a style="color:inherit;" xlink:href="textedit:///Volumes/sandisk/local/junk/2025/2025-01-09/ninth-257.ly:17:4:5">
<g transform="translate(11.3500, 15.0697)">
<path transform="scale(0.0040, -0.0040)" d="M218 136c66 0 108 -36 108 -89c0 -89 -113 -183 -218 -183c-66 0 -108 36 -108 89c0 89 113 183 218 183z" fill="currentColor"/>
</g>
</a>
<a style="color:inherit;" xlink:href="textedit:///Volumes/sandisk/local/junk/2025/2025-01-09/ninth-257.ly:17:5:6">
<g transform="translate(11.3705, 12.2277)">
<path transform="scale(0.0040, -0.0040)" d="M253 245l-50 -163c-30 -99 -121 -255 -218 -255c-45 0 -87 27 -87 69c0 39 17 77 52 77c24 0 44 -20 44 -44c0 -30 -38 -24 -38 -54c0 -10 11 -11 23 -11h6c48 0 61 58 73 108l68 273h-49c-11 0 -19 8 -19 19s8 19 19 19h60c32 96 118 191 213 191c45 0 87 -27 87 -69
c0 -39 -17 -77 -52 -77c-24 0 -44 19 -44 43c0 30 38 25 38 55c0 10 -10 11 -22 11h-7c-62 0 -70 -88 -86 -154h55c11 0 19 -8 19 -19s-8 -19 -19 -19h-66z" fill="currentColor"/>
</g>
</a>
<g transform="translate(0.8000, 14.5697)">
<path transform="scale(0.0040, -0.0040)" d="M557 -125c0 28 23 51 51 51s51 -23 51 -51s-23 -51 -51 -51s-51 23 -51 51zM557 125c0 28 23 51 51 51s51 -23 51 -51s-23 -51 -51 -51s-51 23 -51 51zM232 263c172 0 293 -88 293 -251c0 -263 -263 -414 -516 -521c-3 -3 -6 -4 -9 -4c-7 0 -13 6 -13 13c0 3 1 6 4 9
c202 118 412 265 412 493c0 120 -63 235 -171 235c-74 0 -129 -54 -154 -126c11 5 22 8 34 8c55 0 100 -45 100 -100c0 -58 -44 -106 -100 -106c-60 0 -112 47 -112 106c0 133 102 244 232 244z" fill="currentColor"/>
</g>
<a style="color:inherit;" xlink:href="textedit:///Volumes/sandisk/local/junk/2025/2025-01-09/ninth-257.ly:12:4:5">
<g transform="translate(4.3000, 14.5697)">
<path transform="scale(0.0040, -0.0040)" d="M0 119c0 8 5 15 13 18l46 17v158c0 10 8 19 18 19s19 -9 19 -19v-145l83 31v158c0 10 9 19 19 19s18 -9 18 -19v-145l32 12c2 1 5 1 7 1c11 0 20 -9 20 -20v-60c0 -8 -5 -16 -13 -19l-46 -16v-160l32 11c2 1 5 1 7 1c11 0 20 -9 20 -20v-60c0 -8 -5 -15 -13 -18l-46 -17
v-158c0 -10 -8 -19 -18 -19s-19 9 -19 19v145l-83 -31v-158c0 -10 -9 -19 -19 -19s-18 9 -18 19v145l-32 -12c-2 -1 -5 -1 -7 -1c-11 0 -20 9 -20 20v60c0 8 5 16 13 19l46 16v160l-32 -11c-2 -1 -5 -1 -7 -1c-11 0 -20 9 -20 20v60zM179 95l-83 -30v-160l83 30v160z" fill="currentColor"/>
</g>
<g transform="translate(5.4000, 16.0697)">
<path transform="scale(0.0040, -0.0040)" d="M0 119c0 8 5 15 13 18l46 17v158c0 10 8 19 18 19s19 -9 19 -19v-145l83 31v158c0 10 9 19 19 19s18 -9 18 -19v-145l32 12c2 1 5 1 7 1c11 0 20 -9 20 -20v-60c0 -8 -5 -16 -13 -19l-46 -16v-160l32 11c2 1 5 1 7 1c11 0 20 -9 20 -20v-60c0 -8 -5 -15 -13 -18l-46 -17
v-158c0 -10 -8 -19 -18 -19s-19 9 -19 19v145l-83 -31v-158c0 -10 -9 -19 -19 -19s-18 9 -18 19v145l-32 -12c-2 -1 -5 -1 -7 -1c-11 0 -20 9 -20 20v60c0 8 5 16 13 19l46 16v160l-32 -11c-2 -1 -5 -1 -7 -1c-11 0 -20 9 -20 20v60zM179 95l-83 -30v-160l83 30v160z" fill="currentColor"/>
</g>
</a>
<a style="color:inherit;" xlink:href="textedit:///Volumes/sandisk/local/junk/2025/2025-01-09/ninth-257.ly:13:4:5">
<g transform="translate(7.6500, 15.5697)">
<path transform="scale(0.0040, -0.0040)" d="M250 262c116 0 176 -106 176 -163c0 -40 -30 -72 -67 -72c-31 0 -75 25 -75 75c0 38 27 77 72 77c4 0 9 0 14 -1c-28 37 -72 59 -120 59c-106 0 -113 -73 -113 -186v-51v-51c0 -113 7 -187 113 -187c80 0 139 70 158 151c2 7 7 10 12 10c6 0 13 -4 13 -12
c0 -22 -50 -174 -183 -174c-59 0 -250 19 -250 263c0 62 18 262 250 262z" fill="currentColor"/>
</g>
</a>
<a style="color:inherit;" xlink:href="textedit:///Volumes/sandisk/local/junk/2025/2025-01-09/ninth-257.ly:22:4:5">
<g transform="translate(10.2267, 21.0826)">
<text font-family="serif" font-size="2.4697" text-anchor="start" fill="currentColor">
<tspan>Dei</tspan>
</text>
</g>
</a>
<a style="color:inherit;" xlink:href="textedit:///Volumes/sandisk/local/junk/2025/2025-01-09/ninth-257.ly:16:4:5">
<g transform="translate(6.5000, 12.7197)">
<text font-family="serif" font-size="2.7719" text-anchor="start" fill="currentColor">
<tspan>D</tspan>
</text>
</g>
</a>
<a style="color:inherit;" xlink:href="textedit:///Volumes/sandisk/local/junk/2025/2025-01-09/ninth-257.ly:14:4:5">
<g transform="translate(7.6500, 9.5017)">
<text font-family="serif" font-weight="bold" font-size="2.2000" text-anchor="start" fill="currentColor">
<tspan>Allegro assai</tspan>
</text>
</g>
<g transform="translate(19.6685, 9.5017)">
<text font-family="serif" font-size="2.2000" text-anchor="start" fill="currentColor">
<tspan> (</tspan>
</text>
</g>
<g transform="translate(20.9318, 9.0129)">
<rect x="1.1141" y="-2.6727" width="0.1158" height="2.4473" ry="0.0193" fill="currentColor"/>
</g>
<g transform="translate(20.9318, 9.0129)">
<path transform="scale(0.0036, -0.0036)" d="M312 64c0 23 -18 41 -41 41c-39 0 -201 -110 -228 -142c-7 -8 -10 -17 -10 -27c0 -23 18 -41 41 -41c39 0 201 110 228 142c7 8 10 17 10 27zM259 137c46 0 86 -17 86 -74c0 -26 -15 -112 -73 -151c-29 -20 -89 -49 -186 -49c-46 0 -86 17 -86 74c0 26 16 112 74 151
c29 20 88 49 185 49z" fill="currentColor"/>
</g>
<g transform="translate(22.1617, 9.5017)">
<text font-family="serif" font-size="2.2000" text-anchor="start" fill="currentColor">
<tspan> = 80)</tspan>
</text>
</g>
</a>
<g transform="translate(11.4150, 15.5697)">
<rect x="-0.0650" y="-0.3139" width="0.1300" height="3.3139" ry="0.0400" fill="currentColor"/>
</g>
<g transform="translate(-2.6632, 12.4959)">
<text font-family="serif" font-size="1.7459" text-anchor="start" fill="currentColor">
<tspan>257</tspan>
</text>
</g>
<a style="color:inherit;" xlink:href="textedit:///Volumes/sandisk/local/junk/2025/2025-01-09/ninth-257.ly:17:9:10">
<g transform="translate(16.9936, 15.0697)">
<path transform="scale(0.0040, -0.0040)" d="M218 136c66 0 108 -36 108 -89c0 -89 -113 -183 -218 -183c-66 0 -108 36 -108 89c0 89 113 183 218 183z" fill="currentColor"/>
</g>
</a>
<a style="color:inherit;" xlink:href="textedit:///Volumes/sandisk/local/junk/2025/2025-01-09/ninth-257.ly:22:11:12">
<g transform="translate(16.4848, 21.0826)">
<text font-family="serif" font-size="2.4697" text-anchor="start" fill="currentColor">
<tspan>ne</tspan>
</text>
</g>
</a>
<g transform="translate(17.0586, 15.5697)">
<rect x="-0.0650" y="-0.3139" width="0.1300" height="3.3139" ry="0.0400" fill="currentColor"/>
</g>
<a style="color:inherit;" xlink:href="textedit:///Volumes/sandisk/local/junk/2025/2025-01-09/ninth-257.ly:17:11:12">
<g transform="translate(22.6371, 14.5697)">
<path transform="scale(0.0040, -0.0040)" d="M218 136c66 0 108 -36 108 -89c0 -89 -113 -183 -218 -183c-66 0 -108 36 -108 89c0 89 113 183 218 183z" fill="currentColor"/>
</g>
</a>
<a style="color:inherit;" xlink:href="textedit:///Volumes/sandisk/local/junk/2025/2025-01-09/ninth-257.ly:22:14:15">
<g transform="translate(21.3772, 21.0826)">
<text font-family="serif" font-size="2.4697" text-anchor="start" fill="currentColor">
<tspan>Zau</tspan>
</text>
</g>
</a>
<g transform="translate(22.7021, 15.5697)">
<rect x="-0.0650" y="-0.8139" width="0.1300" height="3.3139" ry="0.0400" fill="currentColor"/>
</g>
<g transform="translate(65.8589, 17.5697)">
<polygon stroke-linejoin="round" stroke-linecap="round" stroke-width="0.0800" fill="currentColor" stroke="currentColor" points="3.5639 -0.3900 3.5639 0.0100 0.0400 0.2000 0.0400 -0.2000"/>
</g>
<a style="color:inherit;" xlink:href="textedit:///Volumes/sandisk/local/junk/2025/2025-01-09/ninth-257.ly:17:14:15">
<g transform="translate(28.0307, 15.5697)">
<path transform="scale(0.0040, -0.0040)" d="M218 136c66 0 108 -36 108 -89c0 -89 -113 -183 -218 -183c-66 0 -108 36 -108 89c0 89 113 183 218 183z" fill="currentColor"/>
</g>
</a>
<a style="color:inherit;" xlink:href="textedit:///Volumes/sandisk/local/junk/2025/2025-01-09/ninth-257.ly:22:21:22">
<g transform="translate(27.1122, 21.0826)">
<text font-family="serif" font-size="2.4697" text-anchor="start" fill="currentColor">
<tspan>ber</tspan>
</text>
</g>
</a>
<g transform="translate(28.0957, 15.5697)">
<rect x="-0.0650" y="0.1861" width="0.1300" height="3.1472" ry="0.0400" fill="currentColor"/>
</g>
<a style="color:inherit;" xlink:href="textedit:///Volumes/sandisk/local/junk/2025/2025-01-09/ninth-257.ly:22:59:60">
<g transform="translate(76.2237, 21.0826)">
<rect x="0.0000" y="-0.5500" width="0.6600" height="0.1300" ry="0.0400" fill="currentColor"/>
</g>
</a>
<a style="color:inherit;" xlink:href="textedit:///Volumes/sandisk/local/junk/2025/2025-01-09/ninth-257.ly:17:18:19">
<g transform="translate(35.1306, 15.0697)">
<path transform="scale(0.0040, -0.0040)" d="M218 136c66 0 108 -36 108 -89c0 -89 -113 -183 -218 -183c-66 0 -108 36 -108 89c0 89 113 183 218 183z" fill="currentColor"/>
</g>
</a>
<a style="color:inherit;" xlink:href="textedit:///Volumes/sandisk/local/junk/2025/2025-01-09/ninth-257.ly:22:25:26">
<g transform="translate(34.2121, 21.0826)">
<text font-family="serif" font-size="2.4697" text-anchor="start" fill="currentColor">
<tspan>bin</tspan>
</text>
</g>
</a>
<g transform="translate(35.1956, 15.5697)">
<rect x="-0.0650" y="-0.3139" width="0.1300" height="3.3139" ry="0.0400" fill="currentColor"/>
</g>
<a style="color:inherit;" xlink:href="textedit:///Volumes/sandisk/local/junk/2025/2025-01-09/ninth-257.ly:17:41:42">
<g transform="translate(65.8589, 15.5697)">
<path stroke-width="0.0800" stroke-linejoin="round" stroke-linecap="round" stroke="currentColor" fill="currentColor" d="M0.6085 -2.1950C1.4002 -3.1041 3.1253 -3.2779 4.0824 -2.5450L4.0824 -2.5450C3.1373 -3.1585 1.4122 -2.9847 0.6085 -2.1950z"/>
</g>
</a>
<a style="color:inherit;" xlink:href="textedit:///Volumes/sandisk/local/junk/2025/2025-01-09/ninth-257.ly:17:20:21">
<g transform="translate(40.7741, 14.5697)">
<path transform="scale(0.0040, -0.0040)" d="M218 136c66 0 108 -36 108 -89c0 -89 -113 -183 -218 -183c-66 0 -108 36 -108 89c0 89 113 183 218 183z" fill="currentColor"/>
</g>
</a>
<a style="color:inherit;" xlink:href="textedit:///Volumes/sandisk/local/junk/2025/2025-01-09/ninth-257.ly:22:32:33">
<g transform="translate(40.7741, 21.0826)">
<text font-family="serif" font-size="2.4697" text-anchor="start" fill="currentColor">
<tspan>den</tspan>
</text>
</g>
</a>
<g transform="translate(40.8391, 15.5697)">
<rect x="-0.0650" y="-0.8139" width="0.1300" height="2.8105" ry="0.0400" fill="currentColor"/>
</g>
<a style="color:inherit;" xlink:href="textedit:///Volumes/sandisk/local/junk/2025/2025-01-09/ninth-257.ly:17:25:26">
<g transform="translate(44.2480, 14.0697)">
<path transform="scale(0.0040, -0.0040)" d="M218 136c66 0 108 -36 108 -89c0 -89 -113 -183 -218 -183c-66 0 -108 36 -108 89c0 89 113 183 218 183z" fill="currentColor"/>
</g>
</a>
<g transform="translate(44.3130, 15.5697)">
<rect x="-0.0650" y="-1.3139" width="0.1300" height="3.1273" ry="0.0400" fill="currentColor"/>
</g>
<a style="color:inherit;" xlink:href="textedit:///Volumes/sandisk/local/junk/2025/2025-01-09/ninth-257.ly:17:28:29">
<g transform="translate(47.7219, 14.5697)">
<path transform="scale(0.0040, -0.0040)" d="M218 136c66 0 108 -36 108 -89c0 -89 -113 -183 -218 -183c-66 0 -108 36 -108 89c0 89 113 183 218 183z" fill="currentColor"/>
</g>
</a>
<a style="color:inherit;" xlink:href="textedit:///Volumes/sandisk/local/junk/2025/2025-01-09/ninth-257.ly:22:36:37">
<g transform="translate(46.5986, 21.0826)">
<text font-family="serif" font-size="2.4697" text-anchor="start" fill="currentColor">
<tspan>wie</tspan>
</text>
</g>
</a>
<g transform="translate(47.7869, 15.5697)">
<rect x="-0.0650" y="-0.8139" width="0.1300" height="3.3139" ry="0.0400" fill="currentColor"/>
</g>
<g transform="translate(40.7741, 17.5697)">
<polygon stroke-linejoin="round" stroke-linecap="round" stroke-width="0.0800" fill="currentColor" stroke="currentColor" points="3.5639 -0.3900 3.5639 0.0100 0.0400 0.2000 0.0400 -0.2000"/>
</g>
<a style="color:inherit;" xlink:href="textedit:///Volumes/sandisk/local/junk/2025/2025-01-09/ninth-257.ly:17:32:33">
<g transform="translate(53.1155, 15.5697)">
<path transform="scale(0.0040, -0.0040)" d="M218 136c66 0 108 -36 108 -89c0 -89 -113 -183 -218 -183c-66 0 -108 36 -108 89c0 89 113 183 218 183z" fill="currentColor"/>
</g>
</a>
<a style="color:inherit;" xlink:href="textedit:///Volumes/sandisk/local/junk/2025/2025-01-09/ninth-257.ly:22:43:44">
<g transform="translate(51.9238, 21.0826)">
<text font-family="serif" font-size="2.4697" text-anchor="start" fill="currentColor">
<tspan>der,</tspan>
</text>
</g>
</a>
<g transform="translate(53.1805, 15.5697)">
<rect x="-0.0650" y="0.1861" width="0.1300" height="3.1472" ry="0.0400" fill="currentColor"/>
</g>
<a style="color:inherit;" xlink:href="textedit:///Volumes/sandisk/local/junk/2025/2025-01-09/ninth-257.ly:22:40:41">
<g transform="translate(50.7066, 21.0826)">
<rect x="0.0000" y="-0.5500" width="0.6600" height="0.1300" ry="0.0400" fill="currentColor"/>
</g>
</a>
<a style="color:inherit;" xlink:href="textedit:///Volumes/sandisk/local/junk/2025/2025-01-09/ninth-257.ly:17:36:37">
<g transform="translate(60.2153, 15.0697)">
<path transform="scale(0.0040, -0.0040)" d="M218 136c66 0 108 -36 108 -89c0 -89 -113 -183 -218 -183c-66 0 -108 36 -108 89c0 89 113 183 218 183z" fill="currentColor"/>
</g>
</a>
<a style="color:inherit;" xlink:href="textedit:///Volumes/sandisk/local/junk/2025/2025-01-09/ninth-257.ly:22:48:49">
<g transform="translate(58.7847, 21.0826)">
<text font-family="serif" font-size="2.4697" text-anchor="start" fill="currentColor">
<tspan>Was</tspan>
</text>
</g>
</a>
<g transform="translate(60.2803, 15.5697)">
<rect x="-0.0650" y="-0.3139" width="0.1300" height="3.3139" ry="0.0400" fill="currentColor"/>
</g>
<a style="color:inherit;" xlink:href="textedit:///Volumes/sandisk/local/junk/2025/2025-01-09/ninth-257.ly:23:27:28">
<g transform="translate(106.1083, 21.0826)">
<rect x="0.0000" y="-0.5500" width="0.6600" height="0.1300" ry="0.0400" fill="currentColor"/>
</g>
</a>
<a style="color:inherit;" xlink:href="textedit:///Volumes/sandisk/local/junk/2025/2025-01-09/ninth-257.ly:17:23:24">
<g transform="translate(40.7741, 15.5697)">
<path stroke-width="0.0800" stroke-linejoin="round" stroke-linecap="round" stroke="currentColor" fill="currentColor" d="M0.6085 -2.1950C1.4002 -3.1041 3.1253 -3.2779 4.0824 -2.5450L4.0824 -2.5450C3.1373 -3.1585 1.4122 -2.9847 0.6085 -2.1950z"/>
</g>
</a>
<a style="color:inherit;" xlink:href="textedit:///Volumes/sandisk/local/junk/2025/2025-01-09/ninth-257.ly:17:38:39">
<g transform="translate(65.8589, 14.5697)">
<path transform="scale(0.0040, -0.0040)" d="M218 136c66 0 108 -36 108 -89c0 -89 -113 -183 -218 -183c-66 0 -108 36 -108 89c0 89 113 183 218 183z" fill="currentColor"/>
</g>
</a>
<a style="color:inherit;" xlink:href="textedit:///Volumes/sandisk/local/junk/2025/2025-01-09/ninth-257.ly:22:52:53">
<g transform="translate(65.8589, 21.0826)">
<text font-family="serif" font-size="2.4697" text-anchor="start" fill="currentColor">
<tspan>die</tspan>
</text>
</g>
</a>
<g transform="translate(65.9239, 15.5697)">
<rect x="-0.0650" y="-0.8139" width="0.1300" height="2.8105" ry="0.0400" fill="currentColor"/>
</g>
<a style="color:inherit;" xlink:href="textedit:///Volumes/sandisk/local/junk/2025/2025-01-09/ninth-257.ly:22:29:30">
<g transform="translate(38.7337, 21.0826)">
<rect x="0.0000" y="-0.5500" width="0.6600" height="0.1300" ry="0.0400" fill="currentColor"/>
</g>
</a>
<a style="color:inherit;" xlink:href="textedit:///Volumes/sandisk/local/junk/2025/2025-01-09/ninth-257.ly:17:43:44">
<g transform="translate(69.3328, 14.0697)">
<path transform="scale(0.0040, -0.0040)" d="M218 136c66 0 108 -36 108 -89c0 -89 -113 -183 -218 -183c-66 0 -108 36 -108 89c0 89 113 183 218 183z" fill="currentColor"/>
</g>
</a>
<g transform="translate(69.3978, 15.5697)">
<rect x="-0.0650" y="-1.3139" width="0.1300" height="3.1273" ry="0.0400" fill="currentColor"/>
</g>
<a style="color:inherit;" xlink:href="textedit:///Volumes/sandisk/local/junk/2025/2025-01-09/ninth-257.ly:17:46:47">
<g transform="translate(72.8067, 14.5697)">
<path transform="scale(0.0040, -0.0040)" d="M218 136c66 0 108 -36 108 -89c0 -89 -113 -183 -218 -183c-66 0 -108 36 -108 89c0 89 113 183 218 183z" fill="currentColor"/>
</g>
</a>
<a style="color:inherit;" xlink:href="textedit:///Volumes/sandisk/local/junk/2025/2025-01-09/ninth-257.ly:22:56:57">
<g transform="translate(71.7516, 21.0826)">
<text font-family="serif" font-size="2.4697" text-anchor="start" fill="currentColor">
<tspan>Mo</tspan>
</text>
</g>
</a>
<g transform="translate(72.8717, 15.5697)">
<rect x="-0.0650" y="-0.8139" width="0.1300" height="3.3139" ry="0.0400" fill="currentColor"/>
</g>
<a style="color:inherit;" xlink:href="textedit:///Volumes/sandisk/local/junk/2025/2025-01-09/ninth-257.ly:22:18:19">
<g transform="translate(25.8267, 21.0826)">
<rect x="0.0000" y="-0.5500" width="0.6600" height="0.1300" ry="0.0400" fill="currentColor"/>
</g>
</a>
<a style="color:inherit;" xlink:href="textedit:///Volumes/sandisk/local/junk/2025/2025-01-09/ninth-257.ly:17:50:51">
<g transform="translate(78.4502, 15.0697)">
<path transform="scale(0.0040, -0.0040)" d="M218 136c66 0 108 -36 108 -89c0 -89 -113 -183 -218 -183c-66 0 -108 36 -108 89c0 89 113 183 218 183z" fill="currentColor"/>
</g>
</a>
<a style="color:inherit;" xlink:href="textedit:///Volumes/sandisk/local/junk/2025/2025-01-09/ninth-257.ly:22:62:63">
<g transform="translate(77.9414, 21.0826)">
<text font-family="serif" font-size="2.4697" text-anchor="start" fill="currentColor">
<tspan>de</tspan>
</text>
</g>
</a>
<g transform="translate(78.5152, 15.5697)">
<rect x="-0.0650" y="-0.3139" width="0.1300" height="3.3139" ry="0.0400" fill="currentColor"/>
</g>
<a style="color:inherit;" xlink:href="textedit:///Volumes/sandisk/local/junk/2025/2025-01-09/ninth-257.ly:18:4:5">
<g transform="translate(85.4858, 15.5697)">
<path transform="scale(0.0040, -0.0040)" d="M218 136c66 0 108 -36 108 -89c0 -89 -113 -183 -218 -183c-66 0 -108 36 -108 89c0 89 113 183 218 183z" fill="currentColor"/>
</g>
</a>
<a style="color:inherit;" xlink:href="textedit:///Volumes/sandisk/local/junk/2025/2025-01-09/ninth-257.ly:23:4:5">
<g transform="translate(83.1333, 21.0826)">
<text font-family="serif" font-size="2.4697" text-anchor="start" fill="currentColor">
<tspan>streng</tspan>
</text>
</g>
</a>
<g transform="translate(85.5508, 15.5697)">
<rect x="-0.0650" y="0.1861" width="0.1300" height="3.1472" ry="0.0400" fill="currentColor"/>
</g>
<a style="color:inherit;" xlink:href="textedit:///Volumes/sandisk/local/junk/2025/2025-01-09/ninth-257.ly:22:8:9">
<g transform="translate(14.8012, 21.0826)">
<rect x="0.0000" y="-0.5500" width="0.6600" height="0.1300" ry="0.0400" fill="currentColor"/>
</g>
</a>
<a style="color:inherit;" xlink:href="textedit:///Volumes/sandisk/local/junk/2025/2025-01-09/ninth-257.ly:18:6:7">
<g transform="translate(91.1293, 15.0697)">
<path transform="scale(0.0040, -0.0040)" d="M218 136c66 0 108 -36 108 -89c0 -89 -113 -183 -218 -183c-66 0 -108 36 -108 89c0 89 113 183 218 183z" fill="currentColor"/>
</g>
</a>
<a style="color:inherit;" xlink:href="textedit:///Volumes/sandisk/local/junk/2025/2025-01-09/ninth-257.ly:23:11:12">
<g transform="translate(90.6206, 21.0826)">
<text font-family="serif" font-size="2.4697" text-anchor="start" fill="currentColor">
<tspan>ge</tspan>
</text>
</g>
</a>
<g transform="translate(91.1943, 15.5697)">
<rect x="-0.0650" y="-0.3139" width="0.1300" height="3.3139" ry="0.0400" fill="currentColor"/>
</g>
<a style="color:inherit;" xlink:href="textedit:///Volumes/sandisk/local/junk/2025/2025-01-09/ninth-257.ly:18:8:9">
<g transform="translate(96.5404, 17.0697)">
<path transform="scale(0.0040, -0.0040)" d="M218 136c66 0 108 -36 108 -89c0 -89 -113 -183 -218 -183c-66 0 -108 36 -108 89c0 89 113 183 218 183z" fill="currentColor"/>
</g>
</a>
<a style="color:inherit;" xlink:href="textedit:///Volumes/sandisk/local/junk/2025/2025-01-09/ninth-257.ly:23:17:18">
<g transform="translate(94.9390, 21.0826)">
<text font-family="serif" font-size="2.4697" text-anchor="start" fill="currentColor">
<tspan>teilt;</tspan>
</text>
</g>
</a>
<g transform="translate(97.7796, 15.5697)">
<rect x="-0.0650" y="-2.0000" width="0.1300" height="3.3139" ry="0.0400" fill="currentColor"/>
</g>
<a style="color:inherit;" xlink:href="textedit:///Volumes/sandisk/local/junk/2025/2025-01-09/ninth-257.ly:18:11:12">
<g transform="translate(102.4879, 14.5697)">
<path transform="scale(0.0040, -0.0040)" d="M218 136c66 0 108 -36 108 -89c0 -89 -113 -183 -218 -183c-66 0 -108 36 -108 89c0 89 113 183 218 183z" fill="currentColor"/>
</g>
</a>
<a style="color:inherit;" xlink:href="textedit:///Volumes/sandisk/local/junk/2025/2025-01-09/ninth-257.ly:23:24:25">
<g transform="translate(102.4879, 21.0826)">
<text font-family="serif" font-size="2.4697" text-anchor="start" fill="currentColor">
<tspan>Al</tspan>
</text>
</g>
</a>
<g transform="translate(102.5529, 15.5697)">
<rect x="-0.0650" y="-0.8139" width="0.1300" height="3.3139" ry="0.0400" fill="currentColor"/>
</g>
<g transform="translate(32.9524, 25.8660)">
<rect x="0.0000" y="-2.0000" width="0.1900" height="4.0000" ry="0.0000" fill="currentColor"/>
</g>
<g transform="translate(0.0000, 27.8660)">
<line stroke-linejoin="round" stroke-linecap="round" stroke-width="0.1000" stroke="currentColor" x1="0.0500" y1="0" x2="108.0705" y2="0"/>
</g>
<g transform="translate(0.0000, 26.8660)">
<line stroke-linejoin="round" stroke-linecap="round" stroke-width="0.1000" stroke="currentColor" x1="0.0500" y1="0" x2="108.0705" y2="0"/>
</g>
<g transform="translate(0.0000, 25.8660)">
<line stroke-linejoin="round" stroke-linecap="round" stroke-width="0.1000" stroke="currentColor" x1="0.0500" y1="0" x2="108.0705" y2="0"/>
</g>
<g transform="translate(0.0000, 24.8660)">
<line stroke-linejoin="round" stroke-linecap="round" stroke-width="0.1000" stroke="currentColor" x1="0.0500" y1="0" x2="108.0705" y2="0"/>
</g>
<g transform="translate(0.0000, 23.8660)">
<line stroke-linejoin="round" stroke-linecap="round" stroke-width="0.1000" stroke="currentColor" x1="0.0500" y1="0" x2="108.0705" y2="0"/>
</g>
<g transform="translate(60.1644, 25.8660)">
<rect x="0.0000" y="-2.0000" width="0.1900" height="4.0000" ry="0.0000" fill="currentColor"/>
</g>
<g transform="translate(107.9305, 25.8660)">
<rect x="0.0000" y="-2.0000" width="0.1900" height="4.0000" ry="0.0000" fill="currentColor"/>
</g>
<g transform="translate(85.7855, 25.8660)">
<rect x="0.0000" y="-2.0000" width="0.1900" height="4.0000" ry="0.0000" fill="currentColor"/>
</g>
<a style="color:inherit;" xlink:href="textedit:///Volumes/sandisk/local/junk/2025/2025-01-09/ninth-257.ly:19:4:5">
<g transform="translate(61.7974, 25.8660)">
<path transform="scale(0.0040, -0.0040)" d="M218 136c66 0 108 -36 108 -89c0 -89 -113 -183 -218 -183c-66 0 -108 36 -108 89c0 89 113 183 218 183z" fill="currentColor"/>
</g>
</a>
<a style="color:inherit;" xlink:href="textedit:///Volumes/sandisk/local/junk/2025/2025-01-09/ninth-257.ly:18:14:15">
<g transform="translate(0.0000, 25.8660)">
<path stroke-width="0.0800" stroke-linejoin="round" stroke-linecap="round" stroke="currentColor" fill="currentColor" d="M6.7000 -1.2809C7.2060 -1.8707 8.2940 -1.8707 8.8000 -1.2809L8.8000 -1.2809C8.2940 -1.7507 7.2060 -1.7507 6.7000 -1.2809z"/>
</g>
</a>
<g transform="translate(0.8000, 24.8660)">
<path transform="scale(0.0040, -0.0040)" d="M557 -125c0 28 23 51 51 51s51 -23 51 -51s-23 -51 -51 -51s-51 23 -51 51zM557 125c0 28 23 51 51 51s51 -23 51 -51s-23 -51 -51 -51s-51 23 -51 51zM232 263c172 0 293 -88 293 -251c0 -263 -263 -414 -516 -521c-3 -3 -6 -4 -9 -4c-7 0 -13 6 -13 13c0 3 1 6 4 9
c202 118 412 265 412 493c0 120 -63 235 -171 235c-74 0 -129 -54 -154 -126c11 5 22 8 34 8c55 0 100 -45 100 -100c0 -58 -44 -106 -100 -106c-60 0 -112 47 -112 106c0 133 102 244 232 244z" fill="currentColor"/>
</g>
<g transform="translate(4.3000, 24.8660)">
<path transform="scale(0.0040, -0.0040)" d="M0 119c0 8 5 15 13 18l46 17v158c0 10 8 19 18 19s19 -9 19 -19v-145l83 31v158c0 10 9 19 19 19s18 -9 18 -19v-145l32 12c2 1 5 1 7 1c11 0 20 -9 20 -20v-60c0 -8 -5 -16 -13 -19l-46 -16v-160l32 11c2 1 5 1 7 1c11 0 20 -9 20 -20v-60c0 -8 -5 -15 -13 -18l-46 -17
v-158c0 -10 -8 -19 -18 -19s-19 9 -19 19v145l-83 -31v-158c0 -10 -9 -19 -19 -19s-18 9 -18 19v145l-32 -12c-2 -1 -5 -1 -7 -1c-11 0 -20 9 -20 20v60c0 8 5 16 13 19l46 16v160l-32 -11c-2 -1 -5 -1 -7 -1c-11 0 -20 9 -20 20v60zM179 95l-83 -30v-160l83 30v160z" fill="currentColor"/>
</g>
<g transform="translate(5.4000, 26.3660)">
<path transform="scale(0.0040, -0.0040)" d="M0 119c0 8 5 15 13 18l46 17v158c0 10 8 19 18 19s19 -9 19 -19v-145l83 31v158c0 10 9 19 19 19s18 -9 18 -19v-145l32 12c2 1 5 1 7 1c11 0 20 -9 20 -20v-60c0 -8 -5 -16 -13 -19l-46 -16v-160l32 11c2 1 5 1 7 1c11 0 20 -9 20 -20v-60c0 -8 -5 -15 -13 -18l-46 -17
v-158c0 -10 -8 -19 -18 -19s-19 9 -19 19v145l-83 -31v-158c0 -10 -9 -19 -19 -19s-18 9 -18 19v145l-32 -12c-2 -1 -5 -1 -7 -1c-11 0 -20 9 -20 20v60c0 8 5 16 13 19l46 16v160l-32 -11c-2 -1 -5 -1 -7 -1c-11 0 -20 9 -20 20v60zM179 95l-83 -30v-160l83 30v160z" fill="currentColor"/>
</g>
<g transform="translate(-2.6632, 22.7956)">
<text font-family="serif" font-size="1.7459" text-anchor="start" fill="currentColor">
<tspan>261</tspan>
</text>
</g>
<a style="color:inherit;" xlink:href="textedit:///Volumes/sandisk/local/junk/2025/2025-01-09/ninth-257.ly:18:18:19">
<g transform="translate(9.0000, 24.8660)">
<path transform="scale(0.0040, -0.0040)" d="M218 136c66 0 108 -36 108 -89c0 -89 -113 -183 -218 -183c-66 0 -108 36 -108 89c0 89 113 183 218 183z" fill="currentColor"/>
</g>
</a>
<g transform="translate(9.0650, 25.8660)">
<rect x="-0.0650" y="-0.8139" width="0.1300" height="3.3139" ry="0.0400" fill="currentColor"/>
</g>
<a style="color:inherit;" xlink:href="textedit:///Volumes/sandisk/local/junk/2025/2025-01-09/ninth-257.ly:24:17:18">
<g transform="translate(77.6132, 31.3660)">
<rect x="0.0000" y="-0.5500" width="0.6600" height="0.1300" ry="0.0400" fill="currentColor"/>
</g>
</a>
<a style="color:inherit;" xlink:href="textedit:///Volumes/sandisk/local/junk/2025/2025-01-09/ninth-257.ly:18:21:22">
<g transform="translate(15.0473, 24.8660)">
<path transform="scale(0.0040, -0.0040)" d="M218 136c66 0 108 -36 108 -89c0 -89 -113 -183 -218 -183c-66 0 -108 36 -108 89c0 89 113 183 218 183z" fill="currentColor"/>
</g>
</a>
<a style="color:inherit;" xlink:href="textedit:///Volumes/sandisk/local/junk/2025/2025-01-09/ninth-257.ly:23:30:31">
<g transform="translate(14.8117, 31.3660)">
<text font-family="serif" font-size="2.4697" text-anchor="start" fill="currentColor">
<tspan>le</tspan>
</text>
</g>
</a>
<g transform="translate(15.1123, 25.8660)">
<rect x="-0.0650" y="-0.8139" width="0.1300" height="3.3139" ry="0.0400" fill="currentColor"/>
</g>
<a style="color:inherit;" xlink:href="textedit:///Volumes/sandisk/local/junk/2025/2025-01-09/ninth-257.ly:18:24:25">
<g transform="translate(21.0946, 24.3660)">
<path transform="scale(0.0040, -0.0040)" d="M218 136c66 0 108 -36 108 -89c0 -89 -113 -183 -218 -183c-66 0 -108 36 -108 89c0 89 113 183 218 183z" fill="currentColor"/>
</g>
</a>
<a style="color:inherit;" xlink:href="textedit:///Volumes/sandisk/local/junk/2025/2025-01-09/ninth-257.ly:23:33:34">
<g transform="translate(19.4932, 31.3660)">
<text font-family="serif" font-size="2.4697" text-anchor="start" fill="currentColor">
<tspan>Men</tspan>
</text>
</g>
</a>
<g transform="translate(21.1596, 25.8660)">
<rect x="-0.0650" y="-1.3139" width="0.1300" height="3.3139" ry="0.0400" fill="currentColor"/>
</g>
<a style="color:inherit;" xlink:href="textedit:///Volumes/sandisk/local/junk/2025/2025-01-09/ninth-257.ly:18:26:27">
<g transform="translate(27.1418, 23.8660)">
<path transform="scale(0.0040, -0.0040)" d="M218 136c66 0 108 -36 108 -89c0 -89 -113 -183 -218 -183c-66 0 -108 36 -108 89c0 89 113 183 218 183z" fill="currentColor"/>
</g>
</a>
<a style="color:inherit;" xlink:href="textedit:///Volumes/sandisk/local/junk/2025/2025-01-09/ninth-257.ly:23:40:41">
<g transform="translate(24.9942, 31.3660)">
<text font-family="serif" font-size="2.4697" text-anchor="start" fill="currentColor">
<tspan>schen</tspan>
</text>
</g>
</a>
<g transform="translate(27.2068, 25.8660)">
<rect x="-0.0650" y="-1.8139" width="0.1300" height="3.3139" ry="0.0400" fill="currentColor"/>
</g>
<a style="color:inherit;" xlink:href="textedit:///Volumes/sandisk/local/junk/2025/2025-01-09/ninth-257.ly:23:61:62">
<g transform="translate(52.5451, 31.3660)">
<rect x="0.0000" y="-0.5500" width="0.6600" height="0.1300" ry="0.0400" fill="currentColor"/>
</g>
</a>
<a style="color:inherit;" xlink:href="textedit:///Volumes/sandisk/local/junk/2025/2025-01-09/ninth-257.ly:18:30:31">
<g transform="translate(34.6711, 23.8660)">
<path transform="scale(0.0040, -0.0040)" d="M218 136c66 0 108 -36 108 -89c0 -89 -113 -183 -218 -183c-66 0 -108 36 -108 89c0 89 113 183 218 183z" fill="currentColor"/>
</g>
</a>
<a style="color:inherit;" xlink:href="textedit:///Volumes/sandisk/local/junk/2025/2025-01-09/ninth-257.ly:23:46:47">
<g transform="translate(33.4795, 31.3660)">
<text font-family="serif" font-size="2.4697" text-anchor="start" fill="currentColor">
<tspan>wer</tspan>
</text>
</g>
</a>
<g transform="translate(34.7361, 25.8660)">
<rect x="-0.0650" y="-1.8139" width="0.1300" height="3.3139" ry="0.0400" fill="currentColor"/>
</g>
<a style="color:inherit;" xlink:href="textedit:///Volumes/sandisk/local/junk/2025/2025-01-09/ninth-257.ly:18:49:50">
<g transform="translate(46.7656, 25.8660)">
<path stroke-width="0.0800" stroke-linejoin="round" stroke-linecap="round" stroke="currentColor" fill="currentColor" d="M0.6270 -2.1950C1.8699 -3.4388 5.2961 -3.6371 6.6743 -2.5450L6.6743 -2.5450C5.3031 -3.5173 1.8769 -3.3190 0.6270 -2.1950z"/>
</g>
</a>
<a style="color:inherit;" xlink:href="textedit:///Volumes/sandisk/local/junk/2025/2025-01-09/ninth-257.ly:18:32:33">
<g transform="translate(40.7184, 24.3660)">
<path transform="scale(0.0040, -0.0040)" d="M218 136c66 0 108 -36 108 -89c0 -89 -113 -183 -218 -183c-66 0 -108 36 -108 89c0 89 113 183 218 183z" fill="currentColor"/>
</g>
</a>
<a style="color:inherit;" xlink:href="textedit:///Volumes/sandisk/local/junk/2025/2025-01-09/ninth-257.ly:23:53:54">
<g transform="translate(39.5950, 31.3660)">
<text font-family="serif" font-size="2.4697" text-anchor="start" fill="currentColor">
<tspan>den</tspan>
</text>
</g>
</a>
<g transform="translate(40.7834, 25.8660)">
<rect x="-0.0650" y="-1.3139" width="0.1300" height="3.3139" ry="0.0400" fill="currentColor"/>
</g>
<a style="color:inherit;" xlink:href="textedit:///Volumes/sandisk/local/junk/2025/2025-01-09/ninth-257.ly:18:47:48">
<g transform="translate(46.7656, 24.8660)">
<path transform="scale(0.0040, -0.0040)" d="M218 136c66 0 108 -36 108 -89c0 -89 -113 -183 -218 -183c-66 0 -108 36 -108 89c0 89 113 183 218 183z" fill="currentColor"/>
</g>
</a>
<a style="color:inherit;" xlink:href="textedit:///Volumes/sandisk/local/junk/2025/2025-01-09/ninth-257.ly:23:57:58">
<g transform="translate(46.7656, 31.3660)">
<text font-family="serif" font-size="2.4697" text-anchor="start" fill="currentColor">
<tspan>Brü</tspan>
</text>
</g>
</a>
<g transform="translate(46.8306, 25.8660)">
<rect x="-0.0650" y="-0.8139" width="0.1300" height="3.3139" ry="0.0400" fill="currentColor"/>
</g>
<a style="color:inherit;" xlink:href="textedit:///Volumes/sandisk/local/junk/2025/2025-01-09/ninth-257.ly:23:50:51">
<g transform="translate(38.0510, 31.3660)">
<rect x="0.0000" y="-0.5500" width="0.6600" height="0.1300" ry="0.0400" fill="currentColor"/>
</g>
</a>
<a style="color:inherit;" xlink:href="textedit:///Volumes/sandisk/local/junk/2025/2025-01-09/ninth-257.ly:18:51:52">
<g transform="translate(52.8129, 24.3660)">
<path transform="scale(0.0040, -0.0040)" d="M218 136c66 0 108 -36 108 -89c0 -89 -113 -183 -218 -183c-66 0 -108 36 -108 89c0 89 113 183 218 183z" fill="currentColor"/>
</g>
</a>
<g transform="translate(52.8779, 25.8660)">
<rect x="-0.0650" y="-1.3139" width="0.1300" height="3.3139" ry="0.0400" fill="currentColor"/>
</g>
<g transform="translate(52.9429, 27.8260)">
<path transform="scale(0.0040, -0.0040)" d="M0 0h-16v250h16v-250zM0 0v250c97 59 224 148 224 259c0 57 -15 112 -40 163c-3 16 10 27 23 27c7 0 15 -3 20 -11c25 -56 40 -117 40 -179c0 -203 -267 -306 -267 -509z" fill="currentColor"/>
</g>
<a style="color:inherit;" xlink:href="textedit:///Volumes/sandisk/local/junk/2025/2025-01-09/ninth-257.ly:18:55:56">
<g transform="translate(56.4887, 25.3660)">
<path transform="scale(0.0040, -0.0040)" d="M218 136c66 0 108 -36 108 -89c0 -89 -113 -183 -218 -183c-66 0 -108 36 -108 89c0 89 113 183 218 183z" fill="currentColor"/>
</g>
</a>
<a style="color:inherit;" xlink:href="textedit:///Volumes/sandisk/local/junk/2025/2025-01-09/ninth-257.ly:23:64:65">
<g transform="translate(55.2970, 31.3660)">
<text font-family="serif" font-size="2.4697" text-anchor="start" fill="currentColor">
<tspan>der,</tspan>
</text>
</g>
</a>
<g transform="translate(56.5537, 25.8660)">
<rect x="-0.0650" y="-0.3139" width="0.1300" height="3.3139" ry="0.0400" fill="currentColor"/>
</g>
<g transform="translate(56.6187, 28.8260)">
<path transform="scale(0.0040, -0.0040)" d="M0 0h-16v250h16v-250zM0 0v250c97 59 224 148 224 259c0 57 -15 112 -40 163c-3 16 10 27 23 27c7 0 15 -3 20 -11c25 -56 40 -117 40 -179c0 -203 -267 -306 -267 -509z" fill="currentColor"/>
</g>
<a style="color:inherit;" xlink:href="textedit:///Volumes/sandisk/local/junk/2025/2025-01-09/ninth-257.ly:23:37:38">
<g transform="translate(24.1672, 31.3660)">
<rect x="0.0000" y="-0.5500" width="0.6600" height="0.1300" ry="0.0400" fill="currentColor"/>
</g>
</a>
<a style="color:inherit;" xlink:href="textedit:///Volumes/sandisk/local/junk/2025/2025-01-09/ninth-257.ly:24:28:29">
<g transform="translate(91.5547, 31.3660)">
<rect x="0.0000" y="-0.5500" width="0.6600" height="0.1300" ry="0.0400" fill="currentColor"/>
</g>
</a>
<a style="color:inherit;" xlink:href="textedit:///Volumes/sandisk/local/junk/2025/2025-01-09/ninth-257.ly:23:27:28">
<g transform="translate(10.3258, 31.3660)">
<rect x="0.0000" y="-0.5500" width="0.6600" height="0.1300" ry="0.0400" fill="currentColor"/>
</g>
</a>
<g transform="translate(61.8624, 25.8660)">
<rect x="-0.0650" y="0.1861" width="0.1300" height="3.1472" ry="0.0400" fill="currentColor"/>
</g>
<a style="color:inherit;" xlink:href="textedit:///Volumes/sandisk/local/junk/2025/2025-01-09/ninth-257.ly:19:7:8">
<g transform="translate(67.8446, 25.8660)">
<path transform="scale(0.0040, -0.0040)" d="M218 136c66 0 108 -36 108 -89c0 -89 -113 -183 -218 -183c-66 0 -108 36 -108 89c0 89 113 183 218 183z" fill="currentColor"/>
</g>
</a>
<a style="color:inherit;" xlink:href="textedit:///Volumes/sandisk/local/junk/2025/2025-01-09/ninth-257.ly:24:7:8">
<g transform="translate(66.3799, 31.3660)">
<text font-family="serif" font-size="2.4697" text-anchor="start" fill="currentColor">
<tspan>dein</tspan>
</text>
</g>
</a>
<g transform="translate(67.9096, 25.8660)">
<rect x="-0.0650" y="0.1861" width="0.1300" height="3.1472" ry="0.0400" fill="currentColor"/>
</g>
<a style="color:inherit;" xlink:href="textedit:///Volumes/sandisk/local/junk/2025/2025-01-09/ninth-257.ly:19:9:10">
<g transform="translate(73.8919, 25.3660)">
<path transform="scale(0.0040, -0.0040)" d="M218 136c66 0 108 -36 108 -89c0 -89 -113 -183 -218 -183c-66 0 -108 36 -108 89c0 89 113 183 218 183z" fill="currentColor"/>
</g>
</a>
<a style="color:inherit;" xlink:href="textedit:///Volumes/sandisk/local/junk/2025/2025-01-09/ninth-257.ly:24:12:13">
<g transform="translate(72.4954, 31.3660)">
<text font-family="serif" font-size="2.4697" text-anchor="start" fill="currentColor">
<tspan>sanf</tspan>
</text>
</g>
</a>
<g transform="translate(73.9569, 25.8660)">
<rect x="-0.0650" y="-0.3139" width="0.1300" height="3.3139" ry="0.0400" fill="currentColor"/>
</g>
<a style="color:inherit;" xlink:href="textedit:///Volumes/sandisk/local/junk/2025/2025-01-09/ninth-257.ly:19:11:12">
<g transform="translate(79.9392, 24.8660)">
<path transform="scale(0.0040, -0.0040)" d="M218 136c66 0 108 -36 108 -89c0 -89 -113 -183 -218 -183c-66 0 -108 36 -108 89c0 89 113 183 218 183z" fill="currentColor"/>
</g>
</a>
<a style="color:inherit;" xlink:href="textedit:///Volumes/sandisk/local/junk/2025/2025-01-09/ninth-257.ly:24:20:21">
<g transform="translate(79.2939, 31.3660)">
<text font-family="serif" font-size="2.4697" text-anchor="start" fill="currentColor">
<tspan>ter</tspan>
</text>
</g>
</a>
<g transform="translate(80.0042, 25.8660)">
<rect x="-0.0650" y="-0.8139" width="0.1300" height="3.3139" ry="0.0400" fill="currentColor"/>
</g>
<a style="color:inherit;" xlink:href="textedit:///Volumes/sandisk/local/junk/2025/2025-01-09/ninth-257.ly:19:16:17">
<g transform="translate(87.4470, 25.3660)">
<path transform="scale(0.0040, -0.0040)" d="M218 136c66 0 108 -36 108 -89c0 -89 -113 -183 -218 -183c-66 0 -108 36 -108 89c0 89 113 183 218 183z" fill="currentColor"/>
</g>
</a>
<a style="color:inherit;" xlink:href="textedit:///Volumes/sandisk/local/junk/2025/2025-01-09/ninth-257.ly:24:24:25">
<g transform="translate(86.4602, 31.3660)">
<text font-family="serif" font-size="2.4697" text-anchor="start" fill="currentColor">
<tspan>Flü</tspan>
</text>
</g>
</a>
<g transform="translate(89.2012, 25.3660)">
<path transform="scale(0.0040, -0.0040)" d="M0 0c0 31 25 56 56 56s56 -25 56 -56s-25 -56 -56 -56s-56 25 -56 56z" fill="currentColor"/>
</g>
<g transform="translate(87.5120, 25.8660)">
<rect x="-0.0650" y="-0.3139" width="0.1300" height="3.3139" ry="0.0400" fill="currentColor"/>
</g>
<a style="color:inherit;" xlink:href="textedit:///Volumes/sandisk/local/junk/2025/2025-01-09/ninth-257.ly:19:20:21">
<g transform="translate(94.8815, 25.8660)">
<path transform="scale(0.0040, -0.0040)" d="M218 136c66 0 108 -36 108 -89c0 -89 -113 -183 -218 -183c-66 0 -108 36 -108 89c0 89 113 183 218 183z" fill="currentColor"/>
</g>
</a>
<a style="color:inherit;" xlink:href="textedit:///Volumes/sandisk/local/junk/2025/2025-01-09/ninth-257.ly:24:31:32">
<g transform="translate(94.0313, 31.3660)">
<text font-family="serif" font-size="2.4697" text-anchor="start" fill="currentColor">
<tspan>gel</tspan>
</text>
</g>
</a>
<g transform="translate(94.9465, 25.8660)">
<rect x="-0.0650" y="0.1861" width="0.1300" height="3.1889" ry="0.0400" fill="currentColor"/>
</g>
<g transform="translate(95.0115, 29.2010)">
<path transform="scale(0.0040, -0.0040)" d="M0 0h-16v250h16v-250zM0 0v250c97 59 224 148 224 259c0 57 -15 112 -40 163c-3 16 10 27 23 27c7 0 15 -3 20 -11c25 -56 40 -117 40 -179c0 -203 -267 -306 -267 -509z" fill="currentColor"/>
</g>
<a style="color:inherit;" xlink:href="textedit:///Volumes/sandisk/local/junk/2025/2025-01-09/ninth-257.ly:19:23:24">
<g transform="translate(99.5629, 25.8660)">
<path transform="scale(0.0040, -0.0040)" d="M314 65c0 23 -19 41 -42 41c-39 0 -204 -110 -231 -143c-7 -8 -10 -18 -10 -28c0 -23 19 -41 42 -41c39 0 203 110 230 143c7 8 11 18 11 28zM262 136c41 0 82 -14 82 -71c0 -26 -16 -112 -74 -151c-25 -17 -87 -50 -187 -50c-41 0 -83 14 -83 71c0 26 16 112 74 151
c25 17 88 50 188 50z" fill="currentColor"/>
</g>
</a>
<a style="color:inherit;" xlink:href="textedit:///Volumes/sandisk/local/junk/2025/2025-01-09/ninth-257.ly:24:35:36">
<g transform="translate(97.4860, 31.3660)">
<text font-family="serif" font-size="2.4697" text-anchor="start" fill="currentColor">
<tspan>weilt.</tspan>
</text>
</g>
</a>
<g transform="translate(99.6279, 25.8660)">
<rect x="-0.0650" y="0.2590" width="0.1300" height="3.0743" ry="0.0400" fill="currentColor"/>
</g>
<a style="color:inherit;" xlink:href="textedit:///Volumes/sandisk/local/junk/2025/2025-01-09/ninth-257.ly:24:4:5">
<g transform="translate(60.7765, 31.3660)">
<text font-family="serif" font-size="2.4697" text-anchor="start" fill="currentColor">
<tspan>Wo</tspan>
</text>
</g>
</a>
</svg>
