<svg xmlns="http://www.w3.org/2000/svg" xmlns:xlink="http://www.w3.org/1999/xlink" version="1.2" width="196.72mm" height="47.06mm" viewBox="-3.8241 -0.0000 111.9445 26.7817">
<style type="text/css">
<![CDATA[
tspan { white-space: pre; }
]]>
</style>
<g transform="translate(16.4220, 9.7146)">
<rect x="0.0000" y="-2.0000" width="0.1900" height="4.0000" ry="0.0000" fill="currentColor"/>
</g>
<g transform="translate(0.0000, 11.7146)">
<line stroke-linejoin="round" stroke-linecap="round" stroke-width="0.1000" stroke="currentColor" x1="0.0500" y1="0" x2="108.0705" y2="0"/>
</g>
<g transform="translate(0.0000, 10.7146)">
<line stroke-linejoin="round" stroke-linecap="round" stroke-width="0.1000" stroke="currentColor" x1="0.0500" y1="0" x2="108.0705" y2="0"/>
</g>
<g transform="translate(0.0000, 9.7146)">
<line stroke-linejoin="round" stroke-linecap="round" stroke-width="0.1000" stroke="currentColor" x1="0.0500" y1="0" x2="108.0705" y2="0"/>
</g>
<g transform="translate(0.0000, 8.7146)">
<line stroke-linejoin="round" stroke-linecap="round" stroke-width="0.1000" stroke="currentColor" x1="0.0500" y1="0" x2="108.0705" y2="0"/>
</g>
<g transform="translate(0.0000, 7.7146)">
<line stroke-linejoin="round" stroke-linecap="round" stroke-width="0.1000" stroke="currentColor" x1="0.0500" y1="0" x2="108.0705" y2="0"/>
</g>
<g transform="translate(62.1991, 9.7146)">
<rect x="0.0000" y="-2.0000" width="0.1900" height="4.0000" ry="0.0000" fill="currentColor"/>
</g>
<g transform="translate(107.9305, 9.7146)">
<rect x="0.0000" y="-2.0000" width="0.1900" height="4.0000" ry="0.0000" fill="currentColor"/>
</g>
<g transform="translate(85.2833, 9.7146)">
<rect x="0.0000" y="-2.0000" width="0.1900" height="4.0000" ry="0.0000" fill="currentColor"/>
</g>
<g transform="translate(39.3105, 9.7146)">
<rect x="0.0000" y="-2.0000" width="0.1900" height="4.0000" ry="0.0000" fill="currentColor"/>
</g>
<a style="color:inherit;" xlink:href="textedit:///Volumes/sandisk/local/junk/2025/2025-01-09/ninth-285.ly:13:36:37">
<g transform="translate(64.0897, 7.7146)">
<path transform="scale(0.0040, -0.0040)" d="M218 136c66 0 108 -36 108 -89c0 -89 -113 -183 -218 -183c-66 0 -108 36 -108 89c0 89 113 183 218 183z" fill="currentColor"/>
</g>
</a>
<a style="color:inherit;" xlink:href="textedit:///Volumes/sandisk/local/junk/2025/2025-01-09/ninth-285.ly:13:4:5">
<g transform="translate(11.3500, 7.7146)">
<path transform="scale(0.0040, -0.0040)" d="M218 136c66 0 108 -36 108 -89c0 -89 -113 -183 -218 -183c-66 0 -108 36 -108 89c0 89 113 183 218 183z" fill="currentColor"/>
</g>
</a>
<a style="color:inherit;" xlink:href="textedit:///Volumes/sandisk/local/junk/2025/2025-01-09/ninth-285.ly:13:6:7">
<g transform="translate(11.3705, 5.8876)">
<path transform="scale(0.0040, -0.0040)" d="M253 245l-50 -163c-30 -99 -121 -255 -218 -255c-45 0 -87 27 -87 69c0 39 17 77 52 77c24 0 44 -20 44 -44c0 -30 -38 -24 -38 -54c0 -10 11 -11 23 -11h6c48 0 61 58 73 108l68 273h-49c-11 0 -19 8 -19 19s8 19 19 19h60c32 96 118 191 213 191c45 0 87 -27 87 -69
c0 -39 -17 -77 -52 -77c-24 0 -44 19 -44 43c0 30 38 25 38 55c0 10 -10 11 -22 11h-7c-62 0 -70 -88 -86 -154h55c11 0 19 -8 19 -19s-8 -19 -19 -19h-66z" fill="currentColor"/>
</g>
</a>
<g transform="translate(0.8000, 8.7146)">
<path transform="scale(0.0040, -0.0040)" d="M557 -125c0 28 23 51 51 51s51 -23 51 -51s-23 -51 -51 -51s-51 23 -51 51zM557 125c0 28 23 51 51 51s51 -23 51 -51s-23 -51 -51 -51s-51 23 -51 51zM232 263c172 0 293 -88 293 -251c0 -263 -263 -414 -516 -521c-3 -3 -6 -4 -9 -4c-7 0 -13 6 -13 13c0 3 1 6 4 9
c202 118 412 265 412 493c0 120 -63 235 -171 235c-74 0 -129 -54 -154 -126c11 5 22 8 34 8c55 0 100 -45 100 -100c0 -58 -44 -106 -100 -106c-60 0 -112 47 -112 106c0 133 102 244 232 244z" fill="currentColor"/>
</g>
<a style="color:inherit;" xlink:href="textedit:///Volumes/sandisk/local/junk/2025/2025-01-09/ninth-285.ly:7:4:5">
<g transform="translate(4.3000, 8.7146)">
<path transform="scale(0.0040, -0.0040)" d="M0 119c0 8 5 15 13 18l46 17v158c0 10 8 19 18 19s19 -9 19 -19v-145l83 31v158c0 10 9 19 19 19s18 -9 18 -19v-145l32 12c2 1 5 1 7 1c11 0 20 -9 20 -20v-60c0 -8 -5 -16 -13 -19l-46 -16v-160l32 11c2 1 5 1 7 1c11 0 20 -9 20 -20v-60c0 -8 -5 -15 -13 -18l-46 -17
v-158c0 -10 -8 -19 -18 -19s-19 9 -19 19v145l-83 -31v-158c0 -10 -9 -19 -19 -19s-18 9 -18 19v145l-32 -12c-2 -1 -5 -1 -7 -1c-11 0 -20 9 -20 20v60c0 8 5 16 13 19l46 16v160l-32 -11c-2 -1 -5 -1 -7 -1c-11 0 -20 9 -20 20v60zM179 95l-83 -30v-160l83 30v160z" fill="currentColor"/>
</g>
<g transform="translate(5.4000, 10.2146)">
<path transform="scale(0.0040, -0.0040)" d="M0 119c0 8 5 15 13 18l46 17v158c0 10 8 19 18 19s19 -9 19 -19v-145l83 31v158c0 10 9 19 19 19s18 -9 18 -19v-145l32 12c2 1 5 1 7 1c11 0 20 -9 20 -20v-60c0 -8 -5 -16 -13 -19l-46 -16v-160l32 11c2 1 5 1 7 1c11 0 20 -9 20 -20v-60c0 -8 -5 -15 -13 -18l-46 -17
v-158c0 -10 -8 -19 -18 -19s-19 9 -19 19v145l-83 -31v-158c0 -10 -9 -19 -19 -19s-18 9 -18 19v145l-32 -12c-2 -1 -5 -1 -7 -1c-11 0 -20 9 -20 20v60c0 8 5 16 13 19l46 16v160l-32 -11c-2 -1 -5 -1 -7 -1c-11 0 -20 9 -20 20v60zM179 95l-83 -30v-160l83 30v160z" fill="currentColor"/>
</g>
</a>
<a style="color:inherit;" xlink:href="textedit:///Volumes/sandisk/local/junk/2025/2025-01-09/ninth-285.ly:8:4:5">
<g transform="translate(7.6500, 9.7146)">
<path transform="scale(0.0040, -0.0040)" d="M250 262c116 0 176 -106 176 -163c0 -40 -30 -72 -67 -72c-31 0 -75 25 -75 75c0 38 27 77 72 77c4 0 9 0 14 -1c-28 37 -72 59 -120 59c-106 0 -113 -73 -113 -186v-51v-51c0 -113 7 -187 113 -187c80 0 139 70 158 151c2 7 7 10 12 10c6 0 13 -4 13 -12
c0 -22 -50 -174 -183 -174c-59 0 -250 19 -250 263c0 62 18 262 250 262z" fill="currentColor"/>
</g>
</a>
<a style="color:inherit;" xlink:href="textedit:///Volumes/sandisk/local/junk/2025/2025-01-09/ninth-285.ly:17:12:13">
<g transform="translate(11.3500, 14.9294)">
<text font-family="serif" font-size="2.4697" text-anchor="start" fill="currentColor">
<tspan>Ja____,</tspan>
</text>
</g>
</a>
<a style="color:inherit;" xlink:href="textedit:///Volumes/sandisk/local/junk/2025/2025-01-09/ninth-285.ly:9:4:5">
<g transform="translate(7.6500, 3.1615)">
<text font-family="serif" font-weight="bold" font-size="2.2000" text-anchor="start" fill="currentColor">
<tspan>Allegro assai</tspan>
</text>
</g>
<g transform="translate(19.6685, 3.1615)">
<text font-family="serif" font-size="2.2000" text-anchor="start" fill="currentColor">
<tspan> (</tspan>
</text>
</g>
<g transform="translate(20.9318, 2.6727)">
<rect x="1.1141" y="-2.6727" width="0.1158" height="2.4473" ry="0.0193" fill="currentColor"/>
</g>
<g transform="translate(20.9318, 2.6727)">
<path transform="scale(0.0036, -0.0036)" d="M312 64c0 23 -18 41 -41 41c-39 0 -201 -110 -228 -142c-7 -8 -10 -17 -10 -27c0 -23 18 -41 41 -41c39 0 201 110 228 142c7 8 10 17 10 27zM259 137c46 0 86 -17 86 -74c0 -26 -15 -112 -73 -151c-29 -20 -89 -49 -186 -49c-46 0 -86 17 -86 74c0 26 16 112 74 151
c29 20 88 49 185 49z" fill="currentColor"/>
</g>
<g transform="translate(22.1617, 3.1615)">
<text font-family="serif" font-size="2.2000" text-anchor="start" fill="currentColor">
<tspan> = 80)</tspan>
</text>
</g>
</a>
<g transform="translate(11.4150, 9.7146)">
<rect x="-0.0650" y="-1.8139" width="0.1300" height="3.3139" ry="0.0400" fill="currentColor"/>
</g>
<g transform="translate(-3.8241, 6.2912)">
<text font-family="serif" font-size="1.7459" text-anchor="start" fill="currentColor">
<tspan>(285)</tspan>
</text>
</g>
<a style="color:inherit;" xlink:href="textedit:///Volumes/sandisk/local/junk/2025/2025-01-09/ninth-285.ly:13:12:13">
<g transform="translate(18.3126, 7.7146)">
<path transform="scale(0.0040, -0.0040)" d="M218 136c66 0 108 -36 108 -89c0 -89 -113 -183 -218 -183c-66 0 -108 36 -108 89c0 89 113 183 218 183z" fill="currentColor"/>
</g>
</a>
<a style="color:inherit;" xlink:href="textedit:///Volumes/sandisk/local/junk/2025/2025-01-09/ninth-285.ly:13:58:59">
<g transform="translate(102.3851, 9.7146)">
<path stroke-width="0.0800" stroke-linejoin="round" stroke-linecap="round" stroke="currentColor" fill="currentColor" d="M1.6042 0.4550C2.5689 -0.4435 4.5807 -0.4435 5.5454 0.4550L5.5454 0.4550C4.5807 -0.3235 2.5689 -0.3235 1.6042 0.4550z"/>
</g>
</a>
<g transform="translate(18.3776, 9.7146)">
<rect x="-0.0650" y="-1.8139" width="0.1300" height="3.3139" ry="0.0400" fill="currentColor"/>
</g>
<a style="color:inherit;" xlink:href="textedit:///Volumes/sandisk/local/junk/2025/2025-01-09/ninth-285.ly:13:14:15">
<g transform="translate(23.1744, 11.2146)">
<path transform="scale(0.0040, -0.0040)" d="M218 136c66 0 108 -36 108 -89c0 -89 -113 -183 -218 -183c-66 0 -108 36 -108 89c0 89 113 183 218 183z" fill="currentColor"/>
</g>
</a>
<a style="color:inherit;" xlink:href="textedit:///Volumes/sandisk/local/junk/2025/2025-01-09/ninth-285.ly:17:14:15">
<g transform="translate(21.9828, 14.9294)">
<text font-family="serif" font-size="2.4697" text-anchor="start" fill="currentColor">
<tspan>wer</tspan>
</text>
</g>
</a>
<g transform="translate(24.4136, 9.7146)">
<rect x="-0.0650" y="-2.0000" width="0.1300" height="3.3139" ry="0.0400" fill="currentColor"/>
</g>
<a style="color:inherit;" xlink:href="textedit:///Volumes/sandisk/local/junk/2025/2025-01-09/ninth-285.ly:13:17:18">
<g transform="translate(28.9299, 7.7146)">
<path transform="scale(0.0040, -0.0040)" d="M218 136c66 0 108 -36 108 -89c0 -89 -113 -183 -218 -183c-66 0 -108 36 -108 89c0 89 113 183 218 183z" fill="currentColor"/>
</g>
</a>
<a style="color:inherit;" xlink:href="textedit:///Volumes/sandisk/local/junk/2025/2025-01-09/ninth-285.ly:17:18:19">
<g transform="translate(27.2603, 14.9294)">
<text font-family="serif" font-size="2.4697" text-anchor="start" fill="currentColor">
<tspan>auch</tspan>
</text>
</g>
</a>
<g transform="translate(28.9949, 9.7146)">
<rect x="-0.0650" y="-1.8139" width="0.1300" height="3.3139" ry="0.0400" fill="currentColor"/>
</g>
<a style="color:inherit;" xlink:href="textedit:///Volumes/sandisk/local/junk/2025/2025-01-09/ninth-285.ly:13:20:21">
<g transform="translate(34.2386, 7.7146)">
<path transform="scale(0.0040, -0.0040)" d="M218 136c66 0 108 -36 108 -89c0 -89 -113 -183 -218 -183c-66 0 -108 36 -108 89c0 89 113 183 218 183z" fill="currentColor"/>
</g>
</a>
<a style="color:inherit;" xlink:href="textedit:///Volumes/sandisk/local/junk/2025/2025-01-09/ninth-285.ly:17:23:24">
<g transform="translate(33.2518, 14.9294)">
<text font-family="serif" font-size="2.4697" text-anchor="start" fill="currentColor">
<tspan>nur</tspan>
</text>
</g>
</a>
<g transform="translate(34.3036, 9.7146)">
<rect x="-0.0650" y="-1.8139" width="0.1300" height="3.3139" ry="0.0400" fill="currentColor"/>
</g>
<a style="color:inherit;" xlink:href="textedit:///Volumes/sandisk/local/junk/2025/2025-01-09/ninth-285.ly:17:40:41">
<g transform="translate(55.2388, 14.9294)">
<rect x="0.0000" y="-0.5500" width="0.6600" height="0.1300" ry="0.0400" fill="currentColor"/>
</g>
</a>
<a style="color:inherit;" xlink:href="textedit:///Volumes/sandisk/local/junk/2025/2025-01-09/ninth-285.ly:13:24:25">
<g transform="translate(41.2011, 7.7146)">
<path transform="scale(0.0040, -0.0040)" d="M218 136c66 0 108 -36 108 -89c0 -89 -113 -183 -218 -183c-66 0 -108 36 -108 89c0 89 113 183 218 183z" fill="currentColor"/>
</g>
</a>
<a style="color:inherit;" xlink:href="textedit:///Volumes/sandisk/local/junk/2025/2025-01-09/ninth-285.ly:17:27:28">
<g transform="translate(40.9655, 14.9294)">
<text font-family="serif" font-size="2.4697" text-anchor="start" fill="currentColor">
<tspan>ei</tspan>
</text>
</g>
</a>
<g transform="translate(41.2661, 9.7146)">
<rect x="-0.0650" y="-1.8139" width="0.1300" height="3.3139" ry="0.0400" fill="currentColor"/>
</g>
<a style="color:inherit;" xlink:href="textedit:///Volumes/sandisk/local/junk/2025/2025-01-09/ninth-285.ly:17:30:31">
<g transform="translate(43.8176, 14.9294)">
<rect x="0.0000" y="-0.5500" width="0.6600" height="0.1300" ry="0.0400" fill="currentColor"/>
</g>
</a>
<a style="color:inherit;" xlink:href="textedit:///Volumes/sandisk/local/junk/2025/2025-01-09/ninth-285.ly:13:26:27">
<g transform="translate(46.0630, 11.2146)">
<path transform="scale(0.0040, -0.0040)" d="M218 136c66 0 108 -36 108 -89c0 -89 -113 -183 -218 -183c-66 0 -108 36 -108 89c0 89 113 183 218 183z" fill="currentColor"/>
</g>
</a>
<a style="color:inherit;" xlink:href="textedit:///Volumes/sandisk/local/junk/2025/2025-01-09/ninth-285.ly:17:33:34">
<g transform="translate(45.5542, 14.9294)">
<text font-family="serif" font-size="2.4697" text-anchor="start" fill="currentColor">
<tspan>ne</tspan>
</text>
</g>
</a>
<g transform="translate(47.3022, 9.7146)">
<rect x="-0.0650" y="-2.0000" width="0.1300" height="3.3139" ry="0.0400" fill="currentColor"/>
</g>
<a style="color:inherit;" xlink:href="textedit:///Volumes/sandisk/local/junk/2025/2025-01-09/ninth-285.ly:13:29:30">
<g transform="translate(51.8185, 7.7146)">
<path transform="scale(0.0040, -0.0040)" d="M218 136c66 0 108 -36 108 -89c0 -89 -113 -183 -218 -183c-66 0 -108 36 -108 89c0 89 113 183 218 183z" fill="currentColor"/>
</g>
</a>
<a style="color:inherit;" xlink:href="textedit:///Volumes/sandisk/local/junk/2025/2025-01-09/ninth-285.ly:17:36:37">
<g transform="translate(50.6951, 14.9294)">
<text font-family="serif" font-size="2.4697" text-anchor="start" fill="currentColor">
<tspan>See</tspan>
</text>
</g>
</a>
<g transform="translate(51.8835, 9.7146)">
<rect x="-0.0650" y="-1.8139" width="0.1300" height="3.3139" ry="0.0400" fill="currentColor"/>
</g>
<a style="color:inherit;" xlink:href="textedit:///Volumes/sandisk/local/junk/2025/2025-01-09/ninth-285.ly:13:32:33">
<g transform="translate(57.1271, 7.7146)">
<path transform="scale(0.0040, -0.0040)" d="M218 136c66 0 108 -36 108 -89c0 -89 -113 -183 -218 -183c-66 0 -108 36 -108 89c0 89 113 183 218 183z" fill="currentColor"/>
</g>
</a>
<a style="color:inherit;" xlink:href="textedit:///Volumes/sandisk/local/junk/2025/2025-01-09/ninth-285.ly:17:43:44">
<g transform="translate(56.8915, 14.9294)">
<text font-family="serif" font-size="2.4697" text-anchor="start" fill="currentColor">
<tspan>le</tspan>
</text>
</g>
</a>
<g transform="translate(57.1921, 9.7146)">
<rect x="-0.0650" y="-1.8139" width="0.1300" height="3.3139" ry="0.0400" fill="currentColor"/>
</g>
<a style="color:inherit;" xlink:href="textedit:///Volumes/sandisk/local/junk/2025/2025-01-09/ninth-285.ly:18:33:34">
<g transform="translate(94.7472, 14.9294)">
<rect x="0.0000" y="-0.5500" width="0.6600" height="0.1300" ry="0.0400" fill="currentColor"/>
</g>
</a>
<a style="color:inherit;" xlink:href="textedit:///Volumes/sandisk/local/junk/2025/2025-01-09/ninth-285.ly:19:8:9">
<g transform="translate(106.6989, 14.9294)">
<rect x="0.0000" y="-0.0800" width="1.4200" height="0.0800" ry="0.0320" fill="currentColor"/>
</g>
</a>
<a style="color:inherit;" xlink:href="textedit:///Volumes/sandisk/local/junk/2025/2025-01-09/ninth-285.ly:18:26:27">
<g transform="translate(89.7001, 14.9294)">
<rect x="0.0000" y="-0.5500" width="0.6600" height="0.1300" ry="0.0400" fill="currentColor"/>
</g>
</a>
<g transform="translate(64.1547, 9.7146)">
<rect x="-0.0650" y="-1.8139" width="0.1300" height="3.3139" ry="0.0400" fill="currentColor"/>
</g>
<a style="color:inherit;" xlink:href="textedit:///Volumes/sandisk/local/junk/2025/2025-01-09/ninth-285.ly:13:38:39">
<g transform="translate(69.4563, 7.7146)">
<path transform="scale(0.0040, -0.0040)" d="M218 136c66 0 108 -36 108 -89c0 -89 -113 -183 -218 -183c-66 0 -108 36 -108 89c0 89 113 183 218 183z" fill="currentColor"/>
</g>
</a>
<a style="color:inherit;" xlink:href="textedit:///Volumes/sandisk/local/junk/2025/2025-01-09/ninth-285.ly:18:9:10">
<g transform="translate(67.3769, 14.9294)">
<text font-family="serif" font-size="2.4697" text-anchor="start" fill="currentColor">
<tspan>nennt</tspan>
</text>
</g>
</a>
<g transform="translate(69.5213, 9.7146)">
<rect x="-0.0650" y="-1.8139" width="0.1300" height="3.3139" ry="0.0400" fill="currentColor"/>
</g>
<a style="color:inherit;" xlink:href="textedit:///Volumes/sandisk/local/junk/2025/2025-01-09/ninth-285.ly:13:40:41">
<g transform="translate(75.1169, 7.7146)">
<path transform="scale(0.0040, -0.0040)" d="M218 136c66 0 108 -36 108 -89c0 -89 -113 -183 -218 -183c-66 0 -108 36 -108 89c0 89 113 183 218 183z" fill="currentColor"/>
</g>
</a>
<a style="color:inherit;" xlink:href="textedit:///Volumes/sandisk/local/junk/2025/2025-01-09/ninth-285.ly:18:15:16">
<g transform="translate(74.1984, 14.9294)">
<text font-family="serif" font-size="2.4697" text-anchor="start" fill="currentColor">
<tspan>auf</tspan>
</text>
</g>
</a>
<g transform="translate(75.1819, 9.7146)">
<rect x="-0.0650" y="-1.8139" width="0.1300" height="3.3139" ry="0.0400" fill="currentColor"/>
</g>
<g transform="translate(73.6669, 7.7146)">
<path transform="scale(0.0040, -0.0040)" d="M0 119c0 8 5 15 13 18l46 17v158c0 10 8 19 18 19s19 -9 19 -19v-145l83 31v158c0 10 9 19 19 19s18 -9 18 -19v-145l32 12c2 1 5 1 7 1c11 0 20 -9 20 -20v-60c0 -8 -5 -16 -13 -19l-46 -16v-160l32 11c2 1 5 1 7 1c11 0 20 -9 20 -20v-60c0 -8 -5 -15 -13 -18l-46 -17
v-158c0 -10 -8 -19 -18 -19s-19 9 -19 19v145l-83 -31v-158c0 -10 -9 -19 -19 -19s-18 9 -18 19v145l-32 -12c-2 -1 -5 -1 -7 -1c-11 0 -20 9 -20 20v60c0 8 5 16 13 19l46 16v160l-32 -11c-2 -1 -5 -1 -7 -1c-11 0 -20 9 -20 20v60zM179 95l-83 -30v-160l83 30v160z" fill="currentColor"/>
</g>
<a style="color:inherit;" xlink:href="textedit:///Volumes/sandisk/local/junk/2025/2025-01-09/ninth-285.ly:13:5:6">
<g transform="translate(11.3500, 9.7146)">
<path stroke-width="0.0800" stroke-linejoin="round" stroke-linecap="round" stroke="currentColor" fill="currentColor" d="M0.8521 -2.7500C1.8805 -3.6295 6.3862 -3.6295 7.4147 -2.7500L7.4147 -2.7500C6.3862 -3.5095 1.8805 -3.5095 0.8521 -2.7500z"/>
</g>
</a>
<a style="color:inherit;" xlink:href="textedit:///Volumes/sandisk/local/junk/2025/2025-01-09/ninth-285.ly:13:43:44">
<g transform="translate(80.1756, 8.7146)">
<path transform="scale(0.0040, -0.0040)" d="M218 136c66 0 108 -36 108 -89c0 -89 -113 -183 -218 -183c-66 0 -108 36 -108 89c0 89 113 183 218 183z" fill="currentColor"/>
</g>
</a>
<a style="color:inherit;" xlink:href="textedit:///Volumes/sandisk/local/junk/2025/2025-01-09/ninth-285.ly:18:19:20">
<g transform="translate(78.7108, 14.9294)">
<text font-family="serif" font-size="2.4697" text-anchor="start" fill="currentColor">
<tspan>dem</tspan>
</text>
</g>
</a>
<g transform="translate(80.2406, 9.7146)">
<rect x="-0.0650" y="-0.8139" width="0.1300" height="3.3139" ry="0.0400" fill="currentColor"/>
</g>
<a style="color:inherit;" xlink:href="textedit:///Volumes/sandisk/local/junk/2025/2025-01-09/ninth-285.ly:13:48:49">
<g transform="translate(87.1559, 7.2146)">
<path transform="scale(0.0040, -0.0040)" d="M218 136c66 0 108 -36 108 -89c0 -89 -113 -183 -218 -183c-66 0 -108 36 -108 89c0 89 113 183 218 183z" fill="currentColor"/>
</g>
</a>
<a style="color:inherit;" xlink:href="textedit:///Volumes/sandisk/local/junk/2025/2025-01-09/ninth-285.ly:18:23:24">
<g transform="translate(86.6472, 14.9294)">
<text font-family="serif" font-size="2.4697" text-anchor="start" fill="currentColor">
<tspan>Er</tspan>
</text>
</g>
</a>
<g transform="translate(87.2209, 9.7146)">
<rect x="-0.0650" y="-2.3139" width="0.1300" height="3.3139" ry="0.0400" fill="currentColor"/>
</g>
<a style="color:inherit;" xlink:href="textedit:///Volumes/sandisk/local/junk/2025/2025-01-09/ninth-285.ly:13:50:51">
<g transform="translate(92.2146, 9.2146)">
<path transform="scale(0.0040, -0.0040)" d="M218 136c66 0 108 -36 108 -89c0 -89 -113 -183 -218 -183c-66 0 -108 36 -108 89c0 89 113 183 218 183z" fill="currentColor"/>
</g>
</a>
<a style="color:inherit;" xlink:href="textedit:///Volumes/sandisk/local/junk/2025/2025-01-09/ninth-285.ly:18:29:30">
<g transform="translate(91.0912, 14.9294)">
<text font-family="serif" font-size="2.4697" text-anchor="start" fill="currentColor">
<tspan>den</tspan>
</text>
</g>
</a>
<g transform="translate(92.2796, 9.7146)">
<rect x="-0.0650" y="-0.3139" width="0.1300" height="3.3139" ry="0.0400" fill="currentColor"/>
</g>
<a style="color:inherit;" xlink:href="textedit:///Volumes/sandisk/local/junk/2025/2025-01-09/ninth-285.ly:13:53:54">
<g transform="translate(97.5233, 7.7146)">
<path transform="scale(0.0040, -0.0040)" d="M218 136c66 0 108 -36 108 -89c0 -89 -113 -183 -218 -183c-66 0 -108 36 -108 89c0 89 113 183 218 183z" fill="currentColor"/>
</g>
</a>
<a style="color:inherit;" xlink:href="textedit:///Volumes/sandisk/local/junk/2025/2025-01-09/ninth-285.ly:18:36:37">
<g transform="translate(95.5122, 14.9294)">
<text font-family="serif" font-size="2.4697" text-anchor="start" fill="currentColor">
<tspan>rund!</tspan>
</text>
</g>
</a>
<g transform="translate(97.5883, 9.7146)">
<rect x="-0.0650" y="-1.8139" width="0.1300" height="3.3139" ry="0.0400" fill="currentColor"/>
</g>
<g transform="translate(96.4773, 7.7146)">
<path transform="scale(0.0040, -0.0040)" d="M-7 375c8 4 17 7 25 7s16 -3 24 -7l-2 -183l106 20h3c10 0 18 -7 18 -17l7 -570c-8 -4 -17 -7 -25 -7s-16 3 -24 7l2 183l-106 -20h-3c-10 0 -18 7 -18 17zM131 112l-92 -17l-3 -207l92 17z" fill="currentColor"/>
</g>
<a style="color:inherit;" xlink:href="textedit:///Volumes/sandisk/local/junk/2025/2025-01-09/ninth-285.ly:13:56:57">
<g transform="translate(102.3851, 11.2146)">
<path transform="scale(0.0040, -0.0040)" d="M218 136c66 0 108 -36 108 -89c0 -89 -113 -183 -218 -183c-66 0 -108 36 -108 89c0 89 113 183 218 183z" fill="currentColor"/>
</g>
</a>
<a style="color:inherit;" xlink:href="textedit:///Volumes/sandisk/local/junk/2025/2025-01-09/ninth-285.ly:19:4:5">
<g transform="translate(102.3851, 14.9294)">
<text font-family="serif" font-size="2.4697" text-anchor="start" fill="currentColor">
<tspan>Und</tspan>
</text>
</g>
</a>
<g transform="translate(103.6243, 9.7146)">
<rect x="-0.0650" y="-2.0000" width="0.1300" height="3.3139" ry="0.0400" fill="currentColor"/>
</g>
<a style="color:inherit;" xlink:href="textedit:///Volumes/sandisk/local/junk/2025/2025-01-09/ninth-285.ly:18:4:5">
<g transform="translate(62.5566, 14.9294)">
<text font-family="serif" font-size="2.4697" text-anchor="start" fill="currentColor">
<tspan>Sein</tspan>
</text>
</g>
</a>
<g transform="translate(33.0935, 20.7005)">
<rect x="0.0000" y="-2.0000" width="0.1900" height="4.0000" ry="0.0000" fill="currentColor"/>
</g>
<g transform="translate(0.0000, 22.7005)">
<line stroke-linejoin="round" stroke-linecap="round" stroke-width="0.1000" stroke="currentColor" x1="0.0500" y1="0" x2="108.0705" y2="0"/>
</g>
<g transform="translate(0.0000, 21.7005)">
<line stroke-linejoin="round" stroke-linecap="round" stroke-width="0.1000" stroke="currentColor" x1="0.0500" y1="0" x2="108.0705" y2="0"/>
</g>
<g transform="translate(0.0000, 20.7005)">
<line stroke-linejoin="round" stroke-linecap="round" stroke-width="0.1000" stroke="currentColor" x1="0.0500" y1="0" x2="108.0705" y2="0"/>
</g>
<g transform="translate(0.0000, 19.7005)">
<line stroke-linejoin="round" stroke-linecap="round" stroke-width="0.1000" stroke="currentColor" x1="0.0500" y1="0" x2="108.0705" y2="0"/>
</g>
<g transform="translate(0.0000, 18.7005)">
<line stroke-linejoin="round" stroke-linecap="round" stroke-width="0.1000" stroke="currentColor" x1="0.0500" y1="0" x2="108.0705" y2="0"/>
</g>
<g transform="translate(107.9305, 20.7005)">
<rect x="0.0000" y="-2.0000" width="0.1900" height="4.0000" ry="0.0000" fill="currentColor"/>
</g>
<g transform="translate(86.0162, 20.7005)">
<rect x="0.0000" y="-2.0000" width="0.1900" height="4.0000" ry="0.0000" fill="currentColor"/>
</g>
<g transform="translate(61.5648, 20.7005)">
<rect x="0.0000" y="-2.0000" width="0.1900" height="4.0000" ry="0.0000" fill="currentColor"/>
</g>
<a style="color:inherit;" xlink:href="textedit:///Volumes/sandisk/local/junk/2025/2025-01-09/ninth-285.ly:19:8:9">
<g transform="translate(9.0800, 26.2487)">
<rect x="0.0000" y="-0.0800" width="1.4200" height="0.0800" ry="0.0320" fill="currentColor"/>
</g>
</a>
<g transform="translate(0.8000, 19.7005)">
<path transform="scale(0.0040, -0.0040)" d="M557 -125c0 28 23 51 51 51s51 -23 51 -51s-23 -51 -51 -51s-51 23 -51 51zM557 125c0 28 23 51 51 51s51 -23 51 -51s-23 -51 -51 -51s-51 23 -51 51zM232 263c172 0 293 -88 293 -251c0 -263 -263 -414 -516 -521c-3 -3 -6 -4 -9 -4c-7 0 -13 6 -13 13c0 3 1 6 4 9
c202 118 412 265 412 493c0 120 -63 235 -171 235c-74 0 -129 -54 -154 -126c11 5 22 8 34 8c55 0 100 -45 100 -100c0 -58 -44 -106 -100 -106c-60 0 -112 47 -112 106c0 133 102 244 232 244z" fill="currentColor"/>
</g>
<g transform="translate(4.3000, 19.7005)">
<path transform="scale(0.0040, -0.0040)" d="M0 119c0 8 5 15 13 18l46 17v158c0 10 8 19 18 19s19 -9 19 -19v-145l83 31v158c0 10 9 19 19 19s18 -9 18 -19v-145l32 12c2 1 5 1 7 1c11 0 20 -9 20 -20v-60c0 -8 -5 -16 -13 -19l-46 -16v-160l32 11c2 1 5 1 7 1c11 0 20 -9 20 -20v-60c0 -8 -5 -15 -13 -18l-46 -17
v-158c0 -10 -8 -19 -18 -19s-19 9 -19 19v145l-83 -31v-158c0 -10 -9 -19 -19 -19s-18 9 -18 19v145l-32 -12c-2 -1 -5 -1 -7 -1c-11 0 -20 9 -20 20v60c0 8 5 16 13 19l46 16v160l-32 -11c-2 -1 -5 -1 -7 -1c-11 0 -20 9 -20 20v60zM179 95l-83 -30v-160l83 30v160z" fill="currentColor"/>
</g>
<g transform="translate(5.4000, 21.2005)">
<path transform="scale(0.0040, -0.0040)" d="M0 119c0 8 5 15 13 18l46 17v158c0 10 8 19 18 19s19 -9 19 -19v-145l83 31v158c0 10 9 19 19 19s18 -9 18 -19v-145l32 12c2 1 5 1 7 1c11 0 20 -9 20 -20v-60c0 -8 -5 -16 -13 -19l-46 -16v-160l32 11c2 1 5 1 7 1c11 0 20 -9 20 -20v-60c0 -8 -5 -15 -13 -18l-46 -17
v-158c0 -10 -8 -19 -18 -19s-19 9 -19 19v145l-83 -31v-158c0 -10 -9 -19 -19 -19s-18 9 -18 19v145l-32 -12c-2 -1 -5 -1 -7 -1c-11 0 -20 9 -20 20v60c0 8 5 16 13 19l46 16v160l-32 -11c-2 -1 -5 -1 -7 -1c-11 0 -20 9 -20 20v60zM179 95l-83 -30v-160l83 30v160z" fill="currentColor"/>
</g>
<g transform="translate(-2.6632, 17.6266)">
<text font-family="serif" font-size="1.7459" text-anchor="start" fill="currentColor">
<tspan>289</tspan>
</text>
</g>
<a style="color:inherit;" xlink:href="textedit:///Volumes/sandisk/local/junk/2025/2025-01-09/ninth-285.ly:14:4:5">
<g transform="translate(9.0000, 20.7005)">
<path transform="scale(0.0040, -0.0040)" d="M218 136c66 0 108 -36 108 -89c0 -89 -113 -183 -218 -183c-66 0 -108 36 -108 89c0 89 113 183 218 183z" fill="currentColor"/>
</g>
</a>
<g transform="translate(9.0650, 20.7005)">
<rect x="-0.0650" y="0.1861" width="0.1300" height="3.1472" ry="0.0400" fill="currentColor"/>
</g>
<a style="color:inherit;" xlink:href="textedit:///Volumes/sandisk/local/junk/2025/2025-01-09/ninth-285.ly:14:7:8">
<g transform="translate(14.7153, 20.7005)">
<path transform="scale(0.0040, -0.0040)" d="M218 136c66 0 108 -36 108 -89c0 -89 -113 -183 -218 -183c-66 0 -108 36 -108 89c0 89 113 183 218 183z" fill="currentColor"/>
</g>
</a>
<a style="color:inherit;" xlink:href="textedit:///Volumes/sandisk/local/junk/2025/2025-01-09/ninth-285.ly:19:11:12">
<g transform="translate(12.8238, 26.2487)">
<text font-family="serif" font-size="2.4697" text-anchor="start" fill="currentColor">
<tspan>wer's</tspan>
</text>
</g>
</a>
<g transform="translate(14.7803, 20.7005)">
<rect x="-0.0650" y="0.1861" width="0.1300" height="3.1472" ry="0.0400" fill="currentColor"/>
</g>
<a style="color:inherit;" xlink:href="textedit:///Volumes/sandisk/local/junk/2025/2025-01-09/ninth-285.ly:14:9:10">
<g transform="translate(20.4306, 20.7005)">
<path transform="scale(0.0040, -0.0040)" d="M218 136c66 0 108 -36 108 -89c0 -89 -113 -183 -218 -183c-66 0 -108 36 -108 89c0 89 113 183 218 183z" fill="currentColor"/>
</g>
</a>
<a style="color:inherit;" xlink:href="textedit:///Volumes/sandisk/local/junk/2025/2025-01-09/ninth-285.ly:14:10:11">
<g transform="translate(20.0414, 17.3585)">
<g>
<path transform="scale(0.0040, -0.0040)" d="M124 223c0 -41 99 -50 99 -117c0 -61 -56 -106 -120 -106c-43 0 -81 28 -81 68c0 21 12 42 31 42c18 0 32 -14 32 -32c0 -13 -21 -16 -21 -29c0 -15 18 -22 35 -22c33 0 64 20 64 51c0 58 -100 63 -100 117s45 97 99 97c56 0 79 -34 79 -62c0 -19 -11 -36 -30 -36
c-18 0 -31 11 -31 22c0 8 9 13 9 29c0 13 -6 23 -18 23c-26 0 -47 -20 -47 -45z" fill="currentColor"/>

<path transform="translate(0.8194, 0.0000) scale(0.0040, -0.0040)" d="M253 245l-50 -163c-30 -99 -121 -255 -218 -255c-45 0 -87 27 -87 69c0 39 17 77 52 77c24 0 44 -20 44 -44c0 -30 -38 -24 -38 -54c0 -10 11 -11 23 -11h6c48 0 61 58 73 108l68 273h-49c-11 0 -19 8 -19 19s8 19 19 19h60c32 96 118 191 213 191c45 0 87 -27 87 -69
c0 -39 -17 -77 -52 -77c-24 0 -44 19 -44 43c0 30 38 25 38 55c0 10 -10 11 -22 11h-7c-62 0 -70 -88 -86 -154h55c11 0 19 -8 19 -19s-8 -19 -19 -19h-66z" fill="currentColor"/>
</g>
</g>
</a>
<a style="color:inherit;" xlink:href="textedit:///Volumes/sandisk/local/junk/2025/2025-01-09/ninth-285.ly:19:17:18">
<g transform="translate(19.5804, 26.2487)">
<text font-family="serif" font-size="2.4697" text-anchor="start" fill="currentColor">
<tspan>nie</tspan>
</text>
</g>
</a>
<g transform="translate(20.4956, 20.7005)">
<rect x="-0.0650" y="0.1861" width="0.1300" height="3.1472" ry="0.0400" fill="currentColor"/>
</g>
<g transform="translate(48.4504, 22.8905)">
<polygon stroke-linejoin="round" stroke-linecap="round" stroke-width="0.0800" fill="currentColor" stroke="currentColor" points="9.9872 -0.2000 9.9872 0.2000 0.0400 0.2000 0.0400 -0.2000"/>
</g>
<a style="color:inherit;" xlink:href="textedit:///Volumes/sandisk/local/junk/2025/2025-01-09/ninth-285.ly:14:15:16">
<g transform="translate(26.1277, 21.2005)">
<path transform="scale(0.0040, -0.0040)" d="M218 136c66 0 108 -36 108 -89c0 -89 -113 -183 -218 -183c-66 0 -108 36 -108 89c0 89 113 183 218 183z" fill="currentColor"/>
</g>
</a>
<a style="color:inherit;" xlink:href="textedit:///Volumes/sandisk/local/junk/2025/2025-01-09/ninth-285.ly:19:21:22">
<g transform="translate(26.1277, 26.2487)">
<text font-family="serif" font-size="2.4697" text-anchor="start" fill="currentColor">
<tspan>ge</tspan>
</text>
</g>
</a>
<g transform="translate(27.3669, 20.7005)">
<rect x="-0.0650" y="-2.1865" width="0.1300" height="2.5004" ry="0.0400" fill="currentColor"/>
</g>
<a style="color:inherit;" xlink:href="textedit:///Volumes/sandisk/local/junk/2025/2025-01-09/ninth-285.ly:20:8:9">
<g transform="translate(66.4924, 26.2487)">
<rect x="0.0000" y="-0.5500" width="0.6600" height="0.1300" ry="0.0400" fill="currentColor"/>
</g>
</a>
<a style="color:inherit;" xlink:href="textedit:///Volumes/sandisk/local/junk/2025/2025-01-09/ninth-285.ly:14:20:21">
<g transform="translate(29.5101, 21.7005)">
<path transform="scale(0.0040, -0.0040)" d="M218 136c66 0 108 -36 108 -89c0 -89 -113 -183 -218 -183c-66 0 -108 36 -108 89c0 89 113 183 218 183z" fill="currentColor"/>
</g>
</a>
<g transform="translate(30.7493, 20.7005)">
<rect x="-0.0650" y="-2.0035" width="0.1300" height="2.8174" ry="0.0400" fill="currentColor"/>
</g>
<a style="color:inherit;" xlink:href="textedit:///Volumes/sandisk/local/junk/2025/2025-01-09/ninth-285.ly:19:49:50">
<g transform="translate(57.0707, 26.2487)">
<rect x="0.0000" y="-0.0800" width="2.5812" height="0.0800" ry="0.0320" fill="currentColor"/>
</g>
</a>
<a style="color:inherit;" xlink:href="textedit:///Volumes/sandisk/local/junk/2025/2025-01-09/ninth-285.ly:14:25:26">
<g transform="translate(34.9025, 22.2005)">
<path transform="scale(0.0040, -0.0040)" d="M218 136c66 0 108 -36 108 -89c0 -89 -113 -183 -218 -183c-66 0 -108 36 -108 89c0 89 113 183 218 183z" fill="currentColor"/>
</g>
</a>
<a style="color:inherit;" xlink:href="textedit:///Volumes/sandisk/local/junk/2025/2025-01-09/ninth-285.ly:19:27:28">
<g transform="translate(34.9025, 26.2487)">
<text font-family="serif" font-size="2.4697" text-anchor="start" fill="currentColor">
<tspan>konnt,</tspan>
</text>
</g>
</a>
<g transform="translate(36.1417, 20.7005)">
<rect x="-0.0650" y="-2.0051" width="0.1300" height="3.3190" ry="0.0400" fill="currentColor"/>
</g>
<a style="color:inherit;" xlink:href="textedit:///Volumes/sandisk/local/junk/2025/2025-01-09/ninth-285.ly:14:51:52">
<g transform="translate(55.2152, 20.7005)">
<path stroke-width="0.0800" stroke-linejoin="round" stroke-linecap="round" stroke="currentColor" fill="currentColor" d="M0.7843 -2.5450C1.8232 -3.0426 3.3583 -2.5525 3.9167 -1.5450L3.9167 -1.5450C3.3218 -2.4382 1.7867 -2.9282 0.7843 -2.5450z"/>
</g>
</a>
<a style="color:inherit;" xlink:href="textedit:///Volumes/sandisk/local/junk/2025/2025-01-09/ninth-285.ly:14:28:29">
<g transform="translate(38.2849, 21.7005)">
<path transform="scale(0.0040, -0.0040)" d="M218 136c66 0 108 -36 108 -89c0 -89 -113 -183 -218 -183c-66 0 -108 36 -108 89c0 89 113 183 218 183z" fill="currentColor"/>
</g>
</a>
<g transform="translate(39.5241, 20.7005)">
<rect x="-0.0650" y="-2.2717" width="0.1300" height="3.0856" ry="0.0400" fill="currentColor"/>
</g>
<g transform="translate(36.0767, 18.7005)">
<polygon stroke-linejoin="round" stroke-linecap="round" stroke-width="0.0800" fill="currentColor" stroke="currentColor" points="10.2372 -1.0100 10.2372 -0.6100 0.0400 0.2000 0.0400 -0.2000"/>
</g>
<a style="color:inherit;" xlink:href="textedit:///Volumes/sandisk/local/junk/2025/2025-01-09/ninth-285.ly:14:31:32">
<g transform="translate(41.6673, 21.2005)">
<path transform="scale(0.0040, -0.0040)" d="M218 136c66 0 108 -36 108 -89c0 -89 -113 -183 -218 -183c-66 0 -108 36 -108 89c0 89 113 183 218 183z" fill="currentColor"/>
</g>
</a>
<a style="color:inherit;" xlink:href="textedit:///Volumes/sandisk/local/junk/2025/2025-01-09/ninth-285.ly:19:34:35">
<g transform="translate(41.6673, 26.2487)">
<text font-family="serif" font-size="2.4697" text-anchor="start" fill="currentColor">
<tspan>der</tspan>
</text>
</g>
</a>
<g transform="translate(42.9065, 20.7005)">
<rect x="-0.0650" y="-2.5383" width="0.1300" height="2.8522" ry="0.0400" fill="currentColor"/>
</g>
<a style="color:inherit;" xlink:href="textedit:///Volumes/sandisk/local/junk/2025/2025-01-09/ninth-285.ly:19:43:44">
<g transform="translate(53.4831, 26.2487)">
<rect x="0.0000" y="-0.5500" width="0.6600" height="0.1300" ry="0.0400" fill="currentColor"/>
</g>
</a>
<a style="color:inherit;" xlink:href="textedit:///Volumes/sandisk/local/junk/2025/2025-01-09/ninth-285.ly:14:40:41">
<g transform="translate(45.0497, 20.7005)">
<path transform="scale(0.0040, -0.0040)" d="M218 136c66 0 108 -36 108 -89c0 -89 -113 -183 -218 -183c-66 0 -108 36 -108 89c0 89 113 183 218 183z" fill="currentColor"/>
</g>
</a>
<g transform="translate(46.2890, 20.7005)">
<rect x="-0.0650" y="-2.8049" width="0.1300" height="2.6188" ry="0.0400" fill="currentColor"/>
</g>
<a style="color:inherit;" xlink:href="textedit:///Volumes/sandisk/local/junk/2025/2025-01-09/ninth-285.ly:14:44:45">
<g transform="translate(48.4504, 20.7005)">
<path stroke-width="0.0800" stroke-linejoin="round" stroke-linecap="round" stroke="currentColor" fill="currentColor" d="M0.5701 -1.5450C1.2698 -2.5115 2.9444 -2.8333 3.9525 -2.1950L3.9525 -2.1950C2.9670 -2.7155 1.2924 -2.3937 0.5701 -1.5450z"/>
</g>
</a>
<a style="color:inherit;" xlink:href="textedit:///Volumes/sandisk/local/junk/2025/2025-01-09/ninth-285.ly:14:43:44">
<g transform="translate(48.4504, 20.2005)">
<path transform="scale(0.0040, -0.0040)" d="M218 136c66 0 108 -36 108 -89c0 -89 -113 -183 -218 -183c-66 0 -108 36 -108 89c0 89 113 183 218 183z" fill="currentColor"/>
</g>
</a>
<a style="color:inherit;" xlink:href="textedit:///Volumes/sandisk/local/junk/2025/2025-01-09/ninth-285.ly:19:38:39">
<g transform="translate(48.4504, 26.2487)">
<text font-family="serif" font-size="2.4697" text-anchor="start" fill="currentColor">
<tspan>steh</tspan>
</text>
</g>
</a>
<g transform="translate(48.5154, 20.7005)">
<rect x="-0.0650" y="-0.3139" width="0.1300" height="2.5039" ry="0.0400" fill="currentColor"/>
</g>
<a style="color:inherit;" xlink:href="textedit:///Volumes/sandisk/local/junk/2025/2025-01-09/ninth-285.ly:14:46:47">
<g transform="translate(51.8328, 19.7005)">
<path transform="scale(0.0040, -0.0040)" d="M218 136c66 0 108 -36 108 -89c0 -89 -113 -183 -218 -183c-66 0 -108 36 -108 89c0 89 113 183 218 183z" fill="currentColor"/>
</g>
</a>
<g transform="translate(51.8978, 20.7005)">
<rect x="-0.0650" y="-0.8139" width="0.1300" height="3.0039" ry="0.0400" fill="currentColor"/>
</g>
<a style="color:inherit;" xlink:href="textedit:///Volumes/sandisk/local/junk/2025/2025-01-09/ninth-285.ly:14:50:51">
<g transform="translate(55.2152, 19.2005)">
<path transform="scale(0.0040, -0.0040)" d="M218 136c66 0 108 -36 108 -89c0 -89 -113 -183 -218 -183c-66 0 -108 36 -108 89c0 89 113 183 218 183z" fill="currentColor"/>
</g>
</a>
<a style="color:inherit;" xlink:href="textedit:///Volumes/sandisk/local/junk/2025/2025-01-09/ninth-285.ly:19:46:47">
<g transform="translate(55.2152, 26.2487)">
<text font-family="serif" font-size="2.4697" text-anchor="start" fill="currentColor">
<tspan>le</tspan>
</text>
</g>
</a>
<g transform="translate(55.2802, 20.7005)">
<rect x="-0.0650" y="-1.3139" width="0.1300" height="3.5039" ry="0.0400" fill="currentColor"/>
</g>
<a style="color:inherit;" xlink:href="textedit:///Volumes/sandisk/local/junk/2025/2025-01-09/ninth-285.ly:20:29:30">
<g transform="translate(90.7319, 26.2487)">
<rect x="0.0000" y="-0.5500" width="0.6600" height="0.1300" ry="0.0400" fill="currentColor"/>
</g>
</a>
<a style="color:inherit;" xlink:href="textedit:///Volumes/sandisk/local/junk/2025/2025-01-09/ninth-285.ly:13:58:59">
<g transform="translate(0.0000, 20.7005)">
<path stroke-width="0.0800" stroke-linejoin="round" stroke-linecap="round" stroke="currentColor" fill="currentColor" d="M6.5000 -1.1950C7.3107 -1.9606 8.8414 -1.9606 9.6521 -1.1950L9.6521 -1.1950C8.8414 -1.8406 7.3107 -1.8406 6.5000 -1.1950z"/>
</g>
</a>
<g transform="translate(58.4126, 20.7005)">
<rect x="-0.0650" y="-0.3139" width="0.1300" height="2.5039" ry="0.0400" fill="currentColor"/>
</g>
<a style="color:inherit;" xlink:href="textedit:///Volumes/sandisk/local/junk/2025/2025-01-09/ninth-285.ly:14:33:34">
<g transform="translate(41.6673, 20.7005)">
<path stroke-width="0.0800" stroke-linejoin="round" stroke-linecap="round" stroke="currentColor" fill="currentColor" d="M0.6969 1.4932C1.6365 2.0200 3.3063 1.8472 4.0793 1.1432L4.0793 1.1432C3.2940 1.7278 1.6241 1.9006 0.6969 1.4932z"/>
</g>
</a>
<a style="color:inherit;" xlink:href="textedit:///Volumes/sandisk/local/junk/2025/2025-01-09/ninth-285.ly:14:34:35">
<g transform="translate(46.8112, 16.6484)">
<line stroke-linejoin="round" stroke-linecap="round" stroke-width="0.1000" stroke="currentColor" x1="0" y1="0" x2="15.7995" y2="-0.0000" stroke-dasharray="0.607673505224977,2.4306940208999075"/>
</g>
<g transform="translate(41.6673, 17.2096)">
<text font-family="serif" font-style="italic" font-size="2.4697" text-anchor="start" fill="currentColor">
<tspan>dim.</tspan>
</text>
</g>
</a>
<a style="color:inherit;" xlink:href="textedit:///Volumes/sandisk/local/junk/2025/2025-01-09/ninth-285.ly:14:58:59">
<g transform="translate(63.5346, 19.7005)">
<path transform="scale(0.0040, -0.0040)" d="M218 136c66 0 108 -36 108 -89c0 -89 -113 -183 -218 -183c-66 0 -108 36 -108 89c0 89 113 183 218 183z" fill="currentColor"/>
</g>
</a>
<a style="color:inherit;" xlink:href="textedit:///Volumes/sandisk/local/junk/2025/2025-01-09/ninth-285.ly:14:61:62">
<g transform="translate(63.4526, 17.2484)">
<path transform="scale(0.0040, -0.0040)" d="M161 32c78 0 97 176 97 178c0 18 -7 33 -25 33c-61 0 -102 -124 -102 -173c0 -22 8 -38 30 -38zM-53 141c0 2 51 151 134 151c35 0 59 -21 66 -52c29 31 67 52 103 52c69 0 107 -49 107 -114c0 -118 -105 -186 -159 -186c-53 0 -70 20 -84 20c-7 0 -14 -3 -16 -9l-29 -86
c-1 -2 -1 -5 -1 -7c0 -37 57 -18 57 -42c0 -7 -4 -14 -13 -14c-3 0 -50 5 -116 5s-112 -5 -115 -5c-9 0 -14 7 -14 14c0 31 87 -1 102 41l102 300c2 7 4 14 4 20c0 8 -2 14 -11 14c-33 0 -63 -60 -79 -97c-5 -12 -15 -17 -24 -17c-8 0 -14 4 -14 12z" fill="currentColor"/>
</g>
</a>
<a style="color:inherit;" xlink:href="textedit:///Volumes/sandisk/local/junk/2025/2025-01-09/ninth-285.ly:20:4:5">
<g transform="translate(62.2405, 26.2487)">
<text font-family="serif" font-size="2.4697" text-anchor="start" fill="currentColor">
<tspan>Wei</tspan>
</text>
</g>
</a>
<g transform="translate(63.5996, 20.7005)">
<rect x="-0.0650" y="-0.8139" width="0.1300" height="3.3139" ry="0.0400" fill="currentColor"/>
</g>
<a style="color:inherit;" xlink:href="textedit:///Volumes/sandisk/local/junk/2025/2025-01-09/ninth-285.ly:14:65:66">
<g transform="translate(69.2499, 19.7005)">
<path transform="scale(0.0040, -0.0040)" d="M218 136c66 0 108 -36 108 -89c0 -89 -113 -183 -218 -183c-66 0 -108 36 -108 89c0 89 113 183 218 183z" fill="currentColor"/>
</g>
</a>
<a style="color:inherit;" xlink:href="textedit:///Volumes/sandisk/local/junk/2025/2025-01-09/ninth-285.ly:20:11:12">
<g transform="translate(67.5119, 26.2487)">
<text font-family="serif" font-size="2.4697" text-anchor="start" fill="currentColor">
<tspan>nend</tspan>
</text>
</g>
</a>
<g transform="translate(69.3149, 20.7005)">
<rect x="-0.0650" y="-0.8139" width="0.1300" height="3.3139" ry="0.0400" fill="currentColor"/>
</g>
<g transform="translate(27.3019, 18.5105)">
<polygon stroke-linejoin="round" stroke-linecap="round" stroke-width="0.0800" fill="currentColor" stroke="currentColor" points="3.4724 -0.0100 3.4724 0.3900 0.0400 0.2000 0.0400 -0.2000"/>
</g>
<a style="color:inherit;" xlink:href="textedit:///Volumes/sandisk/local/junk/2025/2025-01-09/ninth-285.ly:14:68:69">
<g transform="translate(74.7152, 20.7005)">
<path transform="scale(0.0040, -0.0040)" d="M218 136c66 0 108 -36 108 -89c0 -89 -113 -183 -218 -183c-66 0 -108 36 -108 89c0 89 113 183 218 183z" fill="currentColor"/>
</g>
</a>
<a style="color:inherit;" xlink:href="textedit:///Volumes/sandisk/local/junk/2025/2025-01-09/ninth-285.ly:20:16:17">
<g transform="translate(73.3870, 26.2487)">
<text font-family="serif" font-size="2.4697" text-anchor="start" fill="currentColor">
<tspan>sich</tspan>
</text>
</g>
</a>
<g transform="translate(74.7802, 20.7005)">
<rect x="-0.0650" y="0.1861" width="0.1300" height="3.1472" ry="0.0400" fill="currentColor"/>
</g>
<a style="color:inherit;" xlink:href="textedit:///Volumes/sandisk/local/junk/2025/2025-01-09/ninth-285.ly:14:26:27">
<g transform="translate(34.9025, 20.7005)">
<path stroke-width="0.0800" stroke-linejoin="round" stroke-linecap="round" stroke="currentColor" fill="currentColor" d="M0.6969 2.5450C1.6365 3.2617 3.3063 3.0889 4.0793 2.1950L4.0793 2.1950C3.2940 2.9695 1.6241 3.1423 0.6969 2.5450z"/>
</g>
</a>
<a style="color:inherit;" xlink:href="textedit:///Volumes/sandisk/local/junk/2025/2025-01-09/ninth-285.ly:14:70:71">
<g transform="translate(80.4305, 20.7005)">
<path transform="scale(0.0040, -0.0040)" d="M218 136c66 0 108 -36 108 -89c0 -89 -113 -183 -218 -183c-66 0 -108 36 -108 89c0 89 113 183 218 183z" fill="currentColor"/>
</g>
</a>
<a style="color:inherit;" xlink:href="textedit:///Volumes/sandisk/local/junk/2025/2025-01-09/ninth-285.ly:20:21:22">
<g transform="translate(79.4437, 26.2487)">
<text font-family="serif" font-size="2.4697" text-anchor="start" fill="currentColor">
<tspan>aus</tspan>
</text>
</g>
</a>
<g transform="translate(80.4955, 20.7005)">
<rect x="-0.0650" y="0.1861" width="0.1300" height="3.1472" ry="0.0400" fill="currentColor"/>
</g>
<a style="color:inherit;" xlink:href="textedit:///Volumes/sandisk/local/junk/2025/2025-01-09/ninth-285.ly:19:24:25">
<g transform="translate(31.3460, 26.2487)">
<rect x="0.0000" y="-0.5500" width="0.6600" height="0.1300" ry="0.0400" fill="currentColor"/>
</g>
</a>
<a style="color:inherit;" xlink:href="textedit:///Volumes/sandisk/local/junk/2025/2025-01-09/ninth-285.ly:14:18:19">
<g transform="translate(26.1277, 20.7005)">
<path stroke-width="0.0800" stroke-linejoin="round" stroke-linecap="round" stroke="currentColor" fill="currentColor" d="M0.5701 1.5450C1.2698 2.5115 2.9444 2.8333 3.9525 2.1950L3.9525 2.1950C2.9670 2.7155 1.2924 2.3937 0.5701 1.5450z"/>
</g>
</a>
<a style="color:inherit;" xlink:href="textedit:///Volumes/sandisk/local/junk/2025/2025-01-09/ninth-285.ly:14:74:75">
<g transform="translate(88.0146, 18.7005)">
<path transform="scale(0.0040, -0.0040)" d="M218 136c66 0 108 -36 108 -89c0 -89 -113 -183 -218 -183c-66 0 -108 36 -108 89c0 89 113 183 218 183z" fill="currentColor"/>
</g>
</a>
<a style="color:inherit;" xlink:href="textedit:///Volumes/sandisk/local/junk/2025/2025-01-09/ninth-285.ly:20:25:26">
<g transform="translate(87.1644, 26.2487)">
<text font-family="serif" font-size="2.4697" text-anchor="start" fill="currentColor">
<tspan>die</tspan>
</text>
</g>
</a>
<g transform="translate(88.0796, 20.7005)">
<rect x="-0.0650" y="-1.8139" width="0.1300" height="3.3139" ry="0.0400" fill="currentColor"/>
</g>
<a style="color:inherit;" xlink:href="textedit:///Volumes/sandisk/local/junk/2025/2025-01-09/ninth-285.ly:14:77:78">
<g transform="translate(93.2831, 22.2005)">
<path transform="scale(0.0040, -0.0040)" d="M218 136c66 0 108 -36 108 -89c0 -89 -113 -183 -218 -183c-66 0 -108 36 -108 89c0 89 113 183 218 183z" fill="currentColor"/>
</g>
</a>
<a style="color:inherit;" xlink:href="textedit:///Volumes/sandisk/local/junk/2025/2025-01-09/ninth-285.ly:20:32:33">
<g transform="translate(91.9549, 26.2487)">
<text font-family="serif" font-size="2.4697" text-anchor="start" fill="currentColor">
<tspan>sem</tspan>
</text>
</g>
</a>
<g transform="translate(94.5223, 20.7005)">
<rect x="-0.0650" y="-2.0000" width="0.1300" height="3.3139" ry="0.0400" fill="currentColor"/>
</g>
<a style="color:inherit;" xlink:href="textedit:///Volumes/sandisk/local/junk/2025/2025-01-09/ninth-285.ly:14:80:81">
<g transform="translate(99.1491, 20.7005)">
<path transform="scale(0.0040, -0.0040)" d="M314 65c0 23 -19 41 -42 41c-39 0 -204 -110 -231 -143c-7 -8 -10 -18 -10 -28c0 -23 19 -41 42 -41c39 0 203 110 230 143c7 8 11 18 11 28zM262 136c41 0 82 -14 82 -71c0 -26 -16 -112 -74 -151c-25 -17 -87 -50 -187 -50c-41 0 -83 14 -83 71c0 26 16 112 74 151
c25 17 88 50 188 50z" fill="currentColor"/>
</g>
</a>
<a style="color:inherit;" xlink:href="textedit:///Volumes/sandisk/local/junk/2025/2025-01-09/ninth-285.ly:20:36:37">
<g transform="translate(96.7649, 26.2487)">
<text font-family="serif" font-size="2.4697" text-anchor="start" fill="currentColor">
<tspan>Bund!</tspan>
</text>
</g>
</a>
<g transform="translate(99.2141, 20.7005)">
<rect x="-0.0650" y="0.2590" width="0.1300" height="3.0743" ry="0.0400" fill="currentColor"/>
</g>
<a style="color:inherit;" xlink:href="textedit:///Volumes/sandisk/local/junk/2025/2025-01-09/ninth-285.ly:14:53:54">
<g transform="translate(58.3476, 20.2005)">
<path transform="scale(0.0040, -0.0040)" d="M218 136c66 0 108 -36 108 -89c0 -89 -113 -183 -218 -183c-66 0 -108 36 -108 89c0 89 113 183 218 183z" fill="currentColor"/>
</g>
</a>
</svg>
