<svg xmlns="http://www.w3.org/2000/svg" xmlns:xlink="http://www.w3.org/1999/xlink" version="1.2" width="194.68mm" height="46.28mm" viewBox="-2.6632 0.0001 110.7837 26.3340">
<style type="text/css">
<![CDATA[
tspan { white-space: pre; }
]]>
</style>
<g transform="translate(23.9381, 7.1834)">
<rect x="0.0000" y="-2.0000" width="0.1900" height="4.0000" ry="0.0000" fill="currentColor"/>
</g>
<g transform="translate(0.0000, 9.1834)">
<line stroke-linejoin="round" stroke-linecap="round" stroke-width="0.1000" stroke="currentColor" x1="0.0500" y1="0" x2="108.0705" y2="0"/>
</g>
<g transform="translate(0.0000, 8.1834)">
<line stroke-linejoin="round" stroke-linecap="round" stroke-width="0.1000" stroke="currentColor" x1="0.0500" y1="0" x2="108.0705" y2="0"/>
</g>
<g transform="translate(0.0000, 7.1834)">
<line stroke-linejoin="round" stroke-linecap="round" stroke-width="0.1000" stroke="currentColor" x1="0.0500" y1="0" x2="108.0705" y2="0"/>
</g>
<g transform="translate(0.0000, 6.1834)">
<line stroke-linejoin="round" stroke-linecap="round" stroke-width="0.1000" stroke="currentColor" x1="0.0500" y1="0" x2="108.0705" y2="0"/>
</g>
<g transform="translate(0.0000, 5.1834)">
<line stroke-linejoin="round" stroke-linecap="round" stroke-width="0.1000" stroke="currentColor" x1="0.0500" y1="0" x2="108.0705" y2="0"/>
</g>
<g transform="translate(107.9305, 7.1834)">
<rect x="0.0000" y="-2.0000" width="0.1900" height="4.0000" ry="0.0000" fill="currentColor"/>
</g>
<g transform="translate(92.7095, 7.1834)">
<rect x="0.0000" y="-2.0000" width="0.1900" height="4.0000" ry="0.0000" fill="currentColor"/>
</g>
<g transform="translate(74.8167, 7.1834)">
<rect x="0.0000" y="-2.0000" width="0.1900" height="4.0000" ry="0.0000" fill="currentColor"/>
</g>
<g transform="translate(57.7833, 7.1834)">
<rect x="0.0000" y="-2.0000" width="0.1900" height="4.0000" ry="0.0000" fill="currentColor"/>
</g>
<g transform="translate(39.0364, 7.1834)">
<rect x="0.0000" y="-2.0000" width="0.1900" height="4.0000" ry="0.0000" fill="currentColor"/>
</g>
<a style="color:inherit;" xlink:href="textedit:///Volumes/sandisk/local/junk/2025/2025-01-09/ninth-313.ly:12:4:5">
<g transform="translate(11.3500, 5.1834)">
<path transform="scale(0.0040, -0.0040)" d="M218 136c66 0 108 -36 108 -89c0 -89 -113 -183 -218 -183c-66 0 -108 36 -108 89c0 89 113 183 218 183z" fill="currentColor"/>
</g>
</a>
<g transform="translate(0.8000, 6.1834)">
<path transform="scale(0.0040, -0.0040)" d="M557 -125c0 28 23 51 51 51s51 -23 51 -51s-23 -51 -51 -51s-51 23 -51 51zM557 125c0 28 23 51 51 51s51 -23 51 -51s-23 -51 -51 -51s-51 23 -51 51zM232 263c172 0 293 -88 293 -251c0 -263 -263 -414 -516 -521c-3 -3 -6 -4 -9 -4c-7 0 -13 6 -13 13c0 3 1 6 4 9
c202 118 412 265 412 493c0 120 -63 235 -171 235c-74 0 -129 -54 -154 -126c11 5 22 8 34 8c55 0 100 -45 100 -100c0 -58 -44 -106 -100 -106c-60 0 -112 47 -112 106c0 133 102 244 232 244z" fill="currentColor"/>
</g>
<a style="color:inherit;" xlink:href="textedit:///Volumes/sandisk/local/junk/2025/2025-01-09/ninth-313.ly:7:4:5">
<g transform="translate(4.3000, 6.1834)">
<path transform="scale(0.0040, -0.0040)" d="M0 119c0 8 5 15 13 18l46 17v158c0 10 8 19 18 19s19 -9 19 -19v-145l83 31v158c0 10 9 19 19 19s18 -9 18 -19v-145l32 12c2 1 5 1 7 1c11 0 20 -9 20 -20v-60c0 -8 -5 -16 -13 -19l-46 -16v-160l32 11c2 1 5 1 7 1c11 0 20 -9 20 -20v-60c0 -8 -5 -15 -13 -18l-46 -17
v-158c0 -10 -8 -19 -18 -19s-19 9 -19 19v145l-83 -31v-158c0 -10 -9 -19 -19 -19s-18 9 -18 19v145l-32 -12c-2 -1 -5 -1 -7 -1c-11 0 -20 9 -20 20v60c0 8 5 16 13 19l46 16v160l-32 -11c-2 -1 -5 -1 -7 -1c-11 0 -20 9 -20 20v60zM179 95l-83 -30v-160l83 30v160z" fill="currentColor"/>
</g>
<g transform="translate(5.4000, 7.6834)">
<path transform="scale(0.0040, -0.0040)" d="M0 119c0 8 5 15 13 18l46 17v158c0 10 8 19 18 19s19 -9 19 -19v-145l83 31v158c0 10 9 19 19 19s18 -9 18 -19v-145l32 12c2 1 5 1 7 1c11 0 20 -9 20 -20v-60c0 -8 -5 -16 -13 -19l-46 -16v-160l32 11c2 1 5 1 7 1c11 0 20 -9 20 -20v-60c0 -8 -5 -15 -13 -18l-46 -17
v-158c0 -10 -8 -19 -18 -19s-19 9 -19 19v145l-83 -31v-158c0 -10 -9 -19 -19 -19s-18 9 -18 19v145l-32 -12c-2 -1 -5 -1 -7 -1c-11 0 -20 9 -20 20v60c0 8 5 16 13 19l46 16v160l-32 -11c-2 -1 -5 -1 -7 -1c-11 0 -20 9 -20 20v60zM179 95l-83 -30v-160l83 30v160z" fill="currentColor"/>
</g>
</a>
<a style="color:inherit;" xlink:href="textedit:///Volumes/sandisk/local/junk/2025/2025-01-09/ninth-313.ly:8:4:5">
<g transform="translate(7.6500, 7.1834)">
<path transform="scale(0.0040, -0.0040)" d="M250 262c116 0 176 -106 176 -163c0 -40 -30 -72 -67 -72c-31 0 -75 25 -75 75c0 38 27 77 72 77c4 0 9 0 14 -1c-28 37 -72 59 -120 59c-106 0 -113 -73 -113 -186v-51v-51c0 -113 7 -187 113 -187c80 0 139 70 158 151c2 7 7 10 12 10c6 0 13 -4 13 -12
c0 -22 -50 -174 -183 -174c-59 0 -250 19 -250 263c0 62 18 262 250 262z" fill="currentColor"/>
</g>
</a>
<a style="color:inherit;" xlink:href="textedit:///Volumes/sandisk/local/junk/2025/2025-01-09/ninth-313.ly:18:4:5">
<g transform="translate(10.0218, 12.6087)">
<text font-family="serif" font-size="2.4697" text-anchor="start" fill="currentColor">
<tspan>Küs</tspan>
</text>
</g>
</a>
<a style="color:inherit;" xlink:href="textedit:///Volumes/sandisk/local/junk/2025/2025-01-09/ninth-313.ly:11:4:5">
<g transform="translate(6.5000, 1.8773)">
<text font-family="serif" font-size="2.7719" text-anchor="start" fill="currentColor">
<tspan>G</tspan>
</text>
</g>
</a>
<a style="color:inherit;" xlink:href="textedit:///Volumes/sandisk/local/junk/2025/2025-01-09/ninth-313.ly:9:4:5">
<g transform="translate(7.6500, 3.7036)">
<text font-family="serif" font-weight="bold" font-size="2.2000" text-anchor="start" fill="currentColor">
<tspan>Allegro assai</tspan>
</text>
</g>
<g transform="translate(19.6685, 3.7036)">
<text font-family="serif" font-size="2.2000" text-anchor="start" fill="currentColor">
<tspan> (</tspan>
</text>
</g>
<g transform="translate(20.9318, 3.2149)">
<rect x="1.1141" y="-2.6727" width="0.1158" height="2.4473" ry="0.0193" fill="currentColor"/>
</g>
<g transform="translate(20.9318, 3.2149)">
<path transform="scale(0.0036, -0.0036)" d="M312 64c0 23 -18 41 -41 41c-39 0 -201 -110 -228 -142c-7 -8 -10 -17 -10 -27c0 -23 18 -41 41 -41c39 0 201 110 228 142c7 8 10 17 10 27zM259 137c46 0 86 -17 86 -74c0 -26 -15 -112 -73 -151c-29 -20 -89 -49 -186 -49c-46 0 -86 17 -86 74c0 26 16 112 74 151
c29 20 88 49 185 49z" fill="currentColor"/>
</g>
<g transform="translate(22.1617, 3.7036)">
<text font-family="serif" font-size="2.2000" text-anchor="start" fill="currentColor">
<tspan> = 80)</tspan>
</text>
</g>
</a>
<g transform="translate(11.4150, 7.1834)">
<rect x="-0.0650" y="-1.8139" width="0.1300" height="3.3139" ry="0.0400" fill="currentColor"/>
</g>
<g transform="translate(-2.6632, 4.1130)">
<text font-family="serif" font-size="1.7459" text-anchor="start" fill="currentColor">
<tspan>313</tspan>
</text>
</g>
<a style="color:inherit;" xlink:href="textedit:///Volumes/sandisk/local/junk/2025/2025-01-09/ninth-313.ly:20:32:33">
<g transform="translate(100.8408, 12.6087)">
<rect x="0.0000" y="-0.5500" width="0.4176" height="0.1300" ry="0.0400" fill="currentColor"/>
</g>
</a>
<a style="color:inherit;" xlink:href="textedit:///Volumes/sandisk/local/junk/2025/2025-01-09/ninth-313.ly:12:6:7">
<g transform="translate(14.4546, 5.1834)">
<path transform="scale(0.0040, -0.0040)" d="M218 136c66 0 108 -36 108 -89c0 -89 -113 -183 -218 -183c-66 0 -108 36 -108 89c0 89 113 183 218 183z" fill="currentColor"/>
</g>
</a>
<a style="color:inherit;" xlink:href="textedit:///Volumes/sandisk/local/junk/2025/2025-01-09/ninth-313.ly:18:11:12">
<g transform="translate(14.0824, 12.6087)">
<text font-family="serif" font-size="2.4697" text-anchor="start" fill="currentColor">
<tspan>se</tspan>
</text>
</g>
</a>
<g transform="translate(14.5196, 7.1834)">
<rect x="-0.0650" y="-1.8139" width="0.1300" height="3.3139" ry="0.0400" fill="currentColor"/>
</g>
<a style="color:inherit;" xlink:href="textedit:///Volumes/sandisk/local/junk/2025/2025-01-09/ninth-313.ly:12:8:9">
<g transform="translate(17.7044, 5.1834)">
<path transform="scale(0.0040, -0.0040)" d="M218 136c66 0 108 -36 108 -89c0 -89 -113 -183 -218 -183c-66 0 -108 36 -108 89c0 89 113 183 218 183z" fill="currentColor"/>
</g>
</a>
<a style="color:inherit;" xlink:href="textedit:///Volumes/sandisk/local/junk/2025/2025-01-09/ninth-313.ly:18:14:15">
<g transform="translate(16.5810, 12.6087)">
<text font-family="serif" font-size="2.4697" text-anchor="start" fill="currentColor">
<tspan>gab</tspan>
</text>
</g>
</a>
<g transform="translate(17.7694, 7.1834)">
<rect x="-0.0650" y="-1.8139" width="0.1300" height="3.3139" ry="0.0400" fill="currentColor"/>
</g>
<a style="color:inherit;" xlink:href="textedit:///Volumes/sandisk/local/junk/2025/2025-01-09/ninth-313.ly:12:10:11">
<g transform="translate(21.2956, 5.1834)">
<path transform="scale(0.0040, -0.0040)" d="M218 136c66 0 108 -36 108 -89c0 -89 -113 -183 -218 -183c-66 0 -108 36 -108 89c0 89 113 183 218 183z" fill="currentColor"/>
</g>
</a>
<a style="color:inherit;" xlink:href="textedit:///Volumes/sandisk/local/junk/2025/2025-01-09/ninth-313.ly:18:18:19">
<g transform="translate(20.5819, 12.6087)">
<text font-family="serif" font-size="2.4697" text-anchor="start" fill="currentColor">
<tspan>sie</tspan>
</text>
</g>
</a>
<g transform="translate(21.3606, 7.1834)">
<rect x="-0.0650" y="-1.8139" width="0.1300" height="3.3139" ry="0.0400" fill="currentColor"/>
</g>
<a style="color:inherit;" xlink:href="textedit:///Volumes/sandisk/local/junk/2025/2025-01-09/ninth-313.ly:12:14:15">
<g transform="translate(25.1849, 5.1834)">
<path transform="scale(0.0040, -0.0040)" d="M218 136c66 0 108 -36 108 -89c0 -89 -113 -183 -218 -183c-66 0 -108 36 -108 89c0 89 113 183 218 183z" fill="currentColor"/>
</g>
</a>
<a style="color:inherit;" xlink:href="textedit:///Volumes/sandisk/local/junk/2025/2025-01-09/ninth-313.ly:18:22:23">
<g transform="translate(24.1299, 12.6087)">
<text font-family="serif" font-size="2.4697" text-anchor="start" fill="currentColor">
<tspan>uns</tspan>
</text>
</g>
</a>
<g transform="translate(25.2499, 7.1834)">
<rect x="-0.0650" y="-1.8139" width="0.1300" height="3.3139" ry="0.0400" fill="currentColor"/>
</g>
<a style="color:inherit;" xlink:href="textedit:///Volumes/sandisk/local/junk/2025/2025-01-09/ninth-313.ly:12:16:17">
<g transform="translate(29.1858, 5.1834)">
<path transform="scale(0.0040, -0.0040)" d="M218 136c66 0 108 -36 108 -89c0 -89 -113 -183 -218 -183c-66 0 -108 36 -108 89c0 89 113 183 218 183z" fill="currentColor"/>
</g>
</a>
<a style="color:inherit;" xlink:href="textedit:///Volumes/sandisk/local/junk/2025/2025-01-09/ninth-313.ly:18:26:27">
<g transform="translate(27.9942, 12.6087)">
<text font-family="serif" font-size="2.4697" text-anchor="start" fill="currentColor">
<tspan>und</tspan>
</text>
</g>
</a>
<g transform="translate(29.2508, 7.1834)">
<rect x="-0.0650" y="-1.8139" width="0.1300" height="3.3139" ry="0.0400" fill="currentColor"/>
</g>
<a style="color:inherit;" xlink:href="textedit:///Volumes/sandisk/local/junk/2025/2025-01-09/ninth-313.ly:12:18:19">
<g transform="translate(32.8453, 5.1834)">
<path transform="scale(0.0040, -0.0040)" d="M218 136c66 0 108 -36 108 -89c0 -89 -113 -183 -218 -183c-66 0 -108 36 -108 89c0 89 113 183 218 183z" fill="currentColor"/>
</g>
</a>
<a style="color:inherit;" xlink:href="textedit:///Volumes/sandisk/local/junk/2025/2025-01-09/ninth-313.ly:18:30:31">
<g transform="translate(32.1317, 12.6087)">
<text font-family="serif" font-size="2.4697" text-anchor="start" fill="currentColor">
<tspan>Re</tspan>
</text>
</g>
</a>
<g transform="translate(32.9103, 7.1834)">
<rect x="-0.0650" y="-1.8139" width="0.1300" height="3.3139" ry="0.0400" fill="currentColor"/>
</g>
<a style="color:inherit;" xlink:href="textedit:///Volumes/sandisk/local/junk/2025/2025-01-09/ninth-313.ly:12:20:21">
<g transform="translate(36.3938, 5.1834)">
<path transform="scale(0.0040, -0.0040)" d="M218 136c66 0 108 -36 108 -89c0 -89 -113 -183 -218 -183c-66 0 -108 36 -108 89c0 89 113 183 218 183z" fill="currentColor"/>
</g>
</a>
<a style="color:inherit;" xlink:href="textedit:///Volumes/sandisk/local/junk/2025/2025-01-09/ninth-313.ly:18:36:37">
<g transform="translate(34.9631, 12.6087)">
<text font-family="serif" font-size="2.4697" text-anchor="start" fill="currentColor">
<tspan>ben,</tspan>
</text>
</g>
</a>
<g transform="translate(36.4588, 7.1834)">
<rect x="-0.0650" y="-1.8139" width="0.1300" height="3.3139" ry="0.0400" fill="currentColor"/>
</g>
<a style="color:inherit;" xlink:href="textedit:///Volumes/sandisk/local/junk/2025/2025-01-09/ninth-313.ly:19:25:26">
<g transform="translate(56.5503, 12.6087)">
<rect x="0.0000" y="-0.5500" width="0.4861" height="0.1300" ry="0.0400" fill="currentColor"/>
</g>
</a>
<a style="color:inherit;" xlink:href="textedit:///Volumes/sandisk/local/junk/2025/2025-01-09/ninth-313.ly:12:24:25">
<g transform="translate(40.2831, 5.1834)">
<path transform="scale(0.0040, -0.0040)" d="M218 136c66 0 108 -36 108 -89c0 -89 -113 -183 -218 -183c-66 0 -108 36 -108 89c0 89 113 183 218 183z" fill="currentColor"/>
</g>
</a>
<a style="color:inherit;" xlink:href="textedit:///Volumes/sandisk/local/junk/2025/2025-01-09/ninth-313.ly:19:4:5">
<g transform="translate(39.8427, 12.6087)">
<text font-family="serif" font-size="2.4697" text-anchor="start" fill="currentColor">
<tspan>Ei</tspan>
</text>
</g>
</a>
<g transform="translate(40.3481, 7.1834)">
<rect x="-0.0650" y="-1.8139" width="0.1300" height="3.3139" ry="0.0400" fill="currentColor"/>
</g>
<a style="color:inherit;" xlink:href="textedit:///Volumes/sandisk/local/junk/2025/2025-01-09/ninth-313.ly:12:26:27">
<g transform="translate(43.2512, 8.6834)">
<path transform="scale(0.0040, -0.0040)" d="M218 136c66 0 108 -36 108 -89c0 -89 -113 -183 -218 -183c-66 0 -108 36 -108 89c0 89 113 183 218 183z" fill="currentColor"/>
</g>
</a>
<a style="color:inherit;" xlink:href="textedit:///Volumes/sandisk/local/junk/2025/2025-01-09/ninth-313.ly:19:10:11">
<g transform="translate(42.1278, 12.6087)">
<text font-family="serif" font-size="2.4697" text-anchor="start" fill="currentColor">
<tspan>nen</tspan>
</text>
</g>
</a>
<g transform="translate(44.4904, 7.1834)">
<rect x="-0.0650" y="-2.0000" width="0.1300" height="3.3139" ry="0.0400" fill="currentColor"/>
</g>
<a style="color:inherit;" xlink:href="textedit:///Volumes/sandisk/local/junk/2025/2025-01-09/ninth-313.ly:12:29:30">
<g transform="translate(49.2665, 8.6834)">
<path transform="scale(0.0040, -0.0040)" d="M218 136c66 0 108 -36 108 -89c0 -89 -113 -183 -218 -183c-66 0 -108 36 -108 89c0 89 113 183 218 183z" fill="currentColor"/>
</g>
</a>
<a style="color:inherit;" xlink:href="textedit:///Volumes/sandisk/local/junk/2025/2025-01-09/ninth-313.ly:19:14:15">
<g transform="translate(46.1287, 12.6087)">
<text font-family="serif" font-size="2.4697" text-anchor="start" fill="currentColor">
<tspan>Freund,</tspan>
</text>
</g>
</a>
<g transform="translate(50.5058, 7.1834)">
<rect x="-0.0650" y="-2.0000" width="0.1300" height="3.3139" ry="0.0400" fill="currentColor"/>
</g>
<a style="color:inherit;" xlink:href="textedit:///Volumes/sandisk/local/junk/2025/2025-01-09/ninth-313.ly:12:31:32">
<g transform="translate(54.6673, 8.6834)">
<path transform="scale(0.0040, -0.0040)" d="M218 136c66 0 108 -36 108 -89c0 -89 -113 -183 -218 -183c-66 0 -108 36 -108 89c0 89 113 183 218 183z" fill="currentColor"/>
</g>
</a>
<a style="color:inherit;" xlink:href="textedit:///Volumes/sandisk/local/junk/2025/2025-01-09/ninth-313.ly:19:22:23">
<g transform="translate(54.1586, 12.6087)">
<text font-family="serif" font-size="2.4697" text-anchor="start" fill="currentColor">
<tspan>ge</tspan>
</text>
</g>
</a>
<g transform="translate(55.9065, 7.1834)">
<rect x="-0.0650" y="-2.0000" width="0.1300" height="3.3139" ry="0.0400" fill="currentColor"/>
</g>
<a style="color:inherit;" xlink:href="textedit:///Volumes/sandisk/local/junk/2025/2025-01-09/ninth-313.ly:12:35:36">
<g transform="translate(58.8444, 8.6834)">
<path transform="scale(0.0040, -0.0040)" d="M218 136c66 0 108 -36 108 -89c0 -89 -113 -183 -218 -183c-66 0 -108 36 -108 89c0 89 113 183 218 183z" fill="currentColor"/>
</g>
</a>
<a style="color:inherit;" xlink:href="textedit:///Volumes/sandisk/local/junk/2025/2025-01-09/ninth-313.ly:19:28:29">
<g transform="translate(57.1064, 12.6087)">
<text font-family="serif" font-size="2.4697" text-anchor="start" fill="currentColor">
<tspan>prüft</tspan>
</text>
</g>
</a>
<g transform="translate(60.0836, 7.1834)">
<rect x="-0.0650" y="-2.0000" width="0.1300" height="3.3139" ry="0.0400" fill="currentColor"/>
</g>
<a style="color:inherit;" xlink:href="textedit:///Volumes/sandisk/local/junk/2025/2025-01-09/ninth-313.ly:12:37:38">
<g transform="translate(62.9818, 8.6834)">
<path transform="scale(0.0040, -0.0040)" d="M218 136c66 0 108 -36 108 -89c0 -89 -113 -183 -218 -183c-66 0 -108 36 -108 89c0 89 113 183 218 183z" fill="currentColor"/>
</g>
</a>
<a style="color:inherit;" xlink:href="textedit:///Volumes/sandisk/local/junk/2025/2025-01-09/ninth-313.ly:19:34:35">
<g transform="translate(62.3365, 12.6087)">
<text font-family="serif" font-size="2.4697" text-anchor="start" fill="currentColor">
<tspan>im</tspan>
</text>
</g>
</a>
<g transform="translate(64.2210, 7.1834)">
<rect x="-0.0650" y="-2.0000" width="0.1300" height="3.3139" ry="0.0400" fill="currentColor"/>
</g>
<a style="color:inherit;" xlink:href="textedit:///Volumes/sandisk/local/junk/2025/2025-01-09/ninth-313.ly:12:39:40">
<g transform="translate(66.9827, 8.6834)">
<path transform="scale(0.0040, -0.0040)" d="M218 136c66 0 108 -36 108 -89c0 -89 -113 -183 -218 -183c-66 0 -108 36 -108 89c0 89 113 183 218 183z" fill="currentColor"/>
</g>
</a>
<a style="color:inherit;" xlink:href="textedit:///Volumes/sandisk/local/junk/2025/2025-01-09/ninth-313.ly:19:37:38">
<g transform="translate(65.3814, 12.6087)">
<text font-family="serif" font-size="2.4697" text-anchor="start" fill="currentColor">
<tspan>Tod;</tspan>
</text>
</g>
</a>
<g transform="translate(68.2220, 7.1834)">
<rect x="-0.0650" y="-2.0000" width="0.1300" height="3.3139" ry="0.0400" fill="currentColor"/>
</g>
<a style="color:inherit;" xlink:href="textedit:///Volumes/sandisk/local/junk/2025/2025-01-09/ninth-313.ly:12:41:42">
<g transform="translate(71.7007, 8.6834)">
<path transform="scale(0.0040, -0.0040)" d="M218 136c66 0 108 -36 108 -89c0 -89 -113 -183 -218 -183c-66 0 -108 36 -108 89c0 89 113 183 218 183z" fill="currentColor"/>
</g>
</a>
<a style="color:inherit;" xlink:href="textedit:///Volumes/sandisk/local/junk/2025/2025-01-09/ninth-313.ly:20:4:5">
<g transform="translate(70.3383, 12.6087)">
<text font-family="serif" font-size="2.4697" text-anchor="start" fill="currentColor">
<tspan>Wol</tspan>
</text>
</g>
</a>
<g transform="translate(72.9399, 7.1834)">
<rect x="-0.0650" y="-2.0000" width="0.1300" height="3.3139" ry="0.0400" fill="currentColor"/>
</g>
<a style="color:inherit;" xlink:href="textedit:///Volumes/sandisk/local/junk/2025/2025-01-09/ninth-313.ly:13:4:5">
<g transform="translate(75.9777, 7.1834)">
<path transform="scale(0.0040, -0.0040)" d="M218 136c66 0 108 -36 108 -89c0 -89 -113 -183 -218 -183c-66 0 -108 36 -108 89c0 89 113 183 218 183z" fill="currentColor"/>
</g>
</a>
<a style="color:inherit;" xlink:href="textedit:///Volumes/sandisk/local/junk/2025/2025-01-09/ninth-313.ly:20:8:9">
<g transform="translate(76.2201, 12.6087)">
<text font-family="serif" font-size="2.4697" text-anchor="start" fill="currentColor">
<tspan>-</tspan>
</text>
</g>
</a>
<g transform="translate(76.0427, 7.1834)">
<rect x="-0.0650" y="0.1861" width="0.1300" height="3.1472" ry="0.0400" fill="currentColor"/>
</g>
<a style="color:inherit;" xlink:href="textedit:///Volumes/sandisk/local/junk/2025/2025-01-09/ninth-313.ly:13:6:7">
<g transform="translate(78.8570, 7.1834)">
<path transform="scale(0.0040, -0.0040)" d="M218 136c66 0 108 -36 108 -89c0 -89 -113 -183 -218 -183c-66 0 -108 36 -108 89c0 89 113 183 218 183z" fill="currentColor"/>
</g>
</a>
<a style="color:inherit;" xlink:href="textedit:///Volumes/sandisk/local/junk/2025/2025-01-09/ninth-313.ly:20:10:11">
<g transform="translate(77.7337, 12.6087)">
<text font-family="serif" font-size="2.4697" text-anchor="start" fill="currentColor">
<tspan>lust</tspan>
</text>
</g>
</a>
<g transform="translate(78.9220, 7.1834)">
<rect x="-0.0650" y="0.1861" width="0.1300" height="3.1472" ry="0.0400" fill="currentColor"/>
</g>
<a style="color:inherit;" xlink:href="textedit:///Volumes/sandisk/local/junk/2025/2025-01-09/ninth-313.ly:13:8:9">
<g transform="translate(83.5408, 7.1834)">
<path transform="scale(0.0040, -0.0040)" d="M218 136c66 0 108 -36 108 -89c0 -89 -113 -183 -218 -183c-66 0 -108 36 -108 89c0 89 113 183 218 183z" fill="currentColor"/>
</g>
</a>
<a style="color:inherit;" xlink:href="textedit:///Volumes/sandisk/local/junk/2025/2025-01-09/ninth-313.ly:20:15:16">
<g transform="translate(81.7346, 12.6087)">
<text font-family="serif" font-size="2.4697" text-anchor="start" fill="currentColor">
<tspan>ward</tspan>
</text>
</g>
</a>
<g transform="translate(83.6058, 7.1834)">
<rect x="-0.0650" y="0.1861" width="0.1300" height="3.1472" ry="0.0400" fill="currentColor"/>
</g>
<a style="color:inherit;" xlink:href="textedit:///Volumes/sandisk/local/junk/2025/2025-01-09/ninth-313.ly:13:10:11">
<g transform="translate(88.5660, 7.1834)">
<path transform="scale(0.0040, -0.0040)" d="M218 136c66 0 108 -36 108 -89c0 -89 -113 -183 -218 -183c-66 0 -108 36 -108 89c0 89 113 183 218 183z" fill="currentColor"/>
</g>
</a>
<a style="color:inherit;" xlink:href="textedit:///Volumes/sandisk/local/junk/2025/2025-01-09/ninth-313.ly:20:20:21">
<g transform="translate(87.1012, 12.6087)">
<text font-family="serif" font-size="2.4697" text-anchor="start" fill="currentColor">
<tspan>dem</tspan>
</text>
</g>
</a>
<g transform="translate(88.6310, 7.1834)">
<rect x="-0.0650" y="0.1861" width="0.1300" height="3.1472" ry="0.0400" fill="currentColor"/>
</g>
<a style="color:inherit;" xlink:href="textedit:///Volumes/sandisk/local/junk/2025/2025-01-09/ninth-313.ly:13:14:15">
<g transform="translate(94.2399, 7.1834)">
<path transform="scale(0.0040, -0.0040)" d="M218 136c66 0 108 -36 108 -89c0 -89 -113 -183 -218 -183c-66 0 -108 36 -108 89c0 89 113 183 218 183z" fill="currentColor"/>
</g>
</a>
<a style="color:inherit;" xlink:href="textedit:///Volumes/sandisk/local/junk/2025/2025-01-09/ninth-313.ly:20:24:25">
<g transform="translate(91.7850, 12.6087)">
<text font-family="serif" font-size="2.4697" text-anchor="start" fill="currentColor">
<tspan>Wurm</tspan>
</text>
</g>
</a>
<g transform="translate(94.3049, 7.1834)">
<rect x="-0.0650" y="0.1861" width="0.1300" height="3.1472" ry="0.0400" fill="currentColor"/>
</g>
<a style="color:inherit;" xlink:href="textedit:///Volumes/sandisk/local/junk/2025/2025-01-09/ninth-313.ly:13:16:17">
<g transform="translate(98.9578, 7.1834)">
<path transform="scale(0.0040, -0.0040)" d="M218 136c66 0 108 -36 108 -89c0 -89 -113 -183 -218 -183c-66 0 -108 36 -108 89c0 89 113 183 218 183z" fill="currentColor"/>
</g>
</a>
<a style="color:inherit;" xlink:href="textedit:///Volumes/sandisk/local/junk/2025/2025-01-09/ninth-313.ly:20:29:30">
<g transform="translate(98.4491, 12.6087)">
<text font-family="serif" font-size="2.4697" text-anchor="start" fill="currentColor">
<tspan>ge</tspan>
</text>
</g>
</a>
<g transform="translate(99.0228, 7.1834)">
<rect x="-0.0650" y="0.1861" width="0.1300" height="3.1472" ry="0.0400" fill="currentColor"/>
</g>
<a style="color:inherit;" xlink:href="textedit:///Volumes/sandisk/local/junk/2025/2025-01-09/ninth-313.ly:13:18:19">
<g transform="translate(101.8371, 7.1834)">
<path transform="scale(0.0040, -0.0040)" d="M218 136c66 0 108 -36 108 -89c0 -89 -113 -183 -218 -183c-66 0 -108 36 -108 89c0 89 113 183 218 183z" fill="currentColor"/>
</g>
</a>
<a style="color:inherit;" xlink:href="textedit:///Volumes/sandisk/local/junk/2025/2025-01-09/ninth-313.ly:20:35:36">
<g transform="translate(101.3284, 12.6087)">
<text font-family="serif" font-size="2.4697" text-anchor="start" fill="currentColor">
<tspan>ge</tspan>
</text>
</g>
</a>
<g transform="translate(101.9021, 7.1834)">
<rect x="-0.0650" y="0.1861" width="0.1300" height="3.1472" ry="0.0400" fill="currentColor"/>
</g>
<a style="color:inherit;" xlink:href="textedit:///Volumes/sandisk/local/junk/2025/2025-01-09/ninth-313.ly:13:20:21">
<g transform="translate(105.1807, 7.1834)">
<path transform="scale(0.0040, -0.0040)" d="M218 136c66 0 108 -36 108 -89c0 -89 -113 -183 -218 -183c-66 0 -108 36 -108 89c0 89 113 183 218 183z" fill="currentColor"/>
</g>
</a>
<a style="color:inherit;" xlink:href="textedit:///Volumes/sandisk/local/junk/2025/2025-01-09/ninth-313.ly:20:41:42">
<g transform="translate(103.7501, 12.6087)">
<text font-family="serif" font-size="2.4697" text-anchor="start" fill="currentColor">
<tspan>ben,</tspan>
</text>
</g>
</a>
<g transform="translate(105.2457, 7.1834)">
<rect x="-0.0650" y="0.1861" width="0.1300" height="3.1472" ry="0.0400" fill="currentColor"/>
</g>
<g transform="translate(22.5986, 20.3748)">
<rect x="0.0000" y="-2.0000" width="0.1900" height="4.0000" ry="0.0000" fill="currentColor"/>
</g>
<g transform="translate(0.0000, 22.3748)">
<line stroke-linejoin="round" stroke-linecap="round" stroke-width="0.1000" stroke="currentColor" x1="0.0500" y1="0" x2="108.0705" y2="0"/>
</g>
<g transform="translate(0.0000, 21.3748)">
<line stroke-linejoin="round" stroke-linecap="round" stroke-width="0.1000" stroke="currentColor" x1="0.0500" y1="0" x2="108.0705" y2="0"/>
</g>
<g transform="translate(0.0000, 20.3748)">
<line stroke-linejoin="round" stroke-linecap="round" stroke-width="0.1000" stroke="currentColor" x1="0.0500" y1="0" x2="108.0705" y2="0"/>
</g>
<g transform="translate(0.0000, 19.3748)">
<line stroke-linejoin="round" stroke-linecap="round" stroke-width="0.1000" stroke="currentColor" x1="0.0500" y1="0" x2="108.0705" y2="0"/>
</g>
<g transform="translate(0.0000, 18.3748)">
<line stroke-linejoin="round" stroke-linecap="round" stroke-width="0.1000" stroke="currentColor" x1="0.0500" y1="0" x2="108.0705" y2="0"/>
</g>
<g transform="translate(107.9305, 20.3748)">
<rect x="0.0000" y="-2.0000" width="0.1900" height="4.0000" ry="0.0000" fill="currentColor"/>
</g>
<g transform="translate(107.4405, 20.3748)">
<rect x="0.0000" y="-2.0000" width="0.1900" height="4.0000" ry="0.0000" fill="currentColor"/>
</g>
<g transform="translate(101.2888, 20.3748)">
<rect x="0.0000" y="-2.0000" width="0.1900" height="4.0000" ry="0.0000" fill="currentColor"/>
</g>
<g transform="translate(94.5942, 20.3748)">
<rect x="0.0000" y="-2.0000" width="0.1900" height="4.0000" ry="0.0000" fill="currentColor"/>
</g>
<g transform="translate(88.9450, 20.3748)">
<rect x="0.0000" y="-2.0000" width="0.1900" height="4.0000" ry="0.0000" fill="currentColor"/>
</g>
<g transform="translate(82.1441, 20.3748)">
<rect x="0.0000" y="-2.0000" width="0.1900" height="4.0000" ry="0.0000" fill="currentColor"/>
</g>
<g transform="translate(76.4949, 20.3748)">
<rect x="0.0000" y="-2.0000" width="0.1900" height="4.0000" ry="0.0000" fill="currentColor"/>
</g>
<g transform="translate(68.2133, 20.3748)">
<rect x="0.0000" y="-2.0000" width="0.1900" height="4.0000" ry="0.0000" fill="currentColor"/>
</g>
<g transform="translate(0.0000, 17.3748)">
<rect x="63.2140" y="-0.1000" width="2.9430" height="0.2000" ry="0.1000" fill="currentColor"/>
</g>
<g transform="translate(0.0000, 17.3748)">
<rect x="42.5298" y="-0.1000" width="2.0660" height="0.2000" ry="0.1000" fill="currentColor"/>
</g>
<g transform="translate(0.0000, 17.3748)">
<rect x="38.6655" y="-0.1000" width="2.0660" height="0.2000" ry="0.1000" fill="currentColor"/>
</g>
<g transform="translate(0.0000, 17.3748)">
<rect x="33.8793" y="-0.1000" width="2.0660" height="0.2000" ry="0.1000" fill="currentColor"/>
</g>
<g transform="translate(0.0000, 17.3748)">
<rect x="29.3528" y="-0.1000" width="1.9563" height="0.2000" ry="0.1000" fill="currentColor"/>
</g>
<g transform="translate(0.0000, 17.3748)">
<rect x="23.2725" y="-0.1000" width="1.9563" height="0.2000" ry="0.1000" fill="currentColor"/>
</g>
<g transform="translate(0.0000, 17.3748)">
<rect x="20.5315" y="-0.1000" width="1.9563" height="0.2000" ry="0.1000" fill="currentColor"/>
</g>
<g transform="translate(0.0000, 17.3748)">
<rect x="16.8123" y="-0.1000" width="1.9563" height="0.2000" ry="0.1000" fill="currentColor"/>
</g>
<g transform="translate(62.2154, 20.3748)">
<rect x="0.0000" y="-2.0000" width="0.1900" height="4.0000" ry="0.0000" fill="currentColor"/>
</g>
<g transform="translate(53.8518, 20.3748)">
<rect x="0.0000" y="-2.0000" width="0.1900" height="4.0000" ry="0.0000" fill="currentColor"/>
</g>
<g transform="translate(45.7889, 20.3748)">
<rect x="0.0000" y="-2.0000" width="0.1900" height="4.0000" ry="0.0000" fill="currentColor"/>
</g>
<g transform="translate(37.8795, 20.3748)">
<rect x="0.0000" y="-2.0000" width="0.1900" height="4.0000" ry="0.0000" fill="currentColor"/>
</g>
<a style="color:inherit;" xlink:href="textedit:///Volumes/sandisk/local/junk/2025/2025-01-09/ninth-313.ly:13:24:25">
<g transform="translate(9.0000, 20.3748)">
<path transform="scale(0.0040, -0.0040)" d="M218 136c66 0 108 -36 108 -89c0 -89 -113 -183 -218 -183c-66 0 -108 36 -108 89c0 89 113 183 218 183z" fill="currentColor"/>
</g>
</a>
<a style="color:inherit;" xlink:href="textedit:///Volumes/sandisk/local/junk/2025/2025-01-09/ninth-313.ly:21:4:5">
<g transform="translate(7.5352, 25.9229)">
<text font-family="serif" font-size="2.4697" text-anchor="start" fill="currentColor">
<tspan>Und</tspan>
</text>
</g>
</a>
<g transform="translate(9.0650, 20.3748)">
<rect x="-0.0650" y="0.1861" width="0.1300" height="3.1472" ry="0.0400" fill="currentColor"/>
</g>
<a style="color:inherit;" xlink:href="textedit:///Volumes/sandisk/local/junk/2025/2025-01-09/ninth-313.ly:13:26:27">
<g transform="translate(13.1375, 20.3748)">
<path transform="scale(0.0040, -0.0040)" d="M218 136c66 0 108 -36 108 -89c0 -89 -113 -183 -218 -183c-66 0 -108 36 -108 89c0 89 113 183 218 183z" fill="currentColor"/>
</g>
</a>
<a style="color:inherit;" xlink:href="textedit:///Volumes/sandisk/local/junk/2025/2025-01-09/ninth-313.ly:21:8:9">
<g transform="translate(12.2190, 25.9229)">
<text font-family="serif" font-size="2.4697" text-anchor="start" fill="currentColor">
<tspan>der</tspan>
</text>
</g>
</a>
<g transform="translate(13.2025, 20.3748)">
<rect x="-0.0650" y="0.1861" width="0.1300" height="3.1472" ry="0.0400" fill="currentColor"/>
</g>
<a style="color:inherit;" xlink:href="textedit:///Volumes/sandisk/local/junk/2025/2025-01-09/ninth-313.ly:13:28:29">
<g transform="translate(17.1384, 16.8748)">
<path transform="scale(0.0040, -0.0040)" d="M218 136c66 0 108 -36 108 -89c0 -89 -113 -183 -218 -183c-66 0 -108 36 -108 89c0 89 113 183 218 183z" fill="currentColor"/>
</g>
</a>
<a style="color:inherit;" xlink:href="textedit:///Volumes/sandisk/local/junk/2025/2025-01-09/ninth-313.ly:13:32:33">
<g transform="translate(16.7491, 15.0378)">
<g>
<path transform="scale(0.0040, -0.0040)" d="M124 223c0 -41 99 -50 99 -117c0 -61 -56 -106 -120 -106c-43 0 -81 28 -81 68c0 21 12 42 31 42c18 0 32 -14 32 -32c0 -13 -21 -16 -21 -29c0 -15 18 -22 35 -22c33 0 64 20 64 51c0 58 -100 63 -100 117s45 97 99 97c56 0 79 -34 79 -62c0 -19 -11 -36 -30 -36
c-18 0 -31 11 -31 22c0 8 9 13 9 29c0 13 -6 23 -18 23c-26 0 -47 -20 -47 -45z" fill="currentColor"/>

<path transform="translate(0.8194, 0.0000) scale(0.0040, -0.0040)" d="M253 245l-50 -163c-30 -99 -121 -255 -218 -255c-45 0 -87 27 -87 69c0 39 17 77 52 77c24 0 44 -20 44 -44c0 -30 -38 -24 -38 -54c0 -10 11 -11 23 -11h6c48 0 61 58 73 108l68 273h-49c-11 0 -19 8 -19 19s8 19 19 19h60c32 96 118 191 213 191c45 0 87 -27 87 -69
c0 -39 -17 -77 -52 -77c-24 0 -44 19 -44 43c0 30 38 25 38 55c0 10 -10 11 -22 11h-7c-62 0 -70 -88 -86 -154h55c11 0 19 -8 19 -19s-8 -19 -19 -19h-66z" fill="currentColor"/>
</g>
</g>
</a>
<a style="color:inherit;" xlink:href="textedit:///Volumes/sandisk/local/junk/2025/2025-01-09/ninth-313.ly:21:12:13">
<g transform="translate(15.8102, 25.9229)">
<text font-family="serif" font-size="2.4697" text-anchor="start" fill="currentColor">
<tspan>Che</tspan>
</text>
</g>
</a>
<g transform="translate(18.8926, 16.8748)">
<path transform="scale(0.0040, -0.0040)" d="M0 0c0 31 25 56 56 56s56 -25 56 -56s-25 -56 -56 -56s-56 25 -56 56z" fill="currentColor"/>
</g>
<g transform="translate(17.2034, 20.3748)">
<rect x="-0.0650" y="-3.3139" width="0.1300" height="3.3139" ry="0.0400" fill="currentColor"/>
</g>
<a style="color:inherit;" xlink:href="textedit:///Volumes/sandisk/local/junk/2025/2025-01-09/ninth-313.ly:13:37:38">
<g transform="translate(20.8576, 16.8748)">
<path transform="scale(0.0040, -0.0040)" d="M218 136c66 0 108 -36 108 -89c0 -89 -113 -183 -218 -183c-66 0 -108 36 -108 89c0 89 113 183 218 183z" fill="currentColor"/>
</g>
</a>
<a style="color:inherit;" xlink:href="textedit:///Volumes/sandisk/local/junk/2025/2025-01-09/ninth-313.ly:21:19:20">
<g transform="translate(19.8708, 25.9229)">
<text font-family="serif" font-size="2.4697" text-anchor="start" fill="currentColor">
<tspan>rub</tspan>
</text>
</g>
</a>
<g transform="translate(20.9226, 20.3748)">
<rect x="-0.0650" y="-3.3139" width="0.1300" height="3.3139" ry="0.0400" fill="currentColor"/>
</g>
<g transform="translate(20.9876, 20.3348)">
<path transform="scale(0.0040, -0.0040)" d="M0 0h-16v250h16v-250zM0 0v250c97 59 224 148 224 259c0 57 -15 112 -40 163c-3 16 10 27 23 27c7 0 15 -3 20 -11c25 -56 40 -117 40 -179c0 -203 -267 -306 -267 -509z" fill="currentColor"/>
</g>
<a style="color:inherit;" xlink:href="textedit:///Volumes/sandisk/local/junk/2025/2025-01-09/ninth-313.ly:13:42:43">
<g transform="translate(23.5986, 16.8748)">
<path transform="scale(0.0040, -0.0040)" d="M218 136c66 0 108 -36 108 -89c0 -89 -113 -183 -218 -183c-66 0 -108 36 -108 89c0 89 113 183 218 183z" fill="currentColor"/>
</g>
</a>
<a style="color:inherit;" xlink:href="textedit:///Volumes/sandisk/local/junk/2025/2025-01-09/ninth-313.ly:21:23:24">
<g transform="translate(23.5986, 25.9229)">
<text font-family="serif" font-size="2.4697" text-anchor="start" fill="currentColor">
<tspan>steht</tspan>
</text>
</g>
</a>
<g transform="translate(23.6636, 20.3748)">
<rect x="-0.0650" y="-3.3139" width="0.1300" height="3.3139" ry="0.0400" fill="currentColor"/>
</g>
<g transform="translate(23.7286, 20.3348)">
<path transform="scale(0.0040, -0.0040)" d="M0 0h-16v250h16v-250zM0 0v250c97 59 224 148 224 259c0 57 -15 112 -40 163c-3 16 10 27 23 27c7 0 15 -3 20 -11c25 -56 40 -117 40 -179c0 -203 -267 -306 -267 -509z" fill="currentColor"/>
</g>
<a style="color:inherit;" xlink:href="textedit:///Volumes/sandisk/local/junk/2025/2025-01-09/ninth-313.ly:13:45:46">
<g transform="translate(25.9346, 18.3748)">
<path transform="scale(0.0040, -0.0040)" d="M218 136c66 0 108 -36 108 -89c0 -89 -113 -183 -218 -183c-66 0 -108 36 -108 89c0 89 113 183 218 183z" fill="currentColor"/>
</g>
</a>
<g transform="translate(25.9996, 20.3748)">
<rect x="-0.0650" y="-1.8139" width="0.1300" height="3.3139" ry="0.0400" fill="currentColor"/>
</g>
<a style="color:inherit;" xlink:href="textedit:///Volumes/sandisk/local/junk/2025/2025-01-09/ninth-313.ly:13:49:50">
<g transform="translate(29.6788, 16.8748)">
<path transform="scale(0.0040, -0.0040)" d="M218 136c66 0 108 -36 108 -89c0 -89 -113 -183 -218 -183c-66 0 -108 36 -108 89c0 89 113 183 218 183z" fill="currentColor"/>
</g>
</a>
<a style="color:inherit;" xlink:href="textedit:///Volumes/sandisk/local/junk/2025/2025-01-09/ninth-313.ly:21:29:30">
<g transform="translate(28.6921, 25.9229)">
<text font-family="serif" font-size="2.4697" text-anchor="start" fill="currentColor">
<tspan>vor</tspan>
</text>
</g>
</a>
<g transform="translate(29.7438, 20.3748)">
<rect x="-0.0650" y="-3.3139" width="0.1300" height="3.3139" ry="0.0400" fill="currentColor"/>
</g>
<g transform="translate(29.8088, 20.3348)">
<path transform="scale(0.0040, -0.0040)" d="M0 0h-16v250h16v-250zM0 0v250c97 59 224 148 224 259c0 57 -15 112 -40 163c-3 16 10 27 23 27c7 0 15 -3 20 -11c25 -56 40 -117 40 -179c0 -203 -267 -306 -267 -509z" fill="currentColor"/>
</g>
<a style="color:inherit;" xlink:href="textedit:///Volumes/sandisk/local/junk/2025/2025-01-09/ninth-313.ly:13:52:53">
<g transform="translate(34.2236, 16.8748)">
<path transform="scale(0.0040, -0.0040)" d="M314 65c0 23 -19 41 -42 41c-39 0 -204 -110 -231 -143c-7 -8 -10 -18 -10 -28c0 -23 19 -41 42 -41c39 0 203 110 230 143c7 8 11 18 11 28zM262 136c41 0 82 -14 82 -71c0 -26 -16 -112 -74 -151c-25 -17 -87 -50 -187 -50c-41 0 -83 14 -83 71c0 26 16 112 74 151
c25 17 88 50 188 50z" fill="currentColor"/>
</g>
</a>
<a style="color:inherit;" xlink:href="textedit:///Volumes/sandisk/local/junk/2025/2025-01-09/ninth-313.ly:21:33:34">
<g transform="translate(32.4198, 25.9229)">
<text font-family="serif" font-size="2.4697" text-anchor="start" fill="currentColor">
<tspan>Gott,</tspan>
</text>
</g>
</a>
<g transform="translate(34.2886, 20.3748)">
<rect x="-0.0650" y="-3.2410" width="0.1300" height="3.2410" ry="0.0400" fill="currentColor"/>
</g>
<a style="color:inherit;" xlink:href="textedit:///Volumes/sandisk/local/junk/2025/2025-01-09/ninth-313.ly:14:4:5">
<g transform="translate(39.0098, 16.8748)">
<path transform="scale(0.0040, -0.0040)" d="M314 65c0 23 -19 41 -42 41c-39 0 -204 -110 -231 -143c-7 -8 -10 -18 -10 -28c0 -23 19 -41 42 -41c39 0 203 110 230 143c7 8 11 18 11 28zM262 136c41 0 82 -14 82 -71c0 -26 -16 -112 -74 -151c-25 -17 -87 -50 -187 -50c-41 0 -83 14 -83 71c0 26 16 112 74 151
c25 17 88 50 188 50z" fill="currentColor"/>
</g>
</a>
<a style="color:inherit;" xlink:href="textedit:///Volumes/sandisk/local/junk/2025/2025-01-09/ninth-313.ly:14:5:6">
<g transform="translate(39.6985, 16.0778)">
<path transform="scale(0.0040, -0.0040)" d="M-13 0l-37 200c0 2 -1 5 -1 7c0 24 24 43 51 43s51 -19 51 -43c0 -2 -1 -5 -1 -7l-37 -200c-1 -7 -6 -13 -13 -13s-12 6 -13 13z" fill="currentColor"/>
</g>
</a>
<a style="color:inherit;" xlink:href="textedit:///Volumes/sandisk/local/junk/2025/2025-01-09/ninth-313.ly:22:4:5">
<g transform="translate(37.8547, 25.9229)">
<text font-family="serif" font-size="2.4697" text-anchor="start" fill="currentColor">
<tspan>und</tspan>
</text>
</g>
</a>
<g transform="translate(39.0748, 20.3748)">
<rect x="-0.0650" y="-3.2410" width="0.1300" height="3.2410" ry="0.0400" fill="currentColor"/>
</g>
<a style="color:inherit;" xlink:href="textedit:///Volumes/sandisk/local/junk/2025/2025-01-09/ninth-313.ly:14:8:9">
<g transform="translate(42.8741, 16.8748)">
<path transform="scale(0.0040, -0.0040)" d="M314 65c0 23 -19 41 -42 41c-39 0 -204 -110 -231 -143c-7 -8 -10 -18 -10 -28c0 -23 19 -41 42 -41c39 0 203 110 230 143c7 8 11 18 11 28zM262 136c41 0 82 -14 82 -71c0 -26 -16 -112 -74 -151c-25 -17 -87 -50 -187 -50c-41 0 -83 14 -83 71c0 26 16 112 74 151
c25 17 88 50 188 50z" fill="currentColor"/>
</g>
</a>
<a style="color:inherit;" xlink:href="textedit:///Volumes/sandisk/local/junk/2025/2025-01-09/ninth-313.ly:14:9:10">
<g transform="translate(43.5628, 16.0778)">
<path transform="scale(0.0040, -0.0040)" d="M-13 0l-37 200c0 2 -1 5 -1 7c0 24 24 43 51 43s51 -19 51 -43c0 -2 -1 -5 -1 -7l-37 -200c-1 -7 -6 -13 -13 -13s-12 6 -13 13z" fill="currentColor"/>
</g>
</a>
<a style="color:inherit;" xlink:href="textedit:///Volumes/sandisk/local/junk/2025/2025-01-09/ninth-313.ly:22:8:9">
<g transform="translate(41.9922, 25.9229)">
<text font-family="serif" font-size="2.4697" text-anchor="start" fill="currentColor">
<tspan>der</tspan>
</text>
</g>
</a>
<g transform="translate(42.9391, 20.3748)">
<rect x="-0.0650" y="-3.2410" width="0.1300" height="3.2410" ry="0.0400" fill="currentColor"/>
</g>
<a style="color:inherit;" xlink:href="textedit:///Volumes/sandisk/local/junk/2025/2025-01-09/ninth-313.ly:14:14:15">
<g transform="translate(46.8750, 18.8748)">
<path transform="scale(0.0040, -0.0040)" d="M314 65c0 23 -19 41 -42 41c-39 0 -204 -110 -231 -143c-7 -8 -10 -18 -10 -28c0 -23 19 -41 42 -41c39 0 203 110 230 143c7 8 11 18 11 28zM262 136c41 0 82 -14 82 -71c0 -26 -16 -112 -74 -151c-25 -17 -87 -50 -187 -50c-41 0 -83 14 -83 71c0 26 16 112 74 151
c25 17 88 50 188 50z" fill="currentColor"/>
</g>
</a>
<a style="color:inherit;" xlink:href="textedit:///Volumes/sandisk/local/junk/2025/2025-01-09/ninth-313.ly:14:16:17">
<g transform="translate(47.5637, 17.8748)">
<path transform="scale(0.0040, -0.0040)" d="M-13 0l-37 200c0 2 -1 5 -1 7c0 24 24 43 51 43s51 -19 51 -43c0 -2 -1 -5 -1 -7l-37 -200c-1 -7 -6 -13 -13 -13s-12 6 -13 13z" fill="currentColor"/>
</g>
</a>
<g transform="translate(-2.6632, 17.3009)">
<text font-family="serif" font-size="1.7459" text-anchor="start" fill="currentColor">
<tspan>319</tspan>
</text>
</g>
<a style="color:inherit;" xlink:href="textedit:///Volumes/sandisk/local/junk/2025/2025-01-09/ninth-313.ly:22:12:13">
<g transform="translate(45.5834, 25.9229)">
<text font-family="serif" font-size="2.4697" text-anchor="start" fill="currentColor">
<tspan>Che</tspan>
</text>
</g>
</a>
<g transform="translate(46.9400, 20.3748)">
<rect x="-0.0650" y="-1.2410" width="0.1300" height="3.2410" ry="0.0400" fill="currentColor"/>
</g>
<a style="color:inherit;" xlink:href="textedit:///Volumes/sandisk/local/junk/2025/2025-01-09/ninth-313.ly:14:19:20">
<g transform="translate(50.5942, 18.8748)">
<path transform="scale(0.0040, -0.0040)" d="M314 65c0 23 -19 41 -42 41c-39 0 -204 -110 -231 -143c-7 -8 -10 -18 -10 -28c0 -23 19 -41 42 -41c39 0 203 110 230 143c7 8 11 18 11 28zM262 136c41 0 82 -14 82 -71c0 -26 -16 -112 -74 -151c-25 -17 -87 -50 -187 -50c-41 0 -83 14 -83 71c0 26 16 112 74 151
c25 17 88 50 188 50z" fill="currentColor"/>
</g>
</a>
<a style="color:inherit;" xlink:href="textedit:///Volumes/sandisk/local/junk/2025/2025-01-09/ninth-313.ly:14:20:21">
<g transform="translate(51.2829, 17.8748)">
<path transform="scale(0.0040, -0.0040)" d="M-13 0l-37 200c0 2 -1 5 -1 7c0 24 24 43 51 43s51 -19 51 -43c0 -2 -1 -5 -1 -7l-37 -200c-1 -7 -6 -13 -13 -13s-12 6 -13 13z" fill="currentColor"/>
</g>
</a>
<a style="color:inherit;" xlink:href="textedit:///Volumes/sandisk/local/junk/2025/2025-01-09/ninth-313.ly:22:19:20">
<g transform="translate(49.6440, 25.9229)">
<text font-family="serif" font-size="2.4697" text-anchor="start" fill="currentColor">
<tspan>rub</tspan>
</text>
</g>
</a>
<g transform="translate(50.6592, 20.3748)">
<rect x="-0.0650" y="-1.2410" width="0.1300" height="3.2410" ry="0.0400" fill="currentColor"/>
</g>
<a style="color:inherit;" xlink:href="textedit:///Volumes/sandisk/local/junk/2025/2025-01-09/ninth-313.ly:14:25:26">
<g transform="translate(55.0049, 18.3748)">
<path transform="scale(0.0040, -0.0040)" d="M314 65c0 23 -19 41 -42 41c-39 0 -204 -110 -231 -143c-7 -8 -10 -18 -10 -28c0 -23 19 -41 42 -41c39 0 203 110 230 143c7 8 11 18 11 28zM262 136c41 0 82 -14 82 -71c0 -26 -16 -112 -74 -151c-25 -17 -87 -50 -187 -50c-41 0 -83 14 -83 71c0 26 16 112 74 151
c25 17 88 50 188 50z" fill="currentColor"/>
</g>
</a>
<a style="color:inherit;" xlink:href="textedit:///Volumes/sandisk/local/junk/2025/2025-01-09/ninth-313.ly:14:26:27">
<g transform="translate(55.6935, 17.5778)">
<path transform="scale(0.0040, -0.0040)" d="M-13 0l-37 200c0 2 -1 5 -1 7c0 24 24 43 51 43s51 -19 51 -43c0 -2 -1 -5 -1 -7l-37 -200c-1 -7 -6 -13 -13 -13s-12 6 -13 13z" fill="currentColor"/>
</g>
</a>
<g transform="translate(4.3000, 19.3748)">
<path transform="scale(0.0040, -0.0040)" d="M0 119c0 8 5 15 13 18l46 17v158c0 10 8 19 18 19s19 -9 19 -19v-145l83 31v158c0 10 9 19 19 19s18 -9 18 -19v-145l32 12c2 1 5 1 7 1c11 0 20 -9 20 -20v-60c0 -8 -5 -16 -13 -19l-46 -16v-160l32 11c2 1 5 1 7 1c11 0 20 -9 20 -20v-60c0 -8 -5 -15 -13 -18l-46 -17
v-158c0 -10 -8 -19 -18 -19s-19 9 -19 19v145l-83 -31v-158c0 -10 -9 -19 -19 -19s-18 9 -18 19v145l-32 -12c-2 -1 -5 -1 -7 -1c-11 0 -20 9 -20 20v60c0 8 5 16 13 19l46 16v160l-32 -11c-2 -1 -5 -1 -7 -1c-11 0 -20 9 -20 20v60zM179 95l-83 -30v-160l83 30v160z" fill="currentColor"/>
</g>
<g transform="translate(5.4000, 20.8748)">
<path transform="scale(0.0040, -0.0040)" d="M0 119c0 8 5 15 13 18l46 17v158c0 10 8 19 18 19s19 -9 19 -19v-145l83 31v158c0 10 9 19 19 19s18 -9 18 -19v-145l32 12c2 1 5 1 7 1c11 0 20 -9 20 -20v-60c0 -8 -5 -16 -13 -19l-46 -16v-160l32 11c2 1 5 1 7 1c11 0 20 -9 20 -20v-60c0 -8 -5 -15 -13 -18l-46 -17
v-158c0 -10 -8 -19 -18 -19s-19 9 -19 19v145l-83 -31v-158c0 -10 -9 -19 -19 -19s-18 9 -18 19v145l-32 -12c-2 -1 -5 -1 -7 -1c-11 0 -20 9 -20 20v60c0 8 5 16 13 19l46 16v160l-32 -11c-2 -1 -5 -1 -7 -1c-11 0 -20 9 -20 20v60zM179 95l-83 -30v-160l83 30v160z" fill="currentColor"/>
</g>
<a style="color:inherit;" xlink:href="textedit:///Volumes/sandisk/local/junk/2025/2025-01-09/ninth-313.ly:22:23:24">
<g transform="translate(53.3718, 25.9229)">
<text font-family="serif" font-size="2.4697" text-anchor="start" fill="currentColor">
<tspan>steht</tspan>
</text>
</g>
</a>
<g transform="translate(55.0699, 20.3748)">
<rect x="-0.0650" y="-1.7410" width="0.1300" height="3.2410" ry="0.0400" fill="currentColor"/>
</g>
<a style="color:inherit;" xlink:href="textedit:///Volumes/sandisk/local/junk/2025/2025-01-09/ninth-313.ly:14:29:30">
<g transform="translate(59.4155, 18.3748)">
<path transform="scale(0.0040, -0.0040)" d="M314 65c0 23 -19 41 -42 41c-39 0 -204 -110 -231 -143c-7 -8 -10 -18 -10 -28c0 -23 19 -41 42 -41c39 0 203 110 230 143c7 8 11 18 11 28zM262 136c41 0 82 -14 82 -71c0 -26 -16 -112 -74 -151c-25 -17 -87 -50 -187 -50c-41 0 -83 14 -83 71c0 26 16 112 74 151
c25 17 88 50 188 50z" fill="currentColor"/>
</g>
</a>
<a style="color:inherit;" xlink:href="textedit:///Volumes/sandisk/local/junk/2025/2025-01-09/ninth-313.ly:14:30:31">
<g transform="translate(60.1042, 17.5778)">
<path transform="scale(0.0040, -0.0040)" d="M-13 0l-37 200c0 2 -1 5 -1 7c0 24 24 43 51 43s51 -19 51 -43c0 -2 -1 -5 -1 -7l-37 -200c-1 -7 -6 -13 -13 -13s-12 6 -13 13z" fill="currentColor"/>
</g>
</a>
<a style="color:inherit;" xlink:href="textedit:///Volumes/sandisk/local/junk/2025/2025-01-09/ninth-313.ly:22:29:30">
<g transform="translate(58.4653, 25.9229)">
<text font-family="serif" font-size="2.4697" text-anchor="start" fill="currentColor">
<tspan>vor</tspan>
</text>
</g>
</a>
<g transform="translate(59.4805, 20.3748)">
<rect x="-0.0650" y="-1.7410" width="0.1300" height="3.2410" ry="0.0400" fill="currentColor"/>
</g>
<a style="color:inherit;" xlink:href="textedit:///Volumes/sandisk/local/junk/2025/2025-01-09/ninth-313.ly:13:43:44">
<g transform="translate(23.5986, 20.3748)">
<path stroke-width="0.0800" stroke-linejoin="round" stroke-linecap="round" stroke="currentColor" fill="currentColor" d="M0.8870 -4.5450C1.8785 -4.7348 2.9831 -4.0255 3.2230 -3.0450L3.2230 -3.0450C2.9182 -3.9246 1.8136 -4.6339 0.8870 -4.5450z"/>
</g>
</a>
<a style="color:inherit;" xlink:href="textedit:///Volumes/sandisk/local/junk/2025/2025-01-09/ninth-313.ly:14:35:36">
<g transform="translate(63.7045, 16.8748)">
<path transform="scale(0.0040, -0.0040)" d="M213 112c-45 0 -69 -34 -69 -88c0 -102 89 -136 134 -136s69 34 69 88c0 102 -89 136 -134 136zM245 136c144 0 246 -65 246 -136s-102 -136 -246 -136s-245 65 -245 136s101 136 245 136z" fill="currentColor"/>
</g>
</a>
<g transform="translate(0.8000, 19.3748)">
<path transform="scale(0.0040, -0.0040)" d="M557 -125c0 28 23 51 51 51s51 -23 51 -51s-23 -51 -51 -51s-51 23 -51 51zM557 125c0 28 23 51 51 51s51 -23 51 -51s-23 -51 -51 -51s-51 23 -51 51zM232 263c172 0 293 -88 293 -251c0 -263 -263 -414 -516 -521c-3 -3 -6 -4 -9 -4c-7 0 -13 6 -13 13c0 3 1 6 4 9
c202 118 412 265 412 493c0 120 -63 235 -171 235c-74 0 -129 -54 -154 -126c11 5 22 8 34 8c55 0 100 -45 100 -100c0 -58 -44 -106 -100 -106c-60 0 -112 47 -112 106c0 133 102 244 232 244z" fill="currentColor"/>
</g>
<a style="color:inherit;" xlink:href="textedit:///Volumes/sandisk/local/junk/2025/2025-01-09/ninth-313.ly:22:33:34">
<g transform="translate(62.1930, 25.9229)">
<text font-family="serif" font-size="2.4697" text-anchor="start" fill="currentColor">
<tspan>Gott,</tspan>
</text>
</g>
</a>
<a style="color:inherit;" xlink:href="textedit:///Volumes/sandisk/local/junk/2025/2025-01-09/ninth-313.ly:14:40:41">
<g transform="translate(69.2610, 19.8748)">
<path transform="scale(0.0040, -0.0040)" d="M314 65c0 23 -19 41 -42 41c-39 0 -204 -110 -231 -143c-7 -8 -10 -18 -10 -28c0 -23 19 -41 42 -41c39 0 203 110 230 143c7 8 11 18 11 28zM262 136c41 0 82 -14 82 -71c0 -26 -16 -112 -74 -151c-25 -17 -87 -50 -187 -50c-41 0 -83 14 -83 71c0 26 16 112 74 151
c25 17 88 50 188 50z" fill="currentColor"/>
</g>
</a>
<a style="color:inherit;" xlink:href="textedit:///Volumes/sandisk/local/junk/2025/2025-01-09/ninth-313.ly:23:4:5">
<g transform="translate(67.6280, 25.9229)">
<text font-family="serif" font-size="2.4697" text-anchor="start" fill="currentColor">
<tspan>steht</tspan>
</text>
</g>
</a>
<g transform="translate(69.3260, 20.3748)">
<rect x="-0.0650" y="-0.2410" width="0.1300" height="3.2410" ry="0.0400" fill="currentColor"/>
</g>
<a style="color:inherit;" xlink:href="textedit:///Volumes/sandisk/local/junk/2025/2025-01-09/ninth-313.ly:14:44:45">
<g transform="translate(73.6717, 19.8748)">
<path transform="scale(0.0040, -0.0040)" d="M314 65c0 23 -19 41 -42 41c-39 0 -204 -110 -231 -143c-7 -8 -10 -18 -10 -28c0 -23 19 -41 42 -41c39 0 203 110 230 143c7 8 11 18 11 28zM262 136c41 0 82 -14 82 -71c0 -26 -16 -112 -74 -151c-25 -17 -87 -50 -187 -50c-41 0 -83 14 -83 71c0 26 16 112 74 151
c25 17 88 50 188 50z" fill="currentColor"/>
</g>
</a>
<a style="color:inherit;" xlink:href="textedit:///Volumes/sandisk/local/junk/2025/2025-01-09/ninth-313.ly:23:10:11">
<g transform="translate(72.7214, 25.9229)">
<text font-family="serif" font-size="2.4697" text-anchor="start" fill="currentColor">
<tspan>vor</tspan>
</text>
</g>
</a>
<g transform="translate(73.7367, 20.3748)">
<rect x="-0.0650" y="-0.2410" width="0.1300" height="3.2410" ry="0.0400" fill="currentColor"/>
</g>
<a style="color:inherit;" xlink:href="textedit:///Volumes/sandisk/local/junk/2025/2025-01-09/ninth-313.ly:14:48:49">
<g transform="translate(77.9607, 18.3748)">
<path transform="scale(0.0040, -0.0040)" d="M213 112c-45 0 -69 -34 -69 -88c0 -102 89 -136 134 -136s69 34 69 88c0 102 -89 136 -134 136zM245 136c144 0 246 -65 246 -136s-102 -136 -246 -136s-245 65 -245 136s101 136 245 136z" fill="currentColor"/>
</g>
</a>
<a style="color:inherit;" xlink:href="textedit:///Volumes/sandisk/local/junk/2025/2025-01-09/ninth-313.ly:14:50:51">
<g transform="translate(77.7467, 16.5378)">
<g>
<path transform="scale(0.0040, -0.0040)" d="M253 245l-50 -163c-30 -99 -121 -255 -218 -255c-45 0 -87 27 -87 69c0 39 17 77 52 77c24 0 44 -20 44 -44c0 -30 -38 -24 -38 -54c0 -10 11 -11 23 -11h6c48 0 61 58 73 108l68 273h-49c-11 0 -19 8 -19 19s8 19 19 19h60c32 96 118 191 213 191c45 0 87 -27 87 -69
c0 -39 -17 -77 -52 -77c-24 0 -44 19 -44 43c0 30 38 25 38 55c0 10 -10 11 -22 11h-7c-62 0 -70 -88 -86 -154h55c11 0 19 -8 19 -19s-8 -19 -19 -19h-66z" fill="currentColor"/>

<path transform="translate(1.1267, 0.0000) scale(0.0040, -0.0040)" d="M253 245l-50 -163c-30 -99 -121 -255 -218 -255c-45 0 -87 27 -87 69c0 39 17 77 52 77c24 0 44 -20 44 -44c0 -30 -38 -24 -38 -54c0 -10 11 -11 23 -11h6c48 0 61 58 73 108l68 273h-49c-11 0 -19 8 -19 19s8 19 19 19h60c32 96 118 191 213 191c45 0 87 -27 87 -69
c0 -39 -17 -77 -52 -77c-24 0 -44 19 -44 43c0 30 38 25 38 55c0 10 -10 11 -22 11h-7c-62 0 -70 -88 -86 -154h55c11 0 19 -8 19 -19s-8 -19 -19 -19h-66z" fill="currentColor"/>
</g>
</g>
</a>
<a style="color:inherit;" xlink:href="textedit:///Volumes/sandisk/local/junk/2025/2025-01-09/ninth-313.ly:23:14:15">
<g transform="translate(76.4492, 25.9229)">
<text font-family="serif" font-size="2.4697" text-anchor="start" fill="currentColor">
<tspan>Gott,</tspan>
</text>
</g>
</a>
<a style="color:inherit;" xlink:href="textedit:///Volumes/sandisk/local/junk/2025/2025-01-09/ninth-313.ly:15:4:5">
<g transform="translate(83.0509, 20.3748)">
<path transform="scale(0.0040, -0.0040)" d="M365 0h-355c-6 0 -10 4 -10 10v136c0 6 4 10 10 10h355c6 0 10 -4 10 -10v-136c0 -6 -4 -10 -10 -10z" fill="currentColor"/>
</g>
</a>
<a style="color:inherit;" xlink:href="textedit:///Volumes/sandisk/local/junk/2025/2025-01-09/ninth-313.ly:15:7:8">
<g transform="translate(86.1218, 19.8748)">
<path transform="scale(0.0040, -0.0040)" d="M314 65c0 23 -19 41 -42 41c-39 0 -204 -110 -231 -143c-7 -8 -10 -18 -10 -28c0 -23 19 -41 42 -41c39 0 203 110 230 143c7 8 11 18 11 28zM262 136c41 0 82 -14 82 -71c0 -26 -16 -112 -74 -151c-25 -17 -87 -50 -187 -50c-41 0 -83 14 -83 71c0 26 16 112 74 151
c25 17 88 50 188 50z" fill="currentColor"/>
</g>
</a>
<a style="color:inherit;" xlink:href="textedit:///Volumes/sandisk/local/junk/2025/2025-01-09/ninth-313.ly:23:20:21">
<g transform="translate(85.1716, 25.9229)">
<text font-family="serif" font-size="2.4697" text-anchor="start" fill="currentColor">
<tspan>vor</tspan>
</text>
</g>
</a>
<g transform="translate(86.1868, 20.3748)">
<rect x="-0.0650" y="-0.2410" width="0.1300" height="3.2410" ry="0.0400" fill="currentColor"/>
</g>
<a style="color:inherit;" xlink:href="textedit:///Volumes/sandisk/local/junk/2025/2025-01-09/ninth-313.ly:15:11:12">
<g transform="translate(90.4108, 18.3748)">
<path transform="scale(0.0040, -0.0040)" d="M213 112c-45 0 -69 -34 -69 -88c0 -102 89 -136 134 -136s69 34 69 88c0 102 -89 136 -134 136zM245 136c144 0 246 -65 246 -136s-102 -136 -246 -136s-245 65 -245 136s101 136 245 136z" fill="currentColor"/>
</g>
</a>
<a style="color:inherit;" xlink:href="textedit:///Volumes/sandisk/local/junk/2025/2025-01-09/ninth-313.ly:15:13:14">
<g transform="translate(90.1968, 16.5378)">
<g>
<path transform="scale(0.0040, -0.0040)" d="M253 245l-50 -163c-30 -99 -121 -255 -218 -255c-45 0 -87 27 -87 69c0 39 17 77 52 77c24 0 44 -20 44 -44c0 -30 -38 -24 -38 -54c0 -10 11 -11 23 -11h6c48 0 61 58 73 108l68 273h-49c-11 0 -19 8 -19 19s8 19 19 19h60c32 96 118 191 213 191c45 0 87 -27 87 -69
c0 -39 -17 -77 -52 -77c-24 0 -44 19 -44 43c0 30 38 25 38 55c0 10 -10 11 -22 11h-7c-62 0 -70 -88 -86 -154h55c11 0 19 -8 19 -19s-8 -19 -19 -19h-66z" fill="currentColor"/>

<path transform="translate(1.1267, 0.0000) scale(0.0040, -0.0040)" d="M253 245l-50 -163c-30 -99 -121 -255 -218 -255c-45 0 -87 27 -87 69c0 39 17 77 52 77c24 0 44 -20 44 -44c0 -30 -38 -24 -38 -54c0 -10 11 -11 23 -11h6c48 0 61 58 73 108l68 273h-49c-11 0 -19 8 -19 19s8 19 19 19h60c32 96 118 191 213 191c45 0 87 -27 87 -69
c0 -39 -17 -77 -52 -77c-24 0 -44 19 -44 43c0 30 38 25 38 55c0 10 -10 11 -22 11h-7c-62 0 -70 -88 -86 -154h55c11 0 19 -8 19 -19s-8 -19 -19 -19h-66z" fill="currentColor"/>
</g>
</g>
</a>
<a style="color:inherit;" xlink:href="textedit:///Volumes/sandisk/local/junk/2025/2025-01-09/ninth-313.ly:23:24:25">
<g transform="translate(88.8994, 25.9229)">
<text font-family="serif" font-size="2.4697" text-anchor="start" fill="currentColor">
<tspan>Gott,</tspan>
</text>
</g>
</a>
<a style="color:inherit;" xlink:href="textedit:///Volumes/sandisk/local/junk/2025/2025-01-09/ninth-313.ly:15:20:21">
<g transform="translate(95.5011, 20.3748)">
<path transform="scale(0.0040, -0.0040)" d="M365 0h-355c-6 0 -10 4 -10 10v136c0 6 4 10 10 10h355c6 0 10 -4 10 -10v-136c0 -6 -4 -10 -10 -10z" fill="currentColor"/>
</g>
</a>
<a style="color:inherit;" xlink:href="textedit:///Volumes/sandisk/local/junk/2025/2025-01-09/ninth-313.ly:15:23:24">
<g transform="translate(98.5720, 18.3748)">
<path transform="scale(0.0040, -0.0040)" d="M314 65c0 23 -19 41 -42 41c-39 0 -204 -110 -231 -143c-7 -8 -10 -18 -10 -28c0 -23 19 -41 42 -41c39 0 203 110 230 143c7 8 11 18 11 28zM262 136c41 0 82 -14 82 -71c0 -26 -16 -112 -74 -151c-25 -17 -87 -50 -187 -50c-41 0 -83 14 -83 71c0 26 16 112 74 151
c25 17 88 50 188 50z" fill="currentColor"/>
</g>
</a>
<a style="color:inherit;" xlink:href="textedit:///Volumes/sandisk/local/junk/2025/2025-01-09/ninth-313.ly:23:30:31">
<g transform="translate(97.6218, 25.9229)">
<text font-family="serif" font-size="2.4697" text-anchor="start" fill="currentColor">
<tspan>vor</tspan>
</text>
</g>
</a>
<g transform="translate(98.6370, 20.3748)">
<rect x="-0.0650" y="-1.7410" width="0.1300" height="3.2410" ry="0.0400" fill="currentColor"/>
</g>
<a style="color:inherit;" xlink:href="textedit:///Volumes/sandisk/local/junk/2025/2025-01-09/ninth-313.ly:15:27:28">
<g transform="translate(103.2571, 19.3748)">
<path transform="scale(0.0040, -0.0040)" d="M213 112c-45 0 -69 -34 -69 -88c0 -102 89 -136 134 -136s69 34 69 88c0 102 -89 136 -134 136zM245 136c144 0 246 -65 246 -136s-102 -136 -246 -136s-245 65 -245 136s101 136 245 136z" fill="currentColor"/>
</g>
</a>
<a style="color:inherit;" xlink:href="textedit:///Volumes/sandisk/local/junk/2025/2025-01-09/ninth-313.ly:15:29:30">
<g transform="translate(103.0431, 15.2634)">
<g>
<path transform="scale(0.0040, -0.0040)" d="M253 245l-50 -163c-30 -99 -121 -255 -218 -255c-45 0 -87 27 -87 69c0 39 17 77 52 77c24 0 44 -20 44 -44c0 -30 -38 -24 -38 -54c0 -10 11 -11 23 -11h6c48 0 61 58 73 108l68 273h-49c-11 0 -19 8 -19 19s8 19 19 19h60c32 96 118 191 213 191c45 0 87 -27 87 -69
c0 -39 -17 -77 -52 -77c-24 0 -44 19 -44 43c0 30 38 25 38 55c0 10 -10 11 -22 11h-7c-62 0 -70 -88 -86 -154h55c11 0 19 -8 19 -19s-8 -19 -19 -19h-66z" fill="currentColor"/>

<path transform="translate(1.1267, 0.0000) scale(0.0040, -0.0040)" d="M253 245l-50 -163c-30 -99 -121 -255 -218 -255c-45 0 -87 27 -87 69c0 39 17 77 52 77c24 0 44 -20 44 -44c0 -30 -38 -24 -38 -54c0 -10 11 -11 23 -11h6c48 0 61 58 73 108l68 273h-49c-11 0 -19 8 -19 19s8 19 19 19h60c32 96 118 191 213 191c45 0 87 -27 87 -69
c0 -39 -17 -77 -52 -77c-24 0 -44 19 -44 43c0 30 38 25 38 55c0 10 -10 11 -22 11h-7c-62 0 -70 -88 -86 -154h55c11 0 19 -8 19 -19s-8 -19 -19 -19h-66z" fill="currentColor"/>
</g>
</g>
</a>
<a style="color:inherit;" xlink:href="textedit:///Volumes/sandisk/local/junk/2025/2025-01-09/ninth-313.ly:15:33:34">
<g transform="translate(104.2381, 17.8488)">
<path transform="scale(0.0040, -0.0040)" d="M-67 48c0 37 30 67 67 67s67 -30 67 -67s-30 -67 -67 -67s-67 30 -67 67zM0 363c255 0 332 -331 332 -366c0 -9 -10 -15 -19 -15s-17 5 -19 18c-26 148 -146 262 -294 262s-268 -114 -294 -262c-2 -13 -10 -18 -19 -18s-19 6 -19 15c0 35 77 366 332 366z" fill="currentColor"/>
</g>
</a>
<a style="color:inherit;" xlink:href="textedit:///Volumes/sandisk/local/junk/2025/2025-01-09/ninth-313.ly:23:34:35">
<g transform="translate(101.7456, 25.9229)">
<text font-family="serif" font-size="2.4697" text-anchor="start" fill="currentColor">
<tspan>Gott.</tspan>
</text>
</g>
</a>
<g transform="translate(102.2228, 19.3748)">
<path transform="scale(0.0040, -0.0040)" d="M-7 375c8 4 17 7 25 7s16 -3 24 -7l-2 -183l106 20h3c10 0 18 -7 18 -17l7 -570c-8 -4 -17 -7 -25 -7s-16 3 -24 7l2 183l-106 -20h-3c-10 0 -18 7 -18 17zM131 112l-92 -17l-3 -207l92 17z" fill="currentColor"/>
</g>
</svg>
