<svg version="1.1"
     baseProfile="full"
     xmlns="http://www.w3.org/2000/svg"
     xmlns:xlink="http://www.w3.org/1999/xlink"
     xmlns:ev="http://www.w3.org/2001/xml-events"
     width="505.89" height="289.08"
     viewBox="0,0,505.89,289.08"
     font-family="Arial, Helvetica, sans-serif"
     onload='Init(evt)'
>
<title>R SVG Plot</title>
<desc>R SVG Plot with tooltips! (mode=1)</desc>
<script type="text/ecmascript"><![CDATA[
    var SVGDocument = null;
    var SVGRoot = null;
    var SVGViewBox = null;
    var svgns = 'http://www.w3.org/2000/svg';
    var xlinkns = 'http://www.w3.org/1999/xlink';
    var toolTip = null;
    var TrueCoords = null;
    var tipBox = null;
    var tipText = null;
    var tipTitle = null;
    var tipDesc = null;

    var lastElement = null;
    var titleText = '';
    var titleDesc = '';


    function Init(evt)
    {
       SVGDocument = evt.target.ownerDocument;
       SVGRoot = SVGDocument.documentElement;
       TrueCoords = SVGRoot.createSVGPoint();

       toolTip = SVGDocument.getElementById('ToolTip');
       tipBox = SVGDocument.getElementById('tipbox');
       tipText = SVGDocument.getElementById('tipText');
       tipText.setAttributeNS(null, 'font-family', 'Arial, sans-serif' );
       tipTitle = SVGDocument.getElementById('tipTitle');
       tipDesc = SVGDocument.getElementById('tipDesc');
       //window.status = (TrueCoords);

       //create event for object
       SVGRoot.addEventListener('mousemove', ShowTooltip, false);
       SVGRoot.addEventListener('mouseout', HideTooltip, false);
    };


    function GetTrueCoords(evt)
    {
       // find the current zoom level and pan setting, and adjust the reported
       //    mouse position accordingly
       var newScale = SVGRoot.currentScale;
       var translation = SVGRoot.currentTranslate;
       TrueCoords.x = (evt.clientX - translation.x)/newScale;
       TrueCoords.y = (evt.clientY - translation.y)/newScale;
    };


    function HideTooltip( evt )
    {
       toolTip.setAttributeNS(null, 'visibility', 'hidden');
    };


    function ShowTooltip( evt )
    {
       GetTrueCoords( evt );

       var tipScale = 1/SVGRoot.currentScale;
       var textWidth = 0;
       var tspanWidth = 0;
       var boxHeight = 20;

       tipBox.setAttributeNS(null, 'transform', 'scale(' + tipScale + ',' + tipScale + ')' );
       tipText.setAttributeNS(null, 'transform', 'scale(' + tipScale + ',' + tipScale + ')' );

       var titleValue = '';
       var descValue = '';
       var targetElement = evt.target;
       if ( lastElement != targetElement )
       {
          var targetTitle = targetElement.getElementsByTagNameNS(svgns, 'title').item(0);
          if ( targetTitle )
          {
             // if there is a 'title' element, use its contents for the tooltip title
             titleValue = targetTitle.firstChild.nodeValue;
          }

          var targetDesc = targetElement.getElementsByTagNameNS(svgns, 'desc').item(0);
          if ( targetDesc )
          {
             // if there is a 'desc' element, use its contents for the tooltip desc
             descValue = targetDesc.firstChild.nodeValue;

             if ( '' == titleValue )
             {
                // if there is no 'title' element, use the contents of the 'desc' element for the tooltip title instead
                titleValue = descValue;
                descValue = '';
             }
          }

          // if there is still no 'title' element, use the contents of the 'id' attribute for the tooltip title
          if ( '' == titleValue )
          {
             titleValue = targetElement.getAttributeNS(null, 'id');
          }

          // selectively assign the tooltip title and desc the proper values,
          //   and hide those which don't have text values
          //
          var titleDisplay = 'none';
          if ( '' != titleValue )
          {
             tipTitle.firstChild.nodeValue = titleValue;
             titleDisplay = 'inline';
          }
          tipTitle.setAttributeNS(null, 'display', titleDisplay );


          var descDisplay = 'none';
          if ( '' != descValue )
          {
             tipDesc.firstChild.nodeValue = descValue;
             descDisplay = 'inline';
          }
          tipDesc.setAttributeNS(null, 'display', descDisplay );
       }

       // if there are tooltip contents to be displayed, adjust the size and position of the box
       if ( '' != titleValue )
       {
          var xPos = TrueCoords.x + (10 * tipScale);
          var yPos = TrueCoords.y + (10 * tipScale);

          //return rectangle around text as SVGRect object
          var outline = tipText.getBBox();
          tipBox.setAttributeNS(null, 'width', Number(outline.width) + 10);
          tipBox.setAttributeNS(null, 'height', Number(outline.height) + 10);

          // update position
          toolTip.setAttributeNS(null, 'transform', 'translate(' + xPos + ',' + yPos + ')');
          toolTip.setAttributeNS(null, 'visibility', 'visible');
       }
    };

   ]]></script>
<rect width="100%" height="100%" style="fill:#FFFFFF"/>
<polyline points="60.67 , 226.81 64.73 , 226.43 68.79 , 225.98 72.85 , 225.46 76.91 , 224.85 80.98 , 224.15 85.04 , 223.35 89.10 , 222.43 93.16 , 221.37 97.23 , 220.18 101.29 , 218.83 105.35 , 217.31 109.41 , 215.60 113.47 , 213.70 117.54 , 211.58 121.60 , 209.23 125.66 , 206.65 129.72 , 203.81 133.79 , 200.71 137.85 , 197.34 141.91 , 193.69 145.97 , 189.75 150.04 , 185.54 154.10 , 181.04 158.16 , 176.26 162.22 , 171.21 166.28 , 165.90 170.35 , 160.35 174.41 , 154.57 178.47 , 148.60 182.53 , 142.46 186.60 , 136.18 190.66 , 129.80 194.72 , 123.37 198.78 , 116.91 202.84 , 110.49 206.91 , 104.16 210.97 , 97.95 215.03 , 91.93 219.09 , 86.14 223.16 , 80.65 227.22 , 75.49 231.28 , 70.73 235.34 , 66.40 239.40 , 62.56 243.47 , 59.24 247.53 , 56.47 251.59 , 54.28 255.65 , 52.70 259.72 , 51.75 263.78 , 51.43 267.84 , 51.75 271.90 , 52.70 275.97 , 54.28 280.03 , 56.47 284.09 , 59.24 288.15 , 62.56 292.21 , 66.40 296.28 , 70.73 300.34 , 75.49 304.40 , 80.65 308.46 , 86.14 312.53 , 91.93 316.59 , 97.95 320.65 , 104.16 324.71 , 110.49 328.77 , 116.91 332.84 , 123.37 336.90 , 129.80 340.96 , 136.18 345.02 , 142.46 349.09 , 148.60 353.15 , 154.57 357.21 , 160.35 361.27 , 165.90 365.33 , 171.21 369.40 , 176.26 373.46 , 181.04 377.52 , 185.54 381.58 , 189.75 385.65 , 193.69 389.71 , 197.34 393.77 , 200.71 397.83 , 203.81 401.89 , 206.65 405.96 , 209.23 410.02 , 211.58 414.08 , 213.70 418.14 , 215.60 422.21 , 217.31 426.27 , 218.83 430.33 , 220.18 434.39 , 221.37 438.46 , 222.43 442.52 , 223.35 446.58 , 224.15 450.64 , 224.85 454.70 , 225.46 458.77 , 225.98 462.83 , 226.43 466.89 , 226.81 " stroke-width="1px" stroke="#000000" fill="#000000" stroke-opacity="1.000000" fill-opacity="0.000000"/>
<line x1="60.67" y1="233.83" x2="466.89" y2="233.83" stroke-width="1px" stroke="#000000" fill="#000000" stroke-opacity="1.000000" fill-opacity="0.000000"/>
<line x1="60.67" y1="233.83" x2="60.67" y2="239.25" stroke-width="1px" stroke="#000000" fill="#000000" stroke-opacity="1.000000" fill-opacity="0.000000"/>
<line x1="128.37" y1="233.83" x2="128.37" y2="239.25" stroke-width="1px" stroke="#000000" fill="#000000" stroke-opacity="1.000000" fill-opacity="0.000000"/>
<line x1="196.07" y1="233.83" x2="196.07" y2="239.25" stroke-width="1px" stroke="#000000" fill="#000000" stroke-opacity="1.000000" fill-opacity="0.000000"/>
<line x1="263.78" y1="233.83" x2="263.78" y2="239.25" stroke-width="1px" stroke="#000000" fill="#000000" stroke-opacity="1.000000" fill-opacity="0.000000"/>
<line x1="331.48" y1="233.83" x2="331.48" y2="239.25" stroke-width="1px" stroke="#000000" fill="#000000" stroke-opacity="1.000000" fill-opacity="0.000000"/>
<line x1="399.19" y1="233.83" x2="399.19" y2="239.25" stroke-width="1px" stroke="#000000" fill="#000000" stroke-opacity="1.000000" fill-opacity="0.000000"/>
<line x1="466.89" y1="233.83" x2="466.89" y2="239.25" stroke-width="1px" stroke="#000000" fill="#000000" stroke-opacity="1.000000" fill-opacity="0.000000"/>
<text transform="translate(55.04,253.33) " fill="#000000"  style="font-size:10pt" >-3</text>
<text transform="translate(122.74,253.33) " fill="#000000"  style="font-size:10pt" >-2</text>
<text transform="translate(190.45,253.33) " fill="#000000"  style="font-size:10pt" >-1</text>
<text transform="translate(260.25,253.33) " fill="#000000"  style="font-size:10pt" >0</text>
<text transform="translate(327.95,253.33) " fill="#000000"  style="font-size:10pt" >1</text>
<text transform="translate(395.66,253.33) " fill="#000000"  style="font-size:10pt" >2</text>
<text transform="translate(463.36,253.33) " fill="#000000"  style="font-size:10pt" >3</text>
<line x1="44.42" y1="228.78" x2="44.42" y2="50.96" stroke-width="1px" stroke="#000000" fill="#000000" stroke-opacity="1.000000" fill-opacity="0.000000"/>
<line x1="44.42" y1="228.78" x2="39.00" y2="228.78" stroke-width="1px" stroke="#000000" fill="#000000" stroke-opacity="1.000000" fill-opacity="0.000000"/>
<line x1="44.42" y1="184.33" x2="39.00" y2="184.33" stroke-width="1px" stroke="#000000" fill="#000000" stroke-opacity="1.000000" fill-opacity="0.000000"/>
<line x1="44.42" y1="139.87" x2="39.00" y2="139.87" stroke-width="1px" stroke="#000000" fill="#000000" stroke-opacity="1.000000" fill-opacity="0.000000"/>
<line x1="44.42" y1="95.42" x2="39.00" y2="95.42" stroke-width="1px" stroke="#000000" fill="#000000" stroke-opacity="1.000000" fill-opacity="0.000000"/>
<line x1="44.42" y1="50.96" x2="39.00" y2="50.96" stroke-width="1px" stroke="#000000" fill="#000000" stroke-opacity="1.000000" fill-opacity="0.000000"/>
<text transform="translate(35.75,237.94)  rotate(-90)" fill="#000000"  style="font-size:10pt" >0.0</text>
<text transform="translate(35.75,193.49)  rotate(-90)" fill="#000000"  style="font-size:10pt" >0.1</text>
<text transform="translate(35.75,149.03)  rotate(-90)" fill="#000000"  style="font-size:10pt" >0.2</text>
<text transform="translate(35.75,104.57)  rotate(-90)" fill="#000000"  style="font-size:10pt" >0.3</text>
<text transform="translate(35.75,60.12)  rotate(-90)" fill="#000000"  style="font-size:10pt" >0.4</text>
<polyline points="44.42 , 233.83 483.14 , 233.83 483.14 , 44.42 44.42 , 44.42 44.42 , 233.83 " stroke-width="1px" stroke="#000000" fill="#000000" stroke-opacity="1.000000" fill-opacity="0.000000"/>
<text transform="translate(215.29,28.71) " fill="#000000"  style="font-size:12pt" >正規分布</text>
<text transform="translate(260.25,266.33) " fill="#000000"  style="font-size:10pt" >x</text>
<text transform="translate(22.75,165.00)  rotate(-90)" fill="#000000"  style="font-size:10pt" >dnorm(x)</text>
<g id='ToolTip' opacity='1' visibility='hidden' pointer-events='none'>
   <rect id='tipbox' x='0' y='5' width='88' height='20' rx='2' ry='2' fill='white' stroke='black'/>
   <text id='tipText' x='5' y='20' font-family='Arial' font-size='10pt' fill='blue'>
      <tspan id='tipTitle' x='5' font-weight='bold' fill='black'><![CDATA[]]></tspan>
      <tspan id='tipDesc' x='5' dy='13'><![CDATA[]]></tspan>
   </text>
</g>
</svg>
