<?xml version="1.0" encoding="utf-8" standalone="no"?>
<!DOCTYPE svg PUBLIC "-//W3C//DTD SVG 1.1//EN"
  "http://www.w3.org/Graphics/SVG/1.1/DTD/svg11.dtd">
<!-- Created with matplotlib (https://matplotlib.org/) -->
<svg height="296.902625pt" version="1.1" viewBox="0 0 395.298 296.902625" width="395.298pt" xmlns="http://www.w3.org/2000/svg" xmlns:xlink="http://www.w3.org/1999/xlink">
 <defs>
  <style type="text/css">
*{stroke-linecap:butt;stroke-linejoin:round;}
  </style>
 </defs>
 <g id="figure_1">
  <g id="patch_1">
   <path d="M 0 296.902625 
L 395.298 296.902625 
L 395.298 0 
L 0 0 
z
" style="fill:#ffffff;"/>
  </g>
  <g id="axes_1">
   <g id="patch_2">
    <path d="M 26.796875 273.312 
L 383.916875 273.312 
L 383.916875 7.2 
L 26.796875 7.2 
z
" style="fill:#ffffff;"/>
   </g>
   <g id="matplotlib.axis_1">
    <g id="xtick_1">
     <g id="line2d_1">
      <defs>
       <path d="M 0 0 
L 0 3.5 
" id="m6b608a36b1" style="stroke:#000000;stroke-width:0.8;"/>
      </defs>
      <g>
       <use style="stroke:#000000;stroke-width:0.8;" x="28.914187" xlink:href="#m6b608a36b1" y="273.312"/>
      </g>
     </g>
     <g id="text_1">
      <!-- 0 -->
      <defs>
       <path d="M 31.84375 73.828125 
Q 45.015625 73.828125 52.09375 61.625 
Q 57.71875 51.953125 57.71875 36.625 
Q 57.71875 21.4375 52.09375 11.578125 
Q 45.125 -0.484375 31.5 -0.484375 
Q 17.921875 -0.484375 10.9375 11.578125 
Q 5.328125 21.4375 5.328125 36.71875 
Q 5.328125 58.015625 15.625 67.71875 
Q 22.171875 73.828125 31.84375 73.828125 
z
M 31.5 66.65625 
Q 23.6875 66.65625 19.1875 58.734375 
Q 14.59375 50.734375 14.59375 36.625 
Q 14.59375 22.75 19.09375 14.796875 
Q 23.640625 6.984375 31.5 6.984375 
Q 40.921875 6.984375 45.453125 18.015625 
Q 48.4375 25.34375 48.4375 37.109375 
Q 48.4375 50.875 43.84375 58.734375 
Q 39.203125 66.65625 31.5 66.65625 
z
" id="IPAexGothic-48"/>
      </defs>
      <g transform="translate(25.764969 287.802625)scale(0.1 -0.1)">
       <use xlink:href="#IPAexGothic-48"/>
      </g>
     </g>
    </g>
    <g id="xtick_2">
     <g id="line2d_2">
      <g>
       <use style="stroke:#000000;stroke-width:0.8;" x="99.491262" xlink:href="#m6b608a36b1" y="273.312"/>
      </g>
     </g>
     <g id="text_2">
      <!-- 5 -->
      <defs>
       <path d="M 18.40625 40.671875 
Q 25.53125 46.296875 33.9375 46.296875 
Q 44 46.296875 50.640625 39.5 
Q 56.84375 33.015625 56.84375 23.390625 
Q 56.84375 14.65625 51.515625 8.015625 
Q 44.828125 -0.484375 31.734375 -0.484375 
Q 14.984375 -0.484375 7.328125 12.25 
L 14.65625 16.0625 
Q 20.453125 6.78125 31.453125 6.78125 
Q 38.53125 6.78125 43.265625 11.1875 
Q 48.140625 15.828125 48.140625 23.484375 
Q 48.140625 30.71875 43.84375 35.015625 
Q 39.359375 39.5 32.125 39.5 
Q 21.96875 39.5 16.75 31.6875 
L 9.234375 32.671875 
L 13.8125 72.40625 
L 53.21875 72.40625 
L 53.21875 64.890625 
L 20.953125 64.890625 
L 17.71875 40.671875 
z
" id="IPAexGothic-53"/>
      </defs>
      <g transform="translate(96.342044 287.802625)scale(0.1 -0.1)">
       <use xlink:href="#IPAexGothic-53"/>
      </g>
     </g>
    </g>
    <g id="xtick_3">
     <g id="line2d_3">
      <g>
       <use style="stroke:#000000;stroke-width:0.8;" x="170.068337" xlink:href="#m6b608a36b1" y="273.312"/>
      </g>
     </g>
     <g id="text_3">
      <!-- 10 -->
      <defs>
       <path d="M 38.484375 0.984375 
L 29.6875 0.984375 
L 29.6875 64.109375 
Q 21.4375 61.28125 12.3125 59.328125 
L 10.6875 66.109375 
Q 23.734375 69.390625 32.90625 73.921875 
L 38.484375 73.921875 
z
" id="IPAexGothic-49"/>
      </defs>
      <g transform="translate(163.7699 287.802625)scale(0.1 -0.1)">
       <use xlink:href="#IPAexGothic-49"/>
       <use x="62.988281" xlink:href="#IPAexGothic-48"/>
      </g>
     </g>
    </g>
    <g id="xtick_4">
     <g id="line2d_4">
      <g>
       <use style="stroke:#000000;stroke-width:0.8;" x="240.645413" xlink:href="#m6b608a36b1" y="273.312"/>
      </g>
     </g>
     <g id="text_4">
      <!-- 15 -->
      <g transform="translate(234.346975 287.802625)scale(0.1 -0.1)">
       <use xlink:href="#IPAexGothic-49"/>
       <use x="62.988281" xlink:href="#IPAexGothic-53"/>
      </g>
     </g>
    </g>
    <g id="xtick_5">
     <g id="line2d_5">
      <g>
       <use style="stroke:#000000;stroke-width:0.8;" x="311.222488" xlink:href="#m6b608a36b1" y="273.312"/>
      </g>
     </g>
     <g id="text_5">
      <!-- 20 -->
      <defs>
       <path d="M 57.171875 0.984375 
L 6.984375 0.984375 
L 6.984375 9.28125 
Q 12.890625 23.046875 29.59375 34.421875 
L 32.375 36.28125 
Q 40.921875 42.140625 43.609375 45.40625 
Q 46.6875 49.265625 46.6875 53.8125 
Q 46.6875 58.9375 43.0625 62.546875 
Q 39.0625 66.546875 32.5625 66.546875 
Q 19.53125 66.546875 15.484375 52 
L 7.765625 54.78125 
Q 13.328125 73.828125 33.0625 73.828125 
Q 43.84375 73.828125 50.25 67.4375 
Q 55.859375 61.671875 55.859375 53.515625 
Q 55.859375 47.46875 52.25 42.53125 
Q 48.921875 37.75 36.96875 30.28125 
L 34.859375 29 
Q 19.625 19.578125 15.28125 8.890625 
L 57.171875 8.890625 
z
" id="IPAexGothic-50"/>
      </defs>
      <g transform="translate(304.92405 287.802625)scale(0.1 -0.1)">
       <use xlink:href="#IPAexGothic-50"/>
       <use x="62.988281" xlink:href="#IPAexGothic-48"/>
      </g>
     </g>
    </g>
    <g id="xtick_6">
     <g id="line2d_6">
      <g>
       <use style="stroke:#000000;stroke-width:0.8;" x="381.799563" xlink:href="#m6b608a36b1" y="273.312"/>
      </g>
     </g>
     <g id="text_6">
      <!-- 25 -->
      <g transform="translate(375.501125 287.802625)scale(0.1 -0.1)">
       <use xlink:href="#IPAexGothic-50"/>
       <use x="62.988281" xlink:href="#IPAexGothic-53"/>
      </g>
     </g>
    </g>
   </g>
   <g id="matplotlib.axis_2">
    <g id="ytick_1">
     <g id="line2d_7">
      <defs>
       <path d="M 0 0 
L -3.5 0 
" id="m89c7507339" style="stroke:#000000;stroke-width:0.8;"/>
      </defs>
      <g>
       <use style="stroke:#000000;stroke-width:0.8;" x="26.796875" xlink:href="#m89c7507339" y="233.204211"/>
      </g>
     </g>
     <g id="text_7">
      <!-- 4 -->
      <defs>
       <path d="M 59.578125 18.109375 
L 47.796875 18.109375 
L 47.796875 0.984375 
L 39.796875 0.984375 
L 39.796875 18.109375 
L 3.078125 18.109375 
L 3.078125 26.125 
L 38.375 73.09375 
L 47.796875 73.09375 
L 47.796875 25.53125 
L 59.578125 25.53125 
z
M 40.28125 64.203125 
L 39.984375 64.203125 
Q 35.59375 57.125 31.296875 51.3125 
L 11.859375 25.53125 
L 39.796875 25.53125 
L 39.796875 49.125 
Q 39.796875 54.390625 40.28125 64.203125 
z
" id="IPAexGothic-52"/>
      </defs>
      <g transform="translate(13.498438 236.949523)scale(0.1 -0.1)">
       <use xlink:href="#IPAexGothic-52"/>
      </g>
     </g>
    </g>
    <g id="ytick_2">
     <g id="line2d_8">
      <g>
       <use style="stroke:#000000;stroke-width:0.8;" x="26.796875" xlink:href="#m89c7507339" y="182.273684"/>
      </g>
     </g>
     <g id="text_8">
      <!-- 6 -->
      <defs>
       <path d="M 16.5 36.375 
Q 23.578125 46.578125 34.90625 46.578125 
Q 45.40625 46.578125 51.8125 39.265625 
Q 57.421875 32.90625 57.421875 23.78125 
Q 57.421875 13.8125 51.125 6.78125 
Q 44.578125 -0.484375 34.03125 -0.484375 
Q 21.484375 -0.484375 14.40625 9.078125 
Q 7.515625 18.40625 7.515625 34.8125 
Q 7.515625 53.515625 15.828125 64.203125 
Q 23.34375 73.828125 35.5 73.828125 
Q 49.859375 73.828125 56.390625 62.890625 
L 49.21875 58.984375 
Q 45.21875 66.65625 35.9375 66.65625 
Q 17.484375 66.65625 16.109375 36.375 
z
M 33.453125 39.796875 
Q 26.3125 39.796875 21.625 34.46875 
Q 17.4375 29.6875 17.4375 24.078125 
Q 17.4375 18.0625 21.140625 13.1875 
Q 26.125 6.6875 33.734375 6.6875 
Q 41.703125 6.6875 45.953125 13.1875 
Q 48.828125 17.625 48.828125 23.484375 
Q 48.828125 30.375 45.015625 34.8125 
Q 40.625 39.796875 33.453125 39.796875 
z
" id="IPAexGothic-54"/>
      </defs>
      <g transform="translate(13.498438 186.018997)scale(0.1 -0.1)">
       <use xlink:href="#IPAexGothic-54"/>
      </g>
     </g>
    </g>
    <g id="ytick_3">
     <g id="line2d_9">
      <g>
       <use style="stroke:#000000;stroke-width:0.8;" x="26.796875" xlink:href="#m89c7507339" y="131.343158"/>
      </g>
     </g>
     <g id="text_9">
      <!-- 8 -->
      <defs>
       <path d="M 39.703125 37.890625 
Q 57.8125 31.734375 57.8125 18.703125 
Q 57.8125 8.453125 48.4375 3.078125 
Q 41.609375 -0.875 31.5 -0.875 
Q 21.34375 -0.875 14.5 3.078125 
Q 5.421875 8.296875 5.421875 18.40625 
Q 5.421875 31.0625 22.015625 37.203125 
L 22.015625 37.5 
Q 7.515625 42.71875 7.515625 54.828125 
Q 7.515625 64.0625 15.328125 69.625 
Q 21.96875 74.3125 31.546875 74.3125 
Q 42.234375 74.3125 48.921875 68.796875 
Q 55.515625 63.578125 55.515625 55.71875 
Q 55.515625 42.28125 39.703125 38.1875 
z
M 31.59375 41.015625 
Q 46.828125 44.625 46.828125 55.125 
Q 46.828125 61.1875 41.796875 64.84375 
Q 37.703125 67.921875 31.5 67.921875 
Q 25.09375 67.921875 20.796875 64.5 
Q 16.40625 60.890625 16.40625 55.03125 
Q 16.40625 49.21875 21.09375 45.703125 
Q 23.34375 43.890625 26.90625 42.53125 
Q 31 40.875 31.59375 41.015625 
z
M 30.90625 34.515625 
Q 14.40625 30.171875 14.40625 19 
Q 14.40625 12.109375 20.515625 8.6875 
Q 25.09375 6.109375 31.390625 6.109375 
Q 40.234375 6.109375 45.015625 10.890625 
Q 48.53125 14.40625 48.53125 19.53125 
Q 48.53125 24.90625 43.65625 28.90625 
Q 40.765625 31.15625 36.71875 32.8125 
Q 31.984375 34.71875 30.90625 34.515625 
z
" id="IPAexGothic-56"/>
      </defs>
      <g transform="translate(13.498438 135.08847)scale(0.1 -0.1)">
       <use xlink:href="#IPAexGothic-56"/>
      </g>
     </g>
    </g>
    <g id="ytick_4">
     <g id="line2d_10">
      <g>
       <use style="stroke:#000000;stroke-width:0.8;" x="26.796875" xlink:href="#m89c7507339" y="80.412632"/>
      </g>
     </g>
     <g id="text_10">
      <!-- 10 -->
      <g transform="translate(7.2 84.157944)scale(0.1 -0.1)">
       <use xlink:href="#IPAexGothic-49"/>
       <use x="62.988281" xlink:href="#IPAexGothic-48"/>
      </g>
     </g>
    </g>
    <g id="ytick_5">
     <g id="line2d_11">
      <g>
       <use style="stroke:#000000;stroke-width:0.8;" x="26.796875" xlink:href="#m89c7507339" y="29.482105"/>
      </g>
     </g>
     <g id="text_11">
      <!-- 12 -->
      <g transform="translate(7.2 33.227418)scale(0.1 -0.1)">
       <use xlink:href="#IPAexGothic-49"/>
       <use x="62.988281" xlink:href="#IPAexGothic-50"/>
      </g>
     </g>
    </g>
   </g>
   <g id="line2d_12">
    <path clip-path="url(#pf70eadd96a)" d="M 43.029602 164.448 
L 57.145017 172.087579 
L 71.260432 184.820211 
L 85.375847 212.832 
L 99.491262 212.832 
L 113.606677 240.843789 
L 127.722092 238.297263 
L 141.837507 220.471579 
L 155.952922 154.261895 
L 170.068337 118.610526 
L 184.183752 80.412632 
L 198.299167 60.040421 
L 212.414583 54.947368 
L 226.529998 32.028632 
L 240.645413 19.296 
L 254.760828 24.389053 
L 268.876243 47.307789 
L 282.991658 82.959158 
L 297.107073 105.877895 
L 311.222488 166.994526 
L 325.337903 189.913263 
L 339.453318 210.285474 
L 353.568733 235.750737 
L 367.684148 220.471579 
" style="fill:none;stroke:#1f77b4;stroke-linecap:square;stroke-width:1.5;"/>
    <defs>
     <path d="M 0 3 
C 0.795609 3 1.55874 2.683901 2.12132 2.12132 
C 2.683901 1.55874 3 0.795609 3 0 
C 3 -0.795609 2.683901 -1.55874 2.12132 -2.12132 
C 1.55874 -2.683901 0.795609 -3 0 -3 
C -0.795609 -3 -1.55874 -2.683901 -2.12132 -2.12132 
C -2.683901 -1.55874 -3 -0.795609 -3 0 
C -3 0.795609 -2.683901 1.55874 -2.12132 2.12132 
C -1.55874 2.683901 -0.795609 3 0 3 
z
" id="m4adc0a1e16" style="stroke:#1f77b4;"/>
    </defs>
    <g clip-path="url(#pf70eadd96a)">
     <use style="fill:#1f77b4;stroke:#1f77b4;" x="43.029602" xlink:href="#m4adc0a1e16" y="164.448"/>
     <use style="fill:#1f77b4;stroke:#1f77b4;" x="57.145017" xlink:href="#m4adc0a1e16" y="172.087579"/>
     <use style="fill:#1f77b4;stroke:#1f77b4;" x="71.260432" xlink:href="#m4adc0a1e16" y="184.820211"/>
     <use style="fill:#1f77b4;stroke:#1f77b4;" x="85.375847" xlink:href="#m4adc0a1e16" y="212.832"/>
     <use style="fill:#1f77b4;stroke:#1f77b4;" x="99.491262" xlink:href="#m4adc0a1e16" y="212.832"/>
     <use style="fill:#1f77b4;stroke:#1f77b4;" x="113.606677" xlink:href="#m4adc0a1e16" y="240.843789"/>
     <use style="fill:#1f77b4;stroke:#1f77b4;" x="127.722092" xlink:href="#m4adc0a1e16" y="238.297263"/>
     <use style="fill:#1f77b4;stroke:#1f77b4;" x="141.837507" xlink:href="#m4adc0a1e16" y="220.471579"/>
     <use style="fill:#1f77b4;stroke:#1f77b4;" x="155.952922" xlink:href="#m4adc0a1e16" y="154.261895"/>
     <use style="fill:#1f77b4;stroke:#1f77b4;" x="170.068337" xlink:href="#m4adc0a1e16" y="118.610526"/>
     <use style="fill:#1f77b4;stroke:#1f77b4;" x="184.183752" xlink:href="#m4adc0a1e16" y="80.412632"/>
     <use style="fill:#1f77b4;stroke:#1f77b4;" x="198.299167" xlink:href="#m4adc0a1e16" y="60.040421"/>
     <use style="fill:#1f77b4;stroke:#1f77b4;" x="212.414583" xlink:href="#m4adc0a1e16" y="54.947368"/>
     <use style="fill:#1f77b4;stroke:#1f77b4;" x="226.529998" xlink:href="#m4adc0a1e16" y="32.028632"/>
     <use style="fill:#1f77b4;stroke:#1f77b4;" x="240.645413" xlink:href="#m4adc0a1e16" y="19.296"/>
     <use style="fill:#1f77b4;stroke:#1f77b4;" x="254.760828" xlink:href="#m4adc0a1e16" y="24.389053"/>
     <use style="fill:#1f77b4;stroke:#1f77b4;" x="268.876243" xlink:href="#m4adc0a1e16" y="47.307789"/>
     <use style="fill:#1f77b4;stroke:#1f77b4;" x="282.991658" xlink:href="#m4adc0a1e16" y="82.959158"/>
     <use style="fill:#1f77b4;stroke:#1f77b4;" x="297.107073" xlink:href="#m4adc0a1e16" y="105.877895"/>
     <use style="fill:#1f77b4;stroke:#1f77b4;" x="311.222488" xlink:href="#m4adc0a1e16" y="166.994526"/>
     <use style="fill:#1f77b4;stroke:#1f77b4;" x="325.337903" xlink:href="#m4adc0a1e16" y="189.913263"/>
     <use style="fill:#1f77b4;stroke:#1f77b4;" x="339.453318" xlink:href="#m4adc0a1e16" y="210.285474"/>
     <use style="fill:#1f77b4;stroke:#1f77b4;" x="353.568733" xlink:href="#m4adc0a1e16" y="235.750737"/>
     <use style="fill:#1f77b4;stroke:#1f77b4;" x="367.684148" xlink:href="#m4adc0a1e16" y="220.471579"/>
    </g>
   </g>
   <g id="line2d_13">
    <path clip-path="url(#pf70eadd96a)" d="M 43.029602 228.111158 
L 57.145017 235.750737 
L 71.260432 243.390316 
L 85.375847 251.029895 
L 99.491262 261.216 
L 113.606677 177.180632 
L 127.722092 172.087579 
L 141.837507 154.261895 
L 155.952922 110.970947 
L 170.068337 80.412632 
L 184.183752 60.040421 
L 198.299167 39.668211 
L 212.414583 60.040421 
L 226.529998 65.133474 
L 240.645413 85.505684 
L 254.760828 149.168842 
L 268.876243 166.994526 
L 282.991658 187.366737 
L 297.107073 207.738947 
L 311.222488 215.378526 
L 325.337903 228.111158 
L 339.453318 235.750737 
" style="fill:none;stroke:#ff7f0e;stroke-linecap:square;stroke-width:1.5;"/>
    <defs>
     <path d="M 0 3 
C 0.795609 3 1.55874 2.683901 2.12132 2.12132 
C 2.683901 1.55874 3 0.795609 3 0 
C 3 -0.795609 2.683901 -1.55874 2.12132 -2.12132 
C 1.55874 -2.683901 0.795609 -3 0 -3 
C -0.795609 -3 -1.55874 -2.683901 -2.12132 -2.12132 
C -2.683901 -1.55874 -3 -0.795609 -3 0 
C -3 0.795609 -2.683901 1.55874 -2.12132 2.12132 
C -1.55874 2.683901 -0.795609 3 0 3 
z
" id="mf87fe5747c" style="stroke:#ff7f0e;"/>
    </defs>
    <g clip-path="url(#pf70eadd96a)">
     <use style="fill:#ff7f0e;stroke:#ff7f0e;" x="43.029602" xlink:href="#mf87fe5747c" y="228.111158"/>
     <use style="fill:#ff7f0e;stroke:#ff7f0e;" x="57.145017" xlink:href="#mf87fe5747c" y="235.750737"/>
     <use style="fill:#ff7f0e;stroke:#ff7f0e;" x="71.260432" xlink:href="#mf87fe5747c" y="243.390316"/>
     <use style="fill:#ff7f0e;stroke:#ff7f0e;" x="85.375847" xlink:href="#mf87fe5747c" y="251.029895"/>
     <use style="fill:#ff7f0e;stroke:#ff7f0e;" x="99.491262" xlink:href="#mf87fe5747c" y="261.216"/>
     <use style="fill:#ff7f0e;stroke:#ff7f0e;" x="113.606677" xlink:href="#mf87fe5747c" y="177.180632"/>
     <use style="fill:#ff7f0e;stroke:#ff7f0e;" x="127.722092" xlink:href="#mf87fe5747c" y="172.087579"/>
     <use style="fill:#ff7f0e;stroke:#ff7f0e;" x="141.837507" xlink:href="#mf87fe5747c" y="154.261895"/>
     <use style="fill:#ff7f0e;stroke:#ff7f0e;" x="155.952922" xlink:href="#mf87fe5747c" y="110.970947"/>
     <use style="fill:#ff7f0e;stroke:#ff7f0e;" x="170.068337" xlink:href="#mf87fe5747c" y="80.412632"/>
     <use style="fill:#ff7f0e;stroke:#ff7f0e;" x="184.183752" xlink:href="#mf87fe5747c" y="60.040421"/>
     <use style="fill:#ff7f0e;stroke:#ff7f0e;" x="198.299167" xlink:href="#mf87fe5747c" y="39.668211"/>
     <use style="fill:#ff7f0e;stroke:#ff7f0e;" x="212.414583" xlink:href="#mf87fe5747c" y="60.040421"/>
     <use style="fill:#ff7f0e;stroke:#ff7f0e;" x="226.529998" xlink:href="#mf87fe5747c" y="65.133474"/>
     <use style="fill:#ff7f0e;stroke:#ff7f0e;" x="240.645413" xlink:href="#mf87fe5747c" y="85.505684"/>
     <use style="fill:#ff7f0e;stroke:#ff7f0e;" x="254.760828" xlink:href="#mf87fe5747c" y="149.168842"/>
     <use style="fill:#ff7f0e;stroke:#ff7f0e;" x="268.876243" xlink:href="#mf87fe5747c" y="166.994526"/>
     <use style="fill:#ff7f0e;stroke:#ff7f0e;" x="282.991658" xlink:href="#mf87fe5747c" y="187.366737"/>
     <use style="fill:#ff7f0e;stroke:#ff7f0e;" x="297.107073" xlink:href="#mf87fe5747c" y="207.738947"/>
     <use style="fill:#ff7f0e;stroke:#ff7f0e;" x="311.222488" xlink:href="#mf87fe5747c" y="215.378526"/>
     <use style="fill:#ff7f0e;stroke:#ff7f0e;" x="325.337903" xlink:href="#mf87fe5747c" y="228.111158"/>
     <use style="fill:#ff7f0e;stroke:#ff7f0e;" x="339.453318" xlink:href="#mf87fe5747c" y="235.750737"/>
    </g>
   </g>
   <g id="patch_3">
    <path d="M 26.796875 273.312 
L 26.796875 7.2 
" style="fill:none;stroke:#000000;stroke-linecap:square;stroke-linejoin:miter;stroke-width:0.8;"/>
   </g>
   <g id="patch_4">
    <path d="M 383.916875 273.312 
L 383.916875 7.2 
" style="fill:none;stroke:#000000;stroke-linecap:square;stroke-linejoin:miter;stroke-width:0.8;"/>
   </g>
   <g id="patch_5">
    <path d="M 26.796875 273.312 
L 383.916875 273.312 
" style="fill:none;stroke:#000000;stroke-linecap:square;stroke-linejoin:miter;stroke-width:0.8;"/>
   </g>
   <g id="patch_6">
    <path d="M 26.796875 7.2 
L 383.916875 7.2 
" style="fill:none;stroke:#000000;stroke-linecap:square;stroke-linejoin:miter;stroke-width:0.8;"/>
   </g>
   <g id="legend_1">
    <g id="patch_7">
     <path d="M 300.173125 43.98125 
L 376.916875 43.98125 
Q 378.916875 43.98125 378.916875 41.98125 
L 378.916875 14.2 
Q 378.916875 12.2 376.916875 12.2 
L 300.173125 12.2 
Q 298.173125 12.2 298.173125 14.2 
L 298.173125 41.98125 
Q 298.173125 43.98125 300.173125 43.98125 
z
" style="fill:#ffffff;opacity:0.8;stroke:#cccccc;stroke-linejoin:miter;"/>
    </g>
    <g id="line2d_14">
     <path d="M 302.173125 20.190625 
L 322.173125 20.190625 
" style="fill:none;stroke:#1f77b4;stroke-linecap:square;stroke-width:1.5;"/>
    </g>
    <g id="line2d_15">
     <g>
      <use style="fill:#1f77b4;stroke:#1f77b4;" x="312.173125" xlink:href="#m4adc0a1e16" y="20.190625"/>
     </g>
    </g>
    <g id="text_12">
     <!-- yesterday -->
     <defs>
      <path d="M 48.78125 50.78125 
L 24.609375 -7.625 
Q 19.96875 -18.796875 8.59375 -18.796875 
L 7.46875 -18.796875 
L 5.375 -10.984375 
L 6.984375 -10.984375 
Q 15.140625 -10.984375 17.96875 -3.71875 
L 21.1875 4.296875 
L 0.59375 50.78125 
L 10.296875 50.78125 
L 21.296875 22.796875 
Q 23.875 16.015625 25.09375 12.203125 
L 25.390625 12.203125 
Q 27.34375 18.265625 29.109375 22.796875 
L 39.5 50.78125 
z
" id="IPAexGothic-121"/>
      <path d="M 13.484375 24.90625 
Q 13.921875 16.265625 18.890625 11.28125 
Q 23.96875 6.203125 31.203125 6.203125 
Q 40.71875 6.203125 46.296875 15.09375 
L 51.90625 11.375 
Q 44.828125 -0.484375 30.171875 -0.484375 
Q 19.09375 -0.484375 11.96875 6.59375 
Q 4.78125 13.8125 4.78125 25.640625 
Q 4.78125 38.1875 12.3125 45.703125 
Q 19 52.390625 29 52.390625 
Q 38.421875 52.390625 44.78125 46.1875 
Q 51.90625 38.96875 51.90625 26.90625 
L 51.90625 24.90625 
z
M 43.0625 31.203125 
Q 42.328125 37.984375 38.28125 41.890625 
Q 34.28125 45.90625 28.8125 45.90625 
Q 22.46875 45.90625 17.96875 40.484375 
Q 14.890625 36.8125 13.96875 31.203125 
z
" id="IPAexGothic-101"/>
      <path d="M 34.90625 39.796875 
Q 30.28125 45.796875 23.1875 45.796875 
Q 13.921875 45.796875 13.921875 38.671875 
Q 13.921875 33.640625 23.921875 30.375 
L 27.203125 29.296875 
Q 41.40625 24.65625 41.40625 13.96875 
Q 41.40625 6.78125 35.5 2.6875 
Q 30.8125 -0.484375 23.390625 -0.484375 
Q 11.96875 -0.484375 4 7.859375 
L 9.421875 12.796875 
Q 15.578125 6.203125 23.6875 6.203125 
Q 33.296875 6.203125 33.296875 13.671875 
Q 33.296875 19.34375 22.703125 23.09375 
L 19.28125 24.265625 
Q 5.90625 28.953125 5.90625 37.984375 
Q 5.90625 43.703125 9.8125 47.609375 
Q 14.5 52.296875 22.703125 52.296875 
Q 33.6875 52.296875 40.71875 44.671875 
z
" id="IPAexGothic-115"/>
      <path d="M 33.203125 3.765625 
Q 27.640625 -0.09375 21.828125 -0.09375 
Q 10.203125 -0.09375 10.203125 12.984375 
L 10.203125 44.671875 
L 3.421875 44.671875 
L 3.421875 50.78125 
L 10.203125 50.78125 
L 10.203125 61.96875 
L 18.40625 66.0625 
L 18.40625 50.78125 
L 32.234375 50.78125 
L 32.234375 44.671875 
L 18.40625 44.671875 
L 18.40625 14.15625 
Q 18.40625 6.5 23.640625 6.5 
Q 27.15625 6.5 30.328125 9.1875 
z
" id="IPAexGothic-116"/>
      <path d="M 36.078125 51.8125 
L 34.578125 43.265625 
Q 32.90625 43.609375 31.59375 43.609375 
Q 25.828125 43.609375 22.078125 38.1875 
Q 17.390625 31.34375 17.390625 26.171875 
L 17.390625 0.984375 
L 8.796875 0.984375 
L 8.796875 50.78125 
L 16.890625 50.78125 
L 16.5 35.984375 
L 16.703125 35.984375 
Q 22.21875 52.203125 32.765625 52.203125 
Q 34.46875 52.203125 36.078125 51.8125 
z
" id="IPAexGothic-114"/>
      <path d="M 52.984375 0.984375 
L 45.171875 0.984375 
L 45.171875 9.671875 
Q 38.140625 -0.484375 27.390625 -0.484375 
Q 18.453125 -0.484375 12.3125 5.8125 
Q 4.890625 13.1875 4.890625 25.984375 
Q 4.890625 38.53125 12.0625 45.90625 
Q 18.265625 52.203125 27.390625 52.203125 
Q 37.25 52.203125 44.484375 43.890625 
L 44.484375 74.90625 
L 52.984375 74.90625 
z
M 44.484375 20.359375 
L 44.484375 32.765625 
Q 44.484375 37.703125 38.375 42.28125 
Q 34.078125 45.40625 28.953125 45.40625 
Q 23.1875 45.40625 19.1875 41.40625 
Q 13.875 36.078125 13.875 26.21875 
Q 13.875 17.328125 18.265625 11.71875 
Q 22.515625 6.390625 28.859375 6.390625 
Q 36.28125 6.390625 41.5 13.671875 
Q 44.484375 17.71875 44.484375 20.359375 
z
" id="IPAexGothic-100"/>
      <path d="M 49.3125 0.984375 
L 41.75 0.984375 
Q 39.984375 4.734375 39.546875 8.6875 
L 39.203125 8.6875 
Q 33.546875 -0.390625 22.3125 -0.390625 
Q 14.59375 -0.390625 9.71875 4.5 
Q 5.421875 8.796875 5.421875 14.984375 
Q 5.421875 30.421875 32.03125 31.203125 
L 38.71875 31.390625 
L 38.71875 33.984375 
Q 38.71875 39.203125 35.75 42.1875 
Q 32.625 45.3125 27.734375 45.3125 
Q 19.34375 45.3125 15.140625 37.15625 
L 7.71875 40.578125 
Q 14.65625 52 27.9375 52 
Q 37.109375 52 42.046875 46.875 
Q 46.625 42.28125 46.625 33.890625 
L 46.625 15.578125 
Q 46.625 6.25 49.3125 0.984375 
z
M 38.921875 25.390625 
L 33.453125 25.296875 
Q 14.109375 24.859375 14.109375 14.890625 
Q 14.109375 11.375 16.40625 9.078125 
Q 19.234375 6.296875 23.828125 6.296875 
Q 30.21875 6.296875 34.90625 10.984375 
Q 38.921875 15.140625 38.921875 21 
z
" id="IPAexGothic-97"/>
     </defs>
     <g transform="translate(330.173125 23.690625)scale(0.1 -0.1)">
      <use xlink:href="#IPAexGothic-121"/>
      <use x="49.21875" xlink:href="#IPAexGothic-101"/>
      <use x="106.103516" xlink:href="#IPAexGothic-115"/>
      <use x="152.294922" xlink:href="#IPAexGothic-116"/>
      <use x="186.914062" xlink:href="#IPAexGothic-101"/>
      <use x="243.798828" xlink:href="#IPAexGothic-114"/>
      <use x="280.810547" xlink:href="#IPAexGothic-100"/>
      <use x="343.212891" xlink:href="#IPAexGothic-97"/>
      <use x="398.193359" xlink:href="#IPAexGothic-121"/>
     </g>
    </g>
    <g id="line2d_16">
     <path d="M 302.173125 34.58125 
L 322.173125 34.58125 
" style="fill:none;stroke:#ff7f0e;stroke-linecap:square;stroke-width:1.5;"/>
    </g>
    <g id="line2d_17">
     <g>
      <use style="fill:#ff7f0e;stroke:#ff7f0e;" x="312.173125" xlink:href="#mf87fe5747c" y="34.58125"/>
     </g>
    </g>
    <g id="text_13">
     <!-- today -->
     <defs>
      <path d="M 29.984375 52.203125 
Q 40.53125 52.203125 47.75 45.125 
Q 55.171875 37.703125 55.171875 25.59375 
Q 55.171875 13.875 47.90625 6.59375 
Q 40.765625 -0.484375 29.984375 -0.484375 
Q 19.1875 -0.484375 12.203125 6.5 
Q 4.890625 13.765625 4.890625 25.875 
Q 4.890625 37.703125 12.3125 45.125 
Q 19.390625 52.203125 29.984375 52.203125 
z
M 29.984375 45.609375 
Q 23.734375 45.609375 19.390625 41.109375 
Q 13.875 35.59375 13.875 25.78125 
Q 13.875 16.109375 19.28125 10.6875 
Q 23.6875 6.296875 29.984375 6.296875 
Q 36.421875 6.296875 40.765625 10.796875 
Q 46.1875 16.21875 46.1875 26.125 
Q 46.1875 35.453125 40.671875 41.109375 
Q 36.1875 45.609375 29.984375 45.609375 
z
" id="IPAexGothic-111"/>
     </defs>
     <g transform="translate(330.173125 38.08125)scale(0.1 -0.1)">
      <use xlink:href="#IPAexGothic-116"/>
      <use x="34.619141" xlink:href="#IPAexGothic-111"/>
      <use x="95.019531" xlink:href="#IPAexGothic-100"/>
      <use x="157.421875" xlink:href="#IPAexGothic-97"/>
      <use x="212.402344" xlink:href="#IPAexGothic-121"/>
     </g>
    </g>
   </g>
  </g>
 </g>
 <defs>
  <clipPath id="pf70eadd96a">
   <rect height="266.112" width="357.12" x="26.796875" y="7.2"/>
  </clipPath>
 </defs>
</svg>
