<?xml version="1.0" encoding="utf-8" standalone="no"?>
<!DOCTYPE svg PUBLIC "-//W3C//DTD SVG 1.1//EN"
  "http://www.w3.org/Graphics/SVG/1.1/DTD/svg11.dtd">
<!-- Created with matplotlib (https://matplotlib.org/) -->
<svg height="310.29325pt" version="1.1" viewBox="0 0 414.166321 310.29325" width="414.166321pt" xmlns="http://www.w3.org/2000/svg" xmlns:xlink="http://www.w3.org/1999/xlink">
 <defs>
  <style type="text/css">
*{stroke-linecap:butt;stroke-linejoin:round;}
  </style>
 </defs>
 <g id="figure_1">
  <g id="patch_1">
   <path d="M 0 310.29325 
L 414.166321 310.29325 
L 414.166321 0 
L 0 0 
z
" style="fill:#ffffff;"/>
  </g>
  <g id="axes_1">
   <g id="patch_2">
    <path d="M 46.485938 273.312 
L 403.605937 273.312 
L 403.605937 7.2 
L 46.485938 7.2 
z
" style="fill:#ffffff;"/>
   </g>
   <g id="matplotlib.axis_1">
    <g id="xtick_1">
     <g id="line2d_1">
      <path clip-path="url(#p2534090dc9)" d="M 59.336847 273.312 
L 59.336847 7.2 
" style="fill:none;stroke:#b0b0b0;stroke-linecap:square;stroke-width:0.8;"/>
     </g>
     <g id="line2d_2">
      <defs>
       <path d="M 0 0 
L 0 3.5 
" id="m0503e2915d" style="stroke:#000000;stroke-width:0.8;"/>
      </defs>
      <g>
       <use style="stroke:#000000;stroke-width:0.8;" x="59.336847" xlink:href="#m0503e2915d" y="273.312"/>
      </g>
     </g>
     <g id="text_1">
      <!-- 0 -->
      <defs>
       <path d="M 31.84375 73.828125 
Q 45.015625 73.828125 52.09375 61.625 
Q 57.71875 51.953125 57.71875 36.625 
Q 57.71875 21.4375 52.09375 11.578125 
Q 45.125 -0.484375 31.5 -0.484375 
Q 17.921875 -0.484375 10.9375 11.578125 
Q 5.328125 21.4375 5.328125 36.71875 
Q 5.328125 58.015625 15.625 67.71875 
Q 22.171875 73.828125 31.84375 73.828125 
z
M 31.5 66.65625 
Q 23.6875 66.65625 19.1875 58.734375 
Q 14.59375 50.734375 14.59375 36.625 
Q 14.59375 22.75 19.09375 14.796875 
Q 23.640625 6.984375 31.5 6.984375 
Q 40.921875 6.984375 45.453125 18.015625 
Q 48.4375 25.34375 48.4375 37.109375 
Q 48.4375 50.875 43.84375 58.734375 
Q 39.203125 66.65625 31.5 66.65625 
z
" id="IPAexGothic-48"/>
      </defs>
      <g transform="translate(56.187628 287.802625)scale(0.1 -0.1)">
       <use xlink:href="#IPAexGothic-48"/>
      </g>
     </g>
    </g>
    <g id="xtick_2">
     <g id="line2d_3">
      <path clip-path="url(#p2534090dc9)" d="M 126.97321 273.312 
L 126.97321 7.2 
" style="fill:none;stroke:#b0b0b0;stroke-linecap:square;stroke-width:0.8;"/>
     </g>
     <g id="line2d_4">
      <g>
       <use style="stroke:#000000;stroke-width:0.8;" x="126.97321" xlink:href="#m0503e2915d" y="273.312"/>
      </g>
     </g>
     <g id="text_2">
      <!-- 20 -->
      <defs>
       <path d="M 57.171875 0.984375 
L 6.984375 0.984375 
L 6.984375 9.28125 
Q 12.890625 23.046875 29.59375 34.421875 
L 32.375 36.28125 
Q 40.921875 42.140625 43.609375 45.40625 
Q 46.6875 49.265625 46.6875 53.8125 
Q 46.6875 58.9375 43.0625 62.546875 
Q 39.0625 66.546875 32.5625 66.546875 
Q 19.53125 66.546875 15.484375 52 
L 7.765625 54.78125 
Q 13.328125 73.828125 33.0625 73.828125 
Q 43.84375 73.828125 50.25 67.4375 
Q 55.859375 61.671875 55.859375 53.515625 
Q 55.859375 47.46875 52.25 42.53125 
Q 48.921875 37.75 36.96875 30.28125 
L 34.859375 29 
Q 19.625 19.578125 15.28125 8.890625 
L 57.171875 8.890625 
z
" id="IPAexGothic-50"/>
      </defs>
      <g transform="translate(120.674773 287.802625)scale(0.1 -0.1)">
       <use xlink:href="#IPAexGothic-50"/>
       <use x="62.988281" xlink:href="#IPAexGothic-48"/>
      </g>
     </g>
    </g>
    <g id="xtick_3">
     <g id="line2d_5">
      <path clip-path="url(#p2534090dc9)" d="M 194.609574 273.312 
L 194.609574 7.2 
" style="fill:none;stroke:#b0b0b0;stroke-linecap:square;stroke-width:0.8;"/>
     </g>
     <g id="line2d_6">
      <g>
       <use style="stroke:#000000;stroke-width:0.8;" x="194.609574" xlink:href="#m0503e2915d" y="273.312"/>
      </g>
     </g>
     <g id="text_3">
      <!-- 40 -->
      <defs>
       <path d="M 59.578125 18.109375 
L 47.796875 18.109375 
L 47.796875 0.984375 
L 39.796875 0.984375 
L 39.796875 18.109375 
L 3.078125 18.109375 
L 3.078125 26.125 
L 38.375 73.09375 
L 47.796875 73.09375 
L 47.796875 25.53125 
L 59.578125 25.53125 
z
M 40.28125 64.203125 
L 39.984375 64.203125 
Q 35.59375 57.125 31.296875 51.3125 
L 11.859375 25.53125 
L 39.796875 25.53125 
L 39.796875 49.125 
Q 39.796875 54.390625 40.28125 64.203125 
z
" id="IPAexGothic-52"/>
      </defs>
      <g transform="translate(188.311136 287.802625)scale(0.1 -0.1)">
       <use xlink:href="#IPAexGothic-52"/>
       <use x="62.988281" xlink:href="#IPAexGothic-48"/>
      </g>
     </g>
    </g>
    <g id="xtick_4">
     <g id="line2d_7">
      <path clip-path="url(#p2534090dc9)" d="M 262.245938 273.312 
L 262.245938 7.2 
" style="fill:none;stroke:#b0b0b0;stroke-linecap:square;stroke-width:0.8;"/>
     </g>
     <g id="line2d_8">
      <g>
       <use style="stroke:#000000;stroke-width:0.8;" x="262.245938" xlink:href="#m0503e2915d" y="273.312"/>
      </g>
     </g>
     <g id="text_4">
      <!-- 60 -->
      <defs>
       <path d="M 16.5 36.375 
Q 23.578125 46.578125 34.90625 46.578125 
Q 45.40625 46.578125 51.8125 39.265625 
Q 57.421875 32.90625 57.421875 23.78125 
Q 57.421875 13.8125 51.125 6.78125 
Q 44.578125 -0.484375 34.03125 -0.484375 
Q 21.484375 -0.484375 14.40625 9.078125 
Q 7.515625 18.40625 7.515625 34.8125 
Q 7.515625 53.515625 15.828125 64.203125 
Q 23.34375 73.828125 35.5 73.828125 
Q 49.859375 73.828125 56.390625 62.890625 
L 49.21875 58.984375 
Q 45.21875 66.65625 35.9375 66.65625 
Q 17.484375 66.65625 16.109375 36.375 
z
M 33.453125 39.796875 
Q 26.3125 39.796875 21.625 34.46875 
Q 17.4375 29.6875 17.4375 24.078125 
Q 17.4375 18.0625 21.140625 13.1875 
Q 26.125 6.6875 33.734375 6.6875 
Q 41.703125 6.6875 45.953125 13.1875 
Q 48.828125 17.625 48.828125 23.484375 
Q 48.828125 30.375 45.015625 34.8125 
Q 40.625 39.796875 33.453125 39.796875 
z
" id="IPAexGothic-54"/>
      </defs>
      <g transform="translate(255.9475 287.802625)scale(0.1 -0.1)">
       <use xlink:href="#IPAexGothic-54"/>
       <use x="62.988281" xlink:href="#IPAexGothic-48"/>
      </g>
     </g>
    </g>
    <g id="xtick_5">
     <g id="line2d_9">
      <path clip-path="url(#p2534090dc9)" d="M 329.882301 273.312 
L 329.882301 7.2 
" style="fill:none;stroke:#b0b0b0;stroke-linecap:square;stroke-width:0.8;"/>
     </g>
     <g id="line2d_10">
      <g>
       <use style="stroke:#000000;stroke-width:0.8;" x="329.882301" xlink:href="#m0503e2915d" y="273.312"/>
      </g>
     </g>
     <g id="text_5">
      <!-- 80 -->
      <defs>
       <path d="M 39.703125 37.890625 
Q 57.8125 31.734375 57.8125 18.703125 
Q 57.8125 8.453125 48.4375 3.078125 
Q 41.609375 -0.875 31.5 -0.875 
Q 21.34375 -0.875 14.5 3.078125 
Q 5.421875 8.296875 5.421875 18.40625 
Q 5.421875 31.0625 22.015625 37.203125 
L 22.015625 37.5 
Q 7.515625 42.71875 7.515625 54.828125 
Q 7.515625 64.0625 15.328125 69.625 
Q 21.96875 74.3125 31.546875 74.3125 
Q 42.234375 74.3125 48.921875 68.796875 
Q 55.515625 63.578125 55.515625 55.71875 
Q 55.515625 42.28125 39.703125 38.1875 
z
M 31.59375 41.015625 
Q 46.828125 44.625 46.828125 55.125 
Q 46.828125 61.1875 41.796875 64.84375 
Q 37.703125 67.921875 31.5 67.921875 
Q 25.09375 67.921875 20.796875 64.5 
Q 16.40625 60.890625 16.40625 55.03125 
Q 16.40625 49.21875 21.09375 45.703125 
Q 23.34375 43.890625 26.90625 42.53125 
Q 31 40.875 31.59375 41.015625 
z
M 30.90625 34.515625 
Q 14.40625 30.171875 14.40625 19 
Q 14.40625 12.109375 20.515625 8.6875 
Q 25.09375 6.109375 31.390625 6.109375 
Q 40.234375 6.109375 45.015625 10.890625 
Q 48.53125 14.40625 48.53125 19.53125 
Q 48.53125 24.90625 43.65625 28.90625 
Q 40.765625 31.15625 36.71875 32.8125 
Q 31.984375 34.71875 30.90625 34.515625 
z
" id="IPAexGothic-56"/>
      </defs>
      <g transform="translate(323.583864 287.802625)scale(0.1 -0.1)">
       <use xlink:href="#IPAexGothic-56"/>
       <use x="62.988281" xlink:href="#IPAexGothic-48"/>
      </g>
     </g>
    </g>
    <g id="xtick_6">
     <g id="line2d_11">
      <path clip-path="url(#p2534090dc9)" d="M 397.518665 273.312 
L 397.518665 7.2 
" style="fill:none;stroke:#b0b0b0;stroke-linecap:square;stroke-width:0.8;"/>
     </g>
     <g id="line2d_12">
      <g>
       <use style="stroke:#000000;stroke-width:0.8;" x="397.518665" xlink:href="#m0503e2915d" y="273.312"/>
      </g>
     </g>
     <g id="text_6">
      <!-- 100 -->
      <defs>
       <path d="M 38.484375 0.984375 
L 29.6875 0.984375 
L 29.6875 64.109375 
Q 21.4375 61.28125 12.3125 59.328125 
L 10.6875 66.109375 
Q 23.734375 69.390625 32.90625 73.921875 
L 38.484375 73.921875 
z
" id="IPAexGothic-49"/>
      </defs>
      <g transform="translate(388.071009 287.802625)scale(0.1 -0.1)">
       <use xlink:href="#IPAexGothic-49"/>
       <use x="62.988281" xlink:href="#IPAexGothic-48"/>
       <use x="125.976562" xlink:href="#IPAexGothic-48"/>
      </g>
     </g>
    </g>
    <g id="text_7">
     <!-- 年齢 -->
     <defs>
      <path d="M 27.6875 64.984375 
Q 22.5625 53.46875 13.671875 43.796875 
L 8.25 49.46875 
Q 20.65625 61.578125 25.484375 82.171875 
L 32.953125 80.5625 
Q 31.15625 74.359375 30.171875 71.296875 
L 88.96875 71.296875 
L 88.96875 64.984375 
L 58.6875 64.984375 
L 58.6875 48.875 
L 84.90625 48.875 
L 84.90625 42.578125 
L 58.6875 42.578125 
L 58.6875 23.578125 
L 94.96875 23.578125 
L 94.96875 17.09375 
L 58.6875 17.09375 
L 58.6875 -7.03125 
L 51.171875 -7.03125 
L 51.171875 17.09375 
L 6.984375 17.09375 
L 6.984375 23.578125 
L 23.96875 23.578125 
L 23.96875 48.875 
L 51.171875 48.875 
L 51.171875 64.984375 
z
M 51.171875 42.578125 
L 31.15625 42.578125 
L 31.15625 23.578125 
L 51.171875 23.578125 
z
" id="IPAexGothic-24180"/>
      <path d="M 32.71875 73.578125 
L 46.1875 73.578125 
L 46.1875 67.96875 
L 32.71875 67.96875 
L 32.71875 58.5 
L 53.078125 58.5 
L 53.078125 52.6875 
L 3.8125 52.6875 
L 3.8125 58.5 
L 13.53125 58.5 
L 13.53125 75.296875 
L 19.53125 75.296875 
L 19.53125 58.5 
L 26.609375 58.5 
L 26.609375 83.015625 
L 32.71875 83.015625 
z
M 13.625 32.8125 
L 25.921875 32.8125 
L 25.921875 50.296875 
L 31.546875 50.296875 
L 31.546875 32.8125 
L 43.703125 32.8125 
L 43.703125 50.296875 
L 49.703125 50.296875 
L 49.703125 44.96875 
L 50.484375 45.796875 
Q 61.625 58.109375 67.78125 81.390625 
L 74.90625 81.390625 
Q 82.90625 60.109375 97.40625 46.390625 
L 93.40625 39.984375 
Q 88.375 45.171875 83.40625 51.90625 
L 83.40625 46.484375 
L 62.3125 46.484375 
L 62.3125 50.875 
Q 58.25 44.1875 53.46875 38.8125 
L 49.703125 44.875 
L 49.703125 -6.5 
L 43.703125 -6.5 
L 43.703125 -2.78125 
L 13.625 -2.78125 
L 13.625 -6.984375 
L 7.515625 -6.984375 
L 7.515625 50.296875 
L 13.625 50.296875 
z
M 25 27.484375 
L 13.625 27.484375 
L 13.625 2.9375 
L 43.703125 2.9375 
L 43.703125 27.484375 
L 31.546875 27.484375 
L 31.546875 23.96875 
Q 37.703125 20.359375 42.96875 15.828125 
L 39.40625 11.140625 
Q 36.328125 14.796875 31.546875 18.703125 
L 31.546875 4.9375 
L 25.921875 4.9375 
L 25.921875 20.796875 
Q 22.5625 13.375 17.09375 7.625 
L 13.8125 12.703125 
Q 20.65625 18.65625 25 27.484375 
z
M 82.90625 52.59375 
Q 75.484375 63.03125 71.578125 73.78125 
Q 69.1875 63.53125 63.28125 52.59375 
z
M 92 36.53125 
L 92 8.40625 
Q 92 1.421875 85.15625 1.421875 
Q 81.296875 1.421875 76.8125 2.203125 
L 75.984375 8.6875 
Q 80.671875 7.8125 83.59375 7.8125 
Q 85.796875 7.8125 85.796875 10.6875 
L 85.796875 30.421875 
L 72.21875 30.421875 
L 72.21875 -6.984375 
L 65.828125 -6.984375 
L 65.828125 30.421875 
L 54.203125 30.421875 
L 54.203125 36.53125 
z
M 19 34.28125 
Q 17.4375 41.15625 14.984375 46.390625 
L 20.171875 47.90625 
Q 22.515625 43.359375 24.265625 35.890625 
z
M 32.671875 36.1875 
Q 35.6875 43.015625 36.859375 48.296875 
L 42.578125 46.390625 
Q 39.9375 39.15625 37.109375 34.421875 
z
" id="IPAexGothic-40802"/>
     </defs>
     <g transform="translate(215.045938 301.19325)scale(0.1 -0.1)">
      <use xlink:href="#IPAexGothic-24180"/>
      <use x="100" xlink:href="#IPAexGothic-40802"/>
     </g>
    </g>
   </g>
   <g id="matplotlib.axis_2">
    <g id="ytick_1">
     <g id="line2d_13">
      <path clip-path="url(#p2534090dc9)" d="M 46.485938 236.246254 
L 403.605937 236.246254 
" style="fill:none;stroke:#b0b0b0;stroke-linecap:square;stroke-width:0.8;"/>
     </g>
     <g id="line2d_14">
      <defs>
       <path d="M 0 0 
L -3.5 0 
" id="m3547321fd4" style="stroke:#000000;stroke-width:0.8;"/>
      </defs>
      <g>
       <use style="stroke:#000000;stroke-width:0.8;" x="46.485938" xlink:href="#m3547321fd4" y="236.246254"/>
      </g>
     </g>
     <g id="text_8">
      <!-- 20 -->
      <g transform="translate(26.889063 239.991566)scale(0.1 -0.1)">
       <use xlink:href="#IPAexGothic-50"/>
       <use x="62.988281" xlink:href="#IPAexGothic-48"/>
      </g>
     </g>
    </g>
    <g id="ytick_2">
     <g id="line2d_15">
      <path clip-path="url(#p2534090dc9)" d="M 46.485938 195.312244 
L 403.605937 195.312244 
" style="fill:none;stroke:#b0b0b0;stroke-linecap:square;stroke-width:0.8;"/>
     </g>
     <g id="line2d_16">
      <g>
       <use style="stroke:#000000;stroke-width:0.8;" x="46.485938" xlink:href="#m3547321fd4" y="195.312244"/>
      </g>
     </g>
     <g id="text_9">
      <!-- 40 -->
      <g transform="translate(26.889063 199.057556)scale(0.1 -0.1)">
       <use xlink:href="#IPAexGothic-52"/>
       <use x="62.988281" xlink:href="#IPAexGothic-48"/>
      </g>
     </g>
    </g>
    <g id="ytick_3">
     <g id="line2d_17">
      <path clip-path="url(#p2534090dc9)" d="M 46.485938 154.378234 
L 403.605937 154.378234 
" style="fill:none;stroke:#b0b0b0;stroke-linecap:square;stroke-width:0.8;"/>
     </g>
     <g id="line2d_18">
      <g>
       <use style="stroke:#000000;stroke-width:0.8;" x="46.485938" xlink:href="#m3547321fd4" y="154.378234"/>
      </g>
     </g>
     <g id="text_10">
      <!-- 60 -->
      <g transform="translate(26.889063 158.123546)scale(0.1 -0.1)">
       <use xlink:href="#IPAexGothic-54"/>
       <use x="62.988281" xlink:href="#IPAexGothic-48"/>
      </g>
     </g>
    </g>
    <g id="ytick_4">
     <g id="line2d_19">
      <path clip-path="url(#p2534090dc9)" d="M 46.485938 113.444223 
L 403.605937 113.444223 
" style="fill:none;stroke:#b0b0b0;stroke-linecap:square;stroke-width:0.8;"/>
     </g>
     <g id="line2d_20">
      <g>
       <use style="stroke:#000000;stroke-width:0.8;" x="46.485938" xlink:href="#m3547321fd4" y="113.444223"/>
      </g>
     </g>
     <g id="text_11">
      <!-- 80 -->
      <g transform="translate(26.889063 117.189536)scale(0.1 -0.1)">
       <use xlink:href="#IPAexGothic-56"/>
       <use x="62.988281" xlink:href="#IPAexGothic-48"/>
      </g>
     </g>
    </g>
    <g id="ytick_5">
     <g id="line2d_21">
      <path clip-path="url(#p2534090dc9)" d="M 46.485938 72.510213 
L 403.605937 72.510213 
" style="fill:none;stroke:#b0b0b0;stroke-linecap:square;stroke-width:0.8;"/>
     </g>
     <g id="line2d_22">
      <g>
       <use style="stroke:#000000;stroke-width:0.8;" x="46.485938" xlink:href="#m3547321fd4" y="72.510213"/>
      </g>
     </g>
     <g id="text_12">
      <!-- 100 -->
      <g transform="translate(20.590625 76.255526)scale(0.1 -0.1)">
       <use xlink:href="#IPAexGothic-49"/>
       <use x="62.988281" xlink:href="#IPAexGothic-48"/>
       <use x="125.976562" xlink:href="#IPAexGothic-48"/>
      </g>
     </g>
    </g>
    <g id="ytick_6">
     <g id="line2d_23">
      <path clip-path="url(#p2534090dc9)" d="M 46.485938 31.576203 
L 403.605937 31.576203 
" style="fill:none;stroke:#b0b0b0;stroke-linecap:square;stroke-width:0.8;"/>
     </g>
     <g id="line2d_24">
      <g>
       <use style="stroke:#000000;stroke-width:0.8;" x="46.485938" xlink:href="#m3547321fd4" y="31.576203"/>
      </g>
     </g>
     <g id="text_13">
      <!-- 120 -->
      <g transform="translate(20.590625 35.321516)scale(0.1 -0.1)">
       <use xlink:href="#IPAexGothic-49"/>
       <use x="62.988281" xlink:href="#IPAexGothic-50"/>
       <use x="125.976562" xlink:href="#IPAexGothic-48"/>
      </g>
     </g>
    </g>
    <g id="text_14">
     <!-- 歩行中死傷者数 -->
     <defs>
      <path d="M 53.46875 68.609375 
L 82.375 68.609375 
L 82.375 62.40625 
L 53.46875 62.40625 
L 53.46875 50.203125 
L 92.875 50.203125 
L 92.875 43.796875 
L 53.46875 43.796875 
L 53.46875 20.703125 
Q 53.46875 16.84375 51.65625 15.53125 
Q 49.8125 14.109375 44.96875 14.109375 
Q 40.046875 14.109375 35.546875 14.59375 
L 34.46875 21.484375 
Q 39.984375 20.609375 43.5 20.609375 
Q 46.296875 20.609375 46.296875 24.125 
L 46.296875 43.796875 
L 6.984375 43.796875 
L 6.984375 50.203125 
L 22.359375 50.203125 
L 22.359375 72.3125 
L 29.4375 72.3125 
L 29.4375 50.203125 
L 46.296875 50.203125 
L 46.296875 83.015625 
L 53.46875 83.015625 
z
M 8.6875 17.921875 
Q 20.015625 27.296875 27.296875 39.984375 
L 33.890625 37.109375 
Q 25.78125 23 14.59375 12.984375 
z
M 87.0625 15.28125 
Q 78.421875 27.046875 66.5 36.28125 
L 72.359375 40.484375 
Q 84.671875 31.25 93.359375 20.90625 
z
M 14.15625 -1.21875 
Q 53.21875 3.265625 70.171875 25.484375 
L 76.46875 21.09375 
Q 55.71875 -2.546875 18.796875 -7.90625 
z
" id="IPAexGothic-27497"/>
      <path d="M 28.46875 43.015625 
L 28.46875 -6.984375 
L 21.140625 -6.984375 
L 21.140625 33.890625 
Q 15.09375 27.25 9.71875 22.90625 
L 4.9375 27.984375 
Q 20.21875 39.984375 30.765625 59.71875 
L 37.453125 56.78125 
Q 32.953125 49.03125 28.46875 43.015625 
z
M 77.734375 43.796875 
L 77.734375 1.609375 
Q 77.734375 -6.109375 68.265625 -6.109375 
Q 61.328125 -6.109375 52.4375 -5.328125 
L 51.375 2.484375 
Q 58.984375 1.21875 66.546875 1.21875 
Q 70.5625 1.21875 70.5625 4.984375 
L 70.5625 43.796875 
L 37.25 43.796875 
L 37.25 50.390625 
L 93.953125 50.390625 
L 93.953125 43.796875 
z
M 6 57.671875 
Q 19.234375 66.5 27.4375 79.296875 
L 33.5 75.78125 
Q 24.078125 61.671875 10.40625 52.296875 
z
M 42.328125 74.90625 
L 88.421875 74.90625 
L 88.421875 68.40625 
L 42.328125 68.40625 
z
" id="IPAexGothic-34892"/>
      <path d="M 45.703125 61.71875 
L 45.703125 81.390625 
L 53.515625 81.390625 
L 53.515625 61.71875 
L 87.703125 61.71875 
L 87.703125 17.578125 
L 80.078125 17.578125 
L 80.078125 24.90625 
L 53.515625 24.90625 
L 53.515625 -6.984375 
L 45.703125 -6.984375 
L 45.703125 24.90625 
L 19.734375 24.90625 
L 19.734375 17.09375 
L 12.109375 17.09375 
L 12.109375 61.71875 
z
M 19.734375 55.21875 
L 19.734375 31.390625 
L 45.703125 31.390625 
L 45.703125 55.21875 
z
M 80.078125 31.390625 
L 80.078125 55.21875 
L 53.515625 55.21875 
L 53.515625 31.390625 
z
" id="IPAexGothic-20013"/>
      <path d="M 33.34375 21.578125 
Q 26.421875 29.109375 19.625 34.375 
Q 15.578125 27.9375 9.625 21.96875 
L 4.828125 26.765625 
Q 20.703125 44.140625 24.75 68.796875 
L 24.859375 69.390625 
L 7.125 69.390625 
L 7.125 75.875 
L 92.921875 75.875 
L 92.921875 69.390625 
L 63.328125 69.390625 
L 63.328125 37.984375 
Q 76.375 45.015625 85.59375 54 
L 92.09375 48.6875 
Q 79.828125 38.578125 63.328125 30.46875 
L 63.328125 8.0625 
Q 63.328125 4.296875 66.21875 3.515625 
Q 68.40625 3.03125 73.1875 3.03125 
Q 84.8125 3.03125 86.03125 6.203125 
Q 87.109375 9.234375 87.40625 20.703125 
L 95.125 18.171875 
Q 94.53125 2.203125 91.703125 -0.875 
Q 88.53125 -4.390625 72.3125 -4.390625 
Q 63.484375 -4.390625 60.015625 -2.59375 
Q 56.15625 -0.640625 56.15625 5.5625 
L 56.15625 69.390625 
L 32.03125 69.390625 
Q 31.890625 68.75 31.734375 67.1875 
Q 30.90625 62.5 28.71875 54.984375 
L 46.921875 54.984375 
L 51.03125 51.90625 
Q 47.3125 30.28125 38.625 16.0625 
Q 29.78125 1.859375 11.53125 -6.84375 
L 6.546875 -0.734375 
Q 24.078125 6.453125 33.34375 21.578125 
z
M 36.8125 28.078125 
Q 41.359375 37.890625 43.109375 48.6875 
L 26.609375 48.6875 
Q 25.046875 44.4375 22.65625 39.59375 
Q 30.71875 34.1875 36.8125 28.078125 
z
" id="IPAexGothic-27515"/>
      <path d="M 75.59375 19.28125 
Q 68.890625 1.65625 50 -7.71875 
L 45.015625 -3.078125 
Q 62.0625 4.59375 68.796875 19.28125 
L 59.421875 19.28125 
Q 51.46875 5.375 33.40625 -2.875 
L 28.90625 2.09375 
Q 43.953125 7.671875 52.59375 19.28125 
L 42.28125 19.28125 
Q 37.15625 14.109375 30.71875 10.59375 
L 25.921875 15.09375 
Q 36.71875 20.515625 42.921875 29.109375 
L 26.703125 29.109375 
L 26.703125 34.625 
L 94.28125 34.625 
L 94.28125 29.109375 
L 50.09375 29.109375 
Q 48.828125 27.09375 46.828125 24.359375 
L 90.921875 24.359375 
Q 90.484375 9.03125 88.8125 1.125 
Q 87.15625 -6.59375 78.125 -6.59375 
Q 72.5625 -6.59375 68.796875 -6 
L 67.71875 1.125 
Q 72.65625 -0.09375 77.09375 -0.09375 
Q 81.296875 -0.09375 82.234375 3.21875 
Q 83.546875 7.859375 83.984375 19.28125 
z
M 40.828125 63.8125 
L 82.125 63.8125 
L 82.125 39.40625 
L 39.3125 39.40625 
L 39.3125 61.625 
Q 36.375 56.84375 32.03125 52.296875 
L 27.203125 57.125 
Q 37.59375 67.921875 41.890625 83.296875 
L 48.828125 82.03125 
Q 47.515625 78.125 46.09375 74.3125 
L 89.9375 74.3125 
L 89.9375 68.796875 
L 43.609375 68.796875 
Q 42.625 66.796875 40.828125 63.8125 
z
M 75.4375 58.734375 
L 45.90625 58.734375 
L 45.90625 54.203125 
L 75.4375 54.203125 
z
M 75.4375 49.21875 
L 45.90625 49.21875 
L 45.90625 44.484375 
L 75.4375 44.484375 
z
M 21.6875 58.015625 
L 21.6875 -6.984375 
L 14.890625 -6.984375 
L 14.890625 41.890625 
Q 11.578125 35.203125 7.515625 29.203125 
L 3.8125 35.40625 
Q 16.15625 55.125 21.578125 82.90625 
L 28.171875 81.296875 
Q 25.53125 69.09375 21.6875 58.015625 
z
" id="IPAexGothic-20663"/>
      <path d="M 67.625 64.890625 
Q 73.34375 71.09375 78.71875 78.515625 
L 85.203125 74.90625 
Q 77.546875 64.65625 64.5 52.6875 
L 94.390625 52.6875 
L 94.390625 46.296875 
L 57.125 46.296875 
Q 51.859375 42.234375 43.40625 36.53125 
L 79.5 36.53125 
L 79.5 -6.984375 
L 72.40625 -6.984375 
L 72.40625 -2.484375 
L 34.578125 -2.484375 
L 34.578125 -6.984375 
L 27.484375 -6.984375 
L 27.484375 26.703125 
Q 17.828125 21.234375 7.46875 16.796875 
L 3.609375 23 
Q 25.984375 31.59375 45.90625 45.515625 
L 5.375 45.515625 
L 5.375 51.90625 
L 42.234375 51.90625 
L 42.234375 64.203125 
L 17.578125 64.203125 
L 17.578125 70.3125 
L 42.828125 70.3125 
L 42.828125 83.015625 
L 49.90625 83.015625 
L 49.90625 70.3125 
L 67.625 70.3125 
z
M 66.890625 64.203125 
L 49.3125 64.203125 
L 49.3125 51.90625 
L 54.109375 51.90625 
Q 61.8125 58.546875 66.890625 64.203125 
z
M 34.578125 30.515625 
L 34.578125 20.40625 
L 72.40625 20.40625 
L 72.40625 30.515625 
z
M 34.578125 14.59375 
L 34.578125 3.609375 
L 72.40625 3.609375 
L 72.40625 14.59375 
z
" id="IPAexGothic-32773"/>
      <path d="M 44.484375 24.265625 
Q 42.828125 15.71875 37.890625 8.34375 
Q 41.015625 6.890625 48.296875 3.171875 
L 43.890625 -2.9375 
Q 39.703125 0 33.5 3.265625 
Q 24.515625 -4.546875 10.984375 -7.8125 
L 6.59375 -1.953125 
Q 19.734375 0.296875 27.296875 6.34375 
Q 19.09375 10.15625 11.46875 12.75 
Q 15.234375 18.3125 17.921875 23.484375 
L 18.3125 24.265625 
L 5.609375 24.265625 
L 5.609375 30.078125 
L 21 30.078125 
Q 21.96875 32.28125 24.515625 38.671875 
L 26.421875 38.28125 
L 26.421875 52.6875 
Q 19.53125 42.78125 8.59375 35.984375 
L 4.296875 41.609375 
Q 15.921875 47.078125 23.875 56.890625 
L 5.90625 56.890625 
L 5.90625 62.59375 
L 26.421875 62.59375 
L 26.421875 83.015625 
L 33.015625 83.015625 
L 33.015625 62.59375 
L 51.515625 62.59375 
L 51.515625 56.890625 
L 33.015625 56.890625 
L 33.015625 54.890625 
Q 41.546875 51.421875 49.609375 46.296875 
L 46.1875 40.375 
Q 39.890625 45.65625 33.015625 49.359375 
L 33.015625 37.0625 
L 30.71875 37.0625 
Q 30.125 35.75 29.25 33.453125 
Q 28.21875 30.859375 27.875 30.078125 
L 52.78125 30.078125 
L 52.78125 24.265625 
z
M 37.796875 24.265625 
L 25.203125 24.265625 
Q 23.09375 19.828125 20.515625 15.578125 
Q 24.359375 14.203125 31.984375 10.984375 
Q 36.140625 16.359375 37.796875 24.265625 
z
M 68.171875 18.171875 
Q 61.765625 27.828125 58.40625 41.21875 
Q 55.859375 35.640625 53.5625 31.5 
L 48.484375 37.59375 
Q 57.421875 53.8125 61.1875 82.671875 
L 68.171875 81.25 
Q 66.9375 72.90625 65.578125 65.578125 
L 93.890625 65.578125 
L 93.890625 58.984375 
L 85.984375 58.984375 
Q 84.328125 35.546875 76.078125 18.609375 
Q 84.671875 7.859375 96 1.171875 
L 90.96875 -5.90625 
Q 81.0625 1.65625 72.359375 12.3125 
Q 64.265625 0.53125 52.203125 -7.234375 
L 47.359375 -1.21875 
Q 60.75 6.34375 68.171875 18.171875 
z
M 71.6875 24.90625 
Q 77.15625 37.3125 79.046875 58.984375 
L 64.0625 58.984375 
Q 63.140625 54.984375 62.0625 51.375 
Q 62.203125 50.78125 62.359375 49.90625 
Q 65.234375 35.25 71.6875 24.90625 
z
M 15.671875 64.3125 
Q 13.71875 71 9.96875 77.09375 
L 16.453125 79.59375 
Q 19.484375 74.8125 22.46875 66.703125 
z
M 36.1875 66.703125 
Q 39.84375 73.25 42 80.171875 
L 48.875 78.078125 
Q 46.34375 71.6875 41.796875 64.5 
z
" id="IPAexGothic-25968"/>
     </defs>
     <g transform="translate(14.690625 175.256)rotate(-90)scale(0.1 -0.1)">
      <use xlink:href="#IPAexGothic-27497"/>
      <use x="100" xlink:href="#IPAexGothic-34892"/>
      <use x="200" xlink:href="#IPAexGothic-20013"/>
      <use x="300" xlink:href="#IPAexGothic-27515"/>
      <use x="400" xlink:href="#IPAexGothic-20663"/>
      <use x="500" xlink:href="#IPAexGothic-32773"/>
      <use x="600" xlink:href="#IPAexGothic-25968"/>
     </g>
    </g>
   </g>
   <g id="line2d_25">
    <path clip-path="url(#p2534090dc9)" d="M 62.718665 261.216 
L 66.100483 229.287472 
L 69.482301 218.644629 
L 72.864119 203.089706 
L 76.245938 192.856203 
L 79.627756 101.36869 
L 83.009574 19.296 
L 86.391392 80.083005 
L 89.77321 131.250518 
L 93.155028 166.863107 
L 96.536847 196.335594 
L 99.918665 201.043005 
L 103.300483 207.183107 
L 106.682301 220.07732 
L 110.064119 220.896 
L 113.445938 213.118538 
L 116.827756 212.504528 
L 120.209574 212.299858 
L 123.591392 203.703716 
L 126.97321 197.972954 
L 130.355028 194.902904 
L 133.736847 188.353462 
L 137.118665 184.260061 
L 140.500483 183.441381 
L 143.882301 183.236711 
L 147.264119 182.827371 
L 150.645938 188.558132 
L 154.027756 192.651533 
L 157.409574 192.446863 
L 160.791392 196.130924 
L 164.17321 199.405645 
L 167.555028 199.610315 
L 170.936847 200.224325 
L 174.318665 204.727066 
L 177.700483 203.294376 
L 181.082301 203.703716 
L 184.464119 206.159756 
L 187.845937 206.364426 
L 191.227756 206.569096 
L 194.609574 209.434477 
L 197.991392 207.797117 
L 201.37321 208.001787 
L 204.755028 206.569096 
L 208.136847 204.931736 
L 211.518665 203.294376 
L 214.900483 202.475695 
L 218.282301 201.247675 
L 221.664119 199.610315 
L 225.045938 200.428995 
L 228.427756 181.80402 
L 231.809574 200.224325 
L 235.191392 195.516914 
L 238.57321 193.674883 
L 241.955028 196.744934 
L 245.336847 194.084223 
L 248.718665 195.516914 
L 252.100483 202.066355 
L 255.482301 198.586964 
L 258.864119 195.721584 
L 262.245938 199.610315 
L 265.627756 199.200975 
L 269.009574 198.996305 
L 272.391392 198.586964 
L 275.77321 194.902904 
L 279.155028 192.651533 
L 282.536847 192.856203 
L 285.918665 201.657015 
L 289.300483 202.680365 
L 292.682301 200.224325 
L 296.064119 154.787574 
L 299.445938 167.272447 
L 302.827756 181.80402 
L 306.209574 171.979858 
L 309.591392 170.751838 
L 312.97321 165.021076 
L 316.355028 153.764223 
L 319.736847 132.069198 
L 323.118665 144.349401 
L 326.500483 145.168081 
L 329.882301 146.396102 
L 333.264119 141.07468 
L 336.645938 137.799959 
L 340.027756 141.89336 
L 343.409574 148.647472 
L 346.791392 151.922193 
L 350.17321 148.647472 
L 353.555028 162.360365 
L 356.936847 168.500467 
L 360.318665 180.16666 
L 363.700483 192.651533 
L 367.082301 195.107574 
L 370.464119 204.931736 
L 373.845937 219.05397 
L 377.227756 226.217421 
L 380.609574 229.901482 
L 383.991392 237.064934 
L 387.37321 249.754477 
" style="fill:none;stroke:#1f77b4;stroke-linecap:square;stroke-width:1.5;"/>
    <defs>
     <path d="M 0 3 
C 0.795609 3 1.55874 2.683901 2.12132 2.12132 
C 2.683901 1.55874 3 0.795609 3 0 
C 3 -0.795609 2.683901 -1.55874 2.12132 -2.12132 
C 1.55874 -2.683901 0.795609 -3 0 -3 
C -0.795609 -3 -1.55874 -2.683901 -2.12132 -2.12132 
C -2.683901 -1.55874 -3 -0.795609 -3 0 
C -3 0.795609 -2.683901 1.55874 -2.12132 2.12132 
C -1.55874 2.683901 -0.795609 3 0 3 
z
" id="m28e19eb370" style="stroke:#1f77b4;"/>
    </defs>
    <g clip-path="url(#p2534090dc9)">
     <use style="fill:#1f77b4;stroke:#1f77b4;" x="62.718665" xlink:href="#m28e19eb370" y="261.216"/>
     <use style="fill:#1f77b4;stroke:#1f77b4;" x="66.100483" xlink:href="#m28e19eb370" y="229.287472"/>
     <use style="fill:#1f77b4;stroke:#1f77b4;" x="69.482301" xlink:href="#m28e19eb370" y="218.644629"/>
     <use style="fill:#1f77b4;stroke:#1f77b4;" x="72.864119" xlink:href="#m28e19eb370" y="203.089706"/>
     <use style="fill:#1f77b4;stroke:#1f77b4;" x="76.245938" xlink:href="#m28e19eb370" y="192.856203"/>
     <use style="fill:#1f77b4;stroke:#1f77b4;" x="79.627756" xlink:href="#m28e19eb370" y="101.36869"/>
     <use style="fill:#1f77b4;stroke:#1f77b4;" x="83.009574" xlink:href="#m28e19eb370" y="19.296"/>
     <use style="fill:#1f77b4;stroke:#1f77b4;" x="86.391392" xlink:href="#m28e19eb370" y="80.083005"/>
     <use style="fill:#1f77b4;stroke:#1f77b4;" x="89.77321" xlink:href="#m28e19eb370" y="131.250518"/>
     <use style="fill:#1f77b4;stroke:#1f77b4;" x="93.155028" xlink:href="#m28e19eb370" y="166.863107"/>
     <use style="fill:#1f77b4;stroke:#1f77b4;" x="96.536847" xlink:href="#m28e19eb370" y="196.335594"/>
     <use style="fill:#1f77b4;stroke:#1f77b4;" x="99.918665" xlink:href="#m28e19eb370" y="201.043005"/>
     <use style="fill:#1f77b4;stroke:#1f77b4;" x="103.300483" xlink:href="#m28e19eb370" y="207.183107"/>
     <use style="fill:#1f77b4;stroke:#1f77b4;" x="106.682301" xlink:href="#m28e19eb370" y="220.07732"/>
     <use style="fill:#1f77b4;stroke:#1f77b4;" x="110.064119" xlink:href="#m28e19eb370" y="220.896"/>
     <use style="fill:#1f77b4;stroke:#1f77b4;" x="113.445938" xlink:href="#m28e19eb370" y="213.118538"/>
     <use style="fill:#1f77b4;stroke:#1f77b4;" x="116.827756" xlink:href="#m28e19eb370" y="212.504528"/>
     <use style="fill:#1f77b4;stroke:#1f77b4;" x="120.209574" xlink:href="#m28e19eb370" y="212.299858"/>
     <use style="fill:#1f77b4;stroke:#1f77b4;" x="123.591392" xlink:href="#m28e19eb370" y="203.703716"/>
     <use style="fill:#1f77b4;stroke:#1f77b4;" x="126.97321" xlink:href="#m28e19eb370" y="197.972954"/>
     <use style="fill:#1f77b4;stroke:#1f77b4;" x="130.355028" xlink:href="#m28e19eb370" y="194.902904"/>
     <use style="fill:#1f77b4;stroke:#1f77b4;" x="133.736847" xlink:href="#m28e19eb370" y="188.353462"/>
     <use style="fill:#1f77b4;stroke:#1f77b4;" x="137.118665" xlink:href="#m28e19eb370" y="184.260061"/>
     <use style="fill:#1f77b4;stroke:#1f77b4;" x="140.500483" xlink:href="#m28e19eb370" y="183.441381"/>
     <use style="fill:#1f77b4;stroke:#1f77b4;" x="143.882301" xlink:href="#m28e19eb370" y="183.236711"/>
     <use style="fill:#1f77b4;stroke:#1f77b4;" x="147.264119" xlink:href="#m28e19eb370" y="182.827371"/>
     <use style="fill:#1f77b4;stroke:#1f77b4;" x="150.645938" xlink:href="#m28e19eb370" y="188.558132"/>
     <use style="fill:#1f77b4;stroke:#1f77b4;" x="154.027756" xlink:href="#m28e19eb370" y="192.651533"/>
     <use style="fill:#1f77b4;stroke:#1f77b4;" x="157.409574" xlink:href="#m28e19eb370" y="192.446863"/>
     <use style="fill:#1f77b4;stroke:#1f77b4;" x="160.791392" xlink:href="#m28e19eb370" y="196.130924"/>
     <use style="fill:#1f77b4;stroke:#1f77b4;" x="164.17321" xlink:href="#m28e19eb370" y="199.405645"/>
     <use style="fill:#1f77b4;stroke:#1f77b4;" x="167.555028" xlink:href="#m28e19eb370" y="199.610315"/>
     <use style="fill:#1f77b4;stroke:#1f77b4;" x="170.936847" xlink:href="#m28e19eb370" y="200.224325"/>
     <use style="fill:#1f77b4;stroke:#1f77b4;" x="174.318665" xlink:href="#m28e19eb370" y="204.727066"/>
     <use style="fill:#1f77b4;stroke:#1f77b4;" x="177.700483" xlink:href="#m28e19eb370" y="203.294376"/>
     <use style="fill:#1f77b4;stroke:#1f77b4;" x="181.082301" xlink:href="#m28e19eb370" y="203.703716"/>
     <use style="fill:#1f77b4;stroke:#1f77b4;" x="184.464119" xlink:href="#m28e19eb370" y="206.159756"/>
     <use style="fill:#1f77b4;stroke:#1f77b4;" x="187.845937" xlink:href="#m28e19eb370" y="206.364426"/>
     <use style="fill:#1f77b4;stroke:#1f77b4;" x="191.227756" xlink:href="#m28e19eb370" y="206.569096"/>
     <use style="fill:#1f77b4;stroke:#1f77b4;" x="194.609574" xlink:href="#m28e19eb370" y="209.434477"/>
     <use style="fill:#1f77b4;stroke:#1f77b4;" x="197.991392" xlink:href="#m28e19eb370" y="207.797117"/>
     <use style="fill:#1f77b4;stroke:#1f77b4;" x="201.37321" xlink:href="#m28e19eb370" y="208.001787"/>
     <use style="fill:#1f77b4;stroke:#1f77b4;" x="204.755028" xlink:href="#m28e19eb370" y="206.569096"/>
     <use style="fill:#1f77b4;stroke:#1f77b4;" x="208.136847" xlink:href="#m28e19eb370" y="204.931736"/>
     <use style="fill:#1f77b4;stroke:#1f77b4;" x="211.518665" xlink:href="#m28e19eb370" y="203.294376"/>
     <use style="fill:#1f77b4;stroke:#1f77b4;" x="214.900483" xlink:href="#m28e19eb370" y="202.475695"/>
     <use style="fill:#1f77b4;stroke:#1f77b4;" x="218.282301" xlink:href="#m28e19eb370" y="201.247675"/>
     <use style="fill:#1f77b4;stroke:#1f77b4;" x="221.664119" xlink:href="#m28e19eb370" y="199.610315"/>
     <use style="fill:#1f77b4;stroke:#1f77b4;" x="225.045938" xlink:href="#m28e19eb370" y="200.428995"/>
     <use style="fill:#1f77b4;stroke:#1f77b4;" x="228.427756" xlink:href="#m28e19eb370" y="181.80402"/>
     <use style="fill:#1f77b4;stroke:#1f77b4;" x="231.809574" xlink:href="#m28e19eb370" y="200.224325"/>
     <use style="fill:#1f77b4;stroke:#1f77b4;" x="235.191392" xlink:href="#m28e19eb370" y="195.516914"/>
     <use style="fill:#1f77b4;stroke:#1f77b4;" x="238.57321" xlink:href="#m28e19eb370" y="193.674883"/>
     <use style="fill:#1f77b4;stroke:#1f77b4;" x="241.955028" xlink:href="#m28e19eb370" y="196.744934"/>
     <use style="fill:#1f77b4;stroke:#1f77b4;" x="245.336847" xlink:href="#m28e19eb370" y="194.084223"/>
     <use style="fill:#1f77b4;stroke:#1f77b4;" x="248.718665" xlink:href="#m28e19eb370" y="195.516914"/>
     <use style="fill:#1f77b4;stroke:#1f77b4;" x="252.100483" xlink:href="#m28e19eb370" y="202.066355"/>
     <use style="fill:#1f77b4;stroke:#1f77b4;" x="255.482301" xlink:href="#m28e19eb370" y="198.586964"/>
     <use style="fill:#1f77b4;stroke:#1f77b4;" x="258.864119" xlink:href="#m28e19eb370" y="195.721584"/>
     <use style="fill:#1f77b4;stroke:#1f77b4;" x="262.245938" xlink:href="#m28e19eb370" y="199.610315"/>
     <use style="fill:#1f77b4;stroke:#1f77b4;" x="265.627756" xlink:href="#m28e19eb370" y="199.200975"/>
     <use style="fill:#1f77b4;stroke:#1f77b4;" x="269.009574" xlink:href="#m28e19eb370" y="198.996305"/>
     <use style="fill:#1f77b4;stroke:#1f77b4;" x="272.391392" xlink:href="#m28e19eb370" y="198.586964"/>
     <use style="fill:#1f77b4;stroke:#1f77b4;" x="275.77321" xlink:href="#m28e19eb370" y="194.902904"/>
     <use style="fill:#1f77b4;stroke:#1f77b4;" x="279.155028" xlink:href="#m28e19eb370" y="192.651533"/>
     <use style="fill:#1f77b4;stroke:#1f77b4;" x="282.536847" xlink:href="#m28e19eb370" y="192.856203"/>
     <use style="fill:#1f77b4;stroke:#1f77b4;" x="285.918665" xlink:href="#m28e19eb370" y="201.657015"/>
     <use style="fill:#1f77b4;stroke:#1f77b4;" x="289.300483" xlink:href="#m28e19eb370" y="202.680365"/>
     <use style="fill:#1f77b4;stroke:#1f77b4;" x="292.682301" xlink:href="#m28e19eb370" y="200.224325"/>
     <use style="fill:#1f77b4;stroke:#1f77b4;" x="296.064119" xlink:href="#m28e19eb370" y="154.787574"/>
     <use style="fill:#1f77b4;stroke:#1f77b4;" x="299.445938" xlink:href="#m28e19eb370" y="167.272447"/>
     <use style="fill:#1f77b4;stroke:#1f77b4;" x="302.827756" xlink:href="#m28e19eb370" y="181.80402"/>
     <use style="fill:#1f77b4;stroke:#1f77b4;" x="306.209574" xlink:href="#m28e19eb370" y="171.979858"/>
     <use style="fill:#1f77b4;stroke:#1f77b4;" x="309.591392" xlink:href="#m28e19eb370" y="170.751838"/>
     <use style="fill:#1f77b4;stroke:#1f77b4;" x="312.97321" xlink:href="#m28e19eb370" y="165.021076"/>
     <use style="fill:#1f77b4;stroke:#1f77b4;" x="316.355028" xlink:href="#m28e19eb370" y="153.764223"/>
     <use style="fill:#1f77b4;stroke:#1f77b4;" x="319.736847" xlink:href="#m28e19eb370" y="132.069198"/>
     <use style="fill:#1f77b4;stroke:#1f77b4;" x="323.118665" xlink:href="#m28e19eb370" y="144.349401"/>
     <use style="fill:#1f77b4;stroke:#1f77b4;" x="326.500483" xlink:href="#m28e19eb370" y="145.168081"/>
     <use style="fill:#1f77b4;stroke:#1f77b4;" x="329.882301" xlink:href="#m28e19eb370" y="146.396102"/>
     <use style="fill:#1f77b4;stroke:#1f77b4;" x="333.264119" xlink:href="#m28e19eb370" y="141.07468"/>
     <use style="fill:#1f77b4;stroke:#1f77b4;" x="336.645938" xlink:href="#m28e19eb370" y="137.799959"/>
     <use style="fill:#1f77b4;stroke:#1f77b4;" x="340.027756" xlink:href="#m28e19eb370" y="141.89336"/>
     <use style="fill:#1f77b4;stroke:#1f77b4;" x="343.409574" xlink:href="#m28e19eb370" y="148.647472"/>
     <use style="fill:#1f77b4;stroke:#1f77b4;" x="346.791392" xlink:href="#m28e19eb370" y="151.922193"/>
     <use style="fill:#1f77b4;stroke:#1f77b4;" x="350.17321" xlink:href="#m28e19eb370" y="148.647472"/>
     <use style="fill:#1f77b4;stroke:#1f77b4;" x="353.555028" xlink:href="#m28e19eb370" y="162.360365"/>
     <use style="fill:#1f77b4;stroke:#1f77b4;" x="356.936847" xlink:href="#m28e19eb370" y="168.500467"/>
     <use style="fill:#1f77b4;stroke:#1f77b4;" x="360.318665" xlink:href="#m28e19eb370" y="180.16666"/>
     <use style="fill:#1f77b4;stroke:#1f77b4;" x="363.700483" xlink:href="#m28e19eb370" y="192.651533"/>
     <use style="fill:#1f77b4;stroke:#1f77b4;" x="367.082301" xlink:href="#m28e19eb370" y="195.107574"/>
     <use style="fill:#1f77b4;stroke:#1f77b4;" x="370.464119" xlink:href="#m28e19eb370" y="204.931736"/>
     <use style="fill:#1f77b4;stroke:#1f77b4;" x="373.845937" xlink:href="#m28e19eb370" y="219.05397"/>
     <use style="fill:#1f77b4;stroke:#1f77b4;" x="377.227756" xlink:href="#m28e19eb370" y="226.217421"/>
     <use style="fill:#1f77b4;stroke:#1f77b4;" x="380.609574" xlink:href="#m28e19eb370" y="229.901482"/>
     <use style="fill:#1f77b4;stroke:#1f77b4;" x="383.991392" xlink:href="#m28e19eb370" y="237.064934"/>
     <use style="fill:#1f77b4;stroke:#1f77b4;" x="387.37321" xlink:href="#m28e19eb370" y="249.754477"/>
    </g>
   </g>
   <g id="patch_3">
    <path d="M 46.485938 273.312 
L 46.485938 7.2 
" style="fill:none;stroke:#000000;stroke-linecap:square;stroke-linejoin:miter;stroke-width:0.8;"/>
   </g>
   <g id="patch_4">
    <path d="M 403.605937 273.312 
L 403.605937 7.2 
" style="fill:none;stroke:#000000;stroke-linecap:square;stroke-linejoin:miter;stroke-width:0.8;"/>
   </g>
   <g id="patch_5">
    <path d="M 46.485938 273.312 
L 403.605937 273.312 
" style="fill:none;stroke:#000000;stroke-linecap:square;stroke-linejoin:miter;stroke-width:0.8;"/>
   </g>
   <g id="patch_6">
    <path d="M 46.485938 7.2 
L 403.605937 7.2 
" style="fill:none;stroke:#000000;stroke-linecap:square;stroke-linejoin:miter;stroke-width:0.8;"/>
   </g>
  </g>
 </g>
 <defs>
  <clipPath id="p2534090dc9">
   <rect height="266.112" width="357.12" x="46.485938" y="7.2"/>
  </clipPath>
 </defs>
</svg>
