<?xml version="1.0" encoding="utf-8" standalone="no"?>
<!DOCTYPE svg PUBLIC "-//W3C//DTD SVG 1.1//EN"
  "http://www.w3.org/Graphics/SVG/1.1/DTD/svg11.dtd">
<!-- Created with matplotlib (https://matplotlib.org/) -->
<svg height="320.239875pt" version="1.1" viewBox="0 0 403.71375 320.239875" width="403.71375pt" xmlns="http://www.w3.org/2000/svg" xmlns:xlink="http://www.w3.org/1999/xlink">
 <metadata>
  <rdf:RDF xmlns:cc="http://creativecommons.org/ns#" xmlns:dc="http://purl.org/dc/elements/1.1/" xmlns:rdf="http://www.w3.org/1999/02/22-rdf-syntax-ns#">
   <cc:Work>
    <dc:type rdf:resource="http://purl.org/dc/dcmitype/StillImage"/>
    <dc:date>2020-08-07T07:40:22.559723</dc:date>
    <dc:format>image/svg+xml</dc:format>
    <dc:creator>
     <cc:Agent>
      <dc:title>Matplotlib v3.3.0, https://matplotlib.org/</dc:title>
     </cc:Agent>
    </dc:creator>
   </cc:Work>
  </rdf:RDF>
 </metadata>
 <defs>
  <style type="text/css">*{stroke-linecap:butt;stroke-linejoin:round;}</style>
 </defs>
 <g id="figure_1">
  <g id="patch_1">
   <path d="M 0 320.239875 
L 403.71375 320.239875 
L 403.71375 0 
L 0 0 
z
" style="fill:#ffffff;"/>
  </g>
  <g id="axes_1">
   <g id="patch_2">
    <path d="M 39.39375 284.258625 
L 396.51375 284.258625 
L 396.51375 18.146625 
L 39.39375 18.146625 
z
" style="fill:#ffffff;"/>
   </g>
   <g id="matplotlib.axis_1">
    <g id="xtick_1">
     <g id="line2d_1">
      <defs>
       <path d="M 0 0 
L 0 3.5 
" id="ma7d802b977" style="stroke:#000000;stroke-width:0.8;"/>
      </defs>
      <g>
       <use style="stroke:#000000;stroke-width:0.8;" x="52.620417" xlink:href="#ma7d802b977" y="284.258625"/>
      </g>
     </g>
     <g id="text_1">
      <!-- 2020 -->
      <g transform="translate(40.023542 298.74925)scale(0.1 -0.1)">
       <defs>
        <path d="M 57.171875 0.984375 
L 6.984375 0.984375 
L 6.984375 9.28125 
Q 12.890625 23.046875 29.59375 34.421875 
L 32.375 36.28125 
Q 40.921875 42.140625 43.609375 45.40625 
Q 46.6875 49.265625 46.6875 53.8125 
Q 46.6875 58.9375 43.0625 62.546875 
Q 39.0625 66.546875 32.5625 66.546875 
Q 19.53125 66.546875 15.484375 52 
L 7.765625 54.78125 
Q 13.328125 73.828125 33.0625 73.828125 
Q 43.84375 73.828125 50.25 67.4375 
Q 55.859375 61.671875 55.859375 53.515625 
Q 55.859375 47.46875 52.25 42.53125 
Q 48.921875 37.75 36.96875 30.28125 
L 34.859375 29 
Q 19.625 19.578125 15.28125 8.890625 
L 57.171875 8.890625 
z
" id="IPAexGothic-50"/>
        <path d="M 31.84375 73.828125 
Q 45.015625 73.828125 52.09375 61.625 
Q 57.71875 51.953125 57.71875 36.625 
Q 57.71875 21.4375 52.09375 11.578125 
Q 45.125 -0.484375 31.5 -0.484375 
Q 17.921875 -0.484375 10.9375 11.578125 
Q 5.328125 21.4375 5.328125 36.71875 
Q 5.328125 58.015625 15.625 67.71875 
Q 22.171875 73.828125 31.84375 73.828125 
z
M 31.5 66.65625 
Q 23.6875 66.65625 19.1875 58.734375 
Q 14.59375 50.734375 14.59375 36.625 
Q 14.59375 22.75 19.09375 14.796875 
Q 23.640625 6.984375 31.5 6.984375 
Q 40.921875 6.984375 45.453125 18.015625 
Q 48.4375 25.34375 48.4375 37.109375 
Q 48.4375 50.875 43.84375 58.734375 
Q 39.203125 66.65625 31.5 66.65625 
z
" id="IPAexGothic-48"/>
       </defs>
       <use xlink:href="#IPAexGothic-50"/>
       <use x="62.988281" xlink:href="#IPAexGothic-48"/>
       <use x="125.976562" xlink:href="#IPAexGothic-50"/>
       <use x="188.964844" xlink:href="#IPAexGothic-48"/>
      </g>
     </g>
    </g>
    <g id="xtick_2">
     <g id="line2d_2">
      <g>
       <use style="stroke:#000000;stroke-width:0.8;" x="99.214356" xlink:href="#ma7d802b977" y="284.258625"/>
      </g>
     </g>
     <g id="text_2">
      <!-- Feb -->
      <g transform="translate(90.390919 298.74925)scale(0.1 -0.1)">
       <defs>
        <path d="M 54.203125 64.703125 
L 18.3125 64.703125 
L 18.3125 41.5 
L 50.09375 41.5 
L 50.09375 34.1875 
L 18.3125 34.1875 
L 18.3125 0.984375 
L 9.515625 0.984375 
L 9.515625 72.40625 
L 54.203125 72.40625 
z
" id="IPAexGothic-70"/>
        <path d="M 13.484375 24.90625 
Q 13.921875 16.265625 18.890625 11.28125 
Q 23.96875 6.203125 31.203125 6.203125 
Q 40.71875 6.203125 46.296875 15.09375 
L 51.90625 11.375 
Q 44.828125 -0.484375 30.171875 -0.484375 
Q 19.09375 -0.484375 11.96875 6.59375 
Q 4.78125 13.8125 4.78125 25.640625 
Q 4.78125 38.1875 12.3125 45.703125 
Q 19 52.390625 29 52.390625 
Q 38.421875 52.390625 44.78125 46.1875 
Q 51.90625 38.96875 51.90625 26.90625 
L 51.90625 24.90625 
z
M 43.0625 31.203125 
Q 42.328125 37.984375 38.28125 41.890625 
Q 34.28125 45.90625 28.8125 45.90625 
Q 22.46875 45.90625 17.96875 40.484375 
Q 14.890625 36.8125 13.96875 31.203125 
z
" id="IPAexGothic-101"/>
        <path d="M 17.578125 42.671875 
Q 24.21875 52.203125 34.671875 52.203125 
Q 43.5625 52.203125 49.859375 45.90625 
Q 57.171875 38.578125 57.171875 25.6875 
Q 57.171875 13.09375 49.859375 5.8125 
Q 43.5625 -0.484375 34.46875 -0.484375 
Q 24.359375 -0.484375 17 8.0625 
L 15.765625 0.6875 
L 9.078125 0.6875 
L 9.078125 74.90625 
L 17.578125 74.90625 
z
M 17.578125 31.203125 
L 17.578125 19.578125 
Q 17.578125 13.875 23.875 9.375 
Q 28.171875 6.296875 33.109375 6.296875 
Q 38.875 6.296875 42.875 10.296875 
Q 48.1875 15.765625 48.1875 25.484375 
Q 48.1875 34.28125 43.796875 39.890625 
Q 39.453125 45.3125 33.203125 45.3125 
Q 27.484375 45.3125 22.46875 40.28125 
Q 17.578125 35.40625 17.578125 31.203125 
z
" id="IPAexGothic-98"/>
       </defs>
       <use xlink:href="#IPAexGothic-70"/>
       <use x="57.177734" xlink:href="#IPAexGothic-101"/>
       <use x="114.0625" xlink:href="#IPAexGothic-98"/>
      </g>
     </g>
    </g>
    <g id="xtick_3">
     <g id="line2d_3">
      <g>
       <use style="stroke:#000000;stroke-width:0.8;" x="142.802235" xlink:href="#ma7d802b977" y="284.258625"/>
      </g>
     </g>
     <g id="text_3">
      <!-- Mar -->
      <g transform="translate(133.69286 298.74925)scale(0.1 -0.1)">
       <defs>
        <path d="M 80.421875 0.984375 
L 71.828125 0.984375 
L 71.828125 39.59375 
Q 71.828125 51.265625 72.40625 64.59375 
L 72.015625 64.59375 
Q 68.0625 53.265625 63.53125 41.796875 
L 47.90625 3.265625 
L 41.40625 3.265625 
L 25.640625 42.578125 
Q 20.75 54.78125 17.625 64.703125 
L 17.234375 64.703125 
Q 17.828125 48.921875 17.828125 39.890625 
L 17.828125 0.984375 
L 9.515625 0.984375 
L 9.515625 72.40625 
L 22.125 72.40625 
L 39.109375 30.375 
Q 42.140625 23 44.828125 14.15625 
L 45.125 14.15625 
Q 47.3125 22.125 50.53125 30.171875 
L 67.4375 72.40625 
L 80.421875 72.40625 
z
" id="IPAexGothic-77"/>
        <path d="M 49.3125 0.984375 
L 41.75 0.984375 
Q 39.984375 4.734375 39.546875 8.6875 
L 39.203125 8.6875 
Q 33.546875 -0.390625 22.3125 -0.390625 
Q 14.59375 -0.390625 9.71875 4.5 
Q 5.421875 8.796875 5.421875 14.984375 
Q 5.421875 30.421875 32.03125 31.203125 
L 38.71875 31.390625 
L 38.71875 33.984375 
Q 38.71875 39.203125 35.75 42.1875 
Q 32.625 45.3125 27.734375 45.3125 
Q 19.34375 45.3125 15.140625 37.15625 
L 7.71875 40.578125 
Q 14.65625 52 27.9375 52 
Q 37.109375 52 42.046875 46.875 
Q 46.625 42.28125 46.625 33.890625 
L 46.625 15.578125 
Q 46.625 6.25 49.3125 0.984375 
z
M 38.921875 25.390625 
L 33.453125 25.296875 
Q 14.109375 24.859375 14.109375 14.890625 
Q 14.109375 11.375 16.40625 9.078125 
Q 19.234375 6.296875 23.828125 6.296875 
Q 30.21875 6.296875 34.90625 10.984375 
Q 38.921875 15.140625 38.921875 21 
z
" id="IPAexGothic-97"/>
        <path d="M 36.078125 51.8125 
L 34.578125 43.265625 
Q 32.90625 43.609375 31.59375 43.609375 
Q 25.828125 43.609375 22.078125 38.1875 
Q 17.390625 31.34375 17.390625 26.171875 
L 17.390625 0.984375 
L 8.796875 0.984375 
L 8.796875 50.78125 
L 16.890625 50.78125 
L 16.5 35.984375 
L 16.703125 35.984375 
Q 22.21875 52.203125 32.765625 52.203125 
Q 34.46875 52.203125 36.078125 51.8125 
z
" id="IPAexGothic-114"/>
       </defs>
       <use xlink:href="#IPAexGothic-77"/>
       <use x="90.185547" xlink:href="#IPAexGothic-97"/>
       <use x="145.166016" xlink:href="#IPAexGothic-114"/>
      </g>
     </g>
    </g>
    <g id="xtick_4">
     <g id="line2d_4">
      <g>
       <use style="stroke:#000000;stroke-width:0.8;" x="189.396174" xlink:href="#ma7d802b977" y="284.258625"/>
      </g>
     </g>
     <g id="text_4">
      <!-- Apr -->
      <g transform="translate(181.253987 298.74925)scale(0.1 -0.1)">
       <defs>
        <path d="M 63.375 0.984375 
L 53.8125 0.984375 
L 45.90625 22.015625 
L 17.1875 22.015625 
L 9.421875 0.984375 
L -0.09375 0.984375 
L 28.21875 72.90625 
L 35.296875 72.90625 
z
M 43.40625 29.109375 
L 36.1875 48.09375 
Q 33.203125 56.0625 31.6875 62.5 
L 31.390625 62.5 
Q 29.640625 55.671875 26.8125 48.09375 
L 19.734375 29.109375 
z
" id="IPAexGothic-65"/>
        <path d="M 16.796875 42 
Q 23.828125 52.203125 34.46875 52.203125 
Q 43.265625 52.203125 49.5625 45.90625 
Q 56.890625 38.578125 56.890625 25.6875 
Q 56.890625 13.140625 49.65625 5.8125 
Q 43.359375 -0.484375 34.375 -0.484375 
Q 24.515625 -0.484375 17.28125 7.765625 
L 17.28125 -19 
L 8.796875 -19 
L 8.796875 50.78125 
L 16.796875 50.78125 
z
M 17.28125 30.46875 
L 17.28125 20.171875 
Q 17.28125 14.015625 23.6875 9.375 
Q 27.984375 6.296875 32.90625 6.296875 
Q 38.578125 6.296875 42.578125 10.296875 
Q 47.90625 15.578125 47.90625 25.484375 
Q 47.90625 34.375 43.5 39.984375 
Q 39.109375 45.3125 32.8125 45.3125 
Q 25.875 45.3125 20.90625 38.8125 
Q 17.28125 34.125 17.28125 30.46875 
z
" id="IPAexGothic-112"/>
       </defs>
       <use xlink:href="#IPAexGothic-65"/>
       <use x="63.720703" xlink:href="#IPAexGothic-112"/>
       <use x="125.830078" xlink:href="#IPAexGothic-114"/>
      </g>
     </g>
    </g>
    <g id="xtick_5">
     <g id="line2d_5">
      <g>
       <use style="stroke:#000000;stroke-width:0.8;" x="234.487083" xlink:href="#ma7d802b977" y="284.258625"/>
      </g>
     </g>
     <g id="text_5">
      <!-- May -->
      <g transform="translate(224.767552 298.74925)scale(0.1 -0.1)">
       <defs>
        <path d="M 48.78125 50.78125 
L 24.609375 -7.625 
Q 19.96875 -18.796875 8.59375 -18.796875 
L 7.46875 -18.796875 
L 5.375 -10.984375 
L 6.984375 -10.984375 
Q 15.140625 -10.984375 17.96875 -3.71875 
L 21.1875 4.296875 
L 0.59375 50.78125 
L 10.296875 50.78125 
L 21.296875 22.796875 
Q 23.875 16.015625 25.09375 12.203125 
L 25.390625 12.203125 
Q 27.34375 18.265625 29.109375 22.796875 
L 39.5 50.78125 
z
" id="IPAexGothic-121"/>
       </defs>
       <use xlink:href="#IPAexGothic-77"/>
       <use x="90.185547" xlink:href="#IPAexGothic-97"/>
       <use x="145.166016" xlink:href="#IPAexGothic-121"/>
      </g>
     </g>
    </g>
    <g id="xtick_6">
     <g id="line2d_6">
      <g>
       <use style="stroke:#000000;stroke-width:0.8;" x="281.081023" xlink:href="#ma7d802b977" y="284.258625"/>
      </g>
     </g>
     <g id="text_6">
      <!-- Jun -->
      <g transform="translate(273.141179 298.74925)scale(0.1 -0.1)">
       <defs>
        <path d="M 28.421875 72.40625 
L 28.421875 19.28125 
Q 28.421875 -0.484375 11.921875 -0.484375 
Q 4.734375 -0.484375 -1.953125 3.265625 
L 1.3125 10.0625 
Q 5.90625 6.984375 10.84375 6.984375 
Q 19.53125 6.984375 19.53125 18.796875 
L 19.53125 72.40625 
z
" id="IPAexGothic-74"/>
        <path d="M 51.3125 0.984375 
L 43.3125 0.984375 
L 43.3125 10.0625 
Q 35.9375 0 25.390625 0 
Q 16.75 0 11.921875 5.859375 
Q 8.109375 10.59375 8.109375 19.390625 
L 8.109375 50.78125 
L 16.703125 50.78125 
L 16.703125 19.671875 
Q 16.703125 7.28125 27.09375 7.28125 
Q 37.59375 7.28125 42.71875 20.171875 
L 42.71875 50.78125 
L 51.3125 50.78125 
z
" id="IPAexGothic-117"/>
        <path d="M 52 0.984375 
L 43.40625 0.984375 
L 43.40625 31.890625 
Q 43.40625 44.578125 32.90625 44.578125 
Q 22.3125 44.578125 17.390625 31.890625 
L 17.390625 0.984375 
L 8.796875 0.984375 
L 8.796875 50.78125 
L 16.796875 50.78125 
L 16.796875 41.796875 
Q 23.828125 51.8125 34.71875 51.8125 
Q 52 51.8125 52 32.375 
z
" id="IPAexGothic-110"/>
       </defs>
       <use xlink:href="#IPAexGothic-74"/>
       <use x="37.988281" xlink:href="#IPAexGothic-117"/>
       <use x="98.388672" xlink:href="#IPAexGothic-110"/>
      </g>
     </g>
    </g>
    <g id="xtick_7">
     <g id="line2d_7">
      <g>
       <use style="stroke:#000000;stroke-width:0.8;" x="326.171932" xlink:href="#ma7d802b977" y="284.258625"/>
      </g>
     </g>
     <g id="text_7">
      <!-- Jul -->
      <g transform="translate(319.902401 298.74925)scale(0.1 -0.1)">
       <defs>
        <path d="M 17.671875 0.984375 
L 9.078125 0.984375 
L 9.078125 74.90625 
L 17.671875 74.90625 
z
" id="IPAexGothic-108"/>
       </defs>
       <use xlink:href="#IPAexGothic-74"/>
       <use x="37.988281" xlink:href="#IPAexGothic-117"/>
       <use x="98.388672" xlink:href="#IPAexGothic-108"/>
      </g>
     </g>
    </g>
    <g id="xtick_8">
     <g id="line2d_8">
      <g>
       <use style="stroke:#000000;stroke-width:0.8;" x="372.765871" xlink:href="#ma7d802b977" y="284.258625"/>
      </g>
     </g>
     <g id="text_8">
      <!-- Aug -->
      <g transform="translate(363.78384 298.691437)scale(0.1 -0.1)">
       <defs>
        <path d="M 20.796875 17.96875 
Q 15.71875 17.53125 15.71875 14.0625 
Q 15.71875 9.578125 27.546875 8.984375 
L 33.296875 8.6875 
Q 51.609375 7.765625 51.609375 -4.59375 
Q 51.609375 -10.9375 45.703125 -14.984375 
Q 39.359375 -19.578125 28.03125 -19.578125 
Q 17.78125 -19.578125 11.53125 -16.0625 
Q 5.515625 -12.640625 5.515625 -6.6875 
Q 5.515625 1.3125 16.796875 3.859375 
L 16.796875 4.203125 
Q 7.90625 6.453125 7.90625 12.15625 
Q 7.90625 17.4375 15.53125 20.265625 
Q 7.125 24.609375 7.125 34.078125 
Q 7.125 41.40625 12.015625 46.296875 
Q 17.625 51.90625 27.15625 51.90625 
Q 33.203125 51.90625 37.84375 49.265625 
Q 41.40625 53.953125 50.921875 54.109375 
L 50.921875 47.078125 
Q 44.34375 46.921875 42.234375 45.90625 
Q 47.40625 40.828125 47.40625 33.890625 
Q 47.40625 27 42.71875 22.265625 
Q 37.5 17.09375 28.328125 17.09375 
Q 24.421875 17.09375 20.796875 17.96875 
z
M 27.09375 45.609375 
Q 22.015625 45.609375 18.703125 42.28125 
Q 15.4375 39.015625 15.4375 34.078125 
Q 15.4375 29.25 18.5 26.3125 
Q 21.828125 23 27.4375 23 
Q 32.71875 23 35.890625 26.21875 
Q 39.109375 29.390625 39.109375 34.421875 
Q 39.109375 39.015625 35.890625 42.1875 
Q 32.515625 45.609375 27.09375 45.609375 
z
M 27.390625 2.484375 
Q 14.109375 2.484375 14.109375 -5.71875 
Q 14.109375 -13.671875 28.125 -13.671875 
Q 37.15625 -13.671875 41.21875 -9.46875 
Q 43.3125 -7.515625 43.3125 -4.890625 
Q 43.3125 2.484375 27.390625 2.484375 
z
" id="IPAexGothic-103"/>
       </defs>
       <use xlink:href="#IPAexGothic-65"/>
       <use x="63.720703" xlink:href="#IPAexGothic-117"/>
       <use x="124.121094" xlink:href="#IPAexGothic-103"/>
      </g>
     </g>
    </g>
    <g id="text_9">
     <!-- 2020 -->
     <g transform="translate(371.32 311.139875)scale(0.1 -0.1)">
      <use xlink:href="#IPAexGothic-50"/>
      <use x="62.988281" xlink:href="#IPAexGothic-48"/>
      <use x="125.976562" xlink:href="#IPAexGothic-50"/>
      <use x="188.964844" xlink:href="#IPAexGothic-48"/>
     </g>
    </g>
   </g>
   <g id="matplotlib.axis_2">
    <g id="ytick_1">
     <g id="line2d_9">
      <defs>
       <path d="M 0 0 
L -3.5 0 
" id="m1a7d428553" style="stroke:#000000;stroke-width:0.8;"/>
      </defs>
      <g>
       <use style="stroke:#000000;stroke-width:0.8;" x="39.39375" xlink:href="#m1a7d428553" y="272.162625"/>
      </g>
     </g>
     <g id="text_10">
      <!-- 0 -->
      <g transform="translate(26.095313 275.907937)scale(0.1 -0.1)">
       <use xlink:href="#IPAexGothic-48"/>
      </g>
     </g>
    </g>
    <g id="ytick_2">
     <g id="line2d_10">
      <g>
       <use style="stroke:#000000;stroke-width:0.8;" x="39.39375" xlink:href="#m1a7d428553" y="242.035601"/>
      </g>
     </g>
     <g id="text_11">
      <!-- 200 -->
      <g transform="translate(13.498438 245.780914)scale(0.1 -0.1)">
       <use xlink:href="#IPAexGothic-50"/>
       <use x="62.988281" xlink:href="#IPAexGothic-48"/>
       <use x="125.976562" xlink:href="#IPAexGothic-48"/>
      </g>
     </g>
    </g>
    <g id="ytick_3">
     <g id="line2d_11">
      <g>
       <use style="stroke:#000000;stroke-width:0.8;" x="39.39375" xlink:href="#m1a7d428553" y="211.908578"/>
      </g>
     </g>
     <g id="text_12">
      <!-- 400 -->
      <g transform="translate(13.498438 215.65389)scale(0.1 -0.1)">
       <defs>
        <path d="M 59.578125 18.109375 
L 47.796875 18.109375 
L 47.796875 0.984375 
L 39.796875 0.984375 
L 39.796875 18.109375 
L 3.078125 18.109375 
L 3.078125 26.125 
L 38.375 73.09375 
L 47.796875 73.09375 
L 47.796875 25.53125 
L 59.578125 25.53125 
z
M 40.28125 64.203125 
L 39.984375 64.203125 
Q 35.59375 57.125 31.296875 51.3125 
L 11.859375 25.53125 
L 39.796875 25.53125 
L 39.796875 49.125 
Q 39.796875 54.390625 40.28125 64.203125 
z
" id="IPAexGothic-52"/>
       </defs>
       <use xlink:href="#IPAexGothic-52"/>
       <use x="62.988281" xlink:href="#IPAexGothic-48"/>
       <use x="125.976562" xlink:href="#IPAexGothic-48"/>
      </g>
     </g>
    </g>
    <g id="ytick_4">
     <g id="line2d_12">
      <g>
       <use style="stroke:#000000;stroke-width:0.8;" x="39.39375" xlink:href="#m1a7d428553" y="181.781554"/>
      </g>
     </g>
     <g id="text_13">
      <!-- 600 -->
      <g transform="translate(13.498438 185.526867)scale(0.1 -0.1)">
       <defs>
        <path d="M 16.5 36.375 
Q 23.578125 46.578125 34.90625 46.578125 
Q 45.40625 46.578125 51.8125 39.265625 
Q 57.421875 32.90625 57.421875 23.78125 
Q 57.421875 13.8125 51.125 6.78125 
Q 44.578125 -0.484375 34.03125 -0.484375 
Q 21.484375 -0.484375 14.40625 9.078125 
Q 7.515625 18.40625 7.515625 34.8125 
Q 7.515625 53.515625 15.828125 64.203125 
Q 23.34375 73.828125 35.5 73.828125 
Q 49.859375 73.828125 56.390625 62.890625 
L 49.21875 58.984375 
Q 45.21875 66.65625 35.9375 66.65625 
Q 17.484375 66.65625 16.109375 36.375 
z
M 33.453125 39.796875 
Q 26.3125 39.796875 21.625 34.46875 
Q 17.4375 29.6875 17.4375 24.078125 
Q 17.4375 18.0625 21.140625 13.1875 
Q 26.125 6.6875 33.734375 6.6875 
Q 41.703125 6.6875 45.953125 13.1875 
Q 48.828125 17.625 48.828125 23.484375 
Q 48.828125 30.375 45.015625 34.8125 
Q 40.625 39.796875 33.453125 39.796875 
z
" id="IPAexGothic-54"/>
       </defs>
       <use xlink:href="#IPAexGothic-54"/>
       <use x="62.988281" xlink:href="#IPAexGothic-48"/>
       <use x="125.976562" xlink:href="#IPAexGothic-48"/>
      </g>
     </g>
    </g>
    <g id="ytick_5">
     <g id="line2d_13">
      <g>
       <use style="stroke:#000000;stroke-width:0.8;" x="39.39375" xlink:href="#m1a7d428553" y="151.65453"/>
      </g>
     </g>
     <g id="text_14">
      <!-- 800 -->
      <g transform="translate(13.498438 155.399843)scale(0.1 -0.1)">
       <defs>
        <path d="M 39.703125 37.890625 
Q 57.8125 31.734375 57.8125 18.703125 
Q 57.8125 8.453125 48.4375 3.078125 
Q 41.609375 -0.875 31.5 -0.875 
Q 21.34375 -0.875 14.5 3.078125 
Q 5.421875 8.296875 5.421875 18.40625 
Q 5.421875 31.0625 22.015625 37.203125 
L 22.015625 37.5 
Q 7.515625 42.71875 7.515625 54.828125 
Q 7.515625 64.0625 15.328125 69.625 
Q 21.96875 74.3125 31.546875 74.3125 
Q 42.234375 74.3125 48.921875 68.796875 
Q 55.515625 63.578125 55.515625 55.71875 
Q 55.515625 42.28125 39.703125 38.1875 
z
M 31.59375 41.015625 
Q 46.828125 44.625 46.828125 55.125 
Q 46.828125 61.1875 41.796875 64.84375 
Q 37.703125 67.921875 31.5 67.921875 
Q 25.09375 67.921875 20.796875 64.5 
Q 16.40625 60.890625 16.40625 55.03125 
Q 16.40625 49.21875 21.09375 45.703125 
Q 23.34375 43.890625 26.90625 42.53125 
Q 31 40.875 31.59375 41.015625 
z
M 30.90625 34.515625 
Q 14.40625 30.171875 14.40625 19 
Q 14.40625 12.109375 20.515625 8.6875 
Q 25.09375 6.109375 31.390625 6.109375 
Q 40.234375 6.109375 45.015625 10.890625 
Q 48.53125 14.40625 48.53125 19.53125 
Q 48.53125 24.90625 43.65625 28.90625 
Q 40.765625 31.15625 36.71875 32.8125 
Q 31.984375 34.71875 30.90625 34.515625 
z
" id="IPAexGothic-56"/>
       </defs>
       <use xlink:href="#IPAexGothic-56"/>
       <use x="62.988281" xlink:href="#IPAexGothic-48"/>
       <use x="125.976562" xlink:href="#IPAexGothic-48"/>
      </g>
     </g>
    </g>
    <g id="ytick_6">
     <g id="line2d_14">
      <g>
       <use style="stroke:#000000;stroke-width:0.8;" x="39.39375" xlink:href="#m1a7d428553" y="121.527507"/>
      </g>
     </g>
     <g id="text_15">
      <!-- 1000 -->
      <g transform="translate(7.2 125.272819)scale(0.1 -0.1)">
       <defs>
        <path d="M 38.484375 0.984375 
L 29.6875 0.984375 
L 29.6875 64.109375 
Q 21.4375 61.28125 12.3125 59.328125 
L 10.6875 66.109375 
Q 23.734375 69.390625 32.90625 73.921875 
L 38.484375 73.921875 
z
" id="IPAexGothic-49"/>
       </defs>
       <use xlink:href="#IPAexGothic-49"/>
       <use x="62.988281" xlink:href="#IPAexGothic-48"/>
       <use x="125.976562" xlink:href="#IPAexGothic-48"/>
       <use x="188.964844" xlink:href="#IPAexGothic-48"/>
      </g>
     </g>
    </g>
    <g id="ytick_7">
     <g id="line2d_15">
      <g>
       <use style="stroke:#000000;stroke-width:0.8;" x="39.39375" xlink:href="#m1a7d428553" y="91.400483"/>
      </g>
     </g>
     <g id="text_16">
      <!-- 1200 -->
      <g transform="translate(7.2 95.145796)scale(0.1 -0.1)">
       <use xlink:href="#IPAexGothic-49"/>
       <use x="62.988281" xlink:href="#IPAexGothic-50"/>
       <use x="125.976562" xlink:href="#IPAexGothic-48"/>
       <use x="188.964844" xlink:href="#IPAexGothic-48"/>
      </g>
     </g>
    </g>
    <g id="ytick_8">
     <g id="line2d_16">
      <g>
       <use style="stroke:#000000;stroke-width:0.8;" x="39.39375" xlink:href="#m1a7d428553" y="61.273459"/>
      </g>
     </g>
     <g id="text_17">
      <!-- 1400 -->
      <g transform="translate(7.2 65.018772)scale(0.1 -0.1)">
       <use xlink:href="#IPAexGothic-49"/>
       <use x="62.988281" xlink:href="#IPAexGothic-52"/>
       <use x="125.976562" xlink:href="#IPAexGothic-48"/>
       <use x="188.964844" xlink:href="#IPAexGothic-48"/>
      </g>
     </g>
    </g>
    <g id="ytick_9">
     <g id="line2d_17">
      <g>
       <use style="stroke:#000000;stroke-width:0.8;" x="39.39375" xlink:href="#m1a7d428553" y="31.146436"/>
      </g>
     </g>
     <g id="text_18">
      <!-- 1600 -->
      <g transform="translate(7.2 34.891748)scale(0.1 -0.1)">
       <use xlink:href="#IPAexGothic-49"/>
       <use x="62.988281" xlink:href="#IPAexGothic-54"/>
       <use x="125.976562" xlink:href="#IPAexGothic-48"/>
       <use x="188.964844" xlink:href="#IPAexGothic-48"/>
      </g>
     </g>
    </g>
   </g>
   <g id="line2d_18">
    <path clip-path="url(#pf95aaea359)" d="M 55.626477 272.01199 
L 57.129508 272.162625 
L 70.65678 272.162625 
L 72.159811 271.861355 
L 73.662841 272.162625 
L 79.674962 272.162625 
L 81.177992 271.71072 
L 82.681023 272.01199 
L 84.184053 271.861355 
L 85.687083 272.01199 
L 87.190114 271.861355 
L 88.693144 271.861355 
L 90.196174 271.71072 
L 91.699205 272.162625 
L 94.705265 271.861355 
L 96.208295 272.01199 
L 97.711326 271.560085 
L 99.214356 271.71072 
L 100.717386 271.560085 
L 102.220417 270.957544 
L 105.226477 271.861355 
L 106.729508 271.258814 
L 108.232538 271.409449 
L 109.735568 271.861355 
L 111.238598 272.01199 
L 112.741629 270.806909 
L 114.244659 272.162625 
L 115.747689 271.108179 
L 117.25072 271.108179 
L 118.75375 270.806909 
L 120.25678 270.806909 
L 121.759811 269.903098 
L 123.262841 270.505639 
L 124.765871 270.053733 
L 126.268902 269.903098 
L 127.771932 268.848652 
L 129.274962 269.451193 
L 130.777992 269.149923 
L 132.281023 268.698017 
L 133.784053 268.396747 
L 135.287083 267.191666 
L 136.790114 267.643571 
L 138.293144 268.396747 
L 139.796174 266.739761 
L 141.299205 268.396747 
L 142.802235 268.095477 
L 144.305265 266.13722 
L 145.808295 268.396747 
L 147.311326 267.342301 
L 148.814356 267.794207 
L 150.317386 268.095477 
L 151.820417 266.438491 
L 153.323447 267.342301 
L 154.826477 265.53468 
L 156.329508 268.095477 
L 157.832538 266.13722 
L 159.335568 267.342301 
L 160.838598 265.384045 
L 162.341629 267.643571 
L 163.844659 267.191666 
L 165.347689 266.13722 
L 166.85072 264.480234 
L 168.35375 263.727058 
L 169.85678 261.166261 
L 171.359811 262.973883 
L 172.862841 261.166261 
L 174.365871 260.563721 
L 175.868902 255.894032 
L 177.371932 257.852289 
L 178.874962 255.140857 
L 180.377992 253.031965 
L 181.881023 239.776075 
L 183.384053 243.541953 
L 184.887083 243.391317 
L 186.390114 228.629076 
L 187.893144 228.930346 
L 189.396174 219.741604 
L 190.899205 228.930346 
L 192.402235 219.741604 
L 193.905265 228.17717 
L 195.408295 234.35321 
L 196.911326 224.411292 
L 198.414356 231.340508 
L 199.917386 230.436697 
L 201.420417 238.119088 
L 202.923447 235.407656 
L 204.426477 236.311467 
L 205.929508 242.939412 
L 207.432538 239.776075 
L 210.438598 241.884966 
L 211.941629 251.224344 
L 213.444659 249.115452 
L 214.947689 250.621803 
L 216.45072 254.839586 
L 217.95375 248.964817 
L 219.45678 256.345938 
L 220.959811 255.592762 
L 222.462841 260.864991 
L 223.965871 256.195302 
L 225.468902 261.316896 
L 226.971932 260.864991 
L 228.474962 259.509275 
L 229.977992 263.425788 
L 231.481023 264.630869 
L 232.984053 262.220707 
L 234.487083 264.028329 
L 235.990114 263.727058 
L 237.493144 266.890396 
L 238.996174 267.794207 
L 240.499205 267.041031 
L 242.002235 268.246112 
L 243.505265 267.794207 
L 245.008295 268.848652 
L 246.511326 269.451193 
L 248.014356 269.451193 
L 249.517386 269.300558 
L 251.020417 268.999288 
L 252.523447 270.053733 
L 254.026477 270.053733 
L 255.529508 269.451193 
L 257.032538 270.806909 
L 258.535568 270.053733 
L 260.038598 270.806909 
L 261.541629 269.601828 
L 263.044659 271.108179 
L 264.547689 270.505639 
L 266.05072 269.752463 
L 267.55375 270.656274 
L 269.05678 270.204368 
L 270.559811 271.258814 
L 272.062841 271.108179 
L 273.565871 270.656274 
L 275.068902 270.656274 
L 278.074962 271.560085 
L 279.577992 271.71072 
L 281.081023 270.505639 
L 284.087083 271.409449 
L 285.590114 271.258814 
L 287.093144 270.053733 
L 288.596174 270.505639 
L 290.099205 270.505639 
L 291.602235 270.957544 
L 293.105265 269.300558 
L 294.608295 270.204368 
L 296.111326 269.300558 
L 297.614356 271.108179 
L 299.117386 270.355004 
L 300.620417 269.903098 
L 302.123447 270.053733 
L 303.626477 270.806909 
L 305.129508 270.355004 
L 306.632538 269.752463 
L 308.135568 270.204368 
L 309.638598 270.053733 
L 311.141629 270.806909 
L 312.644659 267.191666 
L 314.147689 268.848652 
L 315.65072 267.191666 
L 317.15375 267.342301 
L 318.65678 268.095477 
L 320.159811 263.877693 
L 321.662841 267.342301 
L 323.165871 265.53468 
L 324.668902 264.630869 
L 326.171932 262.823248 
L 327.674962 263.877693 
L 330.681023 261.015626 
L 332.184053 260.563721 
L 333.687083 256.195302 
L 335.190114 256.496573 
L 336.693144 255.291492 
L 338.196174 251.826884 
L 339.699205 252.730695 
L 341.202235 250.320533 
L 342.705265 249.717992 
L 344.208295 239.92671 
L 345.711326 237.064642 
L 347.214356 235.407656 
L 348.717386 235.407656 
L 350.220417 229.382251 
L 351.723447 226.068279 
L 353.226477 227.725265 
L 354.729508 214.92128 
L 356.232538 210.552862 
L 357.735568 203.473011 
L 359.238598 200.761579 
L 360.741629 204.678092 
L 362.244659 206.485713 
L 363.747689 202.5692 
L 365.25072 188.710769 
L 366.75375 199.556498 
L 368.25678 203.021106 
L 369.759811 224.561928 
L 371.262841 234.654481 
L 374.268902 251.374979 
L 375.771932 260.413086 
L 377.274962 268.396747 
L 378.777992 271.108179 
L 380.281023 272.01199 
L 380.281023 272.01199 
" style="fill:none;stroke:#1f77b4;stroke-linecap:square;stroke-width:1.5;"/>
    <defs>
     <path d="M 0 3 
C 0.795609 3 1.55874 2.683901 2.12132 2.12132 
C 2.683901 1.55874 3 0.795609 3 0 
C 3 -0.795609 2.683901 -1.55874 2.12132 -2.12132 
C 1.55874 -2.683901 0.795609 -3 0 -3 
C -0.795609 -3 -1.55874 -2.683901 -2.12132 -2.12132 
C -2.683901 -1.55874 -3 -0.795609 -3 0 
C -3 0.795609 -2.683901 1.55874 -2.12132 2.12132 
C -1.55874 2.683901 -0.795609 3 0 3 
z
" id="mf99c7aca49" style="stroke:#1f77b4;"/>
    </defs>
    <g clip-path="url(#pf95aaea359)">
     <use style="fill:#1f77b4;stroke:#1f77b4;" x="55.626477" xlink:href="#mf99c7aca49" y="272.01199"/>
     <use style="fill:#1f77b4;stroke:#1f77b4;" x="57.129508" xlink:href="#mf99c7aca49" y="272.162625"/>
     <use style="fill:#1f77b4;stroke:#1f77b4;" x="58.632538" xlink:href="#mf99c7aca49" y="272.162625"/>
     <use style="fill:#1f77b4;stroke:#1f77b4;" x="60.135568" xlink:href="#mf99c7aca49" y="272.162625"/>
     <use style="fill:#1f77b4;stroke:#1f77b4;" x="61.638598" xlink:href="#mf99c7aca49" y="272.162625"/>
     <use style="fill:#1f77b4;stroke:#1f77b4;" x="63.141629" xlink:href="#mf99c7aca49" y="272.162625"/>
     <use style="fill:#1f77b4;stroke:#1f77b4;" x="64.644659" xlink:href="#mf99c7aca49" y="272.162625"/>
     <use style="fill:#1f77b4;stroke:#1f77b4;" x="66.147689" xlink:href="#mf99c7aca49" y="272.162625"/>
     <use style="fill:#1f77b4;stroke:#1f77b4;" x="67.65072" xlink:href="#mf99c7aca49" y="272.162625"/>
     <use style="fill:#1f77b4;stroke:#1f77b4;" x="69.15375" xlink:href="#mf99c7aca49" y="272.162625"/>
     <use style="fill:#1f77b4;stroke:#1f77b4;" x="70.65678" xlink:href="#mf99c7aca49" y="272.162625"/>
     <use style="fill:#1f77b4;stroke:#1f77b4;" x="72.159811" xlink:href="#mf99c7aca49" y="271.861355"/>
     <use style="fill:#1f77b4;stroke:#1f77b4;" x="73.662841" xlink:href="#mf99c7aca49" y="272.162625"/>
     <use style="fill:#1f77b4;stroke:#1f77b4;" x="75.165871" xlink:href="#mf99c7aca49" y="272.162625"/>
     <use style="fill:#1f77b4;stroke:#1f77b4;" x="76.668902" xlink:href="#mf99c7aca49" y="272.162625"/>
     <use style="fill:#1f77b4;stroke:#1f77b4;" x="78.171932" xlink:href="#mf99c7aca49" y="272.162625"/>
     <use style="fill:#1f77b4;stroke:#1f77b4;" x="79.674962" xlink:href="#mf99c7aca49" y="272.162625"/>
     <use style="fill:#1f77b4;stroke:#1f77b4;" x="81.177992" xlink:href="#mf99c7aca49" y="271.71072"/>
     <use style="fill:#1f77b4;stroke:#1f77b4;" x="82.681023" xlink:href="#mf99c7aca49" y="272.01199"/>
     <use style="fill:#1f77b4;stroke:#1f77b4;" x="84.184053" xlink:href="#mf99c7aca49" y="271.861355"/>
     <use style="fill:#1f77b4;stroke:#1f77b4;" x="85.687083" xlink:href="#mf99c7aca49" y="272.01199"/>
     <use style="fill:#1f77b4;stroke:#1f77b4;" x="87.190114" xlink:href="#mf99c7aca49" y="271.861355"/>
     <use style="fill:#1f77b4;stroke:#1f77b4;" x="88.693144" xlink:href="#mf99c7aca49" y="271.861355"/>
     <use style="fill:#1f77b4;stroke:#1f77b4;" x="90.196174" xlink:href="#mf99c7aca49" y="271.71072"/>
     <use style="fill:#1f77b4;stroke:#1f77b4;" x="91.699205" xlink:href="#mf99c7aca49" y="272.162625"/>
     <use style="fill:#1f77b4;stroke:#1f77b4;" x="93.202235" xlink:href="#mf99c7aca49" y="272.01199"/>
     <use style="fill:#1f77b4;stroke:#1f77b4;" x="94.705265" xlink:href="#mf99c7aca49" y="271.861355"/>
     <use style="fill:#1f77b4;stroke:#1f77b4;" x="96.208295" xlink:href="#mf99c7aca49" y="272.01199"/>
     <use style="fill:#1f77b4;stroke:#1f77b4;" x="97.711326" xlink:href="#mf99c7aca49" y="271.560085"/>
     <use style="fill:#1f77b4;stroke:#1f77b4;" x="99.214356" xlink:href="#mf99c7aca49" y="271.71072"/>
     <use style="fill:#1f77b4;stroke:#1f77b4;" x="100.717386" xlink:href="#mf99c7aca49" y="271.560085"/>
     <use style="fill:#1f77b4;stroke:#1f77b4;" x="102.220417" xlink:href="#mf99c7aca49" y="270.957544"/>
     <use style="fill:#1f77b4;stroke:#1f77b4;" x="103.723447" xlink:href="#mf99c7aca49" y="271.409449"/>
     <use style="fill:#1f77b4;stroke:#1f77b4;" x="105.226477" xlink:href="#mf99c7aca49" y="271.861355"/>
     <use style="fill:#1f77b4;stroke:#1f77b4;" x="106.729508" xlink:href="#mf99c7aca49" y="271.258814"/>
     <use style="fill:#1f77b4;stroke:#1f77b4;" x="108.232538" xlink:href="#mf99c7aca49" y="271.409449"/>
     <use style="fill:#1f77b4;stroke:#1f77b4;" x="109.735568" xlink:href="#mf99c7aca49" y="271.861355"/>
     <use style="fill:#1f77b4;stroke:#1f77b4;" x="111.238598" xlink:href="#mf99c7aca49" y="272.01199"/>
     <use style="fill:#1f77b4;stroke:#1f77b4;" x="112.741629" xlink:href="#mf99c7aca49" y="270.806909"/>
     <use style="fill:#1f77b4;stroke:#1f77b4;" x="114.244659" xlink:href="#mf99c7aca49" y="272.162625"/>
     <use style="fill:#1f77b4;stroke:#1f77b4;" x="115.747689" xlink:href="#mf99c7aca49" y="271.108179"/>
     <use style="fill:#1f77b4;stroke:#1f77b4;" x="117.25072" xlink:href="#mf99c7aca49" y="271.108179"/>
     <use style="fill:#1f77b4;stroke:#1f77b4;" x="118.75375" xlink:href="#mf99c7aca49" y="270.806909"/>
     <use style="fill:#1f77b4;stroke:#1f77b4;" x="120.25678" xlink:href="#mf99c7aca49" y="270.806909"/>
     <use style="fill:#1f77b4;stroke:#1f77b4;" x="121.759811" xlink:href="#mf99c7aca49" y="269.903098"/>
     <use style="fill:#1f77b4;stroke:#1f77b4;" x="123.262841" xlink:href="#mf99c7aca49" y="270.505639"/>
     <use style="fill:#1f77b4;stroke:#1f77b4;" x="124.765871" xlink:href="#mf99c7aca49" y="270.053733"/>
     <use style="fill:#1f77b4;stroke:#1f77b4;" x="126.268902" xlink:href="#mf99c7aca49" y="269.903098"/>
     <use style="fill:#1f77b4;stroke:#1f77b4;" x="127.771932" xlink:href="#mf99c7aca49" y="268.848652"/>
     <use style="fill:#1f77b4;stroke:#1f77b4;" x="129.274962" xlink:href="#mf99c7aca49" y="269.451193"/>
     <use style="fill:#1f77b4;stroke:#1f77b4;" x="130.777992" xlink:href="#mf99c7aca49" y="269.149923"/>
     <use style="fill:#1f77b4;stroke:#1f77b4;" x="132.281023" xlink:href="#mf99c7aca49" y="268.698017"/>
     <use style="fill:#1f77b4;stroke:#1f77b4;" x="133.784053" xlink:href="#mf99c7aca49" y="268.396747"/>
     <use style="fill:#1f77b4;stroke:#1f77b4;" x="135.287083" xlink:href="#mf99c7aca49" y="267.191666"/>
     <use style="fill:#1f77b4;stroke:#1f77b4;" x="136.790114" xlink:href="#mf99c7aca49" y="267.643571"/>
     <use style="fill:#1f77b4;stroke:#1f77b4;" x="138.293144" xlink:href="#mf99c7aca49" y="268.396747"/>
     <use style="fill:#1f77b4;stroke:#1f77b4;" x="139.796174" xlink:href="#mf99c7aca49" y="266.739761"/>
     <use style="fill:#1f77b4;stroke:#1f77b4;" x="141.299205" xlink:href="#mf99c7aca49" y="268.396747"/>
     <use style="fill:#1f77b4;stroke:#1f77b4;" x="142.802235" xlink:href="#mf99c7aca49" y="268.095477"/>
     <use style="fill:#1f77b4;stroke:#1f77b4;" x="144.305265" xlink:href="#mf99c7aca49" y="266.13722"/>
     <use style="fill:#1f77b4;stroke:#1f77b4;" x="145.808295" xlink:href="#mf99c7aca49" y="268.396747"/>
     <use style="fill:#1f77b4;stroke:#1f77b4;" x="147.311326" xlink:href="#mf99c7aca49" y="267.342301"/>
     <use style="fill:#1f77b4;stroke:#1f77b4;" x="148.814356" xlink:href="#mf99c7aca49" y="267.794207"/>
     <use style="fill:#1f77b4;stroke:#1f77b4;" x="150.317386" xlink:href="#mf99c7aca49" y="268.095477"/>
     <use style="fill:#1f77b4;stroke:#1f77b4;" x="151.820417" xlink:href="#mf99c7aca49" y="266.438491"/>
     <use style="fill:#1f77b4;stroke:#1f77b4;" x="153.323447" xlink:href="#mf99c7aca49" y="267.342301"/>
     <use style="fill:#1f77b4;stroke:#1f77b4;" x="154.826477" xlink:href="#mf99c7aca49" y="265.53468"/>
     <use style="fill:#1f77b4;stroke:#1f77b4;" x="156.329508" xlink:href="#mf99c7aca49" y="268.095477"/>
     <use style="fill:#1f77b4;stroke:#1f77b4;" x="157.832538" xlink:href="#mf99c7aca49" y="266.13722"/>
     <use style="fill:#1f77b4;stroke:#1f77b4;" x="159.335568" xlink:href="#mf99c7aca49" y="267.342301"/>
     <use style="fill:#1f77b4;stroke:#1f77b4;" x="160.838598" xlink:href="#mf99c7aca49" y="265.384045"/>
     <use style="fill:#1f77b4;stroke:#1f77b4;" x="162.341629" xlink:href="#mf99c7aca49" y="267.643571"/>
     <use style="fill:#1f77b4;stroke:#1f77b4;" x="163.844659" xlink:href="#mf99c7aca49" y="267.191666"/>
     <use style="fill:#1f77b4;stroke:#1f77b4;" x="165.347689" xlink:href="#mf99c7aca49" y="266.13722"/>
     <use style="fill:#1f77b4;stroke:#1f77b4;" x="166.85072" xlink:href="#mf99c7aca49" y="264.480234"/>
     <use style="fill:#1f77b4;stroke:#1f77b4;" x="168.35375" xlink:href="#mf99c7aca49" y="263.727058"/>
     <use style="fill:#1f77b4;stroke:#1f77b4;" x="169.85678" xlink:href="#mf99c7aca49" y="261.166261"/>
     <use style="fill:#1f77b4;stroke:#1f77b4;" x="171.359811" xlink:href="#mf99c7aca49" y="262.973883"/>
     <use style="fill:#1f77b4;stroke:#1f77b4;" x="172.862841" xlink:href="#mf99c7aca49" y="261.166261"/>
     <use style="fill:#1f77b4;stroke:#1f77b4;" x="174.365871" xlink:href="#mf99c7aca49" y="260.563721"/>
     <use style="fill:#1f77b4;stroke:#1f77b4;" x="175.868902" xlink:href="#mf99c7aca49" y="255.894032"/>
     <use style="fill:#1f77b4;stroke:#1f77b4;" x="177.371932" xlink:href="#mf99c7aca49" y="257.852289"/>
     <use style="fill:#1f77b4;stroke:#1f77b4;" x="178.874962" xlink:href="#mf99c7aca49" y="255.140857"/>
     <use style="fill:#1f77b4;stroke:#1f77b4;" x="180.377992" xlink:href="#mf99c7aca49" y="253.031965"/>
     <use style="fill:#1f77b4;stroke:#1f77b4;" x="181.881023" xlink:href="#mf99c7aca49" y="239.776075"/>
     <use style="fill:#1f77b4;stroke:#1f77b4;" x="183.384053" xlink:href="#mf99c7aca49" y="243.541953"/>
     <use style="fill:#1f77b4;stroke:#1f77b4;" x="184.887083" xlink:href="#mf99c7aca49" y="243.391317"/>
     <use style="fill:#1f77b4;stroke:#1f77b4;" x="186.390114" xlink:href="#mf99c7aca49" y="228.629076"/>
     <use style="fill:#1f77b4;stroke:#1f77b4;" x="187.893144" xlink:href="#mf99c7aca49" y="228.930346"/>
     <use style="fill:#1f77b4;stroke:#1f77b4;" x="189.396174" xlink:href="#mf99c7aca49" y="219.741604"/>
     <use style="fill:#1f77b4;stroke:#1f77b4;" x="190.899205" xlink:href="#mf99c7aca49" y="228.930346"/>
     <use style="fill:#1f77b4;stroke:#1f77b4;" x="192.402235" xlink:href="#mf99c7aca49" y="219.741604"/>
     <use style="fill:#1f77b4;stroke:#1f77b4;" x="193.905265" xlink:href="#mf99c7aca49" y="228.17717"/>
     <use style="fill:#1f77b4;stroke:#1f77b4;" x="195.408295" xlink:href="#mf99c7aca49" y="234.35321"/>
     <use style="fill:#1f77b4;stroke:#1f77b4;" x="196.911326" xlink:href="#mf99c7aca49" y="224.411292"/>
     <use style="fill:#1f77b4;stroke:#1f77b4;" x="198.414356" xlink:href="#mf99c7aca49" y="231.340508"/>
     <use style="fill:#1f77b4;stroke:#1f77b4;" x="199.917386" xlink:href="#mf99c7aca49" y="230.436697"/>
     <use style="fill:#1f77b4;stroke:#1f77b4;" x="201.420417" xlink:href="#mf99c7aca49" y="238.119088"/>
     <use style="fill:#1f77b4;stroke:#1f77b4;" x="202.923447" xlink:href="#mf99c7aca49" y="235.407656"/>
     <use style="fill:#1f77b4;stroke:#1f77b4;" x="204.426477" xlink:href="#mf99c7aca49" y="236.311467"/>
     <use style="fill:#1f77b4;stroke:#1f77b4;" x="205.929508" xlink:href="#mf99c7aca49" y="242.939412"/>
     <use style="fill:#1f77b4;stroke:#1f77b4;" x="207.432538" xlink:href="#mf99c7aca49" y="239.776075"/>
     <use style="fill:#1f77b4;stroke:#1f77b4;" x="208.935568" xlink:href="#mf99c7aca49" y="240.83052"/>
     <use style="fill:#1f77b4;stroke:#1f77b4;" x="210.438598" xlink:href="#mf99c7aca49" y="241.884966"/>
     <use style="fill:#1f77b4;stroke:#1f77b4;" x="211.941629" xlink:href="#mf99c7aca49" y="251.224344"/>
     <use style="fill:#1f77b4;stroke:#1f77b4;" x="213.444659" xlink:href="#mf99c7aca49" y="249.115452"/>
     <use style="fill:#1f77b4;stroke:#1f77b4;" x="214.947689" xlink:href="#mf99c7aca49" y="250.621803"/>
     <use style="fill:#1f77b4;stroke:#1f77b4;" x="216.45072" xlink:href="#mf99c7aca49" y="254.839586"/>
     <use style="fill:#1f77b4;stroke:#1f77b4;" x="217.95375" xlink:href="#mf99c7aca49" y="248.964817"/>
     <use style="fill:#1f77b4;stroke:#1f77b4;" x="219.45678" xlink:href="#mf99c7aca49" y="256.345938"/>
     <use style="fill:#1f77b4;stroke:#1f77b4;" x="220.959811" xlink:href="#mf99c7aca49" y="255.592762"/>
     <use style="fill:#1f77b4;stroke:#1f77b4;" x="222.462841" xlink:href="#mf99c7aca49" y="260.864991"/>
     <use style="fill:#1f77b4;stroke:#1f77b4;" x="223.965871" xlink:href="#mf99c7aca49" y="256.195302"/>
     <use style="fill:#1f77b4;stroke:#1f77b4;" x="225.468902" xlink:href="#mf99c7aca49" y="261.316896"/>
     <use style="fill:#1f77b4;stroke:#1f77b4;" x="226.971932" xlink:href="#mf99c7aca49" y="260.864991"/>
     <use style="fill:#1f77b4;stroke:#1f77b4;" x="228.474962" xlink:href="#mf99c7aca49" y="259.509275"/>
     <use style="fill:#1f77b4;stroke:#1f77b4;" x="229.977992" xlink:href="#mf99c7aca49" y="263.425788"/>
     <use style="fill:#1f77b4;stroke:#1f77b4;" x="231.481023" xlink:href="#mf99c7aca49" y="264.630869"/>
     <use style="fill:#1f77b4;stroke:#1f77b4;" x="232.984053" xlink:href="#mf99c7aca49" y="262.220707"/>
     <use style="fill:#1f77b4;stroke:#1f77b4;" x="234.487083" xlink:href="#mf99c7aca49" y="264.028329"/>
     <use style="fill:#1f77b4;stroke:#1f77b4;" x="235.990114" xlink:href="#mf99c7aca49" y="263.727058"/>
     <use style="fill:#1f77b4;stroke:#1f77b4;" x="237.493144" xlink:href="#mf99c7aca49" y="266.890396"/>
     <use style="fill:#1f77b4;stroke:#1f77b4;" x="238.996174" xlink:href="#mf99c7aca49" y="267.794207"/>
     <use style="fill:#1f77b4;stroke:#1f77b4;" x="240.499205" xlink:href="#mf99c7aca49" y="267.041031"/>
     <use style="fill:#1f77b4;stroke:#1f77b4;" x="242.002235" xlink:href="#mf99c7aca49" y="268.246112"/>
     <use style="fill:#1f77b4;stroke:#1f77b4;" x="243.505265" xlink:href="#mf99c7aca49" y="267.794207"/>
     <use style="fill:#1f77b4;stroke:#1f77b4;" x="245.008295" xlink:href="#mf99c7aca49" y="268.848652"/>
     <use style="fill:#1f77b4;stroke:#1f77b4;" x="246.511326" xlink:href="#mf99c7aca49" y="269.451193"/>
     <use style="fill:#1f77b4;stroke:#1f77b4;" x="248.014356" xlink:href="#mf99c7aca49" y="269.451193"/>
     <use style="fill:#1f77b4;stroke:#1f77b4;" x="249.517386" xlink:href="#mf99c7aca49" y="269.300558"/>
     <use style="fill:#1f77b4;stroke:#1f77b4;" x="251.020417" xlink:href="#mf99c7aca49" y="268.999288"/>
     <use style="fill:#1f77b4;stroke:#1f77b4;" x="252.523447" xlink:href="#mf99c7aca49" y="270.053733"/>
     <use style="fill:#1f77b4;stroke:#1f77b4;" x="254.026477" xlink:href="#mf99c7aca49" y="270.053733"/>
     <use style="fill:#1f77b4;stroke:#1f77b4;" x="255.529508" xlink:href="#mf99c7aca49" y="269.451193"/>
     <use style="fill:#1f77b4;stroke:#1f77b4;" x="257.032538" xlink:href="#mf99c7aca49" y="270.806909"/>
     <use style="fill:#1f77b4;stroke:#1f77b4;" x="258.535568" xlink:href="#mf99c7aca49" y="270.053733"/>
     <use style="fill:#1f77b4;stroke:#1f77b4;" x="260.038598" xlink:href="#mf99c7aca49" y="270.806909"/>
     <use style="fill:#1f77b4;stroke:#1f77b4;" x="261.541629" xlink:href="#mf99c7aca49" y="269.601828"/>
     <use style="fill:#1f77b4;stroke:#1f77b4;" x="263.044659" xlink:href="#mf99c7aca49" y="271.108179"/>
     <use style="fill:#1f77b4;stroke:#1f77b4;" x="264.547689" xlink:href="#mf99c7aca49" y="270.505639"/>
     <use style="fill:#1f77b4;stroke:#1f77b4;" x="266.05072" xlink:href="#mf99c7aca49" y="269.752463"/>
     <use style="fill:#1f77b4;stroke:#1f77b4;" x="267.55375" xlink:href="#mf99c7aca49" y="270.656274"/>
     <use style="fill:#1f77b4;stroke:#1f77b4;" x="269.05678" xlink:href="#mf99c7aca49" y="270.204368"/>
     <use style="fill:#1f77b4;stroke:#1f77b4;" x="270.559811" xlink:href="#mf99c7aca49" y="271.258814"/>
     <use style="fill:#1f77b4;stroke:#1f77b4;" x="272.062841" xlink:href="#mf99c7aca49" y="271.108179"/>
     <use style="fill:#1f77b4;stroke:#1f77b4;" x="273.565871" xlink:href="#mf99c7aca49" y="270.656274"/>
     <use style="fill:#1f77b4;stroke:#1f77b4;" x="275.068902" xlink:href="#mf99c7aca49" y="270.656274"/>
     <use style="fill:#1f77b4;stroke:#1f77b4;" x="276.571932" xlink:href="#mf99c7aca49" y="271.108179"/>
     <use style="fill:#1f77b4;stroke:#1f77b4;" x="278.074962" xlink:href="#mf99c7aca49" y="271.560085"/>
     <use style="fill:#1f77b4;stroke:#1f77b4;" x="279.577992" xlink:href="#mf99c7aca49" y="271.71072"/>
     <use style="fill:#1f77b4;stroke:#1f77b4;" x="281.081023" xlink:href="#mf99c7aca49" y="270.505639"/>
     <use style="fill:#1f77b4;stroke:#1f77b4;" x="282.584053" xlink:href="#mf99c7aca49" y="270.957544"/>
     <use style="fill:#1f77b4;stroke:#1f77b4;" x="284.087083" xlink:href="#mf99c7aca49" y="271.409449"/>
     <use style="fill:#1f77b4;stroke:#1f77b4;" x="285.590114" xlink:href="#mf99c7aca49" y="271.258814"/>
     <use style="fill:#1f77b4;stroke:#1f77b4;" x="287.093144" xlink:href="#mf99c7aca49" y="270.053733"/>
     <use style="fill:#1f77b4;stroke:#1f77b4;" x="288.596174" xlink:href="#mf99c7aca49" y="270.505639"/>
     <use style="fill:#1f77b4;stroke:#1f77b4;" x="290.099205" xlink:href="#mf99c7aca49" y="270.505639"/>
     <use style="fill:#1f77b4;stroke:#1f77b4;" x="291.602235" xlink:href="#mf99c7aca49" y="270.957544"/>
     <use style="fill:#1f77b4;stroke:#1f77b4;" x="293.105265" xlink:href="#mf99c7aca49" y="269.300558"/>
     <use style="fill:#1f77b4;stroke:#1f77b4;" x="294.608295" xlink:href="#mf99c7aca49" y="270.204368"/>
     <use style="fill:#1f77b4;stroke:#1f77b4;" x="296.111326" xlink:href="#mf99c7aca49" y="269.300558"/>
     <use style="fill:#1f77b4;stroke:#1f77b4;" x="297.614356" xlink:href="#mf99c7aca49" y="271.108179"/>
     <use style="fill:#1f77b4;stroke:#1f77b4;" x="299.117386" xlink:href="#mf99c7aca49" y="270.355004"/>
     <use style="fill:#1f77b4;stroke:#1f77b4;" x="300.620417" xlink:href="#mf99c7aca49" y="269.903098"/>
     <use style="fill:#1f77b4;stroke:#1f77b4;" x="302.123447" xlink:href="#mf99c7aca49" y="270.053733"/>
     <use style="fill:#1f77b4;stroke:#1f77b4;" x="303.626477" xlink:href="#mf99c7aca49" y="270.806909"/>
     <use style="fill:#1f77b4;stroke:#1f77b4;" x="305.129508" xlink:href="#mf99c7aca49" y="270.355004"/>
     <use style="fill:#1f77b4;stroke:#1f77b4;" x="306.632538" xlink:href="#mf99c7aca49" y="269.752463"/>
     <use style="fill:#1f77b4;stroke:#1f77b4;" x="308.135568" xlink:href="#mf99c7aca49" y="270.204368"/>
     <use style="fill:#1f77b4;stroke:#1f77b4;" x="309.638598" xlink:href="#mf99c7aca49" y="270.053733"/>
     <use style="fill:#1f77b4;stroke:#1f77b4;" x="311.141629" xlink:href="#mf99c7aca49" y="270.806909"/>
     <use style="fill:#1f77b4;stroke:#1f77b4;" x="312.644659" xlink:href="#mf99c7aca49" y="267.191666"/>
     <use style="fill:#1f77b4;stroke:#1f77b4;" x="314.147689" xlink:href="#mf99c7aca49" y="268.848652"/>
     <use style="fill:#1f77b4;stroke:#1f77b4;" x="315.65072" xlink:href="#mf99c7aca49" y="267.191666"/>
     <use style="fill:#1f77b4;stroke:#1f77b4;" x="317.15375" xlink:href="#mf99c7aca49" y="267.342301"/>
     <use style="fill:#1f77b4;stroke:#1f77b4;" x="318.65678" xlink:href="#mf99c7aca49" y="268.095477"/>
     <use style="fill:#1f77b4;stroke:#1f77b4;" x="320.159811" xlink:href="#mf99c7aca49" y="263.877693"/>
     <use style="fill:#1f77b4;stroke:#1f77b4;" x="321.662841" xlink:href="#mf99c7aca49" y="267.342301"/>
     <use style="fill:#1f77b4;stroke:#1f77b4;" x="323.165871" xlink:href="#mf99c7aca49" y="265.53468"/>
     <use style="fill:#1f77b4;stroke:#1f77b4;" x="324.668902" xlink:href="#mf99c7aca49" y="264.630869"/>
     <use style="fill:#1f77b4;stroke:#1f77b4;" x="326.171932" xlink:href="#mf99c7aca49" y="262.823248"/>
     <use style="fill:#1f77b4;stroke:#1f77b4;" x="327.674962" xlink:href="#mf99c7aca49" y="263.877693"/>
     <use style="fill:#1f77b4;stroke:#1f77b4;" x="329.177992" xlink:href="#mf99c7aca49" y="262.371342"/>
     <use style="fill:#1f77b4;stroke:#1f77b4;" x="330.681023" xlink:href="#mf99c7aca49" y="261.015626"/>
     <use style="fill:#1f77b4;stroke:#1f77b4;" x="332.184053" xlink:href="#mf99c7aca49" y="260.563721"/>
     <use style="fill:#1f77b4;stroke:#1f77b4;" x="333.687083" xlink:href="#mf99c7aca49" y="256.195302"/>
     <use style="fill:#1f77b4;stroke:#1f77b4;" x="335.190114" xlink:href="#mf99c7aca49" y="256.496573"/>
     <use style="fill:#1f77b4;stroke:#1f77b4;" x="336.693144" xlink:href="#mf99c7aca49" y="255.291492"/>
     <use style="fill:#1f77b4;stroke:#1f77b4;" x="338.196174" xlink:href="#mf99c7aca49" y="251.826884"/>
     <use style="fill:#1f77b4;stroke:#1f77b4;" x="339.699205" xlink:href="#mf99c7aca49" y="252.730695"/>
     <use style="fill:#1f77b4;stroke:#1f77b4;" x="341.202235" xlink:href="#mf99c7aca49" y="250.320533"/>
     <use style="fill:#1f77b4;stroke:#1f77b4;" x="342.705265" xlink:href="#mf99c7aca49" y="249.717992"/>
     <use style="fill:#1f77b4;stroke:#1f77b4;" x="344.208295" xlink:href="#mf99c7aca49" y="239.92671"/>
     <use style="fill:#1f77b4;stroke:#1f77b4;" x="345.711326" xlink:href="#mf99c7aca49" y="237.064642"/>
     <use style="fill:#1f77b4;stroke:#1f77b4;" x="347.214356" xlink:href="#mf99c7aca49" y="235.407656"/>
     <use style="fill:#1f77b4;stroke:#1f77b4;" x="348.717386" xlink:href="#mf99c7aca49" y="235.407656"/>
     <use style="fill:#1f77b4;stroke:#1f77b4;" x="350.220417" xlink:href="#mf99c7aca49" y="229.382251"/>
     <use style="fill:#1f77b4;stroke:#1f77b4;" x="351.723447" xlink:href="#mf99c7aca49" y="226.068279"/>
     <use style="fill:#1f77b4;stroke:#1f77b4;" x="353.226477" xlink:href="#mf99c7aca49" y="227.725265"/>
     <use style="fill:#1f77b4;stroke:#1f77b4;" x="354.729508" xlink:href="#mf99c7aca49" y="214.92128"/>
     <use style="fill:#1f77b4;stroke:#1f77b4;" x="356.232538" xlink:href="#mf99c7aca49" y="210.552862"/>
     <use style="fill:#1f77b4;stroke:#1f77b4;" x="357.735568" xlink:href="#mf99c7aca49" y="203.473011"/>
     <use style="fill:#1f77b4;stroke:#1f77b4;" x="359.238598" xlink:href="#mf99c7aca49" y="200.761579"/>
     <use style="fill:#1f77b4;stroke:#1f77b4;" x="360.741629" xlink:href="#mf99c7aca49" y="204.678092"/>
     <use style="fill:#1f77b4;stroke:#1f77b4;" x="362.244659" xlink:href="#mf99c7aca49" y="206.485713"/>
     <use style="fill:#1f77b4;stroke:#1f77b4;" x="363.747689" xlink:href="#mf99c7aca49" y="202.5692"/>
     <use style="fill:#1f77b4;stroke:#1f77b4;" x="365.25072" xlink:href="#mf99c7aca49" y="188.710769"/>
     <use style="fill:#1f77b4;stroke:#1f77b4;" x="366.75375" xlink:href="#mf99c7aca49" y="199.556498"/>
     <use style="fill:#1f77b4;stroke:#1f77b4;" x="368.25678" xlink:href="#mf99c7aca49" y="203.021106"/>
     <use style="fill:#1f77b4;stroke:#1f77b4;" x="369.759811" xlink:href="#mf99c7aca49" y="224.561928"/>
     <use style="fill:#1f77b4;stroke:#1f77b4;" x="371.262841" xlink:href="#mf99c7aca49" y="234.654481"/>
     <use style="fill:#1f77b4;stroke:#1f77b4;" x="372.765871" xlink:href="#mf99c7aca49" y="242.939412"/>
     <use style="fill:#1f77b4;stroke:#1f77b4;" x="374.268902" xlink:href="#mf99c7aca49" y="251.374979"/>
     <use style="fill:#1f77b4;stroke:#1f77b4;" x="375.771932" xlink:href="#mf99c7aca49" y="260.413086"/>
     <use style="fill:#1f77b4;stroke:#1f77b4;" x="377.274962" xlink:href="#mf99c7aca49" y="268.396747"/>
     <use style="fill:#1f77b4;stroke:#1f77b4;" x="378.777992" xlink:href="#mf99c7aca49" y="271.108179"/>
     <use style="fill:#1f77b4;stroke:#1f77b4;" x="380.281023" xlink:href="#mf99c7aca49" y="272.01199"/>
    </g>
   </g>
   <g id="line2d_19">
    <path clip-path="url(#pf95aaea359)" d="M 55.626477 272.162625 
L 72.159811 272.162625 
L 73.662841 272.01199 
L 75.165871 272.162625 
L 85.687083 272.162625 
L 87.190114 272.01199 
L 90.196174 272.01199 
L 91.699205 272.162625 
L 93.202235 271.71072 
L 94.705265 272.01199 
L 96.208295 271.258814 
L 97.711326 271.861355 
L 99.214356 271.71072 
L 100.717386 272.162625 
L 102.220417 272.162625 
L 103.723447 271.560085 
L 106.729508 272.162625 
L 108.232538 272.01199 
L 109.735568 272.162625 
L 111.238598 272.162625 
L 112.741629 271.861355 
L 115.747689 272.162625 
L 120.25678 270.355004 
L 121.759811 271.258814 
L 123.262841 271.108179 
L 124.765871 270.656274 
L 126.268902 270.806909 
L 127.771932 270.806909 
L 129.274962 269.601828 
L 130.777992 268.246112 
L 132.281023 270.656274 
L 133.784053 270.355004 
L 135.287083 269.903098 
L 136.790114 269.601828 
L 138.293144 268.396747 
L 139.796174 269.149923 
L 141.299205 270.957544 
L 142.802235 270.053733 
L 145.808295 269.149923 
L 147.311326 266.739761 
L 148.814356 266.739761 
L 150.317386 263.576423 
L 151.820417 266.438491 
L 153.323447 266.589126 
L 154.826477 268.246112 
L 156.329508 261.768802 
L 159.335568 265.384045 
L 160.838598 265.986585 
L 162.341629 264.028329 
L 163.844659 267.643571 
L 165.347689 269.300558 
L 166.85072 265.23341 
L 168.35375 265.53468 
L 169.85678 265.23341 
L 171.359811 265.384045 
L 172.862841 265.685315 
L 174.365871 265.685315 
L 175.868902 266.438491 
L 177.371932 260.111816 
L 178.874962 258.304194 
L 180.377992 257.249748 
L 181.881023 253.1826 
L 183.384053 241.131791 
L 184.887083 248.211641 
L 186.390114 249.717992 
L 187.893144 236.612737 
L 189.396174 230.135427 
L 190.899205 228.026535 
L 192.402235 219.892239 
L 193.905265 213.264294 
L 195.408295 226.520184 
L 196.911326 232.545589 
L 198.414356 200.159038 
L 199.917386 200.008403 
L 201.420417 175.454879 
L 202.923447 176.05742 
L 204.426477 167.471218 
L 205.929508 203.021106 
L 207.432538 225.013833 
L 208.935568 193.531093 
L 210.438598 184.191716 
L 211.941629 192.024742 
L 213.444659 187.204418 
L 214.947689 186.903148 
L 216.45072 222.151766 
L 217.95375 217.632712 
L 219.45678 210.100956 
L 220.959811 205.883173 
L 222.462841 207.992065 
L 223.965871 205.581903 
L 225.468902 217.331442 
L 226.971932 240.981156 
L 228.474962 246.10275 
L 229.977992 228.17717 
L 231.481023 239.324169 
L 232.984053 244.747033 
L 234.487083 228.779711 
L 235.990114 226.670819 
L 237.493144 244.144493 
L 240.499205 254.688951 
L 242.002235 257.852289 
L 243.505265 258.605464 
L 245.008295 257.249748 
L 246.511326 255.291492 
L 248.014356 261.919437 
L 249.517386 266.890396 
L 251.020417 260.864991 
L 252.523447 260.714356 
L 254.026477 259.96118 
L 255.529508 263.124518 
L 257.032538 265.83595 
L 258.535568 268.246112 
L 260.038598 268.999288 
L 261.541629 265.384045 
L 263.044659 267.492936 
L 264.547689 266.438491 
L 266.05072 267.342301 
L 267.55375 268.547382 
L 269.05678 267.794207 
L 270.559811 268.246112 
L 272.062841 268.246112 
L 273.565871 265.53468 
L 275.068902 265.082774 
L 276.571932 259.208005 
L 278.074962 265.685315 
L 279.577992 268.095477 
L 281.081023 266.589126 
L 282.584053 264.480234 
L 284.087083 267.643571 
L 285.590114 263.877693 
L 288.596174 265.986585 
L 290.099205 267.191666 
L 291.602235 267.944842 
L 293.105265 265.53468 
L 294.608295 265.986585 
L 296.111326 265.082774 
L 297.614356 263.727058 
L 299.117386 266.13722 
L 300.620417 261.166261 
L 302.123447 261.166261 
L 303.626477 264.480234 
L 305.129508 266.287855 
L 306.632538 262.220707 
L 308.135568 263.124518 
L 309.638598 262.521977 
L 311.141629 264.329599 
L 312.644659 265.384045 
L 314.147689 262.220707 
L 315.65072 256.948478 
L 317.15375 260.413086 
L 318.65678 257.249748 
L 320.159811 256.496573 
L 321.662841 256.647208 
L 323.165871 254.086411 
L 324.668902 250.923073 
L 326.171932 251.977519 
L 327.674962 240.981156 
L 329.177992 235.859561 
L 330.681023 231.340508 
L 332.184053 242.638142 
L 333.687083 243.541953 
L 335.190114 235.859561 
L 336.693144 243.843223 
L 338.196174 215.373185 
L 339.699205 209.498416 
L 341.202235 211.757943 
L 342.705265 220.79605 
L 344.208295 231.189873 
L 345.711326 220.645415 
L 347.214356 202.26793 
L 348.717386 179.672662 
L 350.220417 175.605514 
L 351.723447 180.275203 
L 353.226477 202.117295 
L 354.729508 199.104593 
L 356.232538 176.65996 
L 357.735568 143.218964 
L 359.238598 135.837843 
L 360.741629 156.324219 
L 362.244659 148.792463 
L 363.747689 156.776124 
L 365.25072 171.689001 
L 366.75375 110.380508 
L 368.25678 79.199038 
L 369.759811 75.43316 
L 371.262841 30.242625 
L 372.765871 73.324269 
L 374.268902 109.476697 
L 375.771932 155.269773 
L 377.274962 140.055626 
L 378.777992 158.734381 
L 380.281023 182.53473 
L 380.281023 182.53473 
" style="fill:none;stroke:#ff7f0e;stroke-linecap:square;stroke-width:1.5;"/>
    <defs>
     <path d="M 0 3 
C 0.795609 3 1.55874 2.683901 2.12132 2.12132 
C 2.683901 1.55874 3 0.795609 3 0 
C 3 -0.795609 2.683901 -1.55874 2.12132 -2.12132 
C 1.55874 -2.683901 0.795609 -3 0 -3 
C -0.795609 -3 -1.55874 -2.683901 -2.12132 -2.12132 
C -2.683901 -1.55874 -3 -0.795609 -3 0 
C -3 0.795609 -2.683901 1.55874 -2.12132 2.12132 
C -1.55874 2.683901 -0.795609 3 0 3 
z
" id="m43c76643f4" style="stroke:#ff7f0e;"/>
    </defs>
    <g clip-path="url(#pf95aaea359)">
     <use style="fill:#ff7f0e;stroke:#ff7f0e;" x="55.626477" xlink:href="#m43c76643f4" y="272.162625"/>
     <use style="fill:#ff7f0e;stroke:#ff7f0e;" x="57.129508" xlink:href="#m43c76643f4" y="272.162625"/>
     <use style="fill:#ff7f0e;stroke:#ff7f0e;" x="58.632538" xlink:href="#m43c76643f4" y="272.162625"/>
     <use style="fill:#ff7f0e;stroke:#ff7f0e;" x="60.135568" xlink:href="#m43c76643f4" y="272.162625"/>
     <use style="fill:#ff7f0e;stroke:#ff7f0e;" x="61.638598" xlink:href="#m43c76643f4" y="272.162625"/>
     <use style="fill:#ff7f0e;stroke:#ff7f0e;" x="63.141629" xlink:href="#m43c76643f4" y="272.162625"/>
     <use style="fill:#ff7f0e;stroke:#ff7f0e;" x="64.644659" xlink:href="#m43c76643f4" y="272.162625"/>
     <use style="fill:#ff7f0e;stroke:#ff7f0e;" x="66.147689" xlink:href="#m43c76643f4" y="272.162625"/>
     <use style="fill:#ff7f0e;stroke:#ff7f0e;" x="67.65072" xlink:href="#m43c76643f4" y="272.162625"/>
     <use style="fill:#ff7f0e;stroke:#ff7f0e;" x="69.15375" xlink:href="#m43c76643f4" y="272.162625"/>
     <use style="fill:#ff7f0e;stroke:#ff7f0e;" x="70.65678" xlink:href="#m43c76643f4" y="272.162625"/>
     <use style="fill:#ff7f0e;stroke:#ff7f0e;" x="72.159811" xlink:href="#m43c76643f4" y="272.162625"/>
     <use style="fill:#ff7f0e;stroke:#ff7f0e;" x="73.662841" xlink:href="#m43c76643f4" y="272.01199"/>
     <use style="fill:#ff7f0e;stroke:#ff7f0e;" x="75.165871" xlink:href="#m43c76643f4" y="272.162625"/>
     <use style="fill:#ff7f0e;stroke:#ff7f0e;" x="76.668902" xlink:href="#m43c76643f4" y="272.162625"/>
     <use style="fill:#ff7f0e;stroke:#ff7f0e;" x="78.171932" xlink:href="#m43c76643f4" y="272.162625"/>
     <use style="fill:#ff7f0e;stroke:#ff7f0e;" x="79.674962" xlink:href="#m43c76643f4" y="272.162625"/>
     <use style="fill:#ff7f0e;stroke:#ff7f0e;" x="81.177992" xlink:href="#m43c76643f4" y="272.162625"/>
     <use style="fill:#ff7f0e;stroke:#ff7f0e;" x="82.681023" xlink:href="#m43c76643f4" y="272.162625"/>
     <use style="fill:#ff7f0e;stroke:#ff7f0e;" x="84.184053" xlink:href="#m43c76643f4" y="272.162625"/>
     <use style="fill:#ff7f0e;stroke:#ff7f0e;" x="85.687083" xlink:href="#m43c76643f4" y="272.162625"/>
     <use style="fill:#ff7f0e;stroke:#ff7f0e;" x="87.190114" xlink:href="#m43c76643f4" y="272.01199"/>
     <use style="fill:#ff7f0e;stroke:#ff7f0e;" x="88.693144" xlink:href="#m43c76643f4" y="272.01199"/>
     <use style="fill:#ff7f0e;stroke:#ff7f0e;" x="90.196174" xlink:href="#m43c76643f4" y="272.01199"/>
     <use style="fill:#ff7f0e;stroke:#ff7f0e;" x="91.699205" xlink:href="#m43c76643f4" y="272.162625"/>
     <use style="fill:#ff7f0e;stroke:#ff7f0e;" x="93.202235" xlink:href="#m43c76643f4" y="271.71072"/>
     <use style="fill:#ff7f0e;stroke:#ff7f0e;" x="94.705265" xlink:href="#m43c76643f4" y="272.01199"/>
     <use style="fill:#ff7f0e;stroke:#ff7f0e;" x="96.208295" xlink:href="#m43c76643f4" y="271.258814"/>
     <use style="fill:#ff7f0e;stroke:#ff7f0e;" x="97.711326" xlink:href="#m43c76643f4" y="271.861355"/>
     <use style="fill:#ff7f0e;stroke:#ff7f0e;" x="99.214356" xlink:href="#m43c76643f4" y="271.71072"/>
     <use style="fill:#ff7f0e;stroke:#ff7f0e;" x="100.717386" xlink:href="#m43c76643f4" y="272.162625"/>
     <use style="fill:#ff7f0e;stroke:#ff7f0e;" x="102.220417" xlink:href="#m43c76643f4" y="272.162625"/>
     <use style="fill:#ff7f0e;stroke:#ff7f0e;" x="103.723447" xlink:href="#m43c76643f4" y="271.560085"/>
     <use style="fill:#ff7f0e;stroke:#ff7f0e;" x="105.226477" xlink:href="#m43c76643f4" y="271.861355"/>
     <use style="fill:#ff7f0e;stroke:#ff7f0e;" x="106.729508" xlink:href="#m43c76643f4" y="272.162625"/>
     <use style="fill:#ff7f0e;stroke:#ff7f0e;" x="108.232538" xlink:href="#m43c76643f4" y="272.01199"/>
     <use style="fill:#ff7f0e;stroke:#ff7f0e;" x="109.735568" xlink:href="#m43c76643f4" y="272.162625"/>
     <use style="fill:#ff7f0e;stroke:#ff7f0e;" x="111.238598" xlink:href="#m43c76643f4" y="272.162625"/>
     <use style="fill:#ff7f0e;stroke:#ff7f0e;" x="112.741629" xlink:href="#m43c76643f4" y="271.861355"/>
     <use style="fill:#ff7f0e;stroke:#ff7f0e;" x="114.244659" xlink:href="#m43c76643f4" y="272.01199"/>
     <use style="fill:#ff7f0e;stroke:#ff7f0e;" x="115.747689" xlink:href="#m43c76643f4" y="272.162625"/>
     <use style="fill:#ff7f0e;stroke:#ff7f0e;" x="117.25072" xlink:href="#m43c76643f4" y="271.560085"/>
     <use style="fill:#ff7f0e;stroke:#ff7f0e;" x="118.75375" xlink:href="#m43c76643f4" y="270.957544"/>
     <use style="fill:#ff7f0e;stroke:#ff7f0e;" x="120.25678" xlink:href="#m43c76643f4" y="270.355004"/>
     <use style="fill:#ff7f0e;stroke:#ff7f0e;" x="121.759811" xlink:href="#m43c76643f4" y="271.258814"/>
     <use style="fill:#ff7f0e;stroke:#ff7f0e;" x="123.262841" xlink:href="#m43c76643f4" y="271.108179"/>
     <use style="fill:#ff7f0e;stroke:#ff7f0e;" x="124.765871" xlink:href="#m43c76643f4" y="270.656274"/>
     <use style="fill:#ff7f0e;stroke:#ff7f0e;" x="126.268902" xlink:href="#m43c76643f4" y="270.806909"/>
     <use style="fill:#ff7f0e;stroke:#ff7f0e;" x="127.771932" xlink:href="#m43c76643f4" y="270.806909"/>
     <use style="fill:#ff7f0e;stroke:#ff7f0e;" x="129.274962" xlink:href="#m43c76643f4" y="269.601828"/>
     <use style="fill:#ff7f0e;stroke:#ff7f0e;" x="130.777992" xlink:href="#m43c76643f4" y="268.246112"/>
     <use style="fill:#ff7f0e;stroke:#ff7f0e;" x="132.281023" xlink:href="#m43c76643f4" y="270.656274"/>
     <use style="fill:#ff7f0e;stroke:#ff7f0e;" x="133.784053" xlink:href="#m43c76643f4" y="270.355004"/>
     <use style="fill:#ff7f0e;stroke:#ff7f0e;" x="135.287083" xlink:href="#m43c76643f4" y="269.903098"/>
     <use style="fill:#ff7f0e;stroke:#ff7f0e;" x="136.790114" xlink:href="#m43c76643f4" y="269.601828"/>
     <use style="fill:#ff7f0e;stroke:#ff7f0e;" x="138.293144" xlink:href="#m43c76643f4" y="268.396747"/>
     <use style="fill:#ff7f0e;stroke:#ff7f0e;" x="139.796174" xlink:href="#m43c76643f4" y="269.149923"/>
     <use style="fill:#ff7f0e;stroke:#ff7f0e;" x="141.299205" xlink:href="#m43c76643f4" y="270.957544"/>
     <use style="fill:#ff7f0e;stroke:#ff7f0e;" x="142.802235" xlink:href="#m43c76643f4" y="270.053733"/>
     <use style="fill:#ff7f0e;stroke:#ff7f0e;" x="144.305265" xlink:href="#m43c76643f4" y="269.601828"/>
     <use style="fill:#ff7f0e;stroke:#ff7f0e;" x="145.808295" xlink:href="#m43c76643f4" y="269.149923"/>
     <use style="fill:#ff7f0e;stroke:#ff7f0e;" x="147.311326" xlink:href="#m43c76643f4" y="266.739761"/>
     <use style="fill:#ff7f0e;stroke:#ff7f0e;" x="148.814356" xlink:href="#m43c76643f4" y="266.739761"/>
     <use style="fill:#ff7f0e;stroke:#ff7f0e;" x="150.317386" xlink:href="#m43c76643f4" y="263.576423"/>
     <use style="fill:#ff7f0e;stroke:#ff7f0e;" x="151.820417" xlink:href="#m43c76643f4" y="266.438491"/>
     <use style="fill:#ff7f0e;stroke:#ff7f0e;" x="153.323447" xlink:href="#m43c76643f4" y="266.589126"/>
     <use style="fill:#ff7f0e;stroke:#ff7f0e;" x="154.826477" xlink:href="#m43c76643f4" y="268.246112"/>
     <use style="fill:#ff7f0e;stroke:#ff7f0e;" x="156.329508" xlink:href="#m43c76643f4" y="261.768802"/>
     <use style="fill:#ff7f0e;stroke:#ff7f0e;" x="157.832538" xlink:href="#m43c76643f4" y="263.576423"/>
     <use style="fill:#ff7f0e;stroke:#ff7f0e;" x="159.335568" xlink:href="#m43c76643f4" y="265.384045"/>
     <use style="fill:#ff7f0e;stroke:#ff7f0e;" x="160.838598" xlink:href="#m43c76643f4" y="265.986585"/>
     <use style="fill:#ff7f0e;stroke:#ff7f0e;" x="162.341629" xlink:href="#m43c76643f4" y="264.028329"/>
     <use style="fill:#ff7f0e;stroke:#ff7f0e;" x="163.844659" xlink:href="#m43c76643f4" y="267.643571"/>
     <use style="fill:#ff7f0e;stroke:#ff7f0e;" x="165.347689" xlink:href="#m43c76643f4" y="269.300558"/>
     <use style="fill:#ff7f0e;stroke:#ff7f0e;" x="166.85072" xlink:href="#m43c76643f4" y="265.23341"/>
     <use style="fill:#ff7f0e;stroke:#ff7f0e;" x="168.35375" xlink:href="#m43c76643f4" y="265.53468"/>
     <use style="fill:#ff7f0e;stroke:#ff7f0e;" x="169.85678" xlink:href="#m43c76643f4" y="265.23341"/>
     <use style="fill:#ff7f0e;stroke:#ff7f0e;" x="171.359811" xlink:href="#m43c76643f4" y="265.384045"/>
     <use style="fill:#ff7f0e;stroke:#ff7f0e;" x="172.862841" xlink:href="#m43c76643f4" y="265.685315"/>
     <use style="fill:#ff7f0e;stroke:#ff7f0e;" x="174.365871" xlink:href="#m43c76643f4" y="265.685315"/>
     <use style="fill:#ff7f0e;stroke:#ff7f0e;" x="175.868902" xlink:href="#m43c76643f4" y="266.438491"/>
     <use style="fill:#ff7f0e;stroke:#ff7f0e;" x="177.371932" xlink:href="#m43c76643f4" y="260.111816"/>
     <use style="fill:#ff7f0e;stroke:#ff7f0e;" x="178.874962" xlink:href="#m43c76643f4" y="258.304194"/>
     <use style="fill:#ff7f0e;stroke:#ff7f0e;" x="180.377992" xlink:href="#m43c76643f4" y="257.249748"/>
     <use style="fill:#ff7f0e;stroke:#ff7f0e;" x="181.881023" xlink:href="#m43c76643f4" y="253.1826"/>
     <use style="fill:#ff7f0e;stroke:#ff7f0e;" x="183.384053" xlink:href="#m43c76643f4" y="241.131791"/>
     <use style="fill:#ff7f0e;stroke:#ff7f0e;" x="184.887083" xlink:href="#m43c76643f4" y="248.211641"/>
     <use style="fill:#ff7f0e;stroke:#ff7f0e;" x="186.390114" xlink:href="#m43c76643f4" y="249.717992"/>
     <use style="fill:#ff7f0e;stroke:#ff7f0e;" x="187.893144" xlink:href="#m43c76643f4" y="236.612737"/>
     <use style="fill:#ff7f0e;stroke:#ff7f0e;" x="189.396174" xlink:href="#m43c76643f4" y="230.135427"/>
     <use style="fill:#ff7f0e;stroke:#ff7f0e;" x="190.899205" xlink:href="#m43c76643f4" y="228.026535"/>
     <use style="fill:#ff7f0e;stroke:#ff7f0e;" x="192.402235" xlink:href="#m43c76643f4" y="219.892239"/>
     <use style="fill:#ff7f0e;stroke:#ff7f0e;" x="193.905265" xlink:href="#m43c76643f4" y="213.264294"/>
     <use style="fill:#ff7f0e;stroke:#ff7f0e;" x="195.408295" xlink:href="#m43c76643f4" y="226.520184"/>
     <use style="fill:#ff7f0e;stroke:#ff7f0e;" x="196.911326" xlink:href="#m43c76643f4" y="232.545589"/>
     <use style="fill:#ff7f0e;stroke:#ff7f0e;" x="198.414356" xlink:href="#m43c76643f4" y="200.159038"/>
     <use style="fill:#ff7f0e;stroke:#ff7f0e;" x="199.917386" xlink:href="#m43c76643f4" y="200.008403"/>
     <use style="fill:#ff7f0e;stroke:#ff7f0e;" x="201.420417" xlink:href="#m43c76643f4" y="175.454879"/>
     <use style="fill:#ff7f0e;stroke:#ff7f0e;" x="202.923447" xlink:href="#m43c76643f4" y="176.05742"/>
     <use style="fill:#ff7f0e;stroke:#ff7f0e;" x="204.426477" xlink:href="#m43c76643f4" y="167.471218"/>
     <use style="fill:#ff7f0e;stroke:#ff7f0e;" x="205.929508" xlink:href="#m43c76643f4" y="203.021106"/>
     <use style="fill:#ff7f0e;stroke:#ff7f0e;" x="207.432538" xlink:href="#m43c76643f4" y="225.013833"/>
     <use style="fill:#ff7f0e;stroke:#ff7f0e;" x="208.935568" xlink:href="#m43c76643f4" y="193.531093"/>
     <use style="fill:#ff7f0e;stroke:#ff7f0e;" x="210.438598" xlink:href="#m43c76643f4" y="184.191716"/>
     <use style="fill:#ff7f0e;stroke:#ff7f0e;" x="211.941629" xlink:href="#m43c76643f4" y="192.024742"/>
     <use style="fill:#ff7f0e;stroke:#ff7f0e;" x="213.444659" xlink:href="#m43c76643f4" y="187.204418"/>
     <use style="fill:#ff7f0e;stroke:#ff7f0e;" x="214.947689" xlink:href="#m43c76643f4" y="186.903148"/>
     <use style="fill:#ff7f0e;stroke:#ff7f0e;" x="216.45072" xlink:href="#m43c76643f4" y="222.151766"/>
     <use style="fill:#ff7f0e;stroke:#ff7f0e;" x="217.95375" xlink:href="#m43c76643f4" y="217.632712"/>
     <use style="fill:#ff7f0e;stroke:#ff7f0e;" x="219.45678" xlink:href="#m43c76643f4" y="210.100956"/>
     <use style="fill:#ff7f0e;stroke:#ff7f0e;" x="220.959811" xlink:href="#m43c76643f4" y="205.883173"/>
     <use style="fill:#ff7f0e;stroke:#ff7f0e;" x="222.462841" xlink:href="#m43c76643f4" y="207.992065"/>
     <use style="fill:#ff7f0e;stroke:#ff7f0e;" x="223.965871" xlink:href="#m43c76643f4" y="205.581903"/>
     <use style="fill:#ff7f0e;stroke:#ff7f0e;" x="225.468902" xlink:href="#m43c76643f4" y="217.331442"/>
     <use style="fill:#ff7f0e;stroke:#ff7f0e;" x="226.971932" xlink:href="#m43c76643f4" y="240.981156"/>
     <use style="fill:#ff7f0e;stroke:#ff7f0e;" x="228.474962" xlink:href="#m43c76643f4" y="246.10275"/>
     <use style="fill:#ff7f0e;stroke:#ff7f0e;" x="229.977992" xlink:href="#m43c76643f4" y="228.17717"/>
     <use style="fill:#ff7f0e;stroke:#ff7f0e;" x="231.481023" xlink:href="#m43c76643f4" y="239.324169"/>
     <use style="fill:#ff7f0e;stroke:#ff7f0e;" x="232.984053" xlink:href="#m43c76643f4" y="244.747033"/>
     <use style="fill:#ff7f0e;stroke:#ff7f0e;" x="234.487083" xlink:href="#m43c76643f4" y="228.779711"/>
     <use style="fill:#ff7f0e;stroke:#ff7f0e;" x="235.990114" xlink:href="#m43c76643f4" y="226.670819"/>
     <use style="fill:#ff7f0e;stroke:#ff7f0e;" x="237.493144" xlink:href="#m43c76643f4" y="244.144493"/>
     <use style="fill:#ff7f0e;stroke:#ff7f0e;" x="238.996174" xlink:href="#m43c76643f4" y="249.416722"/>
     <use style="fill:#ff7f0e;stroke:#ff7f0e;" x="240.499205" xlink:href="#m43c76643f4" y="254.688951"/>
     <use style="fill:#ff7f0e;stroke:#ff7f0e;" x="242.002235" xlink:href="#m43c76643f4" y="257.852289"/>
     <use style="fill:#ff7f0e;stroke:#ff7f0e;" x="243.505265" xlink:href="#m43c76643f4" y="258.605464"/>
     <use style="fill:#ff7f0e;stroke:#ff7f0e;" x="245.008295" xlink:href="#m43c76643f4" y="257.249748"/>
     <use style="fill:#ff7f0e;stroke:#ff7f0e;" x="246.511326" xlink:href="#m43c76643f4" y="255.291492"/>
     <use style="fill:#ff7f0e;stroke:#ff7f0e;" x="248.014356" xlink:href="#m43c76643f4" y="261.919437"/>
     <use style="fill:#ff7f0e;stroke:#ff7f0e;" x="249.517386" xlink:href="#m43c76643f4" y="266.890396"/>
     <use style="fill:#ff7f0e;stroke:#ff7f0e;" x="251.020417" xlink:href="#m43c76643f4" y="260.864991"/>
     <use style="fill:#ff7f0e;stroke:#ff7f0e;" x="252.523447" xlink:href="#m43c76643f4" y="260.714356"/>
     <use style="fill:#ff7f0e;stroke:#ff7f0e;" x="254.026477" xlink:href="#m43c76643f4" y="259.96118"/>
     <use style="fill:#ff7f0e;stroke:#ff7f0e;" x="255.529508" xlink:href="#m43c76643f4" y="263.124518"/>
     <use style="fill:#ff7f0e;stroke:#ff7f0e;" x="257.032538" xlink:href="#m43c76643f4" y="265.83595"/>
     <use style="fill:#ff7f0e;stroke:#ff7f0e;" x="258.535568" xlink:href="#m43c76643f4" y="268.246112"/>
     <use style="fill:#ff7f0e;stroke:#ff7f0e;" x="260.038598" xlink:href="#m43c76643f4" y="268.999288"/>
     <use style="fill:#ff7f0e;stroke:#ff7f0e;" x="261.541629" xlink:href="#m43c76643f4" y="265.384045"/>
     <use style="fill:#ff7f0e;stroke:#ff7f0e;" x="263.044659" xlink:href="#m43c76643f4" y="267.492936"/>
     <use style="fill:#ff7f0e;stroke:#ff7f0e;" x="264.547689" xlink:href="#m43c76643f4" y="266.438491"/>
     <use style="fill:#ff7f0e;stroke:#ff7f0e;" x="266.05072" xlink:href="#m43c76643f4" y="267.342301"/>
     <use style="fill:#ff7f0e;stroke:#ff7f0e;" x="267.55375" xlink:href="#m43c76643f4" y="268.547382"/>
     <use style="fill:#ff7f0e;stroke:#ff7f0e;" x="269.05678" xlink:href="#m43c76643f4" y="267.794207"/>
     <use style="fill:#ff7f0e;stroke:#ff7f0e;" x="270.559811" xlink:href="#m43c76643f4" y="268.246112"/>
     <use style="fill:#ff7f0e;stroke:#ff7f0e;" x="272.062841" xlink:href="#m43c76643f4" y="268.246112"/>
     <use style="fill:#ff7f0e;stroke:#ff7f0e;" x="273.565871" xlink:href="#m43c76643f4" y="265.53468"/>
     <use style="fill:#ff7f0e;stroke:#ff7f0e;" x="275.068902" xlink:href="#m43c76643f4" y="265.082774"/>
     <use style="fill:#ff7f0e;stroke:#ff7f0e;" x="276.571932" xlink:href="#m43c76643f4" y="259.208005"/>
     <use style="fill:#ff7f0e;stroke:#ff7f0e;" x="278.074962" xlink:href="#m43c76643f4" y="265.685315"/>
     <use style="fill:#ff7f0e;stroke:#ff7f0e;" x="279.577992" xlink:href="#m43c76643f4" y="268.095477"/>
     <use style="fill:#ff7f0e;stroke:#ff7f0e;" x="281.081023" xlink:href="#m43c76643f4" y="266.589126"/>
     <use style="fill:#ff7f0e;stroke:#ff7f0e;" x="282.584053" xlink:href="#m43c76643f4" y="264.480234"/>
     <use style="fill:#ff7f0e;stroke:#ff7f0e;" x="284.087083" xlink:href="#m43c76643f4" y="267.643571"/>
     <use style="fill:#ff7f0e;stroke:#ff7f0e;" x="285.590114" xlink:href="#m43c76643f4" y="263.877693"/>
     <use style="fill:#ff7f0e;stroke:#ff7f0e;" x="287.093144" xlink:href="#m43c76643f4" y="264.932139"/>
     <use style="fill:#ff7f0e;stroke:#ff7f0e;" x="288.596174" xlink:href="#m43c76643f4" y="265.986585"/>
     <use style="fill:#ff7f0e;stroke:#ff7f0e;" x="290.099205" xlink:href="#m43c76643f4" y="267.191666"/>
     <use style="fill:#ff7f0e;stroke:#ff7f0e;" x="291.602235" xlink:href="#m43c76643f4" y="267.944842"/>
     <use style="fill:#ff7f0e;stroke:#ff7f0e;" x="293.105265" xlink:href="#m43c76643f4" y="265.53468"/>
     <use style="fill:#ff7f0e;stroke:#ff7f0e;" x="294.608295" xlink:href="#m43c76643f4" y="265.986585"/>
     <use style="fill:#ff7f0e;stroke:#ff7f0e;" x="296.111326" xlink:href="#m43c76643f4" y="265.082774"/>
     <use style="fill:#ff7f0e;stroke:#ff7f0e;" x="297.614356" xlink:href="#m43c76643f4" y="263.727058"/>
     <use style="fill:#ff7f0e;stroke:#ff7f0e;" x="299.117386" xlink:href="#m43c76643f4" y="266.13722"/>
     <use style="fill:#ff7f0e;stroke:#ff7f0e;" x="300.620417" xlink:href="#m43c76643f4" y="261.166261"/>
     <use style="fill:#ff7f0e;stroke:#ff7f0e;" x="302.123447" xlink:href="#m43c76643f4" y="261.166261"/>
     <use style="fill:#ff7f0e;stroke:#ff7f0e;" x="303.626477" xlink:href="#m43c76643f4" y="264.480234"/>
     <use style="fill:#ff7f0e;stroke:#ff7f0e;" x="305.129508" xlink:href="#m43c76643f4" y="266.287855"/>
     <use style="fill:#ff7f0e;stroke:#ff7f0e;" x="306.632538" xlink:href="#m43c76643f4" y="262.220707"/>
     <use style="fill:#ff7f0e;stroke:#ff7f0e;" x="308.135568" xlink:href="#m43c76643f4" y="263.124518"/>
     <use style="fill:#ff7f0e;stroke:#ff7f0e;" x="309.638598" xlink:href="#m43c76643f4" y="262.521977"/>
     <use style="fill:#ff7f0e;stroke:#ff7f0e;" x="311.141629" xlink:href="#m43c76643f4" y="264.329599"/>
     <use style="fill:#ff7f0e;stroke:#ff7f0e;" x="312.644659" xlink:href="#m43c76643f4" y="265.384045"/>
     <use style="fill:#ff7f0e;stroke:#ff7f0e;" x="314.147689" xlink:href="#m43c76643f4" y="262.220707"/>
     <use style="fill:#ff7f0e;stroke:#ff7f0e;" x="315.65072" xlink:href="#m43c76643f4" y="256.948478"/>
     <use style="fill:#ff7f0e;stroke:#ff7f0e;" x="317.15375" xlink:href="#m43c76643f4" y="260.413086"/>
     <use style="fill:#ff7f0e;stroke:#ff7f0e;" x="318.65678" xlink:href="#m43c76643f4" y="257.249748"/>
     <use style="fill:#ff7f0e;stroke:#ff7f0e;" x="320.159811" xlink:href="#m43c76643f4" y="256.496573"/>
     <use style="fill:#ff7f0e;stroke:#ff7f0e;" x="321.662841" xlink:href="#m43c76643f4" y="256.647208"/>
     <use style="fill:#ff7f0e;stroke:#ff7f0e;" x="323.165871" xlink:href="#m43c76643f4" y="254.086411"/>
     <use style="fill:#ff7f0e;stroke:#ff7f0e;" x="324.668902" xlink:href="#m43c76643f4" y="250.923073"/>
     <use style="fill:#ff7f0e;stroke:#ff7f0e;" x="326.171932" xlink:href="#m43c76643f4" y="251.977519"/>
     <use style="fill:#ff7f0e;stroke:#ff7f0e;" x="327.674962" xlink:href="#m43c76643f4" y="240.981156"/>
     <use style="fill:#ff7f0e;stroke:#ff7f0e;" x="329.177992" xlink:href="#m43c76643f4" y="235.859561"/>
     <use style="fill:#ff7f0e;stroke:#ff7f0e;" x="330.681023" xlink:href="#m43c76643f4" y="231.340508"/>
     <use style="fill:#ff7f0e;stroke:#ff7f0e;" x="332.184053" xlink:href="#m43c76643f4" y="242.638142"/>
     <use style="fill:#ff7f0e;stroke:#ff7f0e;" x="333.687083" xlink:href="#m43c76643f4" y="243.541953"/>
     <use style="fill:#ff7f0e;stroke:#ff7f0e;" x="335.190114" xlink:href="#m43c76643f4" y="235.859561"/>
     <use style="fill:#ff7f0e;stroke:#ff7f0e;" x="336.693144" xlink:href="#m43c76643f4" y="243.843223"/>
     <use style="fill:#ff7f0e;stroke:#ff7f0e;" x="338.196174" xlink:href="#m43c76643f4" y="215.373185"/>
     <use style="fill:#ff7f0e;stroke:#ff7f0e;" x="339.699205" xlink:href="#m43c76643f4" y="209.498416"/>
     <use style="fill:#ff7f0e;stroke:#ff7f0e;" x="341.202235" xlink:href="#m43c76643f4" y="211.757943"/>
     <use style="fill:#ff7f0e;stroke:#ff7f0e;" x="342.705265" xlink:href="#m43c76643f4" y="220.79605"/>
     <use style="fill:#ff7f0e;stroke:#ff7f0e;" x="344.208295" xlink:href="#m43c76643f4" y="231.189873"/>
     <use style="fill:#ff7f0e;stroke:#ff7f0e;" x="345.711326" xlink:href="#m43c76643f4" y="220.645415"/>
     <use style="fill:#ff7f0e;stroke:#ff7f0e;" x="347.214356" xlink:href="#m43c76643f4" y="202.26793"/>
     <use style="fill:#ff7f0e;stroke:#ff7f0e;" x="348.717386" xlink:href="#m43c76643f4" y="179.672662"/>
     <use style="fill:#ff7f0e;stroke:#ff7f0e;" x="350.220417" xlink:href="#m43c76643f4" y="175.605514"/>
     <use style="fill:#ff7f0e;stroke:#ff7f0e;" x="351.723447" xlink:href="#m43c76643f4" y="180.275203"/>
     <use style="fill:#ff7f0e;stroke:#ff7f0e;" x="353.226477" xlink:href="#m43c76643f4" y="202.117295"/>
     <use style="fill:#ff7f0e;stroke:#ff7f0e;" x="354.729508" xlink:href="#m43c76643f4" y="199.104593"/>
     <use style="fill:#ff7f0e;stroke:#ff7f0e;" x="356.232538" xlink:href="#m43c76643f4" y="176.65996"/>
     <use style="fill:#ff7f0e;stroke:#ff7f0e;" x="357.735568" xlink:href="#m43c76643f4" y="143.218964"/>
     <use style="fill:#ff7f0e;stroke:#ff7f0e;" x="359.238598" xlink:href="#m43c76643f4" y="135.837843"/>
     <use style="fill:#ff7f0e;stroke:#ff7f0e;" x="360.741629" xlink:href="#m43c76643f4" y="156.324219"/>
     <use style="fill:#ff7f0e;stroke:#ff7f0e;" x="362.244659" xlink:href="#m43c76643f4" y="148.792463"/>
     <use style="fill:#ff7f0e;stroke:#ff7f0e;" x="363.747689" xlink:href="#m43c76643f4" y="156.776124"/>
     <use style="fill:#ff7f0e;stroke:#ff7f0e;" x="365.25072" xlink:href="#m43c76643f4" y="171.689001"/>
     <use style="fill:#ff7f0e;stroke:#ff7f0e;" x="366.75375" xlink:href="#m43c76643f4" y="110.380508"/>
     <use style="fill:#ff7f0e;stroke:#ff7f0e;" x="368.25678" xlink:href="#m43c76643f4" y="79.199038"/>
     <use style="fill:#ff7f0e;stroke:#ff7f0e;" x="369.759811" xlink:href="#m43c76643f4" y="75.43316"/>
     <use style="fill:#ff7f0e;stroke:#ff7f0e;" x="371.262841" xlink:href="#m43c76643f4" y="30.242625"/>
     <use style="fill:#ff7f0e;stroke:#ff7f0e;" x="372.765871" xlink:href="#m43c76643f4" y="73.324269"/>
     <use style="fill:#ff7f0e;stroke:#ff7f0e;" x="374.268902" xlink:href="#m43c76643f4" y="109.476697"/>
     <use style="fill:#ff7f0e;stroke:#ff7f0e;" x="375.771932" xlink:href="#m43c76643f4" y="155.269773"/>
     <use style="fill:#ff7f0e;stroke:#ff7f0e;" x="377.274962" xlink:href="#m43c76643f4" y="140.055626"/>
     <use style="fill:#ff7f0e;stroke:#ff7f0e;" x="378.777992" xlink:href="#m43c76643f4" y="158.734381"/>
     <use style="fill:#ff7f0e;stroke:#ff7f0e;" x="380.281023" xlink:href="#m43c76643f4" y="182.53473"/>
    </g>
   </g>
   <g id="patch_3">
    <path d="M 39.39375 284.258625 
L 39.39375 18.146625 
" style="fill:none;stroke:#000000;stroke-linecap:square;stroke-linejoin:miter;stroke-width:0.8;"/>
   </g>
   <g id="patch_4">
    <path d="M 396.51375 284.258625 
L 396.51375 18.146625 
" style="fill:none;stroke:#000000;stroke-linecap:square;stroke-linejoin:miter;stroke-width:0.8;"/>
   </g>
   <g id="patch_5">
    <path d="M 39.39375 284.258625 
L 396.51375 284.258625 
" style="fill:none;stroke:#000000;stroke-linecap:square;stroke-linejoin:miter;stroke-width:0.8;"/>
   </g>
   <g id="patch_6">
    <path d="M 39.39375 18.146625 
L 396.51375 18.146625 
" style="fill:none;stroke:#000000;stroke-linecap:square;stroke-linejoin:miter;stroke-width:0.8;"/>
   </g>
   <g id="legend_1">
    <g id="patch_7">
     <path d="M 46.39375 56.29975 
L 165.376563 56.29975 
Q 167.376563 56.29975 167.376563 54.29975 
L 167.376563 25.146625 
Q 167.376563 23.146625 165.376563 23.146625 
L 46.39375 23.146625 
Q 44.39375 23.146625 44.39375 25.146625 
L 44.39375 54.29975 
Q 44.39375 56.29975 46.39375 56.29975 
z
" style="fill:#ffffff;opacity:0.8;stroke:#cccccc;stroke-linejoin:miter;"/>
    </g>
    <g id="line2d_20">
     <path d="M 48.39375 31.766937 
L 68.39375 31.766937 
" style="fill:none;stroke:#1f77b4;stroke-linecap:square;stroke-width:1.5;"/>
    </g>
    <g id="line2d_21">
     <g>
      <use style="fill:#1f77b4;stroke:#1f77b4;" x="58.39375" xlink:href="#mf99c7aca49" y="31.766937"/>
     </g>
    </g>
    <g id="text_19">
     <!--  (onset) -->
     <g transform="translate(76.39375 35.266937)scale(0.1 -0.1)">
      <defs>
       <path d="M 73.734375 56.84375 
Q 80.609375 62.75 85.203125 68.609375 
L 91.109375 64.40625 
Q 84.46875 57.8125 78.71875 53.328125 
Q 85.9375 48.6875 95.40625 44.625 
L 90.625 38.375 
Q 81.734375 42.78125 73.53125 48.640625 
L 73.53125 43.3125 
L 64.109375 43.3125 
L 64.109375 29.984375 
L 89.890625 29.984375 
L 89.890625 23.78125 
L 64.109375 23.78125 
L 64.109375 5.609375 
Q 64.109375 2.484375 65.71875 2.046875 
Q 67.390625 1.46875 73.09375 1.46875 
Q 82.125 1.46875 83.59375 2.984375 
Q 85.0625 4.4375 85.5 11.96875 
Q 85.5 13.484375 85.59375 14.0625 
L 92.625 11.578125 
Q 92.1875 0.390625 89.703125 -2.203125 
Q 87.0625 -5.328125 72.609375 -5.328125 
Q 63.8125 -5.328125 60.9375 -4 
Q 57.03125 -2.34375 57.03125 3.328125 
L 57.03125 23.78125 
L 42.578125 23.78125 
Q 40.1875 0.53125 11.078125 -7.421875 
L 7.28125 -0.984375 
Q 33.25 5.421875 35.5 23.78125 
L 10.015625 23.78125 
L 10.015625 29.984375 
L 35.796875 29.984375 
L 35.796875 43.3125 
L 27.78125 43.3125 
L 27.78125 47.015625 
Q 19.734375 41.359375 9.078125 36.1875 
L 4.5 42.1875 
Q 16.3125 46.734375 25.984375 53.8125 
Q 19.828125 60.15625 13.484375 64.59375 
L 18.609375 69.140625 
Q 26.515625 62.59375 31.109375 58.015625 
Q 38.03125 64.0625 43.171875 72.125 
L 20.0625 72.125 
L 20.0625 78.21875 
L 54 78.21875 
Q 58.203125 71.34375 62.890625 66.3125 
Q 69.09375 71.625 74.03125 77.9375 
L 79.828125 73.734375 
Q 74.171875 67.625 67.09375 62.203125 
Q 70.40625 59.078125 73.734375 56.84375 
z
M 57.03125 43.3125 
L 42.78125 43.3125 
L 42.78125 29.984375 
L 57.03125 29.984375 
z
M 30.90625 49.3125 
L 72.515625 49.3125 
Q 58.6875 59.28125 50.59375 71 
Q 43.21875 58.890625 30.90625 49.3125 
z
" id="IPAexGothic-30330"/>
       <path d="M 63.71875 2.875 
L 95.015625 2.875 
L 95.015625 -3.515625 
L 23.96875 -3.515625 
L 23.96875 2.875 
L 37.3125 2.875 
L 37.3125 38.28125 
L 44 38.28125 
L 44 2.875 
L 56.84375 2.875 
L 56.84375 46.578125 
L 30.515625 46.578125 
L 30.515625 52.78125 
L 90.046875 52.78125 
L 90.046875 46.578125 
L 63.71875 46.578125 
L 63.71875 29.203125 
L 87.796875 29.203125 
L 87.796875 23.09375 
L 63.71875 23.09375 
z
M 60.203125 70.515625 
L 93.890625 70.515625 
L 93.890625 64.109375 
L 27.296875 64.109375 
L 27.296875 41.40625 
Q 27.296875 23.140625 24.21875 12.203125 
Q 21.390625 2.25 14.59375 -6.203125 
L 9.625 -1.171875 
Q 18.75 10.359375 20.125 27.484375 
Q 15.4375 24.125 7.078125 19.734375 
L 4 26.609375 
Q 12.3125 29.59375 20.40625 34.328125 
L 20.40625 37.890625 
L 20.40625 70.515625 
L 52.78125 70.515625 
L 52.78125 81.984375 
L 60.203125 81.984375 
z
M 12.015625 40.375 
Q 8.890625 50.78125 5.421875 57.90625 
L 11.375 60.59375 
Q 15.234375 53.859375 18.40625 43.703125 
z
" id="IPAexGothic-30151"/>
       <path d="M 81.734375 75 
L 81.734375 -4.5 
L 74.125 -4.5 
L 74.125 2 
L 25.734375 2 
L 25.734375 -4.5 
L 18.109375 -4.5 
L 18.109375 75 
z
M 25.734375 68.3125 
L 25.734375 42.671875 
L 74.125 42.671875 
L 74.125 68.3125 
z
M 25.734375 35.890625 
L 25.734375 8.6875 
L 74.125 8.6875 
L 74.125 35.890625 
z
" id="IPAexGothic-26085"/>
       <path id="IPAexGothic-32"/>
       <path d="M 30.125 -15.875 
L 25.828125 -18.21875 
Q 7.625 1.078125 7.625 29.296875 
Q 7.625 57.46875 25.828125 76.703125 
L 30.125 74.421875 
Q 15.71875 55.03125 15.71875 29.390625 
Q 15.71875 3.171875 30.125 -15.875 
z
" id="IPAexGothic-40"/>
       <path d="M 29.984375 52.203125 
Q 40.53125 52.203125 47.75 45.125 
Q 55.171875 37.703125 55.171875 25.59375 
Q 55.171875 13.875 47.90625 6.59375 
Q 40.765625 -0.484375 29.984375 -0.484375 
Q 19.1875 -0.484375 12.203125 6.5 
Q 4.890625 13.765625 4.890625 25.875 
Q 4.890625 37.703125 12.3125 45.125 
Q 19.390625 52.203125 29.984375 52.203125 
z
M 29.984375 45.609375 
Q 23.734375 45.609375 19.390625 41.109375 
Q 13.875 35.59375 13.875 25.78125 
Q 13.875 16.109375 19.28125 10.6875 
Q 23.6875 6.296875 29.984375 6.296875 
Q 36.421875 6.296875 40.765625 10.796875 
Q 46.1875 16.21875 46.1875 26.125 
Q 46.1875 35.453125 40.671875 41.109375 
Q 36.1875 45.609375 29.984375 45.609375 
z
" id="IPAexGothic-111"/>
       <path d="M 34.90625 39.796875 
Q 30.28125 45.796875 23.1875 45.796875 
Q 13.921875 45.796875 13.921875 38.671875 
Q 13.921875 33.640625 23.921875 30.375 
L 27.203125 29.296875 
Q 41.40625 24.65625 41.40625 13.96875 
Q 41.40625 6.78125 35.5 2.6875 
Q 30.8125 -0.484375 23.390625 -0.484375 
Q 11.96875 -0.484375 4 7.859375 
L 9.421875 12.796875 
Q 15.578125 6.203125 23.6875 6.203125 
Q 33.296875 6.203125 33.296875 13.671875 
Q 33.296875 19.34375 22.703125 23.09375 
L 19.28125 24.265625 
Q 5.90625 28.953125 5.90625 37.984375 
Q 5.90625 43.703125 9.8125 47.609375 
Q 14.5 52.296875 22.703125 52.296875 
Q 33.6875 52.296875 40.71875 44.671875 
z
" id="IPAexGothic-115"/>
       <path d="M 33.203125 3.765625 
Q 27.640625 -0.09375 21.828125 -0.09375 
Q 10.203125 -0.09375 10.203125 12.984375 
L 10.203125 44.671875 
L 3.421875 44.671875 
L 3.421875 50.78125 
L 10.203125 50.78125 
L 10.203125 61.96875 
L 18.40625 66.0625 
L 18.40625 50.78125 
L 32.234375 50.78125 
L 32.234375 44.671875 
L 18.40625 44.671875 
L 18.40625 14.15625 
Q 18.40625 6.5 23.640625 6.5 
Q 27.15625 6.5 30.328125 9.1875 
z
" id="IPAexGothic-116"/>
       <path d="M 7.28125 76.703125 
Q 25.59375 57.375 25.59375 29.296875 
Q 25.59375 1.171875 7.28125 -18.21875 
L 2.984375 -15.875 
Q 17.484375 3.375 17.484375 29.390625 
Q 17.484375 54.828125 2.984375 74.421875 
z
" id="IPAexGothic-41"/>
      </defs>
      <use xlink:href="#IPAexGothic-30330"/>
      <use x="100" xlink:href="#IPAexGothic-30151"/>
      <use x="200" xlink:href="#IPAexGothic-26085"/>
      <use x="300" xlink:href="#IPAexGothic-32"/>
      <use x="327.001953" xlink:href="#IPAexGothic-40"/>
      <use x="360.302734" xlink:href="#IPAexGothic-111"/>
      <use x="420.703125" xlink:href="#IPAexGothic-110"/>
      <use x="481.103516" xlink:href="#IPAexGothic-115"/>
      <use x="527.294922" xlink:href="#IPAexGothic-101"/>
      <use x="584.179688" xlink:href="#IPAexGothic-116"/>
      <use x="618.798828" xlink:href="#IPAexGothic-41"/>
     </g>
    </g>
    <g id="line2d_22">
     <path d="M 48.39375 46.89975 
L 68.39375 46.89975 
" style="fill:none;stroke:#ff7f0e;stroke-linecap:square;stroke-width:1.5;"/>
    </g>
    <g id="line2d_23">
     <g>
      <use style="fill:#ff7f0e;stroke:#ff7f0e;" x="58.39375" xlink:href="#m43c76643f4" y="46.89975"/>
     </g>
    </g>
    <g id="text_20">
     <!--  (confirmed) -->
     <g transform="translate(76.39375 50.39975)scale(0.1 -0.1)">
      <defs>
       <path d="M 67.921875 50.296875 
Q 70.5625 55.28125 72.609375 61.8125 
L 79.296875 60.203125 
Q 76.171875 53.609375 74.21875 50.296875 
L 92 50.296875 
L 92 44.484375 
L 73.4375 44.484375 
L 73.4375 34.71875 
L 89.703125 34.71875 
L 89.703125 29.203125 
L 73.4375 29.203125 
L 73.4375 19.53125 
L 89.703125 19.53125 
L 89.703125 14.015625 
L 73.4375 14.015625 
L 73.4375 3.609375 
L 94.28125 3.609375 
L 94.28125 -2.203125 
L 54.109375 -2.203125 
L 54.109375 -6.984375 
L 47.609375 -6.984375 
L 47.609375 38.1875 
Q 43.0625 31.546875 38.8125 26.609375 
L 35.6875 32.8125 
Q 49.359375 49.953125 54.78125 64.796875 
L 45.515625 64.796875 
L 45.515625 53.515625 
L 39.203125 53.515625 
L 39.203125 70.609375 
L 56.78125 70.609375 
Q 58.59375 76.609375 60.109375 83.109375 
L 66.703125 81.890625 
Q 65.234375 75.53125 63.625 70.609375 
L 92.71875 70.609375 
L 92.71875 53.515625 
L 86.328125 53.515625 
L 86.328125 64.796875 
L 61.53125 64.796875 
Q 58.546875 56.984375 54.890625 50.296875 
z
M 67.140625 44.484375 
L 54.109375 44.484375 
L 54.109375 34.71875 
L 67.140625 34.71875 
z
M 67.140625 29.203125 
L 54.109375 29.203125 
L 54.109375 19.53125 
L 67.140625 19.53125 
z
M 67.140625 14.015625 
L 54.109375 14.015625 
L 54.109375 3.609375 
L 67.140625 3.609375 
z
M 18.109375 46 
L 35.546875 46 
L 35.546875 3.078125 
L 18.953125 3.078125 
L 18.953125 -5.125 
L 12.75 -5.125 
L 12.75 34.46875 
Q 10.15625 29.734375 6.15625 23.78125 
L 2.9375 29.984375 
Q 14.546875 47.078125 18.75 69 
L 6.34375 69 
L 6.34375 75.296875 
L 37.640625 75.296875 
L 37.640625 69 
L 25.25 69 
L 24.953125 68.015625 
Q 22.75 57.234375 18.109375 46 
z
M 18.953125 39.890625 
L 18.953125 9.1875 
L 29.34375 9.1875 
L 29.34375 39.890625 
z
" id="IPAexGothic-30906"/>
       <path d="M 53.609375 4.734375 
Q 61.421875 3.515625 73.578125 3.515625 
Q 81.109375 3.515625 94.578125 4.109375 
Q 93.171875 0.921875 92 -3.5625 
Q 81.78125 -3.90625 75.6875 -3.90625 
Q 55.765625 -3.90625 46.921875 -1.21875 
Q 35.296875 2.390625 27.34375 14.109375 
Q 22.515625 2.546875 12.59375 -7.171875 
L 7.421875 -1.171875 
Q 22.125 11.859375 26.3125 37.796875 
L 33.203125 35.984375 
Q 31.734375 27.4375 29.828125 21.1875 
Q 36.53125 10.59375 46.4375 6.5 
L 46.4375 46 
L 22.40625 46 
L 22.40625 52.390625 
L 77.484375 52.390625 
L 77.484375 46 
L 53.609375 46 
L 53.609375 31 
L 84.328125 31 
L 84.328125 24.515625 
L 53.609375 24.515625 
z
M 53.421875 69.1875 
L 89.84375 69.1875 
L 89.84375 49.46875 
L 82.421875 49.46875 
L 82.421875 62.890625 
L 17.53125 62.890625 
L 17.53125 49.46875 
L 10.109375 49.46875 
L 10.109375 69.1875 
L 45.90625 69.1875 
L 45.90625 83.015625 
L 53.421875 83.015625 
z
" id="IPAexGothic-23450"/>
       <path d="M 51.078125 12.25 
Q 44.28125 -0.484375 29.6875 -0.484375 
Q 19.1875 -0.484375 12.3125 6.390625 
Q 4.890625 13.921875 4.890625 25.984375 
Q 4.890625 37.9375 12.3125 45.515625 
Q 19.09375 52.296875 29.390625 52.296875 
Q 43.953125 52.296875 50.09375 39.703125 
L 43.171875 36.078125 
Q 38.8125 45.3125 29.6875 45.3125 
Q 23.6875 45.3125 19.28125 40.921875 
Q 13.765625 35.40625 13.765625 25.78125 
Q 13.765625 16.703125 19.09375 11.375 
Q 23.78125 6.6875 30.5625 6.6875 
Q 39.796875 6.6875 44.484375 15.875 
z
" id="IPAexGothic-99"/>
       <path d="M 38.375 72.21875 
L 34.8125 66.3125 
Q 31.109375 69.09375 27.203125 69.09375 
Q 18.5 69.09375 18.5 57.375 
L 18.5 50.78125 
L 32.078125 50.78125 
L 32.078125 44.671875 
L 18.5 44.671875 
L 18.5 0.984375 
L 10.015625 0.984375 
L 10.015625 44.671875 
L 1.90625 44.671875 
L 1.90625 50.78125 
L 10.015625 50.78125 
L 10.015625 57.171875 
Q 10.015625 65.4375 13.921875 70.0625 
Q 18.75 75.6875 26.703125 75.6875 
Q 33.0625 75.6875 38.375 72.21875 
z
" id="IPAexGothic-102"/>
       <path d="M 18.40625 61.375 
L 8.59375 61.375 
L 8.59375 71.390625 
L 18.40625 71.390625 
z
M 17.78125 0.984375 
L 9.1875 0.984375 
L 9.1875 50.78125 
L 17.78125 50.78125 
z
" id="IPAexGothic-105"/>
       <path d="M 78.46875 0.984375 
L 69.875 0.984375 
L 69.875 32.171875 
Q 69.875 44.828125 60.109375 44.828125 
Q 55.46875 44.828125 51.609375 40.53125 
Q 48.875 37.453125 47.796875 32.859375 
L 47.796875 0.984375 
L 39.203125 0.984375 
L 39.203125 32.28125 
Q 39.203125 44.828125 29.984375 44.828125 
Q 25.09375 44.828125 21.390625 40.53125 
Q 17.390625 36.03125 17.390625 31.890625 
L 17.390625 0.984375 
L 8.796875 0.984375 
L 8.796875 50.78125 
L 16.796875 50.78125 
L 16.796875 42.1875 
Q 21.734375 51.8125 31.6875 51.8125 
Q 42.578125 51.8125 46.1875 41.359375 
Q 51.609375 51.8125 61.765625 51.8125 
Q 69.96875 51.8125 74.5625 46 
Q 78.46875 41.21875 78.46875 32.375 
z
" id="IPAexGothic-109"/>
       <path d="M 52.984375 0.984375 
L 45.171875 0.984375 
L 45.171875 9.671875 
Q 38.140625 -0.484375 27.390625 -0.484375 
Q 18.453125 -0.484375 12.3125 5.8125 
Q 4.890625 13.1875 4.890625 25.984375 
Q 4.890625 38.53125 12.0625 45.90625 
Q 18.265625 52.203125 27.390625 52.203125 
Q 37.25 52.203125 44.484375 43.890625 
L 44.484375 74.90625 
L 52.984375 74.90625 
z
M 44.484375 20.359375 
L 44.484375 32.765625 
Q 44.484375 37.703125 38.375 42.28125 
Q 34.078125 45.40625 28.953125 45.40625 
Q 23.1875 45.40625 19.1875 41.40625 
Q 13.875 36.078125 13.875 26.21875 
Q 13.875 17.328125 18.265625 11.71875 
Q 22.515625 6.390625 28.859375 6.390625 
Q 36.28125 6.390625 41.5 13.671875 
Q 44.484375 17.71875 44.484375 20.359375 
z
" id="IPAexGothic-100"/>
      </defs>
      <use xlink:href="#IPAexGothic-30906"/>
      <use x="100" xlink:href="#IPAexGothic-23450"/>
      <use x="200" xlink:href="#IPAexGothic-26085"/>
      <use x="300" xlink:href="#IPAexGothic-32"/>
      <use x="327.001953" xlink:href="#IPAexGothic-40"/>
      <use x="360.302734" xlink:href="#IPAexGothic-99"/>
      <use x="414.697266" xlink:href="#IPAexGothic-111"/>
      <use x="475.097656" xlink:href="#IPAexGothic-110"/>
      <use x="535.498047" xlink:href="#IPAexGothic-102"/>
      <use x="566.113281" xlink:href="#IPAexGothic-105"/>
      <use x="593.115234" xlink:href="#IPAexGothic-114"/>
      <use x="630.126953" xlink:href="#IPAexGothic-109"/>
      <use x="717.236328" xlink:href="#IPAexGothic-101"/>
      <use x="774.121094" xlink:href="#IPAexGothic-100"/>
      <use x="836.523438" xlink:href="#IPAexGothic-41"/>
     </g>
    </g>
   </g>
  </g>
  <g id="text_21">
   <!-- generated: 2020-08-07 07:40:19 -->
   <g transform="translate(238.618437 14.690625)scale(0.1 -0.1)">
    <defs>
     <path d="M 21.390625 39.984375 
L 10.5 39.984375 
L 10.5 50.78125 
L 21.390625 50.78125 
z
M 21.390625 0.984375 
L 10.5 0.984375 
L 10.5 11.765625 
L 21.390625 11.765625 
z
" id="IPAexGothic-58"/>
     <path d="M 30.765625 26.609375 
L 4.984375 26.609375 
L 4.984375 34.421875 
L 30.765625 34.421875 
z
" id="IPAexGothic-45"/>
     <path d="M 56.203125 66.609375 
Q 34.96875 32.90625 27.78125 0.984375 
L 17.671875 0.984375 
Q 24.703125 28.65625 46.09375 64.5 
L 6.6875 64.5 
L 6.6875 72.40625 
L 56.203125 72.40625 
z
" id="IPAexGothic-55"/>
     <path d="M 46.625 36.8125 
Q 39.75 26.8125 28.328125 26.8125 
Q 19.578125 26.8125 13.234375 32.125 
Q 5.71875 38.421875 5.71875 49.421875 
Q 5.71875 59.578125 12.015625 66.65625 
Q 18.453125 73.828125 29.203125 73.828125 
Q 43.75 73.828125 50.640625 61.71875 
Q 55.609375 52.78125 55.609375 38.625 
Q 55.609375 19.53125 47.515625 9.1875 
Q 39.890625 -0.484375 27.640625 -0.484375 
Q 13.421875 -0.484375 6.109375 10.984375 
L 13.328125 14.890625 
Q 18.0625 6.6875 27.390625 6.6875 
Q 45.65625 6.6875 47.015625 36.8125 
z
M 29.5 66.84375 
Q 22.65625 66.84375 18.3125 61.71875 
Q 14.40625 57.078125 14.40625 50 
Q 14.40625 42.828125 18.109375 38.71875 
Q 22.40625 33.796875 29.78125 33.796875 
Q 37.984375 33.796875 42.625 40.1875 
Q 45.703125 44.484375 45.703125 49.515625 
Q 45.703125 55.515625 42.09375 60.359375 
Q 37.109375 66.84375 29.5 66.84375 
z
" id="IPAexGothic-57"/>
    </defs>
    <use xlink:href="#IPAexGothic-103"/>
    <use x="55.517578" xlink:href="#IPAexGothic-101"/>
    <use x="112.402344" xlink:href="#IPAexGothic-110"/>
    <use x="172.802734" xlink:href="#IPAexGothic-101"/>
    <use x="229.6875" xlink:href="#IPAexGothic-114"/>
    <use x="266.699219" xlink:href="#IPAexGothic-97"/>
    <use x="321.679688" xlink:href="#IPAexGothic-116"/>
    <use x="356.298828" xlink:href="#IPAexGothic-101"/>
    <use x="413.183594" xlink:href="#IPAexGothic-100"/>
    <use x="475.585938" xlink:href="#IPAexGothic-58"/>
    <use x="507.568359" xlink:href="#IPAexGothic-32"/>
    <use x="534.570312" xlink:href="#IPAexGothic-50"/>
    <use x="597.558594" xlink:href="#IPAexGothic-48"/>
    <use x="660.546875" xlink:href="#IPAexGothic-50"/>
    <use x="723.535156" xlink:href="#IPAexGothic-48"/>
    <use x="786.523438" xlink:href="#IPAexGothic-45"/>
    <use x="822.314453" xlink:href="#IPAexGothic-48"/>
    <use x="885.302734" xlink:href="#IPAexGothic-56"/>
    <use x="948.291016" xlink:href="#IPAexGothic-45"/>
    <use x="984.082031" xlink:href="#IPAexGothic-48"/>
    <use x="1047.070312" xlink:href="#IPAexGothic-55"/>
    <use x="1110.058594" xlink:href="#IPAexGothic-32"/>
    <use x="1137.060547" xlink:href="#IPAexGothic-48"/>
    <use x="1200.048828" xlink:href="#IPAexGothic-55"/>
    <use x="1263.037109" xlink:href="#IPAexGothic-58"/>
    <use x="1295.019531" xlink:href="#IPAexGothic-52"/>
    <use x="1358.007812" xlink:href="#IPAexGothic-48"/>
    <use x="1420.996094" xlink:href="#IPAexGothic-58"/>
    <use x="1452.978516" xlink:href="#IPAexGothic-49"/>
    <use x="1515.966797" xlink:href="#IPAexGothic-57"/>
   </g>
  </g>
 </g>
 <defs>
  <clipPath id="pf95aaea359">
   <rect height="266.112" width="357.12" x="39.39375" y="18.146625"/>
  </clipPath>
 </defs>
</svg>
