<?xml version="1.0" encoding="utf-8" standalone="no"?>
<!DOCTYPE svg PUBLIC "-//W3C//DTD SVG 1.1//EN"
  "http://www.w3.org/Graphics/SVG/1.1/DTD/svg11.dtd">
<!-- Created with matplotlib (https://matplotlib.org/) -->
<svg height="320.239875pt" version="1.1" viewBox="0 0 408.093184 320.239875" width="408.093184pt" xmlns="http://www.w3.org/2000/svg" xmlns:xlink="http://www.w3.org/1999/xlink">
 <metadata>
  <rdf:RDF xmlns:cc="http://creativecommons.org/ns#" xmlns:dc="http://purl.org/dc/elements/1.1/" xmlns:rdf="http://www.w3.org/1999/02/22-rdf-syntax-ns#">
   <cc:Work>
    <dc:type rdf:resource="http://purl.org/dc/dcmitype/StillImage"/>
    <dc:date>2020-08-27T16:04:55.254634</dc:date>
    <dc:format>image/svg+xml</dc:format>
    <dc:creator>
     <cc:Agent>
      <dc:title>Matplotlib v3.3.1, https://matplotlib.org/</dc:title>
     </cc:Agent>
    </dc:creator>
   </cc:Work>
  </rdf:RDF>
 </metadata>
 <defs>
  <style type="text/css">*{stroke-linecap:butt;stroke-linejoin:round;}</style>
 </defs>
 <g id="figure_1">
  <g id="patch_1">
   <path d="M 0 320.239875 
L 408.093184 320.239875 
L 408.093184 0 
L 0 0 
z
" style="fill:#ffffff;"/>
  </g>
  <g id="axes_1">
   <g id="patch_2">
    <path d="M 40.1875 284.258625 
L 397.3075 284.258625 
L 397.3075 18.146625 
L 40.1875 18.146625 
z
" style="fill:#ffffff;"/>
   </g>
   <g id="matplotlib.axis_1">
    <g id="xtick_1">
     <g id="line2d_1">
      <defs>
       <path d="M 0 0 
L 0 3.5 
" id="m13c2bb1bda" style="stroke:#000000;stroke-width:0.8;"/>
      </defs>
      <g>
       <use style="stroke:#000000;stroke-width:0.8;" x="56.420227" xlink:href="#m13c2bb1bda" y="284.258625"/>
      </g>
     </g>
     <g id="text_1">
      <!-- Mar -->
      <g transform="translate(47.310852 298.74925)scale(0.1 -0.1)">
       <defs>
        <path d="M 80.421875 0.984375 
L 71.828125 0.984375 
L 71.828125 39.59375 
Q 71.828125 51.265625 72.40625 64.59375 
L 72.015625 64.59375 
Q 68.0625 53.265625 63.53125 41.796875 
L 47.90625 3.265625 
L 41.40625 3.265625 
L 25.640625 42.578125 
Q 20.75 54.78125 17.625 64.703125 
L 17.234375 64.703125 
Q 17.828125 48.921875 17.828125 39.890625 
L 17.828125 0.984375 
L 9.515625 0.984375 
L 9.515625 72.40625 
L 22.125 72.40625 
L 39.109375 30.375 
Q 42.140625 23 44.828125 14.15625 
L 45.125 14.15625 
Q 47.3125 22.125 50.53125 30.171875 
L 67.4375 72.40625 
L 80.421875 72.40625 
z
" id="IPAexGothic-77"/>
        <path d="M 49.3125 0.984375 
L 41.75 0.984375 
Q 39.984375 4.734375 39.546875 8.6875 
L 39.203125 8.6875 
Q 33.546875 -0.390625 22.3125 -0.390625 
Q 14.59375 -0.390625 9.71875 4.5 
Q 5.421875 8.796875 5.421875 14.984375 
Q 5.421875 30.421875 32.03125 31.203125 
L 38.71875 31.390625 
L 38.71875 33.984375 
Q 38.71875 39.203125 35.75 42.1875 
Q 32.625 45.3125 27.734375 45.3125 
Q 19.34375 45.3125 15.140625 37.15625 
L 7.71875 40.578125 
Q 14.65625 52 27.9375 52 
Q 37.109375 52 42.046875 46.875 
Q 46.625 42.28125 46.625 33.890625 
L 46.625 15.578125 
Q 46.625 6.25 49.3125 0.984375 
z
M 38.921875 25.390625 
L 33.453125 25.296875 
Q 14.109375 24.859375 14.109375 14.890625 
Q 14.109375 11.375 16.40625 9.078125 
Q 19.234375 6.296875 23.828125 6.296875 
Q 30.21875 6.296875 34.90625 10.984375 
Q 38.921875 15.140625 38.921875 21 
z
" id="IPAexGothic-97"/>
        <path d="M 36.078125 51.8125 
L 34.578125 43.265625 
Q 32.90625 43.609375 31.59375 43.609375 
Q 25.828125 43.609375 22.078125 38.1875 
Q 17.390625 31.34375 17.390625 26.171875 
L 17.390625 0.984375 
L 8.796875 0.984375 
L 8.796875 50.78125 
L 16.890625 50.78125 
L 16.5 35.984375 
L 16.703125 35.984375 
Q 22.21875 52.203125 32.765625 52.203125 
Q 34.46875 52.203125 36.078125 51.8125 
z
" id="IPAexGothic-114"/>
       </defs>
       <use xlink:href="#IPAexGothic-77"/>
       <use x="90.185547" xlink:href="#IPAexGothic-97"/>
       <use x="145.166016" xlink:href="#IPAexGothic-114"/>
      </g>
     </g>
    </g>
    <g id="xtick_2">
     <g id="line2d_2">
      <g>
       <use style="stroke:#000000;stroke-width:0.8;" x="112.961187" xlink:href="#m13c2bb1bda" y="284.258625"/>
      </g>
     </g>
     <g id="text_2">
      <!-- Apr -->
      <g transform="translate(104.819 298.74925)scale(0.1 -0.1)">
       <defs>
        <path d="M 63.375 0.984375 
L 53.8125 0.984375 
L 45.90625 22.015625 
L 17.1875 22.015625 
L 9.421875 0.984375 
L -0.09375 0.984375 
L 28.21875 72.90625 
L 35.296875 72.90625 
z
M 43.40625 29.109375 
L 36.1875 48.09375 
Q 33.203125 56.0625 31.6875 62.5 
L 31.390625 62.5 
Q 29.640625 55.671875 26.8125 48.09375 
L 19.734375 29.109375 
z
" id="IPAexGothic-65"/>
        <path d="M 16.796875 42 
Q 23.828125 52.203125 34.46875 52.203125 
Q 43.265625 52.203125 49.5625 45.90625 
Q 56.890625 38.578125 56.890625 25.6875 
Q 56.890625 13.140625 49.65625 5.8125 
Q 43.359375 -0.484375 34.375 -0.484375 
Q 24.515625 -0.484375 17.28125 7.765625 
L 17.28125 -19 
L 8.796875 -19 
L 8.796875 50.78125 
L 16.796875 50.78125 
z
M 17.28125 30.46875 
L 17.28125 20.171875 
Q 17.28125 14.015625 23.6875 9.375 
Q 27.984375 6.296875 32.90625 6.296875 
Q 38.578125 6.296875 42.578125 10.296875 
Q 47.90625 15.578125 47.90625 25.484375 
Q 47.90625 34.375 43.5 39.984375 
Q 39.109375 45.3125 32.8125 45.3125 
Q 25.875 45.3125 20.90625 38.8125 
Q 17.28125 34.125 17.28125 30.46875 
z
" id="IPAexGothic-112"/>
       </defs>
       <use xlink:href="#IPAexGothic-65"/>
       <use x="63.720703" xlink:href="#IPAexGothic-112"/>
       <use x="125.830078" xlink:href="#IPAexGothic-114"/>
      </g>
     </g>
    </g>
    <g id="xtick_3">
     <g id="line2d_3">
      <g>
       <use style="stroke:#000000;stroke-width:0.8;" x="167.678246" xlink:href="#m13c2bb1bda" y="284.258625"/>
      </g>
     </g>
     <g id="text_3">
      <!-- May -->
      <g transform="translate(157.958714 298.74925)scale(0.1 -0.1)">
       <defs>
        <path d="M 48.78125 50.78125 
L 24.609375 -7.625 
Q 19.96875 -18.796875 8.59375 -18.796875 
L 7.46875 -18.796875 
L 5.375 -10.984375 
L 6.984375 -10.984375 
Q 15.140625 -10.984375 17.96875 -3.71875 
L 21.1875 4.296875 
L 0.59375 50.78125 
L 10.296875 50.78125 
L 21.296875 22.796875 
Q 23.875 16.015625 25.09375 12.203125 
L 25.390625 12.203125 
Q 27.34375 18.265625 29.109375 22.796875 
L 39.5 50.78125 
z
" id="IPAexGothic-121"/>
       </defs>
       <use xlink:href="#IPAexGothic-77"/>
       <use x="90.185547" xlink:href="#IPAexGothic-97"/>
       <use x="145.166016" xlink:href="#IPAexGothic-121"/>
      </g>
     </g>
    </g>
    <g id="xtick_4">
     <g id="line2d_4">
      <g>
       <use style="stroke:#000000;stroke-width:0.8;" x="224.219206" xlink:href="#m13c2bb1bda" y="284.258625"/>
      </g>
     </g>
     <g id="text_4">
      <!-- Jun -->
      <g transform="translate(216.279362 298.74925)scale(0.1 -0.1)">
       <defs>
        <path d="M 28.421875 72.40625 
L 28.421875 19.28125 
Q 28.421875 -0.484375 11.921875 -0.484375 
Q 4.734375 -0.484375 -1.953125 3.265625 
L 1.3125 10.0625 
Q 5.90625 6.984375 10.84375 6.984375 
Q 19.53125 6.984375 19.53125 18.796875 
L 19.53125 72.40625 
z
" id="IPAexGothic-74"/>
        <path d="M 51.3125 0.984375 
L 43.3125 0.984375 
L 43.3125 10.0625 
Q 35.9375 0 25.390625 0 
Q 16.75 0 11.921875 5.859375 
Q 8.109375 10.59375 8.109375 19.390625 
L 8.109375 50.78125 
L 16.703125 50.78125 
L 16.703125 19.671875 
Q 16.703125 7.28125 27.09375 7.28125 
Q 37.59375 7.28125 42.71875 20.171875 
L 42.71875 50.78125 
L 51.3125 50.78125 
z
" id="IPAexGothic-117"/>
        <path d="M 52 0.984375 
L 43.40625 0.984375 
L 43.40625 31.890625 
Q 43.40625 44.578125 32.90625 44.578125 
Q 22.3125 44.578125 17.390625 31.890625 
L 17.390625 0.984375 
L 8.796875 0.984375 
L 8.796875 50.78125 
L 16.796875 50.78125 
L 16.796875 41.796875 
Q 23.828125 51.8125 34.71875 51.8125 
Q 52 51.8125 52 32.375 
z
" id="IPAexGothic-110"/>
       </defs>
       <use xlink:href="#IPAexGothic-74"/>
       <use x="37.988281" xlink:href="#IPAexGothic-117"/>
       <use x="98.388672" xlink:href="#IPAexGothic-110"/>
      </g>
     </g>
    </g>
    <g id="xtick_5">
     <g id="line2d_5">
      <g>
       <use style="stroke:#000000;stroke-width:0.8;" x="278.936264" xlink:href="#m13c2bb1bda" y="284.258625"/>
      </g>
     </g>
     <g id="text_5">
      <!-- Jul -->
      <g transform="translate(272.666733 298.74925)scale(0.1 -0.1)">
       <defs>
        <path d="M 17.671875 0.984375 
L 9.078125 0.984375 
L 9.078125 74.90625 
L 17.671875 74.90625 
z
" id="IPAexGothic-108"/>
       </defs>
       <use xlink:href="#IPAexGothic-74"/>
       <use x="37.988281" xlink:href="#IPAexGothic-117"/>
       <use x="98.388672" xlink:href="#IPAexGothic-108"/>
      </g>
     </g>
    </g>
    <g id="xtick_6">
     <g id="line2d_6">
      <g>
       <use style="stroke:#000000;stroke-width:0.8;" x="335.477224" xlink:href="#m13c2bb1bda" y="284.258625"/>
      </g>
     </g>
     <g id="text_6">
      <!-- Aug -->
      <g transform="translate(326.495193 298.691437)scale(0.1 -0.1)">
       <defs>
        <path d="M 20.796875 17.96875 
Q 15.71875 17.53125 15.71875 14.0625 
Q 15.71875 9.578125 27.546875 8.984375 
L 33.296875 8.6875 
Q 51.609375 7.765625 51.609375 -4.59375 
Q 51.609375 -10.9375 45.703125 -14.984375 
Q 39.359375 -19.578125 28.03125 -19.578125 
Q 17.78125 -19.578125 11.53125 -16.0625 
Q 5.515625 -12.640625 5.515625 -6.6875 
Q 5.515625 1.3125 16.796875 3.859375 
L 16.796875 4.203125 
Q 7.90625 6.453125 7.90625 12.15625 
Q 7.90625 17.4375 15.53125 20.265625 
Q 7.125 24.609375 7.125 34.078125 
Q 7.125 41.40625 12.015625 46.296875 
Q 17.625 51.90625 27.15625 51.90625 
Q 33.203125 51.90625 37.84375 49.265625 
Q 41.40625 53.953125 50.921875 54.109375 
L 50.921875 47.078125 
Q 44.34375 46.921875 42.234375 45.90625 
Q 47.40625 40.828125 47.40625 33.890625 
Q 47.40625 27 42.71875 22.265625 
Q 37.5 17.09375 28.328125 17.09375 
Q 24.421875 17.09375 20.796875 17.96875 
z
M 27.09375 45.609375 
Q 22.015625 45.609375 18.703125 42.28125 
Q 15.4375 39.015625 15.4375 34.078125 
Q 15.4375 29.25 18.5 26.3125 
Q 21.828125 23 27.4375 23 
Q 32.71875 23 35.890625 26.21875 
Q 39.109375 29.390625 39.109375 34.421875 
Q 39.109375 39.015625 35.890625 42.1875 
Q 32.515625 45.609375 27.09375 45.609375 
z
M 27.390625 2.484375 
Q 14.109375 2.484375 14.109375 -5.71875 
Q 14.109375 -13.671875 28.125 -13.671875 
Q 37.15625 -13.671875 41.21875 -9.46875 
Q 43.3125 -7.515625 43.3125 -4.890625 
Q 43.3125 2.484375 27.390625 2.484375 
z
" id="IPAexGothic-103"/>
       </defs>
       <use xlink:href="#IPAexGothic-65"/>
       <use x="63.720703" xlink:href="#IPAexGothic-117"/>
       <use x="124.121094" xlink:href="#IPAexGothic-103"/>
      </g>
     </g>
    </g>
    <g id="xtick_7">
     <g id="line2d_7">
      <g>
       <use style="stroke:#000000;stroke-width:0.8;" x="392.018184" xlink:href="#m13c2bb1bda" y="284.258625"/>
      </g>
     </g>
     <g id="text_7">
      <!-- Sep -->
      <g transform="translate(383.143184 298.74925)scale(0.1 -0.1)">
       <defs>
        <path d="M 45.609375 56.890625 
Q 40.046875 66.546875 28.953125 66.546875 
Q 22.703125 66.546875 18.953125 62.640625 
Q 16.0625 59.421875 16.0625 55.21875 
Q 16.0625 50.59375 19.78125 47.609375 
Q 22.5625 45.515625 31 42 
L 34.375 40.578125 
Q 45.703125 36.03125 49.859375 30.515625 
Q 53.46875 25.6875 53.46875 19.671875 
Q 53.46875 10.0625 46.390625 4.5 
Q 39.984375 -0.484375 30.171875 -0.484375 
Q 13.765625 -0.484375 4.890625 11.96875 
L 11.765625 17.1875 
Q 18.796875 7.171875 30.28125 7.171875 
Q 35.75 7.171875 39.59375 9.765625 
Q 44.390625 13.234375 44.390625 19 
Q 44.390625 23.484375 40.875 27 
Q 37.109375 30.609375 27 34.46875 
L 24.078125 35.59375 
Q 7.078125 42.09375 7.078125 54.390625 
Q 7.078125 62.59375 12.59375 67.921875 
Q 18.796875 73.828125 29.109375 73.828125 
Q 44.390625 73.828125 52.484375 61.8125 
z
" id="IPAexGothic-83"/>
        <path d="M 13.484375 24.90625 
Q 13.921875 16.265625 18.890625 11.28125 
Q 23.96875 6.203125 31.203125 6.203125 
Q 40.71875 6.203125 46.296875 15.09375 
L 51.90625 11.375 
Q 44.828125 -0.484375 30.171875 -0.484375 
Q 19.09375 -0.484375 11.96875 6.59375 
Q 4.78125 13.8125 4.78125 25.640625 
Q 4.78125 38.1875 12.3125 45.703125 
Q 19 52.390625 29 52.390625 
Q 38.421875 52.390625 44.78125 46.1875 
Q 51.90625 38.96875 51.90625 26.90625 
L 51.90625 24.90625 
z
M 43.0625 31.203125 
Q 42.328125 37.984375 38.28125 41.890625 
Q 34.28125 45.90625 28.8125 45.90625 
Q 22.46875 45.90625 17.96875 40.484375 
Q 14.890625 36.8125 13.96875 31.203125 
z
" id="IPAexGothic-101"/>
       </defs>
       <use xlink:href="#IPAexGothic-83"/>
       <use x="58.496094" xlink:href="#IPAexGothic-101"/>
       <use x="115.380859" xlink:href="#IPAexGothic-112"/>
      </g>
     </g>
    </g>
    <g id="text_8">
     <!-- 2020 -->
     <g transform="translate(372.11375 311.139875)scale(0.1 -0.1)">
      <defs>
       <path d="M 57.171875 0.984375 
L 6.984375 0.984375 
L 6.984375 9.28125 
Q 12.890625 23.046875 29.59375 34.421875 
L 32.375 36.28125 
Q 40.921875 42.140625 43.609375 45.40625 
Q 46.6875 49.265625 46.6875 53.8125 
Q 46.6875 58.9375 43.0625 62.546875 
Q 39.0625 66.546875 32.5625 66.546875 
Q 19.53125 66.546875 15.484375 52 
L 7.765625 54.78125 
Q 13.328125 73.828125 33.0625 73.828125 
Q 43.84375 73.828125 50.25 67.4375 
Q 55.859375 61.671875 55.859375 53.515625 
Q 55.859375 47.46875 52.25 42.53125 
Q 48.921875 37.75 36.96875 30.28125 
L 34.859375 29 
Q 19.625 19.578125 15.28125 8.890625 
L 57.171875 8.890625 
z
" id="IPAexGothic-50"/>
       <path d="M 31.84375 73.828125 
Q 45.015625 73.828125 52.09375 61.625 
Q 57.71875 51.953125 57.71875 36.625 
Q 57.71875 21.4375 52.09375 11.578125 
Q 45.125 -0.484375 31.5 -0.484375 
Q 17.921875 -0.484375 10.9375 11.578125 
Q 5.328125 21.4375 5.328125 36.71875 
Q 5.328125 58.015625 15.625 67.71875 
Q 22.171875 73.828125 31.84375 73.828125 
z
M 31.5 66.65625 
Q 23.6875 66.65625 19.1875 58.734375 
Q 14.59375 50.734375 14.59375 36.625 
Q 14.59375 22.75 19.09375 14.796875 
Q 23.640625 6.984375 31.5 6.984375 
Q 40.921875 6.984375 45.453125 18.015625 
Q 48.4375 25.34375 48.4375 37.109375 
Q 48.4375 50.875 43.84375 58.734375 
Q 39.203125 66.65625 31.5 66.65625 
z
" id="IPAexGothic-48"/>
      </defs>
      <use xlink:href="#IPAexGothic-50"/>
      <use x="62.988281" xlink:href="#IPAexGothic-48"/>
      <use x="125.976562" xlink:href="#IPAexGothic-50"/>
      <use x="188.964844" xlink:href="#IPAexGothic-48"/>
     </g>
    </g>
   </g>
   <g id="matplotlib.axis_2">
    <g id="ytick_1">
     <g id="line2d_8">
      <defs>
       <path d="M 0 0 
L -3.5 0 
" id="m5740ee5466" style="stroke:#000000;stroke-width:0.8;"/>
      </defs>
      <g>
       <use style="stroke:#000000;stroke-width:0.8;" x="40.1875" xlink:href="#m5740ee5466" y="243.53403"/>
      </g>
     </g>
     <g id="text_9">
      <!-- 35 -->
      <g transform="translate(20.590625 247.279342)scale(0.1 -0.1)">
       <defs>
        <path d="M 37.203125 37.796875 
Q 54.78125 34.625 54.78125 19.96875 
Q 54.78125 11.1875 48.875 5.5625 
Q 42.328125 -0.484375 30.375 -0.484375 
Q 12.453125 -0.484375 4.5 13.765625 
L 11.8125 17.671875 
Q 17.328125 6.890625 30.28125 6.890625 
Q 37.890625 6.890625 42.09375 10.796875 
Q 46.09375 14.5 46.09375 20.171875 
Q 46.09375 26.859375 40.09375 30.90625 
Q 34.625 34.578125 25.6875 34.578125 
L 21.296875 34.578125 
L 21.296875 41.703125 
L 25.875 41.703125 
Q 34.859375 41.703125 39.59375 45.125 
Q 44.671875 48.734375 44.671875 54.828125 
Q 44.671875 61.46875 38.96875 64.65625 
Q 35.296875 66.84375 30.171875 66.84375 
Q 19.34375 66.84375 14.109375 55.90625 
L 6.78125 59.421875 
Q 14.015625 73.828125 30.28125 73.828125 
Q 40.578125 73.828125 46.96875 68.65625 
Q 53.375 63.578125 53.375 55.21875 
Q 53.375 47.3125 47.171875 42.28125 
Q 43.171875 39.0625 37.203125 38.1875 
z
" id="IPAexGothic-51"/>
        <path d="M 18.40625 40.671875 
Q 25.53125 46.296875 33.9375 46.296875 
Q 44 46.296875 50.640625 39.5 
Q 56.84375 33.015625 56.84375 23.390625 
Q 56.84375 14.65625 51.515625 8.015625 
Q 44.828125 -0.484375 31.734375 -0.484375 
Q 14.984375 -0.484375 7.328125 12.25 
L 14.65625 16.0625 
Q 20.453125 6.78125 31.453125 6.78125 
Q 38.53125 6.78125 43.265625 11.1875 
Q 48.140625 15.828125 48.140625 23.484375 
Q 48.140625 30.71875 43.84375 35.015625 
Q 39.359375 39.5 32.125 39.5 
Q 21.96875 39.5 16.75 31.6875 
L 9.234375 32.671875 
L 13.8125 72.40625 
L 53.21875 72.40625 
L 53.21875 64.890625 
L 20.953125 64.890625 
L 17.71875 40.671875 
z
" id="IPAexGothic-53"/>
       </defs>
       <use xlink:href="#IPAexGothic-51"/>
       <use x="62.988281" xlink:href="#IPAexGothic-53"/>
      </g>
     </g>
    </g>
    <g id="ytick_2">
     <g id="line2d_9">
      <g>
       <use style="stroke:#000000;stroke-width:0.8;" x="40.1875" xlink:href="#m5740ee5466" y="202.181615"/>
      </g>
     </g>
     <g id="text_10">
      <!-- 40 -->
      <g transform="translate(20.590625 205.926927)scale(0.1 -0.1)">
       <defs>
        <path d="M 59.578125 18.109375 
L 47.796875 18.109375 
L 47.796875 0.984375 
L 39.796875 0.984375 
L 39.796875 18.109375 
L 3.078125 18.109375 
L 3.078125 26.125 
L 38.375 73.09375 
L 47.796875 73.09375 
L 47.796875 25.53125 
L 59.578125 25.53125 
z
M 40.28125 64.203125 
L 39.984375 64.203125 
Q 35.59375 57.125 31.296875 51.3125 
L 11.859375 25.53125 
L 39.796875 25.53125 
L 39.796875 49.125 
Q 39.796875 54.390625 40.28125 64.203125 
z
" id="IPAexGothic-52"/>
       </defs>
       <use xlink:href="#IPAexGothic-52"/>
       <use x="62.988281" xlink:href="#IPAexGothic-48"/>
      </g>
     </g>
    </g>
    <g id="ytick_3">
     <g id="line2d_10">
      <g>
       <use style="stroke:#000000;stroke-width:0.8;" x="40.1875" xlink:href="#m5740ee5466" y="160.829199"/>
      </g>
     </g>
     <g id="text_11">
      <!-- 45 -->
      <g transform="translate(20.590625 164.574512)scale(0.1 -0.1)">
       <use xlink:href="#IPAexGothic-52"/>
       <use x="62.988281" xlink:href="#IPAexGothic-53"/>
      </g>
     </g>
    </g>
    <g id="ytick_4">
     <g id="line2d_11">
      <g>
       <use style="stroke:#000000;stroke-width:0.8;" x="40.1875" xlink:href="#m5740ee5466" y="119.476784"/>
      </g>
     </g>
     <g id="text_12">
      <!-- 50 -->
      <g transform="translate(20.590625 123.222097)scale(0.1 -0.1)">
       <use xlink:href="#IPAexGothic-53"/>
       <use x="62.988281" xlink:href="#IPAexGothic-48"/>
      </g>
     </g>
    </g>
    <g id="ytick_5">
     <g id="line2d_12">
      <g>
       <use style="stroke:#000000;stroke-width:0.8;" x="40.1875" xlink:href="#m5740ee5466" y="78.124369"/>
      </g>
     </g>
     <g id="text_13">
      <!-- 55 -->
      <g transform="translate(20.590625 81.869681)scale(0.1 -0.1)">
       <use xlink:href="#IPAexGothic-53"/>
       <use x="62.988281" xlink:href="#IPAexGothic-53"/>
      </g>
     </g>
    </g>
    <g id="ytick_6">
     <g id="line2d_13">
      <g>
       <use style="stroke:#000000;stroke-width:0.8;" x="40.1875" xlink:href="#m5740ee5466" y="36.771954"/>
      </g>
     </g>
     <g id="text_14">
      <!-- 60 -->
      <g transform="translate(20.590625 40.517266)scale(0.1 -0.1)">
       <defs>
        <path d="M 16.5 36.375 
Q 23.578125 46.578125 34.90625 46.578125 
Q 45.40625 46.578125 51.8125 39.265625 
Q 57.421875 32.90625 57.421875 23.78125 
Q 57.421875 13.8125 51.125 6.78125 
Q 44.578125 -0.484375 34.03125 -0.484375 
Q 21.484375 -0.484375 14.40625 9.078125 
Q 7.515625 18.40625 7.515625 34.8125 
Q 7.515625 53.515625 15.828125 64.203125 
Q 23.34375 73.828125 35.5 73.828125 
Q 49.859375 73.828125 56.390625 62.890625 
L 49.21875 58.984375 
Q 45.21875 66.65625 35.9375 66.65625 
Q 17.484375 66.65625 16.109375 36.375 
z
M 33.453125 39.796875 
Q 26.3125 39.796875 21.625 34.46875 
Q 17.4375 29.6875 17.4375 24.078125 
Q 17.4375 18.0625 21.140625 13.1875 
Q 26.125 6.6875 33.734375 6.6875 
Q 41.703125 6.6875 45.953125 13.1875 
Q 48.828125 17.625 48.828125 23.484375 
Q 48.828125 30.375 45.015625 34.8125 
Q 40.625 39.796875 33.453125 39.796875 
z
" id="IPAexGothic-54"/>
       </defs>
       <use xlink:href="#IPAexGothic-54"/>
       <use x="62.988281" xlink:href="#IPAexGothic-48"/>
      </g>
     </g>
    </g>
    <g id="text_15">
     <!-- 平均年代 -->
     <g transform="translate(14.690625 171.202625)rotate(-90)scale(0.1 -0.1)">
      <defs>
       <path d="M 53.46875 69.1875 
L 53.46875 30.328125 
L 95.0625 30.328125 
L 95.0625 23.640625 
L 53.46875 23.640625 
L 53.46875 -6.984375 
L 45.84375 -6.984375 
L 45.84375 23.640625 
L 5.03125 23.640625 
L 5.03125 30.328125 
L 45.84375 30.328125 
L 45.84375 69.1875 
L 10.015625 69.1875 
L 10.015625 75.875 
L 90.046875 75.875 
L 90.046875 69.1875 
z
M 27 35.59375 
Q 23.25 48.34375 16.890625 60.296875 
L 24.125 63.09375 
Q 29.296875 53.46875 34.71875 38.625 
z
M 64.59375 37.890625 
Q 70.453125 49.03125 75.203125 64.5 
L 82.90625 61.625 
Q 77.875 46.96875 71.390625 34.8125 
z
" id="IPAexGothic-24179"/>
       <path d="M 18.84375 59.28125 
L 18.84375 80.375 
L 25.921875 80.375 
L 25.921875 59.28125 
L 37.015625 59.28125 
L 37.015625 52.6875 
L 25.921875 52.6875 
L 25.921875 20.703125 
Q 32.46875 23.640625 38.8125 26.90625 
L 40.09375 20.515625 
Q 24.3125 12.109375 8.734375 6.203125 
L 5.21875 13.09375 
Q 12.546875 15.234375 18.84375 17.78125 
L 18.84375 52.6875 
L 6.453125 52.6875 
L 6.453125 59.28125 
z
M 54.296875 66.3125 
L 91.3125 66.3125 
Q 91.15625 17.671875 87.796875 2.875 
Q 85.84375 -5.71875 75.59375 -5.71875 
Q 68.265625 -5.71875 60.296875 -4.78125 
L 58.890625 2.875 
Q 66.265625 1.375 73.921875 1.375 
Q 79.046875 1.375 80.421875 4.78125 
Q 83.734375 14.359375 83.890625 59.8125 
L 51.8125 59.8125 
Q 47.078125 48.734375 38.53125 38.625 
L 33.59375 44.1875 
Q 46 59.1875 50.921875 82.234375 
L 58.109375 80.421875 
Q 56.546875 72.859375 54.296875 66.3125 
z
M 46.484375 44.484375 
L 73.09375 44.484375 
L 73.09375 37.984375 
L 46.484375 37.984375 
z
M 39.984375 16.3125 
Q 58.546875 20.90625 75.59375 28.078125 
L 76.421875 21.6875 
Q 59.859375 13.921875 43.21875 9.1875 
z
" id="IPAexGothic-22343"/>
       <path d="M 27.6875 64.984375 
Q 22.5625 53.46875 13.671875 43.796875 
L 8.25 49.46875 
Q 20.65625 61.578125 25.484375 82.171875 
L 32.953125 80.5625 
Q 31.15625 74.359375 30.171875 71.296875 
L 88.96875 71.296875 
L 88.96875 64.984375 
L 58.6875 64.984375 
L 58.6875 48.875 
L 84.90625 48.875 
L 84.90625 42.578125 
L 58.6875 42.578125 
L 58.6875 23.578125 
L 94.96875 23.578125 
L 94.96875 17.09375 
L 58.6875 17.09375 
L 58.6875 -7.03125 
L 51.171875 -7.03125 
L 51.171875 17.09375 
L 6.984375 17.09375 
L 6.984375 23.578125 
L 23.96875 23.578125 
L 23.96875 48.875 
L 51.171875 48.875 
L 51.171875 64.984375 
z
M 51.171875 42.578125 
L 31.15625 42.578125 
L 31.15625 23.578125 
L 51.171875 23.578125 
z
" id="IPAexGothic-24180"/>
       <path d="M 24.8125 57.625 
L 24.8125 -6.984375 
L 17.484375 -6.984375 
L 17.484375 43.015625 
Q 14.015625 36.8125 8.296875 29.203125 
L 4.203125 35.296875 
Q 18.5625 54 24.90625 81 
L 32.328125 79.203125 
Q 28.859375 67.046875 24.8125 57.625 
z
M 51.21875 45.703125 
L 28.515625 43.890625 
L 28.078125 50.78125 
L 50.296875 52.59375 
Q 48.921875 63.875 48.1875 80.515625 
L 55.8125 80.515625 
Q 56.59375 63.09375 57.8125 53.21875 
L 91.703125 55.90625 
L 92.1875 48.875 
L 58.6875 46.296875 
Q 58.734375 46.1875 58.796875 45.90625 
Q 58.84375 45.5625 58.890625 45.40625 
Q 62.359375 21.96875 72.40625 10.40625 
Q 77.984375 3.90625 81 3.90625 
Q 84.234375 3.90625 87.203125 20.515625 
L 93.890625 15.1875 
Q 89.546875 -5.609375 82.515625 -5.609375 
Q 78.765625 -5.609375 72.015625 0.09375 
Q 56.109375 13.28125 51.3125 44.828125 
Q 51.21875 45.125 51.21875 45.703125 
z
M 78.328125 57.8125 
Q 73.53125 65.921875 66.703125 73.1875 
L 72.40625 77.6875 
Q 78.90625 71.1875 84.515625 63.09375 
z
" id="IPAexGothic-20195"/>
      </defs>
      <use xlink:href="#IPAexGothic-24179"/>
      <use x="100" xlink:href="#IPAexGothic-22343"/>
      <use x="200" xlink:href="#IPAexGothic-24180"/>
      <use x="300" xlink:href="#IPAexGothic-20195"/>
     </g>
    </g>
   </g>
   <g id="line2d_14">
    <path clip-path="url(#p40c72f6936)" d="M 56.420227 78.124369 
L 58.244129 97.210099 
L 60.068031 40.907195 
L 61.891933 75.827013 
L 63.715835 91.908507 
L 65.539737 64.832521 
L 67.363639 54.183497 
L 69.187541 62.477509 
L 71.011443 52.676729 
L 72.835345 75.655568 
L 74.659247 92.633988 
L 76.483149 46.17023 
L 78.307051 82.25961 
L 80.130953 78.124369 
L 81.954854 42.285609 
L 83.778756 30.242625 
L 85.602658 96.920921 
L 87.42656 126.208573 
L 89.250462 112.28506 
L 91.074364 61.583403 
L 92.898266 66.58416 
L 94.722168 108.898259 
L 96.54607 84.653698 
L 98.369972 115.341543 
L 100.193874 101.356063 
L 102.017776 121.164638 
L 103.841678 137.010208 
L 105.66558 118.865665 
L 107.489482 170.19201 
L 109.313384 179.0813 
L 111.137285 166.460167 
L 112.961187 174.362717 
L 114.785089 149.216535 
L 116.608991 165.651638 
L 118.432893 150.013952 
L 120.256795 150.211687 
L 122.080697 141.743469 
L 123.904599 145.442254 
L 125.728501 156.302198 
L 127.552403 135.669384 
L 129.376305 138.462484 
L 131.200207 129.351095 
L 133.024109 103.878943 
L 134.848011 132.730763 
L 136.671913 145.272437 
L 138.495815 115.66517 
L 140.319717 136.12719 
L 142.143618 118.147599 
L 143.96752 92.546208 
L 145.791422 115.104172 
L 147.615324 86.232686 
L 149.439226 118.142835 
L 151.263128 110.434118 
L 153.08703 94.021404 
L 154.910932 121.047129 
L 156.734834 82.301381 
L 158.558736 92.176161 
L 160.382638 109.078224 
L 162.20654 61.298214 
L 164.030442 96.154806 
L 165.854344 71.655835 
L 167.678246 49.595525 
L 169.502148 105.045069 
L 171.32605 111.835577 
L 173.149951 52.381806 
L 174.973853 115.521336 
L 176.797755 36.771954 
L 178.621657 44.648604 
L 180.445559 130.358999 
L 182.269461 110.908266 
L 184.093363 99.109177 
L 185.917265 68.394389 
L 187.741167 52.418814 
L 189.565069 91.183026 
L 191.388971 82.19182 
L 193.212873 79.526146 
L 195.036775 164.767525 
L 196.860677 64.340231 
L 198.684579 113.569296 
L 200.508481 122.233612 
L 202.332383 127.747267 
L 204.156284 125.384272 
L 205.980186 86.680041 
L 207.804088 110.487129 
L 209.62799 106.643276 
L 211.451892 135.381559 
L 213.275794 173.234924 
L 215.099696 100.680232 
L 216.923598 196.787821 
L 218.7475 128.943 
L 220.571402 152.952549 
L 222.395304 220.376677 
L 224.219206 186.10012 
L 226.043108 93.011238 
L 227.86701 140.865964 
L 229.690912 134.792494 
L 231.514814 177.010579 
L 233.338716 209.603843 
L 235.162617 122.233612 
L 236.986519 203.835711 
L 238.810421 207.224592 
L 240.634323 151.888137 
L 242.458225 136.393681 
L 244.282127 226.368876 
L 246.106029 164.964441 
L 247.929931 243.53403 
L 249.753833 129.814888 
L 251.577735 219.411788 
L 253.401637 167.358528 
L 255.225539 187.549222 
L 257.049441 219.703824 
L 258.873343 247.472355 
L 260.697245 272.162625 
L 262.521147 224.737477 
L 264.345049 194.724622 
L 266.16895 235.180007 
L 267.992852 210.664161 
L 269.816754 245.257047 
L 271.640656 200.093109 
L 273.464558 221.051163 
L 275.28846 187.019062 
L 277.112362 235.742995 
L 278.936264 244.76843 
L 280.760166 217.662262 
L 282.584068 238.846307 
L 284.40797 255.029682 
L 286.231872 245.239284 
L 288.055774 240.761801 
L 289.879676 244.756269 
L 291.703578 259.265927 
L 293.52748 265.001131 
L 295.351382 240.337708 
L 297.175283 240.269365 
L 298.999185 245.736229 
L 300.823087 235.357887 
L 302.646989 240.544699 
L 304.470891 236.455688 
L 306.294793 242.291386 
L 308.118695 232.184944 
L 309.942597 229.091341 
L 311.766499 247.506751 
L 313.590401 209.748227 
L 315.414303 232.717768 
L 317.238205 235.121651 
L 319.062107 233.323557 
L 320.886009 251.847701 
L 322.709911 235.978777 
L 324.533813 226.646656 
L 326.357715 200.87181 
L 328.181616 214.380194 
L 330.005518 219.292959 
L 331.82942 228.479609 
L 333.653322 231.070975 
L 337.301126 223.902075 
L 339.125028 212.373523 
L 340.94893 209.68805 
L 342.772832 204.399063 
L 344.596734 205.883531 
L 346.420636 198.074377 
L 348.244538 217.428408 
L 350.06844 198.741679 
L 351.892342 173.491594 
L 353.716244 183.509733 
L 355.540146 179.742019 
L 357.364047 164.744221 
L 359.187949 181.916798 
L 361.011851 176.052743 
L 362.835753 186.129402 
L 364.659655 177.720504 
L 366.483557 180.504945 
L 368.307459 165.69881 
L 371.955263 184.314537 
L 373.779165 189.129037 
L 375.603067 166.236823 
L 377.426969 173.010531 
L 379.250871 179.331897 
L 381.074773 176.29433 
L 381.074773 176.29433 
" style="fill:none;stroke:#1f77b4;stroke-linecap:square;stroke-width:1.5;"/>
    <defs>
     <path d="M 0 3 
C 0.795609 3 1.55874 2.683901 2.12132 2.12132 
C 2.683901 1.55874 3 0.795609 3 0 
C 3 -0.795609 2.683901 -1.55874 2.12132 -2.12132 
C 1.55874 -2.683901 0.795609 -3 0 -3 
C -0.795609 -3 -1.55874 -2.683901 -2.12132 -2.12132 
C -2.683901 -1.55874 -3 -0.795609 -3 0 
C -3 0.795609 -2.683901 1.55874 -2.12132 2.12132 
C -1.55874 2.683901 -0.795609 3 0 3 
z
" id="mf49260dbd5" style="stroke:#1f77b4;"/>
    </defs>
    <g clip-path="url(#p40c72f6936)">
     <use style="fill:#1f77b4;stroke:#1f77b4;" x="56.420227" xlink:href="#mf49260dbd5" y="78.124369"/>
     <use style="fill:#1f77b4;stroke:#1f77b4;" x="58.244129" xlink:href="#mf49260dbd5" y="97.210099"/>
     <use style="fill:#1f77b4;stroke:#1f77b4;" x="60.068031" xlink:href="#mf49260dbd5" y="40.907195"/>
     <use style="fill:#1f77b4;stroke:#1f77b4;" x="61.891933" xlink:href="#mf49260dbd5" y="75.827013"/>
     <use style="fill:#1f77b4;stroke:#1f77b4;" x="63.715835" xlink:href="#mf49260dbd5" y="91.908507"/>
     <use style="fill:#1f77b4;stroke:#1f77b4;" x="65.539737" xlink:href="#mf49260dbd5" y="64.832521"/>
     <use style="fill:#1f77b4;stroke:#1f77b4;" x="67.363639" xlink:href="#mf49260dbd5" y="54.183497"/>
     <use style="fill:#1f77b4;stroke:#1f77b4;" x="69.187541" xlink:href="#mf49260dbd5" y="62.477509"/>
     <use style="fill:#1f77b4;stroke:#1f77b4;" x="71.011443" xlink:href="#mf49260dbd5" y="52.676729"/>
     <use style="fill:#1f77b4;stroke:#1f77b4;" x="72.835345" xlink:href="#mf49260dbd5" y="75.655568"/>
     <use style="fill:#1f77b4;stroke:#1f77b4;" x="74.659247" xlink:href="#mf49260dbd5" y="92.633988"/>
     <use style="fill:#1f77b4;stroke:#1f77b4;" x="76.483149" xlink:href="#mf49260dbd5" y="46.17023"/>
     <use style="fill:#1f77b4;stroke:#1f77b4;" x="78.307051" xlink:href="#mf49260dbd5" y="82.25961"/>
     <use style="fill:#1f77b4;stroke:#1f77b4;" x="80.130953" xlink:href="#mf49260dbd5" y="78.124369"/>
     <use style="fill:#1f77b4;stroke:#1f77b4;" x="81.954854" xlink:href="#mf49260dbd5" y="42.285609"/>
     <use style="fill:#1f77b4;stroke:#1f77b4;" x="83.778756" xlink:href="#mf49260dbd5" y="30.242625"/>
     <use style="fill:#1f77b4;stroke:#1f77b4;" x="85.602658" xlink:href="#mf49260dbd5" y="96.920921"/>
     <use style="fill:#1f77b4;stroke:#1f77b4;" x="87.42656" xlink:href="#mf49260dbd5" y="126.208573"/>
     <use style="fill:#1f77b4;stroke:#1f77b4;" x="89.250462" xlink:href="#mf49260dbd5" y="112.28506"/>
     <use style="fill:#1f77b4;stroke:#1f77b4;" x="91.074364" xlink:href="#mf49260dbd5" y="61.583403"/>
     <use style="fill:#1f77b4;stroke:#1f77b4;" x="92.898266" xlink:href="#mf49260dbd5" y="66.58416"/>
     <use style="fill:#1f77b4;stroke:#1f77b4;" x="94.722168" xlink:href="#mf49260dbd5" y="108.898259"/>
     <use style="fill:#1f77b4;stroke:#1f77b4;" x="96.54607" xlink:href="#mf49260dbd5" y="84.653698"/>
     <use style="fill:#1f77b4;stroke:#1f77b4;" x="98.369972" xlink:href="#mf49260dbd5" y="115.341543"/>
     <use style="fill:#1f77b4;stroke:#1f77b4;" x="100.193874" xlink:href="#mf49260dbd5" y="101.356063"/>
     <use style="fill:#1f77b4;stroke:#1f77b4;" x="102.017776" xlink:href="#mf49260dbd5" y="121.164638"/>
     <use style="fill:#1f77b4;stroke:#1f77b4;" x="103.841678" xlink:href="#mf49260dbd5" y="137.010208"/>
     <use style="fill:#1f77b4;stroke:#1f77b4;" x="105.66558" xlink:href="#mf49260dbd5" y="118.865665"/>
     <use style="fill:#1f77b4;stroke:#1f77b4;" x="107.489482" xlink:href="#mf49260dbd5" y="170.19201"/>
     <use style="fill:#1f77b4;stroke:#1f77b4;" x="109.313384" xlink:href="#mf49260dbd5" y="179.0813"/>
     <use style="fill:#1f77b4;stroke:#1f77b4;" x="111.137285" xlink:href="#mf49260dbd5" y="166.460167"/>
     <use style="fill:#1f77b4;stroke:#1f77b4;" x="112.961187" xlink:href="#mf49260dbd5" y="174.362717"/>
     <use style="fill:#1f77b4;stroke:#1f77b4;" x="114.785089" xlink:href="#mf49260dbd5" y="149.216535"/>
     <use style="fill:#1f77b4;stroke:#1f77b4;" x="116.608991" xlink:href="#mf49260dbd5" y="165.651638"/>
     <use style="fill:#1f77b4;stroke:#1f77b4;" x="118.432893" xlink:href="#mf49260dbd5" y="150.013952"/>
     <use style="fill:#1f77b4;stroke:#1f77b4;" x="120.256795" xlink:href="#mf49260dbd5" y="150.211687"/>
     <use style="fill:#1f77b4;stroke:#1f77b4;" x="122.080697" xlink:href="#mf49260dbd5" y="141.743469"/>
     <use style="fill:#1f77b4;stroke:#1f77b4;" x="123.904599" xlink:href="#mf49260dbd5" y="145.442254"/>
     <use style="fill:#1f77b4;stroke:#1f77b4;" x="125.728501" xlink:href="#mf49260dbd5" y="156.302198"/>
     <use style="fill:#1f77b4;stroke:#1f77b4;" x="127.552403" xlink:href="#mf49260dbd5" y="135.669384"/>
     <use style="fill:#1f77b4;stroke:#1f77b4;" x="129.376305" xlink:href="#mf49260dbd5" y="138.462484"/>
     <use style="fill:#1f77b4;stroke:#1f77b4;" x="131.200207" xlink:href="#mf49260dbd5" y="129.351095"/>
     <use style="fill:#1f77b4;stroke:#1f77b4;" x="133.024109" xlink:href="#mf49260dbd5" y="103.878943"/>
     <use style="fill:#1f77b4;stroke:#1f77b4;" x="134.848011" xlink:href="#mf49260dbd5" y="132.730763"/>
     <use style="fill:#1f77b4;stroke:#1f77b4;" x="136.671913" xlink:href="#mf49260dbd5" y="145.272437"/>
     <use style="fill:#1f77b4;stroke:#1f77b4;" x="138.495815" xlink:href="#mf49260dbd5" y="115.66517"/>
     <use style="fill:#1f77b4;stroke:#1f77b4;" x="140.319717" xlink:href="#mf49260dbd5" y="136.12719"/>
     <use style="fill:#1f77b4;stroke:#1f77b4;" x="142.143618" xlink:href="#mf49260dbd5" y="118.147599"/>
     <use style="fill:#1f77b4;stroke:#1f77b4;" x="143.96752" xlink:href="#mf49260dbd5" y="92.546208"/>
     <use style="fill:#1f77b4;stroke:#1f77b4;" x="145.791422" xlink:href="#mf49260dbd5" y="115.104172"/>
     <use style="fill:#1f77b4;stroke:#1f77b4;" x="147.615324" xlink:href="#mf49260dbd5" y="86.232686"/>
     <use style="fill:#1f77b4;stroke:#1f77b4;" x="149.439226" xlink:href="#mf49260dbd5" y="118.142835"/>
     <use style="fill:#1f77b4;stroke:#1f77b4;" x="151.263128" xlink:href="#mf49260dbd5" y="110.434118"/>
     <use style="fill:#1f77b4;stroke:#1f77b4;" x="153.08703" xlink:href="#mf49260dbd5" y="94.021404"/>
     <use style="fill:#1f77b4;stroke:#1f77b4;" x="154.910932" xlink:href="#mf49260dbd5" y="121.047129"/>
     <use style="fill:#1f77b4;stroke:#1f77b4;" x="156.734834" xlink:href="#mf49260dbd5" y="82.301381"/>
     <use style="fill:#1f77b4;stroke:#1f77b4;" x="158.558736" xlink:href="#mf49260dbd5" y="92.176161"/>
     <use style="fill:#1f77b4;stroke:#1f77b4;" x="160.382638" xlink:href="#mf49260dbd5" y="109.078224"/>
     <use style="fill:#1f77b4;stroke:#1f77b4;" x="162.20654" xlink:href="#mf49260dbd5" y="61.298214"/>
     <use style="fill:#1f77b4;stroke:#1f77b4;" x="164.030442" xlink:href="#mf49260dbd5" y="96.154806"/>
     <use style="fill:#1f77b4;stroke:#1f77b4;" x="165.854344" xlink:href="#mf49260dbd5" y="71.655835"/>
     <use style="fill:#1f77b4;stroke:#1f77b4;" x="167.678246" xlink:href="#mf49260dbd5" y="49.595525"/>
     <use style="fill:#1f77b4;stroke:#1f77b4;" x="169.502148" xlink:href="#mf49260dbd5" y="105.045069"/>
     <use style="fill:#1f77b4;stroke:#1f77b4;" x="171.32605" xlink:href="#mf49260dbd5" y="111.835577"/>
     <use style="fill:#1f77b4;stroke:#1f77b4;" x="173.149951" xlink:href="#mf49260dbd5" y="52.381806"/>
     <use style="fill:#1f77b4;stroke:#1f77b4;" x="174.973853" xlink:href="#mf49260dbd5" y="115.521336"/>
     <use style="fill:#1f77b4;stroke:#1f77b4;" x="176.797755" xlink:href="#mf49260dbd5" y="36.771954"/>
     <use style="fill:#1f77b4;stroke:#1f77b4;" x="178.621657" xlink:href="#mf49260dbd5" y="44.648604"/>
     <use style="fill:#1f77b4;stroke:#1f77b4;" x="180.445559" xlink:href="#mf49260dbd5" y="130.358999"/>
     <use style="fill:#1f77b4;stroke:#1f77b4;" x="182.269461" xlink:href="#mf49260dbd5" y="110.908266"/>
     <use style="fill:#1f77b4;stroke:#1f77b4;" x="184.093363" xlink:href="#mf49260dbd5" y="99.109177"/>
     <use style="fill:#1f77b4;stroke:#1f77b4;" x="185.917265" xlink:href="#mf49260dbd5" y="68.394389"/>
     <use style="fill:#1f77b4;stroke:#1f77b4;" x="187.741167" xlink:href="#mf49260dbd5" y="52.418814"/>
     <use style="fill:#1f77b4;stroke:#1f77b4;" x="189.565069" xlink:href="#mf49260dbd5" y="91.183026"/>
     <use style="fill:#1f77b4;stroke:#1f77b4;" x="191.388971" xlink:href="#mf49260dbd5" y="82.19182"/>
     <use style="fill:#1f77b4;stroke:#1f77b4;" x="193.212873" xlink:href="#mf49260dbd5" y="79.526146"/>
     <use style="fill:#1f77b4;stroke:#1f77b4;" x="195.036775" xlink:href="#mf49260dbd5" y="164.767525"/>
     <use style="fill:#1f77b4;stroke:#1f77b4;" x="196.860677" xlink:href="#mf49260dbd5" y="64.340231"/>
     <use style="fill:#1f77b4;stroke:#1f77b4;" x="198.684579" xlink:href="#mf49260dbd5" y="113.569296"/>
     <use style="fill:#1f77b4;stroke:#1f77b4;" x="200.508481" xlink:href="#mf49260dbd5" y="122.233612"/>
     <use style="fill:#1f77b4;stroke:#1f77b4;" x="202.332383" xlink:href="#mf49260dbd5" y="127.747267"/>
     <use style="fill:#1f77b4;stroke:#1f77b4;" x="204.156284" xlink:href="#mf49260dbd5" y="125.384272"/>
     <use style="fill:#1f77b4;stroke:#1f77b4;" x="205.980186" xlink:href="#mf49260dbd5" y="86.680041"/>
     <use style="fill:#1f77b4;stroke:#1f77b4;" x="207.804088" xlink:href="#mf49260dbd5" y="110.487129"/>
     <use style="fill:#1f77b4;stroke:#1f77b4;" x="209.62799" xlink:href="#mf49260dbd5" y="106.643276"/>
     <use style="fill:#1f77b4;stroke:#1f77b4;" x="211.451892" xlink:href="#mf49260dbd5" y="135.381559"/>
     <use style="fill:#1f77b4;stroke:#1f77b4;" x="213.275794" xlink:href="#mf49260dbd5" y="173.234924"/>
     <use style="fill:#1f77b4;stroke:#1f77b4;" x="215.099696" xlink:href="#mf49260dbd5" y="100.680232"/>
     <use style="fill:#1f77b4;stroke:#1f77b4;" x="216.923598" xlink:href="#mf49260dbd5" y="196.787821"/>
     <use style="fill:#1f77b4;stroke:#1f77b4;" x="218.7475" xlink:href="#mf49260dbd5" y="128.943"/>
     <use style="fill:#1f77b4;stroke:#1f77b4;" x="220.571402" xlink:href="#mf49260dbd5" y="152.952549"/>
     <use style="fill:#1f77b4;stroke:#1f77b4;" x="222.395304" xlink:href="#mf49260dbd5" y="220.376677"/>
     <use style="fill:#1f77b4;stroke:#1f77b4;" x="224.219206" xlink:href="#mf49260dbd5" y="186.10012"/>
     <use style="fill:#1f77b4;stroke:#1f77b4;" x="226.043108" xlink:href="#mf49260dbd5" y="93.011238"/>
     <use style="fill:#1f77b4;stroke:#1f77b4;" x="227.86701" xlink:href="#mf49260dbd5" y="140.865964"/>
     <use style="fill:#1f77b4;stroke:#1f77b4;" x="229.690912" xlink:href="#mf49260dbd5" y="134.792494"/>
     <use style="fill:#1f77b4;stroke:#1f77b4;" x="231.514814" xlink:href="#mf49260dbd5" y="177.010579"/>
     <use style="fill:#1f77b4;stroke:#1f77b4;" x="233.338716" xlink:href="#mf49260dbd5" y="209.603843"/>
     <use style="fill:#1f77b4;stroke:#1f77b4;" x="235.162617" xlink:href="#mf49260dbd5" y="122.233612"/>
     <use style="fill:#1f77b4;stroke:#1f77b4;" x="236.986519" xlink:href="#mf49260dbd5" y="203.835711"/>
     <use style="fill:#1f77b4;stroke:#1f77b4;" x="238.810421" xlink:href="#mf49260dbd5" y="207.224592"/>
     <use style="fill:#1f77b4;stroke:#1f77b4;" x="240.634323" xlink:href="#mf49260dbd5" y="151.888137"/>
     <use style="fill:#1f77b4;stroke:#1f77b4;" x="242.458225" xlink:href="#mf49260dbd5" y="136.393681"/>
     <use style="fill:#1f77b4;stroke:#1f77b4;" x="244.282127" xlink:href="#mf49260dbd5" y="226.368876"/>
     <use style="fill:#1f77b4;stroke:#1f77b4;" x="246.106029" xlink:href="#mf49260dbd5" y="164.964441"/>
     <use style="fill:#1f77b4;stroke:#1f77b4;" x="247.929931" xlink:href="#mf49260dbd5" y="243.53403"/>
     <use style="fill:#1f77b4;stroke:#1f77b4;" x="249.753833" xlink:href="#mf49260dbd5" y="129.814888"/>
     <use style="fill:#1f77b4;stroke:#1f77b4;" x="251.577735" xlink:href="#mf49260dbd5" y="219.411788"/>
     <use style="fill:#1f77b4;stroke:#1f77b4;" x="253.401637" xlink:href="#mf49260dbd5" y="167.358528"/>
     <use style="fill:#1f77b4;stroke:#1f77b4;" x="255.225539" xlink:href="#mf49260dbd5" y="187.549222"/>
     <use style="fill:#1f77b4;stroke:#1f77b4;" x="257.049441" xlink:href="#mf49260dbd5" y="219.703824"/>
     <use style="fill:#1f77b4;stroke:#1f77b4;" x="258.873343" xlink:href="#mf49260dbd5" y="247.472355"/>
     <use style="fill:#1f77b4;stroke:#1f77b4;" x="260.697245" xlink:href="#mf49260dbd5" y="272.162625"/>
     <use style="fill:#1f77b4;stroke:#1f77b4;" x="262.521147" xlink:href="#mf49260dbd5" y="224.737477"/>
     <use style="fill:#1f77b4;stroke:#1f77b4;" x="264.345049" xlink:href="#mf49260dbd5" y="194.724622"/>
     <use style="fill:#1f77b4;stroke:#1f77b4;" x="266.16895" xlink:href="#mf49260dbd5" y="235.180007"/>
     <use style="fill:#1f77b4;stroke:#1f77b4;" x="267.992852" xlink:href="#mf49260dbd5" y="210.664161"/>
     <use style="fill:#1f77b4;stroke:#1f77b4;" x="269.816754" xlink:href="#mf49260dbd5" y="245.257047"/>
     <use style="fill:#1f77b4;stroke:#1f77b4;" x="271.640656" xlink:href="#mf49260dbd5" y="200.093109"/>
     <use style="fill:#1f77b4;stroke:#1f77b4;" x="273.464558" xlink:href="#mf49260dbd5" y="221.051163"/>
     <use style="fill:#1f77b4;stroke:#1f77b4;" x="275.28846" xlink:href="#mf49260dbd5" y="187.019062"/>
     <use style="fill:#1f77b4;stroke:#1f77b4;" x="277.112362" xlink:href="#mf49260dbd5" y="235.742995"/>
     <use style="fill:#1f77b4;stroke:#1f77b4;" x="278.936264" xlink:href="#mf49260dbd5" y="244.76843"/>
     <use style="fill:#1f77b4;stroke:#1f77b4;" x="280.760166" xlink:href="#mf49260dbd5" y="217.662262"/>
     <use style="fill:#1f77b4;stroke:#1f77b4;" x="282.584068" xlink:href="#mf49260dbd5" y="238.846307"/>
     <use style="fill:#1f77b4;stroke:#1f77b4;" x="284.40797" xlink:href="#mf49260dbd5" y="255.029682"/>
     <use style="fill:#1f77b4;stroke:#1f77b4;" x="286.231872" xlink:href="#mf49260dbd5" y="245.239284"/>
     <use style="fill:#1f77b4;stroke:#1f77b4;" x="288.055774" xlink:href="#mf49260dbd5" y="240.761801"/>
     <use style="fill:#1f77b4;stroke:#1f77b4;" x="289.879676" xlink:href="#mf49260dbd5" y="244.756269"/>
     <use style="fill:#1f77b4;stroke:#1f77b4;" x="291.703578" xlink:href="#mf49260dbd5" y="259.265927"/>
     <use style="fill:#1f77b4;stroke:#1f77b4;" x="293.52748" xlink:href="#mf49260dbd5" y="265.001131"/>
     <use style="fill:#1f77b4;stroke:#1f77b4;" x="295.351382" xlink:href="#mf49260dbd5" y="240.337708"/>
     <use style="fill:#1f77b4;stroke:#1f77b4;" x="297.175283" xlink:href="#mf49260dbd5" y="240.269365"/>
     <use style="fill:#1f77b4;stroke:#1f77b4;" x="298.999185" xlink:href="#mf49260dbd5" y="245.736229"/>
     <use style="fill:#1f77b4;stroke:#1f77b4;" x="300.823087" xlink:href="#mf49260dbd5" y="235.357887"/>
     <use style="fill:#1f77b4;stroke:#1f77b4;" x="302.646989" xlink:href="#mf49260dbd5" y="240.544699"/>
     <use style="fill:#1f77b4;stroke:#1f77b4;" x="304.470891" xlink:href="#mf49260dbd5" y="236.455688"/>
     <use style="fill:#1f77b4;stroke:#1f77b4;" x="306.294793" xlink:href="#mf49260dbd5" y="242.291386"/>
     <use style="fill:#1f77b4;stroke:#1f77b4;" x="308.118695" xlink:href="#mf49260dbd5" y="232.184944"/>
     <use style="fill:#1f77b4;stroke:#1f77b4;" x="309.942597" xlink:href="#mf49260dbd5" y="229.091341"/>
     <use style="fill:#1f77b4;stroke:#1f77b4;" x="311.766499" xlink:href="#mf49260dbd5" y="247.506751"/>
     <use style="fill:#1f77b4;stroke:#1f77b4;" x="313.590401" xlink:href="#mf49260dbd5" y="209.748227"/>
     <use style="fill:#1f77b4;stroke:#1f77b4;" x="315.414303" xlink:href="#mf49260dbd5" y="232.717768"/>
     <use style="fill:#1f77b4;stroke:#1f77b4;" x="317.238205" xlink:href="#mf49260dbd5" y="235.121651"/>
     <use style="fill:#1f77b4;stroke:#1f77b4;" x="319.062107" xlink:href="#mf49260dbd5" y="233.323557"/>
     <use style="fill:#1f77b4;stroke:#1f77b4;" x="320.886009" xlink:href="#mf49260dbd5" y="251.847701"/>
     <use style="fill:#1f77b4;stroke:#1f77b4;" x="322.709911" xlink:href="#mf49260dbd5" y="235.978777"/>
     <use style="fill:#1f77b4;stroke:#1f77b4;" x="324.533813" xlink:href="#mf49260dbd5" y="226.646656"/>
     <use style="fill:#1f77b4;stroke:#1f77b4;" x="326.357715" xlink:href="#mf49260dbd5" y="200.87181"/>
     <use style="fill:#1f77b4;stroke:#1f77b4;" x="328.181616" xlink:href="#mf49260dbd5" y="214.380194"/>
     <use style="fill:#1f77b4;stroke:#1f77b4;" x="330.005518" xlink:href="#mf49260dbd5" y="219.292959"/>
     <use style="fill:#1f77b4;stroke:#1f77b4;" x="331.82942" xlink:href="#mf49260dbd5" y="228.479609"/>
     <use style="fill:#1f77b4;stroke:#1f77b4;" x="333.653322" xlink:href="#mf49260dbd5" y="231.070975"/>
     <use style="fill:#1f77b4;stroke:#1f77b4;" x="335.477224" xlink:href="#mf49260dbd5" y="227.511442"/>
     <use style="fill:#1f77b4;stroke:#1f77b4;" x="337.301126" xlink:href="#mf49260dbd5" y="223.902075"/>
     <use style="fill:#1f77b4;stroke:#1f77b4;" x="339.125028" xlink:href="#mf49260dbd5" y="212.373523"/>
     <use style="fill:#1f77b4;stroke:#1f77b4;" x="340.94893" xlink:href="#mf49260dbd5" y="209.68805"/>
     <use style="fill:#1f77b4;stroke:#1f77b4;" x="342.772832" xlink:href="#mf49260dbd5" y="204.399063"/>
     <use style="fill:#1f77b4;stroke:#1f77b4;" x="344.596734" xlink:href="#mf49260dbd5" y="205.883531"/>
     <use style="fill:#1f77b4;stroke:#1f77b4;" x="346.420636" xlink:href="#mf49260dbd5" y="198.074377"/>
     <use style="fill:#1f77b4;stroke:#1f77b4;" x="348.244538" xlink:href="#mf49260dbd5" y="217.428408"/>
     <use style="fill:#1f77b4;stroke:#1f77b4;" x="350.06844" xlink:href="#mf49260dbd5" y="198.741679"/>
     <use style="fill:#1f77b4;stroke:#1f77b4;" x="351.892342" xlink:href="#mf49260dbd5" y="173.491594"/>
     <use style="fill:#1f77b4;stroke:#1f77b4;" x="353.716244" xlink:href="#mf49260dbd5" y="183.509733"/>
     <use style="fill:#1f77b4;stroke:#1f77b4;" x="355.540146" xlink:href="#mf49260dbd5" y="179.742019"/>
     <use style="fill:#1f77b4;stroke:#1f77b4;" x="357.364047" xlink:href="#mf49260dbd5" y="164.744221"/>
     <use style="fill:#1f77b4;stroke:#1f77b4;" x="359.187949" xlink:href="#mf49260dbd5" y="181.916798"/>
     <use style="fill:#1f77b4;stroke:#1f77b4;" x="361.011851" xlink:href="#mf49260dbd5" y="176.052743"/>
     <use style="fill:#1f77b4;stroke:#1f77b4;" x="362.835753" xlink:href="#mf49260dbd5" y="186.129402"/>
     <use style="fill:#1f77b4;stroke:#1f77b4;" x="364.659655" xlink:href="#mf49260dbd5" y="177.720504"/>
     <use style="fill:#1f77b4;stroke:#1f77b4;" x="366.483557" xlink:href="#mf49260dbd5" y="180.504945"/>
     <use style="fill:#1f77b4;stroke:#1f77b4;" x="368.307459" xlink:href="#mf49260dbd5" y="165.69881"/>
     <use style="fill:#1f77b4;stroke:#1f77b4;" x="370.131361" xlink:href="#mf49260dbd5" y="175.134011"/>
     <use style="fill:#1f77b4;stroke:#1f77b4;" x="371.955263" xlink:href="#mf49260dbd5" y="184.314537"/>
     <use style="fill:#1f77b4;stroke:#1f77b4;" x="373.779165" xlink:href="#mf49260dbd5" y="189.129037"/>
     <use style="fill:#1f77b4;stroke:#1f77b4;" x="375.603067" xlink:href="#mf49260dbd5" y="166.236823"/>
     <use style="fill:#1f77b4;stroke:#1f77b4;" x="377.426969" xlink:href="#mf49260dbd5" y="173.010531"/>
     <use style="fill:#1f77b4;stroke:#1f77b4;" x="379.250871" xlink:href="#mf49260dbd5" y="179.331897"/>
     <use style="fill:#1f77b4;stroke:#1f77b4;" x="381.074773" xlink:href="#mf49260dbd5" y="176.29433"/>
    </g>
   </g>
   <g id="patch_3">
    <path d="M 40.1875 284.258625 
L 40.1875 18.146625 
" style="fill:none;stroke:#000000;stroke-linecap:square;stroke-linejoin:miter;stroke-width:0.8;"/>
   </g>
   <g id="patch_4">
    <path d="M 397.3075 284.258625 
L 397.3075 18.146625 
" style="fill:none;stroke:#000000;stroke-linecap:square;stroke-linejoin:miter;stroke-width:0.8;"/>
   </g>
   <g id="patch_5">
    <path d="M 40.1875 284.258625 
L 397.3075 284.258625 
" style="fill:none;stroke:#000000;stroke-linecap:square;stroke-linejoin:miter;stroke-width:0.8;"/>
   </g>
   <g id="patch_6">
    <path d="M 40.1875 18.146625 
L 397.3075 18.146625 
" style="fill:none;stroke:#000000;stroke-linecap:square;stroke-linejoin:miter;stroke-width:0.8;"/>
   </g>
   <g id="legend_1">
    <g id="patch_7">
     <path d="M 338.3075 40.53725 
L 390.3075 40.53725 
Q 392.3075 40.53725 392.3075 38.53725 
L 392.3075 25.146625 
Q 392.3075 23.146625 390.3075 23.146625 
L 338.3075 23.146625 
Q 336.3075 23.146625 336.3075 25.146625 
L 336.3075 38.53725 
Q 336.3075 40.53725 338.3075 40.53725 
z
" style="fill:#ffffff;opacity:0.8;stroke:#cccccc;stroke-linejoin:miter;"/>
    </g>
    <g id="line2d_15">
     <path d="M 340.3075 31.13725 
L 360.3075 31.13725 
" style="fill:none;stroke:#1f77b4;stroke-linecap:square;stroke-width:1.5;"/>
    </g>
    <g id="line2d_16">
     <g>
      <use style="fill:#1f77b4;stroke:#1f77b4;" x="350.3075" xlink:href="#mf49260dbd5" y="31.13725"/>
     </g>
    </g>
    <g id="text_16">
     <!-- 全国 -->
     <g transform="translate(368.3075 34.63725)scale(0.1 -0.1)">
      <defs>
       <path d="M 53.375 43.40625 
L 53.375 27.296875 
L 82.5625 27.296875 
L 82.5625 20.90625 
L 53.375 20.90625 
L 53.375 2.875 
L 91.546875 2.875 
L 91.546875 -3.609375 
L 8.546875 -3.609375 
L 8.546875 2.875 
L 45.953125 2.875 
L 45.953125 20.90625 
L 17.4375 20.90625 
L 17.4375 27.296875 
L 45.953125 27.296875 
L 45.953125 43.40625 
L 26.03125 43.40625 
L 26.03125 48.296875 
Q 18.5625 42.875 9.328125 38.625 
L 4.9375 44.484375 
Q 31.34375 55.765625 45.125 81.203125 
L 53.765625 81.203125 
Q 70.171875 58.796875 95.5625 47.515625 
L 90.875 40.921875 
Q 66.109375 53.328125 49.5625 74.609375 
Q 40.671875 59.90625 27.9375 49.703125 
L 75.046875 49.703125 
L 75.046875 43.40625 
z
" id="IPAexGothic-20840"/>
       <path d="M 52.09375 56.6875 
L 52.09375 44.09375 
L 73.875 44.09375 
L 73.875 38.09375 
L 52.09375 38.09375 
L 52.09375 19.390625 
L 77.984375 19.390625 
L 77.984375 13.09375 
L 21.828125 13.09375 
L 21.828125 19.390625 
L 45.125 19.390625 
L 45.125 38.09375 
L 25.921875 38.09375 
L 25.921875 44.09375 
L 45.125 44.09375 
L 45.125 56.6875 
L 22.796875 56.6875 
L 22.796875 62.890625 
L 76.90625 62.890625 
L 76.90625 56.6875 
z
M 67.921875 20.515625 
Q 63.578125 26.953125 58.109375 32.421875 
L 63.140625 36.28125 
Q 68.5625 31.453125 73.1875 25 
z
M 89.984375 77.875 
L 89.984375 -6.984375 
L 82.8125 -6.984375 
L 82.8125 -2 
L 17.140625 -2 
L 17.140625 -6.984375 
L 9.8125 -6.984375 
L 9.8125 77.875 
z
M 17.140625 71.578125 
L 17.140625 4.296875 
L 82.8125 4.296875 
L 82.8125 71.578125 
z
" id="IPAexGothic-22269"/>
      </defs>
      <use xlink:href="#IPAexGothic-20840"/>
      <use x="100" xlink:href="#IPAexGothic-22269"/>
     </g>
    </g>
   </g>
  </g>
  <g id="text_17">
   <!-- generated: 2020-08-27 16:00:33 -->
   <g transform="translate(239.412188 14.690625)scale(0.1 -0.1)">
    <defs>
     <path d="M 33.203125 3.765625 
Q 27.640625 -0.09375 21.828125 -0.09375 
Q 10.203125 -0.09375 10.203125 12.984375 
L 10.203125 44.671875 
L 3.421875 44.671875 
L 3.421875 50.78125 
L 10.203125 50.78125 
L 10.203125 61.96875 
L 18.40625 66.0625 
L 18.40625 50.78125 
L 32.234375 50.78125 
L 32.234375 44.671875 
L 18.40625 44.671875 
L 18.40625 14.15625 
Q 18.40625 6.5 23.640625 6.5 
Q 27.15625 6.5 30.328125 9.1875 
z
" id="IPAexGothic-116"/>
     <path d="M 52.984375 0.984375 
L 45.171875 0.984375 
L 45.171875 9.671875 
Q 38.140625 -0.484375 27.390625 -0.484375 
Q 18.453125 -0.484375 12.3125 5.8125 
Q 4.890625 13.1875 4.890625 25.984375 
Q 4.890625 38.53125 12.0625 45.90625 
Q 18.265625 52.203125 27.390625 52.203125 
Q 37.25 52.203125 44.484375 43.890625 
L 44.484375 74.90625 
L 52.984375 74.90625 
z
M 44.484375 20.359375 
L 44.484375 32.765625 
Q 44.484375 37.703125 38.375 42.28125 
Q 34.078125 45.40625 28.953125 45.40625 
Q 23.1875 45.40625 19.1875 41.40625 
Q 13.875 36.078125 13.875 26.21875 
Q 13.875 17.328125 18.265625 11.71875 
Q 22.515625 6.390625 28.859375 6.390625 
Q 36.28125 6.390625 41.5 13.671875 
Q 44.484375 17.71875 44.484375 20.359375 
z
" id="IPAexGothic-100"/>
     <path d="M 21.390625 39.984375 
L 10.5 39.984375 
L 10.5 50.78125 
L 21.390625 50.78125 
z
M 21.390625 0.984375 
L 10.5 0.984375 
L 10.5 11.765625 
L 21.390625 11.765625 
z
" id="IPAexGothic-58"/>
     <path id="IPAexGothic-32"/>
     <path d="M 30.765625 26.609375 
L 4.984375 26.609375 
L 4.984375 34.421875 
L 30.765625 34.421875 
z
" id="IPAexGothic-45"/>
     <path d="M 39.703125 37.890625 
Q 57.8125 31.734375 57.8125 18.703125 
Q 57.8125 8.453125 48.4375 3.078125 
Q 41.609375 -0.875 31.5 -0.875 
Q 21.34375 -0.875 14.5 3.078125 
Q 5.421875 8.296875 5.421875 18.40625 
Q 5.421875 31.0625 22.015625 37.203125 
L 22.015625 37.5 
Q 7.515625 42.71875 7.515625 54.828125 
Q 7.515625 64.0625 15.328125 69.625 
Q 21.96875 74.3125 31.546875 74.3125 
Q 42.234375 74.3125 48.921875 68.796875 
Q 55.515625 63.578125 55.515625 55.71875 
Q 55.515625 42.28125 39.703125 38.1875 
z
M 31.59375 41.015625 
Q 46.828125 44.625 46.828125 55.125 
Q 46.828125 61.1875 41.796875 64.84375 
Q 37.703125 67.921875 31.5 67.921875 
Q 25.09375 67.921875 20.796875 64.5 
Q 16.40625 60.890625 16.40625 55.03125 
Q 16.40625 49.21875 21.09375 45.703125 
Q 23.34375 43.890625 26.90625 42.53125 
Q 31 40.875 31.59375 41.015625 
z
M 30.90625 34.515625 
Q 14.40625 30.171875 14.40625 19 
Q 14.40625 12.109375 20.515625 8.6875 
Q 25.09375 6.109375 31.390625 6.109375 
Q 40.234375 6.109375 45.015625 10.890625 
Q 48.53125 14.40625 48.53125 19.53125 
Q 48.53125 24.90625 43.65625 28.90625 
Q 40.765625 31.15625 36.71875 32.8125 
Q 31.984375 34.71875 30.90625 34.515625 
z
" id="IPAexGothic-56"/>
     <path d="M 56.203125 66.609375 
Q 34.96875 32.90625 27.78125 0.984375 
L 17.671875 0.984375 
Q 24.703125 28.65625 46.09375 64.5 
L 6.6875 64.5 
L 6.6875 72.40625 
L 56.203125 72.40625 
z
" id="IPAexGothic-55"/>
     <path d="M 38.484375 0.984375 
L 29.6875 0.984375 
L 29.6875 64.109375 
Q 21.4375 61.28125 12.3125 59.328125 
L 10.6875 66.109375 
Q 23.734375 69.390625 32.90625 73.921875 
L 38.484375 73.921875 
z
" id="IPAexGothic-49"/>
    </defs>
    <use xlink:href="#IPAexGothic-103"/>
    <use x="55.517578" xlink:href="#IPAexGothic-101"/>
    <use x="112.402344" xlink:href="#IPAexGothic-110"/>
    <use x="172.802734" xlink:href="#IPAexGothic-101"/>
    <use x="229.6875" xlink:href="#IPAexGothic-114"/>
    <use x="266.699219" xlink:href="#IPAexGothic-97"/>
    <use x="321.679688" xlink:href="#IPAexGothic-116"/>
    <use x="356.298828" xlink:href="#IPAexGothic-101"/>
    <use x="413.183594" xlink:href="#IPAexGothic-100"/>
    <use x="475.585938" xlink:href="#IPAexGothic-58"/>
    <use x="507.568359" xlink:href="#IPAexGothic-32"/>
    <use x="534.570312" xlink:href="#IPAexGothic-50"/>
    <use x="597.558594" xlink:href="#IPAexGothic-48"/>
    <use x="660.546875" xlink:href="#IPAexGothic-50"/>
    <use x="723.535156" xlink:href="#IPAexGothic-48"/>
    <use x="786.523438" xlink:href="#IPAexGothic-45"/>
    <use x="822.314453" xlink:href="#IPAexGothic-48"/>
    <use x="885.302734" xlink:href="#IPAexGothic-56"/>
    <use x="948.291016" xlink:href="#IPAexGothic-45"/>
    <use x="984.082031" xlink:href="#IPAexGothic-50"/>
    <use x="1047.070312" xlink:href="#IPAexGothic-55"/>
    <use x="1110.058594" xlink:href="#IPAexGothic-32"/>
    <use x="1137.060547" xlink:href="#IPAexGothic-49"/>
    <use x="1200.048828" xlink:href="#IPAexGothic-54"/>
    <use x="1263.037109" xlink:href="#IPAexGothic-58"/>
    <use x="1295.019531" xlink:href="#IPAexGothic-48"/>
    <use x="1358.007812" xlink:href="#IPAexGothic-48"/>
    <use x="1420.996094" xlink:href="#IPAexGothic-58"/>
    <use x="1452.978516" xlink:href="#IPAexGothic-51"/>
    <use x="1515.966797" xlink:href="#IPAexGothic-51"/>
   </g>
  </g>
 </g>
 <defs>
  <clipPath id="p40c72f6936">
   <rect height="266.112" width="357.12" x="40.1875" y="18.146625"/>
  </clipPath>
 </defs>
</svg>
