<?xml version="1.0" encoding="utf-8" standalone="no"?>
<!DOCTYPE svg PUBLIC "-//W3C//DTD SVG 1.1//EN"
  "http://www.w3.org/Graphics/SVG/1.1/DTD/svg11.dtd">
<!-- Created with matplotlib (https://matplotlib.org/) -->
<svg height="307.84925pt" version="1.1" viewBox="0 0 403.71375 307.84925" width="403.71375pt" xmlns="http://www.w3.org/2000/svg" xmlns:xlink="http://www.w3.org/1999/xlink">
 <metadata>
  <rdf:RDF xmlns:cc="http://creativecommons.org/ns#" xmlns:dc="http://purl.org/dc/elements/1.1/" xmlns:rdf="http://www.w3.org/1999/02/22-rdf-syntax-ns#">
   <cc:Work>
    <dc:type rdf:resource="http://purl.org/dc/dcmitype/StillImage"/>
    <dc:date>2020-11-30T18:07:36.585901</dc:date>
    <dc:format>image/svg+xml</dc:format>
    <dc:creator>
     <cc:Agent>
      <dc:title>Matplotlib v3.3.3, https://matplotlib.org/</dc:title>
     </cc:Agent>
    </dc:creator>
   </cc:Work>
  </rdf:RDF>
 </metadata>
 <defs>
  <style type="text/css">*{stroke-linecap:butt;stroke-linejoin:round;}</style>
 </defs>
 <g id="figure_1">
  <g id="patch_1">
   <path d="M 0 307.84925 
L 403.71375 307.84925 
L 403.71375 0 
L 0 0 
z
" style="fill:#ffffff;"/>
  </g>
  <g id="axes_1">
   <g id="patch_2">
    <path d="M 39.39375 284.258625 
L 396.51375 284.258625 
L 396.51375 18.146625 
L 39.39375 18.146625 
z
" style="fill:#ffffff;"/>
   </g>
   <g id="patch_3">
    <path clip-path="url(#pa93f758dc5)" d="M 55.626477 284.258625 
L 58.939279 284.258625 
L 58.939279 284.139434 
L 55.626477 284.139434 
z
" style="fill:#d3d3d3;stroke:#000000;stroke-linejoin:miter;"/>
   </g>
   <g id="patch_4">
    <path clip-path="url(#pa93f758dc5)" d="M 58.939279 284.258625 
L 62.25208 284.258625 
L 62.25208 284.258625 
L 58.939279 284.258625 
z
" style="fill:#d3d3d3;stroke:#000000;stroke-linejoin:miter;"/>
   </g>
   <g id="patch_5">
    <path clip-path="url(#pa93f758dc5)" d="M 62.25208 284.258625 
L 65.564882 284.258625 
L 65.564882 284.218895 
L 62.25208 284.218895 
z
" style="fill:#d3d3d3;stroke:#000000;stroke-linejoin:miter;"/>
   </g>
   <g id="patch_6">
    <path clip-path="url(#pa93f758dc5)" d="M 65.564882 284.258625 
L 68.877683 284.258625 
L 68.877683 284.218895 
L 65.564882 284.218895 
z
" style="fill:#d3d3d3;stroke:#000000;stroke-linejoin:miter;"/>
   </g>
   <g id="patch_7">
    <path clip-path="url(#pa93f758dc5)" d="M 68.877683 284.258625 
L 72.190485 284.258625 
L 72.190485 284.258625 
L 68.877683 284.258625 
z
" style="fill:#d3d3d3;stroke:#000000;stroke-linejoin:miter;"/>
   </g>
   <g id="patch_8">
    <path clip-path="url(#pa93f758dc5)" d="M 72.190485 284.258625 
L 75.503286 284.258625 
L 75.503286 284.258625 
L 72.190485 284.258625 
z
" style="fill:#d3d3d3;stroke:#000000;stroke-linejoin:miter;"/>
   </g>
   <g id="patch_9">
    <path clip-path="url(#pa93f758dc5)" d="M 75.503286 284.258625 
L 78.816088 284.258625 
L 78.816088 284.258625 
L 75.503286 284.258625 
z
" style="fill:#d3d3d3;stroke:#000000;stroke-linejoin:miter;"/>
   </g>
   <g id="patch_10">
    <path clip-path="url(#pa93f758dc5)" d="M 78.816088 284.258625 
L 82.128889 284.258625 
L 82.128889 284.258625 
L 78.816088 284.258625 
z
" style="fill:#d3d3d3;stroke:#000000;stroke-linejoin:miter;"/>
   </g>
   <g id="patch_11">
    <path clip-path="url(#pa93f758dc5)" d="M 82.128889 284.258625 
L 85.441691 284.258625 
L 85.441691 284.258625 
L 82.128889 284.258625 
z
" style="fill:#d3d3d3;stroke:#000000;stroke-linejoin:miter;"/>
   </g>
   <g id="patch_12">
    <path clip-path="url(#pa93f758dc5)" d="M 85.441691 284.258625 
L 88.754492 284.258625 
L 88.754492 284.179164 
L 85.441691 284.179164 
z
" style="fill:#d3d3d3;stroke:#000000;stroke-linejoin:miter;"/>
   </g>
   <g id="patch_13">
    <path clip-path="url(#pa93f758dc5)" d="M 88.754492 284.258625 
L 92.067294 284.258625 
L 92.067294 284.218895 
L 88.754492 284.218895 
z
" style="fill:#d3d3d3;stroke:#000000;stroke-linejoin:miter;"/>
   </g>
   <g id="patch_14">
    <path clip-path="url(#pa93f758dc5)" d="M 92.067294 284.258625 
L 95.380095 284.258625 
L 95.380095 284.218895 
L 92.067294 284.218895 
z
" style="fill:#d3d3d3;stroke:#000000;stroke-linejoin:miter;"/>
   </g>
   <g id="patch_15">
    <path clip-path="url(#pa93f758dc5)" d="M 95.380095 284.258625 
L 98.692897 284.258625 
L 98.692897 284.218895 
L 95.380095 284.218895 
z
" style="fill:#d3d3d3;stroke:#000000;stroke-linejoin:miter;"/>
   </g>
   <g id="patch_16">
    <path clip-path="url(#pa93f758dc5)" d="M 98.692897 284.258625 
L 102.005698 284.258625 
L 102.005698 284.139434 
L 98.692897 284.139434 
z
" style="fill:#d3d3d3;stroke:#000000;stroke-linejoin:miter;"/>
   </g>
   <g id="patch_17">
    <path clip-path="url(#pa93f758dc5)" d="M 102.005698 284.258625 
L 105.3185 284.258625 
L 105.3185 284.099704 
L 102.005698 284.099704 
z
" style="fill:#d3d3d3;stroke:#000000;stroke-linejoin:miter;"/>
   </g>
   <g id="patch_18">
    <path clip-path="url(#pa93f758dc5)" d="M 105.3185 284.258625 
L 108.631301 284.258625 
L 108.631301 283.980512 
L 105.3185 283.980512 
z
" style="fill:#d3d3d3;stroke:#000000;stroke-linejoin:miter;"/>
   </g>
   <g id="patch_19">
    <path clip-path="url(#pa93f758dc5)" d="M 108.631301 284.258625 
L 111.944103 284.258625 
L 111.944103 283.7024 
L 108.631301 283.7024 
z
" style="fill:#d3d3d3;stroke:#000000;stroke-linejoin:miter;"/>
   </g>
   <g id="patch_20">
    <path clip-path="url(#pa93f758dc5)" d="M 111.944103 284.258625 
L 115.256904 284.258625 
L 115.256904 283.583209 
L 111.944103 283.583209 
z
" style="fill:#d3d3d3;stroke:#000000;stroke-linejoin:miter;"/>
   </g>
   <g id="patch_21">
    <path clip-path="url(#pa93f758dc5)" d="M 115.256904 284.258625 
L 118.569705 284.258625 
L 118.569705 282.748871 
L 115.256904 282.748871 
z
" style="fill:#d3d3d3;stroke:#000000;stroke-linejoin:miter;"/>
   </g>
   <g id="patch_22">
    <path clip-path="url(#pa93f758dc5)" d="M 118.569705 284.258625 
L 121.882507 284.258625 
L 121.882507 282.788601 
L 118.569705 282.788601 
z
" style="fill:#d3d3d3;stroke:#000000;stroke-linejoin:miter;"/>
   </g>
   <g id="patch_23">
    <path clip-path="url(#pa93f758dc5)" d="M 121.882507 284.258625 
L 125.195308 284.258625 
L 125.195308 282.58995 
L 121.882507 282.58995 
z
" style="fill:#d3d3d3;stroke:#000000;stroke-linejoin:miter;"/>
   </g>
   <g id="patch_24">
    <path clip-path="url(#pa93f758dc5)" d="M 125.195308 284.258625 
L 128.50811 284.258625 
L 128.50811 281.636421 
L 125.195308 281.636421 
z
" style="fill:#d3d3d3;stroke:#000000;stroke-linejoin:miter;"/>
   </g>
   <g id="patch_25">
    <path clip-path="url(#pa93f758dc5)" d="M 128.50811 284.258625 
L 131.820911 284.258625 
L 131.820911 281.239117 
L 128.50811 281.239117 
z
" style="fill:#d3d3d3;stroke:#000000;stroke-linejoin:miter;"/>
   </g>
   <g id="patch_26">
    <path clip-path="url(#pa93f758dc5)" d="M 131.820911 284.258625 
L 135.133713 284.258625 
L 135.133713 279.928015 
L 131.820911 279.928015 
z
" style="fill:#d3d3d3;stroke:#000000;stroke-linejoin:miter;"/>
   </g>
   <g id="patch_27">
    <path clip-path="url(#pa93f758dc5)" d="M 135.133713 284.258625 
L 138.446514 284.258625 
L 138.446514 280.325319 
L 135.133713 280.325319 
z
" style="fill:#d3d3d3;stroke:#000000;stroke-linejoin:miter;"/>
   </g>
   <g id="patch_28">
    <path clip-path="url(#pa93f758dc5)" d="M 138.446514 284.258625 
L 141.759316 284.258625 
L 141.759316 280.047206 
L 138.446514 280.047206 
z
" style="fill:#d3d3d3;stroke:#000000;stroke-linejoin:miter;"/>
   </g>
   <g id="patch_29">
    <path clip-path="url(#pa93f758dc5)" d="M 141.759316 284.258625 
L 145.072117 284.258625 
L 145.072117 242.064977 
L 141.759316 242.064977 
z
" style="fill:#d3d3d3;stroke:#000000;stroke-linejoin:miter;"/>
   </g>
   <g id="patch_30">
    <path clip-path="url(#pa93f758dc5)" d="M 145.072117 284.258625 
L 148.384919 284.258625 
L 148.384919 124.820669 
L 145.072117 124.820669 
z
" style="fill:#d3d3d3;stroke:#000000;stroke-linejoin:miter;"/>
   </g>
   <g id="patch_31">
    <path clip-path="url(#pa93f758dc5)" d="M 148.384919 284.258625 
L 151.69772 284.258625 
L 151.69772 30.937816 
L 148.384919 30.937816 
z
" style="fill:#d3d3d3;stroke:#000000;stroke-linejoin:miter;"/>
   </g>
   <g id="patch_32">
    <path clip-path="url(#pa93f758dc5)" d="M 151.69772 284.258625 
L 155.010522 284.258625 
L 155.010522 30.818625 
L 151.69772 30.818625 
z
" style="fill:#d3d3d3;stroke:#000000;stroke-linejoin:miter;"/>
   </g>
   <g id="patch_33">
    <path clip-path="url(#pa93f758dc5)" d="M 155.010522 284.258625 
L 158.323323 284.258625 
L 158.323323 44.922905 
L 155.010522 44.922905 
z
" style="fill:#d3d3d3;stroke:#000000;stroke-linejoin:miter;"/>
   </g>
   <g id="patch_34">
    <path clip-path="url(#pa93f758dc5)" d="M 158.323323 284.258625 
L 161.636125 284.258625 
L 161.636125 67.569213 
L 158.323323 67.569213 
z
" style="fill:#d3d3d3;stroke:#000000;stroke-linejoin:miter;"/>
   </g>
   <g id="patch_35">
    <path clip-path="url(#pa93f758dc5)" d="M 161.636125 284.258625 
L 164.948926 284.258625 
L 164.948926 96.333997 
L 161.636125 96.333997 
z
" style="fill:#d3d3d3;stroke:#000000;stroke-linejoin:miter;"/>
   </g>
   <g id="patch_36">
    <path clip-path="url(#pa93f758dc5)" d="M 164.948926 284.258625 
L 168.261728 284.258625 
L 168.261728 130.025347 
L 164.948926 130.025347 
z
" style="fill:#d3d3d3;stroke:#000000;stroke-linejoin:miter;"/>
   </g>
   <g id="patch_37">
    <path clip-path="url(#pa93f758dc5)" d="M 168.261728 284.258625 
L 171.574529 284.258625 
L 171.574529 156.167927 
L 168.261728 156.167927 
z
" style="fill:#d3d3d3;stroke:#000000;stroke-linejoin:miter;"/>
   </g>
   <g id="patch_38">
    <path clip-path="url(#pa93f758dc5)" d="M 171.574529 284.258625 
L 174.887331 284.258625 
L 174.887331 186.084892 
L 171.574529 186.084892 
z
" style="fill:#d3d3d3;stroke:#000000;stroke-linejoin:miter;"/>
   </g>
   <g id="patch_39">
    <path clip-path="url(#pa93f758dc5)" d="M 174.887331 284.258625 
L 178.200132 284.258625 
L 178.200132 213.02208 
L 174.887331 213.02208 
z
" style="fill:#d3d3d3;stroke:#000000;stroke-linejoin:miter;"/>
   </g>
   <g id="patch_40">
    <path clip-path="url(#pa93f758dc5)" d="M 178.200132 284.258625 
L 181.512934 284.258625 
L 181.512934 235.430006 
L 178.200132 235.430006 
z
" style="fill:#d3d3d3;stroke:#000000;stroke-linejoin:miter;"/>
   </g>
   <g id="patch_41">
    <path clip-path="url(#pa93f758dc5)" d="M 181.512934 284.258625 
L 184.825735 284.258625 
L 184.825735 253.070288 
L 181.512934 253.070288 
z
" style="fill:#d3d3d3;stroke:#000000;stroke-linejoin:miter;"/>
   </g>
   <g id="patch_42">
    <path clip-path="url(#pa93f758dc5)" d="M 184.825735 284.258625 
L 188.138537 284.258625 
L 188.138537 261.016361 
L 184.825735 261.016361 
z
" style="fill:#d3d3d3;stroke:#000000;stroke-linejoin:miter;"/>
   </g>
   <g id="patch_43">
    <path clip-path="url(#pa93f758dc5)" d="M 188.138537 284.258625 
L 191.451338 284.258625 
L 191.451338 268.763783 
L 188.138537 268.763783 
z
" style="fill:#d3d3d3;stroke:#000000;stroke-linejoin:miter;"/>
   </g>
   <g id="patch_44">
    <path clip-path="url(#pa93f758dc5)" d="M 191.451338 284.258625 
L 194.76414 284.258625 
L 194.76414 272.220324 
L 191.451338 272.220324 
z
" style="fill:#d3d3d3;stroke:#000000;stroke-linejoin:miter;"/>
   </g>
   <g id="patch_45">
    <path clip-path="url(#pa93f758dc5)" d="M 194.76414 284.258625 
L 198.076941 284.258625 
L 198.076941 275.319293 
L 194.76414 275.319293 
z
" style="fill:#d3d3d3;stroke:#000000;stroke-linejoin:miter;"/>
   </g>
   <g id="patch_46">
    <path clip-path="url(#pa93f758dc5)" d="M 198.076941 284.258625 
L 201.389743 284.258625 
L 201.389743 278.775835 
L 198.076941 278.775835 
z
" style="fill:#d3d3d3;stroke:#000000;stroke-linejoin:miter;"/>
   </g>
   <g id="patch_47">
    <path clip-path="url(#pa93f758dc5)" d="M 201.389743 284.258625 
L 204.702544 284.258625 
L 204.702544 280.921274 
L 201.389743 280.921274 
z
" style="fill:#d3d3d3;stroke:#000000;stroke-linejoin:miter;"/>
   </g>
   <g id="patch_48">
    <path clip-path="url(#pa93f758dc5)" d="M 204.702544 284.258625 
L 208.015346 284.258625 
L 208.015346 282.033725 
L 204.702544 282.033725 
z
" style="fill:#d3d3d3;stroke:#000000;stroke-linejoin:miter;"/>
   </g>
   <g id="patch_49">
    <path clip-path="url(#pa93f758dc5)" d="M 208.015346 284.258625 
L 211.328147 284.258625 
L 211.328147 282.66941 
L 208.015346 282.66941 
z
" style="fill:#d3d3d3;stroke:#000000;stroke-linejoin:miter;"/>
   </g>
   <g id="patch_50">
    <path clip-path="url(#pa93f758dc5)" d="M 211.328147 284.258625 
L 214.640949 284.258625 
L 214.640949 282.550219 
L 211.328147 282.550219 
z
" style="fill:#d3d3d3;stroke:#000000;stroke-linejoin:miter;"/>
   </g>
   <g id="patch_51">
    <path clip-path="url(#pa93f758dc5)" d="M 214.640949 284.258625 
L 217.95375 284.258625 
L 217.95375 283.424287 
L 214.640949 283.424287 
z
" style="fill:#d3d3d3;stroke:#000000;stroke-linejoin:miter;"/>
   </g>
   <g id="patch_52">
    <path clip-path="url(#pa93f758dc5)" d="M 217.95375 284.258625 
L 221.266551 284.258625 
L 221.266551 283.622939 
L 217.95375 283.622939 
z
" style="fill:#d3d3d3;stroke:#000000;stroke-linejoin:miter;"/>
   </g>
   <g id="patch_53">
    <path clip-path="url(#pa93f758dc5)" d="M 221.266551 284.258625 
L 224.579353 284.258625 
L 224.579353 283.74213 
L 221.266551 283.74213 
z
" style="fill:#d3d3d3;stroke:#000000;stroke-linejoin:miter;"/>
   </g>
   <g id="patch_54">
    <path clip-path="url(#pa93f758dc5)" d="M 224.579353 284.258625 
L 227.892154 284.258625 
L 227.892154 283.980512 
L 224.579353 283.980512 
z
" style="fill:#d3d3d3;stroke:#000000;stroke-linejoin:miter;"/>
   </g>
   <g id="patch_55">
    <path clip-path="url(#pa93f758dc5)" d="M 227.892154 284.258625 
L 231.204956 284.258625 
L 231.204956 283.980512 
L 227.892154 283.980512 
z
" style="fill:#d3d3d3;stroke:#000000;stroke-linejoin:miter;"/>
   </g>
   <g id="patch_56">
    <path clip-path="url(#pa93f758dc5)" d="M 231.204956 284.258625 
L 234.517757 284.258625 
L 234.517757 283.901052 
L 231.204956 283.901052 
z
" style="fill:#d3d3d3;stroke:#000000;stroke-linejoin:miter;"/>
   </g>
   <g id="patch_57">
    <path clip-path="url(#pa93f758dc5)" d="M 234.517757 284.258625 
L 237.830559 284.258625 
L 237.830559 283.901052 
L 234.517757 283.901052 
z
" style="fill:#d3d3d3;stroke:#000000;stroke-linejoin:miter;"/>
   </g>
   <g id="patch_58">
    <path clip-path="url(#pa93f758dc5)" d="M 237.830559 284.258625 
L 241.14336 284.258625 
L 241.14336 284.059973 
L 237.830559 284.059973 
z
" style="fill:#d3d3d3;stroke:#000000;stroke-linejoin:miter;"/>
   </g>
   <g id="patch_59">
    <path clip-path="url(#pa93f758dc5)" d="M 241.14336 284.258625 
L 244.456162 284.258625 
L 244.456162 284.099704 
L 241.14336 284.099704 
z
" style="fill:#d3d3d3;stroke:#000000;stroke-linejoin:miter;"/>
   </g>
   <g id="patch_60">
    <path clip-path="url(#pa93f758dc5)" d="M 244.456162 284.258625 
L 247.768963 284.258625 
L 247.768963 284.059973 
L 244.456162 284.059973 
z
" style="fill:#d3d3d3;stroke:#000000;stroke-linejoin:miter;"/>
   </g>
   <g id="patch_61">
    <path clip-path="url(#pa93f758dc5)" d="M 247.768963 284.258625 
L 251.081765 284.258625 
L 251.081765 284.020243 
L 247.768963 284.020243 
z
" style="fill:#d3d3d3;stroke:#000000;stroke-linejoin:miter;"/>
   </g>
   <g id="patch_62">
    <path clip-path="url(#pa93f758dc5)" d="M 251.081765 284.258625 
L 254.394566 284.258625 
L 254.394566 284.179164 
L 251.081765 284.179164 
z
" style="fill:#d3d3d3;stroke:#000000;stroke-linejoin:miter;"/>
   </g>
   <g id="patch_63">
    <path clip-path="url(#pa93f758dc5)" d="M 254.394566 284.258625 
L 257.707368 284.258625 
L 257.707368 284.179164 
L 254.394566 284.179164 
z
" style="fill:#d3d3d3;stroke:#000000;stroke-linejoin:miter;"/>
   </g>
   <g id="patch_64">
    <path clip-path="url(#pa93f758dc5)" d="M 257.707368 284.258625 
L 261.020169 284.258625 
L 261.020169 284.139434 
L 257.707368 284.139434 
z
" style="fill:#d3d3d3;stroke:#000000;stroke-linejoin:miter;"/>
   </g>
   <g id="patch_65">
    <path clip-path="url(#pa93f758dc5)" d="M 261.020169 284.258625 
L 264.332971 284.258625 
L 264.332971 284.139434 
L 261.020169 284.139434 
z
" style="fill:#d3d3d3;stroke:#000000;stroke-linejoin:miter;"/>
   </g>
   <g id="patch_66">
    <path clip-path="url(#pa93f758dc5)" d="M 264.332971 284.258625 
L 267.645772 284.258625 
L 267.645772 284.059973 
L 264.332971 284.059973 
z
" style="fill:#d3d3d3;stroke:#000000;stroke-linejoin:miter;"/>
   </g>
   <g id="patch_67">
    <path clip-path="url(#pa93f758dc5)" d="M 267.645772 284.258625 
L 270.958574 284.258625 
L 270.958574 284.218895 
L 267.645772 284.218895 
z
" style="fill:#d3d3d3;stroke:#000000;stroke-linejoin:miter;"/>
   </g>
   <g id="patch_68">
    <path clip-path="url(#pa93f758dc5)" d="M 270.958574 284.258625 
L 274.271375 284.258625 
L 274.271375 284.139434 
L 270.958574 284.139434 
z
" style="fill:#d3d3d3;stroke:#000000;stroke-linejoin:miter;"/>
   </g>
   <g id="patch_69">
    <path clip-path="url(#pa93f758dc5)" d="M 274.271375 284.258625 
L 277.584177 284.258625 
L 277.584177 284.179164 
L 274.271375 284.179164 
z
" style="fill:#d3d3d3;stroke:#000000;stroke-linejoin:miter;"/>
   </g>
   <g id="patch_70">
    <path clip-path="url(#pa93f758dc5)" d="M 277.584177 284.258625 
L 280.896978 284.258625 
L 280.896978 284.258625 
L 277.584177 284.258625 
z
" style="fill:#d3d3d3;stroke:#000000;stroke-linejoin:miter;"/>
   </g>
   <g id="patch_71">
    <path clip-path="url(#pa93f758dc5)" d="M 280.896978 284.258625 
L 284.20978 284.258625 
L 284.20978 284.218895 
L 280.896978 284.218895 
z
" style="fill:#d3d3d3;stroke:#000000;stroke-linejoin:miter;"/>
   </g>
   <g id="patch_72">
    <path clip-path="url(#pa93f758dc5)" d="M 284.20978 284.258625 
L 287.522581 284.258625 
L 287.522581 284.179164 
L 284.20978 284.179164 
z
" style="fill:#d3d3d3;stroke:#000000;stroke-linejoin:miter;"/>
   </g>
   <g id="patch_73">
    <path clip-path="url(#pa93f758dc5)" d="M 287.522581 284.258625 
L 290.835383 284.258625 
L 290.835383 284.218895 
L 287.522581 284.218895 
z
" style="fill:#d3d3d3;stroke:#000000;stroke-linejoin:miter;"/>
   </g>
   <g id="patch_74">
    <path clip-path="url(#pa93f758dc5)" d="M 290.835383 284.258625 
L 294.148184 284.258625 
L 294.148184 284.258625 
L 290.835383 284.258625 
z
" style="fill:#d3d3d3;stroke:#000000;stroke-linejoin:miter;"/>
   </g>
   <g id="patch_75">
    <path clip-path="url(#pa93f758dc5)" d="M 294.148184 284.258625 
L 297.460986 284.258625 
L 297.460986 284.218895 
L 294.148184 284.218895 
z
" style="fill:#d3d3d3;stroke:#000000;stroke-linejoin:miter;"/>
   </g>
   <g id="patch_76">
    <path clip-path="url(#pa93f758dc5)" d="M 297.460986 284.258625 
L 300.773787 284.258625 
L 300.773787 284.258625 
L 297.460986 284.258625 
z
" style="fill:#d3d3d3;stroke:#000000;stroke-linejoin:miter;"/>
   </g>
   <g id="patch_77">
    <path clip-path="url(#pa93f758dc5)" d="M 300.773787 284.258625 
L 304.086589 284.258625 
L 304.086589 284.258625 
L 300.773787 284.258625 
z
" style="fill:#d3d3d3;stroke:#000000;stroke-linejoin:miter;"/>
   </g>
   <g id="patch_78">
    <path clip-path="url(#pa93f758dc5)" d="M 304.086589 284.258625 
L 307.39939 284.258625 
L 307.39939 284.258625 
L 304.086589 284.258625 
z
" style="fill:#d3d3d3;stroke:#000000;stroke-linejoin:miter;"/>
   </g>
   <g id="patch_79">
    <path clip-path="url(#pa93f758dc5)" d="M 307.39939 284.258625 
L 310.712192 284.258625 
L 310.712192 284.218895 
L 307.39939 284.218895 
z
" style="fill:#d3d3d3;stroke:#000000;stroke-linejoin:miter;"/>
   </g>
   <g id="patch_80">
    <path clip-path="url(#pa93f758dc5)" d="M 310.712192 284.258625 
L 314.024993 284.258625 
L 314.024993 284.179164 
L 310.712192 284.179164 
z
" style="fill:#d3d3d3;stroke:#000000;stroke-linejoin:miter;"/>
   </g>
   <g id="patch_81">
    <path clip-path="url(#pa93f758dc5)" d="M 314.024993 284.258625 
L 317.337795 284.258625 
L 317.337795 284.258625 
L 314.024993 284.258625 
z
" style="fill:#d3d3d3;stroke:#000000;stroke-linejoin:miter;"/>
   </g>
   <g id="patch_82">
    <path clip-path="url(#pa93f758dc5)" d="M 317.337795 284.258625 
L 320.650596 284.258625 
L 320.650596 284.218895 
L 317.337795 284.218895 
z
" style="fill:#d3d3d3;stroke:#000000;stroke-linejoin:miter;"/>
   </g>
   <g id="patch_83">
    <path clip-path="url(#pa93f758dc5)" d="M 320.650596 284.258625 
L 323.963397 284.258625 
L 323.963397 284.218895 
L 320.650596 284.218895 
z
" style="fill:#d3d3d3;stroke:#000000;stroke-linejoin:miter;"/>
   </g>
   <g id="patch_84">
    <path clip-path="url(#pa93f758dc5)" d="M 323.963397 284.258625 
L 327.276199 284.258625 
L 327.276199 284.258625 
L 323.963397 284.258625 
z
" style="fill:#d3d3d3;stroke:#000000;stroke-linejoin:miter;"/>
   </g>
   <g id="patch_85">
    <path clip-path="url(#pa93f758dc5)" d="M 327.276199 284.258625 
L 330.589 284.258625 
L 330.589 284.258625 
L 327.276199 284.258625 
z
" style="fill:#d3d3d3;stroke:#000000;stroke-linejoin:miter;"/>
   </g>
   <g id="patch_86">
    <path clip-path="url(#pa93f758dc5)" d="M 330.589 284.258625 
L 333.901802 284.258625 
L 333.901802 284.258625 
L 330.589 284.258625 
z
" style="fill:#d3d3d3;stroke:#000000;stroke-linejoin:miter;"/>
   </g>
   <g id="patch_87">
    <path clip-path="url(#pa93f758dc5)" d="M 333.901802 284.258625 
L 337.214603 284.258625 
L 337.214603 284.258625 
L 333.901802 284.258625 
z
" style="fill:#d3d3d3;stroke:#000000;stroke-linejoin:miter;"/>
   </g>
   <g id="patch_88">
    <path clip-path="url(#pa93f758dc5)" d="M 337.214603 284.258625 
L 340.527405 284.258625 
L 340.527405 284.258625 
L 337.214603 284.258625 
z
" style="fill:#d3d3d3;stroke:#000000;stroke-linejoin:miter;"/>
   </g>
   <g id="patch_89">
    <path clip-path="url(#pa93f758dc5)" d="M 340.527405 284.258625 
L 343.840206 284.258625 
L 343.840206 284.258625 
L 340.527405 284.258625 
z
" style="fill:#d3d3d3;stroke:#000000;stroke-linejoin:miter;"/>
   </g>
   <g id="patch_90">
    <path clip-path="url(#pa93f758dc5)" d="M 343.840206 284.258625 
L 347.153008 284.258625 
L 347.153008 284.258625 
L 343.840206 284.258625 
z
" style="fill:#d3d3d3;stroke:#000000;stroke-linejoin:miter;"/>
   </g>
   <g id="patch_91">
    <path clip-path="url(#pa93f758dc5)" d="M 347.153008 284.258625 
L 350.465809 284.258625 
L 350.465809 284.258625 
L 347.153008 284.258625 
z
" style="fill:#d3d3d3;stroke:#000000;stroke-linejoin:miter;"/>
   </g>
   <g id="patch_92">
    <path clip-path="url(#pa93f758dc5)" d="M 350.465809 284.258625 
L 353.778611 284.258625 
L 353.778611 284.258625 
L 350.465809 284.258625 
z
" style="fill:#d3d3d3;stroke:#000000;stroke-linejoin:miter;"/>
   </g>
   <g id="patch_93">
    <path clip-path="url(#pa93f758dc5)" d="M 353.778611 284.258625 
L 357.091412 284.258625 
L 357.091412 284.258625 
L 353.778611 284.258625 
z
" style="fill:#d3d3d3;stroke:#000000;stroke-linejoin:miter;"/>
   </g>
   <g id="patch_94">
    <path clip-path="url(#pa93f758dc5)" d="M 357.091412 284.258625 
L 360.404214 284.258625 
L 360.404214 284.258625 
L 357.091412 284.258625 
z
" style="fill:#d3d3d3;stroke:#000000;stroke-linejoin:miter;"/>
   </g>
   <g id="patch_95">
    <path clip-path="url(#pa93f758dc5)" d="M 360.404214 284.258625 
L 363.717015 284.258625 
L 363.717015 284.258625 
L 360.404214 284.258625 
z
" style="fill:#d3d3d3;stroke:#000000;stroke-linejoin:miter;"/>
   </g>
   <g id="patch_96">
    <path clip-path="url(#pa93f758dc5)" d="M 363.717015 284.258625 
L 367.029817 284.258625 
L 367.029817 284.258625 
L 363.717015 284.258625 
z
" style="fill:#d3d3d3;stroke:#000000;stroke-linejoin:miter;"/>
   </g>
   <g id="patch_97">
    <path clip-path="url(#pa93f758dc5)" d="M 367.029817 284.258625 
L 370.342618 284.258625 
L 370.342618 284.258625 
L 367.029817 284.258625 
z
" style="fill:#d3d3d3;stroke:#000000;stroke-linejoin:miter;"/>
   </g>
   <g id="patch_98">
    <path clip-path="url(#pa93f758dc5)" d="M 370.342618 284.258625 
L 373.65542 284.258625 
L 373.65542 284.258625 
L 370.342618 284.258625 
z
" style="fill:#d3d3d3;stroke:#000000;stroke-linejoin:miter;"/>
   </g>
   <g id="patch_99">
    <path clip-path="url(#pa93f758dc5)" d="M 373.65542 284.258625 
L 376.968221 284.258625 
L 376.968221 284.258625 
L 373.65542 284.258625 
z
" style="fill:#d3d3d3;stroke:#000000;stroke-linejoin:miter;"/>
   </g>
   <g id="patch_100">
    <path clip-path="url(#pa93f758dc5)" d="M 376.968221 284.258625 
L 380.281023 284.258625 
L 380.281023 284.218895 
L 376.968221 284.218895 
z
" style="fill:#d3d3d3;stroke:#000000;stroke-linejoin:miter;"/>
   </g>
   <g id="matplotlib.axis_1">
    <g id="xtick_1">
     <g id="line2d_1">
      <defs>
       <path d="M 0 0 
L 0 3.5 
" id="me47aa042ef" style="stroke:#000000;stroke-width:0.8;"/>
      </defs>
      <g>
       <use style="stroke:#000000;stroke-width:0.8;" x="75.503286" xlink:href="#me47aa042ef" y="284.258625"/>
      </g>
     </g>
     <g id="text_1">
      <!-- −20 -->
      <g transform="translate(65.813442 298.74925)scale(0.1 -0.1)">
       <defs>
        <path d="M 6.5 34.71875 
L 61.28125 34.71875 
L 61.28125 29 
L 6.5 29 
z
" id="IPAexGothic-8722"/>
        <path d="M 57.171875 0.984375 
L 6.984375 0.984375 
L 6.984375 9.28125 
Q 12.890625 23.046875 29.59375 34.421875 
L 32.375 36.28125 
Q 40.921875 42.140625 43.609375 45.40625 
Q 46.6875 49.265625 46.6875 53.8125 
Q 46.6875 58.9375 43.0625 62.546875 
Q 39.0625 66.546875 32.5625 66.546875 
Q 19.53125 66.546875 15.484375 52 
L 7.765625 54.78125 
Q 13.328125 73.828125 33.0625 73.828125 
Q 43.84375 73.828125 50.25 67.4375 
Q 55.859375 61.671875 55.859375 53.515625 
Q 55.859375 47.46875 52.25 42.53125 
Q 48.921875 37.75 36.96875 30.28125 
L 34.859375 29 
Q 19.625 19.578125 15.28125 8.890625 
L 57.171875 8.890625 
z
" id="IPAexGothic-50"/>
        <path d="M 31.84375 73.828125 
Q 45.015625 73.828125 52.09375 61.625 
Q 57.71875 51.953125 57.71875 36.625 
Q 57.71875 21.4375 52.09375 11.578125 
Q 45.125 -0.484375 31.5 -0.484375 
Q 17.921875 -0.484375 10.9375 11.578125 
Q 5.328125 21.4375 5.328125 36.71875 
Q 5.328125 58.015625 15.625 67.71875 
Q 22.171875 73.828125 31.84375 73.828125 
z
M 31.5 66.65625 
Q 23.6875 66.65625 19.1875 58.734375 
Q 14.59375 50.734375 14.59375 36.625 
Q 14.59375 22.75 19.09375 14.796875 
Q 23.640625 6.984375 31.5 6.984375 
Q 40.921875 6.984375 45.453125 18.015625 
Q 48.4375 25.34375 48.4375 37.109375 
Q 48.4375 50.875 43.84375 58.734375 
Q 39.203125 66.65625 31.5 66.65625 
z
" id="IPAexGothic-48"/>
       </defs>
       <use xlink:href="#IPAexGothic-8722"/>
       <use x="67.822266" xlink:href="#IPAexGothic-50"/>
       <use x="130.810547" xlink:href="#IPAexGothic-48"/>
      </g>
     </g>
    </g>
    <g id="xtick_2">
     <g id="line2d_2">
      <g>
       <use style="stroke:#000000;stroke-width:0.8;" x="141.759316" xlink:href="#me47aa042ef" y="284.258625"/>
      </g>
     </g>
     <g id="text_2">
      <!-- 0 -->
      <g transform="translate(138.610097 298.74925)scale(0.1 -0.1)">
       <use xlink:href="#IPAexGothic-48"/>
      </g>
     </g>
    </g>
    <g id="xtick_3">
     <g id="line2d_3">
      <g>
       <use style="stroke:#000000;stroke-width:0.8;" x="208.015346" xlink:href="#me47aa042ef" y="284.258625"/>
      </g>
     </g>
     <g id="text_3">
      <!-- 20 -->
      <g transform="translate(201.716908 298.74925)scale(0.1 -0.1)">
       <use xlink:href="#IPAexGothic-50"/>
       <use x="62.988281" xlink:href="#IPAexGothic-48"/>
      </g>
     </g>
    </g>
    <g id="xtick_4">
     <g id="line2d_4">
      <g>
       <use style="stroke:#000000;stroke-width:0.8;" x="274.271375" xlink:href="#me47aa042ef" y="284.258625"/>
      </g>
     </g>
     <g id="text_4">
      <!-- 40 -->
      <g transform="translate(267.972938 298.74925)scale(0.1 -0.1)">
       <defs>
        <path d="M 59.578125 18.109375 
L 47.796875 18.109375 
L 47.796875 0.984375 
L 39.796875 0.984375 
L 39.796875 18.109375 
L 3.078125 18.109375 
L 3.078125 26.125 
L 38.375 73.09375 
L 47.796875 73.09375 
L 47.796875 25.53125 
L 59.578125 25.53125 
z
M 40.28125 64.203125 
L 39.984375 64.203125 
Q 35.59375 57.125 31.296875 51.3125 
L 11.859375 25.53125 
L 39.796875 25.53125 
L 39.796875 49.125 
Q 39.796875 54.390625 40.28125 64.203125 
z
" id="IPAexGothic-52"/>
       </defs>
       <use xlink:href="#IPAexGothic-52"/>
       <use x="62.988281" xlink:href="#IPAexGothic-48"/>
      </g>
     </g>
    </g>
    <g id="xtick_5">
     <g id="line2d_5">
      <g>
       <use style="stroke:#000000;stroke-width:0.8;" x="340.527405" xlink:href="#me47aa042ef" y="284.258625"/>
      </g>
     </g>
     <g id="text_5">
      <!-- 60 -->
      <g transform="translate(334.228967 298.74925)scale(0.1 -0.1)">
       <defs>
        <path d="M 16.5 36.375 
Q 23.578125 46.578125 34.90625 46.578125 
Q 45.40625 46.578125 51.8125 39.265625 
Q 57.421875 32.90625 57.421875 23.78125 
Q 57.421875 13.8125 51.125 6.78125 
Q 44.578125 -0.484375 34.03125 -0.484375 
Q 21.484375 -0.484375 14.40625 9.078125 
Q 7.515625 18.40625 7.515625 34.8125 
Q 7.515625 53.515625 15.828125 64.203125 
Q 23.34375 73.828125 35.5 73.828125 
Q 49.859375 73.828125 56.390625 62.890625 
L 49.21875 58.984375 
Q 45.21875 66.65625 35.9375 66.65625 
Q 17.484375 66.65625 16.109375 36.375 
z
M 33.453125 39.796875 
Q 26.3125 39.796875 21.625 34.46875 
Q 17.4375 29.6875 17.4375 24.078125 
Q 17.4375 18.0625 21.140625 13.1875 
Q 26.125 6.6875 33.734375 6.6875 
Q 41.703125 6.6875 45.953125 13.1875 
Q 48.828125 17.625 48.828125 23.484375 
Q 48.828125 30.375 45.015625 34.8125 
Q 40.625 39.796875 33.453125 39.796875 
z
" id="IPAexGothic-54"/>
       </defs>
       <use xlink:href="#IPAexGothic-54"/>
       <use x="62.988281" xlink:href="#IPAexGothic-48"/>
      </g>
     </g>
    </g>
   </g>
   <g id="matplotlib.axis_2">
    <g id="ytick_1">
     <g id="line2d_6">
      <defs>
       <path d="M 0 0 
L -3.5 0 
" id="m3843be48d0" style="stroke:#000000;stroke-width:0.8;"/>
      </defs>
      <g>
       <use style="stroke:#000000;stroke-width:0.8;" x="39.39375" xlink:href="#m3843be48d0" y="284.258625"/>
      </g>
     </g>
     <g id="text_6">
      <!-- 0 -->
      <g transform="translate(26.095313 288.003938)scale(0.1 -0.1)">
       <use xlink:href="#IPAexGothic-48"/>
      </g>
     </g>
    </g>
    <g id="ytick_2">
     <g id="line2d_7">
      <g>
       <use style="stroke:#000000;stroke-width:0.8;" x="39.39375" xlink:href="#m3843be48d0" y="244.52826"/>
      </g>
     </g>
     <g id="text_7">
      <!-- 1000 -->
      <g transform="translate(7.2 248.273572)scale(0.1 -0.1)">
       <defs>
        <path d="M 38.484375 0.984375 
L 29.6875 0.984375 
L 29.6875 64.109375 
Q 21.4375 61.28125 12.3125 59.328125 
L 10.6875 66.109375 
Q 23.734375 69.390625 32.90625 73.921875 
L 38.484375 73.921875 
z
" id="IPAexGothic-49"/>
       </defs>
       <use xlink:href="#IPAexGothic-49"/>
       <use x="62.988281" xlink:href="#IPAexGothic-48"/>
       <use x="125.976562" xlink:href="#IPAexGothic-48"/>
       <use x="188.964844" xlink:href="#IPAexGothic-48"/>
      </g>
     </g>
    </g>
    <g id="ytick_3">
     <g id="line2d_8">
      <g>
       <use style="stroke:#000000;stroke-width:0.8;" x="39.39375" xlink:href="#m3843be48d0" y="204.797894"/>
      </g>
     </g>
     <g id="text_8">
      <!-- 2000 -->
      <g transform="translate(7.2 208.543207)scale(0.1 -0.1)">
       <use xlink:href="#IPAexGothic-50"/>
       <use x="62.988281" xlink:href="#IPAexGothic-48"/>
       <use x="125.976562" xlink:href="#IPAexGothic-48"/>
       <use x="188.964844" xlink:href="#IPAexGothic-48"/>
      </g>
     </g>
    </g>
    <g id="ytick_4">
     <g id="line2d_9">
      <g>
       <use style="stroke:#000000;stroke-width:0.8;" x="39.39375" xlink:href="#m3843be48d0" y="165.067529"/>
      </g>
     </g>
     <g id="text_9">
      <!-- 3000 -->
      <g transform="translate(7.2 168.812842)scale(0.1 -0.1)">
       <defs>
        <path d="M 37.203125 37.796875 
Q 54.78125 34.625 54.78125 19.96875 
Q 54.78125 11.1875 48.875 5.5625 
Q 42.328125 -0.484375 30.375 -0.484375 
Q 12.453125 -0.484375 4.5 13.765625 
L 11.8125 17.671875 
Q 17.328125 6.890625 30.28125 6.890625 
Q 37.890625 6.890625 42.09375 10.796875 
Q 46.09375 14.5 46.09375 20.171875 
Q 46.09375 26.859375 40.09375 30.90625 
Q 34.625 34.578125 25.6875 34.578125 
L 21.296875 34.578125 
L 21.296875 41.703125 
L 25.875 41.703125 
Q 34.859375 41.703125 39.59375 45.125 
Q 44.671875 48.734375 44.671875 54.828125 
Q 44.671875 61.46875 38.96875 64.65625 
Q 35.296875 66.84375 30.171875 66.84375 
Q 19.34375 66.84375 14.109375 55.90625 
L 6.78125 59.421875 
Q 14.015625 73.828125 30.28125 73.828125 
Q 40.578125 73.828125 46.96875 68.65625 
Q 53.375 63.578125 53.375 55.21875 
Q 53.375 47.3125 47.171875 42.28125 
Q 43.171875 39.0625 37.203125 38.1875 
z
" id="IPAexGothic-51"/>
       </defs>
       <use xlink:href="#IPAexGothic-51"/>
       <use x="62.988281" xlink:href="#IPAexGothic-48"/>
       <use x="125.976562" xlink:href="#IPAexGothic-48"/>
       <use x="188.964844" xlink:href="#IPAexGothic-48"/>
      </g>
     </g>
    </g>
    <g id="ytick_5">
     <g id="line2d_10">
      <g>
       <use style="stroke:#000000;stroke-width:0.8;" x="39.39375" xlink:href="#m3843be48d0" y="125.337164"/>
      </g>
     </g>
     <g id="text_10">
      <!-- 4000 -->
      <g transform="translate(7.2 129.082476)scale(0.1 -0.1)">
       <use xlink:href="#IPAexGothic-52"/>
       <use x="62.988281" xlink:href="#IPAexGothic-48"/>
       <use x="125.976562" xlink:href="#IPAexGothic-48"/>
       <use x="188.964844" xlink:href="#IPAexGothic-48"/>
      </g>
     </g>
    </g>
    <g id="ytick_6">
     <g id="line2d_11">
      <g>
       <use style="stroke:#000000;stroke-width:0.8;" x="39.39375" xlink:href="#m3843be48d0" y="85.606799"/>
      </g>
     </g>
     <g id="text_11">
      <!-- 5000 -->
      <g transform="translate(7.2 89.352111)scale(0.1 -0.1)">
       <defs>
        <path d="M 18.40625 40.671875 
Q 25.53125 46.296875 33.9375 46.296875 
Q 44 46.296875 50.640625 39.5 
Q 56.84375 33.015625 56.84375 23.390625 
Q 56.84375 14.65625 51.515625 8.015625 
Q 44.828125 -0.484375 31.734375 -0.484375 
Q 14.984375 -0.484375 7.328125 12.25 
L 14.65625 16.0625 
Q 20.453125 6.78125 31.453125 6.78125 
Q 38.53125 6.78125 43.265625 11.1875 
Q 48.140625 15.828125 48.140625 23.484375 
Q 48.140625 30.71875 43.84375 35.015625 
Q 39.359375 39.5 32.125 39.5 
Q 21.96875 39.5 16.75 31.6875 
L 9.234375 32.671875 
L 13.8125 72.40625 
L 53.21875 72.40625 
L 53.21875 64.890625 
L 20.953125 64.890625 
L 17.71875 40.671875 
z
" id="IPAexGothic-53"/>
       </defs>
       <use xlink:href="#IPAexGothic-53"/>
       <use x="62.988281" xlink:href="#IPAexGothic-48"/>
       <use x="125.976562" xlink:href="#IPAexGothic-48"/>
       <use x="188.964844" xlink:href="#IPAexGothic-48"/>
      </g>
     </g>
    </g>
    <g id="ytick_7">
     <g id="line2d_12">
      <g>
       <use style="stroke:#000000;stroke-width:0.8;" x="39.39375" xlink:href="#m3843be48d0" y="45.876433"/>
      </g>
     </g>
     <g id="text_12">
      <!-- 6000 -->
      <g transform="translate(7.2 49.621746)scale(0.1 -0.1)">
       <use xlink:href="#IPAexGothic-54"/>
       <use x="62.988281" xlink:href="#IPAexGothic-48"/>
       <use x="125.976562" xlink:href="#IPAexGothic-48"/>
       <use x="188.964844" xlink:href="#IPAexGothic-48"/>
      </g>
     </g>
    </g>
   </g>
   <g id="patch_101">
    <path d="M 39.39375 284.258625 
L 39.39375 18.146625 
" style="fill:none;stroke:#000000;stroke-linecap:square;stroke-linejoin:miter;stroke-width:0.8;"/>
   </g>
   <g id="patch_102">
    <path d="M 396.51375 284.258625 
L 396.51375 18.146625 
" style="fill:none;stroke:#000000;stroke-linecap:square;stroke-linejoin:miter;stroke-width:0.8;"/>
   </g>
   <g id="patch_103">
    <path d="M 39.39375 284.258625 
L 396.51375 284.258625 
" style="fill:none;stroke:#000000;stroke-linecap:square;stroke-linejoin:miter;stroke-width:0.8;"/>
   </g>
   <g id="patch_104">
    <path d="M 39.39375 18.146625 
L 396.51375 18.146625 
" style="fill:none;stroke:#000000;stroke-linecap:square;stroke-linejoin:miter;stroke-width:0.8;"/>
   </g>
   <g id="text_13">
    <!-- median: 5.0 -->
    <g transform="translate(333.354163 52.741185)scale(0.1 -0.1)">
     <defs>
      <path d="M 78.46875 0.984375 
L 69.875 0.984375 
L 69.875 32.171875 
Q 69.875 44.828125 60.109375 44.828125 
Q 55.46875 44.828125 51.609375 40.53125 
Q 48.875 37.453125 47.796875 32.859375 
L 47.796875 0.984375 
L 39.203125 0.984375 
L 39.203125 32.28125 
Q 39.203125 44.828125 29.984375 44.828125 
Q 25.09375 44.828125 21.390625 40.53125 
Q 17.390625 36.03125 17.390625 31.890625 
L 17.390625 0.984375 
L 8.796875 0.984375 
L 8.796875 50.78125 
L 16.796875 50.78125 
L 16.796875 42.1875 
Q 21.734375 51.8125 31.6875 51.8125 
Q 42.578125 51.8125 46.1875 41.359375 
Q 51.609375 51.8125 61.765625 51.8125 
Q 69.96875 51.8125 74.5625 46 
Q 78.46875 41.21875 78.46875 32.375 
z
" id="IPAexGothic-109"/>
      <path d="M 13.484375 24.90625 
Q 13.921875 16.265625 18.890625 11.28125 
Q 23.96875 6.203125 31.203125 6.203125 
Q 40.71875 6.203125 46.296875 15.09375 
L 51.90625 11.375 
Q 44.828125 -0.484375 30.171875 -0.484375 
Q 19.09375 -0.484375 11.96875 6.59375 
Q 4.78125 13.8125 4.78125 25.640625 
Q 4.78125 38.1875 12.3125 45.703125 
Q 19 52.390625 29 52.390625 
Q 38.421875 52.390625 44.78125 46.1875 
Q 51.90625 38.96875 51.90625 26.90625 
L 51.90625 24.90625 
z
M 43.0625 31.203125 
Q 42.328125 37.984375 38.28125 41.890625 
Q 34.28125 45.90625 28.8125 45.90625 
Q 22.46875 45.90625 17.96875 40.484375 
Q 14.890625 36.8125 13.96875 31.203125 
z
" id="IPAexGothic-101"/>
      <path d="M 52.984375 0.984375 
L 45.171875 0.984375 
L 45.171875 9.671875 
Q 38.140625 -0.484375 27.390625 -0.484375 
Q 18.453125 -0.484375 12.3125 5.8125 
Q 4.890625 13.1875 4.890625 25.984375 
Q 4.890625 38.53125 12.0625 45.90625 
Q 18.265625 52.203125 27.390625 52.203125 
Q 37.25 52.203125 44.484375 43.890625 
L 44.484375 74.90625 
L 52.984375 74.90625 
z
M 44.484375 20.359375 
L 44.484375 32.765625 
Q 44.484375 37.703125 38.375 42.28125 
Q 34.078125 45.40625 28.953125 45.40625 
Q 23.1875 45.40625 19.1875 41.40625 
Q 13.875 36.078125 13.875 26.21875 
Q 13.875 17.328125 18.265625 11.71875 
Q 22.515625 6.390625 28.859375 6.390625 
Q 36.28125 6.390625 41.5 13.671875 
Q 44.484375 17.71875 44.484375 20.359375 
z
" id="IPAexGothic-100"/>
      <path d="M 18.40625 61.375 
L 8.59375 61.375 
L 8.59375 71.390625 
L 18.40625 71.390625 
z
M 17.78125 0.984375 
L 9.1875 0.984375 
L 9.1875 50.78125 
L 17.78125 50.78125 
z
" id="IPAexGothic-105"/>
      <path d="M 49.3125 0.984375 
L 41.75 0.984375 
Q 39.984375 4.734375 39.546875 8.6875 
L 39.203125 8.6875 
Q 33.546875 -0.390625 22.3125 -0.390625 
Q 14.59375 -0.390625 9.71875 4.5 
Q 5.421875 8.796875 5.421875 14.984375 
Q 5.421875 30.421875 32.03125 31.203125 
L 38.71875 31.390625 
L 38.71875 33.984375 
Q 38.71875 39.203125 35.75 42.1875 
Q 32.625 45.3125 27.734375 45.3125 
Q 19.34375 45.3125 15.140625 37.15625 
L 7.71875 40.578125 
Q 14.65625 52 27.9375 52 
Q 37.109375 52 42.046875 46.875 
Q 46.625 42.28125 46.625 33.890625 
L 46.625 15.578125 
Q 46.625 6.25 49.3125 0.984375 
z
M 38.921875 25.390625 
L 33.453125 25.296875 
Q 14.109375 24.859375 14.109375 14.890625 
Q 14.109375 11.375 16.40625 9.078125 
Q 19.234375 6.296875 23.828125 6.296875 
Q 30.21875 6.296875 34.90625 10.984375 
Q 38.921875 15.140625 38.921875 21 
z
" id="IPAexGothic-97"/>
      <path d="M 52 0.984375 
L 43.40625 0.984375 
L 43.40625 31.890625 
Q 43.40625 44.578125 32.90625 44.578125 
Q 22.3125 44.578125 17.390625 31.890625 
L 17.390625 0.984375 
L 8.796875 0.984375 
L 8.796875 50.78125 
L 16.796875 50.78125 
L 16.796875 41.796875 
Q 23.828125 51.8125 34.71875 51.8125 
Q 52 51.8125 52 32.375 
z
" id="IPAexGothic-110"/>
      <path d="M 21.390625 39.984375 
L 10.5 39.984375 
L 10.5 50.78125 
L 21.390625 50.78125 
z
M 21.390625 0.984375 
L 10.5 0.984375 
L 10.5 11.765625 
L 21.390625 11.765625 
z
" id="IPAexGothic-58"/>
      <path id="IPAexGothic-32"/>
      <path d="M 18.5 0.984375 
L 7.71875 0.984375 
L 7.71875 11.765625 
L 18.5 11.765625 
z
" id="IPAexGothic-46"/>
     </defs>
     <use xlink:href="#IPAexGothic-109"/>
     <use x="87.109375" xlink:href="#IPAexGothic-101"/>
     <use x="143.994141" xlink:href="#IPAexGothic-100"/>
     <use x="206.396484" xlink:href="#IPAexGothic-105"/>
     <use x="233.398438" xlink:href="#IPAexGothic-97"/>
     <use x="288.378906" xlink:href="#IPAexGothic-110"/>
     <use x="348.779297" xlink:href="#IPAexGothic-58"/>
     <use x="380.761719" xlink:href="#IPAexGothic-32"/>
     <use x="407.763672" xlink:href="#IPAexGothic-53"/>
     <use x="470.751953" xlink:href="#IPAexGothic-46"/>
     <use x="497.167969" xlink:href="#IPAexGothic-48"/>
    </g>
   </g>
   <g id="legend_1">
    <g id="patch_105">
     <path d="M 202.12 41.279437 
L 389.51375 41.279437 
Q 391.51375 41.279437 391.51375 39.279437 
L 391.51375 25.146625 
Q 391.51375 23.146625 389.51375 23.146625 
L 202.12 23.146625 
Q 200.12 23.146625 200.12 25.146625 
L 200.12 39.279437 
Q 200.12 41.279437 202.12 41.279437 
z
" style="fill:#ffffff;opacity:0.8;stroke:#cccccc;stroke-linejoin:miter;"/>
    </g>
    <g id="patch_106">
     <path d="M 204.12 35.379437 
L 224.12 35.379437 
L 224.12 28.379437 
L 204.12 28.379437 
z
" style="fill:#d3d3d3;stroke:#000000;stroke-linejoin:miter;"/>
    </g>
    <g id="text_14">
     <!-- 確定日-発症日 (confirmed - onset) -->
     <g transform="translate(232.12 35.379437)scale(0.1 -0.1)">
      <defs>
       <path d="M 67.921875 50.296875 
Q 70.5625 55.28125 72.609375 61.8125 
L 79.296875 60.203125 
Q 76.171875 53.609375 74.21875 50.296875 
L 92 50.296875 
L 92 44.484375 
L 73.4375 44.484375 
L 73.4375 34.71875 
L 89.703125 34.71875 
L 89.703125 29.203125 
L 73.4375 29.203125 
L 73.4375 19.53125 
L 89.703125 19.53125 
L 89.703125 14.015625 
L 73.4375 14.015625 
L 73.4375 3.609375 
L 94.28125 3.609375 
L 94.28125 -2.203125 
L 54.109375 -2.203125 
L 54.109375 -6.984375 
L 47.609375 -6.984375 
L 47.609375 38.1875 
Q 43.0625 31.546875 38.8125 26.609375 
L 35.6875 32.8125 
Q 49.359375 49.953125 54.78125 64.796875 
L 45.515625 64.796875 
L 45.515625 53.515625 
L 39.203125 53.515625 
L 39.203125 70.609375 
L 56.78125 70.609375 
Q 58.59375 76.609375 60.109375 83.109375 
L 66.703125 81.890625 
Q 65.234375 75.53125 63.625 70.609375 
L 92.71875 70.609375 
L 92.71875 53.515625 
L 86.328125 53.515625 
L 86.328125 64.796875 
L 61.53125 64.796875 
Q 58.546875 56.984375 54.890625 50.296875 
z
M 67.140625 44.484375 
L 54.109375 44.484375 
L 54.109375 34.71875 
L 67.140625 34.71875 
z
M 67.140625 29.203125 
L 54.109375 29.203125 
L 54.109375 19.53125 
L 67.140625 19.53125 
z
M 67.140625 14.015625 
L 54.109375 14.015625 
L 54.109375 3.609375 
L 67.140625 3.609375 
z
M 18.109375 46 
L 35.546875 46 
L 35.546875 3.078125 
L 18.953125 3.078125 
L 18.953125 -5.125 
L 12.75 -5.125 
L 12.75 34.46875 
Q 10.15625 29.734375 6.15625 23.78125 
L 2.9375 29.984375 
Q 14.546875 47.078125 18.75 69 
L 6.34375 69 
L 6.34375 75.296875 
L 37.640625 75.296875 
L 37.640625 69 
L 25.25 69 
L 24.953125 68.015625 
Q 22.75 57.234375 18.109375 46 
z
M 18.953125 39.890625 
L 18.953125 9.1875 
L 29.34375 9.1875 
L 29.34375 39.890625 
z
" id="IPAexGothic-30906"/>
       <path d="M 53.609375 4.734375 
Q 61.421875 3.515625 73.578125 3.515625 
Q 81.109375 3.515625 94.578125 4.109375 
Q 93.171875 0.921875 92 -3.5625 
Q 81.78125 -3.90625 75.6875 -3.90625 
Q 55.765625 -3.90625 46.921875 -1.21875 
Q 35.296875 2.390625 27.34375 14.109375 
Q 22.515625 2.546875 12.59375 -7.171875 
L 7.421875 -1.171875 
Q 22.125 11.859375 26.3125 37.796875 
L 33.203125 35.984375 
Q 31.734375 27.4375 29.828125 21.1875 
Q 36.53125 10.59375 46.4375 6.5 
L 46.4375 46 
L 22.40625 46 
L 22.40625 52.390625 
L 77.484375 52.390625 
L 77.484375 46 
L 53.609375 46 
L 53.609375 31 
L 84.328125 31 
L 84.328125 24.515625 
L 53.609375 24.515625 
z
M 53.421875 69.1875 
L 89.84375 69.1875 
L 89.84375 49.46875 
L 82.421875 49.46875 
L 82.421875 62.890625 
L 17.53125 62.890625 
L 17.53125 49.46875 
L 10.109375 49.46875 
L 10.109375 69.1875 
L 45.90625 69.1875 
L 45.90625 83.015625 
L 53.421875 83.015625 
z
" id="IPAexGothic-23450"/>
       <path d="M 81.734375 75 
L 81.734375 -4.5 
L 74.125 -4.5 
L 74.125 2 
L 25.734375 2 
L 25.734375 -4.5 
L 18.109375 -4.5 
L 18.109375 75 
z
M 25.734375 68.3125 
L 25.734375 42.671875 
L 74.125 42.671875 
L 74.125 68.3125 
z
M 25.734375 35.890625 
L 25.734375 8.6875 
L 74.125 8.6875 
L 74.125 35.890625 
z
" id="IPAexGothic-26085"/>
       <path d="M 30.765625 26.609375 
L 4.984375 26.609375 
L 4.984375 34.421875 
L 30.765625 34.421875 
z
" id="IPAexGothic-45"/>
       <path d="M 73.734375 56.84375 
Q 80.609375 62.75 85.203125 68.609375 
L 91.109375 64.40625 
Q 84.46875 57.8125 78.71875 53.328125 
Q 85.9375 48.6875 95.40625 44.625 
L 90.625 38.375 
Q 81.734375 42.78125 73.53125 48.640625 
L 73.53125 43.3125 
L 64.109375 43.3125 
L 64.109375 29.984375 
L 89.890625 29.984375 
L 89.890625 23.78125 
L 64.109375 23.78125 
L 64.109375 5.609375 
Q 64.109375 2.484375 65.71875 2.046875 
Q 67.390625 1.46875 73.09375 1.46875 
Q 82.125 1.46875 83.59375 2.984375 
Q 85.0625 4.4375 85.5 11.96875 
Q 85.5 13.484375 85.59375 14.0625 
L 92.625 11.578125 
Q 92.1875 0.390625 89.703125 -2.203125 
Q 87.0625 -5.328125 72.609375 -5.328125 
Q 63.8125 -5.328125 60.9375 -4 
Q 57.03125 -2.34375 57.03125 3.328125 
L 57.03125 23.78125 
L 42.578125 23.78125 
Q 40.1875 0.53125 11.078125 -7.421875 
L 7.28125 -0.984375 
Q 33.25 5.421875 35.5 23.78125 
L 10.015625 23.78125 
L 10.015625 29.984375 
L 35.796875 29.984375 
L 35.796875 43.3125 
L 27.78125 43.3125 
L 27.78125 47.015625 
Q 19.734375 41.359375 9.078125 36.1875 
L 4.5 42.1875 
Q 16.3125 46.734375 25.984375 53.8125 
Q 19.828125 60.15625 13.484375 64.59375 
L 18.609375 69.140625 
Q 26.515625 62.59375 31.109375 58.015625 
Q 38.03125 64.0625 43.171875 72.125 
L 20.0625 72.125 
L 20.0625 78.21875 
L 54 78.21875 
Q 58.203125 71.34375 62.890625 66.3125 
Q 69.09375 71.625 74.03125 77.9375 
L 79.828125 73.734375 
Q 74.171875 67.625 67.09375 62.203125 
Q 70.40625 59.078125 73.734375 56.84375 
z
M 57.03125 43.3125 
L 42.78125 43.3125 
L 42.78125 29.984375 
L 57.03125 29.984375 
z
M 30.90625 49.3125 
L 72.515625 49.3125 
Q 58.6875 59.28125 50.59375 71 
Q 43.21875 58.890625 30.90625 49.3125 
z
" id="IPAexGothic-30330"/>
       <path d="M 63.71875 2.875 
L 95.015625 2.875 
L 95.015625 -3.515625 
L 23.96875 -3.515625 
L 23.96875 2.875 
L 37.3125 2.875 
L 37.3125 38.28125 
L 44 38.28125 
L 44 2.875 
L 56.84375 2.875 
L 56.84375 46.578125 
L 30.515625 46.578125 
L 30.515625 52.78125 
L 90.046875 52.78125 
L 90.046875 46.578125 
L 63.71875 46.578125 
L 63.71875 29.203125 
L 87.796875 29.203125 
L 87.796875 23.09375 
L 63.71875 23.09375 
z
M 60.203125 70.515625 
L 93.890625 70.515625 
L 93.890625 64.109375 
L 27.296875 64.109375 
L 27.296875 41.40625 
Q 27.296875 23.140625 24.21875 12.203125 
Q 21.390625 2.25 14.59375 -6.203125 
L 9.625 -1.171875 
Q 18.75 10.359375 20.125 27.484375 
Q 15.4375 24.125 7.078125 19.734375 
L 4 26.609375 
Q 12.3125 29.59375 20.40625 34.328125 
L 20.40625 37.890625 
L 20.40625 70.515625 
L 52.78125 70.515625 
L 52.78125 81.984375 
L 60.203125 81.984375 
z
M 12.015625 40.375 
Q 8.890625 50.78125 5.421875 57.90625 
L 11.375 60.59375 
Q 15.234375 53.859375 18.40625 43.703125 
z
" id="IPAexGothic-30151"/>
       <path d="M 30.125 -15.875 
L 25.828125 -18.21875 
Q 7.625 1.078125 7.625 29.296875 
Q 7.625 57.46875 25.828125 76.703125 
L 30.125 74.421875 
Q 15.71875 55.03125 15.71875 29.390625 
Q 15.71875 3.171875 30.125 -15.875 
z
" id="IPAexGothic-40"/>
       <path d="M 51.078125 12.25 
Q 44.28125 -0.484375 29.6875 -0.484375 
Q 19.1875 -0.484375 12.3125 6.390625 
Q 4.890625 13.921875 4.890625 25.984375 
Q 4.890625 37.9375 12.3125 45.515625 
Q 19.09375 52.296875 29.390625 52.296875 
Q 43.953125 52.296875 50.09375 39.703125 
L 43.171875 36.078125 
Q 38.8125 45.3125 29.6875 45.3125 
Q 23.6875 45.3125 19.28125 40.921875 
Q 13.765625 35.40625 13.765625 25.78125 
Q 13.765625 16.703125 19.09375 11.375 
Q 23.78125 6.6875 30.5625 6.6875 
Q 39.796875 6.6875 44.484375 15.875 
z
" id="IPAexGothic-99"/>
       <path d="M 29.984375 52.203125 
Q 40.53125 52.203125 47.75 45.125 
Q 55.171875 37.703125 55.171875 25.59375 
Q 55.171875 13.875 47.90625 6.59375 
Q 40.765625 -0.484375 29.984375 -0.484375 
Q 19.1875 -0.484375 12.203125 6.5 
Q 4.890625 13.765625 4.890625 25.875 
Q 4.890625 37.703125 12.3125 45.125 
Q 19.390625 52.203125 29.984375 52.203125 
z
M 29.984375 45.609375 
Q 23.734375 45.609375 19.390625 41.109375 
Q 13.875 35.59375 13.875 25.78125 
Q 13.875 16.109375 19.28125 10.6875 
Q 23.6875 6.296875 29.984375 6.296875 
Q 36.421875 6.296875 40.765625 10.796875 
Q 46.1875 16.21875 46.1875 26.125 
Q 46.1875 35.453125 40.671875 41.109375 
Q 36.1875 45.609375 29.984375 45.609375 
z
" id="IPAexGothic-111"/>
       <path d="M 38.375 72.21875 
L 34.8125 66.3125 
Q 31.109375 69.09375 27.203125 69.09375 
Q 18.5 69.09375 18.5 57.375 
L 18.5 50.78125 
L 32.078125 50.78125 
L 32.078125 44.671875 
L 18.5 44.671875 
L 18.5 0.984375 
L 10.015625 0.984375 
L 10.015625 44.671875 
L 1.90625 44.671875 
L 1.90625 50.78125 
L 10.015625 50.78125 
L 10.015625 57.171875 
Q 10.015625 65.4375 13.921875 70.0625 
Q 18.75 75.6875 26.703125 75.6875 
Q 33.0625 75.6875 38.375 72.21875 
z
" id="IPAexGothic-102"/>
       <path d="M 36.078125 51.8125 
L 34.578125 43.265625 
Q 32.90625 43.609375 31.59375 43.609375 
Q 25.828125 43.609375 22.078125 38.1875 
Q 17.390625 31.34375 17.390625 26.171875 
L 17.390625 0.984375 
L 8.796875 0.984375 
L 8.796875 50.78125 
L 16.890625 50.78125 
L 16.5 35.984375 
L 16.703125 35.984375 
Q 22.21875 52.203125 32.765625 52.203125 
Q 34.46875 52.203125 36.078125 51.8125 
z
" id="IPAexGothic-114"/>
       <path d="M 34.90625 39.796875 
Q 30.28125 45.796875 23.1875 45.796875 
Q 13.921875 45.796875 13.921875 38.671875 
Q 13.921875 33.640625 23.921875 30.375 
L 27.203125 29.296875 
Q 41.40625 24.65625 41.40625 13.96875 
Q 41.40625 6.78125 35.5 2.6875 
Q 30.8125 -0.484375 23.390625 -0.484375 
Q 11.96875 -0.484375 4 7.859375 
L 9.421875 12.796875 
Q 15.578125 6.203125 23.6875 6.203125 
Q 33.296875 6.203125 33.296875 13.671875 
Q 33.296875 19.34375 22.703125 23.09375 
L 19.28125 24.265625 
Q 5.90625 28.953125 5.90625 37.984375 
Q 5.90625 43.703125 9.8125 47.609375 
Q 14.5 52.296875 22.703125 52.296875 
Q 33.6875 52.296875 40.71875 44.671875 
z
" id="IPAexGothic-115"/>
       <path d="M 33.203125 3.765625 
Q 27.640625 -0.09375 21.828125 -0.09375 
Q 10.203125 -0.09375 10.203125 12.984375 
L 10.203125 44.671875 
L 3.421875 44.671875 
L 3.421875 50.78125 
L 10.203125 50.78125 
L 10.203125 61.96875 
L 18.40625 66.0625 
L 18.40625 50.78125 
L 32.234375 50.78125 
L 32.234375 44.671875 
L 18.40625 44.671875 
L 18.40625 14.15625 
Q 18.40625 6.5 23.640625 6.5 
Q 27.15625 6.5 30.328125 9.1875 
z
" id="IPAexGothic-116"/>
       <path d="M 7.28125 76.703125 
Q 25.59375 57.375 25.59375 29.296875 
Q 25.59375 1.171875 7.28125 -18.21875 
L 2.984375 -15.875 
Q 17.484375 3.375 17.484375 29.390625 
Q 17.484375 54.828125 2.984375 74.421875 
z
" id="IPAexGothic-41"/>
      </defs>
      <use xlink:href="#IPAexGothic-30906"/>
      <use x="100" xlink:href="#IPAexGothic-23450"/>
      <use x="200" xlink:href="#IPAexGothic-26085"/>
      <use x="300" xlink:href="#IPAexGothic-45"/>
      <use x="335.791016" xlink:href="#IPAexGothic-30330"/>
      <use x="435.791016" xlink:href="#IPAexGothic-30151"/>
      <use x="535.791016" xlink:href="#IPAexGothic-26085"/>
      <use x="635.791016" xlink:href="#IPAexGothic-32"/>
      <use x="662.792969" xlink:href="#IPAexGothic-40"/>
      <use x="696.09375" xlink:href="#IPAexGothic-99"/>
      <use x="750.488281" xlink:href="#IPAexGothic-111"/>
      <use x="810.888672" xlink:href="#IPAexGothic-110"/>
      <use x="871.289062" xlink:href="#IPAexGothic-102"/>
      <use x="901.904297" xlink:href="#IPAexGothic-105"/>
      <use x="928.90625" xlink:href="#IPAexGothic-114"/>
      <use x="965.917969" xlink:href="#IPAexGothic-109"/>
      <use x="1053.027344" xlink:href="#IPAexGothic-101"/>
      <use x="1109.912109" xlink:href="#IPAexGothic-100"/>
      <use x="1172.314453" xlink:href="#IPAexGothic-32"/>
      <use x="1199.316406" xlink:href="#IPAexGothic-45"/>
      <use x="1235.107422" xlink:href="#IPAexGothic-32"/>
      <use x="1262.109375" xlink:href="#IPAexGothic-111"/>
      <use x="1322.509766" xlink:href="#IPAexGothic-110"/>
      <use x="1382.910156" xlink:href="#IPAexGothic-115"/>
      <use x="1429.101562" xlink:href="#IPAexGothic-101"/>
      <use x="1485.986328" xlink:href="#IPAexGothic-116"/>
      <use x="1520.605469" xlink:href="#IPAexGothic-41"/>
     </g>
    </g>
   </g>
  </g>
  <g id="text_15">
   <!-- generated: 2020-11-30 18:07:14 -->
   <g transform="translate(238.618437 14.690625)scale(0.1 -0.1)">
    <defs>
     <path d="M 20.796875 17.96875 
Q 15.71875 17.53125 15.71875 14.0625 
Q 15.71875 9.578125 27.546875 8.984375 
L 33.296875 8.6875 
Q 51.609375 7.765625 51.609375 -4.59375 
Q 51.609375 -10.9375 45.703125 -14.984375 
Q 39.359375 -19.578125 28.03125 -19.578125 
Q 17.78125 -19.578125 11.53125 -16.0625 
Q 5.515625 -12.640625 5.515625 -6.6875 
Q 5.515625 1.3125 16.796875 3.859375 
L 16.796875 4.203125 
Q 7.90625 6.453125 7.90625 12.15625 
Q 7.90625 17.4375 15.53125 20.265625 
Q 7.125 24.609375 7.125 34.078125 
Q 7.125 41.40625 12.015625 46.296875 
Q 17.625 51.90625 27.15625 51.90625 
Q 33.203125 51.90625 37.84375 49.265625 
Q 41.40625 53.953125 50.921875 54.109375 
L 50.921875 47.078125 
Q 44.34375 46.921875 42.234375 45.90625 
Q 47.40625 40.828125 47.40625 33.890625 
Q 47.40625 27 42.71875 22.265625 
Q 37.5 17.09375 28.328125 17.09375 
Q 24.421875 17.09375 20.796875 17.96875 
z
M 27.09375 45.609375 
Q 22.015625 45.609375 18.703125 42.28125 
Q 15.4375 39.015625 15.4375 34.078125 
Q 15.4375 29.25 18.5 26.3125 
Q 21.828125 23 27.4375 23 
Q 32.71875 23 35.890625 26.21875 
Q 39.109375 29.390625 39.109375 34.421875 
Q 39.109375 39.015625 35.890625 42.1875 
Q 32.515625 45.609375 27.09375 45.609375 
z
M 27.390625 2.484375 
Q 14.109375 2.484375 14.109375 -5.71875 
Q 14.109375 -13.671875 28.125 -13.671875 
Q 37.15625 -13.671875 41.21875 -9.46875 
Q 43.3125 -7.515625 43.3125 -4.890625 
Q 43.3125 2.484375 27.390625 2.484375 
z
" id="IPAexGothic-103"/>
     <path d="M 39.703125 37.890625 
Q 57.8125 31.734375 57.8125 18.703125 
Q 57.8125 8.453125 48.4375 3.078125 
Q 41.609375 -0.875 31.5 -0.875 
Q 21.34375 -0.875 14.5 3.078125 
Q 5.421875 8.296875 5.421875 18.40625 
Q 5.421875 31.0625 22.015625 37.203125 
L 22.015625 37.5 
Q 7.515625 42.71875 7.515625 54.828125 
Q 7.515625 64.0625 15.328125 69.625 
Q 21.96875 74.3125 31.546875 74.3125 
Q 42.234375 74.3125 48.921875 68.796875 
Q 55.515625 63.578125 55.515625 55.71875 
Q 55.515625 42.28125 39.703125 38.1875 
z
M 31.59375 41.015625 
Q 46.828125 44.625 46.828125 55.125 
Q 46.828125 61.1875 41.796875 64.84375 
Q 37.703125 67.921875 31.5 67.921875 
Q 25.09375 67.921875 20.796875 64.5 
Q 16.40625 60.890625 16.40625 55.03125 
Q 16.40625 49.21875 21.09375 45.703125 
Q 23.34375 43.890625 26.90625 42.53125 
Q 31 40.875 31.59375 41.015625 
z
M 30.90625 34.515625 
Q 14.40625 30.171875 14.40625 19 
Q 14.40625 12.109375 20.515625 8.6875 
Q 25.09375 6.109375 31.390625 6.109375 
Q 40.234375 6.109375 45.015625 10.890625 
Q 48.53125 14.40625 48.53125 19.53125 
Q 48.53125 24.90625 43.65625 28.90625 
Q 40.765625 31.15625 36.71875 32.8125 
Q 31.984375 34.71875 30.90625 34.515625 
z
" id="IPAexGothic-56"/>
     <path d="M 56.203125 66.609375 
Q 34.96875 32.90625 27.78125 0.984375 
L 17.671875 0.984375 
Q 24.703125 28.65625 46.09375 64.5 
L 6.6875 64.5 
L 6.6875 72.40625 
L 56.203125 72.40625 
z
" id="IPAexGothic-55"/>
    </defs>
    <use xlink:href="#IPAexGothic-103"/>
    <use x="55.517578" xlink:href="#IPAexGothic-101"/>
    <use x="112.402344" xlink:href="#IPAexGothic-110"/>
    <use x="172.802734" xlink:href="#IPAexGothic-101"/>
    <use x="229.6875" xlink:href="#IPAexGothic-114"/>
    <use x="266.699219" xlink:href="#IPAexGothic-97"/>
    <use x="321.679688" xlink:href="#IPAexGothic-116"/>
    <use x="356.298828" xlink:href="#IPAexGothic-101"/>
    <use x="413.183594" xlink:href="#IPAexGothic-100"/>
    <use x="475.585938" xlink:href="#IPAexGothic-58"/>
    <use x="507.568359" xlink:href="#IPAexGothic-32"/>
    <use x="534.570312" xlink:href="#IPAexGothic-50"/>
    <use x="597.558594" xlink:href="#IPAexGothic-48"/>
    <use x="660.546875" xlink:href="#IPAexGothic-50"/>
    <use x="723.535156" xlink:href="#IPAexGothic-48"/>
    <use x="786.523438" xlink:href="#IPAexGothic-45"/>
    <use x="822.314453" xlink:href="#IPAexGothic-49"/>
    <use x="885.302734" xlink:href="#IPAexGothic-49"/>
    <use x="948.291016" xlink:href="#IPAexGothic-45"/>
    <use x="984.082031" xlink:href="#IPAexGothic-51"/>
    <use x="1047.070312" xlink:href="#IPAexGothic-48"/>
    <use x="1110.058594" xlink:href="#IPAexGothic-32"/>
    <use x="1137.060547" xlink:href="#IPAexGothic-49"/>
    <use x="1200.048828" xlink:href="#IPAexGothic-56"/>
    <use x="1263.037109" xlink:href="#IPAexGothic-58"/>
    <use x="1295.019531" xlink:href="#IPAexGothic-48"/>
    <use x="1358.007812" xlink:href="#IPAexGothic-55"/>
    <use x="1420.996094" xlink:href="#IPAexGothic-58"/>
    <use x="1452.978516" xlink:href="#IPAexGothic-49"/>
    <use x="1515.966797" xlink:href="#IPAexGothic-52"/>
   </g>
  </g>
 </g>
 <defs>
  <clipPath id="pa93f758dc5">
   <rect height="266.112" width="357.12" x="39.39375" y="18.146625"/>
  </clipPath>
 </defs>
</svg>
