<?xml version="1.0" encoding="utf-8" standalone="no"?>
<!DOCTYPE svg PUBLIC "-//W3C//DTD SVG 1.1//EN"
  "http://www.w3.org/Graphics/SVG/1.1/DTD/svg11.dtd">
<!-- Created with matplotlib (https://matplotlib.org/) -->
<svg height="310.29325pt" version="1.1" viewBox="0 0 409.310625 310.29325" width="409.310625pt" xmlns="http://www.w3.org/2000/svg" xmlns:xlink="http://www.w3.org/1999/xlink">
 <defs>
  <style type="text/css">
*{stroke-linecap:butt;stroke-linejoin:round;}
  </style>
 </defs>
 <g id="figure_1">
  <g id="patch_1">
   <path d="M 0 310.29325 
L 409.310625 310.29325 
L 409.310625 0 
L 0 0 
z
" style="fill:#ffffff;"/>
  </g>
  <g id="axes_1">
   <g id="patch_2">
    <path d="M 44.990625 273.312 
L 402.110625 273.312 
L 402.110625 7.2 
L 44.990625 7.2 
z
" style="fill:#ffffff;"/>
   </g>
   <g id="matplotlib.axis_1">
    <g id="xtick_1">
     <g id="line2d_1">
      <defs>
       <path d="M 0 0 
L 0 3.5 
" id="mfdf6595262" style="stroke:#000000;stroke-width:0.8;"/>
      </defs>
      <g>
       <use style="stroke:#000000;stroke-width:0.8;" x="89.8203" xlink:href="#mfdf6595262" y="273.312"/>
      </g>
     </g>
     <g id="text_1">
      <!-- $\mathdefault{10^{2}}$ -->
      <defs>
       <path d="M 38.484375 0.984375 
L 29.6875 0.984375 
L 29.6875 64.109375 
Q 21.4375 61.28125 12.3125 59.328125 
L 10.6875 66.109375 
Q 23.734375 69.390625 32.90625 73.921875 
L 38.484375 73.921875 
z
" id="IPAexGothic-49"/>
       <path d="M 31.84375 73.828125 
Q 45.015625 73.828125 52.09375 61.625 
Q 57.71875 51.953125 57.71875 36.625 
Q 57.71875 21.4375 52.09375 11.578125 
Q 45.125 -0.484375 31.5 -0.484375 
Q 17.921875 -0.484375 10.9375 11.578125 
Q 5.328125 21.4375 5.328125 36.71875 
Q 5.328125 58.015625 15.625 67.71875 
Q 22.171875 73.828125 31.84375 73.828125 
z
M 31.5 66.65625 
Q 23.6875 66.65625 19.1875 58.734375 
Q 14.59375 50.734375 14.59375 36.625 
Q 14.59375 22.75 19.09375 14.796875 
Q 23.640625 6.984375 31.5 6.984375 
Q 40.921875 6.984375 45.453125 18.015625 
Q 48.4375 25.34375 48.4375 37.109375 
Q 48.4375 50.875 43.84375 58.734375 
Q 39.203125 66.65625 31.5 66.65625 
z
" id="IPAexGothic-48"/>
       <path d="M 57.171875 0.984375 
L 6.984375 0.984375 
L 6.984375 9.28125 
Q 12.890625 23.046875 29.59375 34.421875 
L 32.375 36.28125 
Q 40.921875 42.140625 43.609375 45.40625 
Q 46.6875 49.265625 46.6875 53.8125 
Q 46.6875 58.9375 43.0625 62.546875 
Q 39.0625 66.546875 32.5625 66.546875 
Q 19.53125 66.546875 15.484375 52 
L 7.765625 54.78125 
Q 13.328125 73.828125 33.0625 73.828125 
Q 43.84375 73.828125 50.25 67.4375 
Q 55.859375 61.671875 55.859375 53.515625 
Q 55.859375 47.46875 52.25 42.53125 
Q 48.921875 37.75 36.96875 30.28125 
L 34.859375 29 
Q 19.625 19.578125 15.28125 8.890625 
L 57.171875 8.890625 
z
" id="IPAexGothic-50"/>
      </defs>
      <g transform="translate(81.1203 287.802625)scale(0.1 -0.1)">
       <use transform="translate(0 0.773438)" xlink:href="#IPAexGothic-49"/>
       <use transform="translate(62.988281 0.773438)" xlink:href="#IPAexGothic-48"/>
       <use transform="translate(126.865234 36.320312)scale(0.7)" xlink:href="#IPAexGothic-50"/>
      </g>
     </g>
    </g>
    <g id="xtick_2">
     <g id="line2d_2">
      <g>
       <use style="stroke:#000000;stroke-width:0.8;" x="188.145663" xlink:href="#mfdf6595262" y="273.312"/>
      </g>
     </g>
     <g id="text_2">
      <!-- $\mathdefault{10^{3}}$ -->
      <defs>
       <path d="M 37.203125 37.796875 
Q 54.78125 34.625 54.78125 19.96875 
Q 54.78125 11.1875 48.875 5.5625 
Q 42.328125 -0.484375 30.375 -0.484375 
Q 12.453125 -0.484375 4.5 13.765625 
L 11.8125 17.671875 
Q 17.328125 6.890625 30.28125 6.890625 
Q 37.890625 6.890625 42.09375 10.796875 
Q 46.09375 14.5 46.09375 20.171875 
Q 46.09375 26.859375 40.09375 30.90625 
Q 34.625 34.578125 25.6875 34.578125 
L 21.296875 34.578125 
L 21.296875 41.703125 
L 25.875 41.703125 
Q 34.859375 41.703125 39.59375 45.125 
Q 44.671875 48.734375 44.671875 54.828125 
Q 44.671875 61.46875 38.96875 64.65625 
Q 35.296875 66.84375 30.171875 66.84375 
Q 19.34375 66.84375 14.109375 55.90625 
L 6.78125 59.421875 
Q 14.015625 73.828125 30.28125 73.828125 
Q 40.578125 73.828125 46.96875 68.65625 
Q 53.375 63.578125 53.375 55.21875 
Q 53.375 47.3125 47.171875 42.28125 
Q 43.171875 39.0625 37.203125 38.1875 
z
" id="IPAexGothic-51"/>
      </defs>
      <g transform="translate(179.445663 287.802625)scale(0.1 -0.1)">
       <use transform="translate(0 0.773438)" xlink:href="#IPAexGothic-49"/>
       <use transform="translate(62.988281 0.773438)" xlink:href="#IPAexGothic-48"/>
       <use transform="translate(126.865234 36.320312)scale(0.7)" xlink:href="#IPAexGothic-51"/>
      </g>
     </g>
    </g>
    <g id="xtick_3">
     <g id="line2d_3">
      <g>
       <use style="stroke:#000000;stroke-width:0.8;" x="286.471025" xlink:href="#mfdf6595262" y="273.312"/>
      </g>
     </g>
     <g id="text_3">
      <!-- $\mathdefault{10^{4}}$ -->
      <defs>
       <path d="M 59.578125 18.109375 
L 47.796875 18.109375 
L 47.796875 0.984375 
L 39.796875 0.984375 
L 39.796875 18.109375 
L 3.078125 18.109375 
L 3.078125 26.125 
L 38.375 73.09375 
L 47.796875 73.09375 
L 47.796875 25.53125 
L 59.578125 25.53125 
z
M 40.28125 64.203125 
L 39.984375 64.203125 
Q 35.59375 57.125 31.296875 51.3125 
L 11.859375 25.53125 
L 39.796875 25.53125 
L 39.796875 49.125 
Q 39.796875 54.390625 40.28125 64.203125 
z
" id="IPAexGothic-52"/>
      </defs>
      <g transform="translate(277.771025 287.802625)scale(0.1 -0.1)">
       <use transform="translate(0 0.2875)" xlink:href="#IPAexGothic-49"/>
       <use transform="translate(62.988281 0.2875)" xlink:href="#IPAexGothic-48"/>
       <use transform="translate(126.865234 35.834375)scale(0.7)" xlink:href="#IPAexGothic-52"/>
      </g>
     </g>
    </g>
    <g id="xtick_4">
     <g id="line2d_4">
      <g>
       <use style="stroke:#000000;stroke-width:0.8;" x="384.796388" xlink:href="#mfdf6595262" y="273.312"/>
      </g>
     </g>
     <g id="text_4">
      <!-- $\mathdefault{10^{5}}$ -->
      <defs>
       <path d="M 18.40625 40.671875 
Q 25.53125 46.296875 33.9375 46.296875 
Q 44 46.296875 50.640625 39.5 
Q 56.84375 33.015625 56.84375 23.390625 
Q 56.84375 14.65625 51.515625 8.015625 
Q 44.828125 -0.484375 31.734375 -0.484375 
Q 14.984375 -0.484375 7.328125 12.25 
L 14.65625 16.0625 
Q 20.453125 6.78125 31.453125 6.78125 
Q 38.53125 6.78125 43.265625 11.1875 
Q 48.140625 15.828125 48.140625 23.484375 
Q 48.140625 30.71875 43.84375 35.015625 
Q 39.359375 39.5 32.125 39.5 
Q 21.96875 39.5 16.75 31.6875 
L 9.234375 32.671875 
L 13.8125 72.40625 
L 53.21875 72.40625 
L 53.21875 64.890625 
L 20.953125 64.890625 
L 17.71875 40.671875 
z
" id="IPAexGothic-53"/>
      </defs>
      <g transform="translate(376.096388 287.802625)scale(0.1 -0.1)">
       <use transform="translate(0 0.76875)" xlink:href="#IPAexGothic-49"/>
       <use transform="translate(62.988281 0.76875)" xlink:href="#IPAexGothic-48"/>
       <use transform="translate(126.865234 36.315625)scale(0.7)" xlink:href="#IPAexGothic-53"/>
      </g>
     </g>
    </g>
    <g id="xtick_5">
     <g id="line2d_5">
      <defs>
       <path d="M 0 0 
L 0 2 
" id="m2e3e85fcbf" style="stroke:#000000;stroke-width:0.6;"/>
      </defs>
      <g>
       <use style="stroke:#000000;stroke-width:0.6;" x="50.692704" xlink:href="#m2e3e85fcbf" y="273.312"/>
      </g>
     </g>
    </g>
    <g id="xtick_6">
     <g id="line2d_6">
      <g>
       <use style="stroke:#000000;stroke-width:0.6;" x="60.221416" xlink:href="#m2e3e85fcbf" y="273.312"/>
      </g>
     </g>
    </g>
    <g id="xtick_7">
     <g id="line2d_7">
      <g>
       <use style="stroke:#000000;stroke-width:0.6;" x="68.006941" xlink:href="#m2e3e85fcbf" y="273.312"/>
      </g>
     </g>
    </g>
    <g id="xtick_8">
     <g id="line2d_8">
      <g>
       <use style="stroke:#000000;stroke-width:0.6;" x="74.589509" xlink:href="#m2e3e85fcbf" y="273.312"/>
      </g>
     </g>
    </g>
    <g id="xtick_9">
     <g id="line2d_9">
      <g>
       <use style="stroke:#000000;stroke-width:0.6;" x="80.291588" xlink:href="#m2e3e85fcbf" y="273.312"/>
      </g>
     </g>
    </g>
    <g id="xtick_10">
     <g id="line2d_10">
      <g>
       <use style="stroke:#000000;stroke-width:0.6;" x="85.321178" xlink:href="#m2e3e85fcbf" y="273.312"/>
      </g>
     </g>
    </g>
    <g id="xtick_11">
     <g id="line2d_11">
      <g>
       <use style="stroke:#000000;stroke-width:0.6;" x="119.419183" xlink:href="#m2e3e85fcbf" y="273.312"/>
      </g>
     </g>
    </g>
    <g id="xtick_12">
     <g id="line2d_12">
      <g>
       <use style="stroke:#000000;stroke-width:0.6;" x="136.73342" xlink:href="#m2e3e85fcbf" y="273.312"/>
      </g>
     </g>
    </g>
    <g id="xtick_13">
     <g id="line2d_13">
      <g>
       <use style="stroke:#000000;stroke-width:0.6;" x="149.018067" xlink:href="#m2e3e85fcbf" y="273.312"/>
      </g>
     </g>
    </g>
    <g id="xtick_14">
     <g id="line2d_14">
      <g>
       <use style="stroke:#000000;stroke-width:0.6;" x="158.546779" xlink:href="#m2e3e85fcbf" y="273.312"/>
      </g>
     </g>
    </g>
    <g id="xtick_15">
     <g id="line2d_15">
      <g>
       <use style="stroke:#000000;stroke-width:0.6;" x="166.332304" xlink:href="#m2e3e85fcbf" y="273.312"/>
      </g>
     </g>
    </g>
    <g id="xtick_16">
     <g id="line2d_16">
      <g>
       <use style="stroke:#000000;stroke-width:0.6;" x="172.914871" xlink:href="#m2e3e85fcbf" y="273.312"/>
      </g>
     </g>
    </g>
    <g id="xtick_17">
     <g id="line2d_17">
      <g>
       <use style="stroke:#000000;stroke-width:0.6;" x="178.61695" xlink:href="#m2e3e85fcbf" y="273.312"/>
      </g>
     </g>
    </g>
    <g id="xtick_18">
     <g id="line2d_18">
      <g>
       <use style="stroke:#000000;stroke-width:0.6;" x="183.646541" xlink:href="#m2e3e85fcbf" y="273.312"/>
      </g>
     </g>
    </g>
    <g id="xtick_19">
     <g id="line2d_19">
      <g>
       <use style="stroke:#000000;stroke-width:0.6;" x="217.744546" xlink:href="#m2e3e85fcbf" y="273.312"/>
      </g>
     </g>
    </g>
    <g id="xtick_20">
     <g id="line2d_20">
      <g>
       <use style="stroke:#000000;stroke-width:0.6;" x="235.058783" xlink:href="#m2e3e85fcbf" y="273.312"/>
      </g>
     </g>
    </g>
    <g id="xtick_21">
     <g id="line2d_21">
      <g>
       <use style="stroke:#000000;stroke-width:0.6;" x="247.34343" xlink:href="#m2e3e85fcbf" y="273.312"/>
      </g>
     </g>
    </g>
    <g id="xtick_22">
     <g id="line2d_22">
      <g>
       <use style="stroke:#000000;stroke-width:0.6;" x="256.872142" xlink:href="#m2e3e85fcbf" y="273.312"/>
      </g>
     </g>
    </g>
    <g id="xtick_23">
     <g id="line2d_23">
      <g>
       <use style="stroke:#000000;stroke-width:0.6;" x="264.657667" xlink:href="#m2e3e85fcbf" y="273.312"/>
      </g>
     </g>
    </g>
    <g id="xtick_24">
     <g id="line2d_24">
      <g>
       <use style="stroke:#000000;stroke-width:0.6;" x="271.240234" xlink:href="#m2e3e85fcbf" y="273.312"/>
      </g>
     </g>
    </g>
    <g id="xtick_25">
     <g id="line2d_25">
      <g>
       <use style="stroke:#000000;stroke-width:0.6;" x="276.942313" xlink:href="#m2e3e85fcbf" y="273.312"/>
      </g>
     </g>
    </g>
    <g id="xtick_26">
     <g id="line2d_26">
      <g>
       <use style="stroke:#000000;stroke-width:0.6;" x="281.971904" xlink:href="#m2e3e85fcbf" y="273.312"/>
      </g>
     </g>
    </g>
    <g id="xtick_27">
     <g id="line2d_27">
      <g>
       <use style="stroke:#000000;stroke-width:0.6;" x="316.069909" xlink:href="#m2e3e85fcbf" y="273.312"/>
      </g>
     </g>
    </g>
    <g id="xtick_28">
     <g id="line2d_28">
      <g>
       <use style="stroke:#000000;stroke-width:0.6;" x="333.384146" xlink:href="#m2e3e85fcbf" y="273.312"/>
      </g>
     </g>
    </g>
    <g id="xtick_29">
     <g id="line2d_29">
      <g>
       <use style="stroke:#000000;stroke-width:0.6;" x="345.668792" xlink:href="#m2e3e85fcbf" y="273.312"/>
      </g>
     </g>
    </g>
    <g id="xtick_30">
     <g id="line2d_30">
      <g>
       <use style="stroke:#000000;stroke-width:0.6;" x="355.197505" xlink:href="#m2e3e85fcbf" y="273.312"/>
      </g>
     </g>
    </g>
    <g id="xtick_31">
     <g id="line2d_31">
      <g>
       <use style="stroke:#000000;stroke-width:0.6;" x="362.983029" xlink:href="#m2e3e85fcbf" y="273.312"/>
      </g>
     </g>
    </g>
    <g id="xtick_32">
     <g id="line2d_32">
      <g>
       <use style="stroke:#000000;stroke-width:0.6;" x="369.565597" xlink:href="#m2e3e85fcbf" y="273.312"/>
      </g>
     </g>
    </g>
    <g id="xtick_33">
     <g id="line2d_33">
      <g>
       <use style="stroke:#000000;stroke-width:0.6;" x="375.267676" xlink:href="#m2e3e85fcbf" y="273.312"/>
      </g>
     </g>
    </g>
    <g id="xtick_34">
     <g id="line2d_34">
      <g>
       <use style="stroke:#000000;stroke-width:0.6;" x="380.297266" xlink:href="#m2e3e85fcbf" y="273.312"/>
      </g>
     </g>
    </g>
    <g id="text_5">
     <!-- Confirmed -->
     <defs>
      <path d="M 68.015625 17 
Q 65.328125 10.84375 60.296875 6.6875 
Q 51.765625 -0.484375 39.984375 -0.484375 
Q 24.8125 -0.484375 14.984375 10.203125 
Q 5.90625 20.21875 5.90625 36.421875 
Q 5.90625 53.21875 15.828125 63.71875 
Q 25.296875 73.828125 39.59375 73.828125 
Q 59.578125 73.828125 67.53125 56.6875 
L 59.515625 52.984375 
Q 53.515625 66.21875 39.703125 66.21875 
Q 29.546875 66.21875 22.703125 58.5 
Q 15.53125 50.25 15.53125 36.28125 
Q 15.53125 24.21875 21.625 16.5 
Q 28.765625 7.375 40.046875 7.375 
Q 54 7.375 60.59375 20.609375 
z
" id="IPAexGothic-67"/>
      <path d="M 29.984375 52.203125 
Q 40.53125 52.203125 47.75 45.125 
Q 55.171875 37.703125 55.171875 25.59375 
Q 55.171875 13.875 47.90625 6.59375 
Q 40.765625 -0.484375 29.984375 -0.484375 
Q 19.1875 -0.484375 12.203125 6.5 
Q 4.890625 13.765625 4.890625 25.875 
Q 4.890625 37.703125 12.3125 45.125 
Q 19.390625 52.203125 29.984375 52.203125 
z
M 29.984375 45.609375 
Q 23.734375 45.609375 19.390625 41.109375 
Q 13.875 35.59375 13.875 25.78125 
Q 13.875 16.109375 19.28125 10.6875 
Q 23.6875 6.296875 29.984375 6.296875 
Q 36.421875 6.296875 40.765625 10.796875 
Q 46.1875 16.21875 46.1875 26.125 
Q 46.1875 35.453125 40.671875 41.109375 
Q 36.1875 45.609375 29.984375 45.609375 
z
" id="IPAexGothic-111"/>
      <path d="M 52 0.984375 
L 43.40625 0.984375 
L 43.40625 31.890625 
Q 43.40625 44.578125 32.90625 44.578125 
Q 22.3125 44.578125 17.390625 31.890625 
L 17.390625 0.984375 
L 8.796875 0.984375 
L 8.796875 50.78125 
L 16.796875 50.78125 
L 16.796875 41.796875 
Q 23.828125 51.8125 34.71875 51.8125 
Q 52 51.8125 52 32.375 
z
" id="IPAexGothic-110"/>
      <path d="M 38.375 72.21875 
L 34.8125 66.3125 
Q 31.109375 69.09375 27.203125 69.09375 
Q 18.5 69.09375 18.5 57.375 
L 18.5 50.78125 
L 32.078125 50.78125 
L 32.078125 44.671875 
L 18.5 44.671875 
L 18.5 0.984375 
L 10.015625 0.984375 
L 10.015625 44.671875 
L 1.90625 44.671875 
L 1.90625 50.78125 
L 10.015625 50.78125 
L 10.015625 57.171875 
Q 10.015625 65.4375 13.921875 70.0625 
Q 18.75 75.6875 26.703125 75.6875 
Q 33.0625 75.6875 38.375 72.21875 
z
" id="IPAexGothic-102"/>
      <path d="M 18.40625 61.375 
L 8.59375 61.375 
L 8.59375 71.390625 
L 18.40625 71.390625 
z
M 17.78125 0.984375 
L 9.1875 0.984375 
L 9.1875 50.78125 
L 17.78125 50.78125 
z
" id="IPAexGothic-105"/>
      <path d="M 36.078125 51.8125 
L 34.578125 43.265625 
Q 32.90625 43.609375 31.59375 43.609375 
Q 25.828125 43.609375 22.078125 38.1875 
Q 17.390625 31.34375 17.390625 26.171875 
L 17.390625 0.984375 
L 8.796875 0.984375 
L 8.796875 50.78125 
L 16.890625 50.78125 
L 16.5 35.984375 
L 16.703125 35.984375 
Q 22.21875 52.203125 32.765625 52.203125 
Q 34.46875 52.203125 36.078125 51.8125 
z
" id="IPAexGothic-114"/>
      <path d="M 78.46875 0.984375 
L 69.875 0.984375 
L 69.875 32.171875 
Q 69.875 44.828125 60.109375 44.828125 
Q 55.46875 44.828125 51.609375 40.53125 
Q 48.875 37.453125 47.796875 32.859375 
L 47.796875 0.984375 
L 39.203125 0.984375 
L 39.203125 32.28125 
Q 39.203125 44.828125 29.984375 44.828125 
Q 25.09375 44.828125 21.390625 40.53125 
Q 17.390625 36.03125 17.390625 31.890625 
L 17.390625 0.984375 
L 8.796875 0.984375 
L 8.796875 50.78125 
L 16.796875 50.78125 
L 16.796875 42.1875 
Q 21.734375 51.8125 31.6875 51.8125 
Q 42.578125 51.8125 46.1875 41.359375 
Q 51.609375 51.8125 61.765625 51.8125 
Q 69.96875 51.8125 74.5625 46 
Q 78.46875 41.21875 78.46875 32.375 
z
" id="IPAexGothic-109"/>
      <path d="M 13.484375 24.90625 
Q 13.921875 16.265625 18.890625 11.28125 
Q 23.96875 6.203125 31.203125 6.203125 
Q 40.71875 6.203125 46.296875 15.09375 
L 51.90625 11.375 
Q 44.828125 -0.484375 30.171875 -0.484375 
Q 19.09375 -0.484375 11.96875 6.59375 
Q 4.78125 13.8125 4.78125 25.640625 
Q 4.78125 38.1875 12.3125 45.703125 
Q 19 52.390625 29 52.390625 
Q 38.421875 52.390625 44.78125 46.1875 
Q 51.90625 38.96875 51.90625 26.90625 
L 51.90625 24.90625 
z
M 43.0625 31.203125 
Q 42.328125 37.984375 38.28125 41.890625 
Q 34.28125 45.90625 28.8125 45.90625 
Q 22.46875 45.90625 17.96875 40.484375 
Q 14.890625 36.8125 13.96875 31.203125 
z
" id="IPAexGothic-101"/>
      <path d="M 52.984375 0.984375 
L 45.171875 0.984375 
L 45.171875 9.671875 
Q 38.140625 -0.484375 27.390625 -0.484375 
Q 18.453125 -0.484375 12.3125 5.8125 
Q 4.890625 13.1875 4.890625 25.984375 
Q 4.890625 38.53125 12.0625 45.90625 
Q 18.265625 52.203125 27.390625 52.203125 
Q 37.25 52.203125 44.484375 43.890625 
L 44.484375 74.90625 
L 52.984375 74.90625 
z
M 44.484375 20.359375 
L 44.484375 32.765625 
Q 44.484375 37.703125 38.375 42.28125 
Q 34.078125 45.40625 28.953125 45.40625 
Q 23.1875 45.40625 19.1875 41.40625 
Q 13.875 36.078125 13.875 26.21875 
Q 13.875 17.328125 18.265625 11.71875 
Q 22.515625 6.390625 28.859375 6.390625 
Q 36.28125 6.390625 41.5 13.671875 
Q 44.484375 17.71875 44.484375 20.359375 
z
" id="IPAexGothic-100"/>
     </defs>
     <g transform="translate(198.832656 301.19325)scale(0.1 -0.1)">
      <use xlink:href="#IPAexGothic-67"/>
      <use x="72.509766" xlink:href="#IPAexGothic-111"/>
      <use x="132.910156" xlink:href="#IPAexGothic-110"/>
      <use x="193.310547" xlink:href="#IPAexGothic-102"/>
      <use x="223.925781" xlink:href="#IPAexGothic-105"/>
      <use x="250.927734" xlink:href="#IPAexGothic-114"/>
      <use x="287.939453" xlink:href="#IPAexGothic-109"/>
      <use x="375.048828" xlink:href="#IPAexGothic-101"/>
      <use x="431.933594" xlink:href="#IPAexGothic-100"/>
     </g>
    </g>
   </g>
   <g id="matplotlib.axis_2">
    <g id="ytick_1">
     <g id="line2d_35">
      <defs>
       <path d="M 0 0 
L -3.5 0 
" id="m394cf0b17d" style="stroke:#000000;stroke-width:0.8;"/>
      </defs>
      <g>
       <use style="stroke:#000000;stroke-width:0.8;" x="44.990625" xlink:href="#m394cf0b17d" y="261.216"/>
      </g>
     </g>
     <g id="text_6">
      <!-- $\mathdefault{10^{0}}$ -->
      <g transform="translate(20.590625 264.961312)scale(0.1 -0.1)">
       <use transform="translate(0 0.773438)" xlink:href="#IPAexGothic-49"/>
       <use transform="translate(62.988281 0.773438)" xlink:href="#IPAexGothic-48"/>
       <use transform="translate(126.865234 36.320312)scale(0.7)" xlink:href="#IPAexGothic-48"/>
      </g>
     </g>
    </g>
    <g id="ytick_2">
     <g id="line2d_36">
      <g>
       <use style="stroke:#000000;stroke-width:0.8;" x="44.990625" xlink:href="#m394cf0b17d" y="193.76497"/>
      </g>
     </g>
     <g id="text_7">
      <!-- $\mathdefault{10^{1}}$ -->
      <g transform="translate(20.590625 197.510282)scale(0.1 -0.1)">
       <use transform="translate(0 0.707813)" xlink:href="#IPAexGothic-49"/>
       <use transform="translate(62.988281 0.707813)" xlink:href="#IPAexGothic-48"/>
       <use transform="translate(126.865234 36.254688)scale(0.7)" xlink:href="#IPAexGothic-49"/>
      </g>
     </g>
    </g>
    <g id="ytick_3">
     <g id="line2d_37">
      <g>
       <use style="stroke:#000000;stroke-width:0.8;" x="44.990625" xlink:href="#m394cf0b17d" y="126.313939"/>
      </g>
     </g>
     <g id="text_8">
      <!-- $\mathdefault{10^{2}}$ -->
      <g transform="translate(20.590625 130.059252)scale(0.1 -0.1)">
       <use transform="translate(0 0.773438)" xlink:href="#IPAexGothic-49"/>
       <use transform="translate(62.988281 0.773438)" xlink:href="#IPAexGothic-48"/>
       <use transform="translate(126.865234 36.320312)scale(0.7)" xlink:href="#IPAexGothic-50"/>
      </g>
     </g>
    </g>
    <g id="ytick_4">
     <g id="line2d_38">
      <g>
       <use style="stroke:#000000;stroke-width:0.8;" x="44.990625" xlink:href="#m394cf0b17d" y="58.862909"/>
      </g>
     </g>
     <g id="text_9">
      <!-- $\mathdefault{10^{3}}$ -->
      <g transform="translate(20.590625 62.608221)scale(0.1 -0.1)">
       <use transform="translate(0 0.773438)" xlink:href="#IPAexGothic-49"/>
       <use transform="translate(62.988281 0.773438)" xlink:href="#IPAexGothic-48"/>
       <use transform="translate(126.865234 36.320312)scale(0.7)" xlink:href="#IPAexGothic-51"/>
      </g>
     </g>
    </g>
    <g id="ytick_5">
     <g id="line2d_39">
      <defs>
       <path d="M 0 0 
L -2 0 
" id="mef97d84090" style="stroke:#000000;stroke-width:0.6;"/>
      </defs>
      <g>
       <use style="stroke:#000000;stroke-width:0.6;" x="44.990625" xlink:href="#mef97d84090" y="271.664297"/>
      </g>
     </g>
    </g>
    <g id="ytick_6">
     <g id="line2d_40">
      <g>
       <use style="stroke:#000000;stroke-width:0.6;" x="44.990625" xlink:href="#mef97d84090" y="267.75268"/>
      </g>
     </g>
    </g>
    <g id="ytick_7">
     <g id="line2d_41">
      <g>
       <use style="stroke:#000000;stroke-width:0.6;" x="44.990625" xlink:href="#mef97d84090" y="264.30239"/>
      </g>
     </g>
    </g>
    <g id="ytick_8">
     <g id="line2d_42">
      <g>
       <use style="stroke:#000000;stroke-width:0.6;" x="44.990625" xlink:href="#mef97d84090" y="240.911217"/>
      </g>
     </g>
    </g>
    <g id="ytick_9">
     <g id="line2d_43">
      <g>
       <use style="stroke:#000000;stroke-width:0.6;" x="44.990625" xlink:href="#mef97d84090" y="229.03368"/>
      </g>
     </g>
    </g>
    <g id="ytick_10">
     <g id="line2d_44">
      <g>
       <use style="stroke:#000000;stroke-width:0.6;" x="44.990625" xlink:href="#mef97d84090" y="220.606433"/>
      </g>
     </g>
    </g>
    <g id="ytick_11">
     <g id="line2d_45">
      <g>
       <use style="stroke:#000000;stroke-width:0.6;" x="44.990625" xlink:href="#mef97d84090" y="214.069753"/>
      </g>
     </g>
    </g>
    <g id="ytick_12">
     <g id="line2d_46">
      <g>
       <use style="stroke:#000000;stroke-width:0.6;" x="44.990625" xlink:href="#mef97d84090" y="208.728896"/>
      </g>
     </g>
    </g>
    <g id="ytick_13">
     <g id="line2d_47">
      <g>
       <use style="stroke:#000000;stroke-width:0.6;" x="44.990625" xlink:href="#mef97d84090" y="204.213266"/>
      </g>
     </g>
    </g>
    <g id="ytick_14">
     <g id="line2d_48">
      <g>
       <use style="stroke:#000000;stroke-width:0.6;" x="44.990625" xlink:href="#mef97d84090" y="200.30165"/>
      </g>
     </g>
    </g>
    <g id="ytick_15">
     <g id="line2d_49">
      <g>
       <use style="stroke:#000000;stroke-width:0.6;" x="44.990625" xlink:href="#mef97d84090" y="196.851359"/>
      </g>
     </g>
    </g>
    <g id="ytick_16">
     <g id="line2d_50">
      <g>
       <use style="stroke:#000000;stroke-width:0.6;" x="44.990625" xlink:href="#mef97d84090" y="173.460186"/>
      </g>
     </g>
    </g>
    <g id="ytick_17">
     <g id="line2d_51">
      <g>
       <use style="stroke:#000000;stroke-width:0.6;" x="44.990625" xlink:href="#mef97d84090" y="161.582649"/>
      </g>
     </g>
    </g>
    <g id="ytick_18">
     <g id="line2d_52">
      <g>
       <use style="stroke:#000000;stroke-width:0.6;" x="44.990625" xlink:href="#mef97d84090" y="153.155403"/>
      </g>
     </g>
    </g>
    <g id="ytick_19">
     <g id="line2d_53">
      <g>
       <use style="stroke:#000000;stroke-width:0.6;" x="44.990625" xlink:href="#mef97d84090" y="146.618723"/>
      </g>
     </g>
    </g>
    <g id="ytick_20">
     <g id="line2d_54">
      <g>
       <use style="stroke:#000000;stroke-width:0.6;" x="44.990625" xlink:href="#mef97d84090" y="141.277866"/>
      </g>
     </g>
    </g>
    <g id="ytick_21">
     <g id="line2d_55">
      <g>
       <use style="stroke:#000000;stroke-width:0.6;" x="44.990625" xlink:href="#mef97d84090" y="136.762236"/>
      </g>
     </g>
    </g>
    <g id="ytick_22">
     <g id="line2d_56">
      <g>
       <use style="stroke:#000000;stroke-width:0.6;" x="44.990625" xlink:href="#mef97d84090" y="132.850619"/>
      </g>
     </g>
    </g>
    <g id="ytick_23">
     <g id="line2d_57">
      <g>
       <use style="stroke:#000000;stroke-width:0.6;" x="44.990625" xlink:href="#mef97d84090" y="129.400329"/>
      </g>
     </g>
    </g>
    <g id="ytick_24">
     <g id="line2d_58">
      <g>
       <use style="stroke:#000000;stroke-width:0.6;" x="44.990625" xlink:href="#mef97d84090" y="106.009156"/>
      </g>
     </g>
    </g>
    <g id="ytick_25">
     <g id="line2d_59">
      <g>
       <use style="stroke:#000000;stroke-width:0.6;" x="44.990625" xlink:href="#mef97d84090" y="94.131619"/>
      </g>
     </g>
    </g>
    <g id="ytick_26">
     <g id="line2d_60">
      <g>
       <use style="stroke:#000000;stroke-width:0.6;" x="44.990625" xlink:href="#mef97d84090" y="85.704372"/>
      </g>
     </g>
    </g>
    <g id="ytick_27">
     <g id="line2d_61">
      <g>
       <use style="stroke:#000000;stroke-width:0.6;" x="44.990625" xlink:href="#mef97d84090" y="79.167692"/>
      </g>
     </g>
    </g>
    <g id="ytick_28">
     <g id="line2d_62">
      <g>
       <use style="stroke:#000000;stroke-width:0.6;" x="44.990625" xlink:href="#mef97d84090" y="73.826835"/>
      </g>
     </g>
    </g>
    <g id="ytick_29">
     <g id="line2d_63">
      <g>
       <use style="stroke:#000000;stroke-width:0.6;" x="44.990625" xlink:href="#mef97d84090" y="69.311206"/>
      </g>
     </g>
    </g>
    <g id="ytick_30">
     <g id="line2d_64">
      <g>
       <use style="stroke:#000000;stroke-width:0.6;" x="44.990625" xlink:href="#mef97d84090" y="65.399589"/>
      </g>
     </g>
    </g>
    <g id="ytick_31">
     <g id="line2d_65">
      <g>
       <use style="stroke:#000000;stroke-width:0.6;" x="44.990625" xlink:href="#mef97d84090" y="61.949299"/>
      </g>
     </g>
    </g>
    <g id="ytick_32">
     <g id="line2d_66">
      <g>
       <use style="stroke:#000000;stroke-width:0.6;" x="44.990625" xlink:href="#mef97d84090" y="38.558125"/>
      </g>
     </g>
    </g>
    <g id="ytick_33">
     <g id="line2d_67">
      <g>
       <use style="stroke:#000000;stroke-width:0.6;" x="44.990625" xlink:href="#mef97d84090" y="26.680588"/>
      </g>
     </g>
    </g>
    <g id="ytick_34">
     <g id="line2d_68">
      <g>
       <use style="stroke:#000000;stroke-width:0.6;" x="44.990625" xlink:href="#mef97d84090" y="18.253342"/>
      </g>
     </g>
    </g>
    <g id="ytick_35">
     <g id="line2d_69">
      <g>
       <use style="stroke:#000000;stroke-width:0.6;" x="44.990625" xlink:href="#mef97d84090" y="11.716662"/>
      </g>
     </g>
    </g>
    <g id="text_10">
     <!-- Deaths -->
     <defs>
      <path d="M 9.515625 72.40625 
L 31 72.40625 
Q 49.359375 72.40625 59.234375 63.28125 
Q 69.625 53.8125 69.625 36.8125 
Q 69.625 16.359375 54.9375 6.890625 
Q 45.703125 0.984375 30.328125 0.984375 
L 9.515625 0.984375 
z
M 18.3125 8.6875 
L 29.59375 8.6875 
Q 60.203125 8.6875 60.203125 36.8125 
Q 60.203125 64.796875 30.125 64.796875 
L 18.3125 64.796875 
z
" id="IPAexGothic-68"/>
      <path d="M 49.3125 0.984375 
L 41.75 0.984375 
Q 39.984375 4.734375 39.546875 8.6875 
L 39.203125 8.6875 
Q 33.546875 -0.390625 22.3125 -0.390625 
Q 14.59375 -0.390625 9.71875 4.5 
Q 5.421875 8.796875 5.421875 14.984375 
Q 5.421875 30.421875 32.03125 31.203125 
L 38.71875 31.390625 
L 38.71875 33.984375 
Q 38.71875 39.203125 35.75 42.1875 
Q 32.625 45.3125 27.734375 45.3125 
Q 19.34375 45.3125 15.140625 37.15625 
L 7.71875 40.578125 
Q 14.65625 52 27.9375 52 
Q 37.109375 52 42.046875 46.875 
Q 46.625 42.28125 46.625 33.890625 
L 46.625 15.578125 
Q 46.625 6.25 49.3125 0.984375 
z
M 38.921875 25.390625 
L 33.453125 25.296875 
Q 14.109375 24.859375 14.109375 14.890625 
Q 14.109375 11.375 16.40625 9.078125 
Q 19.234375 6.296875 23.828125 6.296875 
Q 30.21875 6.296875 34.90625 10.984375 
Q 38.921875 15.140625 38.921875 21 
z
" id="IPAexGothic-97"/>
      <path d="M 33.203125 3.765625 
Q 27.640625 -0.09375 21.828125 -0.09375 
Q 10.203125 -0.09375 10.203125 12.984375 
L 10.203125 44.671875 
L 3.421875 44.671875 
L 3.421875 50.78125 
L 10.203125 50.78125 
L 10.203125 61.96875 
L 18.40625 66.0625 
L 18.40625 50.78125 
L 32.234375 50.78125 
L 32.234375 44.671875 
L 18.40625 44.671875 
L 18.40625 14.15625 
Q 18.40625 6.5 23.640625 6.5 
Q 27.15625 6.5 30.328125 9.1875 
z
" id="IPAexGothic-116"/>
      <path d="M 52.296875 0.984375 
L 43.703125 0.984375 
L 43.703125 31.890625 
Q 43.703125 44.578125 33.296875 44.578125 
Q 22.609375 44.578125 17.671875 31.890625 
L 17.671875 0.984375 
L 9.078125 0.984375 
L 9.078125 74.90625 
L 17.671875 74.90625 
L 17.671875 42.28125 
Q 24.46875 51.8125 35.109375 51.8125 
Q 52.296875 51.8125 52.296875 32.375 
z
" id="IPAexGothic-104"/>
      <path d="M 34.90625 39.796875 
Q 30.28125 45.796875 23.1875 45.796875 
Q 13.921875 45.796875 13.921875 38.671875 
Q 13.921875 33.640625 23.921875 30.375 
L 27.203125 29.296875 
Q 41.40625 24.65625 41.40625 13.96875 
Q 41.40625 6.78125 35.5 2.6875 
Q 30.8125 -0.484375 23.390625 -0.484375 
Q 11.96875 -0.484375 4 7.859375 
L 9.421875 12.796875 
Q 15.578125 6.203125 23.6875 6.203125 
Q 33.296875 6.203125 33.296875 13.671875 
Q 33.296875 19.34375 22.703125 23.09375 
L 19.28125 24.265625 
Q 5.90625 28.953125 5.90625 37.984375 
Q 5.90625 43.703125 9.8125 47.609375 
Q 14.5 52.296875 22.703125 52.296875 
Q 33.6875 52.296875 40.71875 44.671875 
z
" id="IPAexGothic-115"/>
     </defs>
     <g transform="translate(14.690625 156.709125)rotate(-90)scale(0.1 -0.1)">
      <use xlink:href="#IPAexGothic-68"/>
      <use x="75.683594" xlink:href="#IPAexGothic-101"/>
      <use x="132.568359" xlink:href="#IPAexGothic-97"/>
      <use x="187.548828" xlink:href="#IPAexGothic-116"/>
      <use x="222.167969" xlink:href="#IPAexGothic-104"/>
      <use x="282.861328" xlink:href="#IPAexGothic-115"/>
     </g>
    </g>
   </g>
   <g id="line2d_70">
    <defs>
     <path d="M 0 3 
C 0.795609 3 1.55874 2.683901 2.12132 2.12132 
C 2.683901 1.55874 3 0.795609 3 0 
C 3 -0.795609 2.683901 -1.55874 2.12132 -2.12132 
C 1.55874 -2.683901 0.795609 -3 0 -3 
C -0.795609 -3 -1.55874 -2.683901 -2.12132 -2.12132 
C -2.683901 -1.55874 -3 -0.795609 -3 0 
C -3 0.795609 -2.683901 1.55874 -2.12132 2.12132 
C -1.55874 2.683901 -0.795609 3 0 3 
z
" id="m4654cdefdb" style="stroke:#1f77b4;"/>
    </defs>
    <g clip-path="url(#p3d4d621ee5)">
     <use style="fill:#1f77b4;stroke:#1f77b4;" x="375.747504" xlink:href="#m4654cdefdb" y="25.503519"/>
     <use style="fill:#1f77b4;stroke:#1f77b4;" x="273.50919" xlink:href="#m4654cdefdb" y="146.038632"/>
     <use style="fill:#1f77b4;stroke:#1f77b4;" x="157.509429" xlink:href="#m4654cdefdb" y="204.213266"/>
     <use style="fill:#1f77b4;stroke:#1f77b4;" x="78.659459" xlink:href="#m4654cdefdb" y="229.03368"/>
     <use style="fill:#1f77b4;stroke:#1f77b4;" x="273.468678" xlink:href="#m4654cdefdb" y="88.306559"/>
     <use style="fill:#1f77b4;stroke:#1f77b4;" x="192.832262" xlink:href="#m4654cdefdb" y="174.962752"/>
     <use style="fill:#1f77b4;stroke:#1f77b4;" x="165.542166" xlink:href="#m4654cdefdb" y="193.76497"/>
     <use style="fill:#1f77b4;stroke:#1f77b4;" x="141.061391" xlink:href="#m4654cdefdb" y="240.911217"/>
     <use style="fill:#1f77b4;stroke:#1f77b4;" x="133.327284" xlink:href="#m4654cdefdb" y="240.911217"/>
     <use style="fill:#1f77b4;stroke:#1f77b4;" x="131.436104" xlink:href="#m4654cdefdb" y="229.03368"/>
     <use style="fill:#1f77b4;stroke:#1f77b4;" x="268.507068" xlink:href="#m4654cdefdb" y="106.901416"/>
     <use style="fill:#1f77b4;stroke:#1f77b4;" x="68.006941" xlink:href="#m4654cdefdb" y="208.728896"/>
     <use style="fill:#1f77b4;stroke:#1f77b4;" x="122.108344" xlink:href="#m4654cdefdb" y="190.97299"/>
     <use style="fill:#1f77b4;stroke:#1f77b4;" x="172.670159" xlink:href="#m4654cdefdb" y="204.213266"/>
    </g>
   </g>
   <g id="line2d_71">
    <path clip-path="url(#p3d4d621ee5)" d="M 60.221416 241.953875 
L 384.796388 19.296 
" style="fill:none;stroke:#d3d3d3;stroke-linecap:square;stroke-width:1.5;"/>
   </g>
   <g id="line2d_72">
    <path clip-path="url(#p3d4d621ee5)" d="M 133.481166 208.728896 
L 137.995645 208.728896 
L 164.21682 178.220952 
L 180.188987 166.923506 
L 199.250527 152.432067 
L 217.423073 143.298916 
L 231.203227 132.850619 
L 252.722691 124.607032 
L 264.63631 118.181103 
L 275.509366 110.769922 
L 285.258306 104.164396 
L 293.614778 98.436444 
L 302.074682 93.743618 
L 309.723683 88.709504 
L 317.063886 83.928458 
L 324.496468 79.69978 
L 330.529408 75.639389 
L 335.074008 72.073906 
L 339.47341 68.364176 
L 342.62837 64.963448 
L 345.918934 61.657817 
L 348.466074 58.369103 
L 350.441398 55.700454 
L 352.144471 49.683761 
L 353.939072 49.406701 
L 355.243598 46.520384 
L 356.188561 43.910702 
L 369.95122 42.103775 
L 371.080561 40.526912 
L 372.09982 38.470376 
L 372.326297 36.837404 
L 372.834486 35.251399 
L 373.297028 33.85894 
L 373.658833 32.673099 
L 373.780599 30.928917 
L 374.065939 30.138203 
L 374.290988 29.572336 
L 374.530067 29.26144 
L 374.709449 28.795948 
L 374.942976 28.306756 
L 375.250592 27.947698 
L 375.360452 27.522559 
L 375.429637 27.212677 
L 375.492338 26.837239 
L 375.5682 26.534485 
L 375.645515 26.244447 
L 375.699446 25.976312 
L 375.723746 25.720056 
L 375.747504 25.503519 
" style="fill:none;stroke:#ff7f0e;stroke-linecap:square;stroke-width:1.5;"/>
    <defs>
     <path d="M -3 3 
L 3 -3 
M -3 -3 
L 3 3 
" id="mce3a51a003" style="stroke:#ff7f0e;"/>
    </defs>
    <g clip-path="url(#p3d4d621ee5)">
     <use style="fill:#ff7f0e;stroke:#ff7f0e;" x="133.481166" xlink:href="#mce3a51a003" y="208.728896"/>
     <use style="fill:#ff7f0e;stroke:#ff7f0e;" x="137.995645" xlink:href="#mce3a51a003" y="208.728896"/>
     <use style="fill:#ff7f0e;stroke:#ff7f0e;" x="164.21682" xlink:href="#mce3a51a003" y="178.220952"/>
     <use style="fill:#ff7f0e;stroke:#ff7f0e;" x="180.188987" xlink:href="#mce3a51a003" y="166.923506"/>
     <use style="fill:#ff7f0e;stroke:#ff7f0e;" x="199.250527" xlink:href="#mce3a51a003" y="152.432067"/>
     <use style="fill:#ff7f0e;stroke:#ff7f0e;" x="217.423073" xlink:href="#mce3a51a003" y="143.298916"/>
     <use style="fill:#ff7f0e;stroke:#ff7f0e;" x="231.203227" xlink:href="#mce3a51a003" y="132.850619"/>
     <use style="fill:#ff7f0e;stroke:#ff7f0e;" x="252.722691" xlink:href="#mce3a51a003" y="124.607032"/>
     <use style="fill:#ff7f0e;stroke:#ff7f0e;" x="264.63631" xlink:href="#mce3a51a003" y="118.181103"/>
     <use style="fill:#ff7f0e;stroke:#ff7f0e;" x="275.509366" xlink:href="#mce3a51a003" y="110.769922"/>
     <use style="fill:#ff7f0e;stroke:#ff7f0e;" x="285.258306" xlink:href="#mce3a51a003" y="104.164396"/>
     <use style="fill:#ff7f0e;stroke:#ff7f0e;" x="293.614778" xlink:href="#mce3a51a003" y="98.436444"/>
     <use style="fill:#ff7f0e;stroke:#ff7f0e;" x="302.074682" xlink:href="#mce3a51a003" y="93.743618"/>
     <use style="fill:#ff7f0e;stroke:#ff7f0e;" x="309.723683" xlink:href="#mce3a51a003" y="88.709504"/>
     <use style="fill:#ff7f0e;stroke:#ff7f0e;" x="317.063886" xlink:href="#mce3a51a003" y="83.928458"/>
     <use style="fill:#ff7f0e;stroke:#ff7f0e;" x="324.496468" xlink:href="#mce3a51a003" y="79.69978"/>
     <use style="fill:#ff7f0e;stroke:#ff7f0e;" x="330.529408" xlink:href="#mce3a51a003" y="75.639389"/>
     <use style="fill:#ff7f0e;stroke:#ff7f0e;" x="335.074008" xlink:href="#mce3a51a003" y="72.073906"/>
     <use style="fill:#ff7f0e;stroke:#ff7f0e;" x="339.47341" xlink:href="#mce3a51a003" y="68.364176"/>
     <use style="fill:#ff7f0e;stroke:#ff7f0e;" x="342.62837" xlink:href="#mce3a51a003" y="64.963448"/>
     <use style="fill:#ff7f0e;stroke:#ff7f0e;" x="345.918934" xlink:href="#mce3a51a003" y="61.657817"/>
     <use style="fill:#ff7f0e;stroke:#ff7f0e;" x="348.466074" xlink:href="#mce3a51a003" y="58.369103"/>
     <use style="fill:#ff7f0e;stroke:#ff7f0e;" x="350.441398" xlink:href="#mce3a51a003" y="55.700454"/>
     <use style="fill:#ff7f0e;stroke:#ff7f0e;" x="352.144471" xlink:href="#mce3a51a003" y="49.683761"/>
     <use style="fill:#ff7f0e;stroke:#ff7f0e;" x="353.939072" xlink:href="#mce3a51a003" y="49.406701"/>
     <use style="fill:#ff7f0e;stroke:#ff7f0e;" x="355.243598" xlink:href="#mce3a51a003" y="46.520384"/>
     <use style="fill:#ff7f0e;stroke:#ff7f0e;" x="356.188561" xlink:href="#mce3a51a003" y="43.910702"/>
     <use style="fill:#ff7f0e;stroke:#ff7f0e;" x="369.95122" xlink:href="#mce3a51a003" y="42.103775"/>
     <use style="fill:#ff7f0e;stroke:#ff7f0e;" x="371.080561" xlink:href="#mce3a51a003" y="40.526912"/>
     <use style="fill:#ff7f0e;stroke:#ff7f0e;" x="372.09982" xlink:href="#mce3a51a003" y="38.470376"/>
     <use style="fill:#ff7f0e;stroke:#ff7f0e;" x="372.326297" xlink:href="#mce3a51a003" y="36.837404"/>
     <use style="fill:#ff7f0e;stroke:#ff7f0e;" x="372.834486" xlink:href="#mce3a51a003" y="35.251399"/>
     <use style="fill:#ff7f0e;stroke:#ff7f0e;" x="373.297028" xlink:href="#mce3a51a003" y="33.85894"/>
     <use style="fill:#ff7f0e;stroke:#ff7f0e;" x="373.658833" xlink:href="#mce3a51a003" y="32.673099"/>
     <use style="fill:#ff7f0e;stroke:#ff7f0e;" x="373.780599" xlink:href="#mce3a51a003" y="30.928917"/>
     <use style="fill:#ff7f0e;stroke:#ff7f0e;" x="374.065939" xlink:href="#mce3a51a003" y="30.138203"/>
     <use style="fill:#ff7f0e;stroke:#ff7f0e;" x="374.290988" xlink:href="#mce3a51a003" y="29.572336"/>
     <use style="fill:#ff7f0e;stroke:#ff7f0e;" x="374.530067" xlink:href="#mce3a51a003" y="29.26144"/>
     <use style="fill:#ff7f0e;stroke:#ff7f0e;" x="374.709449" xlink:href="#mce3a51a003" y="28.795948"/>
     <use style="fill:#ff7f0e;stroke:#ff7f0e;" x="374.942976" xlink:href="#mce3a51a003" y="28.306756"/>
     <use style="fill:#ff7f0e;stroke:#ff7f0e;" x="375.250592" xlink:href="#mce3a51a003" y="27.947698"/>
     <use style="fill:#ff7f0e;stroke:#ff7f0e;" x="375.360452" xlink:href="#mce3a51a003" y="27.522559"/>
     <use style="fill:#ff7f0e;stroke:#ff7f0e;" x="375.429637" xlink:href="#mce3a51a003" y="27.212677"/>
     <use style="fill:#ff7f0e;stroke:#ff7f0e;" x="375.492338" xlink:href="#mce3a51a003" y="26.837239"/>
     <use style="fill:#ff7f0e;stroke:#ff7f0e;" x="375.5682" xlink:href="#mce3a51a003" y="26.534485"/>
     <use style="fill:#ff7f0e;stroke:#ff7f0e;" x="375.645515" xlink:href="#mce3a51a003" y="26.244447"/>
     <use style="fill:#ff7f0e;stroke:#ff7f0e;" x="375.699446" xlink:href="#mce3a51a003" y="25.976312"/>
     <use style="fill:#ff7f0e;stroke:#ff7f0e;" x="375.723746" xlink:href="#mce3a51a003" y="25.720056"/>
     <use style="fill:#ff7f0e;stroke:#ff7f0e;" x="375.747504" xlink:href="#mce3a51a003" y="25.503519"/>
    </g>
   </g>
   <g id="line2d_73">
    <path clip-path="url(#p3d4d621ee5)" d="M 42.473912 311.29325 
L 42.478008 261.216 
L 51.747132 261.216 
L 62.709625 261.216 
L 67.289241 261.216 
L 71.424938 261.216 
L 76.381471 261.216 
L 82.88039 261.216 
L 86.721374 261.216 
L 91.903745 261.216 
L 101.675775 261.216 
L 105.391349 261.216 
L 109.082204 261.216 
L 110.944899 261.216 
L 116.320258 229.03368 
L 121.502629 220.606433 
L 125.387321 214.069753 
L 127.026411 214.069753 
L 129.625722 208.728896 
L 131.916809 208.728896 
L 134.39299 208.728896 
L 139.087134 208.728896 
L 143.193807 208.728896 
L 149.863682 208.728896 
L 154.519509 208.728896 
L 157.509429 204.213266 
" style="fill:none;stroke:#2ca02c;stroke-linecap:square;stroke-width:1.5;"/>
    <defs>
     <path d="M -3 3 
L 3 -3 
M -3 -3 
L 3 3 
" id="m68dcb1249f" style="stroke:#2ca02c;"/>
    </defs>
    <g clip-path="url(#p3d4d621ee5)">
     <use style="fill:#2ca02c;stroke:#2ca02c;" x="40.67175" xlink:href="#m68dcb1249f" y="22342.114"/>
     <use style="fill:#2ca02c;stroke:#2ca02c;" x="42.478008" xlink:href="#m68dcb1249f" y="261.216"/>
     <use style="fill:#2ca02c;stroke:#2ca02c;" x="51.747132" xlink:href="#m68dcb1249f" y="261.216"/>
     <use style="fill:#2ca02c;stroke:#2ca02c;" x="62.709625" xlink:href="#m68dcb1249f" y="261.216"/>
     <use style="fill:#2ca02c;stroke:#2ca02c;" x="67.289241" xlink:href="#m68dcb1249f" y="261.216"/>
     <use style="fill:#2ca02c;stroke:#2ca02c;" x="71.424938" xlink:href="#m68dcb1249f" y="261.216"/>
     <use style="fill:#2ca02c;stroke:#2ca02c;" x="76.381471" xlink:href="#m68dcb1249f" y="261.216"/>
     <use style="fill:#2ca02c;stroke:#2ca02c;" x="82.88039" xlink:href="#m68dcb1249f" y="261.216"/>
     <use style="fill:#2ca02c;stroke:#2ca02c;" x="86.721374" xlink:href="#m68dcb1249f" y="261.216"/>
     <use style="fill:#2ca02c;stroke:#2ca02c;" x="91.903745" xlink:href="#m68dcb1249f" y="261.216"/>
     <use style="fill:#2ca02c;stroke:#2ca02c;" x="101.675775" xlink:href="#m68dcb1249f" y="261.216"/>
     <use style="fill:#2ca02c;stroke:#2ca02c;" x="105.391349" xlink:href="#m68dcb1249f" y="261.216"/>
     <use style="fill:#2ca02c;stroke:#2ca02c;" x="109.082204" xlink:href="#m68dcb1249f" y="261.216"/>
     <use style="fill:#2ca02c;stroke:#2ca02c;" x="110.944899" xlink:href="#m68dcb1249f" y="261.216"/>
     <use style="fill:#2ca02c;stroke:#2ca02c;" x="116.320258" xlink:href="#m68dcb1249f" y="229.03368"/>
     <use style="fill:#2ca02c;stroke:#2ca02c;" x="121.502629" xlink:href="#m68dcb1249f" y="220.606433"/>
     <use style="fill:#2ca02c;stroke:#2ca02c;" x="125.387321" xlink:href="#m68dcb1249f" y="214.069753"/>
     <use style="fill:#2ca02c;stroke:#2ca02c;" x="127.026411" xlink:href="#m68dcb1249f" y="214.069753"/>
     <use style="fill:#2ca02c;stroke:#2ca02c;" x="129.625722" xlink:href="#m68dcb1249f" y="208.728896"/>
     <use style="fill:#2ca02c;stroke:#2ca02c;" x="131.916809" xlink:href="#m68dcb1249f" y="208.728896"/>
     <use style="fill:#2ca02c;stroke:#2ca02c;" x="134.39299" xlink:href="#m68dcb1249f" y="208.728896"/>
     <use style="fill:#2ca02c;stroke:#2ca02c;" x="139.087134" xlink:href="#m68dcb1249f" y="208.728896"/>
     <use style="fill:#2ca02c;stroke:#2ca02c;" x="143.193807" xlink:href="#m68dcb1249f" y="208.728896"/>
     <use style="fill:#2ca02c;stroke:#2ca02c;" x="149.863682" xlink:href="#m68dcb1249f" y="208.728896"/>
     <use style="fill:#2ca02c;stroke:#2ca02c;" x="154.519509" xlink:href="#m68dcb1249f" y="208.728896"/>
     <use style="fill:#2ca02c;stroke:#2ca02c;" x="157.509429" xlink:href="#m68dcb1249f" y="204.213266"/>
    </g>
   </g>
   <g id="patch_3">
    <path d="M 44.990625 273.312 
L 44.990625 7.2 
" style="fill:none;stroke:#000000;stroke-linecap:square;stroke-linejoin:miter;stroke-width:0.8;"/>
   </g>
   <g id="patch_4">
    <path d="M 402.110625 273.312 
L 402.110625 7.2 
" style="fill:none;stroke:#000000;stroke-linecap:square;stroke-linejoin:miter;stroke-width:0.8;"/>
   </g>
   <g id="patch_5">
    <path d="M 44.990625 273.312 
L 402.110625 273.312 
" style="fill:none;stroke:#000000;stroke-linecap:square;stroke-linejoin:miter;stroke-width:0.8;"/>
   </g>
   <g id="patch_6">
    <path d="M 44.990625 7.2 
L 402.110625 7.2 
" style="fill:none;stroke:#000000;stroke-linecap:square;stroke-linejoin:miter;stroke-width:0.8;"/>
   </g>
   <g id="text_11">
    <!-- China -->
    <g transform="translate(348.188129 32.994144)scale(0.1 -0.1)">
     <use xlink:href="#IPAexGothic-67"/>
     <use x="72.509766" xlink:href="#IPAexGothic-104"/>
     <use x="133.203125" xlink:href="#IPAexGothic-105"/>
     <use x="160.205078" xlink:href="#IPAexGothic-110"/>
     <use x="220.605469" xlink:href="#IPAexGothic-97"/>
    </g>
   </g>
   <g id="text_12">
    <!-- Korea -->
    <defs>
     <path d="M 64.703125 0.984375 
L 53.328125 0.984375 
L 26.21875 36.671875 
L 18.3125 29 
L 18.3125 0.984375 
L 9.515625 0.984375 
L 9.515625 72.40625 
L 18.3125 72.40625 
L 18.3125 38.28125 
L 50 72.40625 
L 61.8125 72.40625 
L 31.890625 42.09375 
z
" id="IPAexGothic-75"/>
    </defs>
    <g transform="translate(246.120128 153.529257)scale(0.1 -0.1)">
     <use xlink:href="#IPAexGothic-75"/>
     <use x="64.599609" xlink:href="#IPAexGothic-111"/>
     <use x="125" xlink:href="#IPAexGothic-114"/>
     <use x="162.011719" xlink:href="#IPAexGothic-101"/>
     <use x="218.896484" xlink:href="#IPAexGothic-97"/>
    </g>
   </g>
   <g id="text_13">
    <!-- Japan -->
    <defs>
     <path d="M 28.421875 72.40625 
L 28.421875 19.28125 
Q 28.421875 -0.484375 11.921875 -0.484375 
Q 4.734375 -0.484375 -1.953125 3.265625 
L 1.3125 10.0625 
Q 5.90625 6.984375 10.84375 6.984375 
Q 19.53125 6.984375 19.53125 18.796875 
L 19.53125 72.40625 
z
" id="IPAexGothic-74"/>
     <path d="M 16.796875 42 
Q 23.828125 52.203125 34.46875 52.203125 
Q 43.265625 52.203125 49.5625 45.90625 
Q 56.890625 38.578125 56.890625 25.6875 
Q 56.890625 13.140625 49.65625 5.8125 
Q 43.359375 -0.484375 34.375 -0.484375 
Q 24.515625 -0.484375 17.28125 7.765625 
L 17.28125 -19 
L 8.796875 -19 
L 8.796875 50.78125 
L 16.796875 50.78125 
z
M 17.28125 30.46875 
L 17.28125 20.171875 
Q 17.28125 14.015625 23.6875 9.375 
Q 27.984375 6.296875 32.90625 6.296875 
Q 38.578125 6.296875 42.578125 10.296875 
Q 47.90625 15.578125 47.90625 25.484375 
Q 47.90625 34.375 43.5 39.984375 
Q 39.109375 45.3125 32.8125 45.3125 
Q 25.875 45.3125 20.90625 38.8125 
Q 17.28125 34.125 17.28125 30.46875 
z
" id="IPAexGothic-112"/>
    </defs>
    <g transform="translate(130.462554 211.703891)scale(0.1 -0.1)">
     <use xlink:href="#IPAexGothic-74"/>
     <use x="37.988281" xlink:href="#IPAexGothic-97"/>
     <use x="92.96875" xlink:href="#IPAexGothic-112"/>
     <use x="155.078125" xlink:href="#IPAexGothic-97"/>
     <use x="210.058594" xlink:href="#IPAexGothic-110"/>
    </g>
   </g>
   <g id="text_14">
    <!-- Australia -->
    <defs>
     <path d="M 63.375 0.984375 
L 53.8125 0.984375 
L 45.90625 22.015625 
L 17.1875 22.015625 
L 9.421875 0.984375 
L -0.09375 0.984375 
L 28.21875 72.90625 
L 35.296875 72.90625 
z
M 43.40625 29.109375 
L 36.1875 48.09375 
Q 33.203125 56.0625 31.6875 62.5 
L 31.390625 62.5 
Q 29.640625 55.671875 26.8125 48.09375 
L 19.734375 29.109375 
z
" id="IPAexGothic-65"/>
     <path d="M 51.3125 0.984375 
L 43.3125 0.984375 
L 43.3125 10.0625 
Q 35.9375 0 25.390625 0 
Q 16.75 0 11.921875 5.859375 
Q 8.109375 10.59375 8.109375 19.390625 
L 8.109375 50.78125 
L 16.703125 50.78125 
L 16.703125 19.671875 
Q 16.703125 7.28125 27.09375 7.28125 
Q 37.59375 7.28125 42.71875 20.171875 
L 42.71875 50.78125 
L 51.3125 50.78125 
z
" id="IPAexGothic-117"/>
     <path d="M 17.671875 0.984375 
L 9.078125 0.984375 
L 9.078125 74.90625 
L 17.671875 74.90625 
z
" id="IPAexGothic-108"/>
    </defs>
    <g transform="translate(78.659459 227.13368)scale(0.1 -0.1)">
     <use xlink:href="#IPAexGothic-65"/>
     <use x="63.720703" xlink:href="#IPAexGothic-117"/>
     <use x="124.121094" xlink:href="#IPAexGothic-115"/>
     <use x="170.3125" xlink:href="#IPAexGothic-116"/>
     <use x="204.931641" xlink:href="#IPAexGothic-114"/>
     <use x="241.943359" xlink:href="#IPAexGothic-97"/>
     <use x="296.923828" xlink:href="#IPAexGothic-108"/>
     <use x="323.925781" xlink:href="#IPAexGothic-105"/>
     <use x="350.927734" xlink:href="#IPAexGothic-97"/>
    </g>
   </g>
   <g id="text_15">
    <!-- Italy -->
    <defs>
     <path d="M 18.796875 0.984375 
L 9.90625 0.984375 
L 9.90625 72.40625 
L 18.796875 72.40625 
z
" id="IPAexGothic-73"/>
     <path d="M 48.78125 50.78125 
L 24.609375 -7.625 
Q 19.96875 -18.796875 8.59375 -18.796875 
L 7.46875 -18.796875 
L 5.375 -10.984375 
L 6.984375 -10.984375 
Q 15.140625 -10.984375 17.96875 -3.71875 
L 21.1875 4.296875 
L 0.59375 50.78125 
L 10.296875 50.78125 
L 21.296875 22.796875 
Q 23.875 16.015625 25.09375 12.203125 
L 25.390625 12.203125 
Q 27.34375 18.265625 29.109375 22.796875 
L 39.5 50.78125 
z
" id="IPAexGothic-121"/>
    </defs>
    <g transform="translate(253.995241 95.797184)scale(0.1 -0.1)">
     <use xlink:href="#IPAexGothic-73"/>
     <use x="28.90625" xlink:href="#IPAexGothic-116"/>
     <use x="63.525391" xlink:href="#IPAexGothic-97"/>
     <use x="118.505859" xlink:href="#IPAexGothic-108"/>
     <use x="145.507812" xlink:href="#IPAexGothic-121"/>
    </g>
   </g>
   <g id="text_16">
    <!-- France -->
    <defs>
     <path d="M 54.203125 64.703125 
L 18.3125 64.703125 
L 18.3125 41.5 
L 50.09375 41.5 
L 50.09375 34.1875 
L 18.3125 34.1875 
L 18.3125 0.984375 
L 9.515625 0.984375 
L 9.515625 72.40625 
L 54.203125 72.40625 
z
" id="IPAexGothic-70"/>
     <path d="M 51.078125 12.25 
Q 44.28125 -0.484375 29.6875 -0.484375 
Q 19.1875 -0.484375 12.3125 6.390625 
Q 4.890625 13.921875 4.890625 25.984375 
Q 4.890625 37.9375 12.3125 45.515625 
Q 19.09375 52.296875 29.390625 52.296875 
Q 43.953125 52.296875 50.09375 39.703125 
L 43.171875 36.078125 
Q 38.8125 45.3125 29.6875 45.3125 
Q 23.6875 45.3125 19.28125 40.921875 
Q 13.765625 35.40625 13.765625 25.78125 
Q 13.765625 16.703125 19.09375 11.375 
Q 23.78125 6.6875 30.5625 6.6875 
Q 39.796875 6.6875 44.484375 15.875 
z
" id="IPAexGothic-99"/>
    </defs>
    <g transform="translate(192.832262 173.062752)scale(0.1 -0.1)">
     <use xlink:href="#IPAexGothic-70"/>
     <use x="57.177734" xlink:href="#IPAexGothic-114"/>
     <use x="94.189453" xlink:href="#IPAexGothic-97"/>
     <use x="149.169922" xlink:href="#IPAexGothic-110"/>
     <use x="209.570312" xlink:href="#IPAexGothic-99"/>
     <use x="263.964844" xlink:href="#IPAexGothic-101"/>
    </g>
   </g>
   <g id="text_17">
    <!-- Spain -->
    <defs>
     <path d="M 45.609375 56.890625 
Q 40.046875 66.546875 28.953125 66.546875 
Q 22.703125 66.546875 18.953125 62.640625 
Q 16.0625 59.421875 16.0625 55.21875 
Q 16.0625 50.59375 19.78125 47.609375 
Q 22.5625 45.515625 31 42 
L 34.375 40.578125 
Q 45.703125 36.03125 49.859375 30.515625 
Q 53.46875 25.6875 53.46875 19.671875 
Q 53.46875 10.0625 46.390625 4.5 
Q 39.984375 -0.484375 30.171875 -0.484375 
Q 13.765625 -0.484375 4.890625 11.96875 
L 11.765625 17.1875 
Q 18.796875 7.171875 30.28125 7.171875 
Q 35.75 7.171875 39.59375 9.765625 
Q 44.390625 13.234375 44.390625 19 
Q 44.390625 23.484375 40.875 27 
Q 37.109375 30.609375 27 34.46875 
L 24.078125 35.59375 
Q 7.078125 42.09375 7.078125 54.390625 
Q 7.078125 62.59375 12.59375 67.921875 
Q 18.796875 73.828125 29.109375 73.828125 
Q 44.390625 73.828125 52.484375 61.8125 
z
" id="IPAexGothic-83"/>
    </defs>
    <g transform="translate(139.242166 201.255595)scale(0.1 -0.1)">
     <use xlink:href="#IPAexGothic-83"/>
     <use x="58.496094" xlink:href="#IPAexGothic-112"/>
     <use x="120.605469" xlink:href="#IPAexGothic-97"/>
     <use x="175.585938" xlink:href="#IPAexGothic-105"/>
     <use x="202.587891" xlink:href="#IPAexGothic-110"/>
    </g>
   </g>
   <g id="text_18">
    <!-- Switzerland -->
    <defs>
     <path d="M 74.5625 50.78125 
L 57.28125 0.09375 
L 51.265625 0.09375 
L 40.765625 29.984375 
Q 39.203125 34.421875 37.703125 40.96875 
L 37.40625 40.96875 
Q 36.28125 36.234375 34.1875 29.984375 
L 23.96875 0.09375 
L 17.96875 0.09375 
L 0.6875 50.78125 
L 9.671875 50.78125 
L 18.0625 23.296875 
Q 18.84375 20.796875 21.296875 11.765625 
L 21.578125 11.765625 
Q 23.046875 17.578125 24.90625 23.296875 
L 33.890625 50.78125 
L 41.5 50.78125 
L 50.875 23.296875 
Q 52.296875 19.4375 54.203125 11.765625 
L 54.5 11.765625 
Q 56.109375 18.5 57.5625 23.296875 
L 65.875 50.78125 
z
" id="IPAexGothic-119"/>
     <path d="M 43.40625 0.984375 
L 3.21875 0.984375 
L 3.21875 5.953125 
L 24.609375 33.984375 
Q 28.46875 39.0625 32.515625 43.703125 
L 32.515625 44 
L 5.71875 44 
L 5.71875 50.78125 
L 42.234375 50.78125 
L 42.234375 45.3125 
L 21.53125 17.78125 
Q 19.625 15.234375 13.625 8.15625 
L 13.625 7.859375 
L 43.40625 7.859375 
z
" id="IPAexGothic-122"/>
    </defs>
    <g transform="translate(141.061391 239.011217)scale(0.1 -0.1)">
     <use xlink:href="#IPAexGothic-83"/>
     <use x="58.496094" xlink:href="#IPAexGothic-119"/>
     <use x="133.691406" xlink:href="#IPAexGothic-105"/>
     <use x="160.693359" xlink:href="#IPAexGothic-116"/>
     <use x="195.3125" xlink:href="#IPAexGothic-122"/>
     <use x="242.626953" xlink:href="#IPAexGothic-101"/>
     <use x="299.511719" xlink:href="#IPAexGothic-114"/>
     <use x="336.523438" xlink:href="#IPAexGothic-108"/>
     <use x="363.525391" xlink:href="#IPAexGothic-97"/>
     <use x="418.505859" xlink:href="#IPAexGothic-110"/>
     <use x="478.90625" xlink:href="#IPAexGothic-100"/>
    </g>
   </g>
   <g id="text_19">
    <!-- UK -->
    <defs>
     <path d="M 65.921875 72.40625 
L 65.921875 25.484375 
Q 65.921875 15.53125 61.03125 9.28125 
Q 53.125 -0.984375 37.3125 -0.984375 
Q 21.4375 -0.984375 13.375 9.28125 
Q 8.59375 15.4375 8.59375 25.484375 
L 8.59375 72.40625 
L 17.390625 72.40625 
L 17.390625 26.5625 
Q 17.390625 17.71875 21.6875 12.984375 
Q 27.390625 6.6875 37.3125 6.6875 
Q 47.359375 6.6875 52.9375 12.984375 
Q 57.234375 17.875 57.234375 26.5625 
L 57.234375 72.40625 
z
" id="IPAexGothic-85"/>
    </defs>
    <g transform="translate(119.397596 248.401842)scale(0.1 -0.1)">
     <use xlink:href="#IPAexGothic-85"/>
     <use x="74.707031" xlink:href="#IPAexGothic-75"/>
    </g>
   </g>
   <g id="text_20">
    <!-- Netherlands -->
    <defs>
     <path d="M 66.3125 0.984375 
L 58.296875 0.984375 
L 26.515625 49.21875 
Q 22.90625 54.6875 17.828125 64.015625 
L 17.4375 64.015625 
L 17.625 59.328125 
Q 18.109375 43.796875 18.109375 38.578125 
L 18.109375 0.984375 
L 9.515625 0.984375 
L 9.515625 72.40625 
L 21.34375 72.40625 
L 48.640625 30.90625 
Q 53.953125 22.609375 58.015625 15.09375 
L 58.40625 15.09375 
Q 57.71875 29.640625 57.71875 38.578125 
L 57.71875 72.40625 
L 66.3125 72.40625 
z
" id="IPAexGothic-78"/>
    </defs>
    <g transform="translate(131.436104 227.13368)scale(0.1 -0.1)">
     <use xlink:href="#IPAexGothic-78"/>
     <use x="75.976562" xlink:href="#IPAexGothic-101"/>
     <use x="132.861328" xlink:href="#IPAexGothic-116"/>
     <use x="167.480469" xlink:href="#IPAexGothic-104"/>
     <use x="228.173828" xlink:href="#IPAexGothic-101"/>
     <use x="285.058594" xlink:href="#IPAexGothic-114"/>
     <use x="322.070312" xlink:href="#IPAexGothic-108"/>
     <use x="349.072266" xlink:href="#IPAexGothic-97"/>
     <use x="404.052734" xlink:href="#IPAexGothic-110"/>
     <use x="464.453125" xlink:href="#IPAexGothic-100"/>
     <use x="526.855469" xlink:href="#IPAexGothic-115"/>
    </g>
   </g>
   <g id="text_21">
    <!-- Iran -->
    <g transform="translate(268.507068 105.001416)scale(0.1 -0.1)">
     <use xlink:href="#IPAexGothic-73"/>
     <use x="28.90625" xlink:href="#IPAexGothic-114"/>
     <use x="65.917969" xlink:href="#IPAexGothic-97"/>
     <use x="120.898438" xlink:href="#IPAexGothic-110"/>
    </g>
   </g>
   <g id="text_22">
    <!-- Iraq -->
    <defs>
     <path d="M 53.078125 -19 
L 44.484375 -19 
L 44.484375 8.6875 
Q 38.140625 -0.484375 27.484375 -0.484375 
Q 18.453125 -0.484375 12.3125 5.8125 
Q 4.890625 13.1875 4.890625 25.875 
Q 4.890625 38.28125 12.3125 45.703125 
Q 18.796875 52.203125 28.171875 52.203125 
Q 38.625 52.203125 45.359375 43.796875 
L 46.578125 51.171875 
L 53.078125 51.171875 
z
M 44.484375 19.96875 
L 44.484375 32.671875 
Q 44.484375 35.5 41.40625 39.203125 
Q 36.234375 45.40625 29.203125 45.40625 
Q 21.96875 45.40625 17.671875 39.3125 
Q 13.875 33.984375 13.875 26.125 
Q 13.875 17.4375 18.265625 11.8125 
Q 22.609375 6.390625 28.953125 6.390625 
Q 36.46875 6.390625 41.703125 13.671875 
Q 44.484375 17.671875 44.484375 19.96875 
z
" id="IPAexGothic-113"/>
    </defs>
    <g transform="translate(68.006941 206.828896)scale(0.1 -0.1)">
     <use xlink:href="#IPAexGothic-73"/>
     <use x="28.90625" xlink:href="#IPAexGothic-114"/>
     <use x="65.917969" xlink:href="#IPAexGothic-97"/>
     <use x="120.898438" xlink:href="#IPAexGothic-113"/>
    </g>
   </g>
   <g id="text_23">
    <!-- US -->
    <g transform="translate(108.788031 198.463615)scale(0.1 -0.1)">
     <use xlink:href="#IPAexGothic-85"/>
     <use x="74.707031" xlink:href="#IPAexGothic-83"/>
    </g>
   </g>
   <g id="text_24">
    <!-- (Diamond Princess) -->
    <defs>
     <path d="M 30.125 -15.875 
L 25.828125 -18.21875 
Q 7.625 1.078125 7.625 29.296875 
Q 7.625 57.46875 25.828125 76.703125 
L 30.125 74.421875 
Q 15.71875 55.03125 15.71875 29.390625 
Q 15.71875 3.171875 30.125 -15.875 
z
" id="IPAexGothic-40"/>
     <path id="IPAexGothic-32"/>
     <path d="M 9.515625 72.40625 
L 30.328125 72.40625 
Q 57.625 72.40625 57.625 51.90625 
Q 57.625 30.21875 29.78125 30.21875 
L 18.3125 30.21875 
L 18.3125 0.984375 
L 9.515625 0.984375 
z
M 18.3125 37.203125 
L 28.125 37.203125 
Q 48.4375 37.203125 48.4375 51.8125 
Q 48.4375 65.328125 29.59375 65.328125 
L 18.3125 65.328125 
z
" id="IPAexGothic-80"/>
     <path d="M 7.28125 76.703125 
Q 25.59375 57.375 25.59375 29.296875 
Q 25.59375 1.171875 7.28125 -18.21875 
L 2.984375 -15.875 
Q 17.484375 3.375 17.484375 29.390625 
Q 17.484375 54.828125 2.984375 74.421875 
z
" id="IPAexGothic-41"/>
    </defs>
    <g transform="translate(172.670159 202.313266)scale(0.1 -0.1)">
     <use xlink:href="#IPAexGothic-40"/>
     <use x="33.300781" xlink:href="#IPAexGothic-68"/>
     <use x="108.984375" xlink:href="#IPAexGothic-105"/>
     <use x="135.986328" xlink:href="#IPAexGothic-97"/>
     <use x="190.966797" xlink:href="#IPAexGothic-109"/>
     <use x="278.076172" xlink:href="#IPAexGothic-111"/>
     <use x="338.476562" xlink:href="#IPAexGothic-110"/>
     <use x="398.876953" xlink:href="#IPAexGothic-100"/>
     <use x="461.279297" xlink:href="#IPAexGothic-32"/>
     <use x="488.28125" xlink:href="#IPAexGothic-80"/>
     <use x="550.390625" xlink:href="#IPAexGothic-114"/>
     <use x="587.402344" xlink:href="#IPAexGothic-105"/>
     <use x="614.404297" xlink:href="#IPAexGothic-110"/>
     <use x="674.804688" xlink:href="#IPAexGothic-99"/>
     <use x="729.199219" xlink:href="#IPAexGothic-101"/>
     <use x="786.083984" xlink:href="#IPAexGothic-115"/>
     <use x="832.275391" xlink:href="#IPAexGothic-115"/>
     <use x="878.466797" xlink:href="#IPAexGothic-41"/>
    </g>
   </g>
  </g>
 </g>
 <defs>
  <clipPath id="p3d4d621ee5">
   <rect height="266.112" width="357.12" x="44.990625" y="7.2"/>
  </clipPath>
 </defs>
</svg>
