<?xml version="1.0" encoding="utf-8" standalone="no"?>
<!DOCTYPE svg PUBLIC "-//W3C//DTD SVG 1.1//EN"
  "http://www.w3.org/Graphics/SVG/1.1/DTD/svg11.dtd">
<!-- Created with matplotlib (https://matplotlib.org/) -->
<svg height="309.29325pt" version="1.1" viewBox="0 0 397.415312 309.29325" width="397.415312pt" xmlns="http://www.w3.org/2000/svg" xmlns:xlink="http://www.w3.org/1999/xlink">
 <defs>
  <style type="text/css">
*{stroke-linecap:butt;stroke-linejoin:round;}
  </style>
 </defs>
 <g id="figure_1">
  <g id="patch_1">
   <path d="M 0 309.29325 
L 397.415312 309.29325 
L 397.415312 0 
L 0 0 
z
" style="fill:#ffffff;"/>
  </g>
  <g id="axes_1">
   <g id="patch_2">
    <path d="M 33.095313 273.312 
L 390.215312 273.312 
L 390.215312 7.2 
L 33.095313 7.2 
z
" style="fill:#ffffff;"/>
   </g>
   <g id="patch_3">
    <path clip-path="url(#p59d51767f7)" d="M 49.32804 273.312 
L 51.647001 273.312 
L 51.647001 272.947338 
L 49.32804 272.947338 
z
" style="fill:#1f77b4;opacity:0.5;stroke:#000000;stroke-linejoin:miter;"/>
   </g>
   <g id="patch_4">
    <path clip-path="url(#p59d51767f7)" d="M 51.647001 273.312 
L 53.965962 273.312 
L 53.965962 273.312 
L 51.647001 273.312 
z
" style="fill:#1f77b4;opacity:0.5;stroke:#000000;stroke-linejoin:miter;"/>
   </g>
   <g id="patch_5">
    <path clip-path="url(#p59d51767f7)" d="M 53.965962 273.312 
L 56.284923 273.312 
L 56.284923 273.312 
L 53.965962 273.312 
z
" style="fill:#1f77b4;opacity:0.5;stroke:#000000;stroke-linejoin:miter;"/>
   </g>
   <g id="patch_6">
    <path clip-path="url(#p59d51767f7)" d="M 56.284923 273.312 
L 58.603884 273.312 
L 58.603884 273.312 
L 56.284923 273.312 
z
" style="fill:#1f77b4;opacity:0.5;stroke:#000000;stroke-linejoin:miter;"/>
   </g>
   <g id="patch_7">
    <path clip-path="url(#p59d51767f7)" d="M 58.603884 273.312 
L 60.922845 273.312 
L 60.922845 273.312 
L 58.603884 273.312 
z
" style="fill:#1f77b4;opacity:0.5;stroke:#000000;stroke-linejoin:miter;"/>
   </g>
   <g id="patch_8">
    <path clip-path="url(#p59d51767f7)" d="M 60.922845 273.312 
L 63.241806 273.312 
L 63.241806 273.312 
L 60.922845 273.312 
z
" style="fill:#1f77b4;opacity:0.5;stroke:#000000;stroke-linejoin:miter;"/>
   </g>
   <g id="patch_9">
    <path clip-path="url(#p59d51767f7)" d="M 63.241806 273.312 
L 65.560767 273.312 
L 65.560767 273.312 
L 63.241806 273.312 
z
" style="fill:#1f77b4;opacity:0.5;stroke:#000000;stroke-linejoin:miter;"/>
   </g>
   <g id="patch_10">
    <path clip-path="url(#p59d51767f7)" d="M 65.560767 273.312 
L 67.879728 273.312 
L 67.879728 273.312 
L 65.560767 273.312 
z
" style="fill:#1f77b4;opacity:0.5;stroke:#000000;stroke-linejoin:miter;"/>
   </g>
   <g id="patch_11">
    <path clip-path="url(#p59d51767f7)" d="M 67.879728 273.312 
L 70.198689 273.312 
L 70.198689 273.312 
L 67.879728 273.312 
z
" style="fill:#1f77b4;opacity:0.5;stroke:#000000;stroke-linejoin:miter;"/>
   </g>
   <g id="patch_12">
    <path clip-path="url(#p59d51767f7)" d="M 70.198689 273.312 
L 72.51765 273.312 
L 72.51765 273.312 
L 70.198689 273.312 
z
" style="fill:#1f77b4;opacity:0.5;stroke:#000000;stroke-linejoin:miter;"/>
   </g>
   <g id="patch_13">
    <path clip-path="url(#p59d51767f7)" d="M 72.51765 273.312 
L 74.836611 273.312 
L 74.836611 273.312 
L 72.51765 273.312 
z
" style="fill:#1f77b4;opacity:0.5;stroke:#000000;stroke-linejoin:miter;"/>
   </g>
   <g id="patch_14">
    <path clip-path="url(#p59d51767f7)" d="M 74.836611 273.312 
L 77.155572 273.312 
L 77.155572 272.582676 
L 74.836611 272.582676 
z
" style="fill:#1f77b4;opacity:0.5;stroke:#000000;stroke-linejoin:miter;"/>
   </g>
   <g id="patch_15">
    <path clip-path="url(#p59d51767f7)" d="M 77.155572 273.312 
L 79.474533 273.312 
L 79.474533 273.312 
L 77.155572 273.312 
z
" style="fill:#1f77b4;opacity:0.5;stroke:#000000;stroke-linejoin:miter;"/>
   </g>
   <g id="patch_16">
    <path clip-path="url(#p59d51767f7)" d="M 79.474533 273.312 
L 81.793494 273.312 
L 81.793494 273.312 
L 79.474533 273.312 
z
" style="fill:#1f77b4;opacity:0.5;stroke:#000000;stroke-linejoin:miter;"/>
   </g>
   <g id="patch_17">
    <path clip-path="url(#p59d51767f7)" d="M 81.793494 273.312 
L 84.112455 273.312 
L 84.112455 273.312 
L 81.793494 273.312 
z
" style="fill:#1f77b4;opacity:0.5;stroke:#000000;stroke-linejoin:miter;"/>
   </g>
   <g id="patch_18">
    <path clip-path="url(#p59d51767f7)" d="M 84.112455 273.312 
L 86.431416 273.312 
L 86.431416 273.312 
L 84.112455 273.312 
z
" style="fill:#1f77b4;opacity:0.5;stroke:#000000;stroke-linejoin:miter;"/>
   </g>
   <g id="patch_19">
    <path clip-path="url(#p59d51767f7)" d="M 86.431416 273.312 
L 88.750377 273.312 
L 88.750377 273.312 
L 86.431416 273.312 
z
" style="fill:#1f77b4;opacity:0.5;stroke:#000000;stroke-linejoin:miter;"/>
   </g>
   <g id="patch_20">
    <path clip-path="url(#p59d51767f7)" d="M 88.750377 273.312 
L 91.069338 273.312 
L 91.069338 272.218014 
L 88.750377 272.218014 
z
" style="fill:#1f77b4;opacity:0.5;stroke:#000000;stroke-linejoin:miter;"/>
   </g>
   <g id="patch_21">
    <path clip-path="url(#p59d51767f7)" d="M 91.069338 273.312 
L 93.3883 273.312 
L 93.3883 272.947338 
L 91.069338 272.947338 
z
" style="fill:#1f77b4;opacity:0.5;stroke:#000000;stroke-linejoin:miter;"/>
   </g>
   <g id="patch_22">
    <path clip-path="url(#p59d51767f7)" d="M 93.3883 273.312 
L 95.707261 273.312 
L 95.707261 272.582676 
L 93.3883 272.582676 
z
" style="fill:#1f77b4;opacity:0.5;stroke:#000000;stroke-linejoin:miter;"/>
   </g>
   <g id="patch_23">
    <path clip-path="url(#p59d51767f7)" d="M 95.707261 273.312 
L 98.026222 273.312 
L 98.026222 272.947338 
L 95.707261 272.947338 
z
" style="fill:#1f77b4;opacity:0.5;stroke:#000000;stroke-linejoin:miter;"/>
   </g>
   <g id="patch_24">
    <path clip-path="url(#p59d51767f7)" d="M 98.026222 273.312 
L 100.345183 273.312 
L 100.345183 272.582676 
L 98.026222 272.582676 
z
" style="fill:#1f77b4;opacity:0.5;stroke:#000000;stroke-linejoin:miter;"/>
   </g>
   <g id="patch_25">
    <path clip-path="url(#p59d51767f7)" d="M 100.345183 273.312 
L 102.664144 273.312 
L 102.664144 272.582676 
L 100.345183 272.582676 
z
" style="fill:#1f77b4;opacity:0.5;stroke:#000000;stroke-linejoin:miter;"/>
   </g>
   <g id="patch_26">
    <path clip-path="url(#p59d51767f7)" d="M 102.664144 273.312 
L 104.983105 273.312 
L 104.983105 272.218014 
L 102.664144 272.218014 
z
" style="fill:#1f77b4;opacity:0.5;stroke:#000000;stroke-linejoin:miter;"/>
   </g>
   <g id="patch_27">
    <path clip-path="url(#p59d51767f7)" d="M 104.983105 273.312 
L 107.302066 273.312 
L 107.302066 273.312 
L 104.983105 273.312 
z
" style="fill:#1f77b4;opacity:0.5;stroke:#000000;stroke-linejoin:miter;"/>
   </g>
   <g id="patch_28">
    <path clip-path="url(#p59d51767f7)" d="M 107.302066 273.312 
L 109.621027 273.312 
L 109.621027 272.947338 
L 107.302066 272.947338 
z
" style="fill:#1f77b4;opacity:0.5;stroke:#000000;stroke-linejoin:miter;"/>
   </g>
   <g id="patch_29">
    <path clip-path="url(#p59d51767f7)" d="M 109.621027 273.312 
L 111.939988 273.312 
L 111.939988 272.582676 
L 109.621027 272.582676 
z
" style="fill:#1f77b4;opacity:0.5;stroke:#000000;stroke-linejoin:miter;"/>
   </g>
   <g id="patch_30">
    <path clip-path="url(#p59d51767f7)" d="M 111.939988 273.312 
L 114.258949 273.312 
L 114.258949 272.947338 
L 111.939988 272.947338 
z
" style="fill:#1f77b4;opacity:0.5;stroke:#000000;stroke-linejoin:miter;"/>
   </g>
   <g id="patch_31">
    <path clip-path="url(#p59d51767f7)" d="M 114.258949 273.312 
L 116.57791 273.312 
L 116.57791 271.853353 
L 114.258949 271.853353 
z
" style="fill:#1f77b4;opacity:0.5;stroke:#000000;stroke-linejoin:miter;"/>
   </g>
   <g id="patch_32">
    <path clip-path="url(#p59d51767f7)" d="M 116.57791 273.312 
L 118.896871 273.312 
L 118.896871 272.218014 
L 116.57791 272.218014 
z
" style="fill:#1f77b4;opacity:0.5;stroke:#000000;stroke-linejoin:miter;"/>
   </g>
   <g id="patch_33">
    <path clip-path="url(#p59d51767f7)" d="M 118.896871 273.312 
L 121.215832 273.312 
L 121.215832 271.853353 
L 118.896871 271.853353 
z
" style="fill:#1f77b4;opacity:0.5;stroke:#000000;stroke-linejoin:miter;"/>
   </g>
   <g id="patch_34">
    <path clip-path="url(#p59d51767f7)" d="M 121.215832 273.312 
L 123.534793 273.312 
L 123.534793 270.394705 
L 121.215832 270.394705 
z
" style="fill:#1f77b4;opacity:0.5;stroke:#000000;stroke-linejoin:miter;"/>
   </g>
   <g id="patch_35">
    <path clip-path="url(#p59d51767f7)" d="M 123.534793 273.312 
L 125.853754 273.312 
L 125.853754 271.488691 
L 123.534793 271.488691 
z
" style="fill:#1f77b4;opacity:0.5;stroke:#000000;stroke-linejoin:miter;"/>
   </g>
   <g id="patch_36">
    <path clip-path="url(#p59d51767f7)" d="M 125.853754 273.312 
L 128.172715 273.312 
L 128.172715 272.582676 
L 125.853754 272.582676 
z
" style="fill:#1f77b4;opacity:0.5;stroke:#000000;stroke-linejoin:miter;"/>
   </g>
   <g id="patch_37">
    <path clip-path="url(#p59d51767f7)" d="M 128.172715 273.312 
L 130.491676 273.312 
L 130.491676 271.124029 
L 128.172715 271.124029 
z
" style="fill:#1f77b4;opacity:0.5;stroke:#000000;stroke-linejoin:miter;"/>
   </g>
   <g id="patch_38">
    <path clip-path="url(#p59d51767f7)" d="M 130.491676 273.312 
L 132.810637 273.312 
L 132.810637 271.488691 
L 130.491676 271.488691 
z
" style="fill:#1f77b4;opacity:0.5;stroke:#000000;stroke-linejoin:miter;"/>
   </g>
   <g id="patch_39">
    <path clip-path="url(#p59d51767f7)" d="M 132.810637 273.312 
L 135.129598 273.312 
L 135.129598 272.582676 
L 132.810637 272.582676 
z
" style="fill:#1f77b4;opacity:0.5;stroke:#000000;stroke-linejoin:miter;"/>
   </g>
   <g id="patch_40">
    <path clip-path="url(#p59d51767f7)" d="M 135.129598 273.312 
L 137.448559 273.312 
L 137.448559 272.947338 
L 135.129598 272.947338 
z
" style="fill:#1f77b4;opacity:0.5;stroke:#000000;stroke-linejoin:miter;"/>
   </g>
   <g id="patch_41">
    <path clip-path="url(#p59d51767f7)" d="M 137.448559 273.312 
L 139.76752 273.312 
L 139.76752 270.030043 
L 137.448559 270.030043 
z
" style="fill:#1f77b4;opacity:0.5;stroke:#000000;stroke-linejoin:miter;"/>
   </g>
   <g id="patch_42">
    <path clip-path="url(#p59d51767f7)" d="M 139.76752 273.312 
L 142.086481 273.312 
L 142.086481 273.312 
L 139.76752 273.312 
z
" style="fill:#1f77b4;opacity:0.5;stroke:#000000;stroke-linejoin:miter;"/>
   </g>
   <g id="patch_43">
    <path clip-path="url(#p59d51767f7)" d="M 142.086481 273.312 
L 144.405442 273.312 
L 144.405442 270.759367 
L 142.086481 270.759367 
z
" style="fill:#1f77b4;opacity:0.5;stroke:#000000;stroke-linejoin:miter;"/>
   </g>
   <g id="patch_44">
    <path clip-path="url(#p59d51767f7)" d="M 144.405442 273.312 
L 146.724403 273.312 
L 146.724403 270.759367 
L 144.405442 270.759367 
z
" style="fill:#1f77b4;opacity:0.5;stroke:#000000;stroke-linejoin:miter;"/>
   </g>
   <g id="patch_45">
    <path clip-path="url(#p59d51767f7)" d="M 146.724403 273.312 
L 149.043364 273.312 
L 149.043364 270.030043 
L 146.724403 270.030043 
z
" style="fill:#1f77b4;opacity:0.5;stroke:#000000;stroke-linejoin:miter;"/>
   </g>
   <g id="patch_46">
    <path clip-path="url(#p59d51767f7)" d="M 149.043364 273.312 
L 151.362325 273.312 
L 151.362325 270.030043 
L 149.043364 270.030043 
z
" style="fill:#1f77b4;opacity:0.5;stroke:#000000;stroke-linejoin:miter;"/>
   </g>
   <g id="patch_47">
    <path clip-path="url(#p59d51767f7)" d="M 151.362325 273.312 
L 153.681287 273.312 
L 153.681287 267.842072 
L 151.362325 267.842072 
z
" style="fill:#1f77b4;opacity:0.5;stroke:#000000;stroke-linejoin:miter;"/>
   </g>
   <g id="patch_48">
    <path clip-path="url(#p59d51767f7)" d="M 153.681287 273.312 
L 156.000248 273.312 
L 156.000248 269.300719 
L 153.681287 269.300719 
z
" style="fill:#1f77b4;opacity:0.5;stroke:#000000;stroke-linejoin:miter;"/>
   </g>
   <g id="patch_49">
    <path clip-path="url(#p59d51767f7)" d="M 156.000248 273.312 
L 158.319209 273.312 
L 158.319209 268.206734 
L 156.000248 268.206734 
z
" style="fill:#1f77b4;opacity:0.5;stroke:#000000;stroke-linejoin:miter;"/>
   </g>
   <g id="patch_50">
    <path clip-path="url(#p59d51767f7)" d="M 158.319209 273.312 
L 160.63817 273.312 
L 160.63817 267.842072 
L 158.319209 267.842072 
z
" style="fill:#1f77b4;opacity:0.5;stroke:#000000;stroke-linejoin:miter;"/>
   </g>
   <g id="patch_51">
    <path clip-path="url(#p59d51767f7)" d="M 160.63817 273.312 
L 162.957131 273.312 
L 162.957131 265.289439 
L 160.63817 265.289439 
z
" style="fill:#1f77b4;opacity:0.5;stroke:#000000;stroke-linejoin:miter;"/>
   </g>
   <g id="patch_52">
    <path clip-path="url(#p59d51767f7)" d="M 162.957131 273.312 
L 165.276092 273.312 
L 165.276092 266.748086 
L 162.957131 266.748086 
z
" style="fill:#1f77b4;opacity:0.5;stroke:#000000;stroke-linejoin:miter;"/>
   </g>
   <g id="patch_53">
    <path clip-path="url(#p59d51767f7)" d="M 165.276092 273.312 
L 167.595053 273.312 
L 167.595053 266.018763 
L 165.276092 266.018763 
z
" style="fill:#1f77b4;opacity:0.5;stroke:#000000;stroke-linejoin:miter;"/>
   </g>
   <g id="patch_54">
    <path clip-path="url(#p59d51767f7)" d="M 167.595053 273.312 
L 169.914014 273.312 
L 169.914014 264.924777 
L 167.595053 264.924777 
z
" style="fill:#1f77b4;opacity:0.5;stroke:#000000;stroke-linejoin:miter;"/>
   </g>
   <g id="patch_55">
    <path clip-path="url(#p59d51767f7)" d="M 169.914014 273.312 
L 172.232975 273.312 
L 172.232975 264.195453 
L 169.914014 264.195453 
z
" style="fill:#1f77b4;opacity:0.5;stroke:#000000;stroke-linejoin:miter;"/>
   </g>
   <g id="patch_56">
    <path clip-path="url(#p59d51767f7)" d="M 172.232975 273.312 
L 174.551936 273.312 
L 174.551936 261.278158 
L 172.232975 261.278158 
z
" style="fill:#1f77b4;opacity:0.5;stroke:#000000;stroke-linejoin:miter;"/>
   </g>
   <g id="patch_57">
    <path clip-path="url(#p59d51767f7)" d="M 174.551936 273.312 
L 176.870897 273.312 
L 176.870897 262.372144 
L 174.551936 262.372144 
z
" style="fill:#1f77b4;opacity:0.5;stroke:#000000;stroke-linejoin:miter;"/>
   </g>
   <g id="patch_58">
    <path clip-path="url(#p59d51767f7)" d="M 176.870897 273.312 
L 179.189858 273.312 
L 179.189858 264.195453 
L 176.870897 264.195453 
z
" style="fill:#1f77b4;opacity:0.5;stroke:#000000;stroke-linejoin:miter;"/>
   </g>
   <g id="patch_59">
    <path clip-path="url(#p59d51767f7)" d="M 179.189858 273.312 
L 181.508819 273.312 
L 181.508819 260.184173 
L 179.189858 260.184173 
z
" style="fill:#1f77b4;opacity:0.5;stroke:#000000;stroke-linejoin:miter;"/>
   </g>
   <g id="patch_60">
    <path clip-path="url(#p59d51767f7)" d="M 181.508819 273.312 
L 183.82778 273.312 
L 183.82778 264.195453 
L 181.508819 264.195453 
z
" style="fill:#1f77b4;opacity:0.5;stroke:#000000;stroke-linejoin:miter;"/>
   </g>
   <g id="patch_61">
    <path clip-path="url(#p59d51767f7)" d="M 183.82778 273.312 
L 186.146741 273.312 
L 186.146741 263.466129 
L 183.82778 263.466129 
z
" style="fill:#1f77b4;opacity:0.5;stroke:#000000;stroke-linejoin:miter;"/>
   </g>
   <g id="patch_62">
    <path clip-path="url(#p59d51767f7)" d="M 186.146741 273.312 
L 188.465702 273.312 
L 188.465702 258.360863 
L 186.146741 258.360863 
z
" style="fill:#1f77b4;opacity:0.5;stroke:#000000;stroke-linejoin:miter;"/>
   </g>
   <g id="patch_63">
    <path clip-path="url(#p59d51767f7)" d="M 188.465702 273.312 
L 190.784663 273.312 
L 190.784663 264.195453 
L 188.465702 264.195453 
z
" style="fill:#1f77b4;opacity:0.5;stroke:#000000;stroke-linejoin:miter;"/>
   </g>
   <g id="patch_64">
    <path clip-path="url(#p59d51767f7)" d="M 190.784663 273.312 
L 193.103624 273.312 
L 193.103624 261.64282 
L 190.784663 261.64282 
z
" style="fill:#1f77b4;opacity:0.5;stroke:#000000;stroke-linejoin:miter;"/>
   </g>
   <g id="patch_65">
    <path clip-path="url(#p59d51767f7)" d="M 193.103624 273.312 
L 195.422585 273.312 
L 195.422585 262.736806 
L 193.103624 262.736806 
z
" style="fill:#1f77b4;opacity:0.5;stroke:#000000;stroke-linejoin:miter;"/>
   </g>
   <g id="patch_66">
    <path clip-path="url(#p59d51767f7)" d="M 195.422585 273.312 
L 197.741546 273.312 
L 197.741546 263.466129 
L 195.422585 263.466129 
z
" style="fill:#1f77b4;opacity:0.5;stroke:#000000;stroke-linejoin:miter;"/>
   </g>
   <g id="patch_67">
    <path clip-path="url(#p59d51767f7)" d="M 197.741546 273.312 
L 200.060507 273.312 
L 200.060507 259.454849 
L 197.741546 259.454849 
z
" style="fill:#1f77b4;opacity:0.5;stroke:#000000;stroke-linejoin:miter;"/>
   </g>
   <g id="patch_68">
    <path clip-path="url(#p59d51767f7)" d="M 200.060507 273.312 
L 202.379468 273.312 
L 202.379468 261.64282 
L 200.060507 261.64282 
z
" style="fill:#1f77b4;opacity:0.5;stroke:#000000;stroke-linejoin:miter;"/>
   </g>
   <g id="patch_69">
    <path clip-path="url(#p59d51767f7)" d="M 202.379468 273.312 
L 204.698429 273.312 
L 204.698429 257.266878 
L 202.379468 257.266878 
z
" style="fill:#1f77b4;opacity:0.5;stroke:#000000;stroke-linejoin:miter;"/>
   </g>
   <g id="patch_70">
    <path clip-path="url(#p59d51767f7)" d="M 204.698429 273.312 
L 207.01739 273.312 
L 207.01739 263.466129 
L 204.698429 263.466129 
z
" style="fill:#1f77b4;opacity:0.5;stroke:#000000;stroke-linejoin:miter;"/>
   </g>
   <g id="patch_71">
    <path clip-path="url(#p59d51767f7)" d="M 207.01739 273.312 
L 209.336351 273.312 
L 209.336351 258.725525 
L 207.01739 258.725525 
z
" style="fill:#1f77b4;opacity:0.5;stroke:#000000;stroke-linejoin:miter;"/>
   </g>
   <g id="patch_72">
    <path clip-path="url(#p59d51767f7)" d="M 209.336351 273.312 
L 211.655312 273.312 
L 211.655312 261.64282 
L 209.336351 261.64282 
z
" style="fill:#1f77b4;opacity:0.5;stroke:#000000;stroke-linejoin:miter;"/>
   </g>
   <g id="patch_73">
    <path clip-path="url(#p59d51767f7)" d="M 211.655312 273.312 
L 213.974274 273.312 
L 213.974274 256.902216 
L 211.655312 256.902216 
z
" style="fill:#1f77b4;opacity:0.5;stroke:#000000;stroke-linejoin:miter;"/>
   </g>
   <g id="patch_74">
    <path clip-path="url(#p59d51767f7)" d="M 213.974274 273.312 
L 216.293235 273.312 
L 216.293235 262.372144 
L 213.974274 262.372144 
z
" style="fill:#1f77b4;opacity:0.5;stroke:#000000;stroke-linejoin:miter;"/>
   </g>
   <g id="patch_75">
    <path clip-path="url(#p59d51767f7)" d="M 216.293235 273.312 
L 218.612196 273.312 
L 218.612196 261.278158 
L 216.293235 261.278158 
z
" style="fill:#1f77b4;opacity:0.5;stroke:#000000;stroke-linejoin:miter;"/>
   </g>
   <g id="patch_76">
    <path clip-path="url(#p59d51767f7)" d="M 218.612196 273.312 
L 220.931157 273.312 
L 220.931157 258.725525 
L 218.612196 258.725525 
z
" style="fill:#1f77b4;opacity:0.5;stroke:#000000;stroke-linejoin:miter;"/>
   </g>
   <g id="patch_77">
    <path clip-path="url(#p59d51767f7)" d="M 220.931157 273.312 
L 223.250118 273.312 
L 223.250118 254.714245 
L 220.931157 254.714245 
z
" style="fill:#1f77b4;opacity:0.5;stroke:#000000;stroke-linejoin:miter;"/>
   </g>
   <g id="patch_78">
    <path clip-path="url(#p59d51767f7)" d="M 223.250118 273.312 
L 225.569079 273.312 
L 225.569079 252.890935 
L 223.250118 252.890935 
z
" style="fill:#1f77b4;opacity:0.5;stroke:#000000;stroke-linejoin:miter;"/>
   </g>
   <g id="patch_79">
    <path clip-path="url(#p59d51767f7)" d="M 225.569079 273.312 
L 227.88804 273.312 
L 227.88804 246.691683 
L 225.569079 246.691683 
z
" style="fill:#1f77b4;opacity:0.5;stroke:#000000;stroke-linejoin:miter;"/>
   </g>
   <g id="patch_80">
    <path clip-path="url(#p59d51767f7)" d="M 227.88804 273.312 
L 230.207001 273.312 
L 230.207001 251.067626 
L 227.88804 251.067626 
z
" style="fill:#1f77b4;opacity:0.5;stroke:#000000;stroke-linejoin:miter;"/>
   </g>
   <g id="patch_81">
    <path clip-path="url(#p59d51767f7)" d="M 230.207001 273.312 
L 232.525962 273.312 
L 232.525962 246.691683 
L 230.207001 246.691683 
z
" style="fill:#1f77b4;opacity:0.5;stroke:#000000;stroke-linejoin:miter;"/>
   </g>
   <g id="patch_82">
    <path clip-path="url(#p59d51767f7)" d="M 232.525962 273.312 
L 234.844923 273.312 
L 234.844923 245.233036 
L 232.525962 245.233036 
z
" style="fill:#1f77b4;opacity:0.5;stroke:#000000;stroke-linejoin:miter;"/>
   </g>
   <g id="patch_83">
    <path clip-path="url(#p59d51767f7)" d="M 234.844923 273.312 
L 237.163884 273.312 
L 237.163884 233.928518 
L 234.844923 233.928518 
z
" style="fill:#1f77b4;opacity:0.5;stroke:#000000;stroke-linejoin:miter;"/>
   </g>
   <g id="patch_84">
    <path clip-path="url(#p59d51767f7)" d="M 237.163884 273.312 
L 239.482845 273.312 
L 239.482845 238.669122 
L 237.163884 238.669122 
z
" style="fill:#1f77b4;opacity:0.5;stroke:#000000;stroke-linejoin:miter;"/>
   </g>
   <g id="patch_85">
    <path clip-path="url(#p59d51767f7)" d="M 239.482845 273.312 
L 241.801806 273.312 
L 241.801806 231.740547 
L 239.482845 231.740547 
z
" style="fill:#1f77b4;opacity:0.5;stroke:#000000;stroke-linejoin:miter;"/>
   </g>
   <g id="patch_86">
    <path clip-path="url(#p59d51767f7)" d="M 241.801806 273.312 
L 244.120767 273.312 
L 244.120767 227.364604 
L 241.801806 227.364604 
z
" style="fill:#1f77b4;opacity:0.5;stroke:#000000;stroke-linejoin:miter;"/>
   </g>
   <g id="patch_87">
    <path clip-path="url(#p59d51767f7)" d="M 244.120767 273.312 
L 246.439728 273.312 
L 246.439728 195.27436 
L 244.120767 195.27436 
z
" style="fill:#1f77b4;opacity:0.5;stroke:#000000;stroke-linejoin:miter;"/>
   </g>
   <g id="patch_88">
    <path clip-path="url(#p59d51767f7)" d="M 246.439728 273.312 
L 248.758689 273.312 
L 248.758689 204.390906 
L 246.439728 204.390906 
z
" style="fill:#1f77b4;opacity:0.5;stroke:#000000;stroke-linejoin:miter;"/>
   </g>
   <g id="patch_89">
    <path clip-path="url(#p59d51767f7)" d="M 248.758689 273.312 
L 251.07765 273.312 
L 251.07765 203.661583 
L 248.758689 203.661583 
z
" style="fill:#1f77b4;opacity:0.5;stroke:#000000;stroke-linejoin:miter;"/>
   </g>
   <g id="patch_90">
    <path clip-path="url(#p59d51767f7)" d="M 251.07765 273.312 
L 253.396611 273.312 
L 253.396611 168.654043 
L 251.07765 168.654043 
z
" style="fill:#1f77b4;opacity:0.5;stroke:#000000;stroke-linejoin:miter;"/>
   </g>
   <g id="patch_91">
    <path clip-path="url(#p59d51767f7)" d="M 253.396611 273.312 
L 255.715572 273.312 
L 255.715572 168.654043 
L 253.396611 168.654043 
z
" style="fill:#1f77b4;opacity:0.5;stroke:#000000;stroke-linejoin:miter;"/>
   </g>
   <g id="patch_92">
    <path clip-path="url(#p59d51767f7)" d="M 255.715572 273.312 
L 258.034533 273.312 
L 258.034533 146.409669 
L 255.715572 146.409669 
z
" style="fill:#1f77b4;opacity:0.5;stroke:#000000;stroke-linejoin:miter;"/>
   </g>
   <g id="patch_93">
    <path clip-path="url(#p59d51767f7)" d="M 258.034533 273.312 
L 260.353494 273.312 
L 260.353494 169.018705 
L 258.034533 169.018705 
z
" style="fill:#1f77b4;opacity:0.5;stroke:#000000;stroke-linejoin:miter;"/>
   </g>
   <g id="patch_94">
    <path clip-path="url(#p59d51767f7)" d="M 260.353494 273.312 
L 262.672455 273.312 
L 262.672455 146.045007 
L 260.353494 146.045007 
z
" style="fill:#1f77b4;opacity:0.5;stroke:#000000;stroke-linejoin:miter;"/>
   </g>
   <g id="patch_95">
    <path clip-path="url(#p59d51767f7)" d="M 262.672455 273.312 
L 264.991416 273.312 
L 264.991416 166.466072 
L 262.672455 166.466072 
z
" style="fill:#1f77b4;opacity:0.5;stroke:#000000;stroke-linejoin:miter;"/>
   </g>
   <g id="patch_96">
    <path clip-path="url(#p59d51767f7)" d="M 264.991416 273.312 
L 267.310377 273.312 
L 267.310377 181.781871 
L 264.991416 181.781871 
z
" style="fill:#1f77b4;opacity:0.5;stroke:#000000;stroke-linejoin:miter;"/>
   </g>
   <g id="patch_97">
    <path clip-path="url(#p59d51767f7)" d="M 267.310377 273.312 
L 269.629338 273.312 
L 269.629338 158.078849 
L 267.310377 158.078849 
z
" style="fill:#1f77b4;opacity:0.5;stroke:#000000;stroke-linejoin:miter;"/>
   </g>
   <g id="patch_98">
    <path clip-path="url(#p59d51767f7)" d="M 269.629338 273.312 
L 271.9483 273.312 
L 271.9483 174.123971 
L 269.629338 174.123971 
z
" style="fill:#1f77b4;opacity:0.5;stroke:#000000;stroke-linejoin:miter;"/>
   </g>
   <g id="patch_99">
    <path clip-path="url(#p59d51767f7)" d="M 271.9483 273.312 
L 274.267261 273.312 
L 274.267261 172.300662 
L 271.9483 172.300662 
z
" style="fill:#1f77b4;opacity:0.5;stroke:#000000;stroke-linejoin:miter;"/>
   </g>
   <g id="patch_100">
    <path clip-path="url(#p59d51767f7)" d="M 274.267261 273.312 
L 276.586222 273.312 
L 276.586222 190.898417 
L 274.267261 190.898417 
z
" style="fill:#1f77b4;opacity:0.5;stroke:#000000;stroke-linejoin:miter;"/>
   </g>
   <g id="patch_101">
    <path clip-path="url(#p59d51767f7)" d="M 276.586222 273.312 
L 278.905183 273.312 
L 278.905183 184.334504 
L 276.586222 184.334504 
z
" style="fill:#1f77b4;opacity:0.5;stroke:#000000;stroke-linejoin:miter;"/>
   </g>
   <g id="patch_102">
    <path clip-path="url(#p59d51767f7)" d="M 278.905183 273.312 
L 281.224144 273.312 
L 281.224144 186.522475 
L 278.905183 186.522475 
z
" style="fill:#1f77b4;opacity:0.5;stroke:#000000;stroke-linejoin:miter;"/>
   </g>
   <g id="patch_103">
    <path clip-path="url(#p59d51767f7)" d="M 281.224144 273.312 
L 283.543105 273.312 
L 283.543105 202.202935 
L 281.224144 202.202935 
z
" style="fill:#1f77b4;opacity:0.5;stroke:#000000;stroke-linejoin:miter;"/>
   </g>
   <g id="patch_104">
    <path clip-path="url(#p59d51767f7)" d="M 283.543105 273.312 
L 285.862066 273.312 
L 285.862066 194.545036 
L 283.543105 194.545036 
z
" style="fill:#1f77b4;opacity:0.5;stroke:#000000;stroke-linejoin:miter;"/>
   </g>
   <g id="patch_105">
    <path clip-path="url(#p59d51767f7)" d="M 285.862066 273.312 
L 288.181027 273.312 
L 288.181027 197.462331 
L 285.862066 197.462331 
z
" style="fill:#1f77b4;opacity:0.5;stroke:#000000;stroke-linejoin:miter;"/>
   </g>
   <g id="patch_106">
    <path clip-path="url(#p59d51767f7)" d="M 288.181027 273.312 
L 290.499988 273.312 
L 290.499988 200.014964 
L 288.181027 200.014964 
z
" style="fill:#1f77b4;opacity:0.5;stroke:#000000;stroke-linejoin:miter;"/>
   </g>
   <g id="patch_107">
    <path clip-path="url(#p59d51767f7)" d="M 290.499988 273.312 
L 292.818949 273.312 
L 292.818949 222.624 
L 290.499988 222.624 
z
" style="fill:#1f77b4;opacity:0.5;stroke:#000000;stroke-linejoin:miter;"/>
   </g>
   <g id="patch_108">
    <path clip-path="url(#p59d51767f7)" d="M 292.818949 273.312 
L 295.13791 273.312 
L 295.13791 216.78941 
L 292.818949 216.78941 
z
" style="fill:#1f77b4;opacity:0.5;stroke:#000000;stroke-linejoin:miter;"/>
   </g>
   <g id="patch_109">
    <path clip-path="url(#p59d51767f7)" d="M 295.13791 273.312 
L 297.456871 273.312 
L 297.456871 221.165353 
L 295.13791 221.165353 
z
" style="fill:#1f77b4;opacity:0.5;stroke:#000000;stroke-linejoin:miter;"/>
   </g>
   <g id="patch_110">
    <path clip-path="url(#p59d51767f7)" d="M 297.456871 273.312 
L 299.775832 273.312 
L 299.775832 231.375885 
L 297.456871 231.375885 
z
" style="fill:#1f77b4;opacity:0.5;stroke:#000000;stroke-linejoin:miter;"/>
   </g>
   <g id="patch_111">
    <path clip-path="url(#p59d51767f7)" d="M 299.775832 273.312 
L 302.094793 273.312 
L 302.094793 217.154072 
L 299.775832 217.154072 
z
" style="fill:#1f77b4;opacity:0.5;stroke:#000000;stroke-linejoin:miter;"/>
   </g>
   <g id="patch_112">
    <path clip-path="url(#p59d51767f7)" d="M 302.094793 273.312 
L 304.413754 273.312 
L 304.413754 235.022504 
L 302.094793 235.022504 
z
" style="fill:#1f77b4;opacity:0.5;stroke:#000000;stroke-linejoin:miter;"/>
   </g>
   <g id="patch_113">
    <path clip-path="url(#p59d51767f7)" d="M 304.413754 273.312 
L 306.732715 273.312 
L 306.732715 233.563856 
L 304.413754 233.563856 
z
" style="fill:#1f77b4;opacity:0.5;stroke:#000000;stroke-linejoin:miter;"/>
   </g>
   <g id="patch_114">
    <path clip-path="url(#p59d51767f7)" d="M 306.732715 273.312 
L 309.051676 273.312 
L 309.051676 245.96236 
L 306.732715 245.96236 
z
" style="fill:#1f77b4;opacity:0.5;stroke:#000000;stroke-linejoin:miter;"/>
   </g>
   <g id="patch_115">
    <path clip-path="url(#p59d51767f7)" d="M 309.051676 273.312 
L 311.370637 273.312 
L 311.370637 234.657842 
L 309.051676 234.657842 
z
" style="fill:#1f77b4;opacity:0.5;stroke:#000000;stroke-linejoin:miter;"/>
   </g>
   <g id="patch_116">
    <path clip-path="url(#p59d51767f7)" d="M 311.370637 273.312 
L 313.689598 273.312 
L 313.689598 247.056345 
L 311.370637 247.056345 
z
" style="fill:#1f77b4;opacity:0.5;stroke:#000000;stroke-linejoin:miter;"/>
   </g>
   <g id="patch_117">
    <path clip-path="url(#p59d51767f7)" d="M 313.689598 273.312 
L 316.008559 273.312 
L 316.008559 245.96236 
L 313.689598 245.96236 
z
" style="fill:#1f77b4;opacity:0.5;stroke:#000000;stroke-linejoin:miter;"/>
   </g>
   <g id="patch_118">
    <path clip-path="url(#p59d51767f7)" d="M 316.008559 273.312 
L 318.32752 273.312 
L 318.32752 242.680403 
L 316.008559 242.680403 
z
" style="fill:#1f77b4;opacity:0.5;stroke:#000000;stroke-linejoin:miter;"/>
   </g>
   <g id="patch_119">
    <path clip-path="url(#p59d51767f7)" d="M 318.32752 273.312 
L 320.646481 273.312 
L 320.646481 251.79695 
L 318.32752 251.79695 
z
" style="fill:#1f77b4;opacity:0.5;stroke:#000000;stroke-linejoin:miter;"/>
   </g>
   <g id="patch_120">
    <path clip-path="url(#p59d51767f7)" d="M 320.646481 273.312 
L 322.965442 273.312 
L 322.965442 254.349583 
L 320.646481 254.349583 
z
" style="fill:#1f77b4;opacity:0.5;stroke:#000000;stroke-linejoin:miter;"/>
   </g>
   <g id="patch_121">
    <path clip-path="url(#p59d51767f7)" d="M 322.965442 273.312 
L 325.284403 273.312 
L 325.284403 249.608978 
L 322.965442 249.608978 
z
" style="fill:#1f77b4;opacity:0.5;stroke:#000000;stroke-linejoin:miter;"/>
   </g>
   <g id="patch_122">
    <path clip-path="url(#p59d51767f7)" d="M 325.284403 273.312 
L 327.603364 273.312 
L 327.603364 253.620259 
L 325.284403 253.620259 
z
" style="fill:#1f77b4;opacity:0.5;stroke:#000000;stroke-linejoin:miter;"/>
   </g>
   <g id="patch_123">
    <path clip-path="url(#p59d51767f7)" d="M 327.603364 273.312 
L 329.922325 273.312 
L 329.922325 252.526273 
L 327.603364 252.526273 
z
" style="fill:#1f77b4;opacity:0.5;stroke:#000000;stroke-linejoin:miter;"/>
   </g>
   <g id="patch_124">
    <path clip-path="url(#p59d51767f7)" d="M 329.922325 273.312 
L 332.241287 273.312 
L 332.241287 260.548835 
L 329.922325 260.548835 
z
" style="fill:#1f77b4;opacity:0.5;stroke:#000000;stroke-linejoin:miter;"/>
   </g>
   <g id="patch_125">
    <path clip-path="url(#p59d51767f7)" d="M 332.241287 273.312 
L 334.560248 273.312 
L 334.560248 262.736806 
L 332.241287 262.736806 
z
" style="fill:#1f77b4;opacity:0.5;stroke:#000000;stroke-linejoin:miter;"/>
   </g>
   <g id="patch_126">
    <path clip-path="url(#p59d51767f7)" d="M 334.560248 273.312 
L 336.879209 273.312 
L 336.879209 262.007482 
L 334.560248 262.007482 
z
" style="fill:#1f77b4;opacity:0.5;stroke:#000000;stroke-linejoin:miter;"/>
   </g>
   <g id="patch_127">
    <path clip-path="url(#p59d51767f7)" d="M 336.879209 273.312 
L 339.19817 273.312 
L 339.19817 263.466129 
L 336.879209 263.466129 
z
" style="fill:#1f77b4;opacity:0.5;stroke:#000000;stroke-linejoin:miter;"/>
   </g>
   <g id="patch_128">
    <path clip-path="url(#p59d51767f7)" d="M 339.19817 273.312 
L 341.517131 273.312 
L 341.517131 263.101468 
L 339.19817 263.101468 
z
" style="fill:#1f77b4;opacity:0.5;stroke:#000000;stroke-linejoin:miter;"/>
   </g>
   <g id="patch_129">
    <path clip-path="url(#p59d51767f7)" d="M 341.517131 273.312 
L 343.836092 273.312 
L 343.836092 266.383424 
L 341.517131 266.383424 
z
" style="fill:#1f77b4;opacity:0.5;stroke:#000000;stroke-linejoin:miter;"/>
   </g>
   <g id="patch_130">
    <path clip-path="url(#p59d51767f7)" d="M 343.836092 273.312 
L 346.155053 273.312 
L 346.155053 267.112748 
L 343.836092 267.112748 
z
" style="fill:#1f77b4;opacity:0.5;stroke:#000000;stroke-linejoin:miter;"/>
   </g>
   <g id="patch_131">
    <path clip-path="url(#p59d51767f7)" d="M 346.155053 273.312 
L 348.474014 273.312 
L 348.474014 267.842072 
L 346.155053 267.842072 
z
" style="fill:#1f77b4;opacity:0.5;stroke:#000000;stroke-linejoin:miter;"/>
   </g>
   <g id="patch_132">
    <path clip-path="url(#p59d51767f7)" d="M 348.474014 273.312 
L 350.792975 273.312 
L 350.792975 268.206734 
L 348.474014 268.206734 
z
" style="fill:#1f77b4;opacity:0.5;stroke:#000000;stroke-linejoin:miter;"/>
   </g>
   <g id="patch_133">
    <path clip-path="url(#p59d51767f7)" d="M 350.792975 273.312 
L 353.111936 273.312 
L 353.111936 268.571396 
L 350.792975 268.571396 
z
" style="fill:#1f77b4;opacity:0.5;stroke:#000000;stroke-linejoin:miter;"/>
   </g>
   <g id="patch_134">
    <path clip-path="url(#p59d51767f7)" d="M 353.111936 273.312 
L 355.430897 273.312 
L 355.430897 269.300719 
L 353.111936 269.300719 
z
" style="fill:#1f77b4;opacity:0.5;stroke:#000000;stroke-linejoin:miter;"/>
   </g>
   <g id="patch_135">
    <path clip-path="url(#p59d51767f7)" d="M 355.430897 273.312 
L 357.749858 273.312 
L 357.749858 270.759367 
L 355.430897 270.759367 
z
" style="fill:#1f77b4;opacity:0.5;stroke:#000000;stroke-linejoin:miter;"/>
   </g>
   <g id="patch_136">
    <path clip-path="url(#p59d51767f7)" d="M 357.749858 273.312 
L 360.068819 273.312 
L 360.068819 271.124029 
L 357.749858 271.124029 
z
" style="fill:#1f77b4;opacity:0.5;stroke:#000000;stroke-linejoin:miter;"/>
   </g>
   <g id="patch_137">
    <path clip-path="url(#p59d51767f7)" d="M 360.068819 273.312 
L 362.38778 273.312 
L 362.38778 271.853353 
L 360.068819 271.853353 
z
" style="fill:#1f77b4;opacity:0.5;stroke:#000000;stroke-linejoin:miter;"/>
   </g>
   <g id="patch_138">
    <path clip-path="url(#p59d51767f7)" d="M 362.38778 273.312 
L 364.706741 273.312 
L 364.706741 272.582676 
L 362.38778 272.582676 
z
" style="fill:#1f77b4;opacity:0.5;stroke:#000000;stroke-linejoin:miter;"/>
   </g>
   <g id="patch_139">
    <path clip-path="url(#p59d51767f7)" d="M 364.706741 273.312 
L 367.025702 273.312 
L 367.025702 273.312 
L 364.706741 273.312 
z
" style="fill:#1f77b4;opacity:0.5;stroke:#000000;stroke-linejoin:miter;"/>
   </g>
   <g id="patch_140">
    <path clip-path="url(#p59d51767f7)" d="M 367.025702 273.312 
L 369.344663 273.312 
L 369.344663 272.582676 
L 367.025702 272.582676 
z
" style="fill:#1f77b4;opacity:0.5;stroke:#000000;stroke-linejoin:miter;"/>
   </g>
   <g id="patch_141">
    <path clip-path="url(#p59d51767f7)" d="M 369.344663 273.312 
L 371.663624 273.312 
L 371.663624 273.312 
L 369.344663 273.312 
z
" style="fill:#1f77b4;opacity:0.5;stroke:#000000;stroke-linejoin:miter;"/>
   </g>
   <g id="patch_142">
    <path clip-path="url(#p59d51767f7)" d="M 371.663624 273.312 
L 373.982585 273.312 
L 373.982585 273.312 
L 371.663624 273.312 
z
" style="fill:#1f77b4;opacity:0.5;stroke:#000000;stroke-linejoin:miter;"/>
   </g>
   <g id="patch_143">
    <path clip-path="url(#p59d51767f7)" d="M 49.32804 273.312 
L 51.647001 273.312 
L 51.647001 273.312 
L 49.32804 273.312 
z
" style="fill:#ff7f0e;opacity:0.5;stroke:#000000;stroke-linejoin:miter;"/>
   </g>
   <g id="patch_144">
    <path clip-path="url(#p59d51767f7)" d="M 51.647001 273.312 
L 53.965962 273.312 
L 53.965962 273.312 
L 51.647001 273.312 
z
" style="fill:#ff7f0e;opacity:0.5;stroke:#000000;stroke-linejoin:miter;"/>
   </g>
   <g id="patch_145">
    <path clip-path="url(#p59d51767f7)" d="M 53.965962 273.312 
L 56.284923 273.312 
L 56.284923 273.312 
L 53.965962 273.312 
z
" style="fill:#ff7f0e;opacity:0.5;stroke:#000000;stroke-linejoin:miter;"/>
   </g>
   <g id="patch_146">
    <path clip-path="url(#p59d51767f7)" d="M 56.284923 273.312 
L 58.603884 273.312 
L 58.603884 273.312 
L 56.284923 273.312 
z
" style="fill:#ff7f0e;opacity:0.5;stroke:#000000;stroke-linejoin:miter;"/>
   </g>
   <g id="patch_147">
    <path clip-path="url(#p59d51767f7)" d="M 58.603884 273.312 
L 60.922845 273.312 
L 60.922845 273.312 
L 58.603884 273.312 
z
" style="fill:#ff7f0e;opacity:0.5;stroke:#000000;stroke-linejoin:miter;"/>
   </g>
   <g id="patch_148">
    <path clip-path="url(#p59d51767f7)" d="M 60.922845 273.312 
L 63.241806 273.312 
L 63.241806 273.312 
L 60.922845 273.312 
z
" style="fill:#ff7f0e;opacity:0.5;stroke:#000000;stroke-linejoin:miter;"/>
   </g>
   <g id="patch_149">
    <path clip-path="url(#p59d51767f7)" d="M 63.241806 273.312 
L 65.560767 273.312 
L 65.560767 273.312 
L 63.241806 273.312 
z
" style="fill:#ff7f0e;opacity:0.5;stroke:#000000;stroke-linejoin:miter;"/>
   </g>
   <g id="patch_150">
    <path clip-path="url(#p59d51767f7)" d="M 65.560767 273.312 
L 67.879728 273.312 
L 67.879728 273.312 
L 65.560767 273.312 
z
" style="fill:#ff7f0e;opacity:0.5;stroke:#000000;stroke-linejoin:miter;"/>
   </g>
   <g id="patch_151">
    <path clip-path="url(#p59d51767f7)" d="M 67.879728 273.312 
L 70.198689 273.312 
L 70.198689 273.312 
L 67.879728 273.312 
z
" style="fill:#ff7f0e;opacity:0.5;stroke:#000000;stroke-linejoin:miter;"/>
   </g>
   <g id="patch_152">
    <path clip-path="url(#p59d51767f7)" d="M 70.198689 273.312 
L 72.51765 273.312 
L 72.51765 273.312 
L 70.198689 273.312 
z
" style="fill:#ff7f0e;opacity:0.5;stroke:#000000;stroke-linejoin:miter;"/>
   </g>
   <g id="patch_153">
    <path clip-path="url(#p59d51767f7)" d="M 72.51765 273.312 
L 74.836611 273.312 
L 74.836611 273.312 
L 72.51765 273.312 
z
" style="fill:#ff7f0e;opacity:0.5;stroke:#000000;stroke-linejoin:miter;"/>
   </g>
   <g id="patch_154">
    <path clip-path="url(#p59d51767f7)" d="M 74.836611 273.312 
L 77.155572 273.312 
L 77.155572 273.312 
L 74.836611 273.312 
z
" style="fill:#ff7f0e;opacity:0.5;stroke:#000000;stroke-linejoin:miter;"/>
   </g>
   <g id="patch_155">
    <path clip-path="url(#p59d51767f7)" d="M 77.155572 273.312 
L 79.474533 273.312 
L 79.474533 272.947338 
L 77.155572 272.947338 
z
" style="fill:#ff7f0e;opacity:0.5;stroke:#000000;stroke-linejoin:miter;"/>
   </g>
   <g id="patch_156">
    <path clip-path="url(#p59d51767f7)" d="M 79.474533 273.312 
L 81.793494 273.312 
L 81.793494 273.312 
L 79.474533 273.312 
z
" style="fill:#ff7f0e;opacity:0.5;stroke:#000000;stroke-linejoin:miter;"/>
   </g>
   <g id="patch_157">
    <path clip-path="url(#p59d51767f7)" d="M 81.793494 273.312 
L 84.112455 273.312 
L 84.112455 273.312 
L 81.793494 273.312 
z
" style="fill:#ff7f0e;opacity:0.5;stroke:#000000;stroke-linejoin:miter;"/>
   </g>
   <g id="patch_158">
    <path clip-path="url(#p59d51767f7)" d="M 84.112455 273.312 
L 86.431416 273.312 
L 86.431416 273.312 
L 84.112455 273.312 
z
" style="fill:#ff7f0e;opacity:0.5;stroke:#000000;stroke-linejoin:miter;"/>
   </g>
   <g id="patch_159">
    <path clip-path="url(#p59d51767f7)" d="M 86.431416 273.312 
L 88.750377 273.312 
L 88.750377 273.312 
L 86.431416 273.312 
z
" style="fill:#ff7f0e;opacity:0.5;stroke:#000000;stroke-linejoin:miter;"/>
   </g>
   <g id="patch_160">
    <path clip-path="url(#p59d51767f7)" d="M 88.750377 273.312 
L 91.069338 273.312 
L 91.069338 273.312 
L 88.750377 273.312 
z
" style="fill:#ff7f0e;opacity:0.5;stroke:#000000;stroke-linejoin:miter;"/>
   </g>
   <g id="patch_161">
    <path clip-path="url(#p59d51767f7)" d="M 91.069338 273.312 
L 93.3883 273.312 
L 93.3883 273.312 
L 91.069338 273.312 
z
" style="fill:#ff7f0e;opacity:0.5;stroke:#000000;stroke-linejoin:miter;"/>
   </g>
   <g id="patch_162">
    <path clip-path="url(#p59d51767f7)" d="M 93.3883 273.312 
L 95.707261 273.312 
L 95.707261 273.312 
L 93.3883 273.312 
z
" style="fill:#ff7f0e;opacity:0.5;stroke:#000000;stroke-linejoin:miter;"/>
   </g>
   <g id="patch_163">
    <path clip-path="url(#p59d51767f7)" d="M 95.707261 273.312 
L 98.026222 273.312 
L 98.026222 273.312 
L 95.707261 273.312 
z
" style="fill:#ff7f0e;opacity:0.5;stroke:#000000;stroke-linejoin:miter;"/>
   </g>
   <g id="patch_164">
    <path clip-path="url(#p59d51767f7)" d="M 98.026222 273.312 
L 100.345183 273.312 
L 100.345183 272.947338 
L 98.026222 272.947338 
z
" style="fill:#ff7f0e;opacity:0.5;stroke:#000000;stroke-linejoin:miter;"/>
   </g>
   <g id="patch_165">
    <path clip-path="url(#p59d51767f7)" d="M 100.345183 273.312 
L 102.664144 273.312 
L 102.664144 272.947338 
L 100.345183 272.947338 
z
" style="fill:#ff7f0e;opacity:0.5;stroke:#000000;stroke-linejoin:miter;"/>
   </g>
   <g id="patch_166">
    <path clip-path="url(#p59d51767f7)" d="M 102.664144 273.312 
L 104.983105 273.312 
L 104.983105 272.947338 
L 102.664144 272.947338 
z
" style="fill:#ff7f0e;opacity:0.5;stroke:#000000;stroke-linejoin:miter;"/>
   </g>
   <g id="patch_167">
    <path clip-path="url(#p59d51767f7)" d="M 104.983105 273.312 
L 107.302066 273.312 
L 107.302066 273.312 
L 104.983105 273.312 
z
" style="fill:#ff7f0e;opacity:0.5;stroke:#000000;stroke-linejoin:miter;"/>
   </g>
   <g id="patch_168">
    <path clip-path="url(#p59d51767f7)" d="M 107.302066 273.312 
L 109.621027 273.312 
L 109.621027 272.218014 
L 107.302066 272.218014 
z
" style="fill:#ff7f0e;opacity:0.5;stroke:#000000;stroke-linejoin:miter;"/>
   </g>
   <g id="patch_169">
    <path clip-path="url(#p59d51767f7)" d="M 109.621027 273.312 
L 111.939988 273.312 
L 111.939988 272.947338 
L 109.621027 272.947338 
z
" style="fill:#ff7f0e;opacity:0.5;stroke:#000000;stroke-linejoin:miter;"/>
   </g>
   <g id="patch_170">
    <path clip-path="url(#p59d51767f7)" d="M 111.939988 273.312 
L 114.258949 273.312 
L 114.258949 271.124029 
L 111.939988 271.124029 
z
" style="fill:#ff7f0e;opacity:0.5;stroke:#000000;stroke-linejoin:miter;"/>
   </g>
   <g id="patch_171">
    <path clip-path="url(#p59d51767f7)" d="M 114.258949 273.312 
L 116.57791 273.312 
L 116.57791 272.582676 
L 114.258949 272.582676 
z
" style="fill:#ff7f0e;opacity:0.5;stroke:#000000;stroke-linejoin:miter;"/>
   </g>
   <g id="patch_172">
    <path clip-path="url(#p59d51767f7)" d="M 116.57791 273.312 
L 118.896871 273.312 
L 118.896871 272.218014 
L 116.57791 272.218014 
z
" style="fill:#ff7f0e;opacity:0.5;stroke:#000000;stroke-linejoin:miter;"/>
   </g>
   <g id="patch_173">
    <path clip-path="url(#p59d51767f7)" d="M 118.896871 273.312 
L 121.215832 273.312 
L 121.215832 273.312 
L 118.896871 273.312 
z
" style="fill:#ff7f0e;opacity:0.5;stroke:#000000;stroke-linejoin:miter;"/>
   </g>
   <g id="patch_174">
    <path clip-path="url(#p59d51767f7)" d="M 121.215832 273.312 
L 123.534793 273.312 
L 123.534793 273.312 
L 121.215832 273.312 
z
" style="fill:#ff7f0e;opacity:0.5;stroke:#000000;stroke-linejoin:miter;"/>
   </g>
   <g id="patch_175">
    <path clip-path="url(#p59d51767f7)" d="M 123.534793 273.312 
L 125.853754 273.312 
L 125.853754 271.853353 
L 123.534793 271.853353 
z
" style="fill:#ff7f0e;opacity:0.5;stroke:#000000;stroke-linejoin:miter;"/>
   </g>
   <g id="patch_176">
    <path clip-path="url(#p59d51767f7)" d="M 125.853754 273.312 
L 128.172715 273.312 
L 128.172715 272.582676 
L 125.853754 272.582676 
z
" style="fill:#ff7f0e;opacity:0.5;stroke:#000000;stroke-linejoin:miter;"/>
   </g>
   <g id="patch_177">
    <path clip-path="url(#p59d51767f7)" d="M 128.172715 273.312 
L 130.491676 273.312 
L 130.491676 273.312 
L 128.172715 273.312 
z
" style="fill:#ff7f0e;opacity:0.5;stroke:#000000;stroke-linejoin:miter;"/>
   </g>
   <g id="patch_178">
    <path clip-path="url(#p59d51767f7)" d="M 130.491676 273.312 
L 132.810637 273.312 
L 132.810637 272.947338 
L 130.491676 272.947338 
z
" style="fill:#ff7f0e;opacity:0.5;stroke:#000000;stroke-linejoin:miter;"/>
   </g>
   <g id="patch_179">
    <path clip-path="url(#p59d51767f7)" d="M 132.810637 273.312 
L 135.129598 273.312 
L 135.129598 273.312 
L 132.810637 273.312 
z
" style="fill:#ff7f0e;opacity:0.5;stroke:#000000;stroke-linejoin:miter;"/>
   </g>
   <g id="patch_180">
    <path clip-path="url(#p59d51767f7)" d="M 135.129598 273.312 
L 137.448559 273.312 
L 137.448559 273.312 
L 135.129598 273.312 
z
" style="fill:#ff7f0e;opacity:0.5;stroke:#000000;stroke-linejoin:miter;"/>
   </g>
   <g id="patch_181">
    <path clip-path="url(#p59d51767f7)" d="M 137.448559 273.312 
L 139.76752 273.312 
L 139.76752 272.582676 
L 137.448559 272.582676 
z
" style="fill:#ff7f0e;opacity:0.5;stroke:#000000;stroke-linejoin:miter;"/>
   </g>
   <g id="patch_182">
    <path clip-path="url(#p59d51767f7)" d="M 139.76752 273.312 
L 142.086481 273.312 
L 142.086481 272.947338 
L 139.76752 272.947338 
z
" style="fill:#ff7f0e;opacity:0.5;stroke:#000000;stroke-linejoin:miter;"/>
   </g>
   <g id="patch_183">
    <path clip-path="url(#p59d51767f7)" d="M 142.086481 273.312 
L 144.405442 273.312 
L 144.405442 273.312 
L 142.086481 273.312 
z
" style="fill:#ff7f0e;opacity:0.5;stroke:#000000;stroke-linejoin:miter;"/>
   </g>
   <g id="patch_184">
    <path clip-path="url(#p59d51767f7)" d="M 144.405442 273.312 
L 146.724403 273.312 
L 146.724403 271.853353 
L 144.405442 271.853353 
z
" style="fill:#ff7f0e;opacity:0.5;stroke:#000000;stroke-linejoin:miter;"/>
   </g>
   <g id="patch_185">
    <path clip-path="url(#p59d51767f7)" d="M 146.724403 273.312 
L 149.043364 273.312 
L 149.043364 270.394705 
L 146.724403 270.394705 
z
" style="fill:#ff7f0e;opacity:0.5;stroke:#000000;stroke-linejoin:miter;"/>
   </g>
   <g id="patch_186">
    <path clip-path="url(#p59d51767f7)" d="M 149.043364 273.312 
L 151.362325 273.312 
L 151.362325 268.936058 
L 149.043364 268.936058 
z
" style="fill:#ff7f0e;opacity:0.5;stroke:#000000;stroke-linejoin:miter;"/>
   </g>
   <g id="patch_187">
    <path clip-path="url(#p59d51767f7)" d="M 151.362325 273.312 
L 153.681287 273.312 
L 153.681287 271.124029 
L 151.362325 271.124029 
z
" style="fill:#ff7f0e;opacity:0.5;stroke:#000000;stroke-linejoin:miter;"/>
   </g>
   <g id="patch_188">
    <path clip-path="url(#p59d51767f7)" d="M 153.681287 273.312 
L 156.000248 273.312 
L 156.000248 270.759367 
L 153.681287 270.759367 
z
" style="fill:#ff7f0e;opacity:0.5;stroke:#000000;stroke-linejoin:miter;"/>
   </g>
   <g id="patch_189">
    <path clip-path="url(#p59d51767f7)" d="M 156.000248 273.312 
L 158.319209 273.312 
L 158.319209 269.665381 
L 156.000248 269.665381 
z
" style="fill:#ff7f0e;opacity:0.5;stroke:#000000;stroke-linejoin:miter;"/>
   </g>
   <g id="patch_190">
    <path clip-path="url(#p59d51767f7)" d="M 158.319209 273.312 
L 160.63817 273.312 
L 160.63817 270.030043 
L 158.319209 270.030043 
z
" style="fill:#ff7f0e;opacity:0.5;stroke:#000000;stroke-linejoin:miter;"/>
   </g>
   <g id="patch_191">
    <path clip-path="url(#p59d51767f7)" d="M 160.63817 273.312 
L 162.957131 273.312 
L 162.957131 270.030043 
L 160.63817 270.030043 
z
" style="fill:#ff7f0e;opacity:0.5;stroke:#000000;stroke-linejoin:miter;"/>
   </g>
   <g id="patch_192">
    <path clip-path="url(#p59d51767f7)" d="M 162.957131 273.312 
L 165.276092 273.312 
L 165.276092 267.112748 
L 162.957131 267.112748 
z
" style="fill:#ff7f0e;opacity:0.5;stroke:#000000;stroke-linejoin:miter;"/>
   </g>
   <g id="patch_193">
    <path clip-path="url(#p59d51767f7)" d="M 165.276092 273.312 
L 167.595053 273.312 
L 167.595053 263.830791 
L 165.276092 263.830791 
z
" style="fill:#ff7f0e;opacity:0.5;stroke:#000000;stroke-linejoin:miter;"/>
   </g>
   <g id="patch_194">
    <path clip-path="url(#p59d51767f7)" d="M 167.595053 273.312 
L 169.914014 273.312 
L 169.914014 269.665381 
L 167.595053 269.665381 
z
" style="fill:#ff7f0e;opacity:0.5;stroke:#000000;stroke-linejoin:miter;"/>
   </g>
   <g id="patch_195">
    <path clip-path="url(#p59d51767f7)" d="M 169.914014 273.312 
L 172.232975 273.312 
L 172.232975 268.936058 
L 169.914014 268.936058 
z
" style="fill:#ff7f0e;opacity:0.5;stroke:#000000;stroke-linejoin:miter;"/>
   </g>
   <g id="patch_196">
    <path clip-path="url(#p59d51767f7)" d="M 172.232975 273.312 
L 174.551936 273.312 
L 174.551936 267.842072 
L 172.232975 267.842072 
z
" style="fill:#ff7f0e;opacity:0.5;stroke:#000000;stroke-linejoin:miter;"/>
   </g>
   <g id="patch_197">
    <path clip-path="url(#p59d51767f7)" d="M 174.551936 273.312 
L 176.870897 273.312 
L 176.870897 267.112748 
L 174.551936 267.112748 
z
" style="fill:#ff7f0e;opacity:0.5;stroke:#000000;stroke-linejoin:miter;"/>
   </g>
   <g id="patch_198">
    <path clip-path="url(#p59d51767f7)" d="M 176.870897 273.312 
L 179.189858 273.312 
L 179.189858 264.195453 
L 176.870897 264.195453 
z
" style="fill:#ff7f0e;opacity:0.5;stroke:#000000;stroke-linejoin:miter;"/>
   </g>
   <g id="patch_199">
    <path clip-path="url(#p59d51767f7)" d="M 179.189858 273.312 
L 181.508819 273.312 
L 181.508819 266.018763 
L 179.189858 266.018763 
z
" style="fill:#ff7f0e;opacity:0.5;stroke:#000000;stroke-linejoin:miter;"/>
   </g>
   <g id="patch_200">
    <path clip-path="url(#p59d51767f7)" d="M 181.508819 273.312 
L 183.82778 273.312 
L 183.82778 270.394705 
L 181.508819 270.394705 
z
" style="fill:#ff7f0e;opacity:0.5;stroke:#000000;stroke-linejoin:miter;"/>
   </g>
   <g id="patch_201">
    <path clip-path="url(#p59d51767f7)" d="M 183.82778 273.312 
L 186.146741 273.312 
L 186.146741 268.206734 
L 183.82778 268.206734 
z
" style="fill:#ff7f0e;opacity:0.5;stroke:#000000;stroke-linejoin:miter;"/>
   </g>
   <g id="patch_202">
    <path clip-path="url(#p59d51767f7)" d="M 186.146741 273.312 
L 188.465702 273.312 
L 188.465702 267.112748 
L 186.146741 267.112748 
z
" style="fill:#ff7f0e;opacity:0.5;stroke:#000000;stroke-linejoin:miter;"/>
   </g>
   <g id="patch_203">
    <path clip-path="url(#p59d51767f7)" d="M 188.465702 273.312 
L 190.784663 273.312 
L 190.784663 266.018763 
L 188.465702 266.018763 
z
" style="fill:#ff7f0e;opacity:0.5;stroke:#000000;stroke-linejoin:miter;"/>
   </g>
   <g id="patch_204">
    <path clip-path="url(#p59d51767f7)" d="M 190.784663 273.312 
L 193.103624 273.312 
L 193.103624 260.184173 
L 190.784663 260.184173 
z
" style="fill:#ff7f0e;opacity:0.5;stroke:#000000;stroke-linejoin:miter;"/>
   </g>
   <g id="patch_205">
    <path clip-path="url(#p59d51767f7)" d="M 193.103624 273.312 
L 195.422585 273.312 
L 195.422585 260.184173 
L 193.103624 260.184173 
z
" style="fill:#ff7f0e;opacity:0.5;stroke:#000000;stroke-linejoin:miter;"/>
   </g>
   <g id="patch_206">
    <path clip-path="url(#p59d51767f7)" d="M 195.422585 273.312 
L 197.741546 273.312 
L 197.741546 252.526273 
L 195.422585 252.526273 
z
" style="fill:#ff7f0e;opacity:0.5;stroke:#000000;stroke-linejoin:miter;"/>
   </g>
   <g id="patch_207">
    <path clip-path="url(#p59d51767f7)" d="M 197.741546 273.312 
L 200.060507 273.312 
L 200.060507 259.454849 
L 197.741546 259.454849 
z
" style="fill:#ff7f0e;opacity:0.5;stroke:#000000;stroke-linejoin:miter;"/>
   </g>
   <g id="patch_208">
    <path clip-path="url(#p59d51767f7)" d="M 200.060507 273.312 
L 202.379468 273.312 
L 202.379468 259.819511 
L 200.060507 259.819511 
z
" style="fill:#ff7f0e;opacity:0.5;stroke:#000000;stroke-linejoin:miter;"/>
   </g>
   <g id="patch_209">
    <path clip-path="url(#p59d51767f7)" d="M 202.379468 273.312 
L 204.698429 273.312 
L 204.698429 263.830791 
L 202.379468 263.830791 
z
" style="fill:#ff7f0e;opacity:0.5;stroke:#000000;stroke-linejoin:miter;"/>
   </g>
   <g id="patch_210">
    <path clip-path="url(#p59d51767f7)" d="M 204.698429 273.312 
L 207.01739 273.312 
L 207.01739 248.150331 
L 204.698429 248.150331 
z
" style="fill:#ff7f0e;opacity:0.5;stroke:#000000;stroke-linejoin:miter;"/>
   </g>
   <g id="patch_211">
    <path clip-path="url(#p59d51767f7)" d="M 207.01739 273.312 
L 209.336351 273.312 
L 209.336351 252.526273 
L 207.01739 252.526273 
z
" style="fill:#ff7f0e;opacity:0.5;stroke:#000000;stroke-linejoin:miter;"/>
   </g>
   <g id="patch_212">
    <path clip-path="url(#p59d51767f7)" d="M 209.336351 273.312 
L 211.655312 273.312 
L 211.655312 256.902216 
L 209.336351 256.902216 
z
" style="fill:#ff7f0e;opacity:0.5;stroke:#000000;stroke-linejoin:miter;"/>
   </g>
   <g id="patch_213">
    <path clip-path="url(#p59d51767f7)" d="M 211.655312 273.312 
L 213.974274 273.312 
L 213.974274 258.360863 
L 211.655312 258.360863 
z
" style="fill:#ff7f0e;opacity:0.5;stroke:#000000;stroke-linejoin:miter;"/>
   </g>
   <g id="patch_214">
    <path clip-path="url(#p59d51767f7)" d="M 213.974274 273.312 
L 216.293235 273.312 
L 216.293235 253.620259 
L 213.974274 253.620259 
z
" style="fill:#ff7f0e;opacity:0.5;stroke:#000000;stroke-linejoin:miter;"/>
   </g>
   <g id="patch_215">
    <path clip-path="url(#p59d51767f7)" d="M 216.293235 273.312 
L 218.612196 273.312 
L 218.612196 262.372144 
L 216.293235 262.372144 
z
" style="fill:#ff7f0e;opacity:0.5;stroke:#000000;stroke-linejoin:miter;"/>
   </g>
   <g id="patch_216">
    <path clip-path="url(#p59d51767f7)" d="M 218.612196 273.312 
L 220.931157 273.312 
L 220.931157 266.383424 
L 218.612196 266.383424 
z
" style="fill:#ff7f0e;opacity:0.5;stroke:#000000;stroke-linejoin:miter;"/>
   </g>
   <g id="patch_217">
    <path clip-path="url(#p59d51767f7)" d="M 220.931157 273.312 
L 223.250118 273.312 
L 223.250118 256.537554 
L 220.931157 256.537554 
z
" style="fill:#ff7f0e;opacity:0.5;stroke:#000000;stroke-linejoin:miter;"/>
   </g>
   <g id="patch_218">
    <path clip-path="url(#p59d51767f7)" d="M 223.250118 273.312 
L 225.569079 273.312 
L 225.569079 257.266878 
L 223.250118 257.266878 
z
" style="fill:#ff7f0e;opacity:0.5;stroke:#000000;stroke-linejoin:miter;"/>
   </g>
   <g id="patch_219">
    <path clip-path="url(#p59d51767f7)" d="M 225.569079 273.312 
L 227.88804 273.312 
L 227.88804 256.537554 
L 225.569079 256.537554 
z
" style="fill:#ff7f0e;opacity:0.5;stroke:#000000;stroke-linejoin:miter;"/>
   </g>
   <g id="patch_220">
    <path clip-path="url(#p59d51767f7)" d="M 227.88804 273.312 
L 230.207001 273.312 
L 230.207001 256.902216 
L 227.88804 256.902216 
z
" style="fill:#ff7f0e;opacity:0.5;stroke:#000000;stroke-linejoin:miter;"/>
   </g>
   <g id="patch_221">
    <path clip-path="url(#p59d51767f7)" d="M 230.207001 273.312 
L 232.525962 273.312 
L 232.525962 257.63154 
L 230.207001 257.63154 
z
" style="fill:#ff7f0e;opacity:0.5;stroke:#000000;stroke-linejoin:miter;"/>
   </g>
   <g id="patch_222">
    <path clip-path="url(#p59d51767f7)" d="M 232.525962 273.312 
L 234.844923 273.312 
L 234.844923 257.63154 
L 232.525962 257.63154 
z
" style="fill:#ff7f0e;opacity:0.5;stroke:#000000;stroke-linejoin:miter;"/>
   </g>
   <g id="patch_223">
    <path clip-path="url(#p59d51767f7)" d="M 234.844923 273.312 
L 237.163884 273.312 
L 237.163884 259.454849 
L 234.844923 259.454849 
z
" style="fill:#ff7f0e;opacity:0.5;stroke:#000000;stroke-linejoin:miter;"/>
   </g>
   <g id="patch_224">
    <path clip-path="url(#p59d51767f7)" d="M 237.163884 273.312 
L 239.482845 273.312 
L 239.482845 244.13905 
L 237.163884 244.13905 
z
" style="fill:#ff7f0e;opacity:0.5;stroke:#000000;stroke-linejoin:miter;"/>
   </g>
   <g id="patch_225">
    <path clip-path="url(#p59d51767f7)" d="M 239.482845 273.312 
L 241.801806 273.312 
L 241.801806 239.763108 
L 239.482845 239.763108 
z
" style="fill:#ff7f0e;opacity:0.5;stroke:#000000;stroke-linejoin:miter;"/>
   </g>
   <g id="patch_226">
    <path clip-path="url(#p59d51767f7)" d="M 241.801806 273.312 
L 244.120767 273.312 
L 244.120767 236.845813 
L 241.801806 236.845813 
z
" style="fill:#ff7f0e;opacity:0.5;stroke:#000000;stroke-linejoin:miter;"/>
   </g>
   <g id="patch_227">
    <path clip-path="url(#p59d51767f7)" d="M 244.120767 273.312 
L 246.439728 273.312 
L 246.439728 227.364604 
L 244.120767 227.364604 
z
" style="fill:#ff7f0e;opacity:0.5;stroke:#000000;stroke-linejoin:miter;"/>
   </g>
   <g id="patch_228">
    <path clip-path="url(#p59d51767f7)" d="M 246.439728 273.312 
L 248.758689 273.312 
L 248.758689 198.191655 
L 246.439728 198.191655 
z
" style="fill:#ff7f0e;opacity:0.5;stroke:#000000;stroke-linejoin:miter;"/>
   </g>
   <g id="patch_229">
    <path clip-path="url(#p59d51767f7)" d="M 248.758689 273.312 
L 251.07765 273.312 
L 251.07765 215.330763 
L 248.758689 215.330763 
z
" style="fill:#ff7f0e;opacity:0.5;stroke:#000000;stroke-linejoin:miter;"/>
   </g>
   <g id="patch_230">
    <path clip-path="url(#p59d51767f7)" d="M 251.07765 273.312 
L 253.396611 273.312 
L 253.396611 218.977381 
L 251.07765 218.977381 
z
" style="fill:#ff7f0e;opacity:0.5;stroke:#000000;stroke-linejoin:miter;"/>
   </g>
   <g id="patch_231">
    <path clip-path="url(#p59d51767f7)" d="M 253.396611 273.312 
L 255.715572 273.312 
L 255.715572 186.887137 
L 253.396611 186.887137 
z
" style="fill:#ff7f0e;opacity:0.5;stroke:#000000;stroke-linejoin:miter;"/>
   </g>
   <g id="patch_232">
    <path clip-path="url(#p59d51767f7)" d="M 255.715572 273.312 
L 258.034533 273.312 
L 258.034533 171.571338 
L 255.715572 171.571338 
z
" style="fill:#ff7f0e;opacity:0.5;stroke:#000000;stroke-linejoin:miter;"/>
   </g>
   <g id="patch_233">
    <path clip-path="url(#p59d51767f7)" d="M 258.034533 273.312 
L 260.353494 273.312 
L 260.353494 166.466072 
L 258.034533 166.466072 
z
" style="fill:#ff7f0e;opacity:0.5;stroke:#000000;stroke-linejoin:miter;"/>
   </g>
   <g id="patch_234">
    <path clip-path="url(#p59d51767f7)" d="M 260.353494 273.312 
L 262.672455 273.312 
L 262.672455 146.774331 
L 260.353494 146.774331 
z
" style="fill:#ff7f0e;opacity:0.5;stroke:#000000;stroke-linejoin:miter;"/>
   </g>
   <g id="patch_235">
    <path clip-path="url(#p59d51767f7)" d="M 262.672455 273.312 
L 264.991416 273.312 
L 264.991416 131.093871 
L 262.672455 131.093871 
z
" style="fill:#ff7f0e;opacity:0.5;stroke:#000000;stroke-linejoin:miter;"/>
   </g>
   <g id="patch_236">
    <path clip-path="url(#p59d51767f7)" d="M 264.991416 273.312 
L 267.310377 273.312 
L 267.310377 162.819453 
L 264.991416 162.819453 
z
" style="fill:#ff7f0e;opacity:0.5;stroke:#000000;stroke-linejoin:miter;"/>
   </g>
   <g id="patch_237">
    <path clip-path="url(#p59d51767f7)" d="M 267.310377 273.312 
L 269.629338 273.312 
L 269.629338 177.405928 
L 267.310377 177.405928 
z
" style="fill:#ff7f0e;opacity:0.5;stroke:#000000;stroke-linejoin:miter;"/>
   </g>
   <g id="patch_238">
    <path clip-path="url(#p59d51767f7)" d="M 269.629338 273.312 
L 271.9483 273.312 
L 271.9483 99.003626 
L 269.629338 99.003626 
z
" style="fill:#ff7f0e;opacity:0.5;stroke:#000000;stroke-linejoin:miter;"/>
   </g>
   <g id="patch_239">
    <path clip-path="url(#p59d51767f7)" d="M 271.9483 273.312 
L 274.267261 273.312 
L 274.267261 98.638964 
L 271.9483 98.638964 
z
" style="fill:#ff7f0e;opacity:0.5;stroke:#000000;stroke-linejoin:miter;"/>
   </g>
   <g id="patch_240">
    <path clip-path="url(#p59d51767f7)" d="M 274.267261 273.312 
L 276.586222 273.312 
L 276.586222 39.199079 
L 274.267261 39.199079 
z
" style="fill:#ff7f0e;opacity:0.5;stroke:#000000;stroke-linejoin:miter;"/>
   </g>
   <g id="patch_241">
    <path clip-path="url(#p59d51767f7)" d="M 276.586222 273.312 
L 278.905183 273.312 
L 278.905183 40.293065 
L 276.586222 40.293065 
z
" style="fill:#ff7f0e;opacity:0.5;stroke:#000000;stroke-linejoin:miter;"/>
   </g>
   <g id="patch_242">
    <path clip-path="url(#p59d51767f7)" d="M 278.905183 273.312 
L 281.224144 273.312 
L 281.224144 19.872 
L 278.905183 19.872 
z
" style="fill:#ff7f0e;opacity:0.5;stroke:#000000;stroke-linejoin:miter;"/>
   </g>
   <g id="patch_243">
    <path clip-path="url(#p59d51767f7)" d="M 281.224144 273.312 
L 283.543105 273.312 
L 283.543105 107.026187 
L 281.224144 107.026187 
z
" style="fill:#ff7f0e;opacity:0.5;stroke:#000000;stroke-linejoin:miter;"/>
   </g>
   <g id="patch_244">
    <path clip-path="url(#p59d51767f7)" d="M 283.543105 273.312 
L 285.862066 273.312 
L 285.862066 160.631482 
L 283.543105 160.631482 
z
" style="fill:#ff7f0e;opacity:0.5;stroke:#000000;stroke-linejoin:miter;"/>
   </g>
   <g id="patch_245">
    <path clip-path="url(#p59d51767f7)" d="M 285.862066 273.312 
L 288.181027 273.312 
L 288.181027 82.22918 
L 285.862066 82.22918 
z
" style="fill:#ff7f0e;opacity:0.5;stroke:#000000;stroke-linejoin:miter;"/>
   </g>
   <g id="patch_246">
    <path clip-path="url(#p59d51767f7)" d="M 288.181027 273.312 
L 290.499988 273.312 
L 290.499988 60.349468 
L 288.181027 60.349468 
z
" style="fill:#ff7f0e;opacity:0.5;stroke:#000000;stroke-linejoin:miter;"/>
   </g>
   <g id="patch_247">
    <path clip-path="url(#p59d51767f7)" d="M 290.499988 273.312 
L 292.818949 273.312 
L 292.818949 79.676547 
L 290.499988 79.676547 
z
" style="fill:#ff7f0e;opacity:0.5;stroke:#000000;stroke-linejoin:miter;"/>
   </g>
   <g id="patch_248">
    <path clip-path="url(#p59d51767f7)" d="M 292.818949 273.312 
L 295.13791 273.312 
L 295.13791 68.372029 
L 292.818949 68.372029 
z
" style="fill:#ff7f0e;opacity:0.5;stroke:#000000;stroke-linejoin:miter;"/>
   </g>
   <g id="patch_249">
    <path clip-path="url(#p59d51767f7)" d="M 295.13791 273.312 
L 297.456871 273.312 
L 297.456871 67.278043 
L 295.13791 67.278043 
z
" style="fill:#ff7f0e;opacity:0.5;stroke:#000000;stroke-linejoin:miter;"/>
   </g>
   <g id="patch_250">
    <path clip-path="url(#p59d51767f7)" d="M 297.456871 273.312 
L 299.775832 273.312 
L 299.775832 152.973583 
L 297.456871 152.973583 
z
" style="fill:#ff7f0e;opacity:0.5;stroke:#000000;stroke-linejoin:miter;"/>
   </g>
   <g id="patch_251">
    <path clip-path="url(#p59d51767f7)" d="M 299.775832 273.312 
L 302.094793 273.312 
L 302.094793 141.304403 
L 299.775832 141.304403 
z
" style="fill:#ff7f0e;opacity:0.5;stroke:#000000;stroke-linejoin:miter;"/>
   </g>
   <g id="patch_252">
    <path clip-path="url(#p59d51767f7)" d="M 302.094793 273.312 
L 304.413754 273.312 
L 304.413754 122.706647 
L 302.094793 122.706647 
z
" style="fill:#ff7f0e;opacity:0.5;stroke:#000000;stroke-linejoin:miter;"/>
   </g>
   <g id="patch_253">
    <path clip-path="url(#p59d51767f7)" d="M 304.413754 273.312 
L 306.732715 273.312 
L 306.732715 111.766791 
L 304.413754 111.766791 
z
" style="fill:#ff7f0e;opacity:0.5;stroke:#000000;stroke-linejoin:miter;"/>
   </g>
   <g id="patch_254">
    <path clip-path="url(#p59d51767f7)" d="M 306.732715 273.312 
L 309.051676 273.312 
L 309.051676 117.966043 
L 306.732715 117.966043 
z
" style="fill:#ff7f0e;opacity:0.5;stroke:#000000;stroke-linejoin:miter;"/>
   </g>
   <g id="patch_255">
    <path clip-path="url(#p59d51767f7)" d="M 309.051676 273.312 
L 311.370637 273.312 
L 311.370637 112.496115 
L 309.051676 112.496115 
z
" style="fill:#ff7f0e;opacity:0.5;stroke:#000000;stroke-linejoin:miter;"/>
   </g>
   <g id="patch_256">
    <path clip-path="url(#p59d51767f7)" d="M 311.370637 273.312 
L 313.689598 273.312 
L 313.689598 144.951022 
L 311.370637 144.951022 
z
" style="fill:#ff7f0e;opacity:0.5;stroke:#000000;stroke-linejoin:miter;"/>
   </g>
   <g id="patch_257">
    <path clip-path="url(#p59d51767f7)" d="M 313.689598 273.312 
L 316.008559 273.312 
L 316.008559 199.650302 
L 313.689598 199.650302 
z
" style="fill:#ff7f0e;opacity:0.5;stroke:#000000;stroke-linejoin:miter;"/>
   </g>
   <g id="patch_258">
    <path clip-path="url(#p59d51767f7)" d="M 316.008559 273.312 
L 318.32752 273.312 
L 318.32752 210.590158 
L 316.008559 210.590158 
z
" style="fill:#ff7f0e;opacity:0.5;stroke:#000000;stroke-linejoin:miter;"/>
   </g>
   <g id="patch_259">
    <path clip-path="url(#p59d51767f7)" d="M 318.32752 273.312 
L 320.646481 273.312 
L 320.646481 166.830734 
L 318.32752 166.830734 
z
" style="fill:#ff7f0e;opacity:0.5;stroke:#000000;stroke-linejoin:miter;"/>
   </g>
   <g id="patch_260">
    <path clip-path="url(#p59d51767f7)" d="M 320.646481 273.312 
L 322.965442 273.312 
L 322.965442 193.815712 
L 320.646481 193.815712 
z
" style="fill:#ff7f0e;opacity:0.5;stroke:#000000;stroke-linejoin:miter;"/>
   </g>
   <g id="patch_261">
    <path clip-path="url(#p59d51767f7)" d="M 322.965442 273.312 
L 325.284403 273.312 
L 325.284403 212.048806 
L 322.965442 212.048806 
z
" style="fill:#ff7f0e;opacity:0.5;stroke:#000000;stroke-linejoin:miter;"/>
   </g>
   <g id="patch_262">
    <path clip-path="url(#p59d51767f7)" d="M 325.284403 273.312 
L 327.603364 273.312 
L 327.603364 168.289381 
L 325.284403 168.289381 
z
" style="fill:#ff7f0e;opacity:0.5;stroke:#000000;stroke-linejoin:miter;"/>
   </g>
   <g id="patch_263">
    <path clip-path="url(#p59d51767f7)" d="M 327.603364 273.312 
L 329.922325 273.312 
L 329.922325 162.454791 
L 327.603364 162.454791 
z
" style="fill:#ff7f0e;opacity:0.5;stroke:#000000;stroke-linejoin:miter;"/>
   </g>
   <g id="patch_264">
    <path clip-path="url(#p59d51767f7)" d="M 329.922325 273.312 
L 332.241287 273.312 
L 332.241287 206.214216 
L 329.922325 206.214216 
z
" style="fill:#ff7f0e;opacity:0.5;stroke:#000000;stroke-linejoin:miter;"/>
   </g>
   <g id="patch_265">
    <path clip-path="url(#p59d51767f7)" d="M 332.241287 273.312 
L 334.560248 273.312 
L 334.560248 218.248058 
L 332.241287 218.248058 
z
" style="fill:#ff7f0e;opacity:0.5;stroke:#000000;stroke-linejoin:miter;"/>
   </g>
   <g id="patch_266">
    <path clip-path="url(#p59d51767f7)" d="M 334.560248 273.312 
L 336.879209 273.312 
L 336.879209 230.646561 
L 334.560248 230.646561 
z
" style="fill:#ff7f0e;opacity:0.5;stroke:#000000;stroke-linejoin:miter;"/>
   </g>
   <g id="patch_267">
    <path clip-path="url(#p59d51767f7)" d="M 336.879209 273.312 
L 339.19817 273.312 
L 339.19817 237.575137 
L 336.879209 237.575137 
z
" style="fill:#ff7f0e;opacity:0.5;stroke:#000000;stroke-linejoin:miter;"/>
   </g>
   <g id="patch_268">
    <path clip-path="url(#p59d51767f7)" d="M 339.19817 273.312 
L 341.517131 273.312 
L 341.517131 241.221755 
L 339.19817 241.221755 
z
" style="fill:#ff7f0e;opacity:0.5;stroke:#000000;stroke-linejoin:miter;"/>
   </g>
   <g id="patch_269">
    <path clip-path="url(#p59d51767f7)" d="M 341.517131 273.312 
L 343.836092 273.312 
L 343.836092 237.575137 
L 341.517131 237.575137 
z
" style="fill:#ff7f0e;opacity:0.5;stroke:#000000;stroke-linejoin:miter;"/>
   </g>
   <g id="patch_270">
    <path clip-path="url(#p59d51767f7)" d="M 343.836092 273.312 
L 346.155053 273.312 
L 346.155053 231.375885 
L 343.836092 231.375885 
z
" style="fill:#ff7f0e;opacity:0.5;stroke:#000000;stroke-linejoin:miter;"/>
   </g>
   <g id="patch_271">
    <path clip-path="url(#p59d51767f7)" d="M 346.155053 273.312 
L 348.474014 273.312 
L 348.474014 249.244317 
L 346.155053 249.244317 
z
" style="fill:#ff7f0e;opacity:0.5;stroke:#000000;stroke-linejoin:miter;"/>
   </g>
   <g id="patch_272">
    <path clip-path="url(#p59d51767f7)" d="M 348.474014 273.312 
L 350.792975 273.312 
L 350.792975 260.184173 
L 348.474014 260.184173 
z
" style="fill:#ff7f0e;opacity:0.5;stroke:#000000;stroke-linejoin:miter;"/>
   </g>
   <g id="patch_273">
    <path clip-path="url(#p59d51767f7)" d="M 350.792975 273.312 
L 353.111936 273.312 
L 353.111936 246.327022 
L 350.792975 246.327022 
z
" style="fill:#ff7f0e;opacity:0.5;stroke:#000000;stroke-linejoin:miter;"/>
   </g>
   <g id="patch_274">
    <path clip-path="url(#p59d51767f7)" d="M 353.111936 273.312 
L 355.430897 273.312 
L 355.430897 245.597698 
L 353.111936 245.597698 
z
" style="fill:#ff7f0e;opacity:0.5;stroke:#000000;stroke-linejoin:miter;"/>
   </g>
   <g id="patch_275">
    <path clip-path="url(#p59d51767f7)" d="M 355.430897 273.312 
L 357.749858 273.312 
L 357.749858 243.774388 
L 355.430897 243.774388 
z
" style="fill:#ff7f0e;opacity:0.5;stroke:#000000;stroke-linejoin:miter;"/>
   </g>
   <g id="patch_276">
    <path clip-path="url(#p59d51767f7)" d="M 357.749858 273.312 
L 360.068819 273.312 
L 360.068819 250.702964 
L 357.749858 250.702964 
z
" style="fill:#ff7f0e;opacity:0.5;stroke:#000000;stroke-linejoin:miter;"/>
   </g>
   <g id="patch_277">
    <path clip-path="url(#p59d51767f7)" d="M 360.068819 273.312 
L 362.38778 273.312 
L 362.38778 258.725525 
L 360.068819 258.725525 
z
" style="fill:#ff7f0e;opacity:0.5;stroke:#000000;stroke-linejoin:miter;"/>
   </g>
   <g id="patch_278">
    <path clip-path="url(#p59d51767f7)" d="M 362.38778 273.312 
L 364.706741 273.312 
L 364.706741 264.924777 
L 362.38778 264.924777 
z
" style="fill:#ff7f0e;opacity:0.5;stroke:#000000;stroke-linejoin:miter;"/>
   </g>
   <g id="patch_279">
    <path clip-path="url(#p59d51767f7)" d="M 364.706741 273.312 
L 367.025702 273.312 
L 367.025702 264.924777 
L 364.706741 264.924777 
z
" style="fill:#ff7f0e;opacity:0.5;stroke:#000000;stroke-linejoin:miter;"/>
   </g>
   <g id="patch_280">
    <path clip-path="url(#p59d51767f7)" d="M 367.025702 273.312 
L 369.344663 273.312 
L 369.344663 260.913496 
L 367.025702 260.913496 
z
" style="fill:#ff7f0e;opacity:0.5;stroke:#000000;stroke-linejoin:miter;"/>
   </g>
   <g id="patch_281">
    <path clip-path="url(#p59d51767f7)" d="M 369.344663 273.312 
L 371.663624 273.312 
L 371.663624 266.383424 
L 369.344663 266.383424 
z
" style="fill:#ff7f0e;opacity:0.5;stroke:#000000;stroke-linejoin:miter;"/>
   </g>
   <g id="patch_282">
    <path clip-path="url(#p59d51767f7)" d="M 371.663624 273.312 
L 373.982585 273.312 
L 373.982585 269.300719 
L 371.663624 269.300719 
z
" style="fill:#ff7f0e;opacity:0.5;stroke:#000000;stroke-linejoin:miter;"/>
   </g>
   <g id="matplotlib.axis_1">
    <g id="xtick_1">
     <g id="line2d_1">
      <defs>
       <path d="M 0 0 
L 0 3.5 
" id="mef10dd87df" style="stroke:#000000;stroke-width:0.8;"/>
      </defs>
      <g>
       <use style="stroke:#000000;stroke-width:0.8;" x="44.690118" xlink:href="#mef10dd87df" y="273.312"/>
      </g>
     </g>
     <g id="text_1">
      <!-- 2020 -->
      <defs>
       <path d="M 57.171875 0.984375 
L 6.984375 0.984375 
L 6.984375 9.28125 
Q 12.890625 23.046875 29.59375 34.421875 
L 32.375 36.28125 
Q 40.921875 42.140625 43.609375 45.40625 
Q 46.6875 49.265625 46.6875 53.8125 
Q 46.6875 58.9375 43.0625 62.546875 
Q 39.0625 66.546875 32.5625 66.546875 
Q 19.53125 66.546875 15.484375 52 
L 7.765625 54.78125 
Q 13.328125 73.828125 33.0625 73.828125 
Q 43.84375 73.828125 50.25 67.4375 
Q 55.859375 61.671875 55.859375 53.515625 
Q 55.859375 47.46875 52.25 42.53125 
Q 48.921875 37.75 36.96875 30.28125 
L 34.859375 29 
Q 19.625 19.578125 15.28125 8.890625 
L 57.171875 8.890625 
z
" id="IPAexGothic-50"/>
       <path d="M 31.84375 73.828125 
Q 45.015625 73.828125 52.09375 61.625 
Q 57.71875 51.953125 57.71875 36.625 
Q 57.71875 21.4375 52.09375 11.578125 
Q 45.125 -0.484375 31.5 -0.484375 
Q 17.921875 -0.484375 10.9375 11.578125 
Q 5.328125 21.4375 5.328125 36.71875 
Q 5.328125 58.015625 15.625 67.71875 
Q 22.171875 73.828125 31.84375 73.828125 
z
M 31.5 66.65625 
Q 23.6875 66.65625 19.1875 58.734375 
Q 14.59375 50.734375 14.59375 36.625 
Q 14.59375 22.75 19.09375 14.796875 
Q 23.640625 6.984375 31.5 6.984375 
Q 40.921875 6.984375 45.453125 18.015625 
Q 48.4375 25.34375 48.4375 37.109375 
Q 48.4375 50.875 43.84375 58.734375 
Q 39.203125 66.65625 31.5 66.65625 
z
" id="IPAexGothic-48"/>
      </defs>
      <g transform="translate(32.093243 287.802625)scale(0.1 -0.1)">
       <use xlink:href="#IPAexGothic-50"/>
       <use x="62.988281" xlink:href="#IPAexGothic-48"/>
       <use x="125.976562" xlink:href="#IPAexGothic-50"/>
       <use x="188.964844" xlink:href="#IPAexGothic-48"/>
      </g>
     </g>
    </g>
    <g id="xtick_2">
     <g id="line2d_2">
      <g>
       <use style="stroke:#000000;stroke-width:0.8;" x="116.57791" xlink:href="#mef10dd87df" y="273.312"/>
      </g>
     </g>
     <g id="text_2">
      <!-- Feb -->
      <defs>
       <path d="M 54.203125 64.703125 
L 18.3125 64.703125 
L 18.3125 41.5 
L 50.09375 41.5 
L 50.09375 34.1875 
L 18.3125 34.1875 
L 18.3125 0.984375 
L 9.515625 0.984375 
L 9.515625 72.40625 
L 54.203125 72.40625 
z
" id="IPAexGothic-70"/>
       <path d="M 13.484375 24.90625 
Q 13.921875 16.265625 18.890625 11.28125 
Q 23.96875 6.203125 31.203125 6.203125 
Q 40.71875 6.203125 46.296875 15.09375 
L 51.90625 11.375 
Q 44.828125 -0.484375 30.171875 -0.484375 
Q 19.09375 -0.484375 11.96875 6.59375 
Q 4.78125 13.8125 4.78125 25.640625 
Q 4.78125 38.1875 12.3125 45.703125 
Q 19 52.390625 29 52.390625 
Q 38.421875 52.390625 44.78125 46.1875 
Q 51.90625 38.96875 51.90625 26.90625 
L 51.90625 24.90625 
z
M 43.0625 31.203125 
Q 42.328125 37.984375 38.28125 41.890625 
Q 34.28125 45.90625 28.8125 45.90625 
Q 22.46875 45.90625 17.96875 40.484375 
Q 14.890625 36.8125 13.96875 31.203125 
z
" id="IPAexGothic-101"/>
       <path d="M 17.578125 42.671875 
Q 24.21875 52.203125 34.671875 52.203125 
Q 43.5625 52.203125 49.859375 45.90625 
Q 57.171875 38.578125 57.171875 25.6875 
Q 57.171875 13.09375 49.859375 5.8125 
Q 43.5625 -0.484375 34.46875 -0.484375 
Q 24.359375 -0.484375 17 8.0625 
L 15.765625 0.6875 
L 9.078125 0.6875 
L 9.078125 74.90625 
L 17.578125 74.90625 
z
M 17.578125 31.203125 
L 17.578125 19.578125 
Q 17.578125 13.875 23.875 9.375 
Q 28.171875 6.296875 33.109375 6.296875 
Q 38.875 6.296875 42.875 10.296875 
Q 48.1875 15.765625 48.1875 25.484375 
Q 48.1875 34.28125 43.796875 39.890625 
Q 39.453125 45.3125 33.203125 45.3125 
Q 27.484375 45.3125 22.46875 40.28125 
Q 17.578125 35.40625 17.578125 31.203125 
z
" id="IPAexGothic-98"/>
      </defs>
      <g transform="translate(107.754472 287.802625)scale(0.1 -0.1)">
       <use xlink:href="#IPAexGothic-70"/>
       <use x="57.177734" xlink:href="#IPAexGothic-101"/>
       <use x="114.0625" xlink:href="#IPAexGothic-98"/>
      </g>
     </g>
    </g>
    <g id="xtick_3">
     <g id="line2d_3">
      <g>
       <use style="stroke:#000000;stroke-width:0.8;" x="183.82778" xlink:href="#mef10dd87df" y="273.312"/>
      </g>
     </g>
     <g id="text_3">
      <!-- Mar -->
      <defs>
       <path d="M 80.421875 0.984375 
L 71.828125 0.984375 
L 71.828125 39.59375 
Q 71.828125 51.265625 72.40625 64.59375 
L 72.015625 64.59375 
Q 68.0625 53.265625 63.53125 41.796875 
L 47.90625 3.265625 
L 41.40625 3.265625 
L 25.640625 42.578125 
Q 20.75 54.78125 17.625 64.703125 
L 17.234375 64.703125 
Q 17.828125 48.921875 17.828125 39.890625 
L 17.828125 0.984375 
L 9.515625 0.984375 
L 9.515625 72.40625 
L 22.125 72.40625 
L 39.109375 30.375 
Q 42.140625 23 44.828125 14.15625 
L 45.125 14.15625 
Q 47.3125 22.125 50.53125 30.171875 
L 67.4375 72.40625 
L 80.421875 72.40625 
z
" id="IPAexGothic-77"/>
       <path d="M 49.3125 0.984375 
L 41.75 0.984375 
Q 39.984375 4.734375 39.546875 8.6875 
L 39.203125 8.6875 
Q 33.546875 -0.390625 22.3125 -0.390625 
Q 14.59375 -0.390625 9.71875 4.5 
Q 5.421875 8.796875 5.421875 14.984375 
Q 5.421875 30.421875 32.03125 31.203125 
L 38.71875 31.390625 
L 38.71875 33.984375 
Q 38.71875 39.203125 35.75 42.1875 
Q 32.625 45.3125 27.734375 45.3125 
Q 19.34375 45.3125 15.140625 37.15625 
L 7.71875 40.578125 
Q 14.65625 52 27.9375 52 
Q 37.109375 52 42.046875 46.875 
Q 46.625 42.28125 46.625 33.890625 
L 46.625 15.578125 
Q 46.625 6.25 49.3125 0.984375 
z
M 38.921875 25.390625 
L 33.453125 25.296875 
Q 14.109375 24.859375 14.109375 14.890625 
Q 14.109375 11.375 16.40625 9.078125 
Q 19.234375 6.296875 23.828125 6.296875 
Q 30.21875 6.296875 34.90625 10.984375 
Q 38.921875 15.140625 38.921875 21 
z
" id="IPAexGothic-97"/>
       <path d="M 36.078125 51.8125 
L 34.578125 43.265625 
Q 32.90625 43.609375 31.59375 43.609375 
Q 25.828125 43.609375 22.078125 38.1875 
Q 17.390625 31.34375 17.390625 26.171875 
L 17.390625 0.984375 
L 8.796875 0.984375 
L 8.796875 50.78125 
L 16.890625 50.78125 
L 16.5 35.984375 
L 16.703125 35.984375 
Q 22.21875 52.203125 32.765625 52.203125 
Q 34.46875 52.203125 36.078125 51.8125 
z
" id="IPAexGothic-114"/>
      </defs>
      <g transform="translate(174.718405 287.802625)scale(0.1 -0.1)">
       <use xlink:href="#IPAexGothic-77"/>
       <use x="90.185547" xlink:href="#IPAexGothic-97"/>
       <use x="145.166016" xlink:href="#IPAexGothic-114"/>
      </g>
     </g>
    </g>
    <g id="xtick_4">
     <g id="line2d_4">
      <g>
       <use style="stroke:#000000;stroke-width:0.8;" x="255.715572" xlink:href="#mef10dd87df" y="273.312"/>
      </g>
     </g>
     <g id="text_4">
      <!-- Apr -->
      <defs>
       <path d="M 63.375 0.984375 
L 53.8125 0.984375 
L 45.90625 22.015625 
L 17.1875 22.015625 
L 9.421875 0.984375 
L -0.09375 0.984375 
L 28.21875 72.90625 
L 35.296875 72.90625 
z
M 43.40625 29.109375 
L 36.1875 48.09375 
Q 33.203125 56.0625 31.6875 62.5 
L 31.390625 62.5 
Q 29.640625 55.671875 26.8125 48.09375 
L 19.734375 29.109375 
z
" id="IPAexGothic-65"/>
       <path d="M 16.796875 42 
Q 23.828125 52.203125 34.46875 52.203125 
Q 43.265625 52.203125 49.5625 45.90625 
Q 56.890625 38.578125 56.890625 25.6875 
Q 56.890625 13.140625 49.65625 5.8125 
Q 43.359375 -0.484375 34.375 -0.484375 
Q 24.515625 -0.484375 17.28125 7.765625 
L 17.28125 -19 
L 8.796875 -19 
L 8.796875 50.78125 
L 16.796875 50.78125 
z
M 17.28125 30.46875 
L 17.28125 20.171875 
Q 17.28125 14.015625 23.6875 9.375 
Q 27.984375 6.296875 32.90625 6.296875 
Q 38.578125 6.296875 42.578125 10.296875 
Q 47.90625 15.578125 47.90625 25.484375 
Q 47.90625 34.375 43.5 39.984375 
Q 39.109375 45.3125 32.8125 45.3125 
Q 25.875 45.3125 20.90625 38.8125 
Q 17.28125 34.125 17.28125 30.46875 
z
" id="IPAexGothic-112"/>
      </defs>
      <g transform="translate(247.573385 287.802625)scale(0.1 -0.1)">
       <use xlink:href="#IPAexGothic-65"/>
       <use x="63.720703" xlink:href="#IPAexGothic-112"/>
       <use x="125.830078" xlink:href="#IPAexGothic-114"/>
      </g>
     </g>
    </g>
    <g id="xtick_5">
     <g id="line2d_5">
      <g>
       <use style="stroke:#000000;stroke-width:0.8;" x="325.284403" xlink:href="#mef10dd87df" y="273.312"/>
      </g>
     </g>
     <g id="text_5">
      <!-- May -->
      <defs>
       <path d="M 48.78125 50.78125 
L 24.609375 -7.625 
Q 19.96875 -18.796875 8.59375 -18.796875 
L 7.46875 -18.796875 
L 5.375 -10.984375 
L 6.984375 -10.984375 
Q 15.140625 -10.984375 17.96875 -3.71875 
L 21.1875 4.296875 
L 0.59375 50.78125 
L 10.296875 50.78125 
L 21.296875 22.796875 
Q 23.875 16.015625 25.09375 12.203125 
L 25.390625 12.203125 
Q 27.34375 18.265625 29.109375 22.796875 
L 39.5 50.78125 
z
" id="IPAexGothic-121"/>
      </defs>
      <g transform="translate(315.564872 287.802625)scale(0.1 -0.1)">
       <use xlink:href="#IPAexGothic-77"/>
       <use x="90.185547" xlink:href="#IPAexGothic-97"/>
       <use x="145.166016" xlink:href="#IPAexGothic-121"/>
      </g>
     </g>
    </g>
    <g id="text_6">
     <!-- 2020 -->
     <g transform="translate(365.021562 300.19325)scale(0.1 -0.1)">
      <use xlink:href="#IPAexGothic-50"/>
      <use x="62.988281" xlink:href="#IPAexGothic-48"/>
      <use x="125.976562" xlink:href="#IPAexGothic-50"/>
      <use x="188.964844" xlink:href="#IPAexGothic-48"/>
     </g>
    </g>
   </g>
   <g id="matplotlib.axis_2">
    <g id="ytick_1">
     <g id="line2d_6">
      <defs>
       <path d="M 0 0 
L -3.5 0 
" id="m0e9b6baf27" style="stroke:#000000;stroke-width:0.8;"/>
      </defs>
      <g>
       <use style="stroke:#000000;stroke-width:0.8;" x="33.095313" xlink:href="#m0e9b6baf27" y="273.312"/>
      </g>
     </g>
     <g id="text_7">
      <!-- 0 -->
      <g transform="translate(19.796875 277.057312)scale(0.1 -0.1)">
       <use xlink:href="#IPAexGothic-48"/>
      </g>
     </g>
    </g>
    <g id="ytick_2">
     <g id="line2d_7">
      <g>
       <use style="stroke:#000000;stroke-width:0.8;" x="33.095313" xlink:href="#m0e9b6baf27" y="236.845813"/>
      </g>
     </g>
     <g id="text_8">
      <!-- 100 -->
      <defs>
       <path d="M 38.484375 0.984375 
L 29.6875 0.984375 
L 29.6875 64.109375 
Q 21.4375 61.28125 12.3125 59.328125 
L 10.6875 66.109375 
Q 23.734375 69.390625 32.90625 73.921875 
L 38.484375 73.921875 
z
" id="IPAexGothic-49"/>
      </defs>
      <g transform="translate(7.2 240.591125)scale(0.1 -0.1)">
       <use xlink:href="#IPAexGothic-49"/>
       <use x="62.988281" xlink:href="#IPAexGothic-48"/>
       <use x="125.976562" xlink:href="#IPAexGothic-48"/>
      </g>
     </g>
    </g>
    <g id="ytick_3">
     <g id="line2d_8">
      <g>
       <use style="stroke:#000000;stroke-width:0.8;" x="33.095313" xlink:href="#m0e9b6baf27" y="200.379626"/>
      </g>
     </g>
     <g id="text_9">
      <!-- 200 -->
      <g transform="translate(7.2 204.124938)scale(0.1 -0.1)">
       <use xlink:href="#IPAexGothic-50"/>
       <use x="62.988281" xlink:href="#IPAexGothic-48"/>
       <use x="125.976562" xlink:href="#IPAexGothic-48"/>
      </g>
     </g>
    </g>
    <g id="ytick_4">
     <g id="line2d_9">
      <g>
       <use style="stroke:#000000;stroke-width:0.8;" x="33.095313" xlink:href="#m0e9b6baf27" y="163.913439"/>
      </g>
     </g>
     <g id="text_10">
      <!-- 300 -->
      <defs>
       <path d="M 37.203125 37.796875 
Q 54.78125 34.625 54.78125 19.96875 
Q 54.78125 11.1875 48.875 5.5625 
Q 42.328125 -0.484375 30.375 -0.484375 
Q 12.453125 -0.484375 4.5 13.765625 
L 11.8125 17.671875 
Q 17.328125 6.890625 30.28125 6.890625 
Q 37.890625 6.890625 42.09375 10.796875 
Q 46.09375 14.5 46.09375 20.171875 
Q 46.09375 26.859375 40.09375 30.90625 
Q 34.625 34.578125 25.6875 34.578125 
L 21.296875 34.578125 
L 21.296875 41.703125 
L 25.875 41.703125 
Q 34.859375 41.703125 39.59375 45.125 
Q 44.671875 48.734375 44.671875 54.828125 
Q 44.671875 61.46875 38.96875 64.65625 
Q 35.296875 66.84375 30.171875 66.84375 
Q 19.34375 66.84375 14.109375 55.90625 
L 6.78125 59.421875 
Q 14.015625 73.828125 30.28125 73.828125 
Q 40.578125 73.828125 46.96875 68.65625 
Q 53.375 63.578125 53.375 55.21875 
Q 53.375 47.3125 47.171875 42.28125 
Q 43.171875 39.0625 37.203125 38.1875 
z
" id="IPAexGothic-51"/>
      </defs>
      <g transform="translate(7.2 167.658751)scale(0.1 -0.1)">
       <use xlink:href="#IPAexGothic-51"/>
       <use x="62.988281" xlink:href="#IPAexGothic-48"/>
       <use x="125.976562" xlink:href="#IPAexGothic-48"/>
      </g>
     </g>
    </g>
    <g id="ytick_5">
     <g id="line2d_10">
      <g>
       <use style="stroke:#000000;stroke-width:0.8;" x="33.095313" xlink:href="#m0e9b6baf27" y="127.447252"/>
      </g>
     </g>
     <g id="text_11">
      <!-- 400 -->
      <defs>
       <path d="M 59.578125 18.109375 
L 47.796875 18.109375 
L 47.796875 0.984375 
L 39.796875 0.984375 
L 39.796875 18.109375 
L 3.078125 18.109375 
L 3.078125 26.125 
L 38.375 73.09375 
L 47.796875 73.09375 
L 47.796875 25.53125 
L 59.578125 25.53125 
z
M 40.28125 64.203125 
L 39.984375 64.203125 
Q 35.59375 57.125 31.296875 51.3125 
L 11.859375 25.53125 
L 39.796875 25.53125 
L 39.796875 49.125 
Q 39.796875 54.390625 40.28125 64.203125 
z
" id="IPAexGothic-52"/>
      </defs>
      <g transform="translate(7.2 131.192564)scale(0.1 -0.1)">
       <use xlink:href="#IPAexGothic-52"/>
       <use x="62.988281" xlink:href="#IPAexGothic-48"/>
       <use x="125.976562" xlink:href="#IPAexGothic-48"/>
      </g>
     </g>
    </g>
    <g id="ytick_6">
     <g id="line2d_11">
      <g>
       <use style="stroke:#000000;stroke-width:0.8;" x="33.095313" xlink:href="#m0e9b6baf27" y="90.981065"/>
      </g>
     </g>
     <g id="text_12">
      <!-- 500 -->
      <defs>
       <path d="M 18.40625 40.671875 
Q 25.53125 46.296875 33.9375 46.296875 
Q 44 46.296875 50.640625 39.5 
Q 56.84375 33.015625 56.84375 23.390625 
Q 56.84375 14.65625 51.515625 8.015625 
Q 44.828125 -0.484375 31.734375 -0.484375 
Q 14.984375 -0.484375 7.328125 12.25 
L 14.65625 16.0625 
Q 20.453125 6.78125 31.453125 6.78125 
Q 38.53125 6.78125 43.265625 11.1875 
Q 48.140625 15.828125 48.140625 23.484375 
Q 48.140625 30.71875 43.84375 35.015625 
Q 39.359375 39.5 32.125 39.5 
Q 21.96875 39.5 16.75 31.6875 
L 9.234375 32.671875 
L 13.8125 72.40625 
L 53.21875 72.40625 
L 53.21875 64.890625 
L 20.953125 64.890625 
L 17.71875 40.671875 
z
" id="IPAexGothic-53"/>
      </defs>
      <g transform="translate(7.2 94.726377)scale(0.1 -0.1)">
       <use xlink:href="#IPAexGothic-53"/>
       <use x="62.988281" xlink:href="#IPAexGothic-48"/>
       <use x="125.976562" xlink:href="#IPAexGothic-48"/>
      </g>
     </g>
    </g>
    <g id="ytick_7">
     <g id="line2d_12">
      <g>
       <use style="stroke:#000000;stroke-width:0.8;" x="33.095313" xlink:href="#m0e9b6baf27" y="54.514878"/>
      </g>
     </g>
     <g id="text_13">
      <!-- 600 -->
      <defs>
       <path d="M 16.5 36.375 
Q 23.578125 46.578125 34.90625 46.578125 
Q 45.40625 46.578125 51.8125 39.265625 
Q 57.421875 32.90625 57.421875 23.78125 
Q 57.421875 13.8125 51.125 6.78125 
Q 44.578125 -0.484375 34.03125 -0.484375 
Q 21.484375 -0.484375 14.40625 9.078125 
Q 7.515625 18.40625 7.515625 34.8125 
Q 7.515625 53.515625 15.828125 64.203125 
Q 23.34375 73.828125 35.5 73.828125 
Q 49.859375 73.828125 56.390625 62.890625 
L 49.21875 58.984375 
Q 45.21875 66.65625 35.9375 66.65625 
Q 17.484375 66.65625 16.109375 36.375 
z
M 33.453125 39.796875 
Q 26.3125 39.796875 21.625 34.46875 
Q 17.4375 29.6875 17.4375 24.078125 
Q 17.4375 18.0625 21.140625 13.1875 
Q 26.125 6.6875 33.734375 6.6875 
Q 41.703125 6.6875 45.953125 13.1875 
Q 48.828125 17.625 48.828125 23.484375 
Q 48.828125 30.375 45.015625 34.8125 
Q 40.625 39.796875 33.453125 39.796875 
z
" id="IPAexGothic-54"/>
      </defs>
      <g transform="translate(7.2 58.26019)scale(0.1 -0.1)">
       <use xlink:href="#IPAexGothic-54"/>
       <use x="62.988281" xlink:href="#IPAexGothic-48"/>
       <use x="125.976562" xlink:href="#IPAexGothic-48"/>
      </g>
     </g>
    </g>
    <g id="ytick_8">
     <g id="line2d_13">
      <g>
       <use style="stroke:#000000;stroke-width:0.8;" x="33.095313" xlink:href="#m0e9b6baf27" y="18.048691"/>
      </g>
     </g>
     <g id="text_14">
      <!-- 700 -->
      <defs>
       <path d="M 56.203125 66.609375 
Q 34.96875 32.90625 27.78125 0.984375 
L 17.671875 0.984375 
Q 24.703125 28.65625 46.09375 64.5 
L 6.6875 64.5 
L 6.6875 72.40625 
L 56.203125 72.40625 
z
" id="IPAexGothic-55"/>
      </defs>
      <g transform="translate(7.2 21.794003)scale(0.1 -0.1)">
       <use xlink:href="#IPAexGothic-55"/>
       <use x="62.988281" xlink:href="#IPAexGothic-48"/>
       <use x="125.976562" xlink:href="#IPAexGothic-48"/>
      </g>
     </g>
    </g>
   </g>
   <g id="patch_283">
    <path d="M 33.095313 273.312 
L 33.095313 7.2 
" style="fill:none;stroke:#000000;stroke-linecap:square;stroke-linejoin:miter;stroke-width:0.8;"/>
   </g>
   <g id="patch_284">
    <path d="M 390.215312 273.312 
L 390.215312 7.2 
" style="fill:none;stroke:#000000;stroke-linecap:square;stroke-linejoin:miter;stroke-width:0.8;"/>
   </g>
   <g id="patch_285">
    <path d="M 33.095312 273.312 
L 390.215312 273.312 
" style="fill:none;stroke:#000000;stroke-linecap:square;stroke-linejoin:miter;stroke-width:0.8;"/>
   </g>
   <g id="patch_286">
    <path d="M 33.095312 7.2 
L 390.215312 7.2 
" style="fill:none;stroke:#000000;stroke-linecap:square;stroke-linejoin:miter;stroke-width:0.8;"/>
   </g>
   <g id="legend_1">
    <g id="patch_287">
     <path d="M 40.095313 45.353125 
L 159.078125 45.353125 
Q 161.078125 45.353125 161.078125 43.353125 
L 161.078125 14.2 
Q 161.078125 12.2 159.078125 12.2 
L 40.095313 12.2 
Q 38.095313 12.2 38.095313 14.2 
L 38.095313 43.353125 
Q 38.095313 45.353125 40.095313 45.353125 
z
" style="fill:#ffffff;opacity:0.8;stroke:#cccccc;stroke-linejoin:miter;"/>
    </g>
    <g id="patch_288">
     <path d="M 42.095313 24.320312 
L 62.095313 24.320312 
L 62.095313 17.320312 
L 42.095313 17.320312 
z
" style="fill:#1f77b4;opacity:0.5;stroke:#000000;stroke-linejoin:miter;"/>
    </g>
    <g id="text_15">
     <!--  (onset) -->
     <defs>
      <path d="M 73.734375 56.84375 
Q 80.609375 62.75 85.203125 68.609375 
L 91.109375 64.40625 
Q 84.46875 57.8125 78.71875 53.328125 
Q 85.9375 48.6875 95.40625 44.625 
L 90.625 38.375 
Q 81.734375 42.78125 73.53125 48.640625 
L 73.53125 43.3125 
L 64.109375 43.3125 
L 64.109375 29.984375 
L 89.890625 29.984375 
L 89.890625 23.78125 
L 64.109375 23.78125 
L 64.109375 5.609375 
Q 64.109375 2.484375 65.71875 2.046875 
Q 67.390625 1.46875 73.09375 1.46875 
Q 82.125 1.46875 83.59375 2.984375 
Q 85.0625 4.4375 85.5 11.96875 
Q 85.5 13.484375 85.59375 14.0625 
L 92.625 11.578125 
Q 92.1875 0.390625 89.703125 -2.203125 
Q 87.0625 -5.328125 72.609375 -5.328125 
Q 63.8125 -5.328125 60.9375 -4 
Q 57.03125 -2.34375 57.03125 3.328125 
L 57.03125 23.78125 
L 42.578125 23.78125 
Q 40.1875 0.53125 11.078125 -7.421875 
L 7.28125 -0.984375 
Q 33.25 5.421875 35.5 23.78125 
L 10.015625 23.78125 
L 10.015625 29.984375 
L 35.796875 29.984375 
L 35.796875 43.3125 
L 27.78125 43.3125 
L 27.78125 47.015625 
Q 19.734375 41.359375 9.078125 36.1875 
L 4.5 42.1875 
Q 16.3125 46.734375 25.984375 53.8125 
Q 19.828125 60.15625 13.484375 64.59375 
L 18.609375 69.140625 
Q 26.515625 62.59375 31.109375 58.015625 
Q 38.03125 64.0625 43.171875 72.125 
L 20.0625 72.125 
L 20.0625 78.21875 
L 54 78.21875 
Q 58.203125 71.34375 62.890625 66.3125 
Q 69.09375 71.625 74.03125 77.9375 
L 79.828125 73.734375 
Q 74.171875 67.625 67.09375 62.203125 
Q 70.40625 59.078125 73.734375 56.84375 
z
M 57.03125 43.3125 
L 42.78125 43.3125 
L 42.78125 29.984375 
L 57.03125 29.984375 
z
M 30.90625 49.3125 
L 72.515625 49.3125 
Q 58.6875 59.28125 50.59375 71 
Q 43.21875 58.890625 30.90625 49.3125 
z
" id="IPAexGothic-30330"/>
      <path d="M 63.71875 2.875 
L 95.015625 2.875 
L 95.015625 -3.515625 
L 23.96875 -3.515625 
L 23.96875 2.875 
L 37.3125 2.875 
L 37.3125 38.28125 
L 44 38.28125 
L 44 2.875 
L 56.84375 2.875 
L 56.84375 46.578125 
L 30.515625 46.578125 
L 30.515625 52.78125 
L 90.046875 52.78125 
L 90.046875 46.578125 
L 63.71875 46.578125 
L 63.71875 29.203125 
L 87.796875 29.203125 
L 87.796875 23.09375 
L 63.71875 23.09375 
z
M 60.203125 70.515625 
L 93.890625 70.515625 
L 93.890625 64.109375 
L 27.296875 64.109375 
L 27.296875 41.40625 
Q 27.296875 23.140625 24.21875 12.203125 
Q 21.390625 2.25 14.59375 -6.203125 
L 9.625 -1.171875 
Q 18.75 10.359375 20.125 27.484375 
Q 15.4375 24.125 7.078125 19.734375 
L 4 26.609375 
Q 12.3125 29.59375 20.40625 34.328125 
L 20.40625 37.890625 
L 20.40625 70.515625 
L 52.78125 70.515625 
L 52.78125 81.984375 
L 60.203125 81.984375 
z
M 12.015625 40.375 
Q 8.890625 50.78125 5.421875 57.90625 
L 11.375 60.59375 
Q 15.234375 53.859375 18.40625 43.703125 
z
" id="IPAexGothic-30151"/>
      <path d="M 81.734375 75 
L 81.734375 -4.5 
L 74.125 -4.5 
L 74.125 2 
L 25.734375 2 
L 25.734375 -4.5 
L 18.109375 -4.5 
L 18.109375 75 
z
M 25.734375 68.3125 
L 25.734375 42.671875 
L 74.125 42.671875 
L 74.125 68.3125 
z
M 25.734375 35.890625 
L 25.734375 8.6875 
L 74.125 8.6875 
L 74.125 35.890625 
z
" id="IPAexGothic-26085"/>
      <path id="IPAexGothic-32"/>
      <path d="M 30.125 -15.875 
L 25.828125 -18.21875 
Q 7.625 1.078125 7.625 29.296875 
Q 7.625 57.46875 25.828125 76.703125 
L 30.125 74.421875 
Q 15.71875 55.03125 15.71875 29.390625 
Q 15.71875 3.171875 30.125 -15.875 
z
" id="IPAexGothic-40"/>
      <path d="M 29.984375 52.203125 
Q 40.53125 52.203125 47.75 45.125 
Q 55.171875 37.703125 55.171875 25.59375 
Q 55.171875 13.875 47.90625 6.59375 
Q 40.765625 -0.484375 29.984375 -0.484375 
Q 19.1875 -0.484375 12.203125 6.5 
Q 4.890625 13.765625 4.890625 25.875 
Q 4.890625 37.703125 12.3125 45.125 
Q 19.390625 52.203125 29.984375 52.203125 
z
M 29.984375 45.609375 
Q 23.734375 45.609375 19.390625 41.109375 
Q 13.875 35.59375 13.875 25.78125 
Q 13.875 16.109375 19.28125 10.6875 
Q 23.6875 6.296875 29.984375 6.296875 
Q 36.421875 6.296875 40.765625 10.796875 
Q 46.1875 16.21875 46.1875 26.125 
Q 46.1875 35.453125 40.671875 41.109375 
Q 36.1875 45.609375 29.984375 45.609375 
z
" id="IPAexGothic-111"/>
      <path d="M 52 0.984375 
L 43.40625 0.984375 
L 43.40625 31.890625 
Q 43.40625 44.578125 32.90625 44.578125 
Q 22.3125 44.578125 17.390625 31.890625 
L 17.390625 0.984375 
L 8.796875 0.984375 
L 8.796875 50.78125 
L 16.796875 50.78125 
L 16.796875 41.796875 
Q 23.828125 51.8125 34.71875 51.8125 
Q 52 51.8125 52 32.375 
z
" id="IPAexGothic-110"/>
      <path d="M 34.90625 39.796875 
Q 30.28125 45.796875 23.1875 45.796875 
Q 13.921875 45.796875 13.921875 38.671875 
Q 13.921875 33.640625 23.921875 30.375 
L 27.203125 29.296875 
Q 41.40625 24.65625 41.40625 13.96875 
Q 41.40625 6.78125 35.5 2.6875 
Q 30.8125 -0.484375 23.390625 -0.484375 
Q 11.96875 -0.484375 4 7.859375 
L 9.421875 12.796875 
Q 15.578125 6.203125 23.6875 6.203125 
Q 33.296875 6.203125 33.296875 13.671875 
Q 33.296875 19.34375 22.703125 23.09375 
L 19.28125 24.265625 
Q 5.90625 28.953125 5.90625 37.984375 
Q 5.90625 43.703125 9.8125 47.609375 
Q 14.5 52.296875 22.703125 52.296875 
Q 33.6875 52.296875 40.71875 44.671875 
z
" id="IPAexGothic-115"/>
      <path d="M 33.203125 3.765625 
Q 27.640625 -0.09375 21.828125 -0.09375 
Q 10.203125 -0.09375 10.203125 12.984375 
L 10.203125 44.671875 
L 3.421875 44.671875 
L 3.421875 50.78125 
L 10.203125 50.78125 
L 10.203125 61.96875 
L 18.40625 66.0625 
L 18.40625 50.78125 
L 32.234375 50.78125 
L 32.234375 44.671875 
L 18.40625 44.671875 
L 18.40625 14.15625 
Q 18.40625 6.5 23.640625 6.5 
Q 27.15625 6.5 30.328125 9.1875 
z
" id="IPAexGothic-116"/>
      <path d="M 7.28125 76.703125 
Q 25.59375 57.375 25.59375 29.296875 
Q 25.59375 1.171875 7.28125 -18.21875 
L 2.984375 -15.875 
Q 17.484375 3.375 17.484375 29.390625 
Q 17.484375 54.828125 2.984375 74.421875 
z
" id="IPAexGothic-41"/>
     </defs>
     <g transform="translate(70.095313 24.320312)scale(0.1 -0.1)">
      <use xlink:href="#IPAexGothic-30330"/>
      <use x="100" xlink:href="#IPAexGothic-30151"/>
      <use x="200" xlink:href="#IPAexGothic-26085"/>
      <use x="300" xlink:href="#IPAexGothic-32"/>
      <use x="327.001953" xlink:href="#IPAexGothic-40"/>
      <use x="360.302734" xlink:href="#IPAexGothic-111"/>
      <use x="420.703125" xlink:href="#IPAexGothic-110"/>
      <use x="481.103516" xlink:href="#IPAexGothic-115"/>
      <use x="527.294922" xlink:href="#IPAexGothic-101"/>
      <use x="584.179688" xlink:href="#IPAexGothic-116"/>
      <use x="618.798828" xlink:href="#IPAexGothic-41"/>
     </g>
    </g>
    <g id="patch_289">
     <path d="M 42.095313 39.453125 
L 62.095313 39.453125 
L 62.095313 32.453125 
L 42.095313 32.453125 
z
" style="fill:#ff7f0e;opacity:0.5;stroke:#000000;stroke-linejoin:miter;"/>
    </g>
    <g id="text_16">
     <!--  (confirmed) -->
     <defs>
      <path d="M 67.921875 50.296875 
Q 70.5625 55.28125 72.609375 61.8125 
L 79.296875 60.203125 
Q 76.171875 53.609375 74.21875 50.296875 
L 92 50.296875 
L 92 44.484375 
L 73.4375 44.484375 
L 73.4375 34.71875 
L 89.703125 34.71875 
L 89.703125 29.203125 
L 73.4375 29.203125 
L 73.4375 19.53125 
L 89.703125 19.53125 
L 89.703125 14.015625 
L 73.4375 14.015625 
L 73.4375 3.609375 
L 94.28125 3.609375 
L 94.28125 -2.203125 
L 54.109375 -2.203125 
L 54.109375 -6.984375 
L 47.609375 -6.984375 
L 47.609375 38.1875 
Q 43.0625 31.546875 38.8125 26.609375 
L 35.6875 32.8125 
Q 49.359375 49.953125 54.78125 64.796875 
L 45.515625 64.796875 
L 45.515625 53.515625 
L 39.203125 53.515625 
L 39.203125 70.609375 
L 56.78125 70.609375 
Q 58.59375 76.609375 60.109375 83.109375 
L 66.703125 81.890625 
Q 65.234375 75.53125 63.625 70.609375 
L 92.71875 70.609375 
L 92.71875 53.515625 
L 86.328125 53.515625 
L 86.328125 64.796875 
L 61.53125 64.796875 
Q 58.546875 56.984375 54.890625 50.296875 
z
M 67.140625 44.484375 
L 54.109375 44.484375 
L 54.109375 34.71875 
L 67.140625 34.71875 
z
M 67.140625 29.203125 
L 54.109375 29.203125 
L 54.109375 19.53125 
L 67.140625 19.53125 
z
M 67.140625 14.015625 
L 54.109375 14.015625 
L 54.109375 3.609375 
L 67.140625 3.609375 
z
M 18.109375 46 
L 35.546875 46 
L 35.546875 3.078125 
L 18.953125 3.078125 
L 18.953125 -5.125 
L 12.75 -5.125 
L 12.75 34.46875 
Q 10.15625 29.734375 6.15625 23.78125 
L 2.9375 29.984375 
Q 14.546875 47.078125 18.75 69 
L 6.34375 69 
L 6.34375 75.296875 
L 37.640625 75.296875 
L 37.640625 69 
L 25.25 69 
L 24.953125 68.015625 
Q 22.75 57.234375 18.109375 46 
z
M 18.953125 39.890625 
L 18.953125 9.1875 
L 29.34375 9.1875 
L 29.34375 39.890625 
z
" id="IPAexGothic-30906"/>
      <path d="M 53.609375 4.734375 
Q 61.421875 3.515625 73.578125 3.515625 
Q 81.109375 3.515625 94.578125 4.109375 
Q 93.171875 0.921875 92 -3.5625 
Q 81.78125 -3.90625 75.6875 -3.90625 
Q 55.765625 -3.90625 46.921875 -1.21875 
Q 35.296875 2.390625 27.34375 14.109375 
Q 22.515625 2.546875 12.59375 -7.171875 
L 7.421875 -1.171875 
Q 22.125 11.859375 26.3125 37.796875 
L 33.203125 35.984375 
Q 31.734375 27.4375 29.828125 21.1875 
Q 36.53125 10.59375 46.4375 6.5 
L 46.4375 46 
L 22.40625 46 
L 22.40625 52.390625 
L 77.484375 52.390625 
L 77.484375 46 
L 53.609375 46 
L 53.609375 31 
L 84.328125 31 
L 84.328125 24.515625 
L 53.609375 24.515625 
z
M 53.421875 69.1875 
L 89.84375 69.1875 
L 89.84375 49.46875 
L 82.421875 49.46875 
L 82.421875 62.890625 
L 17.53125 62.890625 
L 17.53125 49.46875 
L 10.109375 49.46875 
L 10.109375 69.1875 
L 45.90625 69.1875 
L 45.90625 83.015625 
L 53.421875 83.015625 
z
" id="IPAexGothic-23450"/>
      <path d="M 51.078125 12.25 
Q 44.28125 -0.484375 29.6875 -0.484375 
Q 19.1875 -0.484375 12.3125 6.390625 
Q 4.890625 13.921875 4.890625 25.984375 
Q 4.890625 37.9375 12.3125 45.515625 
Q 19.09375 52.296875 29.390625 52.296875 
Q 43.953125 52.296875 50.09375 39.703125 
L 43.171875 36.078125 
Q 38.8125 45.3125 29.6875 45.3125 
Q 23.6875 45.3125 19.28125 40.921875 
Q 13.765625 35.40625 13.765625 25.78125 
Q 13.765625 16.703125 19.09375 11.375 
Q 23.78125 6.6875 30.5625 6.6875 
Q 39.796875 6.6875 44.484375 15.875 
z
" id="IPAexGothic-99"/>
      <path d="M 38.375 72.21875 
L 34.8125 66.3125 
Q 31.109375 69.09375 27.203125 69.09375 
Q 18.5 69.09375 18.5 57.375 
L 18.5 50.78125 
L 32.078125 50.78125 
L 32.078125 44.671875 
L 18.5 44.671875 
L 18.5 0.984375 
L 10.015625 0.984375 
L 10.015625 44.671875 
L 1.90625 44.671875 
L 1.90625 50.78125 
L 10.015625 50.78125 
L 10.015625 57.171875 
Q 10.015625 65.4375 13.921875 70.0625 
Q 18.75 75.6875 26.703125 75.6875 
Q 33.0625 75.6875 38.375 72.21875 
z
" id="IPAexGothic-102"/>
      <path d="M 18.40625 61.375 
L 8.59375 61.375 
L 8.59375 71.390625 
L 18.40625 71.390625 
z
M 17.78125 0.984375 
L 9.1875 0.984375 
L 9.1875 50.78125 
L 17.78125 50.78125 
z
" id="IPAexGothic-105"/>
      <path d="M 78.46875 0.984375 
L 69.875 0.984375 
L 69.875 32.171875 
Q 69.875 44.828125 60.109375 44.828125 
Q 55.46875 44.828125 51.609375 40.53125 
Q 48.875 37.453125 47.796875 32.859375 
L 47.796875 0.984375 
L 39.203125 0.984375 
L 39.203125 32.28125 
Q 39.203125 44.828125 29.984375 44.828125 
Q 25.09375 44.828125 21.390625 40.53125 
Q 17.390625 36.03125 17.390625 31.890625 
L 17.390625 0.984375 
L 8.796875 0.984375 
L 8.796875 50.78125 
L 16.796875 50.78125 
L 16.796875 42.1875 
Q 21.734375 51.8125 31.6875 51.8125 
Q 42.578125 51.8125 46.1875 41.359375 
Q 51.609375 51.8125 61.765625 51.8125 
Q 69.96875 51.8125 74.5625 46 
Q 78.46875 41.21875 78.46875 32.375 
z
" id="IPAexGothic-109"/>
      <path d="M 52.984375 0.984375 
L 45.171875 0.984375 
L 45.171875 9.671875 
Q 38.140625 -0.484375 27.390625 -0.484375 
Q 18.453125 -0.484375 12.3125 5.8125 
Q 4.890625 13.1875 4.890625 25.984375 
Q 4.890625 38.53125 12.0625 45.90625 
Q 18.265625 52.203125 27.390625 52.203125 
Q 37.25 52.203125 44.484375 43.890625 
L 44.484375 74.90625 
L 52.984375 74.90625 
z
M 44.484375 20.359375 
L 44.484375 32.765625 
Q 44.484375 37.703125 38.375 42.28125 
Q 34.078125 45.40625 28.953125 45.40625 
Q 23.1875 45.40625 19.1875 41.40625 
Q 13.875 36.078125 13.875 26.21875 
Q 13.875 17.328125 18.265625 11.71875 
Q 22.515625 6.390625 28.859375 6.390625 
Q 36.28125 6.390625 41.5 13.671875 
Q 44.484375 17.71875 44.484375 20.359375 
z
" id="IPAexGothic-100"/>
     </defs>
     <g transform="translate(70.095313 39.453125)scale(0.1 -0.1)">
      <use xlink:href="#IPAexGothic-30906"/>
      <use x="100" xlink:href="#IPAexGothic-23450"/>
      <use x="200" xlink:href="#IPAexGothic-26085"/>
      <use x="300" xlink:href="#IPAexGothic-32"/>
      <use x="327.001953" xlink:href="#IPAexGothic-40"/>
      <use x="360.302734" xlink:href="#IPAexGothic-99"/>
      <use x="414.697266" xlink:href="#IPAexGothic-111"/>
      <use x="475.097656" xlink:href="#IPAexGothic-110"/>
      <use x="535.498047" xlink:href="#IPAexGothic-102"/>
      <use x="566.113281" xlink:href="#IPAexGothic-105"/>
      <use x="593.115234" xlink:href="#IPAexGothic-114"/>
      <use x="630.126953" xlink:href="#IPAexGothic-109"/>
      <use x="717.236328" xlink:href="#IPAexGothic-101"/>
      <use x="774.121094" xlink:href="#IPAexGothic-100"/>
      <use x="836.523438" xlink:href="#IPAexGothic-41"/>
     </g>
    </g>
   </g>
  </g>
 </g>
 <defs>
  <clipPath id="p59d51767f7">
   <rect height="266.112" width="357.12" x="33.095313" y="7.2"/>
  </clipPath>
 </defs>
</svg>
