<?xml version="1.0" encoding="utf-8" standalone="no"?>
<!DOCTYPE svg PUBLIC "-//W3C//DTD SVG 1.1//EN"
  "http://www.w3.org/Graphics/SVG/1.1/DTD/svg11.dtd">
<!-- Created with matplotlib (https://matplotlib.org/) -->
<svg height="320.239875pt" version="1.1" viewBox="0 0 403.71375 320.239875" width="403.71375pt" xmlns="http://www.w3.org/2000/svg" xmlns:xlink="http://www.w3.org/1999/xlink">
 <metadata>
  <rdf:RDF xmlns:cc="http://creativecommons.org/ns#" xmlns:dc="http://purl.org/dc/elements/1.1/" xmlns:rdf="http://www.w3.org/1999/02/22-rdf-syntax-ns#">
   <cc:Work>
    <dc:type rdf:resource="http://purl.org/dc/dcmitype/StillImage"/>
    <dc:date>2020-08-03T09:34:46.786826</dc:date>
    <dc:format>image/svg+xml</dc:format>
    <dc:creator>
     <cc:Agent>
      <dc:title>Matplotlib v3.3.0, https://matplotlib.org/</dc:title>
     </cc:Agent>
    </dc:creator>
   </cc:Work>
  </rdf:RDF>
 </metadata>
 <defs>
  <style type="text/css">*{stroke-linecap:butt;stroke-linejoin:round;}</style>
 </defs>
 <g id="figure_1">
  <g id="patch_1">
   <path d="M 0 320.239875 
L 403.71375 320.239875 
L 403.71375 0 
L 0 0 
z
" style="fill:#ffffff;"/>
  </g>
  <g id="axes_1">
   <g id="patch_2">
    <path d="M 39.39375 284.258625 
L 396.51375 284.258625 
L 396.51375 18.146625 
L 39.39375 18.146625 
z
" style="fill:#ffffff;"/>
   </g>
   <g id="matplotlib.axis_1">
    <g id="xtick_1">
     <g id="line2d_1">
      <defs>
       <path d="M 0 0 
L 0 3.5 
" id="mc717383015" style="stroke:#000000;stroke-width:0.8;"/>
      </defs>
      <g>
       <use style="stroke:#000000;stroke-width:0.8;" x="52.563699" xlink:href="#mc717383015" y="284.258625"/>
      </g>
     </g>
     <g id="text_1">
      <!-- 2020 -->
      <g transform="translate(39.966824 298.74925)scale(0.1 -0.1)">
       <defs>
        <path d="M 57.171875 0.984375 
L 6.984375 0.984375 
L 6.984375 9.28125 
Q 12.890625 23.046875 29.59375 34.421875 
L 32.375 36.28125 
Q 40.921875 42.140625 43.609375 45.40625 
Q 46.6875 49.265625 46.6875 53.8125 
Q 46.6875 58.9375 43.0625 62.546875 
Q 39.0625 66.546875 32.5625 66.546875 
Q 19.53125 66.546875 15.484375 52 
L 7.765625 54.78125 
Q 13.328125 73.828125 33.0625 73.828125 
Q 43.84375 73.828125 50.25 67.4375 
Q 55.859375 61.671875 55.859375 53.515625 
Q 55.859375 47.46875 52.25 42.53125 
Q 48.921875 37.75 36.96875 30.28125 
L 34.859375 29 
Q 19.625 19.578125 15.28125 8.890625 
L 57.171875 8.890625 
z
" id="IPAexGothic-50"/>
        <path d="M 31.84375 73.828125 
Q 45.015625 73.828125 52.09375 61.625 
Q 57.71875 51.953125 57.71875 36.625 
Q 57.71875 21.4375 52.09375 11.578125 
Q 45.125 -0.484375 31.5 -0.484375 
Q 17.921875 -0.484375 10.9375 11.578125 
Q 5.328125 21.4375 5.328125 36.71875 
Q 5.328125 58.015625 15.625 67.71875 
Q 22.171875 73.828125 31.84375 73.828125 
z
M 31.5 66.65625 
Q 23.6875 66.65625 19.1875 58.734375 
Q 14.59375 50.734375 14.59375 36.625 
Q 14.59375 22.75 19.09375 14.796875 
Q 23.640625 6.984375 31.5 6.984375 
Q 40.921875 6.984375 45.453125 18.015625 
Q 48.4375 25.34375 48.4375 37.109375 
Q 48.4375 50.875 43.84375 58.734375 
Q 39.203125 66.65625 31.5 66.65625 
z
" id="IPAexGothic-48"/>
       </defs>
       <use xlink:href="#IPAexGothic-50"/>
       <use x="62.988281" xlink:href="#IPAexGothic-48"/>
       <use x="125.976562" xlink:href="#IPAexGothic-50"/>
       <use x="188.964844" xlink:href="#IPAexGothic-48"/>
      </g>
     </g>
    </g>
    <g id="xtick_2">
     <g id="line2d_2">
      <g>
       <use style="stroke:#000000;stroke-width:0.8;" x="100.036769" xlink:href="#mc717383015" y="284.258625"/>
      </g>
     </g>
     <g id="text_2">
      <!-- Feb -->
      <g transform="translate(91.213331 298.74925)scale(0.1 -0.1)">
       <defs>
        <path d="M 54.203125 64.703125 
L 18.3125 64.703125 
L 18.3125 41.5 
L 50.09375 41.5 
L 50.09375 34.1875 
L 18.3125 34.1875 
L 18.3125 0.984375 
L 9.515625 0.984375 
L 9.515625 72.40625 
L 54.203125 72.40625 
z
" id="IPAexGothic-70"/>
        <path d="M 13.484375 24.90625 
Q 13.921875 16.265625 18.890625 11.28125 
Q 23.96875 6.203125 31.203125 6.203125 
Q 40.71875 6.203125 46.296875 15.09375 
L 51.90625 11.375 
Q 44.828125 -0.484375 30.171875 -0.484375 
Q 19.09375 -0.484375 11.96875 6.59375 
Q 4.78125 13.8125 4.78125 25.640625 
Q 4.78125 38.1875 12.3125 45.703125 
Q 19 52.390625 29 52.390625 
Q 38.421875 52.390625 44.78125 46.1875 
Q 51.90625 38.96875 51.90625 26.90625 
L 51.90625 24.90625 
z
M 43.0625 31.203125 
Q 42.328125 37.984375 38.28125 41.890625 
Q 34.28125 45.90625 28.8125 45.90625 
Q 22.46875 45.90625 17.96875 40.484375 
Q 14.890625 36.8125 13.96875 31.203125 
z
" id="IPAexGothic-101"/>
        <path d="M 17.578125 42.671875 
Q 24.21875 52.203125 34.671875 52.203125 
Q 43.5625 52.203125 49.859375 45.90625 
Q 57.171875 38.578125 57.171875 25.6875 
Q 57.171875 13.09375 49.859375 5.8125 
Q 43.5625 -0.484375 34.46875 -0.484375 
Q 24.359375 -0.484375 17 8.0625 
L 15.765625 0.6875 
L 9.078125 0.6875 
L 9.078125 74.90625 
L 17.578125 74.90625 
z
M 17.578125 31.203125 
L 17.578125 19.578125 
Q 17.578125 13.875 23.875 9.375 
Q 28.171875 6.296875 33.109375 6.296875 
Q 38.875 6.296875 42.875 10.296875 
Q 48.1875 15.765625 48.1875 25.484375 
Q 48.1875 34.28125 43.796875 39.890625 
Q 39.453125 45.3125 33.203125 45.3125 
Q 27.484375 45.3125 22.46875 40.28125 
Q 17.578125 35.40625 17.578125 31.203125 
z
" id="IPAexGothic-98"/>
       </defs>
       <use xlink:href="#IPAexGothic-70"/>
       <use x="57.177734" xlink:href="#IPAexGothic-101"/>
       <use x="114.0625" xlink:href="#IPAexGothic-98"/>
      </g>
     </g>
    </g>
    <g id="xtick_3">
     <g id="line2d_3">
      <g>
       <use style="stroke:#000000;stroke-width:0.8;" x="144.44706" xlink:href="#mc717383015" y="284.258625"/>
      </g>
     </g>
     <g id="text_3">
      <!-- Mar -->
      <g transform="translate(135.337685 298.74925)scale(0.1 -0.1)">
       <defs>
        <path d="M 80.421875 0.984375 
L 71.828125 0.984375 
L 71.828125 39.59375 
Q 71.828125 51.265625 72.40625 64.59375 
L 72.015625 64.59375 
Q 68.0625 53.265625 63.53125 41.796875 
L 47.90625 3.265625 
L 41.40625 3.265625 
L 25.640625 42.578125 
Q 20.75 54.78125 17.625 64.703125 
L 17.234375 64.703125 
Q 17.828125 48.921875 17.828125 39.890625 
L 17.828125 0.984375 
L 9.515625 0.984375 
L 9.515625 72.40625 
L 22.125 72.40625 
L 39.109375 30.375 
Q 42.140625 23 44.828125 14.15625 
L 45.125 14.15625 
Q 47.3125 22.125 50.53125 30.171875 
L 67.4375 72.40625 
L 80.421875 72.40625 
z
" id="IPAexGothic-77"/>
        <path d="M 49.3125 0.984375 
L 41.75 0.984375 
Q 39.984375 4.734375 39.546875 8.6875 
L 39.203125 8.6875 
Q 33.546875 -0.390625 22.3125 -0.390625 
Q 14.59375 -0.390625 9.71875 4.5 
Q 5.421875 8.796875 5.421875 14.984375 
Q 5.421875 30.421875 32.03125 31.203125 
L 38.71875 31.390625 
L 38.71875 33.984375 
Q 38.71875 39.203125 35.75 42.1875 
Q 32.625 45.3125 27.734375 45.3125 
Q 19.34375 45.3125 15.140625 37.15625 
L 7.71875 40.578125 
Q 14.65625 52 27.9375 52 
Q 37.109375 52 42.046875 46.875 
Q 46.625 42.28125 46.625 33.890625 
L 46.625 15.578125 
Q 46.625 6.25 49.3125 0.984375 
z
M 38.921875 25.390625 
L 33.453125 25.296875 
Q 14.109375 24.859375 14.109375 14.890625 
Q 14.109375 11.375 16.40625 9.078125 
Q 19.234375 6.296875 23.828125 6.296875 
Q 30.21875 6.296875 34.90625 10.984375 
Q 38.921875 15.140625 38.921875 21 
z
" id="IPAexGothic-97"/>
        <path d="M 36.078125 51.8125 
L 34.578125 43.265625 
Q 32.90625 43.609375 31.59375 43.609375 
Q 25.828125 43.609375 22.078125 38.1875 
Q 17.390625 31.34375 17.390625 26.171875 
L 17.390625 0.984375 
L 8.796875 0.984375 
L 8.796875 50.78125 
L 16.890625 50.78125 
L 16.5 35.984375 
L 16.703125 35.984375 
Q 22.21875 52.203125 32.765625 52.203125 
Q 34.46875 52.203125 36.078125 51.8125 
z
" id="IPAexGothic-114"/>
       </defs>
       <use xlink:href="#IPAexGothic-77"/>
       <use x="90.185547" xlink:href="#IPAexGothic-97"/>
       <use x="145.166016" xlink:href="#IPAexGothic-114"/>
      </g>
     </g>
    </g>
    <g id="xtick_4">
     <g id="line2d_4">
      <g>
       <use style="stroke:#000000;stroke-width:0.8;" x="191.920131" xlink:href="#mc717383015" y="284.258625"/>
      </g>
     </g>
     <g id="text_4">
      <!-- Apr -->
      <g transform="translate(183.777943 298.74925)scale(0.1 -0.1)">
       <defs>
        <path d="M 63.375 0.984375 
L 53.8125 0.984375 
L 45.90625 22.015625 
L 17.1875 22.015625 
L 9.421875 0.984375 
L -0.09375 0.984375 
L 28.21875 72.90625 
L 35.296875 72.90625 
z
M 43.40625 29.109375 
L 36.1875 48.09375 
Q 33.203125 56.0625 31.6875 62.5 
L 31.390625 62.5 
Q 29.640625 55.671875 26.8125 48.09375 
L 19.734375 29.109375 
z
" id="IPAexGothic-65"/>
        <path d="M 16.796875 42 
Q 23.828125 52.203125 34.46875 52.203125 
Q 43.265625 52.203125 49.5625 45.90625 
Q 56.890625 38.578125 56.890625 25.6875 
Q 56.890625 13.140625 49.65625 5.8125 
Q 43.359375 -0.484375 34.375 -0.484375 
Q 24.515625 -0.484375 17.28125 7.765625 
L 17.28125 -19 
L 8.796875 -19 
L 8.796875 50.78125 
L 16.796875 50.78125 
z
M 17.28125 30.46875 
L 17.28125 20.171875 
Q 17.28125 14.015625 23.6875 9.375 
Q 27.984375 6.296875 32.90625 6.296875 
Q 38.578125 6.296875 42.578125 10.296875 
Q 47.90625 15.578125 47.90625 25.484375 
Q 47.90625 34.375 43.5 39.984375 
Q 39.109375 45.3125 32.8125 45.3125 
Q 25.875 45.3125 20.90625 38.8125 
Q 17.28125 34.125 17.28125 30.46875 
z
" id="IPAexGothic-112"/>
       </defs>
       <use xlink:href="#IPAexGothic-65"/>
       <use x="63.720703" xlink:href="#IPAexGothic-112"/>
       <use x="125.830078" xlink:href="#IPAexGothic-114"/>
      </g>
     </g>
    </g>
    <g id="xtick_5">
     <g id="line2d_5">
      <g>
       <use style="stroke:#000000;stroke-width:0.8;" x="237.861812" xlink:href="#mc717383015" y="284.258625"/>
      </g>
     </g>
     <g id="text_5">
      <!-- May -->
      <g transform="translate(228.14228 298.74925)scale(0.1 -0.1)">
       <defs>
        <path d="M 48.78125 50.78125 
L 24.609375 -7.625 
Q 19.96875 -18.796875 8.59375 -18.796875 
L 7.46875 -18.796875 
L 5.375 -10.984375 
L 6.984375 -10.984375 
Q 15.140625 -10.984375 17.96875 -3.71875 
L 21.1875 4.296875 
L 0.59375 50.78125 
L 10.296875 50.78125 
L 21.296875 22.796875 
Q 23.875 16.015625 25.09375 12.203125 
L 25.390625 12.203125 
Q 27.34375 18.265625 29.109375 22.796875 
L 39.5 50.78125 
z
" id="IPAexGothic-121"/>
       </defs>
       <use xlink:href="#IPAexGothic-77"/>
       <use x="90.185547" xlink:href="#IPAexGothic-97"/>
       <use x="145.166016" xlink:href="#IPAexGothic-121"/>
      </g>
     </g>
    </g>
    <g id="xtick_6">
     <g id="line2d_6">
      <g>
       <use style="stroke:#000000;stroke-width:0.8;" x="285.334882" xlink:href="#mc717383015" y="284.258625"/>
      </g>
     </g>
     <g id="text_6">
      <!-- Jun -->
      <g transform="translate(277.395038 298.74925)scale(0.1 -0.1)">
       <defs>
        <path d="M 28.421875 72.40625 
L 28.421875 19.28125 
Q 28.421875 -0.484375 11.921875 -0.484375 
Q 4.734375 -0.484375 -1.953125 3.265625 
L 1.3125 10.0625 
Q 5.90625 6.984375 10.84375 6.984375 
Q 19.53125 6.984375 19.53125 18.796875 
L 19.53125 72.40625 
z
" id="IPAexGothic-74"/>
        <path d="M 51.3125 0.984375 
L 43.3125 0.984375 
L 43.3125 10.0625 
Q 35.9375 0 25.390625 0 
Q 16.75 0 11.921875 5.859375 
Q 8.109375 10.59375 8.109375 19.390625 
L 8.109375 50.78125 
L 16.703125 50.78125 
L 16.703125 19.671875 
Q 16.703125 7.28125 27.09375 7.28125 
Q 37.59375 7.28125 42.71875 20.171875 
L 42.71875 50.78125 
L 51.3125 50.78125 
z
" id="IPAexGothic-117"/>
        <path d="M 52 0.984375 
L 43.40625 0.984375 
L 43.40625 31.890625 
Q 43.40625 44.578125 32.90625 44.578125 
Q 22.3125 44.578125 17.390625 31.890625 
L 17.390625 0.984375 
L 8.796875 0.984375 
L 8.796875 50.78125 
L 16.796875 50.78125 
L 16.796875 41.796875 
Q 23.828125 51.8125 34.71875 51.8125 
Q 52 51.8125 52 32.375 
z
" id="IPAexGothic-110"/>
       </defs>
       <use xlink:href="#IPAexGothic-74"/>
       <use x="37.988281" xlink:href="#IPAexGothic-117"/>
       <use x="98.388672" xlink:href="#IPAexGothic-110"/>
      </g>
     </g>
    </g>
    <g id="xtick_7">
     <g id="line2d_7">
      <g>
       <use style="stroke:#000000;stroke-width:0.8;" x="331.276563" xlink:href="#mc717383015" y="284.258625"/>
      </g>
     </g>
     <g id="text_7">
      <!-- Jul -->
      <g transform="translate(325.007032 298.74925)scale(0.1 -0.1)">
       <defs>
        <path d="M 17.671875 0.984375 
L 9.078125 0.984375 
L 9.078125 74.90625 
L 17.671875 74.90625 
z
" id="IPAexGothic-108"/>
       </defs>
       <use xlink:href="#IPAexGothic-74"/>
       <use x="37.988281" xlink:href="#IPAexGothic-117"/>
       <use x="98.388672" xlink:href="#IPAexGothic-108"/>
      </g>
     </g>
    </g>
    <g id="xtick_8">
     <g id="line2d_8">
      <g>
       <use style="stroke:#000000;stroke-width:0.8;" x="378.749633" xlink:href="#mc717383015" y="284.258625"/>
      </g>
     </g>
     <g id="text_8">
      <!-- Aug -->
      <g transform="translate(369.767602 298.691437)scale(0.1 -0.1)">
       <defs>
        <path d="M 20.796875 17.96875 
Q 15.71875 17.53125 15.71875 14.0625 
Q 15.71875 9.578125 27.546875 8.984375 
L 33.296875 8.6875 
Q 51.609375 7.765625 51.609375 -4.59375 
Q 51.609375 -10.9375 45.703125 -14.984375 
Q 39.359375 -19.578125 28.03125 -19.578125 
Q 17.78125 -19.578125 11.53125 -16.0625 
Q 5.515625 -12.640625 5.515625 -6.6875 
Q 5.515625 1.3125 16.796875 3.859375 
L 16.796875 4.203125 
Q 7.90625 6.453125 7.90625 12.15625 
Q 7.90625 17.4375 15.53125 20.265625 
Q 7.125 24.609375 7.125 34.078125 
Q 7.125 41.40625 12.015625 46.296875 
Q 17.625 51.90625 27.15625 51.90625 
Q 33.203125 51.90625 37.84375 49.265625 
Q 41.40625 53.953125 50.921875 54.109375 
L 50.921875 47.078125 
Q 44.34375 46.921875 42.234375 45.90625 
Q 47.40625 40.828125 47.40625 33.890625 
Q 47.40625 27 42.71875 22.265625 
Q 37.5 17.09375 28.328125 17.09375 
Q 24.421875 17.09375 20.796875 17.96875 
z
M 27.09375 45.609375 
Q 22.015625 45.609375 18.703125 42.28125 
Q 15.4375 39.015625 15.4375 34.078125 
Q 15.4375 29.25 18.5 26.3125 
Q 21.828125 23 27.4375 23 
Q 32.71875 23 35.890625 26.21875 
Q 39.109375 29.390625 39.109375 34.421875 
Q 39.109375 39.015625 35.890625 42.1875 
Q 32.515625 45.609375 27.09375 45.609375 
z
M 27.390625 2.484375 
Q 14.109375 2.484375 14.109375 -5.71875 
Q 14.109375 -13.671875 28.125 -13.671875 
Q 37.15625 -13.671875 41.21875 -9.46875 
Q 43.3125 -7.515625 43.3125 -4.890625 
Q 43.3125 2.484375 27.390625 2.484375 
z
" id="IPAexGothic-103"/>
       </defs>
       <use xlink:href="#IPAexGothic-65"/>
       <use x="63.720703" xlink:href="#IPAexGothic-117"/>
       <use x="124.121094" xlink:href="#IPAexGothic-103"/>
      </g>
     </g>
    </g>
    <g id="text_9">
     <!-- 2020 -->
     <g transform="translate(371.32 311.139875)scale(0.1 -0.1)">
      <use xlink:href="#IPAexGothic-50"/>
      <use x="62.988281" xlink:href="#IPAexGothic-48"/>
      <use x="125.976562" xlink:href="#IPAexGothic-50"/>
      <use x="188.964844" xlink:href="#IPAexGothic-48"/>
     </g>
    </g>
   </g>
   <g id="matplotlib.axis_2">
    <g id="ytick_1">
     <g id="line2d_9">
      <defs>
       <path d="M 0 0 
L -3.5 0 
" id="mab8b591c8f" style="stroke:#000000;stroke-width:0.8;"/>
      </defs>
      <g>
       <use style="stroke:#000000;stroke-width:0.8;" x="39.39375" xlink:href="#mab8b591c8f" y="272.162625"/>
      </g>
     </g>
     <g id="text_10">
      <!-- 0 -->
      <g transform="translate(26.095313 275.907937)scale(0.1 -0.1)">
       <use xlink:href="#IPAexGothic-48"/>
      </g>
     </g>
    </g>
    <g id="ytick_2">
     <g id="line2d_10">
      <g>
       <use style="stroke:#000000;stroke-width:0.8;" x="39.39375" xlink:href="#mab8b591c8f" y="232.665482"/>
      </g>
     </g>
     <g id="text_11">
      <!-- 200 -->
      <g transform="translate(13.498438 236.410795)scale(0.1 -0.1)">
       <use xlink:href="#IPAexGothic-50"/>
       <use x="62.988281" xlink:href="#IPAexGothic-48"/>
       <use x="125.976562" xlink:href="#IPAexGothic-48"/>
      </g>
     </g>
    </g>
    <g id="ytick_3">
     <g id="line2d_11">
      <g>
       <use style="stroke:#000000;stroke-width:0.8;" x="39.39375" xlink:href="#mab8b591c8f" y="193.168339"/>
      </g>
     </g>
     <g id="text_12">
      <!-- 400 -->
      <g transform="translate(13.498438 196.913652)scale(0.1 -0.1)">
       <defs>
        <path d="M 59.578125 18.109375 
L 47.796875 18.109375 
L 47.796875 0.984375 
L 39.796875 0.984375 
L 39.796875 18.109375 
L 3.078125 18.109375 
L 3.078125 26.125 
L 38.375 73.09375 
L 47.796875 73.09375 
L 47.796875 25.53125 
L 59.578125 25.53125 
z
M 40.28125 64.203125 
L 39.984375 64.203125 
Q 35.59375 57.125 31.296875 51.3125 
L 11.859375 25.53125 
L 39.796875 25.53125 
L 39.796875 49.125 
Q 39.796875 54.390625 40.28125 64.203125 
z
" id="IPAexGothic-52"/>
       </defs>
       <use xlink:href="#IPAexGothic-52"/>
       <use x="62.988281" xlink:href="#IPAexGothic-48"/>
       <use x="125.976562" xlink:href="#IPAexGothic-48"/>
      </g>
     </g>
    </g>
    <g id="ytick_4">
     <g id="line2d_12">
      <g>
       <use style="stroke:#000000;stroke-width:0.8;" x="39.39375" xlink:href="#mab8b591c8f" y="153.671196"/>
      </g>
     </g>
     <g id="text_13">
      <!-- 600 -->
      <g transform="translate(13.498438 157.416509)scale(0.1 -0.1)">
       <defs>
        <path d="M 16.5 36.375 
Q 23.578125 46.578125 34.90625 46.578125 
Q 45.40625 46.578125 51.8125 39.265625 
Q 57.421875 32.90625 57.421875 23.78125 
Q 57.421875 13.8125 51.125 6.78125 
Q 44.578125 -0.484375 34.03125 -0.484375 
Q 21.484375 -0.484375 14.40625 9.078125 
Q 7.515625 18.40625 7.515625 34.8125 
Q 7.515625 53.515625 15.828125 64.203125 
Q 23.34375 73.828125 35.5 73.828125 
Q 49.859375 73.828125 56.390625 62.890625 
L 49.21875 58.984375 
Q 45.21875 66.65625 35.9375 66.65625 
Q 17.484375 66.65625 16.109375 36.375 
z
M 33.453125 39.796875 
Q 26.3125 39.796875 21.625 34.46875 
Q 17.4375 29.6875 17.4375 24.078125 
Q 17.4375 18.0625 21.140625 13.1875 
Q 26.125 6.6875 33.734375 6.6875 
Q 41.703125 6.6875 45.953125 13.1875 
Q 48.828125 17.625 48.828125 23.484375 
Q 48.828125 30.375 45.015625 34.8125 
Q 40.625 39.796875 33.453125 39.796875 
z
" id="IPAexGothic-54"/>
       </defs>
       <use xlink:href="#IPAexGothic-54"/>
       <use x="62.988281" xlink:href="#IPAexGothic-48"/>
       <use x="125.976562" xlink:href="#IPAexGothic-48"/>
      </g>
     </g>
    </g>
    <g id="ytick_5">
     <g id="line2d_13">
      <g>
       <use style="stroke:#000000;stroke-width:0.8;" x="39.39375" xlink:href="#mab8b591c8f" y="114.174054"/>
      </g>
     </g>
     <g id="text_14">
      <!-- 800 -->
      <g transform="translate(13.498438 117.919366)scale(0.1 -0.1)">
       <defs>
        <path d="M 39.703125 37.890625 
Q 57.8125 31.734375 57.8125 18.703125 
Q 57.8125 8.453125 48.4375 3.078125 
Q 41.609375 -0.875 31.5 -0.875 
Q 21.34375 -0.875 14.5 3.078125 
Q 5.421875 8.296875 5.421875 18.40625 
Q 5.421875 31.0625 22.015625 37.203125 
L 22.015625 37.5 
Q 7.515625 42.71875 7.515625 54.828125 
Q 7.515625 64.0625 15.328125 69.625 
Q 21.96875 74.3125 31.546875 74.3125 
Q 42.234375 74.3125 48.921875 68.796875 
Q 55.515625 63.578125 55.515625 55.71875 
Q 55.515625 42.28125 39.703125 38.1875 
z
M 31.59375 41.015625 
Q 46.828125 44.625 46.828125 55.125 
Q 46.828125 61.1875 41.796875 64.84375 
Q 37.703125 67.921875 31.5 67.921875 
Q 25.09375 67.921875 20.796875 64.5 
Q 16.40625 60.890625 16.40625 55.03125 
Q 16.40625 49.21875 21.09375 45.703125 
Q 23.34375 43.890625 26.90625 42.53125 
Q 31 40.875 31.59375 41.015625 
z
M 30.90625 34.515625 
Q 14.40625 30.171875 14.40625 19 
Q 14.40625 12.109375 20.515625 8.6875 
Q 25.09375 6.109375 31.390625 6.109375 
Q 40.234375 6.109375 45.015625 10.890625 
Q 48.53125 14.40625 48.53125 19.53125 
Q 48.53125 24.90625 43.65625 28.90625 
Q 40.765625 31.15625 36.71875 32.8125 
Q 31.984375 34.71875 30.90625 34.515625 
z
" id="IPAexGothic-56"/>
       </defs>
       <use xlink:href="#IPAexGothic-56"/>
       <use x="62.988281" xlink:href="#IPAexGothic-48"/>
       <use x="125.976562" xlink:href="#IPAexGothic-48"/>
      </g>
     </g>
    </g>
    <g id="ytick_6">
     <g id="line2d_14">
      <g>
       <use style="stroke:#000000;stroke-width:0.8;" x="39.39375" xlink:href="#mab8b591c8f" y="74.676911"/>
      </g>
     </g>
     <g id="text_15">
      <!-- 1000 -->
      <g transform="translate(7.2 78.422223)scale(0.1 -0.1)">
       <defs>
        <path d="M 38.484375 0.984375 
L 29.6875 0.984375 
L 29.6875 64.109375 
Q 21.4375 61.28125 12.3125 59.328125 
L 10.6875 66.109375 
Q 23.734375 69.390625 32.90625 73.921875 
L 38.484375 73.921875 
z
" id="IPAexGothic-49"/>
       </defs>
       <use xlink:href="#IPAexGothic-49"/>
       <use x="62.988281" xlink:href="#IPAexGothic-48"/>
       <use x="125.976562" xlink:href="#IPAexGothic-48"/>
       <use x="188.964844" xlink:href="#IPAexGothic-48"/>
      </g>
     </g>
    </g>
    <g id="ytick_7">
     <g id="line2d_15">
      <g>
       <use style="stroke:#000000;stroke-width:0.8;" x="39.39375" xlink:href="#mab8b591c8f" y="35.179768"/>
      </g>
     </g>
     <g id="text_16">
      <!-- 1200 -->
      <g transform="translate(7.2 38.92508)scale(0.1 -0.1)">
       <use xlink:href="#IPAexGothic-49"/>
       <use x="62.988281" xlink:href="#IPAexGothic-50"/>
       <use x="125.976562" xlink:href="#IPAexGothic-48"/>
       <use x="188.964844" xlink:href="#IPAexGothic-48"/>
      </g>
     </g>
    </g>
   </g>
   <g id="line2d_16">
    <path clip-path="url(#pc167e3f897)" d="M 55.626477 271.965139 
L 57.157867 272.162625 
L 70.940371 272.162625 
L 72.47176 271.767654 
L 74.00315 272.162625 
L 80.128707 272.162625 
L 81.660096 271.570168 
L 83.191486 271.965139 
L 84.722875 271.767654 
L 86.254265 271.965139 
L 87.785654 271.767654 
L 89.317043 271.767654 
L 90.848433 271.570168 
L 92.379822 272.162625 
L 95.442601 271.767654 
L 96.97399 271.965139 
L 98.50538 271.372682 
L 100.036769 271.570168 
L 101.568158 271.372682 
L 103.099548 270.582739 
L 106.162326 271.767654 
L 107.693716 270.977711 
L 109.225105 271.175196 
L 110.756494 271.767654 
L 112.287884 271.965139 
L 113.819273 270.385254 
L 115.350663 272.162625 
L 116.882052 270.780225 
L 118.413441 270.780225 
L 119.944831 270.385254 
L 121.47622 270.385254 
L 123.007609 269.200339 
L 124.538999 269.990282 
L 126.070388 269.397825 
L 127.601777 269.200339 
L 129.133167 267.817939 
L 130.664556 268.607882 
L 132.195946 268.212911 
L 133.727335 267.620454 
L 135.258724 267.225482 
L 136.790114 265.645596 
L 138.321503 266.238054 
L 139.852892 267.225482 
L 141.384282 265.053139 
L 142.915671 267.225482 
L 144.44706 266.830511 
L 145.97845 264.065711 
L 147.509839 267.225482 
L 149.041229 265.843082 
L 150.572618 266.435539 
L 152.104007 266.830511 
L 153.635397 264.658168 
L 155.166786 265.843082 
L 156.698175 263.473254 
L 158.229565 266.830511 
L 159.760954 264.263196 
L 161.292343 265.843082 
L 162.823733 263.275768 
L 164.355122 266.238054 
L 165.886512 265.645596 
L 167.417901 264.263196 
L 168.94929 262.090854 
L 170.48068 261.103425 
L 172.012069 257.746168 
L 173.543458 260.115996 
L 175.074848 257.746168 
L 176.606237 256.956225 
L 178.137627 250.834168 
L 179.669016 253.401482 
L 181.200405 249.846739 
L 182.731795 247.081939 
L 184.263184 229.703196 
L 185.794573 234.640339 
L 187.325963 234.442854 
L 188.857352 215.089254 
L 190.388741 215.484225 
L 191.920131 203.437596 
L 193.45152 215.681711 
L 194.98291 203.437596 
L 196.514299 214.496796 
L 198.045688 222.593711 
L 199.577078 209.559654 
L 201.108467 218.643996 
L 202.639856 217.459082 
L 204.171246 227.530854 
L 205.702635 223.976111 
L 207.234024 225.161025 
L 208.765414 233.850396 
L 210.296803 229.703196 
L 213.359582 232.467996 
L 214.890971 244.712111 
L 216.422361 241.947311 
L 217.95375 243.922168 
L 219.485139 249.451768 
L 221.016529 241.749825 
L 222.547918 251.426625 
L 224.079307 250.439196 
L 225.610697 257.351196 
L 227.142086 251.229139 
L 228.673476 257.943654 
L 230.204865 257.351196 
L 231.736254 255.573825 
L 233.267644 260.708454 
L 234.799033 262.288339 
L 236.330422 259.128568 
L 237.861812 261.498396 
L 239.393201 261.103425 
L 240.92459 265.250625 
L 242.45598 266.435539 
L 243.987369 265.448111 
L 245.518759 267.027996 
L 247.050148 266.435539 
L 248.581537 267.817939 
L 250.112927 268.607882 
L 251.644316 268.607882 
L 253.175705 268.410396 
L 254.707095 268.015425 
L 256.238484 269.397825 
L 257.769873 269.397825 
L 259.301263 268.607882 
L 260.832652 270.385254 
L 262.364042 269.397825 
L 263.895431 270.385254 
L 265.42682 268.805368 
L 266.95821 270.780225 
L 268.489599 269.990282 
L 270.020988 269.002854 
L 271.552378 270.187768 
L 273.083767 269.595311 
L 274.615157 270.977711 
L 276.146546 270.780225 
L 277.677935 270.187768 
L 279.209325 270.187768 
L 282.272103 271.372682 
L 283.803493 271.570168 
L 285.334882 269.990282 
L 288.397661 271.175196 
L 289.92905 270.977711 
L 291.46044 269.397825 
L 292.991829 269.990282 
L 294.523218 269.990282 
L 296.054608 270.582739 
L 297.585997 268.410396 
L 299.117386 269.595311 
L 300.648776 268.410396 
L 302.180165 270.780225 
L 303.711554 269.792796 
L 305.242944 269.200339 
L 306.774333 269.397825 
L 308.305723 270.385254 
L 309.837112 269.792796 
L 311.368501 269.002854 
L 312.899891 269.595311 
L 314.43128 269.397825 
L 315.962669 270.385254 
L 317.494059 265.645596 
L 319.025448 267.817939 
L 320.556837 265.645596 
L 322.088227 265.843082 
L 323.619616 266.830511 
L 325.151006 261.300911 
L 326.682395 265.843082 
L 328.213784 263.473254 
L 329.745174 262.485825 
L 331.276563 259.918511 
L 332.807952 261.300911 
L 334.339342 259.523539 
L 335.870731 257.548682 
L 337.40212 256.956225 
L 338.93351 251.229139 
L 340.464899 251.624111 
L 341.996289 250.044225 
L 343.527678 245.502054 
L 345.059067 246.884454 
L 346.590457 243.724682 
L 348.121846 242.934739 
L 349.653235 231.283082 
L 351.184625 226.938396 
L 352.716014 225.161025 
L 354.247404 225.753482 
L 355.778793 219.038968 
L 357.310182 215.484225 
L 358.841572 217.854054 
L 360.372961 206.992339 
L 361.90435 205.017482 
L 363.43574 203.635082 
L 364.967129 207.782282 
L 366.498518 209.559654 
L 368.029908 220.421368 
L 369.561297 223.383654 
L 371.092687 220.618854 
L 372.624076 230.493139 
L 375.686855 260.510968 
L 377.218244 269.397825 
L 378.749633 272.162625 
L 380.281023 272.162625 
L 380.281023 272.162625 
" style="fill:none;stroke:#1f77b4;stroke-linecap:square;stroke-width:1.5;"/>
    <defs>
     <path d="M 0 3 
C 0.795609 3 1.55874 2.683901 2.12132 2.12132 
C 2.683901 1.55874 3 0.795609 3 0 
C 3 -0.795609 2.683901 -1.55874 2.12132 -2.12132 
C 1.55874 -2.683901 0.795609 -3 0 -3 
C -0.795609 -3 -1.55874 -2.683901 -2.12132 -2.12132 
C -2.683901 -1.55874 -3 -0.795609 -3 0 
C -3 0.795609 -2.683901 1.55874 -2.12132 2.12132 
C -1.55874 2.683901 -0.795609 3 0 3 
z
" id="m26c65b17cb" style="stroke:#1f77b4;"/>
    </defs>
    <g clip-path="url(#pc167e3f897)">
     <use style="fill:#1f77b4;stroke:#1f77b4;" x="55.626477" xlink:href="#m26c65b17cb" y="271.965139"/>
     <use style="fill:#1f77b4;stroke:#1f77b4;" x="57.157867" xlink:href="#m26c65b17cb" y="272.162625"/>
     <use style="fill:#1f77b4;stroke:#1f77b4;" x="58.689256" xlink:href="#m26c65b17cb" y="272.162625"/>
     <use style="fill:#1f77b4;stroke:#1f77b4;" x="60.220645" xlink:href="#m26c65b17cb" y="272.162625"/>
     <use style="fill:#1f77b4;stroke:#1f77b4;" x="61.752035" xlink:href="#m26c65b17cb" y="272.162625"/>
     <use style="fill:#1f77b4;stroke:#1f77b4;" x="63.283424" xlink:href="#m26c65b17cb" y="272.162625"/>
     <use style="fill:#1f77b4;stroke:#1f77b4;" x="64.814813" xlink:href="#m26c65b17cb" y="272.162625"/>
     <use style="fill:#1f77b4;stroke:#1f77b4;" x="66.346203" xlink:href="#m26c65b17cb" y="272.162625"/>
     <use style="fill:#1f77b4;stroke:#1f77b4;" x="67.877592" xlink:href="#m26c65b17cb" y="272.162625"/>
     <use style="fill:#1f77b4;stroke:#1f77b4;" x="69.408982" xlink:href="#m26c65b17cb" y="272.162625"/>
     <use style="fill:#1f77b4;stroke:#1f77b4;" x="70.940371" xlink:href="#m26c65b17cb" y="272.162625"/>
     <use style="fill:#1f77b4;stroke:#1f77b4;" x="72.47176" xlink:href="#m26c65b17cb" y="271.767654"/>
     <use style="fill:#1f77b4;stroke:#1f77b4;" x="74.00315" xlink:href="#m26c65b17cb" y="272.162625"/>
     <use style="fill:#1f77b4;stroke:#1f77b4;" x="75.534539" xlink:href="#m26c65b17cb" y="272.162625"/>
     <use style="fill:#1f77b4;stroke:#1f77b4;" x="77.065928" xlink:href="#m26c65b17cb" y="272.162625"/>
     <use style="fill:#1f77b4;stroke:#1f77b4;" x="78.597318" xlink:href="#m26c65b17cb" y="272.162625"/>
     <use style="fill:#1f77b4;stroke:#1f77b4;" x="80.128707" xlink:href="#m26c65b17cb" y="272.162625"/>
     <use style="fill:#1f77b4;stroke:#1f77b4;" x="81.660096" xlink:href="#m26c65b17cb" y="271.570168"/>
     <use style="fill:#1f77b4;stroke:#1f77b4;" x="83.191486" xlink:href="#m26c65b17cb" y="271.965139"/>
     <use style="fill:#1f77b4;stroke:#1f77b4;" x="84.722875" xlink:href="#m26c65b17cb" y="271.767654"/>
     <use style="fill:#1f77b4;stroke:#1f77b4;" x="86.254265" xlink:href="#m26c65b17cb" y="271.965139"/>
     <use style="fill:#1f77b4;stroke:#1f77b4;" x="87.785654" xlink:href="#m26c65b17cb" y="271.767654"/>
     <use style="fill:#1f77b4;stroke:#1f77b4;" x="89.317043" xlink:href="#m26c65b17cb" y="271.767654"/>
     <use style="fill:#1f77b4;stroke:#1f77b4;" x="90.848433" xlink:href="#m26c65b17cb" y="271.570168"/>
     <use style="fill:#1f77b4;stroke:#1f77b4;" x="92.379822" xlink:href="#m26c65b17cb" y="272.162625"/>
     <use style="fill:#1f77b4;stroke:#1f77b4;" x="93.911211" xlink:href="#m26c65b17cb" y="271.965139"/>
     <use style="fill:#1f77b4;stroke:#1f77b4;" x="95.442601" xlink:href="#m26c65b17cb" y="271.767654"/>
     <use style="fill:#1f77b4;stroke:#1f77b4;" x="96.97399" xlink:href="#m26c65b17cb" y="271.965139"/>
     <use style="fill:#1f77b4;stroke:#1f77b4;" x="98.50538" xlink:href="#m26c65b17cb" y="271.372682"/>
     <use style="fill:#1f77b4;stroke:#1f77b4;" x="100.036769" xlink:href="#m26c65b17cb" y="271.570168"/>
     <use style="fill:#1f77b4;stroke:#1f77b4;" x="101.568158" xlink:href="#m26c65b17cb" y="271.372682"/>
     <use style="fill:#1f77b4;stroke:#1f77b4;" x="103.099548" xlink:href="#m26c65b17cb" y="270.582739"/>
     <use style="fill:#1f77b4;stroke:#1f77b4;" x="104.630937" xlink:href="#m26c65b17cb" y="271.175196"/>
     <use style="fill:#1f77b4;stroke:#1f77b4;" x="106.162326" xlink:href="#m26c65b17cb" y="271.767654"/>
     <use style="fill:#1f77b4;stroke:#1f77b4;" x="107.693716" xlink:href="#m26c65b17cb" y="270.977711"/>
     <use style="fill:#1f77b4;stroke:#1f77b4;" x="109.225105" xlink:href="#m26c65b17cb" y="271.175196"/>
     <use style="fill:#1f77b4;stroke:#1f77b4;" x="110.756494" xlink:href="#m26c65b17cb" y="271.767654"/>
     <use style="fill:#1f77b4;stroke:#1f77b4;" x="112.287884" xlink:href="#m26c65b17cb" y="271.965139"/>
     <use style="fill:#1f77b4;stroke:#1f77b4;" x="113.819273" xlink:href="#m26c65b17cb" y="270.385254"/>
     <use style="fill:#1f77b4;stroke:#1f77b4;" x="115.350663" xlink:href="#m26c65b17cb" y="272.162625"/>
     <use style="fill:#1f77b4;stroke:#1f77b4;" x="116.882052" xlink:href="#m26c65b17cb" y="270.780225"/>
     <use style="fill:#1f77b4;stroke:#1f77b4;" x="118.413441" xlink:href="#m26c65b17cb" y="270.780225"/>
     <use style="fill:#1f77b4;stroke:#1f77b4;" x="119.944831" xlink:href="#m26c65b17cb" y="270.385254"/>
     <use style="fill:#1f77b4;stroke:#1f77b4;" x="121.47622" xlink:href="#m26c65b17cb" y="270.385254"/>
     <use style="fill:#1f77b4;stroke:#1f77b4;" x="123.007609" xlink:href="#m26c65b17cb" y="269.200339"/>
     <use style="fill:#1f77b4;stroke:#1f77b4;" x="124.538999" xlink:href="#m26c65b17cb" y="269.990282"/>
     <use style="fill:#1f77b4;stroke:#1f77b4;" x="126.070388" xlink:href="#m26c65b17cb" y="269.397825"/>
     <use style="fill:#1f77b4;stroke:#1f77b4;" x="127.601777" xlink:href="#m26c65b17cb" y="269.200339"/>
     <use style="fill:#1f77b4;stroke:#1f77b4;" x="129.133167" xlink:href="#m26c65b17cb" y="267.817939"/>
     <use style="fill:#1f77b4;stroke:#1f77b4;" x="130.664556" xlink:href="#m26c65b17cb" y="268.607882"/>
     <use style="fill:#1f77b4;stroke:#1f77b4;" x="132.195946" xlink:href="#m26c65b17cb" y="268.212911"/>
     <use style="fill:#1f77b4;stroke:#1f77b4;" x="133.727335" xlink:href="#m26c65b17cb" y="267.620454"/>
     <use style="fill:#1f77b4;stroke:#1f77b4;" x="135.258724" xlink:href="#m26c65b17cb" y="267.225482"/>
     <use style="fill:#1f77b4;stroke:#1f77b4;" x="136.790114" xlink:href="#m26c65b17cb" y="265.645596"/>
     <use style="fill:#1f77b4;stroke:#1f77b4;" x="138.321503" xlink:href="#m26c65b17cb" y="266.238054"/>
     <use style="fill:#1f77b4;stroke:#1f77b4;" x="139.852892" xlink:href="#m26c65b17cb" y="267.225482"/>
     <use style="fill:#1f77b4;stroke:#1f77b4;" x="141.384282" xlink:href="#m26c65b17cb" y="265.053139"/>
     <use style="fill:#1f77b4;stroke:#1f77b4;" x="142.915671" xlink:href="#m26c65b17cb" y="267.225482"/>
     <use style="fill:#1f77b4;stroke:#1f77b4;" x="144.44706" xlink:href="#m26c65b17cb" y="266.830511"/>
     <use style="fill:#1f77b4;stroke:#1f77b4;" x="145.97845" xlink:href="#m26c65b17cb" y="264.065711"/>
     <use style="fill:#1f77b4;stroke:#1f77b4;" x="147.509839" xlink:href="#m26c65b17cb" y="267.225482"/>
     <use style="fill:#1f77b4;stroke:#1f77b4;" x="149.041229" xlink:href="#m26c65b17cb" y="265.843082"/>
     <use style="fill:#1f77b4;stroke:#1f77b4;" x="150.572618" xlink:href="#m26c65b17cb" y="266.435539"/>
     <use style="fill:#1f77b4;stroke:#1f77b4;" x="152.104007" xlink:href="#m26c65b17cb" y="266.830511"/>
     <use style="fill:#1f77b4;stroke:#1f77b4;" x="153.635397" xlink:href="#m26c65b17cb" y="264.658168"/>
     <use style="fill:#1f77b4;stroke:#1f77b4;" x="155.166786" xlink:href="#m26c65b17cb" y="265.843082"/>
     <use style="fill:#1f77b4;stroke:#1f77b4;" x="156.698175" xlink:href="#m26c65b17cb" y="263.473254"/>
     <use style="fill:#1f77b4;stroke:#1f77b4;" x="158.229565" xlink:href="#m26c65b17cb" y="266.830511"/>
     <use style="fill:#1f77b4;stroke:#1f77b4;" x="159.760954" xlink:href="#m26c65b17cb" y="264.263196"/>
     <use style="fill:#1f77b4;stroke:#1f77b4;" x="161.292343" xlink:href="#m26c65b17cb" y="265.843082"/>
     <use style="fill:#1f77b4;stroke:#1f77b4;" x="162.823733" xlink:href="#m26c65b17cb" y="263.275768"/>
     <use style="fill:#1f77b4;stroke:#1f77b4;" x="164.355122" xlink:href="#m26c65b17cb" y="266.238054"/>
     <use style="fill:#1f77b4;stroke:#1f77b4;" x="165.886512" xlink:href="#m26c65b17cb" y="265.645596"/>
     <use style="fill:#1f77b4;stroke:#1f77b4;" x="167.417901" xlink:href="#m26c65b17cb" y="264.263196"/>
     <use style="fill:#1f77b4;stroke:#1f77b4;" x="168.94929" xlink:href="#m26c65b17cb" y="262.090854"/>
     <use style="fill:#1f77b4;stroke:#1f77b4;" x="170.48068" xlink:href="#m26c65b17cb" y="261.103425"/>
     <use style="fill:#1f77b4;stroke:#1f77b4;" x="172.012069" xlink:href="#m26c65b17cb" y="257.746168"/>
     <use style="fill:#1f77b4;stroke:#1f77b4;" x="173.543458" xlink:href="#m26c65b17cb" y="260.115996"/>
     <use style="fill:#1f77b4;stroke:#1f77b4;" x="175.074848" xlink:href="#m26c65b17cb" y="257.746168"/>
     <use style="fill:#1f77b4;stroke:#1f77b4;" x="176.606237" xlink:href="#m26c65b17cb" y="256.956225"/>
     <use style="fill:#1f77b4;stroke:#1f77b4;" x="178.137627" xlink:href="#m26c65b17cb" y="250.834168"/>
     <use style="fill:#1f77b4;stroke:#1f77b4;" x="179.669016" xlink:href="#m26c65b17cb" y="253.401482"/>
     <use style="fill:#1f77b4;stroke:#1f77b4;" x="181.200405" xlink:href="#m26c65b17cb" y="249.846739"/>
     <use style="fill:#1f77b4;stroke:#1f77b4;" x="182.731795" xlink:href="#m26c65b17cb" y="247.081939"/>
     <use style="fill:#1f77b4;stroke:#1f77b4;" x="184.263184" xlink:href="#m26c65b17cb" y="229.703196"/>
     <use style="fill:#1f77b4;stroke:#1f77b4;" x="185.794573" xlink:href="#m26c65b17cb" y="234.640339"/>
     <use style="fill:#1f77b4;stroke:#1f77b4;" x="187.325963" xlink:href="#m26c65b17cb" y="234.442854"/>
     <use style="fill:#1f77b4;stroke:#1f77b4;" x="188.857352" xlink:href="#m26c65b17cb" y="215.089254"/>
     <use style="fill:#1f77b4;stroke:#1f77b4;" x="190.388741" xlink:href="#m26c65b17cb" y="215.484225"/>
     <use style="fill:#1f77b4;stroke:#1f77b4;" x="191.920131" xlink:href="#m26c65b17cb" y="203.437596"/>
     <use style="fill:#1f77b4;stroke:#1f77b4;" x="193.45152" xlink:href="#m26c65b17cb" y="215.681711"/>
     <use style="fill:#1f77b4;stroke:#1f77b4;" x="194.98291" xlink:href="#m26c65b17cb" y="203.437596"/>
     <use style="fill:#1f77b4;stroke:#1f77b4;" x="196.514299" xlink:href="#m26c65b17cb" y="214.496796"/>
     <use style="fill:#1f77b4;stroke:#1f77b4;" x="198.045688" xlink:href="#m26c65b17cb" y="222.593711"/>
     <use style="fill:#1f77b4;stroke:#1f77b4;" x="199.577078" xlink:href="#m26c65b17cb" y="209.559654"/>
     <use style="fill:#1f77b4;stroke:#1f77b4;" x="201.108467" xlink:href="#m26c65b17cb" y="218.643996"/>
     <use style="fill:#1f77b4;stroke:#1f77b4;" x="202.639856" xlink:href="#m26c65b17cb" y="217.459082"/>
     <use style="fill:#1f77b4;stroke:#1f77b4;" x="204.171246" xlink:href="#m26c65b17cb" y="227.530854"/>
     <use style="fill:#1f77b4;stroke:#1f77b4;" x="205.702635" xlink:href="#m26c65b17cb" y="223.976111"/>
     <use style="fill:#1f77b4;stroke:#1f77b4;" x="207.234024" xlink:href="#m26c65b17cb" y="225.161025"/>
     <use style="fill:#1f77b4;stroke:#1f77b4;" x="208.765414" xlink:href="#m26c65b17cb" y="233.850396"/>
     <use style="fill:#1f77b4;stroke:#1f77b4;" x="210.296803" xlink:href="#m26c65b17cb" y="229.703196"/>
     <use style="fill:#1f77b4;stroke:#1f77b4;" x="211.828193" xlink:href="#m26c65b17cb" y="231.085596"/>
     <use style="fill:#1f77b4;stroke:#1f77b4;" x="213.359582" xlink:href="#m26c65b17cb" y="232.467996"/>
     <use style="fill:#1f77b4;stroke:#1f77b4;" x="214.890971" xlink:href="#m26c65b17cb" y="244.712111"/>
     <use style="fill:#1f77b4;stroke:#1f77b4;" x="216.422361" xlink:href="#m26c65b17cb" y="241.947311"/>
     <use style="fill:#1f77b4;stroke:#1f77b4;" x="217.95375" xlink:href="#m26c65b17cb" y="243.922168"/>
     <use style="fill:#1f77b4;stroke:#1f77b4;" x="219.485139" xlink:href="#m26c65b17cb" y="249.451768"/>
     <use style="fill:#1f77b4;stroke:#1f77b4;" x="221.016529" xlink:href="#m26c65b17cb" y="241.749825"/>
     <use style="fill:#1f77b4;stroke:#1f77b4;" x="222.547918" xlink:href="#m26c65b17cb" y="251.426625"/>
     <use style="fill:#1f77b4;stroke:#1f77b4;" x="224.079307" xlink:href="#m26c65b17cb" y="250.439196"/>
     <use style="fill:#1f77b4;stroke:#1f77b4;" x="225.610697" xlink:href="#m26c65b17cb" y="257.351196"/>
     <use style="fill:#1f77b4;stroke:#1f77b4;" x="227.142086" xlink:href="#m26c65b17cb" y="251.229139"/>
     <use style="fill:#1f77b4;stroke:#1f77b4;" x="228.673476" xlink:href="#m26c65b17cb" y="257.943654"/>
     <use style="fill:#1f77b4;stroke:#1f77b4;" x="230.204865" xlink:href="#m26c65b17cb" y="257.351196"/>
     <use style="fill:#1f77b4;stroke:#1f77b4;" x="231.736254" xlink:href="#m26c65b17cb" y="255.573825"/>
     <use style="fill:#1f77b4;stroke:#1f77b4;" x="233.267644" xlink:href="#m26c65b17cb" y="260.708454"/>
     <use style="fill:#1f77b4;stroke:#1f77b4;" x="234.799033" xlink:href="#m26c65b17cb" y="262.288339"/>
     <use style="fill:#1f77b4;stroke:#1f77b4;" x="236.330422" xlink:href="#m26c65b17cb" y="259.128568"/>
     <use style="fill:#1f77b4;stroke:#1f77b4;" x="237.861812" xlink:href="#m26c65b17cb" y="261.498396"/>
     <use style="fill:#1f77b4;stroke:#1f77b4;" x="239.393201" xlink:href="#m26c65b17cb" y="261.103425"/>
     <use style="fill:#1f77b4;stroke:#1f77b4;" x="240.92459" xlink:href="#m26c65b17cb" y="265.250625"/>
     <use style="fill:#1f77b4;stroke:#1f77b4;" x="242.45598" xlink:href="#m26c65b17cb" y="266.435539"/>
     <use style="fill:#1f77b4;stroke:#1f77b4;" x="243.987369" xlink:href="#m26c65b17cb" y="265.448111"/>
     <use style="fill:#1f77b4;stroke:#1f77b4;" x="245.518759" xlink:href="#m26c65b17cb" y="267.027996"/>
     <use style="fill:#1f77b4;stroke:#1f77b4;" x="247.050148" xlink:href="#m26c65b17cb" y="266.435539"/>
     <use style="fill:#1f77b4;stroke:#1f77b4;" x="248.581537" xlink:href="#m26c65b17cb" y="267.817939"/>
     <use style="fill:#1f77b4;stroke:#1f77b4;" x="250.112927" xlink:href="#m26c65b17cb" y="268.607882"/>
     <use style="fill:#1f77b4;stroke:#1f77b4;" x="251.644316" xlink:href="#m26c65b17cb" y="268.607882"/>
     <use style="fill:#1f77b4;stroke:#1f77b4;" x="253.175705" xlink:href="#m26c65b17cb" y="268.410396"/>
     <use style="fill:#1f77b4;stroke:#1f77b4;" x="254.707095" xlink:href="#m26c65b17cb" y="268.015425"/>
     <use style="fill:#1f77b4;stroke:#1f77b4;" x="256.238484" xlink:href="#m26c65b17cb" y="269.397825"/>
     <use style="fill:#1f77b4;stroke:#1f77b4;" x="257.769873" xlink:href="#m26c65b17cb" y="269.397825"/>
     <use style="fill:#1f77b4;stroke:#1f77b4;" x="259.301263" xlink:href="#m26c65b17cb" y="268.607882"/>
     <use style="fill:#1f77b4;stroke:#1f77b4;" x="260.832652" xlink:href="#m26c65b17cb" y="270.385254"/>
     <use style="fill:#1f77b4;stroke:#1f77b4;" x="262.364042" xlink:href="#m26c65b17cb" y="269.397825"/>
     <use style="fill:#1f77b4;stroke:#1f77b4;" x="263.895431" xlink:href="#m26c65b17cb" y="270.385254"/>
     <use style="fill:#1f77b4;stroke:#1f77b4;" x="265.42682" xlink:href="#m26c65b17cb" y="268.805368"/>
     <use style="fill:#1f77b4;stroke:#1f77b4;" x="266.95821" xlink:href="#m26c65b17cb" y="270.780225"/>
     <use style="fill:#1f77b4;stroke:#1f77b4;" x="268.489599" xlink:href="#m26c65b17cb" y="269.990282"/>
     <use style="fill:#1f77b4;stroke:#1f77b4;" x="270.020988" xlink:href="#m26c65b17cb" y="269.002854"/>
     <use style="fill:#1f77b4;stroke:#1f77b4;" x="271.552378" xlink:href="#m26c65b17cb" y="270.187768"/>
     <use style="fill:#1f77b4;stroke:#1f77b4;" x="273.083767" xlink:href="#m26c65b17cb" y="269.595311"/>
     <use style="fill:#1f77b4;stroke:#1f77b4;" x="274.615157" xlink:href="#m26c65b17cb" y="270.977711"/>
     <use style="fill:#1f77b4;stroke:#1f77b4;" x="276.146546" xlink:href="#m26c65b17cb" y="270.780225"/>
     <use style="fill:#1f77b4;stroke:#1f77b4;" x="277.677935" xlink:href="#m26c65b17cb" y="270.187768"/>
     <use style="fill:#1f77b4;stroke:#1f77b4;" x="279.209325" xlink:href="#m26c65b17cb" y="270.187768"/>
     <use style="fill:#1f77b4;stroke:#1f77b4;" x="280.740714" xlink:href="#m26c65b17cb" y="270.780225"/>
     <use style="fill:#1f77b4;stroke:#1f77b4;" x="282.272103" xlink:href="#m26c65b17cb" y="271.372682"/>
     <use style="fill:#1f77b4;stroke:#1f77b4;" x="283.803493" xlink:href="#m26c65b17cb" y="271.570168"/>
     <use style="fill:#1f77b4;stroke:#1f77b4;" x="285.334882" xlink:href="#m26c65b17cb" y="269.990282"/>
     <use style="fill:#1f77b4;stroke:#1f77b4;" x="286.866271" xlink:href="#m26c65b17cb" y="270.582739"/>
     <use style="fill:#1f77b4;stroke:#1f77b4;" x="288.397661" xlink:href="#m26c65b17cb" y="271.175196"/>
     <use style="fill:#1f77b4;stroke:#1f77b4;" x="289.92905" xlink:href="#m26c65b17cb" y="270.977711"/>
     <use style="fill:#1f77b4;stroke:#1f77b4;" x="291.46044" xlink:href="#m26c65b17cb" y="269.397825"/>
     <use style="fill:#1f77b4;stroke:#1f77b4;" x="292.991829" xlink:href="#m26c65b17cb" y="269.990282"/>
     <use style="fill:#1f77b4;stroke:#1f77b4;" x="294.523218" xlink:href="#m26c65b17cb" y="269.990282"/>
     <use style="fill:#1f77b4;stroke:#1f77b4;" x="296.054608" xlink:href="#m26c65b17cb" y="270.582739"/>
     <use style="fill:#1f77b4;stroke:#1f77b4;" x="297.585997" xlink:href="#m26c65b17cb" y="268.410396"/>
     <use style="fill:#1f77b4;stroke:#1f77b4;" x="299.117386" xlink:href="#m26c65b17cb" y="269.595311"/>
     <use style="fill:#1f77b4;stroke:#1f77b4;" x="300.648776" xlink:href="#m26c65b17cb" y="268.410396"/>
     <use style="fill:#1f77b4;stroke:#1f77b4;" x="302.180165" xlink:href="#m26c65b17cb" y="270.780225"/>
     <use style="fill:#1f77b4;stroke:#1f77b4;" x="303.711554" xlink:href="#m26c65b17cb" y="269.792796"/>
     <use style="fill:#1f77b4;stroke:#1f77b4;" x="305.242944" xlink:href="#m26c65b17cb" y="269.200339"/>
     <use style="fill:#1f77b4;stroke:#1f77b4;" x="306.774333" xlink:href="#m26c65b17cb" y="269.397825"/>
     <use style="fill:#1f77b4;stroke:#1f77b4;" x="308.305723" xlink:href="#m26c65b17cb" y="270.385254"/>
     <use style="fill:#1f77b4;stroke:#1f77b4;" x="309.837112" xlink:href="#m26c65b17cb" y="269.792796"/>
     <use style="fill:#1f77b4;stroke:#1f77b4;" x="311.368501" xlink:href="#m26c65b17cb" y="269.002854"/>
     <use style="fill:#1f77b4;stroke:#1f77b4;" x="312.899891" xlink:href="#m26c65b17cb" y="269.595311"/>
     <use style="fill:#1f77b4;stroke:#1f77b4;" x="314.43128" xlink:href="#m26c65b17cb" y="269.397825"/>
     <use style="fill:#1f77b4;stroke:#1f77b4;" x="315.962669" xlink:href="#m26c65b17cb" y="270.385254"/>
     <use style="fill:#1f77b4;stroke:#1f77b4;" x="317.494059" xlink:href="#m26c65b17cb" y="265.645596"/>
     <use style="fill:#1f77b4;stroke:#1f77b4;" x="319.025448" xlink:href="#m26c65b17cb" y="267.817939"/>
     <use style="fill:#1f77b4;stroke:#1f77b4;" x="320.556837" xlink:href="#m26c65b17cb" y="265.645596"/>
     <use style="fill:#1f77b4;stroke:#1f77b4;" x="322.088227" xlink:href="#m26c65b17cb" y="265.843082"/>
     <use style="fill:#1f77b4;stroke:#1f77b4;" x="323.619616" xlink:href="#m26c65b17cb" y="266.830511"/>
     <use style="fill:#1f77b4;stroke:#1f77b4;" x="325.151006" xlink:href="#m26c65b17cb" y="261.300911"/>
     <use style="fill:#1f77b4;stroke:#1f77b4;" x="326.682395" xlink:href="#m26c65b17cb" y="265.843082"/>
     <use style="fill:#1f77b4;stroke:#1f77b4;" x="328.213784" xlink:href="#m26c65b17cb" y="263.473254"/>
     <use style="fill:#1f77b4;stroke:#1f77b4;" x="329.745174" xlink:href="#m26c65b17cb" y="262.485825"/>
     <use style="fill:#1f77b4;stroke:#1f77b4;" x="331.276563" xlink:href="#m26c65b17cb" y="259.918511"/>
     <use style="fill:#1f77b4;stroke:#1f77b4;" x="332.807952" xlink:href="#m26c65b17cb" y="261.300911"/>
     <use style="fill:#1f77b4;stroke:#1f77b4;" x="334.339342" xlink:href="#m26c65b17cb" y="259.523539"/>
     <use style="fill:#1f77b4;stroke:#1f77b4;" x="335.870731" xlink:href="#m26c65b17cb" y="257.548682"/>
     <use style="fill:#1f77b4;stroke:#1f77b4;" x="337.40212" xlink:href="#m26c65b17cb" y="256.956225"/>
     <use style="fill:#1f77b4;stroke:#1f77b4;" x="338.93351" xlink:href="#m26c65b17cb" y="251.229139"/>
     <use style="fill:#1f77b4;stroke:#1f77b4;" x="340.464899" xlink:href="#m26c65b17cb" y="251.624111"/>
     <use style="fill:#1f77b4;stroke:#1f77b4;" x="341.996289" xlink:href="#m26c65b17cb" y="250.044225"/>
     <use style="fill:#1f77b4;stroke:#1f77b4;" x="343.527678" xlink:href="#m26c65b17cb" y="245.502054"/>
     <use style="fill:#1f77b4;stroke:#1f77b4;" x="345.059067" xlink:href="#m26c65b17cb" y="246.884454"/>
     <use style="fill:#1f77b4;stroke:#1f77b4;" x="346.590457" xlink:href="#m26c65b17cb" y="243.724682"/>
     <use style="fill:#1f77b4;stroke:#1f77b4;" x="348.121846" xlink:href="#m26c65b17cb" y="242.934739"/>
     <use style="fill:#1f77b4;stroke:#1f77b4;" x="349.653235" xlink:href="#m26c65b17cb" y="231.283082"/>
     <use style="fill:#1f77b4;stroke:#1f77b4;" x="351.184625" xlink:href="#m26c65b17cb" y="226.938396"/>
     <use style="fill:#1f77b4;stroke:#1f77b4;" x="352.716014" xlink:href="#m26c65b17cb" y="225.161025"/>
     <use style="fill:#1f77b4;stroke:#1f77b4;" x="354.247404" xlink:href="#m26c65b17cb" y="225.753482"/>
     <use style="fill:#1f77b4;stroke:#1f77b4;" x="355.778793" xlink:href="#m26c65b17cb" y="219.038968"/>
     <use style="fill:#1f77b4;stroke:#1f77b4;" x="357.310182" xlink:href="#m26c65b17cb" y="215.484225"/>
     <use style="fill:#1f77b4;stroke:#1f77b4;" x="358.841572" xlink:href="#m26c65b17cb" y="217.854054"/>
     <use style="fill:#1f77b4;stroke:#1f77b4;" x="360.372961" xlink:href="#m26c65b17cb" y="206.992339"/>
     <use style="fill:#1f77b4;stroke:#1f77b4;" x="361.90435" xlink:href="#m26c65b17cb" y="205.017482"/>
     <use style="fill:#1f77b4;stroke:#1f77b4;" x="363.43574" xlink:href="#m26c65b17cb" y="203.635082"/>
     <use style="fill:#1f77b4;stroke:#1f77b4;" x="364.967129" xlink:href="#m26c65b17cb" y="207.782282"/>
     <use style="fill:#1f77b4;stroke:#1f77b4;" x="366.498518" xlink:href="#m26c65b17cb" y="209.559654"/>
     <use style="fill:#1f77b4;stroke:#1f77b4;" x="368.029908" xlink:href="#m26c65b17cb" y="220.421368"/>
     <use style="fill:#1f77b4;stroke:#1f77b4;" x="369.561297" xlink:href="#m26c65b17cb" y="223.383654"/>
     <use style="fill:#1f77b4;stroke:#1f77b4;" x="371.092687" xlink:href="#m26c65b17cb" y="220.618854"/>
     <use style="fill:#1f77b4;stroke:#1f77b4;" x="372.624076" xlink:href="#m26c65b17cb" y="230.493139"/>
     <use style="fill:#1f77b4;stroke:#1f77b4;" x="374.155465" xlink:href="#m26c65b17cb" y="245.304568"/>
     <use style="fill:#1f77b4;stroke:#1f77b4;" x="375.686855" xlink:href="#m26c65b17cb" y="260.510968"/>
     <use style="fill:#1f77b4;stroke:#1f77b4;" x="377.218244" xlink:href="#m26c65b17cb" y="269.397825"/>
     <use style="fill:#1f77b4;stroke:#1f77b4;" x="378.749633" xlink:href="#m26c65b17cb" y="272.162625"/>
     <use style="fill:#1f77b4;stroke:#1f77b4;" x="380.281023" xlink:href="#m26c65b17cb" y="272.162625"/>
    </g>
   </g>
   <g id="line2d_17">
    <path clip-path="url(#pc167e3f897)" d="M 55.626477 272.162625 
L 72.47176 272.162625 
L 74.00315 271.965139 
L 75.534539 272.162625 
L 86.254265 272.162625 
L 87.785654 271.965139 
L 90.848433 271.965139 
L 92.379822 272.162625 
L 93.911211 271.570168 
L 95.442601 271.965139 
L 96.97399 270.977711 
L 98.50538 271.767654 
L 100.036769 271.570168 
L 101.568158 272.162625 
L 103.099548 272.162625 
L 104.630937 271.372682 
L 107.693716 272.162625 
L 109.225105 271.965139 
L 110.756494 272.162625 
L 112.287884 272.162625 
L 113.819273 271.767654 
L 116.882052 272.162625 
L 121.47622 269.792796 
L 123.007609 270.977711 
L 124.538999 270.780225 
L 126.070388 270.187768 
L 127.601777 270.385254 
L 129.133167 270.385254 
L 130.664556 268.805368 
L 132.195946 267.027996 
L 133.727335 270.187768 
L 135.258724 269.792796 
L 136.790114 269.200339 
L 138.321503 268.805368 
L 139.852892 267.225482 
L 141.384282 268.212911 
L 142.915671 270.582739 
L 144.44706 269.397825 
L 147.509839 268.212911 
L 149.041229 265.053139 
L 150.572618 265.053139 
L 152.104007 260.905939 
L 153.635397 264.658168 
L 155.166786 264.855654 
L 156.698175 267.027996 
L 158.229565 258.536111 
L 161.292343 263.275768 
L 162.823733 264.065711 
L 164.355122 261.498396 
L 165.886512 266.238054 
L 167.417901 268.410396 
L 168.94929 263.078282 
L 170.48068 263.473254 
L 172.012069 263.078282 
L 173.543458 263.275768 
L 175.074848 263.670739 
L 176.606237 263.670739 
L 178.137627 264.658168 
L 179.669016 256.363768 
L 181.200405 253.993939 
L 182.731795 252.611539 
L 184.263184 247.279425 
L 185.794573 231.480568 
L 187.325963 240.762396 
L 188.857352 242.737254 
L 190.388741 225.555996 
L 191.920131 217.064111 
L 193.45152 214.299311 
L 194.98291 203.635082 
L 196.514299 194.945711 
L 198.045688 212.324454 
L 199.577078 220.223882 
L 201.108467 177.764454 
L 202.639856 177.566968 
L 204.171246 145.376796 
L 205.702635 146.166739 
L 207.234024 134.910054 
L 208.765414 181.516682 
L 210.296803 210.349596 
L 211.828193 169.075082 
L 213.359582 156.830968 
L 214.890971 167.100225 
L 216.422361 160.780682 
L 217.95375 160.385711 
L 219.485139 206.597368 
L 221.016529 200.672796 
L 222.547918 190.798511 
L 224.079307 185.268911 
L 225.610697 188.033711 
L 227.142086 184.873939 
L 228.673476 200.277825 
L 230.204865 231.283082 
L 231.736254 237.997596 
L 233.267644 214.496796 
L 234.799033 229.110739 
L 236.330422 236.220225 
L 237.861812 215.286739 
L 239.393201 212.521939 
L 240.92459 235.430282 
L 243.987369 249.254282 
L 245.518759 253.401482 
L 247.050148 254.388911 
L 248.581537 252.611539 
L 250.112927 250.044225 
L 251.644316 258.733596 
L 253.175705 265.250625 
L 254.707095 257.351196 
L 256.238484 257.153711 
L 257.769873 256.166282 
L 259.301263 260.313482 
L 260.832652 263.868225 
L 262.364042 267.027996 
L 263.895431 268.015425 
L 265.42682 263.275768 
L 266.95821 266.040568 
L 268.489599 264.658168 
L 270.020988 265.843082 
L 271.552378 267.422968 
L 273.083767 266.435539 
L 274.615157 267.027996 
L 276.146546 267.027996 
L 277.677935 263.473254 
L 279.209325 262.880796 
L 280.740714 255.178854 
L 282.272103 263.670739 
L 283.803493 266.830511 
L 285.334882 264.855654 
L 286.866271 262.090854 
L 288.397661 266.238054 
L 289.92905 261.300911 
L 292.991829 264.065711 
L 294.523218 265.645596 
L 296.054608 266.633025 
L 297.585997 263.473254 
L 299.117386 264.065711 
L 300.648776 262.880796 
L 302.180165 261.103425 
L 303.711554 264.263196 
L 305.242944 257.746168 
L 306.774333 257.746168 
L 308.305723 262.090854 
L 309.837112 264.460682 
L 311.368501 259.128568 
L 312.899891 260.313482 
L 314.43128 259.523539 
L 315.962669 261.893368 
L 317.494059 263.275768 
L 319.025448 259.128568 
L 320.556837 252.216568 
L 322.088227 256.758739 
L 323.619616 252.611539 
L 325.151006 251.624111 
L 326.682395 251.821596 
L 328.213784 248.464339 
L 329.745174 244.317139 
L 331.276563 245.699539 
L 332.807952 231.283082 
L 334.339342 224.568568 
L 335.870731 218.643996 
L 337.40212 233.455425 
L 338.93351 234.640339 
L 340.464899 224.568568 
L 341.996289 235.035311 
L 343.527678 197.710511 
L 345.059067 190.008568 
L 346.590457 192.970854 
L 348.121846 204.819996 
L 349.653235 218.446511 
L 351.184625 204.622511 
L 352.716014 180.529254 
L 354.247404 150.906396 
L 355.778793 145.574282 
L 357.310182 151.696339 
L 358.841572 180.331768 
L 360.372961 176.382054 
L 361.90435 146.956682 
L 363.43574 103.114854 
L 364.967129 94.227996 
L 366.498518 123.258396 
L 368.029908 114.963996 
L 369.561297 125.628225 
L 371.092687 147.549139 
L 372.624076 81.983882 
L 375.686855 52.361025 
L 377.218244 30.242625 
L 378.749633 104.892225 
L 380.281023 213.904339 
L 380.281023 213.904339 
" style="fill:none;stroke:#ff7f0e;stroke-linecap:square;stroke-width:1.5;"/>
    <defs>
     <path d="M 0 3 
C 0.795609 3 1.55874 2.683901 2.12132 2.12132 
C 2.683901 1.55874 3 0.795609 3 0 
C 3 -0.795609 2.683901 -1.55874 2.12132 -2.12132 
C 1.55874 -2.683901 0.795609 -3 0 -3 
C -0.795609 -3 -1.55874 -2.683901 -2.12132 -2.12132 
C -2.683901 -1.55874 -3 -0.795609 -3 0 
C -3 0.795609 -2.683901 1.55874 -2.12132 2.12132 
C -1.55874 2.683901 -0.795609 3 0 3 
z
" id="m65cda5b5cc" style="stroke:#ff7f0e;"/>
    </defs>
    <g clip-path="url(#pc167e3f897)">
     <use style="fill:#ff7f0e;stroke:#ff7f0e;" x="55.626477" xlink:href="#m65cda5b5cc" y="272.162625"/>
     <use style="fill:#ff7f0e;stroke:#ff7f0e;" x="57.157867" xlink:href="#m65cda5b5cc" y="272.162625"/>
     <use style="fill:#ff7f0e;stroke:#ff7f0e;" x="58.689256" xlink:href="#m65cda5b5cc" y="272.162625"/>
     <use style="fill:#ff7f0e;stroke:#ff7f0e;" x="60.220645" xlink:href="#m65cda5b5cc" y="272.162625"/>
     <use style="fill:#ff7f0e;stroke:#ff7f0e;" x="61.752035" xlink:href="#m65cda5b5cc" y="272.162625"/>
     <use style="fill:#ff7f0e;stroke:#ff7f0e;" x="63.283424" xlink:href="#m65cda5b5cc" y="272.162625"/>
     <use style="fill:#ff7f0e;stroke:#ff7f0e;" x="64.814813" xlink:href="#m65cda5b5cc" y="272.162625"/>
     <use style="fill:#ff7f0e;stroke:#ff7f0e;" x="66.346203" xlink:href="#m65cda5b5cc" y="272.162625"/>
     <use style="fill:#ff7f0e;stroke:#ff7f0e;" x="67.877592" xlink:href="#m65cda5b5cc" y="272.162625"/>
     <use style="fill:#ff7f0e;stroke:#ff7f0e;" x="69.408982" xlink:href="#m65cda5b5cc" y="272.162625"/>
     <use style="fill:#ff7f0e;stroke:#ff7f0e;" x="70.940371" xlink:href="#m65cda5b5cc" y="272.162625"/>
     <use style="fill:#ff7f0e;stroke:#ff7f0e;" x="72.47176" xlink:href="#m65cda5b5cc" y="272.162625"/>
     <use style="fill:#ff7f0e;stroke:#ff7f0e;" x="74.00315" xlink:href="#m65cda5b5cc" y="271.965139"/>
     <use style="fill:#ff7f0e;stroke:#ff7f0e;" x="75.534539" xlink:href="#m65cda5b5cc" y="272.162625"/>
     <use style="fill:#ff7f0e;stroke:#ff7f0e;" x="77.065928" xlink:href="#m65cda5b5cc" y="272.162625"/>
     <use style="fill:#ff7f0e;stroke:#ff7f0e;" x="78.597318" xlink:href="#m65cda5b5cc" y="272.162625"/>
     <use style="fill:#ff7f0e;stroke:#ff7f0e;" x="80.128707" xlink:href="#m65cda5b5cc" y="272.162625"/>
     <use style="fill:#ff7f0e;stroke:#ff7f0e;" x="81.660096" xlink:href="#m65cda5b5cc" y="272.162625"/>
     <use style="fill:#ff7f0e;stroke:#ff7f0e;" x="83.191486" xlink:href="#m65cda5b5cc" y="272.162625"/>
     <use style="fill:#ff7f0e;stroke:#ff7f0e;" x="84.722875" xlink:href="#m65cda5b5cc" y="272.162625"/>
     <use style="fill:#ff7f0e;stroke:#ff7f0e;" x="86.254265" xlink:href="#m65cda5b5cc" y="272.162625"/>
     <use style="fill:#ff7f0e;stroke:#ff7f0e;" x="87.785654" xlink:href="#m65cda5b5cc" y="271.965139"/>
     <use style="fill:#ff7f0e;stroke:#ff7f0e;" x="89.317043" xlink:href="#m65cda5b5cc" y="271.965139"/>
     <use style="fill:#ff7f0e;stroke:#ff7f0e;" x="90.848433" xlink:href="#m65cda5b5cc" y="271.965139"/>
     <use style="fill:#ff7f0e;stroke:#ff7f0e;" x="92.379822" xlink:href="#m65cda5b5cc" y="272.162625"/>
     <use style="fill:#ff7f0e;stroke:#ff7f0e;" x="93.911211" xlink:href="#m65cda5b5cc" y="271.570168"/>
     <use style="fill:#ff7f0e;stroke:#ff7f0e;" x="95.442601" xlink:href="#m65cda5b5cc" y="271.965139"/>
     <use style="fill:#ff7f0e;stroke:#ff7f0e;" x="96.97399" xlink:href="#m65cda5b5cc" y="270.977711"/>
     <use style="fill:#ff7f0e;stroke:#ff7f0e;" x="98.50538" xlink:href="#m65cda5b5cc" y="271.767654"/>
     <use style="fill:#ff7f0e;stroke:#ff7f0e;" x="100.036769" xlink:href="#m65cda5b5cc" y="271.570168"/>
     <use style="fill:#ff7f0e;stroke:#ff7f0e;" x="101.568158" xlink:href="#m65cda5b5cc" y="272.162625"/>
     <use style="fill:#ff7f0e;stroke:#ff7f0e;" x="103.099548" xlink:href="#m65cda5b5cc" y="272.162625"/>
     <use style="fill:#ff7f0e;stroke:#ff7f0e;" x="104.630937" xlink:href="#m65cda5b5cc" y="271.372682"/>
     <use style="fill:#ff7f0e;stroke:#ff7f0e;" x="106.162326" xlink:href="#m65cda5b5cc" y="271.767654"/>
     <use style="fill:#ff7f0e;stroke:#ff7f0e;" x="107.693716" xlink:href="#m65cda5b5cc" y="272.162625"/>
     <use style="fill:#ff7f0e;stroke:#ff7f0e;" x="109.225105" xlink:href="#m65cda5b5cc" y="271.965139"/>
     <use style="fill:#ff7f0e;stroke:#ff7f0e;" x="110.756494" xlink:href="#m65cda5b5cc" y="272.162625"/>
     <use style="fill:#ff7f0e;stroke:#ff7f0e;" x="112.287884" xlink:href="#m65cda5b5cc" y="272.162625"/>
     <use style="fill:#ff7f0e;stroke:#ff7f0e;" x="113.819273" xlink:href="#m65cda5b5cc" y="271.767654"/>
     <use style="fill:#ff7f0e;stroke:#ff7f0e;" x="115.350663" xlink:href="#m65cda5b5cc" y="271.965139"/>
     <use style="fill:#ff7f0e;stroke:#ff7f0e;" x="116.882052" xlink:href="#m65cda5b5cc" y="272.162625"/>
     <use style="fill:#ff7f0e;stroke:#ff7f0e;" x="118.413441" xlink:href="#m65cda5b5cc" y="271.372682"/>
     <use style="fill:#ff7f0e;stroke:#ff7f0e;" x="119.944831" xlink:href="#m65cda5b5cc" y="270.582739"/>
     <use style="fill:#ff7f0e;stroke:#ff7f0e;" x="121.47622" xlink:href="#m65cda5b5cc" y="269.792796"/>
     <use style="fill:#ff7f0e;stroke:#ff7f0e;" x="123.007609" xlink:href="#m65cda5b5cc" y="270.977711"/>
     <use style="fill:#ff7f0e;stroke:#ff7f0e;" x="124.538999" xlink:href="#m65cda5b5cc" y="270.780225"/>
     <use style="fill:#ff7f0e;stroke:#ff7f0e;" x="126.070388" xlink:href="#m65cda5b5cc" y="270.187768"/>
     <use style="fill:#ff7f0e;stroke:#ff7f0e;" x="127.601777" xlink:href="#m65cda5b5cc" y="270.385254"/>
     <use style="fill:#ff7f0e;stroke:#ff7f0e;" x="129.133167" xlink:href="#m65cda5b5cc" y="270.385254"/>
     <use style="fill:#ff7f0e;stroke:#ff7f0e;" x="130.664556" xlink:href="#m65cda5b5cc" y="268.805368"/>
     <use style="fill:#ff7f0e;stroke:#ff7f0e;" x="132.195946" xlink:href="#m65cda5b5cc" y="267.027996"/>
     <use style="fill:#ff7f0e;stroke:#ff7f0e;" x="133.727335" xlink:href="#m65cda5b5cc" y="270.187768"/>
     <use style="fill:#ff7f0e;stroke:#ff7f0e;" x="135.258724" xlink:href="#m65cda5b5cc" y="269.792796"/>
     <use style="fill:#ff7f0e;stroke:#ff7f0e;" x="136.790114" xlink:href="#m65cda5b5cc" y="269.200339"/>
     <use style="fill:#ff7f0e;stroke:#ff7f0e;" x="138.321503" xlink:href="#m65cda5b5cc" y="268.805368"/>
     <use style="fill:#ff7f0e;stroke:#ff7f0e;" x="139.852892" xlink:href="#m65cda5b5cc" y="267.225482"/>
     <use style="fill:#ff7f0e;stroke:#ff7f0e;" x="141.384282" xlink:href="#m65cda5b5cc" y="268.212911"/>
     <use style="fill:#ff7f0e;stroke:#ff7f0e;" x="142.915671" xlink:href="#m65cda5b5cc" y="270.582739"/>
     <use style="fill:#ff7f0e;stroke:#ff7f0e;" x="144.44706" xlink:href="#m65cda5b5cc" y="269.397825"/>
     <use style="fill:#ff7f0e;stroke:#ff7f0e;" x="145.97845" xlink:href="#m65cda5b5cc" y="268.805368"/>
     <use style="fill:#ff7f0e;stroke:#ff7f0e;" x="147.509839" xlink:href="#m65cda5b5cc" y="268.212911"/>
     <use style="fill:#ff7f0e;stroke:#ff7f0e;" x="149.041229" xlink:href="#m65cda5b5cc" y="265.053139"/>
     <use style="fill:#ff7f0e;stroke:#ff7f0e;" x="150.572618" xlink:href="#m65cda5b5cc" y="265.053139"/>
     <use style="fill:#ff7f0e;stroke:#ff7f0e;" x="152.104007" xlink:href="#m65cda5b5cc" y="260.905939"/>
     <use style="fill:#ff7f0e;stroke:#ff7f0e;" x="153.635397" xlink:href="#m65cda5b5cc" y="264.658168"/>
     <use style="fill:#ff7f0e;stroke:#ff7f0e;" x="155.166786" xlink:href="#m65cda5b5cc" y="264.855654"/>
     <use style="fill:#ff7f0e;stroke:#ff7f0e;" x="156.698175" xlink:href="#m65cda5b5cc" y="267.027996"/>
     <use style="fill:#ff7f0e;stroke:#ff7f0e;" x="158.229565" xlink:href="#m65cda5b5cc" y="258.536111"/>
     <use style="fill:#ff7f0e;stroke:#ff7f0e;" x="159.760954" xlink:href="#m65cda5b5cc" y="260.905939"/>
     <use style="fill:#ff7f0e;stroke:#ff7f0e;" x="161.292343" xlink:href="#m65cda5b5cc" y="263.275768"/>
     <use style="fill:#ff7f0e;stroke:#ff7f0e;" x="162.823733" xlink:href="#m65cda5b5cc" y="264.065711"/>
     <use style="fill:#ff7f0e;stroke:#ff7f0e;" x="164.355122" xlink:href="#m65cda5b5cc" y="261.498396"/>
     <use style="fill:#ff7f0e;stroke:#ff7f0e;" x="165.886512" xlink:href="#m65cda5b5cc" y="266.238054"/>
     <use style="fill:#ff7f0e;stroke:#ff7f0e;" x="167.417901" xlink:href="#m65cda5b5cc" y="268.410396"/>
     <use style="fill:#ff7f0e;stroke:#ff7f0e;" x="168.94929" xlink:href="#m65cda5b5cc" y="263.078282"/>
     <use style="fill:#ff7f0e;stroke:#ff7f0e;" x="170.48068" xlink:href="#m65cda5b5cc" y="263.473254"/>
     <use style="fill:#ff7f0e;stroke:#ff7f0e;" x="172.012069" xlink:href="#m65cda5b5cc" y="263.078282"/>
     <use style="fill:#ff7f0e;stroke:#ff7f0e;" x="173.543458" xlink:href="#m65cda5b5cc" y="263.275768"/>
     <use style="fill:#ff7f0e;stroke:#ff7f0e;" x="175.074848" xlink:href="#m65cda5b5cc" y="263.670739"/>
     <use style="fill:#ff7f0e;stroke:#ff7f0e;" x="176.606237" xlink:href="#m65cda5b5cc" y="263.670739"/>
     <use style="fill:#ff7f0e;stroke:#ff7f0e;" x="178.137627" xlink:href="#m65cda5b5cc" y="264.658168"/>
     <use style="fill:#ff7f0e;stroke:#ff7f0e;" x="179.669016" xlink:href="#m65cda5b5cc" y="256.363768"/>
     <use style="fill:#ff7f0e;stroke:#ff7f0e;" x="181.200405" xlink:href="#m65cda5b5cc" y="253.993939"/>
     <use style="fill:#ff7f0e;stroke:#ff7f0e;" x="182.731795" xlink:href="#m65cda5b5cc" y="252.611539"/>
     <use style="fill:#ff7f0e;stroke:#ff7f0e;" x="184.263184" xlink:href="#m65cda5b5cc" y="247.279425"/>
     <use style="fill:#ff7f0e;stroke:#ff7f0e;" x="185.794573" xlink:href="#m65cda5b5cc" y="231.480568"/>
     <use style="fill:#ff7f0e;stroke:#ff7f0e;" x="187.325963" xlink:href="#m65cda5b5cc" y="240.762396"/>
     <use style="fill:#ff7f0e;stroke:#ff7f0e;" x="188.857352" xlink:href="#m65cda5b5cc" y="242.737254"/>
     <use style="fill:#ff7f0e;stroke:#ff7f0e;" x="190.388741" xlink:href="#m65cda5b5cc" y="225.555996"/>
     <use style="fill:#ff7f0e;stroke:#ff7f0e;" x="191.920131" xlink:href="#m65cda5b5cc" y="217.064111"/>
     <use style="fill:#ff7f0e;stroke:#ff7f0e;" x="193.45152" xlink:href="#m65cda5b5cc" y="214.299311"/>
     <use style="fill:#ff7f0e;stroke:#ff7f0e;" x="194.98291" xlink:href="#m65cda5b5cc" y="203.635082"/>
     <use style="fill:#ff7f0e;stroke:#ff7f0e;" x="196.514299" xlink:href="#m65cda5b5cc" y="194.945711"/>
     <use style="fill:#ff7f0e;stroke:#ff7f0e;" x="198.045688" xlink:href="#m65cda5b5cc" y="212.324454"/>
     <use style="fill:#ff7f0e;stroke:#ff7f0e;" x="199.577078" xlink:href="#m65cda5b5cc" y="220.223882"/>
     <use style="fill:#ff7f0e;stroke:#ff7f0e;" x="201.108467" xlink:href="#m65cda5b5cc" y="177.764454"/>
     <use style="fill:#ff7f0e;stroke:#ff7f0e;" x="202.639856" xlink:href="#m65cda5b5cc" y="177.566968"/>
     <use style="fill:#ff7f0e;stroke:#ff7f0e;" x="204.171246" xlink:href="#m65cda5b5cc" y="145.376796"/>
     <use style="fill:#ff7f0e;stroke:#ff7f0e;" x="205.702635" xlink:href="#m65cda5b5cc" y="146.166739"/>
     <use style="fill:#ff7f0e;stroke:#ff7f0e;" x="207.234024" xlink:href="#m65cda5b5cc" y="134.910054"/>
     <use style="fill:#ff7f0e;stroke:#ff7f0e;" x="208.765414" xlink:href="#m65cda5b5cc" y="181.516682"/>
     <use style="fill:#ff7f0e;stroke:#ff7f0e;" x="210.296803" xlink:href="#m65cda5b5cc" y="210.349596"/>
     <use style="fill:#ff7f0e;stroke:#ff7f0e;" x="211.828193" xlink:href="#m65cda5b5cc" y="169.075082"/>
     <use style="fill:#ff7f0e;stroke:#ff7f0e;" x="213.359582" xlink:href="#m65cda5b5cc" y="156.830968"/>
     <use style="fill:#ff7f0e;stroke:#ff7f0e;" x="214.890971" xlink:href="#m65cda5b5cc" y="167.100225"/>
     <use style="fill:#ff7f0e;stroke:#ff7f0e;" x="216.422361" xlink:href="#m65cda5b5cc" y="160.780682"/>
     <use style="fill:#ff7f0e;stroke:#ff7f0e;" x="217.95375" xlink:href="#m65cda5b5cc" y="160.385711"/>
     <use style="fill:#ff7f0e;stroke:#ff7f0e;" x="219.485139" xlink:href="#m65cda5b5cc" y="206.597368"/>
     <use style="fill:#ff7f0e;stroke:#ff7f0e;" x="221.016529" xlink:href="#m65cda5b5cc" y="200.672796"/>
     <use style="fill:#ff7f0e;stroke:#ff7f0e;" x="222.547918" xlink:href="#m65cda5b5cc" y="190.798511"/>
     <use style="fill:#ff7f0e;stroke:#ff7f0e;" x="224.079307" xlink:href="#m65cda5b5cc" y="185.268911"/>
     <use style="fill:#ff7f0e;stroke:#ff7f0e;" x="225.610697" xlink:href="#m65cda5b5cc" y="188.033711"/>
     <use style="fill:#ff7f0e;stroke:#ff7f0e;" x="227.142086" xlink:href="#m65cda5b5cc" y="184.873939"/>
     <use style="fill:#ff7f0e;stroke:#ff7f0e;" x="228.673476" xlink:href="#m65cda5b5cc" y="200.277825"/>
     <use style="fill:#ff7f0e;stroke:#ff7f0e;" x="230.204865" xlink:href="#m65cda5b5cc" y="231.283082"/>
     <use style="fill:#ff7f0e;stroke:#ff7f0e;" x="231.736254" xlink:href="#m65cda5b5cc" y="237.997596"/>
     <use style="fill:#ff7f0e;stroke:#ff7f0e;" x="233.267644" xlink:href="#m65cda5b5cc" y="214.496796"/>
     <use style="fill:#ff7f0e;stroke:#ff7f0e;" x="234.799033" xlink:href="#m65cda5b5cc" y="229.110739"/>
     <use style="fill:#ff7f0e;stroke:#ff7f0e;" x="236.330422" xlink:href="#m65cda5b5cc" y="236.220225"/>
     <use style="fill:#ff7f0e;stroke:#ff7f0e;" x="237.861812" xlink:href="#m65cda5b5cc" y="215.286739"/>
     <use style="fill:#ff7f0e;stroke:#ff7f0e;" x="239.393201" xlink:href="#m65cda5b5cc" y="212.521939"/>
     <use style="fill:#ff7f0e;stroke:#ff7f0e;" x="240.92459" xlink:href="#m65cda5b5cc" y="235.430282"/>
     <use style="fill:#ff7f0e;stroke:#ff7f0e;" x="242.45598" xlink:href="#m65cda5b5cc" y="242.342282"/>
     <use style="fill:#ff7f0e;stroke:#ff7f0e;" x="243.987369" xlink:href="#m65cda5b5cc" y="249.254282"/>
     <use style="fill:#ff7f0e;stroke:#ff7f0e;" x="245.518759" xlink:href="#m65cda5b5cc" y="253.401482"/>
     <use style="fill:#ff7f0e;stroke:#ff7f0e;" x="247.050148" xlink:href="#m65cda5b5cc" y="254.388911"/>
     <use style="fill:#ff7f0e;stroke:#ff7f0e;" x="248.581537" xlink:href="#m65cda5b5cc" y="252.611539"/>
     <use style="fill:#ff7f0e;stroke:#ff7f0e;" x="250.112927" xlink:href="#m65cda5b5cc" y="250.044225"/>
     <use style="fill:#ff7f0e;stroke:#ff7f0e;" x="251.644316" xlink:href="#m65cda5b5cc" y="258.733596"/>
     <use style="fill:#ff7f0e;stroke:#ff7f0e;" x="253.175705" xlink:href="#m65cda5b5cc" y="265.250625"/>
     <use style="fill:#ff7f0e;stroke:#ff7f0e;" x="254.707095" xlink:href="#m65cda5b5cc" y="257.351196"/>
     <use style="fill:#ff7f0e;stroke:#ff7f0e;" x="256.238484" xlink:href="#m65cda5b5cc" y="257.153711"/>
     <use style="fill:#ff7f0e;stroke:#ff7f0e;" x="257.769873" xlink:href="#m65cda5b5cc" y="256.166282"/>
     <use style="fill:#ff7f0e;stroke:#ff7f0e;" x="259.301263" xlink:href="#m65cda5b5cc" y="260.313482"/>
     <use style="fill:#ff7f0e;stroke:#ff7f0e;" x="260.832652" xlink:href="#m65cda5b5cc" y="263.868225"/>
     <use style="fill:#ff7f0e;stroke:#ff7f0e;" x="262.364042" xlink:href="#m65cda5b5cc" y="267.027996"/>
     <use style="fill:#ff7f0e;stroke:#ff7f0e;" x="263.895431" xlink:href="#m65cda5b5cc" y="268.015425"/>
     <use style="fill:#ff7f0e;stroke:#ff7f0e;" x="265.42682" xlink:href="#m65cda5b5cc" y="263.275768"/>
     <use style="fill:#ff7f0e;stroke:#ff7f0e;" x="266.95821" xlink:href="#m65cda5b5cc" y="266.040568"/>
     <use style="fill:#ff7f0e;stroke:#ff7f0e;" x="268.489599" xlink:href="#m65cda5b5cc" y="264.658168"/>
     <use style="fill:#ff7f0e;stroke:#ff7f0e;" x="270.020988" xlink:href="#m65cda5b5cc" y="265.843082"/>
     <use style="fill:#ff7f0e;stroke:#ff7f0e;" x="271.552378" xlink:href="#m65cda5b5cc" y="267.422968"/>
     <use style="fill:#ff7f0e;stroke:#ff7f0e;" x="273.083767" xlink:href="#m65cda5b5cc" y="266.435539"/>
     <use style="fill:#ff7f0e;stroke:#ff7f0e;" x="274.615157" xlink:href="#m65cda5b5cc" y="267.027996"/>
     <use style="fill:#ff7f0e;stroke:#ff7f0e;" x="276.146546" xlink:href="#m65cda5b5cc" y="267.027996"/>
     <use style="fill:#ff7f0e;stroke:#ff7f0e;" x="277.677935" xlink:href="#m65cda5b5cc" y="263.473254"/>
     <use style="fill:#ff7f0e;stroke:#ff7f0e;" x="279.209325" xlink:href="#m65cda5b5cc" y="262.880796"/>
     <use style="fill:#ff7f0e;stroke:#ff7f0e;" x="280.740714" xlink:href="#m65cda5b5cc" y="255.178854"/>
     <use style="fill:#ff7f0e;stroke:#ff7f0e;" x="282.272103" xlink:href="#m65cda5b5cc" y="263.670739"/>
     <use style="fill:#ff7f0e;stroke:#ff7f0e;" x="283.803493" xlink:href="#m65cda5b5cc" y="266.830511"/>
     <use style="fill:#ff7f0e;stroke:#ff7f0e;" x="285.334882" xlink:href="#m65cda5b5cc" y="264.855654"/>
     <use style="fill:#ff7f0e;stroke:#ff7f0e;" x="286.866271" xlink:href="#m65cda5b5cc" y="262.090854"/>
     <use style="fill:#ff7f0e;stroke:#ff7f0e;" x="288.397661" xlink:href="#m65cda5b5cc" y="266.238054"/>
     <use style="fill:#ff7f0e;stroke:#ff7f0e;" x="289.92905" xlink:href="#m65cda5b5cc" y="261.300911"/>
     <use style="fill:#ff7f0e;stroke:#ff7f0e;" x="291.46044" xlink:href="#m65cda5b5cc" y="262.683311"/>
     <use style="fill:#ff7f0e;stroke:#ff7f0e;" x="292.991829" xlink:href="#m65cda5b5cc" y="264.065711"/>
     <use style="fill:#ff7f0e;stroke:#ff7f0e;" x="294.523218" xlink:href="#m65cda5b5cc" y="265.645596"/>
     <use style="fill:#ff7f0e;stroke:#ff7f0e;" x="296.054608" xlink:href="#m65cda5b5cc" y="266.633025"/>
     <use style="fill:#ff7f0e;stroke:#ff7f0e;" x="297.585997" xlink:href="#m65cda5b5cc" y="263.473254"/>
     <use style="fill:#ff7f0e;stroke:#ff7f0e;" x="299.117386" xlink:href="#m65cda5b5cc" y="264.065711"/>
     <use style="fill:#ff7f0e;stroke:#ff7f0e;" x="300.648776" xlink:href="#m65cda5b5cc" y="262.880796"/>
     <use style="fill:#ff7f0e;stroke:#ff7f0e;" x="302.180165" xlink:href="#m65cda5b5cc" y="261.103425"/>
     <use style="fill:#ff7f0e;stroke:#ff7f0e;" x="303.711554" xlink:href="#m65cda5b5cc" y="264.263196"/>
     <use style="fill:#ff7f0e;stroke:#ff7f0e;" x="305.242944" xlink:href="#m65cda5b5cc" y="257.746168"/>
     <use style="fill:#ff7f0e;stroke:#ff7f0e;" x="306.774333" xlink:href="#m65cda5b5cc" y="257.746168"/>
     <use style="fill:#ff7f0e;stroke:#ff7f0e;" x="308.305723" xlink:href="#m65cda5b5cc" y="262.090854"/>
     <use style="fill:#ff7f0e;stroke:#ff7f0e;" x="309.837112" xlink:href="#m65cda5b5cc" y="264.460682"/>
     <use style="fill:#ff7f0e;stroke:#ff7f0e;" x="311.368501" xlink:href="#m65cda5b5cc" y="259.128568"/>
     <use style="fill:#ff7f0e;stroke:#ff7f0e;" x="312.899891" xlink:href="#m65cda5b5cc" y="260.313482"/>
     <use style="fill:#ff7f0e;stroke:#ff7f0e;" x="314.43128" xlink:href="#m65cda5b5cc" y="259.523539"/>
     <use style="fill:#ff7f0e;stroke:#ff7f0e;" x="315.962669" xlink:href="#m65cda5b5cc" y="261.893368"/>
     <use style="fill:#ff7f0e;stroke:#ff7f0e;" x="317.494059" xlink:href="#m65cda5b5cc" y="263.275768"/>
     <use style="fill:#ff7f0e;stroke:#ff7f0e;" x="319.025448" xlink:href="#m65cda5b5cc" y="259.128568"/>
     <use style="fill:#ff7f0e;stroke:#ff7f0e;" x="320.556837" xlink:href="#m65cda5b5cc" y="252.216568"/>
     <use style="fill:#ff7f0e;stroke:#ff7f0e;" x="322.088227" xlink:href="#m65cda5b5cc" y="256.758739"/>
     <use style="fill:#ff7f0e;stroke:#ff7f0e;" x="323.619616" xlink:href="#m65cda5b5cc" y="252.611539"/>
     <use style="fill:#ff7f0e;stroke:#ff7f0e;" x="325.151006" xlink:href="#m65cda5b5cc" y="251.624111"/>
     <use style="fill:#ff7f0e;stroke:#ff7f0e;" x="326.682395" xlink:href="#m65cda5b5cc" y="251.821596"/>
     <use style="fill:#ff7f0e;stroke:#ff7f0e;" x="328.213784" xlink:href="#m65cda5b5cc" y="248.464339"/>
     <use style="fill:#ff7f0e;stroke:#ff7f0e;" x="329.745174" xlink:href="#m65cda5b5cc" y="244.317139"/>
     <use style="fill:#ff7f0e;stroke:#ff7f0e;" x="331.276563" xlink:href="#m65cda5b5cc" y="245.699539"/>
     <use style="fill:#ff7f0e;stroke:#ff7f0e;" x="332.807952" xlink:href="#m65cda5b5cc" y="231.283082"/>
     <use style="fill:#ff7f0e;stroke:#ff7f0e;" x="334.339342" xlink:href="#m65cda5b5cc" y="224.568568"/>
     <use style="fill:#ff7f0e;stroke:#ff7f0e;" x="335.870731" xlink:href="#m65cda5b5cc" y="218.643996"/>
     <use style="fill:#ff7f0e;stroke:#ff7f0e;" x="337.40212" xlink:href="#m65cda5b5cc" y="233.455425"/>
     <use style="fill:#ff7f0e;stroke:#ff7f0e;" x="338.93351" xlink:href="#m65cda5b5cc" y="234.640339"/>
     <use style="fill:#ff7f0e;stroke:#ff7f0e;" x="340.464899" xlink:href="#m65cda5b5cc" y="224.568568"/>
     <use style="fill:#ff7f0e;stroke:#ff7f0e;" x="341.996289" xlink:href="#m65cda5b5cc" y="235.035311"/>
     <use style="fill:#ff7f0e;stroke:#ff7f0e;" x="343.527678" xlink:href="#m65cda5b5cc" y="197.710511"/>
     <use style="fill:#ff7f0e;stroke:#ff7f0e;" x="345.059067" xlink:href="#m65cda5b5cc" y="190.008568"/>
     <use style="fill:#ff7f0e;stroke:#ff7f0e;" x="346.590457" xlink:href="#m65cda5b5cc" y="192.970854"/>
     <use style="fill:#ff7f0e;stroke:#ff7f0e;" x="348.121846" xlink:href="#m65cda5b5cc" y="204.819996"/>
     <use style="fill:#ff7f0e;stroke:#ff7f0e;" x="349.653235" xlink:href="#m65cda5b5cc" y="218.446511"/>
     <use style="fill:#ff7f0e;stroke:#ff7f0e;" x="351.184625" xlink:href="#m65cda5b5cc" y="204.622511"/>
     <use style="fill:#ff7f0e;stroke:#ff7f0e;" x="352.716014" xlink:href="#m65cda5b5cc" y="180.529254"/>
     <use style="fill:#ff7f0e;stroke:#ff7f0e;" x="354.247404" xlink:href="#m65cda5b5cc" y="150.906396"/>
     <use style="fill:#ff7f0e;stroke:#ff7f0e;" x="355.778793" xlink:href="#m65cda5b5cc" y="145.574282"/>
     <use style="fill:#ff7f0e;stroke:#ff7f0e;" x="357.310182" xlink:href="#m65cda5b5cc" y="151.696339"/>
     <use style="fill:#ff7f0e;stroke:#ff7f0e;" x="358.841572" xlink:href="#m65cda5b5cc" y="180.331768"/>
     <use style="fill:#ff7f0e;stroke:#ff7f0e;" x="360.372961" xlink:href="#m65cda5b5cc" y="176.382054"/>
     <use style="fill:#ff7f0e;stroke:#ff7f0e;" x="361.90435" xlink:href="#m65cda5b5cc" y="146.956682"/>
     <use style="fill:#ff7f0e;stroke:#ff7f0e;" x="363.43574" xlink:href="#m65cda5b5cc" y="103.114854"/>
     <use style="fill:#ff7f0e;stroke:#ff7f0e;" x="364.967129" xlink:href="#m65cda5b5cc" y="94.227996"/>
     <use style="fill:#ff7f0e;stroke:#ff7f0e;" x="366.498518" xlink:href="#m65cda5b5cc" y="123.258396"/>
     <use style="fill:#ff7f0e;stroke:#ff7f0e;" x="368.029908" xlink:href="#m65cda5b5cc" y="114.963996"/>
     <use style="fill:#ff7f0e;stroke:#ff7f0e;" x="369.561297" xlink:href="#m65cda5b5cc" y="125.628225"/>
     <use style="fill:#ff7f0e;stroke:#ff7f0e;" x="371.092687" xlink:href="#m65cda5b5cc" y="147.549139"/>
     <use style="fill:#ff7f0e;stroke:#ff7f0e;" x="372.624076" xlink:href="#m65cda5b5cc" y="81.983882"/>
     <use style="fill:#ff7f0e;stroke:#ff7f0e;" x="374.155465" xlink:href="#m65cda5b5cc" y="67.172454"/>
     <use style="fill:#ff7f0e;stroke:#ff7f0e;" x="375.686855" xlink:href="#m65cda5b5cc" y="52.361025"/>
     <use style="fill:#ff7f0e;stroke:#ff7f0e;" x="377.218244" xlink:href="#m65cda5b5cc" y="30.242625"/>
     <use style="fill:#ff7f0e;stroke:#ff7f0e;" x="378.749633" xlink:href="#m65cda5b5cc" y="104.892225"/>
     <use style="fill:#ff7f0e;stroke:#ff7f0e;" x="380.281023" xlink:href="#m65cda5b5cc" y="213.904339"/>
    </g>
   </g>
   <g id="patch_3">
    <path d="M 39.39375 284.258625 
L 39.39375 18.146625 
" style="fill:none;stroke:#000000;stroke-linecap:square;stroke-linejoin:miter;stroke-width:0.8;"/>
   </g>
   <g id="patch_4">
    <path d="M 396.51375 284.258625 
L 396.51375 18.146625 
" style="fill:none;stroke:#000000;stroke-linecap:square;stroke-linejoin:miter;stroke-width:0.8;"/>
   </g>
   <g id="patch_5">
    <path d="M 39.39375 284.258625 
L 396.51375 284.258625 
" style="fill:none;stroke:#000000;stroke-linecap:square;stroke-linejoin:miter;stroke-width:0.8;"/>
   </g>
   <g id="patch_6">
    <path d="M 39.39375 18.146625 
L 396.51375 18.146625 
" style="fill:none;stroke:#000000;stroke-linecap:square;stroke-linejoin:miter;stroke-width:0.8;"/>
   </g>
   <g id="legend_1">
    <g id="patch_7">
     <path d="M 46.39375 56.29975 
L 165.376563 56.29975 
Q 167.376563 56.29975 167.376563 54.29975 
L 167.376563 25.146625 
Q 167.376563 23.146625 165.376563 23.146625 
L 46.39375 23.146625 
Q 44.39375 23.146625 44.39375 25.146625 
L 44.39375 54.29975 
Q 44.39375 56.29975 46.39375 56.29975 
z
" style="fill:#ffffff;opacity:0.8;stroke:#cccccc;stroke-linejoin:miter;"/>
    </g>
    <g id="line2d_18">
     <path d="M 48.39375 31.766937 
L 68.39375 31.766937 
" style="fill:none;stroke:#1f77b4;stroke-linecap:square;stroke-width:1.5;"/>
    </g>
    <g id="line2d_19">
     <g>
      <use style="fill:#1f77b4;stroke:#1f77b4;" x="58.39375" xlink:href="#m26c65b17cb" y="31.766937"/>
     </g>
    </g>
    <g id="text_17">
     <!--  (onset) -->
     <g transform="translate(76.39375 35.266937)scale(0.1 -0.1)">
      <defs>
       <path d="M 73.734375 56.84375 
Q 80.609375 62.75 85.203125 68.609375 
L 91.109375 64.40625 
Q 84.46875 57.8125 78.71875 53.328125 
Q 85.9375 48.6875 95.40625 44.625 
L 90.625 38.375 
Q 81.734375 42.78125 73.53125 48.640625 
L 73.53125 43.3125 
L 64.109375 43.3125 
L 64.109375 29.984375 
L 89.890625 29.984375 
L 89.890625 23.78125 
L 64.109375 23.78125 
L 64.109375 5.609375 
Q 64.109375 2.484375 65.71875 2.046875 
Q 67.390625 1.46875 73.09375 1.46875 
Q 82.125 1.46875 83.59375 2.984375 
Q 85.0625 4.4375 85.5 11.96875 
Q 85.5 13.484375 85.59375 14.0625 
L 92.625 11.578125 
Q 92.1875 0.390625 89.703125 -2.203125 
Q 87.0625 -5.328125 72.609375 -5.328125 
Q 63.8125 -5.328125 60.9375 -4 
Q 57.03125 -2.34375 57.03125 3.328125 
L 57.03125 23.78125 
L 42.578125 23.78125 
Q 40.1875 0.53125 11.078125 -7.421875 
L 7.28125 -0.984375 
Q 33.25 5.421875 35.5 23.78125 
L 10.015625 23.78125 
L 10.015625 29.984375 
L 35.796875 29.984375 
L 35.796875 43.3125 
L 27.78125 43.3125 
L 27.78125 47.015625 
Q 19.734375 41.359375 9.078125 36.1875 
L 4.5 42.1875 
Q 16.3125 46.734375 25.984375 53.8125 
Q 19.828125 60.15625 13.484375 64.59375 
L 18.609375 69.140625 
Q 26.515625 62.59375 31.109375 58.015625 
Q 38.03125 64.0625 43.171875 72.125 
L 20.0625 72.125 
L 20.0625 78.21875 
L 54 78.21875 
Q 58.203125 71.34375 62.890625 66.3125 
Q 69.09375 71.625 74.03125 77.9375 
L 79.828125 73.734375 
Q 74.171875 67.625 67.09375 62.203125 
Q 70.40625 59.078125 73.734375 56.84375 
z
M 57.03125 43.3125 
L 42.78125 43.3125 
L 42.78125 29.984375 
L 57.03125 29.984375 
z
M 30.90625 49.3125 
L 72.515625 49.3125 
Q 58.6875 59.28125 50.59375 71 
Q 43.21875 58.890625 30.90625 49.3125 
z
" id="IPAexGothic-30330"/>
       <path d="M 63.71875 2.875 
L 95.015625 2.875 
L 95.015625 -3.515625 
L 23.96875 -3.515625 
L 23.96875 2.875 
L 37.3125 2.875 
L 37.3125 38.28125 
L 44 38.28125 
L 44 2.875 
L 56.84375 2.875 
L 56.84375 46.578125 
L 30.515625 46.578125 
L 30.515625 52.78125 
L 90.046875 52.78125 
L 90.046875 46.578125 
L 63.71875 46.578125 
L 63.71875 29.203125 
L 87.796875 29.203125 
L 87.796875 23.09375 
L 63.71875 23.09375 
z
M 60.203125 70.515625 
L 93.890625 70.515625 
L 93.890625 64.109375 
L 27.296875 64.109375 
L 27.296875 41.40625 
Q 27.296875 23.140625 24.21875 12.203125 
Q 21.390625 2.25 14.59375 -6.203125 
L 9.625 -1.171875 
Q 18.75 10.359375 20.125 27.484375 
Q 15.4375 24.125 7.078125 19.734375 
L 4 26.609375 
Q 12.3125 29.59375 20.40625 34.328125 
L 20.40625 37.890625 
L 20.40625 70.515625 
L 52.78125 70.515625 
L 52.78125 81.984375 
L 60.203125 81.984375 
z
M 12.015625 40.375 
Q 8.890625 50.78125 5.421875 57.90625 
L 11.375 60.59375 
Q 15.234375 53.859375 18.40625 43.703125 
z
" id="IPAexGothic-30151"/>
       <path d="M 81.734375 75 
L 81.734375 -4.5 
L 74.125 -4.5 
L 74.125 2 
L 25.734375 2 
L 25.734375 -4.5 
L 18.109375 -4.5 
L 18.109375 75 
z
M 25.734375 68.3125 
L 25.734375 42.671875 
L 74.125 42.671875 
L 74.125 68.3125 
z
M 25.734375 35.890625 
L 25.734375 8.6875 
L 74.125 8.6875 
L 74.125 35.890625 
z
" id="IPAexGothic-26085"/>
       <path id="IPAexGothic-32"/>
       <path d="M 30.125 -15.875 
L 25.828125 -18.21875 
Q 7.625 1.078125 7.625 29.296875 
Q 7.625 57.46875 25.828125 76.703125 
L 30.125 74.421875 
Q 15.71875 55.03125 15.71875 29.390625 
Q 15.71875 3.171875 30.125 -15.875 
z
" id="IPAexGothic-40"/>
       <path d="M 29.984375 52.203125 
Q 40.53125 52.203125 47.75 45.125 
Q 55.171875 37.703125 55.171875 25.59375 
Q 55.171875 13.875 47.90625 6.59375 
Q 40.765625 -0.484375 29.984375 -0.484375 
Q 19.1875 -0.484375 12.203125 6.5 
Q 4.890625 13.765625 4.890625 25.875 
Q 4.890625 37.703125 12.3125 45.125 
Q 19.390625 52.203125 29.984375 52.203125 
z
M 29.984375 45.609375 
Q 23.734375 45.609375 19.390625 41.109375 
Q 13.875 35.59375 13.875 25.78125 
Q 13.875 16.109375 19.28125 10.6875 
Q 23.6875 6.296875 29.984375 6.296875 
Q 36.421875 6.296875 40.765625 10.796875 
Q 46.1875 16.21875 46.1875 26.125 
Q 46.1875 35.453125 40.671875 41.109375 
Q 36.1875 45.609375 29.984375 45.609375 
z
" id="IPAexGothic-111"/>
       <path d="M 34.90625 39.796875 
Q 30.28125 45.796875 23.1875 45.796875 
Q 13.921875 45.796875 13.921875 38.671875 
Q 13.921875 33.640625 23.921875 30.375 
L 27.203125 29.296875 
Q 41.40625 24.65625 41.40625 13.96875 
Q 41.40625 6.78125 35.5 2.6875 
Q 30.8125 -0.484375 23.390625 -0.484375 
Q 11.96875 -0.484375 4 7.859375 
L 9.421875 12.796875 
Q 15.578125 6.203125 23.6875 6.203125 
Q 33.296875 6.203125 33.296875 13.671875 
Q 33.296875 19.34375 22.703125 23.09375 
L 19.28125 24.265625 
Q 5.90625 28.953125 5.90625 37.984375 
Q 5.90625 43.703125 9.8125 47.609375 
Q 14.5 52.296875 22.703125 52.296875 
Q 33.6875 52.296875 40.71875 44.671875 
z
" id="IPAexGothic-115"/>
       <path d="M 33.203125 3.765625 
Q 27.640625 -0.09375 21.828125 -0.09375 
Q 10.203125 -0.09375 10.203125 12.984375 
L 10.203125 44.671875 
L 3.421875 44.671875 
L 3.421875 50.78125 
L 10.203125 50.78125 
L 10.203125 61.96875 
L 18.40625 66.0625 
L 18.40625 50.78125 
L 32.234375 50.78125 
L 32.234375 44.671875 
L 18.40625 44.671875 
L 18.40625 14.15625 
Q 18.40625 6.5 23.640625 6.5 
Q 27.15625 6.5 30.328125 9.1875 
z
" id="IPAexGothic-116"/>
       <path d="M 7.28125 76.703125 
Q 25.59375 57.375 25.59375 29.296875 
Q 25.59375 1.171875 7.28125 -18.21875 
L 2.984375 -15.875 
Q 17.484375 3.375 17.484375 29.390625 
Q 17.484375 54.828125 2.984375 74.421875 
z
" id="IPAexGothic-41"/>
      </defs>
      <use xlink:href="#IPAexGothic-30330"/>
      <use x="100" xlink:href="#IPAexGothic-30151"/>
      <use x="200" xlink:href="#IPAexGothic-26085"/>
      <use x="300" xlink:href="#IPAexGothic-32"/>
      <use x="327.001953" xlink:href="#IPAexGothic-40"/>
      <use x="360.302734" xlink:href="#IPAexGothic-111"/>
      <use x="420.703125" xlink:href="#IPAexGothic-110"/>
      <use x="481.103516" xlink:href="#IPAexGothic-115"/>
      <use x="527.294922" xlink:href="#IPAexGothic-101"/>
      <use x="584.179688" xlink:href="#IPAexGothic-116"/>
      <use x="618.798828" xlink:href="#IPAexGothic-41"/>
     </g>
    </g>
    <g id="line2d_20">
     <path d="M 48.39375 46.89975 
L 68.39375 46.89975 
" style="fill:none;stroke:#ff7f0e;stroke-linecap:square;stroke-width:1.5;"/>
    </g>
    <g id="line2d_21">
     <g>
      <use style="fill:#ff7f0e;stroke:#ff7f0e;" x="58.39375" xlink:href="#m65cda5b5cc" y="46.89975"/>
     </g>
    </g>
    <g id="text_18">
     <!--  (confirmed) -->
     <g transform="translate(76.39375 50.39975)scale(0.1 -0.1)">
      <defs>
       <path d="M 67.921875 50.296875 
Q 70.5625 55.28125 72.609375 61.8125 
L 79.296875 60.203125 
Q 76.171875 53.609375 74.21875 50.296875 
L 92 50.296875 
L 92 44.484375 
L 73.4375 44.484375 
L 73.4375 34.71875 
L 89.703125 34.71875 
L 89.703125 29.203125 
L 73.4375 29.203125 
L 73.4375 19.53125 
L 89.703125 19.53125 
L 89.703125 14.015625 
L 73.4375 14.015625 
L 73.4375 3.609375 
L 94.28125 3.609375 
L 94.28125 -2.203125 
L 54.109375 -2.203125 
L 54.109375 -6.984375 
L 47.609375 -6.984375 
L 47.609375 38.1875 
Q 43.0625 31.546875 38.8125 26.609375 
L 35.6875 32.8125 
Q 49.359375 49.953125 54.78125 64.796875 
L 45.515625 64.796875 
L 45.515625 53.515625 
L 39.203125 53.515625 
L 39.203125 70.609375 
L 56.78125 70.609375 
Q 58.59375 76.609375 60.109375 83.109375 
L 66.703125 81.890625 
Q 65.234375 75.53125 63.625 70.609375 
L 92.71875 70.609375 
L 92.71875 53.515625 
L 86.328125 53.515625 
L 86.328125 64.796875 
L 61.53125 64.796875 
Q 58.546875 56.984375 54.890625 50.296875 
z
M 67.140625 44.484375 
L 54.109375 44.484375 
L 54.109375 34.71875 
L 67.140625 34.71875 
z
M 67.140625 29.203125 
L 54.109375 29.203125 
L 54.109375 19.53125 
L 67.140625 19.53125 
z
M 67.140625 14.015625 
L 54.109375 14.015625 
L 54.109375 3.609375 
L 67.140625 3.609375 
z
M 18.109375 46 
L 35.546875 46 
L 35.546875 3.078125 
L 18.953125 3.078125 
L 18.953125 -5.125 
L 12.75 -5.125 
L 12.75 34.46875 
Q 10.15625 29.734375 6.15625 23.78125 
L 2.9375 29.984375 
Q 14.546875 47.078125 18.75 69 
L 6.34375 69 
L 6.34375 75.296875 
L 37.640625 75.296875 
L 37.640625 69 
L 25.25 69 
L 24.953125 68.015625 
Q 22.75 57.234375 18.109375 46 
z
M 18.953125 39.890625 
L 18.953125 9.1875 
L 29.34375 9.1875 
L 29.34375 39.890625 
z
" id="IPAexGothic-30906"/>
       <path d="M 53.609375 4.734375 
Q 61.421875 3.515625 73.578125 3.515625 
Q 81.109375 3.515625 94.578125 4.109375 
Q 93.171875 0.921875 92 -3.5625 
Q 81.78125 -3.90625 75.6875 -3.90625 
Q 55.765625 -3.90625 46.921875 -1.21875 
Q 35.296875 2.390625 27.34375 14.109375 
Q 22.515625 2.546875 12.59375 -7.171875 
L 7.421875 -1.171875 
Q 22.125 11.859375 26.3125 37.796875 
L 33.203125 35.984375 
Q 31.734375 27.4375 29.828125 21.1875 
Q 36.53125 10.59375 46.4375 6.5 
L 46.4375 46 
L 22.40625 46 
L 22.40625 52.390625 
L 77.484375 52.390625 
L 77.484375 46 
L 53.609375 46 
L 53.609375 31 
L 84.328125 31 
L 84.328125 24.515625 
L 53.609375 24.515625 
z
M 53.421875 69.1875 
L 89.84375 69.1875 
L 89.84375 49.46875 
L 82.421875 49.46875 
L 82.421875 62.890625 
L 17.53125 62.890625 
L 17.53125 49.46875 
L 10.109375 49.46875 
L 10.109375 69.1875 
L 45.90625 69.1875 
L 45.90625 83.015625 
L 53.421875 83.015625 
z
" id="IPAexGothic-23450"/>
       <path d="M 51.078125 12.25 
Q 44.28125 -0.484375 29.6875 -0.484375 
Q 19.1875 -0.484375 12.3125 6.390625 
Q 4.890625 13.921875 4.890625 25.984375 
Q 4.890625 37.9375 12.3125 45.515625 
Q 19.09375 52.296875 29.390625 52.296875 
Q 43.953125 52.296875 50.09375 39.703125 
L 43.171875 36.078125 
Q 38.8125 45.3125 29.6875 45.3125 
Q 23.6875 45.3125 19.28125 40.921875 
Q 13.765625 35.40625 13.765625 25.78125 
Q 13.765625 16.703125 19.09375 11.375 
Q 23.78125 6.6875 30.5625 6.6875 
Q 39.796875 6.6875 44.484375 15.875 
z
" id="IPAexGothic-99"/>
       <path d="M 38.375 72.21875 
L 34.8125 66.3125 
Q 31.109375 69.09375 27.203125 69.09375 
Q 18.5 69.09375 18.5 57.375 
L 18.5 50.78125 
L 32.078125 50.78125 
L 32.078125 44.671875 
L 18.5 44.671875 
L 18.5 0.984375 
L 10.015625 0.984375 
L 10.015625 44.671875 
L 1.90625 44.671875 
L 1.90625 50.78125 
L 10.015625 50.78125 
L 10.015625 57.171875 
Q 10.015625 65.4375 13.921875 70.0625 
Q 18.75 75.6875 26.703125 75.6875 
Q 33.0625 75.6875 38.375 72.21875 
z
" id="IPAexGothic-102"/>
       <path d="M 18.40625 61.375 
L 8.59375 61.375 
L 8.59375 71.390625 
L 18.40625 71.390625 
z
M 17.78125 0.984375 
L 9.1875 0.984375 
L 9.1875 50.78125 
L 17.78125 50.78125 
z
" id="IPAexGothic-105"/>
       <path d="M 78.46875 0.984375 
L 69.875 0.984375 
L 69.875 32.171875 
Q 69.875 44.828125 60.109375 44.828125 
Q 55.46875 44.828125 51.609375 40.53125 
Q 48.875 37.453125 47.796875 32.859375 
L 47.796875 0.984375 
L 39.203125 0.984375 
L 39.203125 32.28125 
Q 39.203125 44.828125 29.984375 44.828125 
Q 25.09375 44.828125 21.390625 40.53125 
Q 17.390625 36.03125 17.390625 31.890625 
L 17.390625 0.984375 
L 8.796875 0.984375 
L 8.796875 50.78125 
L 16.796875 50.78125 
L 16.796875 42.1875 
Q 21.734375 51.8125 31.6875 51.8125 
Q 42.578125 51.8125 46.1875 41.359375 
Q 51.609375 51.8125 61.765625 51.8125 
Q 69.96875 51.8125 74.5625 46 
Q 78.46875 41.21875 78.46875 32.375 
z
" id="IPAexGothic-109"/>
       <path d="M 52.984375 0.984375 
L 45.171875 0.984375 
L 45.171875 9.671875 
Q 38.140625 -0.484375 27.390625 -0.484375 
Q 18.453125 -0.484375 12.3125 5.8125 
Q 4.890625 13.1875 4.890625 25.984375 
Q 4.890625 38.53125 12.0625 45.90625 
Q 18.265625 52.203125 27.390625 52.203125 
Q 37.25 52.203125 44.484375 43.890625 
L 44.484375 74.90625 
L 52.984375 74.90625 
z
M 44.484375 20.359375 
L 44.484375 32.765625 
Q 44.484375 37.703125 38.375 42.28125 
Q 34.078125 45.40625 28.953125 45.40625 
Q 23.1875 45.40625 19.1875 41.40625 
Q 13.875 36.078125 13.875 26.21875 
Q 13.875 17.328125 18.265625 11.71875 
Q 22.515625 6.390625 28.859375 6.390625 
Q 36.28125 6.390625 41.5 13.671875 
Q 44.484375 17.71875 44.484375 20.359375 
z
" id="IPAexGothic-100"/>
      </defs>
      <use xlink:href="#IPAexGothic-30906"/>
      <use x="100" xlink:href="#IPAexGothic-23450"/>
      <use x="200" xlink:href="#IPAexGothic-26085"/>
      <use x="300" xlink:href="#IPAexGothic-32"/>
      <use x="327.001953" xlink:href="#IPAexGothic-40"/>
      <use x="360.302734" xlink:href="#IPAexGothic-99"/>
      <use x="414.697266" xlink:href="#IPAexGothic-111"/>
      <use x="475.097656" xlink:href="#IPAexGothic-110"/>
      <use x="535.498047" xlink:href="#IPAexGothic-102"/>
      <use x="566.113281" xlink:href="#IPAexGothic-105"/>
      <use x="593.115234" xlink:href="#IPAexGothic-114"/>
      <use x="630.126953" xlink:href="#IPAexGothic-109"/>
      <use x="717.236328" xlink:href="#IPAexGothic-101"/>
      <use x="774.121094" xlink:href="#IPAexGothic-100"/>
      <use x="836.523438" xlink:href="#IPAexGothic-41"/>
     </g>
    </g>
   </g>
  </g>
  <g id="text_19">
   <!-- generated: 2020-08-03 09:34:43 -->
   <g transform="translate(238.618437 14.690625)scale(0.1 -0.1)">
    <defs>
     <path d="M 21.390625 39.984375 
L 10.5 39.984375 
L 10.5 50.78125 
L 21.390625 50.78125 
z
M 21.390625 0.984375 
L 10.5 0.984375 
L 10.5 11.765625 
L 21.390625 11.765625 
z
" id="IPAexGothic-58"/>
     <path d="M 30.765625 26.609375 
L 4.984375 26.609375 
L 4.984375 34.421875 
L 30.765625 34.421875 
z
" id="IPAexGothic-45"/>
     <path d="M 37.203125 37.796875 
Q 54.78125 34.625 54.78125 19.96875 
Q 54.78125 11.1875 48.875 5.5625 
Q 42.328125 -0.484375 30.375 -0.484375 
Q 12.453125 -0.484375 4.5 13.765625 
L 11.8125 17.671875 
Q 17.328125 6.890625 30.28125 6.890625 
Q 37.890625 6.890625 42.09375 10.796875 
Q 46.09375 14.5 46.09375 20.171875 
Q 46.09375 26.859375 40.09375 30.90625 
Q 34.625 34.578125 25.6875 34.578125 
L 21.296875 34.578125 
L 21.296875 41.703125 
L 25.875 41.703125 
Q 34.859375 41.703125 39.59375 45.125 
Q 44.671875 48.734375 44.671875 54.828125 
Q 44.671875 61.46875 38.96875 64.65625 
Q 35.296875 66.84375 30.171875 66.84375 
Q 19.34375 66.84375 14.109375 55.90625 
L 6.78125 59.421875 
Q 14.015625 73.828125 30.28125 73.828125 
Q 40.578125 73.828125 46.96875 68.65625 
Q 53.375 63.578125 53.375 55.21875 
Q 53.375 47.3125 47.171875 42.28125 
Q 43.171875 39.0625 37.203125 38.1875 
z
" id="IPAexGothic-51"/>
     <path d="M 46.625 36.8125 
Q 39.75 26.8125 28.328125 26.8125 
Q 19.578125 26.8125 13.234375 32.125 
Q 5.71875 38.421875 5.71875 49.421875 
Q 5.71875 59.578125 12.015625 66.65625 
Q 18.453125 73.828125 29.203125 73.828125 
Q 43.75 73.828125 50.640625 61.71875 
Q 55.609375 52.78125 55.609375 38.625 
Q 55.609375 19.53125 47.515625 9.1875 
Q 39.890625 -0.484375 27.640625 -0.484375 
Q 13.421875 -0.484375 6.109375 10.984375 
L 13.328125 14.890625 
Q 18.0625 6.6875 27.390625 6.6875 
Q 45.65625 6.6875 47.015625 36.8125 
z
M 29.5 66.84375 
Q 22.65625 66.84375 18.3125 61.71875 
Q 14.40625 57.078125 14.40625 50 
Q 14.40625 42.828125 18.109375 38.71875 
Q 22.40625 33.796875 29.78125 33.796875 
Q 37.984375 33.796875 42.625 40.1875 
Q 45.703125 44.484375 45.703125 49.515625 
Q 45.703125 55.515625 42.09375 60.359375 
Q 37.109375 66.84375 29.5 66.84375 
z
" id="IPAexGothic-57"/>
    </defs>
    <use xlink:href="#IPAexGothic-103"/>
    <use x="55.517578" xlink:href="#IPAexGothic-101"/>
    <use x="112.402344" xlink:href="#IPAexGothic-110"/>
    <use x="172.802734" xlink:href="#IPAexGothic-101"/>
    <use x="229.6875" xlink:href="#IPAexGothic-114"/>
    <use x="266.699219" xlink:href="#IPAexGothic-97"/>
    <use x="321.679688" xlink:href="#IPAexGothic-116"/>
    <use x="356.298828" xlink:href="#IPAexGothic-101"/>
    <use x="413.183594" xlink:href="#IPAexGothic-100"/>
    <use x="475.585938" xlink:href="#IPAexGothic-58"/>
    <use x="507.568359" xlink:href="#IPAexGothic-32"/>
    <use x="534.570312" xlink:href="#IPAexGothic-50"/>
    <use x="597.558594" xlink:href="#IPAexGothic-48"/>
    <use x="660.546875" xlink:href="#IPAexGothic-50"/>
    <use x="723.535156" xlink:href="#IPAexGothic-48"/>
    <use x="786.523438" xlink:href="#IPAexGothic-45"/>
    <use x="822.314453" xlink:href="#IPAexGothic-48"/>
    <use x="885.302734" xlink:href="#IPAexGothic-56"/>
    <use x="948.291016" xlink:href="#IPAexGothic-45"/>
    <use x="984.082031" xlink:href="#IPAexGothic-48"/>
    <use x="1047.070312" xlink:href="#IPAexGothic-51"/>
    <use x="1110.058594" xlink:href="#IPAexGothic-32"/>
    <use x="1137.060547" xlink:href="#IPAexGothic-48"/>
    <use x="1200.048828" xlink:href="#IPAexGothic-57"/>
    <use x="1263.037109" xlink:href="#IPAexGothic-58"/>
    <use x="1295.019531" xlink:href="#IPAexGothic-51"/>
    <use x="1358.007812" xlink:href="#IPAexGothic-52"/>
    <use x="1420.996094" xlink:href="#IPAexGothic-58"/>
    <use x="1452.978516" xlink:href="#IPAexGothic-52"/>
    <use x="1515.966797" xlink:href="#IPAexGothic-51"/>
   </g>
  </g>
 </g>
 <defs>
  <clipPath id="pc167e3f897">
   <rect height="266.112" width="357.12" x="39.39375" y="18.146625"/>
  </clipPath>
 </defs>
</svg>
