<?xml version="1.0" encoding="utf-8" standalone="no"?>
<!DOCTYPE svg PUBLIC "-//W3C//DTD SVG 1.1//EN"
  "http://www.w3.org/Graphics/SVG/1.1/DTD/svg11.dtd">
<!-- Created with matplotlib (https://matplotlib.org/) -->
<svg height="320.239875pt" version="1.1" viewBox="0 0 404.5075 320.239875" width="404.5075pt" xmlns="http://www.w3.org/2000/svg" xmlns:xlink="http://www.w3.org/1999/xlink">
 <metadata>
  <rdf:RDF xmlns:cc="http://creativecommons.org/ns#" xmlns:dc="http://purl.org/dc/elements/1.1/" xmlns:rdf="http://www.w3.org/1999/02/22-rdf-syntax-ns#">
   <cc:Work>
    <dc:type rdf:resource="http://purl.org/dc/dcmitype/StillImage"/>
    <dc:date>2020-09-03T18:03:21.016385</dc:date>
    <dc:format>image/svg+xml</dc:format>
    <dc:creator>
     <cc:Agent>
      <dc:title>Matplotlib v3.3.1, https://matplotlib.org/</dc:title>
     </cc:Agent>
    </dc:creator>
   </cc:Work>
  </rdf:RDF>
 </metadata>
 <defs>
  <style type="text/css">*{stroke-linecap:butt;stroke-linejoin:round;}</style>
 </defs>
 <g id="figure_1">
  <g id="patch_1">
   <path d="M 0 320.239875 
L 404.5075 320.239875 
L 404.5075 0 
L 0 0 
z
" style="fill:#ffffff;"/>
  </g>
  <g id="axes_1">
   <g id="patch_2">
    <path d="M 40.1875 284.258625 
L 397.3075 284.258625 
L 397.3075 18.146625 
L 40.1875 18.146625 
z
" style="fill:#ffffff;"/>
   </g>
   <g id="matplotlib.axis_1">
    <g id="xtick_1">
     <g id="line2d_1">
      <defs>
       <path d="M 0 0 
L 0 3.5 
" id="m9d6d53fb42" style="stroke:#000000;stroke-width:0.8;"/>
      </defs>
      <g>
       <use style="stroke:#000000;stroke-width:0.8;" x="56.420227" xlink:href="#m9d6d53fb42" y="284.258625"/>
      </g>
     </g>
     <g id="text_1">
      <!-- Mar -->
      <g transform="translate(47.310852 298.74925)scale(0.1 -0.1)">
       <defs>
        <path d="M 80.421875 0.984375 
L 71.828125 0.984375 
L 71.828125 39.59375 
Q 71.828125 51.265625 72.40625 64.59375 
L 72.015625 64.59375 
Q 68.0625 53.265625 63.53125 41.796875 
L 47.90625 3.265625 
L 41.40625 3.265625 
L 25.640625 42.578125 
Q 20.75 54.78125 17.625 64.703125 
L 17.234375 64.703125 
Q 17.828125 48.921875 17.828125 39.890625 
L 17.828125 0.984375 
L 9.515625 0.984375 
L 9.515625 72.40625 
L 22.125 72.40625 
L 39.109375 30.375 
Q 42.140625 23 44.828125 14.15625 
L 45.125 14.15625 
Q 47.3125 22.125 50.53125 30.171875 
L 67.4375 72.40625 
L 80.421875 72.40625 
z
" id="IPAexGothic-77"/>
        <path d="M 49.3125 0.984375 
L 41.75 0.984375 
Q 39.984375 4.734375 39.546875 8.6875 
L 39.203125 8.6875 
Q 33.546875 -0.390625 22.3125 -0.390625 
Q 14.59375 -0.390625 9.71875 4.5 
Q 5.421875 8.796875 5.421875 14.984375 
Q 5.421875 30.421875 32.03125 31.203125 
L 38.71875 31.390625 
L 38.71875 33.984375 
Q 38.71875 39.203125 35.75 42.1875 
Q 32.625 45.3125 27.734375 45.3125 
Q 19.34375 45.3125 15.140625 37.15625 
L 7.71875 40.578125 
Q 14.65625 52 27.9375 52 
Q 37.109375 52 42.046875 46.875 
Q 46.625 42.28125 46.625 33.890625 
L 46.625 15.578125 
Q 46.625 6.25 49.3125 0.984375 
z
M 38.921875 25.390625 
L 33.453125 25.296875 
Q 14.109375 24.859375 14.109375 14.890625 
Q 14.109375 11.375 16.40625 9.078125 
Q 19.234375 6.296875 23.828125 6.296875 
Q 30.21875 6.296875 34.90625 10.984375 
Q 38.921875 15.140625 38.921875 21 
z
" id="IPAexGothic-97"/>
        <path d="M 36.078125 51.8125 
L 34.578125 43.265625 
Q 32.90625 43.609375 31.59375 43.609375 
Q 25.828125 43.609375 22.078125 38.1875 
Q 17.390625 31.34375 17.390625 26.171875 
L 17.390625 0.984375 
L 8.796875 0.984375 
L 8.796875 50.78125 
L 16.890625 50.78125 
L 16.5 35.984375 
L 16.703125 35.984375 
Q 22.21875 52.203125 32.765625 52.203125 
Q 34.46875 52.203125 36.078125 51.8125 
z
" id="IPAexGothic-114"/>
       </defs>
       <use xlink:href="#IPAexGothic-77"/>
       <use x="90.185547" xlink:href="#IPAexGothic-97"/>
       <use x="145.166016" xlink:href="#IPAexGothic-114"/>
      </g>
     </g>
    </g>
    <g id="xtick_2">
     <g id="line2d_2">
      <g>
       <use style="stroke:#000000;stroke-width:0.8;" x="110.8218" xlink:href="#m9d6d53fb42" y="284.258625"/>
      </g>
     </g>
     <g id="text_2">
      <!-- Apr -->
      <g transform="translate(102.679612 298.74925)scale(0.1 -0.1)">
       <defs>
        <path d="M 63.375 0.984375 
L 53.8125 0.984375 
L 45.90625 22.015625 
L 17.1875 22.015625 
L 9.421875 0.984375 
L -0.09375 0.984375 
L 28.21875 72.90625 
L 35.296875 72.90625 
z
M 43.40625 29.109375 
L 36.1875 48.09375 
Q 33.203125 56.0625 31.6875 62.5 
L 31.390625 62.5 
Q 29.640625 55.671875 26.8125 48.09375 
L 19.734375 29.109375 
z
" id="IPAexGothic-65"/>
        <path d="M 16.796875 42 
Q 23.828125 52.203125 34.46875 52.203125 
Q 43.265625 52.203125 49.5625 45.90625 
Q 56.890625 38.578125 56.890625 25.6875 
Q 56.890625 13.140625 49.65625 5.8125 
Q 43.359375 -0.484375 34.375 -0.484375 
Q 24.515625 -0.484375 17.28125 7.765625 
L 17.28125 -19 
L 8.796875 -19 
L 8.796875 50.78125 
L 16.796875 50.78125 
z
M 17.28125 30.46875 
L 17.28125 20.171875 
Q 17.28125 14.015625 23.6875 9.375 
Q 27.984375 6.296875 32.90625 6.296875 
Q 38.578125 6.296875 42.578125 10.296875 
Q 47.90625 15.578125 47.90625 25.484375 
Q 47.90625 34.375 43.5 39.984375 
Q 39.109375 45.3125 32.8125 45.3125 
Q 25.875 45.3125 20.90625 38.8125 
Q 17.28125 34.125 17.28125 30.46875 
z
" id="IPAexGothic-112"/>
       </defs>
       <use xlink:href="#IPAexGothic-65"/>
       <use x="63.720703" xlink:href="#IPAexGothic-112"/>
       <use x="125.830078" xlink:href="#IPAexGothic-114"/>
      </g>
     </g>
    </g>
    <g id="xtick_3">
     <g id="line2d_3">
      <g>
       <use style="stroke:#000000;stroke-width:0.8;" x="163.468483" xlink:href="#m9d6d53fb42" y="284.258625"/>
      </g>
     </g>
     <g id="text_3">
      <!-- May -->
      <g transform="translate(153.748952 298.74925)scale(0.1 -0.1)">
       <defs>
        <path d="M 48.78125 50.78125 
L 24.609375 -7.625 
Q 19.96875 -18.796875 8.59375 -18.796875 
L 7.46875 -18.796875 
L 5.375 -10.984375 
L 6.984375 -10.984375 
Q 15.140625 -10.984375 17.96875 -3.71875 
L 21.1875 4.296875 
L 0.59375 50.78125 
L 10.296875 50.78125 
L 21.296875 22.796875 
Q 23.875 16.015625 25.09375 12.203125 
L 25.390625 12.203125 
Q 27.34375 18.265625 29.109375 22.796875 
L 39.5 50.78125 
z
" id="IPAexGothic-121"/>
       </defs>
       <use xlink:href="#IPAexGothic-77"/>
       <use x="90.185547" xlink:href="#IPAexGothic-97"/>
       <use x="145.166016" xlink:href="#IPAexGothic-121"/>
      </g>
     </g>
    </g>
    <g id="xtick_4">
     <g id="line2d_4">
      <g>
       <use style="stroke:#000000;stroke-width:0.8;" x="217.870055" xlink:href="#m9d6d53fb42" y="284.258625"/>
      </g>
     </g>
     <g id="text_4">
      <!-- Jun -->
      <g transform="translate(209.930212 298.74925)scale(0.1 -0.1)">
       <defs>
        <path d="M 28.421875 72.40625 
L 28.421875 19.28125 
Q 28.421875 -0.484375 11.921875 -0.484375 
Q 4.734375 -0.484375 -1.953125 3.265625 
L 1.3125 10.0625 
Q 5.90625 6.984375 10.84375 6.984375 
Q 19.53125 6.984375 19.53125 18.796875 
L 19.53125 72.40625 
z
" id="IPAexGothic-74"/>
        <path d="M 51.3125 0.984375 
L 43.3125 0.984375 
L 43.3125 10.0625 
Q 35.9375 0 25.390625 0 
Q 16.75 0 11.921875 5.859375 
Q 8.109375 10.59375 8.109375 19.390625 
L 8.109375 50.78125 
L 16.703125 50.78125 
L 16.703125 19.671875 
Q 16.703125 7.28125 27.09375 7.28125 
Q 37.59375 7.28125 42.71875 20.171875 
L 42.71875 50.78125 
L 51.3125 50.78125 
z
" id="IPAexGothic-117"/>
        <path d="M 52 0.984375 
L 43.40625 0.984375 
L 43.40625 31.890625 
Q 43.40625 44.578125 32.90625 44.578125 
Q 22.3125 44.578125 17.390625 31.890625 
L 17.390625 0.984375 
L 8.796875 0.984375 
L 8.796875 50.78125 
L 16.796875 50.78125 
L 16.796875 41.796875 
Q 23.828125 51.8125 34.71875 51.8125 
Q 52 51.8125 52 32.375 
z
" id="IPAexGothic-110"/>
       </defs>
       <use xlink:href="#IPAexGothic-74"/>
       <use x="37.988281" xlink:href="#IPAexGothic-117"/>
       <use x="98.388672" xlink:href="#IPAexGothic-110"/>
      </g>
     </g>
    </g>
    <g id="xtick_5">
     <g id="line2d_5">
      <g>
       <use style="stroke:#000000;stroke-width:0.8;" x="270.516738" xlink:href="#m9d6d53fb42" y="284.258625"/>
      </g>
     </g>
     <g id="text_5">
      <!-- Jul -->
      <g transform="translate(264.247207 298.74925)scale(0.1 -0.1)">
       <defs>
        <path d="M 17.671875 0.984375 
L 9.078125 0.984375 
L 9.078125 74.90625 
L 17.671875 74.90625 
z
" id="IPAexGothic-108"/>
       </defs>
       <use xlink:href="#IPAexGothic-74"/>
       <use x="37.988281" xlink:href="#IPAexGothic-117"/>
       <use x="98.388672" xlink:href="#IPAexGothic-108"/>
      </g>
     </g>
    </g>
    <g id="xtick_6">
     <g id="line2d_6">
      <g>
       <use style="stroke:#000000;stroke-width:0.8;" x="324.918311" xlink:href="#m9d6d53fb42" y="284.258625"/>
      </g>
     </g>
     <g id="text_6">
      <!-- Aug -->
      <g transform="translate(315.93628 298.691437)scale(0.1 -0.1)">
       <defs>
        <path d="M 20.796875 17.96875 
Q 15.71875 17.53125 15.71875 14.0625 
Q 15.71875 9.578125 27.546875 8.984375 
L 33.296875 8.6875 
Q 51.609375 7.765625 51.609375 -4.59375 
Q 51.609375 -10.9375 45.703125 -14.984375 
Q 39.359375 -19.578125 28.03125 -19.578125 
Q 17.78125 -19.578125 11.53125 -16.0625 
Q 5.515625 -12.640625 5.515625 -6.6875 
Q 5.515625 1.3125 16.796875 3.859375 
L 16.796875 4.203125 
Q 7.90625 6.453125 7.90625 12.15625 
Q 7.90625 17.4375 15.53125 20.265625 
Q 7.125 24.609375 7.125 34.078125 
Q 7.125 41.40625 12.015625 46.296875 
Q 17.625 51.90625 27.15625 51.90625 
Q 33.203125 51.90625 37.84375 49.265625 
Q 41.40625 53.953125 50.921875 54.109375 
L 50.921875 47.078125 
Q 44.34375 46.921875 42.234375 45.90625 
Q 47.40625 40.828125 47.40625 33.890625 
Q 47.40625 27 42.71875 22.265625 
Q 37.5 17.09375 28.328125 17.09375 
Q 24.421875 17.09375 20.796875 17.96875 
z
M 27.09375 45.609375 
Q 22.015625 45.609375 18.703125 42.28125 
Q 15.4375 39.015625 15.4375 34.078125 
Q 15.4375 29.25 18.5 26.3125 
Q 21.828125 23 27.4375 23 
Q 32.71875 23 35.890625 26.21875 
Q 39.109375 29.390625 39.109375 34.421875 
Q 39.109375 39.015625 35.890625 42.1875 
Q 32.515625 45.609375 27.09375 45.609375 
z
M 27.390625 2.484375 
Q 14.109375 2.484375 14.109375 -5.71875 
Q 14.109375 -13.671875 28.125 -13.671875 
Q 37.15625 -13.671875 41.21875 -9.46875 
Q 43.3125 -7.515625 43.3125 -4.890625 
Q 43.3125 2.484375 27.390625 2.484375 
z
" id="IPAexGothic-103"/>
       </defs>
       <use xlink:href="#IPAexGothic-65"/>
       <use x="63.720703" xlink:href="#IPAexGothic-117"/>
       <use x="124.121094" xlink:href="#IPAexGothic-103"/>
      </g>
     </g>
    </g>
    <g id="xtick_7">
     <g id="line2d_7">
      <g>
       <use style="stroke:#000000;stroke-width:0.8;" x="379.319883" xlink:href="#m9d6d53fb42" y="284.258625"/>
      </g>
     </g>
     <g id="text_7">
      <!-- Sep -->
      <g transform="translate(370.444883 298.74925)scale(0.1 -0.1)">
       <defs>
        <path d="M 45.609375 56.890625 
Q 40.046875 66.546875 28.953125 66.546875 
Q 22.703125 66.546875 18.953125 62.640625 
Q 16.0625 59.421875 16.0625 55.21875 
Q 16.0625 50.59375 19.78125 47.609375 
Q 22.5625 45.515625 31 42 
L 34.375 40.578125 
Q 45.703125 36.03125 49.859375 30.515625 
Q 53.46875 25.6875 53.46875 19.671875 
Q 53.46875 10.0625 46.390625 4.5 
Q 39.984375 -0.484375 30.171875 -0.484375 
Q 13.765625 -0.484375 4.890625 11.96875 
L 11.765625 17.1875 
Q 18.796875 7.171875 30.28125 7.171875 
Q 35.75 7.171875 39.59375 9.765625 
Q 44.390625 13.234375 44.390625 19 
Q 44.390625 23.484375 40.875 27 
Q 37.109375 30.609375 27 34.46875 
L 24.078125 35.59375 
Q 7.078125 42.09375 7.078125 54.390625 
Q 7.078125 62.59375 12.59375 67.921875 
Q 18.796875 73.828125 29.109375 73.828125 
Q 44.390625 73.828125 52.484375 61.8125 
z
" id="IPAexGothic-83"/>
        <path d="M 13.484375 24.90625 
Q 13.921875 16.265625 18.890625 11.28125 
Q 23.96875 6.203125 31.203125 6.203125 
Q 40.71875 6.203125 46.296875 15.09375 
L 51.90625 11.375 
Q 44.828125 -0.484375 30.171875 -0.484375 
Q 19.09375 -0.484375 11.96875 6.59375 
Q 4.78125 13.8125 4.78125 25.640625 
Q 4.78125 38.1875 12.3125 45.703125 
Q 19 52.390625 29 52.390625 
Q 38.421875 52.390625 44.78125 46.1875 
Q 51.90625 38.96875 51.90625 26.90625 
L 51.90625 24.90625 
z
M 43.0625 31.203125 
Q 42.328125 37.984375 38.28125 41.890625 
Q 34.28125 45.90625 28.8125 45.90625 
Q 22.46875 45.90625 17.96875 40.484375 
Q 14.890625 36.8125 13.96875 31.203125 
z
" id="IPAexGothic-101"/>
       </defs>
       <use xlink:href="#IPAexGothic-83"/>
       <use x="58.496094" xlink:href="#IPAexGothic-101"/>
       <use x="115.380859" xlink:href="#IPAexGothic-112"/>
      </g>
     </g>
    </g>
    <g id="text_8">
     <!-- 2020 -->
     <g transform="translate(372.11375 311.139875)scale(0.1 -0.1)">
      <defs>
       <path d="M 57.171875 0.984375 
L 6.984375 0.984375 
L 6.984375 9.28125 
Q 12.890625 23.046875 29.59375 34.421875 
L 32.375 36.28125 
Q 40.921875 42.140625 43.609375 45.40625 
Q 46.6875 49.265625 46.6875 53.8125 
Q 46.6875 58.9375 43.0625 62.546875 
Q 39.0625 66.546875 32.5625 66.546875 
Q 19.53125 66.546875 15.484375 52 
L 7.765625 54.78125 
Q 13.328125 73.828125 33.0625 73.828125 
Q 43.84375 73.828125 50.25 67.4375 
Q 55.859375 61.671875 55.859375 53.515625 
Q 55.859375 47.46875 52.25 42.53125 
Q 48.921875 37.75 36.96875 30.28125 
L 34.859375 29 
Q 19.625 19.578125 15.28125 8.890625 
L 57.171875 8.890625 
z
" id="IPAexGothic-50"/>
       <path d="M 31.84375 73.828125 
Q 45.015625 73.828125 52.09375 61.625 
Q 57.71875 51.953125 57.71875 36.625 
Q 57.71875 21.4375 52.09375 11.578125 
Q 45.125 -0.484375 31.5 -0.484375 
Q 17.921875 -0.484375 10.9375 11.578125 
Q 5.328125 21.4375 5.328125 36.71875 
Q 5.328125 58.015625 15.625 67.71875 
Q 22.171875 73.828125 31.84375 73.828125 
z
M 31.5 66.65625 
Q 23.6875 66.65625 19.1875 58.734375 
Q 14.59375 50.734375 14.59375 36.625 
Q 14.59375 22.75 19.09375 14.796875 
Q 23.640625 6.984375 31.5 6.984375 
Q 40.921875 6.984375 45.453125 18.015625 
Q 48.4375 25.34375 48.4375 37.109375 
Q 48.4375 50.875 43.84375 58.734375 
Q 39.203125 66.65625 31.5 66.65625 
z
" id="IPAexGothic-48"/>
      </defs>
      <use xlink:href="#IPAexGothic-50"/>
      <use x="62.988281" xlink:href="#IPAexGothic-48"/>
      <use x="125.976562" xlink:href="#IPAexGothic-50"/>
      <use x="188.964844" xlink:href="#IPAexGothic-48"/>
     </g>
    </g>
   </g>
   <g id="matplotlib.axis_2">
    <g id="ytick_1">
     <g id="line2d_8">
      <defs>
       <path d="M 0 0 
L -3.5 0 
" id="m29eeb15394" style="stroke:#000000;stroke-width:0.8;"/>
      </defs>
      <g>
       <use style="stroke:#000000;stroke-width:0.8;" x="40.1875" xlink:href="#m29eeb15394" y="243.53403"/>
      </g>
     </g>
     <g id="text_9">
      <!-- 35 -->
      <g transform="translate(20.590625 247.279342)scale(0.1 -0.1)">
       <defs>
        <path d="M 37.203125 37.796875 
Q 54.78125 34.625 54.78125 19.96875 
Q 54.78125 11.1875 48.875 5.5625 
Q 42.328125 -0.484375 30.375 -0.484375 
Q 12.453125 -0.484375 4.5 13.765625 
L 11.8125 17.671875 
Q 17.328125 6.890625 30.28125 6.890625 
Q 37.890625 6.890625 42.09375 10.796875 
Q 46.09375 14.5 46.09375 20.171875 
Q 46.09375 26.859375 40.09375 30.90625 
Q 34.625 34.578125 25.6875 34.578125 
L 21.296875 34.578125 
L 21.296875 41.703125 
L 25.875 41.703125 
Q 34.859375 41.703125 39.59375 45.125 
Q 44.671875 48.734375 44.671875 54.828125 
Q 44.671875 61.46875 38.96875 64.65625 
Q 35.296875 66.84375 30.171875 66.84375 
Q 19.34375 66.84375 14.109375 55.90625 
L 6.78125 59.421875 
Q 14.015625 73.828125 30.28125 73.828125 
Q 40.578125 73.828125 46.96875 68.65625 
Q 53.375 63.578125 53.375 55.21875 
Q 53.375 47.3125 47.171875 42.28125 
Q 43.171875 39.0625 37.203125 38.1875 
z
" id="IPAexGothic-51"/>
        <path d="M 18.40625 40.671875 
Q 25.53125 46.296875 33.9375 46.296875 
Q 44 46.296875 50.640625 39.5 
Q 56.84375 33.015625 56.84375 23.390625 
Q 56.84375 14.65625 51.515625 8.015625 
Q 44.828125 -0.484375 31.734375 -0.484375 
Q 14.984375 -0.484375 7.328125 12.25 
L 14.65625 16.0625 
Q 20.453125 6.78125 31.453125 6.78125 
Q 38.53125 6.78125 43.265625 11.1875 
Q 48.140625 15.828125 48.140625 23.484375 
Q 48.140625 30.71875 43.84375 35.015625 
Q 39.359375 39.5 32.125 39.5 
Q 21.96875 39.5 16.75 31.6875 
L 9.234375 32.671875 
L 13.8125 72.40625 
L 53.21875 72.40625 
L 53.21875 64.890625 
L 20.953125 64.890625 
L 17.71875 40.671875 
z
" id="IPAexGothic-53"/>
       </defs>
       <use xlink:href="#IPAexGothic-51"/>
       <use x="62.988281" xlink:href="#IPAexGothic-53"/>
      </g>
     </g>
    </g>
    <g id="ytick_2">
     <g id="line2d_9">
      <g>
       <use style="stroke:#000000;stroke-width:0.8;" x="40.1875" xlink:href="#m29eeb15394" y="202.181615"/>
      </g>
     </g>
     <g id="text_10">
      <!-- 40 -->
      <g transform="translate(20.590625 205.926927)scale(0.1 -0.1)">
       <defs>
        <path d="M 59.578125 18.109375 
L 47.796875 18.109375 
L 47.796875 0.984375 
L 39.796875 0.984375 
L 39.796875 18.109375 
L 3.078125 18.109375 
L 3.078125 26.125 
L 38.375 73.09375 
L 47.796875 73.09375 
L 47.796875 25.53125 
L 59.578125 25.53125 
z
M 40.28125 64.203125 
L 39.984375 64.203125 
Q 35.59375 57.125 31.296875 51.3125 
L 11.859375 25.53125 
L 39.796875 25.53125 
L 39.796875 49.125 
Q 39.796875 54.390625 40.28125 64.203125 
z
" id="IPAexGothic-52"/>
       </defs>
       <use xlink:href="#IPAexGothic-52"/>
       <use x="62.988281" xlink:href="#IPAexGothic-48"/>
      </g>
     </g>
    </g>
    <g id="ytick_3">
     <g id="line2d_10">
      <g>
       <use style="stroke:#000000;stroke-width:0.8;" x="40.1875" xlink:href="#m29eeb15394" y="160.829199"/>
      </g>
     </g>
     <g id="text_11">
      <!-- 45 -->
      <g transform="translate(20.590625 164.574512)scale(0.1 -0.1)">
       <use xlink:href="#IPAexGothic-52"/>
       <use x="62.988281" xlink:href="#IPAexGothic-53"/>
      </g>
     </g>
    </g>
    <g id="ytick_4">
     <g id="line2d_11">
      <g>
       <use style="stroke:#000000;stroke-width:0.8;" x="40.1875" xlink:href="#m29eeb15394" y="119.476784"/>
      </g>
     </g>
     <g id="text_12">
      <!-- 50 -->
      <g transform="translate(20.590625 123.222097)scale(0.1 -0.1)">
       <use xlink:href="#IPAexGothic-53"/>
       <use x="62.988281" xlink:href="#IPAexGothic-48"/>
      </g>
     </g>
    </g>
    <g id="ytick_5">
     <g id="line2d_12">
      <g>
       <use style="stroke:#000000;stroke-width:0.8;" x="40.1875" xlink:href="#m29eeb15394" y="78.124369"/>
      </g>
     </g>
     <g id="text_13">
      <!-- 55 -->
      <g transform="translate(20.590625 81.869681)scale(0.1 -0.1)">
       <use xlink:href="#IPAexGothic-53"/>
       <use x="62.988281" xlink:href="#IPAexGothic-53"/>
      </g>
     </g>
    </g>
    <g id="ytick_6">
     <g id="line2d_13">
      <g>
       <use style="stroke:#000000;stroke-width:0.8;" x="40.1875" xlink:href="#m29eeb15394" y="36.771954"/>
      </g>
     </g>
     <g id="text_14">
      <!-- 60 -->
      <g transform="translate(20.590625 40.517266)scale(0.1 -0.1)">
       <defs>
        <path d="M 16.5 36.375 
Q 23.578125 46.578125 34.90625 46.578125 
Q 45.40625 46.578125 51.8125 39.265625 
Q 57.421875 32.90625 57.421875 23.78125 
Q 57.421875 13.8125 51.125 6.78125 
Q 44.578125 -0.484375 34.03125 -0.484375 
Q 21.484375 -0.484375 14.40625 9.078125 
Q 7.515625 18.40625 7.515625 34.8125 
Q 7.515625 53.515625 15.828125 64.203125 
Q 23.34375 73.828125 35.5 73.828125 
Q 49.859375 73.828125 56.390625 62.890625 
L 49.21875 58.984375 
Q 45.21875 66.65625 35.9375 66.65625 
Q 17.484375 66.65625 16.109375 36.375 
z
M 33.453125 39.796875 
Q 26.3125 39.796875 21.625 34.46875 
Q 17.4375 29.6875 17.4375 24.078125 
Q 17.4375 18.0625 21.140625 13.1875 
Q 26.125 6.6875 33.734375 6.6875 
Q 41.703125 6.6875 45.953125 13.1875 
Q 48.828125 17.625 48.828125 23.484375 
Q 48.828125 30.375 45.015625 34.8125 
Q 40.625 39.796875 33.453125 39.796875 
z
" id="IPAexGothic-54"/>
       </defs>
       <use xlink:href="#IPAexGothic-54"/>
       <use x="62.988281" xlink:href="#IPAexGothic-48"/>
      </g>
     </g>
    </g>
    <g id="text_15">
     <!-- 平均年代 -->
     <g transform="translate(14.690625 171.202625)rotate(-90)scale(0.1 -0.1)">
      <defs>
       <path d="M 53.46875 69.1875 
L 53.46875 30.328125 
L 95.0625 30.328125 
L 95.0625 23.640625 
L 53.46875 23.640625 
L 53.46875 -6.984375 
L 45.84375 -6.984375 
L 45.84375 23.640625 
L 5.03125 23.640625 
L 5.03125 30.328125 
L 45.84375 30.328125 
L 45.84375 69.1875 
L 10.015625 69.1875 
L 10.015625 75.875 
L 90.046875 75.875 
L 90.046875 69.1875 
z
M 27 35.59375 
Q 23.25 48.34375 16.890625 60.296875 
L 24.125 63.09375 
Q 29.296875 53.46875 34.71875 38.625 
z
M 64.59375 37.890625 
Q 70.453125 49.03125 75.203125 64.5 
L 82.90625 61.625 
Q 77.875 46.96875 71.390625 34.8125 
z
" id="IPAexGothic-24179"/>
       <path d="M 18.84375 59.28125 
L 18.84375 80.375 
L 25.921875 80.375 
L 25.921875 59.28125 
L 37.015625 59.28125 
L 37.015625 52.6875 
L 25.921875 52.6875 
L 25.921875 20.703125 
Q 32.46875 23.640625 38.8125 26.90625 
L 40.09375 20.515625 
Q 24.3125 12.109375 8.734375 6.203125 
L 5.21875 13.09375 
Q 12.546875 15.234375 18.84375 17.78125 
L 18.84375 52.6875 
L 6.453125 52.6875 
L 6.453125 59.28125 
z
M 54.296875 66.3125 
L 91.3125 66.3125 
Q 91.15625 17.671875 87.796875 2.875 
Q 85.84375 -5.71875 75.59375 -5.71875 
Q 68.265625 -5.71875 60.296875 -4.78125 
L 58.890625 2.875 
Q 66.265625 1.375 73.921875 1.375 
Q 79.046875 1.375 80.421875 4.78125 
Q 83.734375 14.359375 83.890625 59.8125 
L 51.8125 59.8125 
Q 47.078125 48.734375 38.53125 38.625 
L 33.59375 44.1875 
Q 46 59.1875 50.921875 82.234375 
L 58.109375 80.421875 
Q 56.546875 72.859375 54.296875 66.3125 
z
M 46.484375 44.484375 
L 73.09375 44.484375 
L 73.09375 37.984375 
L 46.484375 37.984375 
z
M 39.984375 16.3125 
Q 58.546875 20.90625 75.59375 28.078125 
L 76.421875 21.6875 
Q 59.859375 13.921875 43.21875 9.1875 
z
" id="IPAexGothic-22343"/>
       <path d="M 27.6875 64.984375 
Q 22.5625 53.46875 13.671875 43.796875 
L 8.25 49.46875 
Q 20.65625 61.578125 25.484375 82.171875 
L 32.953125 80.5625 
Q 31.15625 74.359375 30.171875 71.296875 
L 88.96875 71.296875 
L 88.96875 64.984375 
L 58.6875 64.984375 
L 58.6875 48.875 
L 84.90625 48.875 
L 84.90625 42.578125 
L 58.6875 42.578125 
L 58.6875 23.578125 
L 94.96875 23.578125 
L 94.96875 17.09375 
L 58.6875 17.09375 
L 58.6875 -7.03125 
L 51.171875 -7.03125 
L 51.171875 17.09375 
L 6.984375 17.09375 
L 6.984375 23.578125 
L 23.96875 23.578125 
L 23.96875 48.875 
L 51.171875 48.875 
L 51.171875 64.984375 
z
M 51.171875 42.578125 
L 31.15625 42.578125 
L 31.15625 23.578125 
L 51.171875 23.578125 
z
" id="IPAexGothic-24180"/>
       <path d="M 24.8125 57.625 
L 24.8125 -6.984375 
L 17.484375 -6.984375 
L 17.484375 43.015625 
Q 14.015625 36.8125 8.296875 29.203125 
L 4.203125 35.296875 
Q 18.5625 54 24.90625 81 
L 32.328125 79.203125 
Q 28.859375 67.046875 24.8125 57.625 
z
M 51.21875 45.703125 
L 28.515625 43.890625 
L 28.078125 50.78125 
L 50.296875 52.59375 
Q 48.921875 63.875 48.1875 80.515625 
L 55.8125 80.515625 
Q 56.59375 63.09375 57.8125 53.21875 
L 91.703125 55.90625 
L 92.1875 48.875 
L 58.6875 46.296875 
Q 58.734375 46.1875 58.796875 45.90625 
Q 58.84375 45.5625 58.890625 45.40625 
Q 62.359375 21.96875 72.40625 10.40625 
Q 77.984375 3.90625 81 3.90625 
Q 84.234375 3.90625 87.203125 20.515625 
L 93.890625 15.1875 
Q 89.546875 -5.609375 82.515625 -5.609375 
Q 78.765625 -5.609375 72.015625 0.09375 
Q 56.109375 13.28125 51.3125 44.828125 
Q 51.21875 45.125 51.21875 45.703125 
z
M 78.328125 57.8125 
Q 73.53125 65.921875 66.703125 73.1875 
L 72.40625 77.6875 
Q 78.90625 71.1875 84.515625 63.09375 
z
" id="IPAexGothic-20195"/>
      </defs>
      <use xlink:href="#IPAexGothic-24179"/>
      <use x="100" xlink:href="#IPAexGothic-22343"/>
      <use x="200" xlink:href="#IPAexGothic-24180"/>
      <use x="300" xlink:href="#IPAexGothic-20195"/>
     </g>
    </g>
   </g>
   <g id="line2d_14">
    <path clip-path="url(#p8ae1e5bf09)" d="M 56.420227 78.124369 
L 58.175117 97.210099 
L 59.930006 40.907195 
L 61.684896 75.827013 
L 63.439785 91.908507 
L 65.194674 64.832521 
L 66.949564 54.183497 
L 68.704453 62.477509 
L 70.459343 52.676729 
L 72.214232 75.655568 
L 73.969122 92.633988 
L 75.724011 46.17023 
L 77.4789 82.25961 
L 79.23379 78.124369 
L 80.988679 42.285609 
L 82.743569 30.242625 
L 84.498458 96.920921 
L 86.253348 126.208573 
L 88.008237 112.28506 
L 89.763127 61.583403 
L 91.518016 66.58416 
L 93.272905 108.898259 
L 95.027795 84.653698 
L 96.782684 115.341543 
L 98.537574 101.356063 
L 100.292463 121.164638 
L 102.047353 137.010208 
L 103.802242 118.865665 
L 105.557131 170.19201 
L 107.312021 179.0813 
L 109.06691 166.460167 
L 110.8218 174.362717 
L 112.576689 149.460838 
L 114.331579 165.651638 
L 116.086468 150.013952 
L 117.841357 150.211687 
L 119.596247 141.743469 
L 121.351136 145.442254 
L 123.106026 156.302198 
L 124.860915 135.008515 
L 126.615805 138.462484 
L 128.370694 129.351095 
L 130.125584 103.878943 
L 131.880473 132.730763 
L 133.635362 145.272437 
L 135.390252 115.66517 
L 137.145141 136.12719 
L 138.900031 118.147599 
L 140.65492 92.571915 
L 142.40981 115.104172 
L 144.164699 86.232686 
L 145.919588 118.142835 
L 147.674478 110.434118 
L 149.429367 94.301353 
L 151.184257 121.586601 
L 152.939146 81.488633 
L 154.694036 92.176161 
L 156.448925 109.078224 
L 158.203814 61.298214 
L 159.958704 97.240108 
L 161.713593 71.655835 
L 163.468483 49.595525 
L 165.223372 105.045069 
L 166.978262 111.835577 
L 168.733151 52.381806 
L 170.488041 115.521336 
L 172.24293 36.771954 
L 173.997819 44.648604 
L 175.752709 130.358999 
L 177.507598 110.908266 
L 179.262488 99.109177 
L 181.017377 68.394389 
L 182.772267 52.418814 
L 184.527156 91.183026 
L 186.282045 82.19182 
L 188.036935 79.526146 
L 189.791824 162.84639 
L 191.546714 64.340231 
L 193.301603 113.569296 
L 195.056493 122.233612 
L 196.811382 127.747267 
L 198.566271 125.384272 
L 200.321161 86.680041 
L 202.07605 110.487129 
L 203.83094 106.643276 
L 205.585829 135.381559 
L 207.340719 173.234924 
L 209.095608 100.680232 
L 210.850498 196.787821 
L 212.605387 128.943 
L 214.360276 152.952549 
L 216.115166 220.376677 
L 217.870055 186.10012 
L 219.624945 93.011238 
L 221.379834 140.865964 
L 223.134724 134.792494 
L 224.889613 177.010579 
L 226.644502 209.603843 
L 228.399392 122.233612 
L 230.154281 203.835711 
L 231.909171 207.224592 
L 233.66406 151.888137 
L 235.41895 136.393681 
L 237.173839 226.368876 
L 238.928729 164.964441 
L 240.683618 243.53403 
L 242.438507 129.814888 
L 244.193397 219.411788 
L 245.948286 167.358528 
L 247.703176 187.549222 
L 249.458065 219.703824 
L 251.212955 247.472355 
L 252.967844 272.162625 
L 254.722733 224.737477 
L 256.477623 194.724622 
L 258.232512 235.180007 
L 259.987402 210.664161 
L 261.742291 245.257047 
L 263.497181 200.093109 
L 265.25207 221.051163 
L 267.006959 187.019062 
L 268.761849 235.742995 
L 270.516738 244.76843 
L 272.271628 217.662262 
L 274.026517 238.846307 
L 275.781407 255.029682 
L 277.536296 245.239284 
L 279.291186 240.761801 
L 281.046075 244.756269 
L 282.800964 259.265927 
L 284.555854 265.001131 
L 286.310743 240.337708 
L 288.065633 240.269365 
L 289.820522 245.736229 
L 291.575412 235.357887 
L 293.330301 240.544699 
L 295.08519 236.455688 
L 296.84008 242.291386 
L 298.594969 232.184944 
L 300.349859 229.091341 
L 302.104748 247.506751 
L 303.859638 209.748227 
L 305.614527 232.717768 
L 307.369416 235.121651 
L 309.124306 233.323557 
L 310.879195 251.847701 
L 312.634085 235.978777 
L 314.388974 226.646656 
L 316.143864 200.87181 
L 317.898753 214.380194 
L 319.653643 219.292959 
L 321.408532 228.479609 
L 323.163421 231.070975 
L 326.6732 223.902075 
L 328.42809 212.373523 
L 330.182979 209.68805 
L 331.937869 204.399063 
L 333.692758 205.883531 
L 335.447647 198.074377 
L 337.202537 217.428408 
L 338.957426 198.741679 
L 340.712316 173.491594 
L 342.467205 183.509733 
L 344.222095 179.938735 
L 345.976984 164.880618 
L 347.731873 182.097892 
L 349.486763 176.171968 
L 351.241652 185.593389 
L 352.996542 174.535241 
L 354.751431 177.546133 
L 356.506321 163.321674 
L 358.26121 171.583857 
L 360.0161 181.783371 
L 361.770989 183.86984 
L 363.525878 164.918274 
L 365.280768 159.782303 
L 367.035657 178.438256 
L 368.790547 169.237733 
L 370.545436 186.853289 
L 372.300326 186.10012 
L 374.055215 177.892512 
L 375.810104 170.28118 
L 377.564994 178.126942 
L 379.319883 170.405548 
L 381.074773 186.652649 
L 381.074773 186.652649 
" style="fill:none;stroke:#1f77b4;stroke-linecap:square;stroke-width:1.5;"/>
    <defs>
     <path d="M 0 3 
C 0.795609 3 1.55874 2.683901 2.12132 2.12132 
C 2.683901 1.55874 3 0.795609 3 0 
C 3 -0.795609 2.683901 -1.55874 2.12132 -2.12132 
C 1.55874 -2.683901 0.795609 -3 0 -3 
C -0.795609 -3 -1.55874 -2.683901 -2.12132 -2.12132 
C -2.683901 -1.55874 -3 -0.795609 -3 0 
C -3 0.795609 -2.683901 1.55874 -2.12132 2.12132 
C -1.55874 2.683901 -0.795609 3 0 3 
z
" id="m4c6173d5e1" style="stroke:#1f77b4;"/>
    </defs>
    <g clip-path="url(#p8ae1e5bf09)">
     <use style="fill:#1f77b4;stroke:#1f77b4;" x="56.420227" xlink:href="#m4c6173d5e1" y="78.124369"/>
     <use style="fill:#1f77b4;stroke:#1f77b4;" x="58.175117" xlink:href="#m4c6173d5e1" y="97.210099"/>
     <use style="fill:#1f77b4;stroke:#1f77b4;" x="59.930006" xlink:href="#m4c6173d5e1" y="40.907195"/>
     <use style="fill:#1f77b4;stroke:#1f77b4;" x="61.684896" xlink:href="#m4c6173d5e1" y="75.827013"/>
     <use style="fill:#1f77b4;stroke:#1f77b4;" x="63.439785" xlink:href="#m4c6173d5e1" y="91.908507"/>
     <use style="fill:#1f77b4;stroke:#1f77b4;" x="65.194674" xlink:href="#m4c6173d5e1" y="64.832521"/>
     <use style="fill:#1f77b4;stroke:#1f77b4;" x="66.949564" xlink:href="#m4c6173d5e1" y="54.183497"/>
     <use style="fill:#1f77b4;stroke:#1f77b4;" x="68.704453" xlink:href="#m4c6173d5e1" y="62.477509"/>
     <use style="fill:#1f77b4;stroke:#1f77b4;" x="70.459343" xlink:href="#m4c6173d5e1" y="52.676729"/>
     <use style="fill:#1f77b4;stroke:#1f77b4;" x="72.214232" xlink:href="#m4c6173d5e1" y="75.655568"/>
     <use style="fill:#1f77b4;stroke:#1f77b4;" x="73.969122" xlink:href="#m4c6173d5e1" y="92.633988"/>
     <use style="fill:#1f77b4;stroke:#1f77b4;" x="75.724011" xlink:href="#m4c6173d5e1" y="46.17023"/>
     <use style="fill:#1f77b4;stroke:#1f77b4;" x="77.4789" xlink:href="#m4c6173d5e1" y="82.25961"/>
     <use style="fill:#1f77b4;stroke:#1f77b4;" x="79.23379" xlink:href="#m4c6173d5e1" y="78.124369"/>
     <use style="fill:#1f77b4;stroke:#1f77b4;" x="80.988679" xlink:href="#m4c6173d5e1" y="42.285609"/>
     <use style="fill:#1f77b4;stroke:#1f77b4;" x="82.743569" xlink:href="#m4c6173d5e1" y="30.242625"/>
     <use style="fill:#1f77b4;stroke:#1f77b4;" x="84.498458" xlink:href="#m4c6173d5e1" y="96.920921"/>
     <use style="fill:#1f77b4;stroke:#1f77b4;" x="86.253348" xlink:href="#m4c6173d5e1" y="126.208573"/>
     <use style="fill:#1f77b4;stroke:#1f77b4;" x="88.008237" xlink:href="#m4c6173d5e1" y="112.28506"/>
     <use style="fill:#1f77b4;stroke:#1f77b4;" x="89.763127" xlink:href="#m4c6173d5e1" y="61.583403"/>
     <use style="fill:#1f77b4;stroke:#1f77b4;" x="91.518016" xlink:href="#m4c6173d5e1" y="66.58416"/>
     <use style="fill:#1f77b4;stroke:#1f77b4;" x="93.272905" xlink:href="#m4c6173d5e1" y="108.898259"/>
     <use style="fill:#1f77b4;stroke:#1f77b4;" x="95.027795" xlink:href="#m4c6173d5e1" y="84.653698"/>
     <use style="fill:#1f77b4;stroke:#1f77b4;" x="96.782684" xlink:href="#m4c6173d5e1" y="115.341543"/>
     <use style="fill:#1f77b4;stroke:#1f77b4;" x="98.537574" xlink:href="#m4c6173d5e1" y="101.356063"/>
     <use style="fill:#1f77b4;stroke:#1f77b4;" x="100.292463" xlink:href="#m4c6173d5e1" y="121.164638"/>
     <use style="fill:#1f77b4;stroke:#1f77b4;" x="102.047353" xlink:href="#m4c6173d5e1" y="137.010208"/>
     <use style="fill:#1f77b4;stroke:#1f77b4;" x="103.802242" xlink:href="#m4c6173d5e1" y="118.865665"/>
     <use style="fill:#1f77b4;stroke:#1f77b4;" x="105.557131" xlink:href="#m4c6173d5e1" y="170.19201"/>
     <use style="fill:#1f77b4;stroke:#1f77b4;" x="107.312021" xlink:href="#m4c6173d5e1" y="179.0813"/>
     <use style="fill:#1f77b4;stroke:#1f77b4;" x="109.06691" xlink:href="#m4c6173d5e1" y="166.460167"/>
     <use style="fill:#1f77b4;stroke:#1f77b4;" x="110.8218" xlink:href="#m4c6173d5e1" y="174.362717"/>
     <use style="fill:#1f77b4;stroke:#1f77b4;" x="112.576689" xlink:href="#m4c6173d5e1" y="149.460838"/>
     <use style="fill:#1f77b4;stroke:#1f77b4;" x="114.331579" xlink:href="#m4c6173d5e1" y="165.651638"/>
     <use style="fill:#1f77b4;stroke:#1f77b4;" x="116.086468" xlink:href="#m4c6173d5e1" y="150.013952"/>
     <use style="fill:#1f77b4;stroke:#1f77b4;" x="117.841357" xlink:href="#m4c6173d5e1" y="150.211687"/>
     <use style="fill:#1f77b4;stroke:#1f77b4;" x="119.596247" xlink:href="#m4c6173d5e1" y="141.743469"/>
     <use style="fill:#1f77b4;stroke:#1f77b4;" x="121.351136" xlink:href="#m4c6173d5e1" y="145.442254"/>
     <use style="fill:#1f77b4;stroke:#1f77b4;" x="123.106026" xlink:href="#m4c6173d5e1" y="156.302198"/>
     <use style="fill:#1f77b4;stroke:#1f77b4;" x="124.860915" xlink:href="#m4c6173d5e1" y="135.008515"/>
     <use style="fill:#1f77b4;stroke:#1f77b4;" x="126.615805" xlink:href="#m4c6173d5e1" y="138.462484"/>
     <use style="fill:#1f77b4;stroke:#1f77b4;" x="128.370694" xlink:href="#m4c6173d5e1" y="129.351095"/>
     <use style="fill:#1f77b4;stroke:#1f77b4;" x="130.125584" xlink:href="#m4c6173d5e1" y="103.878943"/>
     <use style="fill:#1f77b4;stroke:#1f77b4;" x="131.880473" xlink:href="#m4c6173d5e1" y="132.730763"/>
     <use style="fill:#1f77b4;stroke:#1f77b4;" x="133.635362" xlink:href="#m4c6173d5e1" y="145.272437"/>
     <use style="fill:#1f77b4;stroke:#1f77b4;" x="135.390252" xlink:href="#m4c6173d5e1" y="115.66517"/>
     <use style="fill:#1f77b4;stroke:#1f77b4;" x="137.145141" xlink:href="#m4c6173d5e1" y="136.12719"/>
     <use style="fill:#1f77b4;stroke:#1f77b4;" x="138.900031" xlink:href="#m4c6173d5e1" y="118.147599"/>
     <use style="fill:#1f77b4;stroke:#1f77b4;" x="140.65492" xlink:href="#m4c6173d5e1" y="92.571915"/>
     <use style="fill:#1f77b4;stroke:#1f77b4;" x="142.40981" xlink:href="#m4c6173d5e1" y="115.104172"/>
     <use style="fill:#1f77b4;stroke:#1f77b4;" x="144.164699" xlink:href="#m4c6173d5e1" y="86.232686"/>
     <use style="fill:#1f77b4;stroke:#1f77b4;" x="145.919588" xlink:href="#m4c6173d5e1" y="118.142835"/>
     <use style="fill:#1f77b4;stroke:#1f77b4;" x="147.674478" xlink:href="#m4c6173d5e1" y="110.434118"/>
     <use style="fill:#1f77b4;stroke:#1f77b4;" x="149.429367" xlink:href="#m4c6173d5e1" y="94.301353"/>
     <use style="fill:#1f77b4;stroke:#1f77b4;" x="151.184257" xlink:href="#m4c6173d5e1" y="121.586601"/>
     <use style="fill:#1f77b4;stroke:#1f77b4;" x="152.939146" xlink:href="#m4c6173d5e1" y="81.488633"/>
     <use style="fill:#1f77b4;stroke:#1f77b4;" x="154.694036" xlink:href="#m4c6173d5e1" y="92.176161"/>
     <use style="fill:#1f77b4;stroke:#1f77b4;" x="156.448925" xlink:href="#m4c6173d5e1" y="109.078224"/>
     <use style="fill:#1f77b4;stroke:#1f77b4;" x="158.203814" xlink:href="#m4c6173d5e1" y="61.298214"/>
     <use style="fill:#1f77b4;stroke:#1f77b4;" x="159.958704" xlink:href="#m4c6173d5e1" y="97.240108"/>
     <use style="fill:#1f77b4;stroke:#1f77b4;" x="161.713593" xlink:href="#m4c6173d5e1" y="71.655835"/>
     <use style="fill:#1f77b4;stroke:#1f77b4;" x="163.468483" xlink:href="#m4c6173d5e1" y="49.595525"/>
     <use style="fill:#1f77b4;stroke:#1f77b4;" x="165.223372" xlink:href="#m4c6173d5e1" y="105.045069"/>
     <use style="fill:#1f77b4;stroke:#1f77b4;" x="166.978262" xlink:href="#m4c6173d5e1" y="111.835577"/>
     <use style="fill:#1f77b4;stroke:#1f77b4;" x="168.733151" xlink:href="#m4c6173d5e1" y="52.381806"/>
     <use style="fill:#1f77b4;stroke:#1f77b4;" x="170.488041" xlink:href="#m4c6173d5e1" y="115.521336"/>
     <use style="fill:#1f77b4;stroke:#1f77b4;" x="172.24293" xlink:href="#m4c6173d5e1" y="36.771954"/>
     <use style="fill:#1f77b4;stroke:#1f77b4;" x="173.997819" xlink:href="#m4c6173d5e1" y="44.648604"/>
     <use style="fill:#1f77b4;stroke:#1f77b4;" x="175.752709" xlink:href="#m4c6173d5e1" y="130.358999"/>
     <use style="fill:#1f77b4;stroke:#1f77b4;" x="177.507598" xlink:href="#m4c6173d5e1" y="110.908266"/>
     <use style="fill:#1f77b4;stroke:#1f77b4;" x="179.262488" xlink:href="#m4c6173d5e1" y="99.109177"/>
     <use style="fill:#1f77b4;stroke:#1f77b4;" x="181.017377" xlink:href="#m4c6173d5e1" y="68.394389"/>
     <use style="fill:#1f77b4;stroke:#1f77b4;" x="182.772267" xlink:href="#m4c6173d5e1" y="52.418814"/>
     <use style="fill:#1f77b4;stroke:#1f77b4;" x="184.527156" xlink:href="#m4c6173d5e1" y="91.183026"/>
     <use style="fill:#1f77b4;stroke:#1f77b4;" x="186.282045" xlink:href="#m4c6173d5e1" y="82.19182"/>
     <use style="fill:#1f77b4;stroke:#1f77b4;" x="188.036935" xlink:href="#m4c6173d5e1" y="79.526146"/>
     <use style="fill:#1f77b4;stroke:#1f77b4;" x="189.791824" xlink:href="#m4c6173d5e1" y="162.84639"/>
     <use style="fill:#1f77b4;stroke:#1f77b4;" x="191.546714" xlink:href="#m4c6173d5e1" y="64.340231"/>
     <use style="fill:#1f77b4;stroke:#1f77b4;" x="193.301603" xlink:href="#m4c6173d5e1" y="113.569296"/>
     <use style="fill:#1f77b4;stroke:#1f77b4;" x="195.056493" xlink:href="#m4c6173d5e1" y="122.233612"/>
     <use style="fill:#1f77b4;stroke:#1f77b4;" x="196.811382" xlink:href="#m4c6173d5e1" y="127.747267"/>
     <use style="fill:#1f77b4;stroke:#1f77b4;" x="198.566271" xlink:href="#m4c6173d5e1" y="125.384272"/>
     <use style="fill:#1f77b4;stroke:#1f77b4;" x="200.321161" xlink:href="#m4c6173d5e1" y="86.680041"/>
     <use style="fill:#1f77b4;stroke:#1f77b4;" x="202.07605" xlink:href="#m4c6173d5e1" y="110.487129"/>
     <use style="fill:#1f77b4;stroke:#1f77b4;" x="203.83094" xlink:href="#m4c6173d5e1" y="106.643276"/>
     <use style="fill:#1f77b4;stroke:#1f77b4;" x="205.585829" xlink:href="#m4c6173d5e1" y="135.381559"/>
     <use style="fill:#1f77b4;stroke:#1f77b4;" x="207.340719" xlink:href="#m4c6173d5e1" y="173.234924"/>
     <use style="fill:#1f77b4;stroke:#1f77b4;" x="209.095608" xlink:href="#m4c6173d5e1" y="100.680232"/>
     <use style="fill:#1f77b4;stroke:#1f77b4;" x="210.850498" xlink:href="#m4c6173d5e1" y="196.787821"/>
     <use style="fill:#1f77b4;stroke:#1f77b4;" x="212.605387" xlink:href="#m4c6173d5e1" y="128.943"/>
     <use style="fill:#1f77b4;stroke:#1f77b4;" x="214.360276" xlink:href="#m4c6173d5e1" y="152.952549"/>
     <use style="fill:#1f77b4;stroke:#1f77b4;" x="216.115166" xlink:href="#m4c6173d5e1" y="220.376677"/>
     <use style="fill:#1f77b4;stroke:#1f77b4;" x="217.870055" xlink:href="#m4c6173d5e1" y="186.10012"/>
     <use style="fill:#1f77b4;stroke:#1f77b4;" x="219.624945" xlink:href="#m4c6173d5e1" y="93.011238"/>
     <use style="fill:#1f77b4;stroke:#1f77b4;" x="221.379834" xlink:href="#m4c6173d5e1" y="140.865964"/>
     <use style="fill:#1f77b4;stroke:#1f77b4;" x="223.134724" xlink:href="#m4c6173d5e1" y="134.792494"/>
     <use style="fill:#1f77b4;stroke:#1f77b4;" x="224.889613" xlink:href="#m4c6173d5e1" y="177.010579"/>
     <use style="fill:#1f77b4;stroke:#1f77b4;" x="226.644502" xlink:href="#m4c6173d5e1" y="209.603843"/>
     <use style="fill:#1f77b4;stroke:#1f77b4;" x="228.399392" xlink:href="#m4c6173d5e1" y="122.233612"/>
     <use style="fill:#1f77b4;stroke:#1f77b4;" x="230.154281" xlink:href="#m4c6173d5e1" y="203.835711"/>
     <use style="fill:#1f77b4;stroke:#1f77b4;" x="231.909171" xlink:href="#m4c6173d5e1" y="207.224592"/>
     <use style="fill:#1f77b4;stroke:#1f77b4;" x="233.66406" xlink:href="#m4c6173d5e1" y="151.888137"/>
     <use style="fill:#1f77b4;stroke:#1f77b4;" x="235.41895" xlink:href="#m4c6173d5e1" y="136.393681"/>
     <use style="fill:#1f77b4;stroke:#1f77b4;" x="237.173839" xlink:href="#m4c6173d5e1" y="226.368876"/>
     <use style="fill:#1f77b4;stroke:#1f77b4;" x="238.928729" xlink:href="#m4c6173d5e1" y="164.964441"/>
     <use style="fill:#1f77b4;stroke:#1f77b4;" x="240.683618" xlink:href="#m4c6173d5e1" y="243.53403"/>
     <use style="fill:#1f77b4;stroke:#1f77b4;" x="242.438507" xlink:href="#m4c6173d5e1" y="129.814888"/>
     <use style="fill:#1f77b4;stroke:#1f77b4;" x="244.193397" xlink:href="#m4c6173d5e1" y="219.411788"/>
     <use style="fill:#1f77b4;stroke:#1f77b4;" x="245.948286" xlink:href="#m4c6173d5e1" y="167.358528"/>
     <use style="fill:#1f77b4;stroke:#1f77b4;" x="247.703176" xlink:href="#m4c6173d5e1" y="187.549222"/>
     <use style="fill:#1f77b4;stroke:#1f77b4;" x="249.458065" xlink:href="#m4c6173d5e1" y="219.703824"/>
     <use style="fill:#1f77b4;stroke:#1f77b4;" x="251.212955" xlink:href="#m4c6173d5e1" y="247.472355"/>
     <use style="fill:#1f77b4;stroke:#1f77b4;" x="252.967844" xlink:href="#m4c6173d5e1" y="272.162625"/>
     <use style="fill:#1f77b4;stroke:#1f77b4;" x="254.722733" xlink:href="#m4c6173d5e1" y="224.737477"/>
     <use style="fill:#1f77b4;stroke:#1f77b4;" x="256.477623" xlink:href="#m4c6173d5e1" y="194.724622"/>
     <use style="fill:#1f77b4;stroke:#1f77b4;" x="258.232512" xlink:href="#m4c6173d5e1" y="235.180007"/>
     <use style="fill:#1f77b4;stroke:#1f77b4;" x="259.987402" xlink:href="#m4c6173d5e1" y="210.664161"/>
     <use style="fill:#1f77b4;stroke:#1f77b4;" x="261.742291" xlink:href="#m4c6173d5e1" y="245.257047"/>
     <use style="fill:#1f77b4;stroke:#1f77b4;" x="263.497181" xlink:href="#m4c6173d5e1" y="200.093109"/>
     <use style="fill:#1f77b4;stroke:#1f77b4;" x="265.25207" xlink:href="#m4c6173d5e1" y="221.051163"/>
     <use style="fill:#1f77b4;stroke:#1f77b4;" x="267.006959" xlink:href="#m4c6173d5e1" y="187.019062"/>
     <use style="fill:#1f77b4;stroke:#1f77b4;" x="268.761849" xlink:href="#m4c6173d5e1" y="235.742995"/>
     <use style="fill:#1f77b4;stroke:#1f77b4;" x="270.516738" xlink:href="#m4c6173d5e1" y="244.76843"/>
     <use style="fill:#1f77b4;stroke:#1f77b4;" x="272.271628" xlink:href="#m4c6173d5e1" y="217.662262"/>
     <use style="fill:#1f77b4;stroke:#1f77b4;" x="274.026517" xlink:href="#m4c6173d5e1" y="238.846307"/>
     <use style="fill:#1f77b4;stroke:#1f77b4;" x="275.781407" xlink:href="#m4c6173d5e1" y="255.029682"/>
     <use style="fill:#1f77b4;stroke:#1f77b4;" x="277.536296" xlink:href="#m4c6173d5e1" y="245.239284"/>
     <use style="fill:#1f77b4;stroke:#1f77b4;" x="279.291186" xlink:href="#m4c6173d5e1" y="240.761801"/>
     <use style="fill:#1f77b4;stroke:#1f77b4;" x="281.046075" xlink:href="#m4c6173d5e1" y="244.756269"/>
     <use style="fill:#1f77b4;stroke:#1f77b4;" x="282.800964" xlink:href="#m4c6173d5e1" y="259.265927"/>
     <use style="fill:#1f77b4;stroke:#1f77b4;" x="284.555854" xlink:href="#m4c6173d5e1" y="265.001131"/>
     <use style="fill:#1f77b4;stroke:#1f77b4;" x="286.310743" xlink:href="#m4c6173d5e1" y="240.337708"/>
     <use style="fill:#1f77b4;stroke:#1f77b4;" x="288.065633" xlink:href="#m4c6173d5e1" y="240.269365"/>
     <use style="fill:#1f77b4;stroke:#1f77b4;" x="289.820522" xlink:href="#m4c6173d5e1" y="245.736229"/>
     <use style="fill:#1f77b4;stroke:#1f77b4;" x="291.575412" xlink:href="#m4c6173d5e1" y="235.357887"/>
     <use style="fill:#1f77b4;stroke:#1f77b4;" x="293.330301" xlink:href="#m4c6173d5e1" y="240.544699"/>
     <use style="fill:#1f77b4;stroke:#1f77b4;" x="295.08519" xlink:href="#m4c6173d5e1" y="236.455688"/>
     <use style="fill:#1f77b4;stroke:#1f77b4;" x="296.84008" xlink:href="#m4c6173d5e1" y="242.291386"/>
     <use style="fill:#1f77b4;stroke:#1f77b4;" x="298.594969" xlink:href="#m4c6173d5e1" y="232.184944"/>
     <use style="fill:#1f77b4;stroke:#1f77b4;" x="300.349859" xlink:href="#m4c6173d5e1" y="229.091341"/>
     <use style="fill:#1f77b4;stroke:#1f77b4;" x="302.104748" xlink:href="#m4c6173d5e1" y="247.506751"/>
     <use style="fill:#1f77b4;stroke:#1f77b4;" x="303.859638" xlink:href="#m4c6173d5e1" y="209.748227"/>
     <use style="fill:#1f77b4;stroke:#1f77b4;" x="305.614527" xlink:href="#m4c6173d5e1" y="232.717768"/>
     <use style="fill:#1f77b4;stroke:#1f77b4;" x="307.369416" xlink:href="#m4c6173d5e1" y="235.121651"/>
     <use style="fill:#1f77b4;stroke:#1f77b4;" x="309.124306" xlink:href="#m4c6173d5e1" y="233.323557"/>
     <use style="fill:#1f77b4;stroke:#1f77b4;" x="310.879195" xlink:href="#m4c6173d5e1" y="251.847701"/>
     <use style="fill:#1f77b4;stroke:#1f77b4;" x="312.634085" xlink:href="#m4c6173d5e1" y="235.978777"/>
     <use style="fill:#1f77b4;stroke:#1f77b4;" x="314.388974" xlink:href="#m4c6173d5e1" y="226.646656"/>
     <use style="fill:#1f77b4;stroke:#1f77b4;" x="316.143864" xlink:href="#m4c6173d5e1" y="200.87181"/>
     <use style="fill:#1f77b4;stroke:#1f77b4;" x="317.898753" xlink:href="#m4c6173d5e1" y="214.380194"/>
     <use style="fill:#1f77b4;stroke:#1f77b4;" x="319.653643" xlink:href="#m4c6173d5e1" y="219.292959"/>
     <use style="fill:#1f77b4;stroke:#1f77b4;" x="321.408532" xlink:href="#m4c6173d5e1" y="228.479609"/>
     <use style="fill:#1f77b4;stroke:#1f77b4;" x="323.163421" xlink:href="#m4c6173d5e1" y="231.070975"/>
     <use style="fill:#1f77b4;stroke:#1f77b4;" x="324.918311" xlink:href="#m4c6173d5e1" y="227.511442"/>
     <use style="fill:#1f77b4;stroke:#1f77b4;" x="326.6732" xlink:href="#m4c6173d5e1" y="223.902075"/>
     <use style="fill:#1f77b4;stroke:#1f77b4;" x="328.42809" xlink:href="#m4c6173d5e1" y="212.373523"/>
     <use style="fill:#1f77b4;stroke:#1f77b4;" x="330.182979" xlink:href="#m4c6173d5e1" y="209.68805"/>
     <use style="fill:#1f77b4;stroke:#1f77b4;" x="331.937869" xlink:href="#m4c6173d5e1" y="204.399063"/>
     <use style="fill:#1f77b4;stroke:#1f77b4;" x="333.692758" xlink:href="#m4c6173d5e1" y="205.883531"/>
     <use style="fill:#1f77b4;stroke:#1f77b4;" x="335.447647" xlink:href="#m4c6173d5e1" y="198.074377"/>
     <use style="fill:#1f77b4;stroke:#1f77b4;" x="337.202537" xlink:href="#m4c6173d5e1" y="217.428408"/>
     <use style="fill:#1f77b4;stroke:#1f77b4;" x="338.957426" xlink:href="#m4c6173d5e1" y="198.741679"/>
     <use style="fill:#1f77b4;stroke:#1f77b4;" x="340.712316" xlink:href="#m4c6173d5e1" y="173.491594"/>
     <use style="fill:#1f77b4;stroke:#1f77b4;" x="342.467205" xlink:href="#m4c6173d5e1" y="183.509733"/>
     <use style="fill:#1f77b4;stroke:#1f77b4;" x="344.222095" xlink:href="#m4c6173d5e1" y="179.938735"/>
     <use style="fill:#1f77b4;stroke:#1f77b4;" x="345.976984" xlink:href="#m4c6173d5e1" y="164.880618"/>
     <use style="fill:#1f77b4;stroke:#1f77b4;" x="347.731873" xlink:href="#m4c6173d5e1" y="182.097892"/>
     <use style="fill:#1f77b4;stroke:#1f77b4;" x="349.486763" xlink:href="#m4c6173d5e1" y="176.171968"/>
     <use style="fill:#1f77b4;stroke:#1f77b4;" x="351.241652" xlink:href="#m4c6173d5e1" y="185.593389"/>
     <use style="fill:#1f77b4;stroke:#1f77b4;" x="352.996542" xlink:href="#m4c6173d5e1" y="174.535241"/>
     <use style="fill:#1f77b4;stroke:#1f77b4;" x="354.751431" xlink:href="#m4c6173d5e1" y="177.546133"/>
     <use style="fill:#1f77b4;stroke:#1f77b4;" x="356.506321" xlink:href="#m4c6173d5e1" y="163.321674"/>
     <use style="fill:#1f77b4;stroke:#1f77b4;" x="358.26121" xlink:href="#m4c6173d5e1" y="171.583857"/>
     <use style="fill:#1f77b4;stroke:#1f77b4;" x="360.0161" xlink:href="#m4c6173d5e1" y="181.783371"/>
     <use style="fill:#1f77b4;stroke:#1f77b4;" x="361.770989" xlink:href="#m4c6173d5e1" y="183.86984"/>
     <use style="fill:#1f77b4;stroke:#1f77b4;" x="363.525878" xlink:href="#m4c6173d5e1" y="164.918274"/>
     <use style="fill:#1f77b4;stroke:#1f77b4;" x="365.280768" xlink:href="#m4c6173d5e1" y="159.782303"/>
     <use style="fill:#1f77b4;stroke:#1f77b4;" x="367.035657" xlink:href="#m4c6173d5e1" y="178.438256"/>
     <use style="fill:#1f77b4;stroke:#1f77b4;" x="368.790547" xlink:href="#m4c6173d5e1" y="169.237733"/>
     <use style="fill:#1f77b4;stroke:#1f77b4;" x="370.545436" xlink:href="#m4c6173d5e1" y="186.853289"/>
     <use style="fill:#1f77b4;stroke:#1f77b4;" x="372.300326" xlink:href="#m4c6173d5e1" y="186.10012"/>
     <use style="fill:#1f77b4;stroke:#1f77b4;" x="374.055215" xlink:href="#m4c6173d5e1" y="177.892512"/>
     <use style="fill:#1f77b4;stroke:#1f77b4;" x="375.810104" xlink:href="#m4c6173d5e1" y="170.28118"/>
     <use style="fill:#1f77b4;stroke:#1f77b4;" x="377.564994" xlink:href="#m4c6173d5e1" y="178.126942"/>
     <use style="fill:#1f77b4;stroke:#1f77b4;" x="379.319883" xlink:href="#m4c6173d5e1" y="170.405548"/>
     <use style="fill:#1f77b4;stroke:#1f77b4;" x="381.074773" xlink:href="#m4c6173d5e1" y="186.652649"/>
    </g>
   </g>
   <g id="patch_3">
    <path d="M 40.1875 284.258625 
L 40.1875 18.146625 
" style="fill:none;stroke:#000000;stroke-linecap:square;stroke-linejoin:miter;stroke-width:0.8;"/>
   </g>
   <g id="patch_4">
    <path d="M 397.3075 284.258625 
L 397.3075 18.146625 
" style="fill:none;stroke:#000000;stroke-linecap:square;stroke-linejoin:miter;stroke-width:0.8;"/>
   </g>
   <g id="patch_5">
    <path d="M 40.1875 284.258625 
L 397.3075 284.258625 
" style="fill:none;stroke:#000000;stroke-linecap:square;stroke-linejoin:miter;stroke-width:0.8;"/>
   </g>
   <g id="patch_6">
    <path d="M 40.1875 18.146625 
L 397.3075 18.146625 
" style="fill:none;stroke:#000000;stroke-linecap:square;stroke-linejoin:miter;stroke-width:0.8;"/>
   </g>
   <g id="legend_1">
    <g id="patch_7">
     <path d="M 338.3075 40.53725 
L 390.3075 40.53725 
Q 392.3075 40.53725 392.3075 38.53725 
L 392.3075 25.146625 
Q 392.3075 23.146625 390.3075 23.146625 
L 338.3075 23.146625 
Q 336.3075 23.146625 336.3075 25.146625 
L 336.3075 38.53725 
Q 336.3075 40.53725 338.3075 40.53725 
z
" style="fill:#ffffff;opacity:0.8;stroke:#cccccc;stroke-linejoin:miter;"/>
    </g>
    <g id="line2d_15">
     <path d="M 340.3075 31.13725 
L 360.3075 31.13725 
" style="fill:none;stroke:#1f77b4;stroke-linecap:square;stroke-width:1.5;"/>
    </g>
    <g id="line2d_16">
     <g>
      <use style="fill:#1f77b4;stroke:#1f77b4;" x="350.3075" xlink:href="#m4c6173d5e1" y="31.13725"/>
     </g>
    </g>
    <g id="text_16">
     <!-- 全国 -->
     <g transform="translate(368.3075 34.63725)scale(0.1 -0.1)">
      <defs>
       <path d="M 53.375 43.40625 
L 53.375 27.296875 
L 82.5625 27.296875 
L 82.5625 20.90625 
L 53.375 20.90625 
L 53.375 2.875 
L 91.546875 2.875 
L 91.546875 -3.609375 
L 8.546875 -3.609375 
L 8.546875 2.875 
L 45.953125 2.875 
L 45.953125 20.90625 
L 17.4375 20.90625 
L 17.4375 27.296875 
L 45.953125 27.296875 
L 45.953125 43.40625 
L 26.03125 43.40625 
L 26.03125 48.296875 
Q 18.5625 42.875 9.328125 38.625 
L 4.9375 44.484375 
Q 31.34375 55.765625 45.125 81.203125 
L 53.765625 81.203125 
Q 70.171875 58.796875 95.5625 47.515625 
L 90.875 40.921875 
Q 66.109375 53.328125 49.5625 74.609375 
Q 40.671875 59.90625 27.9375 49.703125 
L 75.046875 49.703125 
L 75.046875 43.40625 
z
" id="IPAexGothic-20840"/>
       <path d="M 52.09375 56.6875 
L 52.09375 44.09375 
L 73.875 44.09375 
L 73.875 38.09375 
L 52.09375 38.09375 
L 52.09375 19.390625 
L 77.984375 19.390625 
L 77.984375 13.09375 
L 21.828125 13.09375 
L 21.828125 19.390625 
L 45.125 19.390625 
L 45.125 38.09375 
L 25.921875 38.09375 
L 25.921875 44.09375 
L 45.125 44.09375 
L 45.125 56.6875 
L 22.796875 56.6875 
L 22.796875 62.890625 
L 76.90625 62.890625 
L 76.90625 56.6875 
z
M 67.921875 20.515625 
Q 63.578125 26.953125 58.109375 32.421875 
L 63.140625 36.28125 
Q 68.5625 31.453125 73.1875 25 
z
M 89.984375 77.875 
L 89.984375 -6.984375 
L 82.8125 -6.984375 
L 82.8125 -2 
L 17.140625 -2 
L 17.140625 -6.984375 
L 9.8125 -6.984375 
L 9.8125 77.875 
z
M 17.140625 71.578125 
L 17.140625 4.296875 
L 82.8125 4.296875 
L 82.8125 71.578125 
z
" id="IPAexGothic-22269"/>
      </defs>
      <use xlink:href="#IPAexGothic-20840"/>
      <use x="100" xlink:href="#IPAexGothic-22269"/>
     </g>
    </g>
   </g>
  </g>
  <g id="text_17">
   <!-- generated: 2020-09-03 18:02:45 -->
   <g transform="translate(239.412188 14.690625)scale(0.1 -0.1)">
    <defs>
     <path d="M 33.203125 3.765625 
Q 27.640625 -0.09375 21.828125 -0.09375 
Q 10.203125 -0.09375 10.203125 12.984375 
L 10.203125 44.671875 
L 3.421875 44.671875 
L 3.421875 50.78125 
L 10.203125 50.78125 
L 10.203125 61.96875 
L 18.40625 66.0625 
L 18.40625 50.78125 
L 32.234375 50.78125 
L 32.234375 44.671875 
L 18.40625 44.671875 
L 18.40625 14.15625 
Q 18.40625 6.5 23.640625 6.5 
Q 27.15625 6.5 30.328125 9.1875 
z
" id="IPAexGothic-116"/>
     <path d="M 52.984375 0.984375 
L 45.171875 0.984375 
L 45.171875 9.671875 
Q 38.140625 -0.484375 27.390625 -0.484375 
Q 18.453125 -0.484375 12.3125 5.8125 
Q 4.890625 13.1875 4.890625 25.984375 
Q 4.890625 38.53125 12.0625 45.90625 
Q 18.265625 52.203125 27.390625 52.203125 
Q 37.25 52.203125 44.484375 43.890625 
L 44.484375 74.90625 
L 52.984375 74.90625 
z
M 44.484375 20.359375 
L 44.484375 32.765625 
Q 44.484375 37.703125 38.375 42.28125 
Q 34.078125 45.40625 28.953125 45.40625 
Q 23.1875 45.40625 19.1875 41.40625 
Q 13.875 36.078125 13.875 26.21875 
Q 13.875 17.328125 18.265625 11.71875 
Q 22.515625 6.390625 28.859375 6.390625 
Q 36.28125 6.390625 41.5 13.671875 
Q 44.484375 17.71875 44.484375 20.359375 
z
" id="IPAexGothic-100"/>
     <path d="M 21.390625 39.984375 
L 10.5 39.984375 
L 10.5 50.78125 
L 21.390625 50.78125 
z
M 21.390625 0.984375 
L 10.5 0.984375 
L 10.5 11.765625 
L 21.390625 11.765625 
z
" id="IPAexGothic-58"/>
     <path id="IPAexGothic-32"/>
     <path d="M 30.765625 26.609375 
L 4.984375 26.609375 
L 4.984375 34.421875 
L 30.765625 34.421875 
z
" id="IPAexGothic-45"/>
     <path d="M 46.625 36.8125 
Q 39.75 26.8125 28.328125 26.8125 
Q 19.578125 26.8125 13.234375 32.125 
Q 5.71875 38.421875 5.71875 49.421875 
Q 5.71875 59.578125 12.015625 66.65625 
Q 18.453125 73.828125 29.203125 73.828125 
Q 43.75 73.828125 50.640625 61.71875 
Q 55.609375 52.78125 55.609375 38.625 
Q 55.609375 19.53125 47.515625 9.1875 
Q 39.890625 -0.484375 27.640625 -0.484375 
Q 13.421875 -0.484375 6.109375 10.984375 
L 13.328125 14.890625 
Q 18.0625 6.6875 27.390625 6.6875 
Q 45.65625 6.6875 47.015625 36.8125 
z
M 29.5 66.84375 
Q 22.65625 66.84375 18.3125 61.71875 
Q 14.40625 57.078125 14.40625 50 
Q 14.40625 42.828125 18.109375 38.71875 
Q 22.40625 33.796875 29.78125 33.796875 
Q 37.984375 33.796875 42.625 40.1875 
Q 45.703125 44.484375 45.703125 49.515625 
Q 45.703125 55.515625 42.09375 60.359375 
Q 37.109375 66.84375 29.5 66.84375 
z
" id="IPAexGothic-57"/>
     <path d="M 38.484375 0.984375 
L 29.6875 0.984375 
L 29.6875 64.109375 
Q 21.4375 61.28125 12.3125 59.328125 
L 10.6875 66.109375 
Q 23.734375 69.390625 32.90625 73.921875 
L 38.484375 73.921875 
z
" id="IPAexGothic-49"/>
     <path d="M 39.703125 37.890625 
Q 57.8125 31.734375 57.8125 18.703125 
Q 57.8125 8.453125 48.4375 3.078125 
Q 41.609375 -0.875 31.5 -0.875 
Q 21.34375 -0.875 14.5 3.078125 
Q 5.421875 8.296875 5.421875 18.40625 
Q 5.421875 31.0625 22.015625 37.203125 
L 22.015625 37.5 
Q 7.515625 42.71875 7.515625 54.828125 
Q 7.515625 64.0625 15.328125 69.625 
Q 21.96875 74.3125 31.546875 74.3125 
Q 42.234375 74.3125 48.921875 68.796875 
Q 55.515625 63.578125 55.515625 55.71875 
Q 55.515625 42.28125 39.703125 38.1875 
z
M 31.59375 41.015625 
Q 46.828125 44.625 46.828125 55.125 
Q 46.828125 61.1875 41.796875 64.84375 
Q 37.703125 67.921875 31.5 67.921875 
Q 25.09375 67.921875 20.796875 64.5 
Q 16.40625 60.890625 16.40625 55.03125 
Q 16.40625 49.21875 21.09375 45.703125 
Q 23.34375 43.890625 26.90625 42.53125 
Q 31 40.875 31.59375 41.015625 
z
M 30.90625 34.515625 
Q 14.40625 30.171875 14.40625 19 
Q 14.40625 12.109375 20.515625 8.6875 
Q 25.09375 6.109375 31.390625 6.109375 
Q 40.234375 6.109375 45.015625 10.890625 
Q 48.53125 14.40625 48.53125 19.53125 
Q 48.53125 24.90625 43.65625 28.90625 
Q 40.765625 31.15625 36.71875 32.8125 
Q 31.984375 34.71875 30.90625 34.515625 
z
" id="IPAexGothic-56"/>
    </defs>
    <use xlink:href="#IPAexGothic-103"/>
    <use x="55.517578" xlink:href="#IPAexGothic-101"/>
    <use x="112.402344" xlink:href="#IPAexGothic-110"/>
    <use x="172.802734" xlink:href="#IPAexGothic-101"/>
    <use x="229.6875" xlink:href="#IPAexGothic-114"/>
    <use x="266.699219" xlink:href="#IPAexGothic-97"/>
    <use x="321.679688" xlink:href="#IPAexGothic-116"/>
    <use x="356.298828" xlink:href="#IPAexGothic-101"/>
    <use x="413.183594" xlink:href="#IPAexGothic-100"/>
    <use x="475.585938" xlink:href="#IPAexGothic-58"/>
    <use x="507.568359" xlink:href="#IPAexGothic-32"/>
    <use x="534.570312" xlink:href="#IPAexGothic-50"/>
    <use x="597.558594" xlink:href="#IPAexGothic-48"/>
    <use x="660.546875" xlink:href="#IPAexGothic-50"/>
    <use x="723.535156" xlink:href="#IPAexGothic-48"/>
    <use x="786.523438" xlink:href="#IPAexGothic-45"/>
    <use x="822.314453" xlink:href="#IPAexGothic-48"/>
    <use x="885.302734" xlink:href="#IPAexGothic-57"/>
    <use x="948.291016" xlink:href="#IPAexGothic-45"/>
    <use x="984.082031" xlink:href="#IPAexGothic-48"/>
    <use x="1047.070312" xlink:href="#IPAexGothic-51"/>
    <use x="1110.058594" xlink:href="#IPAexGothic-32"/>
    <use x="1137.060547" xlink:href="#IPAexGothic-49"/>
    <use x="1200.048828" xlink:href="#IPAexGothic-56"/>
    <use x="1263.037109" xlink:href="#IPAexGothic-58"/>
    <use x="1295.019531" xlink:href="#IPAexGothic-48"/>
    <use x="1358.007812" xlink:href="#IPAexGothic-50"/>
    <use x="1420.996094" xlink:href="#IPAexGothic-58"/>
    <use x="1452.978516" xlink:href="#IPAexGothic-52"/>
    <use x="1515.966797" xlink:href="#IPAexGothic-53"/>
   </g>
  </g>
 </g>
 <defs>
  <clipPath id="p8ae1e5bf09">
   <rect height="266.112" width="357.12" x="40.1875" y="18.146625"/>
  </clipPath>
 </defs>
</svg>
