<?xml version="1.0" encoding="utf-8" standalone="no"?>
<!DOCTYPE svg PUBLIC "-//W3C//DTD SVG 1.1//EN"
  "http://www.w3.org/Graphics/SVG/1.1/DTD/svg11.dtd">
<!-- Created with matplotlib (https://matplotlib.org/) -->
<svg height="320.239875pt" version="1.1" viewBox="0 0 403.71375 320.239875" width="403.71375pt" xmlns="http://www.w3.org/2000/svg" xmlns:xlink="http://www.w3.org/1999/xlink">
 <metadata>
  <rdf:RDF xmlns:cc="http://creativecommons.org/ns#" xmlns:dc="http://purl.org/dc/elements/1.1/" xmlns:rdf="http://www.w3.org/1999/02/22-rdf-syntax-ns#">
   <cc:Work>
    <dc:type rdf:resource="http://purl.org/dc/dcmitype/StillImage"/>
    <dc:date>2020-08-08T07:21:32.348000</dc:date>
    <dc:format>image/svg+xml</dc:format>
    <dc:creator>
     <cc:Agent>
      <dc:title>Matplotlib v3.3.0, https://matplotlib.org/</dc:title>
     </cc:Agent>
    </dc:creator>
   </cc:Work>
  </rdf:RDF>
 </metadata>
 <defs>
  <style type="text/css">*{stroke-linecap:butt;stroke-linejoin:round;}</style>
 </defs>
 <g id="figure_1">
  <g id="patch_1">
   <path d="M 0 320.239875 
L 403.71375 320.239875 
L 403.71375 0 
L 0 0 
z
" style="fill:#ffffff;"/>
  </g>
  <g id="axes_1">
   <g id="patch_2">
    <path d="M 39.39375 284.258625 
L 396.51375 284.258625 
L 396.51375 18.146625 
L 39.39375 18.146625 
z
" style="fill:#ffffff;"/>
   </g>
   <g id="matplotlib.axis_1">
    <g id="xtick_1">
     <g id="line2d_1">
      <defs>
       <path d="M 0 0 
L 0 3.5 
" id="ma897569f0d" style="stroke:#000000;stroke-width:0.8;"/>
      </defs>
      <g>
       <use style="stroke:#000000;stroke-width:0.8;" x="52.634269" xlink:href="#ma897569f0d" y="284.258625"/>
      </g>
     </g>
     <g id="text_1">
      <!-- 2020 -->
      <g transform="translate(40.037394 298.74925)scale(0.1 -0.1)">
       <defs>
        <path d="M 57.171875 0.984375 
L 6.984375 0.984375 
L 6.984375 9.28125 
Q 12.890625 23.046875 29.59375 34.421875 
L 32.375 36.28125 
Q 40.921875 42.140625 43.609375 45.40625 
Q 46.6875 49.265625 46.6875 53.8125 
Q 46.6875 58.9375 43.0625 62.546875 
Q 39.0625 66.546875 32.5625 66.546875 
Q 19.53125 66.546875 15.484375 52 
L 7.765625 54.78125 
Q 13.328125 73.828125 33.0625 73.828125 
Q 43.84375 73.828125 50.25 67.4375 
Q 55.859375 61.671875 55.859375 53.515625 
Q 55.859375 47.46875 52.25 42.53125 
Q 48.921875 37.75 36.96875 30.28125 
L 34.859375 29 
Q 19.625 19.578125 15.28125 8.890625 
L 57.171875 8.890625 
z
" id="IPAexGothic-50"/>
        <path d="M 31.84375 73.828125 
Q 45.015625 73.828125 52.09375 61.625 
Q 57.71875 51.953125 57.71875 36.625 
Q 57.71875 21.4375 52.09375 11.578125 
Q 45.125 -0.484375 31.5 -0.484375 
Q 17.921875 -0.484375 10.9375 11.578125 
Q 5.328125 21.4375 5.328125 36.71875 
Q 5.328125 58.015625 15.625 67.71875 
Q 22.171875 73.828125 31.84375 73.828125 
z
M 31.5 66.65625 
Q 23.6875 66.65625 19.1875 58.734375 
Q 14.59375 50.734375 14.59375 36.625 
Q 14.59375 22.75 19.09375 14.796875 
Q 23.640625 6.984375 31.5 6.984375 
Q 40.921875 6.984375 45.453125 18.015625 
Q 48.4375 25.34375 48.4375 37.109375 
Q 48.4375 50.875 43.84375 58.734375 
Q 39.203125 66.65625 31.5 66.65625 
z
" id="IPAexGothic-48"/>
       </defs>
       <use xlink:href="#IPAexGothic-50"/>
       <use x="62.988281" xlink:href="#IPAexGothic-48"/>
       <use x="125.976562" xlink:href="#IPAexGothic-50"/>
       <use x="188.964844" xlink:href="#IPAexGothic-48"/>
      </g>
     </g>
    </g>
    <g id="xtick_2">
     <g id="line2d_2">
      <g>
       <use style="stroke:#000000;stroke-width:0.8;" x="99.01349" xlink:href="#ma897569f0d" y="284.258625"/>
      </g>
     </g>
     <g id="text_2">
      <!-- Feb -->
      <g transform="translate(90.190053 298.74925)scale(0.1 -0.1)">
       <defs>
        <path d="M 54.203125 64.703125 
L 18.3125 64.703125 
L 18.3125 41.5 
L 50.09375 41.5 
L 50.09375 34.1875 
L 18.3125 34.1875 
L 18.3125 0.984375 
L 9.515625 0.984375 
L 9.515625 72.40625 
L 54.203125 72.40625 
z
" id="IPAexGothic-70"/>
        <path d="M 13.484375 24.90625 
Q 13.921875 16.265625 18.890625 11.28125 
Q 23.96875 6.203125 31.203125 6.203125 
Q 40.71875 6.203125 46.296875 15.09375 
L 51.90625 11.375 
Q 44.828125 -0.484375 30.171875 -0.484375 
Q 19.09375 -0.484375 11.96875 6.59375 
Q 4.78125 13.8125 4.78125 25.640625 
Q 4.78125 38.1875 12.3125 45.703125 
Q 19 52.390625 29 52.390625 
Q 38.421875 52.390625 44.78125 46.1875 
Q 51.90625 38.96875 51.90625 26.90625 
L 51.90625 24.90625 
z
M 43.0625 31.203125 
Q 42.328125 37.984375 38.28125 41.890625 
Q 34.28125 45.90625 28.8125 45.90625 
Q 22.46875 45.90625 17.96875 40.484375 
Q 14.890625 36.8125 13.96875 31.203125 
z
" id="IPAexGothic-101"/>
        <path d="M 17.578125 42.671875 
Q 24.21875 52.203125 34.671875 52.203125 
Q 43.5625 52.203125 49.859375 45.90625 
Q 57.171875 38.578125 57.171875 25.6875 
Q 57.171875 13.09375 49.859375 5.8125 
Q 43.5625 -0.484375 34.46875 -0.484375 
Q 24.359375 -0.484375 17 8.0625 
L 15.765625 0.6875 
L 9.078125 0.6875 
L 9.078125 74.90625 
L 17.578125 74.90625 
z
M 17.578125 31.203125 
L 17.578125 19.578125 
Q 17.578125 13.875 23.875 9.375 
Q 28.171875 6.296875 33.109375 6.296875 
Q 38.875 6.296875 42.875 10.296875 
Q 48.1875 15.765625 48.1875 25.484375 
Q 48.1875 34.28125 43.796875 39.890625 
Q 39.453125 45.3125 33.203125 45.3125 
Q 27.484375 45.3125 22.46875 40.28125 
Q 17.578125 35.40625 17.578125 31.203125 
z
" id="IPAexGothic-98"/>
       </defs>
       <use xlink:href="#IPAexGothic-70"/>
       <use x="57.177734" xlink:href="#IPAexGothic-101"/>
       <use x="114.0625" xlink:href="#IPAexGothic-98"/>
      </g>
     </g>
    </g>
    <g id="xtick_3">
     <g id="line2d_3">
      <g>
       <use style="stroke:#000000;stroke-width:0.8;" x="142.400503" xlink:href="#ma897569f0d" y="284.258625"/>
      </g>
     </g>
     <g id="text_3">
      <!-- Mar -->
      <g transform="translate(133.291128 298.74925)scale(0.1 -0.1)">
       <defs>
        <path d="M 80.421875 0.984375 
L 71.828125 0.984375 
L 71.828125 39.59375 
Q 71.828125 51.265625 72.40625 64.59375 
L 72.015625 64.59375 
Q 68.0625 53.265625 63.53125 41.796875 
L 47.90625 3.265625 
L 41.40625 3.265625 
L 25.640625 42.578125 
Q 20.75 54.78125 17.625 64.703125 
L 17.234375 64.703125 
Q 17.828125 48.921875 17.828125 39.890625 
L 17.828125 0.984375 
L 9.515625 0.984375 
L 9.515625 72.40625 
L 22.125 72.40625 
L 39.109375 30.375 
Q 42.140625 23 44.828125 14.15625 
L 45.125 14.15625 
Q 47.3125 22.125 50.53125 30.171875 
L 67.4375 72.40625 
L 80.421875 72.40625 
z
" id="IPAexGothic-77"/>
        <path d="M 49.3125 0.984375 
L 41.75 0.984375 
Q 39.984375 4.734375 39.546875 8.6875 
L 39.203125 8.6875 
Q 33.546875 -0.390625 22.3125 -0.390625 
Q 14.59375 -0.390625 9.71875 4.5 
Q 5.421875 8.796875 5.421875 14.984375 
Q 5.421875 30.421875 32.03125 31.203125 
L 38.71875 31.390625 
L 38.71875 33.984375 
Q 38.71875 39.203125 35.75 42.1875 
Q 32.625 45.3125 27.734375 45.3125 
Q 19.34375 45.3125 15.140625 37.15625 
L 7.71875 40.578125 
Q 14.65625 52 27.9375 52 
Q 37.109375 52 42.046875 46.875 
Q 46.625 42.28125 46.625 33.890625 
L 46.625 15.578125 
Q 46.625 6.25 49.3125 0.984375 
z
M 38.921875 25.390625 
L 33.453125 25.296875 
Q 14.109375 24.859375 14.109375 14.890625 
Q 14.109375 11.375 16.40625 9.078125 
Q 19.234375 6.296875 23.828125 6.296875 
Q 30.21875 6.296875 34.90625 10.984375 
Q 38.921875 15.140625 38.921875 21 
z
" id="IPAexGothic-97"/>
        <path d="M 36.078125 51.8125 
L 34.578125 43.265625 
Q 32.90625 43.609375 31.59375 43.609375 
Q 25.828125 43.609375 22.078125 38.1875 
Q 17.390625 31.34375 17.390625 26.171875 
L 17.390625 0.984375 
L 8.796875 0.984375 
L 8.796875 50.78125 
L 16.890625 50.78125 
L 16.5 35.984375 
L 16.703125 35.984375 
Q 22.21875 52.203125 32.765625 52.203125 
Q 34.46875 52.203125 36.078125 51.8125 
z
" id="IPAexGothic-114"/>
       </defs>
       <use xlink:href="#IPAexGothic-77"/>
       <use x="90.185547" xlink:href="#IPAexGothic-97"/>
       <use x="145.166016" xlink:href="#IPAexGothic-114"/>
      </g>
     </g>
    </g>
    <g id="xtick_4">
     <g id="line2d_4">
      <g>
       <use style="stroke:#000000;stroke-width:0.8;" x="188.779724" xlink:href="#ma897569f0d" y="284.258625"/>
      </g>
     </g>
     <g id="text_4">
      <!-- Apr -->
      <g transform="translate(180.637537 298.74925)scale(0.1 -0.1)">
       <defs>
        <path d="M 63.375 0.984375 
L 53.8125 0.984375 
L 45.90625 22.015625 
L 17.1875 22.015625 
L 9.421875 0.984375 
L -0.09375 0.984375 
L 28.21875 72.90625 
L 35.296875 72.90625 
z
M 43.40625 29.109375 
L 36.1875 48.09375 
Q 33.203125 56.0625 31.6875 62.5 
L 31.390625 62.5 
Q 29.640625 55.671875 26.8125 48.09375 
L 19.734375 29.109375 
z
" id="IPAexGothic-65"/>
        <path d="M 16.796875 42 
Q 23.828125 52.203125 34.46875 52.203125 
Q 43.265625 52.203125 49.5625 45.90625 
Q 56.890625 38.578125 56.890625 25.6875 
Q 56.890625 13.140625 49.65625 5.8125 
Q 43.359375 -0.484375 34.375 -0.484375 
Q 24.515625 -0.484375 17.28125 7.765625 
L 17.28125 -19 
L 8.796875 -19 
L 8.796875 50.78125 
L 16.796875 50.78125 
z
M 17.28125 30.46875 
L 17.28125 20.171875 
Q 17.28125 14.015625 23.6875 9.375 
Q 27.984375 6.296875 32.90625 6.296875 
Q 38.578125 6.296875 42.578125 10.296875 
Q 47.90625 15.578125 47.90625 25.484375 
Q 47.90625 34.375 43.5 39.984375 
Q 39.109375 45.3125 32.8125 45.3125 
Q 25.875 45.3125 20.90625 38.8125 
Q 17.28125 34.125 17.28125 30.46875 
z
" id="IPAexGothic-112"/>
       </defs>
       <use xlink:href="#IPAexGothic-65"/>
       <use x="63.720703" xlink:href="#IPAexGothic-112"/>
       <use x="125.830078" xlink:href="#IPAexGothic-114"/>
      </g>
     </g>
    </g>
    <g id="xtick_5">
     <g id="line2d_5">
      <g>
       <use style="stroke:#000000;stroke-width:0.8;" x="233.662841" xlink:href="#ma897569f0d" y="284.258625"/>
      </g>
     </g>
     <g id="text_5">
      <!-- May -->
      <g transform="translate(223.94331 298.74925)scale(0.1 -0.1)">
       <defs>
        <path d="M 48.78125 50.78125 
L 24.609375 -7.625 
Q 19.96875 -18.796875 8.59375 -18.796875 
L 7.46875 -18.796875 
L 5.375 -10.984375 
L 6.984375 -10.984375 
Q 15.140625 -10.984375 17.96875 -3.71875 
L 21.1875 4.296875 
L 0.59375 50.78125 
L 10.296875 50.78125 
L 21.296875 22.796875 
Q 23.875 16.015625 25.09375 12.203125 
L 25.390625 12.203125 
Q 27.34375 18.265625 29.109375 22.796875 
L 39.5 50.78125 
z
" id="IPAexGothic-121"/>
       </defs>
       <use xlink:href="#IPAexGothic-77"/>
       <use x="90.185547" xlink:href="#IPAexGothic-97"/>
       <use x="145.166016" xlink:href="#IPAexGothic-121"/>
      </g>
     </g>
    </g>
    <g id="xtick_6">
     <g id="line2d_6">
      <g>
       <use style="stroke:#000000;stroke-width:0.8;" x="280.042062" xlink:href="#ma897569f0d" y="284.258625"/>
      </g>
     </g>
     <g id="text_6">
      <!-- Jun -->
      <g transform="translate(272.102218 298.74925)scale(0.1 -0.1)">
       <defs>
        <path d="M 28.421875 72.40625 
L 28.421875 19.28125 
Q 28.421875 -0.484375 11.921875 -0.484375 
Q 4.734375 -0.484375 -1.953125 3.265625 
L 1.3125 10.0625 
Q 5.90625 6.984375 10.84375 6.984375 
Q 19.53125 6.984375 19.53125 18.796875 
L 19.53125 72.40625 
z
" id="IPAexGothic-74"/>
        <path d="M 51.3125 0.984375 
L 43.3125 0.984375 
L 43.3125 10.0625 
Q 35.9375 0 25.390625 0 
Q 16.75 0 11.921875 5.859375 
Q 8.109375 10.59375 8.109375 19.390625 
L 8.109375 50.78125 
L 16.703125 50.78125 
L 16.703125 19.671875 
Q 16.703125 7.28125 27.09375 7.28125 
Q 37.59375 7.28125 42.71875 20.171875 
L 42.71875 50.78125 
L 51.3125 50.78125 
z
" id="IPAexGothic-117"/>
        <path d="M 52 0.984375 
L 43.40625 0.984375 
L 43.40625 31.890625 
Q 43.40625 44.578125 32.90625 44.578125 
Q 22.3125 44.578125 17.390625 31.890625 
L 17.390625 0.984375 
L 8.796875 0.984375 
L 8.796875 50.78125 
L 16.796875 50.78125 
L 16.796875 41.796875 
Q 23.828125 51.8125 34.71875 51.8125 
Q 52 51.8125 52 32.375 
z
" id="IPAexGothic-110"/>
       </defs>
       <use xlink:href="#IPAexGothic-74"/>
       <use x="37.988281" xlink:href="#IPAexGothic-117"/>
       <use x="98.388672" xlink:href="#IPAexGothic-110"/>
      </g>
     </g>
    </g>
    <g id="xtick_7">
     <g id="line2d_7">
      <g>
       <use style="stroke:#000000;stroke-width:0.8;" x="324.925179" xlink:href="#ma897569f0d" y="284.258625"/>
      </g>
     </g>
     <g id="text_7">
      <!-- Jul -->
      <g transform="translate(318.655647 298.74925)scale(0.1 -0.1)">
       <defs>
        <path d="M 17.671875 0.984375 
L 9.078125 0.984375 
L 9.078125 74.90625 
L 17.671875 74.90625 
z
" id="IPAexGothic-108"/>
       </defs>
       <use xlink:href="#IPAexGothic-74"/>
       <use x="37.988281" xlink:href="#IPAexGothic-117"/>
       <use x="98.388672" xlink:href="#IPAexGothic-108"/>
      </g>
     </g>
    </g>
    <g id="xtick_8">
     <g id="line2d_8">
      <g>
       <use style="stroke:#000000;stroke-width:0.8;" x="371.304399" xlink:href="#ma897569f0d" y="284.258625"/>
      </g>
     </g>
     <g id="text_8">
      <!-- Aug -->
      <g transform="translate(362.322368 298.691437)scale(0.1 -0.1)">
       <defs>
        <path d="M 20.796875 17.96875 
Q 15.71875 17.53125 15.71875 14.0625 
Q 15.71875 9.578125 27.546875 8.984375 
L 33.296875 8.6875 
Q 51.609375 7.765625 51.609375 -4.59375 
Q 51.609375 -10.9375 45.703125 -14.984375 
Q 39.359375 -19.578125 28.03125 -19.578125 
Q 17.78125 -19.578125 11.53125 -16.0625 
Q 5.515625 -12.640625 5.515625 -6.6875 
Q 5.515625 1.3125 16.796875 3.859375 
L 16.796875 4.203125 
Q 7.90625 6.453125 7.90625 12.15625 
Q 7.90625 17.4375 15.53125 20.265625 
Q 7.125 24.609375 7.125 34.078125 
Q 7.125 41.40625 12.015625 46.296875 
Q 17.625 51.90625 27.15625 51.90625 
Q 33.203125 51.90625 37.84375 49.265625 
Q 41.40625 53.953125 50.921875 54.109375 
L 50.921875 47.078125 
Q 44.34375 46.921875 42.234375 45.90625 
Q 47.40625 40.828125 47.40625 33.890625 
Q 47.40625 27 42.71875 22.265625 
Q 37.5 17.09375 28.328125 17.09375 
Q 24.421875 17.09375 20.796875 17.96875 
z
M 27.09375 45.609375 
Q 22.015625 45.609375 18.703125 42.28125 
Q 15.4375 39.015625 15.4375 34.078125 
Q 15.4375 29.25 18.5 26.3125 
Q 21.828125 23 27.4375 23 
Q 32.71875 23 35.890625 26.21875 
Q 39.109375 29.390625 39.109375 34.421875 
Q 39.109375 39.015625 35.890625 42.1875 
Q 32.515625 45.609375 27.09375 45.609375 
z
M 27.390625 2.484375 
Q 14.109375 2.484375 14.109375 -5.71875 
Q 14.109375 -13.671875 28.125 -13.671875 
Q 37.15625 -13.671875 41.21875 -9.46875 
Q 43.3125 -7.515625 43.3125 -4.890625 
Q 43.3125 2.484375 27.390625 2.484375 
z
" id="IPAexGothic-103"/>
       </defs>
       <use xlink:href="#IPAexGothic-65"/>
       <use x="63.720703" xlink:href="#IPAexGothic-117"/>
       <use x="124.121094" xlink:href="#IPAexGothic-103"/>
      </g>
     </g>
    </g>
    <g id="text_9">
     <!-- 2020 -->
     <g transform="translate(371.32 311.139875)scale(0.1 -0.1)">
      <use xlink:href="#IPAexGothic-50"/>
      <use x="62.988281" xlink:href="#IPAexGothic-48"/>
      <use x="125.976562" xlink:href="#IPAexGothic-50"/>
      <use x="188.964844" xlink:href="#IPAexGothic-48"/>
     </g>
    </g>
   </g>
   <g id="matplotlib.axis_2">
    <g id="ytick_1">
     <g id="line2d_9">
      <defs>
       <path d="M 0 0 
L -3.5 0 
" id="m88ea39fb1a" style="stroke:#000000;stroke-width:0.8;"/>
      </defs>
      <g>
       <use style="stroke:#000000;stroke-width:0.8;" x="39.39375" xlink:href="#m88ea39fb1a" y="272.162625"/>
      </g>
     </g>
     <g id="text_10">
      <!-- 0 -->
      <g transform="translate(26.095313 275.907937)scale(0.1 -0.1)">
       <use xlink:href="#IPAexGothic-48"/>
      </g>
     </g>
    </g>
    <g id="ytick_2">
     <g id="line2d_10">
      <g>
       <use style="stroke:#000000;stroke-width:0.8;" x="39.39375" xlink:href="#m88ea39fb1a" y="242.035601"/>
      </g>
     </g>
     <g id="text_11">
      <!-- 200 -->
      <g transform="translate(13.498438 245.780914)scale(0.1 -0.1)">
       <use xlink:href="#IPAexGothic-50"/>
       <use x="62.988281" xlink:href="#IPAexGothic-48"/>
       <use x="125.976562" xlink:href="#IPAexGothic-48"/>
      </g>
     </g>
    </g>
    <g id="ytick_3">
     <g id="line2d_11">
      <g>
       <use style="stroke:#000000;stroke-width:0.8;" x="39.39375" xlink:href="#m88ea39fb1a" y="211.908578"/>
      </g>
     </g>
     <g id="text_12">
      <!-- 400 -->
      <g transform="translate(13.498438 215.65389)scale(0.1 -0.1)">
       <defs>
        <path d="M 59.578125 18.109375 
L 47.796875 18.109375 
L 47.796875 0.984375 
L 39.796875 0.984375 
L 39.796875 18.109375 
L 3.078125 18.109375 
L 3.078125 26.125 
L 38.375 73.09375 
L 47.796875 73.09375 
L 47.796875 25.53125 
L 59.578125 25.53125 
z
M 40.28125 64.203125 
L 39.984375 64.203125 
Q 35.59375 57.125 31.296875 51.3125 
L 11.859375 25.53125 
L 39.796875 25.53125 
L 39.796875 49.125 
Q 39.796875 54.390625 40.28125 64.203125 
z
" id="IPAexGothic-52"/>
       </defs>
       <use xlink:href="#IPAexGothic-52"/>
       <use x="62.988281" xlink:href="#IPAexGothic-48"/>
       <use x="125.976562" xlink:href="#IPAexGothic-48"/>
      </g>
     </g>
    </g>
    <g id="ytick_4">
     <g id="line2d_12">
      <g>
       <use style="stroke:#000000;stroke-width:0.8;" x="39.39375" xlink:href="#m88ea39fb1a" y="181.781554"/>
      </g>
     </g>
     <g id="text_13">
      <!-- 600 -->
      <g transform="translate(13.498438 185.526867)scale(0.1 -0.1)">
       <defs>
        <path d="M 16.5 36.375 
Q 23.578125 46.578125 34.90625 46.578125 
Q 45.40625 46.578125 51.8125 39.265625 
Q 57.421875 32.90625 57.421875 23.78125 
Q 57.421875 13.8125 51.125 6.78125 
Q 44.578125 -0.484375 34.03125 -0.484375 
Q 21.484375 -0.484375 14.40625 9.078125 
Q 7.515625 18.40625 7.515625 34.8125 
Q 7.515625 53.515625 15.828125 64.203125 
Q 23.34375 73.828125 35.5 73.828125 
Q 49.859375 73.828125 56.390625 62.890625 
L 49.21875 58.984375 
Q 45.21875 66.65625 35.9375 66.65625 
Q 17.484375 66.65625 16.109375 36.375 
z
M 33.453125 39.796875 
Q 26.3125 39.796875 21.625 34.46875 
Q 17.4375 29.6875 17.4375 24.078125 
Q 17.4375 18.0625 21.140625 13.1875 
Q 26.125 6.6875 33.734375 6.6875 
Q 41.703125 6.6875 45.953125 13.1875 
Q 48.828125 17.625 48.828125 23.484375 
Q 48.828125 30.375 45.015625 34.8125 
Q 40.625 39.796875 33.453125 39.796875 
z
" id="IPAexGothic-54"/>
       </defs>
       <use xlink:href="#IPAexGothic-54"/>
       <use x="62.988281" xlink:href="#IPAexGothic-48"/>
       <use x="125.976562" xlink:href="#IPAexGothic-48"/>
      </g>
     </g>
    </g>
    <g id="ytick_5">
     <g id="line2d_13">
      <g>
       <use style="stroke:#000000;stroke-width:0.8;" x="39.39375" xlink:href="#m88ea39fb1a" y="151.65453"/>
      </g>
     </g>
     <g id="text_14">
      <!-- 800 -->
      <g transform="translate(13.498438 155.399843)scale(0.1 -0.1)">
       <defs>
        <path d="M 39.703125 37.890625 
Q 57.8125 31.734375 57.8125 18.703125 
Q 57.8125 8.453125 48.4375 3.078125 
Q 41.609375 -0.875 31.5 -0.875 
Q 21.34375 -0.875 14.5 3.078125 
Q 5.421875 8.296875 5.421875 18.40625 
Q 5.421875 31.0625 22.015625 37.203125 
L 22.015625 37.5 
Q 7.515625 42.71875 7.515625 54.828125 
Q 7.515625 64.0625 15.328125 69.625 
Q 21.96875 74.3125 31.546875 74.3125 
Q 42.234375 74.3125 48.921875 68.796875 
Q 55.515625 63.578125 55.515625 55.71875 
Q 55.515625 42.28125 39.703125 38.1875 
z
M 31.59375 41.015625 
Q 46.828125 44.625 46.828125 55.125 
Q 46.828125 61.1875 41.796875 64.84375 
Q 37.703125 67.921875 31.5 67.921875 
Q 25.09375 67.921875 20.796875 64.5 
Q 16.40625 60.890625 16.40625 55.03125 
Q 16.40625 49.21875 21.09375 45.703125 
Q 23.34375 43.890625 26.90625 42.53125 
Q 31 40.875 31.59375 41.015625 
z
M 30.90625 34.515625 
Q 14.40625 30.171875 14.40625 19 
Q 14.40625 12.109375 20.515625 8.6875 
Q 25.09375 6.109375 31.390625 6.109375 
Q 40.234375 6.109375 45.015625 10.890625 
Q 48.53125 14.40625 48.53125 19.53125 
Q 48.53125 24.90625 43.65625 28.90625 
Q 40.765625 31.15625 36.71875 32.8125 
Q 31.984375 34.71875 30.90625 34.515625 
z
" id="IPAexGothic-56"/>
       </defs>
       <use xlink:href="#IPAexGothic-56"/>
       <use x="62.988281" xlink:href="#IPAexGothic-48"/>
       <use x="125.976562" xlink:href="#IPAexGothic-48"/>
      </g>
     </g>
    </g>
    <g id="ytick_6">
     <g id="line2d_14">
      <g>
       <use style="stroke:#000000;stroke-width:0.8;" x="39.39375" xlink:href="#m88ea39fb1a" y="121.527507"/>
      </g>
     </g>
     <g id="text_15">
      <!-- 1000 -->
      <g transform="translate(7.2 125.272819)scale(0.1 -0.1)">
       <defs>
        <path d="M 38.484375 0.984375 
L 29.6875 0.984375 
L 29.6875 64.109375 
Q 21.4375 61.28125 12.3125 59.328125 
L 10.6875 66.109375 
Q 23.734375 69.390625 32.90625 73.921875 
L 38.484375 73.921875 
z
" id="IPAexGothic-49"/>
       </defs>
       <use xlink:href="#IPAexGothic-49"/>
       <use x="62.988281" xlink:href="#IPAexGothic-48"/>
       <use x="125.976562" xlink:href="#IPAexGothic-48"/>
       <use x="188.964844" xlink:href="#IPAexGothic-48"/>
      </g>
     </g>
    </g>
    <g id="ytick_7">
     <g id="line2d_15">
      <g>
       <use style="stroke:#000000;stroke-width:0.8;" x="39.39375" xlink:href="#m88ea39fb1a" y="91.400483"/>
      </g>
     </g>
     <g id="text_16">
      <!-- 1200 -->
      <g transform="translate(7.2 95.145796)scale(0.1 -0.1)">
       <use xlink:href="#IPAexGothic-49"/>
       <use x="62.988281" xlink:href="#IPAexGothic-50"/>
       <use x="125.976562" xlink:href="#IPAexGothic-48"/>
       <use x="188.964844" xlink:href="#IPAexGothic-48"/>
      </g>
     </g>
    </g>
    <g id="ytick_8">
     <g id="line2d_16">
      <g>
       <use style="stroke:#000000;stroke-width:0.8;" x="39.39375" xlink:href="#m88ea39fb1a" y="61.273459"/>
      </g>
     </g>
     <g id="text_17">
      <!-- 1400 -->
      <g transform="translate(7.2 65.018772)scale(0.1 -0.1)">
       <use xlink:href="#IPAexGothic-49"/>
       <use x="62.988281" xlink:href="#IPAexGothic-52"/>
       <use x="125.976562" xlink:href="#IPAexGothic-48"/>
       <use x="188.964844" xlink:href="#IPAexGothic-48"/>
      </g>
     </g>
    </g>
    <g id="ytick_9">
     <g id="line2d_17">
      <g>
       <use style="stroke:#000000;stroke-width:0.8;" x="39.39375" xlink:href="#m88ea39fb1a" y="31.146436"/>
      </g>
     </g>
     <g id="text_18">
      <!-- 1600 -->
      <g transform="translate(7.2 34.891748)scale(0.1 -0.1)">
       <use xlink:href="#IPAexGothic-49"/>
       <use x="62.988281" xlink:href="#IPAexGothic-54"/>
       <use x="125.976562" xlink:href="#IPAexGothic-48"/>
       <use x="188.964844" xlink:href="#IPAexGothic-48"/>
      </g>
     </g>
    </g>
   </g>
   <g id="line2d_18">
    <path clip-path="url(#pc1e661617b)" d="M 55.626477 272.01199 
L 57.122581 272.162625 
L 70.587516 272.162625 
L 72.08362 271.861355 
L 73.579724 272.162625 
L 79.56414 272.162625 
L 81.060244 271.71072 
L 82.556347 272.01199 
L 84.052451 271.861355 
L 85.548555 272.01199 
L 87.044659 271.861355 
L 88.540763 271.861355 
L 90.036867 271.71072 
L 91.532971 272.162625 
L 94.525179 271.861355 
L 96.021282 272.01199 
L 97.517386 271.560085 
L 99.01349 271.71072 
L 100.509594 271.560085 
L 102.005698 270.957544 
L 104.997906 271.861355 
L 106.49401 271.258814 
L 107.990114 271.409449 
L 109.486218 271.861355 
L 110.982321 272.01199 
L 112.478425 270.806909 
L 113.974529 272.162625 
L 115.470633 271.108179 
L 116.966737 271.108179 
L 118.462841 270.806909 
L 119.958945 270.806909 
L 121.455049 269.903098 
L 122.951153 270.505639 
L 124.447256 270.053733 
L 125.94336 269.903098 
L 127.439464 268.848652 
L 128.935568 269.451193 
L 130.431672 269.149923 
L 131.927776 268.698017 
L 133.42388 268.396747 
L 134.919984 267.191666 
L 136.416088 267.643571 
L 137.912192 268.396747 
L 139.408295 266.739761 
L 140.904399 268.396747 
L 142.400503 268.095477 
L 143.896607 266.13722 
L 145.392711 268.396747 
L 146.888815 267.342301 
L 148.384919 267.794207 
L 149.881023 268.095477 
L 151.377127 266.438491 
L 152.873231 267.342301 
L 154.369334 265.53468 
L 155.865438 268.095477 
L 157.361542 266.13722 
L 158.857646 267.342301 
L 160.35375 265.384045 
L 161.849854 267.643571 
L 163.345958 267.191666 
L 164.842062 266.13722 
L 166.338166 264.480234 
L 167.834269 263.727058 
L 169.330373 261.166261 
L 170.826477 262.973883 
L 172.322581 261.166261 
L 173.818685 260.563721 
L 175.314789 255.894032 
L 176.810893 257.852289 
L 178.306997 255.140857 
L 179.803101 253.031965 
L 181.299205 239.776075 
L 182.795308 243.541953 
L 184.291412 243.391317 
L 185.787516 228.629076 
L 187.28362 228.930346 
L 188.779724 219.741604 
L 190.275828 228.930346 
L 191.771932 219.741604 
L 193.268036 228.17717 
L 194.76414 234.35321 
L 196.260244 224.411292 
L 197.756347 231.340508 
L 199.252451 230.436697 
L 200.748555 238.119088 
L 202.244659 235.407656 
L 203.740763 236.311467 
L 205.236867 242.939412 
L 206.732971 239.776075 
L 209.725179 241.884966 
L 211.221282 251.224344 
L 212.717386 249.115452 
L 214.21349 250.621803 
L 215.709594 254.839586 
L 217.205698 248.964817 
L 218.701802 256.345938 
L 220.197906 255.592762 
L 221.69401 260.864991 
L 223.190114 256.195302 
L 224.686218 261.316896 
L 226.182321 260.864991 
L 227.678425 259.509275 
L 229.174529 263.425788 
L 230.670633 264.630869 
L 232.166737 262.220707 
L 233.662841 264.028329 
L 235.158945 263.727058 
L 236.655049 266.890396 
L 238.151153 267.794207 
L 239.647256 267.041031 
L 241.14336 268.246112 
L 242.639464 267.794207 
L 244.135568 268.848652 
L 245.631672 269.451193 
L 247.127776 269.451193 
L 248.62388 269.300558 
L 250.119984 268.999288 
L 251.616088 270.053733 
L 253.112192 270.053733 
L 254.608295 269.451193 
L 256.104399 270.806909 
L 257.600503 270.053733 
L 259.096607 270.806909 
L 260.592711 269.601828 
L 262.088815 271.108179 
L 263.584919 270.505639 
L 265.081023 269.752463 
L 266.577127 270.656274 
L 268.073231 270.204368 
L 269.569334 271.258814 
L 271.065438 271.108179 
L 272.561542 270.656274 
L 274.057646 270.656274 
L 277.049854 271.560085 
L 278.545958 271.71072 
L 280.042062 270.505639 
L 283.034269 271.409449 
L 284.530373 271.258814 
L 286.026477 270.053733 
L 287.522581 270.505639 
L 289.018685 270.505639 
L 290.514789 270.957544 
L 292.010893 269.300558 
L 293.506997 270.204368 
L 295.003101 269.300558 
L 296.499205 271.108179 
L 297.995308 270.355004 
L 299.491412 269.903098 
L 300.987516 270.053733 
L 302.48362 270.806909 
L 303.979724 270.355004 
L 305.475828 269.752463 
L 306.971932 270.204368 
L 308.468036 270.053733 
L 309.96414 270.806909 
L 311.460244 267.191666 
L 312.956347 268.848652 
L 314.452451 267.191666 
L 315.948555 267.342301 
L 317.444659 268.095477 
L 318.940763 263.877693 
L 320.436867 267.342301 
L 321.932971 265.53468 
L 323.429075 264.630869 
L 324.925179 262.823248 
L 326.421282 263.877693 
L 329.41349 261.015626 
L 330.909594 260.563721 
L 332.405698 256.195302 
L 333.901802 256.496573 
L 335.397906 255.291492 
L 336.89401 251.826884 
L 338.390114 252.730695 
L 339.886218 250.320533 
L 341.382321 249.717992 
L 342.878425 239.92671 
L 344.374529 237.064642 
L 345.870633 235.407656 
L 347.366737 235.407656 
L 348.862841 229.382251 
L 350.358945 226.068279 
L 351.855049 227.57463 
L 353.351153 214.62001 
L 354.847256 210.552862 
L 356.34336 203.322376 
L 357.839464 200.761579 
L 359.335568 204.376822 
L 360.831672 206.485713 
L 362.327776 201.816025 
L 363.82388 188.258864 
L 365.319984 198.200782 
L 366.816088 201.66539 
L 368.312192 223.507482 
L 369.808295 232.545589 
L 371.304399 240.22798 
L 374.296607 258.756099 
L 375.792711 267.191666 
L 377.288815 270.806909 
L 378.784919 272.01199 
L 380.281023 272.162625 
L 380.281023 272.162625 
" style="fill:none;stroke:#1f77b4;stroke-linecap:square;stroke-width:1.5;"/>
    <defs>
     <path d="M 0 3 
C 0.795609 3 1.55874 2.683901 2.12132 2.12132 
C 2.683901 1.55874 3 0.795609 3 0 
C 3 -0.795609 2.683901 -1.55874 2.12132 -2.12132 
C 1.55874 -2.683901 0.795609 -3 0 -3 
C -0.795609 -3 -1.55874 -2.683901 -2.12132 -2.12132 
C -2.683901 -1.55874 -3 -0.795609 -3 0 
C -3 0.795609 -2.683901 1.55874 -2.12132 2.12132 
C -1.55874 2.683901 -0.795609 3 0 3 
z
" id="m85f589d811" style="stroke:#1f77b4;"/>
    </defs>
    <g clip-path="url(#pc1e661617b)">
     <use style="fill:#1f77b4;stroke:#1f77b4;" x="55.626477" xlink:href="#m85f589d811" y="272.01199"/>
     <use style="fill:#1f77b4;stroke:#1f77b4;" x="57.122581" xlink:href="#m85f589d811" y="272.162625"/>
     <use style="fill:#1f77b4;stroke:#1f77b4;" x="58.618685" xlink:href="#m85f589d811" y="272.162625"/>
     <use style="fill:#1f77b4;stroke:#1f77b4;" x="60.114789" xlink:href="#m85f589d811" y="272.162625"/>
     <use style="fill:#1f77b4;stroke:#1f77b4;" x="61.610893" xlink:href="#m85f589d811" y="272.162625"/>
     <use style="fill:#1f77b4;stroke:#1f77b4;" x="63.106997" xlink:href="#m85f589d811" y="272.162625"/>
     <use style="fill:#1f77b4;stroke:#1f77b4;" x="64.603101" xlink:href="#m85f589d811" y="272.162625"/>
     <use style="fill:#1f77b4;stroke:#1f77b4;" x="66.099205" xlink:href="#m85f589d811" y="272.162625"/>
     <use style="fill:#1f77b4;stroke:#1f77b4;" x="67.595308" xlink:href="#m85f589d811" y="272.162625"/>
     <use style="fill:#1f77b4;stroke:#1f77b4;" x="69.091412" xlink:href="#m85f589d811" y="272.162625"/>
     <use style="fill:#1f77b4;stroke:#1f77b4;" x="70.587516" xlink:href="#m85f589d811" y="272.162625"/>
     <use style="fill:#1f77b4;stroke:#1f77b4;" x="72.08362" xlink:href="#m85f589d811" y="271.861355"/>
     <use style="fill:#1f77b4;stroke:#1f77b4;" x="73.579724" xlink:href="#m85f589d811" y="272.162625"/>
     <use style="fill:#1f77b4;stroke:#1f77b4;" x="75.075828" xlink:href="#m85f589d811" y="272.162625"/>
     <use style="fill:#1f77b4;stroke:#1f77b4;" x="76.571932" xlink:href="#m85f589d811" y="272.162625"/>
     <use style="fill:#1f77b4;stroke:#1f77b4;" x="78.068036" xlink:href="#m85f589d811" y="272.162625"/>
     <use style="fill:#1f77b4;stroke:#1f77b4;" x="79.56414" xlink:href="#m85f589d811" y="272.162625"/>
     <use style="fill:#1f77b4;stroke:#1f77b4;" x="81.060244" xlink:href="#m85f589d811" y="271.71072"/>
     <use style="fill:#1f77b4;stroke:#1f77b4;" x="82.556347" xlink:href="#m85f589d811" y="272.01199"/>
     <use style="fill:#1f77b4;stroke:#1f77b4;" x="84.052451" xlink:href="#m85f589d811" y="271.861355"/>
     <use style="fill:#1f77b4;stroke:#1f77b4;" x="85.548555" xlink:href="#m85f589d811" y="272.01199"/>
     <use style="fill:#1f77b4;stroke:#1f77b4;" x="87.044659" xlink:href="#m85f589d811" y="271.861355"/>
     <use style="fill:#1f77b4;stroke:#1f77b4;" x="88.540763" xlink:href="#m85f589d811" y="271.861355"/>
     <use style="fill:#1f77b4;stroke:#1f77b4;" x="90.036867" xlink:href="#m85f589d811" y="271.71072"/>
     <use style="fill:#1f77b4;stroke:#1f77b4;" x="91.532971" xlink:href="#m85f589d811" y="272.162625"/>
     <use style="fill:#1f77b4;stroke:#1f77b4;" x="93.029075" xlink:href="#m85f589d811" y="272.01199"/>
     <use style="fill:#1f77b4;stroke:#1f77b4;" x="94.525179" xlink:href="#m85f589d811" y="271.861355"/>
     <use style="fill:#1f77b4;stroke:#1f77b4;" x="96.021282" xlink:href="#m85f589d811" y="272.01199"/>
     <use style="fill:#1f77b4;stroke:#1f77b4;" x="97.517386" xlink:href="#m85f589d811" y="271.560085"/>
     <use style="fill:#1f77b4;stroke:#1f77b4;" x="99.01349" xlink:href="#m85f589d811" y="271.71072"/>
     <use style="fill:#1f77b4;stroke:#1f77b4;" x="100.509594" xlink:href="#m85f589d811" y="271.560085"/>
     <use style="fill:#1f77b4;stroke:#1f77b4;" x="102.005698" xlink:href="#m85f589d811" y="270.957544"/>
     <use style="fill:#1f77b4;stroke:#1f77b4;" x="103.501802" xlink:href="#m85f589d811" y="271.409449"/>
     <use style="fill:#1f77b4;stroke:#1f77b4;" x="104.997906" xlink:href="#m85f589d811" y="271.861355"/>
     <use style="fill:#1f77b4;stroke:#1f77b4;" x="106.49401" xlink:href="#m85f589d811" y="271.258814"/>
     <use style="fill:#1f77b4;stroke:#1f77b4;" x="107.990114" xlink:href="#m85f589d811" y="271.409449"/>
     <use style="fill:#1f77b4;stroke:#1f77b4;" x="109.486218" xlink:href="#m85f589d811" y="271.861355"/>
     <use style="fill:#1f77b4;stroke:#1f77b4;" x="110.982321" xlink:href="#m85f589d811" y="272.01199"/>
     <use style="fill:#1f77b4;stroke:#1f77b4;" x="112.478425" xlink:href="#m85f589d811" y="270.806909"/>
     <use style="fill:#1f77b4;stroke:#1f77b4;" x="113.974529" xlink:href="#m85f589d811" y="272.162625"/>
     <use style="fill:#1f77b4;stroke:#1f77b4;" x="115.470633" xlink:href="#m85f589d811" y="271.108179"/>
     <use style="fill:#1f77b4;stroke:#1f77b4;" x="116.966737" xlink:href="#m85f589d811" y="271.108179"/>
     <use style="fill:#1f77b4;stroke:#1f77b4;" x="118.462841" xlink:href="#m85f589d811" y="270.806909"/>
     <use style="fill:#1f77b4;stroke:#1f77b4;" x="119.958945" xlink:href="#m85f589d811" y="270.806909"/>
     <use style="fill:#1f77b4;stroke:#1f77b4;" x="121.455049" xlink:href="#m85f589d811" y="269.903098"/>
     <use style="fill:#1f77b4;stroke:#1f77b4;" x="122.951153" xlink:href="#m85f589d811" y="270.505639"/>
     <use style="fill:#1f77b4;stroke:#1f77b4;" x="124.447256" xlink:href="#m85f589d811" y="270.053733"/>
     <use style="fill:#1f77b4;stroke:#1f77b4;" x="125.94336" xlink:href="#m85f589d811" y="269.903098"/>
     <use style="fill:#1f77b4;stroke:#1f77b4;" x="127.439464" xlink:href="#m85f589d811" y="268.848652"/>
     <use style="fill:#1f77b4;stroke:#1f77b4;" x="128.935568" xlink:href="#m85f589d811" y="269.451193"/>
     <use style="fill:#1f77b4;stroke:#1f77b4;" x="130.431672" xlink:href="#m85f589d811" y="269.149923"/>
     <use style="fill:#1f77b4;stroke:#1f77b4;" x="131.927776" xlink:href="#m85f589d811" y="268.698017"/>
     <use style="fill:#1f77b4;stroke:#1f77b4;" x="133.42388" xlink:href="#m85f589d811" y="268.396747"/>
     <use style="fill:#1f77b4;stroke:#1f77b4;" x="134.919984" xlink:href="#m85f589d811" y="267.191666"/>
     <use style="fill:#1f77b4;stroke:#1f77b4;" x="136.416088" xlink:href="#m85f589d811" y="267.643571"/>
     <use style="fill:#1f77b4;stroke:#1f77b4;" x="137.912192" xlink:href="#m85f589d811" y="268.396747"/>
     <use style="fill:#1f77b4;stroke:#1f77b4;" x="139.408295" xlink:href="#m85f589d811" y="266.739761"/>
     <use style="fill:#1f77b4;stroke:#1f77b4;" x="140.904399" xlink:href="#m85f589d811" y="268.396747"/>
     <use style="fill:#1f77b4;stroke:#1f77b4;" x="142.400503" xlink:href="#m85f589d811" y="268.095477"/>
     <use style="fill:#1f77b4;stroke:#1f77b4;" x="143.896607" xlink:href="#m85f589d811" y="266.13722"/>
     <use style="fill:#1f77b4;stroke:#1f77b4;" x="145.392711" xlink:href="#m85f589d811" y="268.396747"/>
     <use style="fill:#1f77b4;stroke:#1f77b4;" x="146.888815" xlink:href="#m85f589d811" y="267.342301"/>
     <use style="fill:#1f77b4;stroke:#1f77b4;" x="148.384919" xlink:href="#m85f589d811" y="267.794207"/>
     <use style="fill:#1f77b4;stroke:#1f77b4;" x="149.881023" xlink:href="#m85f589d811" y="268.095477"/>
     <use style="fill:#1f77b4;stroke:#1f77b4;" x="151.377127" xlink:href="#m85f589d811" y="266.438491"/>
     <use style="fill:#1f77b4;stroke:#1f77b4;" x="152.873231" xlink:href="#m85f589d811" y="267.342301"/>
     <use style="fill:#1f77b4;stroke:#1f77b4;" x="154.369334" xlink:href="#m85f589d811" y="265.53468"/>
     <use style="fill:#1f77b4;stroke:#1f77b4;" x="155.865438" xlink:href="#m85f589d811" y="268.095477"/>
     <use style="fill:#1f77b4;stroke:#1f77b4;" x="157.361542" xlink:href="#m85f589d811" y="266.13722"/>
     <use style="fill:#1f77b4;stroke:#1f77b4;" x="158.857646" xlink:href="#m85f589d811" y="267.342301"/>
     <use style="fill:#1f77b4;stroke:#1f77b4;" x="160.35375" xlink:href="#m85f589d811" y="265.384045"/>
     <use style="fill:#1f77b4;stroke:#1f77b4;" x="161.849854" xlink:href="#m85f589d811" y="267.643571"/>
     <use style="fill:#1f77b4;stroke:#1f77b4;" x="163.345958" xlink:href="#m85f589d811" y="267.191666"/>
     <use style="fill:#1f77b4;stroke:#1f77b4;" x="164.842062" xlink:href="#m85f589d811" y="266.13722"/>
     <use style="fill:#1f77b4;stroke:#1f77b4;" x="166.338166" xlink:href="#m85f589d811" y="264.480234"/>
     <use style="fill:#1f77b4;stroke:#1f77b4;" x="167.834269" xlink:href="#m85f589d811" y="263.727058"/>
     <use style="fill:#1f77b4;stroke:#1f77b4;" x="169.330373" xlink:href="#m85f589d811" y="261.166261"/>
     <use style="fill:#1f77b4;stroke:#1f77b4;" x="170.826477" xlink:href="#m85f589d811" y="262.973883"/>
     <use style="fill:#1f77b4;stroke:#1f77b4;" x="172.322581" xlink:href="#m85f589d811" y="261.166261"/>
     <use style="fill:#1f77b4;stroke:#1f77b4;" x="173.818685" xlink:href="#m85f589d811" y="260.563721"/>
     <use style="fill:#1f77b4;stroke:#1f77b4;" x="175.314789" xlink:href="#m85f589d811" y="255.894032"/>
     <use style="fill:#1f77b4;stroke:#1f77b4;" x="176.810893" xlink:href="#m85f589d811" y="257.852289"/>
     <use style="fill:#1f77b4;stroke:#1f77b4;" x="178.306997" xlink:href="#m85f589d811" y="255.140857"/>
     <use style="fill:#1f77b4;stroke:#1f77b4;" x="179.803101" xlink:href="#m85f589d811" y="253.031965"/>
     <use style="fill:#1f77b4;stroke:#1f77b4;" x="181.299205" xlink:href="#m85f589d811" y="239.776075"/>
     <use style="fill:#1f77b4;stroke:#1f77b4;" x="182.795308" xlink:href="#m85f589d811" y="243.541953"/>
     <use style="fill:#1f77b4;stroke:#1f77b4;" x="184.291412" xlink:href="#m85f589d811" y="243.391317"/>
     <use style="fill:#1f77b4;stroke:#1f77b4;" x="185.787516" xlink:href="#m85f589d811" y="228.629076"/>
     <use style="fill:#1f77b4;stroke:#1f77b4;" x="187.28362" xlink:href="#m85f589d811" y="228.930346"/>
     <use style="fill:#1f77b4;stroke:#1f77b4;" x="188.779724" xlink:href="#m85f589d811" y="219.741604"/>
     <use style="fill:#1f77b4;stroke:#1f77b4;" x="190.275828" xlink:href="#m85f589d811" y="228.930346"/>
     <use style="fill:#1f77b4;stroke:#1f77b4;" x="191.771932" xlink:href="#m85f589d811" y="219.741604"/>
     <use style="fill:#1f77b4;stroke:#1f77b4;" x="193.268036" xlink:href="#m85f589d811" y="228.17717"/>
     <use style="fill:#1f77b4;stroke:#1f77b4;" x="194.76414" xlink:href="#m85f589d811" y="234.35321"/>
     <use style="fill:#1f77b4;stroke:#1f77b4;" x="196.260244" xlink:href="#m85f589d811" y="224.411292"/>
     <use style="fill:#1f77b4;stroke:#1f77b4;" x="197.756347" xlink:href="#m85f589d811" y="231.340508"/>
     <use style="fill:#1f77b4;stroke:#1f77b4;" x="199.252451" xlink:href="#m85f589d811" y="230.436697"/>
     <use style="fill:#1f77b4;stroke:#1f77b4;" x="200.748555" xlink:href="#m85f589d811" y="238.119088"/>
     <use style="fill:#1f77b4;stroke:#1f77b4;" x="202.244659" xlink:href="#m85f589d811" y="235.407656"/>
     <use style="fill:#1f77b4;stroke:#1f77b4;" x="203.740763" xlink:href="#m85f589d811" y="236.311467"/>
     <use style="fill:#1f77b4;stroke:#1f77b4;" x="205.236867" xlink:href="#m85f589d811" y="242.939412"/>
     <use style="fill:#1f77b4;stroke:#1f77b4;" x="206.732971" xlink:href="#m85f589d811" y="239.776075"/>
     <use style="fill:#1f77b4;stroke:#1f77b4;" x="208.229075" xlink:href="#m85f589d811" y="240.83052"/>
     <use style="fill:#1f77b4;stroke:#1f77b4;" x="209.725179" xlink:href="#m85f589d811" y="241.884966"/>
     <use style="fill:#1f77b4;stroke:#1f77b4;" x="211.221282" xlink:href="#m85f589d811" y="251.224344"/>
     <use style="fill:#1f77b4;stroke:#1f77b4;" x="212.717386" xlink:href="#m85f589d811" y="249.115452"/>
     <use style="fill:#1f77b4;stroke:#1f77b4;" x="214.21349" xlink:href="#m85f589d811" y="250.621803"/>
     <use style="fill:#1f77b4;stroke:#1f77b4;" x="215.709594" xlink:href="#m85f589d811" y="254.839586"/>
     <use style="fill:#1f77b4;stroke:#1f77b4;" x="217.205698" xlink:href="#m85f589d811" y="248.964817"/>
     <use style="fill:#1f77b4;stroke:#1f77b4;" x="218.701802" xlink:href="#m85f589d811" y="256.345938"/>
     <use style="fill:#1f77b4;stroke:#1f77b4;" x="220.197906" xlink:href="#m85f589d811" y="255.592762"/>
     <use style="fill:#1f77b4;stroke:#1f77b4;" x="221.69401" xlink:href="#m85f589d811" y="260.864991"/>
     <use style="fill:#1f77b4;stroke:#1f77b4;" x="223.190114" xlink:href="#m85f589d811" y="256.195302"/>
     <use style="fill:#1f77b4;stroke:#1f77b4;" x="224.686218" xlink:href="#m85f589d811" y="261.316896"/>
     <use style="fill:#1f77b4;stroke:#1f77b4;" x="226.182321" xlink:href="#m85f589d811" y="260.864991"/>
     <use style="fill:#1f77b4;stroke:#1f77b4;" x="227.678425" xlink:href="#m85f589d811" y="259.509275"/>
     <use style="fill:#1f77b4;stroke:#1f77b4;" x="229.174529" xlink:href="#m85f589d811" y="263.425788"/>
     <use style="fill:#1f77b4;stroke:#1f77b4;" x="230.670633" xlink:href="#m85f589d811" y="264.630869"/>
     <use style="fill:#1f77b4;stroke:#1f77b4;" x="232.166737" xlink:href="#m85f589d811" y="262.220707"/>
     <use style="fill:#1f77b4;stroke:#1f77b4;" x="233.662841" xlink:href="#m85f589d811" y="264.028329"/>
     <use style="fill:#1f77b4;stroke:#1f77b4;" x="235.158945" xlink:href="#m85f589d811" y="263.727058"/>
     <use style="fill:#1f77b4;stroke:#1f77b4;" x="236.655049" xlink:href="#m85f589d811" y="266.890396"/>
     <use style="fill:#1f77b4;stroke:#1f77b4;" x="238.151153" xlink:href="#m85f589d811" y="267.794207"/>
     <use style="fill:#1f77b4;stroke:#1f77b4;" x="239.647256" xlink:href="#m85f589d811" y="267.041031"/>
     <use style="fill:#1f77b4;stroke:#1f77b4;" x="241.14336" xlink:href="#m85f589d811" y="268.246112"/>
     <use style="fill:#1f77b4;stroke:#1f77b4;" x="242.639464" xlink:href="#m85f589d811" y="267.794207"/>
     <use style="fill:#1f77b4;stroke:#1f77b4;" x="244.135568" xlink:href="#m85f589d811" y="268.848652"/>
     <use style="fill:#1f77b4;stroke:#1f77b4;" x="245.631672" xlink:href="#m85f589d811" y="269.451193"/>
     <use style="fill:#1f77b4;stroke:#1f77b4;" x="247.127776" xlink:href="#m85f589d811" y="269.451193"/>
     <use style="fill:#1f77b4;stroke:#1f77b4;" x="248.62388" xlink:href="#m85f589d811" y="269.300558"/>
     <use style="fill:#1f77b4;stroke:#1f77b4;" x="250.119984" xlink:href="#m85f589d811" y="268.999288"/>
     <use style="fill:#1f77b4;stroke:#1f77b4;" x="251.616088" xlink:href="#m85f589d811" y="270.053733"/>
     <use style="fill:#1f77b4;stroke:#1f77b4;" x="253.112192" xlink:href="#m85f589d811" y="270.053733"/>
     <use style="fill:#1f77b4;stroke:#1f77b4;" x="254.608295" xlink:href="#m85f589d811" y="269.451193"/>
     <use style="fill:#1f77b4;stroke:#1f77b4;" x="256.104399" xlink:href="#m85f589d811" y="270.806909"/>
     <use style="fill:#1f77b4;stroke:#1f77b4;" x="257.600503" xlink:href="#m85f589d811" y="270.053733"/>
     <use style="fill:#1f77b4;stroke:#1f77b4;" x="259.096607" xlink:href="#m85f589d811" y="270.806909"/>
     <use style="fill:#1f77b4;stroke:#1f77b4;" x="260.592711" xlink:href="#m85f589d811" y="269.601828"/>
     <use style="fill:#1f77b4;stroke:#1f77b4;" x="262.088815" xlink:href="#m85f589d811" y="271.108179"/>
     <use style="fill:#1f77b4;stroke:#1f77b4;" x="263.584919" xlink:href="#m85f589d811" y="270.505639"/>
     <use style="fill:#1f77b4;stroke:#1f77b4;" x="265.081023" xlink:href="#m85f589d811" y="269.752463"/>
     <use style="fill:#1f77b4;stroke:#1f77b4;" x="266.577127" xlink:href="#m85f589d811" y="270.656274"/>
     <use style="fill:#1f77b4;stroke:#1f77b4;" x="268.073231" xlink:href="#m85f589d811" y="270.204368"/>
     <use style="fill:#1f77b4;stroke:#1f77b4;" x="269.569334" xlink:href="#m85f589d811" y="271.258814"/>
     <use style="fill:#1f77b4;stroke:#1f77b4;" x="271.065438" xlink:href="#m85f589d811" y="271.108179"/>
     <use style="fill:#1f77b4;stroke:#1f77b4;" x="272.561542" xlink:href="#m85f589d811" y="270.656274"/>
     <use style="fill:#1f77b4;stroke:#1f77b4;" x="274.057646" xlink:href="#m85f589d811" y="270.656274"/>
     <use style="fill:#1f77b4;stroke:#1f77b4;" x="275.55375" xlink:href="#m85f589d811" y="271.108179"/>
     <use style="fill:#1f77b4;stroke:#1f77b4;" x="277.049854" xlink:href="#m85f589d811" y="271.560085"/>
     <use style="fill:#1f77b4;stroke:#1f77b4;" x="278.545958" xlink:href="#m85f589d811" y="271.71072"/>
     <use style="fill:#1f77b4;stroke:#1f77b4;" x="280.042062" xlink:href="#m85f589d811" y="270.505639"/>
     <use style="fill:#1f77b4;stroke:#1f77b4;" x="281.538166" xlink:href="#m85f589d811" y="270.957544"/>
     <use style="fill:#1f77b4;stroke:#1f77b4;" x="283.034269" xlink:href="#m85f589d811" y="271.409449"/>
     <use style="fill:#1f77b4;stroke:#1f77b4;" x="284.530373" xlink:href="#m85f589d811" y="271.258814"/>
     <use style="fill:#1f77b4;stroke:#1f77b4;" x="286.026477" xlink:href="#m85f589d811" y="270.053733"/>
     <use style="fill:#1f77b4;stroke:#1f77b4;" x="287.522581" xlink:href="#m85f589d811" y="270.505639"/>
     <use style="fill:#1f77b4;stroke:#1f77b4;" x="289.018685" xlink:href="#m85f589d811" y="270.505639"/>
     <use style="fill:#1f77b4;stroke:#1f77b4;" x="290.514789" xlink:href="#m85f589d811" y="270.957544"/>
     <use style="fill:#1f77b4;stroke:#1f77b4;" x="292.010893" xlink:href="#m85f589d811" y="269.300558"/>
     <use style="fill:#1f77b4;stroke:#1f77b4;" x="293.506997" xlink:href="#m85f589d811" y="270.204368"/>
     <use style="fill:#1f77b4;stroke:#1f77b4;" x="295.003101" xlink:href="#m85f589d811" y="269.300558"/>
     <use style="fill:#1f77b4;stroke:#1f77b4;" x="296.499205" xlink:href="#m85f589d811" y="271.108179"/>
     <use style="fill:#1f77b4;stroke:#1f77b4;" x="297.995308" xlink:href="#m85f589d811" y="270.355004"/>
     <use style="fill:#1f77b4;stroke:#1f77b4;" x="299.491412" xlink:href="#m85f589d811" y="269.903098"/>
     <use style="fill:#1f77b4;stroke:#1f77b4;" x="300.987516" xlink:href="#m85f589d811" y="270.053733"/>
     <use style="fill:#1f77b4;stroke:#1f77b4;" x="302.48362" xlink:href="#m85f589d811" y="270.806909"/>
     <use style="fill:#1f77b4;stroke:#1f77b4;" x="303.979724" xlink:href="#m85f589d811" y="270.355004"/>
     <use style="fill:#1f77b4;stroke:#1f77b4;" x="305.475828" xlink:href="#m85f589d811" y="269.752463"/>
     <use style="fill:#1f77b4;stroke:#1f77b4;" x="306.971932" xlink:href="#m85f589d811" y="270.204368"/>
     <use style="fill:#1f77b4;stroke:#1f77b4;" x="308.468036" xlink:href="#m85f589d811" y="270.053733"/>
     <use style="fill:#1f77b4;stroke:#1f77b4;" x="309.96414" xlink:href="#m85f589d811" y="270.806909"/>
     <use style="fill:#1f77b4;stroke:#1f77b4;" x="311.460244" xlink:href="#m85f589d811" y="267.191666"/>
     <use style="fill:#1f77b4;stroke:#1f77b4;" x="312.956347" xlink:href="#m85f589d811" y="268.848652"/>
     <use style="fill:#1f77b4;stroke:#1f77b4;" x="314.452451" xlink:href="#m85f589d811" y="267.191666"/>
     <use style="fill:#1f77b4;stroke:#1f77b4;" x="315.948555" xlink:href="#m85f589d811" y="267.342301"/>
     <use style="fill:#1f77b4;stroke:#1f77b4;" x="317.444659" xlink:href="#m85f589d811" y="268.095477"/>
     <use style="fill:#1f77b4;stroke:#1f77b4;" x="318.940763" xlink:href="#m85f589d811" y="263.877693"/>
     <use style="fill:#1f77b4;stroke:#1f77b4;" x="320.436867" xlink:href="#m85f589d811" y="267.342301"/>
     <use style="fill:#1f77b4;stroke:#1f77b4;" x="321.932971" xlink:href="#m85f589d811" y="265.53468"/>
     <use style="fill:#1f77b4;stroke:#1f77b4;" x="323.429075" xlink:href="#m85f589d811" y="264.630869"/>
     <use style="fill:#1f77b4;stroke:#1f77b4;" x="324.925179" xlink:href="#m85f589d811" y="262.823248"/>
     <use style="fill:#1f77b4;stroke:#1f77b4;" x="326.421282" xlink:href="#m85f589d811" y="263.877693"/>
     <use style="fill:#1f77b4;stroke:#1f77b4;" x="327.917386" xlink:href="#m85f589d811" y="262.371342"/>
     <use style="fill:#1f77b4;stroke:#1f77b4;" x="329.41349" xlink:href="#m85f589d811" y="261.015626"/>
     <use style="fill:#1f77b4;stroke:#1f77b4;" x="330.909594" xlink:href="#m85f589d811" y="260.563721"/>
     <use style="fill:#1f77b4;stroke:#1f77b4;" x="332.405698" xlink:href="#m85f589d811" y="256.195302"/>
     <use style="fill:#1f77b4;stroke:#1f77b4;" x="333.901802" xlink:href="#m85f589d811" y="256.496573"/>
     <use style="fill:#1f77b4;stroke:#1f77b4;" x="335.397906" xlink:href="#m85f589d811" y="255.291492"/>
     <use style="fill:#1f77b4;stroke:#1f77b4;" x="336.89401" xlink:href="#m85f589d811" y="251.826884"/>
     <use style="fill:#1f77b4;stroke:#1f77b4;" x="338.390114" xlink:href="#m85f589d811" y="252.730695"/>
     <use style="fill:#1f77b4;stroke:#1f77b4;" x="339.886218" xlink:href="#m85f589d811" y="250.320533"/>
     <use style="fill:#1f77b4;stroke:#1f77b4;" x="341.382321" xlink:href="#m85f589d811" y="249.717992"/>
     <use style="fill:#1f77b4;stroke:#1f77b4;" x="342.878425" xlink:href="#m85f589d811" y="239.92671"/>
     <use style="fill:#1f77b4;stroke:#1f77b4;" x="344.374529" xlink:href="#m85f589d811" y="237.064642"/>
     <use style="fill:#1f77b4;stroke:#1f77b4;" x="345.870633" xlink:href="#m85f589d811" y="235.407656"/>
     <use style="fill:#1f77b4;stroke:#1f77b4;" x="347.366737" xlink:href="#m85f589d811" y="235.407656"/>
     <use style="fill:#1f77b4;stroke:#1f77b4;" x="348.862841" xlink:href="#m85f589d811" y="229.382251"/>
     <use style="fill:#1f77b4;stroke:#1f77b4;" x="350.358945" xlink:href="#m85f589d811" y="226.068279"/>
     <use style="fill:#1f77b4;stroke:#1f77b4;" x="351.855049" xlink:href="#m85f589d811" y="227.57463"/>
     <use style="fill:#1f77b4;stroke:#1f77b4;" x="353.351153" xlink:href="#m85f589d811" y="214.62001"/>
     <use style="fill:#1f77b4;stroke:#1f77b4;" x="354.847256" xlink:href="#m85f589d811" y="210.552862"/>
     <use style="fill:#1f77b4;stroke:#1f77b4;" x="356.34336" xlink:href="#m85f589d811" y="203.322376"/>
     <use style="fill:#1f77b4;stroke:#1f77b4;" x="357.839464" xlink:href="#m85f589d811" y="200.761579"/>
     <use style="fill:#1f77b4;stroke:#1f77b4;" x="359.335568" xlink:href="#m85f589d811" y="204.376822"/>
     <use style="fill:#1f77b4;stroke:#1f77b4;" x="360.831672" xlink:href="#m85f589d811" y="206.485713"/>
     <use style="fill:#1f77b4;stroke:#1f77b4;" x="362.327776" xlink:href="#m85f589d811" y="201.816025"/>
     <use style="fill:#1f77b4;stroke:#1f77b4;" x="363.82388" xlink:href="#m85f589d811" y="188.258864"/>
     <use style="fill:#1f77b4;stroke:#1f77b4;" x="365.319984" xlink:href="#m85f589d811" y="198.200782"/>
     <use style="fill:#1f77b4;stroke:#1f77b4;" x="366.816088" xlink:href="#m85f589d811" y="201.66539"/>
     <use style="fill:#1f77b4;stroke:#1f77b4;" x="368.312192" xlink:href="#m85f589d811" y="223.507482"/>
     <use style="fill:#1f77b4;stroke:#1f77b4;" x="369.808295" xlink:href="#m85f589d811" y="232.545589"/>
     <use style="fill:#1f77b4;stroke:#1f77b4;" x="371.304399" xlink:href="#m85f589d811" y="240.22798"/>
     <use style="fill:#1f77b4;stroke:#1f77b4;" x="372.800503" xlink:href="#m85f589d811" y="249.717992"/>
     <use style="fill:#1f77b4;stroke:#1f77b4;" x="374.296607" xlink:href="#m85f589d811" y="258.756099"/>
     <use style="fill:#1f77b4;stroke:#1f77b4;" x="375.792711" xlink:href="#m85f589d811" y="267.191666"/>
     <use style="fill:#1f77b4;stroke:#1f77b4;" x="377.288815" xlink:href="#m85f589d811" y="270.806909"/>
     <use style="fill:#1f77b4;stroke:#1f77b4;" x="378.784919" xlink:href="#m85f589d811" y="272.01199"/>
     <use style="fill:#1f77b4;stroke:#1f77b4;" x="380.281023" xlink:href="#m85f589d811" y="272.162625"/>
    </g>
   </g>
   <g id="line2d_19">
    <path clip-path="url(#pc1e661617b)" d="M 55.626477 272.162625 
L 72.08362 272.162625 
L 73.579724 272.01199 
L 75.075828 272.162625 
L 85.548555 272.162625 
L 87.044659 272.01199 
L 90.036867 272.01199 
L 91.532971 272.162625 
L 93.029075 271.71072 
L 94.525179 272.01199 
L 96.021282 271.258814 
L 97.517386 271.861355 
L 99.01349 271.71072 
L 100.509594 272.162625 
L 102.005698 272.162625 
L 103.501802 271.560085 
L 106.49401 272.162625 
L 107.990114 272.01199 
L 109.486218 272.162625 
L 110.982321 272.162625 
L 112.478425 271.861355 
L 115.470633 272.162625 
L 119.958945 270.355004 
L 121.455049 271.258814 
L 122.951153 271.108179 
L 124.447256 270.656274 
L 125.94336 270.806909 
L 127.439464 270.806909 
L 128.935568 269.601828 
L 130.431672 268.246112 
L 131.927776 270.656274 
L 133.42388 270.355004 
L 134.919984 269.903098 
L 136.416088 269.601828 
L 137.912192 268.396747 
L 139.408295 269.149923 
L 140.904399 270.957544 
L 142.400503 270.053733 
L 145.392711 269.149923 
L 146.888815 266.739761 
L 148.384919 266.739761 
L 149.881023 263.576423 
L 151.377127 266.438491 
L 152.873231 266.589126 
L 154.369334 268.246112 
L 155.865438 261.768802 
L 158.857646 265.384045 
L 160.35375 265.986585 
L 161.849854 264.028329 
L 163.345958 267.643571 
L 164.842062 269.300558 
L 166.338166 265.23341 
L 167.834269 265.53468 
L 169.330373 265.23341 
L 170.826477 265.384045 
L 172.322581 265.685315 
L 173.818685 265.685315 
L 175.314789 266.438491 
L 176.810893 260.111816 
L 178.306997 258.304194 
L 179.803101 257.249748 
L 181.299205 253.1826 
L 182.795308 241.131791 
L 184.291412 248.211641 
L 185.787516 249.717992 
L 187.28362 236.612737 
L 188.779724 230.135427 
L 190.275828 228.026535 
L 191.771932 219.892239 
L 193.268036 213.264294 
L 194.76414 226.520184 
L 196.260244 232.545589 
L 197.756347 200.159038 
L 199.252451 200.008403 
L 200.748555 175.454879 
L 202.244659 176.05742 
L 203.740763 167.471218 
L 205.236867 203.021106 
L 206.732971 225.013833 
L 208.229075 193.531093 
L 209.725179 184.191716 
L 211.221282 192.024742 
L 212.717386 187.204418 
L 214.21349 186.903148 
L 215.709594 222.151766 
L 217.205698 217.632712 
L 218.701802 210.100956 
L 220.197906 205.883173 
L 221.69401 207.992065 
L 223.190114 205.581903 
L 224.686218 217.331442 
L 226.182321 240.981156 
L 227.678425 246.10275 
L 229.174529 228.17717 
L 230.670633 239.324169 
L 232.166737 244.747033 
L 233.662841 228.779711 
L 235.158945 226.670819 
L 236.655049 244.144493 
L 239.647256 254.688951 
L 241.14336 257.852289 
L 242.639464 258.605464 
L 244.135568 257.249748 
L 245.631672 255.291492 
L 247.127776 261.919437 
L 248.62388 266.890396 
L 250.119984 260.864991 
L 251.616088 260.714356 
L 253.112192 259.96118 
L 254.608295 263.124518 
L 256.104399 265.83595 
L 257.600503 268.246112 
L 259.096607 268.999288 
L 260.592711 265.384045 
L 262.088815 267.492936 
L 263.584919 266.438491 
L 265.081023 267.342301 
L 266.577127 268.547382 
L 268.073231 267.794207 
L 269.569334 268.246112 
L 271.065438 268.246112 
L 272.561542 265.53468 
L 274.057646 265.082774 
L 275.55375 259.208005 
L 277.049854 265.685315 
L 278.545958 268.095477 
L 280.042062 266.589126 
L 281.538166 264.480234 
L 283.034269 267.643571 
L 284.530373 263.877693 
L 287.522581 265.986585 
L 289.018685 267.191666 
L 290.514789 267.944842 
L 292.010893 265.53468 
L 293.506997 265.986585 
L 295.003101 265.082774 
L 296.499205 263.727058 
L 297.995308 266.13722 
L 299.491412 261.166261 
L 300.987516 261.166261 
L 302.48362 264.480234 
L 303.979724 266.287855 
L 305.475828 262.220707 
L 306.971932 263.124518 
L 308.468036 262.521977 
L 309.96414 264.329599 
L 311.460244 265.384045 
L 312.956347 262.220707 
L 314.452451 256.948478 
L 315.948555 260.413086 
L 317.444659 257.249748 
L 318.940763 256.496573 
L 320.436867 256.647208 
L 321.932971 254.086411 
L 323.429075 250.923073 
L 324.925179 251.977519 
L 326.421282 240.981156 
L 327.917386 235.859561 
L 329.41349 231.340508 
L 330.909594 242.638142 
L 332.405698 243.541953 
L 333.901802 235.859561 
L 335.397906 243.843223 
L 336.89401 215.373185 
L 338.390114 209.498416 
L 339.886218 211.757943 
L 341.382321 220.79605 
L 342.878425 231.189873 
L 344.374529 220.645415 
L 345.870633 202.26793 
L 347.366737 179.672662 
L 348.862841 175.605514 
L 350.358945 180.275203 
L 351.855049 202.117295 
L 353.351153 199.104593 
L 354.847256 176.65996 
L 356.34336 143.218964 
L 357.839464 135.837843 
L 359.335568 156.324219 
L 360.831672 148.792463 
L 362.327776 156.776124 
L 363.82388 171.689001 
L 365.319984 110.380508 
L 366.816088 79.199038 
L 368.312192 75.43316 
L 369.808295 30.242625 
L 371.304399 73.173634 
L 372.800503 106.9159 
L 374.296607 151.202625 
L 375.792711 137.042924 
L 377.288815 155.119138 
L 380.281023 202.5692 
L 380.281023 202.5692 
" style="fill:none;stroke:#ff7f0e;stroke-linecap:square;stroke-width:1.5;"/>
    <defs>
     <path d="M 0 3 
C 0.795609 3 1.55874 2.683901 2.12132 2.12132 
C 2.683901 1.55874 3 0.795609 3 0 
C 3 -0.795609 2.683901 -1.55874 2.12132 -2.12132 
C 1.55874 -2.683901 0.795609 -3 0 -3 
C -0.795609 -3 -1.55874 -2.683901 -2.12132 -2.12132 
C -2.683901 -1.55874 -3 -0.795609 -3 0 
C -3 0.795609 -2.683901 1.55874 -2.12132 2.12132 
C -1.55874 2.683901 -0.795609 3 0 3 
z
" id="m4d6f4ddf7d" style="stroke:#ff7f0e;"/>
    </defs>
    <g clip-path="url(#pc1e661617b)">
     <use style="fill:#ff7f0e;stroke:#ff7f0e;" x="55.626477" xlink:href="#m4d6f4ddf7d" y="272.162625"/>
     <use style="fill:#ff7f0e;stroke:#ff7f0e;" x="57.122581" xlink:href="#m4d6f4ddf7d" y="272.162625"/>
     <use style="fill:#ff7f0e;stroke:#ff7f0e;" x="58.618685" xlink:href="#m4d6f4ddf7d" y="272.162625"/>
     <use style="fill:#ff7f0e;stroke:#ff7f0e;" x="60.114789" xlink:href="#m4d6f4ddf7d" y="272.162625"/>
     <use style="fill:#ff7f0e;stroke:#ff7f0e;" x="61.610893" xlink:href="#m4d6f4ddf7d" y="272.162625"/>
     <use style="fill:#ff7f0e;stroke:#ff7f0e;" x="63.106997" xlink:href="#m4d6f4ddf7d" y="272.162625"/>
     <use style="fill:#ff7f0e;stroke:#ff7f0e;" x="64.603101" xlink:href="#m4d6f4ddf7d" y="272.162625"/>
     <use style="fill:#ff7f0e;stroke:#ff7f0e;" x="66.099205" xlink:href="#m4d6f4ddf7d" y="272.162625"/>
     <use style="fill:#ff7f0e;stroke:#ff7f0e;" x="67.595308" xlink:href="#m4d6f4ddf7d" y="272.162625"/>
     <use style="fill:#ff7f0e;stroke:#ff7f0e;" x="69.091412" xlink:href="#m4d6f4ddf7d" y="272.162625"/>
     <use style="fill:#ff7f0e;stroke:#ff7f0e;" x="70.587516" xlink:href="#m4d6f4ddf7d" y="272.162625"/>
     <use style="fill:#ff7f0e;stroke:#ff7f0e;" x="72.08362" xlink:href="#m4d6f4ddf7d" y="272.162625"/>
     <use style="fill:#ff7f0e;stroke:#ff7f0e;" x="73.579724" xlink:href="#m4d6f4ddf7d" y="272.01199"/>
     <use style="fill:#ff7f0e;stroke:#ff7f0e;" x="75.075828" xlink:href="#m4d6f4ddf7d" y="272.162625"/>
     <use style="fill:#ff7f0e;stroke:#ff7f0e;" x="76.571932" xlink:href="#m4d6f4ddf7d" y="272.162625"/>
     <use style="fill:#ff7f0e;stroke:#ff7f0e;" x="78.068036" xlink:href="#m4d6f4ddf7d" y="272.162625"/>
     <use style="fill:#ff7f0e;stroke:#ff7f0e;" x="79.56414" xlink:href="#m4d6f4ddf7d" y="272.162625"/>
     <use style="fill:#ff7f0e;stroke:#ff7f0e;" x="81.060244" xlink:href="#m4d6f4ddf7d" y="272.162625"/>
     <use style="fill:#ff7f0e;stroke:#ff7f0e;" x="82.556347" xlink:href="#m4d6f4ddf7d" y="272.162625"/>
     <use style="fill:#ff7f0e;stroke:#ff7f0e;" x="84.052451" xlink:href="#m4d6f4ddf7d" y="272.162625"/>
     <use style="fill:#ff7f0e;stroke:#ff7f0e;" x="85.548555" xlink:href="#m4d6f4ddf7d" y="272.162625"/>
     <use style="fill:#ff7f0e;stroke:#ff7f0e;" x="87.044659" xlink:href="#m4d6f4ddf7d" y="272.01199"/>
     <use style="fill:#ff7f0e;stroke:#ff7f0e;" x="88.540763" xlink:href="#m4d6f4ddf7d" y="272.01199"/>
     <use style="fill:#ff7f0e;stroke:#ff7f0e;" x="90.036867" xlink:href="#m4d6f4ddf7d" y="272.01199"/>
     <use style="fill:#ff7f0e;stroke:#ff7f0e;" x="91.532971" xlink:href="#m4d6f4ddf7d" y="272.162625"/>
     <use style="fill:#ff7f0e;stroke:#ff7f0e;" x="93.029075" xlink:href="#m4d6f4ddf7d" y="271.71072"/>
     <use style="fill:#ff7f0e;stroke:#ff7f0e;" x="94.525179" xlink:href="#m4d6f4ddf7d" y="272.01199"/>
     <use style="fill:#ff7f0e;stroke:#ff7f0e;" x="96.021282" xlink:href="#m4d6f4ddf7d" y="271.258814"/>
     <use style="fill:#ff7f0e;stroke:#ff7f0e;" x="97.517386" xlink:href="#m4d6f4ddf7d" y="271.861355"/>
     <use style="fill:#ff7f0e;stroke:#ff7f0e;" x="99.01349" xlink:href="#m4d6f4ddf7d" y="271.71072"/>
     <use style="fill:#ff7f0e;stroke:#ff7f0e;" x="100.509594" xlink:href="#m4d6f4ddf7d" y="272.162625"/>
     <use style="fill:#ff7f0e;stroke:#ff7f0e;" x="102.005698" xlink:href="#m4d6f4ddf7d" y="272.162625"/>
     <use style="fill:#ff7f0e;stroke:#ff7f0e;" x="103.501802" xlink:href="#m4d6f4ddf7d" y="271.560085"/>
     <use style="fill:#ff7f0e;stroke:#ff7f0e;" x="104.997906" xlink:href="#m4d6f4ddf7d" y="271.861355"/>
     <use style="fill:#ff7f0e;stroke:#ff7f0e;" x="106.49401" xlink:href="#m4d6f4ddf7d" y="272.162625"/>
     <use style="fill:#ff7f0e;stroke:#ff7f0e;" x="107.990114" xlink:href="#m4d6f4ddf7d" y="272.01199"/>
     <use style="fill:#ff7f0e;stroke:#ff7f0e;" x="109.486218" xlink:href="#m4d6f4ddf7d" y="272.162625"/>
     <use style="fill:#ff7f0e;stroke:#ff7f0e;" x="110.982321" xlink:href="#m4d6f4ddf7d" y="272.162625"/>
     <use style="fill:#ff7f0e;stroke:#ff7f0e;" x="112.478425" xlink:href="#m4d6f4ddf7d" y="271.861355"/>
     <use style="fill:#ff7f0e;stroke:#ff7f0e;" x="113.974529" xlink:href="#m4d6f4ddf7d" y="272.01199"/>
     <use style="fill:#ff7f0e;stroke:#ff7f0e;" x="115.470633" xlink:href="#m4d6f4ddf7d" y="272.162625"/>
     <use style="fill:#ff7f0e;stroke:#ff7f0e;" x="116.966737" xlink:href="#m4d6f4ddf7d" y="271.560085"/>
     <use style="fill:#ff7f0e;stroke:#ff7f0e;" x="118.462841" xlink:href="#m4d6f4ddf7d" y="270.957544"/>
     <use style="fill:#ff7f0e;stroke:#ff7f0e;" x="119.958945" xlink:href="#m4d6f4ddf7d" y="270.355004"/>
     <use style="fill:#ff7f0e;stroke:#ff7f0e;" x="121.455049" xlink:href="#m4d6f4ddf7d" y="271.258814"/>
     <use style="fill:#ff7f0e;stroke:#ff7f0e;" x="122.951153" xlink:href="#m4d6f4ddf7d" y="271.108179"/>
     <use style="fill:#ff7f0e;stroke:#ff7f0e;" x="124.447256" xlink:href="#m4d6f4ddf7d" y="270.656274"/>
     <use style="fill:#ff7f0e;stroke:#ff7f0e;" x="125.94336" xlink:href="#m4d6f4ddf7d" y="270.806909"/>
     <use style="fill:#ff7f0e;stroke:#ff7f0e;" x="127.439464" xlink:href="#m4d6f4ddf7d" y="270.806909"/>
     <use style="fill:#ff7f0e;stroke:#ff7f0e;" x="128.935568" xlink:href="#m4d6f4ddf7d" y="269.601828"/>
     <use style="fill:#ff7f0e;stroke:#ff7f0e;" x="130.431672" xlink:href="#m4d6f4ddf7d" y="268.246112"/>
     <use style="fill:#ff7f0e;stroke:#ff7f0e;" x="131.927776" xlink:href="#m4d6f4ddf7d" y="270.656274"/>
     <use style="fill:#ff7f0e;stroke:#ff7f0e;" x="133.42388" xlink:href="#m4d6f4ddf7d" y="270.355004"/>
     <use style="fill:#ff7f0e;stroke:#ff7f0e;" x="134.919984" xlink:href="#m4d6f4ddf7d" y="269.903098"/>
     <use style="fill:#ff7f0e;stroke:#ff7f0e;" x="136.416088" xlink:href="#m4d6f4ddf7d" y="269.601828"/>
     <use style="fill:#ff7f0e;stroke:#ff7f0e;" x="137.912192" xlink:href="#m4d6f4ddf7d" y="268.396747"/>
     <use style="fill:#ff7f0e;stroke:#ff7f0e;" x="139.408295" xlink:href="#m4d6f4ddf7d" y="269.149923"/>
     <use style="fill:#ff7f0e;stroke:#ff7f0e;" x="140.904399" xlink:href="#m4d6f4ddf7d" y="270.957544"/>
     <use style="fill:#ff7f0e;stroke:#ff7f0e;" x="142.400503" xlink:href="#m4d6f4ddf7d" y="270.053733"/>
     <use style="fill:#ff7f0e;stroke:#ff7f0e;" x="143.896607" xlink:href="#m4d6f4ddf7d" y="269.601828"/>
     <use style="fill:#ff7f0e;stroke:#ff7f0e;" x="145.392711" xlink:href="#m4d6f4ddf7d" y="269.149923"/>
     <use style="fill:#ff7f0e;stroke:#ff7f0e;" x="146.888815" xlink:href="#m4d6f4ddf7d" y="266.739761"/>
     <use style="fill:#ff7f0e;stroke:#ff7f0e;" x="148.384919" xlink:href="#m4d6f4ddf7d" y="266.739761"/>
     <use style="fill:#ff7f0e;stroke:#ff7f0e;" x="149.881023" xlink:href="#m4d6f4ddf7d" y="263.576423"/>
     <use style="fill:#ff7f0e;stroke:#ff7f0e;" x="151.377127" xlink:href="#m4d6f4ddf7d" y="266.438491"/>
     <use style="fill:#ff7f0e;stroke:#ff7f0e;" x="152.873231" xlink:href="#m4d6f4ddf7d" y="266.589126"/>
     <use style="fill:#ff7f0e;stroke:#ff7f0e;" x="154.369334" xlink:href="#m4d6f4ddf7d" y="268.246112"/>
     <use style="fill:#ff7f0e;stroke:#ff7f0e;" x="155.865438" xlink:href="#m4d6f4ddf7d" y="261.768802"/>
     <use style="fill:#ff7f0e;stroke:#ff7f0e;" x="157.361542" xlink:href="#m4d6f4ddf7d" y="263.576423"/>
     <use style="fill:#ff7f0e;stroke:#ff7f0e;" x="158.857646" xlink:href="#m4d6f4ddf7d" y="265.384045"/>
     <use style="fill:#ff7f0e;stroke:#ff7f0e;" x="160.35375" xlink:href="#m4d6f4ddf7d" y="265.986585"/>
     <use style="fill:#ff7f0e;stroke:#ff7f0e;" x="161.849854" xlink:href="#m4d6f4ddf7d" y="264.028329"/>
     <use style="fill:#ff7f0e;stroke:#ff7f0e;" x="163.345958" xlink:href="#m4d6f4ddf7d" y="267.643571"/>
     <use style="fill:#ff7f0e;stroke:#ff7f0e;" x="164.842062" xlink:href="#m4d6f4ddf7d" y="269.300558"/>
     <use style="fill:#ff7f0e;stroke:#ff7f0e;" x="166.338166" xlink:href="#m4d6f4ddf7d" y="265.23341"/>
     <use style="fill:#ff7f0e;stroke:#ff7f0e;" x="167.834269" xlink:href="#m4d6f4ddf7d" y="265.53468"/>
     <use style="fill:#ff7f0e;stroke:#ff7f0e;" x="169.330373" xlink:href="#m4d6f4ddf7d" y="265.23341"/>
     <use style="fill:#ff7f0e;stroke:#ff7f0e;" x="170.826477" xlink:href="#m4d6f4ddf7d" y="265.384045"/>
     <use style="fill:#ff7f0e;stroke:#ff7f0e;" x="172.322581" xlink:href="#m4d6f4ddf7d" y="265.685315"/>
     <use style="fill:#ff7f0e;stroke:#ff7f0e;" x="173.818685" xlink:href="#m4d6f4ddf7d" y="265.685315"/>
     <use style="fill:#ff7f0e;stroke:#ff7f0e;" x="175.314789" xlink:href="#m4d6f4ddf7d" y="266.438491"/>
     <use style="fill:#ff7f0e;stroke:#ff7f0e;" x="176.810893" xlink:href="#m4d6f4ddf7d" y="260.111816"/>
     <use style="fill:#ff7f0e;stroke:#ff7f0e;" x="178.306997" xlink:href="#m4d6f4ddf7d" y="258.304194"/>
     <use style="fill:#ff7f0e;stroke:#ff7f0e;" x="179.803101" xlink:href="#m4d6f4ddf7d" y="257.249748"/>
     <use style="fill:#ff7f0e;stroke:#ff7f0e;" x="181.299205" xlink:href="#m4d6f4ddf7d" y="253.1826"/>
     <use style="fill:#ff7f0e;stroke:#ff7f0e;" x="182.795308" xlink:href="#m4d6f4ddf7d" y="241.131791"/>
     <use style="fill:#ff7f0e;stroke:#ff7f0e;" x="184.291412" xlink:href="#m4d6f4ddf7d" y="248.211641"/>
     <use style="fill:#ff7f0e;stroke:#ff7f0e;" x="185.787516" xlink:href="#m4d6f4ddf7d" y="249.717992"/>
     <use style="fill:#ff7f0e;stroke:#ff7f0e;" x="187.28362" xlink:href="#m4d6f4ddf7d" y="236.612737"/>
     <use style="fill:#ff7f0e;stroke:#ff7f0e;" x="188.779724" xlink:href="#m4d6f4ddf7d" y="230.135427"/>
     <use style="fill:#ff7f0e;stroke:#ff7f0e;" x="190.275828" xlink:href="#m4d6f4ddf7d" y="228.026535"/>
     <use style="fill:#ff7f0e;stroke:#ff7f0e;" x="191.771932" xlink:href="#m4d6f4ddf7d" y="219.892239"/>
     <use style="fill:#ff7f0e;stroke:#ff7f0e;" x="193.268036" xlink:href="#m4d6f4ddf7d" y="213.264294"/>
     <use style="fill:#ff7f0e;stroke:#ff7f0e;" x="194.76414" xlink:href="#m4d6f4ddf7d" y="226.520184"/>
     <use style="fill:#ff7f0e;stroke:#ff7f0e;" x="196.260244" xlink:href="#m4d6f4ddf7d" y="232.545589"/>
     <use style="fill:#ff7f0e;stroke:#ff7f0e;" x="197.756347" xlink:href="#m4d6f4ddf7d" y="200.159038"/>
     <use style="fill:#ff7f0e;stroke:#ff7f0e;" x="199.252451" xlink:href="#m4d6f4ddf7d" y="200.008403"/>
     <use style="fill:#ff7f0e;stroke:#ff7f0e;" x="200.748555" xlink:href="#m4d6f4ddf7d" y="175.454879"/>
     <use style="fill:#ff7f0e;stroke:#ff7f0e;" x="202.244659" xlink:href="#m4d6f4ddf7d" y="176.05742"/>
     <use style="fill:#ff7f0e;stroke:#ff7f0e;" x="203.740763" xlink:href="#m4d6f4ddf7d" y="167.471218"/>
     <use style="fill:#ff7f0e;stroke:#ff7f0e;" x="205.236867" xlink:href="#m4d6f4ddf7d" y="203.021106"/>
     <use style="fill:#ff7f0e;stroke:#ff7f0e;" x="206.732971" xlink:href="#m4d6f4ddf7d" y="225.013833"/>
     <use style="fill:#ff7f0e;stroke:#ff7f0e;" x="208.229075" xlink:href="#m4d6f4ddf7d" y="193.531093"/>
     <use style="fill:#ff7f0e;stroke:#ff7f0e;" x="209.725179" xlink:href="#m4d6f4ddf7d" y="184.191716"/>
     <use style="fill:#ff7f0e;stroke:#ff7f0e;" x="211.221282" xlink:href="#m4d6f4ddf7d" y="192.024742"/>
     <use style="fill:#ff7f0e;stroke:#ff7f0e;" x="212.717386" xlink:href="#m4d6f4ddf7d" y="187.204418"/>
     <use style="fill:#ff7f0e;stroke:#ff7f0e;" x="214.21349" xlink:href="#m4d6f4ddf7d" y="186.903148"/>
     <use style="fill:#ff7f0e;stroke:#ff7f0e;" x="215.709594" xlink:href="#m4d6f4ddf7d" y="222.151766"/>
     <use style="fill:#ff7f0e;stroke:#ff7f0e;" x="217.205698" xlink:href="#m4d6f4ddf7d" y="217.632712"/>
     <use style="fill:#ff7f0e;stroke:#ff7f0e;" x="218.701802" xlink:href="#m4d6f4ddf7d" y="210.100956"/>
     <use style="fill:#ff7f0e;stroke:#ff7f0e;" x="220.197906" xlink:href="#m4d6f4ddf7d" y="205.883173"/>
     <use style="fill:#ff7f0e;stroke:#ff7f0e;" x="221.69401" xlink:href="#m4d6f4ddf7d" y="207.992065"/>
     <use style="fill:#ff7f0e;stroke:#ff7f0e;" x="223.190114" xlink:href="#m4d6f4ddf7d" y="205.581903"/>
     <use style="fill:#ff7f0e;stroke:#ff7f0e;" x="224.686218" xlink:href="#m4d6f4ddf7d" y="217.331442"/>
     <use style="fill:#ff7f0e;stroke:#ff7f0e;" x="226.182321" xlink:href="#m4d6f4ddf7d" y="240.981156"/>
     <use style="fill:#ff7f0e;stroke:#ff7f0e;" x="227.678425" xlink:href="#m4d6f4ddf7d" y="246.10275"/>
     <use style="fill:#ff7f0e;stroke:#ff7f0e;" x="229.174529" xlink:href="#m4d6f4ddf7d" y="228.17717"/>
     <use style="fill:#ff7f0e;stroke:#ff7f0e;" x="230.670633" xlink:href="#m4d6f4ddf7d" y="239.324169"/>
     <use style="fill:#ff7f0e;stroke:#ff7f0e;" x="232.166737" xlink:href="#m4d6f4ddf7d" y="244.747033"/>
     <use style="fill:#ff7f0e;stroke:#ff7f0e;" x="233.662841" xlink:href="#m4d6f4ddf7d" y="228.779711"/>
     <use style="fill:#ff7f0e;stroke:#ff7f0e;" x="235.158945" xlink:href="#m4d6f4ddf7d" y="226.670819"/>
     <use style="fill:#ff7f0e;stroke:#ff7f0e;" x="236.655049" xlink:href="#m4d6f4ddf7d" y="244.144493"/>
     <use style="fill:#ff7f0e;stroke:#ff7f0e;" x="238.151153" xlink:href="#m4d6f4ddf7d" y="249.416722"/>
     <use style="fill:#ff7f0e;stroke:#ff7f0e;" x="239.647256" xlink:href="#m4d6f4ddf7d" y="254.688951"/>
     <use style="fill:#ff7f0e;stroke:#ff7f0e;" x="241.14336" xlink:href="#m4d6f4ddf7d" y="257.852289"/>
     <use style="fill:#ff7f0e;stroke:#ff7f0e;" x="242.639464" xlink:href="#m4d6f4ddf7d" y="258.605464"/>
     <use style="fill:#ff7f0e;stroke:#ff7f0e;" x="244.135568" xlink:href="#m4d6f4ddf7d" y="257.249748"/>
     <use style="fill:#ff7f0e;stroke:#ff7f0e;" x="245.631672" xlink:href="#m4d6f4ddf7d" y="255.291492"/>
     <use style="fill:#ff7f0e;stroke:#ff7f0e;" x="247.127776" xlink:href="#m4d6f4ddf7d" y="261.919437"/>
     <use style="fill:#ff7f0e;stroke:#ff7f0e;" x="248.62388" xlink:href="#m4d6f4ddf7d" y="266.890396"/>
     <use style="fill:#ff7f0e;stroke:#ff7f0e;" x="250.119984" xlink:href="#m4d6f4ddf7d" y="260.864991"/>
     <use style="fill:#ff7f0e;stroke:#ff7f0e;" x="251.616088" xlink:href="#m4d6f4ddf7d" y="260.714356"/>
     <use style="fill:#ff7f0e;stroke:#ff7f0e;" x="253.112192" xlink:href="#m4d6f4ddf7d" y="259.96118"/>
     <use style="fill:#ff7f0e;stroke:#ff7f0e;" x="254.608295" xlink:href="#m4d6f4ddf7d" y="263.124518"/>
     <use style="fill:#ff7f0e;stroke:#ff7f0e;" x="256.104399" xlink:href="#m4d6f4ddf7d" y="265.83595"/>
     <use style="fill:#ff7f0e;stroke:#ff7f0e;" x="257.600503" xlink:href="#m4d6f4ddf7d" y="268.246112"/>
     <use style="fill:#ff7f0e;stroke:#ff7f0e;" x="259.096607" xlink:href="#m4d6f4ddf7d" y="268.999288"/>
     <use style="fill:#ff7f0e;stroke:#ff7f0e;" x="260.592711" xlink:href="#m4d6f4ddf7d" y="265.384045"/>
     <use style="fill:#ff7f0e;stroke:#ff7f0e;" x="262.088815" xlink:href="#m4d6f4ddf7d" y="267.492936"/>
     <use style="fill:#ff7f0e;stroke:#ff7f0e;" x="263.584919" xlink:href="#m4d6f4ddf7d" y="266.438491"/>
     <use style="fill:#ff7f0e;stroke:#ff7f0e;" x="265.081023" xlink:href="#m4d6f4ddf7d" y="267.342301"/>
     <use style="fill:#ff7f0e;stroke:#ff7f0e;" x="266.577127" xlink:href="#m4d6f4ddf7d" y="268.547382"/>
     <use style="fill:#ff7f0e;stroke:#ff7f0e;" x="268.073231" xlink:href="#m4d6f4ddf7d" y="267.794207"/>
     <use style="fill:#ff7f0e;stroke:#ff7f0e;" x="269.569334" xlink:href="#m4d6f4ddf7d" y="268.246112"/>
     <use style="fill:#ff7f0e;stroke:#ff7f0e;" x="271.065438" xlink:href="#m4d6f4ddf7d" y="268.246112"/>
     <use style="fill:#ff7f0e;stroke:#ff7f0e;" x="272.561542" xlink:href="#m4d6f4ddf7d" y="265.53468"/>
     <use style="fill:#ff7f0e;stroke:#ff7f0e;" x="274.057646" xlink:href="#m4d6f4ddf7d" y="265.082774"/>
     <use style="fill:#ff7f0e;stroke:#ff7f0e;" x="275.55375" xlink:href="#m4d6f4ddf7d" y="259.208005"/>
     <use style="fill:#ff7f0e;stroke:#ff7f0e;" x="277.049854" xlink:href="#m4d6f4ddf7d" y="265.685315"/>
     <use style="fill:#ff7f0e;stroke:#ff7f0e;" x="278.545958" xlink:href="#m4d6f4ddf7d" y="268.095477"/>
     <use style="fill:#ff7f0e;stroke:#ff7f0e;" x="280.042062" xlink:href="#m4d6f4ddf7d" y="266.589126"/>
     <use style="fill:#ff7f0e;stroke:#ff7f0e;" x="281.538166" xlink:href="#m4d6f4ddf7d" y="264.480234"/>
     <use style="fill:#ff7f0e;stroke:#ff7f0e;" x="283.034269" xlink:href="#m4d6f4ddf7d" y="267.643571"/>
     <use style="fill:#ff7f0e;stroke:#ff7f0e;" x="284.530373" xlink:href="#m4d6f4ddf7d" y="263.877693"/>
     <use style="fill:#ff7f0e;stroke:#ff7f0e;" x="286.026477" xlink:href="#m4d6f4ddf7d" y="264.932139"/>
     <use style="fill:#ff7f0e;stroke:#ff7f0e;" x="287.522581" xlink:href="#m4d6f4ddf7d" y="265.986585"/>
     <use style="fill:#ff7f0e;stroke:#ff7f0e;" x="289.018685" xlink:href="#m4d6f4ddf7d" y="267.191666"/>
     <use style="fill:#ff7f0e;stroke:#ff7f0e;" x="290.514789" xlink:href="#m4d6f4ddf7d" y="267.944842"/>
     <use style="fill:#ff7f0e;stroke:#ff7f0e;" x="292.010893" xlink:href="#m4d6f4ddf7d" y="265.53468"/>
     <use style="fill:#ff7f0e;stroke:#ff7f0e;" x="293.506997" xlink:href="#m4d6f4ddf7d" y="265.986585"/>
     <use style="fill:#ff7f0e;stroke:#ff7f0e;" x="295.003101" xlink:href="#m4d6f4ddf7d" y="265.082774"/>
     <use style="fill:#ff7f0e;stroke:#ff7f0e;" x="296.499205" xlink:href="#m4d6f4ddf7d" y="263.727058"/>
     <use style="fill:#ff7f0e;stroke:#ff7f0e;" x="297.995308" xlink:href="#m4d6f4ddf7d" y="266.13722"/>
     <use style="fill:#ff7f0e;stroke:#ff7f0e;" x="299.491412" xlink:href="#m4d6f4ddf7d" y="261.166261"/>
     <use style="fill:#ff7f0e;stroke:#ff7f0e;" x="300.987516" xlink:href="#m4d6f4ddf7d" y="261.166261"/>
     <use style="fill:#ff7f0e;stroke:#ff7f0e;" x="302.48362" xlink:href="#m4d6f4ddf7d" y="264.480234"/>
     <use style="fill:#ff7f0e;stroke:#ff7f0e;" x="303.979724" xlink:href="#m4d6f4ddf7d" y="266.287855"/>
     <use style="fill:#ff7f0e;stroke:#ff7f0e;" x="305.475828" xlink:href="#m4d6f4ddf7d" y="262.220707"/>
     <use style="fill:#ff7f0e;stroke:#ff7f0e;" x="306.971932" xlink:href="#m4d6f4ddf7d" y="263.124518"/>
     <use style="fill:#ff7f0e;stroke:#ff7f0e;" x="308.468036" xlink:href="#m4d6f4ddf7d" y="262.521977"/>
     <use style="fill:#ff7f0e;stroke:#ff7f0e;" x="309.96414" xlink:href="#m4d6f4ddf7d" y="264.329599"/>
     <use style="fill:#ff7f0e;stroke:#ff7f0e;" x="311.460244" xlink:href="#m4d6f4ddf7d" y="265.384045"/>
     <use style="fill:#ff7f0e;stroke:#ff7f0e;" x="312.956347" xlink:href="#m4d6f4ddf7d" y="262.220707"/>
     <use style="fill:#ff7f0e;stroke:#ff7f0e;" x="314.452451" xlink:href="#m4d6f4ddf7d" y="256.948478"/>
     <use style="fill:#ff7f0e;stroke:#ff7f0e;" x="315.948555" xlink:href="#m4d6f4ddf7d" y="260.413086"/>
     <use style="fill:#ff7f0e;stroke:#ff7f0e;" x="317.444659" xlink:href="#m4d6f4ddf7d" y="257.249748"/>
     <use style="fill:#ff7f0e;stroke:#ff7f0e;" x="318.940763" xlink:href="#m4d6f4ddf7d" y="256.496573"/>
     <use style="fill:#ff7f0e;stroke:#ff7f0e;" x="320.436867" xlink:href="#m4d6f4ddf7d" y="256.647208"/>
     <use style="fill:#ff7f0e;stroke:#ff7f0e;" x="321.932971" xlink:href="#m4d6f4ddf7d" y="254.086411"/>
     <use style="fill:#ff7f0e;stroke:#ff7f0e;" x="323.429075" xlink:href="#m4d6f4ddf7d" y="250.923073"/>
     <use style="fill:#ff7f0e;stroke:#ff7f0e;" x="324.925179" xlink:href="#m4d6f4ddf7d" y="251.977519"/>
     <use style="fill:#ff7f0e;stroke:#ff7f0e;" x="326.421282" xlink:href="#m4d6f4ddf7d" y="240.981156"/>
     <use style="fill:#ff7f0e;stroke:#ff7f0e;" x="327.917386" xlink:href="#m4d6f4ddf7d" y="235.859561"/>
     <use style="fill:#ff7f0e;stroke:#ff7f0e;" x="329.41349" xlink:href="#m4d6f4ddf7d" y="231.340508"/>
     <use style="fill:#ff7f0e;stroke:#ff7f0e;" x="330.909594" xlink:href="#m4d6f4ddf7d" y="242.638142"/>
     <use style="fill:#ff7f0e;stroke:#ff7f0e;" x="332.405698" xlink:href="#m4d6f4ddf7d" y="243.541953"/>
     <use style="fill:#ff7f0e;stroke:#ff7f0e;" x="333.901802" xlink:href="#m4d6f4ddf7d" y="235.859561"/>
     <use style="fill:#ff7f0e;stroke:#ff7f0e;" x="335.397906" xlink:href="#m4d6f4ddf7d" y="243.843223"/>
     <use style="fill:#ff7f0e;stroke:#ff7f0e;" x="336.89401" xlink:href="#m4d6f4ddf7d" y="215.373185"/>
     <use style="fill:#ff7f0e;stroke:#ff7f0e;" x="338.390114" xlink:href="#m4d6f4ddf7d" y="209.498416"/>
     <use style="fill:#ff7f0e;stroke:#ff7f0e;" x="339.886218" xlink:href="#m4d6f4ddf7d" y="211.757943"/>
     <use style="fill:#ff7f0e;stroke:#ff7f0e;" x="341.382321" xlink:href="#m4d6f4ddf7d" y="220.79605"/>
     <use style="fill:#ff7f0e;stroke:#ff7f0e;" x="342.878425" xlink:href="#m4d6f4ddf7d" y="231.189873"/>
     <use style="fill:#ff7f0e;stroke:#ff7f0e;" x="344.374529" xlink:href="#m4d6f4ddf7d" y="220.645415"/>
     <use style="fill:#ff7f0e;stroke:#ff7f0e;" x="345.870633" xlink:href="#m4d6f4ddf7d" y="202.26793"/>
     <use style="fill:#ff7f0e;stroke:#ff7f0e;" x="347.366737" xlink:href="#m4d6f4ddf7d" y="179.672662"/>
     <use style="fill:#ff7f0e;stroke:#ff7f0e;" x="348.862841" xlink:href="#m4d6f4ddf7d" y="175.605514"/>
     <use style="fill:#ff7f0e;stroke:#ff7f0e;" x="350.358945" xlink:href="#m4d6f4ddf7d" y="180.275203"/>
     <use style="fill:#ff7f0e;stroke:#ff7f0e;" x="351.855049" xlink:href="#m4d6f4ddf7d" y="202.117295"/>
     <use style="fill:#ff7f0e;stroke:#ff7f0e;" x="353.351153" xlink:href="#m4d6f4ddf7d" y="199.104593"/>
     <use style="fill:#ff7f0e;stroke:#ff7f0e;" x="354.847256" xlink:href="#m4d6f4ddf7d" y="176.65996"/>
     <use style="fill:#ff7f0e;stroke:#ff7f0e;" x="356.34336" xlink:href="#m4d6f4ddf7d" y="143.218964"/>
     <use style="fill:#ff7f0e;stroke:#ff7f0e;" x="357.839464" xlink:href="#m4d6f4ddf7d" y="135.837843"/>
     <use style="fill:#ff7f0e;stroke:#ff7f0e;" x="359.335568" xlink:href="#m4d6f4ddf7d" y="156.324219"/>
     <use style="fill:#ff7f0e;stroke:#ff7f0e;" x="360.831672" xlink:href="#m4d6f4ddf7d" y="148.792463"/>
     <use style="fill:#ff7f0e;stroke:#ff7f0e;" x="362.327776" xlink:href="#m4d6f4ddf7d" y="156.776124"/>
     <use style="fill:#ff7f0e;stroke:#ff7f0e;" x="363.82388" xlink:href="#m4d6f4ddf7d" y="171.689001"/>
     <use style="fill:#ff7f0e;stroke:#ff7f0e;" x="365.319984" xlink:href="#m4d6f4ddf7d" y="110.380508"/>
     <use style="fill:#ff7f0e;stroke:#ff7f0e;" x="366.816088" xlink:href="#m4d6f4ddf7d" y="79.199038"/>
     <use style="fill:#ff7f0e;stroke:#ff7f0e;" x="368.312192" xlink:href="#m4d6f4ddf7d" y="75.43316"/>
     <use style="fill:#ff7f0e;stroke:#ff7f0e;" x="369.808295" xlink:href="#m4d6f4ddf7d" y="30.242625"/>
     <use style="fill:#ff7f0e;stroke:#ff7f0e;" x="371.304399" xlink:href="#m4d6f4ddf7d" y="73.173634"/>
     <use style="fill:#ff7f0e;stroke:#ff7f0e;" x="372.800503" xlink:href="#m4d6f4ddf7d" y="106.9159"/>
     <use style="fill:#ff7f0e;stroke:#ff7f0e;" x="374.296607" xlink:href="#m4d6f4ddf7d" y="151.202625"/>
     <use style="fill:#ff7f0e;stroke:#ff7f0e;" x="375.792711" xlink:href="#m4d6f4ddf7d" y="137.042924"/>
     <use style="fill:#ff7f0e;stroke:#ff7f0e;" x="377.288815" xlink:href="#m4d6f4ddf7d" y="155.119138"/>
     <use style="fill:#ff7f0e;stroke:#ff7f0e;" x="378.784919" xlink:href="#m4d6f4ddf7d" y="179.522027"/>
     <use style="fill:#ff7f0e;stroke:#ff7f0e;" x="380.281023" xlink:href="#m4d6f4ddf7d" y="202.5692"/>
    </g>
   </g>
   <g id="patch_3">
    <path d="M 39.39375 284.258625 
L 39.39375 18.146625 
" style="fill:none;stroke:#000000;stroke-linecap:square;stroke-linejoin:miter;stroke-width:0.8;"/>
   </g>
   <g id="patch_4">
    <path d="M 396.51375 284.258625 
L 396.51375 18.146625 
" style="fill:none;stroke:#000000;stroke-linecap:square;stroke-linejoin:miter;stroke-width:0.8;"/>
   </g>
   <g id="patch_5">
    <path d="M 39.39375 284.258625 
L 396.51375 284.258625 
" style="fill:none;stroke:#000000;stroke-linecap:square;stroke-linejoin:miter;stroke-width:0.8;"/>
   </g>
   <g id="patch_6">
    <path d="M 39.39375 18.146625 
L 396.51375 18.146625 
" style="fill:none;stroke:#000000;stroke-linecap:square;stroke-linejoin:miter;stroke-width:0.8;"/>
   </g>
   <g id="legend_1">
    <g id="patch_7">
     <path d="M 46.39375 56.29975 
L 165.376563 56.29975 
Q 167.376563 56.29975 167.376563 54.29975 
L 167.376563 25.146625 
Q 167.376563 23.146625 165.376563 23.146625 
L 46.39375 23.146625 
Q 44.39375 23.146625 44.39375 25.146625 
L 44.39375 54.29975 
Q 44.39375 56.29975 46.39375 56.29975 
z
" style="fill:#ffffff;opacity:0.8;stroke:#cccccc;stroke-linejoin:miter;"/>
    </g>
    <g id="line2d_20">
     <path d="M 48.39375 31.766937 
L 68.39375 31.766937 
" style="fill:none;stroke:#1f77b4;stroke-linecap:square;stroke-width:1.5;"/>
    </g>
    <g id="line2d_21">
     <g>
      <use style="fill:#1f77b4;stroke:#1f77b4;" x="58.39375" xlink:href="#m85f589d811" y="31.766937"/>
     </g>
    </g>
    <g id="text_19">
     <!--  (onset) -->
     <g transform="translate(76.39375 35.266937)scale(0.1 -0.1)">
      <defs>
       <path d="M 73.734375 56.84375 
Q 80.609375 62.75 85.203125 68.609375 
L 91.109375 64.40625 
Q 84.46875 57.8125 78.71875 53.328125 
Q 85.9375 48.6875 95.40625 44.625 
L 90.625 38.375 
Q 81.734375 42.78125 73.53125 48.640625 
L 73.53125 43.3125 
L 64.109375 43.3125 
L 64.109375 29.984375 
L 89.890625 29.984375 
L 89.890625 23.78125 
L 64.109375 23.78125 
L 64.109375 5.609375 
Q 64.109375 2.484375 65.71875 2.046875 
Q 67.390625 1.46875 73.09375 1.46875 
Q 82.125 1.46875 83.59375 2.984375 
Q 85.0625 4.4375 85.5 11.96875 
Q 85.5 13.484375 85.59375 14.0625 
L 92.625 11.578125 
Q 92.1875 0.390625 89.703125 -2.203125 
Q 87.0625 -5.328125 72.609375 -5.328125 
Q 63.8125 -5.328125 60.9375 -4 
Q 57.03125 -2.34375 57.03125 3.328125 
L 57.03125 23.78125 
L 42.578125 23.78125 
Q 40.1875 0.53125 11.078125 -7.421875 
L 7.28125 -0.984375 
Q 33.25 5.421875 35.5 23.78125 
L 10.015625 23.78125 
L 10.015625 29.984375 
L 35.796875 29.984375 
L 35.796875 43.3125 
L 27.78125 43.3125 
L 27.78125 47.015625 
Q 19.734375 41.359375 9.078125 36.1875 
L 4.5 42.1875 
Q 16.3125 46.734375 25.984375 53.8125 
Q 19.828125 60.15625 13.484375 64.59375 
L 18.609375 69.140625 
Q 26.515625 62.59375 31.109375 58.015625 
Q 38.03125 64.0625 43.171875 72.125 
L 20.0625 72.125 
L 20.0625 78.21875 
L 54 78.21875 
Q 58.203125 71.34375 62.890625 66.3125 
Q 69.09375 71.625 74.03125 77.9375 
L 79.828125 73.734375 
Q 74.171875 67.625 67.09375 62.203125 
Q 70.40625 59.078125 73.734375 56.84375 
z
M 57.03125 43.3125 
L 42.78125 43.3125 
L 42.78125 29.984375 
L 57.03125 29.984375 
z
M 30.90625 49.3125 
L 72.515625 49.3125 
Q 58.6875 59.28125 50.59375 71 
Q 43.21875 58.890625 30.90625 49.3125 
z
" id="IPAexGothic-30330"/>
       <path d="M 63.71875 2.875 
L 95.015625 2.875 
L 95.015625 -3.515625 
L 23.96875 -3.515625 
L 23.96875 2.875 
L 37.3125 2.875 
L 37.3125 38.28125 
L 44 38.28125 
L 44 2.875 
L 56.84375 2.875 
L 56.84375 46.578125 
L 30.515625 46.578125 
L 30.515625 52.78125 
L 90.046875 52.78125 
L 90.046875 46.578125 
L 63.71875 46.578125 
L 63.71875 29.203125 
L 87.796875 29.203125 
L 87.796875 23.09375 
L 63.71875 23.09375 
z
M 60.203125 70.515625 
L 93.890625 70.515625 
L 93.890625 64.109375 
L 27.296875 64.109375 
L 27.296875 41.40625 
Q 27.296875 23.140625 24.21875 12.203125 
Q 21.390625 2.25 14.59375 -6.203125 
L 9.625 -1.171875 
Q 18.75 10.359375 20.125 27.484375 
Q 15.4375 24.125 7.078125 19.734375 
L 4 26.609375 
Q 12.3125 29.59375 20.40625 34.328125 
L 20.40625 37.890625 
L 20.40625 70.515625 
L 52.78125 70.515625 
L 52.78125 81.984375 
L 60.203125 81.984375 
z
M 12.015625 40.375 
Q 8.890625 50.78125 5.421875 57.90625 
L 11.375 60.59375 
Q 15.234375 53.859375 18.40625 43.703125 
z
" id="IPAexGothic-30151"/>
       <path d="M 81.734375 75 
L 81.734375 -4.5 
L 74.125 -4.5 
L 74.125 2 
L 25.734375 2 
L 25.734375 -4.5 
L 18.109375 -4.5 
L 18.109375 75 
z
M 25.734375 68.3125 
L 25.734375 42.671875 
L 74.125 42.671875 
L 74.125 68.3125 
z
M 25.734375 35.890625 
L 25.734375 8.6875 
L 74.125 8.6875 
L 74.125 35.890625 
z
" id="IPAexGothic-26085"/>
       <path id="IPAexGothic-32"/>
       <path d="M 30.125 -15.875 
L 25.828125 -18.21875 
Q 7.625 1.078125 7.625 29.296875 
Q 7.625 57.46875 25.828125 76.703125 
L 30.125 74.421875 
Q 15.71875 55.03125 15.71875 29.390625 
Q 15.71875 3.171875 30.125 -15.875 
z
" id="IPAexGothic-40"/>
       <path d="M 29.984375 52.203125 
Q 40.53125 52.203125 47.75 45.125 
Q 55.171875 37.703125 55.171875 25.59375 
Q 55.171875 13.875 47.90625 6.59375 
Q 40.765625 -0.484375 29.984375 -0.484375 
Q 19.1875 -0.484375 12.203125 6.5 
Q 4.890625 13.765625 4.890625 25.875 
Q 4.890625 37.703125 12.3125 45.125 
Q 19.390625 52.203125 29.984375 52.203125 
z
M 29.984375 45.609375 
Q 23.734375 45.609375 19.390625 41.109375 
Q 13.875 35.59375 13.875 25.78125 
Q 13.875 16.109375 19.28125 10.6875 
Q 23.6875 6.296875 29.984375 6.296875 
Q 36.421875 6.296875 40.765625 10.796875 
Q 46.1875 16.21875 46.1875 26.125 
Q 46.1875 35.453125 40.671875 41.109375 
Q 36.1875 45.609375 29.984375 45.609375 
z
" id="IPAexGothic-111"/>
       <path d="M 34.90625 39.796875 
Q 30.28125 45.796875 23.1875 45.796875 
Q 13.921875 45.796875 13.921875 38.671875 
Q 13.921875 33.640625 23.921875 30.375 
L 27.203125 29.296875 
Q 41.40625 24.65625 41.40625 13.96875 
Q 41.40625 6.78125 35.5 2.6875 
Q 30.8125 -0.484375 23.390625 -0.484375 
Q 11.96875 -0.484375 4 7.859375 
L 9.421875 12.796875 
Q 15.578125 6.203125 23.6875 6.203125 
Q 33.296875 6.203125 33.296875 13.671875 
Q 33.296875 19.34375 22.703125 23.09375 
L 19.28125 24.265625 
Q 5.90625 28.953125 5.90625 37.984375 
Q 5.90625 43.703125 9.8125 47.609375 
Q 14.5 52.296875 22.703125 52.296875 
Q 33.6875 52.296875 40.71875 44.671875 
z
" id="IPAexGothic-115"/>
       <path d="M 33.203125 3.765625 
Q 27.640625 -0.09375 21.828125 -0.09375 
Q 10.203125 -0.09375 10.203125 12.984375 
L 10.203125 44.671875 
L 3.421875 44.671875 
L 3.421875 50.78125 
L 10.203125 50.78125 
L 10.203125 61.96875 
L 18.40625 66.0625 
L 18.40625 50.78125 
L 32.234375 50.78125 
L 32.234375 44.671875 
L 18.40625 44.671875 
L 18.40625 14.15625 
Q 18.40625 6.5 23.640625 6.5 
Q 27.15625 6.5 30.328125 9.1875 
z
" id="IPAexGothic-116"/>
       <path d="M 7.28125 76.703125 
Q 25.59375 57.375 25.59375 29.296875 
Q 25.59375 1.171875 7.28125 -18.21875 
L 2.984375 -15.875 
Q 17.484375 3.375 17.484375 29.390625 
Q 17.484375 54.828125 2.984375 74.421875 
z
" id="IPAexGothic-41"/>
      </defs>
      <use xlink:href="#IPAexGothic-30330"/>
      <use x="100" xlink:href="#IPAexGothic-30151"/>
      <use x="200" xlink:href="#IPAexGothic-26085"/>
      <use x="300" xlink:href="#IPAexGothic-32"/>
      <use x="327.001953" xlink:href="#IPAexGothic-40"/>
      <use x="360.302734" xlink:href="#IPAexGothic-111"/>
      <use x="420.703125" xlink:href="#IPAexGothic-110"/>
      <use x="481.103516" xlink:href="#IPAexGothic-115"/>
      <use x="527.294922" xlink:href="#IPAexGothic-101"/>
      <use x="584.179688" xlink:href="#IPAexGothic-116"/>
      <use x="618.798828" xlink:href="#IPAexGothic-41"/>
     </g>
    </g>
    <g id="line2d_22">
     <path d="M 48.39375 46.89975 
L 68.39375 46.89975 
" style="fill:none;stroke:#ff7f0e;stroke-linecap:square;stroke-width:1.5;"/>
    </g>
    <g id="line2d_23">
     <g>
      <use style="fill:#ff7f0e;stroke:#ff7f0e;" x="58.39375" xlink:href="#m4d6f4ddf7d" y="46.89975"/>
     </g>
    </g>
    <g id="text_20">
     <!--  (confirmed) -->
     <g transform="translate(76.39375 50.39975)scale(0.1 -0.1)">
      <defs>
       <path d="M 67.921875 50.296875 
Q 70.5625 55.28125 72.609375 61.8125 
L 79.296875 60.203125 
Q 76.171875 53.609375 74.21875 50.296875 
L 92 50.296875 
L 92 44.484375 
L 73.4375 44.484375 
L 73.4375 34.71875 
L 89.703125 34.71875 
L 89.703125 29.203125 
L 73.4375 29.203125 
L 73.4375 19.53125 
L 89.703125 19.53125 
L 89.703125 14.015625 
L 73.4375 14.015625 
L 73.4375 3.609375 
L 94.28125 3.609375 
L 94.28125 -2.203125 
L 54.109375 -2.203125 
L 54.109375 -6.984375 
L 47.609375 -6.984375 
L 47.609375 38.1875 
Q 43.0625 31.546875 38.8125 26.609375 
L 35.6875 32.8125 
Q 49.359375 49.953125 54.78125 64.796875 
L 45.515625 64.796875 
L 45.515625 53.515625 
L 39.203125 53.515625 
L 39.203125 70.609375 
L 56.78125 70.609375 
Q 58.59375 76.609375 60.109375 83.109375 
L 66.703125 81.890625 
Q 65.234375 75.53125 63.625 70.609375 
L 92.71875 70.609375 
L 92.71875 53.515625 
L 86.328125 53.515625 
L 86.328125 64.796875 
L 61.53125 64.796875 
Q 58.546875 56.984375 54.890625 50.296875 
z
M 67.140625 44.484375 
L 54.109375 44.484375 
L 54.109375 34.71875 
L 67.140625 34.71875 
z
M 67.140625 29.203125 
L 54.109375 29.203125 
L 54.109375 19.53125 
L 67.140625 19.53125 
z
M 67.140625 14.015625 
L 54.109375 14.015625 
L 54.109375 3.609375 
L 67.140625 3.609375 
z
M 18.109375 46 
L 35.546875 46 
L 35.546875 3.078125 
L 18.953125 3.078125 
L 18.953125 -5.125 
L 12.75 -5.125 
L 12.75 34.46875 
Q 10.15625 29.734375 6.15625 23.78125 
L 2.9375 29.984375 
Q 14.546875 47.078125 18.75 69 
L 6.34375 69 
L 6.34375 75.296875 
L 37.640625 75.296875 
L 37.640625 69 
L 25.25 69 
L 24.953125 68.015625 
Q 22.75 57.234375 18.109375 46 
z
M 18.953125 39.890625 
L 18.953125 9.1875 
L 29.34375 9.1875 
L 29.34375 39.890625 
z
" id="IPAexGothic-30906"/>
       <path d="M 53.609375 4.734375 
Q 61.421875 3.515625 73.578125 3.515625 
Q 81.109375 3.515625 94.578125 4.109375 
Q 93.171875 0.921875 92 -3.5625 
Q 81.78125 -3.90625 75.6875 -3.90625 
Q 55.765625 -3.90625 46.921875 -1.21875 
Q 35.296875 2.390625 27.34375 14.109375 
Q 22.515625 2.546875 12.59375 -7.171875 
L 7.421875 -1.171875 
Q 22.125 11.859375 26.3125 37.796875 
L 33.203125 35.984375 
Q 31.734375 27.4375 29.828125 21.1875 
Q 36.53125 10.59375 46.4375 6.5 
L 46.4375 46 
L 22.40625 46 
L 22.40625 52.390625 
L 77.484375 52.390625 
L 77.484375 46 
L 53.609375 46 
L 53.609375 31 
L 84.328125 31 
L 84.328125 24.515625 
L 53.609375 24.515625 
z
M 53.421875 69.1875 
L 89.84375 69.1875 
L 89.84375 49.46875 
L 82.421875 49.46875 
L 82.421875 62.890625 
L 17.53125 62.890625 
L 17.53125 49.46875 
L 10.109375 49.46875 
L 10.109375 69.1875 
L 45.90625 69.1875 
L 45.90625 83.015625 
L 53.421875 83.015625 
z
" id="IPAexGothic-23450"/>
       <path d="M 51.078125 12.25 
Q 44.28125 -0.484375 29.6875 -0.484375 
Q 19.1875 -0.484375 12.3125 6.390625 
Q 4.890625 13.921875 4.890625 25.984375 
Q 4.890625 37.9375 12.3125 45.515625 
Q 19.09375 52.296875 29.390625 52.296875 
Q 43.953125 52.296875 50.09375 39.703125 
L 43.171875 36.078125 
Q 38.8125 45.3125 29.6875 45.3125 
Q 23.6875 45.3125 19.28125 40.921875 
Q 13.765625 35.40625 13.765625 25.78125 
Q 13.765625 16.703125 19.09375 11.375 
Q 23.78125 6.6875 30.5625 6.6875 
Q 39.796875 6.6875 44.484375 15.875 
z
" id="IPAexGothic-99"/>
       <path d="M 38.375 72.21875 
L 34.8125 66.3125 
Q 31.109375 69.09375 27.203125 69.09375 
Q 18.5 69.09375 18.5 57.375 
L 18.5 50.78125 
L 32.078125 50.78125 
L 32.078125 44.671875 
L 18.5 44.671875 
L 18.5 0.984375 
L 10.015625 0.984375 
L 10.015625 44.671875 
L 1.90625 44.671875 
L 1.90625 50.78125 
L 10.015625 50.78125 
L 10.015625 57.171875 
Q 10.015625 65.4375 13.921875 70.0625 
Q 18.75 75.6875 26.703125 75.6875 
Q 33.0625 75.6875 38.375 72.21875 
z
" id="IPAexGothic-102"/>
       <path d="M 18.40625 61.375 
L 8.59375 61.375 
L 8.59375 71.390625 
L 18.40625 71.390625 
z
M 17.78125 0.984375 
L 9.1875 0.984375 
L 9.1875 50.78125 
L 17.78125 50.78125 
z
" id="IPAexGothic-105"/>
       <path d="M 78.46875 0.984375 
L 69.875 0.984375 
L 69.875 32.171875 
Q 69.875 44.828125 60.109375 44.828125 
Q 55.46875 44.828125 51.609375 40.53125 
Q 48.875 37.453125 47.796875 32.859375 
L 47.796875 0.984375 
L 39.203125 0.984375 
L 39.203125 32.28125 
Q 39.203125 44.828125 29.984375 44.828125 
Q 25.09375 44.828125 21.390625 40.53125 
Q 17.390625 36.03125 17.390625 31.890625 
L 17.390625 0.984375 
L 8.796875 0.984375 
L 8.796875 50.78125 
L 16.796875 50.78125 
L 16.796875 42.1875 
Q 21.734375 51.8125 31.6875 51.8125 
Q 42.578125 51.8125 46.1875 41.359375 
Q 51.609375 51.8125 61.765625 51.8125 
Q 69.96875 51.8125 74.5625 46 
Q 78.46875 41.21875 78.46875 32.375 
z
" id="IPAexGothic-109"/>
       <path d="M 52.984375 0.984375 
L 45.171875 0.984375 
L 45.171875 9.671875 
Q 38.140625 -0.484375 27.390625 -0.484375 
Q 18.453125 -0.484375 12.3125 5.8125 
Q 4.890625 13.1875 4.890625 25.984375 
Q 4.890625 38.53125 12.0625 45.90625 
Q 18.265625 52.203125 27.390625 52.203125 
Q 37.25 52.203125 44.484375 43.890625 
L 44.484375 74.90625 
L 52.984375 74.90625 
z
M 44.484375 20.359375 
L 44.484375 32.765625 
Q 44.484375 37.703125 38.375 42.28125 
Q 34.078125 45.40625 28.953125 45.40625 
Q 23.1875 45.40625 19.1875 41.40625 
Q 13.875 36.078125 13.875 26.21875 
Q 13.875 17.328125 18.265625 11.71875 
Q 22.515625 6.390625 28.859375 6.390625 
Q 36.28125 6.390625 41.5 13.671875 
Q 44.484375 17.71875 44.484375 20.359375 
z
" id="IPAexGothic-100"/>
      </defs>
      <use xlink:href="#IPAexGothic-30906"/>
      <use x="100" xlink:href="#IPAexGothic-23450"/>
      <use x="200" xlink:href="#IPAexGothic-26085"/>
      <use x="300" xlink:href="#IPAexGothic-32"/>
      <use x="327.001953" xlink:href="#IPAexGothic-40"/>
      <use x="360.302734" xlink:href="#IPAexGothic-99"/>
      <use x="414.697266" xlink:href="#IPAexGothic-111"/>
      <use x="475.097656" xlink:href="#IPAexGothic-110"/>
      <use x="535.498047" xlink:href="#IPAexGothic-102"/>
      <use x="566.113281" xlink:href="#IPAexGothic-105"/>
      <use x="593.115234" xlink:href="#IPAexGothic-114"/>
      <use x="630.126953" xlink:href="#IPAexGothic-109"/>
      <use x="717.236328" xlink:href="#IPAexGothic-101"/>
      <use x="774.121094" xlink:href="#IPAexGothic-100"/>
      <use x="836.523438" xlink:href="#IPAexGothic-41"/>
     </g>
    </g>
   </g>
  </g>
  <g id="text_21">
   <!-- generated: 2020-08-08 07:21:28 -->
   <g transform="translate(238.618437 14.690625)scale(0.1 -0.1)">
    <defs>
     <path d="M 21.390625 39.984375 
L 10.5 39.984375 
L 10.5 50.78125 
L 21.390625 50.78125 
z
M 21.390625 0.984375 
L 10.5 0.984375 
L 10.5 11.765625 
L 21.390625 11.765625 
z
" id="IPAexGothic-58"/>
     <path d="M 30.765625 26.609375 
L 4.984375 26.609375 
L 4.984375 34.421875 
L 30.765625 34.421875 
z
" id="IPAexGothic-45"/>
     <path d="M 56.203125 66.609375 
Q 34.96875 32.90625 27.78125 0.984375 
L 17.671875 0.984375 
Q 24.703125 28.65625 46.09375 64.5 
L 6.6875 64.5 
L 6.6875 72.40625 
L 56.203125 72.40625 
z
" id="IPAexGothic-55"/>
    </defs>
    <use xlink:href="#IPAexGothic-103"/>
    <use x="55.517578" xlink:href="#IPAexGothic-101"/>
    <use x="112.402344" xlink:href="#IPAexGothic-110"/>
    <use x="172.802734" xlink:href="#IPAexGothic-101"/>
    <use x="229.6875" xlink:href="#IPAexGothic-114"/>
    <use x="266.699219" xlink:href="#IPAexGothic-97"/>
    <use x="321.679688" xlink:href="#IPAexGothic-116"/>
    <use x="356.298828" xlink:href="#IPAexGothic-101"/>
    <use x="413.183594" xlink:href="#IPAexGothic-100"/>
    <use x="475.585938" xlink:href="#IPAexGothic-58"/>
    <use x="507.568359" xlink:href="#IPAexGothic-32"/>
    <use x="534.570312" xlink:href="#IPAexGothic-50"/>
    <use x="597.558594" xlink:href="#IPAexGothic-48"/>
    <use x="660.546875" xlink:href="#IPAexGothic-50"/>
    <use x="723.535156" xlink:href="#IPAexGothic-48"/>
    <use x="786.523438" xlink:href="#IPAexGothic-45"/>
    <use x="822.314453" xlink:href="#IPAexGothic-48"/>
    <use x="885.302734" xlink:href="#IPAexGothic-56"/>
    <use x="948.291016" xlink:href="#IPAexGothic-45"/>
    <use x="984.082031" xlink:href="#IPAexGothic-48"/>
    <use x="1047.070312" xlink:href="#IPAexGothic-56"/>
    <use x="1110.058594" xlink:href="#IPAexGothic-32"/>
    <use x="1137.060547" xlink:href="#IPAexGothic-48"/>
    <use x="1200.048828" xlink:href="#IPAexGothic-55"/>
    <use x="1263.037109" xlink:href="#IPAexGothic-58"/>
    <use x="1295.019531" xlink:href="#IPAexGothic-50"/>
    <use x="1358.007812" xlink:href="#IPAexGothic-49"/>
    <use x="1420.996094" xlink:href="#IPAexGothic-58"/>
    <use x="1452.978516" xlink:href="#IPAexGothic-50"/>
    <use x="1515.966797" xlink:href="#IPAexGothic-56"/>
   </g>
  </g>
 </g>
 <defs>
  <clipPath id="pc1e661617b">
   <rect height="266.112" width="357.12" x="39.39375" y="18.146625"/>
  </clipPath>
 </defs>
</svg>
