<?xml version="1.0" encoding="utf-8" standalone="no"?>
<!DOCTYPE svg PUBLIC "-//W3C//DTD SVG 1.1//EN"
  "http://www.w3.org/Graphics/SVG/1.1/DTD/svg11.dtd">
<!-- Created with matplotlib (https://matplotlib.org/) -->
<svg height="320.239875pt" version="1.1" viewBox="0 0 397.415312 320.239875" width="397.415312pt" xmlns="http://www.w3.org/2000/svg" xmlns:xlink="http://www.w3.org/1999/xlink">
 <defs>
  <style type="text/css">
*{stroke-linecap:butt;stroke-linejoin:round;}
  </style>
 </defs>
 <g id="figure_1">
  <g id="patch_1">
   <path d="M 0 320.239875 
L 397.415312 320.239875 
L 397.415312 0 
L 0 0 
z
" style="fill:#ffffff;"/>
  </g>
  <g id="axes_1">
   <g id="patch_2">
    <path d="M 33.095313 284.258625 
L 390.215312 284.258625 
L 390.215312 18.146625 
L 33.095313 18.146625 
z
" style="fill:#ffffff;"/>
   </g>
   <g id="matplotlib.axis_1">
    <g id="xtick_1">
     <g id="line2d_1">
      <defs>
       <path d="M 0 0 
L 0 3.5 
" id="m7bddeb7004" style="stroke:#000000;stroke-width:0.8;"/>
      </defs>
      <g>
       <use style="stroke:#000000;stroke-width:0.8;" x="45.928516" xlink:href="#m7bddeb7004" y="284.258625"/>
      </g>
     </g>
     <g id="text_1">
      <!-- 2020 -->
      <defs>
       <path d="M 57.171875 0.984375 
L 6.984375 0.984375 
L 6.984375 9.28125 
Q 12.890625 23.046875 29.59375 34.421875 
L 32.375 36.28125 
Q 40.921875 42.140625 43.609375 45.40625 
Q 46.6875 49.265625 46.6875 53.8125 
Q 46.6875 58.9375 43.0625 62.546875 
Q 39.0625 66.546875 32.5625 66.546875 
Q 19.53125 66.546875 15.484375 52 
L 7.765625 54.78125 
Q 13.328125 73.828125 33.0625 73.828125 
Q 43.84375 73.828125 50.25 67.4375 
Q 55.859375 61.671875 55.859375 53.515625 
Q 55.859375 47.46875 52.25 42.53125 
Q 48.921875 37.75 36.96875 30.28125 
L 34.859375 29 
Q 19.625 19.578125 15.28125 8.890625 
L 57.171875 8.890625 
z
" id="IPAexGothic-50"/>
       <path d="M 31.84375 73.828125 
Q 45.015625 73.828125 52.09375 61.625 
Q 57.71875 51.953125 57.71875 36.625 
Q 57.71875 21.4375 52.09375 11.578125 
Q 45.125 -0.484375 31.5 -0.484375 
Q 17.921875 -0.484375 10.9375 11.578125 
Q 5.328125 21.4375 5.328125 36.71875 
Q 5.328125 58.015625 15.625 67.71875 
Q 22.171875 73.828125 31.84375 73.828125 
z
M 31.5 66.65625 
Q 23.6875 66.65625 19.1875 58.734375 
Q 14.59375 50.734375 14.59375 36.625 
Q 14.59375 22.75 19.09375 14.796875 
Q 23.640625 6.984375 31.5 6.984375 
Q 40.921875 6.984375 45.453125 18.015625 
Q 48.4375 25.34375 48.4375 37.109375 
Q 48.4375 50.875 43.84375 58.734375 
Q 39.203125 66.65625 31.5 66.65625 
z
" id="IPAexGothic-48"/>
      </defs>
      <g transform="translate(33.331641 298.74925)scale(0.1 -0.1)">
       <use xlink:href="#IPAexGothic-50"/>
       <use x="62.988281" xlink:href="#IPAexGothic-48"/>
       <use x="125.976562" xlink:href="#IPAexGothic-50"/>
       <use x="188.964844" xlink:href="#IPAexGothic-48"/>
      </g>
     </g>
    </g>
    <g id="xtick_2">
     <g id="line2d_2">
      <g>
       <use style="stroke:#000000;stroke-width:0.8;" x="98.621138" xlink:href="#m7bddeb7004" y="284.258625"/>
      </g>
     </g>
     <g id="text_2">
      <!-- Feb -->
      <defs>
       <path d="M 54.203125 64.703125 
L 18.3125 64.703125 
L 18.3125 41.5 
L 50.09375 41.5 
L 50.09375 34.1875 
L 18.3125 34.1875 
L 18.3125 0.984375 
L 9.515625 0.984375 
L 9.515625 72.40625 
L 54.203125 72.40625 
z
" id="IPAexGothic-70"/>
       <path d="M 13.484375 24.90625 
Q 13.921875 16.265625 18.890625 11.28125 
Q 23.96875 6.203125 31.203125 6.203125 
Q 40.71875 6.203125 46.296875 15.09375 
L 51.90625 11.375 
Q 44.828125 -0.484375 30.171875 -0.484375 
Q 19.09375 -0.484375 11.96875 6.59375 
Q 4.78125 13.8125 4.78125 25.640625 
Q 4.78125 38.1875 12.3125 45.703125 
Q 19 52.390625 29 52.390625 
Q 38.421875 52.390625 44.78125 46.1875 
Q 51.90625 38.96875 51.90625 26.90625 
L 51.90625 24.90625 
z
M 43.0625 31.203125 
Q 42.328125 37.984375 38.28125 41.890625 
Q 34.28125 45.90625 28.8125 45.90625 
Q 22.46875 45.90625 17.96875 40.484375 
Q 14.890625 36.8125 13.96875 31.203125 
z
" id="IPAexGothic-101"/>
       <path d="M 17.578125 42.671875 
Q 24.21875 52.203125 34.671875 52.203125 
Q 43.5625 52.203125 49.859375 45.90625 
Q 57.171875 38.578125 57.171875 25.6875 
Q 57.171875 13.09375 49.859375 5.8125 
Q 43.5625 -0.484375 34.46875 -0.484375 
Q 24.359375 -0.484375 17 8.0625 
L 15.765625 0.6875 
L 9.078125 0.6875 
L 9.078125 74.90625 
L 17.578125 74.90625 
z
M 17.578125 31.203125 
L 17.578125 19.578125 
Q 17.578125 13.875 23.875 9.375 
Q 28.171875 6.296875 33.109375 6.296875 
Q 38.875 6.296875 42.875 10.296875 
Q 48.1875 15.765625 48.1875 25.484375 
Q 48.1875 34.28125 43.796875 39.890625 
Q 39.453125 45.3125 33.203125 45.3125 
Q 27.484375 45.3125 22.46875 40.28125 
Q 17.578125 35.40625 17.578125 31.203125 
z
" id="IPAexGothic-98"/>
      </defs>
      <g transform="translate(89.797701 298.74925)scale(0.1 -0.1)">
       <use xlink:href="#IPAexGothic-70"/>
       <use x="57.177734" xlink:href="#IPAexGothic-101"/>
       <use x="114.0625" xlink:href="#IPAexGothic-98"/>
      </g>
     </g>
    </g>
    <g id="xtick_3">
     <g id="line2d_3">
      <g>
       <use style="stroke:#000000;stroke-width:0.8;" x="147.914237" xlink:href="#m7bddeb7004" y="284.258625"/>
      </g>
     </g>
     <g id="text_3">
      <!-- Mar -->
      <defs>
       <path d="M 80.421875 0.984375 
L 71.828125 0.984375 
L 71.828125 39.59375 
Q 71.828125 51.265625 72.40625 64.59375 
L 72.015625 64.59375 
Q 68.0625 53.265625 63.53125 41.796875 
L 47.90625 3.265625 
L 41.40625 3.265625 
L 25.640625 42.578125 
Q 20.75 54.78125 17.625 64.703125 
L 17.234375 64.703125 
Q 17.828125 48.921875 17.828125 39.890625 
L 17.828125 0.984375 
L 9.515625 0.984375 
L 9.515625 72.40625 
L 22.125 72.40625 
L 39.109375 30.375 
Q 42.140625 23 44.828125 14.15625 
L 45.125 14.15625 
Q 47.3125 22.125 50.53125 30.171875 
L 67.4375 72.40625 
L 80.421875 72.40625 
z
" id="IPAexGothic-77"/>
       <path d="M 49.3125 0.984375 
L 41.75 0.984375 
Q 39.984375 4.734375 39.546875 8.6875 
L 39.203125 8.6875 
Q 33.546875 -0.390625 22.3125 -0.390625 
Q 14.59375 -0.390625 9.71875 4.5 
Q 5.421875 8.796875 5.421875 14.984375 
Q 5.421875 30.421875 32.03125 31.203125 
L 38.71875 31.390625 
L 38.71875 33.984375 
Q 38.71875 39.203125 35.75 42.1875 
Q 32.625 45.3125 27.734375 45.3125 
Q 19.34375 45.3125 15.140625 37.15625 
L 7.71875 40.578125 
Q 14.65625 52 27.9375 52 
Q 37.109375 52 42.046875 46.875 
Q 46.625 42.28125 46.625 33.890625 
L 46.625 15.578125 
Q 46.625 6.25 49.3125 0.984375 
z
M 38.921875 25.390625 
L 33.453125 25.296875 
Q 14.109375 24.859375 14.109375 14.890625 
Q 14.109375 11.375 16.40625 9.078125 
Q 19.234375 6.296875 23.828125 6.296875 
Q 30.21875 6.296875 34.90625 10.984375 
Q 38.921875 15.140625 38.921875 21 
z
" id="IPAexGothic-97"/>
       <path d="M 36.078125 51.8125 
L 34.578125 43.265625 
Q 32.90625 43.609375 31.59375 43.609375 
Q 25.828125 43.609375 22.078125 38.1875 
Q 17.390625 31.34375 17.390625 26.171875 
L 17.390625 0.984375 
L 8.796875 0.984375 
L 8.796875 50.78125 
L 16.890625 50.78125 
L 16.5 35.984375 
L 16.703125 35.984375 
Q 22.21875 52.203125 32.765625 52.203125 
Q 34.46875 52.203125 36.078125 51.8125 
z
" id="IPAexGothic-114"/>
      </defs>
      <g transform="translate(138.804862 298.74925)scale(0.1 -0.1)">
       <use xlink:href="#IPAexGothic-77"/>
       <use x="90.185547" xlink:href="#IPAexGothic-97"/>
       <use x="145.166016" xlink:href="#IPAexGothic-114"/>
      </g>
     </g>
    </g>
    <g id="xtick_4">
     <g id="line2d_4">
      <g>
       <use style="stroke:#000000;stroke-width:0.8;" x="200.606859" xlink:href="#m7bddeb7004" y="284.258625"/>
      </g>
     </g>
     <g id="text_4">
      <!-- Apr -->
      <defs>
       <path d="M 63.375 0.984375 
L 53.8125 0.984375 
L 45.90625 22.015625 
L 17.1875 22.015625 
L 9.421875 0.984375 
L -0.09375 0.984375 
L 28.21875 72.90625 
L 35.296875 72.90625 
z
M 43.40625 29.109375 
L 36.1875 48.09375 
Q 33.203125 56.0625 31.6875 62.5 
L 31.390625 62.5 
Q 29.640625 55.671875 26.8125 48.09375 
L 19.734375 29.109375 
z
" id="IPAexGothic-65"/>
       <path d="M 16.796875 42 
Q 23.828125 52.203125 34.46875 52.203125 
Q 43.265625 52.203125 49.5625 45.90625 
Q 56.890625 38.578125 56.890625 25.6875 
Q 56.890625 13.140625 49.65625 5.8125 
Q 43.359375 -0.484375 34.375 -0.484375 
Q 24.515625 -0.484375 17.28125 7.765625 
L 17.28125 -19 
L 8.796875 -19 
L 8.796875 50.78125 
L 16.796875 50.78125 
z
M 17.28125 30.46875 
L 17.28125 20.171875 
Q 17.28125 14.015625 23.6875 9.375 
Q 27.984375 6.296875 32.90625 6.296875 
Q 38.578125 6.296875 42.578125 10.296875 
Q 47.90625 15.578125 47.90625 25.484375 
Q 47.90625 34.375 43.5 39.984375 
Q 39.109375 45.3125 32.8125 45.3125 
Q 25.875 45.3125 20.90625 38.8125 
Q 17.28125 34.125 17.28125 30.46875 
z
" id="IPAexGothic-112"/>
      </defs>
      <g transform="translate(192.464672 298.74925)scale(0.1 -0.1)">
       <use xlink:href="#IPAexGothic-65"/>
       <use x="63.720703" xlink:href="#IPAexGothic-112"/>
       <use x="125.830078" xlink:href="#IPAexGothic-114"/>
      </g>
     </g>
    </g>
    <g id="xtick_5">
     <g id="line2d_5">
      <g>
       <use style="stroke:#000000;stroke-width:0.8;" x="251.59972" xlink:href="#m7bddeb7004" y="284.258625"/>
      </g>
     </g>
     <g id="text_5">
      <!-- May -->
      <defs>
       <path d="M 48.78125 50.78125 
L 24.609375 -7.625 
Q 19.96875 -18.796875 8.59375 -18.796875 
L 7.46875 -18.796875 
L 5.375 -10.984375 
L 6.984375 -10.984375 
Q 15.140625 -10.984375 17.96875 -3.71875 
L 21.1875 4.296875 
L 0.59375 50.78125 
L 10.296875 50.78125 
L 21.296875 22.796875 
Q 23.875 16.015625 25.09375 12.203125 
L 25.390625 12.203125 
Q 27.34375 18.265625 29.109375 22.796875 
L 39.5 50.78125 
z
" id="IPAexGothic-121"/>
      </defs>
      <g transform="translate(241.880189 298.74925)scale(0.1 -0.1)">
       <use xlink:href="#IPAexGothic-77"/>
       <use x="90.185547" xlink:href="#IPAexGothic-97"/>
       <use x="145.166016" xlink:href="#IPAexGothic-121"/>
      </g>
     </g>
    </g>
    <g id="xtick_6">
     <g id="line2d_6">
      <g>
       <use style="stroke:#000000;stroke-width:0.8;" x="304.292342" xlink:href="#m7bddeb7004" y="284.258625"/>
      </g>
     </g>
     <g id="text_6">
      <!-- Jun -->
      <defs>
       <path d="M 28.421875 72.40625 
L 28.421875 19.28125 
Q 28.421875 -0.484375 11.921875 -0.484375 
Q 4.734375 -0.484375 -1.953125 3.265625 
L 1.3125 10.0625 
Q 5.90625 6.984375 10.84375 6.984375 
Q 19.53125 6.984375 19.53125 18.796875 
L 19.53125 72.40625 
z
" id="IPAexGothic-74"/>
       <path d="M 51.3125 0.984375 
L 43.3125 0.984375 
L 43.3125 10.0625 
Q 35.9375 0 25.390625 0 
Q 16.75 0 11.921875 5.859375 
Q 8.109375 10.59375 8.109375 19.390625 
L 8.109375 50.78125 
L 16.703125 50.78125 
L 16.703125 19.671875 
Q 16.703125 7.28125 27.09375 7.28125 
Q 37.59375 7.28125 42.71875 20.171875 
L 42.71875 50.78125 
L 51.3125 50.78125 
z
" id="IPAexGothic-117"/>
       <path d="M 52 0.984375 
L 43.40625 0.984375 
L 43.40625 31.890625 
Q 43.40625 44.578125 32.90625 44.578125 
Q 22.3125 44.578125 17.390625 31.890625 
L 17.390625 0.984375 
L 8.796875 0.984375 
L 8.796875 50.78125 
L 16.796875 50.78125 
L 16.796875 41.796875 
Q 23.828125 51.8125 34.71875 51.8125 
Q 52 51.8125 52 32.375 
z
" id="IPAexGothic-110"/>
      </defs>
      <g transform="translate(296.352499 298.74925)scale(0.1 -0.1)">
       <use xlink:href="#IPAexGothic-74"/>
       <use x="37.988281" xlink:href="#IPAexGothic-117"/>
       <use x="98.388672" xlink:href="#IPAexGothic-110"/>
      </g>
     </g>
    </g>
    <g id="xtick_7">
     <g id="line2d_7">
      <g>
       <use style="stroke:#000000;stroke-width:0.8;" x="355.285203" xlink:href="#m7bddeb7004" y="284.258625"/>
      </g>
     </g>
     <g id="text_7">
      <!-- Jul -->
      <defs>
       <path d="M 17.671875 0.984375 
L 9.078125 0.984375 
L 9.078125 74.90625 
L 17.671875 74.90625 
z
" id="IPAexGothic-108"/>
      </defs>
      <g transform="translate(349.015672 298.74925)scale(0.1 -0.1)">
       <use xlink:href="#IPAexGothic-74"/>
       <use x="37.988281" xlink:href="#IPAexGothic-117"/>
       <use x="98.388672" xlink:href="#IPAexGothic-108"/>
      </g>
     </g>
    </g>
    <g id="text_8">
     <!-- 2020 -->
     <g transform="translate(365.021562 311.139875)scale(0.1 -0.1)">
      <use xlink:href="#IPAexGothic-50"/>
      <use x="62.988281" xlink:href="#IPAexGothic-48"/>
      <use x="125.976562" xlink:href="#IPAexGothic-50"/>
      <use x="188.964844" xlink:href="#IPAexGothic-48"/>
     </g>
    </g>
   </g>
   <g id="matplotlib.axis_2">
    <g id="ytick_1">
     <g id="line2d_8">
      <defs>
       <path d="M 0 0 
L -3.5 0 
" id="mb9d21fb68f" style="stroke:#000000;stroke-width:0.8;"/>
      </defs>
      <g>
       <use style="stroke:#000000;stroke-width:0.8;" x="33.095313" xlink:href="#mb9d21fb68f" y="272.162625"/>
      </g>
     </g>
     <g id="text_9">
      <!-- 0 -->
      <g transform="translate(19.796875 275.907937)scale(0.1 -0.1)">
       <use xlink:href="#IPAexGothic-48"/>
      </g>
     </g>
    </g>
    <g id="ytick_2">
     <g id="line2d_9">
      <g>
       <use style="stroke:#000000;stroke-width:0.8;" x="33.095313" xlink:href="#mb9d21fb68f" y="237.353992"/>
      </g>
     </g>
     <g id="text_10">
      <!-- 100 -->
      <defs>
       <path d="M 38.484375 0.984375 
L 29.6875 0.984375 
L 29.6875 64.109375 
Q 21.4375 61.28125 12.3125 59.328125 
L 10.6875 66.109375 
Q 23.734375 69.390625 32.90625 73.921875 
L 38.484375 73.921875 
z
" id="IPAexGothic-49"/>
      </defs>
      <g transform="translate(7.2 241.099304)scale(0.1 -0.1)">
       <use xlink:href="#IPAexGothic-49"/>
       <use x="62.988281" xlink:href="#IPAexGothic-48"/>
       <use x="125.976562" xlink:href="#IPAexGothic-48"/>
      </g>
     </g>
    </g>
    <g id="ytick_3">
     <g id="line2d_10">
      <g>
       <use style="stroke:#000000;stroke-width:0.8;" x="33.095313" xlink:href="#mb9d21fb68f" y="202.545359"/>
      </g>
     </g>
     <g id="text_11">
      <!-- 200 -->
      <g transform="translate(7.2 206.290671)scale(0.1 -0.1)">
       <use xlink:href="#IPAexGothic-50"/>
       <use x="62.988281" xlink:href="#IPAexGothic-48"/>
       <use x="125.976562" xlink:href="#IPAexGothic-48"/>
      </g>
     </g>
    </g>
    <g id="ytick_4">
     <g id="line2d_11">
      <g>
       <use style="stroke:#000000;stroke-width:0.8;" x="33.095313" xlink:href="#mb9d21fb68f" y="167.736726"/>
      </g>
     </g>
     <g id="text_12">
      <!-- 300 -->
      <defs>
       <path d="M 37.203125 37.796875 
Q 54.78125 34.625 54.78125 19.96875 
Q 54.78125 11.1875 48.875 5.5625 
Q 42.328125 -0.484375 30.375 -0.484375 
Q 12.453125 -0.484375 4.5 13.765625 
L 11.8125 17.671875 
Q 17.328125 6.890625 30.28125 6.890625 
Q 37.890625 6.890625 42.09375 10.796875 
Q 46.09375 14.5 46.09375 20.171875 
Q 46.09375 26.859375 40.09375 30.90625 
Q 34.625 34.578125 25.6875 34.578125 
L 21.296875 34.578125 
L 21.296875 41.703125 
L 25.875 41.703125 
Q 34.859375 41.703125 39.59375 45.125 
Q 44.671875 48.734375 44.671875 54.828125 
Q 44.671875 61.46875 38.96875 64.65625 
Q 35.296875 66.84375 30.171875 66.84375 
Q 19.34375 66.84375 14.109375 55.90625 
L 6.78125 59.421875 
Q 14.015625 73.828125 30.28125 73.828125 
Q 40.578125 73.828125 46.96875 68.65625 
Q 53.375 63.578125 53.375 55.21875 
Q 53.375 47.3125 47.171875 42.28125 
Q 43.171875 39.0625 37.203125 38.1875 
z
" id="IPAexGothic-51"/>
      </defs>
      <g transform="translate(7.2 171.482038)scale(0.1 -0.1)">
       <use xlink:href="#IPAexGothic-51"/>
       <use x="62.988281" xlink:href="#IPAexGothic-48"/>
       <use x="125.976562" xlink:href="#IPAexGothic-48"/>
      </g>
     </g>
    </g>
    <g id="ytick_5">
     <g id="line2d_12">
      <g>
       <use style="stroke:#000000;stroke-width:0.8;" x="33.095313" xlink:href="#mb9d21fb68f" y="132.928093"/>
      </g>
     </g>
     <g id="text_13">
      <!-- 400 -->
      <defs>
       <path d="M 59.578125 18.109375 
L 47.796875 18.109375 
L 47.796875 0.984375 
L 39.796875 0.984375 
L 39.796875 18.109375 
L 3.078125 18.109375 
L 3.078125 26.125 
L 38.375 73.09375 
L 47.796875 73.09375 
L 47.796875 25.53125 
L 59.578125 25.53125 
z
M 40.28125 64.203125 
L 39.984375 64.203125 
Q 35.59375 57.125 31.296875 51.3125 
L 11.859375 25.53125 
L 39.796875 25.53125 
L 39.796875 49.125 
Q 39.796875 54.390625 40.28125 64.203125 
z
" id="IPAexGothic-52"/>
      </defs>
      <g transform="translate(7.2 136.673405)scale(0.1 -0.1)">
       <use xlink:href="#IPAexGothic-52"/>
       <use x="62.988281" xlink:href="#IPAexGothic-48"/>
       <use x="125.976562" xlink:href="#IPAexGothic-48"/>
      </g>
     </g>
    </g>
    <g id="ytick_6">
     <g id="line2d_13">
      <g>
       <use style="stroke:#000000;stroke-width:0.8;" x="33.095313" xlink:href="#mb9d21fb68f" y="98.11946"/>
      </g>
     </g>
     <g id="text_14">
      <!-- 500 -->
      <defs>
       <path d="M 18.40625 40.671875 
Q 25.53125 46.296875 33.9375 46.296875 
Q 44 46.296875 50.640625 39.5 
Q 56.84375 33.015625 56.84375 23.390625 
Q 56.84375 14.65625 51.515625 8.015625 
Q 44.828125 -0.484375 31.734375 -0.484375 
Q 14.984375 -0.484375 7.328125 12.25 
L 14.65625 16.0625 
Q 20.453125 6.78125 31.453125 6.78125 
Q 38.53125 6.78125 43.265625 11.1875 
Q 48.140625 15.828125 48.140625 23.484375 
Q 48.140625 30.71875 43.84375 35.015625 
Q 39.359375 39.5 32.125 39.5 
Q 21.96875 39.5 16.75 31.6875 
L 9.234375 32.671875 
L 13.8125 72.40625 
L 53.21875 72.40625 
L 53.21875 64.890625 
L 20.953125 64.890625 
L 17.71875 40.671875 
z
" id="IPAexGothic-53"/>
      </defs>
      <g transform="translate(7.2 101.864772)scale(0.1 -0.1)">
       <use xlink:href="#IPAexGothic-53"/>
       <use x="62.988281" xlink:href="#IPAexGothic-48"/>
       <use x="125.976562" xlink:href="#IPAexGothic-48"/>
      </g>
     </g>
    </g>
    <g id="ytick_7">
     <g id="line2d_14">
      <g>
       <use style="stroke:#000000;stroke-width:0.8;" x="33.095313" xlink:href="#mb9d21fb68f" y="63.310826"/>
      </g>
     </g>
     <g id="text_15">
      <!-- 600 -->
      <defs>
       <path d="M 16.5 36.375 
Q 23.578125 46.578125 34.90625 46.578125 
Q 45.40625 46.578125 51.8125 39.265625 
Q 57.421875 32.90625 57.421875 23.78125 
Q 57.421875 13.8125 51.125 6.78125 
Q 44.578125 -0.484375 34.03125 -0.484375 
Q 21.484375 -0.484375 14.40625 9.078125 
Q 7.515625 18.40625 7.515625 34.8125 
Q 7.515625 53.515625 15.828125 64.203125 
Q 23.34375 73.828125 35.5 73.828125 
Q 49.859375 73.828125 56.390625 62.890625 
L 49.21875 58.984375 
Q 45.21875 66.65625 35.9375 66.65625 
Q 17.484375 66.65625 16.109375 36.375 
z
M 33.453125 39.796875 
Q 26.3125 39.796875 21.625 34.46875 
Q 17.4375 29.6875 17.4375 24.078125 
Q 17.4375 18.0625 21.140625 13.1875 
Q 26.125 6.6875 33.734375 6.6875 
Q 41.703125 6.6875 45.953125 13.1875 
Q 48.828125 17.625 48.828125 23.484375 
Q 48.828125 30.375 45.015625 34.8125 
Q 40.625 39.796875 33.453125 39.796875 
z
" id="IPAexGothic-54"/>
      </defs>
      <g transform="translate(7.2 67.056139)scale(0.1 -0.1)">
       <use xlink:href="#IPAexGothic-54"/>
       <use x="62.988281" xlink:href="#IPAexGothic-48"/>
       <use x="125.976562" xlink:href="#IPAexGothic-48"/>
      </g>
     </g>
    </g>
    <g id="ytick_8">
     <g id="line2d_15">
      <g>
       <use style="stroke:#000000;stroke-width:0.8;" x="33.095313" xlink:href="#mb9d21fb68f" y="28.502193"/>
      </g>
     </g>
     <g id="text_16">
      <!-- 700 -->
      <defs>
       <path d="M 56.203125 66.609375 
Q 34.96875 32.90625 27.78125 0.984375 
L 17.671875 0.984375 
Q 24.703125 28.65625 46.09375 64.5 
L 6.6875 64.5 
L 6.6875 72.40625 
L 56.203125 72.40625 
z
" id="IPAexGothic-55"/>
      </defs>
      <g transform="translate(7.2 32.247506)scale(0.1 -0.1)">
       <use xlink:href="#IPAexGothic-55"/>
       <use x="62.988281" xlink:href="#IPAexGothic-48"/>
       <use x="125.976562" xlink:href="#IPAexGothic-48"/>
      </g>
     </g>
    </g>
   </g>
   <g id="line2d_16">
    <path clip-path="url(#p7436ac1238)" d="M 49.32804 271.814539 
L 51.027802 272.162625 
L 66.32566 272.162625 
L 68.025422 271.466452 
L 69.725184 272.162625 
L 76.524232 272.162625 
L 78.223994 271.118366 
L 79.923756 271.814539 
L 81.623518 271.466452 
L 83.32328 271.814539 
L 85.023042 271.466452 
L 86.722804 271.466452 
L 88.422566 271.118366 
L 90.122328 272.162625 
L 93.521852 271.466452 
L 95.221614 271.814539 
L 96.921376 270.77028 
L 98.621138 271.118366 
L 100.3209 270.77028 
L 102.020662 269.377934 
L 105.420186 271.466452 
L 107.119948 270.074107 
L 108.81971 270.422193 
L 110.519472 271.466452 
L 112.219234 271.814539 
L 113.918996 269.029848 
L 115.618758 272.162625 
L 117.31852 269.726021 
L 119.018283 269.726021 
L 120.718045 269.029848 
L 122.417807 269.029848 
L 124.117569 266.94133 
L 125.817331 268.333675 
L 127.517093 267.289416 
L 129.216855 266.94133 
L 130.916617 264.504726 
L 132.616379 265.897071 
L 134.316141 265.200898 
L 136.015903 264.156639 
L 137.715665 263.460467 
L 139.415427 260.675776 
L 141.115189 261.720035 
L 142.814951 263.460467 
L 144.514713 259.631517 
L 146.214475 263.460467 
L 147.914237 262.764294 
L 149.613999 257.891085 
L 151.313761 263.460467 
L 153.013523 261.023862 
L 154.713285 262.068121 
L 156.413047 262.764294 
L 158.112809 258.935344 
L 159.812571 261.023862 
L 161.512333 256.846826 
L 163.212095 262.764294 
L 164.911857 258.239172 
L 166.611619 261.023862 
L 168.311381 256.49874 
L 170.011143 261.720035 
L 171.710905 260.675776 
L 173.410667 258.239172 
L 175.110429 254.410222 
L 176.810191 252.66979 
L 178.509953 246.752323 
L 180.209715 250.929359 
L 181.909477 246.752323 
L 183.609239 245.359978 
L 185.309001 234.569301 
L 187.008763 239.094424 
L 188.708525 232.82887 
L 190.408287 227.955661 
L 192.108049 197.324064 
L 193.807811 206.026222 
L 195.507573 205.678136 
L 197.207335 171.565675 
L 198.907097 172.261848 
L 200.606859 151.028582 
L 202.306621 172.609934 
L 204.006383 151.028582 
L 205.706145 170.17333 
L 207.405907 184.792956 
L 209.105669 161.819258 
L 210.805431 177.483143 
L 212.505194 175.742711 
L 214.204956 193.495114 
L 215.904718 187.22956 
L 217.60448 188.969992 
L 219.304242 204.28579 
L 221.004004 197.324064 
L 224.403528 202.197272 
L 226.10329 223.778625 
L 227.803052 218.55733 
L 229.502814 222.38628 
L 231.202576 232.132697 
L 232.902338 218.55733 
L 234.6021 235.61356 
L 236.301862 234.221215 
L 238.001624 246.05615 
L 239.701386 235.265474 
L 241.401148 247.100409 
L 243.10091 246.05615 
L 244.800672 242.923373 
L 246.500434 251.625531 
L 248.200196 254.410222 
L 249.899958 248.840841 
L 251.59972 252.66979 
L 253.299482 252.321704 
L 254.999244 259.979603 
L 256.699006 262.068121 
L 258.398768 260.32769 
L 260.09853 262.764294 
L 261.798292 262.068121 
L 263.498054 264.504726 
L 265.197816 265.897071 
L 266.897578 265.897071 
L 268.59734 265.200898 
L 270.297102 265.200898 
L 271.996864 266.593244 
L 273.696626 267.289416 
L 275.396388 265.897071 
L 277.09615 269.029848 
L 278.795912 266.94133 
L 280.495674 269.029848 
L 282.195436 266.245157 
L 283.895198 269.726021 
L 285.59496 268.333675 
L 287.294722 266.593244 
L 288.994484 269.029848 
L 290.694246 266.94133 
L 292.394008 269.726021 
L 294.09377 269.726021 
L 295.793532 268.681762 
L 297.493294 268.681762 
L 299.193056 270.074107 
L 300.892818 270.77028 
L 302.59258 271.118366 
L 304.292342 268.333675 
L 305.992105 269.726021 
L 307.691867 270.422193 
L 309.391629 270.422193 
L 311.091391 267.637503 
L 312.791153 268.681762 
L 314.490915 268.333675 
L 316.190677 269.377934 
L 317.890439 266.593244 
L 319.590201 267.637503 
L 321.289963 265.548985 
L 322.989725 269.726021 
L 326.389249 266.94133 
L 328.089011 267.289416 
L 329.788773 269.029848 
L 331.488535 267.985589 
L 333.188297 266.593244 
L 334.888059 267.637503 
L 336.587821 267.289416 
L 338.287583 269.029848 
L 339.987345 261.023862 
L 341.687107 264.852812 
L 343.386869 261.720035 
L 345.086631 261.371949 
L 346.786393 263.460467 
L 348.486155 254.758308 
L 350.185917 262.068121 
L 351.885679 257.542999 
L 353.585441 257.891085 
L 355.285203 255.454481 
L 356.984965 256.49874 
L 358.684727 256.49874 
L 360.384489 255.454481 
L 362.084251 256.49874 
L 363.784013 255.454481 
L 365.483775 261.371949 
L 367.183537 264.156639 
L 368.883299 261.023862 
L 372.282823 271.118366 
L 373.982585 271.466452 
L 373.982585 271.466452 
" style="fill:none;stroke:#1f77b4;stroke-linecap:square;stroke-width:1.5;"/>
    <defs>
     <path d="M 0 3 
C 0.795609 3 1.55874 2.683901 2.12132 2.12132 
C 2.683901 1.55874 3 0.795609 3 0 
C 3 -0.795609 2.683901 -1.55874 2.12132 -2.12132 
C 1.55874 -2.683901 0.795609 -3 0 -3 
C -0.795609 -3 -1.55874 -2.683901 -2.12132 -2.12132 
C -2.683901 -1.55874 -3 -0.795609 -3 0 
C -3 0.795609 -2.683901 1.55874 -2.12132 2.12132 
C -1.55874 2.683901 -0.795609 3 0 3 
z
" id="m0faf971d4a" style="stroke:#1f77b4;"/>
    </defs>
    <g clip-path="url(#p7436ac1238)">
     <use style="fill:#1f77b4;stroke:#1f77b4;" x="49.32804" xlink:href="#m0faf971d4a" y="271.814539"/>
     <use style="fill:#1f77b4;stroke:#1f77b4;" x="51.027802" xlink:href="#m0faf971d4a" y="272.162625"/>
     <use style="fill:#1f77b4;stroke:#1f77b4;" x="52.727564" xlink:href="#m0faf971d4a" y="272.162625"/>
     <use style="fill:#1f77b4;stroke:#1f77b4;" x="54.427326" xlink:href="#m0faf971d4a" y="272.162625"/>
     <use style="fill:#1f77b4;stroke:#1f77b4;" x="56.127088" xlink:href="#m0faf971d4a" y="272.162625"/>
     <use style="fill:#1f77b4;stroke:#1f77b4;" x="57.82685" xlink:href="#m0faf971d4a" y="272.162625"/>
     <use style="fill:#1f77b4;stroke:#1f77b4;" x="59.526612" xlink:href="#m0faf971d4a" y="272.162625"/>
     <use style="fill:#1f77b4;stroke:#1f77b4;" x="61.226374" xlink:href="#m0faf971d4a" y="272.162625"/>
     <use style="fill:#1f77b4;stroke:#1f77b4;" x="62.926136" xlink:href="#m0faf971d4a" y="272.162625"/>
     <use style="fill:#1f77b4;stroke:#1f77b4;" x="64.625898" xlink:href="#m0faf971d4a" y="272.162625"/>
     <use style="fill:#1f77b4;stroke:#1f77b4;" x="66.32566" xlink:href="#m0faf971d4a" y="272.162625"/>
     <use style="fill:#1f77b4;stroke:#1f77b4;" x="68.025422" xlink:href="#m0faf971d4a" y="271.466452"/>
     <use style="fill:#1f77b4;stroke:#1f77b4;" x="69.725184" xlink:href="#m0faf971d4a" y="272.162625"/>
     <use style="fill:#1f77b4;stroke:#1f77b4;" x="71.424946" xlink:href="#m0faf971d4a" y="272.162625"/>
     <use style="fill:#1f77b4;stroke:#1f77b4;" x="73.124708" xlink:href="#m0faf971d4a" y="272.162625"/>
     <use style="fill:#1f77b4;stroke:#1f77b4;" x="74.82447" xlink:href="#m0faf971d4a" y="272.162625"/>
     <use style="fill:#1f77b4;stroke:#1f77b4;" x="76.524232" xlink:href="#m0faf971d4a" y="272.162625"/>
     <use style="fill:#1f77b4;stroke:#1f77b4;" x="78.223994" xlink:href="#m0faf971d4a" y="271.118366"/>
     <use style="fill:#1f77b4;stroke:#1f77b4;" x="79.923756" xlink:href="#m0faf971d4a" y="271.814539"/>
     <use style="fill:#1f77b4;stroke:#1f77b4;" x="81.623518" xlink:href="#m0faf971d4a" y="271.466452"/>
     <use style="fill:#1f77b4;stroke:#1f77b4;" x="83.32328" xlink:href="#m0faf971d4a" y="271.814539"/>
     <use style="fill:#1f77b4;stroke:#1f77b4;" x="85.023042" xlink:href="#m0faf971d4a" y="271.466452"/>
     <use style="fill:#1f77b4;stroke:#1f77b4;" x="86.722804" xlink:href="#m0faf971d4a" y="271.466452"/>
     <use style="fill:#1f77b4;stroke:#1f77b4;" x="88.422566" xlink:href="#m0faf971d4a" y="271.118366"/>
     <use style="fill:#1f77b4;stroke:#1f77b4;" x="90.122328" xlink:href="#m0faf971d4a" y="272.162625"/>
     <use style="fill:#1f77b4;stroke:#1f77b4;" x="91.82209" xlink:href="#m0faf971d4a" y="271.814539"/>
     <use style="fill:#1f77b4;stroke:#1f77b4;" x="93.521852" xlink:href="#m0faf971d4a" y="271.466452"/>
     <use style="fill:#1f77b4;stroke:#1f77b4;" x="95.221614" xlink:href="#m0faf971d4a" y="271.814539"/>
     <use style="fill:#1f77b4;stroke:#1f77b4;" x="96.921376" xlink:href="#m0faf971d4a" y="270.77028"/>
     <use style="fill:#1f77b4;stroke:#1f77b4;" x="98.621138" xlink:href="#m0faf971d4a" y="271.118366"/>
     <use style="fill:#1f77b4;stroke:#1f77b4;" x="100.3209" xlink:href="#m0faf971d4a" y="270.77028"/>
     <use style="fill:#1f77b4;stroke:#1f77b4;" x="102.020662" xlink:href="#m0faf971d4a" y="269.377934"/>
     <use style="fill:#1f77b4;stroke:#1f77b4;" x="103.720424" xlink:href="#m0faf971d4a" y="270.422193"/>
     <use style="fill:#1f77b4;stroke:#1f77b4;" x="105.420186" xlink:href="#m0faf971d4a" y="271.466452"/>
     <use style="fill:#1f77b4;stroke:#1f77b4;" x="107.119948" xlink:href="#m0faf971d4a" y="270.074107"/>
     <use style="fill:#1f77b4;stroke:#1f77b4;" x="108.81971" xlink:href="#m0faf971d4a" y="270.422193"/>
     <use style="fill:#1f77b4;stroke:#1f77b4;" x="110.519472" xlink:href="#m0faf971d4a" y="271.466452"/>
     <use style="fill:#1f77b4;stroke:#1f77b4;" x="112.219234" xlink:href="#m0faf971d4a" y="271.814539"/>
     <use style="fill:#1f77b4;stroke:#1f77b4;" x="113.918996" xlink:href="#m0faf971d4a" y="269.029848"/>
     <use style="fill:#1f77b4;stroke:#1f77b4;" x="115.618758" xlink:href="#m0faf971d4a" y="272.162625"/>
     <use style="fill:#1f77b4;stroke:#1f77b4;" x="117.31852" xlink:href="#m0faf971d4a" y="269.726021"/>
     <use style="fill:#1f77b4;stroke:#1f77b4;" x="119.018283" xlink:href="#m0faf971d4a" y="269.726021"/>
     <use style="fill:#1f77b4;stroke:#1f77b4;" x="120.718045" xlink:href="#m0faf971d4a" y="269.029848"/>
     <use style="fill:#1f77b4;stroke:#1f77b4;" x="122.417807" xlink:href="#m0faf971d4a" y="269.029848"/>
     <use style="fill:#1f77b4;stroke:#1f77b4;" x="124.117569" xlink:href="#m0faf971d4a" y="266.94133"/>
     <use style="fill:#1f77b4;stroke:#1f77b4;" x="125.817331" xlink:href="#m0faf971d4a" y="268.333675"/>
     <use style="fill:#1f77b4;stroke:#1f77b4;" x="127.517093" xlink:href="#m0faf971d4a" y="267.289416"/>
     <use style="fill:#1f77b4;stroke:#1f77b4;" x="129.216855" xlink:href="#m0faf971d4a" y="266.94133"/>
     <use style="fill:#1f77b4;stroke:#1f77b4;" x="130.916617" xlink:href="#m0faf971d4a" y="264.504726"/>
     <use style="fill:#1f77b4;stroke:#1f77b4;" x="132.616379" xlink:href="#m0faf971d4a" y="265.897071"/>
     <use style="fill:#1f77b4;stroke:#1f77b4;" x="134.316141" xlink:href="#m0faf971d4a" y="265.200898"/>
     <use style="fill:#1f77b4;stroke:#1f77b4;" x="136.015903" xlink:href="#m0faf971d4a" y="264.156639"/>
     <use style="fill:#1f77b4;stroke:#1f77b4;" x="137.715665" xlink:href="#m0faf971d4a" y="263.460467"/>
     <use style="fill:#1f77b4;stroke:#1f77b4;" x="139.415427" xlink:href="#m0faf971d4a" y="260.675776"/>
     <use style="fill:#1f77b4;stroke:#1f77b4;" x="141.115189" xlink:href="#m0faf971d4a" y="261.720035"/>
     <use style="fill:#1f77b4;stroke:#1f77b4;" x="142.814951" xlink:href="#m0faf971d4a" y="263.460467"/>
     <use style="fill:#1f77b4;stroke:#1f77b4;" x="144.514713" xlink:href="#m0faf971d4a" y="259.631517"/>
     <use style="fill:#1f77b4;stroke:#1f77b4;" x="146.214475" xlink:href="#m0faf971d4a" y="263.460467"/>
     <use style="fill:#1f77b4;stroke:#1f77b4;" x="147.914237" xlink:href="#m0faf971d4a" y="262.764294"/>
     <use style="fill:#1f77b4;stroke:#1f77b4;" x="149.613999" xlink:href="#m0faf971d4a" y="257.891085"/>
     <use style="fill:#1f77b4;stroke:#1f77b4;" x="151.313761" xlink:href="#m0faf971d4a" y="263.460467"/>
     <use style="fill:#1f77b4;stroke:#1f77b4;" x="153.013523" xlink:href="#m0faf971d4a" y="261.023862"/>
     <use style="fill:#1f77b4;stroke:#1f77b4;" x="154.713285" xlink:href="#m0faf971d4a" y="262.068121"/>
     <use style="fill:#1f77b4;stroke:#1f77b4;" x="156.413047" xlink:href="#m0faf971d4a" y="262.764294"/>
     <use style="fill:#1f77b4;stroke:#1f77b4;" x="158.112809" xlink:href="#m0faf971d4a" y="258.935344"/>
     <use style="fill:#1f77b4;stroke:#1f77b4;" x="159.812571" xlink:href="#m0faf971d4a" y="261.023862"/>
     <use style="fill:#1f77b4;stroke:#1f77b4;" x="161.512333" xlink:href="#m0faf971d4a" y="256.846826"/>
     <use style="fill:#1f77b4;stroke:#1f77b4;" x="163.212095" xlink:href="#m0faf971d4a" y="262.764294"/>
     <use style="fill:#1f77b4;stroke:#1f77b4;" x="164.911857" xlink:href="#m0faf971d4a" y="258.239172"/>
     <use style="fill:#1f77b4;stroke:#1f77b4;" x="166.611619" xlink:href="#m0faf971d4a" y="261.023862"/>
     <use style="fill:#1f77b4;stroke:#1f77b4;" x="168.311381" xlink:href="#m0faf971d4a" y="256.49874"/>
     <use style="fill:#1f77b4;stroke:#1f77b4;" x="170.011143" xlink:href="#m0faf971d4a" y="261.720035"/>
     <use style="fill:#1f77b4;stroke:#1f77b4;" x="171.710905" xlink:href="#m0faf971d4a" y="260.675776"/>
     <use style="fill:#1f77b4;stroke:#1f77b4;" x="173.410667" xlink:href="#m0faf971d4a" y="258.239172"/>
     <use style="fill:#1f77b4;stroke:#1f77b4;" x="175.110429" xlink:href="#m0faf971d4a" y="254.410222"/>
     <use style="fill:#1f77b4;stroke:#1f77b4;" x="176.810191" xlink:href="#m0faf971d4a" y="252.66979"/>
     <use style="fill:#1f77b4;stroke:#1f77b4;" x="178.509953" xlink:href="#m0faf971d4a" y="246.752323"/>
     <use style="fill:#1f77b4;stroke:#1f77b4;" x="180.209715" xlink:href="#m0faf971d4a" y="250.929359"/>
     <use style="fill:#1f77b4;stroke:#1f77b4;" x="181.909477" xlink:href="#m0faf971d4a" y="246.752323"/>
     <use style="fill:#1f77b4;stroke:#1f77b4;" x="183.609239" xlink:href="#m0faf971d4a" y="245.359978"/>
     <use style="fill:#1f77b4;stroke:#1f77b4;" x="185.309001" xlink:href="#m0faf971d4a" y="234.569301"/>
     <use style="fill:#1f77b4;stroke:#1f77b4;" x="187.008763" xlink:href="#m0faf971d4a" y="239.094424"/>
     <use style="fill:#1f77b4;stroke:#1f77b4;" x="188.708525" xlink:href="#m0faf971d4a" y="232.82887"/>
     <use style="fill:#1f77b4;stroke:#1f77b4;" x="190.408287" xlink:href="#m0faf971d4a" y="227.955661"/>
     <use style="fill:#1f77b4;stroke:#1f77b4;" x="192.108049" xlink:href="#m0faf971d4a" y="197.324064"/>
     <use style="fill:#1f77b4;stroke:#1f77b4;" x="193.807811" xlink:href="#m0faf971d4a" y="206.026222"/>
     <use style="fill:#1f77b4;stroke:#1f77b4;" x="195.507573" xlink:href="#m0faf971d4a" y="205.678136"/>
     <use style="fill:#1f77b4;stroke:#1f77b4;" x="197.207335" xlink:href="#m0faf971d4a" y="171.565675"/>
     <use style="fill:#1f77b4;stroke:#1f77b4;" x="198.907097" xlink:href="#m0faf971d4a" y="172.261848"/>
     <use style="fill:#1f77b4;stroke:#1f77b4;" x="200.606859" xlink:href="#m0faf971d4a" y="151.028582"/>
     <use style="fill:#1f77b4;stroke:#1f77b4;" x="202.306621" xlink:href="#m0faf971d4a" y="172.609934"/>
     <use style="fill:#1f77b4;stroke:#1f77b4;" x="204.006383" xlink:href="#m0faf971d4a" y="151.028582"/>
     <use style="fill:#1f77b4;stroke:#1f77b4;" x="205.706145" xlink:href="#m0faf971d4a" y="170.17333"/>
     <use style="fill:#1f77b4;stroke:#1f77b4;" x="207.405907" xlink:href="#m0faf971d4a" y="184.792956"/>
     <use style="fill:#1f77b4;stroke:#1f77b4;" x="209.105669" xlink:href="#m0faf971d4a" y="161.819258"/>
     <use style="fill:#1f77b4;stroke:#1f77b4;" x="210.805431" xlink:href="#m0faf971d4a" y="177.483143"/>
     <use style="fill:#1f77b4;stroke:#1f77b4;" x="212.505194" xlink:href="#m0faf971d4a" y="175.742711"/>
     <use style="fill:#1f77b4;stroke:#1f77b4;" x="214.204956" xlink:href="#m0faf971d4a" y="193.495114"/>
     <use style="fill:#1f77b4;stroke:#1f77b4;" x="215.904718" xlink:href="#m0faf971d4a" y="187.22956"/>
     <use style="fill:#1f77b4;stroke:#1f77b4;" x="217.60448" xlink:href="#m0faf971d4a" y="188.969992"/>
     <use style="fill:#1f77b4;stroke:#1f77b4;" x="219.304242" xlink:href="#m0faf971d4a" y="204.28579"/>
     <use style="fill:#1f77b4;stroke:#1f77b4;" x="221.004004" xlink:href="#m0faf971d4a" y="197.324064"/>
     <use style="fill:#1f77b4;stroke:#1f77b4;" x="222.703766" xlink:href="#m0faf971d4a" y="199.760668"/>
     <use style="fill:#1f77b4;stroke:#1f77b4;" x="224.403528" xlink:href="#m0faf971d4a" y="202.197272"/>
     <use style="fill:#1f77b4;stroke:#1f77b4;" x="226.10329" xlink:href="#m0faf971d4a" y="223.778625"/>
     <use style="fill:#1f77b4;stroke:#1f77b4;" x="227.803052" xlink:href="#m0faf971d4a" y="218.55733"/>
     <use style="fill:#1f77b4;stroke:#1f77b4;" x="229.502814" xlink:href="#m0faf971d4a" y="222.38628"/>
     <use style="fill:#1f77b4;stroke:#1f77b4;" x="231.202576" xlink:href="#m0faf971d4a" y="232.132697"/>
     <use style="fill:#1f77b4;stroke:#1f77b4;" x="232.902338" xlink:href="#m0faf971d4a" y="218.55733"/>
     <use style="fill:#1f77b4;stroke:#1f77b4;" x="234.6021" xlink:href="#m0faf971d4a" y="235.61356"/>
     <use style="fill:#1f77b4;stroke:#1f77b4;" x="236.301862" xlink:href="#m0faf971d4a" y="234.221215"/>
     <use style="fill:#1f77b4;stroke:#1f77b4;" x="238.001624" xlink:href="#m0faf971d4a" y="246.05615"/>
     <use style="fill:#1f77b4;stroke:#1f77b4;" x="239.701386" xlink:href="#m0faf971d4a" y="235.265474"/>
     <use style="fill:#1f77b4;stroke:#1f77b4;" x="241.401148" xlink:href="#m0faf971d4a" y="247.100409"/>
     <use style="fill:#1f77b4;stroke:#1f77b4;" x="243.10091" xlink:href="#m0faf971d4a" y="246.05615"/>
     <use style="fill:#1f77b4;stroke:#1f77b4;" x="244.800672" xlink:href="#m0faf971d4a" y="242.923373"/>
     <use style="fill:#1f77b4;stroke:#1f77b4;" x="246.500434" xlink:href="#m0faf971d4a" y="251.625531"/>
     <use style="fill:#1f77b4;stroke:#1f77b4;" x="248.200196" xlink:href="#m0faf971d4a" y="254.410222"/>
     <use style="fill:#1f77b4;stroke:#1f77b4;" x="249.899958" xlink:href="#m0faf971d4a" y="248.840841"/>
     <use style="fill:#1f77b4;stroke:#1f77b4;" x="251.59972" xlink:href="#m0faf971d4a" y="252.66979"/>
     <use style="fill:#1f77b4;stroke:#1f77b4;" x="253.299482" xlink:href="#m0faf971d4a" y="252.321704"/>
     <use style="fill:#1f77b4;stroke:#1f77b4;" x="254.999244" xlink:href="#m0faf971d4a" y="259.979603"/>
     <use style="fill:#1f77b4;stroke:#1f77b4;" x="256.699006" xlink:href="#m0faf971d4a" y="262.068121"/>
     <use style="fill:#1f77b4;stroke:#1f77b4;" x="258.398768" xlink:href="#m0faf971d4a" y="260.32769"/>
     <use style="fill:#1f77b4;stroke:#1f77b4;" x="260.09853" xlink:href="#m0faf971d4a" y="262.764294"/>
     <use style="fill:#1f77b4;stroke:#1f77b4;" x="261.798292" xlink:href="#m0faf971d4a" y="262.068121"/>
     <use style="fill:#1f77b4;stroke:#1f77b4;" x="263.498054" xlink:href="#m0faf971d4a" y="264.504726"/>
     <use style="fill:#1f77b4;stroke:#1f77b4;" x="265.197816" xlink:href="#m0faf971d4a" y="265.897071"/>
     <use style="fill:#1f77b4;stroke:#1f77b4;" x="266.897578" xlink:href="#m0faf971d4a" y="265.897071"/>
     <use style="fill:#1f77b4;stroke:#1f77b4;" x="268.59734" xlink:href="#m0faf971d4a" y="265.200898"/>
     <use style="fill:#1f77b4;stroke:#1f77b4;" x="270.297102" xlink:href="#m0faf971d4a" y="265.200898"/>
     <use style="fill:#1f77b4;stroke:#1f77b4;" x="271.996864" xlink:href="#m0faf971d4a" y="266.593244"/>
     <use style="fill:#1f77b4;stroke:#1f77b4;" x="273.696626" xlink:href="#m0faf971d4a" y="267.289416"/>
     <use style="fill:#1f77b4;stroke:#1f77b4;" x="275.396388" xlink:href="#m0faf971d4a" y="265.897071"/>
     <use style="fill:#1f77b4;stroke:#1f77b4;" x="277.09615" xlink:href="#m0faf971d4a" y="269.029848"/>
     <use style="fill:#1f77b4;stroke:#1f77b4;" x="278.795912" xlink:href="#m0faf971d4a" y="266.94133"/>
     <use style="fill:#1f77b4;stroke:#1f77b4;" x="280.495674" xlink:href="#m0faf971d4a" y="269.029848"/>
     <use style="fill:#1f77b4;stroke:#1f77b4;" x="282.195436" xlink:href="#m0faf971d4a" y="266.245157"/>
     <use style="fill:#1f77b4;stroke:#1f77b4;" x="283.895198" xlink:href="#m0faf971d4a" y="269.726021"/>
     <use style="fill:#1f77b4;stroke:#1f77b4;" x="285.59496" xlink:href="#m0faf971d4a" y="268.333675"/>
     <use style="fill:#1f77b4;stroke:#1f77b4;" x="287.294722" xlink:href="#m0faf971d4a" y="266.593244"/>
     <use style="fill:#1f77b4;stroke:#1f77b4;" x="288.994484" xlink:href="#m0faf971d4a" y="269.029848"/>
     <use style="fill:#1f77b4;stroke:#1f77b4;" x="290.694246" xlink:href="#m0faf971d4a" y="266.94133"/>
     <use style="fill:#1f77b4;stroke:#1f77b4;" x="292.394008" xlink:href="#m0faf971d4a" y="269.726021"/>
     <use style="fill:#1f77b4;stroke:#1f77b4;" x="294.09377" xlink:href="#m0faf971d4a" y="269.726021"/>
     <use style="fill:#1f77b4;stroke:#1f77b4;" x="295.793532" xlink:href="#m0faf971d4a" y="268.681762"/>
     <use style="fill:#1f77b4;stroke:#1f77b4;" x="297.493294" xlink:href="#m0faf971d4a" y="268.681762"/>
     <use style="fill:#1f77b4;stroke:#1f77b4;" x="299.193056" xlink:href="#m0faf971d4a" y="270.074107"/>
     <use style="fill:#1f77b4;stroke:#1f77b4;" x="300.892818" xlink:href="#m0faf971d4a" y="270.77028"/>
     <use style="fill:#1f77b4;stroke:#1f77b4;" x="302.59258" xlink:href="#m0faf971d4a" y="271.118366"/>
     <use style="fill:#1f77b4;stroke:#1f77b4;" x="304.292342" xlink:href="#m0faf971d4a" y="268.333675"/>
     <use style="fill:#1f77b4;stroke:#1f77b4;" x="305.992105" xlink:href="#m0faf971d4a" y="269.726021"/>
     <use style="fill:#1f77b4;stroke:#1f77b4;" x="307.691867" xlink:href="#m0faf971d4a" y="270.422193"/>
     <use style="fill:#1f77b4;stroke:#1f77b4;" x="309.391629" xlink:href="#m0faf971d4a" y="270.422193"/>
     <use style="fill:#1f77b4;stroke:#1f77b4;" x="311.091391" xlink:href="#m0faf971d4a" y="267.637503"/>
     <use style="fill:#1f77b4;stroke:#1f77b4;" x="312.791153" xlink:href="#m0faf971d4a" y="268.681762"/>
     <use style="fill:#1f77b4;stroke:#1f77b4;" x="314.490915" xlink:href="#m0faf971d4a" y="268.333675"/>
     <use style="fill:#1f77b4;stroke:#1f77b4;" x="316.190677" xlink:href="#m0faf971d4a" y="269.377934"/>
     <use style="fill:#1f77b4;stroke:#1f77b4;" x="317.890439" xlink:href="#m0faf971d4a" y="266.593244"/>
     <use style="fill:#1f77b4;stroke:#1f77b4;" x="319.590201" xlink:href="#m0faf971d4a" y="267.637503"/>
     <use style="fill:#1f77b4;stroke:#1f77b4;" x="321.289963" xlink:href="#m0faf971d4a" y="265.548985"/>
     <use style="fill:#1f77b4;stroke:#1f77b4;" x="322.989725" xlink:href="#m0faf971d4a" y="269.726021"/>
     <use style="fill:#1f77b4;stroke:#1f77b4;" x="324.689487" xlink:href="#m0faf971d4a" y="268.333675"/>
     <use style="fill:#1f77b4;stroke:#1f77b4;" x="326.389249" xlink:href="#m0faf971d4a" y="266.94133"/>
     <use style="fill:#1f77b4;stroke:#1f77b4;" x="328.089011" xlink:href="#m0faf971d4a" y="267.289416"/>
     <use style="fill:#1f77b4;stroke:#1f77b4;" x="329.788773" xlink:href="#m0faf971d4a" y="269.029848"/>
     <use style="fill:#1f77b4;stroke:#1f77b4;" x="331.488535" xlink:href="#m0faf971d4a" y="267.985589"/>
     <use style="fill:#1f77b4;stroke:#1f77b4;" x="333.188297" xlink:href="#m0faf971d4a" y="266.593244"/>
     <use style="fill:#1f77b4;stroke:#1f77b4;" x="334.888059" xlink:href="#m0faf971d4a" y="267.637503"/>
     <use style="fill:#1f77b4;stroke:#1f77b4;" x="336.587821" xlink:href="#m0faf971d4a" y="267.289416"/>
     <use style="fill:#1f77b4;stroke:#1f77b4;" x="338.287583" xlink:href="#m0faf971d4a" y="269.029848"/>
     <use style="fill:#1f77b4;stroke:#1f77b4;" x="339.987345" xlink:href="#m0faf971d4a" y="261.023862"/>
     <use style="fill:#1f77b4;stroke:#1f77b4;" x="341.687107" xlink:href="#m0faf971d4a" y="264.852812"/>
     <use style="fill:#1f77b4;stroke:#1f77b4;" x="343.386869" xlink:href="#m0faf971d4a" y="261.720035"/>
     <use style="fill:#1f77b4;stroke:#1f77b4;" x="345.086631" xlink:href="#m0faf971d4a" y="261.371949"/>
     <use style="fill:#1f77b4;stroke:#1f77b4;" x="346.786393" xlink:href="#m0faf971d4a" y="263.460467"/>
     <use style="fill:#1f77b4;stroke:#1f77b4;" x="348.486155" xlink:href="#m0faf971d4a" y="254.758308"/>
     <use style="fill:#1f77b4;stroke:#1f77b4;" x="350.185917" xlink:href="#m0faf971d4a" y="262.068121"/>
     <use style="fill:#1f77b4;stroke:#1f77b4;" x="351.885679" xlink:href="#m0faf971d4a" y="257.542999"/>
     <use style="fill:#1f77b4;stroke:#1f77b4;" x="353.585441" xlink:href="#m0faf971d4a" y="257.891085"/>
     <use style="fill:#1f77b4;stroke:#1f77b4;" x="355.285203" xlink:href="#m0faf971d4a" y="255.454481"/>
     <use style="fill:#1f77b4;stroke:#1f77b4;" x="356.984965" xlink:href="#m0faf971d4a" y="256.49874"/>
     <use style="fill:#1f77b4;stroke:#1f77b4;" x="358.684727" xlink:href="#m0faf971d4a" y="256.49874"/>
     <use style="fill:#1f77b4;stroke:#1f77b4;" x="360.384489" xlink:href="#m0faf971d4a" y="255.454481"/>
     <use style="fill:#1f77b4;stroke:#1f77b4;" x="362.084251" xlink:href="#m0faf971d4a" y="256.49874"/>
     <use style="fill:#1f77b4;stroke:#1f77b4;" x="363.784013" xlink:href="#m0faf971d4a" y="255.454481"/>
     <use style="fill:#1f77b4;stroke:#1f77b4;" x="365.483775" xlink:href="#m0faf971d4a" y="261.371949"/>
     <use style="fill:#1f77b4;stroke:#1f77b4;" x="367.183537" xlink:href="#m0faf971d4a" y="264.156639"/>
     <use style="fill:#1f77b4;stroke:#1f77b4;" x="368.883299" xlink:href="#m0faf971d4a" y="261.023862"/>
     <use style="fill:#1f77b4;stroke:#1f77b4;" x="370.583061" xlink:href="#m0faf971d4a" y="266.245157"/>
     <use style="fill:#1f77b4;stroke:#1f77b4;" x="372.282823" xlink:href="#m0faf971d4a" y="271.118366"/>
     <use style="fill:#1f77b4;stroke:#1f77b4;" x="373.982585" xlink:href="#m0faf971d4a" y="271.466452"/>
    </g>
   </g>
   <g id="line2d_17">
    <path clip-path="url(#p7436ac1238)" d="M 49.32804 272.162625 
L 68.025422 272.162625 
L 69.725184 271.814539 
L 71.424946 272.162625 
L 83.32328 272.162625 
L 85.023042 271.814539 
L 88.422566 271.814539 
L 90.122328 272.162625 
L 91.82209 271.118366 
L 93.521852 271.814539 
L 95.221614 270.074107 
L 96.921376 271.466452 
L 98.621138 271.118366 
L 100.3209 272.162625 
L 102.020662 272.162625 
L 103.720424 270.77028 
L 107.119948 272.162625 
L 108.81971 271.814539 
L 110.519472 272.162625 
L 112.219234 272.162625 
L 113.918996 271.466452 
L 117.31852 272.162625 
L 122.417807 267.985589 
L 124.117569 270.074107 
L 125.817331 269.726021 
L 127.517093 268.681762 
L 129.216855 269.029848 
L 130.916617 269.029848 
L 132.616379 266.245157 
L 134.316141 263.11238 
L 136.015903 268.681762 
L 137.715665 267.985589 
L 139.415427 266.94133 
L 141.115189 266.245157 
L 142.814951 263.460467 
L 144.514713 265.200898 
L 146.214475 269.377934 
L 147.914237 267.289416 
L 151.313761 265.200898 
L 153.013523 259.631517 
L 154.713285 259.631517 
L 156.413047 252.321704 
L 158.112809 258.935344 
L 159.812571 259.283431 
L 161.512333 263.11238 
L 163.212095 248.144668 
L 166.611619 256.49874 
L 168.311381 257.891085 
L 170.011143 253.365963 
L 171.710905 261.720035 
L 173.410667 265.548985 
L 175.110429 256.150654 
L 176.810191 256.846826 
L 178.509953 256.150654 
L 180.209715 256.49874 
L 181.909477 257.194913 
L 183.609239 257.194913 
L 185.309001 258.935344 
L 187.008763 244.315719 
L 188.708525 240.138683 
L 190.408287 237.702078 
L 192.108049 228.303747 
L 193.807811 200.456841 
L 195.507573 216.816898 
L 197.207335 220.297762 
L 198.907097 190.014251 
L 200.606859 175.046539 
L 202.306621 170.17333 
L 204.006383 151.376668 
L 205.706145 136.06087 
L 207.405907 166.34438 
L 209.105669 180.61592 
L 210.805431 105.429272 
L 212.505194 105.429272 
L 214.204956 48.691201 
L 215.904718 50.083546 
L 217.60448 30.242625 
L 219.304242 112.390999 
L 221.004004 163.211603 
L 222.703766 90.113474 
L 224.403528 68.880208 
L 226.10329 86.980697 
L 227.803052 75.841934 
L 229.502814 75.145762 
L 231.202576 156.597963 
L 232.902338 145.807287 
L 234.6021 128.751057 
L 236.301862 119.004639 
L 238.001624 123.877848 
L 239.701386 117.96038 
L 241.401148 145.459201 
L 243.10091 199.760668 
L 244.800672 211.94369 
L 246.500434 170.17333 
L 248.200196 196.279805 
L 249.899958 209.158999 
L 251.59972 171.565675 
L 253.299482 166.692467 
L 254.999244 207.070481 
L 258.398768 231.436524 
L 260.09853 237.702078 
L 261.798292 240.834855 
L 263.498054 237.702078 
L 265.197816 232.480783 
L 266.897578 248.492754 
L 268.59734 259.631517 
L 270.297102 245.708064 
L 271.996864 245.359978 
L 273.696626 243.967632 
L 275.396388 250.233186 
L 277.09615 257.542999 
L 278.795912 263.11238 
L 280.495674 264.852812 
L 282.195436 256.49874 
L 283.895198 261.023862 
L 285.59496 258.935344 
L 287.294722 260.32769 
L 288.994484 263.808553 
L 290.694246 262.068121 
L 292.394008 263.460467 
L 294.09377 263.460467 
L 295.793532 256.150654 
L 297.493294 256.150654 
L 299.193056 241.531028 
L 300.892818 257.194913 
L 302.59258 262.764294 
L 304.292342 259.283431 
L 305.992105 254.758308 
L 307.691867 261.720035 
L 309.391629 253.017877 
L 311.091391 254.062136 
L 312.791153 258.239172 
L 316.190677 262.416208 
L 317.890439 256.846826 
L 319.590201 257.891085 
L 321.289963 255.802567 
L 322.989725 252.66979 
L 324.689487 258.239172 
L 326.389249 246.404237 
L 328.089011 247.100409 
L 329.788773 254.410222 
L 331.488535 258.239172 
L 333.188297 248.840841 
L 334.888059 251.277445 
L 336.587821 249.8851 
L 338.287583 254.062136 
L 339.987345 256.49874 
L 341.687107 249.188927 
L 343.386869 237.005906 
L 345.086631 245.011891 
L 346.786393 238.050165 
L 348.486155 235.961647 
L 350.185917 236.309733 
L 351.885679 231.088438 
L 353.585441 223.778625 
L 355.285203 226.911402 
L 356.984965 200.456841 
L 358.684727 189.318078 
L 360.384489 179.571661 
L 362.084251 204.633877 
L 363.784013 207.766654 
L 365.483775 182.008265 
L 367.183537 211.94369 
L 368.883299 143.370683 
L 370.583061 135.016611 
L 372.282823 146.851546 
L 373.982585 185.141042 
L 373.982585 185.141042 
" style="fill:none;stroke:#ff7f0e;stroke-linecap:square;stroke-width:1.5;"/>
    <defs>
     <path d="M 0 3 
C 0.795609 3 1.55874 2.683901 2.12132 2.12132 
C 2.683901 1.55874 3 0.795609 3 0 
C 3 -0.795609 2.683901 -1.55874 2.12132 -2.12132 
C 1.55874 -2.683901 0.795609 -3 0 -3 
C -0.795609 -3 -1.55874 -2.683901 -2.12132 -2.12132 
C -2.683901 -1.55874 -3 -0.795609 -3 0 
C -3 0.795609 -2.683901 1.55874 -2.12132 2.12132 
C -1.55874 2.683901 -0.795609 3 0 3 
z
" id="mcd221361c8" style="stroke:#ff7f0e;"/>
    </defs>
    <g clip-path="url(#p7436ac1238)">
     <use style="fill:#ff7f0e;stroke:#ff7f0e;" x="49.32804" xlink:href="#mcd221361c8" y="272.162625"/>
     <use style="fill:#ff7f0e;stroke:#ff7f0e;" x="51.027802" xlink:href="#mcd221361c8" y="272.162625"/>
     <use style="fill:#ff7f0e;stroke:#ff7f0e;" x="52.727564" xlink:href="#mcd221361c8" y="272.162625"/>
     <use style="fill:#ff7f0e;stroke:#ff7f0e;" x="54.427326" xlink:href="#mcd221361c8" y="272.162625"/>
     <use style="fill:#ff7f0e;stroke:#ff7f0e;" x="56.127088" xlink:href="#mcd221361c8" y="272.162625"/>
     <use style="fill:#ff7f0e;stroke:#ff7f0e;" x="57.82685" xlink:href="#mcd221361c8" y="272.162625"/>
     <use style="fill:#ff7f0e;stroke:#ff7f0e;" x="59.526612" xlink:href="#mcd221361c8" y="272.162625"/>
     <use style="fill:#ff7f0e;stroke:#ff7f0e;" x="61.226374" xlink:href="#mcd221361c8" y="272.162625"/>
     <use style="fill:#ff7f0e;stroke:#ff7f0e;" x="62.926136" xlink:href="#mcd221361c8" y="272.162625"/>
     <use style="fill:#ff7f0e;stroke:#ff7f0e;" x="64.625898" xlink:href="#mcd221361c8" y="272.162625"/>
     <use style="fill:#ff7f0e;stroke:#ff7f0e;" x="66.32566" xlink:href="#mcd221361c8" y="272.162625"/>
     <use style="fill:#ff7f0e;stroke:#ff7f0e;" x="68.025422" xlink:href="#mcd221361c8" y="272.162625"/>
     <use style="fill:#ff7f0e;stroke:#ff7f0e;" x="69.725184" xlink:href="#mcd221361c8" y="271.814539"/>
     <use style="fill:#ff7f0e;stroke:#ff7f0e;" x="71.424946" xlink:href="#mcd221361c8" y="272.162625"/>
     <use style="fill:#ff7f0e;stroke:#ff7f0e;" x="73.124708" xlink:href="#mcd221361c8" y="272.162625"/>
     <use style="fill:#ff7f0e;stroke:#ff7f0e;" x="74.82447" xlink:href="#mcd221361c8" y="272.162625"/>
     <use style="fill:#ff7f0e;stroke:#ff7f0e;" x="76.524232" xlink:href="#mcd221361c8" y="272.162625"/>
     <use style="fill:#ff7f0e;stroke:#ff7f0e;" x="78.223994" xlink:href="#mcd221361c8" y="272.162625"/>
     <use style="fill:#ff7f0e;stroke:#ff7f0e;" x="79.923756" xlink:href="#mcd221361c8" y="272.162625"/>
     <use style="fill:#ff7f0e;stroke:#ff7f0e;" x="81.623518" xlink:href="#mcd221361c8" y="272.162625"/>
     <use style="fill:#ff7f0e;stroke:#ff7f0e;" x="83.32328" xlink:href="#mcd221361c8" y="272.162625"/>
     <use style="fill:#ff7f0e;stroke:#ff7f0e;" x="85.023042" xlink:href="#mcd221361c8" y="271.814539"/>
     <use style="fill:#ff7f0e;stroke:#ff7f0e;" x="86.722804" xlink:href="#mcd221361c8" y="271.814539"/>
     <use style="fill:#ff7f0e;stroke:#ff7f0e;" x="88.422566" xlink:href="#mcd221361c8" y="271.814539"/>
     <use style="fill:#ff7f0e;stroke:#ff7f0e;" x="90.122328" xlink:href="#mcd221361c8" y="272.162625"/>
     <use style="fill:#ff7f0e;stroke:#ff7f0e;" x="91.82209" xlink:href="#mcd221361c8" y="271.118366"/>
     <use style="fill:#ff7f0e;stroke:#ff7f0e;" x="93.521852" xlink:href="#mcd221361c8" y="271.814539"/>
     <use style="fill:#ff7f0e;stroke:#ff7f0e;" x="95.221614" xlink:href="#mcd221361c8" y="270.074107"/>
     <use style="fill:#ff7f0e;stroke:#ff7f0e;" x="96.921376" xlink:href="#mcd221361c8" y="271.466452"/>
     <use style="fill:#ff7f0e;stroke:#ff7f0e;" x="98.621138" xlink:href="#mcd221361c8" y="271.118366"/>
     <use style="fill:#ff7f0e;stroke:#ff7f0e;" x="100.3209" xlink:href="#mcd221361c8" y="272.162625"/>
     <use style="fill:#ff7f0e;stroke:#ff7f0e;" x="102.020662" xlink:href="#mcd221361c8" y="272.162625"/>
     <use style="fill:#ff7f0e;stroke:#ff7f0e;" x="103.720424" xlink:href="#mcd221361c8" y="270.77028"/>
     <use style="fill:#ff7f0e;stroke:#ff7f0e;" x="105.420186" xlink:href="#mcd221361c8" y="271.466452"/>
     <use style="fill:#ff7f0e;stroke:#ff7f0e;" x="107.119948" xlink:href="#mcd221361c8" y="272.162625"/>
     <use style="fill:#ff7f0e;stroke:#ff7f0e;" x="108.81971" xlink:href="#mcd221361c8" y="271.814539"/>
     <use style="fill:#ff7f0e;stroke:#ff7f0e;" x="110.519472" xlink:href="#mcd221361c8" y="272.162625"/>
     <use style="fill:#ff7f0e;stroke:#ff7f0e;" x="112.219234" xlink:href="#mcd221361c8" y="272.162625"/>
     <use style="fill:#ff7f0e;stroke:#ff7f0e;" x="113.918996" xlink:href="#mcd221361c8" y="271.466452"/>
     <use style="fill:#ff7f0e;stroke:#ff7f0e;" x="115.618758" xlink:href="#mcd221361c8" y="271.814539"/>
     <use style="fill:#ff7f0e;stroke:#ff7f0e;" x="117.31852" xlink:href="#mcd221361c8" y="272.162625"/>
     <use style="fill:#ff7f0e;stroke:#ff7f0e;" x="119.018283" xlink:href="#mcd221361c8" y="270.77028"/>
     <use style="fill:#ff7f0e;stroke:#ff7f0e;" x="120.718045" xlink:href="#mcd221361c8" y="269.377934"/>
     <use style="fill:#ff7f0e;stroke:#ff7f0e;" x="122.417807" xlink:href="#mcd221361c8" y="267.985589"/>
     <use style="fill:#ff7f0e;stroke:#ff7f0e;" x="124.117569" xlink:href="#mcd221361c8" y="270.074107"/>
     <use style="fill:#ff7f0e;stroke:#ff7f0e;" x="125.817331" xlink:href="#mcd221361c8" y="269.726021"/>
     <use style="fill:#ff7f0e;stroke:#ff7f0e;" x="127.517093" xlink:href="#mcd221361c8" y="268.681762"/>
     <use style="fill:#ff7f0e;stroke:#ff7f0e;" x="129.216855" xlink:href="#mcd221361c8" y="269.029848"/>
     <use style="fill:#ff7f0e;stroke:#ff7f0e;" x="130.916617" xlink:href="#mcd221361c8" y="269.029848"/>
     <use style="fill:#ff7f0e;stroke:#ff7f0e;" x="132.616379" xlink:href="#mcd221361c8" y="266.245157"/>
     <use style="fill:#ff7f0e;stroke:#ff7f0e;" x="134.316141" xlink:href="#mcd221361c8" y="263.11238"/>
     <use style="fill:#ff7f0e;stroke:#ff7f0e;" x="136.015903" xlink:href="#mcd221361c8" y="268.681762"/>
     <use style="fill:#ff7f0e;stroke:#ff7f0e;" x="137.715665" xlink:href="#mcd221361c8" y="267.985589"/>
     <use style="fill:#ff7f0e;stroke:#ff7f0e;" x="139.415427" xlink:href="#mcd221361c8" y="266.94133"/>
     <use style="fill:#ff7f0e;stroke:#ff7f0e;" x="141.115189" xlink:href="#mcd221361c8" y="266.245157"/>
     <use style="fill:#ff7f0e;stroke:#ff7f0e;" x="142.814951" xlink:href="#mcd221361c8" y="263.460467"/>
     <use style="fill:#ff7f0e;stroke:#ff7f0e;" x="144.514713" xlink:href="#mcd221361c8" y="265.200898"/>
     <use style="fill:#ff7f0e;stroke:#ff7f0e;" x="146.214475" xlink:href="#mcd221361c8" y="269.377934"/>
     <use style="fill:#ff7f0e;stroke:#ff7f0e;" x="147.914237" xlink:href="#mcd221361c8" y="267.289416"/>
     <use style="fill:#ff7f0e;stroke:#ff7f0e;" x="149.613999" xlink:href="#mcd221361c8" y="266.245157"/>
     <use style="fill:#ff7f0e;stroke:#ff7f0e;" x="151.313761" xlink:href="#mcd221361c8" y="265.200898"/>
     <use style="fill:#ff7f0e;stroke:#ff7f0e;" x="153.013523" xlink:href="#mcd221361c8" y="259.631517"/>
     <use style="fill:#ff7f0e;stroke:#ff7f0e;" x="154.713285" xlink:href="#mcd221361c8" y="259.631517"/>
     <use style="fill:#ff7f0e;stroke:#ff7f0e;" x="156.413047" xlink:href="#mcd221361c8" y="252.321704"/>
     <use style="fill:#ff7f0e;stroke:#ff7f0e;" x="158.112809" xlink:href="#mcd221361c8" y="258.935344"/>
     <use style="fill:#ff7f0e;stroke:#ff7f0e;" x="159.812571" xlink:href="#mcd221361c8" y="259.283431"/>
     <use style="fill:#ff7f0e;stroke:#ff7f0e;" x="161.512333" xlink:href="#mcd221361c8" y="263.11238"/>
     <use style="fill:#ff7f0e;stroke:#ff7f0e;" x="163.212095" xlink:href="#mcd221361c8" y="248.144668"/>
     <use style="fill:#ff7f0e;stroke:#ff7f0e;" x="164.911857" xlink:href="#mcd221361c8" y="252.321704"/>
     <use style="fill:#ff7f0e;stroke:#ff7f0e;" x="166.611619" xlink:href="#mcd221361c8" y="256.49874"/>
     <use style="fill:#ff7f0e;stroke:#ff7f0e;" x="168.311381" xlink:href="#mcd221361c8" y="257.891085"/>
     <use style="fill:#ff7f0e;stroke:#ff7f0e;" x="170.011143" xlink:href="#mcd221361c8" y="253.365963"/>
     <use style="fill:#ff7f0e;stroke:#ff7f0e;" x="171.710905" xlink:href="#mcd221361c8" y="261.720035"/>
     <use style="fill:#ff7f0e;stroke:#ff7f0e;" x="173.410667" xlink:href="#mcd221361c8" y="265.548985"/>
     <use style="fill:#ff7f0e;stroke:#ff7f0e;" x="175.110429" xlink:href="#mcd221361c8" y="256.150654"/>
     <use style="fill:#ff7f0e;stroke:#ff7f0e;" x="176.810191" xlink:href="#mcd221361c8" y="256.846826"/>
     <use style="fill:#ff7f0e;stroke:#ff7f0e;" x="178.509953" xlink:href="#mcd221361c8" y="256.150654"/>
     <use style="fill:#ff7f0e;stroke:#ff7f0e;" x="180.209715" xlink:href="#mcd221361c8" y="256.49874"/>
     <use style="fill:#ff7f0e;stroke:#ff7f0e;" x="181.909477" xlink:href="#mcd221361c8" y="257.194913"/>
     <use style="fill:#ff7f0e;stroke:#ff7f0e;" x="183.609239" xlink:href="#mcd221361c8" y="257.194913"/>
     <use style="fill:#ff7f0e;stroke:#ff7f0e;" x="185.309001" xlink:href="#mcd221361c8" y="258.935344"/>
     <use style="fill:#ff7f0e;stroke:#ff7f0e;" x="187.008763" xlink:href="#mcd221361c8" y="244.315719"/>
     <use style="fill:#ff7f0e;stroke:#ff7f0e;" x="188.708525" xlink:href="#mcd221361c8" y="240.138683"/>
     <use style="fill:#ff7f0e;stroke:#ff7f0e;" x="190.408287" xlink:href="#mcd221361c8" y="237.702078"/>
     <use style="fill:#ff7f0e;stroke:#ff7f0e;" x="192.108049" xlink:href="#mcd221361c8" y="228.303747"/>
     <use style="fill:#ff7f0e;stroke:#ff7f0e;" x="193.807811" xlink:href="#mcd221361c8" y="200.456841"/>
     <use style="fill:#ff7f0e;stroke:#ff7f0e;" x="195.507573" xlink:href="#mcd221361c8" y="216.816898"/>
     <use style="fill:#ff7f0e;stroke:#ff7f0e;" x="197.207335" xlink:href="#mcd221361c8" y="220.297762"/>
     <use style="fill:#ff7f0e;stroke:#ff7f0e;" x="198.907097" xlink:href="#mcd221361c8" y="190.014251"/>
     <use style="fill:#ff7f0e;stroke:#ff7f0e;" x="200.606859" xlink:href="#mcd221361c8" y="175.046539"/>
     <use style="fill:#ff7f0e;stroke:#ff7f0e;" x="202.306621" xlink:href="#mcd221361c8" y="170.17333"/>
     <use style="fill:#ff7f0e;stroke:#ff7f0e;" x="204.006383" xlink:href="#mcd221361c8" y="151.376668"/>
     <use style="fill:#ff7f0e;stroke:#ff7f0e;" x="205.706145" xlink:href="#mcd221361c8" y="136.06087"/>
     <use style="fill:#ff7f0e;stroke:#ff7f0e;" x="207.405907" xlink:href="#mcd221361c8" y="166.34438"/>
     <use style="fill:#ff7f0e;stroke:#ff7f0e;" x="209.105669" xlink:href="#mcd221361c8" y="180.61592"/>
     <use style="fill:#ff7f0e;stroke:#ff7f0e;" x="210.805431" xlink:href="#mcd221361c8" y="105.429272"/>
     <use style="fill:#ff7f0e;stroke:#ff7f0e;" x="212.505194" xlink:href="#mcd221361c8" y="105.429272"/>
     <use style="fill:#ff7f0e;stroke:#ff7f0e;" x="214.204956" xlink:href="#mcd221361c8" y="48.691201"/>
     <use style="fill:#ff7f0e;stroke:#ff7f0e;" x="215.904718" xlink:href="#mcd221361c8" y="50.083546"/>
     <use style="fill:#ff7f0e;stroke:#ff7f0e;" x="217.60448" xlink:href="#mcd221361c8" y="30.242625"/>
     <use style="fill:#ff7f0e;stroke:#ff7f0e;" x="219.304242" xlink:href="#mcd221361c8" y="112.390999"/>
     <use style="fill:#ff7f0e;stroke:#ff7f0e;" x="221.004004" xlink:href="#mcd221361c8" y="163.211603"/>
     <use style="fill:#ff7f0e;stroke:#ff7f0e;" x="222.703766" xlink:href="#mcd221361c8" y="90.113474"/>
     <use style="fill:#ff7f0e;stroke:#ff7f0e;" x="224.403528" xlink:href="#mcd221361c8" y="68.880208"/>
     <use style="fill:#ff7f0e;stroke:#ff7f0e;" x="226.10329" xlink:href="#mcd221361c8" y="86.980697"/>
     <use style="fill:#ff7f0e;stroke:#ff7f0e;" x="227.803052" xlink:href="#mcd221361c8" y="75.841934"/>
     <use style="fill:#ff7f0e;stroke:#ff7f0e;" x="229.502814" xlink:href="#mcd221361c8" y="75.145762"/>
     <use style="fill:#ff7f0e;stroke:#ff7f0e;" x="231.202576" xlink:href="#mcd221361c8" y="156.597963"/>
     <use style="fill:#ff7f0e;stroke:#ff7f0e;" x="232.902338" xlink:href="#mcd221361c8" y="145.807287"/>
     <use style="fill:#ff7f0e;stroke:#ff7f0e;" x="234.6021" xlink:href="#mcd221361c8" y="128.751057"/>
     <use style="fill:#ff7f0e;stroke:#ff7f0e;" x="236.301862" xlink:href="#mcd221361c8" y="119.004639"/>
     <use style="fill:#ff7f0e;stroke:#ff7f0e;" x="238.001624" xlink:href="#mcd221361c8" y="123.877848"/>
     <use style="fill:#ff7f0e;stroke:#ff7f0e;" x="239.701386" xlink:href="#mcd221361c8" y="117.96038"/>
     <use style="fill:#ff7f0e;stroke:#ff7f0e;" x="241.401148" xlink:href="#mcd221361c8" y="145.459201"/>
     <use style="fill:#ff7f0e;stroke:#ff7f0e;" x="243.10091" xlink:href="#mcd221361c8" y="199.760668"/>
     <use style="fill:#ff7f0e;stroke:#ff7f0e;" x="244.800672" xlink:href="#mcd221361c8" y="211.94369"/>
     <use style="fill:#ff7f0e;stroke:#ff7f0e;" x="246.500434" xlink:href="#mcd221361c8" y="170.17333"/>
     <use style="fill:#ff7f0e;stroke:#ff7f0e;" x="248.200196" xlink:href="#mcd221361c8" y="196.279805"/>
     <use style="fill:#ff7f0e;stroke:#ff7f0e;" x="249.899958" xlink:href="#mcd221361c8" y="209.158999"/>
     <use style="fill:#ff7f0e;stroke:#ff7f0e;" x="251.59972" xlink:href="#mcd221361c8" y="171.565675"/>
     <use style="fill:#ff7f0e;stroke:#ff7f0e;" x="253.299482" xlink:href="#mcd221361c8" y="166.692467"/>
     <use style="fill:#ff7f0e;stroke:#ff7f0e;" x="254.999244" xlink:href="#mcd221361c8" y="207.070481"/>
     <use style="fill:#ff7f0e;stroke:#ff7f0e;" x="256.699006" xlink:href="#mcd221361c8" y="219.601589"/>
     <use style="fill:#ff7f0e;stroke:#ff7f0e;" x="258.398768" xlink:href="#mcd221361c8" y="231.436524"/>
     <use style="fill:#ff7f0e;stroke:#ff7f0e;" x="260.09853" xlink:href="#mcd221361c8" y="237.702078"/>
     <use style="fill:#ff7f0e;stroke:#ff7f0e;" x="261.798292" xlink:href="#mcd221361c8" y="240.834855"/>
     <use style="fill:#ff7f0e;stroke:#ff7f0e;" x="263.498054" xlink:href="#mcd221361c8" y="237.702078"/>
     <use style="fill:#ff7f0e;stroke:#ff7f0e;" x="265.197816" xlink:href="#mcd221361c8" y="232.480783"/>
     <use style="fill:#ff7f0e;stroke:#ff7f0e;" x="266.897578" xlink:href="#mcd221361c8" y="248.492754"/>
     <use style="fill:#ff7f0e;stroke:#ff7f0e;" x="268.59734" xlink:href="#mcd221361c8" y="259.631517"/>
     <use style="fill:#ff7f0e;stroke:#ff7f0e;" x="270.297102" xlink:href="#mcd221361c8" y="245.708064"/>
     <use style="fill:#ff7f0e;stroke:#ff7f0e;" x="271.996864" xlink:href="#mcd221361c8" y="245.359978"/>
     <use style="fill:#ff7f0e;stroke:#ff7f0e;" x="273.696626" xlink:href="#mcd221361c8" y="243.967632"/>
     <use style="fill:#ff7f0e;stroke:#ff7f0e;" x="275.396388" xlink:href="#mcd221361c8" y="250.233186"/>
     <use style="fill:#ff7f0e;stroke:#ff7f0e;" x="277.09615" xlink:href="#mcd221361c8" y="257.542999"/>
     <use style="fill:#ff7f0e;stroke:#ff7f0e;" x="278.795912" xlink:href="#mcd221361c8" y="263.11238"/>
     <use style="fill:#ff7f0e;stroke:#ff7f0e;" x="280.495674" xlink:href="#mcd221361c8" y="264.852812"/>
     <use style="fill:#ff7f0e;stroke:#ff7f0e;" x="282.195436" xlink:href="#mcd221361c8" y="256.49874"/>
     <use style="fill:#ff7f0e;stroke:#ff7f0e;" x="283.895198" xlink:href="#mcd221361c8" y="261.023862"/>
     <use style="fill:#ff7f0e;stroke:#ff7f0e;" x="285.59496" xlink:href="#mcd221361c8" y="258.935344"/>
     <use style="fill:#ff7f0e;stroke:#ff7f0e;" x="287.294722" xlink:href="#mcd221361c8" y="260.32769"/>
     <use style="fill:#ff7f0e;stroke:#ff7f0e;" x="288.994484" xlink:href="#mcd221361c8" y="263.808553"/>
     <use style="fill:#ff7f0e;stroke:#ff7f0e;" x="290.694246" xlink:href="#mcd221361c8" y="262.068121"/>
     <use style="fill:#ff7f0e;stroke:#ff7f0e;" x="292.394008" xlink:href="#mcd221361c8" y="263.460467"/>
     <use style="fill:#ff7f0e;stroke:#ff7f0e;" x="294.09377" xlink:href="#mcd221361c8" y="263.460467"/>
     <use style="fill:#ff7f0e;stroke:#ff7f0e;" x="295.793532" xlink:href="#mcd221361c8" y="256.150654"/>
     <use style="fill:#ff7f0e;stroke:#ff7f0e;" x="297.493294" xlink:href="#mcd221361c8" y="256.150654"/>
     <use style="fill:#ff7f0e;stroke:#ff7f0e;" x="299.193056" xlink:href="#mcd221361c8" y="241.531028"/>
     <use style="fill:#ff7f0e;stroke:#ff7f0e;" x="300.892818" xlink:href="#mcd221361c8" y="257.194913"/>
     <use style="fill:#ff7f0e;stroke:#ff7f0e;" x="302.59258" xlink:href="#mcd221361c8" y="262.764294"/>
     <use style="fill:#ff7f0e;stroke:#ff7f0e;" x="304.292342" xlink:href="#mcd221361c8" y="259.283431"/>
     <use style="fill:#ff7f0e;stroke:#ff7f0e;" x="305.992105" xlink:href="#mcd221361c8" y="254.758308"/>
     <use style="fill:#ff7f0e;stroke:#ff7f0e;" x="307.691867" xlink:href="#mcd221361c8" y="261.720035"/>
     <use style="fill:#ff7f0e;stroke:#ff7f0e;" x="309.391629" xlink:href="#mcd221361c8" y="253.017877"/>
     <use style="fill:#ff7f0e;stroke:#ff7f0e;" x="311.091391" xlink:href="#mcd221361c8" y="254.062136"/>
     <use style="fill:#ff7f0e;stroke:#ff7f0e;" x="312.791153" xlink:href="#mcd221361c8" y="258.239172"/>
     <use style="fill:#ff7f0e;stroke:#ff7f0e;" x="314.490915" xlink:href="#mcd221361c8" y="260.32769"/>
     <use style="fill:#ff7f0e;stroke:#ff7f0e;" x="316.190677" xlink:href="#mcd221361c8" y="262.416208"/>
     <use style="fill:#ff7f0e;stroke:#ff7f0e;" x="317.890439" xlink:href="#mcd221361c8" y="256.846826"/>
     <use style="fill:#ff7f0e;stroke:#ff7f0e;" x="319.590201" xlink:href="#mcd221361c8" y="257.891085"/>
     <use style="fill:#ff7f0e;stroke:#ff7f0e;" x="321.289963" xlink:href="#mcd221361c8" y="255.802567"/>
     <use style="fill:#ff7f0e;stroke:#ff7f0e;" x="322.989725" xlink:href="#mcd221361c8" y="252.66979"/>
     <use style="fill:#ff7f0e;stroke:#ff7f0e;" x="324.689487" xlink:href="#mcd221361c8" y="258.239172"/>
     <use style="fill:#ff7f0e;stroke:#ff7f0e;" x="326.389249" xlink:href="#mcd221361c8" y="246.404237"/>
     <use style="fill:#ff7f0e;stroke:#ff7f0e;" x="328.089011" xlink:href="#mcd221361c8" y="247.100409"/>
     <use style="fill:#ff7f0e;stroke:#ff7f0e;" x="329.788773" xlink:href="#mcd221361c8" y="254.410222"/>
     <use style="fill:#ff7f0e;stroke:#ff7f0e;" x="331.488535" xlink:href="#mcd221361c8" y="258.239172"/>
     <use style="fill:#ff7f0e;stroke:#ff7f0e;" x="333.188297" xlink:href="#mcd221361c8" y="248.840841"/>
     <use style="fill:#ff7f0e;stroke:#ff7f0e;" x="334.888059" xlink:href="#mcd221361c8" y="251.277445"/>
     <use style="fill:#ff7f0e;stroke:#ff7f0e;" x="336.587821" xlink:href="#mcd221361c8" y="249.8851"/>
     <use style="fill:#ff7f0e;stroke:#ff7f0e;" x="338.287583" xlink:href="#mcd221361c8" y="254.062136"/>
     <use style="fill:#ff7f0e;stroke:#ff7f0e;" x="339.987345" xlink:href="#mcd221361c8" y="256.49874"/>
     <use style="fill:#ff7f0e;stroke:#ff7f0e;" x="341.687107" xlink:href="#mcd221361c8" y="249.188927"/>
     <use style="fill:#ff7f0e;stroke:#ff7f0e;" x="343.386869" xlink:href="#mcd221361c8" y="237.005906"/>
     <use style="fill:#ff7f0e;stroke:#ff7f0e;" x="345.086631" xlink:href="#mcd221361c8" y="245.011891"/>
     <use style="fill:#ff7f0e;stroke:#ff7f0e;" x="346.786393" xlink:href="#mcd221361c8" y="238.050165"/>
     <use style="fill:#ff7f0e;stroke:#ff7f0e;" x="348.486155" xlink:href="#mcd221361c8" y="235.961647"/>
     <use style="fill:#ff7f0e;stroke:#ff7f0e;" x="350.185917" xlink:href="#mcd221361c8" y="236.309733"/>
     <use style="fill:#ff7f0e;stroke:#ff7f0e;" x="351.885679" xlink:href="#mcd221361c8" y="231.088438"/>
     <use style="fill:#ff7f0e;stroke:#ff7f0e;" x="353.585441" xlink:href="#mcd221361c8" y="223.778625"/>
     <use style="fill:#ff7f0e;stroke:#ff7f0e;" x="355.285203" xlink:href="#mcd221361c8" y="226.911402"/>
     <use style="fill:#ff7f0e;stroke:#ff7f0e;" x="356.984965" xlink:href="#mcd221361c8" y="200.456841"/>
     <use style="fill:#ff7f0e;stroke:#ff7f0e;" x="358.684727" xlink:href="#mcd221361c8" y="189.318078"/>
     <use style="fill:#ff7f0e;stroke:#ff7f0e;" x="360.384489" xlink:href="#mcd221361c8" y="179.571661"/>
     <use style="fill:#ff7f0e;stroke:#ff7f0e;" x="362.084251" xlink:href="#mcd221361c8" y="204.633877"/>
     <use style="fill:#ff7f0e;stroke:#ff7f0e;" x="363.784013" xlink:href="#mcd221361c8" y="207.766654"/>
     <use style="fill:#ff7f0e;stroke:#ff7f0e;" x="365.483775" xlink:href="#mcd221361c8" y="182.008265"/>
     <use style="fill:#ff7f0e;stroke:#ff7f0e;" x="367.183537" xlink:href="#mcd221361c8" y="211.94369"/>
     <use style="fill:#ff7f0e;stroke:#ff7f0e;" x="368.883299" xlink:href="#mcd221361c8" y="143.370683"/>
     <use style="fill:#ff7f0e;stroke:#ff7f0e;" x="370.583061" xlink:href="#mcd221361c8" y="135.016611"/>
     <use style="fill:#ff7f0e;stroke:#ff7f0e;" x="372.282823" xlink:href="#mcd221361c8" y="146.851546"/>
     <use style="fill:#ff7f0e;stroke:#ff7f0e;" x="373.982585" xlink:href="#mcd221361c8" y="185.141042"/>
    </g>
   </g>
   <g id="patch_3">
    <path d="M 33.095313 284.258625 
L 33.095313 18.146625 
" style="fill:none;stroke:#000000;stroke-linecap:square;stroke-linejoin:miter;stroke-width:0.8;"/>
   </g>
   <g id="patch_4">
    <path d="M 390.215312 284.258625 
L 390.215312 18.146625 
" style="fill:none;stroke:#000000;stroke-linecap:square;stroke-linejoin:miter;stroke-width:0.8;"/>
   </g>
   <g id="patch_5">
    <path d="M 33.095312 284.258625 
L 390.215312 284.258625 
" style="fill:none;stroke:#000000;stroke-linecap:square;stroke-linejoin:miter;stroke-width:0.8;"/>
   </g>
   <g id="patch_6">
    <path d="M 33.095312 18.146625 
L 390.215312 18.146625 
" style="fill:none;stroke:#000000;stroke-linecap:square;stroke-linejoin:miter;stroke-width:0.8;"/>
   </g>
   <g id="legend_1">
    <g id="patch_7">
     <path d="M 264.2325 56.29975 
L 383.215312 56.29975 
Q 385.215312 56.29975 385.215312 54.29975 
L 385.215312 25.146625 
Q 385.215312 23.146625 383.215312 23.146625 
L 264.2325 23.146625 
Q 262.2325 23.146625 262.2325 25.146625 
L 262.2325 54.29975 
Q 262.2325 56.29975 264.2325 56.29975 
z
" style="fill:#ffffff;opacity:0.8;stroke:#cccccc;stroke-linejoin:miter;"/>
    </g>
    <g id="line2d_18">
     <path d="M 266.2325 31.766937 
L 286.2325 31.766937 
" style="fill:none;stroke:#1f77b4;stroke-linecap:square;stroke-width:1.5;"/>
    </g>
    <g id="line2d_19">
     <g>
      <use style="fill:#1f77b4;stroke:#1f77b4;" x="276.2325" xlink:href="#m0faf971d4a" y="31.766937"/>
     </g>
    </g>
    <g id="text_17">
     <!--  (onset) -->
     <defs>
      <path d="M 73.734375 56.84375 
Q 80.609375 62.75 85.203125 68.609375 
L 91.109375 64.40625 
Q 84.46875 57.8125 78.71875 53.328125 
Q 85.9375 48.6875 95.40625 44.625 
L 90.625 38.375 
Q 81.734375 42.78125 73.53125 48.640625 
L 73.53125 43.3125 
L 64.109375 43.3125 
L 64.109375 29.984375 
L 89.890625 29.984375 
L 89.890625 23.78125 
L 64.109375 23.78125 
L 64.109375 5.609375 
Q 64.109375 2.484375 65.71875 2.046875 
Q 67.390625 1.46875 73.09375 1.46875 
Q 82.125 1.46875 83.59375 2.984375 
Q 85.0625 4.4375 85.5 11.96875 
Q 85.5 13.484375 85.59375 14.0625 
L 92.625 11.578125 
Q 92.1875 0.390625 89.703125 -2.203125 
Q 87.0625 -5.328125 72.609375 -5.328125 
Q 63.8125 -5.328125 60.9375 -4 
Q 57.03125 -2.34375 57.03125 3.328125 
L 57.03125 23.78125 
L 42.578125 23.78125 
Q 40.1875 0.53125 11.078125 -7.421875 
L 7.28125 -0.984375 
Q 33.25 5.421875 35.5 23.78125 
L 10.015625 23.78125 
L 10.015625 29.984375 
L 35.796875 29.984375 
L 35.796875 43.3125 
L 27.78125 43.3125 
L 27.78125 47.015625 
Q 19.734375 41.359375 9.078125 36.1875 
L 4.5 42.1875 
Q 16.3125 46.734375 25.984375 53.8125 
Q 19.828125 60.15625 13.484375 64.59375 
L 18.609375 69.140625 
Q 26.515625 62.59375 31.109375 58.015625 
Q 38.03125 64.0625 43.171875 72.125 
L 20.0625 72.125 
L 20.0625 78.21875 
L 54 78.21875 
Q 58.203125 71.34375 62.890625 66.3125 
Q 69.09375 71.625 74.03125 77.9375 
L 79.828125 73.734375 
Q 74.171875 67.625 67.09375 62.203125 
Q 70.40625 59.078125 73.734375 56.84375 
z
M 57.03125 43.3125 
L 42.78125 43.3125 
L 42.78125 29.984375 
L 57.03125 29.984375 
z
M 30.90625 49.3125 
L 72.515625 49.3125 
Q 58.6875 59.28125 50.59375 71 
Q 43.21875 58.890625 30.90625 49.3125 
z
" id="IPAexGothic-30330"/>
      <path d="M 63.71875 2.875 
L 95.015625 2.875 
L 95.015625 -3.515625 
L 23.96875 -3.515625 
L 23.96875 2.875 
L 37.3125 2.875 
L 37.3125 38.28125 
L 44 38.28125 
L 44 2.875 
L 56.84375 2.875 
L 56.84375 46.578125 
L 30.515625 46.578125 
L 30.515625 52.78125 
L 90.046875 52.78125 
L 90.046875 46.578125 
L 63.71875 46.578125 
L 63.71875 29.203125 
L 87.796875 29.203125 
L 87.796875 23.09375 
L 63.71875 23.09375 
z
M 60.203125 70.515625 
L 93.890625 70.515625 
L 93.890625 64.109375 
L 27.296875 64.109375 
L 27.296875 41.40625 
Q 27.296875 23.140625 24.21875 12.203125 
Q 21.390625 2.25 14.59375 -6.203125 
L 9.625 -1.171875 
Q 18.75 10.359375 20.125 27.484375 
Q 15.4375 24.125 7.078125 19.734375 
L 4 26.609375 
Q 12.3125 29.59375 20.40625 34.328125 
L 20.40625 37.890625 
L 20.40625 70.515625 
L 52.78125 70.515625 
L 52.78125 81.984375 
L 60.203125 81.984375 
z
M 12.015625 40.375 
Q 8.890625 50.78125 5.421875 57.90625 
L 11.375 60.59375 
Q 15.234375 53.859375 18.40625 43.703125 
z
" id="IPAexGothic-30151"/>
      <path d="M 81.734375 75 
L 81.734375 -4.5 
L 74.125 -4.5 
L 74.125 2 
L 25.734375 2 
L 25.734375 -4.5 
L 18.109375 -4.5 
L 18.109375 75 
z
M 25.734375 68.3125 
L 25.734375 42.671875 
L 74.125 42.671875 
L 74.125 68.3125 
z
M 25.734375 35.890625 
L 25.734375 8.6875 
L 74.125 8.6875 
L 74.125 35.890625 
z
" id="IPAexGothic-26085"/>
      <path id="IPAexGothic-32"/>
      <path d="M 30.125 -15.875 
L 25.828125 -18.21875 
Q 7.625 1.078125 7.625 29.296875 
Q 7.625 57.46875 25.828125 76.703125 
L 30.125 74.421875 
Q 15.71875 55.03125 15.71875 29.390625 
Q 15.71875 3.171875 30.125 -15.875 
z
" id="IPAexGothic-40"/>
      <path d="M 29.984375 52.203125 
Q 40.53125 52.203125 47.75 45.125 
Q 55.171875 37.703125 55.171875 25.59375 
Q 55.171875 13.875 47.90625 6.59375 
Q 40.765625 -0.484375 29.984375 -0.484375 
Q 19.1875 -0.484375 12.203125 6.5 
Q 4.890625 13.765625 4.890625 25.875 
Q 4.890625 37.703125 12.3125 45.125 
Q 19.390625 52.203125 29.984375 52.203125 
z
M 29.984375 45.609375 
Q 23.734375 45.609375 19.390625 41.109375 
Q 13.875 35.59375 13.875 25.78125 
Q 13.875 16.109375 19.28125 10.6875 
Q 23.6875 6.296875 29.984375 6.296875 
Q 36.421875 6.296875 40.765625 10.796875 
Q 46.1875 16.21875 46.1875 26.125 
Q 46.1875 35.453125 40.671875 41.109375 
Q 36.1875 45.609375 29.984375 45.609375 
z
" id="IPAexGothic-111"/>
      <path d="M 34.90625 39.796875 
Q 30.28125 45.796875 23.1875 45.796875 
Q 13.921875 45.796875 13.921875 38.671875 
Q 13.921875 33.640625 23.921875 30.375 
L 27.203125 29.296875 
Q 41.40625 24.65625 41.40625 13.96875 
Q 41.40625 6.78125 35.5 2.6875 
Q 30.8125 -0.484375 23.390625 -0.484375 
Q 11.96875 -0.484375 4 7.859375 
L 9.421875 12.796875 
Q 15.578125 6.203125 23.6875 6.203125 
Q 33.296875 6.203125 33.296875 13.671875 
Q 33.296875 19.34375 22.703125 23.09375 
L 19.28125 24.265625 
Q 5.90625 28.953125 5.90625 37.984375 
Q 5.90625 43.703125 9.8125 47.609375 
Q 14.5 52.296875 22.703125 52.296875 
Q 33.6875 52.296875 40.71875 44.671875 
z
" id="IPAexGothic-115"/>
      <path d="M 33.203125 3.765625 
Q 27.640625 -0.09375 21.828125 -0.09375 
Q 10.203125 -0.09375 10.203125 12.984375 
L 10.203125 44.671875 
L 3.421875 44.671875 
L 3.421875 50.78125 
L 10.203125 50.78125 
L 10.203125 61.96875 
L 18.40625 66.0625 
L 18.40625 50.78125 
L 32.234375 50.78125 
L 32.234375 44.671875 
L 18.40625 44.671875 
L 18.40625 14.15625 
Q 18.40625 6.5 23.640625 6.5 
Q 27.15625 6.5 30.328125 9.1875 
z
" id="IPAexGothic-116"/>
      <path d="M 7.28125 76.703125 
Q 25.59375 57.375 25.59375 29.296875 
Q 25.59375 1.171875 7.28125 -18.21875 
L 2.984375 -15.875 
Q 17.484375 3.375 17.484375 29.390625 
Q 17.484375 54.828125 2.984375 74.421875 
z
" id="IPAexGothic-41"/>
     </defs>
     <g transform="translate(294.2325 35.266937)scale(0.1 -0.1)">
      <use xlink:href="#IPAexGothic-30330"/>
      <use x="100" xlink:href="#IPAexGothic-30151"/>
      <use x="200" xlink:href="#IPAexGothic-26085"/>
      <use x="300" xlink:href="#IPAexGothic-32"/>
      <use x="327.001953" xlink:href="#IPAexGothic-40"/>
      <use x="360.302734" xlink:href="#IPAexGothic-111"/>
      <use x="420.703125" xlink:href="#IPAexGothic-110"/>
      <use x="481.103516" xlink:href="#IPAexGothic-115"/>
      <use x="527.294922" xlink:href="#IPAexGothic-101"/>
      <use x="584.179688" xlink:href="#IPAexGothic-116"/>
      <use x="618.798828" xlink:href="#IPAexGothic-41"/>
     </g>
    </g>
    <g id="line2d_20">
     <path d="M 266.2325 46.89975 
L 286.2325 46.89975 
" style="fill:none;stroke:#ff7f0e;stroke-linecap:square;stroke-width:1.5;"/>
    </g>
    <g id="line2d_21">
     <g>
      <use style="fill:#ff7f0e;stroke:#ff7f0e;" x="276.2325" xlink:href="#mcd221361c8" y="46.89975"/>
     </g>
    </g>
    <g id="text_18">
     <!--  (confirmed) -->
     <defs>
      <path d="M 67.921875 50.296875 
Q 70.5625 55.28125 72.609375 61.8125 
L 79.296875 60.203125 
Q 76.171875 53.609375 74.21875 50.296875 
L 92 50.296875 
L 92 44.484375 
L 73.4375 44.484375 
L 73.4375 34.71875 
L 89.703125 34.71875 
L 89.703125 29.203125 
L 73.4375 29.203125 
L 73.4375 19.53125 
L 89.703125 19.53125 
L 89.703125 14.015625 
L 73.4375 14.015625 
L 73.4375 3.609375 
L 94.28125 3.609375 
L 94.28125 -2.203125 
L 54.109375 -2.203125 
L 54.109375 -6.984375 
L 47.609375 -6.984375 
L 47.609375 38.1875 
Q 43.0625 31.546875 38.8125 26.609375 
L 35.6875 32.8125 
Q 49.359375 49.953125 54.78125 64.796875 
L 45.515625 64.796875 
L 45.515625 53.515625 
L 39.203125 53.515625 
L 39.203125 70.609375 
L 56.78125 70.609375 
Q 58.59375 76.609375 60.109375 83.109375 
L 66.703125 81.890625 
Q 65.234375 75.53125 63.625 70.609375 
L 92.71875 70.609375 
L 92.71875 53.515625 
L 86.328125 53.515625 
L 86.328125 64.796875 
L 61.53125 64.796875 
Q 58.546875 56.984375 54.890625 50.296875 
z
M 67.140625 44.484375 
L 54.109375 44.484375 
L 54.109375 34.71875 
L 67.140625 34.71875 
z
M 67.140625 29.203125 
L 54.109375 29.203125 
L 54.109375 19.53125 
L 67.140625 19.53125 
z
M 67.140625 14.015625 
L 54.109375 14.015625 
L 54.109375 3.609375 
L 67.140625 3.609375 
z
M 18.109375 46 
L 35.546875 46 
L 35.546875 3.078125 
L 18.953125 3.078125 
L 18.953125 -5.125 
L 12.75 -5.125 
L 12.75 34.46875 
Q 10.15625 29.734375 6.15625 23.78125 
L 2.9375 29.984375 
Q 14.546875 47.078125 18.75 69 
L 6.34375 69 
L 6.34375 75.296875 
L 37.640625 75.296875 
L 37.640625 69 
L 25.25 69 
L 24.953125 68.015625 
Q 22.75 57.234375 18.109375 46 
z
M 18.953125 39.890625 
L 18.953125 9.1875 
L 29.34375 9.1875 
L 29.34375 39.890625 
z
" id="IPAexGothic-30906"/>
      <path d="M 53.609375 4.734375 
Q 61.421875 3.515625 73.578125 3.515625 
Q 81.109375 3.515625 94.578125 4.109375 
Q 93.171875 0.921875 92 -3.5625 
Q 81.78125 -3.90625 75.6875 -3.90625 
Q 55.765625 -3.90625 46.921875 -1.21875 
Q 35.296875 2.390625 27.34375 14.109375 
Q 22.515625 2.546875 12.59375 -7.171875 
L 7.421875 -1.171875 
Q 22.125 11.859375 26.3125 37.796875 
L 33.203125 35.984375 
Q 31.734375 27.4375 29.828125 21.1875 
Q 36.53125 10.59375 46.4375 6.5 
L 46.4375 46 
L 22.40625 46 
L 22.40625 52.390625 
L 77.484375 52.390625 
L 77.484375 46 
L 53.609375 46 
L 53.609375 31 
L 84.328125 31 
L 84.328125 24.515625 
L 53.609375 24.515625 
z
M 53.421875 69.1875 
L 89.84375 69.1875 
L 89.84375 49.46875 
L 82.421875 49.46875 
L 82.421875 62.890625 
L 17.53125 62.890625 
L 17.53125 49.46875 
L 10.109375 49.46875 
L 10.109375 69.1875 
L 45.90625 69.1875 
L 45.90625 83.015625 
L 53.421875 83.015625 
z
" id="IPAexGothic-23450"/>
      <path d="M 51.078125 12.25 
Q 44.28125 -0.484375 29.6875 -0.484375 
Q 19.1875 -0.484375 12.3125 6.390625 
Q 4.890625 13.921875 4.890625 25.984375 
Q 4.890625 37.9375 12.3125 45.515625 
Q 19.09375 52.296875 29.390625 52.296875 
Q 43.953125 52.296875 50.09375 39.703125 
L 43.171875 36.078125 
Q 38.8125 45.3125 29.6875 45.3125 
Q 23.6875 45.3125 19.28125 40.921875 
Q 13.765625 35.40625 13.765625 25.78125 
Q 13.765625 16.703125 19.09375 11.375 
Q 23.78125 6.6875 30.5625 6.6875 
Q 39.796875 6.6875 44.484375 15.875 
z
" id="IPAexGothic-99"/>
      <path d="M 38.375 72.21875 
L 34.8125 66.3125 
Q 31.109375 69.09375 27.203125 69.09375 
Q 18.5 69.09375 18.5 57.375 
L 18.5 50.78125 
L 32.078125 50.78125 
L 32.078125 44.671875 
L 18.5 44.671875 
L 18.5 0.984375 
L 10.015625 0.984375 
L 10.015625 44.671875 
L 1.90625 44.671875 
L 1.90625 50.78125 
L 10.015625 50.78125 
L 10.015625 57.171875 
Q 10.015625 65.4375 13.921875 70.0625 
Q 18.75 75.6875 26.703125 75.6875 
Q 33.0625 75.6875 38.375 72.21875 
z
" id="IPAexGothic-102"/>
      <path d="M 18.40625 61.375 
L 8.59375 61.375 
L 8.59375 71.390625 
L 18.40625 71.390625 
z
M 17.78125 0.984375 
L 9.1875 0.984375 
L 9.1875 50.78125 
L 17.78125 50.78125 
z
" id="IPAexGothic-105"/>
      <path d="M 78.46875 0.984375 
L 69.875 0.984375 
L 69.875 32.171875 
Q 69.875 44.828125 60.109375 44.828125 
Q 55.46875 44.828125 51.609375 40.53125 
Q 48.875 37.453125 47.796875 32.859375 
L 47.796875 0.984375 
L 39.203125 0.984375 
L 39.203125 32.28125 
Q 39.203125 44.828125 29.984375 44.828125 
Q 25.09375 44.828125 21.390625 40.53125 
Q 17.390625 36.03125 17.390625 31.890625 
L 17.390625 0.984375 
L 8.796875 0.984375 
L 8.796875 50.78125 
L 16.796875 50.78125 
L 16.796875 42.1875 
Q 21.734375 51.8125 31.6875 51.8125 
Q 42.578125 51.8125 46.1875 41.359375 
Q 51.609375 51.8125 61.765625 51.8125 
Q 69.96875 51.8125 74.5625 46 
Q 78.46875 41.21875 78.46875 32.375 
z
" id="IPAexGothic-109"/>
      <path d="M 52.984375 0.984375 
L 45.171875 0.984375 
L 45.171875 9.671875 
Q 38.140625 -0.484375 27.390625 -0.484375 
Q 18.453125 -0.484375 12.3125 5.8125 
Q 4.890625 13.1875 4.890625 25.984375 
Q 4.890625 38.53125 12.0625 45.90625 
Q 18.265625 52.203125 27.390625 52.203125 
Q 37.25 52.203125 44.484375 43.890625 
L 44.484375 74.90625 
L 52.984375 74.90625 
z
M 44.484375 20.359375 
L 44.484375 32.765625 
Q 44.484375 37.703125 38.375 42.28125 
Q 34.078125 45.40625 28.953125 45.40625 
Q 23.1875 45.40625 19.1875 41.40625 
Q 13.875 36.078125 13.875 26.21875 
Q 13.875 17.328125 18.265625 11.71875 
Q 22.515625 6.390625 28.859375 6.390625 
Q 36.28125 6.390625 41.5 13.671875 
Q 44.484375 17.71875 44.484375 20.359375 
z
" id="IPAexGothic-100"/>
     </defs>
     <g transform="translate(294.2325 50.39975)scale(0.1 -0.1)">
      <use xlink:href="#IPAexGothic-30906"/>
      <use x="100" xlink:href="#IPAexGothic-23450"/>
      <use x="200" xlink:href="#IPAexGothic-26085"/>
      <use x="300" xlink:href="#IPAexGothic-32"/>
      <use x="327.001953" xlink:href="#IPAexGothic-40"/>
      <use x="360.302734" xlink:href="#IPAexGothic-99"/>
      <use x="414.697266" xlink:href="#IPAexGothic-111"/>
      <use x="475.097656" xlink:href="#IPAexGothic-110"/>
      <use x="535.498047" xlink:href="#IPAexGothic-102"/>
      <use x="566.113281" xlink:href="#IPAexGothic-105"/>
      <use x="593.115234" xlink:href="#IPAexGothic-114"/>
      <use x="630.126953" xlink:href="#IPAexGothic-109"/>
      <use x="717.236328" xlink:href="#IPAexGothic-101"/>
      <use x="774.121094" xlink:href="#IPAexGothic-100"/>
      <use x="836.523438" xlink:href="#IPAexGothic-41"/>
     </g>
    </g>
   </g>
  </g>
  <g id="text_19">
   <!-- generated: 2020-07-14 07:49:36 JST -->
   <defs>
    <path d="M 20.796875 17.96875 
Q 15.71875 17.53125 15.71875 14.0625 
Q 15.71875 9.578125 27.546875 8.984375 
L 33.296875 8.6875 
Q 51.609375 7.765625 51.609375 -4.59375 
Q 51.609375 -10.9375 45.703125 -14.984375 
Q 39.359375 -19.578125 28.03125 -19.578125 
Q 17.78125 -19.578125 11.53125 -16.0625 
Q 5.515625 -12.640625 5.515625 -6.6875 
Q 5.515625 1.3125 16.796875 3.859375 
L 16.796875 4.203125 
Q 7.90625 6.453125 7.90625 12.15625 
Q 7.90625 17.4375 15.53125 20.265625 
Q 7.125 24.609375 7.125 34.078125 
Q 7.125 41.40625 12.015625 46.296875 
Q 17.625 51.90625 27.15625 51.90625 
Q 33.203125 51.90625 37.84375 49.265625 
Q 41.40625 53.953125 50.921875 54.109375 
L 50.921875 47.078125 
Q 44.34375 46.921875 42.234375 45.90625 
Q 47.40625 40.828125 47.40625 33.890625 
Q 47.40625 27 42.71875 22.265625 
Q 37.5 17.09375 28.328125 17.09375 
Q 24.421875 17.09375 20.796875 17.96875 
z
M 27.09375 45.609375 
Q 22.015625 45.609375 18.703125 42.28125 
Q 15.4375 39.015625 15.4375 34.078125 
Q 15.4375 29.25 18.5 26.3125 
Q 21.828125 23 27.4375 23 
Q 32.71875 23 35.890625 26.21875 
Q 39.109375 29.390625 39.109375 34.421875 
Q 39.109375 39.015625 35.890625 42.1875 
Q 32.515625 45.609375 27.09375 45.609375 
z
M 27.390625 2.484375 
Q 14.109375 2.484375 14.109375 -5.71875 
Q 14.109375 -13.671875 28.125 -13.671875 
Q 37.15625 -13.671875 41.21875 -9.46875 
Q 43.3125 -7.515625 43.3125 -4.890625 
Q 43.3125 2.484375 27.390625 2.484375 
z
" id="IPAexGothic-103"/>
    <path d="M 21.390625 39.984375 
L 10.5 39.984375 
L 10.5 50.78125 
L 21.390625 50.78125 
z
M 21.390625 0.984375 
L 10.5 0.984375 
L 10.5 11.765625 
L 21.390625 11.765625 
z
" id="IPAexGothic-58"/>
    <path d="M 30.765625 26.609375 
L 4.984375 26.609375 
L 4.984375 34.421875 
L 30.765625 34.421875 
z
" id="IPAexGothic-45"/>
    <path d="M 46.625 36.8125 
Q 39.75 26.8125 28.328125 26.8125 
Q 19.578125 26.8125 13.234375 32.125 
Q 5.71875 38.421875 5.71875 49.421875 
Q 5.71875 59.578125 12.015625 66.65625 
Q 18.453125 73.828125 29.203125 73.828125 
Q 43.75 73.828125 50.640625 61.71875 
Q 55.609375 52.78125 55.609375 38.625 
Q 55.609375 19.53125 47.515625 9.1875 
Q 39.890625 -0.484375 27.640625 -0.484375 
Q 13.421875 -0.484375 6.109375 10.984375 
L 13.328125 14.890625 
Q 18.0625 6.6875 27.390625 6.6875 
Q 45.65625 6.6875 47.015625 36.8125 
z
M 29.5 66.84375 
Q 22.65625 66.84375 18.3125 61.71875 
Q 14.40625 57.078125 14.40625 50 
Q 14.40625 42.828125 18.109375 38.71875 
Q 22.40625 33.796875 29.78125 33.796875 
Q 37.984375 33.796875 42.625 40.1875 
Q 45.703125 44.484375 45.703125 49.515625 
Q 45.703125 55.515625 42.09375 60.359375 
Q 37.109375 66.84375 29.5 66.84375 
z
" id="IPAexGothic-57"/>
    <path d="M 45.609375 56.890625 
Q 40.046875 66.546875 28.953125 66.546875 
Q 22.703125 66.546875 18.953125 62.640625 
Q 16.0625 59.421875 16.0625 55.21875 
Q 16.0625 50.59375 19.78125 47.609375 
Q 22.5625 45.515625 31 42 
L 34.375 40.578125 
Q 45.703125 36.03125 49.859375 30.515625 
Q 53.46875 25.6875 53.46875 19.671875 
Q 53.46875 10.0625 46.390625 4.5 
Q 39.984375 -0.484375 30.171875 -0.484375 
Q 13.765625 -0.484375 4.890625 11.96875 
L 11.765625 17.1875 
Q 18.796875 7.171875 30.28125 7.171875 
Q 35.75 7.171875 39.59375 9.765625 
Q 44.390625 13.234375 44.390625 19 
Q 44.390625 23.484375 40.875 27 
Q 37.109375 30.609375 27 34.46875 
L 24.078125 35.59375 
Q 7.078125 42.09375 7.078125 54.390625 
Q 7.078125 62.59375 12.59375 67.921875 
Q 18.796875 73.828125 29.109375 73.828125 
Q 44.390625 73.828125 52.484375 61.8125 
z
" id="IPAexGothic-83"/>
    <path d="M 60.40625 64.703125 
L 33.984375 64.703125 
L 33.984375 0.984375 
L 25.09375 0.984375 
L 25.09375 64.703125 
L -0.484375 64.703125 
L -0.484375 72.40625 
L 60.40625 72.40625 
z
" id="IPAexGothic-84"/>
   </defs>
   <g transform="translate(213.980938 14.690625)scale(0.1 -0.1)">
    <use xlink:href="#IPAexGothic-103"/>
    <use x="55.517578" xlink:href="#IPAexGothic-101"/>
    <use x="112.402344" xlink:href="#IPAexGothic-110"/>
    <use x="172.802734" xlink:href="#IPAexGothic-101"/>
    <use x="229.6875" xlink:href="#IPAexGothic-114"/>
    <use x="266.699219" xlink:href="#IPAexGothic-97"/>
    <use x="321.679688" xlink:href="#IPAexGothic-116"/>
    <use x="356.298828" xlink:href="#IPAexGothic-101"/>
    <use x="413.183594" xlink:href="#IPAexGothic-100"/>
    <use x="475.585938" xlink:href="#IPAexGothic-58"/>
    <use x="507.568359" xlink:href="#IPAexGothic-32"/>
    <use x="534.570312" xlink:href="#IPAexGothic-50"/>
    <use x="597.558594" xlink:href="#IPAexGothic-48"/>
    <use x="660.546875" xlink:href="#IPAexGothic-50"/>
    <use x="723.535156" xlink:href="#IPAexGothic-48"/>
    <use x="786.523438" xlink:href="#IPAexGothic-45"/>
    <use x="822.314453" xlink:href="#IPAexGothic-48"/>
    <use x="885.302734" xlink:href="#IPAexGothic-55"/>
    <use x="948.291016" xlink:href="#IPAexGothic-45"/>
    <use x="984.082031" xlink:href="#IPAexGothic-49"/>
    <use x="1047.070312" xlink:href="#IPAexGothic-52"/>
    <use x="1110.058594" xlink:href="#IPAexGothic-32"/>
    <use x="1137.060547" xlink:href="#IPAexGothic-48"/>
    <use x="1200.048828" xlink:href="#IPAexGothic-55"/>
    <use x="1263.037109" xlink:href="#IPAexGothic-58"/>
    <use x="1295.019531" xlink:href="#IPAexGothic-52"/>
    <use x="1358.007812" xlink:href="#IPAexGothic-57"/>
    <use x="1420.996094" xlink:href="#IPAexGothic-58"/>
    <use x="1452.978516" xlink:href="#IPAexGothic-51"/>
    <use x="1515.966797" xlink:href="#IPAexGothic-54"/>
    <use x="1578.955078" xlink:href="#IPAexGothic-32"/>
    <use x="1605.957031" xlink:href="#IPAexGothic-74"/>
    <use x="1643.945312" xlink:href="#IPAexGothic-83"/>
    <use x="1702.441406" xlink:href="#IPAexGothic-84"/>
   </g>
  </g>
 </g>
 <defs>
  <clipPath id="p7436ac1238">
   <rect height="266.112" width="357.12" x="33.095313" y="18.146625"/>
  </clipPath>
 </defs>
</svg>
