<?xml version="1.0" encoding="utf-8" standalone="no"?>
<!DOCTYPE svg PUBLIC "-//W3C//DTD SVG 1.1//EN"
  "http://www.w3.org/Graphics/SVG/1.1/DTD/svg11.dtd">
<!-- Created with matplotlib (https://matplotlib.org/) -->
<svg height="309.29325pt" version="1.1" viewBox="0 0 391.116875 309.29325" width="391.116875pt" xmlns="http://www.w3.org/2000/svg" xmlns:xlink="http://www.w3.org/1999/xlink">
 <defs>
  <style type="text/css">
*{stroke-linecap:butt;stroke-linejoin:round;}
  </style>
 </defs>
 <g id="figure_1">
  <g id="patch_1">
   <path d="M 0 309.29325 
L 391.116875 309.29325 
L 391.116875 0 
L 0 0 
z
" style="fill:#ffffff;"/>
  </g>
  <g id="axes_1">
   <g id="patch_2">
    <path d="M 26.796875 273.312 
L 383.916875 273.312 
L 383.916875 7.2 
L 26.796875 7.2 
z
" style="fill:#ffffff;"/>
   </g>
   <g id="patch_3">
    <path clip-path="url(#pad366afc93)" d="M 43.029602 273.312 
L 47.476925 273.312 
L 47.476925 269.157246 
L 43.029602 269.157246 
z
" style="fill:#1f77b4;opacity:0.5;stroke:#000000;stroke-linejoin:miter;"/>
   </g>
   <g id="patch_4">
    <path clip-path="url(#pad366afc93)" d="M 47.476925 273.312 
L 51.924247 273.312 
L 51.924247 273.312 
L 47.476925 273.312 
z
" style="fill:#1f77b4;opacity:0.5;stroke:#000000;stroke-linejoin:miter;"/>
   </g>
   <g id="patch_5">
    <path clip-path="url(#pad366afc93)" d="M 51.924247 273.312 
L 56.37157 273.312 
L 56.37157 273.312 
L 51.924247 273.312 
z
" style="fill:#1f77b4;opacity:0.5;stroke:#000000;stroke-linejoin:miter;"/>
   </g>
   <g id="patch_6">
    <path clip-path="url(#pad366afc93)" d="M 56.37157 273.312 
L 60.818892 273.312 
L 60.818892 273.312 
L 56.37157 273.312 
z
" style="fill:#1f77b4;opacity:0.5;stroke:#000000;stroke-linejoin:miter;"/>
   </g>
   <g id="patch_7">
    <path clip-path="url(#pad366afc93)" d="M 60.818892 273.312 
L 65.266215 273.312 
L 65.266215 273.312 
L 60.818892 273.312 
z
" style="fill:#1f77b4;opacity:0.5;stroke:#000000;stroke-linejoin:miter;"/>
   </g>
   <g id="patch_8">
    <path clip-path="url(#pad366afc93)" d="M 65.266215 273.312 
L 69.713538 273.312 
L 69.713538 273.312 
L 65.266215 273.312 
z
" style="fill:#1f77b4;opacity:0.5;stroke:#000000;stroke-linejoin:miter;"/>
   </g>
   <g id="patch_9">
    <path clip-path="url(#pad366afc93)" d="M 69.713538 273.312 
L 74.16086 273.312 
L 74.16086 273.312 
L 69.713538 273.312 
z
" style="fill:#1f77b4;opacity:0.5;stroke:#000000;stroke-linejoin:miter;"/>
   </g>
   <g id="patch_10">
    <path clip-path="url(#pad366afc93)" d="M 74.16086 273.312 
L 78.608183 273.312 
L 78.608183 273.312 
L 74.16086 273.312 
z
" style="fill:#1f77b4;opacity:0.5;stroke:#000000;stroke-linejoin:miter;"/>
   </g>
   <g id="patch_11">
    <path clip-path="url(#pad366afc93)" d="M 78.608183 273.312 
L 83.055505 273.312 
L 83.055505 273.312 
L 78.608183 273.312 
z
" style="fill:#1f77b4;opacity:0.5;stroke:#000000;stroke-linejoin:miter;"/>
   </g>
   <g id="patch_12">
    <path clip-path="url(#pad366afc93)" d="M 83.055505 273.312 
L 87.502828 273.312 
L 87.502828 273.312 
L 83.055505 273.312 
z
" style="fill:#1f77b4;opacity:0.5;stroke:#000000;stroke-linejoin:miter;"/>
   </g>
   <g id="patch_13">
    <path clip-path="url(#pad366afc93)" d="M 87.502828 273.312 
L 91.95015 273.312 
L 91.95015 273.312 
L 87.502828 273.312 
z
" style="fill:#1f77b4;opacity:0.5;stroke:#000000;stroke-linejoin:miter;"/>
   </g>
   <g id="patch_14">
    <path clip-path="url(#pad366afc93)" d="M 91.95015 273.312 
L 96.397473 273.312 
L 96.397473 265.002492 
L 91.95015 265.002492 
z
" style="fill:#1f77b4;opacity:0.5;stroke:#000000;stroke-linejoin:miter;"/>
   </g>
   <g id="patch_15">
    <path clip-path="url(#pad366afc93)" d="M 96.397473 273.312 
L 100.844795 273.312 
L 100.844795 273.312 
L 96.397473 273.312 
z
" style="fill:#1f77b4;opacity:0.5;stroke:#000000;stroke-linejoin:miter;"/>
   </g>
   <g id="patch_16">
    <path clip-path="url(#pad366afc93)" d="M 100.844795 273.312 
L 105.292118 273.312 
L 105.292118 273.312 
L 100.844795 273.312 
z
" style="fill:#1f77b4;opacity:0.5;stroke:#000000;stroke-linejoin:miter;"/>
   </g>
   <g id="patch_17">
    <path clip-path="url(#pad366afc93)" d="M 105.292118 273.312 
L 109.73944 273.312 
L 109.73944 273.312 
L 105.292118 273.312 
z
" style="fill:#1f77b4;opacity:0.5;stroke:#000000;stroke-linejoin:miter;"/>
   </g>
   <g id="patch_18">
    <path clip-path="url(#pad366afc93)" d="M 109.73944 273.312 
L 114.186763 273.312 
L 114.186763 273.312 
L 109.73944 273.312 
z
" style="fill:#1f77b4;opacity:0.5;stroke:#000000;stroke-linejoin:miter;"/>
   </g>
   <g id="patch_19">
    <path clip-path="url(#pad366afc93)" d="M 114.186763 273.312 
L 118.634085 273.312 
L 118.634085 273.312 
L 114.186763 273.312 
z
" style="fill:#1f77b4;opacity:0.5;stroke:#000000;stroke-linejoin:miter;"/>
   </g>
   <g id="patch_20">
    <path clip-path="url(#pad366afc93)" d="M 118.634085 273.312 
L 123.081408 273.312 
L 123.081408 260.847738 
L 118.634085 260.847738 
z
" style="fill:#1f77b4;opacity:0.5;stroke:#000000;stroke-linejoin:miter;"/>
   </g>
   <g id="patch_21">
    <path clip-path="url(#pad366afc93)" d="M 123.081408 273.312 
L 127.528731 273.312 
L 127.528731 269.157246 
L 123.081408 269.157246 
z
" style="fill:#1f77b4;opacity:0.5;stroke:#000000;stroke-linejoin:miter;"/>
   </g>
   <g id="patch_22">
    <path clip-path="url(#pad366afc93)" d="M 127.528731 273.312 
L 131.976053 273.312 
L 131.976053 265.002492 
L 127.528731 265.002492 
z
" style="fill:#1f77b4;opacity:0.5;stroke:#000000;stroke-linejoin:miter;"/>
   </g>
   <g id="patch_23">
    <path clip-path="url(#pad366afc93)" d="M 131.976053 273.312 
L 136.423376 273.312 
L 136.423376 269.157246 
L 131.976053 269.157246 
z
" style="fill:#1f77b4;opacity:0.5;stroke:#000000;stroke-linejoin:miter;"/>
   </g>
   <g id="patch_24">
    <path clip-path="url(#pad366afc93)" d="M 136.423376 273.312 
L 140.870698 273.312 
L 140.870698 265.002492 
L 136.423376 265.002492 
z
" style="fill:#1f77b4;opacity:0.5;stroke:#000000;stroke-linejoin:miter;"/>
   </g>
   <g id="patch_25">
    <path clip-path="url(#pad366afc93)" d="M 140.870698 273.312 
L 145.318021 273.312 
L 145.318021 269.157246 
L 140.870698 269.157246 
z
" style="fill:#1f77b4;opacity:0.5;stroke:#000000;stroke-linejoin:miter;"/>
   </g>
   <g id="patch_26">
    <path clip-path="url(#pad366afc93)" d="M 145.318021 273.312 
L 149.765343 273.312 
L 149.765343 260.847738 
L 145.318021 260.847738 
z
" style="fill:#1f77b4;opacity:0.5;stroke:#000000;stroke-linejoin:miter;"/>
   </g>
   <g id="patch_27">
    <path clip-path="url(#pad366afc93)" d="M 149.765343 273.312 
L 154.212666 273.312 
L 154.212666 273.312 
L 149.765343 273.312 
z
" style="fill:#1f77b4;opacity:0.5;stroke:#000000;stroke-linejoin:miter;"/>
   </g>
   <g id="patch_28">
    <path clip-path="url(#pad366afc93)" d="M 154.212666 273.312 
L 158.659988 273.312 
L 158.659988 269.157246 
L 154.212666 269.157246 
z
" style="fill:#1f77b4;opacity:0.5;stroke:#000000;stroke-linejoin:miter;"/>
   </g>
   <g id="patch_29">
    <path clip-path="url(#pad366afc93)" d="M 158.659988 273.312 
L 163.107311 273.312 
L 163.107311 265.002492 
L 158.659988 265.002492 
z
" style="fill:#1f77b4;opacity:0.5;stroke:#000000;stroke-linejoin:miter;"/>
   </g>
   <g id="patch_30">
    <path clip-path="url(#pad366afc93)" d="M 163.107311 273.312 
L 167.554633 273.312 
L 167.554633 269.157246 
L 163.107311 269.157246 
z
" style="fill:#1f77b4;opacity:0.5;stroke:#000000;stroke-linejoin:miter;"/>
   </g>
   <g id="patch_31">
    <path clip-path="url(#pad366afc93)" d="M 167.554633 273.312 
L 172.001956 273.312 
L 172.001956 256.692984 
L 167.554633 256.692984 
z
" style="fill:#1f77b4;opacity:0.5;stroke:#000000;stroke-linejoin:miter;"/>
   </g>
   <g id="patch_32">
    <path clip-path="url(#pad366afc93)" d="M 172.001956 273.312 
L 176.449278 273.312 
L 176.449278 260.847738 
L 172.001956 260.847738 
z
" style="fill:#1f77b4;opacity:0.5;stroke:#000000;stroke-linejoin:miter;"/>
   </g>
   <g id="patch_33">
    <path clip-path="url(#pad366afc93)" d="M 176.449278 273.312 
L 180.896601 273.312 
L 180.896601 256.692984 
L 176.449278 256.692984 
z
" style="fill:#1f77b4;opacity:0.5;stroke:#000000;stroke-linejoin:miter;"/>
   </g>
   <g id="patch_34">
    <path clip-path="url(#pad366afc93)" d="M 180.896601 273.312 
L 185.343924 273.312 
L 185.343924 235.919213 
L 180.896601 235.919213 
z
" style="fill:#1f77b4;opacity:0.5;stroke:#000000;stroke-linejoin:miter;"/>
   </g>
   <g id="patch_35">
    <path clip-path="url(#pad366afc93)" d="M 185.343924 273.312 
L 189.791246 273.312 
L 189.791246 252.53823 
L 185.343924 252.53823 
z
" style="fill:#1f77b4;opacity:0.5;stroke:#000000;stroke-linejoin:miter;"/>
   </g>
   <g id="patch_36">
    <path clip-path="url(#pad366afc93)" d="M 189.791246 273.312 
L 194.238569 273.312 
L 194.238569 260.847738 
L 189.791246 260.847738 
z
" style="fill:#1f77b4;opacity:0.5;stroke:#000000;stroke-linejoin:miter;"/>
   </g>
   <g id="patch_37">
    <path clip-path="url(#pad366afc93)" d="M 194.238569 273.312 
L 198.685891 273.312 
L 198.685891 248.383475 
L 194.238569 248.383475 
z
" style="fill:#1f77b4;opacity:0.5;stroke:#000000;stroke-linejoin:miter;"/>
   </g>
   <g id="patch_38">
    <path clip-path="url(#pad366afc93)" d="M 198.685891 273.312 
L 203.133214 273.312 
L 203.133214 252.53823 
L 198.685891 252.53823 
z
" style="fill:#1f77b4;opacity:0.5;stroke:#000000;stroke-linejoin:miter;"/>
   </g>
   <g id="patch_39">
    <path clip-path="url(#pad366afc93)" d="M 203.133214 273.312 
L 207.580536 273.312 
L 207.580536 260.847738 
L 203.133214 260.847738 
z
" style="fill:#1f77b4;opacity:0.5;stroke:#000000;stroke-linejoin:miter;"/>
   </g>
   <g id="patch_40">
    <path clip-path="url(#pad366afc93)" d="M 207.580536 273.312 
L 212.027859 273.312 
L 212.027859 269.157246 
L 207.580536 269.157246 
z
" style="fill:#1f77b4;opacity:0.5;stroke:#000000;stroke-linejoin:miter;"/>
   </g>
   <g id="patch_41">
    <path clip-path="url(#pad366afc93)" d="M 212.027859 273.312 
L 216.475181 273.312 
L 216.475181 244.228721 
L 212.027859 244.228721 
z
" style="fill:#1f77b4;opacity:0.5;stroke:#000000;stroke-linejoin:miter;"/>
   </g>
   <g id="patch_42">
    <path clip-path="url(#pad366afc93)" d="M 216.475181 273.312 
L 220.922504 273.312 
L 220.922504 273.312 
L 216.475181 273.312 
z
" style="fill:#1f77b4;opacity:0.5;stroke:#000000;stroke-linejoin:miter;"/>
   </g>
   <g id="patch_43">
    <path clip-path="url(#pad366afc93)" d="M 220.922504 273.312 
L 225.369826 273.312 
L 225.369826 244.228721 
L 220.922504 244.228721 
z
" style="fill:#1f77b4;opacity:0.5;stroke:#000000;stroke-linejoin:miter;"/>
   </g>
   <g id="patch_44">
    <path clip-path="url(#pad366afc93)" d="M 225.369826 273.312 
L 229.817149 273.312 
L 229.817149 244.228721 
L 225.369826 244.228721 
z
" style="fill:#1f77b4;opacity:0.5;stroke:#000000;stroke-linejoin:miter;"/>
   </g>
   <g id="patch_45">
    <path clip-path="url(#pad366afc93)" d="M 229.817149 273.312 
L 234.264472 273.312 
L 234.264472 244.228721 
L 229.817149 244.228721 
z
" style="fill:#1f77b4;opacity:0.5;stroke:#000000;stroke-linejoin:miter;"/>
   </g>
   <g id="patch_46">
    <path clip-path="url(#pad366afc93)" d="M 234.264472 273.312 
L 238.711794 273.312 
L 238.711794 235.919213 
L 234.264472 235.919213 
z
" style="fill:#1f77b4;opacity:0.5;stroke:#000000;stroke-linejoin:miter;"/>
   </g>
   <g id="patch_47">
    <path clip-path="url(#pad366afc93)" d="M 238.711794 273.312 
L 243.159117 273.312 
L 243.159117 219.300197 
L 238.711794 219.300197 
z
" style="fill:#1f77b4;opacity:0.5;stroke:#000000;stroke-linejoin:miter;"/>
   </g>
   <g id="patch_48">
    <path clip-path="url(#pad366afc93)" d="M 243.159117 273.312 
L 247.606439 273.312 
L 247.606439 235.919213 
L 243.159117 235.919213 
z
" style="fill:#1f77b4;opacity:0.5;stroke:#000000;stroke-linejoin:miter;"/>
   </g>
   <g id="patch_49">
    <path clip-path="url(#pad366afc93)" d="M 247.606439 273.312 
L 252.053762 273.312 
L 252.053762 223.454951 
L 247.606439 223.454951 
z
" style="fill:#1f77b4;opacity:0.5;stroke:#000000;stroke-linejoin:miter;"/>
   </g>
   <g id="patch_50">
    <path clip-path="url(#pad366afc93)" d="M 252.053762 273.312 
L 256.501084 273.312 
L 256.501084 219.300197 
L 252.053762 219.300197 
z
" style="fill:#1f77b4;opacity:0.5;stroke:#000000;stroke-linejoin:miter;"/>
   </g>
   <g id="patch_51">
    <path clip-path="url(#pad366afc93)" d="M 256.501084 273.312 
L 260.948407 273.312 
L 260.948407 181.90741 
L 256.501084 181.90741 
z
" style="fill:#1f77b4;opacity:0.5;stroke:#000000;stroke-linejoin:miter;"/>
   </g>
   <g id="patch_52">
    <path clip-path="url(#pad366afc93)" d="M 260.948407 273.312 
L 265.395729 273.312 
L 265.395729 202.68118 
L 260.948407 202.68118 
z
" style="fill:#1f77b4;opacity:0.5;stroke:#000000;stroke-linejoin:miter;"/>
   </g>
   <g id="patch_53">
    <path clip-path="url(#pad366afc93)" d="M 265.395729 273.312 
L 269.843052 273.312 
L 269.843052 190.216918 
L 265.395729 190.216918 
z
" style="fill:#1f77b4;opacity:0.5;stroke:#000000;stroke-linejoin:miter;"/>
   </g>
   <g id="patch_54">
    <path clip-path="url(#pad366afc93)" d="M 269.843052 273.312 
L 274.290374 273.312 
L 274.290374 186.062164 
L 269.843052 186.062164 
z
" style="fill:#1f77b4;opacity:0.5;stroke:#000000;stroke-linejoin:miter;"/>
   </g>
   <g id="patch_55">
    <path clip-path="url(#pad366afc93)" d="M 274.290374 273.312 
L 278.737697 273.312 
L 278.737697 173.597902 
L 274.290374 173.597902 
z
" style="fill:#1f77b4;opacity:0.5;stroke:#000000;stroke-linejoin:miter;"/>
   </g>
   <g id="patch_56">
    <path clip-path="url(#pad366afc93)" d="M 278.737697 273.312 
L 283.185019 273.312 
L 283.185019 140.359869 
L 278.737697 140.359869 
z
" style="fill:#1f77b4;opacity:0.5;stroke:#000000;stroke-linejoin:miter;"/>
   </g>
   <g id="patch_57">
    <path clip-path="url(#pad366afc93)" d="M 283.185019 273.312 
L 287.632342 273.312 
L 287.632342 156.978885 
L 283.185019 156.978885 
z
" style="fill:#1f77b4;opacity:0.5;stroke:#000000;stroke-linejoin:miter;"/>
   </g>
   <g id="patch_58">
    <path clip-path="url(#pad366afc93)" d="M 287.632342 273.312 
L 292.079665 273.312 
L 292.079665 190.216918 
L 287.632342 190.216918 
z
" style="fill:#1f77b4;opacity:0.5;stroke:#000000;stroke-linejoin:miter;"/>
   </g>
   <g id="patch_59">
    <path clip-path="url(#pad366afc93)" d="M 292.079665 273.312 
L 296.526987 273.312 
L 296.526987 144.514623 
L 292.079665 144.514623 
z
" style="fill:#1f77b4;opacity:0.5;stroke:#000000;stroke-linejoin:miter;"/>
   </g>
   <g id="patch_60">
    <path clip-path="url(#pad366afc93)" d="M 296.526987 273.312 
L 300.97431 273.312 
L 300.97431 190.216918 
L 296.526987 190.216918 
z
" style="fill:#1f77b4;opacity:0.5;stroke:#000000;stroke-linejoin:miter;"/>
   </g>
   <g id="patch_61">
    <path clip-path="url(#pad366afc93)" d="M 300.97431 273.312 
L 305.421632 273.312 
L 305.421632 165.288393 
L 300.97431 165.288393 
z
" style="fill:#1f77b4;opacity:0.5;stroke:#000000;stroke-linejoin:miter;"/>
   </g>
   <g id="patch_62">
    <path clip-path="url(#pad366afc93)" d="M 305.421632 273.312 
L 309.868955 273.312 
L 309.868955 136.205115 
L 305.421632 136.205115 
z
" style="fill:#1f77b4;opacity:0.5;stroke:#000000;stroke-linejoin:miter;"/>
   </g>
   <g id="patch_63">
    <path clip-path="url(#pad366afc93)" d="M 309.868955 273.312 
L 314.316277 273.312 
L 314.316277 173.597902 
L 309.868955 173.597902 
z
" style="fill:#1f77b4;opacity:0.5;stroke:#000000;stroke-linejoin:miter;"/>
   </g>
   <g id="patch_64">
    <path clip-path="url(#pad366afc93)" d="M 314.316277 273.312 
L 318.7636 273.312 
L 318.7636 148.669377 
L 314.316277 148.669377 
z
" style="fill:#1f77b4;opacity:0.5;stroke:#000000;stroke-linejoin:miter;"/>
   </g>
   <g id="patch_65">
    <path clip-path="url(#pad366afc93)" d="M 318.7636 273.312 
L 323.210922 273.312 
L 323.210922 186.062164 
L 318.7636 186.062164 
z
" style="fill:#1f77b4;opacity:0.5;stroke:#000000;stroke-linejoin:miter;"/>
   </g>
   <g id="patch_66">
    <path clip-path="url(#pad366afc93)" d="M 323.210922 273.312 
L 327.658245 273.312 
L 327.658245 190.216918 
L 323.210922 190.216918 
z
" style="fill:#1f77b4;opacity:0.5;stroke:#000000;stroke-linejoin:miter;"/>
   </g>
   <g id="patch_67">
    <path clip-path="url(#pad366afc93)" d="M 327.658245 273.312 
L 332.105567 273.312 
L 332.105567 156.978885 
L 327.658245 156.978885 
z
" style="fill:#1f77b4;opacity:0.5;stroke:#000000;stroke-linejoin:miter;"/>
   </g>
   <g id="patch_68">
    <path clip-path="url(#pad366afc93)" d="M 332.105567 273.312 
L 336.55289 273.312 
L 336.55289 202.68118 
L 332.105567 202.68118 
z
" style="fill:#1f77b4;opacity:0.5;stroke:#000000;stroke-linejoin:miter;"/>
   </g>
   <g id="patch_69">
    <path clip-path="url(#pad366afc93)" d="M 336.55289 273.312 
L 341.000212 273.312 
L 341.000212 169.443148 
L 336.55289 169.443148 
z
" style="fill:#1f77b4;opacity:0.5;stroke:#000000;stroke-linejoin:miter;"/>
   </g>
   <g id="patch_70">
    <path clip-path="url(#pad366afc93)" d="M 341.000212 273.312 
L 345.447535 273.312 
L 345.447535 215.145443 
L 341.000212 215.145443 
z
" style="fill:#1f77b4;opacity:0.5;stroke:#000000;stroke-linejoin:miter;"/>
   </g>
   <g id="patch_71">
    <path clip-path="url(#pad366afc93)" d="M 345.447535 273.312 
L 349.894858 273.312 
L 349.894858 210.990689 
L 345.447535 210.990689 
z
" style="fill:#1f77b4;opacity:0.5;stroke:#000000;stroke-linejoin:miter;"/>
   </g>
   <g id="patch_72">
    <path clip-path="url(#pad366afc93)" d="M 349.894858 273.312 
L 354.34218 273.312 
L 354.34218 244.228721 
L 349.894858 244.228721 
z
" style="fill:#1f77b4;opacity:0.5;stroke:#000000;stroke-linejoin:miter;"/>
   </g>
   <g id="patch_73">
    <path clip-path="url(#pad366afc93)" d="M 354.34218 273.312 
L 358.789503 273.312 
L 358.789503 227.609705 
L 354.34218 227.609705 
z
" style="fill:#1f77b4;opacity:0.5;stroke:#000000;stroke-linejoin:miter;"/>
   </g>
   <g id="patch_74">
    <path clip-path="url(#pad366afc93)" d="M 358.789503 273.312 
L 363.236825 273.312 
L 363.236825 269.157246 
L 358.789503 269.157246 
z
" style="fill:#1f77b4;opacity:0.5;stroke:#000000;stroke-linejoin:miter;"/>
   </g>
   <g id="patch_75">
    <path clip-path="url(#pad366afc93)" d="M 363.236825 273.312 
L 367.684148 273.312 
L 367.684148 273.312 
L 363.236825 273.312 
z
" style="fill:#1f77b4;opacity:0.5;stroke:#000000;stroke-linejoin:miter;"/>
   </g>
   <g id="patch_76">
    <path clip-path="url(#pad366afc93)" d="M 43.029602 273.312 
L 47.476925 273.312 
L 47.476925 273.312 
L 43.029602 273.312 
z
" style="fill:#ff7f0e;opacity:0.5;stroke:#000000;stroke-linejoin:miter;"/>
   </g>
   <g id="patch_77">
    <path clip-path="url(#pad366afc93)" d="M 47.476925 273.312 
L 51.924247 273.312 
L 51.924247 273.312 
L 47.476925 273.312 
z
" style="fill:#ff7f0e;opacity:0.5;stroke:#000000;stroke-linejoin:miter;"/>
   </g>
   <g id="patch_78">
    <path clip-path="url(#pad366afc93)" d="M 51.924247 273.312 
L 56.37157 273.312 
L 56.37157 273.312 
L 51.924247 273.312 
z
" style="fill:#ff7f0e;opacity:0.5;stroke:#000000;stroke-linejoin:miter;"/>
   </g>
   <g id="patch_79">
    <path clip-path="url(#pad366afc93)" d="M 56.37157 273.312 
L 60.818892 273.312 
L 60.818892 273.312 
L 56.37157 273.312 
z
" style="fill:#ff7f0e;opacity:0.5;stroke:#000000;stroke-linejoin:miter;"/>
   </g>
   <g id="patch_80">
    <path clip-path="url(#pad366afc93)" d="M 60.818892 273.312 
L 65.266215 273.312 
L 65.266215 273.312 
L 60.818892 273.312 
z
" style="fill:#ff7f0e;opacity:0.5;stroke:#000000;stroke-linejoin:miter;"/>
   </g>
   <g id="patch_81">
    <path clip-path="url(#pad366afc93)" d="M 65.266215 273.312 
L 69.713538 273.312 
L 69.713538 273.312 
L 65.266215 273.312 
z
" style="fill:#ff7f0e;opacity:0.5;stroke:#000000;stroke-linejoin:miter;"/>
   </g>
   <g id="patch_82">
    <path clip-path="url(#pad366afc93)" d="M 69.713538 273.312 
L 74.16086 273.312 
L 74.16086 273.312 
L 69.713538 273.312 
z
" style="fill:#ff7f0e;opacity:0.5;stroke:#000000;stroke-linejoin:miter;"/>
   </g>
   <g id="patch_83">
    <path clip-path="url(#pad366afc93)" d="M 74.16086 273.312 
L 78.608183 273.312 
L 78.608183 273.312 
L 74.16086 273.312 
z
" style="fill:#ff7f0e;opacity:0.5;stroke:#000000;stroke-linejoin:miter;"/>
   </g>
   <g id="patch_84">
    <path clip-path="url(#pad366afc93)" d="M 78.608183 273.312 
L 83.055505 273.312 
L 83.055505 273.312 
L 78.608183 273.312 
z
" style="fill:#ff7f0e;opacity:0.5;stroke:#000000;stroke-linejoin:miter;"/>
   </g>
   <g id="patch_85">
    <path clip-path="url(#pad366afc93)" d="M 83.055505 273.312 
L 87.502828 273.312 
L 87.502828 273.312 
L 83.055505 273.312 
z
" style="fill:#ff7f0e;opacity:0.5;stroke:#000000;stroke-linejoin:miter;"/>
   </g>
   <g id="patch_86">
    <path clip-path="url(#pad366afc93)" d="M 87.502828 273.312 
L 91.95015 273.312 
L 91.95015 273.312 
L 87.502828 273.312 
z
" style="fill:#ff7f0e;opacity:0.5;stroke:#000000;stroke-linejoin:miter;"/>
   </g>
   <g id="patch_87">
    <path clip-path="url(#pad366afc93)" d="M 91.95015 273.312 
L 96.397473 273.312 
L 96.397473 273.312 
L 91.95015 273.312 
z
" style="fill:#ff7f0e;opacity:0.5;stroke:#000000;stroke-linejoin:miter;"/>
   </g>
   <g id="patch_88">
    <path clip-path="url(#pad366afc93)" d="M 96.397473 273.312 
L 100.844795 273.312 
L 100.844795 269.157246 
L 96.397473 269.157246 
z
" style="fill:#ff7f0e;opacity:0.5;stroke:#000000;stroke-linejoin:miter;"/>
   </g>
   <g id="patch_89">
    <path clip-path="url(#pad366afc93)" d="M 100.844795 273.312 
L 105.292118 273.312 
L 105.292118 273.312 
L 100.844795 273.312 
z
" style="fill:#ff7f0e;opacity:0.5;stroke:#000000;stroke-linejoin:miter;"/>
   </g>
   <g id="patch_90">
    <path clip-path="url(#pad366afc93)" d="M 105.292118 273.312 
L 109.73944 273.312 
L 109.73944 273.312 
L 105.292118 273.312 
z
" style="fill:#ff7f0e;opacity:0.5;stroke:#000000;stroke-linejoin:miter;"/>
   </g>
   <g id="patch_91">
    <path clip-path="url(#pad366afc93)" d="M 109.73944 273.312 
L 114.186763 273.312 
L 114.186763 273.312 
L 109.73944 273.312 
z
" style="fill:#ff7f0e;opacity:0.5;stroke:#000000;stroke-linejoin:miter;"/>
   </g>
   <g id="patch_92">
    <path clip-path="url(#pad366afc93)" d="M 114.186763 273.312 
L 118.634085 273.312 
L 118.634085 273.312 
L 114.186763 273.312 
z
" style="fill:#ff7f0e;opacity:0.5;stroke:#000000;stroke-linejoin:miter;"/>
   </g>
   <g id="patch_93">
    <path clip-path="url(#pad366afc93)" d="M 118.634085 273.312 
L 123.081408 273.312 
L 123.081408 273.312 
L 118.634085 273.312 
z
" style="fill:#ff7f0e;opacity:0.5;stroke:#000000;stroke-linejoin:miter;"/>
   </g>
   <g id="patch_94">
    <path clip-path="url(#pad366afc93)" d="M 123.081408 273.312 
L 127.528731 273.312 
L 127.528731 273.312 
L 123.081408 273.312 
z
" style="fill:#ff7f0e;opacity:0.5;stroke:#000000;stroke-linejoin:miter;"/>
   </g>
   <g id="patch_95">
    <path clip-path="url(#pad366afc93)" d="M 127.528731 273.312 
L 131.976053 273.312 
L 131.976053 273.312 
L 127.528731 273.312 
z
" style="fill:#ff7f0e;opacity:0.5;stroke:#000000;stroke-linejoin:miter;"/>
   </g>
   <g id="patch_96">
    <path clip-path="url(#pad366afc93)" d="M 131.976053 273.312 
L 136.423376 273.312 
L 136.423376 273.312 
L 131.976053 273.312 
z
" style="fill:#ff7f0e;opacity:0.5;stroke:#000000;stroke-linejoin:miter;"/>
   </g>
   <g id="patch_97">
    <path clip-path="url(#pad366afc93)" d="M 136.423376 273.312 
L 140.870698 273.312 
L 140.870698 269.157246 
L 136.423376 269.157246 
z
" style="fill:#ff7f0e;opacity:0.5;stroke:#000000;stroke-linejoin:miter;"/>
   </g>
   <g id="patch_98">
    <path clip-path="url(#pad366afc93)" d="M 140.870698 273.312 
L 145.318021 273.312 
L 145.318021 269.157246 
L 140.870698 269.157246 
z
" style="fill:#ff7f0e;opacity:0.5;stroke:#000000;stroke-linejoin:miter;"/>
   </g>
   <g id="patch_99">
    <path clip-path="url(#pad366afc93)" d="M 145.318021 273.312 
L 149.765343 273.312 
L 149.765343 269.157246 
L 145.318021 269.157246 
z
" style="fill:#ff7f0e;opacity:0.5;stroke:#000000;stroke-linejoin:miter;"/>
   </g>
   <g id="patch_100">
    <path clip-path="url(#pad366afc93)" d="M 149.765343 273.312 
L 154.212666 273.312 
L 154.212666 273.312 
L 149.765343 273.312 
z
" style="fill:#ff7f0e;opacity:0.5;stroke:#000000;stroke-linejoin:miter;"/>
   </g>
   <g id="patch_101">
    <path clip-path="url(#pad366afc93)" d="M 154.212666 273.312 
L 158.659988 273.312 
L 158.659988 260.847738 
L 154.212666 260.847738 
z
" style="fill:#ff7f0e;opacity:0.5;stroke:#000000;stroke-linejoin:miter;"/>
   </g>
   <g id="patch_102">
    <path clip-path="url(#pad366afc93)" d="M 158.659988 273.312 
L 163.107311 273.312 
L 163.107311 269.157246 
L 158.659988 269.157246 
z
" style="fill:#ff7f0e;opacity:0.5;stroke:#000000;stroke-linejoin:miter;"/>
   </g>
   <g id="patch_103">
    <path clip-path="url(#pad366afc93)" d="M 163.107311 273.312 
L 167.554633 273.312 
L 167.554633 248.383475 
L 163.107311 248.383475 
z
" style="fill:#ff7f0e;opacity:0.5;stroke:#000000;stroke-linejoin:miter;"/>
   </g>
   <g id="patch_104">
    <path clip-path="url(#pad366afc93)" d="M 167.554633 273.312 
L 172.001956 273.312 
L 172.001956 265.002492 
L 167.554633 265.002492 
z
" style="fill:#ff7f0e;opacity:0.5;stroke:#000000;stroke-linejoin:miter;"/>
   </g>
   <g id="patch_105">
    <path clip-path="url(#pad366afc93)" d="M 172.001956 273.312 
L 176.449278 273.312 
L 176.449278 260.847738 
L 172.001956 260.847738 
z
" style="fill:#ff7f0e;opacity:0.5;stroke:#000000;stroke-linejoin:miter;"/>
   </g>
   <g id="patch_106">
    <path clip-path="url(#pad366afc93)" d="M 176.449278 273.312 
L 180.896601 273.312 
L 180.896601 273.312 
L 176.449278 273.312 
z
" style="fill:#ff7f0e;opacity:0.5;stroke:#000000;stroke-linejoin:miter;"/>
   </g>
   <g id="patch_107">
    <path clip-path="url(#pad366afc93)" d="M 180.896601 273.312 
L 185.343924 273.312 
L 185.343924 273.312 
L 180.896601 273.312 
z
" style="fill:#ff7f0e;opacity:0.5;stroke:#000000;stroke-linejoin:miter;"/>
   </g>
   <g id="patch_108">
    <path clip-path="url(#pad366afc93)" d="M 185.343924 273.312 
L 189.791246 273.312 
L 189.791246 260.847738 
L 185.343924 260.847738 
z
" style="fill:#ff7f0e;opacity:0.5;stroke:#000000;stroke-linejoin:miter;"/>
   </g>
   <g id="patch_109">
    <path clip-path="url(#pad366afc93)" d="M 189.791246 273.312 
L 194.238569 273.312 
L 194.238569 260.847738 
L 189.791246 260.847738 
z
" style="fill:#ff7f0e;opacity:0.5;stroke:#000000;stroke-linejoin:miter;"/>
   </g>
   <g id="patch_110">
    <path clip-path="url(#pad366afc93)" d="M 194.238569 273.312 
L 198.685891 273.312 
L 198.685891 273.312 
L 194.238569 273.312 
z
" style="fill:#ff7f0e;opacity:0.5;stroke:#000000;stroke-linejoin:miter;"/>
   </g>
   <g id="patch_111">
    <path clip-path="url(#pad366afc93)" d="M 198.685891 273.312 
L 203.133214 273.312 
L 203.133214 269.157246 
L 198.685891 269.157246 
z
" style="fill:#ff7f0e;opacity:0.5;stroke:#000000;stroke-linejoin:miter;"/>
   </g>
   <g id="patch_112">
    <path clip-path="url(#pad366afc93)" d="M 203.133214 273.312 
L 207.580536 273.312 
L 207.580536 273.312 
L 203.133214 273.312 
z
" style="fill:#ff7f0e;opacity:0.5;stroke:#000000;stroke-linejoin:miter;"/>
   </g>
   <g id="patch_113">
    <path clip-path="url(#pad366afc93)" d="M 207.580536 273.312 
L 212.027859 273.312 
L 212.027859 273.312 
L 207.580536 273.312 
z
" style="fill:#ff7f0e;opacity:0.5;stroke:#000000;stroke-linejoin:miter;"/>
   </g>
   <g id="patch_114">
    <path clip-path="url(#pad366afc93)" d="M 212.027859 273.312 
L 216.475181 273.312 
L 216.475181 269.157246 
L 212.027859 269.157246 
z
" style="fill:#ff7f0e;opacity:0.5;stroke:#000000;stroke-linejoin:miter;"/>
   </g>
   <g id="patch_115">
    <path clip-path="url(#pad366afc93)" d="M 216.475181 273.312 
L 220.922504 273.312 
L 220.922504 265.002492 
L 216.475181 265.002492 
z
" style="fill:#ff7f0e;opacity:0.5;stroke:#000000;stroke-linejoin:miter;"/>
   </g>
   <g id="patch_116">
    <path clip-path="url(#pad366afc93)" d="M 220.922504 273.312 
L 225.369826 273.312 
L 225.369826 273.312 
L 220.922504 273.312 
z
" style="fill:#ff7f0e;opacity:0.5;stroke:#000000;stroke-linejoin:miter;"/>
   </g>
   <g id="patch_117">
    <path clip-path="url(#pad366afc93)" d="M 225.369826 273.312 
L 229.817149 273.312 
L 229.817149 252.53823 
L 225.369826 252.53823 
z
" style="fill:#ff7f0e;opacity:0.5;stroke:#000000;stroke-linejoin:miter;"/>
   </g>
   <g id="patch_118">
    <path clip-path="url(#pad366afc93)" d="M 229.817149 273.312 
L 234.264472 273.312 
L 234.264472 244.228721 
L 229.817149 244.228721 
z
" style="fill:#ff7f0e;opacity:0.5;stroke:#000000;stroke-linejoin:miter;"/>
   </g>
   <g id="patch_119">
    <path clip-path="url(#pad366afc93)" d="M 234.264472 273.312 
L 238.711794 273.312 
L 238.711794 223.454951 
L 234.264472 223.454951 
z
" style="fill:#ff7f0e;opacity:0.5;stroke:#000000;stroke-linejoin:miter;"/>
   </g>
   <g id="patch_120">
    <path clip-path="url(#pad366afc93)" d="M 238.711794 273.312 
L 243.159117 273.312 
L 243.159117 248.383475 
L 238.711794 248.383475 
z
" style="fill:#ff7f0e;opacity:0.5;stroke:#000000;stroke-linejoin:miter;"/>
   </g>
   <g id="patch_121">
    <path clip-path="url(#pad366afc93)" d="M 243.159117 273.312 
L 247.606439 273.312 
L 247.606439 244.228721 
L 243.159117 244.228721 
z
" style="fill:#ff7f0e;opacity:0.5;stroke:#000000;stroke-linejoin:miter;"/>
   </g>
   <g id="patch_122">
    <path clip-path="url(#pad366afc93)" d="M 247.606439 273.312 
L 252.053762 273.312 
L 252.053762 235.919213 
L 247.606439 235.919213 
z
" style="fill:#ff7f0e;opacity:0.5;stroke:#000000;stroke-linejoin:miter;"/>
   </g>
   <g id="patch_123">
    <path clip-path="url(#pad366afc93)" d="M 252.053762 273.312 
L 256.501084 273.312 
L 256.501084 231.764459 
L 252.053762 231.764459 
z
" style="fill:#ff7f0e;opacity:0.5;stroke:#000000;stroke-linejoin:miter;"/>
   </g>
   <g id="patch_124">
    <path clip-path="url(#pad366afc93)" d="M 256.501084 273.312 
L 260.948407 273.312 
L 260.948407 235.919213 
L 256.501084 235.919213 
z
" style="fill:#ff7f0e;opacity:0.5;stroke:#000000;stroke-linejoin:miter;"/>
   </g>
   <g id="patch_125">
    <path clip-path="url(#pad366afc93)" d="M 260.948407 273.312 
L 265.395729 273.312 
L 265.395729 202.68118 
L 260.948407 202.68118 
z
" style="fill:#ff7f0e;opacity:0.5;stroke:#000000;stroke-linejoin:miter;"/>
   </g>
   <g id="patch_126">
    <path clip-path="url(#pad366afc93)" d="M 265.395729 273.312 
L 269.843052 273.312 
L 269.843052 165.288393 
L 265.395729 165.288393 
z
" style="fill:#ff7f0e;opacity:0.5;stroke:#000000;stroke-linejoin:miter;"/>
   </g>
   <g id="patch_127">
    <path clip-path="url(#pad366afc93)" d="M 269.843052 273.312 
L 274.290374 273.312 
L 274.290374 231.764459 
L 269.843052 231.764459 
z
" style="fill:#ff7f0e;opacity:0.5;stroke:#000000;stroke-linejoin:miter;"/>
   </g>
   <g id="patch_128">
    <path clip-path="url(#pad366afc93)" d="M 274.290374 273.312 
L 278.737697 273.312 
L 278.737697 223.454951 
L 274.290374 223.454951 
z
" style="fill:#ff7f0e;opacity:0.5;stroke:#000000;stroke-linejoin:miter;"/>
   </g>
   <g id="patch_129">
    <path clip-path="url(#pad366afc93)" d="M 278.737697 273.312 
L 283.185019 273.312 
L 283.185019 223.454951 
L 278.737697 223.454951 
z
" style="fill:#ff7f0e;opacity:0.5;stroke:#000000;stroke-linejoin:miter;"/>
   </g>
   <g id="patch_130">
    <path clip-path="url(#pad366afc93)" d="M 283.185019 273.312 
L 287.632342 273.312 
L 287.632342 194.371672 
L 283.185019 194.371672 
z
" style="fill:#ff7f0e;opacity:0.5;stroke:#000000;stroke-linejoin:miter;"/>
   </g>
   <g id="patch_131">
    <path clip-path="url(#pad366afc93)" d="M 287.632342 273.312 
L 292.079665 273.312 
L 292.079665 169.443148 
L 287.632342 169.443148 
z
" style="fill:#ff7f0e;opacity:0.5;stroke:#000000;stroke-linejoin:miter;"/>
   </g>
   <g id="patch_132">
    <path clip-path="url(#pad366afc93)" d="M 292.079665 273.312 
L 296.526987 273.312 
L 296.526987 198.526426 
L 292.079665 198.526426 
z
" style="fill:#ff7f0e;opacity:0.5;stroke:#000000;stroke-linejoin:miter;"/>
   </g>
   <g id="patch_133">
    <path clip-path="url(#pad366afc93)" d="M 296.526987 273.312 
L 300.97431 273.312 
L 300.97431 235.919213 
L 296.526987 235.919213 
z
" style="fill:#ff7f0e;opacity:0.5;stroke:#000000;stroke-linejoin:miter;"/>
   </g>
   <g id="patch_134">
    <path clip-path="url(#pad366afc93)" d="M 300.97431 273.312 
L 305.421632 273.312 
L 305.421632 210.990689 
L 300.97431 210.990689 
z
" style="fill:#ff7f0e;opacity:0.5;stroke:#000000;stroke-linejoin:miter;"/>
   </g>
   <g id="patch_135">
    <path clip-path="url(#pad366afc93)" d="M 305.421632 273.312 
L 309.868955 273.312 
L 309.868955 198.526426 
L 305.421632 198.526426 
z
" style="fill:#ff7f0e;opacity:0.5;stroke:#000000;stroke-linejoin:miter;"/>
   </g>
   <g id="patch_136">
    <path clip-path="url(#pad366afc93)" d="M 309.868955 273.312 
L 314.316277 273.312 
L 314.316277 194.371672 
L 309.868955 194.371672 
z
" style="fill:#ff7f0e;opacity:0.5;stroke:#000000;stroke-linejoin:miter;"/>
   </g>
   <g id="patch_137">
    <path clip-path="url(#pad366afc93)" d="M 314.316277 273.312 
L 318.7636 273.312 
L 318.7636 119.586098 
L 314.316277 119.586098 
z
" style="fill:#ff7f0e;opacity:0.5;stroke:#000000;stroke-linejoin:miter;"/>
   </g>
   <g id="patch_138">
    <path clip-path="url(#pad366afc93)" d="M 318.7636 273.312 
L 323.210922 273.312 
L 323.210922 140.359869 
L 318.7636 140.359869 
z
" style="fill:#ff7f0e;opacity:0.5;stroke:#000000;stroke-linejoin:miter;"/>
   </g>
   <g id="patch_139">
    <path clip-path="url(#pad366afc93)" d="M 323.210922 273.312 
L 327.658245 273.312 
L 327.658245 48.955279 
L 323.210922 48.955279 
z
" style="fill:#ff7f0e;opacity:0.5;stroke:#000000;stroke-linejoin:miter;"/>
   </g>
   <g id="patch_140">
    <path clip-path="url(#pad366afc93)" d="M 327.658245 273.312 
L 332.105567 273.312 
L 332.105567 90.50282 
L 327.658245 90.50282 
z
" style="fill:#ff7f0e;opacity:0.5;stroke:#000000;stroke-linejoin:miter;"/>
   </g>
   <g id="patch_141">
    <path clip-path="url(#pad366afc93)" d="M 332.105567 273.312 
L 336.55289 273.312 
L 336.55289 136.205115 
L 332.105567 136.205115 
z
" style="fill:#ff7f0e;opacity:0.5;stroke:#000000;stroke-linejoin:miter;"/>
   </g>
   <g id="patch_142">
    <path clip-path="url(#pad366afc93)" d="M 336.55289 273.312 
L 341.000212 273.312 
L 341.000212 161.133639 
L 336.55289 161.133639 
z
" style="fill:#ff7f0e;opacity:0.5;stroke:#000000;stroke-linejoin:miter;"/>
   </g>
   <g id="patch_143">
    <path clip-path="url(#pad366afc93)" d="M 341.000212 273.312 
L 345.447535 273.312 
L 345.447535 19.872 
L 341.000212 19.872 
z
" style="fill:#ff7f0e;opacity:0.5;stroke:#000000;stroke-linejoin:miter;"/>
   </g>
   <g id="patch_144">
    <path clip-path="url(#pad366afc93)" d="M 345.447535 273.312 
L 349.894858 273.312 
L 349.894858 57.264787 
L 345.447535 57.264787 
z
" style="fill:#ff7f0e;opacity:0.5;stroke:#000000;stroke-linejoin:miter;"/>
   </g>
   <g id="patch_145">
    <path clip-path="url(#pad366afc93)" d="M 349.894858 273.312 
L 354.34218 273.312 
L 354.34218 40.64577 
L 349.894858 40.64577 
z
" style="fill:#ff7f0e;opacity:0.5;stroke:#000000;stroke-linejoin:miter;"/>
   </g>
   <g id="patch_146">
    <path clip-path="url(#pad366afc93)" d="M 354.34218 273.312 
L 358.789503 273.312 
L 358.789503 119.586098 
L 354.34218 119.586098 
z
" style="fill:#ff7f0e;opacity:0.5;stroke:#000000;stroke-linejoin:miter;"/>
   </g>
   <g id="patch_147">
    <path clip-path="url(#pad366afc93)" d="M 358.789503 273.312 
L 363.236825 273.312 
L 363.236825 32.336262 
L 358.789503 32.336262 
z
" style="fill:#ff7f0e;opacity:0.5;stroke:#000000;stroke-linejoin:miter;"/>
   </g>
   <g id="patch_148">
    <path clip-path="url(#pad366afc93)" d="M 363.236825 273.312 
L 367.684148 273.312 
L 367.684148 140.359869 
L 363.236825 140.359869 
z
" style="fill:#ff7f0e;opacity:0.5;stroke:#000000;stroke-linejoin:miter;"/>
   </g>
   <g id="matplotlib.axis_1">
    <g id="xtick_1">
     <g id="line2d_1">
      <defs>
       <path d="M 0 0 
L 0 3.5 
" id="m1d1736a423" style="stroke:#000000;stroke-width:0.8;"/>
      </defs>
      <g>
       <use style="stroke:#000000;stroke-width:0.8;" x="34.134957" xlink:href="#m1d1736a423" y="273.312"/>
      </g>
     </g>
     <g id="text_1">
      <!-- Jan -->
      <defs>
       <path d="M 28.421875 72.40625 
L 28.421875 19.28125 
Q 28.421875 -0.484375 11.921875 -0.484375 
Q 4.734375 -0.484375 -1.953125 3.265625 
L 1.3125 10.0625 
Q 5.90625 6.984375 10.84375 6.984375 
Q 19.53125 6.984375 19.53125 18.796875 
L 19.53125 72.40625 
z
" id="IPAexGothic-74"/>
       <path d="M 49.3125 0.984375 
L 41.75 0.984375 
Q 39.984375 4.734375 39.546875 8.6875 
L 39.203125 8.6875 
Q 33.546875 -0.390625 22.3125 -0.390625 
Q 14.59375 -0.390625 9.71875 4.5 
Q 5.421875 8.796875 5.421875 14.984375 
Q 5.421875 30.421875 32.03125 31.203125 
L 38.71875 31.390625 
L 38.71875 33.984375 
Q 38.71875 39.203125 35.75 42.1875 
Q 32.625 45.3125 27.734375 45.3125 
Q 19.34375 45.3125 15.140625 37.15625 
L 7.71875 40.578125 
Q 14.65625 52 27.9375 52 
Q 37.109375 52 42.046875 46.875 
Q 46.625 42.28125 46.625 33.890625 
L 46.625 15.578125 
Q 46.625 6.25 49.3125 0.984375 
z
M 38.921875 25.390625 
L 33.453125 25.296875 
Q 14.109375 24.859375 14.109375 14.890625 
Q 14.109375 11.375 16.40625 9.078125 
Q 19.234375 6.296875 23.828125 6.296875 
Q 30.21875 6.296875 34.90625 10.984375 
Q 38.921875 15.140625 38.921875 21 
z
" id="IPAexGothic-97"/>
       <path d="M 52 0.984375 
L 43.40625 0.984375 
L 43.40625 31.890625 
Q 43.40625 44.578125 32.90625 44.578125 
Q 22.3125 44.578125 17.390625 31.890625 
L 17.390625 0.984375 
L 8.796875 0.984375 
L 8.796875 50.78125 
L 16.796875 50.78125 
L 16.796875 41.796875 
Q 23.828125 51.8125 34.71875 51.8125 
Q 52 51.8125 52 32.375 
z
" id="IPAexGothic-110"/>
      </defs>
      <g transform="translate(26.466207 287.802625)scale(0.1 -0.1)">
       <use xlink:href="#IPAexGothic-74"/>
       <use x="37.988281" xlink:href="#IPAexGothic-97"/>
       <use x="92.96875" xlink:href="#IPAexGothic-110"/>
      </g>
     </g>
    </g>
    <g id="xtick_2">
     <g id="line2d_2">
      <g>
       <use style="stroke:#000000;stroke-width:0.8;" x="96.397473" xlink:href="#m1d1736a423" y="273.312"/>
      </g>
     </g>
     <g id="text_2">
      <!-- 15 -->
      <defs>
       <path d="M 38.484375 0.984375 
L 29.6875 0.984375 
L 29.6875 64.109375 
Q 21.4375 61.28125 12.3125 59.328125 
L 10.6875 66.109375 
Q 23.734375 69.390625 32.90625 73.921875 
L 38.484375 73.921875 
z
" id="IPAexGothic-49"/>
       <path d="M 18.40625 40.671875 
Q 25.53125 46.296875 33.9375 46.296875 
Q 44 46.296875 50.640625 39.5 
Q 56.84375 33.015625 56.84375 23.390625 
Q 56.84375 14.65625 51.515625 8.015625 
Q 44.828125 -0.484375 31.734375 -0.484375 
Q 14.984375 -0.484375 7.328125 12.25 
L 14.65625 16.0625 
Q 20.453125 6.78125 31.453125 6.78125 
Q 38.53125 6.78125 43.265625 11.1875 
Q 48.140625 15.828125 48.140625 23.484375 
Q 48.140625 30.71875 43.84375 35.015625 
Q 39.359375 39.5 32.125 39.5 
Q 21.96875 39.5 16.75 31.6875 
L 9.234375 32.671875 
L 13.8125 72.40625 
L 53.21875 72.40625 
L 53.21875 64.890625 
L 20.953125 64.890625 
L 17.71875 40.671875 
z
" id="IPAexGothic-53"/>
      </defs>
      <g transform="translate(90.099035 287.802625)scale(0.1 -0.1)">
       <use xlink:href="#IPAexGothic-49"/>
       <use x="62.988281" xlink:href="#IPAexGothic-53"/>
      </g>
     </g>
    </g>
    <g id="xtick_3">
     <g id="line2d_3">
      <g>
       <use style="stroke:#000000;stroke-width:0.8;" x="172.001956" xlink:href="#m1d1736a423" y="273.312"/>
      </g>
     </g>
     <g id="text_3">
      <!-- Feb -->
      <defs>
       <path d="M 54.203125 64.703125 
L 18.3125 64.703125 
L 18.3125 41.5 
L 50.09375 41.5 
L 50.09375 34.1875 
L 18.3125 34.1875 
L 18.3125 0.984375 
L 9.515625 0.984375 
L 9.515625 72.40625 
L 54.203125 72.40625 
z
" id="IPAexGothic-70"/>
       <path d="M 13.484375 24.90625 
Q 13.921875 16.265625 18.890625 11.28125 
Q 23.96875 6.203125 31.203125 6.203125 
Q 40.71875 6.203125 46.296875 15.09375 
L 51.90625 11.375 
Q 44.828125 -0.484375 30.171875 -0.484375 
Q 19.09375 -0.484375 11.96875 6.59375 
Q 4.78125 13.8125 4.78125 25.640625 
Q 4.78125 38.1875 12.3125 45.703125 
Q 19 52.390625 29 52.390625 
Q 38.421875 52.390625 44.78125 46.1875 
Q 51.90625 38.96875 51.90625 26.90625 
L 51.90625 24.90625 
z
M 43.0625 31.203125 
Q 42.328125 37.984375 38.28125 41.890625 
Q 34.28125 45.90625 28.8125 45.90625 
Q 22.46875 45.90625 17.96875 40.484375 
Q 14.890625 36.8125 13.96875 31.203125 
z
" id="IPAexGothic-101"/>
       <path d="M 17.578125 42.671875 
Q 24.21875 52.203125 34.671875 52.203125 
Q 43.5625 52.203125 49.859375 45.90625 
Q 57.171875 38.578125 57.171875 25.6875 
Q 57.171875 13.09375 49.859375 5.8125 
Q 43.5625 -0.484375 34.46875 -0.484375 
Q 24.359375 -0.484375 17 8.0625 
L 15.765625 0.6875 
L 9.078125 0.6875 
L 9.078125 74.90625 
L 17.578125 74.90625 
z
M 17.578125 31.203125 
L 17.578125 19.578125 
Q 17.578125 13.875 23.875 9.375 
Q 28.171875 6.296875 33.109375 6.296875 
Q 38.875 6.296875 42.875 10.296875 
Q 48.1875 15.765625 48.1875 25.484375 
Q 48.1875 34.28125 43.796875 39.890625 
Q 39.453125 45.3125 33.203125 45.3125 
Q 27.484375 45.3125 22.46875 40.28125 
Q 17.578125 35.40625 17.578125 31.203125 
z
" id="IPAexGothic-98"/>
      </defs>
      <g transform="translate(163.178518 287.802625)scale(0.1 -0.1)">
       <use xlink:href="#IPAexGothic-70"/>
       <use x="57.177734" xlink:href="#IPAexGothic-101"/>
       <use x="114.0625" xlink:href="#IPAexGothic-98"/>
      </g>
     </g>
    </g>
    <g id="xtick_4">
     <g id="line2d_4">
      <g>
       <use style="stroke:#000000;stroke-width:0.8;" x="234.264472" xlink:href="#m1d1736a423" y="273.312"/>
      </g>
     </g>
     <g id="text_4">
      <!-- 15 -->
      <g transform="translate(227.966034 287.802625)scale(0.1 -0.1)">
       <use xlink:href="#IPAexGothic-49"/>
       <use x="62.988281" xlink:href="#IPAexGothic-53"/>
      </g>
     </g>
    </g>
    <g id="xtick_5">
     <g id="line2d_5">
      <g>
       <use style="stroke:#000000;stroke-width:0.8;" x="300.97431" xlink:href="#m1d1736a423" y="273.312"/>
      </g>
     </g>
     <g id="text_5">
      <!-- Mar -->
      <defs>
       <path d="M 80.421875 0.984375 
L 71.828125 0.984375 
L 71.828125 39.59375 
Q 71.828125 51.265625 72.40625 64.59375 
L 72.015625 64.59375 
Q 68.0625 53.265625 63.53125 41.796875 
L 47.90625 3.265625 
L 41.40625 3.265625 
L 25.640625 42.578125 
Q 20.75 54.78125 17.625 64.703125 
L 17.234375 64.703125 
Q 17.828125 48.921875 17.828125 39.890625 
L 17.828125 0.984375 
L 9.515625 0.984375 
L 9.515625 72.40625 
L 22.125 72.40625 
L 39.109375 30.375 
Q 42.140625 23 44.828125 14.15625 
L 45.125 14.15625 
Q 47.3125 22.125 50.53125 30.171875 
L 67.4375 72.40625 
L 80.421875 72.40625 
z
" id="IPAexGothic-77"/>
       <path d="M 36.078125 51.8125 
L 34.578125 43.265625 
Q 32.90625 43.609375 31.59375 43.609375 
Q 25.828125 43.609375 22.078125 38.1875 
Q 17.390625 31.34375 17.390625 26.171875 
L 17.390625 0.984375 
L 8.796875 0.984375 
L 8.796875 50.78125 
L 16.890625 50.78125 
L 16.5 35.984375 
L 16.703125 35.984375 
Q 22.21875 52.203125 32.765625 52.203125 
Q 34.46875 52.203125 36.078125 51.8125 
z
" id="IPAexGothic-114"/>
      </defs>
      <g transform="translate(291.864935 287.802625)scale(0.1 -0.1)">
       <use xlink:href="#IPAexGothic-77"/>
       <use x="90.185547" xlink:href="#IPAexGothic-97"/>
       <use x="145.166016" xlink:href="#IPAexGothic-114"/>
      </g>
     </g>
    </g>
    <g id="xtick_6">
     <g id="line2d_6">
      <g>
       <use style="stroke:#000000;stroke-width:0.8;" x="363.236825" xlink:href="#m1d1736a423" y="273.312"/>
      </g>
     </g>
     <g id="text_6">
      <!-- 15 -->
      <g transform="translate(356.938388 287.802625)scale(0.1 -0.1)">
       <use xlink:href="#IPAexGothic-49"/>
       <use x="62.988281" xlink:href="#IPAexGothic-53"/>
      </g>
     </g>
    </g>
    <g id="text_7">
     <!-- 2020-Mar -->
     <defs>
      <path d="M 57.171875 0.984375 
L 6.984375 0.984375 
L 6.984375 9.28125 
Q 12.890625 23.046875 29.59375 34.421875 
L 32.375 36.28125 
Q 40.921875 42.140625 43.609375 45.40625 
Q 46.6875 49.265625 46.6875 53.8125 
Q 46.6875 58.9375 43.0625 62.546875 
Q 39.0625 66.546875 32.5625 66.546875 
Q 19.53125 66.546875 15.484375 52 
L 7.765625 54.78125 
Q 13.328125 73.828125 33.0625 73.828125 
Q 43.84375 73.828125 50.25 67.4375 
Q 55.859375 61.671875 55.859375 53.515625 
Q 55.859375 47.46875 52.25 42.53125 
Q 48.921875 37.75 36.96875 30.28125 
L 34.859375 29 
Q 19.625 19.578125 15.28125 8.890625 
L 57.171875 8.890625 
z
" id="IPAexGothic-50"/>
      <path d="M 31.84375 73.828125 
Q 45.015625 73.828125 52.09375 61.625 
Q 57.71875 51.953125 57.71875 36.625 
Q 57.71875 21.4375 52.09375 11.578125 
Q 45.125 -0.484375 31.5 -0.484375 
Q 17.921875 -0.484375 10.9375 11.578125 
Q 5.328125 21.4375 5.328125 36.71875 
Q 5.328125 58.015625 15.625 67.71875 
Q 22.171875 73.828125 31.84375 73.828125 
z
M 31.5 66.65625 
Q 23.6875 66.65625 19.1875 58.734375 
Q 14.59375 50.734375 14.59375 36.625 
Q 14.59375 22.75 19.09375 14.796875 
Q 23.640625 6.984375 31.5 6.984375 
Q 40.921875 6.984375 45.453125 18.015625 
Q 48.4375 25.34375 48.4375 37.109375 
Q 48.4375 50.875 43.84375 58.734375 
Q 39.203125 66.65625 31.5 66.65625 
z
" id="IPAexGothic-48"/>
      <path d="M 30.765625 26.609375 
L 4.984375 26.609375 
L 4.984375 34.421875 
L 30.765625 34.421875 
z
" id="IPAexGothic-45"/>
     </defs>
     <g transform="translate(336.924688 300.19325)scale(0.1 -0.1)">
      <use xlink:href="#IPAexGothic-50"/>
      <use x="62.988281" xlink:href="#IPAexGothic-48"/>
      <use x="125.976562" xlink:href="#IPAexGothic-50"/>
      <use x="188.964844" xlink:href="#IPAexGothic-48"/>
      <use x="251.953125" xlink:href="#IPAexGothic-45"/>
      <use x="287.744141" xlink:href="#IPAexGothic-77"/>
      <use x="377.929688" xlink:href="#IPAexGothic-97"/>
      <use x="432.910156" xlink:href="#IPAexGothic-114"/>
     </g>
    </g>
   </g>
   <g id="matplotlib.axis_2">
    <g id="ytick_1">
     <g id="line2d_7">
      <defs>
       <path d="M 0 0 
L -3.5 0 
" id="m0c3f9d3965" style="stroke:#000000;stroke-width:0.8;"/>
      </defs>
      <g>
       <use style="stroke:#000000;stroke-width:0.8;" x="26.796875" xlink:href="#m0c3f9d3965" y="273.312"/>
      </g>
     </g>
     <g id="text_8">
      <!-- 0 -->
      <g transform="translate(13.498438 277.057312)scale(0.1 -0.1)">
       <use xlink:href="#IPAexGothic-48"/>
      </g>
     </g>
    </g>
    <g id="ytick_2">
     <g id="line2d_8">
      <g>
       <use style="stroke:#000000;stroke-width:0.8;" x="26.796875" xlink:href="#m0c3f9d3965" y="231.764459"/>
      </g>
     </g>
     <g id="text_9">
      <!-- 10 -->
      <g transform="translate(7.2 235.509772)scale(0.1 -0.1)">
       <use xlink:href="#IPAexGothic-49"/>
       <use x="62.988281" xlink:href="#IPAexGothic-48"/>
      </g>
     </g>
    </g>
    <g id="ytick_3">
     <g id="line2d_9">
      <g>
       <use style="stroke:#000000;stroke-width:0.8;" x="26.796875" xlink:href="#m0c3f9d3965" y="190.216918"/>
      </g>
     </g>
     <g id="text_10">
      <!-- 20 -->
      <g transform="translate(7.2 193.962231)scale(0.1 -0.1)">
       <use xlink:href="#IPAexGothic-50"/>
       <use x="62.988281" xlink:href="#IPAexGothic-48"/>
      </g>
     </g>
    </g>
    <g id="ytick_4">
     <g id="line2d_10">
      <g>
       <use style="stroke:#000000;stroke-width:0.8;" x="26.796875" xlink:href="#m0c3f9d3965" y="148.669377"/>
      </g>
     </g>
     <g id="text_11">
      <!-- 30 -->
      <defs>
       <path d="M 37.203125 37.796875 
Q 54.78125 34.625 54.78125 19.96875 
Q 54.78125 11.1875 48.875 5.5625 
Q 42.328125 -0.484375 30.375 -0.484375 
Q 12.453125 -0.484375 4.5 13.765625 
L 11.8125 17.671875 
Q 17.328125 6.890625 30.28125 6.890625 
Q 37.890625 6.890625 42.09375 10.796875 
Q 46.09375 14.5 46.09375 20.171875 
Q 46.09375 26.859375 40.09375 30.90625 
Q 34.625 34.578125 25.6875 34.578125 
L 21.296875 34.578125 
L 21.296875 41.703125 
L 25.875 41.703125 
Q 34.859375 41.703125 39.59375 45.125 
Q 44.671875 48.734375 44.671875 54.828125 
Q 44.671875 61.46875 38.96875 64.65625 
Q 35.296875 66.84375 30.171875 66.84375 
Q 19.34375 66.84375 14.109375 55.90625 
L 6.78125 59.421875 
Q 14.015625 73.828125 30.28125 73.828125 
Q 40.578125 73.828125 46.96875 68.65625 
Q 53.375 63.578125 53.375 55.21875 
Q 53.375 47.3125 47.171875 42.28125 
Q 43.171875 39.0625 37.203125 38.1875 
z
" id="IPAexGothic-51"/>
      </defs>
      <g transform="translate(7.2 152.41469)scale(0.1 -0.1)">
       <use xlink:href="#IPAexGothic-51"/>
       <use x="62.988281" xlink:href="#IPAexGothic-48"/>
      </g>
     </g>
    </g>
    <g id="ytick_5">
     <g id="line2d_11">
      <g>
       <use style="stroke:#000000;stroke-width:0.8;" x="26.796875" xlink:href="#m0c3f9d3965" y="107.121836"/>
      </g>
     </g>
     <g id="text_12">
      <!-- 40 -->
      <defs>
       <path d="M 59.578125 18.109375 
L 47.796875 18.109375 
L 47.796875 0.984375 
L 39.796875 0.984375 
L 39.796875 18.109375 
L 3.078125 18.109375 
L 3.078125 26.125 
L 38.375 73.09375 
L 47.796875 73.09375 
L 47.796875 25.53125 
L 59.578125 25.53125 
z
M 40.28125 64.203125 
L 39.984375 64.203125 
Q 35.59375 57.125 31.296875 51.3125 
L 11.859375 25.53125 
L 39.796875 25.53125 
L 39.796875 49.125 
Q 39.796875 54.390625 40.28125 64.203125 
z
" id="IPAexGothic-52"/>
      </defs>
      <g transform="translate(7.2 110.867149)scale(0.1 -0.1)">
       <use xlink:href="#IPAexGothic-52"/>
       <use x="62.988281" xlink:href="#IPAexGothic-48"/>
      </g>
     </g>
    </g>
    <g id="ytick_6">
     <g id="line2d_12">
      <g>
       <use style="stroke:#000000;stroke-width:0.8;" x="26.796875" xlink:href="#m0c3f9d3965" y="65.574295"/>
      </g>
     </g>
     <g id="text_13">
      <!-- 50 -->
      <g transform="translate(7.2 69.319608)scale(0.1 -0.1)">
       <use xlink:href="#IPAexGothic-53"/>
       <use x="62.988281" xlink:href="#IPAexGothic-48"/>
      </g>
     </g>
    </g>
    <g id="ytick_7">
     <g id="line2d_13">
      <g>
       <use style="stroke:#000000;stroke-width:0.8;" x="26.796875" xlink:href="#m0c3f9d3965" y="24.026754"/>
      </g>
     </g>
     <g id="text_14">
      <!-- 60 -->
      <defs>
       <path d="M 16.5 36.375 
Q 23.578125 46.578125 34.90625 46.578125 
Q 45.40625 46.578125 51.8125 39.265625 
Q 57.421875 32.90625 57.421875 23.78125 
Q 57.421875 13.8125 51.125 6.78125 
Q 44.578125 -0.484375 34.03125 -0.484375 
Q 21.484375 -0.484375 14.40625 9.078125 
Q 7.515625 18.40625 7.515625 34.8125 
Q 7.515625 53.515625 15.828125 64.203125 
Q 23.34375 73.828125 35.5 73.828125 
Q 49.859375 73.828125 56.390625 62.890625 
L 49.21875 58.984375 
Q 45.21875 66.65625 35.9375 66.65625 
Q 17.484375 66.65625 16.109375 36.375 
z
M 33.453125 39.796875 
Q 26.3125 39.796875 21.625 34.46875 
Q 17.4375 29.6875 17.4375 24.078125 
Q 17.4375 18.0625 21.140625 13.1875 
Q 26.125 6.6875 33.734375 6.6875 
Q 41.703125 6.6875 45.953125 13.1875 
Q 48.828125 17.625 48.828125 23.484375 
Q 48.828125 30.375 45.015625 34.8125 
Q 40.625 39.796875 33.453125 39.796875 
z
" id="IPAexGothic-54"/>
      </defs>
      <g transform="translate(7.2 27.772067)scale(0.1 -0.1)">
       <use xlink:href="#IPAexGothic-54"/>
       <use x="62.988281" xlink:href="#IPAexGothic-48"/>
      </g>
     </g>
    </g>
   </g>
   <g id="patch_149">
    <path d="M 26.796875 273.312 
L 26.796875 7.2 
" style="fill:none;stroke:#000000;stroke-linecap:square;stroke-linejoin:miter;stroke-width:0.8;"/>
   </g>
   <g id="patch_150">
    <path d="M 383.916875 273.312 
L 383.916875 7.2 
" style="fill:none;stroke:#000000;stroke-linecap:square;stroke-linejoin:miter;stroke-width:0.8;"/>
   </g>
   <g id="patch_151">
    <path d="M 26.796875 273.312 
L 383.916875 273.312 
" style="fill:none;stroke:#000000;stroke-linecap:square;stroke-linejoin:miter;stroke-width:0.8;"/>
   </g>
   <g id="patch_152">
    <path d="M 26.796875 7.2 
L 383.916875 7.2 
" style="fill:none;stroke:#000000;stroke-linecap:square;stroke-linejoin:miter;stroke-width:0.8;"/>
   </g>
   <g id="legend_1">
    <g id="patch_153">
     <path d="M 33.796875 43.98125 
L 95.796875 43.98125 
Q 97.796875 43.98125 97.796875 41.98125 
L 97.796875 14.2 
Q 97.796875 12.2 95.796875 12.2 
L 33.796875 12.2 
Q 31.796875 12.2 31.796875 14.2 
L 31.796875 41.98125 
Q 31.796875 43.98125 33.796875 43.98125 
z
" style="fill:#ffffff;opacity:0.8;stroke:#cccccc;stroke-linejoin:miter;"/>
    </g>
    <g id="patch_154">
     <path d="M 35.796875 23.690625 
L 55.796875 23.690625 
L 55.796875 16.690625 
L 35.796875 16.690625 
z
" style="fill:#1f77b4;opacity:0.5;stroke:#000000;stroke-linejoin:miter;"/>
    </g>
    <g id="text_15">
     <!--  -->
     <defs>
      <path d="M 73.734375 56.84375 
Q 80.609375 62.75 85.203125 68.609375 
L 91.109375 64.40625 
Q 84.46875 57.8125 78.71875 53.328125 
Q 85.9375 48.6875 95.40625 44.625 
L 90.625 38.375 
Q 81.734375 42.78125 73.53125 48.640625 
L 73.53125 43.3125 
L 64.109375 43.3125 
L 64.109375 29.984375 
L 89.890625 29.984375 
L 89.890625 23.78125 
L 64.109375 23.78125 
L 64.109375 5.609375 
Q 64.109375 2.484375 65.71875 2.046875 
Q 67.390625 1.46875 73.09375 1.46875 
Q 82.125 1.46875 83.59375 2.984375 
Q 85.0625 4.4375 85.5 11.96875 
Q 85.5 13.484375 85.59375 14.0625 
L 92.625 11.578125 
Q 92.1875 0.390625 89.703125 -2.203125 
Q 87.0625 -5.328125 72.609375 -5.328125 
Q 63.8125 -5.328125 60.9375 -4 
Q 57.03125 -2.34375 57.03125 3.328125 
L 57.03125 23.78125 
L 42.578125 23.78125 
Q 40.1875 0.53125 11.078125 -7.421875 
L 7.28125 -0.984375 
Q 33.25 5.421875 35.5 23.78125 
L 10.015625 23.78125 
L 10.015625 29.984375 
L 35.796875 29.984375 
L 35.796875 43.3125 
L 27.78125 43.3125 
L 27.78125 47.015625 
Q 19.734375 41.359375 9.078125 36.1875 
L 4.5 42.1875 
Q 16.3125 46.734375 25.984375 53.8125 
Q 19.828125 60.15625 13.484375 64.59375 
L 18.609375 69.140625 
Q 26.515625 62.59375 31.109375 58.015625 
Q 38.03125 64.0625 43.171875 72.125 
L 20.0625 72.125 
L 20.0625 78.21875 
L 54 78.21875 
Q 58.203125 71.34375 62.890625 66.3125 
Q 69.09375 71.625 74.03125 77.9375 
L 79.828125 73.734375 
Q 74.171875 67.625 67.09375 62.203125 
Q 70.40625 59.078125 73.734375 56.84375 
z
M 57.03125 43.3125 
L 42.78125 43.3125 
L 42.78125 29.984375 
L 57.03125 29.984375 
z
M 30.90625 49.3125 
L 72.515625 49.3125 
Q 58.6875 59.28125 50.59375 71 
Q 43.21875 58.890625 30.90625 49.3125 
z
" id="IPAexGothic-30330"/>
      <path d="M 63.71875 2.875 
L 95.015625 2.875 
L 95.015625 -3.515625 
L 23.96875 -3.515625 
L 23.96875 2.875 
L 37.3125 2.875 
L 37.3125 38.28125 
L 44 38.28125 
L 44 2.875 
L 56.84375 2.875 
L 56.84375 46.578125 
L 30.515625 46.578125 
L 30.515625 52.78125 
L 90.046875 52.78125 
L 90.046875 46.578125 
L 63.71875 46.578125 
L 63.71875 29.203125 
L 87.796875 29.203125 
L 87.796875 23.09375 
L 63.71875 23.09375 
z
M 60.203125 70.515625 
L 93.890625 70.515625 
L 93.890625 64.109375 
L 27.296875 64.109375 
L 27.296875 41.40625 
Q 27.296875 23.140625 24.21875 12.203125 
Q 21.390625 2.25 14.59375 -6.203125 
L 9.625 -1.171875 
Q 18.75 10.359375 20.125 27.484375 
Q 15.4375 24.125 7.078125 19.734375 
L 4 26.609375 
Q 12.3125 29.59375 20.40625 34.328125 
L 20.40625 37.890625 
L 20.40625 70.515625 
L 52.78125 70.515625 
L 52.78125 81.984375 
L 60.203125 81.984375 
z
M 12.015625 40.375 
Q 8.890625 50.78125 5.421875 57.90625 
L 11.375 60.59375 
Q 15.234375 53.859375 18.40625 43.703125 
z
" id="IPAexGothic-30151"/>
      <path d="M 81.734375 75 
L 81.734375 -4.5 
L 74.125 -4.5 
L 74.125 2 
L 25.734375 2 
L 25.734375 -4.5 
L 18.109375 -4.5 
L 18.109375 75 
z
M 25.734375 68.3125 
L 25.734375 42.671875 
L 74.125 42.671875 
L 74.125 68.3125 
z
M 25.734375 35.890625 
L 25.734375 8.6875 
L 74.125 8.6875 
L 74.125 35.890625 
z
" id="IPAexGothic-26085"/>
     </defs>
     <g transform="translate(63.796875 23.690625)scale(0.1 -0.1)">
      <use xlink:href="#IPAexGothic-30330"/>
      <use x="100" xlink:href="#IPAexGothic-30151"/>
      <use x="200" xlink:href="#IPAexGothic-26085"/>
     </g>
    </g>
    <g id="patch_155">
     <path d="M 35.796875 38.08125 
L 55.796875 38.08125 
L 55.796875 31.08125 
L 35.796875 31.08125 
z
" style="fill:#ff7f0e;opacity:0.5;stroke:#000000;stroke-linejoin:miter;"/>
    </g>
    <g id="text_16">
     <!--  -->
     <defs>
      <path d="M 67.921875 50.296875 
Q 70.5625 55.28125 72.609375 61.8125 
L 79.296875 60.203125 
Q 76.171875 53.609375 74.21875 50.296875 
L 92 50.296875 
L 92 44.484375 
L 73.4375 44.484375 
L 73.4375 34.71875 
L 89.703125 34.71875 
L 89.703125 29.203125 
L 73.4375 29.203125 
L 73.4375 19.53125 
L 89.703125 19.53125 
L 89.703125 14.015625 
L 73.4375 14.015625 
L 73.4375 3.609375 
L 94.28125 3.609375 
L 94.28125 -2.203125 
L 54.109375 -2.203125 
L 54.109375 -6.984375 
L 47.609375 -6.984375 
L 47.609375 38.1875 
Q 43.0625 31.546875 38.8125 26.609375 
L 35.6875 32.8125 
Q 49.359375 49.953125 54.78125 64.796875 
L 45.515625 64.796875 
L 45.515625 53.515625 
L 39.203125 53.515625 
L 39.203125 70.609375 
L 56.78125 70.609375 
Q 58.59375 76.609375 60.109375 83.109375 
L 66.703125 81.890625 
Q 65.234375 75.53125 63.625 70.609375 
L 92.71875 70.609375 
L 92.71875 53.515625 
L 86.328125 53.515625 
L 86.328125 64.796875 
L 61.53125 64.796875 
Q 58.546875 56.984375 54.890625 50.296875 
z
M 67.140625 44.484375 
L 54.109375 44.484375 
L 54.109375 34.71875 
L 67.140625 34.71875 
z
M 67.140625 29.203125 
L 54.109375 29.203125 
L 54.109375 19.53125 
L 67.140625 19.53125 
z
M 67.140625 14.015625 
L 54.109375 14.015625 
L 54.109375 3.609375 
L 67.140625 3.609375 
z
M 18.109375 46 
L 35.546875 46 
L 35.546875 3.078125 
L 18.953125 3.078125 
L 18.953125 -5.125 
L 12.75 -5.125 
L 12.75 34.46875 
Q 10.15625 29.734375 6.15625 23.78125 
L 2.9375 29.984375 
Q 14.546875 47.078125 18.75 69 
L 6.34375 69 
L 6.34375 75.296875 
L 37.640625 75.296875 
L 37.640625 69 
L 25.25 69 
L 24.953125 68.015625 
Q 22.75 57.234375 18.109375 46 
z
M 18.953125 39.890625 
L 18.953125 9.1875 
L 29.34375 9.1875 
L 29.34375 39.890625 
z
" id="IPAexGothic-30906"/>
      <path d="M 53.609375 4.734375 
Q 61.421875 3.515625 73.578125 3.515625 
Q 81.109375 3.515625 94.578125 4.109375 
Q 93.171875 0.921875 92 -3.5625 
Q 81.78125 -3.90625 75.6875 -3.90625 
Q 55.765625 -3.90625 46.921875 -1.21875 
Q 35.296875 2.390625 27.34375 14.109375 
Q 22.515625 2.546875 12.59375 -7.171875 
L 7.421875 -1.171875 
Q 22.125 11.859375 26.3125 37.796875 
L 33.203125 35.984375 
Q 31.734375 27.4375 29.828125 21.1875 
Q 36.53125 10.59375 46.4375 6.5 
L 46.4375 46 
L 22.40625 46 
L 22.40625 52.390625 
L 77.484375 52.390625 
L 77.484375 46 
L 53.609375 46 
L 53.609375 31 
L 84.328125 31 
L 84.328125 24.515625 
L 53.609375 24.515625 
z
M 53.421875 69.1875 
L 89.84375 69.1875 
L 89.84375 49.46875 
L 82.421875 49.46875 
L 82.421875 62.890625 
L 17.53125 62.890625 
L 17.53125 49.46875 
L 10.109375 49.46875 
L 10.109375 69.1875 
L 45.90625 69.1875 
L 45.90625 83.015625 
L 53.421875 83.015625 
z
" id="IPAexGothic-23450"/>
     </defs>
     <g transform="translate(63.796875 38.08125)scale(0.1 -0.1)">
      <use xlink:href="#IPAexGothic-30906"/>
      <use x="100" xlink:href="#IPAexGothic-23450"/>
      <use x="200" xlink:href="#IPAexGothic-26085"/>
     </g>
    </g>
   </g>
  </g>
 </g>
 <defs>
  <clipPath id="pad366afc93">
   <rect height="266.112" width="357.12" x="26.796875" y="7.2"/>
  </clipPath>
 </defs>
</svg>
