<?xml version="1.0" encoding="utf-8" standalone="no"?>
<!DOCTYPE svg PUBLIC "-//W3C//DTD SVG 1.1//EN"
  "http://www.w3.org/Graphics/SVG/1.1/DTD/svg11.dtd">
<!-- Created with matplotlib (https://matplotlib.org/) -->
<svg height="309.29325pt" version="1.1" viewBox="0 0 397.415313 309.29325" width="397.415313pt" xmlns="http://www.w3.org/2000/svg" xmlns:xlink="http://www.w3.org/1999/xlink">
 <defs>
  <style type="text/css">
*{stroke-linecap:butt;stroke-linejoin:round;}
  </style>
 </defs>
 <g id="figure_1">
  <g id="patch_1">
   <path d="M 0 309.29325 
L 397.415313 309.29325 
L 397.415313 0 
L 0 0 
z
" style="fill:#ffffff;"/>
  </g>
  <g id="axes_1">
   <g id="patch_2">
    <path d="M 33.095313 273.312 
L 390.215312 273.312 
L 390.215312 7.2 
L 33.095313 7.2 
z
" style="fill:#ffffff;"/>
   </g>
   <g id="matplotlib.axis_1">
    <g id="xtick_1">
     <g id="line2d_1">
      <defs>
       <path d="M 0 0 
L 0 3.5 
" id="m9f698511a8" style="stroke:#000000;stroke-width:0.8;"/>
      </defs>
      <g>
       <use style="stroke:#000000;stroke-width:0.8;" x="43.024068" xlink:href="#m9f698511a8" y="273.312"/>
      </g>
     </g>
     <g id="text_1">
      <!-- Jan -->
      <defs>
       <path d="M 28.421875 72.40625 
L 28.421875 19.28125 
Q 28.421875 -0.484375 11.921875 -0.484375 
Q 4.734375 -0.484375 -1.953125 3.265625 
L 1.3125 10.0625 
Q 5.90625 6.984375 10.84375 6.984375 
Q 19.53125 6.984375 19.53125 18.796875 
L 19.53125 72.40625 
z
" id="IPAexGothic-74"/>
       <path d="M 49.3125 0.984375 
L 41.75 0.984375 
Q 39.984375 4.734375 39.546875 8.6875 
L 39.203125 8.6875 
Q 33.546875 -0.390625 22.3125 -0.390625 
Q 14.59375 -0.390625 9.71875 4.5 
Q 5.421875 8.796875 5.421875 14.984375 
Q 5.421875 30.421875 32.03125 31.203125 
L 38.71875 31.390625 
L 38.71875 33.984375 
Q 38.71875 39.203125 35.75 42.1875 
Q 32.625 45.3125 27.734375 45.3125 
Q 19.34375 45.3125 15.140625 37.15625 
L 7.71875 40.578125 
Q 14.65625 52 27.9375 52 
Q 37.109375 52 42.046875 46.875 
Q 46.625 42.28125 46.625 33.890625 
L 46.625 15.578125 
Q 46.625 6.25 49.3125 0.984375 
z
M 38.921875 25.390625 
L 33.453125 25.296875 
Q 14.109375 24.859375 14.109375 14.890625 
Q 14.109375 11.375 16.40625 9.078125 
Q 19.234375 6.296875 23.828125 6.296875 
Q 30.21875 6.296875 34.90625 10.984375 
Q 38.921875 15.140625 38.921875 21 
z
" id="IPAexGothic-97"/>
       <path d="M 52 0.984375 
L 43.40625 0.984375 
L 43.40625 31.890625 
Q 43.40625 44.578125 32.90625 44.578125 
Q 22.3125 44.578125 17.390625 31.890625 
L 17.390625 0.984375 
L 8.796875 0.984375 
L 8.796875 50.78125 
L 16.796875 50.78125 
L 16.796875 41.796875 
Q 23.828125 51.8125 34.71875 51.8125 
Q 52 51.8125 52 32.375 
z
" id="IPAexGothic-110"/>
      </defs>
      <g transform="translate(35.355318 287.802625)scale(0.1 -0.1)">
       <use xlink:href="#IPAexGothic-74"/>
       <use x="37.988281" xlink:href="#IPAexGothic-97"/>
       <use x="92.96875" xlink:href="#IPAexGothic-110"/>
      </g>
     </g>
    </g>
    <g id="xtick_2">
     <g id="line2d_2">
      <g>
       <use style="stroke:#000000;stroke-width:0.8;" x="87.15187" xlink:href="#m9f698511a8" y="273.312"/>
      </g>
     </g>
     <g id="text_2">
      <!-- 15 -->
      <defs>
       <path d="M 38.484375 0.984375 
L 29.6875 0.984375 
L 29.6875 64.109375 
Q 21.4375 61.28125 12.3125 59.328125 
L 10.6875 66.109375 
Q 23.734375 69.390625 32.90625 73.921875 
L 38.484375 73.921875 
z
" id="IPAexGothic-49"/>
       <path d="M 18.40625 40.671875 
Q 25.53125 46.296875 33.9375 46.296875 
Q 44 46.296875 50.640625 39.5 
Q 56.84375 33.015625 56.84375 23.390625 
Q 56.84375 14.65625 51.515625 8.015625 
Q 44.828125 -0.484375 31.734375 -0.484375 
Q 14.984375 -0.484375 7.328125 12.25 
L 14.65625 16.0625 
Q 20.453125 6.78125 31.453125 6.78125 
Q 38.53125 6.78125 43.265625 11.1875 
Q 48.140625 15.828125 48.140625 23.484375 
Q 48.140625 30.71875 43.84375 35.015625 
Q 39.359375 39.5 32.125 39.5 
Q 21.96875 39.5 16.75 31.6875 
L 9.234375 32.671875 
L 13.8125 72.40625 
L 53.21875 72.40625 
L 53.21875 64.890625 
L 20.953125 64.890625 
L 17.71875 40.671875 
z
" id="IPAexGothic-53"/>
      </defs>
      <g transform="translate(80.853433 287.802625)scale(0.1 -0.1)">
       <use xlink:href="#IPAexGothic-49"/>
       <use x="62.988281" xlink:href="#IPAexGothic-53"/>
      </g>
     </g>
    </g>
    <g id="xtick_3">
     <g id="line2d_3">
      <g>
       <use style="stroke:#000000;stroke-width:0.8;" x="140.73563" xlink:href="#m9f698511a8" y="273.312"/>
      </g>
     </g>
     <g id="text_3">
      <!-- Feb -->
      <defs>
       <path d="M 54.203125 64.703125 
L 18.3125 64.703125 
L 18.3125 41.5 
L 50.09375 41.5 
L 50.09375 34.1875 
L 18.3125 34.1875 
L 18.3125 0.984375 
L 9.515625 0.984375 
L 9.515625 72.40625 
L 54.203125 72.40625 
z
" id="IPAexGothic-70"/>
       <path d="M 13.484375 24.90625 
Q 13.921875 16.265625 18.890625 11.28125 
Q 23.96875 6.203125 31.203125 6.203125 
Q 40.71875 6.203125 46.296875 15.09375 
L 51.90625 11.375 
Q 44.828125 -0.484375 30.171875 -0.484375 
Q 19.09375 -0.484375 11.96875 6.59375 
Q 4.78125 13.8125 4.78125 25.640625 
Q 4.78125 38.1875 12.3125 45.703125 
Q 19 52.390625 29 52.390625 
Q 38.421875 52.390625 44.78125 46.1875 
Q 51.90625 38.96875 51.90625 26.90625 
L 51.90625 24.90625 
z
M 43.0625 31.203125 
Q 42.328125 37.984375 38.28125 41.890625 
Q 34.28125 45.90625 28.8125 45.90625 
Q 22.46875 45.90625 17.96875 40.484375 
Q 14.890625 36.8125 13.96875 31.203125 
z
" id="IPAexGothic-101"/>
       <path d="M 17.578125 42.671875 
Q 24.21875 52.203125 34.671875 52.203125 
Q 43.5625 52.203125 49.859375 45.90625 
Q 57.171875 38.578125 57.171875 25.6875 
Q 57.171875 13.09375 49.859375 5.8125 
Q 43.5625 -0.484375 34.46875 -0.484375 
Q 24.359375 -0.484375 17 8.0625 
L 15.765625 0.6875 
L 9.078125 0.6875 
L 9.078125 74.90625 
L 17.578125 74.90625 
z
M 17.578125 31.203125 
L 17.578125 19.578125 
Q 17.578125 13.875 23.875 9.375 
Q 28.171875 6.296875 33.109375 6.296875 
Q 38.875 6.296875 42.875 10.296875 
Q 48.1875 15.765625 48.1875 25.484375 
Q 48.1875 34.28125 43.796875 39.890625 
Q 39.453125 45.3125 33.203125 45.3125 
Q 27.484375 45.3125 22.46875 40.28125 
Q 17.578125 35.40625 17.578125 31.203125 
z
" id="IPAexGothic-98"/>
      </defs>
      <g transform="translate(131.912193 287.802625)scale(0.1 -0.1)">
       <use xlink:href="#IPAexGothic-70"/>
       <use x="57.177734" xlink:href="#IPAexGothic-101"/>
       <use x="114.0625" xlink:href="#IPAexGothic-98"/>
      </g>
     </g>
    </g>
    <g id="xtick_4">
     <g id="line2d_4">
      <g>
       <use style="stroke:#000000;stroke-width:0.8;" x="184.863433" xlink:href="#m9f698511a8" y="273.312"/>
      </g>
     </g>
     <g id="text_4">
      <!-- 15 -->
      <g transform="translate(178.564995 287.802625)scale(0.1 -0.1)">
       <use xlink:href="#IPAexGothic-49"/>
       <use x="62.988281" xlink:href="#IPAexGothic-53"/>
      </g>
     </g>
    </g>
    <g id="xtick_5">
     <g id="line2d_5">
      <g>
       <use style="stroke:#000000;stroke-width:0.8;" x="232.143221" xlink:href="#m9f698511a8" y="273.312"/>
      </g>
     </g>
     <g id="text_5">
      <!-- Mar -->
      <defs>
       <path d="M 80.421875 0.984375 
L 71.828125 0.984375 
L 71.828125 39.59375 
Q 71.828125 51.265625 72.40625 64.59375 
L 72.015625 64.59375 
Q 68.0625 53.265625 63.53125 41.796875 
L 47.90625 3.265625 
L 41.40625 3.265625 
L 25.640625 42.578125 
Q 20.75 54.78125 17.625 64.703125 
L 17.234375 64.703125 
Q 17.828125 48.921875 17.828125 39.890625 
L 17.828125 0.984375 
L 9.515625 0.984375 
L 9.515625 72.40625 
L 22.125 72.40625 
L 39.109375 30.375 
Q 42.140625 23 44.828125 14.15625 
L 45.125 14.15625 
Q 47.3125 22.125 50.53125 30.171875 
L 67.4375 72.40625 
L 80.421875 72.40625 
z
" id="IPAexGothic-77"/>
       <path d="M 36.078125 51.8125 
L 34.578125 43.265625 
Q 32.90625 43.609375 31.59375 43.609375 
Q 25.828125 43.609375 22.078125 38.1875 
Q 17.390625 31.34375 17.390625 26.171875 
L 17.390625 0.984375 
L 8.796875 0.984375 
L 8.796875 50.78125 
L 16.890625 50.78125 
L 16.5 35.984375 
L 16.703125 35.984375 
Q 22.21875 52.203125 32.765625 52.203125 
Q 34.46875 52.203125 36.078125 51.8125 
z
" id="IPAexGothic-114"/>
      </defs>
      <g transform="translate(223.033846 287.802625)scale(0.1 -0.1)">
       <use xlink:href="#IPAexGothic-77"/>
       <use x="90.185547" xlink:href="#IPAexGothic-97"/>
       <use x="145.166016" xlink:href="#IPAexGothic-114"/>
      </g>
     </g>
    </g>
    <g id="xtick_6">
     <g id="line2d_6">
      <g>
       <use style="stroke:#000000;stroke-width:0.8;" x="276.271023" xlink:href="#m9f698511a8" y="273.312"/>
      </g>
     </g>
     <g id="text_6">
      <!-- 15 -->
      <g transform="translate(269.972586 287.802625)scale(0.1 -0.1)">
       <use xlink:href="#IPAexGothic-49"/>
       <use x="62.988281" xlink:href="#IPAexGothic-53"/>
      </g>
     </g>
    </g>
    <g id="xtick_7">
     <g id="line2d_7">
      <g>
       <use style="stroke:#000000;stroke-width:0.8;" x="329.854783" xlink:href="#m9f698511a8" y="273.312"/>
      </g>
     </g>
     <g id="text_7">
      <!-- Apr -->
      <defs>
       <path d="M 63.375 0.984375 
L 53.8125 0.984375 
L 45.90625 22.015625 
L 17.1875 22.015625 
L 9.421875 0.984375 
L -0.09375 0.984375 
L 28.21875 72.90625 
L 35.296875 72.90625 
z
M 43.40625 29.109375 
L 36.1875 48.09375 
Q 33.203125 56.0625 31.6875 62.5 
L 31.390625 62.5 
Q 29.640625 55.671875 26.8125 48.09375 
L 19.734375 29.109375 
z
" id="IPAexGothic-65"/>
       <path d="M 16.796875 42 
Q 23.828125 52.203125 34.46875 52.203125 
Q 43.265625 52.203125 49.5625 45.90625 
Q 56.890625 38.578125 56.890625 25.6875 
Q 56.890625 13.140625 49.65625 5.8125 
Q 43.359375 -0.484375 34.375 -0.484375 
Q 24.515625 -0.484375 17.28125 7.765625 
L 17.28125 -19 
L 8.796875 -19 
L 8.796875 50.78125 
L 16.796875 50.78125 
z
M 17.28125 30.46875 
L 17.28125 20.171875 
Q 17.28125 14.015625 23.6875 9.375 
Q 27.984375 6.296875 32.90625 6.296875 
Q 38.578125 6.296875 42.578125 10.296875 
Q 47.90625 15.578125 47.90625 25.484375 
Q 47.90625 34.375 43.5 39.984375 
Q 39.109375 45.3125 32.8125 45.3125 
Q 25.875 45.3125 20.90625 38.8125 
Q 17.28125 34.125 17.28125 30.46875 
z
" id="IPAexGothic-112"/>
      </defs>
      <g transform="translate(321.712595 287.802625)scale(0.1 -0.1)">
       <use xlink:href="#IPAexGothic-65"/>
       <use x="63.720703" xlink:href="#IPAexGothic-112"/>
       <use x="125.830078" xlink:href="#IPAexGothic-114"/>
      </g>
     </g>
    </g>
    <g id="xtick_8">
     <g id="line2d_8">
      <g>
       <use style="stroke:#000000;stroke-width:0.8;" x="373.982585" xlink:href="#m9f698511a8" y="273.312"/>
      </g>
     </g>
     <g id="text_8">
      <!-- 15 -->
      <g transform="translate(367.684148 287.802625)scale(0.1 -0.1)">
       <use xlink:href="#IPAexGothic-49"/>
       <use x="62.988281" xlink:href="#IPAexGothic-53"/>
      </g>
     </g>
    </g>
    <g id="text_9">
     <!-- 2020-Apr -->
     <defs>
      <path d="M 57.171875 0.984375 
L 6.984375 0.984375 
L 6.984375 9.28125 
Q 12.890625 23.046875 29.59375 34.421875 
L 32.375 36.28125 
Q 40.921875 42.140625 43.609375 45.40625 
Q 46.6875 49.265625 46.6875 53.8125 
Q 46.6875 58.9375 43.0625 62.546875 
Q 39.0625 66.546875 32.5625 66.546875 
Q 19.53125 66.546875 15.484375 52 
L 7.765625 54.78125 
Q 13.328125 73.828125 33.0625 73.828125 
Q 43.84375 73.828125 50.25 67.4375 
Q 55.859375 61.671875 55.859375 53.515625 
Q 55.859375 47.46875 52.25 42.53125 
Q 48.921875 37.75 36.96875 30.28125 
L 34.859375 29 
Q 19.625 19.578125 15.28125 8.890625 
L 57.171875 8.890625 
z
" id="IPAexGothic-50"/>
      <path d="M 31.84375 73.828125 
Q 45.015625 73.828125 52.09375 61.625 
Q 57.71875 51.953125 57.71875 36.625 
Q 57.71875 21.4375 52.09375 11.578125 
Q 45.125 -0.484375 31.5 -0.484375 
Q 17.921875 -0.484375 10.9375 11.578125 
Q 5.328125 21.4375 5.328125 36.71875 
Q 5.328125 58.015625 15.625 67.71875 
Q 22.171875 73.828125 31.84375 73.828125 
z
M 31.5 66.65625 
Q 23.6875 66.65625 19.1875 58.734375 
Q 14.59375 50.734375 14.59375 36.625 
Q 14.59375 22.75 19.09375 14.796875 
Q 23.640625 6.984375 31.5 6.984375 
Q 40.921875 6.984375 45.453125 18.015625 
Q 48.4375 25.34375 48.4375 37.109375 
Q 48.4375 50.875 43.84375 58.734375 
Q 39.203125 66.65625 31.5 66.65625 
z
" id="IPAexGothic-48"/>
      <path d="M 30.765625 26.609375 
L 4.984375 26.609375 
L 4.984375 34.421875 
L 30.765625 34.421875 
z
" id="IPAexGothic-45"/>
     </defs>
     <g transform="translate(345.1575 300.19325)scale(0.1 -0.1)">
      <use xlink:href="#IPAexGothic-50"/>
      <use x="62.988281" xlink:href="#IPAexGothic-48"/>
      <use x="125.976562" xlink:href="#IPAexGothic-50"/>
      <use x="188.964844" xlink:href="#IPAexGothic-48"/>
      <use x="251.953125" xlink:href="#IPAexGothic-45"/>
      <use x="287.744141" xlink:href="#IPAexGothic-65"/>
      <use x="351.464844" xlink:href="#IPAexGothic-112"/>
      <use x="413.574219" xlink:href="#IPAexGothic-114"/>
     </g>
    </g>
   </g>
   <g id="matplotlib.axis_2">
    <g id="ytick_1">
     <g id="line2d_9">
      <defs>
       <path d="M 0 0 
L -3.5 0 
" id="mdace76ce4e" style="stroke:#000000;stroke-width:0.8;"/>
      </defs>
      <g>
       <use style="stroke:#000000;stroke-width:0.8;" x="33.095313" xlink:href="#mdace76ce4e" y="261.216"/>
      </g>
     </g>
     <g id="text_10">
      <!-- 0 -->
      <g transform="translate(19.796875 264.961312)scale(0.1 -0.1)">
       <use xlink:href="#IPAexGothic-48"/>
      </g>
     </g>
    </g>
    <g id="ytick_2">
     <g id="line2d_10">
      <g>
       <use style="stroke:#000000;stroke-width:0.8;" x="33.095313" xlink:href="#mdace76ce4e" y="226.20587"/>
      </g>
     </g>
     <g id="text_11">
      <!-- 100 -->
      <g transform="translate(7.2 229.951182)scale(0.1 -0.1)">
       <use xlink:href="#IPAexGothic-49"/>
       <use x="62.988281" xlink:href="#IPAexGothic-48"/>
       <use x="125.976562" xlink:href="#IPAexGothic-48"/>
      </g>
     </g>
    </g>
    <g id="ytick_3">
     <g id="line2d_11">
      <g>
       <use style="stroke:#000000;stroke-width:0.8;" x="33.095313" xlink:href="#mdace76ce4e" y="191.19574"/>
      </g>
     </g>
     <g id="text_12">
      <!-- 200 -->
      <g transform="translate(7.2 194.941052)scale(0.1 -0.1)">
       <use xlink:href="#IPAexGothic-50"/>
       <use x="62.988281" xlink:href="#IPAexGothic-48"/>
       <use x="125.976562" xlink:href="#IPAexGothic-48"/>
      </g>
     </g>
    </g>
    <g id="ytick_4">
     <g id="line2d_12">
      <g>
       <use style="stroke:#000000;stroke-width:0.8;" x="33.095313" xlink:href="#mdace76ce4e" y="156.185609"/>
      </g>
     </g>
     <g id="text_13">
      <!-- 300 -->
      <defs>
       <path d="M 37.203125 37.796875 
Q 54.78125 34.625 54.78125 19.96875 
Q 54.78125 11.1875 48.875 5.5625 
Q 42.328125 -0.484375 30.375 -0.484375 
Q 12.453125 -0.484375 4.5 13.765625 
L 11.8125 17.671875 
Q 17.328125 6.890625 30.28125 6.890625 
Q 37.890625 6.890625 42.09375 10.796875 
Q 46.09375 14.5 46.09375 20.171875 
Q 46.09375 26.859375 40.09375 30.90625 
Q 34.625 34.578125 25.6875 34.578125 
L 21.296875 34.578125 
L 21.296875 41.703125 
L 25.875 41.703125 
Q 34.859375 41.703125 39.59375 45.125 
Q 44.671875 48.734375 44.671875 54.828125 
Q 44.671875 61.46875 38.96875 64.65625 
Q 35.296875 66.84375 30.171875 66.84375 
Q 19.34375 66.84375 14.109375 55.90625 
L 6.78125 59.421875 
Q 14.015625 73.828125 30.28125 73.828125 
Q 40.578125 73.828125 46.96875 68.65625 
Q 53.375 63.578125 53.375 55.21875 
Q 53.375 47.3125 47.171875 42.28125 
Q 43.171875 39.0625 37.203125 38.1875 
z
" id="IPAexGothic-51"/>
      </defs>
      <g transform="translate(7.2 159.930922)scale(0.1 -0.1)">
       <use xlink:href="#IPAexGothic-51"/>
       <use x="62.988281" xlink:href="#IPAexGothic-48"/>
       <use x="125.976562" xlink:href="#IPAexGothic-48"/>
      </g>
     </g>
    </g>
    <g id="ytick_5">
     <g id="line2d_13">
      <g>
       <use style="stroke:#000000;stroke-width:0.8;" x="33.095313" xlink:href="#mdace76ce4e" y="121.175479"/>
      </g>
     </g>
     <g id="text_14">
      <!-- 400 -->
      <defs>
       <path d="M 59.578125 18.109375 
L 47.796875 18.109375 
L 47.796875 0.984375 
L 39.796875 0.984375 
L 39.796875 18.109375 
L 3.078125 18.109375 
L 3.078125 26.125 
L 38.375 73.09375 
L 47.796875 73.09375 
L 47.796875 25.53125 
L 59.578125 25.53125 
z
M 40.28125 64.203125 
L 39.984375 64.203125 
Q 35.59375 57.125 31.296875 51.3125 
L 11.859375 25.53125 
L 39.796875 25.53125 
L 39.796875 49.125 
Q 39.796875 54.390625 40.28125 64.203125 
z
" id="IPAexGothic-52"/>
      </defs>
      <g transform="translate(7.2 124.920792)scale(0.1 -0.1)">
       <use xlink:href="#IPAexGothic-52"/>
       <use x="62.988281" xlink:href="#IPAexGothic-48"/>
       <use x="125.976562" xlink:href="#IPAexGothic-48"/>
      </g>
     </g>
    </g>
    <g id="ytick_6">
     <g id="line2d_14">
      <g>
       <use style="stroke:#000000;stroke-width:0.8;" x="33.095313" xlink:href="#mdace76ce4e" y="86.165349"/>
      </g>
     </g>
     <g id="text_15">
      <!-- 500 -->
      <g transform="translate(7.2 89.910661)scale(0.1 -0.1)">
       <use xlink:href="#IPAexGothic-53"/>
       <use x="62.988281" xlink:href="#IPAexGothic-48"/>
       <use x="125.976562" xlink:href="#IPAexGothic-48"/>
      </g>
     </g>
    </g>
    <g id="ytick_7">
     <g id="line2d_15">
      <g>
       <use style="stroke:#000000;stroke-width:0.8;" x="33.095313" xlink:href="#mdace76ce4e" y="51.155219"/>
      </g>
     </g>
     <g id="text_16">
      <!-- 600 -->
      <defs>
       <path d="M 16.5 36.375 
Q 23.578125 46.578125 34.90625 46.578125 
Q 45.40625 46.578125 51.8125 39.265625 
Q 57.421875 32.90625 57.421875 23.78125 
Q 57.421875 13.8125 51.125 6.78125 
Q 44.578125 -0.484375 34.03125 -0.484375 
Q 21.484375 -0.484375 14.40625 9.078125 
Q 7.515625 18.40625 7.515625 34.8125 
Q 7.515625 53.515625 15.828125 64.203125 
Q 23.34375 73.828125 35.5 73.828125 
Q 49.859375 73.828125 56.390625 62.890625 
L 49.21875 58.984375 
Q 45.21875 66.65625 35.9375 66.65625 
Q 17.484375 66.65625 16.109375 36.375 
z
M 33.453125 39.796875 
Q 26.3125 39.796875 21.625 34.46875 
Q 17.4375 29.6875 17.4375 24.078125 
Q 17.4375 18.0625 21.140625 13.1875 
Q 26.125 6.6875 33.734375 6.6875 
Q 41.703125 6.6875 45.953125 13.1875 
Q 48.828125 17.625 48.828125 23.484375 
Q 48.828125 30.375 45.015625 34.8125 
Q 40.625 39.796875 33.453125 39.796875 
z
" id="IPAexGothic-54"/>
      </defs>
      <g transform="translate(7.2 54.900531)scale(0.1 -0.1)">
       <use xlink:href="#IPAexGothic-54"/>
       <use x="62.988281" xlink:href="#IPAexGothic-48"/>
       <use x="125.976562" xlink:href="#IPAexGothic-48"/>
      </g>
     </g>
    </g>
    <g id="ytick_8">
     <g id="line2d_16">
      <g>
       <use style="stroke:#000000;stroke-width:0.8;" x="33.095313" xlink:href="#mdace76ce4e" y="16.145088"/>
      </g>
     </g>
     <g id="text_17">
      <!-- 700 -->
      <defs>
       <path d="M 56.203125 66.609375 
Q 34.96875 32.90625 27.78125 0.984375 
L 17.671875 0.984375 
Q 24.703125 28.65625 46.09375 64.5 
L 6.6875 64.5 
L 6.6875 72.40625 
L 56.203125 72.40625 
z
" id="IPAexGothic-55"/>
      </defs>
      <g transform="translate(7.2 19.890401)scale(0.1 -0.1)">
       <use xlink:href="#IPAexGothic-55"/>
       <use x="62.988281" xlink:href="#IPAexGothic-48"/>
       <use x="125.976562" xlink:href="#IPAexGothic-48"/>
      </g>
     </g>
    </g>
   </g>
   <g id="line2d_17">
    <path clip-path="url(#pa8700f73ef)" d="M 49.32804 260.865899 
L 52.480026 261.216 
L 55.632012 261.216 
L 58.783997 261.216 
L 61.935983 261.216 
L 65.087969 261.216 
L 68.239955 261.216 
L 71.391941 261.216 
L 74.543927 261.216 
L 77.695913 261.216 
L 80.847899 261.216 
L 83.999884 260.515797 
L 87.15187 261.216 
L 90.303856 261.216 
L 93.455842 261.216 
L 96.607828 261.216 
L 99.759814 261.216 
L 102.9118 260.165696 
L 106.063786 260.865899 
L 109.215771 260.515797 
L 112.367757 260.865899 
L 115.519743 260.515797 
L 118.671729 260.515797 
L 121.823715 260.165696 
L 124.975701 261.216 
L 128.127687 260.865899 
L 131.279673 260.515797 
L 134.431658 260.865899 
L 137.583644 259.815595 
L 140.73563 260.165696 
L 143.887616 259.815595 
L 147.039602 258.41519 
L 150.191588 259.465493 
L 153.343574 260.515797 
L 156.49556 259.115392 
L 159.647546 259.465493 
L 162.799531 260.515797 
L 165.951517 260.865899 
L 169.103503 258.065088 
L 172.255489 261.216 
L 175.407475 258.765291 
L 178.559461 258.765291 
L 181.711447 258.065088 
L 184.863433 258.065088 
L 188.015418 255.96448 
L 191.167404 257.364886 
L 194.31939 256.314582 
L 197.471376 255.96448 
L 200.623362 253.513771 
L 203.775348 254.914177 
L 206.927334 254.213974 
L 210.07932 253.16367 
L 213.231305 252.463467 
L 216.383291 249.662657 
L 219.535277 250.712961 
L 222.687263 252.463467 
L 225.839249 248.612353 
L 228.991235 252.463467 
L 232.143221 252.113366 
L 235.295207 247.211948 
L 238.447192 252.463467 
L 241.599178 250.012758 
L 244.751164 251.413164 
L 247.90315 251.763265 
L 251.055136 247.912151 
L 254.207122 250.012758 
L 257.359108 245.811543 
L 260.511094 252.113366 
L 263.663079 247.211948 
L 266.815065 250.012758 
L 269.967051 245.461441 
L 273.119037 250.712961 
L 276.271023 250.36286 
L 279.423009 247.211948 
L 282.574995 243.360834 
L 285.726981 241.960428 
L 288.878967 236.008706 
L 292.030952 239.859821 
L 295.182938 235.658605 
L 298.334924 234.958402 
L 301.48691 224.455363 
L 304.638896 228.306478 
L 307.790882 222.354755 
L 310.942868 217.453337 
L 314.094854 187.694726 
L 317.246839 197.147462 
L 320.398825 197.147462 
L 323.550811 165.288243 
L 326.702797 168.089054 
L 329.854783 150.583988 
L 333.006769 173.340573 
L 336.158755 160.736926 
L 339.310741 180.6927 
L 342.462726 196.447259 
L 345.614712 191.19574 
L 348.766698 208.000602 
L 351.918684 215.352729 
L 355.07067 230.056984 
L 358.222656 238.809517 
L 361.374642 245.811543 
L 364.526628 251.063062 
L 367.678613 257.014784 
L 370.830599 260.165696 
L 373.982585 261.216 
" style="fill:none;stroke:#1f77b4;stroke-linecap:square;stroke-width:1.5;"/>
    <defs>
     <path d="M 0 3 
C 0.795609 3 1.55874 2.683901 2.12132 2.12132 
C 2.683901 1.55874 3 0.795609 3 0 
C 3 -0.795609 2.683901 -1.55874 2.12132 -2.12132 
C 1.55874 -2.683901 0.795609 -3 0 -3 
C -0.795609 -3 -1.55874 -2.683901 -2.12132 -2.12132 
C -2.683901 -1.55874 -3 -0.795609 -3 0 
C -3 0.795609 -2.683901 1.55874 -2.12132 2.12132 
C -1.55874 2.683901 -0.795609 3 0 3 
z
" id="m5022eb01f1" style="stroke:#1f77b4;"/>
    </defs>
    <g clip-path="url(#pa8700f73ef)">
     <use style="fill:#1f77b4;stroke:#1f77b4;" x="49.32804" xlink:href="#m5022eb01f1" y="260.865899"/>
     <use style="fill:#1f77b4;stroke:#1f77b4;" x="52.480026" xlink:href="#m5022eb01f1" y="261.216"/>
     <use style="fill:#1f77b4;stroke:#1f77b4;" x="55.632012" xlink:href="#m5022eb01f1" y="261.216"/>
     <use style="fill:#1f77b4;stroke:#1f77b4;" x="58.783997" xlink:href="#m5022eb01f1" y="261.216"/>
     <use style="fill:#1f77b4;stroke:#1f77b4;" x="61.935983" xlink:href="#m5022eb01f1" y="261.216"/>
     <use style="fill:#1f77b4;stroke:#1f77b4;" x="65.087969" xlink:href="#m5022eb01f1" y="261.216"/>
     <use style="fill:#1f77b4;stroke:#1f77b4;" x="68.239955" xlink:href="#m5022eb01f1" y="261.216"/>
     <use style="fill:#1f77b4;stroke:#1f77b4;" x="71.391941" xlink:href="#m5022eb01f1" y="261.216"/>
     <use style="fill:#1f77b4;stroke:#1f77b4;" x="74.543927" xlink:href="#m5022eb01f1" y="261.216"/>
     <use style="fill:#1f77b4;stroke:#1f77b4;" x="77.695913" xlink:href="#m5022eb01f1" y="261.216"/>
     <use style="fill:#1f77b4;stroke:#1f77b4;" x="80.847899" xlink:href="#m5022eb01f1" y="261.216"/>
     <use style="fill:#1f77b4;stroke:#1f77b4;" x="83.999884" xlink:href="#m5022eb01f1" y="260.515797"/>
     <use style="fill:#1f77b4;stroke:#1f77b4;" x="87.15187" xlink:href="#m5022eb01f1" y="261.216"/>
     <use style="fill:#1f77b4;stroke:#1f77b4;" x="90.303856" xlink:href="#m5022eb01f1" y="261.216"/>
     <use style="fill:#1f77b4;stroke:#1f77b4;" x="93.455842" xlink:href="#m5022eb01f1" y="261.216"/>
     <use style="fill:#1f77b4;stroke:#1f77b4;" x="96.607828" xlink:href="#m5022eb01f1" y="261.216"/>
     <use style="fill:#1f77b4;stroke:#1f77b4;" x="99.759814" xlink:href="#m5022eb01f1" y="261.216"/>
     <use style="fill:#1f77b4;stroke:#1f77b4;" x="102.9118" xlink:href="#m5022eb01f1" y="260.165696"/>
     <use style="fill:#1f77b4;stroke:#1f77b4;" x="106.063786" xlink:href="#m5022eb01f1" y="260.865899"/>
     <use style="fill:#1f77b4;stroke:#1f77b4;" x="109.215771" xlink:href="#m5022eb01f1" y="260.515797"/>
     <use style="fill:#1f77b4;stroke:#1f77b4;" x="112.367757" xlink:href="#m5022eb01f1" y="260.865899"/>
     <use style="fill:#1f77b4;stroke:#1f77b4;" x="115.519743" xlink:href="#m5022eb01f1" y="260.515797"/>
     <use style="fill:#1f77b4;stroke:#1f77b4;" x="118.671729" xlink:href="#m5022eb01f1" y="260.515797"/>
     <use style="fill:#1f77b4;stroke:#1f77b4;" x="121.823715" xlink:href="#m5022eb01f1" y="260.165696"/>
     <use style="fill:#1f77b4;stroke:#1f77b4;" x="124.975701" xlink:href="#m5022eb01f1" y="261.216"/>
     <use style="fill:#1f77b4;stroke:#1f77b4;" x="128.127687" xlink:href="#m5022eb01f1" y="260.865899"/>
     <use style="fill:#1f77b4;stroke:#1f77b4;" x="131.279673" xlink:href="#m5022eb01f1" y="260.515797"/>
     <use style="fill:#1f77b4;stroke:#1f77b4;" x="134.431658" xlink:href="#m5022eb01f1" y="260.865899"/>
     <use style="fill:#1f77b4;stroke:#1f77b4;" x="137.583644" xlink:href="#m5022eb01f1" y="259.815595"/>
     <use style="fill:#1f77b4;stroke:#1f77b4;" x="140.73563" xlink:href="#m5022eb01f1" y="260.165696"/>
     <use style="fill:#1f77b4;stroke:#1f77b4;" x="143.887616" xlink:href="#m5022eb01f1" y="259.815595"/>
     <use style="fill:#1f77b4;stroke:#1f77b4;" x="147.039602" xlink:href="#m5022eb01f1" y="258.41519"/>
     <use style="fill:#1f77b4;stroke:#1f77b4;" x="150.191588" xlink:href="#m5022eb01f1" y="259.465493"/>
     <use style="fill:#1f77b4;stroke:#1f77b4;" x="153.343574" xlink:href="#m5022eb01f1" y="260.515797"/>
     <use style="fill:#1f77b4;stroke:#1f77b4;" x="156.49556" xlink:href="#m5022eb01f1" y="259.115392"/>
     <use style="fill:#1f77b4;stroke:#1f77b4;" x="159.647546" xlink:href="#m5022eb01f1" y="259.465493"/>
     <use style="fill:#1f77b4;stroke:#1f77b4;" x="162.799531" xlink:href="#m5022eb01f1" y="260.515797"/>
     <use style="fill:#1f77b4;stroke:#1f77b4;" x="165.951517" xlink:href="#m5022eb01f1" y="260.865899"/>
     <use style="fill:#1f77b4;stroke:#1f77b4;" x="169.103503" xlink:href="#m5022eb01f1" y="258.065088"/>
     <use style="fill:#1f77b4;stroke:#1f77b4;" x="172.255489" xlink:href="#m5022eb01f1" y="261.216"/>
     <use style="fill:#1f77b4;stroke:#1f77b4;" x="175.407475" xlink:href="#m5022eb01f1" y="258.765291"/>
     <use style="fill:#1f77b4;stroke:#1f77b4;" x="178.559461" xlink:href="#m5022eb01f1" y="258.765291"/>
     <use style="fill:#1f77b4;stroke:#1f77b4;" x="181.711447" xlink:href="#m5022eb01f1" y="258.065088"/>
     <use style="fill:#1f77b4;stroke:#1f77b4;" x="184.863433" xlink:href="#m5022eb01f1" y="258.065088"/>
     <use style="fill:#1f77b4;stroke:#1f77b4;" x="188.015418" xlink:href="#m5022eb01f1" y="255.96448"/>
     <use style="fill:#1f77b4;stroke:#1f77b4;" x="191.167404" xlink:href="#m5022eb01f1" y="257.364886"/>
     <use style="fill:#1f77b4;stroke:#1f77b4;" x="194.31939" xlink:href="#m5022eb01f1" y="256.314582"/>
     <use style="fill:#1f77b4;stroke:#1f77b4;" x="197.471376" xlink:href="#m5022eb01f1" y="255.96448"/>
     <use style="fill:#1f77b4;stroke:#1f77b4;" x="200.623362" xlink:href="#m5022eb01f1" y="253.513771"/>
     <use style="fill:#1f77b4;stroke:#1f77b4;" x="203.775348" xlink:href="#m5022eb01f1" y="254.914177"/>
     <use style="fill:#1f77b4;stroke:#1f77b4;" x="206.927334" xlink:href="#m5022eb01f1" y="254.213974"/>
     <use style="fill:#1f77b4;stroke:#1f77b4;" x="210.07932" xlink:href="#m5022eb01f1" y="253.16367"/>
     <use style="fill:#1f77b4;stroke:#1f77b4;" x="213.231305" xlink:href="#m5022eb01f1" y="252.463467"/>
     <use style="fill:#1f77b4;stroke:#1f77b4;" x="216.383291" xlink:href="#m5022eb01f1" y="249.662657"/>
     <use style="fill:#1f77b4;stroke:#1f77b4;" x="219.535277" xlink:href="#m5022eb01f1" y="250.712961"/>
     <use style="fill:#1f77b4;stroke:#1f77b4;" x="222.687263" xlink:href="#m5022eb01f1" y="252.463467"/>
     <use style="fill:#1f77b4;stroke:#1f77b4;" x="225.839249" xlink:href="#m5022eb01f1" y="248.612353"/>
     <use style="fill:#1f77b4;stroke:#1f77b4;" x="228.991235" xlink:href="#m5022eb01f1" y="252.463467"/>
     <use style="fill:#1f77b4;stroke:#1f77b4;" x="232.143221" xlink:href="#m5022eb01f1" y="252.113366"/>
     <use style="fill:#1f77b4;stroke:#1f77b4;" x="235.295207" xlink:href="#m5022eb01f1" y="247.211948"/>
     <use style="fill:#1f77b4;stroke:#1f77b4;" x="238.447192" xlink:href="#m5022eb01f1" y="252.463467"/>
     <use style="fill:#1f77b4;stroke:#1f77b4;" x="241.599178" xlink:href="#m5022eb01f1" y="250.012758"/>
     <use style="fill:#1f77b4;stroke:#1f77b4;" x="244.751164" xlink:href="#m5022eb01f1" y="251.413164"/>
     <use style="fill:#1f77b4;stroke:#1f77b4;" x="247.90315" xlink:href="#m5022eb01f1" y="251.763265"/>
     <use style="fill:#1f77b4;stroke:#1f77b4;" x="251.055136" xlink:href="#m5022eb01f1" y="247.912151"/>
     <use style="fill:#1f77b4;stroke:#1f77b4;" x="254.207122" xlink:href="#m5022eb01f1" y="250.012758"/>
     <use style="fill:#1f77b4;stroke:#1f77b4;" x="257.359108" xlink:href="#m5022eb01f1" y="245.811543"/>
     <use style="fill:#1f77b4;stroke:#1f77b4;" x="260.511094" xlink:href="#m5022eb01f1" y="252.113366"/>
     <use style="fill:#1f77b4;stroke:#1f77b4;" x="263.663079" xlink:href="#m5022eb01f1" y="247.211948"/>
     <use style="fill:#1f77b4;stroke:#1f77b4;" x="266.815065" xlink:href="#m5022eb01f1" y="250.012758"/>
     <use style="fill:#1f77b4;stroke:#1f77b4;" x="269.967051" xlink:href="#m5022eb01f1" y="245.461441"/>
     <use style="fill:#1f77b4;stroke:#1f77b4;" x="273.119037" xlink:href="#m5022eb01f1" y="250.712961"/>
     <use style="fill:#1f77b4;stroke:#1f77b4;" x="276.271023" xlink:href="#m5022eb01f1" y="250.36286"/>
     <use style="fill:#1f77b4;stroke:#1f77b4;" x="279.423009" xlink:href="#m5022eb01f1" y="247.211948"/>
     <use style="fill:#1f77b4;stroke:#1f77b4;" x="282.574995" xlink:href="#m5022eb01f1" y="243.360834"/>
     <use style="fill:#1f77b4;stroke:#1f77b4;" x="285.726981" xlink:href="#m5022eb01f1" y="241.960428"/>
     <use style="fill:#1f77b4;stroke:#1f77b4;" x="288.878967" xlink:href="#m5022eb01f1" y="236.008706"/>
     <use style="fill:#1f77b4;stroke:#1f77b4;" x="292.030952" xlink:href="#m5022eb01f1" y="239.859821"/>
     <use style="fill:#1f77b4;stroke:#1f77b4;" x="295.182938" xlink:href="#m5022eb01f1" y="235.658605"/>
     <use style="fill:#1f77b4;stroke:#1f77b4;" x="298.334924" xlink:href="#m5022eb01f1" y="234.958402"/>
     <use style="fill:#1f77b4;stroke:#1f77b4;" x="301.48691" xlink:href="#m5022eb01f1" y="224.455363"/>
     <use style="fill:#1f77b4;stroke:#1f77b4;" x="304.638896" xlink:href="#m5022eb01f1" y="228.306478"/>
     <use style="fill:#1f77b4;stroke:#1f77b4;" x="307.790882" xlink:href="#m5022eb01f1" y="222.354755"/>
     <use style="fill:#1f77b4;stroke:#1f77b4;" x="310.942868" xlink:href="#m5022eb01f1" y="217.453337"/>
     <use style="fill:#1f77b4;stroke:#1f77b4;" x="314.094854" xlink:href="#m5022eb01f1" y="187.694726"/>
     <use style="fill:#1f77b4;stroke:#1f77b4;" x="317.246839" xlink:href="#m5022eb01f1" y="197.147462"/>
     <use style="fill:#1f77b4;stroke:#1f77b4;" x="320.398825" xlink:href="#m5022eb01f1" y="197.147462"/>
     <use style="fill:#1f77b4;stroke:#1f77b4;" x="323.550811" xlink:href="#m5022eb01f1" y="165.288243"/>
     <use style="fill:#1f77b4;stroke:#1f77b4;" x="326.702797" xlink:href="#m5022eb01f1" y="168.089054"/>
     <use style="fill:#1f77b4;stroke:#1f77b4;" x="329.854783" xlink:href="#m5022eb01f1" y="150.583988"/>
     <use style="fill:#1f77b4;stroke:#1f77b4;" x="333.006769" xlink:href="#m5022eb01f1" y="173.340573"/>
     <use style="fill:#1f77b4;stroke:#1f77b4;" x="336.158755" xlink:href="#m5022eb01f1" y="160.736926"/>
     <use style="fill:#1f77b4;stroke:#1f77b4;" x="339.310741" xlink:href="#m5022eb01f1" y="180.6927"/>
     <use style="fill:#1f77b4;stroke:#1f77b4;" x="342.462726" xlink:href="#m5022eb01f1" y="196.447259"/>
     <use style="fill:#1f77b4;stroke:#1f77b4;" x="345.614712" xlink:href="#m5022eb01f1" y="191.19574"/>
     <use style="fill:#1f77b4;stroke:#1f77b4;" x="348.766698" xlink:href="#m5022eb01f1" y="208.000602"/>
     <use style="fill:#1f77b4;stroke:#1f77b4;" x="351.918684" xlink:href="#m5022eb01f1" y="215.352729"/>
     <use style="fill:#1f77b4;stroke:#1f77b4;" x="355.07067" xlink:href="#m5022eb01f1" y="230.056984"/>
     <use style="fill:#1f77b4;stroke:#1f77b4;" x="358.222656" xlink:href="#m5022eb01f1" y="238.809517"/>
     <use style="fill:#1f77b4;stroke:#1f77b4;" x="361.374642" xlink:href="#m5022eb01f1" y="245.811543"/>
     <use style="fill:#1f77b4;stroke:#1f77b4;" x="364.526628" xlink:href="#m5022eb01f1" y="251.063062"/>
     <use style="fill:#1f77b4;stroke:#1f77b4;" x="367.678613" xlink:href="#m5022eb01f1" y="257.014784"/>
     <use style="fill:#1f77b4;stroke:#1f77b4;" x="370.830599" xlink:href="#m5022eb01f1" y="260.165696"/>
     <use style="fill:#1f77b4;stroke:#1f77b4;" x="373.982585" xlink:href="#m5022eb01f1" y="261.216"/>
    </g>
   </g>
   <g id="line2d_18">
    <path clip-path="url(#pa8700f73ef)" d="M 49.32804 261.216 
L 52.480026 261.216 
L 55.632012 261.216 
L 58.783997 261.216 
L 61.935983 261.216 
L 65.087969 261.216 
L 68.239955 261.216 
L 71.391941 261.216 
L 74.543927 261.216 
L 77.695913 261.216 
L 80.847899 261.216 
L 83.999884 261.216 
L 87.15187 260.865899 
L 90.303856 261.216 
L 93.455842 261.216 
L 96.607828 261.216 
L 99.759814 261.216 
L 102.9118 261.216 
L 106.063786 261.216 
L 109.215771 261.216 
L 112.367757 261.216 
L 115.519743 260.865899 
L 118.671729 260.865899 
L 121.823715 260.865899 
L 124.975701 261.216 
L 128.127687 260.165696 
L 131.279673 260.865899 
L 134.431658 259.115392 
L 137.583644 260.515797 
L 140.73563 260.165696 
L 143.887616 261.216 
L 147.039602 261.216 
L 150.191588 259.815595 
L 153.343574 260.515797 
L 156.49556 261.216 
L 159.647546 260.865899 
L 162.799531 261.216 
L 165.951517 261.216 
L 169.103503 260.515797 
L 172.255489 260.865899 
L 175.407475 261.216 
L 178.559461 259.815595 
L 181.711447 258.41519 
L 184.863433 257.014784 
L 188.015418 259.115392 
L 191.167404 258.765291 
L 194.31939 257.714987 
L 197.471376 258.065088 
L 200.623362 258.065088 
L 203.775348 255.264278 
L 206.927334 252.113366 
L 210.07932 257.714987 
L 213.231305 257.014784 
L 216.383291 255.96448 
L 219.535277 255.264278 
L 222.687263 252.463467 
L 225.839249 254.213974 
L 228.991235 258.41519 
L 232.143221 256.314582 
L 235.295207 255.264278 
L 238.447192 254.213974 
L 241.599178 248.612353 
L 244.751164 248.612353 
L 247.90315 241.260226 
L 251.055136 247.912151 
L 254.207122 248.262252 
L 257.359108 252.113366 
L 260.511094 237.05901 
L 263.663079 241.260226 
L 266.815065 245.461441 
L 269.967051 246.861847 
L 273.119037 242.31053 
L 276.271023 250.712961 
L 279.423009 254.564075 
L 282.574995 245.11134 
L 285.726981 245.811543 
L 288.878967 245.11134 
L 292.030952 245.461441 
L 295.182938 246.161644 
L 298.334924 246.511745 
L 301.48691 247.912151 
L 304.638896 233.557997 
L 307.790882 229.00668 
L 310.942868 226.20587 
L 314.094854 217.103236 
L 317.246839 189.445233 
L 320.398825 206.950298 
L 323.550811 208.700805 
L 326.702797 178.592093 
L 329.854783 163.887838 
L 333.006769 158.98642 
L 336.158755 140.781152 
L 339.310741 125.376695 
L 342.462726 154.435103 
L 345.614712 169.83956 
L 348.766698 96.318287 
L 351.918684 101.219705 
L 355.07067 35.750761 
L 358.222656 42.402686 
L 361.374642 19.296 
L 364.526628 104.720718 
L 367.678613 156.185609 
L 370.830599 94.217679 
L 373.982585 172.64037 
" style="fill:none;stroke:#ff7f0e;stroke-linecap:square;stroke-width:1.5;"/>
    <defs>
     <path d="M 0 3 
C 0.795609 3 1.55874 2.683901 2.12132 2.12132 
C 2.683901 1.55874 3 0.795609 3 0 
C 3 -0.795609 2.683901 -1.55874 2.12132 -2.12132 
C 1.55874 -2.683901 0.795609 -3 0 -3 
C -0.795609 -3 -1.55874 -2.683901 -2.12132 -2.12132 
C -2.683901 -1.55874 -3 -0.795609 -3 0 
C -3 0.795609 -2.683901 1.55874 -2.12132 2.12132 
C -1.55874 2.683901 -0.795609 3 0 3 
z
" id="m71893ea178" style="stroke:#ff7f0e;"/>
    </defs>
    <g clip-path="url(#pa8700f73ef)">
     <use style="fill:#ff7f0e;stroke:#ff7f0e;" x="49.32804" xlink:href="#m71893ea178" y="261.216"/>
     <use style="fill:#ff7f0e;stroke:#ff7f0e;" x="52.480026" xlink:href="#m71893ea178" y="261.216"/>
     <use style="fill:#ff7f0e;stroke:#ff7f0e;" x="55.632012" xlink:href="#m71893ea178" y="261.216"/>
     <use style="fill:#ff7f0e;stroke:#ff7f0e;" x="58.783997" xlink:href="#m71893ea178" y="261.216"/>
     <use style="fill:#ff7f0e;stroke:#ff7f0e;" x="61.935983" xlink:href="#m71893ea178" y="261.216"/>
     <use style="fill:#ff7f0e;stroke:#ff7f0e;" x="65.087969" xlink:href="#m71893ea178" y="261.216"/>
     <use style="fill:#ff7f0e;stroke:#ff7f0e;" x="68.239955" xlink:href="#m71893ea178" y="261.216"/>
     <use style="fill:#ff7f0e;stroke:#ff7f0e;" x="71.391941" xlink:href="#m71893ea178" y="261.216"/>
     <use style="fill:#ff7f0e;stroke:#ff7f0e;" x="74.543927" xlink:href="#m71893ea178" y="261.216"/>
     <use style="fill:#ff7f0e;stroke:#ff7f0e;" x="77.695913" xlink:href="#m71893ea178" y="261.216"/>
     <use style="fill:#ff7f0e;stroke:#ff7f0e;" x="80.847899" xlink:href="#m71893ea178" y="261.216"/>
     <use style="fill:#ff7f0e;stroke:#ff7f0e;" x="83.999884" xlink:href="#m71893ea178" y="261.216"/>
     <use style="fill:#ff7f0e;stroke:#ff7f0e;" x="87.15187" xlink:href="#m71893ea178" y="260.865899"/>
     <use style="fill:#ff7f0e;stroke:#ff7f0e;" x="90.303856" xlink:href="#m71893ea178" y="261.216"/>
     <use style="fill:#ff7f0e;stroke:#ff7f0e;" x="93.455842" xlink:href="#m71893ea178" y="261.216"/>
     <use style="fill:#ff7f0e;stroke:#ff7f0e;" x="96.607828" xlink:href="#m71893ea178" y="261.216"/>
     <use style="fill:#ff7f0e;stroke:#ff7f0e;" x="99.759814" xlink:href="#m71893ea178" y="261.216"/>
     <use style="fill:#ff7f0e;stroke:#ff7f0e;" x="102.9118" xlink:href="#m71893ea178" y="261.216"/>
     <use style="fill:#ff7f0e;stroke:#ff7f0e;" x="106.063786" xlink:href="#m71893ea178" y="261.216"/>
     <use style="fill:#ff7f0e;stroke:#ff7f0e;" x="109.215771" xlink:href="#m71893ea178" y="261.216"/>
     <use style="fill:#ff7f0e;stroke:#ff7f0e;" x="112.367757" xlink:href="#m71893ea178" y="261.216"/>
     <use style="fill:#ff7f0e;stroke:#ff7f0e;" x="115.519743" xlink:href="#m71893ea178" y="260.865899"/>
     <use style="fill:#ff7f0e;stroke:#ff7f0e;" x="118.671729" xlink:href="#m71893ea178" y="260.865899"/>
     <use style="fill:#ff7f0e;stroke:#ff7f0e;" x="121.823715" xlink:href="#m71893ea178" y="260.865899"/>
     <use style="fill:#ff7f0e;stroke:#ff7f0e;" x="124.975701" xlink:href="#m71893ea178" y="261.216"/>
     <use style="fill:#ff7f0e;stroke:#ff7f0e;" x="128.127687" xlink:href="#m71893ea178" y="260.165696"/>
     <use style="fill:#ff7f0e;stroke:#ff7f0e;" x="131.279673" xlink:href="#m71893ea178" y="260.865899"/>
     <use style="fill:#ff7f0e;stroke:#ff7f0e;" x="134.431658" xlink:href="#m71893ea178" y="259.115392"/>
     <use style="fill:#ff7f0e;stroke:#ff7f0e;" x="137.583644" xlink:href="#m71893ea178" y="260.515797"/>
     <use style="fill:#ff7f0e;stroke:#ff7f0e;" x="140.73563" xlink:href="#m71893ea178" y="260.165696"/>
     <use style="fill:#ff7f0e;stroke:#ff7f0e;" x="143.887616" xlink:href="#m71893ea178" y="261.216"/>
     <use style="fill:#ff7f0e;stroke:#ff7f0e;" x="147.039602" xlink:href="#m71893ea178" y="261.216"/>
     <use style="fill:#ff7f0e;stroke:#ff7f0e;" x="150.191588" xlink:href="#m71893ea178" y="259.815595"/>
     <use style="fill:#ff7f0e;stroke:#ff7f0e;" x="153.343574" xlink:href="#m71893ea178" y="260.515797"/>
     <use style="fill:#ff7f0e;stroke:#ff7f0e;" x="156.49556" xlink:href="#m71893ea178" y="261.216"/>
     <use style="fill:#ff7f0e;stroke:#ff7f0e;" x="159.647546" xlink:href="#m71893ea178" y="260.865899"/>
     <use style="fill:#ff7f0e;stroke:#ff7f0e;" x="162.799531" xlink:href="#m71893ea178" y="261.216"/>
     <use style="fill:#ff7f0e;stroke:#ff7f0e;" x="165.951517" xlink:href="#m71893ea178" y="261.216"/>
     <use style="fill:#ff7f0e;stroke:#ff7f0e;" x="169.103503" xlink:href="#m71893ea178" y="260.515797"/>
     <use style="fill:#ff7f0e;stroke:#ff7f0e;" x="172.255489" xlink:href="#m71893ea178" y="260.865899"/>
     <use style="fill:#ff7f0e;stroke:#ff7f0e;" x="175.407475" xlink:href="#m71893ea178" y="261.216"/>
     <use style="fill:#ff7f0e;stroke:#ff7f0e;" x="178.559461" xlink:href="#m71893ea178" y="259.815595"/>
     <use style="fill:#ff7f0e;stroke:#ff7f0e;" x="181.711447" xlink:href="#m71893ea178" y="258.41519"/>
     <use style="fill:#ff7f0e;stroke:#ff7f0e;" x="184.863433" xlink:href="#m71893ea178" y="257.014784"/>
     <use style="fill:#ff7f0e;stroke:#ff7f0e;" x="188.015418" xlink:href="#m71893ea178" y="259.115392"/>
     <use style="fill:#ff7f0e;stroke:#ff7f0e;" x="191.167404" xlink:href="#m71893ea178" y="258.765291"/>
     <use style="fill:#ff7f0e;stroke:#ff7f0e;" x="194.31939" xlink:href="#m71893ea178" y="257.714987"/>
     <use style="fill:#ff7f0e;stroke:#ff7f0e;" x="197.471376" xlink:href="#m71893ea178" y="258.065088"/>
     <use style="fill:#ff7f0e;stroke:#ff7f0e;" x="200.623362" xlink:href="#m71893ea178" y="258.065088"/>
     <use style="fill:#ff7f0e;stroke:#ff7f0e;" x="203.775348" xlink:href="#m71893ea178" y="255.264278"/>
     <use style="fill:#ff7f0e;stroke:#ff7f0e;" x="206.927334" xlink:href="#m71893ea178" y="252.113366"/>
     <use style="fill:#ff7f0e;stroke:#ff7f0e;" x="210.07932" xlink:href="#m71893ea178" y="257.714987"/>
     <use style="fill:#ff7f0e;stroke:#ff7f0e;" x="213.231305" xlink:href="#m71893ea178" y="257.014784"/>
     <use style="fill:#ff7f0e;stroke:#ff7f0e;" x="216.383291" xlink:href="#m71893ea178" y="255.96448"/>
     <use style="fill:#ff7f0e;stroke:#ff7f0e;" x="219.535277" xlink:href="#m71893ea178" y="255.264278"/>
     <use style="fill:#ff7f0e;stroke:#ff7f0e;" x="222.687263" xlink:href="#m71893ea178" y="252.463467"/>
     <use style="fill:#ff7f0e;stroke:#ff7f0e;" x="225.839249" xlink:href="#m71893ea178" y="254.213974"/>
     <use style="fill:#ff7f0e;stroke:#ff7f0e;" x="228.991235" xlink:href="#m71893ea178" y="258.41519"/>
     <use style="fill:#ff7f0e;stroke:#ff7f0e;" x="232.143221" xlink:href="#m71893ea178" y="256.314582"/>
     <use style="fill:#ff7f0e;stroke:#ff7f0e;" x="235.295207" xlink:href="#m71893ea178" y="255.264278"/>
     <use style="fill:#ff7f0e;stroke:#ff7f0e;" x="238.447192" xlink:href="#m71893ea178" y="254.213974"/>
     <use style="fill:#ff7f0e;stroke:#ff7f0e;" x="241.599178" xlink:href="#m71893ea178" y="248.612353"/>
     <use style="fill:#ff7f0e;stroke:#ff7f0e;" x="244.751164" xlink:href="#m71893ea178" y="248.612353"/>
     <use style="fill:#ff7f0e;stroke:#ff7f0e;" x="247.90315" xlink:href="#m71893ea178" y="241.260226"/>
     <use style="fill:#ff7f0e;stroke:#ff7f0e;" x="251.055136" xlink:href="#m71893ea178" y="247.912151"/>
     <use style="fill:#ff7f0e;stroke:#ff7f0e;" x="254.207122" xlink:href="#m71893ea178" y="248.262252"/>
     <use style="fill:#ff7f0e;stroke:#ff7f0e;" x="257.359108" xlink:href="#m71893ea178" y="252.113366"/>
     <use style="fill:#ff7f0e;stroke:#ff7f0e;" x="260.511094" xlink:href="#m71893ea178" y="237.05901"/>
     <use style="fill:#ff7f0e;stroke:#ff7f0e;" x="263.663079" xlink:href="#m71893ea178" y="241.260226"/>
     <use style="fill:#ff7f0e;stroke:#ff7f0e;" x="266.815065" xlink:href="#m71893ea178" y="245.461441"/>
     <use style="fill:#ff7f0e;stroke:#ff7f0e;" x="269.967051" xlink:href="#m71893ea178" y="246.861847"/>
     <use style="fill:#ff7f0e;stroke:#ff7f0e;" x="273.119037" xlink:href="#m71893ea178" y="242.31053"/>
     <use style="fill:#ff7f0e;stroke:#ff7f0e;" x="276.271023" xlink:href="#m71893ea178" y="250.712961"/>
     <use style="fill:#ff7f0e;stroke:#ff7f0e;" x="279.423009" xlink:href="#m71893ea178" y="254.564075"/>
     <use style="fill:#ff7f0e;stroke:#ff7f0e;" x="282.574995" xlink:href="#m71893ea178" y="245.11134"/>
     <use style="fill:#ff7f0e;stroke:#ff7f0e;" x="285.726981" xlink:href="#m71893ea178" y="245.811543"/>
     <use style="fill:#ff7f0e;stroke:#ff7f0e;" x="288.878967" xlink:href="#m71893ea178" y="245.11134"/>
     <use style="fill:#ff7f0e;stroke:#ff7f0e;" x="292.030952" xlink:href="#m71893ea178" y="245.461441"/>
     <use style="fill:#ff7f0e;stroke:#ff7f0e;" x="295.182938" xlink:href="#m71893ea178" y="246.161644"/>
     <use style="fill:#ff7f0e;stroke:#ff7f0e;" x="298.334924" xlink:href="#m71893ea178" y="246.511745"/>
     <use style="fill:#ff7f0e;stroke:#ff7f0e;" x="301.48691" xlink:href="#m71893ea178" y="247.912151"/>
     <use style="fill:#ff7f0e;stroke:#ff7f0e;" x="304.638896" xlink:href="#m71893ea178" y="233.557997"/>
     <use style="fill:#ff7f0e;stroke:#ff7f0e;" x="307.790882" xlink:href="#m71893ea178" y="229.00668"/>
     <use style="fill:#ff7f0e;stroke:#ff7f0e;" x="310.942868" xlink:href="#m71893ea178" y="226.20587"/>
     <use style="fill:#ff7f0e;stroke:#ff7f0e;" x="314.094854" xlink:href="#m71893ea178" y="217.103236"/>
     <use style="fill:#ff7f0e;stroke:#ff7f0e;" x="317.246839" xlink:href="#m71893ea178" y="189.445233"/>
     <use style="fill:#ff7f0e;stroke:#ff7f0e;" x="320.398825" xlink:href="#m71893ea178" y="206.950298"/>
     <use style="fill:#ff7f0e;stroke:#ff7f0e;" x="323.550811" xlink:href="#m71893ea178" y="208.700805"/>
     <use style="fill:#ff7f0e;stroke:#ff7f0e;" x="326.702797" xlink:href="#m71893ea178" y="178.592093"/>
     <use style="fill:#ff7f0e;stroke:#ff7f0e;" x="329.854783" xlink:href="#m71893ea178" y="163.887838"/>
     <use style="fill:#ff7f0e;stroke:#ff7f0e;" x="333.006769" xlink:href="#m71893ea178" y="158.98642"/>
     <use style="fill:#ff7f0e;stroke:#ff7f0e;" x="336.158755" xlink:href="#m71893ea178" y="140.781152"/>
     <use style="fill:#ff7f0e;stroke:#ff7f0e;" x="339.310741" xlink:href="#m71893ea178" y="125.376695"/>
     <use style="fill:#ff7f0e;stroke:#ff7f0e;" x="342.462726" xlink:href="#m71893ea178" y="154.435103"/>
     <use style="fill:#ff7f0e;stroke:#ff7f0e;" x="345.614712" xlink:href="#m71893ea178" y="169.83956"/>
     <use style="fill:#ff7f0e;stroke:#ff7f0e;" x="348.766698" xlink:href="#m71893ea178" y="96.318287"/>
     <use style="fill:#ff7f0e;stroke:#ff7f0e;" x="351.918684" xlink:href="#m71893ea178" y="101.219705"/>
     <use style="fill:#ff7f0e;stroke:#ff7f0e;" x="355.07067" xlink:href="#m71893ea178" y="35.750761"/>
     <use style="fill:#ff7f0e;stroke:#ff7f0e;" x="358.222656" xlink:href="#m71893ea178" y="42.402686"/>
     <use style="fill:#ff7f0e;stroke:#ff7f0e;" x="361.374642" xlink:href="#m71893ea178" y="19.296"/>
     <use style="fill:#ff7f0e;stroke:#ff7f0e;" x="364.526628" xlink:href="#m71893ea178" y="104.720718"/>
     <use style="fill:#ff7f0e;stroke:#ff7f0e;" x="367.678613" xlink:href="#m71893ea178" y="156.185609"/>
     <use style="fill:#ff7f0e;stroke:#ff7f0e;" x="370.830599" xlink:href="#m71893ea178" y="94.217679"/>
     <use style="fill:#ff7f0e;stroke:#ff7f0e;" x="373.982585" xlink:href="#m71893ea178" y="172.64037"/>
    </g>
   </g>
   <g id="patch_3">
    <path d="M 33.095313 273.312 
L 33.095313 7.2 
" style="fill:none;stroke:#000000;stroke-linecap:square;stroke-linejoin:miter;stroke-width:0.8;"/>
   </g>
   <g id="patch_4">
    <path d="M 390.215312 273.312 
L 390.215312 7.2 
" style="fill:none;stroke:#000000;stroke-linecap:square;stroke-linejoin:miter;stroke-width:0.8;"/>
   </g>
   <g id="patch_5">
    <path d="M 33.095312 273.312 
L 390.215313 273.312 
" style="fill:none;stroke:#000000;stroke-linecap:square;stroke-linejoin:miter;stroke-width:0.8;"/>
   </g>
   <g id="patch_6">
    <path d="M 33.095312 7.2 
L 390.215313 7.2 
" style="fill:none;stroke:#000000;stroke-linecap:square;stroke-linejoin:miter;stroke-width:0.8;"/>
   </g>
   <g id="legend_1">
    <g id="patch_7">
     <path d="M 40.095313 45.353125 
L 159.078125 45.353125 
Q 161.078125 45.353125 161.078125 43.353125 
L 161.078125 14.2 
Q 161.078125 12.2 159.078125 12.2 
L 40.095313 12.2 
Q 38.095313 12.2 38.095313 14.2 
L 38.095313 43.353125 
Q 38.095313 45.353125 40.095313 45.353125 
z
" style="fill:#ffffff;opacity:0.8;stroke:#cccccc;stroke-linejoin:miter;"/>
    </g>
    <g id="line2d_19">
     <path d="M 42.095313 20.820312 
L 62.095313 20.820312 
" style="fill:none;stroke:#1f77b4;stroke-linecap:square;stroke-width:1.5;"/>
    </g>
    <g id="line2d_20">
     <g>
      <use style="fill:#1f77b4;stroke:#1f77b4;" x="52.095313" xlink:href="#m5022eb01f1" y="20.820312"/>
     </g>
    </g>
    <g id="text_18">
     <!-- 発症日 (onset) -->
     <defs>
      <path d="M 73.734375 56.84375 
Q 80.609375 62.75 85.203125 68.609375 
L 91.109375 64.40625 
Q 84.46875 57.8125 78.71875 53.328125 
Q 85.9375 48.6875 95.40625 44.625 
L 90.625 38.375 
Q 81.734375 42.78125 73.53125 48.640625 
L 73.53125 43.3125 
L 64.109375 43.3125 
L 64.109375 29.984375 
L 89.890625 29.984375 
L 89.890625 23.78125 
L 64.109375 23.78125 
L 64.109375 5.609375 
Q 64.109375 2.484375 65.71875 2.046875 
Q 67.390625 1.46875 73.09375 1.46875 
Q 82.125 1.46875 83.59375 2.984375 
Q 85.0625 4.4375 85.5 11.96875 
Q 85.5 13.484375 85.59375 14.0625 
L 92.625 11.578125 
Q 92.1875 0.390625 89.703125 -2.203125 
Q 87.0625 -5.328125 72.609375 -5.328125 
Q 63.8125 -5.328125 60.9375 -4 
Q 57.03125 -2.34375 57.03125 3.328125 
L 57.03125 23.78125 
L 42.578125 23.78125 
Q 40.1875 0.53125 11.078125 -7.421875 
L 7.28125 -0.984375 
Q 33.25 5.421875 35.5 23.78125 
L 10.015625 23.78125 
L 10.015625 29.984375 
L 35.796875 29.984375 
L 35.796875 43.3125 
L 27.78125 43.3125 
L 27.78125 47.015625 
Q 19.734375 41.359375 9.078125 36.1875 
L 4.5 42.1875 
Q 16.3125 46.734375 25.984375 53.8125 
Q 19.828125 60.15625 13.484375 64.59375 
L 18.609375 69.140625 
Q 26.515625 62.59375 31.109375 58.015625 
Q 38.03125 64.0625 43.171875 72.125 
L 20.0625 72.125 
L 20.0625 78.21875 
L 54 78.21875 
Q 58.203125 71.34375 62.890625 66.3125 
Q 69.09375 71.625 74.03125 77.9375 
L 79.828125 73.734375 
Q 74.171875 67.625 67.09375 62.203125 
Q 70.40625 59.078125 73.734375 56.84375 
z
M 57.03125 43.3125 
L 42.78125 43.3125 
L 42.78125 29.984375 
L 57.03125 29.984375 
z
M 30.90625 49.3125 
L 72.515625 49.3125 
Q 58.6875 59.28125 50.59375 71 
Q 43.21875 58.890625 30.90625 49.3125 
z
" id="IPAexGothic-30330"/>
      <path d="M 63.71875 2.875 
L 95.015625 2.875 
L 95.015625 -3.515625 
L 23.96875 -3.515625 
L 23.96875 2.875 
L 37.3125 2.875 
L 37.3125 38.28125 
L 44 38.28125 
L 44 2.875 
L 56.84375 2.875 
L 56.84375 46.578125 
L 30.515625 46.578125 
L 30.515625 52.78125 
L 90.046875 52.78125 
L 90.046875 46.578125 
L 63.71875 46.578125 
L 63.71875 29.203125 
L 87.796875 29.203125 
L 87.796875 23.09375 
L 63.71875 23.09375 
z
M 60.203125 70.515625 
L 93.890625 70.515625 
L 93.890625 64.109375 
L 27.296875 64.109375 
L 27.296875 41.40625 
Q 27.296875 23.140625 24.21875 12.203125 
Q 21.390625 2.25 14.59375 -6.203125 
L 9.625 -1.171875 
Q 18.75 10.359375 20.125 27.484375 
Q 15.4375 24.125 7.078125 19.734375 
L 4 26.609375 
Q 12.3125 29.59375 20.40625 34.328125 
L 20.40625 37.890625 
L 20.40625 70.515625 
L 52.78125 70.515625 
L 52.78125 81.984375 
L 60.203125 81.984375 
z
M 12.015625 40.375 
Q 8.890625 50.78125 5.421875 57.90625 
L 11.375 60.59375 
Q 15.234375 53.859375 18.40625 43.703125 
z
" id="IPAexGothic-30151"/>
      <path d="M 81.734375 75 
L 81.734375 -4.5 
L 74.125 -4.5 
L 74.125 2 
L 25.734375 2 
L 25.734375 -4.5 
L 18.109375 -4.5 
L 18.109375 75 
z
M 25.734375 68.3125 
L 25.734375 42.671875 
L 74.125 42.671875 
L 74.125 68.3125 
z
M 25.734375 35.890625 
L 25.734375 8.6875 
L 74.125 8.6875 
L 74.125 35.890625 
z
" id="IPAexGothic-26085"/>
      <path id="IPAexGothic-32"/>
      <path d="M 30.125 -15.875 
L 25.828125 -18.21875 
Q 7.625 1.078125 7.625 29.296875 
Q 7.625 57.46875 25.828125 76.703125 
L 30.125 74.421875 
Q 15.71875 55.03125 15.71875 29.390625 
Q 15.71875 3.171875 30.125 -15.875 
z
" id="IPAexGothic-40"/>
      <path d="M 29.984375 52.203125 
Q 40.53125 52.203125 47.75 45.125 
Q 55.171875 37.703125 55.171875 25.59375 
Q 55.171875 13.875 47.90625 6.59375 
Q 40.765625 -0.484375 29.984375 -0.484375 
Q 19.1875 -0.484375 12.203125 6.5 
Q 4.890625 13.765625 4.890625 25.875 
Q 4.890625 37.703125 12.3125 45.125 
Q 19.390625 52.203125 29.984375 52.203125 
z
M 29.984375 45.609375 
Q 23.734375 45.609375 19.390625 41.109375 
Q 13.875 35.59375 13.875 25.78125 
Q 13.875 16.109375 19.28125 10.6875 
Q 23.6875 6.296875 29.984375 6.296875 
Q 36.421875 6.296875 40.765625 10.796875 
Q 46.1875 16.21875 46.1875 26.125 
Q 46.1875 35.453125 40.671875 41.109375 
Q 36.1875 45.609375 29.984375 45.609375 
z
" id="IPAexGothic-111"/>
      <path d="M 34.90625 39.796875 
Q 30.28125 45.796875 23.1875 45.796875 
Q 13.921875 45.796875 13.921875 38.671875 
Q 13.921875 33.640625 23.921875 30.375 
L 27.203125 29.296875 
Q 41.40625 24.65625 41.40625 13.96875 
Q 41.40625 6.78125 35.5 2.6875 
Q 30.8125 -0.484375 23.390625 -0.484375 
Q 11.96875 -0.484375 4 7.859375 
L 9.421875 12.796875 
Q 15.578125 6.203125 23.6875 6.203125 
Q 33.296875 6.203125 33.296875 13.671875 
Q 33.296875 19.34375 22.703125 23.09375 
L 19.28125 24.265625 
Q 5.90625 28.953125 5.90625 37.984375 
Q 5.90625 43.703125 9.8125 47.609375 
Q 14.5 52.296875 22.703125 52.296875 
Q 33.6875 52.296875 40.71875 44.671875 
z
" id="IPAexGothic-115"/>
      <path d="M 33.203125 3.765625 
Q 27.640625 -0.09375 21.828125 -0.09375 
Q 10.203125 -0.09375 10.203125 12.984375 
L 10.203125 44.671875 
L 3.421875 44.671875 
L 3.421875 50.78125 
L 10.203125 50.78125 
L 10.203125 61.96875 
L 18.40625 66.0625 
L 18.40625 50.78125 
L 32.234375 50.78125 
L 32.234375 44.671875 
L 18.40625 44.671875 
L 18.40625 14.15625 
Q 18.40625 6.5 23.640625 6.5 
Q 27.15625 6.5 30.328125 9.1875 
z
" id="IPAexGothic-116"/>
      <path d="M 7.28125 76.703125 
Q 25.59375 57.375 25.59375 29.296875 
Q 25.59375 1.171875 7.28125 -18.21875 
L 2.984375 -15.875 
Q 17.484375 3.375 17.484375 29.390625 
Q 17.484375 54.828125 2.984375 74.421875 
z
" id="IPAexGothic-41"/>
     </defs>
     <g transform="translate(70.095313 24.320312)scale(0.1 -0.1)">
      <use xlink:href="#IPAexGothic-30330"/>
      <use x="100" xlink:href="#IPAexGothic-30151"/>
      <use x="200" xlink:href="#IPAexGothic-26085"/>
      <use x="300" xlink:href="#IPAexGothic-32"/>
      <use x="327.001953" xlink:href="#IPAexGothic-40"/>
      <use x="360.302734" xlink:href="#IPAexGothic-111"/>
      <use x="420.703125" xlink:href="#IPAexGothic-110"/>
      <use x="481.103516" xlink:href="#IPAexGothic-115"/>
      <use x="527.294922" xlink:href="#IPAexGothic-101"/>
      <use x="584.179688" xlink:href="#IPAexGothic-116"/>
      <use x="618.798828" xlink:href="#IPAexGothic-41"/>
     </g>
    </g>
    <g id="line2d_21">
     <path d="M 42.095313 35.953125 
L 62.095313 35.953125 
" style="fill:none;stroke:#ff7f0e;stroke-linecap:square;stroke-width:1.5;"/>
    </g>
    <g id="line2d_22">
     <g>
      <use style="fill:#ff7f0e;stroke:#ff7f0e;" x="52.095313" xlink:href="#m71893ea178" y="35.953125"/>
     </g>
    </g>
    <g id="text_19">
     <!-- 確定日 (confirmed) -->
     <defs>
      <path d="M 67.921875 50.296875 
Q 70.5625 55.28125 72.609375 61.8125 
L 79.296875 60.203125 
Q 76.171875 53.609375 74.21875 50.296875 
L 92 50.296875 
L 92 44.484375 
L 73.4375 44.484375 
L 73.4375 34.71875 
L 89.703125 34.71875 
L 89.703125 29.203125 
L 73.4375 29.203125 
L 73.4375 19.53125 
L 89.703125 19.53125 
L 89.703125 14.015625 
L 73.4375 14.015625 
L 73.4375 3.609375 
L 94.28125 3.609375 
L 94.28125 -2.203125 
L 54.109375 -2.203125 
L 54.109375 -6.984375 
L 47.609375 -6.984375 
L 47.609375 38.1875 
Q 43.0625 31.546875 38.8125 26.609375 
L 35.6875 32.8125 
Q 49.359375 49.953125 54.78125 64.796875 
L 45.515625 64.796875 
L 45.515625 53.515625 
L 39.203125 53.515625 
L 39.203125 70.609375 
L 56.78125 70.609375 
Q 58.59375 76.609375 60.109375 83.109375 
L 66.703125 81.890625 
Q 65.234375 75.53125 63.625 70.609375 
L 92.71875 70.609375 
L 92.71875 53.515625 
L 86.328125 53.515625 
L 86.328125 64.796875 
L 61.53125 64.796875 
Q 58.546875 56.984375 54.890625 50.296875 
z
M 67.140625 44.484375 
L 54.109375 44.484375 
L 54.109375 34.71875 
L 67.140625 34.71875 
z
M 67.140625 29.203125 
L 54.109375 29.203125 
L 54.109375 19.53125 
L 67.140625 19.53125 
z
M 67.140625 14.015625 
L 54.109375 14.015625 
L 54.109375 3.609375 
L 67.140625 3.609375 
z
M 18.109375 46 
L 35.546875 46 
L 35.546875 3.078125 
L 18.953125 3.078125 
L 18.953125 -5.125 
L 12.75 -5.125 
L 12.75 34.46875 
Q 10.15625 29.734375 6.15625 23.78125 
L 2.9375 29.984375 
Q 14.546875 47.078125 18.75 69 
L 6.34375 69 
L 6.34375 75.296875 
L 37.640625 75.296875 
L 37.640625 69 
L 25.25 69 
L 24.953125 68.015625 
Q 22.75 57.234375 18.109375 46 
z
M 18.953125 39.890625 
L 18.953125 9.1875 
L 29.34375 9.1875 
L 29.34375 39.890625 
z
" id="IPAexGothic-30906"/>
      <path d="M 53.609375 4.734375 
Q 61.421875 3.515625 73.578125 3.515625 
Q 81.109375 3.515625 94.578125 4.109375 
Q 93.171875 0.921875 92 -3.5625 
Q 81.78125 -3.90625 75.6875 -3.90625 
Q 55.765625 -3.90625 46.921875 -1.21875 
Q 35.296875 2.390625 27.34375 14.109375 
Q 22.515625 2.546875 12.59375 -7.171875 
L 7.421875 -1.171875 
Q 22.125 11.859375 26.3125 37.796875 
L 33.203125 35.984375 
Q 31.734375 27.4375 29.828125 21.1875 
Q 36.53125 10.59375 46.4375 6.5 
L 46.4375 46 
L 22.40625 46 
L 22.40625 52.390625 
L 77.484375 52.390625 
L 77.484375 46 
L 53.609375 46 
L 53.609375 31 
L 84.328125 31 
L 84.328125 24.515625 
L 53.609375 24.515625 
z
M 53.421875 69.1875 
L 89.84375 69.1875 
L 89.84375 49.46875 
L 82.421875 49.46875 
L 82.421875 62.890625 
L 17.53125 62.890625 
L 17.53125 49.46875 
L 10.109375 49.46875 
L 10.109375 69.1875 
L 45.90625 69.1875 
L 45.90625 83.015625 
L 53.421875 83.015625 
z
" id="IPAexGothic-23450"/>
      <path d="M 51.078125 12.25 
Q 44.28125 -0.484375 29.6875 -0.484375 
Q 19.1875 -0.484375 12.3125 6.390625 
Q 4.890625 13.921875 4.890625 25.984375 
Q 4.890625 37.9375 12.3125 45.515625 
Q 19.09375 52.296875 29.390625 52.296875 
Q 43.953125 52.296875 50.09375 39.703125 
L 43.171875 36.078125 
Q 38.8125 45.3125 29.6875 45.3125 
Q 23.6875 45.3125 19.28125 40.921875 
Q 13.765625 35.40625 13.765625 25.78125 
Q 13.765625 16.703125 19.09375 11.375 
Q 23.78125 6.6875 30.5625 6.6875 
Q 39.796875 6.6875 44.484375 15.875 
z
" id="IPAexGothic-99"/>
      <path d="M 38.375 72.21875 
L 34.8125 66.3125 
Q 31.109375 69.09375 27.203125 69.09375 
Q 18.5 69.09375 18.5 57.375 
L 18.5 50.78125 
L 32.078125 50.78125 
L 32.078125 44.671875 
L 18.5 44.671875 
L 18.5 0.984375 
L 10.015625 0.984375 
L 10.015625 44.671875 
L 1.90625 44.671875 
L 1.90625 50.78125 
L 10.015625 50.78125 
L 10.015625 57.171875 
Q 10.015625 65.4375 13.921875 70.0625 
Q 18.75 75.6875 26.703125 75.6875 
Q 33.0625 75.6875 38.375 72.21875 
z
" id="IPAexGothic-102"/>
      <path d="M 18.40625 61.375 
L 8.59375 61.375 
L 8.59375 71.390625 
L 18.40625 71.390625 
z
M 17.78125 0.984375 
L 9.1875 0.984375 
L 9.1875 50.78125 
L 17.78125 50.78125 
z
" id="IPAexGothic-105"/>
      <path d="M 78.46875 0.984375 
L 69.875 0.984375 
L 69.875 32.171875 
Q 69.875 44.828125 60.109375 44.828125 
Q 55.46875 44.828125 51.609375 40.53125 
Q 48.875 37.453125 47.796875 32.859375 
L 47.796875 0.984375 
L 39.203125 0.984375 
L 39.203125 32.28125 
Q 39.203125 44.828125 29.984375 44.828125 
Q 25.09375 44.828125 21.390625 40.53125 
Q 17.390625 36.03125 17.390625 31.890625 
L 17.390625 0.984375 
L 8.796875 0.984375 
L 8.796875 50.78125 
L 16.796875 50.78125 
L 16.796875 42.1875 
Q 21.734375 51.8125 31.6875 51.8125 
Q 42.578125 51.8125 46.1875 41.359375 
Q 51.609375 51.8125 61.765625 51.8125 
Q 69.96875 51.8125 74.5625 46 
Q 78.46875 41.21875 78.46875 32.375 
z
" id="IPAexGothic-109"/>
      <path d="M 52.984375 0.984375 
L 45.171875 0.984375 
L 45.171875 9.671875 
Q 38.140625 -0.484375 27.390625 -0.484375 
Q 18.453125 -0.484375 12.3125 5.8125 
Q 4.890625 13.1875 4.890625 25.984375 
Q 4.890625 38.53125 12.0625 45.90625 
Q 18.265625 52.203125 27.390625 52.203125 
Q 37.25 52.203125 44.484375 43.890625 
L 44.484375 74.90625 
L 52.984375 74.90625 
z
M 44.484375 20.359375 
L 44.484375 32.765625 
Q 44.484375 37.703125 38.375 42.28125 
Q 34.078125 45.40625 28.953125 45.40625 
Q 23.1875 45.40625 19.1875 41.40625 
Q 13.875 36.078125 13.875 26.21875 
Q 13.875 17.328125 18.265625 11.71875 
Q 22.515625 6.390625 28.859375 6.390625 
Q 36.28125 6.390625 41.5 13.671875 
Q 44.484375 17.71875 44.484375 20.359375 
z
" id="IPAexGothic-100"/>
     </defs>
     <g transform="translate(70.095313 39.453125)scale(0.1 -0.1)">
      <use xlink:href="#IPAexGothic-30906"/>
      <use x="100" xlink:href="#IPAexGothic-23450"/>
      <use x="200" xlink:href="#IPAexGothic-26085"/>
      <use x="300" xlink:href="#IPAexGothic-32"/>
      <use x="327.001953" xlink:href="#IPAexGothic-40"/>
      <use x="360.302734" xlink:href="#IPAexGothic-99"/>
      <use x="414.697266" xlink:href="#IPAexGothic-111"/>
      <use x="475.097656" xlink:href="#IPAexGothic-110"/>
      <use x="535.498047" xlink:href="#IPAexGothic-102"/>
      <use x="566.113281" xlink:href="#IPAexGothic-105"/>
      <use x="593.115234" xlink:href="#IPAexGothic-114"/>
      <use x="630.126953" xlink:href="#IPAexGothic-109"/>
      <use x="717.236328" xlink:href="#IPAexGothic-101"/>
      <use x="774.121094" xlink:href="#IPAexGothic-100"/>
      <use x="836.523438" xlink:href="#IPAexGothic-41"/>
     </g>
    </g>
   </g>
  </g>
 </g>
 <defs>
  <clipPath id="pa8700f73ef">
   <rect height="266.112" width="357.12" x="33.095313" y="7.2"/>
  </clipPath>
 </defs>
</svg>
