<?xml version="1.0" encoding="utf-8" standalone="no"?>
<!DOCTYPE svg PUBLIC "-//W3C//DTD SVG 1.1//EN"
  "http://www.w3.org/Graphics/SVG/1.1/DTD/svg11.dtd">
<!-- Created with matplotlib (https://matplotlib.org/) -->
<svg height="309.29325pt" version="1.1" viewBox="0 0 397.415313 309.29325" width="397.415313pt" xmlns="http://www.w3.org/2000/svg" xmlns:xlink="http://www.w3.org/1999/xlink">
 <defs>
  <style type="text/css">
*{stroke-linecap:butt;stroke-linejoin:round;}
  </style>
 </defs>
 <g id="figure_1">
  <g id="patch_1">
   <path d="M 0 309.29325 
L 397.415313 309.29325 
L 397.415313 0 
L 0 0 
z
" style="fill:#ffffff;"/>
  </g>
  <g id="axes_1">
   <g id="patch_2">
    <path d="M 33.095313 273.312 
L 390.215312 273.312 
L 390.215312 7.2 
L 33.095313 7.2 
z
" style="fill:#ffffff;"/>
   </g>
   <g id="matplotlib.axis_1">
    <g id="xtick_1">
     <g id="line2d_1">
      <defs>
       <path d="M 0 0 
L 0 3.5 
" id="maf060304b2" style="stroke:#000000;stroke-width:0.8;"/>
      </defs>
      <g>
       <use style="stroke:#000000;stroke-width:0.8;" x="41.864717" xlink:href="#maf060304b2" y="273.312"/>
      </g>
     </g>
     <g id="text_1">
      <!-- Jan -->
      <defs>
       <path d="M 28.421875 72.40625 
L 28.421875 19.28125 
Q 28.421875 -0.484375 11.921875 -0.484375 
Q 4.734375 -0.484375 -1.953125 3.265625 
L 1.3125 10.0625 
Q 5.90625 6.984375 10.84375 6.984375 
Q 19.53125 6.984375 19.53125 18.796875 
L 19.53125 72.40625 
z
" id="IPAexGothic-74"/>
       <path d="M 49.3125 0.984375 
L 41.75 0.984375 
Q 39.984375 4.734375 39.546875 8.6875 
L 39.203125 8.6875 
Q 33.546875 -0.390625 22.3125 -0.390625 
Q 14.59375 -0.390625 9.71875 4.5 
Q 5.421875 8.796875 5.421875 14.984375 
Q 5.421875 30.421875 32.03125 31.203125 
L 38.71875 31.390625 
L 38.71875 33.984375 
Q 38.71875 39.203125 35.75 42.1875 
Q 32.625 45.3125 27.734375 45.3125 
Q 19.34375 45.3125 15.140625 37.15625 
L 7.71875 40.578125 
Q 14.65625 52 27.9375 52 
Q 37.109375 52 42.046875 46.875 
Q 46.625 42.28125 46.625 33.890625 
L 46.625 15.578125 
Q 46.625 6.25 49.3125 0.984375 
z
M 38.921875 25.390625 
L 33.453125 25.296875 
Q 14.109375 24.859375 14.109375 14.890625 
Q 14.109375 11.375 16.40625 9.078125 
Q 19.234375 6.296875 23.828125 6.296875 
Q 30.21875 6.296875 34.90625 10.984375 
Q 38.921875 15.140625 38.921875 21 
z
" id="IPAexGothic-97"/>
       <path d="M 52 0.984375 
L 43.40625 0.984375 
L 43.40625 31.890625 
Q 43.40625 44.578125 32.90625 44.578125 
Q 22.3125 44.578125 17.390625 31.890625 
L 17.390625 0.984375 
L 8.796875 0.984375 
L 8.796875 50.78125 
L 16.796875 50.78125 
L 16.796875 41.796875 
Q 23.828125 51.8125 34.71875 51.8125 
Q 52 51.8125 52 32.375 
z
" id="IPAexGothic-110"/>
      </defs>
      <g transform="translate(34.195967 287.802625)scale(0.1 -0.1)">
       <use xlink:href="#IPAexGothic-74"/>
       <use x="37.988281" xlink:href="#IPAexGothic-97"/>
       <use x="92.96875" xlink:href="#IPAexGothic-110"/>
      </g>
     </g>
    </g>
    <g id="xtick_2">
     <g id="line2d_2">
      <g>
       <use style="stroke:#000000;stroke-width:0.8;" x="94.107977" xlink:href="#maf060304b2" y="273.312"/>
      </g>
     </g>
     <g id="text_2">
      <!-- 15 -->
      <defs>
       <path d="M 38.484375 0.984375 
L 29.6875 0.984375 
L 29.6875 64.109375 
Q 21.4375 61.28125 12.3125 59.328125 
L 10.6875 66.109375 
Q 23.734375 69.390625 32.90625 73.921875 
L 38.484375 73.921875 
z
" id="IPAexGothic-49"/>
       <path d="M 18.40625 40.671875 
Q 25.53125 46.296875 33.9375 46.296875 
Q 44 46.296875 50.640625 39.5 
Q 56.84375 33.015625 56.84375 23.390625 
Q 56.84375 14.65625 51.515625 8.015625 
Q 44.828125 -0.484375 31.734375 -0.484375 
Q 14.984375 -0.484375 7.328125 12.25 
L 14.65625 16.0625 
Q 20.453125 6.78125 31.453125 6.78125 
Q 38.53125 6.78125 43.265625 11.1875 
Q 48.140625 15.828125 48.140625 23.484375 
Q 48.140625 30.71875 43.84375 35.015625 
Q 39.359375 39.5 32.125 39.5 
Q 21.96875 39.5 16.75 31.6875 
L 9.234375 32.671875 
L 13.8125 72.40625 
L 53.21875 72.40625 
L 53.21875 64.890625 
L 20.953125 64.890625 
L 17.71875 40.671875 
z
" id="IPAexGothic-53"/>
      </defs>
      <g transform="translate(87.80954 287.802625)scale(0.1 -0.1)">
       <use xlink:href="#IPAexGothic-49"/>
       <use x="62.988281" xlink:href="#IPAexGothic-53"/>
      </g>
     </g>
    </g>
    <g id="xtick_3">
     <g id="line2d_3">
      <g>
       <use style="stroke:#000000;stroke-width:0.8;" x="157.546222" xlink:href="#maf060304b2" y="273.312"/>
      </g>
     </g>
     <g id="text_3">
      <!-- Feb -->
      <defs>
       <path d="M 54.203125 64.703125 
L 18.3125 64.703125 
L 18.3125 41.5 
L 50.09375 41.5 
L 50.09375 34.1875 
L 18.3125 34.1875 
L 18.3125 0.984375 
L 9.515625 0.984375 
L 9.515625 72.40625 
L 54.203125 72.40625 
z
" id="IPAexGothic-70"/>
       <path d="M 13.484375 24.90625 
Q 13.921875 16.265625 18.890625 11.28125 
Q 23.96875 6.203125 31.203125 6.203125 
Q 40.71875 6.203125 46.296875 15.09375 
L 51.90625 11.375 
Q 44.828125 -0.484375 30.171875 -0.484375 
Q 19.09375 -0.484375 11.96875 6.59375 
Q 4.78125 13.8125 4.78125 25.640625 
Q 4.78125 38.1875 12.3125 45.703125 
Q 19 52.390625 29 52.390625 
Q 38.421875 52.390625 44.78125 46.1875 
Q 51.90625 38.96875 51.90625 26.90625 
L 51.90625 24.90625 
z
M 43.0625 31.203125 
Q 42.328125 37.984375 38.28125 41.890625 
Q 34.28125 45.90625 28.8125 45.90625 
Q 22.46875 45.90625 17.96875 40.484375 
Q 14.890625 36.8125 13.96875 31.203125 
z
" id="IPAexGothic-101"/>
       <path d="M 17.578125 42.671875 
Q 24.21875 52.203125 34.671875 52.203125 
Q 43.5625 52.203125 49.859375 45.90625 
Q 57.171875 38.578125 57.171875 25.6875 
Q 57.171875 13.09375 49.859375 5.8125 
Q 43.5625 -0.484375 34.46875 -0.484375 
Q 24.359375 -0.484375 17 8.0625 
L 15.765625 0.6875 
L 9.078125 0.6875 
L 9.078125 74.90625 
L 17.578125 74.90625 
z
M 17.578125 31.203125 
L 17.578125 19.578125 
Q 17.578125 13.875 23.875 9.375 
Q 28.171875 6.296875 33.109375 6.296875 
Q 38.875 6.296875 42.875 10.296875 
Q 48.1875 15.765625 48.1875 25.484375 
Q 48.1875 34.28125 43.796875 39.890625 
Q 39.453125 45.3125 33.203125 45.3125 
Q 27.484375 45.3125 22.46875 40.28125 
Q 17.578125 35.40625 17.578125 31.203125 
z
" id="IPAexGothic-98"/>
      </defs>
      <g transform="translate(148.722784 287.802625)scale(0.1 -0.1)">
       <use xlink:href="#IPAexGothic-70"/>
       <use x="57.177734" xlink:href="#IPAexGothic-101"/>
       <use x="114.0625" xlink:href="#IPAexGothic-98"/>
      </g>
     </g>
    </g>
    <g id="xtick_4">
     <g id="line2d_4">
      <g>
       <use style="stroke:#000000;stroke-width:0.8;" x="209.789482" xlink:href="#maf060304b2" y="273.312"/>
      </g>
     </g>
     <g id="text_4">
      <!-- 15 -->
      <g transform="translate(203.491044 287.802625)scale(0.1 -0.1)">
       <use xlink:href="#IPAexGothic-49"/>
       <use x="62.988281" xlink:href="#IPAexGothic-53"/>
      </g>
     </g>
    </g>
    <g id="xtick_5">
     <g id="line2d_5">
      <g>
       <use style="stroke:#000000;stroke-width:0.8;" x="265.764403" xlink:href="#maf060304b2" y="273.312"/>
      </g>
     </g>
     <g id="text_5">
      <!-- Mar -->
      <defs>
       <path d="M 80.421875 0.984375 
L 71.828125 0.984375 
L 71.828125 39.59375 
Q 71.828125 51.265625 72.40625 64.59375 
L 72.015625 64.59375 
Q 68.0625 53.265625 63.53125 41.796875 
L 47.90625 3.265625 
L 41.40625 3.265625 
L 25.640625 42.578125 
Q 20.75 54.78125 17.625 64.703125 
L 17.234375 64.703125 
Q 17.828125 48.921875 17.828125 39.890625 
L 17.828125 0.984375 
L 9.515625 0.984375 
L 9.515625 72.40625 
L 22.125 72.40625 
L 39.109375 30.375 
Q 42.140625 23 44.828125 14.15625 
L 45.125 14.15625 
Q 47.3125 22.125 50.53125 30.171875 
L 67.4375 72.40625 
L 80.421875 72.40625 
z
" id="IPAexGothic-77"/>
       <path d="M 36.078125 51.8125 
L 34.578125 43.265625 
Q 32.90625 43.609375 31.59375 43.609375 
Q 25.828125 43.609375 22.078125 38.1875 
Q 17.390625 31.34375 17.390625 26.171875 
L 17.390625 0.984375 
L 8.796875 0.984375 
L 8.796875 50.78125 
L 16.890625 50.78125 
L 16.5 35.984375 
L 16.703125 35.984375 
Q 22.21875 52.203125 32.765625 52.203125 
Q 34.46875 52.203125 36.078125 51.8125 
z
" id="IPAexGothic-114"/>
      </defs>
      <g transform="translate(256.655028 287.802625)scale(0.1 -0.1)">
       <use xlink:href="#IPAexGothic-77"/>
       <use x="90.185547" xlink:href="#IPAexGothic-97"/>
       <use x="145.166016" xlink:href="#IPAexGothic-114"/>
      </g>
     </g>
    </g>
    <g id="xtick_6">
     <g id="line2d_6">
      <g>
       <use style="stroke:#000000;stroke-width:0.8;" x="318.007664" xlink:href="#maf060304b2" y="273.312"/>
      </g>
     </g>
     <g id="text_6">
      <!-- 15 -->
      <g transform="translate(311.709226 287.802625)scale(0.1 -0.1)">
       <use xlink:href="#IPAexGothic-49"/>
       <use x="62.988281" xlink:href="#IPAexGothic-53"/>
      </g>
     </g>
    </g>
    <g id="xtick_7">
     <g id="line2d_7">
      <g>
       <use style="stroke:#000000;stroke-width:0.8;" x="381.445908" xlink:href="#maf060304b2" y="273.312"/>
      </g>
     </g>
     <g id="text_7">
      <!-- Apr -->
      <defs>
       <path d="M 63.375 0.984375 
L 53.8125 0.984375 
L 45.90625 22.015625 
L 17.1875 22.015625 
L 9.421875 0.984375 
L -0.09375 0.984375 
L 28.21875 72.90625 
L 35.296875 72.90625 
z
M 43.40625 29.109375 
L 36.1875 48.09375 
Q 33.203125 56.0625 31.6875 62.5 
L 31.390625 62.5 
Q 29.640625 55.671875 26.8125 48.09375 
L 19.734375 29.109375 
z
" id="IPAexGothic-65"/>
       <path d="M 16.796875 42 
Q 23.828125 52.203125 34.46875 52.203125 
Q 43.265625 52.203125 49.5625 45.90625 
Q 56.890625 38.578125 56.890625 25.6875 
Q 56.890625 13.140625 49.65625 5.8125 
Q 43.359375 -0.484375 34.375 -0.484375 
Q 24.515625 -0.484375 17.28125 7.765625 
L 17.28125 -19 
L 8.796875 -19 
L 8.796875 50.78125 
L 16.796875 50.78125 
z
M 17.28125 30.46875 
L 17.28125 20.171875 
Q 17.28125 14.015625 23.6875 9.375 
Q 27.984375 6.296875 32.90625 6.296875 
Q 38.578125 6.296875 42.578125 10.296875 
Q 47.90625 15.578125 47.90625 25.484375 
Q 47.90625 34.375 43.5 39.984375 
Q 39.109375 45.3125 32.8125 45.3125 
Q 25.875 45.3125 20.90625 38.8125 
Q 17.28125 34.125 17.28125 30.46875 
z
" id="IPAexGothic-112"/>
      </defs>
      <g transform="translate(373.303721 287.802625)scale(0.1 -0.1)">
       <use xlink:href="#IPAexGothic-65"/>
       <use x="63.720703" xlink:href="#IPAexGothic-112"/>
       <use x="125.830078" xlink:href="#IPAexGothic-114"/>
      </g>
     </g>
    </g>
    <g id="text_8">
     <!-- 2020-Apr -->
     <defs>
      <path d="M 57.171875 0.984375 
L 6.984375 0.984375 
L 6.984375 9.28125 
Q 12.890625 23.046875 29.59375 34.421875 
L 32.375 36.28125 
Q 40.921875 42.140625 43.609375 45.40625 
Q 46.6875 49.265625 46.6875 53.8125 
Q 46.6875 58.9375 43.0625 62.546875 
Q 39.0625 66.546875 32.5625 66.546875 
Q 19.53125 66.546875 15.484375 52 
L 7.765625 54.78125 
Q 13.328125 73.828125 33.0625 73.828125 
Q 43.84375 73.828125 50.25 67.4375 
Q 55.859375 61.671875 55.859375 53.515625 
Q 55.859375 47.46875 52.25 42.53125 
Q 48.921875 37.75 36.96875 30.28125 
L 34.859375 29 
Q 19.625 19.578125 15.28125 8.890625 
L 57.171875 8.890625 
z
" id="IPAexGothic-50"/>
      <path d="M 31.84375 73.828125 
Q 45.015625 73.828125 52.09375 61.625 
Q 57.71875 51.953125 57.71875 36.625 
Q 57.71875 21.4375 52.09375 11.578125 
Q 45.125 -0.484375 31.5 -0.484375 
Q 17.921875 -0.484375 10.9375 11.578125 
Q 5.328125 21.4375 5.328125 36.71875 
Q 5.328125 58.015625 15.625 67.71875 
Q 22.171875 73.828125 31.84375 73.828125 
z
M 31.5 66.65625 
Q 23.6875 66.65625 19.1875 58.734375 
Q 14.59375 50.734375 14.59375 36.625 
Q 14.59375 22.75 19.09375 14.796875 
Q 23.640625 6.984375 31.5 6.984375 
Q 40.921875 6.984375 45.453125 18.015625 
Q 48.4375 25.34375 48.4375 37.109375 
Q 48.4375 50.875 43.84375 58.734375 
Q 39.203125 66.65625 31.5 66.65625 
z
" id="IPAexGothic-48"/>
      <path d="M 30.765625 26.609375 
L 4.984375 26.609375 
L 4.984375 34.421875 
L 30.765625 34.421875 
z
" id="IPAexGothic-45"/>
     </defs>
     <g transform="translate(345.1575 300.19325)scale(0.1 -0.1)">
      <use xlink:href="#IPAexGothic-50"/>
      <use x="62.988281" xlink:href="#IPAexGothic-48"/>
      <use x="125.976562" xlink:href="#IPAexGothic-50"/>
      <use x="188.964844" xlink:href="#IPAexGothic-48"/>
      <use x="251.953125" xlink:href="#IPAexGothic-45"/>
      <use x="287.744141" xlink:href="#IPAexGothic-65"/>
      <use x="351.464844" xlink:href="#IPAexGothic-112"/>
      <use x="413.574219" xlink:href="#IPAexGothic-114"/>
     </g>
    </g>
   </g>
   <g id="matplotlib.axis_2">
    <g id="ytick_1">
     <g id="line2d_8">
      <defs>
       <path d="M 0 0 
L -3.5 0 
" id="maf2206db67" style="stroke:#000000;stroke-width:0.8;"/>
      </defs>
      <g>
       <use style="stroke:#000000;stroke-width:0.8;" x="33.095313" xlink:href="#maf2206db67" y="261.216"/>
      </g>
     </g>
     <g id="text_9">
      <!-- 0 -->
      <g transform="translate(19.796875 264.961312)scale(0.1 -0.1)">
       <use xlink:href="#IPAexGothic-48"/>
      </g>
     </g>
    </g>
    <g id="ytick_2">
     <g id="line2d_9">
      <g>
       <use style="stroke:#000000;stroke-width:0.8;" x="33.095313" xlink:href="#maf2206db67" y="231.568941"/>
      </g>
     </g>
     <g id="text_10">
      <!-- 25 -->
      <g transform="translate(13.498438 235.314254)scale(0.1 -0.1)">
       <use xlink:href="#IPAexGothic-50"/>
       <use x="62.988281" xlink:href="#IPAexGothic-53"/>
      </g>
     </g>
    </g>
    <g id="ytick_3">
     <g id="line2d_10">
      <g>
       <use style="stroke:#000000;stroke-width:0.8;" x="33.095313" xlink:href="#maf2206db67" y="201.921882"/>
      </g>
     </g>
     <g id="text_11">
      <!-- 50 -->
      <g transform="translate(13.498438 205.667195)scale(0.1 -0.1)">
       <use xlink:href="#IPAexGothic-53"/>
       <use x="62.988281" xlink:href="#IPAexGothic-48"/>
      </g>
     </g>
    </g>
    <g id="ytick_4">
     <g id="line2d_11">
      <g>
       <use style="stroke:#000000;stroke-width:0.8;" x="33.095313" xlink:href="#maf2206db67" y="172.274824"/>
      </g>
     </g>
     <g id="text_12">
      <!-- 75 -->
      <defs>
       <path d="M 56.203125 66.609375 
Q 34.96875 32.90625 27.78125 0.984375 
L 17.671875 0.984375 
Q 24.703125 28.65625 46.09375 64.5 
L 6.6875 64.5 
L 6.6875 72.40625 
L 56.203125 72.40625 
z
" id="IPAexGothic-55"/>
      </defs>
      <g transform="translate(13.498438 176.020136)scale(0.1 -0.1)">
       <use xlink:href="#IPAexGothic-55"/>
       <use x="62.988281" xlink:href="#IPAexGothic-53"/>
      </g>
     </g>
    </g>
    <g id="ytick_5">
     <g id="line2d_12">
      <g>
       <use style="stroke:#000000;stroke-width:0.8;" x="33.095313" xlink:href="#maf2206db67" y="142.627765"/>
      </g>
     </g>
     <g id="text_13">
      <!-- 100 -->
      <g transform="translate(7.2 146.373077)scale(0.1 -0.1)">
       <use xlink:href="#IPAexGothic-49"/>
       <use x="62.988281" xlink:href="#IPAexGothic-48"/>
       <use x="125.976562" xlink:href="#IPAexGothic-48"/>
      </g>
     </g>
    </g>
    <g id="ytick_6">
     <g id="line2d_13">
      <g>
       <use style="stroke:#000000;stroke-width:0.8;" x="33.095313" xlink:href="#maf2206db67" y="112.980706"/>
      </g>
     </g>
     <g id="text_14">
      <!-- 125 -->
      <g transform="translate(7.2 116.726018)scale(0.1 -0.1)">
       <use xlink:href="#IPAexGothic-49"/>
       <use x="62.988281" xlink:href="#IPAexGothic-50"/>
       <use x="125.976562" xlink:href="#IPAexGothic-53"/>
      </g>
     </g>
    </g>
    <g id="ytick_7">
     <g id="line2d_14">
      <g>
       <use style="stroke:#000000;stroke-width:0.8;" x="33.095313" xlink:href="#maf2206db67" y="83.333647"/>
      </g>
     </g>
     <g id="text_15">
      <!-- 150 -->
      <g transform="translate(7.2 87.07896)scale(0.1 -0.1)">
       <use xlink:href="#IPAexGothic-49"/>
       <use x="62.988281" xlink:href="#IPAexGothic-53"/>
       <use x="125.976562" xlink:href="#IPAexGothic-48"/>
      </g>
     </g>
    </g>
    <g id="ytick_8">
     <g id="line2d_15">
      <g>
       <use style="stroke:#000000;stroke-width:0.8;" x="33.095313" xlink:href="#maf2206db67" y="53.686588"/>
      </g>
     </g>
     <g id="text_16">
      <!-- 175 -->
      <g transform="translate(7.2 57.431901)scale(0.1 -0.1)">
       <use xlink:href="#IPAexGothic-49"/>
       <use x="62.988281" xlink:href="#IPAexGothic-55"/>
       <use x="125.976562" xlink:href="#IPAexGothic-53"/>
      </g>
     </g>
    </g>
    <g id="ytick_9">
     <g id="line2d_16">
      <g>
       <use style="stroke:#000000;stroke-width:0.8;" x="33.095313" xlink:href="#maf2206db67" y="24.039529"/>
      </g>
     </g>
     <g id="text_17">
      <!-- 200 -->
      <g transform="translate(7.2 27.784842)scale(0.1 -0.1)">
       <use xlink:href="#IPAexGothic-50"/>
       <use x="62.988281" xlink:href="#IPAexGothic-48"/>
       <use x="125.976562" xlink:href="#IPAexGothic-48"/>
      </g>
     </g>
    </g>
   </g>
   <g id="line2d_17">
    <path clip-path="url(#pe3d726a533)" d="M 49.32804 260.030118 
L 53.059701 261.216 
L 56.791363 261.216 
L 60.523024 261.216 
L 64.254686 261.216 
L 67.986347 261.216 
L 71.718008 261.216 
L 75.44967 261.216 
L 79.181331 261.216 
L 82.912993 261.216 
L 86.644654 261.216 
L 90.376316 258.844235 
L 94.107977 261.216 
L 97.839639 261.216 
L 101.5713 261.216 
L 105.302961 261.216 
L 109.034623 261.216 
L 112.766284 257.658353 
L 116.497946 260.030118 
L 120.229607 258.844235 
L 123.961269 260.030118 
L 127.69293 258.844235 
L 131.424591 258.844235 
L 135.156253 257.658353 
L 138.887914 261.216 
L 142.619576 260.030118 
L 146.351237 258.844235 
L 150.082899 260.030118 
L 153.81456 256.472471 
L 157.546222 257.658353 
L 161.277883 256.472471 
L 165.009544 251.728941 
L 168.741206 255.286588 
L 172.472867 258.844235 
L 176.204529 254.100706 
L 179.93619 255.286588 
L 183.667852 258.844235 
L 187.399513 260.030118 
L 191.131175 251.728941 
L 194.862836 261.216 
L 198.594497 252.914824 
L 202.326159 252.914824 
L 206.05782 250.543059 
L 209.789482 250.543059 
L 213.521143 243.427765 
L 217.252805 248.171294 
L 220.984466 244.613647 
L 224.716128 243.427765 
L 228.447789 235.126588 
L 232.17945 239.870118 
L 235.911112 237.498353 
L 239.642773 233.940706 
L 243.374435 231.568941 
L 247.106096 222.081882 
L 250.837758 225.639529 
L 254.569419 232.754824 
L 258.301081 218.524235 
L 262.032742 232.754824 
L 265.764403 230.383059 
L 269.496065 214.966588 
L 273.227726 231.568941 
L 276.959388 224.453647 
L 280.691049 228.011294 
L 284.422711 230.383059 
L 288.154372 217.338353 
L 291.886034 223.267765 
L 295.617695 209.037176 
L 299.349356 233.940706 
L 303.081018 216.152471 
L 306.812679 224.453647 
L 310.544341 211.408941 
L 314.276002 226.825412 
L 318.007664 224.453647 
L 321.739325 222.081882 
L 325.470986 201.921882 
L 329.202648 209.037176 
L 332.934309 187.691294 
L 336.665971 206.665412 
L 340.397632 199.550118 
L 344.129294 209.037176 
L 347.860955 206.665412 
L 351.592617 233.940706 
L 355.324278 238.684235 
L 359.055939 249.357176 
L 362.787601 250.543059 
L 366.519262 257.658353 
L 370.250924 261.216 
L 373.982585 261.216 
" style="fill:none;stroke:#1f77b4;stroke-linecap:square;stroke-width:1.5;"/>
    <defs>
     <path d="M 0 3 
C 0.795609 3 1.55874 2.683901 2.12132 2.12132 
C 2.683901 1.55874 3 0.795609 3 0 
C 3 -0.795609 2.683901 -1.55874 2.12132 -2.12132 
C 1.55874 -2.683901 0.795609 -3 0 -3 
C -0.795609 -3 -1.55874 -2.683901 -2.12132 -2.12132 
C -2.683901 -1.55874 -3 -0.795609 -3 0 
C -3 0.795609 -2.683901 1.55874 -2.12132 2.12132 
C -1.55874 2.683901 -0.795609 3 0 3 
z
" id="m22530d8c8d" style="stroke:#1f77b4;"/>
    </defs>
    <g clip-path="url(#pe3d726a533)">
     <use style="fill:#1f77b4;stroke:#1f77b4;" x="49.32804" xlink:href="#m22530d8c8d" y="260.030118"/>
     <use style="fill:#1f77b4;stroke:#1f77b4;" x="53.059701" xlink:href="#m22530d8c8d" y="261.216"/>
     <use style="fill:#1f77b4;stroke:#1f77b4;" x="56.791363" xlink:href="#m22530d8c8d" y="261.216"/>
     <use style="fill:#1f77b4;stroke:#1f77b4;" x="60.523024" xlink:href="#m22530d8c8d" y="261.216"/>
     <use style="fill:#1f77b4;stroke:#1f77b4;" x="64.254686" xlink:href="#m22530d8c8d" y="261.216"/>
     <use style="fill:#1f77b4;stroke:#1f77b4;" x="67.986347" xlink:href="#m22530d8c8d" y="261.216"/>
     <use style="fill:#1f77b4;stroke:#1f77b4;" x="71.718008" xlink:href="#m22530d8c8d" y="261.216"/>
     <use style="fill:#1f77b4;stroke:#1f77b4;" x="75.44967" xlink:href="#m22530d8c8d" y="261.216"/>
     <use style="fill:#1f77b4;stroke:#1f77b4;" x="79.181331" xlink:href="#m22530d8c8d" y="261.216"/>
     <use style="fill:#1f77b4;stroke:#1f77b4;" x="82.912993" xlink:href="#m22530d8c8d" y="261.216"/>
     <use style="fill:#1f77b4;stroke:#1f77b4;" x="86.644654" xlink:href="#m22530d8c8d" y="261.216"/>
     <use style="fill:#1f77b4;stroke:#1f77b4;" x="90.376316" xlink:href="#m22530d8c8d" y="258.844235"/>
     <use style="fill:#1f77b4;stroke:#1f77b4;" x="94.107977" xlink:href="#m22530d8c8d" y="261.216"/>
     <use style="fill:#1f77b4;stroke:#1f77b4;" x="97.839639" xlink:href="#m22530d8c8d" y="261.216"/>
     <use style="fill:#1f77b4;stroke:#1f77b4;" x="101.5713" xlink:href="#m22530d8c8d" y="261.216"/>
     <use style="fill:#1f77b4;stroke:#1f77b4;" x="105.302961" xlink:href="#m22530d8c8d" y="261.216"/>
     <use style="fill:#1f77b4;stroke:#1f77b4;" x="109.034623" xlink:href="#m22530d8c8d" y="261.216"/>
     <use style="fill:#1f77b4;stroke:#1f77b4;" x="112.766284" xlink:href="#m22530d8c8d" y="257.658353"/>
     <use style="fill:#1f77b4;stroke:#1f77b4;" x="116.497946" xlink:href="#m22530d8c8d" y="260.030118"/>
     <use style="fill:#1f77b4;stroke:#1f77b4;" x="120.229607" xlink:href="#m22530d8c8d" y="258.844235"/>
     <use style="fill:#1f77b4;stroke:#1f77b4;" x="123.961269" xlink:href="#m22530d8c8d" y="260.030118"/>
     <use style="fill:#1f77b4;stroke:#1f77b4;" x="127.69293" xlink:href="#m22530d8c8d" y="258.844235"/>
     <use style="fill:#1f77b4;stroke:#1f77b4;" x="131.424591" xlink:href="#m22530d8c8d" y="258.844235"/>
     <use style="fill:#1f77b4;stroke:#1f77b4;" x="135.156253" xlink:href="#m22530d8c8d" y="257.658353"/>
     <use style="fill:#1f77b4;stroke:#1f77b4;" x="138.887914" xlink:href="#m22530d8c8d" y="261.216"/>
     <use style="fill:#1f77b4;stroke:#1f77b4;" x="142.619576" xlink:href="#m22530d8c8d" y="260.030118"/>
     <use style="fill:#1f77b4;stroke:#1f77b4;" x="146.351237" xlink:href="#m22530d8c8d" y="258.844235"/>
     <use style="fill:#1f77b4;stroke:#1f77b4;" x="150.082899" xlink:href="#m22530d8c8d" y="260.030118"/>
     <use style="fill:#1f77b4;stroke:#1f77b4;" x="153.81456" xlink:href="#m22530d8c8d" y="256.472471"/>
     <use style="fill:#1f77b4;stroke:#1f77b4;" x="157.546222" xlink:href="#m22530d8c8d" y="257.658353"/>
     <use style="fill:#1f77b4;stroke:#1f77b4;" x="161.277883" xlink:href="#m22530d8c8d" y="256.472471"/>
     <use style="fill:#1f77b4;stroke:#1f77b4;" x="165.009544" xlink:href="#m22530d8c8d" y="251.728941"/>
     <use style="fill:#1f77b4;stroke:#1f77b4;" x="168.741206" xlink:href="#m22530d8c8d" y="255.286588"/>
     <use style="fill:#1f77b4;stroke:#1f77b4;" x="172.472867" xlink:href="#m22530d8c8d" y="258.844235"/>
     <use style="fill:#1f77b4;stroke:#1f77b4;" x="176.204529" xlink:href="#m22530d8c8d" y="254.100706"/>
     <use style="fill:#1f77b4;stroke:#1f77b4;" x="179.93619" xlink:href="#m22530d8c8d" y="255.286588"/>
     <use style="fill:#1f77b4;stroke:#1f77b4;" x="183.667852" xlink:href="#m22530d8c8d" y="258.844235"/>
     <use style="fill:#1f77b4;stroke:#1f77b4;" x="187.399513" xlink:href="#m22530d8c8d" y="260.030118"/>
     <use style="fill:#1f77b4;stroke:#1f77b4;" x="191.131175" xlink:href="#m22530d8c8d" y="251.728941"/>
     <use style="fill:#1f77b4;stroke:#1f77b4;" x="194.862836" xlink:href="#m22530d8c8d" y="261.216"/>
     <use style="fill:#1f77b4;stroke:#1f77b4;" x="198.594497" xlink:href="#m22530d8c8d" y="252.914824"/>
     <use style="fill:#1f77b4;stroke:#1f77b4;" x="202.326159" xlink:href="#m22530d8c8d" y="252.914824"/>
     <use style="fill:#1f77b4;stroke:#1f77b4;" x="206.05782" xlink:href="#m22530d8c8d" y="250.543059"/>
     <use style="fill:#1f77b4;stroke:#1f77b4;" x="209.789482" xlink:href="#m22530d8c8d" y="250.543059"/>
     <use style="fill:#1f77b4;stroke:#1f77b4;" x="213.521143" xlink:href="#m22530d8c8d" y="243.427765"/>
     <use style="fill:#1f77b4;stroke:#1f77b4;" x="217.252805" xlink:href="#m22530d8c8d" y="248.171294"/>
     <use style="fill:#1f77b4;stroke:#1f77b4;" x="220.984466" xlink:href="#m22530d8c8d" y="244.613647"/>
     <use style="fill:#1f77b4;stroke:#1f77b4;" x="224.716128" xlink:href="#m22530d8c8d" y="243.427765"/>
     <use style="fill:#1f77b4;stroke:#1f77b4;" x="228.447789" xlink:href="#m22530d8c8d" y="235.126588"/>
     <use style="fill:#1f77b4;stroke:#1f77b4;" x="232.17945" xlink:href="#m22530d8c8d" y="239.870118"/>
     <use style="fill:#1f77b4;stroke:#1f77b4;" x="235.911112" xlink:href="#m22530d8c8d" y="237.498353"/>
     <use style="fill:#1f77b4;stroke:#1f77b4;" x="239.642773" xlink:href="#m22530d8c8d" y="233.940706"/>
     <use style="fill:#1f77b4;stroke:#1f77b4;" x="243.374435" xlink:href="#m22530d8c8d" y="231.568941"/>
     <use style="fill:#1f77b4;stroke:#1f77b4;" x="247.106096" xlink:href="#m22530d8c8d" y="222.081882"/>
     <use style="fill:#1f77b4;stroke:#1f77b4;" x="250.837758" xlink:href="#m22530d8c8d" y="225.639529"/>
     <use style="fill:#1f77b4;stroke:#1f77b4;" x="254.569419" xlink:href="#m22530d8c8d" y="232.754824"/>
     <use style="fill:#1f77b4;stroke:#1f77b4;" x="258.301081" xlink:href="#m22530d8c8d" y="218.524235"/>
     <use style="fill:#1f77b4;stroke:#1f77b4;" x="262.032742" xlink:href="#m22530d8c8d" y="232.754824"/>
     <use style="fill:#1f77b4;stroke:#1f77b4;" x="265.764403" xlink:href="#m22530d8c8d" y="230.383059"/>
     <use style="fill:#1f77b4;stroke:#1f77b4;" x="269.496065" xlink:href="#m22530d8c8d" y="214.966588"/>
     <use style="fill:#1f77b4;stroke:#1f77b4;" x="273.227726" xlink:href="#m22530d8c8d" y="231.568941"/>
     <use style="fill:#1f77b4;stroke:#1f77b4;" x="276.959388" xlink:href="#m22530d8c8d" y="224.453647"/>
     <use style="fill:#1f77b4;stroke:#1f77b4;" x="280.691049" xlink:href="#m22530d8c8d" y="228.011294"/>
     <use style="fill:#1f77b4;stroke:#1f77b4;" x="284.422711" xlink:href="#m22530d8c8d" y="230.383059"/>
     <use style="fill:#1f77b4;stroke:#1f77b4;" x="288.154372" xlink:href="#m22530d8c8d" y="217.338353"/>
     <use style="fill:#1f77b4;stroke:#1f77b4;" x="291.886034" xlink:href="#m22530d8c8d" y="223.267765"/>
     <use style="fill:#1f77b4;stroke:#1f77b4;" x="295.617695" xlink:href="#m22530d8c8d" y="209.037176"/>
     <use style="fill:#1f77b4;stroke:#1f77b4;" x="299.349356" xlink:href="#m22530d8c8d" y="233.940706"/>
     <use style="fill:#1f77b4;stroke:#1f77b4;" x="303.081018" xlink:href="#m22530d8c8d" y="216.152471"/>
     <use style="fill:#1f77b4;stroke:#1f77b4;" x="306.812679" xlink:href="#m22530d8c8d" y="224.453647"/>
     <use style="fill:#1f77b4;stroke:#1f77b4;" x="310.544341" xlink:href="#m22530d8c8d" y="211.408941"/>
     <use style="fill:#1f77b4;stroke:#1f77b4;" x="314.276002" xlink:href="#m22530d8c8d" y="226.825412"/>
     <use style="fill:#1f77b4;stroke:#1f77b4;" x="318.007664" xlink:href="#m22530d8c8d" y="224.453647"/>
     <use style="fill:#1f77b4;stroke:#1f77b4;" x="321.739325" xlink:href="#m22530d8c8d" y="222.081882"/>
     <use style="fill:#1f77b4;stroke:#1f77b4;" x="325.470986" xlink:href="#m22530d8c8d" y="201.921882"/>
     <use style="fill:#1f77b4;stroke:#1f77b4;" x="329.202648" xlink:href="#m22530d8c8d" y="209.037176"/>
     <use style="fill:#1f77b4;stroke:#1f77b4;" x="332.934309" xlink:href="#m22530d8c8d" y="187.691294"/>
     <use style="fill:#1f77b4;stroke:#1f77b4;" x="336.665971" xlink:href="#m22530d8c8d" y="206.665412"/>
     <use style="fill:#1f77b4;stroke:#1f77b4;" x="340.397632" xlink:href="#m22530d8c8d" y="199.550118"/>
     <use style="fill:#1f77b4;stroke:#1f77b4;" x="344.129294" xlink:href="#m22530d8c8d" y="209.037176"/>
     <use style="fill:#1f77b4;stroke:#1f77b4;" x="347.860955" xlink:href="#m22530d8c8d" y="206.665412"/>
     <use style="fill:#1f77b4;stroke:#1f77b4;" x="351.592617" xlink:href="#m22530d8c8d" y="233.940706"/>
     <use style="fill:#1f77b4;stroke:#1f77b4;" x="355.324278" xlink:href="#m22530d8c8d" y="238.684235"/>
     <use style="fill:#1f77b4;stroke:#1f77b4;" x="359.055939" xlink:href="#m22530d8c8d" y="249.357176"/>
     <use style="fill:#1f77b4;stroke:#1f77b4;" x="362.787601" xlink:href="#m22530d8c8d" y="250.543059"/>
     <use style="fill:#1f77b4;stroke:#1f77b4;" x="366.519262" xlink:href="#m22530d8c8d" y="257.658353"/>
     <use style="fill:#1f77b4;stroke:#1f77b4;" x="370.250924" xlink:href="#m22530d8c8d" y="261.216"/>
     <use style="fill:#1f77b4;stroke:#1f77b4;" x="373.982585" xlink:href="#m22530d8c8d" y="261.216"/>
    </g>
   </g>
   <g id="line2d_18">
    <path clip-path="url(#pe3d726a533)" d="M 49.32804 261.216 
L 53.059701 261.216 
L 56.791363 261.216 
L 60.523024 261.216 
L 64.254686 261.216 
L 67.986347 261.216 
L 71.718008 261.216 
L 75.44967 261.216 
L 79.181331 261.216 
L 82.912993 261.216 
L 86.644654 261.216 
L 90.376316 261.216 
L 94.107977 260.030118 
L 97.839639 261.216 
L 101.5713 261.216 
L 105.302961 261.216 
L 109.034623 261.216 
L 112.766284 261.216 
L 116.497946 261.216 
L 120.229607 261.216 
L 123.961269 261.216 
L 127.69293 260.030118 
L 131.424591 260.030118 
L 135.156253 260.030118 
L 138.887914 261.216 
L 142.619576 257.658353 
L 146.351237 260.030118 
L 150.082899 254.100706 
L 153.81456 258.844235 
L 157.546222 257.658353 
L 161.277883 261.216 
L 165.009544 261.216 
L 168.741206 257.658353 
L 172.472867 257.658353 
L 176.204529 261.216 
L 179.93619 260.030118 
L 183.667852 261.216 
L 187.399513 261.216 
L 191.131175 258.844235 
L 194.862836 260.030118 
L 198.594497 261.216 
L 202.326159 256.472471 
L 206.05782 251.728941 
L 209.789482 246.985412 
L 213.521143 254.100706 
L 217.252805 252.914824 
L 220.984466 249.357176 
L 224.716128 250.543059 
L 228.447789 250.543059 
L 232.17945 241.056 
L 235.911112 230.383059 
L 239.642773 249.357176 
L 243.374435 246.985412 
L 247.106096 243.427765 
L 250.837758 241.056 
L 254.569419 231.568941 
L 258.301081 237.498353 
L 262.032742 251.728941 
L 265.764403 244.613647 
L 269.496065 241.056 
L 273.227726 237.498353 
L 276.959388 218.524235 
L 280.691049 218.524235 
L 284.422711 193.620706 
L 288.154372 216.152471 
L 291.886034 217.338353 
L 295.617695 230.383059 
L 299.349356 179.390118 
L 303.081018 193.620706 
L 306.812679 207.851294 
L 310.544341 212.594824 
L 314.276002 198.364235 
L 318.007664 224.453647 
L 321.739325 238.684235 
L 325.470986 206.665412 
L 329.202648 209.037176 
L 332.934309 211.408941 
L 336.665971 203.107765 
L 340.397632 210.223059 
L 344.129294 211.408941 
L 347.860955 216.152471 
L 351.592617 167.531294 
L 355.324278 153.300706 
L 359.055939 139.070118 
L 362.787601 115.352471 
L 366.519262 19.296 
L 370.250924 75.032471 
L 373.982585 260.030118 
" style="fill:none;stroke:#ff7f0e;stroke-linecap:square;stroke-width:1.5;"/>
    <defs>
     <path d="M 0 3 
C 0.795609 3 1.55874 2.683901 2.12132 2.12132 
C 2.683901 1.55874 3 0.795609 3 0 
C 3 -0.795609 2.683901 -1.55874 2.12132 -2.12132 
C 1.55874 -2.683901 0.795609 -3 0 -3 
C -0.795609 -3 -1.55874 -2.683901 -2.12132 -2.12132 
C -2.683901 -1.55874 -3 -0.795609 -3 0 
C -3 0.795609 -2.683901 1.55874 -2.12132 2.12132 
C -1.55874 2.683901 -0.795609 3 0 3 
z
" id="m60c04a9369" style="stroke:#ff7f0e;"/>
    </defs>
    <g clip-path="url(#pe3d726a533)">
     <use style="fill:#ff7f0e;stroke:#ff7f0e;" x="49.32804" xlink:href="#m60c04a9369" y="261.216"/>
     <use style="fill:#ff7f0e;stroke:#ff7f0e;" x="53.059701" xlink:href="#m60c04a9369" y="261.216"/>
     <use style="fill:#ff7f0e;stroke:#ff7f0e;" x="56.791363" xlink:href="#m60c04a9369" y="261.216"/>
     <use style="fill:#ff7f0e;stroke:#ff7f0e;" x="60.523024" xlink:href="#m60c04a9369" y="261.216"/>
     <use style="fill:#ff7f0e;stroke:#ff7f0e;" x="64.254686" xlink:href="#m60c04a9369" y="261.216"/>
     <use style="fill:#ff7f0e;stroke:#ff7f0e;" x="67.986347" xlink:href="#m60c04a9369" y="261.216"/>
     <use style="fill:#ff7f0e;stroke:#ff7f0e;" x="71.718008" xlink:href="#m60c04a9369" y="261.216"/>
     <use style="fill:#ff7f0e;stroke:#ff7f0e;" x="75.44967" xlink:href="#m60c04a9369" y="261.216"/>
     <use style="fill:#ff7f0e;stroke:#ff7f0e;" x="79.181331" xlink:href="#m60c04a9369" y="261.216"/>
     <use style="fill:#ff7f0e;stroke:#ff7f0e;" x="82.912993" xlink:href="#m60c04a9369" y="261.216"/>
     <use style="fill:#ff7f0e;stroke:#ff7f0e;" x="86.644654" xlink:href="#m60c04a9369" y="261.216"/>
     <use style="fill:#ff7f0e;stroke:#ff7f0e;" x="90.376316" xlink:href="#m60c04a9369" y="261.216"/>
     <use style="fill:#ff7f0e;stroke:#ff7f0e;" x="94.107977" xlink:href="#m60c04a9369" y="260.030118"/>
     <use style="fill:#ff7f0e;stroke:#ff7f0e;" x="97.839639" xlink:href="#m60c04a9369" y="261.216"/>
     <use style="fill:#ff7f0e;stroke:#ff7f0e;" x="101.5713" xlink:href="#m60c04a9369" y="261.216"/>
     <use style="fill:#ff7f0e;stroke:#ff7f0e;" x="105.302961" xlink:href="#m60c04a9369" y="261.216"/>
     <use style="fill:#ff7f0e;stroke:#ff7f0e;" x="109.034623" xlink:href="#m60c04a9369" y="261.216"/>
     <use style="fill:#ff7f0e;stroke:#ff7f0e;" x="112.766284" xlink:href="#m60c04a9369" y="261.216"/>
     <use style="fill:#ff7f0e;stroke:#ff7f0e;" x="116.497946" xlink:href="#m60c04a9369" y="261.216"/>
     <use style="fill:#ff7f0e;stroke:#ff7f0e;" x="120.229607" xlink:href="#m60c04a9369" y="261.216"/>
     <use style="fill:#ff7f0e;stroke:#ff7f0e;" x="123.961269" xlink:href="#m60c04a9369" y="261.216"/>
     <use style="fill:#ff7f0e;stroke:#ff7f0e;" x="127.69293" xlink:href="#m60c04a9369" y="260.030118"/>
     <use style="fill:#ff7f0e;stroke:#ff7f0e;" x="131.424591" xlink:href="#m60c04a9369" y="260.030118"/>
     <use style="fill:#ff7f0e;stroke:#ff7f0e;" x="135.156253" xlink:href="#m60c04a9369" y="260.030118"/>
     <use style="fill:#ff7f0e;stroke:#ff7f0e;" x="138.887914" xlink:href="#m60c04a9369" y="261.216"/>
     <use style="fill:#ff7f0e;stroke:#ff7f0e;" x="142.619576" xlink:href="#m60c04a9369" y="257.658353"/>
     <use style="fill:#ff7f0e;stroke:#ff7f0e;" x="146.351237" xlink:href="#m60c04a9369" y="260.030118"/>
     <use style="fill:#ff7f0e;stroke:#ff7f0e;" x="150.082899" xlink:href="#m60c04a9369" y="254.100706"/>
     <use style="fill:#ff7f0e;stroke:#ff7f0e;" x="153.81456" xlink:href="#m60c04a9369" y="258.844235"/>
     <use style="fill:#ff7f0e;stroke:#ff7f0e;" x="157.546222" xlink:href="#m60c04a9369" y="257.658353"/>
     <use style="fill:#ff7f0e;stroke:#ff7f0e;" x="161.277883" xlink:href="#m60c04a9369" y="261.216"/>
     <use style="fill:#ff7f0e;stroke:#ff7f0e;" x="165.009544" xlink:href="#m60c04a9369" y="261.216"/>
     <use style="fill:#ff7f0e;stroke:#ff7f0e;" x="168.741206" xlink:href="#m60c04a9369" y="257.658353"/>
     <use style="fill:#ff7f0e;stroke:#ff7f0e;" x="172.472867" xlink:href="#m60c04a9369" y="257.658353"/>
     <use style="fill:#ff7f0e;stroke:#ff7f0e;" x="176.204529" xlink:href="#m60c04a9369" y="261.216"/>
     <use style="fill:#ff7f0e;stroke:#ff7f0e;" x="179.93619" xlink:href="#m60c04a9369" y="260.030118"/>
     <use style="fill:#ff7f0e;stroke:#ff7f0e;" x="183.667852" xlink:href="#m60c04a9369" y="261.216"/>
     <use style="fill:#ff7f0e;stroke:#ff7f0e;" x="187.399513" xlink:href="#m60c04a9369" y="261.216"/>
     <use style="fill:#ff7f0e;stroke:#ff7f0e;" x="191.131175" xlink:href="#m60c04a9369" y="258.844235"/>
     <use style="fill:#ff7f0e;stroke:#ff7f0e;" x="194.862836" xlink:href="#m60c04a9369" y="260.030118"/>
     <use style="fill:#ff7f0e;stroke:#ff7f0e;" x="198.594497" xlink:href="#m60c04a9369" y="261.216"/>
     <use style="fill:#ff7f0e;stroke:#ff7f0e;" x="202.326159" xlink:href="#m60c04a9369" y="256.472471"/>
     <use style="fill:#ff7f0e;stroke:#ff7f0e;" x="206.05782" xlink:href="#m60c04a9369" y="251.728941"/>
     <use style="fill:#ff7f0e;stroke:#ff7f0e;" x="209.789482" xlink:href="#m60c04a9369" y="246.985412"/>
     <use style="fill:#ff7f0e;stroke:#ff7f0e;" x="213.521143" xlink:href="#m60c04a9369" y="254.100706"/>
     <use style="fill:#ff7f0e;stroke:#ff7f0e;" x="217.252805" xlink:href="#m60c04a9369" y="252.914824"/>
     <use style="fill:#ff7f0e;stroke:#ff7f0e;" x="220.984466" xlink:href="#m60c04a9369" y="249.357176"/>
     <use style="fill:#ff7f0e;stroke:#ff7f0e;" x="224.716128" xlink:href="#m60c04a9369" y="250.543059"/>
     <use style="fill:#ff7f0e;stroke:#ff7f0e;" x="228.447789" xlink:href="#m60c04a9369" y="250.543059"/>
     <use style="fill:#ff7f0e;stroke:#ff7f0e;" x="232.17945" xlink:href="#m60c04a9369" y="241.056"/>
     <use style="fill:#ff7f0e;stroke:#ff7f0e;" x="235.911112" xlink:href="#m60c04a9369" y="230.383059"/>
     <use style="fill:#ff7f0e;stroke:#ff7f0e;" x="239.642773" xlink:href="#m60c04a9369" y="249.357176"/>
     <use style="fill:#ff7f0e;stroke:#ff7f0e;" x="243.374435" xlink:href="#m60c04a9369" y="246.985412"/>
     <use style="fill:#ff7f0e;stroke:#ff7f0e;" x="247.106096" xlink:href="#m60c04a9369" y="243.427765"/>
     <use style="fill:#ff7f0e;stroke:#ff7f0e;" x="250.837758" xlink:href="#m60c04a9369" y="241.056"/>
     <use style="fill:#ff7f0e;stroke:#ff7f0e;" x="254.569419" xlink:href="#m60c04a9369" y="231.568941"/>
     <use style="fill:#ff7f0e;stroke:#ff7f0e;" x="258.301081" xlink:href="#m60c04a9369" y="237.498353"/>
     <use style="fill:#ff7f0e;stroke:#ff7f0e;" x="262.032742" xlink:href="#m60c04a9369" y="251.728941"/>
     <use style="fill:#ff7f0e;stroke:#ff7f0e;" x="265.764403" xlink:href="#m60c04a9369" y="244.613647"/>
     <use style="fill:#ff7f0e;stroke:#ff7f0e;" x="269.496065" xlink:href="#m60c04a9369" y="241.056"/>
     <use style="fill:#ff7f0e;stroke:#ff7f0e;" x="273.227726" xlink:href="#m60c04a9369" y="237.498353"/>
     <use style="fill:#ff7f0e;stroke:#ff7f0e;" x="276.959388" xlink:href="#m60c04a9369" y="218.524235"/>
     <use style="fill:#ff7f0e;stroke:#ff7f0e;" x="280.691049" xlink:href="#m60c04a9369" y="218.524235"/>
     <use style="fill:#ff7f0e;stroke:#ff7f0e;" x="284.422711" xlink:href="#m60c04a9369" y="193.620706"/>
     <use style="fill:#ff7f0e;stroke:#ff7f0e;" x="288.154372" xlink:href="#m60c04a9369" y="216.152471"/>
     <use style="fill:#ff7f0e;stroke:#ff7f0e;" x="291.886034" xlink:href="#m60c04a9369" y="217.338353"/>
     <use style="fill:#ff7f0e;stroke:#ff7f0e;" x="295.617695" xlink:href="#m60c04a9369" y="230.383059"/>
     <use style="fill:#ff7f0e;stroke:#ff7f0e;" x="299.349356" xlink:href="#m60c04a9369" y="179.390118"/>
     <use style="fill:#ff7f0e;stroke:#ff7f0e;" x="303.081018" xlink:href="#m60c04a9369" y="193.620706"/>
     <use style="fill:#ff7f0e;stroke:#ff7f0e;" x="306.812679" xlink:href="#m60c04a9369" y="207.851294"/>
     <use style="fill:#ff7f0e;stroke:#ff7f0e;" x="310.544341" xlink:href="#m60c04a9369" y="212.594824"/>
     <use style="fill:#ff7f0e;stroke:#ff7f0e;" x="314.276002" xlink:href="#m60c04a9369" y="198.364235"/>
     <use style="fill:#ff7f0e;stroke:#ff7f0e;" x="318.007664" xlink:href="#m60c04a9369" y="224.453647"/>
     <use style="fill:#ff7f0e;stroke:#ff7f0e;" x="321.739325" xlink:href="#m60c04a9369" y="238.684235"/>
     <use style="fill:#ff7f0e;stroke:#ff7f0e;" x="325.470986" xlink:href="#m60c04a9369" y="206.665412"/>
     <use style="fill:#ff7f0e;stroke:#ff7f0e;" x="329.202648" xlink:href="#m60c04a9369" y="209.037176"/>
     <use style="fill:#ff7f0e;stroke:#ff7f0e;" x="332.934309" xlink:href="#m60c04a9369" y="211.408941"/>
     <use style="fill:#ff7f0e;stroke:#ff7f0e;" x="336.665971" xlink:href="#m60c04a9369" y="203.107765"/>
     <use style="fill:#ff7f0e;stroke:#ff7f0e;" x="340.397632" xlink:href="#m60c04a9369" y="210.223059"/>
     <use style="fill:#ff7f0e;stroke:#ff7f0e;" x="344.129294" xlink:href="#m60c04a9369" y="211.408941"/>
     <use style="fill:#ff7f0e;stroke:#ff7f0e;" x="347.860955" xlink:href="#m60c04a9369" y="216.152471"/>
     <use style="fill:#ff7f0e;stroke:#ff7f0e;" x="351.592617" xlink:href="#m60c04a9369" y="167.531294"/>
     <use style="fill:#ff7f0e;stroke:#ff7f0e;" x="355.324278" xlink:href="#m60c04a9369" y="153.300706"/>
     <use style="fill:#ff7f0e;stroke:#ff7f0e;" x="359.055939" xlink:href="#m60c04a9369" y="139.070118"/>
     <use style="fill:#ff7f0e;stroke:#ff7f0e;" x="362.787601" xlink:href="#m60c04a9369" y="115.352471"/>
     <use style="fill:#ff7f0e;stroke:#ff7f0e;" x="366.519262" xlink:href="#m60c04a9369" y="19.296"/>
     <use style="fill:#ff7f0e;stroke:#ff7f0e;" x="370.250924" xlink:href="#m60c04a9369" y="75.032471"/>
     <use style="fill:#ff7f0e;stroke:#ff7f0e;" x="373.982585" xlink:href="#m60c04a9369" y="260.030118"/>
    </g>
   </g>
   <g id="patch_3">
    <path d="M 33.095313 273.312 
L 33.095313 7.2 
" style="fill:none;stroke:#000000;stroke-linecap:square;stroke-linejoin:miter;stroke-width:0.8;"/>
   </g>
   <g id="patch_4">
    <path d="M 390.215312 273.312 
L 390.215312 7.2 
" style="fill:none;stroke:#000000;stroke-linecap:square;stroke-linejoin:miter;stroke-width:0.8;"/>
   </g>
   <g id="patch_5">
    <path d="M 33.095312 273.312 
L 390.215313 273.312 
" style="fill:none;stroke:#000000;stroke-linecap:square;stroke-linejoin:miter;stroke-width:0.8;"/>
   </g>
   <g id="patch_6">
    <path d="M 33.095312 7.2 
L 390.215313 7.2 
" style="fill:none;stroke:#000000;stroke-linecap:square;stroke-linejoin:miter;stroke-width:0.8;"/>
   </g>
   <g id="legend_1">
    <g id="patch_7">
     <path d="M 40.095313 45.353125 
L 159.078125 45.353125 
Q 161.078125 45.353125 161.078125 43.353125 
L 161.078125 14.2 
Q 161.078125 12.2 159.078125 12.2 
L 40.095313 12.2 
Q 38.095313 12.2 38.095313 14.2 
L 38.095313 43.353125 
Q 38.095313 45.353125 40.095313 45.353125 
z
" style="fill:#ffffff;opacity:0.8;stroke:#cccccc;stroke-linejoin:miter;"/>
    </g>
    <g id="line2d_19">
     <path d="M 42.095313 20.820312 
L 62.095313 20.820312 
" style="fill:none;stroke:#1f77b4;stroke-linecap:square;stroke-width:1.5;"/>
    </g>
    <g id="line2d_20">
     <g>
      <use style="fill:#1f77b4;stroke:#1f77b4;" x="52.095313" xlink:href="#m22530d8c8d" y="20.820312"/>
     </g>
    </g>
    <g id="text_18">
     <!-- 発症日 (onset) -->
     <defs>
      <path d="M 73.734375 56.84375 
Q 80.609375 62.75 85.203125 68.609375 
L 91.109375 64.40625 
Q 84.46875 57.8125 78.71875 53.328125 
Q 85.9375 48.6875 95.40625 44.625 
L 90.625 38.375 
Q 81.734375 42.78125 73.53125 48.640625 
L 73.53125 43.3125 
L 64.109375 43.3125 
L 64.109375 29.984375 
L 89.890625 29.984375 
L 89.890625 23.78125 
L 64.109375 23.78125 
L 64.109375 5.609375 
Q 64.109375 2.484375 65.71875 2.046875 
Q 67.390625 1.46875 73.09375 1.46875 
Q 82.125 1.46875 83.59375 2.984375 
Q 85.0625 4.4375 85.5 11.96875 
Q 85.5 13.484375 85.59375 14.0625 
L 92.625 11.578125 
Q 92.1875 0.390625 89.703125 -2.203125 
Q 87.0625 -5.328125 72.609375 -5.328125 
Q 63.8125 -5.328125 60.9375 -4 
Q 57.03125 -2.34375 57.03125 3.328125 
L 57.03125 23.78125 
L 42.578125 23.78125 
Q 40.1875 0.53125 11.078125 -7.421875 
L 7.28125 -0.984375 
Q 33.25 5.421875 35.5 23.78125 
L 10.015625 23.78125 
L 10.015625 29.984375 
L 35.796875 29.984375 
L 35.796875 43.3125 
L 27.78125 43.3125 
L 27.78125 47.015625 
Q 19.734375 41.359375 9.078125 36.1875 
L 4.5 42.1875 
Q 16.3125 46.734375 25.984375 53.8125 
Q 19.828125 60.15625 13.484375 64.59375 
L 18.609375 69.140625 
Q 26.515625 62.59375 31.109375 58.015625 
Q 38.03125 64.0625 43.171875 72.125 
L 20.0625 72.125 
L 20.0625 78.21875 
L 54 78.21875 
Q 58.203125 71.34375 62.890625 66.3125 
Q 69.09375 71.625 74.03125 77.9375 
L 79.828125 73.734375 
Q 74.171875 67.625 67.09375 62.203125 
Q 70.40625 59.078125 73.734375 56.84375 
z
M 57.03125 43.3125 
L 42.78125 43.3125 
L 42.78125 29.984375 
L 57.03125 29.984375 
z
M 30.90625 49.3125 
L 72.515625 49.3125 
Q 58.6875 59.28125 50.59375 71 
Q 43.21875 58.890625 30.90625 49.3125 
z
" id="IPAexGothic-30330"/>
      <path d="M 63.71875 2.875 
L 95.015625 2.875 
L 95.015625 -3.515625 
L 23.96875 -3.515625 
L 23.96875 2.875 
L 37.3125 2.875 
L 37.3125 38.28125 
L 44 38.28125 
L 44 2.875 
L 56.84375 2.875 
L 56.84375 46.578125 
L 30.515625 46.578125 
L 30.515625 52.78125 
L 90.046875 52.78125 
L 90.046875 46.578125 
L 63.71875 46.578125 
L 63.71875 29.203125 
L 87.796875 29.203125 
L 87.796875 23.09375 
L 63.71875 23.09375 
z
M 60.203125 70.515625 
L 93.890625 70.515625 
L 93.890625 64.109375 
L 27.296875 64.109375 
L 27.296875 41.40625 
Q 27.296875 23.140625 24.21875 12.203125 
Q 21.390625 2.25 14.59375 -6.203125 
L 9.625 -1.171875 
Q 18.75 10.359375 20.125 27.484375 
Q 15.4375 24.125 7.078125 19.734375 
L 4 26.609375 
Q 12.3125 29.59375 20.40625 34.328125 
L 20.40625 37.890625 
L 20.40625 70.515625 
L 52.78125 70.515625 
L 52.78125 81.984375 
L 60.203125 81.984375 
z
M 12.015625 40.375 
Q 8.890625 50.78125 5.421875 57.90625 
L 11.375 60.59375 
Q 15.234375 53.859375 18.40625 43.703125 
z
" id="IPAexGothic-30151"/>
      <path d="M 81.734375 75 
L 81.734375 -4.5 
L 74.125 -4.5 
L 74.125 2 
L 25.734375 2 
L 25.734375 -4.5 
L 18.109375 -4.5 
L 18.109375 75 
z
M 25.734375 68.3125 
L 25.734375 42.671875 
L 74.125 42.671875 
L 74.125 68.3125 
z
M 25.734375 35.890625 
L 25.734375 8.6875 
L 74.125 8.6875 
L 74.125 35.890625 
z
" id="IPAexGothic-26085"/>
      <path id="IPAexGothic-32"/>
      <path d="M 30.125 -15.875 
L 25.828125 -18.21875 
Q 7.625 1.078125 7.625 29.296875 
Q 7.625 57.46875 25.828125 76.703125 
L 30.125 74.421875 
Q 15.71875 55.03125 15.71875 29.390625 
Q 15.71875 3.171875 30.125 -15.875 
z
" id="IPAexGothic-40"/>
      <path d="M 29.984375 52.203125 
Q 40.53125 52.203125 47.75 45.125 
Q 55.171875 37.703125 55.171875 25.59375 
Q 55.171875 13.875 47.90625 6.59375 
Q 40.765625 -0.484375 29.984375 -0.484375 
Q 19.1875 -0.484375 12.203125 6.5 
Q 4.890625 13.765625 4.890625 25.875 
Q 4.890625 37.703125 12.3125 45.125 
Q 19.390625 52.203125 29.984375 52.203125 
z
M 29.984375 45.609375 
Q 23.734375 45.609375 19.390625 41.109375 
Q 13.875 35.59375 13.875 25.78125 
Q 13.875 16.109375 19.28125 10.6875 
Q 23.6875 6.296875 29.984375 6.296875 
Q 36.421875 6.296875 40.765625 10.796875 
Q 46.1875 16.21875 46.1875 26.125 
Q 46.1875 35.453125 40.671875 41.109375 
Q 36.1875 45.609375 29.984375 45.609375 
z
" id="IPAexGothic-111"/>
      <path d="M 34.90625 39.796875 
Q 30.28125 45.796875 23.1875 45.796875 
Q 13.921875 45.796875 13.921875 38.671875 
Q 13.921875 33.640625 23.921875 30.375 
L 27.203125 29.296875 
Q 41.40625 24.65625 41.40625 13.96875 
Q 41.40625 6.78125 35.5 2.6875 
Q 30.8125 -0.484375 23.390625 -0.484375 
Q 11.96875 -0.484375 4 7.859375 
L 9.421875 12.796875 
Q 15.578125 6.203125 23.6875 6.203125 
Q 33.296875 6.203125 33.296875 13.671875 
Q 33.296875 19.34375 22.703125 23.09375 
L 19.28125 24.265625 
Q 5.90625 28.953125 5.90625 37.984375 
Q 5.90625 43.703125 9.8125 47.609375 
Q 14.5 52.296875 22.703125 52.296875 
Q 33.6875 52.296875 40.71875 44.671875 
z
" id="IPAexGothic-115"/>
      <path d="M 33.203125 3.765625 
Q 27.640625 -0.09375 21.828125 -0.09375 
Q 10.203125 -0.09375 10.203125 12.984375 
L 10.203125 44.671875 
L 3.421875 44.671875 
L 3.421875 50.78125 
L 10.203125 50.78125 
L 10.203125 61.96875 
L 18.40625 66.0625 
L 18.40625 50.78125 
L 32.234375 50.78125 
L 32.234375 44.671875 
L 18.40625 44.671875 
L 18.40625 14.15625 
Q 18.40625 6.5 23.640625 6.5 
Q 27.15625 6.5 30.328125 9.1875 
z
" id="IPAexGothic-116"/>
      <path d="M 7.28125 76.703125 
Q 25.59375 57.375 25.59375 29.296875 
Q 25.59375 1.171875 7.28125 -18.21875 
L 2.984375 -15.875 
Q 17.484375 3.375 17.484375 29.390625 
Q 17.484375 54.828125 2.984375 74.421875 
z
" id="IPAexGothic-41"/>
     </defs>
     <g transform="translate(70.095313 24.320312)scale(0.1 -0.1)">
      <use xlink:href="#IPAexGothic-30330"/>
      <use x="100" xlink:href="#IPAexGothic-30151"/>
      <use x="200" xlink:href="#IPAexGothic-26085"/>
      <use x="300" xlink:href="#IPAexGothic-32"/>
      <use x="327.001953" xlink:href="#IPAexGothic-40"/>
      <use x="360.302734" xlink:href="#IPAexGothic-111"/>
      <use x="420.703125" xlink:href="#IPAexGothic-110"/>
      <use x="481.103516" xlink:href="#IPAexGothic-115"/>
      <use x="527.294922" xlink:href="#IPAexGothic-101"/>
      <use x="584.179688" xlink:href="#IPAexGothic-116"/>
      <use x="618.798828" xlink:href="#IPAexGothic-41"/>
     </g>
    </g>
    <g id="line2d_21">
     <path d="M 42.095313 35.953125 
L 62.095313 35.953125 
" style="fill:none;stroke:#ff7f0e;stroke-linecap:square;stroke-width:1.5;"/>
    </g>
    <g id="line2d_22">
     <g>
      <use style="fill:#ff7f0e;stroke:#ff7f0e;" x="52.095313" xlink:href="#m60c04a9369" y="35.953125"/>
     </g>
    </g>
    <g id="text_19">
     <!-- 確定日 (confirmed) -->
     <defs>
      <path d="M 67.921875 50.296875 
Q 70.5625 55.28125 72.609375 61.8125 
L 79.296875 60.203125 
Q 76.171875 53.609375 74.21875 50.296875 
L 92 50.296875 
L 92 44.484375 
L 73.4375 44.484375 
L 73.4375 34.71875 
L 89.703125 34.71875 
L 89.703125 29.203125 
L 73.4375 29.203125 
L 73.4375 19.53125 
L 89.703125 19.53125 
L 89.703125 14.015625 
L 73.4375 14.015625 
L 73.4375 3.609375 
L 94.28125 3.609375 
L 94.28125 -2.203125 
L 54.109375 -2.203125 
L 54.109375 -6.984375 
L 47.609375 -6.984375 
L 47.609375 38.1875 
Q 43.0625 31.546875 38.8125 26.609375 
L 35.6875 32.8125 
Q 49.359375 49.953125 54.78125 64.796875 
L 45.515625 64.796875 
L 45.515625 53.515625 
L 39.203125 53.515625 
L 39.203125 70.609375 
L 56.78125 70.609375 
Q 58.59375 76.609375 60.109375 83.109375 
L 66.703125 81.890625 
Q 65.234375 75.53125 63.625 70.609375 
L 92.71875 70.609375 
L 92.71875 53.515625 
L 86.328125 53.515625 
L 86.328125 64.796875 
L 61.53125 64.796875 
Q 58.546875 56.984375 54.890625 50.296875 
z
M 67.140625 44.484375 
L 54.109375 44.484375 
L 54.109375 34.71875 
L 67.140625 34.71875 
z
M 67.140625 29.203125 
L 54.109375 29.203125 
L 54.109375 19.53125 
L 67.140625 19.53125 
z
M 67.140625 14.015625 
L 54.109375 14.015625 
L 54.109375 3.609375 
L 67.140625 3.609375 
z
M 18.109375 46 
L 35.546875 46 
L 35.546875 3.078125 
L 18.953125 3.078125 
L 18.953125 -5.125 
L 12.75 -5.125 
L 12.75 34.46875 
Q 10.15625 29.734375 6.15625 23.78125 
L 2.9375 29.984375 
Q 14.546875 47.078125 18.75 69 
L 6.34375 69 
L 6.34375 75.296875 
L 37.640625 75.296875 
L 37.640625 69 
L 25.25 69 
L 24.953125 68.015625 
Q 22.75 57.234375 18.109375 46 
z
M 18.953125 39.890625 
L 18.953125 9.1875 
L 29.34375 9.1875 
L 29.34375 39.890625 
z
" id="IPAexGothic-30906"/>
      <path d="M 53.609375 4.734375 
Q 61.421875 3.515625 73.578125 3.515625 
Q 81.109375 3.515625 94.578125 4.109375 
Q 93.171875 0.921875 92 -3.5625 
Q 81.78125 -3.90625 75.6875 -3.90625 
Q 55.765625 -3.90625 46.921875 -1.21875 
Q 35.296875 2.390625 27.34375 14.109375 
Q 22.515625 2.546875 12.59375 -7.171875 
L 7.421875 -1.171875 
Q 22.125 11.859375 26.3125 37.796875 
L 33.203125 35.984375 
Q 31.734375 27.4375 29.828125 21.1875 
Q 36.53125 10.59375 46.4375 6.5 
L 46.4375 46 
L 22.40625 46 
L 22.40625 52.390625 
L 77.484375 52.390625 
L 77.484375 46 
L 53.609375 46 
L 53.609375 31 
L 84.328125 31 
L 84.328125 24.515625 
L 53.609375 24.515625 
z
M 53.421875 69.1875 
L 89.84375 69.1875 
L 89.84375 49.46875 
L 82.421875 49.46875 
L 82.421875 62.890625 
L 17.53125 62.890625 
L 17.53125 49.46875 
L 10.109375 49.46875 
L 10.109375 69.1875 
L 45.90625 69.1875 
L 45.90625 83.015625 
L 53.421875 83.015625 
z
" id="IPAexGothic-23450"/>
      <path d="M 51.078125 12.25 
Q 44.28125 -0.484375 29.6875 -0.484375 
Q 19.1875 -0.484375 12.3125 6.390625 
Q 4.890625 13.921875 4.890625 25.984375 
Q 4.890625 37.9375 12.3125 45.515625 
Q 19.09375 52.296875 29.390625 52.296875 
Q 43.953125 52.296875 50.09375 39.703125 
L 43.171875 36.078125 
Q 38.8125 45.3125 29.6875 45.3125 
Q 23.6875 45.3125 19.28125 40.921875 
Q 13.765625 35.40625 13.765625 25.78125 
Q 13.765625 16.703125 19.09375 11.375 
Q 23.78125 6.6875 30.5625 6.6875 
Q 39.796875 6.6875 44.484375 15.875 
z
" id="IPAexGothic-99"/>
      <path d="M 38.375 72.21875 
L 34.8125 66.3125 
Q 31.109375 69.09375 27.203125 69.09375 
Q 18.5 69.09375 18.5 57.375 
L 18.5 50.78125 
L 32.078125 50.78125 
L 32.078125 44.671875 
L 18.5 44.671875 
L 18.5 0.984375 
L 10.015625 0.984375 
L 10.015625 44.671875 
L 1.90625 44.671875 
L 1.90625 50.78125 
L 10.015625 50.78125 
L 10.015625 57.171875 
Q 10.015625 65.4375 13.921875 70.0625 
Q 18.75 75.6875 26.703125 75.6875 
Q 33.0625 75.6875 38.375 72.21875 
z
" id="IPAexGothic-102"/>
      <path d="M 18.40625 61.375 
L 8.59375 61.375 
L 8.59375 71.390625 
L 18.40625 71.390625 
z
M 17.78125 0.984375 
L 9.1875 0.984375 
L 9.1875 50.78125 
L 17.78125 50.78125 
z
" id="IPAexGothic-105"/>
      <path d="M 78.46875 0.984375 
L 69.875 0.984375 
L 69.875 32.171875 
Q 69.875 44.828125 60.109375 44.828125 
Q 55.46875 44.828125 51.609375 40.53125 
Q 48.875 37.453125 47.796875 32.859375 
L 47.796875 0.984375 
L 39.203125 0.984375 
L 39.203125 32.28125 
Q 39.203125 44.828125 29.984375 44.828125 
Q 25.09375 44.828125 21.390625 40.53125 
Q 17.390625 36.03125 17.390625 31.890625 
L 17.390625 0.984375 
L 8.796875 0.984375 
L 8.796875 50.78125 
L 16.796875 50.78125 
L 16.796875 42.1875 
Q 21.734375 51.8125 31.6875 51.8125 
Q 42.578125 51.8125 46.1875 41.359375 
Q 51.609375 51.8125 61.765625 51.8125 
Q 69.96875 51.8125 74.5625 46 
Q 78.46875 41.21875 78.46875 32.375 
z
" id="IPAexGothic-109"/>
      <path d="M 52.984375 0.984375 
L 45.171875 0.984375 
L 45.171875 9.671875 
Q 38.140625 -0.484375 27.390625 -0.484375 
Q 18.453125 -0.484375 12.3125 5.8125 
Q 4.890625 13.1875 4.890625 25.984375 
Q 4.890625 38.53125 12.0625 45.90625 
Q 18.265625 52.203125 27.390625 52.203125 
Q 37.25 52.203125 44.484375 43.890625 
L 44.484375 74.90625 
L 52.984375 74.90625 
z
M 44.484375 20.359375 
L 44.484375 32.765625 
Q 44.484375 37.703125 38.375 42.28125 
Q 34.078125 45.40625 28.953125 45.40625 
Q 23.1875 45.40625 19.1875 41.40625 
Q 13.875 36.078125 13.875 26.21875 
Q 13.875 17.328125 18.265625 11.71875 
Q 22.515625 6.390625 28.859375 6.390625 
Q 36.28125 6.390625 41.5 13.671875 
Q 44.484375 17.71875 44.484375 20.359375 
z
" id="IPAexGothic-100"/>
     </defs>
     <g transform="translate(70.095313 39.453125)scale(0.1 -0.1)">
      <use xlink:href="#IPAexGothic-30906"/>
      <use x="100" xlink:href="#IPAexGothic-23450"/>
      <use x="200" xlink:href="#IPAexGothic-26085"/>
      <use x="300" xlink:href="#IPAexGothic-32"/>
      <use x="327.001953" xlink:href="#IPAexGothic-40"/>
      <use x="360.302734" xlink:href="#IPAexGothic-99"/>
      <use x="414.697266" xlink:href="#IPAexGothic-111"/>
      <use x="475.097656" xlink:href="#IPAexGothic-110"/>
      <use x="535.498047" xlink:href="#IPAexGothic-102"/>
      <use x="566.113281" xlink:href="#IPAexGothic-105"/>
      <use x="593.115234" xlink:href="#IPAexGothic-114"/>
      <use x="630.126953" xlink:href="#IPAexGothic-109"/>
      <use x="717.236328" xlink:href="#IPAexGothic-101"/>
      <use x="774.121094" xlink:href="#IPAexGothic-100"/>
      <use x="836.523438" xlink:href="#IPAexGothic-41"/>
     </g>
    </g>
   </g>
  </g>
 </g>
 <defs>
  <clipPath id="pe3d726a533">
   <rect height="266.112" width="357.12" x="33.095313" y="7.2"/>
  </clipPath>
 </defs>
</svg>
