<?xml version="1.0" encoding="utf-8" standalone="no"?>
<!DOCTYPE svg PUBLIC "-//W3C//DTD SVG 1.1//EN"
  "http://www.w3.org/Graphics/SVG/1.1/DTD/svg11.dtd">
<!-- Created with matplotlib (https://matplotlib.org/) -->
<svg height="320.239875pt" version="1.1" viewBox="0 0 412.784749 320.239875" width="412.784749pt" xmlns="http://www.w3.org/2000/svg" xmlns:xlink="http://www.w3.org/1999/xlink">
 <metadata>
  <rdf:RDF xmlns:cc="http://creativecommons.org/ns#" xmlns:dc="http://purl.org/dc/elements/1.1/" xmlns:rdf="http://www.w3.org/1999/02/22-rdf-syntax-ns#">
   <cc:Work>
    <dc:type rdf:resource="http://purl.org/dc/dcmitype/StillImage"/>
    <dc:date>2020-10-22T10:46:24.282072</dc:date>
    <dc:format>image/svg+xml</dc:format>
    <dc:creator>
     <cc:Agent>
      <dc:title>Matplotlib v3.3.2, https://matplotlib.org/</dc:title>
     </cc:Agent>
    </dc:creator>
   </cc:Work>
  </rdf:RDF>
 </metadata>
 <defs>
  <style type="text/css">*{stroke-linecap:butt;stroke-linejoin:round;}</style>
 </defs>
 <g id="figure_1">
  <g id="patch_1">
   <path d="M 0 320.239875 
L 412.784749 320.239875 
L 412.784749 0 
L 0 0 
z
" style="fill:#ffffff;"/>
  </g>
  <g id="axes_1">
   <g id="patch_2">
    <path d="M 40.1875 284.258625 
L 397.3075 284.258625 
L 397.3075 18.146625 
L 40.1875 18.146625 
z
" style="fill:#ffffff;"/>
   </g>
   <g id="matplotlib.axis_1">
    <g id="xtick_1">
     <g id="line2d_1">
      <defs>
       <path d="M 0 0 
L 0 3.5 
" id="mfe14089e7f" style="stroke:#000000;stroke-width:0.8;"/>
      </defs>
      <g>
       <use style="stroke:#000000;stroke-width:0.8;" x="56.420227" xlink:href="#mfe14089e7f" y="284.258625"/>
      </g>
     </g>
     <g id="text_1">
      <!-- Mar -->
      <g transform="translate(47.310852 298.74925)scale(0.1 -0.1)">
       <defs>
        <path d="M 80.421875 0.984375 
L 71.828125 0.984375 
L 71.828125 39.59375 
Q 71.828125 51.265625 72.40625 64.59375 
L 72.015625 64.59375 
Q 68.0625 53.265625 63.53125 41.796875 
L 47.90625 3.265625 
L 41.40625 3.265625 
L 25.640625 42.578125 
Q 20.75 54.78125 17.625 64.703125 
L 17.234375 64.703125 
Q 17.828125 48.921875 17.828125 39.890625 
L 17.828125 0.984375 
L 9.515625 0.984375 
L 9.515625 72.40625 
L 22.125 72.40625 
L 39.109375 30.375 
Q 42.140625 23 44.828125 14.15625 
L 45.125 14.15625 
Q 47.3125 22.125 50.53125 30.171875 
L 67.4375 72.40625 
L 80.421875 72.40625 
z
" id="IPAexGothic-77"/>
        <path d="M 49.3125 0.984375 
L 41.75 0.984375 
Q 39.984375 4.734375 39.546875 8.6875 
L 39.203125 8.6875 
Q 33.546875 -0.390625 22.3125 -0.390625 
Q 14.59375 -0.390625 9.71875 4.5 
Q 5.421875 8.796875 5.421875 14.984375 
Q 5.421875 30.421875 32.03125 31.203125 
L 38.71875 31.390625 
L 38.71875 33.984375 
Q 38.71875 39.203125 35.75 42.1875 
Q 32.625 45.3125 27.734375 45.3125 
Q 19.34375 45.3125 15.140625 37.15625 
L 7.71875 40.578125 
Q 14.65625 52 27.9375 52 
Q 37.109375 52 42.046875 46.875 
Q 46.625 42.28125 46.625 33.890625 
L 46.625 15.578125 
Q 46.625 6.25 49.3125 0.984375 
z
M 38.921875 25.390625 
L 33.453125 25.296875 
Q 14.109375 24.859375 14.109375 14.890625 
Q 14.109375 11.375 16.40625 9.078125 
Q 19.234375 6.296875 23.828125 6.296875 
Q 30.21875 6.296875 34.90625 10.984375 
Q 38.921875 15.140625 38.921875 21 
z
" id="IPAexGothic-97"/>
        <path d="M 36.078125 51.8125 
L 34.578125 43.265625 
Q 32.90625 43.609375 31.59375 43.609375 
Q 25.828125 43.609375 22.078125 38.1875 
Q 17.390625 31.34375 17.390625 26.171875 
L 17.390625 0.984375 
L 8.796875 0.984375 
L 8.796875 50.78125 
L 16.890625 50.78125 
L 16.5 35.984375 
L 16.703125 35.984375 
Q 22.21875 52.203125 32.765625 52.203125 
Q 34.46875 52.203125 36.078125 51.8125 
z
" id="IPAexGothic-114"/>
       </defs>
       <use xlink:href="#IPAexGothic-77"/>
       <use x="90.185547" xlink:href="#IPAexGothic-97"/>
       <use x="145.166016" xlink:href="#IPAexGothic-114"/>
      </g>
     </g>
    </g>
    <g id="xtick_2">
     <g id="line2d_2">
      <g>
       <use style="stroke:#000000;stroke-width:0.8;" x="99.430017" xlink:href="#mfe14089e7f" y="284.258625"/>
      </g>
     </g>
     <g id="text_2">
      <!-- Apr -->
      <g transform="translate(91.28783 298.74925)scale(0.1 -0.1)">
       <defs>
        <path d="M 63.375 0.984375 
L 53.8125 0.984375 
L 45.90625 22.015625 
L 17.1875 22.015625 
L 9.421875 0.984375 
L -0.09375 0.984375 
L 28.21875 72.90625 
L 35.296875 72.90625 
z
M 43.40625 29.109375 
L 36.1875 48.09375 
Q 33.203125 56.0625 31.6875 62.5 
L 31.390625 62.5 
Q 29.640625 55.671875 26.8125 48.09375 
L 19.734375 29.109375 
z
" id="IPAexGothic-65"/>
        <path d="M 16.796875 42 
Q 23.828125 52.203125 34.46875 52.203125 
Q 43.265625 52.203125 49.5625 45.90625 
Q 56.890625 38.578125 56.890625 25.6875 
Q 56.890625 13.140625 49.65625 5.8125 
Q 43.359375 -0.484375 34.375 -0.484375 
Q 24.515625 -0.484375 17.28125 7.765625 
L 17.28125 -19 
L 8.796875 -19 
L 8.796875 50.78125 
L 16.796875 50.78125 
z
M 17.28125 30.46875 
L 17.28125 20.171875 
Q 17.28125 14.015625 23.6875 9.375 
Q 27.984375 6.296875 32.90625 6.296875 
Q 38.578125 6.296875 42.578125 10.296875 
Q 47.90625 15.578125 47.90625 25.484375 
Q 47.90625 34.375 43.5 39.984375 
Q 39.109375 45.3125 32.8125 45.3125 
Q 25.875 45.3125 20.90625 38.8125 
Q 17.28125 34.125 17.28125 30.46875 
z
" id="IPAexGothic-112"/>
       </defs>
       <use xlink:href="#IPAexGothic-65"/>
       <use x="63.720703" xlink:href="#IPAexGothic-112"/>
       <use x="125.830078" xlink:href="#IPAexGothic-114"/>
      </g>
     </g>
    </g>
    <g id="xtick_3">
     <g id="line2d_3">
      <g>
       <use style="stroke:#000000;stroke-width:0.8;" x="141.052395" xlink:href="#mfe14089e7f" y="284.258625"/>
      </g>
     </g>
     <g id="text_3">
      <!-- May -->
      <g transform="translate(131.332864 298.74925)scale(0.1 -0.1)">
       <defs>
        <path d="M 48.78125 50.78125 
L 24.609375 -7.625 
Q 19.96875 -18.796875 8.59375 -18.796875 
L 7.46875 -18.796875 
L 5.375 -10.984375 
L 6.984375 -10.984375 
Q 15.140625 -10.984375 17.96875 -3.71875 
L 21.1875 4.296875 
L 0.59375 50.78125 
L 10.296875 50.78125 
L 21.296875 22.796875 
Q 23.875 16.015625 25.09375 12.203125 
L 25.390625 12.203125 
Q 27.34375 18.265625 29.109375 22.796875 
L 39.5 50.78125 
z
" id="IPAexGothic-121"/>
       </defs>
       <use xlink:href="#IPAexGothic-77"/>
       <use x="90.185547" xlink:href="#IPAexGothic-97"/>
       <use x="145.166016" xlink:href="#IPAexGothic-121"/>
      </g>
     </g>
    </g>
    <g id="xtick_4">
     <g id="line2d_4">
      <g>
       <use style="stroke:#000000;stroke-width:0.8;" x="184.062185" xlink:href="#mfe14089e7f" y="284.258625"/>
      </g>
     </g>
     <g id="text_4">
      <!-- Jun -->
      <g transform="translate(176.122342 298.74925)scale(0.1 -0.1)">
       <defs>
        <path d="M 28.421875 72.40625 
L 28.421875 19.28125 
Q 28.421875 -0.484375 11.921875 -0.484375 
Q 4.734375 -0.484375 -1.953125 3.265625 
L 1.3125 10.0625 
Q 5.90625 6.984375 10.84375 6.984375 
Q 19.53125 6.984375 19.53125 18.796875 
L 19.53125 72.40625 
z
" id="IPAexGothic-74"/>
        <path d="M 51.3125 0.984375 
L 43.3125 0.984375 
L 43.3125 10.0625 
Q 35.9375 0 25.390625 0 
Q 16.75 0 11.921875 5.859375 
Q 8.109375 10.59375 8.109375 19.390625 
L 8.109375 50.78125 
L 16.703125 50.78125 
L 16.703125 19.671875 
Q 16.703125 7.28125 27.09375 7.28125 
Q 37.59375 7.28125 42.71875 20.171875 
L 42.71875 50.78125 
L 51.3125 50.78125 
z
" id="IPAexGothic-117"/>
        <path d="M 52 0.984375 
L 43.40625 0.984375 
L 43.40625 31.890625 
Q 43.40625 44.578125 32.90625 44.578125 
Q 22.3125 44.578125 17.390625 31.890625 
L 17.390625 0.984375 
L 8.796875 0.984375 
L 8.796875 50.78125 
L 16.796875 50.78125 
L 16.796875 41.796875 
Q 23.828125 51.8125 34.71875 51.8125 
Q 52 51.8125 52 32.375 
z
" id="IPAexGothic-110"/>
       </defs>
       <use xlink:href="#IPAexGothic-74"/>
       <use x="37.988281" xlink:href="#IPAexGothic-117"/>
       <use x="98.388672" xlink:href="#IPAexGothic-110"/>
      </g>
     </g>
    </g>
    <g id="xtick_5">
     <g id="line2d_5">
      <g>
       <use style="stroke:#000000;stroke-width:0.8;" x="225.684563" xlink:href="#mfe14089e7f" y="284.258625"/>
      </g>
     </g>
     <g id="text_5">
      <!-- Jul -->
      <g transform="translate(219.415032 298.74925)scale(0.1 -0.1)">
       <defs>
        <path d="M 17.671875 0.984375 
L 9.078125 0.984375 
L 9.078125 74.90625 
L 17.671875 74.90625 
z
" id="IPAexGothic-108"/>
       </defs>
       <use xlink:href="#IPAexGothic-74"/>
       <use x="37.988281" xlink:href="#IPAexGothic-117"/>
       <use x="98.388672" xlink:href="#IPAexGothic-108"/>
      </g>
     </g>
    </g>
    <g id="xtick_6">
     <g id="line2d_6">
      <g>
       <use style="stroke:#000000;stroke-width:0.8;" x="268.694353" xlink:href="#mfe14089e7f" y="284.258625"/>
      </g>
     </g>
     <g id="text_6">
      <!-- Aug -->
      <g transform="translate(259.712322 298.691437)scale(0.1 -0.1)">
       <defs>
        <path d="M 20.796875 17.96875 
Q 15.71875 17.53125 15.71875 14.0625 
Q 15.71875 9.578125 27.546875 8.984375 
L 33.296875 8.6875 
Q 51.609375 7.765625 51.609375 -4.59375 
Q 51.609375 -10.9375 45.703125 -14.984375 
Q 39.359375 -19.578125 28.03125 -19.578125 
Q 17.78125 -19.578125 11.53125 -16.0625 
Q 5.515625 -12.640625 5.515625 -6.6875 
Q 5.515625 1.3125 16.796875 3.859375 
L 16.796875 4.203125 
Q 7.90625 6.453125 7.90625 12.15625 
Q 7.90625 17.4375 15.53125 20.265625 
Q 7.125 24.609375 7.125 34.078125 
Q 7.125 41.40625 12.015625 46.296875 
Q 17.625 51.90625 27.15625 51.90625 
Q 33.203125 51.90625 37.84375 49.265625 
Q 41.40625 53.953125 50.921875 54.109375 
L 50.921875 47.078125 
Q 44.34375 46.921875 42.234375 45.90625 
Q 47.40625 40.828125 47.40625 33.890625 
Q 47.40625 27 42.71875 22.265625 
Q 37.5 17.09375 28.328125 17.09375 
Q 24.421875 17.09375 20.796875 17.96875 
z
M 27.09375 45.609375 
Q 22.015625 45.609375 18.703125 42.28125 
Q 15.4375 39.015625 15.4375 34.078125 
Q 15.4375 29.25 18.5 26.3125 
Q 21.828125 23 27.4375 23 
Q 32.71875 23 35.890625 26.21875 
Q 39.109375 29.390625 39.109375 34.421875 
Q 39.109375 39.015625 35.890625 42.1875 
Q 32.515625 45.609375 27.09375 45.609375 
z
M 27.390625 2.484375 
Q 14.109375 2.484375 14.109375 -5.71875 
Q 14.109375 -13.671875 28.125 -13.671875 
Q 37.15625 -13.671875 41.21875 -9.46875 
Q 43.3125 -7.515625 43.3125 -4.890625 
Q 43.3125 2.484375 27.390625 2.484375 
z
" id="IPAexGothic-103"/>
       </defs>
       <use xlink:href="#IPAexGothic-65"/>
       <use x="63.720703" xlink:href="#IPAexGothic-117"/>
       <use x="124.121094" xlink:href="#IPAexGothic-103"/>
      </g>
     </g>
    </g>
    <g id="xtick_7">
     <g id="line2d_7">
      <g>
       <use style="stroke:#000000;stroke-width:0.8;" x="311.704143" xlink:href="#mfe14089e7f" y="284.258625"/>
      </g>
     </g>
     <g id="text_7">
      <!-- Sep -->
      <g transform="translate(302.829143 298.74925)scale(0.1 -0.1)">
       <defs>
        <path d="M 45.609375 56.890625 
Q 40.046875 66.546875 28.953125 66.546875 
Q 22.703125 66.546875 18.953125 62.640625 
Q 16.0625 59.421875 16.0625 55.21875 
Q 16.0625 50.59375 19.78125 47.609375 
Q 22.5625 45.515625 31 42 
L 34.375 40.578125 
Q 45.703125 36.03125 49.859375 30.515625 
Q 53.46875 25.6875 53.46875 19.671875 
Q 53.46875 10.0625 46.390625 4.5 
Q 39.984375 -0.484375 30.171875 -0.484375 
Q 13.765625 -0.484375 4.890625 11.96875 
L 11.765625 17.1875 
Q 18.796875 7.171875 30.28125 7.171875 
Q 35.75 7.171875 39.59375 9.765625 
Q 44.390625 13.234375 44.390625 19 
Q 44.390625 23.484375 40.875 27 
Q 37.109375 30.609375 27 34.46875 
L 24.078125 35.59375 
Q 7.078125 42.09375 7.078125 54.390625 
Q 7.078125 62.59375 12.59375 67.921875 
Q 18.796875 73.828125 29.109375 73.828125 
Q 44.390625 73.828125 52.484375 61.8125 
z
" id="IPAexGothic-83"/>
        <path d="M 13.484375 24.90625 
Q 13.921875 16.265625 18.890625 11.28125 
Q 23.96875 6.203125 31.203125 6.203125 
Q 40.71875 6.203125 46.296875 15.09375 
L 51.90625 11.375 
Q 44.828125 -0.484375 30.171875 -0.484375 
Q 19.09375 -0.484375 11.96875 6.59375 
Q 4.78125 13.8125 4.78125 25.640625 
Q 4.78125 38.1875 12.3125 45.703125 
Q 19 52.390625 29 52.390625 
Q 38.421875 52.390625 44.78125 46.1875 
Q 51.90625 38.96875 51.90625 26.90625 
L 51.90625 24.90625 
z
M 43.0625 31.203125 
Q 42.328125 37.984375 38.28125 41.890625 
Q 34.28125 45.90625 28.8125 45.90625 
Q 22.46875 45.90625 17.96875 40.484375 
Q 14.890625 36.8125 13.96875 31.203125 
z
" id="IPAexGothic-101"/>
       </defs>
       <use xlink:href="#IPAexGothic-83"/>
       <use x="58.496094" xlink:href="#IPAexGothic-101"/>
       <use x="115.380859" xlink:href="#IPAexGothic-112"/>
      </g>
     </g>
    </g>
    <g id="xtick_8">
     <g id="line2d_8">
      <g>
       <use style="stroke:#000000;stroke-width:0.8;" x="353.326521" xlink:href="#mfe14089e7f" y="284.258625"/>
      </g>
     </g>
     <g id="text_8">
      <!-- Oct -->
      <g transform="translate(344.891365 298.74925)scale(0.1 -0.1)">
       <defs>
        <path d="M 39.703125 73.828125 
Q 54 73.828125 63.1875 64.65625 
Q 73.578125 54.25 73.578125 36.421875 
Q 73.578125 19.046875 62.984375 8.59375 
Q 53.90625 -0.484375 39.703125 -0.484375 
Q 25.59375 -0.484375 16.5 8.59375 
Q 5.90625 19.046875 5.90625 36.8125 
Q 5.90625 54.203125 16.3125 64.65625 
Q 25.484375 73.828125 39.703125 73.828125 
z
M 39.703125 66.65625 
Q 30.515625 66.65625 23.921875 60.0625 
Q 15.53125 51.609375 15.53125 36.71875 
Q 15.53125 21.734375 23.921875 13.484375 
Q 30.421875 6.984375 39.703125 6.984375 
Q 48.921875 6.984375 55.5625 13.484375 
Q 63.96875 21.875 63.96875 37.109375 
Q 63.96875 51.515625 55.46875 60.0625 
Q 49.03125 66.65625 39.703125 66.65625 
z
" id="IPAexGothic-79"/>
        <path d="M 51.078125 12.25 
Q 44.28125 -0.484375 29.6875 -0.484375 
Q 19.1875 -0.484375 12.3125 6.390625 
Q 4.890625 13.921875 4.890625 25.984375 
Q 4.890625 37.9375 12.3125 45.515625 
Q 19.09375 52.296875 29.390625 52.296875 
Q 43.953125 52.296875 50.09375 39.703125 
L 43.171875 36.078125 
Q 38.8125 45.3125 29.6875 45.3125 
Q 23.6875 45.3125 19.28125 40.921875 
Q 13.765625 35.40625 13.765625 25.78125 
Q 13.765625 16.703125 19.09375 11.375 
Q 23.78125 6.6875 30.5625 6.6875 
Q 39.796875 6.6875 44.484375 15.875 
z
" id="IPAexGothic-99"/>
        <path d="M 33.203125 3.765625 
Q 27.640625 -0.09375 21.828125 -0.09375 
Q 10.203125 -0.09375 10.203125 12.984375 
L 10.203125 44.671875 
L 3.421875 44.671875 
L 3.421875 50.78125 
L 10.203125 50.78125 
L 10.203125 61.96875 
L 18.40625 66.0625 
L 18.40625 50.78125 
L 32.234375 50.78125 
L 32.234375 44.671875 
L 18.40625 44.671875 
L 18.40625 14.15625 
Q 18.40625 6.5 23.640625 6.5 
Q 27.15625 6.5 30.328125 9.1875 
z
" id="IPAexGothic-116"/>
       </defs>
       <use xlink:href="#IPAexGothic-79"/>
       <use x="79.6875" xlink:href="#IPAexGothic-99"/>
       <use x="134.082031" xlink:href="#IPAexGothic-116"/>
      </g>
     </g>
    </g>
    <g id="xtick_9">
     <g id="line2d_9">
      <g>
       <use style="stroke:#000000;stroke-width:0.8;" x="396.336311" xlink:href="#mfe14089e7f" y="284.258625"/>
      </g>
     </g>
     <g id="text_9">
      <!-- Nov -->
      <g transform="translate(387.087874 298.74925)scale(0.1 -0.1)">
       <defs>
        <path d="M 66.3125 0.984375 
L 58.296875 0.984375 
L 26.515625 49.21875 
Q 22.90625 54.6875 17.828125 64.015625 
L 17.4375 64.015625 
L 17.625 59.328125 
Q 18.109375 43.796875 18.109375 38.578125 
L 18.109375 0.984375 
L 9.515625 0.984375 
L 9.515625 72.40625 
L 21.34375 72.40625 
L 48.640625 30.90625 
Q 53.953125 22.609375 58.015625 15.09375 
L 58.40625 15.09375 
Q 57.71875 29.640625 57.71875 38.578125 
L 57.71875 72.40625 
L 66.3125 72.40625 
z
" id="IPAexGothic-78"/>
        <path d="M 29.984375 52.203125 
Q 40.53125 52.203125 47.75 45.125 
Q 55.171875 37.703125 55.171875 25.59375 
Q 55.171875 13.875 47.90625 6.59375 
Q 40.765625 -0.484375 29.984375 -0.484375 
Q 19.1875 -0.484375 12.203125 6.5 
Q 4.890625 13.765625 4.890625 25.875 
Q 4.890625 37.703125 12.3125 45.125 
Q 19.390625 52.203125 29.984375 52.203125 
z
M 29.984375 45.609375 
Q 23.734375 45.609375 19.390625 41.109375 
Q 13.875 35.59375 13.875 25.78125 
Q 13.875 16.109375 19.28125 10.6875 
Q 23.6875 6.296875 29.984375 6.296875 
Q 36.421875 6.296875 40.765625 10.796875 
Q 46.1875 16.21875 46.1875 26.125 
Q 46.1875 35.453125 40.671875 41.109375 
Q 36.1875 45.609375 29.984375 45.609375 
z
" id="IPAexGothic-111"/>
        <path d="M 48.484375 50.78125 
L 27.296875 0.09375 
L 21.484375 0.09375 
L 0.390625 50.78125 
L 9.8125 50.78125 
L 20.90625 21.6875 
L 23.78125 13.1875 
L 24.515625 10.984375 
L 24.8125 10.984375 
Q 25.640625 13.8125 28.46875 21.6875 
L 39.3125 50.78125 
z
" id="IPAexGothic-118"/>
       </defs>
       <use xlink:href="#IPAexGothic-78"/>
       <use x="75.976562" xlink:href="#IPAexGothic-111"/>
       <use x="136.376953" xlink:href="#IPAexGothic-118"/>
      </g>
     </g>
    </g>
    <g id="text_10">
     <!-- 2020 -->
     <g transform="translate(372.11375 311.139875)scale(0.1 -0.1)">
      <defs>
       <path d="M 57.171875 0.984375 
L 6.984375 0.984375 
L 6.984375 9.28125 
Q 12.890625 23.046875 29.59375 34.421875 
L 32.375 36.28125 
Q 40.921875 42.140625 43.609375 45.40625 
Q 46.6875 49.265625 46.6875 53.8125 
Q 46.6875 58.9375 43.0625 62.546875 
Q 39.0625 66.546875 32.5625 66.546875 
Q 19.53125 66.546875 15.484375 52 
L 7.765625 54.78125 
Q 13.328125 73.828125 33.0625 73.828125 
Q 43.84375 73.828125 50.25 67.4375 
Q 55.859375 61.671875 55.859375 53.515625 
Q 55.859375 47.46875 52.25 42.53125 
Q 48.921875 37.75 36.96875 30.28125 
L 34.859375 29 
Q 19.625 19.578125 15.28125 8.890625 
L 57.171875 8.890625 
z
" id="IPAexGothic-50"/>
       <path d="M 31.84375 73.828125 
Q 45.015625 73.828125 52.09375 61.625 
Q 57.71875 51.953125 57.71875 36.625 
Q 57.71875 21.4375 52.09375 11.578125 
Q 45.125 -0.484375 31.5 -0.484375 
Q 17.921875 -0.484375 10.9375 11.578125 
Q 5.328125 21.4375 5.328125 36.71875 
Q 5.328125 58.015625 15.625 67.71875 
Q 22.171875 73.828125 31.84375 73.828125 
z
M 31.5 66.65625 
Q 23.6875 66.65625 19.1875 58.734375 
Q 14.59375 50.734375 14.59375 36.625 
Q 14.59375 22.75 19.09375 14.796875 
Q 23.640625 6.984375 31.5 6.984375 
Q 40.921875 6.984375 45.453125 18.015625 
Q 48.4375 25.34375 48.4375 37.109375 
Q 48.4375 50.875 43.84375 58.734375 
Q 39.203125 66.65625 31.5 66.65625 
z
" id="IPAexGothic-48"/>
      </defs>
      <use xlink:href="#IPAexGothic-50"/>
      <use x="62.988281" xlink:href="#IPAexGothic-48"/>
      <use x="125.976562" xlink:href="#IPAexGothic-50"/>
      <use x="188.964844" xlink:href="#IPAexGothic-48"/>
     </g>
    </g>
   </g>
   <g id="matplotlib.axis_2">
    <g id="ytick_1">
     <g id="line2d_10">
      <defs>
       <path d="M 0 0 
L -3.5 0 
" id="m953eec3352" style="stroke:#000000;stroke-width:0.8;"/>
      </defs>
      <g>
       <use style="stroke:#000000;stroke-width:0.8;" x="40.1875" xlink:href="#m953eec3352" y="243.53403"/>
      </g>
     </g>
     <g id="text_11">
      <!-- 35 -->
      <g transform="translate(20.590625 247.279342)scale(0.1 -0.1)">
       <defs>
        <path d="M 37.203125 37.796875 
Q 54.78125 34.625 54.78125 19.96875 
Q 54.78125 11.1875 48.875 5.5625 
Q 42.328125 -0.484375 30.375 -0.484375 
Q 12.453125 -0.484375 4.5 13.765625 
L 11.8125 17.671875 
Q 17.328125 6.890625 30.28125 6.890625 
Q 37.890625 6.890625 42.09375 10.796875 
Q 46.09375 14.5 46.09375 20.171875 
Q 46.09375 26.859375 40.09375 30.90625 
Q 34.625 34.578125 25.6875 34.578125 
L 21.296875 34.578125 
L 21.296875 41.703125 
L 25.875 41.703125 
Q 34.859375 41.703125 39.59375 45.125 
Q 44.671875 48.734375 44.671875 54.828125 
Q 44.671875 61.46875 38.96875 64.65625 
Q 35.296875 66.84375 30.171875 66.84375 
Q 19.34375 66.84375 14.109375 55.90625 
L 6.78125 59.421875 
Q 14.015625 73.828125 30.28125 73.828125 
Q 40.578125 73.828125 46.96875 68.65625 
Q 53.375 63.578125 53.375 55.21875 
Q 53.375 47.3125 47.171875 42.28125 
Q 43.171875 39.0625 37.203125 38.1875 
z
" id="IPAexGothic-51"/>
        <path d="M 18.40625 40.671875 
Q 25.53125 46.296875 33.9375 46.296875 
Q 44 46.296875 50.640625 39.5 
Q 56.84375 33.015625 56.84375 23.390625 
Q 56.84375 14.65625 51.515625 8.015625 
Q 44.828125 -0.484375 31.734375 -0.484375 
Q 14.984375 -0.484375 7.328125 12.25 
L 14.65625 16.0625 
Q 20.453125 6.78125 31.453125 6.78125 
Q 38.53125 6.78125 43.265625 11.1875 
Q 48.140625 15.828125 48.140625 23.484375 
Q 48.140625 30.71875 43.84375 35.015625 
Q 39.359375 39.5 32.125 39.5 
Q 21.96875 39.5 16.75 31.6875 
L 9.234375 32.671875 
L 13.8125 72.40625 
L 53.21875 72.40625 
L 53.21875 64.890625 
L 20.953125 64.890625 
L 17.71875 40.671875 
z
" id="IPAexGothic-53"/>
       </defs>
       <use xlink:href="#IPAexGothic-51"/>
       <use x="62.988281" xlink:href="#IPAexGothic-53"/>
      </g>
     </g>
    </g>
    <g id="ytick_2">
     <g id="line2d_11">
      <g>
       <use style="stroke:#000000;stroke-width:0.8;" x="40.1875" xlink:href="#m953eec3352" y="202.181615"/>
      </g>
     </g>
     <g id="text_12">
      <!-- 40 -->
      <g transform="translate(20.590625 205.926927)scale(0.1 -0.1)">
       <defs>
        <path d="M 59.578125 18.109375 
L 47.796875 18.109375 
L 47.796875 0.984375 
L 39.796875 0.984375 
L 39.796875 18.109375 
L 3.078125 18.109375 
L 3.078125 26.125 
L 38.375 73.09375 
L 47.796875 73.09375 
L 47.796875 25.53125 
L 59.578125 25.53125 
z
M 40.28125 64.203125 
L 39.984375 64.203125 
Q 35.59375 57.125 31.296875 51.3125 
L 11.859375 25.53125 
L 39.796875 25.53125 
L 39.796875 49.125 
Q 39.796875 54.390625 40.28125 64.203125 
z
" id="IPAexGothic-52"/>
       </defs>
       <use xlink:href="#IPAexGothic-52"/>
       <use x="62.988281" xlink:href="#IPAexGothic-48"/>
      </g>
     </g>
    </g>
    <g id="ytick_3">
     <g id="line2d_12">
      <g>
       <use style="stroke:#000000;stroke-width:0.8;" x="40.1875" xlink:href="#m953eec3352" y="160.829199"/>
      </g>
     </g>
     <g id="text_13">
      <!-- 45 -->
      <g transform="translate(20.590625 164.574512)scale(0.1 -0.1)">
       <use xlink:href="#IPAexGothic-52"/>
       <use x="62.988281" xlink:href="#IPAexGothic-53"/>
      </g>
     </g>
    </g>
    <g id="ytick_4">
     <g id="line2d_13">
      <g>
       <use style="stroke:#000000;stroke-width:0.8;" x="40.1875" xlink:href="#m953eec3352" y="119.476784"/>
      </g>
     </g>
     <g id="text_14">
      <!-- 50 -->
      <g transform="translate(20.590625 123.222097)scale(0.1 -0.1)">
       <use xlink:href="#IPAexGothic-53"/>
       <use x="62.988281" xlink:href="#IPAexGothic-48"/>
      </g>
     </g>
    </g>
    <g id="ytick_5">
     <g id="line2d_14">
      <g>
       <use style="stroke:#000000;stroke-width:0.8;" x="40.1875" xlink:href="#m953eec3352" y="78.124369"/>
      </g>
     </g>
     <g id="text_15">
      <!-- 55 -->
      <g transform="translate(20.590625 81.869681)scale(0.1 -0.1)">
       <use xlink:href="#IPAexGothic-53"/>
       <use x="62.988281" xlink:href="#IPAexGothic-53"/>
      </g>
     </g>
    </g>
    <g id="ytick_6">
     <g id="line2d_15">
      <g>
       <use style="stroke:#000000;stroke-width:0.8;" x="40.1875" xlink:href="#m953eec3352" y="36.771954"/>
      </g>
     </g>
     <g id="text_16">
      <!-- 60 -->
      <g transform="translate(20.590625 40.517266)scale(0.1 -0.1)">
       <defs>
        <path d="M 16.5 36.375 
Q 23.578125 46.578125 34.90625 46.578125 
Q 45.40625 46.578125 51.8125 39.265625 
Q 57.421875 32.90625 57.421875 23.78125 
Q 57.421875 13.8125 51.125 6.78125 
Q 44.578125 -0.484375 34.03125 -0.484375 
Q 21.484375 -0.484375 14.40625 9.078125 
Q 7.515625 18.40625 7.515625 34.8125 
Q 7.515625 53.515625 15.828125 64.203125 
Q 23.34375 73.828125 35.5 73.828125 
Q 49.859375 73.828125 56.390625 62.890625 
L 49.21875 58.984375 
Q 45.21875 66.65625 35.9375 66.65625 
Q 17.484375 66.65625 16.109375 36.375 
z
M 33.453125 39.796875 
Q 26.3125 39.796875 21.625 34.46875 
Q 17.4375 29.6875 17.4375 24.078125 
Q 17.4375 18.0625 21.140625 13.1875 
Q 26.125 6.6875 33.734375 6.6875 
Q 41.703125 6.6875 45.953125 13.1875 
Q 48.828125 17.625 48.828125 23.484375 
Q 48.828125 30.375 45.015625 34.8125 
Q 40.625 39.796875 33.453125 39.796875 
z
" id="IPAexGothic-54"/>
       </defs>
       <use xlink:href="#IPAexGothic-54"/>
       <use x="62.988281" xlink:href="#IPAexGothic-48"/>
      </g>
     </g>
    </g>
    <g id="text_17">
     <!-- 平均年代 -->
     <g transform="translate(14.690625 171.202625)rotate(-90)scale(0.1 -0.1)">
      <defs>
       <path d="M 53.46875 69.1875 
L 53.46875 30.328125 
L 95.0625 30.328125 
L 95.0625 23.640625 
L 53.46875 23.640625 
L 53.46875 -6.984375 
L 45.84375 -6.984375 
L 45.84375 23.640625 
L 5.03125 23.640625 
L 5.03125 30.328125 
L 45.84375 30.328125 
L 45.84375 69.1875 
L 10.015625 69.1875 
L 10.015625 75.875 
L 90.046875 75.875 
L 90.046875 69.1875 
z
M 27 35.59375 
Q 23.25 48.34375 16.890625 60.296875 
L 24.125 63.09375 
Q 29.296875 53.46875 34.71875 38.625 
z
M 64.59375 37.890625 
Q 70.453125 49.03125 75.203125 64.5 
L 82.90625 61.625 
Q 77.875 46.96875 71.390625 34.8125 
z
" id="IPAexGothic-24179"/>
       <path d="M 18.84375 59.28125 
L 18.84375 80.375 
L 25.921875 80.375 
L 25.921875 59.28125 
L 37.015625 59.28125 
L 37.015625 52.6875 
L 25.921875 52.6875 
L 25.921875 20.703125 
Q 32.46875 23.640625 38.8125 26.90625 
L 40.09375 20.515625 
Q 24.3125 12.109375 8.734375 6.203125 
L 5.21875 13.09375 
Q 12.546875 15.234375 18.84375 17.78125 
L 18.84375 52.6875 
L 6.453125 52.6875 
L 6.453125 59.28125 
z
M 54.296875 66.3125 
L 91.3125 66.3125 
Q 91.15625 17.671875 87.796875 2.875 
Q 85.84375 -5.71875 75.59375 -5.71875 
Q 68.265625 -5.71875 60.296875 -4.78125 
L 58.890625 2.875 
Q 66.265625 1.375 73.921875 1.375 
Q 79.046875 1.375 80.421875 4.78125 
Q 83.734375 14.359375 83.890625 59.8125 
L 51.8125 59.8125 
Q 47.078125 48.734375 38.53125 38.625 
L 33.59375 44.1875 
Q 46 59.1875 50.921875 82.234375 
L 58.109375 80.421875 
Q 56.546875 72.859375 54.296875 66.3125 
z
M 46.484375 44.484375 
L 73.09375 44.484375 
L 73.09375 37.984375 
L 46.484375 37.984375 
z
M 39.984375 16.3125 
Q 58.546875 20.90625 75.59375 28.078125 
L 76.421875 21.6875 
Q 59.859375 13.921875 43.21875 9.1875 
z
" id="IPAexGothic-22343"/>
       <path d="M 27.6875 64.984375 
Q 22.5625 53.46875 13.671875 43.796875 
L 8.25 49.46875 
Q 20.65625 61.578125 25.484375 82.171875 
L 32.953125 80.5625 
Q 31.15625 74.359375 30.171875 71.296875 
L 88.96875 71.296875 
L 88.96875 64.984375 
L 58.6875 64.984375 
L 58.6875 48.875 
L 84.90625 48.875 
L 84.90625 42.578125 
L 58.6875 42.578125 
L 58.6875 23.578125 
L 94.96875 23.578125 
L 94.96875 17.09375 
L 58.6875 17.09375 
L 58.6875 -7.03125 
L 51.171875 -7.03125 
L 51.171875 17.09375 
L 6.984375 17.09375 
L 6.984375 23.578125 
L 23.96875 23.578125 
L 23.96875 48.875 
L 51.171875 48.875 
L 51.171875 64.984375 
z
M 51.171875 42.578125 
L 31.15625 42.578125 
L 31.15625 23.578125 
L 51.171875 23.578125 
z
" id="IPAexGothic-24180"/>
       <path d="M 24.8125 57.625 
L 24.8125 -6.984375 
L 17.484375 -6.984375 
L 17.484375 43.015625 
Q 14.015625 36.8125 8.296875 29.203125 
L 4.203125 35.296875 
Q 18.5625 54 24.90625 81 
L 32.328125 79.203125 
Q 28.859375 67.046875 24.8125 57.625 
z
M 51.21875 45.703125 
L 28.515625 43.890625 
L 28.078125 50.78125 
L 50.296875 52.59375 
Q 48.921875 63.875 48.1875 80.515625 
L 55.8125 80.515625 
Q 56.59375 63.09375 57.8125 53.21875 
L 91.703125 55.90625 
L 92.1875 48.875 
L 58.6875 46.296875 
Q 58.734375 46.1875 58.796875 45.90625 
Q 58.84375 45.5625 58.890625 45.40625 
Q 62.359375 21.96875 72.40625 10.40625 
Q 77.984375 3.90625 81 3.90625 
Q 84.234375 3.90625 87.203125 20.515625 
L 93.890625 15.1875 
Q 89.546875 -5.609375 82.515625 -5.609375 
Q 78.765625 -5.609375 72.015625 0.09375 
Q 56.109375 13.28125 51.3125 44.828125 
Q 51.21875 45.125 51.21875 45.703125 
z
M 78.328125 57.8125 
Q 73.53125 65.921875 66.703125 73.1875 
L 72.40625 77.6875 
Q 78.90625 71.1875 84.515625 63.09375 
z
" id="IPAexGothic-20195"/>
      </defs>
      <use xlink:href="#IPAexGothic-24179"/>
      <use x="100" xlink:href="#IPAexGothic-22343"/>
      <use x="200" xlink:href="#IPAexGothic-24180"/>
      <use x="300" xlink:href="#IPAexGothic-20195"/>
     </g>
    </g>
   </g>
   <g id="line2d_16">
    <path clip-path="url(#p7122da7ccd)" d="M 56.420227 78.124369 
L 57.80764 97.210099 
L 59.195052 40.907195 
L 60.582465 75.827013 
L 61.969878 91.908507 
L 63.35729 64.832521 
L 64.744703 54.183497 
L 66.132115 62.477509 
L 67.519528 52.676729 
L 68.906941 75.655568 
L 70.294353 92.633988 
L 71.681766 46.17023 
L 73.069178 82.25961 
L 74.456591 78.124369 
L 75.844003 42.285609 
L 77.231416 30.242625 
L 78.618829 96.920921 
L 80.006241 126.208573 
L 81.393654 112.28506 
L 82.781066 61.583403 
L 84.168479 66.58416 
L 85.555892 108.898259 
L 86.943304 84.653698 
L 88.330717 115.341543 
L 89.718129 101.356063 
L 91.105542 121.164638 
L 92.492955 137.010208 
L 93.880367 118.865665 
L 95.26778 170.19201 
L 96.655192 179.0813 
L 98.042605 166.460167 
L 99.430017 174.362717 
L 100.81743 149.460838 
L 102.204843 165.651638 
L 103.592255 150.013952 
L 104.979668 150.211687 
L 106.36708 141.743469 
L 107.754493 145.442254 
L 109.141906 156.302198 
L 110.529318 135.008515 
L 111.916731 138.462484 
L 113.304143 129.351095 
L 114.691556 103.878943 
L 116.078969 132.730763 
L 117.466381 145.272437 
L 118.853794 115.66517 
L 120.241206 136.12719 
L 121.628619 118.147599 
L 123.016031 92.571915 
L 124.403444 115.104172 
L 125.790857 86.232686 
L 127.178269 118.142835 
L 128.565682 110.434118 
L 129.953094 94.301353 
L 131.340507 121.586601 
L 132.72792 81.488633 
L 134.115332 92.176161 
L 135.502745 109.078224 
L 136.890157 61.298214 
L 138.27757 97.240108 
L 139.664983 71.655835 
L 141.052395 49.595525 
L 142.439808 105.045069 
L 143.82722 111.835577 
L 145.214633 52.381806 
L 146.602045 115.521336 
L 147.989458 36.771954 
L 149.376871 44.648604 
L 150.764283 130.358999 
L 152.151696 110.908266 
L 153.539108 99.109177 
L 154.926521 68.394389 
L 156.313934 52.418814 
L 157.701346 91.183026 
L 159.088759 82.19182 
L 160.476171 79.526146 
L 161.863584 162.84639 
L 163.250997 64.340231 
L 164.638409 113.569296 
L 166.025822 122.233612 
L 167.413234 127.747267 
L 168.800647 125.384272 
L 170.188059 86.680041 
L 171.575472 110.487129 
L 172.962885 106.643276 
L 174.350297 135.381559 
L 175.73771 173.234924 
L 177.125122 100.680232 
L 178.512535 196.787821 
L 179.899948 128.943 
L 181.28736 152.952549 
L 182.674773 220.376677 
L 184.062185 186.10012 
L 185.449598 93.011238 
L 186.83701 140.865964 
L 188.224423 134.792494 
L 189.611836 177.010579 
L 190.999248 209.603843 
L 192.386661 122.233612 
L 193.774073 203.835711 
L 195.161486 207.224592 
L 196.548899 151.888137 
L 197.936311 136.393681 
L 199.323724 226.368876 
L 200.711136 164.964441 
L 202.098549 243.53403 
L 203.485962 129.814888 
L 204.873374 219.411788 
L 206.260787 167.358528 
L 207.648199 187.549222 
L 209.035612 219.703824 
L 210.423024 247.472355 
L 211.810437 272.162625 
L 213.19785 224.737477 
L 214.585262 194.724622 
L 215.972675 235.180007 
L 217.360087 210.664161 
L 218.7475 245.257047 
L 220.134913 200.093109 
L 221.522325 221.051163 
L 222.909738 187.019062 
L 224.29715 235.742995 
L 225.684563 244.76843 
L 227.071976 217.662262 
L 228.459388 238.846307 
L 229.846801 255.029682 
L 231.234213 245.239284 
L 232.621626 240.761801 
L 234.009038 244.756269 
L 235.396451 259.265927 
L 236.783864 265.001131 
L 238.171276 240.337708 
L 239.558689 240.269365 
L 240.946101 245.736229 
L 242.333514 235.357887 
L 243.720927 240.544699 
L 245.108339 236.455688 
L 246.495752 242.291386 
L 247.883164 232.184944 
L 249.270577 229.091341 
L 250.65799 247.506751 
L 252.045402 209.748227 
L 253.432815 232.717768 
L 254.820227 235.121651 
L 256.20764 233.323557 
L 257.595052 251.847701 
L 258.982465 235.78674 
L 260.369878 226.646656 
L 261.75729 200.87181 
L 263.144703 214.380194 
L 264.532115 219.292959 
L 265.919528 228.479609 
L 267.306941 231.070975 
L 270.081766 223.902075 
L 271.469178 212.373523 
L 272.856591 209.68805 
L 274.244003 204.399063 
L 275.631416 205.883531 
L 277.018829 198.074377 
L 278.406241 217.428408 
L 279.793654 198.741679 
L 281.181066 173.491594 
L 282.568479 183.509733 
L 283.955892 179.938735 
L 285.343304 164.880618 
L 286.730717 182.097892 
L 288.118129 176.171968 
L 289.505542 185.215309 
L 290.892955 172.949735 
L 292.280367 173.761808 
L 293.66778 161.196124 
L 295.055192 169.546736 
L 296.442605 181.2612 
L 297.830017 185.876948 
L 299.21743 164.254843 
L 300.604843 164.752578 
L 301.992255 179.693723 
L 303.379668 173.596996 
L 304.76708 185.36117 
L 306.154493 182.003915 
L 307.541906 176.802686 
L 308.929318 156.537132 
L 310.316731 177.064559 
L 311.704143 162.178381 
L 313.091556 164.899033 
L 314.478969 158.326983 
L 315.866381 164.881886 
L 317.253794 169.234772 
L 318.641206 153.581869 
L 320.028619 152.99643 
L 322.803444 195.083812 
L 324.190857 173.53492 
L 325.578269 189.017984 
L 326.965682 183.529651 
L 328.353094 179.208051 
L 329.740507 176.568873 
L 331.12792 150.509264 
L 332.515332 162.037829 
L 333.902745 193.463214 
L 335.290157 167.248527 
L 336.67757 174.613338 
L 338.064983 196.514025 
L 339.452395 180.723832 
L 340.839808 179.085115 
L 342.22722 172.259948 
L 343.614633 172.369408 
L 345.002045 182.172381 
L 346.389458 171.59309 
L 347.776871 189.5091 
L 349.164283 164.22088 
L 350.551696 170.813686 
L 351.939108 166.847222 
L 353.326521 177.704634 
L 354.713934 176.520234 
L 356.101346 183.568443 
L 357.488759 188.816766 
L 358.876171 190.78528 
L 360.263584 164.697354 
L 361.650997 167.170784 
L 363.038409 170.665454 
L 364.425822 205.019525 
L 365.813234 185.72725 
L 367.200647 193.613096 
L 368.588059 211.409013 
L 369.975472 192.131824 
L 371.362885 170.384738 
L 372.750297 183.295288 
L 374.13771 191.394028 
L 375.525122 186.872423 
L 376.912535 152.188396 
L 378.299948 187.986009 
L 379.68736 179.86916 
L 381.074773 152.558716 
L 381.074773 152.558716 
" style="fill:none;stroke:#1f77b4;stroke-linecap:square;stroke-width:1.5;"/>
    <defs>
     <path d="M 0 3 
C 0.795609 3 1.55874 2.683901 2.12132 2.12132 
C 2.683901 1.55874 3 0.795609 3 0 
C 3 -0.795609 2.683901 -1.55874 2.12132 -2.12132 
C 1.55874 -2.683901 0.795609 -3 0 -3 
C -0.795609 -3 -1.55874 -2.683901 -2.12132 -2.12132 
C -2.683901 -1.55874 -3 -0.795609 -3 0 
C -3 0.795609 -2.683901 1.55874 -2.12132 2.12132 
C -1.55874 2.683901 -0.795609 3 0 3 
z
" id="m57d14eb122" style="stroke:#1f77b4;"/>
    </defs>
    <g clip-path="url(#p7122da7ccd)">
     <use style="fill:#1f77b4;stroke:#1f77b4;" x="56.420227" xlink:href="#m57d14eb122" y="78.124369"/>
     <use style="fill:#1f77b4;stroke:#1f77b4;" x="57.80764" xlink:href="#m57d14eb122" y="97.210099"/>
     <use style="fill:#1f77b4;stroke:#1f77b4;" x="59.195052" xlink:href="#m57d14eb122" y="40.907195"/>
     <use style="fill:#1f77b4;stroke:#1f77b4;" x="60.582465" xlink:href="#m57d14eb122" y="75.827013"/>
     <use style="fill:#1f77b4;stroke:#1f77b4;" x="61.969878" xlink:href="#m57d14eb122" y="91.908507"/>
     <use style="fill:#1f77b4;stroke:#1f77b4;" x="63.35729" xlink:href="#m57d14eb122" y="64.832521"/>
     <use style="fill:#1f77b4;stroke:#1f77b4;" x="64.744703" xlink:href="#m57d14eb122" y="54.183497"/>
     <use style="fill:#1f77b4;stroke:#1f77b4;" x="66.132115" xlink:href="#m57d14eb122" y="62.477509"/>
     <use style="fill:#1f77b4;stroke:#1f77b4;" x="67.519528" xlink:href="#m57d14eb122" y="52.676729"/>
     <use style="fill:#1f77b4;stroke:#1f77b4;" x="68.906941" xlink:href="#m57d14eb122" y="75.655568"/>
     <use style="fill:#1f77b4;stroke:#1f77b4;" x="70.294353" xlink:href="#m57d14eb122" y="92.633988"/>
     <use style="fill:#1f77b4;stroke:#1f77b4;" x="71.681766" xlink:href="#m57d14eb122" y="46.17023"/>
     <use style="fill:#1f77b4;stroke:#1f77b4;" x="73.069178" xlink:href="#m57d14eb122" y="82.25961"/>
     <use style="fill:#1f77b4;stroke:#1f77b4;" x="74.456591" xlink:href="#m57d14eb122" y="78.124369"/>
     <use style="fill:#1f77b4;stroke:#1f77b4;" x="75.844003" xlink:href="#m57d14eb122" y="42.285609"/>
     <use style="fill:#1f77b4;stroke:#1f77b4;" x="77.231416" xlink:href="#m57d14eb122" y="30.242625"/>
     <use style="fill:#1f77b4;stroke:#1f77b4;" x="78.618829" xlink:href="#m57d14eb122" y="96.920921"/>
     <use style="fill:#1f77b4;stroke:#1f77b4;" x="80.006241" xlink:href="#m57d14eb122" y="126.208573"/>
     <use style="fill:#1f77b4;stroke:#1f77b4;" x="81.393654" xlink:href="#m57d14eb122" y="112.28506"/>
     <use style="fill:#1f77b4;stroke:#1f77b4;" x="82.781066" xlink:href="#m57d14eb122" y="61.583403"/>
     <use style="fill:#1f77b4;stroke:#1f77b4;" x="84.168479" xlink:href="#m57d14eb122" y="66.58416"/>
     <use style="fill:#1f77b4;stroke:#1f77b4;" x="85.555892" xlink:href="#m57d14eb122" y="108.898259"/>
     <use style="fill:#1f77b4;stroke:#1f77b4;" x="86.943304" xlink:href="#m57d14eb122" y="84.653698"/>
     <use style="fill:#1f77b4;stroke:#1f77b4;" x="88.330717" xlink:href="#m57d14eb122" y="115.341543"/>
     <use style="fill:#1f77b4;stroke:#1f77b4;" x="89.718129" xlink:href="#m57d14eb122" y="101.356063"/>
     <use style="fill:#1f77b4;stroke:#1f77b4;" x="91.105542" xlink:href="#m57d14eb122" y="121.164638"/>
     <use style="fill:#1f77b4;stroke:#1f77b4;" x="92.492955" xlink:href="#m57d14eb122" y="137.010208"/>
     <use style="fill:#1f77b4;stroke:#1f77b4;" x="93.880367" xlink:href="#m57d14eb122" y="118.865665"/>
     <use style="fill:#1f77b4;stroke:#1f77b4;" x="95.26778" xlink:href="#m57d14eb122" y="170.19201"/>
     <use style="fill:#1f77b4;stroke:#1f77b4;" x="96.655192" xlink:href="#m57d14eb122" y="179.0813"/>
     <use style="fill:#1f77b4;stroke:#1f77b4;" x="98.042605" xlink:href="#m57d14eb122" y="166.460167"/>
     <use style="fill:#1f77b4;stroke:#1f77b4;" x="99.430017" xlink:href="#m57d14eb122" y="174.362717"/>
     <use style="fill:#1f77b4;stroke:#1f77b4;" x="100.81743" xlink:href="#m57d14eb122" y="149.460838"/>
     <use style="fill:#1f77b4;stroke:#1f77b4;" x="102.204843" xlink:href="#m57d14eb122" y="165.651638"/>
     <use style="fill:#1f77b4;stroke:#1f77b4;" x="103.592255" xlink:href="#m57d14eb122" y="150.013952"/>
     <use style="fill:#1f77b4;stroke:#1f77b4;" x="104.979668" xlink:href="#m57d14eb122" y="150.211687"/>
     <use style="fill:#1f77b4;stroke:#1f77b4;" x="106.36708" xlink:href="#m57d14eb122" y="141.743469"/>
     <use style="fill:#1f77b4;stroke:#1f77b4;" x="107.754493" xlink:href="#m57d14eb122" y="145.442254"/>
     <use style="fill:#1f77b4;stroke:#1f77b4;" x="109.141906" xlink:href="#m57d14eb122" y="156.302198"/>
     <use style="fill:#1f77b4;stroke:#1f77b4;" x="110.529318" xlink:href="#m57d14eb122" y="135.008515"/>
     <use style="fill:#1f77b4;stroke:#1f77b4;" x="111.916731" xlink:href="#m57d14eb122" y="138.462484"/>
     <use style="fill:#1f77b4;stroke:#1f77b4;" x="113.304143" xlink:href="#m57d14eb122" y="129.351095"/>
     <use style="fill:#1f77b4;stroke:#1f77b4;" x="114.691556" xlink:href="#m57d14eb122" y="103.878943"/>
     <use style="fill:#1f77b4;stroke:#1f77b4;" x="116.078969" xlink:href="#m57d14eb122" y="132.730763"/>
     <use style="fill:#1f77b4;stroke:#1f77b4;" x="117.466381" xlink:href="#m57d14eb122" y="145.272437"/>
     <use style="fill:#1f77b4;stroke:#1f77b4;" x="118.853794" xlink:href="#m57d14eb122" y="115.66517"/>
     <use style="fill:#1f77b4;stroke:#1f77b4;" x="120.241206" xlink:href="#m57d14eb122" y="136.12719"/>
     <use style="fill:#1f77b4;stroke:#1f77b4;" x="121.628619" xlink:href="#m57d14eb122" y="118.147599"/>
     <use style="fill:#1f77b4;stroke:#1f77b4;" x="123.016031" xlink:href="#m57d14eb122" y="92.571915"/>
     <use style="fill:#1f77b4;stroke:#1f77b4;" x="124.403444" xlink:href="#m57d14eb122" y="115.104172"/>
     <use style="fill:#1f77b4;stroke:#1f77b4;" x="125.790857" xlink:href="#m57d14eb122" y="86.232686"/>
     <use style="fill:#1f77b4;stroke:#1f77b4;" x="127.178269" xlink:href="#m57d14eb122" y="118.142835"/>
     <use style="fill:#1f77b4;stroke:#1f77b4;" x="128.565682" xlink:href="#m57d14eb122" y="110.434118"/>
     <use style="fill:#1f77b4;stroke:#1f77b4;" x="129.953094" xlink:href="#m57d14eb122" y="94.301353"/>
     <use style="fill:#1f77b4;stroke:#1f77b4;" x="131.340507" xlink:href="#m57d14eb122" y="121.586601"/>
     <use style="fill:#1f77b4;stroke:#1f77b4;" x="132.72792" xlink:href="#m57d14eb122" y="81.488633"/>
     <use style="fill:#1f77b4;stroke:#1f77b4;" x="134.115332" xlink:href="#m57d14eb122" y="92.176161"/>
     <use style="fill:#1f77b4;stroke:#1f77b4;" x="135.502745" xlink:href="#m57d14eb122" y="109.078224"/>
     <use style="fill:#1f77b4;stroke:#1f77b4;" x="136.890157" xlink:href="#m57d14eb122" y="61.298214"/>
     <use style="fill:#1f77b4;stroke:#1f77b4;" x="138.27757" xlink:href="#m57d14eb122" y="97.240108"/>
     <use style="fill:#1f77b4;stroke:#1f77b4;" x="139.664983" xlink:href="#m57d14eb122" y="71.655835"/>
     <use style="fill:#1f77b4;stroke:#1f77b4;" x="141.052395" xlink:href="#m57d14eb122" y="49.595525"/>
     <use style="fill:#1f77b4;stroke:#1f77b4;" x="142.439808" xlink:href="#m57d14eb122" y="105.045069"/>
     <use style="fill:#1f77b4;stroke:#1f77b4;" x="143.82722" xlink:href="#m57d14eb122" y="111.835577"/>
     <use style="fill:#1f77b4;stroke:#1f77b4;" x="145.214633" xlink:href="#m57d14eb122" y="52.381806"/>
     <use style="fill:#1f77b4;stroke:#1f77b4;" x="146.602045" xlink:href="#m57d14eb122" y="115.521336"/>
     <use style="fill:#1f77b4;stroke:#1f77b4;" x="147.989458" xlink:href="#m57d14eb122" y="36.771954"/>
     <use style="fill:#1f77b4;stroke:#1f77b4;" x="149.376871" xlink:href="#m57d14eb122" y="44.648604"/>
     <use style="fill:#1f77b4;stroke:#1f77b4;" x="150.764283" xlink:href="#m57d14eb122" y="130.358999"/>
     <use style="fill:#1f77b4;stroke:#1f77b4;" x="152.151696" xlink:href="#m57d14eb122" y="110.908266"/>
     <use style="fill:#1f77b4;stroke:#1f77b4;" x="153.539108" xlink:href="#m57d14eb122" y="99.109177"/>
     <use style="fill:#1f77b4;stroke:#1f77b4;" x="154.926521" xlink:href="#m57d14eb122" y="68.394389"/>
     <use style="fill:#1f77b4;stroke:#1f77b4;" x="156.313934" xlink:href="#m57d14eb122" y="52.418814"/>
     <use style="fill:#1f77b4;stroke:#1f77b4;" x="157.701346" xlink:href="#m57d14eb122" y="91.183026"/>
     <use style="fill:#1f77b4;stroke:#1f77b4;" x="159.088759" xlink:href="#m57d14eb122" y="82.19182"/>
     <use style="fill:#1f77b4;stroke:#1f77b4;" x="160.476171" xlink:href="#m57d14eb122" y="79.526146"/>
     <use style="fill:#1f77b4;stroke:#1f77b4;" x="161.863584" xlink:href="#m57d14eb122" y="162.84639"/>
     <use style="fill:#1f77b4;stroke:#1f77b4;" x="163.250997" xlink:href="#m57d14eb122" y="64.340231"/>
     <use style="fill:#1f77b4;stroke:#1f77b4;" x="164.638409" xlink:href="#m57d14eb122" y="113.569296"/>
     <use style="fill:#1f77b4;stroke:#1f77b4;" x="166.025822" xlink:href="#m57d14eb122" y="122.233612"/>
     <use style="fill:#1f77b4;stroke:#1f77b4;" x="167.413234" xlink:href="#m57d14eb122" y="127.747267"/>
     <use style="fill:#1f77b4;stroke:#1f77b4;" x="168.800647" xlink:href="#m57d14eb122" y="125.384272"/>
     <use style="fill:#1f77b4;stroke:#1f77b4;" x="170.188059" xlink:href="#m57d14eb122" y="86.680041"/>
     <use style="fill:#1f77b4;stroke:#1f77b4;" x="171.575472" xlink:href="#m57d14eb122" y="110.487129"/>
     <use style="fill:#1f77b4;stroke:#1f77b4;" x="172.962885" xlink:href="#m57d14eb122" y="106.643276"/>
     <use style="fill:#1f77b4;stroke:#1f77b4;" x="174.350297" xlink:href="#m57d14eb122" y="135.381559"/>
     <use style="fill:#1f77b4;stroke:#1f77b4;" x="175.73771" xlink:href="#m57d14eb122" y="173.234924"/>
     <use style="fill:#1f77b4;stroke:#1f77b4;" x="177.125122" xlink:href="#m57d14eb122" y="100.680232"/>
     <use style="fill:#1f77b4;stroke:#1f77b4;" x="178.512535" xlink:href="#m57d14eb122" y="196.787821"/>
     <use style="fill:#1f77b4;stroke:#1f77b4;" x="179.899948" xlink:href="#m57d14eb122" y="128.943"/>
     <use style="fill:#1f77b4;stroke:#1f77b4;" x="181.28736" xlink:href="#m57d14eb122" y="152.952549"/>
     <use style="fill:#1f77b4;stroke:#1f77b4;" x="182.674773" xlink:href="#m57d14eb122" y="220.376677"/>
     <use style="fill:#1f77b4;stroke:#1f77b4;" x="184.062185" xlink:href="#m57d14eb122" y="186.10012"/>
     <use style="fill:#1f77b4;stroke:#1f77b4;" x="185.449598" xlink:href="#m57d14eb122" y="93.011238"/>
     <use style="fill:#1f77b4;stroke:#1f77b4;" x="186.83701" xlink:href="#m57d14eb122" y="140.865964"/>
     <use style="fill:#1f77b4;stroke:#1f77b4;" x="188.224423" xlink:href="#m57d14eb122" y="134.792494"/>
     <use style="fill:#1f77b4;stroke:#1f77b4;" x="189.611836" xlink:href="#m57d14eb122" y="177.010579"/>
     <use style="fill:#1f77b4;stroke:#1f77b4;" x="190.999248" xlink:href="#m57d14eb122" y="209.603843"/>
     <use style="fill:#1f77b4;stroke:#1f77b4;" x="192.386661" xlink:href="#m57d14eb122" y="122.233612"/>
     <use style="fill:#1f77b4;stroke:#1f77b4;" x="193.774073" xlink:href="#m57d14eb122" y="203.835711"/>
     <use style="fill:#1f77b4;stroke:#1f77b4;" x="195.161486" xlink:href="#m57d14eb122" y="207.224592"/>
     <use style="fill:#1f77b4;stroke:#1f77b4;" x="196.548899" xlink:href="#m57d14eb122" y="151.888137"/>
     <use style="fill:#1f77b4;stroke:#1f77b4;" x="197.936311" xlink:href="#m57d14eb122" y="136.393681"/>
     <use style="fill:#1f77b4;stroke:#1f77b4;" x="199.323724" xlink:href="#m57d14eb122" y="226.368876"/>
     <use style="fill:#1f77b4;stroke:#1f77b4;" x="200.711136" xlink:href="#m57d14eb122" y="164.964441"/>
     <use style="fill:#1f77b4;stroke:#1f77b4;" x="202.098549" xlink:href="#m57d14eb122" y="243.53403"/>
     <use style="fill:#1f77b4;stroke:#1f77b4;" x="203.485962" xlink:href="#m57d14eb122" y="129.814888"/>
     <use style="fill:#1f77b4;stroke:#1f77b4;" x="204.873374" xlink:href="#m57d14eb122" y="219.411788"/>
     <use style="fill:#1f77b4;stroke:#1f77b4;" x="206.260787" xlink:href="#m57d14eb122" y="167.358528"/>
     <use style="fill:#1f77b4;stroke:#1f77b4;" x="207.648199" xlink:href="#m57d14eb122" y="187.549222"/>
     <use style="fill:#1f77b4;stroke:#1f77b4;" x="209.035612" xlink:href="#m57d14eb122" y="219.703824"/>
     <use style="fill:#1f77b4;stroke:#1f77b4;" x="210.423024" xlink:href="#m57d14eb122" y="247.472355"/>
     <use style="fill:#1f77b4;stroke:#1f77b4;" x="211.810437" xlink:href="#m57d14eb122" y="272.162625"/>
     <use style="fill:#1f77b4;stroke:#1f77b4;" x="213.19785" xlink:href="#m57d14eb122" y="224.737477"/>
     <use style="fill:#1f77b4;stroke:#1f77b4;" x="214.585262" xlink:href="#m57d14eb122" y="194.724622"/>
     <use style="fill:#1f77b4;stroke:#1f77b4;" x="215.972675" xlink:href="#m57d14eb122" y="235.180007"/>
     <use style="fill:#1f77b4;stroke:#1f77b4;" x="217.360087" xlink:href="#m57d14eb122" y="210.664161"/>
     <use style="fill:#1f77b4;stroke:#1f77b4;" x="218.7475" xlink:href="#m57d14eb122" y="245.257047"/>
     <use style="fill:#1f77b4;stroke:#1f77b4;" x="220.134913" xlink:href="#m57d14eb122" y="200.093109"/>
     <use style="fill:#1f77b4;stroke:#1f77b4;" x="221.522325" xlink:href="#m57d14eb122" y="221.051163"/>
     <use style="fill:#1f77b4;stroke:#1f77b4;" x="222.909738" xlink:href="#m57d14eb122" y="187.019062"/>
     <use style="fill:#1f77b4;stroke:#1f77b4;" x="224.29715" xlink:href="#m57d14eb122" y="235.742995"/>
     <use style="fill:#1f77b4;stroke:#1f77b4;" x="225.684563" xlink:href="#m57d14eb122" y="244.76843"/>
     <use style="fill:#1f77b4;stroke:#1f77b4;" x="227.071976" xlink:href="#m57d14eb122" y="217.662262"/>
     <use style="fill:#1f77b4;stroke:#1f77b4;" x="228.459388" xlink:href="#m57d14eb122" y="238.846307"/>
     <use style="fill:#1f77b4;stroke:#1f77b4;" x="229.846801" xlink:href="#m57d14eb122" y="255.029682"/>
     <use style="fill:#1f77b4;stroke:#1f77b4;" x="231.234213" xlink:href="#m57d14eb122" y="245.239284"/>
     <use style="fill:#1f77b4;stroke:#1f77b4;" x="232.621626" xlink:href="#m57d14eb122" y="240.761801"/>
     <use style="fill:#1f77b4;stroke:#1f77b4;" x="234.009038" xlink:href="#m57d14eb122" y="244.756269"/>
     <use style="fill:#1f77b4;stroke:#1f77b4;" x="235.396451" xlink:href="#m57d14eb122" y="259.265927"/>
     <use style="fill:#1f77b4;stroke:#1f77b4;" x="236.783864" xlink:href="#m57d14eb122" y="265.001131"/>
     <use style="fill:#1f77b4;stroke:#1f77b4;" x="238.171276" xlink:href="#m57d14eb122" y="240.337708"/>
     <use style="fill:#1f77b4;stroke:#1f77b4;" x="239.558689" xlink:href="#m57d14eb122" y="240.269365"/>
     <use style="fill:#1f77b4;stroke:#1f77b4;" x="240.946101" xlink:href="#m57d14eb122" y="245.736229"/>
     <use style="fill:#1f77b4;stroke:#1f77b4;" x="242.333514" xlink:href="#m57d14eb122" y="235.357887"/>
     <use style="fill:#1f77b4;stroke:#1f77b4;" x="243.720927" xlink:href="#m57d14eb122" y="240.544699"/>
     <use style="fill:#1f77b4;stroke:#1f77b4;" x="245.108339" xlink:href="#m57d14eb122" y="236.455688"/>
     <use style="fill:#1f77b4;stroke:#1f77b4;" x="246.495752" xlink:href="#m57d14eb122" y="242.291386"/>
     <use style="fill:#1f77b4;stroke:#1f77b4;" x="247.883164" xlink:href="#m57d14eb122" y="232.184944"/>
     <use style="fill:#1f77b4;stroke:#1f77b4;" x="249.270577" xlink:href="#m57d14eb122" y="229.091341"/>
     <use style="fill:#1f77b4;stroke:#1f77b4;" x="250.65799" xlink:href="#m57d14eb122" y="247.506751"/>
     <use style="fill:#1f77b4;stroke:#1f77b4;" x="252.045402" xlink:href="#m57d14eb122" y="209.748227"/>
     <use style="fill:#1f77b4;stroke:#1f77b4;" x="253.432815" xlink:href="#m57d14eb122" y="232.717768"/>
     <use style="fill:#1f77b4;stroke:#1f77b4;" x="254.820227" xlink:href="#m57d14eb122" y="235.121651"/>
     <use style="fill:#1f77b4;stroke:#1f77b4;" x="256.20764" xlink:href="#m57d14eb122" y="233.323557"/>
     <use style="fill:#1f77b4;stroke:#1f77b4;" x="257.595052" xlink:href="#m57d14eb122" y="251.847701"/>
     <use style="fill:#1f77b4;stroke:#1f77b4;" x="258.982465" xlink:href="#m57d14eb122" y="235.78674"/>
     <use style="fill:#1f77b4;stroke:#1f77b4;" x="260.369878" xlink:href="#m57d14eb122" y="226.646656"/>
     <use style="fill:#1f77b4;stroke:#1f77b4;" x="261.75729" xlink:href="#m57d14eb122" y="200.87181"/>
     <use style="fill:#1f77b4;stroke:#1f77b4;" x="263.144703" xlink:href="#m57d14eb122" y="214.380194"/>
     <use style="fill:#1f77b4;stroke:#1f77b4;" x="264.532115" xlink:href="#m57d14eb122" y="219.292959"/>
     <use style="fill:#1f77b4;stroke:#1f77b4;" x="265.919528" xlink:href="#m57d14eb122" y="228.479609"/>
     <use style="fill:#1f77b4;stroke:#1f77b4;" x="267.306941" xlink:href="#m57d14eb122" y="231.070975"/>
     <use style="fill:#1f77b4;stroke:#1f77b4;" x="268.694353" xlink:href="#m57d14eb122" y="227.511442"/>
     <use style="fill:#1f77b4;stroke:#1f77b4;" x="270.081766" xlink:href="#m57d14eb122" y="223.902075"/>
     <use style="fill:#1f77b4;stroke:#1f77b4;" x="271.469178" xlink:href="#m57d14eb122" y="212.373523"/>
     <use style="fill:#1f77b4;stroke:#1f77b4;" x="272.856591" xlink:href="#m57d14eb122" y="209.68805"/>
     <use style="fill:#1f77b4;stroke:#1f77b4;" x="274.244003" xlink:href="#m57d14eb122" y="204.399063"/>
     <use style="fill:#1f77b4;stroke:#1f77b4;" x="275.631416" xlink:href="#m57d14eb122" y="205.883531"/>
     <use style="fill:#1f77b4;stroke:#1f77b4;" x="277.018829" xlink:href="#m57d14eb122" y="198.074377"/>
     <use style="fill:#1f77b4;stroke:#1f77b4;" x="278.406241" xlink:href="#m57d14eb122" y="217.428408"/>
     <use style="fill:#1f77b4;stroke:#1f77b4;" x="279.793654" xlink:href="#m57d14eb122" y="198.741679"/>
     <use style="fill:#1f77b4;stroke:#1f77b4;" x="281.181066" xlink:href="#m57d14eb122" y="173.491594"/>
     <use style="fill:#1f77b4;stroke:#1f77b4;" x="282.568479" xlink:href="#m57d14eb122" y="183.509733"/>
     <use style="fill:#1f77b4;stroke:#1f77b4;" x="283.955892" xlink:href="#m57d14eb122" y="179.938735"/>
     <use style="fill:#1f77b4;stroke:#1f77b4;" x="285.343304" xlink:href="#m57d14eb122" y="164.880618"/>
     <use style="fill:#1f77b4;stroke:#1f77b4;" x="286.730717" xlink:href="#m57d14eb122" y="182.097892"/>
     <use style="fill:#1f77b4;stroke:#1f77b4;" x="288.118129" xlink:href="#m57d14eb122" y="176.171968"/>
     <use style="fill:#1f77b4;stroke:#1f77b4;" x="289.505542" xlink:href="#m57d14eb122" y="185.215309"/>
     <use style="fill:#1f77b4;stroke:#1f77b4;" x="290.892955" xlink:href="#m57d14eb122" y="172.949735"/>
     <use style="fill:#1f77b4;stroke:#1f77b4;" x="292.280367" xlink:href="#m57d14eb122" y="173.761808"/>
     <use style="fill:#1f77b4;stroke:#1f77b4;" x="293.66778" xlink:href="#m57d14eb122" y="161.196124"/>
     <use style="fill:#1f77b4;stroke:#1f77b4;" x="295.055192" xlink:href="#m57d14eb122" y="169.546736"/>
     <use style="fill:#1f77b4;stroke:#1f77b4;" x="296.442605" xlink:href="#m57d14eb122" y="181.2612"/>
     <use style="fill:#1f77b4;stroke:#1f77b4;" x="297.830017" xlink:href="#m57d14eb122" y="185.876948"/>
     <use style="fill:#1f77b4;stroke:#1f77b4;" x="299.21743" xlink:href="#m57d14eb122" y="164.254843"/>
     <use style="fill:#1f77b4;stroke:#1f77b4;" x="300.604843" xlink:href="#m57d14eb122" y="164.752578"/>
     <use style="fill:#1f77b4;stroke:#1f77b4;" x="301.992255" xlink:href="#m57d14eb122" y="179.693723"/>
     <use style="fill:#1f77b4;stroke:#1f77b4;" x="303.379668" xlink:href="#m57d14eb122" y="173.596996"/>
     <use style="fill:#1f77b4;stroke:#1f77b4;" x="304.76708" xlink:href="#m57d14eb122" y="185.36117"/>
     <use style="fill:#1f77b4;stroke:#1f77b4;" x="306.154493" xlink:href="#m57d14eb122" y="182.003915"/>
     <use style="fill:#1f77b4;stroke:#1f77b4;" x="307.541906" xlink:href="#m57d14eb122" y="176.802686"/>
     <use style="fill:#1f77b4;stroke:#1f77b4;" x="308.929318" xlink:href="#m57d14eb122" y="156.537132"/>
     <use style="fill:#1f77b4;stroke:#1f77b4;" x="310.316731" xlink:href="#m57d14eb122" y="177.064559"/>
     <use style="fill:#1f77b4;stroke:#1f77b4;" x="311.704143" xlink:href="#m57d14eb122" y="162.178381"/>
     <use style="fill:#1f77b4;stroke:#1f77b4;" x="313.091556" xlink:href="#m57d14eb122" y="164.899033"/>
     <use style="fill:#1f77b4;stroke:#1f77b4;" x="314.478969" xlink:href="#m57d14eb122" y="158.326983"/>
     <use style="fill:#1f77b4;stroke:#1f77b4;" x="315.866381" xlink:href="#m57d14eb122" y="164.881886"/>
     <use style="fill:#1f77b4;stroke:#1f77b4;" x="317.253794" xlink:href="#m57d14eb122" y="169.234772"/>
     <use style="fill:#1f77b4;stroke:#1f77b4;" x="318.641206" xlink:href="#m57d14eb122" y="153.581869"/>
     <use style="fill:#1f77b4;stroke:#1f77b4;" x="320.028619" xlink:href="#m57d14eb122" y="152.99643"/>
     <use style="fill:#1f77b4;stroke:#1f77b4;" x="321.416031" xlink:href="#m57d14eb122" y="174.584319"/>
     <use style="fill:#1f77b4;stroke:#1f77b4;" x="322.803444" xlink:href="#m57d14eb122" y="195.083812"/>
     <use style="fill:#1f77b4;stroke:#1f77b4;" x="324.190857" xlink:href="#m57d14eb122" y="173.53492"/>
     <use style="fill:#1f77b4;stroke:#1f77b4;" x="325.578269" xlink:href="#m57d14eb122" y="189.017984"/>
     <use style="fill:#1f77b4;stroke:#1f77b4;" x="326.965682" xlink:href="#m57d14eb122" y="183.529651"/>
     <use style="fill:#1f77b4;stroke:#1f77b4;" x="328.353094" xlink:href="#m57d14eb122" y="179.208051"/>
     <use style="fill:#1f77b4;stroke:#1f77b4;" x="329.740507" xlink:href="#m57d14eb122" y="176.568873"/>
     <use style="fill:#1f77b4;stroke:#1f77b4;" x="331.12792" xlink:href="#m57d14eb122" y="150.509264"/>
     <use style="fill:#1f77b4;stroke:#1f77b4;" x="332.515332" xlink:href="#m57d14eb122" y="162.037829"/>
     <use style="fill:#1f77b4;stroke:#1f77b4;" x="333.902745" xlink:href="#m57d14eb122" y="193.463214"/>
     <use style="fill:#1f77b4;stroke:#1f77b4;" x="335.290157" xlink:href="#m57d14eb122" y="167.248527"/>
     <use style="fill:#1f77b4;stroke:#1f77b4;" x="336.67757" xlink:href="#m57d14eb122" y="174.613338"/>
     <use style="fill:#1f77b4;stroke:#1f77b4;" x="338.064983" xlink:href="#m57d14eb122" y="196.514025"/>
     <use style="fill:#1f77b4;stroke:#1f77b4;" x="339.452395" xlink:href="#m57d14eb122" y="180.723832"/>
     <use style="fill:#1f77b4;stroke:#1f77b4;" x="340.839808" xlink:href="#m57d14eb122" y="179.085115"/>
     <use style="fill:#1f77b4;stroke:#1f77b4;" x="342.22722" xlink:href="#m57d14eb122" y="172.259948"/>
     <use style="fill:#1f77b4;stroke:#1f77b4;" x="343.614633" xlink:href="#m57d14eb122" y="172.369408"/>
     <use style="fill:#1f77b4;stroke:#1f77b4;" x="345.002045" xlink:href="#m57d14eb122" y="182.172381"/>
     <use style="fill:#1f77b4;stroke:#1f77b4;" x="346.389458" xlink:href="#m57d14eb122" y="171.59309"/>
     <use style="fill:#1f77b4;stroke:#1f77b4;" x="347.776871" xlink:href="#m57d14eb122" y="189.5091"/>
     <use style="fill:#1f77b4;stroke:#1f77b4;" x="349.164283" xlink:href="#m57d14eb122" y="164.22088"/>
     <use style="fill:#1f77b4;stroke:#1f77b4;" x="350.551696" xlink:href="#m57d14eb122" y="170.813686"/>
     <use style="fill:#1f77b4;stroke:#1f77b4;" x="351.939108" xlink:href="#m57d14eb122" y="166.847222"/>
     <use style="fill:#1f77b4;stroke:#1f77b4;" x="353.326521" xlink:href="#m57d14eb122" y="177.704634"/>
     <use style="fill:#1f77b4;stroke:#1f77b4;" x="354.713934" xlink:href="#m57d14eb122" y="176.520234"/>
     <use style="fill:#1f77b4;stroke:#1f77b4;" x="356.101346" xlink:href="#m57d14eb122" y="183.568443"/>
     <use style="fill:#1f77b4;stroke:#1f77b4;" x="357.488759" xlink:href="#m57d14eb122" y="188.816766"/>
     <use style="fill:#1f77b4;stroke:#1f77b4;" x="358.876171" xlink:href="#m57d14eb122" y="190.78528"/>
     <use style="fill:#1f77b4;stroke:#1f77b4;" x="360.263584" xlink:href="#m57d14eb122" y="164.697354"/>
     <use style="fill:#1f77b4;stroke:#1f77b4;" x="361.650997" xlink:href="#m57d14eb122" y="167.170784"/>
     <use style="fill:#1f77b4;stroke:#1f77b4;" x="363.038409" xlink:href="#m57d14eb122" y="170.665454"/>
     <use style="fill:#1f77b4;stroke:#1f77b4;" x="364.425822" xlink:href="#m57d14eb122" y="205.019525"/>
     <use style="fill:#1f77b4;stroke:#1f77b4;" x="365.813234" xlink:href="#m57d14eb122" y="185.72725"/>
     <use style="fill:#1f77b4;stroke:#1f77b4;" x="367.200647" xlink:href="#m57d14eb122" y="193.613096"/>
     <use style="fill:#1f77b4;stroke:#1f77b4;" x="368.588059" xlink:href="#m57d14eb122" y="211.409013"/>
     <use style="fill:#1f77b4;stroke:#1f77b4;" x="369.975472" xlink:href="#m57d14eb122" y="192.131824"/>
     <use style="fill:#1f77b4;stroke:#1f77b4;" x="371.362885" xlink:href="#m57d14eb122" y="170.384738"/>
     <use style="fill:#1f77b4;stroke:#1f77b4;" x="372.750297" xlink:href="#m57d14eb122" y="183.295288"/>
     <use style="fill:#1f77b4;stroke:#1f77b4;" x="374.13771" xlink:href="#m57d14eb122" y="191.394028"/>
     <use style="fill:#1f77b4;stroke:#1f77b4;" x="375.525122" xlink:href="#m57d14eb122" y="186.872423"/>
     <use style="fill:#1f77b4;stroke:#1f77b4;" x="376.912535" xlink:href="#m57d14eb122" y="152.188396"/>
     <use style="fill:#1f77b4;stroke:#1f77b4;" x="378.299948" xlink:href="#m57d14eb122" y="187.986009"/>
     <use style="fill:#1f77b4;stroke:#1f77b4;" x="379.68736" xlink:href="#m57d14eb122" y="179.86916"/>
     <use style="fill:#1f77b4;stroke:#1f77b4;" x="381.074773" xlink:href="#m57d14eb122" y="152.558716"/>
    </g>
   </g>
   <g id="patch_3">
    <path d="M 40.1875 284.258625 
L 40.1875 18.146625 
" style="fill:none;stroke:#000000;stroke-linecap:square;stroke-linejoin:miter;stroke-width:0.8;"/>
   </g>
   <g id="patch_4">
    <path d="M 397.3075 284.258625 
L 397.3075 18.146625 
" style="fill:none;stroke:#000000;stroke-linecap:square;stroke-linejoin:miter;stroke-width:0.8;"/>
   </g>
   <g id="patch_5">
    <path d="M 40.1875 284.258625 
L 397.3075 284.258625 
" style="fill:none;stroke:#000000;stroke-linecap:square;stroke-linejoin:miter;stroke-width:0.8;"/>
   </g>
   <g id="patch_6">
    <path d="M 40.1875 18.146625 
L 397.3075 18.146625 
" style="fill:none;stroke:#000000;stroke-linecap:square;stroke-linejoin:miter;stroke-width:0.8;"/>
   </g>
   <g id="legend_1">
    <g id="patch_7">
     <path d="M 338.3075 40.53725 
L 390.3075 40.53725 
Q 392.3075 40.53725 392.3075 38.53725 
L 392.3075 25.146625 
Q 392.3075 23.146625 390.3075 23.146625 
L 338.3075 23.146625 
Q 336.3075 23.146625 336.3075 25.146625 
L 336.3075 38.53725 
Q 336.3075 40.53725 338.3075 40.53725 
z
" style="fill:#ffffff;opacity:0.8;stroke:#cccccc;stroke-linejoin:miter;"/>
    </g>
    <g id="line2d_17">
     <path d="M 340.3075 31.13725 
L 360.3075 31.13725 
" style="fill:none;stroke:#1f77b4;stroke-linecap:square;stroke-width:1.5;"/>
    </g>
    <g id="line2d_18">
     <g>
      <use style="fill:#1f77b4;stroke:#1f77b4;" x="350.3075" xlink:href="#m57d14eb122" y="31.13725"/>
     </g>
    </g>
    <g id="text_18">
     <!-- 全国 -->
     <g transform="translate(368.3075 34.63725)scale(0.1 -0.1)">
      <defs>
       <path d="M 53.375 43.40625 
L 53.375 27.296875 
L 82.5625 27.296875 
L 82.5625 20.90625 
L 53.375 20.90625 
L 53.375 2.875 
L 91.546875 2.875 
L 91.546875 -3.609375 
L 8.546875 -3.609375 
L 8.546875 2.875 
L 45.953125 2.875 
L 45.953125 20.90625 
L 17.4375 20.90625 
L 17.4375 27.296875 
L 45.953125 27.296875 
L 45.953125 43.40625 
L 26.03125 43.40625 
L 26.03125 48.296875 
Q 18.5625 42.875 9.328125 38.625 
L 4.9375 44.484375 
Q 31.34375 55.765625 45.125 81.203125 
L 53.765625 81.203125 
Q 70.171875 58.796875 95.5625 47.515625 
L 90.875 40.921875 
Q 66.109375 53.328125 49.5625 74.609375 
Q 40.671875 59.90625 27.9375 49.703125 
L 75.046875 49.703125 
L 75.046875 43.40625 
z
" id="IPAexGothic-20840"/>
       <path d="M 52.09375 56.6875 
L 52.09375 44.09375 
L 73.875 44.09375 
L 73.875 38.09375 
L 52.09375 38.09375 
L 52.09375 19.390625 
L 77.984375 19.390625 
L 77.984375 13.09375 
L 21.828125 13.09375 
L 21.828125 19.390625 
L 45.125 19.390625 
L 45.125 38.09375 
L 25.921875 38.09375 
L 25.921875 44.09375 
L 45.125 44.09375 
L 45.125 56.6875 
L 22.796875 56.6875 
L 22.796875 62.890625 
L 76.90625 62.890625 
L 76.90625 56.6875 
z
M 67.921875 20.515625 
Q 63.578125 26.953125 58.109375 32.421875 
L 63.140625 36.28125 
Q 68.5625 31.453125 73.1875 25 
z
M 89.984375 77.875 
L 89.984375 -6.984375 
L 82.8125 -6.984375 
L 82.8125 -2 
L 17.140625 -2 
L 17.140625 -6.984375 
L 9.8125 -6.984375 
L 9.8125 77.875 
z
M 17.140625 71.578125 
L 17.140625 4.296875 
L 82.8125 4.296875 
L 82.8125 71.578125 
z
" id="IPAexGothic-22269"/>
      </defs>
      <use xlink:href="#IPAexGothic-20840"/>
      <use x="100" xlink:href="#IPAexGothic-22269"/>
     </g>
    </g>
   </g>
  </g>
  <g id="text_19">
   <!-- generated: 2020-10-22 10:46:06 -->
   <g transform="translate(239.412188 14.690625)scale(0.1 -0.1)">
    <defs>
     <path d="M 52.984375 0.984375 
L 45.171875 0.984375 
L 45.171875 9.671875 
Q 38.140625 -0.484375 27.390625 -0.484375 
Q 18.453125 -0.484375 12.3125 5.8125 
Q 4.890625 13.1875 4.890625 25.984375 
Q 4.890625 38.53125 12.0625 45.90625 
Q 18.265625 52.203125 27.390625 52.203125 
Q 37.25 52.203125 44.484375 43.890625 
L 44.484375 74.90625 
L 52.984375 74.90625 
z
M 44.484375 20.359375 
L 44.484375 32.765625 
Q 44.484375 37.703125 38.375 42.28125 
Q 34.078125 45.40625 28.953125 45.40625 
Q 23.1875 45.40625 19.1875 41.40625 
Q 13.875 36.078125 13.875 26.21875 
Q 13.875 17.328125 18.265625 11.71875 
Q 22.515625 6.390625 28.859375 6.390625 
Q 36.28125 6.390625 41.5 13.671875 
Q 44.484375 17.71875 44.484375 20.359375 
z
" id="IPAexGothic-100"/>
     <path d="M 21.390625 39.984375 
L 10.5 39.984375 
L 10.5 50.78125 
L 21.390625 50.78125 
z
M 21.390625 0.984375 
L 10.5 0.984375 
L 10.5 11.765625 
L 21.390625 11.765625 
z
" id="IPAexGothic-58"/>
     <path id="IPAexGothic-32"/>
     <path d="M 30.765625 26.609375 
L 4.984375 26.609375 
L 4.984375 34.421875 
L 30.765625 34.421875 
z
" id="IPAexGothic-45"/>
     <path d="M 38.484375 0.984375 
L 29.6875 0.984375 
L 29.6875 64.109375 
Q 21.4375 61.28125 12.3125 59.328125 
L 10.6875 66.109375 
Q 23.734375 69.390625 32.90625 73.921875 
L 38.484375 73.921875 
z
" id="IPAexGothic-49"/>
    </defs>
    <use xlink:href="#IPAexGothic-103"/>
    <use x="55.517578" xlink:href="#IPAexGothic-101"/>
    <use x="112.402344" xlink:href="#IPAexGothic-110"/>
    <use x="172.802734" xlink:href="#IPAexGothic-101"/>
    <use x="229.6875" xlink:href="#IPAexGothic-114"/>
    <use x="266.699219" xlink:href="#IPAexGothic-97"/>
    <use x="321.679688" xlink:href="#IPAexGothic-116"/>
    <use x="356.298828" xlink:href="#IPAexGothic-101"/>
    <use x="413.183594" xlink:href="#IPAexGothic-100"/>
    <use x="475.585938" xlink:href="#IPAexGothic-58"/>
    <use x="507.568359" xlink:href="#IPAexGothic-32"/>
    <use x="534.570312" xlink:href="#IPAexGothic-50"/>
    <use x="597.558594" xlink:href="#IPAexGothic-48"/>
    <use x="660.546875" xlink:href="#IPAexGothic-50"/>
    <use x="723.535156" xlink:href="#IPAexGothic-48"/>
    <use x="786.523438" xlink:href="#IPAexGothic-45"/>
    <use x="822.314453" xlink:href="#IPAexGothic-49"/>
    <use x="885.302734" xlink:href="#IPAexGothic-48"/>
    <use x="948.291016" xlink:href="#IPAexGothic-45"/>
    <use x="984.082031" xlink:href="#IPAexGothic-50"/>
    <use x="1047.070312" xlink:href="#IPAexGothic-50"/>
    <use x="1110.058594" xlink:href="#IPAexGothic-32"/>
    <use x="1137.060547" xlink:href="#IPAexGothic-49"/>
    <use x="1200.048828" xlink:href="#IPAexGothic-48"/>
    <use x="1263.037109" xlink:href="#IPAexGothic-58"/>
    <use x="1295.019531" xlink:href="#IPAexGothic-52"/>
    <use x="1358.007812" xlink:href="#IPAexGothic-54"/>
    <use x="1420.996094" xlink:href="#IPAexGothic-58"/>
    <use x="1452.978516" xlink:href="#IPAexGothic-48"/>
    <use x="1515.966797" xlink:href="#IPAexGothic-54"/>
   </g>
  </g>
 </g>
 <defs>
  <clipPath id="p7122da7ccd">
   <rect height="266.112" width="357.12" x="40.1875" y="18.146625"/>
  </clipPath>
 </defs>
</svg>
