<?xml version="1.0" encoding="utf-8" standalone="no"?>
<!DOCTYPE svg PUBLIC "-//W3C//DTD SVG 1.1//EN"
  "http://www.w3.org/Graphics/SVG/1.1/DTD/svg11.dtd">
<!-- Created with matplotlib (https://matplotlib.org/) -->
<svg height="320.239875pt" version="1.1" viewBox="0 0 401.304723 320.239875" width="401.304723pt" xmlns="http://www.w3.org/2000/svg" xmlns:xlink="http://www.w3.org/1999/xlink">
 <metadata>
  <rdf:RDF xmlns:cc="http://creativecommons.org/ns#" xmlns:dc="http://purl.org/dc/elements/1.1/" xmlns:rdf="http://www.w3.org/1999/02/22-rdf-syntax-ns#">
   <cc:Work>
    <dc:type rdf:resource="http://purl.org/dc/dcmitype/StillImage"/>
    <dc:date>2020-07-26T21:48:26.550980</dc:date>
    <dc:format>image/svg+xml</dc:format>
    <dc:creator>
     <cc:Agent>
      <dc:title>Matplotlib v3.3.0, https://matplotlib.org/</dc:title>
     </cc:Agent>
    </dc:creator>
   </cc:Work>
  </rdf:RDF>
 </metadata>
 <defs>
  <style type="text/css">*{stroke-linecap:butt;stroke-linejoin:round;}</style>
 </defs>
 <g id="figure_1">
  <g id="patch_1">
   <path d="M 0 320.239875 
L 401.304723 320.239875 
L 401.304723 0 
L 0 0 
z
" style="fill:#ffffff;"/>
  </g>
  <g id="axes_1">
   <g id="patch_2">
    <path d="M 33.095313 284.258625 
L 390.215312 284.258625 
L 390.215312 18.146625 
L 33.095313 18.146625 
z
" style="fill:#ffffff;"/>
   </g>
   <g id="matplotlib.axis_1">
    <g id="xtick_1">
     <g id="line2d_1">
      <defs>
       <path d="M 0 0 
L 0 3.5 
" id="m0719635b2c" style="stroke:#000000;stroke-width:0.8;"/>
      </defs>
      <g>
       <use style="stroke:#000000;stroke-width:0.8;" x="46.145152" xlink:href="#m0719635b2c" y="284.258625"/>
      </g>
     </g>
     <g id="text_1">
      <!-- 2020 -->
      <g transform="translate(33.548277 298.74925)scale(0.1 -0.1)">
       <defs>
        <path d="M 57.171875 0.984375 
L 6.984375 0.984375 
L 6.984375 9.28125 
Q 12.890625 23.046875 29.59375 34.421875 
L 32.375 36.28125 
Q 40.921875 42.140625 43.609375 45.40625 
Q 46.6875 49.265625 46.6875 53.8125 
Q 46.6875 58.9375 43.0625 62.546875 
Q 39.0625 66.546875 32.5625 66.546875 
Q 19.53125 66.546875 15.484375 52 
L 7.765625 54.78125 
Q 13.328125 73.828125 33.0625 73.828125 
Q 43.84375 73.828125 50.25 67.4375 
Q 55.859375 61.671875 55.859375 53.515625 
Q 55.859375 47.46875 52.25 42.53125 
Q 48.921875 37.75 36.96875 30.28125 
L 34.859375 29 
Q 19.625 19.578125 15.28125 8.890625 
L 57.171875 8.890625 
z
" id="IPAexGothic-50"/>
        <path d="M 31.84375 73.828125 
Q 45.015625 73.828125 52.09375 61.625 
Q 57.71875 51.953125 57.71875 36.625 
Q 57.71875 21.4375 52.09375 11.578125 
Q 45.125 -0.484375 31.5 -0.484375 
Q 17.921875 -0.484375 10.9375 11.578125 
Q 5.328125 21.4375 5.328125 36.71875 
Q 5.328125 58.015625 15.625 67.71875 
Q 22.171875 73.828125 31.84375 73.828125 
z
M 31.5 66.65625 
Q 23.6875 66.65625 19.1875 58.734375 
Q 14.59375 50.734375 14.59375 36.625 
Q 14.59375 22.75 19.09375 14.796875 
Q 23.640625 6.984375 31.5 6.984375 
Q 40.921875 6.984375 45.453125 18.015625 
Q 48.4375 25.34375 48.4375 37.109375 
Q 48.4375 50.875 43.84375 58.734375 
Q 39.203125 66.65625 31.5 66.65625 
z
" id="IPAexGothic-48"/>
       </defs>
       <use xlink:href="#IPAexGothic-50"/>
       <use x="62.988281" xlink:href="#IPAexGothic-48"/>
       <use x="125.976562" xlink:href="#IPAexGothic-50"/>
       <use x="188.964844" xlink:href="#IPAexGothic-48"/>
      </g>
     </g>
    </g>
    <g id="xtick_2">
     <g id="line2d_2">
      <g>
       <use style="stroke:#000000;stroke-width:0.8;" x="95.479911" xlink:href="#m0719635b2c" y="284.258625"/>
      </g>
     </g>
     <g id="text_2">
      <!-- Feb -->
      <g transform="translate(86.656474 298.74925)scale(0.1 -0.1)">
       <defs>
        <path d="M 54.203125 64.703125 
L 18.3125 64.703125 
L 18.3125 41.5 
L 50.09375 41.5 
L 50.09375 34.1875 
L 18.3125 34.1875 
L 18.3125 0.984375 
L 9.515625 0.984375 
L 9.515625 72.40625 
L 54.203125 72.40625 
z
" id="IPAexGothic-70"/>
        <path d="M 13.484375 24.90625 
Q 13.921875 16.265625 18.890625 11.28125 
Q 23.96875 6.203125 31.203125 6.203125 
Q 40.71875 6.203125 46.296875 15.09375 
L 51.90625 11.375 
Q 44.828125 -0.484375 30.171875 -0.484375 
Q 19.09375 -0.484375 11.96875 6.59375 
Q 4.78125 13.8125 4.78125 25.640625 
Q 4.78125 38.1875 12.3125 45.703125 
Q 19 52.390625 29 52.390625 
Q 38.421875 52.390625 44.78125 46.1875 
Q 51.90625 38.96875 51.90625 26.90625 
L 51.90625 24.90625 
z
M 43.0625 31.203125 
Q 42.328125 37.984375 38.28125 41.890625 
Q 34.28125 45.90625 28.8125 45.90625 
Q 22.46875 45.90625 17.96875 40.484375 
Q 14.890625 36.8125 13.96875 31.203125 
z
" id="IPAexGothic-101"/>
        <path d="M 17.578125 42.671875 
Q 24.21875 52.203125 34.671875 52.203125 
Q 43.5625 52.203125 49.859375 45.90625 
Q 57.171875 38.578125 57.171875 25.6875 
Q 57.171875 13.09375 49.859375 5.8125 
Q 43.5625 -0.484375 34.46875 -0.484375 
Q 24.359375 -0.484375 17 8.0625 
L 15.765625 0.6875 
L 9.078125 0.6875 
L 9.078125 74.90625 
L 17.578125 74.90625 
z
M 17.578125 31.203125 
L 17.578125 19.578125 
Q 17.578125 13.875 23.875 9.375 
Q 28.171875 6.296875 33.109375 6.296875 
Q 38.875 6.296875 42.875 10.296875 
Q 48.1875 15.765625 48.1875 25.484375 
Q 48.1875 34.28125 43.796875 39.890625 
Q 39.453125 45.3125 33.203125 45.3125 
Q 27.484375 45.3125 22.46875 40.28125 
Q 17.578125 35.40625 17.578125 31.203125 
z
" id="IPAexGothic-98"/>
       </defs>
       <use xlink:href="#IPAexGothic-70"/>
       <use x="57.177734" xlink:href="#IPAexGothic-101"/>
       <use x="114.0625" xlink:href="#IPAexGothic-98"/>
      </g>
     </g>
    </g>
    <g id="xtick_3">
     <g id="line2d_3">
      <g>
       <use style="stroke:#000000;stroke-width:0.8;" x="141.631783" xlink:href="#m0719635b2c" y="284.258625"/>
      </g>
     </g>
     <g id="text_3">
      <!-- Mar -->
      <g transform="translate(132.522408 298.74925)scale(0.1 -0.1)">
       <defs>
        <path d="M 80.421875 0.984375 
L 71.828125 0.984375 
L 71.828125 39.59375 
Q 71.828125 51.265625 72.40625 64.59375 
L 72.015625 64.59375 
Q 68.0625 53.265625 63.53125 41.796875 
L 47.90625 3.265625 
L 41.40625 3.265625 
L 25.640625 42.578125 
Q 20.75 54.78125 17.625 64.703125 
L 17.234375 64.703125 
Q 17.828125 48.921875 17.828125 39.890625 
L 17.828125 0.984375 
L 9.515625 0.984375 
L 9.515625 72.40625 
L 22.125 72.40625 
L 39.109375 30.375 
Q 42.140625 23 44.828125 14.15625 
L 45.125 14.15625 
Q 47.3125 22.125 50.53125 30.171875 
L 67.4375 72.40625 
L 80.421875 72.40625 
z
" id="IPAexGothic-77"/>
        <path d="M 49.3125 0.984375 
L 41.75 0.984375 
Q 39.984375 4.734375 39.546875 8.6875 
L 39.203125 8.6875 
Q 33.546875 -0.390625 22.3125 -0.390625 
Q 14.59375 -0.390625 9.71875 4.5 
Q 5.421875 8.796875 5.421875 14.984375 
Q 5.421875 30.421875 32.03125 31.203125 
L 38.71875 31.390625 
L 38.71875 33.984375 
Q 38.71875 39.203125 35.75 42.1875 
Q 32.625 45.3125 27.734375 45.3125 
Q 19.34375 45.3125 15.140625 37.15625 
L 7.71875 40.578125 
Q 14.65625 52 27.9375 52 
Q 37.109375 52 42.046875 46.875 
Q 46.625 42.28125 46.625 33.890625 
L 46.625 15.578125 
Q 46.625 6.25 49.3125 0.984375 
z
M 38.921875 25.390625 
L 33.453125 25.296875 
Q 14.109375 24.859375 14.109375 14.890625 
Q 14.109375 11.375 16.40625 9.078125 
Q 19.234375 6.296875 23.828125 6.296875 
Q 30.21875 6.296875 34.90625 10.984375 
Q 38.921875 15.140625 38.921875 21 
z
" id="IPAexGothic-97"/>
        <path d="M 36.078125 51.8125 
L 34.578125 43.265625 
Q 32.90625 43.609375 31.59375 43.609375 
Q 25.828125 43.609375 22.078125 38.1875 
Q 17.390625 31.34375 17.390625 26.171875 
L 17.390625 0.984375 
L 8.796875 0.984375 
L 8.796875 50.78125 
L 16.890625 50.78125 
L 16.5 35.984375 
L 16.703125 35.984375 
Q 22.21875 52.203125 32.765625 52.203125 
Q 34.46875 52.203125 36.078125 51.8125 
z
" id="IPAexGothic-114"/>
       </defs>
       <use xlink:href="#IPAexGothic-77"/>
       <use x="90.185547" xlink:href="#IPAexGothic-97"/>
       <use x="145.166016" xlink:href="#IPAexGothic-114"/>
      </g>
     </g>
    </g>
    <g id="xtick_4">
     <g id="line2d_4">
      <g>
       <use style="stroke:#000000;stroke-width:0.8;" x="190.966542" xlink:href="#m0719635b2c" y="284.258625"/>
      </g>
     </g>
     <g id="text_4">
      <!-- Apr -->
      <g transform="translate(182.824355 298.74925)scale(0.1 -0.1)">
       <defs>
        <path d="M 63.375 0.984375 
L 53.8125 0.984375 
L 45.90625 22.015625 
L 17.1875 22.015625 
L 9.421875 0.984375 
L -0.09375 0.984375 
L 28.21875 72.90625 
L 35.296875 72.90625 
z
M 43.40625 29.109375 
L 36.1875 48.09375 
Q 33.203125 56.0625 31.6875 62.5 
L 31.390625 62.5 
Q 29.640625 55.671875 26.8125 48.09375 
L 19.734375 29.109375 
z
" id="IPAexGothic-65"/>
        <path d="M 16.796875 42 
Q 23.828125 52.203125 34.46875 52.203125 
Q 43.265625 52.203125 49.5625 45.90625 
Q 56.890625 38.578125 56.890625 25.6875 
Q 56.890625 13.140625 49.65625 5.8125 
Q 43.359375 -0.484375 34.375 -0.484375 
Q 24.515625 -0.484375 17.28125 7.765625 
L 17.28125 -19 
L 8.796875 -19 
L 8.796875 50.78125 
L 16.796875 50.78125 
z
M 17.28125 30.46875 
L 17.28125 20.171875 
Q 17.28125 14.015625 23.6875 9.375 
Q 27.984375 6.296875 32.90625 6.296875 
Q 38.578125 6.296875 42.578125 10.296875 
Q 47.90625 15.578125 47.90625 25.484375 
Q 47.90625 34.375 43.5 39.984375 
Q 39.109375 45.3125 32.8125 45.3125 
Q 25.875 45.3125 20.90625 38.8125 
Q 17.28125 34.125 17.28125 30.46875 
z
" id="IPAexGothic-112"/>
       </defs>
       <use xlink:href="#IPAexGothic-65"/>
       <use x="63.720703" xlink:href="#IPAexGothic-112"/>
       <use x="125.830078" xlink:href="#IPAexGothic-114"/>
      </g>
     </g>
    </g>
    <g id="xtick_5">
     <g id="line2d_5">
      <g>
       <use style="stroke:#000000;stroke-width:0.8;" x="238.709858" xlink:href="#m0719635b2c" y="284.258625"/>
      </g>
     </g>
     <g id="text_5">
      <!-- May -->
      <g transform="translate(228.990327 298.74925)scale(0.1 -0.1)">
       <defs>
        <path d="M 48.78125 50.78125 
L 24.609375 -7.625 
Q 19.96875 -18.796875 8.59375 -18.796875 
L 7.46875 -18.796875 
L 5.375 -10.984375 
L 6.984375 -10.984375 
Q 15.140625 -10.984375 17.96875 -3.71875 
L 21.1875 4.296875 
L 0.59375 50.78125 
L 10.296875 50.78125 
L 21.296875 22.796875 
Q 23.875 16.015625 25.09375 12.203125 
L 25.390625 12.203125 
Q 27.34375 18.265625 29.109375 22.796875 
L 39.5 50.78125 
z
" id="IPAexGothic-121"/>
       </defs>
       <use xlink:href="#IPAexGothic-77"/>
       <use x="90.185547" xlink:href="#IPAexGothic-97"/>
       <use x="145.166016" xlink:href="#IPAexGothic-121"/>
      </g>
     </g>
    </g>
    <g id="xtick_6">
     <g id="line2d_6">
      <g>
       <use style="stroke:#000000;stroke-width:0.8;" x="288.044617" xlink:href="#m0719635b2c" y="284.258625"/>
      </g>
     </g>
     <g id="text_6">
      <!-- Jun -->
      <g transform="translate(280.104774 298.74925)scale(0.1 -0.1)">
       <defs>
        <path d="M 28.421875 72.40625 
L 28.421875 19.28125 
Q 28.421875 -0.484375 11.921875 -0.484375 
Q 4.734375 -0.484375 -1.953125 3.265625 
L 1.3125 10.0625 
Q 5.90625 6.984375 10.84375 6.984375 
Q 19.53125 6.984375 19.53125 18.796875 
L 19.53125 72.40625 
z
" id="IPAexGothic-74"/>
        <path d="M 51.3125 0.984375 
L 43.3125 0.984375 
L 43.3125 10.0625 
Q 35.9375 0 25.390625 0 
Q 16.75 0 11.921875 5.859375 
Q 8.109375 10.59375 8.109375 19.390625 
L 8.109375 50.78125 
L 16.703125 50.78125 
L 16.703125 19.671875 
Q 16.703125 7.28125 27.09375 7.28125 
Q 37.59375 7.28125 42.71875 20.171875 
L 42.71875 50.78125 
L 51.3125 50.78125 
z
" id="IPAexGothic-117"/>
        <path d="M 52 0.984375 
L 43.40625 0.984375 
L 43.40625 31.890625 
Q 43.40625 44.578125 32.90625 44.578125 
Q 22.3125 44.578125 17.390625 31.890625 
L 17.390625 0.984375 
L 8.796875 0.984375 
L 8.796875 50.78125 
L 16.796875 50.78125 
L 16.796875 41.796875 
Q 23.828125 51.8125 34.71875 51.8125 
Q 52 51.8125 52 32.375 
z
" id="IPAexGothic-110"/>
       </defs>
       <use xlink:href="#IPAexGothic-74"/>
       <use x="37.988281" xlink:href="#IPAexGothic-117"/>
       <use x="98.388672" xlink:href="#IPAexGothic-110"/>
      </g>
     </g>
    </g>
    <g id="xtick_7">
     <g id="line2d_7">
      <g>
       <use style="stroke:#000000;stroke-width:0.8;" x="335.787933" xlink:href="#m0719635b2c" y="284.258625"/>
      </g>
     </g>
     <g id="text_7">
      <!-- Jul -->
      <g transform="translate(329.518402 298.74925)scale(0.1 -0.1)">
       <defs>
        <path d="M 17.671875 0.984375 
L 9.078125 0.984375 
L 9.078125 74.90625 
L 17.671875 74.90625 
z
" id="IPAexGothic-108"/>
       </defs>
       <use xlink:href="#IPAexGothic-74"/>
       <use x="37.988281" xlink:href="#IPAexGothic-117"/>
       <use x="98.388672" xlink:href="#IPAexGothic-108"/>
      </g>
     </g>
    </g>
    <g id="xtick_8">
     <g id="line2d_8">
      <g>
       <use style="stroke:#000000;stroke-width:0.8;" x="385.122692" xlink:href="#m0719635b2c" y="284.258625"/>
      </g>
     </g>
     <g id="text_8">
      <!-- Aug -->
      <g transform="translate(376.140661 298.691437)scale(0.1 -0.1)">
       <defs>
        <path d="M 20.796875 17.96875 
Q 15.71875 17.53125 15.71875 14.0625 
Q 15.71875 9.578125 27.546875 8.984375 
L 33.296875 8.6875 
Q 51.609375 7.765625 51.609375 -4.59375 
Q 51.609375 -10.9375 45.703125 -14.984375 
Q 39.359375 -19.578125 28.03125 -19.578125 
Q 17.78125 -19.578125 11.53125 -16.0625 
Q 5.515625 -12.640625 5.515625 -6.6875 
Q 5.515625 1.3125 16.796875 3.859375 
L 16.796875 4.203125 
Q 7.90625 6.453125 7.90625 12.15625 
Q 7.90625 17.4375 15.53125 20.265625 
Q 7.125 24.609375 7.125 34.078125 
Q 7.125 41.40625 12.015625 46.296875 
Q 17.625 51.90625 27.15625 51.90625 
Q 33.203125 51.90625 37.84375 49.265625 
Q 41.40625 53.953125 50.921875 54.109375 
L 50.921875 47.078125 
Q 44.34375 46.921875 42.234375 45.90625 
Q 47.40625 40.828125 47.40625 33.890625 
Q 47.40625 27 42.71875 22.265625 
Q 37.5 17.09375 28.328125 17.09375 
Q 24.421875 17.09375 20.796875 17.96875 
z
M 27.09375 45.609375 
Q 22.015625 45.609375 18.703125 42.28125 
Q 15.4375 39.015625 15.4375 34.078125 
Q 15.4375 29.25 18.5 26.3125 
Q 21.828125 23 27.4375 23 
Q 32.71875 23 35.890625 26.21875 
Q 39.109375 29.390625 39.109375 34.421875 
Q 39.109375 39.015625 35.890625 42.1875 
Q 32.515625 45.609375 27.09375 45.609375 
z
M 27.390625 2.484375 
Q 14.109375 2.484375 14.109375 -5.71875 
Q 14.109375 -13.671875 28.125 -13.671875 
Q 37.15625 -13.671875 41.21875 -9.46875 
Q 43.3125 -7.515625 43.3125 -4.890625 
Q 43.3125 2.484375 27.390625 2.484375 
z
" id="IPAexGothic-103"/>
       </defs>
       <use xlink:href="#IPAexGothic-65"/>
       <use x="63.720703" xlink:href="#IPAexGothic-117"/>
       <use x="124.121094" xlink:href="#IPAexGothic-103"/>
      </g>
     </g>
    </g>
    <g id="text_9">
     <!-- 2020 -->
     <g transform="translate(365.021562 311.139875)scale(0.1 -0.1)">
      <use xlink:href="#IPAexGothic-50"/>
      <use x="62.988281" xlink:href="#IPAexGothic-48"/>
      <use x="125.976562" xlink:href="#IPAexGothic-50"/>
      <use x="188.964844" xlink:href="#IPAexGothic-48"/>
     </g>
    </g>
   </g>
   <g id="matplotlib.axis_2">
    <g id="ytick_1">
     <g id="line2d_9">
      <defs>
       <path d="M 0 0 
L -3.5 0 
" id="m46712bc6c7" style="stroke:#000000;stroke-width:0.8;"/>
      </defs>
      <g>
       <use style="stroke:#000000;stroke-width:0.8;" x="33.095313" xlink:href="#m46712bc6c7" y="272.162625"/>
      </g>
     </g>
     <g id="text_10">
      <!-- 0 -->
      <g transform="translate(19.796875 275.907937)scale(0.1 -0.1)">
       <use xlink:href="#IPAexGothic-48"/>
      </g>
     </g>
    </g>
    <g id="ytick_2">
     <g id="line2d_10">
      <g>
       <use style="stroke:#000000;stroke-width:0.8;" x="33.095313" xlink:href="#m46712bc6c7" y="215.573151"/>
      </g>
     </g>
     <g id="text_11">
      <!-- 200 -->
      <g transform="translate(7.2 219.318464)scale(0.1 -0.1)">
       <use xlink:href="#IPAexGothic-50"/>
       <use x="62.988281" xlink:href="#IPAexGothic-48"/>
       <use x="125.976562" xlink:href="#IPAexGothic-48"/>
      </g>
     </g>
    </g>
    <g id="ytick_3">
     <g id="line2d_11">
      <g>
       <use style="stroke:#000000;stroke-width:0.8;" x="33.095313" xlink:href="#m46712bc6c7" y="158.983678"/>
      </g>
     </g>
     <g id="text_12">
      <!-- 400 -->
      <g transform="translate(7.2 162.72899)scale(0.1 -0.1)">
       <defs>
        <path d="M 59.578125 18.109375 
L 47.796875 18.109375 
L 47.796875 0.984375 
L 39.796875 0.984375 
L 39.796875 18.109375 
L 3.078125 18.109375 
L 3.078125 26.125 
L 38.375 73.09375 
L 47.796875 73.09375 
L 47.796875 25.53125 
L 59.578125 25.53125 
z
M 40.28125 64.203125 
L 39.984375 64.203125 
Q 35.59375 57.125 31.296875 51.3125 
L 11.859375 25.53125 
L 39.796875 25.53125 
L 39.796875 49.125 
Q 39.796875 54.390625 40.28125 64.203125 
z
" id="IPAexGothic-52"/>
       </defs>
       <use xlink:href="#IPAexGothic-52"/>
       <use x="62.988281" xlink:href="#IPAexGothic-48"/>
       <use x="125.976562" xlink:href="#IPAexGothic-48"/>
      </g>
     </g>
    </g>
    <g id="ytick_4">
     <g id="line2d_12">
      <g>
       <use style="stroke:#000000;stroke-width:0.8;" x="33.095313" xlink:href="#m46712bc6c7" y="102.394204"/>
      </g>
     </g>
     <g id="text_13">
      <!-- 600 -->
      <g transform="translate(7.2 106.139516)scale(0.1 -0.1)">
       <defs>
        <path d="M 16.5 36.375 
Q 23.578125 46.578125 34.90625 46.578125 
Q 45.40625 46.578125 51.8125 39.265625 
Q 57.421875 32.90625 57.421875 23.78125 
Q 57.421875 13.8125 51.125 6.78125 
Q 44.578125 -0.484375 34.03125 -0.484375 
Q 21.484375 -0.484375 14.40625 9.078125 
Q 7.515625 18.40625 7.515625 34.8125 
Q 7.515625 53.515625 15.828125 64.203125 
Q 23.34375 73.828125 35.5 73.828125 
Q 49.859375 73.828125 56.390625 62.890625 
L 49.21875 58.984375 
Q 45.21875 66.65625 35.9375 66.65625 
Q 17.484375 66.65625 16.109375 36.375 
z
M 33.453125 39.796875 
Q 26.3125 39.796875 21.625 34.46875 
Q 17.4375 29.6875 17.4375 24.078125 
Q 17.4375 18.0625 21.140625 13.1875 
Q 26.125 6.6875 33.734375 6.6875 
Q 41.703125 6.6875 45.953125 13.1875 
Q 48.828125 17.625 48.828125 23.484375 
Q 48.828125 30.375 45.015625 34.8125 
Q 40.625 39.796875 33.453125 39.796875 
z
" id="IPAexGothic-54"/>
       </defs>
       <use xlink:href="#IPAexGothic-54"/>
       <use x="62.988281" xlink:href="#IPAexGothic-48"/>
       <use x="125.976562" xlink:href="#IPAexGothic-48"/>
      </g>
     </g>
    </g>
    <g id="ytick_5">
     <g id="line2d_13">
      <g>
       <use style="stroke:#000000;stroke-width:0.8;" x="33.095313" xlink:href="#m46712bc6c7" y="45.80473"/>
      </g>
     </g>
     <g id="text_14">
      <!-- 800 -->
      <g transform="translate(7.2 49.550043)scale(0.1 -0.1)">
       <defs>
        <path d="M 39.703125 37.890625 
Q 57.8125 31.734375 57.8125 18.703125 
Q 57.8125 8.453125 48.4375 3.078125 
Q 41.609375 -0.875 31.5 -0.875 
Q 21.34375 -0.875 14.5 3.078125 
Q 5.421875 8.296875 5.421875 18.40625 
Q 5.421875 31.0625 22.015625 37.203125 
L 22.015625 37.5 
Q 7.515625 42.71875 7.515625 54.828125 
Q 7.515625 64.0625 15.328125 69.625 
Q 21.96875 74.3125 31.546875 74.3125 
Q 42.234375 74.3125 48.921875 68.796875 
Q 55.515625 63.578125 55.515625 55.71875 
Q 55.515625 42.28125 39.703125 38.1875 
z
M 31.59375 41.015625 
Q 46.828125 44.625 46.828125 55.125 
Q 46.828125 61.1875 41.796875 64.84375 
Q 37.703125 67.921875 31.5 67.921875 
Q 25.09375 67.921875 20.796875 64.5 
Q 16.40625 60.890625 16.40625 55.03125 
Q 16.40625 49.21875 21.09375 45.703125 
Q 23.34375 43.890625 26.90625 42.53125 
Q 31 40.875 31.59375 41.015625 
z
M 30.90625 34.515625 
Q 14.40625 30.171875 14.40625 19 
Q 14.40625 12.109375 20.515625 8.6875 
Q 25.09375 6.109375 31.390625 6.109375 
Q 40.234375 6.109375 45.015625 10.890625 
Q 48.53125 14.40625 48.53125 19.53125 
Q 48.53125 24.90625 43.65625 28.90625 
Q 40.765625 31.15625 36.71875 32.8125 
Q 31.984375 34.71875 30.90625 34.515625 
z
" id="IPAexGothic-56"/>
       </defs>
       <use xlink:href="#IPAexGothic-56"/>
       <use x="62.988281" xlink:href="#IPAexGothic-48"/>
       <use x="125.976562" xlink:href="#IPAexGothic-48"/>
      </g>
     </g>
    </g>
   </g>
   <g id="line2d_14">
    <path clip-path="url(#p31679cd34c)" d="M 49.32804 271.879678 
L 50.919484 272.162625 
L 65.242478 272.162625 
L 66.833922 271.59673 
L 68.425366 272.162625 
L 74.791141 272.162625 
L 76.382585 271.313783 
L 77.974029 271.879678 
L 79.565473 271.59673 
L 81.156917 271.879678 
L 82.748361 271.59673 
L 84.339804 271.59673 
L 85.931248 271.313783 
L 87.522692 272.162625 
L 90.70558 271.59673 
L 92.297024 271.879678 
L 93.888468 271.030836 
L 95.479911 271.313783 
L 97.071355 271.030836 
L 98.662799 269.899046 
L 101.845687 271.59673 
L 103.437131 270.464941 
L 105.028575 270.747888 
L 106.620018 271.59673 
L 108.211462 271.879678 
L 109.802906 269.616099 
L 111.39435 272.162625 
L 112.985794 270.181993 
L 114.577238 270.181993 
L 116.168681 269.616099 
L 117.760125 269.616099 
L 119.351569 267.918414 
L 120.943013 269.050204 
L 122.534457 268.201362 
L 124.125901 267.918414 
L 125.717345 265.937783 
L 127.308788 267.069572 
L 128.900232 266.503678 
L 130.491676 265.654836 
L 132.08312 265.088941 
L 133.674564 262.825362 
L 135.266008 263.674204 
L 136.857452 265.088941 
L 138.448895 261.97652 
L 140.040339 265.088941 
L 141.631783 264.523046 
L 143.223227 260.561783 
L 144.814671 265.088941 
L 146.406115 263.108309 
L 147.997558 263.957151 
L 149.589002 264.523046 
L 151.180446 261.410625 
L 152.77189 263.108309 
L 154.363334 259.712941 
L 155.954778 264.523046 
L 157.546222 260.84473 
L 159.137665 263.108309 
L 160.729109 259.429993 
L 162.320553 263.674204 
L 163.911997 262.825362 
L 165.503441 260.84473 
L 167.094885 257.732309 
L 168.686329 256.317572 
L 170.277772 251.507467 
L 171.869216 254.902836 
L 173.46066 251.507467 
L 175.052104 250.375678 
L 176.643548 241.604309 
L 178.234992 245.282625 
L 179.826435 240.189572 
L 181.417879 236.228309 
L 183.009323 211.328941 
L 184.600767 218.402625 
L 186.192211 218.119678 
L 187.783655 190.390836 
L 189.375099 190.95673 
L 190.966542 173.696941 
L 192.557986 191.239678 
L 194.14943 173.696941 
L 195.740874 189.541993 
L 197.332318 201.142836 
L 198.923762 182.468309 
L 200.515206 195.200941 
L 202.106649 193.786204 
L 203.698093 208.21652 
L 205.289537 203.123467 
L 206.880981 204.821151 
L 208.472425 217.270836 
L 210.063869 211.328941 
L 213.246756 215.290204 
L 214.8382 232.832941 
L 216.429644 228.871678 
L 218.021088 231.701151 
L 219.612532 239.623678 
L 221.203976 228.58873 
L 222.795419 242.453151 
L 224.386863 241.038414 
L 225.978307 250.941572 
L 227.569751 242.170204 
L 229.161195 251.790414 
L 230.752639 250.941572 
L 232.344083 248.395046 
L 233.935526 255.751678 
L 235.52697 258.015257 
L 237.118414 253.488099 
L 238.709858 256.883467 
L 240.301302 256.317572 
L 241.892746 262.259467 
L 243.48419 263.957151 
L 245.075633 262.542414 
L 246.667077 264.805993 
L 248.258521 263.957151 
L 249.849965 265.937783 
L 251.441409 267.069572 
L 253.032853 267.069572 
L 254.624296 266.786625 
L 256.21574 266.22073 
L 257.807184 268.201362 
L 259.398628 268.201362 
L 260.990072 267.069572 
L 262.581516 269.616099 
L 264.17296 268.201362 
L 265.764403 269.616099 
L 267.355847 267.35252 
L 268.947291 270.181993 
L 270.538735 269.050204 
L 272.130179 267.635467 
L 273.721623 269.333151 
L 275.313067 268.484309 
L 276.90451 270.464941 
L 278.495954 270.181993 
L 280.087398 269.333151 
L 281.678842 269.333151 
L 284.86173 271.030836 
L 286.453173 271.313783 
L 288.044617 269.050204 
L 291.227505 270.747888 
L 292.818949 270.464941 
L 294.410393 268.201362 
L 296.001837 269.050204 
L 297.59328 269.050204 
L 299.184724 269.899046 
L 300.776168 266.786625 
L 302.367612 268.484309 
L 303.959056 266.786625 
L 305.5505 270.181993 
L 307.141944 268.767257 
L 308.733387 267.918414 
L 310.324831 268.201362 
L 311.916275 269.616099 
L 313.507719 268.767257 
L 315.099163 267.635467 
L 316.690607 268.484309 
L 318.28205 268.201362 
L 319.873494 269.616099 
L 321.464938 262.825362 
L 323.056382 265.937783 
L 324.647826 262.825362 
L 326.23927 263.108309 
L 327.830714 264.523046 
L 329.422157 256.60052 
L 331.013601 263.108309 
L 332.605045 259.712941 
L 334.196489 258.581151 
L 335.787933 254.902836 
L 337.379377 256.60052 
L 338.970821 254.053993 
L 340.562264 251.22452 
L 342.153708 250.375678 
L 343.745152 242.170204 
L 345.336596 243.301993 
L 346.92804 240.755467 
L 348.519484 233.96473 
L 350.110927 236.228309 
L 351.702371 231.701151 
L 353.293815 231.418204 
L 354.885259 218.119678 
L 356.476703 211.045993 
L 358.068147 211.045993 
L 359.659591 213.875467 
L 361.251034 211.045993 
L 362.842478 213.309572 
L 364.433922 222.929783 
L 366.025366 229.72052 
L 367.61681 235.662414 
L 369.208254 250.09273 
L 370.799698 262.825362 
L 372.391141 267.918414 
L 373.982585 271.313783 
L 373.982585 271.313783 
" style="fill:none;stroke:#1f77b4;stroke-linecap:square;stroke-width:1.5;"/>
    <defs>
     <path d="M 0 3 
C 0.795609 3 1.55874 2.683901 2.12132 2.12132 
C 2.683901 1.55874 3 0.795609 3 0 
C 3 -0.795609 2.683901 -1.55874 2.12132 -2.12132 
C 1.55874 -2.683901 0.795609 -3 0 -3 
C -0.795609 -3 -1.55874 -2.683901 -2.12132 -2.12132 
C -2.683901 -1.55874 -3 -0.795609 -3 0 
C -3 0.795609 -2.683901 1.55874 -2.12132 2.12132 
C -1.55874 2.683901 -0.795609 3 0 3 
z
" id="mfec504e9b9" style="stroke:#1f77b4;"/>
    </defs>
    <g clip-path="url(#p31679cd34c)">
     <use style="fill:#1f77b4;stroke:#1f77b4;" x="49.32804" xlink:href="#mfec504e9b9" y="271.879678"/>
     <use style="fill:#1f77b4;stroke:#1f77b4;" x="50.919484" xlink:href="#mfec504e9b9" y="272.162625"/>
     <use style="fill:#1f77b4;stroke:#1f77b4;" x="52.510927" xlink:href="#mfec504e9b9" y="272.162625"/>
     <use style="fill:#1f77b4;stroke:#1f77b4;" x="54.102371" xlink:href="#mfec504e9b9" y="272.162625"/>
     <use style="fill:#1f77b4;stroke:#1f77b4;" x="55.693815" xlink:href="#mfec504e9b9" y="272.162625"/>
     <use style="fill:#1f77b4;stroke:#1f77b4;" x="57.285259" xlink:href="#mfec504e9b9" y="272.162625"/>
     <use style="fill:#1f77b4;stroke:#1f77b4;" x="58.876703" xlink:href="#mfec504e9b9" y="272.162625"/>
     <use style="fill:#1f77b4;stroke:#1f77b4;" x="60.468147" xlink:href="#mfec504e9b9" y="272.162625"/>
     <use style="fill:#1f77b4;stroke:#1f77b4;" x="62.059591" xlink:href="#mfec504e9b9" y="272.162625"/>
     <use style="fill:#1f77b4;stroke:#1f77b4;" x="63.651034" xlink:href="#mfec504e9b9" y="272.162625"/>
     <use style="fill:#1f77b4;stroke:#1f77b4;" x="65.242478" xlink:href="#mfec504e9b9" y="272.162625"/>
     <use style="fill:#1f77b4;stroke:#1f77b4;" x="66.833922" xlink:href="#mfec504e9b9" y="271.59673"/>
     <use style="fill:#1f77b4;stroke:#1f77b4;" x="68.425366" xlink:href="#mfec504e9b9" y="272.162625"/>
     <use style="fill:#1f77b4;stroke:#1f77b4;" x="70.01681" xlink:href="#mfec504e9b9" y="272.162625"/>
     <use style="fill:#1f77b4;stroke:#1f77b4;" x="71.608254" xlink:href="#mfec504e9b9" y="272.162625"/>
     <use style="fill:#1f77b4;stroke:#1f77b4;" x="73.199698" xlink:href="#mfec504e9b9" y="272.162625"/>
     <use style="fill:#1f77b4;stroke:#1f77b4;" x="74.791141" xlink:href="#mfec504e9b9" y="272.162625"/>
     <use style="fill:#1f77b4;stroke:#1f77b4;" x="76.382585" xlink:href="#mfec504e9b9" y="271.313783"/>
     <use style="fill:#1f77b4;stroke:#1f77b4;" x="77.974029" xlink:href="#mfec504e9b9" y="271.879678"/>
     <use style="fill:#1f77b4;stroke:#1f77b4;" x="79.565473" xlink:href="#mfec504e9b9" y="271.59673"/>
     <use style="fill:#1f77b4;stroke:#1f77b4;" x="81.156917" xlink:href="#mfec504e9b9" y="271.879678"/>
     <use style="fill:#1f77b4;stroke:#1f77b4;" x="82.748361" xlink:href="#mfec504e9b9" y="271.59673"/>
     <use style="fill:#1f77b4;stroke:#1f77b4;" x="84.339804" xlink:href="#mfec504e9b9" y="271.59673"/>
     <use style="fill:#1f77b4;stroke:#1f77b4;" x="85.931248" xlink:href="#mfec504e9b9" y="271.313783"/>
     <use style="fill:#1f77b4;stroke:#1f77b4;" x="87.522692" xlink:href="#mfec504e9b9" y="272.162625"/>
     <use style="fill:#1f77b4;stroke:#1f77b4;" x="89.114136" xlink:href="#mfec504e9b9" y="271.879678"/>
     <use style="fill:#1f77b4;stroke:#1f77b4;" x="90.70558" xlink:href="#mfec504e9b9" y="271.59673"/>
     <use style="fill:#1f77b4;stroke:#1f77b4;" x="92.297024" xlink:href="#mfec504e9b9" y="271.879678"/>
     <use style="fill:#1f77b4;stroke:#1f77b4;" x="93.888468" xlink:href="#mfec504e9b9" y="271.030836"/>
     <use style="fill:#1f77b4;stroke:#1f77b4;" x="95.479911" xlink:href="#mfec504e9b9" y="271.313783"/>
     <use style="fill:#1f77b4;stroke:#1f77b4;" x="97.071355" xlink:href="#mfec504e9b9" y="271.030836"/>
     <use style="fill:#1f77b4;stroke:#1f77b4;" x="98.662799" xlink:href="#mfec504e9b9" y="269.899046"/>
     <use style="fill:#1f77b4;stroke:#1f77b4;" x="100.254243" xlink:href="#mfec504e9b9" y="270.747888"/>
     <use style="fill:#1f77b4;stroke:#1f77b4;" x="101.845687" xlink:href="#mfec504e9b9" y="271.59673"/>
     <use style="fill:#1f77b4;stroke:#1f77b4;" x="103.437131" xlink:href="#mfec504e9b9" y="270.464941"/>
     <use style="fill:#1f77b4;stroke:#1f77b4;" x="105.028575" xlink:href="#mfec504e9b9" y="270.747888"/>
     <use style="fill:#1f77b4;stroke:#1f77b4;" x="106.620018" xlink:href="#mfec504e9b9" y="271.59673"/>
     <use style="fill:#1f77b4;stroke:#1f77b4;" x="108.211462" xlink:href="#mfec504e9b9" y="271.879678"/>
     <use style="fill:#1f77b4;stroke:#1f77b4;" x="109.802906" xlink:href="#mfec504e9b9" y="269.616099"/>
     <use style="fill:#1f77b4;stroke:#1f77b4;" x="111.39435" xlink:href="#mfec504e9b9" y="272.162625"/>
     <use style="fill:#1f77b4;stroke:#1f77b4;" x="112.985794" xlink:href="#mfec504e9b9" y="270.181993"/>
     <use style="fill:#1f77b4;stroke:#1f77b4;" x="114.577238" xlink:href="#mfec504e9b9" y="270.181993"/>
     <use style="fill:#1f77b4;stroke:#1f77b4;" x="116.168681" xlink:href="#mfec504e9b9" y="269.616099"/>
     <use style="fill:#1f77b4;stroke:#1f77b4;" x="117.760125" xlink:href="#mfec504e9b9" y="269.616099"/>
     <use style="fill:#1f77b4;stroke:#1f77b4;" x="119.351569" xlink:href="#mfec504e9b9" y="267.918414"/>
     <use style="fill:#1f77b4;stroke:#1f77b4;" x="120.943013" xlink:href="#mfec504e9b9" y="269.050204"/>
     <use style="fill:#1f77b4;stroke:#1f77b4;" x="122.534457" xlink:href="#mfec504e9b9" y="268.201362"/>
     <use style="fill:#1f77b4;stroke:#1f77b4;" x="124.125901" xlink:href="#mfec504e9b9" y="267.918414"/>
     <use style="fill:#1f77b4;stroke:#1f77b4;" x="125.717345" xlink:href="#mfec504e9b9" y="265.937783"/>
     <use style="fill:#1f77b4;stroke:#1f77b4;" x="127.308788" xlink:href="#mfec504e9b9" y="267.069572"/>
     <use style="fill:#1f77b4;stroke:#1f77b4;" x="128.900232" xlink:href="#mfec504e9b9" y="266.503678"/>
     <use style="fill:#1f77b4;stroke:#1f77b4;" x="130.491676" xlink:href="#mfec504e9b9" y="265.654836"/>
     <use style="fill:#1f77b4;stroke:#1f77b4;" x="132.08312" xlink:href="#mfec504e9b9" y="265.088941"/>
     <use style="fill:#1f77b4;stroke:#1f77b4;" x="133.674564" xlink:href="#mfec504e9b9" y="262.825362"/>
     <use style="fill:#1f77b4;stroke:#1f77b4;" x="135.266008" xlink:href="#mfec504e9b9" y="263.674204"/>
     <use style="fill:#1f77b4;stroke:#1f77b4;" x="136.857452" xlink:href="#mfec504e9b9" y="265.088941"/>
     <use style="fill:#1f77b4;stroke:#1f77b4;" x="138.448895" xlink:href="#mfec504e9b9" y="261.97652"/>
     <use style="fill:#1f77b4;stroke:#1f77b4;" x="140.040339" xlink:href="#mfec504e9b9" y="265.088941"/>
     <use style="fill:#1f77b4;stroke:#1f77b4;" x="141.631783" xlink:href="#mfec504e9b9" y="264.523046"/>
     <use style="fill:#1f77b4;stroke:#1f77b4;" x="143.223227" xlink:href="#mfec504e9b9" y="260.561783"/>
     <use style="fill:#1f77b4;stroke:#1f77b4;" x="144.814671" xlink:href="#mfec504e9b9" y="265.088941"/>
     <use style="fill:#1f77b4;stroke:#1f77b4;" x="146.406115" xlink:href="#mfec504e9b9" y="263.108309"/>
     <use style="fill:#1f77b4;stroke:#1f77b4;" x="147.997558" xlink:href="#mfec504e9b9" y="263.957151"/>
     <use style="fill:#1f77b4;stroke:#1f77b4;" x="149.589002" xlink:href="#mfec504e9b9" y="264.523046"/>
     <use style="fill:#1f77b4;stroke:#1f77b4;" x="151.180446" xlink:href="#mfec504e9b9" y="261.410625"/>
     <use style="fill:#1f77b4;stroke:#1f77b4;" x="152.77189" xlink:href="#mfec504e9b9" y="263.108309"/>
     <use style="fill:#1f77b4;stroke:#1f77b4;" x="154.363334" xlink:href="#mfec504e9b9" y="259.712941"/>
     <use style="fill:#1f77b4;stroke:#1f77b4;" x="155.954778" xlink:href="#mfec504e9b9" y="264.523046"/>
     <use style="fill:#1f77b4;stroke:#1f77b4;" x="157.546222" xlink:href="#mfec504e9b9" y="260.84473"/>
     <use style="fill:#1f77b4;stroke:#1f77b4;" x="159.137665" xlink:href="#mfec504e9b9" y="263.108309"/>
     <use style="fill:#1f77b4;stroke:#1f77b4;" x="160.729109" xlink:href="#mfec504e9b9" y="259.429993"/>
     <use style="fill:#1f77b4;stroke:#1f77b4;" x="162.320553" xlink:href="#mfec504e9b9" y="263.674204"/>
     <use style="fill:#1f77b4;stroke:#1f77b4;" x="163.911997" xlink:href="#mfec504e9b9" y="262.825362"/>
     <use style="fill:#1f77b4;stroke:#1f77b4;" x="165.503441" xlink:href="#mfec504e9b9" y="260.84473"/>
     <use style="fill:#1f77b4;stroke:#1f77b4;" x="167.094885" xlink:href="#mfec504e9b9" y="257.732309"/>
     <use style="fill:#1f77b4;stroke:#1f77b4;" x="168.686329" xlink:href="#mfec504e9b9" y="256.317572"/>
     <use style="fill:#1f77b4;stroke:#1f77b4;" x="170.277772" xlink:href="#mfec504e9b9" y="251.507467"/>
     <use style="fill:#1f77b4;stroke:#1f77b4;" x="171.869216" xlink:href="#mfec504e9b9" y="254.902836"/>
     <use style="fill:#1f77b4;stroke:#1f77b4;" x="173.46066" xlink:href="#mfec504e9b9" y="251.507467"/>
     <use style="fill:#1f77b4;stroke:#1f77b4;" x="175.052104" xlink:href="#mfec504e9b9" y="250.375678"/>
     <use style="fill:#1f77b4;stroke:#1f77b4;" x="176.643548" xlink:href="#mfec504e9b9" y="241.604309"/>
     <use style="fill:#1f77b4;stroke:#1f77b4;" x="178.234992" xlink:href="#mfec504e9b9" y="245.282625"/>
     <use style="fill:#1f77b4;stroke:#1f77b4;" x="179.826435" xlink:href="#mfec504e9b9" y="240.189572"/>
     <use style="fill:#1f77b4;stroke:#1f77b4;" x="181.417879" xlink:href="#mfec504e9b9" y="236.228309"/>
     <use style="fill:#1f77b4;stroke:#1f77b4;" x="183.009323" xlink:href="#mfec504e9b9" y="211.328941"/>
     <use style="fill:#1f77b4;stroke:#1f77b4;" x="184.600767" xlink:href="#mfec504e9b9" y="218.402625"/>
     <use style="fill:#1f77b4;stroke:#1f77b4;" x="186.192211" xlink:href="#mfec504e9b9" y="218.119678"/>
     <use style="fill:#1f77b4;stroke:#1f77b4;" x="187.783655" xlink:href="#mfec504e9b9" y="190.390836"/>
     <use style="fill:#1f77b4;stroke:#1f77b4;" x="189.375099" xlink:href="#mfec504e9b9" y="190.95673"/>
     <use style="fill:#1f77b4;stroke:#1f77b4;" x="190.966542" xlink:href="#mfec504e9b9" y="173.696941"/>
     <use style="fill:#1f77b4;stroke:#1f77b4;" x="192.557986" xlink:href="#mfec504e9b9" y="191.239678"/>
     <use style="fill:#1f77b4;stroke:#1f77b4;" x="194.14943" xlink:href="#mfec504e9b9" y="173.696941"/>
     <use style="fill:#1f77b4;stroke:#1f77b4;" x="195.740874" xlink:href="#mfec504e9b9" y="189.541993"/>
     <use style="fill:#1f77b4;stroke:#1f77b4;" x="197.332318" xlink:href="#mfec504e9b9" y="201.142836"/>
     <use style="fill:#1f77b4;stroke:#1f77b4;" x="198.923762" xlink:href="#mfec504e9b9" y="182.468309"/>
     <use style="fill:#1f77b4;stroke:#1f77b4;" x="200.515206" xlink:href="#mfec504e9b9" y="195.200941"/>
     <use style="fill:#1f77b4;stroke:#1f77b4;" x="202.106649" xlink:href="#mfec504e9b9" y="193.786204"/>
     <use style="fill:#1f77b4;stroke:#1f77b4;" x="203.698093" xlink:href="#mfec504e9b9" y="208.21652"/>
     <use style="fill:#1f77b4;stroke:#1f77b4;" x="205.289537" xlink:href="#mfec504e9b9" y="203.123467"/>
     <use style="fill:#1f77b4;stroke:#1f77b4;" x="206.880981" xlink:href="#mfec504e9b9" y="204.821151"/>
     <use style="fill:#1f77b4;stroke:#1f77b4;" x="208.472425" xlink:href="#mfec504e9b9" y="217.270836"/>
     <use style="fill:#1f77b4;stroke:#1f77b4;" x="210.063869" xlink:href="#mfec504e9b9" y="211.328941"/>
     <use style="fill:#1f77b4;stroke:#1f77b4;" x="211.655313" xlink:href="#mfec504e9b9" y="213.309572"/>
     <use style="fill:#1f77b4;stroke:#1f77b4;" x="213.246756" xlink:href="#mfec504e9b9" y="215.290204"/>
     <use style="fill:#1f77b4;stroke:#1f77b4;" x="214.8382" xlink:href="#mfec504e9b9" y="232.832941"/>
     <use style="fill:#1f77b4;stroke:#1f77b4;" x="216.429644" xlink:href="#mfec504e9b9" y="228.871678"/>
     <use style="fill:#1f77b4;stroke:#1f77b4;" x="218.021088" xlink:href="#mfec504e9b9" y="231.701151"/>
     <use style="fill:#1f77b4;stroke:#1f77b4;" x="219.612532" xlink:href="#mfec504e9b9" y="239.623678"/>
     <use style="fill:#1f77b4;stroke:#1f77b4;" x="221.203976" xlink:href="#mfec504e9b9" y="228.58873"/>
     <use style="fill:#1f77b4;stroke:#1f77b4;" x="222.795419" xlink:href="#mfec504e9b9" y="242.453151"/>
     <use style="fill:#1f77b4;stroke:#1f77b4;" x="224.386863" xlink:href="#mfec504e9b9" y="241.038414"/>
     <use style="fill:#1f77b4;stroke:#1f77b4;" x="225.978307" xlink:href="#mfec504e9b9" y="250.941572"/>
     <use style="fill:#1f77b4;stroke:#1f77b4;" x="227.569751" xlink:href="#mfec504e9b9" y="242.170204"/>
     <use style="fill:#1f77b4;stroke:#1f77b4;" x="229.161195" xlink:href="#mfec504e9b9" y="251.790414"/>
     <use style="fill:#1f77b4;stroke:#1f77b4;" x="230.752639" xlink:href="#mfec504e9b9" y="250.941572"/>
     <use style="fill:#1f77b4;stroke:#1f77b4;" x="232.344083" xlink:href="#mfec504e9b9" y="248.395046"/>
     <use style="fill:#1f77b4;stroke:#1f77b4;" x="233.935526" xlink:href="#mfec504e9b9" y="255.751678"/>
     <use style="fill:#1f77b4;stroke:#1f77b4;" x="235.52697" xlink:href="#mfec504e9b9" y="258.015257"/>
     <use style="fill:#1f77b4;stroke:#1f77b4;" x="237.118414" xlink:href="#mfec504e9b9" y="253.488099"/>
     <use style="fill:#1f77b4;stroke:#1f77b4;" x="238.709858" xlink:href="#mfec504e9b9" y="256.883467"/>
     <use style="fill:#1f77b4;stroke:#1f77b4;" x="240.301302" xlink:href="#mfec504e9b9" y="256.317572"/>
     <use style="fill:#1f77b4;stroke:#1f77b4;" x="241.892746" xlink:href="#mfec504e9b9" y="262.259467"/>
     <use style="fill:#1f77b4;stroke:#1f77b4;" x="243.48419" xlink:href="#mfec504e9b9" y="263.957151"/>
     <use style="fill:#1f77b4;stroke:#1f77b4;" x="245.075633" xlink:href="#mfec504e9b9" y="262.542414"/>
     <use style="fill:#1f77b4;stroke:#1f77b4;" x="246.667077" xlink:href="#mfec504e9b9" y="264.805993"/>
     <use style="fill:#1f77b4;stroke:#1f77b4;" x="248.258521" xlink:href="#mfec504e9b9" y="263.957151"/>
     <use style="fill:#1f77b4;stroke:#1f77b4;" x="249.849965" xlink:href="#mfec504e9b9" y="265.937783"/>
     <use style="fill:#1f77b4;stroke:#1f77b4;" x="251.441409" xlink:href="#mfec504e9b9" y="267.069572"/>
     <use style="fill:#1f77b4;stroke:#1f77b4;" x="253.032853" xlink:href="#mfec504e9b9" y="267.069572"/>
     <use style="fill:#1f77b4;stroke:#1f77b4;" x="254.624296" xlink:href="#mfec504e9b9" y="266.786625"/>
     <use style="fill:#1f77b4;stroke:#1f77b4;" x="256.21574" xlink:href="#mfec504e9b9" y="266.22073"/>
     <use style="fill:#1f77b4;stroke:#1f77b4;" x="257.807184" xlink:href="#mfec504e9b9" y="268.201362"/>
     <use style="fill:#1f77b4;stroke:#1f77b4;" x="259.398628" xlink:href="#mfec504e9b9" y="268.201362"/>
     <use style="fill:#1f77b4;stroke:#1f77b4;" x="260.990072" xlink:href="#mfec504e9b9" y="267.069572"/>
     <use style="fill:#1f77b4;stroke:#1f77b4;" x="262.581516" xlink:href="#mfec504e9b9" y="269.616099"/>
     <use style="fill:#1f77b4;stroke:#1f77b4;" x="264.17296" xlink:href="#mfec504e9b9" y="268.201362"/>
     <use style="fill:#1f77b4;stroke:#1f77b4;" x="265.764403" xlink:href="#mfec504e9b9" y="269.616099"/>
     <use style="fill:#1f77b4;stroke:#1f77b4;" x="267.355847" xlink:href="#mfec504e9b9" y="267.35252"/>
     <use style="fill:#1f77b4;stroke:#1f77b4;" x="268.947291" xlink:href="#mfec504e9b9" y="270.181993"/>
     <use style="fill:#1f77b4;stroke:#1f77b4;" x="270.538735" xlink:href="#mfec504e9b9" y="269.050204"/>
     <use style="fill:#1f77b4;stroke:#1f77b4;" x="272.130179" xlink:href="#mfec504e9b9" y="267.635467"/>
     <use style="fill:#1f77b4;stroke:#1f77b4;" x="273.721623" xlink:href="#mfec504e9b9" y="269.333151"/>
     <use style="fill:#1f77b4;stroke:#1f77b4;" x="275.313067" xlink:href="#mfec504e9b9" y="268.484309"/>
     <use style="fill:#1f77b4;stroke:#1f77b4;" x="276.90451" xlink:href="#mfec504e9b9" y="270.464941"/>
     <use style="fill:#1f77b4;stroke:#1f77b4;" x="278.495954" xlink:href="#mfec504e9b9" y="270.181993"/>
     <use style="fill:#1f77b4;stroke:#1f77b4;" x="280.087398" xlink:href="#mfec504e9b9" y="269.333151"/>
     <use style="fill:#1f77b4;stroke:#1f77b4;" x="281.678842" xlink:href="#mfec504e9b9" y="269.333151"/>
     <use style="fill:#1f77b4;stroke:#1f77b4;" x="283.270286" xlink:href="#mfec504e9b9" y="270.181993"/>
     <use style="fill:#1f77b4;stroke:#1f77b4;" x="284.86173" xlink:href="#mfec504e9b9" y="271.030836"/>
     <use style="fill:#1f77b4;stroke:#1f77b4;" x="286.453173" xlink:href="#mfec504e9b9" y="271.313783"/>
     <use style="fill:#1f77b4;stroke:#1f77b4;" x="288.044617" xlink:href="#mfec504e9b9" y="269.050204"/>
     <use style="fill:#1f77b4;stroke:#1f77b4;" x="289.636061" xlink:href="#mfec504e9b9" y="269.899046"/>
     <use style="fill:#1f77b4;stroke:#1f77b4;" x="291.227505" xlink:href="#mfec504e9b9" y="270.747888"/>
     <use style="fill:#1f77b4;stroke:#1f77b4;" x="292.818949" xlink:href="#mfec504e9b9" y="270.464941"/>
     <use style="fill:#1f77b4;stroke:#1f77b4;" x="294.410393" xlink:href="#mfec504e9b9" y="268.201362"/>
     <use style="fill:#1f77b4;stroke:#1f77b4;" x="296.001837" xlink:href="#mfec504e9b9" y="269.050204"/>
     <use style="fill:#1f77b4;stroke:#1f77b4;" x="297.59328" xlink:href="#mfec504e9b9" y="269.050204"/>
     <use style="fill:#1f77b4;stroke:#1f77b4;" x="299.184724" xlink:href="#mfec504e9b9" y="269.899046"/>
     <use style="fill:#1f77b4;stroke:#1f77b4;" x="300.776168" xlink:href="#mfec504e9b9" y="266.786625"/>
     <use style="fill:#1f77b4;stroke:#1f77b4;" x="302.367612" xlink:href="#mfec504e9b9" y="268.484309"/>
     <use style="fill:#1f77b4;stroke:#1f77b4;" x="303.959056" xlink:href="#mfec504e9b9" y="266.786625"/>
     <use style="fill:#1f77b4;stroke:#1f77b4;" x="305.5505" xlink:href="#mfec504e9b9" y="270.181993"/>
     <use style="fill:#1f77b4;stroke:#1f77b4;" x="307.141944" xlink:href="#mfec504e9b9" y="268.767257"/>
     <use style="fill:#1f77b4;stroke:#1f77b4;" x="308.733387" xlink:href="#mfec504e9b9" y="267.918414"/>
     <use style="fill:#1f77b4;stroke:#1f77b4;" x="310.324831" xlink:href="#mfec504e9b9" y="268.201362"/>
     <use style="fill:#1f77b4;stroke:#1f77b4;" x="311.916275" xlink:href="#mfec504e9b9" y="269.616099"/>
     <use style="fill:#1f77b4;stroke:#1f77b4;" x="313.507719" xlink:href="#mfec504e9b9" y="268.767257"/>
     <use style="fill:#1f77b4;stroke:#1f77b4;" x="315.099163" xlink:href="#mfec504e9b9" y="267.635467"/>
     <use style="fill:#1f77b4;stroke:#1f77b4;" x="316.690607" xlink:href="#mfec504e9b9" y="268.484309"/>
     <use style="fill:#1f77b4;stroke:#1f77b4;" x="318.28205" xlink:href="#mfec504e9b9" y="268.201362"/>
     <use style="fill:#1f77b4;stroke:#1f77b4;" x="319.873494" xlink:href="#mfec504e9b9" y="269.616099"/>
     <use style="fill:#1f77b4;stroke:#1f77b4;" x="321.464938" xlink:href="#mfec504e9b9" y="262.825362"/>
     <use style="fill:#1f77b4;stroke:#1f77b4;" x="323.056382" xlink:href="#mfec504e9b9" y="265.937783"/>
     <use style="fill:#1f77b4;stroke:#1f77b4;" x="324.647826" xlink:href="#mfec504e9b9" y="262.825362"/>
     <use style="fill:#1f77b4;stroke:#1f77b4;" x="326.23927" xlink:href="#mfec504e9b9" y="263.108309"/>
     <use style="fill:#1f77b4;stroke:#1f77b4;" x="327.830714" xlink:href="#mfec504e9b9" y="264.523046"/>
     <use style="fill:#1f77b4;stroke:#1f77b4;" x="329.422157" xlink:href="#mfec504e9b9" y="256.60052"/>
     <use style="fill:#1f77b4;stroke:#1f77b4;" x="331.013601" xlink:href="#mfec504e9b9" y="263.108309"/>
     <use style="fill:#1f77b4;stroke:#1f77b4;" x="332.605045" xlink:href="#mfec504e9b9" y="259.712941"/>
     <use style="fill:#1f77b4;stroke:#1f77b4;" x="334.196489" xlink:href="#mfec504e9b9" y="258.581151"/>
     <use style="fill:#1f77b4;stroke:#1f77b4;" x="335.787933" xlink:href="#mfec504e9b9" y="254.902836"/>
     <use style="fill:#1f77b4;stroke:#1f77b4;" x="337.379377" xlink:href="#mfec504e9b9" y="256.60052"/>
     <use style="fill:#1f77b4;stroke:#1f77b4;" x="338.970821" xlink:href="#mfec504e9b9" y="254.053993"/>
     <use style="fill:#1f77b4;stroke:#1f77b4;" x="340.562264" xlink:href="#mfec504e9b9" y="251.22452"/>
     <use style="fill:#1f77b4;stroke:#1f77b4;" x="342.153708" xlink:href="#mfec504e9b9" y="250.375678"/>
     <use style="fill:#1f77b4;stroke:#1f77b4;" x="343.745152" xlink:href="#mfec504e9b9" y="242.170204"/>
     <use style="fill:#1f77b4;stroke:#1f77b4;" x="345.336596" xlink:href="#mfec504e9b9" y="243.301993"/>
     <use style="fill:#1f77b4;stroke:#1f77b4;" x="346.92804" xlink:href="#mfec504e9b9" y="240.755467"/>
     <use style="fill:#1f77b4;stroke:#1f77b4;" x="348.519484" xlink:href="#mfec504e9b9" y="233.96473"/>
     <use style="fill:#1f77b4;stroke:#1f77b4;" x="350.110927" xlink:href="#mfec504e9b9" y="236.228309"/>
     <use style="fill:#1f77b4;stroke:#1f77b4;" x="351.702371" xlink:href="#mfec504e9b9" y="231.701151"/>
     <use style="fill:#1f77b4;stroke:#1f77b4;" x="353.293815" xlink:href="#mfec504e9b9" y="231.418204"/>
     <use style="fill:#1f77b4;stroke:#1f77b4;" x="354.885259" xlink:href="#mfec504e9b9" y="218.119678"/>
     <use style="fill:#1f77b4;stroke:#1f77b4;" x="356.476703" xlink:href="#mfec504e9b9" y="211.045993"/>
     <use style="fill:#1f77b4;stroke:#1f77b4;" x="358.068147" xlink:href="#mfec504e9b9" y="211.045993"/>
     <use style="fill:#1f77b4;stroke:#1f77b4;" x="359.659591" xlink:href="#mfec504e9b9" y="213.875467"/>
     <use style="fill:#1f77b4;stroke:#1f77b4;" x="361.251034" xlink:href="#mfec504e9b9" y="211.045993"/>
     <use style="fill:#1f77b4;stroke:#1f77b4;" x="362.842478" xlink:href="#mfec504e9b9" y="213.309572"/>
     <use style="fill:#1f77b4;stroke:#1f77b4;" x="364.433922" xlink:href="#mfec504e9b9" y="222.929783"/>
     <use style="fill:#1f77b4;stroke:#1f77b4;" x="366.025366" xlink:href="#mfec504e9b9" y="229.72052"/>
     <use style="fill:#1f77b4;stroke:#1f77b4;" x="367.61681" xlink:href="#mfec504e9b9" y="235.662414"/>
     <use style="fill:#1f77b4;stroke:#1f77b4;" x="369.208254" xlink:href="#mfec504e9b9" y="250.09273"/>
     <use style="fill:#1f77b4;stroke:#1f77b4;" x="370.799698" xlink:href="#mfec504e9b9" y="262.825362"/>
     <use style="fill:#1f77b4;stroke:#1f77b4;" x="372.391141" xlink:href="#mfec504e9b9" y="267.918414"/>
     <use style="fill:#1f77b4;stroke:#1f77b4;" x="373.982585" xlink:href="#mfec504e9b9" y="271.313783"/>
    </g>
   </g>
   <g id="line2d_15">
    <path clip-path="url(#p31679cd34c)" d="M 49.32804 272.162625 
L 66.833922 272.162625 
L 68.425366 271.879678 
L 70.01681 272.162625 
L 81.156917 272.162625 
L 82.748361 271.879678 
L 85.931248 271.879678 
L 87.522692 272.162625 
L 89.114136 271.313783 
L 90.70558 271.879678 
L 92.297024 270.464941 
L 93.888468 271.59673 
L 95.479911 271.313783 
L 97.071355 272.162625 
L 98.662799 272.162625 
L 100.254243 271.030836 
L 103.437131 272.162625 
L 105.028575 271.879678 
L 106.620018 272.162625 
L 108.211462 272.162625 
L 109.802906 271.59673 
L 112.985794 272.162625 
L 117.760125 268.767257 
L 119.351569 270.464941 
L 120.943013 270.181993 
L 122.534457 269.333151 
L 124.125901 269.616099 
L 125.717345 269.616099 
L 127.308788 267.35252 
L 128.900232 264.805993 
L 130.491676 269.333151 
L 132.08312 268.767257 
L 133.674564 267.918414 
L 135.266008 267.35252 
L 136.857452 265.088941 
L 138.448895 266.503678 
L 140.040339 269.899046 
L 141.631783 268.201362 
L 144.814671 266.503678 
L 146.406115 261.97652 
L 147.997558 261.97652 
L 149.589002 256.034625 
L 151.180446 261.410625 
L 152.77189 261.693572 
L 154.363334 264.805993 
L 155.954778 252.639257 
L 159.137665 259.429993 
L 160.729109 260.561783 
L 162.320553 256.883467 
L 163.911997 263.674204 
L 165.503441 266.786625 
L 167.094885 259.147046 
L 168.686329 259.712941 
L 170.277772 259.147046 
L 171.869216 259.429993 
L 173.46066 259.995888 
L 175.052104 259.995888 
L 176.643548 261.410625 
L 178.234992 249.526836 
L 179.826435 246.131467 
L 181.417879 244.150836 
L 183.009323 236.511257 
L 184.600767 213.875467 
L 186.192211 227.173993 
L 187.783655 230.003467 
L 189.375099 205.387046 
L 190.966542 193.220309 
L 192.557986 189.259046 
L 194.14943 173.979888 
L 195.740874 161.530204 
L 197.332318 186.429572 
L 198.923762 197.747467 
L 200.515206 136.630836 
L 202.106649 136.630836 
L 203.698093 90.510414 
L 205.289537 91.642204 
L 206.880981 75.514204 
L 208.472425 142.289783 
L 210.063869 183.600099 
L 211.655313 124.464099 
L 213.246756 106.921362 
L 214.8382 121.634625 
L 216.429644 112.580309 
L 218.021088 112.014414 
L 219.612532 178.224099 
L 221.203976 169.735678 
L 222.795419 155.588309 
L 224.386863 147.665783 
L 225.978307 151.627046 
L 227.569751 147.099888 
L 229.161195 169.169783 
L 230.752639 213.59252 
L 232.344083 223.21273 
L 233.935526 189.541993 
L 235.52697 210.480099 
L 237.118414 220.666204 
L 238.709858 190.673783 
L 240.301302 186.71252 
L 241.892746 219.534414 
L 245.075633 239.34073 
L 246.667077 245.282625 
L 248.258521 246.697362 
L 249.849965 244.150836 
L 251.441409 240.47252 
L 253.032853 252.922204 
L 254.624296 262.259467 
L 256.21574 250.941572 
L 257.807184 250.658625 
L 259.398628 249.243888 
L 260.990072 255.185783 
L 262.581516 260.278836 
L 264.17296 264.805993 
L 265.764403 266.22073 
L 267.355847 259.429993 
L 268.947291 263.391257 
L 270.538735 261.410625 
L 272.130179 263.108309 
L 273.721623 265.371888 
L 275.313067 263.957151 
L 276.90451 264.805993 
L 278.495954 264.805993 
L 280.087398 259.712941 
L 281.678842 258.864099 
L 283.270286 247.829151 
L 284.86173 259.995888 
L 286.453173 264.523046 
L 288.044617 261.693572 
L 289.636061 257.732309 
L 291.227505 263.674204 
L 292.818949 256.60052 
L 296.001837 260.561783 
L 297.59328 262.825362 
L 299.184724 264.240099 
L 300.776168 259.712941 
L 302.367612 260.561783 
L 303.959056 258.864099 
L 305.5505 256.317572 
L 307.141944 260.84473 
L 308.733387 251.507467 
L 310.324831 251.507467 
L 311.916275 257.732309 
L 313.507719 261.127678 
L 315.099163 253.488099 
L 316.690607 255.185783 
L 318.28205 254.053993 
L 319.873494 257.449362 
L 321.464938 259.429993 
L 323.056382 253.488099 
L 324.647826 243.584941 
L 326.23927 250.09273 
L 327.830714 244.150836 
L 329.422157 242.736099 
L 331.013601 243.019046 
L 332.605045 238.208941 
L 334.196489 232.267046 
L 335.787933 234.247678 
L 337.379377 213.59252 
L 338.970821 203.972309 
L 340.562264 195.483888 
L 342.153708 216.704941 
L 343.745152 218.402625 
L 345.336596 203.972309 
L 346.92804 218.96852 
L 348.519484 165.491467 
L 350.110927 154.45652 
L 351.702371 158.70073 
L 353.293815 175.677572 
L 354.885259 195.200941 
L 356.476703 175.394625 
L 358.068147 140.875046 
L 359.659591 98.432941 
L 361.251034 90.793362 
L 362.842478 99.56473 
L 364.433922 140.592099 
L 366.025366 135.781993 
L 367.61681 93.056941 
L 369.208254 30.242625 
L 370.799698 34.203888 
L 372.391141 95.32052 
L 373.982585 130.123046 
L 373.982585 130.123046 
" style="fill:none;stroke:#ff7f0e;stroke-linecap:square;stroke-width:1.5;"/>
    <defs>
     <path d="M 0 3 
C 0.795609 3 1.55874 2.683901 2.12132 2.12132 
C 2.683901 1.55874 3 0.795609 3 0 
C 3 -0.795609 2.683901 -1.55874 2.12132 -2.12132 
C 1.55874 -2.683901 0.795609 -3 0 -3 
C -0.795609 -3 -1.55874 -2.683901 -2.12132 -2.12132 
C -2.683901 -1.55874 -3 -0.795609 -3 0 
C -3 0.795609 -2.683901 1.55874 -2.12132 2.12132 
C -1.55874 2.683901 -0.795609 3 0 3 
z
" id="m36d38766f9" style="stroke:#ff7f0e;"/>
    </defs>
    <g clip-path="url(#p31679cd34c)">
     <use style="fill:#ff7f0e;stroke:#ff7f0e;" x="49.32804" xlink:href="#m36d38766f9" y="272.162625"/>
     <use style="fill:#ff7f0e;stroke:#ff7f0e;" x="50.919484" xlink:href="#m36d38766f9" y="272.162625"/>
     <use style="fill:#ff7f0e;stroke:#ff7f0e;" x="52.510927" xlink:href="#m36d38766f9" y="272.162625"/>
     <use style="fill:#ff7f0e;stroke:#ff7f0e;" x="54.102371" xlink:href="#m36d38766f9" y="272.162625"/>
     <use style="fill:#ff7f0e;stroke:#ff7f0e;" x="55.693815" xlink:href="#m36d38766f9" y="272.162625"/>
     <use style="fill:#ff7f0e;stroke:#ff7f0e;" x="57.285259" xlink:href="#m36d38766f9" y="272.162625"/>
     <use style="fill:#ff7f0e;stroke:#ff7f0e;" x="58.876703" xlink:href="#m36d38766f9" y="272.162625"/>
     <use style="fill:#ff7f0e;stroke:#ff7f0e;" x="60.468147" xlink:href="#m36d38766f9" y="272.162625"/>
     <use style="fill:#ff7f0e;stroke:#ff7f0e;" x="62.059591" xlink:href="#m36d38766f9" y="272.162625"/>
     <use style="fill:#ff7f0e;stroke:#ff7f0e;" x="63.651034" xlink:href="#m36d38766f9" y="272.162625"/>
     <use style="fill:#ff7f0e;stroke:#ff7f0e;" x="65.242478" xlink:href="#m36d38766f9" y="272.162625"/>
     <use style="fill:#ff7f0e;stroke:#ff7f0e;" x="66.833922" xlink:href="#m36d38766f9" y="272.162625"/>
     <use style="fill:#ff7f0e;stroke:#ff7f0e;" x="68.425366" xlink:href="#m36d38766f9" y="271.879678"/>
     <use style="fill:#ff7f0e;stroke:#ff7f0e;" x="70.01681" xlink:href="#m36d38766f9" y="272.162625"/>
     <use style="fill:#ff7f0e;stroke:#ff7f0e;" x="71.608254" xlink:href="#m36d38766f9" y="272.162625"/>
     <use style="fill:#ff7f0e;stroke:#ff7f0e;" x="73.199698" xlink:href="#m36d38766f9" y="272.162625"/>
     <use style="fill:#ff7f0e;stroke:#ff7f0e;" x="74.791141" xlink:href="#m36d38766f9" y="272.162625"/>
     <use style="fill:#ff7f0e;stroke:#ff7f0e;" x="76.382585" xlink:href="#m36d38766f9" y="272.162625"/>
     <use style="fill:#ff7f0e;stroke:#ff7f0e;" x="77.974029" xlink:href="#m36d38766f9" y="272.162625"/>
     <use style="fill:#ff7f0e;stroke:#ff7f0e;" x="79.565473" xlink:href="#m36d38766f9" y="272.162625"/>
     <use style="fill:#ff7f0e;stroke:#ff7f0e;" x="81.156917" xlink:href="#m36d38766f9" y="272.162625"/>
     <use style="fill:#ff7f0e;stroke:#ff7f0e;" x="82.748361" xlink:href="#m36d38766f9" y="271.879678"/>
     <use style="fill:#ff7f0e;stroke:#ff7f0e;" x="84.339804" xlink:href="#m36d38766f9" y="271.879678"/>
     <use style="fill:#ff7f0e;stroke:#ff7f0e;" x="85.931248" xlink:href="#m36d38766f9" y="271.879678"/>
     <use style="fill:#ff7f0e;stroke:#ff7f0e;" x="87.522692" xlink:href="#m36d38766f9" y="272.162625"/>
     <use style="fill:#ff7f0e;stroke:#ff7f0e;" x="89.114136" xlink:href="#m36d38766f9" y="271.313783"/>
     <use style="fill:#ff7f0e;stroke:#ff7f0e;" x="90.70558" xlink:href="#m36d38766f9" y="271.879678"/>
     <use style="fill:#ff7f0e;stroke:#ff7f0e;" x="92.297024" xlink:href="#m36d38766f9" y="270.464941"/>
     <use style="fill:#ff7f0e;stroke:#ff7f0e;" x="93.888468" xlink:href="#m36d38766f9" y="271.59673"/>
     <use style="fill:#ff7f0e;stroke:#ff7f0e;" x="95.479911" xlink:href="#m36d38766f9" y="271.313783"/>
     <use style="fill:#ff7f0e;stroke:#ff7f0e;" x="97.071355" xlink:href="#m36d38766f9" y="272.162625"/>
     <use style="fill:#ff7f0e;stroke:#ff7f0e;" x="98.662799" xlink:href="#m36d38766f9" y="272.162625"/>
     <use style="fill:#ff7f0e;stroke:#ff7f0e;" x="100.254243" xlink:href="#m36d38766f9" y="271.030836"/>
     <use style="fill:#ff7f0e;stroke:#ff7f0e;" x="101.845687" xlink:href="#m36d38766f9" y="271.59673"/>
     <use style="fill:#ff7f0e;stroke:#ff7f0e;" x="103.437131" xlink:href="#m36d38766f9" y="272.162625"/>
     <use style="fill:#ff7f0e;stroke:#ff7f0e;" x="105.028575" xlink:href="#m36d38766f9" y="271.879678"/>
     <use style="fill:#ff7f0e;stroke:#ff7f0e;" x="106.620018" xlink:href="#m36d38766f9" y="272.162625"/>
     <use style="fill:#ff7f0e;stroke:#ff7f0e;" x="108.211462" xlink:href="#m36d38766f9" y="272.162625"/>
     <use style="fill:#ff7f0e;stroke:#ff7f0e;" x="109.802906" xlink:href="#m36d38766f9" y="271.59673"/>
     <use style="fill:#ff7f0e;stroke:#ff7f0e;" x="111.39435" xlink:href="#m36d38766f9" y="271.879678"/>
     <use style="fill:#ff7f0e;stroke:#ff7f0e;" x="112.985794" xlink:href="#m36d38766f9" y="272.162625"/>
     <use style="fill:#ff7f0e;stroke:#ff7f0e;" x="114.577238" xlink:href="#m36d38766f9" y="271.030836"/>
     <use style="fill:#ff7f0e;stroke:#ff7f0e;" x="116.168681" xlink:href="#m36d38766f9" y="269.899046"/>
     <use style="fill:#ff7f0e;stroke:#ff7f0e;" x="117.760125" xlink:href="#m36d38766f9" y="268.767257"/>
     <use style="fill:#ff7f0e;stroke:#ff7f0e;" x="119.351569" xlink:href="#m36d38766f9" y="270.464941"/>
     <use style="fill:#ff7f0e;stroke:#ff7f0e;" x="120.943013" xlink:href="#m36d38766f9" y="270.181993"/>
     <use style="fill:#ff7f0e;stroke:#ff7f0e;" x="122.534457" xlink:href="#m36d38766f9" y="269.333151"/>
     <use style="fill:#ff7f0e;stroke:#ff7f0e;" x="124.125901" xlink:href="#m36d38766f9" y="269.616099"/>
     <use style="fill:#ff7f0e;stroke:#ff7f0e;" x="125.717345" xlink:href="#m36d38766f9" y="269.616099"/>
     <use style="fill:#ff7f0e;stroke:#ff7f0e;" x="127.308788" xlink:href="#m36d38766f9" y="267.35252"/>
     <use style="fill:#ff7f0e;stroke:#ff7f0e;" x="128.900232" xlink:href="#m36d38766f9" y="264.805993"/>
     <use style="fill:#ff7f0e;stroke:#ff7f0e;" x="130.491676" xlink:href="#m36d38766f9" y="269.333151"/>
     <use style="fill:#ff7f0e;stroke:#ff7f0e;" x="132.08312" xlink:href="#m36d38766f9" y="268.767257"/>
     <use style="fill:#ff7f0e;stroke:#ff7f0e;" x="133.674564" xlink:href="#m36d38766f9" y="267.918414"/>
     <use style="fill:#ff7f0e;stroke:#ff7f0e;" x="135.266008" xlink:href="#m36d38766f9" y="267.35252"/>
     <use style="fill:#ff7f0e;stroke:#ff7f0e;" x="136.857452" xlink:href="#m36d38766f9" y="265.088941"/>
     <use style="fill:#ff7f0e;stroke:#ff7f0e;" x="138.448895" xlink:href="#m36d38766f9" y="266.503678"/>
     <use style="fill:#ff7f0e;stroke:#ff7f0e;" x="140.040339" xlink:href="#m36d38766f9" y="269.899046"/>
     <use style="fill:#ff7f0e;stroke:#ff7f0e;" x="141.631783" xlink:href="#m36d38766f9" y="268.201362"/>
     <use style="fill:#ff7f0e;stroke:#ff7f0e;" x="143.223227" xlink:href="#m36d38766f9" y="267.35252"/>
     <use style="fill:#ff7f0e;stroke:#ff7f0e;" x="144.814671" xlink:href="#m36d38766f9" y="266.503678"/>
     <use style="fill:#ff7f0e;stroke:#ff7f0e;" x="146.406115" xlink:href="#m36d38766f9" y="261.97652"/>
     <use style="fill:#ff7f0e;stroke:#ff7f0e;" x="147.997558" xlink:href="#m36d38766f9" y="261.97652"/>
     <use style="fill:#ff7f0e;stroke:#ff7f0e;" x="149.589002" xlink:href="#m36d38766f9" y="256.034625"/>
     <use style="fill:#ff7f0e;stroke:#ff7f0e;" x="151.180446" xlink:href="#m36d38766f9" y="261.410625"/>
     <use style="fill:#ff7f0e;stroke:#ff7f0e;" x="152.77189" xlink:href="#m36d38766f9" y="261.693572"/>
     <use style="fill:#ff7f0e;stroke:#ff7f0e;" x="154.363334" xlink:href="#m36d38766f9" y="264.805993"/>
     <use style="fill:#ff7f0e;stroke:#ff7f0e;" x="155.954778" xlink:href="#m36d38766f9" y="252.639257"/>
     <use style="fill:#ff7f0e;stroke:#ff7f0e;" x="157.546222" xlink:href="#m36d38766f9" y="256.034625"/>
     <use style="fill:#ff7f0e;stroke:#ff7f0e;" x="159.137665" xlink:href="#m36d38766f9" y="259.429993"/>
     <use style="fill:#ff7f0e;stroke:#ff7f0e;" x="160.729109" xlink:href="#m36d38766f9" y="260.561783"/>
     <use style="fill:#ff7f0e;stroke:#ff7f0e;" x="162.320553" xlink:href="#m36d38766f9" y="256.883467"/>
     <use style="fill:#ff7f0e;stroke:#ff7f0e;" x="163.911997" xlink:href="#m36d38766f9" y="263.674204"/>
     <use style="fill:#ff7f0e;stroke:#ff7f0e;" x="165.503441" xlink:href="#m36d38766f9" y="266.786625"/>
     <use style="fill:#ff7f0e;stroke:#ff7f0e;" x="167.094885" xlink:href="#m36d38766f9" y="259.147046"/>
     <use style="fill:#ff7f0e;stroke:#ff7f0e;" x="168.686329" xlink:href="#m36d38766f9" y="259.712941"/>
     <use style="fill:#ff7f0e;stroke:#ff7f0e;" x="170.277772" xlink:href="#m36d38766f9" y="259.147046"/>
     <use style="fill:#ff7f0e;stroke:#ff7f0e;" x="171.869216" xlink:href="#m36d38766f9" y="259.429993"/>
     <use style="fill:#ff7f0e;stroke:#ff7f0e;" x="173.46066" xlink:href="#m36d38766f9" y="259.995888"/>
     <use style="fill:#ff7f0e;stroke:#ff7f0e;" x="175.052104" xlink:href="#m36d38766f9" y="259.995888"/>
     <use style="fill:#ff7f0e;stroke:#ff7f0e;" x="176.643548" xlink:href="#m36d38766f9" y="261.410625"/>
     <use style="fill:#ff7f0e;stroke:#ff7f0e;" x="178.234992" xlink:href="#m36d38766f9" y="249.526836"/>
     <use style="fill:#ff7f0e;stroke:#ff7f0e;" x="179.826435" xlink:href="#m36d38766f9" y="246.131467"/>
     <use style="fill:#ff7f0e;stroke:#ff7f0e;" x="181.417879" xlink:href="#m36d38766f9" y="244.150836"/>
     <use style="fill:#ff7f0e;stroke:#ff7f0e;" x="183.009323" xlink:href="#m36d38766f9" y="236.511257"/>
     <use style="fill:#ff7f0e;stroke:#ff7f0e;" x="184.600767" xlink:href="#m36d38766f9" y="213.875467"/>
     <use style="fill:#ff7f0e;stroke:#ff7f0e;" x="186.192211" xlink:href="#m36d38766f9" y="227.173993"/>
     <use style="fill:#ff7f0e;stroke:#ff7f0e;" x="187.783655" xlink:href="#m36d38766f9" y="230.003467"/>
     <use style="fill:#ff7f0e;stroke:#ff7f0e;" x="189.375099" xlink:href="#m36d38766f9" y="205.387046"/>
     <use style="fill:#ff7f0e;stroke:#ff7f0e;" x="190.966542" xlink:href="#m36d38766f9" y="193.220309"/>
     <use style="fill:#ff7f0e;stroke:#ff7f0e;" x="192.557986" xlink:href="#m36d38766f9" y="189.259046"/>
     <use style="fill:#ff7f0e;stroke:#ff7f0e;" x="194.14943" xlink:href="#m36d38766f9" y="173.979888"/>
     <use style="fill:#ff7f0e;stroke:#ff7f0e;" x="195.740874" xlink:href="#m36d38766f9" y="161.530204"/>
     <use style="fill:#ff7f0e;stroke:#ff7f0e;" x="197.332318" xlink:href="#m36d38766f9" y="186.429572"/>
     <use style="fill:#ff7f0e;stroke:#ff7f0e;" x="198.923762" xlink:href="#m36d38766f9" y="197.747467"/>
     <use style="fill:#ff7f0e;stroke:#ff7f0e;" x="200.515206" xlink:href="#m36d38766f9" y="136.630836"/>
     <use style="fill:#ff7f0e;stroke:#ff7f0e;" x="202.106649" xlink:href="#m36d38766f9" y="136.630836"/>
     <use style="fill:#ff7f0e;stroke:#ff7f0e;" x="203.698093" xlink:href="#m36d38766f9" y="90.510414"/>
     <use style="fill:#ff7f0e;stroke:#ff7f0e;" x="205.289537" xlink:href="#m36d38766f9" y="91.642204"/>
     <use style="fill:#ff7f0e;stroke:#ff7f0e;" x="206.880981" xlink:href="#m36d38766f9" y="75.514204"/>
     <use style="fill:#ff7f0e;stroke:#ff7f0e;" x="208.472425" xlink:href="#m36d38766f9" y="142.289783"/>
     <use style="fill:#ff7f0e;stroke:#ff7f0e;" x="210.063869" xlink:href="#m36d38766f9" y="183.600099"/>
     <use style="fill:#ff7f0e;stroke:#ff7f0e;" x="211.655313" xlink:href="#m36d38766f9" y="124.464099"/>
     <use style="fill:#ff7f0e;stroke:#ff7f0e;" x="213.246756" xlink:href="#m36d38766f9" y="106.921362"/>
     <use style="fill:#ff7f0e;stroke:#ff7f0e;" x="214.8382" xlink:href="#m36d38766f9" y="121.634625"/>
     <use style="fill:#ff7f0e;stroke:#ff7f0e;" x="216.429644" xlink:href="#m36d38766f9" y="112.580309"/>
     <use style="fill:#ff7f0e;stroke:#ff7f0e;" x="218.021088" xlink:href="#m36d38766f9" y="112.014414"/>
     <use style="fill:#ff7f0e;stroke:#ff7f0e;" x="219.612532" xlink:href="#m36d38766f9" y="178.224099"/>
     <use style="fill:#ff7f0e;stroke:#ff7f0e;" x="221.203976" xlink:href="#m36d38766f9" y="169.735678"/>
     <use style="fill:#ff7f0e;stroke:#ff7f0e;" x="222.795419" xlink:href="#m36d38766f9" y="155.588309"/>
     <use style="fill:#ff7f0e;stroke:#ff7f0e;" x="224.386863" xlink:href="#m36d38766f9" y="147.665783"/>
     <use style="fill:#ff7f0e;stroke:#ff7f0e;" x="225.978307" xlink:href="#m36d38766f9" y="151.627046"/>
     <use style="fill:#ff7f0e;stroke:#ff7f0e;" x="227.569751" xlink:href="#m36d38766f9" y="147.099888"/>
     <use style="fill:#ff7f0e;stroke:#ff7f0e;" x="229.161195" xlink:href="#m36d38766f9" y="169.169783"/>
     <use style="fill:#ff7f0e;stroke:#ff7f0e;" x="230.752639" xlink:href="#m36d38766f9" y="213.59252"/>
     <use style="fill:#ff7f0e;stroke:#ff7f0e;" x="232.344083" xlink:href="#m36d38766f9" y="223.21273"/>
     <use style="fill:#ff7f0e;stroke:#ff7f0e;" x="233.935526" xlink:href="#m36d38766f9" y="189.541993"/>
     <use style="fill:#ff7f0e;stroke:#ff7f0e;" x="235.52697" xlink:href="#m36d38766f9" y="210.480099"/>
     <use style="fill:#ff7f0e;stroke:#ff7f0e;" x="237.118414" xlink:href="#m36d38766f9" y="220.666204"/>
     <use style="fill:#ff7f0e;stroke:#ff7f0e;" x="238.709858" xlink:href="#m36d38766f9" y="190.673783"/>
     <use style="fill:#ff7f0e;stroke:#ff7f0e;" x="240.301302" xlink:href="#m36d38766f9" y="186.71252"/>
     <use style="fill:#ff7f0e;stroke:#ff7f0e;" x="241.892746" xlink:href="#m36d38766f9" y="219.534414"/>
     <use style="fill:#ff7f0e;stroke:#ff7f0e;" x="243.48419" xlink:href="#m36d38766f9" y="229.437572"/>
     <use style="fill:#ff7f0e;stroke:#ff7f0e;" x="245.075633" xlink:href="#m36d38766f9" y="239.34073"/>
     <use style="fill:#ff7f0e;stroke:#ff7f0e;" x="246.667077" xlink:href="#m36d38766f9" y="245.282625"/>
     <use style="fill:#ff7f0e;stroke:#ff7f0e;" x="248.258521" xlink:href="#m36d38766f9" y="246.697362"/>
     <use style="fill:#ff7f0e;stroke:#ff7f0e;" x="249.849965" xlink:href="#m36d38766f9" y="244.150836"/>
     <use style="fill:#ff7f0e;stroke:#ff7f0e;" x="251.441409" xlink:href="#m36d38766f9" y="240.47252"/>
     <use style="fill:#ff7f0e;stroke:#ff7f0e;" x="253.032853" xlink:href="#m36d38766f9" y="252.922204"/>
     <use style="fill:#ff7f0e;stroke:#ff7f0e;" x="254.624296" xlink:href="#m36d38766f9" y="262.259467"/>
     <use style="fill:#ff7f0e;stroke:#ff7f0e;" x="256.21574" xlink:href="#m36d38766f9" y="250.941572"/>
     <use style="fill:#ff7f0e;stroke:#ff7f0e;" x="257.807184" xlink:href="#m36d38766f9" y="250.658625"/>
     <use style="fill:#ff7f0e;stroke:#ff7f0e;" x="259.398628" xlink:href="#m36d38766f9" y="249.243888"/>
     <use style="fill:#ff7f0e;stroke:#ff7f0e;" x="260.990072" xlink:href="#m36d38766f9" y="255.185783"/>
     <use style="fill:#ff7f0e;stroke:#ff7f0e;" x="262.581516" xlink:href="#m36d38766f9" y="260.278836"/>
     <use style="fill:#ff7f0e;stroke:#ff7f0e;" x="264.17296" xlink:href="#m36d38766f9" y="264.805993"/>
     <use style="fill:#ff7f0e;stroke:#ff7f0e;" x="265.764403" xlink:href="#m36d38766f9" y="266.22073"/>
     <use style="fill:#ff7f0e;stroke:#ff7f0e;" x="267.355847" xlink:href="#m36d38766f9" y="259.429993"/>
     <use style="fill:#ff7f0e;stroke:#ff7f0e;" x="268.947291" xlink:href="#m36d38766f9" y="263.391257"/>
     <use style="fill:#ff7f0e;stroke:#ff7f0e;" x="270.538735" xlink:href="#m36d38766f9" y="261.410625"/>
     <use style="fill:#ff7f0e;stroke:#ff7f0e;" x="272.130179" xlink:href="#m36d38766f9" y="263.108309"/>
     <use style="fill:#ff7f0e;stroke:#ff7f0e;" x="273.721623" xlink:href="#m36d38766f9" y="265.371888"/>
     <use style="fill:#ff7f0e;stroke:#ff7f0e;" x="275.313067" xlink:href="#m36d38766f9" y="263.957151"/>
     <use style="fill:#ff7f0e;stroke:#ff7f0e;" x="276.90451" xlink:href="#m36d38766f9" y="264.805993"/>
     <use style="fill:#ff7f0e;stroke:#ff7f0e;" x="278.495954" xlink:href="#m36d38766f9" y="264.805993"/>
     <use style="fill:#ff7f0e;stroke:#ff7f0e;" x="280.087398" xlink:href="#m36d38766f9" y="259.712941"/>
     <use style="fill:#ff7f0e;stroke:#ff7f0e;" x="281.678842" xlink:href="#m36d38766f9" y="258.864099"/>
     <use style="fill:#ff7f0e;stroke:#ff7f0e;" x="283.270286" xlink:href="#m36d38766f9" y="247.829151"/>
     <use style="fill:#ff7f0e;stroke:#ff7f0e;" x="284.86173" xlink:href="#m36d38766f9" y="259.995888"/>
     <use style="fill:#ff7f0e;stroke:#ff7f0e;" x="286.453173" xlink:href="#m36d38766f9" y="264.523046"/>
     <use style="fill:#ff7f0e;stroke:#ff7f0e;" x="288.044617" xlink:href="#m36d38766f9" y="261.693572"/>
     <use style="fill:#ff7f0e;stroke:#ff7f0e;" x="289.636061" xlink:href="#m36d38766f9" y="257.732309"/>
     <use style="fill:#ff7f0e;stroke:#ff7f0e;" x="291.227505" xlink:href="#m36d38766f9" y="263.674204"/>
     <use style="fill:#ff7f0e;stroke:#ff7f0e;" x="292.818949" xlink:href="#m36d38766f9" y="256.60052"/>
     <use style="fill:#ff7f0e;stroke:#ff7f0e;" x="294.410393" xlink:href="#m36d38766f9" y="258.581151"/>
     <use style="fill:#ff7f0e;stroke:#ff7f0e;" x="296.001837" xlink:href="#m36d38766f9" y="260.561783"/>
     <use style="fill:#ff7f0e;stroke:#ff7f0e;" x="297.59328" xlink:href="#m36d38766f9" y="262.825362"/>
     <use style="fill:#ff7f0e;stroke:#ff7f0e;" x="299.184724" xlink:href="#m36d38766f9" y="264.240099"/>
     <use style="fill:#ff7f0e;stroke:#ff7f0e;" x="300.776168" xlink:href="#m36d38766f9" y="259.712941"/>
     <use style="fill:#ff7f0e;stroke:#ff7f0e;" x="302.367612" xlink:href="#m36d38766f9" y="260.561783"/>
     <use style="fill:#ff7f0e;stroke:#ff7f0e;" x="303.959056" xlink:href="#m36d38766f9" y="258.864099"/>
     <use style="fill:#ff7f0e;stroke:#ff7f0e;" x="305.5505" xlink:href="#m36d38766f9" y="256.317572"/>
     <use style="fill:#ff7f0e;stroke:#ff7f0e;" x="307.141944" xlink:href="#m36d38766f9" y="260.84473"/>
     <use style="fill:#ff7f0e;stroke:#ff7f0e;" x="308.733387" xlink:href="#m36d38766f9" y="251.507467"/>
     <use style="fill:#ff7f0e;stroke:#ff7f0e;" x="310.324831" xlink:href="#m36d38766f9" y="251.507467"/>
     <use style="fill:#ff7f0e;stroke:#ff7f0e;" x="311.916275" xlink:href="#m36d38766f9" y="257.732309"/>
     <use style="fill:#ff7f0e;stroke:#ff7f0e;" x="313.507719" xlink:href="#m36d38766f9" y="261.127678"/>
     <use style="fill:#ff7f0e;stroke:#ff7f0e;" x="315.099163" xlink:href="#m36d38766f9" y="253.488099"/>
     <use style="fill:#ff7f0e;stroke:#ff7f0e;" x="316.690607" xlink:href="#m36d38766f9" y="255.185783"/>
     <use style="fill:#ff7f0e;stroke:#ff7f0e;" x="318.28205" xlink:href="#m36d38766f9" y="254.053993"/>
     <use style="fill:#ff7f0e;stroke:#ff7f0e;" x="319.873494" xlink:href="#m36d38766f9" y="257.449362"/>
     <use style="fill:#ff7f0e;stroke:#ff7f0e;" x="321.464938" xlink:href="#m36d38766f9" y="259.429993"/>
     <use style="fill:#ff7f0e;stroke:#ff7f0e;" x="323.056382" xlink:href="#m36d38766f9" y="253.488099"/>
     <use style="fill:#ff7f0e;stroke:#ff7f0e;" x="324.647826" xlink:href="#m36d38766f9" y="243.584941"/>
     <use style="fill:#ff7f0e;stroke:#ff7f0e;" x="326.23927" xlink:href="#m36d38766f9" y="250.09273"/>
     <use style="fill:#ff7f0e;stroke:#ff7f0e;" x="327.830714" xlink:href="#m36d38766f9" y="244.150836"/>
     <use style="fill:#ff7f0e;stroke:#ff7f0e;" x="329.422157" xlink:href="#m36d38766f9" y="242.736099"/>
     <use style="fill:#ff7f0e;stroke:#ff7f0e;" x="331.013601" xlink:href="#m36d38766f9" y="243.019046"/>
     <use style="fill:#ff7f0e;stroke:#ff7f0e;" x="332.605045" xlink:href="#m36d38766f9" y="238.208941"/>
     <use style="fill:#ff7f0e;stroke:#ff7f0e;" x="334.196489" xlink:href="#m36d38766f9" y="232.267046"/>
     <use style="fill:#ff7f0e;stroke:#ff7f0e;" x="335.787933" xlink:href="#m36d38766f9" y="234.247678"/>
     <use style="fill:#ff7f0e;stroke:#ff7f0e;" x="337.379377" xlink:href="#m36d38766f9" y="213.59252"/>
     <use style="fill:#ff7f0e;stroke:#ff7f0e;" x="338.970821" xlink:href="#m36d38766f9" y="203.972309"/>
     <use style="fill:#ff7f0e;stroke:#ff7f0e;" x="340.562264" xlink:href="#m36d38766f9" y="195.483888"/>
     <use style="fill:#ff7f0e;stroke:#ff7f0e;" x="342.153708" xlink:href="#m36d38766f9" y="216.704941"/>
     <use style="fill:#ff7f0e;stroke:#ff7f0e;" x="343.745152" xlink:href="#m36d38766f9" y="218.402625"/>
     <use style="fill:#ff7f0e;stroke:#ff7f0e;" x="345.336596" xlink:href="#m36d38766f9" y="203.972309"/>
     <use style="fill:#ff7f0e;stroke:#ff7f0e;" x="346.92804" xlink:href="#m36d38766f9" y="218.96852"/>
     <use style="fill:#ff7f0e;stroke:#ff7f0e;" x="348.519484" xlink:href="#m36d38766f9" y="165.491467"/>
     <use style="fill:#ff7f0e;stroke:#ff7f0e;" x="350.110927" xlink:href="#m36d38766f9" y="154.45652"/>
     <use style="fill:#ff7f0e;stroke:#ff7f0e;" x="351.702371" xlink:href="#m36d38766f9" y="158.70073"/>
     <use style="fill:#ff7f0e;stroke:#ff7f0e;" x="353.293815" xlink:href="#m36d38766f9" y="175.677572"/>
     <use style="fill:#ff7f0e;stroke:#ff7f0e;" x="354.885259" xlink:href="#m36d38766f9" y="195.200941"/>
     <use style="fill:#ff7f0e;stroke:#ff7f0e;" x="356.476703" xlink:href="#m36d38766f9" y="175.394625"/>
     <use style="fill:#ff7f0e;stroke:#ff7f0e;" x="358.068147" xlink:href="#m36d38766f9" y="140.875046"/>
     <use style="fill:#ff7f0e;stroke:#ff7f0e;" x="359.659591" xlink:href="#m36d38766f9" y="98.432941"/>
     <use style="fill:#ff7f0e;stroke:#ff7f0e;" x="361.251034" xlink:href="#m36d38766f9" y="90.793362"/>
     <use style="fill:#ff7f0e;stroke:#ff7f0e;" x="362.842478" xlink:href="#m36d38766f9" y="99.56473"/>
     <use style="fill:#ff7f0e;stroke:#ff7f0e;" x="364.433922" xlink:href="#m36d38766f9" y="140.592099"/>
     <use style="fill:#ff7f0e;stroke:#ff7f0e;" x="366.025366" xlink:href="#m36d38766f9" y="135.781993"/>
     <use style="fill:#ff7f0e;stroke:#ff7f0e;" x="367.61681" xlink:href="#m36d38766f9" y="93.056941"/>
     <use style="fill:#ff7f0e;stroke:#ff7f0e;" x="369.208254" xlink:href="#m36d38766f9" y="30.242625"/>
     <use style="fill:#ff7f0e;stroke:#ff7f0e;" x="370.799698" xlink:href="#m36d38766f9" y="34.203888"/>
     <use style="fill:#ff7f0e;stroke:#ff7f0e;" x="372.391141" xlink:href="#m36d38766f9" y="95.32052"/>
     <use style="fill:#ff7f0e;stroke:#ff7f0e;" x="373.982585" xlink:href="#m36d38766f9" y="130.123046"/>
    </g>
   </g>
   <g id="patch_3">
    <path d="M 33.095313 284.258625 
L 33.095313 18.146625 
" style="fill:none;stroke:#000000;stroke-linecap:square;stroke-linejoin:miter;stroke-width:0.8;"/>
   </g>
   <g id="patch_4">
    <path d="M 390.215312 284.258625 
L 390.215312 18.146625 
" style="fill:none;stroke:#000000;stroke-linecap:square;stroke-linejoin:miter;stroke-width:0.8;"/>
   </g>
   <g id="patch_5">
    <path d="M 33.095313 284.258625 
L 390.215313 284.258625 
" style="fill:none;stroke:#000000;stroke-linecap:square;stroke-linejoin:miter;stroke-width:0.8;"/>
   </g>
   <g id="patch_6">
    <path d="M 33.095313 18.146625 
L 390.215313 18.146625 
" style="fill:none;stroke:#000000;stroke-linecap:square;stroke-linejoin:miter;stroke-width:0.8;"/>
   </g>
   <g id="legend_1">
    <g id="patch_7">
     <path d="M 40.095313 56.29975 
L 159.078125 56.29975 
Q 161.078125 56.29975 161.078125 54.29975 
L 161.078125 25.146625 
Q 161.078125 23.146625 159.078125 23.146625 
L 40.095313 23.146625 
Q 38.095313 23.146625 38.095313 25.146625 
L 38.095313 54.29975 
Q 38.095313 56.29975 40.095313 56.29975 
z
" style="fill:#ffffff;opacity:0.8;stroke:#cccccc;stroke-linejoin:miter;"/>
    </g>
    <g id="line2d_16">
     <path d="M 42.095313 31.766937 
L 62.095313 31.766937 
" style="fill:none;stroke:#1f77b4;stroke-linecap:square;stroke-width:1.5;"/>
    </g>
    <g id="line2d_17">
     <g>
      <use style="fill:#1f77b4;stroke:#1f77b4;" x="52.095313" xlink:href="#mfec504e9b9" y="31.766937"/>
     </g>
    </g>
    <g id="text_15">
     <!--  (onset) -->
     <g transform="translate(70.095313 35.266937)scale(0.1 -0.1)">
      <defs>
       <path d="M 73.734375 56.84375 
Q 80.609375 62.75 85.203125 68.609375 
L 91.109375 64.40625 
Q 84.46875 57.8125 78.71875 53.328125 
Q 85.9375 48.6875 95.40625 44.625 
L 90.625 38.375 
Q 81.734375 42.78125 73.53125 48.640625 
L 73.53125 43.3125 
L 64.109375 43.3125 
L 64.109375 29.984375 
L 89.890625 29.984375 
L 89.890625 23.78125 
L 64.109375 23.78125 
L 64.109375 5.609375 
Q 64.109375 2.484375 65.71875 2.046875 
Q 67.390625 1.46875 73.09375 1.46875 
Q 82.125 1.46875 83.59375 2.984375 
Q 85.0625 4.4375 85.5 11.96875 
Q 85.5 13.484375 85.59375 14.0625 
L 92.625 11.578125 
Q 92.1875 0.390625 89.703125 -2.203125 
Q 87.0625 -5.328125 72.609375 -5.328125 
Q 63.8125 -5.328125 60.9375 -4 
Q 57.03125 -2.34375 57.03125 3.328125 
L 57.03125 23.78125 
L 42.578125 23.78125 
Q 40.1875 0.53125 11.078125 -7.421875 
L 7.28125 -0.984375 
Q 33.25 5.421875 35.5 23.78125 
L 10.015625 23.78125 
L 10.015625 29.984375 
L 35.796875 29.984375 
L 35.796875 43.3125 
L 27.78125 43.3125 
L 27.78125 47.015625 
Q 19.734375 41.359375 9.078125 36.1875 
L 4.5 42.1875 
Q 16.3125 46.734375 25.984375 53.8125 
Q 19.828125 60.15625 13.484375 64.59375 
L 18.609375 69.140625 
Q 26.515625 62.59375 31.109375 58.015625 
Q 38.03125 64.0625 43.171875 72.125 
L 20.0625 72.125 
L 20.0625 78.21875 
L 54 78.21875 
Q 58.203125 71.34375 62.890625 66.3125 
Q 69.09375 71.625 74.03125 77.9375 
L 79.828125 73.734375 
Q 74.171875 67.625 67.09375 62.203125 
Q 70.40625 59.078125 73.734375 56.84375 
z
M 57.03125 43.3125 
L 42.78125 43.3125 
L 42.78125 29.984375 
L 57.03125 29.984375 
z
M 30.90625 49.3125 
L 72.515625 49.3125 
Q 58.6875 59.28125 50.59375 71 
Q 43.21875 58.890625 30.90625 49.3125 
z
" id="IPAexGothic-30330"/>
       <path d="M 63.71875 2.875 
L 95.015625 2.875 
L 95.015625 -3.515625 
L 23.96875 -3.515625 
L 23.96875 2.875 
L 37.3125 2.875 
L 37.3125 38.28125 
L 44 38.28125 
L 44 2.875 
L 56.84375 2.875 
L 56.84375 46.578125 
L 30.515625 46.578125 
L 30.515625 52.78125 
L 90.046875 52.78125 
L 90.046875 46.578125 
L 63.71875 46.578125 
L 63.71875 29.203125 
L 87.796875 29.203125 
L 87.796875 23.09375 
L 63.71875 23.09375 
z
M 60.203125 70.515625 
L 93.890625 70.515625 
L 93.890625 64.109375 
L 27.296875 64.109375 
L 27.296875 41.40625 
Q 27.296875 23.140625 24.21875 12.203125 
Q 21.390625 2.25 14.59375 -6.203125 
L 9.625 -1.171875 
Q 18.75 10.359375 20.125 27.484375 
Q 15.4375 24.125 7.078125 19.734375 
L 4 26.609375 
Q 12.3125 29.59375 20.40625 34.328125 
L 20.40625 37.890625 
L 20.40625 70.515625 
L 52.78125 70.515625 
L 52.78125 81.984375 
L 60.203125 81.984375 
z
M 12.015625 40.375 
Q 8.890625 50.78125 5.421875 57.90625 
L 11.375 60.59375 
Q 15.234375 53.859375 18.40625 43.703125 
z
" id="IPAexGothic-30151"/>
       <path d="M 81.734375 75 
L 81.734375 -4.5 
L 74.125 -4.5 
L 74.125 2 
L 25.734375 2 
L 25.734375 -4.5 
L 18.109375 -4.5 
L 18.109375 75 
z
M 25.734375 68.3125 
L 25.734375 42.671875 
L 74.125 42.671875 
L 74.125 68.3125 
z
M 25.734375 35.890625 
L 25.734375 8.6875 
L 74.125 8.6875 
L 74.125 35.890625 
z
" id="IPAexGothic-26085"/>
       <path id="IPAexGothic-32"/>
       <path d="M 30.125 -15.875 
L 25.828125 -18.21875 
Q 7.625 1.078125 7.625 29.296875 
Q 7.625 57.46875 25.828125 76.703125 
L 30.125 74.421875 
Q 15.71875 55.03125 15.71875 29.390625 
Q 15.71875 3.171875 30.125 -15.875 
z
" id="IPAexGothic-40"/>
       <path d="M 29.984375 52.203125 
Q 40.53125 52.203125 47.75 45.125 
Q 55.171875 37.703125 55.171875 25.59375 
Q 55.171875 13.875 47.90625 6.59375 
Q 40.765625 -0.484375 29.984375 -0.484375 
Q 19.1875 -0.484375 12.203125 6.5 
Q 4.890625 13.765625 4.890625 25.875 
Q 4.890625 37.703125 12.3125 45.125 
Q 19.390625 52.203125 29.984375 52.203125 
z
M 29.984375 45.609375 
Q 23.734375 45.609375 19.390625 41.109375 
Q 13.875 35.59375 13.875 25.78125 
Q 13.875 16.109375 19.28125 10.6875 
Q 23.6875 6.296875 29.984375 6.296875 
Q 36.421875 6.296875 40.765625 10.796875 
Q 46.1875 16.21875 46.1875 26.125 
Q 46.1875 35.453125 40.671875 41.109375 
Q 36.1875 45.609375 29.984375 45.609375 
z
" id="IPAexGothic-111"/>
       <path d="M 34.90625 39.796875 
Q 30.28125 45.796875 23.1875 45.796875 
Q 13.921875 45.796875 13.921875 38.671875 
Q 13.921875 33.640625 23.921875 30.375 
L 27.203125 29.296875 
Q 41.40625 24.65625 41.40625 13.96875 
Q 41.40625 6.78125 35.5 2.6875 
Q 30.8125 -0.484375 23.390625 -0.484375 
Q 11.96875 -0.484375 4 7.859375 
L 9.421875 12.796875 
Q 15.578125 6.203125 23.6875 6.203125 
Q 33.296875 6.203125 33.296875 13.671875 
Q 33.296875 19.34375 22.703125 23.09375 
L 19.28125 24.265625 
Q 5.90625 28.953125 5.90625 37.984375 
Q 5.90625 43.703125 9.8125 47.609375 
Q 14.5 52.296875 22.703125 52.296875 
Q 33.6875 52.296875 40.71875 44.671875 
z
" id="IPAexGothic-115"/>
       <path d="M 33.203125 3.765625 
Q 27.640625 -0.09375 21.828125 -0.09375 
Q 10.203125 -0.09375 10.203125 12.984375 
L 10.203125 44.671875 
L 3.421875 44.671875 
L 3.421875 50.78125 
L 10.203125 50.78125 
L 10.203125 61.96875 
L 18.40625 66.0625 
L 18.40625 50.78125 
L 32.234375 50.78125 
L 32.234375 44.671875 
L 18.40625 44.671875 
L 18.40625 14.15625 
Q 18.40625 6.5 23.640625 6.5 
Q 27.15625 6.5 30.328125 9.1875 
z
" id="IPAexGothic-116"/>
       <path d="M 7.28125 76.703125 
Q 25.59375 57.375 25.59375 29.296875 
Q 25.59375 1.171875 7.28125 -18.21875 
L 2.984375 -15.875 
Q 17.484375 3.375 17.484375 29.390625 
Q 17.484375 54.828125 2.984375 74.421875 
z
" id="IPAexGothic-41"/>
      </defs>
      <use xlink:href="#IPAexGothic-30330"/>
      <use x="100" xlink:href="#IPAexGothic-30151"/>
      <use x="200" xlink:href="#IPAexGothic-26085"/>
      <use x="300" xlink:href="#IPAexGothic-32"/>
      <use x="327.001953" xlink:href="#IPAexGothic-40"/>
      <use x="360.302734" xlink:href="#IPAexGothic-111"/>
      <use x="420.703125" xlink:href="#IPAexGothic-110"/>
      <use x="481.103516" xlink:href="#IPAexGothic-115"/>
      <use x="527.294922" xlink:href="#IPAexGothic-101"/>
      <use x="584.179688" xlink:href="#IPAexGothic-116"/>
      <use x="618.798828" xlink:href="#IPAexGothic-41"/>
     </g>
    </g>
    <g id="line2d_18">
     <path d="M 42.095313 46.89975 
L 62.095313 46.89975 
" style="fill:none;stroke:#ff7f0e;stroke-linecap:square;stroke-width:1.5;"/>
    </g>
    <g id="line2d_19">
     <g>
      <use style="fill:#ff7f0e;stroke:#ff7f0e;" x="52.095313" xlink:href="#m36d38766f9" y="46.89975"/>
     </g>
    </g>
    <g id="text_16">
     <!--  (confirmed) -->
     <g transform="translate(70.095313 50.39975)scale(0.1 -0.1)">
      <defs>
       <path d="M 67.921875 50.296875 
Q 70.5625 55.28125 72.609375 61.8125 
L 79.296875 60.203125 
Q 76.171875 53.609375 74.21875 50.296875 
L 92 50.296875 
L 92 44.484375 
L 73.4375 44.484375 
L 73.4375 34.71875 
L 89.703125 34.71875 
L 89.703125 29.203125 
L 73.4375 29.203125 
L 73.4375 19.53125 
L 89.703125 19.53125 
L 89.703125 14.015625 
L 73.4375 14.015625 
L 73.4375 3.609375 
L 94.28125 3.609375 
L 94.28125 -2.203125 
L 54.109375 -2.203125 
L 54.109375 -6.984375 
L 47.609375 -6.984375 
L 47.609375 38.1875 
Q 43.0625 31.546875 38.8125 26.609375 
L 35.6875 32.8125 
Q 49.359375 49.953125 54.78125 64.796875 
L 45.515625 64.796875 
L 45.515625 53.515625 
L 39.203125 53.515625 
L 39.203125 70.609375 
L 56.78125 70.609375 
Q 58.59375 76.609375 60.109375 83.109375 
L 66.703125 81.890625 
Q 65.234375 75.53125 63.625 70.609375 
L 92.71875 70.609375 
L 92.71875 53.515625 
L 86.328125 53.515625 
L 86.328125 64.796875 
L 61.53125 64.796875 
Q 58.546875 56.984375 54.890625 50.296875 
z
M 67.140625 44.484375 
L 54.109375 44.484375 
L 54.109375 34.71875 
L 67.140625 34.71875 
z
M 67.140625 29.203125 
L 54.109375 29.203125 
L 54.109375 19.53125 
L 67.140625 19.53125 
z
M 67.140625 14.015625 
L 54.109375 14.015625 
L 54.109375 3.609375 
L 67.140625 3.609375 
z
M 18.109375 46 
L 35.546875 46 
L 35.546875 3.078125 
L 18.953125 3.078125 
L 18.953125 -5.125 
L 12.75 -5.125 
L 12.75 34.46875 
Q 10.15625 29.734375 6.15625 23.78125 
L 2.9375 29.984375 
Q 14.546875 47.078125 18.75 69 
L 6.34375 69 
L 6.34375 75.296875 
L 37.640625 75.296875 
L 37.640625 69 
L 25.25 69 
L 24.953125 68.015625 
Q 22.75 57.234375 18.109375 46 
z
M 18.953125 39.890625 
L 18.953125 9.1875 
L 29.34375 9.1875 
L 29.34375 39.890625 
z
" id="IPAexGothic-30906"/>
       <path d="M 53.609375 4.734375 
Q 61.421875 3.515625 73.578125 3.515625 
Q 81.109375 3.515625 94.578125 4.109375 
Q 93.171875 0.921875 92 -3.5625 
Q 81.78125 -3.90625 75.6875 -3.90625 
Q 55.765625 -3.90625 46.921875 -1.21875 
Q 35.296875 2.390625 27.34375 14.109375 
Q 22.515625 2.546875 12.59375 -7.171875 
L 7.421875 -1.171875 
Q 22.125 11.859375 26.3125 37.796875 
L 33.203125 35.984375 
Q 31.734375 27.4375 29.828125 21.1875 
Q 36.53125 10.59375 46.4375 6.5 
L 46.4375 46 
L 22.40625 46 
L 22.40625 52.390625 
L 77.484375 52.390625 
L 77.484375 46 
L 53.609375 46 
L 53.609375 31 
L 84.328125 31 
L 84.328125 24.515625 
L 53.609375 24.515625 
z
M 53.421875 69.1875 
L 89.84375 69.1875 
L 89.84375 49.46875 
L 82.421875 49.46875 
L 82.421875 62.890625 
L 17.53125 62.890625 
L 17.53125 49.46875 
L 10.109375 49.46875 
L 10.109375 69.1875 
L 45.90625 69.1875 
L 45.90625 83.015625 
L 53.421875 83.015625 
z
" id="IPAexGothic-23450"/>
       <path d="M 51.078125 12.25 
Q 44.28125 -0.484375 29.6875 -0.484375 
Q 19.1875 -0.484375 12.3125 6.390625 
Q 4.890625 13.921875 4.890625 25.984375 
Q 4.890625 37.9375 12.3125 45.515625 
Q 19.09375 52.296875 29.390625 52.296875 
Q 43.953125 52.296875 50.09375 39.703125 
L 43.171875 36.078125 
Q 38.8125 45.3125 29.6875 45.3125 
Q 23.6875 45.3125 19.28125 40.921875 
Q 13.765625 35.40625 13.765625 25.78125 
Q 13.765625 16.703125 19.09375 11.375 
Q 23.78125 6.6875 30.5625 6.6875 
Q 39.796875 6.6875 44.484375 15.875 
z
" id="IPAexGothic-99"/>
       <path d="M 38.375 72.21875 
L 34.8125 66.3125 
Q 31.109375 69.09375 27.203125 69.09375 
Q 18.5 69.09375 18.5 57.375 
L 18.5 50.78125 
L 32.078125 50.78125 
L 32.078125 44.671875 
L 18.5 44.671875 
L 18.5 0.984375 
L 10.015625 0.984375 
L 10.015625 44.671875 
L 1.90625 44.671875 
L 1.90625 50.78125 
L 10.015625 50.78125 
L 10.015625 57.171875 
Q 10.015625 65.4375 13.921875 70.0625 
Q 18.75 75.6875 26.703125 75.6875 
Q 33.0625 75.6875 38.375 72.21875 
z
" id="IPAexGothic-102"/>
       <path d="M 18.40625 61.375 
L 8.59375 61.375 
L 8.59375 71.390625 
L 18.40625 71.390625 
z
M 17.78125 0.984375 
L 9.1875 0.984375 
L 9.1875 50.78125 
L 17.78125 50.78125 
z
" id="IPAexGothic-105"/>
       <path d="M 78.46875 0.984375 
L 69.875 0.984375 
L 69.875 32.171875 
Q 69.875 44.828125 60.109375 44.828125 
Q 55.46875 44.828125 51.609375 40.53125 
Q 48.875 37.453125 47.796875 32.859375 
L 47.796875 0.984375 
L 39.203125 0.984375 
L 39.203125 32.28125 
Q 39.203125 44.828125 29.984375 44.828125 
Q 25.09375 44.828125 21.390625 40.53125 
Q 17.390625 36.03125 17.390625 31.890625 
L 17.390625 0.984375 
L 8.796875 0.984375 
L 8.796875 50.78125 
L 16.796875 50.78125 
L 16.796875 42.1875 
Q 21.734375 51.8125 31.6875 51.8125 
Q 42.578125 51.8125 46.1875 41.359375 
Q 51.609375 51.8125 61.765625 51.8125 
Q 69.96875 51.8125 74.5625 46 
Q 78.46875 41.21875 78.46875 32.375 
z
" id="IPAexGothic-109"/>
       <path d="M 52.984375 0.984375 
L 45.171875 0.984375 
L 45.171875 9.671875 
Q 38.140625 -0.484375 27.390625 -0.484375 
Q 18.453125 -0.484375 12.3125 5.8125 
Q 4.890625 13.1875 4.890625 25.984375 
Q 4.890625 38.53125 12.0625 45.90625 
Q 18.265625 52.203125 27.390625 52.203125 
Q 37.25 52.203125 44.484375 43.890625 
L 44.484375 74.90625 
L 52.984375 74.90625 
z
M 44.484375 20.359375 
L 44.484375 32.765625 
Q 44.484375 37.703125 38.375 42.28125 
Q 34.078125 45.40625 28.953125 45.40625 
Q 23.1875 45.40625 19.1875 41.40625 
Q 13.875 36.078125 13.875 26.21875 
Q 13.875 17.328125 18.265625 11.71875 
Q 22.515625 6.390625 28.859375 6.390625 
Q 36.28125 6.390625 41.5 13.671875 
Q 44.484375 17.71875 44.484375 20.359375 
z
" id="IPAexGothic-100"/>
      </defs>
      <use xlink:href="#IPAexGothic-30906"/>
      <use x="100" xlink:href="#IPAexGothic-23450"/>
      <use x="200" xlink:href="#IPAexGothic-26085"/>
      <use x="300" xlink:href="#IPAexGothic-32"/>
      <use x="327.001953" xlink:href="#IPAexGothic-40"/>
      <use x="360.302734" xlink:href="#IPAexGothic-99"/>
      <use x="414.697266" xlink:href="#IPAexGothic-111"/>
      <use x="475.097656" xlink:href="#IPAexGothic-110"/>
      <use x="535.498047" xlink:href="#IPAexGothic-102"/>
      <use x="566.113281" xlink:href="#IPAexGothic-105"/>
      <use x="593.115234" xlink:href="#IPAexGothic-114"/>
      <use x="630.126953" xlink:href="#IPAexGothic-109"/>
      <use x="717.236328" xlink:href="#IPAexGothic-101"/>
      <use x="774.121094" xlink:href="#IPAexGothic-100"/>
      <use x="836.523438" xlink:href="#IPAexGothic-41"/>
     </g>
    </g>
   </g>
  </g>
  <g id="text_17">
   <!-- generated: 2020-07-26 21:48:23 JST -->
   <g transform="translate(213.980938 14.690625)scale(0.1 -0.1)">
    <defs>
     <path d="M 21.390625 39.984375 
L 10.5 39.984375 
L 10.5 50.78125 
L 21.390625 50.78125 
z
M 21.390625 0.984375 
L 10.5 0.984375 
L 10.5 11.765625 
L 21.390625 11.765625 
z
" id="IPAexGothic-58"/>
     <path d="M 30.765625 26.609375 
L 4.984375 26.609375 
L 4.984375 34.421875 
L 30.765625 34.421875 
z
" id="IPAexGothic-45"/>
     <path d="M 56.203125 66.609375 
Q 34.96875 32.90625 27.78125 0.984375 
L 17.671875 0.984375 
Q 24.703125 28.65625 46.09375 64.5 
L 6.6875 64.5 
L 6.6875 72.40625 
L 56.203125 72.40625 
z
" id="IPAexGothic-55"/>
     <path d="M 38.484375 0.984375 
L 29.6875 0.984375 
L 29.6875 64.109375 
Q 21.4375 61.28125 12.3125 59.328125 
L 10.6875 66.109375 
Q 23.734375 69.390625 32.90625 73.921875 
L 38.484375 73.921875 
z
" id="IPAexGothic-49"/>
     <path d="M 37.203125 37.796875 
Q 54.78125 34.625 54.78125 19.96875 
Q 54.78125 11.1875 48.875 5.5625 
Q 42.328125 -0.484375 30.375 -0.484375 
Q 12.453125 -0.484375 4.5 13.765625 
L 11.8125 17.671875 
Q 17.328125 6.890625 30.28125 6.890625 
Q 37.890625 6.890625 42.09375 10.796875 
Q 46.09375 14.5 46.09375 20.171875 
Q 46.09375 26.859375 40.09375 30.90625 
Q 34.625 34.578125 25.6875 34.578125 
L 21.296875 34.578125 
L 21.296875 41.703125 
L 25.875 41.703125 
Q 34.859375 41.703125 39.59375 45.125 
Q 44.671875 48.734375 44.671875 54.828125 
Q 44.671875 61.46875 38.96875 64.65625 
Q 35.296875 66.84375 30.171875 66.84375 
Q 19.34375 66.84375 14.109375 55.90625 
L 6.78125 59.421875 
Q 14.015625 73.828125 30.28125 73.828125 
Q 40.578125 73.828125 46.96875 68.65625 
Q 53.375 63.578125 53.375 55.21875 
Q 53.375 47.3125 47.171875 42.28125 
Q 43.171875 39.0625 37.203125 38.1875 
z
" id="IPAexGothic-51"/>
     <path d="M 45.609375 56.890625 
Q 40.046875 66.546875 28.953125 66.546875 
Q 22.703125 66.546875 18.953125 62.640625 
Q 16.0625 59.421875 16.0625 55.21875 
Q 16.0625 50.59375 19.78125 47.609375 
Q 22.5625 45.515625 31 42 
L 34.375 40.578125 
Q 45.703125 36.03125 49.859375 30.515625 
Q 53.46875 25.6875 53.46875 19.671875 
Q 53.46875 10.0625 46.390625 4.5 
Q 39.984375 -0.484375 30.171875 -0.484375 
Q 13.765625 -0.484375 4.890625 11.96875 
L 11.765625 17.1875 
Q 18.796875 7.171875 30.28125 7.171875 
Q 35.75 7.171875 39.59375 9.765625 
Q 44.390625 13.234375 44.390625 19 
Q 44.390625 23.484375 40.875 27 
Q 37.109375 30.609375 27 34.46875 
L 24.078125 35.59375 
Q 7.078125 42.09375 7.078125 54.390625 
Q 7.078125 62.59375 12.59375 67.921875 
Q 18.796875 73.828125 29.109375 73.828125 
Q 44.390625 73.828125 52.484375 61.8125 
z
" id="IPAexGothic-83"/>
     <path d="M 60.40625 64.703125 
L 33.984375 64.703125 
L 33.984375 0.984375 
L 25.09375 0.984375 
L 25.09375 64.703125 
L -0.484375 64.703125 
L -0.484375 72.40625 
L 60.40625 72.40625 
z
" id="IPAexGothic-84"/>
    </defs>
    <use xlink:href="#IPAexGothic-103"/>
    <use x="55.517578" xlink:href="#IPAexGothic-101"/>
    <use x="112.402344" xlink:href="#IPAexGothic-110"/>
    <use x="172.802734" xlink:href="#IPAexGothic-101"/>
    <use x="229.6875" xlink:href="#IPAexGothic-114"/>
    <use x="266.699219" xlink:href="#IPAexGothic-97"/>
    <use x="321.679688" xlink:href="#IPAexGothic-116"/>
    <use x="356.298828" xlink:href="#IPAexGothic-101"/>
    <use x="413.183594" xlink:href="#IPAexGothic-100"/>
    <use x="475.585938" xlink:href="#IPAexGothic-58"/>
    <use x="507.568359" xlink:href="#IPAexGothic-32"/>
    <use x="534.570312" xlink:href="#IPAexGothic-50"/>
    <use x="597.558594" xlink:href="#IPAexGothic-48"/>
    <use x="660.546875" xlink:href="#IPAexGothic-50"/>
    <use x="723.535156" xlink:href="#IPAexGothic-48"/>
    <use x="786.523438" xlink:href="#IPAexGothic-45"/>
    <use x="822.314453" xlink:href="#IPAexGothic-48"/>
    <use x="885.302734" xlink:href="#IPAexGothic-55"/>
    <use x="948.291016" xlink:href="#IPAexGothic-45"/>
    <use x="984.082031" xlink:href="#IPAexGothic-50"/>
    <use x="1047.070312" xlink:href="#IPAexGothic-54"/>
    <use x="1110.058594" xlink:href="#IPAexGothic-32"/>
    <use x="1137.060547" xlink:href="#IPAexGothic-50"/>
    <use x="1200.048828" xlink:href="#IPAexGothic-49"/>
    <use x="1263.037109" xlink:href="#IPAexGothic-58"/>
    <use x="1295.019531" xlink:href="#IPAexGothic-52"/>
    <use x="1358.007812" xlink:href="#IPAexGothic-56"/>
    <use x="1420.996094" xlink:href="#IPAexGothic-58"/>
    <use x="1452.978516" xlink:href="#IPAexGothic-50"/>
    <use x="1515.966797" xlink:href="#IPAexGothic-51"/>
    <use x="1578.955078" xlink:href="#IPAexGothic-32"/>
    <use x="1605.957031" xlink:href="#IPAexGothic-74"/>
    <use x="1643.945312" xlink:href="#IPAexGothic-83"/>
    <use x="1702.441406" xlink:href="#IPAexGothic-84"/>
   </g>
  </g>
 </g>
 <defs>
  <clipPath id="p31679cd34c">
   <rect height="266.112" width="357.12" x="33.095313" y="18.146625"/>
  </clipPath>
 </defs>
</svg>
