<?xml version="1.0" encoding="utf-8" standalone="no"?>
<!DOCTYPE svg PUBLIC "-//W3C//DTD SVG 1.1//EN"
  "http://www.w3.org/Graphics/SVG/1.1/DTD/svg11.dtd">
<!-- Created with matplotlib (https://matplotlib.org/) -->
<svg height="309.29325pt" version="1.1" viewBox="0 0 397.415312 309.29325" width="397.415312pt" xmlns="http://www.w3.org/2000/svg" xmlns:xlink="http://www.w3.org/1999/xlink">
 <defs>
  <style type="text/css">
*{stroke-linecap:butt;stroke-linejoin:round;}
  </style>
 </defs>
 <g id="figure_1">
  <g id="patch_1">
   <path d="M 0 309.29325 
L 397.415312 309.29325 
L 397.415312 0 
L 0 0 
z
" style="fill:#ffffff;"/>
  </g>
  <g id="axes_1">
   <g id="patch_2">
    <path d="M 33.095313 273.312 
L 390.215312 273.312 
L 390.215312 7.2 
L 33.095313 7.2 
z
" style="fill:#ffffff;"/>
   </g>
   <g id="patch_3">
    <path clip-path="url(#p9605f93804)" d="M 49.32804 273.312 
L 52.011135 273.312 
L 52.011135 273.312 
L 49.32804 273.312 
z
" style="fill:#1f77b4;opacity:0.5;stroke:#000000;stroke-linejoin:miter;"/>
   </g>
   <g id="patch_4">
    <path clip-path="url(#p9605f93804)" d="M 52.011135 273.312 
L 54.694231 273.312 
L 54.694231 273.312 
L 52.011135 273.312 
z
" style="fill:#1f77b4;opacity:0.5;stroke:#000000;stroke-linejoin:miter;"/>
   </g>
   <g id="patch_5">
    <path clip-path="url(#p9605f93804)" d="M 54.694231 273.312 
L 57.377326 273.312 
L 57.377326 273.312 
L 54.694231 273.312 
z
" style="fill:#1f77b4;opacity:0.5;stroke:#000000;stroke-linejoin:miter;"/>
   </g>
   <g id="patch_6">
    <path clip-path="url(#p9605f93804)" d="M 57.377326 273.312 
L 60.060421 273.312 
L 60.060421 273.312 
L 57.377326 273.312 
z
" style="fill:#1f77b4;opacity:0.5;stroke:#000000;stroke-linejoin:miter;"/>
   </g>
   <g id="patch_7">
    <path clip-path="url(#p9605f93804)" d="M 60.060421 273.312 
L 62.743517 273.312 
L 62.743517 273.312 
L 60.060421 273.312 
z
" style="fill:#1f77b4;opacity:0.5;stroke:#000000;stroke-linejoin:miter;"/>
   </g>
   <g id="patch_8">
    <path clip-path="url(#p9605f93804)" d="M 62.743517 273.312 
L 65.426612 273.312 
L 65.426612 273.312 
L 62.743517 273.312 
z
" style="fill:#1f77b4;opacity:0.5;stroke:#000000;stroke-linejoin:miter;"/>
   </g>
   <g id="patch_9">
    <path clip-path="url(#p9605f93804)" d="M 65.426612 273.312 
L 68.109708 273.312 
L 68.109708 273.312 
L 65.426612 273.312 
z
" style="fill:#1f77b4;opacity:0.5;stroke:#000000;stroke-linejoin:miter;"/>
   </g>
   <g id="patch_10">
    <path clip-path="url(#p9605f93804)" d="M 68.109708 273.312 
L 70.792803 273.312 
L 70.792803 273.312 
L 68.109708 273.312 
z
" style="fill:#1f77b4;opacity:0.5;stroke:#000000;stroke-linejoin:miter;"/>
   </g>
   <g id="patch_11">
    <path clip-path="url(#p9605f93804)" d="M 70.792803 273.312 
L 73.475899 273.312 
L 73.475899 273.312 
L 70.792803 273.312 
z
" style="fill:#1f77b4;opacity:0.5;stroke:#000000;stroke-linejoin:miter;"/>
   </g>
   <g id="patch_12">
    <path clip-path="url(#p9605f93804)" d="M 73.475899 273.312 
L 76.158994 273.312 
L 76.158994 273.312 
L 73.475899 273.312 
z
" style="fill:#1f77b4;opacity:0.5;stroke:#000000;stroke-linejoin:miter;"/>
   </g>
   <g id="patch_13">
    <path clip-path="url(#p9605f93804)" d="M 76.158994 273.312 
L 78.842089 273.312 
L 78.842089 273.312 
L 76.158994 273.312 
z
" style="fill:#1f77b4;opacity:0.5;stroke:#000000;stroke-linejoin:miter;"/>
   </g>
   <g id="patch_14">
    <path clip-path="url(#p9605f93804)" d="M 78.842089 273.312 
L 81.525185 273.312 
L 81.525185 272.051104 
L 78.842089 272.051104 
z
" style="fill:#1f77b4;opacity:0.5;stroke:#000000;stroke-linejoin:miter;"/>
   </g>
   <g id="patch_15">
    <path clip-path="url(#p9605f93804)" d="M 81.525185 273.312 
L 84.20828 273.312 
L 84.20828 273.312 
L 81.525185 273.312 
z
" style="fill:#1f77b4;opacity:0.5;stroke:#000000;stroke-linejoin:miter;"/>
   </g>
   <g id="patch_16">
    <path clip-path="url(#p9605f93804)" d="M 84.20828 273.312 
L 86.891376 273.312 
L 86.891376 273.312 
L 84.20828 273.312 
z
" style="fill:#1f77b4;opacity:0.5;stroke:#000000;stroke-linejoin:miter;"/>
   </g>
   <g id="patch_17">
    <path clip-path="url(#p9605f93804)" d="M 86.891376 273.312 
L 89.574471 273.312 
L 89.574471 273.312 
L 86.891376 273.312 
z
" style="fill:#1f77b4;opacity:0.5;stroke:#000000;stroke-linejoin:miter;"/>
   </g>
   <g id="patch_18">
    <path clip-path="url(#p9605f93804)" d="M 89.574471 273.312 
L 92.257566 273.312 
L 92.257566 273.312 
L 89.574471 273.312 
z
" style="fill:#1f77b4;opacity:0.5;stroke:#000000;stroke-linejoin:miter;"/>
   </g>
   <g id="patch_19">
    <path clip-path="url(#p9605f93804)" d="M 92.257566 273.312 
L 94.940662 273.312 
L 94.940662 273.312 
L 92.257566 273.312 
z
" style="fill:#1f77b4;opacity:0.5;stroke:#000000;stroke-linejoin:miter;"/>
   </g>
   <g id="patch_20">
    <path clip-path="url(#p9605f93804)" d="M 94.940662 273.312 
L 97.623757 273.312 
L 97.623757 272.051104 
L 94.940662 272.051104 
z
" style="fill:#1f77b4;opacity:0.5;stroke:#000000;stroke-linejoin:miter;"/>
   </g>
   <g id="patch_21">
    <path clip-path="url(#p9605f93804)" d="M 97.623757 273.312 
L 100.306853 273.312 
L 100.306853 272.051104 
L 97.623757 272.051104 
z
" style="fill:#1f77b4;opacity:0.5;stroke:#000000;stroke-linejoin:miter;"/>
   </g>
   <g id="patch_22">
    <path clip-path="url(#p9605f93804)" d="M 100.306853 273.312 
L 102.989948 273.312 
L 102.989948 273.312 
L 100.306853 273.312 
z
" style="fill:#1f77b4;opacity:0.5;stroke:#000000;stroke-linejoin:miter;"/>
   </g>
   <g id="patch_23">
    <path clip-path="url(#p9605f93804)" d="M 102.989948 273.312 
L 105.673044 273.312 
L 105.673044 273.312 
L 102.989948 273.312 
z
" style="fill:#1f77b4;opacity:0.5;stroke:#000000;stroke-linejoin:miter;"/>
   </g>
   <g id="patch_24">
    <path clip-path="url(#p9605f93804)" d="M 105.673044 273.312 
L 108.356139 273.312 
L 108.356139 272.051104 
L 105.673044 272.051104 
z
" style="fill:#1f77b4;opacity:0.5;stroke:#000000;stroke-linejoin:miter;"/>
   </g>
   <g id="patch_25">
    <path clip-path="url(#p9605f93804)" d="M 108.356139 273.312 
L 111.039234 273.312 
L 111.039234 273.312 
L 108.356139 273.312 
z
" style="fill:#1f77b4;opacity:0.5;stroke:#000000;stroke-linejoin:miter;"/>
   </g>
   <g id="patch_26">
    <path clip-path="url(#p9605f93804)" d="M 111.039234 273.312 
L 113.72233 273.312 
L 113.72233 273.312 
L 111.039234 273.312 
z
" style="fill:#1f77b4;opacity:0.5;stroke:#000000;stroke-linejoin:miter;"/>
   </g>
   <g id="patch_27">
    <path clip-path="url(#p9605f93804)" d="M 113.72233 273.312 
L 116.405425 273.312 
L 116.405425 273.312 
L 113.72233 273.312 
z
" style="fill:#1f77b4;opacity:0.5;stroke:#000000;stroke-linejoin:miter;"/>
   </g>
   <g id="patch_28">
    <path clip-path="url(#p9605f93804)" d="M 116.405425 273.312 
L 119.088521 273.312 
L 119.088521 273.312 
L 116.405425 273.312 
z
" style="fill:#1f77b4;opacity:0.5;stroke:#000000;stroke-linejoin:miter;"/>
   </g>
   <g id="patch_29">
    <path clip-path="url(#p9605f93804)" d="M 119.088521 273.312 
L 121.771616 273.312 
L 121.771616 272.051104 
L 119.088521 272.051104 
z
" style="fill:#1f77b4;opacity:0.5;stroke:#000000;stroke-linejoin:miter;"/>
   </g>
   <g id="patch_30">
    <path clip-path="url(#p9605f93804)" d="M 121.771616 273.312 
L 124.454711 273.312 
L 124.454711 273.312 
L 121.771616 273.312 
z
" style="fill:#1f77b4;opacity:0.5;stroke:#000000;stroke-linejoin:miter;"/>
   </g>
   <g id="patch_31">
    <path clip-path="url(#p9605f93804)" d="M 124.454711 273.312 
L 127.137807 273.312 
L 127.137807 273.312 
L 124.454711 273.312 
z
" style="fill:#1f77b4;opacity:0.5;stroke:#000000;stroke-linejoin:miter;"/>
   </g>
   <g id="patch_32">
    <path clip-path="url(#p9605f93804)" d="M 127.137807 273.312 
L 129.820902 273.312 
L 129.820902 272.051104 
L 127.137807 272.051104 
z
" style="fill:#1f77b4;opacity:0.5;stroke:#000000;stroke-linejoin:miter;"/>
   </g>
   <g id="patch_33">
    <path clip-path="url(#p9605f93804)" d="M 129.820902 273.312 
L 132.503998 273.312 
L 132.503998 272.051104 
L 129.820902 272.051104 
z
" style="fill:#1f77b4;opacity:0.5;stroke:#000000;stroke-linejoin:miter;"/>
   </g>
   <g id="patch_34">
    <path clip-path="url(#p9605f93804)" d="M 132.503998 273.312 
L 135.187093 273.312 
L 135.187093 269.529313 
L 132.503998 269.529313 
z
" style="fill:#1f77b4;opacity:0.5;stroke:#000000;stroke-linejoin:miter;"/>
   </g>
   <g id="patch_35">
    <path clip-path="url(#p9605f93804)" d="M 135.187093 273.312 
L 137.870189 273.312 
L 137.870189 268.268418 
L 135.187093 268.268418 
z
" style="fill:#1f77b4;opacity:0.5;stroke:#000000;stroke-linejoin:miter;"/>
   </g>
   <g id="patch_36">
    <path clip-path="url(#p9605f93804)" d="M 137.870189 273.312 
L 140.553284 273.312 
L 140.553284 272.051104 
L 137.870189 272.051104 
z
" style="fill:#1f77b4;opacity:0.5;stroke:#000000;stroke-linejoin:miter;"/>
   </g>
   <g id="patch_37">
    <path clip-path="url(#p9605f93804)" d="M 140.553284 273.312 
L 143.236379 273.312 
L 143.236379 272.051104 
L 140.553284 272.051104 
z
" style="fill:#1f77b4;opacity:0.5;stroke:#000000;stroke-linejoin:miter;"/>
   </g>
   <g id="patch_38">
    <path clip-path="url(#p9605f93804)" d="M 143.236379 273.312 
L 145.919475 273.312 
L 145.919475 272.051104 
L 143.236379 272.051104 
z
" style="fill:#1f77b4;opacity:0.5;stroke:#000000;stroke-linejoin:miter;"/>
   </g>
   <g id="patch_39">
    <path clip-path="url(#p9605f93804)" d="M 145.919475 273.312 
L 148.60257 273.312 
L 148.60257 273.312 
L 145.919475 273.312 
z
" style="fill:#1f77b4;opacity:0.5;stroke:#000000;stroke-linejoin:miter;"/>
   </g>
   <g id="patch_40">
    <path clip-path="url(#p9605f93804)" d="M 148.60257 273.312 
L 151.285666 273.312 
L 151.285666 272.051104 
L 148.60257 272.051104 
z
" style="fill:#1f77b4;opacity:0.5;stroke:#000000;stroke-linejoin:miter;"/>
   </g>
   <g id="patch_41">
    <path clip-path="url(#p9605f93804)" d="M 151.285666 273.312 
L 153.968761 273.312 
L 153.968761 269.529313 
L 151.285666 269.529313 
z
" style="fill:#1f77b4;opacity:0.5;stroke:#000000;stroke-linejoin:miter;"/>
   </g>
   <g id="patch_42">
    <path clip-path="url(#p9605f93804)" d="M 153.968761 273.312 
L 156.651856 273.312 
L 156.651856 273.312 
L 153.968761 273.312 
z
" style="fill:#1f77b4;opacity:0.5;stroke:#000000;stroke-linejoin:miter;"/>
   </g>
   <g id="patch_43">
    <path clip-path="url(#p9605f93804)" d="M 156.651856 273.312 
L 159.334952 273.312 
L 159.334952 270.790209 
L 156.651856 270.790209 
z
" style="fill:#1f77b4;opacity:0.5;stroke:#000000;stroke-linejoin:miter;"/>
   </g>
   <g id="patch_44">
    <path clip-path="url(#p9605f93804)" d="M 159.334952 273.312 
L 162.018047 273.312 
L 162.018047 270.790209 
L 159.334952 270.790209 
z
" style="fill:#1f77b4;opacity:0.5;stroke:#000000;stroke-linejoin:miter;"/>
   </g>
   <g id="patch_45">
    <path clip-path="url(#p9605f93804)" d="M 162.018047 273.312 
L 164.701143 273.312 
L 164.701143 272.051104 
L 162.018047 272.051104 
z
" style="fill:#1f77b4;opacity:0.5;stroke:#000000;stroke-linejoin:miter;"/>
   </g>
   <g id="patch_46">
    <path clip-path="url(#p9605f93804)" d="M 164.701143 273.312 
L 167.384238 273.312 
L 167.384238 273.312 
L 164.701143 273.312 
z
" style="fill:#1f77b4;opacity:0.5;stroke:#000000;stroke-linejoin:miter;"/>
   </g>
   <g id="patch_47">
    <path clip-path="url(#p9605f93804)" d="M 167.384238 273.312 
L 170.067334 273.312 
L 170.067334 273.312 
L 167.384238 273.312 
z
" style="fill:#1f77b4;opacity:0.5;stroke:#000000;stroke-linejoin:miter;"/>
   </g>
   <g id="patch_48">
    <path clip-path="url(#p9605f93804)" d="M 170.067334 273.312 
L 172.750429 273.312 
L 172.750429 273.312 
L 170.067334 273.312 
z
" style="fill:#1f77b4;opacity:0.5;stroke:#000000;stroke-linejoin:miter;"/>
   </g>
   <g id="patch_49">
    <path clip-path="url(#p9605f93804)" d="M 172.750429 273.312 
L 175.433524 273.312 
L 175.433524 270.790209 
L 172.750429 270.790209 
z
" style="fill:#1f77b4;opacity:0.5;stroke:#000000;stroke-linejoin:miter;"/>
   </g>
   <g id="patch_50">
    <path clip-path="url(#p9605f93804)" d="M 175.433524 273.312 
L 178.11662 273.312 
L 178.11662 272.051104 
L 175.433524 272.051104 
z
" style="fill:#1f77b4;opacity:0.5;stroke:#000000;stroke-linejoin:miter;"/>
   </g>
   <g id="patch_51">
    <path clip-path="url(#p9605f93804)" d="M 178.11662 273.312 
L 180.799715 273.312 
L 180.799715 272.051104 
L 178.11662 272.051104 
z
" style="fill:#1f77b4;opacity:0.5;stroke:#000000;stroke-linejoin:miter;"/>
   </g>
   <g id="patch_52">
    <path clip-path="url(#p9605f93804)" d="M 180.799715 273.312 
L 183.482811 273.312 
L 183.482811 273.312 
L 180.799715 273.312 
z
" style="fill:#1f77b4;opacity:0.5;stroke:#000000;stroke-linejoin:miter;"/>
   </g>
   <g id="patch_53">
    <path clip-path="url(#p9605f93804)" d="M 183.482811 273.312 
L 186.165906 273.312 
L 186.165906 272.051104 
L 183.482811 272.051104 
z
" style="fill:#1f77b4;opacity:0.5;stroke:#000000;stroke-linejoin:miter;"/>
   </g>
   <g id="patch_54">
    <path clip-path="url(#p9605f93804)" d="M 186.165906 273.312 
L 188.849001 273.312 
L 188.849001 269.529313 
L 186.165906 269.529313 
z
" style="fill:#1f77b4;opacity:0.5;stroke:#000000;stroke-linejoin:miter;"/>
   </g>
   <g id="patch_55">
    <path clip-path="url(#p9605f93804)" d="M 188.849001 273.312 
L 191.532097 273.312 
L 191.532097 270.790209 
L 188.849001 270.790209 
z
" style="fill:#1f77b4;opacity:0.5;stroke:#000000;stroke-linejoin:miter;"/>
   </g>
   <g id="patch_56">
    <path clip-path="url(#p9605f93804)" d="M 191.532097 273.312 
L 194.215192 273.312 
L 194.215192 267.007522 
L 191.532097 267.007522 
z
" style="fill:#1f77b4;opacity:0.5;stroke:#000000;stroke-linejoin:miter;"/>
   </g>
   <g id="patch_57">
    <path clip-path="url(#p9605f93804)" d="M 194.215192 273.312 
L 196.898288 273.312 
L 196.898288 265.746627 
L 194.215192 265.746627 
z
" style="fill:#1f77b4;opacity:0.5;stroke:#000000;stroke-linejoin:miter;"/>
   </g>
   <g id="patch_58">
    <path clip-path="url(#p9605f93804)" d="M 196.898288 273.312 
L 199.581383 273.312 
L 199.581383 268.268418 
L 196.898288 268.268418 
z
" style="fill:#1f77b4;opacity:0.5;stroke:#000000;stroke-linejoin:miter;"/>
   </g>
   <g id="patch_59">
    <path clip-path="url(#p9605f93804)" d="M 199.581383 273.312 
L 202.264479 273.312 
L 202.264479 268.268418 
L 199.581383 268.268418 
z
" style="fill:#1f77b4;opacity:0.5;stroke:#000000;stroke-linejoin:miter;"/>
   </g>
   <g id="patch_60">
    <path clip-path="url(#p9605f93804)" d="M 202.264479 273.312 
L 204.947574 273.312 
L 204.947574 273.312 
L 202.264479 273.312 
z
" style="fill:#1f77b4;opacity:0.5;stroke:#000000;stroke-linejoin:miter;"/>
   </g>
   <g id="patch_61">
    <path clip-path="url(#p9605f93804)" d="M 204.947574 273.312 
L 207.630669 273.312 
L 207.630669 272.051104 
L 204.947574 272.051104 
z
" style="fill:#1f77b4;opacity:0.5;stroke:#000000;stroke-linejoin:miter;"/>
   </g>
   <g id="patch_62">
    <path clip-path="url(#p9605f93804)" d="M 207.630669 273.312 
L 210.313765 273.312 
L 210.313765 264.485731 
L 207.630669 264.485731 
z
" style="fill:#1f77b4;opacity:0.5;stroke:#000000;stroke-linejoin:miter;"/>
   </g>
   <g id="patch_63">
    <path clip-path="url(#p9605f93804)" d="M 210.313765 273.312 
L 212.99686 273.312 
L 212.99686 270.790209 
L 210.313765 270.790209 
z
" style="fill:#1f77b4;opacity:0.5;stroke:#000000;stroke-linejoin:miter;"/>
   </g>
   <g id="patch_64">
    <path clip-path="url(#p9605f93804)" d="M 212.99686 273.312 
L 215.679956 273.312 
L 215.679956 268.268418 
L 212.99686 268.268418 
z
" style="fill:#1f77b4;opacity:0.5;stroke:#000000;stroke-linejoin:miter;"/>
   </g>
   <g id="patch_65">
    <path clip-path="url(#p9605f93804)" d="M 215.679956 273.312 
L 218.363051 273.312 
L 218.363051 269.529313 
L 215.679956 269.529313 
z
" style="fill:#1f77b4;opacity:0.5;stroke:#000000;stroke-linejoin:miter;"/>
   </g>
   <g id="patch_66">
    <path clip-path="url(#p9605f93804)" d="M 218.363051 273.312 
L 221.046146 273.312 
L 221.046146 265.746627 
L 218.363051 265.746627 
z
" style="fill:#1f77b4;opacity:0.5;stroke:#000000;stroke-linejoin:miter;"/>
   </g>
   <g id="patch_67">
    <path clip-path="url(#p9605f93804)" d="M 221.046146 273.312 
L 223.729242 273.312 
L 223.729242 268.268418 
L 221.046146 268.268418 
z
" style="fill:#1f77b4;opacity:0.5;stroke:#000000;stroke-linejoin:miter;"/>
   </g>
   <g id="patch_68">
    <path clip-path="url(#p9605f93804)" d="M 223.729242 273.312 
L 226.412337 273.312 
L 226.412337 264.485731 
L 223.729242 264.485731 
z
" style="fill:#1f77b4;opacity:0.5;stroke:#000000;stroke-linejoin:miter;"/>
   </g>
   <g id="patch_69">
    <path clip-path="url(#p9605f93804)" d="M 226.412337 273.312 
L 229.095433 273.312 
L 229.095433 267.007522 
L 226.412337 267.007522 
z
" style="fill:#1f77b4;opacity:0.5;stroke:#000000;stroke-linejoin:miter;"/>
   </g>
   <g id="patch_70">
    <path clip-path="url(#p9605f93804)" d="M 229.095433 273.312 
L 231.778528 273.312 
L 231.778528 264.485731 
L 229.095433 264.485731 
z
" style="fill:#1f77b4;opacity:0.5;stroke:#000000;stroke-linejoin:miter;"/>
   </g>
   <g id="patch_71">
    <path clip-path="url(#p9605f93804)" d="M 231.778528 273.312 
L 234.461624 273.312 
L 234.461624 267.007522 
L 231.778528 267.007522 
z
" style="fill:#1f77b4;opacity:0.5;stroke:#000000;stroke-linejoin:miter;"/>
   </g>
   <g id="patch_72">
    <path clip-path="url(#p9605f93804)" d="M 234.461624 273.312 
L 237.144719 273.312 
L 237.144719 264.485731 
L 234.461624 264.485731 
z
" style="fill:#1f77b4;opacity:0.5;stroke:#000000;stroke-linejoin:miter;"/>
   </g>
   <g id="patch_73">
    <path clip-path="url(#p9605f93804)" d="M 237.144719 273.312 
L 239.827814 273.312 
L 239.827814 263.224836 
L 237.144719 263.224836 
z
" style="fill:#1f77b4;opacity:0.5;stroke:#000000;stroke-linejoin:miter;"/>
   </g>
   <g id="patch_74">
    <path clip-path="url(#p9605f93804)" d="M 239.827814 273.312 
L 242.51091 273.312 
L 242.51091 265.746627 
L 239.827814 265.746627 
z
" style="fill:#1f77b4;opacity:0.5;stroke:#000000;stroke-linejoin:miter;"/>
   </g>
   <g id="patch_75">
    <path clip-path="url(#p9605f93804)" d="M 242.51091 273.312 
L 245.194005 273.312 
L 245.194005 259.442149 
L 242.51091 259.442149 
z
" style="fill:#1f77b4;opacity:0.5;stroke:#000000;stroke-linejoin:miter;"/>
   </g>
   <g id="patch_76">
    <path clip-path="url(#p9605f93804)" d="M 245.194005 273.312 
L 247.877101 273.312 
L 247.877101 259.442149 
L 245.194005 259.442149 
z
" style="fill:#1f77b4;opacity:0.5;stroke:#000000;stroke-linejoin:miter;"/>
   </g>
   <g id="patch_77">
    <path clip-path="url(#p9605f93804)" d="M 247.877101 273.312 
L 250.560196 273.312 
L 250.560196 260.703045 
L 247.877101 260.703045 
z
" style="fill:#1f77b4;opacity:0.5;stroke:#000000;stroke-linejoin:miter;"/>
   </g>
   <g id="patch_78">
    <path clip-path="url(#p9605f93804)" d="M 250.560196 273.312 
L 253.243291 273.312 
L 253.243291 259.442149 
L 250.560196 259.442149 
z
" style="fill:#1f77b4;opacity:0.5;stroke:#000000;stroke-linejoin:miter;"/>
   </g>
   <g id="patch_79">
    <path clip-path="url(#p9605f93804)" d="M 253.243291 273.312 
L 255.926387 273.312 
L 255.926387 249.354985 
L 253.243291 249.354985 
z
" style="fill:#1f77b4;opacity:0.5;stroke:#000000;stroke-linejoin:miter;"/>
   </g>
   <g id="patch_80">
    <path clip-path="url(#p9605f93804)" d="M 255.926387 273.312 
L 258.609482 273.312 
L 258.609482 256.920358 
L 255.926387 256.920358 
z
" style="fill:#1f77b4;opacity:0.5;stroke:#000000;stroke-linejoin:miter;"/>
   </g>
   <g id="patch_81">
    <path clip-path="url(#p9605f93804)" d="M 258.609482 273.312 
L 261.292578 273.312 
L 261.292578 265.746627 
L 258.609482 265.746627 
z
" style="fill:#1f77b4;opacity:0.5;stroke:#000000;stroke-linejoin:miter;"/>
   </g>
   <g id="patch_82">
    <path clip-path="url(#p9605f93804)" d="M 261.292578 273.312 
L 263.975673 273.312 
L 263.975673 269.529313 
L 261.292578 269.529313 
z
" style="fill:#1f77b4;opacity:0.5;stroke:#000000;stroke-linejoin:miter;"/>
   </g>
   <g id="patch_83">
    <path clip-path="url(#p9605f93804)" d="M 263.975673 273.312 
L 266.658769 273.312 
L 266.658769 268.268418 
L 263.975673 268.268418 
z
" style="fill:#1f77b4;opacity:0.5;stroke:#000000;stroke-linejoin:miter;"/>
   </g>
   <g id="patch_84">
    <path clip-path="url(#p9605f93804)" d="M 266.658769 273.312 
L 269.341864 273.312 
L 269.341864 272.051104 
L 266.658769 272.051104 
z
" style="fill:#1f77b4;opacity:0.5;stroke:#000000;stroke-linejoin:miter;"/>
   </g>
   <g id="patch_85">
    <path clip-path="url(#p9605f93804)" d="M 269.341864 273.312 
L 272.024959 273.312 
L 272.024959 272.051104 
L 269.341864 272.051104 
z
" style="fill:#1f77b4;opacity:0.5;stroke:#000000;stroke-linejoin:miter;"/>
   </g>
   <g id="patch_86">
    <path clip-path="url(#p9605f93804)" d="M 272.024959 273.312 
L 274.708055 273.312 
L 274.708055 273.312 
L 272.024959 273.312 
z
" style="fill:#1f77b4;opacity:0.5;stroke:#000000;stroke-linejoin:miter;"/>
   </g>
   <g id="patch_87">
    <path clip-path="url(#p9605f93804)" d="M 274.708055 273.312 
L 277.39115 273.312 
L 277.39115 273.312 
L 274.708055 273.312 
z
" style="fill:#1f77b4;opacity:0.5;stroke:#000000;stroke-linejoin:miter;"/>
   </g>
   <g id="patch_88">
    <path clip-path="url(#p9605f93804)" d="M 277.39115 273.312 
L 280.074246 273.312 
L 280.074246 273.312 
L 277.39115 273.312 
z
" style="fill:#1f77b4;opacity:0.5;stroke:#000000;stroke-linejoin:miter;"/>
   </g>
   <g id="patch_89">
    <path clip-path="url(#p9605f93804)" d="M 280.074246 273.312 
L 282.757341 273.312 
L 282.757341 273.312 
L 280.074246 273.312 
z
" style="fill:#1f77b4;opacity:0.5;stroke:#000000;stroke-linejoin:miter;"/>
   </g>
   <g id="patch_90">
    <path clip-path="url(#p9605f93804)" d="M 282.757341 273.312 
L 285.440436 273.312 
L 285.440436 273.312 
L 282.757341 273.312 
z
" style="fill:#1f77b4;opacity:0.5;stroke:#000000;stroke-linejoin:miter;"/>
   </g>
   <g id="patch_91">
    <path clip-path="url(#p9605f93804)" d="M 285.440436 273.312 
L 288.123532 273.312 
L 288.123532 273.312 
L 285.440436 273.312 
z
" style="fill:#1f77b4;opacity:0.5;stroke:#000000;stroke-linejoin:miter;"/>
   </g>
   <g id="patch_92">
    <path clip-path="url(#p9605f93804)" d="M 288.123532 273.312 
L 290.806627 273.312 
L 290.806627 273.312 
L 288.123532 273.312 
z
" style="fill:#1f77b4;opacity:0.5;stroke:#000000;stroke-linejoin:miter;"/>
   </g>
   <g id="patch_93">
    <path clip-path="url(#p9605f93804)" d="M 290.806627 273.312 
L 293.489723 273.312 
L 293.489723 273.312 
L 290.806627 273.312 
z
" style="fill:#1f77b4;opacity:0.5;stroke:#000000;stroke-linejoin:miter;"/>
   </g>
   <g id="patch_94">
    <path clip-path="url(#p9605f93804)" d="M 293.489723 273.312 
L 296.172818 273.312 
L 296.172818 273.312 
L 293.489723 273.312 
z
" style="fill:#1f77b4;opacity:0.5;stroke:#000000;stroke-linejoin:miter;"/>
   </g>
   <g id="patch_95">
    <path clip-path="url(#p9605f93804)" d="M 296.172818 273.312 
L 298.855914 273.312 
L 298.855914 273.312 
L 296.172818 273.312 
z
" style="fill:#1f77b4;opacity:0.5;stroke:#000000;stroke-linejoin:miter;"/>
   </g>
   <g id="patch_96">
    <path clip-path="url(#p9605f93804)" d="M 298.855914 273.312 
L 301.539009 273.312 
L 301.539009 273.312 
L 298.855914 273.312 
z
" style="fill:#1f77b4;opacity:0.5;stroke:#000000;stroke-linejoin:miter;"/>
   </g>
   <g id="patch_97">
    <path clip-path="url(#p9605f93804)" d="M 301.539009 273.312 
L 304.222104 273.312 
L 304.222104 273.312 
L 301.539009 273.312 
z
" style="fill:#1f77b4;opacity:0.5;stroke:#000000;stroke-linejoin:miter;"/>
   </g>
   <g id="patch_98">
    <path clip-path="url(#p9605f93804)" d="M 304.222104 273.312 
L 306.9052 273.312 
L 306.9052 273.312 
L 304.222104 273.312 
z
" style="fill:#1f77b4;opacity:0.5;stroke:#000000;stroke-linejoin:miter;"/>
   </g>
   <g id="patch_99">
    <path clip-path="url(#p9605f93804)" d="M 306.9052 273.312 
L 309.588295 273.312 
L 309.588295 273.312 
L 306.9052 273.312 
z
" style="fill:#1f77b4;opacity:0.5;stroke:#000000;stroke-linejoin:miter;"/>
   </g>
   <g id="patch_100">
    <path clip-path="url(#p9605f93804)" d="M 309.588295 273.312 
L 312.271391 273.312 
L 312.271391 273.312 
L 309.588295 273.312 
z
" style="fill:#1f77b4;opacity:0.5;stroke:#000000;stroke-linejoin:miter;"/>
   </g>
   <g id="patch_101">
    <path clip-path="url(#p9605f93804)" d="M 312.271391 273.312 
L 314.954486 273.312 
L 314.954486 273.312 
L 312.271391 273.312 
z
" style="fill:#1f77b4;opacity:0.5;stroke:#000000;stroke-linejoin:miter;"/>
   </g>
   <g id="patch_102">
    <path clip-path="url(#p9605f93804)" d="M 314.954486 273.312 
L 317.637581 273.312 
L 317.637581 273.312 
L 314.954486 273.312 
z
" style="fill:#1f77b4;opacity:0.5;stroke:#000000;stroke-linejoin:miter;"/>
   </g>
   <g id="patch_103">
    <path clip-path="url(#p9605f93804)" d="M 317.637581 273.312 
L 320.320677 273.312 
L 320.320677 273.312 
L 317.637581 273.312 
z
" style="fill:#1f77b4;opacity:0.5;stroke:#000000;stroke-linejoin:miter;"/>
   </g>
   <g id="patch_104">
    <path clip-path="url(#p9605f93804)" d="M 320.320677 273.312 
L 323.003772 273.312 
L 323.003772 273.312 
L 320.320677 273.312 
z
" style="fill:#1f77b4;opacity:0.5;stroke:#000000;stroke-linejoin:miter;"/>
   </g>
   <g id="patch_105">
    <path clip-path="url(#p9605f93804)" d="M 323.003772 273.312 
L 325.686868 273.312 
L 325.686868 273.312 
L 323.003772 273.312 
z
" style="fill:#1f77b4;opacity:0.5;stroke:#000000;stroke-linejoin:miter;"/>
   </g>
   <g id="patch_106">
    <path clip-path="url(#p9605f93804)" d="M 325.686868 273.312 
L 328.369963 273.312 
L 328.369963 273.312 
L 325.686868 273.312 
z
" style="fill:#1f77b4;opacity:0.5;stroke:#000000;stroke-linejoin:miter;"/>
   </g>
   <g id="patch_107">
    <path clip-path="url(#p9605f93804)" d="M 328.369963 273.312 
L 331.053059 273.312 
L 331.053059 273.312 
L 328.369963 273.312 
z
" style="fill:#1f77b4;opacity:0.5;stroke:#000000;stroke-linejoin:miter;"/>
   </g>
   <g id="patch_108">
    <path clip-path="url(#p9605f93804)" d="M 331.053059 273.312 
L 333.736154 273.312 
L 333.736154 273.312 
L 331.053059 273.312 
z
" style="fill:#1f77b4;opacity:0.5;stroke:#000000;stroke-linejoin:miter;"/>
   </g>
   <g id="patch_109">
    <path clip-path="url(#p9605f93804)" d="M 333.736154 273.312 
L 336.419249 273.312 
L 336.419249 273.312 
L 333.736154 273.312 
z
" style="fill:#1f77b4;opacity:0.5;stroke:#000000;stroke-linejoin:miter;"/>
   </g>
   <g id="patch_110">
    <path clip-path="url(#p9605f93804)" d="M 336.419249 273.312 
L 339.102345 273.312 
L 339.102345 273.312 
L 336.419249 273.312 
z
" style="fill:#1f77b4;opacity:0.5;stroke:#000000;stroke-linejoin:miter;"/>
   </g>
   <g id="patch_111">
    <path clip-path="url(#p9605f93804)" d="M 339.102345 273.312 
L 341.78544 273.312 
L 341.78544 273.312 
L 339.102345 273.312 
z
" style="fill:#1f77b4;opacity:0.5;stroke:#000000;stroke-linejoin:miter;"/>
   </g>
   <g id="patch_112">
    <path clip-path="url(#p9605f93804)" d="M 341.78544 273.312 
L 344.468536 273.312 
L 344.468536 273.312 
L 341.78544 273.312 
z
" style="fill:#1f77b4;opacity:0.5;stroke:#000000;stroke-linejoin:miter;"/>
   </g>
   <g id="patch_113">
    <path clip-path="url(#p9605f93804)" d="M 344.468536 273.312 
L 347.151631 273.312 
L 347.151631 273.312 
L 344.468536 273.312 
z
" style="fill:#1f77b4;opacity:0.5;stroke:#000000;stroke-linejoin:miter;"/>
   </g>
   <g id="patch_114">
    <path clip-path="url(#p9605f93804)" d="M 347.151631 273.312 
L 349.834726 273.312 
L 349.834726 273.312 
L 347.151631 273.312 
z
" style="fill:#1f77b4;opacity:0.5;stroke:#000000;stroke-linejoin:miter;"/>
   </g>
   <g id="patch_115">
    <path clip-path="url(#p9605f93804)" d="M 349.834726 273.312 
L 352.517822 273.312 
L 352.517822 273.312 
L 349.834726 273.312 
z
" style="fill:#1f77b4;opacity:0.5;stroke:#000000;stroke-linejoin:miter;"/>
   </g>
   <g id="patch_116">
    <path clip-path="url(#p9605f93804)" d="M 352.517822 273.312 
L 355.200917 273.312 
L 355.200917 273.312 
L 352.517822 273.312 
z
" style="fill:#1f77b4;opacity:0.5;stroke:#000000;stroke-linejoin:miter;"/>
   </g>
   <g id="patch_117">
    <path clip-path="url(#p9605f93804)" d="M 355.200917 273.312 
L 357.884013 273.312 
L 357.884013 273.312 
L 355.200917 273.312 
z
" style="fill:#1f77b4;opacity:0.5;stroke:#000000;stroke-linejoin:miter;"/>
   </g>
   <g id="patch_118">
    <path clip-path="url(#p9605f93804)" d="M 357.884013 273.312 
L 360.567108 273.312 
L 360.567108 273.312 
L 357.884013 273.312 
z
" style="fill:#1f77b4;opacity:0.5;stroke:#000000;stroke-linejoin:miter;"/>
   </g>
   <g id="patch_119">
    <path clip-path="url(#p9605f93804)" d="M 360.567108 273.312 
L 363.250204 273.312 
L 363.250204 273.312 
L 360.567108 273.312 
z
" style="fill:#1f77b4;opacity:0.5;stroke:#000000;stroke-linejoin:miter;"/>
   </g>
   <g id="patch_120">
    <path clip-path="url(#p9605f93804)" d="M 363.250204 273.312 
L 365.933299 273.312 
L 365.933299 273.312 
L 363.250204 273.312 
z
" style="fill:#1f77b4;opacity:0.5;stroke:#000000;stroke-linejoin:miter;"/>
   </g>
   <g id="patch_121">
    <path clip-path="url(#p9605f93804)" d="M 365.933299 273.312 
L 368.616394 273.312 
L 368.616394 273.312 
L 365.933299 273.312 
z
" style="fill:#1f77b4;opacity:0.5;stroke:#000000;stroke-linejoin:miter;"/>
   </g>
   <g id="patch_122">
    <path clip-path="url(#p9605f93804)" d="M 368.616394 273.312 
L 371.29949 273.312 
L 371.29949 273.312 
L 368.616394 273.312 
z
" style="fill:#1f77b4;opacity:0.5;stroke:#000000;stroke-linejoin:miter;"/>
   </g>
   <g id="patch_123">
    <path clip-path="url(#p9605f93804)" d="M 371.29949 273.312 
L 373.982585 273.312 
L 373.982585 273.312 
L 371.29949 273.312 
z
" style="fill:#1f77b4;opacity:0.5;stroke:#000000;stroke-linejoin:miter;"/>
   </g>
   <g id="patch_124">
    <path clip-path="url(#p9605f93804)" d="M 49.32804 273.312 
L 52.011135 273.312 
L 52.011135 273.312 
L 49.32804 273.312 
z
" style="fill:#ff7f0e;opacity:0.5;stroke:#000000;stroke-linejoin:miter;"/>
   </g>
   <g id="patch_125">
    <path clip-path="url(#p9605f93804)" d="M 52.011135 273.312 
L 54.694231 273.312 
L 54.694231 273.312 
L 52.011135 273.312 
z
" style="fill:#ff7f0e;opacity:0.5;stroke:#000000;stroke-linejoin:miter;"/>
   </g>
   <g id="patch_126">
    <path clip-path="url(#p9605f93804)" d="M 54.694231 273.312 
L 57.377326 273.312 
L 57.377326 273.312 
L 54.694231 273.312 
z
" style="fill:#ff7f0e;opacity:0.5;stroke:#000000;stroke-linejoin:miter;"/>
   </g>
   <g id="patch_127">
    <path clip-path="url(#p9605f93804)" d="M 57.377326 273.312 
L 60.060421 273.312 
L 60.060421 273.312 
L 57.377326 273.312 
z
" style="fill:#ff7f0e;opacity:0.5;stroke:#000000;stroke-linejoin:miter;"/>
   </g>
   <g id="patch_128">
    <path clip-path="url(#p9605f93804)" d="M 60.060421 273.312 
L 62.743517 273.312 
L 62.743517 273.312 
L 60.060421 273.312 
z
" style="fill:#ff7f0e;opacity:0.5;stroke:#000000;stroke-linejoin:miter;"/>
   </g>
   <g id="patch_129">
    <path clip-path="url(#p9605f93804)" d="M 62.743517 273.312 
L 65.426612 273.312 
L 65.426612 273.312 
L 62.743517 273.312 
z
" style="fill:#ff7f0e;opacity:0.5;stroke:#000000;stroke-linejoin:miter;"/>
   </g>
   <g id="patch_130">
    <path clip-path="url(#p9605f93804)" d="M 65.426612 273.312 
L 68.109708 273.312 
L 68.109708 273.312 
L 65.426612 273.312 
z
" style="fill:#ff7f0e;opacity:0.5;stroke:#000000;stroke-linejoin:miter;"/>
   </g>
   <g id="patch_131">
    <path clip-path="url(#p9605f93804)" d="M 68.109708 273.312 
L 70.792803 273.312 
L 70.792803 273.312 
L 68.109708 273.312 
z
" style="fill:#ff7f0e;opacity:0.5;stroke:#000000;stroke-linejoin:miter;"/>
   </g>
   <g id="patch_132">
    <path clip-path="url(#p9605f93804)" d="M 70.792803 273.312 
L 73.475899 273.312 
L 73.475899 273.312 
L 70.792803 273.312 
z
" style="fill:#ff7f0e;opacity:0.5;stroke:#000000;stroke-linejoin:miter;"/>
   </g>
   <g id="patch_133">
    <path clip-path="url(#p9605f93804)" d="M 73.475899 273.312 
L 76.158994 273.312 
L 76.158994 273.312 
L 73.475899 273.312 
z
" style="fill:#ff7f0e;opacity:0.5;stroke:#000000;stroke-linejoin:miter;"/>
   </g>
   <g id="patch_134">
    <path clip-path="url(#p9605f93804)" d="M 76.158994 273.312 
L 78.842089 273.312 
L 78.842089 273.312 
L 76.158994 273.312 
z
" style="fill:#ff7f0e;opacity:0.5;stroke:#000000;stroke-linejoin:miter;"/>
   </g>
   <g id="patch_135">
    <path clip-path="url(#p9605f93804)" d="M 78.842089 273.312 
L 81.525185 273.312 
L 81.525185 273.312 
L 78.842089 273.312 
z
" style="fill:#ff7f0e;opacity:0.5;stroke:#000000;stroke-linejoin:miter;"/>
   </g>
   <g id="patch_136">
    <path clip-path="url(#p9605f93804)" d="M 81.525185 273.312 
L 84.20828 273.312 
L 84.20828 273.312 
L 81.525185 273.312 
z
" style="fill:#ff7f0e;opacity:0.5;stroke:#000000;stroke-linejoin:miter;"/>
   </g>
   <g id="patch_137">
    <path clip-path="url(#p9605f93804)" d="M 84.20828 273.312 
L 86.891376 273.312 
L 86.891376 273.312 
L 84.20828 273.312 
z
" style="fill:#ff7f0e;opacity:0.5;stroke:#000000;stroke-linejoin:miter;"/>
   </g>
   <g id="patch_138">
    <path clip-path="url(#p9605f93804)" d="M 86.891376 273.312 
L 89.574471 273.312 
L 89.574471 273.312 
L 86.891376 273.312 
z
" style="fill:#ff7f0e;opacity:0.5;stroke:#000000;stroke-linejoin:miter;"/>
   </g>
   <g id="patch_139">
    <path clip-path="url(#p9605f93804)" d="M 89.574471 273.312 
L 92.257566 273.312 
L 92.257566 273.312 
L 89.574471 273.312 
z
" style="fill:#ff7f0e;opacity:0.5;stroke:#000000;stroke-linejoin:miter;"/>
   </g>
   <g id="patch_140">
    <path clip-path="url(#p9605f93804)" d="M 92.257566 273.312 
L 94.940662 273.312 
L 94.940662 273.312 
L 92.257566 273.312 
z
" style="fill:#ff7f0e;opacity:0.5;stroke:#000000;stroke-linejoin:miter;"/>
   </g>
   <g id="patch_141">
    <path clip-path="url(#p9605f93804)" d="M 94.940662 273.312 
L 97.623757 273.312 
L 97.623757 273.312 
L 94.940662 273.312 
z
" style="fill:#ff7f0e;opacity:0.5;stroke:#000000;stroke-linejoin:miter;"/>
   </g>
   <g id="patch_142">
    <path clip-path="url(#p9605f93804)" d="M 97.623757 273.312 
L 100.306853 273.312 
L 100.306853 273.312 
L 97.623757 273.312 
z
" style="fill:#ff7f0e;opacity:0.5;stroke:#000000;stroke-linejoin:miter;"/>
   </g>
   <g id="patch_143">
    <path clip-path="url(#p9605f93804)" d="M 100.306853 273.312 
L 102.989948 273.312 
L 102.989948 273.312 
L 100.306853 273.312 
z
" style="fill:#ff7f0e;opacity:0.5;stroke:#000000;stroke-linejoin:miter;"/>
   </g>
   <g id="patch_144">
    <path clip-path="url(#p9605f93804)" d="M 102.989948 273.312 
L 105.673044 273.312 
L 105.673044 273.312 
L 102.989948 273.312 
z
" style="fill:#ff7f0e;opacity:0.5;stroke:#000000;stroke-linejoin:miter;"/>
   </g>
   <g id="patch_145">
    <path clip-path="url(#p9605f93804)" d="M 105.673044 273.312 
L 108.356139 273.312 
L 108.356139 272.051104 
L 105.673044 272.051104 
z
" style="fill:#ff7f0e;opacity:0.5;stroke:#000000;stroke-linejoin:miter;"/>
   </g>
   <g id="patch_146">
    <path clip-path="url(#p9605f93804)" d="M 108.356139 273.312 
L 111.039234 273.312 
L 111.039234 272.051104 
L 108.356139 272.051104 
z
" style="fill:#ff7f0e;opacity:0.5;stroke:#000000;stroke-linejoin:miter;"/>
   </g>
   <g id="patch_147">
    <path clip-path="url(#p9605f93804)" d="M 111.039234 273.312 
L 113.72233 273.312 
L 113.72233 273.312 
L 111.039234 273.312 
z
" style="fill:#ff7f0e;opacity:0.5;stroke:#000000;stroke-linejoin:miter;"/>
   </g>
   <g id="patch_148">
    <path clip-path="url(#p9605f93804)" d="M 113.72233 273.312 
L 116.405425 273.312 
L 116.405425 273.312 
L 113.72233 273.312 
z
" style="fill:#ff7f0e;opacity:0.5;stroke:#000000;stroke-linejoin:miter;"/>
   </g>
   <g id="patch_149">
    <path clip-path="url(#p9605f93804)" d="M 116.405425 273.312 
L 119.088521 273.312 
L 119.088521 273.312 
L 116.405425 273.312 
z
" style="fill:#ff7f0e;opacity:0.5;stroke:#000000;stroke-linejoin:miter;"/>
   </g>
   <g id="patch_150">
    <path clip-path="url(#p9605f93804)" d="M 119.088521 273.312 
L 121.771616 273.312 
L 121.771616 273.312 
L 119.088521 273.312 
z
" style="fill:#ff7f0e;opacity:0.5;stroke:#000000;stroke-linejoin:miter;"/>
   </g>
   <g id="patch_151">
    <path clip-path="url(#p9605f93804)" d="M 121.771616 273.312 
L 124.454711 273.312 
L 124.454711 272.051104 
L 121.771616 272.051104 
z
" style="fill:#ff7f0e;opacity:0.5;stroke:#000000;stroke-linejoin:miter;"/>
   </g>
   <g id="patch_152">
    <path clip-path="url(#p9605f93804)" d="M 124.454711 273.312 
L 127.137807 273.312 
L 127.137807 273.312 
L 124.454711 273.312 
z
" style="fill:#ff7f0e;opacity:0.5;stroke:#000000;stroke-linejoin:miter;"/>
   </g>
   <g id="patch_153">
    <path clip-path="url(#p9605f93804)" d="M 127.137807 273.312 
L 129.820902 273.312 
L 129.820902 273.312 
L 127.137807 273.312 
z
" style="fill:#ff7f0e;opacity:0.5;stroke:#000000;stroke-linejoin:miter;"/>
   </g>
   <g id="patch_154">
    <path clip-path="url(#p9605f93804)" d="M 129.820902 273.312 
L 132.503998 273.312 
L 132.503998 273.312 
L 129.820902 273.312 
z
" style="fill:#ff7f0e;opacity:0.5;stroke:#000000;stroke-linejoin:miter;"/>
   </g>
   <g id="patch_155">
    <path clip-path="url(#p9605f93804)" d="M 132.503998 273.312 
L 135.187093 273.312 
L 135.187093 273.312 
L 132.503998 273.312 
z
" style="fill:#ff7f0e;opacity:0.5;stroke:#000000;stroke-linejoin:miter;"/>
   </g>
   <g id="patch_156">
    <path clip-path="url(#p9605f93804)" d="M 135.187093 273.312 
L 137.870189 273.312 
L 137.870189 273.312 
L 135.187093 273.312 
z
" style="fill:#ff7f0e;opacity:0.5;stroke:#000000;stroke-linejoin:miter;"/>
   </g>
   <g id="patch_157">
    <path clip-path="url(#p9605f93804)" d="M 137.870189 273.312 
L 140.553284 273.312 
L 140.553284 273.312 
L 137.870189 273.312 
z
" style="fill:#ff7f0e;opacity:0.5;stroke:#000000;stroke-linejoin:miter;"/>
   </g>
   <g id="patch_158">
    <path clip-path="url(#p9605f93804)" d="M 140.553284 273.312 
L 143.236379 273.312 
L 143.236379 273.312 
L 140.553284 273.312 
z
" style="fill:#ff7f0e;opacity:0.5;stroke:#000000;stroke-linejoin:miter;"/>
   </g>
   <g id="patch_159">
    <path clip-path="url(#p9605f93804)" d="M 143.236379 273.312 
L 145.919475 273.312 
L 145.919475 273.312 
L 143.236379 273.312 
z
" style="fill:#ff7f0e;opacity:0.5;stroke:#000000;stroke-linejoin:miter;"/>
   </g>
   <g id="patch_160">
    <path clip-path="url(#p9605f93804)" d="M 145.919475 273.312 
L 148.60257 273.312 
L 148.60257 273.312 
L 145.919475 273.312 
z
" style="fill:#ff7f0e;opacity:0.5;stroke:#000000;stroke-linejoin:miter;"/>
   </g>
   <g id="patch_161">
    <path clip-path="url(#p9605f93804)" d="M 148.60257 273.312 
L 151.285666 273.312 
L 151.285666 273.312 
L 148.60257 273.312 
z
" style="fill:#ff7f0e;opacity:0.5;stroke:#000000;stroke-linejoin:miter;"/>
   </g>
   <g id="patch_162">
    <path clip-path="url(#p9605f93804)" d="M 151.285666 273.312 
L 153.968761 273.312 
L 153.968761 273.312 
L 151.285666 273.312 
z
" style="fill:#ff7f0e;opacity:0.5;stroke:#000000;stroke-linejoin:miter;"/>
   </g>
   <g id="patch_163">
    <path clip-path="url(#p9605f93804)" d="M 153.968761 273.312 
L 156.651856 273.312 
L 156.651856 273.312 
L 153.968761 273.312 
z
" style="fill:#ff7f0e;opacity:0.5;stroke:#000000;stroke-linejoin:miter;"/>
   </g>
   <g id="patch_164">
    <path clip-path="url(#p9605f93804)" d="M 156.651856 273.312 
L 159.334952 273.312 
L 159.334952 273.312 
L 156.651856 273.312 
z
" style="fill:#ff7f0e;opacity:0.5;stroke:#000000;stroke-linejoin:miter;"/>
   </g>
   <g id="patch_165">
    <path clip-path="url(#p9605f93804)" d="M 159.334952 273.312 
L 162.018047 273.312 
L 162.018047 272.051104 
L 159.334952 272.051104 
z
" style="fill:#ff7f0e;opacity:0.5;stroke:#000000;stroke-linejoin:miter;"/>
   </g>
   <g id="patch_166">
    <path clip-path="url(#p9605f93804)" d="M 162.018047 273.312 
L 164.701143 273.312 
L 164.701143 270.790209 
L 162.018047 270.790209 
z
" style="fill:#ff7f0e;opacity:0.5;stroke:#000000;stroke-linejoin:miter;"/>
   </g>
   <g id="patch_167">
    <path clip-path="url(#p9605f93804)" d="M 164.701143 273.312 
L 167.384238 273.312 
L 167.384238 263.224836 
L 164.701143 263.224836 
z
" style="fill:#ff7f0e;opacity:0.5;stroke:#000000;stroke-linejoin:miter;"/>
   </g>
   <g id="patch_168">
    <path clip-path="url(#p9605f93804)" d="M 167.384238 273.312 
L 170.067334 273.312 
L 170.067334 267.007522 
L 167.384238 267.007522 
z
" style="fill:#ff7f0e;opacity:0.5;stroke:#000000;stroke-linejoin:miter;"/>
   </g>
   <g id="patch_169">
    <path clip-path="url(#p9605f93804)" d="M 170.067334 273.312 
L 172.750429 273.312 
L 172.750429 273.312 
L 170.067334 273.312 
z
" style="fill:#ff7f0e;opacity:0.5;stroke:#000000;stroke-linejoin:miter;"/>
   </g>
   <g id="patch_170">
    <path clip-path="url(#p9605f93804)" d="M 172.750429 273.312 
L 175.433524 273.312 
L 175.433524 269.529313 
L 172.750429 269.529313 
z
" style="fill:#ff7f0e;opacity:0.5;stroke:#000000;stroke-linejoin:miter;"/>
   </g>
   <g id="patch_171">
    <path clip-path="url(#p9605f93804)" d="M 175.433524 273.312 
L 178.11662 273.312 
L 178.11662 269.529313 
L 175.433524 269.529313 
z
" style="fill:#ff7f0e;opacity:0.5;stroke:#000000;stroke-linejoin:miter;"/>
   </g>
   <g id="patch_172">
    <path clip-path="url(#p9605f93804)" d="M 178.11662 273.312 
L 180.799715 273.312 
L 180.799715 273.312 
L 178.11662 273.312 
z
" style="fill:#ff7f0e;opacity:0.5;stroke:#000000;stroke-linejoin:miter;"/>
   </g>
   <g id="patch_173">
    <path clip-path="url(#p9605f93804)" d="M 180.799715 273.312 
L 183.482811 273.312 
L 183.482811 269.529313 
L 180.799715 269.529313 
z
" style="fill:#ff7f0e;opacity:0.5;stroke:#000000;stroke-linejoin:miter;"/>
   </g>
   <g id="patch_174">
    <path clip-path="url(#p9605f93804)" d="M 183.482811 273.312 
L 186.165906 273.312 
L 186.165906 272.051104 
L 183.482811 272.051104 
z
" style="fill:#ff7f0e;opacity:0.5;stroke:#000000;stroke-linejoin:miter;"/>
   </g>
   <g id="patch_175">
    <path clip-path="url(#p9605f93804)" d="M 186.165906 273.312 
L 188.849001 273.312 
L 188.849001 273.312 
L 186.165906 273.312 
z
" style="fill:#ff7f0e;opacity:0.5;stroke:#000000;stroke-linejoin:miter;"/>
   </g>
   <g id="patch_176">
    <path clip-path="url(#p9605f93804)" d="M 188.849001 273.312 
L 191.532097 273.312 
L 191.532097 269.529313 
L 188.849001 269.529313 
z
" style="fill:#ff7f0e;opacity:0.5;stroke:#000000;stroke-linejoin:miter;"/>
   </g>
   <g id="patch_177">
    <path clip-path="url(#p9605f93804)" d="M 191.532097 273.312 
L 194.215192 273.312 
L 194.215192 273.312 
L 191.532097 273.312 
z
" style="fill:#ff7f0e;opacity:0.5;stroke:#000000;stroke-linejoin:miter;"/>
   </g>
   <g id="patch_178">
    <path clip-path="url(#p9605f93804)" d="M 194.215192 273.312 
L 196.898288 273.312 
L 196.898288 269.529313 
L 194.215192 269.529313 
z
" style="fill:#ff7f0e;opacity:0.5;stroke:#000000;stroke-linejoin:miter;"/>
   </g>
   <g id="patch_179">
    <path clip-path="url(#p9605f93804)" d="M 196.898288 273.312 
L 199.581383 273.312 
L 199.581383 272.051104 
L 196.898288 272.051104 
z
" style="fill:#ff7f0e;opacity:0.5;stroke:#000000;stroke-linejoin:miter;"/>
   </g>
   <g id="patch_180">
    <path clip-path="url(#p9605f93804)" d="M 199.581383 273.312 
L 202.264479 273.312 
L 202.264479 273.312 
L 199.581383 273.312 
z
" style="fill:#ff7f0e;opacity:0.5;stroke:#000000;stroke-linejoin:miter;"/>
   </g>
   <g id="patch_181">
    <path clip-path="url(#p9605f93804)" d="M 202.264479 273.312 
L 204.947574 273.312 
L 204.947574 272.051104 
L 202.264479 272.051104 
z
" style="fill:#ff7f0e;opacity:0.5;stroke:#000000;stroke-linejoin:miter;"/>
   </g>
   <g id="patch_182">
    <path clip-path="url(#p9605f93804)" d="M 204.947574 273.312 
L 207.630669 273.312 
L 207.630669 270.790209 
L 204.947574 270.790209 
z
" style="fill:#ff7f0e;opacity:0.5;stroke:#000000;stroke-linejoin:miter;"/>
   </g>
   <g id="patch_183">
    <path clip-path="url(#p9605f93804)" d="M 207.630669 273.312 
L 210.313765 273.312 
L 210.313765 273.312 
L 207.630669 273.312 
z
" style="fill:#ff7f0e;opacity:0.5;stroke:#000000;stroke-linejoin:miter;"/>
   </g>
   <g id="patch_184">
    <path clip-path="url(#p9605f93804)" d="M 210.313765 273.312 
L 212.99686 273.312 
L 212.99686 272.051104 
L 210.313765 272.051104 
z
" style="fill:#ff7f0e;opacity:0.5;stroke:#000000;stroke-linejoin:miter;"/>
   </g>
   <g id="patch_185">
    <path clip-path="url(#p9605f93804)" d="M 212.99686 273.312 
L 215.679956 273.312 
L 215.679956 268.268418 
L 212.99686 268.268418 
z
" style="fill:#ff7f0e;opacity:0.5;stroke:#000000;stroke-linejoin:miter;"/>
   </g>
   <g id="patch_186">
    <path clip-path="url(#p9605f93804)" d="M 215.679956 273.312 
L 218.363051 273.312 
L 218.363051 263.224836 
L 215.679956 263.224836 
z
" style="fill:#ff7f0e;opacity:0.5;stroke:#000000;stroke-linejoin:miter;"/>
   </g>
   <g id="patch_187">
    <path clip-path="url(#p9605f93804)" d="M 218.363051 273.312 
L 221.046146 273.312 
L 221.046146 265.746627 
L 218.363051 265.746627 
z
" style="fill:#ff7f0e;opacity:0.5;stroke:#000000;stroke-linejoin:miter;"/>
   </g>
   <g id="patch_188">
    <path clip-path="url(#p9605f93804)" d="M 221.046146 273.312 
L 223.729242 273.312 
L 223.729242 265.746627 
L 221.046146 265.746627 
z
" style="fill:#ff7f0e;opacity:0.5;stroke:#000000;stroke-linejoin:miter;"/>
   </g>
   <g id="patch_189">
    <path clip-path="url(#p9605f93804)" d="M 223.729242 273.312 
L 226.412337 273.312 
L 226.412337 273.312 
L 223.729242 273.312 
z
" style="fill:#ff7f0e;opacity:0.5;stroke:#000000;stroke-linejoin:miter;"/>
   </g>
   <g id="patch_190">
    <path clip-path="url(#p9605f93804)" d="M 226.412337 273.312 
L 229.095433 273.312 
L 229.095433 273.312 
L 226.412337 273.312 
z
" style="fill:#ff7f0e;opacity:0.5;stroke:#000000;stroke-linejoin:miter;"/>
   </g>
   <g id="patch_191">
    <path clip-path="url(#p9605f93804)" d="M 229.095433 273.312 
L 231.778528 273.312 
L 231.778528 269.529313 
L 229.095433 269.529313 
z
" style="fill:#ff7f0e;opacity:0.5;stroke:#000000;stroke-linejoin:miter;"/>
   </g>
   <g id="patch_192">
    <path clip-path="url(#p9605f93804)" d="M 231.778528 273.312 
L 234.461624 273.312 
L 234.461624 265.746627 
L 231.778528 265.746627 
z
" style="fill:#ff7f0e;opacity:0.5;stroke:#000000;stroke-linejoin:miter;"/>
   </g>
   <g id="patch_193">
    <path clip-path="url(#p9605f93804)" d="M 234.461624 273.312 
L 237.144719 273.312 
L 237.144719 270.790209 
L 234.461624 270.790209 
z
" style="fill:#ff7f0e;opacity:0.5;stroke:#000000;stroke-linejoin:miter;"/>
   </g>
   <g id="patch_194">
    <path clip-path="url(#p9605f93804)" d="M 237.144719 273.312 
L 239.827814 273.312 
L 239.827814 270.790209 
L 237.144719 270.790209 
z
" style="fill:#ff7f0e;opacity:0.5;stroke:#000000;stroke-linejoin:miter;"/>
   </g>
   <g id="patch_195">
    <path clip-path="url(#p9605f93804)" d="M 239.827814 273.312 
L 242.51091 273.312 
L 242.51091 260.703045 
L 239.827814 260.703045 
z
" style="fill:#ff7f0e;opacity:0.5;stroke:#000000;stroke-linejoin:miter;"/>
   </g>
   <g id="patch_196">
    <path clip-path="url(#p9605f93804)" d="M 242.51091 273.312 
L 245.194005 273.312 
L 245.194005 269.529313 
L 242.51091 269.529313 
z
" style="fill:#ff7f0e;opacity:0.5;stroke:#000000;stroke-linejoin:miter;"/>
   </g>
   <g id="patch_197">
    <path clip-path="url(#p9605f93804)" d="M 245.194005 273.312 
L 247.877101 273.312 
L 247.877101 273.312 
L 245.194005 273.312 
z
" style="fill:#ff7f0e;opacity:0.5;stroke:#000000;stroke-linejoin:miter;"/>
   </g>
   <g id="patch_198">
    <path clip-path="url(#p9605f93804)" d="M 247.877101 273.312 
L 250.560196 273.312 
L 250.560196 258.181254 
L 247.877101 258.181254 
z
" style="fill:#ff7f0e;opacity:0.5;stroke:#000000;stroke-linejoin:miter;"/>
   </g>
   <g id="patch_199">
    <path clip-path="url(#p9605f93804)" d="M 250.560196 273.312 
L 253.243291 273.312 
L 253.243291 261.96394 
L 250.560196 261.96394 
z
" style="fill:#ff7f0e;opacity:0.5;stroke:#000000;stroke-linejoin:miter;"/>
   </g>
   <g id="patch_200">
    <path clip-path="url(#p9605f93804)" d="M 253.243291 273.312 
L 255.926387 273.312 
L 255.926387 259.442149 
L 253.243291 259.442149 
z
" style="fill:#ff7f0e;opacity:0.5;stroke:#000000;stroke-linejoin:miter;"/>
   </g>
   <g id="patch_201">
    <path clip-path="url(#p9605f93804)" d="M 255.926387 273.312 
L 258.609482 273.312 
L 258.609482 264.485731 
L 255.926387 264.485731 
z
" style="fill:#ff7f0e;opacity:0.5;stroke:#000000;stroke-linejoin:miter;"/>
   </g>
   <g id="patch_202">
    <path clip-path="url(#p9605f93804)" d="M 258.609482 273.312 
L 261.292578 273.312 
L 261.292578 264.485731 
L 258.609482 264.485731 
z
" style="fill:#ff7f0e;opacity:0.5;stroke:#000000;stroke-linejoin:miter;"/>
   </g>
   <g id="patch_203">
    <path clip-path="url(#p9605f93804)" d="M 261.292578 273.312 
L 263.975673 273.312 
L 263.975673 270.790209 
L 261.292578 270.790209 
z
" style="fill:#ff7f0e;opacity:0.5;stroke:#000000;stroke-linejoin:miter;"/>
   </g>
   <g id="patch_204">
    <path clip-path="url(#p9605f93804)" d="M 263.975673 273.312 
L 266.658769 273.312 
L 266.658769 253.137672 
L 263.975673 253.137672 
z
" style="fill:#ff7f0e;opacity:0.5;stroke:#000000;stroke-linejoin:miter;"/>
   </g>
   <g id="patch_205">
    <path clip-path="url(#p9605f93804)" d="M 266.658769 273.312 
L 269.341864 273.312 
L 269.341864 251.876776 
L 266.658769 251.876776 
z
" style="fill:#ff7f0e;opacity:0.5;stroke:#000000;stroke-linejoin:miter;"/>
   </g>
   <g id="patch_206">
    <path clip-path="url(#p9605f93804)" d="M 269.341864 273.312 
L 272.024959 273.312 
L 272.024959 221.615284 
L 269.341864 221.615284 
z
" style="fill:#ff7f0e;opacity:0.5;stroke:#000000;stroke-linejoin:miter;"/>
   </g>
   <g id="patch_207">
    <path clip-path="url(#p9605f93804)" d="M 272.024959 273.312 
L 274.708055 273.312 
L 274.708055 214.04991 
L 272.024959 214.04991 
z
" style="fill:#ff7f0e;opacity:0.5;stroke:#000000;stroke-linejoin:miter;"/>
   </g>
   <g id="patch_208">
    <path clip-path="url(#p9605f93804)" d="M 274.708055 273.312 
L 277.39115 273.312 
L 277.39115 222.876179 
L 274.708055 222.876179 
z
" style="fill:#ff7f0e;opacity:0.5;stroke:#000000;stroke-linejoin:miter;"/>
   </g>
   <g id="patch_209">
    <path clip-path="url(#p9605f93804)" d="M 277.39115 273.312 
L 280.074246 273.312 
L 280.074246 193.875582 
L 277.39115 193.875582 
z
" style="fill:#ff7f0e;opacity:0.5;stroke:#000000;stroke-linejoin:miter;"/>
   </g>
   <g id="patch_210">
    <path clip-path="url(#p9605f93804)" d="M 280.074246 273.312 
L 282.757341 273.312 
L 282.757341 187.571104 
L 280.074246 187.571104 
z
" style="fill:#ff7f0e;opacity:0.5;stroke:#000000;stroke-linejoin:miter;"/>
   </g>
   <g id="patch_211">
    <path clip-path="url(#p9605f93804)" d="M 282.757341 273.312 
L 285.440436 273.312 
L 285.440436 256.920358 
L 282.757341 256.920358 
z
" style="fill:#ff7f0e;opacity:0.5;stroke:#000000;stroke-linejoin:miter;"/>
   </g>
   <g id="patch_212">
    <path clip-path="url(#p9605f93804)" d="M 285.440436 273.312 
L 288.123532 273.312 
L 288.123532 174.962149 
L 285.440436 174.962149 
z
" style="fill:#ff7f0e;opacity:0.5;stroke:#000000;stroke-linejoin:miter;"/>
   </g>
   <g id="patch_213">
    <path clip-path="url(#p9605f93804)" d="M 288.123532 273.312 
L 290.806627 273.312 
L 290.806627 190.092896 
L 288.123532 190.092896 
z
" style="fill:#ff7f0e;opacity:0.5;stroke:#000000;stroke-linejoin:miter;"/>
   </g>
   <g id="patch_214">
    <path clip-path="url(#p9605f93804)" d="M 290.806627 273.312 
L 293.489723 273.312 
L 293.489723 151.005134 
L 290.806627 151.005134 
z
" style="fill:#ff7f0e;opacity:0.5;stroke:#000000;stroke-linejoin:miter;"/>
   </g>
   <g id="patch_215">
    <path clip-path="url(#p9605f93804)" d="M 293.489723 273.312 
L 296.172818 273.312 
L 296.172818 161.092299 
L 293.489723 161.092299 
z
" style="fill:#ff7f0e;opacity:0.5;stroke:#000000;stroke-linejoin:miter;"/>
   </g>
   <g id="patch_216">
    <path clip-path="url(#p9605f93804)" d="M 296.172818 273.312 
L 298.855914 273.312 
L 298.855914 127.048119 
L 296.172818 127.048119 
z
" style="fill:#ff7f0e;opacity:0.5;stroke:#000000;stroke-linejoin:miter;"/>
   </g>
   <g id="patch_217">
    <path clip-path="url(#p9605f93804)" d="M 298.855914 273.312 
L 301.539009 273.312 
L 301.539009 93.00394 
L 298.855914 93.00394 
z
" style="fill:#ff7f0e;opacity:0.5;stroke:#000000;stroke-linejoin:miter;"/>
   </g>
   <g id="patch_218">
    <path clip-path="url(#p9605f93804)" d="M 301.539009 273.312 
L 304.222104 273.312 
L 304.222104 168.657672 
L 301.539009 168.657672 
z
" style="fill:#ff7f0e;opacity:0.5;stroke:#000000;stroke-linejoin:miter;"/>
   </g>
   <g id="patch_219">
    <path clip-path="url(#p9605f93804)" d="M 304.222104 273.312 
L 306.9052 273.312 
L 306.9052 173.701254 
L 304.222104 173.701254 
z
" style="fill:#ff7f0e;opacity:0.5;stroke:#000000;stroke-linejoin:miter;"/>
   </g>
   <g id="patch_220">
    <path clip-path="url(#p9605f93804)" d="M 306.9052 273.312 
L 309.588295 273.312 
L 309.588295 91.743045 
L 306.9052 91.743045 
z
" style="fill:#ff7f0e;opacity:0.5;stroke:#000000;stroke-linejoin:miter;"/>
   </g>
   <g id="patch_221">
    <path clip-path="url(#p9605f93804)" d="M 309.588295 273.312 
L 312.271391 273.312 
L 312.271391 48.872597 
L 309.588295 48.872597 
z
" style="fill:#ff7f0e;opacity:0.5;stroke:#000000;stroke-linejoin:miter;"/>
   </g>
   <g id="patch_222">
    <path clip-path="url(#p9605f93804)" d="M 312.271391 273.312 
L 314.954486 273.312 
L 314.954486 36.263642 
L 312.271391 36.263642 
z
" style="fill:#ff7f0e;opacity:0.5;stroke:#000000;stroke-linejoin:miter;"/>
   </g>
   <g id="patch_223">
    <path clip-path="url(#p9605f93804)" d="M 314.954486 273.312 
L 317.637581 273.312 
L 317.637581 24.915582 
L 314.954486 24.915582 
z
" style="fill:#ff7f0e;opacity:0.5;stroke:#000000;stroke-linejoin:miter;"/>
   </g>
   <g id="patch_224">
    <path clip-path="url(#p9605f93804)" d="M 317.637581 273.312 
L 320.320677 273.312 
L 320.320677 64.003343 
L 317.637581 64.003343 
z
" style="fill:#ff7f0e;opacity:0.5;stroke:#000000;stroke-linejoin:miter;"/>
   </g>
   <g id="patch_225">
    <path clip-path="url(#p9605f93804)" d="M 320.320677 273.312 
L 323.003772 273.312 
L 323.003772 158.570507 
L 320.320677 158.570507 
z
" style="fill:#ff7f0e;opacity:0.5;stroke:#000000;stroke-linejoin:miter;"/>
   </g>
   <g id="patch_226">
    <path clip-path="url(#p9605f93804)" d="M 323.003772 273.312 
L 325.686868 273.312 
L 325.686868 70.307821 
L 323.003772 70.307821 
z
" style="fill:#ff7f0e;opacity:0.5;stroke:#000000;stroke-linejoin:miter;"/>
   </g>
   <g id="patch_227">
    <path clip-path="url(#p9605f93804)" d="M 325.686868 273.312 
L 328.369963 273.312 
L 328.369963 114.439164 
L 325.686868 114.439164 
z
" style="fill:#ff7f0e;opacity:0.5;stroke:#000000;stroke-linejoin:miter;"/>
   </g>
   <g id="patch_228">
    <path clip-path="url(#p9605f93804)" d="M 328.369963 273.312 
L 331.053059 273.312 
L 331.053059 86.699463 
L 328.369963 86.699463 
z
" style="fill:#ff7f0e;opacity:0.5;stroke:#000000;stroke-linejoin:miter;"/>
   </g>
   <g id="patch_229">
    <path clip-path="url(#p9605f93804)" d="M 331.053059 273.312 
L 333.736154 273.312 
L 333.736154 19.872 
L 331.053059 19.872 
z
" style="fill:#ff7f0e;opacity:0.5;stroke:#000000;stroke-linejoin:miter;"/>
   </g>
   <g id="patch_230">
    <path clip-path="url(#p9605f93804)" d="M 333.736154 273.312 
L 336.419249 273.312 
L 336.419249 45.08991 
L 333.736154 45.08991 
z
" style="fill:#ff7f0e;opacity:0.5;stroke:#000000;stroke-linejoin:miter;"/>
   </g>
   <g id="patch_231">
    <path clip-path="url(#p9605f93804)" d="M 336.419249 273.312 
L 339.102345 273.312 
L 339.102345 138.396179 
L 336.419249 138.396179 
z
" style="fill:#ff7f0e;opacity:0.5;stroke:#000000;stroke-linejoin:miter;"/>
   </g>
   <g id="patch_232">
    <path clip-path="url(#p9605f93804)" d="M 339.102345 273.312 
L 341.78544 273.312 
L 341.78544 144.700657 
L 339.102345 144.700657 
z
" style="fill:#ff7f0e;opacity:0.5;stroke:#000000;stroke-linejoin:miter;"/>
   </g>
   <g id="patch_233">
    <path clip-path="url(#p9605f93804)" d="M 341.78544 273.312 
L 344.468536 273.312 
L 344.468536 118.221851 
L 341.78544 118.221851 
z
" style="fill:#ff7f0e;opacity:0.5;stroke:#000000;stroke-linejoin:miter;"/>
   </g>
   <g id="patch_234">
    <path clip-path="url(#p9605f93804)" d="M 344.468536 273.312 
L 347.151631 273.312 
L 347.151631 106.873791 
L 344.468536 106.873791 
z
" style="fill:#ff7f0e;opacity:0.5;stroke:#000000;stroke-linejoin:miter;"/>
   </g>
   <g id="patch_235">
    <path clip-path="url(#p9605f93804)" d="M 347.151631 273.312 
L 349.834726 273.312 
L 349.834726 104.352 
L 347.151631 104.352 
z
" style="fill:#ff7f0e;opacity:0.5;stroke:#000000;stroke-linejoin:miter;"/>
   </g>
   <g id="patch_236">
    <path clip-path="url(#p9605f93804)" d="M 349.834726 273.312 
L 352.517822 273.312 
L 352.517822 70.307821 
L 349.834726 70.307821 
z
" style="fill:#ff7f0e;opacity:0.5;stroke:#000000;stroke-linejoin:miter;"/>
   </g>
   <g id="patch_237">
    <path clip-path="url(#p9605f93804)" d="M 352.517822 273.312 
L 355.200917 273.312 
L 355.200917 143.439761 
L 352.517822 143.439761 
z
" style="fill:#ff7f0e;opacity:0.5;stroke:#000000;stroke-linejoin:miter;"/>
   </g>
   <g id="patch_238">
    <path clip-path="url(#p9605f93804)" d="M 355.200917 273.312 
L 357.884013 273.312 
L 357.884013 182.527522 
L 355.200917 182.527522 
z
" style="fill:#ff7f0e;opacity:0.5;stroke:#000000;stroke-linejoin:miter;"/>
   </g>
   <g id="patch_239">
    <path clip-path="url(#p9605f93804)" d="M 357.884013 273.312 
L 360.567108 273.312 
L 360.567108 224.137075 
L 357.884013 224.137075 
z
" style="fill:#ff7f0e;opacity:0.5;stroke:#000000;stroke-linejoin:miter;"/>
   </g>
   <g id="patch_240">
    <path clip-path="url(#p9605f93804)" d="M 360.567108 273.312 
L 363.250204 273.312 
L 363.250204 132.091701 
L 360.567108 132.091701 
z
" style="fill:#ff7f0e;opacity:0.5;stroke:#000000;stroke-linejoin:miter;"/>
   </g>
   <g id="patch_241">
    <path clip-path="url(#p9605f93804)" d="M 363.250204 273.312 
L 365.933299 273.312 
L 365.933299 214.04991 
L 363.250204 214.04991 
z
" style="fill:#ff7f0e;opacity:0.5;stroke:#000000;stroke-linejoin:miter;"/>
   </g>
   <g id="patch_242">
    <path clip-path="url(#p9605f93804)" d="M 365.933299 273.312 
L 368.616394 273.312 
L 368.616394 215.310806 
L 365.933299 215.310806 
z
" style="fill:#ff7f0e;opacity:0.5;stroke:#000000;stroke-linejoin:miter;"/>
   </g>
   <g id="patch_243">
    <path clip-path="url(#p9605f93804)" d="M 368.616394 273.312 
L 371.29949 273.312 
L 371.29949 65.264239 
L 368.616394 65.264239 
z
" style="fill:#ff7f0e;opacity:0.5;stroke:#000000;stroke-linejoin:miter;"/>
   </g>
   <g id="patch_244">
    <path clip-path="url(#p9605f93804)" d="M 371.29949 273.312 
L 373.982585 273.312 
L 373.982585 71.568716 
L 371.29949 71.568716 
z
" style="fill:#ff7f0e;opacity:0.5;stroke:#000000;stroke-linejoin:miter;"/>
   </g>
   <g id="matplotlib.axis_1">
    <g id="xtick_1">
     <g id="line2d_1">
      <defs>
       <path d="M 0 0 
L 0 3.5 
" id="m24fea7fea7" style="stroke:#000000;stroke-width:0.8;"/>
      </defs>
      <g>
       <use style="stroke:#000000;stroke-width:0.8;" x="43.961849" xlink:href="#m24fea7fea7" y="273.312"/>
      </g>
     </g>
     <g id="text_1">
      <!-- Jan -->
      <defs>
       <path d="M 28.421875 72.40625 
L 28.421875 19.28125 
Q 28.421875 -0.484375 11.921875 -0.484375 
Q 4.734375 -0.484375 -1.953125 3.265625 
L 1.3125 10.0625 
Q 5.90625 6.984375 10.84375 6.984375 
Q 19.53125 6.984375 19.53125 18.796875 
L 19.53125 72.40625 
z
" id="IPAexGothic-74"/>
       <path d="M 49.3125 0.984375 
L 41.75 0.984375 
Q 39.984375 4.734375 39.546875 8.6875 
L 39.203125 8.6875 
Q 33.546875 -0.390625 22.3125 -0.390625 
Q 14.59375 -0.390625 9.71875 4.5 
Q 5.421875 8.796875 5.421875 14.984375 
Q 5.421875 30.421875 32.03125 31.203125 
L 38.71875 31.390625 
L 38.71875 33.984375 
Q 38.71875 39.203125 35.75 42.1875 
Q 32.625 45.3125 27.734375 45.3125 
Q 19.34375 45.3125 15.140625 37.15625 
L 7.71875 40.578125 
Q 14.65625 52 27.9375 52 
Q 37.109375 52 42.046875 46.875 
Q 46.625 42.28125 46.625 33.890625 
L 46.625 15.578125 
Q 46.625 6.25 49.3125 0.984375 
z
M 38.921875 25.390625 
L 33.453125 25.296875 
Q 14.109375 24.859375 14.109375 14.890625 
Q 14.109375 11.375 16.40625 9.078125 
Q 19.234375 6.296875 23.828125 6.296875 
Q 30.21875 6.296875 34.90625 10.984375 
Q 38.921875 15.140625 38.921875 21 
z
" id="IPAexGothic-97"/>
       <path d="M 52 0.984375 
L 43.40625 0.984375 
L 43.40625 31.890625 
Q 43.40625 44.578125 32.90625 44.578125 
Q 22.3125 44.578125 17.390625 31.890625 
L 17.390625 0.984375 
L 8.796875 0.984375 
L 8.796875 50.78125 
L 16.796875 50.78125 
L 16.796875 41.796875 
Q 23.828125 51.8125 34.71875 51.8125 
Q 52 51.8125 52 32.375 
z
" id="IPAexGothic-110"/>
      </defs>
      <g transform="translate(36.293099 287.802625)scale(0.1 -0.1)">
       <use xlink:href="#IPAexGothic-74"/>
       <use x="37.988281" xlink:href="#IPAexGothic-97"/>
       <use x="92.96875" xlink:href="#IPAexGothic-110"/>
      </g>
     </g>
    </g>
    <g id="xtick_2">
     <g id="line2d_2">
      <g>
       <use style="stroke:#000000;stroke-width:0.8;" x="81.525185" xlink:href="#m24fea7fea7" y="273.312"/>
      </g>
     </g>
     <g id="text_2">
      <!-- 15 -->
      <defs>
       <path d="M 38.484375 0.984375 
L 29.6875 0.984375 
L 29.6875 64.109375 
Q 21.4375 61.28125 12.3125 59.328125 
L 10.6875 66.109375 
Q 23.734375 69.390625 32.90625 73.921875 
L 38.484375 73.921875 
z
" id="IPAexGothic-49"/>
       <path d="M 18.40625 40.671875 
Q 25.53125 46.296875 33.9375 46.296875 
Q 44 46.296875 50.640625 39.5 
Q 56.84375 33.015625 56.84375 23.390625 
Q 56.84375 14.65625 51.515625 8.015625 
Q 44.828125 -0.484375 31.734375 -0.484375 
Q 14.984375 -0.484375 7.328125 12.25 
L 14.65625 16.0625 
Q 20.453125 6.78125 31.453125 6.78125 
Q 38.53125 6.78125 43.265625 11.1875 
Q 48.140625 15.828125 48.140625 23.484375 
Q 48.140625 30.71875 43.84375 35.015625 
Q 39.359375 39.5 32.125 39.5 
Q 21.96875 39.5 16.75 31.6875 
L 9.234375 32.671875 
L 13.8125 72.40625 
L 53.21875 72.40625 
L 53.21875 64.890625 
L 20.953125 64.890625 
L 17.71875 40.671875 
z
" id="IPAexGothic-53"/>
      </defs>
      <g transform="translate(75.226747 287.802625)scale(0.1 -0.1)">
       <use xlink:href="#IPAexGothic-49"/>
       <use x="62.988281" xlink:href="#IPAexGothic-53"/>
      </g>
     </g>
    </g>
    <g id="xtick_3">
     <g id="line2d_3">
      <g>
       <use style="stroke:#000000;stroke-width:0.8;" x="127.137807" xlink:href="#m24fea7fea7" y="273.312"/>
      </g>
     </g>
     <g id="text_3">
      <!-- Feb -->
      <defs>
       <path d="M 54.203125 64.703125 
L 18.3125 64.703125 
L 18.3125 41.5 
L 50.09375 41.5 
L 50.09375 34.1875 
L 18.3125 34.1875 
L 18.3125 0.984375 
L 9.515625 0.984375 
L 9.515625 72.40625 
L 54.203125 72.40625 
z
" id="IPAexGothic-70"/>
       <path d="M 13.484375 24.90625 
Q 13.921875 16.265625 18.890625 11.28125 
Q 23.96875 6.203125 31.203125 6.203125 
Q 40.71875 6.203125 46.296875 15.09375 
L 51.90625 11.375 
Q 44.828125 -0.484375 30.171875 -0.484375 
Q 19.09375 -0.484375 11.96875 6.59375 
Q 4.78125 13.8125 4.78125 25.640625 
Q 4.78125 38.1875 12.3125 45.703125 
Q 19 52.390625 29 52.390625 
Q 38.421875 52.390625 44.78125 46.1875 
Q 51.90625 38.96875 51.90625 26.90625 
L 51.90625 24.90625 
z
M 43.0625 31.203125 
Q 42.328125 37.984375 38.28125 41.890625 
Q 34.28125 45.90625 28.8125 45.90625 
Q 22.46875 45.90625 17.96875 40.484375 
Q 14.890625 36.8125 13.96875 31.203125 
z
" id="IPAexGothic-101"/>
       <path d="M 17.578125 42.671875 
Q 24.21875 52.203125 34.671875 52.203125 
Q 43.5625 52.203125 49.859375 45.90625 
Q 57.171875 38.578125 57.171875 25.6875 
Q 57.171875 13.09375 49.859375 5.8125 
Q 43.5625 -0.484375 34.46875 -0.484375 
Q 24.359375 -0.484375 17 8.0625 
L 15.765625 0.6875 
L 9.078125 0.6875 
L 9.078125 74.90625 
L 17.578125 74.90625 
z
M 17.578125 31.203125 
L 17.578125 19.578125 
Q 17.578125 13.875 23.875 9.375 
Q 28.171875 6.296875 33.109375 6.296875 
Q 38.875 6.296875 42.875 10.296875 
Q 48.1875 15.765625 48.1875 25.484375 
Q 48.1875 34.28125 43.796875 39.890625 
Q 39.453125 45.3125 33.203125 45.3125 
Q 27.484375 45.3125 22.46875 40.28125 
Q 17.578125 35.40625 17.578125 31.203125 
z
" id="IPAexGothic-98"/>
      </defs>
      <g transform="translate(118.314369 287.802625)scale(0.1 -0.1)">
       <use xlink:href="#IPAexGothic-70"/>
       <use x="57.177734" xlink:href="#IPAexGothic-101"/>
       <use x="114.0625" xlink:href="#IPAexGothic-98"/>
      </g>
     </g>
    </g>
    <g id="xtick_4">
     <g id="line2d_4">
      <g>
       <use style="stroke:#000000;stroke-width:0.8;" x="164.701143" xlink:href="#m24fea7fea7" y="273.312"/>
      </g>
     </g>
     <g id="text_4">
      <!-- 15 -->
      <g transform="translate(158.402705 287.802625)scale(0.1 -0.1)">
       <use xlink:href="#IPAexGothic-49"/>
       <use x="62.988281" xlink:href="#IPAexGothic-53"/>
      </g>
     </g>
    </g>
    <g id="xtick_5">
     <g id="line2d_5">
      <g>
       <use style="stroke:#000000;stroke-width:0.8;" x="204.947574" xlink:href="#m24fea7fea7" y="273.312"/>
      </g>
     </g>
     <g id="text_5">
      <!-- Mar -->
      <defs>
       <path d="M 80.421875 0.984375 
L 71.828125 0.984375 
L 71.828125 39.59375 
Q 71.828125 51.265625 72.40625 64.59375 
L 72.015625 64.59375 
Q 68.0625 53.265625 63.53125 41.796875 
L 47.90625 3.265625 
L 41.40625 3.265625 
L 25.640625 42.578125 
Q 20.75 54.78125 17.625 64.703125 
L 17.234375 64.703125 
Q 17.828125 48.921875 17.828125 39.890625 
L 17.828125 0.984375 
L 9.515625 0.984375 
L 9.515625 72.40625 
L 22.125 72.40625 
L 39.109375 30.375 
Q 42.140625 23 44.828125 14.15625 
L 45.125 14.15625 
Q 47.3125 22.125 50.53125 30.171875 
L 67.4375 72.40625 
L 80.421875 72.40625 
z
" id="IPAexGothic-77"/>
       <path d="M 36.078125 51.8125 
L 34.578125 43.265625 
Q 32.90625 43.609375 31.59375 43.609375 
Q 25.828125 43.609375 22.078125 38.1875 
Q 17.390625 31.34375 17.390625 26.171875 
L 17.390625 0.984375 
L 8.796875 0.984375 
L 8.796875 50.78125 
L 16.890625 50.78125 
L 16.5 35.984375 
L 16.703125 35.984375 
Q 22.21875 52.203125 32.765625 52.203125 
Q 34.46875 52.203125 36.078125 51.8125 
z
" id="IPAexGothic-114"/>
      </defs>
      <g transform="translate(195.838199 287.802625)scale(0.1 -0.1)">
       <use xlink:href="#IPAexGothic-77"/>
       <use x="90.185547" xlink:href="#IPAexGothic-97"/>
       <use x="145.166016" xlink:href="#IPAexGothic-114"/>
      </g>
     </g>
    </g>
    <g id="xtick_6">
     <g id="line2d_6">
      <g>
       <use style="stroke:#000000;stroke-width:0.8;" x="242.51091" xlink:href="#m24fea7fea7" y="273.312"/>
      </g>
     </g>
     <g id="text_6">
      <!-- 15 -->
      <g transform="translate(236.212472 287.802625)scale(0.1 -0.1)">
       <use xlink:href="#IPAexGothic-49"/>
       <use x="62.988281" xlink:href="#IPAexGothic-53"/>
      </g>
     </g>
    </g>
    <g id="xtick_7">
     <g id="line2d_7">
      <g>
       <use style="stroke:#000000;stroke-width:0.8;" x="288.123532" xlink:href="#m24fea7fea7" y="273.312"/>
      </g>
     </g>
     <g id="text_7">
      <!-- Apr -->
      <defs>
       <path d="M 63.375 0.984375 
L 53.8125 0.984375 
L 45.90625 22.015625 
L 17.1875 22.015625 
L 9.421875 0.984375 
L -0.09375 0.984375 
L 28.21875 72.90625 
L 35.296875 72.90625 
z
M 43.40625 29.109375 
L 36.1875 48.09375 
Q 33.203125 56.0625 31.6875 62.5 
L 31.390625 62.5 
Q 29.640625 55.671875 26.8125 48.09375 
L 19.734375 29.109375 
z
" id="IPAexGothic-65"/>
       <path d="M 16.796875 42 
Q 23.828125 52.203125 34.46875 52.203125 
Q 43.265625 52.203125 49.5625 45.90625 
Q 56.890625 38.578125 56.890625 25.6875 
Q 56.890625 13.140625 49.65625 5.8125 
Q 43.359375 -0.484375 34.375 -0.484375 
Q 24.515625 -0.484375 17.28125 7.765625 
L 17.28125 -19 
L 8.796875 -19 
L 8.796875 50.78125 
L 16.796875 50.78125 
z
M 17.28125 30.46875 
L 17.28125 20.171875 
Q 17.28125 14.015625 23.6875 9.375 
Q 27.984375 6.296875 32.90625 6.296875 
Q 38.578125 6.296875 42.578125 10.296875 
Q 47.90625 15.578125 47.90625 25.484375 
Q 47.90625 34.375 43.5 39.984375 
Q 39.109375 45.3125 32.8125 45.3125 
Q 25.875 45.3125 20.90625 38.8125 
Q 17.28125 34.125 17.28125 30.46875 
z
" id="IPAexGothic-112"/>
      </defs>
      <g transform="translate(279.981344 287.802625)scale(0.1 -0.1)">
       <use xlink:href="#IPAexGothic-65"/>
       <use x="63.720703" xlink:href="#IPAexGothic-112"/>
       <use x="125.830078" xlink:href="#IPAexGothic-114"/>
      </g>
     </g>
    </g>
    <g id="xtick_8">
     <g id="line2d_8">
      <g>
       <use style="stroke:#000000;stroke-width:0.8;" x="325.686868" xlink:href="#m24fea7fea7" y="273.312"/>
      </g>
     </g>
     <g id="text_8">
      <!-- 15 -->
      <g transform="translate(319.38843 287.802625)scale(0.1 -0.1)">
       <use xlink:href="#IPAexGothic-49"/>
       <use x="62.988281" xlink:href="#IPAexGothic-53"/>
      </g>
     </g>
    </g>
    <g id="xtick_9">
     <g id="line2d_9">
      <g>
       <use style="stroke:#000000;stroke-width:0.8;" x="368.616394" xlink:href="#m24fea7fea7" y="273.312"/>
      </g>
     </g>
     <g id="text_9">
      <!-- May -->
      <defs>
       <path d="M 48.78125 50.78125 
L 24.609375 -7.625 
Q 19.96875 -18.796875 8.59375 -18.796875 
L 7.46875 -18.796875 
L 5.375 -10.984375 
L 6.984375 -10.984375 
Q 15.140625 -10.984375 17.96875 -3.71875 
L 21.1875 4.296875 
L 0.59375 50.78125 
L 10.296875 50.78125 
L 21.296875 22.796875 
Q 23.875 16.015625 25.09375 12.203125 
L 25.390625 12.203125 
Q 27.34375 18.265625 29.109375 22.796875 
L 39.5 50.78125 
z
" id="IPAexGothic-121"/>
      </defs>
      <g transform="translate(358.896863 287.802625)scale(0.1 -0.1)">
       <use xlink:href="#IPAexGothic-77"/>
       <use x="90.185547" xlink:href="#IPAexGothic-97"/>
       <use x="145.166016" xlink:href="#IPAexGothic-121"/>
      </g>
     </g>
    </g>
    <g id="text_10">
     <!-- 2020-May -->
     <defs>
      <path d="M 57.171875 0.984375 
L 6.984375 0.984375 
L 6.984375 9.28125 
Q 12.890625 23.046875 29.59375 34.421875 
L 32.375 36.28125 
Q 40.921875 42.140625 43.609375 45.40625 
Q 46.6875 49.265625 46.6875 53.8125 
Q 46.6875 58.9375 43.0625 62.546875 
Q 39.0625 66.546875 32.5625 66.546875 
Q 19.53125 66.546875 15.484375 52 
L 7.765625 54.78125 
Q 13.328125 73.828125 33.0625 73.828125 
Q 43.84375 73.828125 50.25 67.4375 
Q 55.859375 61.671875 55.859375 53.515625 
Q 55.859375 47.46875 52.25 42.53125 
Q 48.921875 37.75 36.96875 30.28125 
L 34.859375 29 
Q 19.625 19.578125 15.28125 8.890625 
L 57.171875 8.890625 
z
" id="IPAexGothic-50"/>
      <path d="M 31.84375 73.828125 
Q 45.015625 73.828125 52.09375 61.625 
Q 57.71875 51.953125 57.71875 36.625 
Q 57.71875 21.4375 52.09375 11.578125 
Q 45.125 -0.484375 31.5 -0.484375 
Q 17.921875 -0.484375 10.9375 11.578125 
Q 5.328125 21.4375 5.328125 36.71875 
Q 5.328125 58.015625 15.625 67.71875 
Q 22.171875 73.828125 31.84375 73.828125 
z
M 31.5 66.65625 
Q 23.6875 66.65625 19.1875 58.734375 
Q 14.59375 50.734375 14.59375 36.625 
Q 14.59375 22.75 19.09375 14.796875 
Q 23.640625 6.984375 31.5 6.984375 
Q 40.921875 6.984375 45.453125 18.015625 
Q 48.4375 25.34375 48.4375 37.109375 
Q 48.4375 50.875 43.84375 58.734375 
Q 39.203125 66.65625 31.5 66.65625 
z
" id="IPAexGothic-48"/>
      <path d="M 30.765625 26.609375 
L 4.984375 26.609375 
L 4.984375 34.421875 
L 30.765625 34.421875 
z
" id="IPAexGothic-45"/>
     </defs>
     <g transform="translate(342.002813 300.19325)scale(0.1 -0.1)">
      <use xlink:href="#IPAexGothic-50"/>
      <use x="62.988281" xlink:href="#IPAexGothic-48"/>
      <use x="125.976562" xlink:href="#IPAexGothic-50"/>
      <use x="188.964844" xlink:href="#IPAexGothic-48"/>
      <use x="251.953125" xlink:href="#IPAexGothic-45"/>
      <use x="287.744141" xlink:href="#IPAexGothic-77"/>
      <use x="377.929688" xlink:href="#IPAexGothic-97"/>
      <use x="432.910156" xlink:href="#IPAexGothic-121"/>
     </g>
    </g>
   </g>
   <g id="matplotlib.axis_2">
    <g id="ytick_1">
     <g id="line2d_10">
      <defs>
       <path d="M 0 0 
L -3.5 0 
" id="m72ab121f7a" style="stroke:#000000;stroke-width:0.8;"/>
      </defs>
      <g>
       <use style="stroke:#000000;stroke-width:0.8;" x="33.095313" xlink:href="#m72ab121f7a" y="273.312"/>
      </g>
     </g>
     <g id="text_11">
      <!-- 0 -->
      <g transform="translate(19.796875 277.057312)scale(0.1 -0.1)">
       <use xlink:href="#IPAexGothic-48"/>
      </g>
     </g>
    </g>
    <g id="ytick_2">
     <g id="line2d_11">
      <g>
       <use style="stroke:#000000;stroke-width:0.8;" x="33.095313" xlink:href="#m72ab121f7a" y="241.789612"/>
      </g>
     </g>
     <g id="text_12">
      <!-- 25 -->
      <g transform="translate(13.498438 245.534924)scale(0.1 -0.1)">
       <use xlink:href="#IPAexGothic-50"/>
       <use x="62.988281" xlink:href="#IPAexGothic-53"/>
      </g>
     </g>
    </g>
    <g id="ytick_3">
     <g id="line2d_12">
      <g>
       <use style="stroke:#000000;stroke-width:0.8;" x="33.095313" xlink:href="#m72ab121f7a" y="210.267224"/>
      </g>
     </g>
     <g id="text_13">
      <!-- 50 -->
      <g transform="translate(13.498438 214.012536)scale(0.1 -0.1)">
       <use xlink:href="#IPAexGothic-53"/>
       <use x="62.988281" xlink:href="#IPAexGothic-48"/>
      </g>
     </g>
    </g>
    <g id="ytick_4">
     <g id="line2d_13">
      <g>
       <use style="stroke:#000000;stroke-width:0.8;" x="33.095313" xlink:href="#m72ab121f7a" y="178.744836"/>
      </g>
     </g>
     <g id="text_14">
      <!-- 75 -->
      <defs>
       <path d="M 56.203125 66.609375 
Q 34.96875 32.90625 27.78125 0.984375 
L 17.671875 0.984375 
Q 24.703125 28.65625 46.09375 64.5 
L 6.6875 64.5 
L 6.6875 72.40625 
L 56.203125 72.40625 
z
" id="IPAexGothic-55"/>
      </defs>
      <g transform="translate(13.498438 182.490148)scale(0.1 -0.1)">
       <use xlink:href="#IPAexGothic-55"/>
       <use x="62.988281" xlink:href="#IPAexGothic-53"/>
      </g>
     </g>
    </g>
    <g id="ytick_5">
     <g id="line2d_14">
      <g>
       <use style="stroke:#000000;stroke-width:0.8;" x="33.095313" xlink:href="#m72ab121f7a" y="147.222448"/>
      </g>
     </g>
     <g id="text_15">
      <!-- 100 -->
      <g transform="translate(7.2 150.96776)scale(0.1 -0.1)">
       <use xlink:href="#IPAexGothic-49"/>
       <use x="62.988281" xlink:href="#IPAexGothic-48"/>
       <use x="125.976562" xlink:href="#IPAexGothic-48"/>
      </g>
     </g>
    </g>
    <g id="ytick_6">
     <g id="line2d_15">
      <g>
       <use style="stroke:#000000;stroke-width:0.8;" x="33.095313" xlink:href="#m72ab121f7a" y="115.70006"/>
      </g>
     </g>
     <g id="text_16">
      <!-- 125 -->
      <g transform="translate(7.2 119.445372)scale(0.1 -0.1)">
       <use xlink:href="#IPAexGothic-49"/>
       <use x="62.988281" xlink:href="#IPAexGothic-50"/>
       <use x="125.976562" xlink:href="#IPAexGothic-53"/>
      </g>
     </g>
    </g>
    <g id="ytick_7">
     <g id="line2d_16">
      <g>
       <use style="stroke:#000000;stroke-width:0.8;" x="33.095313" xlink:href="#m72ab121f7a" y="84.177672"/>
      </g>
     </g>
     <g id="text_17">
      <!-- 150 -->
      <g transform="translate(7.2 87.922984)scale(0.1 -0.1)">
       <use xlink:href="#IPAexGothic-49"/>
       <use x="62.988281" xlink:href="#IPAexGothic-53"/>
       <use x="125.976562" xlink:href="#IPAexGothic-48"/>
      </g>
     </g>
    </g>
    <g id="ytick_8">
     <g id="line2d_17">
      <g>
       <use style="stroke:#000000;stroke-width:0.8;" x="33.095313" xlink:href="#m72ab121f7a" y="52.655284"/>
      </g>
     </g>
     <g id="text_18">
      <!-- 175 -->
      <g transform="translate(7.2 56.400596)scale(0.1 -0.1)">
       <use xlink:href="#IPAexGothic-49"/>
       <use x="62.988281" xlink:href="#IPAexGothic-55"/>
       <use x="125.976562" xlink:href="#IPAexGothic-53"/>
      </g>
     </g>
    </g>
    <g id="ytick_9">
     <g id="line2d_18">
      <g>
       <use style="stroke:#000000;stroke-width:0.8;" x="33.095313" xlink:href="#m72ab121f7a" y="21.132896"/>
      </g>
     </g>
     <g id="text_19">
      <!-- 200 -->
      <g transform="translate(7.2 24.878208)scale(0.1 -0.1)">
       <use xlink:href="#IPAexGothic-50"/>
       <use x="62.988281" xlink:href="#IPAexGothic-48"/>
       <use x="125.976562" xlink:href="#IPAexGothic-48"/>
      </g>
     </g>
    </g>
   </g>
   <g id="patch_245">
    <path d="M 33.095313 273.312 
L 33.095313 7.2 
" style="fill:none;stroke:#000000;stroke-linecap:square;stroke-linejoin:miter;stroke-width:0.8;"/>
   </g>
   <g id="patch_246">
    <path d="M 390.215312 273.312 
L 390.215312 7.2 
" style="fill:none;stroke:#000000;stroke-linecap:square;stroke-linejoin:miter;stroke-width:0.8;"/>
   </g>
   <g id="patch_247">
    <path d="M 33.095312 273.312 
L 390.215312 273.312 
" style="fill:none;stroke:#000000;stroke-linecap:square;stroke-linejoin:miter;stroke-width:0.8;"/>
   </g>
   <g id="patch_248">
    <path d="M 33.095312 7.2 
L 390.215312 7.2 
" style="fill:none;stroke:#000000;stroke-linecap:square;stroke-linejoin:miter;stroke-width:0.8;"/>
   </g>
   <g id="legend_1">
    <g id="patch_249">
     <path d="M 40.095313 45.353125 
L 159.078125 45.353125 
Q 161.078125 45.353125 161.078125 43.353125 
L 161.078125 14.2 
Q 161.078125 12.2 159.078125 12.2 
L 40.095313 12.2 
Q 38.095313 12.2 38.095313 14.2 
L 38.095313 43.353125 
Q 38.095313 45.353125 40.095313 45.353125 
z
" style="fill:#ffffff;opacity:0.8;stroke:#cccccc;stroke-linejoin:miter;"/>
    </g>
    <g id="patch_250">
     <path d="M 42.095313 24.320312 
L 62.095313 24.320312 
L 62.095313 17.320312 
L 42.095313 17.320312 
z
" style="fill:#1f77b4;opacity:0.5;stroke:#000000;stroke-linejoin:miter;"/>
    </g>
    <g id="text_20">
     <!--  (onset) -->
     <defs>
      <path d="M 73.734375 56.84375 
Q 80.609375 62.75 85.203125 68.609375 
L 91.109375 64.40625 
Q 84.46875 57.8125 78.71875 53.328125 
Q 85.9375 48.6875 95.40625 44.625 
L 90.625 38.375 
Q 81.734375 42.78125 73.53125 48.640625 
L 73.53125 43.3125 
L 64.109375 43.3125 
L 64.109375 29.984375 
L 89.890625 29.984375 
L 89.890625 23.78125 
L 64.109375 23.78125 
L 64.109375 5.609375 
Q 64.109375 2.484375 65.71875 2.046875 
Q 67.390625 1.46875 73.09375 1.46875 
Q 82.125 1.46875 83.59375 2.984375 
Q 85.0625 4.4375 85.5 11.96875 
Q 85.5 13.484375 85.59375 14.0625 
L 92.625 11.578125 
Q 92.1875 0.390625 89.703125 -2.203125 
Q 87.0625 -5.328125 72.609375 -5.328125 
Q 63.8125 -5.328125 60.9375 -4 
Q 57.03125 -2.34375 57.03125 3.328125 
L 57.03125 23.78125 
L 42.578125 23.78125 
Q 40.1875 0.53125 11.078125 -7.421875 
L 7.28125 -0.984375 
Q 33.25 5.421875 35.5 23.78125 
L 10.015625 23.78125 
L 10.015625 29.984375 
L 35.796875 29.984375 
L 35.796875 43.3125 
L 27.78125 43.3125 
L 27.78125 47.015625 
Q 19.734375 41.359375 9.078125 36.1875 
L 4.5 42.1875 
Q 16.3125 46.734375 25.984375 53.8125 
Q 19.828125 60.15625 13.484375 64.59375 
L 18.609375 69.140625 
Q 26.515625 62.59375 31.109375 58.015625 
Q 38.03125 64.0625 43.171875 72.125 
L 20.0625 72.125 
L 20.0625 78.21875 
L 54 78.21875 
Q 58.203125 71.34375 62.890625 66.3125 
Q 69.09375 71.625 74.03125 77.9375 
L 79.828125 73.734375 
Q 74.171875 67.625 67.09375 62.203125 
Q 70.40625 59.078125 73.734375 56.84375 
z
M 57.03125 43.3125 
L 42.78125 43.3125 
L 42.78125 29.984375 
L 57.03125 29.984375 
z
M 30.90625 49.3125 
L 72.515625 49.3125 
Q 58.6875 59.28125 50.59375 71 
Q 43.21875 58.890625 30.90625 49.3125 
z
" id="IPAexGothic-30330"/>
      <path d="M 63.71875 2.875 
L 95.015625 2.875 
L 95.015625 -3.515625 
L 23.96875 -3.515625 
L 23.96875 2.875 
L 37.3125 2.875 
L 37.3125 38.28125 
L 44 38.28125 
L 44 2.875 
L 56.84375 2.875 
L 56.84375 46.578125 
L 30.515625 46.578125 
L 30.515625 52.78125 
L 90.046875 52.78125 
L 90.046875 46.578125 
L 63.71875 46.578125 
L 63.71875 29.203125 
L 87.796875 29.203125 
L 87.796875 23.09375 
L 63.71875 23.09375 
z
M 60.203125 70.515625 
L 93.890625 70.515625 
L 93.890625 64.109375 
L 27.296875 64.109375 
L 27.296875 41.40625 
Q 27.296875 23.140625 24.21875 12.203125 
Q 21.390625 2.25 14.59375 -6.203125 
L 9.625 -1.171875 
Q 18.75 10.359375 20.125 27.484375 
Q 15.4375 24.125 7.078125 19.734375 
L 4 26.609375 
Q 12.3125 29.59375 20.40625 34.328125 
L 20.40625 37.890625 
L 20.40625 70.515625 
L 52.78125 70.515625 
L 52.78125 81.984375 
L 60.203125 81.984375 
z
M 12.015625 40.375 
Q 8.890625 50.78125 5.421875 57.90625 
L 11.375 60.59375 
Q 15.234375 53.859375 18.40625 43.703125 
z
" id="IPAexGothic-30151"/>
      <path d="M 81.734375 75 
L 81.734375 -4.5 
L 74.125 -4.5 
L 74.125 2 
L 25.734375 2 
L 25.734375 -4.5 
L 18.109375 -4.5 
L 18.109375 75 
z
M 25.734375 68.3125 
L 25.734375 42.671875 
L 74.125 42.671875 
L 74.125 68.3125 
z
M 25.734375 35.890625 
L 25.734375 8.6875 
L 74.125 8.6875 
L 74.125 35.890625 
z
" id="IPAexGothic-26085"/>
      <path id="IPAexGothic-32"/>
      <path d="M 30.125 -15.875 
L 25.828125 -18.21875 
Q 7.625 1.078125 7.625 29.296875 
Q 7.625 57.46875 25.828125 76.703125 
L 30.125 74.421875 
Q 15.71875 55.03125 15.71875 29.390625 
Q 15.71875 3.171875 30.125 -15.875 
z
" id="IPAexGothic-40"/>
      <path d="M 29.984375 52.203125 
Q 40.53125 52.203125 47.75 45.125 
Q 55.171875 37.703125 55.171875 25.59375 
Q 55.171875 13.875 47.90625 6.59375 
Q 40.765625 -0.484375 29.984375 -0.484375 
Q 19.1875 -0.484375 12.203125 6.5 
Q 4.890625 13.765625 4.890625 25.875 
Q 4.890625 37.703125 12.3125 45.125 
Q 19.390625 52.203125 29.984375 52.203125 
z
M 29.984375 45.609375 
Q 23.734375 45.609375 19.390625 41.109375 
Q 13.875 35.59375 13.875 25.78125 
Q 13.875 16.109375 19.28125 10.6875 
Q 23.6875 6.296875 29.984375 6.296875 
Q 36.421875 6.296875 40.765625 10.796875 
Q 46.1875 16.21875 46.1875 26.125 
Q 46.1875 35.453125 40.671875 41.109375 
Q 36.1875 45.609375 29.984375 45.609375 
z
" id="IPAexGothic-111"/>
      <path d="M 34.90625 39.796875 
Q 30.28125 45.796875 23.1875 45.796875 
Q 13.921875 45.796875 13.921875 38.671875 
Q 13.921875 33.640625 23.921875 30.375 
L 27.203125 29.296875 
Q 41.40625 24.65625 41.40625 13.96875 
Q 41.40625 6.78125 35.5 2.6875 
Q 30.8125 -0.484375 23.390625 -0.484375 
Q 11.96875 -0.484375 4 7.859375 
L 9.421875 12.796875 
Q 15.578125 6.203125 23.6875 6.203125 
Q 33.296875 6.203125 33.296875 13.671875 
Q 33.296875 19.34375 22.703125 23.09375 
L 19.28125 24.265625 
Q 5.90625 28.953125 5.90625 37.984375 
Q 5.90625 43.703125 9.8125 47.609375 
Q 14.5 52.296875 22.703125 52.296875 
Q 33.6875 52.296875 40.71875 44.671875 
z
" id="IPAexGothic-115"/>
      <path d="M 33.203125 3.765625 
Q 27.640625 -0.09375 21.828125 -0.09375 
Q 10.203125 -0.09375 10.203125 12.984375 
L 10.203125 44.671875 
L 3.421875 44.671875 
L 3.421875 50.78125 
L 10.203125 50.78125 
L 10.203125 61.96875 
L 18.40625 66.0625 
L 18.40625 50.78125 
L 32.234375 50.78125 
L 32.234375 44.671875 
L 18.40625 44.671875 
L 18.40625 14.15625 
Q 18.40625 6.5 23.640625 6.5 
Q 27.15625 6.5 30.328125 9.1875 
z
" id="IPAexGothic-116"/>
      <path d="M 7.28125 76.703125 
Q 25.59375 57.375 25.59375 29.296875 
Q 25.59375 1.171875 7.28125 -18.21875 
L 2.984375 -15.875 
Q 17.484375 3.375 17.484375 29.390625 
Q 17.484375 54.828125 2.984375 74.421875 
z
" id="IPAexGothic-41"/>
     </defs>
     <g transform="translate(70.095313 24.320312)scale(0.1 -0.1)">
      <use xlink:href="#IPAexGothic-30330"/>
      <use x="100" xlink:href="#IPAexGothic-30151"/>
      <use x="200" xlink:href="#IPAexGothic-26085"/>
      <use x="300" xlink:href="#IPAexGothic-32"/>
      <use x="327.001953" xlink:href="#IPAexGothic-40"/>
      <use x="360.302734" xlink:href="#IPAexGothic-111"/>
      <use x="420.703125" xlink:href="#IPAexGothic-110"/>
      <use x="481.103516" xlink:href="#IPAexGothic-115"/>
      <use x="527.294922" xlink:href="#IPAexGothic-101"/>
      <use x="584.179688" xlink:href="#IPAexGothic-116"/>
      <use x="618.798828" xlink:href="#IPAexGothic-41"/>
     </g>
    </g>
    <g id="patch_251">
     <path d="M 42.095313 39.453125 
L 62.095313 39.453125 
L 62.095313 32.453125 
L 42.095313 32.453125 
z
" style="fill:#ff7f0e;opacity:0.5;stroke:#000000;stroke-linejoin:miter;"/>
    </g>
    <g id="text_21">
     <!--  (confirmed) -->
     <defs>
      <path d="M 67.921875 50.296875 
Q 70.5625 55.28125 72.609375 61.8125 
L 79.296875 60.203125 
Q 76.171875 53.609375 74.21875 50.296875 
L 92 50.296875 
L 92 44.484375 
L 73.4375 44.484375 
L 73.4375 34.71875 
L 89.703125 34.71875 
L 89.703125 29.203125 
L 73.4375 29.203125 
L 73.4375 19.53125 
L 89.703125 19.53125 
L 89.703125 14.015625 
L 73.4375 14.015625 
L 73.4375 3.609375 
L 94.28125 3.609375 
L 94.28125 -2.203125 
L 54.109375 -2.203125 
L 54.109375 -6.984375 
L 47.609375 -6.984375 
L 47.609375 38.1875 
Q 43.0625 31.546875 38.8125 26.609375 
L 35.6875 32.8125 
Q 49.359375 49.953125 54.78125 64.796875 
L 45.515625 64.796875 
L 45.515625 53.515625 
L 39.203125 53.515625 
L 39.203125 70.609375 
L 56.78125 70.609375 
Q 58.59375 76.609375 60.109375 83.109375 
L 66.703125 81.890625 
Q 65.234375 75.53125 63.625 70.609375 
L 92.71875 70.609375 
L 92.71875 53.515625 
L 86.328125 53.515625 
L 86.328125 64.796875 
L 61.53125 64.796875 
Q 58.546875 56.984375 54.890625 50.296875 
z
M 67.140625 44.484375 
L 54.109375 44.484375 
L 54.109375 34.71875 
L 67.140625 34.71875 
z
M 67.140625 29.203125 
L 54.109375 29.203125 
L 54.109375 19.53125 
L 67.140625 19.53125 
z
M 67.140625 14.015625 
L 54.109375 14.015625 
L 54.109375 3.609375 
L 67.140625 3.609375 
z
M 18.109375 46 
L 35.546875 46 
L 35.546875 3.078125 
L 18.953125 3.078125 
L 18.953125 -5.125 
L 12.75 -5.125 
L 12.75 34.46875 
Q 10.15625 29.734375 6.15625 23.78125 
L 2.9375 29.984375 
Q 14.546875 47.078125 18.75 69 
L 6.34375 69 
L 6.34375 75.296875 
L 37.640625 75.296875 
L 37.640625 69 
L 25.25 69 
L 24.953125 68.015625 
Q 22.75 57.234375 18.109375 46 
z
M 18.953125 39.890625 
L 18.953125 9.1875 
L 29.34375 9.1875 
L 29.34375 39.890625 
z
" id="IPAexGothic-30906"/>
      <path d="M 53.609375 4.734375 
Q 61.421875 3.515625 73.578125 3.515625 
Q 81.109375 3.515625 94.578125 4.109375 
Q 93.171875 0.921875 92 -3.5625 
Q 81.78125 -3.90625 75.6875 -3.90625 
Q 55.765625 -3.90625 46.921875 -1.21875 
Q 35.296875 2.390625 27.34375 14.109375 
Q 22.515625 2.546875 12.59375 -7.171875 
L 7.421875 -1.171875 
Q 22.125 11.859375 26.3125 37.796875 
L 33.203125 35.984375 
Q 31.734375 27.4375 29.828125 21.1875 
Q 36.53125 10.59375 46.4375 6.5 
L 46.4375 46 
L 22.40625 46 
L 22.40625 52.390625 
L 77.484375 52.390625 
L 77.484375 46 
L 53.609375 46 
L 53.609375 31 
L 84.328125 31 
L 84.328125 24.515625 
L 53.609375 24.515625 
z
M 53.421875 69.1875 
L 89.84375 69.1875 
L 89.84375 49.46875 
L 82.421875 49.46875 
L 82.421875 62.890625 
L 17.53125 62.890625 
L 17.53125 49.46875 
L 10.109375 49.46875 
L 10.109375 69.1875 
L 45.90625 69.1875 
L 45.90625 83.015625 
L 53.421875 83.015625 
z
" id="IPAexGothic-23450"/>
      <path d="M 51.078125 12.25 
Q 44.28125 -0.484375 29.6875 -0.484375 
Q 19.1875 -0.484375 12.3125 6.390625 
Q 4.890625 13.921875 4.890625 25.984375 
Q 4.890625 37.9375 12.3125 45.515625 
Q 19.09375 52.296875 29.390625 52.296875 
Q 43.953125 52.296875 50.09375 39.703125 
L 43.171875 36.078125 
Q 38.8125 45.3125 29.6875 45.3125 
Q 23.6875 45.3125 19.28125 40.921875 
Q 13.765625 35.40625 13.765625 25.78125 
Q 13.765625 16.703125 19.09375 11.375 
Q 23.78125 6.6875 30.5625 6.6875 
Q 39.796875 6.6875 44.484375 15.875 
z
" id="IPAexGothic-99"/>
      <path d="M 38.375 72.21875 
L 34.8125 66.3125 
Q 31.109375 69.09375 27.203125 69.09375 
Q 18.5 69.09375 18.5 57.375 
L 18.5 50.78125 
L 32.078125 50.78125 
L 32.078125 44.671875 
L 18.5 44.671875 
L 18.5 0.984375 
L 10.015625 0.984375 
L 10.015625 44.671875 
L 1.90625 44.671875 
L 1.90625 50.78125 
L 10.015625 50.78125 
L 10.015625 57.171875 
Q 10.015625 65.4375 13.921875 70.0625 
Q 18.75 75.6875 26.703125 75.6875 
Q 33.0625 75.6875 38.375 72.21875 
z
" id="IPAexGothic-102"/>
      <path d="M 18.40625 61.375 
L 8.59375 61.375 
L 8.59375 71.390625 
L 18.40625 71.390625 
z
M 17.78125 0.984375 
L 9.1875 0.984375 
L 9.1875 50.78125 
L 17.78125 50.78125 
z
" id="IPAexGothic-105"/>
      <path d="M 78.46875 0.984375 
L 69.875 0.984375 
L 69.875 32.171875 
Q 69.875 44.828125 60.109375 44.828125 
Q 55.46875 44.828125 51.609375 40.53125 
Q 48.875 37.453125 47.796875 32.859375 
L 47.796875 0.984375 
L 39.203125 0.984375 
L 39.203125 32.28125 
Q 39.203125 44.828125 29.984375 44.828125 
Q 25.09375 44.828125 21.390625 40.53125 
Q 17.390625 36.03125 17.390625 31.890625 
L 17.390625 0.984375 
L 8.796875 0.984375 
L 8.796875 50.78125 
L 16.796875 50.78125 
L 16.796875 42.1875 
Q 21.734375 51.8125 31.6875 51.8125 
Q 42.578125 51.8125 46.1875 41.359375 
Q 51.609375 51.8125 61.765625 51.8125 
Q 69.96875 51.8125 74.5625 46 
Q 78.46875 41.21875 78.46875 32.375 
z
" id="IPAexGothic-109"/>
      <path d="M 52.984375 0.984375 
L 45.171875 0.984375 
L 45.171875 9.671875 
Q 38.140625 -0.484375 27.390625 -0.484375 
Q 18.453125 -0.484375 12.3125 5.8125 
Q 4.890625 13.1875 4.890625 25.984375 
Q 4.890625 38.53125 12.0625 45.90625 
Q 18.265625 52.203125 27.390625 52.203125 
Q 37.25 52.203125 44.484375 43.890625 
L 44.484375 74.90625 
L 52.984375 74.90625 
z
M 44.484375 20.359375 
L 44.484375 32.765625 
Q 44.484375 37.703125 38.375 42.28125 
Q 34.078125 45.40625 28.953125 45.40625 
Q 23.1875 45.40625 19.1875 41.40625 
Q 13.875 36.078125 13.875 26.21875 
Q 13.875 17.328125 18.265625 11.71875 
Q 22.515625 6.390625 28.859375 6.390625 
Q 36.28125 6.390625 41.5 13.671875 
Q 44.484375 17.71875 44.484375 20.359375 
z
" id="IPAexGothic-100"/>
     </defs>
     <g transform="translate(70.095313 39.453125)scale(0.1 -0.1)">
      <use xlink:href="#IPAexGothic-30906"/>
      <use x="100" xlink:href="#IPAexGothic-23450"/>
      <use x="200" xlink:href="#IPAexGothic-26085"/>
      <use x="300" xlink:href="#IPAexGothic-32"/>
      <use x="327.001953" xlink:href="#IPAexGothic-40"/>
      <use x="360.302734" xlink:href="#IPAexGothic-99"/>
      <use x="414.697266" xlink:href="#IPAexGothic-111"/>
      <use x="475.097656" xlink:href="#IPAexGothic-110"/>
      <use x="535.498047" xlink:href="#IPAexGothic-102"/>
      <use x="566.113281" xlink:href="#IPAexGothic-105"/>
      <use x="593.115234" xlink:href="#IPAexGothic-114"/>
      <use x="630.126953" xlink:href="#IPAexGothic-109"/>
      <use x="717.236328" xlink:href="#IPAexGothic-101"/>
      <use x="774.121094" xlink:href="#IPAexGothic-100"/>
      <use x="836.523438" xlink:href="#IPAexGothic-41"/>
     </g>
    </g>
   </g>
  </g>
 </g>
 <defs>
  <clipPath id="p9605f93804">
   <rect height="266.112" width="357.12" x="33.095313" y="7.2"/>
  </clipPath>
 </defs>
</svg>
