<?xml version="1.0" encoding="utf-8" standalone="no"?>
<!DOCTYPE svg PUBLIC "-//W3C//DTD SVG 1.1//EN"
  "http://www.w3.org/Graphics/SVG/1.1/DTD/svg11.dtd">
<!-- Created with matplotlib (https://matplotlib.org/) -->
<svg height="309.29325pt" version="1.1" viewBox="0 0 397.415312 309.29325" width="397.415312pt" xmlns="http://www.w3.org/2000/svg" xmlns:xlink="http://www.w3.org/1999/xlink">
 <defs>
  <style type="text/css">
*{stroke-linecap:butt;stroke-linejoin:round;}
  </style>
 </defs>
 <g id="figure_1">
  <g id="patch_1">
   <path d="M 0 309.29325 
L 397.415312 309.29325 
L 397.415312 0 
L 0 0 
z
" style="fill:#ffffff;"/>
  </g>
  <g id="axes_1">
   <g id="patch_2">
    <path d="M 33.095313 273.312 
L 390.215312 273.312 
L 390.215312 7.2 
L 33.095313 7.2 
z
" style="fill:#ffffff;"/>
   </g>
   <g id="matplotlib.axis_1">
    <g id="xtick_1">
     <g id="line2d_1">
      <defs>
       <path d="M 0 0 
L 0 3.5 
" id="m6b8e14fd6a" style="stroke:#000000;stroke-width:0.8;"/>
      </defs>
      <g>
       <use style="stroke:#000000;stroke-width:0.8;" x="44.446017" xlink:href="#m6b8e14fd6a" y="273.312"/>
      </g>
     </g>
     <g id="text_1">
      <!-- Jan -->
      <defs>
       <path d="M 28.421875 72.40625 
L 28.421875 19.28125 
Q 28.421875 -0.484375 11.921875 -0.484375 
Q 4.734375 -0.484375 -1.953125 3.265625 
L 1.3125 10.0625 
Q 5.90625 6.984375 10.84375 6.984375 
Q 19.53125 6.984375 19.53125 18.796875 
L 19.53125 72.40625 
z
" id="IPAexGothic-74"/>
       <path d="M 49.3125 0.984375 
L 41.75 0.984375 
Q 39.984375 4.734375 39.546875 8.6875 
L 39.203125 8.6875 
Q 33.546875 -0.390625 22.3125 -0.390625 
Q 14.59375 -0.390625 9.71875 4.5 
Q 5.421875 8.796875 5.421875 14.984375 
Q 5.421875 30.421875 32.03125 31.203125 
L 38.71875 31.390625 
L 38.71875 33.984375 
Q 38.71875 39.203125 35.75 42.1875 
Q 32.625 45.3125 27.734375 45.3125 
Q 19.34375 45.3125 15.140625 37.15625 
L 7.71875 40.578125 
Q 14.65625 52 27.9375 52 
Q 37.109375 52 42.046875 46.875 
Q 46.625 42.28125 46.625 33.890625 
L 46.625 15.578125 
Q 46.625 6.25 49.3125 0.984375 
z
M 38.921875 25.390625 
L 33.453125 25.296875 
Q 14.109375 24.859375 14.109375 14.890625 
Q 14.109375 11.375 16.40625 9.078125 
Q 19.234375 6.296875 23.828125 6.296875 
Q 30.21875 6.296875 34.90625 10.984375 
Q 38.921875 15.140625 38.921875 21 
z
" id="IPAexGothic-97"/>
       <path d="M 52 0.984375 
L 43.40625 0.984375 
L 43.40625 31.890625 
Q 43.40625 44.578125 32.90625 44.578125 
Q 22.3125 44.578125 17.390625 31.890625 
L 17.390625 0.984375 
L 8.796875 0.984375 
L 8.796875 50.78125 
L 16.796875 50.78125 
L 16.796875 41.796875 
Q 23.828125 51.8125 34.71875 51.8125 
Q 52 51.8125 52 32.375 
z
" id="IPAexGothic-110"/>
      </defs>
      <g transform="translate(36.777267 287.802625)scale(0.1 -0.1)">
       <use xlink:href="#IPAexGothic-74"/>
       <use x="37.988281" xlink:href="#IPAexGothic-97"/>
       <use x="92.96875" xlink:href="#IPAexGothic-110"/>
      </g>
     </g>
    </g>
    <g id="xtick_2">
     <g id="line2d_2">
      <g>
       <use style="stroke:#000000;stroke-width:0.8;" x="95.707261" xlink:href="#m6b8e14fd6a" y="273.312"/>
      </g>
     </g>
     <g id="text_2">
      <!-- 22 -->
      <defs>
       <path d="M 57.171875 0.984375 
L 6.984375 0.984375 
L 6.984375 9.28125 
Q 12.890625 23.046875 29.59375 34.421875 
L 32.375 36.28125 
Q 40.921875 42.140625 43.609375 45.40625 
Q 46.6875 49.265625 46.6875 53.8125 
Q 46.6875 58.9375 43.0625 62.546875 
Q 39.0625 66.546875 32.5625 66.546875 
Q 19.53125 66.546875 15.484375 52 
L 7.765625 54.78125 
Q 13.328125 73.828125 33.0625 73.828125 
Q 43.84375 73.828125 50.25 67.4375 
Q 55.859375 61.671875 55.859375 53.515625 
Q 55.859375 47.46875 52.25 42.53125 
Q 48.921875 37.75 36.96875 30.28125 
L 34.859375 29 
Q 19.625 19.578125 15.28125 8.890625 
L 57.171875 8.890625 
z
" id="IPAexGothic-50"/>
      </defs>
      <g transform="translate(89.408823 287.802625)scale(0.1 -0.1)">
       <use xlink:href="#IPAexGothic-50"/>
       <use x="62.988281" xlink:href="#IPAexGothic-50"/>
      </g>
     </g>
    </g>
    <g id="xtick_3">
     <g id="line2d_3">
      <g>
       <use style="stroke:#000000;stroke-width:0.8;" x="120.117377" xlink:href="#m6b8e14fd6a" y="273.312"/>
      </g>
     </g>
     <g id="text_3">
      <!-- Feb -->
      <defs>
       <path d="M 54.203125 64.703125 
L 18.3125 64.703125 
L 18.3125 41.5 
L 50.09375 41.5 
L 50.09375 34.1875 
L 18.3125 34.1875 
L 18.3125 0.984375 
L 9.515625 0.984375 
L 9.515625 72.40625 
L 54.203125 72.40625 
z
" id="IPAexGothic-70"/>
       <path d="M 13.484375 24.90625 
Q 13.921875 16.265625 18.890625 11.28125 
Q 23.96875 6.203125 31.203125 6.203125 
Q 40.71875 6.203125 46.296875 15.09375 
L 51.90625 11.375 
Q 44.828125 -0.484375 30.171875 -0.484375 
Q 19.09375 -0.484375 11.96875 6.59375 
Q 4.78125 13.8125 4.78125 25.640625 
Q 4.78125 38.1875 12.3125 45.703125 
Q 19 52.390625 29 52.390625 
Q 38.421875 52.390625 44.78125 46.1875 
Q 51.90625 38.96875 51.90625 26.90625 
L 51.90625 24.90625 
z
M 43.0625 31.203125 
Q 42.328125 37.984375 38.28125 41.890625 
Q 34.28125 45.90625 28.8125 45.90625 
Q 22.46875 45.90625 17.96875 40.484375 
Q 14.890625 36.8125 13.96875 31.203125 
z
" id="IPAexGothic-101"/>
       <path d="M 17.578125 42.671875 
Q 24.21875 52.203125 34.671875 52.203125 
Q 43.5625 52.203125 49.859375 45.90625 
Q 57.171875 38.578125 57.171875 25.6875 
Q 57.171875 13.09375 49.859375 5.8125 
Q 43.5625 -0.484375 34.46875 -0.484375 
Q 24.359375 -0.484375 17 8.0625 
L 15.765625 0.6875 
L 9.078125 0.6875 
L 9.078125 74.90625 
L 17.578125 74.90625 
z
M 17.578125 31.203125 
L 17.578125 19.578125 
Q 17.578125 13.875 23.875 9.375 
Q 28.171875 6.296875 33.109375 6.296875 
Q 38.875 6.296875 42.875 10.296875 
Q 48.1875 15.765625 48.1875 25.484375 
Q 48.1875 34.28125 43.796875 39.890625 
Q 39.453125 45.3125 33.203125 45.3125 
Q 27.484375 45.3125 22.46875 40.28125 
Q 17.578125 35.40625 17.578125 31.203125 
z
" id="IPAexGothic-98"/>
      </defs>
      <g transform="translate(111.293939 287.802625)scale(0.1 -0.1)">
       <use xlink:href="#IPAexGothic-70"/>
       <use x="57.177734" xlink:href="#IPAexGothic-101"/>
       <use x="114.0625" xlink:href="#IPAexGothic-98"/>
      </g>
     </g>
    </g>
    <g id="xtick_4">
     <g id="line2d_4">
      <g>
       <use style="stroke:#000000;stroke-width:0.8;" x="171.378621" xlink:href="#m6b8e14fd6a" y="273.312"/>
      </g>
     </g>
     <g id="text_4">
      <!-- 22 -->
      <g transform="translate(165.080183 287.802625)scale(0.1 -0.1)">
       <use xlink:href="#IPAexGothic-50"/>
       <use x="62.988281" xlink:href="#IPAexGothic-50"/>
      </g>
     </g>
    </g>
    <g id="xtick_5">
     <g id="line2d_5">
      <g>
       <use style="stroke:#000000;stroke-width:0.8;" x="190.906714" xlink:href="#m6b8e14fd6a" y="273.312"/>
      </g>
     </g>
     <g id="text_5">
      <!-- Mar -->
      <defs>
       <path d="M 80.421875 0.984375 
L 71.828125 0.984375 
L 71.828125 39.59375 
Q 71.828125 51.265625 72.40625 64.59375 
L 72.015625 64.59375 
Q 68.0625 53.265625 63.53125 41.796875 
L 47.90625 3.265625 
L 41.40625 3.265625 
L 25.640625 42.578125 
Q 20.75 54.78125 17.625 64.703125 
L 17.234375 64.703125 
Q 17.828125 48.921875 17.828125 39.890625 
L 17.828125 0.984375 
L 9.515625 0.984375 
L 9.515625 72.40625 
L 22.125 72.40625 
L 39.109375 30.375 
Q 42.140625 23 44.828125 14.15625 
L 45.125 14.15625 
Q 47.3125 22.125 50.53125 30.171875 
L 67.4375 72.40625 
L 80.421875 72.40625 
z
" id="IPAexGothic-77"/>
       <path d="M 36.078125 51.8125 
L 34.578125 43.265625 
Q 32.90625 43.609375 31.59375 43.609375 
Q 25.828125 43.609375 22.078125 38.1875 
Q 17.390625 31.34375 17.390625 26.171875 
L 17.390625 0.984375 
L 8.796875 0.984375 
L 8.796875 50.78125 
L 16.890625 50.78125 
L 16.5 35.984375 
L 16.703125 35.984375 
Q 22.21875 52.203125 32.765625 52.203125 
Q 34.46875 52.203125 36.078125 51.8125 
z
" id="IPAexGothic-114"/>
      </defs>
      <g transform="translate(181.797339 287.802625)scale(0.1 -0.1)">
       <use xlink:href="#IPAexGothic-77"/>
       <use x="90.185547" xlink:href="#IPAexGothic-97"/>
       <use x="145.166016" xlink:href="#IPAexGothic-114"/>
      </g>
     </g>
    </g>
    <g id="xtick_6">
     <g id="line2d_6">
      <g>
       <use style="stroke:#000000;stroke-width:0.8;" x="242.167958" xlink:href="#m6b8e14fd6a" y="273.312"/>
      </g>
     </g>
     <g id="text_6">
      <!-- 22 -->
      <g transform="translate(235.86952 287.802625)scale(0.1 -0.1)">
       <use xlink:href="#IPAexGothic-50"/>
       <use x="62.988281" xlink:href="#IPAexGothic-50"/>
      </g>
     </g>
    </g>
    <g id="xtick_7">
     <g id="line2d_7">
      <g>
       <use style="stroke:#000000;stroke-width:0.8;" x="266.578074" xlink:href="#m6b8e14fd6a" y="273.312"/>
      </g>
     </g>
     <g id="text_7">
      <!-- Apr -->
      <defs>
       <path d="M 63.375 0.984375 
L 53.8125 0.984375 
L 45.90625 22.015625 
L 17.1875 22.015625 
L 9.421875 0.984375 
L -0.09375 0.984375 
L 28.21875 72.90625 
L 35.296875 72.90625 
z
M 43.40625 29.109375 
L 36.1875 48.09375 
Q 33.203125 56.0625 31.6875 62.5 
L 31.390625 62.5 
Q 29.640625 55.671875 26.8125 48.09375 
L 19.734375 29.109375 
z
" id="IPAexGothic-65"/>
       <path d="M 16.796875 42 
Q 23.828125 52.203125 34.46875 52.203125 
Q 43.265625 52.203125 49.5625 45.90625 
Q 56.890625 38.578125 56.890625 25.6875 
Q 56.890625 13.140625 49.65625 5.8125 
Q 43.359375 -0.484375 34.375 -0.484375 
Q 24.515625 -0.484375 17.28125 7.765625 
L 17.28125 -19 
L 8.796875 -19 
L 8.796875 50.78125 
L 16.796875 50.78125 
z
M 17.28125 30.46875 
L 17.28125 20.171875 
Q 17.28125 14.015625 23.6875 9.375 
Q 27.984375 6.296875 32.90625 6.296875 
Q 38.578125 6.296875 42.578125 10.296875 
Q 47.90625 15.578125 47.90625 25.484375 
Q 47.90625 34.375 43.5 39.984375 
Q 39.109375 45.3125 32.8125 45.3125 
Q 25.875 45.3125 20.90625 38.8125 
Q 17.28125 34.125 17.28125 30.46875 
z
" id="IPAexGothic-112"/>
      </defs>
      <g transform="translate(258.435886 287.802625)scale(0.1 -0.1)">
       <use xlink:href="#IPAexGothic-65"/>
       <use x="63.720703" xlink:href="#IPAexGothic-112"/>
       <use x="125.830078" xlink:href="#IPAexGothic-114"/>
      </g>
     </g>
    </g>
    <g id="xtick_8">
     <g id="line2d_8">
      <g>
       <use style="stroke:#000000;stroke-width:0.8;" x="317.839318" xlink:href="#m6b8e14fd6a" y="273.312"/>
      </g>
     </g>
     <g id="text_8">
      <!-- 22 -->
      <g transform="translate(311.54088 287.802625)scale(0.1 -0.1)">
       <use xlink:href="#IPAexGothic-50"/>
       <use x="62.988281" xlink:href="#IPAexGothic-50"/>
      </g>
     </g>
    </g>
    <g id="xtick_9">
     <g id="line2d_9">
      <g>
       <use style="stroke:#000000;stroke-width:0.8;" x="339.808423" xlink:href="#m6b8e14fd6a" y="273.312"/>
      </g>
     </g>
     <g id="text_9">
      <!-- May -->
      <defs>
       <path d="M 48.78125 50.78125 
L 24.609375 -7.625 
Q 19.96875 -18.796875 8.59375 -18.796875 
L 7.46875 -18.796875 
L 5.375 -10.984375 
L 6.984375 -10.984375 
Q 15.140625 -10.984375 17.96875 -3.71875 
L 21.1875 4.296875 
L 0.59375 50.78125 
L 10.296875 50.78125 
L 21.296875 22.796875 
Q 23.875 16.015625 25.09375 12.203125 
L 25.390625 12.203125 
Q 27.34375 18.265625 29.109375 22.796875 
L 39.5 50.78125 
z
" id="IPAexGothic-121"/>
      </defs>
      <g transform="translate(330.088891 287.802625)scale(0.1 -0.1)">
       <use xlink:href="#IPAexGothic-77"/>
       <use x="90.185547" xlink:href="#IPAexGothic-97"/>
       <use x="145.166016" xlink:href="#IPAexGothic-121"/>
      </g>
     </g>
    </g>
    <g id="text_10">
     <!-- 2020-May -->
     <defs>
      <path d="M 31.84375 73.828125 
Q 45.015625 73.828125 52.09375 61.625 
Q 57.71875 51.953125 57.71875 36.625 
Q 57.71875 21.4375 52.09375 11.578125 
Q 45.125 -0.484375 31.5 -0.484375 
Q 17.921875 -0.484375 10.9375 11.578125 
Q 5.328125 21.4375 5.328125 36.71875 
Q 5.328125 58.015625 15.625 67.71875 
Q 22.171875 73.828125 31.84375 73.828125 
z
M 31.5 66.65625 
Q 23.6875 66.65625 19.1875 58.734375 
Q 14.59375 50.734375 14.59375 36.625 
Q 14.59375 22.75 19.09375 14.796875 
Q 23.640625 6.984375 31.5 6.984375 
Q 40.921875 6.984375 45.453125 18.015625 
Q 48.4375 25.34375 48.4375 37.109375 
Q 48.4375 50.875 43.84375 58.734375 
Q 39.203125 66.65625 31.5 66.65625 
z
" id="IPAexGothic-48"/>
      <path d="M 30.765625 26.609375 
L 4.984375 26.609375 
L 4.984375 34.421875 
L 30.765625 34.421875 
z
" id="IPAexGothic-45"/>
     </defs>
     <g transform="translate(342.002813 300.19325)scale(0.1 -0.1)">
      <use xlink:href="#IPAexGothic-50"/>
      <use x="62.988281" xlink:href="#IPAexGothic-48"/>
      <use x="125.976562" xlink:href="#IPAexGothic-50"/>
      <use x="188.964844" xlink:href="#IPAexGothic-48"/>
      <use x="251.953125" xlink:href="#IPAexGothic-45"/>
      <use x="287.744141" xlink:href="#IPAexGothic-77"/>
      <use x="377.929688" xlink:href="#IPAexGothic-97"/>
      <use x="432.910156" xlink:href="#IPAexGothic-121"/>
     </g>
    </g>
   </g>
   <g id="matplotlib.axis_2">
    <g id="ytick_1">
     <g id="line2d_10">
      <defs>
       <path d="M 0 0 
L -3.5 0 
" id="m88cf75ebcd" style="stroke:#000000;stroke-width:0.8;"/>
      </defs>
      <g>
       <use style="stroke:#000000;stroke-width:0.8;" x="33.095313" xlink:href="#m88cf75ebcd" y="261.216"/>
      </g>
     </g>
     <g id="text_11">
      <!-- 0 -->
      <g transform="translate(19.796875 264.961312)scale(0.1 -0.1)">
       <use xlink:href="#IPAexGothic-48"/>
      </g>
     </g>
    </g>
    <g id="ytick_2">
     <g id="line2d_11">
      <g>
       <use style="stroke:#000000;stroke-width:0.8;" x="33.095313" xlink:href="#m88cf75ebcd" y="226.407367"/>
      </g>
     </g>
     <g id="text_12">
      <!-- 100 -->
      <defs>
       <path d="M 38.484375 0.984375 
L 29.6875 0.984375 
L 29.6875 64.109375 
Q 21.4375 61.28125 12.3125 59.328125 
L 10.6875 66.109375 
Q 23.734375 69.390625 32.90625 73.921875 
L 38.484375 73.921875 
z
" id="IPAexGothic-49"/>
      </defs>
      <g transform="translate(7.2 230.152679)scale(0.1 -0.1)">
       <use xlink:href="#IPAexGothic-49"/>
       <use x="62.988281" xlink:href="#IPAexGothic-48"/>
       <use x="125.976562" xlink:href="#IPAexGothic-48"/>
      </g>
     </g>
    </g>
    <g id="ytick_3">
     <g id="line2d_12">
      <g>
       <use style="stroke:#000000;stroke-width:0.8;" x="33.095313" xlink:href="#m88cf75ebcd" y="191.598734"/>
      </g>
     </g>
     <g id="text_13">
      <!-- 200 -->
      <g transform="translate(7.2 195.344046)scale(0.1 -0.1)">
       <use xlink:href="#IPAexGothic-50"/>
       <use x="62.988281" xlink:href="#IPAexGothic-48"/>
       <use x="125.976562" xlink:href="#IPAexGothic-48"/>
      </g>
     </g>
    </g>
    <g id="ytick_4">
     <g id="line2d_13">
      <g>
       <use style="stroke:#000000;stroke-width:0.8;" x="33.095313" xlink:href="#m88cf75ebcd" y="156.790101"/>
      </g>
     </g>
     <g id="text_14">
      <!-- 300 -->
      <defs>
       <path d="M 37.203125 37.796875 
Q 54.78125 34.625 54.78125 19.96875 
Q 54.78125 11.1875 48.875 5.5625 
Q 42.328125 -0.484375 30.375 -0.484375 
Q 12.453125 -0.484375 4.5 13.765625 
L 11.8125 17.671875 
Q 17.328125 6.890625 30.28125 6.890625 
Q 37.890625 6.890625 42.09375 10.796875 
Q 46.09375 14.5 46.09375 20.171875 
Q 46.09375 26.859375 40.09375 30.90625 
Q 34.625 34.578125 25.6875 34.578125 
L 21.296875 34.578125 
L 21.296875 41.703125 
L 25.875 41.703125 
Q 34.859375 41.703125 39.59375 45.125 
Q 44.671875 48.734375 44.671875 54.828125 
Q 44.671875 61.46875 38.96875 64.65625 
Q 35.296875 66.84375 30.171875 66.84375 
Q 19.34375 66.84375 14.109375 55.90625 
L 6.78125 59.421875 
Q 14.015625 73.828125 30.28125 73.828125 
Q 40.578125 73.828125 46.96875 68.65625 
Q 53.375 63.578125 53.375 55.21875 
Q 53.375 47.3125 47.171875 42.28125 
Q 43.171875 39.0625 37.203125 38.1875 
z
" id="IPAexGothic-51"/>
      </defs>
      <g transform="translate(7.2 160.535413)scale(0.1 -0.1)">
       <use xlink:href="#IPAexGothic-51"/>
       <use x="62.988281" xlink:href="#IPAexGothic-48"/>
       <use x="125.976562" xlink:href="#IPAexGothic-48"/>
      </g>
     </g>
    </g>
    <g id="ytick_5">
     <g id="line2d_14">
      <g>
       <use style="stroke:#000000;stroke-width:0.8;" x="33.095313" xlink:href="#m88cf75ebcd" y="121.981468"/>
      </g>
     </g>
     <g id="text_15">
      <!-- 400 -->
      <defs>
       <path d="M 59.578125 18.109375 
L 47.796875 18.109375 
L 47.796875 0.984375 
L 39.796875 0.984375 
L 39.796875 18.109375 
L 3.078125 18.109375 
L 3.078125 26.125 
L 38.375 73.09375 
L 47.796875 73.09375 
L 47.796875 25.53125 
L 59.578125 25.53125 
z
M 40.28125 64.203125 
L 39.984375 64.203125 
Q 35.59375 57.125 31.296875 51.3125 
L 11.859375 25.53125 
L 39.796875 25.53125 
L 39.796875 49.125 
Q 39.796875 54.390625 40.28125 64.203125 
z
" id="IPAexGothic-52"/>
      </defs>
      <g transform="translate(7.2 125.72678)scale(0.1 -0.1)">
       <use xlink:href="#IPAexGothic-52"/>
       <use x="62.988281" xlink:href="#IPAexGothic-48"/>
       <use x="125.976562" xlink:href="#IPAexGothic-48"/>
      </g>
     </g>
    </g>
    <g id="ytick_6">
     <g id="line2d_15">
      <g>
       <use style="stroke:#000000;stroke-width:0.8;" x="33.095313" xlink:href="#m88cf75ebcd" y="87.172835"/>
      </g>
     </g>
     <g id="text_16">
      <!-- 500 -->
      <defs>
       <path d="M 18.40625 40.671875 
Q 25.53125 46.296875 33.9375 46.296875 
Q 44 46.296875 50.640625 39.5 
Q 56.84375 33.015625 56.84375 23.390625 
Q 56.84375 14.65625 51.515625 8.015625 
Q 44.828125 -0.484375 31.734375 -0.484375 
Q 14.984375 -0.484375 7.328125 12.25 
L 14.65625 16.0625 
Q 20.453125 6.78125 31.453125 6.78125 
Q 38.53125 6.78125 43.265625 11.1875 
Q 48.140625 15.828125 48.140625 23.484375 
Q 48.140625 30.71875 43.84375 35.015625 
Q 39.359375 39.5 32.125 39.5 
Q 21.96875 39.5 16.75 31.6875 
L 9.234375 32.671875 
L 13.8125 72.40625 
L 53.21875 72.40625 
L 53.21875 64.890625 
L 20.953125 64.890625 
L 17.71875 40.671875 
z
" id="IPAexGothic-53"/>
      </defs>
      <g transform="translate(7.2 90.918147)scale(0.1 -0.1)">
       <use xlink:href="#IPAexGothic-53"/>
       <use x="62.988281" xlink:href="#IPAexGothic-48"/>
       <use x="125.976562" xlink:href="#IPAexGothic-48"/>
      </g>
     </g>
    </g>
    <g id="ytick_7">
     <g id="line2d_16">
      <g>
       <use style="stroke:#000000;stroke-width:0.8;" x="33.095313" xlink:href="#m88cf75ebcd" y="52.364201"/>
      </g>
     </g>
     <g id="text_17">
      <!-- 600 -->
      <defs>
       <path d="M 16.5 36.375 
Q 23.578125 46.578125 34.90625 46.578125 
Q 45.40625 46.578125 51.8125 39.265625 
Q 57.421875 32.90625 57.421875 23.78125 
Q 57.421875 13.8125 51.125 6.78125 
Q 44.578125 -0.484375 34.03125 -0.484375 
Q 21.484375 -0.484375 14.40625 9.078125 
Q 7.515625 18.40625 7.515625 34.8125 
Q 7.515625 53.515625 15.828125 64.203125 
Q 23.34375 73.828125 35.5 73.828125 
Q 49.859375 73.828125 56.390625 62.890625 
L 49.21875 58.984375 
Q 45.21875 66.65625 35.9375 66.65625 
Q 17.484375 66.65625 16.109375 36.375 
z
M 33.453125 39.796875 
Q 26.3125 39.796875 21.625 34.46875 
Q 17.4375 29.6875 17.4375 24.078125 
Q 17.4375 18.0625 21.140625 13.1875 
Q 26.125 6.6875 33.734375 6.6875 
Q 41.703125 6.6875 45.953125 13.1875 
Q 48.828125 17.625 48.828125 23.484375 
Q 48.828125 30.375 45.015625 34.8125 
Q 40.625 39.796875 33.453125 39.796875 
z
" id="IPAexGothic-54"/>
      </defs>
      <g transform="translate(7.2 56.109514)scale(0.1 -0.1)">
       <use xlink:href="#IPAexGothic-54"/>
       <use x="62.988281" xlink:href="#IPAexGothic-48"/>
       <use x="125.976562" xlink:href="#IPAexGothic-48"/>
      </g>
     </g>
    </g>
    <g id="ytick_8">
     <g id="line2d_17">
      <g>
       <use style="stroke:#000000;stroke-width:0.8;" x="33.095313" xlink:href="#m88cf75ebcd" y="17.555568"/>
      </g>
     </g>
     <g id="text_18">
      <!-- 700 -->
      <defs>
       <path d="M 56.203125 66.609375 
Q 34.96875 32.90625 27.78125 0.984375 
L 17.671875 0.984375 
Q 24.703125 28.65625 46.09375 64.5 
L 6.6875 64.5 
L 6.6875 72.40625 
L 56.203125 72.40625 
z
" id="IPAexGothic-55"/>
      </defs>
      <g transform="translate(7.2 21.300881)scale(0.1 -0.1)">
       <use xlink:href="#IPAexGothic-55"/>
       <use x="62.988281" xlink:href="#IPAexGothic-48"/>
       <use x="125.976562" xlink:href="#IPAexGothic-48"/>
      </g>
     </g>
    </g>
   </g>
   <g id="line2d_18">
    <path clip-path="url(#p10c5b75021)" d="M 49.32804 260.867914 
L 51.769051 261.216 
L 73.738156 261.216 
L 76.179168 260.519827 
L 78.620179 261.216 
L 88.384226 261.216 
L 90.825237 260.171741 
L 93.266249 260.867914 
L 95.707261 260.519827 
L 98.148272 260.867914 
L 100.589284 260.519827 
L 103.030295 260.519827 
L 105.471307 260.171741 
L 107.912319 261.216 
L 112.794342 260.519827 
L 115.235354 260.867914 
L 117.676365 259.823655 
L 120.117377 260.171741 
L 122.558388 259.823655 
L 124.9994 258.431309 
L 129.881423 260.519827 
L 132.322435 259.127482 
L 134.763446 259.475568 
L 137.204458 260.519827 
L 139.64547 260.867914 
L 142.086481 258.083223 
L 144.527493 261.216 
L 146.968505 258.779396 
L 149.409516 258.779396 
L 151.850528 258.083223 
L 154.291539 258.083223 
L 156.732551 255.994705 
L 159.173563 257.38705 
L 161.614574 256.342791 
L 164.055586 255.994705 
L 166.496598 253.558101 
L 168.937609 254.950446 
L 171.378621 254.254273 
L 173.819632 253.210014 
L 176.260644 252.513842 
L 178.701656 249.729151 
L 181.142667 250.77341 
L 183.583679 252.513842 
L 186.02469 248.684892 
L 188.465702 252.513842 
L 190.906714 251.817669 
L 193.347725 246.94446 
L 195.788737 252.513842 
L 198.229749 250.077237 
L 200.67076 251.121496 
L 203.111772 251.817669 
L 205.552783 247.988719 
L 207.993795 250.077237 
L 210.434807 245.900201 
L 212.875818 251.817669 
L 215.31683 247.292547 
L 217.757842 250.077237 
L 220.198853 245.552115 
L 222.639865 250.77341 
L 225.080876 249.729151 
L 227.521888 247.292547 
L 229.9629 243.463597 
L 232.403911 241.723165 
L 234.844923 235.805698 
L 237.285935 239.982734 
L 239.726946 235.805698 
L 242.167958 234.413353 
L 244.608969 223.622676 
L 247.049981 228.147799 
L 249.490993 221.534158 
L 251.932004 217.357122 
L 254.373016 186.725525 
L 256.814027 195.427683 
L 259.255039 194.731511 
L 261.696051 161.315223 
L 264.137062 161.315223 
L 266.578074 140.081957 
L 269.019086 161.663309 
L 271.460097 139.733871 
L 273.901109 159.226705 
L 276.34212 173.846331 
L 278.783132 151.220719 
L 281.224144 166.536518 
L 283.665155 164.796086 
L 286.106167 182.548489 
L 288.547179 176.282935 
L 290.98819 178.371453 
L 293.429202 193.339165 
L 295.870213 186.029353 
L 298.311225 188.814043 
L 300.752237 191.250647 
L 303.193248 212.832 
L 305.63426 207.262619 
L 308.075271 211.439655 
L 310.516283 221.534158 
L 312.957295 207.610705 
L 315.398306 224.666935 
L 317.839318 223.27459 
L 320.28033 235.457612 
L 322.721341 224.318849 
L 325.162353 236.153784 
L 327.603364 235.109525 
L 330.044376 231.976748 
L 332.485388 240.678906 
L 334.926399 244.15977 
L 337.367411 238.938475 
L 339.808423 243.463597 
L 342.249434 241.723165 
L 344.690446 250.077237 
L 347.131457 251.121496 
L 349.572469 252.513842 
L 352.013481 252.861928 
L 354.454492 254.60236 
L 356.895504 257.038964 
L 361.777527 259.127482 
L 364.218539 258.779396 
L 366.65955 260.171741 
L 369.100562 260.867914 
L 371.541574 261.216 
L 373.982585 261.216 
L 373.982585 261.216 
" style="fill:none;stroke:#1f77b4;stroke-linecap:square;stroke-width:1.5;"/>
    <defs>
     <path d="M 0 3 
C 0.795609 3 1.55874 2.683901 2.12132 2.12132 
C 2.683901 1.55874 3 0.795609 3 0 
C 3 -0.795609 2.683901 -1.55874 2.12132 -2.12132 
C 1.55874 -2.683901 0.795609 -3 0 -3 
C -0.795609 -3 -1.55874 -2.683901 -2.12132 -2.12132 
C -2.683901 -1.55874 -3 -0.795609 -3 0 
C -3 0.795609 -2.683901 1.55874 -2.12132 2.12132 
C -1.55874 2.683901 -0.795609 3 0 3 
z
" id="m7b65ce13b9" style="stroke:#1f77b4;"/>
    </defs>
    <g clip-path="url(#p10c5b75021)">
     <use style="fill:#1f77b4;stroke:#1f77b4;" x="49.32804" xlink:href="#m7b65ce13b9" y="260.867914"/>
     <use style="fill:#1f77b4;stroke:#1f77b4;" x="51.769051" xlink:href="#m7b65ce13b9" y="261.216"/>
     <use style="fill:#1f77b4;stroke:#1f77b4;" x="54.210063" xlink:href="#m7b65ce13b9" y="261.216"/>
     <use style="fill:#1f77b4;stroke:#1f77b4;" x="56.651075" xlink:href="#m7b65ce13b9" y="261.216"/>
     <use style="fill:#1f77b4;stroke:#1f77b4;" x="59.092086" xlink:href="#m7b65ce13b9" y="261.216"/>
     <use style="fill:#1f77b4;stroke:#1f77b4;" x="61.533098" xlink:href="#m7b65ce13b9" y="261.216"/>
     <use style="fill:#1f77b4;stroke:#1f77b4;" x="63.974109" xlink:href="#m7b65ce13b9" y="261.216"/>
     <use style="fill:#1f77b4;stroke:#1f77b4;" x="66.415121" xlink:href="#m7b65ce13b9" y="261.216"/>
     <use style="fill:#1f77b4;stroke:#1f77b4;" x="68.856133" xlink:href="#m7b65ce13b9" y="261.216"/>
     <use style="fill:#1f77b4;stroke:#1f77b4;" x="71.297144" xlink:href="#m7b65ce13b9" y="261.216"/>
     <use style="fill:#1f77b4;stroke:#1f77b4;" x="73.738156" xlink:href="#m7b65ce13b9" y="261.216"/>
     <use style="fill:#1f77b4;stroke:#1f77b4;" x="76.179168" xlink:href="#m7b65ce13b9" y="260.519827"/>
     <use style="fill:#1f77b4;stroke:#1f77b4;" x="78.620179" xlink:href="#m7b65ce13b9" y="261.216"/>
     <use style="fill:#1f77b4;stroke:#1f77b4;" x="81.061191" xlink:href="#m7b65ce13b9" y="261.216"/>
     <use style="fill:#1f77b4;stroke:#1f77b4;" x="83.502202" xlink:href="#m7b65ce13b9" y="261.216"/>
     <use style="fill:#1f77b4;stroke:#1f77b4;" x="85.943214" xlink:href="#m7b65ce13b9" y="261.216"/>
     <use style="fill:#1f77b4;stroke:#1f77b4;" x="88.384226" xlink:href="#m7b65ce13b9" y="261.216"/>
     <use style="fill:#1f77b4;stroke:#1f77b4;" x="90.825237" xlink:href="#m7b65ce13b9" y="260.171741"/>
     <use style="fill:#1f77b4;stroke:#1f77b4;" x="93.266249" xlink:href="#m7b65ce13b9" y="260.867914"/>
     <use style="fill:#1f77b4;stroke:#1f77b4;" x="95.707261" xlink:href="#m7b65ce13b9" y="260.519827"/>
     <use style="fill:#1f77b4;stroke:#1f77b4;" x="98.148272" xlink:href="#m7b65ce13b9" y="260.867914"/>
     <use style="fill:#1f77b4;stroke:#1f77b4;" x="100.589284" xlink:href="#m7b65ce13b9" y="260.519827"/>
     <use style="fill:#1f77b4;stroke:#1f77b4;" x="103.030295" xlink:href="#m7b65ce13b9" y="260.519827"/>
     <use style="fill:#1f77b4;stroke:#1f77b4;" x="105.471307" xlink:href="#m7b65ce13b9" y="260.171741"/>
     <use style="fill:#1f77b4;stroke:#1f77b4;" x="107.912319" xlink:href="#m7b65ce13b9" y="261.216"/>
     <use style="fill:#1f77b4;stroke:#1f77b4;" x="110.35333" xlink:href="#m7b65ce13b9" y="260.867914"/>
     <use style="fill:#1f77b4;stroke:#1f77b4;" x="112.794342" xlink:href="#m7b65ce13b9" y="260.519827"/>
     <use style="fill:#1f77b4;stroke:#1f77b4;" x="115.235354" xlink:href="#m7b65ce13b9" y="260.867914"/>
     <use style="fill:#1f77b4;stroke:#1f77b4;" x="117.676365" xlink:href="#m7b65ce13b9" y="259.823655"/>
     <use style="fill:#1f77b4;stroke:#1f77b4;" x="120.117377" xlink:href="#m7b65ce13b9" y="260.171741"/>
     <use style="fill:#1f77b4;stroke:#1f77b4;" x="122.558388" xlink:href="#m7b65ce13b9" y="259.823655"/>
     <use style="fill:#1f77b4;stroke:#1f77b4;" x="124.9994" xlink:href="#m7b65ce13b9" y="258.431309"/>
     <use style="fill:#1f77b4;stroke:#1f77b4;" x="127.440412" xlink:href="#m7b65ce13b9" y="259.475568"/>
     <use style="fill:#1f77b4;stroke:#1f77b4;" x="129.881423" xlink:href="#m7b65ce13b9" y="260.519827"/>
     <use style="fill:#1f77b4;stroke:#1f77b4;" x="132.322435" xlink:href="#m7b65ce13b9" y="259.127482"/>
     <use style="fill:#1f77b4;stroke:#1f77b4;" x="134.763446" xlink:href="#m7b65ce13b9" y="259.475568"/>
     <use style="fill:#1f77b4;stroke:#1f77b4;" x="137.204458" xlink:href="#m7b65ce13b9" y="260.519827"/>
     <use style="fill:#1f77b4;stroke:#1f77b4;" x="139.64547" xlink:href="#m7b65ce13b9" y="260.867914"/>
     <use style="fill:#1f77b4;stroke:#1f77b4;" x="142.086481" xlink:href="#m7b65ce13b9" y="258.083223"/>
     <use style="fill:#1f77b4;stroke:#1f77b4;" x="144.527493" xlink:href="#m7b65ce13b9" y="261.216"/>
     <use style="fill:#1f77b4;stroke:#1f77b4;" x="146.968505" xlink:href="#m7b65ce13b9" y="258.779396"/>
     <use style="fill:#1f77b4;stroke:#1f77b4;" x="149.409516" xlink:href="#m7b65ce13b9" y="258.779396"/>
     <use style="fill:#1f77b4;stroke:#1f77b4;" x="151.850528" xlink:href="#m7b65ce13b9" y="258.083223"/>
     <use style="fill:#1f77b4;stroke:#1f77b4;" x="154.291539" xlink:href="#m7b65ce13b9" y="258.083223"/>
     <use style="fill:#1f77b4;stroke:#1f77b4;" x="156.732551" xlink:href="#m7b65ce13b9" y="255.994705"/>
     <use style="fill:#1f77b4;stroke:#1f77b4;" x="159.173563" xlink:href="#m7b65ce13b9" y="257.38705"/>
     <use style="fill:#1f77b4;stroke:#1f77b4;" x="161.614574" xlink:href="#m7b65ce13b9" y="256.342791"/>
     <use style="fill:#1f77b4;stroke:#1f77b4;" x="164.055586" xlink:href="#m7b65ce13b9" y="255.994705"/>
     <use style="fill:#1f77b4;stroke:#1f77b4;" x="166.496598" xlink:href="#m7b65ce13b9" y="253.558101"/>
     <use style="fill:#1f77b4;stroke:#1f77b4;" x="168.937609" xlink:href="#m7b65ce13b9" y="254.950446"/>
     <use style="fill:#1f77b4;stroke:#1f77b4;" x="171.378621" xlink:href="#m7b65ce13b9" y="254.254273"/>
     <use style="fill:#1f77b4;stroke:#1f77b4;" x="173.819632" xlink:href="#m7b65ce13b9" y="253.210014"/>
     <use style="fill:#1f77b4;stroke:#1f77b4;" x="176.260644" xlink:href="#m7b65ce13b9" y="252.513842"/>
     <use style="fill:#1f77b4;stroke:#1f77b4;" x="178.701656" xlink:href="#m7b65ce13b9" y="249.729151"/>
     <use style="fill:#1f77b4;stroke:#1f77b4;" x="181.142667" xlink:href="#m7b65ce13b9" y="250.77341"/>
     <use style="fill:#1f77b4;stroke:#1f77b4;" x="183.583679" xlink:href="#m7b65ce13b9" y="252.513842"/>
     <use style="fill:#1f77b4;stroke:#1f77b4;" x="186.02469" xlink:href="#m7b65ce13b9" y="248.684892"/>
     <use style="fill:#1f77b4;stroke:#1f77b4;" x="188.465702" xlink:href="#m7b65ce13b9" y="252.513842"/>
     <use style="fill:#1f77b4;stroke:#1f77b4;" x="190.906714" xlink:href="#m7b65ce13b9" y="251.817669"/>
     <use style="fill:#1f77b4;stroke:#1f77b4;" x="193.347725" xlink:href="#m7b65ce13b9" y="246.94446"/>
     <use style="fill:#1f77b4;stroke:#1f77b4;" x="195.788737" xlink:href="#m7b65ce13b9" y="252.513842"/>
     <use style="fill:#1f77b4;stroke:#1f77b4;" x="198.229749" xlink:href="#m7b65ce13b9" y="250.077237"/>
     <use style="fill:#1f77b4;stroke:#1f77b4;" x="200.67076" xlink:href="#m7b65ce13b9" y="251.121496"/>
     <use style="fill:#1f77b4;stroke:#1f77b4;" x="203.111772" xlink:href="#m7b65ce13b9" y="251.817669"/>
     <use style="fill:#1f77b4;stroke:#1f77b4;" x="205.552783" xlink:href="#m7b65ce13b9" y="247.988719"/>
     <use style="fill:#1f77b4;stroke:#1f77b4;" x="207.993795" xlink:href="#m7b65ce13b9" y="250.077237"/>
     <use style="fill:#1f77b4;stroke:#1f77b4;" x="210.434807" xlink:href="#m7b65ce13b9" y="245.900201"/>
     <use style="fill:#1f77b4;stroke:#1f77b4;" x="212.875818" xlink:href="#m7b65ce13b9" y="251.817669"/>
     <use style="fill:#1f77b4;stroke:#1f77b4;" x="215.31683" xlink:href="#m7b65ce13b9" y="247.292547"/>
     <use style="fill:#1f77b4;stroke:#1f77b4;" x="217.757842" xlink:href="#m7b65ce13b9" y="250.077237"/>
     <use style="fill:#1f77b4;stroke:#1f77b4;" x="220.198853" xlink:href="#m7b65ce13b9" y="245.552115"/>
     <use style="fill:#1f77b4;stroke:#1f77b4;" x="222.639865" xlink:href="#m7b65ce13b9" y="250.77341"/>
     <use style="fill:#1f77b4;stroke:#1f77b4;" x="225.080876" xlink:href="#m7b65ce13b9" y="249.729151"/>
     <use style="fill:#1f77b4;stroke:#1f77b4;" x="227.521888" xlink:href="#m7b65ce13b9" y="247.292547"/>
     <use style="fill:#1f77b4;stroke:#1f77b4;" x="229.9629" xlink:href="#m7b65ce13b9" y="243.463597"/>
     <use style="fill:#1f77b4;stroke:#1f77b4;" x="232.403911" xlink:href="#m7b65ce13b9" y="241.723165"/>
     <use style="fill:#1f77b4;stroke:#1f77b4;" x="234.844923" xlink:href="#m7b65ce13b9" y="235.805698"/>
     <use style="fill:#1f77b4;stroke:#1f77b4;" x="237.285935" xlink:href="#m7b65ce13b9" y="239.982734"/>
     <use style="fill:#1f77b4;stroke:#1f77b4;" x="239.726946" xlink:href="#m7b65ce13b9" y="235.805698"/>
     <use style="fill:#1f77b4;stroke:#1f77b4;" x="242.167958" xlink:href="#m7b65ce13b9" y="234.413353"/>
     <use style="fill:#1f77b4;stroke:#1f77b4;" x="244.608969" xlink:href="#m7b65ce13b9" y="223.622676"/>
     <use style="fill:#1f77b4;stroke:#1f77b4;" x="247.049981" xlink:href="#m7b65ce13b9" y="228.147799"/>
     <use style="fill:#1f77b4;stroke:#1f77b4;" x="249.490993" xlink:href="#m7b65ce13b9" y="221.534158"/>
     <use style="fill:#1f77b4;stroke:#1f77b4;" x="251.932004" xlink:href="#m7b65ce13b9" y="217.357122"/>
     <use style="fill:#1f77b4;stroke:#1f77b4;" x="254.373016" xlink:href="#m7b65ce13b9" y="186.725525"/>
     <use style="fill:#1f77b4;stroke:#1f77b4;" x="256.814027" xlink:href="#m7b65ce13b9" y="195.427683"/>
     <use style="fill:#1f77b4;stroke:#1f77b4;" x="259.255039" xlink:href="#m7b65ce13b9" y="194.731511"/>
     <use style="fill:#1f77b4;stroke:#1f77b4;" x="261.696051" xlink:href="#m7b65ce13b9" y="161.315223"/>
     <use style="fill:#1f77b4;stroke:#1f77b4;" x="264.137062" xlink:href="#m7b65ce13b9" y="161.315223"/>
     <use style="fill:#1f77b4;stroke:#1f77b4;" x="266.578074" xlink:href="#m7b65ce13b9" y="140.081957"/>
     <use style="fill:#1f77b4;stroke:#1f77b4;" x="269.019086" xlink:href="#m7b65ce13b9" y="161.663309"/>
     <use style="fill:#1f77b4;stroke:#1f77b4;" x="271.460097" xlink:href="#m7b65ce13b9" y="139.733871"/>
     <use style="fill:#1f77b4;stroke:#1f77b4;" x="273.901109" xlink:href="#m7b65ce13b9" y="159.226705"/>
     <use style="fill:#1f77b4;stroke:#1f77b4;" x="276.34212" xlink:href="#m7b65ce13b9" y="173.846331"/>
     <use style="fill:#1f77b4;stroke:#1f77b4;" x="278.783132" xlink:href="#m7b65ce13b9" y="151.220719"/>
     <use style="fill:#1f77b4;stroke:#1f77b4;" x="281.224144" xlink:href="#m7b65ce13b9" y="166.536518"/>
     <use style="fill:#1f77b4;stroke:#1f77b4;" x="283.665155" xlink:href="#m7b65ce13b9" y="164.796086"/>
     <use style="fill:#1f77b4;stroke:#1f77b4;" x="286.106167" xlink:href="#m7b65ce13b9" y="182.548489"/>
     <use style="fill:#1f77b4;stroke:#1f77b4;" x="288.547179" xlink:href="#m7b65ce13b9" y="176.282935"/>
     <use style="fill:#1f77b4;stroke:#1f77b4;" x="290.98819" xlink:href="#m7b65ce13b9" y="178.371453"/>
     <use style="fill:#1f77b4;stroke:#1f77b4;" x="293.429202" xlink:href="#m7b65ce13b9" y="193.339165"/>
     <use style="fill:#1f77b4;stroke:#1f77b4;" x="295.870213" xlink:href="#m7b65ce13b9" y="186.029353"/>
     <use style="fill:#1f77b4;stroke:#1f77b4;" x="298.311225" xlink:href="#m7b65ce13b9" y="188.814043"/>
     <use style="fill:#1f77b4;stroke:#1f77b4;" x="300.752237" xlink:href="#m7b65ce13b9" y="191.250647"/>
     <use style="fill:#1f77b4;stroke:#1f77b4;" x="303.193248" xlink:href="#m7b65ce13b9" y="212.832"/>
     <use style="fill:#1f77b4;stroke:#1f77b4;" x="305.63426" xlink:href="#m7b65ce13b9" y="207.262619"/>
     <use style="fill:#1f77b4;stroke:#1f77b4;" x="308.075271" xlink:href="#m7b65ce13b9" y="211.439655"/>
     <use style="fill:#1f77b4;stroke:#1f77b4;" x="310.516283" xlink:href="#m7b65ce13b9" y="221.534158"/>
     <use style="fill:#1f77b4;stroke:#1f77b4;" x="312.957295" xlink:href="#m7b65ce13b9" y="207.610705"/>
     <use style="fill:#1f77b4;stroke:#1f77b4;" x="315.398306" xlink:href="#m7b65ce13b9" y="224.666935"/>
     <use style="fill:#1f77b4;stroke:#1f77b4;" x="317.839318" xlink:href="#m7b65ce13b9" y="223.27459"/>
     <use style="fill:#1f77b4;stroke:#1f77b4;" x="320.28033" xlink:href="#m7b65ce13b9" y="235.457612"/>
     <use style="fill:#1f77b4;stroke:#1f77b4;" x="322.721341" xlink:href="#m7b65ce13b9" y="224.318849"/>
     <use style="fill:#1f77b4;stroke:#1f77b4;" x="325.162353" xlink:href="#m7b65ce13b9" y="236.153784"/>
     <use style="fill:#1f77b4;stroke:#1f77b4;" x="327.603364" xlink:href="#m7b65ce13b9" y="235.109525"/>
     <use style="fill:#1f77b4;stroke:#1f77b4;" x="330.044376" xlink:href="#m7b65ce13b9" y="231.976748"/>
     <use style="fill:#1f77b4;stroke:#1f77b4;" x="332.485388" xlink:href="#m7b65ce13b9" y="240.678906"/>
     <use style="fill:#1f77b4;stroke:#1f77b4;" x="334.926399" xlink:href="#m7b65ce13b9" y="244.15977"/>
     <use style="fill:#1f77b4;stroke:#1f77b4;" x="337.367411" xlink:href="#m7b65ce13b9" y="238.938475"/>
     <use style="fill:#1f77b4;stroke:#1f77b4;" x="339.808423" xlink:href="#m7b65ce13b9" y="243.463597"/>
     <use style="fill:#1f77b4;stroke:#1f77b4;" x="342.249434" xlink:href="#m7b65ce13b9" y="241.723165"/>
     <use style="fill:#1f77b4;stroke:#1f77b4;" x="344.690446" xlink:href="#m7b65ce13b9" y="250.077237"/>
     <use style="fill:#1f77b4;stroke:#1f77b4;" x="347.131457" xlink:href="#m7b65ce13b9" y="251.121496"/>
     <use style="fill:#1f77b4;stroke:#1f77b4;" x="349.572469" xlink:href="#m7b65ce13b9" y="252.513842"/>
     <use style="fill:#1f77b4;stroke:#1f77b4;" x="352.013481" xlink:href="#m7b65ce13b9" y="252.861928"/>
     <use style="fill:#1f77b4;stroke:#1f77b4;" x="354.454492" xlink:href="#m7b65ce13b9" y="254.60236"/>
     <use style="fill:#1f77b4;stroke:#1f77b4;" x="356.895504" xlink:href="#m7b65ce13b9" y="257.038964"/>
     <use style="fill:#1f77b4;stroke:#1f77b4;" x="359.336516" xlink:href="#m7b65ce13b9" y="258.083223"/>
     <use style="fill:#1f77b4;stroke:#1f77b4;" x="361.777527" xlink:href="#m7b65ce13b9" y="259.127482"/>
     <use style="fill:#1f77b4;stroke:#1f77b4;" x="364.218539" xlink:href="#m7b65ce13b9" y="258.779396"/>
     <use style="fill:#1f77b4;stroke:#1f77b4;" x="366.65955" xlink:href="#m7b65ce13b9" y="260.171741"/>
     <use style="fill:#1f77b4;stroke:#1f77b4;" x="369.100562" xlink:href="#m7b65ce13b9" y="260.867914"/>
     <use style="fill:#1f77b4;stroke:#1f77b4;" x="371.541574" xlink:href="#m7b65ce13b9" y="261.216"/>
     <use style="fill:#1f77b4;stroke:#1f77b4;" x="373.982585" xlink:href="#m7b65ce13b9" y="261.216"/>
    </g>
   </g>
   <g id="line2d_19">
    <path clip-path="url(#p10c5b75021)" d="M 49.32804 261.216 
L 76.179168 261.216 
L 78.620179 260.867914 
L 81.061191 261.216 
L 98.148272 261.216 
L 100.589284 260.867914 
L 105.471307 260.867914 
L 107.912319 261.216 
L 110.35333 260.171741 
L 112.794342 260.867914 
L 115.235354 259.127482 
L 117.676365 260.519827 
L 120.117377 260.171741 
L 122.558388 261.216 
L 124.9994 261.216 
L 127.440412 259.823655 
L 132.322435 261.216 
L 134.763446 260.867914 
L 137.204458 261.216 
L 139.64547 261.216 
L 142.086481 260.519827 
L 146.968505 261.216 
L 154.291539 257.038964 
L 156.732551 259.127482 
L 159.173563 258.779396 
L 161.614574 257.735137 
L 164.055586 258.083223 
L 166.496598 258.083223 
L 168.937609 255.298532 
L 171.378621 252.165755 
L 173.819632 257.735137 
L 176.260644 257.038964 
L 178.701656 255.994705 
L 181.142667 255.298532 
L 183.583679 252.513842 
L 186.02469 254.254273 
L 188.465702 258.431309 
L 190.906714 256.342791 
L 195.788737 254.254273 
L 198.229749 248.684892 
L 200.67076 248.684892 
L 203.111772 241.375079 
L 205.552783 247.988719 
L 207.993795 248.336806 
L 210.434807 252.165755 
L 212.875818 237.198043 
L 217.757842 245.552115 
L 220.198853 246.94446 
L 222.639865 242.419338 
L 225.080876 250.77341 
L 227.521888 254.60236 
L 229.9629 245.204029 
L 232.403911 245.900201 
L 234.844923 245.204029 
L 237.285935 245.552115 
L 239.726946 246.248288 
L 242.167958 246.248288 
L 244.608969 247.988719 
L 247.049981 233.369094 
L 249.490993 229.192058 
L 251.932004 226.407367 
L 254.373016 217.357122 
L 256.814027 189.510216 
L 259.255039 205.870273 
L 261.696051 209.351137 
L 264.137062 178.71954 
L 266.578074 164.099914 
L 269.019086 159.226705 
L 271.460097 140.430043 
L 273.901109 125.462331 
L 276.34212 155.745842 
L 278.783132 169.669295 
L 281.224144 94.830734 
L 283.665155 94.482647 
L 286.106167 37.744576 
L 288.547179 38.788835 
L 290.98819 19.296 
L 293.429202 102.488633 
L 295.870213 153.657324 
L 298.311225 78.818763 
L 300.752237 57.933583 
L 303.193248 76.382158 
L 305.63426 65.591482 
L 308.075271 64.547223 
L 310.516283 146.347511 
L 312.957295 135.208748 
L 315.398306 117.456345 
L 317.839318 107.013755 
L 320.28033 112.931223 
L 322.721341 107.709928 
L 325.162353 138.689612 
L 327.603364 190.902561 
L 330.044376 201.345151 
L 332.485388 159.574791 
L 334.926399 185.33318 
L 337.367411 202.737496 
L 339.808423 160.967137 
L 342.249434 155.397755 
L 344.690446 197.168115 
L 349.572469 220.489899 
L 352.013481 227.10354 
L 354.454492 230.584403 
L 356.895504 227.451626 
L 359.336516 220.837986 
L 361.777527 238.590388 
L 364.218539 248.684892 
L 366.65955 236.501871 
L 369.100562 240.678906 
L 371.541574 244.15977 
L 373.982585 258.083223 
L 373.982585 258.083223 
" style="fill:none;stroke:#ff7f0e;stroke-linecap:square;stroke-width:1.5;"/>
    <defs>
     <path d="M 0 3 
C 0.795609 3 1.55874 2.683901 2.12132 2.12132 
C 2.683901 1.55874 3 0.795609 3 0 
C 3 -0.795609 2.683901 -1.55874 2.12132 -2.12132 
C 1.55874 -2.683901 0.795609 -3 0 -3 
C -0.795609 -3 -1.55874 -2.683901 -2.12132 -2.12132 
C -2.683901 -1.55874 -3 -0.795609 -3 0 
C -3 0.795609 -2.683901 1.55874 -2.12132 2.12132 
C -1.55874 2.683901 -0.795609 3 0 3 
z
" id="mf2551c0e7d" style="stroke:#ff7f0e;"/>
    </defs>
    <g clip-path="url(#p10c5b75021)">
     <use style="fill:#ff7f0e;stroke:#ff7f0e;" x="49.32804" xlink:href="#mf2551c0e7d" y="261.216"/>
     <use style="fill:#ff7f0e;stroke:#ff7f0e;" x="51.769051" xlink:href="#mf2551c0e7d" y="261.216"/>
     <use style="fill:#ff7f0e;stroke:#ff7f0e;" x="54.210063" xlink:href="#mf2551c0e7d" y="261.216"/>
     <use style="fill:#ff7f0e;stroke:#ff7f0e;" x="56.651075" xlink:href="#mf2551c0e7d" y="261.216"/>
     <use style="fill:#ff7f0e;stroke:#ff7f0e;" x="59.092086" xlink:href="#mf2551c0e7d" y="261.216"/>
     <use style="fill:#ff7f0e;stroke:#ff7f0e;" x="61.533098" xlink:href="#mf2551c0e7d" y="261.216"/>
     <use style="fill:#ff7f0e;stroke:#ff7f0e;" x="63.974109" xlink:href="#mf2551c0e7d" y="261.216"/>
     <use style="fill:#ff7f0e;stroke:#ff7f0e;" x="66.415121" xlink:href="#mf2551c0e7d" y="261.216"/>
     <use style="fill:#ff7f0e;stroke:#ff7f0e;" x="68.856133" xlink:href="#mf2551c0e7d" y="261.216"/>
     <use style="fill:#ff7f0e;stroke:#ff7f0e;" x="71.297144" xlink:href="#mf2551c0e7d" y="261.216"/>
     <use style="fill:#ff7f0e;stroke:#ff7f0e;" x="73.738156" xlink:href="#mf2551c0e7d" y="261.216"/>
     <use style="fill:#ff7f0e;stroke:#ff7f0e;" x="76.179168" xlink:href="#mf2551c0e7d" y="261.216"/>
     <use style="fill:#ff7f0e;stroke:#ff7f0e;" x="78.620179" xlink:href="#mf2551c0e7d" y="260.867914"/>
     <use style="fill:#ff7f0e;stroke:#ff7f0e;" x="81.061191" xlink:href="#mf2551c0e7d" y="261.216"/>
     <use style="fill:#ff7f0e;stroke:#ff7f0e;" x="83.502202" xlink:href="#mf2551c0e7d" y="261.216"/>
     <use style="fill:#ff7f0e;stroke:#ff7f0e;" x="85.943214" xlink:href="#mf2551c0e7d" y="261.216"/>
     <use style="fill:#ff7f0e;stroke:#ff7f0e;" x="88.384226" xlink:href="#mf2551c0e7d" y="261.216"/>
     <use style="fill:#ff7f0e;stroke:#ff7f0e;" x="90.825237" xlink:href="#mf2551c0e7d" y="261.216"/>
     <use style="fill:#ff7f0e;stroke:#ff7f0e;" x="93.266249" xlink:href="#mf2551c0e7d" y="261.216"/>
     <use style="fill:#ff7f0e;stroke:#ff7f0e;" x="95.707261" xlink:href="#mf2551c0e7d" y="261.216"/>
     <use style="fill:#ff7f0e;stroke:#ff7f0e;" x="98.148272" xlink:href="#mf2551c0e7d" y="261.216"/>
     <use style="fill:#ff7f0e;stroke:#ff7f0e;" x="100.589284" xlink:href="#mf2551c0e7d" y="260.867914"/>
     <use style="fill:#ff7f0e;stroke:#ff7f0e;" x="103.030295" xlink:href="#mf2551c0e7d" y="260.867914"/>
     <use style="fill:#ff7f0e;stroke:#ff7f0e;" x="105.471307" xlink:href="#mf2551c0e7d" y="260.867914"/>
     <use style="fill:#ff7f0e;stroke:#ff7f0e;" x="107.912319" xlink:href="#mf2551c0e7d" y="261.216"/>
     <use style="fill:#ff7f0e;stroke:#ff7f0e;" x="110.35333" xlink:href="#mf2551c0e7d" y="260.171741"/>
     <use style="fill:#ff7f0e;stroke:#ff7f0e;" x="112.794342" xlink:href="#mf2551c0e7d" y="260.867914"/>
     <use style="fill:#ff7f0e;stroke:#ff7f0e;" x="115.235354" xlink:href="#mf2551c0e7d" y="259.127482"/>
     <use style="fill:#ff7f0e;stroke:#ff7f0e;" x="117.676365" xlink:href="#mf2551c0e7d" y="260.519827"/>
     <use style="fill:#ff7f0e;stroke:#ff7f0e;" x="120.117377" xlink:href="#mf2551c0e7d" y="260.171741"/>
     <use style="fill:#ff7f0e;stroke:#ff7f0e;" x="122.558388" xlink:href="#mf2551c0e7d" y="261.216"/>
     <use style="fill:#ff7f0e;stroke:#ff7f0e;" x="124.9994" xlink:href="#mf2551c0e7d" y="261.216"/>
     <use style="fill:#ff7f0e;stroke:#ff7f0e;" x="127.440412" xlink:href="#mf2551c0e7d" y="259.823655"/>
     <use style="fill:#ff7f0e;stroke:#ff7f0e;" x="129.881423" xlink:href="#mf2551c0e7d" y="260.519827"/>
     <use style="fill:#ff7f0e;stroke:#ff7f0e;" x="132.322435" xlink:href="#mf2551c0e7d" y="261.216"/>
     <use style="fill:#ff7f0e;stroke:#ff7f0e;" x="134.763446" xlink:href="#mf2551c0e7d" y="260.867914"/>
     <use style="fill:#ff7f0e;stroke:#ff7f0e;" x="137.204458" xlink:href="#mf2551c0e7d" y="261.216"/>
     <use style="fill:#ff7f0e;stroke:#ff7f0e;" x="139.64547" xlink:href="#mf2551c0e7d" y="261.216"/>
     <use style="fill:#ff7f0e;stroke:#ff7f0e;" x="142.086481" xlink:href="#mf2551c0e7d" y="260.519827"/>
     <use style="fill:#ff7f0e;stroke:#ff7f0e;" x="144.527493" xlink:href="#mf2551c0e7d" y="260.867914"/>
     <use style="fill:#ff7f0e;stroke:#ff7f0e;" x="146.968505" xlink:href="#mf2551c0e7d" y="261.216"/>
     <use style="fill:#ff7f0e;stroke:#ff7f0e;" x="149.409516" xlink:href="#mf2551c0e7d" y="259.823655"/>
     <use style="fill:#ff7f0e;stroke:#ff7f0e;" x="151.850528" xlink:href="#mf2551c0e7d" y="258.431309"/>
     <use style="fill:#ff7f0e;stroke:#ff7f0e;" x="154.291539" xlink:href="#mf2551c0e7d" y="257.038964"/>
     <use style="fill:#ff7f0e;stroke:#ff7f0e;" x="156.732551" xlink:href="#mf2551c0e7d" y="259.127482"/>
     <use style="fill:#ff7f0e;stroke:#ff7f0e;" x="159.173563" xlink:href="#mf2551c0e7d" y="258.779396"/>
     <use style="fill:#ff7f0e;stroke:#ff7f0e;" x="161.614574" xlink:href="#mf2551c0e7d" y="257.735137"/>
     <use style="fill:#ff7f0e;stroke:#ff7f0e;" x="164.055586" xlink:href="#mf2551c0e7d" y="258.083223"/>
     <use style="fill:#ff7f0e;stroke:#ff7f0e;" x="166.496598" xlink:href="#mf2551c0e7d" y="258.083223"/>
     <use style="fill:#ff7f0e;stroke:#ff7f0e;" x="168.937609" xlink:href="#mf2551c0e7d" y="255.298532"/>
     <use style="fill:#ff7f0e;stroke:#ff7f0e;" x="171.378621" xlink:href="#mf2551c0e7d" y="252.165755"/>
     <use style="fill:#ff7f0e;stroke:#ff7f0e;" x="173.819632" xlink:href="#mf2551c0e7d" y="257.735137"/>
     <use style="fill:#ff7f0e;stroke:#ff7f0e;" x="176.260644" xlink:href="#mf2551c0e7d" y="257.038964"/>
     <use style="fill:#ff7f0e;stroke:#ff7f0e;" x="178.701656" xlink:href="#mf2551c0e7d" y="255.994705"/>
     <use style="fill:#ff7f0e;stroke:#ff7f0e;" x="181.142667" xlink:href="#mf2551c0e7d" y="255.298532"/>
     <use style="fill:#ff7f0e;stroke:#ff7f0e;" x="183.583679" xlink:href="#mf2551c0e7d" y="252.513842"/>
     <use style="fill:#ff7f0e;stroke:#ff7f0e;" x="186.02469" xlink:href="#mf2551c0e7d" y="254.254273"/>
     <use style="fill:#ff7f0e;stroke:#ff7f0e;" x="188.465702" xlink:href="#mf2551c0e7d" y="258.431309"/>
     <use style="fill:#ff7f0e;stroke:#ff7f0e;" x="190.906714" xlink:href="#mf2551c0e7d" y="256.342791"/>
     <use style="fill:#ff7f0e;stroke:#ff7f0e;" x="193.347725" xlink:href="#mf2551c0e7d" y="255.298532"/>
     <use style="fill:#ff7f0e;stroke:#ff7f0e;" x="195.788737" xlink:href="#mf2551c0e7d" y="254.254273"/>
     <use style="fill:#ff7f0e;stroke:#ff7f0e;" x="198.229749" xlink:href="#mf2551c0e7d" y="248.684892"/>
     <use style="fill:#ff7f0e;stroke:#ff7f0e;" x="200.67076" xlink:href="#mf2551c0e7d" y="248.684892"/>
     <use style="fill:#ff7f0e;stroke:#ff7f0e;" x="203.111772" xlink:href="#mf2551c0e7d" y="241.375079"/>
     <use style="fill:#ff7f0e;stroke:#ff7f0e;" x="205.552783" xlink:href="#mf2551c0e7d" y="247.988719"/>
     <use style="fill:#ff7f0e;stroke:#ff7f0e;" x="207.993795" xlink:href="#mf2551c0e7d" y="248.336806"/>
     <use style="fill:#ff7f0e;stroke:#ff7f0e;" x="210.434807" xlink:href="#mf2551c0e7d" y="252.165755"/>
     <use style="fill:#ff7f0e;stroke:#ff7f0e;" x="212.875818" xlink:href="#mf2551c0e7d" y="237.198043"/>
     <use style="fill:#ff7f0e;stroke:#ff7f0e;" x="215.31683" xlink:href="#mf2551c0e7d" y="241.375079"/>
     <use style="fill:#ff7f0e;stroke:#ff7f0e;" x="217.757842" xlink:href="#mf2551c0e7d" y="245.552115"/>
     <use style="fill:#ff7f0e;stroke:#ff7f0e;" x="220.198853" xlink:href="#mf2551c0e7d" y="246.94446"/>
     <use style="fill:#ff7f0e;stroke:#ff7f0e;" x="222.639865" xlink:href="#mf2551c0e7d" y="242.419338"/>
     <use style="fill:#ff7f0e;stroke:#ff7f0e;" x="225.080876" xlink:href="#mf2551c0e7d" y="250.77341"/>
     <use style="fill:#ff7f0e;stroke:#ff7f0e;" x="227.521888" xlink:href="#mf2551c0e7d" y="254.60236"/>
     <use style="fill:#ff7f0e;stroke:#ff7f0e;" x="229.9629" xlink:href="#mf2551c0e7d" y="245.204029"/>
     <use style="fill:#ff7f0e;stroke:#ff7f0e;" x="232.403911" xlink:href="#mf2551c0e7d" y="245.900201"/>
     <use style="fill:#ff7f0e;stroke:#ff7f0e;" x="234.844923" xlink:href="#mf2551c0e7d" y="245.204029"/>
     <use style="fill:#ff7f0e;stroke:#ff7f0e;" x="237.285935" xlink:href="#mf2551c0e7d" y="245.552115"/>
     <use style="fill:#ff7f0e;stroke:#ff7f0e;" x="239.726946" xlink:href="#mf2551c0e7d" y="246.248288"/>
     <use style="fill:#ff7f0e;stroke:#ff7f0e;" x="242.167958" xlink:href="#mf2551c0e7d" y="246.248288"/>
     <use style="fill:#ff7f0e;stroke:#ff7f0e;" x="244.608969" xlink:href="#mf2551c0e7d" y="247.988719"/>
     <use style="fill:#ff7f0e;stroke:#ff7f0e;" x="247.049981" xlink:href="#mf2551c0e7d" y="233.369094"/>
     <use style="fill:#ff7f0e;stroke:#ff7f0e;" x="249.490993" xlink:href="#mf2551c0e7d" y="229.192058"/>
     <use style="fill:#ff7f0e;stroke:#ff7f0e;" x="251.932004" xlink:href="#mf2551c0e7d" y="226.407367"/>
     <use style="fill:#ff7f0e;stroke:#ff7f0e;" x="254.373016" xlink:href="#mf2551c0e7d" y="217.357122"/>
     <use style="fill:#ff7f0e;stroke:#ff7f0e;" x="256.814027" xlink:href="#mf2551c0e7d" y="189.510216"/>
     <use style="fill:#ff7f0e;stroke:#ff7f0e;" x="259.255039" xlink:href="#mf2551c0e7d" y="205.870273"/>
     <use style="fill:#ff7f0e;stroke:#ff7f0e;" x="261.696051" xlink:href="#mf2551c0e7d" y="209.351137"/>
     <use style="fill:#ff7f0e;stroke:#ff7f0e;" x="264.137062" xlink:href="#mf2551c0e7d" y="178.71954"/>
     <use style="fill:#ff7f0e;stroke:#ff7f0e;" x="266.578074" xlink:href="#mf2551c0e7d" y="164.099914"/>
     <use style="fill:#ff7f0e;stroke:#ff7f0e;" x="269.019086" xlink:href="#mf2551c0e7d" y="159.226705"/>
     <use style="fill:#ff7f0e;stroke:#ff7f0e;" x="271.460097" xlink:href="#mf2551c0e7d" y="140.430043"/>
     <use style="fill:#ff7f0e;stroke:#ff7f0e;" x="273.901109" xlink:href="#mf2551c0e7d" y="125.462331"/>
     <use style="fill:#ff7f0e;stroke:#ff7f0e;" x="276.34212" xlink:href="#mf2551c0e7d" y="155.745842"/>
     <use style="fill:#ff7f0e;stroke:#ff7f0e;" x="278.783132" xlink:href="#mf2551c0e7d" y="169.669295"/>
     <use style="fill:#ff7f0e;stroke:#ff7f0e;" x="281.224144" xlink:href="#mf2551c0e7d" y="94.830734"/>
     <use style="fill:#ff7f0e;stroke:#ff7f0e;" x="283.665155" xlink:href="#mf2551c0e7d" y="94.482647"/>
     <use style="fill:#ff7f0e;stroke:#ff7f0e;" x="286.106167" xlink:href="#mf2551c0e7d" y="37.744576"/>
     <use style="fill:#ff7f0e;stroke:#ff7f0e;" x="288.547179" xlink:href="#mf2551c0e7d" y="38.788835"/>
     <use style="fill:#ff7f0e;stroke:#ff7f0e;" x="290.98819" xlink:href="#mf2551c0e7d" y="19.296"/>
     <use style="fill:#ff7f0e;stroke:#ff7f0e;" x="293.429202" xlink:href="#mf2551c0e7d" y="102.488633"/>
     <use style="fill:#ff7f0e;stroke:#ff7f0e;" x="295.870213" xlink:href="#mf2551c0e7d" y="153.657324"/>
     <use style="fill:#ff7f0e;stroke:#ff7f0e;" x="298.311225" xlink:href="#mf2551c0e7d" y="78.818763"/>
     <use style="fill:#ff7f0e;stroke:#ff7f0e;" x="300.752237" xlink:href="#mf2551c0e7d" y="57.933583"/>
     <use style="fill:#ff7f0e;stroke:#ff7f0e;" x="303.193248" xlink:href="#mf2551c0e7d" y="76.382158"/>
     <use style="fill:#ff7f0e;stroke:#ff7f0e;" x="305.63426" xlink:href="#mf2551c0e7d" y="65.591482"/>
     <use style="fill:#ff7f0e;stroke:#ff7f0e;" x="308.075271" xlink:href="#mf2551c0e7d" y="64.547223"/>
     <use style="fill:#ff7f0e;stroke:#ff7f0e;" x="310.516283" xlink:href="#mf2551c0e7d" y="146.347511"/>
     <use style="fill:#ff7f0e;stroke:#ff7f0e;" x="312.957295" xlink:href="#mf2551c0e7d" y="135.208748"/>
     <use style="fill:#ff7f0e;stroke:#ff7f0e;" x="315.398306" xlink:href="#mf2551c0e7d" y="117.456345"/>
     <use style="fill:#ff7f0e;stroke:#ff7f0e;" x="317.839318" xlink:href="#mf2551c0e7d" y="107.013755"/>
     <use style="fill:#ff7f0e;stroke:#ff7f0e;" x="320.28033" xlink:href="#mf2551c0e7d" y="112.931223"/>
     <use style="fill:#ff7f0e;stroke:#ff7f0e;" x="322.721341" xlink:href="#mf2551c0e7d" y="107.709928"/>
     <use style="fill:#ff7f0e;stroke:#ff7f0e;" x="325.162353" xlink:href="#mf2551c0e7d" y="138.689612"/>
     <use style="fill:#ff7f0e;stroke:#ff7f0e;" x="327.603364" xlink:href="#mf2551c0e7d" y="190.902561"/>
     <use style="fill:#ff7f0e;stroke:#ff7f0e;" x="330.044376" xlink:href="#mf2551c0e7d" y="201.345151"/>
     <use style="fill:#ff7f0e;stroke:#ff7f0e;" x="332.485388" xlink:href="#mf2551c0e7d" y="159.574791"/>
     <use style="fill:#ff7f0e;stroke:#ff7f0e;" x="334.926399" xlink:href="#mf2551c0e7d" y="185.33318"/>
     <use style="fill:#ff7f0e;stroke:#ff7f0e;" x="337.367411" xlink:href="#mf2551c0e7d" y="202.737496"/>
     <use style="fill:#ff7f0e;stroke:#ff7f0e;" x="339.808423" xlink:href="#mf2551c0e7d" y="160.967137"/>
     <use style="fill:#ff7f0e;stroke:#ff7f0e;" x="342.249434" xlink:href="#mf2551c0e7d" y="155.397755"/>
     <use style="fill:#ff7f0e;stroke:#ff7f0e;" x="344.690446" xlink:href="#mf2551c0e7d" y="197.168115"/>
     <use style="fill:#ff7f0e;stroke:#ff7f0e;" x="347.131457" xlink:href="#mf2551c0e7d" y="208.654964"/>
     <use style="fill:#ff7f0e;stroke:#ff7f0e;" x="349.572469" xlink:href="#mf2551c0e7d" y="220.489899"/>
     <use style="fill:#ff7f0e;stroke:#ff7f0e;" x="352.013481" xlink:href="#mf2551c0e7d" y="227.10354"/>
     <use style="fill:#ff7f0e;stroke:#ff7f0e;" x="354.454492" xlink:href="#mf2551c0e7d" y="230.584403"/>
     <use style="fill:#ff7f0e;stroke:#ff7f0e;" x="356.895504" xlink:href="#mf2551c0e7d" y="227.451626"/>
     <use style="fill:#ff7f0e;stroke:#ff7f0e;" x="359.336516" xlink:href="#mf2551c0e7d" y="220.837986"/>
     <use style="fill:#ff7f0e;stroke:#ff7f0e;" x="361.777527" xlink:href="#mf2551c0e7d" y="238.590388"/>
     <use style="fill:#ff7f0e;stroke:#ff7f0e;" x="364.218539" xlink:href="#mf2551c0e7d" y="248.684892"/>
     <use style="fill:#ff7f0e;stroke:#ff7f0e;" x="366.65955" xlink:href="#mf2551c0e7d" y="236.501871"/>
     <use style="fill:#ff7f0e;stroke:#ff7f0e;" x="369.100562" xlink:href="#mf2551c0e7d" y="240.678906"/>
     <use style="fill:#ff7f0e;stroke:#ff7f0e;" x="371.541574" xlink:href="#mf2551c0e7d" y="244.15977"/>
     <use style="fill:#ff7f0e;stroke:#ff7f0e;" x="373.982585" xlink:href="#mf2551c0e7d" y="258.083223"/>
    </g>
   </g>
   <g id="patch_3">
    <path d="M 33.095313 273.312 
L 33.095313 7.2 
" style="fill:none;stroke:#000000;stroke-linecap:square;stroke-linejoin:miter;stroke-width:0.8;"/>
   </g>
   <g id="patch_4">
    <path d="M 390.215312 273.312 
L 390.215312 7.2 
" style="fill:none;stroke:#000000;stroke-linecap:square;stroke-linejoin:miter;stroke-width:0.8;"/>
   </g>
   <g id="patch_5">
    <path d="M 33.095312 273.312 
L 390.215312 273.312 
" style="fill:none;stroke:#000000;stroke-linecap:square;stroke-linejoin:miter;stroke-width:0.8;"/>
   </g>
   <g id="patch_6">
    <path d="M 33.095312 7.2 
L 390.215312 7.2 
" style="fill:none;stroke:#000000;stroke-linecap:square;stroke-linejoin:miter;stroke-width:0.8;"/>
   </g>
   <g id="legend_1">
    <g id="patch_7">
     <path d="M 40.095313 45.353125 
L 159.078125 45.353125 
Q 161.078125 45.353125 161.078125 43.353125 
L 161.078125 14.2 
Q 161.078125 12.2 159.078125 12.2 
L 40.095313 12.2 
Q 38.095313 12.2 38.095313 14.2 
L 38.095313 43.353125 
Q 38.095313 45.353125 40.095313 45.353125 
z
" style="fill:#ffffff;opacity:0.8;stroke:#cccccc;stroke-linejoin:miter;"/>
    </g>
    <g id="line2d_20">
     <path d="M 42.095313 20.820312 
L 62.095313 20.820312 
" style="fill:none;stroke:#1f77b4;stroke-linecap:square;stroke-width:1.5;"/>
    </g>
    <g id="line2d_21">
     <g>
      <use style="fill:#1f77b4;stroke:#1f77b4;" x="52.095313" xlink:href="#m7b65ce13b9" y="20.820312"/>
     </g>
    </g>
    <g id="text_19">
     <!--  (onset) -->
     <defs>
      <path d="M 73.734375 56.84375 
Q 80.609375 62.75 85.203125 68.609375 
L 91.109375 64.40625 
Q 84.46875 57.8125 78.71875 53.328125 
Q 85.9375 48.6875 95.40625 44.625 
L 90.625 38.375 
Q 81.734375 42.78125 73.53125 48.640625 
L 73.53125 43.3125 
L 64.109375 43.3125 
L 64.109375 29.984375 
L 89.890625 29.984375 
L 89.890625 23.78125 
L 64.109375 23.78125 
L 64.109375 5.609375 
Q 64.109375 2.484375 65.71875 2.046875 
Q 67.390625 1.46875 73.09375 1.46875 
Q 82.125 1.46875 83.59375 2.984375 
Q 85.0625 4.4375 85.5 11.96875 
Q 85.5 13.484375 85.59375 14.0625 
L 92.625 11.578125 
Q 92.1875 0.390625 89.703125 -2.203125 
Q 87.0625 -5.328125 72.609375 -5.328125 
Q 63.8125 -5.328125 60.9375 -4 
Q 57.03125 -2.34375 57.03125 3.328125 
L 57.03125 23.78125 
L 42.578125 23.78125 
Q 40.1875 0.53125 11.078125 -7.421875 
L 7.28125 -0.984375 
Q 33.25 5.421875 35.5 23.78125 
L 10.015625 23.78125 
L 10.015625 29.984375 
L 35.796875 29.984375 
L 35.796875 43.3125 
L 27.78125 43.3125 
L 27.78125 47.015625 
Q 19.734375 41.359375 9.078125 36.1875 
L 4.5 42.1875 
Q 16.3125 46.734375 25.984375 53.8125 
Q 19.828125 60.15625 13.484375 64.59375 
L 18.609375 69.140625 
Q 26.515625 62.59375 31.109375 58.015625 
Q 38.03125 64.0625 43.171875 72.125 
L 20.0625 72.125 
L 20.0625 78.21875 
L 54 78.21875 
Q 58.203125 71.34375 62.890625 66.3125 
Q 69.09375 71.625 74.03125 77.9375 
L 79.828125 73.734375 
Q 74.171875 67.625 67.09375 62.203125 
Q 70.40625 59.078125 73.734375 56.84375 
z
M 57.03125 43.3125 
L 42.78125 43.3125 
L 42.78125 29.984375 
L 57.03125 29.984375 
z
M 30.90625 49.3125 
L 72.515625 49.3125 
Q 58.6875 59.28125 50.59375 71 
Q 43.21875 58.890625 30.90625 49.3125 
z
" id="IPAexGothic-30330"/>
      <path d="M 63.71875 2.875 
L 95.015625 2.875 
L 95.015625 -3.515625 
L 23.96875 -3.515625 
L 23.96875 2.875 
L 37.3125 2.875 
L 37.3125 38.28125 
L 44 38.28125 
L 44 2.875 
L 56.84375 2.875 
L 56.84375 46.578125 
L 30.515625 46.578125 
L 30.515625 52.78125 
L 90.046875 52.78125 
L 90.046875 46.578125 
L 63.71875 46.578125 
L 63.71875 29.203125 
L 87.796875 29.203125 
L 87.796875 23.09375 
L 63.71875 23.09375 
z
M 60.203125 70.515625 
L 93.890625 70.515625 
L 93.890625 64.109375 
L 27.296875 64.109375 
L 27.296875 41.40625 
Q 27.296875 23.140625 24.21875 12.203125 
Q 21.390625 2.25 14.59375 -6.203125 
L 9.625 -1.171875 
Q 18.75 10.359375 20.125 27.484375 
Q 15.4375 24.125 7.078125 19.734375 
L 4 26.609375 
Q 12.3125 29.59375 20.40625 34.328125 
L 20.40625 37.890625 
L 20.40625 70.515625 
L 52.78125 70.515625 
L 52.78125 81.984375 
L 60.203125 81.984375 
z
M 12.015625 40.375 
Q 8.890625 50.78125 5.421875 57.90625 
L 11.375 60.59375 
Q 15.234375 53.859375 18.40625 43.703125 
z
" id="IPAexGothic-30151"/>
      <path d="M 81.734375 75 
L 81.734375 -4.5 
L 74.125 -4.5 
L 74.125 2 
L 25.734375 2 
L 25.734375 -4.5 
L 18.109375 -4.5 
L 18.109375 75 
z
M 25.734375 68.3125 
L 25.734375 42.671875 
L 74.125 42.671875 
L 74.125 68.3125 
z
M 25.734375 35.890625 
L 25.734375 8.6875 
L 74.125 8.6875 
L 74.125 35.890625 
z
" id="IPAexGothic-26085"/>
      <path id="IPAexGothic-32"/>
      <path d="M 30.125 -15.875 
L 25.828125 -18.21875 
Q 7.625 1.078125 7.625 29.296875 
Q 7.625 57.46875 25.828125 76.703125 
L 30.125 74.421875 
Q 15.71875 55.03125 15.71875 29.390625 
Q 15.71875 3.171875 30.125 -15.875 
z
" id="IPAexGothic-40"/>
      <path d="M 29.984375 52.203125 
Q 40.53125 52.203125 47.75 45.125 
Q 55.171875 37.703125 55.171875 25.59375 
Q 55.171875 13.875 47.90625 6.59375 
Q 40.765625 -0.484375 29.984375 -0.484375 
Q 19.1875 -0.484375 12.203125 6.5 
Q 4.890625 13.765625 4.890625 25.875 
Q 4.890625 37.703125 12.3125 45.125 
Q 19.390625 52.203125 29.984375 52.203125 
z
M 29.984375 45.609375 
Q 23.734375 45.609375 19.390625 41.109375 
Q 13.875 35.59375 13.875 25.78125 
Q 13.875 16.109375 19.28125 10.6875 
Q 23.6875 6.296875 29.984375 6.296875 
Q 36.421875 6.296875 40.765625 10.796875 
Q 46.1875 16.21875 46.1875 26.125 
Q 46.1875 35.453125 40.671875 41.109375 
Q 36.1875 45.609375 29.984375 45.609375 
z
" id="IPAexGothic-111"/>
      <path d="M 34.90625 39.796875 
Q 30.28125 45.796875 23.1875 45.796875 
Q 13.921875 45.796875 13.921875 38.671875 
Q 13.921875 33.640625 23.921875 30.375 
L 27.203125 29.296875 
Q 41.40625 24.65625 41.40625 13.96875 
Q 41.40625 6.78125 35.5 2.6875 
Q 30.8125 -0.484375 23.390625 -0.484375 
Q 11.96875 -0.484375 4 7.859375 
L 9.421875 12.796875 
Q 15.578125 6.203125 23.6875 6.203125 
Q 33.296875 6.203125 33.296875 13.671875 
Q 33.296875 19.34375 22.703125 23.09375 
L 19.28125 24.265625 
Q 5.90625 28.953125 5.90625 37.984375 
Q 5.90625 43.703125 9.8125 47.609375 
Q 14.5 52.296875 22.703125 52.296875 
Q 33.6875 52.296875 40.71875 44.671875 
z
" id="IPAexGothic-115"/>
      <path d="M 33.203125 3.765625 
Q 27.640625 -0.09375 21.828125 -0.09375 
Q 10.203125 -0.09375 10.203125 12.984375 
L 10.203125 44.671875 
L 3.421875 44.671875 
L 3.421875 50.78125 
L 10.203125 50.78125 
L 10.203125 61.96875 
L 18.40625 66.0625 
L 18.40625 50.78125 
L 32.234375 50.78125 
L 32.234375 44.671875 
L 18.40625 44.671875 
L 18.40625 14.15625 
Q 18.40625 6.5 23.640625 6.5 
Q 27.15625 6.5 30.328125 9.1875 
z
" id="IPAexGothic-116"/>
      <path d="M 7.28125 76.703125 
Q 25.59375 57.375 25.59375 29.296875 
Q 25.59375 1.171875 7.28125 -18.21875 
L 2.984375 -15.875 
Q 17.484375 3.375 17.484375 29.390625 
Q 17.484375 54.828125 2.984375 74.421875 
z
" id="IPAexGothic-41"/>
     </defs>
     <g transform="translate(70.095313 24.320312)scale(0.1 -0.1)">
      <use xlink:href="#IPAexGothic-30330"/>
      <use x="100" xlink:href="#IPAexGothic-30151"/>
      <use x="200" xlink:href="#IPAexGothic-26085"/>
      <use x="300" xlink:href="#IPAexGothic-32"/>
      <use x="327.001953" xlink:href="#IPAexGothic-40"/>
      <use x="360.302734" xlink:href="#IPAexGothic-111"/>
      <use x="420.703125" xlink:href="#IPAexGothic-110"/>
      <use x="481.103516" xlink:href="#IPAexGothic-115"/>
      <use x="527.294922" xlink:href="#IPAexGothic-101"/>
      <use x="584.179688" xlink:href="#IPAexGothic-116"/>
      <use x="618.798828" xlink:href="#IPAexGothic-41"/>
     </g>
    </g>
    <g id="line2d_22">
     <path d="M 42.095313 35.953125 
L 62.095313 35.953125 
" style="fill:none;stroke:#ff7f0e;stroke-linecap:square;stroke-width:1.5;"/>
    </g>
    <g id="line2d_23">
     <g>
      <use style="fill:#ff7f0e;stroke:#ff7f0e;" x="52.095313" xlink:href="#mf2551c0e7d" y="35.953125"/>
     </g>
    </g>
    <g id="text_20">
     <!--  (confirmed) -->
     <defs>
      <path d="M 67.921875 50.296875 
Q 70.5625 55.28125 72.609375 61.8125 
L 79.296875 60.203125 
Q 76.171875 53.609375 74.21875 50.296875 
L 92 50.296875 
L 92 44.484375 
L 73.4375 44.484375 
L 73.4375 34.71875 
L 89.703125 34.71875 
L 89.703125 29.203125 
L 73.4375 29.203125 
L 73.4375 19.53125 
L 89.703125 19.53125 
L 89.703125 14.015625 
L 73.4375 14.015625 
L 73.4375 3.609375 
L 94.28125 3.609375 
L 94.28125 -2.203125 
L 54.109375 -2.203125 
L 54.109375 -6.984375 
L 47.609375 -6.984375 
L 47.609375 38.1875 
Q 43.0625 31.546875 38.8125 26.609375 
L 35.6875 32.8125 
Q 49.359375 49.953125 54.78125 64.796875 
L 45.515625 64.796875 
L 45.515625 53.515625 
L 39.203125 53.515625 
L 39.203125 70.609375 
L 56.78125 70.609375 
Q 58.59375 76.609375 60.109375 83.109375 
L 66.703125 81.890625 
Q 65.234375 75.53125 63.625 70.609375 
L 92.71875 70.609375 
L 92.71875 53.515625 
L 86.328125 53.515625 
L 86.328125 64.796875 
L 61.53125 64.796875 
Q 58.546875 56.984375 54.890625 50.296875 
z
M 67.140625 44.484375 
L 54.109375 44.484375 
L 54.109375 34.71875 
L 67.140625 34.71875 
z
M 67.140625 29.203125 
L 54.109375 29.203125 
L 54.109375 19.53125 
L 67.140625 19.53125 
z
M 67.140625 14.015625 
L 54.109375 14.015625 
L 54.109375 3.609375 
L 67.140625 3.609375 
z
M 18.109375 46 
L 35.546875 46 
L 35.546875 3.078125 
L 18.953125 3.078125 
L 18.953125 -5.125 
L 12.75 -5.125 
L 12.75 34.46875 
Q 10.15625 29.734375 6.15625 23.78125 
L 2.9375 29.984375 
Q 14.546875 47.078125 18.75 69 
L 6.34375 69 
L 6.34375 75.296875 
L 37.640625 75.296875 
L 37.640625 69 
L 25.25 69 
L 24.953125 68.015625 
Q 22.75 57.234375 18.109375 46 
z
M 18.953125 39.890625 
L 18.953125 9.1875 
L 29.34375 9.1875 
L 29.34375 39.890625 
z
" id="IPAexGothic-30906"/>
      <path d="M 53.609375 4.734375 
Q 61.421875 3.515625 73.578125 3.515625 
Q 81.109375 3.515625 94.578125 4.109375 
Q 93.171875 0.921875 92 -3.5625 
Q 81.78125 -3.90625 75.6875 -3.90625 
Q 55.765625 -3.90625 46.921875 -1.21875 
Q 35.296875 2.390625 27.34375 14.109375 
Q 22.515625 2.546875 12.59375 -7.171875 
L 7.421875 -1.171875 
Q 22.125 11.859375 26.3125 37.796875 
L 33.203125 35.984375 
Q 31.734375 27.4375 29.828125 21.1875 
Q 36.53125 10.59375 46.4375 6.5 
L 46.4375 46 
L 22.40625 46 
L 22.40625 52.390625 
L 77.484375 52.390625 
L 77.484375 46 
L 53.609375 46 
L 53.609375 31 
L 84.328125 31 
L 84.328125 24.515625 
L 53.609375 24.515625 
z
M 53.421875 69.1875 
L 89.84375 69.1875 
L 89.84375 49.46875 
L 82.421875 49.46875 
L 82.421875 62.890625 
L 17.53125 62.890625 
L 17.53125 49.46875 
L 10.109375 49.46875 
L 10.109375 69.1875 
L 45.90625 69.1875 
L 45.90625 83.015625 
L 53.421875 83.015625 
z
" id="IPAexGothic-23450"/>
      <path d="M 51.078125 12.25 
Q 44.28125 -0.484375 29.6875 -0.484375 
Q 19.1875 -0.484375 12.3125 6.390625 
Q 4.890625 13.921875 4.890625 25.984375 
Q 4.890625 37.9375 12.3125 45.515625 
Q 19.09375 52.296875 29.390625 52.296875 
Q 43.953125 52.296875 50.09375 39.703125 
L 43.171875 36.078125 
Q 38.8125 45.3125 29.6875 45.3125 
Q 23.6875 45.3125 19.28125 40.921875 
Q 13.765625 35.40625 13.765625 25.78125 
Q 13.765625 16.703125 19.09375 11.375 
Q 23.78125 6.6875 30.5625 6.6875 
Q 39.796875 6.6875 44.484375 15.875 
z
" id="IPAexGothic-99"/>
      <path d="M 38.375 72.21875 
L 34.8125 66.3125 
Q 31.109375 69.09375 27.203125 69.09375 
Q 18.5 69.09375 18.5 57.375 
L 18.5 50.78125 
L 32.078125 50.78125 
L 32.078125 44.671875 
L 18.5 44.671875 
L 18.5 0.984375 
L 10.015625 0.984375 
L 10.015625 44.671875 
L 1.90625 44.671875 
L 1.90625 50.78125 
L 10.015625 50.78125 
L 10.015625 57.171875 
Q 10.015625 65.4375 13.921875 70.0625 
Q 18.75 75.6875 26.703125 75.6875 
Q 33.0625 75.6875 38.375 72.21875 
z
" id="IPAexGothic-102"/>
      <path d="M 18.40625 61.375 
L 8.59375 61.375 
L 8.59375 71.390625 
L 18.40625 71.390625 
z
M 17.78125 0.984375 
L 9.1875 0.984375 
L 9.1875 50.78125 
L 17.78125 50.78125 
z
" id="IPAexGothic-105"/>
      <path d="M 78.46875 0.984375 
L 69.875 0.984375 
L 69.875 32.171875 
Q 69.875 44.828125 60.109375 44.828125 
Q 55.46875 44.828125 51.609375 40.53125 
Q 48.875 37.453125 47.796875 32.859375 
L 47.796875 0.984375 
L 39.203125 0.984375 
L 39.203125 32.28125 
Q 39.203125 44.828125 29.984375 44.828125 
Q 25.09375 44.828125 21.390625 40.53125 
Q 17.390625 36.03125 17.390625 31.890625 
L 17.390625 0.984375 
L 8.796875 0.984375 
L 8.796875 50.78125 
L 16.796875 50.78125 
L 16.796875 42.1875 
Q 21.734375 51.8125 31.6875 51.8125 
Q 42.578125 51.8125 46.1875 41.359375 
Q 51.609375 51.8125 61.765625 51.8125 
Q 69.96875 51.8125 74.5625 46 
Q 78.46875 41.21875 78.46875 32.375 
z
" id="IPAexGothic-109"/>
      <path d="M 52.984375 0.984375 
L 45.171875 0.984375 
L 45.171875 9.671875 
Q 38.140625 -0.484375 27.390625 -0.484375 
Q 18.453125 -0.484375 12.3125 5.8125 
Q 4.890625 13.1875 4.890625 25.984375 
Q 4.890625 38.53125 12.0625 45.90625 
Q 18.265625 52.203125 27.390625 52.203125 
Q 37.25 52.203125 44.484375 43.890625 
L 44.484375 74.90625 
L 52.984375 74.90625 
z
M 44.484375 20.359375 
L 44.484375 32.765625 
Q 44.484375 37.703125 38.375 42.28125 
Q 34.078125 45.40625 28.953125 45.40625 
Q 23.1875 45.40625 19.1875 41.40625 
Q 13.875 36.078125 13.875 26.21875 
Q 13.875 17.328125 18.265625 11.71875 
Q 22.515625 6.390625 28.859375 6.390625 
Q 36.28125 6.390625 41.5 13.671875 
Q 44.484375 17.71875 44.484375 20.359375 
z
" id="IPAexGothic-100"/>
     </defs>
     <g transform="translate(70.095313 39.453125)scale(0.1 -0.1)">
      <use xlink:href="#IPAexGothic-30906"/>
      <use x="100" xlink:href="#IPAexGothic-23450"/>
      <use x="200" xlink:href="#IPAexGothic-26085"/>
      <use x="300" xlink:href="#IPAexGothic-32"/>
      <use x="327.001953" xlink:href="#IPAexGothic-40"/>
      <use x="360.302734" xlink:href="#IPAexGothic-99"/>
      <use x="414.697266" xlink:href="#IPAexGothic-111"/>
      <use x="475.097656" xlink:href="#IPAexGothic-110"/>
      <use x="535.498047" xlink:href="#IPAexGothic-102"/>
      <use x="566.113281" xlink:href="#IPAexGothic-105"/>
      <use x="593.115234" xlink:href="#IPAexGothic-114"/>
      <use x="630.126953" xlink:href="#IPAexGothic-109"/>
      <use x="717.236328" xlink:href="#IPAexGothic-101"/>
      <use x="774.121094" xlink:href="#IPAexGothic-100"/>
      <use x="836.523438" xlink:href="#IPAexGothic-41"/>
     </g>
    </g>
   </g>
  </g>
 </g>
 <defs>
  <clipPath id="p10c5b75021">
   <rect height="266.112" width="357.12" x="33.095313" y="7.2"/>
  </clipPath>
 </defs>
</svg>
