<?xml version="1.0" encoding="utf-8" standalone="no"?>
<!DOCTYPE svg PUBLIC "-//W3C//DTD SVG 1.1//EN"
  "http://www.w3.org/Graphics/SVG/1.1/DTD/svg11.dtd">
<!-- Created with matplotlib (https://matplotlib.org/) -->
<svg height="309.29325pt" version="1.1" viewBox="0 0 404.602634 309.29325" width="404.602634pt" xmlns="http://www.w3.org/2000/svg" xmlns:xlink="http://www.w3.org/1999/xlink">
 <defs>
  <style type="text/css">
*{stroke-linecap:butt;stroke-linejoin:round;}
  </style>
 </defs>
 <g id="figure_1">
  <g id="patch_1">
   <path d="M 0 309.29325 
L 404.602634 309.29325 
L 404.602634 0 
L 0 0 
z
" style="fill:#ffffff;"/>
  </g>
  <g id="axes_1">
   <g id="patch_2">
    <path d="M 33.095313 273.312 
L 390.215312 273.312 
L 390.215312 7.2 
L 33.095313 7.2 
z
" style="fill:#ffffff;"/>
   </g>
   <g id="matplotlib.axis_1">
    <g id="xtick_1">
     <g id="line2d_1">
      <defs>
       <path d="M 0 0 
L 0 3.5 
" id="mb0a790cff6" style="stroke:#000000;stroke-width:0.8;"/>
      </defs>
      <g>
       <use style="stroke:#000000;stroke-width:0.8;" x="41.689109" xlink:href="#mb0a790cff6" y="273.312"/>
      </g>
     </g>
     <g id="text_1">
      <!-- Jan -->
      <defs>
       <path d="M 28.421875 72.40625 
L 28.421875 19.28125 
Q 28.421875 -0.484375 11.921875 -0.484375 
Q 4.734375 -0.484375 -1.953125 3.265625 
L 1.3125 10.0625 
Q 5.90625 6.984375 10.84375 6.984375 
Q 19.53125 6.984375 19.53125 18.796875 
L 19.53125 72.40625 
z
" id="IPAexGothic-74"/>
       <path d="M 49.3125 0.984375 
L 41.75 0.984375 
Q 39.984375 4.734375 39.546875 8.6875 
L 39.203125 8.6875 
Q 33.546875 -0.390625 22.3125 -0.390625 
Q 14.59375 -0.390625 9.71875 4.5 
Q 5.421875 8.796875 5.421875 14.984375 
Q 5.421875 30.421875 32.03125 31.203125 
L 38.71875 31.390625 
L 38.71875 33.984375 
Q 38.71875 39.203125 35.75 42.1875 
Q 32.625 45.3125 27.734375 45.3125 
Q 19.34375 45.3125 15.140625 37.15625 
L 7.71875 40.578125 
Q 14.65625 52 27.9375 52 
Q 37.109375 52 42.046875 46.875 
Q 46.625 42.28125 46.625 33.890625 
L 46.625 15.578125 
Q 46.625 6.25 49.3125 0.984375 
z
M 38.921875 25.390625 
L 33.453125 25.296875 
Q 14.109375 24.859375 14.109375 14.890625 
Q 14.109375 11.375 16.40625 9.078125 
Q 19.234375 6.296875 23.828125 6.296875 
Q 30.21875 6.296875 34.90625 10.984375 
Q 38.921875 15.140625 38.921875 21 
z
" id="IPAexGothic-97"/>
       <path d="M 52 0.984375 
L 43.40625 0.984375 
L 43.40625 31.890625 
Q 43.40625 44.578125 32.90625 44.578125 
Q 22.3125 44.578125 17.390625 31.890625 
L 17.390625 0.984375 
L 8.796875 0.984375 
L 8.796875 50.78125 
L 16.796875 50.78125 
L 16.796875 41.796875 
Q 23.828125 51.8125 34.71875 51.8125 
Q 52 51.8125 52 32.375 
z
" id="IPAexGothic-110"/>
      </defs>
      <g transform="translate(34.020359 287.802625)scale(0.1 -0.1)">
       <use xlink:href="#IPAexGothic-74"/>
       <use x="37.988281" xlink:href="#IPAexGothic-97"/>
       <use x="92.96875" xlink:href="#IPAexGothic-110"/>
      </g>
     </g>
    </g>
    <g id="xtick_2">
     <g id="line2d_2">
      <g>
       <use style="stroke:#000000;stroke-width:0.8;" x="95.161623" xlink:href="#mb0a790cff6" y="273.312"/>
      </g>
     </g>
     <g id="text_2">
      <!-- 15 -->
      <defs>
       <path d="M 38.484375 0.984375 
L 29.6875 0.984375 
L 29.6875 64.109375 
Q 21.4375 61.28125 12.3125 59.328125 
L 10.6875 66.109375 
Q 23.734375 69.390625 32.90625 73.921875 
L 38.484375 73.921875 
z
" id="IPAexGothic-49"/>
       <path d="M 18.40625 40.671875 
Q 25.53125 46.296875 33.9375 46.296875 
Q 44 46.296875 50.640625 39.5 
Q 56.84375 33.015625 56.84375 23.390625 
Q 56.84375 14.65625 51.515625 8.015625 
Q 44.828125 -0.484375 31.734375 -0.484375 
Q 14.984375 -0.484375 7.328125 12.25 
L 14.65625 16.0625 
Q 20.453125 6.78125 31.453125 6.78125 
Q 38.53125 6.78125 43.265625 11.1875 
Q 48.140625 15.828125 48.140625 23.484375 
Q 48.140625 30.71875 43.84375 35.015625 
Q 39.359375 39.5 32.125 39.5 
Q 21.96875 39.5 16.75 31.6875 
L 9.234375 32.671875 
L 13.8125 72.40625 
L 53.21875 72.40625 
L 53.21875 64.890625 
L 20.953125 64.890625 
L 17.71875 40.671875 
z
" id="IPAexGothic-53"/>
      </defs>
      <g transform="translate(88.863185 287.802625)scale(0.1 -0.1)">
       <use xlink:href="#IPAexGothic-49"/>
       <use x="62.988281" xlink:href="#IPAexGothic-53"/>
      </g>
     </g>
    </g>
    <g id="xtick_3">
     <g id="line2d_3">
      <g>
       <use style="stroke:#000000;stroke-width:0.8;" x="160.092532" xlink:href="#mb0a790cff6" y="273.312"/>
      </g>
     </g>
     <g id="text_3">
      <!-- Feb -->
      <defs>
       <path d="M 54.203125 64.703125 
L 18.3125 64.703125 
L 18.3125 41.5 
L 50.09375 41.5 
L 50.09375 34.1875 
L 18.3125 34.1875 
L 18.3125 0.984375 
L 9.515625 0.984375 
L 9.515625 72.40625 
L 54.203125 72.40625 
z
" id="IPAexGothic-70"/>
       <path d="M 13.484375 24.90625 
Q 13.921875 16.265625 18.890625 11.28125 
Q 23.96875 6.203125 31.203125 6.203125 
Q 40.71875 6.203125 46.296875 15.09375 
L 51.90625 11.375 
Q 44.828125 -0.484375 30.171875 -0.484375 
Q 19.09375 -0.484375 11.96875 6.59375 
Q 4.78125 13.8125 4.78125 25.640625 
Q 4.78125 38.1875 12.3125 45.703125 
Q 19 52.390625 29 52.390625 
Q 38.421875 52.390625 44.78125 46.1875 
Q 51.90625 38.96875 51.90625 26.90625 
L 51.90625 24.90625 
z
M 43.0625 31.203125 
Q 42.328125 37.984375 38.28125 41.890625 
Q 34.28125 45.90625 28.8125 45.90625 
Q 22.46875 45.90625 17.96875 40.484375 
Q 14.890625 36.8125 13.96875 31.203125 
z
" id="IPAexGothic-101"/>
       <path d="M 17.578125 42.671875 
Q 24.21875 52.203125 34.671875 52.203125 
Q 43.5625 52.203125 49.859375 45.90625 
Q 57.171875 38.578125 57.171875 25.6875 
Q 57.171875 13.09375 49.859375 5.8125 
Q 43.5625 -0.484375 34.46875 -0.484375 
Q 24.359375 -0.484375 17 8.0625 
L 15.765625 0.6875 
L 9.078125 0.6875 
L 9.078125 74.90625 
L 17.578125 74.90625 
z
M 17.578125 31.203125 
L 17.578125 19.578125 
Q 17.578125 13.875 23.875 9.375 
Q 28.171875 6.296875 33.109375 6.296875 
Q 38.875 6.296875 42.875 10.296875 
Q 48.1875 15.765625 48.1875 25.484375 
Q 48.1875 34.28125 43.796875 39.890625 
Q 39.453125 45.3125 33.203125 45.3125 
Q 27.484375 45.3125 22.46875 40.28125 
Q 17.578125 35.40625 17.578125 31.203125 
z
" id="IPAexGothic-98"/>
      </defs>
      <g transform="translate(151.269094 287.802625)scale(0.1 -0.1)">
       <use xlink:href="#IPAexGothic-70"/>
       <use x="57.177734" xlink:href="#IPAexGothic-101"/>
       <use x="114.0625" xlink:href="#IPAexGothic-98"/>
      </g>
     </g>
    </g>
    <g id="xtick_4">
     <g id="line2d_4">
      <g>
       <use style="stroke:#000000;stroke-width:0.8;" x="213.565045" xlink:href="#mb0a790cff6" y="273.312"/>
      </g>
     </g>
     <g id="text_4">
      <!-- 15 -->
      <g transform="translate(207.266608 287.802625)scale(0.1 -0.1)">
       <use xlink:href="#IPAexGothic-49"/>
       <use x="62.988281" xlink:href="#IPAexGothic-53"/>
      </g>
     </g>
    </g>
    <g id="xtick_5">
     <g id="line2d_5">
      <g>
       <use style="stroke:#000000;stroke-width:0.8;" x="270.857024" xlink:href="#mb0a790cff6" y="273.312"/>
      </g>
     </g>
     <g id="text_5">
      <!-- Mar -->
      <defs>
       <path d="M 80.421875 0.984375 
L 71.828125 0.984375 
L 71.828125 39.59375 
Q 71.828125 51.265625 72.40625 64.59375 
L 72.015625 64.59375 
Q 68.0625 53.265625 63.53125 41.796875 
L 47.90625 3.265625 
L 41.40625 3.265625 
L 25.640625 42.578125 
Q 20.75 54.78125 17.625 64.703125 
L 17.234375 64.703125 
Q 17.828125 48.921875 17.828125 39.890625 
L 17.828125 0.984375 
L 9.515625 0.984375 
L 9.515625 72.40625 
L 22.125 72.40625 
L 39.109375 30.375 
Q 42.140625 23 44.828125 14.15625 
L 45.125 14.15625 
Q 47.3125 22.125 50.53125 30.171875 
L 67.4375 72.40625 
L 80.421875 72.40625 
z
" id="IPAexGothic-77"/>
       <path d="M 36.078125 51.8125 
L 34.578125 43.265625 
Q 32.90625 43.609375 31.59375 43.609375 
Q 25.828125 43.609375 22.078125 38.1875 
Q 17.390625 31.34375 17.390625 26.171875 
L 17.390625 0.984375 
L 8.796875 0.984375 
L 8.796875 50.78125 
L 16.890625 50.78125 
L 16.5 35.984375 
L 16.703125 35.984375 
Q 22.21875 52.203125 32.765625 52.203125 
Q 34.46875 52.203125 36.078125 51.8125 
z
" id="IPAexGothic-114"/>
      </defs>
      <g transform="translate(261.747649 287.802625)scale(0.1 -0.1)">
       <use xlink:href="#IPAexGothic-77"/>
       <use x="90.185547" xlink:href="#IPAexGothic-97"/>
       <use x="145.166016" xlink:href="#IPAexGothic-114"/>
      </g>
     </g>
    </g>
    <g id="xtick_6">
     <g id="line2d_6">
      <g>
       <use style="stroke:#000000;stroke-width:0.8;" x="324.329537" xlink:href="#mb0a790cff6" y="273.312"/>
      </g>
     </g>
     <g id="text_6">
      <!-- 15 -->
      <g transform="translate(318.0311 287.802625)scale(0.1 -0.1)">
       <use xlink:href="#IPAexGothic-49"/>
       <use x="62.988281" xlink:href="#IPAexGothic-53"/>
      </g>
     </g>
    </g>
    <g id="xtick_7">
     <g id="line2d_7">
      <g>
       <use style="stroke:#000000;stroke-width:0.8;" x="389.260446" xlink:href="#mb0a790cff6" y="273.312"/>
      </g>
     </g>
     <g id="text_7">
      <!-- Apr -->
      <defs>
       <path d="M 63.375 0.984375 
L 53.8125 0.984375 
L 45.90625 22.015625 
L 17.1875 22.015625 
L 9.421875 0.984375 
L -0.09375 0.984375 
L 28.21875 72.90625 
L 35.296875 72.90625 
z
M 43.40625 29.109375 
L 36.1875 48.09375 
Q 33.203125 56.0625 31.6875 62.5 
L 31.390625 62.5 
Q 29.640625 55.671875 26.8125 48.09375 
L 19.734375 29.109375 
z
" id="IPAexGothic-65"/>
       <path d="M 16.796875 42 
Q 23.828125 52.203125 34.46875 52.203125 
Q 43.265625 52.203125 49.5625 45.90625 
Q 56.890625 38.578125 56.890625 25.6875 
Q 56.890625 13.140625 49.65625 5.8125 
Q 43.359375 -0.484375 34.375 -0.484375 
Q 24.515625 -0.484375 17.28125 7.765625 
L 17.28125 -19 
L 8.796875 -19 
L 8.796875 50.78125 
L 16.796875 50.78125 
z
M 17.28125 30.46875 
L 17.28125 20.171875 
Q 17.28125 14.015625 23.6875 9.375 
Q 27.984375 6.296875 32.90625 6.296875 
Q 38.578125 6.296875 42.578125 10.296875 
Q 47.90625 15.578125 47.90625 25.484375 
Q 47.90625 34.375 43.5 39.984375 
Q 39.109375 45.3125 32.8125 45.3125 
Q 25.875 45.3125 20.90625 38.8125 
Q 17.28125 34.125 17.28125 30.46875 
z
" id="IPAexGothic-112"/>
      </defs>
      <g transform="translate(381.118259 287.802625)scale(0.1 -0.1)">
       <use xlink:href="#IPAexGothic-65"/>
       <use x="63.720703" xlink:href="#IPAexGothic-112"/>
       <use x="125.830078" xlink:href="#IPAexGothic-114"/>
      </g>
     </g>
    </g>
    <g id="text_8">
     <!-- 2020-Apr -->
     <defs>
      <path d="M 57.171875 0.984375 
L 6.984375 0.984375 
L 6.984375 9.28125 
Q 12.890625 23.046875 29.59375 34.421875 
L 32.375 36.28125 
Q 40.921875 42.140625 43.609375 45.40625 
Q 46.6875 49.265625 46.6875 53.8125 
Q 46.6875 58.9375 43.0625 62.546875 
Q 39.0625 66.546875 32.5625 66.546875 
Q 19.53125 66.546875 15.484375 52 
L 7.765625 54.78125 
Q 13.328125 73.828125 33.0625 73.828125 
Q 43.84375 73.828125 50.25 67.4375 
Q 55.859375 61.671875 55.859375 53.515625 
Q 55.859375 47.46875 52.25 42.53125 
Q 48.921875 37.75 36.96875 30.28125 
L 34.859375 29 
Q 19.625 19.578125 15.28125 8.890625 
L 57.171875 8.890625 
z
" id="IPAexGothic-50"/>
      <path d="M 31.84375 73.828125 
Q 45.015625 73.828125 52.09375 61.625 
Q 57.71875 51.953125 57.71875 36.625 
Q 57.71875 21.4375 52.09375 11.578125 
Q 45.125 -0.484375 31.5 -0.484375 
Q 17.921875 -0.484375 10.9375 11.578125 
Q 5.328125 21.4375 5.328125 36.71875 
Q 5.328125 58.015625 15.625 67.71875 
Q 22.171875 73.828125 31.84375 73.828125 
z
M 31.5 66.65625 
Q 23.6875 66.65625 19.1875 58.734375 
Q 14.59375 50.734375 14.59375 36.625 
Q 14.59375 22.75 19.09375 14.796875 
Q 23.640625 6.984375 31.5 6.984375 
Q 40.921875 6.984375 45.453125 18.015625 
Q 48.4375 25.34375 48.4375 37.109375 
Q 48.4375 50.875 43.84375 58.734375 
Q 39.203125 66.65625 31.5 66.65625 
z
" id="IPAexGothic-48"/>
      <path d="M 30.765625 26.609375 
L 4.984375 26.609375 
L 4.984375 34.421875 
L 30.765625 34.421875 
z
" id="IPAexGothic-45"/>
     </defs>
     <g transform="translate(345.1575 300.19325)scale(0.1 -0.1)">
      <use xlink:href="#IPAexGothic-50"/>
      <use x="62.988281" xlink:href="#IPAexGothic-48"/>
      <use x="125.976562" xlink:href="#IPAexGothic-50"/>
      <use x="188.964844" xlink:href="#IPAexGothic-48"/>
      <use x="251.953125" xlink:href="#IPAexGothic-45"/>
      <use x="287.744141" xlink:href="#IPAexGothic-65"/>
      <use x="351.464844" xlink:href="#IPAexGothic-112"/>
      <use x="413.574219" xlink:href="#IPAexGothic-114"/>
     </g>
    </g>
   </g>
   <g id="matplotlib.axis_2">
    <g id="ytick_1">
     <g id="line2d_8">
      <defs>
       <path d="M 0 0 
L -3.5 0 
" id="mffc1a71081" style="stroke:#000000;stroke-width:0.8;"/>
      </defs>
      <g>
       <use style="stroke:#000000;stroke-width:0.8;" x="33.095313" xlink:href="#mffc1a71081" y="261.216"/>
      </g>
     </g>
     <g id="text_9">
      <!-- 0 -->
      <g transform="translate(19.796875 264.961312)scale(0.1 -0.1)">
       <use xlink:href="#IPAexGothic-48"/>
      </g>
     </g>
    </g>
    <g id="ytick_2">
     <g id="line2d_9">
      <g>
       <use style="stroke:#000000;stroke-width:0.8;" x="33.095313" xlink:href="#mffc1a71081" y="219.862154"/>
      </g>
     </g>
     <g id="text_10">
      <!-- 20 -->
      <g transform="translate(13.498438 223.607466)scale(0.1 -0.1)">
       <use xlink:href="#IPAexGothic-50"/>
       <use x="62.988281" xlink:href="#IPAexGothic-48"/>
      </g>
     </g>
    </g>
    <g id="ytick_3">
     <g id="line2d_10">
      <g>
       <use style="stroke:#000000;stroke-width:0.8;" x="33.095313" xlink:href="#mffc1a71081" y="178.508308"/>
      </g>
     </g>
     <g id="text_11">
      <!-- 40 -->
      <defs>
       <path d="M 59.578125 18.109375 
L 47.796875 18.109375 
L 47.796875 0.984375 
L 39.796875 0.984375 
L 39.796875 18.109375 
L 3.078125 18.109375 
L 3.078125 26.125 
L 38.375 73.09375 
L 47.796875 73.09375 
L 47.796875 25.53125 
L 59.578125 25.53125 
z
M 40.28125 64.203125 
L 39.984375 64.203125 
Q 35.59375 57.125 31.296875 51.3125 
L 11.859375 25.53125 
L 39.796875 25.53125 
L 39.796875 49.125 
Q 39.796875 54.390625 40.28125 64.203125 
z
" id="IPAexGothic-52"/>
      </defs>
      <g transform="translate(13.498438 182.25362)scale(0.1 -0.1)">
       <use xlink:href="#IPAexGothic-52"/>
       <use x="62.988281" xlink:href="#IPAexGothic-48"/>
      </g>
     </g>
    </g>
    <g id="ytick_4">
     <g id="line2d_11">
      <g>
       <use style="stroke:#000000;stroke-width:0.8;" x="33.095313" xlink:href="#mffc1a71081" y="137.154462"/>
      </g>
     </g>
     <g id="text_12">
      <!-- 60 -->
      <defs>
       <path d="M 16.5 36.375 
Q 23.578125 46.578125 34.90625 46.578125 
Q 45.40625 46.578125 51.8125 39.265625 
Q 57.421875 32.90625 57.421875 23.78125 
Q 57.421875 13.8125 51.125 6.78125 
Q 44.578125 -0.484375 34.03125 -0.484375 
Q 21.484375 -0.484375 14.40625 9.078125 
Q 7.515625 18.40625 7.515625 34.8125 
Q 7.515625 53.515625 15.828125 64.203125 
Q 23.34375 73.828125 35.5 73.828125 
Q 49.859375 73.828125 56.390625 62.890625 
L 49.21875 58.984375 
Q 45.21875 66.65625 35.9375 66.65625 
Q 17.484375 66.65625 16.109375 36.375 
z
M 33.453125 39.796875 
Q 26.3125 39.796875 21.625 34.46875 
Q 17.4375 29.6875 17.4375 24.078125 
Q 17.4375 18.0625 21.140625 13.1875 
Q 26.125 6.6875 33.734375 6.6875 
Q 41.703125 6.6875 45.953125 13.1875 
Q 48.828125 17.625 48.828125 23.484375 
Q 48.828125 30.375 45.015625 34.8125 
Q 40.625 39.796875 33.453125 39.796875 
z
" id="IPAexGothic-54"/>
      </defs>
      <g transform="translate(13.498438 140.899774)scale(0.1 -0.1)">
       <use xlink:href="#IPAexGothic-54"/>
       <use x="62.988281" xlink:href="#IPAexGothic-48"/>
      </g>
     </g>
    </g>
    <g id="ytick_5">
     <g id="line2d_12">
      <g>
       <use style="stroke:#000000;stroke-width:0.8;" x="33.095313" xlink:href="#mffc1a71081" y="95.800615"/>
      </g>
     </g>
     <g id="text_13">
      <!-- 80 -->
      <defs>
       <path d="M 39.703125 37.890625 
Q 57.8125 31.734375 57.8125 18.703125 
Q 57.8125 8.453125 48.4375 3.078125 
Q 41.609375 -0.875 31.5 -0.875 
Q 21.34375 -0.875 14.5 3.078125 
Q 5.421875 8.296875 5.421875 18.40625 
Q 5.421875 31.0625 22.015625 37.203125 
L 22.015625 37.5 
Q 7.515625 42.71875 7.515625 54.828125 
Q 7.515625 64.0625 15.328125 69.625 
Q 21.96875 74.3125 31.546875 74.3125 
Q 42.234375 74.3125 48.921875 68.796875 
Q 55.515625 63.578125 55.515625 55.71875 
Q 55.515625 42.28125 39.703125 38.1875 
z
M 31.59375 41.015625 
Q 46.828125 44.625 46.828125 55.125 
Q 46.828125 61.1875 41.796875 64.84375 
Q 37.703125 67.921875 31.5 67.921875 
Q 25.09375 67.921875 20.796875 64.5 
Q 16.40625 60.890625 16.40625 55.03125 
Q 16.40625 49.21875 21.09375 45.703125 
Q 23.34375 43.890625 26.90625 42.53125 
Q 31 40.875 31.59375 41.015625 
z
M 30.90625 34.515625 
Q 14.40625 30.171875 14.40625 19 
Q 14.40625 12.109375 20.515625 8.6875 
Q 25.09375 6.109375 31.390625 6.109375 
Q 40.234375 6.109375 45.015625 10.890625 
Q 48.53125 14.40625 48.53125 19.53125 
Q 48.53125 24.90625 43.65625 28.90625 
Q 40.765625 31.15625 36.71875 32.8125 
Q 31.984375 34.71875 30.90625 34.515625 
z
" id="IPAexGothic-56"/>
      </defs>
      <g transform="translate(13.498438 99.545928)scale(0.1 -0.1)">
       <use xlink:href="#IPAexGothic-56"/>
       <use x="62.988281" xlink:href="#IPAexGothic-48"/>
      </g>
     </g>
    </g>
    <g id="ytick_6">
     <g id="line2d_13">
      <g>
       <use style="stroke:#000000;stroke-width:0.8;" x="33.095313" xlink:href="#mffc1a71081" y="54.446769"/>
      </g>
     </g>
     <g id="text_14">
      <!-- 100 -->
      <g transform="translate(7.2 58.192082)scale(0.1 -0.1)">
       <use xlink:href="#IPAexGothic-49"/>
       <use x="62.988281" xlink:href="#IPAexGothic-48"/>
       <use x="125.976562" xlink:href="#IPAexGothic-48"/>
      </g>
     </g>
    </g>
    <g id="ytick_7">
     <g id="line2d_14">
      <g>
       <use style="stroke:#000000;stroke-width:0.8;" x="33.095313" xlink:href="#mffc1a71081" y="13.092923"/>
      </g>
     </g>
     <g id="text_15">
      <!-- 120 -->
      <g transform="translate(7.2 16.838236)scale(0.1 -0.1)">
       <use xlink:href="#IPAexGothic-49"/>
       <use x="62.988281" xlink:href="#IPAexGothic-50"/>
       <use x="125.976562" xlink:href="#IPAexGothic-48"/>
      </g>
     </g>
    </g>
   </g>
   <g id="line2d_15">
    <path clip-path="url(#p2ed5c42fae)" d="M 49.32804 259.148308 
L 53.147505 261.216 
L 56.96697 261.216 
L 60.786435 261.216 
L 64.605901 261.216 
L 68.425366 261.216 
L 72.244831 261.216 
L 76.064296 261.216 
L 79.883762 261.216 
L 83.703227 261.216 
L 87.522692 261.216 
L 91.342157 257.080615 
L 95.161623 261.216 
L 98.981088 261.216 
L 102.800553 261.216 
L 106.620018 261.216 
L 110.439484 261.216 
L 114.258949 255.012923 
L 118.078414 259.148308 
L 121.897879 257.080615 
L 125.717345 259.148308 
L 129.53681 257.080615 
L 133.356275 257.080615 
L 137.17574 255.012923 
L 140.995206 261.216 
L 144.814671 259.148308 
L 148.634136 257.080615 
L 152.453601 259.148308 
L 156.273067 252.945231 
L 160.092532 255.012923 
L 163.911997 252.945231 
L 167.731462 244.674462 
L 171.550927 250.877538 
L 175.370393 257.080615 
L 179.189858 248.809846 
L 183.009323 250.877538 
L 186.828788 257.080615 
L 190.648254 259.148308 
L 194.467719 244.674462 
L 198.287184 261.216 
L 202.106649 246.742154 
L 205.926115 246.742154 
L 209.74558 242.606769 
L 213.565045 242.606769 
L 217.38451 230.200615 
L 221.203976 238.471385 
L 225.023441 232.268308 
L 228.842906 230.200615 
L 232.662371 215.726769 
L 236.481837 223.997538 
L 240.301302 219.862154 
L 244.120767 213.659077 
L 247.940232 209.523692 
L 251.759698 192.982154 
L 255.579163 199.185231 
L 259.398628 211.591385 
L 263.218093 188.846769 
L 267.037558 211.591385 
L 270.857024 207.456 
L 274.676489 180.576 
L 278.495954 209.523692 
L 282.315419 197.117538 
L 286.134885 203.320615 
L 289.95435 207.456 
L 293.773815 184.711385 
L 297.59328 195.049846 
L 301.412746 172.305231 
L 305.232211 213.659077 
L 309.051676 184.711385 
L 312.871141 199.185231 
L 316.690607 174.372923 
L 320.510072 205.388308 
L 324.329537 197.117538 
L 328.149002 197.117538 
L 331.968468 164.034462 
L 335.787933 176.440615 
L 339.607398 153.696 
L 343.426863 178.508308 
L 347.246329 182.643692 
L 351.065794 192.982154 
L 354.885259 211.591385 
L 358.704724 234.336 
L 362.52419 240.539077 
L 366.343655 255.012923 
L 370.16312 259.148308 
L 373.982585 261.216 
" style="fill:none;stroke:#1f77b4;stroke-linecap:square;stroke-width:1.5;"/>
    <defs>
     <path d="M 0 3 
C 0.795609 3 1.55874 2.683901 2.12132 2.12132 
C 2.683901 1.55874 3 0.795609 3 0 
C 3 -0.795609 2.683901 -1.55874 2.12132 -2.12132 
C 1.55874 -2.683901 0.795609 -3 0 -3 
C -0.795609 -3 -1.55874 -2.683901 -2.12132 -2.12132 
C -2.683901 -1.55874 -3 -0.795609 -3 0 
C -3 0.795609 -2.683901 1.55874 -2.12132 2.12132 
C -1.55874 2.683901 -0.795609 3 0 3 
z
" id="m7195ce3d4c" style="stroke:#1f77b4;"/>
    </defs>
    <g clip-path="url(#p2ed5c42fae)">
     <use style="fill:#1f77b4;stroke:#1f77b4;" x="49.32804" xlink:href="#m7195ce3d4c" y="259.148308"/>
     <use style="fill:#1f77b4;stroke:#1f77b4;" x="53.147505" xlink:href="#m7195ce3d4c" y="261.216"/>
     <use style="fill:#1f77b4;stroke:#1f77b4;" x="56.96697" xlink:href="#m7195ce3d4c" y="261.216"/>
     <use style="fill:#1f77b4;stroke:#1f77b4;" x="60.786435" xlink:href="#m7195ce3d4c" y="261.216"/>
     <use style="fill:#1f77b4;stroke:#1f77b4;" x="64.605901" xlink:href="#m7195ce3d4c" y="261.216"/>
     <use style="fill:#1f77b4;stroke:#1f77b4;" x="68.425366" xlink:href="#m7195ce3d4c" y="261.216"/>
     <use style="fill:#1f77b4;stroke:#1f77b4;" x="72.244831" xlink:href="#m7195ce3d4c" y="261.216"/>
     <use style="fill:#1f77b4;stroke:#1f77b4;" x="76.064296" xlink:href="#m7195ce3d4c" y="261.216"/>
     <use style="fill:#1f77b4;stroke:#1f77b4;" x="79.883762" xlink:href="#m7195ce3d4c" y="261.216"/>
     <use style="fill:#1f77b4;stroke:#1f77b4;" x="83.703227" xlink:href="#m7195ce3d4c" y="261.216"/>
     <use style="fill:#1f77b4;stroke:#1f77b4;" x="87.522692" xlink:href="#m7195ce3d4c" y="261.216"/>
     <use style="fill:#1f77b4;stroke:#1f77b4;" x="91.342157" xlink:href="#m7195ce3d4c" y="257.080615"/>
     <use style="fill:#1f77b4;stroke:#1f77b4;" x="95.161623" xlink:href="#m7195ce3d4c" y="261.216"/>
     <use style="fill:#1f77b4;stroke:#1f77b4;" x="98.981088" xlink:href="#m7195ce3d4c" y="261.216"/>
     <use style="fill:#1f77b4;stroke:#1f77b4;" x="102.800553" xlink:href="#m7195ce3d4c" y="261.216"/>
     <use style="fill:#1f77b4;stroke:#1f77b4;" x="106.620018" xlink:href="#m7195ce3d4c" y="261.216"/>
     <use style="fill:#1f77b4;stroke:#1f77b4;" x="110.439484" xlink:href="#m7195ce3d4c" y="261.216"/>
     <use style="fill:#1f77b4;stroke:#1f77b4;" x="114.258949" xlink:href="#m7195ce3d4c" y="255.012923"/>
     <use style="fill:#1f77b4;stroke:#1f77b4;" x="118.078414" xlink:href="#m7195ce3d4c" y="259.148308"/>
     <use style="fill:#1f77b4;stroke:#1f77b4;" x="121.897879" xlink:href="#m7195ce3d4c" y="257.080615"/>
     <use style="fill:#1f77b4;stroke:#1f77b4;" x="125.717345" xlink:href="#m7195ce3d4c" y="259.148308"/>
     <use style="fill:#1f77b4;stroke:#1f77b4;" x="129.53681" xlink:href="#m7195ce3d4c" y="257.080615"/>
     <use style="fill:#1f77b4;stroke:#1f77b4;" x="133.356275" xlink:href="#m7195ce3d4c" y="257.080615"/>
     <use style="fill:#1f77b4;stroke:#1f77b4;" x="137.17574" xlink:href="#m7195ce3d4c" y="255.012923"/>
     <use style="fill:#1f77b4;stroke:#1f77b4;" x="140.995206" xlink:href="#m7195ce3d4c" y="261.216"/>
     <use style="fill:#1f77b4;stroke:#1f77b4;" x="144.814671" xlink:href="#m7195ce3d4c" y="259.148308"/>
     <use style="fill:#1f77b4;stroke:#1f77b4;" x="148.634136" xlink:href="#m7195ce3d4c" y="257.080615"/>
     <use style="fill:#1f77b4;stroke:#1f77b4;" x="152.453601" xlink:href="#m7195ce3d4c" y="259.148308"/>
     <use style="fill:#1f77b4;stroke:#1f77b4;" x="156.273067" xlink:href="#m7195ce3d4c" y="252.945231"/>
     <use style="fill:#1f77b4;stroke:#1f77b4;" x="160.092532" xlink:href="#m7195ce3d4c" y="255.012923"/>
     <use style="fill:#1f77b4;stroke:#1f77b4;" x="163.911997" xlink:href="#m7195ce3d4c" y="252.945231"/>
     <use style="fill:#1f77b4;stroke:#1f77b4;" x="167.731462" xlink:href="#m7195ce3d4c" y="244.674462"/>
     <use style="fill:#1f77b4;stroke:#1f77b4;" x="171.550927" xlink:href="#m7195ce3d4c" y="250.877538"/>
     <use style="fill:#1f77b4;stroke:#1f77b4;" x="175.370393" xlink:href="#m7195ce3d4c" y="257.080615"/>
     <use style="fill:#1f77b4;stroke:#1f77b4;" x="179.189858" xlink:href="#m7195ce3d4c" y="248.809846"/>
     <use style="fill:#1f77b4;stroke:#1f77b4;" x="183.009323" xlink:href="#m7195ce3d4c" y="250.877538"/>
     <use style="fill:#1f77b4;stroke:#1f77b4;" x="186.828788" xlink:href="#m7195ce3d4c" y="257.080615"/>
     <use style="fill:#1f77b4;stroke:#1f77b4;" x="190.648254" xlink:href="#m7195ce3d4c" y="259.148308"/>
     <use style="fill:#1f77b4;stroke:#1f77b4;" x="194.467719" xlink:href="#m7195ce3d4c" y="244.674462"/>
     <use style="fill:#1f77b4;stroke:#1f77b4;" x="198.287184" xlink:href="#m7195ce3d4c" y="261.216"/>
     <use style="fill:#1f77b4;stroke:#1f77b4;" x="202.106649" xlink:href="#m7195ce3d4c" y="246.742154"/>
     <use style="fill:#1f77b4;stroke:#1f77b4;" x="205.926115" xlink:href="#m7195ce3d4c" y="246.742154"/>
     <use style="fill:#1f77b4;stroke:#1f77b4;" x="209.74558" xlink:href="#m7195ce3d4c" y="242.606769"/>
     <use style="fill:#1f77b4;stroke:#1f77b4;" x="213.565045" xlink:href="#m7195ce3d4c" y="242.606769"/>
     <use style="fill:#1f77b4;stroke:#1f77b4;" x="217.38451" xlink:href="#m7195ce3d4c" y="230.200615"/>
     <use style="fill:#1f77b4;stroke:#1f77b4;" x="221.203976" xlink:href="#m7195ce3d4c" y="238.471385"/>
     <use style="fill:#1f77b4;stroke:#1f77b4;" x="225.023441" xlink:href="#m7195ce3d4c" y="232.268308"/>
     <use style="fill:#1f77b4;stroke:#1f77b4;" x="228.842906" xlink:href="#m7195ce3d4c" y="230.200615"/>
     <use style="fill:#1f77b4;stroke:#1f77b4;" x="232.662371" xlink:href="#m7195ce3d4c" y="215.726769"/>
     <use style="fill:#1f77b4;stroke:#1f77b4;" x="236.481837" xlink:href="#m7195ce3d4c" y="223.997538"/>
     <use style="fill:#1f77b4;stroke:#1f77b4;" x="240.301302" xlink:href="#m7195ce3d4c" y="219.862154"/>
     <use style="fill:#1f77b4;stroke:#1f77b4;" x="244.120767" xlink:href="#m7195ce3d4c" y="213.659077"/>
     <use style="fill:#1f77b4;stroke:#1f77b4;" x="247.940232" xlink:href="#m7195ce3d4c" y="209.523692"/>
     <use style="fill:#1f77b4;stroke:#1f77b4;" x="251.759698" xlink:href="#m7195ce3d4c" y="192.982154"/>
     <use style="fill:#1f77b4;stroke:#1f77b4;" x="255.579163" xlink:href="#m7195ce3d4c" y="199.185231"/>
     <use style="fill:#1f77b4;stroke:#1f77b4;" x="259.398628" xlink:href="#m7195ce3d4c" y="211.591385"/>
     <use style="fill:#1f77b4;stroke:#1f77b4;" x="263.218093" xlink:href="#m7195ce3d4c" y="188.846769"/>
     <use style="fill:#1f77b4;stroke:#1f77b4;" x="267.037558" xlink:href="#m7195ce3d4c" y="211.591385"/>
     <use style="fill:#1f77b4;stroke:#1f77b4;" x="270.857024" xlink:href="#m7195ce3d4c" y="207.456"/>
     <use style="fill:#1f77b4;stroke:#1f77b4;" x="274.676489" xlink:href="#m7195ce3d4c" y="180.576"/>
     <use style="fill:#1f77b4;stroke:#1f77b4;" x="278.495954" xlink:href="#m7195ce3d4c" y="209.523692"/>
     <use style="fill:#1f77b4;stroke:#1f77b4;" x="282.315419" xlink:href="#m7195ce3d4c" y="197.117538"/>
     <use style="fill:#1f77b4;stroke:#1f77b4;" x="286.134885" xlink:href="#m7195ce3d4c" y="203.320615"/>
     <use style="fill:#1f77b4;stroke:#1f77b4;" x="289.95435" xlink:href="#m7195ce3d4c" y="207.456"/>
     <use style="fill:#1f77b4;stroke:#1f77b4;" x="293.773815" xlink:href="#m7195ce3d4c" y="184.711385"/>
     <use style="fill:#1f77b4;stroke:#1f77b4;" x="297.59328" xlink:href="#m7195ce3d4c" y="195.049846"/>
     <use style="fill:#1f77b4;stroke:#1f77b4;" x="301.412746" xlink:href="#m7195ce3d4c" y="172.305231"/>
     <use style="fill:#1f77b4;stroke:#1f77b4;" x="305.232211" xlink:href="#m7195ce3d4c" y="213.659077"/>
     <use style="fill:#1f77b4;stroke:#1f77b4;" x="309.051676" xlink:href="#m7195ce3d4c" y="184.711385"/>
     <use style="fill:#1f77b4;stroke:#1f77b4;" x="312.871141" xlink:href="#m7195ce3d4c" y="199.185231"/>
     <use style="fill:#1f77b4;stroke:#1f77b4;" x="316.690607" xlink:href="#m7195ce3d4c" y="174.372923"/>
     <use style="fill:#1f77b4;stroke:#1f77b4;" x="320.510072" xlink:href="#m7195ce3d4c" y="205.388308"/>
     <use style="fill:#1f77b4;stroke:#1f77b4;" x="324.329537" xlink:href="#m7195ce3d4c" y="197.117538"/>
     <use style="fill:#1f77b4;stroke:#1f77b4;" x="328.149002" xlink:href="#m7195ce3d4c" y="197.117538"/>
     <use style="fill:#1f77b4;stroke:#1f77b4;" x="331.968468" xlink:href="#m7195ce3d4c" y="164.034462"/>
     <use style="fill:#1f77b4;stroke:#1f77b4;" x="335.787933" xlink:href="#m7195ce3d4c" y="176.440615"/>
     <use style="fill:#1f77b4;stroke:#1f77b4;" x="339.607398" xlink:href="#m7195ce3d4c" y="153.696"/>
     <use style="fill:#1f77b4;stroke:#1f77b4;" x="343.426863" xlink:href="#m7195ce3d4c" y="178.508308"/>
     <use style="fill:#1f77b4;stroke:#1f77b4;" x="347.246329" xlink:href="#m7195ce3d4c" y="182.643692"/>
     <use style="fill:#1f77b4;stroke:#1f77b4;" x="351.065794" xlink:href="#m7195ce3d4c" y="192.982154"/>
     <use style="fill:#1f77b4;stroke:#1f77b4;" x="354.885259" xlink:href="#m7195ce3d4c" y="211.591385"/>
     <use style="fill:#1f77b4;stroke:#1f77b4;" x="358.704724" xlink:href="#m7195ce3d4c" y="234.336"/>
     <use style="fill:#1f77b4;stroke:#1f77b4;" x="362.52419" xlink:href="#m7195ce3d4c" y="240.539077"/>
     <use style="fill:#1f77b4;stroke:#1f77b4;" x="366.343655" xlink:href="#m7195ce3d4c" y="255.012923"/>
     <use style="fill:#1f77b4;stroke:#1f77b4;" x="370.16312" xlink:href="#m7195ce3d4c" y="259.148308"/>
     <use style="fill:#1f77b4;stroke:#1f77b4;" x="373.982585" xlink:href="#m7195ce3d4c" y="261.216"/>
    </g>
   </g>
   <g id="line2d_16">
    <path clip-path="url(#p2ed5c42fae)" d="M 49.32804 261.216 
L 53.147505 261.216 
L 56.96697 261.216 
L 60.786435 261.216 
L 64.605901 261.216 
L 68.425366 261.216 
L 72.244831 261.216 
L 76.064296 261.216 
L 79.883762 261.216 
L 83.703227 261.216 
L 87.522692 261.216 
L 91.342157 261.216 
L 95.161623 259.148308 
L 98.981088 261.216 
L 102.800553 261.216 
L 106.620018 261.216 
L 110.439484 261.216 
L 114.258949 261.216 
L 118.078414 261.216 
L 121.897879 261.216 
L 125.717345 261.216 
L 129.53681 259.148308 
L 133.356275 259.148308 
L 137.17574 259.148308 
L 140.995206 261.216 
L 144.814671 255.012923 
L 148.634136 259.148308 
L 152.453601 248.809846 
L 156.273067 257.080615 
L 160.092532 255.012923 
L 163.911997 261.216 
L 167.731462 261.216 
L 171.550927 255.012923 
L 175.370393 255.012923 
L 179.189858 261.216 
L 183.009323 259.148308 
L 186.828788 261.216 
L 190.648254 261.216 
L 194.467719 257.080615 
L 198.287184 259.148308 
L 202.106649 261.216 
L 205.926115 252.945231 
L 209.74558 244.674462 
L 213.565045 236.403692 
L 217.38451 248.809846 
L 221.203976 246.742154 
L 225.023441 240.539077 
L 228.842906 242.606769 
L 232.662371 242.606769 
L 236.481837 226.065231 
L 240.301302 207.456 
L 244.120767 240.539077 
L 247.940232 236.403692 
L 251.759698 230.200615 
L 255.579163 226.065231 
L 259.398628 209.523692 
L 263.218093 219.862154 
L 267.037558 244.674462 
L 270.857024 232.268308 
L 274.676489 226.065231 
L 278.495954 219.862154 
L 282.315419 186.779077 
L 286.134885 186.779077 
L 289.95435 145.425231 
L 293.773815 180.576 
L 297.59328 184.711385 
L 301.412746 207.456 
L 305.232211 118.545231 
L 309.051676 143.357538 
L 312.871141 168.169846 
L 316.690607 176.440615 
L 320.510072 151.628308 
L 324.329537 197.117538 
L 328.149002 221.929846 
L 331.968468 166.102154 
L 335.787933 170.237538 
L 339.607398 174.372923 
L 343.426863 159.899077 
L 347.246329 172.305231 
L 351.065794 174.372923 
L 354.885259 182.643692 
L 358.704724 97.868308 
L 362.52419 75.123692 
L 366.343655 46.176 
L 370.16312 19.296 
L 373.982585 81.326769 
" style="fill:none;stroke:#ff7f0e;stroke-linecap:square;stroke-width:1.5;"/>
    <defs>
     <path d="M 0 3 
C 0.795609 3 1.55874 2.683901 2.12132 2.12132 
C 2.683901 1.55874 3 0.795609 3 0 
C 3 -0.795609 2.683901 -1.55874 2.12132 -2.12132 
C 1.55874 -2.683901 0.795609 -3 0 -3 
C -0.795609 -3 -1.55874 -2.683901 -2.12132 -2.12132 
C -2.683901 -1.55874 -3 -0.795609 -3 0 
C -3 0.795609 -2.683901 1.55874 -2.12132 2.12132 
C -1.55874 2.683901 -0.795609 3 0 3 
z
" id="m578163cf32" style="stroke:#ff7f0e;"/>
    </defs>
    <g clip-path="url(#p2ed5c42fae)">
     <use style="fill:#ff7f0e;stroke:#ff7f0e;" x="49.32804" xlink:href="#m578163cf32" y="261.216"/>
     <use style="fill:#ff7f0e;stroke:#ff7f0e;" x="53.147505" xlink:href="#m578163cf32" y="261.216"/>
     <use style="fill:#ff7f0e;stroke:#ff7f0e;" x="56.96697" xlink:href="#m578163cf32" y="261.216"/>
     <use style="fill:#ff7f0e;stroke:#ff7f0e;" x="60.786435" xlink:href="#m578163cf32" y="261.216"/>
     <use style="fill:#ff7f0e;stroke:#ff7f0e;" x="64.605901" xlink:href="#m578163cf32" y="261.216"/>
     <use style="fill:#ff7f0e;stroke:#ff7f0e;" x="68.425366" xlink:href="#m578163cf32" y="261.216"/>
     <use style="fill:#ff7f0e;stroke:#ff7f0e;" x="72.244831" xlink:href="#m578163cf32" y="261.216"/>
     <use style="fill:#ff7f0e;stroke:#ff7f0e;" x="76.064296" xlink:href="#m578163cf32" y="261.216"/>
     <use style="fill:#ff7f0e;stroke:#ff7f0e;" x="79.883762" xlink:href="#m578163cf32" y="261.216"/>
     <use style="fill:#ff7f0e;stroke:#ff7f0e;" x="83.703227" xlink:href="#m578163cf32" y="261.216"/>
     <use style="fill:#ff7f0e;stroke:#ff7f0e;" x="87.522692" xlink:href="#m578163cf32" y="261.216"/>
     <use style="fill:#ff7f0e;stroke:#ff7f0e;" x="91.342157" xlink:href="#m578163cf32" y="261.216"/>
     <use style="fill:#ff7f0e;stroke:#ff7f0e;" x="95.161623" xlink:href="#m578163cf32" y="259.148308"/>
     <use style="fill:#ff7f0e;stroke:#ff7f0e;" x="98.981088" xlink:href="#m578163cf32" y="261.216"/>
     <use style="fill:#ff7f0e;stroke:#ff7f0e;" x="102.800553" xlink:href="#m578163cf32" y="261.216"/>
     <use style="fill:#ff7f0e;stroke:#ff7f0e;" x="106.620018" xlink:href="#m578163cf32" y="261.216"/>
     <use style="fill:#ff7f0e;stroke:#ff7f0e;" x="110.439484" xlink:href="#m578163cf32" y="261.216"/>
     <use style="fill:#ff7f0e;stroke:#ff7f0e;" x="114.258949" xlink:href="#m578163cf32" y="261.216"/>
     <use style="fill:#ff7f0e;stroke:#ff7f0e;" x="118.078414" xlink:href="#m578163cf32" y="261.216"/>
     <use style="fill:#ff7f0e;stroke:#ff7f0e;" x="121.897879" xlink:href="#m578163cf32" y="261.216"/>
     <use style="fill:#ff7f0e;stroke:#ff7f0e;" x="125.717345" xlink:href="#m578163cf32" y="261.216"/>
     <use style="fill:#ff7f0e;stroke:#ff7f0e;" x="129.53681" xlink:href="#m578163cf32" y="259.148308"/>
     <use style="fill:#ff7f0e;stroke:#ff7f0e;" x="133.356275" xlink:href="#m578163cf32" y="259.148308"/>
     <use style="fill:#ff7f0e;stroke:#ff7f0e;" x="137.17574" xlink:href="#m578163cf32" y="259.148308"/>
     <use style="fill:#ff7f0e;stroke:#ff7f0e;" x="140.995206" xlink:href="#m578163cf32" y="261.216"/>
     <use style="fill:#ff7f0e;stroke:#ff7f0e;" x="144.814671" xlink:href="#m578163cf32" y="255.012923"/>
     <use style="fill:#ff7f0e;stroke:#ff7f0e;" x="148.634136" xlink:href="#m578163cf32" y="259.148308"/>
     <use style="fill:#ff7f0e;stroke:#ff7f0e;" x="152.453601" xlink:href="#m578163cf32" y="248.809846"/>
     <use style="fill:#ff7f0e;stroke:#ff7f0e;" x="156.273067" xlink:href="#m578163cf32" y="257.080615"/>
     <use style="fill:#ff7f0e;stroke:#ff7f0e;" x="160.092532" xlink:href="#m578163cf32" y="255.012923"/>
     <use style="fill:#ff7f0e;stroke:#ff7f0e;" x="163.911997" xlink:href="#m578163cf32" y="261.216"/>
     <use style="fill:#ff7f0e;stroke:#ff7f0e;" x="167.731462" xlink:href="#m578163cf32" y="261.216"/>
     <use style="fill:#ff7f0e;stroke:#ff7f0e;" x="171.550927" xlink:href="#m578163cf32" y="255.012923"/>
     <use style="fill:#ff7f0e;stroke:#ff7f0e;" x="175.370393" xlink:href="#m578163cf32" y="255.012923"/>
     <use style="fill:#ff7f0e;stroke:#ff7f0e;" x="179.189858" xlink:href="#m578163cf32" y="261.216"/>
     <use style="fill:#ff7f0e;stroke:#ff7f0e;" x="183.009323" xlink:href="#m578163cf32" y="259.148308"/>
     <use style="fill:#ff7f0e;stroke:#ff7f0e;" x="186.828788" xlink:href="#m578163cf32" y="261.216"/>
     <use style="fill:#ff7f0e;stroke:#ff7f0e;" x="190.648254" xlink:href="#m578163cf32" y="261.216"/>
     <use style="fill:#ff7f0e;stroke:#ff7f0e;" x="194.467719" xlink:href="#m578163cf32" y="257.080615"/>
     <use style="fill:#ff7f0e;stroke:#ff7f0e;" x="198.287184" xlink:href="#m578163cf32" y="259.148308"/>
     <use style="fill:#ff7f0e;stroke:#ff7f0e;" x="202.106649" xlink:href="#m578163cf32" y="261.216"/>
     <use style="fill:#ff7f0e;stroke:#ff7f0e;" x="205.926115" xlink:href="#m578163cf32" y="252.945231"/>
     <use style="fill:#ff7f0e;stroke:#ff7f0e;" x="209.74558" xlink:href="#m578163cf32" y="244.674462"/>
     <use style="fill:#ff7f0e;stroke:#ff7f0e;" x="213.565045" xlink:href="#m578163cf32" y="236.403692"/>
     <use style="fill:#ff7f0e;stroke:#ff7f0e;" x="217.38451" xlink:href="#m578163cf32" y="248.809846"/>
     <use style="fill:#ff7f0e;stroke:#ff7f0e;" x="221.203976" xlink:href="#m578163cf32" y="246.742154"/>
     <use style="fill:#ff7f0e;stroke:#ff7f0e;" x="225.023441" xlink:href="#m578163cf32" y="240.539077"/>
     <use style="fill:#ff7f0e;stroke:#ff7f0e;" x="228.842906" xlink:href="#m578163cf32" y="242.606769"/>
     <use style="fill:#ff7f0e;stroke:#ff7f0e;" x="232.662371" xlink:href="#m578163cf32" y="242.606769"/>
     <use style="fill:#ff7f0e;stroke:#ff7f0e;" x="236.481837" xlink:href="#m578163cf32" y="226.065231"/>
     <use style="fill:#ff7f0e;stroke:#ff7f0e;" x="240.301302" xlink:href="#m578163cf32" y="207.456"/>
     <use style="fill:#ff7f0e;stroke:#ff7f0e;" x="244.120767" xlink:href="#m578163cf32" y="240.539077"/>
     <use style="fill:#ff7f0e;stroke:#ff7f0e;" x="247.940232" xlink:href="#m578163cf32" y="236.403692"/>
     <use style="fill:#ff7f0e;stroke:#ff7f0e;" x="251.759698" xlink:href="#m578163cf32" y="230.200615"/>
     <use style="fill:#ff7f0e;stroke:#ff7f0e;" x="255.579163" xlink:href="#m578163cf32" y="226.065231"/>
     <use style="fill:#ff7f0e;stroke:#ff7f0e;" x="259.398628" xlink:href="#m578163cf32" y="209.523692"/>
     <use style="fill:#ff7f0e;stroke:#ff7f0e;" x="263.218093" xlink:href="#m578163cf32" y="219.862154"/>
     <use style="fill:#ff7f0e;stroke:#ff7f0e;" x="267.037558" xlink:href="#m578163cf32" y="244.674462"/>
     <use style="fill:#ff7f0e;stroke:#ff7f0e;" x="270.857024" xlink:href="#m578163cf32" y="232.268308"/>
     <use style="fill:#ff7f0e;stroke:#ff7f0e;" x="274.676489" xlink:href="#m578163cf32" y="226.065231"/>
     <use style="fill:#ff7f0e;stroke:#ff7f0e;" x="278.495954" xlink:href="#m578163cf32" y="219.862154"/>
     <use style="fill:#ff7f0e;stroke:#ff7f0e;" x="282.315419" xlink:href="#m578163cf32" y="186.779077"/>
     <use style="fill:#ff7f0e;stroke:#ff7f0e;" x="286.134885" xlink:href="#m578163cf32" y="186.779077"/>
     <use style="fill:#ff7f0e;stroke:#ff7f0e;" x="289.95435" xlink:href="#m578163cf32" y="145.425231"/>
     <use style="fill:#ff7f0e;stroke:#ff7f0e;" x="293.773815" xlink:href="#m578163cf32" y="180.576"/>
     <use style="fill:#ff7f0e;stroke:#ff7f0e;" x="297.59328" xlink:href="#m578163cf32" y="184.711385"/>
     <use style="fill:#ff7f0e;stroke:#ff7f0e;" x="301.412746" xlink:href="#m578163cf32" y="207.456"/>
     <use style="fill:#ff7f0e;stroke:#ff7f0e;" x="305.232211" xlink:href="#m578163cf32" y="118.545231"/>
     <use style="fill:#ff7f0e;stroke:#ff7f0e;" x="309.051676" xlink:href="#m578163cf32" y="143.357538"/>
     <use style="fill:#ff7f0e;stroke:#ff7f0e;" x="312.871141" xlink:href="#m578163cf32" y="168.169846"/>
     <use style="fill:#ff7f0e;stroke:#ff7f0e;" x="316.690607" xlink:href="#m578163cf32" y="176.440615"/>
     <use style="fill:#ff7f0e;stroke:#ff7f0e;" x="320.510072" xlink:href="#m578163cf32" y="151.628308"/>
     <use style="fill:#ff7f0e;stroke:#ff7f0e;" x="324.329537" xlink:href="#m578163cf32" y="197.117538"/>
     <use style="fill:#ff7f0e;stroke:#ff7f0e;" x="328.149002" xlink:href="#m578163cf32" y="221.929846"/>
     <use style="fill:#ff7f0e;stroke:#ff7f0e;" x="331.968468" xlink:href="#m578163cf32" y="166.102154"/>
     <use style="fill:#ff7f0e;stroke:#ff7f0e;" x="335.787933" xlink:href="#m578163cf32" y="170.237538"/>
     <use style="fill:#ff7f0e;stroke:#ff7f0e;" x="339.607398" xlink:href="#m578163cf32" y="174.372923"/>
     <use style="fill:#ff7f0e;stroke:#ff7f0e;" x="343.426863" xlink:href="#m578163cf32" y="159.899077"/>
     <use style="fill:#ff7f0e;stroke:#ff7f0e;" x="347.246329" xlink:href="#m578163cf32" y="172.305231"/>
     <use style="fill:#ff7f0e;stroke:#ff7f0e;" x="351.065794" xlink:href="#m578163cf32" y="174.372923"/>
     <use style="fill:#ff7f0e;stroke:#ff7f0e;" x="354.885259" xlink:href="#m578163cf32" y="182.643692"/>
     <use style="fill:#ff7f0e;stroke:#ff7f0e;" x="358.704724" xlink:href="#m578163cf32" y="97.868308"/>
     <use style="fill:#ff7f0e;stroke:#ff7f0e;" x="362.52419" xlink:href="#m578163cf32" y="75.123692"/>
     <use style="fill:#ff7f0e;stroke:#ff7f0e;" x="366.343655" xlink:href="#m578163cf32" y="46.176"/>
     <use style="fill:#ff7f0e;stroke:#ff7f0e;" x="370.16312" xlink:href="#m578163cf32" y="19.296"/>
     <use style="fill:#ff7f0e;stroke:#ff7f0e;" x="373.982585" xlink:href="#m578163cf32" y="81.326769"/>
    </g>
   </g>
   <g id="patch_3">
    <path d="M 33.095313 273.312 
L 33.095313 7.2 
" style="fill:none;stroke:#000000;stroke-linecap:square;stroke-linejoin:miter;stroke-width:0.8;"/>
   </g>
   <g id="patch_4">
    <path d="M 390.215312 273.312 
L 390.215312 7.2 
" style="fill:none;stroke:#000000;stroke-linecap:square;stroke-linejoin:miter;stroke-width:0.8;"/>
   </g>
   <g id="patch_5">
    <path d="M 33.095312 273.312 
L 390.215313 273.312 
" style="fill:none;stroke:#000000;stroke-linecap:square;stroke-linejoin:miter;stroke-width:0.8;"/>
   </g>
   <g id="patch_6">
    <path d="M 33.095312 7.2 
L 390.215313 7.2 
" style="fill:none;stroke:#000000;stroke-linecap:square;stroke-linejoin:miter;stroke-width:0.8;"/>
   </g>
   <g id="legend_1">
    <g id="patch_7">
     <path d="M 40.095313 45.353125 
L 159.078125 45.353125 
Q 161.078125 45.353125 161.078125 43.353125 
L 161.078125 14.2 
Q 161.078125 12.2 159.078125 12.2 
L 40.095313 12.2 
Q 38.095313 12.2 38.095313 14.2 
L 38.095313 43.353125 
Q 38.095313 45.353125 40.095313 45.353125 
z
" style="fill:#ffffff;opacity:0.8;stroke:#cccccc;stroke-linejoin:miter;"/>
    </g>
    <g id="line2d_17">
     <path d="M 42.095313 20.820312 
L 62.095313 20.820312 
" style="fill:none;stroke:#1f77b4;stroke-linecap:square;stroke-width:1.5;"/>
    </g>
    <g id="line2d_18">
     <g>
      <use style="fill:#1f77b4;stroke:#1f77b4;" x="52.095313" xlink:href="#m7195ce3d4c" y="20.820312"/>
     </g>
    </g>
    <g id="text_16">
     <!-- 発症日 (onset) -->
     <defs>
      <path d="M 73.734375 56.84375 
Q 80.609375 62.75 85.203125 68.609375 
L 91.109375 64.40625 
Q 84.46875 57.8125 78.71875 53.328125 
Q 85.9375 48.6875 95.40625 44.625 
L 90.625 38.375 
Q 81.734375 42.78125 73.53125 48.640625 
L 73.53125 43.3125 
L 64.109375 43.3125 
L 64.109375 29.984375 
L 89.890625 29.984375 
L 89.890625 23.78125 
L 64.109375 23.78125 
L 64.109375 5.609375 
Q 64.109375 2.484375 65.71875 2.046875 
Q 67.390625 1.46875 73.09375 1.46875 
Q 82.125 1.46875 83.59375 2.984375 
Q 85.0625 4.4375 85.5 11.96875 
Q 85.5 13.484375 85.59375 14.0625 
L 92.625 11.578125 
Q 92.1875 0.390625 89.703125 -2.203125 
Q 87.0625 -5.328125 72.609375 -5.328125 
Q 63.8125 -5.328125 60.9375 -4 
Q 57.03125 -2.34375 57.03125 3.328125 
L 57.03125 23.78125 
L 42.578125 23.78125 
Q 40.1875 0.53125 11.078125 -7.421875 
L 7.28125 -0.984375 
Q 33.25 5.421875 35.5 23.78125 
L 10.015625 23.78125 
L 10.015625 29.984375 
L 35.796875 29.984375 
L 35.796875 43.3125 
L 27.78125 43.3125 
L 27.78125 47.015625 
Q 19.734375 41.359375 9.078125 36.1875 
L 4.5 42.1875 
Q 16.3125 46.734375 25.984375 53.8125 
Q 19.828125 60.15625 13.484375 64.59375 
L 18.609375 69.140625 
Q 26.515625 62.59375 31.109375 58.015625 
Q 38.03125 64.0625 43.171875 72.125 
L 20.0625 72.125 
L 20.0625 78.21875 
L 54 78.21875 
Q 58.203125 71.34375 62.890625 66.3125 
Q 69.09375 71.625 74.03125 77.9375 
L 79.828125 73.734375 
Q 74.171875 67.625 67.09375 62.203125 
Q 70.40625 59.078125 73.734375 56.84375 
z
M 57.03125 43.3125 
L 42.78125 43.3125 
L 42.78125 29.984375 
L 57.03125 29.984375 
z
M 30.90625 49.3125 
L 72.515625 49.3125 
Q 58.6875 59.28125 50.59375 71 
Q 43.21875 58.890625 30.90625 49.3125 
z
" id="IPAexGothic-30330"/>
      <path d="M 63.71875 2.875 
L 95.015625 2.875 
L 95.015625 -3.515625 
L 23.96875 -3.515625 
L 23.96875 2.875 
L 37.3125 2.875 
L 37.3125 38.28125 
L 44 38.28125 
L 44 2.875 
L 56.84375 2.875 
L 56.84375 46.578125 
L 30.515625 46.578125 
L 30.515625 52.78125 
L 90.046875 52.78125 
L 90.046875 46.578125 
L 63.71875 46.578125 
L 63.71875 29.203125 
L 87.796875 29.203125 
L 87.796875 23.09375 
L 63.71875 23.09375 
z
M 60.203125 70.515625 
L 93.890625 70.515625 
L 93.890625 64.109375 
L 27.296875 64.109375 
L 27.296875 41.40625 
Q 27.296875 23.140625 24.21875 12.203125 
Q 21.390625 2.25 14.59375 -6.203125 
L 9.625 -1.171875 
Q 18.75 10.359375 20.125 27.484375 
Q 15.4375 24.125 7.078125 19.734375 
L 4 26.609375 
Q 12.3125 29.59375 20.40625 34.328125 
L 20.40625 37.890625 
L 20.40625 70.515625 
L 52.78125 70.515625 
L 52.78125 81.984375 
L 60.203125 81.984375 
z
M 12.015625 40.375 
Q 8.890625 50.78125 5.421875 57.90625 
L 11.375 60.59375 
Q 15.234375 53.859375 18.40625 43.703125 
z
" id="IPAexGothic-30151"/>
      <path d="M 81.734375 75 
L 81.734375 -4.5 
L 74.125 -4.5 
L 74.125 2 
L 25.734375 2 
L 25.734375 -4.5 
L 18.109375 -4.5 
L 18.109375 75 
z
M 25.734375 68.3125 
L 25.734375 42.671875 
L 74.125 42.671875 
L 74.125 68.3125 
z
M 25.734375 35.890625 
L 25.734375 8.6875 
L 74.125 8.6875 
L 74.125 35.890625 
z
" id="IPAexGothic-26085"/>
      <path id="IPAexGothic-32"/>
      <path d="M 30.125 -15.875 
L 25.828125 -18.21875 
Q 7.625 1.078125 7.625 29.296875 
Q 7.625 57.46875 25.828125 76.703125 
L 30.125 74.421875 
Q 15.71875 55.03125 15.71875 29.390625 
Q 15.71875 3.171875 30.125 -15.875 
z
" id="IPAexGothic-40"/>
      <path d="M 29.984375 52.203125 
Q 40.53125 52.203125 47.75 45.125 
Q 55.171875 37.703125 55.171875 25.59375 
Q 55.171875 13.875 47.90625 6.59375 
Q 40.765625 -0.484375 29.984375 -0.484375 
Q 19.1875 -0.484375 12.203125 6.5 
Q 4.890625 13.765625 4.890625 25.875 
Q 4.890625 37.703125 12.3125 45.125 
Q 19.390625 52.203125 29.984375 52.203125 
z
M 29.984375 45.609375 
Q 23.734375 45.609375 19.390625 41.109375 
Q 13.875 35.59375 13.875 25.78125 
Q 13.875 16.109375 19.28125 10.6875 
Q 23.6875 6.296875 29.984375 6.296875 
Q 36.421875 6.296875 40.765625 10.796875 
Q 46.1875 16.21875 46.1875 26.125 
Q 46.1875 35.453125 40.671875 41.109375 
Q 36.1875 45.609375 29.984375 45.609375 
z
" id="IPAexGothic-111"/>
      <path d="M 34.90625 39.796875 
Q 30.28125 45.796875 23.1875 45.796875 
Q 13.921875 45.796875 13.921875 38.671875 
Q 13.921875 33.640625 23.921875 30.375 
L 27.203125 29.296875 
Q 41.40625 24.65625 41.40625 13.96875 
Q 41.40625 6.78125 35.5 2.6875 
Q 30.8125 -0.484375 23.390625 -0.484375 
Q 11.96875 -0.484375 4 7.859375 
L 9.421875 12.796875 
Q 15.578125 6.203125 23.6875 6.203125 
Q 33.296875 6.203125 33.296875 13.671875 
Q 33.296875 19.34375 22.703125 23.09375 
L 19.28125 24.265625 
Q 5.90625 28.953125 5.90625 37.984375 
Q 5.90625 43.703125 9.8125 47.609375 
Q 14.5 52.296875 22.703125 52.296875 
Q 33.6875 52.296875 40.71875 44.671875 
z
" id="IPAexGothic-115"/>
      <path d="M 33.203125 3.765625 
Q 27.640625 -0.09375 21.828125 -0.09375 
Q 10.203125 -0.09375 10.203125 12.984375 
L 10.203125 44.671875 
L 3.421875 44.671875 
L 3.421875 50.78125 
L 10.203125 50.78125 
L 10.203125 61.96875 
L 18.40625 66.0625 
L 18.40625 50.78125 
L 32.234375 50.78125 
L 32.234375 44.671875 
L 18.40625 44.671875 
L 18.40625 14.15625 
Q 18.40625 6.5 23.640625 6.5 
Q 27.15625 6.5 30.328125 9.1875 
z
" id="IPAexGothic-116"/>
      <path d="M 7.28125 76.703125 
Q 25.59375 57.375 25.59375 29.296875 
Q 25.59375 1.171875 7.28125 -18.21875 
L 2.984375 -15.875 
Q 17.484375 3.375 17.484375 29.390625 
Q 17.484375 54.828125 2.984375 74.421875 
z
" id="IPAexGothic-41"/>
     </defs>
     <g transform="translate(70.095313 24.320312)scale(0.1 -0.1)">
      <use xlink:href="#IPAexGothic-30330"/>
      <use x="100" xlink:href="#IPAexGothic-30151"/>
      <use x="200" xlink:href="#IPAexGothic-26085"/>
      <use x="300" xlink:href="#IPAexGothic-32"/>
      <use x="327.001953" xlink:href="#IPAexGothic-40"/>
      <use x="360.302734" xlink:href="#IPAexGothic-111"/>
      <use x="420.703125" xlink:href="#IPAexGothic-110"/>
      <use x="481.103516" xlink:href="#IPAexGothic-115"/>
      <use x="527.294922" xlink:href="#IPAexGothic-101"/>
      <use x="584.179688" xlink:href="#IPAexGothic-116"/>
      <use x="618.798828" xlink:href="#IPAexGothic-41"/>
     </g>
    </g>
    <g id="line2d_19">
     <path d="M 42.095313 35.953125 
L 62.095313 35.953125 
" style="fill:none;stroke:#ff7f0e;stroke-linecap:square;stroke-width:1.5;"/>
    </g>
    <g id="line2d_20">
     <g>
      <use style="fill:#ff7f0e;stroke:#ff7f0e;" x="52.095313" xlink:href="#m578163cf32" y="35.953125"/>
     </g>
    </g>
    <g id="text_17">
     <!-- 確定日 (confirmed) -->
     <defs>
      <path d="M 67.921875 50.296875 
Q 70.5625 55.28125 72.609375 61.8125 
L 79.296875 60.203125 
Q 76.171875 53.609375 74.21875 50.296875 
L 92 50.296875 
L 92 44.484375 
L 73.4375 44.484375 
L 73.4375 34.71875 
L 89.703125 34.71875 
L 89.703125 29.203125 
L 73.4375 29.203125 
L 73.4375 19.53125 
L 89.703125 19.53125 
L 89.703125 14.015625 
L 73.4375 14.015625 
L 73.4375 3.609375 
L 94.28125 3.609375 
L 94.28125 -2.203125 
L 54.109375 -2.203125 
L 54.109375 -6.984375 
L 47.609375 -6.984375 
L 47.609375 38.1875 
Q 43.0625 31.546875 38.8125 26.609375 
L 35.6875 32.8125 
Q 49.359375 49.953125 54.78125 64.796875 
L 45.515625 64.796875 
L 45.515625 53.515625 
L 39.203125 53.515625 
L 39.203125 70.609375 
L 56.78125 70.609375 
Q 58.59375 76.609375 60.109375 83.109375 
L 66.703125 81.890625 
Q 65.234375 75.53125 63.625 70.609375 
L 92.71875 70.609375 
L 92.71875 53.515625 
L 86.328125 53.515625 
L 86.328125 64.796875 
L 61.53125 64.796875 
Q 58.546875 56.984375 54.890625 50.296875 
z
M 67.140625 44.484375 
L 54.109375 44.484375 
L 54.109375 34.71875 
L 67.140625 34.71875 
z
M 67.140625 29.203125 
L 54.109375 29.203125 
L 54.109375 19.53125 
L 67.140625 19.53125 
z
M 67.140625 14.015625 
L 54.109375 14.015625 
L 54.109375 3.609375 
L 67.140625 3.609375 
z
M 18.109375 46 
L 35.546875 46 
L 35.546875 3.078125 
L 18.953125 3.078125 
L 18.953125 -5.125 
L 12.75 -5.125 
L 12.75 34.46875 
Q 10.15625 29.734375 6.15625 23.78125 
L 2.9375 29.984375 
Q 14.546875 47.078125 18.75 69 
L 6.34375 69 
L 6.34375 75.296875 
L 37.640625 75.296875 
L 37.640625 69 
L 25.25 69 
L 24.953125 68.015625 
Q 22.75 57.234375 18.109375 46 
z
M 18.953125 39.890625 
L 18.953125 9.1875 
L 29.34375 9.1875 
L 29.34375 39.890625 
z
" id="IPAexGothic-30906"/>
      <path d="M 53.609375 4.734375 
Q 61.421875 3.515625 73.578125 3.515625 
Q 81.109375 3.515625 94.578125 4.109375 
Q 93.171875 0.921875 92 -3.5625 
Q 81.78125 -3.90625 75.6875 -3.90625 
Q 55.765625 -3.90625 46.921875 -1.21875 
Q 35.296875 2.390625 27.34375 14.109375 
Q 22.515625 2.546875 12.59375 -7.171875 
L 7.421875 -1.171875 
Q 22.125 11.859375 26.3125 37.796875 
L 33.203125 35.984375 
Q 31.734375 27.4375 29.828125 21.1875 
Q 36.53125 10.59375 46.4375 6.5 
L 46.4375 46 
L 22.40625 46 
L 22.40625 52.390625 
L 77.484375 52.390625 
L 77.484375 46 
L 53.609375 46 
L 53.609375 31 
L 84.328125 31 
L 84.328125 24.515625 
L 53.609375 24.515625 
z
M 53.421875 69.1875 
L 89.84375 69.1875 
L 89.84375 49.46875 
L 82.421875 49.46875 
L 82.421875 62.890625 
L 17.53125 62.890625 
L 17.53125 49.46875 
L 10.109375 49.46875 
L 10.109375 69.1875 
L 45.90625 69.1875 
L 45.90625 83.015625 
L 53.421875 83.015625 
z
" id="IPAexGothic-23450"/>
      <path d="M 51.078125 12.25 
Q 44.28125 -0.484375 29.6875 -0.484375 
Q 19.1875 -0.484375 12.3125 6.390625 
Q 4.890625 13.921875 4.890625 25.984375 
Q 4.890625 37.9375 12.3125 45.515625 
Q 19.09375 52.296875 29.390625 52.296875 
Q 43.953125 52.296875 50.09375 39.703125 
L 43.171875 36.078125 
Q 38.8125 45.3125 29.6875 45.3125 
Q 23.6875 45.3125 19.28125 40.921875 
Q 13.765625 35.40625 13.765625 25.78125 
Q 13.765625 16.703125 19.09375 11.375 
Q 23.78125 6.6875 30.5625 6.6875 
Q 39.796875 6.6875 44.484375 15.875 
z
" id="IPAexGothic-99"/>
      <path d="M 38.375 72.21875 
L 34.8125 66.3125 
Q 31.109375 69.09375 27.203125 69.09375 
Q 18.5 69.09375 18.5 57.375 
L 18.5 50.78125 
L 32.078125 50.78125 
L 32.078125 44.671875 
L 18.5 44.671875 
L 18.5 0.984375 
L 10.015625 0.984375 
L 10.015625 44.671875 
L 1.90625 44.671875 
L 1.90625 50.78125 
L 10.015625 50.78125 
L 10.015625 57.171875 
Q 10.015625 65.4375 13.921875 70.0625 
Q 18.75 75.6875 26.703125 75.6875 
Q 33.0625 75.6875 38.375 72.21875 
z
" id="IPAexGothic-102"/>
      <path d="M 18.40625 61.375 
L 8.59375 61.375 
L 8.59375 71.390625 
L 18.40625 71.390625 
z
M 17.78125 0.984375 
L 9.1875 0.984375 
L 9.1875 50.78125 
L 17.78125 50.78125 
z
" id="IPAexGothic-105"/>
      <path d="M 78.46875 0.984375 
L 69.875 0.984375 
L 69.875 32.171875 
Q 69.875 44.828125 60.109375 44.828125 
Q 55.46875 44.828125 51.609375 40.53125 
Q 48.875 37.453125 47.796875 32.859375 
L 47.796875 0.984375 
L 39.203125 0.984375 
L 39.203125 32.28125 
Q 39.203125 44.828125 29.984375 44.828125 
Q 25.09375 44.828125 21.390625 40.53125 
Q 17.390625 36.03125 17.390625 31.890625 
L 17.390625 0.984375 
L 8.796875 0.984375 
L 8.796875 50.78125 
L 16.796875 50.78125 
L 16.796875 42.1875 
Q 21.734375 51.8125 31.6875 51.8125 
Q 42.578125 51.8125 46.1875 41.359375 
Q 51.609375 51.8125 61.765625 51.8125 
Q 69.96875 51.8125 74.5625 46 
Q 78.46875 41.21875 78.46875 32.375 
z
" id="IPAexGothic-109"/>
      <path d="M 52.984375 0.984375 
L 45.171875 0.984375 
L 45.171875 9.671875 
Q 38.140625 -0.484375 27.390625 -0.484375 
Q 18.453125 -0.484375 12.3125 5.8125 
Q 4.890625 13.1875 4.890625 25.984375 
Q 4.890625 38.53125 12.0625 45.90625 
Q 18.265625 52.203125 27.390625 52.203125 
Q 37.25 52.203125 44.484375 43.890625 
L 44.484375 74.90625 
L 52.984375 74.90625 
z
M 44.484375 20.359375 
L 44.484375 32.765625 
Q 44.484375 37.703125 38.375 42.28125 
Q 34.078125 45.40625 28.953125 45.40625 
Q 23.1875 45.40625 19.1875 41.40625 
Q 13.875 36.078125 13.875 26.21875 
Q 13.875 17.328125 18.265625 11.71875 
Q 22.515625 6.390625 28.859375 6.390625 
Q 36.28125 6.390625 41.5 13.671875 
Q 44.484375 17.71875 44.484375 20.359375 
z
" id="IPAexGothic-100"/>
     </defs>
     <g transform="translate(70.095313 39.453125)scale(0.1 -0.1)">
      <use xlink:href="#IPAexGothic-30906"/>
      <use x="100" xlink:href="#IPAexGothic-23450"/>
      <use x="200" xlink:href="#IPAexGothic-26085"/>
      <use x="300" xlink:href="#IPAexGothic-32"/>
      <use x="327.001953" xlink:href="#IPAexGothic-40"/>
      <use x="360.302734" xlink:href="#IPAexGothic-99"/>
      <use x="414.697266" xlink:href="#IPAexGothic-111"/>
      <use x="475.097656" xlink:href="#IPAexGothic-110"/>
      <use x="535.498047" xlink:href="#IPAexGothic-102"/>
      <use x="566.113281" xlink:href="#IPAexGothic-105"/>
      <use x="593.115234" xlink:href="#IPAexGothic-114"/>
      <use x="630.126953" xlink:href="#IPAexGothic-109"/>
      <use x="717.236328" xlink:href="#IPAexGothic-101"/>
      <use x="774.121094" xlink:href="#IPAexGothic-100"/>
      <use x="836.523438" xlink:href="#IPAexGothic-41"/>
     </g>
    </g>
   </g>
  </g>
 </g>
 <defs>
  <clipPath id="p2ed5c42fae">
   <rect height="266.112" width="357.12" x="33.095313" y="7.2"/>
  </clipPath>
 </defs>
</svg>
