<?xml version="1.0" encoding="utf-8" standalone="no"?>
<!DOCTYPE svg PUBLIC "-//W3C//DTD SVG 1.1//EN"
  "http://www.w3.org/Graphics/SVG/1.1/DTD/svg11.dtd">
<!-- Created with matplotlib (https://matplotlib.org/) -->
<svg height="320.239875pt" version="1.1" viewBox="0 0 403.71375 320.239875" width="403.71375pt" xmlns="http://www.w3.org/2000/svg" xmlns:xlink="http://www.w3.org/1999/xlink">
 <metadata>
  <rdf:RDF xmlns:cc="http://creativecommons.org/ns#" xmlns:dc="http://purl.org/dc/elements/1.1/" xmlns:rdf="http://www.w3.org/1999/02/22-rdf-syntax-ns#">
   <cc:Work>
    <dc:type rdf:resource="http://purl.org/dc/dcmitype/StillImage"/>
    <dc:date>2020-08-01T20:17:15.846896</dc:date>
    <dc:format>image/svg+xml</dc:format>
    <dc:creator>
     <cc:Agent>
      <dc:title>Matplotlib v3.3.0, https://matplotlib.org/</dc:title>
     </cc:Agent>
    </dc:creator>
   </cc:Work>
  </rdf:RDF>
 </metadata>
 <defs>
  <style type="text/css">*{stroke-linecap:butt;stroke-linejoin:round;}</style>
 </defs>
 <g id="figure_1">
  <g id="patch_1">
   <path d="M 0 320.239875 
L 403.71375 320.239875 
L 403.71375 0 
L 0 0 
z
" style="fill:#ffffff;"/>
  </g>
  <g id="axes_1">
   <g id="patch_2">
    <path d="M 39.39375 284.258625 
L 396.51375 284.258625 
L 396.51375 18.146625 
L 39.39375 18.146625 
z
" style="fill:#ffffff;"/>
   </g>
   <g id="matplotlib.axis_1">
    <g id="xtick_1">
     <g id="line2d_1">
      <defs>
       <path d="M 0 0 
L 0 3.5 
" id="m75cec260dc" style="stroke:#000000;stroke-width:0.8;"/>
      </defs>
      <g>
       <use style="stroke:#000000;stroke-width:0.8;" x="52.549183" xlink:href="#m75cec260dc" y="284.258625"/>
      </g>
     </g>
     <g id="text_1">
      <!-- 2020 -->
      <g transform="translate(39.952308 298.74925)scale(0.1 -0.1)">
       <defs>
        <path d="M 57.171875 0.984375 
L 6.984375 0.984375 
L 6.984375 9.28125 
Q 12.890625 23.046875 29.59375 34.421875 
L 32.375 36.28125 
Q 40.921875 42.140625 43.609375 45.40625 
Q 46.6875 49.265625 46.6875 53.8125 
Q 46.6875 58.9375 43.0625 62.546875 
Q 39.0625 66.546875 32.5625 66.546875 
Q 19.53125 66.546875 15.484375 52 
L 7.765625 54.78125 
Q 13.328125 73.828125 33.0625 73.828125 
Q 43.84375 73.828125 50.25 67.4375 
Q 55.859375 61.671875 55.859375 53.515625 
Q 55.859375 47.46875 52.25 42.53125 
Q 48.921875 37.75 36.96875 30.28125 
L 34.859375 29 
Q 19.625 19.578125 15.28125 8.890625 
L 57.171875 8.890625 
z
" id="IPAexGothic-50"/>
        <path d="M 31.84375 73.828125 
Q 45.015625 73.828125 52.09375 61.625 
Q 57.71875 51.953125 57.71875 36.625 
Q 57.71875 21.4375 52.09375 11.578125 
Q 45.125 -0.484375 31.5 -0.484375 
Q 17.921875 -0.484375 10.9375 11.578125 
Q 5.328125 21.4375 5.328125 36.71875 
Q 5.328125 58.015625 15.625 67.71875 
Q 22.171875 73.828125 31.84375 73.828125 
z
M 31.5 66.65625 
Q 23.6875 66.65625 19.1875 58.734375 
Q 14.59375 50.734375 14.59375 36.625 
Q 14.59375 22.75 19.09375 14.796875 
Q 23.640625 6.984375 31.5 6.984375 
Q 40.921875 6.984375 45.453125 18.015625 
Q 48.4375 25.34375 48.4375 37.109375 
Q 48.4375 50.875 43.84375 58.734375 
Q 39.203125 66.65625 31.5 66.65625 
z
" id="IPAexGothic-48"/>
       </defs>
       <use xlink:href="#IPAexGothic-50"/>
       <use x="62.988281" xlink:href="#IPAexGothic-48"/>
       <use x="125.976562" xlink:href="#IPAexGothic-50"/>
       <use x="188.964844" xlink:href="#IPAexGothic-48"/>
      </g>
     </g>
    </g>
    <g id="xtick_2">
     <g id="line2d_2">
      <g>
       <use style="stroke:#000000;stroke-width:0.8;" x="100.247244" xlink:href="#m75cec260dc" y="284.258625"/>
      </g>
     </g>
     <g id="text_2">
      <!-- Feb -->
      <g transform="translate(91.423807 298.74925)scale(0.1 -0.1)">
       <defs>
        <path d="M 54.203125 64.703125 
L 18.3125 64.703125 
L 18.3125 41.5 
L 50.09375 41.5 
L 50.09375 34.1875 
L 18.3125 34.1875 
L 18.3125 0.984375 
L 9.515625 0.984375 
L 9.515625 72.40625 
L 54.203125 72.40625 
z
" id="IPAexGothic-70"/>
        <path d="M 13.484375 24.90625 
Q 13.921875 16.265625 18.890625 11.28125 
Q 23.96875 6.203125 31.203125 6.203125 
Q 40.71875 6.203125 46.296875 15.09375 
L 51.90625 11.375 
Q 44.828125 -0.484375 30.171875 -0.484375 
Q 19.09375 -0.484375 11.96875 6.59375 
Q 4.78125 13.8125 4.78125 25.640625 
Q 4.78125 38.1875 12.3125 45.703125 
Q 19 52.390625 29 52.390625 
Q 38.421875 52.390625 44.78125 46.1875 
Q 51.90625 38.96875 51.90625 26.90625 
L 51.90625 24.90625 
z
M 43.0625 31.203125 
Q 42.328125 37.984375 38.28125 41.890625 
Q 34.28125 45.90625 28.8125 45.90625 
Q 22.46875 45.90625 17.96875 40.484375 
Q 14.890625 36.8125 13.96875 31.203125 
z
" id="IPAexGothic-101"/>
        <path d="M 17.578125 42.671875 
Q 24.21875 52.203125 34.671875 52.203125 
Q 43.5625 52.203125 49.859375 45.90625 
Q 57.171875 38.578125 57.171875 25.6875 
Q 57.171875 13.09375 49.859375 5.8125 
Q 43.5625 -0.484375 34.46875 -0.484375 
Q 24.359375 -0.484375 17 8.0625 
L 15.765625 0.6875 
L 9.078125 0.6875 
L 9.078125 74.90625 
L 17.578125 74.90625 
z
M 17.578125 31.203125 
L 17.578125 19.578125 
Q 17.578125 13.875 23.875 9.375 
Q 28.171875 6.296875 33.109375 6.296875 
Q 38.875 6.296875 42.875 10.296875 
Q 48.1875 15.765625 48.1875 25.484375 
Q 48.1875 34.28125 43.796875 39.890625 
Q 39.453125 45.3125 33.203125 45.3125 
Q 27.484375 45.3125 22.46875 40.28125 
Q 17.578125 35.40625 17.578125 31.203125 
z
" id="IPAexGothic-98"/>
       </defs>
       <use xlink:href="#IPAexGothic-70"/>
       <use x="57.177734" xlink:href="#IPAexGothic-101"/>
       <use x="114.0625" xlink:href="#IPAexGothic-98"/>
      </g>
     </g>
    </g>
    <g id="xtick_3">
     <g id="line2d_3">
      <g>
       <use style="stroke:#000000;stroke-width:0.8;" x="144.868011" xlink:href="#m75cec260dc" y="284.258625"/>
      </g>
     </g>
     <g id="text_3">
      <!-- Mar -->
      <g transform="translate(135.758636 298.74925)scale(0.1 -0.1)">
       <defs>
        <path d="M 80.421875 0.984375 
L 71.828125 0.984375 
L 71.828125 39.59375 
Q 71.828125 51.265625 72.40625 64.59375 
L 72.015625 64.59375 
Q 68.0625 53.265625 63.53125 41.796875 
L 47.90625 3.265625 
L 41.40625 3.265625 
L 25.640625 42.578125 
Q 20.75 54.78125 17.625 64.703125 
L 17.234375 64.703125 
Q 17.828125 48.921875 17.828125 39.890625 
L 17.828125 0.984375 
L 9.515625 0.984375 
L 9.515625 72.40625 
L 22.125 72.40625 
L 39.109375 30.375 
Q 42.140625 23 44.828125 14.15625 
L 45.125 14.15625 
Q 47.3125 22.125 50.53125 30.171875 
L 67.4375 72.40625 
L 80.421875 72.40625 
z
" id="IPAexGothic-77"/>
        <path d="M 49.3125 0.984375 
L 41.75 0.984375 
Q 39.984375 4.734375 39.546875 8.6875 
L 39.203125 8.6875 
Q 33.546875 -0.390625 22.3125 -0.390625 
Q 14.59375 -0.390625 9.71875 4.5 
Q 5.421875 8.796875 5.421875 14.984375 
Q 5.421875 30.421875 32.03125 31.203125 
L 38.71875 31.390625 
L 38.71875 33.984375 
Q 38.71875 39.203125 35.75 42.1875 
Q 32.625 45.3125 27.734375 45.3125 
Q 19.34375 45.3125 15.140625 37.15625 
L 7.71875 40.578125 
Q 14.65625 52 27.9375 52 
Q 37.109375 52 42.046875 46.875 
Q 46.625 42.28125 46.625 33.890625 
L 46.625 15.578125 
Q 46.625 6.25 49.3125 0.984375 
z
M 38.921875 25.390625 
L 33.453125 25.296875 
Q 14.109375 24.859375 14.109375 14.890625 
Q 14.109375 11.375 16.40625 9.078125 
Q 19.234375 6.296875 23.828125 6.296875 
Q 30.21875 6.296875 34.90625 10.984375 
Q 38.921875 15.140625 38.921875 21 
z
" id="IPAexGothic-97"/>
        <path d="M 36.078125 51.8125 
L 34.578125 43.265625 
Q 32.90625 43.609375 31.59375 43.609375 
Q 25.828125 43.609375 22.078125 38.1875 
Q 17.390625 31.34375 17.390625 26.171875 
L 17.390625 0.984375 
L 8.796875 0.984375 
L 8.796875 50.78125 
L 16.890625 50.78125 
L 16.5 35.984375 
L 16.703125 35.984375 
Q 22.21875 52.203125 32.765625 52.203125 
Q 34.46875 52.203125 36.078125 51.8125 
z
" id="IPAexGothic-114"/>
       </defs>
       <use xlink:href="#IPAexGothic-77"/>
       <use x="90.185547" xlink:href="#IPAexGothic-97"/>
       <use x="145.166016" xlink:href="#IPAexGothic-114"/>
      </g>
     </g>
    </g>
    <g id="xtick_4">
     <g id="line2d_4">
      <g>
       <use style="stroke:#000000;stroke-width:0.8;" x="192.566072" xlink:href="#m75cec260dc" y="284.258625"/>
      </g>
     </g>
     <g id="text_4">
      <!-- Apr -->
      <g transform="translate(184.423885 298.74925)scale(0.1 -0.1)">
       <defs>
        <path d="M 63.375 0.984375 
L 53.8125 0.984375 
L 45.90625 22.015625 
L 17.1875 22.015625 
L 9.421875 0.984375 
L -0.09375 0.984375 
L 28.21875 72.90625 
L 35.296875 72.90625 
z
M 43.40625 29.109375 
L 36.1875 48.09375 
Q 33.203125 56.0625 31.6875 62.5 
L 31.390625 62.5 
Q 29.640625 55.671875 26.8125 48.09375 
L 19.734375 29.109375 
z
" id="IPAexGothic-65"/>
        <path d="M 16.796875 42 
Q 23.828125 52.203125 34.46875 52.203125 
Q 43.265625 52.203125 49.5625 45.90625 
Q 56.890625 38.578125 56.890625 25.6875 
Q 56.890625 13.140625 49.65625 5.8125 
Q 43.359375 -0.484375 34.375 -0.484375 
Q 24.515625 -0.484375 17.28125 7.765625 
L 17.28125 -19 
L 8.796875 -19 
L 8.796875 50.78125 
L 16.796875 50.78125 
z
M 17.28125 30.46875 
L 17.28125 20.171875 
Q 17.28125 14.015625 23.6875 9.375 
Q 27.984375 6.296875 32.90625 6.296875 
Q 38.578125 6.296875 42.578125 10.296875 
Q 47.90625 15.578125 47.90625 25.484375 
Q 47.90625 34.375 43.5 39.984375 
Q 39.109375 45.3125 32.8125 45.3125 
Q 25.875 45.3125 20.90625 38.8125 
Q 17.28125 34.125 17.28125 30.46875 
z
" id="IPAexGothic-112"/>
       </defs>
       <use xlink:href="#IPAexGothic-65"/>
       <use x="63.720703" xlink:href="#IPAexGothic-112"/>
       <use x="125.830078" xlink:href="#IPAexGothic-114"/>
      </g>
     </g>
    </g>
    <g id="xtick_5">
     <g id="line2d_5">
      <g>
       <use style="stroke:#000000;stroke-width:0.8;" x="238.725486" xlink:href="#m75cec260dc" y="284.258625"/>
      </g>
     </g>
     <g id="text_5">
      <!-- May -->
      <g transform="translate(229.005955 298.74925)scale(0.1 -0.1)">
       <defs>
        <path d="M 48.78125 50.78125 
L 24.609375 -7.625 
Q 19.96875 -18.796875 8.59375 -18.796875 
L 7.46875 -18.796875 
L 5.375 -10.984375 
L 6.984375 -10.984375 
Q 15.140625 -10.984375 17.96875 -3.71875 
L 21.1875 4.296875 
L 0.59375 50.78125 
L 10.296875 50.78125 
L 21.296875 22.796875 
Q 23.875 16.015625 25.09375 12.203125 
L 25.390625 12.203125 
Q 27.34375 18.265625 29.109375 22.796875 
L 39.5 50.78125 
z
" id="IPAexGothic-121"/>
       </defs>
       <use xlink:href="#IPAexGothic-77"/>
       <use x="90.185547" xlink:href="#IPAexGothic-97"/>
       <use x="145.166016" xlink:href="#IPAexGothic-121"/>
      </g>
     </g>
    </g>
    <g id="xtick_6">
     <g id="line2d_6">
      <g>
       <use style="stroke:#000000;stroke-width:0.8;" x="286.423548" xlink:href="#m75cec260dc" y="284.258625"/>
      </g>
     </g>
     <g id="text_6">
      <!-- Jun -->
      <g transform="translate(278.483704 298.74925)scale(0.1 -0.1)">
       <defs>
        <path d="M 28.421875 72.40625 
L 28.421875 19.28125 
Q 28.421875 -0.484375 11.921875 -0.484375 
Q 4.734375 -0.484375 -1.953125 3.265625 
L 1.3125 10.0625 
Q 5.90625 6.984375 10.84375 6.984375 
Q 19.53125 6.984375 19.53125 18.796875 
L 19.53125 72.40625 
z
" id="IPAexGothic-74"/>
        <path d="M 51.3125 0.984375 
L 43.3125 0.984375 
L 43.3125 10.0625 
Q 35.9375 0 25.390625 0 
Q 16.75 0 11.921875 5.859375 
Q 8.109375 10.59375 8.109375 19.390625 
L 8.109375 50.78125 
L 16.703125 50.78125 
L 16.703125 19.671875 
Q 16.703125 7.28125 27.09375 7.28125 
Q 37.59375 7.28125 42.71875 20.171875 
L 42.71875 50.78125 
L 51.3125 50.78125 
z
" id="IPAexGothic-117"/>
        <path d="M 52 0.984375 
L 43.40625 0.984375 
L 43.40625 31.890625 
Q 43.40625 44.578125 32.90625 44.578125 
Q 22.3125 44.578125 17.390625 31.890625 
L 17.390625 0.984375 
L 8.796875 0.984375 
L 8.796875 50.78125 
L 16.796875 50.78125 
L 16.796875 41.796875 
Q 23.828125 51.8125 34.71875 51.8125 
Q 52 51.8125 52 32.375 
z
" id="IPAexGothic-110"/>
       </defs>
       <use xlink:href="#IPAexGothic-74"/>
       <use x="37.988281" xlink:href="#IPAexGothic-117"/>
       <use x="98.388672" xlink:href="#IPAexGothic-110"/>
      </g>
     </g>
    </g>
    <g id="xtick_7">
     <g id="line2d_7">
      <g>
       <use style="stroke:#000000;stroke-width:0.8;" x="332.582962" xlink:href="#m75cec260dc" y="284.258625"/>
      </g>
     </g>
     <g id="text_7">
      <!-- Jul -->
      <g transform="translate(326.31343 298.74925)scale(0.1 -0.1)">
       <defs>
        <path d="M 17.671875 0.984375 
L 9.078125 0.984375 
L 9.078125 74.90625 
L 17.671875 74.90625 
z
" id="IPAexGothic-108"/>
       </defs>
       <use xlink:href="#IPAexGothic-74"/>
       <use x="37.988281" xlink:href="#IPAexGothic-117"/>
       <use x="98.388672" xlink:href="#IPAexGothic-108"/>
      </g>
     </g>
    </g>
    <g id="xtick_8">
     <g id="line2d_8">
      <g>
       <use style="stroke:#000000;stroke-width:0.8;" x="380.281023" xlink:href="#m75cec260dc" y="284.258625"/>
      </g>
     </g>
     <g id="text_8">
      <!-- Aug -->
      <g transform="translate(371.298991 298.691437)scale(0.1 -0.1)">
       <defs>
        <path d="M 20.796875 17.96875 
Q 15.71875 17.53125 15.71875 14.0625 
Q 15.71875 9.578125 27.546875 8.984375 
L 33.296875 8.6875 
Q 51.609375 7.765625 51.609375 -4.59375 
Q 51.609375 -10.9375 45.703125 -14.984375 
Q 39.359375 -19.578125 28.03125 -19.578125 
Q 17.78125 -19.578125 11.53125 -16.0625 
Q 5.515625 -12.640625 5.515625 -6.6875 
Q 5.515625 1.3125 16.796875 3.859375 
L 16.796875 4.203125 
Q 7.90625 6.453125 7.90625 12.15625 
Q 7.90625 17.4375 15.53125 20.265625 
Q 7.125 24.609375 7.125 34.078125 
Q 7.125 41.40625 12.015625 46.296875 
Q 17.625 51.90625 27.15625 51.90625 
Q 33.203125 51.90625 37.84375 49.265625 
Q 41.40625 53.953125 50.921875 54.109375 
L 50.921875 47.078125 
Q 44.34375 46.921875 42.234375 45.90625 
Q 47.40625 40.828125 47.40625 33.890625 
Q 47.40625 27 42.71875 22.265625 
Q 37.5 17.09375 28.328125 17.09375 
Q 24.421875 17.09375 20.796875 17.96875 
z
M 27.09375 45.609375 
Q 22.015625 45.609375 18.703125 42.28125 
Q 15.4375 39.015625 15.4375 34.078125 
Q 15.4375 29.25 18.5 26.3125 
Q 21.828125 23 27.4375 23 
Q 32.71875 23 35.890625 26.21875 
Q 39.109375 29.390625 39.109375 34.421875 
Q 39.109375 39.015625 35.890625 42.1875 
Q 32.515625 45.609375 27.09375 45.609375 
z
M 27.390625 2.484375 
Q 14.109375 2.484375 14.109375 -5.71875 
Q 14.109375 -13.671875 28.125 -13.671875 
Q 37.15625 -13.671875 41.21875 -9.46875 
Q 43.3125 -7.515625 43.3125 -4.890625 
Q 43.3125 2.484375 27.390625 2.484375 
z
" id="IPAexGothic-103"/>
       </defs>
       <use xlink:href="#IPAexGothic-65"/>
       <use x="63.720703" xlink:href="#IPAexGothic-117"/>
       <use x="124.121094" xlink:href="#IPAexGothic-103"/>
      </g>
     </g>
    </g>
    <g id="text_9">
     <!-- 2020 -->
     <g transform="translate(371.32 311.139875)scale(0.1 -0.1)">
      <use xlink:href="#IPAexGothic-50"/>
      <use x="62.988281" xlink:href="#IPAexGothic-48"/>
      <use x="125.976562" xlink:href="#IPAexGothic-50"/>
      <use x="188.964844" xlink:href="#IPAexGothic-48"/>
     </g>
    </g>
   </g>
   <g id="matplotlib.axis_2">
    <g id="ytick_1">
     <g id="line2d_9">
      <defs>
       <path d="M 0 0 
L -3.5 0 
" id="m13598c3350" style="stroke:#000000;stroke-width:0.8;"/>
      </defs>
      <g>
       <use style="stroke:#000000;stroke-width:0.8;" x="39.39375" xlink:href="#m13598c3350" y="272.162625"/>
      </g>
     </g>
     <g id="text_10">
      <!-- 0 -->
      <g transform="translate(26.095313 275.907937)scale(0.1 -0.1)">
       <use xlink:href="#IPAexGothic-48"/>
      </g>
     </g>
    </g>
    <g id="ytick_2">
     <g id="line2d_10">
      <g>
       <use style="stroke:#000000;stroke-width:0.8;" x="39.39375" xlink:href="#m13598c3350" y="223.091631"/>
      </g>
     </g>
     <g id="text_11">
      <!-- 200 -->
      <g transform="translate(13.498438 226.836944)scale(0.1 -0.1)">
       <use xlink:href="#IPAexGothic-50"/>
       <use x="62.988281" xlink:href="#IPAexGothic-48"/>
       <use x="125.976562" xlink:href="#IPAexGothic-48"/>
      </g>
     </g>
    </g>
    <g id="ytick_3">
     <g id="line2d_11">
      <g>
       <use style="stroke:#000000;stroke-width:0.8;" x="39.39375" xlink:href="#m13598c3350" y="174.020637"/>
      </g>
     </g>
     <g id="text_12">
      <!-- 400 -->
      <g transform="translate(13.498438 177.76595)scale(0.1 -0.1)">
       <defs>
        <path d="M 59.578125 18.109375 
L 47.796875 18.109375 
L 47.796875 0.984375 
L 39.796875 0.984375 
L 39.796875 18.109375 
L 3.078125 18.109375 
L 3.078125 26.125 
L 38.375 73.09375 
L 47.796875 73.09375 
L 47.796875 25.53125 
L 59.578125 25.53125 
z
M 40.28125 64.203125 
L 39.984375 64.203125 
Q 35.59375 57.125 31.296875 51.3125 
L 11.859375 25.53125 
L 39.796875 25.53125 
L 39.796875 49.125 
Q 39.796875 54.390625 40.28125 64.203125 
z
" id="IPAexGothic-52"/>
       </defs>
       <use xlink:href="#IPAexGothic-52"/>
       <use x="62.988281" xlink:href="#IPAexGothic-48"/>
       <use x="125.976562" xlink:href="#IPAexGothic-48"/>
      </g>
     </g>
    </g>
    <g id="ytick_4">
     <g id="line2d_12">
      <g>
       <use style="stroke:#000000;stroke-width:0.8;" x="39.39375" xlink:href="#m13598c3350" y="124.949643"/>
      </g>
     </g>
     <g id="text_13">
      <!-- 600 -->
      <g transform="translate(13.498438 128.694956)scale(0.1 -0.1)">
       <defs>
        <path d="M 16.5 36.375 
Q 23.578125 46.578125 34.90625 46.578125 
Q 45.40625 46.578125 51.8125 39.265625 
Q 57.421875 32.90625 57.421875 23.78125 
Q 57.421875 13.8125 51.125 6.78125 
Q 44.578125 -0.484375 34.03125 -0.484375 
Q 21.484375 -0.484375 14.40625 9.078125 
Q 7.515625 18.40625 7.515625 34.8125 
Q 7.515625 53.515625 15.828125 64.203125 
Q 23.34375 73.828125 35.5 73.828125 
Q 49.859375 73.828125 56.390625 62.890625 
L 49.21875 58.984375 
Q 45.21875 66.65625 35.9375 66.65625 
Q 17.484375 66.65625 16.109375 36.375 
z
M 33.453125 39.796875 
Q 26.3125 39.796875 21.625 34.46875 
Q 17.4375 29.6875 17.4375 24.078125 
Q 17.4375 18.0625 21.140625 13.1875 
Q 26.125 6.6875 33.734375 6.6875 
Q 41.703125 6.6875 45.953125 13.1875 
Q 48.828125 17.625 48.828125 23.484375 
Q 48.828125 30.375 45.015625 34.8125 
Q 40.625 39.796875 33.453125 39.796875 
z
" id="IPAexGothic-54"/>
       </defs>
       <use xlink:href="#IPAexGothic-54"/>
       <use x="62.988281" xlink:href="#IPAexGothic-48"/>
       <use x="125.976562" xlink:href="#IPAexGothic-48"/>
      </g>
     </g>
    </g>
    <g id="ytick_5">
     <g id="line2d_13">
      <g>
       <use style="stroke:#000000;stroke-width:0.8;" x="39.39375" xlink:href="#m13598c3350" y="75.878649"/>
      </g>
     </g>
     <g id="text_14">
      <!-- 800 -->
      <g transform="translate(13.498438 79.623962)scale(0.1 -0.1)">
       <defs>
        <path d="M 39.703125 37.890625 
Q 57.8125 31.734375 57.8125 18.703125 
Q 57.8125 8.453125 48.4375 3.078125 
Q 41.609375 -0.875 31.5 -0.875 
Q 21.34375 -0.875 14.5 3.078125 
Q 5.421875 8.296875 5.421875 18.40625 
Q 5.421875 31.0625 22.015625 37.203125 
L 22.015625 37.5 
Q 7.515625 42.71875 7.515625 54.828125 
Q 7.515625 64.0625 15.328125 69.625 
Q 21.96875 74.3125 31.546875 74.3125 
Q 42.234375 74.3125 48.921875 68.796875 
Q 55.515625 63.578125 55.515625 55.71875 
Q 55.515625 42.28125 39.703125 38.1875 
z
M 31.59375 41.015625 
Q 46.828125 44.625 46.828125 55.125 
Q 46.828125 61.1875 41.796875 64.84375 
Q 37.703125 67.921875 31.5 67.921875 
Q 25.09375 67.921875 20.796875 64.5 
Q 16.40625 60.890625 16.40625 55.03125 
Q 16.40625 49.21875 21.09375 45.703125 
Q 23.34375 43.890625 26.90625 42.53125 
Q 31 40.875 31.59375 41.015625 
z
M 30.90625 34.515625 
Q 14.40625 30.171875 14.40625 19 
Q 14.40625 12.109375 20.515625 8.6875 
Q 25.09375 6.109375 31.390625 6.109375 
Q 40.234375 6.109375 45.015625 10.890625 
Q 48.53125 14.40625 48.53125 19.53125 
Q 48.53125 24.90625 43.65625 28.90625 
Q 40.765625 31.15625 36.71875 32.8125 
Q 31.984375 34.71875 30.90625 34.515625 
z
" id="IPAexGothic-56"/>
       </defs>
       <use xlink:href="#IPAexGothic-56"/>
       <use x="62.988281" xlink:href="#IPAexGothic-48"/>
       <use x="125.976562" xlink:href="#IPAexGothic-48"/>
      </g>
     </g>
    </g>
    <g id="ytick_6">
     <g id="line2d_14">
      <g>
       <use style="stroke:#000000;stroke-width:0.8;" x="39.39375" xlink:href="#m13598c3350" y="26.807655"/>
      </g>
     </g>
     <g id="text_15">
      <!-- 1000 -->
      <g transform="translate(7.2 30.552968)scale(0.1 -0.1)">
       <defs>
        <path d="M 38.484375 0.984375 
L 29.6875 0.984375 
L 29.6875 64.109375 
Q 21.4375 61.28125 12.3125 59.328125 
L 10.6875 66.109375 
Q 23.734375 69.390625 32.90625 73.921875 
L 38.484375 73.921875 
z
" id="IPAexGothic-49"/>
       </defs>
       <use xlink:href="#IPAexGothic-49"/>
       <use x="62.988281" xlink:href="#IPAexGothic-48"/>
       <use x="125.976562" xlink:href="#IPAexGothic-48"/>
       <use x="188.964844" xlink:href="#IPAexGothic-48"/>
      </g>
     </g>
    </g>
   </g>
   <g id="line2d_15">
    <path clip-path="url(#p7809b47908)" d="M 55.626477 271.91727 
L 57.165124 272.162625 
L 71.012949 272.162625 
L 72.551596 271.671915 
L 74.090243 272.162625 
L 80.244831 272.162625 
L 81.783479 271.42656 
L 83.322126 271.91727 
L 84.860773 271.671915 
L 86.39942 271.91727 
L 87.938067 271.671915 
L 89.476714 271.671915 
L 91.015361 271.42656 
L 92.554009 272.162625 
L 95.631303 271.671915 
L 97.16995 271.91727 
L 98.708597 271.181205 
L 100.247244 271.42656 
L 101.785891 271.181205 
L 103.324538 270.199785 
L 106.401833 271.671915 
L 107.94048 270.690495 
L 109.479127 270.93585 
L 111.017774 271.671915 
L 112.556421 271.91727 
L 114.095068 269.95443 
L 115.633716 272.162625 
L 117.172363 270.44514 
L 118.71101 270.44514 
L 120.249657 269.95443 
L 121.788304 269.95443 
L 123.326951 268.4823 
L 124.865598 269.46372 
L 126.404245 268.727655 
L 127.942893 268.4823 
L 129.48154 266.764816 
L 131.020187 267.746236 
L 132.558834 267.255526 
L 134.097481 266.519461 
L 135.636128 266.028751 
L 137.174775 264.065911 
L 138.713423 264.801976 
L 140.25207 266.028751 
L 141.790717 263.329846 
L 143.329364 266.028751 
L 144.868011 265.538041 
L 146.406658 262.103071 
L 147.945305 266.028751 
L 149.483952 264.311266 
L 151.0226 265.047331 
L 152.561247 265.538041 
L 154.099894 262.839136 
L 155.638541 264.311266 
L 157.177188 261.367006 
L 158.715835 265.538041 
L 160.254482 262.348426 
L 161.79313 264.311266 
L 163.331777 261.121651 
L 164.870424 264.801976 
L 166.409071 264.065911 
L 167.947718 262.348426 
L 169.486365 259.649522 
L 171.025012 258.422747 
L 172.56366 254.251712 
L 174.102307 257.195972 
L 175.640954 254.251712 
L 177.179601 253.270292 
L 178.718248 245.664288 
L 180.256895 248.853903 
L 181.795542 244.437513 
L 183.334189 241.002544 
L 184.872837 219.411307 
L 186.411484 225.545181 
L 187.950131 225.299826 
L 189.488778 201.255039 
L 191.027425 201.745749 
L 192.566072 186.779096 
L 194.104719 201.991104 
L 195.643367 186.779096 
L 197.182014 200.518974 
L 198.720661 210.578528 
L 200.259308 194.3851 
L 201.797955 205.671428 
L 203.336602 204.199298 
L 204.875249 216.712402 
L 206.413896 212.296012 
L 207.952544 213.768142 
L 209.491191 224.563761 
L 211.029838 219.411307 
L 214.107132 222.846276 
L 215.645779 238.058284 
L 217.184426 234.623315 
L 218.723074 237.076864 
L 220.261721 243.946803 
L 221.800368 234.37796 
L 223.339015 246.400353 
L 224.877662 245.173578 
L 226.416309 253.761002 
L 227.954956 246.154998 
L 229.493604 254.497067 
L 231.032251 253.761002 
L 232.570898 251.552808 
L 234.109545 257.932037 
L 235.648192 259.894877 
L 237.186839 255.969197 
L 238.725486 258.913457 
L 240.264133 258.422747 
L 241.802781 263.575201 
L 243.341428 265.047331 
L 244.880075 263.820556 
L 246.418722 265.783396 
L 247.957369 265.047331 
L 249.496016 266.764816 
L 251.034663 267.746236 
L 252.573311 267.746236 
L 254.111958 267.500881 
L 255.650605 267.010171 
L 257.189252 268.727655 
L 258.727899 268.727655 
L 260.266546 267.746236 
L 261.805193 269.95443 
L 263.34384 268.727655 
L 264.882488 269.95443 
L 266.421135 267.991591 
L 267.959782 270.44514 
L 269.498429 269.46372 
L 271.037076 268.236945 
L 272.575723 269.709075 
L 274.11437 268.97301 
L 275.653018 270.690495 
L 277.191665 270.44514 
L 278.730312 269.709075 
L 280.268959 269.709075 
L 283.346253 271.181205 
L 284.8849 271.42656 
L 286.423548 269.46372 
L 289.500842 270.93585 
L 291.039489 270.690495 
L 292.578136 268.727655 
L 294.116783 269.46372 
L 295.65543 269.46372 
L 297.194077 270.199785 
L 298.732725 267.500881 
L 300.271372 268.97301 
L 301.810019 267.500881 
L 303.348666 270.44514 
L 304.887313 269.218365 
L 306.42596 268.4823 
L 307.964607 268.727655 
L 309.503255 269.95443 
L 311.041902 269.218365 
L 312.580549 268.236945 
L 314.119196 268.97301 
L 315.657843 268.727655 
L 317.19649 269.95443 
L 318.735137 264.065911 
L 320.273784 266.764816 
L 321.812432 264.065911 
L 323.351079 264.311266 
L 324.889726 265.538041 
L 326.428373 258.668102 
L 327.96702 264.311266 
L 329.505667 261.367006 
L 331.044314 260.385586 
L 332.582962 257.195972 
L 334.121609 258.668102 
L 335.660256 256.459907 
L 337.198903 254.006357 
L 338.73755 253.270292 
L 340.276197 246.154998 
L 341.814844 246.645708 
L 343.353491 244.682868 
L 344.892139 239.039704 
L 346.430786 240.757189 
L 347.969433 237.076864 
L 349.50808 235.85009 
L 351.046727 221.619501 
L 352.585374 216.712402 
L 354.124021 214.749562 
L 355.662669 215.976337 
L 357.201316 207.388913 
L 358.739963 203.953943 
L 360.27861 206.162138 
L 361.817257 197.820069 
L 363.355904 198.065424 
L 364.894551 197.820069 
L 366.433199 204.444653 
L 367.971846 206.652848 
L 369.510493 220.883436 
L 374.126434 242.229319 
L 375.665081 257.441327 
L 377.203728 268.727655 
L 378.742376 272.162625 
L 380.281023 272.162625 
L 380.281023 272.162625 
" style="fill:none;stroke:#1f77b4;stroke-linecap:square;stroke-width:1.5;"/>
    <defs>
     <path d="M 0 3 
C 0.795609 3 1.55874 2.683901 2.12132 2.12132 
C 2.683901 1.55874 3 0.795609 3 0 
C 3 -0.795609 2.683901 -1.55874 2.12132 -2.12132 
C 1.55874 -2.683901 0.795609 -3 0 -3 
C -0.795609 -3 -1.55874 -2.683901 -2.12132 -2.12132 
C -2.683901 -1.55874 -3 -0.795609 -3 0 
C -3 0.795609 -2.683901 1.55874 -2.12132 2.12132 
C -1.55874 2.683901 -0.795609 3 0 3 
z
" id="me6d46aa932" style="stroke:#1f77b4;"/>
    </defs>
    <g clip-path="url(#p7809b47908)">
     <use style="fill:#1f77b4;stroke:#1f77b4;" x="55.626477" xlink:href="#me6d46aa932" y="271.91727"/>
     <use style="fill:#1f77b4;stroke:#1f77b4;" x="57.165124" xlink:href="#me6d46aa932" y="272.162625"/>
     <use style="fill:#1f77b4;stroke:#1f77b4;" x="58.703772" xlink:href="#me6d46aa932" y="272.162625"/>
     <use style="fill:#1f77b4;stroke:#1f77b4;" x="60.242419" xlink:href="#me6d46aa932" y="272.162625"/>
     <use style="fill:#1f77b4;stroke:#1f77b4;" x="61.781066" xlink:href="#me6d46aa932" y="272.162625"/>
     <use style="fill:#1f77b4;stroke:#1f77b4;" x="63.319713" xlink:href="#me6d46aa932" y="272.162625"/>
     <use style="fill:#1f77b4;stroke:#1f77b4;" x="64.85836" xlink:href="#me6d46aa932" y="272.162625"/>
     <use style="fill:#1f77b4;stroke:#1f77b4;" x="66.397007" xlink:href="#me6d46aa932" y="272.162625"/>
     <use style="fill:#1f77b4;stroke:#1f77b4;" x="67.935654" xlink:href="#me6d46aa932" y="272.162625"/>
     <use style="fill:#1f77b4;stroke:#1f77b4;" x="69.474301" xlink:href="#me6d46aa932" y="272.162625"/>
     <use style="fill:#1f77b4;stroke:#1f77b4;" x="71.012949" xlink:href="#me6d46aa932" y="272.162625"/>
     <use style="fill:#1f77b4;stroke:#1f77b4;" x="72.551596" xlink:href="#me6d46aa932" y="271.671915"/>
     <use style="fill:#1f77b4;stroke:#1f77b4;" x="74.090243" xlink:href="#me6d46aa932" y="272.162625"/>
     <use style="fill:#1f77b4;stroke:#1f77b4;" x="75.62889" xlink:href="#me6d46aa932" y="272.162625"/>
     <use style="fill:#1f77b4;stroke:#1f77b4;" x="77.167537" xlink:href="#me6d46aa932" y="272.162625"/>
     <use style="fill:#1f77b4;stroke:#1f77b4;" x="78.706184" xlink:href="#me6d46aa932" y="272.162625"/>
     <use style="fill:#1f77b4;stroke:#1f77b4;" x="80.244831" xlink:href="#me6d46aa932" y="272.162625"/>
     <use style="fill:#1f77b4;stroke:#1f77b4;" x="81.783479" xlink:href="#me6d46aa932" y="271.42656"/>
     <use style="fill:#1f77b4;stroke:#1f77b4;" x="83.322126" xlink:href="#me6d46aa932" y="271.91727"/>
     <use style="fill:#1f77b4;stroke:#1f77b4;" x="84.860773" xlink:href="#me6d46aa932" y="271.671915"/>
     <use style="fill:#1f77b4;stroke:#1f77b4;" x="86.39942" xlink:href="#me6d46aa932" y="271.91727"/>
     <use style="fill:#1f77b4;stroke:#1f77b4;" x="87.938067" xlink:href="#me6d46aa932" y="271.671915"/>
     <use style="fill:#1f77b4;stroke:#1f77b4;" x="89.476714" xlink:href="#me6d46aa932" y="271.671915"/>
     <use style="fill:#1f77b4;stroke:#1f77b4;" x="91.015361" xlink:href="#me6d46aa932" y="271.42656"/>
     <use style="fill:#1f77b4;stroke:#1f77b4;" x="92.554009" xlink:href="#me6d46aa932" y="272.162625"/>
     <use style="fill:#1f77b4;stroke:#1f77b4;" x="94.092656" xlink:href="#me6d46aa932" y="271.91727"/>
     <use style="fill:#1f77b4;stroke:#1f77b4;" x="95.631303" xlink:href="#me6d46aa932" y="271.671915"/>
     <use style="fill:#1f77b4;stroke:#1f77b4;" x="97.16995" xlink:href="#me6d46aa932" y="271.91727"/>
     <use style="fill:#1f77b4;stroke:#1f77b4;" x="98.708597" xlink:href="#me6d46aa932" y="271.181205"/>
     <use style="fill:#1f77b4;stroke:#1f77b4;" x="100.247244" xlink:href="#me6d46aa932" y="271.42656"/>
     <use style="fill:#1f77b4;stroke:#1f77b4;" x="101.785891" xlink:href="#me6d46aa932" y="271.181205"/>
     <use style="fill:#1f77b4;stroke:#1f77b4;" x="103.324538" xlink:href="#me6d46aa932" y="270.199785"/>
     <use style="fill:#1f77b4;stroke:#1f77b4;" x="104.863186" xlink:href="#me6d46aa932" y="270.93585"/>
     <use style="fill:#1f77b4;stroke:#1f77b4;" x="106.401833" xlink:href="#me6d46aa932" y="271.671915"/>
     <use style="fill:#1f77b4;stroke:#1f77b4;" x="107.94048" xlink:href="#me6d46aa932" y="270.690495"/>
     <use style="fill:#1f77b4;stroke:#1f77b4;" x="109.479127" xlink:href="#me6d46aa932" y="270.93585"/>
     <use style="fill:#1f77b4;stroke:#1f77b4;" x="111.017774" xlink:href="#me6d46aa932" y="271.671915"/>
     <use style="fill:#1f77b4;stroke:#1f77b4;" x="112.556421" xlink:href="#me6d46aa932" y="271.91727"/>
     <use style="fill:#1f77b4;stroke:#1f77b4;" x="114.095068" xlink:href="#me6d46aa932" y="269.95443"/>
     <use style="fill:#1f77b4;stroke:#1f77b4;" x="115.633716" xlink:href="#me6d46aa932" y="272.162625"/>
     <use style="fill:#1f77b4;stroke:#1f77b4;" x="117.172363" xlink:href="#me6d46aa932" y="270.44514"/>
     <use style="fill:#1f77b4;stroke:#1f77b4;" x="118.71101" xlink:href="#me6d46aa932" y="270.44514"/>
     <use style="fill:#1f77b4;stroke:#1f77b4;" x="120.249657" xlink:href="#me6d46aa932" y="269.95443"/>
     <use style="fill:#1f77b4;stroke:#1f77b4;" x="121.788304" xlink:href="#me6d46aa932" y="269.95443"/>
     <use style="fill:#1f77b4;stroke:#1f77b4;" x="123.326951" xlink:href="#me6d46aa932" y="268.4823"/>
     <use style="fill:#1f77b4;stroke:#1f77b4;" x="124.865598" xlink:href="#me6d46aa932" y="269.46372"/>
     <use style="fill:#1f77b4;stroke:#1f77b4;" x="126.404245" xlink:href="#me6d46aa932" y="268.727655"/>
     <use style="fill:#1f77b4;stroke:#1f77b4;" x="127.942893" xlink:href="#me6d46aa932" y="268.4823"/>
     <use style="fill:#1f77b4;stroke:#1f77b4;" x="129.48154" xlink:href="#me6d46aa932" y="266.764816"/>
     <use style="fill:#1f77b4;stroke:#1f77b4;" x="131.020187" xlink:href="#me6d46aa932" y="267.746236"/>
     <use style="fill:#1f77b4;stroke:#1f77b4;" x="132.558834" xlink:href="#me6d46aa932" y="267.255526"/>
     <use style="fill:#1f77b4;stroke:#1f77b4;" x="134.097481" xlink:href="#me6d46aa932" y="266.519461"/>
     <use style="fill:#1f77b4;stroke:#1f77b4;" x="135.636128" xlink:href="#me6d46aa932" y="266.028751"/>
     <use style="fill:#1f77b4;stroke:#1f77b4;" x="137.174775" xlink:href="#me6d46aa932" y="264.065911"/>
     <use style="fill:#1f77b4;stroke:#1f77b4;" x="138.713423" xlink:href="#me6d46aa932" y="264.801976"/>
     <use style="fill:#1f77b4;stroke:#1f77b4;" x="140.25207" xlink:href="#me6d46aa932" y="266.028751"/>
     <use style="fill:#1f77b4;stroke:#1f77b4;" x="141.790717" xlink:href="#me6d46aa932" y="263.329846"/>
     <use style="fill:#1f77b4;stroke:#1f77b4;" x="143.329364" xlink:href="#me6d46aa932" y="266.028751"/>
     <use style="fill:#1f77b4;stroke:#1f77b4;" x="144.868011" xlink:href="#me6d46aa932" y="265.538041"/>
     <use style="fill:#1f77b4;stroke:#1f77b4;" x="146.406658" xlink:href="#me6d46aa932" y="262.103071"/>
     <use style="fill:#1f77b4;stroke:#1f77b4;" x="147.945305" xlink:href="#me6d46aa932" y="266.028751"/>
     <use style="fill:#1f77b4;stroke:#1f77b4;" x="149.483952" xlink:href="#me6d46aa932" y="264.311266"/>
     <use style="fill:#1f77b4;stroke:#1f77b4;" x="151.0226" xlink:href="#me6d46aa932" y="265.047331"/>
     <use style="fill:#1f77b4;stroke:#1f77b4;" x="152.561247" xlink:href="#me6d46aa932" y="265.538041"/>
     <use style="fill:#1f77b4;stroke:#1f77b4;" x="154.099894" xlink:href="#me6d46aa932" y="262.839136"/>
     <use style="fill:#1f77b4;stroke:#1f77b4;" x="155.638541" xlink:href="#me6d46aa932" y="264.311266"/>
     <use style="fill:#1f77b4;stroke:#1f77b4;" x="157.177188" xlink:href="#me6d46aa932" y="261.367006"/>
     <use style="fill:#1f77b4;stroke:#1f77b4;" x="158.715835" xlink:href="#me6d46aa932" y="265.538041"/>
     <use style="fill:#1f77b4;stroke:#1f77b4;" x="160.254482" xlink:href="#me6d46aa932" y="262.348426"/>
     <use style="fill:#1f77b4;stroke:#1f77b4;" x="161.79313" xlink:href="#me6d46aa932" y="264.311266"/>
     <use style="fill:#1f77b4;stroke:#1f77b4;" x="163.331777" xlink:href="#me6d46aa932" y="261.121651"/>
     <use style="fill:#1f77b4;stroke:#1f77b4;" x="164.870424" xlink:href="#me6d46aa932" y="264.801976"/>
     <use style="fill:#1f77b4;stroke:#1f77b4;" x="166.409071" xlink:href="#me6d46aa932" y="264.065911"/>
     <use style="fill:#1f77b4;stroke:#1f77b4;" x="167.947718" xlink:href="#me6d46aa932" y="262.348426"/>
     <use style="fill:#1f77b4;stroke:#1f77b4;" x="169.486365" xlink:href="#me6d46aa932" y="259.649522"/>
     <use style="fill:#1f77b4;stroke:#1f77b4;" x="171.025012" xlink:href="#me6d46aa932" y="258.422747"/>
     <use style="fill:#1f77b4;stroke:#1f77b4;" x="172.56366" xlink:href="#me6d46aa932" y="254.251712"/>
     <use style="fill:#1f77b4;stroke:#1f77b4;" x="174.102307" xlink:href="#me6d46aa932" y="257.195972"/>
     <use style="fill:#1f77b4;stroke:#1f77b4;" x="175.640954" xlink:href="#me6d46aa932" y="254.251712"/>
     <use style="fill:#1f77b4;stroke:#1f77b4;" x="177.179601" xlink:href="#me6d46aa932" y="253.270292"/>
     <use style="fill:#1f77b4;stroke:#1f77b4;" x="178.718248" xlink:href="#me6d46aa932" y="245.664288"/>
     <use style="fill:#1f77b4;stroke:#1f77b4;" x="180.256895" xlink:href="#me6d46aa932" y="248.853903"/>
     <use style="fill:#1f77b4;stroke:#1f77b4;" x="181.795542" xlink:href="#me6d46aa932" y="244.437513"/>
     <use style="fill:#1f77b4;stroke:#1f77b4;" x="183.334189" xlink:href="#me6d46aa932" y="241.002544"/>
     <use style="fill:#1f77b4;stroke:#1f77b4;" x="184.872837" xlink:href="#me6d46aa932" y="219.411307"/>
     <use style="fill:#1f77b4;stroke:#1f77b4;" x="186.411484" xlink:href="#me6d46aa932" y="225.545181"/>
     <use style="fill:#1f77b4;stroke:#1f77b4;" x="187.950131" xlink:href="#me6d46aa932" y="225.299826"/>
     <use style="fill:#1f77b4;stroke:#1f77b4;" x="189.488778" xlink:href="#me6d46aa932" y="201.255039"/>
     <use style="fill:#1f77b4;stroke:#1f77b4;" x="191.027425" xlink:href="#me6d46aa932" y="201.745749"/>
     <use style="fill:#1f77b4;stroke:#1f77b4;" x="192.566072" xlink:href="#me6d46aa932" y="186.779096"/>
     <use style="fill:#1f77b4;stroke:#1f77b4;" x="194.104719" xlink:href="#me6d46aa932" y="201.991104"/>
     <use style="fill:#1f77b4;stroke:#1f77b4;" x="195.643367" xlink:href="#me6d46aa932" y="186.779096"/>
     <use style="fill:#1f77b4;stroke:#1f77b4;" x="197.182014" xlink:href="#me6d46aa932" y="200.518974"/>
     <use style="fill:#1f77b4;stroke:#1f77b4;" x="198.720661" xlink:href="#me6d46aa932" y="210.578528"/>
     <use style="fill:#1f77b4;stroke:#1f77b4;" x="200.259308" xlink:href="#me6d46aa932" y="194.3851"/>
     <use style="fill:#1f77b4;stroke:#1f77b4;" x="201.797955" xlink:href="#me6d46aa932" y="205.671428"/>
     <use style="fill:#1f77b4;stroke:#1f77b4;" x="203.336602" xlink:href="#me6d46aa932" y="204.199298"/>
     <use style="fill:#1f77b4;stroke:#1f77b4;" x="204.875249" xlink:href="#me6d46aa932" y="216.712402"/>
     <use style="fill:#1f77b4;stroke:#1f77b4;" x="206.413896" xlink:href="#me6d46aa932" y="212.296012"/>
     <use style="fill:#1f77b4;stroke:#1f77b4;" x="207.952544" xlink:href="#me6d46aa932" y="213.768142"/>
     <use style="fill:#1f77b4;stroke:#1f77b4;" x="209.491191" xlink:href="#me6d46aa932" y="224.563761"/>
     <use style="fill:#1f77b4;stroke:#1f77b4;" x="211.029838" xlink:href="#me6d46aa932" y="219.411307"/>
     <use style="fill:#1f77b4;stroke:#1f77b4;" x="212.568485" xlink:href="#me6d46aa932" y="221.128791"/>
     <use style="fill:#1f77b4;stroke:#1f77b4;" x="214.107132" xlink:href="#me6d46aa932" y="222.846276"/>
     <use style="fill:#1f77b4;stroke:#1f77b4;" x="215.645779" xlink:href="#me6d46aa932" y="238.058284"/>
     <use style="fill:#1f77b4;stroke:#1f77b4;" x="217.184426" xlink:href="#me6d46aa932" y="234.623315"/>
     <use style="fill:#1f77b4;stroke:#1f77b4;" x="218.723074" xlink:href="#me6d46aa932" y="237.076864"/>
     <use style="fill:#1f77b4;stroke:#1f77b4;" x="220.261721" xlink:href="#me6d46aa932" y="243.946803"/>
     <use style="fill:#1f77b4;stroke:#1f77b4;" x="221.800368" xlink:href="#me6d46aa932" y="234.37796"/>
     <use style="fill:#1f77b4;stroke:#1f77b4;" x="223.339015" xlink:href="#me6d46aa932" y="246.400353"/>
     <use style="fill:#1f77b4;stroke:#1f77b4;" x="224.877662" xlink:href="#me6d46aa932" y="245.173578"/>
     <use style="fill:#1f77b4;stroke:#1f77b4;" x="226.416309" xlink:href="#me6d46aa932" y="253.761002"/>
     <use style="fill:#1f77b4;stroke:#1f77b4;" x="227.954956" xlink:href="#me6d46aa932" y="246.154998"/>
     <use style="fill:#1f77b4;stroke:#1f77b4;" x="229.493604" xlink:href="#me6d46aa932" y="254.497067"/>
     <use style="fill:#1f77b4;stroke:#1f77b4;" x="231.032251" xlink:href="#me6d46aa932" y="253.761002"/>
     <use style="fill:#1f77b4;stroke:#1f77b4;" x="232.570898" xlink:href="#me6d46aa932" y="251.552808"/>
     <use style="fill:#1f77b4;stroke:#1f77b4;" x="234.109545" xlink:href="#me6d46aa932" y="257.932037"/>
     <use style="fill:#1f77b4;stroke:#1f77b4;" x="235.648192" xlink:href="#me6d46aa932" y="259.894877"/>
     <use style="fill:#1f77b4;stroke:#1f77b4;" x="237.186839" xlink:href="#me6d46aa932" y="255.969197"/>
     <use style="fill:#1f77b4;stroke:#1f77b4;" x="238.725486" xlink:href="#me6d46aa932" y="258.913457"/>
     <use style="fill:#1f77b4;stroke:#1f77b4;" x="240.264133" xlink:href="#me6d46aa932" y="258.422747"/>
     <use style="fill:#1f77b4;stroke:#1f77b4;" x="241.802781" xlink:href="#me6d46aa932" y="263.575201"/>
     <use style="fill:#1f77b4;stroke:#1f77b4;" x="243.341428" xlink:href="#me6d46aa932" y="265.047331"/>
     <use style="fill:#1f77b4;stroke:#1f77b4;" x="244.880075" xlink:href="#me6d46aa932" y="263.820556"/>
     <use style="fill:#1f77b4;stroke:#1f77b4;" x="246.418722" xlink:href="#me6d46aa932" y="265.783396"/>
     <use style="fill:#1f77b4;stroke:#1f77b4;" x="247.957369" xlink:href="#me6d46aa932" y="265.047331"/>
     <use style="fill:#1f77b4;stroke:#1f77b4;" x="249.496016" xlink:href="#me6d46aa932" y="266.764816"/>
     <use style="fill:#1f77b4;stroke:#1f77b4;" x="251.034663" xlink:href="#me6d46aa932" y="267.746236"/>
     <use style="fill:#1f77b4;stroke:#1f77b4;" x="252.573311" xlink:href="#me6d46aa932" y="267.746236"/>
     <use style="fill:#1f77b4;stroke:#1f77b4;" x="254.111958" xlink:href="#me6d46aa932" y="267.500881"/>
     <use style="fill:#1f77b4;stroke:#1f77b4;" x="255.650605" xlink:href="#me6d46aa932" y="267.010171"/>
     <use style="fill:#1f77b4;stroke:#1f77b4;" x="257.189252" xlink:href="#me6d46aa932" y="268.727655"/>
     <use style="fill:#1f77b4;stroke:#1f77b4;" x="258.727899" xlink:href="#me6d46aa932" y="268.727655"/>
     <use style="fill:#1f77b4;stroke:#1f77b4;" x="260.266546" xlink:href="#me6d46aa932" y="267.746236"/>
     <use style="fill:#1f77b4;stroke:#1f77b4;" x="261.805193" xlink:href="#me6d46aa932" y="269.95443"/>
     <use style="fill:#1f77b4;stroke:#1f77b4;" x="263.34384" xlink:href="#me6d46aa932" y="268.727655"/>
     <use style="fill:#1f77b4;stroke:#1f77b4;" x="264.882488" xlink:href="#me6d46aa932" y="269.95443"/>
     <use style="fill:#1f77b4;stroke:#1f77b4;" x="266.421135" xlink:href="#me6d46aa932" y="267.991591"/>
     <use style="fill:#1f77b4;stroke:#1f77b4;" x="267.959782" xlink:href="#me6d46aa932" y="270.44514"/>
     <use style="fill:#1f77b4;stroke:#1f77b4;" x="269.498429" xlink:href="#me6d46aa932" y="269.46372"/>
     <use style="fill:#1f77b4;stroke:#1f77b4;" x="271.037076" xlink:href="#me6d46aa932" y="268.236945"/>
     <use style="fill:#1f77b4;stroke:#1f77b4;" x="272.575723" xlink:href="#me6d46aa932" y="269.709075"/>
     <use style="fill:#1f77b4;stroke:#1f77b4;" x="274.11437" xlink:href="#me6d46aa932" y="268.97301"/>
     <use style="fill:#1f77b4;stroke:#1f77b4;" x="275.653018" xlink:href="#me6d46aa932" y="270.690495"/>
     <use style="fill:#1f77b4;stroke:#1f77b4;" x="277.191665" xlink:href="#me6d46aa932" y="270.44514"/>
     <use style="fill:#1f77b4;stroke:#1f77b4;" x="278.730312" xlink:href="#me6d46aa932" y="269.709075"/>
     <use style="fill:#1f77b4;stroke:#1f77b4;" x="280.268959" xlink:href="#me6d46aa932" y="269.709075"/>
     <use style="fill:#1f77b4;stroke:#1f77b4;" x="281.807606" xlink:href="#me6d46aa932" y="270.44514"/>
     <use style="fill:#1f77b4;stroke:#1f77b4;" x="283.346253" xlink:href="#me6d46aa932" y="271.181205"/>
     <use style="fill:#1f77b4;stroke:#1f77b4;" x="284.8849" xlink:href="#me6d46aa932" y="271.42656"/>
     <use style="fill:#1f77b4;stroke:#1f77b4;" x="286.423548" xlink:href="#me6d46aa932" y="269.46372"/>
     <use style="fill:#1f77b4;stroke:#1f77b4;" x="287.962195" xlink:href="#me6d46aa932" y="270.199785"/>
     <use style="fill:#1f77b4;stroke:#1f77b4;" x="289.500842" xlink:href="#me6d46aa932" y="270.93585"/>
     <use style="fill:#1f77b4;stroke:#1f77b4;" x="291.039489" xlink:href="#me6d46aa932" y="270.690495"/>
     <use style="fill:#1f77b4;stroke:#1f77b4;" x="292.578136" xlink:href="#me6d46aa932" y="268.727655"/>
     <use style="fill:#1f77b4;stroke:#1f77b4;" x="294.116783" xlink:href="#me6d46aa932" y="269.46372"/>
     <use style="fill:#1f77b4;stroke:#1f77b4;" x="295.65543" xlink:href="#me6d46aa932" y="269.46372"/>
     <use style="fill:#1f77b4;stroke:#1f77b4;" x="297.194077" xlink:href="#me6d46aa932" y="270.199785"/>
     <use style="fill:#1f77b4;stroke:#1f77b4;" x="298.732725" xlink:href="#me6d46aa932" y="267.500881"/>
     <use style="fill:#1f77b4;stroke:#1f77b4;" x="300.271372" xlink:href="#me6d46aa932" y="268.97301"/>
     <use style="fill:#1f77b4;stroke:#1f77b4;" x="301.810019" xlink:href="#me6d46aa932" y="267.500881"/>
     <use style="fill:#1f77b4;stroke:#1f77b4;" x="303.348666" xlink:href="#me6d46aa932" y="270.44514"/>
     <use style="fill:#1f77b4;stroke:#1f77b4;" x="304.887313" xlink:href="#me6d46aa932" y="269.218365"/>
     <use style="fill:#1f77b4;stroke:#1f77b4;" x="306.42596" xlink:href="#me6d46aa932" y="268.4823"/>
     <use style="fill:#1f77b4;stroke:#1f77b4;" x="307.964607" xlink:href="#me6d46aa932" y="268.727655"/>
     <use style="fill:#1f77b4;stroke:#1f77b4;" x="309.503255" xlink:href="#me6d46aa932" y="269.95443"/>
     <use style="fill:#1f77b4;stroke:#1f77b4;" x="311.041902" xlink:href="#me6d46aa932" y="269.218365"/>
     <use style="fill:#1f77b4;stroke:#1f77b4;" x="312.580549" xlink:href="#me6d46aa932" y="268.236945"/>
     <use style="fill:#1f77b4;stroke:#1f77b4;" x="314.119196" xlink:href="#me6d46aa932" y="268.97301"/>
     <use style="fill:#1f77b4;stroke:#1f77b4;" x="315.657843" xlink:href="#me6d46aa932" y="268.727655"/>
     <use style="fill:#1f77b4;stroke:#1f77b4;" x="317.19649" xlink:href="#me6d46aa932" y="269.95443"/>
     <use style="fill:#1f77b4;stroke:#1f77b4;" x="318.735137" xlink:href="#me6d46aa932" y="264.065911"/>
     <use style="fill:#1f77b4;stroke:#1f77b4;" x="320.273784" xlink:href="#me6d46aa932" y="266.764816"/>
     <use style="fill:#1f77b4;stroke:#1f77b4;" x="321.812432" xlink:href="#me6d46aa932" y="264.065911"/>
     <use style="fill:#1f77b4;stroke:#1f77b4;" x="323.351079" xlink:href="#me6d46aa932" y="264.311266"/>
     <use style="fill:#1f77b4;stroke:#1f77b4;" x="324.889726" xlink:href="#me6d46aa932" y="265.538041"/>
     <use style="fill:#1f77b4;stroke:#1f77b4;" x="326.428373" xlink:href="#me6d46aa932" y="258.668102"/>
     <use style="fill:#1f77b4;stroke:#1f77b4;" x="327.96702" xlink:href="#me6d46aa932" y="264.311266"/>
     <use style="fill:#1f77b4;stroke:#1f77b4;" x="329.505667" xlink:href="#me6d46aa932" y="261.367006"/>
     <use style="fill:#1f77b4;stroke:#1f77b4;" x="331.044314" xlink:href="#me6d46aa932" y="260.385586"/>
     <use style="fill:#1f77b4;stroke:#1f77b4;" x="332.582962" xlink:href="#me6d46aa932" y="257.195972"/>
     <use style="fill:#1f77b4;stroke:#1f77b4;" x="334.121609" xlink:href="#me6d46aa932" y="258.668102"/>
     <use style="fill:#1f77b4;stroke:#1f77b4;" x="335.660256" xlink:href="#me6d46aa932" y="256.459907"/>
     <use style="fill:#1f77b4;stroke:#1f77b4;" x="337.198903" xlink:href="#me6d46aa932" y="254.006357"/>
     <use style="fill:#1f77b4;stroke:#1f77b4;" x="338.73755" xlink:href="#me6d46aa932" y="253.270292"/>
     <use style="fill:#1f77b4;stroke:#1f77b4;" x="340.276197" xlink:href="#me6d46aa932" y="246.154998"/>
     <use style="fill:#1f77b4;stroke:#1f77b4;" x="341.814844" xlink:href="#me6d46aa932" y="246.645708"/>
     <use style="fill:#1f77b4;stroke:#1f77b4;" x="343.353491" xlink:href="#me6d46aa932" y="244.682868"/>
     <use style="fill:#1f77b4;stroke:#1f77b4;" x="344.892139" xlink:href="#me6d46aa932" y="239.039704"/>
     <use style="fill:#1f77b4;stroke:#1f77b4;" x="346.430786" xlink:href="#me6d46aa932" y="240.757189"/>
     <use style="fill:#1f77b4;stroke:#1f77b4;" x="347.969433" xlink:href="#me6d46aa932" y="237.076864"/>
     <use style="fill:#1f77b4;stroke:#1f77b4;" x="349.50808" xlink:href="#me6d46aa932" y="235.85009"/>
     <use style="fill:#1f77b4;stroke:#1f77b4;" x="351.046727" xlink:href="#me6d46aa932" y="221.619501"/>
     <use style="fill:#1f77b4;stroke:#1f77b4;" x="352.585374" xlink:href="#me6d46aa932" y="216.712402"/>
     <use style="fill:#1f77b4;stroke:#1f77b4;" x="354.124021" xlink:href="#me6d46aa932" y="214.749562"/>
     <use style="fill:#1f77b4;stroke:#1f77b4;" x="355.662669" xlink:href="#me6d46aa932" y="215.976337"/>
     <use style="fill:#1f77b4;stroke:#1f77b4;" x="357.201316" xlink:href="#me6d46aa932" y="207.388913"/>
     <use style="fill:#1f77b4;stroke:#1f77b4;" x="358.739963" xlink:href="#me6d46aa932" y="203.953943"/>
     <use style="fill:#1f77b4;stroke:#1f77b4;" x="360.27861" xlink:href="#me6d46aa932" y="206.162138"/>
     <use style="fill:#1f77b4;stroke:#1f77b4;" x="361.817257" xlink:href="#me6d46aa932" y="197.820069"/>
     <use style="fill:#1f77b4;stroke:#1f77b4;" x="363.355904" xlink:href="#me6d46aa932" y="198.065424"/>
     <use style="fill:#1f77b4;stroke:#1f77b4;" x="364.894551" xlink:href="#me6d46aa932" y="197.820069"/>
     <use style="fill:#1f77b4;stroke:#1f77b4;" x="366.433199" xlink:href="#me6d46aa932" y="204.444653"/>
     <use style="fill:#1f77b4;stroke:#1f77b4;" x="367.971846" xlink:href="#me6d46aa932" y="206.652848"/>
     <use style="fill:#1f77b4;stroke:#1f77b4;" x="369.510493" xlink:href="#me6d46aa932" y="220.883436"/>
     <use style="fill:#1f77b4;stroke:#1f77b4;" x="371.04914" xlink:href="#me6d46aa932" y="227.99873"/>
     <use style="fill:#1f77b4;stroke:#1f77b4;" x="372.587787" xlink:href="#me6d46aa932" y="234.623315"/>
     <use style="fill:#1f77b4;stroke:#1f77b4;" x="374.126434" xlink:href="#me6d46aa932" y="242.229319"/>
     <use style="fill:#1f77b4;stroke:#1f77b4;" x="375.665081" xlink:href="#me6d46aa932" y="257.441327"/>
     <use style="fill:#1f77b4;stroke:#1f77b4;" x="377.203728" xlink:href="#me6d46aa932" y="268.727655"/>
     <use style="fill:#1f77b4;stroke:#1f77b4;" x="378.742376" xlink:href="#me6d46aa932" y="272.162625"/>
     <use style="fill:#1f77b4;stroke:#1f77b4;" x="380.281023" xlink:href="#me6d46aa932" y="272.162625"/>
    </g>
   </g>
   <g id="line2d_16">
    <path clip-path="url(#p7809b47908)" d="M 55.626477 272.162625 
L 72.551596 272.162625 
L 74.090243 271.91727 
L 75.62889 272.162625 
L 86.39942 272.162625 
L 87.938067 271.91727 
L 91.015361 271.91727 
L 92.554009 272.162625 
L 94.092656 271.42656 
L 95.631303 271.91727 
L 97.16995 270.690495 
L 98.708597 271.671915 
L 100.247244 271.42656 
L 101.785891 272.162625 
L 103.324538 272.162625 
L 104.863186 271.181205 
L 107.94048 272.162625 
L 109.479127 271.91727 
L 111.017774 272.162625 
L 112.556421 272.162625 
L 114.095068 271.671915 
L 117.172363 272.162625 
L 121.788304 269.218365 
L 123.326951 270.690495 
L 124.865598 270.44514 
L 126.404245 269.709075 
L 127.942893 269.95443 
L 129.48154 269.95443 
L 131.020187 267.991591 
L 132.558834 265.783396 
L 134.097481 269.709075 
L 135.636128 269.218365 
L 137.174775 268.4823 
L 138.713423 267.991591 
L 140.25207 266.028751 
L 141.790717 267.255526 
L 143.329364 270.199785 
L 144.868011 268.727655 
L 147.945305 267.255526 
L 149.483952 263.329846 
L 151.0226 263.329846 
L 152.561247 258.177392 
L 154.099894 262.839136 
L 155.638541 263.084491 
L 157.177188 265.783396 
L 158.715835 255.233132 
L 161.79313 261.121651 
L 163.331777 262.103071 
L 164.870424 258.913457 
L 166.409071 264.801976 
L 167.947718 267.500881 
L 169.486365 260.876296 
L 171.025012 261.367006 
L 172.56366 260.876296 
L 174.102307 261.121651 
L 175.640954 261.612361 
L 177.179601 261.612361 
L 178.718248 262.839136 
L 180.256895 252.534227 
L 181.795542 249.589968 
L 183.334189 247.872483 
L 184.872837 241.247899 
L 186.411484 221.619501 
L 187.950131 233.151185 
L 189.488778 235.604735 
L 191.027425 214.258852 
L 192.566072 203.708588 
L 194.104719 200.273619 
L 195.643367 187.024451 
L 197.182014 176.228832 
L 198.720661 197.820069 
L 200.259308 207.634268 
L 201.797955 154.88295 
L 203.336602 154.637595 
L 204.875249 114.644735 
L 206.413896 115.626154 
L 207.952544 101.640921 
L 209.491191 159.544694 
L 211.029838 195.36652 
L 212.568485 144.087331 
L 214.107132 128.875323 
L 215.645779 141.633781 
L 217.184426 133.782422 
L 218.723074 133.291712 
L 220.261721 190.704775 
L 221.800368 183.344126 
L 223.339015 171.076378 
L 224.877662 164.206438 
L 226.416309 167.641408 
L 227.954956 163.715728 
L 229.493604 182.853416 
L 231.032251 221.374146 
L 232.570898 229.716215 
L 234.109545 200.518974 
L 235.648192 218.675242 
L 237.186839 227.508021 
L 238.725486 201.500394 
L 240.264133 198.065424 
L 241.802781 226.526601 
L 244.880075 243.701449 
L 246.418722 248.853903 
L 247.957369 250.080678 
L 249.496016 247.872483 
L 251.034663 244.682868 
L 252.573311 255.478487 
L 254.111958 263.575201 
L 255.650605 253.761002 
L 257.189252 253.515647 
L 258.727899 252.288872 
L 260.266546 257.441327 
L 261.805193 261.857716 
L 263.34384 265.783396 
L 264.882488 267.010171 
L 266.421135 261.121651 
L 267.959782 264.556621 
L 269.498429 262.839136 
L 271.037076 264.311266 
L 272.575723 266.274106 
L 274.11437 265.047331 
L 275.653018 265.783396 
L 277.191665 265.783396 
L 278.730312 261.367006 
L 280.268959 260.630941 
L 281.807606 251.062098 
L 283.346253 261.612361 
L 284.8849 265.538041 
L 286.423548 263.084491 
L 287.962195 259.649522 
L 289.500842 264.801976 
L 291.039489 258.668102 
L 294.116783 262.103071 
L 295.65543 264.065911 
L 297.194077 265.292686 
L 298.732725 261.367006 
L 300.271372 262.103071 
L 301.810019 260.630941 
L 303.348666 258.422747 
L 304.887313 262.348426 
L 306.42596 254.251712 
L 307.964607 254.251712 
L 309.503255 259.649522 
L 311.041902 262.593781 
L 312.580549 255.969197 
L 314.119196 257.441327 
L 315.657843 256.459907 
L 317.19649 259.404167 
L 318.735137 261.121651 
L 320.273784 255.969197 
L 321.812432 247.381773 
L 323.351079 253.024937 
L 324.889726 247.872483 
L 326.428373 246.645708 
L 327.96702 246.891063 
L 329.505667 242.720029 
L 331.044314 237.567574 
L 332.582962 239.285059 
L 334.121609 221.374146 
L 335.660256 213.032077 
L 337.198903 205.671428 
L 338.73755 224.073051 
L 340.276197 225.545181 
L 341.814844 213.032077 
L 343.353491 226.035891 
L 344.892139 179.663801 
L 346.430786 170.094958 
L 347.969433 173.775282 
L 349.50808 188.49658 
L 351.046727 205.426073 
L 352.585374 188.251225 
L 354.124021 158.317919 
L 355.662669 121.514674 
L 357.201316 114.89009 
L 358.739963 122.496094 
L 360.27861 158.072564 
L 361.817257 153.165465 
L 363.355904 116.607574 
L 364.894551 62.138771 
L 366.433199 54.042057 
L 367.971846 91.581367 
L 369.510493 84.220718 
L 371.04914 92.317432 
L 372.587787 123.477513 
L 374.126434 43.001083 
L 375.665081 30.242625 
L 377.203728 42.265019 
L 378.742376 68.272645 
L 380.281023 156.355079 
L 380.281023 156.355079 
" style="fill:none;stroke:#ff7f0e;stroke-linecap:square;stroke-width:1.5;"/>
    <defs>
     <path d="M 0 3 
C 0.795609 3 1.55874 2.683901 2.12132 2.12132 
C 2.683901 1.55874 3 0.795609 3 0 
C 3 -0.795609 2.683901 -1.55874 2.12132 -2.12132 
C 1.55874 -2.683901 0.795609 -3 0 -3 
C -0.795609 -3 -1.55874 -2.683901 -2.12132 -2.12132 
C -2.683901 -1.55874 -3 -0.795609 -3 0 
C -3 0.795609 -2.683901 1.55874 -2.12132 2.12132 
C -1.55874 2.683901 -0.795609 3 0 3 
z
" id="m0dc481ca61" style="stroke:#ff7f0e;"/>
    </defs>
    <g clip-path="url(#p7809b47908)">
     <use style="fill:#ff7f0e;stroke:#ff7f0e;" x="55.626477" xlink:href="#m0dc481ca61" y="272.162625"/>
     <use style="fill:#ff7f0e;stroke:#ff7f0e;" x="57.165124" xlink:href="#m0dc481ca61" y="272.162625"/>
     <use style="fill:#ff7f0e;stroke:#ff7f0e;" x="58.703772" xlink:href="#m0dc481ca61" y="272.162625"/>
     <use style="fill:#ff7f0e;stroke:#ff7f0e;" x="60.242419" xlink:href="#m0dc481ca61" y="272.162625"/>
     <use style="fill:#ff7f0e;stroke:#ff7f0e;" x="61.781066" xlink:href="#m0dc481ca61" y="272.162625"/>
     <use style="fill:#ff7f0e;stroke:#ff7f0e;" x="63.319713" xlink:href="#m0dc481ca61" y="272.162625"/>
     <use style="fill:#ff7f0e;stroke:#ff7f0e;" x="64.85836" xlink:href="#m0dc481ca61" y="272.162625"/>
     <use style="fill:#ff7f0e;stroke:#ff7f0e;" x="66.397007" xlink:href="#m0dc481ca61" y="272.162625"/>
     <use style="fill:#ff7f0e;stroke:#ff7f0e;" x="67.935654" xlink:href="#m0dc481ca61" y="272.162625"/>
     <use style="fill:#ff7f0e;stroke:#ff7f0e;" x="69.474301" xlink:href="#m0dc481ca61" y="272.162625"/>
     <use style="fill:#ff7f0e;stroke:#ff7f0e;" x="71.012949" xlink:href="#m0dc481ca61" y="272.162625"/>
     <use style="fill:#ff7f0e;stroke:#ff7f0e;" x="72.551596" xlink:href="#m0dc481ca61" y="272.162625"/>
     <use style="fill:#ff7f0e;stroke:#ff7f0e;" x="74.090243" xlink:href="#m0dc481ca61" y="271.91727"/>
     <use style="fill:#ff7f0e;stroke:#ff7f0e;" x="75.62889" xlink:href="#m0dc481ca61" y="272.162625"/>
     <use style="fill:#ff7f0e;stroke:#ff7f0e;" x="77.167537" xlink:href="#m0dc481ca61" y="272.162625"/>
     <use style="fill:#ff7f0e;stroke:#ff7f0e;" x="78.706184" xlink:href="#m0dc481ca61" y="272.162625"/>
     <use style="fill:#ff7f0e;stroke:#ff7f0e;" x="80.244831" xlink:href="#m0dc481ca61" y="272.162625"/>
     <use style="fill:#ff7f0e;stroke:#ff7f0e;" x="81.783479" xlink:href="#m0dc481ca61" y="272.162625"/>
     <use style="fill:#ff7f0e;stroke:#ff7f0e;" x="83.322126" xlink:href="#m0dc481ca61" y="272.162625"/>
     <use style="fill:#ff7f0e;stroke:#ff7f0e;" x="84.860773" xlink:href="#m0dc481ca61" y="272.162625"/>
     <use style="fill:#ff7f0e;stroke:#ff7f0e;" x="86.39942" xlink:href="#m0dc481ca61" y="272.162625"/>
     <use style="fill:#ff7f0e;stroke:#ff7f0e;" x="87.938067" xlink:href="#m0dc481ca61" y="271.91727"/>
     <use style="fill:#ff7f0e;stroke:#ff7f0e;" x="89.476714" xlink:href="#m0dc481ca61" y="271.91727"/>
     <use style="fill:#ff7f0e;stroke:#ff7f0e;" x="91.015361" xlink:href="#m0dc481ca61" y="271.91727"/>
     <use style="fill:#ff7f0e;stroke:#ff7f0e;" x="92.554009" xlink:href="#m0dc481ca61" y="272.162625"/>
     <use style="fill:#ff7f0e;stroke:#ff7f0e;" x="94.092656" xlink:href="#m0dc481ca61" y="271.42656"/>
     <use style="fill:#ff7f0e;stroke:#ff7f0e;" x="95.631303" xlink:href="#m0dc481ca61" y="271.91727"/>
     <use style="fill:#ff7f0e;stroke:#ff7f0e;" x="97.16995" xlink:href="#m0dc481ca61" y="270.690495"/>
     <use style="fill:#ff7f0e;stroke:#ff7f0e;" x="98.708597" xlink:href="#m0dc481ca61" y="271.671915"/>
     <use style="fill:#ff7f0e;stroke:#ff7f0e;" x="100.247244" xlink:href="#m0dc481ca61" y="271.42656"/>
     <use style="fill:#ff7f0e;stroke:#ff7f0e;" x="101.785891" xlink:href="#m0dc481ca61" y="272.162625"/>
     <use style="fill:#ff7f0e;stroke:#ff7f0e;" x="103.324538" xlink:href="#m0dc481ca61" y="272.162625"/>
     <use style="fill:#ff7f0e;stroke:#ff7f0e;" x="104.863186" xlink:href="#m0dc481ca61" y="271.181205"/>
     <use style="fill:#ff7f0e;stroke:#ff7f0e;" x="106.401833" xlink:href="#m0dc481ca61" y="271.671915"/>
     <use style="fill:#ff7f0e;stroke:#ff7f0e;" x="107.94048" xlink:href="#m0dc481ca61" y="272.162625"/>
     <use style="fill:#ff7f0e;stroke:#ff7f0e;" x="109.479127" xlink:href="#m0dc481ca61" y="271.91727"/>
     <use style="fill:#ff7f0e;stroke:#ff7f0e;" x="111.017774" xlink:href="#m0dc481ca61" y="272.162625"/>
     <use style="fill:#ff7f0e;stroke:#ff7f0e;" x="112.556421" xlink:href="#m0dc481ca61" y="272.162625"/>
     <use style="fill:#ff7f0e;stroke:#ff7f0e;" x="114.095068" xlink:href="#m0dc481ca61" y="271.671915"/>
     <use style="fill:#ff7f0e;stroke:#ff7f0e;" x="115.633716" xlink:href="#m0dc481ca61" y="271.91727"/>
     <use style="fill:#ff7f0e;stroke:#ff7f0e;" x="117.172363" xlink:href="#m0dc481ca61" y="272.162625"/>
     <use style="fill:#ff7f0e;stroke:#ff7f0e;" x="118.71101" xlink:href="#m0dc481ca61" y="271.181205"/>
     <use style="fill:#ff7f0e;stroke:#ff7f0e;" x="120.249657" xlink:href="#m0dc481ca61" y="270.199785"/>
     <use style="fill:#ff7f0e;stroke:#ff7f0e;" x="121.788304" xlink:href="#m0dc481ca61" y="269.218365"/>
     <use style="fill:#ff7f0e;stroke:#ff7f0e;" x="123.326951" xlink:href="#m0dc481ca61" y="270.690495"/>
     <use style="fill:#ff7f0e;stroke:#ff7f0e;" x="124.865598" xlink:href="#m0dc481ca61" y="270.44514"/>
     <use style="fill:#ff7f0e;stroke:#ff7f0e;" x="126.404245" xlink:href="#m0dc481ca61" y="269.709075"/>
     <use style="fill:#ff7f0e;stroke:#ff7f0e;" x="127.942893" xlink:href="#m0dc481ca61" y="269.95443"/>
     <use style="fill:#ff7f0e;stroke:#ff7f0e;" x="129.48154" xlink:href="#m0dc481ca61" y="269.95443"/>
     <use style="fill:#ff7f0e;stroke:#ff7f0e;" x="131.020187" xlink:href="#m0dc481ca61" y="267.991591"/>
     <use style="fill:#ff7f0e;stroke:#ff7f0e;" x="132.558834" xlink:href="#m0dc481ca61" y="265.783396"/>
     <use style="fill:#ff7f0e;stroke:#ff7f0e;" x="134.097481" xlink:href="#m0dc481ca61" y="269.709075"/>
     <use style="fill:#ff7f0e;stroke:#ff7f0e;" x="135.636128" xlink:href="#m0dc481ca61" y="269.218365"/>
     <use style="fill:#ff7f0e;stroke:#ff7f0e;" x="137.174775" xlink:href="#m0dc481ca61" y="268.4823"/>
     <use style="fill:#ff7f0e;stroke:#ff7f0e;" x="138.713423" xlink:href="#m0dc481ca61" y="267.991591"/>
     <use style="fill:#ff7f0e;stroke:#ff7f0e;" x="140.25207" xlink:href="#m0dc481ca61" y="266.028751"/>
     <use style="fill:#ff7f0e;stroke:#ff7f0e;" x="141.790717" xlink:href="#m0dc481ca61" y="267.255526"/>
     <use style="fill:#ff7f0e;stroke:#ff7f0e;" x="143.329364" xlink:href="#m0dc481ca61" y="270.199785"/>
     <use style="fill:#ff7f0e;stroke:#ff7f0e;" x="144.868011" xlink:href="#m0dc481ca61" y="268.727655"/>
     <use style="fill:#ff7f0e;stroke:#ff7f0e;" x="146.406658" xlink:href="#m0dc481ca61" y="267.991591"/>
     <use style="fill:#ff7f0e;stroke:#ff7f0e;" x="147.945305" xlink:href="#m0dc481ca61" y="267.255526"/>
     <use style="fill:#ff7f0e;stroke:#ff7f0e;" x="149.483952" xlink:href="#m0dc481ca61" y="263.329846"/>
     <use style="fill:#ff7f0e;stroke:#ff7f0e;" x="151.0226" xlink:href="#m0dc481ca61" y="263.329846"/>
     <use style="fill:#ff7f0e;stroke:#ff7f0e;" x="152.561247" xlink:href="#m0dc481ca61" y="258.177392"/>
     <use style="fill:#ff7f0e;stroke:#ff7f0e;" x="154.099894" xlink:href="#m0dc481ca61" y="262.839136"/>
     <use style="fill:#ff7f0e;stroke:#ff7f0e;" x="155.638541" xlink:href="#m0dc481ca61" y="263.084491"/>
     <use style="fill:#ff7f0e;stroke:#ff7f0e;" x="157.177188" xlink:href="#m0dc481ca61" y="265.783396"/>
     <use style="fill:#ff7f0e;stroke:#ff7f0e;" x="158.715835" xlink:href="#m0dc481ca61" y="255.233132"/>
     <use style="fill:#ff7f0e;stroke:#ff7f0e;" x="160.254482" xlink:href="#m0dc481ca61" y="258.177392"/>
     <use style="fill:#ff7f0e;stroke:#ff7f0e;" x="161.79313" xlink:href="#m0dc481ca61" y="261.121651"/>
     <use style="fill:#ff7f0e;stroke:#ff7f0e;" x="163.331777" xlink:href="#m0dc481ca61" y="262.103071"/>
     <use style="fill:#ff7f0e;stroke:#ff7f0e;" x="164.870424" xlink:href="#m0dc481ca61" y="258.913457"/>
     <use style="fill:#ff7f0e;stroke:#ff7f0e;" x="166.409071" xlink:href="#m0dc481ca61" y="264.801976"/>
     <use style="fill:#ff7f0e;stroke:#ff7f0e;" x="167.947718" xlink:href="#m0dc481ca61" y="267.500881"/>
     <use style="fill:#ff7f0e;stroke:#ff7f0e;" x="169.486365" xlink:href="#m0dc481ca61" y="260.876296"/>
     <use style="fill:#ff7f0e;stroke:#ff7f0e;" x="171.025012" xlink:href="#m0dc481ca61" y="261.367006"/>
     <use style="fill:#ff7f0e;stroke:#ff7f0e;" x="172.56366" xlink:href="#m0dc481ca61" y="260.876296"/>
     <use style="fill:#ff7f0e;stroke:#ff7f0e;" x="174.102307" xlink:href="#m0dc481ca61" y="261.121651"/>
     <use style="fill:#ff7f0e;stroke:#ff7f0e;" x="175.640954" xlink:href="#m0dc481ca61" y="261.612361"/>
     <use style="fill:#ff7f0e;stroke:#ff7f0e;" x="177.179601" xlink:href="#m0dc481ca61" y="261.612361"/>
     <use style="fill:#ff7f0e;stroke:#ff7f0e;" x="178.718248" xlink:href="#m0dc481ca61" y="262.839136"/>
     <use style="fill:#ff7f0e;stroke:#ff7f0e;" x="180.256895" xlink:href="#m0dc481ca61" y="252.534227"/>
     <use style="fill:#ff7f0e;stroke:#ff7f0e;" x="181.795542" xlink:href="#m0dc481ca61" y="249.589968"/>
     <use style="fill:#ff7f0e;stroke:#ff7f0e;" x="183.334189" xlink:href="#m0dc481ca61" y="247.872483"/>
     <use style="fill:#ff7f0e;stroke:#ff7f0e;" x="184.872837" xlink:href="#m0dc481ca61" y="241.247899"/>
     <use style="fill:#ff7f0e;stroke:#ff7f0e;" x="186.411484" xlink:href="#m0dc481ca61" y="221.619501"/>
     <use style="fill:#ff7f0e;stroke:#ff7f0e;" x="187.950131" xlink:href="#m0dc481ca61" y="233.151185"/>
     <use style="fill:#ff7f0e;stroke:#ff7f0e;" x="189.488778" xlink:href="#m0dc481ca61" y="235.604735"/>
     <use style="fill:#ff7f0e;stroke:#ff7f0e;" x="191.027425" xlink:href="#m0dc481ca61" y="214.258852"/>
     <use style="fill:#ff7f0e;stroke:#ff7f0e;" x="192.566072" xlink:href="#m0dc481ca61" y="203.708588"/>
     <use style="fill:#ff7f0e;stroke:#ff7f0e;" x="194.104719" xlink:href="#m0dc481ca61" y="200.273619"/>
     <use style="fill:#ff7f0e;stroke:#ff7f0e;" x="195.643367" xlink:href="#m0dc481ca61" y="187.024451"/>
     <use style="fill:#ff7f0e;stroke:#ff7f0e;" x="197.182014" xlink:href="#m0dc481ca61" y="176.228832"/>
     <use style="fill:#ff7f0e;stroke:#ff7f0e;" x="198.720661" xlink:href="#m0dc481ca61" y="197.820069"/>
     <use style="fill:#ff7f0e;stroke:#ff7f0e;" x="200.259308" xlink:href="#m0dc481ca61" y="207.634268"/>
     <use style="fill:#ff7f0e;stroke:#ff7f0e;" x="201.797955" xlink:href="#m0dc481ca61" y="154.88295"/>
     <use style="fill:#ff7f0e;stroke:#ff7f0e;" x="203.336602" xlink:href="#m0dc481ca61" y="154.637595"/>
     <use style="fill:#ff7f0e;stroke:#ff7f0e;" x="204.875249" xlink:href="#m0dc481ca61" y="114.644735"/>
     <use style="fill:#ff7f0e;stroke:#ff7f0e;" x="206.413896" xlink:href="#m0dc481ca61" y="115.626154"/>
     <use style="fill:#ff7f0e;stroke:#ff7f0e;" x="207.952544" xlink:href="#m0dc481ca61" y="101.640921"/>
     <use style="fill:#ff7f0e;stroke:#ff7f0e;" x="209.491191" xlink:href="#m0dc481ca61" y="159.544694"/>
     <use style="fill:#ff7f0e;stroke:#ff7f0e;" x="211.029838" xlink:href="#m0dc481ca61" y="195.36652"/>
     <use style="fill:#ff7f0e;stroke:#ff7f0e;" x="212.568485" xlink:href="#m0dc481ca61" y="144.087331"/>
     <use style="fill:#ff7f0e;stroke:#ff7f0e;" x="214.107132" xlink:href="#m0dc481ca61" y="128.875323"/>
     <use style="fill:#ff7f0e;stroke:#ff7f0e;" x="215.645779" xlink:href="#m0dc481ca61" y="141.633781"/>
     <use style="fill:#ff7f0e;stroke:#ff7f0e;" x="217.184426" xlink:href="#m0dc481ca61" y="133.782422"/>
     <use style="fill:#ff7f0e;stroke:#ff7f0e;" x="218.723074" xlink:href="#m0dc481ca61" y="133.291712"/>
     <use style="fill:#ff7f0e;stroke:#ff7f0e;" x="220.261721" xlink:href="#m0dc481ca61" y="190.704775"/>
     <use style="fill:#ff7f0e;stroke:#ff7f0e;" x="221.800368" xlink:href="#m0dc481ca61" y="183.344126"/>
     <use style="fill:#ff7f0e;stroke:#ff7f0e;" x="223.339015" xlink:href="#m0dc481ca61" y="171.076378"/>
     <use style="fill:#ff7f0e;stroke:#ff7f0e;" x="224.877662" xlink:href="#m0dc481ca61" y="164.206438"/>
     <use style="fill:#ff7f0e;stroke:#ff7f0e;" x="226.416309" xlink:href="#m0dc481ca61" y="167.641408"/>
     <use style="fill:#ff7f0e;stroke:#ff7f0e;" x="227.954956" xlink:href="#m0dc481ca61" y="163.715728"/>
     <use style="fill:#ff7f0e;stroke:#ff7f0e;" x="229.493604" xlink:href="#m0dc481ca61" y="182.853416"/>
     <use style="fill:#ff7f0e;stroke:#ff7f0e;" x="231.032251" xlink:href="#m0dc481ca61" y="221.374146"/>
     <use style="fill:#ff7f0e;stroke:#ff7f0e;" x="232.570898" xlink:href="#m0dc481ca61" y="229.716215"/>
     <use style="fill:#ff7f0e;stroke:#ff7f0e;" x="234.109545" xlink:href="#m0dc481ca61" y="200.518974"/>
     <use style="fill:#ff7f0e;stroke:#ff7f0e;" x="235.648192" xlink:href="#m0dc481ca61" y="218.675242"/>
     <use style="fill:#ff7f0e;stroke:#ff7f0e;" x="237.186839" xlink:href="#m0dc481ca61" y="227.508021"/>
     <use style="fill:#ff7f0e;stroke:#ff7f0e;" x="238.725486" xlink:href="#m0dc481ca61" y="201.500394"/>
     <use style="fill:#ff7f0e;stroke:#ff7f0e;" x="240.264133" xlink:href="#m0dc481ca61" y="198.065424"/>
     <use style="fill:#ff7f0e;stroke:#ff7f0e;" x="241.802781" xlink:href="#m0dc481ca61" y="226.526601"/>
     <use style="fill:#ff7f0e;stroke:#ff7f0e;" x="243.341428" xlink:href="#m0dc481ca61" y="235.114025"/>
     <use style="fill:#ff7f0e;stroke:#ff7f0e;" x="244.880075" xlink:href="#m0dc481ca61" y="243.701449"/>
     <use style="fill:#ff7f0e;stroke:#ff7f0e;" x="246.418722" xlink:href="#m0dc481ca61" y="248.853903"/>
     <use style="fill:#ff7f0e;stroke:#ff7f0e;" x="247.957369" xlink:href="#m0dc481ca61" y="250.080678"/>
     <use style="fill:#ff7f0e;stroke:#ff7f0e;" x="249.496016" xlink:href="#m0dc481ca61" y="247.872483"/>
     <use style="fill:#ff7f0e;stroke:#ff7f0e;" x="251.034663" xlink:href="#m0dc481ca61" y="244.682868"/>
     <use style="fill:#ff7f0e;stroke:#ff7f0e;" x="252.573311" xlink:href="#m0dc481ca61" y="255.478487"/>
     <use style="fill:#ff7f0e;stroke:#ff7f0e;" x="254.111958" xlink:href="#m0dc481ca61" y="263.575201"/>
     <use style="fill:#ff7f0e;stroke:#ff7f0e;" x="255.650605" xlink:href="#m0dc481ca61" y="253.761002"/>
     <use style="fill:#ff7f0e;stroke:#ff7f0e;" x="257.189252" xlink:href="#m0dc481ca61" y="253.515647"/>
     <use style="fill:#ff7f0e;stroke:#ff7f0e;" x="258.727899" xlink:href="#m0dc481ca61" y="252.288872"/>
     <use style="fill:#ff7f0e;stroke:#ff7f0e;" x="260.266546" xlink:href="#m0dc481ca61" y="257.441327"/>
     <use style="fill:#ff7f0e;stroke:#ff7f0e;" x="261.805193" xlink:href="#m0dc481ca61" y="261.857716"/>
     <use style="fill:#ff7f0e;stroke:#ff7f0e;" x="263.34384" xlink:href="#m0dc481ca61" y="265.783396"/>
     <use style="fill:#ff7f0e;stroke:#ff7f0e;" x="264.882488" xlink:href="#m0dc481ca61" y="267.010171"/>
     <use style="fill:#ff7f0e;stroke:#ff7f0e;" x="266.421135" xlink:href="#m0dc481ca61" y="261.121651"/>
     <use style="fill:#ff7f0e;stroke:#ff7f0e;" x="267.959782" xlink:href="#m0dc481ca61" y="264.556621"/>
     <use style="fill:#ff7f0e;stroke:#ff7f0e;" x="269.498429" xlink:href="#m0dc481ca61" y="262.839136"/>
     <use style="fill:#ff7f0e;stroke:#ff7f0e;" x="271.037076" xlink:href="#m0dc481ca61" y="264.311266"/>
     <use style="fill:#ff7f0e;stroke:#ff7f0e;" x="272.575723" xlink:href="#m0dc481ca61" y="266.274106"/>
     <use style="fill:#ff7f0e;stroke:#ff7f0e;" x="274.11437" xlink:href="#m0dc481ca61" y="265.047331"/>
     <use style="fill:#ff7f0e;stroke:#ff7f0e;" x="275.653018" xlink:href="#m0dc481ca61" y="265.783396"/>
     <use style="fill:#ff7f0e;stroke:#ff7f0e;" x="277.191665" xlink:href="#m0dc481ca61" y="265.783396"/>
     <use style="fill:#ff7f0e;stroke:#ff7f0e;" x="278.730312" xlink:href="#m0dc481ca61" y="261.367006"/>
     <use style="fill:#ff7f0e;stroke:#ff7f0e;" x="280.268959" xlink:href="#m0dc481ca61" y="260.630941"/>
     <use style="fill:#ff7f0e;stroke:#ff7f0e;" x="281.807606" xlink:href="#m0dc481ca61" y="251.062098"/>
     <use style="fill:#ff7f0e;stroke:#ff7f0e;" x="283.346253" xlink:href="#m0dc481ca61" y="261.612361"/>
     <use style="fill:#ff7f0e;stroke:#ff7f0e;" x="284.8849" xlink:href="#m0dc481ca61" y="265.538041"/>
     <use style="fill:#ff7f0e;stroke:#ff7f0e;" x="286.423548" xlink:href="#m0dc481ca61" y="263.084491"/>
     <use style="fill:#ff7f0e;stroke:#ff7f0e;" x="287.962195" xlink:href="#m0dc481ca61" y="259.649522"/>
     <use style="fill:#ff7f0e;stroke:#ff7f0e;" x="289.500842" xlink:href="#m0dc481ca61" y="264.801976"/>
     <use style="fill:#ff7f0e;stroke:#ff7f0e;" x="291.039489" xlink:href="#m0dc481ca61" y="258.668102"/>
     <use style="fill:#ff7f0e;stroke:#ff7f0e;" x="292.578136" xlink:href="#m0dc481ca61" y="260.385586"/>
     <use style="fill:#ff7f0e;stroke:#ff7f0e;" x="294.116783" xlink:href="#m0dc481ca61" y="262.103071"/>
     <use style="fill:#ff7f0e;stroke:#ff7f0e;" x="295.65543" xlink:href="#m0dc481ca61" y="264.065911"/>
     <use style="fill:#ff7f0e;stroke:#ff7f0e;" x="297.194077" xlink:href="#m0dc481ca61" y="265.292686"/>
     <use style="fill:#ff7f0e;stroke:#ff7f0e;" x="298.732725" xlink:href="#m0dc481ca61" y="261.367006"/>
     <use style="fill:#ff7f0e;stroke:#ff7f0e;" x="300.271372" xlink:href="#m0dc481ca61" y="262.103071"/>
     <use style="fill:#ff7f0e;stroke:#ff7f0e;" x="301.810019" xlink:href="#m0dc481ca61" y="260.630941"/>
     <use style="fill:#ff7f0e;stroke:#ff7f0e;" x="303.348666" xlink:href="#m0dc481ca61" y="258.422747"/>
     <use style="fill:#ff7f0e;stroke:#ff7f0e;" x="304.887313" xlink:href="#m0dc481ca61" y="262.348426"/>
     <use style="fill:#ff7f0e;stroke:#ff7f0e;" x="306.42596" xlink:href="#m0dc481ca61" y="254.251712"/>
     <use style="fill:#ff7f0e;stroke:#ff7f0e;" x="307.964607" xlink:href="#m0dc481ca61" y="254.251712"/>
     <use style="fill:#ff7f0e;stroke:#ff7f0e;" x="309.503255" xlink:href="#m0dc481ca61" y="259.649522"/>
     <use style="fill:#ff7f0e;stroke:#ff7f0e;" x="311.041902" xlink:href="#m0dc481ca61" y="262.593781"/>
     <use style="fill:#ff7f0e;stroke:#ff7f0e;" x="312.580549" xlink:href="#m0dc481ca61" y="255.969197"/>
     <use style="fill:#ff7f0e;stroke:#ff7f0e;" x="314.119196" xlink:href="#m0dc481ca61" y="257.441327"/>
     <use style="fill:#ff7f0e;stroke:#ff7f0e;" x="315.657843" xlink:href="#m0dc481ca61" y="256.459907"/>
     <use style="fill:#ff7f0e;stroke:#ff7f0e;" x="317.19649" xlink:href="#m0dc481ca61" y="259.404167"/>
     <use style="fill:#ff7f0e;stroke:#ff7f0e;" x="318.735137" xlink:href="#m0dc481ca61" y="261.121651"/>
     <use style="fill:#ff7f0e;stroke:#ff7f0e;" x="320.273784" xlink:href="#m0dc481ca61" y="255.969197"/>
     <use style="fill:#ff7f0e;stroke:#ff7f0e;" x="321.812432" xlink:href="#m0dc481ca61" y="247.381773"/>
     <use style="fill:#ff7f0e;stroke:#ff7f0e;" x="323.351079" xlink:href="#m0dc481ca61" y="253.024937"/>
     <use style="fill:#ff7f0e;stroke:#ff7f0e;" x="324.889726" xlink:href="#m0dc481ca61" y="247.872483"/>
     <use style="fill:#ff7f0e;stroke:#ff7f0e;" x="326.428373" xlink:href="#m0dc481ca61" y="246.645708"/>
     <use style="fill:#ff7f0e;stroke:#ff7f0e;" x="327.96702" xlink:href="#m0dc481ca61" y="246.891063"/>
     <use style="fill:#ff7f0e;stroke:#ff7f0e;" x="329.505667" xlink:href="#m0dc481ca61" y="242.720029"/>
     <use style="fill:#ff7f0e;stroke:#ff7f0e;" x="331.044314" xlink:href="#m0dc481ca61" y="237.567574"/>
     <use style="fill:#ff7f0e;stroke:#ff7f0e;" x="332.582962" xlink:href="#m0dc481ca61" y="239.285059"/>
     <use style="fill:#ff7f0e;stroke:#ff7f0e;" x="334.121609" xlink:href="#m0dc481ca61" y="221.374146"/>
     <use style="fill:#ff7f0e;stroke:#ff7f0e;" x="335.660256" xlink:href="#m0dc481ca61" y="213.032077"/>
     <use style="fill:#ff7f0e;stroke:#ff7f0e;" x="337.198903" xlink:href="#m0dc481ca61" y="205.671428"/>
     <use style="fill:#ff7f0e;stroke:#ff7f0e;" x="338.73755" xlink:href="#m0dc481ca61" y="224.073051"/>
     <use style="fill:#ff7f0e;stroke:#ff7f0e;" x="340.276197" xlink:href="#m0dc481ca61" y="225.545181"/>
     <use style="fill:#ff7f0e;stroke:#ff7f0e;" x="341.814844" xlink:href="#m0dc481ca61" y="213.032077"/>
     <use style="fill:#ff7f0e;stroke:#ff7f0e;" x="343.353491" xlink:href="#m0dc481ca61" y="226.035891"/>
     <use style="fill:#ff7f0e;stroke:#ff7f0e;" x="344.892139" xlink:href="#m0dc481ca61" y="179.663801"/>
     <use style="fill:#ff7f0e;stroke:#ff7f0e;" x="346.430786" xlink:href="#m0dc481ca61" y="170.094958"/>
     <use style="fill:#ff7f0e;stroke:#ff7f0e;" x="347.969433" xlink:href="#m0dc481ca61" y="173.775282"/>
     <use style="fill:#ff7f0e;stroke:#ff7f0e;" x="349.50808" xlink:href="#m0dc481ca61" y="188.49658"/>
     <use style="fill:#ff7f0e;stroke:#ff7f0e;" x="351.046727" xlink:href="#m0dc481ca61" y="205.426073"/>
     <use style="fill:#ff7f0e;stroke:#ff7f0e;" x="352.585374" xlink:href="#m0dc481ca61" y="188.251225"/>
     <use style="fill:#ff7f0e;stroke:#ff7f0e;" x="354.124021" xlink:href="#m0dc481ca61" y="158.317919"/>
     <use style="fill:#ff7f0e;stroke:#ff7f0e;" x="355.662669" xlink:href="#m0dc481ca61" y="121.514674"/>
     <use style="fill:#ff7f0e;stroke:#ff7f0e;" x="357.201316" xlink:href="#m0dc481ca61" y="114.89009"/>
     <use style="fill:#ff7f0e;stroke:#ff7f0e;" x="358.739963" xlink:href="#m0dc481ca61" y="122.496094"/>
     <use style="fill:#ff7f0e;stroke:#ff7f0e;" x="360.27861" xlink:href="#m0dc481ca61" y="158.072564"/>
     <use style="fill:#ff7f0e;stroke:#ff7f0e;" x="361.817257" xlink:href="#m0dc481ca61" y="153.165465"/>
     <use style="fill:#ff7f0e;stroke:#ff7f0e;" x="363.355904" xlink:href="#m0dc481ca61" y="116.607574"/>
     <use style="fill:#ff7f0e;stroke:#ff7f0e;" x="364.894551" xlink:href="#m0dc481ca61" y="62.138771"/>
     <use style="fill:#ff7f0e;stroke:#ff7f0e;" x="366.433199" xlink:href="#m0dc481ca61" y="54.042057"/>
     <use style="fill:#ff7f0e;stroke:#ff7f0e;" x="367.971846" xlink:href="#m0dc481ca61" y="91.581367"/>
     <use style="fill:#ff7f0e;stroke:#ff7f0e;" x="369.510493" xlink:href="#m0dc481ca61" y="84.220718"/>
     <use style="fill:#ff7f0e;stroke:#ff7f0e;" x="371.04914" xlink:href="#m0dc481ca61" y="92.317432"/>
     <use style="fill:#ff7f0e;stroke:#ff7f0e;" x="372.587787" xlink:href="#m0dc481ca61" y="123.477513"/>
     <use style="fill:#ff7f0e;stroke:#ff7f0e;" x="374.126434" xlink:href="#m0dc481ca61" y="43.001083"/>
     <use style="fill:#ff7f0e;stroke:#ff7f0e;" x="375.665081" xlink:href="#m0dc481ca61" y="30.242625"/>
     <use style="fill:#ff7f0e;stroke:#ff7f0e;" x="377.203728" xlink:href="#m0dc481ca61" y="42.265019"/>
     <use style="fill:#ff7f0e;stroke:#ff7f0e;" x="378.742376" xlink:href="#m0dc481ca61" y="68.272645"/>
     <use style="fill:#ff7f0e;stroke:#ff7f0e;" x="380.281023" xlink:href="#m0dc481ca61" y="156.355079"/>
    </g>
   </g>
   <g id="patch_3">
    <path d="M 39.39375 284.258625 
L 39.39375 18.146625 
" style="fill:none;stroke:#000000;stroke-linecap:square;stroke-linejoin:miter;stroke-width:0.8;"/>
   </g>
   <g id="patch_4">
    <path d="M 396.51375 284.258625 
L 396.51375 18.146625 
" style="fill:none;stroke:#000000;stroke-linecap:square;stroke-linejoin:miter;stroke-width:0.8;"/>
   </g>
   <g id="patch_5">
    <path d="M 39.39375 284.258625 
L 396.51375 284.258625 
" style="fill:none;stroke:#000000;stroke-linecap:square;stroke-linejoin:miter;stroke-width:0.8;"/>
   </g>
   <g id="patch_6">
    <path d="M 39.39375 18.146625 
L 396.51375 18.146625 
" style="fill:none;stroke:#000000;stroke-linecap:square;stroke-linejoin:miter;stroke-width:0.8;"/>
   </g>
   <g id="legend_1">
    <g id="patch_7">
     <path d="M 46.39375 56.29975 
L 165.376563 56.29975 
Q 167.376563 56.29975 167.376563 54.29975 
L 167.376563 25.146625 
Q 167.376563 23.146625 165.376563 23.146625 
L 46.39375 23.146625 
Q 44.39375 23.146625 44.39375 25.146625 
L 44.39375 54.29975 
Q 44.39375 56.29975 46.39375 56.29975 
z
" style="fill:#ffffff;opacity:0.8;stroke:#cccccc;stroke-linejoin:miter;"/>
    </g>
    <g id="line2d_17">
     <path d="M 48.39375 31.766937 
L 68.39375 31.766937 
" style="fill:none;stroke:#1f77b4;stroke-linecap:square;stroke-width:1.5;"/>
    </g>
    <g id="line2d_18">
     <g>
      <use style="fill:#1f77b4;stroke:#1f77b4;" x="58.39375" xlink:href="#me6d46aa932" y="31.766937"/>
     </g>
    </g>
    <g id="text_16">
     <!--  (onset) -->
     <g transform="translate(76.39375 35.266937)scale(0.1 -0.1)">
      <defs>
       <path d="M 73.734375 56.84375 
Q 80.609375 62.75 85.203125 68.609375 
L 91.109375 64.40625 
Q 84.46875 57.8125 78.71875 53.328125 
Q 85.9375 48.6875 95.40625 44.625 
L 90.625 38.375 
Q 81.734375 42.78125 73.53125 48.640625 
L 73.53125 43.3125 
L 64.109375 43.3125 
L 64.109375 29.984375 
L 89.890625 29.984375 
L 89.890625 23.78125 
L 64.109375 23.78125 
L 64.109375 5.609375 
Q 64.109375 2.484375 65.71875 2.046875 
Q 67.390625 1.46875 73.09375 1.46875 
Q 82.125 1.46875 83.59375 2.984375 
Q 85.0625 4.4375 85.5 11.96875 
Q 85.5 13.484375 85.59375 14.0625 
L 92.625 11.578125 
Q 92.1875 0.390625 89.703125 -2.203125 
Q 87.0625 -5.328125 72.609375 -5.328125 
Q 63.8125 -5.328125 60.9375 -4 
Q 57.03125 -2.34375 57.03125 3.328125 
L 57.03125 23.78125 
L 42.578125 23.78125 
Q 40.1875 0.53125 11.078125 -7.421875 
L 7.28125 -0.984375 
Q 33.25 5.421875 35.5 23.78125 
L 10.015625 23.78125 
L 10.015625 29.984375 
L 35.796875 29.984375 
L 35.796875 43.3125 
L 27.78125 43.3125 
L 27.78125 47.015625 
Q 19.734375 41.359375 9.078125 36.1875 
L 4.5 42.1875 
Q 16.3125 46.734375 25.984375 53.8125 
Q 19.828125 60.15625 13.484375 64.59375 
L 18.609375 69.140625 
Q 26.515625 62.59375 31.109375 58.015625 
Q 38.03125 64.0625 43.171875 72.125 
L 20.0625 72.125 
L 20.0625 78.21875 
L 54 78.21875 
Q 58.203125 71.34375 62.890625 66.3125 
Q 69.09375 71.625 74.03125 77.9375 
L 79.828125 73.734375 
Q 74.171875 67.625 67.09375 62.203125 
Q 70.40625 59.078125 73.734375 56.84375 
z
M 57.03125 43.3125 
L 42.78125 43.3125 
L 42.78125 29.984375 
L 57.03125 29.984375 
z
M 30.90625 49.3125 
L 72.515625 49.3125 
Q 58.6875 59.28125 50.59375 71 
Q 43.21875 58.890625 30.90625 49.3125 
z
" id="IPAexGothic-30330"/>
       <path d="M 63.71875 2.875 
L 95.015625 2.875 
L 95.015625 -3.515625 
L 23.96875 -3.515625 
L 23.96875 2.875 
L 37.3125 2.875 
L 37.3125 38.28125 
L 44 38.28125 
L 44 2.875 
L 56.84375 2.875 
L 56.84375 46.578125 
L 30.515625 46.578125 
L 30.515625 52.78125 
L 90.046875 52.78125 
L 90.046875 46.578125 
L 63.71875 46.578125 
L 63.71875 29.203125 
L 87.796875 29.203125 
L 87.796875 23.09375 
L 63.71875 23.09375 
z
M 60.203125 70.515625 
L 93.890625 70.515625 
L 93.890625 64.109375 
L 27.296875 64.109375 
L 27.296875 41.40625 
Q 27.296875 23.140625 24.21875 12.203125 
Q 21.390625 2.25 14.59375 -6.203125 
L 9.625 -1.171875 
Q 18.75 10.359375 20.125 27.484375 
Q 15.4375 24.125 7.078125 19.734375 
L 4 26.609375 
Q 12.3125 29.59375 20.40625 34.328125 
L 20.40625 37.890625 
L 20.40625 70.515625 
L 52.78125 70.515625 
L 52.78125 81.984375 
L 60.203125 81.984375 
z
M 12.015625 40.375 
Q 8.890625 50.78125 5.421875 57.90625 
L 11.375 60.59375 
Q 15.234375 53.859375 18.40625 43.703125 
z
" id="IPAexGothic-30151"/>
       <path d="M 81.734375 75 
L 81.734375 -4.5 
L 74.125 -4.5 
L 74.125 2 
L 25.734375 2 
L 25.734375 -4.5 
L 18.109375 -4.5 
L 18.109375 75 
z
M 25.734375 68.3125 
L 25.734375 42.671875 
L 74.125 42.671875 
L 74.125 68.3125 
z
M 25.734375 35.890625 
L 25.734375 8.6875 
L 74.125 8.6875 
L 74.125 35.890625 
z
" id="IPAexGothic-26085"/>
       <path id="IPAexGothic-32"/>
       <path d="M 30.125 -15.875 
L 25.828125 -18.21875 
Q 7.625 1.078125 7.625 29.296875 
Q 7.625 57.46875 25.828125 76.703125 
L 30.125 74.421875 
Q 15.71875 55.03125 15.71875 29.390625 
Q 15.71875 3.171875 30.125 -15.875 
z
" id="IPAexGothic-40"/>
       <path d="M 29.984375 52.203125 
Q 40.53125 52.203125 47.75 45.125 
Q 55.171875 37.703125 55.171875 25.59375 
Q 55.171875 13.875 47.90625 6.59375 
Q 40.765625 -0.484375 29.984375 -0.484375 
Q 19.1875 -0.484375 12.203125 6.5 
Q 4.890625 13.765625 4.890625 25.875 
Q 4.890625 37.703125 12.3125 45.125 
Q 19.390625 52.203125 29.984375 52.203125 
z
M 29.984375 45.609375 
Q 23.734375 45.609375 19.390625 41.109375 
Q 13.875 35.59375 13.875 25.78125 
Q 13.875 16.109375 19.28125 10.6875 
Q 23.6875 6.296875 29.984375 6.296875 
Q 36.421875 6.296875 40.765625 10.796875 
Q 46.1875 16.21875 46.1875 26.125 
Q 46.1875 35.453125 40.671875 41.109375 
Q 36.1875 45.609375 29.984375 45.609375 
z
" id="IPAexGothic-111"/>
       <path d="M 34.90625 39.796875 
Q 30.28125 45.796875 23.1875 45.796875 
Q 13.921875 45.796875 13.921875 38.671875 
Q 13.921875 33.640625 23.921875 30.375 
L 27.203125 29.296875 
Q 41.40625 24.65625 41.40625 13.96875 
Q 41.40625 6.78125 35.5 2.6875 
Q 30.8125 -0.484375 23.390625 -0.484375 
Q 11.96875 -0.484375 4 7.859375 
L 9.421875 12.796875 
Q 15.578125 6.203125 23.6875 6.203125 
Q 33.296875 6.203125 33.296875 13.671875 
Q 33.296875 19.34375 22.703125 23.09375 
L 19.28125 24.265625 
Q 5.90625 28.953125 5.90625 37.984375 
Q 5.90625 43.703125 9.8125 47.609375 
Q 14.5 52.296875 22.703125 52.296875 
Q 33.6875 52.296875 40.71875 44.671875 
z
" id="IPAexGothic-115"/>
       <path d="M 33.203125 3.765625 
Q 27.640625 -0.09375 21.828125 -0.09375 
Q 10.203125 -0.09375 10.203125 12.984375 
L 10.203125 44.671875 
L 3.421875 44.671875 
L 3.421875 50.78125 
L 10.203125 50.78125 
L 10.203125 61.96875 
L 18.40625 66.0625 
L 18.40625 50.78125 
L 32.234375 50.78125 
L 32.234375 44.671875 
L 18.40625 44.671875 
L 18.40625 14.15625 
Q 18.40625 6.5 23.640625 6.5 
Q 27.15625 6.5 30.328125 9.1875 
z
" id="IPAexGothic-116"/>
       <path d="M 7.28125 76.703125 
Q 25.59375 57.375 25.59375 29.296875 
Q 25.59375 1.171875 7.28125 -18.21875 
L 2.984375 -15.875 
Q 17.484375 3.375 17.484375 29.390625 
Q 17.484375 54.828125 2.984375 74.421875 
z
" id="IPAexGothic-41"/>
      </defs>
      <use xlink:href="#IPAexGothic-30330"/>
      <use x="100" xlink:href="#IPAexGothic-30151"/>
      <use x="200" xlink:href="#IPAexGothic-26085"/>
      <use x="300" xlink:href="#IPAexGothic-32"/>
      <use x="327.001953" xlink:href="#IPAexGothic-40"/>
      <use x="360.302734" xlink:href="#IPAexGothic-111"/>
      <use x="420.703125" xlink:href="#IPAexGothic-110"/>
      <use x="481.103516" xlink:href="#IPAexGothic-115"/>
      <use x="527.294922" xlink:href="#IPAexGothic-101"/>
      <use x="584.179688" xlink:href="#IPAexGothic-116"/>
      <use x="618.798828" xlink:href="#IPAexGothic-41"/>
     </g>
    </g>
    <g id="line2d_19">
     <path d="M 48.39375 46.89975 
L 68.39375 46.89975 
" style="fill:none;stroke:#ff7f0e;stroke-linecap:square;stroke-width:1.5;"/>
    </g>
    <g id="line2d_20">
     <g>
      <use style="fill:#ff7f0e;stroke:#ff7f0e;" x="58.39375" xlink:href="#m0dc481ca61" y="46.89975"/>
     </g>
    </g>
    <g id="text_17">
     <!--  (confirmed) -->
     <g transform="translate(76.39375 50.39975)scale(0.1 -0.1)">
      <defs>
       <path d="M 67.921875 50.296875 
Q 70.5625 55.28125 72.609375 61.8125 
L 79.296875 60.203125 
Q 76.171875 53.609375 74.21875 50.296875 
L 92 50.296875 
L 92 44.484375 
L 73.4375 44.484375 
L 73.4375 34.71875 
L 89.703125 34.71875 
L 89.703125 29.203125 
L 73.4375 29.203125 
L 73.4375 19.53125 
L 89.703125 19.53125 
L 89.703125 14.015625 
L 73.4375 14.015625 
L 73.4375 3.609375 
L 94.28125 3.609375 
L 94.28125 -2.203125 
L 54.109375 -2.203125 
L 54.109375 -6.984375 
L 47.609375 -6.984375 
L 47.609375 38.1875 
Q 43.0625 31.546875 38.8125 26.609375 
L 35.6875 32.8125 
Q 49.359375 49.953125 54.78125 64.796875 
L 45.515625 64.796875 
L 45.515625 53.515625 
L 39.203125 53.515625 
L 39.203125 70.609375 
L 56.78125 70.609375 
Q 58.59375 76.609375 60.109375 83.109375 
L 66.703125 81.890625 
Q 65.234375 75.53125 63.625 70.609375 
L 92.71875 70.609375 
L 92.71875 53.515625 
L 86.328125 53.515625 
L 86.328125 64.796875 
L 61.53125 64.796875 
Q 58.546875 56.984375 54.890625 50.296875 
z
M 67.140625 44.484375 
L 54.109375 44.484375 
L 54.109375 34.71875 
L 67.140625 34.71875 
z
M 67.140625 29.203125 
L 54.109375 29.203125 
L 54.109375 19.53125 
L 67.140625 19.53125 
z
M 67.140625 14.015625 
L 54.109375 14.015625 
L 54.109375 3.609375 
L 67.140625 3.609375 
z
M 18.109375 46 
L 35.546875 46 
L 35.546875 3.078125 
L 18.953125 3.078125 
L 18.953125 -5.125 
L 12.75 -5.125 
L 12.75 34.46875 
Q 10.15625 29.734375 6.15625 23.78125 
L 2.9375 29.984375 
Q 14.546875 47.078125 18.75 69 
L 6.34375 69 
L 6.34375 75.296875 
L 37.640625 75.296875 
L 37.640625 69 
L 25.25 69 
L 24.953125 68.015625 
Q 22.75 57.234375 18.109375 46 
z
M 18.953125 39.890625 
L 18.953125 9.1875 
L 29.34375 9.1875 
L 29.34375 39.890625 
z
" id="IPAexGothic-30906"/>
       <path d="M 53.609375 4.734375 
Q 61.421875 3.515625 73.578125 3.515625 
Q 81.109375 3.515625 94.578125 4.109375 
Q 93.171875 0.921875 92 -3.5625 
Q 81.78125 -3.90625 75.6875 -3.90625 
Q 55.765625 -3.90625 46.921875 -1.21875 
Q 35.296875 2.390625 27.34375 14.109375 
Q 22.515625 2.546875 12.59375 -7.171875 
L 7.421875 -1.171875 
Q 22.125 11.859375 26.3125 37.796875 
L 33.203125 35.984375 
Q 31.734375 27.4375 29.828125 21.1875 
Q 36.53125 10.59375 46.4375 6.5 
L 46.4375 46 
L 22.40625 46 
L 22.40625 52.390625 
L 77.484375 52.390625 
L 77.484375 46 
L 53.609375 46 
L 53.609375 31 
L 84.328125 31 
L 84.328125 24.515625 
L 53.609375 24.515625 
z
M 53.421875 69.1875 
L 89.84375 69.1875 
L 89.84375 49.46875 
L 82.421875 49.46875 
L 82.421875 62.890625 
L 17.53125 62.890625 
L 17.53125 49.46875 
L 10.109375 49.46875 
L 10.109375 69.1875 
L 45.90625 69.1875 
L 45.90625 83.015625 
L 53.421875 83.015625 
z
" id="IPAexGothic-23450"/>
       <path d="M 51.078125 12.25 
Q 44.28125 -0.484375 29.6875 -0.484375 
Q 19.1875 -0.484375 12.3125 6.390625 
Q 4.890625 13.921875 4.890625 25.984375 
Q 4.890625 37.9375 12.3125 45.515625 
Q 19.09375 52.296875 29.390625 52.296875 
Q 43.953125 52.296875 50.09375 39.703125 
L 43.171875 36.078125 
Q 38.8125 45.3125 29.6875 45.3125 
Q 23.6875 45.3125 19.28125 40.921875 
Q 13.765625 35.40625 13.765625 25.78125 
Q 13.765625 16.703125 19.09375 11.375 
Q 23.78125 6.6875 30.5625 6.6875 
Q 39.796875 6.6875 44.484375 15.875 
z
" id="IPAexGothic-99"/>
       <path d="M 38.375 72.21875 
L 34.8125 66.3125 
Q 31.109375 69.09375 27.203125 69.09375 
Q 18.5 69.09375 18.5 57.375 
L 18.5 50.78125 
L 32.078125 50.78125 
L 32.078125 44.671875 
L 18.5 44.671875 
L 18.5 0.984375 
L 10.015625 0.984375 
L 10.015625 44.671875 
L 1.90625 44.671875 
L 1.90625 50.78125 
L 10.015625 50.78125 
L 10.015625 57.171875 
Q 10.015625 65.4375 13.921875 70.0625 
Q 18.75 75.6875 26.703125 75.6875 
Q 33.0625 75.6875 38.375 72.21875 
z
" id="IPAexGothic-102"/>
       <path d="M 18.40625 61.375 
L 8.59375 61.375 
L 8.59375 71.390625 
L 18.40625 71.390625 
z
M 17.78125 0.984375 
L 9.1875 0.984375 
L 9.1875 50.78125 
L 17.78125 50.78125 
z
" id="IPAexGothic-105"/>
       <path d="M 78.46875 0.984375 
L 69.875 0.984375 
L 69.875 32.171875 
Q 69.875 44.828125 60.109375 44.828125 
Q 55.46875 44.828125 51.609375 40.53125 
Q 48.875 37.453125 47.796875 32.859375 
L 47.796875 0.984375 
L 39.203125 0.984375 
L 39.203125 32.28125 
Q 39.203125 44.828125 29.984375 44.828125 
Q 25.09375 44.828125 21.390625 40.53125 
Q 17.390625 36.03125 17.390625 31.890625 
L 17.390625 0.984375 
L 8.796875 0.984375 
L 8.796875 50.78125 
L 16.796875 50.78125 
L 16.796875 42.1875 
Q 21.734375 51.8125 31.6875 51.8125 
Q 42.578125 51.8125 46.1875 41.359375 
Q 51.609375 51.8125 61.765625 51.8125 
Q 69.96875 51.8125 74.5625 46 
Q 78.46875 41.21875 78.46875 32.375 
z
" id="IPAexGothic-109"/>
       <path d="M 52.984375 0.984375 
L 45.171875 0.984375 
L 45.171875 9.671875 
Q 38.140625 -0.484375 27.390625 -0.484375 
Q 18.453125 -0.484375 12.3125 5.8125 
Q 4.890625 13.1875 4.890625 25.984375 
Q 4.890625 38.53125 12.0625 45.90625 
Q 18.265625 52.203125 27.390625 52.203125 
Q 37.25 52.203125 44.484375 43.890625 
L 44.484375 74.90625 
L 52.984375 74.90625 
z
M 44.484375 20.359375 
L 44.484375 32.765625 
Q 44.484375 37.703125 38.375 42.28125 
Q 34.078125 45.40625 28.953125 45.40625 
Q 23.1875 45.40625 19.1875 41.40625 
Q 13.875 36.078125 13.875 26.21875 
Q 13.875 17.328125 18.265625 11.71875 
Q 22.515625 6.390625 28.859375 6.390625 
Q 36.28125 6.390625 41.5 13.671875 
Q 44.484375 17.71875 44.484375 20.359375 
z
" id="IPAexGothic-100"/>
      </defs>
      <use xlink:href="#IPAexGothic-30906"/>
      <use x="100" xlink:href="#IPAexGothic-23450"/>
      <use x="200" xlink:href="#IPAexGothic-26085"/>
      <use x="300" xlink:href="#IPAexGothic-32"/>
      <use x="327.001953" xlink:href="#IPAexGothic-40"/>
      <use x="360.302734" xlink:href="#IPAexGothic-99"/>
      <use x="414.697266" xlink:href="#IPAexGothic-111"/>
      <use x="475.097656" xlink:href="#IPAexGothic-110"/>
      <use x="535.498047" xlink:href="#IPAexGothic-102"/>
      <use x="566.113281" xlink:href="#IPAexGothic-105"/>
      <use x="593.115234" xlink:href="#IPAexGothic-114"/>
      <use x="630.126953" xlink:href="#IPAexGothic-109"/>
      <use x="717.236328" xlink:href="#IPAexGothic-101"/>
      <use x="774.121094" xlink:href="#IPAexGothic-100"/>
      <use x="836.523438" xlink:href="#IPAexGothic-41"/>
     </g>
    </g>
   </g>
  </g>
  <g id="text_18">
   <!-- generated: 2020-08-01 20:17:12 -->
   <g transform="translate(238.618437 14.690625)scale(0.1 -0.1)">
    <defs>
     <path d="M 21.390625 39.984375 
L 10.5 39.984375 
L 10.5 50.78125 
L 21.390625 50.78125 
z
M 21.390625 0.984375 
L 10.5 0.984375 
L 10.5 11.765625 
L 21.390625 11.765625 
z
" id="IPAexGothic-58"/>
     <path d="M 30.765625 26.609375 
L 4.984375 26.609375 
L 4.984375 34.421875 
L 30.765625 34.421875 
z
" id="IPAexGothic-45"/>
     <path d="M 56.203125 66.609375 
Q 34.96875 32.90625 27.78125 0.984375 
L 17.671875 0.984375 
Q 24.703125 28.65625 46.09375 64.5 
L 6.6875 64.5 
L 6.6875 72.40625 
L 56.203125 72.40625 
z
" id="IPAexGothic-55"/>
    </defs>
    <use xlink:href="#IPAexGothic-103"/>
    <use x="55.517578" xlink:href="#IPAexGothic-101"/>
    <use x="112.402344" xlink:href="#IPAexGothic-110"/>
    <use x="172.802734" xlink:href="#IPAexGothic-101"/>
    <use x="229.6875" xlink:href="#IPAexGothic-114"/>
    <use x="266.699219" xlink:href="#IPAexGothic-97"/>
    <use x="321.679688" xlink:href="#IPAexGothic-116"/>
    <use x="356.298828" xlink:href="#IPAexGothic-101"/>
    <use x="413.183594" xlink:href="#IPAexGothic-100"/>
    <use x="475.585938" xlink:href="#IPAexGothic-58"/>
    <use x="507.568359" xlink:href="#IPAexGothic-32"/>
    <use x="534.570312" xlink:href="#IPAexGothic-50"/>
    <use x="597.558594" xlink:href="#IPAexGothic-48"/>
    <use x="660.546875" xlink:href="#IPAexGothic-50"/>
    <use x="723.535156" xlink:href="#IPAexGothic-48"/>
    <use x="786.523438" xlink:href="#IPAexGothic-45"/>
    <use x="822.314453" xlink:href="#IPAexGothic-48"/>
    <use x="885.302734" xlink:href="#IPAexGothic-56"/>
    <use x="948.291016" xlink:href="#IPAexGothic-45"/>
    <use x="984.082031" xlink:href="#IPAexGothic-48"/>
    <use x="1047.070312" xlink:href="#IPAexGothic-49"/>
    <use x="1110.058594" xlink:href="#IPAexGothic-32"/>
    <use x="1137.060547" xlink:href="#IPAexGothic-50"/>
    <use x="1200.048828" xlink:href="#IPAexGothic-48"/>
    <use x="1263.037109" xlink:href="#IPAexGothic-58"/>
    <use x="1295.019531" xlink:href="#IPAexGothic-49"/>
    <use x="1358.007812" xlink:href="#IPAexGothic-55"/>
    <use x="1420.996094" xlink:href="#IPAexGothic-58"/>
    <use x="1452.978516" xlink:href="#IPAexGothic-49"/>
    <use x="1515.966797" xlink:href="#IPAexGothic-50"/>
   </g>
  </g>
 </g>
 <defs>
  <clipPath id="p7809b47908">
   <rect height="266.112" width="357.12" x="39.39375" y="18.146625"/>
  </clipPath>
 </defs>
</svg>
