<?xml version="1.0" encoding="utf-8" standalone="no"?>
<!DOCTYPE svg PUBLIC "-//W3C//DTD SVG 1.1//EN"
  "http://www.w3.org/Graphics/SVG/1.1/DTD/svg11.dtd">
<!-- Created with matplotlib (https://matplotlib.org/) -->
<svg height="398.99725pt" version="1.1" viewBox="0 0 411.31678 398.99725" width="411.31678pt" xmlns="http://www.w3.org/2000/svg" xmlns:xlink="http://www.w3.org/1999/xlink">
 <defs>
  <style type="text/css">
*{stroke-linecap:butt;stroke-linejoin:round;}
  </style>
 </defs>
 <g id="figure_1">
  <g id="patch_1">
   <path d="M 0 398.99725 
L 411.31678 398.99725 
L 411.31678 0 
L 0 0 
z
" style="fill:#ffffff;"/>
  </g>
  <g id="axes_1">
   <g id="patch_2">
    <path d="M 44.990625 362.016 
L 402.110625 362.016 
L 402.110625 7.2 
L 44.990625 7.2 
z
" style="fill:#ffffff;"/>
   </g>
   <g id="matplotlib.axis_1">
    <g id="xtick_1">
     <g id="line2d_1">
      <defs>
       <path d="M 0 0 
L 0 3.5 
" id="mede473b882" style="stroke:#000000;stroke-width:0.8;"/>
      </defs>
      <g>
       <use style="stroke:#000000;stroke-width:0.8;" x="83.540217" xlink:href="#mede473b882" y="362.016"/>
      </g>
     </g>
     <g id="text_1">
      <!-- $\mathdefault{10^{2}}$ -->
      <defs>
       <path d="M 38.484375 0.984375 
L 29.6875 0.984375 
L 29.6875 64.109375 
Q 21.4375 61.28125 12.3125 59.328125 
L 10.6875 66.109375 
Q 23.734375 69.390625 32.90625 73.921875 
L 38.484375 73.921875 
z
" id="IPAexGothic-49"/>
       <path d="M 31.84375 73.828125 
Q 45.015625 73.828125 52.09375 61.625 
Q 57.71875 51.953125 57.71875 36.625 
Q 57.71875 21.4375 52.09375 11.578125 
Q 45.125 -0.484375 31.5 -0.484375 
Q 17.921875 -0.484375 10.9375 11.578125 
Q 5.328125 21.4375 5.328125 36.71875 
Q 5.328125 58.015625 15.625 67.71875 
Q 22.171875 73.828125 31.84375 73.828125 
z
M 31.5 66.65625 
Q 23.6875 66.65625 19.1875 58.734375 
Q 14.59375 50.734375 14.59375 36.625 
Q 14.59375 22.75 19.09375 14.796875 
Q 23.640625 6.984375 31.5 6.984375 
Q 40.921875 6.984375 45.453125 18.015625 
Q 48.4375 25.34375 48.4375 37.109375 
Q 48.4375 50.875 43.84375 58.734375 
Q 39.203125 66.65625 31.5 66.65625 
z
" id="IPAexGothic-48"/>
       <path d="M 57.171875 0.984375 
L 6.984375 0.984375 
L 6.984375 9.28125 
Q 12.890625 23.046875 29.59375 34.421875 
L 32.375 36.28125 
Q 40.921875 42.140625 43.609375 45.40625 
Q 46.6875 49.265625 46.6875 53.8125 
Q 46.6875 58.9375 43.0625 62.546875 
Q 39.0625 66.546875 32.5625 66.546875 
Q 19.53125 66.546875 15.484375 52 
L 7.765625 54.78125 
Q 13.328125 73.828125 33.0625 73.828125 
Q 43.84375 73.828125 50.25 67.4375 
Q 55.859375 61.671875 55.859375 53.515625 
Q 55.859375 47.46875 52.25 42.53125 
Q 48.921875 37.75 36.96875 30.28125 
L 34.859375 29 
Q 19.625 19.578125 15.28125 8.890625 
L 57.171875 8.890625 
z
" id="IPAexGothic-50"/>
      </defs>
      <g transform="translate(74.840217 376.506625)scale(0.1 -0.1)">
       <use transform="translate(0 0.773438)" xlink:href="#IPAexGothic-49"/>
       <use transform="translate(62.988281 0.773438)" xlink:href="#IPAexGothic-48"/>
       <use transform="translate(126.865234 36.320312)scale(0.7)" xlink:href="#IPAexGothic-50"/>
      </g>
     </g>
    </g>
    <g id="xtick_2">
     <g id="line2d_2">
      <g>
       <use style="stroke:#000000;stroke-width:0.8;" x="187.499071" xlink:href="#mede473b882" y="362.016"/>
      </g>
     </g>
     <g id="text_2">
      <!-- $\mathdefault{10^{3}}$ -->
      <defs>
       <path d="M 37.203125 37.796875 
Q 54.78125 34.625 54.78125 19.96875 
Q 54.78125 11.1875 48.875 5.5625 
Q 42.328125 -0.484375 30.375 -0.484375 
Q 12.453125 -0.484375 4.5 13.765625 
L 11.8125 17.671875 
Q 17.328125 6.890625 30.28125 6.890625 
Q 37.890625 6.890625 42.09375 10.796875 
Q 46.09375 14.5 46.09375 20.171875 
Q 46.09375 26.859375 40.09375 30.90625 
Q 34.625 34.578125 25.6875 34.578125 
L 21.296875 34.578125 
L 21.296875 41.703125 
L 25.875 41.703125 
Q 34.859375 41.703125 39.59375 45.125 
Q 44.671875 48.734375 44.671875 54.828125 
Q 44.671875 61.46875 38.96875 64.65625 
Q 35.296875 66.84375 30.171875 66.84375 
Q 19.34375 66.84375 14.109375 55.90625 
L 6.78125 59.421875 
Q 14.015625 73.828125 30.28125 73.828125 
Q 40.578125 73.828125 46.96875 68.65625 
Q 53.375 63.578125 53.375 55.21875 
Q 53.375 47.3125 47.171875 42.28125 
Q 43.171875 39.0625 37.203125 38.1875 
z
" id="IPAexGothic-51"/>
      </defs>
      <g transform="translate(178.799071 376.506625)scale(0.1 -0.1)">
       <use transform="translate(0 0.773438)" xlink:href="#IPAexGothic-49"/>
       <use transform="translate(62.988281 0.773438)" xlink:href="#IPAexGothic-48"/>
       <use transform="translate(126.865234 36.320312)scale(0.7)" xlink:href="#IPAexGothic-51"/>
      </g>
     </g>
    </g>
    <g id="xtick_3">
     <g id="line2d_3">
      <g>
       <use style="stroke:#000000;stroke-width:0.8;" x="291.457926" xlink:href="#mede473b882" y="362.016"/>
      </g>
     </g>
     <g id="text_3">
      <!-- $\mathdefault{10^{4}}$ -->
      <defs>
       <path d="M 59.578125 18.109375 
L 47.796875 18.109375 
L 47.796875 0.984375 
L 39.796875 0.984375 
L 39.796875 18.109375 
L 3.078125 18.109375 
L 3.078125 26.125 
L 38.375 73.09375 
L 47.796875 73.09375 
L 47.796875 25.53125 
L 59.578125 25.53125 
z
M 40.28125 64.203125 
L 39.984375 64.203125 
Q 35.59375 57.125 31.296875 51.3125 
L 11.859375 25.53125 
L 39.796875 25.53125 
L 39.796875 49.125 
Q 39.796875 54.390625 40.28125 64.203125 
z
" id="IPAexGothic-52"/>
      </defs>
      <g transform="translate(282.757926 376.506625)scale(0.1 -0.1)">
       <use transform="translate(0 0.2875)" xlink:href="#IPAexGothic-49"/>
       <use transform="translate(62.988281 0.2875)" xlink:href="#IPAexGothic-48"/>
       <use transform="translate(126.865234 35.834375)scale(0.7)" xlink:href="#IPAexGothic-52"/>
      </g>
     </g>
    </g>
    <g id="xtick_4">
     <g id="line2d_4">
      <g>
       <use style="stroke:#000000;stroke-width:0.8;" x="395.41678" xlink:href="#mede473b882" y="362.016"/>
      </g>
     </g>
     <g id="text_4">
      <!-- $\mathdefault{10^{5}}$ -->
      <defs>
       <path d="M 18.40625 40.671875 
Q 25.53125 46.296875 33.9375 46.296875 
Q 44 46.296875 50.640625 39.5 
Q 56.84375 33.015625 56.84375 23.390625 
Q 56.84375 14.65625 51.515625 8.015625 
Q 44.828125 -0.484375 31.734375 -0.484375 
Q 14.984375 -0.484375 7.328125 12.25 
L 14.65625 16.0625 
Q 20.453125 6.78125 31.453125 6.78125 
Q 38.53125 6.78125 43.265625 11.1875 
Q 48.140625 15.828125 48.140625 23.484375 
Q 48.140625 30.71875 43.84375 35.015625 
Q 39.359375 39.5 32.125 39.5 
Q 21.96875 39.5 16.75 31.6875 
L 9.234375 32.671875 
L 13.8125 72.40625 
L 53.21875 72.40625 
L 53.21875 64.890625 
L 20.953125 64.890625 
L 17.71875 40.671875 
z
" id="IPAexGothic-53"/>
      </defs>
      <g transform="translate(386.71678 376.506625)scale(0.1 -0.1)">
       <use transform="translate(0 0.76875)" xlink:href="#IPAexGothic-49"/>
       <use transform="translate(62.988281 0.76875)" xlink:href="#IPAexGothic-48"/>
       <use transform="translate(126.865234 36.315625)scale(0.7)" xlink:href="#IPAexGothic-53"/>
      </g>
     </g>
    </g>
    <g id="xtick_5">
     <g id="line2d_5">
      <defs>
       <path d="M 0 0 
L 0 2 
" id="m069b60a1e1" style="stroke:#000000;stroke-width:0.6;"/>
      </defs>
      <g>
       <use style="stroke:#000000;stroke-width:0.6;" x="52.245483" xlink:href="#m069b60a1e1" y="362.016"/>
      </g>
     </g>
    </g>
    <g id="xtick_6">
     <g id="line2d_6">
      <g>
       <use style="stroke:#000000;stroke-width:0.6;" x="60.477075" xlink:href="#m069b60a1e1" y="362.016"/>
      </g>
     </g>
    </g>
    <g id="xtick_7">
     <g id="line2d_7">
      <g>
       <use style="stroke:#000000;stroke-width:0.6;" x="67.436786" xlink:href="#m069b60a1e1" y="362.016"/>
      </g>
     </g>
    </g>
    <g id="xtick_8">
     <g id="line2d_8">
      <g>
       <use style="stroke:#000000;stroke-width:0.6;" x="73.465563" xlink:href="#m069b60a1e1" y="362.016"/>
      </g>
     </g>
    </g>
    <g id="xtick_9">
     <g id="line2d_9">
      <g>
       <use style="stroke:#000000;stroke-width:0.6;" x="78.78332" xlink:href="#m069b60a1e1" y="362.016"/>
      </g>
     </g>
    </g>
    <g id="xtick_10">
     <g id="line2d_10">
      <g>
       <use style="stroke:#000000;stroke-width:0.6;" x="114.83495" xlink:href="#m069b60a1e1" y="362.016"/>
      </g>
     </g>
    </g>
    <g id="xtick_11">
     <g id="line2d_11">
      <g>
       <use style="stroke:#000000;stroke-width:0.6;" x="133.141196" xlink:href="#m069b60a1e1" y="362.016"/>
      </g>
     </g>
    </g>
    <g id="xtick_12">
     <g id="line2d_12">
      <g>
       <use style="stroke:#000000;stroke-width:0.6;" x="146.129684" xlink:href="#m069b60a1e1" y="362.016"/>
      </g>
     </g>
    </g>
    <g id="xtick_13">
     <g id="line2d_13">
      <g>
       <use style="stroke:#000000;stroke-width:0.6;" x="156.204338" xlink:href="#m069b60a1e1" y="362.016"/>
      </g>
     </g>
    </g>
    <g id="xtick_14">
     <g id="line2d_14">
      <g>
       <use style="stroke:#000000;stroke-width:0.6;" x="164.435929" xlink:href="#m069b60a1e1" y="362.016"/>
      </g>
     </g>
    </g>
    <g id="xtick_15">
     <g id="line2d_15">
      <g>
       <use style="stroke:#000000;stroke-width:0.6;" x="171.395641" xlink:href="#m069b60a1e1" y="362.016"/>
      </g>
     </g>
    </g>
    <g id="xtick_16">
     <g id="line2d_16">
      <g>
       <use style="stroke:#000000;stroke-width:0.6;" x="177.424417" xlink:href="#m069b60a1e1" y="362.016"/>
      </g>
     </g>
    </g>
    <g id="xtick_17">
     <g id="line2d_17">
      <g>
       <use style="stroke:#000000;stroke-width:0.6;" x="182.742175" xlink:href="#m069b60a1e1" y="362.016"/>
      </g>
     </g>
    </g>
    <g id="xtick_18">
     <g id="line2d_18">
      <g>
       <use style="stroke:#000000;stroke-width:0.6;" x="218.793805" xlink:href="#m069b60a1e1" y="362.016"/>
      </g>
     </g>
    </g>
    <g id="xtick_19">
     <g id="line2d_19">
      <g>
       <use style="stroke:#000000;stroke-width:0.6;" x="237.10005" xlink:href="#m069b60a1e1" y="362.016"/>
      </g>
     </g>
    </g>
    <g id="xtick_20">
     <g id="line2d_20">
      <g>
       <use style="stroke:#000000;stroke-width:0.6;" x="250.088538" xlink:href="#m069b60a1e1" y="362.016"/>
      </g>
     </g>
    </g>
    <g id="xtick_21">
     <g id="line2d_21">
      <g>
       <use style="stroke:#000000;stroke-width:0.6;" x="260.163192" xlink:href="#m069b60a1e1" y="362.016"/>
      </g>
     </g>
    </g>
    <g id="xtick_22">
     <g id="line2d_22">
      <g>
       <use style="stroke:#000000;stroke-width:0.6;" x="268.394784" xlink:href="#m069b60a1e1" y="362.016"/>
      </g>
     </g>
    </g>
    <g id="xtick_23">
     <g id="line2d_23">
      <g>
       <use style="stroke:#000000;stroke-width:0.6;" x="275.354495" xlink:href="#m069b60a1e1" y="362.016"/>
      </g>
     </g>
    </g>
    <g id="xtick_24">
     <g id="line2d_24">
      <g>
       <use style="stroke:#000000;stroke-width:0.6;" x="281.383272" xlink:href="#m069b60a1e1" y="362.016"/>
      </g>
     </g>
    </g>
    <g id="xtick_25">
     <g id="line2d_25">
      <g>
       <use style="stroke:#000000;stroke-width:0.6;" x="286.701029" xlink:href="#m069b60a1e1" y="362.016"/>
      </g>
     </g>
    </g>
    <g id="xtick_26">
     <g id="line2d_26">
      <g>
       <use style="stroke:#000000;stroke-width:0.6;" x="322.752659" xlink:href="#m069b60a1e1" y="362.016"/>
      </g>
     </g>
    </g>
    <g id="xtick_27">
     <g id="line2d_27">
      <g>
       <use style="stroke:#000000;stroke-width:0.6;" x="341.058905" xlink:href="#m069b60a1e1" y="362.016"/>
      </g>
     </g>
    </g>
    <g id="xtick_28">
     <g id="line2d_28">
      <g>
       <use style="stroke:#000000;stroke-width:0.6;" x="354.047393" xlink:href="#m069b60a1e1" y="362.016"/>
      </g>
     </g>
    </g>
    <g id="xtick_29">
     <g id="line2d_29">
      <g>
       <use style="stroke:#000000;stroke-width:0.6;" x="364.122046" xlink:href="#m069b60a1e1" y="362.016"/>
      </g>
     </g>
    </g>
    <g id="xtick_30">
     <g id="line2d_30">
      <g>
       <use style="stroke:#000000;stroke-width:0.6;" x="372.353638" xlink:href="#m069b60a1e1" y="362.016"/>
      </g>
     </g>
    </g>
    <g id="xtick_31">
     <g id="line2d_31">
      <g>
       <use style="stroke:#000000;stroke-width:0.6;" x="379.31335" xlink:href="#m069b60a1e1" y="362.016"/>
      </g>
     </g>
    </g>
    <g id="xtick_32">
     <g id="line2d_32">
      <g>
       <use style="stroke:#000000;stroke-width:0.6;" x="385.342126" xlink:href="#m069b60a1e1" y="362.016"/>
      </g>
     </g>
    </g>
    <g id="xtick_33">
     <g id="line2d_33">
      <g>
       <use style="stroke:#000000;stroke-width:0.6;" x="390.659884" xlink:href="#m069b60a1e1" y="362.016"/>
      </g>
     </g>
    </g>
    <g id="text_5">
     <!-- Confirmed -->
     <defs>
      <path d="M 68.015625 17 
Q 65.328125 10.84375 60.296875 6.6875 
Q 51.765625 -0.484375 39.984375 -0.484375 
Q 24.8125 -0.484375 14.984375 10.203125 
Q 5.90625 20.21875 5.90625 36.421875 
Q 5.90625 53.21875 15.828125 63.71875 
Q 25.296875 73.828125 39.59375 73.828125 
Q 59.578125 73.828125 67.53125 56.6875 
L 59.515625 52.984375 
Q 53.515625 66.21875 39.703125 66.21875 
Q 29.546875 66.21875 22.703125 58.5 
Q 15.53125 50.25 15.53125 36.28125 
Q 15.53125 24.21875 21.625 16.5 
Q 28.765625 7.375 40.046875 7.375 
Q 54 7.375 60.59375 20.609375 
z
" id="IPAexGothic-67"/>
      <path d="M 29.984375 52.203125 
Q 40.53125 52.203125 47.75 45.125 
Q 55.171875 37.703125 55.171875 25.59375 
Q 55.171875 13.875 47.90625 6.59375 
Q 40.765625 -0.484375 29.984375 -0.484375 
Q 19.1875 -0.484375 12.203125 6.5 
Q 4.890625 13.765625 4.890625 25.875 
Q 4.890625 37.703125 12.3125 45.125 
Q 19.390625 52.203125 29.984375 52.203125 
z
M 29.984375 45.609375 
Q 23.734375 45.609375 19.390625 41.109375 
Q 13.875 35.59375 13.875 25.78125 
Q 13.875 16.109375 19.28125 10.6875 
Q 23.6875 6.296875 29.984375 6.296875 
Q 36.421875 6.296875 40.765625 10.796875 
Q 46.1875 16.21875 46.1875 26.125 
Q 46.1875 35.453125 40.671875 41.109375 
Q 36.1875 45.609375 29.984375 45.609375 
z
" id="IPAexGothic-111"/>
      <path d="M 52 0.984375 
L 43.40625 0.984375 
L 43.40625 31.890625 
Q 43.40625 44.578125 32.90625 44.578125 
Q 22.3125 44.578125 17.390625 31.890625 
L 17.390625 0.984375 
L 8.796875 0.984375 
L 8.796875 50.78125 
L 16.796875 50.78125 
L 16.796875 41.796875 
Q 23.828125 51.8125 34.71875 51.8125 
Q 52 51.8125 52 32.375 
z
" id="IPAexGothic-110"/>
      <path d="M 38.375 72.21875 
L 34.8125 66.3125 
Q 31.109375 69.09375 27.203125 69.09375 
Q 18.5 69.09375 18.5 57.375 
L 18.5 50.78125 
L 32.078125 50.78125 
L 32.078125 44.671875 
L 18.5 44.671875 
L 18.5 0.984375 
L 10.015625 0.984375 
L 10.015625 44.671875 
L 1.90625 44.671875 
L 1.90625 50.78125 
L 10.015625 50.78125 
L 10.015625 57.171875 
Q 10.015625 65.4375 13.921875 70.0625 
Q 18.75 75.6875 26.703125 75.6875 
Q 33.0625 75.6875 38.375 72.21875 
z
" id="IPAexGothic-102"/>
      <path d="M 18.40625 61.375 
L 8.59375 61.375 
L 8.59375 71.390625 
L 18.40625 71.390625 
z
M 17.78125 0.984375 
L 9.1875 0.984375 
L 9.1875 50.78125 
L 17.78125 50.78125 
z
" id="IPAexGothic-105"/>
      <path d="M 36.078125 51.8125 
L 34.578125 43.265625 
Q 32.90625 43.609375 31.59375 43.609375 
Q 25.828125 43.609375 22.078125 38.1875 
Q 17.390625 31.34375 17.390625 26.171875 
L 17.390625 0.984375 
L 8.796875 0.984375 
L 8.796875 50.78125 
L 16.890625 50.78125 
L 16.5 35.984375 
L 16.703125 35.984375 
Q 22.21875 52.203125 32.765625 52.203125 
Q 34.46875 52.203125 36.078125 51.8125 
z
" id="IPAexGothic-114"/>
      <path d="M 78.46875 0.984375 
L 69.875 0.984375 
L 69.875 32.171875 
Q 69.875 44.828125 60.109375 44.828125 
Q 55.46875 44.828125 51.609375 40.53125 
Q 48.875 37.453125 47.796875 32.859375 
L 47.796875 0.984375 
L 39.203125 0.984375 
L 39.203125 32.28125 
Q 39.203125 44.828125 29.984375 44.828125 
Q 25.09375 44.828125 21.390625 40.53125 
Q 17.390625 36.03125 17.390625 31.890625 
L 17.390625 0.984375 
L 8.796875 0.984375 
L 8.796875 50.78125 
L 16.796875 50.78125 
L 16.796875 42.1875 
Q 21.734375 51.8125 31.6875 51.8125 
Q 42.578125 51.8125 46.1875 41.359375 
Q 51.609375 51.8125 61.765625 51.8125 
Q 69.96875 51.8125 74.5625 46 
Q 78.46875 41.21875 78.46875 32.375 
z
" id="IPAexGothic-109"/>
      <path d="M 13.484375 24.90625 
Q 13.921875 16.265625 18.890625 11.28125 
Q 23.96875 6.203125 31.203125 6.203125 
Q 40.71875 6.203125 46.296875 15.09375 
L 51.90625 11.375 
Q 44.828125 -0.484375 30.171875 -0.484375 
Q 19.09375 -0.484375 11.96875 6.59375 
Q 4.78125 13.8125 4.78125 25.640625 
Q 4.78125 38.1875 12.3125 45.703125 
Q 19 52.390625 29 52.390625 
Q 38.421875 52.390625 44.78125 46.1875 
Q 51.90625 38.96875 51.90625 26.90625 
L 51.90625 24.90625 
z
M 43.0625 31.203125 
Q 42.328125 37.984375 38.28125 41.890625 
Q 34.28125 45.90625 28.8125 45.90625 
Q 22.46875 45.90625 17.96875 40.484375 
Q 14.890625 36.8125 13.96875 31.203125 
z
" id="IPAexGothic-101"/>
      <path d="M 52.984375 0.984375 
L 45.171875 0.984375 
L 45.171875 9.671875 
Q 38.140625 -0.484375 27.390625 -0.484375 
Q 18.453125 -0.484375 12.3125 5.8125 
Q 4.890625 13.1875 4.890625 25.984375 
Q 4.890625 38.53125 12.0625 45.90625 
Q 18.265625 52.203125 27.390625 52.203125 
Q 37.25 52.203125 44.484375 43.890625 
L 44.484375 74.90625 
L 52.984375 74.90625 
z
M 44.484375 20.359375 
L 44.484375 32.765625 
Q 44.484375 37.703125 38.375 42.28125 
Q 34.078125 45.40625 28.953125 45.40625 
Q 23.1875 45.40625 19.1875 41.40625 
Q 13.875 36.078125 13.875 26.21875 
Q 13.875 17.328125 18.265625 11.71875 
Q 22.515625 6.390625 28.859375 6.390625 
Q 36.28125 6.390625 41.5 13.671875 
Q 44.484375 17.71875 44.484375 20.359375 
z
" id="IPAexGothic-100"/>
     </defs>
     <g transform="translate(198.832656 389.89725)scale(0.1 -0.1)">
      <use xlink:href="#IPAexGothic-67"/>
      <use x="72.509766" xlink:href="#IPAexGothic-111"/>
      <use x="132.910156" xlink:href="#IPAexGothic-110"/>
      <use x="193.310547" xlink:href="#IPAexGothic-102"/>
      <use x="223.925781" xlink:href="#IPAexGothic-105"/>
      <use x="250.927734" xlink:href="#IPAexGothic-114"/>
      <use x="287.939453" xlink:href="#IPAexGothic-109"/>
      <use x="375.048828" xlink:href="#IPAexGothic-101"/>
      <use x="431.933594" xlink:href="#IPAexGothic-100"/>
     </g>
    </g>
   </g>
   <g id="matplotlib.axis_2">
    <g id="ytick_1">
     <g id="line2d_34">
      <defs>
       <path d="M 0 0 
L -3.5 0 
" id="m2fcf43be51" style="stroke:#000000;stroke-width:0.8;"/>
      </defs>
      <g>
       <use style="stroke:#000000;stroke-width:0.8;" x="44.990625" xlink:href="#m2fcf43be51" y="278.222525"/>
      </g>
     </g>
     <g id="text_6">
      <!-- $\mathdefault{10^{1}}$ -->
      <g transform="translate(20.590625 281.967838)scale(0.1 -0.1)">
       <use transform="translate(0 0.707813)" xlink:href="#IPAexGothic-49"/>
       <use transform="translate(62.988281 0.707813)" xlink:href="#IPAexGothic-48"/>
       <use transform="translate(126.865234 36.254688)scale(0.7)" xlink:href="#IPAexGothic-49"/>
      </g>
     </g>
    </g>
    <g id="ytick_2">
     <g id="line2d_35">
      <g>
       <use style="stroke:#000000;stroke-width:0.8;" x="44.990625" xlink:href="#m2fcf43be51" y="174.263671"/>
      </g>
     </g>
     <g id="text_7">
      <!-- $\mathdefault{10^{2}}$ -->
      <g transform="translate(20.590625 178.008983)scale(0.1 -0.1)">
       <use transform="translate(0 0.773438)" xlink:href="#IPAexGothic-49"/>
       <use transform="translate(62.988281 0.773438)" xlink:href="#IPAexGothic-48"/>
       <use transform="translate(126.865234 36.320312)scale(0.7)" xlink:href="#IPAexGothic-50"/>
      </g>
     </g>
    </g>
    <g id="ytick_3">
     <g id="line2d_36">
      <g>
       <use style="stroke:#000000;stroke-width:0.8;" x="44.990625" xlink:href="#m2fcf43be51" y="70.304817"/>
      </g>
     </g>
     <g id="text_8">
      <!-- $\mathdefault{10^{3}}$ -->
      <g transform="translate(20.590625 74.050129)scale(0.1 -0.1)">
       <use transform="translate(0 0.773438)" xlink:href="#IPAexGothic-49"/>
       <use transform="translate(62.988281 0.773438)" xlink:href="#IPAexGothic-48"/>
       <use transform="translate(126.865234 36.320312)scale(0.7)" xlink:href="#IPAexGothic-51"/>
      </g>
     </g>
    </g>
    <g id="ytick_4">
     <g id="line2d_37">
      <defs>
       <path d="M 0 0 
L -2 0 
" id="ma489d3d1ee" style="stroke:#000000;stroke-width:0.6;"/>
      </defs>
      <g>
       <use style="stroke:#000000;stroke-width:0.6;" x="44.990625" xlink:href="#ma489d3d1ee" y="350.886646"/>
      </g>
     </g>
    </g>
    <g id="ytick_5">
     <g id="line2d_38">
      <g>
       <use style="stroke:#000000;stroke-width:0.6;" x="44.990625" xlink:href="#ma489d3d1ee" y="332.580401"/>
      </g>
     </g>
    </g>
    <g id="ytick_6">
     <g id="line2d_39">
      <g>
       <use style="stroke:#000000;stroke-width:0.6;" x="44.990625" xlink:href="#ma489d3d1ee" y="319.591913"/>
      </g>
     </g>
    </g>
    <g id="ytick_7">
     <g id="line2d_40">
      <g>
       <use style="stroke:#000000;stroke-width:0.6;" x="44.990625" xlink:href="#ma489d3d1ee" y="309.517259"/>
      </g>
     </g>
    </g>
    <g id="ytick_8">
     <g id="line2d_41">
      <g>
       <use style="stroke:#000000;stroke-width:0.6;" x="44.990625" xlink:href="#ma489d3d1ee" y="301.285667"/>
      </g>
     </g>
    </g>
    <g id="ytick_9">
     <g id="line2d_42">
      <g>
       <use style="stroke:#000000;stroke-width:0.6;" x="44.990625" xlink:href="#ma489d3d1ee" y="294.325956"/>
      </g>
     </g>
    </g>
    <g id="ytick_10">
     <g id="line2d_43">
      <g>
       <use style="stroke:#000000;stroke-width:0.6;" x="44.990625" xlink:href="#ma489d3d1ee" y="288.297179"/>
      </g>
     </g>
    </g>
    <g id="ytick_11">
     <g id="line2d_44">
      <g>
       <use style="stroke:#000000;stroke-width:0.6;" x="44.990625" xlink:href="#ma489d3d1ee" y="282.979422"/>
      </g>
     </g>
    </g>
    <g id="ytick_12">
     <g id="line2d_45">
      <g>
       <use style="stroke:#000000;stroke-width:0.6;" x="44.990625" xlink:href="#ma489d3d1ee" y="246.927792"/>
      </g>
     </g>
    </g>
    <g id="ytick_13">
     <g id="line2d_46">
      <g>
       <use style="stroke:#000000;stroke-width:0.6;" x="44.990625" xlink:href="#ma489d3d1ee" y="228.621546"/>
      </g>
     </g>
    </g>
    <g id="ytick_14">
     <g id="line2d_47">
      <g>
       <use style="stroke:#000000;stroke-width:0.6;" x="44.990625" xlink:href="#ma489d3d1ee" y="215.633058"/>
      </g>
     </g>
    </g>
    <g id="ytick_15">
     <g id="line2d_48">
      <g>
       <use style="stroke:#000000;stroke-width:0.6;" x="44.990625" xlink:href="#ma489d3d1ee" y="205.558404"/>
      </g>
     </g>
    </g>
    <g id="ytick_16">
     <g id="line2d_49">
      <g>
       <use style="stroke:#000000;stroke-width:0.6;" x="44.990625" xlink:href="#ma489d3d1ee" y="197.326813"/>
      </g>
     </g>
    </g>
    <g id="ytick_17">
     <g id="line2d_50">
      <g>
       <use style="stroke:#000000;stroke-width:0.6;" x="44.990625" xlink:href="#ma489d3d1ee" y="190.367101"/>
      </g>
     </g>
    </g>
    <g id="ytick_18">
     <g id="line2d_51">
      <g>
       <use style="stroke:#000000;stroke-width:0.6;" x="44.990625" xlink:href="#ma489d3d1ee" y="184.338325"/>
      </g>
     </g>
    </g>
    <g id="ytick_19">
     <g id="line2d_52">
      <g>
       <use style="stroke:#000000;stroke-width:0.6;" x="44.990625" xlink:href="#ma489d3d1ee" y="179.020567"/>
      </g>
     </g>
    </g>
    <g id="ytick_20">
     <g id="line2d_53">
      <g>
       <use style="stroke:#000000;stroke-width:0.6;" x="44.990625" xlink:href="#ma489d3d1ee" y="142.968937"/>
      </g>
     </g>
    </g>
    <g id="ytick_21">
     <g id="line2d_54">
      <g>
       <use style="stroke:#000000;stroke-width:0.6;" x="44.990625" xlink:href="#ma489d3d1ee" y="124.662692"/>
      </g>
     </g>
    </g>
    <g id="ytick_22">
     <g id="line2d_55">
      <g>
       <use style="stroke:#000000;stroke-width:0.6;" x="44.990625" xlink:href="#ma489d3d1ee" y="111.674204"/>
      </g>
     </g>
    </g>
    <g id="ytick_23">
     <g id="line2d_56">
      <g>
       <use style="stroke:#000000;stroke-width:0.6;" x="44.990625" xlink:href="#ma489d3d1ee" y="101.59955"/>
      </g>
     </g>
    </g>
    <g id="ytick_24">
     <g id="line2d_57">
      <g>
       <use style="stroke:#000000;stroke-width:0.6;" x="44.990625" xlink:href="#ma489d3d1ee" y="93.367958"/>
      </g>
     </g>
    </g>
    <g id="ytick_25">
     <g id="line2d_58">
      <g>
       <use style="stroke:#000000;stroke-width:0.6;" x="44.990625" xlink:href="#ma489d3d1ee" y="86.408247"/>
      </g>
     </g>
    </g>
    <g id="ytick_26">
     <g id="line2d_59">
      <g>
       <use style="stroke:#000000;stroke-width:0.6;" x="44.990625" xlink:href="#ma489d3d1ee" y="80.37947"/>
      </g>
     </g>
    </g>
    <g id="ytick_27">
     <g id="line2d_60">
      <g>
       <use style="stroke:#000000;stroke-width:0.6;" x="44.990625" xlink:href="#ma489d3d1ee" y="75.061713"/>
      </g>
     </g>
    </g>
    <g id="ytick_28">
     <g id="line2d_61">
      <g>
       <use style="stroke:#000000;stroke-width:0.6;" x="44.990625" xlink:href="#ma489d3d1ee" y="39.010083"/>
      </g>
     </g>
    </g>
    <g id="ytick_29">
     <g id="line2d_62">
      <g>
       <use style="stroke:#000000;stroke-width:0.6;" x="44.990625" xlink:href="#ma489d3d1ee" y="20.703837"/>
      </g>
     </g>
    </g>
    <g id="ytick_30">
     <g id="line2d_63">
      <g>
       <use style="stroke:#000000;stroke-width:0.6;" x="44.990625" xlink:href="#ma489d3d1ee" y="7.71535"/>
      </g>
     </g>
    </g>
    <g id="text_9">
     <!-- Deaths -->
     <defs>
      <path d="M 9.515625 72.40625 
L 31 72.40625 
Q 49.359375 72.40625 59.234375 63.28125 
Q 69.625 53.8125 69.625 36.8125 
Q 69.625 16.359375 54.9375 6.890625 
Q 45.703125 0.984375 30.328125 0.984375 
L 9.515625 0.984375 
z
M 18.3125 8.6875 
L 29.59375 8.6875 
Q 60.203125 8.6875 60.203125 36.8125 
Q 60.203125 64.796875 30.125 64.796875 
L 18.3125 64.796875 
z
" id="IPAexGothic-68"/>
      <path d="M 49.3125 0.984375 
L 41.75 0.984375 
Q 39.984375 4.734375 39.546875 8.6875 
L 39.203125 8.6875 
Q 33.546875 -0.390625 22.3125 -0.390625 
Q 14.59375 -0.390625 9.71875 4.5 
Q 5.421875 8.796875 5.421875 14.984375 
Q 5.421875 30.421875 32.03125 31.203125 
L 38.71875 31.390625 
L 38.71875 33.984375 
Q 38.71875 39.203125 35.75 42.1875 
Q 32.625 45.3125 27.734375 45.3125 
Q 19.34375 45.3125 15.140625 37.15625 
L 7.71875 40.578125 
Q 14.65625 52 27.9375 52 
Q 37.109375 52 42.046875 46.875 
Q 46.625 42.28125 46.625 33.890625 
L 46.625 15.578125 
Q 46.625 6.25 49.3125 0.984375 
z
M 38.921875 25.390625 
L 33.453125 25.296875 
Q 14.109375 24.859375 14.109375 14.890625 
Q 14.109375 11.375 16.40625 9.078125 
Q 19.234375 6.296875 23.828125 6.296875 
Q 30.21875 6.296875 34.90625 10.984375 
Q 38.921875 15.140625 38.921875 21 
z
" id="IPAexGothic-97"/>
      <path d="M 33.203125 3.765625 
Q 27.640625 -0.09375 21.828125 -0.09375 
Q 10.203125 -0.09375 10.203125 12.984375 
L 10.203125 44.671875 
L 3.421875 44.671875 
L 3.421875 50.78125 
L 10.203125 50.78125 
L 10.203125 61.96875 
L 18.40625 66.0625 
L 18.40625 50.78125 
L 32.234375 50.78125 
L 32.234375 44.671875 
L 18.40625 44.671875 
L 18.40625 14.15625 
Q 18.40625 6.5 23.640625 6.5 
Q 27.15625 6.5 30.328125 9.1875 
z
" id="IPAexGothic-116"/>
      <path d="M 52.296875 0.984375 
L 43.703125 0.984375 
L 43.703125 31.890625 
Q 43.703125 44.578125 33.296875 44.578125 
Q 22.609375 44.578125 17.671875 31.890625 
L 17.671875 0.984375 
L 9.078125 0.984375 
L 9.078125 74.90625 
L 17.671875 74.90625 
L 17.671875 42.28125 
Q 24.46875 51.8125 35.109375 51.8125 
Q 52.296875 51.8125 52.296875 32.375 
z
" id="IPAexGothic-104"/>
      <path d="M 34.90625 39.796875 
Q 30.28125 45.796875 23.1875 45.796875 
Q 13.921875 45.796875 13.921875 38.671875 
Q 13.921875 33.640625 23.921875 30.375 
L 27.203125 29.296875 
Q 41.40625 24.65625 41.40625 13.96875 
Q 41.40625 6.78125 35.5 2.6875 
Q 30.8125 -0.484375 23.390625 -0.484375 
Q 11.96875 -0.484375 4 7.859375 
L 9.421875 12.796875 
Q 15.578125 6.203125 23.6875 6.203125 
Q 33.296875 6.203125 33.296875 13.671875 
Q 33.296875 19.34375 22.703125 23.09375 
L 19.28125 24.265625 
Q 5.90625 28.953125 5.90625 37.984375 
Q 5.90625 43.703125 9.8125 47.609375 
Q 14.5 52.296875 22.703125 52.296875 
Q 33.6875 52.296875 40.71875 44.671875 
z
" id="IPAexGothic-115"/>
     </defs>
     <g transform="translate(14.690625 201.061125)rotate(-90)scale(0.1 -0.1)">
      <use xlink:href="#IPAexGothic-68"/>
      <use x="75.683594" xlink:href="#IPAexGothic-101"/>
      <use x="132.568359" xlink:href="#IPAexGothic-97"/>
      <use x="187.548828" xlink:href="#IPAexGothic-116"/>
      <use x="222.167969" xlink:href="#IPAexGothic-104"/>
      <use x="282.861328" xlink:href="#IPAexGothic-115"/>
     </g>
    </g>
   </g>
   <g id="line2d_64">
    <defs>
     <path d="M 0 3 
C 0.795609 3 1.55874 2.683901 2.12132 2.12132 
C 2.683901 1.55874 3 0.795609 3 0 
C 3 -0.795609 2.683901 -1.55874 2.12132 -2.12132 
C 1.55874 -2.683901 0.795609 -3 0 -3 
C -0.795609 -3 -1.55874 -2.683901 -2.12132 -2.12132 
C -2.683901 -1.55874 -3 -0.795609 -3 0 
C -3 0.795609 -2.683901 1.55874 -2.12132 2.12132 
C -1.55874 2.683901 -0.795609 3 0 3 
z
" id="maa5c72202a" style="stroke:#1f77b4;"/>
    </defs>
    <g clip-path="url(#pd0677c27e6)">
     <use style="fill:#1f77b4;stroke:#1f77b4;" x="385.877898" xlink:href="#maa5c72202a" y="18.329354"/>
     <use style="fill:#1f77b4;stroke:#1f77b4;" x="279.978976" xlink:href="#maa5c72202a" y="197.326813"/>
     <use style="fill:#1f77b4;stroke:#1f77b4;" x="161.961406" xlink:href="#maa5c72202a" y="269.990934"/>
     <use style="fill:#1f77b4;stroke:#1f77b4;" x="88.656866" xlink:href="#maa5c72202a" y="332.580401"/>
     <use style="fill:#1f77b4;stroke:#1f77b4;" x="292.125679" xlink:href="#maa5c72202a" y="91.093535"/>
     <use style="fill:#1f77b4;stroke:#1f77b4;" x="213.380004" xlink:href="#maa5c72202a" y="224.31841"/>
     <use style="fill:#1f77b4;stroke:#1f77b4;" x="209.806453" xlink:href="#maa5c72202a" y="220.389955"/>
     <use style="fill:#1f77b4;stroke:#1f77b4;" x="199.205358" xlink:href="#maa5c72202a" y="350.886646"/>
     <use style="fill:#1f77b4;stroke:#1f77b4;" x="155.384257" xlink:href="#maa5c72202a" y="332.580401"/>
     <use style="fill:#1f77b4;stroke:#1f77b4;" x="144.050857" xlink:href="#maa5c72202a" y="319.591913"/>
     <use style="fill:#1f77b4;stroke:#1f77b4;" x="142.974412" xlink:href="#maa5c72202a" y="301.285667"/>
     <use style="fill:#1f77b4;stroke:#1f77b4;" x="62.67989" xlink:href="#maa5c72202a" y="350.886646"/>
     <use style="fill:#1f77b4;stroke:#1f77b4;" x="281.619683" xlink:href="#maa5c72202a" y="126.037887"/>
     <use style="fill:#1f77b4;stroke:#1f77b4;" x="61.223352" xlink:href="#maa5c72202a" y="301.285667"/>
     <use style="fill:#1f77b4;stroke:#1f77b4;" x="171.136908" xlink:href="#maa5c72202a" y="236.853138"/>
     <use style="fill:#1f77b4;stroke:#1f77b4;" x="171.136908" xlink:href="#maa5c72202a" y="294.325956"/>
    </g>
   </g>
   <g id="line2d_65">
    <path clip-path="url(#pd0677c27e6)" d="M 61.223352 342.983899 
L 385.877898 18.329354 
" style="fill:none;stroke:#d3d3d3;stroke-linecap:square;stroke-width:1.5;"/>
   </g>
   <g id="line2d_66">
    <path clip-path="url(#pd0677c27e6)" d="M 129.702605 301.285667 
L 134.475739 301.285667 
L 162.19924 254.265319 
L 179.086522 236.853138 
L 199.240182 214.518218 
L 218.453913 200.441755 
L 233.023593 184.338325 
L 255.776001 171.632902 
L 268.372204 161.728943 
L 279.868225 150.306465 
L 290.175725 140.125704 
L 299.010975 131.297501 
L 307.955584 124.064686 
L 316.04283 116.305861 
L 323.803586 108.937078 
L 331.662013 102.419631 
L 338.040606 96.161556 
L 342.845586 90.666257 
L 347.497049 84.948638 
L 350.832771 79.707268 
L 354.311865 74.612468 
L 357.004943 69.543739 
L 359.093442 65.430686 
L 360.894091 56.157462 
L 362.791512 55.730442 
L 364.170781 51.281909 
L 365.169885 47.259738 
L 379.721067 44.474813 
L 380.915112 42.044475 
L 381.99277 38.87484 
L 382.232222 36.358023 
L 382.769528 33.913594 
L 383.258572 31.767467 
L 383.641106 29.939791 
L 383.769848 27.251571 
L 384.071536 26.032884 
L 384.30948 25.160741 
L 384.562257 24.681573 
L 384.751915 23.964135 
L 384.998822 23.210167 
L 385.324063 22.65677 
L 385.440218 22.001524 
L 385.513366 21.523918 
L 385.57966 20.945275 
L 385.659868 20.478656 
L 385.741613 20.031635 
L 385.798635 19.618371 
L 385.824327 19.223418 
L 385.849446 18.88968 
" style="fill:none;stroke:#ff7f0e;stroke-linecap:square;stroke-width:1.5;"/>
    <defs>
     <path d="M -3 3 
L 3 -3 
M -3 -3 
L 3 3 
" id="m63ad2d540a" style="stroke:#ff7f0e;"/>
    </defs>
    <g clip-path="url(#pd0677c27e6)">
     <use style="fill:#ff7f0e;stroke:#ff7f0e;" x="129.702605" xlink:href="#m63ad2d540a" y="301.285667"/>
     <use style="fill:#ff7f0e;stroke:#ff7f0e;" x="134.475739" xlink:href="#m63ad2d540a" y="301.285667"/>
     <use style="fill:#ff7f0e;stroke:#ff7f0e;" x="162.19924" xlink:href="#m63ad2d540a" y="254.265319"/>
     <use style="fill:#ff7f0e;stroke:#ff7f0e;" x="179.086522" xlink:href="#m63ad2d540a" y="236.853138"/>
     <use style="fill:#ff7f0e;stroke:#ff7f0e;" x="199.240182" xlink:href="#m63ad2d540a" y="214.518218"/>
     <use style="fill:#ff7f0e;stroke:#ff7f0e;" x="218.453913" xlink:href="#m63ad2d540a" y="200.441755"/>
     <use style="fill:#ff7f0e;stroke:#ff7f0e;" x="233.023593" xlink:href="#m63ad2d540a" y="184.338325"/>
     <use style="fill:#ff7f0e;stroke:#ff7f0e;" x="255.776001" xlink:href="#m63ad2d540a" y="171.632902"/>
     <use style="fill:#ff7f0e;stroke:#ff7f0e;" x="268.372204" xlink:href="#m63ad2d540a" y="161.728943"/>
     <use style="fill:#ff7f0e;stroke:#ff7f0e;" x="279.868225" xlink:href="#m63ad2d540a" y="150.306465"/>
     <use style="fill:#ff7f0e;stroke:#ff7f0e;" x="290.175725" xlink:href="#m63ad2d540a" y="140.125704"/>
     <use style="fill:#ff7f0e;stroke:#ff7f0e;" x="299.010975" xlink:href="#m63ad2d540a" y="131.297501"/>
     <use style="fill:#ff7f0e;stroke:#ff7f0e;" x="307.955584" xlink:href="#m63ad2d540a" y="124.064686"/>
     <use style="fill:#ff7f0e;stroke:#ff7f0e;" x="316.04283" xlink:href="#m63ad2d540a" y="116.305861"/>
     <use style="fill:#ff7f0e;stroke:#ff7f0e;" x="323.803586" xlink:href="#m63ad2d540a" y="108.937078"/>
     <use style="fill:#ff7f0e;stroke:#ff7f0e;" x="331.662013" xlink:href="#m63ad2d540a" y="102.419631"/>
     <use style="fill:#ff7f0e;stroke:#ff7f0e;" x="338.040606" xlink:href="#m63ad2d540a" y="96.161556"/>
     <use style="fill:#ff7f0e;stroke:#ff7f0e;" x="342.845586" xlink:href="#m63ad2d540a" y="90.666257"/>
     <use style="fill:#ff7f0e;stroke:#ff7f0e;" x="347.497049" xlink:href="#m63ad2d540a" y="84.948638"/>
     <use style="fill:#ff7f0e;stroke:#ff7f0e;" x="350.832771" xlink:href="#m63ad2d540a" y="79.707268"/>
     <use style="fill:#ff7f0e;stroke:#ff7f0e;" x="354.311865" xlink:href="#m63ad2d540a" y="74.612468"/>
     <use style="fill:#ff7f0e;stroke:#ff7f0e;" x="357.004943" xlink:href="#m63ad2d540a" y="69.543739"/>
     <use style="fill:#ff7f0e;stroke:#ff7f0e;" x="359.093442" xlink:href="#m63ad2d540a" y="65.430686"/>
     <use style="fill:#ff7f0e;stroke:#ff7f0e;" x="360.894091" xlink:href="#m63ad2d540a" y="56.157462"/>
     <use style="fill:#ff7f0e;stroke:#ff7f0e;" x="362.791512" xlink:href="#m63ad2d540a" y="55.730442"/>
     <use style="fill:#ff7f0e;stroke:#ff7f0e;" x="364.170781" xlink:href="#m63ad2d540a" y="51.281909"/>
     <use style="fill:#ff7f0e;stroke:#ff7f0e;" x="365.169885" xlink:href="#m63ad2d540a" y="47.259738"/>
     <use style="fill:#ff7f0e;stroke:#ff7f0e;" x="379.721067" xlink:href="#m63ad2d540a" y="44.474813"/>
     <use style="fill:#ff7f0e;stroke:#ff7f0e;" x="380.915112" xlink:href="#m63ad2d540a" y="42.044475"/>
     <use style="fill:#ff7f0e;stroke:#ff7f0e;" x="381.99277" xlink:href="#m63ad2d540a" y="38.87484"/>
     <use style="fill:#ff7f0e;stroke:#ff7f0e;" x="382.232222" xlink:href="#m63ad2d540a" y="36.358023"/>
     <use style="fill:#ff7f0e;stroke:#ff7f0e;" x="382.769528" xlink:href="#m63ad2d540a" y="33.913594"/>
     <use style="fill:#ff7f0e;stroke:#ff7f0e;" x="383.258572" xlink:href="#m63ad2d540a" y="31.767467"/>
     <use style="fill:#ff7f0e;stroke:#ff7f0e;" x="383.641106" xlink:href="#m63ad2d540a" y="29.939791"/>
     <use style="fill:#ff7f0e;stroke:#ff7f0e;" x="383.769848" xlink:href="#m63ad2d540a" y="27.251571"/>
     <use style="fill:#ff7f0e;stroke:#ff7f0e;" x="384.071536" xlink:href="#m63ad2d540a" y="26.032884"/>
     <use style="fill:#ff7f0e;stroke:#ff7f0e;" x="384.30948" xlink:href="#m63ad2d540a" y="25.160741"/>
     <use style="fill:#ff7f0e;stroke:#ff7f0e;" x="384.562257" xlink:href="#m63ad2d540a" y="24.681573"/>
     <use style="fill:#ff7f0e;stroke:#ff7f0e;" x="384.751915" xlink:href="#m63ad2d540a" y="23.964135"/>
     <use style="fill:#ff7f0e;stroke:#ff7f0e;" x="384.998822" xlink:href="#m63ad2d540a" y="23.210167"/>
     <use style="fill:#ff7f0e;stroke:#ff7f0e;" x="385.324063" xlink:href="#m63ad2d540a" y="22.65677"/>
     <use style="fill:#ff7f0e;stroke:#ff7f0e;" x="385.440218" xlink:href="#m63ad2d540a" y="22.001524"/>
     <use style="fill:#ff7f0e;stroke:#ff7f0e;" x="385.513366" xlink:href="#m63ad2d540a" y="21.523918"/>
     <use style="fill:#ff7f0e;stroke:#ff7f0e;" x="385.57966" xlink:href="#m63ad2d540a" y="20.945275"/>
     <use style="fill:#ff7f0e;stroke:#ff7f0e;" x="385.659868" xlink:href="#m63ad2d540a" y="20.478656"/>
     <use style="fill:#ff7f0e;stroke:#ff7f0e;" x="385.741613" xlink:href="#m63ad2d540a" y="20.031635"/>
     <use style="fill:#ff7f0e;stroke:#ff7f0e;" x="385.798635" xlink:href="#m63ad2d540a" y="19.618371"/>
     <use style="fill:#ff7f0e;stroke:#ff7f0e;" x="385.824327" xlink:href="#m63ad2d540a" y="19.223418"/>
     <use style="fill:#ff7f0e;stroke:#ff7f0e;" x="385.849446" xlink:href="#m63ad2d540a" y="18.88968"/>
    </g>
   </g>
   <g id="line2d_67">
    <path clip-path="url(#pd0677c27e6)" d="M 33.484478 399.99725 
L 33.485477 382.18138 
L 43.28567 382.18138 
L 54.876252 382.18138 
L 59.718254 382.18138 
L 64.090904 382.18138 
L 69.331418 382.18138 
L 76.202689 382.18138 
L 80.26374 382.18138 
L 85.743032 382.18138 
L 96.074944 382.18138 
L 100.0034 382.18138 
L 103.90572 382.18138 
L 105.875137 382.18138 
L 111.558474 332.580401 
L 117.037765 319.591913 
L 121.145028 309.517259 
L 122.878029 309.517259 
L 125.626266 301.285667 
L 128.048619 301.285667 
L 130.666672 301.285667 
L 135.629764 301.285667 
L 139.971726 301.285667 
L 147.023748 301.285667 
L 151.946328 301.285667 
L 155.107553 294.325956 
" style="fill:none;stroke:#2ca02c;stroke-linecap:square;stroke-width:1.5;"/>
    <defs>
     <path d="M -3 3 
L 3 -3 
M -3 -3 
L 3 3 
" id="mf7e9a00dd5" style="stroke:#2ca02c;"/>
    </defs>
    <g clip-path="url(#pd0677c27e6)">
     <use style="fill:#2ca02c;stroke:#2ca02c;" x="31.89478" xlink:href="#mf7e9a00dd5" y="28728.802"/>
     <use style="fill:#2ca02c;stroke:#2ca02c;" x="33.485477" xlink:href="#mf7e9a00dd5" y="382.18138"/>
     <use style="fill:#2ca02c;stroke:#2ca02c;" x="43.28567" xlink:href="#mf7e9a00dd5" y="382.18138"/>
     <use style="fill:#2ca02c;stroke:#2ca02c;" x="54.876252" xlink:href="#mf7e9a00dd5" y="382.18138"/>
     <use style="fill:#2ca02c;stroke:#2ca02c;" x="59.718254" xlink:href="#mf7e9a00dd5" y="382.18138"/>
     <use style="fill:#2ca02c;stroke:#2ca02c;" x="64.090904" xlink:href="#mf7e9a00dd5" y="382.18138"/>
     <use style="fill:#2ca02c;stroke:#2ca02c;" x="69.331418" xlink:href="#mf7e9a00dd5" y="382.18138"/>
     <use style="fill:#2ca02c;stroke:#2ca02c;" x="76.202689" xlink:href="#mf7e9a00dd5" y="382.18138"/>
     <use style="fill:#2ca02c;stroke:#2ca02c;" x="80.26374" xlink:href="#mf7e9a00dd5" y="382.18138"/>
     <use style="fill:#2ca02c;stroke:#2ca02c;" x="85.743032" xlink:href="#mf7e9a00dd5" y="382.18138"/>
     <use style="fill:#2ca02c;stroke:#2ca02c;" x="96.074944" xlink:href="#mf7e9a00dd5" y="382.18138"/>
     <use style="fill:#2ca02c;stroke:#2ca02c;" x="100.0034" xlink:href="#mf7e9a00dd5" y="382.18138"/>
     <use style="fill:#2ca02c;stroke:#2ca02c;" x="103.90572" xlink:href="#mf7e9a00dd5" y="382.18138"/>
     <use style="fill:#2ca02c;stroke:#2ca02c;" x="105.875137" xlink:href="#mf7e9a00dd5" y="382.18138"/>
     <use style="fill:#2ca02c;stroke:#2ca02c;" x="111.558474" xlink:href="#mf7e9a00dd5" y="332.580401"/>
     <use style="fill:#2ca02c;stroke:#2ca02c;" x="117.037765" xlink:href="#mf7e9a00dd5" y="319.591913"/>
     <use style="fill:#2ca02c;stroke:#2ca02c;" x="121.145028" xlink:href="#mf7e9a00dd5" y="309.517259"/>
     <use style="fill:#2ca02c;stroke:#2ca02c;" x="122.878029" xlink:href="#mf7e9a00dd5" y="309.517259"/>
     <use style="fill:#2ca02c;stroke:#2ca02c;" x="125.626266" xlink:href="#mf7e9a00dd5" y="301.285667"/>
     <use style="fill:#2ca02c;stroke:#2ca02c;" x="128.048619" xlink:href="#mf7e9a00dd5" y="301.285667"/>
     <use style="fill:#2ca02c;stroke:#2ca02c;" x="130.666672" xlink:href="#mf7e9a00dd5" y="301.285667"/>
     <use style="fill:#2ca02c;stroke:#2ca02c;" x="135.629764" xlink:href="#mf7e9a00dd5" y="301.285667"/>
     <use style="fill:#2ca02c;stroke:#2ca02c;" x="139.971726" xlink:href="#mf7e9a00dd5" y="301.285667"/>
     <use style="fill:#2ca02c;stroke:#2ca02c;" x="147.023748" xlink:href="#mf7e9a00dd5" y="301.285667"/>
     <use style="fill:#2ca02c;stroke:#2ca02c;" x="151.946328" xlink:href="#mf7e9a00dd5" y="301.285667"/>
     <use style="fill:#2ca02c;stroke:#2ca02c;" x="155.107553" xlink:href="#mf7e9a00dd5" y="294.325956"/>
    </g>
   </g>
   <g id="patch_3">
    <path d="M 44.990625 362.016 
L 44.990625 7.2 
" style="fill:none;stroke:#000000;stroke-linecap:square;stroke-linejoin:miter;stroke-width:0.8;"/>
   </g>
   <g id="patch_4">
    <path d="M 402.110625 362.016 
L 402.110625 7.2 
" style="fill:none;stroke:#000000;stroke-linecap:square;stroke-linejoin:miter;stroke-width:0.8;"/>
   </g>
   <g id="patch_5">
    <path d="M 44.990625 362.016 
L 402.110625 362.016 
" style="fill:none;stroke:#000000;stroke-linecap:square;stroke-linejoin:miter;stroke-width:0.8;"/>
   </g>
   <g id="patch_6">
    <path d="M 44.990625 7.2 
L 402.110625 7.2 
" style="fill:none;stroke:#000000;stroke-linecap:square;stroke-linejoin:miter;stroke-width:0.8;"/>
   </g>
   <g id="text_10">
    <!-- China -->
    <g transform="translate(358.318523 25.819979)scale(0.1 -0.1)">
     <use xlink:href="#IPAexGothic-67"/>
     <use x="72.509766" xlink:href="#IPAexGothic-104"/>
     <use x="133.203125" xlink:href="#IPAexGothic-105"/>
     <use x="160.205078" xlink:href="#IPAexGothic-110"/>
     <use x="220.605469" xlink:href="#IPAexGothic-97"/>
    </g>
   </g>
   <g id="text_11">
    <!-- Korea -->
    <defs>
     <path d="M 64.703125 0.984375 
L 53.328125 0.984375 
L 26.21875 36.671875 
L 18.3125 29 
L 18.3125 0.984375 
L 9.515625 0.984375 
L 9.515625 72.40625 
L 18.3125 72.40625 
L 18.3125 38.28125 
L 50 72.40625 
L 61.8125 72.40625 
L 31.890625 42.09375 
z
" id="IPAexGothic-75"/>
    </defs>
    <g transform="translate(252.589914 204.817438)scale(0.1 -0.1)">
     <use xlink:href="#IPAexGothic-75"/>
     <use x="64.599609" xlink:href="#IPAexGothic-111"/>
     <use x="125" xlink:href="#IPAexGothic-114"/>
     <use x="162.011719" xlink:href="#IPAexGothic-101"/>
     <use x="218.896484" xlink:href="#IPAexGothic-97"/>
    </g>
   </g>
   <g id="text_12">
    <!-- Japan -->
    <defs>
     <path d="M 28.421875 72.40625 
L 28.421875 19.28125 
Q 28.421875 -0.484375 11.921875 -0.484375 
Q 4.734375 -0.484375 -1.953125 3.265625 
L 1.3125 10.0625 
Q 5.90625 6.984375 10.84375 6.984375 
Q 19.53125 6.984375 19.53125 18.796875 
L 19.53125 72.40625 
z
" id="IPAexGothic-74"/>
     <path d="M 16.796875 42 
Q 23.828125 52.203125 34.46875 52.203125 
Q 43.265625 52.203125 49.5625 45.90625 
Q 56.890625 38.578125 56.890625 25.6875 
Q 56.890625 13.140625 49.65625 5.8125 
Q 43.359375 -0.484375 34.375 -0.484375 
Q 24.515625 -0.484375 17.28125 7.765625 
L 17.28125 -19 
L 8.796875 -19 
L 8.796875 50.78125 
L 16.796875 50.78125 
z
M 17.28125 30.46875 
L 17.28125 20.171875 
Q 17.28125 14.015625 23.6875 9.375 
Q 27.984375 6.296875 32.90625 6.296875 
Q 38.578125 6.296875 42.578125 10.296875 
Q 47.90625 15.578125 47.90625 25.484375 
Q 47.90625 34.375 43.5 39.984375 
Q 39.109375 45.3125 32.8125 45.3125 
Q 25.875 45.3125 20.90625 38.8125 
Q 17.28125 34.125 17.28125 30.46875 
z
" id="IPAexGothic-112"/>
    </defs>
    <g transform="translate(134.914531 277.481559)scale(0.1 -0.1)">
     <use xlink:href="#IPAexGothic-74"/>
     <use x="37.988281" xlink:href="#IPAexGothic-97"/>
     <use x="92.96875" xlink:href="#IPAexGothic-112"/>
     <use x="155.078125" xlink:href="#IPAexGothic-97"/>
     <use x="210.058594" xlink:href="#IPAexGothic-110"/>
    </g>
   </g>
   <g id="text_13">
    <!-- Australia -->
    <defs>
     <path d="M 63.375 0.984375 
L 53.8125 0.984375 
L 45.90625 22.015625 
L 17.1875 22.015625 
L 9.421875 0.984375 
L -0.09375 0.984375 
L 28.21875 72.90625 
L 35.296875 72.90625 
z
M 43.40625 29.109375 
L 36.1875 48.09375 
Q 33.203125 56.0625 31.6875 62.5 
L 31.390625 62.5 
Q 29.640625 55.671875 26.8125 48.09375 
L 19.734375 29.109375 
z
" id="IPAexGothic-65"/>
     <path d="M 51.3125 0.984375 
L 43.3125 0.984375 
L 43.3125 10.0625 
Q 35.9375 0 25.390625 0 
Q 16.75 0 11.921875 5.859375 
Q 8.109375 10.59375 8.109375 19.390625 
L 8.109375 50.78125 
L 16.703125 50.78125 
L 16.703125 19.671875 
Q 16.703125 7.28125 27.09375 7.28125 
Q 37.59375 7.28125 42.71875 20.171875 
L 42.71875 50.78125 
L 51.3125 50.78125 
z
" id="IPAexGothic-117"/>
     <path d="M 17.671875 0.984375 
L 9.078125 0.984375 
L 9.078125 74.90625 
L 17.671875 74.90625 
z
" id="IPAexGothic-108"/>
    </defs>
    <g transform="translate(88.656866 330.680401)scale(0.1 -0.1)">
     <use xlink:href="#IPAexGothic-65"/>
     <use x="63.720703" xlink:href="#IPAexGothic-117"/>
     <use x="124.121094" xlink:href="#IPAexGothic-115"/>
     <use x="170.3125" xlink:href="#IPAexGothic-116"/>
     <use x="204.931641" xlink:href="#IPAexGothic-114"/>
     <use x="241.943359" xlink:href="#IPAexGothic-97"/>
     <use x="296.923828" xlink:href="#IPAexGothic-108"/>
     <use x="323.925781" xlink:href="#IPAexGothic-105"/>
     <use x="350.927734" xlink:href="#IPAexGothic-97"/>
    </g>
   </g>
   <g id="text_14">
    <!-- Italy -->
    <defs>
     <path d="M 18.796875 0.984375 
L 9.90625 0.984375 
L 9.90625 72.40625 
L 18.796875 72.40625 
z
" id="IPAexGothic-73"/>
     <path d="M 48.78125 50.78125 
L 24.609375 -7.625 
Q 19.96875 -18.796875 8.59375 -18.796875 
L 7.46875 -18.796875 
L 5.375 -10.984375 
L 6.984375 -10.984375 
Q 15.140625 -10.984375 17.96875 -3.71875 
L 21.1875 4.296875 
L 0.59375 50.78125 
L 10.296875 50.78125 
L 21.296875 22.796875 
Q 23.875 16.015625 25.09375 12.203125 
L 25.390625 12.203125 
Q 27.34375 18.265625 29.109375 22.796875 
L 39.5 50.78125 
z
" id="IPAexGothic-121"/>
    </defs>
    <g transform="translate(272.652242 98.58416)scale(0.1 -0.1)">
     <use xlink:href="#IPAexGothic-73"/>
     <use x="28.90625" xlink:href="#IPAexGothic-116"/>
     <use x="63.525391" xlink:href="#IPAexGothic-97"/>
     <use x="118.505859" xlink:href="#IPAexGothic-108"/>
     <use x="145.507812" xlink:href="#IPAexGothic-121"/>
    </g>
   </g>
   <g id="text_15">
    <!-- France -->
    <defs>
     <path d="M 54.203125 64.703125 
L 18.3125 64.703125 
L 18.3125 41.5 
L 50.09375 41.5 
L 50.09375 34.1875 
L 18.3125 34.1875 
L 18.3125 0.984375 
L 9.515625 0.984375 
L 9.515625 72.40625 
L 54.203125 72.40625 
z
" id="IPAexGothic-70"/>
     <path d="M 51.078125 12.25 
Q 44.28125 -0.484375 29.6875 -0.484375 
Q 19.1875 -0.484375 12.3125 6.390625 
Q 4.890625 13.921875 4.890625 25.984375 
Q 4.890625 37.9375 12.3125 45.515625 
Q 19.09375 52.296875 29.390625 52.296875 
Q 43.953125 52.296875 50.09375 39.703125 
L 43.171875 36.078125 
Q 38.8125 45.3125 29.6875 45.3125 
Q 23.6875 45.3125 19.28125 40.921875 
Q 13.765625 35.40625 13.765625 25.78125 
Q 13.765625 16.703125 19.09375 11.375 
Q 23.78125 6.6875 30.5625 6.6875 
Q 39.796875 6.6875 44.484375 15.875 
z
" id="IPAexGothic-99"/>
    </defs>
    <g transform="translate(213.380004 222.41841)scale(0.1 -0.1)">
     <use xlink:href="#IPAexGothic-70"/>
     <use x="57.177734" xlink:href="#IPAexGothic-114"/>
     <use x="94.189453" xlink:href="#IPAexGothic-97"/>
     <use x="149.169922" xlink:href="#IPAexGothic-110"/>
     <use x="209.570312" xlink:href="#IPAexGothic-99"/>
     <use x="263.964844" xlink:href="#IPAexGothic-101"/>
    </g>
   </g>
   <g id="text_16">
    <!-- Spain -->
    <defs>
     <path d="M 45.609375 56.890625 
Q 40.046875 66.546875 28.953125 66.546875 
Q 22.703125 66.546875 18.953125 62.640625 
Q 16.0625 59.421875 16.0625 55.21875 
Q 16.0625 50.59375 19.78125 47.609375 
Q 22.5625 45.515625 31 42 
L 34.375 40.578125 
Q 45.703125 36.03125 49.859375 30.515625 
Q 53.46875 25.6875 53.46875 19.671875 
Q 53.46875 10.0625 46.390625 4.5 
Q 39.984375 -0.484375 30.171875 -0.484375 
Q 13.765625 -0.484375 4.890625 11.96875 
L 11.765625 17.1875 
Q 18.796875 7.171875 30.28125 7.171875 
Q 35.75 7.171875 39.59375 9.765625 
Q 44.390625 13.234375 44.390625 19 
Q 44.390625 23.484375 40.875 27 
Q 37.109375 30.609375 27 34.46875 
L 24.078125 35.59375 
Q 7.078125 42.09375 7.078125 54.390625 
Q 7.078125 62.59375 12.59375 67.921875 
Q 18.796875 73.828125 29.109375 73.828125 
Q 44.390625 73.828125 52.484375 61.8125 
z
" id="IPAexGothic-83"/>
    </defs>
    <g transform="translate(183.506453 227.88058)scale(0.1 -0.1)">
     <use xlink:href="#IPAexGothic-83"/>
     <use x="58.496094" xlink:href="#IPAexGothic-112"/>
     <use x="120.605469" xlink:href="#IPAexGothic-97"/>
     <use x="175.585938" xlink:href="#IPAexGothic-105"/>
     <use x="202.587891" xlink:href="#IPAexGothic-110"/>
    </g>
   </g>
   <g id="text_17">
    <!-- Germany -->
    <defs>
     <path d="M 68.796875 12.203125 
Q 65.1875 7.71875 58.296875 3.90625 
Q 50.140625 -0.484375 40.484375 -0.484375 
Q 25.09375 -0.484375 15.4375 9.8125 
Q 5.90625 19.921875 5.90625 36.328125 
Q 5.90625 53.21875 15.828125 63.71875 
Q 25.296875 73.828125 39.59375 73.828125 
Q 59.375 73.828125 67.578125 56.6875 
L 59.625 52.984375 
Q 53.46875 66.21875 39.703125 66.21875 
Q 29.546875 66.21875 22.703125 58.5 
Q 15.53125 50.25 15.53125 36.375 
Q 15.53125 23.921875 21.828125 15.96875 
Q 28.8125 7.171875 41.015625 7.171875 
Q 54.046875 7.171875 60.59375 15.09375 
L 60.59375 29 
L 44.671875 29 
L 44.671875 35.796875 
L 68.796875 35.796875 
z
" id="IPAexGothic-71"/>
    </defs>
    <g transform="translate(199.205358 348.986646)scale(0.1 -0.1)">
     <use xlink:href="#IPAexGothic-71"/>
     <use x="75.292969" xlink:href="#IPAexGothic-101"/>
     <use x="132.177734" xlink:href="#IPAexGothic-114"/>
     <use x="169.189453" xlink:href="#IPAexGothic-109"/>
     <use x="256.298828" xlink:href="#IPAexGothic-97"/>
     <use x="311.279297" xlink:href="#IPAexGothic-110"/>
     <use x="371.679688" xlink:href="#IPAexGothic-121"/>
    </g>
   </g>
   <g id="text_18">
    <!-- Switzerland -->
    <defs>
     <path d="M 74.5625 50.78125 
L 57.28125 0.09375 
L 51.265625 0.09375 
L 40.765625 29.984375 
Q 39.203125 34.421875 37.703125 40.96875 
L 37.40625 40.96875 
Q 36.28125 36.234375 34.1875 29.984375 
L 23.96875 0.09375 
L 17.96875 0.09375 
L 0.6875 50.78125 
L 9.671875 50.78125 
L 18.0625 23.296875 
Q 18.84375 20.796875 21.296875 11.765625 
L 21.578125 11.765625 
Q 23.046875 17.578125 24.90625 23.296875 
L 33.890625 50.78125 
L 41.5 50.78125 
L 50.875 23.296875 
Q 52.296875 19.4375 54.203125 11.765625 
L 54.5 11.765625 
Q 56.109375 18.5 57.5625 23.296875 
L 65.875 50.78125 
z
" id="IPAexGothic-119"/>
     <path d="M 43.40625 0.984375 
L 3.21875 0.984375 
L 3.21875 5.953125 
L 24.609375 33.984375 
Q 28.46875 39.0625 32.515625 43.703125 
L 32.515625 44 
L 5.71875 44 
L 5.71875 50.78125 
L 42.234375 50.78125 
L 42.234375 45.3125 
L 21.53125 17.78125 
Q 19.625 15.234375 13.625 8.15625 
L 13.625 7.859375 
L 43.40625 7.859375 
z
" id="IPAexGothic-122"/>
    </defs>
    <g transform="translate(155.384257 330.680401)scale(0.1 -0.1)">
     <use xlink:href="#IPAexGothic-83"/>
     <use x="58.496094" xlink:href="#IPAexGothic-119"/>
     <use x="133.691406" xlink:href="#IPAexGothic-105"/>
     <use x="160.693359" xlink:href="#IPAexGothic-116"/>
     <use x="195.3125" xlink:href="#IPAexGothic-122"/>
     <use x="242.626953" xlink:href="#IPAexGothic-101"/>
     <use x="299.511719" xlink:href="#IPAexGothic-114"/>
     <use x="336.523438" xlink:href="#IPAexGothic-108"/>
     <use x="363.525391" xlink:href="#IPAexGothic-97"/>
     <use x="418.505859" xlink:href="#IPAexGothic-110"/>
     <use x="478.90625" xlink:href="#IPAexGothic-100"/>
    </g>
   </g>
   <g id="text_19">
    <!-- Netherlands -->
    <defs>
     <path d="M 66.3125 0.984375 
L 58.296875 0.984375 
L 26.515625 49.21875 
Q 22.90625 54.6875 17.828125 64.015625 
L 17.4375 64.015625 
L 17.625 59.328125 
Q 18.109375 43.796875 18.109375 38.578125 
L 18.109375 0.984375 
L 9.515625 0.984375 
L 9.515625 72.40625 
L 21.34375 72.40625 
L 48.640625 30.90625 
Q 53.953125 22.609375 58.015625 15.09375 
L 58.40625 15.09375 
Q 57.71875 29.640625 57.71875 38.578125 
L 57.71875 72.40625 
L 66.3125 72.40625 
z
" id="IPAexGothic-78"/>
    </defs>
    <g transform="translate(144.050857 317.691913)scale(0.1 -0.1)">
     <use xlink:href="#IPAexGothic-78"/>
     <use x="75.976562" xlink:href="#IPAexGothic-101"/>
     <use x="132.861328" xlink:href="#IPAexGothic-116"/>
     <use x="167.480469" xlink:href="#IPAexGothic-104"/>
     <use x="228.173828" xlink:href="#IPAexGothic-101"/>
     <use x="285.058594" xlink:href="#IPAexGothic-114"/>
     <use x="322.070312" xlink:href="#IPAexGothic-108"/>
     <use x="349.072266" xlink:href="#IPAexGothic-97"/>
     <use x="404.052734" xlink:href="#IPAexGothic-110"/>
     <use x="464.453125" xlink:href="#IPAexGothic-100"/>
     <use x="526.855469" xlink:href="#IPAexGothic-115"/>
    </g>
   </g>
   <g id="text_20">
    <!-- UK -->
    <defs>
     <path d="M 65.921875 72.40625 
L 65.921875 25.484375 
Q 65.921875 15.53125 61.03125 9.28125 
Q 53.125 -0.984375 37.3125 -0.984375 
Q 21.4375 -0.984375 13.375 9.28125 
Q 8.59375 15.4375 8.59375 25.484375 
L 8.59375 72.40625 
L 17.390625 72.40625 
L 17.390625 26.5625 
Q 17.390625 17.71875 21.6875 12.984375 
Q 27.390625 6.6875 37.3125 6.6875 
Q 47.359375 6.6875 52.9375 12.984375 
Q 57.234375 17.875 57.234375 26.5625 
L 57.234375 72.40625 
z
" id="IPAexGothic-85"/>
    </defs>
    <g transform="translate(129.044724 308.776292)scale(0.1 -0.1)">
     <use xlink:href="#IPAexGothic-85"/>
     <use x="74.707031" xlink:href="#IPAexGothic-75"/>
    </g>
   </g>
   <g id="text_21">
    <!-- San Marino -->
    <defs>
     <path id="IPAexGothic-32"/>
     <path d="M 80.421875 0.984375 
L 71.828125 0.984375 
L 71.828125 39.59375 
Q 71.828125 51.265625 72.40625 64.59375 
L 72.015625 64.59375 
Q 68.0625 53.265625 63.53125 41.796875 
L 47.90625 3.265625 
L 41.40625 3.265625 
L 25.640625 42.578125 
Q 20.75 54.78125 17.625 64.703125 
L 17.234375 64.703125 
Q 17.828125 48.921875 17.828125 39.890625 
L 17.828125 0.984375 
L 9.515625 0.984375 
L 9.515625 72.40625 
L 22.125 72.40625 
L 39.109375 30.375 
Q 42.140625 23 44.828125 14.15625 
L 45.125 14.15625 
Q 47.3125 22.125 50.53125 30.171875 
L 67.4375 72.40625 
L 80.421875 72.40625 
z
" id="IPAexGothic-77"/>
    </defs>
    <g transform="translate(62.67989 348.986646)scale(0.1 -0.1)">
     <use xlink:href="#IPAexGothic-83"/>
     <use x="58.496094" xlink:href="#IPAexGothic-97"/>
     <use x="113.476562" xlink:href="#IPAexGothic-110"/>
     <use x="173.876953" xlink:href="#IPAexGothic-32"/>
     <use x="200.878906" xlink:href="#IPAexGothic-77"/>
     <use x="291.064453" xlink:href="#IPAexGothic-97"/>
     <use x="346.044922" xlink:href="#IPAexGothic-114"/>
     <use x="383.056641" xlink:href="#IPAexGothic-105"/>
     <use x="410.058594" xlink:href="#IPAexGothic-110"/>
     <use x="470.458984" xlink:href="#IPAexGothic-111"/>
    </g>
   </g>
   <g id="text_22">
    <!-- Iran -->
    <g transform="translate(281.619683 124.137887)scale(0.1 -0.1)">
     <use xlink:href="#IPAexGothic-73"/>
     <use x="28.90625" xlink:href="#IPAexGothic-114"/>
     <use x="65.917969" xlink:href="#IPAexGothic-97"/>
     <use x="120.898438" xlink:href="#IPAexGothic-110"/>
    </g>
   </g>
   <g id="text_23">
    <!-- Iraq -->
    <defs>
     <path d="M 53.078125 -19 
L 44.484375 -19 
L 44.484375 8.6875 
Q 38.140625 -0.484375 27.484375 -0.484375 
Q 18.453125 -0.484375 12.3125 5.8125 
Q 4.890625 13.1875 4.890625 25.875 
Q 4.890625 38.28125 12.3125 45.703125 
Q 18.796875 52.203125 28.171875 52.203125 
Q 38.625 52.203125 45.359375 43.796875 
L 46.578125 51.171875 
L 53.078125 51.171875 
z
M 44.484375 19.96875 
L 44.484375 32.671875 
Q 44.484375 35.5 41.40625 39.203125 
Q 36.234375 45.40625 29.203125 45.40625 
Q 21.96875 45.40625 17.671875 39.3125 
Q 13.875 33.984375 13.875 26.125 
Q 13.875 17.4375 18.265625 11.8125 
Q 22.609375 6.390625 28.953125 6.390625 
Q 36.46875 6.390625 41.703125 13.671875 
Q 44.484375 17.671875 44.484375 19.96875 
z
" id="IPAexGothic-113"/>
    </defs>
    <g transform="translate(61.223352 299.385667)scale(0.1 -0.1)">
     <use xlink:href="#IPAexGothic-73"/>
     <use x="28.90625" xlink:href="#IPAexGothic-114"/>
     <use x="65.917969" xlink:href="#IPAexGothic-97"/>
     <use x="120.898438" xlink:href="#IPAexGothic-113"/>
    </g>
   </g>
   <g id="text_24">
    <!-- US -->
    <g transform="translate(157.816595 244.343763)scale(0.1 -0.1)">
     <use xlink:href="#IPAexGothic-85"/>
     <use x="74.707031" xlink:href="#IPAexGothic-83"/>
    </g>
   </g>
   <g id="text_25">
    <!-- (Diamond Princess) -->
    <defs>
     <path d="M 30.125 -15.875 
L 25.828125 -18.21875 
Q 7.625 1.078125 7.625 29.296875 
Q 7.625 57.46875 25.828125 76.703125 
L 30.125 74.421875 
Q 15.71875 55.03125 15.71875 29.390625 
Q 15.71875 3.171875 30.125 -15.875 
z
" id="IPAexGothic-40"/>
     <path d="M 9.515625 72.40625 
L 30.328125 72.40625 
Q 57.625 72.40625 57.625 51.90625 
Q 57.625 30.21875 29.78125 30.21875 
L 18.3125 30.21875 
L 18.3125 0.984375 
L 9.515625 0.984375 
z
M 18.3125 37.203125 
L 28.125 37.203125 
Q 48.4375 37.203125 48.4375 51.8125 
Q 48.4375 65.328125 29.59375 65.328125 
L 18.3125 65.328125 
z
" id="IPAexGothic-80"/>
     <path d="M 7.28125 76.703125 
Q 25.59375 57.375 25.59375 29.296875 
Q 25.59375 1.171875 7.28125 -18.21875 
L 2.984375 -15.875 
Q 17.484375 3.375 17.484375 29.390625 
Q 17.484375 54.828125 2.984375 74.421875 
z
" id="IPAexGothic-41"/>
    </defs>
    <g transform="translate(171.136908 292.425956)scale(0.1 -0.1)">
     <use xlink:href="#IPAexGothic-40"/>
     <use x="33.300781" xlink:href="#IPAexGothic-68"/>
     <use x="108.984375" xlink:href="#IPAexGothic-105"/>
     <use x="135.986328" xlink:href="#IPAexGothic-97"/>
     <use x="190.966797" xlink:href="#IPAexGothic-109"/>
     <use x="278.076172" xlink:href="#IPAexGothic-111"/>
     <use x="338.476562" xlink:href="#IPAexGothic-110"/>
     <use x="398.876953" xlink:href="#IPAexGothic-100"/>
     <use x="461.279297" xlink:href="#IPAexGothic-32"/>
     <use x="488.28125" xlink:href="#IPAexGothic-80"/>
     <use x="550.390625" xlink:href="#IPAexGothic-114"/>
     <use x="587.402344" xlink:href="#IPAexGothic-105"/>
     <use x="614.404297" xlink:href="#IPAexGothic-110"/>
     <use x="674.804688" xlink:href="#IPAexGothic-99"/>
     <use x="729.199219" xlink:href="#IPAexGothic-101"/>
     <use x="786.083984" xlink:href="#IPAexGothic-115"/>
     <use x="832.275391" xlink:href="#IPAexGothic-115"/>
     <use x="878.466797" xlink:href="#IPAexGothic-41"/>
    </g>
   </g>
  </g>
 </g>
 <defs>
  <clipPath id="pd0677c27e6">
   <rect height="354.816" width="357.12" x="44.990625" y="7.2"/>
  </clipPath>
 </defs>
</svg>
