<?xml version="1.0" encoding="utf-8" standalone="no"?>
<!DOCTYPE svg PUBLIC "-//W3C//DTD SVG 1.1//EN"
  "http://www.w3.org/Graphics/SVG/1.1/DTD/svg11.dtd">
<!-- Created with matplotlib (https://matplotlib.org/) -->
<svg height="320.239875pt" version="1.1" viewBox="0 0 399.666701 320.239875" width="399.666701pt" xmlns="http://www.w3.org/2000/svg" xmlns:xlink="http://www.w3.org/1999/xlink">
 <metadata>
  <rdf:RDF xmlns:cc="http://creativecommons.org/ns#" xmlns:dc="http://purl.org/dc/elements/1.1/" xmlns:rdf="http://www.w3.org/1999/02/22-rdf-syntax-ns#">
   <cc:Work>
    <dc:type rdf:resource="http://purl.org/dc/dcmitype/StillImage"/>
    <dc:date>2020-07-28T07:56:22.970233</dc:date>
    <dc:format>image/svg+xml</dc:format>
    <dc:creator>
     <cc:Agent>
      <dc:title>Matplotlib v3.3.0, https://matplotlib.org/</dc:title>
     </cc:Agent>
    </dc:creator>
   </cc:Work>
  </rdf:RDF>
 </metadata>
 <defs>
  <style type="text/css">*{stroke-linecap:butt;stroke-linejoin:round;}</style>
 </defs>
 <g id="figure_1">
  <g id="patch_1">
   <path d="M 0 320.239875 
L 399.666701 320.239875 
L 399.666701 0 
L 0 0 
z
" style="fill:#ffffff;"/>
  </g>
  <g id="axes_1">
   <g id="patch_2">
    <path d="M 33.095313 284.258625 
L 390.215312 284.258625 
L 390.215312 18.146625 
L 33.095313 18.146625 
z
" style="fill:#ffffff;"/>
   </g>
   <g id="matplotlib.axis_1">
    <g id="xtick_1">
     <g id="line2d_1">
      <defs>
       <path d="M 0 0 
L 0 3.5 
" id="mfab3dacd79" style="stroke:#000000;stroke-width:0.8;"/>
      </defs>
      <g>
       <use style="stroke:#000000;stroke-width:0.8;" x="46.160678" xlink:href="#mfab3dacd79" y="284.258625"/>
      </g>
     </g>
     <g id="text_1">
      <!-- 2020 -->
      <g transform="translate(33.563803 298.74925)scale(0.1 -0.1)">
       <defs>
        <path d="M 57.171875 0.984375 
L 6.984375 0.984375 
L 6.984375 9.28125 
Q 12.890625 23.046875 29.59375 34.421875 
L 32.375 36.28125 
Q 40.921875 42.140625 43.609375 45.40625 
Q 46.6875 49.265625 46.6875 53.8125 
Q 46.6875 58.9375 43.0625 62.546875 
Q 39.0625 66.546875 32.5625 66.546875 
Q 19.53125 66.546875 15.484375 52 
L 7.765625 54.78125 
Q 13.328125 73.828125 33.0625 73.828125 
Q 43.84375 73.828125 50.25 67.4375 
Q 55.859375 61.671875 55.859375 53.515625 
Q 55.859375 47.46875 52.25 42.53125 
Q 48.921875 37.75 36.96875 30.28125 
L 34.859375 29 
Q 19.625 19.578125 15.28125 8.890625 
L 57.171875 8.890625 
z
" id="IPAexGothic-50"/>
        <path d="M 31.84375 73.828125 
Q 45.015625 73.828125 52.09375 61.625 
Q 57.71875 51.953125 57.71875 36.625 
Q 57.71875 21.4375 52.09375 11.578125 
Q 45.125 -0.484375 31.5 -0.484375 
Q 17.921875 -0.484375 10.9375 11.578125 
Q 5.328125 21.4375 5.328125 36.71875 
Q 5.328125 58.015625 15.625 67.71875 
Q 22.171875 73.828125 31.84375 73.828125 
z
M 31.5 66.65625 
Q 23.6875 66.65625 19.1875 58.734375 
Q 14.59375 50.734375 14.59375 36.625 
Q 14.59375 22.75 19.09375 14.796875 
Q 23.640625 6.984375 31.5 6.984375 
Q 40.921875 6.984375 45.453125 18.015625 
Q 48.4375 25.34375 48.4375 37.109375 
Q 48.4375 50.875 43.84375 58.734375 
Q 39.203125 66.65625 31.5 66.65625 
z
" id="IPAexGothic-48"/>
       </defs>
       <use xlink:href="#IPAexGothic-50"/>
       <use x="62.988281" xlink:href="#IPAexGothic-48"/>
       <use x="125.976562" xlink:href="#IPAexGothic-50"/>
       <use x="188.964844" xlink:href="#IPAexGothic-48"/>
      </g>
     </g>
    </g>
    <g id="xtick_2">
     <g id="line2d_2">
      <g>
       <use style="stroke:#000000;stroke-width:0.8;" x="95.25478" xlink:href="#mfab3dacd79" y="284.258625"/>
      </g>
     </g>
     <g id="text_2">
      <!-- Feb -->
      <g transform="translate(86.431343 298.74925)scale(0.1 -0.1)">
       <defs>
        <path d="M 54.203125 64.703125 
L 18.3125 64.703125 
L 18.3125 41.5 
L 50.09375 41.5 
L 50.09375 34.1875 
L 18.3125 34.1875 
L 18.3125 0.984375 
L 9.515625 0.984375 
L 9.515625 72.40625 
L 54.203125 72.40625 
z
" id="IPAexGothic-70"/>
        <path d="M 13.484375 24.90625 
Q 13.921875 16.265625 18.890625 11.28125 
Q 23.96875 6.203125 31.203125 6.203125 
Q 40.71875 6.203125 46.296875 15.09375 
L 51.90625 11.375 
Q 44.828125 -0.484375 30.171875 -0.484375 
Q 19.09375 -0.484375 11.96875 6.59375 
Q 4.78125 13.8125 4.78125 25.640625 
Q 4.78125 38.1875 12.3125 45.703125 
Q 19 52.390625 29 52.390625 
Q 38.421875 52.390625 44.78125 46.1875 
Q 51.90625 38.96875 51.90625 26.90625 
L 51.90625 24.90625 
z
M 43.0625 31.203125 
Q 42.328125 37.984375 38.28125 41.890625 
Q 34.28125 45.90625 28.8125 45.90625 
Q 22.46875 45.90625 17.96875 40.484375 
Q 14.890625 36.8125 13.96875 31.203125 
z
" id="IPAexGothic-101"/>
        <path d="M 17.578125 42.671875 
Q 24.21875 52.203125 34.671875 52.203125 
Q 43.5625 52.203125 49.859375 45.90625 
Q 57.171875 38.578125 57.171875 25.6875 
Q 57.171875 13.09375 49.859375 5.8125 
Q 43.5625 -0.484375 34.46875 -0.484375 
Q 24.359375 -0.484375 17 8.0625 
L 15.765625 0.6875 
L 9.078125 0.6875 
L 9.078125 74.90625 
L 17.578125 74.90625 
z
M 17.578125 31.203125 
L 17.578125 19.578125 
Q 17.578125 13.875 23.875 9.375 
Q 28.171875 6.296875 33.109375 6.296875 
Q 38.875 6.296875 42.875 10.296875 
Q 48.1875 15.765625 48.1875 25.484375 
Q 48.1875 34.28125 43.796875 39.890625 
Q 39.453125 45.3125 33.203125 45.3125 
Q 27.484375 45.3125 22.46875 40.28125 
Q 17.578125 35.40625 17.578125 31.203125 
z
" id="IPAexGothic-98"/>
       </defs>
       <use xlink:href="#IPAexGothic-70"/>
       <use x="57.177734" xlink:href="#IPAexGothic-101"/>
       <use x="114.0625" xlink:href="#IPAexGothic-98"/>
      </g>
     </g>
    </g>
    <g id="xtick_3">
     <g id="line2d_3">
      <g>
       <use style="stroke:#000000;stroke-width:0.8;" x="141.181521" xlink:href="#mfab3dacd79" y="284.258625"/>
      </g>
     </g>
     <g id="text_3">
      <!-- Mar -->
      <g transform="translate(132.072146 298.74925)scale(0.1 -0.1)">
       <defs>
        <path d="M 80.421875 0.984375 
L 71.828125 0.984375 
L 71.828125 39.59375 
Q 71.828125 51.265625 72.40625 64.59375 
L 72.015625 64.59375 
Q 68.0625 53.265625 63.53125 41.796875 
L 47.90625 3.265625 
L 41.40625 3.265625 
L 25.640625 42.578125 
Q 20.75 54.78125 17.625 64.703125 
L 17.234375 64.703125 
Q 17.828125 48.921875 17.828125 39.890625 
L 17.828125 0.984375 
L 9.515625 0.984375 
L 9.515625 72.40625 
L 22.125 72.40625 
L 39.109375 30.375 
Q 42.140625 23 44.828125 14.15625 
L 45.125 14.15625 
Q 47.3125 22.125 50.53125 30.171875 
L 67.4375 72.40625 
L 80.421875 72.40625 
z
" id="IPAexGothic-77"/>
        <path d="M 49.3125 0.984375 
L 41.75 0.984375 
Q 39.984375 4.734375 39.546875 8.6875 
L 39.203125 8.6875 
Q 33.546875 -0.390625 22.3125 -0.390625 
Q 14.59375 -0.390625 9.71875 4.5 
Q 5.421875 8.796875 5.421875 14.984375 
Q 5.421875 30.421875 32.03125 31.203125 
L 38.71875 31.390625 
L 38.71875 33.984375 
Q 38.71875 39.203125 35.75 42.1875 
Q 32.625 45.3125 27.734375 45.3125 
Q 19.34375 45.3125 15.140625 37.15625 
L 7.71875 40.578125 
Q 14.65625 52 27.9375 52 
Q 37.109375 52 42.046875 46.875 
Q 46.625 42.28125 46.625 33.890625 
L 46.625 15.578125 
Q 46.625 6.25 49.3125 0.984375 
z
M 38.921875 25.390625 
L 33.453125 25.296875 
Q 14.109375 24.859375 14.109375 14.890625 
Q 14.109375 11.375 16.40625 9.078125 
Q 19.234375 6.296875 23.828125 6.296875 
Q 30.21875 6.296875 34.90625 10.984375 
Q 38.921875 15.140625 38.921875 21 
z
" id="IPAexGothic-97"/>
        <path d="M 36.078125 51.8125 
L 34.578125 43.265625 
Q 32.90625 43.609375 31.59375 43.609375 
Q 25.828125 43.609375 22.078125 38.1875 
Q 17.390625 31.34375 17.390625 26.171875 
L 17.390625 0.984375 
L 8.796875 0.984375 
L 8.796875 50.78125 
L 16.890625 50.78125 
L 16.5 35.984375 
L 16.703125 35.984375 
Q 22.21875 52.203125 32.765625 52.203125 
Q 34.46875 52.203125 36.078125 51.8125 
z
" id="IPAexGothic-114"/>
       </defs>
       <use xlink:href="#IPAexGothic-77"/>
       <use x="90.185547" xlink:href="#IPAexGothic-97"/>
       <use x="145.166016" xlink:href="#IPAexGothic-114"/>
      </g>
     </g>
    </g>
    <g id="xtick_4">
     <g id="line2d_4">
      <g>
       <use style="stroke:#000000;stroke-width:0.8;" x="190.275623" xlink:href="#mfab3dacd79" y="284.258625"/>
      </g>
     </g>
     <g id="text_4">
      <!-- Apr -->
      <g transform="translate(182.133435 298.74925)scale(0.1 -0.1)">
       <defs>
        <path d="M 63.375 0.984375 
L 53.8125 0.984375 
L 45.90625 22.015625 
L 17.1875 22.015625 
L 9.421875 0.984375 
L -0.09375 0.984375 
L 28.21875 72.90625 
L 35.296875 72.90625 
z
M 43.40625 29.109375 
L 36.1875 48.09375 
Q 33.203125 56.0625 31.6875 62.5 
L 31.390625 62.5 
Q 29.640625 55.671875 26.8125 48.09375 
L 19.734375 29.109375 
z
" id="IPAexGothic-65"/>
        <path d="M 16.796875 42 
Q 23.828125 52.203125 34.46875 52.203125 
Q 43.265625 52.203125 49.5625 45.90625 
Q 56.890625 38.578125 56.890625 25.6875 
Q 56.890625 13.140625 49.65625 5.8125 
Q 43.359375 -0.484375 34.375 -0.484375 
Q 24.515625 -0.484375 17.28125 7.765625 
L 17.28125 -19 
L 8.796875 -19 
L 8.796875 50.78125 
L 16.796875 50.78125 
z
M 17.28125 30.46875 
L 17.28125 20.171875 
Q 17.28125 14.015625 23.6875 9.375 
Q 27.984375 6.296875 32.90625 6.296875 
Q 38.578125 6.296875 42.578125 10.296875 
Q 47.90625 15.578125 47.90625 25.484375 
Q 47.90625 34.375 43.5 39.984375 
Q 39.109375 45.3125 32.8125 45.3125 
Q 25.875 45.3125 20.90625 38.8125 
Q 17.28125 34.125 17.28125 30.46875 
z
" id="IPAexGothic-112"/>
       </defs>
       <use xlink:href="#IPAexGothic-65"/>
       <use x="63.720703" xlink:href="#IPAexGothic-112"/>
       <use x="125.830078" xlink:href="#IPAexGothic-114"/>
      </g>
     </g>
    </g>
    <g id="xtick_5">
     <g id="line2d_5">
      <g>
       <use style="stroke:#000000;stroke-width:0.8;" x="237.786044" xlink:href="#mfab3dacd79" y="284.258625"/>
      </g>
     </g>
     <g id="text_5">
      <!-- May -->
      <g transform="translate(228.066513 298.74925)scale(0.1 -0.1)">
       <defs>
        <path d="M 48.78125 50.78125 
L 24.609375 -7.625 
Q 19.96875 -18.796875 8.59375 -18.796875 
L 7.46875 -18.796875 
L 5.375 -10.984375 
L 6.984375 -10.984375 
Q 15.140625 -10.984375 17.96875 -3.71875 
L 21.1875 4.296875 
L 0.59375 50.78125 
L 10.296875 50.78125 
L 21.296875 22.796875 
Q 23.875 16.015625 25.09375 12.203125 
L 25.390625 12.203125 
Q 27.34375 18.265625 29.109375 22.796875 
L 39.5 50.78125 
z
" id="IPAexGothic-121"/>
       </defs>
       <use xlink:href="#IPAexGothic-77"/>
       <use x="90.185547" xlink:href="#IPAexGothic-97"/>
       <use x="145.166016" xlink:href="#IPAexGothic-121"/>
      </g>
     </g>
    </g>
    <g id="xtick_6">
     <g id="line2d_6">
      <g>
       <use style="stroke:#000000;stroke-width:0.8;" x="286.880146" xlink:href="#mfab3dacd79" y="284.258625"/>
      </g>
     </g>
     <g id="text_6">
      <!-- Jun -->
      <g transform="translate(278.940302 298.74925)scale(0.1 -0.1)">
       <defs>
        <path d="M 28.421875 72.40625 
L 28.421875 19.28125 
Q 28.421875 -0.484375 11.921875 -0.484375 
Q 4.734375 -0.484375 -1.953125 3.265625 
L 1.3125 10.0625 
Q 5.90625 6.984375 10.84375 6.984375 
Q 19.53125 6.984375 19.53125 18.796875 
L 19.53125 72.40625 
z
" id="IPAexGothic-74"/>
        <path d="M 51.3125 0.984375 
L 43.3125 0.984375 
L 43.3125 10.0625 
Q 35.9375 0 25.390625 0 
Q 16.75 0 11.921875 5.859375 
Q 8.109375 10.59375 8.109375 19.390625 
L 8.109375 50.78125 
L 16.703125 50.78125 
L 16.703125 19.671875 
Q 16.703125 7.28125 27.09375 7.28125 
Q 37.59375 7.28125 42.71875 20.171875 
L 42.71875 50.78125 
L 51.3125 50.78125 
z
" id="IPAexGothic-117"/>
        <path d="M 52 0.984375 
L 43.40625 0.984375 
L 43.40625 31.890625 
Q 43.40625 44.578125 32.90625 44.578125 
Q 22.3125 44.578125 17.390625 31.890625 
L 17.390625 0.984375 
L 8.796875 0.984375 
L 8.796875 50.78125 
L 16.796875 50.78125 
L 16.796875 41.796875 
Q 23.828125 51.8125 34.71875 51.8125 
Q 52 51.8125 52 32.375 
z
" id="IPAexGothic-110"/>
       </defs>
       <use xlink:href="#IPAexGothic-74"/>
       <use x="37.988281" xlink:href="#IPAexGothic-117"/>
       <use x="98.388672" xlink:href="#IPAexGothic-110"/>
      </g>
     </g>
    </g>
    <g id="xtick_7">
     <g id="line2d_7">
      <g>
       <use style="stroke:#000000;stroke-width:0.8;" x="334.390567" xlink:href="#mfab3dacd79" y="284.258625"/>
      </g>
     </g>
     <g id="text_7">
      <!-- Jul -->
      <g transform="translate(328.121036 298.74925)scale(0.1 -0.1)">
       <defs>
        <path d="M 17.671875 0.984375 
L 9.078125 0.984375 
L 9.078125 74.90625 
L 17.671875 74.90625 
z
" id="IPAexGothic-108"/>
       </defs>
       <use xlink:href="#IPAexGothic-74"/>
       <use x="37.988281" xlink:href="#IPAexGothic-117"/>
       <use x="98.388672" xlink:href="#IPAexGothic-108"/>
      </g>
     </g>
    </g>
    <g id="xtick_8">
     <g id="line2d_8">
      <g>
       <use style="stroke:#000000;stroke-width:0.8;" x="383.484669" xlink:href="#mfab3dacd79" y="284.258625"/>
      </g>
     </g>
     <g id="text_8">
      <!-- Aug -->
      <g transform="translate(374.502638 298.691437)scale(0.1 -0.1)">
       <defs>
        <path d="M 20.796875 17.96875 
Q 15.71875 17.53125 15.71875 14.0625 
Q 15.71875 9.578125 27.546875 8.984375 
L 33.296875 8.6875 
Q 51.609375 7.765625 51.609375 -4.59375 
Q 51.609375 -10.9375 45.703125 -14.984375 
Q 39.359375 -19.578125 28.03125 -19.578125 
Q 17.78125 -19.578125 11.53125 -16.0625 
Q 5.515625 -12.640625 5.515625 -6.6875 
Q 5.515625 1.3125 16.796875 3.859375 
L 16.796875 4.203125 
Q 7.90625 6.453125 7.90625 12.15625 
Q 7.90625 17.4375 15.53125 20.265625 
Q 7.125 24.609375 7.125 34.078125 
Q 7.125 41.40625 12.015625 46.296875 
Q 17.625 51.90625 27.15625 51.90625 
Q 33.203125 51.90625 37.84375 49.265625 
Q 41.40625 53.953125 50.921875 54.109375 
L 50.921875 47.078125 
Q 44.34375 46.921875 42.234375 45.90625 
Q 47.40625 40.828125 47.40625 33.890625 
Q 47.40625 27 42.71875 22.265625 
Q 37.5 17.09375 28.328125 17.09375 
Q 24.421875 17.09375 20.796875 17.96875 
z
M 27.09375 45.609375 
Q 22.015625 45.609375 18.703125 42.28125 
Q 15.4375 39.015625 15.4375 34.078125 
Q 15.4375 29.25 18.5 26.3125 
Q 21.828125 23 27.4375 23 
Q 32.71875 23 35.890625 26.21875 
Q 39.109375 29.390625 39.109375 34.421875 
Q 39.109375 39.015625 35.890625 42.1875 
Q 32.515625 45.609375 27.09375 45.609375 
z
M 27.390625 2.484375 
Q 14.109375 2.484375 14.109375 -5.71875 
Q 14.109375 -13.671875 28.125 -13.671875 
Q 37.15625 -13.671875 41.21875 -9.46875 
Q 43.3125 -7.515625 43.3125 -4.890625 
Q 43.3125 2.484375 27.390625 2.484375 
z
" id="IPAexGothic-103"/>
       </defs>
       <use xlink:href="#IPAexGothic-65"/>
       <use x="63.720703" xlink:href="#IPAexGothic-117"/>
       <use x="124.121094" xlink:href="#IPAexGothic-103"/>
      </g>
     </g>
    </g>
    <g id="text_9">
     <!-- 2020 -->
     <g transform="translate(365.021562 311.139875)scale(0.1 -0.1)">
      <use xlink:href="#IPAexGothic-50"/>
      <use x="62.988281" xlink:href="#IPAexGothic-48"/>
      <use x="125.976562" xlink:href="#IPAexGothic-50"/>
      <use x="188.964844" xlink:href="#IPAexGothic-48"/>
     </g>
    </g>
   </g>
   <g id="matplotlib.axis_2">
    <g id="ytick_1">
     <g id="line2d_9">
      <defs>
       <path d="M 0 0 
L -3.5 0 
" id="m3a4364f162" style="stroke:#000000;stroke-width:0.8;"/>
      </defs>
      <g>
       <use style="stroke:#000000;stroke-width:0.8;" x="33.095313" xlink:href="#m3a4364f162" y="272.162625"/>
      </g>
     </g>
     <g id="text_10">
      <!-- 0 -->
      <g transform="translate(19.796875 275.907937)scale(0.1 -0.1)">
       <use xlink:href="#IPAexGothic-48"/>
      </g>
     </g>
    </g>
    <g id="ytick_2">
     <g id="line2d_10">
      <g>
       <use style="stroke:#000000;stroke-width:0.8;" x="33.095313" xlink:href="#m3a4364f162" y="215.573151"/>
      </g>
     </g>
     <g id="text_11">
      <!-- 200 -->
      <g transform="translate(7.2 219.318464)scale(0.1 -0.1)">
       <use xlink:href="#IPAexGothic-50"/>
       <use x="62.988281" xlink:href="#IPAexGothic-48"/>
       <use x="125.976562" xlink:href="#IPAexGothic-48"/>
      </g>
     </g>
    </g>
    <g id="ytick_3">
     <g id="line2d_11">
      <g>
       <use style="stroke:#000000;stroke-width:0.8;" x="33.095313" xlink:href="#m3a4364f162" y="158.983678"/>
      </g>
     </g>
     <g id="text_12">
      <!-- 400 -->
      <g transform="translate(7.2 162.72899)scale(0.1 -0.1)">
       <defs>
        <path d="M 59.578125 18.109375 
L 47.796875 18.109375 
L 47.796875 0.984375 
L 39.796875 0.984375 
L 39.796875 18.109375 
L 3.078125 18.109375 
L 3.078125 26.125 
L 38.375 73.09375 
L 47.796875 73.09375 
L 47.796875 25.53125 
L 59.578125 25.53125 
z
M 40.28125 64.203125 
L 39.984375 64.203125 
Q 35.59375 57.125 31.296875 51.3125 
L 11.859375 25.53125 
L 39.796875 25.53125 
L 39.796875 49.125 
Q 39.796875 54.390625 40.28125 64.203125 
z
" id="IPAexGothic-52"/>
       </defs>
       <use xlink:href="#IPAexGothic-52"/>
       <use x="62.988281" xlink:href="#IPAexGothic-48"/>
       <use x="125.976562" xlink:href="#IPAexGothic-48"/>
      </g>
     </g>
    </g>
    <g id="ytick_4">
     <g id="line2d_12">
      <g>
       <use style="stroke:#000000;stroke-width:0.8;" x="33.095313" xlink:href="#m3a4364f162" y="102.394204"/>
      </g>
     </g>
     <g id="text_13">
      <!-- 600 -->
      <g transform="translate(7.2 106.139516)scale(0.1 -0.1)">
       <defs>
        <path d="M 16.5 36.375 
Q 23.578125 46.578125 34.90625 46.578125 
Q 45.40625 46.578125 51.8125 39.265625 
Q 57.421875 32.90625 57.421875 23.78125 
Q 57.421875 13.8125 51.125 6.78125 
Q 44.578125 -0.484375 34.03125 -0.484375 
Q 21.484375 -0.484375 14.40625 9.078125 
Q 7.515625 18.40625 7.515625 34.8125 
Q 7.515625 53.515625 15.828125 64.203125 
Q 23.34375 73.828125 35.5 73.828125 
Q 49.859375 73.828125 56.390625 62.890625 
L 49.21875 58.984375 
Q 45.21875 66.65625 35.9375 66.65625 
Q 17.484375 66.65625 16.109375 36.375 
z
M 33.453125 39.796875 
Q 26.3125 39.796875 21.625 34.46875 
Q 17.4375 29.6875 17.4375 24.078125 
Q 17.4375 18.0625 21.140625 13.1875 
Q 26.125 6.6875 33.734375 6.6875 
Q 41.703125 6.6875 45.953125 13.1875 
Q 48.828125 17.625 48.828125 23.484375 
Q 48.828125 30.375 45.015625 34.8125 
Q 40.625 39.796875 33.453125 39.796875 
z
" id="IPAexGothic-54"/>
       </defs>
       <use xlink:href="#IPAexGothic-54"/>
       <use x="62.988281" xlink:href="#IPAexGothic-48"/>
       <use x="125.976562" xlink:href="#IPAexGothic-48"/>
      </g>
     </g>
    </g>
    <g id="ytick_5">
     <g id="line2d_13">
      <g>
       <use style="stroke:#000000;stroke-width:0.8;" x="33.095313" xlink:href="#m3a4364f162" y="45.80473"/>
      </g>
     </g>
     <g id="text_14">
      <!-- 800 -->
      <g transform="translate(7.2 49.550043)scale(0.1 -0.1)">
       <defs>
        <path d="M 39.703125 37.890625 
Q 57.8125 31.734375 57.8125 18.703125 
Q 57.8125 8.453125 48.4375 3.078125 
Q 41.609375 -0.875 31.5 -0.875 
Q 21.34375 -0.875 14.5 3.078125 
Q 5.421875 8.296875 5.421875 18.40625 
Q 5.421875 31.0625 22.015625 37.203125 
L 22.015625 37.5 
Q 7.515625 42.71875 7.515625 54.828125 
Q 7.515625 64.0625 15.328125 69.625 
Q 21.96875 74.3125 31.546875 74.3125 
Q 42.234375 74.3125 48.921875 68.796875 
Q 55.515625 63.578125 55.515625 55.71875 
Q 55.515625 42.28125 39.703125 38.1875 
z
M 31.59375 41.015625 
Q 46.828125 44.625 46.828125 55.125 
Q 46.828125 61.1875 41.796875 64.84375 
Q 37.703125 67.921875 31.5 67.921875 
Q 25.09375 67.921875 20.796875 64.5 
Q 16.40625 60.890625 16.40625 55.03125 
Q 16.40625 49.21875 21.09375 45.703125 
Q 23.34375 43.890625 26.90625 42.53125 
Q 31 40.875 31.59375 41.015625 
z
M 30.90625 34.515625 
Q 14.40625 30.171875 14.40625 19 
Q 14.40625 12.109375 20.515625 8.6875 
Q 25.09375 6.109375 31.390625 6.109375 
Q 40.234375 6.109375 45.015625 10.890625 
Q 48.53125 14.40625 48.53125 19.53125 
Q 48.53125 24.90625 43.65625 28.90625 
Q 40.765625 31.15625 36.71875 32.8125 
Q 31.984375 34.71875 30.90625 34.515625 
z
" id="IPAexGothic-56"/>
       </defs>
       <use xlink:href="#IPAexGothic-56"/>
       <use x="62.988281" xlink:href="#IPAexGothic-48"/>
       <use x="125.976562" xlink:href="#IPAexGothic-48"/>
      </g>
     </g>
    </g>
   </g>
   <g id="line2d_14">
    <path clip-path="url(#p18ac9e3048)" d="M 49.32804 271.879678 
L 50.91172 272.162625 
L 65.164847 272.162625 
L 66.748528 271.59673 
L 68.332208 272.162625 
L 74.666931 272.162625 
L 76.250612 271.313783 
L 77.834293 271.879678 
L 79.417973 271.59673 
L 81.001654 271.879678 
L 82.585335 271.59673 
L 84.169015 271.59673 
L 85.752696 271.313783 
L 87.336377 272.162625 
L 90.503738 271.59673 
L 92.087419 271.879678 
L 93.6711 271.030836 
L 95.25478 271.313783 
L 96.838461 271.030836 
L 98.422142 269.899046 
L 101.589503 271.59673 
L 103.173184 270.464941 
L 104.756865 270.747888 
L 106.340545 271.59673 
L 107.924226 271.879678 
L 109.507907 269.616099 
L 111.091587 272.162625 
L 112.675268 270.181993 
L 114.258949 270.181993 
L 115.84263 269.616099 
L 117.42631 269.616099 
L 119.009991 267.918414 
L 120.593672 269.050204 
L 122.177352 268.201362 
L 123.761033 267.918414 
L 125.344714 265.937783 
L 126.928395 267.069572 
L 128.512075 266.503678 
L 130.095756 265.654836 
L 131.679437 265.088941 
L 133.263117 262.825362 
L 134.846798 263.674204 
L 136.430479 265.088941 
L 138.01416 261.97652 
L 139.59784 265.088941 
L 141.181521 264.523046 
L 142.765202 260.561783 
L 144.348882 265.088941 
L 145.932563 263.108309 
L 147.516244 263.957151 
L 149.099924 264.523046 
L 150.683605 261.410625 
L 152.267286 263.108309 
L 153.850967 259.712941 
L 155.434647 264.523046 
L 157.018328 260.84473 
L 158.602009 263.108309 
L 160.185689 259.429993 
L 161.76937 263.674204 
L 163.353051 262.825362 
L 164.936732 260.84473 
L 166.520412 257.732309 
L 168.104093 256.317572 
L 169.687774 251.507467 
L 171.271454 254.902836 
L 172.855135 251.507467 
L 174.438816 250.375678 
L 176.022497 241.604309 
L 177.606177 245.282625 
L 179.189858 240.189572 
L 180.773539 236.228309 
L 182.357219 211.328941 
L 183.9409 218.402625 
L 185.524581 218.119678 
L 187.108262 190.390836 
L 188.691942 190.95673 
L 190.275623 173.696941 
L 191.859304 191.239678 
L 193.442984 173.696941 
L 195.026665 189.541993 
L 196.610346 201.142836 
L 198.194026 182.468309 
L 199.777707 195.200941 
L 201.361388 193.786204 
L 202.945069 208.21652 
L 204.528749 203.123467 
L 206.11243 204.821151 
L 207.696111 217.270836 
L 209.279791 211.328941 
L 212.447153 215.290204 
L 214.030834 232.832941 
L 215.614514 228.871678 
L 217.198195 231.701151 
L 218.781876 239.623678 
L 220.365556 228.58873 
L 221.949237 242.453151 
L 223.532918 241.038414 
L 225.116599 250.941572 
L 226.700279 242.170204 
L 228.28396 251.790414 
L 229.867641 250.941572 
L 231.451321 248.395046 
L 233.035002 255.751678 
L 234.618683 258.015257 
L 236.202363 253.488099 
L 237.786044 256.883467 
L 239.369725 256.317572 
L 240.953406 262.259467 
L 242.537086 263.957151 
L 244.120767 262.542414 
L 245.704448 264.805993 
L 247.288128 263.957151 
L 248.871809 265.937783 
L 250.45549 267.069572 
L 252.039171 267.069572 
L 253.622851 266.786625 
L 255.206532 266.22073 
L 256.790213 268.201362 
L 258.373893 268.201362 
L 259.957574 267.069572 
L 261.541255 269.616099 
L 263.124936 268.201362 
L 264.708616 269.616099 
L 266.292297 267.35252 
L 267.875978 270.181993 
L 269.459658 269.050204 
L 271.043339 267.635467 
L 272.62702 269.333151 
L 274.210701 268.484309 
L 275.794381 270.464941 
L 277.378062 270.181993 
L 278.961743 269.333151 
L 280.545423 269.333151 
L 283.712785 271.030836 
L 285.296465 271.313783 
L 286.880146 269.050204 
L 290.047508 270.747888 
L 291.631188 270.464941 
L 293.214869 268.201362 
L 294.79855 269.050204 
L 296.38223 269.050204 
L 297.965911 269.899046 
L 299.549592 266.786625 
L 301.133273 268.484309 
L 302.716953 266.786625 
L 304.300634 270.181993 
L 305.884315 268.767257 
L 307.467995 267.918414 
L 309.051676 268.201362 
L 310.635357 269.616099 
L 312.219038 268.767257 
L 313.802718 267.635467 
L 315.386399 268.484309 
L 316.97008 268.201362 
L 318.55376 269.616099 
L 320.137441 262.825362 
L 321.721122 265.937783 
L 323.304803 262.825362 
L 324.888483 263.108309 
L 326.472164 264.523046 
L 328.055845 256.60052 
L 329.639525 263.108309 
L 331.223206 259.712941 
L 332.806887 258.581151 
L 334.390567 254.902836 
L 335.974248 256.60052 
L 337.557929 254.053993 
L 339.14161 251.22452 
L 340.72529 250.375678 
L 342.308971 242.170204 
L 343.892652 243.019046 
L 345.476332 240.47252 
L 347.060013 233.96473 
L 348.643694 235.945362 
L 350.227375 231.701151 
L 351.811055 230.569362 
L 353.394736 216.987888 
L 354.978417 210.480099 
L 356.562097 209.631257 
L 358.145778 211.328941 
L 359.729459 207.08473 
L 361.31314 208.21652 
L 362.89682 217.553783 
L 364.480501 221.232099 
L 366.064182 226.325151 
L 367.647862 241.887257 
L 369.231543 253.488099 
L 372.398905 269.616099 
L 373.982585 272.162625 
L 373.982585 272.162625 
" style="fill:none;stroke:#1f77b4;stroke-linecap:square;stroke-width:1.5;"/>
    <defs>
     <path d="M 0 3 
C 0.795609 3 1.55874 2.683901 2.12132 2.12132 
C 2.683901 1.55874 3 0.795609 3 0 
C 3 -0.795609 2.683901 -1.55874 2.12132 -2.12132 
C 1.55874 -2.683901 0.795609 -3 0 -3 
C -0.795609 -3 -1.55874 -2.683901 -2.12132 -2.12132 
C -2.683901 -1.55874 -3 -0.795609 -3 0 
C -3 0.795609 -2.683901 1.55874 -2.12132 2.12132 
C -1.55874 2.683901 -0.795609 3 0 3 
z
" id="mf7cd1f7559" style="stroke:#1f77b4;"/>
    </defs>
    <g clip-path="url(#p18ac9e3048)">
     <use style="fill:#1f77b4;stroke:#1f77b4;" x="49.32804" xlink:href="#mf7cd1f7559" y="271.879678"/>
     <use style="fill:#1f77b4;stroke:#1f77b4;" x="50.91172" xlink:href="#mf7cd1f7559" y="272.162625"/>
     <use style="fill:#1f77b4;stroke:#1f77b4;" x="52.495401" xlink:href="#mf7cd1f7559" y="272.162625"/>
     <use style="fill:#1f77b4;stroke:#1f77b4;" x="54.079082" xlink:href="#mf7cd1f7559" y="272.162625"/>
     <use style="fill:#1f77b4;stroke:#1f77b4;" x="55.662763" xlink:href="#mf7cd1f7559" y="272.162625"/>
     <use style="fill:#1f77b4;stroke:#1f77b4;" x="57.246443" xlink:href="#mf7cd1f7559" y="272.162625"/>
     <use style="fill:#1f77b4;stroke:#1f77b4;" x="58.830124" xlink:href="#mf7cd1f7559" y="272.162625"/>
     <use style="fill:#1f77b4;stroke:#1f77b4;" x="60.413805" xlink:href="#mf7cd1f7559" y="272.162625"/>
     <use style="fill:#1f77b4;stroke:#1f77b4;" x="61.997485" xlink:href="#mf7cd1f7559" y="272.162625"/>
     <use style="fill:#1f77b4;stroke:#1f77b4;" x="63.581166" xlink:href="#mf7cd1f7559" y="272.162625"/>
     <use style="fill:#1f77b4;stroke:#1f77b4;" x="65.164847" xlink:href="#mf7cd1f7559" y="272.162625"/>
     <use style="fill:#1f77b4;stroke:#1f77b4;" x="66.748528" xlink:href="#mf7cd1f7559" y="271.59673"/>
     <use style="fill:#1f77b4;stroke:#1f77b4;" x="68.332208" xlink:href="#mf7cd1f7559" y="272.162625"/>
     <use style="fill:#1f77b4;stroke:#1f77b4;" x="69.915889" xlink:href="#mf7cd1f7559" y="272.162625"/>
     <use style="fill:#1f77b4;stroke:#1f77b4;" x="71.49957" xlink:href="#mf7cd1f7559" y="272.162625"/>
     <use style="fill:#1f77b4;stroke:#1f77b4;" x="73.08325" xlink:href="#mf7cd1f7559" y="272.162625"/>
     <use style="fill:#1f77b4;stroke:#1f77b4;" x="74.666931" xlink:href="#mf7cd1f7559" y="272.162625"/>
     <use style="fill:#1f77b4;stroke:#1f77b4;" x="76.250612" xlink:href="#mf7cd1f7559" y="271.313783"/>
     <use style="fill:#1f77b4;stroke:#1f77b4;" x="77.834293" xlink:href="#mf7cd1f7559" y="271.879678"/>
     <use style="fill:#1f77b4;stroke:#1f77b4;" x="79.417973" xlink:href="#mf7cd1f7559" y="271.59673"/>
     <use style="fill:#1f77b4;stroke:#1f77b4;" x="81.001654" xlink:href="#mf7cd1f7559" y="271.879678"/>
     <use style="fill:#1f77b4;stroke:#1f77b4;" x="82.585335" xlink:href="#mf7cd1f7559" y="271.59673"/>
     <use style="fill:#1f77b4;stroke:#1f77b4;" x="84.169015" xlink:href="#mf7cd1f7559" y="271.59673"/>
     <use style="fill:#1f77b4;stroke:#1f77b4;" x="85.752696" xlink:href="#mf7cd1f7559" y="271.313783"/>
     <use style="fill:#1f77b4;stroke:#1f77b4;" x="87.336377" xlink:href="#mf7cd1f7559" y="272.162625"/>
     <use style="fill:#1f77b4;stroke:#1f77b4;" x="88.920058" xlink:href="#mf7cd1f7559" y="271.879678"/>
     <use style="fill:#1f77b4;stroke:#1f77b4;" x="90.503738" xlink:href="#mf7cd1f7559" y="271.59673"/>
     <use style="fill:#1f77b4;stroke:#1f77b4;" x="92.087419" xlink:href="#mf7cd1f7559" y="271.879678"/>
     <use style="fill:#1f77b4;stroke:#1f77b4;" x="93.6711" xlink:href="#mf7cd1f7559" y="271.030836"/>
     <use style="fill:#1f77b4;stroke:#1f77b4;" x="95.25478" xlink:href="#mf7cd1f7559" y="271.313783"/>
     <use style="fill:#1f77b4;stroke:#1f77b4;" x="96.838461" xlink:href="#mf7cd1f7559" y="271.030836"/>
     <use style="fill:#1f77b4;stroke:#1f77b4;" x="98.422142" xlink:href="#mf7cd1f7559" y="269.899046"/>
     <use style="fill:#1f77b4;stroke:#1f77b4;" x="100.005822" xlink:href="#mf7cd1f7559" y="270.747888"/>
     <use style="fill:#1f77b4;stroke:#1f77b4;" x="101.589503" xlink:href="#mf7cd1f7559" y="271.59673"/>
     <use style="fill:#1f77b4;stroke:#1f77b4;" x="103.173184" xlink:href="#mf7cd1f7559" y="270.464941"/>
     <use style="fill:#1f77b4;stroke:#1f77b4;" x="104.756865" xlink:href="#mf7cd1f7559" y="270.747888"/>
     <use style="fill:#1f77b4;stroke:#1f77b4;" x="106.340545" xlink:href="#mf7cd1f7559" y="271.59673"/>
     <use style="fill:#1f77b4;stroke:#1f77b4;" x="107.924226" xlink:href="#mf7cd1f7559" y="271.879678"/>
     <use style="fill:#1f77b4;stroke:#1f77b4;" x="109.507907" xlink:href="#mf7cd1f7559" y="269.616099"/>
     <use style="fill:#1f77b4;stroke:#1f77b4;" x="111.091587" xlink:href="#mf7cd1f7559" y="272.162625"/>
     <use style="fill:#1f77b4;stroke:#1f77b4;" x="112.675268" xlink:href="#mf7cd1f7559" y="270.181993"/>
     <use style="fill:#1f77b4;stroke:#1f77b4;" x="114.258949" xlink:href="#mf7cd1f7559" y="270.181993"/>
     <use style="fill:#1f77b4;stroke:#1f77b4;" x="115.84263" xlink:href="#mf7cd1f7559" y="269.616099"/>
     <use style="fill:#1f77b4;stroke:#1f77b4;" x="117.42631" xlink:href="#mf7cd1f7559" y="269.616099"/>
     <use style="fill:#1f77b4;stroke:#1f77b4;" x="119.009991" xlink:href="#mf7cd1f7559" y="267.918414"/>
     <use style="fill:#1f77b4;stroke:#1f77b4;" x="120.593672" xlink:href="#mf7cd1f7559" y="269.050204"/>
     <use style="fill:#1f77b4;stroke:#1f77b4;" x="122.177352" xlink:href="#mf7cd1f7559" y="268.201362"/>
     <use style="fill:#1f77b4;stroke:#1f77b4;" x="123.761033" xlink:href="#mf7cd1f7559" y="267.918414"/>
     <use style="fill:#1f77b4;stroke:#1f77b4;" x="125.344714" xlink:href="#mf7cd1f7559" y="265.937783"/>
     <use style="fill:#1f77b4;stroke:#1f77b4;" x="126.928395" xlink:href="#mf7cd1f7559" y="267.069572"/>
     <use style="fill:#1f77b4;stroke:#1f77b4;" x="128.512075" xlink:href="#mf7cd1f7559" y="266.503678"/>
     <use style="fill:#1f77b4;stroke:#1f77b4;" x="130.095756" xlink:href="#mf7cd1f7559" y="265.654836"/>
     <use style="fill:#1f77b4;stroke:#1f77b4;" x="131.679437" xlink:href="#mf7cd1f7559" y="265.088941"/>
     <use style="fill:#1f77b4;stroke:#1f77b4;" x="133.263117" xlink:href="#mf7cd1f7559" y="262.825362"/>
     <use style="fill:#1f77b4;stroke:#1f77b4;" x="134.846798" xlink:href="#mf7cd1f7559" y="263.674204"/>
     <use style="fill:#1f77b4;stroke:#1f77b4;" x="136.430479" xlink:href="#mf7cd1f7559" y="265.088941"/>
     <use style="fill:#1f77b4;stroke:#1f77b4;" x="138.01416" xlink:href="#mf7cd1f7559" y="261.97652"/>
     <use style="fill:#1f77b4;stroke:#1f77b4;" x="139.59784" xlink:href="#mf7cd1f7559" y="265.088941"/>
     <use style="fill:#1f77b4;stroke:#1f77b4;" x="141.181521" xlink:href="#mf7cd1f7559" y="264.523046"/>
     <use style="fill:#1f77b4;stroke:#1f77b4;" x="142.765202" xlink:href="#mf7cd1f7559" y="260.561783"/>
     <use style="fill:#1f77b4;stroke:#1f77b4;" x="144.348882" xlink:href="#mf7cd1f7559" y="265.088941"/>
     <use style="fill:#1f77b4;stroke:#1f77b4;" x="145.932563" xlink:href="#mf7cd1f7559" y="263.108309"/>
     <use style="fill:#1f77b4;stroke:#1f77b4;" x="147.516244" xlink:href="#mf7cd1f7559" y="263.957151"/>
     <use style="fill:#1f77b4;stroke:#1f77b4;" x="149.099924" xlink:href="#mf7cd1f7559" y="264.523046"/>
     <use style="fill:#1f77b4;stroke:#1f77b4;" x="150.683605" xlink:href="#mf7cd1f7559" y="261.410625"/>
     <use style="fill:#1f77b4;stroke:#1f77b4;" x="152.267286" xlink:href="#mf7cd1f7559" y="263.108309"/>
     <use style="fill:#1f77b4;stroke:#1f77b4;" x="153.850967" xlink:href="#mf7cd1f7559" y="259.712941"/>
     <use style="fill:#1f77b4;stroke:#1f77b4;" x="155.434647" xlink:href="#mf7cd1f7559" y="264.523046"/>
     <use style="fill:#1f77b4;stroke:#1f77b4;" x="157.018328" xlink:href="#mf7cd1f7559" y="260.84473"/>
     <use style="fill:#1f77b4;stroke:#1f77b4;" x="158.602009" xlink:href="#mf7cd1f7559" y="263.108309"/>
     <use style="fill:#1f77b4;stroke:#1f77b4;" x="160.185689" xlink:href="#mf7cd1f7559" y="259.429993"/>
     <use style="fill:#1f77b4;stroke:#1f77b4;" x="161.76937" xlink:href="#mf7cd1f7559" y="263.674204"/>
     <use style="fill:#1f77b4;stroke:#1f77b4;" x="163.353051" xlink:href="#mf7cd1f7559" y="262.825362"/>
     <use style="fill:#1f77b4;stroke:#1f77b4;" x="164.936732" xlink:href="#mf7cd1f7559" y="260.84473"/>
     <use style="fill:#1f77b4;stroke:#1f77b4;" x="166.520412" xlink:href="#mf7cd1f7559" y="257.732309"/>
     <use style="fill:#1f77b4;stroke:#1f77b4;" x="168.104093" xlink:href="#mf7cd1f7559" y="256.317572"/>
     <use style="fill:#1f77b4;stroke:#1f77b4;" x="169.687774" xlink:href="#mf7cd1f7559" y="251.507467"/>
     <use style="fill:#1f77b4;stroke:#1f77b4;" x="171.271454" xlink:href="#mf7cd1f7559" y="254.902836"/>
     <use style="fill:#1f77b4;stroke:#1f77b4;" x="172.855135" xlink:href="#mf7cd1f7559" y="251.507467"/>
     <use style="fill:#1f77b4;stroke:#1f77b4;" x="174.438816" xlink:href="#mf7cd1f7559" y="250.375678"/>
     <use style="fill:#1f77b4;stroke:#1f77b4;" x="176.022497" xlink:href="#mf7cd1f7559" y="241.604309"/>
     <use style="fill:#1f77b4;stroke:#1f77b4;" x="177.606177" xlink:href="#mf7cd1f7559" y="245.282625"/>
     <use style="fill:#1f77b4;stroke:#1f77b4;" x="179.189858" xlink:href="#mf7cd1f7559" y="240.189572"/>
     <use style="fill:#1f77b4;stroke:#1f77b4;" x="180.773539" xlink:href="#mf7cd1f7559" y="236.228309"/>
     <use style="fill:#1f77b4;stroke:#1f77b4;" x="182.357219" xlink:href="#mf7cd1f7559" y="211.328941"/>
     <use style="fill:#1f77b4;stroke:#1f77b4;" x="183.9409" xlink:href="#mf7cd1f7559" y="218.402625"/>
     <use style="fill:#1f77b4;stroke:#1f77b4;" x="185.524581" xlink:href="#mf7cd1f7559" y="218.119678"/>
     <use style="fill:#1f77b4;stroke:#1f77b4;" x="187.108262" xlink:href="#mf7cd1f7559" y="190.390836"/>
     <use style="fill:#1f77b4;stroke:#1f77b4;" x="188.691942" xlink:href="#mf7cd1f7559" y="190.95673"/>
     <use style="fill:#1f77b4;stroke:#1f77b4;" x="190.275623" xlink:href="#mf7cd1f7559" y="173.696941"/>
     <use style="fill:#1f77b4;stroke:#1f77b4;" x="191.859304" xlink:href="#mf7cd1f7559" y="191.239678"/>
     <use style="fill:#1f77b4;stroke:#1f77b4;" x="193.442984" xlink:href="#mf7cd1f7559" y="173.696941"/>
     <use style="fill:#1f77b4;stroke:#1f77b4;" x="195.026665" xlink:href="#mf7cd1f7559" y="189.541993"/>
     <use style="fill:#1f77b4;stroke:#1f77b4;" x="196.610346" xlink:href="#mf7cd1f7559" y="201.142836"/>
     <use style="fill:#1f77b4;stroke:#1f77b4;" x="198.194026" xlink:href="#mf7cd1f7559" y="182.468309"/>
     <use style="fill:#1f77b4;stroke:#1f77b4;" x="199.777707" xlink:href="#mf7cd1f7559" y="195.200941"/>
     <use style="fill:#1f77b4;stroke:#1f77b4;" x="201.361388" xlink:href="#mf7cd1f7559" y="193.786204"/>
     <use style="fill:#1f77b4;stroke:#1f77b4;" x="202.945069" xlink:href="#mf7cd1f7559" y="208.21652"/>
     <use style="fill:#1f77b4;stroke:#1f77b4;" x="204.528749" xlink:href="#mf7cd1f7559" y="203.123467"/>
     <use style="fill:#1f77b4;stroke:#1f77b4;" x="206.11243" xlink:href="#mf7cd1f7559" y="204.821151"/>
     <use style="fill:#1f77b4;stroke:#1f77b4;" x="207.696111" xlink:href="#mf7cd1f7559" y="217.270836"/>
     <use style="fill:#1f77b4;stroke:#1f77b4;" x="209.279791" xlink:href="#mf7cd1f7559" y="211.328941"/>
     <use style="fill:#1f77b4;stroke:#1f77b4;" x="210.863472" xlink:href="#mf7cd1f7559" y="213.309572"/>
     <use style="fill:#1f77b4;stroke:#1f77b4;" x="212.447153" xlink:href="#mf7cd1f7559" y="215.290204"/>
     <use style="fill:#1f77b4;stroke:#1f77b4;" x="214.030834" xlink:href="#mf7cd1f7559" y="232.832941"/>
     <use style="fill:#1f77b4;stroke:#1f77b4;" x="215.614514" xlink:href="#mf7cd1f7559" y="228.871678"/>
     <use style="fill:#1f77b4;stroke:#1f77b4;" x="217.198195" xlink:href="#mf7cd1f7559" y="231.701151"/>
     <use style="fill:#1f77b4;stroke:#1f77b4;" x="218.781876" xlink:href="#mf7cd1f7559" y="239.623678"/>
     <use style="fill:#1f77b4;stroke:#1f77b4;" x="220.365556" xlink:href="#mf7cd1f7559" y="228.58873"/>
     <use style="fill:#1f77b4;stroke:#1f77b4;" x="221.949237" xlink:href="#mf7cd1f7559" y="242.453151"/>
     <use style="fill:#1f77b4;stroke:#1f77b4;" x="223.532918" xlink:href="#mf7cd1f7559" y="241.038414"/>
     <use style="fill:#1f77b4;stroke:#1f77b4;" x="225.116599" xlink:href="#mf7cd1f7559" y="250.941572"/>
     <use style="fill:#1f77b4;stroke:#1f77b4;" x="226.700279" xlink:href="#mf7cd1f7559" y="242.170204"/>
     <use style="fill:#1f77b4;stroke:#1f77b4;" x="228.28396" xlink:href="#mf7cd1f7559" y="251.790414"/>
     <use style="fill:#1f77b4;stroke:#1f77b4;" x="229.867641" xlink:href="#mf7cd1f7559" y="250.941572"/>
     <use style="fill:#1f77b4;stroke:#1f77b4;" x="231.451321" xlink:href="#mf7cd1f7559" y="248.395046"/>
     <use style="fill:#1f77b4;stroke:#1f77b4;" x="233.035002" xlink:href="#mf7cd1f7559" y="255.751678"/>
     <use style="fill:#1f77b4;stroke:#1f77b4;" x="234.618683" xlink:href="#mf7cd1f7559" y="258.015257"/>
     <use style="fill:#1f77b4;stroke:#1f77b4;" x="236.202363" xlink:href="#mf7cd1f7559" y="253.488099"/>
     <use style="fill:#1f77b4;stroke:#1f77b4;" x="237.786044" xlink:href="#mf7cd1f7559" y="256.883467"/>
     <use style="fill:#1f77b4;stroke:#1f77b4;" x="239.369725" xlink:href="#mf7cd1f7559" y="256.317572"/>
     <use style="fill:#1f77b4;stroke:#1f77b4;" x="240.953406" xlink:href="#mf7cd1f7559" y="262.259467"/>
     <use style="fill:#1f77b4;stroke:#1f77b4;" x="242.537086" xlink:href="#mf7cd1f7559" y="263.957151"/>
     <use style="fill:#1f77b4;stroke:#1f77b4;" x="244.120767" xlink:href="#mf7cd1f7559" y="262.542414"/>
     <use style="fill:#1f77b4;stroke:#1f77b4;" x="245.704448" xlink:href="#mf7cd1f7559" y="264.805993"/>
     <use style="fill:#1f77b4;stroke:#1f77b4;" x="247.288128" xlink:href="#mf7cd1f7559" y="263.957151"/>
     <use style="fill:#1f77b4;stroke:#1f77b4;" x="248.871809" xlink:href="#mf7cd1f7559" y="265.937783"/>
     <use style="fill:#1f77b4;stroke:#1f77b4;" x="250.45549" xlink:href="#mf7cd1f7559" y="267.069572"/>
     <use style="fill:#1f77b4;stroke:#1f77b4;" x="252.039171" xlink:href="#mf7cd1f7559" y="267.069572"/>
     <use style="fill:#1f77b4;stroke:#1f77b4;" x="253.622851" xlink:href="#mf7cd1f7559" y="266.786625"/>
     <use style="fill:#1f77b4;stroke:#1f77b4;" x="255.206532" xlink:href="#mf7cd1f7559" y="266.22073"/>
     <use style="fill:#1f77b4;stroke:#1f77b4;" x="256.790213" xlink:href="#mf7cd1f7559" y="268.201362"/>
     <use style="fill:#1f77b4;stroke:#1f77b4;" x="258.373893" xlink:href="#mf7cd1f7559" y="268.201362"/>
     <use style="fill:#1f77b4;stroke:#1f77b4;" x="259.957574" xlink:href="#mf7cd1f7559" y="267.069572"/>
     <use style="fill:#1f77b4;stroke:#1f77b4;" x="261.541255" xlink:href="#mf7cd1f7559" y="269.616099"/>
     <use style="fill:#1f77b4;stroke:#1f77b4;" x="263.124936" xlink:href="#mf7cd1f7559" y="268.201362"/>
     <use style="fill:#1f77b4;stroke:#1f77b4;" x="264.708616" xlink:href="#mf7cd1f7559" y="269.616099"/>
     <use style="fill:#1f77b4;stroke:#1f77b4;" x="266.292297" xlink:href="#mf7cd1f7559" y="267.35252"/>
     <use style="fill:#1f77b4;stroke:#1f77b4;" x="267.875978" xlink:href="#mf7cd1f7559" y="270.181993"/>
     <use style="fill:#1f77b4;stroke:#1f77b4;" x="269.459658" xlink:href="#mf7cd1f7559" y="269.050204"/>
     <use style="fill:#1f77b4;stroke:#1f77b4;" x="271.043339" xlink:href="#mf7cd1f7559" y="267.635467"/>
     <use style="fill:#1f77b4;stroke:#1f77b4;" x="272.62702" xlink:href="#mf7cd1f7559" y="269.333151"/>
     <use style="fill:#1f77b4;stroke:#1f77b4;" x="274.210701" xlink:href="#mf7cd1f7559" y="268.484309"/>
     <use style="fill:#1f77b4;stroke:#1f77b4;" x="275.794381" xlink:href="#mf7cd1f7559" y="270.464941"/>
     <use style="fill:#1f77b4;stroke:#1f77b4;" x="277.378062" xlink:href="#mf7cd1f7559" y="270.181993"/>
     <use style="fill:#1f77b4;stroke:#1f77b4;" x="278.961743" xlink:href="#mf7cd1f7559" y="269.333151"/>
     <use style="fill:#1f77b4;stroke:#1f77b4;" x="280.545423" xlink:href="#mf7cd1f7559" y="269.333151"/>
     <use style="fill:#1f77b4;stroke:#1f77b4;" x="282.129104" xlink:href="#mf7cd1f7559" y="270.181993"/>
     <use style="fill:#1f77b4;stroke:#1f77b4;" x="283.712785" xlink:href="#mf7cd1f7559" y="271.030836"/>
     <use style="fill:#1f77b4;stroke:#1f77b4;" x="285.296465" xlink:href="#mf7cd1f7559" y="271.313783"/>
     <use style="fill:#1f77b4;stroke:#1f77b4;" x="286.880146" xlink:href="#mf7cd1f7559" y="269.050204"/>
     <use style="fill:#1f77b4;stroke:#1f77b4;" x="288.463827" xlink:href="#mf7cd1f7559" y="269.899046"/>
     <use style="fill:#1f77b4;stroke:#1f77b4;" x="290.047508" xlink:href="#mf7cd1f7559" y="270.747888"/>
     <use style="fill:#1f77b4;stroke:#1f77b4;" x="291.631188" xlink:href="#mf7cd1f7559" y="270.464941"/>
     <use style="fill:#1f77b4;stroke:#1f77b4;" x="293.214869" xlink:href="#mf7cd1f7559" y="268.201362"/>
     <use style="fill:#1f77b4;stroke:#1f77b4;" x="294.79855" xlink:href="#mf7cd1f7559" y="269.050204"/>
     <use style="fill:#1f77b4;stroke:#1f77b4;" x="296.38223" xlink:href="#mf7cd1f7559" y="269.050204"/>
     <use style="fill:#1f77b4;stroke:#1f77b4;" x="297.965911" xlink:href="#mf7cd1f7559" y="269.899046"/>
     <use style="fill:#1f77b4;stroke:#1f77b4;" x="299.549592" xlink:href="#mf7cd1f7559" y="266.786625"/>
     <use style="fill:#1f77b4;stroke:#1f77b4;" x="301.133273" xlink:href="#mf7cd1f7559" y="268.484309"/>
     <use style="fill:#1f77b4;stroke:#1f77b4;" x="302.716953" xlink:href="#mf7cd1f7559" y="266.786625"/>
     <use style="fill:#1f77b4;stroke:#1f77b4;" x="304.300634" xlink:href="#mf7cd1f7559" y="270.181993"/>
     <use style="fill:#1f77b4;stroke:#1f77b4;" x="305.884315" xlink:href="#mf7cd1f7559" y="268.767257"/>
     <use style="fill:#1f77b4;stroke:#1f77b4;" x="307.467995" xlink:href="#mf7cd1f7559" y="267.918414"/>
     <use style="fill:#1f77b4;stroke:#1f77b4;" x="309.051676" xlink:href="#mf7cd1f7559" y="268.201362"/>
     <use style="fill:#1f77b4;stroke:#1f77b4;" x="310.635357" xlink:href="#mf7cd1f7559" y="269.616099"/>
     <use style="fill:#1f77b4;stroke:#1f77b4;" x="312.219038" xlink:href="#mf7cd1f7559" y="268.767257"/>
     <use style="fill:#1f77b4;stroke:#1f77b4;" x="313.802718" xlink:href="#mf7cd1f7559" y="267.635467"/>
     <use style="fill:#1f77b4;stroke:#1f77b4;" x="315.386399" xlink:href="#mf7cd1f7559" y="268.484309"/>
     <use style="fill:#1f77b4;stroke:#1f77b4;" x="316.97008" xlink:href="#mf7cd1f7559" y="268.201362"/>
     <use style="fill:#1f77b4;stroke:#1f77b4;" x="318.55376" xlink:href="#mf7cd1f7559" y="269.616099"/>
     <use style="fill:#1f77b4;stroke:#1f77b4;" x="320.137441" xlink:href="#mf7cd1f7559" y="262.825362"/>
     <use style="fill:#1f77b4;stroke:#1f77b4;" x="321.721122" xlink:href="#mf7cd1f7559" y="265.937783"/>
     <use style="fill:#1f77b4;stroke:#1f77b4;" x="323.304803" xlink:href="#mf7cd1f7559" y="262.825362"/>
     <use style="fill:#1f77b4;stroke:#1f77b4;" x="324.888483" xlink:href="#mf7cd1f7559" y="263.108309"/>
     <use style="fill:#1f77b4;stroke:#1f77b4;" x="326.472164" xlink:href="#mf7cd1f7559" y="264.523046"/>
     <use style="fill:#1f77b4;stroke:#1f77b4;" x="328.055845" xlink:href="#mf7cd1f7559" y="256.60052"/>
     <use style="fill:#1f77b4;stroke:#1f77b4;" x="329.639525" xlink:href="#mf7cd1f7559" y="263.108309"/>
     <use style="fill:#1f77b4;stroke:#1f77b4;" x="331.223206" xlink:href="#mf7cd1f7559" y="259.712941"/>
     <use style="fill:#1f77b4;stroke:#1f77b4;" x="332.806887" xlink:href="#mf7cd1f7559" y="258.581151"/>
     <use style="fill:#1f77b4;stroke:#1f77b4;" x="334.390567" xlink:href="#mf7cd1f7559" y="254.902836"/>
     <use style="fill:#1f77b4;stroke:#1f77b4;" x="335.974248" xlink:href="#mf7cd1f7559" y="256.60052"/>
     <use style="fill:#1f77b4;stroke:#1f77b4;" x="337.557929" xlink:href="#mf7cd1f7559" y="254.053993"/>
     <use style="fill:#1f77b4;stroke:#1f77b4;" x="339.14161" xlink:href="#mf7cd1f7559" y="251.22452"/>
     <use style="fill:#1f77b4;stroke:#1f77b4;" x="340.72529" xlink:href="#mf7cd1f7559" y="250.375678"/>
     <use style="fill:#1f77b4;stroke:#1f77b4;" x="342.308971" xlink:href="#mf7cd1f7559" y="242.170204"/>
     <use style="fill:#1f77b4;stroke:#1f77b4;" x="343.892652" xlink:href="#mf7cd1f7559" y="243.019046"/>
     <use style="fill:#1f77b4;stroke:#1f77b4;" x="345.476332" xlink:href="#mf7cd1f7559" y="240.47252"/>
     <use style="fill:#1f77b4;stroke:#1f77b4;" x="347.060013" xlink:href="#mf7cd1f7559" y="233.96473"/>
     <use style="fill:#1f77b4;stroke:#1f77b4;" x="348.643694" xlink:href="#mf7cd1f7559" y="235.945362"/>
     <use style="fill:#1f77b4;stroke:#1f77b4;" x="350.227375" xlink:href="#mf7cd1f7559" y="231.701151"/>
     <use style="fill:#1f77b4;stroke:#1f77b4;" x="351.811055" xlink:href="#mf7cd1f7559" y="230.569362"/>
     <use style="fill:#1f77b4;stroke:#1f77b4;" x="353.394736" xlink:href="#mf7cd1f7559" y="216.987888"/>
     <use style="fill:#1f77b4;stroke:#1f77b4;" x="354.978417" xlink:href="#mf7cd1f7559" y="210.480099"/>
     <use style="fill:#1f77b4;stroke:#1f77b4;" x="356.562097" xlink:href="#mf7cd1f7559" y="209.631257"/>
     <use style="fill:#1f77b4;stroke:#1f77b4;" x="358.145778" xlink:href="#mf7cd1f7559" y="211.328941"/>
     <use style="fill:#1f77b4;stroke:#1f77b4;" x="359.729459" xlink:href="#mf7cd1f7559" y="207.08473"/>
     <use style="fill:#1f77b4;stroke:#1f77b4;" x="361.31314" xlink:href="#mf7cd1f7559" y="208.21652"/>
     <use style="fill:#1f77b4;stroke:#1f77b4;" x="362.89682" xlink:href="#mf7cd1f7559" y="217.553783"/>
     <use style="fill:#1f77b4;stroke:#1f77b4;" x="364.480501" xlink:href="#mf7cd1f7559" y="221.232099"/>
     <use style="fill:#1f77b4;stroke:#1f77b4;" x="366.064182" xlink:href="#mf7cd1f7559" y="226.325151"/>
     <use style="fill:#1f77b4;stroke:#1f77b4;" x="367.647862" xlink:href="#mf7cd1f7559" y="241.887257"/>
     <use style="fill:#1f77b4;stroke:#1f77b4;" x="369.231543" xlink:href="#mf7cd1f7559" y="253.488099"/>
     <use style="fill:#1f77b4;stroke:#1f77b4;" x="370.815224" xlink:href="#mf7cd1f7559" y="261.410625"/>
     <use style="fill:#1f77b4;stroke:#1f77b4;" x="372.398905" xlink:href="#mf7cd1f7559" y="269.616099"/>
     <use style="fill:#1f77b4;stroke:#1f77b4;" x="373.982585" xlink:href="#mf7cd1f7559" y="272.162625"/>
    </g>
   </g>
   <g id="line2d_15">
    <path clip-path="url(#p18ac9e3048)" d="M 49.32804 272.162625 
L 66.748528 272.162625 
L 68.332208 271.879678 
L 69.915889 272.162625 
L 81.001654 272.162625 
L 82.585335 271.879678 
L 85.752696 271.879678 
L 87.336377 272.162625 
L 88.920058 271.313783 
L 90.503738 271.879678 
L 92.087419 270.464941 
L 93.6711 271.59673 
L 95.25478 271.313783 
L 96.838461 272.162625 
L 98.422142 272.162625 
L 100.005822 271.030836 
L 103.173184 272.162625 
L 104.756865 271.879678 
L 106.340545 272.162625 
L 107.924226 272.162625 
L 109.507907 271.59673 
L 112.675268 272.162625 
L 117.42631 268.767257 
L 119.009991 270.464941 
L 120.593672 270.181993 
L 122.177352 269.333151 
L 123.761033 269.616099 
L 125.344714 269.616099 
L 126.928395 267.35252 
L 128.512075 264.805993 
L 130.095756 269.333151 
L 131.679437 268.767257 
L 133.263117 267.918414 
L 134.846798 267.35252 
L 136.430479 265.088941 
L 138.01416 266.503678 
L 139.59784 269.899046 
L 141.181521 268.201362 
L 144.348882 266.503678 
L 145.932563 261.97652 
L 147.516244 261.97652 
L 149.099924 256.034625 
L 150.683605 261.410625 
L 152.267286 261.693572 
L 153.850967 264.805993 
L 155.434647 252.639257 
L 158.602009 259.429993 
L 160.185689 260.561783 
L 161.76937 256.883467 
L 163.353051 263.674204 
L 164.936732 266.786625 
L 166.520412 259.147046 
L 168.104093 259.712941 
L 169.687774 259.147046 
L 171.271454 259.429993 
L 172.855135 259.995888 
L 174.438816 259.995888 
L 176.022497 261.410625 
L 177.606177 249.526836 
L 179.189858 246.131467 
L 180.773539 244.150836 
L 182.357219 236.511257 
L 183.9409 213.875467 
L 185.524581 227.173993 
L 187.108262 230.003467 
L 188.691942 205.387046 
L 190.275623 193.220309 
L 191.859304 189.259046 
L 193.442984 173.979888 
L 195.026665 161.530204 
L 196.610346 186.429572 
L 198.194026 197.747467 
L 199.777707 136.630836 
L 201.361388 136.630836 
L 202.945069 90.510414 
L 204.528749 91.642204 
L 206.11243 75.514204 
L 207.696111 142.289783 
L 209.279791 183.600099 
L 210.863472 124.464099 
L 212.447153 106.921362 
L 214.030834 121.634625 
L 215.614514 112.580309 
L 217.198195 112.014414 
L 218.781876 178.224099 
L 220.365556 169.735678 
L 221.949237 155.588309 
L 223.532918 147.665783 
L 225.116599 151.627046 
L 226.700279 147.099888 
L 228.28396 169.169783 
L 229.867641 213.59252 
L 231.451321 223.21273 
L 233.035002 189.541993 
L 234.618683 210.480099 
L 236.202363 220.666204 
L 237.786044 190.673783 
L 239.369725 186.71252 
L 240.953406 219.534414 
L 244.120767 239.34073 
L 245.704448 245.282625 
L 247.288128 246.697362 
L 248.871809 244.150836 
L 250.45549 240.47252 
L 252.039171 252.922204 
L 253.622851 262.259467 
L 255.206532 250.941572 
L 256.790213 250.658625 
L 258.373893 249.243888 
L 259.957574 255.185783 
L 261.541255 260.278836 
L 263.124936 264.805993 
L 264.708616 266.22073 
L 266.292297 259.429993 
L 267.875978 263.391257 
L 269.459658 261.410625 
L 271.043339 263.108309 
L 272.62702 265.371888 
L 274.210701 263.957151 
L 275.794381 264.805993 
L 277.378062 264.805993 
L 278.961743 259.712941 
L 280.545423 258.864099 
L 282.129104 247.829151 
L 283.712785 259.995888 
L 285.296465 264.523046 
L 286.880146 261.693572 
L 288.463827 257.732309 
L 290.047508 263.674204 
L 291.631188 256.60052 
L 294.79855 260.561783 
L 296.38223 262.825362 
L 297.965911 264.240099 
L 299.549592 259.712941 
L 301.133273 260.561783 
L 302.716953 258.864099 
L 304.300634 256.317572 
L 305.884315 260.84473 
L 307.467995 251.507467 
L 309.051676 251.507467 
L 310.635357 257.732309 
L 312.219038 261.127678 
L 313.802718 253.488099 
L 315.386399 255.185783 
L 316.97008 254.053993 
L 318.55376 257.449362 
L 320.137441 259.429993 
L 321.721122 253.488099 
L 323.304803 243.584941 
L 324.888483 250.09273 
L 326.472164 244.150836 
L 328.055845 242.736099 
L 329.639525 243.019046 
L 331.223206 238.208941 
L 332.806887 232.267046 
L 334.390567 234.247678 
L 335.974248 213.59252 
L 337.557929 203.972309 
L 339.14161 195.483888 
L 340.72529 216.704941 
L 342.308971 218.402625 
L 343.892652 203.972309 
L 345.476332 218.96852 
L 347.060013 165.491467 
L 348.643694 154.45652 
L 350.227375 158.70073 
L 351.811055 175.677572 
L 353.394736 195.200941 
L 354.978417 175.394625 
L 356.562097 140.875046 
L 358.145778 98.432941 
L 359.729459 90.793362 
L 361.31314 99.56473 
L 362.89682 140.592099 
L 364.480501 135.781993 
L 366.064182 93.056941 
L 367.647862 30.242625 
L 369.231543 32.506204 
L 370.815224 89.661572 
L 372.398905 97.301151 
L 373.982585 128.708309 
L 373.982585 128.708309 
" style="fill:none;stroke:#ff7f0e;stroke-linecap:square;stroke-width:1.5;"/>
    <defs>
     <path d="M 0 3 
C 0.795609 3 1.55874 2.683901 2.12132 2.12132 
C 2.683901 1.55874 3 0.795609 3 0 
C 3 -0.795609 2.683901 -1.55874 2.12132 -2.12132 
C 1.55874 -2.683901 0.795609 -3 0 -3 
C -0.795609 -3 -1.55874 -2.683901 -2.12132 -2.12132 
C -2.683901 -1.55874 -3 -0.795609 -3 0 
C -3 0.795609 -2.683901 1.55874 -2.12132 2.12132 
C -1.55874 2.683901 -0.795609 3 0 3 
z
" id="m6f4aeeb803" style="stroke:#ff7f0e;"/>
    </defs>
    <g clip-path="url(#p18ac9e3048)">
     <use style="fill:#ff7f0e;stroke:#ff7f0e;" x="49.32804" xlink:href="#m6f4aeeb803" y="272.162625"/>
     <use style="fill:#ff7f0e;stroke:#ff7f0e;" x="50.91172" xlink:href="#m6f4aeeb803" y="272.162625"/>
     <use style="fill:#ff7f0e;stroke:#ff7f0e;" x="52.495401" xlink:href="#m6f4aeeb803" y="272.162625"/>
     <use style="fill:#ff7f0e;stroke:#ff7f0e;" x="54.079082" xlink:href="#m6f4aeeb803" y="272.162625"/>
     <use style="fill:#ff7f0e;stroke:#ff7f0e;" x="55.662763" xlink:href="#m6f4aeeb803" y="272.162625"/>
     <use style="fill:#ff7f0e;stroke:#ff7f0e;" x="57.246443" xlink:href="#m6f4aeeb803" y="272.162625"/>
     <use style="fill:#ff7f0e;stroke:#ff7f0e;" x="58.830124" xlink:href="#m6f4aeeb803" y="272.162625"/>
     <use style="fill:#ff7f0e;stroke:#ff7f0e;" x="60.413805" xlink:href="#m6f4aeeb803" y="272.162625"/>
     <use style="fill:#ff7f0e;stroke:#ff7f0e;" x="61.997485" xlink:href="#m6f4aeeb803" y="272.162625"/>
     <use style="fill:#ff7f0e;stroke:#ff7f0e;" x="63.581166" xlink:href="#m6f4aeeb803" y="272.162625"/>
     <use style="fill:#ff7f0e;stroke:#ff7f0e;" x="65.164847" xlink:href="#m6f4aeeb803" y="272.162625"/>
     <use style="fill:#ff7f0e;stroke:#ff7f0e;" x="66.748528" xlink:href="#m6f4aeeb803" y="272.162625"/>
     <use style="fill:#ff7f0e;stroke:#ff7f0e;" x="68.332208" xlink:href="#m6f4aeeb803" y="271.879678"/>
     <use style="fill:#ff7f0e;stroke:#ff7f0e;" x="69.915889" xlink:href="#m6f4aeeb803" y="272.162625"/>
     <use style="fill:#ff7f0e;stroke:#ff7f0e;" x="71.49957" xlink:href="#m6f4aeeb803" y="272.162625"/>
     <use style="fill:#ff7f0e;stroke:#ff7f0e;" x="73.08325" xlink:href="#m6f4aeeb803" y="272.162625"/>
     <use style="fill:#ff7f0e;stroke:#ff7f0e;" x="74.666931" xlink:href="#m6f4aeeb803" y="272.162625"/>
     <use style="fill:#ff7f0e;stroke:#ff7f0e;" x="76.250612" xlink:href="#m6f4aeeb803" y="272.162625"/>
     <use style="fill:#ff7f0e;stroke:#ff7f0e;" x="77.834293" xlink:href="#m6f4aeeb803" y="272.162625"/>
     <use style="fill:#ff7f0e;stroke:#ff7f0e;" x="79.417973" xlink:href="#m6f4aeeb803" y="272.162625"/>
     <use style="fill:#ff7f0e;stroke:#ff7f0e;" x="81.001654" xlink:href="#m6f4aeeb803" y="272.162625"/>
     <use style="fill:#ff7f0e;stroke:#ff7f0e;" x="82.585335" xlink:href="#m6f4aeeb803" y="271.879678"/>
     <use style="fill:#ff7f0e;stroke:#ff7f0e;" x="84.169015" xlink:href="#m6f4aeeb803" y="271.879678"/>
     <use style="fill:#ff7f0e;stroke:#ff7f0e;" x="85.752696" xlink:href="#m6f4aeeb803" y="271.879678"/>
     <use style="fill:#ff7f0e;stroke:#ff7f0e;" x="87.336377" xlink:href="#m6f4aeeb803" y="272.162625"/>
     <use style="fill:#ff7f0e;stroke:#ff7f0e;" x="88.920058" xlink:href="#m6f4aeeb803" y="271.313783"/>
     <use style="fill:#ff7f0e;stroke:#ff7f0e;" x="90.503738" xlink:href="#m6f4aeeb803" y="271.879678"/>
     <use style="fill:#ff7f0e;stroke:#ff7f0e;" x="92.087419" xlink:href="#m6f4aeeb803" y="270.464941"/>
     <use style="fill:#ff7f0e;stroke:#ff7f0e;" x="93.6711" xlink:href="#m6f4aeeb803" y="271.59673"/>
     <use style="fill:#ff7f0e;stroke:#ff7f0e;" x="95.25478" xlink:href="#m6f4aeeb803" y="271.313783"/>
     <use style="fill:#ff7f0e;stroke:#ff7f0e;" x="96.838461" xlink:href="#m6f4aeeb803" y="272.162625"/>
     <use style="fill:#ff7f0e;stroke:#ff7f0e;" x="98.422142" xlink:href="#m6f4aeeb803" y="272.162625"/>
     <use style="fill:#ff7f0e;stroke:#ff7f0e;" x="100.005822" xlink:href="#m6f4aeeb803" y="271.030836"/>
     <use style="fill:#ff7f0e;stroke:#ff7f0e;" x="101.589503" xlink:href="#m6f4aeeb803" y="271.59673"/>
     <use style="fill:#ff7f0e;stroke:#ff7f0e;" x="103.173184" xlink:href="#m6f4aeeb803" y="272.162625"/>
     <use style="fill:#ff7f0e;stroke:#ff7f0e;" x="104.756865" xlink:href="#m6f4aeeb803" y="271.879678"/>
     <use style="fill:#ff7f0e;stroke:#ff7f0e;" x="106.340545" xlink:href="#m6f4aeeb803" y="272.162625"/>
     <use style="fill:#ff7f0e;stroke:#ff7f0e;" x="107.924226" xlink:href="#m6f4aeeb803" y="272.162625"/>
     <use style="fill:#ff7f0e;stroke:#ff7f0e;" x="109.507907" xlink:href="#m6f4aeeb803" y="271.59673"/>
     <use style="fill:#ff7f0e;stroke:#ff7f0e;" x="111.091587" xlink:href="#m6f4aeeb803" y="271.879678"/>
     <use style="fill:#ff7f0e;stroke:#ff7f0e;" x="112.675268" xlink:href="#m6f4aeeb803" y="272.162625"/>
     <use style="fill:#ff7f0e;stroke:#ff7f0e;" x="114.258949" xlink:href="#m6f4aeeb803" y="271.030836"/>
     <use style="fill:#ff7f0e;stroke:#ff7f0e;" x="115.84263" xlink:href="#m6f4aeeb803" y="269.899046"/>
     <use style="fill:#ff7f0e;stroke:#ff7f0e;" x="117.42631" xlink:href="#m6f4aeeb803" y="268.767257"/>
     <use style="fill:#ff7f0e;stroke:#ff7f0e;" x="119.009991" xlink:href="#m6f4aeeb803" y="270.464941"/>
     <use style="fill:#ff7f0e;stroke:#ff7f0e;" x="120.593672" xlink:href="#m6f4aeeb803" y="270.181993"/>
     <use style="fill:#ff7f0e;stroke:#ff7f0e;" x="122.177352" xlink:href="#m6f4aeeb803" y="269.333151"/>
     <use style="fill:#ff7f0e;stroke:#ff7f0e;" x="123.761033" xlink:href="#m6f4aeeb803" y="269.616099"/>
     <use style="fill:#ff7f0e;stroke:#ff7f0e;" x="125.344714" xlink:href="#m6f4aeeb803" y="269.616099"/>
     <use style="fill:#ff7f0e;stroke:#ff7f0e;" x="126.928395" xlink:href="#m6f4aeeb803" y="267.35252"/>
     <use style="fill:#ff7f0e;stroke:#ff7f0e;" x="128.512075" xlink:href="#m6f4aeeb803" y="264.805993"/>
     <use style="fill:#ff7f0e;stroke:#ff7f0e;" x="130.095756" xlink:href="#m6f4aeeb803" y="269.333151"/>
     <use style="fill:#ff7f0e;stroke:#ff7f0e;" x="131.679437" xlink:href="#m6f4aeeb803" y="268.767257"/>
     <use style="fill:#ff7f0e;stroke:#ff7f0e;" x="133.263117" xlink:href="#m6f4aeeb803" y="267.918414"/>
     <use style="fill:#ff7f0e;stroke:#ff7f0e;" x="134.846798" xlink:href="#m6f4aeeb803" y="267.35252"/>
     <use style="fill:#ff7f0e;stroke:#ff7f0e;" x="136.430479" xlink:href="#m6f4aeeb803" y="265.088941"/>
     <use style="fill:#ff7f0e;stroke:#ff7f0e;" x="138.01416" xlink:href="#m6f4aeeb803" y="266.503678"/>
     <use style="fill:#ff7f0e;stroke:#ff7f0e;" x="139.59784" xlink:href="#m6f4aeeb803" y="269.899046"/>
     <use style="fill:#ff7f0e;stroke:#ff7f0e;" x="141.181521" xlink:href="#m6f4aeeb803" y="268.201362"/>
     <use style="fill:#ff7f0e;stroke:#ff7f0e;" x="142.765202" xlink:href="#m6f4aeeb803" y="267.35252"/>
     <use style="fill:#ff7f0e;stroke:#ff7f0e;" x="144.348882" xlink:href="#m6f4aeeb803" y="266.503678"/>
     <use style="fill:#ff7f0e;stroke:#ff7f0e;" x="145.932563" xlink:href="#m6f4aeeb803" y="261.97652"/>
     <use style="fill:#ff7f0e;stroke:#ff7f0e;" x="147.516244" xlink:href="#m6f4aeeb803" y="261.97652"/>
     <use style="fill:#ff7f0e;stroke:#ff7f0e;" x="149.099924" xlink:href="#m6f4aeeb803" y="256.034625"/>
     <use style="fill:#ff7f0e;stroke:#ff7f0e;" x="150.683605" xlink:href="#m6f4aeeb803" y="261.410625"/>
     <use style="fill:#ff7f0e;stroke:#ff7f0e;" x="152.267286" xlink:href="#m6f4aeeb803" y="261.693572"/>
     <use style="fill:#ff7f0e;stroke:#ff7f0e;" x="153.850967" xlink:href="#m6f4aeeb803" y="264.805993"/>
     <use style="fill:#ff7f0e;stroke:#ff7f0e;" x="155.434647" xlink:href="#m6f4aeeb803" y="252.639257"/>
     <use style="fill:#ff7f0e;stroke:#ff7f0e;" x="157.018328" xlink:href="#m6f4aeeb803" y="256.034625"/>
     <use style="fill:#ff7f0e;stroke:#ff7f0e;" x="158.602009" xlink:href="#m6f4aeeb803" y="259.429993"/>
     <use style="fill:#ff7f0e;stroke:#ff7f0e;" x="160.185689" xlink:href="#m6f4aeeb803" y="260.561783"/>
     <use style="fill:#ff7f0e;stroke:#ff7f0e;" x="161.76937" xlink:href="#m6f4aeeb803" y="256.883467"/>
     <use style="fill:#ff7f0e;stroke:#ff7f0e;" x="163.353051" xlink:href="#m6f4aeeb803" y="263.674204"/>
     <use style="fill:#ff7f0e;stroke:#ff7f0e;" x="164.936732" xlink:href="#m6f4aeeb803" y="266.786625"/>
     <use style="fill:#ff7f0e;stroke:#ff7f0e;" x="166.520412" xlink:href="#m6f4aeeb803" y="259.147046"/>
     <use style="fill:#ff7f0e;stroke:#ff7f0e;" x="168.104093" xlink:href="#m6f4aeeb803" y="259.712941"/>
     <use style="fill:#ff7f0e;stroke:#ff7f0e;" x="169.687774" xlink:href="#m6f4aeeb803" y="259.147046"/>
     <use style="fill:#ff7f0e;stroke:#ff7f0e;" x="171.271454" xlink:href="#m6f4aeeb803" y="259.429993"/>
     <use style="fill:#ff7f0e;stroke:#ff7f0e;" x="172.855135" xlink:href="#m6f4aeeb803" y="259.995888"/>
     <use style="fill:#ff7f0e;stroke:#ff7f0e;" x="174.438816" xlink:href="#m6f4aeeb803" y="259.995888"/>
     <use style="fill:#ff7f0e;stroke:#ff7f0e;" x="176.022497" xlink:href="#m6f4aeeb803" y="261.410625"/>
     <use style="fill:#ff7f0e;stroke:#ff7f0e;" x="177.606177" xlink:href="#m6f4aeeb803" y="249.526836"/>
     <use style="fill:#ff7f0e;stroke:#ff7f0e;" x="179.189858" xlink:href="#m6f4aeeb803" y="246.131467"/>
     <use style="fill:#ff7f0e;stroke:#ff7f0e;" x="180.773539" xlink:href="#m6f4aeeb803" y="244.150836"/>
     <use style="fill:#ff7f0e;stroke:#ff7f0e;" x="182.357219" xlink:href="#m6f4aeeb803" y="236.511257"/>
     <use style="fill:#ff7f0e;stroke:#ff7f0e;" x="183.9409" xlink:href="#m6f4aeeb803" y="213.875467"/>
     <use style="fill:#ff7f0e;stroke:#ff7f0e;" x="185.524581" xlink:href="#m6f4aeeb803" y="227.173993"/>
     <use style="fill:#ff7f0e;stroke:#ff7f0e;" x="187.108262" xlink:href="#m6f4aeeb803" y="230.003467"/>
     <use style="fill:#ff7f0e;stroke:#ff7f0e;" x="188.691942" xlink:href="#m6f4aeeb803" y="205.387046"/>
     <use style="fill:#ff7f0e;stroke:#ff7f0e;" x="190.275623" xlink:href="#m6f4aeeb803" y="193.220309"/>
     <use style="fill:#ff7f0e;stroke:#ff7f0e;" x="191.859304" xlink:href="#m6f4aeeb803" y="189.259046"/>
     <use style="fill:#ff7f0e;stroke:#ff7f0e;" x="193.442984" xlink:href="#m6f4aeeb803" y="173.979888"/>
     <use style="fill:#ff7f0e;stroke:#ff7f0e;" x="195.026665" xlink:href="#m6f4aeeb803" y="161.530204"/>
     <use style="fill:#ff7f0e;stroke:#ff7f0e;" x="196.610346" xlink:href="#m6f4aeeb803" y="186.429572"/>
     <use style="fill:#ff7f0e;stroke:#ff7f0e;" x="198.194026" xlink:href="#m6f4aeeb803" y="197.747467"/>
     <use style="fill:#ff7f0e;stroke:#ff7f0e;" x="199.777707" xlink:href="#m6f4aeeb803" y="136.630836"/>
     <use style="fill:#ff7f0e;stroke:#ff7f0e;" x="201.361388" xlink:href="#m6f4aeeb803" y="136.630836"/>
     <use style="fill:#ff7f0e;stroke:#ff7f0e;" x="202.945069" xlink:href="#m6f4aeeb803" y="90.510414"/>
     <use style="fill:#ff7f0e;stroke:#ff7f0e;" x="204.528749" xlink:href="#m6f4aeeb803" y="91.642204"/>
     <use style="fill:#ff7f0e;stroke:#ff7f0e;" x="206.11243" xlink:href="#m6f4aeeb803" y="75.514204"/>
     <use style="fill:#ff7f0e;stroke:#ff7f0e;" x="207.696111" xlink:href="#m6f4aeeb803" y="142.289783"/>
     <use style="fill:#ff7f0e;stroke:#ff7f0e;" x="209.279791" xlink:href="#m6f4aeeb803" y="183.600099"/>
     <use style="fill:#ff7f0e;stroke:#ff7f0e;" x="210.863472" xlink:href="#m6f4aeeb803" y="124.464099"/>
     <use style="fill:#ff7f0e;stroke:#ff7f0e;" x="212.447153" xlink:href="#m6f4aeeb803" y="106.921362"/>
     <use style="fill:#ff7f0e;stroke:#ff7f0e;" x="214.030834" xlink:href="#m6f4aeeb803" y="121.634625"/>
     <use style="fill:#ff7f0e;stroke:#ff7f0e;" x="215.614514" xlink:href="#m6f4aeeb803" y="112.580309"/>
     <use style="fill:#ff7f0e;stroke:#ff7f0e;" x="217.198195" xlink:href="#m6f4aeeb803" y="112.014414"/>
     <use style="fill:#ff7f0e;stroke:#ff7f0e;" x="218.781876" xlink:href="#m6f4aeeb803" y="178.224099"/>
     <use style="fill:#ff7f0e;stroke:#ff7f0e;" x="220.365556" xlink:href="#m6f4aeeb803" y="169.735678"/>
     <use style="fill:#ff7f0e;stroke:#ff7f0e;" x="221.949237" xlink:href="#m6f4aeeb803" y="155.588309"/>
     <use style="fill:#ff7f0e;stroke:#ff7f0e;" x="223.532918" xlink:href="#m6f4aeeb803" y="147.665783"/>
     <use style="fill:#ff7f0e;stroke:#ff7f0e;" x="225.116599" xlink:href="#m6f4aeeb803" y="151.627046"/>
     <use style="fill:#ff7f0e;stroke:#ff7f0e;" x="226.700279" xlink:href="#m6f4aeeb803" y="147.099888"/>
     <use style="fill:#ff7f0e;stroke:#ff7f0e;" x="228.28396" xlink:href="#m6f4aeeb803" y="169.169783"/>
     <use style="fill:#ff7f0e;stroke:#ff7f0e;" x="229.867641" xlink:href="#m6f4aeeb803" y="213.59252"/>
     <use style="fill:#ff7f0e;stroke:#ff7f0e;" x="231.451321" xlink:href="#m6f4aeeb803" y="223.21273"/>
     <use style="fill:#ff7f0e;stroke:#ff7f0e;" x="233.035002" xlink:href="#m6f4aeeb803" y="189.541993"/>
     <use style="fill:#ff7f0e;stroke:#ff7f0e;" x="234.618683" xlink:href="#m6f4aeeb803" y="210.480099"/>
     <use style="fill:#ff7f0e;stroke:#ff7f0e;" x="236.202363" xlink:href="#m6f4aeeb803" y="220.666204"/>
     <use style="fill:#ff7f0e;stroke:#ff7f0e;" x="237.786044" xlink:href="#m6f4aeeb803" y="190.673783"/>
     <use style="fill:#ff7f0e;stroke:#ff7f0e;" x="239.369725" xlink:href="#m6f4aeeb803" y="186.71252"/>
     <use style="fill:#ff7f0e;stroke:#ff7f0e;" x="240.953406" xlink:href="#m6f4aeeb803" y="219.534414"/>
     <use style="fill:#ff7f0e;stroke:#ff7f0e;" x="242.537086" xlink:href="#m6f4aeeb803" y="229.437572"/>
     <use style="fill:#ff7f0e;stroke:#ff7f0e;" x="244.120767" xlink:href="#m6f4aeeb803" y="239.34073"/>
     <use style="fill:#ff7f0e;stroke:#ff7f0e;" x="245.704448" xlink:href="#m6f4aeeb803" y="245.282625"/>
     <use style="fill:#ff7f0e;stroke:#ff7f0e;" x="247.288128" xlink:href="#m6f4aeeb803" y="246.697362"/>
     <use style="fill:#ff7f0e;stroke:#ff7f0e;" x="248.871809" xlink:href="#m6f4aeeb803" y="244.150836"/>
     <use style="fill:#ff7f0e;stroke:#ff7f0e;" x="250.45549" xlink:href="#m6f4aeeb803" y="240.47252"/>
     <use style="fill:#ff7f0e;stroke:#ff7f0e;" x="252.039171" xlink:href="#m6f4aeeb803" y="252.922204"/>
     <use style="fill:#ff7f0e;stroke:#ff7f0e;" x="253.622851" xlink:href="#m6f4aeeb803" y="262.259467"/>
     <use style="fill:#ff7f0e;stroke:#ff7f0e;" x="255.206532" xlink:href="#m6f4aeeb803" y="250.941572"/>
     <use style="fill:#ff7f0e;stroke:#ff7f0e;" x="256.790213" xlink:href="#m6f4aeeb803" y="250.658625"/>
     <use style="fill:#ff7f0e;stroke:#ff7f0e;" x="258.373893" xlink:href="#m6f4aeeb803" y="249.243888"/>
     <use style="fill:#ff7f0e;stroke:#ff7f0e;" x="259.957574" xlink:href="#m6f4aeeb803" y="255.185783"/>
     <use style="fill:#ff7f0e;stroke:#ff7f0e;" x="261.541255" xlink:href="#m6f4aeeb803" y="260.278836"/>
     <use style="fill:#ff7f0e;stroke:#ff7f0e;" x="263.124936" xlink:href="#m6f4aeeb803" y="264.805993"/>
     <use style="fill:#ff7f0e;stroke:#ff7f0e;" x="264.708616" xlink:href="#m6f4aeeb803" y="266.22073"/>
     <use style="fill:#ff7f0e;stroke:#ff7f0e;" x="266.292297" xlink:href="#m6f4aeeb803" y="259.429993"/>
     <use style="fill:#ff7f0e;stroke:#ff7f0e;" x="267.875978" xlink:href="#m6f4aeeb803" y="263.391257"/>
     <use style="fill:#ff7f0e;stroke:#ff7f0e;" x="269.459658" xlink:href="#m6f4aeeb803" y="261.410625"/>
     <use style="fill:#ff7f0e;stroke:#ff7f0e;" x="271.043339" xlink:href="#m6f4aeeb803" y="263.108309"/>
     <use style="fill:#ff7f0e;stroke:#ff7f0e;" x="272.62702" xlink:href="#m6f4aeeb803" y="265.371888"/>
     <use style="fill:#ff7f0e;stroke:#ff7f0e;" x="274.210701" xlink:href="#m6f4aeeb803" y="263.957151"/>
     <use style="fill:#ff7f0e;stroke:#ff7f0e;" x="275.794381" xlink:href="#m6f4aeeb803" y="264.805993"/>
     <use style="fill:#ff7f0e;stroke:#ff7f0e;" x="277.378062" xlink:href="#m6f4aeeb803" y="264.805993"/>
     <use style="fill:#ff7f0e;stroke:#ff7f0e;" x="278.961743" xlink:href="#m6f4aeeb803" y="259.712941"/>
     <use style="fill:#ff7f0e;stroke:#ff7f0e;" x="280.545423" xlink:href="#m6f4aeeb803" y="258.864099"/>
     <use style="fill:#ff7f0e;stroke:#ff7f0e;" x="282.129104" xlink:href="#m6f4aeeb803" y="247.829151"/>
     <use style="fill:#ff7f0e;stroke:#ff7f0e;" x="283.712785" xlink:href="#m6f4aeeb803" y="259.995888"/>
     <use style="fill:#ff7f0e;stroke:#ff7f0e;" x="285.296465" xlink:href="#m6f4aeeb803" y="264.523046"/>
     <use style="fill:#ff7f0e;stroke:#ff7f0e;" x="286.880146" xlink:href="#m6f4aeeb803" y="261.693572"/>
     <use style="fill:#ff7f0e;stroke:#ff7f0e;" x="288.463827" xlink:href="#m6f4aeeb803" y="257.732309"/>
     <use style="fill:#ff7f0e;stroke:#ff7f0e;" x="290.047508" xlink:href="#m6f4aeeb803" y="263.674204"/>
     <use style="fill:#ff7f0e;stroke:#ff7f0e;" x="291.631188" xlink:href="#m6f4aeeb803" y="256.60052"/>
     <use style="fill:#ff7f0e;stroke:#ff7f0e;" x="293.214869" xlink:href="#m6f4aeeb803" y="258.581151"/>
     <use style="fill:#ff7f0e;stroke:#ff7f0e;" x="294.79855" xlink:href="#m6f4aeeb803" y="260.561783"/>
     <use style="fill:#ff7f0e;stroke:#ff7f0e;" x="296.38223" xlink:href="#m6f4aeeb803" y="262.825362"/>
     <use style="fill:#ff7f0e;stroke:#ff7f0e;" x="297.965911" xlink:href="#m6f4aeeb803" y="264.240099"/>
     <use style="fill:#ff7f0e;stroke:#ff7f0e;" x="299.549592" xlink:href="#m6f4aeeb803" y="259.712941"/>
     <use style="fill:#ff7f0e;stroke:#ff7f0e;" x="301.133273" xlink:href="#m6f4aeeb803" y="260.561783"/>
     <use style="fill:#ff7f0e;stroke:#ff7f0e;" x="302.716953" xlink:href="#m6f4aeeb803" y="258.864099"/>
     <use style="fill:#ff7f0e;stroke:#ff7f0e;" x="304.300634" xlink:href="#m6f4aeeb803" y="256.317572"/>
     <use style="fill:#ff7f0e;stroke:#ff7f0e;" x="305.884315" xlink:href="#m6f4aeeb803" y="260.84473"/>
     <use style="fill:#ff7f0e;stroke:#ff7f0e;" x="307.467995" xlink:href="#m6f4aeeb803" y="251.507467"/>
     <use style="fill:#ff7f0e;stroke:#ff7f0e;" x="309.051676" xlink:href="#m6f4aeeb803" y="251.507467"/>
     <use style="fill:#ff7f0e;stroke:#ff7f0e;" x="310.635357" xlink:href="#m6f4aeeb803" y="257.732309"/>
     <use style="fill:#ff7f0e;stroke:#ff7f0e;" x="312.219038" xlink:href="#m6f4aeeb803" y="261.127678"/>
     <use style="fill:#ff7f0e;stroke:#ff7f0e;" x="313.802718" xlink:href="#m6f4aeeb803" y="253.488099"/>
     <use style="fill:#ff7f0e;stroke:#ff7f0e;" x="315.386399" xlink:href="#m6f4aeeb803" y="255.185783"/>
     <use style="fill:#ff7f0e;stroke:#ff7f0e;" x="316.97008" xlink:href="#m6f4aeeb803" y="254.053993"/>
     <use style="fill:#ff7f0e;stroke:#ff7f0e;" x="318.55376" xlink:href="#m6f4aeeb803" y="257.449362"/>
     <use style="fill:#ff7f0e;stroke:#ff7f0e;" x="320.137441" xlink:href="#m6f4aeeb803" y="259.429993"/>
     <use style="fill:#ff7f0e;stroke:#ff7f0e;" x="321.721122" xlink:href="#m6f4aeeb803" y="253.488099"/>
     <use style="fill:#ff7f0e;stroke:#ff7f0e;" x="323.304803" xlink:href="#m6f4aeeb803" y="243.584941"/>
     <use style="fill:#ff7f0e;stroke:#ff7f0e;" x="324.888483" xlink:href="#m6f4aeeb803" y="250.09273"/>
     <use style="fill:#ff7f0e;stroke:#ff7f0e;" x="326.472164" xlink:href="#m6f4aeeb803" y="244.150836"/>
     <use style="fill:#ff7f0e;stroke:#ff7f0e;" x="328.055845" xlink:href="#m6f4aeeb803" y="242.736099"/>
     <use style="fill:#ff7f0e;stroke:#ff7f0e;" x="329.639525" xlink:href="#m6f4aeeb803" y="243.019046"/>
     <use style="fill:#ff7f0e;stroke:#ff7f0e;" x="331.223206" xlink:href="#m6f4aeeb803" y="238.208941"/>
     <use style="fill:#ff7f0e;stroke:#ff7f0e;" x="332.806887" xlink:href="#m6f4aeeb803" y="232.267046"/>
     <use style="fill:#ff7f0e;stroke:#ff7f0e;" x="334.390567" xlink:href="#m6f4aeeb803" y="234.247678"/>
     <use style="fill:#ff7f0e;stroke:#ff7f0e;" x="335.974248" xlink:href="#m6f4aeeb803" y="213.59252"/>
     <use style="fill:#ff7f0e;stroke:#ff7f0e;" x="337.557929" xlink:href="#m6f4aeeb803" y="203.972309"/>
     <use style="fill:#ff7f0e;stroke:#ff7f0e;" x="339.14161" xlink:href="#m6f4aeeb803" y="195.483888"/>
     <use style="fill:#ff7f0e;stroke:#ff7f0e;" x="340.72529" xlink:href="#m6f4aeeb803" y="216.704941"/>
     <use style="fill:#ff7f0e;stroke:#ff7f0e;" x="342.308971" xlink:href="#m6f4aeeb803" y="218.402625"/>
     <use style="fill:#ff7f0e;stroke:#ff7f0e;" x="343.892652" xlink:href="#m6f4aeeb803" y="203.972309"/>
     <use style="fill:#ff7f0e;stroke:#ff7f0e;" x="345.476332" xlink:href="#m6f4aeeb803" y="218.96852"/>
     <use style="fill:#ff7f0e;stroke:#ff7f0e;" x="347.060013" xlink:href="#m6f4aeeb803" y="165.491467"/>
     <use style="fill:#ff7f0e;stroke:#ff7f0e;" x="348.643694" xlink:href="#m6f4aeeb803" y="154.45652"/>
     <use style="fill:#ff7f0e;stroke:#ff7f0e;" x="350.227375" xlink:href="#m6f4aeeb803" y="158.70073"/>
     <use style="fill:#ff7f0e;stroke:#ff7f0e;" x="351.811055" xlink:href="#m6f4aeeb803" y="175.677572"/>
     <use style="fill:#ff7f0e;stroke:#ff7f0e;" x="353.394736" xlink:href="#m6f4aeeb803" y="195.200941"/>
     <use style="fill:#ff7f0e;stroke:#ff7f0e;" x="354.978417" xlink:href="#m6f4aeeb803" y="175.394625"/>
     <use style="fill:#ff7f0e;stroke:#ff7f0e;" x="356.562097" xlink:href="#m6f4aeeb803" y="140.875046"/>
     <use style="fill:#ff7f0e;stroke:#ff7f0e;" x="358.145778" xlink:href="#m6f4aeeb803" y="98.432941"/>
     <use style="fill:#ff7f0e;stroke:#ff7f0e;" x="359.729459" xlink:href="#m6f4aeeb803" y="90.793362"/>
     <use style="fill:#ff7f0e;stroke:#ff7f0e;" x="361.31314" xlink:href="#m6f4aeeb803" y="99.56473"/>
     <use style="fill:#ff7f0e;stroke:#ff7f0e;" x="362.89682" xlink:href="#m6f4aeeb803" y="140.592099"/>
     <use style="fill:#ff7f0e;stroke:#ff7f0e;" x="364.480501" xlink:href="#m6f4aeeb803" y="135.781993"/>
     <use style="fill:#ff7f0e;stroke:#ff7f0e;" x="366.064182" xlink:href="#m6f4aeeb803" y="93.056941"/>
     <use style="fill:#ff7f0e;stroke:#ff7f0e;" x="367.647862" xlink:href="#m6f4aeeb803" y="30.242625"/>
     <use style="fill:#ff7f0e;stroke:#ff7f0e;" x="369.231543" xlink:href="#m6f4aeeb803" y="32.506204"/>
     <use style="fill:#ff7f0e;stroke:#ff7f0e;" x="370.815224" xlink:href="#m6f4aeeb803" y="89.661572"/>
     <use style="fill:#ff7f0e;stroke:#ff7f0e;" x="372.398905" xlink:href="#m6f4aeeb803" y="97.301151"/>
     <use style="fill:#ff7f0e;stroke:#ff7f0e;" x="373.982585" xlink:href="#m6f4aeeb803" y="128.708309"/>
    </g>
   </g>
   <g id="patch_3">
    <path d="M 33.095313 284.258625 
L 33.095313 18.146625 
" style="fill:none;stroke:#000000;stroke-linecap:square;stroke-linejoin:miter;stroke-width:0.8;"/>
   </g>
   <g id="patch_4">
    <path d="M 390.215312 284.258625 
L 390.215312 18.146625 
" style="fill:none;stroke:#000000;stroke-linecap:square;stroke-linejoin:miter;stroke-width:0.8;"/>
   </g>
   <g id="patch_5">
    <path d="M 33.095312 284.258625 
L 390.215313 284.258625 
" style="fill:none;stroke:#000000;stroke-linecap:square;stroke-linejoin:miter;stroke-width:0.8;"/>
   </g>
   <g id="patch_6">
    <path d="M 33.095312 18.146625 
L 390.215313 18.146625 
" style="fill:none;stroke:#000000;stroke-linecap:square;stroke-linejoin:miter;stroke-width:0.8;"/>
   </g>
   <g id="legend_1">
    <g id="patch_7">
     <path d="M 40.095313 56.29975 
L 159.078125 56.29975 
Q 161.078125 56.29975 161.078125 54.29975 
L 161.078125 25.146625 
Q 161.078125 23.146625 159.078125 23.146625 
L 40.095313 23.146625 
Q 38.095313 23.146625 38.095313 25.146625 
L 38.095313 54.29975 
Q 38.095313 56.29975 40.095313 56.29975 
z
" style="fill:#ffffff;opacity:0.8;stroke:#cccccc;stroke-linejoin:miter;"/>
    </g>
    <g id="line2d_16">
     <path d="M 42.095313 31.766937 
L 62.095313 31.766937 
" style="fill:none;stroke:#1f77b4;stroke-linecap:square;stroke-width:1.5;"/>
    </g>
    <g id="line2d_17">
     <g>
      <use style="fill:#1f77b4;stroke:#1f77b4;" x="52.095313" xlink:href="#mf7cd1f7559" y="31.766937"/>
     </g>
    </g>
    <g id="text_15">
     <!--  (onset) -->
     <g transform="translate(70.095313 35.266937)scale(0.1 -0.1)">
      <defs>
       <path d="M 73.734375 56.84375 
Q 80.609375 62.75 85.203125 68.609375 
L 91.109375 64.40625 
Q 84.46875 57.8125 78.71875 53.328125 
Q 85.9375 48.6875 95.40625 44.625 
L 90.625 38.375 
Q 81.734375 42.78125 73.53125 48.640625 
L 73.53125 43.3125 
L 64.109375 43.3125 
L 64.109375 29.984375 
L 89.890625 29.984375 
L 89.890625 23.78125 
L 64.109375 23.78125 
L 64.109375 5.609375 
Q 64.109375 2.484375 65.71875 2.046875 
Q 67.390625 1.46875 73.09375 1.46875 
Q 82.125 1.46875 83.59375 2.984375 
Q 85.0625 4.4375 85.5 11.96875 
Q 85.5 13.484375 85.59375 14.0625 
L 92.625 11.578125 
Q 92.1875 0.390625 89.703125 -2.203125 
Q 87.0625 -5.328125 72.609375 -5.328125 
Q 63.8125 -5.328125 60.9375 -4 
Q 57.03125 -2.34375 57.03125 3.328125 
L 57.03125 23.78125 
L 42.578125 23.78125 
Q 40.1875 0.53125 11.078125 -7.421875 
L 7.28125 -0.984375 
Q 33.25 5.421875 35.5 23.78125 
L 10.015625 23.78125 
L 10.015625 29.984375 
L 35.796875 29.984375 
L 35.796875 43.3125 
L 27.78125 43.3125 
L 27.78125 47.015625 
Q 19.734375 41.359375 9.078125 36.1875 
L 4.5 42.1875 
Q 16.3125 46.734375 25.984375 53.8125 
Q 19.828125 60.15625 13.484375 64.59375 
L 18.609375 69.140625 
Q 26.515625 62.59375 31.109375 58.015625 
Q 38.03125 64.0625 43.171875 72.125 
L 20.0625 72.125 
L 20.0625 78.21875 
L 54 78.21875 
Q 58.203125 71.34375 62.890625 66.3125 
Q 69.09375 71.625 74.03125 77.9375 
L 79.828125 73.734375 
Q 74.171875 67.625 67.09375 62.203125 
Q 70.40625 59.078125 73.734375 56.84375 
z
M 57.03125 43.3125 
L 42.78125 43.3125 
L 42.78125 29.984375 
L 57.03125 29.984375 
z
M 30.90625 49.3125 
L 72.515625 49.3125 
Q 58.6875 59.28125 50.59375 71 
Q 43.21875 58.890625 30.90625 49.3125 
z
" id="IPAexGothic-30330"/>
       <path d="M 63.71875 2.875 
L 95.015625 2.875 
L 95.015625 -3.515625 
L 23.96875 -3.515625 
L 23.96875 2.875 
L 37.3125 2.875 
L 37.3125 38.28125 
L 44 38.28125 
L 44 2.875 
L 56.84375 2.875 
L 56.84375 46.578125 
L 30.515625 46.578125 
L 30.515625 52.78125 
L 90.046875 52.78125 
L 90.046875 46.578125 
L 63.71875 46.578125 
L 63.71875 29.203125 
L 87.796875 29.203125 
L 87.796875 23.09375 
L 63.71875 23.09375 
z
M 60.203125 70.515625 
L 93.890625 70.515625 
L 93.890625 64.109375 
L 27.296875 64.109375 
L 27.296875 41.40625 
Q 27.296875 23.140625 24.21875 12.203125 
Q 21.390625 2.25 14.59375 -6.203125 
L 9.625 -1.171875 
Q 18.75 10.359375 20.125 27.484375 
Q 15.4375 24.125 7.078125 19.734375 
L 4 26.609375 
Q 12.3125 29.59375 20.40625 34.328125 
L 20.40625 37.890625 
L 20.40625 70.515625 
L 52.78125 70.515625 
L 52.78125 81.984375 
L 60.203125 81.984375 
z
M 12.015625 40.375 
Q 8.890625 50.78125 5.421875 57.90625 
L 11.375 60.59375 
Q 15.234375 53.859375 18.40625 43.703125 
z
" id="IPAexGothic-30151"/>
       <path d="M 81.734375 75 
L 81.734375 -4.5 
L 74.125 -4.5 
L 74.125 2 
L 25.734375 2 
L 25.734375 -4.5 
L 18.109375 -4.5 
L 18.109375 75 
z
M 25.734375 68.3125 
L 25.734375 42.671875 
L 74.125 42.671875 
L 74.125 68.3125 
z
M 25.734375 35.890625 
L 25.734375 8.6875 
L 74.125 8.6875 
L 74.125 35.890625 
z
" id="IPAexGothic-26085"/>
       <path id="IPAexGothic-32"/>
       <path d="M 30.125 -15.875 
L 25.828125 -18.21875 
Q 7.625 1.078125 7.625 29.296875 
Q 7.625 57.46875 25.828125 76.703125 
L 30.125 74.421875 
Q 15.71875 55.03125 15.71875 29.390625 
Q 15.71875 3.171875 30.125 -15.875 
z
" id="IPAexGothic-40"/>
       <path d="M 29.984375 52.203125 
Q 40.53125 52.203125 47.75 45.125 
Q 55.171875 37.703125 55.171875 25.59375 
Q 55.171875 13.875 47.90625 6.59375 
Q 40.765625 -0.484375 29.984375 -0.484375 
Q 19.1875 -0.484375 12.203125 6.5 
Q 4.890625 13.765625 4.890625 25.875 
Q 4.890625 37.703125 12.3125 45.125 
Q 19.390625 52.203125 29.984375 52.203125 
z
M 29.984375 45.609375 
Q 23.734375 45.609375 19.390625 41.109375 
Q 13.875 35.59375 13.875 25.78125 
Q 13.875 16.109375 19.28125 10.6875 
Q 23.6875 6.296875 29.984375 6.296875 
Q 36.421875 6.296875 40.765625 10.796875 
Q 46.1875 16.21875 46.1875 26.125 
Q 46.1875 35.453125 40.671875 41.109375 
Q 36.1875 45.609375 29.984375 45.609375 
z
" id="IPAexGothic-111"/>
       <path d="M 34.90625 39.796875 
Q 30.28125 45.796875 23.1875 45.796875 
Q 13.921875 45.796875 13.921875 38.671875 
Q 13.921875 33.640625 23.921875 30.375 
L 27.203125 29.296875 
Q 41.40625 24.65625 41.40625 13.96875 
Q 41.40625 6.78125 35.5 2.6875 
Q 30.8125 -0.484375 23.390625 -0.484375 
Q 11.96875 -0.484375 4 7.859375 
L 9.421875 12.796875 
Q 15.578125 6.203125 23.6875 6.203125 
Q 33.296875 6.203125 33.296875 13.671875 
Q 33.296875 19.34375 22.703125 23.09375 
L 19.28125 24.265625 
Q 5.90625 28.953125 5.90625 37.984375 
Q 5.90625 43.703125 9.8125 47.609375 
Q 14.5 52.296875 22.703125 52.296875 
Q 33.6875 52.296875 40.71875 44.671875 
z
" id="IPAexGothic-115"/>
       <path d="M 33.203125 3.765625 
Q 27.640625 -0.09375 21.828125 -0.09375 
Q 10.203125 -0.09375 10.203125 12.984375 
L 10.203125 44.671875 
L 3.421875 44.671875 
L 3.421875 50.78125 
L 10.203125 50.78125 
L 10.203125 61.96875 
L 18.40625 66.0625 
L 18.40625 50.78125 
L 32.234375 50.78125 
L 32.234375 44.671875 
L 18.40625 44.671875 
L 18.40625 14.15625 
Q 18.40625 6.5 23.640625 6.5 
Q 27.15625 6.5 30.328125 9.1875 
z
" id="IPAexGothic-116"/>
       <path d="M 7.28125 76.703125 
Q 25.59375 57.375 25.59375 29.296875 
Q 25.59375 1.171875 7.28125 -18.21875 
L 2.984375 -15.875 
Q 17.484375 3.375 17.484375 29.390625 
Q 17.484375 54.828125 2.984375 74.421875 
z
" id="IPAexGothic-41"/>
      </defs>
      <use xlink:href="#IPAexGothic-30330"/>
      <use x="100" xlink:href="#IPAexGothic-30151"/>
      <use x="200" xlink:href="#IPAexGothic-26085"/>
      <use x="300" xlink:href="#IPAexGothic-32"/>
      <use x="327.001953" xlink:href="#IPAexGothic-40"/>
      <use x="360.302734" xlink:href="#IPAexGothic-111"/>
      <use x="420.703125" xlink:href="#IPAexGothic-110"/>
      <use x="481.103516" xlink:href="#IPAexGothic-115"/>
      <use x="527.294922" xlink:href="#IPAexGothic-101"/>
      <use x="584.179688" xlink:href="#IPAexGothic-116"/>
      <use x="618.798828" xlink:href="#IPAexGothic-41"/>
     </g>
    </g>
    <g id="line2d_18">
     <path d="M 42.095313 46.89975 
L 62.095313 46.89975 
" style="fill:none;stroke:#ff7f0e;stroke-linecap:square;stroke-width:1.5;"/>
    </g>
    <g id="line2d_19">
     <g>
      <use style="fill:#ff7f0e;stroke:#ff7f0e;" x="52.095313" xlink:href="#m6f4aeeb803" y="46.89975"/>
     </g>
    </g>
    <g id="text_16">
     <!--  (confirmed) -->
     <g transform="translate(70.095313 50.39975)scale(0.1 -0.1)">
      <defs>
       <path d="M 67.921875 50.296875 
Q 70.5625 55.28125 72.609375 61.8125 
L 79.296875 60.203125 
Q 76.171875 53.609375 74.21875 50.296875 
L 92 50.296875 
L 92 44.484375 
L 73.4375 44.484375 
L 73.4375 34.71875 
L 89.703125 34.71875 
L 89.703125 29.203125 
L 73.4375 29.203125 
L 73.4375 19.53125 
L 89.703125 19.53125 
L 89.703125 14.015625 
L 73.4375 14.015625 
L 73.4375 3.609375 
L 94.28125 3.609375 
L 94.28125 -2.203125 
L 54.109375 -2.203125 
L 54.109375 -6.984375 
L 47.609375 -6.984375 
L 47.609375 38.1875 
Q 43.0625 31.546875 38.8125 26.609375 
L 35.6875 32.8125 
Q 49.359375 49.953125 54.78125 64.796875 
L 45.515625 64.796875 
L 45.515625 53.515625 
L 39.203125 53.515625 
L 39.203125 70.609375 
L 56.78125 70.609375 
Q 58.59375 76.609375 60.109375 83.109375 
L 66.703125 81.890625 
Q 65.234375 75.53125 63.625 70.609375 
L 92.71875 70.609375 
L 92.71875 53.515625 
L 86.328125 53.515625 
L 86.328125 64.796875 
L 61.53125 64.796875 
Q 58.546875 56.984375 54.890625 50.296875 
z
M 67.140625 44.484375 
L 54.109375 44.484375 
L 54.109375 34.71875 
L 67.140625 34.71875 
z
M 67.140625 29.203125 
L 54.109375 29.203125 
L 54.109375 19.53125 
L 67.140625 19.53125 
z
M 67.140625 14.015625 
L 54.109375 14.015625 
L 54.109375 3.609375 
L 67.140625 3.609375 
z
M 18.109375 46 
L 35.546875 46 
L 35.546875 3.078125 
L 18.953125 3.078125 
L 18.953125 -5.125 
L 12.75 -5.125 
L 12.75 34.46875 
Q 10.15625 29.734375 6.15625 23.78125 
L 2.9375 29.984375 
Q 14.546875 47.078125 18.75 69 
L 6.34375 69 
L 6.34375 75.296875 
L 37.640625 75.296875 
L 37.640625 69 
L 25.25 69 
L 24.953125 68.015625 
Q 22.75 57.234375 18.109375 46 
z
M 18.953125 39.890625 
L 18.953125 9.1875 
L 29.34375 9.1875 
L 29.34375 39.890625 
z
" id="IPAexGothic-30906"/>
       <path d="M 53.609375 4.734375 
Q 61.421875 3.515625 73.578125 3.515625 
Q 81.109375 3.515625 94.578125 4.109375 
Q 93.171875 0.921875 92 -3.5625 
Q 81.78125 -3.90625 75.6875 -3.90625 
Q 55.765625 -3.90625 46.921875 -1.21875 
Q 35.296875 2.390625 27.34375 14.109375 
Q 22.515625 2.546875 12.59375 -7.171875 
L 7.421875 -1.171875 
Q 22.125 11.859375 26.3125 37.796875 
L 33.203125 35.984375 
Q 31.734375 27.4375 29.828125 21.1875 
Q 36.53125 10.59375 46.4375 6.5 
L 46.4375 46 
L 22.40625 46 
L 22.40625 52.390625 
L 77.484375 52.390625 
L 77.484375 46 
L 53.609375 46 
L 53.609375 31 
L 84.328125 31 
L 84.328125 24.515625 
L 53.609375 24.515625 
z
M 53.421875 69.1875 
L 89.84375 69.1875 
L 89.84375 49.46875 
L 82.421875 49.46875 
L 82.421875 62.890625 
L 17.53125 62.890625 
L 17.53125 49.46875 
L 10.109375 49.46875 
L 10.109375 69.1875 
L 45.90625 69.1875 
L 45.90625 83.015625 
L 53.421875 83.015625 
z
" id="IPAexGothic-23450"/>
       <path d="M 51.078125 12.25 
Q 44.28125 -0.484375 29.6875 -0.484375 
Q 19.1875 -0.484375 12.3125 6.390625 
Q 4.890625 13.921875 4.890625 25.984375 
Q 4.890625 37.9375 12.3125 45.515625 
Q 19.09375 52.296875 29.390625 52.296875 
Q 43.953125 52.296875 50.09375 39.703125 
L 43.171875 36.078125 
Q 38.8125 45.3125 29.6875 45.3125 
Q 23.6875 45.3125 19.28125 40.921875 
Q 13.765625 35.40625 13.765625 25.78125 
Q 13.765625 16.703125 19.09375 11.375 
Q 23.78125 6.6875 30.5625 6.6875 
Q 39.796875 6.6875 44.484375 15.875 
z
" id="IPAexGothic-99"/>
       <path d="M 38.375 72.21875 
L 34.8125 66.3125 
Q 31.109375 69.09375 27.203125 69.09375 
Q 18.5 69.09375 18.5 57.375 
L 18.5 50.78125 
L 32.078125 50.78125 
L 32.078125 44.671875 
L 18.5 44.671875 
L 18.5 0.984375 
L 10.015625 0.984375 
L 10.015625 44.671875 
L 1.90625 44.671875 
L 1.90625 50.78125 
L 10.015625 50.78125 
L 10.015625 57.171875 
Q 10.015625 65.4375 13.921875 70.0625 
Q 18.75 75.6875 26.703125 75.6875 
Q 33.0625 75.6875 38.375 72.21875 
z
" id="IPAexGothic-102"/>
       <path d="M 18.40625 61.375 
L 8.59375 61.375 
L 8.59375 71.390625 
L 18.40625 71.390625 
z
M 17.78125 0.984375 
L 9.1875 0.984375 
L 9.1875 50.78125 
L 17.78125 50.78125 
z
" id="IPAexGothic-105"/>
       <path d="M 78.46875 0.984375 
L 69.875 0.984375 
L 69.875 32.171875 
Q 69.875 44.828125 60.109375 44.828125 
Q 55.46875 44.828125 51.609375 40.53125 
Q 48.875 37.453125 47.796875 32.859375 
L 47.796875 0.984375 
L 39.203125 0.984375 
L 39.203125 32.28125 
Q 39.203125 44.828125 29.984375 44.828125 
Q 25.09375 44.828125 21.390625 40.53125 
Q 17.390625 36.03125 17.390625 31.890625 
L 17.390625 0.984375 
L 8.796875 0.984375 
L 8.796875 50.78125 
L 16.796875 50.78125 
L 16.796875 42.1875 
Q 21.734375 51.8125 31.6875 51.8125 
Q 42.578125 51.8125 46.1875 41.359375 
Q 51.609375 51.8125 61.765625 51.8125 
Q 69.96875 51.8125 74.5625 46 
Q 78.46875 41.21875 78.46875 32.375 
z
" id="IPAexGothic-109"/>
       <path d="M 52.984375 0.984375 
L 45.171875 0.984375 
L 45.171875 9.671875 
Q 38.140625 -0.484375 27.390625 -0.484375 
Q 18.453125 -0.484375 12.3125 5.8125 
Q 4.890625 13.1875 4.890625 25.984375 
Q 4.890625 38.53125 12.0625 45.90625 
Q 18.265625 52.203125 27.390625 52.203125 
Q 37.25 52.203125 44.484375 43.890625 
L 44.484375 74.90625 
L 52.984375 74.90625 
z
M 44.484375 20.359375 
L 44.484375 32.765625 
Q 44.484375 37.703125 38.375 42.28125 
Q 34.078125 45.40625 28.953125 45.40625 
Q 23.1875 45.40625 19.1875 41.40625 
Q 13.875 36.078125 13.875 26.21875 
Q 13.875 17.328125 18.265625 11.71875 
Q 22.515625 6.390625 28.859375 6.390625 
Q 36.28125 6.390625 41.5 13.671875 
Q 44.484375 17.71875 44.484375 20.359375 
z
" id="IPAexGothic-100"/>
      </defs>
      <use xlink:href="#IPAexGothic-30906"/>
      <use x="100" xlink:href="#IPAexGothic-23450"/>
      <use x="200" xlink:href="#IPAexGothic-26085"/>
      <use x="300" xlink:href="#IPAexGothic-32"/>
      <use x="327.001953" xlink:href="#IPAexGothic-40"/>
      <use x="360.302734" xlink:href="#IPAexGothic-99"/>
      <use x="414.697266" xlink:href="#IPAexGothic-111"/>
      <use x="475.097656" xlink:href="#IPAexGothic-110"/>
      <use x="535.498047" xlink:href="#IPAexGothic-102"/>
      <use x="566.113281" xlink:href="#IPAexGothic-105"/>
      <use x="593.115234" xlink:href="#IPAexGothic-114"/>
      <use x="630.126953" xlink:href="#IPAexGothic-109"/>
      <use x="717.236328" xlink:href="#IPAexGothic-101"/>
      <use x="774.121094" xlink:href="#IPAexGothic-100"/>
      <use x="836.523438" xlink:href="#IPAexGothic-41"/>
     </g>
    </g>
   </g>
  </g>
  <g id="text_17">
   <!-- generated: 2020-07-28 07:56:20 JST -->
   <g transform="translate(213.980938 14.690625)scale(0.1 -0.1)">
    <defs>
     <path d="M 21.390625 39.984375 
L 10.5 39.984375 
L 10.5 50.78125 
L 21.390625 50.78125 
z
M 21.390625 0.984375 
L 10.5 0.984375 
L 10.5 11.765625 
L 21.390625 11.765625 
z
" id="IPAexGothic-58"/>
     <path d="M 30.765625 26.609375 
L 4.984375 26.609375 
L 4.984375 34.421875 
L 30.765625 34.421875 
z
" id="IPAexGothic-45"/>
     <path d="M 56.203125 66.609375 
Q 34.96875 32.90625 27.78125 0.984375 
L 17.671875 0.984375 
Q 24.703125 28.65625 46.09375 64.5 
L 6.6875 64.5 
L 6.6875 72.40625 
L 56.203125 72.40625 
z
" id="IPAexGothic-55"/>
     <path d="M 18.40625 40.671875 
Q 25.53125 46.296875 33.9375 46.296875 
Q 44 46.296875 50.640625 39.5 
Q 56.84375 33.015625 56.84375 23.390625 
Q 56.84375 14.65625 51.515625 8.015625 
Q 44.828125 -0.484375 31.734375 -0.484375 
Q 14.984375 -0.484375 7.328125 12.25 
L 14.65625 16.0625 
Q 20.453125 6.78125 31.453125 6.78125 
Q 38.53125 6.78125 43.265625 11.1875 
Q 48.140625 15.828125 48.140625 23.484375 
Q 48.140625 30.71875 43.84375 35.015625 
Q 39.359375 39.5 32.125 39.5 
Q 21.96875 39.5 16.75 31.6875 
L 9.234375 32.671875 
L 13.8125 72.40625 
L 53.21875 72.40625 
L 53.21875 64.890625 
L 20.953125 64.890625 
L 17.71875 40.671875 
z
" id="IPAexGothic-53"/>
     <path d="M 45.609375 56.890625 
Q 40.046875 66.546875 28.953125 66.546875 
Q 22.703125 66.546875 18.953125 62.640625 
Q 16.0625 59.421875 16.0625 55.21875 
Q 16.0625 50.59375 19.78125 47.609375 
Q 22.5625 45.515625 31 42 
L 34.375 40.578125 
Q 45.703125 36.03125 49.859375 30.515625 
Q 53.46875 25.6875 53.46875 19.671875 
Q 53.46875 10.0625 46.390625 4.5 
Q 39.984375 -0.484375 30.171875 -0.484375 
Q 13.765625 -0.484375 4.890625 11.96875 
L 11.765625 17.1875 
Q 18.796875 7.171875 30.28125 7.171875 
Q 35.75 7.171875 39.59375 9.765625 
Q 44.390625 13.234375 44.390625 19 
Q 44.390625 23.484375 40.875 27 
Q 37.109375 30.609375 27 34.46875 
L 24.078125 35.59375 
Q 7.078125 42.09375 7.078125 54.390625 
Q 7.078125 62.59375 12.59375 67.921875 
Q 18.796875 73.828125 29.109375 73.828125 
Q 44.390625 73.828125 52.484375 61.8125 
z
" id="IPAexGothic-83"/>
     <path d="M 60.40625 64.703125 
L 33.984375 64.703125 
L 33.984375 0.984375 
L 25.09375 0.984375 
L 25.09375 64.703125 
L -0.484375 64.703125 
L -0.484375 72.40625 
L 60.40625 72.40625 
z
" id="IPAexGothic-84"/>
    </defs>
    <use xlink:href="#IPAexGothic-103"/>
    <use x="55.517578" xlink:href="#IPAexGothic-101"/>
    <use x="112.402344" xlink:href="#IPAexGothic-110"/>
    <use x="172.802734" xlink:href="#IPAexGothic-101"/>
    <use x="229.6875" xlink:href="#IPAexGothic-114"/>
    <use x="266.699219" xlink:href="#IPAexGothic-97"/>
    <use x="321.679688" xlink:href="#IPAexGothic-116"/>
    <use x="356.298828" xlink:href="#IPAexGothic-101"/>
    <use x="413.183594" xlink:href="#IPAexGothic-100"/>
    <use x="475.585938" xlink:href="#IPAexGothic-58"/>
    <use x="507.568359" xlink:href="#IPAexGothic-32"/>
    <use x="534.570312" xlink:href="#IPAexGothic-50"/>
    <use x="597.558594" xlink:href="#IPAexGothic-48"/>
    <use x="660.546875" xlink:href="#IPAexGothic-50"/>
    <use x="723.535156" xlink:href="#IPAexGothic-48"/>
    <use x="786.523438" xlink:href="#IPAexGothic-45"/>
    <use x="822.314453" xlink:href="#IPAexGothic-48"/>
    <use x="885.302734" xlink:href="#IPAexGothic-55"/>
    <use x="948.291016" xlink:href="#IPAexGothic-45"/>
    <use x="984.082031" xlink:href="#IPAexGothic-50"/>
    <use x="1047.070312" xlink:href="#IPAexGothic-56"/>
    <use x="1110.058594" xlink:href="#IPAexGothic-32"/>
    <use x="1137.060547" xlink:href="#IPAexGothic-48"/>
    <use x="1200.048828" xlink:href="#IPAexGothic-55"/>
    <use x="1263.037109" xlink:href="#IPAexGothic-58"/>
    <use x="1295.019531" xlink:href="#IPAexGothic-53"/>
    <use x="1358.007812" xlink:href="#IPAexGothic-54"/>
    <use x="1420.996094" xlink:href="#IPAexGothic-58"/>
    <use x="1452.978516" xlink:href="#IPAexGothic-50"/>
    <use x="1515.966797" xlink:href="#IPAexGothic-48"/>
    <use x="1578.955078" xlink:href="#IPAexGothic-32"/>
    <use x="1605.957031" xlink:href="#IPAexGothic-74"/>
    <use x="1643.945312" xlink:href="#IPAexGothic-83"/>
    <use x="1702.441406" xlink:href="#IPAexGothic-84"/>
   </g>
  </g>
 </g>
 <defs>
  <clipPath id="p18ac9e3048">
   <rect height="266.112" width="357.12" x="33.095313" y="18.146625"/>
  </clipPath>
 </defs>
</svg>
