<?xml version="1.0" encoding="utf-8" standalone="no"?>
<!DOCTYPE svg PUBLIC "-//W3C//DTD SVG 1.1//EN"
  "http://www.w3.org/Graphics/SVG/1.1/DTD/svg11.dtd">
<!-- Created with matplotlib (https://matplotlib.org/) -->
<svg height="320.239875pt" version="1.1" viewBox="0 0 403.71375 320.239875" width="403.71375pt" xmlns="http://www.w3.org/2000/svg" xmlns:xlink="http://www.w3.org/1999/xlink">
 <metadata>
  <rdf:RDF xmlns:cc="http://creativecommons.org/ns#" xmlns:dc="http://purl.org/dc/elements/1.1/" xmlns:rdf="http://www.w3.org/1999/02/22-rdf-syntax-ns#">
   <cc:Work>
    <dc:type rdf:resource="http://purl.org/dc/dcmitype/StillImage"/>
    <dc:date>2020-08-12T18:08:39.433561</dc:date>
    <dc:format>image/svg+xml</dc:format>
    <dc:creator>
     <cc:Agent>
      <dc:title>Matplotlib v3.3.0, https://matplotlib.org/</dc:title>
     </cc:Agent>
    </dc:creator>
   </cc:Work>
  </rdf:RDF>
 </metadata>
 <defs>
  <style type="text/css">*{stroke-linecap:butt;stroke-linejoin:round;}</style>
 </defs>
 <g id="figure_1">
  <g id="patch_1">
   <path d="M 0 320.239875 
L 403.71375 320.239875 
L 403.71375 0 
L 0 0 
z
" style="fill:#ffffff;"/>
  </g>
  <g id="axes_1">
   <g id="patch_2">
    <path d="M 39.39375 284.258625 
L 396.51375 284.258625 
L 396.51375 18.146625 
L 39.39375 18.146625 
z
" style="fill:#ffffff;"/>
   </g>
   <g id="matplotlib.axis_1">
    <g id="xtick_1">
     <g id="line2d_1">
      <defs>
       <path d="M 0 0 
L 0 3.5 
" id="m60a99923b2" style="stroke:#000000;stroke-width:0.8;"/>
      </defs>
      <g>
       <use style="stroke:#000000;stroke-width:0.8;" x="52.688427" xlink:href="#m60a99923b2" y="284.258625"/>
      </g>
     </g>
     <g id="text_1">
      <!-- 2020 -->
      <g transform="translate(40.091552 298.74925)scale(0.1 -0.1)">
       <defs>
        <path d="M 57.171875 0.984375 
L 6.984375 0.984375 
L 6.984375 9.28125 
Q 12.890625 23.046875 29.59375 34.421875 
L 32.375 36.28125 
Q 40.921875 42.140625 43.609375 45.40625 
Q 46.6875 49.265625 46.6875 53.8125 
Q 46.6875 58.9375 43.0625 62.546875 
Q 39.0625 66.546875 32.5625 66.546875 
Q 19.53125 66.546875 15.484375 52 
L 7.765625 54.78125 
Q 13.328125 73.828125 33.0625 73.828125 
Q 43.84375 73.828125 50.25 67.4375 
Q 55.859375 61.671875 55.859375 53.515625 
Q 55.859375 47.46875 52.25 42.53125 
Q 48.921875 37.75 36.96875 30.28125 
L 34.859375 29 
Q 19.625 19.578125 15.28125 8.890625 
L 57.171875 8.890625 
z
" id="IPAexGothic-50"/>
        <path d="M 31.84375 73.828125 
Q 45.015625 73.828125 52.09375 61.625 
Q 57.71875 51.953125 57.71875 36.625 
Q 57.71875 21.4375 52.09375 11.578125 
Q 45.125 -0.484375 31.5 -0.484375 
Q 17.921875 -0.484375 10.9375 11.578125 
Q 5.328125 21.4375 5.328125 36.71875 
Q 5.328125 58.015625 15.625 67.71875 
Q 22.171875 73.828125 31.84375 73.828125 
z
M 31.5 66.65625 
Q 23.6875 66.65625 19.1875 58.734375 
Q 14.59375 50.734375 14.59375 36.625 
Q 14.59375 22.75 19.09375 14.796875 
Q 23.640625 6.984375 31.5 6.984375 
Q 40.921875 6.984375 45.453125 18.015625 
Q 48.4375 25.34375 48.4375 37.109375 
Q 48.4375 50.875 43.84375 58.734375 
Q 39.203125 66.65625 31.5 66.65625 
z
" id="IPAexGothic-48"/>
       </defs>
       <use xlink:href="#IPAexGothic-50"/>
       <use x="62.988281" xlink:href="#IPAexGothic-48"/>
       <use x="125.976562" xlink:href="#IPAexGothic-50"/>
       <use x="188.964844" xlink:href="#IPAexGothic-48"/>
      </g>
     </g>
    </g>
    <g id="xtick_2">
     <g id="line2d_2">
      <g>
       <use style="stroke:#000000;stroke-width:0.8;" x="98.228205" xlink:href="#m60a99923b2" y="284.258625"/>
      </g>
     </g>
     <g id="text_2">
      <!-- Feb -->
      <g transform="translate(89.404767 298.74925)scale(0.1 -0.1)">
       <defs>
        <path d="M 54.203125 64.703125 
L 18.3125 64.703125 
L 18.3125 41.5 
L 50.09375 41.5 
L 50.09375 34.1875 
L 18.3125 34.1875 
L 18.3125 0.984375 
L 9.515625 0.984375 
L 9.515625 72.40625 
L 54.203125 72.40625 
z
" id="IPAexGothic-70"/>
        <path d="M 13.484375 24.90625 
Q 13.921875 16.265625 18.890625 11.28125 
Q 23.96875 6.203125 31.203125 6.203125 
Q 40.71875 6.203125 46.296875 15.09375 
L 51.90625 11.375 
Q 44.828125 -0.484375 30.171875 -0.484375 
Q 19.09375 -0.484375 11.96875 6.59375 
Q 4.78125 13.8125 4.78125 25.640625 
Q 4.78125 38.1875 12.3125 45.703125 
Q 19 52.390625 29 52.390625 
Q 38.421875 52.390625 44.78125 46.1875 
Q 51.90625 38.96875 51.90625 26.90625 
L 51.90625 24.90625 
z
M 43.0625 31.203125 
Q 42.328125 37.984375 38.28125 41.890625 
Q 34.28125 45.90625 28.8125 45.90625 
Q 22.46875 45.90625 17.96875 40.484375 
Q 14.890625 36.8125 13.96875 31.203125 
z
" id="IPAexGothic-101"/>
        <path d="M 17.578125 42.671875 
Q 24.21875 52.203125 34.671875 52.203125 
Q 43.5625 52.203125 49.859375 45.90625 
Q 57.171875 38.578125 57.171875 25.6875 
Q 57.171875 13.09375 49.859375 5.8125 
Q 43.5625 -0.484375 34.46875 -0.484375 
Q 24.359375 -0.484375 17 8.0625 
L 15.765625 0.6875 
L 9.078125 0.6875 
L 9.078125 74.90625 
L 17.578125 74.90625 
z
M 17.578125 31.203125 
L 17.578125 19.578125 
Q 17.578125 13.875 23.875 9.375 
Q 28.171875 6.296875 33.109375 6.296875 
Q 38.875 6.296875 42.875 10.296875 
Q 48.1875 15.765625 48.1875 25.484375 
Q 48.1875 34.28125 43.796875 39.890625 
Q 39.453125 45.3125 33.203125 45.3125 
Q 27.484375 45.3125 22.46875 40.28125 
Q 17.578125 35.40625 17.578125 31.203125 
z
" id="IPAexGothic-98"/>
       </defs>
       <use xlink:href="#IPAexGothic-70"/>
       <use x="57.177734" xlink:href="#IPAexGothic-101"/>
       <use x="114.0625" xlink:href="#IPAexGothic-98"/>
      </g>
     </g>
    </g>
    <g id="xtick_3">
     <g id="line2d_3">
      <g>
       <use style="stroke:#000000;stroke-width:0.8;" x="140.829933" xlink:href="#m60a99923b2" y="284.258625"/>
      </g>
     </g>
     <g id="text_3">
      <!-- Mar -->
      <g transform="translate(131.720558 298.74925)scale(0.1 -0.1)">
       <defs>
        <path d="M 80.421875 0.984375 
L 71.828125 0.984375 
L 71.828125 39.59375 
Q 71.828125 51.265625 72.40625 64.59375 
L 72.015625 64.59375 
Q 68.0625 53.265625 63.53125 41.796875 
L 47.90625 3.265625 
L 41.40625 3.265625 
L 25.640625 42.578125 
Q 20.75 54.78125 17.625 64.703125 
L 17.234375 64.703125 
Q 17.828125 48.921875 17.828125 39.890625 
L 17.828125 0.984375 
L 9.515625 0.984375 
L 9.515625 72.40625 
L 22.125 72.40625 
L 39.109375 30.375 
Q 42.140625 23 44.828125 14.15625 
L 45.125 14.15625 
Q 47.3125 22.125 50.53125 30.171875 
L 67.4375 72.40625 
L 80.421875 72.40625 
z
" id="IPAexGothic-77"/>
        <path d="M 49.3125 0.984375 
L 41.75 0.984375 
Q 39.984375 4.734375 39.546875 8.6875 
L 39.203125 8.6875 
Q 33.546875 -0.390625 22.3125 -0.390625 
Q 14.59375 -0.390625 9.71875 4.5 
Q 5.421875 8.796875 5.421875 14.984375 
Q 5.421875 30.421875 32.03125 31.203125 
L 38.71875 31.390625 
L 38.71875 33.984375 
Q 38.71875 39.203125 35.75 42.1875 
Q 32.625 45.3125 27.734375 45.3125 
Q 19.34375 45.3125 15.140625 37.15625 
L 7.71875 40.578125 
Q 14.65625 52 27.9375 52 
Q 37.109375 52 42.046875 46.875 
Q 46.625 42.28125 46.625 33.890625 
L 46.625 15.578125 
Q 46.625 6.25 49.3125 0.984375 
z
M 38.921875 25.390625 
L 33.453125 25.296875 
Q 14.109375 24.859375 14.109375 14.890625 
Q 14.109375 11.375 16.40625 9.078125 
Q 19.234375 6.296875 23.828125 6.296875 
Q 30.21875 6.296875 34.90625 10.984375 
Q 38.921875 15.140625 38.921875 21 
z
" id="IPAexGothic-97"/>
        <path d="M 36.078125 51.8125 
L 34.578125 43.265625 
Q 32.90625 43.609375 31.59375 43.609375 
Q 25.828125 43.609375 22.078125 38.1875 
Q 17.390625 31.34375 17.390625 26.171875 
L 17.390625 0.984375 
L 8.796875 0.984375 
L 8.796875 50.78125 
L 16.890625 50.78125 
L 16.5 35.984375 
L 16.703125 35.984375 
Q 22.21875 52.203125 32.765625 52.203125 
Q 34.46875 52.203125 36.078125 51.8125 
z
" id="IPAexGothic-114"/>
       </defs>
       <use xlink:href="#IPAexGothic-77"/>
       <use x="90.185547" xlink:href="#IPAexGothic-97"/>
       <use x="145.166016" xlink:href="#IPAexGothic-114"/>
      </g>
     </g>
    </g>
    <g id="xtick_4">
     <g id="line2d_4">
      <g>
       <use style="stroke:#000000;stroke-width:0.8;" x="186.369711" xlink:href="#m60a99923b2" y="284.258625"/>
      </g>
     </g>
     <g id="text_4">
      <!-- Apr -->
      <g transform="translate(178.227523 298.74925)scale(0.1 -0.1)">
       <defs>
        <path d="M 63.375 0.984375 
L 53.8125 0.984375 
L 45.90625 22.015625 
L 17.1875 22.015625 
L 9.421875 0.984375 
L -0.09375 0.984375 
L 28.21875 72.90625 
L 35.296875 72.90625 
z
M 43.40625 29.109375 
L 36.1875 48.09375 
Q 33.203125 56.0625 31.6875 62.5 
L 31.390625 62.5 
Q 29.640625 55.671875 26.8125 48.09375 
L 19.734375 29.109375 
z
" id="IPAexGothic-65"/>
        <path d="M 16.796875 42 
Q 23.828125 52.203125 34.46875 52.203125 
Q 43.265625 52.203125 49.5625 45.90625 
Q 56.890625 38.578125 56.890625 25.6875 
Q 56.890625 13.140625 49.65625 5.8125 
Q 43.359375 -0.484375 34.375 -0.484375 
Q 24.515625 -0.484375 17.28125 7.765625 
L 17.28125 -19 
L 8.796875 -19 
L 8.796875 50.78125 
L 16.796875 50.78125 
z
M 17.28125 30.46875 
L 17.28125 20.171875 
Q 17.28125 14.015625 23.6875 9.375 
Q 27.984375 6.296875 32.90625 6.296875 
Q 38.578125 6.296875 42.578125 10.296875 
Q 47.90625 15.578125 47.90625 25.484375 
Q 47.90625 34.375 43.5 39.984375 
Q 39.109375 45.3125 32.8125 45.3125 
Q 25.875 45.3125 20.90625 38.8125 
Q 17.28125 34.125 17.28125 30.46875 
z
" id="IPAexGothic-112"/>
       </defs>
       <use xlink:href="#IPAexGothic-65"/>
       <use x="63.720703" xlink:href="#IPAexGothic-112"/>
       <use x="125.830078" xlink:href="#IPAexGothic-114"/>
      </g>
     </g>
    </g>
    <g id="xtick_5">
     <g id="line2d_5">
      <g>
       <use style="stroke:#000000;stroke-width:0.8;" x="230.440463" xlink:href="#m60a99923b2" y="284.258625"/>
      </g>
     </g>
     <g id="text_5">
      <!-- May -->
      <g transform="translate(220.720932 298.74925)scale(0.1 -0.1)">
       <defs>
        <path d="M 48.78125 50.78125 
L 24.609375 -7.625 
Q 19.96875 -18.796875 8.59375 -18.796875 
L 7.46875 -18.796875 
L 5.375 -10.984375 
L 6.984375 -10.984375 
Q 15.140625 -10.984375 17.96875 -3.71875 
L 21.1875 4.296875 
L 0.59375 50.78125 
L 10.296875 50.78125 
L 21.296875 22.796875 
Q 23.875 16.015625 25.09375 12.203125 
L 25.390625 12.203125 
Q 27.34375 18.265625 29.109375 22.796875 
L 39.5 50.78125 
z
" id="IPAexGothic-121"/>
       </defs>
       <use xlink:href="#IPAexGothic-77"/>
       <use x="90.185547" xlink:href="#IPAexGothic-97"/>
       <use x="145.166016" xlink:href="#IPAexGothic-121"/>
      </g>
     </g>
    </g>
    <g id="xtick_6">
     <g id="line2d_6">
      <g>
       <use style="stroke:#000000;stroke-width:0.8;" x="275.980241" xlink:href="#m60a99923b2" y="284.258625"/>
      </g>
     </g>
     <g id="text_6">
      <!-- Jun -->
      <g transform="translate(268.040397 298.74925)scale(0.1 -0.1)">
       <defs>
        <path d="M 28.421875 72.40625 
L 28.421875 19.28125 
Q 28.421875 -0.484375 11.921875 -0.484375 
Q 4.734375 -0.484375 -1.953125 3.265625 
L 1.3125 10.0625 
Q 5.90625 6.984375 10.84375 6.984375 
Q 19.53125 6.984375 19.53125 18.796875 
L 19.53125 72.40625 
z
" id="IPAexGothic-74"/>
        <path d="M 51.3125 0.984375 
L 43.3125 0.984375 
L 43.3125 10.0625 
Q 35.9375 0 25.390625 0 
Q 16.75 0 11.921875 5.859375 
Q 8.109375 10.59375 8.109375 19.390625 
L 8.109375 50.78125 
L 16.703125 50.78125 
L 16.703125 19.671875 
Q 16.703125 7.28125 27.09375 7.28125 
Q 37.59375 7.28125 42.71875 20.171875 
L 42.71875 50.78125 
L 51.3125 50.78125 
z
" id="IPAexGothic-117"/>
        <path d="M 52 0.984375 
L 43.40625 0.984375 
L 43.40625 31.890625 
Q 43.40625 44.578125 32.90625 44.578125 
Q 22.3125 44.578125 17.390625 31.890625 
L 17.390625 0.984375 
L 8.796875 0.984375 
L 8.796875 50.78125 
L 16.796875 50.78125 
L 16.796875 41.796875 
Q 23.828125 51.8125 34.71875 51.8125 
Q 52 51.8125 52 32.375 
z
" id="IPAexGothic-110"/>
       </defs>
       <use xlink:href="#IPAexGothic-74"/>
       <use x="37.988281" xlink:href="#IPAexGothic-117"/>
       <use x="98.388672" xlink:href="#IPAexGothic-110"/>
      </g>
     </g>
    </g>
    <g id="xtick_7">
     <g id="line2d_7">
      <g>
       <use style="stroke:#000000;stroke-width:0.8;" x="320.050994" xlink:href="#m60a99923b2" y="284.258625"/>
      </g>
     </g>
     <g id="text_7">
      <!-- Jul -->
      <g transform="translate(313.781463 298.74925)scale(0.1 -0.1)">
       <defs>
        <path d="M 17.671875 0.984375 
L 9.078125 0.984375 
L 9.078125 74.90625 
L 17.671875 74.90625 
z
" id="IPAexGothic-108"/>
       </defs>
       <use xlink:href="#IPAexGothic-74"/>
       <use x="37.988281" xlink:href="#IPAexGothic-117"/>
       <use x="98.388672" xlink:href="#IPAexGothic-108"/>
      </g>
     </g>
    </g>
    <g id="xtick_8">
     <g id="line2d_8">
      <g>
       <use style="stroke:#000000;stroke-width:0.8;" x="365.590772" xlink:href="#m60a99923b2" y="284.258625"/>
      </g>
     </g>
     <g id="text_8">
      <!-- Aug -->
      <g transform="translate(356.608741 298.691437)scale(0.1 -0.1)">
       <defs>
        <path d="M 20.796875 17.96875 
Q 15.71875 17.53125 15.71875 14.0625 
Q 15.71875 9.578125 27.546875 8.984375 
L 33.296875 8.6875 
Q 51.609375 7.765625 51.609375 -4.59375 
Q 51.609375 -10.9375 45.703125 -14.984375 
Q 39.359375 -19.578125 28.03125 -19.578125 
Q 17.78125 -19.578125 11.53125 -16.0625 
Q 5.515625 -12.640625 5.515625 -6.6875 
Q 5.515625 1.3125 16.796875 3.859375 
L 16.796875 4.203125 
Q 7.90625 6.453125 7.90625 12.15625 
Q 7.90625 17.4375 15.53125 20.265625 
Q 7.125 24.609375 7.125 34.078125 
Q 7.125 41.40625 12.015625 46.296875 
Q 17.625 51.90625 27.15625 51.90625 
Q 33.203125 51.90625 37.84375 49.265625 
Q 41.40625 53.953125 50.921875 54.109375 
L 50.921875 47.078125 
Q 44.34375 46.921875 42.234375 45.90625 
Q 47.40625 40.828125 47.40625 33.890625 
Q 47.40625 27 42.71875 22.265625 
Q 37.5 17.09375 28.328125 17.09375 
Q 24.421875 17.09375 20.796875 17.96875 
z
M 27.09375 45.609375 
Q 22.015625 45.609375 18.703125 42.28125 
Q 15.4375 39.015625 15.4375 34.078125 
Q 15.4375 29.25 18.5 26.3125 
Q 21.828125 23 27.4375 23 
Q 32.71875 23 35.890625 26.21875 
Q 39.109375 29.390625 39.109375 34.421875 
Q 39.109375 39.015625 35.890625 42.1875 
Q 32.515625 45.609375 27.09375 45.609375 
z
M 27.390625 2.484375 
Q 14.109375 2.484375 14.109375 -5.71875 
Q 14.109375 -13.671875 28.125 -13.671875 
Q 37.15625 -13.671875 41.21875 -9.46875 
Q 43.3125 -7.515625 43.3125 -4.890625 
Q 43.3125 2.484375 27.390625 2.484375 
z
" id="IPAexGothic-103"/>
       </defs>
       <use xlink:href="#IPAexGothic-65"/>
       <use x="63.720703" xlink:href="#IPAexGothic-117"/>
       <use x="124.121094" xlink:href="#IPAexGothic-103"/>
      </g>
     </g>
    </g>
    <g id="text_9">
     <!-- 2020 -->
     <g transform="translate(371.32 311.139875)scale(0.1 -0.1)">
      <use xlink:href="#IPAexGothic-50"/>
      <use x="62.988281" xlink:href="#IPAexGothic-48"/>
      <use x="125.976562" xlink:href="#IPAexGothic-50"/>
      <use x="188.964844" xlink:href="#IPAexGothic-48"/>
     </g>
    </g>
   </g>
   <g id="matplotlib.axis_2">
    <g id="ytick_1">
     <g id="line2d_9">
      <defs>
       <path d="M 0 0 
L -3.5 0 
" id="m6477e6e55d" style="stroke:#000000;stroke-width:0.8;"/>
      </defs>
      <g>
       <use style="stroke:#000000;stroke-width:0.8;" x="39.39375" xlink:href="#m6477e6e55d" y="272.162625"/>
      </g>
     </g>
     <g id="text_10">
      <!-- 0 -->
      <g transform="translate(26.095313 275.907937)scale(0.1 -0.1)">
       <use xlink:href="#IPAexGothic-48"/>
      </g>
     </g>
    </g>
    <g id="ytick_2">
     <g id="line2d_10">
      <g>
       <use style="stroke:#000000;stroke-width:0.8;" x="39.39375" xlink:href="#m6477e6e55d" y="237.661769"/>
      </g>
     </g>
     <g id="text_11">
      <!-- 250 -->
      <g transform="translate(13.498438 241.407082)scale(0.1 -0.1)">
       <defs>
        <path d="M 18.40625 40.671875 
Q 25.53125 46.296875 33.9375 46.296875 
Q 44 46.296875 50.640625 39.5 
Q 56.84375 33.015625 56.84375 23.390625 
Q 56.84375 14.65625 51.515625 8.015625 
Q 44.828125 -0.484375 31.734375 -0.484375 
Q 14.984375 -0.484375 7.328125 12.25 
L 14.65625 16.0625 
Q 20.453125 6.78125 31.453125 6.78125 
Q 38.53125 6.78125 43.265625 11.1875 
Q 48.140625 15.828125 48.140625 23.484375 
Q 48.140625 30.71875 43.84375 35.015625 
Q 39.359375 39.5 32.125 39.5 
Q 21.96875 39.5 16.75 31.6875 
L 9.234375 32.671875 
L 13.8125 72.40625 
L 53.21875 72.40625 
L 53.21875 64.890625 
L 20.953125 64.890625 
L 17.71875 40.671875 
z
" id="IPAexGothic-53"/>
       </defs>
       <use xlink:href="#IPAexGothic-50"/>
       <use x="62.988281" xlink:href="#IPAexGothic-53"/>
       <use x="125.976562" xlink:href="#IPAexGothic-48"/>
      </g>
     </g>
    </g>
    <g id="ytick_3">
     <g id="line2d_11">
      <g>
       <use style="stroke:#000000;stroke-width:0.8;" x="39.39375" xlink:href="#m6477e6e55d" y="203.160914"/>
      </g>
     </g>
     <g id="text_12">
      <!-- 500 -->
      <g transform="translate(13.498438 206.906226)scale(0.1 -0.1)">
       <use xlink:href="#IPAexGothic-53"/>
       <use x="62.988281" xlink:href="#IPAexGothic-48"/>
       <use x="125.976562" xlink:href="#IPAexGothic-48"/>
      </g>
     </g>
    </g>
    <g id="ytick_4">
     <g id="line2d_12">
      <g>
       <use style="stroke:#000000;stroke-width:0.8;" x="39.39375" xlink:href="#m6477e6e55d" y="168.660058"/>
      </g>
     </g>
     <g id="text_13">
      <!-- 750 -->
      <g transform="translate(13.498438 172.40537)scale(0.1 -0.1)">
       <defs>
        <path d="M 56.203125 66.609375 
Q 34.96875 32.90625 27.78125 0.984375 
L 17.671875 0.984375 
Q 24.703125 28.65625 46.09375 64.5 
L 6.6875 64.5 
L 6.6875 72.40625 
L 56.203125 72.40625 
z
" id="IPAexGothic-55"/>
       </defs>
       <use xlink:href="#IPAexGothic-55"/>
       <use x="62.988281" xlink:href="#IPAexGothic-53"/>
       <use x="125.976562" xlink:href="#IPAexGothic-48"/>
      </g>
     </g>
    </g>
    <g id="ytick_5">
     <g id="line2d_13">
      <g>
       <use style="stroke:#000000;stroke-width:0.8;" x="39.39375" xlink:href="#m6477e6e55d" y="134.159202"/>
      </g>
     </g>
     <g id="text_14">
      <!-- 1000 -->
      <g transform="translate(7.2 137.904515)scale(0.1 -0.1)">
       <defs>
        <path d="M 38.484375 0.984375 
L 29.6875 0.984375 
L 29.6875 64.109375 
Q 21.4375 61.28125 12.3125 59.328125 
L 10.6875 66.109375 
Q 23.734375 69.390625 32.90625 73.921875 
L 38.484375 73.921875 
z
" id="IPAexGothic-49"/>
       </defs>
       <use xlink:href="#IPAexGothic-49"/>
       <use x="62.988281" xlink:href="#IPAexGothic-48"/>
       <use x="125.976562" xlink:href="#IPAexGothic-48"/>
       <use x="188.964844" xlink:href="#IPAexGothic-48"/>
      </g>
     </g>
    </g>
    <g id="ytick_6">
     <g id="line2d_14">
      <g>
       <use style="stroke:#000000;stroke-width:0.8;" x="39.39375" xlink:href="#m6477e6e55d" y="99.658347"/>
      </g>
     </g>
     <g id="text_15">
      <!-- 1250 -->
      <g transform="translate(7.2 103.403659)scale(0.1 -0.1)">
       <use xlink:href="#IPAexGothic-49"/>
       <use x="62.988281" xlink:href="#IPAexGothic-50"/>
       <use x="125.976562" xlink:href="#IPAexGothic-53"/>
       <use x="188.964844" xlink:href="#IPAexGothic-48"/>
      </g>
     </g>
    </g>
    <g id="ytick_7">
     <g id="line2d_15">
      <g>
       <use style="stroke:#000000;stroke-width:0.8;" x="39.39375" xlink:href="#m6477e6e55d" y="65.157491"/>
      </g>
     </g>
     <g id="text_16">
      <!-- 1500 -->
      <g transform="translate(7.2 68.902803)scale(0.1 -0.1)">
       <use xlink:href="#IPAexGothic-49"/>
       <use x="62.988281" xlink:href="#IPAexGothic-53"/>
       <use x="125.976562" xlink:href="#IPAexGothic-48"/>
       <use x="188.964844" xlink:href="#IPAexGothic-48"/>
      </g>
     </g>
    </g>
    <g id="ytick_8">
     <g id="line2d_16">
      <g>
       <use style="stroke:#000000;stroke-width:0.8;" x="39.39375" xlink:href="#m6477e6e55d" y="30.656635"/>
      </g>
     </g>
     <g id="text_17">
      <!-- 1750 -->
      <g transform="translate(7.2 34.401948)scale(0.1 -0.1)">
       <use xlink:href="#IPAexGothic-49"/>
       <use x="62.988281" xlink:href="#IPAexGothic-55"/>
       <use x="125.976562" xlink:href="#IPAexGothic-53"/>
       <use x="188.964844" xlink:href="#IPAexGothic-48"/>
      </g>
     </g>
    </g>
   </g>
   <g id="line2d_17">
    <path clip-path="url(#peb1705fcc0)" d="M 55.626477 272.024622 
L 57.095502 272.162625 
L 70.316728 272.162625 
L 71.785753 271.886618 
L 73.254778 272.162625 
L 79.130879 272.162625 
L 80.599904 271.748615 
L 82.068929 272.024622 
L 83.537954 271.886618 
L 85.006979 272.024622 
L 86.476004 271.886618 
L 87.945029 271.886618 
L 89.414054 271.748615 
L 90.883079 272.162625 
L 93.82113 271.886618 
L 95.290155 272.024622 
L 96.75918 271.610611 
L 98.228205 271.748615 
L 99.69723 271.610611 
L 101.166255 271.058598 
L 104.104305 271.886618 
L 105.57333 271.334604 
L 107.042356 271.472608 
L 108.511381 271.886618 
L 109.980406 272.024622 
L 111.449431 270.920594 
L 112.918456 272.162625 
L 114.387481 271.196601 
L 115.856506 271.196601 
L 117.325531 270.920594 
L 118.794556 270.920594 
L 120.263581 270.092574 
L 121.732606 270.644587 
L 123.201632 270.230577 
L 124.670657 270.092574 
L 126.139682 269.12655 
L 127.608707 269.678563 
L 129.077732 269.402557 
L 130.546757 268.988546 
L 132.015782 268.712539 
L 133.484807 267.608512 
L 134.953832 268.022522 
L 136.422857 268.712539 
L 137.891882 267.194502 
L 139.360908 268.712539 
L 140.829933 268.436533 
L 142.298958 266.642488 
L 143.767983 268.712539 
L 145.237008 267.746515 
L 146.706033 268.160526 
L 148.175058 268.436533 
L 149.644083 266.918495 
L 151.113108 267.746515 
L 152.582133 266.090474 
L 154.051158 268.436533 
L 155.520184 266.642488 
L 156.989209 267.746515 
L 158.458234 265.952471 
L 159.927259 268.022522 
L 161.396284 267.608512 
L 162.865309 266.642488 
L 164.334334 265.12445 
L 165.803359 264.434433 
L 167.272384 262.088375 
L 168.741409 263.744416 
L 170.210434 262.088375 
L 171.67946 261.536361 
L 173.148485 257.258255 
L 174.61751 259.0523 
L 176.086535 256.568238 
L 177.55556 254.63619 
L 179.024585 242.491889 
L 180.49361 245.941975 
L 181.962635 245.803971 
L 183.43166 232.279636 
L 184.900685 232.555643 
L 186.369711 224.137434 
L 187.838736 232.555643 
L 189.307761 224.137434 
L 190.776786 231.865626 
L 192.245811 237.523766 
L 193.714836 228.41554 
L 195.183861 234.763697 
L 196.652886 233.935677 
L 198.121911 240.973851 
L 199.590936 238.48979 
L 201.059961 239.31781 
L 202.528987 245.389961 
L 203.998012 242.491889 
L 206.936062 244.423937 
L 208.405087 252.980149 
L 209.874112 251.048101 
L 211.343137 252.428136 
L 212.812162 256.292231 
L 214.281187 250.910098 
L 215.750212 257.672266 
L 217.219237 256.982249 
L 218.688263 261.812368 
L 220.157288 257.534262 
L 221.626313 262.226379 
L 223.095338 261.812368 
L 224.564363 260.570337 
L 226.033388 264.158426 
L 227.502413 265.262454 
L 228.971438 263.054399 
L 230.440463 264.71044 
L 231.909488 264.434433 
L 233.378513 267.332505 
L 234.847539 268.160526 
L 236.316564 267.470509 
L 237.785589 268.574536 
L 239.254614 268.160526 
L 240.723639 269.12655 
L 242.192664 269.678563 
L 243.661689 269.678563 
L 245.130714 269.54056 
L 246.599739 269.264553 
L 248.068764 270.230577 
L 249.537789 270.230577 
L 251.006815 269.678563 
L 252.47584 270.920594 
L 253.944865 270.230577 
L 255.41389 270.920594 
L 256.882915 269.816567 
L 258.35194 271.196601 
L 259.820965 270.644587 
L 261.28999 269.95457 
L 262.759015 270.782591 
L 264.22804 270.368581 
L 265.697066 271.334604 
L 267.166091 271.196601 
L 268.635116 270.782591 
L 270.104141 270.782591 
L 273.042191 271.610611 
L 274.511216 271.748615 
L 275.980241 270.644587 
L 278.918291 271.472608 
L 280.387316 271.334604 
L 281.856342 270.230577 
L 283.325367 270.644587 
L 284.794392 270.644587 
L 286.263417 271.058598 
L 287.732442 269.54056 
L 289.201467 270.368581 
L 290.670492 269.54056 
L 292.139517 271.196601 
L 293.608542 270.506584 
L 295.077567 270.092574 
L 296.546592 270.230577 
L 298.015618 270.920594 
L 299.484643 270.506584 
L 300.953668 269.95457 
L 302.422693 270.368581 
L 303.891718 270.230577 
L 305.360743 270.920594 
L 306.829768 267.608512 
L 308.298793 269.12655 
L 309.767818 267.608512 
L 311.236843 267.746515 
L 312.705868 268.436533 
L 314.174894 264.572437 
L 315.643919 267.746515 
L 317.112944 266.090474 
L 318.581969 265.262454 
L 320.050994 263.606413 
L 321.520019 264.572437 
L 324.458069 261.950372 
L 325.927094 261.536361 
L 327.396119 257.396259 
L 328.865144 257.810269 
L 330.33417 256.706242 
L 331.803195 253.532163 
L 333.27222 254.360183 
L 334.741245 252.014125 
L 336.21027 251.600115 
L 337.679295 242.629893 
L 339.14832 240.007828 
L 340.617345 238.213783 
L 342.08637 238.07578 
L 343.555395 232.141632 
L 345.024421 229.381564 
L 346.493446 231.037605 
L 347.962471 216.133235 
L 349.431496 213.235164 
L 350.900521 206.749003 
L 352.369546 202.332893 
L 353.838571 204.954958 
L 355.307596 203.298917 
L 356.776621 198.744804 
L 358.245646 176.526253 
L 359.714671 180.942363 
L 361.183697 177.492277 
L 362.652722 193.776681 
L 364.121747 196.812756 
L 365.590772 196.398746 
L 367.059797 207.991033 
L 368.528822 211.165112 
L 371.466872 229.519567 
L 372.935897 236.971752 
L 374.404922 257.120252 
L 375.873947 263.468409 
L 377.342973 268.712539 
L 378.811998 271.886618 
L 380.281023 272.162625 
L 380.281023 272.162625 
" style="fill:none;stroke:#1f77b4;stroke-linecap:square;stroke-width:1.5;"/>
    <defs>
     <path d="M 0 3 
C 0.795609 3 1.55874 2.683901 2.12132 2.12132 
C 2.683901 1.55874 3 0.795609 3 0 
C 3 -0.795609 2.683901 -1.55874 2.12132 -2.12132 
C 1.55874 -2.683901 0.795609 -3 0 -3 
C -0.795609 -3 -1.55874 -2.683901 -2.12132 -2.12132 
C -2.683901 -1.55874 -3 -0.795609 -3 0 
C -3 0.795609 -2.683901 1.55874 -2.12132 2.12132 
C -1.55874 2.683901 -0.795609 3 0 3 
z
" id="mbac519582b" style="stroke:#1f77b4;"/>
    </defs>
    <g clip-path="url(#peb1705fcc0)">
     <use style="fill:#1f77b4;stroke:#1f77b4;" x="55.626477" xlink:href="#mbac519582b" y="272.024622"/>
     <use style="fill:#1f77b4;stroke:#1f77b4;" x="57.095502" xlink:href="#mbac519582b" y="272.162625"/>
     <use style="fill:#1f77b4;stroke:#1f77b4;" x="58.564527" xlink:href="#mbac519582b" y="272.162625"/>
     <use style="fill:#1f77b4;stroke:#1f77b4;" x="60.033553" xlink:href="#mbac519582b" y="272.162625"/>
     <use style="fill:#1f77b4;stroke:#1f77b4;" x="61.502578" xlink:href="#mbac519582b" y="272.162625"/>
     <use style="fill:#1f77b4;stroke:#1f77b4;" x="62.971603" xlink:href="#mbac519582b" y="272.162625"/>
     <use style="fill:#1f77b4;stroke:#1f77b4;" x="64.440628" xlink:href="#mbac519582b" y="272.162625"/>
     <use style="fill:#1f77b4;stroke:#1f77b4;" x="65.909653" xlink:href="#mbac519582b" y="272.162625"/>
     <use style="fill:#1f77b4;stroke:#1f77b4;" x="67.378678" xlink:href="#mbac519582b" y="272.162625"/>
     <use style="fill:#1f77b4;stroke:#1f77b4;" x="68.847703" xlink:href="#mbac519582b" y="272.162625"/>
     <use style="fill:#1f77b4;stroke:#1f77b4;" x="70.316728" xlink:href="#mbac519582b" y="272.162625"/>
     <use style="fill:#1f77b4;stroke:#1f77b4;" x="71.785753" xlink:href="#mbac519582b" y="271.886618"/>
     <use style="fill:#1f77b4;stroke:#1f77b4;" x="73.254778" xlink:href="#mbac519582b" y="272.162625"/>
     <use style="fill:#1f77b4;stroke:#1f77b4;" x="74.723803" xlink:href="#mbac519582b" y="272.162625"/>
     <use style="fill:#1f77b4;stroke:#1f77b4;" x="76.192829" xlink:href="#mbac519582b" y="272.162625"/>
     <use style="fill:#1f77b4;stroke:#1f77b4;" x="77.661854" xlink:href="#mbac519582b" y="272.162625"/>
     <use style="fill:#1f77b4;stroke:#1f77b4;" x="79.130879" xlink:href="#mbac519582b" y="272.162625"/>
     <use style="fill:#1f77b4;stroke:#1f77b4;" x="80.599904" xlink:href="#mbac519582b" y="271.748615"/>
     <use style="fill:#1f77b4;stroke:#1f77b4;" x="82.068929" xlink:href="#mbac519582b" y="272.024622"/>
     <use style="fill:#1f77b4;stroke:#1f77b4;" x="83.537954" xlink:href="#mbac519582b" y="271.886618"/>
     <use style="fill:#1f77b4;stroke:#1f77b4;" x="85.006979" xlink:href="#mbac519582b" y="272.024622"/>
     <use style="fill:#1f77b4;stroke:#1f77b4;" x="86.476004" xlink:href="#mbac519582b" y="271.886618"/>
     <use style="fill:#1f77b4;stroke:#1f77b4;" x="87.945029" xlink:href="#mbac519582b" y="271.886618"/>
     <use style="fill:#1f77b4;stroke:#1f77b4;" x="89.414054" xlink:href="#mbac519582b" y="271.748615"/>
     <use style="fill:#1f77b4;stroke:#1f77b4;" x="90.883079" xlink:href="#mbac519582b" y="272.162625"/>
     <use style="fill:#1f77b4;stroke:#1f77b4;" x="92.352105" xlink:href="#mbac519582b" y="272.024622"/>
     <use style="fill:#1f77b4;stroke:#1f77b4;" x="93.82113" xlink:href="#mbac519582b" y="271.886618"/>
     <use style="fill:#1f77b4;stroke:#1f77b4;" x="95.290155" xlink:href="#mbac519582b" y="272.024622"/>
     <use style="fill:#1f77b4;stroke:#1f77b4;" x="96.75918" xlink:href="#mbac519582b" y="271.610611"/>
     <use style="fill:#1f77b4;stroke:#1f77b4;" x="98.228205" xlink:href="#mbac519582b" y="271.748615"/>
     <use style="fill:#1f77b4;stroke:#1f77b4;" x="99.69723" xlink:href="#mbac519582b" y="271.610611"/>
     <use style="fill:#1f77b4;stroke:#1f77b4;" x="101.166255" xlink:href="#mbac519582b" y="271.058598"/>
     <use style="fill:#1f77b4;stroke:#1f77b4;" x="102.63528" xlink:href="#mbac519582b" y="271.472608"/>
     <use style="fill:#1f77b4;stroke:#1f77b4;" x="104.104305" xlink:href="#mbac519582b" y="271.886618"/>
     <use style="fill:#1f77b4;stroke:#1f77b4;" x="105.57333" xlink:href="#mbac519582b" y="271.334604"/>
     <use style="fill:#1f77b4;stroke:#1f77b4;" x="107.042356" xlink:href="#mbac519582b" y="271.472608"/>
     <use style="fill:#1f77b4;stroke:#1f77b4;" x="108.511381" xlink:href="#mbac519582b" y="271.886618"/>
     <use style="fill:#1f77b4;stroke:#1f77b4;" x="109.980406" xlink:href="#mbac519582b" y="272.024622"/>
     <use style="fill:#1f77b4;stroke:#1f77b4;" x="111.449431" xlink:href="#mbac519582b" y="270.920594"/>
     <use style="fill:#1f77b4;stroke:#1f77b4;" x="112.918456" xlink:href="#mbac519582b" y="272.162625"/>
     <use style="fill:#1f77b4;stroke:#1f77b4;" x="114.387481" xlink:href="#mbac519582b" y="271.196601"/>
     <use style="fill:#1f77b4;stroke:#1f77b4;" x="115.856506" xlink:href="#mbac519582b" y="271.196601"/>
     <use style="fill:#1f77b4;stroke:#1f77b4;" x="117.325531" xlink:href="#mbac519582b" y="270.920594"/>
     <use style="fill:#1f77b4;stroke:#1f77b4;" x="118.794556" xlink:href="#mbac519582b" y="270.920594"/>
     <use style="fill:#1f77b4;stroke:#1f77b4;" x="120.263581" xlink:href="#mbac519582b" y="270.092574"/>
     <use style="fill:#1f77b4;stroke:#1f77b4;" x="121.732606" xlink:href="#mbac519582b" y="270.644587"/>
     <use style="fill:#1f77b4;stroke:#1f77b4;" x="123.201632" xlink:href="#mbac519582b" y="270.230577"/>
     <use style="fill:#1f77b4;stroke:#1f77b4;" x="124.670657" xlink:href="#mbac519582b" y="270.092574"/>
     <use style="fill:#1f77b4;stroke:#1f77b4;" x="126.139682" xlink:href="#mbac519582b" y="269.12655"/>
     <use style="fill:#1f77b4;stroke:#1f77b4;" x="127.608707" xlink:href="#mbac519582b" y="269.678563"/>
     <use style="fill:#1f77b4;stroke:#1f77b4;" x="129.077732" xlink:href="#mbac519582b" y="269.402557"/>
     <use style="fill:#1f77b4;stroke:#1f77b4;" x="130.546757" xlink:href="#mbac519582b" y="268.988546"/>
     <use style="fill:#1f77b4;stroke:#1f77b4;" x="132.015782" xlink:href="#mbac519582b" y="268.712539"/>
     <use style="fill:#1f77b4;stroke:#1f77b4;" x="133.484807" xlink:href="#mbac519582b" y="267.608512"/>
     <use style="fill:#1f77b4;stroke:#1f77b4;" x="134.953832" xlink:href="#mbac519582b" y="268.022522"/>
     <use style="fill:#1f77b4;stroke:#1f77b4;" x="136.422857" xlink:href="#mbac519582b" y="268.712539"/>
     <use style="fill:#1f77b4;stroke:#1f77b4;" x="137.891882" xlink:href="#mbac519582b" y="267.194502"/>
     <use style="fill:#1f77b4;stroke:#1f77b4;" x="139.360908" xlink:href="#mbac519582b" y="268.712539"/>
     <use style="fill:#1f77b4;stroke:#1f77b4;" x="140.829933" xlink:href="#mbac519582b" y="268.436533"/>
     <use style="fill:#1f77b4;stroke:#1f77b4;" x="142.298958" xlink:href="#mbac519582b" y="266.642488"/>
     <use style="fill:#1f77b4;stroke:#1f77b4;" x="143.767983" xlink:href="#mbac519582b" y="268.712539"/>
     <use style="fill:#1f77b4;stroke:#1f77b4;" x="145.237008" xlink:href="#mbac519582b" y="267.746515"/>
     <use style="fill:#1f77b4;stroke:#1f77b4;" x="146.706033" xlink:href="#mbac519582b" y="268.160526"/>
     <use style="fill:#1f77b4;stroke:#1f77b4;" x="148.175058" xlink:href="#mbac519582b" y="268.436533"/>
     <use style="fill:#1f77b4;stroke:#1f77b4;" x="149.644083" xlink:href="#mbac519582b" y="266.918495"/>
     <use style="fill:#1f77b4;stroke:#1f77b4;" x="151.113108" xlink:href="#mbac519582b" y="267.746515"/>
     <use style="fill:#1f77b4;stroke:#1f77b4;" x="152.582133" xlink:href="#mbac519582b" y="266.090474"/>
     <use style="fill:#1f77b4;stroke:#1f77b4;" x="154.051158" xlink:href="#mbac519582b" y="268.436533"/>
     <use style="fill:#1f77b4;stroke:#1f77b4;" x="155.520184" xlink:href="#mbac519582b" y="266.642488"/>
     <use style="fill:#1f77b4;stroke:#1f77b4;" x="156.989209" xlink:href="#mbac519582b" y="267.746515"/>
     <use style="fill:#1f77b4;stroke:#1f77b4;" x="158.458234" xlink:href="#mbac519582b" y="265.952471"/>
     <use style="fill:#1f77b4;stroke:#1f77b4;" x="159.927259" xlink:href="#mbac519582b" y="268.022522"/>
     <use style="fill:#1f77b4;stroke:#1f77b4;" x="161.396284" xlink:href="#mbac519582b" y="267.608512"/>
     <use style="fill:#1f77b4;stroke:#1f77b4;" x="162.865309" xlink:href="#mbac519582b" y="266.642488"/>
     <use style="fill:#1f77b4;stroke:#1f77b4;" x="164.334334" xlink:href="#mbac519582b" y="265.12445"/>
     <use style="fill:#1f77b4;stroke:#1f77b4;" x="165.803359" xlink:href="#mbac519582b" y="264.434433"/>
     <use style="fill:#1f77b4;stroke:#1f77b4;" x="167.272384" xlink:href="#mbac519582b" y="262.088375"/>
     <use style="fill:#1f77b4;stroke:#1f77b4;" x="168.741409" xlink:href="#mbac519582b" y="263.744416"/>
     <use style="fill:#1f77b4;stroke:#1f77b4;" x="170.210434" xlink:href="#mbac519582b" y="262.088375"/>
     <use style="fill:#1f77b4;stroke:#1f77b4;" x="171.67946" xlink:href="#mbac519582b" y="261.536361"/>
     <use style="fill:#1f77b4;stroke:#1f77b4;" x="173.148485" xlink:href="#mbac519582b" y="257.258255"/>
     <use style="fill:#1f77b4;stroke:#1f77b4;" x="174.61751" xlink:href="#mbac519582b" y="259.0523"/>
     <use style="fill:#1f77b4;stroke:#1f77b4;" x="176.086535" xlink:href="#mbac519582b" y="256.568238"/>
     <use style="fill:#1f77b4;stroke:#1f77b4;" x="177.55556" xlink:href="#mbac519582b" y="254.63619"/>
     <use style="fill:#1f77b4;stroke:#1f77b4;" x="179.024585" xlink:href="#mbac519582b" y="242.491889"/>
     <use style="fill:#1f77b4;stroke:#1f77b4;" x="180.49361" xlink:href="#mbac519582b" y="245.941975"/>
     <use style="fill:#1f77b4;stroke:#1f77b4;" x="181.962635" xlink:href="#mbac519582b" y="245.803971"/>
     <use style="fill:#1f77b4;stroke:#1f77b4;" x="183.43166" xlink:href="#mbac519582b" y="232.279636"/>
     <use style="fill:#1f77b4;stroke:#1f77b4;" x="184.900685" xlink:href="#mbac519582b" y="232.555643"/>
     <use style="fill:#1f77b4;stroke:#1f77b4;" x="186.369711" xlink:href="#mbac519582b" y="224.137434"/>
     <use style="fill:#1f77b4;stroke:#1f77b4;" x="187.838736" xlink:href="#mbac519582b" y="232.555643"/>
     <use style="fill:#1f77b4;stroke:#1f77b4;" x="189.307761" xlink:href="#mbac519582b" y="224.137434"/>
     <use style="fill:#1f77b4;stroke:#1f77b4;" x="190.776786" xlink:href="#mbac519582b" y="231.865626"/>
     <use style="fill:#1f77b4;stroke:#1f77b4;" x="192.245811" xlink:href="#mbac519582b" y="237.523766"/>
     <use style="fill:#1f77b4;stroke:#1f77b4;" x="193.714836" xlink:href="#mbac519582b" y="228.41554"/>
     <use style="fill:#1f77b4;stroke:#1f77b4;" x="195.183861" xlink:href="#mbac519582b" y="234.763697"/>
     <use style="fill:#1f77b4;stroke:#1f77b4;" x="196.652886" xlink:href="#mbac519582b" y="233.935677"/>
     <use style="fill:#1f77b4;stroke:#1f77b4;" x="198.121911" xlink:href="#mbac519582b" y="240.973851"/>
     <use style="fill:#1f77b4;stroke:#1f77b4;" x="199.590936" xlink:href="#mbac519582b" y="238.48979"/>
     <use style="fill:#1f77b4;stroke:#1f77b4;" x="201.059961" xlink:href="#mbac519582b" y="239.31781"/>
     <use style="fill:#1f77b4;stroke:#1f77b4;" x="202.528987" xlink:href="#mbac519582b" y="245.389961"/>
     <use style="fill:#1f77b4;stroke:#1f77b4;" x="203.998012" xlink:href="#mbac519582b" y="242.491889"/>
     <use style="fill:#1f77b4;stroke:#1f77b4;" x="205.467037" xlink:href="#mbac519582b" y="243.457913"/>
     <use style="fill:#1f77b4;stroke:#1f77b4;" x="206.936062" xlink:href="#mbac519582b" y="244.423937"/>
     <use style="fill:#1f77b4;stroke:#1f77b4;" x="208.405087" xlink:href="#mbac519582b" y="252.980149"/>
     <use style="fill:#1f77b4;stroke:#1f77b4;" x="209.874112" xlink:href="#mbac519582b" y="251.048101"/>
     <use style="fill:#1f77b4;stroke:#1f77b4;" x="211.343137" xlink:href="#mbac519582b" y="252.428136"/>
     <use style="fill:#1f77b4;stroke:#1f77b4;" x="212.812162" xlink:href="#mbac519582b" y="256.292231"/>
     <use style="fill:#1f77b4;stroke:#1f77b4;" x="214.281187" xlink:href="#mbac519582b" y="250.910098"/>
     <use style="fill:#1f77b4;stroke:#1f77b4;" x="215.750212" xlink:href="#mbac519582b" y="257.672266"/>
     <use style="fill:#1f77b4;stroke:#1f77b4;" x="217.219237" xlink:href="#mbac519582b" y="256.982249"/>
     <use style="fill:#1f77b4;stroke:#1f77b4;" x="218.688263" xlink:href="#mbac519582b" y="261.812368"/>
     <use style="fill:#1f77b4;stroke:#1f77b4;" x="220.157288" xlink:href="#mbac519582b" y="257.534262"/>
     <use style="fill:#1f77b4;stroke:#1f77b4;" x="221.626313" xlink:href="#mbac519582b" y="262.226379"/>
     <use style="fill:#1f77b4;stroke:#1f77b4;" x="223.095338" xlink:href="#mbac519582b" y="261.812368"/>
     <use style="fill:#1f77b4;stroke:#1f77b4;" x="224.564363" xlink:href="#mbac519582b" y="260.570337"/>
     <use style="fill:#1f77b4;stroke:#1f77b4;" x="226.033388" xlink:href="#mbac519582b" y="264.158426"/>
     <use style="fill:#1f77b4;stroke:#1f77b4;" x="227.502413" xlink:href="#mbac519582b" y="265.262454"/>
     <use style="fill:#1f77b4;stroke:#1f77b4;" x="228.971438" xlink:href="#mbac519582b" y="263.054399"/>
     <use style="fill:#1f77b4;stroke:#1f77b4;" x="230.440463" xlink:href="#mbac519582b" y="264.71044"/>
     <use style="fill:#1f77b4;stroke:#1f77b4;" x="231.909488" xlink:href="#mbac519582b" y="264.434433"/>
     <use style="fill:#1f77b4;stroke:#1f77b4;" x="233.378513" xlink:href="#mbac519582b" y="267.332505"/>
     <use style="fill:#1f77b4;stroke:#1f77b4;" x="234.847539" xlink:href="#mbac519582b" y="268.160526"/>
     <use style="fill:#1f77b4;stroke:#1f77b4;" x="236.316564" xlink:href="#mbac519582b" y="267.470509"/>
     <use style="fill:#1f77b4;stroke:#1f77b4;" x="237.785589" xlink:href="#mbac519582b" y="268.574536"/>
     <use style="fill:#1f77b4;stroke:#1f77b4;" x="239.254614" xlink:href="#mbac519582b" y="268.160526"/>
     <use style="fill:#1f77b4;stroke:#1f77b4;" x="240.723639" xlink:href="#mbac519582b" y="269.12655"/>
     <use style="fill:#1f77b4;stroke:#1f77b4;" x="242.192664" xlink:href="#mbac519582b" y="269.678563"/>
     <use style="fill:#1f77b4;stroke:#1f77b4;" x="243.661689" xlink:href="#mbac519582b" y="269.678563"/>
     <use style="fill:#1f77b4;stroke:#1f77b4;" x="245.130714" xlink:href="#mbac519582b" y="269.54056"/>
     <use style="fill:#1f77b4;stroke:#1f77b4;" x="246.599739" xlink:href="#mbac519582b" y="269.264553"/>
     <use style="fill:#1f77b4;stroke:#1f77b4;" x="248.068764" xlink:href="#mbac519582b" y="270.230577"/>
     <use style="fill:#1f77b4;stroke:#1f77b4;" x="249.537789" xlink:href="#mbac519582b" y="270.230577"/>
     <use style="fill:#1f77b4;stroke:#1f77b4;" x="251.006815" xlink:href="#mbac519582b" y="269.678563"/>
     <use style="fill:#1f77b4;stroke:#1f77b4;" x="252.47584" xlink:href="#mbac519582b" y="270.920594"/>
     <use style="fill:#1f77b4;stroke:#1f77b4;" x="253.944865" xlink:href="#mbac519582b" y="270.230577"/>
     <use style="fill:#1f77b4;stroke:#1f77b4;" x="255.41389" xlink:href="#mbac519582b" y="270.920594"/>
     <use style="fill:#1f77b4;stroke:#1f77b4;" x="256.882915" xlink:href="#mbac519582b" y="269.816567"/>
     <use style="fill:#1f77b4;stroke:#1f77b4;" x="258.35194" xlink:href="#mbac519582b" y="271.196601"/>
     <use style="fill:#1f77b4;stroke:#1f77b4;" x="259.820965" xlink:href="#mbac519582b" y="270.644587"/>
     <use style="fill:#1f77b4;stroke:#1f77b4;" x="261.28999" xlink:href="#mbac519582b" y="269.95457"/>
     <use style="fill:#1f77b4;stroke:#1f77b4;" x="262.759015" xlink:href="#mbac519582b" y="270.782591"/>
     <use style="fill:#1f77b4;stroke:#1f77b4;" x="264.22804" xlink:href="#mbac519582b" y="270.368581"/>
     <use style="fill:#1f77b4;stroke:#1f77b4;" x="265.697066" xlink:href="#mbac519582b" y="271.334604"/>
     <use style="fill:#1f77b4;stroke:#1f77b4;" x="267.166091" xlink:href="#mbac519582b" y="271.196601"/>
     <use style="fill:#1f77b4;stroke:#1f77b4;" x="268.635116" xlink:href="#mbac519582b" y="270.782591"/>
     <use style="fill:#1f77b4;stroke:#1f77b4;" x="270.104141" xlink:href="#mbac519582b" y="270.782591"/>
     <use style="fill:#1f77b4;stroke:#1f77b4;" x="271.573166" xlink:href="#mbac519582b" y="271.196601"/>
     <use style="fill:#1f77b4;stroke:#1f77b4;" x="273.042191" xlink:href="#mbac519582b" y="271.610611"/>
     <use style="fill:#1f77b4;stroke:#1f77b4;" x="274.511216" xlink:href="#mbac519582b" y="271.748615"/>
     <use style="fill:#1f77b4;stroke:#1f77b4;" x="275.980241" xlink:href="#mbac519582b" y="270.644587"/>
     <use style="fill:#1f77b4;stroke:#1f77b4;" x="277.449266" xlink:href="#mbac519582b" y="271.058598"/>
     <use style="fill:#1f77b4;stroke:#1f77b4;" x="278.918291" xlink:href="#mbac519582b" y="271.472608"/>
     <use style="fill:#1f77b4;stroke:#1f77b4;" x="280.387316" xlink:href="#mbac519582b" y="271.334604"/>
     <use style="fill:#1f77b4;stroke:#1f77b4;" x="281.856342" xlink:href="#mbac519582b" y="270.230577"/>
     <use style="fill:#1f77b4;stroke:#1f77b4;" x="283.325367" xlink:href="#mbac519582b" y="270.644587"/>
     <use style="fill:#1f77b4;stroke:#1f77b4;" x="284.794392" xlink:href="#mbac519582b" y="270.644587"/>
     <use style="fill:#1f77b4;stroke:#1f77b4;" x="286.263417" xlink:href="#mbac519582b" y="271.058598"/>
     <use style="fill:#1f77b4;stroke:#1f77b4;" x="287.732442" xlink:href="#mbac519582b" y="269.54056"/>
     <use style="fill:#1f77b4;stroke:#1f77b4;" x="289.201467" xlink:href="#mbac519582b" y="270.368581"/>
     <use style="fill:#1f77b4;stroke:#1f77b4;" x="290.670492" xlink:href="#mbac519582b" y="269.54056"/>
     <use style="fill:#1f77b4;stroke:#1f77b4;" x="292.139517" xlink:href="#mbac519582b" y="271.196601"/>
     <use style="fill:#1f77b4;stroke:#1f77b4;" x="293.608542" xlink:href="#mbac519582b" y="270.506584"/>
     <use style="fill:#1f77b4;stroke:#1f77b4;" x="295.077567" xlink:href="#mbac519582b" y="270.092574"/>
     <use style="fill:#1f77b4;stroke:#1f77b4;" x="296.546592" xlink:href="#mbac519582b" y="270.230577"/>
     <use style="fill:#1f77b4;stroke:#1f77b4;" x="298.015618" xlink:href="#mbac519582b" y="270.920594"/>
     <use style="fill:#1f77b4;stroke:#1f77b4;" x="299.484643" xlink:href="#mbac519582b" y="270.506584"/>
     <use style="fill:#1f77b4;stroke:#1f77b4;" x="300.953668" xlink:href="#mbac519582b" y="269.95457"/>
     <use style="fill:#1f77b4;stroke:#1f77b4;" x="302.422693" xlink:href="#mbac519582b" y="270.368581"/>
     <use style="fill:#1f77b4;stroke:#1f77b4;" x="303.891718" xlink:href="#mbac519582b" y="270.230577"/>
     <use style="fill:#1f77b4;stroke:#1f77b4;" x="305.360743" xlink:href="#mbac519582b" y="270.920594"/>
     <use style="fill:#1f77b4;stroke:#1f77b4;" x="306.829768" xlink:href="#mbac519582b" y="267.608512"/>
     <use style="fill:#1f77b4;stroke:#1f77b4;" x="308.298793" xlink:href="#mbac519582b" y="269.12655"/>
     <use style="fill:#1f77b4;stroke:#1f77b4;" x="309.767818" xlink:href="#mbac519582b" y="267.608512"/>
     <use style="fill:#1f77b4;stroke:#1f77b4;" x="311.236843" xlink:href="#mbac519582b" y="267.746515"/>
     <use style="fill:#1f77b4;stroke:#1f77b4;" x="312.705868" xlink:href="#mbac519582b" y="268.436533"/>
     <use style="fill:#1f77b4;stroke:#1f77b4;" x="314.174894" xlink:href="#mbac519582b" y="264.572437"/>
     <use style="fill:#1f77b4;stroke:#1f77b4;" x="315.643919" xlink:href="#mbac519582b" y="267.746515"/>
     <use style="fill:#1f77b4;stroke:#1f77b4;" x="317.112944" xlink:href="#mbac519582b" y="266.090474"/>
     <use style="fill:#1f77b4;stroke:#1f77b4;" x="318.581969" xlink:href="#mbac519582b" y="265.262454"/>
     <use style="fill:#1f77b4;stroke:#1f77b4;" x="320.050994" xlink:href="#mbac519582b" y="263.606413"/>
     <use style="fill:#1f77b4;stroke:#1f77b4;" x="321.520019" xlink:href="#mbac519582b" y="264.572437"/>
     <use style="fill:#1f77b4;stroke:#1f77b4;" x="322.989044" xlink:href="#mbac519582b" y="263.192403"/>
     <use style="fill:#1f77b4;stroke:#1f77b4;" x="324.458069" xlink:href="#mbac519582b" y="261.950372"/>
     <use style="fill:#1f77b4;stroke:#1f77b4;" x="325.927094" xlink:href="#mbac519582b" y="261.536361"/>
     <use style="fill:#1f77b4;stroke:#1f77b4;" x="327.396119" xlink:href="#mbac519582b" y="257.396259"/>
     <use style="fill:#1f77b4;stroke:#1f77b4;" x="328.865144" xlink:href="#mbac519582b" y="257.810269"/>
     <use style="fill:#1f77b4;stroke:#1f77b4;" x="330.33417" xlink:href="#mbac519582b" y="256.706242"/>
     <use style="fill:#1f77b4;stroke:#1f77b4;" x="331.803195" xlink:href="#mbac519582b" y="253.532163"/>
     <use style="fill:#1f77b4;stroke:#1f77b4;" x="333.27222" xlink:href="#mbac519582b" y="254.360183"/>
     <use style="fill:#1f77b4;stroke:#1f77b4;" x="334.741245" xlink:href="#mbac519582b" y="252.014125"/>
     <use style="fill:#1f77b4;stroke:#1f77b4;" x="336.21027" xlink:href="#mbac519582b" y="251.600115"/>
     <use style="fill:#1f77b4;stroke:#1f77b4;" x="337.679295" xlink:href="#mbac519582b" y="242.629893"/>
     <use style="fill:#1f77b4;stroke:#1f77b4;" x="339.14832" xlink:href="#mbac519582b" y="240.007828"/>
     <use style="fill:#1f77b4;stroke:#1f77b4;" x="340.617345" xlink:href="#mbac519582b" y="238.213783"/>
     <use style="fill:#1f77b4;stroke:#1f77b4;" x="342.08637" xlink:href="#mbac519582b" y="238.07578"/>
     <use style="fill:#1f77b4;stroke:#1f77b4;" x="343.555395" xlink:href="#mbac519582b" y="232.141632"/>
     <use style="fill:#1f77b4;stroke:#1f77b4;" x="345.024421" xlink:href="#mbac519582b" y="229.381564"/>
     <use style="fill:#1f77b4;stroke:#1f77b4;" x="346.493446" xlink:href="#mbac519582b" y="231.037605"/>
     <use style="fill:#1f77b4;stroke:#1f77b4;" x="347.962471" xlink:href="#mbac519582b" y="216.133235"/>
     <use style="fill:#1f77b4;stroke:#1f77b4;" x="349.431496" xlink:href="#mbac519582b" y="213.235164"/>
     <use style="fill:#1f77b4;stroke:#1f77b4;" x="350.900521" xlink:href="#mbac519582b" y="206.749003"/>
     <use style="fill:#1f77b4;stroke:#1f77b4;" x="352.369546" xlink:href="#mbac519582b" y="202.332893"/>
     <use style="fill:#1f77b4;stroke:#1f77b4;" x="353.838571" xlink:href="#mbac519582b" y="204.954958"/>
     <use style="fill:#1f77b4;stroke:#1f77b4;" x="355.307596" xlink:href="#mbac519582b" y="203.298917"/>
     <use style="fill:#1f77b4;stroke:#1f77b4;" x="356.776621" xlink:href="#mbac519582b" y="198.744804"/>
     <use style="fill:#1f77b4;stroke:#1f77b4;" x="358.245646" xlink:href="#mbac519582b" y="176.526253"/>
     <use style="fill:#1f77b4;stroke:#1f77b4;" x="359.714671" xlink:href="#mbac519582b" y="180.942363"/>
     <use style="fill:#1f77b4;stroke:#1f77b4;" x="361.183697" xlink:href="#mbac519582b" y="177.492277"/>
     <use style="fill:#1f77b4;stroke:#1f77b4;" x="362.652722" xlink:href="#mbac519582b" y="193.776681"/>
     <use style="fill:#1f77b4;stroke:#1f77b4;" x="364.121747" xlink:href="#mbac519582b" y="196.812756"/>
     <use style="fill:#1f77b4;stroke:#1f77b4;" x="365.590772" xlink:href="#mbac519582b" y="196.398746"/>
     <use style="fill:#1f77b4;stroke:#1f77b4;" x="367.059797" xlink:href="#mbac519582b" y="207.991033"/>
     <use style="fill:#1f77b4;stroke:#1f77b4;" x="368.528822" xlink:href="#mbac519582b" y="211.165112"/>
     <use style="fill:#1f77b4;stroke:#1f77b4;" x="369.997847" xlink:href="#mbac519582b" y="220.687348"/>
     <use style="fill:#1f77b4;stroke:#1f77b4;" x="371.466872" xlink:href="#mbac519582b" y="229.519567"/>
     <use style="fill:#1f77b4;stroke:#1f77b4;" x="372.935897" xlink:href="#mbac519582b" y="236.971752"/>
     <use style="fill:#1f77b4;stroke:#1f77b4;" x="374.404922" xlink:href="#mbac519582b" y="257.120252"/>
     <use style="fill:#1f77b4;stroke:#1f77b4;" x="375.873947" xlink:href="#mbac519582b" y="263.468409"/>
     <use style="fill:#1f77b4;stroke:#1f77b4;" x="377.342973" xlink:href="#mbac519582b" y="268.712539"/>
     <use style="fill:#1f77b4;stroke:#1f77b4;" x="378.811998" xlink:href="#mbac519582b" y="271.886618"/>
     <use style="fill:#1f77b4;stroke:#1f77b4;" x="380.281023" xlink:href="#mbac519582b" y="272.162625"/>
    </g>
   </g>
   <g id="line2d_18">
    <path clip-path="url(#peb1705fcc0)" d="M 55.626477 272.162625 
L 71.785753 272.162625 
L 73.254778 272.024622 
L 74.723803 272.162625 
L 85.006979 272.162625 
L 86.476004 272.024622 
L 89.414054 272.024622 
L 90.883079 272.162625 
L 92.352105 271.748615 
L 93.82113 272.024622 
L 95.290155 271.334604 
L 96.75918 271.886618 
L 98.228205 271.748615 
L 99.69723 272.162625 
L 101.166255 272.162625 
L 102.63528 271.610611 
L 105.57333 272.162625 
L 107.042356 272.024622 
L 108.511381 272.162625 
L 109.980406 272.162625 
L 111.449431 271.886618 
L 114.387481 272.162625 
L 118.794556 270.506584 
L 120.263581 271.334604 
L 121.732606 271.196601 
L 123.201632 270.782591 
L 124.670657 270.920594 
L 126.139682 270.920594 
L 129.077732 268.574536 
L 130.546757 270.782591 
L 132.015782 270.506584 
L 133.484807 270.092574 
L 134.953832 269.816567 
L 136.422857 268.712539 
L 137.891882 269.402557 
L 139.360908 271.058598 
L 140.829933 270.230577 
L 143.767983 269.402557 
L 145.237008 267.194502 
L 146.706033 267.194502 
L 148.175058 264.29643 
L 149.644083 266.918495 
L 151.113108 267.056498 
L 152.582133 268.574536 
L 154.051158 262.640389 
L 156.989209 265.952471 
L 158.458234 266.504485 
L 159.927259 264.71044 
L 161.396284 268.022522 
L 162.865309 269.54056 
L 164.334334 265.814468 
L 165.803359 266.090474 
L 167.272384 265.814468 
L 168.741409 265.952471 
L 170.210434 266.228478 
L 171.67946 266.228478 
L 173.148485 266.918495 
L 174.61751 261.122351 
L 176.086535 259.46631 
L 177.55556 258.500286 
L 179.024585 254.774194 
L 180.49361 243.73392 
L 181.962635 250.220081 
L 183.43166 251.600115 
L 184.900685 239.593817 
L 186.369711 233.65967 
L 187.838736 231.727622 
L 189.307761 224.275437 
L 190.776786 218.203287 
L 192.245811 230.347588 
L 193.714836 235.867725 
L 195.183861 206.196989 
L 196.652886 206.058986 
L 198.121911 183.564428 
L 199.590936 184.116441 
L 201.059961 176.250246 
L 202.528987 208.819054 
L 203.998012 228.967554 
L 205.467037 200.124838 
L 206.936062 191.568626 
L 208.405087 198.744804 
L 209.874112 194.328695 
L 211.343137 194.052688 
L 212.812162 226.345489 
L 214.281187 222.205386 
L 215.750212 215.305215 
L 217.219237 211.441119 
L 218.688263 213.373167 
L 220.157288 211.165112 
L 221.626313 221.929379 
L 223.095338 243.595917 
L 224.564363 248.288033 
L 226.033388 231.865626 
L 227.502413 242.077879 
L 228.971438 247.046002 
L 230.440463 232.417639 
L 231.909488 230.485591 
L 233.378513 246.493988 
L 236.316564 256.154228 
L 237.785589 259.0523 
L 239.254614 259.742317 
L 240.723639 258.500286 
L 242.192664 256.706242 
L 243.661689 262.778392 
L 245.130714 267.332505 
L 246.599739 261.812368 
L 248.068764 261.674365 
L 249.537789 260.984348 
L 251.006815 263.88242 
L 252.47584 266.366481 
L 253.944865 268.574536 
L 255.41389 269.264553 
L 256.882915 265.952471 
L 258.35194 267.884519 
L 259.820965 266.918495 
L 261.28999 267.746515 
L 262.759015 268.850543 
L 264.22804 268.160526 
L 265.697066 268.574536 
L 267.166091 268.574536 
L 268.635116 266.090474 
L 270.104141 265.676464 
L 271.573166 260.294331 
L 273.042191 266.228478 
L 274.511216 268.436533 
L 275.980241 267.056498 
L 277.449266 265.12445 
L 278.918291 268.022522 
L 280.387316 264.572437 
L 283.325367 266.504485 
L 284.794392 267.608512 
L 286.263417 268.298529 
L 287.732442 266.090474 
L 289.201467 266.504485 
L 290.670492 265.676464 
L 292.139517 264.434433 
L 293.608542 266.642488 
L 295.077567 262.088375 
L 296.546592 262.088375 
L 298.015618 265.12445 
L 299.484643 266.780492 
L 300.953668 263.054399 
L 302.422693 263.88242 
L 303.891718 263.330406 
L 305.360743 264.986447 
L 306.829768 265.952471 
L 308.298793 263.054399 
L 309.767818 258.224279 
L 311.236843 261.398358 
L 312.705868 258.500286 
L 314.174894 257.810269 
L 315.643919 257.948272 
L 317.112944 255.602214 
L 318.581969 252.704142 
L 320.050994 253.670166 
L 321.520019 243.595917 
L 322.989044 238.9038 
L 324.458069 234.763697 
L 325.927094 245.113954 
L 327.396119 245.941975 
L 328.865144 238.9038 
L 330.33417 246.217982 
L 331.803195 220.135335 
L 333.27222 214.753201 
L 334.741245 216.823252 
L 336.21027 225.103458 
L 337.679295 234.625694 
L 339.14832 224.965454 
L 340.617345 208.129037 
L 342.08637 187.428523 
L 343.555395 183.702431 
L 345.024421 187.980537 
L 346.493446 207.991033 
L 347.962471 205.230965 
L 349.431496 184.668455 
L 350.900521 154.031695 
L 352.369546 147.269527 
L 353.838571 165.209972 
L 355.307596 158.447805 
L 356.776621 166.175996 
L 358.245646 177.492277 
L 359.714671 121.600891 
L 361.183697 94.13821 
L 362.652722 89.032083 
L 364.121747 41.420902 
L 365.590772 79.64785 
L 368.528822 134.849219 
L 369.997847 101.038381 
L 371.466872 81.441895 
L 372.935897 72.609676 
L 374.404922 30.242625 
L 375.873947 100.624371 
L 378.811998 199.710828 
L 380.281023 229.381564 
L 380.281023 229.381564 
" style="fill:none;stroke:#ff7f0e;stroke-linecap:square;stroke-width:1.5;"/>
    <defs>
     <path d="M 0 3 
C 0.795609 3 1.55874 2.683901 2.12132 2.12132 
C 2.683901 1.55874 3 0.795609 3 0 
C 3 -0.795609 2.683901 -1.55874 2.12132 -2.12132 
C 1.55874 -2.683901 0.795609 -3 0 -3 
C -0.795609 -3 -1.55874 -2.683901 -2.12132 -2.12132 
C -2.683901 -1.55874 -3 -0.795609 -3 0 
C -3 0.795609 -2.683901 1.55874 -2.12132 2.12132 
C -1.55874 2.683901 -0.795609 3 0 3 
z
" id="mfaed004858" style="stroke:#ff7f0e;"/>
    </defs>
    <g clip-path="url(#peb1705fcc0)">
     <use style="fill:#ff7f0e;stroke:#ff7f0e;" x="55.626477" xlink:href="#mfaed004858" y="272.162625"/>
     <use style="fill:#ff7f0e;stroke:#ff7f0e;" x="57.095502" xlink:href="#mfaed004858" y="272.162625"/>
     <use style="fill:#ff7f0e;stroke:#ff7f0e;" x="58.564527" xlink:href="#mfaed004858" y="272.162625"/>
     <use style="fill:#ff7f0e;stroke:#ff7f0e;" x="60.033553" xlink:href="#mfaed004858" y="272.162625"/>
     <use style="fill:#ff7f0e;stroke:#ff7f0e;" x="61.502578" xlink:href="#mfaed004858" y="272.162625"/>
     <use style="fill:#ff7f0e;stroke:#ff7f0e;" x="62.971603" xlink:href="#mfaed004858" y="272.162625"/>
     <use style="fill:#ff7f0e;stroke:#ff7f0e;" x="64.440628" xlink:href="#mfaed004858" y="272.162625"/>
     <use style="fill:#ff7f0e;stroke:#ff7f0e;" x="65.909653" xlink:href="#mfaed004858" y="272.162625"/>
     <use style="fill:#ff7f0e;stroke:#ff7f0e;" x="67.378678" xlink:href="#mfaed004858" y="272.162625"/>
     <use style="fill:#ff7f0e;stroke:#ff7f0e;" x="68.847703" xlink:href="#mfaed004858" y="272.162625"/>
     <use style="fill:#ff7f0e;stroke:#ff7f0e;" x="70.316728" xlink:href="#mfaed004858" y="272.162625"/>
     <use style="fill:#ff7f0e;stroke:#ff7f0e;" x="71.785753" xlink:href="#mfaed004858" y="272.162625"/>
     <use style="fill:#ff7f0e;stroke:#ff7f0e;" x="73.254778" xlink:href="#mfaed004858" y="272.024622"/>
     <use style="fill:#ff7f0e;stroke:#ff7f0e;" x="74.723803" xlink:href="#mfaed004858" y="272.162625"/>
     <use style="fill:#ff7f0e;stroke:#ff7f0e;" x="76.192829" xlink:href="#mfaed004858" y="272.162625"/>
     <use style="fill:#ff7f0e;stroke:#ff7f0e;" x="77.661854" xlink:href="#mfaed004858" y="272.162625"/>
     <use style="fill:#ff7f0e;stroke:#ff7f0e;" x="79.130879" xlink:href="#mfaed004858" y="272.162625"/>
     <use style="fill:#ff7f0e;stroke:#ff7f0e;" x="80.599904" xlink:href="#mfaed004858" y="272.162625"/>
     <use style="fill:#ff7f0e;stroke:#ff7f0e;" x="82.068929" xlink:href="#mfaed004858" y="272.162625"/>
     <use style="fill:#ff7f0e;stroke:#ff7f0e;" x="83.537954" xlink:href="#mfaed004858" y="272.162625"/>
     <use style="fill:#ff7f0e;stroke:#ff7f0e;" x="85.006979" xlink:href="#mfaed004858" y="272.162625"/>
     <use style="fill:#ff7f0e;stroke:#ff7f0e;" x="86.476004" xlink:href="#mfaed004858" y="272.024622"/>
     <use style="fill:#ff7f0e;stroke:#ff7f0e;" x="87.945029" xlink:href="#mfaed004858" y="272.024622"/>
     <use style="fill:#ff7f0e;stroke:#ff7f0e;" x="89.414054" xlink:href="#mfaed004858" y="272.024622"/>
     <use style="fill:#ff7f0e;stroke:#ff7f0e;" x="90.883079" xlink:href="#mfaed004858" y="272.162625"/>
     <use style="fill:#ff7f0e;stroke:#ff7f0e;" x="92.352105" xlink:href="#mfaed004858" y="271.748615"/>
     <use style="fill:#ff7f0e;stroke:#ff7f0e;" x="93.82113" xlink:href="#mfaed004858" y="272.024622"/>
     <use style="fill:#ff7f0e;stroke:#ff7f0e;" x="95.290155" xlink:href="#mfaed004858" y="271.334604"/>
     <use style="fill:#ff7f0e;stroke:#ff7f0e;" x="96.75918" xlink:href="#mfaed004858" y="271.886618"/>
     <use style="fill:#ff7f0e;stroke:#ff7f0e;" x="98.228205" xlink:href="#mfaed004858" y="271.748615"/>
     <use style="fill:#ff7f0e;stroke:#ff7f0e;" x="99.69723" xlink:href="#mfaed004858" y="272.162625"/>
     <use style="fill:#ff7f0e;stroke:#ff7f0e;" x="101.166255" xlink:href="#mfaed004858" y="272.162625"/>
     <use style="fill:#ff7f0e;stroke:#ff7f0e;" x="102.63528" xlink:href="#mfaed004858" y="271.610611"/>
     <use style="fill:#ff7f0e;stroke:#ff7f0e;" x="104.104305" xlink:href="#mfaed004858" y="271.886618"/>
     <use style="fill:#ff7f0e;stroke:#ff7f0e;" x="105.57333" xlink:href="#mfaed004858" y="272.162625"/>
     <use style="fill:#ff7f0e;stroke:#ff7f0e;" x="107.042356" xlink:href="#mfaed004858" y="272.024622"/>
     <use style="fill:#ff7f0e;stroke:#ff7f0e;" x="108.511381" xlink:href="#mfaed004858" y="272.162625"/>
     <use style="fill:#ff7f0e;stroke:#ff7f0e;" x="109.980406" xlink:href="#mfaed004858" y="272.162625"/>
     <use style="fill:#ff7f0e;stroke:#ff7f0e;" x="111.449431" xlink:href="#mfaed004858" y="271.886618"/>
     <use style="fill:#ff7f0e;stroke:#ff7f0e;" x="112.918456" xlink:href="#mfaed004858" y="272.024622"/>
     <use style="fill:#ff7f0e;stroke:#ff7f0e;" x="114.387481" xlink:href="#mfaed004858" y="272.162625"/>
     <use style="fill:#ff7f0e;stroke:#ff7f0e;" x="115.856506" xlink:href="#mfaed004858" y="271.610611"/>
     <use style="fill:#ff7f0e;stroke:#ff7f0e;" x="117.325531" xlink:href="#mfaed004858" y="271.058598"/>
     <use style="fill:#ff7f0e;stroke:#ff7f0e;" x="118.794556" xlink:href="#mfaed004858" y="270.506584"/>
     <use style="fill:#ff7f0e;stroke:#ff7f0e;" x="120.263581" xlink:href="#mfaed004858" y="271.334604"/>
     <use style="fill:#ff7f0e;stroke:#ff7f0e;" x="121.732606" xlink:href="#mfaed004858" y="271.196601"/>
     <use style="fill:#ff7f0e;stroke:#ff7f0e;" x="123.201632" xlink:href="#mfaed004858" y="270.782591"/>
     <use style="fill:#ff7f0e;stroke:#ff7f0e;" x="124.670657" xlink:href="#mfaed004858" y="270.920594"/>
     <use style="fill:#ff7f0e;stroke:#ff7f0e;" x="126.139682" xlink:href="#mfaed004858" y="270.920594"/>
     <use style="fill:#ff7f0e;stroke:#ff7f0e;" x="127.608707" xlink:href="#mfaed004858" y="269.816567"/>
     <use style="fill:#ff7f0e;stroke:#ff7f0e;" x="129.077732" xlink:href="#mfaed004858" y="268.574536"/>
     <use style="fill:#ff7f0e;stroke:#ff7f0e;" x="130.546757" xlink:href="#mfaed004858" y="270.782591"/>
     <use style="fill:#ff7f0e;stroke:#ff7f0e;" x="132.015782" xlink:href="#mfaed004858" y="270.506584"/>
     <use style="fill:#ff7f0e;stroke:#ff7f0e;" x="133.484807" xlink:href="#mfaed004858" y="270.092574"/>
     <use style="fill:#ff7f0e;stroke:#ff7f0e;" x="134.953832" xlink:href="#mfaed004858" y="269.816567"/>
     <use style="fill:#ff7f0e;stroke:#ff7f0e;" x="136.422857" xlink:href="#mfaed004858" y="268.712539"/>
     <use style="fill:#ff7f0e;stroke:#ff7f0e;" x="137.891882" xlink:href="#mfaed004858" y="269.402557"/>
     <use style="fill:#ff7f0e;stroke:#ff7f0e;" x="139.360908" xlink:href="#mfaed004858" y="271.058598"/>
     <use style="fill:#ff7f0e;stroke:#ff7f0e;" x="140.829933" xlink:href="#mfaed004858" y="270.230577"/>
     <use style="fill:#ff7f0e;stroke:#ff7f0e;" x="142.298958" xlink:href="#mfaed004858" y="269.816567"/>
     <use style="fill:#ff7f0e;stroke:#ff7f0e;" x="143.767983" xlink:href="#mfaed004858" y="269.402557"/>
     <use style="fill:#ff7f0e;stroke:#ff7f0e;" x="145.237008" xlink:href="#mfaed004858" y="267.194502"/>
     <use style="fill:#ff7f0e;stroke:#ff7f0e;" x="146.706033" xlink:href="#mfaed004858" y="267.194502"/>
     <use style="fill:#ff7f0e;stroke:#ff7f0e;" x="148.175058" xlink:href="#mfaed004858" y="264.29643"/>
     <use style="fill:#ff7f0e;stroke:#ff7f0e;" x="149.644083" xlink:href="#mfaed004858" y="266.918495"/>
     <use style="fill:#ff7f0e;stroke:#ff7f0e;" x="151.113108" xlink:href="#mfaed004858" y="267.056498"/>
     <use style="fill:#ff7f0e;stroke:#ff7f0e;" x="152.582133" xlink:href="#mfaed004858" y="268.574536"/>
     <use style="fill:#ff7f0e;stroke:#ff7f0e;" x="154.051158" xlink:href="#mfaed004858" y="262.640389"/>
     <use style="fill:#ff7f0e;stroke:#ff7f0e;" x="155.520184" xlink:href="#mfaed004858" y="264.29643"/>
     <use style="fill:#ff7f0e;stroke:#ff7f0e;" x="156.989209" xlink:href="#mfaed004858" y="265.952471"/>
     <use style="fill:#ff7f0e;stroke:#ff7f0e;" x="158.458234" xlink:href="#mfaed004858" y="266.504485"/>
     <use style="fill:#ff7f0e;stroke:#ff7f0e;" x="159.927259" xlink:href="#mfaed004858" y="264.71044"/>
     <use style="fill:#ff7f0e;stroke:#ff7f0e;" x="161.396284" xlink:href="#mfaed004858" y="268.022522"/>
     <use style="fill:#ff7f0e;stroke:#ff7f0e;" x="162.865309" xlink:href="#mfaed004858" y="269.54056"/>
     <use style="fill:#ff7f0e;stroke:#ff7f0e;" x="164.334334" xlink:href="#mfaed004858" y="265.814468"/>
     <use style="fill:#ff7f0e;stroke:#ff7f0e;" x="165.803359" xlink:href="#mfaed004858" y="266.090474"/>
     <use style="fill:#ff7f0e;stroke:#ff7f0e;" x="167.272384" xlink:href="#mfaed004858" y="265.814468"/>
     <use style="fill:#ff7f0e;stroke:#ff7f0e;" x="168.741409" xlink:href="#mfaed004858" y="265.952471"/>
     <use style="fill:#ff7f0e;stroke:#ff7f0e;" x="170.210434" xlink:href="#mfaed004858" y="266.228478"/>
     <use style="fill:#ff7f0e;stroke:#ff7f0e;" x="171.67946" xlink:href="#mfaed004858" y="266.228478"/>
     <use style="fill:#ff7f0e;stroke:#ff7f0e;" x="173.148485" xlink:href="#mfaed004858" y="266.918495"/>
     <use style="fill:#ff7f0e;stroke:#ff7f0e;" x="174.61751" xlink:href="#mfaed004858" y="261.122351"/>
     <use style="fill:#ff7f0e;stroke:#ff7f0e;" x="176.086535" xlink:href="#mfaed004858" y="259.46631"/>
     <use style="fill:#ff7f0e;stroke:#ff7f0e;" x="177.55556" xlink:href="#mfaed004858" y="258.500286"/>
     <use style="fill:#ff7f0e;stroke:#ff7f0e;" x="179.024585" xlink:href="#mfaed004858" y="254.774194"/>
     <use style="fill:#ff7f0e;stroke:#ff7f0e;" x="180.49361" xlink:href="#mfaed004858" y="243.73392"/>
     <use style="fill:#ff7f0e;stroke:#ff7f0e;" x="181.962635" xlink:href="#mfaed004858" y="250.220081"/>
     <use style="fill:#ff7f0e;stroke:#ff7f0e;" x="183.43166" xlink:href="#mfaed004858" y="251.600115"/>
     <use style="fill:#ff7f0e;stroke:#ff7f0e;" x="184.900685" xlink:href="#mfaed004858" y="239.593817"/>
     <use style="fill:#ff7f0e;stroke:#ff7f0e;" x="186.369711" xlink:href="#mfaed004858" y="233.65967"/>
     <use style="fill:#ff7f0e;stroke:#ff7f0e;" x="187.838736" xlink:href="#mfaed004858" y="231.727622"/>
     <use style="fill:#ff7f0e;stroke:#ff7f0e;" x="189.307761" xlink:href="#mfaed004858" y="224.275437"/>
     <use style="fill:#ff7f0e;stroke:#ff7f0e;" x="190.776786" xlink:href="#mfaed004858" y="218.203287"/>
     <use style="fill:#ff7f0e;stroke:#ff7f0e;" x="192.245811" xlink:href="#mfaed004858" y="230.347588"/>
     <use style="fill:#ff7f0e;stroke:#ff7f0e;" x="193.714836" xlink:href="#mfaed004858" y="235.867725"/>
     <use style="fill:#ff7f0e;stroke:#ff7f0e;" x="195.183861" xlink:href="#mfaed004858" y="206.196989"/>
     <use style="fill:#ff7f0e;stroke:#ff7f0e;" x="196.652886" xlink:href="#mfaed004858" y="206.058986"/>
     <use style="fill:#ff7f0e;stroke:#ff7f0e;" x="198.121911" xlink:href="#mfaed004858" y="183.564428"/>
     <use style="fill:#ff7f0e;stroke:#ff7f0e;" x="199.590936" xlink:href="#mfaed004858" y="184.116441"/>
     <use style="fill:#ff7f0e;stroke:#ff7f0e;" x="201.059961" xlink:href="#mfaed004858" y="176.250246"/>
     <use style="fill:#ff7f0e;stroke:#ff7f0e;" x="202.528987" xlink:href="#mfaed004858" y="208.819054"/>
     <use style="fill:#ff7f0e;stroke:#ff7f0e;" x="203.998012" xlink:href="#mfaed004858" y="228.967554"/>
     <use style="fill:#ff7f0e;stroke:#ff7f0e;" x="205.467037" xlink:href="#mfaed004858" y="200.124838"/>
     <use style="fill:#ff7f0e;stroke:#ff7f0e;" x="206.936062" xlink:href="#mfaed004858" y="191.568626"/>
     <use style="fill:#ff7f0e;stroke:#ff7f0e;" x="208.405087" xlink:href="#mfaed004858" y="198.744804"/>
     <use style="fill:#ff7f0e;stroke:#ff7f0e;" x="209.874112" xlink:href="#mfaed004858" y="194.328695"/>
     <use style="fill:#ff7f0e;stroke:#ff7f0e;" x="211.343137" xlink:href="#mfaed004858" y="194.052688"/>
     <use style="fill:#ff7f0e;stroke:#ff7f0e;" x="212.812162" xlink:href="#mfaed004858" y="226.345489"/>
     <use style="fill:#ff7f0e;stroke:#ff7f0e;" x="214.281187" xlink:href="#mfaed004858" y="222.205386"/>
     <use style="fill:#ff7f0e;stroke:#ff7f0e;" x="215.750212" xlink:href="#mfaed004858" y="215.305215"/>
     <use style="fill:#ff7f0e;stroke:#ff7f0e;" x="217.219237" xlink:href="#mfaed004858" y="211.441119"/>
     <use style="fill:#ff7f0e;stroke:#ff7f0e;" x="218.688263" xlink:href="#mfaed004858" y="213.373167"/>
     <use style="fill:#ff7f0e;stroke:#ff7f0e;" x="220.157288" xlink:href="#mfaed004858" y="211.165112"/>
     <use style="fill:#ff7f0e;stroke:#ff7f0e;" x="221.626313" xlink:href="#mfaed004858" y="221.929379"/>
     <use style="fill:#ff7f0e;stroke:#ff7f0e;" x="223.095338" xlink:href="#mfaed004858" y="243.595917"/>
     <use style="fill:#ff7f0e;stroke:#ff7f0e;" x="224.564363" xlink:href="#mfaed004858" y="248.288033"/>
     <use style="fill:#ff7f0e;stroke:#ff7f0e;" x="226.033388" xlink:href="#mfaed004858" y="231.865626"/>
     <use style="fill:#ff7f0e;stroke:#ff7f0e;" x="227.502413" xlink:href="#mfaed004858" y="242.077879"/>
     <use style="fill:#ff7f0e;stroke:#ff7f0e;" x="228.971438" xlink:href="#mfaed004858" y="247.046002"/>
     <use style="fill:#ff7f0e;stroke:#ff7f0e;" x="230.440463" xlink:href="#mfaed004858" y="232.417639"/>
     <use style="fill:#ff7f0e;stroke:#ff7f0e;" x="231.909488" xlink:href="#mfaed004858" y="230.485591"/>
     <use style="fill:#ff7f0e;stroke:#ff7f0e;" x="233.378513" xlink:href="#mfaed004858" y="246.493988"/>
     <use style="fill:#ff7f0e;stroke:#ff7f0e;" x="234.847539" xlink:href="#mfaed004858" y="251.324108"/>
     <use style="fill:#ff7f0e;stroke:#ff7f0e;" x="236.316564" xlink:href="#mfaed004858" y="256.154228"/>
     <use style="fill:#ff7f0e;stroke:#ff7f0e;" x="237.785589" xlink:href="#mfaed004858" y="259.0523"/>
     <use style="fill:#ff7f0e;stroke:#ff7f0e;" x="239.254614" xlink:href="#mfaed004858" y="259.742317"/>
     <use style="fill:#ff7f0e;stroke:#ff7f0e;" x="240.723639" xlink:href="#mfaed004858" y="258.500286"/>
     <use style="fill:#ff7f0e;stroke:#ff7f0e;" x="242.192664" xlink:href="#mfaed004858" y="256.706242"/>
     <use style="fill:#ff7f0e;stroke:#ff7f0e;" x="243.661689" xlink:href="#mfaed004858" y="262.778392"/>
     <use style="fill:#ff7f0e;stroke:#ff7f0e;" x="245.130714" xlink:href="#mfaed004858" y="267.332505"/>
     <use style="fill:#ff7f0e;stroke:#ff7f0e;" x="246.599739" xlink:href="#mfaed004858" y="261.812368"/>
     <use style="fill:#ff7f0e;stroke:#ff7f0e;" x="248.068764" xlink:href="#mfaed004858" y="261.674365"/>
     <use style="fill:#ff7f0e;stroke:#ff7f0e;" x="249.537789" xlink:href="#mfaed004858" y="260.984348"/>
     <use style="fill:#ff7f0e;stroke:#ff7f0e;" x="251.006815" xlink:href="#mfaed004858" y="263.88242"/>
     <use style="fill:#ff7f0e;stroke:#ff7f0e;" x="252.47584" xlink:href="#mfaed004858" y="266.366481"/>
     <use style="fill:#ff7f0e;stroke:#ff7f0e;" x="253.944865" xlink:href="#mfaed004858" y="268.574536"/>
     <use style="fill:#ff7f0e;stroke:#ff7f0e;" x="255.41389" xlink:href="#mfaed004858" y="269.264553"/>
     <use style="fill:#ff7f0e;stroke:#ff7f0e;" x="256.882915" xlink:href="#mfaed004858" y="265.952471"/>
     <use style="fill:#ff7f0e;stroke:#ff7f0e;" x="258.35194" xlink:href="#mfaed004858" y="267.884519"/>
     <use style="fill:#ff7f0e;stroke:#ff7f0e;" x="259.820965" xlink:href="#mfaed004858" y="266.918495"/>
     <use style="fill:#ff7f0e;stroke:#ff7f0e;" x="261.28999" xlink:href="#mfaed004858" y="267.746515"/>
     <use style="fill:#ff7f0e;stroke:#ff7f0e;" x="262.759015" xlink:href="#mfaed004858" y="268.850543"/>
     <use style="fill:#ff7f0e;stroke:#ff7f0e;" x="264.22804" xlink:href="#mfaed004858" y="268.160526"/>
     <use style="fill:#ff7f0e;stroke:#ff7f0e;" x="265.697066" xlink:href="#mfaed004858" y="268.574536"/>
     <use style="fill:#ff7f0e;stroke:#ff7f0e;" x="267.166091" xlink:href="#mfaed004858" y="268.574536"/>
     <use style="fill:#ff7f0e;stroke:#ff7f0e;" x="268.635116" xlink:href="#mfaed004858" y="266.090474"/>
     <use style="fill:#ff7f0e;stroke:#ff7f0e;" x="270.104141" xlink:href="#mfaed004858" y="265.676464"/>
     <use style="fill:#ff7f0e;stroke:#ff7f0e;" x="271.573166" xlink:href="#mfaed004858" y="260.294331"/>
     <use style="fill:#ff7f0e;stroke:#ff7f0e;" x="273.042191" xlink:href="#mfaed004858" y="266.228478"/>
     <use style="fill:#ff7f0e;stroke:#ff7f0e;" x="274.511216" xlink:href="#mfaed004858" y="268.436533"/>
     <use style="fill:#ff7f0e;stroke:#ff7f0e;" x="275.980241" xlink:href="#mfaed004858" y="267.056498"/>
     <use style="fill:#ff7f0e;stroke:#ff7f0e;" x="277.449266" xlink:href="#mfaed004858" y="265.12445"/>
     <use style="fill:#ff7f0e;stroke:#ff7f0e;" x="278.918291" xlink:href="#mfaed004858" y="268.022522"/>
     <use style="fill:#ff7f0e;stroke:#ff7f0e;" x="280.387316" xlink:href="#mfaed004858" y="264.572437"/>
     <use style="fill:#ff7f0e;stroke:#ff7f0e;" x="281.856342" xlink:href="#mfaed004858" y="265.538461"/>
     <use style="fill:#ff7f0e;stroke:#ff7f0e;" x="283.325367" xlink:href="#mfaed004858" y="266.504485"/>
     <use style="fill:#ff7f0e;stroke:#ff7f0e;" x="284.794392" xlink:href="#mfaed004858" y="267.608512"/>
     <use style="fill:#ff7f0e;stroke:#ff7f0e;" x="286.263417" xlink:href="#mfaed004858" y="268.298529"/>
     <use style="fill:#ff7f0e;stroke:#ff7f0e;" x="287.732442" xlink:href="#mfaed004858" y="266.090474"/>
     <use style="fill:#ff7f0e;stroke:#ff7f0e;" x="289.201467" xlink:href="#mfaed004858" y="266.504485"/>
     <use style="fill:#ff7f0e;stroke:#ff7f0e;" x="290.670492" xlink:href="#mfaed004858" y="265.676464"/>
     <use style="fill:#ff7f0e;stroke:#ff7f0e;" x="292.139517" xlink:href="#mfaed004858" y="264.434433"/>
     <use style="fill:#ff7f0e;stroke:#ff7f0e;" x="293.608542" xlink:href="#mfaed004858" y="266.642488"/>
     <use style="fill:#ff7f0e;stroke:#ff7f0e;" x="295.077567" xlink:href="#mfaed004858" y="262.088375"/>
     <use style="fill:#ff7f0e;stroke:#ff7f0e;" x="296.546592" xlink:href="#mfaed004858" y="262.088375"/>
     <use style="fill:#ff7f0e;stroke:#ff7f0e;" x="298.015618" xlink:href="#mfaed004858" y="265.12445"/>
     <use style="fill:#ff7f0e;stroke:#ff7f0e;" x="299.484643" xlink:href="#mfaed004858" y="266.780492"/>
     <use style="fill:#ff7f0e;stroke:#ff7f0e;" x="300.953668" xlink:href="#mfaed004858" y="263.054399"/>
     <use style="fill:#ff7f0e;stroke:#ff7f0e;" x="302.422693" xlink:href="#mfaed004858" y="263.88242"/>
     <use style="fill:#ff7f0e;stroke:#ff7f0e;" x="303.891718" xlink:href="#mfaed004858" y="263.330406"/>
     <use style="fill:#ff7f0e;stroke:#ff7f0e;" x="305.360743" xlink:href="#mfaed004858" y="264.986447"/>
     <use style="fill:#ff7f0e;stroke:#ff7f0e;" x="306.829768" xlink:href="#mfaed004858" y="265.952471"/>
     <use style="fill:#ff7f0e;stroke:#ff7f0e;" x="308.298793" xlink:href="#mfaed004858" y="263.054399"/>
     <use style="fill:#ff7f0e;stroke:#ff7f0e;" x="309.767818" xlink:href="#mfaed004858" y="258.224279"/>
     <use style="fill:#ff7f0e;stroke:#ff7f0e;" x="311.236843" xlink:href="#mfaed004858" y="261.398358"/>
     <use style="fill:#ff7f0e;stroke:#ff7f0e;" x="312.705868" xlink:href="#mfaed004858" y="258.500286"/>
     <use style="fill:#ff7f0e;stroke:#ff7f0e;" x="314.174894" xlink:href="#mfaed004858" y="257.810269"/>
     <use style="fill:#ff7f0e;stroke:#ff7f0e;" x="315.643919" xlink:href="#mfaed004858" y="257.948272"/>
     <use style="fill:#ff7f0e;stroke:#ff7f0e;" x="317.112944" xlink:href="#mfaed004858" y="255.602214"/>
     <use style="fill:#ff7f0e;stroke:#ff7f0e;" x="318.581969" xlink:href="#mfaed004858" y="252.704142"/>
     <use style="fill:#ff7f0e;stroke:#ff7f0e;" x="320.050994" xlink:href="#mfaed004858" y="253.670166"/>
     <use style="fill:#ff7f0e;stroke:#ff7f0e;" x="321.520019" xlink:href="#mfaed004858" y="243.595917"/>
     <use style="fill:#ff7f0e;stroke:#ff7f0e;" x="322.989044" xlink:href="#mfaed004858" y="238.9038"/>
     <use style="fill:#ff7f0e;stroke:#ff7f0e;" x="324.458069" xlink:href="#mfaed004858" y="234.763697"/>
     <use style="fill:#ff7f0e;stroke:#ff7f0e;" x="325.927094" xlink:href="#mfaed004858" y="245.113954"/>
     <use style="fill:#ff7f0e;stroke:#ff7f0e;" x="327.396119" xlink:href="#mfaed004858" y="245.941975"/>
     <use style="fill:#ff7f0e;stroke:#ff7f0e;" x="328.865144" xlink:href="#mfaed004858" y="238.9038"/>
     <use style="fill:#ff7f0e;stroke:#ff7f0e;" x="330.33417" xlink:href="#mfaed004858" y="246.217982"/>
     <use style="fill:#ff7f0e;stroke:#ff7f0e;" x="331.803195" xlink:href="#mfaed004858" y="220.135335"/>
     <use style="fill:#ff7f0e;stroke:#ff7f0e;" x="333.27222" xlink:href="#mfaed004858" y="214.753201"/>
     <use style="fill:#ff7f0e;stroke:#ff7f0e;" x="334.741245" xlink:href="#mfaed004858" y="216.823252"/>
     <use style="fill:#ff7f0e;stroke:#ff7f0e;" x="336.21027" xlink:href="#mfaed004858" y="225.103458"/>
     <use style="fill:#ff7f0e;stroke:#ff7f0e;" x="337.679295" xlink:href="#mfaed004858" y="234.625694"/>
     <use style="fill:#ff7f0e;stroke:#ff7f0e;" x="339.14832" xlink:href="#mfaed004858" y="224.965454"/>
     <use style="fill:#ff7f0e;stroke:#ff7f0e;" x="340.617345" xlink:href="#mfaed004858" y="208.129037"/>
     <use style="fill:#ff7f0e;stroke:#ff7f0e;" x="342.08637" xlink:href="#mfaed004858" y="187.428523"/>
     <use style="fill:#ff7f0e;stroke:#ff7f0e;" x="343.555395" xlink:href="#mfaed004858" y="183.702431"/>
     <use style="fill:#ff7f0e;stroke:#ff7f0e;" x="345.024421" xlink:href="#mfaed004858" y="187.980537"/>
     <use style="fill:#ff7f0e;stroke:#ff7f0e;" x="346.493446" xlink:href="#mfaed004858" y="207.991033"/>
     <use style="fill:#ff7f0e;stroke:#ff7f0e;" x="347.962471" xlink:href="#mfaed004858" y="205.230965"/>
     <use style="fill:#ff7f0e;stroke:#ff7f0e;" x="349.431496" xlink:href="#mfaed004858" y="184.668455"/>
     <use style="fill:#ff7f0e;stroke:#ff7f0e;" x="350.900521" xlink:href="#mfaed004858" y="154.031695"/>
     <use style="fill:#ff7f0e;stroke:#ff7f0e;" x="352.369546" xlink:href="#mfaed004858" y="147.269527"/>
     <use style="fill:#ff7f0e;stroke:#ff7f0e;" x="353.838571" xlink:href="#mfaed004858" y="165.209972"/>
     <use style="fill:#ff7f0e;stroke:#ff7f0e;" x="355.307596" xlink:href="#mfaed004858" y="158.447805"/>
     <use style="fill:#ff7f0e;stroke:#ff7f0e;" x="356.776621" xlink:href="#mfaed004858" y="166.175996"/>
     <use style="fill:#ff7f0e;stroke:#ff7f0e;" x="358.245646" xlink:href="#mfaed004858" y="177.492277"/>
     <use style="fill:#ff7f0e;stroke:#ff7f0e;" x="359.714671" xlink:href="#mfaed004858" y="121.600891"/>
     <use style="fill:#ff7f0e;stroke:#ff7f0e;" x="361.183697" xlink:href="#mfaed004858" y="94.13821"/>
     <use style="fill:#ff7f0e;stroke:#ff7f0e;" x="362.652722" xlink:href="#mfaed004858" y="89.032083"/>
     <use style="fill:#ff7f0e;stroke:#ff7f0e;" x="364.121747" xlink:href="#mfaed004858" y="41.420902"/>
     <use style="fill:#ff7f0e;stroke:#ff7f0e;" x="365.590772" xlink:href="#mfaed004858" y="79.64785"/>
     <use style="fill:#ff7f0e;stroke:#ff7f0e;" x="367.059797" xlink:href="#mfaed004858" y="106.834525"/>
     <use style="fill:#ff7f0e;stroke:#ff7f0e;" x="368.528822" xlink:href="#mfaed004858" y="134.849219"/>
     <use style="fill:#ff7f0e;stroke:#ff7f0e;" x="369.997847" xlink:href="#mfaed004858" y="101.038381"/>
     <use style="fill:#ff7f0e;stroke:#ff7f0e;" x="371.466872" xlink:href="#mfaed004858" y="81.441895"/>
     <use style="fill:#ff7f0e;stroke:#ff7f0e;" x="372.935897" xlink:href="#mfaed004858" y="72.609676"/>
     <use style="fill:#ff7f0e;stroke:#ff7f0e;" x="374.404922" xlink:href="#mfaed004858" y="30.242625"/>
     <use style="fill:#ff7f0e;stroke:#ff7f0e;" x="375.873947" xlink:href="#mfaed004858" y="100.624371"/>
     <use style="fill:#ff7f0e;stroke:#ff7f0e;" x="377.342973" xlink:href="#mfaed004858" y="151.685637"/>
     <use style="fill:#ff7f0e;stroke:#ff7f0e;" x="378.811998" xlink:href="#mfaed004858" y="199.710828"/>
     <use style="fill:#ff7f0e;stroke:#ff7f0e;" x="380.281023" xlink:href="#mfaed004858" y="229.381564"/>
    </g>
   </g>
   <g id="patch_3">
    <path d="M 39.39375 284.258625 
L 39.39375 18.146625 
" style="fill:none;stroke:#000000;stroke-linecap:square;stroke-linejoin:miter;stroke-width:0.8;"/>
   </g>
   <g id="patch_4">
    <path d="M 396.51375 284.258625 
L 396.51375 18.146625 
" style="fill:none;stroke:#000000;stroke-linecap:square;stroke-linejoin:miter;stroke-width:0.8;"/>
   </g>
   <g id="patch_5">
    <path d="M 39.39375 284.258625 
L 396.51375 284.258625 
" style="fill:none;stroke:#000000;stroke-linecap:square;stroke-linejoin:miter;stroke-width:0.8;"/>
   </g>
   <g id="patch_6">
    <path d="M 39.39375 18.146625 
L 396.51375 18.146625 
" style="fill:none;stroke:#000000;stroke-linecap:square;stroke-linejoin:miter;stroke-width:0.8;"/>
   </g>
   <g id="legend_1">
    <g id="patch_7">
     <path d="M 46.39375 56.29975 
L 165.376563 56.29975 
Q 167.376563 56.29975 167.376563 54.29975 
L 167.376563 25.146625 
Q 167.376563 23.146625 165.376563 23.146625 
L 46.39375 23.146625 
Q 44.39375 23.146625 44.39375 25.146625 
L 44.39375 54.29975 
Q 44.39375 56.29975 46.39375 56.29975 
z
" style="fill:#ffffff;opacity:0.8;stroke:#cccccc;stroke-linejoin:miter;"/>
    </g>
    <g id="line2d_19">
     <path d="M 48.39375 31.766937 
L 68.39375 31.766937 
" style="fill:none;stroke:#1f77b4;stroke-linecap:square;stroke-width:1.5;"/>
    </g>
    <g id="line2d_20">
     <g>
      <use style="fill:#1f77b4;stroke:#1f77b4;" x="58.39375" xlink:href="#mbac519582b" y="31.766937"/>
     </g>
    </g>
    <g id="text_18">
     <!--  (onset) -->
     <g transform="translate(76.39375 35.266937)scale(0.1 -0.1)">
      <defs>
       <path d="M 73.734375 56.84375 
Q 80.609375 62.75 85.203125 68.609375 
L 91.109375 64.40625 
Q 84.46875 57.8125 78.71875 53.328125 
Q 85.9375 48.6875 95.40625 44.625 
L 90.625 38.375 
Q 81.734375 42.78125 73.53125 48.640625 
L 73.53125 43.3125 
L 64.109375 43.3125 
L 64.109375 29.984375 
L 89.890625 29.984375 
L 89.890625 23.78125 
L 64.109375 23.78125 
L 64.109375 5.609375 
Q 64.109375 2.484375 65.71875 2.046875 
Q 67.390625 1.46875 73.09375 1.46875 
Q 82.125 1.46875 83.59375 2.984375 
Q 85.0625 4.4375 85.5 11.96875 
Q 85.5 13.484375 85.59375 14.0625 
L 92.625 11.578125 
Q 92.1875 0.390625 89.703125 -2.203125 
Q 87.0625 -5.328125 72.609375 -5.328125 
Q 63.8125 -5.328125 60.9375 -4 
Q 57.03125 -2.34375 57.03125 3.328125 
L 57.03125 23.78125 
L 42.578125 23.78125 
Q 40.1875 0.53125 11.078125 -7.421875 
L 7.28125 -0.984375 
Q 33.25 5.421875 35.5 23.78125 
L 10.015625 23.78125 
L 10.015625 29.984375 
L 35.796875 29.984375 
L 35.796875 43.3125 
L 27.78125 43.3125 
L 27.78125 47.015625 
Q 19.734375 41.359375 9.078125 36.1875 
L 4.5 42.1875 
Q 16.3125 46.734375 25.984375 53.8125 
Q 19.828125 60.15625 13.484375 64.59375 
L 18.609375 69.140625 
Q 26.515625 62.59375 31.109375 58.015625 
Q 38.03125 64.0625 43.171875 72.125 
L 20.0625 72.125 
L 20.0625 78.21875 
L 54 78.21875 
Q 58.203125 71.34375 62.890625 66.3125 
Q 69.09375 71.625 74.03125 77.9375 
L 79.828125 73.734375 
Q 74.171875 67.625 67.09375 62.203125 
Q 70.40625 59.078125 73.734375 56.84375 
z
M 57.03125 43.3125 
L 42.78125 43.3125 
L 42.78125 29.984375 
L 57.03125 29.984375 
z
M 30.90625 49.3125 
L 72.515625 49.3125 
Q 58.6875 59.28125 50.59375 71 
Q 43.21875 58.890625 30.90625 49.3125 
z
" id="IPAexGothic-30330"/>
       <path d="M 63.71875 2.875 
L 95.015625 2.875 
L 95.015625 -3.515625 
L 23.96875 -3.515625 
L 23.96875 2.875 
L 37.3125 2.875 
L 37.3125 38.28125 
L 44 38.28125 
L 44 2.875 
L 56.84375 2.875 
L 56.84375 46.578125 
L 30.515625 46.578125 
L 30.515625 52.78125 
L 90.046875 52.78125 
L 90.046875 46.578125 
L 63.71875 46.578125 
L 63.71875 29.203125 
L 87.796875 29.203125 
L 87.796875 23.09375 
L 63.71875 23.09375 
z
M 60.203125 70.515625 
L 93.890625 70.515625 
L 93.890625 64.109375 
L 27.296875 64.109375 
L 27.296875 41.40625 
Q 27.296875 23.140625 24.21875 12.203125 
Q 21.390625 2.25 14.59375 -6.203125 
L 9.625 -1.171875 
Q 18.75 10.359375 20.125 27.484375 
Q 15.4375 24.125 7.078125 19.734375 
L 4 26.609375 
Q 12.3125 29.59375 20.40625 34.328125 
L 20.40625 37.890625 
L 20.40625 70.515625 
L 52.78125 70.515625 
L 52.78125 81.984375 
L 60.203125 81.984375 
z
M 12.015625 40.375 
Q 8.890625 50.78125 5.421875 57.90625 
L 11.375 60.59375 
Q 15.234375 53.859375 18.40625 43.703125 
z
" id="IPAexGothic-30151"/>
       <path d="M 81.734375 75 
L 81.734375 -4.5 
L 74.125 -4.5 
L 74.125 2 
L 25.734375 2 
L 25.734375 -4.5 
L 18.109375 -4.5 
L 18.109375 75 
z
M 25.734375 68.3125 
L 25.734375 42.671875 
L 74.125 42.671875 
L 74.125 68.3125 
z
M 25.734375 35.890625 
L 25.734375 8.6875 
L 74.125 8.6875 
L 74.125 35.890625 
z
" id="IPAexGothic-26085"/>
       <path id="IPAexGothic-32"/>
       <path d="M 30.125 -15.875 
L 25.828125 -18.21875 
Q 7.625 1.078125 7.625 29.296875 
Q 7.625 57.46875 25.828125 76.703125 
L 30.125 74.421875 
Q 15.71875 55.03125 15.71875 29.390625 
Q 15.71875 3.171875 30.125 -15.875 
z
" id="IPAexGothic-40"/>
       <path d="M 29.984375 52.203125 
Q 40.53125 52.203125 47.75 45.125 
Q 55.171875 37.703125 55.171875 25.59375 
Q 55.171875 13.875 47.90625 6.59375 
Q 40.765625 -0.484375 29.984375 -0.484375 
Q 19.1875 -0.484375 12.203125 6.5 
Q 4.890625 13.765625 4.890625 25.875 
Q 4.890625 37.703125 12.3125 45.125 
Q 19.390625 52.203125 29.984375 52.203125 
z
M 29.984375 45.609375 
Q 23.734375 45.609375 19.390625 41.109375 
Q 13.875 35.59375 13.875 25.78125 
Q 13.875 16.109375 19.28125 10.6875 
Q 23.6875 6.296875 29.984375 6.296875 
Q 36.421875 6.296875 40.765625 10.796875 
Q 46.1875 16.21875 46.1875 26.125 
Q 46.1875 35.453125 40.671875 41.109375 
Q 36.1875 45.609375 29.984375 45.609375 
z
" id="IPAexGothic-111"/>
       <path d="M 34.90625 39.796875 
Q 30.28125 45.796875 23.1875 45.796875 
Q 13.921875 45.796875 13.921875 38.671875 
Q 13.921875 33.640625 23.921875 30.375 
L 27.203125 29.296875 
Q 41.40625 24.65625 41.40625 13.96875 
Q 41.40625 6.78125 35.5 2.6875 
Q 30.8125 -0.484375 23.390625 -0.484375 
Q 11.96875 -0.484375 4 7.859375 
L 9.421875 12.796875 
Q 15.578125 6.203125 23.6875 6.203125 
Q 33.296875 6.203125 33.296875 13.671875 
Q 33.296875 19.34375 22.703125 23.09375 
L 19.28125 24.265625 
Q 5.90625 28.953125 5.90625 37.984375 
Q 5.90625 43.703125 9.8125 47.609375 
Q 14.5 52.296875 22.703125 52.296875 
Q 33.6875 52.296875 40.71875 44.671875 
z
" id="IPAexGothic-115"/>
       <path d="M 33.203125 3.765625 
Q 27.640625 -0.09375 21.828125 -0.09375 
Q 10.203125 -0.09375 10.203125 12.984375 
L 10.203125 44.671875 
L 3.421875 44.671875 
L 3.421875 50.78125 
L 10.203125 50.78125 
L 10.203125 61.96875 
L 18.40625 66.0625 
L 18.40625 50.78125 
L 32.234375 50.78125 
L 32.234375 44.671875 
L 18.40625 44.671875 
L 18.40625 14.15625 
Q 18.40625 6.5 23.640625 6.5 
Q 27.15625 6.5 30.328125 9.1875 
z
" id="IPAexGothic-116"/>
       <path d="M 7.28125 76.703125 
Q 25.59375 57.375 25.59375 29.296875 
Q 25.59375 1.171875 7.28125 -18.21875 
L 2.984375 -15.875 
Q 17.484375 3.375 17.484375 29.390625 
Q 17.484375 54.828125 2.984375 74.421875 
z
" id="IPAexGothic-41"/>
      </defs>
      <use xlink:href="#IPAexGothic-30330"/>
      <use x="100" xlink:href="#IPAexGothic-30151"/>
      <use x="200" xlink:href="#IPAexGothic-26085"/>
      <use x="300" xlink:href="#IPAexGothic-32"/>
      <use x="327.001953" xlink:href="#IPAexGothic-40"/>
      <use x="360.302734" xlink:href="#IPAexGothic-111"/>
      <use x="420.703125" xlink:href="#IPAexGothic-110"/>
      <use x="481.103516" xlink:href="#IPAexGothic-115"/>
      <use x="527.294922" xlink:href="#IPAexGothic-101"/>
      <use x="584.179688" xlink:href="#IPAexGothic-116"/>
      <use x="618.798828" xlink:href="#IPAexGothic-41"/>
     </g>
    </g>
    <g id="line2d_21">
     <path d="M 48.39375 46.89975 
L 68.39375 46.89975 
" style="fill:none;stroke:#ff7f0e;stroke-linecap:square;stroke-width:1.5;"/>
    </g>
    <g id="line2d_22">
     <g>
      <use style="fill:#ff7f0e;stroke:#ff7f0e;" x="58.39375" xlink:href="#mfaed004858" y="46.89975"/>
     </g>
    </g>
    <g id="text_19">
     <!--  (confirmed) -->
     <g transform="translate(76.39375 50.39975)scale(0.1 -0.1)">
      <defs>
       <path d="M 67.921875 50.296875 
Q 70.5625 55.28125 72.609375 61.8125 
L 79.296875 60.203125 
Q 76.171875 53.609375 74.21875 50.296875 
L 92 50.296875 
L 92 44.484375 
L 73.4375 44.484375 
L 73.4375 34.71875 
L 89.703125 34.71875 
L 89.703125 29.203125 
L 73.4375 29.203125 
L 73.4375 19.53125 
L 89.703125 19.53125 
L 89.703125 14.015625 
L 73.4375 14.015625 
L 73.4375 3.609375 
L 94.28125 3.609375 
L 94.28125 -2.203125 
L 54.109375 -2.203125 
L 54.109375 -6.984375 
L 47.609375 -6.984375 
L 47.609375 38.1875 
Q 43.0625 31.546875 38.8125 26.609375 
L 35.6875 32.8125 
Q 49.359375 49.953125 54.78125 64.796875 
L 45.515625 64.796875 
L 45.515625 53.515625 
L 39.203125 53.515625 
L 39.203125 70.609375 
L 56.78125 70.609375 
Q 58.59375 76.609375 60.109375 83.109375 
L 66.703125 81.890625 
Q 65.234375 75.53125 63.625 70.609375 
L 92.71875 70.609375 
L 92.71875 53.515625 
L 86.328125 53.515625 
L 86.328125 64.796875 
L 61.53125 64.796875 
Q 58.546875 56.984375 54.890625 50.296875 
z
M 67.140625 44.484375 
L 54.109375 44.484375 
L 54.109375 34.71875 
L 67.140625 34.71875 
z
M 67.140625 29.203125 
L 54.109375 29.203125 
L 54.109375 19.53125 
L 67.140625 19.53125 
z
M 67.140625 14.015625 
L 54.109375 14.015625 
L 54.109375 3.609375 
L 67.140625 3.609375 
z
M 18.109375 46 
L 35.546875 46 
L 35.546875 3.078125 
L 18.953125 3.078125 
L 18.953125 -5.125 
L 12.75 -5.125 
L 12.75 34.46875 
Q 10.15625 29.734375 6.15625 23.78125 
L 2.9375 29.984375 
Q 14.546875 47.078125 18.75 69 
L 6.34375 69 
L 6.34375 75.296875 
L 37.640625 75.296875 
L 37.640625 69 
L 25.25 69 
L 24.953125 68.015625 
Q 22.75 57.234375 18.109375 46 
z
M 18.953125 39.890625 
L 18.953125 9.1875 
L 29.34375 9.1875 
L 29.34375 39.890625 
z
" id="IPAexGothic-30906"/>
       <path d="M 53.609375 4.734375 
Q 61.421875 3.515625 73.578125 3.515625 
Q 81.109375 3.515625 94.578125 4.109375 
Q 93.171875 0.921875 92 -3.5625 
Q 81.78125 -3.90625 75.6875 -3.90625 
Q 55.765625 -3.90625 46.921875 -1.21875 
Q 35.296875 2.390625 27.34375 14.109375 
Q 22.515625 2.546875 12.59375 -7.171875 
L 7.421875 -1.171875 
Q 22.125 11.859375 26.3125 37.796875 
L 33.203125 35.984375 
Q 31.734375 27.4375 29.828125 21.1875 
Q 36.53125 10.59375 46.4375 6.5 
L 46.4375 46 
L 22.40625 46 
L 22.40625 52.390625 
L 77.484375 52.390625 
L 77.484375 46 
L 53.609375 46 
L 53.609375 31 
L 84.328125 31 
L 84.328125 24.515625 
L 53.609375 24.515625 
z
M 53.421875 69.1875 
L 89.84375 69.1875 
L 89.84375 49.46875 
L 82.421875 49.46875 
L 82.421875 62.890625 
L 17.53125 62.890625 
L 17.53125 49.46875 
L 10.109375 49.46875 
L 10.109375 69.1875 
L 45.90625 69.1875 
L 45.90625 83.015625 
L 53.421875 83.015625 
z
" id="IPAexGothic-23450"/>
       <path d="M 51.078125 12.25 
Q 44.28125 -0.484375 29.6875 -0.484375 
Q 19.1875 -0.484375 12.3125 6.390625 
Q 4.890625 13.921875 4.890625 25.984375 
Q 4.890625 37.9375 12.3125 45.515625 
Q 19.09375 52.296875 29.390625 52.296875 
Q 43.953125 52.296875 50.09375 39.703125 
L 43.171875 36.078125 
Q 38.8125 45.3125 29.6875 45.3125 
Q 23.6875 45.3125 19.28125 40.921875 
Q 13.765625 35.40625 13.765625 25.78125 
Q 13.765625 16.703125 19.09375 11.375 
Q 23.78125 6.6875 30.5625 6.6875 
Q 39.796875 6.6875 44.484375 15.875 
z
" id="IPAexGothic-99"/>
       <path d="M 38.375 72.21875 
L 34.8125 66.3125 
Q 31.109375 69.09375 27.203125 69.09375 
Q 18.5 69.09375 18.5 57.375 
L 18.5 50.78125 
L 32.078125 50.78125 
L 32.078125 44.671875 
L 18.5 44.671875 
L 18.5 0.984375 
L 10.015625 0.984375 
L 10.015625 44.671875 
L 1.90625 44.671875 
L 1.90625 50.78125 
L 10.015625 50.78125 
L 10.015625 57.171875 
Q 10.015625 65.4375 13.921875 70.0625 
Q 18.75 75.6875 26.703125 75.6875 
Q 33.0625 75.6875 38.375 72.21875 
z
" id="IPAexGothic-102"/>
       <path d="M 18.40625 61.375 
L 8.59375 61.375 
L 8.59375 71.390625 
L 18.40625 71.390625 
z
M 17.78125 0.984375 
L 9.1875 0.984375 
L 9.1875 50.78125 
L 17.78125 50.78125 
z
" id="IPAexGothic-105"/>
       <path d="M 78.46875 0.984375 
L 69.875 0.984375 
L 69.875 32.171875 
Q 69.875 44.828125 60.109375 44.828125 
Q 55.46875 44.828125 51.609375 40.53125 
Q 48.875 37.453125 47.796875 32.859375 
L 47.796875 0.984375 
L 39.203125 0.984375 
L 39.203125 32.28125 
Q 39.203125 44.828125 29.984375 44.828125 
Q 25.09375 44.828125 21.390625 40.53125 
Q 17.390625 36.03125 17.390625 31.890625 
L 17.390625 0.984375 
L 8.796875 0.984375 
L 8.796875 50.78125 
L 16.796875 50.78125 
L 16.796875 42.1875 
Q 21.734375 51.8125 31.6875 51.8125 
Q 42.578125 51.8125 46.1875 41.359375 
Q 51.609375 51.8125 61.765625 51.8125 
Q 69.96875 51.8125 74.5625 46 
Q 78.46875 41.21875 78.46875 32.375 
z
" id="IPAexGothic-109"/>
       <path d="M 52.984375 0.984375 
L 45.171875 0.984375 
L 45.171875 9.671875 
Q 38.140625 -0.484375 27.390625 -0.484375 
Q 18.453125 -0.484375 12.3125 5.8125 
Q 4.890625 13.1875 4.890625 25.984375 
Q 4.890625 38.53125 12.0625 45.90625 
Q 18.265625 52.203125 27.390625 52.203125 
Q 37.25 52.203125 44.484375 43.890625 
L 44.484375 74.90625 
L 52.984375 74.90625 
z
M 44.484375 20.359375 
L 44.484375 32.765625 
Q 44.484375 37.703125 38.375 42.28125 
Q 34.078125 45.40625 28.953125 45.40625 
Q 23.1875 45.40625 19.1875 41.40625 
Q 13.875 36.078125 13.875 26.21875 
Q 13.875 17.328125 18.265625 11.71875 
Q 22.515625 6.390625 28.859375 6.390625 
Q 36.28125 6.390625 41.5 13.671875 
Q 44.484375 17.71875 44.484375 20.359375 
z
" id="IPAexGothic-100"/>
      </defs>
      <use xlink:href="#IPAexGothic-30906"/>
      <use x="100" xlink:href="#IPAexGothic-23450"/>
      <use x="200" xlink:href="#IPAexGothic-26085"/>
      <use x="300" xlink:href="#IPAexGothic-32"/>
      <use x="327.001953" xlink:href="#IPAexGothic-40"/>
      <use x="360.302734" xlink:href="#IPAexGothic-99"/>
      <use x="414.697266" xlink:href="#IPAexGothic-111"/>
      <use x="475.097656" xlink:href="#IPAexGothic-110"/>
      <use x="535.498047" xlink:href="#IPAexGothic-102"/>
      <use x="566.113281" xlink:href="#IPAexGothic-105"/>
      <use x="593.115234" xlink:href="#IPAexGothic-114"/>
      <use x="630.126953" xlink:href="#IPAexGothic-109"/>
      <use x="717.236328" xlink:href="#IPAexGothic-101"/>
      <use x="774.121094" xlink:href="#IPAexGothic-100"/>
      <use x="836.523438" xlink:href="#IPAexGothic-41"/>
     </g>
    </g>
   </g>
  </g>
  <g id="text_20">
   <!-- generated: 2020-08-12 18:06:43 -->
   <g transform="translate(238.618437 14.690625)scale(0.1 -0.1)">
    <defs>
     <path d="M 21.390625 39.984375 
L 10.5 39.984375 
L 10.5 50.78125 
L 21.390625 50.78125 
z
M 21.390625 0.984375 
L 10.5 0.984375 
L 10.5 11.765625 
L 21.390625 11.765625 
z
" id="IPAexGothic-58"/>
     <path d="M 30.765625 26.609375 
L 4.984375 26.609375 
L 4.984375 34.421875 
L 30.765625 34.421875 
z
" id="IPAexGothic-45"/>
     <path d="M 39.703125 37.890625 
Q 57.8125 31.734375 57.8125 18.703125 
Q 57.8125 8.453125 48.4375 3.078125 
Q 41.609375 -0.875 31.5 -0.875 
Q 21.34375 -0.875 14.5 3.078125 
Q 5.421875 8.296875 5.421875 18.40625 
Q 5.421875 31.0625 22.015625 37.203125 
L 22.015625 37.5 
Q 7.515625 42.71875 7.515625 54.828125 
Q 7.515625 64.0625 15.328125 69.625 
Q 21.96875 74.3125 31.546875 74.3125 
Q 42.234375 74.3125 48.921875 68.796875 
Q 55.515625 63.578125 55.515625 55.71875 
Q 55.515625 42.28125 39.703125 38.1875 
z
M 31.59375 41.015625 
Q 46.828125 44.625 46.828125 55.125 
Q 46.828125 61.1875 41.796875 64.84375 
Q 37.703125 67.921875 31.5 67.921875 
Q 25.09375 67.921875 20.796875 64.5 
Q 16.40625 60.890625 16.40625 55.03125 
Q 16.40625 49.21875 21.09375 45.703125 
Q 23.34375 43.890625 26.90625 42.53125 
Q 31 40.875 31.59375 41.015625 
z
M 30.90625 34.515625 
Q 14.40625 30.171875 14.40625 19 
Q 14.40625 12.109375 20.515625 8.6875 
Q 25.09375 6.109375 31.390625 6.109375 
Q 40.234375 6.109375 45.015625 10.890625 
Q 48.53125 14.40625 48.53125 19.53125 
Q 48.53125 24.90625 43.65625 28.90625 
Q 40.765625 31.15625 36.71875 32.8125 
Q 31.984375 34.71875 30.90625 34.515625 
z
" id="IPAexGothic-56"/>
     <path d="M 16.5 36.375 
Q 23.578125 46.578125 34.90625 46.578125 
Q 45.40625 46.578125 51.8125 39.265625 
Q 57.421875 32.90625 57.421875 23.78125 
Q 57.421875 13.8125 51.125 6.78125 
Q 44.578125 -0.484375 34.03125 -0.484375 
Q 21.484375 -0.484375 14.40625 9.078125 
Q 7.515625 18.40625 7.515625 34.8125 
Q 7.515625 53.515625 15.828125 64.203125 
Q 23.34375 73.828125 35.5 73.828125 
Q 49.859375 73.828125 56.390625 62.890625 
L 49.21875 58.984375 
Q 45.21875 66.65625 35.9375 66.65625 
Q 17.484375 66.65625 16.109375 36.375 
z
M 33.453125 39.796875 
Q 26.3125 39.796875 21.625 34.46875 
Q 17.4375 29.6875 17.4375 24.078125 
Q 17.4375 18.0625 21.140625 13.1875 
Q 26.125 6.6875 33.734375 6.6875 
Q 41.703125 6.6875 45.953125 13.1875 
Q 48.828125 17.625 48.828125 23.484375 
Q 48.828125 30.375 45.015625 34.8125 
Q 40.625 39.796875 33.453125 39.796875 
z
" id="IPAexGothic-54"/>
     <path d="M 59.578125 18.109375 
L 47.796875 18.109375 
L 47.796875 0.984375 
L 39.796875 0.984375 
L 39.796875 18.109375 
L 3.078125 18.109375 
L 3.078125 26.125 
L 38.375 73.09375 
L 47.796875 73.09375 
L 47.796875 25.53125 
L 59.578125 25.53125 
z
M 40.28125 64.203125 
L 39.984375 64.203125 
Q 35.59375 57.125 31.296875 51.3125 
L 11.859375 25.53125 
L 39.796875 25.53125 
L 39.796875 49.125 
Q 39.796875 54.390625 40.28125 64.203125 
z
" id="IPAexGothic-52"/>
     <path d="M 37.203125 37.796875 
Q 54.78125 34.625 54.78125 19.96875 
Q 54.78125 11.1875 48.875 5.5625 
Q 42.328125 -0.484375 30.375 -0.484375 
Q 12.453125 -0.484375 4.5 13.765625 
L 11.8125 17.671875 
Q 17.328125 6.890625 30.28125 6.890625 
Q 37.890625 6.890625 42.09375 10.796875 
Q 46.09375 14.5 46.09375 20.171875 
Q 46.09375 26.859375 40.09375 30.90625 
Q 34.625 34.578125 25.6875 34.578125 
L 21.296875 34.578125 
L 21.296875 41.703125 
L 25.875 41.703125 
Q 34.859375 41.703125 39.59375 45.125 
Q 44.671875 48.734375 44.671875 54.828125 
Q 44.671875 61.46875 38.96875 64.65625 
Q 35.296875 66.84375 30.171875 66.84375 
Q 19.34375 66.84375 14.109375 55.90625 
L 6.78125 59.421875 
Q 14.015625 73.828125 30.28125 73.828125 
Q 40.578125 73.828125 46.96875 68.65625 
Q 53.375 63.578125 53.375 55.21875 
Q 53.375 47.3125 47.171875 42.28125 
Q 43.171875 39.0625 37.203125 38.1875 
z
" id="IPAexGothic-51"/>
    </defs>
    <use xlink:href="#IPAexGothic-103"/>
    <use x="55.517578" xlink:href="#IPAexGothic-101"/>
    <use x="112.402344" xlink:href="#IPAexGothic-110"/>
    <use x="172.802734" xlink:href="#IPAexGothic-101"/>
    <use x="229.6875" xlink:href="#IPAexGothic-114"/>
    <use x="266.699219" xlink:href="#IPAexGothic-97"/>
    <use x="321.679688" xlink:href="#IPAexGothic-116"/>
    <use x="356.298828" xlink:href="#IPAexGothic-101"/>
    <use x="413.183594" xlink:href="#IPAexGothic-100"/>
    <use x="475.585938" xlink:href="#IPAexGothic-58"/>
    <use x="507.568359" xlink:href="#IPAexGothic-32"/>
    <use x="534.570312" xlink:href="#IPAexGothic-50"/>
    <use x="597.558594" xlink:href="#IPAexGothic-48"/>
    <use x="660.546875" xlink:href="#IPAexGothic-50"/>
    <use x="723.535156" xlink:href="#IPAexGothic-48"/>
    <use x="786.523438" xlink:href="#IPAexGothic-45"/>
    <use x="822.314453" xlink:href="#IPAexGothic-48"/>
    <use x="885.302734" xlink:href="#IPAexGothic-56"/>
    <use x="948.291016" xlink:href="#IPAexGothic-45"/>
    <use x="984.082031" xlink:href="#IPAexGothic-49"/>
    <use x="1047.070312" xlink:href="#IPAexGothic-50"/>
    <use x="1110.058594" xlink:href="#IPAexGothic-32"/>
    <use x="1137.060547" xlink:href="#IPAexGothic-49"/>
    <use x="1200.048828" xlink:href="#IPAexGothic-56"/>
    <use x="1263.037109" xlink:href="#IPAexGothic-58"/>
    <use x="1295.019531" xlink:href="#IPAexGothic-48"/>
    <use x="1358.007812" xlink:href="#IPAexGothic-54"/>
    <use x="1420.996094" xlink:href="#IPAexGothic-58"/>
    <use x="1452.978516" xlink:href="#IPAexGothic-52"/>
    <use x="1515.966797" xlink:href="#IPAexGothic-51"/>
   </g>
  </g>
 </g>
 <defs>
  <clipPath id="peb1705fcc0">
   <rect height="266.112" width="357.12" x="39.39375" y="18.146625"/>
  </clipPath>
 </defs>
</svg>
