<?xml version="1.0" encoding="utf-8" standalone="no"?>
<!DOCTYPE svg PUBLIC "-//W3C//DTD SVG 1.1//EN"
  "http://www.w3.org/Graphics/SVG/1.1/DTD/svg11.dtd">
<!-- Created with matplotlib (https://matplotlib.org/) -->
<svg height="309.29325pt" version="1.1" viewBox="0 0 402.819033 309.29325" width="402.819033pt" xmlns="http://www.w3.org/2000/svg" xmlns:xlink="http://www.w3.org/1999/xlink">
 <defs>
  <style type="text/css">
*{stroke-linecap:butt;stroke-linejoin:round;}
  </style>
 </defs>
 <g id="figure_1">
  <g id="patch_1">
   <path d="M 0 309.29325 
L 402.819033 309.29325 
L 402.819033 0 
L 0 0 
z
" style="fill:#ffffff;"/>
  </g>
  <g id="axes_1">
   <g id="patch_2">
    <path d="M 33.095313 273.312 
L 390.215312 273.312 
L 390.215312 7.2 
L 33.095313 7.2 
z
" style="fill:#ffffff;"/>
   </g>
   <g id="matplotlib.axis_1">
    <g id="xtick_1">
     <g id="line2d_1">
      <defs>
       <path d="M 0 0 
L 0 3.5 
" id="m099dcd9f1b" style="stroke:#000000;stroke-width:0.8;"/>
      </defs>
      <g>
       <use style="stroke:#000000;stroke-width:0.8;" x="44.21537" xlink:href="#m099dcd9f1b" y="273.312"/>
      </g>
     </g>
     <g id="text_1">
      <!-- Jan -->
      <defs>
       <path d="M 28.421875 72.40625 
L 28.421875 19.28125 
Q 28.421875 -0.484375 11.921875 -0.484375 
Q 4.734375 -0.484375 -1.953125 3.265625 
L 1.3125 10.0625 
Q 5.90625 6.984375 10.84375 6.984375 
Q 19.53125 6.984375 19.53125 18.796875 
L 19.53125 72.40625 
z
" id="IPAexGothic-74"/>
       <path d="M 49.3125 0.984375 
L 41.75 0.984375 
Q 39.984375 4.734375 39.546875 8.6875 
L 39.203125 8.6875 
Q 33.546875 -0.390625 22.3125 -0.390625 
Q 14.59375 -0.390625 9.71875 4.5 
Q 5.421875 8.796875 5.421875 14.984375 
Q 5.421875 30.421875 32.03125 31.203125 
L 38.71875 31.390625 
L 38.71875 33.984375 
Q 38.71875 39.203125 35.75 42.1875 
Q 32.625 45.3125 27.734375 45.3125 
Q 19.34375 45.3125 15.140625 37.15625 
L 7.71875 40.578125 
Q 14.65625 52 27.9375 52 
Q 37.109375 52 42.046875 46.875 
Q 46.625 42.28125 46.625 33.890625 
L 46.625 15.578125 
Q 46.625 6.25 49.3125 0.984375 
z
M 38.921875 25.390625 
L 33.453125 25.296875 
Q 14.109375 24.859375 14.109375 14.890625 
Q 14.109375 11.375 16.40625 9.078125 
Q 19.234375 6.296875 23.828125 6.296875 
Q 30.21875 6.296875 34.90625 10.984375 
Q 38.921875 15.140625 38.921875 21 
z
" id="IPAexGothic-97"/>
       <path d="M 52 0.984375 
L 43.40625 0.984375 
L 43.40625 31.890625 
Q 43.40625 44.578125 32.90625 44.578125 
Q 22.3125 44.578125 17.390625 31.890625 
L 17.390625 0.984375 
L 8.796875 0.984375 
L 8.796875 50.78125 
L 16.796875 50.78125 
L 16.796875 41.796875 
Q 23.828125 51.8125 34.71875 51.8125 
Q 52 51.8125 52 32.375 
z
" id="IPAexGothic-110"/>
      </defs>
      <g transform="translate(36.54662 287.802625)scale(0.1 -0.1)">
       <use xlink:href="#IPAexGothic-74"/>
       <use x="37.988281" xlink:href="#IPAexGothic-97"/>
       <use x="92.96875" xlink:href="#IPAexGothic-110"/>
      </g>
     </g>
    </g>
    <g id="xtick_2">
     <g id="line2d_2">
      <g>
       <use style="stroke:#000000;stroke-width:0.8;" x="80.00406" xlink:href="#m099dcd9f1b" y="273.312"/>
      </g>
     </g>
     <g id="text_2">
      <!-- 15 -->
      <defs>
       <path d="M 38.484375 0.984375 
L 29.6875 0.984375 
L 29.6875 64.109375 
Q 21.4375 61.28125 12.3125 59.328125 
L 10.6875 66.109375 
Q 23.734375 69.390625 32.90625 73.921875 
L 38.484375 73.921875 
z
" id="IPAexGothic-49"/>
       <path d="M 18.40625 40.671875 
Q 25.53125 46.296875 33.9375 46.296875 
Q 44 46.296875 50.640625 39.5 
Q 56.84375 33.015625 56.84375 23.390625 
Q 56.84375 14.65625 51.515625 8.015625 
Q 44.828125 -0.484375 31.734375 -0.484375 
Q 14.984375 -0.484375 7.328125 12.25 
L 14.65625 16.0625 
Q 20.453125 6.78125 31.453125 6.78125 
Q 38.53125 6.78125 43.265625 11.1875 
Q 48.140625 15.828125 48.140625 23.484375 
Q 48.140625 30.71875 43.84375 35.015625 
Q 39.359375 39.5 32.125 39.5 
Q 21.96875 39.5 16.75 31.6875 
L 9.234375 32.671875 
L 13.8125 72.40625 
L 53.21875 72.40625 
L 53.21875 64.890625 
L 20.953125 64.890625 
L 17.71875 40.671875 
z
" id="IPAexGothic-53"/>
      </defs>
      <g transform="translate(73.705622 287.802625)scale(0.1 -0.1)">
       <use xlink:href="#IPAexGothic-49"/>
       <use x="62.988281" xlink:href="#IPAexGothic-53"/>
      </g>
     </g>
    </g>
    <g id="xtick_3">
     <g id="line2d_3">
      <g>
       <use style="stroke:#000000;stroke-width:0.8;" x="123.461755" xlink:href="#m099dcd9f1b" y="273.312"/>
      </g>
     </g>
     <g id="text_3">
      <!-- Feb -->
      <defs>
       <path d="M 54.203125 64.703125 
L 18.3125 64.703125 
L 18.3125 41.5 
L 50.09375 41.5 
L 50.09375 34.1875 
L 18.3125 34.1875 
L 18.3125 0.984375 
L 9.515625 0.984375 
L 9.515625 72.40625 
L 54.203125 72.40625 
z
" id="IPAexGothic-70"/>
       <path d="M 13.484375 24.90625 
Q 13.921875 16.265625 18.890625 11.28125 
Q 23.96875 6.203125 31.203125 6.203125 
Q 40.71875 6.203125 46.296875 15.09375 
L 51.90625 11.375 
Q 44.828125 -0.484375 30.171875 -0.484375 
Q 19.09375 -0.484375 11.96875 6.59375 
Q 4.78125 13.8125 4.78125 25.640625 
Q 4.78125 38.1875 12.3125 45.703125 
Q 19 52.390625 29 52.390625 
Q 38.421875 52.390625 44.78125 46.1875 
Q 51.90625 38.96875 51.90625 26.90625 
L 51.90625 24.90625 
z
M 43.0625 31.203125 
Q 42.328125 37.984375 38.28125 41.890625 
Q 34.28125 45.90625 28.8125 45.90625 
Q 22.46875 45.90625 17.96875 40.484375 
Q 14.890625 36.8125 13.96875 31.203125 
z
" id="IPAexGothic-101"/>
       <path d="M 17.578125 42.671875 
Q 24.21875 52.203125 34.671875 52.203125 
Q 43.5625 52.203125 49.859375 45.90625 
Q 57.171875 38.578125 57.171875 25.6875 
Q 57.171875 13.09375 49.859375 5.8125 
Q 43.5625 -0.484375 34.46875 -0.484375 
Q 24.359375 -0.484375 17 8.0625 
L 15.765625 0.6875 
L 9.078125 0.6875 
L 9.078125 74.90625 
L 17.578125 74.90625 
z
M 17.578125 31.203125 
L 17.578125 19.578125 
Q 17.578125 13.875 23.875 9.375 
Q 28.171875 6.296875 33.109375 6.296875 
Q 38.875 6.296875 42.875 10.296875 
Q 48.1875 15.765625 48.1875 25.484375 
Q 48.1875 34.28125 43.796875 39.890625 
Q 39.453125 45.3125 33.203125 45.3125 
Q 27.484375 45.3125 22.46875 40.28125 
Q 17.578125 35.40625 17.578125 31.203125 
z
" id="IPAexGothic-98"/>
      </defs>
      <g transform="translate(114.638317 287.802625)scale(0.1 -0.1)">
       <use xlink:href="#IPAexGothic-70"/>
       <use x="57.177734" xlink:href="#IPAexGothic-101"/>
       <use x="114.0625" xlink:href="#IPAexGothic-98"/>
      </g>
     </g>
    </g>
    <g id="xtick_4">
     <g id="line2d_4">
      <g>
       <use style="stroke:#000000;stroke-width:0.8;" x="159.250445" xlink:href="#m099dcd9f1b" y="273.312"/>
      </g>
     </g>
     <g id="text_4">
      <!-- 15 -->
      <g transform="translate(152.952007 287.802625)scale(0.1 -0.1)">
       <use xlink:href="#IPAexGothic-49"/>
       <use x="62.988281" xlink:href="#IPAexGothic-53"/>
      </g>
     </g>
    </g>
    <g id="xtick_5">
     <g id="line2d_5">
      <g>
       <use style="stroke:#000000;stroke-width:0.8;" x="197.59547" xlink:href="#m099dcd9f1b" y="273.312"/>
      </g>
     </g>
     <g id="text_5">
      <!-- Mar -->
      <defs>
       <path d="M 80.421875 0.984375 
L 71.828125 0.984375 
L 71.828125 39.59375 
Q 71.828125 51.265625 72.40625 64.59375 
L 72.015625 64.59375 
Q 68.0625 53.265625 63.53125 41.796875 
L 47.90625 3.265625 
L 41.40625 3.265625 
L 25.640625 42.578125 
Q 20.75 54.78125 17.625 64.703125 
L 17.234375 64.703125 
Q 17.828125 48.921875 17.828125 39.890625 
L 17.828125 0.984375 
L 9.515625 0.984375 
L 9.515625 72.40625 
L 22.125 72.40625 
L 39.109375 30.375 
Q 42.140625 23 44.828125 14.15625 
L 45.125 14.15625 
Q 47.3125 22.125 50.53125 30.171875 
L 67.4375 72.40625 
L 80.421875 72.40625 
z
" id="IPAexGothic-77"/>
       <path d="M 36.078125 51.8125 
L 34.578125 43.265625 
Q 32.90625 43.609375 31.59375 43.609375 
Q 25.828125 43.609375 22.078125 38.1875 
Q 17.390625 31.34375 17.390625 26.171875 
L 17.390625 0.984375 
L 8.796875 0.984375 
L 8.796875 50.78125 
L 16.890625 50.78125 
L 16.5 35.984375 
L 16.703125 35.984375 
Q 22.21875 52.203125 32.765625 52.203125 
Q 34.46875 52.203125 36.078125 51.8125 
z
" id="IPAexGothic-114"/>
      </defs>
      <g transform="translate(188.486095 287.802625)scale(0.1 -0.1)">
       <use xlink:href="#IPAexGothic-77"/>
       <use x="90.185547" xlink:href="#IPAexGothic-97"/>
       <use x="145.166016" xlink:href="#IPAexGothic-114"/>
      </g>
     </g>
    </g>
    <g id="xtick_6">
     <g id="line2d_6">
      <g>
       <use style="stroke:#000000;stroke-width:0.8;" x="233.38416" xlink:href="#m099dcd9f1b" y="273.312"/>
      </g>
     </g>
     <g id="text_6">
      <!-- 15 -->
      <g transform="translate(227.085723 287.802625)scale(0.1 -0.1)">
       <use xlink:href="#IPAexGothic-49"/>
       <use x="62.988281" xlink:href="#IPAexGothic-53"/>
      </g>
     </g>
    </g>
    <g id="xtick_7">
     <g id="line2d_7">
      <g>
       <use style="stroke:#000000;stroke-width:0.8;" x="276.841855" xlink:href="#m099dcd9f1b" y="273.312"/>
      </g>
     </g>
     <g id="text_7">
      <!-- Apr -->
      <defs>
       <path d="M 63.375 0.984375 
L 53.8125 0.984375 
L 45.90625 22.015625 
L 17.1875 22.015625 
L 9.421875 0.984375 
L -0.09375 0.984375 
L 28.21875 72.90625 
L 35.296875 72.90625 
z
M 43.40625 29.109375 
L 36.1875 48.09375 
Q 33.203125 56.0625 31.6875 62.5 
L 31.390625 62.5 
Q 29.640625 55.671875 26.8125 48.09375 
L 19.734375 29.109375 
z
" id="IPAexGothic-65"/>
       <path d="M 16.796875 42 
Q 23.828125 52.203125 34.46875 52.203125 
Q 43.265625 52.203125 49.5625 45.90625 
Q 56.890625 38.578125 56.890625 25.6875 
Q 56.890625 13.140625 49.65625 5.8125 
Q 43.359375 -0.484375 34.375 -0.484375 
Q 24.515625 -0.484375 17.28125 7.765625 
L 17.28125 -19 
L 8.796875 -19 
L 8.796875 50.78125 
L 16.796875 50.78125 
z
M 17.28125 30.46875 
L 17.28125 20.171875 
Q 17.28125 14.015625 23.6875 9.375 
Q 27.984375 6.296875 32.90625 6.296875 
Q 38.578125 6.296875 42.578125 10.296875 
Q 47.90625 15.578125 47.90625 25.484375 
Q 47.90625 34.375 43.5 39.984375 
Q 39.109375 45.3125 32.8125 45.3125 
Q 25.875 45.3125 20.90625 38.8125 
Q 17.28125 34.125 17.28125 30.46875 
z
" id="IPAexGothic-112"/>
      </defs>
      <g transform="translate(268.699668 287.802625)scale(0.1 -0.1)">
       <use xlink:href="#IPAexGothic-65"/>
       <use x="63.720703" xlink:href="#IPAexGothic-112"/>
       <use x="125.830078" xlink:href="#IPAexGothic-114"/>
      </g>
     </g>
    </g>
    <g id="xtick_8">
     <g id="line2d_8">
      <g>
       <use style="stroke:#000000;stroke-width:0.8;" x="312.630545" xlink:href="#m099dcd9f1b" y="273.312"/>
      </g>
     </g>
     <g id="text_8">
      <!-- 15 -->
      <g transform="translate(306.332108 287.802625)scale(0.1 -0.1)">
       <use xlink:href="#IPAexGothic-49"/>
       <use x="62.988281" xlink:href="#IPAexGothic-53"/>
      </g>
     </g>
    </g>
    <g id="xtick_9">
     <g id="line2d_9">
      <g>
       <use style="stroke:#000000;stroke-width:0.8;" x="353.531905" xlink:href="#m099dcd9f1b" y="273.312"/>
      </g>
     </g>
     <g id="text_9">
      <!-- May -->
      <defs>
       <path d="M 48.78125 50.78125 
L 24.609375 -7.625 
Q 19.96875 -18.796875 8.59375 -18.796875 
L 7.46875 -18.796875 
L 5.375 -10.984375 
L 6.984375 -10.984375 
Q 15.140625 -10.984375 17.96875 -3.71875 
L 21.1875 4.296875 
L 0.59375 50.78125 
L 10.296875 50.78125 
L 21.296875 22.796875 
Q 23.875 16.015625 25.09375 12.203125 
L 25.390625 12.203125 
Q 27.34375 18.265625 29.109375 22.796875 
L 39.5 50.78125 
z
" id="IPAexGothic-121"/>
      </defs>
      <g transform="translate(343.812374 287.802625)scale(0.1 -0.1)">
       <use xlink:href="#IPAexGothic-77"/>
       <use x="90.185547" xlink:href="#IPAexGothic-97"/>
       <use x="145.166016" xlink:href="#IPAexGothic-121"/>
      </g>
     </g>
    </g>
    <g id="xtick_10">
     <g id="line2d_10">
      <g>
       <use style="stroke:#000000;stroke-width:0.8;" x="389.320595" xlink:href="#m099dcd9f1b" y="273.312"/>
      </g>
     </g>
     <g id="text_10">
      <!-- 15 -->
      <g transform="translate(383.022158 287.802625)scale(0.1 -0.1)">
       <use xlink:href="#IPAexGothic-49"/>
       <use x="62.988281" xlink:href="#IPAexGothic-53"/>
      </g>
     </g>
    </g>
    <g id="text_11">
     <!-- 2020-May -->
     <defs>
      <path d="M 57.171875 0.984375 
L 6.984375 0.984375 
L 6.984375 9.28125 
Q 12.890625 23.046875 29.59375 34.421875 
L 32.375 36.28125 
Q 40.921875 42.140625 43.609375 45.40625 
Q 46.6875 49.265625 46.6875 53.8125 
Q 46.6875 58.9375 43.0625 62.546875 
Q 39.0625 66.546875 32.5625 66.546875 
Q 19.53125 66.546875 15.484375 52 
L 7.765625 54.78125 
Q 13.328125 73.828125 33.0625 73.828125 
Q 43.84375 73.828125 50.25 67.4375 
Q 55.859375 61.671875 55.859375 53.515625 
Q 55.859375 47.46875 52.25 42.53125 
Q 48.921875 37.75 36.96875 30.28125 
L 34.859375 29 
Q 19.625 19.578125 15.28125 8.890625 
L 57.171875 8.890625 
z
" id="IPAexGothic-50"/>
      <path d="M 31.84375 73.828125 
Q 45.015625 73.828125 52.09375 61.625 
Q 57.71875 51.953125 57.71875 36.625 
Q 57.71875 21.4375 52.09375 11.578125 
Q 45.125 -0.484375 31.5 -0.484375 
Q 17.921875 -0.484375 10.9375 11.578125 
Q 5.328125 21.4375 5.328125 36.71875 
Q 5.328125 58.015625 15.625 67.71875 
Q 22.171875 73.828125 31.84375 73.828125 
z
M 31.5 66.65625 
Q 23.6875 66.65625 19.1875 58.734375 
Q 14.59375 50.734375 14.59375 36.625 
Q 14.59375 22.75 19.09375 14.796875 
Q 23.640625 6.984375 31.5 6.984375 
Q 40.921875 6.984375 45.453125 18.015625 
Q 48.4375 25.34375 48.4375 37.109375 
Q 48.4375 50.875 43.84375 58.734375 
Q 39.203125 66.65625 31.5 66.65625 
z
" id="IPAexGothic-48"/>
      <path d="M 30.765625 26.609375 
L 4.984375 26.609375 
L 4.984375 34.421875 
L 30.765625 34.421875 
z
" id="IPAexGothic-45"/>
     </defs>
     <g transform="translate(342.002813 300.19325)scale(0.1 -0.1)">
      <use xlink:href="#IPAexGothic-50"/>
      <use x="62.988281" xlink:href="#IPAexGothic-48"/>
      <use x="125.976562" xlink:href="#IPAexGothic-50"/>
      <use x="188.964844" xlink:href="#IPAexGothic-48"/>
      <use x="251.953125" xlink:href="#IPAexGothic-45"/>
      <use x="287.744141" xlink:href="#IPAexGothic-77"/>
      <use x="377.929688" xlink:href="#IPAexGothic-97"/>
      <use x="432.910156" xlink:href="#IPAexGothic-121"/>
     </g>
    </g>
   </g>
   <g id="matplotlib.axis_2">
    <g id="ytick_1">
     <g id="line2d_11">
      <defs>
       <path d="M 0 0 
L -3.5 0 
" id="mbf87b3ef3f" style="stroke:#000000;stroke-width:0.8;"/>
      </defs>
      <g>
       <use style="stroke:#000000;stroke-width:0.8;" x="33.095313" xlink:href="#mbf87b3ef3f" y="261.216"/>
      </g>
     </g>
     <g id="text_12">
      <!-- 0 -->
      <g transform="translate(19.796875 264.961312)scale(0.1 -0.1)">
       <use xlink:href="#IPAexGothic-48"/>
      </g>
     </g>
    </g>
    <g id="ytick_2">
     <g id="line2d_12">
      <g>
       <use style="stroke:#000000;stroke-width:0.8;" x="33.095313" xlink:href="#mbf87b3ef3f" y="226.35721"/>
      </g>
     </g>
     <g id="text_13">
      <!-- 100 -->
      <g transform="translate(7.2 230.102523)scale(0.1 -0.1)">
       <use xlink:href="#IPAexGothic-49"/>
       <use x="62.988281" xlink:href="#IPAexGothic-48"/>
       <use x="125.976562" xlink:href="#IPAexGothic-48"/>
      </g>
     </g>
    </g>
    <g id="ytick_3">
     <g id="line2d_13">
      <g>
       <use style="stroke:#000000;stroke-width:0.8;" x="33.095313" xlink:href="#mbf87b3ef3f" y="191.498421"/>
      </g>
     </g>
     <g id="text_14">
      <!-- 200 -->
      <g transform="translate(7.2 195.243733)scale(0.1 -0.1)">
       <use xlink:href="#IPAexGothic-50"/>
       <use x="62.988281" xlink:href="#IPAexGothic-48"/>
       <use x="125.976562" xlink:href="#IPAexGothic-48"/>
      </g>
     </g>
    </g>
    <g id="ytick_4">
     <g id="line2d_14">
      <g>
       <use style="stroke:#000000;stroke-width:0.8;" x="33.095313" xlink:href="#mbf87b3ef3f" y="156.639631"/>
      </g>
     </g>
     <g id="text_15">
      <!-- 300 -->
      <defs>
       <path d="M 37.203125 37.796875 
Q 54.78125 34.625 54.78125 19.96875 
Q 54.78125 11.1875 48.875 5.5625 
Q 42.328125 -0.484375 30.375 -0.484375 
Q 12.453125 -0.484375 4.5 13.765625 
L 11.8125 17.671875 
Q 17.328125 6.890625 30.28125 6.890625 
Q 37.890625 6.890625 42.09375 10.796875 
Q 46.09375 14.5 46.09375 20.171875 
Q 46.09375 26.859375 40.09375 30.90625 
Q 34.625 34.578125 25.6875 34.578125 
L 21.296875 34.578125 
L 21.296875 41.703125 
L 25.875 41.703125 
Q 34.859375 41.703125 39.59375 45.125 
Q 44.671875 48.734375 44.671875 54.828125 
Q 44.671875 61.46875 38.96875 64.65625 
Q 35.296875 66.84375 30.171875 66.84375 
Q 19.34375 66.84375 14.109375 55.90625 
L 6.78125 59.421875 
Q 14.015625 73.828125 30.28125 73.828125 
Q 40.578125 73.828125 46.96875 68.65625 
Q 53.375 63.578125 53.375 55.21875 
Q 53.375 47.3125 47.171875 42.28125 
Q 43.171875 39.0625 37.203125 38.1875 
z
" id="IPAexGothic-51"/>
      </defs>
      <g transform="translate(7.2 160.384944)scale(0.1 -0.1)">
       <use xlink:href="#IPAexGothic-51"/>
       <use x="62.988281" xlink:href="#IPAexGothic-48"/>
       <use x="125.976562" xlink:href="#IPAexGothic-48"/>
      </g>
     </g>
    </g>
    <g id="ytick_5">
     <g id="line2d_15">
      <g>
       <use style="stroke:#000000;stroke-width:0.8;" x="33.095313" xlink:href="#mbf87b3ef3f" y="121.780841"/>
      </g>
     </g>
     <g id="text_16">
      <!-- 400 -->
      <defs>
       <path d="M 59.578125 18.109375 
L 47.796875 18.109375 
L 47.796875 0.984375 
L 39.796875 0.984375 
L 39.796875 18.109375 
L 3.078125 18.109375 
L 3.078125 26.125 
L 38.375 73.09375 
L 47.796875 73.09375 
L 47.796875 25.53125 
L 59.578125 25.53125 
z
M 40.28125 64.203125 
L 39.984375 64.203125 
Q 35.59375 57.125 31.296875 51.3125 
L 11.859375 25.53125 
L 39.796875 25.53125 
L 39.796875 49.125 
Q 39.796875 54.390625 40.28125 64.203125 
z
" id="IPAexGothic-52"/>
      </defs>
      <g transform="translate(7.2 125.526154)scale(0.1 -0.1)">
       <use xlink:href="#IPAexGothic-52"/>
       <use x="62.988281" xlink:href="#IPAexGothic-48"/>
       <use x="125.976562" xlink:href="#IPAexGothic-48"/>
      </g>
     </g>
    </g>
    <g id="ytick_6">
     <g id="line2d_16">
      <g>
       <use style="stroke:#000000;stroke-width:0.8;" x="33.095313" xlink:href="#mbf87b3ef3f" y="86.922052"/>
      </g>
     </g>
     <g id="text_17">
      <!-- 500 -->
      <g transform="translate(7.2 90.667364)scale(0.1 -0.1)">
       <use xlink:href="#IPAexGothic-53"/>
       <use x="62.988281" xlink:href="#IPAexGothic-48"/>
       <use x="125.976562" xlink:href="#IPAexGothic-48"/>
      </g>
     </g>
    </g>
    <g id="ytick_7">
     <g id="line2d_17">
      <g>
       <use style="stroke:#000000;stroke-width:0.8;" x="33.095313" xlink:href="#mbf87b3ef3f" y="52.063262"/>
      </g>
     </g>
     <g id="text_18">
      <!-- 600 -->
      <defs>
       <path d="M 16.5 36.375 
Q 23.578125 46.578125 34.90625 46.578125 
Q 45.40625 46.578125 51.8125 39.265625 
Q 57.421875 32.90625 57.421875 23.78125 
Q 57.421875 13.8125 51.125 6.78125 
Q 44.578125 -0.484375 34.03125 -0.484375 
Q 21.484375 -0.484375 14.40625 9.078125 
Q 7.515625 18.40625 7.515625 34.8125 
Q 7.515625 53.515625 15.828125 64.203125 
Q 23.34375 73.828125 35.5 73.828125 
Q 49.859375 73.828125 56.390625 62.890625 
L 49.21875 58.984375 
Q 45.21875 66.65625 35.9375 66.65625 
Q 17.484375 66.65625 16.109375 36.375 
z
M 33.453125 39.796875 
Q 26.3125 39.796875 21.625 34.46875 
Q 17.4375 29.6875 17.4375 24.078125 
Q 17.4375 18.0625 21.140625 13.1875 
Q 26.125 6.6875 33.734375 6.6875 
Q 41.703125 6.6875 45.953125 13.1875 
Q 48.828125 17.625 48.828125 23.484375 
Q 48.828125 30.375 45.015625 34.8125 
Q 40.625 39.796875 33.453125 39.796875 
z
" id="IPAexGothic-54"/>
      </defs>
      <g transform="translate(7.2 55.808575)scale(0.1 -0.1)">
       <use xlink:href="#IPAexGothic-54"/>
       <use x="62.988281" xlink:href="#IPAexGothic-48"/>
       <use x="125.976562" xlink:href="#IPAexGothic-48"/>
      </g>
     </g>
    </g>
    <g id="ytick_8">
     <g id="line2d_18">
      <g>
       <use style="stroke:#000000;stroke-width:0.8;" x="33.095313" xlink:href="#mbf87b3ef3f" y="17.204473"/>
      </g>
     </g>
     <g id="text_19">
      <!-- 700 -->
      <defs>
       <path d="M 56.203125 66.609375 
Q 34.96875 32.90625 27.78125 0.984375 
L 17.671875 0.984375 
Q 24.703125 28.65625 46.09375 64.5 
L 6.6875 64.5 
L 6.6875 72.40625 
L 56.203125 72.40625 
z
" id="IPAexGothic-55"/>
      </defs>
      <g transform="translate(7.2 20.949785)scale(0.1 -0.1)">
       <use xlink:href="#IPAexGothic-55"/>
       <use x="62.988281" xlink:href="#IPAexGothic-48"/>
       <use x="125.976562" xlink:href="#IPAexGothic-48"/>
      </g>
     </g>
    </g>
   </g>
   <g id="line2d_19">
    <path clip-path="url(#p2539af45fd)" d="M 49.32804 260.867412 
L 51.884375 261.216 
L 74.89139 261.216 
L 77.447725 260.518824 
L 80.00406 261.216 
L 90.2294 261.216 
L 92.785735 260.170236 
L 95.34207 260.867412 
L 97.898405 260.518824 
L 100.45474 260.867412 
L 103.011075 260.518824 
L 105.56741 260.518824 
L 108.123745 260.170236 
L 110.68008 261.216 
L 115.79275 260.518824 
L 118.349085 260.867412 
L 120.90542 259.821648 
L 123.461755 260.170236 
L 126.01809 259.821648 
L 128.574425 258.427297 
L 133.687095 260.518824 
L 136.24343 259.124473 
L 138.799765 259.473061 
L 141.3561 260.518824 
L 143.912435 260.867412 
L 146.46877 258.078709 
L 149.025105 261.216 
L 151.58144 258.775885 
L 154.137775 258.775885 
L 156.69411 258.078709 
L 159.250445 258.078709 
L 161.80678 255.987182 
L 164.363115 257.381533 
L 166.91945 256.335769 
L 169.475785 255.987182 
L 172.03212 253.547066 
L 174.588455 254.941418 
L 177.14479 254.244242 
L 179.701125 253.198478 
L 182.25746 252.501303 
L 184.813795 249.712599 
L 187.37013 250.758363 
L 189.926465 252.501303 
L 192.4828 248.666836 
L 195.039135 252.501303 
L 197.59547 251.804127 
L 200.151805 246.923896 
L 202.70814 252.501303 
L 205.264475 250.061187 
L 207.82081 251.106951 
L 210.377145 251.804127 
L 212.93348 247.96966 
L 215.489815 250.061187 
L 218.04615 245.878133 
L 220.602485 251.804127 
L 223.15882 247.272484 
L 225.715155 250.061187 
L 228.27149 245.529545 
L 230.827825 250.758363 
L 233.38416 249.712599 
L 235.940495 247.272484 
L 238.49683 243.438017 
L 241.053165 241.695078 
L 243.6095 235.769084 
L 246.165835 239.952138 
L 248.72217 235.769084 
L 251.278505 234.374732 
L 253.83484 223.568507 
L 256.391175 228.10015 
L 258.94751 221.47698 
L 261.503845 217.293925 
L 264.06018 186.61819 
L 266.616515 195.332888 
L 269.17285 194.635712 
L 271.729185 161.171274 
L 274.28552 161.519862 
L 276.841855 139.907412 
L 279.39819 161.519862 
L 281.954525 139.558824 
L 284.51086 159.079746 
L 287.067195 173.720438 
L 289.62353 151.062225 
L 292.179865 166.400092 
L 294.7362 164.657153 
L 297.292535 182.435135 
L 299.84887 176.509141 
L 302.405205 178.252081 
L 304.96154 193.24136 
L 307.517875 185.921014 
L 310.07421 188.709718 
L 312.630545 191.149833 
L 315.18688 212.762282 
L 317.743215 207.184876 
L 320.29955 211.367931 
L 322.855885 221.825568 
L 325.41222 207.882052 
L 327.968555 224.962859 
L 330.52489 223.219919 
L 333.081225 235.769084 
L 335.63756 225.660035 
L 338.193895 236.814847 
L 340.75023 235.769084 
L 343.306565 232.631793 
L 345.8629 241.34649 
L 348.419235 246.575308 
L 350.97557 242.740841 
L 353.531905 245.878133 
L 356.08824 245.529545 
L 358.644575 252.152715 
L 361.20091 255.290006 
L 363.757245 256.684357 
L 366.31358 256.335769 
L 368.869915 259.473061 
L 371.42625 260.518824 
L 373.982585 261.216 
L 373.982585 261.216 
" style="fill:none;stroke:#1f77b4;stroke-linecap:square;stroke-width:1.5;"/>
    <defs>
     <path d="M 0 3 
C 0.795609 3 1.55874 2.683901 2.12132 2.12132 
C 2.683901 1.55874 3 0.795609 3 0 
C 3 -0.795609 2.683901 -1.55874 2.12132 -2.12132 
C 1.55874 -2.683901 0.795609 -3 0 -3 
C -0.795609 -3 -1.55874 -2.683901 -2.12132 -2.12132 
C -2.683901 -1.55874 -3 -0.795609 -3 0 
C -3 0.795609 -2.683901 1.55874 -2.12132 2.12132 
C -1.55874 2.683901 -0.795609 3 0 3 
z
" id="m15091cef32" style="stroke:#1f77b4;"/>
    </defs>
    <g clip-path="url(#p2539af45fd)">
     <use style="fill:#1f77b4;stroke:#1f77b4;" x="49.32804" xlink:href="#m15091cef32" y="260.867412"/>
     <use style="fill:#1f77b4;stroke:#1f77b4;" x="51.884375" xlink:href="#m15091cef32" y="261.216"/>
     <use style="fill:#1f77b4;stroke:#1f77b4;" x="54.44071" xlink:href="#m15091cef32" y="261.216"/>
     <use style="fill:#1f77b4;stroke:#1f77b4;" x="56.997045" xlink:href="#m15091cef32" y="261.216"/>
     <use style="fill:#1f77b4;stroke:#1f77b4;" x="59.55338" xlink:href="#m15091cef32" y="261.216"/>
     <use style="fill:#1f77b4;stroke:#1f77b4;" x="62.109715" xlink:href="#m15091cef32" y="261.216"/>
     <use style="fill:#1f77b4;stroke:#1f77b4;" x="64.66605" xlink:href="#m15091cef32" y="261.216"/>
     <use style="fill:#1f77b4;stroke:#1f77b4;" x="67.222385" xlink:href="#m15091cef32" y="261.216"/>
     <use style="fill:#1f77b4;stroke:#1f77b4;" x="69.77872" xlink:href="#m15091cef32" y="261.216"/>
     <use style="fill:#1f77b4;stroke:#1f77b4;" x="72.335055" xlink:href="#m15091cef32" y="261.216"/>
     <use style="fill:#1f77b4;stroke:#1f77b4;" x="74.89139" xlink:href="#m15091cef32" y="261.216"/>
     <use style="fill:#1f77b4;stroke:#1f77b4;" x="77.447725" xlink:href="#m15091cef32" y="260.518824"/>
     <use style="fill:#1f77b4;stroke:#1f77b4;" x="80.00406" xlink:href="#m15091cef32" y="261.216"/>
     <use style="fill:#1f77b4;stroke:#1f77b4;" x="82.560395" xlink:href="#m15091cef32" y="261.216"/>
     <use style="fill:#1f77b4;stroke:#1f77b4;" x="85.11673" xlink:href="#m15091cef32" y="261.216"/>
     <use style="fill:#1f77b4;stroke:#1f77b4;" x="87.673065" xlink:href="#m15091cef32" y="261.216"/>
     <use style="fill:#1f77b4;stroke:#1f77b4;" x="90.2294" xlink:href="#m15091cef32" y="261.216"/>
     <use style="fill:#1f77b4;stroke:#1f77b4;" x="92.785735" xlink:href="#m15091cef32" y="260.170236"/>
     <use style="fill:#1f77b4;stroke:#1f77b4;" x="95.34207" xlink:href="#m15091cef32" y="260.867412"/>
     <use style="fill:#1f77b4;stroke:#1f77b4;" x="97.898405" xlink:href="#m15091cef32" y="260.518824"/>
     <use style="fill:#1f77b4;stroke:#1f77b4;" x="100.45474" xlink:href="#m15091cef32" y="260.867412"/>
     <use style="fill:#1f77b4;stroke:#1f77b4;" x="103.011075" xlink:href="#m15091cef32" y="260.518824"/>
     <use style="fill:#1f77b4;stroke:#1f77b4;" x="105.56741" xlink:href="#m15091cef32" y="260.518824"/>
     <use style="fill:#1f77b4;stroke:#1f77b4;" x="108.123745" xlink:href="#m15091cef32" y="260.170236"/>
     <use style="fill:#1f77b4;stroke:#1f77b4;" x="110.68008" xlink:href="#m15091cef32" y="261.216"/>
     <use style="fill:#1f77b4;stroke:#1f77b4;" x="113.236415" xlink:href="#m15091cef32" y="260.867412"/>
     <use style="fill:#1f77b4;stroke:#1f77b4;" x="115.79275" xlink:href="#m15091cef32" y="260.518824"/>
     <use style="fill:#1f77b4;stroke:#1f77b4;" x="118.349085" xlink:href="#m15091cef32" y="260.867412"/>
     <use style="fill:#1f77b4;stroke:#1f77b4;" x="120.90542" xlink:href="#m15091cef32" y="259.821648"/>
     <use style="fill:#1f77b4;stroke:#1f77b4;" x="123.461755" xlink:href="#m15091cef32" y="260.170236"/>
     <use style="fill:#1f77b4;stroke:#1f77b4;" x="126.01809" xlink:href="#m15091cef32" y="259.821648"/>
     <use style="fill:#1f77b4;stroke:#1f77b4;" x="128.574425" xlink:href="#m15091cef32" y="258.427297"/>
     <use style="fill:#1f77b4;stroke:#1f77b4;" x="131.13076" xlink:href="#m15091cef32" y="259.473061"/>
     <use style="fill:#1f77b4;stroke:#1f77b4;" x="133.687095" xlink:href="#m15091cef32" y="260.518824"/>
     <use style="fill:#1f77b4;stroke:#1f77b4;" x="136.24343" xlink:href="#m15091cef32" y="259.124473"/>
     <use style="fill:#1f77b4;stroke:#1f77b4;" x="138.799765" xlink:href="#m15091cef32" y="259.473061"/>
     <use style="fill:#1f77b4;stroke:#1f77b4;" x="141.3561" xlink:href="#m15091cef32" y="260.518824"/>
     <use style="fill:#1f77b4;stroke:#1f77b4;" x="143.912435" xlink:href="#m15091cef32" y="260.867412"/>
     <use style="fill:#1f77b4;stroke:#1f77b4;" x="146.46877" xlink:href="#m15091cef32" y="258.078709"/>
     <use style="fill:#1f77b4;stroke:#1f77b4;" x="149.025105" xlink:href="#m15091cef32" y="261.216"/>
     <use style="fill:#1f77b4;stroke:#1f77b4;" x="151.58144" xlink:href="#m15091cef32" y="258.775885"/>
     <use style="fill:#1f77b4;stroke:#1f77b4;" x="154.137775" xlink:href="#m15091cef32" y="258.775885"/>
     <use style="fill:#1f77b4;stroke:#1f77b4;" x="156.69411" xlink:href="#m15091cef32" y="258.078709"/>
     <use style="fill:#1f77b4;stroke:#1f77b4;" x="159.250445" xlink:href="#m15091cef32" y="258.078709"/>
     <use style="fill:#1f77b4;stroke:#1f77b4;" x="161.80678" xlink:href="#m15091cef32" y="255.987182"/>
     <use style="fill:#1f77b4;stroke:#1f77b4;" x="164.363115" xlink:href="#m15091cef32" y="257.381533"/>
     <use style="fill:#1f77b4;stroke:#1f77b4;" x="166.91945" xlink:href="#m15091cef32" y="256.335769"/>
     <use style="fill:#1f77b4;stroke:#1f77b4;" x="169.475785" xlink:href="#m15091cef32" y="255.987182"/>
     <use style="fill:#1f77b4;stroke:#1f77b4;" x="172.03212" xlink:href="#m15091cef32" y="253.547066"/>
     <use style="fill:#1f77b4;stroke:#1f77b4;" x="174.588455" xlink:href="#m15091cef32" y="254.941418"/>
     <use style="fill:#1f77b4;stroke:#1f77b4;" x="177.14479" xlink:href="#m15091cef32" y="254.244242"/>
     <use style="fill:#1f77b4;stroke:#1f77b4;" x="179.701125" xlink:href="#m15091cef32" y="253.198478"/>
     <use style="fill:#1f77b4;stroke:#1f77b4;" x="182.25746" xlink:href="#m15091cef32" y="252.501303"/>
     <use style="fill:#1f77b4;stroke:#1f77b4;" x="184.813795" xlink:href="#m15091cef32" y="249.712599"/>
     <use style="fill:#1f77b4;stroke:#1f77b4;" x="187.37013" xlink:href="#m15091cef32" y="250.758363"/>
     <use style="fill:#1f77b4;stroke:#1f77b4;" x="189.926465" xlink:href="#m15091cef32" y="252.501303"/>
     <use style="fill:#1f77b4;stroke:#1f77b4;" x="192.4828" xlink:href="#m15091cef32" y="248.666836"/>
     <use style="fill:#1f77b4;stroke:#1f77b4;" x="195.039135" xlink:href="#m15091cef32" y="252.501303"/>
     <use style="fill:#1f77b4;stroke:#1f77b4;" x="197.59547" xlink:href="#m15091cef32" y="251.804127"/>
     <use style="fill:#1f77b4;stroke:#1f77b4;" x="200.151805" xlink:href="#m15091cef32" y="246.923896"/>
     <use style="fill:#1f77b4;stroke:#1f77b4;" x="202.70814" xlink:href="#m15091cef32" y="252.501303"/>
     <use style="fill:#1f77b4;stroke:#1f77b4;" x="205.264475" xlink:href="#m15091cef32" y="250.061187"/>
     <use style="fill:#1f77b4;stroke:#1f77b4;" x="207.82081" xlink:href="#m15091cef32" y="251.106951"/>
     <use style="fill:#1f77b4;stroke:#1f77b4;" x="210.377145" xlink:href="#m15091cef32" y="251.804127"/>
     <use style="fill:#1f77b4;stroke:#1f77b4;" x="212.93348" xlink:href="#m15091cef32" y="247.96966"/>
     <use style="fill:#1f77b4;stroke:#1f77b4;" x="215.489815" xlink:href="#m15091cef32" y="250.061187"/>
     <use style="fill:#1f77b4;stroke:#1f77b4;" x="218.04615" xlink:href="#m15091cef32" y="245.878133"/>
     <use style="fill:#1f77b4;stroke:#1f77b4;" x="220.602485" xlink:href="#m15091cef32" y="251.804127"/>
     <use style="fill:#1f77b4;stroke:#1f77b4;" x="223.15882" xlink:href="#m15091cef32" y="247.272484"/>
     <use style="fill:#1f77b4;stroke:#1f77b4;" x="225.715155" xlink:href="#m15091cef32" y="250.061187"/>
     <use style="fill:#1f77b4;stroke:#1f77b4;" x="228.27149" xlink:href="#m15091cef32" y="245.529545"/>
     <use style="fill:#1f77b4;stroke:#1f77b4;" x="230.827825" xlink:href="#m15091cef32" y="250.758363"/>
     <use style="fill:#1f77b4;stroke:#1f77b4;" x="233.38416" xlink:href="#m15091cef32" y="249.712599"/>
     <use style="fill:#1f77b4;stroke:#1f77b4;" x="235.940495" xlink:href="#m15091cef32" y="247.272484"/>
     <use style="fill:#1f77b4;stroke:#1f77b4;" x="238.49683" xlink:href="#m15091cef32" y="243.438017"/>
     <use style="fill:#1f77b4;stroke:#1f77b4;" x="241.053165" xlink:href="#m15091cef32" y="241.695078"/>
     <use style="fill:#1f77b4;stroke:#1f77b4;" x="243.6095" xlink:href="#m15091cef32" y="235.769084"/>
     <use style="fill:#1f77b4;stroke:#1f77b4;" x="246.165835" xlink:href="#m15091cef32" y="239.952138"/>
     <use style="fill:#1f77b4;stroke:#1f77b4;" x="248.72217" xlink:href="#m15091cef32" y="235.769084"/>
     <use style="fill:#1f77b4;stroke:#1f77b4;" x="251.278505" xlink:href="#m15091cef32" y="234.374732"/>
     <use style="fill:#1f77b4;stroke:#1f77b4;" x="253.83484" xlink:href="#m15091cef32" y="223.568507"/>
     <use style="fill:#1f77b4;stroke:#1f77b4;" x="256.391175" xlink:href="#m15091cef32" y="228.10015"/>
     <use style="fill:#1f77b4;stroke:#1f77b4;" x="258.94751" xlink:href="#m15091cef32" y="221.47698"/>
     <use style="fill:#1f77b4;stroke:#1f77b4;" x="261.503845" xlink:href="#m15091cef32" y="217.293925"/>
     <use style="fill:#1f77b4;stroke:#1f77b4;" x="264.06018" xlink:href="#m15091cef32" y="186.61819"/>
     <use style="fill:#1f77b4;stroke:#1f77b4;" x="266.616515" xlink:href="#m15091cef32" y="195.332888"/>
     <use style="fill:#1f77b4;stroke:#1f77b4;" x="269.17285" xlink:href="#m15091cef32" y="194.635712"/>
     <use style="fill:#1f77b4;stroke:#1f77b4;" x="271.729185" xlink:href="#m15091cef32" y="161.171274"/>
     <use style="fill:#1f77b4;stroke:#1f77b4;" x="274.28552" xlink:href="#m15091cef32" y="161.519862"/>
     <use style="fill:#1f77b4;stroke:#1f77b4;" x="276.841855" xlink:href="#m15091cef32" y="139.907412"/>
     <use style="fill:#1f77b4;stroke:#1f77b4;" x="279.39819" xlink:href="#m15091cef32" y="161.519862"/>
     <use style="fill:#1f77b4;stroke:#1f77b4;" x="281.954525" xlink:href="#m15091cef32" y="139.558824"/>
     <use style="fill:#1f77b4;stroke:#1f77b4;" x="284.51086" xlink:href="#m15091cef32" y="159.079746"/>
     <use style="fill:#1f77b4;stroke:#1f77b4;" x="287.067195" xlink:href="#m15091cef32" y="173.720438"/>
     <use style="fill:#1f77b4;stroke:#1f77b4;" x="289.62353" xlink:href="#m15091cef32" y="151.062225"/>
     <use style="fill:#1f77b4;stroke:#1f77b4;" x="292.179865" xlink:href="#m15091cef32" y="166.400092"/>
     <use style="fill:#1f77b4;stroke:#1f77b4;" x="294.7362" xlink:href="#m15091cef32" y="164.657153"/>
     <use style="fill:#1f77b4;stroke:#1f77b4;" x="297.292535" xlink:href="#m15091cef32" y="182.435135"/>
     <use style="fill:#1f77b4;stroke:#1f77b4;" x="299.84887" xlink:href="#m15091cef32" y="176.509141"/>
     <use style="fill:#1f77b4;stroke:#1f77b4;" x="302.405205" xlink:href="#m15091cef32" y="178.252081"/>
     <use style="fill:#1f77b4;stroke:#1f77b4;" x="304.96154" xlink:href="#m15091cef32" y="193.24136"/>
     <use style="fill:#1f77b4;stroke:#1f77b4;" x="307.517875" xlink:href="#m15091cef32" y="185.921014"/>
     <use style="fill:#1f77b4;stroke:#1f77b4;" x="310.07421" xlink:href="#m15091cef32" y="188.709718"/>
     <use style="fill:#1f77b4;stroke:#1f77b4;" x="312.630545" xlink:href="#m15091cef32" y="191.149833"/>
     <use style="fill:#1f77b4;stroke:#1f77b4;" x="315.18688" xlink:href="#m15091cef32" y="212.762282"/>
     <use style="fill:#1f77b4;stroke:#1f77b4;" x="317.743215" xlink:href="#m15091cef32" y="207.184876"/>
     <use style="fill:#1f77b4;stroke:#1f77b4;" x="320.29955" xlink:href="#m15091cef32" y="211.367931"/>
     <use style="fill:#1f77b4;stroke:#1f77b4;" x="322.855885" xlink:href="#m15091cef32" y="221.825568"/>
     <use style="fill:#1f77b4;stroke:#1f77b4;" x="325.41222" xlink:href="#m15091cef32" y="207.882052"/>
     <use style="fill:#1f77b4;stroke:#1f77b4;" x="327.968555" xlink:href="#m15091cef32" y="224.962859"/>
     <use style="fill:#1f77b4;stroke:#1f77b4;" x="330.52489" xlink:href="#m15091cef32" y="223.219919"/>
     <use style="fill:#1f77b4;stroke:#1f77b4;" x="333.081225" xlink:href="#m15091cef32" y="235.769084"/>
     <use style="fill:#1f77b4;stroke:#1f77b4;" x="335.63756" xlink:href="#m15091cef32" y="225.660035"/>
     <use style="fill:#1f77b4;stroke:#1f77b4;" x="338.193895" xlink:href="#m15091cef32" y="236.814847"/>
     <use style="fill:#1f77b4;stroke:#1f77b4;" x="340.75023" xlink:href="#m15091cef32" y="235.769084"/>
     <use style="fill:#1f77b4;stroke:#1f77b4;" x="343.306565" xlink:href="#m15091cef32" y="232.631793"/>
     <use style="fill:#1f77b4;stroke:#1f77b4;" x="345.8629" xlink:href="#m15091cef32" y="241.34649"/>
     <use style="fill:#1f77b4;stroke:#1f77b4;" x="348.419235" xlink:href="#m15091cef32" y="246.575308"/>
     <use style="fill:#1f77b4;stroke:#1f77b4;" x="350.97557" xlink:href="#m15091cef32" y="242.740841"/>
     <use style="fill:#1f77b4;stroke:#1f77b4;" x="353.531905" xlink:href="#m15091cef32" y="245.878133"/>
     <use style="fill:#1f77b4;stroke:#1f77b4;" x="356.08824" xlink:href="#m15091cef32" y="245.529545"/>
     <use style="fill:#1f77b4;stroke:#1f77b4;" x="358.644575" xlink:href="#m15091cef32" y="252.152715"/>
     <use style="fill:#1f77b4;stroke:#1f77b4;" x="361.20091" xlink:href="#m15091cef32" y="255.290006"/>
     <use style="fill:#1f77b4;stroke:#1f77b4;" x="363.757245" xlink:href="#m15091cef32" y="256.684357"/>
     <use style="fill:#1f77b4;stroke:#1f77b4;" x="366.31358" xlink:href="#m15091cef32" y="256.335769"/>
     <use style="fill:#1f77b4;stroke:#1f77b4;" x="368.869915" xlink:href="#m15091cef32" y="259.473061"/>
     <use style="fill:#1f77b4;stroke:#1f77b4;" x="371.42625" xlink:href="#m15091cef32" y="260.518824"/>
     <use style="fill:#1f77b4;stroke:#1f77b4;" x="373.982585" xlink:href="#m15091cef32" y="261.216"/>
    </g>
   </g>
   <g id="line2d_20">
    <path clip-path="url(#p2539af45fd)" d="M 49.32804 261.216 
L 77.447725 261.216 
L 80.00406 260.867412 
L 82.560395 261.216 
L 100.45474 261.216 
L 103.011075 260.867412 
L 108.123745 260.867412 
L 110.68008 261.216 
L 113.236415 260.170236 
L 115.79275 260.867412 
L 118.349085 259.124473 
L 120.90542 260.518824 
L 123.461755 260.170236 
L 126.01809 261.216 
L 128.574425 261.216 
L 131.13076 259.821648 
L 136.24343 261.216 
L 138.799765 260.867412 
L 141.3561 261.216 
L 143.912435 261.216 
L 146.46877 260.518824 
L 151.58144 261.216 
L 159.250445 257.032945 
L 161.80678 259.124473 
L 164.363115 258.775885 
L 166.91945 257.730121 
L 169.475785 258.078709 
L 172.03212 258.078709 
L 174.588455 255.290006 
L 177.14479 252.152715 
L 179.701125 257.730121 
L 182.25746 257.032945 
L 184.813795 255.987182 
L 187.37013 255.290006 
L 189.926465 252.501303 
L 192.4828 254.244242 
L 195.039135 258.427297 
L 197.59547 256.335769 
L 202.70814 254.244242 
L 205.264475 248.666836 
L 207.82081 248.666836 
L 210.377145 241.34649 
L 212.93348 247.96966 
L 215.489815 248.318248 
L 218.04615 252.152715 
L 220.602485 237.163435 
L 225.715155 245.529545 
L 228.27149 246.923896 
L 230.827825 242.392254 
L 233.38416 250.758363 
L 235.940495 254.59283 
L 238.49683 245.180957 
L 241.053165 245.878133 
L 243.6095 245.180957 
L 246.165835 245.529545 
L 248.72217 246.22672 
L 251.278505 246.575308 
L 253.83484 247.96966 
L 256.391175 233.677556 
L 258.94751 229.145914 
L 261.503845 226.35721 
L 264.06018 217.293925 
L 266.616515 189.755481 
L 269.17285 207.184876 
L 271.729185 208.927816 
L 274.28552 178.949256 
L 276.841855 164.308565 
L 279.39819 159.776922 
L 281.954525 141.301764 
L 284.51086 125.963896 
L 287.067195 154.896692 
L 289.62353 170.234559 
L 292.179865 97.031101 
L 294.7362 98.77404 
L 297.292535 39.16551 
L 299.84887 42.999977 
L 302.405205 19.296 
L 304.96154 104.002859 
L 307.517875 155.942455 
L 310.07421 78.555942 
L 312.630545 57.989256 
L 315.18688 76.813003 
L 317.743215 66.355366 
L 320.29955 65.65819 
L 322.855885 146.181994 
L 325.41222 134.330006 
L 327.968555 117.249199 
L 330.52489 104.351447 
L 333.081225 112.717556 
L 335.63756 109.231677 
L 338.193895 139.907412 
L 340.75023 192.195597 
L 343.306565 201.60747 
L 345.8629 159.428334 
L 348.419235 185.223839 
L 350.97557 202.653233 
L 353.531905 160.474098 
L 356.08824 154.548104 
L 358.644575 196.727239 
L 363.757245 220.082628 
L 366.31358 226.705798 
L 368.869915 230.540265 
L 371.42625 231.934617 
L 373.982585 227.054386 
L 373.982585 227.054386 
" style="fill:none;stroke:#ff7f0e;stroke-linecap:square;stroke-width:1.5;"/>
    <defs>
     <path d="M 0 3 
C 0.795609 3 1.55874 2.683901 2.12132 2.12132 
C 2.683901 1.55874 3 0.795609 3 0 
C 3 -0.795609 2.683901 -1.55874 2.12132 -2.12132 
C 1.55874 -2.683901 0.795609 -3 0 -3 
C -0.795609 -3 -1.55874 -2.683901 -2.12132 -2.12132 
C -2.683901 -1.55874 -3 -0.795609 -3 0 
C -3 0.795609 -2.683901 1.55874 -2.12132 2.12132 
C -1.55874 2.683901 -0.795609 3 0 3 
z
" id="m7960f73cc9" style="stroke:#ff7f0e;"/>
    </defs>
    <g clip-path="url(#p2539af45fd)">
     <use style="fill:#ff7f0e;stroke:#ff7f0e;" x="49.32804" xlink:href="#m7960f73cc9" y="261.216"/>
     <use style="fill:#ff7f0e;stroke:#ff7f0e;" x="51.884375" xlink:href="#m7960f73cc9" y="261.216"/>
     <use style="fill:#ff7f0e;stroke:#ff7f0e;" x="54.44071" xlink:href="#m7960f73cc9" y="261.216"/>
     <use style="fill:#ff7f0e;stroke:#ff7f0e;" x="56.997045" xlink:href="#m7960f73cc9" y="261.216"/>
     <use style="fill:#ff7f0e;stroke:#ff7f0e;" x="59.55338" xlink:href="#m7960f73cc9" y="261.216"/>
     <use style="fill:#ff7f0e;stroke:#ff7f0e;" x="62.109715" xlink:href="#m7960f73cc9" y="261.216"/>
     <use style="fill:#ff7f0e;stroke:#ff7f0e;" x="64.66605" xlink:href="#m7960f73cc9" y="261.216"/>
     <use style="fill:#ff7f0e;stroke:#ff7f0e;" x="67.222385" xlink:href="#m7960f73cc9" y="261.216"/>
     <use style="fill:#ff7f0e;stroke:#ff7f0e;" x="69.77872" xlink:href="#m7960f73cc9" y="261.216"/>
     <use style="fill:#ff7f0e;stroke:#ff7f0e;" x="72.335055" xlink:href="#m7960f73cc9" y="261.216"/>
     <use style="fill:#ff7f0e;stroke:#ff7f0e;" x="74.89139" xlink:href="#m7960f73cc9" y="261.216"/>
     <use style="fill:#ff7f0e;stroke:#ff7f0e;" x="77.447725" xlink:href="#m7960f73cc9" y="261.216"/>
     <use style="fill:#ff7f0e;stroke:#ff7f0e;" x="80.00406" xlink:href="#m7960f73cc9" y="260.867412"/>
     <use style="fill:#ff7f0e;stroke:#ff7f0e;" x="82.560395" xlink:href="#m7960f73cc9" y="261.216"/>
     <use style="fill:#ff7f0e;stroke:#ff7f0e;" x="85.11673" xlink:href="#m7960f73cc9" y="261.216"/>
     <use style="fill:#ff7f0e;stroke:#ff7f0e;" x="87.673065" xlink:href="#m7960f73cc9" y="261.216"/>
     <use style="fill:#ff7f0e;stroke:#ff7f0e;" x="90.2294" xlink:href="#m7960f73cc9" y="261.216"/>
     <use style="fill:#ff7f0e;stroke:#ff7f0e;" x="92.785735" xlink:href="#m7960f73cc9" y="261.216"/>
     <use style="fill:#ff7f0e;stroke:#ff7f0e;" x="95.34207" xlink:href="#m7960f73cc9" y="261.216"/>
     <use style="fill:#ff7f0e;stroke:#ff7f0e;" x="97.898405" xlink:href="#m7960f73cc9" y="261.216"/>
     <use style="fill:#ff7f0e;stroke:#ff7f0e;" x="100.45474" xlink:href="#m7960f73cc9" y="261.216"/>
     <use style="fill:#ff7f0e;stroke:#ff7f0e;" x="103.011075" xlink:href="#m7960f73cc9" y="260.867412"/>
     <use style="fill:#ff7f0e;stroke:#ff7f0e;" x="105.56741" xlink:href="#m7960f73cc9" y="260.867412"/>
     <use style="fill:#ff7f0e;stroke:#ff7f0e;" x="108.123745" xlink:href="#m7960f73cc9" y="260.867412"/>
     <use style="fill:#ff7f0e;stroke:#ff7f0e;" x="110.68008" xlink:href="#m7960f73cc9" y="261.216"/>
     <use style="fill:#ff7f0e;stroke:#ff7f0e;" x="113.236415" xlink:href="#m7960f73cc9" y="260.170236"/>
     <use style="fill:#ff7f0e;stroke:#ff7f0e;" x="115.79275" xlink:href="#m7960f73cc9" y="260.867412"/>
     <use style="fill:#ff7f0e;stroke:#ff7f0e;" x="118.349085" xlink:href="#m7960f73cc9" y="259.124473"/>
     <use style="fill:#ff7f0e;stroke:#ff7f0e;" x="120.90542" xlink:href="#m7960f73cc9" y="260.518824"/>
     <use style="fill:#ff7f0e;stroke:#ff7f0e;" x="123.461755" xlink:href="#m7960f73cc9" y="260.170236"/>
     <use style="fill:#ff7f0e;stroke:#ff7f0e;" x="126.01809" xlink:href="#m7960f73cc9" y="261.216"/>
     <use style="fill:#ff7f0e;stroke:#ff7f0e;" x="128.574425" xlink:href="#m7960f73cc9" y="261.216"/>
     <use style="fill:#ff7f0e;stroke:#ff7f0e;" x="131.13076" xlink:href="#m7960f73cc9" y="259.821648"/>
     <use style="fill:#ff7f0e;stroke:#ff7f0e;" x="133.687095" xlink:href="#m7960f73cc9" y="260.518824"/>
     <use style="fill:#ff7f0e;stroke:#ff7f0e;" x="136.24343" xlink:href="#m7960f73cc9" y="261.216"/>
     <use style="fill:#ff7f0e;stroke:#ff7f0e;" x="138.799765" xlink:href="#m7960f73cc9" y="260.867412"/>
     <use style="fill:#ff7f0e;stroke:#ff7f0e;" x="141.3561" xlink:href="#m7960f73cc9" y="261.216"/>
     <use style="fill:#ff7f0e;stroke:#ff7f0e;" x="143.912435" xlink:href="#m7960f73cc9" y="261.216"/>
     <use style="fill:#ff7f0e;stroke:#ff7f0e;" x="146.46877" xlink:href="#m7960f73cc9" y="260.518824"/>
     <use style="fill:#ff7f0e;stroke:#ff7f0e;" x="149.025105" xlink:href="#m7960f73cc9" y="260.867412"/>
     <use style="fill:#ff7f0e;stroke:#ff7f0e;" x="151.58144" xlink:href="#m7960f73cc9" y="261.216"/>
     <use style="fill:#ff7f0e;stroke:#ff7f0e;" x="154.137775" xlink:href="#m7960f73cc9" y="259.821648"/>
     <use style="fill:#ff7f0e;stroke:#ff7f0e;" x="156.69411" xlink:href="#m7960f73cc9" y="258.427297"/>
     <use style="fill:#ff7f0e;stroke:#ff7f0e;" x="159.250445" xlink:href="#m7960f73cc9" y="257.032945"/>
     <use style="fill:#ff7f0e;stroke:#ff7f0e;" x="161.80678" xlink:href="#m7960f73cc9" y="259.124473"/>
     <use style="fill:#ff7f0e;stroke:#ff7f0e;" x="164.363115" xlink:href="#m7960f73cc9" y="258.775885"/>
     <use style="fill:#ff7f0e;stroke:#ff7f0e;" x="166.91945" xlink:href="#m7960f73cc9" y="257.730121"/>
     <use style="fill:#ff7f0e;stroke:#ff7f0e;" x="169.475785" xlink:href="#m7960f73cc9" y="258.078709"/>
     <use style="fill:#ff7f0e;stroke:#ff7f0e;" x="172.03212" xlink:href="#m7960f73cc9" y="258.078709"/>
     <use style="fill:#ff7f0e;stroke:#ff7f0e;" x="174.588455" xlink:href="#m7960f73cc9" y="255.290006"/>
     <use style="fill:#ff7f0e;stroke:#ff7f0e;" x="177.14479" xlink:href="#m7960f73cc9" y="252.152715"/>
     <use style="fill:#ff7f0e;stroke:#ff7f0e;" x="179.701125" xlink:href="#m7960f73cc9" y="257.730121"/>
     <use style="fill:#ff7f0e;stroke:#ff7f0e;" x="182.25746" xlink:href="#m7960f73cc9" y="257.032945"/>
     <use style="fill:#ff7f0e;stroke:#ff7f0e;" x="184.813795" xlink:href="#m7960f73cc9" y="255.987182"/>
     <use style="fill:#ff7f0e;stroke:#ff7f0e;" x="187.37013" xlink:href="#m7960f73cc9" y="255.290006"/>
     <use style="fill:#ff7f0e;stroke:#ff7f0e;" x="189.926465" xlink:href="#m7960f73cc9" y="252.501303"/>
     <use style="fill:#ff7f0e;stroke:#ff7f0e;" x="192.4828" xlink:href="#m7960f73cc9" y="254.244242"/>
     <use style="fill:#ff7f0e;stroke:#ff7f0e;" x="195.039135" xlink:href="#m7960f73cc9" y="258.427297"/>
     <use style="fill:#ff7f0e;stroke:#ff7f0e;" x="197.59547" xlink:href="#m7960f73cc9" y="256.335769"/>
     <use style="fill:#ff7f0e;stroke:#ff7f0e;" x="200.151805" xlink:href="#m7960f73cc9" y="255.290006"/>
     <use style="fill:#ff7f0e;stroke:#ff7f0e;" x="202.70814" xlink:href="#m7960f73cc9" y="254.244242"/>
     <use style="fill:#ff7f0e;stroke:#ff7f0e;" x="205.264475" xlink:href="#m7960f73cc9" y="248.666836"/>
     <use style="fill:#ff7f0e;stroke:#ff7f0e;" x="207.82081" xlink:href="#m7960f73cc9" y="248.666836"/>
     <use style="fill:#ff7f0e;stroke:#ff7f0e;" x="210.377145" xlink:href="#m7960f73cc9" y="241.34649"/>
     <use style="fill:#ff7f0e;stroke:#ff7f0e;" x="212.93348" xlink:href="#m7960f73cc9" y="247.96966"/>
     <use style="fill:#ff7f0e;stroke:#ff7f0e;" x="215.489815" xlink:href="#m7960f73cc9" y="248.318248"/>
     <use style="fill:#ff7f0e;stroke:#ff7f0e;" x="218.04615" xlink:href="#m7960f73cc9" y="252.152715"/>
     <use style="fill:#ff7f0e;stroke:#ff7f0e;" x="220.602485" xlink:href="#m7960f73cc9" y="237.163435"/>
     <use style="fill:#ff7f0e;stroke:#ff7f0e;" x="223.15882" xlink:href="#m7960f73cc9" y="241.34649"/>
     <use style="fill:#ff7f0e;stroke:#ff7f0e;" x="225.715155" xlink:href="#m7960f73cc9" y="245.529545"/>
     <use style="fill:#ff7f0e;stroke:#ff7f0e;" x="228.27149" xlink:href="#m7960f73cc9" y="246.923896"/>
     <use style="fill:#ff7f0e;stroke:#ff7f0e;" x="230.827825" xlink:href="#m7960f73cc9" y="242.392254"/>
     <use style="fill:#ff7f0e;stroke:#ff7f0e;" x="233.38416" xlink:href="#m7960f73cc9" y="250.758363"/>
     <use style="fill:#ff7f0e;stroke:#ff7f0e;" x="235.940495" xlink:href="#m7960f73cc9" y="254.59283"/>
     <use style="fill:#ff7f0e;stroke:#ff7f0e;" x="238.49683" xlink:href="#m7960f73cc9" y="245.180957"/>
     <use style="fill:#ff7f0e;stroke:#ff7f0e;" x="241.053165" xlink:href="#m7960f73cc9" y="245.878133"/>
     <use style="fill:#ff7f0e;stroke:#ff7f0e;" x="243.6095" xlink:href="#m7960f73cc9" y="245.180957"/>
     <use style="fill:#ff7f0e;stroke:#ff7f0e;" x="246.165835" xlink:href="#m7960f73cc9" y="245.529545"/>
     <use style="fill:#ff7f0e;stroke:#ff7f0e;" x="248.72217" xlink:href="#m7960f73cc9" y="246.22672"/>
     <use style="fill:#ff7f0e;stroke:#ff7f0e;" x="251.278505" xlink:href="#m7960f73cc9" y="246.575308"/>
     <use style="fill:#ff7f0e;stroke:#ff7f0e;" x="253.83484" xlink:href="#m7960f73cc9" y="247.96966"/>
     <use style="fill:#ff7f0e;stroke:#ff7f0e;" x="256.391175" xlink:href="#m7960f73cc9" y="233.677556"/>
     <use style="fill:#ff7f0e;stroke:#ff7f0e;" x="258.94751" xlink:href="#m7960f73cc9" y="229.145914"/>
     <use style="fill:#ff7f0e;stroke:#ff7f0e;" x="261.503845" xlink:href="#m7960f73cc9" y="226.35721"/>
     <use style="fill:#ff7f0e;stroke:#ff7f0e;" x="264.06018" xlink:href="#m7960f73cc9" y="217.293925"/>
     <use style="fill:#ff7f0e;stroke:#ff7f0e;" x="266.616515" xlink:href="#m7960f73cc9" y="189.755481"/>
     <use style="fill:#ff7f0e;stroke:#ff7f0e;" x="269.17285" xlink:href="#m7960f73cc9" y="207.184876"/>
     <use style="fill:#ff7f0e;stroke:#ff7f0e;" x="271.729185" xlink:href="#m7960f73cc9" y="208.927816"/>
     <use style="fill:#ff7f0e;stroke:#ff7f0e;" x="274.28552" xlink:href="#m7960f73cc9" y="178.949256"/>
     <use style="fill:#ff7f0e;stroke:#ff7f0e;" x="276.841855" xlink:href="#m7960f73cc9" y="164.308565"/>
     <use style="fill:#ff7f0e;stroke:#ff7f0e;" x="279.39819" xlink:href="#m7960f73cc9" y="159.776922"/>
     <use style="fill:#ff7f0e;stroke:#ff7f0e;" x="281.954525" xlink:href="#m7960f73cc9" y="141.301764"/>
     <use style="fill:#ff7f0e;stroke:#ff7f0e;" x="284.51086" xlink:href="#m7960f73cc9" y="125.963896"/>
     <use style="fill:#ff7f0e;stroke:#ff7f0e;" x="287.067195" xlink:href="#m7960f73cc9" y="154.896692"/>
     <use style="fill:#ff7f0e;stroke:#ff7f0e;" x="289.62353" xlink:href="#m7960f73cc9" y="170.234559"/>
     <use style="fill:#ff7f0e;stroke:#ff7f0e;" x="292.179865" xlink:href="#m7960f73cc9" y="97.031101"/>
     <use style="fill:#ff7f0e;stroke:#ff7f0e;" x="294.7362" xlink:href="#m7960f73cc9" y="98.77404"/>
     <use style="fill:#ff7f0e;stroke:#ff7f0e;" x="297.292535" xlink:href="#m7960f73cc9" y="39.16551"/>
     <use style="fill:#ff7f0e;stroke:#ff7f0e;" x="299.84887" xlink:href="#m7960f73cc9" y="42.999977"/>
     <use style="fill:#ff7f0e;stroke:#ff7f0e;" x="302.405205" xlink:href="#m7960f73cc9" y="19.296"/>
     <use style="fill:#ff7f0e;stroke:#ff7f0e;" x="304.96154" xlink:href="#m7960f73cc9" y="104.002859"/>
     <use style="fill:#ff7f0e;stroke:#ff7f0e;" x="307.517875" xlink:href="#m7960f73cc9" y="155.942455"/>
     <use style="fill:#ff7f0e;stroke:#ff7f0e;" x="310.07421" xlink:href="#m7960f73cc9" y="78.555942"/>
     <use style="fill:#ff7f0e;stroke:#ff7f0e;" x="312.630545" xlink:href="#m7960f73cc9" y="57.989256"/>
     <use style="fill:#ff7f0e;stroke:#ff7f0e;" x="315.18688" xlink:href="#m7960f73cc9" y="76.813003"/>
     <use style="fill:#ff7f0e;stroke:#ff7f0e;" x="317.743215" xlink:href="#m7960f73cc9" y="66.355366"/>
     <use style="fill:#ff7f0e;stroke:#ff7f0e;" x="320.29955" xlink:href="#m7960f73cc9" y="65.65819"/>
     <use style="fill:#ff7f0e;stroke:#ff7f0e;" x="322.855885" xlink:href="#m7960f73cc9" y="146.181994"/>
     <use style="fill:#ff7f0e;stroke:#ff7f0e;" x="325.41222" xlink:href="#m7960f73cc9" y="134.330006"/>
     <use style="fill:#ff7f0e;stroke:#ff7f0e;" x="327.968555" xlink:href="#m7960f73cc9" y="117.249199"/>
     <use style="fill:#ff7f0e;stroke:#ff7f0e;" x="330.52489" xlink:href="#m7960f73cc9" y="104.351447"/>
     <use style="fill:#ff7f0e;stroke:#ff7f0e;" x="333.081225" xlink:href="#m7960f73cc9" y="112.717556"/>
     <use style="fill:#ff7f0e;stroke:#ff7f0e;" x="335.63756" xlink:href="#m7960f73cc9" y="109.231677"/>
     <use style="fill:#ff7f0e;stroke:#ff7f0e;" x="338.193895" xlink:href="#m7960f73cc9" y="139.907412"/>
     <use style="fill:#ff7f0e;stroke:#ff7f0e;" x="340.75023" xlink:href="#m7960f73cc9" y="192.195597"/>
     <use style="fill:#ff7f0e;stroke:#ff7f0e;" x="343.306565" xlink:href="#m7960f73cc9" y="201.60747"/>
     <use style="fill:#ff7f0e;stroke:#ff7f0e;" x="345.8629" xlink:href="#m7960f73cc9" y="159.428334"/>
     <use style="fill:#ff7f0e;stroke:#ff7f0e;" x="348.419235" xlink:href="#m7960f73cc9" y="185.223839"/>
     <use style="fill:#ff7f0e;stroke:#ff7f0e;" x="350.97557" xlink:href="#m7960f73cc9" y="202.653233"/>
     <use style="fill:#ff7f0e;stroke:#ff7f0e;" x="353.531905" xlink:href="#m7960f73cc9" y="160.474098"/>
     <use style="fill:#ff7f0e;stroke:#ff7f0e;" x="356.08824" xlink:href="#m7960f73cc9" y="154.548104"/>
     <use style="fill:#ff7f0e;stroke:#ff7f0e;" x="358.644575" xlink:href="#m7960f73cc9" y="196.727239"/>
     <use style="fill:#ff7f0e;stroke:#ff7f0e;" x="361.20091" xlink:href="#m7960f73cc9" y="208.579228"/>
     <use style="fill:#ff7f0e;stroke:#ff7f0e;" x="363.757245" xlink:href="#m7960f73cc9" y="220.082628"/>
     <use style="fill:#ff7f0e;stroke:#ff7f0e;" x="366.31358" xlink:href="#m7960f73cc9" y="226.705798"/>
     <use style="fill:#ff7f0e;stroke:#ff7f0e;" x="368.869915" xlink:href="#m7960f73cc9" y="230.540265"/>
     <use style="fill:#ff7f0e;stroke:#ff7f0e;" x="371.42625" xlink:href="#m7960f73cc9" y="231.934617"/>
     <use style="fill:#ff7f0e;stroke:#ff7f0e;" x="373.982585" xlink:href="#m7960f73cc9" y="227.054386"/>
    </g>
   </g>
   <g id="patch_3">
    <path d="M 33.095313 273.312 
L 33.095313 7.2 
" style="fill:none;stroke:#000000;stroke-linecap:square;stroke-linejoin:miter;stroke-width:0.8;"/>
   </g>
   <g id="patch_4">
    <path d="M 390.215312 273.312 
L 390.215312 7.2 
" style="fill:none;stroke:#000000;stroke-linecap:square;stroke-linejoin:miter;stroke-width:0.8;"/>
   </g>
   <g id="patch_5">
    <path d="M 33.095312 273.312 
L 390.215313 273.312 
" style="fill:none;stroke:#000000;stroke-linecap:square;stroke-linejoin:miter;stroke-width:0.8;"/>
   </g>
   <g id="patch_6">
    <path d="M 33.095312 7.2 
L 390.215313 7.2 
" style="fill:none;stroke:#000000;stroke-linecap:square;stroke-linejoin:miter;stroke-width:0.8;"/>
   </g>
   <g id="legend_1">
    <g id="patch_7">
     <path d="M 40.095313 45.353125 
L 159.078125 45.353125 
Q 161.078125 45.353125 161.078125 43.353125 
L 161.078125 14.2 
Q 161.078125 12.2 159.078125 12.2 
L 40.095313 12.2 
Q 38.095313 12.2 38.095313 14.2 
L 38.095313 43.353125 
Q 38.095313 45.353125 40.095313 45.353125 
z
" style="fill:#ffffff;opacity:0.8;stroke:#cccccc;stroke-linejoin:miter;"/>
    </g>
    <g id="line2d_21">
     <path d="M 42.095313 20.820312 
L 62.095313 20.820312 
" style="fill:none;stroke:#1f77b4;stroke-linecap:square;stroke-width:1.5;"/>
    </g>
    <g id="line2d_22">
     <g>
      <use style="fill:#1f77b4;stroke:#1f77b4;" x="52.095313" xlink:href="#m15091cef32" y="20.820312"/>
     </g>
    </g>
    <g id="text_20">
     <!--  (onset) -->
     <defs>
      <path d="M 73.734375 56.84375 
Q 80.609375 62.75 85.203125 68.609375 
L 91.109375 64.40625 
Q 84.46875 57.8125 78.71875 53.328125 
Q 85.9375 48.6875 95.40625 44.625 
L 90.625 38.375 
Q 81.734375 42.78125 73.53125 48.640625 
L 73.53125 43.3125 
L 64.109375 43.3125 
L 64.109375 29.984375 
L 89.890625 29.984375 
L 89.890625 23.78125 
L 64.109375 23.78125 
L 64.109375 5.609375 
Q 64.109375 2.484375 65.71875 2.046875 
Q 67.390625 1.46875 73.09375 1.46875 
Q 82.125 1.46875 83.59375 2.984375 
Q 85.0625 4.4375 85.5 11.96875 
Q 85.5 13.484375 85.59375 14.0625 
L 92.625 11.578125 
Q 92.1875 0.390625 89.703125 -2.203125 
Q 87.0625 -5.328125 72.609375 -5.328125 
Q 63.8125 -5.328125 60.9375 -4 
Q 57.03125 -2.34375 57.03125 3.328125 
L 57.03125 23.78125 
L 42.578125 23.78125 
Q 40.1875 0.53125 11.078125 -7.421875 
L 7.28125 -0.984375 
Q 33.25 5.421875 35.5 23.78125 
L 10.015625 23.78125 
L 10.015625 29.984375 
L 35.796875 29.984375 
L 35.796875 43.3125 
L 27.78125 43.3125 
L 27.78125 47.015625 
Q 19.734375 41.359375 9.078125 36.1875 
L 4.5 42.1875 
Q 16.3125 46.734375 25.984375 53.8125 
Q 19.828125 60.15625 13.484375 64.59375 
L 18.609375 69.140625 
Q 26.515625 62.59375 31.109375 58.015625 
Q 38.03125 64.0625 43.171875 72.125 
L 20.0625 72.125 
L 20.0625 78.21875 
L 54 78.21875 
Q 58.203125 71.34375 62.890625 66.3125 
Q 69.09375 71.625 74.03125 77.9375 
L 79.828125 73.734375 
Q 74.171875 67.625 67.09375 62.203125 
Q 70.40625 59.078125 73.734375 56.84375 
z
M 57.03125 43.3125 
L 42.78125 43.3125 
L 42.78125 29.984375 
L 57.03125 29.984375 
z
M 30.90625 49.3125 
L 72.515625 49.3125 
Q 58.6875 59.28125 50.59375 71 
Q 43.21875 58.890625 30.90625 49.3125 
z
" id="IPAexGothic-30330"/>
      <path d="M 63.71875 2.875 
L 95.015625 2.875 
L 95.015625 -3.515625 
L 23.96875 -3.515625 
L 23.96875 2.875 
L 37.3125 2.875 
L 37.3125 38.28125 
L 44 38.28125 
L 44 2.875 
L 56.84375 2.875 
L 56.84375 46.578125 
L 30.515625 46.578125 
L 30.515625 52.78125 
L 90.046875 52.78125 
L 90.046875 46.578125 
L 63.71875 46.578125 
L 63.71875 29.203125 
L 87.796875 29.203125 
L 87.796875 23.09375 
L 63.71875 23.09375 
z
M 60.203125 70.515625 
L 93.890625 70.515625 
L 93.890625 64.109375 
L 27.296875 64.109375 
L 27.296875 41.40625 
Q 27.296875 23.140625 24.21875 12.203125 
Q 21.390625 2.25 14.59375 -6.203125 
L 9.625 -1.171875 
Q 18.75 10.359375 20.125 27.484375 
Q 15.4375 24.125 7.078125 19.734375 
L 4 26.609375 
Q 12.3125 29.59375 20.40625 34.328125 
L 20.40625 37.890625 
L 20.40625 70.515625 
L 52.78125 70.515625 
L 52.78125 81.984375 
L 60.203125 81.984375 
z
M 12.015625 40.375 
Q 8.890625 50.78125 5.421875 57.90625 
L 11.375 60.59375 
Q 15.234375 53.859375 18.40625 43.703125 
z
" id="IPAexGothic-30151"/>
      <path d="M 81.734375 75 
L 81.734375 -4.5 
L 74.125 -4.5 
L 74.125 2 
L 25.734375 2 
L 25.734375 -4.5 
L 18.109375 -4.5 
L 18.109375 75 
z
M 25.734375 68.3125 
L 25.734375 42.671875 
L 74.125 42.671875 
L 74.125 68.3125 
z
M 25.734375 35.890625 
L 25.734375 8.6875 
L 74.125 8.6875 
L 74.125 35.890625 
z
" id="IPAexGothic-26085"/>
      <path id="IPAexGothic-32"/>
      <path d="M 30.125 -15.875 
L 25.828125 -18.21875 
Q 7.625 1.078125 7.625 29.296875 
Q 7.625 57.46875 25.828125 76.703125 
L 30.125 74.421875 
Q 15.71875 55.03125 15.71875 29.390625 
Q 15.71875 3.171875 30.125 -15.875 
z
" id="IPAexGothic-40"/>
      <path d="M 29.984375 52.203125 
Q 40.53125 52.203125 47.75 45.125 
Q 55.171875 37.703125 55.171875 25.59375 
Q 55.171875 13.875 47.90625 6.59375 
Q 40.765625 -0.484375 29.984375 -0.484375 
Q 19.1875 -0.484375 12.203125 6.5 
Q 4.890625 13.765625 4.890625 25.875 
Q 4.890625 37.703125 12.3125 45.125 
Q 19.390625 52.203125 29.984375 52.203125 
z
M 29.984375 45.609375 
Q 23.734375 45.609375 19.390625 41.109375 
Q 13.875 35.59375 13.875 25.78125 
Q 13.875 16.109375 19.28125 10.6875 
Q 23.6875 6.296875 29.984375 6.296875 
Q 36.421875 6.296875 40.765625 10.796875 
Q 46.1875 16.21875 46.1875 26.125 
Q 46.1875 35.453125 40.671875 41.109375 
Q 36.1875 45.609375 29.984375 45.609375 
z
" id="IPAexGothic-111"/>
      <path d="M 34.90625 39.796875 
Q 30.28125 45.796875 23.1875 45.796875 
Q 13.921875 45.796875 13.921875 38.671875 
Q 13.921875 33.640625 23.921875 30.375 
L 27.203125 29.296875 
Q 41.40625 24.65625 41.40625 13.96875 
Q 41.40625 6.78125 35.5 2.6875 
Q 30.8125 -0.484375 23.390625 -0.484375 
Q 11.96875 -0.484375 4 7.859375 
L 9.421875 12.796875 
Q 15.578125 6.203125 23.6875 6.203125 
Q 33.296875 6.203125 33.296875 13.671875 
Q 33.296875 19.34375 22.703125 23.09375 
L 19.28125 24.265625 
Q 5.90625 28.953125 5.90625 37.984375 
Q 5.90625 43.703125 9.8125 47.609375 
Q 14.5 52.296875 22.703125 52.296875 
Q 33.6875 52.296875 40.71875 44.671875 
z
" id="IPAexGothic-115"/>
      <path d="M 33.203125 3.765625 
Q 27.640625 -0.09375 21.828125 -0.09375 
Q 10.203125 -0.09375 10.203125 12.984375 
L 10.203125 44.671875 
L 3.421875 44.671875 
L 3.421875 50.78125 
L 10.203125 50.78125 
L 10.203125 61.96875 
L 18.40625 66.0625 
L 18.40625 50.78125 
L 32.234375 50.78125 
L 32.234375 44.671875 
L 18.40625 44.671875 
L 18.40625 14.15625 
Q 18.40625 6.5 23.640625 6.5 
Q 27.15625 6.5 30.328125 9.1875 
z
" id="IPAexGothic-116"/>
      <path d="M 7.28125 76.703125 
Q 25.59375 57.375 25.59375 29.296875 
Q 25.59375 1.171875 7.28125 -18.21875 
L 2.984375 -15.875 
Q 17.484375 3.375 17.484375 29.390625 
Q 17.484375 54.828125 2.984375 74.421875 
z
" id="IPAexGothic-41"/>
     </defs>
     <g transform="translate(70.095313 24.320312)scale(0.1 -0.1)">
      <use xlink:href="#IPAexGothic-30330"/>
      <use x="100" xlink:href="#IPAexGothic-30151"/>
      <use x="200" xlink:href="#IPAexGothic-26085"/>
      <use x="300" xlink:href="#IPAexGothic-32"/>
      <use x="327.001953" xlink:href="#IPAexGothic-40"/>
      <use x="360.302734" xlink:href="#IPAexGothic-111"/>
      <use x="420.703125" xlink:href="#IPAexGothic-110"/>
      <use x="481.103516" xlink:href="#IPAexGothic-115"/>
      <use x="527.294922" xlink:href="#IPAexGothic-101"/>
      <use x="584.179688" xlink:href="#IPAexGothic-116"/>
      <use x="618.798828" xlink:href="#IPAexGothic-41"/>
     </g>
    </g>
    <g id="line2d_23">
     <path d="M 42.095313 35.953125 
L 62.095313 35.953125 
" style="fill:none;stroke:#ff7f0e;stroke-linecap:square;stroke-width:1.5;"/>
    </g>
    <g id="line2d_24">
     <g>
      <use style="fill:#ff7f0e;stroke:#ff7f0e;" x="52.095313" xlink:href="#m7960f73cc9" y="35.953125"/>
     </g>
    </g>
    <g id="text_21">
     <!--  (confirmed) -->
     <defs>
      <path d="M 67.921875 50.296875 
Q 70.5625 55.28125 72.609375 61.8125 
L 79.296875 60.203125 
Q 76.171875 53.609375 74.21875 50.296875 
L 92 50.296875 
L 92 44.484375 
L 73.4375 44.484375 
L 73.4375 34.71875 
L 89.703125 34.71875 
L 89.703125 29.203125 
L 73.4375 29.203125 
L 73.4375 19.53125 
L 89.703125 19.53125 
L 89.703125 14.015625 
L 73.4375 14.015625 
L 73.4375 3.609375 
L 94.28125 3.609375 
L 94.28125 -2.203125 
L 54.109375 -2.203125 
L 54.109375 -6.984375 
L 47.609375 -6.984375 
L 47.609375 38.1875 
Q 43.0625 31.546875 38.8125 26.609375 
L 35.6875 32.8125 
Q 49.359375 49.953125 54.78125 64.796875 
L 45.515625 64.796875 
L 45.515625 53.515625 
L 39.203125 53.515625 
L 39.203125 70.609375 
L 56.78125 70.609375 
Q 58.59375 76.609375 60.109375 83.109375 
L 66.703125 81.890625 
Q 65.234375 75.53125 63.625 70.609375 
L 92.71875 70.609375 
L 92.71875 53.515625 
L 86.328125 53.515625 
L 86.328125 64.796875 
L 61.53125 64.796875 
Q 58.546875 56.984375 54.890625 50.296875 
z
M 67.140625 44.484375 
L 54.109375 44.484375 
L 54.109375 34.71875 
L 67.140625 34.71875 
z
M 67.140625 29.203125 
L 54.109375 29.203125 
L 54.109375 19.53125 
L 67.140625 19.53125 
z
M 67.140625 14.015625 
L 54.109375 14.015625 
L 54.109375 3.609375 
L 67.140625 3.609375 
z
M 18.109375 46 
L 35.546875 46 
L 35.546875 3.078125 
L 18.953125 3.078125 
L 18.953125 -5.125 
L 12.75 -5.125 
L 12.75 34.46875 
Q 10.15625 29.734375 6.15625 23.78125 
L 2.9375 29.984375 
Q 14.546875 47.078125 18.75 69 
L 6.34375 69 
L 6.34375 75.296875 
L 37.640625 75.296875 
L 37.640625 69 
L 25.25 69 
L 24.953125 68.015625 
Q 22.75 57.234375 18.109375 46 
z
M 18.953125 39.890625 
L 18.953125 9.1875 
L 29.34375 9.1875 
L 29.34375 39.890625 
z
" id="IPAexGothic-30906"/>
      <path d="M 53.609375 4.734375 
Q 61.421875 3.515625 73.578125 3.515625 
Q 81.109375 3.515625 94.578125 4.109375 
Q 93.171875 0.921875 92 -3.5625 
Q 81.78125 -3.90625 75.6875 -3.90625 
Q 55.765625 -3.90625 46.921875 -1.21875 
Q 35.296875 2.390625 27.34375 14.109375 
Q 22.515625 2.546875 12.59375 -7.171875 
L 7.421875 -1.171875 
Q 22.125 11.859375 26.3125 37.796875 
L 33.203125 35.984375 
Q 31.734375 27.4375 29.828125 21.1875 
Q 36.53125 10.59375 46.4375 6.5 
L 46.4375 46 
L 22.40625 46 
L 22.40625 52.390625 
L 77.484375 52.390625 
L 77.484375 46 
L 53.609375 46 
L 53.609375 31 
L 84.328125 31 
L 84.328125 24.515625 
L 53.609375 24.515625 
z
M 53.421875 69.1875 
L 89.84375 69.1875 
L 89.84375 49.46875 
L 82.421875 49.46875 
L 82.421875 62.890625 
L 17.53125 62.890625 
L 17.53125 49.46875 
L 10.109375 49.46875 
L 10.109375 69.1875 
L 45.90625 69.1875 
L 45.90625 83.015625 
L 53.421875 83.015625 
z
" id="IPAexGothic-23450"/>
      <path d="M 51.078125 12.25 
Q 44.28125 -0.484375 29.6875 -0.484375 
Q 19.1875 -0.484375 12.3125 6.390625 
Q 4.890625 13.921875 4.890625 25.984375 
Q 4.890625 37.9375 12.3125 45.515625 
Q 19.09375 52.296875 29.390625 52.296875 
Q 43.953125 52.296875 50.09375 39.703125 
L 43.171875 36.078125 
Q 38.8125 45.3125 29.6875 45.3125 
Q 23.6875 45.3125 19.28125 40.921875 
Q 13.765625 35.40625 13.765625 25.78125 
Q 13.765625 16.703125 19.09375 11.375 
Q 23.78125 6.6875 30.5625 6.6875 
Q 39.796875 6.6875 44.484375 15.875 
z
" id="IPAexGothic-99"/>
      <path d="M 38.375 72.21875 
L 34.8125 66.3125 
Q 31.109375 69.09375 27.203125 69.09375 
Q 18.5 69.09375 18.5 57.375 
L 18.5 50.78125 
L 32.078125 50.78125 
L 32.078125 44.671875 
L 18.5 44.671875 
L 18.5 0.984375 
L 10.015625 0.984375 
L 10.015625 44.671875 
L 1.90625 44.671875 
L 1.90625 50.78125 
L 10.015625 50.78125 
L 10.015625 57.171875 
Q 10.015625 65.4375 13.921875 70.0625 
Q 18.75 75.6875 26.703125 75.6875 
Q 33.0625 75.6875 38.375 72.21875 
z
" id="IPAexGothic-102"/>
      <path d="M 18.40625 61.375 
L 8.59375 61.375 
L 8.59375 71.390625 
L 18.40625 71.390625 
z
M 17.78125 0.984375 
L 9.1875 0.984375 
L 9.1875 50.78125 
L 17.78125 50.78125 
z
" id="IPAexGothic-105"/>
      <path d="M 78.46875 0.984375 
L 69.875 0.984375 
L 69.875 32.171875 
Q 69.875 44.828125 60.109375 44.828125 
Q 55.46875 44.828125 51.609375 40.53125 
Q 48.875 37.453125 47.796875 32.859375 
L 47.796875 0.984375 
L 39.203125 0.984375 
L 39.203125 32.28125 
Q 39.203125 44.828125 29.984375 44.828125 
Q 25.09375 44.828125 21.390625 40.53125 
Q 17.390625 36.03125 17.390625 31.890625 
L 17.390625 0.984375 
L 8.796875 0.984375 
L 8.796875 50.78125 
L 16.796875 50.78125 
L 16.796875 42.1875 
Q 21.734375 51.8125 31.6875 51.8125 
Q 42.578125 51.8125 46.1875 41.359375 
Q 51.609375 51.8125 61.765625 51.8125 
Q 69.96875 51.8125 74.5625 46 
Q 78.46875 41.21875 78.46875 32.375 
z
" id="IPAexGothic-109"/>
      <path d="M 52.984375 0.984375 
L 45.171875 0.984375 
L 45.171875 9.671875 
Q 38.140625 -0.484375 27.390625 -0.484375 
Q 18.453125 -0.484375 12.3125 5.8125 
Q 4.890625 13.1875 4.890625 25.984375 
Q 4.890625 38.53125 12.0625 45.90625 
Q 18.265625 52.203125 27.390625 52.203125 
Q 37.25 52.203125 44.484375 43.890625 
L 44.484375 74.90625 
L 52.984375 74.90625 
z
M 44.484375 20.359375 
L 44.484375 32.765625 
Q 44.484375 37.703125 38.375 42.28125 
Q 34.078125 45.40625 28.953125 45.40625 
Q 23.1875 45.40625 19.1875 41.40625 
Q 13.875 36.078125 13.875 26.21875 
Q 13.875 17.328125 18.265625 11.71875 
Q 22.515625 6.390625 28.859375 6.390625 
Q 36.28125 6.390625 41.5 13.671875 
Q 44.484375 17.71875 44.484375 20.359375 
z
" id="IPAexGothic-100"/>
     </defs>
     <g transform="translate(70.095313 39.453125)scale(0.1 -0.1)">
      <use xlink:href="#IPAexGothic-30906"/>
      <use x="100" xlink:href="#IPAexGothic-23450"/>
      <use x="200" xlink:href="#IPAexGothic-26085"/>
      <use x="300" xlink:href="#IPAexGothic-32"/>
      <use x="327.001953" xlink:href="#IPAexGothic-40"/>
      <use x="360.302734" xlink:href="#IPAexGothic-99"/>
      <use x="414.697266" xlink:href="#IPAexGothic-111"/>
      <use x="475.097656" xlink:href="#IPAexGothic-110"/>
      <use x="535.498047" xlink:href="#IPAexGothic-102"/>
      <use x="566.113281" xlink:href="#IPAexGothic-105"/>
      <use x="593.115234" xlink:href="#IPAexGothic-114"/>
      <use x="630.126953" xlink:href="#IPAexGothic-109"/>
      <use x="717.236328" xlink:href="#IPAexGothic-101"/>
      <use x="774.121094" xlink:href="#IPAexGothic-100"/>
      <use x="836.523438" xlink:href="#IPAexGothic-41"/>
     </g>
    </g>
   </g>
  </g>
 </g>
 <defs>
  <clipPath id="p2539af45fd">
   <rect height="266.112" width="357.12" x="33.095313" y="7.2"/>
  </clipPath>
 </defs>
</svg>
