<?xml version="1.0" encoding="utf-8" standalone="no"?>
<!DOCTYPE svg PUBLIC "-//W3C//DTD SVG 1.1//EN"
  "http://www.w3.org/Graphics/SVG/1.1/DTD/svg11.dtd">
<svg height="376.82125pt" version="1.1" viewBox="0 0 460.8 376.82125" width="460.8pt" xmlns="http://www.w3.org/2000/svg" xmlns:xlink="http://www.w3.org/1999/xlink">
 <metadata>
  <rdf:RDF xmlns:cc="http://creativecommons.org/ns#" xmlns:dc="http://purl.org/dc/elements/1.1/" xmlns:rdf="http://www.w3.org/1999/02/22-rdf-syntax-ns#">
   <cc:Work>
    <dc:type rdf:resource="http://purl.org/dc/dcmitype/StillImage"/>
    <dc:date>2021-11-15T13:37:21.789854</dc:date>
    <dc:format>image/svg+xml</dc:format>
    <dc:creator>
     <cc:Agent>
      <dc:title>Matplotlib v3.4.3, https://matplotlib.org/</dc:title>
     </cc:Agent>
    </dc:creator>
   </cc:Work>
  </rdf:RDF>
 </metadata>
 <defs>
  <style type="text/css">*{stroke-linecap:butt;stroke-linejoin:round;}</style>
 </defs>
 <g id="figure_1">
  <g id="patch_1">
   <path d="M 0 376.82125 
L 460.8 376.82125 
L 460.8 0 
L 0 0 
z
" style="fill:#ffffff;"/>
  </g>
  <g id="axes_1">
   <g id="patch_2">
    <path d="M 7.2 339.84 
L 210.109091 339.84 
L 210.109091 7.2 
L 7.2 7.2 
z
" style="fill:#ffffff;"/>
   </g>
   <g id="patch_3">
    <path clip-path="url(#p824b8a93ee)" d="M 210.109091 324.72 
L 129.56979 324.72 
L 129.56979 310.32 
L 210.109091 310.32 
z
" style="fill:#1f77b4;stroke:#000000;stroke-linejoin:miter;"/>
   </g>
   <g id="patch_4">
    <path clip-path="url(#p824b8a93ee)" d="M 210.109091 310.32 
L 108.966713 310.32 
L 108.966713 295.92 
L 210.109091 295.92 
z
" style="fill:#1f77b4;stroke:#000000;stroke-linejoin:miter;"/>
   </g>
   <g id="patch_5">
    <path clip-path="url(#p824b8a93ee)" d="M 210.109091 295.92 
L 114.585734 295.92 
L 114.585734 281.52 
L 210.109091 281.52 
z
" style="fill:#1f77b4;stroke:#000000;stroke-linejoin:miter;"/>
   </g>
   <g id="patch_6">
    <path clip-path="url(#p824b8a93ee)" d="M 210.109091 281.52 
L 109.903217 281.52 
L 109.903217 267.12 
L 210.109091 267.12 
z
" style="fill:#1f77b4;stroke:#000000;stroke-linejoin:miter;"/>
   </g>
   <g id="patch_7">
    <path clip-path="url(#p824b8a93ee)" d="M 210.109091 267.12 
L 103.347692 267.12 
L 103.347692 252.72 
L 210.109091 252.72 
z
" style="fill:#1f77b4;stroke:#000000;stroke-linejoin:miter;"/>
   </g>
   <g id="patch_8">
    <path clip-path="url(#p824b8a93ee)" d="M 210.109091 252.72 
L 94.919161 252.72 
L 94.919161 238.32 
L 210.109091 238.32 
z
" style="fill:#1f77b4;stroke:#000000;stroke-linejoin:miter;"/>
   </g>
   <g id="patch_9">
    <path clip-path="url(#p824b8a93ee)" d="M 210.109091 238.32 
L 85.554126 238.32 
L 85.554126 223.92 
L 210.109091 223.92 
z
" style="fill:#1f77b4;stroke:#000000;stroke-linejoin:miter;"/>
   </g>
   <g id="patch_10">
    <path clip-path="url(#p824b8a93ee)" d="M 210.109091 223.92 
L 87.114965 223.92 
L 87.114965 209.52 
L 210.109091 209.52 
z
" style="fill:#1f77b4;stroke:#000000;stroke-linejoin:miter;"/>
   </g>
   <g id="patch_11">
    <path clip-path="url(#p824b8a93ee)" d="M 210.109091 209.52 
L 91.485315 209.52 
L 91.485315 195.12 
L 210.109091 195.12 
z
" style="fill:#1f77b4;stroke:#000000;stroke-linejoin:miter;"/>
   </g>
   <g id="patch_12">
    <path clip-path="url(#p824b8a93ee)" d="M 210.109091 195.12 
L 92.733986 195.12 
L 92.733986 180.72 
L 210.109091 180.72 
z
" style="fill:#1f77b4;stroke:#000000;stroke-linejoin:miter;"/>
   </g>
   <g id="patch_13">
    <path clip-path="url(#p824b8a93ee)" d="M 210.109091 180.72 
L 80.559441 180.72 
L 80.559441 166.32 
L 210.109091 166.32 
z
" style="fill:#1f77b4;stroke:#000000;stroke-linejoin:miter;"/>
   </g>
   <g id="patch_14">
    <path clip-path="url(#p824b8a93ee)" d="M 210.109091 166.32 
L 80.559441 166.32 
L 80.559441 151.92 
L 210.109091 151.92 
z
" style="fill:#1f77b4;stroke:#000000;stroke-linejoin:miter;"/>
   </g>
   <g id="patch_15">
    <path clip-path="url(#p824b8a93ee)" d="M 210.109091 151.92 
L 62.765874 151.92 
L 62.765874 137.52 
L 210.109091 137.52 
z
" style="fill:#1f77b4;stroke:#000000;stroke-linejoin:miter;"/>
   </g>
   <g id="patch_16">
    <path clip-path="url(#p824b8a93ee)" d="M 210.109091 137.52 
L 64.326713 137.52 
L 64.326713 123.12 
L 210.109091 123.12 
z
" style="fill:#1f77b4;stroke:#000000;stroke-linejoin:miter;"/>
   </g>
   <g id="patch_17">
    <path clip-path="url(#p824b8a93ee)" d="M 210.109091 123.12 
L 57.771189 123.12 
L 57.771189 108.72 
L 210.109091 108.72 
z
" style="fill:#1f77b4;stroke:#000000;stroke-linejoin:miter;"/>
   </g>
   <g id="patch_18">
    <path clip-path="url(#p824b8a93ee)" d="M 210.109091 108.72 
L 77.125594 108.72 
L 77.125594 94.32 
L 210.109091 94.32 
z
" style="fill:#1f77b4;stroke:#000000;stroke-linejoin:miter;"/>
   </g>
   <g id="patch_19">
    <path clip-path="url(#p824b8a93ee)" d="M 210.109091 94.32 
L 67.448392 94.32 
L 67.448392 79.92 
L 210.109091 79.92 
z
" style="fill:#1f77b4;stroke:#000000;stroke-linejoin:miter;"/>
   </g>
   <g id="patch_20">
    <path clip-path="url(#p824b8a93ee)" d="M 210.109091 79.92 
L 66.19972 79.92 
L 66.19972 65.52 
L 210.109091 65.52 
z
" style="fill:#1f77b4;stroke:#000000;stroke-linejoin:miter;"/>
   </g>
   <g id="patch_21">
    <path clip-path="url(#p824b8a93ee)" d="M 210.109091 65.52 
L 56.834685 65.52 
L 56.834685 51.12 
L 210.109091 51.12 
z
" style="fill:#1f77b4;stroke:#000000;stroke-linejoin:miter;"/>
   </g>
   <g id="patch_22">
    <path clip-path="url(#p824b8a93ee)" d="M 210.109091 51.12 
L 37.792448 51.12 
L 37.792448 36.72 
L 210.109091 36.72 
z
" style="fill:#1f77b4;stroke:#000000;stroke-linejoin:miter;"/>
   </g>
   <g id="patch_23">
    <path clip-path="url(#p824b8a93ee)" d="M 210.109091 36.72 
L 20.935385 36.72 
L 20.935385 22.32 
L 210.109091 22.32 
z
" style="fill:#1f77b4;stroke:#000000;stroke-linejoin:miter;"/>
   </g>
   <g id="matplotlib.axis_1">
    <g id="xtick_1">
     <g id="line2d_1">
      <defs>
       <path d="M 0 0 
L 0 3.5 
" id="md6562b5d37" style="stroke:#000000;stroke-width:0.8;"/>
      </defs>
      <g>
       <use style="stroke:#000000;stroke-width:0.8;" x="210.109091" xlink:href="#md6562b5d37" y="339.84"/>
      </g>
     </g>
     <g id="text_1">
      <!-- 0 -->
      <g transform="translate(206.959872 354.330625)scale(0.1 -0.1)">
       <defs>
        <path d="M 2038 4725 
Q 2881 4725 3334 3944 
Q 3694 3325 3694 2344 
Q 3694 1372 3334 741 
Q 2888 -31 2016 -31 
Q 1147 -31 700 741 
Q 341 1372 341 2350 
Q 341 3713 1000 4334 
Q 1419 4725 2038 4725 
z
M 2016 4266 
Q 1516 4266 1228 3759 
Q 934 3247 934 2344 
Q 934 1456 1222 947 
Q 1513 447 2016 447 
Q 2619 447 2909 1153 
Q 3100 1622 3100 2375 
Q 3100 3256 2806 3759 
Q 2509 4266 2016 4266 
z
" id="IPAexGothic-30" transform="scale(0.015625)"/>
       </defs>
       <use xlink:href="#IPAexGothic-30"/>
      </g>
     </g>
    </g>
    <g id="xtick_2">
     <g id="line2d_2">
      <g>
       <use style="stroke:#000000;stroke-width:0.8;" x="147.675524" xlink:href="#md6562b5d37" y="339.84"/>
      </g>
     </g>
     <g id="text_2">
      <!-- 20 -->
      <g transform="translate(141.377087 354.330625)scale(0.1 -0.1)">
       <defs>
        <path d="M 3659 63 
L 447 63 
L 447 594 
Q 825 1475 1894 2203 
L 2072 2322 
Q 2619 2697 2791 2906 
Q 2988 3153 2988 3444 
Q 2988 3772 2756 4003 
Q 2500 4259 2084 4259 
Q 1250 4259 991 3328 
L 497 3506 
Q 853 4725 2116 4725 
Q 2806 4725 3216 4316 
Q 3575 3947 3575 3425 
Q 3575 3038 3344 2722 
Q 3131 2416 2366 1938 
L 2231 1856 
Q 1256 1253 978 569 
L 3659 569 
L 3659 63 
z
" id="IPAexGothic-32" transform="scale(0.015625)"/>
       </defs>
       <use xlink:href="#IPAexGothic-32"/>
       <use x="62.988281" xlink:href="#IPAexGothic-30"/>
      </g>
     </g>
    </g>
    <g id="xtick_3">
     <g id="line2d_3">
      <g>
       <use style="stroke:#000000;stroke-width:0.8;" x="85.241958" xlink:href="#md6562b5d37" y="339.84"/>
      </g>
     </g>
     <g id="text_3">
      <!-- 40 -->
      <g transform="translate(78.943521 354.330625)scale(0.1 -0.1)">
       <defs>
        <path d="M 3813 1159 
L 3059 1159 
L 3059 63 
L 2547 63 
L 2547 1159 
L 197 1159 
L 197 1672 
L 2456 4678 
L 3059 4678 
L 3059 1634 
L 3813 1634 
L 3813 1159 
z
M 2578 4109 
L 2559 4109 
Q 2278 3656 2003 3284 
L 759 1634 
L 2547 1634 
L 2547 3144 
Q 2547 3481 2578 4109 
z
" id="IPAexGothic-34" transform="scale(0.015625)"/>
       </defs>
       <use xlink:href="#IPAexGothic-34"/>
       <use x="62.988281" xlink:href="#IPAexGothic-30"/>
      </g>
     </g>
    </g>
    <g id="xtick_4">
     <g id="line2d_4">
      <g>
       <use style="stroke:#000000;stroke-width:0.8;" x="22.808392" xlink:href="#md6562b5d37" y="339.84"/>
      </g>
     </g>
     <g id="text_4">
      <!-- 60 -->
      <g transform="translate(16.509954 354.330625)scale(0.1 -0.1)">
       <defs>
        <path d="M 1056 2328 
Q 1509 2981 2234 2981 
Q 2906 2981 3316 2513 
Q 3675 2106 3675 1522 
Q 3675 884 3272 434 
Q 2853 -31 2178 -31 
Q 1375 -31 922 581 
Q 481 1178 481 2228 
Q 481 3425 1013 4109 
Q 1494 4725 2272 4725 
Q 3191 4725 3609 4025 
L 3150 3775 
Q 2894 4266 2300 4266 
Q 1119 4266 1031 2328 
L 1056 2328 
z
M 2141 2547 
Q 1684 2547 1384 2206 
Q 1116 1900 1116 1541 
Q 1116 1156 1353 844 
Q 1672 428 2159 428 
Q 2669 428 2941 844 
Q 3125 1128 3125 1503 
Q 3125 1944 2881 2228 
Q 2600 2547 2141 2547 
z
" id="IPAexGothic-36" transform="scale(0.015625)"/>
       </defs>
       <use xlink:href="#IPAexGothic-36"/>
       <use x="62.988281" xlink:href="#IPAexGothic-30"/>
      </g>
     </g>
    </g>
    <g id="text_5">
     <!-- 男（%） -->
     <g transform="translate(89.403764 367.72125)scale(0.1 -0.1)">
      <defs>
       <path d="M 3306 2572 
L 3306 2003 
L 5666 2003 
Q 5569 419 5466 103 
Q 5322 -331 4691 -331 
Q 4181 -331 3569 -281 
L 3494 206 
Q 4116 103 4597 103 
Q 4953 103 5031 391 
Q 5131 759 5178 1594 
L 3269 1594 
Q 3138 775 2550 281 
Q 1975 -197 928 -475 
L 628 -63 
Q 2631 428 2794 1544 
L 647 1544 
L 647 1953 
L 2838 1953 
L 2838 2572 
L 1063 2572 
L 1063 4978 
L 5331 4978 
L 5331 2572 
L 3306 2572 
z
M 1516 4606 
L 1516 3969 
L 2956 3969 
L 2956 4606 
L 1516 4606 
z
M 1516 3609 
L 1516 2944 
L 2956 2944 
L 2956 3609 
L 1516 3609 
z
M 4878 2944 
L 4878 3609 
L 3397 3609 
L 3397 2944 
L 4878 2944 
z
M 4878 3969 
L 4878 4606 
L 3397 4606 
L 3397 3969 
L 4878 3969 
z
" id="IPAexGothic-7537" transform="scale(0.015625)"/>
       <path d="M 5419 -434 
Q 4197 769 4197 2438 
Q 4197 4097 5419 5300 
L 5919 5300 
Q 4678 4078 4678 2425 
Q 4678 788 5919 -434 
L 5419 -434 
z
" id="IPAexGothic-ff08" transform="scale(0.015625)"/>
       <path d="M 4088 2481 
Q 4528 2481 4800 2181 
Q 5094 1847 5094 1203 
Q 5094 534 4728 197 
Q 4472 -38 4088 -38 
Q 3647 -38 3378 269 
Q 3084 600 3084 1222 
Q 3084 1906 3444 2244 
Q 3697 2481 4088 2481 
z
M 4081 2097 
Q 3566 2097 3566 1234 
Q 3566 356 4097 356 
Q 4613 356 4613 1241 
Q 4613 2097 4081 2097 
z
M 1331 4731 
Q 1769 4731 2041 4431 
Q 2334 4097 2334 3450 
Q 2334 2781 1969 2447 
Q 1713 2209 1331 2209 
Q 888 2209 619 2516 
Q 325 2850 325 3472 
Q 325 4156 684 4494 
Q 941 4731 1331 4731 
z
M 1322 4347 
Q 806 4347 806 3484 
Q 806 2606 1338 2606 
Q 1859 2606 1859 3484 
Q 1859 3859 1725 4091 
Q 1584 4347 1322 4347 
z
M 4569 4603 
L 1106 -134 
L 856 78 
L 4313 4813 
L 4569 4603 
z
" id="IPAexGothic-25" transform="scale(0.015625)"/>
       <path d="M 481 -434 
Q 1722 788 1722 2431 
Q 1722 4066 481 5300 
L 981 5300 
Q 2203 4097 2203 2431 
Q 2203 769 981 -434 
L 481 -434 
z
" id="IPAexGothic-ff09" transform="scale(0.015625)"/>
      </defs>
      <use xlink:href="#IPAexGothic-7537"/>
      <use x="100" xlink:href="#IPAexGothic-ff08"/>
      <use x="200" xlink:href="#IPAexGothic-25"/>
      <use x="285.009766" xlink:href="#IPAexGothic-ff09"/>
     </g>
    </g>
   </g>
   <g id="matplotlib.axis_2">
    <g id="ytick_1">
     <g id="line2d_5">
      <defs>
       <path d="M 0 0 
L 3.5 0 
" id="m022c6742df" style="stroke:#000000;stroke-width:0.8;"/>
      </defs>
      <g>
       <use style="stroke:#000000;stroke-width:0.8;" x="210.109091" xlink:href="#m022c6742df" y="324.72"/>
      </g>
     </g>
    </g>
    <g id="ytick_2">
     <g id="line2d_6">
      <g>
       <use style="stroke:#000000;stroke-width:0.8;" x="210.109091" xlink:href="#m022c6742df" y="295.92"/>
      </g>
     </g>
    </g>
    <g id="ytick_3">
     <g id="line2d_7">
      <g>
       <use style="stroke:#000000;stroke-width:0.8;" x="210.109091" xlink:href="#m022c6742df" y="267.12"/>
      </g>
     </g>
    </g>
    <g id="ytick_4">
     <g id="line2d_8">
      <g>
       <use style="stroke:#000000;stroke-width:0.8;" x="210.109091" xlink:href="#m022c6742df" y="238.32"/>
      </g>
     </g>
    </g>
    <g id="ytick_5">
     <g id="line2d_9">
      <g>
       <use style="stroke:#000000;stroke-width:0.8;" x="210.109091" xlink:href="#m022c6742df" y="209.52"/>
      </g>
     </g>
    </g>
    <g id="ytick_6">
     <g id="line2d_10">
      <g>
       <use style="stroke:#000000;stroke-width:0.8;" x="210.109091" xlink:href="#m022c6742df" y="180.72"/>
      </g>
     </g>
    </g>
    <g id="ytick_7">
     <g id="line2d_11">
      <g>
       <use style="stroke:#000000;stroke-width:0.8;" x="210.109091" xlink:href="#m022c6742df" y="151.92"/>
      </g>
     </g>
    </g>
    <g id="ytick_8">
     <g id="line2d_12">
      <g>
       <use style="stroke:#000000;stroke-width:0.8;" x="210.109091" xlink:href="#m022c6742df" y="123.12"/>
      </g>
     </g>
    </g>
    <g id="ytick_9">
     <g id="line2d_13">
      <g>
       <use style="stroke:#000000;stroke-width:0.8;" x="210.109091" xlink:href="#m022c6742df" y="94.32"/>
      </g>
     </g>
    </g>
    <g id="ytick_10">
     <g id="line2d_14">
      <g>
       <use style="stroke:#000000;stroke-width:0.8;" x="210.109091" xlink:href="#m022c6742df" y="65.52"/>
      </g>
     </g>
    </g>
    <g id="ytick_11">
     <g id="line2d_15">
      <g>
       <use style="stroke:#000000;stroke-width:0.8;" x="210.109091" xlink:href="#m022c6742df" y="36.72"/>
      </g>
     </g>
    </g>
   </g>
   <g id="patch_24">
    <path d="M 7.2 339.84 
L 7.2 7.2 
" style="fill:none;stroke:#000000;stroke-linecap:square;stroke-linejoin:miter;stroke-width:0.8;"/>
   </g>
   <g id="patch_25">
    <path d="M 210.109091 339.84 
L 210.109091 7.2 
" style="fill:none;stroke:#000000;stroke-linecap:square;stroke-linejoin:miter;stroke-width:0.8;"/>
   </g>
   <g id="patch_26">
    <path d="M 7.2 339.84 
L 210.109091 339.84 
" style="fill:none;stroke:#000000;stroke-linecap:square;stroke-linejoin:miter;stroke-width:0.8;"/>
   </g>
   <g id="patch_27">
    <path d="M 7.2 7.2 
L 210.109091 7.2 
" style="fill:none;stroke:#000000;stroke-linecap:square;stroke-linejoin:miter;stroke-width:0.8;"/>
   </g>
  </g>
  <g id="axes_2">
   <g id="patch_28">
    <path d="M 250.690909 339.84 
L 453.6 339.84 
L 453.6 7.2 
L 250.690909 7.2 
z
" style="fill:#ffffff;"/>
   </g>
   <g id="patch_29">
    <path clip-path="url(#pe0b3951e37)" d="M 250.690909 324.72 
L 331.854545 324.72 
L 331.854545 310.32 
L 250.690909 310.32 
z
" style="fill:#ff7f0e;stroke:#000000;stroke-linejoin:miter;"/>
   </g>
   <g id="patch_30">
    <path clip-path="url(#pe0b3951e37)" d="M 250.690909 310.32 
L 352.76979 310.32 
L 352.76979 295.92 
L 250.690909 295.92 
z
" style="fill:#ff7f0e;stroke:#000000;stroke-linejoin:miter;"/>
   </g>
   <g id="patch_31">
    <path clip-path="url(#pe0b3951e37)" d="M 250.690909 295.92 
L 348.399441 295.92 
L 348.399441 281.52 
L 250.690909 281.52 
z
" style="fill:#ff7f0e;stroke:#000000;stroke-linejoin:miter;"/>
   </g>
   <g id="patch_32">
    <path clip-path="url(#pe0b3951e37)" d="M 250.690909 281.52 
L 354.330629 281.52 
L 354.330629 267.12 
L 250.690909 267.12 
z
" style="fill:#ff7f0e;stroke:#000000;stroke-linejoin:miter;"/>
   </g>
   <g id="patch_33">
    <path clip-path="url(#pe0b3951e37)" d="M 250.690909 267.12 
L 371.49986 267.12 
L 371.49986 252.72 
L 250.690909 252.72 
z
" style="fill:#ff7f0e;stroke:#000000;stroke-linejoin:miter;"/>
   </g>
   <g id="patch_34">
    <path clip-path="url(#pe0b3951e37)" d="M 250.690909 252.72 
L 383.986573 252.72 
L 383.986573 238.32 
L 250.690909 238.32 
z
" style="fill:#ff7f0e;stroke:#000000;stroke-linejoin:miter;"/>
   </g>
   <g id="patch_35">
    <path clip-path="url(#pe0b3951e37)" d="M 250.690909 238.32 
L 387.732587 238.32 
L 387.732587 223.92 
L 250.690909 223.92 
z
" style="fill:#ff7f0e;stroke:#000000;stroke-linejoin:miter;"/>
   </g>
   <g id="patch_36">
    <path clip-path="url(#pe0b3951e37)" d="M 250.690909 223.92 
L 380.864895 223.92 
L 380.864895 209.52 
L 250.690909 209.52 
z
" style="fill:#ff7f0e;stroke:#000000;stroke-linejoin:miter;"/>
   </g>
   <g id="patch_37">
    <path clip-path="url(#pe0b3951e37)" d="M 250.690909 209.52 
L 372.436364 209.52 
L 372.436364 195.12 
L 250.690909 195.12 
z
" style="fill:#ff7f0e;stroke:#000000;stroke-linejoin:miter;"/>
   </g>
   <g id="patch_38">
    <path clip-path="url(#pe0b3951e37)" d="M 250.690909 195.12 
L 369.939021 195.12 
L 369.939021 180.72 
L 250.690909 180.72 
z
" style="fill:#ff7f0e;stroke:#000000;stroke-linejoin:miter;"/>
   </g>
   <g id="patch_39">
    <path clip-path="url(#pe0b3951e37)" d="M 250.690909 180.72 
L 383.986573 180.72 
L 383.986573 166.32 
L 250.690909 166.32 
z
" style="fill:#ff7f0e;stroke:#000000;stroke-linejoin:miter;"/>
   </g>
   <g id="patch_40">
    <path clip-path="url(#pe0b3951e37)" d="M 250.690909 166.32 
L 382.425734 166.32 
L 382.425734 151.92 
L 250.690909 151.92 
z
" style="fill:#ff7f0e;stroke:#000000;stroke-linejoin:miter;"/>
   </g>
   <g id="patch_41">
    <path clip-path="url(#pe0b3951e37)" d="M 250.690909 151.92 
L 394.912448 151.92 
L 394.912448 137.52 
L 250.690909 137.52 
z
" style="fill:#ff7f0e;stroke:#000000;stroke-linejoin:miter;"/>
   </g>
   <g id="patch_42">
    <path clip-path="url(#pe0b3951e37)" d="M 250.690909 137.52 
L 387.42042 137.52 
L 387.42042 123.12 
L 250.690909 123.12 
z
" style="fill:#ff7f0e;stroke:#000000;stroke-linejoin:miter;"/>
   </g>
   <g id="patch_43">
    <path clip-path="url(#pe0b3951e37)" d="M 250.690909 123.12 
L 389.917762 123.12 
L 389.917762 108.72 
L 250.690909 108.72 
z
" style="fill:#ff7f0e;stroke:#000000;stroke-linejoin:miter;"/>
   </g>
   <g id="patch_44">
    <path clip-path="url(#pe0b3951e37)" d="M 250.690909 108.72 
L 366.817343 108.72 
L 366.817343 94.32 
L 250.690909 94.32 
z
" style="fill:#ff7f0e;stroke:#000000;stroke-linejoin:miter;"/>
   </g>
   <g id="patch_45">
    <path clip-path="url(#pe0b3951e37)" d="M 250.690909 94.32 
L 360.886154 94.32 
L 360.886154 79.92 
L 250.690909 79.92 
z
" style="fill:#ff7f0e;stroke:#000000;stroke-linejoin:miter;"/>
   </g>
   <g id="patch_46">
    <path clip-path="url(#pe0b3951e37)" d="M 250.690909 79.92 
L 335.600559 79.92 
L 335.600559 65.52 
L 250.690909 65.52 
z
" style="fill:#ff7f0e;stroke:#000000;stroke-linejoin:miter;"/>
   </g>
   <g id="patch_47">
    <path clip-path="url(#pe0b3951e37)" d="M 250.690909 65.52 
L 310.939301 65.52 
L 310.939301 51.12 
L 250.690909 51.12 
z
" style="fill:#ff7f0e;stroke:#000000;stroke-linejoin:miter;"/>
   </g>
   <g id="patch_48">
    <path clip-path="url(#pe0b3951e37)" d="M 250.690909 51.12 
L 293.77007 51.12 
L 293.77007 36.72 
L 250.690909 36.72 
z
" style="fill:#ff7f0e;stroke:#000000;stroke-linejoin:miter;"/>
   </g>
   <g id="patch_49">
    <path clip-path="url(#pe0b3951e37)" d="M 250.690909 36.72 
L 288.463217 36.72 
L 288.463217 22.32 
L 250.690909 22.32 
z
" style="fill:#ff7f0e;stroke:#000000;stroke-linejoin:miter;"/>
   </g>
   <g id="matplotlib.axis_3">
    <g id="xtick_5">
     <g id="line2d_16">
      <g>
       <use style="stroke:#000000;stroke-width:0.8;" x="250.690909" xlink:href="#md6562b5d37" y="339.84"/>
      </g>
     </g>
     <g id="text_6">
      <!-- 0 -->
      <g transform="translate(247.54169 354.330625)scale(0.1 -0.1)">
       <use xlink:href="#IPAexGothic-30"/>
      </g>
     </g>
    </g>
    <g id="xtick_6">
     <g id="line2d_17">
      <g>
       <use style="stroke:#000000;stroke-width:0.8;" x="313.124476" xlink:href="#md6562b5d37" y="339.84"/>
      </g>
     </g>
     <g id="text_7">
      <!-- 20 -->
      <g transform="translate(306.826038 354.330625)scale(0.1 -0.1)">
       <use xlink:href="#IPAexGothic-32"/>
       <use x="62.988281" xlink:href="#IPAexGothic-30"/>
      </g>
     </g>
    </g>
    <g id="xtick_7">
     <g id="line2d_18">
      <g>
       <use style="stroke:#000000;stroke-width:0.8;" x="375.558042" xlink:href="#md6562b5d37" y="339.84"/>
      </g>
     </g>
     <g id="text_8">
      <!-- 40 -->
      <g transform="translate(369.259604 354.330625)scale(0.1 -0.1)">
       <use xlink:href="#IPAexGothic-34"/>
       <use x="62.988281" xlink:href="#IPAexGothic-30"/>
      </g>
     </g>
    </g>
    <g id="xtick_8">
     <g id="line2d_19">
      <g>
       <use style="stroke:#000000;stroke-width:0.8;" x="437.991608" xlink:href="#md6562b5d37" y="339.84"/>
      </g>
     </g>
     <g id="text_9">
      <!-- 60 -->
      <g transform="translate(431.693171 354.330625)scale(0.1 -0.1)">
       <use xlink:href="#IPAexGothic-36"/>
       <use x="62.988281" xlink:href="#IPAexGothic-30"/>
      </g>
     </g>
    </g>
    <g id="text_10">
     <!-- 女（%） -->
     <g transform="translate(332.894673 367.72125)scale(0.1 -0.1)">
      <defs>
       <path d="M 1869 1659 
Q 1816 1553 1600 1172 
L 1159 1353 
Q 1744 2413 2088 3266 
L 481 3266 
L 481 3700 
L 2259 3700 
Q 2538 4419 2741 5197 
L 3228 5081 
Q 2988 4238 2778 3700 
L 5916 3700 
L 5916 3266 
L 4822 3266 
Q 4813 3253 4813 3222 
Q 4575 2003 3950 1166 
Q 4828 731 5800 169 
L 5403 -266 
Q 4622 263 3631 809 
Q 2672 -53 788 -331 
L 519 103 
Q 2313 322 3194 1031 
Q 2678 1300 2003 1603 
L 1869 1659 
z
M 2056 2031 
L 2228 1953 
Q 2947 1659 3522 1372 
Q 3534 1397 3547 1409 
Q 4050 2063 4309 3209 
L 4328 3266 
L 2613 3266 
Q 2378 2666 2056 2031 
z
" id="IPAexGothic-5973" transform="scale(0.015625)"/>
      </defs>
      <use xlink:href="#IPAexGothic-5973"/>
      <use x="100" xlink:href="#IPAexGothic-ff08"/>
      <use x="200" xlink:href="#IPAexGothic-25"/>
      <use x="285.009766" xlink:href="#IPAexGothic-ff09"/>
     </g>
    </g>
   </g>
   <g id="matplotlib.axis_4">
    <g id="ytick_12">
     <g id="line2d_20">
      <defs>
       <path d="M 0 0 
L -3.5 0 
" id="mfcdd4038af" style="stroke:#000000;stroke-width:0.8;"/>
      </defs>
      <g>
       <use style="stroke:#000000;stroke-width:0.8;" x="250.690909" xlink:href="#mfcdd4038af" y="324.72"/>
      </g>
     </g>
     <g id="text_11">
      <!-- 0歳 -->
      <g transform="translate(227.392472 328.465312)scale(0.1 -0.1)">
       <defs>
        <path d="M 4263 2547 
Q 4366 1616 4619 1088 
Q 4981 1606 5209 2259 
L 5613 2125 
Q 5328 1313 4850 697 
Q 5222 134 5459 134 
Q 5566 134 5663 953 
L 6059 684 
Q 5959 59 5881 -128 
Q 5775 -384 5572 -384 
Q 5416 -384 5138 -194 
Q 4788 47 4556 366 
Q 4084 -125 3475 -453 
L 3178 -116 
Q 3831 206 4325 728 
Q 3994 1366 3831 2528 
L 1241 2528 
L 1241 2138 
Q 1241 1109 1119 538 
Q 994 -53 641 -513 
L 288 -178 
Q 794 413 794 1791 
L 794 2900 
L 3794 2900 
L 3781 3022 
Q 3778 3059 3766 3225 
Q 3756 3363 3750 3469 
L 484 3469 
L 484 3847 
L 1509 3847 
L 1509 4884 
L 1963 4884 
L 1963 3847 
L 2963 3847 
L 2963 5313 
L 3422 5313 
L 3422 4750 
L 5203 4750 
L 5203 4391 
L 3422 4391 
L 3422 3847 
L 5906 3847 
L 5906 3469 
L 4888 3469 
Q 5131 3344 5472 3078 
L 5228 2919 
L 5913 2919 
L 5913 2547 
L 4263 2547 
z
M 4222 2919 
L 5022 2919 
Q 4831 3094 4497 3278 
L 4778 3469 
L 4191 3469 
Q 4206 3116 4222 2919 
z
M 2834 1663 
L 2834 91 
Q 2834 -353 2394 -353 
Q 2225 -353 1969 -319 
L 1906 91 
Q 2075 44 2291 44 
Q 2419 44 2419 184 
L 2419 1663 
L 1388 1663 
L 1388 2022 
L 3781 2022 
L 3781 1663 
L 2834 1663 
z
M 1272 250 
Q 1588 747 1713 1434 
L 2116 1325 
Q 1956 503 1625 -25 
L 1272 250 
z
M 3428 403 
Q 3263 944 3025 1275 
L 3372 1447 
Q 3641 1100 3813 622 
L 3428 403 
z
" id="IPAexGothic-6b73" transform="scale(0.015625)"/>
       </defs>
       <use xlink:href="#IPAexGothic-30"/>
       <use x="62.988281" xlink:href="#IPAexGothic-6b73"/>
      </g>
     </g>
    </g>
    <g id="ytick_13">
     <g id="line2d_21">
      <g>
       <use style="stroke:#000000;stroke-width:0.8;" x="250.690909" xlink:href="#mfcdd4038af" y="295.92"/>
      </g>
     </g>
     <g id="text_12">
      <!-- 10歳 -->
      <g transform="translate(221.094034 299.665313)scale(0.1 -0.1)">
       <defs>
        <path d="M 2463 63 
L 1900 63 
L 1900 4103 
Q 1372 3922 788 3797 
L 684 4231 
Q 1519 4441 2106 4731 
L 2463 4731 
L 2463 63 
z
" id="IPAexGothic-31" transform="scale(0.015625)"/>
       </defs>
       <use xlink:href="#IPAexGothic-31"/>
       <use x="62.988281" xlink:href="#IPAexGothic-30"/>
       <use x="125.976562" xlink:href="#IPAexGothic-6b73"/>
      </g>
     </g>
    </g>
    <g id="ytick_14">
     <g id="line2d_22">
      <g>
       <use style="stroke:#000000;stroke-width:0.8;" x="250.690909" xlink:href="#mfcdd4038af" y="267.12"/>
      </g>
     </g>
     <g id="text_13">
      <!-- 20歳 -->
      <g transform="translate(221.094034 270.865313)scale(0.1 -0.1)">
       <use xlink:href="#IPAexGothic-32"/>
       <use x="62.988281" xlink:href="#IPAexGothic-30"/>
       <use x="125.976562" xlink:href="#IPAexGothic-6b73"/>
      </g>
     </g>
    </g>
    <g id="ytick_15">
     <g id="line2d_23">
      <g>
       <use style="stroke:#000000;stroke-width:0.8;" x="250.690909" xlink:href="#mfcdd4038af" y="238.32"/>
      </g>
     </g>
     <g id="text_14">
      <!-- 30歳 -->
      <g transform="translate(221.094034 242.065313)scale(0.1 -0.1)">
       <defs>
        <path d="M 2381 2419 
Q 3506 2216 3506 1278 
Q 3506 716 3128 356 
Q 2709 -31 1944 -31 
Q 797 -31 288 881 
L 756 1131 
Q 1109 441 1938 441 
Q 2425 441 2694 691 
Q 2950 928 2950 1291 
Q 2950 1719 2566 1978 
Q 2216 2213 1644 2213 
L 1363 2213 
L 1363 2669 
L 1656 2669 
Q 2231 2669 2534 2888 
Q 2859 3119 2859 3509 
Q 2859 3934 2494 4138 
Q 2259 4278 1931 4278 
Q 1238 4278 903 3578 
L 434 3803 
Q 897 4725 1938 4725 
Q 2597 4725 3006 4394 
Q 3416 4069 3416 3534 
Q 3416 3028 3019 2706 
Q 2763 2500 2381 2444 
L 2381 2419 
z
" id="IPAexGothic-33" transform="scale(0.015625)"/>
       </defs>
       <use xlink:href="#IPAexGothic-33"/>
       <use x="62.988281" xlink:href="#IPAexGothic-30"/>
       <use x="125.976562" xlink:href="#IPAexGothic-6b73"/>
      </g>
     </g>
    </g>
    <g id="ytick_16">
     <g id="line2d_24">
      <g>
       <use style="stroke:#000000;stroke-width:0.8;" x="250.690909" xlink:href="#mfcdd4038af" y="209.52"/>
      </g>
     </g>
     <g id="text_15">
      <!-- 40歳 -->
      <g transform="translate(221.094034 213.265312)scale(0.1 -0.1)">
       <use xlink:href="#IPAexGothic-34"/>
       <use x="62.988281" xlink:href="#IPAexGothic-30"/>
       <use x="125.976562" xlink:href="#IPAexGothic-6b73"/>
      </g>
     </g>
    </g>
    <g id="ytick_17">
     <g id="line2d_25">
      <g>
       <use style="stroke:#000000;stroke-width:0.8;" x="250.690909" xlink:href="#mfcdd4038af" y="180.72"/>
      </g>
     </g>
     <g id="text_16">
      <!-- 50歳 -->
      <g transform="translate(221.094034 184.465312)scale(0.1 -0.1)">
       <defs>
        <path d="M 1178 2603 
Q 1634 2963 2172 2963 
Q 2816 2963 3241 2528 
Q 3638 2113 3638 1497 
Q 3638 938 3297 513 
Q 2869 -31 2031 -31 
Q 959 -31 469 784 
L 938 1028 
Q 1309 434 2013 434 
Q 2466 434 2769 716 
Q 3081 1013 3081 1503 
Q 3081 1966 2806 2241 
Q 2519 2528 2056 2528 
Q 1406 2528 1072 2028 
L 591 2091 
L 884 4634 
L 3406 4634 
L 3406 4153 
L 1341 4153 
L 1134 2603 
L 1178 2603 
z
" id="IPAexGothic-35" transform="scale(0.015625)"/>
       </defs>
       <use xlink:href="#IPAexGothic-35"/>
       <use x="62.988281" xlink:href="#IPAexGothic-30"/>
       <use x="125.976562" xlink:href="#IPAexGothic-6b73"/>
      </g>
     </g>
    </g>
    <g id="ytick_18">
     <g id="line2d_26">
      <g>
       <use style="stroke:#000000;stroke-width:0.8;" x="250.690909" xlink:href="#mfcdd4038af" y="151.92"/>
      </g>
     </g>
     <g id="text_17">
      <!-- 60歳 -->
      <g transform="translate(221.094034 155.665313)scale(0.1 -0.1)">
       <use xlink:href="#IPAexGothic-36"/>
       <use x="62.988281" xlink:href="#IPAexGothic-30"/>
       <use x="125.976562" xlink:href="#IPAexGothic-6b73"/>
      </g>
     </g>
    </g>
    <g id="ytick_19">
     <g id="line2d_27">
      <g>
       <use style="stroke:#000000;stroke-width:0.8;" x="250.690909" xlink:href="#mfcdd4038af" y="123.12"/>
      </g>
     </g>
     <g id="text_18">
      <!-- 70歳 -->
      <g transform="translate(221.094034 126.865313)scale(0.1 -0.1)">
       <defs>
        <path d="M 3597 4263 
Q 2238 2106 1778 63 
L 1131 63 
Q 1581 1834 2950 4128 
L 428 4128 
L 428 4634 
L 3597 4634 
L 3597 4263 
z
" id="IPAexGothic-37" transform="scale(0.015625)"/>
       </defs>
       <use xlink:href="#IPAexGothic-37"/>
       <use x="62.988281" xlink:href="#IPAexGothic-30"/>
       <use x="125.976562" xlink:href="#IPAexGothic-6b73"/>
      </g>
     </g>
    </g>
    <g id="ytick_20">
     <g id="line2d_28">
      <g>
       <use style="stroke:#000000;stroke-width:0.8;" x="250.690909" xlink:href="#mfcdd4038af" y="94.32"/>
      </g>
     </g>
     <g id="text_19">
      <!-- 80歳 -->
      <g transform="translate(221.094034 98.065313)scale(0.1 -0.1)">
       <defs>
        <path d="M 2541 2425 
Q 3700 2031 3700 1197 
Q 3700 541 3100 197 
Q 2663 -56 2016 -56 
Q 1366 -56 928 197 
Q 347 531 347 1178 
Q 347 1988 1409 2381 
L 1409 2400 
Q 481 2734 481 3509 
Q 481 4100 981 4456 
Q 1406 4756 2019 4756 
Q 2703 4756 3131 4403 
Q 3553 4069 3553 3566 
Q 3553 2706 2541 2444 
L 2541 2425 
z
M 2022 2625 
Q 2997 2856 2997 3528 
Q 2997 3916 2675 4150 
Q 2413 4347 2016 4347 
Q 1606 4347 1331 4128 
Q 1050 3897 1050 3522 
Q 1050 3150 1350 2925 
Q 1494 2809 1722 2722 
Q 1984 2616 2022 2625 
z
M 1978 2209 
Q 922 1931 922 1216 
Q 922 775 1313 556 
Q 1606 391 2009 391 
Q 2575 391 2881 697 
Q 3106 922 3106 1250 
Q 3106 1594 2794 1850 
Q 2609 1994 2350 2100 
Q 2047 2222 1978 2209 
z
" id="IPAexGothic-38" transform="scale(0.015625)"/>
       </defs>
       <use xlink:href="#IPAexGothic-38"/>
       <use x="62.988281" xlink:href="#IPAexGothic-30"/>
       <use x="125.976562" xlink:href="#IPAexGothic-6b73"/>
      </g>
     </g>
    </g>
    <g id="ytick_21">
     <g id="line2d_29">
      <g>
       <use style="stroke:#000000;stroke-width:0.8;" x="250.690909" xlink:href="#mfcdd4038af" y="65.52"/>
      </g>
     </g>
     <g id="text_20">
      <!-- 90歳 -->
      <g transform="translate(221.094034 69.265312)scale(0.1 -0.1)">
       <defs>
        <path d="M 2984 2356 
Q 2544 1716 1813 1716 
Q 1253 1716 847 2056 
Q 366 2459 366 3163 
Q 366 3813 769 4266 
Q 1181 4725 1869 4725 
Q 2800 4725 3241 3950 
Q 3559 3378 3559 2472 
Q 3559 1250 3041 588 
Q 2553 -31 1769 -31 
Q 859 -31 391 703 
L 853 953 
Q 1156 428 1753 428 
Q 2922 428 3009 2356 
L 2984 2356 
z
M 1888 4278 
Q 1450 4278 1172 3950 
Q 922 3653 922 3200 
Q 922 2741 1159 2478 
Q 1434 2163 1906 2163 
Q 2431 2163 2728 2572 
Q 2925 2847 2925 3169 
Q 2925 3553 2694 3863 
Q 2375 4278 1888 4278 
z
" id="IPAexGothic-39" transform="scale(0.015625)"/>
       </defs>
       <use xlink:href="#IPAexGothic-39"/>
       <use x="62.988281" xlink:href="#IPAexGothic-30"/>
       <use x="125.976562" xlink:href="#IPAexGothic-6b73"/>
      </g>
     </g>
    </g>
    <g id="ytick_22">
     <g id="line2d_30">
      <g>
       <use style="stroke:#000000;stroke-width:0.8;" x="250.690909" xlink:href="#mfcdd4038af" y="36.72"/>
      </g>
     </g>
     <g id="text_21">
      <!-- 100歳 -->
      <g transform="translate(214.795597 40.465312)scale(0.1 -0.1)">
       <use xlink:href="#IPAexGothic-31"/>
       <use x="62.988281" xlink:href="#IPAexGothic-30"/>
       <use x="125.976562" xlink:href="#IPAexGothic-30"/>
       <use x="188.964844" xlink:href="#IPAexGothic-6b73"/>
      </g>
     </g>
    </g>
   </g>
   <g id="patch_50">
    <path d="M 250.690909 339.84 
L 250.690909 7.2 
" style="fill:none;stroke:#000000;stroke-linecap:square;stroke-linejoin:miter;stroke-width:0.8;"/>
   </g>
   <g id="patch_51">
    <path d="M 453.6 339.84 
L 453.6 7.2 
" style="fill:none;stroke:#000000;stroke-linecap:square;stroke-linejoin:miter;stroke-width:0.8;"/>
   </g>
   <g id="patch_52">
    <path d="M 250.690909 339.84 
L 453.6 339.84 
" style="fill:none;stroke:#000000;stroke-linecap:square;stroke-linejoin:miter;stroke-width:0.8;"/>
   </g>
   <g id="patch_53">
    <path d="M 250.690909 7.2 
L 453.6 7.2 
" style="fill:none;stroke:#000000;stroke-linecap:square;stroke-linejoin:miter;stroke-width:0.8;"/>
   </g>
  </g>
 </g>
 <defs>
  <clipPath id="p824b8a93ee">
   <rect height="332.64" width="202.909091" x="7.2" y="7.2"/>
  </clipPath>
  <clipPath id="pe0b3951e37">
   <rect height="332.64" width="202.909091" x="250.690909" y="7.2"/>
  </clipPath>
 </defs>
</svg>
