<?xml version="1.0" encoding="utf-8" standalone="no"?>
<!DOCTYPE svg PUBLIC "-//W3C//DTD SVG 1.1//EN"
  "http://www.w3.org/Graphics/SVG/1.1/DTD/svg11.dtd">
<svg xmlns:xlink="http://www.w3.org/1999/xlink" width="407.149687pt" height="310.29325pt" viewBox="0 0 407.149687 310.29325" xmlns="http://www.w3.org/2000/svg" version="1.1">
 <metadata>
  <rdf:RDF xmlns:dc="http://purl.org/dc/elements/1.1/" xmlns:cc="http://creativecommons.org/ns#" xmlns:rdf="http://www.w3.org/1999/02/22-rdf-syntax-ns#">
   <cc:Work>
    <dc:type rdf:resource="http://purl.org/dc/dcmitype/StillImage"/>
    <dc:date>2022-02-02T14:25:01.780206</dc:date>
    <dc:format>image/svg+xml</dc:format>
    <dc:creator>
     <cc:Agent>
      <dc:title>Matplotlib v3.5.0, https://matplotlib.org/</dc:title>
     </cc:Agent>
    </dc:creator>
   </cc:Work>
  </rdf:RDF>
 </metadata>
 <defs>
  <style type="text/css">*{stroke-linejoin: round; stroke-linecap: butt}</style>
 </defs>
 <g id="figure_1">
  <g id="patch_1">
   <path d="M -0 310.29325 
L 407.149687 310.29325 
L 407.149687 0 
L -0 0 
z
" style="fill: #ffffff"/>
  </g>
  <g id="axes_1">
   <g id="patch_2">
    <path d="M 42.829688 273.312 
L 399.949687 273.312 
L 399.949687 7.2 
L 42.829688 7.2 
z
" style="fill: #ffffff"/>
   </g>
   <g id="matplotlib.axis_1">
    <g id="xtick_1">
     <g id="line2d_1">
      <path d="M 59.062415 273.312 
L 59.062415 7.2 
" clip-path="url(#p0a6535210b)" style="fill: none; stroke: #b0b0b0; stroke-width: 0.8; stroke-linecap: square"/>
     </g>
     <g id="line2d_2">
      <defs>
       <path id="m0a644ecc63" d="M 0 0 
L 0 3.5 
" style="stroke: #000000; stroke-width: 0.8"/>
      </defs>
      <g>
       <use xlink:href="#m0a644ecc63" x="59.062415" y="273.312" style="stroke: #000000; stroke-width: 0.8"/>
      </g>
     </g>
     <g id="text_1">
      <!-- 0 -->
      <g transform="translate(55.913196 287.802625)scale(0.1 -0.1)">
       <defs>
        <path id="IPAexGothic-30" d="M 2038 4725 
Q 2881 4725 3334 3944 
Q 3694 3325 3694 2344 
Q 3694 1372 3334 741 
Q 2888 -31 2016 -31 
Q 1147 -31 700 741 
Q 341 1372 341 2350 
Q 341 3713 1000 4334 
Q 1419 4725 2038 4725 
z
M 2016 4266 
Q 1516 4266 1228 3759 
Q 934 3247 934 2344 
Q 934 1456 1222 947 
Q 1513 447 2016 447 
Q 2619 447 2909 1153 
Q 3100 1622 3100 2375 
Q 3100 3256 2806 3759 
Q 2509 4266 2016 4266 
z
" transform="scale(0.015625)"/>
       </defs>
       <use xlink:href="#IPAexGothic-30"/>
      </g>
     </g>
    </g>
    <g id="xtick_2">
     <g id="line2d_3">
      <path d="M 120.901376 273.312 
L 120.901376 7.2 
" clip-path="url(#p0a6535210b)" style="fill: none; stroke: #b0b0b0; stroke-width: 0.8; stroke-linecap: square"/>
     </g>
     <g id="line2d_4">
      <g>
       <use xlink:href="#m0a644ecc63" x="120.901376" y="273.312" style="stroke: #000000; stroke-width: 0.8"/>
      </g>
     </g>
     <g id="text_2">
      <!-- 20 -->
      <g transform="translate(114.602938 287.802625)scale(0.1 -0.1)">
       <defs>
        <path id="IPAexGothic-32" d="M 3659 63 
L 447 63 
L 447 594 
Q 825 1475 1894 2203 
L 2072 2322 
Q 2619 2697 2791 2906 
Q 2988 3153 2988 3444 
Q 2988 3772 2756 4003 
Q 2500 4259 2084 4259 
Q 1250 4259 991 3328 
L 497 3506 
Q 853 4725 2116 4725 
Q 2806 4725 3216 4316 
Q 3575 3947 3575 3425 
Q 3575 3038 3344 2722 
Q 3131 2416 2366 1938 
L 2231 1856 
Q 1256 1253 978 569 
L 3659 569 
L 3659 63 
z
" transform="scale(0.015625)"/>
       </defs>
       <use xlink:href="#IPAexGothic-32"/>
       <use xlink:href="#IPAexGothic-30" x="62.988281"/>
      </g>
     </g>
    </g>
    <g id="xtick_3">
     <g id="line2d_5">
      <path d="M 182.740337 273.312 
L 182.740337 7.2 
" clip-path="url(#p0a6535210b)" style="fill: none; stroke: #b0b0b0; stroke-width: 0.8; stroke-linecap: square"/>
     </g>
     <g id="line2d_6">
      <g>
       <use xlink:href="#m0a644ecc63" x="182.740337" y="273.312" style="stroke: #000000; stroke-width: 0.8"/>
      </g>
     </g>
     <g id="text_3">
      <!-- 40 -->
      <g transform="translate(176.441899 287.802625)scale(0.1 -0.1)">
       <defs>
        <path id="IPAexGothic-34" d="M 3813 1159 
L 3059 1159 
L 3059 63 
L 2547 63 
L 2547 1159 
L 197 1159 
L 197 1672 
L 2456 4678 
L 3059 4678 
L 3059 1634 
L 3813 1634 
L 3813 1159 
z
M 2578 4109 
L 2559 4109 
Q 2278 3656 2003 3284 
L 759 1634 
L 2547 1634 
L 2547 3144 
Q 2547 3481 2578 4109 
z
" transform="scale(0.015625)"/>
       </defs>
       <use xlink:href="#IPAexGothic-34"/>
       <use xlink:href="#IPAexGothic-30" x="62.988281"/>
      </g>
     </g>
    </g>
    <g id="xtick_4">
     <g id="line2d_7">
      <path d="M 244.579298 273.312 
L 244.579298 7.2 
" clip-path="url(#p0a6535210b)" style="fill: none; stroke: #b0b0b0; stroke-width: 0.8; stroke-linecap: square"/>
     </g>
     <g id="line2d_8">
      <g>
       <use xlink:href="#m0a644ecc63" x="244.579298" y="273.312" style="stroke: #000000; stroke-width: 0.8"/>
      </g>
     </g>
     <g id="text_4">
      <!-- 60 -->
      <g transform="translate(238.28086 287.802625)scale(0.1 -0.1)">
       <defs>
        <path id="IPAexGothic-36" d="M 1056 2328 
Q 1509 2981 2234 2981 
Q 2906 2981 3316 2513 
Q 3675 2106 3675 1522 
Q 3675 884 3272 434 
Q 2853 -31 2178 -31 
Q 1375 -31 922 581 
Q 481 1178 481 2228 
Q 481 3425 1013 4109 
Q 1494 4725 2272 4725 
Q 3191 4725 3609 4025 
L 3150 3775 
Q 2894 4266 2300 4266 
Q 1119 4266 1031 2328 
L 1056 2328 
z
M 2141 2547 
Q 1684 2547 1384 2206 
Q 1116 1900 1116 1541 
Q 1116 1156 1353 844 
Q 1672 428 2159 428 
Q 2669 428 2941 844 
Q 3125 1128 3125 1503 
Q 3125 1944 2881 2228 
Q 2600 2547 2141 2547 
z
" transform="scale(0.015625)"/>
       </defs>
       <use xlink:href="#IPAexGothic-36"/>
       <use xlink:href="#IPAexGothic-30" x="62.988281"/>
      </g>
     </g>
    </g>
    <g id="xtick_5">
     <g id="line2d_9">
      <path d="M 306.418259 273.312 
L 306.418259 7.2 
" clip-path="url(#p0a6535210b)" style="fill: none; stroke: #b0b0b0; stroke-width: 0.8; stroke-linecap: square"/>
     </g>
     <g id="line2d_10">
      <g>
       <use xlink:href="#m0a644ecc63" x="306.418259" y="273.312" style="stroke: #000000; stroke-width: 0.8"/>
      </g>
     </g>
     <g id="text_5">
      <!-- 80 -->
      <g transform="translate(300.119821 287.802625)scale(0.1 -0.1)">
       <defs>
        <path id="IPAexGothic-38" d="M 2541 2425 
Q 3700 2031 3700 1197 
Q 3700 541 3100 197 
Q 2663 -56 2016 -56 
Q 1366 -56 928 197 
Q 347 531 347 1178 
Q 347 1988 1409 2381 
L 1409 2400 
Q 481 2734 481 3509 
Q 481 4100 981 4456 
Q 1406 4756 2019 4756 
Q 2703 4756 3131 4403 
Q 3553 4069 3553 3566 
Q 3553 2706 2541 2444 
L 2541 2425 
z
M 2022 2625 
Q 2997 2856 2997 3528 
Q 2997 3916 2675 4150 
Q 2413 4347 2016 4347 
Q 1606 4347 1331 4128 
Q 1050 3897 1050 3522 
Q 1050 3150 1350 2925 
Q 1494 2809 1722 2722 
Q 1984 2616 2022 2625 
z
M 1978 2209 
Q 922 1931 922 1216 
Q 922 775 1313 556 
Q 1606 391 2009 391 
Q 2575 391 2881 697 
Q 3106 922 3106 1250 
Q 3106 1594 2794 1850 
Q 2609 1994 2350 2100 
Q 2047 2222 1978 2209 
z
" transform="scale(0.015625)"/>
       </defs>
       <use xlink:href="#IPAexGothic-38"/>
       <use xlink:href="#IPAexGothic-30" x="62.988281"/>
      </g>
     </g>
    </g>
    <g id="xtick_6">
     <g id="line2d_11">
      <path d="M 368.25722 273.312 
L 368.25722 7.2 
" clip-path="url(#p0a6535210b)" style="fill: none; stroke: #b0b0b0; stroke-width: 0.8; stroke-linecap: square"/>
     </g>
     <g id="line2d_12">
      <g>
       <use xlink:href="#m0a644ecc63" x="368.25722" y="273.312" style="stroke: #000000; stroke-width: 0.8"/>
      </g>
     </g>
     <g id="text_6">
      <!-- 100 -->
      <g transform="translate(358.809564 287.802625)scale(0.1 -0.1)">
       <defs>
        <path id="IPAexGothic-31" d="M 2463 63 
L 1900 63 
L 1900 4103 
Q 1372 3922 788 3797 
L 684 4231 
Q 1519 4441 2106 4731 
L 2463 4731 
L 2463 63 
z
" transform="scale(0.015625)"/>
       </defs>
       <use xlink:href="#IPAexGothic-31"/>
       <use xlink:href="#IPAexGothic-30" x="62.988281"/>
       <use xlink:href="#IPAexGothic-30" x="125.976562"/>
      </g>
     </g>
    </g>
    <g id="text_7">
     <!-- 年齢 -->
     <g transform="translate(211.389688 301.19325)scale(0.1 -0.1)">
      <defs>
       <path id="IPAexGothic-5e74" d="M 1772 4159 
Q 1444 3422 875 2803 
L 528 3166 
Q 1322 3941 1631 5259 
L 2109 5156 
Q 1994 4759 1931 4563 
L 5694 4563 
L 5694 4159 
L 3756 4159 
L 3756 3128 
L 5434 3128 
L 5434 2725 
L 3756 2725 
L 3756 1509 
L 6078 1509 
L 6078 1094 
L 3756 1094 
L 3756 -450 
L 3275 -450 
L 3275 1094 
L 447 1094 
L 447 1509 
L 1534 1509 
L 1534 3128 
L 3275 3128 
L 3275 4159 
L 1772 4159 
z
M 3275 2725 
L 1994 2725 
L 1994 1509 
L 3275 1509 
L 3275 2725 
z
" transform="scale(0.015625)"/>
       <path id="IPAexGothic-9f62" d="M 2094 4709 
L 2956 4709 
L 2956 4350 
L 2094 4350 
L 2094 3744 
L 3397 3744 
L 3397 3372 
L 244 3372 
L 244 3744 
L 866 3744 
L 866 4819 
L 1250 4819 
L 1250 3744 
L 1703 3744 
L 1703 5313 
L 2094 5313 
L 2094 4709 
z
M 872 2100 
L 1659 2100 
L 1659 3219 
L 2019 3219 
L 2019 2100 
L 2797 2100 
L 2797 3219 
L 3181 3219 
L 3181 2878 
L 3231 2931 
Q 3944 3719 4338 5209 
L 4794 5209 
Q 5306 3847 6234 2969 
L 5978 2559 
Q 5656 2891 5338 3322 
L 5338 2975 
L 3988 2975 
L 3988 3256 
Q 3728 2828 3422 2484 
L 3181 2872 
L 3181 -416 
L 2797 -416 
L 2797 -178 
L 872 -178 
L 872 -447 
L 481 -447 
L 481 3219 
L 872 3219 
L 872 2100 
z
M 1600 1759 
L 872 1759 
L 872 188 
L 2797 188 
L 2797 1759 
L 2019 1759 
L 2019 1534 
Q 2413 1303 2750 1013 
L 2522 713 
Q 2325 947 2019 1197 
L 2019 316 
L 1659 316 
L 1659 1331 
Q 1444 856 1094 488 
L 884 813 
Q 1322 1194 1600 1759 
z
M 5306 3366 
Q 4831 4034 4581 4722 
Q 4428 4066 4050 3366 
L 5306 3366 
z
M 5888 2338 
L 5888 538 
Q 5888 91 5450 91 
Q 5203 91 4916 141 
L 4863 556 
Q 5163 500 5350 500 
Q 5491 500 5491 684 
L 5491 1947 
L 4622 1947 
L 4622 -447 
L 4213 -447 
L 4213 1947 
L 3469 1947 
L 3469 2338 
L 5888 2338 
z
M 1216 2194 
Q 1116 2634 959 2969 
L 1291 3066 
Q 1441 2775 1553 2297 
L 1216 2194 
z
M 2091 2316 
Q 2284 2753 2359 3091 
L 2725 2969 
Q 2556 2506 2375 2203 
L 2091 2316 
z
" transform="scale(0.015625)"/>
      </defs>
      <use xlink:href="#IPAexGothic-5e74"/>
      <use xlink:href="#IPAexGothic-9f62" x="100"/>
     </g>
    </g>
   </g>
   <g id="matplotlib.axis_2">
    <g id="ytick_1">
     <g id="line2d_13">
      <path d="M 42.829688 261.593985 
L 399.949687 261.593985 
" clip-path="url(#p0a6535210b)" style="fill: none; stroke: #b0b0b0; stroke-width: 0.8; stroke-linecap: square"/>
     </g>
     <g id="line2d_14">
      <defs>
       <path id="m70c0038016" d="M 0 0 
L -3.5 0 
" style="stroke: #000000; stroke-width: 0.8"/>
      </defs>
      <g>
       <use xlink:href="#m70c0038016" x="42.829688" y="261.593985" style="stroke: #000000; stroke-width: 0.8"/>
      </g>
     </g>
     <g id="text_8">
      <!-- 0.0 -->
      <g transform="translate(20.590625 265.339297)scale(0.1 -0.1)">
       <defs>
        <path id="IPAexGothic-2e" d="M 1184 63 
L 494 63 
L 494 753 
L 1184 753 
L 1184 63 
z
" transform="scale(0.015625)"/>
       </defs>
       <use xlink:href="#IPAexGothic-30"/>
       <use xlink:href="#IPAexGothic-2e" x="62.988281"/>
       <use xlink:href="#IPAexGothic-30" x="89.404297"/>
      </g>
     </g>
    </g>
    <g id="ytick_2">
     <g id="line2d_15">
      <path d="M 42.829688 140.444992 
L 399.949687 140.444992 
" clip-path="url(#p0a6535210b)" style="fill: none; stroke: #b0b0b0; stroke-width: 0.8; stroke-linecap: square"/>
     </g>
     <g id="line2d_16">
      <g>
       <use xlink:href="#m70c0038016" x="42.829688" y="140.444992" style="stroke: #000000; stroke-width: 0.8"/>
      </g>
     </g>
     <g id="text_9">
      <!-- 0.5 -->
      <g transform="translate(20.590625 144.190305)scale(0.1 -0.1)">
       <defs>
        <path id="IPAexGothic-35" d="M 1178 2603 
Q 1634 2963 2172 2963 
Q 2816 2963 3241 2528 
Q 3638 2113 3638 1497 
Q 3638 938 3297 513 
Q 2869 -31 2031 -31 
Q 959 -31 469 784 
L 938 1028 
Q 1309 434 2013 434 
Q 2466 434 2769 716 
Q 3081 1013 3081 1503 
Q 3081 1966 2806 2241 
Q 2519 2528 2056 2528 
Q 1406 2528 1072 2028 
L 591 2091 
L 884 4634 
L 3406 4634 
L 3406 4153 
L 1341 4153 
L 1134 2603 
L 1178 2603 
z
" transform="scale(0.015625)"/>
       </defs>
       <use xlink:href="#IPAexGothic-30"/>
       <use xlink:href="#IPAexGothic-2e" x="62.988281"/>
       <use xlink:href="#IPAexGothic-35" x="89.404297"/>
      </g>
     </g>
    </g>
    <g id="ytick_3">
     <g id="line2d_17">
      <path d="M 42.829688 19.296 
L 399.949687 19.296 
" clip-path="url(#p0a6535210b)" style="fill: none; stroke: #b0b0b0; stroke-width: 0.8; stroke-linecap: square"/>
     </g>
     <g id="line2d_18">
      <g>
       <use xlink:href="#m70c0038016" x="42.829688" y="19.296" style="stroke: #000000; stroke-width: 0.8"/>
      </g>
     </g>
     <g id="text_10">
      <!-- 1.0 -->
      <g transform="translate(20.590625 23.041312)scale(0.1 -0.1)">
       <use xlink:href="#IPAexGothic-31"/>
       <use xlink:href="#IPAexGothic-2e" x="62.988281"/>
       <use xlink:href="#IPAexGothic-30" x="89.404297"/>
      </g>
     </g>
    </g>
    <g id="text_11">
     <!-- 生存率 -->
     <g transform="translate(14.690625 155.256)rotate(-90)scale(0.1 -0.1)">
      <defs>
       <path id="IPAexGothic-751f" d="M 1741 3822 
L 3022 3822 
L 3022 5250 
L 3509 5250 
L 3509 3822 
L 5628 3822 
L 5628 3406 
L 3509 3406 
L 3509 2125 
L 5366 2125 
L 5366 1709 
L 3509 1709 
L 3509 250 
L 5978 250 
L 5978 -166 
L 513 -166 
L 513 250 
L 3022 250 
L 3022 1709 
L 1263 1709 
L 1263 2125 
L 3022 2125 
L 3022 3406 
L 1563 3406 
Q 1266 2813 872 2350 
L 513 2688 
Q 1238 3519 1556 4834 
L 2022 4719 
Q 1894 4216 1741 3822 
z
" transform="scale(0.015625)"/>
       <path id="IPAexGothic-5b58" d="M 2194 4372 
Q 2316 4781 2431 5263 
L 2903 5159 
Q 2759 4631 2675 4372 
L 5913 4372 
L 5913 3963 
L 2525 3963 
Q 2266 3288 1925 2728 
L 1925 -447 
L 1472 -447 
L 1472 2088 
Q 1106 1625 569 1166 
L 281 1513 
Q 1009 2125 1472 2828 
L 1472 3253 
L 1675 3169 
Q 1922 3628 2047 3963 
L 575 3963 
L 575 4372 
L 2194 4372 
z
M 4347 2088 
L 4347 1806 
L 6009 1806 
L 6009 1416 
L 4372 1416 
L 4372 109 
Q 4372 -384 3822 -384 
Q 3481 -384 3003 -331 
L 2934 134 
Q 3384 38 3741 38 
Q 3925 38 3925 263 
L 3925 1416 
L 2191 1416 
L 2191 1806 
L 3900 1806 
L 3900 2272 
Q 4453 2556 4825 2919 
L 2722 2919 
L 2722 3303 
L 5288 3303 
L 5563 3066 
Q 4978 2494 4347 2088 
z
" transform="scale(0.015625)"/>
       <path id="IPAexGothic-7387" d="M 3022 2847 
Q 3338 3231 3684 3744 
L 4053 3525 
Q 3506 2766 2919 2181 
L 3266 2200 
Q 3575 2209 3825 2234 
Q 3728 2406 3575 2616 
L 3913 2772 
Q 4244 2350 4541 1766 
L 4156 1547 
Q 4084 1753 3997 1913 
L 3856 1894 
Q 3709 1875 3416 1850 
L 3416 1228 
L 6084 1228 
L 6084 819 
L 3416 819 
L 3416 -447 
L 2941 -447 
L 2941 819 
L 322 819 
L 322 1228 
L 2941 1228 
L 2941 1803 
L 2881 1797 
Q 2306 1759 2031 1747 
L 1903 2163 
Q 2319 2163 2416 2169 
Q 2522 2269 2772 2553 
Q 2347 3028 1916 3347 
L 2184 3653 
L 2447 3425 
Q 2681 3744 2869 4128 
L 547 4128 
L 547 4525 
L 2941 4525 
L 2941 5313 
L 3416 5313 
L 3416 4525 
L 5853 4525 
L 5853 4128 
L 2972 4128 
L 3278 3981 
Q 2991 3509 2697 3188 
Q 2850 3041 3022 2847 
z
M 1497 2822 
Q 1128 3263 691 3566 
L 1000 3847 
Q 1409 3588 1831 3156 
L 1497 2822 
z
M 4219 3078 
Q 4794 3478 5147 3897 
L 5538 3616 
Q 5078 3178 4494 2803 
L 4219 3078 
z
M 5556 1631 
Q 4997 2109 4372 2444 
L 4659 2741 
Q 5356 2381 5894 1984 
L 5556 1631 
z
M 538 1925 
Q 1306 2297 1881 2803 
L 2075 2456 
Q 1622 2034 813 1528 
L 538 1925 
z
" transform="scale(0.015625)"/>
      </defs>
      <use xlink:href="#IPAexGothic-751f"/>
      <use xlink:href="#IPAexGothic-5b58" x="100"/>
      <use xlink:href="#IPAexGothic-7387" x="200"/>
     </g>
    </g>
   </g>
   <g id="line2d_19">
    <path d="M 59.062415 19.296 
L 62.154363 19.741828 
L 65.246311 19.797557 
L 68.338259 19.836325 
L 71.430207 19.862977 
L 74.522155 19.882361 
L 77.614103 19.899322 
L 80.706051 19.911437 
L 83.797999 19.925975 
L 86.889947 19.93809 
L 89.981895 19.952628 
L 93.073843 19.967165 
L 96.165791 19.984126 
L 99.257739 20.005933 
L 102.349688 20.030163 
L 105.441636 20.064085 
L 108.533584 20.107698 
L 111.625532 20.161004 
L 114.71748 20.228847 
L 117.809428 20.308806 
L 120.901376 20.398456 
L 123.993324 20.502644 
L 127.085272 20.618947 
L 130.17722 20.742519 
L 133.269168 20.866091 
L 136.361116 20.98724 
L 139.453064 21.105966 
L 142.545012 21.222269 
L 145.63696 21.340995 
L 148.728908 21.459721 
L 151.820856 21.58087 
L 154.912804 21.706865 
L 158.004752 21.840129 
L 161.0967 21.985508 
L 164.188649 22.140578 
L 167.280597 22.302918 
L 170.372545 22.472527 
L 173.464493 22.644558 
L 176.556441 22.821436 
L 179.648389 23.008005 
L 182.740337 23.209112 
L 185.832285 23.432027 
L 188.924233 23.676748 
L 192.016181 23.945698 
L 195.108129 24.241302 
L 198.200077 24.563558 
L 201.292025 24.917313 
L 204.383973 25.30499 
L 207.475921 25.731434 
L 210.567869 26.19907 
L 213.659817 26.72001 
L 216.751765 27.294256 
L 219.843713 27.921808 
L 222.935662 28.609935 
L 226.02761 29.361058 
L 229.119558 30.187294 
L 232.211506 31.098335 
L 235.303454 32.101448 
L 238.395402 33.189366 
L 241.48735 34.371781 
L 244.579298 35.65596 
L 247.671246 37.061288 
L 250.763194 38.611995 
L 253.855142 40.312927 
L 256.94709 42.173776 
L 260.039038 44.199387 
L 263.130986 46.39703 
L 266.222934 48.793357 
L 269.314882 51.417444 
L 272.40683 54.293521 
L 275.498778 57.440972 
L 278.590726 60.862219 
L 281.682675 64.535457 
L 284.774623 68.458261 
L 287.866571 72.659708 
L 290.958519 77.180989 
L 294.050467 82.051178 
L 297.142415 87.282392 
L 300.234363 92.872206 
L 303.326311 98.81093 
L 306.418259 105.149445 
L 309.510207 111.945903 
L 312.602155 119.23665 
L 315.694103 127.038645 
L 318.786051 135.337351 
L 321.877999 144.11823 
L 324.969947 153.34736 
L 328.061895 162.964167 
L 331.153843 172.86204 
L 334.245791 182.893176 
L 337.337739 192.871007 
L 340.429688 202.562927 
L 343.521636 211.627294 
L 346.613584 220.056841 
L 349.705532 227.754648 
L 352.79748 234.638334 
L 355.889428 240.654593 
L 358.981376 245.779195 
L 362.073324 250.014564 
L 365.165272 253.409159 
L 368.25722 256.0284 
L 371.349168 257.969207 
L 374.441116 259.34546 
L 377.533064 260.271038 
L 380.625012 260.862245 
L 383.71696 261.216 
" clip-path="url(#p0a6535210b)" style="fill: none; stroke: #1f77b4; stroke-width: 1.5; stroke-linecap: square"/>
   </g>
   <g id="line2d_20">
    <path d="M 59.062415 19.296 
L 62.154363 19.712753 
L 65.246311 19.75152 
L 68.338259 19.780596 
L 71.430207 19.79998 
L 74.522155 19.816941 
L 77.614103 19.833902 
L 80.706051 19.850862 
L 83.797999 19.8654 
L 86.889947 19.879938 
L 89.981895 19.892053 
L 93.073843 19.906591 
L 96.165791 19.921129 
L 99.257739 19.935667 
L 102.349688 19.955051 
L 105.441636 19.976857 
L 108.533584 20.005933 
L 111.625532 20.039855 
L 114.71748 20.081045 
L 117.809428 20.127082 
L 120.901376 20.175542 
L 123.993324 20.228847 
L 127.085272 20.282153 
L 130.17722 20.340304 
L 133.269168 20.400879 
L 136.361116 20.461453 
L 139.453064 20.522028 
L 142.545012 20.585025 
L 145.63696 20.648023 
L 148.728908 20.71102 
L 151.820856 20.778864 
L 154.912804 20.844284 
L 158.004752 20.912128 
L 161.0967 20.979971 
L 164.188649 21.055083 
L 167.280597 21.139888 
L 170.372545 21.234384 
L 173.464493 21.338572 
L 176.556441 21.450029 
L 179.648389 21.571178 
L 182.740337 21.702019 
L 185.832285 21.842552 
L 188.924233 21.992777 
L 192.016181 22.155116 
L 195.108129 22.331994 
L 198.200077 22.528255 
L 201.292025 22.746323 
L 204.383973 22.983775 
L 207.475921 23.243034 
L 210.567869 23.526523 
L 213.659817 23.84151 
L 216.751765 24.187996 
L 219.843713 24.563558 
L 222.935662 24.965773 
L 226.02761 25.39464 
L 229.119558 25.85016 
L 232.211506 26.334756 
L 235.303454 26.850851 
L 238.395402 27.398445 
L 241.48735 27.977537 
L 244.579298 28.592974 
L 247.671246 29.247178 
L 250.763194 29.957111 
L 253.855142 30.727619 
L 256.94709 31.558701 
L 260.039038 32.455204 
L 263.130986 33.421973 
L 266.222934 34.4687 
L 269.314882 35.609923 
L 272.40683 36.860181 
L 275.498778 38.236433 
L 278.590726 39.753219 
L 281.682675 41.415383 
L 284.774623 43.232618 
L 287.866571 45.219461 
L 290.958519 47.400143 
L 294.050467 49.801316 
L 297.142415 52.466594 
L 300.234363 55.444436 
L 303.326311 58.778457 
L 306.418259 62.531652 
L 309.510207 66.745214 
L 312.602155 71.467602 
L 315.694103 76.764236 
L 318.786051 82.70296 
L 321.877999 89.344347 
L 324.969947 96.744128 
L 328.061895 104.931377 
L 331.153843 113.93517 
L 334.245791 123.78216 
L 337.337739 134.431156 
L 340.429688 145.722243 
L 343.521636 157.439773 
L 346.613584 169.360834 
L 349.705532 181.272203 
L 352.79748 192.904929 
L 355.889428 204.309895 
L 358.981376 215.048542 
L 362.073324 224.851918 
L 365.165272 233.514071 
L 368.25722 240.892045 
L 371.349168 246.932534 
L 374.441116 251.664613 
L 377.533064 255.197318 
L 380.625012 257.69541 
L 383.71696 259.36242 
" clip-path="url(#p0a6535210b)" style="fill: none; stroke: #ff7f0e; stroke-width: 1.5; stroke-linecap: square"/>
   </g>
   <g id="patch_3">
    <path d="M 42.829688 273.312 
L 42.829688 7.2 
" style="fill: none; stroke: #000000; stroke-width: 0.8; stroke-linejoin: miter; stroke-linecap: square"/>
   </g>
   <g id="patch_4">
    <path d="M 399.949687 273.312 
L 399.949687 7.2 
" style="fill: none; stroke: #000000; stroke-width: 0.8; stroke-linejoin: miter; stroke-linecap: square"/>
   </g>
   <g id="patch_5">
    <path d="M 42.829688 273.312 
L 399.949687 273.312 
" style="fill: none; stroke: #000000; stroke-width: 0.8; stroke-linejoin: miter; stroke-linecap: square"/>
   </g>
   <g id="patch_6">
    <path d="M 42.829688 7.2 
L 399.949687 7.2 
" style="fill: none; stroke: #000000; stroke-width: 0.8; stroke-linejoin: miter; stroke-linecap: square"/>
   </g>
   <g id="legend_1">
    <g id="patch_7">
     <path d="M 350.949687 43.98125 
L 392.949687 43.98125 
Q 394.949687 43.98125 394.949687 41.98125 
L 394.949687 14.2 
Q 394.949687 12.2 392.949687 12.2 
L 350.949687 12.2 
Q 348.949687 12.2 348.949687 14.2 
L 348.949687 41.98125 
Q 348.949687 43.98125 350.949687 43.98125 
z
" style="fill: #ffffff; opacity: 0.8; stroke: #cccccc; stroke-linejoin: miter"/>
    </g>
    <g id="line2d_21">
     <path d="M 352.949687 20.190625 
L 362.949687 20.190625 
L 372.949687 20.190625 
" style="fill: none; stroke: #1f77b4; stroke-width: 1.5; stroke-linecap: square"/>
    </g>
    <g id="text_12">
     <!-- 男 -->
     <g transform="translate(380.949687 23.690625)scale(0.1 -0.1)">
      <defs>
       <path id="IPAexGothic-7537" d="M 3306 2572 
L 3306 2003 
L 5666 2003 
Q 5569 419 5466 103 
Q 5322 -331 4691 -331 
Q 4181 -331 3569 -281 
L 3494 206 
Q 4116 103 4597 103 
Q 4953 103 5031 391 
Q 5131 759 5178 1594 
L 3269 1594 
Q 3138 775 2550 281 
Q 1975 -197 928 -475 
L 628 -63 
Q 2631 428 2794 1544 
L 647 1544 
L 647 1953 
L 2838 1953 
L 2838 2572 
L 1063 2572 
L 1063 4978 
L 5331 4978 
L 5331 2572 
L 3306 2572 
z
M 1516 4606 
L 1516 3969 
L 2956 3969 
L 2956 4606 
L 1516 4606 
z
M 1516 3609 
L 1516 2944 
L 2956 2944 
L 2956 3609 
L 1516 3609 
z
M 4878 2944 
L 4878 3609 
L 3397 3609 
L 3397 2944 
L 4878 2944 
z
M 4878 3969 
L 4878 4606 
L 3397 4606 
L 3397 3969 
L 4878 3969 
z
" transform="scale(0.015625)"/>
      </defs>
      <use xlink:href="#IPAexGothic-7537"/>
     </g>
    </g>
    <g id="line2d_22">
     <path d="M 352.949687 34.58125 
L 362.949687 34.58125 
L 372.949687 34.58125 
" style="fill: none; stroke: #ff7f0e; stroke-width: 1.5; stroke-linecap: square"/>
    </g>
    <g id="text_13">
     <!-- 女 -->
     <g transform="translate(380.949687 38.08125)scale(0.1 -0.1)">
      <defs>
       <path id="IPAexGothic-5973" d="M 1869 1659 
Q 1816 1553 1600 1172 
L 1159 1353 
Q 1744 2413 2088 3266 
L 481 3266 
L 481 3700 
L 2259 3700 
Q 2538 4419 2741 5197 
L 3228 5081 
Q 2988 4238 2778 3700 
L 5916 3700 
L 5916 3266 
L 4822 3266 
Q 4813 3253 4813 3222 
Q 4575 2003 3950 1166 
Q 4828 731 5800 169 
L 5403 -266 
Q 4622 263 3631 809 
Q 2672 -53 788 -331 
L 519 103 
Q 2313 322 3194 1031 
Q 2678 1300 2003 1603 
L 1869 1659 
z
M 2056 2031 
L 2228 1953 
Q 2947 1659 3522 1372 
Q 3534 1397 3547 1409 
Q 4050 2063 4309 3209 
L 4328 3266 
L 2613 3266 
Q 2378 2666 2056 2031 
z
" transform="scale(0.015625)"/>
      </defs>
      <use xlink:href="#IPAexGothic-5973"/>
     </g>
    </g>
   </g>
  </g>
 </g>
 <defs>
  <clipPath id="p0a6535210b">
   <rect x="42.829688" y="7.2" width="357.12" height="266.112"/>
  </clipPath>
 </defs>
</svg>
