<?xml version="1.0" encoding="utf-8" standalone="no"?>
<!DOCTYPE svg PUBLIC "-//W3C//DTD SVG 1.1//EN"
  "http://www.w3.org/Graphics/SVG/1.1/DTD/svg11.dtd">
<svg xmlns:xlink="http://www.w3.org/1999/xlink" width="371.52pt" height="306.386054pt" viewBox="0 0 371.52 306.386054" xmlns="http://www.w3.org/2000/svg" version="1.1">
 <metadata>
  <rdf:RDF xmlns:dc="http://purl.org/dc/elements/1.1/" xmlns:cc="http://creativecommons.org/ns#" xmlns:rdf="http://www.w3.org/1999/02/22-rdf-syntax-ns#">
   <cc:Work>
    <dc:type rdf:resource="http://purl.org/dc/dcmitype/StillImage"/>
    <dc:date>2022-05-17T22:32:51.869371</dc:date>
    <dc:format>image/svg+xml</dc:format>
    <dc:creator>
     <cc:Agent>
      <dc:title>Matplotlib v3.5.2, https://matplotlib.org/</dc:title>
     </cc:Agent>
    </dc:creator>
   </cc:Work>
  </rdf:RDF>
 </metadata>
 <defs>
  <style type="text/css">*{stroke-linejoin: round; stroke-linecap: butt}</style>
 </defs>
 <g id="figure_1">
  <g id="patch_1">
   <path d="M 0 306.386054 
L 371.52 306.386054 
L 371.52 0 
L 0 0 
z
" style="fill: #ffffff"/>
  </g>
  <g id="axes_1">
   <g id="patch_2">
    <path d="M 7.2 273.312 
L 169.527273 273.312 
L 169.527273 7.2 
L 7.2 7.2 
z
" style="fill: #ffffff"/>
   </g>
   <g id="patch_3">
    <path d="M 169.527273 273.312 
L 106.78424 273.312 
L 106.78424 270.914595 
L 169.527273 270.914595 
z
" clip-path="url(#p9d0a81bd1b)" style="fill: #1f77b4"/>
   </g>
   <g id="patch_4">
    <path d="M 169.527273 270.914595 
L 104.106726 270.914595 
L 104.106726 268.517189 
L 169.527273 268.517189 
z
" clip-path="url(#p9d0a81bd1b)" style="fill: #1f77b4"/>
   </g>
   <g id="patch_5">
    <path d="M 169.527273 268.517189 
L 100.791265 268.517189 
L 100.791265 266.119784 
L 169.527273 266.119784 
z
" clip-path="url(#p9d0a81bd1b)" style="fill: #1f77b4"/>
   </g>
   <g id="patch_6">
    <path d="M 169.527273 266.119784 
L 99.040787 266.119784 
L 99.040787 263.722378 
L 169.527273 263.722378 
z
" clip-path="url(#p9d0a81bd1b)" style="fill: #1f77b4"/>
   </g>
   <g id="patch_7">
    <path d="M 169.527273 263.722378 
L 95.850613 263.722378 
L 95.850613 261.324973 
L 169.527273 261.324973 
z
" clip-path="url(#p9d0a81bd1b)" style="fill: #1f77b4"/>
   </g>
   <g id="patch_8">
    <path d="M 169.527273 261.324973 
L 94.056749 261.324973 
L 94.056749 258.927568 
L 169.527273 258.927568 
z
" clip-path="url(#p9d0a81bd1b)" style="fill: #1f77b4"/>
   </g>
   <g id="patch_9">
    <path d="M 169.527273 258.927568 
L 94.078884 258.927568 
L 94.078884 256.530162 
L 169.527273 256.530162 
z
" clip-path="url(#p9d0a81bd1b)" style="fill: #1f77b4"/>
   </g>
   <g id="patch_10">
    <path d="M 169.527273 256.530162 
L 92.485273 256.530162 
L 92.485273 254.132757 
L 169.527273 254.132757 
z
" clip-path="url(#p9d0a81bd1b)" style="fill: #1f77b4"/>
   </g>
   <g id="patch_11">
    <path d="M 169.527273 254.132757 
L 92.191904 254.132757 
L 92.191904 251.735351 
L 169.527273 251.735351 
z
" clip-path="url(#p9d0a81bd1b)" style="fill: #1f77b4"/>
   </g>
   <g id="patch_12">
    <path d="M 169.527273 251.735351 
L 90.159419 251.735351 
L 90.159419 249.337946 
L 169.527273 249.337946 
z
" clip-path="url(#p9d0a81bd1b)" style="fill: #1f77b4"/>
   </g>
   <g id="patch_13">
    <path d="M 169.527273 249.337946 
L 89.491663 249.337946 
L 89.491663 246.940541 
L 169.527273 246.940541 
z
" clip-path="url(#p9d0a81bd1b)" style="fill: #1f77b4"/>
   </g>
   <g id="patch_14">
    <path d="M 169.527273 246.940541 
L 89.100159 246.940541 
L 89.100159 244.543135 
L 169.527273 244.543135 
z
" clip-path="url(#p9d0a81bd1b)" style="fill: #1f77b4"/>
   </g>
   <g id="patch_15">
    <path d="M 169.527273 244.543135 
L 87.651315 244.543135 
L 87.651315 242.14573 
L 169.527273 242.14573 
z
" clip-path="url(#p9d0a81bd1b)" style="fill: #1f77b4"/>
   </g>
   <g id="patch_16">
    <path d="M 169.527273 242.14573 
L 88.000614 242.14573 
L 88.000614 239.748324 
L 169.527273 239.748324 
z
" clip-path="url(#p9d0a81bd1b)" style="fill: #1f77b4"/>
   </g>
   <g id="patch_17">
    <path d="M 169.527273 239.748324 
L 88.735661 239.748324 
L 88.735661 237.350919 
L 169.527273 237.350919 
z
" clip-path="url(#p9d0a81bd1b)" style="fill: #1f77b4"/>
   </g>
   <g id="patch_18">
    <path d="M 169.527273 237.350919 
L 88.483316 237.350919 
L 88.483316 234.953514 
L 169.527273 234.953514 
z
" clip-path="url(#p9d0a81bd1b)" style="fill: #1f77b4"/>
   </g>
   <g id="patch_19">
    <path d="M 169.527273 234.953514 
L 85.190581 234.953514 
L 85.190581 232.556108 
L 169.527273 232.556108 
z
" clip-path="url(#p9d0a81bd1b)" style="fill: #1f77b4"/>
   </g>
   <g id="patch_20">
    <path d="M 169.527273 232.556108 
L 84.301913 232.556108 
L 84.301913 230.158703 
L 169.527273 230.158703 
z
" clip-path="url(#p9d0a81bd1b)" style="fill: #1f77b4"/>
   </g>
   <g id="patch_21">
    <path d="M 169.527273 230.158703 
L 82.391026 230.158703 
L 82.391026 227.761297 
L 169.527273 227.761297 
z
" clip-path="url(#p9d0a81bd1b)" style="fill: #1f77b4"/>
   </g>
   <g id="patch_22">
    <path d="M 169.527273 227.761297 
L 82.262935 227.761297 
L 82.262935 225.363892 
L 169.527273 225.363892 
z
" clip-path="url(#p9d0a81bd1b)" style="fill: #1f77b4"/>
   </g>
   <g id="patch_23">
    <path d="M 169.527273 225.363892 
L 81.114691 225.363892 
L 81.114691 222.966486 
L 169.527273 222.966486 
z
" clip-path="url(#p9d0a81bd1b)" style="fill: #1f77b4"/>
   </g>
   <g id="patch_24">
    <path d="M 169.527273 222.966486 
L 81.616429 222.966486 
L 81.616429 220.569081 
L 169.527273 220.569081 
z
" clip-path="url(#p9d0a81bd1b)" style="fill: #1f77b4"/>
   </g>
   <g id="patch_25">
    <path d="M 169.527273 220.569081 
L 79.887496 220.569081 
L 79.887496 218.171676 
L 169.527273 218.171676 
z
" clip-path="url(#p9d0a81bd1b)" style="fill: #1f77b4"/>
   </g>
   <g id="patch_26">
    <path d="M 169.527273 218.171676 
L 79.810612 218.171676 
L 79.810612 215.77427 
L 169.527273 215.77427 
z
" clip-path="url(#p9d0a81bd1b)" style="fill: #1f77b4"/>
   </g>
   <g id="patch_27">
    <path d="M 169.527273 215.77427 
L 79.859458 215.77427 
L 79.859458 213.376865 
L 169.527273 213.376865 
z
" clip-path="url(#p9d0a81bd1b)" style="fill: #1f77b4"/>
   </g>
   <g id="patch_28">
    <path d="M 169.527273 213.376865 
L 78.582238 213.376865 
L 78.582238 210.979459 
L 169.527273 210.979459 
z
" clip-path="url(#p9d0a81bd1b)" style="fill: #1f77b4"/>
   </g>
   <g id="patch_29">
    <path d="M 169.527273 210.979459 
L 78.378296 210.979459 
L 78.378296 208.582054 
L 169.527273 208.582054 
z
" clip-path="url(#p9d0a81bd1b)" style="fill: #1f77b4"/>
   </g>
   <g id="patch_30">
    <path d="M 169.527273 208.582054 
L 79.746567 208.582054 
L 79.746567 206.184649 
L 169.527273 206.184649 
z
" clip-path="url(#p9d0a81bd1b)" style="fill: #1f77b4"/>
   </g>
   <g id="patch_31">
    <path d="M 169.527273 206.184649 
L 78.47097 206.184649 
L 78.47097 203.787243 
L 169.527273 203.787243 
z
" clip-path="url(#p9d0a81bd1b)" style="fill: #1f77b4"/>
   </g>
   <g id="patch_32">
    <path d="M 169.527273 203.787243 
L 78.814513 203.787243 
L 78.814513 201.389838 
L 169.527273 201.389838 
z
" clip-path="url(#p9d0a81bd1b)" style="fill: #1f77b4"/>
   </g>
   <g id="patch_33">
    <path d="M 169.527273 201.389838 
L 76.859207 201.389838 
L 76.859207 198.992432 
L 169.527273 198.992432 
z
" clip-path="url(#p9d0a81bd1b)" style="fill: #1f77b4"/>
   </g>
   <g id="patch_34">
    <path d="M 169.527273 198.992432 
L 75.083937 198.992432 
L 75.083937 196.595027 
L 169.527273 196.595027 
z
" clip-path="url(#p9d0a81bd1b)" style="fill: #1f77b4"/>
   </g>
   <g id="patch_35">
    <path d="M 169.527273 196.595027 
L 71.91162 196.595027 
L 71.91162 194.197622 
L 169.527273 194.197622 
z
" clip-path="url(#p9d0a81bd1b)" style="fill: #1f77b4"/>
   </g>
   <g id="patch_36">
    <path d="M 169.527273 194.197622 
L 69.402483 194.197622 
L 69.402483 191.800216 
L 169.527273 191.800216 
z
" clip-path="url(#p9d0a81bd1b)" style="fill: #1f77b4"/>
   </g>
   <g id="patch_37">
    <path d="M 169.527273 191.800216 
L 67.835434 191.800216 
L 67.835434 189.402811 
L 169.527273 189.402811 
z
" clip-path="url(#p9d0a81bd1b)" style="fill: #1f77b4"/>
   </g>
   <g id="patch_38">
    <path d="M 169.527273 189.402811 
L 64.366796 189.402811 
L 64.366796 187.005405 
L 169.527273 187.005405 
z
" clip-path="url(#p9d0a81bd1b)" style="fill: #1f77b4"/>
   </g>
   <g id="patch_39">
    <path d="M 169.527273 187.005405 
L 60.757965 187.005405 
L 60.757965 184.608 
L 169.527273 184.608 
z
" clip-path="url(#p9d0a81bd1b)" style="fill: #1f77b4"/>
   </g>
   <g id="patch_40">
    <path d="M 169.527273 184.608 
L 59.410354 184.608 
L 59.410354 182.210595 
L 169.527273 182.210595 
z
" clip-path="url(#p9d0a81bd1b)" style="fill: #1f77b4"/>
   </g>
   <g id="patch_41">
    <path d="M 169.527273 182.210595 
L 59.330371 182.210595 
L 59.330371 179.813189 
L 169.527273 179.813189 
z
" clip-path="url(#p9d0a81bd1b)" style="fill: #1f77b4"/>
   </g>
   <g id="patch_42">
    <path d="M 169.527273 179.813189 
L 58.225069 179.813189 
L 58.225069 177.415784 
L 169.527273 177.415784 
z
" clip-path="url(#p9d0a81bd1b)" style="fill: #1f77b4"/>
   </g>
   <g id="patch_43">
    <path d="M 169.527273 177.415784 
L 53.322196 177.415784 
L 53.322196 175.018378 
L 169.527273 175.018378 
z
" clip-path="url(#p9d0a81bd1b)" style="fill: #1f77b4"/>
   </g>
   <g id="patch_44">
    <path d="M 169.527273 175.018378 
L 50.412405 175.018378 
L 50.412405 172.620973 
L 169.527273 172.620973 
z
" clip-path="url(#p9d0a81bd1b)" style="fill: #1f77b4"/>
   </g>
   <g id="patch_45">
    <path d="M 169.527273 172.620973 
L 46.051557 172.620973 
L 46.051557 170.223568 
L 169.527273 170.223568 
z
" clip-path="url(#p9d0a81bd1b)" style="fill: #1f77b4"/>
   </g>
   <g id="patch_46">
    <path d="M 169.527273 170.223568 
L 42.802355 170.223568 
L 42.802355 167.826162 
L 169.527273 167.826162 
z
" clip-path="url(#p9d0a81bd1b)" style="fill: #1f77b4"/>
   </g>
   <g id="patch_47">
    <path d="M 169.527273 167.826162 
L 36.810265 167.826162 
L 36.810265 165.428757 
L 169.527273 165.428757 
z
" clip-path="url(#p9d0a81bd1b)" style="fill: #1f77b4"/>
   </g>
   <g id="patch_48">
    <path d="M 169.527273 165.428757 
L 31.560159 165.428757 
L 31.560159 163.031351 
L 169.527273 163.031351 
z
" clip-path="url(#p9d0a81bd1b)" style="fill: #1f77b4"/>
   </g>
   <g id="patch_49">
    <path d="M 169.527273 163.031351 
L 23.735099 163.031351 
L 23.735099 160.633946 
L 169.527273 160.633946 
z
" clip-path="url(#p9d0a81bd1b)" style="fill: #1f77b4"/>
   </g>
   <g id="patch_50">
    <path d="M 169.527273 160.633946 
L 21.680183 160.633946 
L 21.680183 158.236541 
L 169.527273 158.236541 
z
" clip-path="url(#p9d0a81bd1b)" style="fill: #1f77b4"/>
   </g>
   <g id="patch_51">
    <path d="M 169.527273 158.236541 
L 24.227541 158.236541 
L 24.227541 155.839135 
L 169.527273 155.839135 
z
" clip-path="url(#p9d0a81bd1b)" style="fill: #1f77b4"/>
   </g>
   <g id="patch_52">
    <path d="M 169.527273 155.839135 
L 28.800743 155.839135 
L 28.800743 153.44173 
L 169.527273 153.44173 
z
" clip-path="url(#p9d0a81bd1b)" style="fill: #1f77b4"/>
   </g>
   <g id="patch_53">
    <path d="M 169.527273 153.44173 
L 33.317278 153.44173 
L 33.317278 151.044324 
L 169.527273 151.044324 
z
" clip-path="url(#p9d0a81bd1b)" style="fill: #1f77b4"/>
   </g>
   <g id="patch_54">
    <path d="M 169.527273 151.044324 
L 35.771076 151.044324 
L 35.771076 148.646919 
L 169.527273 148.646919 
z
" clip-path="url(#p9d0a81bd1b)" style="fill: #1f77b4"/>
   </g>
   <g id="patch_55">
    <path d="M 169.527273 148.646919 
L 39.073403 148.646919 
L 39.073403 146.249514 
L 169.527273 146.249514 
z
" clip-path="url(#p9d0a81bd1b)" style="fill: #1f77b4"/>
   </g>
   <g id="patch_56">
    <path d="M 169.527273 146.249514 
L 39.620888 146.249514 
L 39.620888 143.852108 
L 169.527273 143.852108 
z
" clip-path="url(#p9d0a81bd1b)" style="fill: #1f77b4"/>
   </g>
   <g id="patch_57">
    <path d="M 169.527273 143.852108 
L 68.695326 143.852108 
L 68.695326 141.454703 
L 169.527273 141.454703 
z
" clip-path="url(#p9d0a81bd1b)" style="fill: #1f77b4"/>
   </g>
   <g id="patch_58">
    <path d="M 169.527273 141.454703 
L 45.192255 141.454703 
L 45.192255 139.057297 
L 169.527273 139.057297 
z
" clip-path="url(#p9d0a81bd1b)" style="fill: #1f77b4"/>
   </g>
   <g id="patch_59">
    <path d="M 169.527273 139.057297 
L 53.120319 139.057297 
L 53.120319 136.659892 
L 169.527273 136.659892 
z
" clip-path="url(#p9d0a81bd1b)" style="fill: #1f77b4"/>
   </g>
   <g id="patch_60">
    <path d="M 169.527273 136.659892 
L 56.302819 136.659892 
L 56.302819 134.262486 
L 169.527273 134.262486 
z
" clip-path="url(#p9d0a81bd1b)" style="fill: #1f77b4"/>
   </g>
   <g id="patch_61">
    <path d="M 169.527273 134.262486 
L 60.094342 134.262486 
L 60.094342 131.865081 
L 169.527273 131.865081 
z
" clip-path="url(#p9d0a81bd1b)" style="fill: #1f77b4"/>
   </g>
   <g id="patch_62">
    <path d="M 169.527273 131.865081 
L 62.522905 131.865081 
L 62.522905 129.467676 
L 169.527273 129.467676 
z
" clip-path="url(#p9d0a81bd1b)" style="fill: #1f77b4"/>
   </g>
   <g id="patch_63">
    <path d="M 169.527273 129.467676 
L 62.276463 129.467676 
L 62.276463 127.07027 
L 169.527273 127.07027 
z
" clip-path="url(#p9d0a81bd1b)" style="fill: #1f77b4"/>
   </g>
   <g id="patch_64">
    <path d="M 169.527273 127.07027 
L 60.550629 127.07027 
L 60.550629 124.672865 
L 169.527273 124.672865 
z
" clip-path="url(#p9d0a81bd1b)" style="fill: #1f77b4"/>
   </g>
   <g id="patch_65">
    <path d="M 169.527273 124.672865 
L 64.237377 124.672865 
L 64.237377 122.275459 
L 169.527273 122.275459 
z
" clip-path="url(#p9d0a81bd1b)" style="fill: #1f77b4"/>
   </g>
   <g id="patch_66">
    <path d="M 169.527273 122.275459 
L 67.490268 122.275459 
L 67.490268 119.878054 
L 169.527273 119.878054 
z
" clip-path="url(#p9d0a81bd1b)" style="fill: #1f77b4"/>
   </g>
   <g id="patch_67">
    <path d="M 169.527273 119.878054 
L 62.876041 119.878054 
L 62.876041 117.480649 
L 169.527273 117.480649 
z
" clip-path="url(#p9d0a81bd1b)" style="fill: #1f77b4"/>
   </g>
   <g id="patch_68">
    <path d="M 169.527273 117.480649 
L 60.066746 117.480649 
L 60.066746 115.083243 
L 169.527273 115.083243 
z
" clip-path="url(#p9d0a81bd1b)" style="fill: #1f77b4"/>
   </g>
   <g id="patch_69">
    <path d="M 169.527273 115.083243 
L 60.863035 115.083243 
L 60.863035 112.685838 
L 169.527273 112.685838 
z
" clip-path="url(#p9d0a81bd1b)" style="fill: #1f77b4"/>
   </g>
   <g id="patch_70">
    <path d="M 169.527273 112.685838 
L 55.353943 112.685838 
L 55.353943 110.288432 
L 169.527273 110.288432 
z
" clip-path="url(#p9d0a81bd1b)" style="fill: #1f77b4"/>
   </g>
   <g id="patch_71">
    <path d="M 169.527273 110.288432 
L 50.055876 110.288432 
L 50.055876 107.891027 
L 169.527273 107.891027 
z
" clip-path="url(#p9d0a81bd1b)" style="fill: #1f77b4"/>
   </g>
   <g id="patch_72">
    <path d="M 169.527273 107.891027 
L 44.28824 107.891027 
L 44.28824 105.493622 
L 169.527273 105.493622 
z
" clip-path="url(#p9d0a81bd1b)" style="fill: #1f77b4"/>
   </g>
   <g id="patch_73">
    <path d="M 169.527273 105.493622 
L 36.916221 105.493622 
L 36.916221 103.096216 
L 169.527273 103.096216 
z
" clip-path="url(#p9d0a81bd1b)" style="fill: #1f77b4"/>
   </g>
   <g id="patch_74">
    <path d="M 169.527273 103.096216 
L 25.777471 103.096216 
L 25.777471 100.698811 
L 169.527273 100.698811 
z
" clip-path="url(#p9d0a81bd1b)" style="fill: #1f77b4"/>
   </g>
   <g id="patch_75">
    <path d="M 169.527273 100.698811 
L 29.465694 100.698811 
L 29.465694 98.301405 
L 169.527273 98.301405 
z
" clip-path="url(#p9d0a81bd1b)" style="fill: #1f77b4"/>
   </g>
   <g id="patch_76">
    <path d="M 169.527273 98.301405 
L 38.362704 98.301405 
L 38.362704 95.904 
L 169.527273 95.904 
z
" clip-path="url(#p9d0a81bd1b)" style="fill: #1f77b4"/>
   </g>
   <g id="patch_77">
    <path d="M 169.527273 95.904 
L 90.046085 95.904 
L 90.046085 93.506595 
L 169.527273 93.506595 
z
" clip-path="url(#p9d0a81bd1b)" style="fill: #1f77b4"/>
   </g>
   <g id="patch_78">
    <path d="M 169.527273 93.506595 
L 86.661709 93.506595 
L 86.661709 91.109189 
L 169.527273 91.109189 
z
" clip-path="url(#p9d0a81bd1b)" style="fill: #1f77b4"/>
   </g>
   <g id="patch_79">
    <path d="M 169.527273 91.109189 
L 70.651222 91.109189 
L 70.651222 88.711784 
L 169.527273 88.711784 
z
" clip-path="url(#p9d0a81bd1b)" style="fill: #1f77b4"/>
   </g>
   <g id="patch_80">
    <path d="M 169.527273 88.711784 
L 76.136851 88.711784 
L 76.136851 86.314378 
L 169.527273 86.314378 
z
" clip-path="url(#p9d0a81bd1b)" style="fill: #1f77b4"/>
   </g>
   <g id="patch_81">
    <path d="M 169.527273 86.314378 
L 76.159282 86.314378 
L 76.159282 83.916973 
L 169.527273 83.916973 
z
" clip-path="url(#p9d0a81bd1b)" style="fill: #1f77b4"/>
   </g>
   <g id="patch_82">
    <path d="M 169.527273 83.916973 
L 81.613183 83.916973 
L 81.613183 81.519568 
L 169.527273 81.519568 
z
" clip-path="url(#p9d0a81bd1b)" style="fill: #1f77b4"/>
   </g>
   <g id="patch_83">
    <path d="M 169.527273 81.519568 
L 92.889321 81.519568 
L 92.889321 79.122162 
L 169.527273 79.122162 
z
" clip-path="url(#p9d0a81bd1b)" style="fill: #1f77b4"/>
   </g>
   <g id="patch_84">
    <path d="M 169.527273 79.122162 
L 105.87624 79.122162 
L 105.87624 76.724757 
L 169.527273 76.724757 
z
" clip-path="url(#p9d0a81bd1b)" style="fill: #1f77b4"/>
   </g>
   <g id="patch_85">
    <path d="M 169.527273 76.724757 
L 105.432054 76.724757 
L 105.432054 74.327351 
L 169.527273 74.327351 
z
" clip-path="url(#p9d0a81bd1b)" style="fill: #1f77b4"/>
   </g>
   <g id="patch_86">
    <path d="M 169.527273 74.327351 
L 107.541276 74.327351 
L 107.541276 71.929946 
L 169.527273 71.929946 
z
" clip-path="url(#p9d0a81bd1b)" style="fill: #1f77b4"/>
   </g>
   <g id="patch_87">
    <path d="M 169.527273 71.929946 
L 111.819485 71.929946 
L 111.819485 69.532541 
L 169.527273 69.532541 
z
" clip-path="url(#p9d0a81bd1b)" style="fill: #1f77b4"/>
   </g>
   <g id="patch_88">
    <path d="M 169.527273 69.532541 
L 119.204342 69.532541 
L 119.204342 67.135135 
L 169.527273 67.135135 
z
" clip-path="url(#p9d0a81bd1b)" style="fill: #1f77b4"/>
   </g>
   <g id="patch_89">
    <path d="M 169.527273 67.135135 
L 126.43071 67.135135 
L 126.43071 64.73773 
L 169.527273 64.73773 
z
" clip-path="url(#p9d0a81bd1b)" style="fill: #1f77b4"/>
   </g>
   <g id="patch_90">
    <path d="M 169.527273 64.73773 
L 131.105883 64.73773 
L 131.105883 62.340324 
L 169.527273 62.340324 
z
" clip-path="url(#p9d0a81bd1b)" style="fill: #1f77b4"/>
   </g>
   <g id="patch_91">
    <path d="M 169.527273 62.340324 
L 136.459289 62.340324 
L 136.459289 59.942919 
L 169.527273 59.942919 
z
" clip-path="url(#p9d0a81bd1b)" style="fill: #1f77b4"/>
   </g>
   <g id="patch_92">
    <path d="M 169.527273 59.942919 
L 142.082306 59.942919 
L 142.082306 57.545514 
L 169.527273 57.545514 
z
" clip-path="url(#p9d0a81bd1b)" style="fill: #1f77b4"/>
   </g>
   <g id="patch_93">
    <path d="M 169.527273 57.545514 
L 147.382586 57.545514 
L 147.382586 55.148108 
L 169.527273 55.148108 
z
" clip-path="url(#p9d0a81bd1b)" style="fill: #1f77b4"/>
   </g>
   <g id="patch_94">
    <path d="M 169.527273 55.148108 
L 151.610179 55.148108 
L 151.610179 52.750703 
L 169.527273 52.750703 
z
" clip-path="url(#p9d0a81bd1b)" style="fill: #1f77b4"/>
   </g>
   <g id="patch_95">
    <path d="M 169.527273 52.750703 
L 155.340607 52.750703 
L 155.340607 50.353297 
L 169.527273 50.353297 
z
" clip-path="url(#p9d0a81bd1b)" style="fill: #1f77b4"/>
   </g>
   <g id="patch_96">
    <path d="M 169.527273 50.353297 
L 159.093466 50.353297 
L 159.093466 47.955892 
L 169.527273 47.955892 
z
" clip-path="url(#p9d0a81bd1b)" style="fill: #1f77b4"/>
   </g>
   <g id="patch_97">
    <path d="M 169.527273 47.955892 
L 161.70782 47.955892 
L 161.70782 45.558486 
L 169.527273 45.558486 
z
" clip-path="url(#p9d0a81bd1b)" style="fill: #1f77b4"/>
   </g>
   <g id="patch_98">
    <path d="M 169.527273 45.558486 
L 164.124726 45.558486 
L 164.124726 43.161081 
L 169.527273 43.161081 
z
" clip-path="url(#p9d0a81bd1b)" style="fill: #1f77b4"/>
   </g>
   <g id="patch_99">
    <path d="M 169.527273 43.161081 
L 165.976437 43.161081 
L 165.976437 40.763676 
L 169.527273 40.763676 
z
" clip-path="url(#p9d0a81bd1b)" style="fill: #1f77b4"/>
   </g>
   <g id="patch_100">
    <path d="M 169.527273 40.763676 
L 167.261479 40.763676 
L 167.261479 38.36627 
L 169.527273 38.36627 
z
" clip-path="url(#p9d0a81bd1b)" style="fill: #1f77b4"/>
   </g>
   <g id="patch_101">
    <path d="M 169.527273 38.36627 
L 168.075919 38.36627 
L 168.075919 35.968865 
L 169.527273 35.968865 
z
" clip-path="url(#p9d0a81bd1b)" style="fill: #1f77b4"/>
   </g>
   <g id="patch_102">
    <path d="M 169.527273 35.968865 
L 168.605106 35.968865 
L 168.605106 33.571459 
L 169.527273 33.571459 
z
" clip-path="url(#p9d0a81bd1b)" style="fill: #1f77b4"/>
   </g>
   <g id="patch_103">
    <path d="M 169.527273 33.571459 
L 168.912495 33.571459 
L 168.912495 31.174054 
L 169.527273 31.174054 
z
" clip-path="url(#p9d0a81bd1b)" style="fill: #1f77b4"/>
   </g>
   <g id="patch_104">
    <path d="M 169.527273 31.174054 
L 169.210882 31.174054 
L 169.210882 28.776649 
L 169.527273 28.776649 
z
" clip-path="url(#p9d0a81bd1b)" style="fill: #1f77b4"/>
   </g>
   <g id="patch_105">
    <path d="M 169.527273 28.776649 
L 169.323921 28.776649 
L 169.323921 26.379243 
L 169.527273 26.379243 
z
" clip-path="url(#p9d0a81bd1b)" style="fill: #1f77b4"/>
   </g>
   <g id="patch_106">
    <path d="M 169.527273 26.379243 
L 169.397411 26.379243 
L 169.397411 23.981838 
L 169.527273 23.981838 
z
" clip-path="url(#p9d0a81bd1b)" style="fill: #1f77b4"/>
   </g>
   <g id="patch_107">
    <path d="M 169.527273 23.981838 
L 169.455996 23.981838 
L 169.455996 21.584432 
L 169.527273 21.584432 
z
" clip-path="url(#p9d0a81bd1b)" style="fill: #1f77b4"/>
   </g>
   <g id="patch_108">
    <path d="M 169.527273 21.584432 
L 169.486691 21.584432 
L 169.486691 19.187027 
L 169.527273 19.187027 
z
" clip-path="url(#p9d0a81bd1b)" style="fill: #1f77b4"/>
   </g>
   <g id="patch_109">
    <path d="M 169.527273 19.187027 
L 169.494365 19.187027 
L 169.494365 16.789622 
L 169.527273 16.789622 
z
" clip-path="url(#p9d0a81bd1b)" style="fill: #1f77b4"/>
   </g>
   <g id="patch_110">
    <path d="M 169.527273 16.789622 
L 169.508384 16.789622 
L 169.508384 14.392216 
L 169.527273 14.392216 
z
" clip-path="url(#p9d0a81bd1b)" style="fill: #1f77b4"/>
   </g>
   <g id="patch_111">
    <path d="M 169.527273 14.392216 
L 169.518271 14.392216 
L 169.518271 11.994811 
L 169.527273 11.994811 
z
" clip-path="url(#p9d0a81bd1b)" style="fill: #1f77b4"/>
   </g>
   <g id="patch_112">
    <path d="M 169.527273 11.994811 
L 169.523288 11.994811 
L 169.523288 9.597405 
L 169.527273 9.597405 
z
" clip-path="url(#p9d0a81bd1b)" style="fill: #1f77b4"/>
   </g>
   <g id="patch_113">
    <path d="M 169.527273 9.597405 
L 169.527125 9.597405 
L 169.527125 7.2 
L 169.527273 7.2 
z
" clip-path="url(#p9d0a81bd1b)" style="fill: #1f77b4"/>
   </g>
   <g id="patch_114">
    <path d="M 0 0 
z
" clip-path="url(#p9d0a81bd1b)" style="fill: #1f77b4"/>
   </g>
   <g id="matplotlib.axis_1">
    <g id="xtick_1">
     <g id="line2d_1">
      <defs>
       <path id="m3e7be95bd9" d="M 0 0 
L 0 3.5 
" style="stroke: #000000; stroke-width: 0.8"/>
      </defs>
      <g>
       <use xlink:href="#m3e7be95bd9" x="169.527273" y="273.312" style="stroke: #000000; stroke-width: 0.8"/>
      </g>
     </g>
     <g id="text_1">
      <!-- 0 -->
      <g transform="translate(166.378054 287.802625)scale(0.1 -0.1)">
       <defs>
        <path id="IPAexGothic-30" d="M 2038 4725 
Q 2881 4725 3334 3944 
Q 3694 3325 3694 2344 
Q 3694 1372 3334 741 
Q 2888 -31 2016 -31 
Q 1147 -31 700 741 
Q 341 1372 341 2350 
Q 341 3713 1000 4334 
Q 1419 4725 2038 4725 
z
M 2016 4266 
Q 1516 4266 1228 3759 
Q 934 3247 934 2344 
Q 934 1456 1222 947 
Q 1513 447 2016 447 
Q 2619 447 2909 1153 
Q 3100 1622 3100 2375 
Q 3100 3256 2806 3759 
Q 2509 4266 2016 4266 
z
" transform="scale(0.015625)"/>
       </defs>
       <use xlink:href="#IPAexGothic-30"/>
      </g>
     </g>
    </g>
    <g id="xtick_2">
     <g id="line2d_2">
      <g>
       <use xlink:href="#m3e7be95bd9" x="132.634711" y="273.312" style="stroke: #000000; stroke-width: 0.8"/>
      </g>
     </g>
     <g id="text_2">
      <!-- 25 -->
      <g transform="translate(126.336273 287.802625)scale(0.1 -0.1)">
       <defs>
        <path id="IPAexGothic-32" d="M 3659 63 
L 447 63 
L 447 594 
Q 825 1475 1894 2203 
L 2072 2322 
Q 2619 2697 2791 2906 
Q 2988 3153 2988 3444 
Q 2988 3772 2756 4003 
Q 2500 4259 2084 4259 
Q 1250 4259 991 3328 
L 497 3506 
Q 853 4725 2116 4725 
Q 2806 4725 3216 4316 
Q 3575 3947 3575 3425 
Q 3575 3038 3344 2722 
Q 3131 2416 2366 1938 
L 2231 1856 
Q 1256 1253 978 569 
L 3659 569 
L 3659 63 
z
" transform="scale(0.015625)"/>
        <path id="IPAexGothic-35" d="M 1178 2603 
Q 1634 2963 2172 2963 
Q 2816 2963 3241 2528 
Q 3638 2113 3638 1497 
Q 3638 938 3297 513 
Q 2869 -31 2031 -31 
Q 959 -31 469 784 
L 938 1028 
Q 1309 434 2013 434 
Q 2466 434 2769 716 
Q 3081 1013 3081 1503 
Q 3081 1966 2806 2241 
Q 2519 2528 2056 2528 
Q 1406 2528 1072 2028 
L 591 2091 
L 884 4634 
L 3406 4634 
L 3406 4153 
L 1341 4153 
L 1134 2603 
L 1178 2603 
z
" transform="scale(0.015625)"/>
       </defs>
       <use xlink:href="#IPAexGothic-32"/>
       <use xlink:href="#IPAexGothic-35" x="62.988281"/>
      </g>
     </g>
    </g>
    <g id="xtick_3">
     <g id="line2d_3">
      <g>
       <use xlink:href="#m3e7be95bd9" x="95.742149" y="273.312" style="stroke: #000000; stroke-width: 0.8"/>
      </g>
     </g>
     <g id="text_3">
      <!-- 50 -->
      <g transform="translate(89.443711 287.802625)scale(0.1 -0.1)">
       <use xlink:href="#IPAexGothic-35"/>
       <use xlink:href="#IPAexGothic-30" x="62.988281"/>
      </g>
     </g>
    </g>
    <g id="xtick_4">
     <g id="line2d_4">
      <g>
       <use xlink:href="#m3e7be95bd9" x="58.849587" y="273.312" style="stroke: #000000; stroke-width: 0.8"/>
      </g>
     </g>
     <g id="text_4">
      <!-- 75 -->
      <g transform="translate(52.551149 287.802625)scale(0.1 -0.1)">
       <defs>
        <path id="IPAexGothic-37" d="M 3597 4263 
Q 2238 2106 1778 63 
L 1131 63 
Q 1581 1834 2950 4128 
L 428 4128 
L 428 4634 
L 3597 4634 
L 3597 4263 
z
" transform="scale(0.015625)"/>
       </defs>
       <use xlink:href="#IPAexGothic-37"/>
       <use xlink:href="#IPAexGothic-35" x="62.988281"/>
      </g>
     </g>
    </g>
    <g id="xtick_5">
     <g id="line2d_5">
      <g>
       <use xlink:href="#m3e7be95bd9" x="21.957025" y="273.312" style="stroke: #000000; stroke-width: 0.8"/>
      </g>
     </g>
     <g id="text_5">
      <!-- 100 -->
      <g transform="translate(12.509369 287.802625)scale(0.1 -0.1)">
       <defs>
        <path id="IPAexGothic-31" d="M 2463 63 
L 1900 63 
L 1900 4103 
Q 1372 3922 788 3797 
L 684 4231 
Q 1519 4441 2106 4731 
L 2463 4731 
L 2463 63 
z
" transform="scale(0.015625)"/>
       </defs>
       <use xlink:href="#IPAexGothic-31"/>
       <use xlink:href="#IPAexGothic-30" x="62.988281"/>
       <use xlink:href="#IPAexGothic-30" x="125.976562"/>
      </g>
     </g>
    </g>
   </g>
   <g id="matplotlib.axis_2">
    <g id="ytick_1">
     <g id="line2d_6">
      <defs>
       <path id="md9b1ce7dc3" d="M 0 0 
L 3.5 0 
" style="stroke: #000000; stroke-width: 0.8"/>
      </defs>
      <g>
       <use xlink:href="#md9b1ce7dc3" x="169.527273" y="273.312" style="stroke: #000000; stroke-width: 0.8"/>
      </g>
     </g>
    </g>
    <g id="ytick_2">
     <g id="line2d_7">
      <g>
       <use xlink:href="#md9b1ce7dc3" x="169.527273" y="225.363892" style="stroke: #000000; stroke-width: 0.8"/>
      </g>
     </g>
    </g>
    <g id="ytick_3">
     <g id="line2d_8">
      <g>
       <use xlink:href="#md9b1ce7dc3" x="169.527273" y="177.415784" style="stroke: #000000; stroke-width: 0.8"/>
      </g>
     </g>
    </g>
    <g id="ytick_4">
     <g id="line2d_9">
      <g>
       <use xlink:href="#md9b1ce7dc3" x="169.527273" y="129.467676" style="stroke: #000000; stroke-width: 0.8"/>
      </g>
     </g>
    </g>
    <g id="ytick_5">
     <g id="line2d_10">
      <g>
       <use xlink:href="#md9b1ce7dc3" x="169.527273" y="81.519568" style="stroke: #000000; stroke-width: 0.8"/>
      </g>
     </g>
    </g>
    <g id="ytick_6">
     <g id="line2d_11">
      <g>
       <use xlink:href="#md9b1ce7dc3" x="169.527273" y="33.571459" style="stroke: #000000; stroke-width: 0.8"/>
      </g>
     </g>
    </g>
   </g>
   <g id="patch_115">
    <path d="M 169.527273 273.312 
L 169.527273 7.2 
" style="fill: none; stroke: #000000; stroke-width: 0.8; stroke-linejoin: miter; stroke-linecap: square"/>
   </g>
   <g id="patch_116">
    <path d="M 7.2 273.312 
L 169.527273 273.312 
" style="fill: none; stroke: #000000; stroke-width: 0.8; stroke-linejoin: miter; stroke-linecap: square"/>
   </g>
   <g id="text_6">
    <!-- 男 -->
    <g transform="translate(16.957025 26.379243)scale(0.1 -0.1)">
     <defs>
      <path id="IPAexGothic-7537" d="M 3306 2572 
L 3306 2003 
L 5666 2003 
Q 5569 419 5466 103 
Q 5322 -331 4691 -331 
Q 4181 -331 3569 -281 
L 3494 206 
Q 4116 103 4597 103 
Q 4953 103 5031 391 
Q 5131 759 5178 1594 
L 3269 1594 
Q 3138 775 2550 281 
Q 1975 -197 928 -475 
L 628 -63 
Q 2631 428 2794 1544 
L 647 1544 
L 647 1953 
L 2838 1953 
L 2838 2572 
L 1063 2572 
L 1063 4978 
L 5331 4978 
L 5331 2572 
L 3306 2572 
z
M 1516 4606 
L 1516 3969 
L 2956 3969 
L 2956 4606 
L 1516 4606 
z
M 1516 3609 
L 1516 2944 
L 2956 2944 
L 2956 3609 
L 1516 3609 
z
M 4878 2944 
L 4878 3609 
L 3397 3609 
L 3397 2944 
L 4878 2944 
z
M 4878 3969 
L 4878 4606 
L 3397 4606 
L 3397 3969 
L 4878 3969 
z
" transform="scale(0.015625)"/>
     </defs>
     <use xlink:href="#IPAexGothic-7537"/>
    </g>
   </g>
  </g>
  <g id="axes_2">
   <g id="patch_117">
    <path d="M 201.992727 273.312 
L 364.32 273.312 
L 364.32 7.2 
L 201.992727 7.2 
z
" style="fill: #ffffff"/>
   </g>
   <g id="patch_118">
    <path d="M 201.992727 273.312 
L 262.002169 273.312 
L 262.002169 270.914595 
L 201.992727 270.914595 
z
" clip-path="url(#pfe2d0eec5f)" style="fill: #ff7f0e"/>
   </g>
   <g id="patch_119">
    <path d="M 201.992727 270.914595 
L 264.445489 270.914595 
L 264.445489 268.517189 
L 201.992727 268.517189 
z
" clip-path="url(#pfe2d0eec5f)" style="fill: #ff7f0e"/>
   </g>
   <g id="patch_120">
    <path d="M 201.992727 268.517189 
L 267.546383 268.517189 
L 267.546383 266.119784 
L 201.992727 266.119784 
z
" clip-path="url(#pfe2d0eec5f)" style="fill: #ff7f0e"/>
   </g>
   <g id="patch_121">
    <path d="M 201.992727 266.119784 
L 269.34615 266.119784 
L 269.34615 263.722378 
L 201.992727 263.722378 
z
" clip-path="url(#pfe2d0eec5f)" style="fill: #ff7f0e"/>
   </g>
   <g id="patch_122">
    <path d="M 201.992727 263.722378 
L 272.000053 263.722378 
L 272.000053 261.324973 
L 201.992727 261.324973 
z
" clip-path="url(#pfe2d0eec5f)" style="fill: #ff7f0e"/>
   </g>
   <g id="patch_123">
    <path d="M 201.992727 261.324973 
L 273.895298 261.324973 
L 273.895298 258.927568 
L 201.992727 258.927568 
z
" clip-path="url(#pfe2d0eec5f)" style="fill: #ff7f0e"/>
   </g>
   <g id="patch_124">
    <path d="M 201.992727 258.927568 
L 273.609306 258.927568 
L 273.609306 256.530162 
L 201.992727 256.530162 
z
" clip-path="url(#pfe2d0eec5f)" style="fill: #ff7f0e"/>
   </g>
   <g id="patch_125">
    <path d="M 201.992727 256.530162 
L 275.569334 256.530162 
L 275.569334 254.132757 
L 201.992727 254.132757 
z
" clip-path="url(#pfe2d0eec5f)" style="fill: #ff7f0e"/>
   </g>
   <g id="patch_126">
    <path d="M 201.992727 254.132757 
L 275.817252 254.132757 
L 275.817252 251.735351 
L 201.992727 251.735351 
z
" clip-path="url(#pfe2d0eec5f)" style="fill: #ff7f0e"/>
   </g>
   <g id="patch_127">
    <path d="M 201.992727 251.735351 
L 277.407027 251.735351 
L 277.407027 249.337946 
L 201.992727 249.337946 
z
" clip-path="url(#pfe2d0eec5f)" style="fill: #ff7f0e"/>
   </g>
   <g id="patch_128">
    <path d="M 201.992727 249.337946 
L 278.047482 249.337946 
L 278.047482 246.940541 
L 201.992727 246.940541 
z
" clip-path="url(#pfe2d0eec5f)" style="fill: #ff7f0e"/>
   </g>
   <g id="patch_129">
    <path d="M 201.992727 246.940541 
L 278.460088 246.940541 
L 278.460088 244.543135 
L 201.992727 244.543135 
z
" clip-path="url(#pfe2d0eec5f)" style="fill: #ff7f0e"/>
   </g>
   <g id="patch_130">
    <path d="M 201.992727 244.543135 
L 279.952023 244.543135 
L 279.952023 242.14573 
L 201.992727 242.14573 
z
" clip-path="url(#pfe2d0eec5f)" style="fill: #ff7f0e"/>
   </g>
   <g id="patch_131">
    <path d="M 201.992727 242.14573 
L 279.455154 242.14573 
L 279.455154 239.748324 
L 201.992727 239.748324 
z
" clip-path="url(#pfe2d0eec5f)" style="fill: #ff7f0e"/>
   </g>
   <g id="patch_132">
    <path d="M 201.992727 239.748324 
L 278.969058 239.748324 
L 278.969058 237.350919 
L 201.992727 237.350919 
z
" clip-path="url(#pfe2d0eec5f)" style="fill: #ff7f0e"/>
   </g>
   <g id="patch_133">
    <path d="M 201.992727 237.350919 
L 278.903537 237.350919 
L 278.903537 234.953514 
L 201.992727 234.953514 
z
" clip-path="url(#pfe2d0eec5f)" style="fill: #ff7f0e"/>
   </g>
   <g id="patch_134">
    <path d="M 201.992727 234.953514 
L 281.925185 234.953514 
L 281.925185 232.556108 
L 201.992727 232.556108 
z
" clip-path="url(#pfe2d0eec5f)" style="fill: #ff7f0e"/>
   </g>
   <g id="patch_135">
    <path d="M 201.992727 232.556108 
L 282.52373 232.556108 
L 282.52373 230.158703 
L 201.992727 230.158703 
z
" clip-path="url(#pfe2d0eec5f)" style="fill: #ff7f0e"/>
   </g>
   <g id="patch_136">
    <path d="M 201.992727 230.158703 
L 284.76724 230.158703 
L 284.76724 227.761297 
L 201.992727 227.761297 
z
" clip-path="url(#pfe2d0eec5f)" style="fill: #ff7f0e"/>
   </g>
   <g id="patch_137">
    <path d="M 201.992727 227.761297 
L 285.804364 227.761297 
L 285.804364 225.363892 
L 201.992727 225.363892 
z
" clip-path="url(#pfe2d0eec5f)" style="fill: #ff7f0e"/>
   </g>
   <g id="patch_138">
    <path d="M 201.992727 225.363892 
L 287.277558 225.363892 
L 287.277558 222.966486 
L 201.992727 222.966486 
z
" clip-path="url(#pfe2d0eec5f)" style="fill: #ff7f0e"/>
   </g>
   <g id="patch_139">
    <path d="M 201.992727 222.966486 
L 287.396647 222.966486 
L 287.396647 220.569081 
L 201.992727 220.569081 
z
" clip-path="url(#pfe2d0eec5f)" style="fill: #ff7f0e"/>
   </g>
   <g id="patch_140">
    <path d="M 201.992727 220.569081 
L 288.542235 220.569081 
L 288.542235 218.171676 
L 201.992727 218.171676 
z
" clip-path="url(#pfe2d0eec5f)" style="fill: #ff7f0e"/>
   </g>
   <g id="patch_141">
    <path d="M 201.992727 218.171676 
L 288.472434 218.171676 
L 288.472434 215.77427 
L 201.992727 215.77427 
z
" clip-path="url(#pfe2d0eec5f)" style="fill: #ff7f0e"/>
   </g>
   <g id="patch_142">
    <path d="M 201.992727 215.77427 
L 288.211382 215.77427 
L 288.211382 213.376865 
L 201.992727 213.376865 
z
" clip-path="url(#pfe2d0eec5f)" style="fill: #ff7f0e"/>
   </g>
   <g id="patch_143">
    <path d="M 201.992727 213.376865 
L 289.663769 213.376865 
L 289.663769 210.979459 
L 201.992727 210.979459 
z
" clip-path="url(#pfe2d0eec5f)" style="fill: #ff7f0e"/>
   </g>
   <g id="patch_144">
    <path d="M 201.992727 210.979459 
L 289.723535 210.979459 
L 289.723535 208.582054 
L 201.992727 208.582054 
z
" clip-path="url(#pfe2d0eec5f)" style="fill: #ff7f0e"/>
   </g>
   <g id="patch_145">
    <path d="M 201.992727 208.582054 
L 288.228058 208.582054 
L 288.228058 206.184649 
L 201.992727 206.184649 
z
" clip-path="url(#pfe2d0eec5f)" style="fill: #ff7f0e"/>
   </g>
   <g id="patch_146">
    <path d="M 201.992727 206.184649 
L 289.493916 206.184649 
L 289.493916 203.787243 
L 201.992727 203.787243 
z
" clip-path="url(#pfe2d0eec5f)" style="fill: #ff7f0e"/>
   </g>
   <g id="patch_147">
    <path d="M 201.992727 203.787243 
L 289.349002 203.787243 
L 289.349002 201.389838 
L 201.992727 201.389838 
z
" clip-path="url(#pfe2d0eec5f)" style="fill: #ff7f0e"/>
   </g>
   <g id="patch_148">
    <path d="M 201.992727 201.389838 
L 291.459551 201.389838 
L 291.459551 198.992432 
L 201.992727 198.992432 
z
" clip-path="url(#pfe2d0eec5f)" style="fill: #ff7f0e"/>
   </g>
   <g id="patch_149">
    <path d="M 201.992727 198.992432 
L 293.307131 198.992432 
L 293.307131 196.595027 
L 201.992727 196.595027 
z
" clip-path="url(#pfe2d0eec5f)" style="fill: #ff7f0e"/>
   </g>
   <g id="patch_150">
    <path d="M 201.992727 196.595027 
L 296.154794 196.595027 
L 296.154794 194.197622 
L 201.992727 194.197622 
z
" clip-path="url(#pfe2d0eec5f)" style="fill: #ff7f0e"/>
   </g>
   <g id="patch_151">
    <path d="M 201.992727 194.197622 
L 298.973386 194.197622 
L 298.973386 191.800216 
L 201.992727 191.800216 
z
" clip-path="url(#pfe2d0eec5f)" style="fill: #ff7f0e"/>
   </g>
   <g id="patch_152">
    <path d="M 201.992727 191.800216 
L 300.458237 191.800216 
L 300.458237 189.402811 
L 201.992727 189.402811 
z
" clip-path="url(#pfe2d0eec5f)" style="fill: #ff7f0e"/>
   </g>
   <g id="patch_153">
    <path d="M 201.992727 189.402811 
L 304.569692 189.402811 
L 304.569692 187.005405 
L 201.992727 187.005405 
z
" clip-path="url(#pfe2d0eec5f)" style="fill: #ff7f0e"/>
   </g>
   <g id="patch_154">
    <path d="M 201.992727 187.005405 
L 308.19992 187.005405 
L 308.19992 184.608 
L 201.992727 184.608 
z
" clip-path="url(#pfe2d0eec5f)" style="fill: #ff7f0e"/>
   </g>
   <g id="patch_155">
    <path d="M 201.992727 184.608 
L 309.766526 184.608 
L 309.766526 182.210595 
L 201.992727 182.210595 
z
" clip-path="url(#pfe2d0eec5f)" style="fill: #ff7f0e"/>
   </g>
   <g id="patch_156">
    <path d="M 201.992727 182.210595 
L 310.040416 182.210595 
L 310.040416 179.813189 
L 201.992727 179.813189 
z
" clip-path="url(#pfe2d0eec5f)" style="fill: #ff7f0e"/>
   </g>
   <g id="patch_157">
    <path d="M 201.992727 179.813189 
L 310.811028 179.813189 
L 310.811028 177.415784 
L 201.992727 177.415784 
z
" clip-path="url(#pfe2d0eec5f)" style="fill: #ff7f0e"/>
   </g>
   <g id="patch_158">
    <path d="M 201.992727 177.415784 
L 315.747696 177.415784 
L 315.747696 175.018378 
L 201.992727 175.018378 
z
" clip-path="url(#pfe2d0eec5f)" style="fill: #ff7f0e"/>
   </g>
   <g id="patch_159">
    <path d="M 201.992727 175.018378 
L 318.449854 175.018378 
L 318.449854 172.620973 
L 201.992727 172.620973 
z
" clip-path="url(#pfe2d0eec5f)" style="fill: #ff7f0e"/>
   </g>
   <g id="patch_160">
    <path d="M 201.992727 172.620973 
L 323.036338 172.620973 
L 323.036338 170.223568 
L 201.992727 170.223568 
z
" clip-path="url(#pfe2d0eec5f)" style="fill: #ff7f0e"/>
   </g>
   <g id="patch_161">
    <path d="M 201.992727 170.223568 
L 326.085287 170.223568 
L 326.085287 167.826162 
L 201.992727 167.826162 
z
" clip-path="url(#pfe2d0eec5f)" style="fill: #ff7f0e"/>
   </g>
   <g id="patch_162">
    <path d="M 201.992727 167.826162 
L 331.923166 167.826162 
L 331.923166 165.428757 
L 201.992727 165.428757 
z
" clip-path="url(#pfe2d0eec5f)" style="fill: #ff7f0e"/>
   </g>
   <g id="patch_163">
    <path d="M 201.992727 165.428757 
L 337.383855 165.428757 
L 337.383855 163.031351 
L 201.992727 163.031351 
z
" clip-path="url(#pfe2d0eec5f)" style="fill: #ff7f0e"/>
   </g>
   <g id="patch_164">
    <path d="M 201.992727 163.031351 
L 344.936796 163.031351 
L 344.936796 160.633946 
L 201.992727 160.633946 
z
" clip-path="url(#pfe2d0eec5f)" style="fill: #ff7f0e"/>
   </g>
   <g id="patch_165">
    <path d="M 201.992727 160.633946 
L 347.978218 160.633946 
L 347.978218 158.236541 
L 201.992727 158.236541 
z
" clip-path="url(#pfe2d0eec5f)" style="fill: #ff7f0e"/>
   </g>
   <g id="patch_166">
    <path d="M 201.992727 158.236541 
L 345.075512 158.236541 
L 345.075512 155.839135 
L 201.992727 155.839135 
z
" clip-path="url(#pfe2d0eec5f)" style="fill: #ff7f0e"/>
   </g>
   <g id="patch_167">
    <path d="M 201.992727 155.839135 
L 341.052747 155.839135 
L 341.052747 153.44173 
L 201.992727 153.44173 
z
" clip-path="url(#pfe2d0eec5f)" style="fill: #ff7f0e"/>
   </g>
   <g id="patch_168">
    <path d="M 201.992727 153.44173 
L 336.93288 153.44173 
L 336.93288 151.044324 
L 201.992727 151.044324 
z
" clip-path="url(#pfe2d0eec5f)" style="fill: #ff7f0e"/>
   </g>
   <g id="patch_169">
    <path d="M 201.992727 151.044324 
L 335.027896 151.044324 
L 335.027896 148.646919 
L 201.992727 148.646919 
z
" clip-path="url(#pfe2d0eec5f)" style="fill: #ff7f0e"/>
   </g>
   <g id="patch_170">
    <path d="M 201.992727 148.646919 
L 331.884502 148.646919 
L 331.884502 146.249514 
L 201.992727 146.249514 
z
" clip-path="url(#pfe2d0eec5f)" style="fill: #ff7f0e"/>
   </g>
   <g id="patch_171">
    <path d="M 201.992727 146.249514 
L 331.655768 146.249514 
L 331.655768 143.852108 
L 201.992727 143.852108 
z
" clip-path="url(#pfe2d0eec5f)" style="fill: #ff7f0e"/>
   </g>
   <g id="patch_172">
    <path d="M 201.992727 143.852108 
L 303.532126 143.852108 
L 303.532126 141.454703 
L 201.992727 141.454703 
z
" clip-path="url(#pfe2d0eec5f)" style="fill: #ff7f0e"/>
   </g>
   <g id="patch_173">
    <path d="M 201.992727 141.454703 
L 326.946654 141.454703 
L 326.946654 139.057297 
L 201.992727 139.057297 
z
" clip-path="url(#pfe2d0eec5f)" style="fill: #ff7f0e"/>
   </g>
   <g id="patch_174">
    <path d="M 201.992727 139.057297 
L 319.176195 139.057297 
L 319.176195 136.659892 
L 201.992727 136.659892 
z
" clip-path="url(#pfe2d0eec5f)" style="fill: #ff7f0e"/>
   </g>
   <g id="patch_175">
    <path d="M 201.992727 136.659892 
L 316.324105 136.659892 
L 316.324105 134.262486 
L 201.992727 134.262486 
z
" clip-path="url(#pfe2d0eec5f)" style="fill: #ff7f0e"/>
   </g>
   <g id="patch_176">
    <path d="M 201.992727 134.262486 
L 312.726785 134.262486 
L 312.726785 131.865081 
L 201.992727 131.865081 
z
" clip-path="url(#pfe2d0eec5f)" style="fill: #ff7f0e"/>
   </g>
   <g id="patch_177">
    <path d="M 201.992727 131.865081 
L 310.63542 131.865081 
L 310.63542 129.467676 
L 201.992727 129.467676 
z
" clip-path="url(#pfe2d0eec5f)" style="fill: #ff7f0e"/>
   </g>
   <g id="patch_178">
    <path d="M 201.992727 129.467676 
L 311.621779 129.467676 
L 311.621779 127.07027 
L 201.992727 127.07027 
z
" clip-path="url(#pfe2d0eec5f)" style="fill: #ff7f0e"/>
   </g>
   <g id="patch_179">
    <path d="M 201.992727 127.07027 
L 313.559081 127.07027 
L 313.559081 124.672865 
L 201.992727 124.672865 
z
" clip-path="url(#pfe2d0eec5f)" style="fill: #ff7f0e"/>
   </g>
   <g id="patch_180">
    <path d="M 201.992727 124.672865 
L 310.721305 124.672865 
L 310.721305 122.275459 
L 201.992727 122.275459 
z
" clip-path="url(#pfe2d0eec5f)" style="fill: #ff7f0e"/>
   </g>
   <g id="patch_181">
    <path d="M 201.992727 122.275459 
L 307.696263 122.275459 
L 307.696263 119.878054 
L 201.992727 119.878054 
z
" clip-path="url(#pfe2d0eec5f)" style="fill: #ff7f0e"/>
   </g>
   <g id="patch_182">
    <path d="M 201.992727 119.878054 
L 313.007759 119.878054 
L 313.007759 117.480649 
L 201.992727 117.480649 
z
" clip-path="url(#pfe2d0eec5f)" style="fill: #ff7f0e"/>
   </g>
   <g id="patch_183">
    <path d="M 201.992727 117.480649 
L 316.313775 117.480649 
L 316.313775 115.083243 
L 201.992727 115.083243 
z
" clip-path="url(#pfe2d0eec5f)" style="fill: #ff7f0e"/>
   </g>
   <g id="patch_184">
    <path d="M 201.992727 115.083243 
L 316.472118 115.083243 
L 316.472118 112.685838 
L 201.992727 112.685838 
z
" clip-path="url(#pfe2d0eec5f)" style="fill: #ff7f0e"/>
   </g>
   <g id="patch_185">
    <path d="M 201.992727 112.685838 
L 323.760465 112.685838 
L 323.760465 110.288432 
L 201.992727 110.288432 
z
" clip-path="url(#pfe2d0eec5f)" style="fill: #ff7f0e"/>
   </g>
   <g id="patch_186">
    <path d="M 201.992727 110.288432 
L 330.417949 110.288432 
L 330.417949 107.891027 
L 201.992727 107.891027 
z
" clip-path="url(#pfe2d0eec5f)" style="fill: #ff7f0e"/>
   </g>
   <g id="patch_187">
    <path d="M 201.992727 107.891027 
L 337.660107 107.891027 
L 337.660107 105.493622 
L 201.992727 105.493622 
z
" clip-path="url(#pfe2d0eec5f)" style="fill: #ff7f0e"/>
   </g>
   <g id="patch_188">
    <path d="M 201.992727 105.493622 
L 347.722774 105.493622 
L 347.722774 103.096216 
L 201.992727 103.096216 
z
" clip-path="url(#pfe2d0eec5f)" style="fill: #ff7f0e"/>
   </g>
   <g id="patch_189">
    <path d="M 201.992727 103.096216 
L 361.133958 103.096216 
L 361.133958 100.698811 
L 201.992727 100.698811 
z
" clip-path="url(#pfe2d0eec5f)" style="fill: #ff7f0e"/>
   </g>
   <g id="patch_190">
    <path d="M 201.992727 100.698811 
L 359.158731 100.698811 
L 359.158731 98.301405 
L 201.992727 98.301405 
z
" clip-path="url(#pfe2d0eec5f)" style="fill: #ff7f0e"/>
   </g>
   <g id="patch_191">
    <path d="M 201.992727 98.301405 
L 350.2356 98.301405 
L 350.2356 95.904 
L 201.992727 95.904 
z
" clip-path="url(#pfe2d0eec5f)" style="fill: #ff7f0e"/>
   </g>
   <g id="patch_192">
    <path d="M 201.992727 95.904 
L 294.517207 95.904 
L 294.517207 93.506595 
L 201.992727 93.506595 
z
" clip-path="url(#pfe2d0eec5f)" style="fill: #ff7f0e"/>
   </g>
   <g id="patch_193">
    <path d="M 201.992727 93.506595 
L 301.351628 93.506595 
L 301.351628 91.109189 
L 201.992727 91.109189 
z
" clip-path="url(#pfe2d0eec5f)" style="fill: #ff7f0e"/>
   </g>
   <g id="patch_194">
    <path d="M 201.992727 91.109189 
L 322.744296 91.109189 
L 322.744296 88.711784 
L 201.992727 88.711784 
z
" clip-path="url(#pfe2d0eec5f)" style="fill: #ff7f0e"/>
   </g>
   <g id="patch_195">
    <path d="M 201.992727 88.711784 
L 317.646039 88.711784 
L 317.646039 86.314378 
L 201.992727 86.314378 
z
" clip-path="url(#pfe2d0eec5f)" style="fill: #ff7f0e"/>
   </g>
   <g id="patch_196">
    <path d="M 201.992727 86.314378 
L 319.718368 86.314378 
L 319.718368 83.916973 
L 201.992727 83.916973 
z
" clip-path="url(#pfe2d0eec5f)" style="fill: #ff7f0e"/>
   </g>
   <g id="patch_197">
    <path d="M 201.992727 83.916973 
L 314.887951 83.916973 
L 314.887951 81.519568 
L 201.992727 81.519568 
z
" clip-path="url(#pfe2d0eec5f)" style="fill: #ff7f0e"/>
   </g>
   <g id="patch_198">
    <path d="M 201.992727 81.519568 
L 303.333053 81.519568 
L 303.333053 79.122162 
L 201.992727 79.122162 
z
" clip-path="url(#pfe2d0eec5f)" style="fill: #ff7f0e"/>
   </g>
   <g id="patch_199">
    <path d="M 201.992727 79.122162 
L 288.514344 79.122162 
L 288.514344 76.724757 
L 201.992727 76.724757 
z
" clip-path="url(#pfe2d0eec5f)" style="fill: #ff7f0e"/>
   </g>
   <g id="patch_200">
    <path d="M 201.992727 76.724757 
L 292.661363 76.724757 
L 292.661363 74.327351 
L 201.992727 74.327351 
z
" clip-path="url(#pfe2d0eec5f)" style="fill: #ff7f0e"/>
   </g>
   <g id="patch_201">
    <path d="M 201.992727 74.327351 
L 292.750348 74.327351 
L 292.750348 71.929946 
L 201.992727 71.929946 
z
" clip-path="url(#pfe2d0eec5f)" style="fill: #ff7f0e"/>
   </g>
   <g id="patch_202">
    <path d="M 201.992727 71.929946 
L 290.266003 71.929946 
L 290.266003 69.532541 
L 201.992727 69.532541 
z
" clip-path="url(#pfe2d0eec5f)" style="fill: #ff7f0e"/>
   </g>
   <g id="patch_203">
    <path d="M 201.992727 69.532541 
L 283.561296 69.532541 
L 283.561296 67.135135 
L 201.992727 67.135135 
z
" clip-path="url(#pfe2d0eec5f)" style="fill: #ff7f0e"/>
   </g>
   <g id="patch_204">
    <path d="M 201.992727 67.135135 
L 276.090848 67.135135 
L 276.090848 64.73773 
L 201.992727 64.73773 
z
" clip-path="url(#pfe2d0eec5f)" style="fill: #ff7f0e"/>
   </g>
   <g id="patch_205">
    <path d="M 201.992727 64.73773 
L 272.647739 64.73773 
L 272.647739 62.340324 
L 201.992727 62.340324 
z
" clip-path="url(#pfe2d0eec5f)" style="fill: #ff7f0e"/>
   </g>
   <g id="patch_206">
    <path d="M 201.992727 62.340324 
L 266.653435 62.340324 
L 266.653435 59.942919 
L 201.992727 59.942919 
z
" clip-path="url(#pfe2d0eec5f)" style="fill: #ff7f0e"/>
   </g>
   <g id="patch_207">
    <path d="M 201.992727 59.942919 
L 260.213174 59.942919 
L 260.213174 57.545514 
L 201.992727 57.545514 
z
" clip-path="url(#pfe2d0eec5f)" style="fill: #ff7f0e"/>
   </g>
   <g id="patch_208">
    <path d="M 201.992727 57.545514 
L 252.721771 57.545514 
L 252.721771 55.148108 
L 201.992727 55.148108 
z
" clip-path="url(#pfe2d0eec5f)" style="fill: #ff7f0e"/>
   </g>
   <g id="patch_209">
    <path d="M 201.992727 55.148108 
L 246.799187 55.148108 
L 246.799187 52.750703 
L 201.992727 52.750703 
z
" clip-path="url(#pfe2d0eec5f)" style="fill: #ff7f0e"/>
   </g>
   <g id="patch_210">
    <path d="M 201.992727 52.750703 
L 240.693172 52.750703 
L 240.693172 50.353297 
L 201.992727 50.353297 
z
" clip-path="url(#pfe2d0eec5f)" style="fill: #ff7f0e"/>
   </g>
   <g id="patch_211">
    <path d="M 201.992727 50.353297 
L 232.52634 50.353297 
L 232.52634 47.955892 
L 201.992727 47.955892 
z
" clip-path="url(#pfe2d0eec5f)" style="fill: #ff7f0e"/>
   </g>
   <g id="patch_212">
    <path d="M 201.992727 47.955892 
L 227.251294 47.955892 
L 227.251294 45.558486 
L 201.992727 45.558486 
z
" clip-path="url(#pfe2d0eec5f)" style="fill: #ff7f0e"/>
   </g>
   <g id="patch_213">
    <path d="M 201.992727 45.558486 
L 221.675352 45.558486 
L 221.675352 43.161081 
L 201.992727 43.161081 
z
" clip-path="url(#pfe2d0eec5f)" style="fill: #ff7f0e"/>
   </g>
   <g id="patch_214">
    <path d="M 201.992727 43.161081 
L 216.601444 43.161081 
L 216.601444 40.763676 
L 201.992727 40.763676 
z
" clip-path="url(#pfe2d0eec5f)" style="fill: #ff7f0e"/>
   </g>
   <g id="patch_215">
    <path d="M 201.992727 40.763676 
L 213.019324 40.763676 
L 213.019324 38.36627 
L 201.992727 38.36627 
z
" clip-path="url(#pfe2d0eec5f)" style="fill: #ff7f0e"/>
   </g>
   <g id="patch_216">
    <path d="M 201.992727 38.36627 
L 210.11824 38.36627 
L 210.11824 35.968865 
L 201.992727 35.968865 
z
" clip-path="url(#pfe2d0eec5f)" style="fill: #ff7f0e"/>
   </g>
   <g id="patch_217">
    <path d="M 201.992727 35.968865 
L 207.667984 35.968865 
L 207.667984 33.571459 
L 201.992727 33.571459 
z
" clip-path="url(#pfe2d0eec5f)" style="fill: #ff7f0e"/>
   </g>
   <g id="patch_218">
    <path d="M 201.992727 33.571459 
L 206.10492 33.571459 
L 206.10492 31.174054 
L 201.992727 31.174054 
z
" clip-path="url(#pfe2d0eec5f)" style="fill: #ff7f0e"/>
   </g>
   <g id="patch_219">
    <path d="M 201.992727 31.174054 
L 204.201559 31.174054 
L 204.201559 28.776649 
L 201.992727 28.776649 
z
" clip-path="url(#pfe2d0eec5f)" style="fill: #ff7f0e"/>
   </g>
   <g id="patch_220">
    <path d="M 201.992727 28.776649 
L 203.538821 28.776649 
L 203.538821 26.379243 
L 201.992727 26.379243 
z
" clip-path="url(#pfe2d0eec5f)" style="fill: #ff7f0e"/>
   </g>
   <g id="patch_221">
    <path d="M 201.992727 26.379243 
L 202.940719 26.379243 
L 202.940719 23.981838 
L 201.992727 23.981838 
z
" clip-path="url(#pfe2d0eec5f)" style="fill: #ff7f0e"/>
   </g>
   <g id="patch_222">
    <path d="M 201.992727 23.981838 
L 202.615769 23.981838 
L 202.615769 21.584432 
L 201.992727 21.584432 
z
" clip-path="url(#pfe2d0eec5f)" style="fill: #ff7f0e"/>
   </g>
   <g id="patch_223">
    <path d="M 201.992727 21.584432 
L 202.368884 21.584432 
L 202.368884 19.187027 
L 201.992727 19.187027 
z
" clip-path="url(#pfe2d0eec5f)" style="fill: #ff7f0e"/>
   </g>
   <g id="patch_224">
    <path d="M 201.992727 19.187027 
L 202.21423 19.187027 
L 202.21423 16.789622 
L 201.992727 16.789622 
z
" clip-path="url(#pfe2d0eec5f)" style="fill: #ff7f0e"/>
   </g>
   <g id="patch_225">
    <path d="M 201.992727 16.789622 
L 202.129968 16.789622 
L 202.129968 14.392216 
L 201.992727 14.392216 
z
" clip-path="url(#pfe2d0eec5f)" style="fill: #ff7f0e"/>
   </g>
   <g id="patch_226">
    <path d="M 201.992727 14.392216 
L 202.065922 14.392216 
L 202.065922 11.994811 
L 201.992727 11.994811 
z
" clip-path="url(#pfe2d0eec5f)" style="fill: #ff7f0e"/>
   </g>
   <g id="patch_227">
    <path d="M 201.992727 11.994811 
L 202.01988 11.994811 
L 202.01988 9.597405 
L 201.992727 9.597405 
z
" clip-path="url(#pfe2d0eec5f)" style="fill: #ff7f0e"/>
   </g>
   <g id="patch_228">
    <path d="M 201.992727 9.597405 
L 202.013387 9.597405 
L 202.013387 7.2 
L 201.992727 7.2 
z
" clip-path="url(#pfe2d0eec5f)" style="fill: #ff7f0e"/>
   </g>
   <g id="patch_229">
    <path d="M 0 0 
z
" clip-path="url(#pfe2d0eec5f)" style="fill: #ff7f0e"/>
   </g>
   <g id="matplotlib.axis_3">
    <g id="xtick_6">
     <g id="line2d_12">
      <g>
       <use xlink:href="#m3e7be95bd9" x="201.992727" y="273.312" style="stroke: #000000; stroke-width: 0.8"/>
      </g>
     </g>
     <g id="text_7">
      <!-- 0 -->
      <g transform="translate(198.843509 287.802625)scale(0.1 -0.1)">
       <use xlink:href="#IPAexGothic-30"/>
      </g>
     </g>
    </g>
    <g id="xtick_7">
     <g id="line2d_13">
      <g>
       <use xlink:href="#m3e7be95bd9" x="238.885289" y="273.312" style="stroke: #000000; stroke-width: 0.8"/>
      </g>
     </g>
     <g id="text_8">
      <!-- 25 -->
      <g transform="translate(232.586852 287.802625)scale(0.1 -0.1)">
       <use xlink:href="#IPAexGothic-32"/>
       <use xlink:href="#IPAexGothic-35" x="62.988281"/>
      </g>
     </g>
    </g>
    <g id="xtick_8">
     <g id="line2d_14">
      <g>
       <use xlink:href="#m3e7be95bd9" x="275.777851" y="273.312" style="stroke: #000000; stroke-width: 0.8"/>
      </g>
     </g>
     <g id="text_9">
      <!-- 50 -->
      <g transform="translate(269.479414 287.802625)scale(0.1 -0.1)">
       <use xlink:href="#IPAexGothic-35"/>
       <use xlink:href="#IPAexGothic-30" x="62.988281"/>
      </g>
     </g>
    </g>
    <g id="xtick_9">
     <g id="line2d_15">
      <g>
       <use xlink:href="#m3e7be95bd9" x="312.670413" y="273.312" style="stroke: #000000; stroke-width: 0.8"/>
      </g>
     </g>
     <g id="text_10">
      <!-- 75 -->
      <g transform="translate(306.371976 287.802625)scale(0.1 -0.1)">
       <use xlink:href="#IPAexGothic-37"/>
       <use xlink:href="#IPAexGothic-35" x="62.988281"/>
      </g>
     </g>
    </g>
    <g id="xtick_10">
     <g id="line2d_16">
      <g>
       <use xlink:href="#m3e7be95bd9" x="349.562975" y="273.312" style="stroke: #000000; stroke-width: 0.8"/>
      </g>
     </g>
     <g id="text_11">
      <!-- 100 -->
      <g transform="translate(340.115319 287.802625)scale(0.1 -0.1)">
       <use xlink:href="#IPAexGothic-31"/>
       <use xlink:href="#IPAexGothic-30" x="62.988281"/>
       <use xlink:href="#IPAexGothic-30" x="125.976562"/>
      </g>
     </g>
    </g>
   </g>
   <g id="matplotlib.axis_4">
    <g id="ytick_7">
     <g id="line2d_17">
      <defs>
       <path id="m903bcdbdab" d="M 0 0 
L -3.5 0 
" style="stroke: #000000; stroke-width: 0.8"/>
      </defs>
      <g>
       <use xlink:href="#m903bcdbdab" x="201.992727" y="273.312" style="stroke: #000000; stroke-width: 0.8"/>
      </g>
     </g>
     <g id="text_12">
      <!-- 0 -->
      <g transform="translate(188.69429 277.057312)scale(0.1 -0.1)">
       <use xlink:href="#IPAexGothic-30"/>
      </g>
     </g>
    </g>
    <g id="ytick_8">
     <g id="line2d_18">
      <g>
       <use xlink:href="#m903bcdbdab" x="201.992727" y="225.363892" style="stroke: #000000; stroke-width: 0.8"/>
      </g>
     </g>
     <g id="text_13">
      <!-- 20 -->
      <g transform="translate(182.395852 229.109204)scale(0.1 -0.1)">
       <use xlink:href="#IPAexGothic-32"/>
       <use xlink:href="#IPAexGothic-30" x="62.988281"/>
      </g>
     </g>
    </g>
    <g id="ytick_9">
     <g id="line2d_19">
      <g>
       <use xlink:href="#m903bcdbdab" x="201.992727" y="177.415784" style="stroke: #000000; stroke-width: 0.8"/>
      </g>
     </g>
     <g id="text_14">
      <!-- 40 -->
      <g transform="translate(182.395852 181.161096)scale(0.1 -0.1)">
       <defs>
        <path id="IPAexGothic-34" d="M 3813 1159 
L 3059 1159 
L 3059 63 
L 2547 63 
L 2547 1159 
L 197 1159 
L 197 1672 
L 2456 4678 
L 3059 4678 
L 3059 1634 
L 3813 1634 
L 3813 1159 
z
M 2578 4109 
L 2559 4109 
Q 2278 3656 2003 3284 
L 759 1634 
L 2547 1634 
L 2547 3144 
Q 2547 3481 2578 4109 
z
" transform="scale(0.015625)"/>
       </defs>
       <use xlink:href="#IPAexGothic-34"/>
       <use xlink:href="#IPAexGothic-30" x="62.988281"/>
      </g>
     </g>
    </g>
    <g id="ytick_10">
     <g id="line2d_20">
      <g>
       <use xlink:href="#m903bcdbdab" x="201.992727" y="129.467676" style="stroke: #000000; stroke-width: 0.8"/>
      </g>
     </g>
     <g id="text_15">
      <!-- 60 -->
      <g transform="translate(182.395852 133.212988)scale(0.1 -0.1)">
       <defs>
        <path id="IPAexGothic-36" d="M 1056 2328 
Q 1509 2981 2234 2981 
Q 2906 2981 3316 2513 
Q 3675 2106 3675 1522 
Q 3675 884 3272 434 
Q 2853 -31 2178 -31 
Q 1375 -31 922 581 
Q 481 1178 481 2228 
Q 481 3425 1013 4109 
Q 1494 4725 2272 4725 
Q 3191 4725 3609 4025 
L 3150 3775 
Q 2894 4266 2300 4266 
Q 1119 4266 1031 2328 
L 1056 2328 
z
M 2141 2547 
Q 1684 2547 1384 2206 
Q 1116 1900 1116 1541 
Q 1116 1156 1353 844 
Q 1672 428 2159 428 
Q 2669 428 2941 844 
Q 3125 1128 3125 1503 
Q 3125 1944 2881 2228 
Q 2600 2547 2141 2547 
z
" transform="scale(0.015625)"/>
       </defs>
       <use xlink:href="#IPAexGothic-36"/>
       <use xlink:href="#IPAexGothic-30" x="62.988281"/>
      </g>
     </g>
    </g>
    <g id="ytick_11">
     <g id="line2d_21">
      <g>
       <use xlink:href="#m903bcdbdab" x="201.992727" y="81.519568" style="stroke: #000000; stroke-width: 0.8"/>
      </g>
     </g>
     <g id="text_16">
      <!-- 80 -->
      <g transform="translate(182.395852 85.26488)scale(0.1 -0.1)">
       <defs>
        <path id="IPAexGothic-38" d="M 2541 2425 
Q 3700 2031 3700 1197 
Q 3700 541 3100 197 
Q 2663 -56 2016 -56 
Q 1366 -56 928 197 
Q 347 531 347 1178 
Q 347 1988 1409 2381 
L 1409 2400 
Q 481 2734 481 3509 
Q 481 4100 981 4456 
Q 1406 4756 2019 4756 
Q 2703 4756 3131 4403 
Q 3553 4069 3553 3566 
Q 3553 2706 2541 2444 
L 2541 2425 
z
M 2022 2625 
Q 2997 2856 2997 3528 
Q 2997 3916 2675 4150 
Q 2413 4347 2016 4347 
Q 1606 4347 1331 4128 
Q 1050 3897 1050 3522 
Q 1050 3150 1350 2925 
Q 1494 2809 1722 2722 
Q 1984 2616 2022 2625 
z
M 1978 2209 
Q 922 1931 922 1216 
Q 922 775 1313 556 
Q 1606 391 2009 391 
Q 2575 391 2881 697 
Q 3106 922 3106 1250 
Q 3106 1594 2794 1850 
Q 2609 1994 2350 2100 
Q 2047 2222 1978 2209 
z
" transform="scale(0.015625)"/>
       </defs>
       <use xlink:href="#IPAexGothic-38"/>
       <use xlink:href="#IPAexGothic-30" x="62.988281"/>
      </g>
     </g>
    </g>
    <g id="ytick_12">
     <g id="line2d_22">
      <g>
       <use xlink:href="#m903bcdbdab" x="201.992727" y="33.571459" style="stroke: #000000; stroke-width: 0.8"/>
      </g>
     </g>
     <g id="text_17">
      <!-- 100 -->
      <g transform="translate(176.097415 37.316772)scale(0.1 -0.1)">
       <use xlink:href="#IPAexGothic-31"/>
       <use xlink:href="#IPAexGothic-30" x="62.988281"/>
       <use xlink:href="#IPAexGothic-30" x="125.976562"/>
      </g>
     </g>
    </g>
   </g>
   <g id="patch_230">
    <path d="M 201.992727 273.312 
L 201.992727 7.2 
" style="fill: none; stroke: #000000; stroke-width: 0.8; stroke-linejoin: miter; stroke-linecap: square"/>
   </g>
   <g id="patch_231">
    <path d="M 201.992727 273.312 
L 364.32 273.312 
" style="fill: none; stroke: #000000; stroke-width: 0.8; stroke-linejoin: miter; stroke-linecap: square"/>
   </g>
   <g id="text_18">
    <!-- 女 -->
    <g transform="translate(344.562975 26.379243)scale(0.1 -0.1)">
     <defs>
      <path id="IPAexGothic-5973" d="M 1869 1659 
Q 1816 1553 1600 1172 
L 1159 1353 
Q 1744 2413 2088 3266 
L 481 3266 
L 481 3700 
L 2259 3700 
Q 2538 4419 2741 5197 
L 3228 5081 
Q 2988 4238 2778 3700 
L 5916 3700 
L 5916 3266 
L 4822 3266 
Q 4813 3253 4813 3222 
Q 4575 2003 3950 1166 
Q 4828 731 5800 169 
L 5403 -266 
Q 4622 263 3631 809 
Q 2672 -53 788 -331 
L 519 103 
Q 2313 322 3194 1031 
Q 2678 1300 2003 1603 
L 1869 1659 
z
M 2056 2031 
L 2228 1953 
Q 2947 1659 3522 1372 
Q 3534 1397 3547 1409 
Q 4050 2063 4309 3209 
L 4328 3266 
L 2613 3266 
Q 2378 2666 2056 2031 
z
" transform="scale(0.015625)"/>
     </defs>
     <use xlink:href="#IPAexGothic-5973"/>
    </g>
   </g>
   <g id="text_19">
    <!-- 歳 -->
    <g transform="translate(184.284298 26.379243)scale(0.1 -0.1)">
     <defs>
      <path id="IPAexGothic-6b73" d="M 4263 2547 
Q 4366 1616 4619 1088 
Q 4981 1606 5209 2259 
L 5613 2125 
Q 5328 1313 4850 697 
Q 5222 134 5459 134 
Q 5566 134 5663 953 
L 6059 684 
Q 5959 59 5881 -128 
Q 5775 -384 5572 -384 
Q 5416 -384 5138 -194 
Q 4788 47 4556 366 
Q 4084 -125 3475 -453 
L 3178 -116 
Q 3831 206 4325 728 
Q 3994 1366 3831 2528 
L 1241 2528 
L 1241 2138 
Q 1241 1109 1119 538 
Q 994 -53 641 -513 
L 288 -178 
Q 794 413 794 1791 
L 794 2900 
L 3794 2900 
L 3781 3022 
Q 3778 3059 3766 3225 
Q 3756 3363 3750 3469 
L 484 3469 
L 484 3847 
L 1509 3847 
L 1509 4884 
L 1963 4884 
L 1963 3847 
L 2963 3847 
L 2963 5313 
L 3422 5313 
L 3422 4750 
L 5203 4750 
L 5203 4391 
L 3422 4391 
L 3422 3847 
L 5906 3847 
L 5906 3469 
L 4888 3469 
Q 5131 3344 5472 3078 
L 5228 2919 
L 5913 2919 
L 5913 2547 
L 4263 2547 
z
M 4222 2919 
L 5022 2919 
Q 4831 3094 4497 3278 
L 4778 3469 
L 4191 3469 
Q 4206 3116 4222 2919 
z
M 2834 1663 
L 2834 91 
Q 2834 -353 2394 -353 
Q 2225 -353 1969 -319 
L 1906 91 
Q 2075 44 2291 44 
Q 2419 44 2419 184 
L 2419 1663 
L 1388 1663 
L 1388 2022 
L 3781 2022 
L 3781 1663 
L 2834 1663 
z
M 1272 250 
Q 1588 747 1713 1434 
L 2116 1325 
Q 1956 503 1625 -25 
L 1272 250 
z
M 3428 403 
Q 3263 944 3025 1275 
L 3372 1447 
Q 3641 1100 3813 622 
L 3428 403 
z
" transform="scale(0.015625)"/>
     </defs>
     <use xlink:href="#IPAexGothic-6b73"/>
    </g>
   </g>
   <g id="text_20">
    <!-- 万人 -->
    <g transform="translate(342.184463 297.286054)scale(0.1 -0.1)">
     <defs>
      <path id="IPAexGothic-4e07" d="M 2888 4316 
Q 2878 3816 2828 3128 
L 5369 3128 
Q 5284 984 5056 300 
Q 4950 -22 4750 -134 
Q 4556 -250 4181 -250 
Q 3659 -250 3091 -159 
L 3028 363 
Q 3638 225 4103 225 
Q 4456 225 4569 463 
Q 4797 906 4866 2700 
L 2784 2700 
Q 2534 575 934 -391 
L 591 -6 
Q 1900 716 2216 2200 
Q 2394 3041 2394 4316 
L 506 4316 
L 506 4756 
L 5888 4756 
L 5888 4316 
L 2888 4316 
z
" transform="scale(0.015625)"/>
      <path id="IPAexGothic-4eba" d="M 3434 5081 
L 3434 4659 
Q 3434 3131 4050 2069 
Q 4669 994 6022 275 
L 5644 -197 
Q 4359 588 3641 1863 
Q 3394 2300 3225 3009 
Q 2822 766 819 -325 
L 441 97 
Q 1856 759 2438 1972 
Q 2919 2959 2919 4634 
L 2919 5081 
L 3434 5081 
z
" transform="scale(0.015625)"/>
     </defs>
     <use xlink:href="#IPAexGothic-4e07"/>
     <use xlink:href="#IPAexGothic-4eba" x="100"/>
    </g>
   </g>
  </g>
 </g>
 <defs>
  <clipPath id="p9d0a81bd1b">
   <rect x="7.2" y="7.2" width="162.327273" height="266.112"/>
  </clipPath>
  <clipPath id="pfe2d0eec5f">
   <rect x="201.992727" y="7.2" width="162.327273" height="266.112"/>
  </clipPath>
 </defs>
</svg>
