<?xml version="1.0" encoding="utf-8" standalone="no"?>
<!DOCTYPE svg PUBLIC "-//W3C//DTD SVG 1.1//EN"
  "http://www.w3.org/Graphics/SVG/1.1/DTD/svg11.dtd">
<svg xmlns:xlink="http://www.w3.org/1999/xlink" width="416.310625pt" height="296.902625pt" viewBox="0 0 416.310625 296.902625" xmlns="http://www.w3.org/2000/svg" version="1.1">
 <metadata>
  <rdf:RDF xmlns:dc="http://purl.org/dc/elements/1.1/" xmlns:cc="http://creativecommons.org/ns#" xmlns:rdf="http://www.w3.org/1999/02/22-rdf-syntax-ns#">
   <cc:Work>
    <dc:type rdf:resource="http://purl.org/dc/dcmitype/StillImage"/>
    <dc:date>2022-06-26T09:29:01.575935</dc:date>
    <dc:format>image/svg+xml</dc:format>
    <dc:creator>
     <cc:Agent>
      <dc:title>Matplotlib v3.5.2, https://matplotlib.org/</dc:title>
     </cc:Agent>
    </dc:creator>
   </cc:Work>
  </rdf:RDF>
 </metadata>
 <defs>
  <style type="text/css">*{stroke-linejoin: round; stroke-linecap: butt}</style>
 </defs>
 <g id="figure_1">
  <g id="patch_1">
   <path d="M 0 296.902625 
L 416.310625 296.902625 
L 416.310625 0 
L 0 0 
z
" style="fill: #ffffff"/>
  </g>
  <g id="axes_1">
   <g id="patch_2">
    <path d="M 51.990625 273.312 
L 409.110625 273.312 
L 409.110625 7.2 
L 51.990625 7.2 
z
" style="fill: #ffffff"/>
   </g>
   <g id="matplotlib.axis_1">
    <g id="xtick_1">
     <g id="line2d_1">
      <defs>
       <path id="me6d85482ce" d="M 0 0 
L 0 3.5 
" style="stroke: #000000; stroke-width: 0.8"/>
      </defs>
      <g>
       <use xlink:href="#me6d85482ce" x="87.320678" y="273.312" style="stroke: #000000; stroke-width: 0.8"/>
      </g>
     </g>
     <g id="text_1">
      <!-- 20 -->
      <g transform="translate(81.022241 287.802625)scale(0.1 -0.1)">
       <defs>
        <path id="IPAexGothic-32" d="M 3659 63 
L 447 63 
L 447 594 
Q 825 1475 1894 2203 
L 2072 2322 
Q 2619 2697 2791 2906 
Q 2988 3153 2988 3444 
Q 2988 3772 2756 4003 
Q 2500 4259 2084 4259 
Q 1250 4259 991 3328 
L 497 3506 
Q 853 4725 2116 4725 
Q 2806 4725 3216 4316 
Q 3575 3947 3575 3425 
Q 3575 3038 3344 2722 
Q 3131 2416 2366 1938 
L 2231 1856 
Q 1256 1253 978 569 
L 3659 569 
L 3659 63 
z
" transform="scale(0.015625)"/>
        <path id="IPAexGothic-30" d="M 2038 4725 
Q 2881 4725 3334 3944 
Q 3694 3325 3694 2344 
Q 3694 1372 3334 741 
Q 2888 -31 2016 -31 
Q 1147 -31 700 741 
Q 341 1372 341 2350 
Q 341 3713 1000 4334 
Q 1419 4725 2038 4725 
z
M 2016 4266 
Q 1516 4266 1228 3759 
Q 934 3247 934 2344 
Q 934 1456 1222 947 
Q 1513 447 2016 447 
Q 2619 447 2909 1153 
Q 3100 1622 3100 2375 
Q 3100 3256 2806 3759 
Q 2509 4266 2016 4266 
z
" transform="scale(0.015625)"/>
       </defs>
       <use xlink:href="#IPAexGothic-32"/>
       <use xlink:href="#IPAexGothic-30" x="62.988281"/>
      </g>
     </g>
    </g>
    <g id="xtick_2">
     <g id="line2d_2">
      <g>
       <use xlink:href="#me6d85482ce" x="163.709983" y="273.312" style="stroke: #000000; stroke-width: 0.8"/>
      </g>
     </g>
     <g id="text_2">
      <!-- 40 -->
      <g transform="translate(157.411546 287.802625)scale(0.1 -0.1)">
       <defs>
        <path id="IPAexGothic-34" d="M 3813 1159 
L 3059 1159 
L 3059 63 
L 2547 63 
L 2547 1159 
L 197 1159 
L 197 1672 
L 2456 4678 
L 3059 4678 
L 3059 1634 
L 3813 1634 
L 3813 1159 
z
M 2578 4109 
L 2559 4109 
Q 2278 3656 2003 3284 
L 759 1634 
L 2547 1634 
L 2547 3144 
Q 2547 3481 2578 4109 
z
" transform="scale(0.015625)"/>
       </defs>
       <use xlink:href="#IPAexGothic-34"/>
       <use xlink:href="#IPAexGothic-30" x="62.988281"/>
      </g>
     </g>
    </g>
    <g id="xtick_3">
     <g id="line2d_3">
      <g>
       <use xlink:href="#me6d85482ce" x="240.099288" y="273.312" style="stroke: #000000; stroke-width: 0.8"/>
      </g>
     </g>
     <g id="text_3">
      <!-- 60 -->
      <g transform="translate(233.800851 287.802625)scale(0.1 -0.1)">
       <defs>
        <path id="IPAexGothic-36" d="M 1056 2328 
Q 1509 2981 2234 2981 
Q 2906 2981 3316 2513 
Q 3675 2106 3675 1522 
Q 3675 884 3272 434 
Q 2853 -31 2178 -31 
Q 1375 -31 922 581 
Q 481 1178 481 2228 
Q 481 3425 1013 4109 
Q 1494 4725 2272 4725 
Q 3191 4725 3609 4025 
L 3150 3775 
Q 2894 4266 2300 4266 
Q 1119 4266 1031 2328 
L 1056 2328 
z
M 2141 2547 
Q 1684 2547 1384 2206 
Q 1116 1900 1116 1541 
Q 1116 1156 1353 844 
Q 1672 428 2159 428 
Q 2669 428 2941 844 
Q 3125 1128 3125 1503 
Q 3125 1944 2881 2228 
Q 2600 2547 2141 2547 
z
" transform="scale(0.015625)"/>
       </defs>
       <use xlink:href="#IPAexGothic-36"/>
       <use xlink:href="#IPAexGothic-30" x="62.988281"/>
      </g>
     </g>
    </g>
    <g id="xtick_4">
     <g id="line2d_4">
      <g>
       <use xlink:href="#me6d85482ce" x="316.488593" y="273.312" style="stroke: #000000; stroke-width: 0.8"/>
      </g>
     </g>
     <g id="text_4">
      <!-- 80 -->
      <g transform="translate(310.190155 287.802625)scale(0.1 -0.1)">
       <defs>
        <path id="IPAexGothic-38" d="M 2541 2425 
Q 3700 2031 3700 1197 
Q 3700 541 3100 197 
Q 2663 -56 2016 -56 
Q 1366 -56 928 197 
Q 347 531 347 1178 
Q 347 1988 1409 2381 
L 1409 2400 
Q 481 2734 481 3509 
Q 481 4100 981 4456 
Q 1406 4756 2019 4756 
Q 2703 4756 3131 4403 
Q 3553 4069 3553 3566 
Q 3553 2706 2541 2444 
L 2541 2425 
z
M 2022 2625 
Q 2997 2856 2997 3528 
Q 2997 3916 2675 4150 
Q 2413 4347 2016 4347 
Q 1606 4347 1331 4128 
Q 1050 3897 1050 3522 
Q 1050 3150 1350 2925 
Q 1494 2809 1722 2722 
Q 1984 2616 2022 2625 
z
M 1978 2209 
Q 922 1931 922 1216 
Q 922 775 1313 556 
Q 1606 391 2009 391 
Q 2575 391 2881 697 
Q 3106 922 3106 1250 
Q 3106 1594 2794 1850 
Q 2609 1994 2350 2100 
Q 2047 2222 1978 2209 
z
" transform="scale(0.015625)"/>
       </defs>
       <use xlink:href="#IPAexGothic-38"/>
       <use xlink:href="#IPAexGothic-30" x="62.988281"/>
      </g>
     </g>
    </g>
    <g id="xtick_5">
     <g id="line2d_5">
      <g>
       <use xlink:href="#me6d85482ce" x="392.877898" y="273.312" style="stroke: #000000; stroke-width: 0.8"/>
      </g>
     </g>
     <g id="text_5">
      <!-- 100 -->
      <g transform="translate(383.430241 287.802625)scale(0.1 -0.1)">
       <defs>
        <path id="IPAexGothic-31" d="M 2463 63 
L 1900 63 
L 1900 4103 
Q 1372 3922 788 3797 
L 684 4231 
Q 1519 4441 2106 4731 
L 2463 4731 
L 2463 63 
z
" transform="scale(0.015625)"/>
       </defs>
       <use xlink:href="#IPAexGothic-31"/>
       <use xlink:href="#IPAexGothic-30" x="62.988281"/>
       <use xlink:href="#IPAexGothic-30" x="125.976562"/>
      </g>
     </g>
    </g>
   </g>
   <g id="matplotlib.axis_2">
    <g id="ytick_1">
     <g id="line2d_6">
      <defs>
       <path id="mfad8aec2e7" d="M 0 0 
L -3.5 0 
" style="stroke: #000000; stroke-width: 0.8"/>
      </defs>
      <g>
       <use xlink:href="#mfad8aec2e7" x="51.990625" y="273.312" style="stroke: #000000; stroke-width: 0.8"/>
      </g>
     </g>
     <g id="text_6">
      <!-- 0 -->
      <g transform="translate(38.692188 277.057312)scale(0.1 -0.1)">
       <use xlink:href="#IPAexGothic-30"/>
      </g>
     </g>
    </g>
    <g id="ytick_2">
     <g id="line2d_7">
      <g>
       <use xlink:href="#mfad8aec2e7" x="51.990625" y="233.888" style="stroke: #000000; stroke-width: 0.8"/>
      </g>
     </g>
     <g id="text_7">
      <!-- 20000 -->
      <g transform="translate(13.498438 237.633312)scale(0.1 -0.1)">
       <use xlink:href="#IPAexGothic-32"/>
       <use xlink:href="#IPAexGothic-30" x="62.988281"/>
       <use xlink:href="#IPAexGothic-30" x="125.976562"/>
       <use xlink:href="#IPAexGothic-30" x="188.964844"/>
       <use xlink:href="#IPAexGothic-30" x="251.953125"/>
      </g>
     </g>
    </g>
    <g id="ytick_3">
     <g id="line2d_8">
      <g>
       <use xlink:href="#mfad8aec2e7" x="51.990625" y="194.464" style="stroke: #000000; stroke-width: 0.8"/>
      </g>
     </g>
     <g id="text_8">
      <!-- 40000 -->
      <g transform="translate(13.498438 198.209312)scale(0.1 -0.1)">
       <use xlink:href="#IPAexGothic-34"/>
       <use xlink:href="#IPAexGothic-30" x="62.988281"/>
       <use xlink:href="#IPAexGothic-30" x="125.976562"/>
       <use xlink:href="#IPAexGothic-30" x="188.964844"/>
       <use xlink:href="#IPAexGothic-30" x="251.953125"/>
      </g>
     </g>
    </g>
    <g id="ytick_4">
     <g id="line2d_9">
      <g>
       <use xlink:href="#mfad8aec2e7" x="51.990625" y="155.04" style="stroke: #000000; stroke-width: 0.8"/>
      </g>
     </g>
     <g id="text_9">
      <!-- 60000 -->
      <g transform="translate(13.498438 158.785312)scale(0.1 -0.1)">
       <use xlink:href="#IPAexGothic-36"/>
       <use xlink:href="#IPAexGothic-30" x="62.988281"/>
       <use xlink:href="#IPAexGothic-30" x="125.976562"/>
       <use xlink:href="#IPAexGothic-30" x="188.964844"/>
       <use xlink:href="#IPAexGothic-30" x="251.953125"/>
      </g>
     </g>
    </g>
    <g id="ytick_5">
     <g id="line2d_10">
      <g>
       <use xlink:href="#mfad8aec2e7" x="51.990625" y="115.616" style="stroke: #000000; stroke-width: 0.8"/>
      </g>
     </g>
     <g id="text_10">
      <!-- 80000 -->
      <g transform="translate(13.498438 119.361312)scale(0.1 -0.1)">
       <use xlink:href="#IPAexGothic-38"/>
       <use xlink:href="#IPAexGothic-30" x="62.988281"/>
       <use xlink:href="#IPAexGothic-30" x="125.976562"/>
       <use xlink:href="#IPAexGothic-30" x="188.964844"/>
       <use xlink:href="#IPAexGothic-30" x="251.953125"/>
      </g>
     </g>
    </g>
    <g id="ytick_6">
     <g id="line2d_11">
      <g>
       <use xlink:href="#mfad8aec2e7" x="51.990625" y="76.192" style="stroke: #000000; stroke-width: 0.8"/>
      </g>
     </g>
     <g id="text_11">
      <!-- 100000 -->
      <g transform="translate(7.2 79.937312)scale(0.1 -0.1)">
       <use xlink:href="#IPAexGothic-31"/>
       <use xlink:href="#IPAexGothic-30" x="62.988281"/>
       <use xlink:href="#IPAexGothic-30" x="125.976562"/>
       <use xlink:href="#IPAexGothic-30" x="188.964844"/>
       <use xlink:href="#IPAexGothic-30" x="251.953125"/>
       <use xlink:href="#IPAexGothic-30" x="314.941406"/>
      </g>
     </g>
    </g>
    <g id="ytick_7">
     <g id="line2d_12">
      <g>
       <use xlink:href="#mfad8aec2e7" x="51.990625" y="36.768" style="stroke: #000000; stroke-width: 0.8"/>
      </g>
     </g>
     <g id="text_12">
      <!-- 120000 -->
      <g transform="translate(7.2 40.513312)scale(0.1 -0.1)">
       <use xlink:href="#IPAexGothic-31"/>
       <use xlink:href="#IPAexGothic-32" x="62.988281"/>
       <use xlink:href="#IPAexGothic-30" x="125.976562"/>
       <use xlink:href="#IPAexGothic-30" x="188.964844"/>
       <use xlink:href="#IPAexGothic-30" x="251.953125"/>
       <use xlink:href="#IPAexGothic-30" x="314.941406"/>
      </g>
     </g>
    </g>
   </g>
   <g id="line2d_13">
    <path d="M 68.223352 273.310029 
L 87.320678 273.252864 
L 106.418005 273.097139 
L 125.515331 272.744294 
L 144.612657 271.999181 
L 163.709983 270.725786 
L 182.807309 268.218419 
L 201.904636 265.841152 
L 221.001962 263.189888 
L 240.099288 258.703437 
L 259.196614 247.794816 
L 278.293941 231.6704 
L 297.391267 221.991808 
L 316.488593 215.743104 
L 335.585919 223.34208 
L 354.683245 251.622886 
L 373.780572 269.99447 
L 392.877898 273.13065 
" clip-path="url(#p48bef36172)" style="fill: none; stroke: #1f77b4; stroke-width: 1.5; stroke-linecap: square"/>
    <defs>
     <path id="m0c09449338" d="M 0 3 
C 0.795609 3 1.55874 2.683901 2.12132 2.12132 
C 2.683901 1.55874 3 0.795609 3 0 
C 3 -0.795609 2.683901 -1.55874 2.12132 -2.12132 
C 1.55874 -2.683901 0.795609 -3 0 -3 
C -0.795609 -3 -1.55874 -2.683901 -2.12132 -2.12132 
C -2.683901 -1.55874 -3 -0.795609 -3 0 
C -3 0.795609 -2.683901 1.55874 -2.12132 2.12132 
C -1.55874 2.683901 -0.795609 3 0 3 
z
" style="stroke: #1f77b4"/>
    </defs>
    <g clip-path="url(#p48bef36172)">
     <use xlink:href="#m0c09449338" x="68.223352" y="273.310029" style="fill: #1f77b4; stroke: #1f77b4"/>
     <use xlink:href="#m0c09449338" x="87.320678" y="273.252864" style="fill: #1f77b4; stroke: #1f77b4"/>
     <use xlink:href="#m0c09449338" x="106.418005" y="273.097139" style="fill: #1f77b4; stroke: #1f77b4"/>
     <use xlink:href="#m0c09449338" x="125.515331" y="272.744294" style="fill: #1f77b4; stroke: #1f77b4"/>
     <use xlink:href="#m0c09449338" x="144.612657" y="271.999181" style="fill: #1f77b4; stroke: #1f77b4"/>
     <use xlink:href="#m0c09449338" x="163.709983" y="270.725786" style="fill: #1f77b4; stroke: #1f77b4"/>
     <use xlink:href="#m0c09449338" x="182.807309" y="268.218419" style="fill: #1f77b4; stroke: #1f77b4"/>
     <use xlink:href="#m0c09449338" x="201.904636" y="265.841152" style="fill: #1f77b4; stroke: #1f77b4"/>
     <use xlink:href="#m0c09449338" x="221.001962" y="263.189888" style="fill: #1f77b4; stroke: #1f77b4"/>
     <use xlink:href="#m0c09449338" x="240.099288" y="258.703437" style="fill: #1f77b4; stroke: #1f77b4"/>
     <use xlink:href="#m0c09449338" x="259.196614" y="247.794816" style="fill: #1f77b4; stroke: #1f77b4"/>
     <use xlink:href="#m0c09449338" x="278.293941" y="231.6704" style="fill: #1f77b4; stroke: #1f77b4"/>
     <use xlink:href="#m0c09449338" x="297.391267" y="221.991808" style="fill: #1f77b4; stroke: #1f77b4"/>
     <use xlink:href="#m0c09449338" x="316.488593" y="215.743104" style="fill: #1f77b4; stroke: #1f77b4"/>
     <use xlink:href="#m0c09449338" x="335.585919" y="223.34208" style="fill: #1f77b4; stroke: #1f77b4"/>
     <use xlink:href="#m0c09449338" x="354.683245" y="251.622886" style="fill: #1f77b4; stroke: #1f77b4"/>
     <use xlink:href="#m0c09449338" x="373.780572" y="269.99447" style="fill: #1f77b4; stroke: #1f77b4"/>
     <use xlink:href="#m0c09449338" x="392.877898" y="273.13065" style="fill: #1f77b4; stroke: #1f77b4"/>
    </g>
   </g>
   <g id="line2d_14">
    <path d="M 68.223352 272.44073 
L 87.320678 272.036634 
L 106.418005 272.147021 
L 125.515331 272.251494 
L 144.612657 271.869082 
L 163.709983 271.25801 
L 182.807309 270.284237 
L 201.904636 269.785523 
L 221.001962 269.811149 
L 240.099288 269.706675 
L 259.196614 268.506214 
L 278.293941 266.566554 
L 297.391267 265.616435 
L 316.488593 263.731968 
L 335.585919 259.15287 
L 354.683245 258.904499 
L 373.780572 266.057984 
L 392.877898 271.668019 
" clip-path="url(#p48bef36172)" style="fill: none; stroke: #ff7f0e; stroke-width: 1.5; stroke-linecap: square"/>
    <defs>
     <path id="m13b293c7ac" d="M -3 3 
L 3 3 
L 3 -3 
L -3 -3 
z
" style="stroke: #ff7f0e; stroke-linejoin: miter"/>
    </defs>
    <g clip-path="url(#p48bef36172)">
     <use xlink:href="#m13b293c7ac" x="68.223352" y="272.44073" style="fill: #ff7f0e; stroke: #ff7f0e; stroke-linejoin: miter"/>
     <use xlink:href="#m13b293c7ac" x="87.320678" y="272.036634" style="fill: #ff7f0e; stroke: #ff7f0e; stroke-linejoin: miter"/>
     <use xlink:href="#m13b293c7ac" x="106.418005" y="272.147021" style="fill: #ff7f0e; stroke: #ff7f0e; stroke-linejoin: miter"/>
     <use xlink:href="#m13b293c7ac" x="125.515331" y="272.251494" style="fill: #ff7f0e; stroke: #ff7f0e; stroke-linejoin: miter"/>
     <use xlink:href="#m13b293c7ac" x="144.612657" y="271.869082" style="fill: #ff7f0e; stroke: #ff7f0e; stroke-linejoin: miter"/>
     <use xlink:href="#m13b293c7ac" x="163.709983" y="271.25801" style="fill: #ff7f0e; stroke: #ff7f0e; stroke-linejoin: miter"/>
     <use xlink:href="#m13b293c7ac" x="182.807309" y="270.284237" style="fill: #ff7f0e; stroke: #ff7f0e; stroke-linejoin: miter"/>
     <use xlink:href="#m13b293c7ac" x="201.904636" y="269.785523" style="fill: #ff7f0e; stroke: #ff7f0e; stroke-linejoin: miter"/>
     <use xlink:href="#m13b293c7ac" x="221.001962" y="269.811149" style="fill: #ff7f0e; stroke: #ff7f0e; stroke-linejoin: miter"/>
     <use xlink:href="#m13b293c7ac" x="240.099288" y="269.706675" style="fill: #ff7f0e; stroke: #ff7f0e; stroke-linejoin: miter"/>
     <use xlink:href="#m13b293c7ac" x="259.196614" y="268.506214" style="fill: #ff7f0e; stroke: #ff7f0e; stroke-linejoin: miter"/>
     <use xlink:href="#m13b293c7ac" x="278.293941" y="266.566554" style="fill: #ff7f0e; stroke: #ff7f0e; stroke-linejoin: miter"/>
     <use xlink:href="#m13b293c7ac" x="297.391267" y="265.616435" style="fill: #ff7f0e; stroke: #ff7f0e; stroke-linejoin: miter"/>
     <use xlink:href="#m13b293c7ac" x="316.488593" y="263.731968" style="fill: #ff7f0e; stroke: #ff7f0e; stroke-linejoin: miter"/>
     <use xlink:href="#m13b293c7ac" x="335.585919" y="259.15287" style="fill: #ff7f0e; stroke: #ff7f0e; stroke-linejoin: miter"/>
     <use xlink:href="#m13b293c7ac" x="354.683245" y="258.904499" style="fill: #ff7f0e; stroke: #ff7f0e; stroke-linejoin: miter"/>
     <use xlink:href="#m13b293c7ac" x="373.780572" y="266.057984" style="fill: #ff7f0e; stroke: #ff7f0e; stroke-linejoin: miter"/>
     <use xlink:href="#m13b293c7ac" x="392.877898" y="271.668019" style="fill: #ff7f0e; stroke: #ff7f0e; stroke-linejoin: miter"/>
    </g>
   </g>
   <g id="line2d_15">
    <path d="M 87.320678 273.310029 
L 106.418005 273.308058 
L 125.515331 273.302144 
L 144.612657 273.29623 
L 163.709983 273.260749 
L 182.807309 273.172045 
L 201.904636 272.947328 
L 221.001962 272.428902 
L 240.099288 271.155507 
L 259.196614 267.096806 
L 278.293941 255.665818 
L 297.391267 231.130291 
L 316.488593 175.367014 
L 335.585919 74.841728 
L 354.683245 16.413389 
L 373.780572 109.690573 
L 392.877898 225.500544 
" clip-path="url(#p48bef36172)" style="fill: none; stroke: #2ca02c; stroke-width: 1.5; stroke-linecap: square"/>
    <defs>
     <path id="mf4c2159437" d="M 0 -3 
L -3 3 
L 3 3 
z
" style="stroke: #2ca02c; stroke-linejoin: miter"/>
    </defs>
    <g clip-path="url(#p48bef36172)">
     <use xlink:href="#mf4c2159437" x="87.320678" y="273.310029" style="fill: #2ca02c; stroke: #2ca02c; stroke-linejoin: miter"/>
     <use xlink:href="#mf4c2159437" x="106.418005" y="273.308058" style="fill: #2ca02c; stroke: #2ca02c; stroke-linejoin: miter"/>
     <use xlink:href="#mf4c2159437" x="125.515331" y="273.302144" style="fill: #2ca02c; stroke: #2ca02c; stroke-linejoin: miter"/>
     <use xlink:href="#mf4c2159437" x="144.612657" y="273.29623" style="fill: #2ca02c; stroke: #2ca02c; stroke-linejoin: miter"/>
     <use xlink:href="#mf4c2159437" x="163.709983" y="273.260749" style="fill: #2ca02c; stroke: #2ca02c; stroke-linejoin: miter"/>
     <use xlink:href="#mf4c2159437" x="182.807309" y="273.172045" style="fill: #2ca02c; stroke: #2ca02c; stroke-linejoin: miter"/>
     <use xlink:href="#mf4c2159437" x="201.904636" y="272.947328" style="fill: #2ca02c; stroke: #2ca02c; stroke-linejoin: miter"/>
     <use xlink:href="#mf4c2159437" x="221.001962" y="272.428902" style="fill: #2ca02c; stroke: #2ca02c; stroke-linejoin: miter"/>
     <use xlink:href="#mf4c2159437" x="240.099288" y="271.155507" style="fill: #2ca02c; stroke: #2ca02c; stroke-linejoin: miter"/>
     <use xlink:href="#mf4c2159437" x="259.196614" y="267.096806" style="fill: #2ca02c; stroke: #2ca02c; stroke-linejoin: miter"/>
     <use xlink:href="#mf4c2159437" x="278.293941" y="255.665818" style="fill: #2ca02c; stroke: #2ca02c; stroke-linejoin: miter"/>
     <use xlink:href="#mf4c2159437" x="297.391267" y="231.130291" style="fill: #2ca02c; stroke: #2ca02c; stroke-linejoin: miter"/>
     <use xlink:href="#mf4c2159437" x="316.488593" y="175.367014" style="fill: #2ca02c; stroke: #2ca02c; stroke-linejoin: miter"/>
     <use xlink:href="#mf4c2159437" x="335.585919" y="74.841728" style="fill: #2ca02c; stroke: #2ca02c; stroke-linejoin: miter"/>
     <use xlink:href="#mf4c2159437" x="354.683245" y="16.413389" style="fill: #2ca02c; stroke: #2ca02c; stroke-linejoin: miter"/>
     <use xlink:href="#mf4c2159437" x="373.780572" y="109.690573" style="fill: #2ca02c; stroke: #2ca02c; stroke-linejoin: miter"/>
     <use xlink:href="#mf4c2159437" x="392.877898" y="225.500544" style="fill: #2ca02c; stroke: #2ca02c; stroke-linejoin: miter"/>
    </g>
   </g>
   <g id="line2d_16">
    <path d="M 68.223352 273.308058 
L 87.320678 273.27849 
L 106.418005 273.203584 
L 125.515331 273.097139 
L 144.612657 272.86848 
L 163.709983 272.371738 
L 182.807309 271.297434 
L 201.904636 270.639053 
L 221.001962 270.041779 
L 240.099288 269.131085 
L 259.196614 266.515302 
L 278.293941 262.099814 
L 297.391267 260.71209 
L 316.488593 259.797453 
L 335.585919 258.784256 
L 354.683245 260.307994 
L 373.780572 266.410829 
L 392.877898 271.853312 
" clip-path="url(#p48bef36172)" style="fill: none; stroke: #d62728; stroke-width: 1.5; stroke-linecap: square"/>
    <defs>
     <path id="m0c3ff72cde" d="M -0 3 
L 3 -3 
L -3 -3 
z
" style="stroke: #d62728; stroke-linejoin: miter"/>
    </defs>
    <g clip-path="url(#p48bef36172)">
     <use xlink:href="#m0c3ff72cde" x="68.223352" y="273.308058" style="fill: #d62728; stroke: #d62728; stroke-linejoin: miter"/>
     <use xlink:href="#m0c3ff72cde" x="87.320678" y="273.27849" style="fill: #d62728; stroke: #d62728; stroke-linejoin: miter"/>
     <use xlink:href="#m0c3ff72cde" x="106.418005" y="273.203584" style="fill: #d62728; stroke: #d62728; stroke-linejoin: miter"/>
     <use xlink:href="#m0c3ff72cde" x="125.515331" y="273.097139" style="fill: #d62728; stroke: #d62728; stroke-linejoin: miter"/>
     <use xlink:href="#m0c3ff72cde" x="144.612657" y="272.86848" style="fill: #d62728; stroke: #d62728; stroke-linejoin: miter"/>
     <use xlink:href="#m0c3ff72cde" x="163.709983" y="272.371738" style="fill: #d62728; stroke: #d62728; stroke-linejoin: miter"/>
     <use xlink:href="#m0c3ff72cde" x="182.807309" y="271.297434" style="fill: #d62728; stroke: #d62728; stroke-linejoin: miter"/>
     <use xlink:href="#m0c3ff72cde" x="201.904636" y="270.639053" style="fill: #d62728; stroke: #d62728; stroke-linejoin: miter"/>
     <use xlink:href="#m0c3ff72cde" x="221.001962" y="270.041779" style="fill: #d62728; stroke: #d62728; stroke-linejoin: miter"/>
     <use xlink:href="#m0c3ff72cde" x="240.099288" y="269.131085" style="fill: #d62728; stroke: #d62728; stroke-linejoin: miter"/>
     <use xlink:href="#m0c3ff72cde" x="259.196614" y="266.515302" style="fill: #d62728; stroke: #d62728; stroke-linejoin: miter"/>
     <use xlink:href="#m0c3ff72cde" x="278.293941" y="262.099814" style="fill: #d62728; stroke: #d62728; stroke-linejoin: miter"/>
     <use xlink:href="#m0c3ff72cde" x="297.391267" y="260.71209" style="fill: #d62728; stroke: #d62728; stroke-linejoin: miter"/>
     <use xlink:href="#m0c3ff72cde" x="316.488593" y="259.797453" style="fill: #d62728; stroke: #d62728; stroke-linejoin: miter"/>
     <use xlink:href="#m0c3ff72cde" x="335.585919" y="258.784256" style="fill: #d62728; stroke: #d62728; stroke-linejoin: miter"/>
     <use xlink:href="#m0c3ff72cde" x="354.683245" y="260.307994" style="fill: #d62728; stroke: #d62728; stroke-linejoin: miter"/>
     <use xlink:href="#m0c3ff72cde" x="373.780572" y="266.410829" style="fill: #d62728; stroke: #d62728; stroke-linejoin: miter"/>
     <use xlink:href="#m0c3ff72cde" x="392.877898" y="271.853312" style="fill: #d62728; stroke: #d62728; stroke-linejoin: miter"/>
    </g>
   </g>
   <g id="patch_3">
    <path d="M 51.990625 273.312 
L 51.990625 7.2 
" style="fill: none; stroke: #000000; stroke-width: 0.8; stroke-linejoin: miter; stroke-linecap: square"/>
   </g>
   <g id="patch_4">
    <path d="M 409.110625 273.312 
L 409.110625 7.2 
" style="fill: none; stroke: #000000; stroke-width: 0.8; stroke-linejoin: miter; stroke-linecap: square"/>
   </g>
   <g id="patch_5">
    <path d="M 51.990625 273.312 
L 409.110625 273.312 
" style="fill: none; stroke: #000000; stroke-width: 0.8; stroke-linejoin: miter; stroke-linecap: square"/>
   </g>
   <g id="patch_6">
    <path d="M 51.990625 7.2 
L 409.110625 7.2 
" style="fill: none; stroke: #000000; stroke-width: 0.8; stroke-linejoin: miter; stroke-linecap: square"/>
   </g>
   <g id="legend_1">
    <g id="patch_7">
     <path d="M 58.990625 72.7625 
L 130.990625 72.7625 
Q 132.990625 72.7625 132.990625 70.7625 
L 132.990625 14.2 
Q 132.990625 12.2 130.990625 12.2 
L 58.990625 12.2 
Q 56.990625 12.2 56.990625 14.2 
L 56.990625 70.7625 
Q 56.990625 72.7625 58.990625 72.7625 
z
" style="fill: #ffffff; opacity: 0.8; stroke: #cccccc; stroke-linejoin: miter"/>
    </g>
    <g id="line2d_17">
     <path d="M 60.990625 20.190625 
L 70.990625 20.190625 
L 80.990625 20.190625 
" style="fill: none; stroke: #1f77b4; stroke-width: 1.5; stroke-linecap: square"/>
     <g>
      <use xlink:href="#m0c09449338" x="70.990625" y="20.190625" style="fill: #1f77b4; stroke: #1f77b4"/>
     </g>
    </g>
    <g id="text_13">
     <!-- 女有配偶 -->
     <g transform="translate(88.990625 23.690625)scale(0.1 -0.1)">
      <defs>
       <path id="IPAexGothic-5973" d="M 1869 1659 
Q 1816 1553 1600 1172 
L 1159 1353 
Q 1744 2413 2088 3266 
L 481 3266 
L 481 3700 
L 2259 3700 
Q 2538 4419 2741 5197 
L 3228 5081 
Q 2988 4238 2778 3700 
L 5916 3700 
L 5916 3266 
L 4822 3266 
Q 4813 3253 4813 3222 
Q 4575 2003 3950 1166 
Q 4828 731 5800 169 
L 5403 -266 
Q 4622 263 3631 809 
Q 2672 -53 788 -331 
L 519 103 
Q 2313 322 3194 1031 
Q 2678 1300 2003 1603 
L 1869 1659 
z
M 2056 2031 
L 2228 1953 
Q 2947 1659 3522 1372 
Q 3534 1397 3547 1409 
Q 4050 2063 4309 3209 
L 4328 3266 
L 2613 3266 
Q 2378 2666 2056 2031 
z
" transform="scale(0.015625)"/>
       <path id="IPAexGothic-6709" d="M 2353 3334 
L 5197 3334 
L 5197 103 
Q 5197 -178 5088 -288 
Q 4966 -409 4584 -409 
Q 4113 -409 3684 -366 
L 3634 109 
Q 4109 13 4513 13 
Q 4750 13 4750 250 
L 4750 941 
L 2238 941 
L 2238 -447 
L 1784 -447 
L 1784 2438 
Q 1241 1734 581 1247 
L 288 1613 
Q 1616 2578 2163 3988 
L 509 3988 
L 509 4391 
L 2309 4391 
Q 2453 4866 2538 5300 
L 2988 5256 
Q 2884 4778 2769 4391 
L 5953 4391 
L 5953 3988 
L 2634 3988 
Q 2516 3650 2353 3334 
z
M 2238 2950 
L 2238 2328 
L 4750 2328 
L 4750 2950 
L 2238 2950 
z
M 2238 1950 
L 2238 1313 
L 4750 1313 
L 4750 1950 
L 2238 1950 
z
" transform="scale(0.015625)"/>
       <path id="IPAexGothic-914d" d="M 1294 3731 
L 1294 4513 
L 372 4513 
L 372 4903 
L 3341 4903 
L 3341 4513 
L 2400 4513 
L 2400 3731 
L 3200 3731 
L 3200 -416 
L 2791 -416 
L 2791 -159 
L 953 -159 
L 953 -447 
L 544 -447 
L 544 3731 
L 1294 3731 
z
M 1672 3731 
L 2028 3731 
L 2028 4513 
L 1672 4513 
L 1672 3731 
z
M 2028 3372 
L 1659 3372 
Q 1659 3316 1659 3291 
Q 1650 2203 1250 1509 
L 966 1794 
Q 1272 2316 1319 3372 
L 953 3372 
L 953 1313 
L 2791 1313 
L 2791 1894 
L 2394 1894 
Q 2028 1894 2028 2247 
L 2028 3372 
z
M 2381 3372 
L 2381 2375 
Q 2381 2234 2522 2234 
L 2791 2234 
L 2791 3372 
L 2381 3372 
z
M 953 941 
L 953 219 
L 2791 219 
L 2791 941 
L 953 941 
z
M 4072 2497 
L 4072 409 
Q 4072 250 4163 197 
Q 4281 134 4756 134 
Q 5334 134 5475 206 
Q 5653 291 5672 1300 
L 6122 1184 
Q 6063 106 5891 -94 
Q 5769 -253 5463 -275 
Q 5172 -300 4725 -300 
Q 4056 -300 3856 -203 
Q 3644 -109 3644 263 
L 3644 2900 
L 5372 2900 
L 5372 4500 
L 3534 4500 
L 3534 4903 
L 5788 4903 
L 5788 2144 
L 5372 2144 
L 5372 2497 
L 4072 2497 
z
" transform="scale(0.015625)"/>
       <path id="IPAexGothic-5076" d="M 4666 1094 
Q 4544 1359 4416 1569 
L 4763 1703 
Q 5103 1181 5319 584 
L 4963 391 
L 4928 469 
L 4897 563 
Q 4813 763 4806 781 
Q 3834 578 2663 494 
L 2553 903 
Q 3291 956 3669 988 
L 3669 1831 
L 2406 1831 
L 2406 -447 
L 1966 -447 
L 1966 2203 
L 3669 2203 
L 3669 2663 
L 2288 2663 
L 2288 5019 
L 5563 5019 
L 5563 2663 
L 4084 2663 
L 4084 2203 
L 5916 2203 
L 5916 84 
Q 5916 -359 5416 -359 
Q 5028 -359 4525 -325 
L 4456 122 
Q 4969 63 5281 63 
Q 5475 63 5475 275 
L 5475 1831 
L 4084 1831 
L 4084 1025 
L 4256 1044 
L 4666 1094 
z
M 2716 4659 
L 2716 4038 
L 3669 4038 
L 3669 4659 
L 2716 4659 
z
M 2716 3684 
L 2716 3022 
L 3669 3022 
L 3669 3684 
L 2716 3684 
z
M 5128 3022 
L 5128 3684 
L 4084 3684 
L 4084 3022 
L 5128 3022 
z
M 5128 4038 
L 5128 4659 
L 4084 4659 
L 4084 4038 
L 5128 4038 
z
M 1403 3647 
L 1403 -447 
L 975 -447 
L 975 2753 
Q 722 2300 425 1900 
L 206 2309 
Q 1072 3553 1497 5306 
L 1916 5184 
Q 1700 4372 1403 3647 
z
" transform="scale(0.015625)"/>
      </defs>
      <use xlink:href="#IPAexGothic-5973"/>
      <use xlink:href="#IPAexGothic-6709" x="100"/>
      <use xlink:href="#IPAexGothic-914d" x="200"/>
      <use xlink:href="#IPAexGothic-5076" x="300"/>
     </g>
    </g>
    <g id="line2d_18">
     <path d="M 60.990625 34.58125 
L 70.990625 34.58125 
L 80.990625 34.58125 
" style="fill: none; stroke: #ff7f0e; stroke-width: 1.5; stroke-linecap: square"/>
     <g>
      <use xlink:href="#m13b293c7ac" x="70.990625" y="34.58125" style="fill: #ff7f0e; stroke: #ff7f0e; stroke-linejoin: miter"/>
     </g>
    </g>
    <g id="text_14">
     <!-- 女未婚 -->
     <g transform="translate(88.990625 38.08125)scale(0.1 -0.1)">
      <defs>
       <path id="IPAexGothic-672a" d="M 3656 2438 
Q 4506 1213 6094 378 
L 5744 -91 
Q 4197 894 3413 2131 
L 3413 -450 
L 2938 -450 
L 2938 2078 
Q 2191 694 684 -213 
L 341 203 
Q 1834 981 2725 2438 
L 447 2438 
L 447 2853 
L 2938 2853 
L 2938 3903 
L 959 3903 
L 959 4319 
L 2938 4319 
L 2938 5309 
L 3413 5309 
L 3413 4319 
L 5434 4319 
L 5434 3903 
L 3413 3903 
L 3413 2853 
L 5947 2853 
L 5947 2438 
L 3656 2438 
z
" transform="scale(0.015625)"/>
       <path id="IPAexGothic-5a5a" d="M 2534 4019 
Q 2428 2238 1991 1209 
Q 2369 928 2706 628 
L 2450 238 
Q 2097 581 1813 825 
Q 1400 56 756 -500 
L 453 -134 
Q 1063 331 1478 1094 
Q 1188 1331 941 1503 
L 922 1428 
Q 856 1222 806 1069 
L 447 1228 
Q 819 2481 1000 3572 
L 1006 3616 
L 397 3616 
L 397 4019 
L 1075 4019 
Q 1166 4547 1275 5300 
L 1684 5203 
Q 1666 5084 1503 4019 
L 2534 4019 
z
M 2081 3616 
L 1434 3616 
Q 1288 2791 1044 1863 
Q 1366 1656 1650 1459 
Q 1984 2294 2081 3616 
z
M 2900 4788 
L 3091 4800 
Q 4200 4888 5369 5184 
L 5672 4825 
Q 5253 4725 4609 4616 
Q 4638 4263 4709 3956 
L 6009 3956 
L 6009 3591 
L 4819 3591 
Q 4963 3213 5253 2884 
Q 5422 2700 5497 2700 
Q 5647 2700 5753 3331 
L 6100 3063 
Q 5897 2231 5588 2231 
Q 5409 2231 5088 2494 
Q 4666 2847 4428 3550 
L 3322 3550 
L 3322 2731 
Q 3953 2872 4422 3013 
L 4453 2678 
Q 3600 2397 2619 2188 
L 2491 2566 
Q 2616 2588 2900 2641 
L 2900 4788 
z
M 4219 4556 
Q 3778 4491 3322 4463 
L 3322 3916 
L 4319 3916 
Q 4241 4300 4219 4556 
z
M 5644 2047 
L 5644 -447 
L 5228 -447 
L 5228 -159 
L 3378 -159 
L 3378 -447 
L 2956 -447 
L 2956 2047 
L 5644 2047 
z
M 3378 1675 
L 3378 1141 
L 5228 1141 
L 5228 1675 
L 3378 1675 
z
M 3378 781 
L 3378 213 
L 5228 213 
L 5228 781 
L 3378 781 
z
" transform="scale(0.015625)"/>
      </defs>
      <use xlink:href="#IPAexGothic-5973"/>
      <use xlink:href="#IPAexGothic-672a" x="100"/>
      <use xlink:href="#IPAexGothic-5a5a" x="200"/>
     </g>
    </g>
    <g id="line2d_19">
     <path d="M 60.990625 48.971875 
L 70.990625 48.971875 
L 80.990625 48.971875 
" style="fill: none; stroke: #2ca02c; stroke-width: 1.5; stroke-linecap: square"/>
     <g>
      <use xlink:href="#mf4c2159437" x="70.990625" y="48.971875" style="fill: #2ca02c; stroke: #2ca02c; stroke-linejoin: miter"/>
     </g>
    </g>
    <g id="text_15">
     <!-- 女死別 -->
     <g transform="translate(88.990625 52.471875)scale(0.1 -0.1)">
      <defs>
       <path id="IPAexGothic-6b7b" d="M 2134 1381 
Q 1691 1863 1256 2200 
Q 997 1788 616 1406 
L 309 1713 
Q 1325 2825 1584 4403 
L 1591 4441 
L 456 4441 
L 456 4856 
L 5947 4856 
L 5947 4441 
L 4053 4441 
L 4053 2431 
Q 4888 2881 5478 3456 
L 5894 3116 
Q 5109 2469 4053 1950 
L 4053 516 
Q 4053 275 4238 225 
Q 4378 194 4684 194 
Q 5428 194 5506 397 
Q 5575 591 5594 1325 
L 6088 1163 
Q 6050 141 5869 -56 
Q 5666 -281 4628 -281 
Q 4063 -281 3841 -166 
Q 3594 -41 3594 356 
L 3594 4441 
L 2050 4441 
Q 2041 4400 2031 4300 
Q 1978 4000 1838 3519 
L 3003 3519 
L 3266 3322 
Q 3028 1938 2472 1028 
Q 1906 119 738 -438 
L 419 -47 
Q 1541 413 2134 1381 
z
M 2356 1797 
Q 2647 2425 2759 3116 
L 1703 3116 
Q 1603 2844 1450 2534 
Q 1966 2188 2356 1797 
z
" transform="scale(0.015625)"/>
       <path id="IPAexGothic-5225" d="M 1922 2963 
Q 1906 2453 1894 2209 
L 3341 2209 
Q 3313 550 3175 63 
Q 3059 -366 2413 -366 
Q 2072 -366 1753 -313 
L 1691 134 
Q 2084 63 2413 63 
Q 2694 63 2759 319 
Q 2856 722 2888 1753 
Q 2888 1800 2894 1819 
L 1863 1819 
Q 1709 350 700 -481 
L 353 -147 
Q 1075 403 1306 1256 
Q 1450 1822 1478 2963 
L 700 2963 
L 700 4984 
L 3278 4984 
L 3278 2963 
L 1922 2963 
z
M 1141 4588 
L 1141 3353 
L 2838 3353 
L 2838 4588 
L 1141 4588 
z
M 3972 4597 
L 4425 4597 
L 4425 1159 
L 3972 1159 
L 3972 4597 
z
M 5309 5044 
L 5763 5044 
L 5763 191 
Q 5763 -141 5581 -263 
Q 5438 -359 5116 -359 
Q 4688 -359 4253 -313 
L 4156 178 
Q 4625 116 5072 116 
Q 5309 116 5309 353 
L 5309 5044 
z
" transform="scale(0.015625)"/>
      </defs>
      <use xlink:href="#IPAexGothic-5973"/>
      <use xlink:href="#IPAexGothic-6b7b" x="100"/>
      <use xlink:href="#IPAexGothic-5225" x="200"/>
     </g>
    </g>
    <g id="line2d_20">
     <path d="M 60.990625 63.3625 
L 70.990625 63.3625 
L 80.990625 63.3625 
" style="fill: none; stroke: #d62728; stroke-width: 1.5; stroke-linecap: square"/>
     <g>
      <use xlink:href="#m0c3ff72cde" x="70.990625" y="63.3625" style="fill: #d62728; stroke: #d62728; stroke-linejoin: miter"/>
     </g>
    </g>
    <g id="text_16">
     <!-- 女離別 -->
     <g transform="translate(88.990625 66.8625)scale(0.1 -0.1)">
      <defs>
       <path id="IPAexGothic-96e2" d="M 2219 881 
Q 2134 1103 1972 1381 
L 2291 1497 
Q 2578 1041 2756 488 
L 2413 300 
Q 2381 416 2322 613 
Q 1750 481 1003 384 
L 894 769 
Q 1128 778 1209 788 
Q 1297 1072 1425 1656 
L 838 1656 
L 838 -447 
L 428 -447 
L 428 2009 
L 1497 2009 
Q 1516 2116 1559 2419 
L 588 2419 
L 588 4109 
L 984 4109 
L 984 2772 
L 2656 2772 
L 2656 4109 
L 3053 4109 
L 3053 2419 
L 1972 2419 
Q 1925 2106 1906 2009 
L 3225 2009 
L 3225 56 
Q 3225 -219 3103 -300 
Q 3003 -384 2725 -384 
Q 2381 -384 2169 -359 
L 2119 56 
Q 2416 0 2631 0 
Q 2816 0 2816 197 
L 2816 1656 
L 1816 1656 
Q 1809 1616 1788 1525 
Q 1775 1469 1772 1444 
Q 1681 1081 1594 819 
L 1809 838 
Q 2084 859 2219 881 
z
M 5125 2419 
L 5125 1556 
L 5919 1556 
L 5919 1184 
L 5125 1184 
L 5125 275 
L 6103 275 
L 6103 -122 
L 4044 -122 
L 4044 -447 
L 3641 -447 
L 3641 3066 
Q 3466 2653 3306 2400 
L 3056 2725 
Q 3653 3759 3909 5259 
L 4319 5172 
Q 4181 4553 4038 4109 
L 4019 4044 
L 4747 4044 
Q 4947 4572 5066 5222 
L 5491 5113 
Q 5297 4428 5138 4044 
L 6041 4044 
L 6041 3659 
L 5125 3659 
L 5125 2791 
L 5919 2791 
L 5919 2419 
L 5125 2419 
z
M 4728 3659 
L 4044 3659 
L 4044 2791 
L 4728 2791 
L 4728 3659 
z
M 4728 2419 
L 4044 2419 
L 4044 1556 
L 4728 1556 
L 4728 2419 
z
M 4728 1184 
L 4044 1184 
L 4044 275 
L 4728 275 
L 4728 1184 
z
M 2022 4697 
L 3378 4697 
L 3378 4325 
L 281 4325 
L 281 4697 
L 1594 4697 
L 1594 5313 
L 2022 5313 
L 2022 4697 
z
M 1625 3481 
Q 1419 3625 1056 3834 
L 1291 4084 
Q 1541 3944 1863 3731 
Q 2025 3916 2181 4172 
L 2509 4000 
Q 2316 3728 2138 3531 
Q 2500 3238 2591 3163 
L 2353 2881 
Q 2094 3119 1894 3284 
Q 1634 3031 1297 2834 
L 1063 3097 
Q 1375 3259 1625 3481 
z
" transform="scale(0.015625)"/>
      </defs>
      <use xlink:href="#IPAexGothic-5973"/>
      <use xlink:href="#IPAexGothic-96e2" x="100"/>
      <use xlink:href="#IPAexGothic-5225" x="200"/>
     </g>
    </g>
   </g>
  </g>
 </g>
 <defs>
  <clipPath id="p48bef36172">
   <rect x="51.990625" y="7.2" width="357.12" height="266.112"/>
  </clipPath>
 </defs>
</svg>
