<?xml version="1.0" encoding="utf-8" standalone="no"?>
<!DOCTYPE svg PUBLIC "-//W3C//DTD SVG 1.1//EN"
  "http://www.w3.org/Graphics/SVG/1.1/DTD/svg11.dtd">
<svg xmlns:xlink="http://www.w3.org/1999/xlink" width="415.109062pt" height="311.03075pt" viewBox="0 0 415.109062 311.03075" xmlns="http://www.w3.org/2000/svg" version="1.1">
 <metadata>
  <rdf:RDF xmlns:dc="http://purl.org/dc/elements/1.1/" xmlns:cc="http://creativecommons.org/ns#" xmlns:rdf="http://www.w3.org/1999/02/22-rdf-syntax-ns#">
   <cc:Work>
    <dc:type rdf:resource="http://purl.org/dc/dcmitype/StillImage"/>
    <dc:date>2022-10-10T19:16:55.712859</dc:date>
    <dc:format>image/svg+xml</dc:format>
    <dc:creator>
     <cc:Agent>
      <dc:title>Matplotlib v3.6.1, https://matplotlib.org/</dc:title>
     </cc:Agent>
    </dc:creator>
   </cc:Work>
  </rdf:RDF>
 </metadata>
 <defs>
  <style type="text/css">*{stroke-linejoin: round; stroke-linecap: butt}</style>
 </defs>
 <g id="figure_1">
  <g id="patch_1">
   <path d="M 0 311.03075 
L 415.109062 311.03075 
L 415.109062 0 
L 0 0 
z
" style="fill: #ffffff"/>
  </g>
  <g id="axes_1">
   <g id="patch_2">
    <path d="M 50.789063 273.312 
L 407.909063 273.312 
L 407.909063 7.2 
L 50.789063 7.2 
z
" style="fill: #ffffff"/>
   </g>
   <g id="matplotlib.axis_1">
    <g id="xtick_1">
     <g id="line2d_1">
      <path d="M 67.02179 273.312 
L 67.02179 7.2 
" clip-path="url(#pc0ae81c767)" style="fill: none; stroke: #b0b0b0; stroke-width: 0.8; stroke-linecap: square"/>
     </g>
     <g id="line2d_2">
      <defs>
       <path id="m0e7d683f31" d="M 0 0 
L 0 3.5 
" style="stroke: #000000; stroke-width: 0.8"/>
      </defs>
      <g>
       <use xlink:href="#m0e7d683f31" x="67.02179" y="273.312" style="stroke: #000000; stroke-width: 0.8"/>
      </g>
     </g>
     <g id="text_1">
      <!-- 0 -->
      <g transform="translate(63.656946 288.021375) scale(0.1 -0.1)">
       <defs>
        <path id="HiraginoSans-W4-30" d="M 2144 -90 
C 2758 -90 3232 141 3565 602 
C 3846 998 4019 1696 4019 2464 
C 4019 3002 3936 3501 3770 3949 
C 3693 4160 3558 4371 3379 4550 
C 3078 4858 2650 5024 2157 5024 
C 1498 5024 986 4742 666 4205 
C 435 3834 288 3142 288 2458 
C 288 1939 371 1434 538 986 
C 614 768 749 563 928 384 
C 1242 70 1651 -90 2144 -90 
z
M 2144 4499 
C 2592 4499 2918 4307 3123 3923 
C 3283 3629 3398 3014 3398 2470 
C 3398 2022 3341 1619 3213 1235 
C 3155 1043 3046 870 2912 730 
C 2726 538 2458 435 2150 435 
C 1734 435 1414 614 1197 973 
C 1024 1261 902 1875 902 2451 
C 902 2906 966 3328 1088 3699 
C 1139 3866 1235 4026 1370 4173 
C 1568 4397 1818 4499 2144 4499 
z
" transform="scale(0.015625)"/>
       </defs>
       <use xlink:href="#HiraginoSans-W4-30"/>
      </g>
     </g>
    </g>
    <g id="xtick_2">
     <g id="line2d_3">
      <path d="M 128.860751 273.312 
L 128.860751 7.2 
" clip-path="url(#pc0ae81c767)" style="fill: none; stroke: #b0b0b0; stroke-width: 0.8; stroke-linecap: square"/>
     </g>
     <g id="line2d_4">
      <g>
       <use xlink:href="#m0e7d683f31" x="128.860751" y="273.312" style="stroke: #000000; stroke-width: 0.8"/>
      </g>
     </g>
     <g id="text_2">
      <!-- 20 -->
      <g transform="translate(122.131063 288.021375) scale(0.1 -0.1)">
       <defs>
        <path id="HiraginoSans-W4-32" d="M 3078 0 
C 3424 0 3642 -6 3917 -32 
L 3917 589 
C 3693 557 3430 544 3091 544 
L 1114 544 
C 1280 1114 1606 1478 2451 2042 
C 3181 2528 3341 2656 3546 2912 
C 3738 3142 3846 3443 3846 3744 
C 3846 4525 3200 5030 2202 5030 
C 1613 5030 1158 4858 858 4518 
C 640 4269 531 4026 442 3565 
L 1088 3469 
C 1139 3782 1190 3936 1306 4102 
C 1491 4371 1792 4506 2208 4506 
C 2816 4506 3206 4211 3206 3744 
C 3206 3360 2995 3085 2387 2675 
C 1754 2246 1600 2138 1389 1952 
C 979 1594 710 1229 544 806 
C 448 563 429 461 365 -26 
C 576 -6 678 0 1107 0 
L 3078 0 
z
" transform="scale(0.015625)"/>
       </defs>
       <use xlink:href="#HiraginoSans-W4-32"/>
       <use xlink:href="#HiraginoSans-W4-30" x="67.299988"/>
      </g>
     </g>
    </g>
    <g id="xtick_3">
     <g id="line2d_5">
      <path d="M 190.699712 273.312 
L 190.699712 7.2 
" clip-path="url(#pc0ae81c767)" style="fill: none; stroke: #b0b0b0; stroke-width: 0.8; stroke-linecap: square"/>
     </g>
     <g id="line2d_6">
      <g>
       <use xlink:href="#m0e7d683f31" x="190.699712" y="273.312" style="stroke: #000000; stroke-width: 0.8"/>
      </g>
     </g>
     <g id="text_3">
      <!-- 40 -->
      <g transform="translate(183.959868 288.021375) scale(0.1 -0.1)">
       <defs>
        <path id="HiraginoSans-W4-34" d="M 179 1210 
C 403 1229 589 1235 954 1235 
L 2688 1235 
L 2688 710 
C 2688 410 2675 218 2630 0 
L 3309 0 
C 3270 230 3258 390 3258 704 
L 3258 1235 
L 3494 1235 
C 3763 1235 3910 1222 4154 1190 
L 4154 1798 
C 3917 1766 3750 1754 3494 1754 
L 3258 1754 
L 3258 3853 
C 3258 4358 3264 4544 3296 4934 
L 2701 4934 
C 2560 4704 2445 4550 2214 4269 
L 621 2298 
C 467 2099 326 1939 179 1773 
L 179 1210 
z
M 2688 1747 
L 858 1747 
L 2259 3514 
C 2464 3763 2592 3936 2720 4128 
C 2694 3814 2688 3622 2688 3283 
L 2688 1747 
z
" transform="scale(0.015625)"/>
       </defs>
       <use xlink:href="#HiraginoSans-W4-34"/>
       <use xlink:href="#HiraginoSans-W4-30" x="67.499985"/>
      </g>
     </g>
    </g>
    <g id="xtick_4">
     <g id="line2d_7">
      <path d="M 252.538673 273.312 
L 252.538673 7.2 
" clip-path="url(#pc0ae81c767)" style="fill: none; stroke: #b0b0b0; stroke-width: 0.8; stroke-linecap: square"/>
     </g>
     <g id="line2d_8">
      <g>
       <use xlink:href="#m0e7d683f31" x="252.538673" y="273.312" style="stroke: #000000; stroke-width: 0.8"/>
      </g>
     </g>
     <g id="text_4">
      <!-- 60 -->
      <g transform="translate(245.808985 288.021375) scale(0.1 -0.1)">
       <defs>
        <path id="HiraginoSans-W4-36" d="M 3846 3994 
C 3706 4301 3616 4442 3462 4602 
C 3187 4877 2784 5024 2304 5024 
C 1683 5024 1222 4794 864 4307 
C 557 3891 371 3162 371 2355 
C 371 1446 614 704 1043 320 
C 1331 58 1773 -90 2253 -90 
C 3277 -90 3968 589 3968 1587 
C 3968 2586 3334 3213 2323 3213 
C 1894 3213 1568 3104 1274 2854 
C 1133 2739 1062 2656 941 2458 
C 979 3085 1043 3392 1210 3763 
C 1434 4262 1798 4518 2285 4518 
C 2765 4518 3040 4314 3238 3821 
L 3846 3994 
z
M 2266 2714 
C 2950 2714 3366 2285 3366 1574 
C 3366 1325 3309 1088 3206 922 
C 3008 614 2643 422 2234 422 
C 1568 422 1069 915 1069 1574 
C 1069 2234 1574 2714 2266 2714 
z
" transform="scale(0.015625)"/>
       </defs>
       <use xlink:href="#HiraginoSans-W4-36"/>
       <use xlink:href="#HiraginoSans-W4-30" x="67.299988"/>
      </g>
     </g>
    </g>
    <g id="xtick_5">
     <g id="line2d_9">
      <path d="M 314.377634 273.312 
L 314.377634 7.2 
" clip-path="url(#pc0ae81c767)" style="fill: none; stroke: #b0b0b0; stroke-width: 0.8; stroke-linecap: square"/>
     </g>
     <g id="line2d_10">
      <g>
       <use xlink:href="#m0e7d683f31" x="314.377634" y="273.312" style="stroke: #000000; stroke-width: 0.8"/>
      </g>
     </g>
     <g id="text_5">
      <!-- 80 -->
      <g transform="translate(307.647946 288.021375) scale(0.1 -0.1)">
       <defs>
        <path id="HiraginoSans-W4-38" d="M 1446 2586 
C 1203 2547 1056 2490 851 2355 
C 480 2106 294 1754 294 1299 
C 294 397 966 -102 2163 -102 
C 3347 -102 4006 397 4006 1299 
C 4006 1728 3853 2061 3539 2304 
C 3322 2470 3136 2547 2867 2586 
C 3437 2714 3789 3162 3789 3757 
C 3789 4550 3162 5043 2150 5043 
C 1146 5043 512 4544 512 3750 
C 512 3162 877 2701 1446 2586 
z
M 2150 4538 
C 2784 4538 3187 4211 3187 3699 
C 3187 3155 2797 2829 2157 2829 
C 1510 2829 1114 3162 1114 3699 
C 1114 4211 1523 4538 2150 4538 
z
M 2157 2304 
C 2912 2304 3373 1939 3373 1344 
C 3373 749 2925 410 2144 410 
C 1376 410 928 749 928 1338 
C 928 1939 1389 2304 2157 2304 
z
" transform="scale(0.015625)"/>
       </defs>
       <use xlink:href="#HiraginoSans-W4-38"/>
       <use xlink:href="#HiraginoSans-W4-30" x="67.299988"/>
      </g>
     </g>
    </g>
    <g id="xtick_6">
     <g id="line2d_11">
      <path d="M 376.216595 273.312 
L 376.216595 7.2 
" clip-path="url(#pc0ae81c767)" style="fill: none; stroke: #b0b0b0; stroke-width: 0.8; stroke-linecap: square"/>
     </g>
     <g id="line2d_12">
      <g>
       <use xlink:href="#m0e7d683f31" x="376.216595" y="273.312" style="stroke: #000000; stroke-width: 0.8"/>
      </g>
     </g>
     <g id="text_6">
      <!-- 100 -->
      <g transform="translate(366.122064 288.021375) scale(0.1 -0.1)">
       <defs>
        <path id="HiraginoSans-W4-31" d="M 1018 4371 
C 1222 4397 1389 4410 1606 4410 
L 1939 4410 
L 1939 755 
C 1939 454 1926 237 1888 0 
L 2598 0 
C 2560 250 2547 448 2547 755 
L 2547 3904 
C 2547 4256 2566 4582 2605 4966 
C 2387 4941 2278 4934 2035 4934 
L 1581 4934 
C 1325 4934 1197 4941 1018 4966 
L 1018 4371 
z
" transform="scale(0.015625)"/>
       </defs>
       <use xlink:href="#HiraginoSans-W4-31"/>
       <use xlink:href="#HiraginoSans-W4-30" x="67.299988"/>
       <use xlink:href="#HiraginoSans-W4-30" x="134.599976"/>
      </g>
     </g>
    </g>
    <g id="text_7">
     <!-- 年齢 -->
     <g transform="translate(219.349063 301.78075) scale(0.1 -0.1)">
      <defs>
       <path id="HiraginoSans-W4-5e74" d="M 1446 1555 
L 1005 1555 
C 723 1555 531 1568 339 1594 
L 339 1056 
C 544 1082 730 1094 1005 1094 
L 3270 1094 
L 3270 115 
C 3270 -192 3264 -339 3232 -512 
L 3814 -512 
C 3782 -339 3770 -179 3770 109 
L 3770 1094 
L 5344 1094 
C 5613 1094 5811 1082 6010 1056 
L 6010 1594 
C 5818 1568 5632 1555 5344 1555 
L 3770 1555 
L 3770 2746 
L 4902 2746 
C 5158 2746 5318 2739 5485 2720 
L 5485 3219 
C 5312 3194 5165 3187 4890 3187 
L 3770 3187 
L 3770 4173 
L 5178 4173 
C 5453 4173 5594 4166 5773 4141 
L 5773 4646 
C 5606 4621 5459 4614 5178 4614 
L 2061 4614 
C 2093 4685 2093 4685 2144 4800 
C 2246 5024 2246 5024 2285 5101 
C 2323 5184 2336 5210 2368 5280 
L 1830 5414 
C 1798 5280 1754 5139 1670 4947 
C 1376 4256 1037 3802 397 3258 
C 557 3142 627 3066 749 2874 
C 1184 3258 1472 3616 1811 4173 
L 3270 4173 
L 3270 3187 
L 1882 3187 
C 1702 3187 1562 3194 1427 3206 
C 1440 3085 1446 2970 1446 2829 
L 1446 1555 
z
M 1939 1555 
L 1939 2746 
L 3270 2746 
L 3270 1555 
L 1939 1555 
z
" transform="scale(0.015625)"/>
       <path id="HiraginoSans-W4-9f62" d="M 934 2643 
C 934 2874 941 3078 960 3251 
L 493 3251 
C 518 3072 525 2893 525 2598 
L 525 211 
C 525 -141 518 -314 493 -512 
L 947 -512 
L 947 -192 
L 2822 -192 
L 2822 -448 
L 3270 -448 
C 3251 -250 3245 -102 3245 262 
L 3245 2643 
C 3245 2899 3251 3072 3270 3251 
L 2822 3251 
C 2835 3098 2842 2918 2842 2669 
L 2842 979 
C 2566 1222 2355 1510 2189 1850 
L 2445 1850 
C 2534 1850 2637 1843 2714 1830 
L 2714 2202 
C 2630 2189 2573 2182 2445 2182 
L 2067 2182 
L 2067 2758 
C 2067 2989 2074 3174 2086 3315 
L 1690 3315 
C 1709 3149 1715 2982 1715 2758 
L 1715 2182 
L 1344 2182 
C 1229 2182 1152 2189 1069 2202 
L 1069 1830 
C 1146 1843 1248 1850 1344 1850 
L 1581 1850 
C 1389 1427 1222 1190 934 934 
L 934 2643 
z
M 934 902 
C 1018 813 1069 742 1133 621 
C 1434 941 1555 1139 1741 1574 
C 1722 1254 1715 1024 1715 883 
L 1715 685 
C 1715 525 1709 467 1696 339 
L 2086 339 
C 2074 461 2067 512 2067 678 
L 2067 890 
C 2067 1120 2067 1197 2048 1587 
C 2227 1190 2381 947 2650 646 
C 2726 774 2784 864 2842 928 
L 2842 198 
L 934 198 
L 934 902 
z
M 2240 3872 
L 2240 4422 
L 2682 4422 
C 2918 4422 3040 4416 3200 4397 
L 3200 4813 
C 3034 4787 2925 4781 2682 4781 
L 2240 4781 
L 2240 4819 
C 2240 5056 2246 5178 2278 5344 
L 1773 5344 
C 1805 5158 1811 5030 1811 4742 
L 1811 3872 
L 1261 3872 
L 1261 4448 
C 1261 4742 1267 4819 1293 4998 
L 819 4998 
C 845 4826 851 4698 851 4448 
L 851 3872 
C 621 3872 531 3878 371 3910 
L 371 3443 
C 589 3462 704 3469 986 3469 
L 2797 3469 
C 2989 3469 3174 3462 3290 3450 
C 3366 3360 3418 3290 3494 3142 
C 3782 3411 3942 3597 4147 3885 
C 4371 4211 4486 4429 4659 4877 
C 5011 4109 5344 3667 6010 3098 
C 6093 3296 6144 3379 6266 3546 
C 5907 3802 5670 4038 5421 4384 
C 5197 4685 5024 4998 4902 5299 
L 4384 5299 
C 4211 4678 3821 4064 3322 3622 
L 3322 3904 
C 3162 3878 3053 3872 2803 3872 
L 2240 3872 
z
M 4141 2118 
L 4141 160 
C 4141 -205 4134 -352 4102 -538 
L 4634 -538 
C 4602 -371 4595 -198 4595 160 
L 4595 2118 
L 5434 2118 
L 5434 710 
C 5434 602 5402 570 5293 570 
C 5178 570 5011 589 4870 621 
C 4934 454 4954 346 4966 160 
C 5203 147 5235 147 5286 147 
C 5747 147 5882 256 5882 634 
L 5882 1965 
C 5882 2246 5888 2406 5907 2573 
C 5792 2554 5606 2547 5286 2547 
L 4090 2547 
C 3750 2547 3629 2554 3462 2579 
L 3462 2086 
C 3648 2112 3776 2118 4051 2118 
L 4141 2118 
z
M 1037 3072 
C 1190 2784 1248 2650 1331 2336 
L 1606 2483 
C 1517 2784 1453 2950 1318 3213 
L 1037 3072 
z
M 2438 3213 
C 2362 2893 2304 2726 2170 2483 
L 2432 2336 
C 2573 2598 2630 2752 2746 3078 
L 2438 3213 
z
M 3891 3078 
C 4038 3091 4128 3098 4410 3098 
L 4954 3098 
C 5248 3098 5312 3098 5453 3078 
L 5453 3520 
C 5312 3501 5235 3501 4941 3501 
L 4422 3501 
C 4115 3501 4058 3501 3891 3520 
L 3891 3078 
z
" transform="scale(0.015625)"/>
      </defs>
      <use xlink:href="#HiraginoSans-W4-5e74"/>
      <use xlink:href="#HiraginoSans-W4-9f62" x="99.999985"/>
     </g>
    </g>
   </g>
   <g id="matplotlib.axis_2">
    <g id="ytick_1">
     <g id="line2d_13">
      <path d="M 50.789063 261.45202 
L 407.909063 261.45202 
" clip-path="url(#pc0ae81c767)" style="fill: none; stroke: #b0b0b0; stroke-width: 0.8; stroke-linecap: square"/>
     </g>
     <g id="line2d_14">
      <defs>
       <path id="ma7cfd6a73c" d="M 0 0 
L -3.5 0 
" style="stroke: #000000; stroke-width: 0.8"/>
      </defs>
      <g>
       <use xlink:href="#ma7cfd6a73c" x="50.789063" y="261.45202" style="stroke: #000000; stroke-width: 0.8"/>
      </g>
     </g>
     <g id="text_8">
      <!-- 0.00 -->
      <g transform="translate(21.1 265.306707) scale(0.1 -0.1)">
       <defs>
        <path id="HiraginoSans-W4-2e" d="M 442 723 
L 442 0 
L 1165 0 
L 1165 723 
L 442 723 
z
" transform="scale(0.015625)"/>
       </defs>
       <use xlink:href="#HiraginoSans-W4-30"/>
       <use xlink:href="#HiraginoSans-W4-2e" x="67.299988"/>
       <use xlink:href="#HiraginoSans-W4-30" x="92.299973"/>
       <use xlink:href="#HiraginoSans-W4-30" x="159.59996"/>
      </g>
     </g>
    </g>
    <g id="ytick_2">
     <g id="line2d_15">
      <path d="M 50.789063 214.248117 
L 407.909063 214.248117 
" clip-path="url(#pc0ae81c767)" style="fill: none; stroke: #b0b0b0; stroke-width: 0.8; stroke-linecap: square"/>
     </g>
     <g id="line2d_16">
      <g>
       <use xlink:href="#ma7cfd6a73c" x="50.789063" y="214.248117" style="stroke: #000000; stroke-width: 0.8"/>
      </g>
     </g>
     <g id="text_9">
      <!-- 0.01 -->
      <g transform="translate(21.1 218.102805) scale(0.1 -0.1)">
       <use xlink:href="#HiraginoSans-W4-30"/>
       <use xlink:href="#HiraginoSans-W4-2e" x="67.299988"/>
       <use xlink:href="#HiraginoSans-W4-30" x="92.299973"/>
       <use xlink:href="#HiraginoSans-W4-31" x="159.59996"/>
      </g>
     </g>
    </g>
    <g id="ytick_3">
     <g id="line2d_17">
      <path d="M 50.789063 167.044215 
L 407.909063 167.044215 
" clip-path="url(#pc0ae81c767)" style="fill: none; stroke: #b0b0b0; stroke-width: 0.8; stroke-linecap: square"/>
     </g>
     <g id="line2d_18">
      <g>
       <use xlink:href="#ma7cfd6a73c" x="50.789063" y="167.044215" style="stroke: #000000; stroke-width: 0.8"/>
      </g>
     </g>
     <g id="text_10">
      <!-- 0.02 -->
      <g transform="translate(21.1 170.898902) scale(0.1 -0.1)">
       <use xlink:href="#HiraginoSans-W4-30"/>
       <use xlink:href="#HiraginoSans-W4-2e" x="67.299988"/>
       <use xlink:href="#HiraginoSans-W4-30" x="92.299973"/>
       <use xlink:href="#HiraginoSans-W4-32" x="159.59996"/>
      </g>
     </g>
    </g>
    <g id="ytick_4">
     <g id="line2d_19">
      <path d="M 50.789063 119.840312 
L 407.909063 119.840312 
" clip-path="url(#pc0ae81c767)" style="fill: none; stroke: #b0b0b0; stroke-width: 0.8; stroke-linecap: square"/>
     </g>
     <g id="line2d_20">
      <g>
       <use xlink:href="#ma7cfd6a73c" x="50.789063" y="119.840312" style="stroke: #000000; stroke-width: 0.8"/>
      </g>
     </g>
     <g id="text_11">
      <!-- 0.03 -->
      <g transform="translate(21.1 123.695) scale(0.1 -0.1)">
       <defs>
        <path id="HiraginoSans-W4-33" d="M 282 1101 
C 397 768 474 621 621 448 
C 934 90 1434 -96 2112 -96 
C 2720 -96 3213 70 3533 384 
C 3770 614 3904 954 3904 1306 
C 3904 1677 3802 1958 3597 2182 
C 3379 2419 3130 2528 2688 2586 
C 2995 2650 3130 2701 3290 2816 
C 3578 3021 3738 3366 3738 3757 
C 3738 4538 3117 5043 2157 5043 
C 1594 5043 1146 4883 845 4576 
C 666 4390 582 4237 467 3891 
L 1107 3757 
C 1171 3981 1216 4083 1306 4192 
C 1478 4416 1741 4525 2125 4525 
C 2746 4525 3110 4224 3110 3725 
C 3110 3482 3021 3264 2867 3110 
C 2669 2918 2374 2829 1965 2829 
C 1779 2829 1613 2842 1459 2861 
L 1459 2272 
C 1651 2298 1811 2310 2003 2310 
C 2829 2310 3264 1990 3264 1376 
C 3264 794 2816 429 2106 429 
C 1779 429 1510 506 1293 666 
C 1107 800 1024 928 928 1248 
L 282 1101 
z
" transform="scale(0.015625)"/>
       </defs>
       <use xlink:href="#HiraginoSans-W4-30"/>
       <use xlink:href="#HiraginoSans-W4-2e" x="67.299988"/>
       <use xlink:href="#HiraginoSans-W4-30" x="92.299973"/>
       <use xlink:href="#HiraginoSans-W4-33" x="159.59996"/>
      </g>
     </g>
    </g>
    <g id="ytick_5">
     <g id="line2d_21">
      <path d="M 50.789063 72.63641 
L 407.909063 72.63641 
" clip-path="url(#pc0ae81c767)" style="fill: none; stroke: #b0b0b0; stroke-width: 0.8; stroke-linecap: square"/>
     </g>
     <g id="line2d_22">
      <g>
       <use xlink:href="#ma7cfd6a73c" x="50.789063" y="72.63641" style="stroke: #000000; stroke-width: 0.8"/>
      </g>
     </g>
     <g id="text_12">
      <!-- 0.04 -->
      <g transform="translate(21.079688 76.491097) scale(0.1 -0.1)">
       <use xlink:href="#HiraginoSans-W4-30"/>
       <use xlink:href="#HiraginoSans-W4-2e" x="67.299988"/>
       <use xlink:href="#HiraginoSans-W4-30" x="92.299973"/>
       <use xlink:href="#HiraginoSans-W4-34" x="159.59996"/>
      </g>
     </g>
    </g>
    <g id="ytick_6">
     <g id="line2d_23">
      <path d="M 50.789063 25.432507 
L 407.909063 25.432507 
" clip-path="url(#pc0ae81c767)" style="fill: none; stroke: #b0b0b0; stroke-width: 0.8; stroke-linecap: square"/>
     </g>
     <g id="line2d_24">
      <g>
       <use xlink:href="#ma7cfd6a73c" x="50.789063" y="25.432507" style="stroke: #000000; stroke-width: 0.8"/>
      </g>
     </g>
     <g id="text_13">
      <!-- 0.05 -->
      <g transform="translate(21.1 29.287195) scale(0.1 -0.1)">
       <defs>
        <path id="HiraginoSans-W4-35" d="M 1331 4416 
L 2835 4416 
C 3155 4416 3366 4403 3622 4365 
L 3622 4986 
C 3360 4947 3206 4934 2829 4934 
L 1446 4934 
C 1082 4934 954 4941 762 4966 
C 774 4768 774 4762 774 4742 
C 774 4563 774 4518 749 4307 
L 608 2822 
C 589 2566 570 2445 518 2157 
L 1088 2106 
C 1146 2240 1178 2291 1261 2374 
C 1485 2605 1811 2739 2131 2739 
C 2842 2739 3264 2317 3264 1613 
C 3264 902 2803 435 2106 435 
C 1747 435 1440 563 1235 794 
C 1146 902 1101 986 1037 1171 
L 410 1005 
C 557 685 646 544 813 378 
C 1133 64 1562 -96 2099 -96 
C 3194 -96 3885 576 3885 1638 
C 3885 2605 3245 3238 2272 3238 
C 1830 3238 1472 3098 1158 2803 
C 1197 2982 1197 2982 1203 3091 
L 1331 4416 
z
" transform="scale(0.015625)"/>
       </defs>
       <use xlink:href="#HiraginoSans-W4-30"/>
       <use xlink:href="#HiraginoSans-W4-2e" x="67.299988"/>
       <use xlink:href="#HiraginoSans-W4-30" x="92.299973"/>
       <use xlink:href="#HiraginoSans-W4-35" x="159.59996"/>
      </g>
     </g>
    </g>
    <g id="text_14">
     <!-- 死亡数/10万 -->
     <g transform="translate(15.029688 169.420844) rotate(-90) scale(0.1 -0.1)">
      <defs>
       <path id="HiraginoSans-W4-6b7b" d="M 1229 2163 
C 1555 1920 1754 1734 2048 1395 
C 1626 742 1133 301 371 -109 
C 518 -218 602 -307 723 -506 
C 1504 -38 2061 499 2477 1190 
C 2848 1792 3053 2394 3162 3168 
C 3168 3213 3174 3251 3174 3277 
C 3194 3379 3194 3379 3200 3437 
L 2970 3680 
C 2842 3667 2720 3661 2477 3661 
L 1798 3661 
C 1907 3962 1965 4173 2054 4570 
L 5350 4570 
C 5606 4570 5850 4557 6054 4531 
L 6054 5050 
C 5850 5024 5606 5011 5350 5011 
L 1056 5011 
C 781 5011 570 5024 352 5050 
L 352 4531 
C 563 4557 781 4570 1005 4570 
L 1555 4570 
C 1459 4109 1382 3859 1235 3507 
C 979 2899 678 2464 243 2086 
C 378 1952 435 1869 538 1677 
C 1043 2163 1325 2566 1626 3232 
L 2707 3232 
C 2605 2605 2509 2278 2298 1830 
C 2048 2074 1811 2278 1504 2509 
L 1229 2163 
z
M 4134 1997 
C 4787 2310 5242 2592 5760 3008 
C 5901 3117 5901 3117 5997 3187 
L 5638 3603 
C 5370 3258 4800 2842 4134 2496 
L 4134 3738 
C 4134 3981 4147 4173 4173 4365 
L 3622 4365 
C 3648 4192 3654 4045 3654 3782 
L 3654 134 
C 3654 -301 3808 -371 4787 -371 
C 5952 -371 6029 -294 6131 998 
C 5971 1030 5818 1088 5651 1197 
C 5626 589 5594 365 5523 243 
C 5446 115 5299 83 4781 83 
C 4448 83 4250 102 4186 141 
C 4147 160 4134 192 4134 275 
L 4134 1997 
z
" transform="scale(0.015625)"/>
       <path id="HiraginoSans-W4-4ea1" d="M 2918 4115 
L 1082 4115 
C 755 4115 550 4128 346 4160 
L 346 3597 
C 525 3622 762 3635 1082 3635 
L 1299 3635 
L 1299 666 
C 1299 275 1402 51 1632 -51 
C 1901 -179 2246 -211 3238 -211 
C 4243 -211 4243 -211 5702 -122 
L 5696 416 
C 5030 320 4307 282 3181 282 
C 2458 282 2138 307 1971 371 
C 1862 416 1824 499 1824 691 
L 1824 3635 
L 5331 3635 
C 5664 3635 5888 3622 6067 3597 
L 6067 4160 
C 5856 4128 5632 4115 5318 4115 
L 3443 4115 
L 3443 4730 
C 3443 4966 3456 5139 3488 5286 
L 2874 5286 
C 2906 5101 2918 4928 2918 4723 
L 2918 4115 
z
" transform="scale(0.015625)"/>
       <path id="HiraginoSans-W4-6570" d="M 6170 4173 
C 6003 4141 5862 4134 5568 4134 
L 4288 4134 
C 4365 4384 4435 4627 4512 4947 
C 4557 5126 4563 5152 4595 5235 
L 4077 5344 
C 4070 5158 4032 4934 3974 4672 
C 3782 3853 3437 3130 2995 2598 
C 3142 2509 3226 2438 3354 2291 
C 3526 2515 3610 2643 3770 2931 
C 3904 2176 4070 1702 4397 1158 
C 4013 653 3526 275 2803 -77 
C 2944 -218 3021 -326 3110 -506 
C 3776 -141 4256 250 4666 755 
C 5069 230 5485 -141 6035 -467 
C 6138 -237 6202 -128 6317 13 
C 5747 314 5338 653 4954 1158 
C 5171 1523 5325 1875 5440 2304 
C 5562 2739 5613 3078 5651 3699 
C 5920 3699 6035 3693 6170 3667 
L 6170 4173 
z
M 5184 3699 
C 5133 2797 4992 2214 4672 1600 
C 4358 2170 4192 2707 4064 3539 
C 4096 3610 4102 3629 4128 3699 
L 5184 3699 
z
M 3046 339 
C 2752 512 2656 570 2419 685 
C 2643 992 2746 1190 2880 1626 
L 2963 1626 
C 3187 1626 3309 1619 3443 1594 
L 3443 2067 
C 3328 2042 3206 2035 2989 2035 
L 1862 2035 
C 1926 2176 1958 2234 2029 2426 
L 1562 2528 
C 1485 2285 1453 2202 1382 2035 
L 832 2035 
C 608 2035 493 2042 365 2067 
L 365 1594 
C 499 1619 614 1626 832 1626 
L 1165 1626 
C 1005 1344 941 1248 723 954 
C 1203 774 1402 691 1702 550 
C 1376 294 902 83 326 -58 
C 429 -205 493 -314 563 -480 
C 1325 -224 1715 -19 2112 346 
C 2432 173 2502 122 2778 -77 
L 3046 339 
z
M 2419 1626 
C 2310 1306 2214 1120 2022 870 
C 1818 960 1709 1005 1357 1146 
C 1504 1370 1549 1440 1651 1626 
L 2419 1626 
z
M 2163 4070 
L 2163 4902 
C 2163 5075 2170 5203 2189 5325 
L 1696 5325 
C 1722 5184 1728 5075 1728 4896 
L 1728 4070 
L 915 4070 
C 666 4070 531 4077 390 4102 
L 390 3642 
C 518 3667 678 3674 902 3674 
L 1434 3674 
C 1133 3258 864 3034 269 2688 
C 410 2566 486 2477 589 2317 
C 1184 2739 1408 2963 1747 3494 
C 1734 3366 1728 3258 1728 3162 
L 1728 2835 
C 1728 2752 1722 2662 1702 2586 
L 2182 2586 
C 2170 2662 2163 2758 2163 2848 
L 2163 3168 
C 2163 3258 2157 3347 2138 3494 
C 2355 3162 2490 3014 2848 2739 
C 2989 2970 3002 2982 3130 3110 
C 2816 3277 2566 3469 2406 3674 
L 2989 3674 
C 3200 3674 3309 3667 3418 3648 
L 3418 4096 
C 3322 4077 3200 4070 2995 4070 
L 2163 4070 
z
M 570 5056 
C 774 4768 896 4550 1024 4211 
L 1427 4371 
C 1286 4704 1190 4883 960 5210 
L 570 5056 
z
M 2918 5235 
C 2784 4883 2643 4634 2406 4333 
L 2790 4147 
C 3008 4442 3104 4608 3328 5050 
L 2918 5235 
z
" transform="scale(0.015625)"/>
       <path id="HiraginoSans-W4-2f" d="M 2432 4934 
L 122 -979 
L 691 -979 
L 2995 4934 
L 2432 4934 
z
" transform="scale(0.015625)"/>
       <path id="HiraginoSans-W4-4e07" d="M 2285 4467 
C 2259 3290 2144 2573 1875 1882 
C 1542 1050 1088 499 282 -58 
C 448 -179 557 -288 678 -474 
C 1229 -64 1568 282 1875 755 
C 2278 1370 2509 1978 2656 2829 
L 4845 2829 
C 4813 1882 4742 1152 4627 640 
C 4538 218 4454 134 4122 134 
C 3814 134 3526 166 2995 262 
C 3066 90 3098 -58 3117 -275 
C 3501 -320 3853 -346 4090 -346 
C 4666 -346 4902 -218 5050 186 
C 5197 608 5318 1594 5363 2765 
C 5376 3117 5382 3200 5402 3328 
C 5222 3302 5011 3296 4634 3296 
L 2726 3296 
C 2771 3680 2771 3680 2810 4467 
L 5344 4467 
C 5626 4467 5856 4454 6067 4429 
L 6067 4979 
C 5850 4954 5632 4941 5344 4941 
L 1094 4941 
C 806 4941 582 4954 371 4979 
L 371 4429 
C 582 4454 819 4467 1101 4467 
L 2285 4467 
z
" transform="scale(0.015625)"/>
      </defs>
      <use xlink:href="#HiraginoSans-W4-6b7b"/>
      <use xlink:href="#HiraginoSans-W4-4ea1" x="99.999985"/>
      <use xlink:href="#HiraginoSans-W4-6570" x="199.999969"/>
      <use xlink:href="#HiraginoSans-W4-2f" x="299.999954"/>
      <use xlink:href="#HiraginoSans-W4-31" x="348.699951"/>
      <use xlink:href="#HiraginoSans-W4-30" x="415.999939"/>
      <use xlink:href="#HiraginoSans-W4-4e07" x="483.299927"/>
     </g>
    </g>
   </g>
   <g id="line2d_25">
    <path d="M 67.02179 252.860909 
L 70.113738 260.36633 
L 73.205686 260.696757 
L 76.297634 260.932777 
L 79.389582 261.027184 
L 82.48153 261.074388 
L 85.573478 261.074388 
L 88.665426 261.121592 
L 91.757374 261.121592 
L 94.849322 261.168796 
L 97.94127 261.168796 
L 101.033218 261.121592 
L 104.125166 261.074388 
L 107.217114 260.97998 
L 110.309063 260.838369 
L 113.401011 260.649553 
L 116.492959 260.460738 
L 119.584907 260.224718 
L 122.676855 259.941495 
L 125.768803 259.705475 
L 128.860751 259.469456 
L 131.952699 259.28064 
L 135.044647 259.139028 
L 138.136595 259.091824 
L 141.228543 259.091824 
L 144.320491 259.139028 
L 147.412439 259.139028 
L 150.504387 259.091824 
L 153.596335 259.04462 
L 156.688283 259.04462 
L 159.780231 258.997417 
L 162.872179 258.950213 
L 165.964127 258.808601 
L 169.056075 258.619785 
L 172.148024 258.43097 
L 175.239972 258.289358 
L 178.33192 258.147746 
L 181.423868 257.958931 
L 184.515816 257.722911 
L 187.607764 257.439688 
L 190.699712 257.156464 
L 193.79166 256.873241 
L 196.883608 256.542814 
L 199.975556 256.117979 
L 203.067504 255.551532 
L 206.159452 254.890677 
L 209.2514 254.135415 
L 212.343348 253.332948 
L 215.435296 252.436074 
L 218.527244 251.491996 
L 221.619192 250.359102 
L 224.71114 249.131801 
L 227.803088 247.810092 
L 230.895037 246.441179 
L 233.986985 244.930654 
L 237.078933 243.420129 
L 240.170881 241.8624 
L 243.262829 240.16306 
L 246.354777 238.322107 
L 249.446725 236.245136 
L 252.538673 233.837737 
L 255.630621 231.288726 
L 258.722569 228.503696 
L 261.814517 225.52985 
L 264.906465 222.319984 
L 267.998413 218.732488 
L 271.090361 214.720156 
L 274.182309 210.377397 
L 277.274257 205.609803 
L 280.366205 200.37017 
L 283.458153 194.516886 
L 286.550101 188.333175 
L 289.64205 182.621502 
L 292.733998 177.381869 
L 295.825946 171.906217 
L 298.917894 165.675301 
L 302.009842 158.4059 
L 305.10179 150.334033 
L 308.193738 141.790127 
L 311.285686 133.576648 
L 314.377634 125.079945 
L 317.469582 115.922388 
L 320.56153 106.3872 
L 323.653478 96.663196 
L 326.745426 87.552843 
L 329.837374 79.433772 
L 332.929322 72.872429 
L 336.02127 67.868816 
L 339.113218 65.697436 
L 342.205166 67.68 
L 345.297114 74.241342 
L 348.389063 81.46354 
L 351.481011 93.736554 
L 354.572959 109.17223 
L 357.664907 126.920898 
L 360.756855 145.991274 
L 363.848803 165.486486 
L 366.940751 184.320843 
L 370.032699 201.739083 
L 373.124647 216.985943 
L 376.216595 229.730997 
L 379.308543 239.879836 
L 382.400491 247.479664 
L 385.492439 252.908113 
L 388.584387 256.542814 
L 391.676335 256.401202 
" clip-path="url(#pc0ae81c767)" style="fill: none; stroke: #1f77b4; stroke-width: 1.5; stroke-linecap: square"/>
   </g>
   <g id="line2d_26">
    <path d="M 67.02179 253.899395 
L 70.113738 260.413534 
L 73.205686 260.743961 
L 76.297634 260.97998 
L 79.389582 261.121592 
L 82.48153 261.168796 
L 85.573478 261.168796 
L 88.665426 261.216 
L 91.757374 261.216 
L 94.849322 261.216 
L 97.94127 261.216 
L 101.033218 261.168796 
L 104.125166 261.121592 
L 107.217114 261.027184 
L 110.309063 260.932777 
L 113.401011 260.838369 
L 116.492959 260.743961 
L 119.584907 260.649553 
L 122.676855 260.602349 
L 125.768803 260.460738 
L 128.860751 260.319126 
L 131.952699 260.224718 
L 135.044647 260.177514 
L 138.136595 260.224718 
L 141.228543 260.271922 
L 144.320491 260.271922 
L 147.412439 260.224718 
L 150.504387 260.177514 
L 153.596335 260.13031 
L 156.688283 260.083106 
L 159.780231 260.083106 
L 162.872179 260.035902 
L 165.964127 259.941495 
L 169.056075 259.799883 
L 172.148024 259.705475 
L 175.239972 259.611067 
L 178.33192 259.563863 
L 181.423868 259.469456 
L 184.515816 259.28064 
L 187.607764 259.04462 
L 190.699712 258.808601 
L 193.79166 258.572581 
L 196.883608 258.289358 
L 199.975556 258.006135 
L 203.067504 257.722911 
L 206.159452 257.439688 
L 209.2514 257.062057 
L 212.343348 256.637221 
L 215.435296 256.117979 
L 218.527244 255.504328 
L 221.619192 254.890677 
L 224.71114 254.229822 
L 227.803088 253.616172 
L 230.895037 253.002521 
L 233.986985 252.436074 
L 237.078933 251.869627 
L 240.170881 251.30318 
L 243.262829 250.68953 
L 246.354777 250.075879 
L 249.446725 249.415024 
L 252.538673 248.565354 
L 255.630621 247.574072 
L 258.722569 246.441179 
L 261.814517 245.213877 
L 264.906465 243.939372 
L 267.998413 242.570459 
L 271.090361 240.871118 
L 274.182309 238.888554 
L 277.274257 236.717175 
L 280.366205 234.35698 
L 283.458153 231.807969 
L 286.550101 228.786919 
L 289.64205 225.435442 
L 292.733998 221.847945 
L 295.825946 217.835614 
L 298.917894 213.304039 
L 302.009842 208.206018 
L 305.10179 202.211122 
L 308.193738 195.41376 
L 311.285686 187.719524 
L 314.377634 178.750782 
L 317.469582 168.460332 
L 320.56153 156.895376 
L 323.653478 144.150322 
L 326.745426 130.602802 
L 329.837374 115.875184 
L 332.929322 100.203489 
L 336.02127 83.729327 
L 339.113218 67.727204 
L 342.205166 52.763567 
L 345.297114 40.537756 
L 348.389063 31.191383 
L 351.481011 23.544351 
L 354.572959 19.296 
L 357.664907 20.99534 
L 360.756855 30.766548 
L 363.848803 48.892847 
L 366.940751 72.683614 
L 370.032699 99.920265 
L 373.124647 128.337015 
L 376.216595 155.904094 
L 379.308543 181.01657 
L 382.400491 202.635957 
L 385.492439 220.290217 
L 388.584387 233.88494 
L 391.676335 220.431828 
" clip-path="url(#pc0ae81c767)" style="fill: none; stroke: #ff7f0e; stroke-width: 1.5; stroke-linecap: square"/>
   </g>
   <g id="patch_3">
    <path d="M 50.789063 273.312 
L 50.789063 7.2 
" style="fill: none; stroke: #000000; stroke-width: 0.8; stroke-linejoin: miter; stroke-linecap: square"/>
   </g>
   <g id="patch_4">
    <path d="M 407.909063 273.312 
L 407.909063 7.2 
" style="fill: none; stroke: #000000; stroke-width: 0.8; stroke-linejoin: miter; stroke-linecap: square"/>
   </g>
   <g id="patch_5">
    <path d="M 50.789063 273.312 
L 407.909063 273.312 
" style="fill: none; stroke: #000000; stroke-width: 0.8; stroke-linejoin: miter; stroke-linecap: square"/>
   </g>
   <g id="patch_6">
    <path d="M 50.789063 7.2 
L 407.909063 7.2 
" style="fill: none; stroke: #000000; stroke-width: 0.8; stroke-linejoin: miter; stroke-linecap: square"/>
   </g>
   <g id="legend_1">
    <g id="patch_7">
     <path d="M 57.789063 44.71875 
L 99.789062 44.71875 
Q 101.789062 44.71875 101.789062 42.71875 
L 101.789062 14.2 
Q 101.789062 12.2 99.789062 12.2 
L 57.789063 12.2 
Q 55.789063 12.2 55.789063 14.2 
L 55.789063 42.71875 
Q 55.789063 44.71875 57.789063 44.71875 
z
" style="fill: #ffffff; opacity: 0.8; stroke: #cccccc; stroke-linejoin: miter"/>
    </g>
    <g id="line2d_27">
     <path d="M 59.789063 20.409375 
L 69.789062 20.409375 
L 79.789062 20.409375 
" style="fill: none; stroke: #1f77b4; stroke-width: 1.5; stroke-linecap: square"/>
    </g>
    <g id="text_15">
     <!-- 男 -->
     <g transform="translate(87.789062 23.909375) scale(0.1 -0.1)">
      <defs>
       <path id="HiraginoSans-W4-7537" d="M 5114 1402 
C 5043 736 4986 410 4909 256 
C 4851 134 4762 102 4454 102 
C 4154 102 3872 128 3450 192 
C 3526 -6 3558 -134 3584 -314 
C 3994 -352 4173 -358 4410 -358 
C 4966 -358 5171 -294 5312 -83 
C 5440 115 5536 608 5632 1530 
C 5651 1741 5651 1741 5664 1850 
C 5414 1830 5242 1824 5005 1824 
L 3290 1824 
C 3309 1914 3322 1952 3334 2029 
C 3373 2202 3379 2227 3405 2323 
L 2861 2342 
C 2861 2317 2861 2298 2861 2285 
C 2861 2163 2835 2010 2790 1824 
L 1286 1824 
C 986 1824 755 1837 570 1862 
L 570 1363 
C 781 1389 973 1402 1286 1402 
L 2643 1402 
C 2490 1062 2298 832 1990 614 
C 1555 307 1114 134 307 -32 
C 467 -218 531 -320 602 -486 
C 1434 -269 1920 -45 2362 314 
C 2726 608 2963 941 3142 1402 
L 5114 1402 
z
M 5440 4467 
C 5440 4762 5446 4928 5466 5101 
C 5280 5075 5114 5069 4845 5069 
L 1574 5069 
C 1312 5069 1139 5075 954 5101 
C 973 4928 986 4762 986 4467 
L 986 3053 
C 986 2778 973 2624 954 2445 
C 1133 2464 1357 2477 1594 2477 
L 4864 2477 
C 5088 2477 5286 2464 5466 2451 
C 5446 2650 5440 2778 5440 3053 
L 5440 4467 
z
M 2944 4659 
L 2944 3962 
L 1453 3962 
L 1453 4659 
L 2944 4659 
z
M 3405 3962 
L 3405 4659 
L 4973 4659 
L 4973 3962 
L 3405 3962 
z
M 2944 3565 
L 2944 2880 
L 1453 2880 
L 1453 3565 
L 2944 3565 
z
M 3405 2880 
L 3405 3565 
L 4973 3565 
L 4973 2880 
L 3405 2880 
z
" transform="scale(0.015625)"/>
      </defs>
      <use xlink:href="#HiraginoSans-W4-7537"/>
     </g>
    </g>
    <g id="line2d_28">
     <path d="M 59.789063 35.16875 
L 69.789062 35.16875 
L 79.789062 35.16875 
" style="fill: none; stroke: #ff7f0e; stroke-width: 1.5; stroke-linecap: square"/>
    </g>
    <g id="text_16">
     <!-- 女 -->
     <g transform="translate(87.789062 38.66875) scale(0.1 -0.1)">
      <defs>
       <path id="HiraginoSans-W4-5973" d="M 5862 -19 
C 5171 454 4589 806 3878 1171 
C 4160 1504 4371 1830 4544 2214 
C 4710 2573 4787 2829 4928 3424 
L 5402 3424 
C 5677 3424 5888 3411 6080 3386 
L 6080 3942 
C 5875 3910 5670 3898 5389 3898 
L 2790 3898 
C 2848 4038 2944 4282 2989 4429 
C 3187 5005 3187 5005 3277 5216 
L 2688 5318 
C 2630 4960 2490 4512 2246 3898 
L 1043 3898 
C 774 3898 538 3910 352 3942 
L 352 3386 
C 538 3411 755 3424 1043 3424 
L 2035 3424 
C 1722 2746 1318 2118 864 1581 
C 1088 1491 1216 1427 1357 1338 
C 1478 1498 1504 1536 1606 1677 
C 2342 1395 2534 1312 3072 1050 
C 2400 506 1651 230 352 58 
C 493 -134 525 -192 621 -429 
C 1670 -211 1869 -154 2355 64 
C 2810 269 3168 499 3526 819 
C 4250 429 4870 26 5498 -467 
L 5862 -19 
z
M 4397 3424 
C 4288 2931 4211 2682 4058 2355 
C 3891 1997 3686 1683 3437 1402 
C 2912 1658 2547 1811 1869 2074 
C 2138 2502 2355 2906 2592 3424 
L 4397 3424 
z
" transform="scale(0.015625)"/>
      </defs>
      <use xlink:href="#HiraginoSans-W4-5973"/>
     </g>
    </g>
   </g>
  </g>
 </g>
 <defs>
  <clipPath id="pc0ae81c767">
   <rect x="50.789063" y="7.2" width="357.12" height="266.112"/>
  </clipPath>
 </defs>
</svg>
