<?xml version="1.0" encoding="utf-8" standalone="no"?>
<!DOCTYPE svg PUBLIC "-//W3C//DTD SVG 1.1//EN"
  "http://www.w3.org/Graphics/SVG/1.1/DTD/svg11.dtd">
<svg xmlns:xlink="http://www.w3.org/1999/xlink" width="412.209063pt" height="308.572625pt" viewBox="0 0 412.209063 308.572625" xmlns="http://www.w3.org/2000/svg" version="1.1">
 <metadata>
  <rdf:RDF xmlns:dc="http://purl.org/dc/elements/1.1/" xmlns:cc="http://creativecommons.org/ns#" xmlns:rdf="http://www.w3.org/1999/02/22-rdf-syntax-ns#">
   <cc:Work>
    <dc:type rdf:resource="http://purl.org/dc/dcmitype/StillImage"/>
    <dc:date>2023-04-06T11:50:26.784611</dc:date>
    <dc:format>image/svg+xml</dc:format>
    <dc:creator>
     <cc:Agent>
      <dc:title>Matplotlib v3.7.1, https://matplotlib.org/</dc:title>
     </cc:Agent>
    </dc:creator>
   </cc:Work>
  </rdf:RDF>
 </metadata>
 <defs>
  <style type="text/css">*{stroke-linejoin: round; stroke-linecap: butt}</style>
 </defs>
 <g id="figure_1">
  <g id="patch_1">
   <path d="M 0 308.572625 
L 412.209063 308.572625 
L 412.209063 0 
L 0 0 
z
" style="fill: #ffffff"/>
  </g>
  <g id="axes_1">
   <g id="patch_2">
    <path d="M 47.889063 273.312 
L 405.009063 273.312 
L 405.009063 7.2 
L 47.889063 7.2 
z
" style="fill: #ffffff"/>
   </g>
   <g id="matplotlib.axis_1">
    <g id="xtick_1">
     <g id="line2d_1">
      <defs>
       <path id="m8e61e74eac" d="M 0 0 
L 0 3.5 
" style="stroke: #000000; stroke-width: 0.8"/>
      </defs>
      <g>
       <use xlink:href="#m8e61e74eac" x="47.889063" y="273.312" style="stroke: #000000; stroke-width: 0.8"/>
      </g>
     </g>
     <g id="text_1">
      <!-- Jan -->
      <g transform="translate(39.098438 288.021375) scale(0.1 -0.1)">
       <defs>
        <path id="HiraginoSans-W4-4a" d="M 2208 4934 
C 2246 4704 2259 4518 2259 4186 
L 2259 1318 
C 2259 1030 2208 826 2099 691 
C 1984 544 1754 454 1491 454 
C 1222 454 998 538 851 704 
C 762 800 710 896 627 1094 
L 26 858 
C 154 589 230 467 358 333 
C 621 64 1005 -77 1485 -77 
C 2406 -77 2867 384 2867 1312 
L 2867 4186 
C 2867 4525 2874 4691 2918 4934 
L 2208 4934 
z
" transform="scale(0.015625)"/>
        <path id="HiraginoSans-W4-61" d="M 2765 0 
L 3373 0 
C 3334 269 3322 422 3322 736 
L 3322 2515 
C 3322 2867 3238 3110 3046 3290 
C 2816 3514 2464 3622 1978 3622 
C 1485 3622 1094 3507 813 3270 
C 627 3123 531 2976 416 2656 
L 1011 2541 
C 1069 2714 1114 2797 1197 2886 
C 1370 3066 1626 3155 1971 3155 
C 2515 3155 2765 2950 2765 2515 
L 2765 2182 
C 1933 2163 1581 2118 1197 1997 
C 646 1818 333 1434 333 941 
C 333 320 774 -58 1491 -58 
C 1741 -58 1978 -19 2195 64 
C 2406 141 2522 218 2765 429 
L 2765 0 
z
M 2765 1363 
C 2765 1126 2707 973 2554 813 
C 2304 557 1920 397 1568 397 
C 1165 397 915 608 915 941 
C 915 1235 1075 1440 1395 1568 
C 1677 1683 2035 1728 2765 1747 
L 2765 1363 
z
" transform="scale(0.015625)"/>
        <path id="HiraginoSans-W4-6e" d="M 1114 0 
C 1082 256 1069 474 1069 755 
L 1069 2010 
C 1139 2272 1222 2426 1395 2630 
C 1658 2944 1933 3085 2266 3085 
C 2752 3085 3002 2797 3002 2234 
L 3002 755 
C 3002 454 2989 269 2957 0 
L 3629 0 
C 3597 218 3584 416 3584 749 
L 3584 2323 
C 3584 2662 3520 2912 3392 3110 
C 3181 3418 2816 3584 2349 3584 
C 1779 3584 1376 3360 1056 2867 
C 1069 3027 1069 3059 1069 3142 
L 1069 3520 
L 442 3520 
C 480 3264 493 3078 493 2765 
L 493 755 
C 493 429 480 256 442 0 
L 1114 0 
z
" transform="scale(0.015625)"/>
       </defs>
       <use xlink:href="#HiraginoSans-W4-4a"/>
       <use xlink:href="#HiraginoSans-W4-61" x="53.199997"/>
       <use xlink:href="#HiraginoSans-W4-6e" x="112.399994"/>
      </g>
      <!-- 2023 -->
      <g transform="translate(34.429688 299.322625) scale(0.1 -0.1)">
       <defs>
        <path id="HiraginoSans-W4-32" d="M 3078 0 
C 3424 0 3642 -6 3917 -32 
L 3917 589 
C 3693 557 3430 544 3091 544 
L 1114 544 
C 1280 1114 1606 1478 2451 2042 
C 3181 2528 3341 2656 3546 2912 
C 3738 3142 3846 3443 3846 3744 
C 3846 4525 3200 5030 2202 5030 
C 1613 5030 1158 4858 858 4518 
C 640 4269 531 4026 442 3565 
L 1088 3469 
C 1139 3782 1190 3936 1306 4102 
C 1491 4371 1792 4506 2208 4506 
C 2816 4506 3206 4211 3206 3744 
C 3206 3360 2995 3085 2387 2675 
C 1754 2246 1600 2138 1389 1952 
C 979 1594 710 1229 544 806 
C 448 563 429 461 365 -26 
C 576 -6 678 0 1107 0 
L 3078 0 
z
" transform="scale(0.015625)"/>
        <path id="HiraginoSans-W4-30" d="M 2144 -90 
C 2758 -90 3232 141 3565 602 
C 3846 998 4019 1696 4019 2464 
C 4019 3002 3936 3501 3770 3949 
C 3693 4160 3558 4371 3379 4550 
C 3078 4858 2650 5024 2157 5024 
C 1498 5024 986 4742 666 4205 
C 435 3834 288 3142 288 2458 
C 288 1939 371 1434 538 986 
C 614 768 749 563 928 384 
C 1242 70 1651 -90 2144 -90 
z
M 2144 4499 
C 2592 4499 2918 4307 3123 3923 
C 3283 3629 3398 3014 3398 2470 
C 3398 2022 3341 1619 3213 1235 
C 3155 1043 3046 870 2912 730 
C 2726 538 2458 435 2150 435 
C 1734 435 1414 614 1197 973 
C 1024 1261 902 1875 902 2451 
C 902 2906 966 3328 1088 3699 
C 1139 3866 1235 4026 1370 4173 
C 1568 4397 1818 4499 2144 4499 
z
" transform="scale(0.015625)"/>
        <path id="HiraginoSans-W4-33" d="M 282 1101 
C 397 768 474 621 621 448 
C 934 90 1434 -96 2112 -96 
C 2720 -96 3213 70 3533 384 
C 3770 614 3904 954 3904 1306 
C 3904 1677 3802 1958 3597 2182 
C 3379 2419 3130 2528 2688 2586 
C 2995 2650 3130 2701 3290 2816 
C 3578 3021 3738 3366 3738 3757 
C 3738 4538 3117 5043 2157 5043 
C 1594 5043 1146 4883 845 4576 
C 666 4390 582 4237 467 3891 
L 1107 3757 
C 1171 3981 1216 4083 1306 4192 
C 1478 4416 1741 4525 2125 4525 
C 2746 4525 3110 4224 3110 3725 
C 3110 3482 3021 3264 2867 3110 
C 2669 2918 2374 2829 1965 2829 
C 1779 2829 1613 2842 1459 2861 
L 1459 2272 
C 1651 2298 1811 2310 2003 2310 
C 2829 2310 3264 1990 3264 1376 
C 3264 794 2816 429 2106 429 
C 1779 429 1510 506 1293 666 
C 1107 800 1024 928 928 1248 
L 282 1101 
z
" transform="scale(0.015625)"/>
       </defs>
       <use xlink:href="#HiraginoSans-W4-32"/>
       <use xlink:href="#HiraginoSans-W4-30" x="67.299988"/>
       <use xlink:href="#HiraginoSans-W4-32" x="134.599976"/>
       <use xlink:href="#HiraginoSans-W4-33" x="201.899963"/>
      </g>
     </g>
    </g>
    <g id="xtick_2">
     <g id="line2d_2">
      <g>
       <use xlink:href="#m8e61e74eac" x="165.66268" y="273.312" style="stroke: #000000; stroke-width: 0.8"/>
      </g>
     </g>
     <g id="text_2">
      <!-- Feb -->
      <g transform="translate(156.267367 288.021375) scale(0.1 -0.1)">
       <defs>
        <path id="HiraginoSans-W4-46" d="M 1133 2285 
L 2598 2285 
C 2950 2285 3149 2272 3366 2240 
L 3366 2867 
C 3130 2835 2938 2822 2598 2822 
L 1133 2822 
L 1133 4390 
L 2944 4390 
C 3296 4390 3494 4378 3712 4346 
L 3712 4979 
C 3469 4947 3270 4934 2938 4934 
L 1210 4934 
C 896 4934 698 4941 480 4954 
C 518 4698 531 4493 531 4198 
L 531 794 
C 531 429 518 218 480 0 
L 1184 0 
C 1146 237 1133 429 1133 800 
L 1133 2285 
z
" transform="scale(0.015625)"/>
        <path id="HiraginoSans-W4-65" d="M 3578 1651 
C 3558 1971 3546 2106 3533 2170 
C 3405 3066 2797 3610 1933 3610 
C 934 3610 282 2880 282 1760 
C 282 621 941 -96 1978 -96 
C 2470 -96 2880 64 3187 371 
C 3341 518 3424 646 3546 915 
L 3008 1114 
C 2944 928 2899 845 2803 742 
C 2605 512 2323 390 1984 390 
C 1613 390 1312 531 1114 800 
C 947 1024 883 1235 858 1651 
L 3578 1651 
z
M 877 2118 
C 915 2349 947 2451 1037 2605 
C 1229 2944 1542 3130 1920 3130 
C 2221 3130 2464 3040 2656 2854 
C 2842 2669 2938 2451 2976 2118 
L 877 2118 
z
" transform="scale(0.015625)"/>
        <path id="HiraginoSans-W4-62" d="M 1050 0 
L 1050 314 
C 1043 448 1043 448 1037 506 
C 1037 518 1037 538 1037 557 
C 1338 141 1766 -64 2317 -64 
C 3341 -64 3962 634 3962 1786 
C 3962 2918 3360 3597 2355 3597 
C 1779 3597 1344 3379 1037 2931 
C 1050 3078 1056 3206 1056 3386 
L 1056 4173 
C 1056 4499 1069 4691 1101 4934 
L 442 4934 
C 474 4666 486 4461 486 4173 
L 486 774 
C 486 442 474 243 442 0 
L 1050 0 
z
M 3366 1786 
C 3366 941 2950 429 2259 429 
C 1555 429 1062 986 1062 1779 
C 1062 2566 1562 3104 2285 3104 
C 2970 3104 3366 2618 3366 1786 
z
" transform="scale(0.015625)"/>
       </defs>
       <use xlink:href="#HiraginoSans-W4-46"/>
       <use xlink:href="#HiraginoSans-W4-65" x="61.399994"/>
       <use xlink:href="#HiraginoSans-W4-62" x="121.599991"/>
      </g>
     </g>
    </g>
    <g id="xtick_3">
     <g id="line2d_3">
      <g>
       <use xlink:href="#m8e61e74eac" x="272.03885" y="273.312" style="stroke: #000000; stroke-width: 0.8"/>
      </g>
     </g>
     <g id="text_3">
      <!-- Mar -->
      <g transform="translate(262.058381 288.021375) scale(0.1 -0.1)">
       <defs>
        <path id="HiraginoSans-W4-4d" d="M 5018 806 
C 5018 480 4998 211 4966 0 
L 5638 0 
C 5600 230 5587 422 5587 806 
L 5587 4122 
C 5587 4486 5600 4672 5638 4934 
L 4774 4934 
C 4736 4723 4672 4531 4557 4262 
L 3059 838 
L 1562 4262 
C 1466 4486 1389 4730 1344 4934 
L 480 4934 
C 518 4691 531 4467 531 4122 
L 531 806 
C 531 442 518 243 480 0 
L 1152 0 
C 1114 224 1101 442 1101 806 
L 1101 3059 
C 1101 3251 1082 3776 1056 4243 
C 1242 3667 1293 3533 1478 3117 
L 2534 723 
C 2669 435 2752 186 2784 0 
L 3322 0 
C 3386 250 3443 422 3578 717 
L 4666 3155 
C 4883 3648 4960 3846 5062 4237 
C 5043 3949 5018 3334 5018 3104 
L 5018 806 
z
" transform="scale(0.015625)"/>
        <path id="HiraginoSans-W4-72" d="M 2784 3520 
C 2522 3565 2394 3578 2195 3578 
C 1862 3578 1568 3488 1350 3315 
C 1242 3238 1165 3142 1056 2976 
C 1062 3027 1062 3040 1069 3085 
C 1069 3104 1069 3117 1069 3130 
C 1069 3162 1069 3181 1069 3187 
L 1069 3520 
L 442 3520 
C 474 3283 486 3104 486 2765 
L 486 755 
C 486 467 480 314 442 0 
L 1114 0 
C 1082 262 1069 448 1069 755 
L 1069 2022 
C 1101 2317 1158 2470 1312 2669 
C 1504 2912 1760 3034 2093 3034 
C 2259 3034 2381 3014 2618 2938 
L 2784 3520 
z
" transform="scale(0.015625)"/>
       </defs>
       <use xlink:href="#HiraginoSans-W4-4d"/>
       <use xlink:href="#HiraginoSans-W4-61" x="95.699982"/>
       <use xlink:href="#HiraginoSans-W4-72" x="154.899979"/>
      </g>
     </g>
    </g>
    <g id="xtick_4">
     <g id="line2d_4">
      <g>
       <use xlink:href="#m8e61e74eac" x="389.812467" y="273.312" style="stroke: #000000; stroke-width: 0.8"/>
      </g>
     </g>
     <g id="text_4">
      <!-- Apr -->
      <g transform="translate(380.427311 288.021375) scale(0.1 -0.1)">
       <defs>
        <path id="HiraginoSans-W4-41" d="M 4826 0 
C 4730 166 4646 352 4486 742 
L 3053 4326 
C 2899 4710 2867 4806 2835 4934 
L 2054 4934 
C 2022 4781 1971 4634 1850 4326 
L 422 742 
C 269 358 198 205 83 0 
L 858 0 
C 902 230 954 397 1056 659 
L 1363 1453 
L 3546 1453 
L 3859 659 
C 3930 467 4006 218 4051 0 
L 4826 0 
z
M 3366 1978 
L 1542 1978 
L 2317 4026 
C 2330 4058 2349 4122 2381 4211 
C 2394 4256 2419 4333 2451 4422 
C 2566 4083 2566 4083 2586 4026 
L 3366 1978 
z
" transform="scale(0.015625)"/>
        <path id="HiraginoSans-W4-70" d="M 1101 -1312 
C 1069 -1075 1056 -877 1056 -550 
L 1056 128 
C 1056 301 1050 397 1037 570 
C 1363 154 1792 -51 2349 -51 
C 3334 -51 3968 659 3968 1773 
C 3968 2906 3354 3590 2336 3590 
C 1766 3590 1344 3379 1037 2944 
C 1050 3078 1050 3117 1050 3194 
L 1050 3520 
L 442 3520 
C 474 3277 486 3078 486 2752 
L 486 -557 
C 486 -845 474 -1056 442 -1312 
L 1101 -1312 
z
M 2272 442 
C 1952 442 1626 570 1421 781 
C 1197 1005 1062 1376 1062 1766 
C 1062 2547 1555 3091 2278 3091 
C 2976 3091 3373 2611 3373 1773 
C 3373 941 2957 442 2272 442 
z
" transform="scale(0.015625)"/>
       </defs>
       <use xlink:href="#HiraginoSans-W4-41"/>
       <use xlink:href="#HiraginoSans-W4-70" x="76.599991"/>
       <use xlink:href="#HiraginoSans-W4-72" x="142.999985"/>
      </g>
     </g>
    </g>
    <g id="xtick_5">
     <g id="line2d_5">
      <g>
       <use xlink:href="#m8e61e74eac" x="405.009063" y="273.312" style="stroke: #000000; stroke-width: 0.8"/>
      </g>
     </g>
    </g>
    <g id="xtick_6">
     <g id="line2d_6">
      <defs>
       <path id="m7d0cb72dc2" d="M 0 0 
L 0 2 
" style="stroke: #000000; stroke-width: 0.6"/>
      </defs>
      <g>
       <use xlink:href="#m7d0cb72dc2" x="51.688211" y="273.312" style="stroke: #000000; stroke-width: 0.6"/>
      </g>
     </g>
    </g>
    <g id="xtick_7">
     <g id="line2d_7">
      <g>
       <use xlink:href="#m7d0cb72dc2" x="78.282254" y="273.312" style="stroke: #000000; stroke-width: 0.6"/>
      </g>
     </g>
    </g>
    <g id="xtick_8">
     <g id="line2d_8">
      <g>
       <use xlink:href="#m7d0cb72dc2" x="104.876297" y="273.312" style="stroke: #000000; stroke-width: 0.6"/>
      </g>
     </g>
    </g>
    <g id="xtick_9">
     <g id="line2d_9">
      <g>
       <use xlink:href="#m7d0cb72dc2" x="131.470339" y="273.312" style="stroke: #000000; stroke-width: 0.6"/>
      </g>
     </g>
    </g>
    <g id="xtick_10">
     <g id="line2d_10">
      <g>
       <use xlink:href="#m7d0cb72dc2" x="158.064382" y="273.312" style="stroke: #000000; stroke-width: 0.6"/>
      </g>
     </g>
    </g>
    <g id="xtick_11">
     <g id="line2d_11">
      <g>
       <use xlink:href="#m7d0cb72dc2" x="184.658424" y="273.312" style="stroke: #000000; stroke-width: 0.6"/>
      </g>
     </g>
    </g>
    <g id="xtick_12">
     <g id="line2d_12">
      <g>
       <use xlink:href="#m7d0cb72dc2" x="211.252467" y="273.312" style="stroke: #000000; stroke-width: 0.6"/>
      </g>
     </g>
    </g>
    <g id="xtick_13">
     <g id="line2d_13">
      <g>
       <use xlink:href="#m7d0cb72dc2" x="237.846509" y="273.312" style="stroke: #000000; stroke-width: 0.6"/>
      </g>
     </g>
    </g>
    <g id="xtick_14">
     <g id="line2d_14">
      <g>
       <use xlink:href="#m7d0cb72dc2" x="264.440552" y="273.312" style="stroke: #000000; stroke-width: 0.6"/>
      </g>
     </g>
    </g>
    <g id="xtick_15">
     <g id="line2d_15">
      <g>
       <use xlink:href="#m7d0cb72dc2" x="291.034594" y="273.312" style="stroke: #000000; stroke-width: 0.6"/>
      </g>
     </g>
    </g>
    <g id="xtick_16">
     <g id="line2d_16">
      <g>
       <use xlink:href="#m7d0cb72dc2" x="317.628637" y="273.312" style="stroke: #000000; stroke-width: 0.6"/>
      </g>
     </g>
    </g>
    <g id="xtick_17">
     <g id="line2d_17">
      <g>
       <use xlink:href="#m7d0cb72dc2" x="344.22268" y="273.312" style="stroke: #000000; stroke-width: 0.6"/>
      </g>
     </g>
    </g>
    <g id="xtick_18">
     <g id="line2d_18">
      <g>
       <use xlink:href="#m7d0cb72dc2" x="370.816722" y="273.312" style="stroke: #000000; stroke-width: 0.6"/>
      </g>
     </g>
    </g>
    <g id="xtick_19">
     <g id="line2d_19">
      <g>
       <use xlink:href="#m7d0cb72dc2" x="397.410765" y="273.312" style="stroke: #000000; stroke-width: 0.6"/>
      </g>
     </g>
    </g>
   </g>
   <g id="matplotlib.axis_2">
    <g id="ytick_1">
     <g id="line2d_20">
      <defs>
       <path id="ma47ee4a273" d="M 0 0 
L -3.5 0 
" style="stroke: #000000; stroke-width: 0.8"/>
      </defs>
      <g>
       <use xlink:href="#ma47ee4a273" x="47.889063" y="270.055951" style="stroke: #000000; stroke-width: 0.8"/>
      </g>
     </g>
     <g id="text_5">
      <!-- 33800 -->
      <g transform="translate(7.240625 273.910639) scale(0.1 -0.1)">
       <defs>
        <path id="HiraginoSans-W4-38" d="M 1446 2586 
C 1203 2547 1056 2490 851 2355 
C 480 2106 294 1754 294 1299 
C 294 397 966 -102 2163 -102 
C 3347 -102 4006 397 4006 1299 
C 4006 1728 3853 2061 3539 2304 
C 3322 2470 3136 2547 2867 2586 
C 3437 2714 3789 3162 3789 3757 
C 3789 4550 3162 5043 2150 5043 
C 1146 5043 512 4544 512 3750 
C 512 3162 877 2701 1446 2586 
z
M 2150 4538 
C 2784 4538 3187 4211 3187 3699 
C 3187 3155 2797 2829 2157 2829 
C 1510 2829 1114 3162 1114 3699 
C 1114 4211 1523 4538 2150 4538 
z
M 2157 2304 
C 2912 2304 3373 1939 3373 1344 
C 3373 749 2925 410 2144 410 
C 1376 410 928 749 928 1338 
C 928 1939 1389 2304 2157 2304 
z
" transform="scale(0.015625)"/>
       </defs>
       <use xlink:href="#HiraginoSans-W4-33"/>
       <use xlink:href="#HiraginoSans-W4-33" x="67.299988"/>
       <use xlink:href="#HiraginoSans-W4-38" x="134.599976"/>
       <use xlink:href="#HiraginoSans-W4-30" x="201.899963"/>
       <use xlink:href="#HiraginoSans-W4-30" x="269.199951"/>
      </g>
     </g>
    </g>
    <g id="ytick_2">
     <g id="line2d_21">
      <g>
       <use xlink:href="#ma47ee4a273" x="47.889063" y="211.122943" style="stroke: #000000; stroke-width: 0.8"/>
      </g>
     </g>
     <g id="text_6">
      <!-- 34000 -->
      <g transform="translate(7.220312 214.97763) scale(0.1 -0.1)">
       <defs>
        <path id="HiraginoSans-W4-34" d="M 179 1210 
C 403 1229 589 1235 954 1235 
L 2688 1235 
L 2688 710 
C 2688 410 2675 218 2630 0 
L 3309 0 
C 3270 230 3258 390 3258 704 
L 3258 1235 
L 3494 1235 
C 3763 1235 3910 1222 4154 1190 
L 4154 1798 
C 3917 1766 3750 1754 3494 1754 
L 3258 1754 
L 3258 3853 
C 3258 4358 3264 4544 3296 4934 
L 2701 4934 
C 2560 4704 2445 4550 2214 4269 
L 621 2298 
C 467 2099 326 1939 179 1773 
L 179 1210 
z
M 2688 1747 
L 858 1747 
L 2259 3514 
C 2464 3763 2592 3936 2720 4128 
C 2694 3814 2688 3622 2688 3283 
L 2688 1747 
z
" transform="scale(0.015625)"/>
       </defs>
       <use xlink:href="#HiraginoSans-W4-33"/>
       <use xlink:href="#HiraginoSans-W4-34" x="67.299988"/>
       <use xlink:href="#HiraginoSans-W4-30" x="134.799973"/>
       <use xlink:href="#HiraginoSans-W4-30" x="202.09996"/>
       <use xlink:href="#HiraginoSans-W4-30" x="269.399948"/>
      </g>
     </g>
    </g>
    <g id="ytick_3">
     <g id="line2d_22">
      <g>
       <use xlink:href="#ma47ee4a273" x="47.889063" y="152.189934" style="stroke: #000000; stroke-width: 0.8"/>
      </g>
     </g>
     <g id="text_7">
      <!-- 34200 -->
      <g transform="translate(7.220312 156.044622) scale(0.1 -0.1)">
       <use xlink:href="#HiraginoSans-W4-33"/>
       <use xlink:href="#HiraginoSans-W4-34" x="67.299988"/>
       <use xlink:href="#HiraginoSans-W4-32" x="134.799973"/>
       <use xlink:href="#HiraginoSans-W4-30" x="202.09996"/>
       <use xlink:href="#HiraginoSans-W4-30" x="269.399948"/>
      </g>
     </g>
    </g>
    <g id="ytick_4">
     <g id="line2d_23">
      <g>
       <use xlink:href="#ma47ee4a273" x="47.889063" y="93.256926" style="stroke: #000000; stroke-width: 0.8"/>
      </g>
     </g>
     <g id="text_8">
      <!-- 34400 -->
      <g transform="translate(7.2 97.111613) scale(0.1 -0.1)">
       <use xlink:href="#HiraginoSans-W4-33"/>
       <use xlink:href="#HiraginoSans-W4-34" x="67.299988"/>
       <use xlink:href="#HiraginoSans-W4-34" x="134.799973"/>
       <use xlink:href="#HiraginoSans-W4-30" x="202.299957"/>
       <use xlink:href="#HiraginoSans-W4-30" x="269.599945"/>
      </g>
     </g>
    </g>
    <g id="ytick_5">
     <g id="line2d_24">
      <g>
       <use xlink:href="#ma47ee4a273" x="47.889063" y="34.323917" style="stroke: #000000; stroke-width: 0.8"/>
      </g>
     </g>
     <g id="text_9">
      <!-- 34600 -->
      <g transform="translate(7.220312 38.178605) scale(0.1 -0.1)">
       <defs>
        <path id="HiraginoSans-W4-36" d="M 3846 3994 
C 3706 4301 3616 4442 3462 4602 
C 3187 4877 2784 5024 2304 5024 
C 1683 5024 1222 4794 864 4307 
C 557 3891 371 3162 371 2355 
C 371 1446 614 704 1043 320 
C 1331 58 1773 -90 2253 -90 
C 3277 -90 3968 589 3968 1587 
C 3968 2586 3334 3213 2323 3213 
C 1894 3213 1568 3104 1274 2854 
C 1133 2739 1062 2656 941 2458 
C 979 3085 1043 3392 1210 3763 
C 1434 4262 1798 4518 2285 4518 
C 2765 4518 3040 4314 3238 3821 
L 3846 3994 
z
M 2266 2714 
C 2950 2714 3366 2285 3366 1574 
C 3366 1325 3309 1088 3206 922 
C 3008 614 2643 422 2234 422 
C 1568 422 1069 915 1069 1574 
C 1069 2234 1574 2714 2266 2714 
z
" transform="scale(0.015625)"/>
       </defs>
       <use xlink:href="#HiraginoSans-W4-33"/>
       <use xlink:href="#HiraginoSans-W4-34" x="67.299988"/>
       <use xlink:href="#HiraginoSans-W4-36" x="134.799973"/>
       <use xlink:href="#HiraginoSans-W4-30" x="202.09996"/>
       <use xlink:href="#HiraginoSans-W4-30" x="269.399948"/>
      </g>
     </g>
    </g>
   </g>
   <g id="line2d_25">
    <path d="M 47.889063 259.153345 
L 51.688211 258.26935 
L 55.48736 260.03734 
L 59.286509 260.332005 
L 63.085658 258.85868 
L 66.884807 260.62667 
L 70.683956 261.216 
L 74.483105 259.44801 
L 78.282254 260.62667 
L 82.081403 259.742675 
L 85.880552 258.85868 
L 89.679701 258.564015 
L 93.47885 257.680019 
L 97.277999 258.85868 
L 101.077148 255.028034 
L 104.876297 253.260044 
L 108.675445 253.260044 
L 112.474594 252.081384 
L 116.273743 250.902724 
L 120.072892 244.420093 
L 123.872041 214.069593 
L 127.67119 191.08572 
L 131.470339 181.951104 
L 135.269488 180.183113 
L 139.068637 176.941798 
L 142.867786 175.763138 
L 146.666935 170.164502 
L 150.466084 167.807181 
L 154.265233 148.653954 
L 158.064382 146.296633 
L 161.863531 141.287328 
L 165.66268 138.635342 
L 169.461828 133.920702 
L 173.260977 143.939313 
L 177.060126 132.742041 
L 180.859275 132.447376 
L 184.658424 130.384721 
L 188.457573 129.206061 
L 192.256722 128.322066 
L 196.055871 127.438071 
L 199.85502 128.322066 
L 203.654169 127.732736 
L 207.453318 124.786085 
L 211.252467 124.196755 
L 215.051616 123.018095 
L 218.850765 121.250105 
L 222.649914 120.660775 
L 226.449063 118.598119 
L 230.248211 116.830129 
L 234.04736 114.767474 
L 237.846509 113.294149 
L 241.645658 110.052833 
L 245.444807 109.758168 
L 249.243956 108.579508 
L 253.043105 108.874173 
L 256.842254 107.990178 
L 260.641403 105.043527 
L 264.440552 104.454197 
L 268.239701 104.159532 
L 272.03885 105.632857 
L 275.837999 106.811518 
L 279.637148 104.454197 
L 283.436297 105.043527 
L 287.235445 104.159532 
L 291.034594 101.507547 
L 294.833743 101.212882 
L 298.632892 99.150227 
L 302.432041 97.382236 
L 306.23119 94.140921 
L 310.030339 96.203576 
L 313.829488 95.319581 
L 317.628637 97.971566 
L 321.427786 95.024916 
L 325.226935 92.667596 
L 329.026084 88.542285 
L 332.825233 86.774295 
L 336.624382 85.30097 
L 340.423531 85.8903 
L 344.22268 82.943649 
L 348.021828 75.577023 
L 351.820977 69.094392 
L 355.620126 69.389057 
L 359.419275 64.674417 
L 363.218424 59.959776 
L 367.017573 61.433101 
L 370.816722 60.549106 
L 374.615871 55.245135 
L 378.41502 55.245135 
L 382.214169 53.477145 
L 386.013318 51.41449 
L 389.812467 51.41449 
L 393.611616 45.226524 
L 397.410765 28.135951 
L 401.209914 20.47466 
L 405.009063 19.296 
" clip-path="url(#p4880ee6145)" style="fill: none; stroke: #1f77b4; stroke-width: 1.5; stroke-linecap: square"/>
    <defs>
     <path id="mb5c759dce4" d="M 0 3 
C 0.795609 3 1.55874 2.683901 2.12132 2.12132 
C 2.683901 1.55874 3 0.795609 3 0 
C 3 -0.795609 2.683901 -1.55874 2.12132 -2.12132 
C 1.55874 -2.683901 0.795609 -3 0 -3 
C -0.795609 -3 -1.55874 -2.683901 -2.12132 -2.12132 
C -2.683901 -1.55874 -3 -0.795609 -3 0 
C -3 0.795609 -2.683901 1.55874 -2.12132 2.12132 
C -1.55874 2.683901 -0.795609 3 0 3 
z
" style="stroke: #1f77b4"/>
    </defs>
    <g clip-path="url(#p4880ee6145)">
     <use xlink:href="#mb5c759dce4" x="47.889063" y="259.153345" style="fill: #1f77b4; stroke: #1f77b4"/>
     <use xlink:href="#mb5c759dce4" x="51.688211" y="258.26935" style="fill: #1f77b4; stroke: #1f77b4"/>
     <use xlink:href="#mb5c759dce4" x="55.48736" y="260.03734" style="fill: #1f77b4; stroke: #1f77b4"/>
     <use xlink:href="#mb5c759dce4" x="59.286509" y="260.332005" style="fill: #1f77b4; stroke: #1f77b4"/>
     <use xlink:href="#mb5c759dce4" x="63.085658" y="258.85868" style="fill: #1f77b4; stroke: #1f77b4"/>
     <use xlink:href="#mb5c759dce4" x="66.884807" y="260.62667" style="fill: #1f77b4; stroke: #1f77b4"/>
     <use xlink:href="#mb5c759dce4" x="70.683956" y="261.216" style="fill: #1f77b4; stroke: #1f77b4"/>
     <use xlink:href="#mb5c759dce4" x="74.483105" y="259.44801" style="fill: #1f77b4; stroke: #1f77b4"/>
     <use xlink:href="#mb5c759dce4" x="78.282254" y="260.62667" style="fill: #1f77b4; stroke: #1f77b4"/>
     <use xlink:href="#mb5c759dce4" x="82.081403" y="259.742675" style="fill: #1f77b4; stroke: #1f77b4"/>
     <use xlink:href="#mb5c759dce4" x="85.880552" y="258.85868" style="fill: #1f77b4; stroke: #1f77b4"/>
     <use xlink:href="#mb5c759dce4" x="89.679701" y="258.564015" style="fill: #1f77b4; stroke: #1f77b4"/>
     <use xlink:href="#mb5c759dce4" x="93.47885" y="257.680019" style="fill: #1f77b4; stroke: #1f77b4"/>
     <use xlink:href="#mb5c759dce4" x="97.277999" y="258.85868" style="fill: #1f77b4; stroke: #1f77b4"/>
     <use xlink:href="#mb5c759dce4" x="101.077148" y="255.028034" style="fill: #1f77b4; stroke: #1f77b4"/>
     <use xlink:href="#mb5c759dce4" x="104.876297" y="253.260044" style="fill: #1f77b4; stroke: #1f77b4"/>
     <use xlink:href="#mb5c759dce4" x="108.675445" y="253.260044" style="fill: #1f77b4; stroke: #1f77b4"/>
     <use xlink:href="#mb5c759dce4" x="112.474594" y="252.081384" style="fill: #1f77b4; stroke: #1f77b4"/>
     <use xlink:href="#mb5c759dce4" x="116.273743" y="250.902724" style="fill: #1f77b4; stroke: #1f77b4"/>
     <use xlink:href="#mb5c759dce4" x="120.072892" y="244.420093" style="fill: #1f77b4; stroke: #1f77b4"/>
     <use xlink:href="#mb5c759dce4" x="123.872041" y="214.069593" style="fill: #1f77b4; stroke: #1f77b4"/>
     <use xlink:href="#mb5c759dce4" x="127.67119" y="191.08572" style="fill: #1f77b4; stroke: #1f77b4"/>
     <use xlink:href="#mb5c759dce4" x="131.470339" y="181.951104" style="fill: #1f77b4; stroke: #1f77b4"/>
     <use xlink:href="#mb5c759dce4" x="135.269488" y="180.183113" style="fill: #1f77b4; stroke: #1f77b4"/>
     <use xlink:href="#mb5c759dce4" x="139.068637" y="176.941798" style="fill: #1f77b4; stroke: #1f77b4"/>
     <use xlink:href="#mb5c759dce4" x="142.867786" y="175.763138" style="fill: #1f77b4; stroke: #1f77b4"/>
     <use xlink:href="#mb5c759dce4" x="146.666935" y="170.164502" style="fill: #1f77b4; stroke: #1f77b4"/>
     <use xlink:href="#mb5c759dce4" x="150.466084" y="167.807181" style="fill: #1f77b4; stroke: #1f77b4"/>
     <use xlink:href="#mb5c759dce4" x="154.265233" y="148.653954" style="fill: #1f77b4; stroke: #1f77b4"/>
     <use xlink:href="#mb5c759dce4" x="158.064382" y="146.296633" style="fill: #1f77b4; stroke: #1f77b4"/>
     <use xlink:href="#mb5c759dce4" x="161.863531" y="141.287328" style="fill: #1f77b4; stroke: #1f77b4"/>
     <use xlink:href="#mb5c759dce4" x="165.66268" y="138.635342" style="fill: #1f77b4; stroke: #1f77b4"/>
     <use xlink:href="#mb5c759dce4" x="169.461828" y="133.920702" style="fill: #1f77b4; stroke: #1f77b4"/>
     <use xlink:href="#mb5c759dce4" x="173.260977" y="143.939313" style="fill: #1f77b4; stroke: #1f77b4"/>
     <use xlink:href="#mb5c759dce4" x="177.060126" y="132.742041" style="fill: #1f77b4; stroke: #1f77b4"/>
     <use xlink:href="#mb5c759dce4" x="180.859275" y="132.447376" style="fill: #1f77b4; stroke: #1f77b4"/>
     <use xlink:href="#mb5c759dce4" x="184.658424" y="130.384721" style="fill: #1f77b4; stroke: #1f77b4"/>
     <use xlink:href="#mb5c759dce4" x="188.457573" y="129.206061" style="fill: #1f77b4; stroke: #1f77b4"/>
     <use xlink:href="#mb5c759dce4" x="192.256722" y="128.322066" style="fill: #1f77b4; stroke: #1f77b4"/>
     <use xlink:href="#mb5c759dce4" x="196.055871" y="127.438071" style="fill: #1f77b4; stroke: #1f77b4"/>
     <use xlink:href="#mb5c759dce4" x="199.85502" y="128.322066" style="fill: #1f77b4; stroke: #1f77b4"/>
     <use xlink:href="#mb5c759dce4" x="203.654169" y="127.732736" style="fill: #1f77b4; stroke: #1f77b4"/>
     <use xlink:href="#mb5c759dce4" x="207.453318" y="124.786085" style="fill: #1f77b4; stroke: #1f77b4"/>
     <use xlink:href="#mb5c759dce4" x="211.252467" y="124.196755" style="fill: #1f77b4; stroke: #1f77b4"/>
     <use xlink:href="#mb5c759dce4" x="215.051616" y="123.018095" style="fill: #1f77b4; stroke: #1f77b4"/>
     <use xlink:href="#mb5c759dce4" x="218.850765" y="121.250105" style="fill: #1f77b4; stroke: #1f77b4"/>
     <use xlink:href="#mb5c759dce4" x="222.649914" y="120.660775" style="fill: #1f77b4; stroke: #1f77b4"/>
     <use xlink:href="#mb5c759dce4" x="226.449063" y="118.598119" style="fill: #1f77b4; stroke: #1f77b4"/>
     <use xlink:href="#mb5c759dce4" x="230.248211" y="116.830129" style="fill: #1f77b4; stroke: #1f77b4"/>
     <use xlink:href="#mb5c759dce4" x="234.04736" y="114.767474" style="fill: #1f77b4; stroke: #1f77b4"/>
     <use xlink:href="#mb5c759dce4" x="237.846509" y="113.294149" style="fill: #1f77b4; stroke: #1f77b4"/>
     <use xlink:href="#mb5c759dce4" x="241.645658" y="110.052833" style="fill: #1f77b4; stroke: #1f77b4"/>
     <use xlink:href="#mb5c759dce4" x="245.444807" y="109.758168" style="fill: #1f77b4; stroke: #1f77b4"/>
     <use xlink:href="#mb5c759dce4" x="249.243956" y="108.579508" style="fill: #1f77b4; stroke: #1f77b4"/>
     <use xlink:href="#mb5c759dce4" x="253.043105" y="108.874173" style="fill: #1f77b4; stroke: #1f77b4"/>
     <use xlink:href="#mb5c759dce4" x="256.842254" y="107.990178" style="fill: #1f77b4; stroke: #1f77b4"/>
     <use xlink:href="#mb5c759dce4" x="260.641403" y="105.043527" style="fill: #1f77b4; stroke: #1f77b4"/>
     <use xlink:href="#mb5c759dce4" x="264.440552" y="104.454197" style="fill: #1f77b4; stroke: #1f77b4"/>
     <use xlink:href="#mb5c759dce4" x="268.239701" y="104.159532" style="fill: #1f77b4; stroke: #1f77b4"/>
     <use xlink:href="#mb5c759dce4" x="272.03885" y="105.632857" style="fill: #1f77b4; stroke: #1f77b4"/>
     <use xlink:href="#mb5c759dce4" x="275.837999" y="106.811518" style="fill: #1f77b4; stroke: #1f77b4"/>
     <use xlink:href="#mb5c759dce4" x="279.637148" y="104.454197" style="fill: #1f77b4; stroke: #1f77b4"/>
     <use xlink:href="#mb5c759dce4" x="283.436297" y="105.043527" style="fill: #1f77b4; stroke: #1f77b4"/>
     <use xlink:href="#mb5c759dce4" x="287.235445" y="104.159532" style="fill: #1f77b4; stroke: #1f77b4"/>
     <use xlink:href="#mb5c759dce4" x="291.034594" y="101.507547" style="fill: #1f77b4; stroke: #1f77b4"/>
     <use xlink:href="#mb5c759dce4" x="294.833743" y="101.212882" style="fill: #1f77b4; stroke: #1f77b4"/>
     <use xlink:href="#mb5c759dce4" x="298.632892" y="99.150227" style="fill: #1f77b4; stroke: #1f77b4"/>
     <use xlink:href="#mb5c759dce4" x="302.432041" y="97.382236" style="fill: #1f77b4; stroke: #1f77b4"/>
     <use xlink:href="#mb5c759dce4" x="306.23119" y="94.140921" style="fill: #1f77b4; stroke: #1f77b4"/>
     <use xlink:href="#mb5c759dce4" x="310.030339" y="96.203576" style="fill: #1f77b4; stroke: #1f77b4"/>
     <use xlink:href="#mb5c759dce4" x="313.829488" y="95.319581" style="fill: #1f77b4; stroke: #1f77b4"/>
     <use xlink:href="#mb5c759dce4" x="317.628637" y="97.971566" style="fill: #1f77b4; stroke: #1f77b4"/>
     <use xlink:href="#mb5c759dce4" x="321.427786" y="95.024916" style="fill: #1f77b4; stroke: #1f77b4"/>
     <use xlink:href="#mb5c759dce4" x="325.226935" y="92.667596" style="fill: #1f77b4; stroke: #1f77b4"/>
     <use xlink:href="#mb5c759dce4" x="329.026084" y="88.542285" style="fill: #1f77b4; stroke: #1f77b4"/>
     <use xlink:href="#mb5c759dce4" x="332.825233" y="86.774295" style="fill: #1f77b4; stroke: #1f77b4"/>
     <use xlink:href="#mb5c759dce4" x="336.624382" y="85.30097" style="fill: #1f77b4; stroke: #1f77b4"/>
     <use xlink:href="#mb5c759dce4" x="340.423531" y="85.8903" style="fill: #1f77b4; stroke: #1f77b4"/>
     <use xlink:href="#mb5c759dce4" x="344.22268" y="82.943649" style="fill: #1f77b4; stroke: #1f77b4"/>
     <use xlink:href="#mb5c759dce4" x="348.021828" y="75.577023" style="fill: #1f77b4; stroke: #1f77b4"/>
     <use xlink:href="#mb5c759dce4" x="351.820977" y="69.094392" style="fill: #1f77b4; stroke: #1f77b4"/>
     <use xlink:href="#mb5c759dce4" x="355.620126" y="69.389057" style="fill: #1f77b4; stroke: #1f77b4"/>
     <use xlink:href="#mb5c759dce4" x="359.419275" y="64.674417" style="fill: #1f77b4; stroke: #1f77b4"/>
     <use xlink:href="#mb5c759dce4" x="363.218424" y="59.959776" style="fill: #1f77b4; stroke: #1f77b4"/>
     <use xlink:href="#mb5c759dce4" x="367.017573" y="61.433101" style="fill: #1f77b4; stroke: #1f77b4"/>
     <use xlink:href="#mb5c759dce4" x="370.816722" y="60.549106" style="fill: #1f77b4; stroke: #1f77b4"/>
     <use xlink:href="#mb5c759dce4" x="374.615871" y="55.245135" style="fill: #1f77b4; stroke: #1f77b4"/>
     <use xlink:href="#mb5c759dce4" x="378.41502" y="55.245135" style="fill: #1f77b4; stroke: #1f77b4"/>
     <use xlink:href="#mb5c759dce4" x="382.214169" y="53.477145" style="fill: #1f77b4; stroke: #1f77b4"/>
     <use xlink:href="#mb5c759dce4" x="386.013318" y="51.41449" style="fill: #1f77b4; stroke: #1f77b4"/>
     <use xlink:href="#mb5c759dce4" x="389.812467" y="51.41449" style="fill: #1f77b4; stroke: #1f77b4"/>
     <use xlink:href="#mb5c759dce4" x="393.611616" y="45.226524" style="fill: #1f77b4; stroke: #1f77b4"/>
     <use xlink:href="#mb5c759dce4" x="397.410765" y="28.135951" style="fill: #1f77b4; stroke: #1f77b4"/>
     <use xlink:href="#mb5c759dce4" x="401.209914" y="20.47466" style="fill: #1f77b4; stroke: #1f77b4"/>
     <use xlink:href="#mb5c759dce4" x="405.009063" y="19.296" style="fill: #1f77b4; stroke: #1f77b4"/>
    </g>
   </g>
   <g id="patch_3">
    <path d="M 47.889063 273.312 
L 47.889063 7.2 
" style="fill: none; stroke: #000000; stroke-width: 0.8; stroke-linejoin: miter; stroke-linecap: square"/>
   </g>
   <g id="patch_4">
    <path d="M 405.009063 273.312 
L 405.009063 7.2 
" style="fill: none; stroke: #000000; stroke-width: 0.8; stroke-linejoin: miter; stroke-linecap: square"/>
   </g>
   <g id="patch_5">
    <path d="M 47.889063 273.312 
L 405.009063 273.312 
" style="fill: none; stroke: #000000; stroke-width: 0.8; stroke-linejoin: miter; stroke-linecap: square"/>
   </g>
   <g id="patch_6">
    <path d="M 47.889063 7.2 
L 405.009063 7.2 
" style="fill: none; stroke: #000000; stroke-width: 0.8; stroke-linejoin: miter; stroke-linecap: square"/>
   </g>
   <g id="legend_1">
    <g id="patch_7">
     <path d="M 54.889063 29.959375 
L 133.739062 29.959375 
Q 135.739062 29.959375 135.739062 27.959375 
L 135.739062 14.2 
Q 135.739062 12.2 133.739062 12.2 
L 54.889063 12.2 
Q 52.889063 12.2 52.889063 14.2 
L 52.889063 27.959375 
Q 52.889063 29.959375 54.889063 29.959375 
z
" style="fill: #ffffff; opacity: 0.8; stroke: #cccccc; stroke-linejoin: miter"/>
    </g>
    <g id="line2d_26">
     <path d="M 56.889063 20.409375 
L 66.889062 20.409375 
L 76.889062 20.409375 
" style="fill: none; stroke: #1f77b4; stroke-width: 1.5; stroke-linecap: square"/>
     <g>
      <use xlink:href="#mb5c759dce4" x="66.889062" y="20.409375" style="fill: #1f77b4; stroke: #1f77b4"/>
     </g>
    </g>
    <g id="text_10">
     <!-- followers -->
     <g transform="translate(84.889062 23.909375) scale(0.1 -0.1)">
      <defs>
       <path id="HiraginoSans-W4-66" d="M 922 3034 
L 922 755 
C 922 467 909 237 877 0 
L 1549 0 
C 1517 224 1504 429 1504 755 
L 1504 3034 
L 1818 3034 
C 2131 3034 2291 3021 2509 2995 
L 2509 3558 
C 2266 3533 2080 3520 1818 3520 
L 1504 3520 
L 1504 3846 
C 1504 4198 1542 4333 1670 4429 
C 1760 4493 1882 4518 2048 4518 
C 2227 4518 2394 4474 2566 4378 
L 2714 4870 
C 2470 4960 2259 4998 2010 4998 
C 1626 4998 1318 4890 1152 4691 
C 986 4506 922 4282 922 3885 
L 922 3520 
L 659 3520 
C 416 3520 243 3533 70 3558 
L 70 2995 
C 269 3021 435 3034 659 3034 
L 922 3034 
z
" transform="scale(0.015625)"/>
       <path id="HiraginoSans-W4-6f" d="M 2054 -90 
C 3110 -90 3802 640 3802 1766 
C 3802 2893 3117 3610 2042 3610 
C 966 3610 282 2886 282 1760 
C 282 627 966 -90 2054 -90 
z
M 2054 3130 
C 2771 3130 3213 2605 3213 1754 
C 3213 909 2771 397 2042 397 
C 1318 397 870 922 870 1766 
C 870 2611 1325 3130 2054 3130 
z
" transform="scale(0.015625)"/>
       <path id="HiraginoSans-W4-6c" d="M 442 4934 
C 474 4704 486 4518 486 4179 
L 486 755 
C 486 429 474 250 442 0 
L 1120 0 
C 1088 262 1075 448 1075 755 
L 1075 4179 
C 1075 4512 1088 4698 1120 4934 
L 442 4934 
z
" transform="scale(0.015625)"/>
       <path id="HiraginoSans-W4-77" d="M 2592 3520 
C 2573 3398 2522 3187 2458 3002 
L 1971 1555 
C 1914 1376 1824 1043 1747 717 
C 1690 1030 1619 1344 1555 1581 
L 1197 2803 
C 1114 3078 1069 3322 1050 3520 
L 365 3520 
C 442 3309 544 3008 627 2752 
L 1318 525 
C 1408 224 1427 154 1459 0 
L 1990 0 
C 2016 128 2074 326 2138 518 
L 2720 2272 
C 2739 2330 2797 2522 2842 2694 
C 2918 2426 2944 2336 2957 2285 
L 3546 518 
C 3610 320 3661 134 3686 0 
L 4211 0 
C 4237 141 4269 243 4352 518 
L 5050 2752 
C 5190 3213 5242 3354 5306 3520 
L 4621 3520 
C 4608 3328 4563 3085 4480 2803 
L 4141 1645 
C 4051 1318 4013 1146 3923 710 
C 3846 1088 3795 1299 3731 1485 
L 3232 3002 
C 3168 3187 3110 3405 3098 3520 
L 2592 3520 
z
" transform="scale(0.015625)"/>
       <path id="HiraginoSans-W4-73" d="M 262 973 
C 326 704 378 589 480 448 
C 730 109 1184 -70 1786 -70 
C 2707 -70 3270 339 3270 1011 
C 3270 1293 3136 1555 2912 1722 
C 2720 1862 2483 1946 1894 2074 
C 1510 2157 1357 2208 1210 2285 
C 1075 2355 998 2483 998 2624 
C 998 2944 1312 3162 1760 3162 
C 2042 3162 2259 3078 2400 2925 
C 2483 2835 2515 2758 2554 2598 
L 3155 2688 
C 3066 2982 2982 3136 2810 3283 
C 2573 3494 2208 3610 1754 3610 
C 1299 3610 941 3494 698 3258 
C 518 3091 416 2861 416 2618 
C 416 2310 557 2054 819 1888 
C 1043 1747 1261 1677 1760 1574 
C 2246 1466 2349 1440 2490 1350 
C 2618 1274 2682 1139 2682 973 
C 2682 621 2342 397 1818 397 
C 1504 397 1267 474 1107 614 
C 986 730 934 832 890 1069 
L 262 973 
z
" transform="scale(0.015625)"/>
      </defs>
      <use xlink:href="#HiraginoSans-W4-66"/>
      <use xlink:href="#HiraginoSans-W4-6f" x="43.399994"/>
      <use xlink:href="#HiraginoSans-W4-6c" x="107.199982"/>
      <use xlink:href="#HiraginoSans-W4-6c" x="131.499969"/>
      <use xlink:href="#HiraginoSans-W4-6f" x="155.799957"/>
      <use xlink:href="#HiraginoSans-W4-77" x="219.599945"/>
      <use xlink:href="#HiraginoSans-W4-65" x="308.299927"/>
      <use xlink:href="#HiraginoSans-W4-72" x="368.499924"/>
      <use xlink:href="#HiraginoSans-W4-73" x="413.199921"/>
     </g>
    </g>
   </g>
  </g>
 </g>
 <defs>
  <clipPath id="p4880ee6145">
   <rect x="47.889063" y="7.2" width="357.12" height="266.112"/>
  </clipPath>
 </defs>
</svg>
