<?xml version="1.0" encoding="utf-8" standalone="no"?>
<!DOCTYPE svg PUBLIC "-//W3C//DTD SVG 1.1//EN"
  "http://www.w3.org/Graphics/SVG/1.1/DTD/svg11.dtd">
<svg xmlns:xlink="http://www.w3.org/1999/xlink" width="483.779687pt" height="197.479375pt" viewBox="0 0 483.779687 197.479375" xmlns="http://www.w3.org/2000/svg" version="1.1">
 <metadata>
  <rdf:RDF xmlns:dc="http://purl.org/dc/elements/1.1/" xmlns:cc="http://creativecommons.org/ns#" xmlns:rdf="http://www.w3.org/1999/02/22-rdf-syntax-ns#">
   <cc:Work>
    <dc:type rdf:resource="http://purl.org/dc/dcmitype/StillImage"/>
    <dc:date>2023-06-17T13:06:31.921180</dc:date>
    <dc:format>image/svg+xml</dc:format>
    <dc:creator>
     <cc:Agent>
      <dc:title>Matplotlib v3.7.1, https://matplotlib.org/</dc:title>
     </cc:Agent>
    </dc:creator>
   </cc:Work>
  </rdf:RDF>
 </metadata>
 <defs>
  <style type="text/css">*{stroke-linejoin: round; stroke-linecap: butt}</style>
 </defs>
 <g id="figure_1">
  <g id="patch_1">
   <path d="M 0 197.479375 
L 483.779687 197.479375 
L 483.779687 0 
L 0 0 
z
" style="fill: #ffffff"/>
  </g>
  <g id="axes_1">
   <g id="patch_2">
    <path d="M 30.179688 173.52 
L 476.579687 173.52 
L 476.579687 7.2 
L 30.179688 7.2 
z
" style="fill: #ffffff"/>
   </g>
   <g id="matplotlib.axis_1">
    <g id="xtick_1">
     <g id="line2d_1">
      <defs>
       <path id="m4d5aa0ffd9" d="M 0 0 
L 0 3.5 
" style="stroke: #000000; stroke-width: 0.8"/>
      </defs>
      <g>
       <use xlink:href="#m4d5aa0ffd9" x="91.052415" y="173.52" style="stroke: #000000; stroke-width: 0.8"/>
      </g>
     </g>
     <g id="text_1">
      <!-- −4 -->
      <g transform="translate(84.357102 188.229375) scale(0.1 -0.1)">
       <defs>
        <path id="HiraginoSans-W4-2212" d="M 320 1498 
L 3930 1498 
L 3930 2022 
L 320 2022 
L 320 1498 
z
" transform="scale(0.015625)"/>
        <path id="HiraginoSans-W4-34" d="M 179 1210 
C 403 1229 589 1235 954 1235 
L 2688 1235 
L 2688 710 
C 2688 410 2675 218 2630 0 
L 3309 0 
C 3270 230 3258 390 3258 704 
L 3258 1235 
L 3494 1235 
C 3763 1235 3910 1222 4154 1190 
L 4154 1798 
C 3917 1766 3750 1754 3494 1754 
L 3258 1754 
L 3258 3853 
C 3258 4358 3264 4544 3296 4934 
L 2701 4934 
C 2560 4704 2445 4550 2214 4269 
L 621 2298 
C 467 2099 326 1939 179 1773 
L 179 1210 
z
M 2688 1747 
L 858 1747 
L 2259 3514 
C 2464 3763 2592 3936 2720 4128 
C 2694 3814 2688 3622 2688 3283 
L 2688 1747 
z
" transform="scale(0.015625)"/>
       </defs>
       <use xlink:href="#HiraginoSans-W4-2212"/>
       <use xlink:href="#HiraginoSans-W4-34" x="66.399994"/>
      </g>
     </g>
    </g>
    <g id="xtick_2">
     <g id="line2d_2">
      <g>
       <use xlink:href="#m4d5aa0ffd9" x="172.216051" y="173.52" style="stroke: #000000; stroke-width: 0.8"/>
      </g>
     </g>
     <g id="text_2">
      <!-- −2 -->
      <g transform="translate(165.530895 188.229375) scale(0.1 -0.1)">
       <defs>
        <path id="HiraginoSans-W4-32" d="M 3078 0 
C 3424 0 3642 -6 3917 -32 
L 3917 589 
C 3693 557 3430 544 3091 544 
L 1114 544 
C 1280 1114 1606 1478 2451 2042 
C 3181 2528 3341 2656 3546 2912 
C 3738 3142 3846 3443 3846 3744 
C 3846 4525 3200 5030 2202 5030 
C 1613 5030 1158 4858 858 4518 
C 640 4269 531 4026 442 3565 
L 1088 3469 
C 1139 3782 1190 3936 1306 4102 
C 1491 4371 1792 4506 2208 4506 
C 2816 4506 3206 4211 3206 3744 
C 3206 3360 2995 3085 2387 2675 
C 1754 2246 1600 2138 1389 1952 
C 979 1594 710 1229 544 806 
C 448 563 429 461 365 -26 
C 576 -6 678 0 1107 0 
L 3078 0 
z
" transform="scale(0.015625)"/>
       </defs>
       <use xlink:href="#HiraginoSans-W4-2212"/>
       <use xlink:href="#HiraginoSans-W4-32" x="66.399994"/>
      </g>
     </g>
    </g>
    <g id="xtick_3">
     <g id="line2d_3">
      <g>
       <use xlink:href="#m4d5aa0ffd9" x="253.379687" y="173.52" style="stroke: #000000; stroke-width: 0.8"/>
      </g>
     </g>
     <g id="text_3">
      <!-- 0 -->
      <g transform="translate(250.014844 188.229375) scale(0.1 -0.1)">
       <defs>
        <path id="HiraginoSans-W4-30" d="M 2144 -90 
C 2758 -90 3232 141 3565 602 
C 3846 998 4019 1696 4019 2464 
C 4019 3002 3936 3501 3770 3949 
C 3693 4160 3558 4371 3379 4550 
C 3078 4858 2650 5024 2157 5024 
C 1498 5024 986 4742 666 4205 
C 435 3834 288 3142 288 2458 
C 288 1939 371 1434 538 986 
C 614 768 749 563 928 384 
C 1242 70 1651 -90 2144 -90 
z
M 2144 4499 
C 2592 4499 2918 4307 3123 3923 
C 3283 3629 3398 3014 3398 2470 
C 3398 2022 3341 1619 3213 1235 
C 3155 1043 3046 870 2912 730 
C 2726 538 2458 435 2150 435 
C 1734 435 1414 614 1197 973 
C 1024 1261 902 1875 902 2451 
C 902 2906 966 3328 1088 3699 
C 1139 3866 1235 4026 1370 4173 
C 1568 4397 1818 4499 2144 4499 
z
" transform="scale(0.015625)"/>
       </defs>
       <use xlink:href="#HiraginoSans-W4-30"/>
      </g>
     </g>
    </g>
    <g id="xtick_4">
     <g id="line2d_4">
      <g>
       <use xlink:href="#m4d5aa0ffd9" x="334.543324" y="173.52" style="stroke: #000000; stroke-width: 0.8"/>
      </g>
     </g>
     <g id="text_4">
      <!-- 2 -->
      <g transform="translate(331.17848 188.229375) scale(0.1 -0.1)">
       <use xlink:href="#HiraginoSans-W4-32"/>
      </g>
     </g>
    </g>
    <g id="xtick_5">
     <g id="line2d_5">
      <g>
       <use xlink:href="#m4d5aa0ffd9" x="415.70696" y="173.52" style="stroke: #000000; stroke-width: 0.8"/>
      </g>
     </g>
     <g id="text_5">
      <!-- 4 -->
      <g transform="translate(412.33196 188.229375) scale(0.1 -0.1)">
       <use xlink:href="#HiraginoSans-W4-34"/>
      </g>
     </g>
    </g>
   </g>
   <g id="matplotlib.axis_2">
    <g id="ytick_1">
     <g id="line2d_6">
      <defs>
       <path id="m2b4e062c70" d="M 0 0 
L -3.5 0 
" style="stroke: #000000; stroke-width: 0.8"/>
      </defs>
      <g>
       <use xlink:href="#m2b4e062c70" x="30.179688" y="166.985689" style="stroke: #000000; stroke-width: 0.8"/>
      </g>
     </g>
     <g id="text_6">
      <!-- 0.0 -->
      <g transform="translate(7.220312 170.840376) scale(0.1 -0.1)">
       <defs>
        <path id="HiraginoSans-W4-2e" d="M 442 723 
L 442 0 
L 1165 0 
L 1165 723 
L 442 723 
z
" transform="scale(0.015625)"/>
       </defs>
       <use xlink:href="#HiraginoSans-W4-30"/>
       <use xlink:href="#HiraginoSans-W4-2e" x="67.299988"/>
       <use xlink:href="#HiraginoSans-W4-30" x="92.299973"/>
      </g>
     </g>
    </g>
    <g id="ytick_2">
     <g id="line2d_7">
      <g>
       <use xlink:href="#m2b4e062c70" x="30.179688" y="136.335413" style="stroke: #000000; stroke-width: 0.8"/>
      </g>
     </g>
     <g id="text_7">
      <!-- 0.2 -->
      <g transform="translate(7.220312 140.190101) scale(0.1 -0.1)">
       <use xlink:href="#HiraginoSans-W4-30"/>
       <use xlink:href="#HiraginoSans-W4-2e" x="67.299988"/>
       <use xlink:href="#HiraginoSans-W4-32" x="92.299973"/>
      </g>
     </g>
    </g>
    <g id="ytick_3">
     <g id="line2d_8">
      <g>
       <use xlink:href="#m2b4e062c70" x="30.179688" y="105.685138" style="stroke: #000000; stroke-width: 0.8"/>
      </g>
     </g>
     <g id="text_8">
      <!-- 0.4 -->
      <g transform="translate(7.2 109.539825) scale(0.1 -0.1)">
       <use xlink:href="#HiraginoSans-W4-30"/>
       <use xlink:href="#HiraginoSans-W4-2e" x="67.299988"/>
       <use xlink:href="#HiraginoSans-W4-34" x="92.299973"/>
      </g>
     </g>
    </g>
    <g id="ytick_4">
     <g id="line2d_9">
      <g>
       <use xlink:href="#m2b4e062c70" x="30.179688" y="75.034862" style="stroke: #000000; stroke-width: 0.8"/>
      </g>
     </g>
     <g id="text_9">
      <!-- 0.6 -->
      <g transform="translate(7.220312 78.88955) scale(0.1 -0.1)">
       <defs>
        <path id="HiraginoSans-W4-36" d="M 3846 3994 
C 3706 4301 3616 4442 3462 4602 
C 3187 4877 2784 5024 2304 5024 
C 1683 5024 1222 4794 864 4307 
C 557 3891 371 3162 371 2355 
C 371 1446 614 704 1043 320 
C 1331 58 1773 -90 2253 -90 
C 3277 -90 3968 589 3968 1587 
C 3968 2586 3334 3213 2323 3213 
C 1894 3213 1568 3104 1274 2854 
C 1133 2739 1062 2656 941 2458 
C 979 3085 1043 3392 1210 3763 
C 1434 4262 1798 4518 2285 4518 
C 2765 4518 3040 4314 3238 3821 
L 3846 3994 
z
M 2266 2714 
C 2950 2714 3366 2285 3366 1574 
C 3366 1325 3309 1088 3206 922 
C 3008 614 2643 422 2234 422 
C 1568 422 1069 915 1069 1574 
C 1069 2234 1574 2714 2266 2714 
z
" transform="scale(0.015625)"/>
       </defs>
       <use xlink:href="#HiraginoSans-W4-30"/>
       <use xlink:href="#HiraginoSans-W4-2e" x="67.299988"/>
       <use xlink:href="#HiraginoSans-W4-36" x="92.299973"/>
      </g>
     </g>
    </g>
    <g id="ytick_5">
     <g id="line2d_10">
      <g>
       <use xlink:href="#m2b4e062c70" x="30.179688" y="44.384587" style="stroke: #000000; stroke-width: 0.8"/>
      </g>
     </g>
     <g id="text_10">
      <!-- 0.8 -->
      <g transform="translate(7.220312 48.239274) scale(0.1 -0.1)">
       <defs>
        <path id="HiraginoSans-W4-38" d="M 1446 2586 
C 1203 2547 1056 2490 851 2355 
C 480 2106 294 1754 294 1299 
C 294 397 966 -102 2163 -102 
C 3347 -102 4006 397 4006 1299 
C 4006 1728 3853 2061 3539 2304 
C 3322 2470 3136 2547 2867 2586 
C 3437 2714 3789 3162 3789 3757 
C 3789 4550 3162 5043 2150 5043 
C 1146 5043 512 4544 512 3750 
C 512 3162 877 2701 1446 2586 
z
M 2150 4538 
C 2784 4538 3187 4211 3187 3699 
C 3187 3155 2797 2829 2157 2829 
C 1510 2829 1114 3162 1114 3699 
C 1114 4211 1523 4538 2150 4538 
z
M 2157 2304 
C 2912 2304 3373 1939 3373 1344 
C 3373 749 2925 410 2144 410 
C 1376 410 928 749 928 1338 
C 928 1939 1389 2304 2157 2304 
z
" transform="scale(0.015625)"/>
       </defs>
       <use xlink:href="#HiraginoSans-W4-30"/>
       <use xlink:href="#HiraginoSans-W4-2e" x="67.299988"/>
       <use xlink:href="#HiraginoSans-W4-38" x="92.299973"/>
      </g>
     </g>
    </g>
    <g id="ytick_6">
     <g id="line2d_11">
      <g>
       <use xlink:href="#m2b4e062c70" x="30.179688" y="13.734311" style="stroke: #000000; stroke-width: 0.8"/>
      </g>
     </g>
     <g id="text_11">
      <!-- 1.0 -->
      <g transform="translate(7.220312 17.588999) scale(0.1 -0.1)">
       <defs>
        <path id="HiraginoSans-W4-31" d="M 1018 4371 
C 1222 4397 1389 4410 1606 4410 
L 1939 4410 
L 1939 755 
C 1939 454 1926 237 1888 0 
L 2598 0 
C 2560 250 2547 448 2547 755 
L 2547 3904 
C 2547 4256 2566 4582 2605 4966 
C 2387 4941 2278 4934 2035 4934 
L 1581 4934 
C 1325 4934 1197 4941 1018 4966 
L 1018 4371 
z
" transform="scale(0.015625)"/>
       </defs>
       <use xlink:href="#HiraginoSans-W4-31"/>
       <use xlink:href="#HiraginoSans-W4-2e" x="67.299988"/>
       <use xlink:href="#HiraginoSans-W4-30" x="92.299973"/>
      </g>
     </g>
    </g>
   </g>
   <g id="line2d_12">
    <path d="M 50.470597 165.96 
L 58.7526 165.729689 
L 67.034604 165.448186 
L 75.316608 165.104371 
L 83.598611 164.684838 
L 91.880615 164.173489 
L 100.162619 163.551081 
L 108.444623 162.794756 
L 116.726626 161.877562 
L 125.00863 160.768011 
L 133.290634 159.429743 
L 141.572637 157.821386 
L 149.854641 155.896731 
L 158.136645 153.605402 
L 166.418649 150.894204 
L 174.700652 147.709356 
L 182.982656 143.999796 
L 191.26466 139.721636 
L 199.546663 134.843692 
L 207.828667 129.353693 
L 216.110671 123.2645 
L 224.392675 116.619233 
L 232.674678 109.494096 
L 240.956682 101.997682 
L 249.238686 94.266085 
L 257.520689 86.453915 
L 265.802693 78.722318 
L 274.084697 71.225904 
L 282.3667 64.100767 
L 290.648704 57.4555 
L 298.930708 51.366307 
L 307.212712 45.876308 
L 315.494715 40.998364 
L 323.776719 36.720204 
L 332.058723 33.010644 
L 340.340726 29.825796 
L 348.62273 27.114598 
L 356.904734 24.823269 
L 365.186738 22.898614 
L 373.468741 21.290257 
L 381.750745 19.951989 
L 390.032749 18.842438 
L 398.314752 17.925244 
L 406.596756 17.168919 
L 414.87876 16.546511 
L 423.160764 16.035162 
L 431.442767 15.615629 
L 439.724771 15.271814 
L 448.006775 14.990311 
L 456.288778 14.76 
" clip-path="url(#p5108a1eb83)" style="fill: none; stroke: #1f77b4; stroke-width: 1.5; stroke-linecap: square"/>
   </g>
   <g id="patch_3">
    <path d="M 30.179688 173.52 
L 30.179688 7.2 
" style="fill: none; stroke: #000000; stroke-width: 0.8; stroke-linejoin: miter; stroke-linecap: square"/>
   </g>
   <g id="patch_4">
    <path d="M 476.579687 173.52 
L 476.579687 7.2 
" style="fill: none; stroke: #000000; stroke-width: 0.8; stroke-linejoin: miter; stroke-linecap: square"/>
   </g>
   <g id="patch_5">
    <path d="M 30.179688 173.52 
L 476.579687 173.52 
" style="fill: none; stroke: #000000; stroke-width: 0.8; stroke-linejoin: miter; stroke-linecap: square"/>
   </g>
   <g id="patch_6">
    <path d="M 30.179688 7.2 
L 476.579687 7.2 
" style="fill: none; stroke: #000000; stroke-width: 0.8; stroke-linejoin: miter; stroke-linecap: square"/>
   </g>
  </g>
 </g>
 <defs>
  <clipPath id="p5108a1eb83">
   <rect x="30.179688" y="7.2" width="446.4" height="166.32"/>
  </clipPath>
 </defs>
</svg>
