<?xml version="1.0" encoding="utf-8" standalone="no"?>
<!DOCTYPE svg PUBLIC "-//W3C//DTD SVG 1.1//EN"
  "http://www.w3.org/Graphics/SVG/1.1/DTD/svg11.dtd">
<svg xmlns:xlink="http://www.w3.org/1999/xlink" width="310.643832pt" height="297.271375pt" viewBox="0 0 310.643832 297.271375" xmlns="http://www.w3.org/2000/svg" version="1.1">
 <metadata>
  <rdf:RDF xmlns:dc="http://purl.org/dc/elements/1.1/" xmlns:cc="http://creativecommons.org/ns#" xmlns:rdf="http://www.w3.org/1999/02/22-rdf-syntax-ns#">
   <cc:Work>
    <dc:type rdf:resource="http://purl.org/dc/dcmitype/StillImage"/>
    <dc:date>2023-12-03T17:49:57.340743</dc:date>
    <dc:format>image/svg+xml</dc:format>
    <dc:creator>
     <cc:Agent>
      <dc:title>Matplotlib v3.8.2, https://matplotlib.org/</dc:title>
     </cc:Agent>
    </dc:creator>
   </cc:Work>
  </rdf:RDF>
 </metadata>
 <defs>
  <style type="text/css">*{stroke-linejoin: round; stroke-linecap: butt}</style>
 </defs>
 <g id="figure_1">
  <g id="patch_1">
   <path d="M 0 297.271375 
L 310.643832 297.271375 
L 310.643832 0 
L 0 0 
z
" style="fill: #ffffff"/>
  </g>
  <g id="axes_1">
   <g id="patch_2">
    <path d="M 27.659375 273.312 
L 303.443832 273.312 
L 303.443832 7.2 
L 27.659375 7.2 
z
" style="fill: #ffffff"/>
   </g>
   <g id="PathCollection_1">
    <defs>
     <path id="m1e9172c9b5" d="M 0 3 
C 0.795609 3 1.55874 2.683901 2.12132 2.12132 
C 2.683901 1.55874 3 0.795609 3 0 
C 3 -0.795609 2.683901 -1.55874 2.12132 -2.12132 
C 1.55874 -2.683901 0.795609 -3 0 -3 
C -0.795609 -3 -1.55874 -2.683901 -2.12132 -2.12132 
C -2.683901 -1.55874 -3 -0.795609 -3 0 
C -3 0.795609 -2.683901 1.55874 -2.12132 2.12132 
C -1.55874 2.683901 -0.795609 3 0 3 
z
" style="stroke: #ffffff; stroke-opacity: 0; stroke-width: 0.48"/>
    </defs>
    <g clip-path="url(#p5277679975)">
     <use xlink:href="#m1e9172c9b5" x="48.473474" y="174.424748" style="fill: #1f77b4; fill-opacity: 0; stroke: #ffffff; stroke-opacity: 0; stroke-width: 0.48"/>
     <use xlink:href="#m1e9172c9b5" x="40.844388" y="137.224382" style="fill: #1f77b4; fill-opacity: 0; stroke: #ffffff; stroke-opacity: 0; stroke-width: 0.48"/>
     <use xlink:href="#m1e9172c9b5" x="288.373858" y="215.965783" style="fill: #1f77b4; fill-opacity: 0; stroke: #ffffff; stroke-opacity: 0; stroke-width: 0.48"/>
     <use xlink:href="#m1e9172c9b5" x="290.908175" y="217.483043" style="fill: #1f77b4; fill-opacity: 0; stroke: #ffffff; stroke-opacity: 0; stroke-width: 0.48"/>
     <use xlink:href="#m1e9172c9b5" x="138.882485" y="19.296" style="fill: #1f77b4; fill-opacity: 0; stroke: #ffffff; stroke-opacity: 0; stroke-width: 0.48"/>
     <use xlink:href="#m1e9172c9b5" x="83.133827" y="172.179356" style="fill: #1f77b4; fill-opacity: 0; stroke: #ffffff; stroke-opacity: 0; stroke-width: 0.48"/>
     <use xlink:href="#m1e9172c9b5" x="61.556199" y="208.195607" style="fill: #1f77b4; fill-opacity: 0; stroke: #ffffff; stroke-opacity: 0; stroke-width: 0.48"/>
     <use xlink:href="#m1e9172c9b5" x="40.195032" y="261.216" style="fill: #1f77b4; fill-opacity: 0; stroke: #ffffff; stroke-opacity: 0; stroke-width: 0.48"/>
     <use xlink:href="#m1e9172c9b5" x="43.015299" y="252.686971" style="fill: #1f77b4; fill-opacity: 0; stroke: #ffffff; stroke-opacity: 0; stroke-width: 0.48"/>
     <use xlink:href="#m1e9172c9b5" x="75.765647" y="185.151399" style="fill: #1f77b4; fill-opacity: 0; stroke: #ffffff; stroke-opacity: 0; stroke-width: 0.48"/>
     <use xlink:href="#m1e9172c9b5" x="62.248081" y="205.198983" style="fill: #1f77b4; fill-opacity: 0; stroke: #ffffff; stroke-opacity: 0; stroke-width: 0.48"/>
     <use xlink:href="#m1e9172c9b5" x="61.374506" y="162.481958" style="fill: #1f77b4; fill-opacity: 0; stroke: #ffffff; stroke-opacity: 0; stroke-width: 0.48"/>
    </g>
   </g>
   <g id="matplotlib.axis_1">
    <g id="xtick_1">
     <g id="line2d_1">
      <defs>
       <path id="m80440f684b" d="M 0 0 
L 0 3.5 
" style="stroke: #000000; stroke-width: 0.8"/>
      </defs>
      <g>
       <use xlink:href="#m80440f684b" x="49.886897" y="273.312" style="stroke: #000000; stroke-width: 0.8"/>
      </g>
     </g>
     <g id="text_1">
      <!-- −5 -->
      <g transform="translate(43.201741 288.021375) scale(0.1 -0.1)">
       <defs>
        <path id="HiraginoSans-W4-2212" d="M 320 1498 
L 3930 1498 
L 3930 2022 
L 320 2022 
L 320 1498 
z
" transform="scale(0.015625)"/>
        <path id="HiraginoSans-W4-35" d="M 1331 4416 
L 2835 4416 
C 3155 4416 3366 4403 3622 4365 
L 3622 4986 
C 3360 4947 3206 4934 2829 4934 
L 1446 4934 
C 1082 4934 954 4941 762 4966 
C 774 4768 774 4762 774 4742 
C 774 4563 774 4518 749 4307 
L 608 2822 
C 589 2566 570 2445 518 2157 
L 1088 2106 
C 1146 2240 1178 2291 1261 2374 
C 1485 2605 1811 2739 2131 2739 
C 2842 2739 3264 2317 3264 1613 
C 3264 902 2803 435 2106 435 
C 1747 435 1440 563 1235 794 
C 1146 902 1101 986 1037 1171 
L 410 1005 
C 557 685 646 544 813 378 
C 1133 64 1562 -96 2099 -96 
C 3194 -96 3885 576 3885 1638 
C 3885 2605 3245 3238 2272 3238 
C 1830 3238 1472 3098 1158 2803 
C 1197 2982 1197 2982 1203 3091 
L 1331 4416 
z
" transform="scale(0.015625)"/>
       </defs>
       <use xlink:href="#HiraginoSans-W4-2212"/>
       <use xlink:href="#HiraginoSans-W4-35" x="66.399994"/>
      </g>
     </g>
    </g>
    <g id="xtick_2">
     <g id="line2d_2">
      <g>
       <use xlink:href="#m80440f684b" x="102.897581" y="273.312" style="stroke: #000000; stroke-width: 0.8"/>
      </g>
     </g>
     <g id="text_2">
      <!-- 0 -->
      <g transform="translate(99.532737 288.021375) scale(0.1 -0.1)">
       <defs>
        <path id="HiraginoSans-W4-30" d="M 2144 -90 
C 2758 -90 3232 141 3565 602 
C 3846 998 4019 1696 4019 2464 
C 4019 3002 3936 3501 3770 3949 
C 3693 4160 3558 4371 3379 4550 
C 3078 4858 2650 5024 2157 5024 
C 1498 5024 986 4742 666 4205 
C 435 3834 288 3142 288 2458 
C 288 1939 371 1434 538 986 
C 614 768 749 563 928 384 
C 1242 70 1651 -90 2144 -90 
z
M 2144 4499 
C 2592 4499 2918 4307 3123 3923 
C 3283 3629 3398 3014 3398 2470 
C 3398 2022 3341 1619 3213 1235 
C 3155 1043 3046 870 2912 730 
C 2726 538 2458 435 2150 435 
C 1734 435 1414 614 1197 973 
C 1024 1261 902 1875 902 2451 
C 902 2906 966 3328 1088 3699 
C 1139 3866 1235 4026 1370 4173 
C 1568 4397 1818 4499 2144 4499 
z
" transform="scale(0.015625)"/>
       </defs>
       <use xlink:href="#HiraginoSans-W4-30"/>
      </g>
     </g>
    </g>
    <g id="xtick_3">
     <g id="line2d_3">
      <g>
       <use xlink:href="#m80440f684b" x="155.908265" y="273.312" style="stroke: #000000; stroke-width: 0.8"/>
      </g>
     </g>
     <g id="text_3">
      <!-- 5 -->
      <g transform="translate(152.543421 288.021375) scale(0.1 -0.1)">
       <use xlink:href="#HiraginoSans-W4-35"/>
      </g>
     </g>
    </g>
    <g id="xtick_4">
     <g id="line2d_4">
      <g>
       <use xlink:href="#m80440f684b" x="208.918948" y="273.312" style="stroke: #000000; stroke-width: 0.8"/>
      </g>
     </g>
     <g id="text_4">
      <!-- 10 -->
      <g transform="translate(202.189261 288.021375) scale(0.1 -0.1)">
       <defs>
        <path id="HiraginoSans-W4-31" d="M 1018 4371 
C 1222 4397 1389 4410 1606 4410 
L 1939 4410 
L 1939 755 
C 1939 454 1926 237 1888 0 
L 2598 0 
C 2560 250 2547 448 2547 755 
L 2547 3904 
C 2547 4256 2566 4582 2605 4966 
C 2387 4941 2278 4934 2035 4934 
L 1581 4934 
C 1325 4934 1197 4941 1018 4966 
L 1018 4371 
z
" transform="scale(0.015625)"/>
       </defs>
       <use xlink:href="#HiraginoSans-W4-31"/>
       <use xlink:href="#HiraginoSans-W4-30" x="67.299988"/>
      </g>
     </g>
    </g>
    <g id="xtick_5">
     <g id="line2d_5">
      <g>
       <use xlink:href="#m80440f684b" x="261.929632" y="273.312" style="stroke: #000000; stroke-width: 0.8"/>
      </g>
     </g>
     <g id="text_5">
      <!-- 15 -->
      <g transform="translate(255.199945 288.021375) scale(0.1 -0.1)">
       <use xlink:href="#HiraginoSans-W4-31"/>
       <use xlink:href="#HiraginoSans-W4-35" x="67.299988"/>
      </g>
     </g>
    </g>
   </g>
   <g id="matplotlib.axis_2">
    <g id="ytick_1">
     <g id="line2d_6">
      <defs>
       <path id="m43120f99ae" d="M 0 0 
L -3.5 0 
" style="stroke: #000000; stroke-width: 0.8"/>
      </defs>
      <g>
       <use xlink:href="#m43120f99ae" x="27.659375" y="237.302703" style="stroke: #000000; stroke-width: 0.8"/>
      </g>
     </g>
     <g id="text_6">
      <!-- −5 -->
      <g transform="translate(7.289062 241.15739) scale(0.1 -0.1)">
       <use xlink:href="#HiraginoSans-W4-2212"/>
       <use xlink:href="#HiraginoSans-W4-35" x="66.399994"/>
      </g>
     </g>
    </g>
    <g id="ytick_2">
     <g id="line2d_7">
      <g>
       <use xlink:href="#m43120f99ae" x="27.659375" y="184.292019" style="stroke: #000000; stroke-width: 0.8"/>
      </g>
     </g>
     <g id="text_7">
      <!-- 0 -->
      <g transform="translate(13.929687 188.146707) scale(0.1 -0.1)">
       <use xlink:href="#HiraginoSans-W4-30"/>
      </g>
     </g>
    </g>
    <g id="ytick_3">
     <g id="line2d_8">
      <g>
       <use xlink:href="#m43120f99ae" x="27.659375" y="131.281335" style="stroke: #000000; stroke-width: 0.8"/>
      </g>
     </g>
     <g id="text_8">
      <!-- 5 -->
      <g transform="translate(13.929687 135.136023) scale(0.1 -0.1)">
       <use xlink:href="#HiraginoSans-W4-35"/>
      </g>
     </g>
    </g>
    <g id="ytick_4">
     <g id="line2d_9">
      <g>
       <use xlink:href="#m43120f99ae" x="27.659375" y="78.270652" style="stroke: #000000; stroke-width: 0.8"/>
      </g>
     </g>
     <g id="text_9">
      <!-- 10 -->
      <g transform="translate(7.2 82.125339) scale(0.1 -0.1)">
       <use xlink:href="#HiraginoSans-W4-31"/>
       <use xlink:href="#HiraginoSans-W4-30" x="67.299988"/>
      </g>
     </g>
    </g>
    <g id="ytick_5">
     <g id="line2d_10">
      <g>
       <use xlink:href="#m43120f99ae" x="27.659375" y="25.259968" style="stroke: #000000; stroke-width: 0.8"/>
      </g>
     </g>
     <g id="text_10">
      <!-- 15 -->
      <g transform="translate(7.2 29.114655) scale(0.1 -0.1)">
       <use xlink:href="#HiraginoSans-W4-31"/>
       <use xlink:href="#HiraginoSans-W4-35" x="67.299988"/>
      </g>
     </g>
    </g>
   </g>
   <g id="patch_3">
    <path d="M 27.659375 273.312 
L 27.659375 7.2 
" style="fill: none; stroke: #000000; stroke-width: 0.8; stroke-linejoin: miter; stroke-linecap: square"/>
   </g>
   <g id="patch_4">
    <path d="M 303.443832 273.312 
L 303.443832 7.2 
" style="fill: none; stroke: #000000; stroke-width: 0.8; stroke-linejoin: miter; stroke-linecap: square"/>
   </g>
   <g id="patch_5">
    <path d="M 27.659375 273.312 
L 303.443832 273.312 
" style="fill: none; stroke: #000000; stroke-width: 0.8; stroke-linejoin: miter; stroke-linecap: square"/>
   </g>
   <g id="patch_6">
    <path d="M 27.659375 7.2 
L 303.443832 7.2 
" style="fill: none; stroke: #000000; stroke-width: 0.8; stroke-linejoin: miter; stroke-linecap: square"/>
   </g>
   <g id="text_11">
    <!-- 東11 -->
    <g transform="translate(36.743786 177.254435) scale(0.1 -0.1)">
     <defs>
      <path id="HiraginoSans-W4-6771" d="M 2925 4269 
L 2925 3795 
L 1651 3795 
C 1267 3795 1101 3802 941 3827 
C 960 3629 966 3494 966 3149 
L 966 2138 
C 966 1901 960 1683 960 1638 
C 947 1523 947 1523 941 1472 
C 1133 1498 1267 1504 1677 1504 
L 2547 1504 
C 2310 1242 2093 1069 1702 819 
C 1203 506 774 320 186 160 
C 307 6 352 -70 454 -301 
C 1146 -58 1709 237 2214 621 
C 2534 864 2682 1005 2944 1325 
C 2931 1158 2925 947 2925 845 
L 2925 250 
C 2925 -77 2912 -237 2880 -467 
L 3437 -467 
C 3405 -269 3392 -90 3392 250 
L 3392 845 
C 3392 960 3386 1171 3373 1331 
C 3763 890 4090 621 4595 320 
C 5024 64 5440 -115 6003 -301 
C 6106 -83 6150 -6 6285 179 
C 5165 454 4397 858 3776 1504 
L 4762 1504 
C 5126 1504 5312 1498 5485 1472 
C 5459 1702 5459 1760 5459 2138 
L 5459 3162 
C 5459 3482 5466 3629 5485 3827 
C 5312 3802 5171 3795 4768 3795 
L 3392 3795 
L 3392 4269 
L 5274 4269 
C 5613 4269 5888 4256 6067 4230 
L 6067 4749 
C 5882 4717 5664 4704 5254 4704 
L 3392 4704 
L 3392 4749 
C 3392 4986 3405 5152 3437 5350 
L 2880 5350 
C 2912 5152 2925 5011 2925 4749 
L 2925 4704 
L 1133 4704 
C 774 4704 563 4717 346 4749 
L 346 4230 
C 582 4262 742 4269 1107 4269 
L 2925 4269 
z
M 2925 3386 
L 2925 2867 
L 1440 2867 
L 1440 3386 
L 2925 3386 
z
M 3392 3386 
L 4986 3386 
L 4986 2867 
L 3392 2867 
L 3392 3386 
z
M 2925 2470 
L 2925 1901 
L 1440 1901 
L 1440 2470 
L 2925 2470 
z
M 3392 2470 
L 4986 2470 
L 4986 1901 
L 3392 1901 
L 3392 2470 
z
" transform="scale(0.015625)"/>
     </defs>
     <use xlink:href="#HiraginoSans-W4-6771"/>
     <use xlink:href="#HiraginoSans-W4-31" x="99.999985"/>
     <use xlink:href="#HiraginoSans-W4-31" x="167.299973"/>
    </g>
   </g>
   <g id="text_12">
    <!-- 東12 -->
    <g transform="translate(29.114701 140.054069) scale(0.1 -0.1)">
     <defs>
      <path id="HiraginoSans-W4-32" d="M 3078 0 
C 3424 0 3642 -6 3917 -32 
L 3917 589 
C 3693 557 3430 544 3091 544 
L 1114 544 
C 1280 1114 1606 1478 2451 2042 
C 3181 2528 3341 2656 3546 2912 
C 3738 3142 3846 3443 3846 3744 
C 3846 4525 3200 5030 2202 5030 
C 1613 5030 1158 4858 858 4518 
C 640 4269 531 4026 442 3565 
L 1088 3469 
C 1139 3782 1190 3936 1306 4102 
C 1491 4371 1792 4506 2208 4506 
C 2816 4506 3206 4211 3206 3744 
C 3206 3360 2995 3085 2387 2675 
C 1754 2246 1600 2138 1389 1952 
C 979 1594 710 1229 544 806 
C 448 563 429 461 365 -26 
C 576 -6 678 0 1107 0 
L 3078 0 
z
" transform="scale(0.015625)"/>
     </defs>
     <use xlink:href="#HiraginoSans-W4-6771"/>
     <use xlink:href="#HiraginoSans-W4-31" x="99.999985"/>
     <use xlink:href="#HiraginoSans-W4-32" x="167.299973"/>
    </g>
   </g>
   <g id="text_13">
    <!-- 実11 -->
    <g transform="translate(276.64417 218.79547) scale(0.1 -0.1)">
     <defs>
      <path id="HiraginoSans-W4-5b9f" d="M 5376 1382 
C 5626 1382 5798 1370 6003 1344 
L 6003 1843 
C 5837 1811 5677 1805 5395 1805 
L 3245 1805 
C 3290 1997 3302 2099 3328 2355 
L 4614 2355 
C 4896 2355 5011 2349 5171 2323 
L 5171 2784 
C 5005 2758 4909 2752 4614 2752 
L 3360 2752 
C 3373 2893 3373 3008 3386 3258 
L 4666 3258 
C 4947 3258 5094 3251 5280 3226 
L 5280 3693 
C 5120 3667 4954 3661 4666 3661 
L 3392 3661 
C 3398 3942 3405 4045 3430 4147 
L 2880 4147 
C 2906 4013 2912 3923 2912 3661 
L 1734 3661 
C 1453 3661 1286 3667 1126 3693 
L 1126 3226 
C 1299 3251 1459 3258 1734 3258 
L 2912 3258 
C 2906 3059 2899 2995 2886 2752 
L 1747 2752 
C 1453 2752 1350 2758 1184 2784 
L 1184 2323 
C 1338 2349 1466 2355 1747 2355 
L 2861 2355 
C 2835 2118 2816 1978 2771 1805 
L 1043 1805 
C 762 1805 602 1811 435 1843 
L 435 1344 
C 634 1370 826 1382 1062 1382 
L 2624 1382 
C 2432 979 2150 691 1722 454 
C 1325 243 966 128 346 19 
C 493 -186 531 -250 608 -461 
C 1242 -314 1658 -147 2093 128 
C 2547 416 2861 774 3078 1280 
C 3686 384 4454 -109 5824 -467 
C 5901 -275 5978 -128 6093 26 
C 5357 160 4858 333 4397 602 
C 4038 813 3808 1024 3533 1382 
L 5376 1382 
z
M 2899 4736 
L 1171 4736 
C 877 4736 710 4742 506 4762 
C 525 4608 531 4486 531 4314 
L 531 3917 
C 531 3718 525 3603 506 3462 
L 1005 3462 
L 1005 4314 
L 5414 4314 
L 5414 3462 
L 5907 3462 
C 5888 3590 5882 3731 5882 3917 
L 5882 4320 
C 5882 4493 5888 4608 5907 4762 
C 5702 4742 5542 4736 5248 4736 
L 3398 4736 
L 3398 4954 
C 3398 5101 3411 5216 3437 5350 
L 2861 5350 
C 2886 5210 2899 5101 2899 4947 
L 2899 4736 
z
" transform="scale(0.015625)"/>
     </defs>
     <use xlink:href="#HiraginoSans-W4-5b9f"/>
     <use xlink:href="#HiraginoSans-W4-31" x="99.999985"/>
     <use xlink:href="#HiraginoSans-W4-31" x="167.299973"/>
    </g>
   </g>
   <g id="text_14">
    <!-- 実12 -->
    <g transform="translate(279.178488 220.31273) scale(0.1 -0.1)">
     <use xlink:href="#HiraginoSans-W4-5b9f"/>
     <use xlink:href="#HiraginoSans-W4-31" x="99.999985"/>
     <use xlink:href="#HiraginoSans-W4-32" x="167.299973"/>
    </g>
   </g>
   <g id="text_15">
    <!-- 実13 -->
    <g transform="translate(127.152797 22.125687) scale(0.1 -0.1)">
     <defs>
      <path id="HiraginoSans-W4-33" d="M 282 1101 
C 397 768 474 621 621 448 
C 934 90 1434 -96 2112 -96 
C 2720 -96 3213 70 3533 384 
C 3770 614 3904 954 3904 1306 
C 3904 1677 3802 1958 3597 2182 
C 3379 2419 3130 2528 2688 2586 
C 2995 2650 3130 2701 3290 2816 
C 3578 3021 3738 3366 3738 3757 
C 3738 4538 3117 5043 2157 5043 
C 1594 5043 1146 4883 845 4576 
C 666 4390 582 4237 467 3891 
L 1107 3757 
C 1171 3981 1216 4083 1306 4192 
C 1478 4416 1741 4525 2125 4525 
C 2746 4525 3110 4224 3110 3725 
C 3110 3482 3021 3264 2867 3110 
C 2669 2918 2374 2829 1965 2829 
C 1779 2829 1613 2842 1459 2861 
L 1459 2272 
C 1651 2298 1811 2310 2003 2310 
C 2829 2310 3264 1990 3264 1376 
C 3264 794 2816 429 2106 429 
C 1779 429 1510 506 1293 666 
C 1107 800 1024 928 928 1248 
L 282 1101 
z
" transform="scale(0.015625)"/>
     </defs>
     <use xlink:href="#HiraginoSans-W4-5b9f"/>
     <use xlink:href="#HiraginoSans-W4-31" x="99.999985"/>
     <use xlink:href="#HiraginoSans-W4-33" x="167.299973"/>
    </g>
   </g>
   <g id="text_16">
    <!-- 実14 -->
    <g transform="translate(71.393984 175.009044) scale(0.1 -0.1)">
     <defs>
      <path id="HiraginoSans-W4-34" d="M 179 1210 
C 403 1229 589 1235 954 1235 
L 2688 1235 
L 2688 710 
C 2688 410 2675 218 2630 0 
L 3309 0 
C 3270 230 3258 390 3258 704 
L 3258 1235 
L 3494 1235 
C 3763 1235 3910 1222 4154 1190 
L 4154 1798 
C 3917 1766 3750 1754 3494 1754 
L 3258 1754 
L 3258 3853 
C 3258 4358 3264 4544 3296 4934 
L 2701 4934 
C 2560 4704 2445 4550 2214 4269 
L 621 2298 
C 467 2099 326 1939 179 1773 
L 179 1210 
z
M 2688 1747 
L 858 1747 
L 2259 3514 
C 2464 3763 2592 3936 2720 4128 
C 2694 3814 2688 3622 2688 3283 
L 2688 1747 
z
" transform="scale(0.015625)"/>
     </defs>
     <use xlink:href="#HiraginoSans-W4-5b9f"/>
     <use xlink:href="#HiraginoSans-W4-31" x="99.999985"/>
     <use xlink:href="#HiraginoSans-W4-34" x="167.299973"/>
    </g>
   </g>
   <g id="text_17">
    <!-- 開11 -->
    <g transform="translate(49.826512 211.025295) scale(0.1 -0.1)">
     <defs>
      <path id="HiraginoSans-W4-958b" d="M 2342 2349 
C 2342 2022 2336 1920 2317 1613 
L 2118 1613 
C 1811 1613 1651 1619 1485 1645 
L 1485 1197 
C 1658 1222 1818 1229 2118 1229 
L 2285 1229 
C 2208 659 2016 339 1510 -38 
C 1677 -134 1766 -211 1888 -352 
C 2426 115 2630 512 2714 1229 
L 3610 1229 
L 3610 256 
C 3610 -13 3603 -160 3578 -294 
L 4077 -294 
C 4051 -173 4045 -32 4045 250 
L 4045 1229 
L 4301 1229 
C 4589 1229 4755 1222 4928 1197 
L 4928 1645 
C 4762 1619 4602 1613 4301 1613 
L 4045 1613 
L 4045 2349 
L 4218 2349 
C 4493 2349 4672 2342 4832 2323 
L 4832 2758 
C 4646 2733 4506 2726 4205 2726 
L 2227 2726 
C 1926 2726 1792 2733 1606 2758 
L 1606 2323 
C 1766 2342 1946 2349 2221 2349 
L 2342 2349 
z
M 3610 2349 
L 3610 1613 
L 2752 1613 
C 2771 1933 2771 1990 2771 2349 
L 3610 2349 
z
M 1062 3174 
L 2278 3174 
C 2554 3174 2726 3168 2912 3155 
C 2899 3322 2893 3475 2893 3744 
L 2893 4582 
C 2893 4826 2899 5005 2912 5190 
C 2733 5171 2579 5165 2259 5165 
L 1229 5165 
C 902 5165 736 5171 563 5190 
C 582 4986 589 4800 589 4480 
L 589 275 
C 589 -90 576 -288 550 -467 
L 1101 -467 
C 1075 -301 1062 -90 1062 269 
L 1062 3174 
z
M 1062 4800 
L 2451 4800 
L 2451 4358 
L 1062 4358 
L 1062 4800 
z
M 1062 4000 
L 2451 4000 
L 2451 3539 
L 1062 3539 
L 1062 4000 
z
M 5830 4480 
C 5830 4774 5837 4960 5862 5190 
C 5683 5171 5523 5165 5190 5165 
L 4090 5165 
C 3763 5165 3610 5171 3437 5190 
C 3450 4986 3456 4813 3456 4582 
L 3456 3744 
C 3456 3482 3450 3322 3437 3155 
C 3616 3168 3814 3174 4070 3174 
L 5357 3174 
L 5357 250 
C 5357 102 5312 70 5126 70 
C 4954 70 4672 96 4435 134 
C 4518 -45 4544 -154 4570 -352 
C 4851 -365 5011 -371 5152 -371 
C 5677 -371 5830 -243 5830 211 
L 5830 4480 
z
M 3898 4800 
L 5357 4800 
L 5357 4358 
L 3898 4358 
L 3898 4800 
z
M 3898 4000 
L 5357 4000 
L 5357 3539 
L 3898 3539 
L 3898 4000 
z
" transform="scale(0.015625)"/>
     </defs>
     <use xlink:href="#HiraginoSans-W4-958b"/>
     <use xlink:href="#HiraginoSans-W4-31" x="99.999985"/>
     <use xlink:href="#HiraginoSans-W4-31" x="167.299973"/>
    </g>
   </g>
   <g id="text_18">
    <!-- 数11 -->
    <g transform="translate(28.465345 264.045687) scale(0.1 -0.1)">
     <defs>
      <path id="HiraginoSans-W4-6570" d="M 6170 4173 
C 6003 4141 5862 4134 5568 4134 
L 4288 4134 
C 4365 4384 4435 4627 4512 4947 
C 4557 5126 4563 5152 4595 5235 
L 4077 5344 
C 4070 5158 4032 4934 3974 4672 
C 3782 3853 3437 3130 2995 2598 
C 3142 2509 3226 2438 3354 2291 
C 3526 2515 3610 2643 3770 2931 
C 3904 2176 4070 1702 4397 1158 
C 4013 653 3526 275 2803 -77 
C 2944 -218 3021 -326 3110 -506 
C 3776 -141 4256 250 4666 755 
C 5069 230 5485 -141 6035 -467 
C 6138 -237 6202 -128 6317 13 
C 5747 314 5338 653 4954 1158 
C 5171 1523 5325 1875 5440 2304 
C 5562 2739 5613 3078 5651 3699 
C 5920 3699 6035 3693 6170 3667 
L 6170 4173 
z
M 5184 3699 
C 5133 2797 4992 2214 4672 1600 
C 4358 2170 4192 2707 4064 3539 
C 4096 3610 4102 3629 4128 3699 
L 5184 3699 
z
M 3046 339 
C 2752 512 2656 570 2419 685 
C 2643 992 2746 1190 2880 1626 
L 2963 1626 
C 3187 1626 3309 1619 3443 1594 
L 3443 2067 
C 3328 2042 3206 2035 2989 2035 
L 1862 2035 
C 1926 2176 1958 2234 2029 2426 
L 1562 2528 
C 1485 2285 1453 2202 1382 2035 
L 832 2035 
C 608 2035 493 2042 365 2067 
L 365 1594 
C 499 1619 614 1626 832 1626 
L 1165 1626 
C 1005 1344 941 1248 723 954 
C 1203 774 1402 691 1702 550 
C 1376 294 902 83 326 -58 
C 429 -205 493 -314 563 -480 
C 1325 -224 1715 -19 2112 346 
C 2432 173 2502 122 2778 -77 
L 3046 339 
z
M 2419 1626 
C 2310 1306 2214 1120 2022 870 
C 1818 960 1709 1005 1357 1146 
C 1504 1370 1549 1440 1651 1626 
L 2419 1626 
z
M 2163 4070 
L 2163 4902 
C 2163 5075 2170 5203 2189 5325 
L 1696 5325 
C 1722 5184 1728 5075 1728 4896 
L 1728 4070 
L 915 4070 
C 666 4070 531 4077 390 4102 
L 390 3642 
C 518 3667 678 3674 902 3674 
L 1434 3674 
C 1133 3258 864 3034 269 2688 
C 410 2566 486 2477 589 2317 
C 1184 2739 1408 2963 1747 3494 
C 1734 3366 1728 3258 1728 3162 
L 1728 2835 
C 1728 2752 1722 2662 1702 2586 
L 2182 2586 
C 2170 2662 2163 2758 2163 2848 
L 2163 3168 
C 2163 3258 2157 3347 2138 3494 
C 2355 3162 2490 3014 2848 2739 
C 2989 2970 3002 2982 3130 3110 
C 2816 3277 2566 3469 2406 3674 
L 2989 3674 
C 3200 3674 3309 3667 3418 3648 
L 3418 4096 
C 3322 4077 3200 4070 2995 4070 
L 2163 4070 
z
M 570 5056 
C 774 4768 896 4550 1024 4211 
L 1427 4371 
C 1286 4704 1190 4883 960 5210 
L 570 5056 
z
M 2918 5235 
C 2784 4883 2643 4634 2406 4333 
L 2790 4147 
C 3008 4442 3104 4608 3328 5050 
L 2918 5235 
z
" transform="scale(0.015625)"/>
     </defs>
     <use xlink:href="#HiraginoSans-W4-6570"/>
     <use xlink:href="#HiraginoSans-W4-31" x="99.999985"/>
     <use xlink:href="#HiraginoSans-W4-31" x="167.299973"/>
    </g>
   </g>
   <g id="text_19">
    <!-- 数12 -->
    <g transform="translate(31.285612 255.516658) scale(0.1 -0.1)">
     <use xlink:href="#HiraginoSans-W4-6570"/>
     <use xlink:href="#HiraginoSans-W4-31" x="99.999985"/>
     <use xlink:href="#HiraginoSans-W4-32" x="167.299973"/>
    </g>
   </g>
   <g id="text_20">
    <!-- 日11 -->
    <g transform="translate(64.03596 187.981087) scale(0.1 -0.1)">
     <defs>
      <path id="HiraginoSans-W4-65e5" d="M 1082 301 
C 1082 13 1069 -211 1043 -410 
L 1600 -410 
L 1600 0 
L 4800 0 
L 4800 -410 
L 5357 -410 
C 5331 -198 5318 -13 5318 307 
L 5318 4410 
C 5318 4653 5325 4826 5350 5018 
C 5165 4992 4979 4986 4678 4986 
L 1747 4986 
C 1453 4986 1254 4992 1050 5018 
C 1069 4826 1082 4621 1082 4371 
L 1082 301 
z
M 1600 4512 
L 4800 4512 
L 4800 2810 
L 1600 2810 
L 1600 4512 
z
M 1600 2336 
L 4800 2336 
L 4800 474 
L 1600 474 
L 1600 2336 
z
" transform="scale(0.015625)"/>
     </defs>
     <use xlink:href="#HiraginoSans-W4-65e5"/>
     <use xlink:href="#HiraginoSans-W4-31" x="99.999985"/>
     <use xlink:href="#HiraginoSans-W4-31" x="167.299973"/>
    </g>
   </g>
   <g id="text_21">
    <!-- 日12 -->
    <g transform="translate(50.518394 208.028671) scale(0.1 -0.1)">
     <use xlink:href="#HiraginoSans-W4-65e5"/>
     <use xlink:href="#HiraginoSans-W4-31" x="99.999985"/>
     <use xlink:href="#HiraginoSans-W4-32" x="167.299973"/>
    </g>
   </g>
   <g id="text_22">
    <!-- 第11 -->
    <g transform="translate(49.644819 165.311646) scale(0.1 -0.1)">
     <defs>
      <path id="HiraginoSans-W4-7b2c" d="M 2976 192 
C 2976 154 2976 102 2976 32 
C 2976 -218 2970 -314 2938 -512 
L 3488 -512 
C 3456 -326 3443 -141 3437 192 
L 3424 1306 
L 5306 1306 
C 5242 422 5222 365 4896 365 
C 4666 365 4397 390 4115 435 
C 4179 269 4205 166 4237 -26 
C 4499 -51 4685 -58 4909 -58 
C 5370 -58 5536 26 5626 294 
C 5690 480 5728 762 5792 1485 
C 5805 1606 5805 1638 5824 1734 
C 5683 1715 5542 1709 5293 1709 
L 3418 1709 
L 3411 2304 
L 4902 2304 
C 5158 2304 5331 2298 5498 2285 
C 5478 2406 5472 2528 5472 2733 
L 5472 3302 
C 5472 3494 5478 3597 5498 3718 
C 5331 3699 5210 3693 4902 3693 
L 1434 3693 
C 1120 3693 973 3699 826 3725 
L 826 3258 
C 998 3283 1190 3290 1434 3290 
L 2931 3290 
L 2938 2701 
L 1619 2701 
C 1299 2701 1126 2707 1018 2726 
C 1011 2579 979 2355 922 2086 
C 838 1702 736 1395 563 1018 
L 1088 979 
C 1146 1133 1165 1184 1203 1306 
L 2624 1306 
C 2349 1018 1965 742 1523 512 
C 1126 307 806 186 275 38 
C 416 -115 486 -218 576 -390 
C 1133 -198 1427 -64 1856 192 
C 2285 442 2662 749 2963 1069 
L 2976 192 
z
M 3405 2701 
L 3398 3290 
L 5005 3290 
L 5005 2701 
L 3405 2701 
z
M 2944 2304 
L 2957 1709 
L 1318 1709 
C 1382 1952 1414 2093 1453 2304 
L 2944 2304 
z
M 1734 4448 
C 1875 4230 1952 4064 2074 3770 
L 2502 3923 
C 2387 4141 2330 4237 2189 4448 
L 2598 4448 
C 2829 4448 3002 4442 3155 4422 
L 3155 4902 
C 3002 4877 2829 4864 2522 4864 
L 1587 4864 
C 1683 5024 1715 5082 1818 5267 
L 1325 5395 
C 1242 5152 1139 4960 960 4704 
C 774 4435 582 4243 275 4006 
C 397 3910 486 3814 595 3654 
C 934 3962 1088 4128 1318 4448 
L 1734 4448 
z
M 4269 4442 
C 4435 4198 4518 4045 4646 3770 
L 5088 3930 
C 4986 4109 4870 4275 4755 4442 
L 5402 4442 
C 5677 4442 5869 4435 6074 4410 
L 6074 4896 
C 5862 4864 5696 4858 5382 4858 
L 3994 4858 
C 4109 5094 4128 5120 4192 5274 
L 3718 5389 
C 3539 4819 3309 4467 2854 4051 
C 3008 3955 3078 3898 3194 3757 
C 3443 3994 3565 4147 3757 4442 
L 4269 4442 
z
" transform="scale(0.015625)"/>
     </defs>
     <use xlink:href="#HiraginoSans-W4-7b2c"/>
     <use xlink:href="#HiraginoSans-W4-31" x="99.999985"/>
     <use xlink:href="#HiraginoSans-W4-31" x="167.299973"/>
    </g>
   </g>
  </g>
 </g>
 <defs>
  <clipPath id="p5277679975">
   <rect x="27.659375" y="7.2" width="275.784457" height="266.112"/>
  </clipPath>
 </defs>
</svg>
