<?xml version="1.0" encoding="utf-8" standalone="no"?>
<!DOCTYPE svg PUBLIC "-//W3C//DTD SVG 1.1//EN"
  "http://www.w3.org/Graphics/SVG/1.1/DTD/svg11.dtd">
<svg xmlns:xlink="http://www.w3.org/1999/xlink" width="415.168437pt" height="311.03075pt" viewBox="0 0 415.168437 311.03075" xmlns="http://www.w3.org/2000/svg" version="1.1">
 <metadata>
  <rdf:RDF xmlns:dc="http://purl.org/dc/elements/1.1/" xmlns:cc="http://creativecommons.org/ns#" xmlns:rdf="http://www.w3.org/1999/02/22-rdf-syntax-ns#">
   <cc:Work>
    <dc:type rdf:resource="http://purl.org/dc/dcmitype/StillImage"/>
    <dc:date>2024-07-26T21:21:48.222350</dc:date>
    <dc:format>image/svg+xml</dc:format>
    <dc:creator>
     <cc:Agent>
      <dc:title>Matplotlib v3.9.1, https://matplotlib.org/</dc:title>
     </cc:Agent>
    </dc:creator>
   </cc:Work>
  </rdf:RDF>
 </metadata>
 <defs>
  <style type="text/css">*{stroke-linejoin: round; stroke-linecap: butt}</style>
 </defs>
 <g id="figure_1">
  <g id="patch_1">
   <path d="M 0 311.03075 
L 415.168437 311.03075 
L 415.168437 0 
L 0 0 
z
" style="fill: #ffffff"/>
  </g>
  <g id="axes_1">
   <g id="patch_2">
    <path d="M 50.848438 273.312 
L 407.968438 273.312 
L 407.968438 7.2 
L 50.848438 7.2 
z
" style="fill: #ffffff"/>
   </g>
   <g id="matplotlib.axis_1">
    <g id="xtick_1">
     <g id="line2d_1">
      <path d="M 67.081165 273.312 
L 67.081165 7.2 
" clip-path="url(#pb729e26ba6)" style="fill: none; stroke: #b0b0b0; stroke-width: 0.8; stroke-linecap: square"/>
     </g>
     <g id="line2d_2">
      <defs>
       <path id="m9cd47ba527" d="M 0 0 
L 0 3.5 
" style="stroke: #000000; stroke-width: 0.8"/>
      </defs>
      <g>
       <use xlink:href="#m9cd47ba527" x="67.081165" y="273.312" style="stroke: #000000; stroke-width: 0.8"/>
      </g>
     </g>
     <g id="text_1">
      <!-- 0 -->
      <g transform="translate(63.716321 288.021375) scale(0.1 -0.1)">
       <defs>
        <path id="HiraginoSans-W4-30" d="M 2144 -90 
C 2758 -90 3232 141 3565 602 
C 3846 998 4019 1696 4019 2464 
C 4019 3002 3936 3501 3770 3949 
C 3693 4160 3558 4371 3379 4550 
C 3078 4858 2650 5024 2157 5024 
C 1498 5024 986 4742 666 4205 
C 435 3834 288 3142 288 2458 
C 288 1939 371 1434 538 986 
C 614 768 749 563 928 384 
C 1242 70 1651 -90 2144 -90 
z
M 2144 4499 
C 2592 4499 2918 4307 3123 3923 
C 3283 3629 3398 3014 3398 2470 
C 3398 2022 3341 1619 3213 1235 
C 3155 1043 3046 870 2912 730 
C 2726 538 2458 435 2150 435 
C 1734 435 1414 614 1197 973 
C 1024 1261 902 1875 902 2451 
C 902 2906 966 3328 1088 3699 
C 1139 3866 1235 4026 1370 4173 
C 1568 4397 1818 4499 2144 4499 
z
" transform="scale(0.015625)"/>
       </defs>
       <use xlink:href="#HiraginoSans-W4-30"/>
      </g>
     </g>
    </g>
    <g id="xtick_2">
     <g id="line2d_3">
      <path d="M 129.514731 273.312 
L 129.514731 7.2 
" clip-path="url(#pb729e26ba6)" style="fill: none; stroke: #b0b0b0; stroke-width: 0.8; stroke-linecap: square"/>
     </g>
     <g id="line2d_4">
      <g>
       <use xlink:href="#m9cd47ba527" x="129.514731" y="273.312" style="stroke: #000000; stroke-width: 0.8"/>
      </g>
     </g>
     <g id="text_2">
      <!-- 20 -->
      <g transform="translate(122.785044 288.021375) scale(0.1 -0.1)">
       <defs>
        <path id="HiraginoSans-W4-32" d="M 3078 0 
C 3424 0 3642 -6 3917 -32 
L 3917 589 
C 3693 557 3430 544 3091 544 
L 1114 544 
C 1280 1114 1606 1478 2451 2042 
C 3181 2528 3341 2656 3546 2912 
C 3738 3142 3846 3443 3846 3744 
C 3846 4525 3200 5030 2202 5030 
C 1613 5030 1158 4858 858 4518 
C 640 4269 531 4026 442 3565 
L 1088 3469 
C 1139 3782 1190 3936 1306 4102 
C 1491 4371 1792 4506 2208 4506 
C 2816 4506 3206 4211 3206 3744 
C 3206 3360 2995 3085 2387 2675 
C 1754 2246 1600 2138 1389 1952 
C 979 1594 710 1229 544 806 
C 448 563 429 461 365 -26 
C 576 -6 678 0 1107 0 
L 3078 0 
z
" transform="scale(0.015625)"/>
       </defs>
       <use xlink:href="#HiraginoSans-W4-32"/>
       <use xlink:href="#HiraginoSans-W4-30" x="67.299988"/>
      </g>
     </g>
    </g>
    <g id="xtick_3">
     <g id="line2d_5">
      <path d="M 191.948298 273.312 
L 191.948298 7.2 
" clip-path="url(#pb729e26ba6)" style="fill: none; stroke: #b0b0b0; stroke-width: 0.8; stroke-linecap: square"/>
     </g>
     <g id="line2d_6">
      <g>
       <use xlink:href="#m9cd47ba527" x="191.948298" y="273.312" style="stroke: #000000; stroke-width: 0.8"/>
      </g>
     </g>
     <g id="text_3">
      <!-- 40 -->
      <g transform="translate(185.208454 288.021375) scale(0.1 -0.1)">
       <defs>
        <path id="HiraginoSans-W4-34" d="M 179 1210 
C 403 1229 589 1235 954 1235 
L 2688 1235 
L 2688 710 
C 2688 410 2675 218 2630 0 
L 3309 0 
C 3270 230 3258 390 3258 704 
L 3258 1235 
L 3494 1235 
C 3763 1235 3910 1222 4154 1190 
L 4154 1798 
C 3917 1766 3750 1754 3494 1754 
L 3258 1754 
L 3258 3853 
C 3258 4358 3264 4544 3296 4934 
L 2701 4934 
C 2560 4704 2445 4550 2214 4269 
L 621 2298 
C 467 2099 326 1939 179 1773 
L 179 1210 
z
M 2688 1747 
L 858 1747 
L 2259 3514 
C 2464 3763 2592 3936 2720 4128 
C 2694 3814 2688 3622 2688 3283 
L 2688 1747 
z
" transform="scale(0.015625)"/>
       </defs>
       <use xlink:href="#HiraginoSans-W4-34"/>
       <use xlink:href="#HiraginoSans-W4-30" x="67.499985"/>
      </g>
     </g>
    </g>
    <g id="xtick_4">
     <g id="line2d_7">
      <path d="M 254.381864 273.312 
L 254.381864 7.2 
" clip-path="url(#pb729e26ba6)" style="fill: none; stroke: #b0b0b0; stroke-width: 0.8; stroke-linecap: square"/>
     </g>
     <g id="line2d_8">
      <g>
       <use xlink:href="#m9cd47ba527" x="254.381864" y="273.312" style="stroke: #000000; stroke-width: 0.8"/>
      </g>
     </g>
     <g id="text_4">
      <!-- 60 -->
      <g transform="translate(247.652177 288.021375) scale(0.1 -0.1)">
       <defs>
        <path id="HiraginoSans-W4-36" d="M 3846 3994 
C 3706 4301 3616 4442 3462 4602 
C 3187 4877 2784 5024 2304 5024 
C 1683 5024 1222 4794 864 4307 
C 557 3891 371 3162 371 2355 
C 371 1446 614 704 1043 320 
C 1331 58 1773 -90 2253 -90 
C 3277 -90 3968 589 3968 1587 
C 3968 2586 3334 3213 2323 3213 
C 1894 3213 1568 3104 1274 2854 
C 1133 2739 1062 2656 941 2458 
C 979 3085 1043 3392 1210 3763 
C 1434 4262 1798 4518 2285 4518 
C 2765 4518 3040 4314 3238 3821 
L 3846 3994 
z
M 2266 2714 
C 2950 2714 3366 2285 3366 1574 
C 3366 1325 3309 1088 3206 922 
C 3008 614 2643 422 2234 422 
C 1568 422 1069 915 1069 1574 
C 1069 2234 1574 2714 2266 2714 
z
" transform="scale(0.015625)"/>
       </defs>
       <use xlink:href="#HiraginoSans-W4-36"/>
       <use xlink:href="#HiraginoSans-W4-30" x="67.299988"/>
      </g>
     </g>
    </g>
    <g id="xtick_5">
     <g id="line2d_9">
      <path d="M 316.815431 273.312 
L 316.815431 7.2 
" clip-path="url(#pb729e26ba6)" style="fill: none; stroke: #b0b0b0; stroke-width: 0.8; stroke-linecap: square"/>
     </g>
     <g id="line2d_10">
      <g>
       <use xlink:href="#m9cd47ba527" x="316.815431" y="273.312" style="stroke: #000000; stroke-width: 0.8"/>
      </g>
     </g>
     <g id="text_5">
      <!-- 80 -->
      <g transform="translate(310.085743 288.021375) scale(0.1 -0.1)">
       <defs>
        <path id="HiraginoSans-W4-38" d="M 1446 2586 
C 1203 2547 1056 2490 851 2355 
C 480 2106 294 1754 294 1299 
C 294 397 966 -102 2163 -102 
C 3347 -102 4006 397 4006 1299 
C 4006 1728 3853 2061 3539 2304 
C 3322 2470 3136 2547 2867 2586 
C 3437 2714 3789 3162 3789 3757 
C 3789 4550 3162 5043 2150 5043 
C 1146 5043 512 4544 512 3750 
C 512 3162 877 2701 1446 2586 
z
M 2150 4538 
C 2784 4538 3187 4211 3187 3699 
C 3187 3155 2797 2829 2157 2829 
C 1510 2829 1114 3162 1114 3699 
C 1114 4211 1523 4538 2150 4538 
z
M 2157 2304 
C 2912 2304 3373 1939 3373 1344 
C 3373 749 2925 410 2144 410 
C 1376 410 928 749 928 1338 
C 928 1939 1389 2304 2157 2304 
z
" transform="scale(0.015625)"/>
       </defs>
       <use xlink:href="#HiraginoSans-W4-38"/>
       <use xlink:href="#HiraginoSans-W4-30" x="67.299988"/>
      </g>
     </g>
    </g>
    <g id="xtick_6">
     <g id="line2d_11">
      <path d="M 379.248997 273.312 
L 379.248997 7.2 
" clip-path="url(#pb729e26ba6)" style="fill: none; stroke: #b0b0b0; stroke-width: 0.8; stroke-linecap: square"/>
     </g>
     <g id="line2d_12">
      <g>
       <use xlink:href="#m9cd47ba527" x="379.248997" y="273.312" style="stroke: #000000; stroke-width: 0.8"/>
      </g>
     </g>
     <g id="text_6">
      <!-- 100 -->
      <g transform="translate(369.154466 288.021375) scale(0.1 -0.1)">
       <defs>
        <path id="HiraginoSans-W4-31" d="M 1018 4371 
C 1222 4397 1389 4410 1606 4410 
L 1939 4410 
L 1939 755 
C 1939 454 1926 237 1888 0 
L 2598 0 
C 2560 250 2547 448 2547 755 
L 2547 3904 
C 2547 4256 2566 4582 2605 4966 
C 2387 4941 2278 4934 2035 4934 
L 1581 4934 
C 1325 4934 1197 4941 1018 4966 
L 1018 4371 
z
" transform="scale(0.015625)"/>
       </defs>
       <use xlink:href="#HiraginoSans-W4-31"/>
       <use xlink:href="#HiraginoSans-W4-30" x="67.299988"/>
       <use xlink:href="#HiraginoSans-W4-30" x="134.599976"/>
      </g>
     </g>
    </g>
    <g id="text_7">
     <!-- 年齢 -->
     <g transform="translate(219.408438 301.78075) scale(0.1 -0.1)">
      <defs>
       <path id="HiraginoSans-W4-5e74" d="M 1446 1555 
L 1005 1555 
C 723 1555 531 1568 339 1594 
L 339 1056 
C 544 1082 730 1094 1005 1094 
L 3270 1094 
L 3270 115 
C 3270 -192 3264 -339 3232 -512 
L 3814 -512 
C 3782 -339 3770 -179 3770 109 
L 3770 1094 
L 5344 1094 
C 5613 1094 5811 1082 6010 1056 
L 6010 1594 
C 5818 1568 5632 1555 5344 1555 
L 3770 1555 
L 3770 2746 
L 4902 2746 
C 5158 2746 5318 2739 5485 2720 
L 5485 3219 
C 5312 3194 5165 3187 4890 3187 
L 3770 3187 
L 3770 4173 
L 5178 4173 
C 5453 4173 5594 4166 5773 4141 
L 5773 4646 
C 5606 4621 5459 4614 5178 4614 
L 2061 4614 
C 2093 4685 2093 4685 2144 4800 
C 2246 5024 2246 5024 2285 5101 
C 2323 5184 2336 5210 2368 5280 
L 1830 5414 
C 1798 5280 1754 5139 1670 4947 
C 1376 4256 1037 3802 397 3258 
C 557 3142 627 3066 749 2874 
C 1184 3258 1472 3616 1811 4173 
L 3270 4173 
L 3270 3187 
L 1882 3187 
C 1702 3187 1562 3194 1427 3206 
C 1440 3085 1446 2970 1446 2829 
L 1446 1555 
z
M 1939 1555 
L 1939 2746 
L 3270 2746 
L 3270 1555 
L 1939 1555 
z
" transform="scale(0.015625)"/>
       <path id="HiraginoSans-W4-9f62" d="M 934 2643 
C 934 2874 941 3078 960 3251 
L 493 3251 
C 518 3072 525 2893 525 2598 
L 525 211 
C 525 -141 518 -314 493 -512 
L 947 -512 
L 947 -192 
L 2822 -192 
L 2822 -448 
L 3270 -448 
C 3251 -250 3245 -102 3245 262 
L 3245 2643 
C 3245 2899 3251 3072 3270 3251 
L 2822 3251 
C 2835 3098 2842 2918 2842 2669 
L 2842 979 
C 2566 1222 2355 1510 2189 1850 
L 2445 1850 
C 2534 1850 2637 1843 2714 1830 
L 2714 2202 
C 2630 2189 2573 2182 2445 2182 
L 2067 2182 
L 2067 2758 
C 2067 2989 2074 3174 2086 3315 
L 1690 3315 
C 1709 3149 1715 2982 1715 2758 
L 1715 2182 
L 1344 2182 
C 1229 2182 1152 2189 1069 2202 
L 1069 1830 
C 1146 1843 1248 1850 1344 1850 
L 1581 1850 
C 1389 1427 1222 1190 934 934 
L 934 2643 
z
M 934 902 
C 1018 813 1069 742 1133 621 
C 1434 941 1555 1139 1741 1574 
C 1722 1254 1715 1024 1715 883 
L 1715 685 
C 1715 525 1709 467 1696 339 
L 2086 339 
C 2074 461 2067 512 2067 678 
L 2067 890 
C 2067 1120 2067 1197 2048 1587 
C 2227 1190 2381 947 2650 646 
C 2726 774 2784 864 2842 928 
L 2842 198 
L 934 198 
L 934 902 
z
M 2240 3872 
L 2240 4422 
L 2682 4422 
C 2918 4422 3040 4416 3200 4397 
L 3200 4813 
C 3034 4787 2925 4781 2682 4781 
L 2240 4781 
L 2240 4819 
C 2240 5056 2246 5178 2278 5344 
L 1773 5344 
C 1805 5158 1811 5030 1811 4742 
L 1811 3872 
L 1261 3872 
L 1261 4448 
C 1261 4742 1267 4819 1293 4998 
L 819 4998 
C 845 4826 851 4698 851 4448 
L 851 3872 
C 621 3872 531 3878 371 3910 
L 371 3443 
C 589 3462 704 3469 986 3469 
L 2797 3469 
C 2989 3469 3174 3462 3290 3450 
C 3366 3360 3418 3290 3494 3142 
C 3782 3411 3942 3597 4147 3885 
C 4371 4211 4486 4429 4659 4877 
C 5011 4109 5344 3667 6010 3098 
C 6093 3296 6144 3379 6266 3546 
C 5907 3802 5670 4038 5421 4384 
C 5197 4685 5024 4998 4902 5299 
L 4384 5299 
C 4211 4678 3821 4064 3322 3622 
L 3322 3904 
C 3162 3878 3053 3872 2803 3872 
L 2240 3872 
z
M 4141 2118 
L 4141 160 
C 4141 -205 4134 -352 4102 -538 
L 4634 -538 
C 4602 -371 4595 -198 4595 160 
L 4595 2118 
L 5434 2118 
L 5434 710 
C 5434 602 5402 570 5293 570 
C 5178 570 5011 589 4870 621 
C 4934 454 4954 346 4966 160 
C 5203 147 5235 147 5286 147 
C 5747 147 5882 256 5882 634 
L 5882 1965 
C 5882 2246 5888 2406 5907 2573 
C 5792 2554 5606 2547 5286 2547 
L 4090 2547 
C 3750 2547 3629 2554 3462 2579 
L 3462 2086 
C 3648 2112 3776 2118 4051 2118 
L 4141 2118 
z
M 1037 3072 
C 1190 2784 1248 2650 1331 2336 
L 1606 2483 
C 1517 2784 1453 2950 1318 3213 
L 1037 3072 
z
M 2438 3213 
C 2362 2893 2304 2726 2170 2483 
L 2432 2336 
C 2573 2598 2630 2752 2746 3078 
L 2438 3213 
z
M 3891 3078 
C 4038 3091 4128 3098 4410 3098 
L 4954 3098 
C 5248 3098 5312 3098 5453 3078 
L 5453 3520 
C 5312 3501 5235 3501 4941 3501 
L 4422 3501 
C 4115 3501 4058 3501 3891 3520 
L 3891 3078 
z
" transform="scale(0.015625)"/>
      </defs>
      <use xlink:href="#HiraginoSans-W4-5e74"/>
      <use xlink:href="#HiraginoSans-W4-9f62" x="99.999985"/>
     </g>
    </g>
   </g>
   <g id="matplotlib.axis_2">
    <g id="ytick_1">
     <g id="line2d_13">
      <path d="M 50.848438 261.50584 
L 407.968438 261.50584 
" clip-path="url(#pb729e26ba6)" style="fill: none; stroke: #b0b0b0; stroke-width: 0.8; stroke-linecap: square"/>
     </g>
     <g id="line2d_14">
      <defs>
       <path id="mfc2e3e86b3" d="M 0 0 
L -3.5 0 
" style="stroke: #000000; stroke-width: 0.8"/>
      </defs>
      <g>
       <use xlink:href="#mfc2e3e86b3" x="50.848438" y="261.50584" style="stroke: #000000; stroke-width: 0.8"/>
      </g>
     </g>
     <g id="text_8">
      <!-- 0.00 -->
      <g transform="translate(21.159375 265.360528) scale(0.1 -0.1)">
       <defs>
        <path id="HiraginoSans-W4-2e" d="M 442 723 
L 442 0 
L 1165 0 
L 1165 723 
L 442 723 
z
" transform="scale(0.015625)"/>
       </defs>
       <use xlink:href="#HiraginoSans-W4-30"/>
       <use xlink:href="#HiraginoSans-W4-2e" x="67.299988"/>
       <use xlink:href="#HiraginoSans-W4-30" x="92.299973"/>
       <use xlink:href="#HiraginoSans-W4-30" x="159.59996"/>
      </g>
     </g>
    </g>
    <g id="ytick_2">
     <g id="line2d_15">
      <path d="M 50.848438 213.199131 
L 407.968438 213.199131 
" clip-path="url(#pb729e26ba6)" style="fill: none; stroke: #b0b0b0; stroke-width: 0.8; stroke-linecap: square"/>
     </g>
     <g id="line2d_16">
      <g>
       <use xlink:href="#mfc2e3e86b3" x="50.848438" y="213.199131" style="stroke: #000000; stroke-width: 0.8"/>
      </g>
     </g>
     <g id="text_9">
      <!-- 0.01 -->
      <g transform="translate(21.159375 217.053818) scale(0.1 -0.1)">
       <use xlink:href="#HiraginoSans-W4-30"/>
       <use xlink:href="#HiraginoSans-W4-2e" x="67.299988"/>
       <use xlink:href="#HiraginoSans-W4-30" x="92.299973"/>
       <use xlink:href="#HiraginoSans-W4-31" x="159.59996"/>
      </g>
     </g>
    </g>
    <g id="ytick_3">
     <g id="line2d_17">
      <path d="M 50.848438 164.892422 
L 407.968438 164.892422 
" clip-path="url(#pb729e26ba6)" style="fill: none; stroke: #b0b0b0; stroke-width: 0.8; stroke-linecap: square"/>
     </g>
     <g id="line2d_18">
      <g>
       <use xlink:href="#mfc2e3e86b3" x="50.848438" y="164.892422" style="stroke: #000000; stroke-width: 0.8"/>
      </g>
     </g>
     <g id="text_10">
      <!-- 0.02 -->
      <g transform="translate(21.159375 168.747109) scale(0.1 -0.1)">
       <use xlink:href="#HiraginoSans-W4-30"/>
       <use xlink:href="#HiraginoSans-W4-2e" x="67.299988"/>
       <use xlink:href="#HiraginoSans-W4-30" x="92.299973"/>
       <use xlink:href="#HiraginoSans-W4-32" x="159.59996"/>
      </g>
     </g>
    </g>
    <g id="ytick_4">
     <g id="line2d_19">
      <path d="M 50.848438 116.585712 
L 407.968438 116.585712 
" clip-path="url(#pb729e26ba6)" style="fill: none; stroke: #b0b0b0; stroke-width: 0.8; stroke-linecap: square"/>
     </g>
     <g id="line2d_20">
      <g>
       <use xlink:href="#mfc2e3e86b3" x="50.848438" y="116.585712" style="stroke: #000000; stroke-width: 0.8"/>
      </g>
     </g>
     <g id="text_11">
      <!-- 0.03 -->
      <g transform="translate(21.159375 120.4404) scale(0.1 -0.1)">
       <defs>
        <path id="HiraginoSans-W4-33" d="M 282 1101 
C 397 768 474 621 621 448 
C 934 90 1434 -96 2112 -96 
C 2720 -96 3213 70 3533 384 
C 3770 614 3904 954 3904 1306 
C 3904 1677 3802 1958 3597 2182 
C 3379 2419 3130 2528 2688 2586 
C 2995 2650 3130 2701 3290 2816 
C 3578 3021 3738 3366 3738 3757 
C 3738 4538 3117 5043 2157 5043 
C 1594 5043 1146 4883 845 4576 
C 666 4390 582 4237 467 3891 
L 1107 3757 
C 1171 3981 1216 4083 1306 4192 
C 1478 4416 1741 4525 2125 4525 
C 2746 4525 3110 4224 3110 3725 
C 3110 3482 3021 3264 2867 3110 
C 2669 2918 2374 2829 1965 2829 
C 1779 2829 1613 2842 1459 2861 
L 1459 2272 
C 1651 2298 1811 2310 2003 2310 
C 2829 2310 3264 1990 3264 1376 
C 3264 794 2816 429 2106 429 
C 1779 429 1510 506 1293 666 
C 1107 800 1024 928 928 1248 
L 282 1101 
z
" transform="scale(0.015625)"/>
       </defs>
       <use xlink:href="#HiraginoSans-W4-30"/>
       <use xlink:href="#HiraginoSans-W4-2e" x="67.299988"/>
       <use xlink:href="#HiraginoSans-W4-30" x="92.299973"/>
       <use xlink:href="#HiraginoSans-W4-33" x="159.59996"/>
      </g>
     </g>
    </g>
    <g id="ytick_5">
     <g id="line2d_21">
      <path d="M 50.848438 68.279003 
L 407.968438 68.279003 
" clip-path="url(#pb729e26ba6)" style="fill: none; stroke: #b0b0b0; stroke-width: 0.8; stroke-linecap: square"/>
     </g>
     <g id="line2d_22">
      <g>
       <use xlink:href="#mfc2e3e86b3" x="50.848438" y="68.279003" style="stroke: #000000; stroke-width: 0.8"/>
      </g>
     </g>
     <g id="text_12">
      <!-- 0.04 -->
      <g transform="translate(21.139063 72.133691) scale(0.1 -0.1)">
       <use xlink:href="#HiraginoSans-W4-30"/>
       <use xlink:href="#HiraginoSans-W4-2e" x="67.299988"/>
       <use xlink:href="#HiraginoSans-W4-30" x="92.299973"/>
       <use xlink:href="#HiraginoSans-W4-34" x="159.59996"/>
      </g>
     </g>
    </g>
    <g id="ytick_6">
     <g id="line2d_23">
      <path d="M 50.848438 19.972294 
L 407.968438 19.972294 
" clip-path="url(#pb729e26ba6)" style="fill: none; stroke: #b0b0b0; stroke-width: 0.8; stroke-linecap: square"/>
     </g>
     <g id="line2d_24">
      <g>
       <use xlink:href="#mfc2e3e86b3" x="50.848438" y="19.972294" style="stroke: #000000; stroke-width: 0.8"/>
      </g>
     </g>
     <g id="text_13">
      <!-- 0.05 -->
      <g transform="translate(21.159375 23.826981) scale(0.1 -0.1)">
       <defs>
        <path id="HiraginoSans-W4-35" d="M 1331 4416 
L 2835 4416 
C 3155 4416 3366 4403 3622 4365 
L 3622 4986 
C 3360 4947 3206 4934 2829 4934 
L 1446 4934 
C 1082 4934 954 4941 762 4966 
C 774 4768 774 4762 774 4742 
C 774 4563 774 4518 749 4307 
L 608 2822 
C 589 2566 570 2445 518 2157 
L 1088 2106 
C 1146 2240 1178 2291 1261 2374 
C 1485 2605 1811 2739 2131 2739 
C 2842 2739 3264 2317 3264 1613 
C 3264 902 2803 435 2106 435 
C 1747 435 1440 563 1235 794 
C 1146 902 1101 986 1037 1171 
L 410 1005 
C 557 685 646 544 813 378 
C 1133 64 1562 -96 2099 -96 
C 3194 -96 3885 576 3885 1638 
C 3885 2605 3245 3238 2272 3238 
C 1830 3238 1472 3098 1158 2803 
C 1197 2982 1197 2982 1203 3091 
L 1331 4416 
z
" transform="scale(0.015625)"/>
       </defs>
       <use xlink:href="#HiraginoSans-W4-30"/>
       <use xlink:href="#HiraginoSans-W4-2e" x="67.299988"/>
       <use xlink:href="#HiraginoSans-W4-30" x="92.299973"/>
       <use xlink:href="#HiraginoSans-W4-35" x="159.59996"/>
      </g>
     </g>
    </g>
    <g id="text_14">
     <!-- 死亡率/10万 -->
     <g transform="translate(15.089062 169.420844) rotate(-90) scale(0.1 -0.1)">
      <defs>
       <path id="HiraginoSans-W4-6b7b" d="M 1229 2163 
C 1555 1920 1754 1734 2048 1395 
C 1626 742 1133 301 371 -109 
C 518 -218 602 -307 723 -506 
C 1504 -38 2061 499 2477 1190 
C 2848 1792 3053 2394 3162 3168 
C 3168 3213 3174 3251 3174 3277 
C 3194 3379 3194 3379 3200 3437 
L 2970 3680 
C 2842 3667 2720 3661 2477 3661 
L 1798 3661 
C 1907 3962 1965 4173 2054 4570 
L 5350 4570 
C 5606 4570 5850 4557 6054 4531 
L 6054 5050 
C 5850 5024 5606 5011 5350 5011 
L 1056 5011 
C 781 5011 570 5024 352 5050 
L 352 4531 
C 563 4557 781 4570 1005 4570 
L 1555 4570 
C 1459 4109 1382 3859 1235 3507 
C 979 2899 678 2464 243 2086 
C 378 1952 435 1869 538 1677 
C 1043 2163 1325 2566 1626 3232 
L 2707 3232 
C 2605 2605 2509 2278 2298 1830 
C 2048 2074 1811 2278 1504 2509 
L 1229 2163 
z
M 4134 1997 
C 4787 2310 5242 2592 5760 3008 
C 5901 3117 5901 3117 5997 3187 
L 5638 3603 
C 5370 3258 4800 2842 4134 2496 
L 4134 3738 
C 4134 3981 4147 4173 4173 4365 
L 3622 4365 
C 3648 4192 3654 4045 3654 3782 
L 3654 134 
C 3654 -301 3808 -371 4787 -371 
C 5952 -371 6029 -294 6131 998 
C 5971 1030 5818 1088 5651 1197 
C 5626 589 5594 365 5523 243 
C 5446 115 5299 83 4781 83 
C 4448 83 4250 102 4186 141 
C 4147 160 4134 192 4134 275 
L 4134 1997 
z
" transform="scale(0.015625)"/>
       <path id="HiraginoSans-W4-4ea1" d="M 2918 4115 
L 1082 4115 
C 755 4115 550 4128 346 4160 
L 346 3597 
C 525 3622 762 3635 1082 3635 
L 1299 3635 
L 1299 666 
C 1299 275 1402 51 1632 -51 
C 1901 -179 2246 -211 3238 -211 
C 4243 -211 4243 -211 5702 -122 
L 5696 416 
C 5030 320 4307 282 3181 282 
C 2458 282 2138 307 1971 371 
C 1862 416 1824 499 1824 691 
L 1824 3635 
L 5331 3635 
C 5664 3635 5888 3622 6067 3597 
L 6067 4160 
C 5856 4128 5632 4115 5318 4115 
L 3443 4115 
L 3443 4730 
C 3443 4966 3456 5139 3488 5286 
L 2874 5286 
C 2906 5101 2918 4928 2918 4723 
L 2918 4115 
z
" transform="scale(0.015625)"/>
       <path id="HiraginoSans-W4-7387" d="M 2074 2310 
C 2035 2304 2003 2304 1997 2304 
C 1894 2304 1728 2310 1645 2323 
L 1722 1862 
C 1798 1875 1888 1888 2061 1901 
C 3078 1984 3469 2029 4109 2144 
C 4198 2003 4230 1939 4333 1734 
L 4742 1926 
C 4371 2490 4250 2643 3872 3053 
L 3526 2886 
C 3718 2688 3776 2618 3898 2458 
C 3680 2426 3680 2426 2739 2342 
C 2925 2502 2925 2502 3315 2893 
L 3398 2970 
C 3814 3398 3872 3462 4147 3827 
L 3782 4083 
C 3520 3693 3398 3539 3091 3200 
C 2963 3341 2906 3405 2720 3571 
C 2970 3866 3117 4077 3302 4403 
L 5427 4403 
C 5696 4403 5888 4397 6074 4371 
L 6074 4883 
C 5882 4858 5677 4845 5376 4845 
L 3398 4845 
L 3398 4960 
C 3398 5126 3411 5235 3437 5382 
L 2886 5382 
C 2906 5248 2918 5114 2918 4960 
L 2918 4845 
L 1082 4845 
C 787 4845 589 4858 390 4883 
L 390 4371 
C 576 4397 774 4403 1030 4403 
L 2810 4403 
C 2714 4205 2592 4026 2432 3827 
C 2342 3904 2291 3942 2150 4045 
L 1856 3738 
C 2253 3456 2534 3206 2803 2899 
C 2573 2669 2458 2560 2170 2310 
L 2074 2310 
z
M 3379 928 
L 5402 928 
C 5683 928 5901 915 6093 890 
L 6093 1414 
C 5920 1389 5690 1370 5453 1370 
L 3379 1370 
L 3379 1453 
C 3379 1632 3386 1747 3405 1856 
L 2867 1856 
C 2886 1754 2893 1619 2893 1459 
L 2893 1370 
L 966 1370 
C 723 1370 474 1389 314 1414 
L 314 890 
C 538 915 730 928 998 928 
L 2893 928 
L 2893 32 
C 2893 -179 2880 -352 2848 -544 
L 3424 -544 
C 3392 -358 3379 -192 3379 32 
L 3379 928 
z
M 595 3898 
C 986 3597 1146 3443 1485 3040 
L 1837 3366 
C 1536 3693 1312 3891 941 4186 
L 595 3898 
z
M 563 1722 
C 678 1786 698 1792 787 1843 
C 954 1920 992 1946 1146 2029 
C 1478 2221 1651 2336 2035 2624 
L 1830 2995 
C 1350 2611 845 2336 352 2195 
L 563 1722 
z
M 5299 4205 
C 4973 3827 4717 3610 4275 3315 
L 4589 2995 
C 5024 3302 5312 3552 5658 3910 
L 5299 4205 
z
M 4499 2643 
C 4986 2323 5280 2080 5651 1690 
L 5978 2067 
C 5536 2451 5312 2618 4787 2944 
L 4499 2643 
z
" transform="scale(0.015625)"/>
       <path id="HiraginoSans-W4-2f" d="M 2432 4934 
L 122 -979 
L 691 -979 
L 2995 4934 
L 2432 4934 
z
" transform="scale(0.015625)"/>
       <path id="HiraginoSans-W4-4e07" d="M 2285 4467 
C 2259 3290 2144 2573 1875 1882 
C 1542 1050 1088 499 282 -58 
C 448 -179 557 -288 678 -474 
C 1229 -64 1568 282 1875 755 
C 2278 1370 2509 1978 2656 2829 
L 4845 2829 
C 4813 1882 4742 1152 4627 640 
C 4538 218 4454 134 4122 134 
C 3814 134 3526 166 2995 262 
C 3066 90 3098 -58 3117 -275 
C 3501 -320 3853 -346 4090 -346 
C 4666 -346 4902 -218 5050 186 
C 5197 608 5318 1594 5363 2765 
C 5376 3117 5382 3200 5402 3328 
C 5222 3302 5011 3296 4634 3296 
L 2726 3296 
C 2771 3680 2771 3680 2810 4467 
L 5344 4467 
C 5626 4467 5856 4454 6067 4429 
L 6067 4979 
C 5850 4954 5632 4941 5344 4941 
L 1094 4941 
C 806 4941 582 4954 371 4979 
L 371 4429 
C 582 4454 819 4467 1101 4467 
L 2285 4467 
z
" transform="scale(0.015625)"/>
      </defs>
      <use xlink:href="#HiraginoSans-W4-6b7b"/>
      <use xlink:href="#HiraginoSans-W4-4ea1" x="99.999985"/>
      <use xlink:href="#HiraginoSans-W4-7387" x="199.999969"/>
      <use xlink:href="#HiraginoSans-W4-2f" x="299.999954"/>
      <use xlink:href="#HiraginoSans-W4-31" x="348.699951"/>
      <use xlink:href="#HiraginoSans-W4-30" x="415.999939"/>
      <use xlink:href="#HiraginoSans-W4-4e07" x="483.299927"/>
     </g>
    </g>
   </g>
   <g id="line2d_25">
    <path d="M 67.081165 252.617406 
L 70.202843 260.201559 
L 73.324521 260.539706 
L 76.4462 260.829546 
L 79.567878 260.974466 
L 82.689556 261.119387 
L 85.811235 261.119387 
L 88.932913 261.119387 
L 92.054591 261.167693 
L 95.17627 261.216 
L 98.297948 261.216 
L 101.419626 261.119387 
L 104.541305 261.119387 
L 107.662983 260.92616 
L 110.784661 260.78124 
L 113.90634 260.636319 
L 117.028018 260.443093 
L 120.149696 260.249866 
L 123.271375 259.960026 
L 126.393053 259.670185 
L 129.514731 259.476958 
L 132.63641 259.283732 
L 135.758088 259.235425 
L 138.879766 259.187118 
L 142.001444 259.138812 
L 145.123123 259.090505 
L 148.244801 259.090505 
L 151.366479 259.042198 
L 154.488158 259.042198 
L 157.609836 258.945585 
L 160.731514 258.897278 
L 163.853193 258.800665 
L 166.974871 258.752358 
L 170.096549 258.510824 
L 173.218228 258.317597 
L 176.339906 258.027757 
L 179.461584 257.786224 
L 182.583263 257.592997 
L 185.704941 257.303157 
L 188.826619 256.96501 
L 191.948298 256.675169 
L 195.069976 256.385329 
L 198.191654 256.095489 
L 201.313333 255.805649 
L 204.435011 255.225968 
L 207.556689 254.597981 
L 210.678368 253.87338 
L 213.800046 253.052166 
L 216.921724 252.182645 
L 220.043403 251.216511 
L 223.165081 250.153764 
L 226.286759 248.897789 
L 229.408438 247.593508 
L 232.530116 246.24092 
L 235.651794 244.695105 
L 238.773472 243.100984 
L 241.895151 241.313636 
L 245.016829 239.381367 
L 248.138507 237.400792 
L 251.260186 235.323604 
L 254.381864 233.004882 
L 257.503542 230.203093 
L 260.625221 226.86993 
L 263.746899 223.34354 
L 266.868577 219.67223 
L 269.990256 216.194147 
L 273.111934 212.32961 
L 276.233612 208.07862 
L 279.355291 203.151335 
L 282.476969 197.644371 
L 285.598647 191.654339 
L 288.720326 185.229546 
L 291.842004 178.466607 
L 294.963682 171.172294 
L 298.085361 164.361048 
L 301.207039 158.226096 
L 304.328717 151.608077 
L 307.450396 143.92731 
L 310.572074 135.183796 
L 313.693752 125.667374 
L 316.815431 116.199259 
L 319.937109 107.987118 
L 323.058787 99.726671 
L 326.180465 90.78993 
L 329.302144 81.756575 
L 332.423822 73.544435 
L 335.5455 67.264562 
L 338.667179 63.255105 
L 341.788857 62.144051 
L 344.910535 64.414466 
L 348.032214 70.646032 
L 351.153892 82.819323 
L 354.27557 96.441815 
L 357.397249 112.624562 
L 360.518927 130.787885 
L 363.640605 150.062262 
L 366.762284 169.578173 
L 369.883962 188.417789 
L 373.00564 205.808204 
L 376.127319 220.928204 
L 379.248997 233.487949 
L 382.370675 243.197597 
L 385.492354 250.298684 
L 388.614032 255.129355 
L 391.73571 258.124371 
" clip-path="url(#pb729e26ba6)" style="fill: none; stroke: #1f77b4; stroke-width: 1.5; stroke-linecap: square"/>
   </g>
   <g id="line2d_26">
    <path d="M 67.081165 253.052166 
L 70.202843 260.394786 
L 73.324521 260.636319 
L 76.4462 260.877853 
L 79.567878 261.022773 
L 82.689556 261.119387 
L 85.811235 261.167693 
L 88.932913 261.216 
L 92.054591 261.216 
L 95.17627 261.216 
L 98.297948 261.216 
L 101.419626 261.167693 
L 104.541305 261.119387 
L 107.662983 261.07108 
L 110.784661 260.92616 
L 113.90634 260.829546 
L 117.028018 260.636319 
L 120.149696 260.491399 
L 123.271375 260.394786 
L 126.393053 260.249866 
L 129.514731 260.201559 
L 132.63641 260.153252 
L 135.758088 260.153252 
L 138.879766 260.153252 
L 142.001444 260.153252 
L 145.123123 260.153252 
L 148.244801 260.153252 
L 151.366479 260.249866 
L 154.488158 260.249866 
L 157.609836 260.201559 
L 160.731514 260.153252 
L 163.853193 260.056639 
L 166.974871 259.960026 
L 170.096549 259.863412 
L 173.218228 259.670185 
L 176.339906 259.525265 
L 179.461584 259.428652 
L 182.583263 259.332038 
L 185.704941 259.138812 
L 188.826619 258.945585 
L 191.948298 258.655744 
L 195.069976 258.414211 
L 198.191654 258.220984 
L 201.313333 257.931144 
L 204.435011 257.641304 
L 207.556689 257.351463 
L 210.678368 256.96501 
L 213.800046 256.530249 
L 216.921724 255.950569 
L 220.043403 255.322581 
L 223.165081 254.646288 
L 226.286759 253.921687 
L 229.408438 253.245393 
L 232.530116 252.617406 
L 235.651794 252.134339 
L 238.773472 251.602965 
L 241.895151 251.071591 
L 245.016829 250.443604 
L 248.138507 249.574083 
L 251.260186 248.607949 
L 254.381864 247.593508 
L 257.503542 246.579067 
L 260.625221 245.564626 
L 263.746899 244.405265 
L 266.868577 243.052677 
L 269.990256 241.603476 
L 273.111934 240.009355 
L 276.233612 238.02878 
L 279.355291 235.806671 
L 282.476969 233.246415 
L 285.598647 230.299706 
L 288.720326 227.063157 
L 291.842004 223.391847 
L 294.963682 219.09255 
L 298.085361 214.551719 
L 301.207039 209.914275 
L 304.328717 204.600537 
L 307.450396 198.127438 
L 310.572074 190.494978 
L 313.693752 181.94469 
L 316.815431 172.428268 
L 319.937109 162.525393 
L 323.058787 150.738556 
L 326.180465 136.826224 
L 329.302144 121.31977 
L 332.423822 105.137022 
L 335.5455 89.292422 
L 338.667179 73.496128 
L 341.788857 57.554914 
L 344.910535 42.241687 
L 348.032214 29.633636 
L 351.153892 21.373188 
L 354.27557 19.296 
L 357.397249 21.518109 
L 360.518927 25.962326 
L 363.640605 31.469291 
L 366.762284 49.197853 
L 369.883962 73.157981 
L 373.00564 101.272486 
L 376.127319 130.981112 
L 379.248997 160.110058 
L 382.370675 186.582134 
L 385.492354 209.093061 
L 388.614032 226.86993 
L 391.73571 240.057661 
" clip-path="url(#pb729e26ba6)" style="fill: none; stroke: #ff7f0e; stroke-width: 1.5; stroke-linecap: square"/>
   </g>
   <g id="patch_3">
    <path d="M 50.848438 273.312 
L 50.848438 7.2 
" style="fill: none; stroke: #000000; stroke-width: 0.8; stroke-linejoin: miter; stroke-linecap: square"/>
   </g>
   <g id="patch_4">
    <path d="M 407.968438 273.312 
L 407.968438 7.2 
" style="fill: none; stroke: #000000; stroke-width: 0.8; stroke-linejoin: miter; stroke-linecap: square"/>
   </g>
   <g id="patch_5">
    <path d="M 50.848438 273.312 
L 407.968438 273.312 
" style="fill: none; stroke: #000000; stroke-width: 0.8; stroke-linejoin: miter; stroke-linecap: square"/>
   </g>
   <g id="patch_6">
    <path d="M 50.848438 7.2 
L 407.968438 7.2 
" style="fill: none; stroke: #000000; stroke-width: 0.8; stroke-linejoin: miter; stroke-linecap: square"/>
   </g>
   <g id="legend_1">
    <g id="patch_7">
     <path d="M 57.848438 44.71875 
L 99.848438 44.71875 
Q 101.848438 44.71875 101.848438 42.71875 
L 101.848438 14.2 
Q 101.848438 12.2 99.848438 12.2 
L 57.848438 12.2 
Q 55.848438 12.2 55.848438 14.2 
L 55.848438 42.71875 
Q 55.848438 44.71875 57.848438 44.71875 
z
" style="fill: #ffffff; opacity: 0.8; stroke: #cccccc; stroke-linejoin: miter"/>
    </g>
    <g id="line2d_27">
     <path d="M 59.848438 20.409375 
L 69.848438 20.409375 
L 79.848438 20.409375 
" style="fill: none; stroke: #1f77b4; stroke-width: 1.5; stroke-linecap: square"/>
    </g>
    <g id="text_15">
     <!-- 男 -->
     <g transform="translate(87.848438 23.909375) scale(0.1 -0.1)">
      <defs>
       <path id="HiraginoSans-W4-7537" d="M 5114 1402 
C 5043 736 4986 410 4909 256 
C 4851 134 4762 102 4454 102 
C 4154 102 3872 128 3450 192 
C 3526 -6 3558 -134 3584 -314 
C 3994 -352 4173 -358 4410 -358 
C 4966 -358 5171 -294 5312 -83 
C 5440 115 5536 608 5632 1530 
C 5651 1741 5651 1741 5664 1850 
C 5414 1830 5242 1824 5005 1824 
L 3290 1824 
C 3309 1914 3322 1952 3334 2029 
C 3373 2202 3379 2227 3405 2323 
L 2861 2342 
C 2861 2317 2861 2298 2861 2285 
C 2861 2163 2835 2010 2790 1824 
L 1286 1824 
C 986 1824 755 1837 570 1862 
L 570 1363 
C 781 1389 973 1402 1286 1402 
L 2643 1402 
C 2490 1062 2298 832 1990 614 
C 1555 307 1114 134 307 -32 
C 467 -218 531 -320 602 -486 
C 1434 -269 1920 -45 2362 314 
C 2726 608 2963 941 3142 1402 
L 5114 1402 
z
M 5440 4467 
C 5440 4762 5446 4928 5466 5101 
C 5280 5075 5114 5069 4845 5069 
L 1574 5069 
C 1312 5069 1139 5075 954 5101 
C 973 4928 986 4762 986 4467 
L 986 3053 
C 986 2778 973 2624 954 2445 
C 1133 2464 1357 2477 1594 2477 
L 4864 2477 
C 5088 2477 5286 2464 5466 2451 
C 5446 2650 5440 2778 5440 3053 
L 5440 4467 
z
M 2944 4659 
L 2944 3962 
L 1453 3962 
L 1453 4659 
L 2944 4659 
z
M 3405 3962 
L 3405 4659 
L 4973 4659 
L 4973 3962 
L 3405 3962 
z
M 2944 3565 
L 2944 2880 
L 1453 2880 
L 1453 3565 
L 2944 3565 
z
M 3405 2880 
L 3405 3565 
L 4973 3565 
L 4973 2880 
L 3405 2880 
z
" transform="scale(0.015625)"/>
      </defs>
      <use xlink:href="#HiraginoSans-W4-7537"/>
     </g>
    </g>
    <g id="line2d_28">
     <path d="M 59.848438 35.16875 
L 69.848438 35.16875 
L 79.848438 35.16875 
" style="fill: none; stroke: #ff7f0e; stroke-width: 1.5; stroke-linecap: square"/>
    </g>
    <g id="text_16">
     <!-- 女 -->
     <g transform="translate(87.848438 38.66875) scale(0.1 -0.1)">
      <defs>
       <path id="HiraginoSans-W4-5973" d="M 5862 -19 
C 5171 454 4589 806 3878 1171 
C 4160 1504 4371 1830 4544 2214 
C 4710 2573 4787 2829 4928 3424 
L 5402 3424 
C 5677 3424 5888 3411 6080 3386 
L 6080 3942 
C 5875 3910 5670 3898 5389 3898 
L 2790 3898 
C 2848 4038 2944 4282 2989 4429 
C 3187 5005 3187 5005 3277 5216 
L 2688 5318 
C 2630 4960 2490 4512 2246 3898 
L 1043 3898 
C 774 3898 538 3910 352 3942 
L 352 3386 
C 538 3411 755 3424 1043 3424 
L 2035 3424 
C 1722 2746 1318 2118 864 1581 
C 1088 1491 1216 1427 1357 1338 
C 1478 1498 1504 1536 1606 1677 
C 2342 1395 2534 1312 3072 1050 
C 2400 506 1651 230 352 58 
C 493 -134 525 -192 621 -429 
C 1670 -211 1869 -154 2355 64 
C 2810 269 3168 499 3526 819 
C 4250 429 4870 26 5498 -467 
L 5862 -19 
z
M 4397 3424 
C 4288 2931 4211 2682 4058 2355 
C 3891 1997 3686 1683 3437 1402 
C 2912 1658 2547 1811 1869 2074 
C 2138 2502 2355 2906 2592 3424 
L 4397 3424 
z
" transform="scale(0.015625)"/>
      </defs>
      <use xlink:href="#HiraginoSans-W4-5973"/>
     </g>
    </g>
   </g>
  </g>
 </g>
 <defs>
  <clipPath id="pb729e26ba6">
   <rect x="50.848438" y="7.2" width="357.12" height="266.112"/>
  </clipPath>
 </defs>
</svg>
