<?xml version="1.0" encoding="utf-8" standalone="no"?>
<!DOCTYPE svg PUBLIC "-//W3C//DTD SVG 1.1//EN"
  "http://www.w3.org/Graphics/SVG/1.1/DTD/svg11.dtd">
<svg xmlns:xlink="http://www.w3.org/1999/xlink" width="405.73875pt" height="311.03075pt" viewBox="0 0 405.73875 311.03075" xmlns="http://www.w3.org/2000/svg" version="1.1">
 <metadata>
  <rdf:RDF xmlns:dc="http://purl.org/dc/elements/1.1/" xmlns:cc="http://creativecommons.org/ns#" xmlns:rdf="http://www.w3.org/1999/02/22-rdf-syntax-ns#">
   <cc:Work>
    <dc:type rdf:resource="http://purl.org/dc/dcmitype/StillImage"/>
    <dc:date>2024-07-26T21:26:53.022124</dc:date>
    <dc:format>image/svg+xml</dc:format>
    <dc:creator>
     <cc:Agent>
      <dc:title>Matplotlib v3.9.1, https://matplotlib.org/</dc:title>
     </cc:Agent>
    </dc:creator>
   </cc:Work>
  </rdf:RDF>
 </metadata>
 <defs>
  <style type="text/css">*{stroke-linejoin: round; stroke-linecap: butt}</style>
 </defs>
 <g id="figure_1">
  <g id="patch_1">
   <path d="M 0 311.03075 
L 405.73875 311.03075 
L 405.73875 0 
L 0 0 
z
" style="fill: #ffffff"/>
  </g>
  <g id="axes_1">
   <g id="patch_2">
    <path d="M 41.41875 273.312 
L 398.53875 273.312 
L 398.53875 7.2 
L 41.41875 7.2 
z
" style="fill: #ffffff"/>
   </g>
   <g id="matplotlib.axis_1">
    <g id="xtick_1">
     <g id="line2d_1">
      <path d="M 70.466788 273.312 
L 70.466788 7.2 
" clip-path="url(#p2b73fca0ef)" style="fill: none; stroke: #b0b0b0; stroke-width: 0.8; stroke-linecap: square"/>
     </g>
     <g id="line2d_2">
      <defs>
       <path id="m9103d68a65" d="M 0 0 
L 0 3.5 
" style="stroke: #000000; stroke-width: 0.8"/>
      </defs>
      <g>
       <use xlink:href="#m9103d68a65" x="70.466788" y="273.312" style="stroke: #000000; stroke-width: 0.8"/>
      </g>
     </g>
     <g id="text_1">
      <!-- 1950 -->
      <g transform="translate(57.007413 288.021375) scale(0.1 -0.1)">
       <defs>
        <path id="HiraginoSans-W4-31" d="M 1018 4371 
C 1222 4397 1389 4410 1606 4410 
L 1939 4410 
L 1939 755 
C 1939 454 1926 237 1888 0 
L 2598 0 
C 2560 250 2547 448 2547 755 
L 2547 3904 
C 2547 4256 2566 4582 2605 4966 
C 2387 4941 2278 4934 2035 4934 
L 1581 4934 
C 1325 4934 1197 4941 1018 4966 
L 1018 4371 
z
" transform="scale(0.015625)"/>
        <path id="HiraginoSans-W4-39" d="M 410 934 
C 582 576 698 422 896 262 
C 1178 32 1542 -77 2003 -77 
C 2586 -77 3014 102 3341 486 
C 3712 928 3910 1664 3910 2624 
C 3910 3302 3814 3821 3610 4186 
C 3315 4723 2765 5037 2118 5037 
C 1030 5037 326 4358 326 3315 
C 326 2861 486 2438 768 2157 
C 1050 1875 1472 1722 1958 1722 
C 2426 1722 2765 1843 3085 2125 
C 3213 2240 3270 2310 3366 2483 
C 3354 2189 3334 1958 3315 1818 
C 3270 1517 3168 1216 3046 1011 
C 2816 621 2496 435 2042 435 
C 1702 435 1427 538 1254 723 
C 1158 826 1114 915 1037 1120 
L 410 934 
z
M 2029 2221 
C 1357 2221 928 2662 928 3360 
C 928 3706 1030 3981 1248 4192 
C 1459 4403 1754 4525 2067 4525 
C 2733 4525 3232 4032 3232 3366 
C 3232 2707 2720 2221 2029 2221 
z
" transform="scale(0.015625)"/>
        <path id="HiraginoSans-W4-35" d="M 1331 4416 
L 2835 4416 
C 3155 4416 3366 4403 3622 4365 
L 3622 4986 
C 3360 4947 3206 4934 2829 4934 
L 1446 4934 
C 1082 4934 954 4941 762 4966 
C 774 4768 774 4762 774 4742 
C 774 4563 774 4518 749 4307 
L 608 2822 
C 589 2566 570 2445 518 2157 
L 1088 2106 
C 1146 2240 1178 2291 1261 2374 
C 1485 2605 1811 2739 2131 2739 
C 2842 2739 3264 2317 3264 1613 
C 3264 902 2803 435 2106 435 
C 1747 435 1440 563 1235 794 
C 1146 902 1101 986 1037 1171 
L 410 1005 
C 557 685 646 544 813 378 
C 1133 64 1562 -96 2099 -96 
C 3194 -96 3885 576 3885 1638 
C 3885 2605 3245 3238 2272 3238 
C 1830 3238 1472 3098 1158 2803 
C 1197 2982 1197 2982 1203 3091 
L 1331 4416 
z
" transform="scale(0.015625)"/>
        <path id="HiraginoSans-W4-30" d="M 2144 -90 
C 2758 -90 3232 141 3565 602 
C 3846 998 4019 1696 4019 2464 
C 4019 3002 3936 3501 3770 3949 
C 3693 4160 3558 4371 3379 4550 
C 3078 4858 2650 5024 2157 5024 
C 1498 5024 986 4742 666 4205 
C 435 3834 288 3142 288 2458 
C 288 1939 371 1434 538 986 
C 614 768 749 563 928 384 
C 1242 70 1651 -90 2144 -90 
z
M 2144 4499 
C 2592 4499 2918 4307 3123 3923 
C 3283 3629 3398 3014 3398 2470 
C 3398 2022 3341 1619 3213 1235 
C 3155 1043 3046 870 2912 730 
C 2726 538 2458 435 2150 435 
C 1734 435 1414 614 1197 973 
C 1024 1261 902 1875 902 2451 
C 902 2906 966 3328 1088 3699 
C 1139 3866 1235 4026 1370 4173 
C 1568 4397 1818 4499 2144 4499 
z
" transform="scale(0.015625)"/>
       </defs>
       <use xlink:href="#HiraginoSans-W4-31"/>
       <use xlink:href="#HiraginoSans-W4-39" x="67.299988"/>
       <use xlink:href="#HiraginoSans-W4-35" x="134.599976"/>
       <use xlink:href="#HiraginoSans-W4-30" x="201.899963"/>
      </g>
     </g>
    </g>
    <g id="xtick_2">
     <g id="line2d_3">
      <path d="M 113.184492 273.312 
L 113.184492 7.2 
" clip-path="url(#p2b73fca0ef)" style="fill: none; stroke: #b0b0b0; stroke-width: 0.8; stroke-linecap: square"/>
     </g>
     <g id="line2d_4">
      <g>
       <use xlink:href="#m9103d68a65" x="113.184492" y="273.312" style="stroke: #000000; stroke-width: 0.8"/>
      </g>
     </g>
     <g id="text_2">
      <!-- 1960 -->
      <g transform="translate(99.725117 288.021375) scale(0.1 -0.1)">
       <defs>
        <path id="HiraginoSans-W4-36" d="M 3846 3994 
C 3706 4301 3616 4442 3462 4602 
C 3187 4877 2784 5024 2304 5024 
C 1683 5024 1222 4794 864 4307 
C 557 3891 371 3162 371 2355 
C 371 1446 614 704 1043 320 
C 1331 58 1773 -90 2253 -90 
C 3277 -90 3968 589 3968 1587 
C 3968 2586 3334 3213 2323 3213 
C 1894 3213 1568 3104 1274 2854 
C 1133 2739 1062 2656 941 2458 
C 979 3085 1043 3392 1210 3763 
C 1434 4262 1798 4518 2285 4518 
C 2765 4518 3040 4314 3238 3821 
L 3846 3994 
z
M 2266 2714 
C 2950 2714 3366 2285 3366 1574 
C 3366 1325 3309 1088 3206 922 
C 3008 614 2643 422 2234 422 
C 1568 422 1069 915 1069 1574 
C 1069 2234 1574 2714 2266 2714 
z
" transform="scale(0.015625)"/>
       </defs>
       <use xlink:href="#HiraginoSans-W4-31"/>
       <use xlink:href="#HiraginoSans-W4-39" x="67.299988"/>
       <use xlink:href="#HiraginoSans-W4-36" x="134.599976"/>
       <use xlink:href="#HiraginoSans-W4-30" x="201.899963"/>
      </g>
     </g>
    </g>
    <g id="xtick_3">
     <g id="line2d_5">
      <path d="M 155.902195 273.312 
L 155.902195 7.2 
" clip-path="url(#p2b73fca0ef)" style="fill: none; stroke: #b0b0b0; stroke-width: 0.8; stroke-linecap: square"/>
     </g>
     <g id="line2d_6">
      <g>
       <use xlink:href="#m9103d68a65" x="155.902195" y="273.312" style="stroke: #000000; stroke-width: 0.8"/>
      </g>
     </g>
     <g id="text_3">
      <!-- 1970 -->
      <g transform="translate(142.44282 288.021375) scale(0.1 -0.1)">
       <defs>
        <path id="HiraginoSans-W4-37" d="M 3898 4966 
C 3661 4941 3526 4934 3117 4934 
L 1165 4934 
C 838 4934 646 4947 390 4979 
L 390 4346 
C 634 4378 819 4390 1146 4390 
L 3200 4390 
C 2643 3635 2368 3187 2054 2541 
C 1664 1741 1491 1171 1280 0 
L 2003 0 
C 2099 685 2163 992 2317 1491 
C 2554 2291 2829 2861 3373 3718 
C 3642 4141 3763 4301 3898 4422 
L 3898 4966 
z
" transform="scale(0.015625)"/>
       </defs>
       <use xlink:href="#HiraginoSans-W4-31"/>
       <use xlink:href="#HiraginoSans-W4-39" x="67.299988"/>
       <use xlink:href="#HiraginoSans-W4-37" x="134.599976"/>
       <use xlink:href="#HiraginoSans-W4-30" x="201.899963"/>
      </g>
     </g>
    </g>
    <g id="xtick_4">
     <g id="line2d_7">
      <path d="M 198.619898 273.312 
L 198.619898 7.2 
" clip-path="url(#p2b73fca0ef)" style="fill: none; stroke: #b0b0b0; stroke-width: 0.8; stroke-linecap: square"/>
     </g>
     <g id="line2d_8">
      <g>
       <use xlink:href="#m9103d68a65" x="198.619898" y="273.312" style="stroke: #000000; stroke-width: 0.8"/>
      </g>
     </g>
     <g id="text_4">
      <!-- 1980 -->
      <g transform="translate(185.160523 288.021375) scale(0.1 -0.1)">
       <defs>
        <path id="HiraginoSans-W4-38" d="M 1446 2586 
C 1203 2547 1056 2490 851 2355 
C 480 2106 294 1754 294 1299 
C 294 397 966 -102 2163 -102 
C 3347 -102 4006 397 4006 1299 
C 4006 1728 3853 2061 3539 2304 
C 3322 2470 3136 2547 2867 2586 
C 3437 2714 3789 3162 3789 3757 
C 3789 4550 3162 5043 2150 5043 
C 1146 5043 512 4544 512 3750 
C 512 3162 877 2701 1446 2586 
z
M 2150 4538 
C 2784 4538 3187 4211 3187 3699 
C 3187 3155 2797 2829 2157 2829 
C 1510 2829 1114 3162 1114 3699 
C 1114 4211 1523 4538 2150 4538 
z
M 2157 2304 
C 2912 2304 3373 1939 3373 1344 
C 3373 749 2925 410 2144 410 
C 1376 410 928 749 928 1338 
C 928 1939 1389 2304 2157 2304 
z
" transform="scale(0.015625)"/>
       </defs>
       <use xlink:href="#HiraginoSans-W4-31"/>
       <use xlink:href="#HiraginoSans-W4-39" x="67.299988"/>
       <use xlink:href="#HiraginoSans-W4-38" x="134.599976"/>
       <use xlink:href="#HiraginoSans-W4-30" x="201.899963"/>
      </g>
     </g>
    </g>
    <g id="xtick_5">
     <g id="line2d_9">
      <path d="M 241.337602 273.312 
L 241.337602 7.2 
" clip-path="url(#p2b73fca0ef)" style="fill: none; stroke: #b0b0b0; stroke-width: 0.8; stroke-linecap: square"/>
     </g>
     <g id="line2d_10">
      <g>
       <use xlink:href="#m9103d68a65" x="241.337602" y="273.312" style="stroke: #000000; stroke-width: 0.8"/>
      </g>
     </g>
     <g id="text_5">
      <!-- 1990 -->
      <g transform="translate(227.878227 288.021375) scale(0.1 -0.1)">
       <use xlink:href="#HiraginoSans-W4-31"/>
       <use xlink:href="#HiraginoSans-W4-39" x="67.299988"/>
       <use xlink:href="#HiraginoSans-W4-39" x="134.599976"/>
       <use xlink:href="#HiraginoSans-W4-30" x="201.899963"/>
      </g>
     </g>
    </g>
    <g id="xtick_6">
     <g id="line2d_11">
      <path d="M 284.055305 273.312 
L 284.055305 7.2 
" clip-path="url(#p2b73fca0ef)" style="fill: none; stroke: #b0b0b0; stroke-width: 0.8; stroke-linecap: square"/>
     </g>
     <g id="line2d_12">
      <g>
       <use xlink:href="#m9103d68a65" x="284.055305" y="273.312" style="stroke: #000000; stroke-width: 0.8"/>
      </g>
     </g>
     <g id="text_6">
      <!-- 2000 -->
      <g transform="translate(270.59593 288.021375) scale(0.1 -0.1)">
       <defs>
        <path id="HiraginoSans-W4-32" d="M 3078 0 
C 3424 0 3642 -6 3917 -32 
L 3917 589 
C 3693 557 3430 544 3091 544 
L 1114 544 
C 1280 1114 1606 1478 2451 2042 
C 3181 2528 3341 2656 3546 2912 
C 3738 3142 3846 3443 3846 3744 
C 3846 4525 3200 5030 2202 5030 
C 1613 5030 1158 4858 858 4518 
C 640 4269 531 4026 442 3565 
L 1088 3469 
C 1139 3782 1190 3936 1306 4102 
C 1491 4371 1792 4506 2208 4506 
C 2816 4506 3206 4211 3206 3744 
C 3206 3360 2995 3085 2387 2675 
C 1754 2246 1600 2138 1389 1952 
C 979 1594 710 1229 544 806 
C 448 563 429 461 365 -26 
C 576 -6 678 0 1107 0 
L 3078 0 
z
" transform="scale(0.015625)"/>
       </defs>
       <use xlink:href="#HiraginoSans-W4-32"/>
       <use xlink:href="#HiraginoSans-W4-30" x="67.299988"/>
       <use xlink:href="#HiraginoSans-W4-30" x="134.599976"/>
       <use xlink:href="#HiraginoSans-W4-30" x="201.899963"/>
      </g>
     </g>
    </g>
    <g id="xtick_7">
     <g id="line2d_13">
      <path d="M 326.773008 273.312 
L 326.773008 7.2 
" clip-path="url(#p2b73fca0ef)" style="fill: none; stroke: #b0b0b0; stroke-width: 0.8; stroke-linecap: square"/>
     </g>
     <g id="line2d_14">
      <g>
       <use xlink:href="#m9103d68a65" x="326.773008" y="273.312" style="stroke: #000000; stroke-width: 0.8"/>
      </g>
     </g>
     <g id="text_7">
      <!-- 2010 -->
      <g transform="translate(313.313633 288.021375) scale(0.1 -0.1)">
       <use xlink:href="#HiraginoSans-W4-32"/>
       <use xlink:href="#HiraginoSans-W4-30" x="67.299988"/>
       <use xlink:href="#HiraginoSans-W4-31" x="134.599976"/>
       <use xlink:href="#HiraginoSans-W4-30" x="201.899963"/>
      </g>
     </g>
    </g>
    <g id="xtick_8">
     <g id="line2d_15">
      <path d="M 369.490712 273.312 
L 369.490712 7.2 
" clip-path="url(#p2b73fca0ef)" style="fill: none; stroke: #b0b0b0; stroke-width: 0.8; stroke-linecap: square"/>
     </g>
     <g id="line2d_16">
      <g>
       <use xlink:href="#m9103d68a65" x="369.490712" y="273.312" style="stroke: #000000; stroke-width: 0.8"/>
      </g>
     </g>
     <g id="text_8">
      <!-- 2020 -->
      <g transform="translate(356.031337 288.021375) scale(0.1 -0.1)">
       <use xlink:href="#HiraginoSans-W4-32"/>
       <use xlink:href="#HiraginoSans-W4-30" x="67.299988"/>
       <use xlink:href="#HiraginoSans-W4-32" x="134.599976"/>
       <use xlink:href="#HiraginoSans-W4-30" x="201.899963"/>
      </g>
     </g>
    </g>
    <g id="text_9">
     <!-- 年 -->
     <g transform="translate(214.97875 301.78075) scale(0.1 -0.1)">
      <defs>
       <path id="HiraginoSans-W4-5e74" d="M 1446 1555 
L 1005 1555 
C 723 1555 531 1568 339 1594 
L 339 1056 
C 544 1082 730 1094 1005 1094 
L 3270 1094 
L 3270 115 
C 3270 -192 3264 -339 3232 -512 
L 3814 -512 
C 3782 -339 3770 -179 3770 109 
L 3770 1094 
L 5344 1094 
C 5613 1094 5811 1082 6010 1056 
L 6010 1594 
C 5818 1568 5632 1555 5344 1555 
L 3770 1555 
L 3770 2746 
L 4902 2746 
C 5158 2746 5318 2739 5485 2720 
L 5485 3219 
C 5312 3194 5165 3187 4890 3187 
L 3770 3187 
L 3770 4173 
L 5178 4173 
C 5453 4173 5594 4166 5773 4141 
L 5773 4646 
C 5606 4621 5459 4614 5178 4614 
L 2061 4614 
C 2093 4685 2093 4685 2144 4800 
C 2246 5024 2246 5024 2285 5101 
C 2323 5184 2336 5210 2368 5280 
L 1830 5414 
C 1798 5280 1754 5139 1670 4947 
C 1376 4256 1037 3802 397 3258 
C 557 3142 627 3066 749 2874 
C 1184 3258 1472 3616 1811 4173 
L 3270 4173 
L 3270 3187 
L 1882 3187 
C 1702 3187 1562 3194 1427 3206 
C 1440 3085 1446 2970 1446 2829 
L 1446 1555 
z
M 1939 1555 
L 1939 2746 
L 3270 2746 
L 3270 1555 
L 1939 1555 
z
" transform="scale(0.015625)"/>
      </defs>
      <use xlink:href="#HiraginoSans-W4-5e74"/>
     </g>
    </g>
   </g>
   <g id="matplotlib.axis_2">
    <g id="ytick_1">
     <g id="line2d_17">
      <path d="M 41.41875 261.601223 
L 398.53875 261.601223 
" clip-path="url(#p2b73fca0ef)" style="fill: none; stroke: #b0b0b0; stroke-width: 0.8; stroke-linecap: square"/>
     </g>
     <g id="line2d_18">
      <defs>
       <path id="me64e6989ea" d="M 0 0 
L -3.5 0 
" style="stroke: #000000; stroke-width: 0.8"/>
      </defs>
      <g>
       <use xlink:href="#me64e6989ea" x="41.41875" y="261.601223" style="stroke: #000000; stroke-width: 0.8"/>
      </g>
     </g>
     <g id="text_10">
      <!-- 50 -->
      <g transform="translate(20.959375 265.45591) scale(0.1 -0.1)">
       <use xlink:href="#HiraginoSans-W4-35"/>
       <use xlink:href="#HiraginoSans-W4-30" x="67.299988"/>
      </g>
     </g>
    </g>
    <g id="ytick_2">
     <g id="line2d_19">
      <path d="M 41.41875 229.499312 
L 398.53875 229.499312 
" clip-path="url(#p2b73fca0ef)" style="fill: none; stroke: #b0b0b0; stroke-width: 0.8; stroke-linecap: square"/>
     </g>
     <g id="line2d_20">
      <g>
       <use xlink:href="#me64e6989ea" x="41.41875" y="229.499312" style="stroke: #000000; stroke-width: 0.8"/>
      </g>
     </g>
     <g id="text_11">
      <!-- 55 -->
      <g transform="translate(20.959375 233.354) scale(0.1 -0.1)">
       <use xlink:href="#HiraginoSans-W4-35"/>
       <use xlink:href="#HiraginoSans-W4-35" x="67.299988"/>
      </g>
     </g>
    </g>
    <g id="ytick_3">
     <g id="line2d_21">
      <path d="M 41.41875 197.397401 
L 398.53875 197.397401 
" clip-path="url(#p2b73fca0ef)" style="fill: none; stroke: #b0b0b0; stroke-width: 0.8; stroke-linecap: square"/>
     </g>
     <g id="line2d_22">
      <g>
       <use xlink:href="#me64e6989ea" x="41.41875" y="197.397401" style="stroke: #000000; stroke-width: 0.8"/>
      </g>
     </g>
     <g id="text_12">
      <!-- 60 -->
      <g transform="translate(20.959375 201.252089) scale(0.1 -0.1)">
       <use xlink:href="#HiraginoSans-W4-36"/>
       <use xlink:href="#HiraginoSans-W4-30" x="67.299988"/>
      </g>
     </g>
    </g>
    <g id="ytick_4">
     <g id="line2d_23">
      <path d="M 41.41875 165.29549 
L 398.53875 165.29549 
" clip-path="url(#p2b73fca0ef)" style="fill: none; stroke: #b0b0b0; stroke-width: 0.8; stroke-linecap: square"/>
     </g>
     <g id="line2d_24">
      <g>
       <use xlink:href="#me64e6989ea" x="41.41875" y="165.29549" style="stroke: #000000; stroke-width: 0.8"/>
      </g>
     </g>
     <g id="text_13">
      <!-- 65 -->
      <g transform="translate(20.959375 169.150178) scale(0.1 -0.1)">
       <use xlink:href="#HiraginoSans-W4-36"/>
       <use xlink:href="#HiraginoSans-W4-35" x="67.299988"/>
      </g>
     </g>
    </g>
    <g id="ytick_5">
     <g id="line2d_25">
      <path d="M 41.41875 133.19358 
L 398.53875 133.19358 
" clip-path="url(#p2b73fca0ef)" style="fill: none; stroke: #b0b0b0; stroke-width: 0.8; stroke-linecap: square"/>
     </g>
     <g id="line2d_26">
      <g>
       <use xlink:href="#me64e6989ea" x="41.41875" y="133.19358" style="stroke: #000000; stroke-width: 0.8"/>
      </g>
     </g>
     <g id="text_14">
      <!-- 70 -->
      <g transform="translate(20.959375 137.048267) scale(0.1 -0.1)">
       <use xlink:href="#HiraginoSans-W4-37"/>
       <use xlink:href="#HiraginoSans-W4-30" x="67.299988"/>
      </g>
     </g>
    </g>
    <g id="ytick_6">
     <g id="line2d_27">
      <path d="M 41.41875 101.091669 
L 398.53875 101.091669 
" clip-path="url(#p2b73fca0ef)" style="fill: none; stroke: #b0b0b0; stroke-width: 0.8; stroke-linecap: square"/>
     </g>
     <g id="line2d_28">
      <g>
       <use xlink:href="#me64e6989ea" x="41.41875" y="101.091669" style="stroke: #000000; stroke-width: 0.8"/>
      </g>
     </g>
     <g id="text_15">
      <!-- 75 -->
      <g transform="translate(20.959375 104.946356) scale(0.1 -0.1)">
       <use xlink:href="#HiraginoSans-W4-37"/>
       <use xlink:href="#HiraginoSans-W4-35" x="67.299988"/>
      </g>
     </g>
    </g>
    <g id="ytick_7">
     <g id="line2d_29">
      <path d="M 41.41875 68.989758 
L 398.53875 68.989758 
" clip-path="url(#p2b73fca0ef)" style="fill: none; stroke: #b0b0b0; stroke-width: 0.8; stroke-linecap: square"/>
     </g>
     <g id="line2d_30">
      <g>
       <use xlink:href="#me64e6989ea" x="41.41875" y="68.989758" style="stroke: #000000; stroke-width: 0.8"/>
      </g>
     </g>
     <g id="text_16">
      <!-- 80 -->
      <g transform="translate(20.959375 72.844445) scale(0.1 -0.1)">
       <use xlink:href="#HiraginoSans-W4-38"/>
       <use xlink:href="#HiraginoSans-W4-30" x="67.299988"/>
      </g>
     </g>
    </g>
    <g id="ytick_8">
     <g id="line2d_31">
      <path d="M 41.41875 36.887847 
L 398.53875 36.887847 
" clip-path="url(#p2b73fca0ef)" style="fill: none; stroke: #b0b0b0; stroke-width: 0.8; stroke-linecap: square"/>
     </g>
     <g id="line2d_32">
      <g>
       <use xlink:href="#me64e6989ea" x="41.41875" y="36.887847" style="stroke: #000000; stroke-width: 0.8"/>
      </g>
     </g>
     <g id="text_17">
      <!-- 85 -->
      <g transform="translate(20.959375 40.742535) scale(0.1 -0.1)">
       <use xlink:href="#HiraginoSans-W4-38"/>
       <use xlink:href="#HiraginoSans-W4-35" x="67.299988"/>
      </g>
     </g>
    </g>
    <g id="text_18">
     <!-- 平均寿命 -->
     <g transform="translate(14.909375 160.256) rotate(-90) scale(0.1 -0.1)">
      <defs>
       <path id="HiraginoSans-W4-5e73" d="M 2918 4653 
L 2918 2342 
L 1056 2342 
C 717 2342 525 2355 333 2387 
L 333 1830 
C 525 1862 749 1875 1069 1875 
L 2918 1875 
L 2918 198 
C 2918 -58 2906 -294 2874 -531 
L 3475 -531 
C 3443 -288 3430 -38 3430 198 
L 3430 1875 
L 5350 1875 
C 5683 1875 5907 1862 6080 1830 
L 6080 2387 
C 5901 2355 5690 2342 5370 2342 
L 3430 2342 
L 3430 4653 
L 5114 4653 
C 5408 4653 5606 4640 5818 4614 
L 5818 5152 
C 5626 5126 5421 5114 5107 5114 
L 1331 5114 
C 1011 5114 806 5126 614 5152 
L 614 4614 
C 826 4640 1030 4653 1318 4653 
L 2918 4653 
z
M 992 4179 
C 1331 3654 1523 3277 1766 2598 
L 2246 2842 
C 1984 3462 1786 3840 1427 4390 
L 992 4179 
z
M 4941 4384 
C 4685 3674 4486 3309 4058 2765 
L 4506 2534 
C 4928 3117 5133 3482 5408 4166 
L 4941 4384 
z
" transform="scale(0.015625)"/>
       <path id="HiraginoSans-W4-5747" d="M 1139 3603 
L 883 3603 
C 621 3603 493 3610 333 3642 
L 333 3123 
C 486 3155 621 3162 883 3162 
L 1139 3162 
L 1139 1133 
C 768 992 435 883 282 864 
L 416 352 
C 518 397 704 474 909 550 
C 1542 800 1824 928 2381 1222 
L 2362 1709 
C 2022 1517 1901 1459 1619 1331 
L 1619 3162 
L 1722 3162 
C 1920 3162 1997 3162 2144 3149 
L 2067 3072 
C 2227 2976 2266 2938 2438 2720 
C 2816 3123 3059 3462 3290 3904 
L 5414 3904 
C 5414 3744 5421 3616 5421 3533 
C 5421 2406 5344 1286 5222 646 
C 5133 192 5056 96 4755 96 
C 4570 96 4192 141 3872 192 
C 3962 -26 3994 -141 4006 -333 
C 4365 -365 4563 -378 4730 -378 
C 5344 -378 5504 -256 5645 320 
C 5811 992 5901 2266 5901 3872 
C 5901 4141 5907 4256 5926 4390 
C 5811 4378 5811 4378 5350 4365 
L 3501 4365 
C 3590 4582 3674 4806 3738 5005 
C 3776 5126 3789 5158 3814 5222 
L 3283 5350 
C 3232 5043 3155 4787 3008 4416 
C 2803 3936 2586 3597 2221 3219 
L 2221 3635 
C 2099 3610 1984 3603 1734 3603 
L 1619 3603 
L 1619 4627 
C 1619 4915 1626 5050 1658 5254 
L 1101 5254 
C 1126 5050 1139 4890 1139 4614 
L 1139 3603 
z
M 4909 2099 
C 4275 1696 3699 1414 2989 1158 
C 2848 1107 2739 1075 2618 1056 
L 2810 525 
C 2867 563 2918 582 2989 614 
C 3955 1037 4358 1235 5005 1626 
L 4909 2099 
z
M 2957 2502 
C 3110 2534 3251 2541 3507 2541 
L 4301 2541 
C 4525 2541 4685 2534 4813 2515 
L 4813 3021 
C 4678 2995 4538 2982 4294 2982 
L 3507 2982 
C 3245 2982 3123 2989 2957 3021 
L 2957 2502 
z
" transform="scale(0.015625)"/>
       <path id="HiraginoSans-W4-5bff" d="M 3270 4755 
C 3328 5062 3360 5267 3386 5350 
L 2810 5376 
C 2816 5306 2816 5267 2816 5229 
C 2816 5126 2803 4960 2784 4755 
L 1350 4755 
C 1069 4755 864 4768 672 4794 
L 672 4307 
C 858 4333 1050 4346 1338 4346 
L 2720 4346 
C 2682 4102 2682 4083 2630 3846 
L 1510 3846 
C 1210 3846 1107 3853 922 3878 
L 922 3411 
C 1094 3437 1222 3443 1510 3443 
L 2541 3443 
C 2490 3245 2458 3142 2394 2938 
L 1094 2938 
C 806 2938 608 2950 429 2976 
L 429 2490 
C 614 2515 800 2528 1101 2528 
L 2240 2528 
C 2138 2266 2080 2138 1978 1933 
L 1114 1933 
C 813 1933 627 1946 448 1971 
L 448 1478 
C 646 1504 838 1517 1120 1517 
L 1741 1517 
C 1402 966 1037 576 486 166 
C 672 38 768 -45 896 -198 
C 1542 365 1907 819 2278 1517 
L 4416 1517 
L 4416 160 
C 4416 32 4371 0 4160 0 
C 3942 0 3725 26 3398 90 
C 3482 -96 3514 -218 3546 -422 
C 3878 -448 3974 -454 4173 -454 
C 4730 -454 4896 -333 4896 83 
L 4896 1517 
L 5306 1517 
C 5594 1517 5786 1504 5978 1478 
L 5978 1971 
C 5805 1946 5613 1933 5312 1933 
L 4896 1933 
L 4896 2528 
L 5331 2528 
C 5619 2528 5824 2515 5997 2490 
L 5997 2976 
C 5811 2950 5626 2938 5331 2938 
L 2867 2938 
C 2931 3136 2957 3219 3014 3443 
L 4890 3443 
C 5184 3443 5286 3437 5472 3411 
L 5472 3878 
C 5286 3853 5184 3846 4890 3846 
L 3110 3846 
C 3155 4064 3162 4109 3206 4346 
L 5082 4346 
C 5376 4346 5562 4333 5747 4307 
L 5747 4794 
C 5562 4768 5363 4755 5069 4755 
L 3270 4755 
z
M 4416 2528 
L 4416 1933 
L 2483 1933 
C 2592 2182 2637 2285 2726 2528 
L 4416 2528 
z
M 3597 429 
C 3258 838 3046 1056 2682 1376 
L 2323 1075 
C 2688 749 2893 518 3200 83 
L 3597 429 
z
" transform="scale(0.015625)"/>
       <path id="HiraginoSans-W4-547d" d="M 1856 3232 
C 2010 3251 2163 3258 2374 3258 
L 3968 3258 
C 4211 3258 4352 3251 4512 3232 
L 4512 3693 
C 4915 3405 5370 3142 5914 2886 
C 6029 3117 6080 3187 6234 3366 
C 5702 3552 5107 3859 4608 4211 
C 4122 4550 3770 4890 3443 5331 
L 2874 5331 
C 2547 4896 2291 4640 1843 4288 
C 1389 3923 813 3603 160 3341 
C 314 3194 390 3091 486 2906 
C 1056 3168 1350 3334 1856 3693 
L 1856 3232 
z
M 2374 3680 
C 2144 3680 2003 3686 1869 3706 
C 2061 3840 2202 3955 2451 4173 
C 2765 4448 2874 4563 3174 4934 
C 3565 4454 3955 4096 4493 3706 
C 4365 3686 4211 3680 3962 3680 
L 2374 3680 
z
M 1299 365 
L 2394 365 
L 2394 83 
L 2874 83 
C 2854 262 2848 422 2848 659 
L 2848 2144 
C 2848 2406 2854 2566 2867 2733 
C 2720 2720 2566 2714 2291 2714 
L 1382 2714 
C 1101 2714 960 2720 819 2733 
C 832 2515 838 2413 838 2150 
L 838 595 
C 838 339 832 160 806 -58 
L 1299 -58 
L 1299 365 
z
M 1299 2285 
L 2394 2285 
L 2394 794 
L 1299 794 
L 1299 2285 
z
M 3392 179 
C 3392 -96 3379 -346 3354 -544 
L 3904 -544 
C 3878 -365 3866 -134 3866 160 
L 3866 2272 
L 5075 2272 
L 5075 730 
C 5075 570 5030 525 4864 525 
C 4704 525 4480 544 4230 576 
C 4294 410 4320 288 4333 96 
C 4634 83 4736 77 4851 77 
C 5408 77 5555 198 5555 659 
L 5555 2042 
C 5555 2355 5562 2515 5581 2726 
C 5466 2707 5280 2701 4998 2701 
L 3955 2701 
C 3693 2701 3507 2707 3373 2726 
C 3386 2528 3392 2336 3392 2042 
L 3392 179 
z
" transform="scale(0.015625)"/>
      </defs>
      <use xlink:href="#HiraginoSans-W4-5e73"/>
      <use xlink:href="#HiraginoSans-W4-5747" x="99.999985"/>
      <use xlink:href="#HiraginoSans-W4-5bff" x="199.999969"/>
      <use xlink:href="#HiraginoSans-W4-547d" x="299.999954"/>
     </g>
    </g>
   </g>
   <g id="line2d_33">
    <path d="M 57.651477 261.216 
L 61.923248 225.647083 
L 66.195018 221.794854 
L 70.466788 210.238166 
L 74.738559 192.261096 
L 79.010329 185.198675 
L 83.282099 185.198675 
L 87.55387 175.503898 
L 91.82564 174.284025 
L 96.09741 174.348229 
L 100.369181 176.595363 
L 104.640951 165.423898 
L 108.912721 163.94721 
L 113.184492 163.240968 
L 117.456262 158.682497 
L 121.728032 157.39842 
L 125.999803 151.106446 
L 130.271573 148.15307 
L 134.543343 147.703643 
L 138.815114 143.78721 
L 143.086884 140.191796 
L 147.358654 139.292943 
L 151.630425 138.458293 
L 155.902195 137.623643 
L 160.173965 132.102115 
L 164.445736 129.983389 
L 168.717506 128.699312 
L 172.989276 125.745936 
L 177.261047 122.086318 
L 181.532817 119.389758 
L 185.804587 115.922752 
L 190.076358 114.125045 
L 194.348128 110.979057 
L 198.619898 111.685299 
L 202.891669 108.860331 
L 207.163439 106.099567 
L 211.435209 106.227975 
L 215.70698 104.045045 
L 219.97875 102.504153 
L 224.25052 99.614981 
L 228.522291 97.175236 
L 232.794061 97.624662 
L 237.065831 95.249121 
L 241.337602 95.184917 
L 245.609372 93.965045 
L 249.881142 94.093452 
L 254.152913 93.066191 
L 258.424683 91.011669 
L 262.696453 92.231541 
L 266.968224 88.186701 
L 271.239994 87.031032 
L 275.511764 87.223643 
L 279.783535 87.608866 
L 284.055305 83.628229 
L 288.327075 81.381096 
L 292.598846 79.776 
L 296.870616 79.519185 
L 301.142386 77.721478 
L 305.414157 78.235108 
L 309.685927 75.41014 
L 313.957697 74.190268 
L 318.229468 73.548229 
L 322.501238 71.622115 
L 326.773008 71.87893 
L 331.044779 72.585172 
L 335.316549 69.374981 
L 339.588319 67.641478 
L 343.86009 65.779567 
L 348.13186 64.174471 
L 352.40363 62.697783 
L 356.675401 61.991541 
L 360.947171 60.96428 
L 365.218941 59.937019 
L 369.490712 58.460331 
L 373.762482 59.551796 
L 378.034252 62.248357 
L 382.306023 61.991541 
" clip-path="url(#p2b73fca0ef)" style="fill: none; stroke: #1f77b4; stroke-width: 1.5; stroke-linecap: square"/>
    <defs>
     <path id="mceb99ea308" d="M 0 3 
C 0.795609 3 1.55874 2.683901 2.12132 2.12132 
C 2.683901 1.55874 3 0.795609 3 0 
C 3 -0.795609 2.683901 -1.55874 2.12132 -2.12132 
C 1.55874 -2.683901 0.795609 -3 0 -3 
C -0.795609 -3 -1.55874 -2.683901 -2.12132 -2.12132 
C -2.683901 -1.55874 -3 -0.795609 -3 0 
C -3 0.795609 -2.683901 1.55874 -2.12132 2.12132 
C -1.55874 2.683901 -0.795609 3 0 3 
z
" style="stroke: #1f77b4"/>
    </defs>
    <g clip-path="url(#p2b73fca0ef)">
     <use xlink:href="#mceb99ea308" x="57.651477" y="261.216" style="fill: #1f77b4; stroke: #1f77b4"/>
     <use xlink:href="#mceb99ea308" x="61.923248" y="225.647083" style="fill: #1f77b4; stroke: #1f77b4"/>
     <use xlink:href="#mceb99ea308" x="66.195018" y="221.794854" style="fill: #1f77b4; stroke: #1f77b4"/>
     <use xlink:href="#mceb99ea308" x="70.466788" y="210.238166" style="fill: #1f77b4; stroke: #1f77b4"/>
     <use xlink:href="#mceb99ea308" x="74.738559" y="192.261096" style="fill: #1f77b4; stroke: #1f77b4"/>
     <use xlink:href="#mceb99ea308" x="79.010329" y="185.198675" style="fill: #1f77b4; stroke: #1f77b4"/>
     <use xlink:href="#mceb99ea308" x="83.282099" y="185.198675" style="fill: #1f77b4; stroke: #1f77b4"/>
     <use xlink:href="#mceb99ea308" x="87.55387" y="175.503898" style="fill: #1f77b4; stroke: #1f77b4"/>
     <use xlink:href="#mceb99ea308" x="91.82564" y="174.284025" style="fill: #1f77b4; stroke: #1f77b4"/>
     <use xlink:href="#mceb99ea308" x="96.09741" y="174.348229" style="fill: #1f77b4; stroke: #1f77b4"/>
     <use xlink:href="#mceb99ea308" x="100.369181" y="176.595363" style="fill: #1f77b4; stroke: #1f77b4"/>
     <use xlink:href="#mceb99ea308" x="104.640951" y="165.423898" style="fill: #1f77b4; stroke: #1f77b4"/>
     <use xlink:href="#mceb99ea308" x="108.912721" y="163.94721" style="fill: #1f77b4; stroke: #1f77b4"/>
     <use xlink:href="#mceb99ea308" x="113.184492" y="163.240968" style="fill: #1f77b4; stroke: #1f77b4"/>
     <use xlink:href="#mceb99ea308" x="117.456262" y="158.682497" style="fill: #1f77b4; stroke: #1f77b4"/>
     <use xlink:href="#mceb99ea308" x="121.728032" y="157.39842" style="fill: #1f77b4; stroke: #1f77b4"/>
     <use xlink:href="#mceb99ea308" x="125.999803" y="151.106446" style="fill: #1f77b4; stroke: #1f77b4"/>
     <use xlink:href="#mceb99ea308" x="130.271573" y="148.15307" style="fill: #1f77b4; stroke: #1f77b4"/>
     <use xlink:href="#mceb99ea308" x="134.543343" y="147.703643" style="fill: #1f77b4; stroke: #1f77b4"/>
     <use xlink:href="#mceb99ea308" x="138.815114" y="143.78721" style="fill: #1f77b4; stroke: #1f77b4"/>
     <use xlink:href="#mceb99ea308" x="143.086884" y="140.191796" style="fill: #1f77b4; stroke: #1f77b4"/>
     <use xlink:href="#mceb99ea308" x="147.358654" y="139.292943" style="fill: #1f77b4; stroke: #1f77b4"/>
     <use xlink:href="#mceb99ea308" x="151.630425" y="138.458293" style="fill: #1f77b4; stroke: #1f77b4"/>
     <use xlink:href="#mceb99ea308" x="155.902195" y="137.623643" style="fill: #1f77b4; stroke: #1f77b4"/>
     <use xlink:href="#mceb99ea308" x="160.173965" y="132.102115" style="fill: #1f77b4; stroke: #1f77b4"/>
     <use xlink:href="#mceb99ea308" x="164.445736" y="129.983389" style="fill: #1f77b4; stroke: #1f77b4"/>
     <use xlink:href="#mceb99ea308" x="168.717506" y="128.699312" style="fill: #1f77b4; stroke: #1f77b4"/>
     <use xlink:href="#mceb99ea308" x="172.989276" y="125.745936" style="fill: #1f77b4; stroke: #1f77b4"/>
     <use xlink:href="#mceb99ea308" x="177.261047" y="122.086318" style="fill: #1f77b4; stroke: #1f77b4"/>
     <use xlink:href="#mceb99ea308" x="181.532817" y="119.389758" style="fill: #1f77b4; stroke: #1f77b4"/>
     <use xlink:href="#mceb99ea308" x="185.804587" y="115.922752" style="fill: #1f77b4; stroke: #1f77b4"/>
     <use xlink:href="#mceb99ea308" x="190.076358" y="114.125045" style="fill: #1f77b4; stroke: #1f77b4"/>
     <use xlink:href="#mceb99ea308" x="194.348128" y="110.979057" style="fill: #1f77b4; stroke: #1f77b4"/>
     <use xlink:href="#mceb99ea308" x="198.619898" y="111.685299" style="fill: #1f77b4; stroke: #1f77b4"/>
     <use xlink:href="#mceb99ea308" x="202.891669" y="108.860331" style="fill: #1f77b4; stroke: #1f77b4"/>
     <use xlink:href="#mceb99ea308" x="207.163439" y="106.099567" style="fill: #1f77b4; stroke: #1f77b4"/>
     <use xlink:href="#mceb99ea308" x="211.435209" y="106.227975" style="fill: #1f77b4; stroke: #1f77b4"/>
     <use xlink:href="#mceb99ea308" x="215.70698" y="104.045045" style="fill: #1f77b4; stroke: #1f77b4"/>
     <use xlink:href="#mceb99ea308" x="219.97875" y="102.504153" style="fill: #1f77b4; stroke: #1f77b4"/>
     <use xlink:href="#mceb99ea308" x="224.25052" y="99.614981" style="fill: #1f77b4; stroke: #1f77b4"/>
     <use xlink:href="#mceb99ea308" x="228.522291" y="97.175236" style="fill: #1f77b4; stroke: #1f77b4"/>
     <use xlink:href="#mceb99ea308" x="232.794061" y="97.624662" style="fill: #1f77b4; stroke: #1f77b4"/>
     <use xlink:href="#mceb99ea308" x="237.065831" y="95.249121" style="fill: #1f77b4; stroke: #1f77b4"/>
     <use xlink:href="#mceb99ea308" x="241.337602" y="95.184917" style="fill: #1f77b4; stroke: #1f77b4"/>
     <use xlink:href="#mceb99ea308" x="245.609372" y="93.965045" style="fill: #1f77b4; stroke: #1f77b4"/>
     <use xlink:href="#mceb99ea308" x="249.881142" y="94.093452" style="fill: #1f77b4; stroke: #1f77b4"/>
     <use xlink:href="#mceb99ea308" x="254.152913" y="93.066191" style="fill: #1f77b4; stroke: #1f77b4"/>
     <use xlink:href="#mceb99ea308" x="258.424683" y="91.011669" style="fill: #1f77b4; stroke: #1f77b4"/>
     <use xlink:href="#mceb99ea308" x="262.696453" y="92.231541" style="fill: #1f77b4; stroke: #1f77b4"/>
     <use xlink:href="#mceb99ea308" x="266.968224" y="88.186701" style="fill: #1f77b4; stroke: #1f77b4"/>
     <use xlink:href="#mceb99ea308" x="271.239994" y="87.031032" style="fill: #1f77b4; stroke: #1f77b4"/>
     <use xlink:href="#mceb99ea308" x="275.511764" y="87.223643" style="fill: #1f77b4; stroke: #1f77b4"/>
     <use xlink:href="#mceb99ea308" x="279.783535" y="87.608866" style="fill: #1f77b4; stroke: #1f77b4"/>
     <use xlink:href="#mceb99ea308" x="284.055305" y="83.628229" style="fill: #1f77b4; stroke: #1f77b4"/>
     <use xlink:href="#mceb99ea308" x="288.327075" y="81.381096" style="fill: #1f77b4; stroke: #1f77b4"/>
     <use xlink:href="#mceb99ea308" x="292.598846" y="79.776" style="fill: #1f77b4; stroke: #1f77b4"/>
     <use xlink:href="#mceb99ea308" x="296.870616" y="79.519185" style="fill: #1f77b4; stroke: #1f77b4"/>
     <use xlink:href="#mceb99ea308" x="301.142386" y="77.721478" style="fill: #1f77b4; stroke: #1f77b4"/>
     <use xlink:href="#mceb99ea308" x="305.414157" y="78.235108" style="fill: #1f77b4; stroke: #1f77b4"/>
     <use xlink:href="#mceb99ea308" x="309.685927" y="75.41014" style="fill: #1f77b4; stroke: #1f77b4"/>
     <use xlink:href="#mceb99ea308" x="313.957697" y="74.190268" style="fill: #1f77b4; stroke: #1f77b4"/>
     <use xlink:href="#mceb99ea308" x="318.229468" y="73.548229" style="fill: #1f77b4; stroke: #1f77b4"/>
     <use xlink:href="#mceb99ea308" x="322.501238" y="71.622115" style="fill: #1f77b4; stroke: #1f77b4"/>
     <use xlink:href="#mceb99ea308" x="326.773008" y="71.87893" style="fill: #1f77b4; stroke: #1f77b4"/>
     <use xlink:href="#mceb99ea308" x="331.044779" y="72.585172" style="fill: #1f77b4; stroke: #1f77b4"/>
     <use xlink:href="#mceb99ea308" x="335.316549" y="69.374981" style="fill: #1f77b4; stroke: #1f77b4"/>
     <use xlink:href="#mceb99ea308" x="339.588319" y="67.641478" style="fill: #1f77b4; stroke: #1f77b4"/>
     <use xlink:href="#mceb99ea308" x="343.86009" y="65.779567" style="fill: #1f77b4; stroke: #1f77b4"/>
     <use xlink:href="#mceb99ea308" x="348.13186" y="64.174471" style="fill: #1f77b4; stroke: #1f77b4"/>
     <use xlink:href="#mceb99ea308" x="352.40363" y="62.697783" style="fill: #1f77b4; stroke: #1f77b4"/>
     <use xlink:href="#mceb99ea308" x="356.675401" y="61.991541" style="fill: #1f77b4; stroke: #1f77b4"/>
     <use xlink:href="#mceb99ea308" x="360.947171" y="60.96428" style="fill: #1f77b4; stroke: #1f77b4"/>
     <use xlink:href="#mceb99ea308" x="365.218941" y="59.937019" style="fill: #1f77b4; stroke: #1f77b4"/>
     <use xlink:href="#mceb99ea308" x="369.490712" y="58.460331" style="fill: #1f77b4; stroke: #1f77b4"/>
     <use xlink:href="#mceb99ea308" x="373.762482" y="59.551796" style="fill: #1f77b4; stroke: #1f77b4"/>
     <use xlink:href="#mceb99ea308" x="378.034252" y="62.248357" style="fill: #1f77b4; stroke: #1f77b4"/>
     <use xlink:href="#mceb99ea308" x="382.306023" y="61.991541" style="fill: #1f77b4; stroke: #1f77b4"/>
    </g>
   </g>
   <g id="line2d_34">
    <path d="M 57.651477 236.17651 
L 61.923248 201.249631 
L 66.195018 198.681478 
L 70.466788 187.766828 
L 74.738559 165.937529 
L 79.010329 162.085299 
L 83.282099 160.801223 
L 87.55387 148.024662 
L 91.82564 147.639439 
L 96.09741 148.98772 
L 100.369181 148.602497 
L 104.640951 135.697529 
L 108.912721 133.964025 
L 113.184492 131.973707 
L 117.456262 128.121478 
L 121.728032 125.745936 
L 125.999803 118.169885 
L 130.271573 114.767083 
L 134.543343 114.446064 
L 138.815114 110.016 
L 143.086884 106.548994 
L 147.358654 105.585936 
L 151.630425 103.210395 
L 155.902195 103.274599 
L 160.173965 97.367847 
L 164.445736 95.05651 
L 168.717506 94.542879 
L 172.989276 92.680968 
L 177.261047 88.957146 
L 181.532817 86.003771 
L 185.804587 82.151541 
L 190.076358 79.711796 
L 194.348128 76.116382 
L 198.619898 76.951032 
L 202.891669 74.57549 
L 207.163439 71.172688 
L 211.435209 70.402242 
L 215.70698 67.834089 
L 219.97875 65.907975 
L 224.25052 63.018803 
L 228.522291 60.065427 
L 232.794061 60.643261 
L 237.065831 57.625682 
L 241.337602 56.791032 
L 245.609372 55.442752 
L 249.881142 54.73651 
L 254.152913 52.874599 
L 258.424683 49.857019 
L 262.696453 50.691669 
L 266.968224 45.940586 
L 271.239994 44.463898 
L 275.511764 43.244025 
L 279.783535 43.372433 
L 284.055305 39.456 
L 288.327075 37.337274 
L 292.598846 35.411159 
L 296.870616 34.769121 
L 301.142386 33.099822 
L 305.414157 33.549248 
L 309.685927 31.687338 
L 313.957697 30.531669 
L 318.229468 30.146446 
L 322.501238 27.642497 
L 326.773008 28.54135 
L 331.044779 31.109503 
L 335.316549 27.835108 
L 339.588319 26.551032 
L 343.86009 25.138548 
L 348.13186 24.111287 
L 352.40363 23.148229 
L 356.675401 22.377783 
L 360.947171 21.992561 
L 365.218941 21.157911 
L 369.490712 19.296 
L 373.762482 20.387465 
L 378.034252 23.469248 
L 382.306023 23.148229 
" clip-path="url(#p2b73fca0ef)" style="fill: none; stroke: #ff7f0e; stroke-width: 1.5; stroke-linecap: square"/>
    <defs>
     <path id="m36717b271f" d="M 0 3 
C 0.795609 3 1.55874 2.683901 2.12132 2.12132 
C 2.683901 1.55874 3 0.795609 3 0 
C 3 -0.795609 2.683901 -1.55874 2.12132 -2.12132 
C 1.55874 -2.683901 0.795609 -3 0 -3 
C -0.795609 -3 -1.55874 -2.683901 -2.12132 -2.12132 
C -2.683901 -1.55874 -3 -0.795609 -3 0 
C -3 0.795609 -2.683901 1.55874 -2.12132 2.12132 
C -1.55874 2.683901 -0.795609 3 0 3 
z
" style="stroke: #ff7f0e"/>
    </defs>
    <g clip-path="url(#p2b73fca0ef)">
     <use xlink:href="#m36717b271f" x="57.651477" y="236.17651" style="fill: #ff7f0e; stroke: #ff7f0e"/>
     <use xlink:href="#m36717b271f" x="61.923248" y="201.249631" style="fill: #ff7f0e; stroke: #ff7f0e"/>
     <use xlink:href="#m36717b271f" x="66.195018" y="198.681478" style="fill: #ff7f0e; stroke: #ff7f0e"/>
     <use xlink:href="#m36717b271f" x="70.466788" y="187.766828" style="fill: #ff7f0e; stroke: #ff7f0e"/>
     <use xlink:href="#m36717b271f" x="74.738559" y="165.937529" style="fill: #ff7f0e; stroke: #ff7f0e"/>
     <use xlink:href="#m36717b271f" x="79.010329" y="162.085299" style="fill: #ff7f0e; stroke: #ff7f0e"/>
     <use xlink:href="#m36717b271f" x="83.282099" y="160.801223" style="fill: #ff7f0e; stroke: #ff7f0e"/>
     <use xlink:href="#m36717b271f" x="87.55387" y="148.024662" style="fill: #ff7f0e; stroke: #ff7f0e"/>
     <use xlink:href="#m36717b271f" x="91.82564" y="147.639439" style="fill: #ff7f0e; stroke: #ff7f0e"/>
     <use xlink:href="#m36717b271f" x="96.09741" y="148.98772" style="fill: #ff7f0e; stroke: #ff7f0e"/>
     <use xlink:href="#m36717b271f" x="100.369181" y="148.602497" style="fill: #ff7f0e; stroke: #ff7f0e"/>
     <use xlink:href="#m36717b271f" x="104.640951" y="135.697529" style="fill: #ff7f0e; stroke: #ff7f0e"/>
     <use xlink:href="#m36717b271f" x="108.912721" y="133.964025" style="fill: #ff7f0e; stroke: #ff7f0e"/>
     <use xlink:href="#m36717b271f" x="113.184492" y="131.973707" style="fill: #ff7f0e; stroke: #ff7f0e"/>
     <use xlink:href="#m36717b271f" x="117.456262" y="128.121478" style="fill: #ff7f0e; stroke: #ff7f0e"/>
     <use xlink:href="#m36717b271f" x="121.728032" y="125.745936" style="fill: #ff7f0e; stroke: #ff7f0e"/>
     <use xlink:href="#m36717b271f" x="125.999803" y="118.169885" style="fill: #ff7f0e; stroke: #ff7f0e"/>
     <use xlink:href="#m36717b271f" x="130.271573" y="114.767083" style="fill: #ff7f0e; stroke: #ff7f0e"/>
     <use xlink:href="#m36717b271f" x="134.543343" y="114.446064" style="fill: #ff7f0e; stroke: #ff7f0e"/>
     <use xlink:href="#m36717b271f" x="138.815114" y="110.016" style="fill: #ff7f0e; stroke: #ff7f0e"/>
     <use xlink:href="#m36717b271f" x="143.086884" y="106.548994" style="fill: #ff7f0e; stroke: #ff7f0e"/>
     <use xlink:href="#m36717b271f" x="147.358654" y="105.585936" style="fill: #ff7f0e; stroke: #ff7f0e"/>
     <use xlink:href="#m36717b271f" x="151.630425" y="103.210395" style="fill: #ff7f0e; stroke: #ff7f0e"/>
     <use xlink:href="#m36717b271f" x="155.902195" y="103.274599" style="fill: #ff7f0e; stroke: #ff7f0e"/>
     <use xlink:href="#m36717b271f" x="160.173965" y="97.367847" style="fill: #ff7f0e; stroke: #ff7f0e"/>
     <use xlink:href="#m36717b271f" x="164.445736" y="95.05651" style="fill: #ff7f0e; stroke: #ff7f0e"/>
     <use xlink:href="#m36717b271f" x="168.717506" y="94.542879" style="fill: #ff7f0e; stroke: #ff7f0e"/>
     <use xlink:href="#m36717b271f" x="172.989276" y="92.680968" style="fill: #ff7f0e; stroke: #ff7f0e"/>
     <use xlink:href="#m36717b271f" x="177.261047" y="88.957146" style="fill: #ff7f0e; stroke: #ff7f0e"/>
     <use xlink:href="#m36717b271f" x="181.532817" y="86.003771" style="fill: #ff7f0e; stroke: #ff7f0e"/>
     <use xlink:href="#m36717b271f" x="185.804587" y="82.151541" style="fill: #ff7f0e; stroke: #ff7f0e"/>
     <use xlink:href="#m36717b271f" x="190.076358" y="79.711796" style="fill: #ff7f0e; stroke: #ff7f0e"/>
     <use xlink:href="#m36717b271f" x="194.348128" y="76.116382" style="fill: #ff7f0e; stroke: #ff7f0e"/>
     <use xlink:href="#m36717b271f" x="198.619898" y="76.951032" style="fill: #ff7f0e; stroke: #ff7f0e"/>
     <use xlink:href="#m36717b271f" x="202.891669" y="74.57549" style="fill: #ff7f0e; stroke: #ff7f0e"/>
     <use xlink:href="#m36717b271f" x="207.163439" y="71.172688" style="fill: #ff7f0e; stroke: #ff7f0e"/>
     <use xlink:href="#m36717b271f" x="211.435209" y="70.402242" style="fill: #ff7f0e; stroke: #ff7f0e"/>
     <use xlink:href="#m36717b271f" x="215.70698" y="67.834089" style="fill: #ff7f0e; stroke: #ff7f0e"/>
     <use xlink:href="#m36717b271f" x="219.97875" y="65.907975" style="fill: #ff7f0e; stroke: #ff7f0e"/>
     <use xlink:href="#m36717b271f" x="224.25052" y="63.018803" style="fill: #ff7f0e; stroke: #ff7f0e"/>
     <use xlink:href="#m36717b271f" x="228.522291" y="60.065427" style="fill: #ff7f0e; stroke: #ff7f0e"/>
     <use xlink:href="#m36717b271f" x="232.794061" y="60.643261" style="fill: #ff7f0e; stroke: #ff7f0e"/>
     <use xlink:href="#m36717b271f" x="237.065831" y="57.625682" style="fill: #ff7f0e; stroke: #ff7f0e"/>
     <use xlink:href="#m36717b271f" x="241.337602" y="56.791032" style="fill: #ff7f0e; stroke: #ff7f0e"/>
     <use xlink:href="#m36717b271f" x="245.609372" y="55.442752" style="fill: #ff7f0e; stroke: #ff7f0e"/>
     <use xlink:href="#m36717b271f" x="249.881142" y="54.73651" style="fill: #ff7f0e; stroke: #ff7f0e"/>
     <use xlink:href="#m36717b271f" x="254.152913" y="52.874599" style="fill: #ff7f0e; stroke: #ff7f0e"/>
     <use xlink:href="#m36717b271f" x="258.424683" y="49.857019" style="fill: #ff7f0e; stroke: #ff7f0e"/>
     <use xlink:href="#m36717b271f" x="262.696453" y="50.691669" style="fill: #ff7f0e; stroke: #ff7f0e"/>
     <use xlink:href="#m36717b271f" x="266.968224" y="45.940586" style="fill: #ff7f0e; stroke: #ff7f0e"/>
     <use xlink:href="#m36717b271f" x="271.239994" y="44.463898" style="fill: #ff7f0e; stroke: #ff7f0e"/>
     <use xlink:href="#m36717b271f" x="275.511764" y="43.244025" style="fill: #ff7f0e; stroke: #ff7f0e"/>
     <use xlink:href="#m36717b271f" x="279.783535" y="43.372433" style="fill: #ff7f0e; stroke: #ff7f0e"/>
     <use xlink:href="#m36717b271f" x="284.055305" y="39.456" style="fill: #ff7f0e; stroke: #ff7f0e"/>
     <use xlink:href="#m36717b271f" x="288.327075" y="37.337274" style="fill: #ff7f0e; stroke: #ff7f0e"/>
     <use xlink:href="#m36717b271f" x="292.598846" y="35.411159" style="fill: #ff7f0e; stroke: #ff7f0e"/>
     <use xlink:href="#m36717b271f" x="296.870616" y="34.769121" style="fill: #ff7f0e; stroke: #ff7f0e"/>
     <use xlink:href="#m36717b271f" x="301.142386" y="33.099822" style="fill: #ff7f0e; stroke: #ff7f0e"/>
     <use xlink:href="#m36717b271f" x="305.414157" y="33.549248" style="fill: #ff7f0e; stroke: #ff7f0e"/>
     <use xlink:href="#m36717b271f" x="309.685927" y="31.687338" style="fill: #ff7f0e; stroke: #ff7f0e"/>
     <use xlink:href="#m36717b271f" x="313.957697" y="30.531669" style="fill: #ff7f0e; stroke: #ff7f0e"/>
     <use xlink:href="#m36717b271f" x="318.229468" y="30.146446" style="fill: #ff7f0e; stroke: #ff7f0e"/>
     <use xlink:href="#m36717b271f" x="322.501238" y="27.642497" style="fill: #ff7f0e; stroke: #ff7f0e"/>
     <use xlink:href="#m36717b271f" x="326.773008" y="28.54135" style="fill: #ff7f0e; stroke: #ff7f0e"/>
     <use xlink:href="#m36717b271f" x="331.044779" y="31.109503" style="fill: #ff7f0e; stroke: #ff7f0e"/>
     <use xlink:href="#m36717b271f" x="335.316549" y="27.835108" style="fill: #ff7f0e; stroke: #ff7f0e"/>
     <use xlink:href="#m36717b271f" x="339.588319" y="26.551032" style="fill: #ff7f0e; stroke: #ff7f0e"/>
     <use xlink:href="#m36717b271f" x="343.86009" y="25.138548" style="fill: #ff7f0e; stroke: #ff7f0e"/>
     <use xlink:href="#m36717b271f" x="348.13186" y="24.111287" style="fill: #ff7f0e; stroke: #ff7f0e"/>
     <use xlink:href="#m36717b271f" x="352.40363" y="23.148229" style="fill: #ff7f0e; stroke: #ff7f0e"/>
     <use xlink:href="#m36717b271f" x="356.675401" y="22.377783" style="fill: #ff7f0e; stroke: #ff7f0e"/>
     <use xlink:href="#m36717b271f" x="360.947171" y="21.992561" style="fill: #ff7f0e; stroke: #ff7f0e"/>
     <use xlink:href="#m36717b271f" x="365.218941" y="21.157911" style="fill: #ff7f0e; stroke: #ff7f0e"/>
     <use xlink:href="#m36717b271f" x="369.490712" y="19.296" style="fill: #ff7f0e; stroke: #ff7f0e"/>
     <use xlink:href="#m36717b271f" x="373.762482" y="20.387465" style="fill: #ff7f0e; stroke: #ff7f0e"/>
     <use xlink:href="#m36717b271f" x="378.034252" y="23.469248" style="fill: #ff7f0e; stroke: #ff7f0e"/>
     <use xlink:href="#m36717b271f" x="382.306023" y="23.148229" style="fill: #ff7f0e; stroke: #ff7f0e"/>
    </g>
   </g>
   <g id="patch_3">
    <path d="M 41.41875 273.312 
L 41.41875 7.2 
" style="fill: none; stroke: #000000; stroke-width: 0.8; stroke-linejoin: miter; stroke-linecap: square"/>
   </g>
   <g id="patch_4">
    <path d="M 398.53875 273.312 
L 398.53875 7.2 
" style="fill: none; stroke: #000000; stroke-width: 0.8; stroke-linejoin: miter; stroke-linecap: square"/>
   </g>
   <g id="patch_5">
    <path d="M 41.41875 273.312 
L 398.53875 273.312 
" style="fill: none; stroke: #000000; stroke-width: 0.8; stroke-linejoin: miter; stroke-linecap: square"/>
   </g>
   <g id="patch_6">
    <path d="M 41.41875 7.2 
L 398.53875 7.2 
" style="fill: none; stroke: #000000; stroke-width: 0.8; stroke-linejoin: miter; stroke-linecap: square"/>
   </g>
   <g id="legend_1">
    <g id="patch_7">
     <path d="M 48.41875 44.71875 
L 90.41875 44.71875 
Q 92.41875 44.71875 92.41875 42.71875 
L 92.41875 14.2 
Q 92.41875 12.2 90.41875 12.2 
L 48.41875 12.2 
Q 46.41875 12.2 46.41875 14.2 
L 46.41875 42.71875 
Q 46.41875 44.71875 48.41875 44.71875 
z
" style="fill: #ffffff; opacity: 0.8; stroke: #cccccc; stroke-linejoin: miter"/>
    </g>
    <g id="line2d_35">
     <path d="M 50.41875 20.409375 
L 60.41875 20.409375 
L 70.41875 20.409375 
" style="fill: none; stroke: #1f77b4; stroke-width: 1.5; stroke-linecap: square"/>
     <g>
      <use xlink:href="#mceb99ea308" x="60.41875" y="20.409375" style="fill: #1f77b4; stroke: #1f77b4"/>
     </g>
    </g>
    <g id="text_19">
     <!-- 男 -->
     <g transform="translate(78.41875 23.909375) scale(0.1 -0.1)">
      <defs>
       <path id="HiraginoSans-W4-7537" d="M 5114 1402 
C 5043 736 4986 410 4909 256 
C 4851 134 4762 102 4454 102 
C 4154 102 3872 128 3450 192 
C 3526 -6 3558 -134 3584 -314 
C 3994 -352 4173 -358 4410 -358 
C 4966 -358 5171 -294 5312 -83 
C 5440 115 5536 608 5632 1530 
C 5651 1741 5651 1741 5664 1850 
C 5414 1830 5242 1824 5005 1824 
L 3290 1824 
C 3309 1914 3322 1952 3334 2029 
C 3373 2202 3379 2227 3405 2323 
L 2861 2342 
C 2861 2317 2861 2298 2861 2285 
C 2861 2163 2835 2010 2790 1824 
L 1286 1824 
C 986 1824 755 1837 570 1862 
L 570 1363 
C 781 1389 973 1402 1286 1402 
L 2643 1402 
C 2490 1062 2298 832 1990 614 
C 1555 307 1114 134 307 -32 
C 467 -218 531 -320 602 -486 
C 1434 -269 1920 -45 2362 314 
C 2726 608 2963 941 3142 1402 
L 5114 1402 
z
M 5440 4467 
C 5440 4762 5446 4928 5466 5101 
C 5280 5075 5114 5069 4845 5069 
L 1574 5069 
C 1312 5069 1139 5075 954 5101 
C 973 4928 986 4762 986 4467 
L 986 3053 
C 986 2778 973 2624 954 2445 
C 1133 2464 1357 2477 1594 2477 
L 4864 2477 
C 5088 2477 5286 2464 5466 2451 
C 5446 2650 5440 2778 5440 3053 
L 5440 4467 
z
M 2944 4659 
L 2944 3962 
L 1453 3962 
L 1453 4659 
L 2944 4659 
z
M 3405 3962 
L 3405 4659 
L 4973 4659 
L 4973 3962 
L 3405 3962 
z
M 2944 3565 
L 2944 2880 
L 1453 2880 
L 1453 3565 
L 2944 3565 
z
M 3405 2880 
L 3405 3565 
L 4973 3565 
L 4973 2880 
L 3405 2880 
z
" transform="scale(0.015625)"/>
      </defs>
      <use xlink:href="#HiraginoSans-W4-7537"/>
     </g>
    </g>
    <g id="line2d_36">
     <path d="M 50.41875 35.16875 
L 60.41875 35.16875 
L 70.41875 35.16875 
" style="fill: none; stroke: #ff7f0e; stroke-width: 1.5; stroke-linecap: square"/>
     <g>
      <use xlink:href="#m36717b271f" x="60.41875" y="35.16875" style="fill: #ff7f0e; stroke: #ff7f0e"/>
     </g>
    </g>
    <g id="text_20">
     <!-- 女 -->
     <g transform="translate(78.41875 38.66875) scale(0.1 -0.1)">
      <defs>
       <path id="HiraginoSans-W4-5973" d="M 5862 -19 
C 5171 454 4589 806 3878 1171 
C 4160 1504 4371 1830 4544 2214 
C 4710 2573 4787 2829 4928 3424 
L 5402 3424 
C 5677 3424 5888 3411 6080 3386 
L 6080 3942 
C 5875 3910 5670 3898 5389 3898 
L 2790 3898 
C 2848 4038 2944 4282 2989 4429 
C 3187 5005 3187 5005 3277 5216 
L 2688 5318 
C 2630 4960 2490 4512 2246 3898 
L 1043 3898 
C 774 3898 538 3910 352 3942 
L 352 3386 
C 538 3411 755 3424 1043 3424 
L 2035 3424 
C 1722 2746 1318 2118 864 1581 
C 1088 1491 1216 1427 1357 1338 
C 1478 1498 1504 1536 1606 1677 
C 2342 1395 2534 1312 3072 1050 
C 2400 506 1651 230 352 58 
C 493 -134 525 -192 621 -429 
C 1670 -211 1869 -154 2355 64 
C 2810 269 3168 499 3526 819 
C 4250 429 4870 26 5498 -467 
L 5862 -19 
z
M 4397 3424 
C 4288 2931 4211 2682 4058 2355 
C 3891 1997 3686 1683 3437 1402 
C 2912 1658 2547 1811 1869 2074 
C 2138 2502 2355 2906 2592 3424 
L 4397 3424 
z
" transform="scale(0.015625)"/>
      </defs>
      <use xlink:href="#HiraginoSans-W4-5973"/>
     </g>
    </g>
   </g>
  </g>
 </g>
 <defs>
  <clipPath id="p2b73fca0ef">
   <rect x="41.41875" y="7.2" width="357.12" height="266.112"/>
  </clipPath>
 </defs>
</svg>
