<?xml version="1.0" encoding="utf-8" standalone="no"?>
<!DOCTYPE svg PUBLIC "-//W3C//DTD SVG 1.1//EN"
  "http://www.w3.org/Graphics/SVG/1.1/DTD/svg11.dtd">
<svg xmlns:xlink="http://www.w3.org/1999/xlink" width="408.23875pt" height="311.03075pt" viewBox="0 0 408.23875 311.03075" xmlns="http://www.w3.org/2000/svg" version="1.1">
 <metadata>
  <rdf:RDF xmlns:dc="http://purl.org/dc/elements/1.1/" xmlns:cc="http://creativecommons.org/ns#" xmlns:rdf="http://www.w3.org/1999/02/22-rdf-syntax-ns#">
   <cc:Work>
    <dc:type rdf:resource="http://purl.org/dc/dcmitype/StillImage"/>
    <dc:date>2024-07-26T21:11:17.739612</dc:date>
    <dc:format>image/svg+xml</dc:format>
    <dc:creator>
     <cc:Agent>
      <dc:title>Matplotlib v3.9.1, https://matplotlib.org/</dc:title>
     </cc:Agent>
    </dc:creator>
   </cc:Work>
  </rdf:RDF>
 </metadata>
 <defs>
  <style type="text/css">*{stroke-linejoin: round; stroke-linecap: butt}</style>
 </defs>
 <g id="figure_1">
  <g id="patch_1">
   <path d="M 0 311.03075 
L 408.23875 311.03075 
L 408.23875 0 
L 0 0 
z
" style="fill: #ffffff"/>
  </g>
  <g id="axes_1">
   <g id="patch_2">
    <path d="M 43.91875 273.312 
L 401.03875 273.312 
L 401.03875 7.2 
L 43.91875 7.2 
z
" style="fill: #ffffff"/>
   </g>
   <g id="matplotlib.axis_1">
    <g id="xtick_1">
     <g id="line2d_1">
      <path d="M 60.151477 273.312 
L 60.151477 7.2 
" clip-path="url(#p94b5e1d568)" style="fill: none; stroke: #b0b0b0; stroke-width: 0.8; stroke-linecap: square"/>
     </g>
     <g id="line2d_2">
      <defs>
       <path id="mb5aa668f16" d="M 0 0 
L 0 3.5 
" style="stroke: #000000; stroke-width: 0.8"/>
      </defs>
      <g>
       <use xlink:href="#mb5aa668f16" x="60.151477" y="273.312" style="stroke: #000000; stroke-width: 0.8"/>
      </g>
     </g>
     <g id="text_1">
      <!-- 0 -->
      <g transform="translate(56.786634 288.021375) scale(0.1 -0.1)">
       <defs>
        <path id="HiraginoSans-W4-30" d="M 2144 -90 
C 2758 -90 3232 141 3565 602 
C 3846 998 4019 1696 4019 2464 
C 4019 3002 3936 3501 3770 3949 
C 3693 4160 3558 4371 3379 4550 
C 3078 4858 2650 5024 2157 5024 
C 1498 5024 986 4742 666 4205 
C 435 3834 288 3142 288 2458 
C 288 1939 371 1434 538 986 
C 614 768 749 563 928 384 
C 1242 70 1651 -90 2144 -90 
z
M 2144 4499 
C 2592 4499 2918 4307 3123 3923 
C 3283 3629 3398 3014 3398 2470 
C 3398 2022 3341 1619 3213 1235 
C 3155 1043 3046 870 2912 730 
C 2726 538 2458 435 2150 435 
C 1734 435 1414 614 1197 973 
C 1024 1261 902 1875 902 2451 
C 902 2906 966 3328 1088 3699 
C 1139 3866 1235 4026 1370 4173 
C 1568 4397 1818 4499 2144 4499 
z
" transform="scale(0.015625)"/>
       </defs>
       <use xlink:href="#HiraginoSans-W4-30"/>
      </g>
     </g>
    </g>
    <g id="xtick_2">
     <g id="line2d_3">
      <path d="M 121.990438 273.312 
L 121.990438 7.2 
" clip-path="url(#p94b5e1d568)" style="fill: none; stroke: #b0b0b0; stroke-width: 0.8; stroke-linecap: square"/>
     </g>
     <g id="line2d_4">
      <g>
       <use xlink:href="#mb5aa668f16" x="121.990438" y="273.312" style="stroke: #000000; stroke-width: 0.8"/>
      </g>
     </g>
     <g id="text_2">
      <!-- 20 -->
      <g transform="translate(115.260751 288.021375) scale(0.1 -0.1)">
       <defs>
        <path id="HiraginoSans-W4-32" d="M 3078 0 
C 3424 0 3642 -6 3917 -32 
L 3917 589 
C 3693 557 3430 544 3091 544 
L 1114 544 
C 1280 1114 1606 1478 2451 2042 
C 3181 2528 3341 2656 3546 2912 
C 3738 3142 3846 3443 3846 3744 
C 3846 4525 3200 5030 2202 5030 
C 1613 5030 1158 4858 858 4518 
C 640 4269 531 4026 442 3565 
L 1088 3469 
C 1139 3782 1190 3936 1306 4102 
C 1491 4371 1792 4506 2208 4506 
C 2816 4506 3206 4211 3206 3744 
C 3206 3360 2995 3085 2387 2675 
C 1754 2246 1600 2138 1389 1952 
C 979 1594 710 1229 544 806 
C 448 563 429 461 365 -26 
C 576 -6 678 0 1107 0 
L 3078 0 
z
" transform="scale(0.015625)"/>
       </defs>
       <use xlink:href="#HiraginoSans-W4-32"/>
       <use xlink:href="#HiraginoSans-W4-30" x="67.299988"/>
      </g>
     </g>
    </g>
    <g id="xtick_3">
     <g id="line2d_5">
      <path d="M 183.829399 273.312 
L 183.829399 7.2 
" clip-path="url(#p94b5e1d568)" style="fill: none; stroke: #b0b0b0; stroke-width: 0.8; stroke-linecap: square"/>
     </g>
     <g id="line2d_6">
      <g>
       <use xlink:href="#mb5aa668f16" x="183.829399" y="273.312" style="stroke: #000000; stroke-width: 0.8"/>
      </g>
     </g>
     <g id="text_3">
      <!-- 40 -->
      <g transform="translate(177.089556 288.021375) scale(0.1 -0.1)">
       <defs>
        <path id="HiraginoSans-W4-34" d="M 179 1210 
C 403 1229 589 1235 954 1235 
L 2688 1235 
L 2688 710 
C 2688 410 2675 218 2630 0 
L 3309 0 
C 3270 230 3258 390 3258 704 
L 3258 1235 
L 3494 1235 
C 3763 1235 3910 1222 4154 1190 
L 4154 1798 
C 3917 1766 3750 1754 3494 1754 
L 3258 1754 
L 3258 3853 
C 3258 4358 3264 4544 3296 4934 
L 2701 4934 
C 2560 4704 2445 4550 2214 4269 
L 621 2298 
C 467 2099 326 1939 179 1773 
L 179 1210 
z
M 2688 1747 
L 858 1747 
L 2259 3514 
C 2464 3763 2592 3936 2720 4128 
C 2694 3814 2688 3622 2688 3283 
L 2688 1747 
z
" transform="scale(0.015625)"/>
       </defs>
       <use xlink:href="#HiraginoSans-W4-34"/>
       <use xlink:href="#HiraginoSans-W4-30" x="67.499985"/>
      </g>
     </g>
    </g>
    <g id="xtick_4">
     <g id="line2d_7">
      <path d="M 245.66836 273.312 
L 245.66836 7.2 
" clip-path="url(#p94b5e1d568)" style="fill: none; stroke: #b0b0b0; stroke-width: 0.8; stroke-linecap: square"/>
     </g>
     <g id="line2d_8">
      <g>
       <use xlink:href="#mb5aa668f16" x="245.66836" y="273.312" style="stroke: #000000; stroke-width: 0.8"/>
      </g>
     </g>
     <g id="text_4">
      <!-- 60 -->
      <g transform="translate(238.938673 288.021375) scale(0.1 -0.1)">
       <defs>
        <path id="HiraginoSans-W4-36" d="M 3846 3994 
C 3706 4301 3616 4442 3462 4602 
C 3187 4877 2784 5024 2304 5024 
C 1683 5024 1222 4794 864 4307 
C 557 3891 371 3162 371 2355 
C 371 1446 614 704 1043 320 
C 1331 58 1773 -90 2253 -90 
C 3277 -90 3968 589 3968 1587 
C 3968 2586 3334 3213 2323 3213 
C 1894 3213 1568 3104 1274 2854 
C 1133 2739 1062 2656 941 2458 
C 979 3085 1043 3392 1210 3763 
C 1434 4262 1798 4518 2285 4518 
C 2765 4518 3040 4314 3238 3821 
L 3846 3994 
z
M 2266 2714 
C 2950 2714 3366 2285 3366 1574 
C 3366 1325 3309 1088 3206 922 
C 3008 614 2643 422 2234 422 
C 1568 422 1069 915 1069 1574 
C 1069 2234 1574 2714 2266 2714 
z
" transform="scale(0.015625)"/>
       </defs>
       <use xlink:href="#HiraginoSans-W4-36"/>
       <use xlink:href="#HiraginoSans-W4-30" x="67.299988"/>
      </g>
     </g>
    </g>
    <g id="xtick_5">
     <g id="line2d_9">
      <path d="M 307.507321 273.312 
L 307.507321 7.2 
" clip-path="url(#p94b5e1d568)" style="fill: none; stroke: #b0b0b0; stroke-width: 0.8; stroke-linecap: square"/>
     </g>
     <g id="line2d_10">
      <g>
       <use xlink:href="#mb5aa668f16" x="307.507321" y="273.312" style="stroke: #000000; stroke-width: 0.8"/>
      </g>
     </g>
     <g id="text_5">
      <!-- 80 -->
      <g transform="translate(300.777634 288.021375) scale(0.1 -0.1)">
       <defs>
        <path id="HiraginoSans-W4-38" d="M 1446 2586 
C 1203 2547 1056 2490 851 2355 
C 480 2106 294 1754 294 1299 
C 294 397 966 -102 2163 -102 
C 3347 -102 4006 397 4006 1299 
C 4006 1728 3853 2061 3539 2304 
C 3322 2470 3136 2547 2867 2586 
C 3437 2714 3789 3162 3789 3757 
C 3789 4550 3162 5043 2150 5043 
C 1146 5043 512 4544 512 3750 
C 512 3162 877 2701 1446 2586 
z
M 2150 4538 
C 2784 4538 3187 4211 3187 3699 
C 3187 3155 2797 2829 2157 2829 
C 1510 2829 1114 3162 1114 3699 
C 1114 4211 1523 4538 2150 4538 
z
M 2157 2304 
C 2912 2304 3373 1939 3373 1344 
C 3373 749 2925 410 2144 410 
C 1376 410 928 749 928 1338 
C 928 1939 1389 2304 2157 2304 
z
" transform="scale(0.015625)"/>
       </defs>
       <use xlink:href="#HiraginoSans-W4-38"/>
       <use xlink:href="#HiraginoSans-W4-30" x="67.299988"/>
      </g>
     </g>
    </g>
    <g id="xtick_6">
     <g id="line2d_11">
      <path d="M 369.346282 273.312 
L 369.346282 7.2 
" clip-path="url(#p94b5e1d568)" style="fill: none; stroke: #b0b0b0; stroke-width: 0.8; stroke-linecap: square"/>
     </g>
     <g id="line2d_12">
      <g>
       <use xlink:href="#mb5aa668f16" x="369.346282" y="273.312" style="stroke: #000000; stroke-width: 0.8"/>
      </g>
     </g>
     <g id="text_6">
      <!-- 100 -->
      <g transform="translate(359.251751 288.021375) scale(0.1 -0.1)">
       <defs>
        <path id="HiraginoSans-W4-31" d="M 1018 4371 
C 1222 4397 1389 4410 1606 4410 
L 1939 4410 
L 1939 755 
C 1939 454 1926 237 1888 0 
L 2598 0 
C 2560 250 2547 448 2547 755 
L 2547 3904 
C 2547 4256 2566 4582 2605 4966 
C 2387 4941 2278 4934 2035 4934 
L 1581 4934 
C 1325 4934 1197 4941 1018 4966 
L 1018 4371 
z
" transform="scale(0.015625)"/>
       </defs>
       <use xlink:href="#HiraginoSans-W4-31"/>
       <use xlink:href="#HiraginoSans-W4-30" x="67.299988"/>
       <use xlink:href="#HiraginoSans-W4-30" x="134.599976"/>
      </g>
     </g>
    </g>
    <g id="text_7">
     <!-- 年齢 -->
     <g transform="translate(212.47875 301.78075) scale(0.1 -0.1)">
      <defs>
       <path id="HiraginoSans-W4-5e74" d="M 1446 1555 
L 1005 1555 
C 723 1555 531 1568 339 1594 
L 339 1056 
C 544 1082 730 1094 1005 1094 
L 3270 1094 
L 3270 115 
C 3270 -192 3264 -339 3232 -512 
L 3814 -512 
C 3782 -339 3770 -179 3770 109 
L 3770 1094 
L 5344 1094 
C 5613 1094 5811 1082 6010 1056 
L 6010 1594 
C 5818 1568 5632 1555 5344 1555 
L 3770 1555 
L 3770 2746 
L 4902 2746 
C 5158 2746 5318 2739 5485 2720 
L 5485 3219 
C 5312 3194 5165 3187 4890 3187 
L 3770 3187 
L 3770 4173 
L 5178 4173 
C 5453 4173 5594 4166 5773 4141 
L 5773 4646 
C 5606 4621 5459 4614 5178 4614 
L 2061 4614 
C 2093 4685 2093 4685 2144 4800 
C 2246 5024 2246 5024 2285 5101 
C 2323 5184 2336 5210 2368 5280 
L 1830 5414 
C 1798 5280 1754 5139 1670 4947 
C 1376 4256 1037 3802 397 3258 
C 557 3142 627 3066 749 2874 
C 1184 3258 1472 3616 1811 4173 
L 3270 4173 
L 3270 3187 
L 1882 3187 
C 1702 3187 1562 3194 1427 3206 
C 1440 3085 1446 2970 1446 2829 
L 1446 1555 
z
M 1939 1555 
L 1939 2746 
L 3270 2746 
L 3270 1555 
L 1939 1555 
z
" transform="scale(0.015625)"/>
       <path id="HiraginoSans-W4-9f62" d="M 934 2643 
C 934 2874 941 3078 960 3251 
L 493 3251 
C 518 3072 525 2893 525 2598 
L 525 211 
C 525 -141 518 -314 493 -512 
L 947 -512 
L 947 -192 
L 2822 -192 
L 2822 -448 
L 3270 -448 
C 3251 -250 3245 -102 3245 262 
L 3245 2643 
C 3245 2899 3251 3072 3270 3251 
L 2822 3251 
C 2835 3098 2842 2918 2842 2669 
L 2842 979 
C 2566 1222 2355 1510 2189 1850 
L 2445 1850 
C 2534 1850 2637 1843 2714 1830 
L 2714 2202 
C 2630 2189 2573 2182 2445 2182 
L 2067 2182 
L 2067 2758 
C 2067 2989 2074 3174 2086 3315 
L 1690 3315 
C 1709 3149 1715 2982 1715 2758 
L 1715 2182 
L 1344 2182 
C 1229 2182 1152 2189 1069 2202 
L 1069 1830 
C 1146 1843 1248 1850 1344 1850 
L 1581 1850 
C 1389 1427 1222 1190 934 934 
L 934 2643 
z
M 934 902 
C 1018 813 1069 742 1133 621 
C 1434 941 1555 1139 1741 1574 
C 1722 1254 1715 1024 1715 883 
L 1715 685 
C 1715 525 1709 467 1696 339 
L 2086 339 
C 2074 461 2067 512 2067 678 
L 2067 890 
C 2067 1120 2067 1197 2048 1587 
C 2227 1190 2381 947 2650 646 
C 2726 774 2784 864 2842 928 
L 2842 198 
L 934 198 
L 934 902 
z
M 2240 3872 
L 2240 4422 
L 2682 4422 
C 2918 4422 3040 4416 3200 4397 
L 3200 4813 
C 3034 4787 2925 4781 2682 4781 
L 2240 4781 
L 2240 4819 
C 2240 5056 2246 5178 2278 5344 
L 1773 5344 
C 1805 5158 1811 5030 1811 4742 
L 1811 3872 
L 1261 3872 
L 1261 4448 
C 1261 4742 1267 4819 1293 4998 
L 819 4998 
C 845 4826 851 4698 851 4448 
L 851 3872 
C 621 3872 531 3878 371 3910 
L 371 3443 
C 589 3462 704 3469 986 3469 
L 2797 3469 
C 2989 3469 3174 3462 3290 3450 
C 3366 3360 3418 3290 3494 3142 
C 3782 3411 3942 3597 4147 3885 
C 4371 4211 4486 4429 4659 4877 
C 5011 4109 5344 3667 6010 3098 
C 6093 3296 6144 3379 6266 3546 
C 5907 3802 5670 4038 5421 4384 
C 5197 4685 5024 4998 4902 5299 
L 4384 5299 
C 4211 4678 3821 4064 3322 3622 
L 3322 3904 
C 3162 3878 3053 3872 2803 3872 
L 2240 3872 
z
M 4141 2118 
L 4141 160 
C 4141 -205 4134 -352 4102 -538 
L 4634 -538 
C 4602 -371 4595 -198 4595 160 
L 4595 2118 
L 5434 2118 
L 5434 710 
C 5434 602 5402 570 5293 570 
C 5178 570 5011 589 4870 621 
C 4934 454 4954 346 4966 160 
C 5203 147 5235 147 5286 147 
C 5747 147 5882 256 5882 634 
L 5882 1965 
C 5882 2246 5888 2406 5907 2573 
C 5792 2554 5606 2547 5286 2547 
L 4090 2547 
C 3750 2547 3629 2554 3462 2579 
L 3462 2086 
C 3648 2112 3776 2118 4051 2118 
L 4141 2118 
z
M 1037 3072 
C 1190 2784 1248 2650 1331 2336 
L 1606 2483 
C 1517 2784 1453 2950 1318 3213 
L 1037 3072 
z
M 2438 3213 
C 2362 2893 2304 2726 2170 2483 
L 2432 2336 
C 2573 2598 2630 2752 2746 3078 
L 2438 3213 
z
M 3891 3078 
C 4038 3091 4128 3098 4410 3098 
L 4954 3098 
C 5248 3098 5312 3098 5453 3078 
L 5453 3520 
C 5312 3501 5235 3501 4941 3501 
L 4422 3501 
C 4115 3501 4058 3501 3891 3520 
L 3891 3078 
z
" transform="scale(0.015625)"/>
      </defs>
      <use xlink:href="#HiraginoSans-W4-5e74"/>
      <use xlink:href="#HiraginoSans-W4-9f62" x="99.999985"/>
     </g>
    </g>
   </g>
   <g id="matplotlib.axis_2">
    <g id="ytick_1">
     <g id="line2d_13">
      <path d="M 43.91875 261.351551 
L 401.03875 261.351551 
" clip-path="url(#p94b5e1d568)" style="fill: none; stroke: #b0b0b0; stroke-width: 0.8; stroke-linecap: square"/>
     </g>
     <g id="line2d_14">
      <defs>
       <path id="m8f9fd857f0" d="M 0 0 
L -3.5 0 
" style="stroke: #000000; stroke-width: 0.8"/>
      </defs>
      <g>
       <use xlink:href="#m8f9fd857f0" x="43.91875" y="261.351551" style="stroke: #000000; stroke-width: 0.8"/>
      </g>
     </g>
     <g id="text_8">
      <!-- 0.0 -->
      <g transform="translate(20.959375 265.206239) scale(0.1 -0.1)">
       <defs>
        <path id="HiraginoSans-W4-2e" d="M 442 723 
L 442 0 
L 1165 0 
L 1165 723 
L 442 723 
z
" transform="scale(0.015625)"/>
       </defs>
       <use xlink:href="#HiraginoSans-W4-30"/>
       <use xlink:href="#HiraginoSans-W4-2e" x="67.299988"/>
       <use xlink:href="#HiraginoSans-W4-30" x="92.299973"/>
      </g>
     </g>
    </g>
    <g id="ytick_2">
     <g id="line2d_15">
      <path d="M 43.91875 140.323776 
L 401.03875 140.323776 
" clip-path="url(#p94b5e1d568)" style="fill: none; stroke: #b0b0b0; stroke-width: 0.8; stroke-linecap: square"/>
     </g>
     <g id="line2d_16">
      <g>
       <use xlink:href="#m8f9fd857f0" x="43.91875" y="140.323776" style="stroke: #000000; stroke-width: 0.8"/>
      </g>
     </g>
     <g id="text_9">
      <!-- 0.5 -->
      <g transform="translate(20.959375 144.178463) scale(0.1 -0.1)">
       <defs>
        <path id="HiraginoSans-W4-35" d="M 1331 4416 
L 2835 4416 
C 3155 4416 3366 4403 3622 4365 
L 3622 4986 
C 3360 4947 3206 4934 2829 4934 
L 1446 4934 
C 1082 4934 954 4941 762 4966 
C 774 4768 774 4762 774 4742 
C 774 4563 774 4518 749 4307 
L 608 2822 
C 589 2566 570 2445 518 2157 
L 1088 2106 
C 1146 2240 1178 2291 1261 2374 
C 1485 2605 1811 2739 2131 2739 
C 2842 2739 3264 2317 3264 1613 
C 3264 902 2803 435 2106 435 
C 1747 435 1440 563 1235 794 
C 1146 902 1101 986 1037 1171 
L 410 1005 
C 557 685 646 544 813 378 
C 1133 64 1562 -96 2099 -96 
C 3194 -96 3885 576 3885 1638 
C 3885 2605 3245 3238 2272 3238 
C 1830 3238 1472 3098 1158 2803 
C 1197 2982 1197 2982 1203 3091 
L 1331 4416 
z
" transform="scale(0.015625)"/>
       </defs>
       <use xlink:href="#HiraginoSans-W4-30"/>
       <use xlink:href="#HiraginoSans-W4-2e" x="67.299988"/>
       <use xlink:href="#HiraginoSans-W4-35" x="92.299973"/>
      </g>
     </g>
    </g>
    <g id="ytick_3">
     <g id="line2d_17">
      <path d="M 43.91875 19.296 
L 401.03875 19.296 
" clip-path="url(#p94b5e1d568)" style="fill: none; stroke: #b0b0b0; stroke-width: 0.8; stroke-linecap: square"/>
     </g>
     <g id="line2d_18">
      <g>
       <use xlink:href="#m8f9fd857f0" x="43.91875" y="19.296" style="stroke: #000000; stroke-width: 0.8"/>
      </g>
     </g>
     <g id="text_10">
      <!-- 1.0 -->
      <g transform="translate(20.959375 23.150687) scale(0.1 -0.1)">
       <use xlink:href="#HiraginoSans-W4-31"/>
       <use xlink:href="#HiraginoSans-W4-2e" x="67.299988"/>
       <use xlink:href="#HiraginoSans-W4-30" x="92.299973"/>
      </g>
     </g>
    </g>
    <g id="text_11">
     <!-- 生存率 -->
     <g transform="translate(14.909375 155.256) rotate(-90) scale(0.1 -0.1)">
      <defs>
       <path id="HiraginoSans-W4-751f" d="M 3034 3558 
L 3034 2253 
L 1914 2253 
C 1594 2253 1395 2266 1216 2291 
L 1216 1760 
C 1402 1786 1619 1798 1920 1798 
L 3034 1798 
L 3034 224 
L 1210 224 
C 896 224 666 237 422 269 
L 422 -282 
C 691 -250 909 -237 1222 -237 
L 5280 -237 
C 5600 -237 5786 -250 6061 -282 
L 6061 269 
C 5830 237 5600 224 5267 224 
L 3546 224 
L 3546 1798 
L 4794 1798 
C 5094 1798 5318 1786 5510 1760 
L 5510 2291 
C 5331 2266 5107 2253 4794 2253 
L 3546 2253 
L 3546 3558 
L 5069 3558 
C 5350 3558 5562 3546 5824 3520 
L 5824 4058 
C 5600 4032 5357 4019 5056 4019 
L 3546 4019 
L 3546 4640 
C 3546 4934 3552 5133 3584 5344 
L 2989 5344 
C 3021 5101 3034 4922 3034 4640 
L 3034 4019 
L 1786 4019 
C 1856 4205 1965 4493 1997 4595 
C 2048 4762 2067 4819 2118 4947 
L 1568 5094 
C 1555 4909 1523 4762 1427 4493 
C 1171 3718 800 3085 301 2547 
C 480 2445 538 2400 723 2208 
C 1062 2611 1318 3014 1587 3558 
L 3034 3558 
z
" transform="scale(0.015625)"/>
       <path id="HiraginoSans-W4-5b58" d="M 4358 1498 
L 5395 1498 
C 5683 1498 5901 1485 6080 1459 
L 6080 1971 
C 5901 1946 5702 1933 5408 1933 
L 4358 1933 
L 4358 2163 
C 4864 2464 5222 2733 5536 3046 
C 5664 3174 5664 3174 5728 3238 
L 5421 3546 
C 5312 3526 5146 3520 4915 3520 
L 3059 3520 
C 2758 3520 2637 3526 2464 3546 
L 2464 3053 
C 2650 3078 2810 3091 3046 3091 
L 4941 3091 
C 4646 2803 4467 2669 4122 2483 
L 3846 2483 
C 3859 2381 3866 2266 3866 2144 
L 3866 1933 
L 2701 1933 
C 2406 1933 2208 1946 2029 1971 
L 2029 1459 
C 2214 1485 2419 1498 2707 1498 
L 3866 1498 
L 3866 198 
C 3866 58 3814 19 3622 19 
C 3405 19 3219 38 2912 96 
C 2976 -64 2995 -141 3040 -384 
C 3290 -410 3501 -422 3693 -422 
C 4224 -422 4358 -320 4358 115 
L 4358 1498 
z
M 2093 4198 
C 1901 3827 1747 3578 1498 3251 
L 1171 3251 
C 1184 3117 1190 3040 1190 2880 
C 896 2554 634 2317 230 2003 
C 371 1843 422 1760 525 1555 
C 851 1843 986 1958 1197 2176 
L 1197 186 
C 1197 -115 1184 -294 1158 -461 
L 1728 -461 
C 1702 -269 1690 -77 1690 186 
L 1690 2733 
C 2067 3213 2323 3622 2618 4198 
L 5306 4198 
C 5587 4198 5837 4186 6035 4166 
L 6035 4691 
C 5882 4666 5664 4653 5299 4653 
L 2822 4653 
C 2874 4768 2886 4800 2918 4883 
C 3027 5152 3091 5306 3104 5338 
L 2541 5414 
C 2502 5165 2438 4960 2304 4653 
L 1107 4653 
C 762 4653 518 4666 358 4691 
L 358 4166 
C 544 4186 762 4198 1094 4198 
L 2093 4198 
z
" transform="scale(0.015625)"/>
       <path id="HiraginoSans-W4-7387" d="M 2074 2310 
C 2035 2304 2003 2304 1997 2304 
C 1894 2304 1728 2310 1645 2323 
L 1722 1862 
C 1798 1875 1888 1888 2061 1901 
C 3078 1984 3469 2029 4109 2144 
C 4198 2003 4230 1939 4333 1734 
L 4742 1926 
C 4371 2490 4250 2643 3872 3053 
L 3526 2886 
C 3718 2688 3776 2618 3898 2458 
C 3680 2426 3680 2426 2739 2342 
C 2925 2502 2925 2502 3315 2893 
L 3398 2970 
C 3814 3398 3872 3462 4147 3827 
L 3782 4083 
C 3520 3693 3398 3539 3091 3200 
C 2963 3341 2906 3405 2720 3571 
C 2970 3866 3117 4077 3302 4403 
L 5427 4403 
C 5696 4403 5888 4397 6074 4371 
L 6074 4883 
C 5882 4858 5677 4845 5376 4845 
L 3398 4845 
L 3398 4960 
C 3398 5126 3411 5235 3437 5382 
L 2886 5382 
C 2906 5248 2918 5114 2918 4960 
L 2918 4845 
L 1082 4845 
C 787 4845 589 4858 390 4883 
L 390 4371 
C 576 4397 774 4403 1030 4403 
L 2810 4403 
C 2714 4205 2592 4026 2432 3827 
C 2342 3904 2291 3942 2150 4045 
L 1856 3738 
C 2253 3456 2534 3206 2803 2899 
C 2573 2669 2458 2560 2170 2310 
L 2074 2310 
z
M 3379 928 
L 5402 928 
C 5683 928 5901 915 6093 890 
L 6093 1414 
C 5920 1389 5690 1370 5453 1370 
L 3379 1370 
L 3379 1453 
C 3379 1632 3386 1747 3405 1856 
L 2867 1856 
C 2886 1754 2893 1619 2893 1459 
L 2893 1370 
L 966 1370 
C 723 1370 474 1389 314 1414 
L 314 890 
C 538 915 730 928 998 928 
L 2893 928 
L 2893 32 
C 2893 -179 2880 -352 2848 -544 
L 3424 -544 
C 3392 -358 3379 -192 3379 32 
L 3379 928 
z
M 595 3898 
C 986 3597 1146 3443 1485 3040 
L 1837 3366 
C 1536 3693 1312 3891 941 4186 
L 595 3898 
z
M 563 1722 
C 678 1786 698 1792 787 1843 
C 954 1920 992 1946 1146 2029 
C 1478 2221 1651 2336 2035 2624 
L 1830 2995 
C 1350 2611 845 2336 352 2195 
L 563 1722 
z
M 5299 4205 
C 4973 3827 4717 3610 4275 3315 
L 4589 2995 
C 5024 3302 5312 3552 5658 3910 
L 5299 4205 
z
M 4499 2643 
C 4986 2323 5280 2080 5651 1690 
L 5978 2067 
C 5536 2451 5312 2618 4787 2944 
L 4499 2643 
z
" transform="scale(0.015625)"/>
      </defs>
      <use xlink:href="#HiraginoSans-W4-751f"/>
      <use xlink:href="#HiraginoSans-W4-5b58" x="99.999985"/>
      <use xlink:href="#HiraginoSans-W4-7387" x="199.999969"/>
     </g>
    </g>
   </g>
   <g id="line2d_19">
    <path d="M 60.151477 19.296 
L 63.243425 19.741382 
L 66.335373 19.806737 
L 69.427321 19.855148 
L 72.519269 19.889036 
L 75.611218 19.915662 
L 78.703166 19.935027 
L 81.795114 19.954391 
L 84.887062 19.973756 
L 87.97901 19.990699 
L 91.070958 20.005223 
L 94.162906 20.019746 
L 97.254854 20.039111 
L 100.346802 20.058475 
L 103.43875 20.087522 
L 106.530698 20.12383 
L 109.622646 20.1674 
L 112.714594 20.220652 
L 115.806542 20.283587 
L 118.89849 20.361044 
L 121.990438 20.453026 
L 125.082386 20.554689 
L 128.174334 20.666034 
L 131.266282 20.779801 
L 134.358231 20.895987 
L 137.450179 21.014594 
L 140.542127 21.135622 
L 143.634075 21.25665 
L 146.726023 21.380098 
L 149.817971 21.503547 
L 152.909919 21.631836 
L 156.001867 21.762546 
L 159.093815 21.898097 
L 162.185763 22.036069 
L 165.277711 22.186143 
L 168.369659 22.3459 
L 171.461607 22.52018 
L 174.553555 22.706563 
L 177.645503 22.902628 
L 180.737451 23.113216 
L 183.829399 23.340748 
L 186.921347 23.582804 
L 190.013295 23.839383 
L 193.105244 24.110485 
L 196.197192 24.39611 
L 199.28914 24.710783 
L 202.381088 25.056922 
L 205.473036 25.43937 
L 208.564984 25.862967 
L 211.656932 26.330134 
L 214.74888 26.845713 
L 217.840828 27.414543 
L 220.932776 28.046308 
L 224.024724 28.743428 
L 227.116672 29.508324 
L 230.20862 30.350677 
L 233.300568 31.272909 
L 236.392516 32.284701 
L 239.484464 33.393315 
L 242.576412 34.601172 
L 245.66836 35.913114 
L 248.760308 37.341241 
L 251.852256 38.909761 
L 254.944205 40.6453 
L 258.036153 42.557538 
L 261.128101 44.65374 
L 264.220049 46.924221 
L 267.311997 49.388346 
L 270.403945 52.065481 
L 273.495893 54.989512 
L 276.587841 58.189486 
L 279.679789 61.689609 
L 282.771737 65.511666 
L 285.863685 69.672601 
L 288.955633 74.19904 
L 292.047581 79.066777 
L 295.139529 84.241925 
L 298.231477 89.748689 
L 301.323425 95.640321 
L 304.415373 101.970073 
L 307.507321 108.776676 
L 310.599269 116.057707 
L 313.691218 123.750232 
L 316.783166 131.856672 
L 319.875114 140.410916 
L 322.967062 149.417803 
L 326.05901 158.836184 
L 329.150958 168.569238 
L 332.242906 178.503198 
L 335.334854 188.49283 
L 338.426802 198.368697 
L 341.51875 207.932312 
L 344.610698 216.885946 
L 347.702646 225.156985 
L 350.794594 232.617137 
L 353.886542 239.16716 
L 356.97849 244.751381 
L 360.070438 249.357699 
L 363.162386 253.019999 
L 366.254334 255.8109 
L 369.346282 257.844166 
L 372.438231 259.248088 
L 375.530179 260.165479 
L 378.622127 260.727048 
L 381.714075 261.046561 
L 384.806023 261.216 
" clip-path="url(#p94b5e1d568)" style="fill: none; stroke: #1f77b4; stroke-width: 1.5; stroke-linecap: square"/>
   </g>
   <g id="line2d_20">
    <path d="M 60.151477 19.296 
L 63.243425 19.719597 
L 66.335373 19.77527 
L 69.427321 19.81884 
L 72.519269 19.850307 
L 75.611218 19.874513 
L 78.703166 19.893877 
L 81.795114 19.910821 
L 84.887062 19.925344 
L 87.97901 19.939868 
L 91.070958 19.954391 
L 94.162906 19.968914 
L 97.254854 19.985858 
L 100.346802 20.005223 
L 103.43875 20.027008 
L 106.530698 20.056054 
L 109.622646 20.089942 
L 112.714594 20.133512 
L 115.806542 20.184344 
L 118.89849 20.240017 
L 121.990438 20.302951 
L 125.082386 20.368306 
L 128.174334 20.436082 
L 131.266282 20.503857 
L 134.358231 20.571633 
L 137.450179 20.639408 
L 140.542127 20.707184 
L 143.634075 20.774959 
L 146.726023 20.837894 
L 149.817971 20.900828 
L 152.909919 20.966183 
L 156.001867 21.033959 
L 159.093815 21.106576 
L 162.185763 21.184033 
L 165.277711 21.266332 
L 168.369659 21.358313 
L 171.461607 21.457556 
L 174.553555 21.56164 
L 177.645503 21.670565 
L 180.737451 21.789172 
L 183.829399 21.917462 
L 186.921347 22.060274 
L 190.013295 22.21519 
L 193.105244 22.379788 
L 196.197192 22.558909 
L 199.28914 22.752553 
L 202.381088 22.960721 
L 205.473036 23.188253 
L 208.564984 23.43757 
L 211.656932 23.715934 
L 214.74888 24.025765 
L 217.840828 24.369484 
L 220.932776 24.749512 
L 224.024724 25.163427 
L 227.116672 25.608809 
L 230.20862 26.078397 
L 233.300568 26.57461 
L 236.392516 27.09745 
L 239.484464 27.651758 
L 242.576412 28.249635 
L 245.66836 28.895923 
L 248.760308 29.593043 
L 251.852256 30.340995 
L 254.944205 31.139778 
L 258.036153 31.996655 
L 261.128101 32.921307 
L 264.220049 33.918576 
L 267.311997 34.995723 
L 270.403945 36.172113 
L 273.495893 37.459849 
L 276.587841 38.875874 
L 279.679789 40.439552 
L 282.771737 42.165408 
L 285.863685 44.075227 
L 288.955633 46.200475 
L 292.047581 48.553254 
L 295.139529 51.138408 
L 298.231477 53.989822 
L 301.323425 57.165591 
L 304.415373 60.723808 
L 307.507321 64.710462 
L 310.599269 69.173967 
L 313.691218 74.133685 
L 316.783166 79.684019 
L 319.875114 85.931473 
L 322.967062 92.955925 
L 326.05901 100.791263 
L 329.150958 109.420543 
L 332.242906 118.841345 
L 335.334854 129.060931 
L 338.426802 140.047832 
L 341.51875 151.666499 
L 344.610698 163.69908 
L 347.702646 175.835745 
L 350.794594 187.861065 
L 353.886542 199.663694 
L 356.97849 211.190379 
L 360.070438 221.828721 
L 363.162386 231.266467 
L 366.254334 239.295449 
L 369.346282 245.83579 
L 372.438231 250.916536 
L 375.530179 254.670818 
L 378.622127 257.297121 
L 381.714075 259.032659 
L 384.806023 260.107386 
" clip-path="url(#p94b5e1d568)" style="fill: none; stroke: #ff7f0e; stroke-width: 1.5; stroke-linecap: square"/>
   </g>
   <g id="patch_3">
    <path d="M 43.91875 273.312 
L 43.91875 7.2 
" style="fill: none; stroke: #000000; stroke-width: 0.8; stroke-linejoin: miter; stroke-linecap: square"/>
   </g>
   <g id="patch_4">
    <path d="M 401.03875 273.312 
L 401.03875 7.2 
" style="fill: none; stroke: #000000; stroke-width: 0.8; stroke-linejoin: miter; stroke-linecap: square"/>
   </g>
   <g id="patch_5">
    <path d="M 43.91875 273.312 
L 401.03875 273.312 
" style="fill: none; stroke: #000000; stroke-width: 0.8; stroke-linejoin: miter; stroke-linecap: square"/>
   </g>
   <g id="patch_6">
    <path d="M 43.91875 7.2 
L 401.03875 7.2 
" style="fill: none; stroke: #000000; stroke-width: 0.8; stroke-linejoin: miter; stroke-linecap: square"/>
   </g>
   <g id="legend_1">
    <g id="patch_7">
     <path d="M 352.03875 44.71875 
L 394.03875 44.71875 
Q 396.03875 44.71875 396.03875 42.71875 
L 396.03875 14.2 
Q 396.03875 12.2 394.03875 12.2 
L 352.03875 12.2 
Q 350.03875 12.2 350.03875 14.2 
L 350.03875 42.71875 
Q 350.03875 44.71875 352.03875 44.71875 
z
" style="fill: #ffffff; opacity: 0.8; stroke: #cccccc; stroke-linejoin: miter"/>
    </g>
    <g id="line2d_21">
     <path d="M 354.03875 20.409375 
L 364.03875 20.409375 
L 374.03875 20.409375 
" style="fill: none; stroke: #1f77b4; stroke-width: 1.5; stroke-linecap: square"/>
    </g>
    <g id="text_12">
     <!-- 男 -->
     <g transform="translate(382.03875 23.909375) scale(0.1 -0.1)">
      <defs>
       <path id="HiraginoSans-W4-7537" d="M 5114 1402 
C 5043 736 4986 410 4909 256 
C 4851 134 4762 102 4454 102 
C 4154 102 3872 128 3450 192 
C 3526 -6 3558 -134 3584 -314 
C 3994 -352 4173 -358 4410 -358 
C 4966 -358 5171 -294 5312 -83 
C 5440 115 5536 608 5632 1530 
C 5651 1741 5651 1741 5664 1850 
C 5414 1830 5242 1824 5005 1824 
L 3290 1824 
C 3309 1914 3322 1952 3334 2029 
C 3373 2202 3379 2227 3405 2323 
L 2861 2342 
C 2861 2317 2861 2298 2861 2285 
C 2861 2163 2835 2010 2790 1824 
L 1286 1824 
C 986 1824 755 1837 570 1862 
L 570 1363 
C 781 1389 973 1402 1286 1402 
L 2643 1402 
C 2490 1062 2298 832 1990 614 
C 1555 307 1114 134 307 -32 
C 467 -218 531 -320 602 -486 
C 1434 -269 1920 -45 2362 314 
C 2726 608 2963 941 3142 1402 
L 5114 1402 
z
M 5440 4467 
C 5440 4762 5446 4928 5466 5101 
C 5280 5075 5114 5069 4845 5069 
L 1574 5069 
C 1312 5069 1139 5075 954 5101 
C 973 4928 986 4762 986 4467 
L 986 3053 
C 986 2778 973 2624 954 2445 
C 1133 2464 1357 2477 1594 2477 
L 4864 2477 
C 5088 2477 5286 2464 5466 2451 
C 5446 2650 5440 2778 5440 3053 
L 5440 4467 
z
M 2944 4659 
L 2944 3962 
L 1453 3962 
L 1453 4659 
L 2944 4659 
z
M 3405 3962 
L 3405 4659 
L 4973 4659 
L 4973 3962 
L 3405 3962 
z
M 2944 3565 
L 2944 2880 
L 1453 2880 
L 1453 3565 
L 2944 3565 
z
M 3405 2880 
L 3405 3565 
L 4973 3565 
L 4973 2880 
L 3405 2880 
z
" transform="scale(0.015625)"/>
      </defs>
      <use xlink:href="#HiraginoSans-W4-7537"/>
     </g>
    </g>
    <g id="line2d_22">
     <path d="M 354.03875 35.16875 
L 364.03875 35.16875 
L 374.03875 35.16875 
" style="fill: none; stroke: #ff7f0e; stroke-width: 1.5; stroke-linecap: square"/>
    </g>
    <g id="text_13">
     <!-- 女 -->
     <g transform="translate(382.03875 38.66875) scale(0.1 -0.1)">
      <defs>
       <path id="HiraginoSans-W4-5973" d="M 5862 -19 
C 5171 454 4589 806 3878 1171 
C 4160 1504 4371 1830 4544 2214 
C 4710 2573 4787 2829 4928 3424 
L 5402 3424 
C 5677 3424 5888 3411 6080 3386 
L 6080 3942 
C 5875 3910 5670 3898 5389 3898 
L 2790 3898 
C 2848 4038 2944 4282 2989 4429 
C 3187 5005 3187 5005 3277 5216 
L 2688 5318 
C 2630 4960 2490 4512 2246 3898 
L 1043 3898 
C 774 3898 538 3910 352 3942 
L 352 3386 
C 538 3411 755 3424 1043 3424 
L 2035 3424 
C 1722 2746 1318 2118 864 1581 
C 1088 1491 1216 1427 1357 1338 
C 1478 1498 1504 1536 1606 1677 
C 2342 1395 2534 1312 3072 1050 
C 2400 506 1651 230 352 58 
C 493 -134 525 -192 621 -429 
C 1670 -211 1869 -154 2355 64 
C 2810 269 3168 499 3526 819 
C 4250 429 4870 26 5498 -467 
L 5862 -19 
z
M 4397 3424 
C 4288 2931 4211 2682 4058 2355 
C 3891 1997 3686 1683 3437 1402 
C 2912 1658 2547 1811 1869 2074 
C 2138 2502 2355 2906 2592 3424 
L 4397 3424 
z
" transform="scale(0.015625)"/>
      </defs>
      <use xlink:href="#HiraginoSans-W4-5973"/>
     </g>
    </g>
   </g>
  </g>
 </g>
 <defs>
  <clipPath id="p94b5e1d568">
   <rect x="43.91875" y="7.2" width="357.12" height="266.112"/>
  </clipPath>
 </defs>
</svg>
