<?xml version="1.0" encoding="utf-8" standalone="no"?>
<!DOCTYPE svg PUBLIC "-//W3C//DTD SVG 1.1//EN"
  "http://www.w3.org/Graphics/SVG/1.1/DTD/svg11.dtd">
<svg xmlns:xlink="http://www.w3.org/1999/xlink" width="396.898438pt" height="377.55875pt" viewBox="0 0 396.898438 377.55875" xmlns="http://www.w3.org/2000/svg" version="1.1">
 <metadata>
  <rdf:RDF xmlns:dc="http://purl.org/dc/elements/1.1/" xmlns:cc="http://creativecommons.org/ns#" xmlns:rdf="http://www.w3.org/1999/02/22-rdf-syntax-ns#">
   <cc:Work>
    <dc:type rdf:resource="http://purl.org/dc/dcmitype/StillImage"/>
    <dc:date>2025-01-21T15:31:06.223908</dc:date>
    <dc:format>image/svg+xml</dc:format>
    <dc:creator>
     <cc:Agent>
      <dc:title>Matplotlib v3.10.0, https://matplotlib.org/</dc:title>
     </cc:Agent>
    </dc:creator>
   </cc:Work>
  </rdf:RDF>
 </metadata>
 <defs>
  <style type="text/css">*{stroke-linejoin: round; stroke-linecap: butt}</style>
 </defs>
 <g id="figure_1">
  <g id="patch_1">
   <path d="M 0 377.55875 
L 396.898438 377.55875 
L 396.898438 0 
L 0 0 
z
" style="fill: #ffffff"/>
  </g>
  <g id="axes_1">
   <g id="patch_2">
    <path d="M 54.898438 339.84 
L 389.698438 339.84 
L 389.698438 7.2 
L 54.898438 7.2 
z
" style="fill: #ffffff"/>
   </g>
   <g id="PathCollection_1">
    <defs>
     <path id="m409effbab1" d="M 0 3 
C 0.795609 3 1.55874 2.683901 2.12132 2.12132 
C 2.683901 1.55874 3 0.795609 3 0 
C 3 -0.795609 2.683901 -1.55874 2.12132 -2.12132 
C 1.55874 -2.683901 0.795609 -3 0 -3 
C -0.795609 -3 -1.55874 -2.683901 -2.12132 -2.12132 
C -2.683901 -1.55874 -3 -0.795609 -3 0 
C -3 0.795609 -2.683901 1.55874 -2.12132 2.12132 
C -1.55874 2.683901 -0.795609 3 0 3 
z
" style="stroke: #1f77b4"/>
    </defs>
    <g clip-path="url(#p5c1cbe610d)">
     <use xlink:href="#m409effbab1" x="107.386816" y="202.411382" style="fill: #1f77b4; stroke: #1f77b4"/>
     <use xlink:href="#m409effbab1" x="71.548433" y="307.244218" style="fill: #1f77b4; stroke: #1f77b4"/>
     <use xlink:href="#m409effbab1" x="71.23146" y="303.062587" style="fill: #1f77b4; stroke: #1f77b4"/>
     <use xlink:href="#m409effbab1" x="72.969811" y="288.786974" style="fill: #1f77b4; stroke: #1f77b4"/>
     <use xlink:href="#m409effbab1" x="70.824482" y="312.814382" style="fill: #1f77b4; stroke: #1f77b4"/>
     <use xlink:href="#m409effbab1" x="71.242765" y="307.377274" style="fill: #1f77b4; stroke: #1f77b4"/>
     <use xlink:href="#m409effbab1" x="71.784097" y="286.895117" style="fill: #1f77b4; stroke: #1f77b4"/>
     <use xlink:href="#m409effbab1" x="72.52544" y="302.172754" style="fill: #1f77b4; stroke: #1f77b4"/>
     <use xlink:href="#m409effbab1" x="72.958506" y="284.738443" style="fill: #1f77b4; stroke: #1f77b4"/>
     <use xlink:href="#m409effbab1" x="72.145855" y="294.255576" style="fill: #1f77b4; stroke: #1f77b4"/>
     <use xlink:href="#m409effbab1" x="72.599357" y="304.925155" style="fill: #1f77b4; stroke: #1f77b4"/>
     <use xlink:href="#m409effbab1" x="107.146369" y="229.90235" style="fill: #1f77b4; stroke: #1f77b4"/>
     <use xlink:href="#m409effbab1" x="364.722792" y="98.950838" style="fill: #1f77b4; stroke: #1f77b4"/>
     <use xlink:href="#m409effbab1" x="92.252552" y="231.487056" style="fill: #1f77b4; stroke: #1f77b4"/>
     <use xlink:href="#m409effbab1" x="73.918991" y="288.824515" style="fill: #1f77b4; stroke: #1f77b4"/>
     <use xlink:href="#m409effbab1" x="71.928018" y="311.648544" style="fill: #1f77b4; stroke: #1f77b4"/>
     <use xlink:href="#m409effbab1" x="73.908555" y="296.79444" style="fill: #1f77b4; stroke: #1f77b4"/>
     <use xlink:href="#m409effbab1" x="70.658387" y="313.062091" style="fill: #1f77b4; stroke: #1f77b4"/>
     <use xlink:href="#m409effbab1" x="77.386562" y="295.776346" style="fill: #1f77b4; stroke: #1f77b4"/>
     <use xlink:href="#m409effbab1" x="77.9392" y="264.273264" style="fill: #1f77b4; stroke: #1f77b4"/>
     <use xlink:href="#m409effbab1" x="75.401242" y="301.529678" style="fill: #1f77b4; stroke: #1f77b4"/>
     <use xlink:href="#m409effbab1" x="77.550049" y="246.369715" style="fill: #1f77b4; stroke: #1f77b4"/>
     <use xlink:href="#m409effbab1" x="85.007393" y="257.893574" style="fill: #1f77b4; stroke: #1f77b4"/>
     <use xlink:href="#m409effbab1" x="72.23586" y="295.208438" style="fill: #1f77b4; stroke: #1f77b4"/>
     <use xlink:href="#m409effbab1" x="71.901929" y="309.536194" style="fill: #1f77b4; stroke: #1f77b4"/>
     <use xlink:href="#m409effbab1" x="131.568072" y="239.628485" style="fill: #1f77b4; stroke: #1f77b4"/>
     <use xlink:href="#m409effbab1" x="162.716212" y="202.063104" style="fill: #1f77b4; stroke: #1f77b4"/>
     <use xlink:href="#m409effbab1" x="75.579947" y="270.685138" style="fill: #1f77b4; stroke: #1f77b4"/>
     <use xlink:href="#m409effbab1" x="71.493213" y="315.907805" style="fill: #1f77b4; stroke: #1f77b4"/>
     <use xlink:href="#m409effbab1" x="73.325482" y="307.63669" style="fill: #1f77b4; stroke: #1f77b4"/>
     <use xlink:href="#m409effbab1" x="70.655343" y="316.643846" style="fill: #1f77b4; stroke: #1f77b4"/>
     <use xlink:href="#m409effbab1" x="70.591427" y="312.35711" style="fill: #1f77b4; stroke: #1f77b4"/>
     <use xlink:href="#m409effbab1" x="72.687622" y="305.206517" style="fill: #1f77b4; stroke: #1f77b4"/>
     <use xlink:href="#m409effbab1" x="76.314333" y="288.48492" style="fill: #1f77b4; stroke: #1f77b4"/>
     <use xlink:href="#m409effbab1" x="72.229773" y="307.977278" style="fill: #1f77b4; stroke: #1f77b4"/>
     <use xlink:href="#m409effbab1" x="70.905356" y="316.839931" style="fill: #1f77b4; stroke: #1f77b4"/>
     <use xlink:href="#m409effbab1" x="71.591913" y="310.868093" style="fill: #1f77b4; stroke: #1f77b4"/>
     <use xlink:href="#m409effbab1" x="71.569738" y="308.626661" style="fill: #1f77b4; stroke: #1f77b4"/>
     <use xlink:href="#m409effbab1" x="70.546642" y="313.685856" style="fill: #1f77b4; stroke: #1f77b4"/>
     <use xlink:href="#m409effbab1" x="96.484076" y="266.887512" style="fill: #1f77b4; stroke: #1f77b4"/>
     <use xlink:href="#m409effbab1" x="71.007535" y="316.191283" style="fill: #1f77b4; stroke: #1f77b4"/>
     <use xlink:href="#m409effbab1" x="74.261617" y="297.739267" style="fill: #1f77b4; stroke: #1f77b4"/>
     <use xlink:href="#m409effbab1" x="74.471628" y="297.933062" style="fill: #1f77b4; stroke: #1f77b4"/>
     <use xlink:href="#m409effbab1" x="77.49222" y="298.229414" style="fill: #1f77b4; stroke: #1f77b4"/>
     <use xlink:href="#m409effbab1" x="71.135368" y="310.569192" style="fill: #1f77b4; stroke: #1f77b4"/>
     <use xlink:href="#m409effbab1" x="71.771923" y="298.577995" style="fill: #1f77b4; stroke: #1f77b4"/>
     <use xlink:href="#m409effbab1" x="95.461414" y="248.471827" style="fill: #1f77b4; stroke: #1f77b4"/>
    </g>
   </g>
   <g id="matplotlib.axis_1">
    <g id="xtick_1">
     <g id="line2d_1">
      <defs>
       <path id="mbeec675694" d="M 0 0 
L 0 3.5 
" style="stroke: #000000; stroke-width: 0.8"/>
      </defs>
      <g>
       <use xlink:href="#mbeec675694" x="70.116619" y="339.84" style="stroke: #000000; stroke-width: 0.8"/>
      </g>
     </g>
     <g id="text_1">
      <!-- 0 -->
      <g transform="translate(66.751776 354.549375) scale(0.1 -0.1)">
       <defs>
        <path id="HiraginoSans-W4-30" d="M 2144 -90 
C 2758 -90 3232 141 3565 602 
C 3846 998 4019 1696 4019 2464 
C 4019 3002 3936 3501 3770 3949 
C 3693 4160 3558 4371 3379 4550 
C 3078 4858 2650 5024 2157 5024 
C 1498 5024 986 4742 666 4205 
C 435 3834 288 3142 288 2458 
C 288 1939 371 1434 538 986 
C 614 768 749 563 928 384 
C 1242 70 1651 -90 2144 -90 
z
M 2144 4499 
C 2592 4499 2918 4307 3123 3923 
C 3283 3629 3398 3014 3398 2470 
C 3398 2022 3341 1619 3213 1235 
C 3155 1043 3046 870 2912 730 
C 2726 538 2458 435 2150 435 
C 1734 435 1414 614 1197 973 
C 1024 1261 902 1875 902 2451 
C 902 2906 966 3328 1088 3699 
C 1139 3866 1235 4026 1370 4173 
C 1568 4397 1818 4499 2144 4499 
z
" transform="scale(0.015625)"/>
       </defs>
       <use xlink:href="#HiraginoSans-W4-30"/>
      </g>
     </g>
    </g>
    <g id="xtick_2">
     <g id="line2d_2">
      <g>
       <use xlink:href="#mbeec675694" x="113.597139" y="339.84" style="stroke: #000000; stroke-width: 0.8"/>
      </g>
     </g>
     <g id="text_2">
      <!-- 100 -->
      <g transform="translate(103.502608 354.549375) scale(0.1 -0.1)">
       <defs>
        <path id="HiraginoSans-W4-31" d="M 1018 4371 
C 1222 4397 1389 4410 1606 4410 
L 1939 4410 
L 1939 755 
C 1939 454 1926 237 1888 0 
L 2598 0 
C 2560 250 2547 448 2547 755 
L 2547 3904 
C 2547 4256 2566 4582 2605 4966 
C 2387 4941 2278 4934 2035 4934 
L 1581 4934 
C 1325 4934 1197 4941 1018 4966 
L 1018 4371 
z
" transform="scale(0.015625)"/>
       </defs>
       <use xlink:href="#HiraginoSans-W4-31"/>
       <use xlink:href="#HiraginoSans-W4-30" transform="translate(67.299988 0)"/>
       <use xlink:href="#HiraginoSans-W4-30" transform="translate(134.599976 0)"/>
      </g>
     </g>
    </g>
    <g id="xtick_3">
     <g id="line2d_3">
      <g>
       <use xlink:href="#mbeec675694" x="157.077658" y="339.84" style="stroke: #000000; stroke-width: 0.8"/>
      </g>
     </g>
     <g id="text_3">
      <!-- 200 -->
      <g transform="translate(146.983127 354.549375) scale(0.1 -0.1)">
       <defs>
        <path id="HiraginoSans-W4-32" d="M 3078 0 
C 3424 0 3642 -6 3917 -32 
L 3917 589 
C 3693 557 3430 544 3091 544 
L 1114 544 
C 1280 1114 1606 1478 2451 2042 
C 3181 2528 3341 2656 3546 2912 
C 3738 3142 3846 3443 3846 3744 
C 3846 4525 3200 5030 2202 5030 
C 1613 5030 1158 4858 858 4518 
C 640 4269 531 4026 442 3565 
L 1088 3469 
C 1139 3782 1190 3936 1306 4102 
C 1491 4371 1792 4506 2208 4506 
C 2816 4506 3206 4211 3206 3744 
C 3206 3360 2995 3085 2387 2675 
C 1754 2246 1600 2138 1389 1952 
C 979 1594 710 1229 544 806 
C 448 563 429 461 365 -26 
C 576 -6 678 0 1107 0 
L 3078 0 
z
" transform="scale(0.015625)"/>
       </defs>
       <use xlink:href="#HiraginoSans-W4-32"/>
       <use xlink:href="#HiraginoSans-W4-30" transform="translate(67.299988 0)"/>
       <use xlink:href="#HiraginoSans-W4-30" transform="translate(134.599976 0)"/>
      </g>
     </g>
    </g>
    <g id="xtick_4">
     <g id="line2d_4">
      <g>
       <use xlink:href="#mbeec675694" x="200.558178" y="339.84" style="stroke: #000000; stroke-width: 0.8"/>
      </g>
     </g>
     <g id="text_4">
      <!-- 300 -->
      <g transform="translate(190.463647 354.549375) scale(0.1 -0.1)">
       <defs>
        <path id="HiraginoSans-W4-33" d="M 282 1101 
C 397 768 474 621 621 448 
C 934 90 1434 -96 2112 -96 
C 2720 -96 3213 70 3533 384 
C 3770 614 3904 954 3904 1306 
C 3904 1677 3802 1958 3597 2182 
C 3379 2419 3130 2528 2688 2586 
C 2995 2650 3130 2701 3290 2816 
C 3578 3021 3738 3366 3738 3757 
C 3738 4538 3117 5043 2157 5043 
C 1594 5043 1146 4883 845 4576 
C 666 4390 582 4237 467 3891 
L 1107 3757 
C 1171 3981 1216 4083 1306 4192 
C 1478 4416 1741 4525 2125 4525 
C 2746 4525 3110 4224 3110 3725 
C 3110 3482 3021 3264 2867 3110 
C 2669 2918 2374 2829 1965 2829 
C 1779 2829 1613 2842 1459 2861 
L 1459 2272 
C 1651 2298 1811 2310 2003 2310 
C 2829 2310 3264 1990 3264 1376 
C 3264 794 2816 429 2106 429 
C 1779 429 1510 506 1293 666 
C 1107 800 1024 928 928 1248 
L 282 1101 
z
" transform="scale(0.015625)"/>
       </defs>
       <use xlink:href="#HiraginoSans-W4-33"/>
       <use xlink:href="#HiraginoSans-W4-30" transform="translate(67.299988 0)"/>
       <use xlink:href="#HiraginoSans-W4-30" transform="translate(134.599976 0)"/>
      </g>
     </g>
    </g>
    <g id="xtick_5">
     <g id="line2d_5">
      <g>
       <use xlink:href="#mbeec675694" x="244.038697" y="339.84" style="stroke: #000000; stroke-width: 0.8"/>
      </g>
     </g>
     <g id="text_5">
      <!-- 400 -->
      <g transform="translate(233.93401 354.549375) scale(0.1 -0.1)">
       <defs>
        <path id="HiraginoSans-W4-34" d="M 179 1210 
C 403 1229 589 1235 954 1235 
L 2688 1235 
L 2688 710 
C 2688 410 2675 218 2630 0 
L 3309 0 
C 3270 230 3258 390 3258 704 
L 3258 1235 
L 3494 1235 
C 3763 1235 3910 1222 4154 1190 
L 4154 1798 
C 3917 1766 3750 1754 3494 1754 
L 3258 1754 
L 3258 3853 
C 3258 4358 3264 4544 3296 4934 
L 2701 4934 
C 2560 4704 2445 4550 2214 4269 
L 621 2298 
C 467 2099 326 1939 179 1773 
L 179 1210 
z
M 2688 1747 
L 858 1747 
L 2259 3514 
C 2464 3763 2592 3936 2720 4128 
C 2694 3814 2688 3622 2688 3283 
L 2688 1747 
z
" transform="scale(0.015625)"/>
       </defs>
       <use xlink:href="#HiraginoSans-W4-34"/>
       <use xlink:href="#HiraginoSans-W4-30" transform="translate(67.499985 0)"/>
       <use xlink:href="#HiraginoSans-W4-30" transform="translate(134.799973 0)"/>
      </g>
     </g>
    </g>
    <g id="xtick_6">
     <g id="line2d_6">
      <g>
       <use xlink:href="#mbeec675694" x="287.519217" y="339.84" style="stroke: #000000; stroke-width: 0.8"/>
      </g>
     </g>
     <g id="text_6">
      <!-- 500 -->
      <g transform="translate(277.424685 354.549375) scale(0.1 -0.1)">
       <defs>
        <path id="HiraginoSans-W4-35" d="M 1331 4416 
L 2835 4416 
C 3155 4416 3366 4403 3622 4365 
L 3622 4986 
C 3360 4947 3206 4934 2829 4934 
L 1446 4934 
C 1082 4934 954 4941 762 4966 
C 774 4768 774 4762 774 4742 
C 774 4563 774 4518 749 4307 
L 608 2822 
C 589 2566 570 2445 518 2157 
L 1088 2106 
C 1146 2240 1178 2291 1261 2374 
C 1485 2605 1811 2739 2131 2739 
C 2842 2739 3264 2317 3264 1613 
C 3264 902 2803 435 2106 435 
C 1747 435 1440 563 1235 794 
C 1146 902 1101 986 1037 1171 
L 410 1005 
C 557 685 646 544 813 378 
C 1133 64 1562 -96 2099 -96 
C 3194 -96 3885 576 3885 1638 
C 3885 2605 3245 3238 2272 3238 
C 1830 3238 1472 3098 1158 2803 
C 1197 2982 1197 2982 1203 3091 
L 1331 4416 
z
" transform="scale(0.015625)"/>
       </defs>
       <use xlink:href="#HiraginoSans-W4-35"/>
       <use xlink:href="#HiraginoSans-W4-30" transform="translate(67.299988 0)"/>
       <use xlink:href="#HiraginoSans-W4-30" transform="translate(134.599976 0)"/>
      </g>
     </g>
    </g>
    <g id="xtick_7">
     <g id="line2d_7">
      <g>
       <use xlink:href="#mbeec675694" x="330.999736" y="339.84" style="stroke: #000000; stroke-width: 0.8"/>
      </g>
     </g>
     <g id="text_7">
      <!-- 600 -->
      <g transform="translate(320.905205 354.549375) scale(0.1 -0.1)">
       <defs>
        <path id="HiraginoSans-W4-36" d="M 3846 3994 
C 3706 4301 3616 4442 3462 4602 
C 3187 4877 2784 5024 2304 5024 
C 1683 5024 1222 4794 864 4307 
C 557 3891 371 3162 371 2355 
C 371 1446 614 704 1043 320 
C 1331 58 1773 -90 2253 -90 
C 3277 -90 3968 589 3968 1587 
C 3968 2586 3334 3213 2323 3213 
C 1894 3213 1568 3104 1274 2854 
C 1133 2739 1062 2656 941 2458 
C 979 3085 1043 3392 1210 3763 
C 1434 4262 1798 4518 2285 4518 
C 2765 4518 3040 4314 3238 3821 
L 3846 3994 
z
M 2266 2714 
C 2950 2714 3366 2285 3366 1574 
C 3366 1325 3309 1088 3206 922 
C 3008 614 2643 422 2234 422 
C 1568 422 1069 915 1069 1574 
C 1069 2234 1574 2714 2266 2714 
z
" transform="scale(0.015625)"/>
       </defs>
       <use xlink:href="#HiraginoSans-W4-36"/>
       <use xlink:href="#HiraginoSans-W4-30" transform="translate(67.299988 0)"/>
       <use xlink:href="#HiraginoSans-W4-30" transform="translate(134.599976 0)"/>
      </g>
     </g>
    </g>
    <g id="xtick_8">
     <g id="line2d_8">
      <g>
       <use xlink:href="#mbeec675694" x="374.480256" y="339.84" style="stroke: #000000; stroke-width: 0.8"/>
      </g>
     </g>
     <g id="text_8">
      <!-- 700 -->
      <g transform="translate(364.385724 354.549375) scale(0.1 -0.1)">
       <defs>
        <path id="HiraginoSans-W4-37" d="M 3898 4966 
C 3661 4941 3526 4934 3117 4934 
L 1165 4934 
C 838 4934 646 4947 390 4979 
L 390 4346 
C 634 4378 819 4390 1146 4390 
L 3200 4390 
C 2643 3635 2368 3187 2054 2541 
C 1664 1741 1491 1171 1280 0 
L 2003 0 
C 2099 685 2163 992 2317 1491 
C 2554 2291 2829 2861 3373 3718 
C 3642 4141 3763 4301 3898 4422 
L 3898 4966 
z
" transform="scale(0.015625)"/>
       </defs>
       <use xlink:href="#HiraginoSans-W4-37"/>
       <use xlink:href="#HiraginoSans-W4-30" transform="translate(67.299988 0)"/>
       <use xlink:href="#HiraginoSans-W4-30" transform="translate(134.599976 0)"/>
      </g>
     </g>
    </g>
    <g id="text_9">
     <!-- 外国人宿泊者数 -->
     <g transform="translate(187.298438 368.30875) scale(0.1 -0.1)">
      <defs>
       <path id="HiraginoSans-W4-5916" d="M 1440 2675 
C 1818 2400 2042 2195 2323 1856 
C 1907 1101 1331 493 512 -38 
C 672 -160 781 -282 883 -454 
C 2317 589 3091 1811 3411 3533 
C 3648 3066 3910 2688 4262 2323 
L 4262 326 
C 4262 -19 4250 -218 4218 -474 
L 4794 -474 
C 4762 -230 4749 -32 4749 326 
L 4749 1869 
C 5158 1530 5510 1299 6003 1037 
C 6099 1235 6195 1395 6304 1523 
C 5741 1760 5235 2067 4749 2470 
L 4749 4627 
C 4749 4909 4762 5082 4794 5312 
L 4218 5312 
C 4250 5082 4262 4909 4262 4627 
L 4262 2963 
C 3949 3341 3718 3731 3520 4211 
C 3539 4307 3539 4333 3565 4454 
C 3430 4442 3290 4435 3053 4435 
L 2080 4435 
C 2150 4646 2176 4736 2227 4896 
C 2278 5069 2298 5126 2355 5261 
L 1818 5363 
C 1786 5139 1709 4813 1619 4557 
C 1318 3699 902 2995 346 2438 
C 518 2278 563 2221 666 2022 
C 1216 2624 1619 3264 1914 4000 
L 3040 4000 
C 2886 3219 2784 2848 2547 2304 
C 2285 2592 2093 2765 1728 3046 
L 1440 2675 
z
" transform="scale(0.015625)"/>
       <path id="HiraginoSans-W4-56fd" d="M 2912 3674 
L 2912 2771 
L 2266 2771 
C 1978 2771 1850 2778 1696 2803 
L 1696 2336 
C 1862 2362 1997 2368 2266 2368 
L 2912 2368 
L 2912 1299 
L 2003 1299 
C 1728 1299 1562 1312 1382 1338 
L 1382 845 
C 1574 870 1734 877 2003 877 
L 4403 877 
C 4653 877 4851 864 5030 845 
L 5030 1338 
C 4851 1312 4678 1299 4403 1299 
L 3386 1299 
L 3386 2368 
L 4134 2368 
C 4403 2368 4538 2362 4704 2336 
L 4704 2803 
C 4550 2778 4422 2771 4134 2771 
L 3386 2771 
L 3386 3674 
L 4320 3674 
C 4608 3674 4762 3667 4934 3642 
L 4934 4122 
C 4774 4090 4608 4083 4320 4083 
L 2086 4083 
C 1792 4083 1677 4090 1491 4122 
L 1491 3642 
C 1658 3667 1811 3674 2086 3674 
L 2912 3674 
z
M 3834 2118 
C 4045 1882 4147 1741 4365 1357 
L 4710 1568 
C 4506 1901 4390 2054 4154 2304 
L 3834 2118 
z
M 538 358 
C 538 -96 525 -314 499 -493 
L 1030 -493 
L 1030 -115 
L 5370 -115 
L 5370 -493 
L 5894 -493 
C 5869 -314 5856 -83 5856 358 
L 5856 4326 
C 5856 4653 5869 4877 5894 5107 
C 5651 5082 5472 5075 5133 5075 
L 1254 5075 
C 902 5075 710 5082 499 5107 
C 525 4845 538 4621 538 4326 
L 538 358 
z
M 1030 4640 
L 5363 4640 
L 5363 320 
L 1030 320 
L 1030 4640 
z
" transform="scale(0.015625)"/>
       <path id="HiraginoSans-W4-4eba" d="M 2893 5254 
C 2912 5088 2918 4973 2918 4717 
C 2918 3277 2586 2195 1856 1267 
C 1434 723 1056 422 307 13 
C 486 -134 576 -243 691 -448 
C 1222 -115 1466 77 1824 429 
C 2240 845 2528 1235 2758 1722 
C 2989 2195 3098 2528 3213 3110 
C 3411 2285 3661 1709 4051 1152 
C 4506 512 4954 83 5728 -448 
C 5856 -224 5926 -128 6112 38 
C 5760 243 5606 346 5414 499 
C 5082 768 4736 1120 4499 1434 
C 4109 1946 3750 2682 3616 3226 
C 3533 3565 3456 4262 3456 4672 
C 3456 4858 3475 5152 3494 5254 
L 2893 5254 
z
" transform="scale(0.015625)"/>
       <path id="HiraginoSans-W4-5bbf" d="M 3744 3354 
C 3686 3149 3590 2886 3482 2682 
L 3046 2682 
C 2765 2682 2605 2688 2426 2707 
C 2445 2541 2458 2355 2458 2131 
L 2458 173 
C 2458 -83 2445 -320 2426 -467 
L 2925 -467 
L 2925 -173 
L 5101 -173 
L 5101 -480 
L 5613 -480 
C 5587 -262 5574 -45 5574 224 
L 5574 2112 
C 5574 2387 5581 2554 5600 2707 
C 5427 2688 5261 2682 4960 2682 
L 3981 2682 
C 4083 2893 4115 2976 4250 3354 
L 4998 3354 
C 5222 3354 5414 3347 5600 3322 
L 5600 3469 
L 6010 3469 
C 5990 3610 5984 3731 5984 3923 
L 5984 4275 
C 5984 4486 5990 4621 6010 4787 
C 5811 4762 5651 4755 5350 4755 
L 3494 4755 
L 3494 4890 
C 3494 5062 3507 5190 3533 5338 
L 2957 5338 
C 2982 5197 2995 5062 2995 4890 
L 2995 4755 
L 1210 4755 
C 954 4755 794 4762 550 4787 
C 570 4640 576 4518 576 4339 
L 576 3814 
C 576 3629 570 3501 544 3360 
L 1043 3360 
L 1043 4320 
L 5517 4320 
L 5517 3789 
C 5376 3770 5158 3763 4966 3763 
L 2963 3763 
C 2726 3763 2541 3776 2349 3795 
L 2349 3322 
C 2541 3341 2733 3354 2950 3354 
L 3744 3354 
z
M 2925 2272 
L 5101 2272 
L 5101 1504 
L 2925 1504 
L 2925 2272 
z
M 2925 1094 
L 5101 1094 
L 5101 250 
L 2925 250 
L 2925 1094 
z
M 1171 1293 
L 1165 301 
C 1165 -70 1158 -243 1126 -486 
L 1683 -486 
C 1658 -256 1651 -45 1651 307 
L 1651 2784 
C 1837 3091 1984 3379 2112 3674 
C 2195 3866 2214 3917 2266 3994 
L 1773 4160 
C 1715 3962 1677 3846 1574 3635 
C 1248 2925 864 2419 243 1875 
C 384 1722 448 1632 531 1459 
C 794 1702 941 1869 1190 2208 
C 1178 1990 1171 1658 1171 1574 
L 1171 1293 
z
" transform="scale(0.015625)"/>
       <path id="HiraginoSans-W4-6cca" d="M 2944 4358 
C 2605 4358 2432 4365 2272 4384 
C 2291 4192 2298 4006 2298 3718 
L 2298 320 
C 2298 70 2285 -237 2259 -403 
L 2784 -403 
L 2784 -38 
L 5306 -38 
L 5306 -403 
L 5837 -403 
C 5805 -96 5792 90 5792 339 
L 5792 3706 
C 5792 3981 5798 4186 5824 4397 
C 5645 4371 5459 4358 5133 4358 
L 3962 4358 
C 4090 4608 4134 4710 4339 5235 
L 3802 5370 
C 3738 5050 3635 4755 3450 4358 
L 2944 4358 
z
M 2784 3904 
L 5306 3904 
L 5306 2451 
L 2784 2451 
L 2784 3904 
z
M 2784 1997 
L 5306 1997 
L 5306 416 
L 2784 416 
L 2784 1997 
z
M 634 4909 
C 1088 4634 1363 4422 1741 4058 
L 2035 4461 
C 1670 4781 1363 5005 941 5261 
L 634 4909 
z
M 326 3328 
C 787 3085 1094 2861 1491 2502 
L 1773 2931 
C 1325 3283 1043 3469 602 3699 
L 326 3328 
z
M 1350 1875 
C 1133 1274 960 890 736 506 
C 582 243 461 77 358 -19 
L 800 -416 
C 864 -294 890 -250 928 -179 
C 1299 461 1466 813 1747 1581 
L 1350 1875 
z
" transform="scale(0.015625)"/>
       <path id="HiraginoSans-W4-8005" d="M 3104 2970 
C 2163 2362 1338 1978 237 1613 
C 371 1459 442 1344 525 1165 
C 1037 1376 1318 1504 1709 1702 
C 1702 1594 1702 1395 1702 1267 
L 1702 211 
C 1702 -77 1690 -269 1664 -467 
L 2189 -467 
L 2189 -166 
L 4755 -166 
L 4755 -467 
L 5280 -467 
C 5248 -301 5242 -115 5242 211 
L 5242 1690 
C 5242 2054 5248 2208 5267 2394 
C 5056 2374 4890 2368 4576 2368 
L 3526 2368 
C 3341 2368 3174 2368 2906 2362 
C 3302 2598 3482 2714 3840 2970 
L 5306 2970 
C 5600 2970 5843 2957 6042 2931 
L 6042 3450 
C 5856 3424 5670 3411 5338 3411 
L 4403 3411 
C 4858 3795 5222 4154 5491 4480 
C 5670 4691 5670 4691 5766 4794 
L 5312 5088 
C 5062 4614 4403 3910 3738 3411 
L 3200 3411 
L 3200 4141 
L 3789 4141 
C 4128 4141 4288 4134 4461 4109 
L 4461 4608 
C 4294 4582 4090 4570 3757 4570 
L 3200 4570 
L 3200 4762 
C 3200 5043 3206 5197 3238 5357 
L 2675 5357 
C 2701 5178 2714 5030 2714 4762 
L 2714 4570 
L 1709 4570 
C 1370 4570 1152 4582 992 4608 
L 992 4109 
C 1178 4134 1363 4141 1696 4141 
L 2714 4141 
L 2714 3411 
L 1133 3411 
C 774 3411 576 3424 410 3450 
L 410 2931 
C 621 2957 832 2970 1133 2970 
L 3104 2970 
z
M 2189 1958 
L 4755 1958 
L 4755 1338 
L 2189 1338 
L 2189 1958 
z
M 2189 922 
L 4755 922 
L 4755 250 
L 2189 250 
L 2189 922 
z
" transform="scale(0.015625)"/>
       <path id="HiraginoSans-W4-6570" d="M 6170 4173 
C 6003 4141 5862 4134 5568 4134 
L 4288 4134 
C 4365 4384 4435 4627 4512 4947 
C 4557 5126 4563 5152 4595 5235 
L 4077 5344 
C 4070 5158 4032 4934 3974 4672 
C 3782 3853 3437 3130 2995 2598 
C 3142 2509 3226 2438 3354 2291 
C 3526 2515 3610 2643 3770 2931 
C 3904 2176 4070 1702 4397 1158 
C 4013 653 3526 275 2803 -77 
C 2944 -218 3021 -326 3110 -506 
C 3776 -141 4256 250 4666 755 
C 5069 230 5485 -141 6035 -467 
C 6138 -237 6202 -128 6317 13 
C 5747 314 5338 653 4954 1158 
C 5171 1523 5325 1875 5440 2304 
C 5562 2739 5613 3078 5651 3699 
C 5920 3699 6035 3693 6170 3667 
L 6170 4173 
z
M 5184 3699 
C 5133 2797 4992 2214 4672 1600 
C 4358 2170 4192 2707 4064 3539 
C 4096 3610 4102 3629 4128 3699 
L 5184 3699 
z
M 3046 339 
C 2752 512 2656 570 2419 685 
C 2643 992 2746 1190 2880 1626 
L 2963 1626 
C 3187 1626 3309 1619 3443 1594 
L 3443 2067 
C 3328 2042 3206 2035 2989 2035 
L 1862 2035 
C 1926 2176 1958 2234 2029 2426 
L 1562 2528 
C 1485 2285 1453 2202 1382 2035 
L 832 2035 
C 608 2035 493 2042 365 2067 
L 365 1594 
C 499 1619 614 1626 832 1626 
L 1165 1626 
C 1005 1344 941 1248 723 954 
C 1203 774 1402 691 1702 550 
C 1376 294 902 83 326 -58 
C 429 -205 493 -314 563 -480 
C 1325 -224 1715 -19 2112 346 
C 2432 173 2502 122 2778 -77 
L 3046 339 
z
M 2419 1626 
C 2310 1306 2214 1120 2022 870 
C 1818 960 1709 1005 1357 1146 
C 1504 1370 1549 1440 1651 1626 
L 2419 1626 
z
M 2163 4070 
L 2163 4902 
C 2163 5075 2170 5203 2189 5325 
L 1696 5325 
C 1722 5184 1728 5075 1728 4896 
L 1728 4070 
L 915 4070 
C 666 4070 531 4077 390 4102 
L 390 3642 
C 518 3667 678 3674 902 3674 
L 1434 3674 
C 1133 3258 864 3034 269 2688 
C 410 2566 486 2477 589 2317 
C 1184 2739 1408 2963 1747 3494 
C 1734 3366 1728 3258 1728 3162 
L 1728 2835 
C 1728 2752 1722 2662 1702 2586 
L 2182 2586 
C 2170 2662 2163 2758 2163 2848 
L 2163 3168 
C 2163 3258 2157 3347 2138 3494 
C 2355 3162 2490 3014 2848 2739 
C 2989 2970 3002 2982 3130 3110 
C 2816 3277 2566 3469 2406 3674 
L 2989 3674 
C 3200 3674 3309 3667 3418 3648 
L 3418 4096 
C 3322 4077 3200 4070 2995 4070 
L 2163 4070 
z
M 570 5056 
C 774 4768 896 4550 1024 4211 
L 1427 4371 
C 1286 4704 1190 4883 960 5210 
L 570 5056 
z
M 2918 5235 
C 2784 4883 2643 4634 2406 4333 
L 2790 4147 
C 3008 4442 3104 4608 3328 5050 
L 2918 5235 
z
" transform="scale(0.015625)"/>
      </defs>
      <use xlink:href="#HiraginoSans-W4-5916"/>
      <use xlink:href="#HiraginoSans-W4-56fd" transform="translate(99.999985 0)"/>
      <use xlink:href="#HiraginoSans-W4-4eba" transform="translate(199.999969 0)"/>
      <use xlink:href="#HiraginoSans-W4-5bbf" transform="translate(299.999954 0)"/>
      <use xlink:href="#HiraginoSans-W4-6cca" transform="translate(399.999939 0)"/>
      <use xlink:href="#HiraginoSans-W4-8005" transform="translate(499.999924 0)"/>
      <use xlink:href="#HiraginoSans-W4-6570" transform="translate(599.999908 0)"/>
     </g>
    </g>
   </g>
   <g id="matplotlib.axis_2">
    <g id="ytick_1">
     <g id="line2d_9">
      <defs>
       <path id="m0e89cdcb90" d="M 0 0 
L -3.5 0 
" style="stroke: #000000; stroke-width: 0.8"/>
      </defs>
      <g>
       <use xlink:href="#m0e89cdcb90" x="54.898438" y="324.72" style="stroke: #000000; stroke-width: 0.8"/>
      </g>
     </g>
     <g id="text_10">
      <!-- 0 -->
      <g transform="translate(41.16875 328.574687) scale(0.1 -0.1)">
       <use xlink:href="#HiraginoSans-W4-30"/>
      </g>
     </g>
    </g>
    <g id="ytick_2">
     <g id="line2d_10">
      <g>
       <use xlink:href="#m0e89cdcb90" x="54.898438" y="281.52" style="stroke: #000000; stroke-width: 0.8"/>
      </g>
     </g>
     <g id="text_11">
      <!-- 1000 -->
      <g transform="translate(20.979688 285.374687) scale(0.1 -0.1)">
       <use xlink:href="#HiraginoSans-W4-31"/>
       <use xlink:href="#HiraginoSans-W4-30" transform="translate(67.299988 0)"/>
       <use xlink:href="#HiraginoSans-W4-30" transform="translate(134.599976 0)"/>
       <use xlink:href="#HiraginoSans-W4-30" transform="translate(201.899963 0)"/>
      </g>
     </g>
    </g>
    <g id="ytick_3">
     <g id="line2d_11">
      <g>
       <use xlink:href="#m0e89cdcb90" x="54.898438" y="238.32" style="stroke: #000000; stroke-width: 0.8"/>
      </g>
     </g>
     <g id="text_12">
      <!-- 2000 -->
      <g transform="translate(20.979688 242.174687) scale(0.1 -0.1)">
       <use xlink:href="#HiraginoSans-W4-32"/>
       <use xlink:href="#HiraginoSans-W4-30" transform="translate(67.299988 0)"/>
       <use xlink:href="#HiraginoSans-W4-30" transform="translate(134.599976 0)"/>
       <use xlink:href="#HiraginoSans-W4-30" transform="translate(201.899963 0)"/>
      </g>
     </g>
    </g>
    <g id="ytick_4">
     <g id="line2d_12">
      <g>
       <use xlink:href="#m0e89cdcb90" x="54.898438" y="195.12" style="stroke: #000000; stroke-width: 0.8"/>
      </g>
     </g>
     <g id="text_13">
      <!-- 3000 -->
      <g transform="translate(20.979688 198.974687) scale(0.1 -0.1)">
       <use xlink:href="#HiraginoSans-W4-33"/>
       <use xlink:href="#HiraginoSans-W4-30" transform="translate(67.299988 0)"/>
       <use xlink:href="#HiraginoSans-W4-30" transform="translate(134.599976 0)"/>
       <use xlink:href="#HiraginoSans-W4-30" transform="translate(201.899963 0)"/>
      </g>
     </g>
    </g>
    <g id="ytick_5">
     <g id="line2d_13">
      <g>
       <use xlink:href="#m0e89cdcb90" x="54.898438" y="151.92" style="stroke: #000000; stroke-width: 0.8"/>
      </g>
     </g>
     <g id="text_14">
      <!-- 4000 -->
      <g transform="translate(20.959375 155.774687) scale(0.1 -0.1)">
       <use xlink:href="#HiraginoSans-W4-34"/>
       <use xlink:href="#HiraginoSans-W4-30" transform="translate(67.499985 0)"/>
       <use xlink:href="#HiraginoSans-W4-30" transform="translate(134.799973 0)"/>
       <use xlink:href="#HiraginoSans-W4-30" transform="translate(202.09996 0)"/>
      </g>
     </g>
    </g>
    <g id="ytick_6">
     <g id="line2d_14">
      <g>
       <use xlink:href="#m0e89cdcb90" x="54.898438" y="108.72" style="stroke: #000000; stroke-width: 0.8"/>
      </g>
     </g>
     <g id="text_15">
      <!-- 5000 -->
      <g transform="translate(20.979688 112.574687) scale(0.1 -0.1)">
       <use xlink:href="#HiraginoSans-W4-35"/>
       <use xlink:href="#HiraginoSans-W4-30" transform="translate(67.299988 0)"/>
       <use xlink:href="#HiraginoSans-W4-30" transform="translate(134.599976 0)"/>
       <use xlink:href="#HiraginoSans-W4-30" transform="translate(201.899963 0)"/>
      </g>
     </g>
    </g>
    <g id="ytick_7">
     <g id="line2d_15">
      <g>
       <use xlink:href="#m0e89cdcb90" x="54.898438" y="65.52" style="stroke: #000000; stroke-width: 0.8"/>
      </g>
     </g>
     <g id="text_16">
      <!-- 6000 -->
      <g transform="translate(20.979688 69.374687) scale(0.1 -0.1)">
       <use xlink:href="#HiraginoSans-W4-36"/>
       <use xlink:href="#HiraginoSans-W4-30" transform="translate(67.299988 0)"/>
       <use xlink:href="#HiraginoSans-W4-30" transform="translate(134.599976 0)"/>
       <use xlink:href="#HiraginoSans-W4-30" transform="translate(201.899963 0)"/>
      </g>
     </g>
    </g>
    <g id="ytick_8">
     <g id="line2d_16">
      <g>
       <use xlink:href="#m0e89cdcb90" x="54.898438" y="22.32" style="stroke: #000000; stroke-width: 0.8"/>
      </g>
     </g>
     <g id="text_17">
      <!-- 7000 -->
      <g transform="translate(20.979688 26.174687) scale(0.1 -0.1)">
       <use xlink:href="#HiraginoSans-W4-37"/>
       <use xlink:href="#HiraginoSans-W4-30" transform="translate(67.299988 0)"/>
       <use xlink:href="#HiraginoSans-W4-30" transform="translate(134.599976 0)"/>
       <use xlink:href="#HiraginoSans-W4-30" transform="translate(201.899963 0)"/>
      </g>
     </g>
    </g>
    <g id="text_18">
     <!-- 日本人宿泊者数 -->
     <g transform="translate(14.909375 208.52) rotate(-90) scale(0.1 -0.1)">
      <defs>
       <path id="HiraginoSans-W4-65e5" d="M 1082 301 
C 1082 13 1069 -211 1043 -410 
L 1600 -410 
L 1600 0 
L 4800 0 
L 4800 -410 
L 5357 -410 
C 5331 -198 5318 -13 5318 307 
L 5318 4410 
C 5318 4653 5325 4826 5350 5018 
C 5165 4992 4979 4986 4678 4986 
L 1747 4986 
C 1453 4986 1254 4992 1050 5018 
C 1069 4826 1082 4621 1082 4371 
L 1082 301 
z
M 1600 4512 
L 4800 4512 
L 4800 2810 
L 1600 2810 
L 1600 4512 
z
M 1600 2336 
L 4800 2336 
L 4800 474 
L 1600 474 
L 1600 2336 
z
" transform="scale(0.015625)"/>
       <path id="HiraginoSans-W4-672c" d="M 2656 3750 
C 2368 3181 2118 2810 1683 2298 
C 1216 1754 762 1363 218 1037 
C 384 864 442 787 550 576 
C 1005 890 1344 1190 1741 1626 
C 2278 2221 2611 2720 2925 3418 
C 2906 3091 2899 2848 2899 2624 
L 2899 1293 
L 2291 1293 
C 1965 1293 1830 1299 1670 1325 
L 1670 794 
C 1850 819 2029 832 2310 832 
L 2899 832 
L 2899 275 
C 2899 -26 2880 -256 2854 -480 
L 3437 -480 
C 3405 -269 3392 -32 3392 269 
L 3392 832 
L 4045 832 
C 4320 832 4499 819 4685 794 
L 4685 1325 
C 4518 1299 4384 1293 4070 1293 
L 3392 1293 
L 3392 2624 
C 3392 2816 3379 3085 3360 3437 
C 3526 3066 3610 2918 3782 2650 
C 4019 2285 4269 1971 4544 1677 
C 4954 1248 5338 922 5843 589 
C 5952 806 6016 902 6170 1088 
C 5619 1382 5158 1747 4685 2246 
C 4269 2688 3968 3117 3616 3750 
L 5242 3750 
C 5510 3750 5709 3738 5978 3712 
L 5978 4269 
C 5779 4237 5555 4224 5242 4224 
L 3392 4224 
L 3392 4749 
C 3392 4960 3405 5146 3430 5331 
L 2854 5331 
C 2886 5120 2899 4966 2899 4742 
L 2899 4224 
L 1146 4224 
C 858 4224 672 4237 429 4269 
L 429 3712 
C 666 3738 890 3750 1146 3750 
L 2656 3750 
z
" transform="scale(0.015625)"/>
      </defs>
      <use xlink:href="#HiraginoSans-W4-65e5"/>
      <use xlink:href="#HiraginoSans-W4-672c" transform="translate(99.999985 0)"/>
      <use xlink:href="#HiraginoSans-W4-4eba" transform="translate(199.999969 0)"/>
      <use xlink:href="#HiraginoSans-W4-5bbf" transform="translate(299.999954 0)"/>
      <use xlink:href="#HiraginoSans-W4-6cca" transform="translate(399.999939 0)"/>
      <use xlink:href="#HiraginoSans-W4-8005" transform="translate(499.999924 0)"/>
      <use xlink:href="#HiraginoSans-W4-6570" transform="translate(599.999908 0)"/>
     </g>
    </g>
   </g>
   <g id="line2d_17">
    <path d="M 70.116619 324.72 
L 374.480256 22.32 
" clip-path="url(#p5c1cbe610d)" style="fill: none; stroke: #1f77b4; stroke-width: 1.5; stroke-linecap: square"/>
   </g>
   <g id="patch_3">
    <path d="M 54.898438 339.84 
L 54.898438 7.2 
" style="fill: none; stroke: #000000; stroke-width: 0.8; stroke-linejoin: miter; stroke-linecap: square"/>
   </g>
   <g id="patch_4">
    <path d="M 389.698438 339.84 
L 389.698438 7.2 
" style="fill: none; stroke: #000000; stroke-width: 0.8; stroke-linejoin: miter; stroke-linecap: square"/>
   </g>
   <g id="patch_5">
    <path d="M 54.898438 339.84 
L 389.698437 339.84 
" style="fill: none; stroke: #000000; stroke-width: 0.8; stroke-linejoin: miter; stroke-linecap: square"/>
   </g>
   <g id="patch_6">
    <path d="M 54.898438 7.2 
L 389.698437 7.2 
" style="fill: none; stroke: #000000; stroke-width: 0.8; stroke-linejoin: miter; stroke-linecap: square"/>
   </g>
   <g id="text_19">
    <!-- 北海道 -->
    <g transform="translate(107.386816 202.411382) scale(0.1 -0.1)">
     <defs>
      <path id="HiraginoSans-W4-5317" d="M 2074 3264 
L 2074 1555 
C 1658 1318 1344 1165 838 947 
C 608 845 486 806 282 762 
L 474 230 
C 544 262 634 307 730 352 
C 1267 589 1587 749 2074 1024 
L 2074 256 
C 2074 -58 2061 -256 2035 -448 
L 2618 -448 
C 2592 -250 2579 -64 2579 250 
L 2579 4557 
C 2579 4870 2592 5050 2618 5242 
L 2035 5242 
C 2061 5043 2074 4858 2074 4557 
L 2074 3731 
L 1005 3731 
C 723 3731 570 3744 429 3770 
L 429 3226 
C 602 3251 762 3264 1005 3264 
L 2074 3264 
z
M 4026 2560 
C 4736 2938 5280 3296 5792 3712 
C 5920 3821 5933 3827 6022 3891 
L 5651 4314 
C 5555 4192 5434 4077 5280 3955 
C 4909 3648 4454 3341 4026 3104 
L 4026 4557 
C 4026 4858 4038 5030 4064 5242 
L 3488 5242 
C 3514 5069 3526 4896 3526 4557 
L 3526 333 
C 3526 45 3610 -90 3840 -166 
C 4013 -224 4211 -243 4672 -243 
C 4992 -243 5222 -230 5363 -205 
C 5530 -179 5690 -109 5766 -38 
C 5958 147 6061 582 6099 1325 
C 5888 1389 5792 1427 5619 1542 
C 5613 1005 5562 576 5485 429 
C 5395 262 5216 218 4685 218 
C 4397 218 4218 237 4134 269 
C 4051 301 4026 352 4026 474 
L 4026 2560 
z
" transform="scale(0.015625)"/>
      <path id="HiraginoSans-W4-6d77" d="M 2944 4717 
C 3021 4877 3059 4960 3098 5062 
C 3162 5235 3162 5235 3200 5306 
L 2675 5408 
C 2656 5280 2611 5139 2541 4973 
C 2259 4301 1984 3898 1517 3475 
C 1670 3373 1766 3277 1875 3123 
C 2253 3533 2419 3757 2720 4282 
L 5210 4282 
C 5664 4282 5875 4275 6029 4256 
L 6029 4755 
C 5824 4723 5645 4717 5171 4717 
L 2944 4717 
z
M 4883 448 
C 4806 32 4768 -6 4480 -6 
C 4288 -6 4045 19 3770 70 
C 3834 -109 3853 -211 3859 -410 
C 4064 -429 4352 -448 4499 -448 
C 5088 -448 5216 -314 5344 448 
L 5453 448 
C 5664 448 5798 442 5958 422 
L 5958 915 
C 5818 883 5709 877 5466 877 
L 5408 877 
C 5459 1280 5485 1504 5510 1926 
L 5574 1926 
C 5786 1926 5965 1914 6157 1888 
L 6157 2394 
C 5997 2362 5862 2355 5574 2355 
L 5530 2355 
C 5549 2656 5555 2861 5562 2963 
C 5581 3469 5587 3558 5613 3712 
C 5414 3693 5261 3686 4947 3686 
L 2842 3686 
C 2637 3686 2483 3693 2394 3699 
C 2400 3590 2406 3533 2406 3533 
L 2406 3437 
C 2406 3238 2368 2854 2310 2355 
L 2246 2355 
C 1952 2355 1786 2368 1632 2394 
L 1632 1888 
C 1818 1920 1952 1926 2195 1926 
L 2253 1926 
C 2144 1190 1997 576 1805 64 
L 2317 6 
C 2381 218 2394 288 2432 448 
L 4883 448 
z
M 4115 2355 
C 4141 2618 4141 2618 4186 3270 
L 5114 3270 
C 5107 2854 5101 2707 5088 2355 
L 4115 2355 
z
M 2771 2355 
C 2816 2771 2829 2880 2854 3270 
L 3738 3270 
C 3712 2720 3712 2720 3680 2355 
L 2771 2355 
z
M 5062 1926 
C 5037 1574 5011 1318 4954 877 
L 3930 877 
C 4019 1459 4019 1459 4077 1926 
L 5062 1926 
z
M 3635 1926 
C 3590 1542 3558 1331 3533 1178 
C 3494 973 3494 973 3482 877 
L 2528 877 
C 2656 1517 2662 1555 2714 1926 
L 3635 1926 
z
M 512 4928 
C 909 4659 1088 4493 1459 4058 
L 1811 4416 
C 1510 4742 1254 4966 858 5254 
L 512 4928 
z
M 179 3315 
C 653 3021 870 2842 1197 2477 
L 1523 2854 
C 1146 3213 928 3379 486 3654 
L 179 3315 
z
M 1178 1862 
C 902 954 557 160 307 -115 
L 742 -467 
C 774 -384 774 -384 851 -250 
C 1094 224 1357 864 1574 1542 
L 1178 1862 
z
" transform="scale(0.015625)"/>
      <path id="HiraginoSans-W4-9053" d="M 2662 4608 
C 2342 4608 2150 4621 2010 4646 
L 2010 4173 
C 2202 4192 2342 4198 2650 4198 
L 3693 4198 
C 3635 4045 3571 3904 3469 3725 
L 3027 3725 
C 2726 3725 2522 3731 2368 3744 
C 2387 3603 2400 3347 2400 3130 
L 2400 1293 
C 2400 1088 2394 883 2381 678 
C 2547 691 2784 698 2995 698 
L 5094 698 
C 5274 698 5427 691 5568 678 
C 5549 864 5542 1069 5542 1331 
L 5542 3117 
C 5542 3360 5549 3565 5568 3750 
C 5453 3731 5261 3725 4966 3725 
L 3962 3725 
C 4064 3910 4102 4000 4186 4198 
L 5344 4198 
C 5581 4198 5766 4192 5978 4166 
L 5978 4646 
C 5818 4621 5645 4608 5344 4608 
L 4806 4608 
C 4928 4749 5069 4954 5229 5216 
L 4762 5363 
C 4640 5101 4480 4845 4294 4608 
L 3642 4608 
C 3424 4979 3334 5120 3142 5363 
L 2720 5197 
C 2906 4973 3046 4781 3142 4608 
L 2662 4608 
z
M 2848 3328 
L 5094 3328 
L 5094 2861 
L 2848 2861 
L 2848 3328 
z
M 2848 2470 
L 5094 2470 
L 5094 1990 
L 2848 1990 
L 2848 2470 
z
M 2842 1600 
L 5088 1600 
L 5088 1094 
L 2842 1094 
L 2842 1600 
z
M 371 4864 
C 781 4499 1037 4205 1389 3706 
L 1766 4045 
C 1446 4467 1178 4762 730 5178 
L 371 4864 
z
M 352 2317 
C 512 2342 595 2349 806 2349 
L 1203 2349 
L 1203 877 
C 806 506 467 256 211 154 
L 461 -352 
C 531 -288 550 -275 621 -218 
C 1030 96 1184 237 1414 486 
C 1670 160 1824 26 2112 -96 
C 2464 -250 2931 -307 3853 -307 
C 4346 -307 5318 -288 6022 -262 
C 6061 -45 6099 77 6195 282 
C 5594 198 4800 154 3936 154 
C 2963 154 2528 205 2214 352 
C 1939 480 1798 621 1670 877 
L 1670 2138 
C 1670 2458 1677 2611 1696 2816 
C 1549 2790 1408 2784 1216 2784 
L 845 2784 
C 595 2784 499 2790 352 2816 
L 352 2317 
z
" transform="scale(0.015625)"/>
     </defs>
     <use xlink:href="#HiraginoSans-W4-5317"/>
     <use xlink:href="#HiraginoSans-W4-6d77" transform="translate(99.999985 0)"/>
     <use xlink:href="#HiraginoSans-W4-9053" transform="translate(199.999969 0)"/>
    </g>
   </g>
   <g id="text_20">
    <!-- 千葉 -->
    <g transform="translate(107.146369 229.90235) scale(0.1 -0.1)">
     <defs>
      <path id="HiraginoSans-W4-5343" d="M 2893 2918 
L 1075 2918 
C 762 2918 570 2931 371 2963 
L 371 2387 
C 608 2419 800 2432 1069 2432 
L 2893 2432 
L 2893 250 
C 2893 -141 2886 -314 2848 -531 
L 3462 -531 
C 3430 -320 3418 -147 3418 237 
L 3418 2432 
L 5350 2432 
C 5638 2432 5837 2419 6067 2387 
L 6067 2963 
C 5869 2931 5677 2918 5344 2918 
L 3418 2918 
L 3418 4384 
C 4026 4486 4576 4621 5235 4826 
C 5325 4858 5357 4864 5434 4883 
L 5069 5363 
C 4922 5274 4762 5210 4448 5114 
C 3379 4794 2010 4602 723 4595 
C 826 4442 896 4269 934 4102 
C 1875 4166 2202 4198 2893 4301 
L 2893 2918 
z
" transform="scale(0.015625)"/>
      <path id="HiraginoSans-W4-8449" d="M 2470 4493 
L 3878 4493 
L 3878 4448 
C 3878 4275 3878 4211 3866 4077 
L 4371 4077 
C 4352 4211 4346 4301 4346 4448 
L 4346 4493 
L 5312 4493 
C 5619 4493 5843 4480 6035 4461 
L 6035 4928 
C 5862 4902 5645 4890 5312 4890 
L 4346 4890 
L 4346 4979 
C 4346 5120 4358 5222 4384 5370 
L 3846 5370 
C 3872 5210 3878 5114 3878 4979 
L 3878 4890 
L 2470 4890 
L 2470 4979 
C 2470 5120 2477 5229 2502 5370 
L 1965 5370 
C 1990 5235 2003 5114 2003 4979 
L 2003 4890 
L 1075 4890 
C 749 4890 531 4902 352 4928 
L 352 4461 
C 544 4480 762 4493 1075 4493 
L 2003 4493 
L 2003 4448 
C 2003 4320 1990 4173 1978 4077 
L 2483 4077 
C 2470 4198 2470 4262 2470 4448 
L 2470 4493 
z
M 5037 3706 
L 5037 3750 
C 5037 3891 5050 4026 5069 4147 
L 4563 4147 
C 4582 4013 4589 3898 4589 3750 
L 4589 3706 
L 3315 3706 
L 3315 3750 
C 3315 3910 3322 4038 3341 4147 
L 2842 4147 
C 2861 4013 2867 3904 2867 3744 
L 2867 3706 
L 1792 3706 
L 1792 3763 
C 1792 3923 1798 4019 1818 4166 
L 1293 4166 
C 1312 4045 1318 3930 1318 3757 
L 1318 3706 
L 1005 3706 
C 685 3706 512 3718 346 3744 
L 346 3283 
C 544 3309 717 3315 1050 3315 
L 1318 3315 
L 1318 2342 
C 1318 2150 1312 2048 1299 1882 
C 1498 1894 1677 1901 1920 1901 
L 5043 1901 
C 5357 1901 5549 1894 5747 1869 
L 5747 2310 
C 5581 2285 5414 2278 5030 2278 
L 1792 2278 
L 1792 3315 
L 2867 3315 
L 2867 2950 
C 2867 2803 2861 2675 2848 2566 
C 3046 2579 3219 2586 3469 2586 
L 4442 2586 
C 4672 2586 4870 2579 5062 2566 
C 5043 2675 5037 2790 5037 2976 
L 5037 3315 
L 5331 3315 
C 5670 3315 5862 3309 6042 3283 
L 6042 3744 
C 5856 3712 5677 3706 5331 3706 
L 5037 3706 
z
M 3315 3315 
L 4589 3315 
L 4589 2944 
L 3315 2944 
L 3315 3315 
z
M 3418 1389 
L 3418 1427 
C 3418 1530 3424 1638 3443 1760 
L 2938 1760 
C 2950 1651 2957 1549 2957 1421 
L 2957 1389 
L 1126 1389 
C 787 1389 582 1402 403 1427 
L 403 947 
C 627 973 832 986 1126 986 
L 2662 986 
C 2035 518 1318 224 301 19 
C 429 -115 499 -218 595 -403 
C 1171 -237 1395 -160 1754 6 
C 2221 218 2637 474 2982 768 
C 2970 582 2957 365 2957 282 
L 2957 45 
C 2957 -186 2944 -333 2918 -531 
L 3456 -531 
C 3424 -365 3418 -256 3418 45 
L 3418 288 
C 3418 365 3405 531 3398 774 
C 4064 218 4762 -109 5914 -403 
C 5990 -218 6067 -96 6189 45 
C 5101 237 4416 499 3731 986 
L 5338 986 
C 5632 986 5850 973 6067 947 
L 6067 1427 
C 5875 1402 5670 1389 5338 1389 
L 3418 1389 
z
" transform="scale(0.015625)"/>
     </defs>
     <use xlink:href="#HiraginoSans-W4-5343"/>
     <use xlink:href="#HiraginoSans-W4-8449" transform="translate(99.999985 0)"/>
    </g>
   </g>
   <g id="text_21">
    <!-- 東京 -->
    <g transform="translate(364.722792 98.950838) scale(0.1 -0.1)">
     <defs>
      <path id="HiraginoSans-W4-6771" d="M 2925 4269 
L 2925 3795 
L 1651 3795 
C 1267 3795 1101 3802 941 3827 
C 960 3629 966 3494 966 3149 
L 966 2138 
C 966 1901 960 1683 960 1638 
C 947 1523 947 1523 941 1472 
C 1133 1498 1267 1504 1677 1504 
L 2547 1504 
C 2310 1242 2093 1069 1702 819 
C 1203 506 774 320 186 160 
C 307 6 352 -70 454 -301 
C 1146 -58 1709 237 2214 621 
C 2534 864 2682 1005 2944 1325 
C 2931 1158 2925 947 2925 845 
L 2925 250 
C 2925 -77 2912 -237 2880 -467 
L 3437 -467 
C 3405 -269 3392 -90 3392 250 
L 3392 845 
C 3392 960 3386 1171 3373 1331 
C 3763 890 4090 621 4595 320 
C 5024 64 5440 -115 6003 -301 
C 6106 -83 6150 -6 6285 179 
C 5165 454 4397 858 3776 1504 
L 4762 1504 
C 5126 1504 5312 1498 5485 1472 
C 5459 1702 5459 1760 5459 2138 
L 5459 3162 
C 5459 3482 5466 3629 5485 3827 
C 5312 3802 5171 3795 4768 3795 
L 3392 3795 
L 3392 4269 
L 5274 4269 
C 5613 4269 5888 4256 6067 4230 
L 6067 4749 
C 5882 4717 5664 4704 5254 4704 
L 3392 4704 
L 3392 4749 
C 3392 4986 3405 5152 3437 5350 
L 2880 5350 
C 2912 5152 2925 5011 2925 4749 
L 2925 4704 
L 1133 4704 
C 774 4704 563 4717 346 4749 
L 346 4230 
C 582 4262 742 4269 1107 4269 
L 2925 4269 
z
M 2925 3386 
L 2925 2867 
L 1440 2867 
L 1440 3386 
L 2925 3386 
z
M 3392 3386 
L 4986 3386 
L 4986 2867 
L 3392 2867 
L 3392 3386 
z
M 2925 2470 
L 2925 1901 
L 1440 1901 
L 1440 2470 
L 2925 2470 
z
M 3392 2470 
L 4986 2470 
L 4986 1901 
L 3392 1901 
L 3392 2470 
z
" transform="scale(0.015625)"/>
      <path id="HiraginoSans-W4-4eac" d="M 2899 4595 
L 1120 4595 
C 794 4595 582 4608 397 4640 
L 397 4109 
C 570 4141 742 4147 1082 4147 
L 5357 4147 
C 5709 4147 5882 4141 6054 4109 
L 6054 4640 
C 5869 4608 5658 4595 5331 4595 
L 3398 4595 
L 3398 4819 
C 3398 5050 3411 5210 3443 5338 
L 2861 5338 
C 2886 5165 2899 5018 2899 4813 
L 2899 4595 
z
M 2989 1869 
L 2989 224 
C 2989 102 2938 77 2688 77 
C 2464 77 2246 96 1984 134 
C 2067 -58 2093 -166 2118 -358 
C 2387 -371 2534 -378 2656 -378 
C 3315 -378 3488 -269 3488 141 
L 3488 1869 
L 4608 1869 
C 4851 1869 5030 1862 5190 1850 
C 5178 2003 5171 2138 5171 2362 
L 5171 3142 
C 5171 3386 5178 3514 5197 3674 
C 5050 3654 4922 3648 4608 3648 
L 1741 3648 
C 1555 3648 1370 3654 1306 3661 
C 1216 3667 1216 3667 1171 3674 
C 1190 3475 1197 3398 1197 3142 
L 1197 2362 
C 1197 2125 1190 2003 1171 1843 
C 1344 1862 1478 1869 1741 1869 
L 2989 1869 
z
M 1677 3206 
L 4691 3206 
L 4691 2304 
L 1677 2304 
L 1677 3206 
z
M 1747 1632 
C 1542 1254 1414 1075 1165 813 
C 909 557 723 410 314 154 
C 467 26 531 -51 653 -237 
C 1357 262 1702 634 2176 1382 
L 1747 1632 
z
M 4166 1376 
C 4454 960 4608 768 4902 467 
C 5190 173 5357 32 5754 -237 
C 5850 -70 5946 51 6093 186 
C 5664 442 5466 582 5203 838 
C 4947 1088 4813 1254 4576 1638 
L 4166 1376 
z
" transform="scale(0.015625)"/>
     </defs>
     <use xlink:href="#HiraginoSans-W4-6771"/>
     <use xlink:href="#HiraginoSans-W4-4eac" transform="translate(99.999985 0)"/>
    </g>
   </g>
   <g id="text_22">
    <!-- 神奈川 -->
    <g transform="translate(92.252552 231.487056) scale(0.1 -0.1)">
     <defs>
      <path id="HiraginoSans-W4-795e" d="M 1702 2195 
C 1920 1946 2067 1805 2413 1530 
C 2477 1690 2534 1798 2650 1952 
C 2272 2214 1997 2445 1779 2701 
C 2054 3072 2259 3424 2470 3878 
C 2522 4000 2522 4006 2554 4051 
L 2330 4301 
C 2266 4288 2163 4282 1971 4282 
L 1702 4282 
L 1702 4858 
C 1702 5050 1715 5242 1734 5363 
L 1190 5363 
C 1210 5216 1229 5018 1229 4864 
L 1229 4282 
L 883 4282 
C 659 4282 550 4288 410 4314 
L 410 3821 
C 557 3840 717 3853 915 3853 
L 1958 3853 
C 1581 3008 960 2266 186 1734 
C 294 1587 339 1510 435 1286 
C 787 1568 960 1728 1235 2029 
L 1235 224 
C 1235 -70 1222 -320 1197 -486 
L 1734 -486 
C 1709 -269 1702 -64 1702 224 
L 1702 2195 
z
M 4019 4365 
L 3309 4365 
C 2970 4365 2816 4371 2675 4390 
C 2694 4211 2701 4077 2701 3808 
L 2701 1626 
C 2701 1350 2688 1184 2669 1018 
L 3155 1018 
L 3155 1414 
L 4019 1414 
L 4019 243 
C 4019 -64 4006 -262 3981 -493 
L 4518 -493 
C 4486 -294 4480 -64 4480 256 
L 4480 1414 
L 5421 1414 
L 5421 1050 
L 5907 1050 
C 5888 1229 5882 1402 5882 1670 
L 5882 3808 
C 5882 4122 5882 4237 5907 4390 
C 5754 4371 5606 4365 5274 4365 
L 4480 4365 
L 4480 4678 
C 4480 4966 4486 5139 4518 5363 
L 3981 5363 
C 4006 5165 4019 4960 4019 4685 
L 4019 4365 
z
M 4019 3936 
L 4019 3130 
L 3155 3130 
L 3155 3936 
L 4019 3936 
z
M 4019 2714 
L 4019 1843 
L 3155 1843 
L 3155 2714 
L 4019 2714 
z
M 4480 1843 
L 4480 2714 
L 5427 2714 
L 5427 1843 
L 4480 1843 
z
M 4480 3130 
L 4480 3936 
L 5427 3936 
L 5427 3130 
L 4480 3130 
z
" transform="scale(0.015625)"/>
      <path id="HiraginoSans-W4-5948" d="M 3162 4685 
C 3232 4819 3264 4902 3334 5062 
C 3398 5210 3430 5274 3462 5325 
L 2880 5402 
C 2854 5190 2778 4992 2624 4685 
L 1152 4685 
C 813 4685 570 4698 403 4723 
L 403 4211 
C 576 4230 813 4243 1139 4243 
L 2349 4243 
C 2144 3962 1939 3744 1619 3494 
C 1203 3168 877 2989 218 2714 
C 365 2573 429 2490 538 2298 
C 1158 2598 1491 2803 1914 3142 
L 1914 2714 
C 2074 2733 2189 2739 2445 2739 
L 3974 2739 
C 4237 2739 4346 2733 4499 2714 
L 4499 3155 
C 4966 2765 5363 2534 5958 2285 
C 6054 2490 6131 2605 6246 2739 
C 5318 3040 4589 3546 4077 4243 
L 5261 4243 
C 5568 4243 5824 4230 5990 4211 
L 5990 4723 
C 5824 4698 5574 4685 5235 4685 
L 3162 4685 
z
M 3539 4243 
C 3808 3827 4070 3526 4454 3194 
C 4339 3174 4198 3168 3974 3168 
L 2445 3168 
C 2234 3168 2112 3174 1971 3194 
C 2400 3552 2630 3808 2906 4243 
L 3539 4243 
z
M 3021 1651 
L 3021 211 
C 3021 64 2970 32 2758 32 
C 2566 32 2330 51 2112 83 
C 2208 -134 2227 -198 2253 -403 
C 2438 -410 2643 -416 2771 -416 
C 3366 -416 3520 -307 3520 109 
L 3520 1651 
L 5146 1651 
C 5402 1651 5594 1638 5798 1613 
L 5798 2131 
C 5638 2106 5453 2093 5171 2093 
L 1274 2093 
C 992 2093 819 2106 646 2131 
L 646 1613 
C 832 1638 1050 1651 1299 1651 
L 3021 1651 
z
M 1741 1459 
C 1318 781 1037 493 390 90 
C 570 -38 646 -115 768 -288 
C 1395 173 1664 467 2176 1229 
L 1741 1459 
z
M 4224 1229 
C 4730 493 5024 192 5696 -288 
C 5843 -83 5907 -6 6054 141 
C 5363 538 5126 755 4640 1453 
L 4224 1229 
z
" transform="scale(0.015625)"/>
      <path id="HiraginoSans-W4-5ddd" d="M 1568 4634 
C 1568 4960 1574 5094 1606 5248 
L 1011 5248 
C 1037 5043 1050 4902 1050 4646 
L 1050 3354 
C 1050 2176 947 1427 710 864 
C 557 486 397 237 173 0 
C 365 -141 448 -218 608 -410 
C 870 -70 1037 218 1197 621 
C 1466 1274 1568 2042 1568 3322 
L 1568 4634 
z
M 3014 4973 
C 3040 4813 3053 4634 3053 4333 
L 3053 979 
C 3053 634 3040 416 3014 230 
L 3603 237 
C 3578 435 3565 634 3565 986 
L 3565 4339 
C 3565 4614 3578 4787 3603 4979 
L 3014 4973 
z
M 5075 5235 
C 5107 5037 5114 4896 5114 4576 
L 5114 410 
C 5114 26 5101 -211 5075 -403 
L 5664 -403 
C 5638 -198 5626 6 5626 410 
L 5626 4576 
C 5626 4902 5632 5043 5664 5235 
L 5075 5235 
z
" transform="scale(0.015625)"/>
     </defs>
     <use xlink:href="#HiraginoSans-W4-795e"/>
     <use xlink:href="#HiraginoSans-W4-5948" transform="translate(99.999985 0)"/>
     <use xlink:href="#HiraginoSans-W4-5ddd" transform="translate(199.999969 0)"/>
    </g>
   </g>
   <g id="text_23">
    <!-- 長野 -->
    <g transform="translate(77.9392 264.273264) scale(0.1 -0.1)">
     <defs>
      <path id="HiraginoSans-W4-9577" d="M 5446 2022 
C 5683 2022 5869 2010 6042 1984 
L 6042 2490 
C 5869 2464 5683 2451 5414 2451 
L 1920 2451 
L 1920 2912 
L 4672 2912 
C 4928 2912 5088 2906 5280 2880 
L 5280 3366 
C 5152 3347 4960 3334 4672 3334 
L 1920 3334 
L 1920 3776 
L 4672 3776 
C 4883 3776 5114 3763 5280 3744 
L 5280 4224 
C 5146 4205 4947 4192 4672 4192 
L 1920 4192 
L 1920 4627 
L 4838 4627 
C 5165 4627 5318 4621 5530 4595 
L 5530 5094 
C 5357 5062 5190 5056 4832 5056 
L 2061 5056 
C 1747 5056 1568 5062 1389 5088 
C 1408 4896 1414 4794 1414 4454 
L 1414 2451 
L 966 2451 
C 685 2451 474 2464 320 2490 
L 320 1984 
C 518 2010 698 2022 960 2022 
L 1414 2022 
L 1414 237 
C 813 109 646 83 435 70 
L 570 -454 
C 755 -403 774 -397 845 -384 
C 1984 -115 2746 96 3296 301 
L 3290 755 
C 2854 602 2566 512 1920 352 
L 1920 2022 
L 2630 2022 
C 2906 1478 3168 1139 3603 762 
C 4205 243 4915 -115 5888 -384 
C 5971 -166 6035 -38 6144 128 
C 5466 275 4826 531 4269 870 
C 4627 1101 4742 1184 5152 1562 
C 5184 1594 5197 1606 5254 1651 
C 5293 1690 5293 1690 5338 1728 
L 4883 1990 
C 4685 1722 4294 1370 3917 1120 
C 3533 1427 3347 1638 3136 2022 
L 5446 2022 
z
" transform="scale(0.015625)"/>
      <path id="HiraginoSans-W4-91ce" d="M 1651 2387 
L 1651 1728 
L 1043 1728 
C 800 1728 627 1734 467 1760 
L 467 1274 
C 646 1299 794 1306 1037 1306 
L 1651 1306 
L 1651 474 
C 1030 384 659 346 326 346 
L 435 -192 
C 608 -147 685 -134 947 -96 
C 1792 38 2374 154 3322 371 
L 3309 794 
C 2746 659 2515 614 2086 544 
L 2086 1306 
L 2714 1306 
C 2976 1306 3098 1299 3277 1274 
L 3277 1760 
C 3098 1734 2963 1728 2714 1728 
L 2086 1728 
L 2086 2387 
L 2650 2387 
C 2899 2387 3091 2381 3206 2362 
C 3194 2496 3187 2650 3187 2950 
L 3187 4461 
C 3187 4730 3194 4909 3206 5050 
C 3059 5030 2906 5024 2624 5024 
L 1158 5024 
C 934 5024 749 5030 557 5050 
C 576 4890 582 4723 582 4461 
L 582 2976 
C 582 2733 576 2515 557 2362 
C 685 2381 890 2387 1133 2387 
L 1651 2387 
z
M 1651 4608 
L 1651 3917 
L 998 3917 
L 998 4608 
L 1651 4608 
z
M 2086 4608 
L 2771 4608 
L 2771 3917 
L 2086 3917 
L 2086 4608 
z
M 1651 3520 
L 1651 2790 
L 998 2790 
L 998 3520 
L 1651 3520 
z
M 2086 3520 
L 2771 3520 
L 2771 2790 
L 2086 2790 
L 2086 3520 
z
M 5696 5050 
C 5581 5030 5453 5024 5203 5024 
L 4051 5024 
C 3789 5024 3629 5030 3469 5056 
L 3469 4550 
C 3642 4576 3789 4582 4026 4582 
L 5286 4582 
C 5088 4333 4864 4096 4582 3859 
C 4358 4026 4237 4109 3923 4307 
L 3642 3987 
C 4211 3629 4518 3392 4864 3046 
L 3898 3046 
C 3622 3046 3507 3053 3334 3078 
L 3334 2560 
C 3494 2586 3648 2592 3898 2592 
L 4358 2592 
L 4358 186 
C 4358 64 4314 32 4128 32 
C 3949 32 3731 58 3418 115 
C 3482 -64 3501 -154 3533 -384 
C 3789 -410 3942 -416 4115 -416 
C 4659 -416 4832 -294 4832 102 
L 4832 2592 
L 5645 2592 
C 5421 2208 5280 2016 4973 1709 
C 5126 1632 5216 1568 5344 1453 
C 5683 1856 5882 2144 6214 2765 
L 5965 3072 
C 5850 3053 5722 3046 5472 3046 
L 4986 3046 
L 5248 3315 
C 5082 3456 5030 3501 4915 3597 
C 5242 3891 5421 4083 5670 4390 
C 5888 4659 5888 4659 5965 4742 
L 5696 5050 
z
" transform="scale(0.015625)"/>
     </defs>
     <use xlink:href="#HiraginoSans-W4-9577"/>
     <use xlink:href="#HiraginoSans-W4-91ce" transform="translate(99.999985 0)"/>
    </g>
   </g>
   <g id="text_24">
    <!-- 静岡 -->
    <g transform="translate(77.550049 246.369715) scale(0.1 -0.1)">
     <defs>
      <path id="HiraginoSans-W4-9759" d="M 4941 3738 
C 5062 3885 5197 4070 5325 4275 
C 5504 4544 5523 4576 5574 4653 
L 5370 4870 
C 5293 4858 5210 4851 4979 4851 
L 4269 4851 
C 4314 4934 4333 4973 4358 5024 
C 4435 5178 4454 5210 4493 5280 
L 4006 5395 
C 3949 5190 3859 4992 3686 4723 
C 3462 4371 3238 4122 2854 3808 
C 3014 3712 3104 3629 3194 3494 
C 3309 3603 3341 3635 3424 3718 
L 3424 3309 
C 3571 3322 3738 3334 3923 3334 
L 4211 3334 
L 4211 2694 
L 3622 2694 
C 3418 2694 3251 2701 3117 2720 
L 3117 2246 
C 3283 2266 3443 2272 3629 2272 
L 4211 2272 
L 4211 1542 
L 3808 1542 
C 3603 1542 3469 1549 3309 1568 
L 3309 1101 
C 3462 1114 3635 1126 3814 1126 
L 4211 1126 
L 4211 186 
C 4211 64 4179 38 4019 38 
C 3827 38 3661 51 3398 96 
C 3475 -70 3514 -205 3526 -403 
C 3763 -416 3904 -422 3955 -422 
C 4525 -422 4653 -326 4653 96 
L 4653 1126 
L 5382 1126 
L 5382 870 
L 5862 870 
C 5843 1056 5830 1248 5830 1491 
L 5830 2272 
C 6022 2266 6080 2259 6214 2240 
L 6214 2726 
C 6093 2701 6010 2694 5830 2694 
L 5830 3219 
C 5830 3469 5837 3610 5856 3763 
C 5728 3744 5581 3738 5318 3738 
L 4941 3738 
z
M 3923 3738 
C 3750 3738 3578 3744 3462 3763 
C 3699 4006 3814 4141 4026 4448 
L 4941 4448 
C 4794 4179 4666 4000 4435 3738 
L 3923 3738 
z
M 4653 1542 
L 4653 2272 
L 5389 2272 
L 5389 1542 
L 4653 1542 
z
M 5389 2694 
L 4653 2694 
L 4653 3334 
L 5389 3334 
L 5389 2694 
z
M 1574 4826 
L 941 4826 
C 723 4826 602 4832 454 4851 
L 454 4422 
C 582 4442 698 4448 928 4448 
L 1574 4448 
L 1574 4070 
L 1069 4070 
C 858 4070 755 4077 634 4096 
L 634 3686 
C 768 3699 864 3706 1069 3706 
L 1574 3706 
L 1574 3296 
L 845 3296 
C 595 3296 480 3302 333 3322 
L 333 2886 
C 499 2906 608 2912 851 2912 
L 2592 2912 
C 2822 2912 2938 2906 3066 2886 
L 3066 3322 
C 2938 3302 2829 3296 2598 3296 
L 2010 3296 
L 2010 3706 
L 2426 3706 
C 2630 3706 2694 3699 2848 3686 
L 2848 4096 
C 2733 4077 2637 4070 2432 4070 
L 2010 4070 
L 2010 4448 
L 2560 4448 
C 2758 4448 2886 4442 3027 4422 
L 3027 4851 
C 2886 4832 2758 4826 2541 4826 
L 2010 4826 
L 2010 4909 
C 2010 5082 2022 5229 2042 5350 
L 1542 5350 
C 1562 5210 1574 5062 1574 4902 
L 1574 4826 
z
M 1107 678 
L 2406 678 
L 2406 134 
C 2406 19 2381 -6 2253 -6 
C 2093 -6 1984 0 1792 32 
C 1843 -115 1862 -218 1875 -397 
C 2112 -416 2138 -416 2234 -416 
C 2720 -416 2842 -320 2842 70 
L 2842 1990 
C 2842 2304 2848 2458 2861 2598 
C 2714 2579 2643 2579 2310 2579 
L 1165 2579 
C 896 2579 787 2586 646 2598 
C 666 2445 672 2298 672 2016 
L 672 192 
C 672 -77 659 -275 634 -467 
L 1139 -467 
C 1120 -282 1107 -109 1107 160 
L 1107 678 
z
M 1107 1056 
L 1107 1453 
L 2406 1453 
L 2406 1056 
L 1107 1056 
z
M 1107 1830 
L 1107 2195 
L 2406 2195 
L 2406 1830 
L 1107 1830 
z
" transform="scale(0.015625)"/>
      <path id="HiraginoSans-W4-5ca1" d="M 1939 3322 
C 1677 3322 1536 3328 1363 3354 
L 1363 2861 
C 1530 2886 1690 2893 1939 2893 
L 2976 2893 
L 2976 1190 
L 2221 1190 
L 2221 1997 
C 2221 2227 2227 2368 2246 2509 
L 1747 2509 
C 1773 2298 1779 2189 1779 1971 
L 1779 858 
C 1779 550 1773 390 1747 218 
L 2221 218 
L 2221 762 
L 4230 762 
L 4230 454 
L 4698 454 
C 4678 627 4672 774 4672 1024 
L 4672 1978 
C 4672 2202 4678 2349 4704 2509 
L 4205 2509 
C 4224 2362 4230 2214 4230 2003 
L 4230 1190 
L 3424 1190 
L 3424 2893 
L 4512 2893 
C 4749 2893 4922 2886 5082 2861 
L 5082 3354 
C 4928 3328 4781 3322 4512 3322 
L 3962 3322 
C 4179 3642 4314 3878 4506 4314 
L 4051 4480 
C 3898 4013 3738 3686 3488 3322 
L 1939 3322 
z
M 634 192 
C 634 -77 621 -275 595 -467 
L 1152 -467 
C 1126 -307 1120 -147 1120 186 
L 1120 4614 
L 5306 4614 
L 5306 192 
C 5306 64 5248 26 5043 26 
C 4755 26 4448 58 4166 109 
C 4250 -109 4269 -192 4301 -384 
C 4538 -410 4717 -422 4966 -422 
C 5613 -422 5798 -314 5798 83 
L 5798 4467 
C 5798 4742 5805 4896 5824 5088 
C 5677 5069 5517 5062 5216 5062 
L 1261 5062 
C 947 5062 800 5069 608 5088 
C 627 4909 634 4749 634 4506 
L 634 192 
z
M 1958 4288 
C 2170 4006 2298 3776 2451 3398 
L 2874 3571 
C 2701 3962 2643 4070 2374 4474 
L 1958 4288 
z
" transform="scale(0.015625)"/>
     </defs>
     <use xlink:href="#HiraginoSans-W4-9759"/>
     <use xlink:href="#HiraginoSans-W4-5ca1" transform="translate(99.999985 0)"/>
    </g>
   </g>
   <g id="text_25">
    <!-- 愛知 -->
    <g transform="translate(85.007393 257.893574) scale(0.1 -0.1)">
     <defs>
      <path id="HiraginoSans-W4-611b" d="M 4589 1818 
C 4467 1792 4326 1786 4038 1786 
L 2496 1786 
C 2579 1882 2611 1926 2797 2163 
C 2982 2157 3066 2157 3206 2157 
C 4403 2157 4448 2176 4595 2848 
C 4435 2893 4326 2944 4186 3046 
C 4147 2758 4109 2656 4019 2605 
C 3942 2560 3731 2547 3117 2547 
C 2490 2547 2419 2560 2419 2675 
L 2419 3046 
C 2419 3206 2426 3315 2445 3443 
L 1946 3443 
C 1965 3309 1978 3168 1978 2976 
L 1978 2496 
C 1978 2285 2035 2227 2285 2189 
C 2061 1914 1952 1798 1728 1619 
C 1363 1318 1062 1152 384 870 
C 531 749 608 659 691 499 
C 1267 768 1549 934 1888 1210 
C 2176 902 2406 710 2733 499 
C 1990 198 1402 64 339 -51 
C 461 -198 518 -301 582 -493 
C 1690 -346 2400 -147 3194 237 
C 3597 26 3974 -115 4410 -224 
C 5005 -371 5402 -435 5901 -480 
C 5958 -275 6010 -154 6112 6 
C 5178 38 4384 192 3654 486 
C 4090 762 4346 973 4736 1382 
C 4819 1478 4826 1478 4877 1523 
L 4589 1818 
z
M 4141 1421 
C 3834 1107 3590 922 3187 710 
C 2771 934 2502 1139 2246 1421 
L 4141 1421 
z
M 1338 4570 
C 1434 4422 1517 4250 1581 4070 
L 1222 4070 
C 819 4070 672 4077 454 4102 
C 474 3936 480 3789 480 3610 
L 480 3251 
C 480 3091 467 2944 448 2784 
L 941 2784 
L 941 3661 
L 5466 3661 
L 5466 2803 
L 5958 2803 
C 5933 2944 5926 3078 5926 3226 
L 5926 3603 
C 5926 3802 5933 3949 5952 4096 
C 5766 4077 5581 4070 5235 4070 
L 4755 4070 
C 4877 4256 4902 4294 5120 4678 
L 4672 4800 
C 4845 4826 5184 4877 5690 4966 
L 5338 5402 
C 5056 5299 4710 5229 4051 5152 
C 3226 5050 1926 4979 998 4979 
C 890 4979 774 4979 595 4986 
C 698 4813 730 4742 781 4563 
L 1338 4570 
z
M 2042 4070 
C 1952 4275 1875 4435 1786 4582 
C 1990 4595 1990 4595 2797 4634 
C 2899 4467 2989 4269 3053 4070 
L 2042 4070 
z
M 3507 4070 
C 3450 4256 3366 4448 3245 4659 
C 3770 4698 4141 4736 4646 4800 
C 4557 4538 4435 4288 4288 4070 
L 3507 4070 
z
M 915 1843 
C 1338 2278 1542 2579 1786 3130 
L 1395 3322 
C 1216 2822 1037 2566 582 2182 
L 915 1843 
z
M 3821 3072 
C 3469 3341 3398 3392 2970 3622 
L 2714 3341 
C 3053 3155 3245 3014 3533 2752 
L 3821 3072 
z
M 5798 2176 
C 5472 2650 5229 2938 4794 3379 
L 4448 3142 
C 4870 2733 5094 2445 5421 1882 
L 5798 2176 
z
" transform="scale(0.015625)"/>
      <path id="HiraginoSans-W4-77e5" d="M 1709 4026 
C 1702 3296 1702 3296 1677 2886 
L 1075 2886 
C 730 2886 570 2893 378 2925 
L 378 2400 
C 570 2432 742 2438 1062 2438 
L 1632 2438 
C 1568 2003 1504 1754 1389 1466 
C 1158 922 819 525 256 154 
C 435 26 525 -70 634 -250 
C 1344 346 1664 794 1901 1536 
C 2189 1024 2477 666 2950 224 
C 3066 454 3130 550 3251 691 
C 2669 1146 2400 1459 2042 2118 
C 2061 2227 2074 2330 2086 2438 
L 2630 2438 
C 2886 2438 3078 2426 3238 2400 
L 3238 2925 
C 3072 2899 2899 2886 2637 2886 
L 2131 2886 
C 2157 3213 2163 3322 2176 4026 
L 2541 4026 
C 2771 4026 2957 4019 3168 3994 
L 3168 4506 
C 3008 4474 2848 4467 2541 4467 
L 1440 4467 
C 1504 4646 1549 4774 1594 4941 
C 1651 5133 1670 5197 1702 5286 
L 1184 5376 
C 1178 5274 1165 5178 1120 5011 
C 947 4352 717 3910 282 3450 
C 454 3334 538 3264 666 3110 
C 947 3469 1069 3654 1248 4026 
L 1709 4026 
z
M 3917 186 
L 5338 186 
L 5338 -262 
L 5862 -262 
C 5837 -70 5824 218 5824 518 
L 5824 4090 
C 5824 4390 5830 4563 5856 4762 
C 5677 4736 5542 4730 5280 4730 
L 3981 4730 
C 3712 4730 3590 4736 3411 4762 
C 3430 4538 3443 4339 3443 4090 
L 3443 467 
C 3443 192 3430 -70 3405 -262 
L 3917 -262 
L 3917 186 
z
M 3923 4282 
L 5338 4282 
L 5338 634 
L 3923 634 
L 3923 4282 
z
" transform="scale(0.015625)"/>
     </defs>
     <use xlink:href="#HiraginoSans-W4-611b"/>
     <use xlink:href="#HiraginoSans-W4-77e5" transform="translate(99.999985 0)"/>
    </g>
   </g>
   <g id="text_26">
    <!-- 京都 -->
    <g transform="translate(131.568072 239.628485) scale(0.1 -0.1)">
     <defs>
      <path id="HiraginoSans-W4-90fd" d="M 1869 3021 
C 1350 2509 781 2099 141 1760 
C 269 1619 314 1542 403 1344 
C 659 1510 774 1587 986 1741 
L 986 198 
C 986 -109 973 -358 947 -493 
L 1434 -493 
L 1434 -122 
L 2784 -122 
L 2784 -390 
L 3264 -390 
C 3245 -224 3238 -51 3238 243 
L 3238 1747 
C 3238 2138 3238 2240 3258 2419 
C 3123 2400 2970 2394 2688 2394 
L 1798 2394 
C 2029 2598 2157 2726 2438 3021 
L 3002 3021 
C 3264 3021 3437 3014 3610 2995 
L 3610 3469 
C 3437 3443 3270 3437 2906 3437 
L 2816 3437 
C 3136 3814 3296 4051 3597 4582 
C 3667 4704 3686 4742 3750 4819 
L 3296 5088 
C 3258 4947 3194 4800 3110 4640 
C 2842 4141 2630 3846 2266 3437 
L 2099 3437 
L 2099 4192 
L 2330 4192 
C 2509 4192 2618 4186 2790 4166 
L 2790 4640 
C 2637 4614 2534 4608 2285 4608 
L 2099 4608 
L 2099 4800 
C 2099 5056 2106 5203 2138 5357 
L 1606 5357 
C 1638 5184 1645 5043 1645 4800 
L 1645 4608 
L 1203 4608 
C 915 4608 774 4614 614 4646 
L 614 4160 
C 794 4186 941 4192 1203 4192 
L 1645 4192 
L 1645 3437 
L 1018 3437 
C 691 3437 531 3443 352 3475 
L 352 2982 
C 538 3014 691 3021 1018 3021 
L 1869 3021 
z
M 1434 1997 
L 2790 1997 
L 2790 1376 
L 1434 1376 
L 1434 1997 
z
M 1434 979 
L 2790 979 
L 2790 282 
L 1434 282 
L 1434 979 
z
M 5850 5158 
C 5734 5139 5594 5133 5344 5133 
L 4333 5133 
C 4090 5133 3962 5139 3802 5152 
C 3821 4960 3827 4787 3827 4582 
L 3827 358 
C 3827 -115 3821 -333 3789 -518 
L 4352 -518 
C 4320 -288 4307 13 4307 352 
L 4307 4704 
L 5478 4704 
C 5267 4096 5050 3616 4678 2970 
C 5018 2650 5152 2490 5299 2234 
C 5453 1952 5549 1613 5549 1350 
C 5549 890 5459 800 5030 800 
C 4890 800 4736 813 4531 845 
C 4608 672 4627 563 4646 326 
C 4896 314 4915 314 4992 314 
C 5338 314 5568 358 5722 448 
C 5939 589 6061 858 6061 1222 
C 6061 1517 5984 1830 5843 2144 
C 5696 2464 5555 2662 5216 3027 
C 5651 3878 5702 3987 5958 4589 
C 6022 4742 6029 4749 6074 4838 
L 5850 5158 
z
" transform="scale(0.015625)"/>
     </defs>
     <use xlink:href="#HiraginoSans-W4-4eac"/>
     <use xlink:href="#HiraginoSans-W4-90fd" transform="translate(99.999985 0)"/>
    </g>
   </g>
   <g id="text_27">
    <!-- 大阪 -->
    <g transform="translate(162.716212 202.063104) scale(0.1 -0.1)">
     <defs>
      <path id="HiraginoSans-W4-5927" d="M 5261 3290 
C 5587 3290 5779 3277 5990 3245 
L 5990 3834 
C 5805 3802 5587 3789 5254 3789 
L 3386 3789 
C 3398 4019 3405 4224 3411 4538 
C 3411 4877 3424 5011 3456 5229 
L 2835 5229 
C 2867 5024 2880 4838 2880 4416 
C 2880 4173 2874 4000 2867 3789 
L 1146 3789 
C 800 3789 582 3802 403 3834 
L 403 3245 
C 595 3277 781 3290 1139 3290 
L 2822 3290 
C 2656 1965 2227 1222 1242 550 
C 941 346 717 230 269 45 
C 429 -128 486 -205 589 -422 
C 1197 -154 1613 115 2016 480 
C 2624 1043 3021 1754 3206 2618 
C 3552 1587 4122 781 4941 154 
C 5197 -45 5370 -147 5856 -416 
C 5984 -166 6042 -77 6195 102 
C 5888 230 5734 307 5517 442 
C 5069 710 4666 1050 4403 1376 
C 3949 1939 3629 2573 3437 3290 
L 5261 3290 
z
" transform="scale(0.015625)"/>
      <path id="HiraginoSans-W4-962a" d="M 3584 3149 
C 3738 2246 3923 1728 4333 1094 
C 3878 563 3475 275 2701 -70 
C 2848 -186 2938 -288 3046 -467 
C 3782 -90 4154 192 4608 717 
C 4992 250 5357 -64 5990 -435 
C 6086 -205 6144 -109 6272 38 
C 5658 358 5299 634 4909 1101 
C 5267 1619 5523 2189 5779 3053 
C 5824 3206 5843 3251 5875 3341 
L 5626 3610 
C 5523 3584 5363 3578 5107 3578 
L 3354 3578 
C 3360 3770 3360 3878 3360 4115 
L 3360 4589 
L 5434 4589 
C 5709 4589 5894 4576 6067 4557 
L 6067 5075 
C 5882 5050 5696 5037 5414 5037 
L 3571 5037 
C 3315 5037 3085 5050 2861 5069 
C 2880 4870 2886 4666 2886 4435 
C 2886 2970 2810 2016 2630 1370 
C 2464 762 2202 352 1664 -134 
C 1830 -230 1914 -301 2061 -467 
C 2554 38 2797 422 2995 966 
C 3206 1542 3296 2112 3341 3149 
L 3584 3149 
z
M 5306 3149 
C 5114 2413 4934 1978 4621 1491 
C 4301 2003 4154 2419 4026 3149 
L 5306 3149 
z
M 576 173 
C 576 -109 563 -288 538 -467 
L 1088 -467 
C 1069 -282 1056 -102 1056 128 
L 1056 4710 
L 2080 4710 
C 1856 4051 1702 3718 1363 3168 
C 1715 2797 1850 2592 1946 2259 
C 1984 2118 2010 1965 2010 1837 
C 2010 1574 1939 1498 1702 1498 
C 1562 1498 1466 1504 1235 1536 
C 1306 1395 1331 1293 1344 1062 
C 1478 1056 1530 1056 1587 1056 
C 1805 1056 1978 1075 2099 1120 
C 2336 1203 2470 1446 2470 1818 
C 2470 2029 2426 2253 2349 2464 
C 2253 2720 2150 2886 1894 3219 
C 2182 3725 2368 4115 2541 4570 
C 2598 4730 2618 4774 2650 4832 
L 2406 5165 
C 2298 5146 2189 5139 2003 5139 
L 973 5139 
C 794 5139 659 5146 557 5158 
C 570 4954 576 4845 576 4634 
L 576 173 
z
" transform="scale(0.015625)"/>
     </defs>
     <use xlink:href="#HiraginoSans-W4-5927"/>
     <use xlink:href="#HiraginoSans-W4-962a" transform="translate(99.999985 0)"/>
    </g>
   </g>
   <g id="text_28">
    <!-- 兵庫 -->
    <g transform="translate(75.579947 270.685138) scale(0.1 -0.1)">
     <defs>
      <path id="HiraginoSans-W4-5175" d="M 4499 1702 
L 4499 3117 
L 5235 3117 
C 5498 3117 5658 3110 5837 3085 
L 5837 3597 
C 5651 3571 5517 3565 5235 3565 
L 1933 3565 
L 1933 4320 
C 3040 4397 4307 4621 5338 4928 
L 4966 5389 
C 4429 5088 2643 4762 1408 4749 
C 1427 4595 1434 4442 1434 4211 
L 1434 1702 
L 1011 1702 
C 723 1702 538 1715 352 1741 
L 352 1210 
C 538 1235 742 1248 1011 1248 
L 5421 1248 
C 5690 1248 5875 1235 6080 1210 
L 6080 1741 
C 5901 1715 5715 1702 5421 1702 
L 4499 1702 
z
M 4000 1702 
L 1933 1702 
L 1933 3117 
L 4000 3117 
L 4000 1702 
z
M 2144 1018 
C 1933 794 1638 563 1325 365 
C 1024 179 723 38 365 -77 
C 557 -256 621 -333 730 -518 
C 1542 -160 1907 83 2586 736 
L 2144 1018 
z
M 3706 762 
C 4038 422 4205 275 4506 58 
C 4845 -186 5075 -314 5613 -557 
C 5741 -358 5798 -282 5939 -109 
C 5261 122 4634 512 4115 1043 
L 3706 762 
z
" transform="scale(0.015625)"/>
      <path id="HiraginoSans-W4-5eab" d="M 3386 3565 
L 3386 3130 
L 2310 3130 
C 2016 3130 1869 3136 1702 3155 
C 1715 2995 1722 2899 1722 2637 
L 1722 1658 
C 1722 1389 1715 1254 1702 1114 
C 1882 1133 2035 1139 2304 1139 
L 3386 1139 
L 3386 678 
L 1875 678 
C 1606 678 1440 685 1267 710 
L 1267 243 
C 1446 262 1645 275 1907 275 
L 3386 275 
L 3386 115 
C 3386 -192 3373 -365 3347 -531 
L 3866 -531 
C 3834 -352 3827 -192 3827 109 
L 3827 275 
L 5402 275 
C 5677 275 5882 262 6086 237 
L 6086 710 
C 5920 685 5747 678 5421 678 
L 3827 678 
L 3827 1139 
L 5011 1139 
C 5280 1139 5427 1133 5606 1114 
C 5594 1267 5587 1357 5587 1651 
L 5587 2630 
C 5587 2918 5587 2995 5606 3155 
C 5446 3136 5280 3130 5011 3130 
L 3827 3130 
L 3827 3565 
L 5357 3565 
C 5613 3565 5747 3558 5914 3526 
L 5914 3987 
C 5747 3962 5613 3955 5357 3955 
L 3827 3955 
C 3834 4102 3840 4179 3859 4275 
L 3354 4275 
C 3373 4173 3379 4102 3386 3955 
L 2061 3955 
C 1805 3955 1658 3962 1491 3987 
L 1491 3533 
C 1664 3558 1786 3565 2054 3565 
L 3386 3565 
z
M 3386 2752 
L 3386 2336 
L 2170 2336 
L 2170 2752 
L 3386 2752 
z
M 3827 2752 
L 5139 2752 
L 5139 2336 
L 3827 2336 
L 3827 2752 
z
M 3386 1965 
L 3386 1517 
L 2170 1517 
L 2170 1965 
L 3386 1965 
z
M 3827 1965 
L 5139 1965 
L 5139 1517 
L 3827 1517 
L 3827 1965 
z
M 3091 4832 
L 1459 4832 
C 1152 4832 966 4838 723 4864 
C 742 4710 749 4531 755 4365 
C 755 4326 755 4288 755 4262 
L 730 2547 
C 723 2234 678 1722 634 1395 
C 544 800 416 422 154 -6 
C 326 -141 384 -192 544 -403 
C 806 19 954 422 1056 979 
C 1190 1664 1229 2458 1229 4422 
L 5370 4422 
C 5696 4422 5875 4416 6029 4390 
L 6029 4870 
C 5856 4845 5619 4832 5350 4832 
L 3578 4832 
L 3578 4973 
C 3578 5165 3584 5267 3616 5376 
L 3053 5376 
C 3085 5261 3091 5158 3091 4979 
L 3091 4832 
z
" transform="scale(0.015625)"/>
     </defs>
     <use xlink:href="#HiraginoSans-W4-5175"/>
     <use xlink:href="#HiraginoSans-W4-5eab" transform="translate(99.999985 0)"/>
    </g>
   </g>
   <g id="text_29">
    <!-- 福岡 -->
    <g transform="translate(96.484076 266.887512) scale(0.1 -0.1)">
     <defs>
      <path id="HiraginoSans-W4-798f" d="M 1158 179 
C 1158 -64 1146 -294 1120 -499 
L 1658 -499 
C 1638 -346 1626 -141 1626 173 
L 1626 2144 
C 1830 1926 1971 1798 2227 1606 
C 2298 1786 2349 1882 2451 2029 
C 2131 2202 1882 2394 1677 2637 
C 1952 2995 2163 3354 2349 3757 
C 2394 3859 2432 3930 2477 4013 
L 2259 4301 
C 2208 4288 2112 4282 1958 4282 
L 1626 4282 
L 1626 4845 
C 1626 5030 1638 5229 1664 5350 
L 1114 5350 
C 1139 5203 1152 5011 1152 4851 
L 1152 4282 
L 832 4282 
C 646 4282 525 4288 352 4307 
L 352 3814 
C 525 3834 685 3840 845 3840 
L 1901 3840 
C 1696 3405 1523 3123 1242 2778 
C 909 2374 608 2099 128 1779 
C 243 1638 307 1523 378 1325 
C 749 1613 909 1760 1158 2029 
L 1158 179 
z
M 2381 4621 
C 2573 4646 2752 4653 2989 4653 
L 5421 4653 
C 5658 4653 5843 4646 6029 4621 
L 6029 5126 
C 5856 5107 5658 5094 5382 5094 
L 3034 5094 
C 2778 5094 2573 5107 2381 5126 
L 2381 4621 
z
M 2784 3264 
C 2784 3053 2778 2912 2758 2758 
C 2931 2778 3110 2784 3366 2784 
L 5011 2784 
C 5299 2784 5459 2778 5626 2758 
C 5606 2918 5600 3040 5600 3283 
L 5600 3744 
C 5600 3974 5606 4090 5626 4256 
C 5466 4237 5267 4224 5030 4224 
L 3360 4224 
C 3117 4224 2918 4230 2758 4256 
C 2778 4096 2784 3949 2784 3731 
L 2784 3264 
z
M 3232 3827 
L 5133 3827 
L 5133 3168 
L 3232 3168 
L 3232 3827 
z
M 3110 2330 
C 2835 2330 2624 2336 2477 2349 
C 2496 2176 2502 1978 2502 1715 
L 2502 179 
C 2502 -70 2490 -282 2464 -467 
L 2950 -467 
L 2950 -186 
L 5459 -186 
L 5459 -486 
L 5952 -486 
C 5926 -301 5914 -109 5914 166 
L 5914 1728 
C 5914 2010 5920 2202 5939 2355 
C 5805 2336 5619 2330 5312 2330 
L 3110 2330 
z
M 2950 1926 
L 3942 1926 
L 3942 1299 
L 2950 1299 
L 2950 1926 
z
M 4384 1926 
L 5459 1926 
L 5459 1299 
L 4384 1299 
L 4384 1926 
z
M 2950 909 
L 3942 909 
L 3942 211 
L 2950 211 
L 2950 909 
z
M 4384 909 
L 5459 909 
L 5459 211 
L 4384 211 
L 4384 909 
z
" transform="scale(0.015625)"/>
     </defs>
     <use xlink:href="#HiraginoSans-W4-798f"/>
     <use xlink:href="#HiraginoSans-W4-5ca1" transform="translate(99.999985 0)"/>
    </g>
   </g>
   <g id="text_30">
    <!-- 沖縄 -->
    <g transform="translate(95.461414 248.471827) scale(0.1 -0.1)">
     <defs>
      <path id="HiraginoSans-W4-6c96" d="M 3661 4051 
L 2560 4051 
C 2298 4051 2125 4058 1990 4077 
C 2010 3898 2016 3750 2016 3514 
L 2016 1958 
C 2016 1632 2010 1466 1984 1274 
L 2483 1274 
L 2483 1638 
L 3661 1638 
L 3661 346 
C 3661 45 3648 -218 3616 -448 
L 4186 -448 
C 4154 -237 4141 26 4141 346 
L 4141 1638 
L 5440 1638 
L 5440 1280 
L 5952 1280 
C 5926 1459 5920 1600 5920 1958 
L 5920 3482 
C 5920 3757 5926 3930 5946 4077 
C 5792 4058 5626 4051 5338 4051 
L 4141 4051 
L 4141 4557 
C 4141 4851 4154 5082 4186 5299 
L 3616 5299 
C 3648 5082 3661 4845 3661 4563 
L 3661 4051 
z
M 3661 3597 
L 3661 2093 
L 2490 2093 
L 2490 3597 
L 3661 3597 
z
M 4141 2093 
L 4141 3597 
L 5440 3597 
L 5440 2093 
L 4141 2093 
z
M 531 4941 
C 998 4640 1267 4416 1651 4038 
L 1958 4448 
C 1606 4762 1286 5005 838 5293 
L 531 4941 
z
M 262 3309 
C 768 3040 1056 2848 1440 2509 
L 1722 2950 
C 1293 3270 998 3450 538 3693 
L 262 3309 
z
M 1242 1888 
C 934 992 595 320 282 -13 
L 730 -403 
C 768 -314 794 -269 864 -141 
C 1171 390 1382 864 1645 1600 
L 1242 1888 
z
" transform="scale(0.015625)"/>
      <path id="HiraginoSans-W4-7e04" d="M 589 2554 
C 442 2554 397 2554 301 2573 
L 358 2099 
C 467 2118 538 2131 659 2138 
C 1030 2170 1030 2170 1274 2195 
L 1274 224 
C 1274 -147 1261 -352 1235 -525 
L 1734 -525 
C 1702 -346 1696 -160 1696 224 
L 1696 2234 
C 1901 2253 1901 2253 2176 2291 
C 2202 2214 2221 2144 2259 2003 
L 2598 2150 
C 2451 2618 2298 2982 2106 3334 
L 1792 3206 
C 1907 2976 1946 2899 2048 2650 
C 1773 2618 1440 2586 1171 2573 
C 1446 2918 1824 3437 1958 3648 
C 2304 4186 2304 4186 2400 4307 
L 1984 4563 
C 1894 4314 1760 4077 1363 3482 
C 1261 3610 1229 3648 1062 3853 
C 1280 4179 1434 4429 1606 4755 
C 1722 4966 1760 5037 1818 5126 
L 1376 5344 
C 1286 5018 1088 4614 794 4160 
C 704 4256 659 4307 531 4435 
L 294 4077 
C 640 3731 896 3443 1114 3123 
C 928 2861 851 2758 685 2554 
L 589 2554 
z
M 3981 3078 
L 3981 2669 
L 3155 2669 
C 2874 2669 2726 2675 2611 2688 
C 2630 2547 2630 2470 2630 2163 
L 2630 813 
C 2630 589 2618 403 2598 218 
L 3053 218 
L 3053 589 
L 3981 589 
L 3981 102 
C 3981 -352 4141 -435 5005 -435 
C 5549 -435 5830 -378 5978 -230 
C 6112 -96 6157 64 6227 602 
C 6086 646 6016 678 5882 762 
C 5875 838 5875 1037 5875 1146 
L 5875 2157 
C 5875 2483 5875 2566 5888 2688 
C 5754 2675 5606 2669 5376 2669 
L 4403 2669 
L 4403 3078 
L 5184 3078 
C 5427 3078 5638 3072 5766 3059 
C 5760 3149 5754 3366 5747 3706 
L 5747 4531 
C 5747 4870 5754 5005 5766 5126 
C 5638 5114 5446 5107 5165 5107 
L 3328 5107 
C 3027 5107 2854 5114 2707 5126 
C 2720 4966 2726 4858 2726 4557 
L 2726 3699 
C 2726 3379 2720 3277 2707 3059 
C 2854 3072 3040 3078 3290 3078 
L 3981 3078 
z
M 3981 4730 
L 3981 4262 
L 3136 4262 
L 3136 4730 
L 3981 4730 
z
M 4403 4730 
L 5331 4730 
L 5331 4262 
L 4403 4262 
L 4403 4730 
z
M 3981 3904 
L 3981 3437 
L 3136 3437 
L 3136 3904 
L 3981 3904 
z
M 4403 3904 
L 5331 3904 
L 5331 3437 
L 4403 3437 
L 4403 3904 
z
M 4403 589 
L 5363 589 
C 5485 589 5664 582 5766 582 
C 5741 282 5696 147 5613 70 
C 5530 0 5376 -26 4954 -26 
C 4474 -26 4403 6 4403 230 
L 4403 589 
z
M 3981 2291 
L 3981 1837 
L 3053 1837 
L 3053 2291 
L 3981 2291 
z
M 4403 2291 
L 5440 2291 
L 5440 1837 
L 4403 1837 
L 4403 2291 
z
M 3981 1466 
L 3981 973 
L 3053 973 
L 3053 1466 
L 3981 1466 
z
M 4403 1466 
L 5440 1466 
L 5440 973 
L 4403 973 
L 4403 1466 
z
M 634 1818 
C 563 1050 467 570 288 70 
L 666 -122 
C 826 346 922 838 1024 1747 
L 634 1818 
z
M 1888 1766 
C 1997 1274 2042 890 2067 275 
L 2432 384 
C 2381 986 2323 1382 2208 1850 
L 1888 1766 
z
" transform="scale(0.015625)"/>
     </defs>
     <use xlink:href="#HiraginoSans-W4-6c96"/>
     <use xlink:href="#HiraginoSans-W4-7e04" transform="translate(99.999985 0)"/>
    </g>
   </g>
  </g>
 </g>
 <defs>
  <clipPath id="p5c1cbe610d">
   <rect x="54.898438" y="7.2" width="334.8" height="332.64"/>
  </clipPath>
 </defs>
</svg>
