<?xml version="1.0" encoding="utf-8" standalone="no"?>
<!DOCTYPE svg PUBLIC "-//W3C//DTD SVG 1.1//EN"
  "http://www.w3.org/Graphics/SVG/1.1/DTD/svg11.dtd">
<!-- Created with matplotlib (https://matplotlib.org/) -->
<svg height="296.902625pt" version="1.1" viewBox="0 0 400.0575 296.902625" width="400.0575pt" xmlns="http://www.w3.org/2000/svg" xmlns:xlink="http://www.w3.org/1999/xlink">
 <defs>
  <style type="text/css">
*{stroke-linecap:butt;stroke-linejoin:round;}
  </style>
 </defs>
 <g id="figure_1">
  <g id="patch_1">
   <path d="M 0 296.902625 
L 400.0575 296.902625 
L 400.0575 0 
L 0 0 
z
" style="fill:#ffffff;"/>
  </g>
  <g id="axes_1">
   <g id="patch_2">
    <path d="M 35.7375 273.312 
L 392.8575 273.312 
L 392.8575 7.2 
L 35.7375 7.2 
z
" style="fill:#ffffff;"/>
   </g>
   <g id="matplotlib.axis_1">
    <g id="xtick_1">
     <g id="line2d_1">
      <defs>
       <path d="M 0 0 
L 0 3.5 
" id="m215bb3996c" style="stroke:#000000;stroke-width:0.8;"/>
      </defs>
      <g>
       <use style="stroke:#000000;stroke-width:0.8;" x="71.067553" xlink:href="#m215bb3996c" y="273.312"/>
      </g>
     </g>
     <g id="text_1">
      <!-- O -->
      <defs>
       <path d="M 39.703125 73.828125 
Q 54 73.828125 63.1875 64.65625 
Q 73.578125 54.25 73.578125 36.421875 
Q 73.578125 19.046875 62.984375 8.59375 
Q 53.90625 -0.484375 39.703125 -0.484375 
Q 25.59375 -0.484375 16.5 8.59375 
Q 5.90625 19.046875 5.90625 36.8125 
Q 5.90625 54.203125 16.3125 64.65625 
Q 25.484375 73.828125 39.703125 73.828125 
z
M 39.703125 66.65625 
Q 30.515625 66.65625 23.921875 60.0625 
Q 15.53125 51.609375 15.53125 36.71875 
Q 15.53125 21.734375 23.921875 13.484375 
Q 30.421875 6.984375 39.703125 6.984375 
Q 48.921875 6.984375 55.5625 13.484375 
Q 63.96875 21.875 63.96875 37.109375 
Q 63.96875 51.515625 55.46875 60.0625 
Q 49.03125 66.65625 39.703125 66.65625 
z
" id="IPAexGothic-79"/>
      </defs>
      <g transform="translate(67.083178 287.802625)scale(0.1 -0.1)">
       <use xlink:href="#IPAexGothic-79"/>
      </g>
     </g>
    </g>
    <g id="xtick_2">
     <g id="line2d_2">
      <g>
       <use style="stroke:#000000;stroke-width:0.8;" x="166.554184" xlink:href="#m215bb3996c" y="273.312"/>
      </g>
     </g>
     <g id="text_2">
      <!-- A -->
      <defs>
       <path d="M 63.375 0.984375 
L 53.8125 0.984375 
L 45.90625 22.015625 
L 17.1875 22.015625 
L 9.421875 0.984375 
L -0.09375 0.984375 
L 28.21875 72.90625 
L 35.296875 72.90625 
z
M 43.40625 29.109375 
L 36.1875 48.09375 
Q 33.203125 56.0625 31.6875 62.5 
L 31.390625 62.5 
Q 29.640625 55.671875 26.8125 48.09375 
L 19.734375 29.109375 
z
" id="IPAexGothic-65"/>
      </defs>
      <g transform="translate(163.368247 287.802625)scale(0.1 -0.1)">
       <use xlink:href="#IPAexGothic-65"/>
      </g>
     </g>
    </g>
    <g id="xtick_3">
     <g id="line2d_3">
      <g>
       <use style="stroke:#000000;stroke-width:0.8;" x="262.040816" xlink:href="#m215bb3996c" y="273.312"/>
      </g>
     </g>
     <g id="text_3">
      <!-- B -->
      <defs>
       <path d="M 42 37.890625 
Q 59.625 34.765625 59.625 20.90625 
Q 59.625 8.6875 47.515625 3.46875 
Q 41.75 0.984375 32.71875 0.984375 
L 9.515625 0.984375 
L 9.515625 72.40625 
L 29.9375 72.40625 
Q 38.96875 72.40625 44.828125 70.3125 
Q 56.9375 65.96875 56.9375 54.546875 
Q 56.9375 40.765625 42 38.234375 
z
M 18.109375 41.5 
L 28.8125 41.5 
Q 47.859375 41.5 47.859375 53.609375 
Q 47.859375 65.328125 29.390625 65.328125 
L 18.109375 65.328125 
z
M 18.109375 8.15625 
L 31.5 8.15625 
Q 50.34375 8.15625 50.34375 21.390625 
Q 50.34375 29.640625 41.015625 32.8125 
Q 35.59375 34.71875 29.296875 34.71875 
L 18.109375 34.71875 
z
" id="IPAexGothic-66"/>
      </defs>
      <g transform="translate(258.744722 287.802625)scale(0.1 -0.1)">
       <use xlink:href="#IPAexGothic-66"/>
      </g>
     </g>
    </g>
    <g id="xtick_4">
     <g id="line2d_4">
      <g>
       <use style="stroke:#000000;stroke-width:0.8;" x="357.527447" xlink:href="#m215bb3996c" y="273.312"/>
      </g>
     </g>
     <g id="text_4">
      <!-- AB -->
      <g transform="translate(351.045415 287.802625)scale(0.1 -0.1)">
       <use xlink:href="#IPAexGothic-65"/>
       <use x="63.720703" xlink:href="#IPAexGothic-66"/>
      </g>
     </g>
    </g>
   </g>
   <g id="matplotlib.axis_2">
    <g id="ytick_1">
     <g id="line2d_5">
      <defs>
       <path d="M 0 0 
L -3.5 0 
" id="mbac47fca21" style="stroke:#000000;stroke-width:0.8;"/>
      </defs>
      <g>
       <use style="stroke:#000000;stroke-width:0.8;" x="35.7375" xlink:href="#mbac47fca21" y="253.391445"/>
      </g>
     </g>
     <g id="text_5">
      <!-- 0.10 -->
      <defs>
       <path d="M 31.84375 73.828125 
Q 45.015625 73.828125 52.09375 61.625 
Q 57.71875 51.953125 57.71875 36.625 
Q 57.71875 21.4375 52.09375 11.578125 
Q 45.125 -0.484375 31.5 -0.484375 
Q 17.921875 -0.484375 10.9375 11.578125 
Q 5.328125 21.4375 5.328125 36.71875 
Q 5.328125 58.015625 15.625 67.71875 
Q 22.171875 73.828125 31.84375 73.828125 
z
M 31.5 66.65625 
Q 23.6875 66.65625 19.1875 58.734375 
Q 14.59375 50.734375 14.59375 36.625 
Q 14.59375 22.75 19.09375 14.796875 
Q 23.640625 6.984375 31.5 6.984375 
Q 40.921875 6.984375 45.453125 18.015625 
Q 48.4375 25.34375 48.4375 37.109375 
Q 48.4375 50.875 43.84375 58.734375 
Q 39.203125 66.65625 31.5 66.65625 
z
" id="IPAexGothic-48"/>
       <path d="M 18.5 0.984375 
L 7.71875 0.984375 
L 7.71875 11.765625 
L 18.5 11.765625 
z
" id="IPAexGothic-46"/>
       <path d="M 38.484375 0.984375 
L 29.6875 0.984375 
L 29.6875 64.109375 
Q 21.4375 61.28125 12.3125 59.328125 
L 10.6875 66.109375 
Q 23.734375 69.390625 32.90625 73.921875 
L 38.484375 73.921875 
z
" id="IPAexGothic-49"/>
      </defs>
      <g transform="translate(7.2 257.136757)scale(0.1 -0.1)">
       <use xlink:href="#IPAexGothic-48"/>
       <use x="62.988281" xlink:href="#IPAexGothic-46"/>
       <use x="89.404297" xlink:href="#IPAexGothic-49"/>
       <use x="152.392578" xlink:href="#IPAexGothic-48"/>
      </g>
     </g>
    </g>
    <g id="ytick_2">
     <g id="line2d_6">
      <g>
       <use style="stroke:#000000;stroke-width:0.8;" x="35.7375" xlink:href="#mbac47fca21" y="212.357161"/>
      </g>
     </g>
     <g id="text_6">
      <!-- 0.15 -->
      <defs>
       <path d="M 18.40625 40.671875 
Q 25.53125 46.296875 33.9375 46.296875 
Q 44 46.296875 50.640625 39.5 
Q 56.84375 33.015625 56.84375 23.390625 
Q 56.84375 14.65625 51.515625 8.015625 
Q 44.828125 -0.484375 31.734375 -0.484375 
Q 14.984375 -0.484375 7.328125 12.25 
L 14.65625 16.0625 
Q 20.453125 6.78125 31.453125 6.78125 
Q 38.53125 6.78125 43.265625 11.1875 
Q 48.140625 15.828125 48.140625 23.484375 
Q 48.140625 30.71875 43.84375 35.015625 
Q 39.359375 39.5 32.125 39.5 
Q 21.96875 39.5 16.75 31.6875 
L 9.234375 32.671875 
L 13.8125 72.40625 
L 53.21875 72.40625 
L 53.21875 64.890625 
L 20.953125 64.890625 
L 17.71875 40.671875 
z
" id="IPAexGothic-53"/>
      </defs>
      <g transform="translate(7.2 216.102473)scale(0.1 -0.1)">
       <use xlink:href="#IPAexGothic-48"/>
       <use x="62.988281" xlink:href="#IPAexGothic-46"/>
       <use x="89.404297" xlink:href="#IPAexGothic-49"/>
       <use x="152.392578" xlink:href="#IPAexGothic-53"/>
      </g>
     </g>
    </g>
    <g id="ytick_3">
     <g id="line2d_7">
      <g>
       <use style="stroke:#000000;stroke-width:0.8;" x="35.7375" xlink:href="#mbac47fca21" y="171.322877"/>
      </g>
     </g>
     <g id="text_7">
      <!-- 0.20 -->
      <defs>
       <path d="M 57.171875 0.984375 
L 6.984375 0.984375 
L 6.984375 9.28125 
Q 12.890625 23.046875 29.59375 34.421875 
L 32.375 36.28125 
Q 40.921875 42.140625 43.609375 45.40625 
Q 46.6875 49.265625 46.6875 53.8125 
Q 46.6875 58.9375 43.0625 62.546875 
Q 39.0625 66.546875 32.5625 66.546875 
Q 19.53125 66.546875 15.484375 52 
L 7.765625 54.78125 
Q 13.328125 73.828125 33.0625 73.828125 
Q 43.84375 73.828125 50.25 67.4375 
Q 55.859375 61.671875 55.859375 53.515625 
Q 55.859375 47.46875 52.25 42.53125 
Q 48.921875 37.75 36.96875 30.28125 
L 34.859375 29 
Q 19.625 19.578125 15.28125 8.890625 
L 57.171875 8.890625 
z
" id="IPAexGothic-50"/>
      </defs>
      <g transform="translate(7.2 175.06819)scale(0.1 -0.1)">
       <use xlink:href="#IPAexGothic-48"/>
       <use x="62.988281" xlink:href="#IPAexGothic-46"/>
       <use x="89.404297" xlink:href="#IPAexGothic-50"/>
       <use x="152.392578" xlink:href="#IPAexGothic-48"/>
      </g>
     </g>
    </g>
    <g id="ytick_4">
     <g id="line2d_8">
      <g>
       <use style="stroke:#000000;stroke-width:0.8;" x="35.7375" xlink:href="#mbac47fca21" y="130.288593"/>
      </g>
     </g>
     <g id="text_8">
      <!-- 0.25 -->
      <g transform="translate(7.2 134.033906)scale(0.1 -0.1)">
       <use xlink:href="#IPAexGothic-48"/>
       <use x="62.988281" xlink:href="#IPAexGothic-46"/>
       <use x="89.404297" xlink:href="#IPAexGothic-50"/>
       <use x="152.392578" xlink:href="#IPAexGothic-53"/>
      </g>
     </g>
    </g>
    <g id="ytick_5">
     <g id="line2d_9">
      <g>
       <use style="stroke:#000000;stroke-width:0.8;" x="35.7375" xlink:href="#mbac47fca21" y="89.25431"/>
      </g>
     </g>
     <g id="text_9">
      <!-- 0.30 -->
      <defs>
       <path d="M 37.203125 37.796875 
Q 54.78125 34.625 54.78125 19.96875 
Q 54.78125 11.1875 48.875 5.5625 
Q 42.328125 -0.484375 30.375 -0.484375 
Q 12.453125 -0.484375 4.5 13.765625 
L 11.8125 17.671875 
Q 17.328125 6.890625 30.28125 6.890625 
Q 37.890625 6.890625 42.09375 10.796875 
Q 46.09375 14.5 46.09375 20.171875 
Q 46.09375 26.859375 40.09375 30.90625 
Q 34.625 34.578125 25.6875 34.578125 
L 21.296875 34.578125 
L 21.296875 41.703125 
L 25.875 41.703125 
Q 34.859375 41.703125 39.59375 45.125 
Q 44.671875 48.734375 44.671875 54.828125 
Q 44.671875 61.46875 38.96875 64.65625 
Q 35.296875 66.84375 30.171875 66.84375 
Q 19.34375 66.84375 14.109375 55.90625 
L 6.78125 59.421875 
Q 14.015625 73.828125 30.28125 73.828125 
Q 40.578125 73.828125 46.96875 68.65625 
Q 53.375 63.578125 53.375 55.21875 
Q 53.375 47.3125 47.171875 42.28125 
Q 43.171875 39.0625 37.203125 38.1875 
z
" id="IPAexGothic-51"/>
      </defs>
      <g transform="translate(7.2 92.999622)scale(0.1 -0.1)">
       <use xlink:href="#IPAexGothic-48"/>
       <use x="62.988281" xlink:href="#IPAexGothic-46"/>
       <use x="89.404297" xlink:href="#IPAexGothic-51"/>
       <use x="152.392578" xlink:href="#IPAexGothic-48"/>
      </g>
     </g>
    </g>
    <g id="ytick_6">
     <g id="line2d_10">
      <g>
       <use style="stroke:#000000;stroke-width:0.8;" x="35.7375" xlink:href="#mbac47fca21" y="48.220026"/>
      </g>
     </g>
     <g id="text_10">
      <!-- 0.35 -->
      <g transform="translate(7.2 51.965338)scale(0.1 -0.1)">
       <use xlink:href="#IPAexGothic-48"/>
       <use x="62.988281" xlink:href="#IPAexGothic-46"/>
       <use x="89.404297" xlink:href="#IPAexGothic-51"/>
       <use x="152.392578" xlink:href="#IPAexGothic-53"/>
      </g>
     </g>
    </g>
   </g>
   <g id="LineCollection_1">
    <path clip-path="url(#p83faa906b9)" d="M 51.970227 77.585068 
L 51.970227 76.190009 
" style="fill:none;stroke:#1f77b4;stroke-width:1.5;"/>
    <path clip-path="url(#p83faa906b9)" d="M 147.456858 29.77255 
L 147.456858 28.319999 
" style="fill:none;stroke:#1f77b4;stroke-width:1.5;"/>
    <path clip-path="url(#p83faa906b9)" d="M 242.943489 155.057096 
L 242.943489 153.811835 
" style="fill:none;stroke:#1f77b4;stroke-width:1.5;"/>
    <path clip-path="url(#p83faa906b9)" d="M 338.43012 261.216 
L 338.43012 260.352052 
" style="fill:none;stroke:#1f77b4;stroke-width:1.5;"/>
   </g>
   <g id="LineCollection_2">
    <path clip-path="url(#p83faa906b9)" d="M 61.51889 96.124567 
L 61.51889 85.938406 
" style="fill:none;stroke:#ff7f0e;stroke-width:1.5;"/>
    <path clip-path="url(#p83faa906b9)" d="M 157.005521 30.098 
L 157.005521 19.296 
" style="fill:none;stroke:#ff7f0e;stroke-width:1.5;"/>
    <path clip-path="url(#p83faa906b9)" d="M 252.492152 160.488617 
L 252.492152 151.276014 
" style="fill:none;stroke:#ff7f0e;stroke-width:1.5;"/>
    <path clip-path="url(#p83faa906b9)" d="M 347.978783 252.847409 
L 347.978783 246.01231 
" style="fill:none;stroke:#ff7f0e;stroke-width:1.5;"/>
   </g>
   <g id="LineCollection_3">
    <path clip-path="url(#p83faa906b9)" d="M 71.067553 90.313685 
L 71.067553 87.60672 
" style="fill:none;stroke:#2ca02c;stroke-width:1.5;"/>
    <path clip-path="url(#p83faa906b9)" d="M 166.554184 54.756548 
L 166.554184 51.951993 
" style="fill:none;stroke:#2ca02c;stroke-width:1.5;"/>
    <path clip-path="url(#p83faa906b9)" d="M 262.040816 150.767453 
L 262.040816 148.295351 
" style="fill:none;stroke:#2ca02c;stroke-width:1.5;"/>
    <path clip-path="url(#p83faa906b9)" d="M 357.527447 230.291708 
L 357.527447 228.30929 
" style="fill:none;stroke:#2ca02c;stroke-width:1.5;"/>
   </g>
   <g id="LineCollection_4">
    <path clip-path="url(#p83faa906b9)" d="M 80.616217 121.421562 
L 80.616217 71.011201 
" style="fill:none;stroke:#d62728;stroke-width:1.5;"/>
    <path clip-path="url(#p83faa906b9)" d="M 176.102848 81.146889 
L 176.102848 28.55749 
" style="fill:none;stroke:#d62728;stroke-width:1.5;"/>
    <path clip-path="url(#p83faa906b9)" d="M 271.589479 172.130083 
L 271.589479 125.591374 
" style="fill:none;stroke:#d62728;stroke-width:1.5;"/>
    <path clip-path="url(#p83faa906b9)" d="M 367.07611 237.881694 
L 367.07611 198.963933 
" style="fill:none;stroke:#d62728;stroke-width:1.5;"/>
   </g>
   <g id="LineCollection_5">
    <path clip-path="url(#p83faa906b9)" d="M 90.16488 80.215275 
L 90.16488 78.18003 
" style="fill:none;stroke:#9467bd;stroke-width:1.5;"/>
    <path clip-path="url(#p83faa906b9)" d="M 185.651511 51.924342 
L 185.651511 49.834127 
" style="fill:none;stroke:#9467bd;stroke-width:1.5;"/>
    <path clip-path="url(#p83faa906b9)" d="M 281.138142 158.950937 
L 281.138142 157.14292 
" style="fill:none;stroke:#9467bd;stroke-width:1.5;"/>
    <path clip-path="url(#p83faa906b9)" d="M 376.624773 233.752123 
L 376.624773 232.300142 
" style="fill:none;stroke:#9467bd;stroke-width:1.5;"/>
   </g>
   <g id="line2d_11">
    <defs>
     <path d="M 5 0 
L -5 -0 
" id="m68ead321e0" style="stroke:#ff7f0e;"/>
    </defs>
    <g clip-path="url(#p83faa906b9)">
     <use style="fill:#ff7f0e;stroke:#ff7f0e;" x="61.51889" xlink:href="#m68ead321e0" y="96.124567"/>
     <use style="fill:#ff7f0e;stroke:#ff7f0e;" x="157.005521" xlink:href="#m68ead321e0" y="30.098"/>
     <use style="fill:#ff7f0e;stroke:#ff7f0e;" x="252.492152" xlink:href="#m68ead321e0" y="160.488617"/>
     <use style="fill:#ff7f0e;stroke:#ff7f0e;" x="347.978783" xlink:href="#m68ead321e0" y="252.847409"/>
    </g>
   </g>
   <g id="line2d_12">
    <g clip-path="url(#p83faa906b9)">
     <use style="fill:#ff7f0e;stroke:#ff7f0e;" x="61.51889" xlink:href="#m68ead321e0" y="85.938406"/>
     <use style="fill:#ff7f0e;stroke:#ff7f0e;" x="157.005521" xlink:href="#m68ead321e0" y="19.296"/>
     <use style="fill:#ff7f0e;stroke:#ff7f0e;" x="252.492152" xlink:href="#m68ead321e0" y="151.276014"/>
     <use style="fill:#ff7f0e;stroke:#ff7f0e;" x="347.978783" xlink:href="#m68ead321e0" y="246.01231"/>
    </g>
   </g>
   <g id="line2d_13">
    <defs>
     <path d="M 5 0 
L -5 -0 
" id="mab82b3fede" style="stroke:#2ca02c;"/>
    </defs>
    <g clip-path="url(#p83faa906b9)">
     <use style="fill:#2ca02c;stroke:#2ca02c;" x="71.067553" xlink:href="#mab82b3fede" y="90.313685"/>
     <use style="fill:#2ca02c;stroke:#2ca02c;" x="166.554184" xlink:href="#mab82b3fede" y="54.756548"/>
     <use style="fill:#2ca02c;stroke:#2ca02c;" x="262.040816" xlink:href="#mab82b3fede" y="150.767453"/>
     <use style="fill:#2ca02c;stroke:#2ca02c;" x="357.527447" xlink:href="#mab82b3fede" y="230.291708"/>
    </g>
   </g>
   <g id="line2d_14">
    <g clip-path="url(#p83faa906b9)">
     <use style="fill:#2ca02c;stroke:#2ca02c;" x="71.067553" xlink:href="#mab82b3fede" y="87.60672"/>
     <use style="fill:#2ca02c;stroke:#2ca02c;" x="166.554184" xlink:href="#mab82b3fede" y="51.951993"/>
     <use style="fill:#2ca02c;stroke:#2ca02c;" x="262.040816" xlink:href="#mab82b3fede" y="148.295351"/>
     <use style="fill:#2ca02c;stroke:#2ca02c;" x="357.527447" xlink:href="#mab82b3fede" y="228.30929"/>
    </g>
   </g>
   <g id="line2d_15">
    <defs>
     <path d="M 5 0 
L -5 -0 
" id="maba6df6439" style="stroke:#d62728;"/>
    </defs>
    <g clip-path="url(#p83faa906b9)">
     <use style="fill:#d62728;stroke:#d62728;" x="80.616217" xlink:href="#maba6df6439" y="121.421562"/>
     <use style="fill:#d62728;stroke:#d62728;" x="176.102848" xlink:href="#maba6df6439" y="81.146889"/>
     <use style="fill:#d62728;stroke:#d62728;" x="271.589479" xlink:href="#maba6df6439" y="172.130083"/>
     <use style="fill:#d62728;stroke:#d62728;" x="367.07611" xlink:href="#maba6df6439" y="237.881694"/>
    </g>
   </g>
   <g id="line2d_16">
    <g clip-path="url(#p83faa906b9)">
     <use style="fill:#d62728;stroke:#d62728;" x="80.616217" xlink:href="#maba6df6439" y="71.011201"/>
     <use style="fill:#d62728;stroke:#d62728;" x="176.102848" xlink:href="#maba6df6439" y="28.55749"/>
     <use style="fill:#d62728;stroke:#d62728;" x="271.589479" xlink:href="#maba6df6439" y="125.591374"/>
     <use style="fill:#d62728;stroke:#d62728;" x="367.07611" xlink:href="#maba6df6439" y="198.963933"/>
    </g>
   </g>
   <g id="line2d_17">
    <defs>
     <path d="M 5 0 
L -5 -0 
" id="md7d95341fd" style="stroke:#9467bd;"/>
    </defs>
    <g clip-path="url(#p83faa906b9)">
     <use style="fill:#9467bd;stroke:#9467bd;" x="90.16488" xlink:href="#md7d95341fd" y="80.215275"/>
     <use style="fill:#9467bd;stroke:#9467bd;" x="185.651511" xlink:href="#md7d95341fd" y="51.924342"/>
     <use style="fill:#9467bd;stroke:#9467bd;" x="281.138142" xlink:href="#md7d95341fd" y="158.950937"/>
     <use style="fill:#9467bd;stroke:#9467bd;" x="376.624773" xlink:href="#md7d95341fd" y="233.752123"/>
    </g>
   </g>
   <g id="line2d_18">
    <g clip-path="url(#p83faa906b9)">
     <use style="fill:#9467bd;stroke:#9467bd;" x="90.16488" xlink:href="#md7d95341fd" y="78.18003"/>
     <use style="fill:#9467bd;stroke:#9467bd;" x="185.651511" xlink:href="#md7d95341fd" y="49.834127"/>
     <use style="fill:#9467bd;stroke:#9467bd;" x="281.138142" xlink:href="#md7d95341fd" y="157.14292"/>
     <use style="fill:#9467bd;stroke:#9467bd;" x="376.624773" xlink:href="#md7d95341fd" y="232.300142"/>
    </g>
   </g>
   <g id="line2d_19">
    <defs>
     <path d="M 0 3 
C 0.795609 3 1.55874 2.683901 2.12132 2.12132 
C 2.683901 1.55874 3 0.795609 3 0 
C 3 -0.795609 2.683901 -1.55874 2.12132 -2.12132 
C 1.55874 -2.683901 0.795609 -3 0 -3 
C -0.795609 -3 -1.55874 -2.683901 -2.12132 -2.12132 
C -2.683901 -1.55874 -3 -0.795609 -3 0 
C -3 0.795609 -2.683901 1.55874 -2.12132 2.12132 
C -1.55874 2.683901 -0.795609 3 0 3 
z
" id="m89e42a3fd6" style="stroke:#1f77b4;"/>
    </defs>
    <g clip-path="url(#p83faa906b9)">
     <use style="fill:#1f77b4;stroke:#1f77b4;" x="51.970227" xlink:href="#m89e42a3fd6" y="76.887921"/>
     <use style="fill:#1f77b4;stroke:#1f77b4;" x="147.456858" xlink:href="#m89e42a3fd6" y="29.046536"/>
     <use style="fill:#1f77b4;stroke:#1f77b4;" x="242.943489" xlink:href="#m89e42a3fd6" y="154.435043"/>
     <use style="fill:#1f77b4;stroke:#1f77b4;" x="338.43012" xlink:href="#m89e42a3fd6" y="260.784873"/>
    </g>
   </g>
   <g id="line2d_20">
    <defs>
     <path d="M 0 3 
C 0.795609 3 1.55874 2.683901 2.12132 2.12132 
C 2.683901 1.55874 3 0.795609 3 0 
C 3 -0.795609 2.683901 -1.55874 2.12132 -2.12132 
C 1.55874 -2.683901 0.795609 -3 0 -3 
C -0.795609 -3 -1.55874 -2.683901 -2.12132 -2.12132 
C -2.683901 -1.55874 -3 -0.795609 -3 0 
C -3 0.795609 -2.683901 1.55874 -2.12132 2.12132 
C -1.55874 2.683901 -0.795609 3 0 3 
z
" id="ma3b74d440f" style="stroke:#ff7f0e;"/>
    </defs>
    <g clip-path="url(#p83faa906b9)">
     <use style="fill:#ff7f0e;stroke:#ff7f0e;" x="61.51889" xlink:href="#ma3b74d440f" y="91.054453"/>
     <use style="fill:#ff7f0e;stroke:#ff7f0e;" x="157.005521" xlink:href="#ma3b74d440f" y="24.71078"/>
     <use style="fill:#ff7f0e;stroke:#ff7f0e;" x="252.492152" xlink:href="#ma3b74d440f" y="155.914276"/>
     <use style="fill:#ff7f0e;stroke:#ff7f0e;" x="347.978783" xlink:href="#ma3b74d440f" y="249.474864"/>
    </g>
   </g>
   <g id="line2d_21">
    <defs>
     <path d="M 0 3 
C 0.795609 3 1.55874 2.683901 2.12132 2.12132 
C 2.683901 1.55874 3 0.795609 3 0 
C 3 -0.795609 2.683901 -1.55874 2.12132 -2.12132 
C 1.55874 -2.683901 0.795609 -3 0 -3 
C -0.795609 -3 -1.55874 -2.683901 -2.12132 -2.12132 
C -2.683901 -1.55874 -3 -0.795609 -3 0 
C -3 0.795609 -2.683901 1.55874 -2.12132 2.12132 
C -1.55874 2.683901 -0.795609 3 0 3 
z
" id="m5ea2fbe2f3" style="stroke:#2ca02c;"/>
    </defs>
    <g clip-path="url(#p83faa906b9)">
     <use style="fill:#2ca02c;stroke:#2ca02c;" x="71.067553" xlink:href="#m5ea2fbe2f3" y="88.961799"/>
     <use style="fill:#2ca02c;stroke:#2ca02c;" x="166.554184" xlink:href="#m5ea2fbe2f3" y="53.35552"/>
     <use style="fill:#2ca02c;stroke:#2ca02c;" x="262.040816" xlink:href="#m5ea2fbe2f3" y="149.53359"/>
     <use style="fill:#2ca02c;stroke:#2ca02c;" x="357.527447" xlink:href="#m5ea2fbe2f3" y="229.303465"/>
    </g>
   </g>
   <g id="line2d_22">
    <defs>
     <path d="M 0 3 
C 0.795609 3 1.55874 2.683901 2.12132 2.12132 
C 2.683901 1.55874 3 0.795609 3 0 
C 3 -0.795609 2.683901 -1.55874 2.12132 -2.12132 
C 1.55874 -2.683901 0.795609 -3 0 -3 
C -0.795609 -3 -1.55874 -2.683901 -2.12132 -2.12132 
C -2.683901 -1.55874 -3 -0.795609 -3 0 
C -3 0.795609 -2.683901 1.55874 -2.12132 2.12132 
C -1.55874 2.683901 -0.795609 3 0 3 
z
" id="m399cdfd0e9" style="stroke:#d62728;"/>
    </defs>
    <g clip-path="url(#p83faa906b9)">
     <use style="fill:#d62728;stroke:#d62728;" x="80.616217" xlink:href="#m399cdfd0e9" y="96.800845"/>
     <use style="fill:#d62728;stroke:#d62728;" x="176.102848" xlink:href="#m399cdfd0e9" y="55.294902"/>
     <use style="fill:#d62728;stroke:#d62728;" x="271.589479" xlink:href="#m399cdfd0e9" y="149.626589"/>
     <use style="fill:#d62728;stroke:#d62728;" x="367.07611" xlink:href="#m399cdfd0e9" y="219.432037"/>
    </g>
   </g>
   <g id="line2d_23">
    <defs>
     <path d="M 0 3 
C 0.795609 3 1.55874 2.683901 2.12132 2.12132 
C 2.683901 1.55874 3 0.795609 3 0 
C 3 -0.795609 2.683901 -1.55874 2.12132 -2.12132 
C 1.55874 -2.683901 0.795609 -3 0 -3 
C -0.795609 -3 -1.55874 -2.683901 -2.12132 -2.12132 
C -2.683901 -1.55874 -3 -0.795609 -3 0 
C -3 0.795609 -2.683901 1.55874 -2.12132 2.12132 
C -1.55874 2.683901 -0.795609 3 0 3 
z
" id="md1939e281e" style="stroke:#9467bd;"/>
    </defs>
    <g clip-path="url(#p83faa906b9)">
     <use style="fill:#9467bd;stroke:#9467bd;" x="90.16488" xlink:href="#md1939e281e" y="79.198483"/>
     <use style="fill:#9467bd;stroke:#9467bd;" x="185.651511" xlink:href="#md1939e281e" y="50.879913"/>
     <use style="fill:#9467bd;stroke:#9467bd;" x="281.138142" xlink:href="#md1939e281e" y="158.048184"/>
     <use style="fill:#9467bd;stroke:#9467bd;" x="376.624773" xlink:href="#md1939e281e" y="233.027793"/>
    </g>
   </g>
   <g id="patch_3">
    <path d="M 35.7375 273.312 
L 35.7375 7.2 
" style="fill:none;stroke:#000000;stroke-linecap:square;stroke-linejoin:miter;stroke-width:0.8;"/>
   </g>
   <g id="patch_4">
    <path d="M 392.8575 273.312 
L 392.8575 7.2 
" style="fill:none;stroke:#000000;stroke-linecap:square;stroke-linejoin:miter;stroke-width:0.8;"/>
   </g>
   <g id="patch_5">
    <path d="M 35.7375 273.312 
L 392.8575 273.312 
" style="fill:none;stroke:#000000;stroke-linecap:square;stroke-linejoin:miter;stroke-width:0.8;"/>
   </g>
   <g id="patch_6">
    <path d="M 35.7375 7.2 
L 392.8575 7.2 
" style="fill:none;stroke:#000000;stroke-linecap:square;stroke-linejoin:miter;stroke-width:0.8;"/>
   </g>
   <g id="legend_1">
    <g id="patch_7">
     <path d="M 288.202812 87.153125 
L 385.8575 87.153125 
Q 387.8575 87.153125 387.8575 85.153125 
L 387.8575 14.2 
Q 387.8575 12.2 385.8575 12.2 
L 288.202812 12.2 
Q 286.202812 12.2 286.202812 14.2 
L 286.202812 85.153125 
Q 286.202812 87.153125 288.202812 87.153125 
z
" style="fill:#ffffff;opacity:0.8;stroke:#cccccc;stroke-linejoin:miter;"/>
    </g>
    <g id="LineCollection_6">
     <path d="M 300.202812 25.190625 
L 300.202812 15.190625 
" style="fill:none;stroke:#1f77b4;stroke-width:1.5;"/>
    </g>
    <g id="line2d_24"/>
    <g id="line2d_25">
     <g>
      <use style="fill:#1f77b4;stroke:#1f77b4;" x="300.202812" xlink:href="#m89e42a3fd6" y="20.190625"/>
     </g>
    </g>
    <g id="text_11">
     <!-- 古畑 -->
     <defs>
      <path d="M 53.421875 38.484375 
L 82.90625 38.484375 
L 82.90625 -6.984375 
L 75.296875 -6.984375 
L 75.296875 0 
L 24.609375 0 
L 24.609375 -6.984375 
L 17 -6.984375 
L 17 38.484375 
L 45.796875 38.484375 
L 45.796875 57.71875 
L 6.390625 57.71875 
L 6.390625 64.40625 
L 45.796875 64.40625 
L 45.796875 82.328125 
L 53.421875 82.328125 
L 53.421875 64.40625 
L 93.890625 64.40625 
L 93.890625 57.71875 
L 53.421875 57.71875 
z
M 75.296875 32.078125 
L 24.609375 32.078125 
L 24.609375 6.296875 
L 75.296875 6.296875 
z
" id="IPAexGothic-21476"/>
      <path d="M 25.6875 19.28125 
Q 22.859375 3.5625 12.59375 -7.90625 
L 7.234375 -2.09375 
Q 15.765625 7.375 18.5 19.28125 
Q 20.515625 28.65625 20.515625 43.109375 
L 20.515625 81.890625 
L 27.390625 81.890625 
L 27.390625 42.390625 
Q 27.390625 35.0625 26.8125 27.390625 
Q 27.6875 26.515625 28.171875 25.875 
Q 36.234375 17.71875 43.21875 8.6875 
L 38.1875 1.90625 
Q 33.015625 9.96875 25.6875 19.28125 
z
M 90.921875 74.8125 
L 90.921875 -4.890625 
L 84.421875 -4.890625 
L 84.421875 1.3125 
L 52.828125 1.3125 
L 52.828125 -4.890625 
L 46.234375 -4.890625 
L 46.234375 74.8125 
z
M 52.828125 68.609375 
L 52.828125 41.890625 
L 65.140625 41.890625 
L 65.140625 68.609375 
z
M 52.828125 35.890625 
L 52.828125 7.515625 
L 65.140625 7.515625 
L 65.140625 35.890625 
z
M 84.421875 7.515625 
L 84.421875 35.890625 
L 71.34375 35.890625 
L 71.34375 7.515625 
z
M 84.421875 41.890625 
L 84.421875 68.609375 
L 71.34375 68.609375 
L 71.34375 41.890625 
z
M 5.328125 36.625 
Q 8.640625 46.296875 9.421875 62.3125 
L 15.921875 61.625 
Q 15.328125 43.953125 11.625 33.015625 
z
M 28.421875 44.578125 
Q 33.6875 54.828125 36.53125 66.015625 
L 43.5 63.375 
Q 38.8125 49.859375 33.84375 41.5 
z
" id="IPAexGothic-30033"/>
     </defs>
     <g transform="translate(318.202812 23.690625)scale(0.1 -0.1)">
      <use xlink:href="#IPAexGothic-21476"/>
      <use x="100" xlink:href="#IPAexGothic-30033"/>
     </g>
    </g>
    <g id="LineCollection_7">
     <path d="M 300.202812 39.58125 
L 300.202812 29.58125 
" style="fill:none;stroke:#ff7f0e;stroke-width:1.5;"/>
    </g>
    <g id="line2d_26">
     <g>
      <use style="fill:#ff7f0e;stroke:#ff7f0e;" x="300.202812" xlink:href="#m68ead321e0" y="39.58125"/>
     </g>
    </g>
    <g id="line2d_27">
     <g>
      <use style="fill:#ff7f0e;stroke:#ff7f0e;" x="300.202812" xlink:href="#m68ead321e0" y="29.58125"/>
     </g>
    </g>
    <g id="line2d_28"/>
    <g id="line2d_29">
     <g>
      <use style="fill:#ff7f0e;stroke:#ff7f0e;" x="300.202812" xlink:href="#ma3b74d440f" y="34.58125"/>
     </g>
    </g>
    <g id="text_12">
     <!-- 高校生 -->
     <defs>
      <path d="M 70.015625 24.8125 
L 70.015625 5.71875 
L 36.234375 5.71875 
L 36.234375 0 
L 29.546875 0 
L 29.546875 24.8125 
z
M 63.328125 19.484375 
L 36.234375 19.484375 
L 36.234375 11.03125 
L 63.328125 11.03125 
z
M 53.421875 72.515625 
L 92.4375 72.515625 
L 92.4375 66.609375 
L 7.515625 66.609375 
L 7.515625 72.515625 
L 45.90625 72.515625 
L 45.90625 83.015625 
L 53.421875 83.015625 
z
M 76.3125 60.59375 
L 76.3125 42.09375 
L 23.640625 42.09375 
L 23.640625 60.59375 
z
M 30.609375 55.171875 
L 30.609375 47.515625 
L 69.34375 47.515625 
L 69.34375 55.171875 
z
M 88.8125 36.078125 
L 88.8125 1.609375 
Q 88.8125 -5.90625 79.546875 -5.90625 
Q 73.390625 -5.90625 67.4375 -5.515625 
L 66.453125 1.703125 
Q 73.53125 0.6875 78.21875 0.6875 
Q 81.734375 0.6875 81.734375 3.90625 
L 81.734375 30.375 
L 18.21875 30.375 
L 18.21875 -6.984375 
L 11.140625 -6.984375 
L 11.140625 36.078125 
z
" id="IPAexGothic-39640"/>
      <path d="M 62.5 15.375 
Q 55.671875 23.78125 51.21875 36.375 
L 56.6875 39.5 
Q 60.796875 27.734375 66.609375 20.703125 
Q 72.265625 29.59375 74.8125 41.890625 
L 81.109375 39.3125 
Q 78.265625 26.703125 71.1875 15.921875 
Q 80.90625 6.9375 95.3125 1.125 
L 90.625 -5.71875 
Q 77.046875 1.125 67.1875 10.6875 
Q 56.0625 -1.21875 41.796875 -7.171875 
L 37.40625 -1.3125 
Q 51.953125 3.953125 62.5 15.375 
z
M 20.125 41.21875 
Q 14.890625 23.78125 7.8125 12.3125 
L 3.609375 19.53125 
Q 14.109375 34.46875 19.1875 55.421875 
L 5.71875 55.421875 
L 5.71875 61.71875 
L 20.125 61.71875 
L 20.125 82.8125 
L 26.90625 82.8125 
L 26.90625 61.71875 
L 39.203125 61.71875 
L 39.203125 55.421875 
L 26.90625 55.421875 
L 26.90625 43.890625 
Q 34.46875 37.3125 40.828125 29.640625 
L 36.921875 22.515625 
Q 32.375 29.6875 26.90625 36.234375 
L 26.90625 -6.984375 
L 20.125 -6.984375 
z
M 69.828125 66.5 
L 94.140625 66.5 
L 94.140625 60.203125 
L 39.65625 60.203125 
L 39.65625 66.5 
L 62.75 66.5 
L 62.75 82.90625 
L 69.828125 82.90625 
z
M 89.015625 32.8125 
Q 81.109375 44.484375 70.796875 54.78125 
L 76.125 58.109375 
Q 86.375 48.78125 94.484375 37.796875 
z
M 39.3125 36.71875 
Q 48.96875 44.390625 54.203125 57.421875 
L 60.40625 54.890625 
Q 54.890625 41.9375 43.609375 31.109375 
z
" id="IPAexGothic-26657"/>
      <path d="M 27.203125 59.71875 
L 47.21875 59.71875 
L 47.21875 82.03125 
L 54.828125 82.03125 
L 54.828125 59.71875 
L 87.9375 59.71875 
L 87.9375 53.21875 
L 54.828125 53.21875 
L 54.828125 33.203125 
L 83.84375 33.203125 
L 83.84375 26.703125 
L 54.828125 26.703125 
L 54.828125 3.90625 
L 93.40625 3.90625 
L 93.40625 -2.59375 
L 8.015625 -2.59375 
L 8.015625 3.90625 
L 47.21875 3.90625 
L 47.21875 26.703125 
L 19.734375 26.703125 
L 19.734375 33.203125 
L 47.21875 33.203125 
L 47.21875 53.21875 
L 24.421875 53.21875 
Q 19.78125 43.953125 13.625 36.71875 
L 8.015625 42 
Q 19.34375 54.984375 24.3125 75.53125 
L 31.59375 73.734375 
Q 29.59375 65.875 27.203125 59.71875 
z
" id="IPAexGothic-29983"/>
     </defs>
     <g transform="translate(318.202812 38.08125)scale(0.1 -0.1)">
      <use xlink:href="#IPAexGothic-39640"/>
      <use x="100" xlink:href="#IPAexGothic-26657"/>
      <use x="200" xlink:href="#IPAexGothic-29983"/>
     </g>
    </g>
    <g id="LineCollection_8">
     <path d="M 300.202812 53.971875 
L 300.202812 43.971875 
" style="fill:none;stroke:#2ca02c;stroke-width:1.5;"/>
    </g>
    <g id="line2d_30">
     <g>
      <use style="fill:#2ca02c;stroke:#2ca02c;" x="300.202812" xlink:href="#mab82b3fede" y="53.971875"/>
     </g>
    </g>
    <g id="line2d_31">
     <g>
      <use style="fill:#2ca02c;stroke:#2ca02c;" x="300.202812" xlink:href="#mab82b3fede" y="43.971875"/>
     </g>
    </g>
    <g id="line2d_32"/>
    <g id="line2d_33">
     <g>
      <use style="fill:#2ca02c;stroke:#2ca02c;" x="300.202812" xlink:href="#m5ea2fbe2f3" y="48.971875"/>
     </g>
    </g>
    <g id="text_13">
     <!-- @rocinate__ -->
     <defs>
      <path d="M 74.3125 7.078125 
Q 62.109375 -0.78125 46.4375 -0.78125 
Q 28.421875 -0.78125 17.828125 9.8125 
Q 7.71875 19.921875 7.71875 35.5 
Q 7.71875 51.46875 18.796875 62.75 
Q 29.984375 73.921875 46.390625 73.921875 
Q 62.40625 73.921875 72.515625 63.8125 
Q 81.296875 54.984375 81.296875 41.5 
Q 81.296875 30.125 74.8125 21.96875 
Q 68.609375 14.265625 60.40625 14.265625 
Q 53.5625 14.265625 53.125 22.078125 
Q 46.921875 14.703125 38.921875 14.703125 
Q 33.734375 14.703125 30.125 18.3125 
Q 25.53125 22.90625 25.53125 31.78125 
Q 25.53125 43.796875 32.234375 52 
Q 38.578125 60.015625 46.921875 60.015625 
Q 55.765625 60.015625 58.59375 52.390625 
L 60.40625 57.90625 
L 66.015625 57.90625 
L 59.8125 32.5625 
Q 58.59375 27.640625 58.59375 25.046875 
Q 58.59375 20.359375 61.71875 20.359375 
Q 66.5 20.359375 70.609375 25.984375 
Q 75.09375 32.421875 75.09375 41.453125 
Q 75.09375 52.875 67.78125 60.203125 
Q 59.671875 68.3125 46.578125 68.3125 
Q 33.59375 68.3125 24.421875 59.078125 
Q 14.796875 49.3125 14.796875 35.40625 
Q 14.796875 22.171875 23.09375 13.875 
Q 31.9375 5.171875 47.015625 5.171875 
Q 60.546875 5.171875 72.015625 12.59375 
z
M 47.515625 54.203125 
Q 42.046875 54.203125 38.03125 48.390625 
Q 33.15625 41.40625 33.15625 31.984375 
Q 33.15625 21 40.234375 21 
Q 46.6875 21 51.515625 29.296875 
Q 55.609375 36.421875 55.609375 43.609375 
Q 55.609375 48.390625 53.21875 51.421875 
Q 51.03125 54.203125 47.515625 54.203125 
z
" id="IPAexGothic-64"/>
      <path d="M 36.078125 51.8125 
L 34.578125 43.265625 
Q 32.90625 43.609375 31.59375 43.609375 
Q 25.828125 43.609375 22.078125 38.1875 
Q 17.390625 31.34375 17.390625 26.171875 
L 17.390625 0.984375 
L 8.796875 0.984375 
L 8.796875 50.78125 
L 16.890625 50.78125 
L 16.5 35.984375 
L 16.703125 35.984375 
Q 22.21875 52.203125 32.765625 52.203125 
Q 34.46875 52.203125 36.078125 51.8125 
z
" id="IPAexGothic-114"/>
      <path d="M 29.984375 52.203125 
Q 40.53125 52.203125 47.75 45.125 
Q 55.171875 37.703125 55.171875 25.59375 
Q 55.171875 13.875 47.90625 6.59375 
Q 40.765625 -0.484375 29.984375 -0.484375 
Q 19.1875 -0.484375 12.203125 6.5 
Q 4.890625 13.765625 4.890625 25.875 
Q 4.890625 37.703125 12.3125 45.125 
Q 19.390625 52.203125 29.984375 52.203125 
z
M 29.984375 45.609375 
Q 23.734375 45.609375 19.390625 41.109375 
Q 13.875 35.59375 13.875 25.78125 
Q 13.875 16.109375 19.28125 10.6875 
Q 23.6875 6.296875 29.984375 6.296875 
Q 36.421875 6.296875 40.765625 10.796875 
Q 46.1875 16.21875 46.1875 26.125 
Q 46.1875 35.453125 40.671875 41.109375 
Q 36.1875 45.609375 29.984375 45.609375 
z
" id="IPAexGothic-111"/>
      <path d="M 51.078125 12.25 
Q 44.28125 -0.484375 29.6875 -0.484375 
Q 19.1875 -0.484375 12.3125 6.390625 
Q 4.890625 13.921875 4.890625 25.984375 
Q 4.890625 37.9375 12.3125 45.515625 
Q 19.09375 52.296875 29.390625 52.296875 
Q 43.953125 52.296875 50.09375 39.703125 
L 43.171875 36.078125 
Q 38.8125 45.3125 29.6875 45.3125 
Q 23.6875 45.3125 19.28125 40.921875 
Q 13.765625 35.40625 13.765625 25.78125 
Q 13.765625 16.703125 19.09375 11.375 
Q 23.78125 6.6875 30.5625 6.6875 
Q 39.796875 6.6875 44.484375 15.875 
z
" id="IPAexGothic-99"/>
      <path d="M 18.40625 61.375 
L 8.59375 61.375 
L 8.59375 71.390625 
L 18.40625 71.390625 
z
M 17.78125 0.984375 
L 9.1875 0.984375 
L 9.1875 50.78125 
L 17.78125 50.78125 
z
" id="IPAexGothic-105"/>
      <path d="M 52 0.984375 
L 43.40625 0.984375 
L 43.40625 31.890625 
Q 43.40625 44.578125 32.90625 44.578125 
Q 22.3125 44.578125 17.390625 31.890625 
L 17.390625 0.984375 
L 8.796875 0.984375 
L 8.796875 50.78125 
L 16.796875 50.78125 
L 16.796875 41.796875 
Q 23.828125 51.8125 34.71875 51.8125 
Q 52 51.8125 52 32.375 
z
" id="IPAexGothic-110"/>
      <path d="M 49.3125 0.984375 
L 41.75 0.984375 
Q 39.984375 4.734375 39.546875 8.6875 
L 39.203125 8.6875 
Q 33.546875 -0.390625 22.3125 -0.390625 
Q 14.59375 -0.390625 9.71875 4.5 
Q 5.421875 8.796875 5.421875 14.984375 
Q 5.421875 30.421875 32.03125 31.203125 
L 38.71875 31.390625 
L 38.71875 33.984375 
Q 38.71875 39.203125 35.75 42.1875 
Q 32.625 45.3125 27.734375 45.3125 
Q 19.34375 45.3125 15.140625 37.15625 
L 7.71875 40.578125 
Q 14.65625 52 27.9375 52 
Q 37.109375 52 42.046875 46.875 
Q 46.625 42.28125 46.625 33.890625 
L 46.625 15.578125 
Q 46.625 6.25 49.3125 0.984375 
z
M 38.921875 25.390625 
L 33.453125 25.296875 
Q 14.109375 24.859375 14.109375 14.890625 
Q 14.109375 11.375 16.40625 9.078125 
Q 19.234375 6.296875 23.828125 6.296875 
Q 30.21875 6.296875 34.90625 10.984375 
Q 38.921875 15.140625 38.921875 21 
z
" id="IPAexGothic-97"/>
      <path d="M 33.203125 3.765625 
Q 27.640625 -0.09375 21.828125 -0.09375 
Q 10.203125 -0.09375 10.203125 12.984375 
L 10.203125 44.671875 
L 3.421875 44.671875 
L 3.421875 50.78125 
L 10.203125 50.78125 
L 10.203125 61.96875 
L 18.40625 66.0625 
L 18.40625 50.78125 
L 32.234375 50.78125 
L 32.234375 44.671875 
L 18.40625 44.671875 
L 18.40625 14.15625 
Q 18.40625 6.5 23.640625 6.5 
Q 27.15625 6.5 30.328125 9.1875 
z
" id="IPAexGothic-116"/>
      <path d="M 13.484375 24.90625 
Q 13.921875 16.265625 18.890625 11.28125 
Q 23.96875 6.203125 31.203125 6.203125 
Q 40.71875 6.203125 46.296875 15.09375 
L 51.90625 11.375 
Q 44.828125 -0.484375 30.171875 -0.484375 
Q 19.09375 -0.484375 11.96875 6.59375 
Q 4.78125 13.8125 4.78125 25.640625 
Q 4.78125 38.1875 12.3125 45.703125 
Q 19 52.390625 29 52.390625 
Q 38.421875 52.390625 44.78125 46.1875 
Q 51.90625 38.96875 51.90625 26.90625 
L 51.90625 24.90625 
z
M 43.0625 31.203125 
Q 42.328125 37.984375 38.28125 41.890625 
Q 34.28125 45.90625 28.8125 45.90625 
Q 22.46875 45.90625 17.96875 40.484375 
Q 14.890625 36.8125 13.96875 31.203125 
z
" id="IPAexGothic-101"/>
      <path d="M 50 -11.71875 
L 0 -11.71875 
L 0 -6.734375 
L 50 -6.734375 
z
" id="IPAexGothic-95"/>
     </defs>
     <g transform="translate(318.202812 52.471875)scale(0.1 -0.1)">
      <use xlink:href="#IPAexGothic-64"/>
      <use x="89.404297" xlink:href="#IPAexGothic-114"/>
      <use x="126.416016" xlink:href="#IPAexGothic-111"/>
      <use x="186.816406" xlink:href="#IPAexGothic-99"/>
      <use x="241.210938" xlink:href="#IPAexGothic-105"/>
      <use x="268.212891" xlink:href="#IPAexGothic-110"/>
      <use x="328.613281" xlink:href="#IPAexGothic-97"/>
      <use x="383.59375" xlink:href="#IPAexGothic-116"/>
      <use x="418.212891" xlink:href="#IPAexGothic-101"/>
      <use x="475.097656" xlink:href="#IPAexGothic-95"/>
      <use x="525.097656" xlink:href="#IPAexGothic-95"/>
     </g>
    </g>
    <g id="LineCollection_9">
     <path d="M 300.202812 68.3625 
L 300.202812 58.3625 
" style="fill:none;stroke:#d62728;stroke-width:1.5;"/>
    </g>
    <g id="line2d_34">
     <g>
      <use style="fill:#d62728;stroke:#d62728;" x="300.202812" xlink:href="#maba6df6439" y="68.3625"/>
     </g>
    </g>
    <g id="line2d_35">
     <g>
      <use style="fill:#d62728;stroke:#d62728;" x="300.202812" xlink:href="#maba6df6439" y="58.3625"/>
     </g>
    </g>
    <g id="line2d_36"/>
    <g id="line2d_37">
     <g>
      <use style="fill:#d62728;stroke:#d62728;" x="300.202812" xlink:href="#m399cdfd0e9" y="63.3625"/>
     </g>
    </g>
    <g id="text_14">
     <!-- @dempacat -->
     <defs>
      <path d="M 52.984375 0.984375 
L 45.171875 0.984375 
L 45.171875 9.671875 
Q 38.140625 -0.484375 27.390625 -0.484375 
Q 18.453125 -0.484375 12.3125 5.8125 
Q 4.890625 13.1875 4.890625 25.984375 
Q 4.890625 38.53125 12.0625 45.90625 
Q 18.265625 52.203125 27.390625 52.203125 
Q 37.25 52.203125 44.484375 43.890625 
L 44.484375 74.90625 
L 52.984375 74.90625 
z
M 44.484375 20.359375 
L 44.484375 32.765625 
Q 44.484375 37.703125 38.375 42.28125 
Q 34.078125 45.40625 28.953125 45.40625 
Q 23.1875 45.40625 19.1875 41.40625 
Q 13.875 36.078125 13.875 26.21875 
Q 13.875 17.328125 18.265625 11.71875 
Q 22.515625 6.390625 28.859375 6.390625 
Q 36.28125 6.390625 41.5 13.671875 
Q 44.484375 17.71875 44.484375 20.359375 
z
" id="IPAexGothic-100"/>
      <path d="M 78.46875 0.984375 
L 69.875 0.984375 
L 69.875 32.171875 
Q 69.875 44.828125 60.109375 44.828125 
Q 55.46875 44.828125 51.609375 40.53125 
Q 48.875 37.453125 47.796875 32.859375 
L 47.796875 0.984375 
L 39.203125 0.984375 
L 39.203125 32.28125 
Q 39.203125 44.828125 29.984375 44.828125 
Q 25.09375 44.828125 21.390625 40.53125 
Q 17.390625 36.03125 17.390625 31.890625 
L 17.390625 0.984375 
L 8.796875 0.984375 
L 8.796875 50.78125 
L 16.796875 50.78125 
L 16.796875 42.1875 
Q 21.734375 51.8125 31.6875 51.8125 
Q 42.578125 51.8125 46.1875 41.359375 
Q 51.609375 51.8125 61.765625 51.8125 
Q 69.96875 51.8125 74.5625 46 
Q 78.46875 41.21875 78.46875 32.375 
z
" id="IPAexGothic-109"/>
      <path d="M 16.796875 42 
Q 23.828125 52.203125 34.46875 52.203125 
Q 43.265625 52.203125 49.5625 45.90625 
Q 56.890625 38.578125 56.890625 25.6875 
Q 56.890625 13.140625 49.65625 5.8125 
Q 43.359375 -0.484375 34.375 -0.484375 
Q 24.515625 -0.484375 17.28125 7.765625 
L 17.28125 -19 
L 8.796875 -19 
L 8.796875 50.78125 
L 16.796875 50.78125 
z
M 17.28125 30.46875 
L 17.28125 20.171875 
Q 17.28125 14.015625 23.6875 9.375 
Q 27.984375 6.296875 32.90625 6.296875 
Q 38.578125 6.296875 42.578125 10.296875 
Q 47.90625 15.578125 47.90625 25.484375 
Q 47.90625 34.375 43.5 39.984375 
Q 39.109375 45.3125 32.8125 45.3125 
Q 25.875 45.3125 20.90625 38.8125 
Q 17.28125 34.125 17.28125 30.46875 
z
" id="IPAexGothic-112"/>
     </defs>
     <g transform="translate(318.202812 66.8625)scale(0.1 -0.1)">
      <use xlink:href="#IPAexGothic-64"/>
      <use x="89.404297" xlink:href="#IPAexGothic-100"/>
      <use x="151.806641" xlink:href="#IPAexGothic-101"/>
      <use x="208.691406" xlink:href="#IPAexGothic-109"/>
      <use x="295.800781" xlink:href="#IPAexGothic-112"/>
      <use x="357.910156" xlink:href="#IPAexGothic-97"/>
      <use x="412.890625" xlink:href="#IPAexGothic-99"/>
      <use x="467.285156" xlink:href="#IPAexGothic-97"/>
      <use x="522.265625" xlink:href="#IPAexGothic-116"/>
     </g>
    </g>
    <g id="LineCollection_10">
     <path d="M 300.202812 82.753125 
L 300.202812 72.753125 
" style="fill:none;stroke:#9467bd;stroke-width:1.5;"/>
    </g>
    <g id="line2d_38">
     <g>
      <use style="fill:#9467bd;stroke:#9467bd;" x="300.202812" xlink:href="#md7d95341fd" y="82.753125"/>
     </g>
    </g>
    <g id="line2d_39">
     <g>
      <use style="fill:#9467bd;stroke:#9467bd;" x="300.202812" xlink:href="#md7d95341fd" y="72.753125"/>
     </g>
    </g>
    <g id="line2d_40"/>
    <g id="line2d_41">
     <g>
      <use style="fill:#9467bd;stroke:#9467bd;" x="300.202812" xlink:href="#md1939e281e" y="77.753125"/>
     </g>
    </g>
    <g id="text_15">
     <!-- @fukada0318 -->
     <defs>
      <path d="M 38.375 72.21875 
L 34.8125 66.3125 
Q 31.109375 69.09375 27.203125 69.09375 
Q 18.5 69.09375 18.5 57.375 
L 18.5 50.78125 
L 32.078125 50.78125 
L 32.078125 44.671875 
L 18.5 44.671875 
L 18.5 0.984375 
L 10.015625 0.984375 
L 10.015625 44.671875 
L 1.90625 44.671875 
L 1.90625 50.78125 
L 10.015625 50.78125 
L 10.015625 57.171875 
Q 10.015625 65.4375 13.921875 70.0625 
Q 18.75 75.6875 26.703125 75.6875 
Q 33.0625 75.6875 38.375 72.21875 
z
" id="IPAexGothic-102"/>
      <path d="M 51.3125 0.984375 
L 43.3125 0.984375 
L 43.3125 10.0625 
Q 35.9375 0 25.390625 0 
Q 16.75 0 11.921875 5.859375 
Q 8.109375 10.59375 8.109375 19.390625 
L 8.109375 50.78125 
L 16.703125 50.78125 
L 16.703125 19.671875 
Q 16.703125 7.28125 27.09375 7.28125 
Q 37.59375 7.28125 42.71875 20.171875 
L 42.71875 50.78125 
L 51.3125 50.78125 
z
" id="IPAexGothic-117"/>
      <path d="M 50.6875 0.984375 
L 40.28125 0.984375 
L 23.1875 25.203125 
L 17.484375 19.671875 
L 17.484375 0.984375 
L 9.078125 0.984375 
L 9.078125 74.90625 
L 17.484375 74.90625 
L 17.484375 27.59375 
L 38.484375 50.78125 
L 49.265625 50.78125 
L 28.5625 30.078125 
z
" id="IPAexGothic-107"/>
      <path d="M 39.703125 37.890625 
Q 57.8125 31.734375 57.8125 18.703125 
Q 57.8125 8.453125 48.4375 3.078125 
Q 41.609375 -0.875 31.5 -0.875 
Q 21.34375 -0.875 14.5 3.078125 
Q 5.421875 8.296875 5.421875 18.40625 
Q 5.421875 31.0625 22.015625 37.203125 
L 22.015625 37.5 
Q 7.515625 42.71875 7.515625 54.828125 
Q 7.515625 64.0625 15.328125 69.625 
Q 21.96875 74.3125 31.546875 74.3125 
Q 42.234375 74.3125 48.921875 68.796875 
Q 55.515625 63.578125 55.515625 55.71875 
Q 55.515625 42.28125 39.703125 38.1875 
z
M 31.59375 41.015625 
Q 46.828125 44.625 46.828125 55.125 
Q 46.828125 61.1875 41.796875 64.84375 
Q 37.703125 67.921875 31.5 67.921875 
Q 25.09375 67.921875 20.796875 64.5 
Q 16.40625 60.890625 16.40625 55.03125 
Q 16.40625 49.21875 21.09375 45.703125 
Q 23.34375 43.890625 26.90625 42.53125 
Q 31 40.875 31.59375 41.015625 
z
M 30.90625 34.515625 
Q 14.40625 30.171875 14.40625 19 
Q 14.40625 12.109375 20.515625 8.6875 
Q 25.09375 6.109375 31.390625 6.109375 
Q 40.234375 6.109375 45.015625 10.890625 
Q 48.53125 14.40625 48.53125 19.53125 
Q 48.53125 24.90625 43.65625 28.90625 
Q 40.765625 31.15625 36.71875 32.8125 
Q 31.984375 34.71875 30.90625 34.515625 
z
" id="IPAexGothic-56"/>
     </defs>
     <g transform="translate(318.202812 81.253125)scale(0.1 -0.1)">
      <use xlink:href="#IPAexGothic-64"/>
      <use x="89.404297" xlink:href="#IPAexGothic-102"/>
      <use x="120.019531" xlink:href="#IPAexGothic-117"/>
      <use x="180.419922" xlink:href="#IPAexGothic-107"/>
      <use x="232.226562" xlink:href="#IPAexGothic-97"/>
      <use x="287.207031" xlink:href="#IPAexGothic-100"/>
      <use x="349.609375" xlink:href="#IPAexGothic-97"/>
      <use x="404.589844" xlink:href="#IPAexGothic-48"/>
      <use x="467.578125" xlink:href="#IPAexGothic-51"/>
      <use x="530.566406" xlink:href="#IPAexGothic-49"/>
      <use x="593.554688" xlink:href="#IPAexGothic-56"/>
     </g>
    </g>
   </g>
  </g>
 </g>
 <defs>
  <clipPath id="p83faa906b9">
   <rect height="266.112" width="357.12" x="35.7375" y="7.2"/>
  </clipPath>
 </defs>
</svg>
