<?xml version="1.0" encoding="utf-8" standalone="no"?>
<!DOCTYPE svg PUBLIC "-//W3C//DTD SVG 1.1//EN"
  "http://www.w3.org/Graphics/SVG/1.1/DTD/svg11.dtd">
<svg xmlns:xlink="http://www.w3.org/1999/xlink" width="414.899688pt" height="312.597005pt" viewBox="0 0 414.899688 312.597005" xmlns="http://www.w3.org/2000/svg" version="1.1">
 <metadata>
  <rdf:RDF xmlns:dc="http://purl.org/dc/elements/1.1/" xmlns:cc="http://creativecommons.org/ns#" xmlns:rdf="http://www.w3.org/1999/02/22-rdf-syntax-ns#">
   <cc:Work>
    <dc:type rdf:resource="http://purl.org/dc/dcmitype/StillImage"/>
    <dc:date>2024-02-07T14:20:55.566807</dc:date>
    <dc:format>image/svg+xml</dc:format>
    <dc:creator>
     <cc:Agent>
      <dc:title>Matplotlib v3.8.2, https://matplotlib.org/</dc:title>
     </cc:Agent>
    </dc:creator>
   </cc:Work>
  </rdf:RDF>
 </metadata>
 <defs>
  <style type="text/css">*{stroke-linejoin: round; stroke-linecap: butt}</style>
 </defs>
 <g id="figure_1">
  <g id="patch_1">
   <path d="M 0 312.597005 
L 414.899688 312.597005 
L 414.899688 0 
L 0 0 
z
" style="fill: #ffffff"/>
  </g>
  <g id="axes_1">
   <g id="patch_2">
    <path d="M 50.579688 274.878255 
L 407.699687 274.878255 
L 407.699687 8.766255 
L 50.579688 8.766255 
z
" style="fill: #ffffff"/>
   </g>
   <g id="matplotlib.axis_1">
    <g id="xtick_1">
     <g id="line2d_1">
      <defs>
       <path id="m25366a7578" d="M 0 0 
L 0 3.5 
" style="stroke: #000000; stroke-width: 0.8"/>
      </defs>
      <g>
       <use xlink:href="#m25366a7578" x="88.947952" y="274.878255" style="stroke: #000000; stroke-width: 0.8"/>
      </g>
     </g>
     <g id="text_1">
      <!-- 1900 -->
      <g transform="translate(75.488577 289.58763) scale(0.1 -0.1)">
       <defs>
        <path id="HiraginoSans-W4-31" d="M 1018 4371 
C 1222 4397 1389 4410 1606 4410 
L 1939 4410 
L 1939 755 
C 1939 454 1926 237 1888 0 
L 2598 0 
C 2560 250 2547 448 2547 755 
L 2547 3904 
C 2547 4256 2566 4582 2605 4966 
C 2387 4941 2278 4934 2035 4934 
L 1581 4934 
C 1325 4934 1197 4941 1018 4966 
L 1018 4371 
z
" transform="scale(0.015625)"/>
        <path id="HiraginoSans-W4-39" d="M 410 934 
C 582 576 698 422 896 262 
C 1178 32 1542 -77 2003 -77 
C 2586 -77 3014 102 3341 486 
C 3712 928 3910 1664 3910 2624 
C 3910 3302 3814 3821 3610 4186 
C 3315 4723 2765 5037 2118 5037 
C 1030 5037 326 4358 326 3315 
C 326 2861 486 2438 768 2157 
C 1050 1875 1472 1722 1958 1722 
C 2426 1722 2765 1843 3085 2125 
C 3213 2240 3270 2310 3366 2483 
C 3354 2189 3334 1958 3315 1818 
C 3270 1517 3168 1216 3046 1011 
C 2816 621 2496 435 2042 435 
C 1702 435 1427 538 1254 723 
C 1158 826 1114 915 1037 1120 
L 410 934 
z
M 2029 2221 
C 1357 2221 928 2662 928 3360 
C 928 3706 1030 3981 1248 4192 
C 1459 4403 1754 4525 2067 4525 
C 2733 4525 3232 4032 3232 3366 
C 3232 2707 2720 2221 2029 2221 
z
" transform="scale(0.015625)"/>
        <path id="HiraginoSans-W4-30" d="M 2144 -90 
C 2758 -90 3232 141 3565 602 
C 3846 998 4019 1696 4019 2464 
C 4019 3002 3936 3501 3770 3949 
C 3693 4160 3558 4371 3379 4550 
C 3078 4858 2650 5024 2157 5024 
C 1498 5024 986 4742 666 4205 
C 435 3834 288 3142 288 2458 
C 288 1939 371 1434 538 986 
C 614 768 749 563 928 384 
C 1242 70 1651 -90 2144 -90 
z
M 2144 4499 
C 2592 4499 2918 4307 3123 3923 
C 3283 3629 3398 3014 3398 2470 
C 3398 2022 3341 1619 3213 1235 
C 3155 1043 3046 870 2912 730 
C 2726 538 2458 435 2150 435 
C 1734 435 1414 614 1197 973 
C 1024 1261 902 1875 902 2451 
C 902 2906 966 3328 1088 3699 
C 1139 3866 1235 4026 1370 4173 
C 1568 4397 1818 4499 2144 4499 
z
" transform="scale(0.015625)"/>
       </defs>
       <use xlink:href="#HiraginoSans-W4-31"/>
       <use xlink:href="#HiraginoSans-W4-39" x="67.299988"/>
       <use xlink:href="#HiraginoSans-W4-30" x="134.599976"/>
       <use xlink:href="#HiraginoSans-W4-30" x="201.899963"/>
      </g>
     </g>
    </g>
    <g id="xtick_2">
     <g id="line2d_2">
      <g>
       <use xlink:href="#m25366a7578" x="138.138035" y="274.878255" style="stroke: #000000; stroke-width: 0.8"/>
      </g>
     </g>
     <g id="text_2">
      <!-- 1920 -->
      <g transform="translate(124.67866 289.58763) scale(0.1 -0.1)">
       <defs>
        <path id="HiraginoSans-W4-32" d="M 3078 0 
C 3424 0 3642 -6 3917 -32 
L 3917 589 
C 3693 557 3430 544 3091 544 
L 1114 544 
C 1280 1114 1606 1478 2451 2042 
C 3181 2528 3341 2656 3546 2912 
C 3738 3142 3846 3443 3846 3744 
C 3846 4525 3200 5030 2202 5030 
C 1613 5030 1158 4858 858 4518 
C 640 4269 531 4026 442 3565 
L 1088 3469 
C 1139 3782 1190 3936 1306 4102 
C 1491 4371 1792 4506 2208 4506 
C 2816 4506 3206 4211 3206 3744 
C 3206 3360 2995 3085 2387 2675 
C 1754 2246 1600 2138 1389 1952 
C 979 1594 710 1229 544 806 
C 448 563 429 461 365 -26 
C 576 -6 678 0 1107 0 
L 3078 0 
z
" transform="scale(0.015625)"/>
       </defs>
       <use xlink:href="#HiraginoSans-W4-31"/>
       <use xlink:href="#HiraginoSans-W4-39" x="67.299988"/>
       <use xlink:href="#HiraginoSans-W4-32" x="134.599976"/>
       <use xlink:href="#HiraginoSans-W4-30" x="201.899963"/>
      </g>
     </g>
    </g>
    <g id="xtick_3">
     <g id="line2d_3">
      <g>
       <use xlink:href="#m25366a7578" x="187.328117" y="274.878255" style="stroke: #000000; stroke-width: 0.8"/>
      </g>
     </g>
     <g id="text_3">
      <!-- 1940 -->
      <g transform="translate(173.858586 289.58763) scale(0.1 -0.1)">
       <defs>
        <path id="HiraginoSans-W4-34" d="M 179 1210 
C 403 1229 589 1235 954 1235 
L 2688 1235 
L 2688 710 
C 2688 410 2675 218 2630 0 
L 3309 0 
C 3270 230 3258 390 3258 704 
L 3258 1235 
L 3494 1235 
C 3763 1235 3910 1222 4154 1190 
L 4154 1798 
C 3917 1766 3750 1754 3494 1754 
L 3258 1754 
L 3258 3853 
C 3258 4358 3264 4544 3296 4934 
L 2701 4934 
C 2560 4704 2445 4550 2214 4269 
L 621 2298 
C 467 2099 326 1939 179 1773 
L 179 1210 
z
M 2688 1747 
L 858 1747 
L 2259 3514 
C 2464 3763 2592 3936 2720 4128 
C 2694 3814 2688 3622 2688 3283 
L 2688 1747 
z
" transform="scale(0.015625)"/>
       </defs>
       <use xlink:href="#HiraginoSans-W4-31"/>
       <use xlink:href="#HiraginoSans-W4-39" x="67.299988"/>
       <use xlink:href="#HiraginoSans-W4-34" x="134.599976"/>
       <use xlink:href="#HiraginoSans-W4-30" x="202.09996"/>
      </g>
     </g>
    </g>
    <g id="xtick_4">
     <g id="line2d_4">
      <g>
       <use xlink:href="#m25366a7578" x="236.5182" y="274.878255" style="stroke: #000000; stroke-width: 0.8"/>
      </g>
     </g>
     <g id="text_4">
      <!-- 1960 -->
      <g transform="translate(223.058825 289.58763) scale(0.1 -0.1)">
       <defs>
        <path id="HiraginoSans-W4-36" d="M 3846 3994 
C 3706 4301 3616 4442 3462 4602 
C 3187 4877 2784 5024 2304 5024 
C 1683 5024 1222 4794 864 4307 
C 557 3891 371 3162 371 2355 
C 371 1446 614 704 1043 320 
C 1331 58 1773 -90 2253 -90 
C 3277 -90 3968 589 3968 1587 
C 3968 2586 3334 3213 2323 3213 
C 1894 3213 1568 3104 1274 2854 
C 1133 2739 1062 2656 941 2458 
C 979 3085 1043 3392 1210 3763 
C 1434 4262 1798 4518 2285 4518 
C 2765 4518 3040 4314 3238 3821 
L 3846 3994 
z
M 2266 2714 
C 2950 2714 3366 2285 3366 1574 
C 3366 1325 3309 1088 3206 922 
C 3008 614 2643 422 2234 422 
C 1568 422 1069 915 1069 1574 
C 1069 2234 1574 2714 2266 2714 
z
" transform="scale(0.015625)"/>
       </defs>
       <use xlink:href="#HiraginoSans-W4-31"/>
       <use xlink:href="#HiraginoSans-W4-39" x="67.299988"/>
       <use xlink:href="#HiraginoSans-W4-36" x="134.599976"/>
       <use xlink:href="#HiraginoSans-W4-30" x="201.899963"/>
      </g>
     </g>
    </g>
    <g id="xtick_5">
     <g id="line2d_5">
      <g>
       <use xlink:href="#m25366a7578" x="285.708283" y="274.878255" style="stroke: #000000; stroke-width: 0.8"/>
      </g>
     </g>
     <g id="text_5">
      <!-- 1980 -->
      <g transform="translate(272.248908 289.58763) scale(0.1 -0.1)">
       <defs>
        <path id="HiraginoSans-W4-38" d="M 1446 2586 
C 1203 2547 1056 2490 851 2355 
C 480 2106 294 1754 294 1299 
C 294 397 966 -102 2163 -102 
C 3347 -102 4006 397 4006 1299 
C 4006 1728 3853 2061 3539 2304 
C 3322 2470 3136 2547 2867 2586 
C 3437 2714 3789 3162 3789 3757 
C 3789 4550 3162 5043 2150 5043 
C 1146 5043 512 4544 512 3750 
C 512 3162 877 2701 1446 2586 
z
M 2150 4538 
C 2784 4538 3187 4211 3187 3699 
C 3187 3155 2797 2829 2157 2829 
C 1510 2829 1114 3162 1114 3699 
C 1114 4211 1523 4538 2150 4538 
z
M 2157 2304 
C 2912 2304 3373 1939 3373 1344 
C 3373 749 2925 410 2144 410 
C 1376 410 928 749 928 1338 
C 928 1939 1389 2304 2157 2304 
z
" transform="scale(0.015625)"/>
       </defs>
       <use xlink:href="#HiraginoSans-W4-31"/>
       <use xlink:href="#HiraginoSans-W4-39" x="67.299988"/>
       <use xlink:href="#HiraginoSans-W4-38" x="134.599976"/>
       <use xlink:href="#HiraginoSans-W4-30" x="201.899963"/>
      </g>
     </g>
    </g>
    <g id="xtick_6">
     <g id="line2d_6">
      <g>
       <use xlink:href="#m25366a7578" x="334.898365" y="274.878255" style="stroke: #000000; stroke-width: 0.8"/>
      </g>
     </g>
     <g id="text_6">
      <!-- 2000 -->
      <g transform="translate(321.43899 289.58763) scale(0.1 -0.1)">
       <use xlink:href="#HiraginoSans-W4-32"/>
       <use xlink:href="#HiraginoSans-W4-30" x="67.299988"/>
       <use xlink:href="#HiraginoSans-W4-30" x="134.599976"/>
       <use xlink:href="#HiraginoSans-W4-30" x="201.899963"/>
      </g>
     </g>
    </g>
    <g id="xtick_7">
     <g id="line2d_7">
      <g>
       <use xlink:href="#m25366a7578" x="384.088448" y="274.878255" style="stroke: #000000; stroke-width: 0.8"/>
      </g>
     </g>
     <g id="text_7">
      <!-- 2020 -->
      <g transform="translate(370.629073 289.58763) scale(0.1 -0.1)">
       <use xlink:href="#HiraginoSans-W4-32"/>
       <use xlink:href="#HiraginoSans-W4-30" x="67.299988"/>
       <use xlink:href="#HiraginoSans-W4-32" x="134.599976"/>
       <use xlink:href="#HiraginoSans-W4-30" x="201.899963"/>
      </g>
     </g>
    </g>
    <g id="text_8">
     <!-- 年 -->
     <g transform="translate(224.139688 303.347005) scale(0.1 -0.1)">
      <defs>
       <path id="HiraginoSans-W4-5e74" d="M 1446 1555 
L 1005 1555 
C 723 1555 531 1568 339 1594 
L 339 1056 
C 544 1082 730 1094 1005 1094 
L 3270 1094 
L 3270 115 
C 3270 -192 3264 -339 3232 -512 
L 3814 -512 
C 3782 -339 3770 -179 3770 109 
L 3770 1094 
L 5344 1094 
C 5613 1094 5811 1082 6010 1056 
L 6010 1594 
C 5818 1568 5632 1555 5344 1555 
L 3770 1555 
L 3770 2746 
L 4902 2746 
C 5158 2746 5318 2739 5485 2720 
L 5485 3219 
C 5312 3194 5165 3187 4890 3187 
L 3770 3187 
L 3770 4173 
L 5178 4173 
C 5453 4173 5594 4166 5773 4141 
L 5773 4646 
C 5606 4621 5459 4614 5178 4614 
L 2061 4614 
C 2093 4685 2093 4685 2144 4800 
C 2246 5024 2246 5024 2285 5101 
C 2323 5184 2336 5210 2368 5280 
L 1830 5414 
C 1798 5280 1754 5139 1670 4947 
C 1376 4256 1037 3802 397 3258 
C 557 3142 627 3066 749 2874 
C 1184 3258 1472 3616 1811 4173 
L 3270 4173 
L 3270 3187 
L 1882 3187 
C 1702 3187 1562 3194 1427 3206 
C 1440 3085 1446 2970 1446 2829 
L 1446 1555 
z
M 1939 1555 
L 1939 2746 
L 3270 2746 
L 3270 1555 
L 1939 1555 
z
" transform="scale(0.015625)"/>
      </defs>
      <use xlink:href="#HiraginoSans-W4-5e74"/>
     </g>
    </g>
   </g>
   <g id="matplotlib.axis_2">
    <g id="ytick_1">
     <g id="line2d_8">
      <defs>
       <path id="m018a220f4d" d="M 0 0 
L -3.5 0 
" style="stroke: #000000; stroke-width: 0.8"/>
      </defs>
      <g>
       <use xlink:href="#m018a220f4d" x="50.579688" y="272.589823" style="stroke: #000000; stroke-width: 0.8"/>
      </g>
     </g>
     <g id="text_9">
      <!-- −1.0 -->
      <g transform="translate(20.979688 276.44451) scale(0.1 -0.1)">
       <defs>
        <path id="HiraginoSans-W4-2212" d="M 320 1498 
L 3930 1498 
L 3930 2022 
L 320 2022 
L 320 1498 
z
" transform="scale(0.015625)"/>
        <path id="HiraginoSans-W4-2e" d="M 442 723 
L 442 0 
L 1165 0 
L 1165 723 
L 442 723 
z
" transform="scale(0.015625)"/>
       </defs>
       <use xlink:href="#HiraginoSans-W4-2212"/>
       <use xlink:href="#HiraginoSans-W4-31" x="66.399994"/>
       <use xlink:href="#HiraginoSans-W4-2e" x="133.699982"/>
       <use xlink:href="#HiraginoSans-W4-30" x="158.699966"/>
      </g>
     </g>
    </g>
    <g id="ytick_2">
     <g id="line2d_9">
      <g>
       <use xlink:href="#m018a220f4d" x="50.579688" y="239.897931" style="stroke: #000000; stroke-width: 0.8"/>
      </g>
     </g>
     <g id="text_10">
      <!-- −0.8 -->
      <g transform="translate(20.979688 243.752618) scale(0.1 -0.1)">
       <use xlink:href="#HiraginoSans-W4-2212"/>
       <use xlink:href="#HiraginoSans-W4-30" x="66.399994"/>
       <use xlink:href="#HiraginoSans-W4-2e" x="133.699982"/>
       <use xlink:href="#HiraginoSans-W4-38" x="158.699966"/>
      </g>
     </g>
    </g>
    <g id="ytick_3">
     <g id="line2d_10">
      <g>
       <use xlink:href="#m018a220f4d" x="50.579688" y="207.206039" style="stroke: #000000; stroke-width: 0.8"/>
      </g>
     </g>
     <g id="text_11">
      <!-- −0.6 -->
      <g transform="translate(20.979688 211.060726) scale(0.1 -0.1)">
       <use xlink:href="#HiraginoSans-W4-2212"/>
       <use xlink:href="#HiraginoSans-W4-30" x="66.399994"/>
       <use xlink:href="#HiraginoSans-W4-2e" x="133.699982"/>
       <use xlink:href="#HiraginoSans-W4-36" x="158.699966"/>
      </g>
     </g>
    </g>
    <g id="ytick_4">
     <g id="line2d_11">
      <g>
       <use xlink:href="#m018a220f4d" x="50.579688" y="174.514147" style="stroke: #000000; stroke-width: 0.8"/>
      </g>
     </g>
     <g id="text_12">
      <!-- −0.4 -->
      <g transform="translate(20.959375 178.368834) scale(0.1 -0.1)">
       <use xlink:href="#HiraginoSans-W4-2212"/>
       <use xlink:href="#HiraginoSans-W4-30" x="66.399994"/>
       <use xlink:href="#HiraginoSans-W4-2e" x="133.699982"/>
       <use xlink:href="#HiraginoSans-W4-34" x="158.699966"/>
      </g>
     </g>
    </g>
    <g id="ytick_5">
     <g id="line2d_12">
      <g>
       <use xlink:href="#m018a220f4d" x="50.579688" y="141.822255" style="stroke: #000000; stroke-width: 0.8"/>
      </g>
     </g>
     <g id="text_13">
      <!-- −0.2 -->
      <g transform="translate(20.979688 145.676943) scale(0.1 -0.1)">
       <use xlink:href="#HiraginoSans-W4-2212"/>
       <use xlink:href="#HiraginoSans-W4-30" x="66.399994"/>
       <use xlink:href="#HiraginoSans-W4-2e" x="133.699982"/>
       <use xlink:href="#HiraginoSans-W4-32" x="158.699966"/>
      </g>
     </g>
    </g>
    <g id="ytick_6">
     <g id="line2d_13">
      <g>
       <use xlink:href="#m018a220f4d" x="50.579688" y="109.130363" style="stroke: #000000; stroke-width: 0.8"/>
      </g>
     </g>
     <g id="text_14">
      <!-- 0.0 -->
      <g transform="translate(27.620313 112.985051) scale(0.1 -0.1)">
       <use xlink:href="#HiraginoSans-W4-30"/>
       <use xlink:href="#HiraginoSans-W4-2e" x="67.299988"/>
       <use xlink:href="#HiraginoSans-W4-30" x="92.299973"/>
      </g>
     </g>
    </g>
    <g id="ytick_7">
     <g id="line2d_14">
      <g>
       <use xlink:href="#m018a220f4d" x="50.579688" y="76.438471" style="stroke: #000000; stroke-width: 0.8"/>
      </g>
     </g>
     <g id="text_15">
      <!-- 0.2 -->
      <g transform="translate(27.620313 80.293159) scale(0.1 -0.1)">
       <use xlink:href="#HiraginoSans-W4-30"/>
       <use xlink:href="#HiraginoSans-W4-2e" x="67.299988"/>
       <use xlink:href="#HiraginoSans-W4-32" x="92.299973"/>
      </g>
     </g>
    </g>
    <g id="ytick_8">
     <g id="line2d_15">
      <g>
       <use xlink:href="#m018a220f4d" x="50.579688" y="43.746579" style="stroke: #000000; stroke-width: 0.8"/>
      </g>
     </g>
     <g id="text_16">
      <!-- 0.4 -->
      <g transform="translate(27.6 47.601267) scale(0.1 -0.1)">
       <use xlink:href="#HiraginoSans-W4-30"/>
       <use xlink:href="#HiraginoSans-W4-2e" x="67.299988"/>
       <use xlink:href="#HiraginoSans-W4-34" x="92.299973"/>
      </g>
     </g>
    </g>
    <g id="ytick_9">
     <g id="line2d_16">
      <g>
       <use xlink:href="#m018a220f4d" x="50.579688" y="11.054687" style="stroke: #000000; stroke-width: 0.8"/>
      </g>
     </g>
     <g id="text_17">
      <!-- 0.6 -->
      <g transform="translate(27.620313 14.909375) scale(0.1 -0.1)">
       <use xlink:href="#HiraginoSans-W4-30"/>
       <use xlink:href="#HiraginoSans-W4-2e" x="67.299988"/>
       <use xlink:href="#HiraginoSans-W4-36" x="92.299973"/>
      </g>
     </g>
    </g>
    <g id="text_18">
     <!-- 年平均気温偏差 -->
     <g transform="translate(14.909375 176.822255) rotate(-90) scale(0.1 -0.1)">
      <defs>
       <path id="HiraginoSans-W4-5e73" d="M 2918 4653 
L 2918 2342 
L 1056 2342 
C 717 2342 525 2355 333 2387 
L 333 1830 
C 525 1862 749 1875 1069 1875 
L 2918 1875 
L 2918 198 
C 2918 -58 2906 -294 2874 -531 
L 3475 -531 
C 3443 -288 3430 -38 3430 198 
L 3430 1875 
L 5350 1875 
C 5683 1875 5907 1862 6080 1830 
L 6080 2387 
C 5901 2355 5690 2342 5370 2342 
L 3430 2342 
L 3430 4653 
L 5114 4653 
C 5408 4653 5606 4640 5818 4614 
L 5818 5152 
C 5626 5126 5421 5114 5107 5114 
L 1331 5114 
C 1011 5114 806 5126 614 5152 
L 614 4614 
C 826 4640 1030 4653 1318 4653 
L 2918 4653 
z
M 992 4179 
C 1331 3654 1523 3277 1766 2598 
L 2246 2842 
C 1984 3462 1786 3840 1427 4390 
L 992 4179 
z
M 4941 4384 
C 4685 3674 4486 3309 4058 2765 
L 4506 2534 
C 4928 3117 5133 3482 5408 4166 
L 4941 4384 
z
" transform="scale(0.015625)"/>
       <path id="HiraginoSans-W4-5747" d="M 1139 3603 
L 883 3603 
C 621 3603 493 3610 333 3642 
L 333 3123 
C 486 3155 621 3162 883 3162 
L 1139 3162 
L 1139 1133 
C 768 992 435 883 282 864 
L 416 352 
C 518 397 704 474 909 550 
C 1542 800 1824 928 2381 1222 
L 2362 1709 
C 2022 1517 1901 1459 1619 1331 
L 1619 3162 
L 1722 3162 
C 1920 3162 1997 3162 2144 3149 
L 2067 3072 
C 2227 2976 2266 2938 2438 2720 
C 2816 3123 3059 3462 3290 3904 
L 5414 3904 
C 5414 3744 5421 3616 5421 3533 
C 5421 2406 5344 1286 5222 646 
C 5133 192 5056 96 4755 96 
C 4570 96 4192 141 3872 192 
C 3962 -26 3994 -141 4006 -333 
C 4365 -365 4563 -378 4730 -378 
C 5344 -378 5504 -256 5645 320 
C 5811 992 5901 2266 5901 3872 
C 5901 4141 5907 4256 5926 4390 
C 5811 4378 5811 4378 5350 4365 
L 3501 4365 
C 3590 4582 3674 4806 3738 5005 
C 3776 5126 3789 5158 3814 5222 
L 3283 5350 
C 3232 5043 3155 4787 3008 4416 
C 2803 3936 2586 3597 2221 3219 
L 2221 3635 
C 2099 3610 1984 3603 1734 3603 
L 1619 3603 
L 1619 4627 
C 1619 4915 1626 5050 1658 5254 
L 1101 5254 
C 1126 5050 1139 4890 1139 4614 
L 1139 3603 
z
M 4909 2099 
C 4275 1696 3699 1414 2989 1158 
C 2848 1107 2739 1075 2618 1056 
L 2810 525 
C 2867 563 2918 582 2989 614 
C 3955 1037 4358 1235 5005 1626 
L 4909 2099 
z
M 2957 2502 
C 3110 2534 3251 2541 3507 2541 
L 4301 2541 
C 4525 2541 4685 2534 4813 2515 
L 4813 3021 
C 4678 2995 4538 2982 4294 2982 
L 3507 2982 
C 3245 2982 3123 2989 2957 3021 
L 2957 2502 
z
" transform="scale(0.015625)"/>
       <path id="HiraginoSans-W4-6c17" d="M 4979 4365 
C 5382 4365 5645 4352 5779 4320 
L 5779 4851 
C 5562 4819 5344 4806 4979 4806 
L 1869 4806 
C 1939 4934 1971 5005 2035 5133 
C 2093 5254 2106 5274 2144 5350 
L 1613 5453 
C 1594 5331 1562 5229 1485 5069 
C 1190 4448 826 3974 275 3501 
C 467 3379 570 3283 627 3162 
C 1043 3546 1318 3872 1619 4365 
L 4979 4365 
z
M 4339 154 
C 3910 544 3629 781 3110 1171 
C 3328 1408 3456 1562 3629 1798 
C 3782 2010 3782 2010 3885 2138 
L 3392 2400 
C 3309 2150 3085 1824 2733 1453 
C 2259 1779 2029 1926 1530 2214 
L 1197 1907 
C 1760 1574 2022 1408 2400 1126 
C 1875 666 1382 378 467 6 
C 653 -154 717 -230 826 -422 
C 1760 32 2214 326 2778 845 
C 3354 390 3597 166 3987 -243 
L 4339 154 
z
M 4589 2528 
C 4602 1510 4672 928 4845 442 
C 5024 -64 5338 -429 5600 -429 
C 5914 -429 6093 -26 6195 890 
C 6035 960 5933 1037 5786 1184 
C 5754 646 5651 154 5574 154 
C 5504 154 5370 384 5280 640 
C 5139 1069 5062 1683 5062 2432 
C 5062 2650 5069 2797 5088 2989 
C 4902 2970 4755 2963 4358 2963 
L 1242 2963 
C 979 2963 813 2976 659 2995 
L 659 2490 
C 851 2515 1037 2528 1338 2528 
L 4589 2528 
z
M 1466 3424 
C 1626 3450 1798 3456 2067 3456 
L 4614 3456 
C 4915 3456 5088 3450 5254 3424 
L 5254 3917 
C 5120 3898 4928 3885 4614 3885 
L 1997 3885 
C 1754 3885 1568 3891 1466 3910 
L 1466 3424 
z
" transform="scale(0.015625)"/>
       <path id="HiraginoSans-W4-6e29" d="M 563 4934 
C 992 4646 1267 4416 1606 4051 
L 1920 4442 
C 1536 4806 1306 4992 870 5286 
L 563 4934 
z
M 282 3360 
C 717 3091 966 2899 1370 2502 
L 1670 2918 
C 1274 3258 954 3494 557 3731 
L 282 3360 
z
M 1318 1933 
C 1005 1018 653 346 314 -13 
L 755 -397 
C 800 -314 826 -262 883 -166 
C 1229 429 1414 832 1722 1651 
L 1318 1933 
z
M 4877 2765 
C 5126 2765 5312 2758 5472 2746 
C 5453 2957 5446 3085 5446 3283 
L 5446 4595 
C 5446 4806 5453 4922 5472 5133 
C 5325 5114 5158 5107 4845 5107 
L 2880 5107 
C 2579 5107 2419 5114 2259 5133 
C 2272 4966 2278 4794 2278 4589 
L 2278 3302 
C 2278 3085 2272 2912 2259 2746 
C 2438 2758 2624 2765 2854 2765 
L 4877 2765 
z
M 2739 4691 
L 4986 4691 
L 4986 4147 
L 2739 4147 
L 2739 4691 
z
M 2739 3738 
L 4986 3738 
L 4986 3162 
L 2739 3162 
L 2739 3738 
z
M 5715 230 
L 5715 1773 
C 5715 1952 5722 2022 5741 2240 
C 5568 2227 5466 2221 5152 2221 
L 2605 2221 
C 2317 2221 2195 2227 2029 2240 
C 2042 2080 2048 1946 2048 1747 
L 2048 230 
L 1882 230 
C 1728 230 1619 237 1472 256 
L 1472 -243 
C 1670 -218 1894 -205 2118 -205 
L 5549 -205 
C 5786 -205 6086 -224 6214 -243 
L 6214 262 
C 6080 237 5997 230 5824 230 
L 5715 230 
z
M 2490 1811 
L 3123 1811 
L 3123 230 
L 2490 230 
L 2490 1811 
z
M 3552 1811 
L 4186 1811 
L 4186 230 
L 3552 230 
L 3552 1811 
z
M 4614 1811 
L 5267 1811 
L 5267 230 
L 4614 230 
L 4614 1811 
z
" transform="scale(0.015625)"/>
       <path id="HiraginoSans-W4-504f" d="M 3507 883 
L 3507 320 
C 3507 -13 3501 -179 3475 -326 
L 3930 -326 
C 3910 -179 3904 -13 3904 320 
L 3904 883 
L 4454 883 
L 4454 326 
C 4454 0 4448 -154 4422 -320 
L 4877 -320 
C 4858 -160 4851 0 4851 326 
L 4851 883 
L 5510 883 
L 5510 179 
C 5510 38 5491 13 5382 13 
C 5267 13 5165 26 4973 51 
C 5030 -102 5043 -186 5056 -371 
C 5248 -384 5318 -384 5408 -384 
C 5798 -384 5920 -269 5920 90 
L 5920 1754 
C 5920 2048 5926 2163 5952 2381 
C 5786 2355 5760 2355 5318 2355 
L 3110 2355 
C 2752 2355 2630 2362 2509 2374 
C 2528 2592 2541 2739 2547 2803 
L 5184 2803 
C 5357 2803 5504 2797 5702 2784 
C 5690 2950 5683 3078 5683 3283 
L 5683 3680 
C 5683 3898 5690 4000 5702 4192 
C 5536 4173 5363 4166 5094 4166 
L 2733 4166 
C 2451 4166 2317 4173 2067 4198 
C 2086 3955 2093 3814 2093 3469 
C 2093 1901 1901 1069 1382 352 
C 1536 250 1606 186 1766 0 
C 2074 474 2272 998 2413 1709 
C 2464 1984 2483 2112 2496 2246 
C 2502 2112 2509 1952 2509 1734 
L 2509 154 
C 2509 -90 2496 -294 2477 -467 
L 2957 -467 
C 2931 -326 2918 -141 2918 154 
L 2918 883 
L 3507 883 
z
M 3507 1274 
L 2918 1274 
L 2918 1958 
L 3507 1958 
L 3507 1274 
z
M 3904 1274 
L 3904 1958 
L 4454 1958 
L 4454 1274 
L 3904 1274 
z
M 4851 1274 
L 4851 1958 
L 5510 1958 
L 5510 1274 
L 4851 1274 
z
M 2560 3757 
L 5229 3757 
L 5229 3213 
L 2554 3213 
C 2560 3290 2560 3315 2560 3507 
L 2560 3757 
z
M 883 250 
C 883 -64 870 -275 845 -512 
L 1382 -512 
C 1363 -288 1350 -58 1350 237 
L 1350 3808 
C 1555 4275 1664 4576 1773 4934 
C 1805 5050 1837 5152 1875 5235 
L 1382 5402 
C 1312 4947 1165 4499 934 3974 
C 698 3450 448 3059 109 2662 
C 262 2483 282 2445 378 2208 
C 653 2573 768 2758 902 3053 
C 890 2778 883 2662 883 2330 
L 883 250 
z
M 1958 4557 
C 2112 4582 2285 4589 2579 4589 
L 5376 4589 
C 5690 4589 5894 4582 6048 4557 
L 6048 5062 
C 5888 5037 5670 5024 5363 5024 
L 2630 5024 
C 2285 5024 2106 5037 1958 5062 
L 1958 4557 
z
" transform="scale(0.015625)"/>
       <path id="HiraginoSans-W4-5dee" d="M 2931 4154 
L 2931 3622 
L 1517 3622 
C 1254 3622 1126 3629 954 3654 
L 954 3187 
C 1126 3213 1267 3219 1517 3219 
L 2931 3219 
L 2931 2669 
L 1050 2669 
C 749 2669 576 2675 397 2701 
L 397 2221 
C 595 2246 787 2259 1050 2259 
L 1773 2259 
C 1638 1754 1472 1370 1254 1056 
C 954 627 685 358 237 45 
C 403 -109 461 -186 570 -378 
C 1062 32 1350 352 1658 832 
C 1933 1254 2093 1638 2278 2259 
L 5382 2259 
C 5664 2259 5862 2246 6035 2221 
L 6035 2701 
C 5869 2675 5696 2669 5382 2669 
L 3392 2669 
L 3392 3219 
L 4941 3219 
C 5190 3219 5325 3213 5498 3187 
L 5498 3654 
C 5325 3629 5197 3622 4941 3622 
L 3392 3622 
L 3392 4154 
L 5133 4154 
C 5408 4154 5606 4141 5786 4115 
L 5786 4608 
C 5606 4582 5421 4570 5133 4570 
L 4211 4570 
C 4390 4768 4538 4960 4723 5254 
L 4224 5402 
C 4045 5030 3942 4864 3693 4570 
L 2701 4570 
C 2522 4890 2342 5146 2125 5395 
L 1658 5235 
C 1888 5005 2022 4826 2176 4570 
L 1299 4570 
C 1030 4570 826 4582 653 4608 
L 653 4115 
C 851 4141 1030 4154 1299 4154 
L 2931 4154 
z
M 3437 1203 
L 3437 160 
L 2048 160 
C 1779 160 1626 166 1440 198 
L 1440 -301 
C 1638 -275 1837 -262 2125 -262 
L 5312 -262 
C 5594 -262 5805 -275 5990 -301 
L 5990 198 
C 5798 173 5613 160 5331 160 
L 3923 160 
L 3923 1203 
L 5005 1203 
C 5248 1203 5427 1197 5581 1171 
L 5581 1651 
C 5414 1626 5274 1619 5005 1619 
L 2650 1619 
C 2400 1619 2272 1626 2118 1645 
L 2118 1178 
C 2266 1197 2419 1203 2650 1203 
L 3437 1203 
z
" transform="scale(0.015625)"/>
      </defs>
      <use xlink:href="#HiraginoSans-W4-5e74"/>
      <use xlink:href="#HiraginoSans-W4-5e73" x="99.999985"/>
      <use xlink:href="#HiraginoSans-W4-5747" x="199.999969"/>
      <use xlink:href="#HiraginoSans-W4-6c17" x="299.999954"/>
      <use xlink:href="#HiraginoSans-W4-6e29" x="399.999939"/>
      <use xlink:href="#HiraginoSans-W4-504f" x="499.999924"/>
      <use xlink:href="#HiraginoSans-W4-5dee" x="599.999908"/>
     </g>
    </g>
   </g>
   <g id="line2d_17">
    <path d="M 66.812415 236.628742 
L 69.271919 254.609282 
L 71.731423 262.782255 
L 74.190927 249.705498 
L 76.650431 243.16712 
L 79.109935 208.840633 
L 81.56944 210.475228 
L 84.028944 238.263336 
L 86.488448 223.551985 
L 88.947952 210.475228 
L 91.407456 223.551985 
L 93.86696 244.801715 
L 96.326464 254.609282 
L 98.785968 262.782255 
L 101.245473 243.16712 
L 103.704977 230.090363 
L 106.164481 257.878471 
L 108.623985 262.782255 
L 111.083489 262.782255 
L 113.542993 259.513066 
L 116.002497 261.14766 
L 118.462002 249.705498 
L 120.921506 244.801715 
L 123.38101 217.013606 
L 125.840514 208.840633 
L 128.300018 248.070904 
L 130.759522 257.878471 
L 133.219026 236.628742 
L 135.67853 228.455769 
L 138.138035 221.91739 
L 140.597539 210.475228 
L 143.057043 225.186579 
L 145.516547 223.551985 
L 147.976051 225.186579 
L 150.435555 212.109823 
L 152.895059 192.494687 
L 155.354564 210.475228 
L 157.814068 215.379012 
L 160.273572 231.724958 
L 162.733076 200.66766 
L 165.19258 189.225498 
L 167.652084 200.66766 
L 170.111588 217.013606 
L 172.571092 199.033066 
L 175.030597 205.571444 
L 177.490101 195.763877 
L 179.949605 181.052525 
L 182.409109 181.052525 
L 184.868613 194.129282 
L 187.328117 199.033066 
L 189.787621 182.68712 
L 192.247126 187.590904 
L 194.70663 189.225498 
L 197.166134 167.975769 
L 199.625638 189.225498 
L 202.085142 203.93685 
L 204.544646 203.93685 
L 207.00415 192.494687 
L 209.463654 192.494687 
L 211.923159 212.109823 
L 214.382663 190.860093 
L 216.842167 187.590904 
L 219.301671 176.148742 
L 221.761175 213.744417 
L 224.220679 218.648201 
L 226.680183 233.359552 
L 229.139688 189.225498 
L 231.599192 181.052525 
L 234.058696 190.860093 
L 236.5182 202.302255 
L 238.977704 189.225498 
L 241.437208 189.225498 
L 243.896712 182.68712 
L 246.356216 223.551985 
L 248.815721 212.109823 
L 251.275225 199.033066 
L 253.734729 199.033066 
L 256.194233 207.206039 
L 258.653737 187.590904 
L 261.113241 195.763877 
L 263.572745 217.013606 
L 266.032249 197.398471 
L 268.491754 176.148742 
L 270.951258 220.282796 
L 273.410762 212.109823 
L 275.870266 230.090363 
L 278.32977 182.68712 
L 280.789274 194.129282 
L 283.248778 172.879552 
L 285.708283 171.244958 
L 288.167787 164.706579 
L 290.627291 185.956309 
L 293.086795 159.802796 
L 295.546299 192.494687 
L 298.005803 192.494687 
L 300.465307 177.783336 
L 302.924811 153.264417 
L 305.384316 154.899012 
L 307.84382 166.341174 
L 310.303324 140.18766 
L 312.762828 148.360633 
L 315.222332 172.879552 
L 317.681836 166.341174 
L 320.14134 153.264417 
L 322.600845 133.649282 
L 325.060349 154.899012 
L 327.519853 123.841715 
L 329.979357 99.322796 
L 332.438861 136.918471 
L 334.898365 140.18766 
L 337.357869 117.303336 
L 339.817373 109.130363 
L 342.276878 107.495769 
L 344.736382 117.303336 
L 347.195886 99.322796 
L 349.65539 105.861174 
L 352.114894 109.130363 
L 354.574398 122.20712 
L 357.033902 104.226579 
L 359.493407 91.149823 
L 361.952911 117.303336 
L 369.331423 87.880633 
L 371.790927 60.092525 
L 374.250431 51.919552 
L 376.709935 66.630904 
L 379.16944 82.97685 
L 381.628944 58.457931 
L 384.088448 53.554147 
L 386.547952 73.169282 
L 389.007456 69.900093 
L 391.46696 20.862255 
L 391.46696 20.862255 
" clip-path="url(#p4ab85f74d7)" style="fill: none; stroke: #1f77b4; stroke-width: 1.5; stroke-linecap: square"/>
    <defs>
     <path id="m1ae4613daa" d="M 0 3 
C 0.795609 3 1.55874 2.683901 2.12132 2.12132 
C 2.683901 1.55874 3 0.795609 3 0 
C 3 -0.795609 2.683901 -1.55874 2.12132 -2.12132 
C 1.55874 -2.683901 0.795609 -3 0 -3 
C -0.795609 -3 -1.55874 -2.683901 -2.12132 -2.12132 
C -2.683901 -1.55874 -3 -0.795609 -3 0 
C -3 0.795609 -2.683901 1.55874 -2.12132 2.12132 
C -1.55874 2.683901 -0.795609 3 0 3 
z
" style="stroke: #1f77b4"/>
    </defs>
    <g clip-path="url(#p4ab85f74d7)">
     <use xlink:href="#m1ae4613daa" x="66.812415" y="236.628742" style="fill: #1f77b4; stroke: #1f77b4"/>
     <use xlink:href="#m1ae4613daa" x="69.271919" y="254.609282" style="fill: #1f77b4; stroke: #1f77b4"/>
     <use xlink:href="#m1ae4613daa" x="71.731423" y="262.782255" style="fill: #1f77b4; stroke: #1f77b4"/>
     <use xlink:href="#m1ae4613daa" x="74.190927" y="249.705498" style="fill: #1f77b4; stroke: #1f77b4"/>
     <use xlink:href="#m1ae4613daa" x="76.650431" y="243.16712" style="fill: #1f77b4; stroke: #1f77b4"/>
     <use xlink:href="#m1ae4613daa" x="79.109935" y="208.840633" style="fill: #1f77b4; stroke: #1f77b4"/>
     <use xlink:href="#m1ae4613daa" x="81.56944" y="210.475228" style="fill: #1f77b4; stroke: #1f77b4"/>
     <use xlink:href="#m1ae4613daa" x="84.028944" y="238.263336" style="fill: #1f77b4; stroke: #1f77b4"/>
     <use xlink:href="#m1ae4613daa" x="86.488448" y="223.551985" style="fill: #1f77b4; stroke: #1f77b4"/>
     <use xlink:href="#m1ae4613daa" x="88.947952" y="210.475228" style="fill: #1f77b4; stroke: #1f77b4"/>
     <use xlink:href="#m1ae4613daa" x="91.407456" y="223.551985" style="fill: #1f77b4; stroke: #1f77b4"/>
     <use xlink:href="#m1ae4613daa" x="93.86696" y="244.801715" style="fill: #1f77b4; stroke: #1f77b4"/>
     <use xlink:href="#m1ae4613daa" x="96.326464" y="254.609282" style="fill: #1f77b4; stroke: #1f77b4"/>
     <use xlink:href="#m1ae4613daa" x="98.785968" y="262.782255" style="fill: #1f77b4; stroke: #1f77b4"/>
     <use xlink:href="#m1ae4613daa" x="101.245473" y="243.16712" style="fill: #1f77b4; stroke: #1f77b4"/>
     <use xlink:href="#m1ae4613daa" x="103.704977" y="230.090363" style="fill: #1f77b4; stroke: #1f77b4"/>
     <use xlink:href="#m1ae4613daa" x="106.164481" y="257.878471" style="fill: #1f77b4; stroke: #1f77b4"/>
     <use xlink:href="#m1ae4613daa" x="108.623985" y="262.782255" style="fill: #1f77b4; stroke: #1f77b4"/>
     <use xlink:href="#m1ae4613daa" x="111.083489" y="262.782255" style="fill: #1f77b4; stroke: #1f77b4"/>
     <use xlink:href="#m1ae4613daa" x="113.542993" y="259.513066" style="fill: #1f77b4; stroke: #1f77b4"/>
     <use xlink:href="#m1ae4613daa" x="116.002497" y="261.14766" style="fill: #1f77b4; stroke: #1f77b4"/>
     <use xlink:href="#m1ae4613daa" x="118.462002" y="249.705498" style="fill: #1f77b4; stroke: #1f77b4"/>
     <use xlink:href="#m1ae4613daa" x="120.921506" y="244.801715" style="fill: #1f77b4; stroke: #1f77b4"/>
     <use xlink:href="#m1ae4613daa" x="123.38101" y="217.013606" style="fill: #1f77b4; stroke: #1f77b4"/>
     <use xlink:href="#m1ae4613daa" x="125.840514" y="208.840633" style="fill: #1f77b4; stroke: #1f77b4"/>
     <use xlink:href="#m1ae4613daa" x="128.300018" y="248.070904" style="fill: #1f77b4; stroke: #1f77b4"/>
     <use xlink:href="#m1ae4613daa" x="130.759522" y="257.878471" style="fill: #1f77b4; stroke: #1f77b4"/>
     <use xlink:href="#m1ae4613daa" x="133.219026" y="236.628742" style="fill: #1f77b4; stroke: #1f77b4"/>
     <use xlink:href="#m1ae4613daa" x="135.67853" y="228.455769" style="fill: #1f77b4; stroke: #1f77b4"/>
     <use xlink:href="#m1ae4613daa" x="138.138035" y="221.91739" style="fill: #1f77b4; stroke: #1f77b4"/>
     <use xlink:href="#m1ae4613daa" x="140.597539" y="210.475228" style="fill: #1f77b4; stroke: #1f77b4"/>
     <use xlink:href="#m1ae4613daa" x="143.057043" y="225.186579" style="fill: #1f77b4; stroke: #1f77b4"/>
     <use xlink:href="#m1ae4613daa" x="145.516547" y="223.551985" style="fill: #1f77b4; stroke: #1f77b4"/>
     <use xlink:href="#m1ae4613daa" x="147.976051" y="225.186579" style="fill: #1f77b4; stroke: #1f77b4"/>
     <use xlink:href="#m1ae4613daa" x="150.435555" y="212.109823" style="fill: #1f77b4; stroke: #1f77b4"/>
     <use xlink:href="#m1ae4613daa" x="152.895059" y="192.494687" style="fill: #1f77b4; stroke: #1f77b4"/>
     <use xlink:href="#m1ae4613daa" x="155.354564" y="210.475228" style="fill: #1f77b4; stroke: #1f77b4"/>
     <use xlink:href="#m1ae4613daa" x="157.814068" y="215.379012" style="fill: #1f77b4; stroke: #1f77b4"/>
     <use xlink:href="#m1ae4613daa" x="160.273572" y="231.724958" style="fill: #1f77b4; stroke: #1f77b4"/>
     <use xlink:href="#m1ae4613daa" x="162.733076" y="200.66766" style="fill: #1f77b4; stroke: #1f77b4"/>
     <use xlink:href="#m1ae4613daa" x="165.19258" y="189.225498" style="fill: #1f77b4; stroke: #1f77b4"/>
     <use xlink:href="#m1ae4613daa" x="167.652084" y="200.66766" style="fill: #1f77b4; stroke: #1f77b4"/>
     <use xlink:href="#m1ae4613daa" x="170.111588" y="217.013606" style="fill: #1f77b4; stroke: #1f77b4"/>
     <use xlink:href="#m1ae4613daa" x="172.571092" y="199.033066" style="fill: #1f77b4; stroke: #1f77b4"/>
     <use xlink:href="#m1ae4613daa" x="175.030597" y="205.571444" style="fill: #1f77b4; stroke: #1f77b4"/>
     <use xlink:href="#m1ae4613daa" x="177.490101" y="195.763877" style="fill: #1f77b4; stroke: #1f77b4"/>
     <use xlink:href="#m1ae4613daa" x="179.949605" y="181.052525" style="fill: #1f77b4; stroke: #1f77b4"/>
     <use xlink:href="#m1ae4613daa" x="182.409109" y="181.052525" style="fill: #1f77b4; stroke: #1f77b4"/>
     <use xlink:href="#m1ae4613daa" x="184.868613" y="194.129282" style="fill: #1f77b4; stroke: #1f77b4"/>
     <use xlink:href="#m1ae4613daa" x="187.328117" y="199.033066" style="fill: #1f77b4; stroke: #1f77b4"/>
     <use xlink:href="#m1ae4613daa" x="189.787621" y="182.68712" style="fill: #1f77b4; stroke: #1f77b4"/>
     <use xlink:href="#m1ae4613daa" x="192.247126" y="187.590904" style="fill: #1f77b4; stroke: #1f77b4"/>
     <use xlink:href="#m1ae4613daa" x="194.70663" y="189.225498" style="fill: #1f77b4; stroke: #1f77b4"/>
     <use xlink:href="#m1ae4613daa" x="197.166134" y="167.975769" style="fill: #1f77b4; stroke: #1f77b4"/>
     <use xlink:href="#m1ae4613daa" x="199.625638" y="189.225498" style="fill: #1f77b4; stroke: #1f77b4"/>
     <use xlink:href="#m1ae4613daa" x="202.085142" y="203.93685" style="fill: #1f77b4; stroke: #1f77b4"/>
     <use xlink:href="#m1ae4613daa" x="204.544646" y="203.93685" style="fill: #1f77b4; stroke: #1f77b4"/>
     <use xlink:href="#m1ae4613daa" x="207.00415" y="192.494687" style="fill: #1f77b4; stroke: #1f77b4"/>
     <use xlink:href="#m1ae4613daa" x="209.463654" y="192.494687" style="fill: #1f77b4; stroke: #1f77b4"/>
     <use xlink:href="#m1ae4613daa" x="211.923159" y="212.109823" style="fill: #1f77b4; stroke: #1f77b4"/>
     <use xlink:href="#m1ae4613daa" x="214.382663" y="190.860093" style="fill: #1f77b4; stroke: #1f77b4"/>
     <use xlink:href="#m1ae4613daa" x="216.842167" y="187.590904" style="fill: #1f77b4; stroke: #1f77b4"/>
     <use xlink:href="#m1ae4613daa" x="219.301671" y="176.148742" style="fill: #1f77b4; stroke: #1f77b4"/>
     <use xlink:href="#m1ae4613daa" x="221.761175" y="213.744417" style="fill: #1f77b4; stroke: #1f77b4"/>
     <use xlink:href="#m1ae4613daa" x="224.220679" y="218.648201" style="fill: #1f77b4; stroke: #1f77b4"/>
     <use xlink:href="#m1ae4613daa" x="226.680183" y="233.359552" style="fill: #1f77b4; stroke: #1f77b4"/>
     <use xlink:href="#m1ae4613daa" x="229.139688" y="189.225498" style="fill: #1f77b4; stroke: #1f77b4"/>
     <use xlink:href="#m1ae4613daa" x="231.599192" y="181.052525" style="fill: #1f77b4; stroke: #1f77b4"/>
     <use xlink:href="#m1ae4613daa" x="234.058696" y="190.860093" style="fill: #1f77b4; stroke: #1f77b4"/>
     <use xlink:href="#m1ae4613daa" x="236.5182" y="202.302255" style="fill: #1f77b4; stroke: #1f77b4"/>
     <use xlink:href="#m1ae4613daa" x="238.977704" y="189.225498" style="fill: #1f77b4; stroke: #1f77b4"/>
     <use xlink:href="#m1ae4613daa" x="241.437208" y="189.225498" style="fill: #1f77b4; stroke: #1f77b4"/>
     <use xlink:href="#m1ae4613daa" x="243.896712" y="182.68712" style="fill: #1f77b4; stroke: #1f77b4"/>
     <use xlink:href="#m1ae4613daa" x="246.356216" y="223.551985" style="fill: #1f77b4; stroke: #1f77b4"/>
     <use xlink:href="#m1ae4613daa" x="248.815721" y="212.109823" style="fill: #1f77b4; stroke: #1f77b4"/>
     <use xlink:href="#m1ae4613daa" x="251.275225" y="199.033066" style="fill: #1f77b4; stroke: #1f77b4"/>
     <use xlink:href="#m1ae4613daa" x="253.734729" y="199.033066" style="fill: #1f77b4; stroke: #1f77b4"/>
     <use xlink:href="#m1ae4613daa" x="256.194233" y="207.206039" style="fill: #1f77b4; stroke: #1f77b4"/>
     <use xlink:href="#m1ae4613daa" x="258.653737" y="187.590904" style="fill: #1f77b4; stroke: #1f77b4"/>
     <use xlink:href="#m1ae4613daa" x="261.113241" y="195.763877" style="fill: #1f77b4; stroke: #1f77b4"/>
     <use xlink:href="#m1ae4613daa" x="263.572745" y="217.013606" style="fill: #1f77b4; stroke: #1f77b4"/>
     <use xlink:href="#m1ae4613daa" x="266.032249" y="197.398471" style="fill: #1f77b4; stroke: #1f77b4"/>
     <use xlink:href="#m1ae4613daa" x="268.491754" y="176.148742" style="fill: #1f77b4; stroke: #1f77b4"/>
     <use xlink:href="#m1ae4613daa" x="270.951258" y="220.282796" style="fill: #1f77b4; stroke: #1f77b4"/>
     <use xlink:href="#m1ae4613daa" x="273.410762" y="212.109823" style="fill: #1f77b4; stroke: #1f77b4"/>
     <use xlink:href="#m1ae4613daa" x="275.870266" y="230.090363" style="fill: #1f77b4; stroke: #1f77b4"/>
     <use xlink:href="#m1ae4613daa" x="278.32977" y="182.68712" style="fill: #1f77b4; stroke: #1f77b4"/>
     <use xlink:href="#m1ae4613daa" x="280.789274" y="194.129282" style="fill: #1f77b4; stroke: #1f77b4"/>
     <use xlink:href="#m1ae4613daa" x="283.248778" y="172.879552" style="fill: #1f77b4; stroke: #1f77b4"/>
     <use xlink:href="#m1ae4613daa" x="285.708283" y="171.244958" style="fill: #1f77b4; stroke: #1f77b4"/>
     <use xlink:href="#m1ae4613daa" x="288.167787" y="164.706579" style="fill: #1f77b4; stroke: #1f77b4"/>
     <use xlink:href="#m1ae4613daa" x="290.627291" y="185.956309" style="fill: #1f77b4; stroke: #1f77b4"/>
     <use xlink:href="#m1ae4613daa" x="293.086795" y="159.802796" style="fill: #1f77b4; stroke: #1f77b4"/>
     <use xlink:href="#m1ae4613daa" x="295.546299" y="192.494687" style="fill: #1f77b4; stroke: #1f77b4"/>
     <use xlink:href="#m1ae4613daa" x="298.005803" y="192.494687" style="fill: #1f77b4; stroke: #1f77b4"/>
     <use xlink:href="#m1ae4613daa" x="300.465307" y="177.783336" style="fill: #1f77b4; stroke: #1f77b4"/>
     <use xlink:href="#m1ae4613daa" x="302.924811" y="153.264417" style="fill: #1f77b4; stroke: #1f77b4"/>
     <use xlink:href="#m1ae4613daa" x="305.384316" y="154.899012" style="fill: #1f77b4; stroke: #1f77b4"/>
     <use xlink:href="#m1ae4613daa" x="307.84382" y="166.341174" style="fill: #1f77b4; stroke: #1f77b4"/>
     <use xlink:href="#m1ae4613daa" x="310.303324" y="140.18766" style="fill: #1f77b4; stroke: #1f77b4"/>
     <use xlink:href="#m1ae4613daa" x="312.762828" y="148.360633" style="fill: #1f77b4; stroke: #1f77b4"/>
     <use xlink:href="#m1ae4613daa" x="315.222332" y="172.879552" style="fill: #1f77b4; stroke: #1f77b4"/>
     <use xlink:href="#m1ae4613daa" x="317.681836" y="166.341174" style="fill: #1f77b4; stroke: #1f77b4"/>
     <use xlink:href="#m1ae4613daa" x="320.14134" y="153.264417" style="fill: #1f77b4; stroke: #1f77b4"/>
     <use xlink:href="#m1ae4613daa" x="322.600845" y="133.649282" style="fill: #1f77b4; stroke: #1f77b4"/>
     <use xlink:href="#m1ae4613daa" x="325.060349" y="154.899012" style="fill: #1f77b4; stroke: #1f77b4"/>
     <use xlink:href="#m1ae4613daa" x="327.519853" y="123.841715" style="fill: #1f77b4; stroke: #1f77b4"/>
     <use xlink:href="#m1ae4613daa" x="329.979357" y="99.322796" style="fill: #1f77b4; stroke: #1f77b4"/>
     <use xlink:href="#m1ae4613daa" x="332.438861" y="136.918471" style="fill: #1f77b4; stroke: #1f77b4"/>
     <use xlink:href="#m1ae4613daa" x="334.898365" y="140.18766" style="fill: #1f77b4; stroke: #1f77b4"/>
     <use xlink:href="#m1ae4613daa" x="337.357869" y="117.303336" style="fill: #1f77b4; stroke: #1f77b4"/>
     <use xlink:href="#m1ae4613daa" x="339.817373" y="109.130363" style="fill: #1f77b4; stroke: #1f77b4"/>
     <use xlink:href="#m1ae4613daa" x="342.276878" y="107.495769" style="fill: #1f77b4; stroke: #1f77b4"/>
     <use xlink:href="#m1ae4613daa" x="344.736382" y="117.303336" style="fill: #1f77b4; stroke: #1f77b4"/>
     <use xlink:href="#m1ae4613daa" x="347.195886" y="99.322796" style="fill: #1f77b4; stroke: #1f77b4"/>
     <use xlink:href="#m1ae4613daa" x="349.65539" y="105.861174" style="fill: #1f77b4; stroke: #1f77b4"/>
     <use xlink:href="#m1ae4613daa" x="352.114894" y="109.130363" style="fill: #1f77b4; stroke: #1f77b4"/>
     <use xlink:href="#m1ae4613daa" x="354.574398" y="122.20712" style="fill: #1f77b4; stroke: #1f77b4"/>
     <use xlink:href="#m1ae4613daa" x="357.033902" y="104.226579" style="fill: #1f77b4; stroke: #1f77b4"/>
     <use xlink:href="#m1ae4613daa" x="359.493407" y="91.149823" style="fill: #1f77b4; stroke: #1f77b4"/>
     <use xlink:href="#m1ae4613daa" x="361.952911" y="117.303336" style="fill: #1f77b4; stroke: #1f77b4"/>
     <use xlink:href="#m1ae4613daa" x="364.412415" y="107.495769" style="fill: #1f77b4; stroke: #1f77b4"/>
     <use xlink:href="#m1ae4613daa" x="366.871919" y="97.688201" style="fill: #1f77b4; stroke: #1f77b4"/>
     <use xlink:href="#m1ae4613daa" x="369.331423" y="87.880633" style="fill: #1f77b4; stroke: #1f77b4"/>
     <use xlink:href="#m1ae4613daa" x="371.790927" y="60.092525" style="fill: #1f77b4; stroke: #1f77b4"/>
     <use xlink:href="#m1ae4613daa" x="374.250431" y="51.919552" style="fill: #1f77b4; stroke: #1f77b4"/>
     <use xlink:href="#m1ae4613daa" x="376.709935" y="66.630904" style="fill: #1f77b4; stroke: #1f77b4"/>
     <use xlink:href="#m1ae4613daa" x="379.16944" y="82.97685" style="fill: #1f77b4; stroke: #1f77b4"/>
     <use xlink:href="#m1ae4613daa" x="381.628944" y="58.457931" style="fill: #1f77b4; stroke: #1f77b4"/>
     <use xlink:href="#m1ae4613daa" x="384.088448" y="53.554147" style="fill: #1f77b4; stroke: #1f77b4"/>
     <use xlink:href="#m1ae4613daa" x="386.547952" y="73.169282" style="fill: #1f77b4; stroke: #1f77b4"/>
     <use xlink:href="#m1ae4613daa" x="389.007456" y="69.900093" style="fill: #1f77b4; stroke: #1f77b4"/>
     <use xlink:href="#m1ae4613daa" x="391.46696" y="20.862255" style="fill: #1f77b4; stroke: #1f77b4"/>
    </g>
   </g>
   <g id="patch_3">
    <path d="M 50.579688 274.878255 
L 50.579688 8.766255 
" style="fill: none; stroke: #000000; stroke-width: 0.8; stroke-linejoin: miter; stroke-linecap: square"/>
   </g>
   <g id="patch_4">
    <path d="M 407.699687 274.878255 
L 407.699687 8.766255 
" style="fill: none; stroke: #000000; stroke-width: 0.8; stroke-linejoin: miter; stroke-linecap: square"/>
   </g>
   <g id="patch_5">
    <path d="M 50.579687 274.878255 
L 407.699687 274.878255 
" style="fill: none; stroke: #000000; stroke-width: 0.8; stroke-linejoin: miter; stroke-linecap: square"/>
   </g>
   <g id="patch_6">
    <path d="M 50.579687 8.766255 
L 407.699687 8.766255 
" style="fill: none; stroke: #000000; stroke-width: 0.8; stroke-linejoin: miter; stroke-linecap: square"/>
   </g>
  </g>
 </g>
 <defs>
  <clipPath id="p4ab85f74d7">
   <rect x="50.579688" y="8.766255" width="357.12" height="266.112"/>
  </clipPath>
 </defs>
</svg>
