<?xml version="1.0" encoding="utf-8" standalone="no"?>
<!DOCTYPE svg PUBLIC "-//W3C//DTD SVG 1.1//EN"
  "http://www.w3.org/Graphics/SVG/1.1/DTD/svg11.dtd">
<!-- Created with matplotlib (https://matplotlib.org/) -->
<svg height="319.783875pt" version="1.1" viewBox="0 0 393.759063 319.783875" width="393.759063pt" xmlns="http://www.w3.org/2000/svg" xmlns:xlink="http://www.w3.org/1999/xlink">
 <defs>
  <style type="text/css">
*{stroke-linecap:butt;stroke-linejoin:round;}
  </style>
 </defs>
 <g id="figure_1">
  <g id="patch_1">
   <path d="M 0 319.783875 
L 393.759063 319.783875 
L 393.759063 0 
L 0 0 
z
" style="fill:#ffffff;"/>
  </g>
  <g id="axes_1">
   <g id="patch_2">
    <path d="M 29.439063 283.802625 
L 386.559062 283.802625 
L 386.559062 17.690625 
L 29.439063 17.690625 
z
" style="fill:#ffffff;"/>
   </g>
   <g id="patch_3">
    <path clip-path="url(#p424109918c)" d="M 45.67179 283.802625 
L 49.01014 283.802625 
L 49.01014 283.743605 
L 45.67179 283.743605 
z
" style="fill:#ffbb78;"/>
   </g>
   <g id="patch_4">
    <path clip-path="url(#p424109918c)" d="M 49.844727 283.802625 
L 53.183077 283.802625 
L 53.183077 283.736908 
L 49.844727 283.736908 
z
" style="fill:#ffbb78;"/>
   </g>
   <g id="patch_5">
    <path clip-path="url(#p424109918c)" d="M 58.190603 283.802625 
L 61.528953 283.802625 
L 61.528953 283.681028 
L 58.190603 283.681028 
z
" style="fill:#ffbb78;"/>
   </g>
   <g id="patch_6">
    <path clip-path="url(#p424109918c)" d="M 62.36354 283.802625 
L 65.70189 283.802625 
L 65.70189 283.625566 
L 62.36354 283.625566 
z
" style="fill:#ffbb78;"/>
   </g>
   <g id="patch_7">
    <path clip-path="url(#p424109918c)" d="M 66.536478 283.802625 
L 69.874828 283.802625 
L 69.874828 283.526363 
L 66.536478 283.526363 
z
" style="fill:#ffbb78;"/>
   </g>
   <g id="patch_8">
    <path clip-path="url(#p424109918c)" d="M 70.709415 283.802625 
L 74.047765 283.802625 
L 74.047765 283.381117 
L 70.709415 283.381117 
z
" style="fill:#ffbb78;"/>
   </g>
   <g id="patch_9">
    <path clip-path="url(#p424109918c)" d="M 74.882353 283.802625 
L 78.220703 283.802625 
L 78.220703 283.217034 
L 74.882353 283.217034 
z
" style="fill:#ffbb78;"/>
   </g>
   <g id="patch_10">
    <path clip-path="url(#p424109918c)" d="M 79.055291 283.802625 
L 82.393641 283.802625 
L 82.393641 282.84136 
L 79.055291 282.84136 
z
" style="fill:#ffbb78;"/>
   </g>
   <g id="patch_11">
    <path clip-path="url(#p424109918c)" d="M 83.228228 283.802625 
L 86.566578 283.802625 
L 86.566578 282.533286 
L 83.228228 282.533286 
z
" style="fill:#ffbb78;"/>
   </g>
   <g id="patch_12">
    <path clip-path="url(#p424109918c)" d="M 87.401166 283.802625 
L 90.739516 283.802625 
L 90.739516 282.166402 
L 87.401166 282.166402 
z
" style="fill:#ffbb78;"/>
   </g>
   <g id="patch_13">
    <path clip-path="url(#p424109918c)" d="M 91.574103 283.802625 
L 94.912453 283.802625 
L 94.912453 281.746149 
L 91.574103 281.746149 
z
" style="fill:#ffbb78;"/>
   </g>
   <g id="patch_14">
    <path clip-path="url(#p424109918c)" d="M 95.747041 283.802625 
L 99.085391 283.802625 
L 99.085391 281.300991 
L 95.747041 281.300991 
z
" style="fill:#ffbb78;"/>
   </g>
   <g id="patch_15">
    <path clip-path="url(#p424109918c)" d="M 99.919979 283.802625 
L 103.258329 283.802625 
L 103.258329 280.756002 
L 99.919979 280.756002 
z
" style="fill:#ffbb78;"/>
   </g>
   <g id="patch_16">
    <path clip-path="url(#p424109918c)" d="M 104.092916 283.802625 
L 107.431266 283.802625 
L 107.431266 280.162877 
L 104.092916 280.162877 
z
" style="fill:#ffbb78;"/>
   </g>
   <g id="patch_17">
    <path clip-path="url(#p424109918c)" d="M 108.265854 283.802625 
L 111.604204 283.802625 
L 111.604204 279.484989 
L 108.265854 279.484989 
z
" style="fill:#ffbb78;"/>
   </g>
   <g id="patch_18">
    <path clip-path="url(#p424109918c)" d="M 112.438791 283.802625 
L 115.777141 283.802625 
L 115.777141 278.663738 
L 112.438791 278.663738 
z
" style="fill:#ffbb78;"/>
   </g>
   <g id="patch_19">
    <path clip-path="url(#p424109918c)" d="M 116.611729 283.802625 
L 119.950079 283.802625 
L 119.950079 277.884764 
L 116.611729 277.884764 
z
" style="fill:#ffbb78;"/>
   </g>
   <g id="patch_20">
    <path clip-path="url(#p424109918c)" d="M 120.784667 283.802625 
L 124.123017 283.802625 
L 124.123017 277.213992 
L 120.784667 277.213992 
z
" style="fill:#ffbb78;"/>
   </g>
   <g id="patch_21">
    <path clip-path="url(#p424109918c)" d="M 124.957604 283.802625 
L 128.295954 283.802625 
L 128.295954 276.501362 
L 124.957604 276.501362 
z
" style="fill:#ffbb78;"/>
   </g>
   <g id="patch_22">
    <path clip-path="url(#p424109918c)" d="M 129.130542 283.802625 
L 132.468892 283.802625 
L 132.468892 275.942142 
L 129.130542 275.942142 
z
" style="fill:#ffbb78;"/>
   </g>
   <g id="patch_23">
    <path clip-path="url(#p424109918c)" d="M 133.303479 283.802625 
L 136.64183 283.802625 
L 136.64183 275.315111 
L 133.303479 275.315111 
z
" style="fill:#ffbb78;"/>
   </g>
   <g id="patch_24">
    <path clip-path="url(#p424109918c)" d="M 137.476417 283.802625 
L 140.814767 283.802625 
L 140.814767 274.781633 
L 137.476417 274.781633 
z
" style="fill:#ffbb78;"/>
   </g>
   <g id="patch_25">
    <path clip-path="url(#p424109918c)" d="M 141.649355 283.802625 
L 144.987705 283.802625 
L 144.987705 274.348823 
L 141.649355 274.348823 
z
" style="fill:#ffbb78;"/>
   </g>
   <g id="patch_26">
    <path clip-path="url(#p424109918c)" d="M 145.822292 283.802625 
L 149.160642 283.802625 
L 149.160642 273.966661 
L 145.822292 273.966661 
z
" style="fill:#ffbb78;"/>
   </g>
   <g id="patch_27">
    <path clip-path="url(#p424109918c)" d="M 149.99523 283.802625 
L 153.33358 283.802625 
L 153.33358 273.536362 
L 149.99523 273.536362 
z
" style="fill:#ffbb78;"/>
   </g>
   <g id="patch_28">
    <path clip-path="url(#p424109918c)" d="M 154.168167 283.802625 
L 157.506518 283.802625 
L 157.506518 273.216778 
L 154.168167 273.216778 
z
" style="fill:#ffbb78;"/>
   </g>
   <g id="patch_29">
    <path clip-path="url(#p424109918c)" d="M 158.341105 283.802625 
L 161.679455 283.802625 
L 161.679455 272.949515 
L 158.341105 272.949515 
z
" style="fill:#ffbb78;"/>
   </g>
   <g id="patch_30">
    <path clip-path="url(#p424109918c)" d="M 162.514043 283.802625 
L 165.852393 283.802625 
L 165.852393 268.853307 
L 162.514043 268.853307 
z
" style="fill:#ffbb78;"/>
   </g>
   <g id="patch_31">
    <path clip-path="url(#p424109918c)" d="M 166.68698 283.802625 
L 170.02533 283.802625 
L 170.02533 268.45503 
L 166.68698 268.45503 
z
" style="fill:#ffbb78;"/>
   </g>
   <g id="patch_32">
    <path clip-path="url(#p424109918c)" d="M 170.859918 283.802625 
L 174.198268 283.802625 
L 174.198268 268.063241 
L 170.859918 268.063241 
z
" style="fill:#ffbb78;"/>
   </g>
   <g id="patch_33">
    <path clip-path="url(#p424109918c)" d="M 175.032855 283.802625 
L 178.371206 283.802625 
L 178.371206 267.949387 
L 175.032855 267.949387 
z
" style="fill:#ffbb78;"/>
   </g>
   <g id="patch_34">
    <path clip-path="url(#p424109918c)" d="M 179.205793 283.802625 
L 182.544143 283.802625 
L 182.544143 267.735703 
L 179.205793 267.735703 
z
" style="fill:#ffbb78;"/>
   </g>
   <g id="patch_35">
    <path clip-path="url(#p424109918c)" d="M 183.378731 283.802625 
L 186.717081 283.802625 
L 186.717081 267.521182 
L 183.378731 267.521182 
z
" style="fill:#ffbb78;"/>
   </g>
   <g id="patch_36">
    <path clip-path="url(#p424109918c)" d="M 187.551668 283.802625 
L 190.890018 283.802625 
L 190.890018 267.308335 
L 187.551668 267.308335 
z
" style="fill:#ffbb78;"/>
   </g>
   <g id="patch_37">
    <path clip-path="url(#p424109918c)" d="M 191.724606 283.802625 
L 195.062956 283.802625 
L 195.062956 267.199504 
L 191.724606 267.199504 
z
" style="fill:#ffbb78;"/>
   </g>
   <g id="patch_38">
    <path clip-path="url(#p424109918c)" d="M 195.897543 283.802625 
L 199.235894 283.802625 
L 199.235894 267.00947 
L 195.897543 267.00947 
z
" style="fill:#ffbb78;"/>
   </g>
   <g id="patch_39">
    <path clip-path="url(#p424109918c)" d="M 200.070481 283.802625 
L 203.408831 283.802625 
L 203.408831 266.827388 
L 200.070481 266.827388 
z
" style="fill:#ffbb78;"/>
   </g>
   <g id="patch_40">
    <path clip-path="url(#p424109918c)" d="M 204.243419 283.802625 
L 207.581769 283.802625 
L 207.581769 266.57938 
L 204.243419 266.57938 
z
" style="fill:#ffbb78;"/>
   </g>
   <g id="patch_41">
    <path clip-path="url(#p424109918c)" d="M 208.416356 283.802625 
L 211.754706 283.802625 
L 211.754706 266.295166 
L 208.416356 266.295166 
z
" style="fill:#ffbb78;"/>
   </g>
   <g id="patch_42">
    <path clip-path="url(#p424109918c)" d="M 212.589294 283.802625 
L 215.927644 283.802625 
L 215.927644 265.9287 
L 212.589294 265.9287 
z
" style="fill:#ffbb78;"/>
   </g>
   <g id="patch_43">
    <path clip-path="url(#p424109918c)" d="M 216.762231 283.802625 
L 220.100582 283.802625 
L 220.100582 265.565793 
L 216.762231 265.565793 
z
" style="fill:#ffbb78;"/>
   </g>
   <g id="patch_44">
    <path clip-path="url(#p424109918c)" d="M 220.935169 283.802625 
L 224.273519 283.802625 
L 224.273519 265.18677 
L 220.935169 265.18677 
z
" style="fill:#ffbb78;"/>
   </g>
   <g id="patch_45">
    <path clip-path="url(#p424109918c)" d="M 225.108107 283.802625 
L 228.446457 283.802625 
L 228.446457 264.784516 
L 225.108107 264.784516 
z
" style="fill:#ffbb78;"/>
   </g>
   <g id="patch_46">
    <path clip-path="url(#p424109918c)" d="M 229.281044 283.802625 
L 232.619394 283.802625 
L 232.619394 264.319894 
L 229.281044 264.319894 
z
" style="fill:#ffbb78;"/>
   </g>
   <g id="patch_47">
    <path clip-path="url(#p424109918c)" d="M 233.453982 283.802625 
L 236.792332 283.802625 
L 236.792332 263.850459 
L 233.453982 263.850459 
z
" style="fill:#ffbb78;"/>
   </g>
   <g id="patch_48">
    <path clip-path="url(#p424109918c)" d="M 237.626919 283.802625 
L 240.96527 283.802625 
L 240.96527 263.252101 
L 237.626919 263.252101 
z
" style="fill:#ffbb78;"/>
   </g>
   <g id="patch_49">
    <path clip-path="url(#p424109918c)" d="M 241.799857 283.802625 
L 245.138207 283.802625 
L 245.138207 262.470406 
L 241.799857 262.470406 
z
" style="fill:#ffbb78;"/>
   </g>
   <g id="patch_50">
    <path clip-path="url(#p424109918c)" d="M 245.972795 283.802625 
L 249.311145 283.802625 
L 249.311145 261.704617 
L 245.972795 261.704617 
z
" style="fill:#ffbb78;"/>
   </g>
   <g id="patch_51">
    <path clip-path="url(#p424109918c)" d="M 250.145732 283.802625 
L 253.484082 283.802625 
L 253.484082 260.869343 
L 250.145732 260.869343 
z
" style="fill:#ffbb78;"/>
   </g>
   <g id="patch_52">
    <path clip-path="url(#p424109918c)" d="M 254.31867 283.802625 
L 257.65702 283.802625 
L 257.65702 260.006026 
L 254.31867 260.006026 
z
" style="fill:#ffbb78;"/>
   </g>
   <g id="patch_53">
    <path clip-path="url(#p424109918c)" d="M 258.491607 283.802625 
L 261.829958 283.802625 
L 261.829958 259.038272 
L 258.491607 259.038272 
z
" style="fill:#ffbb78;"/>
   </g>
   <g id="patch_54">
    <path clip-path="url(#p424109918c)" d="M 262.664545 283.802625 
L 266.002895 283.802625 
L 266.002895 257.63143 
L 262.664545 257.63143 
z
" style="fill:#ffbb78;"/>
   </g>
   <g id="patch_55">
    <path clip-path="url(#p424109918c)" d="M 266.837483 283.802625 
L 270.175833 283.802625 
L 270.175833 256.017811 
L 266.837483 256.017811 
z
" style="fill:#ffbb78;"/>
   </g>
   <g id="patch_56">
    <path clip-path="url(#p424109918c)" d="M 271.01042 283.802625 
L 274.34877 283.802625 
L 274.34877 253.970753 
L 271.01042 253.970753 
z
" style="fill:#ffbb78;"/>
   </g>
   <g id="patch_57">
    <path clip-path="url(#p424109918c)" d="M 275.183358 283.802625 
L 278.521708 283.802625 
L 278.521708 251.673176 
L 275.183358 251.673176 
z
" style="fill:#ffbb78;"/>
   </g>
   <g id="patch_58">
    <path clip-path="url(#p424109918c)" d="M 279.356295 283.802625 
L 282.694646 283.802625 
L 282.694646 248.744384 
L 279.356295 248.744384 
z
" style="fill:#ffbb78;"/>
   </g>
   <g id="patch_59">
    <path clip-path="url(#p424109918c)" d="M 283.529233 283.802625 
L 286.867583 283.802625 
L 286.867583 246.31642 
L 283.529233 246.31642 
z
" style="fill:#ffbb78;"/>
   </g>
   <g id="patch_60">
    <path clip-path="url(#p424109918c)" d="M 287.702171 283.802625 
L 291.040521 283.802625 
L 291.040521 243.80181 
L 287.702171 243.80181 
z
" style="fill:#ffbb78;"/>
   </g>
   <g id="patch_61">
    <path clip-path="url(#p424109918c)" d="M 291.875108 283.802625 
L 295.213458 283.802625 
L 295.213458 239.885591 
L 291.875108 239.885591 
z
" style="fill:#ffbb78;"/>
   </g>
   <g id="patch_62">
    <path clip-path="url(#p424109918c)" d="M 296.048046 283.802625 
L 299.386396 283.802625 
L 299.386396 234.813676 
L 296.048046 234.813676 
z
" style="fill:#ffbb78;"/>
   </g>
   <g id="patch_63">
    <path clip-path="url(#p424109918c)" d="M 300.220984 283.802625 
L 303.559334 283.802625 
L 303.559334 228.116422 
L 300.220984 228.116422 
z
" style="fill:#ffbb78;"/>
   </g>
   <g id="patch_64">
    <path clip-path="url(#p424109918c)" d="M 304.393921 283.802625 
L 307.732271 283.802625 
L 307.732271 222.660463 
L 304.393921 222.660463 
z
" style="fill:#ffbb78;"/>
   </g>
   <g id="patch_65">
    <path clip-path="url(#p424109918c)" d="M 308.566859 283.802625 
L 311.905209 283.802625 
L 311.905209 214.123975 
L 308.566859 214.123975 
z
" style="fill:#ffbb78;"/>
   </g>
   <g id="patch_66">
    <path clip-path="url(#p424109918c)" d="M 312.739796 283.802625 
L 316.078146 283.802625 
L 316.078146 205.788615 
L 312.739796 205.788615 
z
" style="fill:#ffbb78;"/>
   </g>
   <g id="patch_67">
    <path clip-path="url(#p424109918c)" d="M 316.912734 283.802625 
L 320.251084 283.802625 
L 320.251084 197.119438 
L 316.912734 197.119438 
z
" style="fill:#ffbb78;"/>
   </g>
   <g id="patch_68">
    <path clip-path="url(#p424109918c)" d="M 321.085672 283.802625 
L 324.424022 283.802625 
L 324.424022 186.967866 
L 321.085672 186.967866 
z
" style="fill:#ffbb78;"/>
   </g>
   <g id="patch_69">
    <path clip-path="url(#p424109918c)" d="M 325.258609 283.802625 
L 328.596959 283.802625 
L 328.596959 177.240104 
L 325.258609 177.240104 
z
" style="fill:#ffbb78;"/>
   </g>
   <g id="patch_70">
    <path clip-path="url(#p424109918c)" d="M 329.431547 283.802625 
L 332.769897 283.802625 
L 332.769897 164.1566 
L 329.431547 164.1566 
z
" style="fill:#ffbb78;"/>
   </g>
   <g id="patch_71">
    <path clip-path="url(#p424109918c)" d="M 333.604484 283.802625 
L 336.942834 283.802625 
L 336.942834 150.938522 
L 333.604484 150.938522 
z
" style="fill:#ffbb78;"/>
   </g>
   <g id="patch_72">
    <path clip-path="url(#p424109918c)" d="M 337.777422 283.802625 
L 341.115772 283.802625 
L 341.115772 138.718336 
L 337.777422 138.718336 
z
" style="fill:#ffbb78;"/>
   </g>
   <g id="patch_73">
    <path clip-path="url(#p424109918c)" d="M 341.95036 283.802625 
L 345.28871 283.802625 
L 345.28871 126.649465 
L 341.95036 126.649465 
z
" style="fill:#ffbb78;"/>
   </g>
   <g id="patch_74">
    <path clip-path="url(#p424109918c)" d="M 346.123297 283.802625 
L 349.461647 283.802625 
L 349.461647 111.426607 
L 346.123297 111.426607 
z
" style="fill:#ffbb78;"/>
   </g>
   <g id="patch_75">
    <path clip-path="url(#p424109918c)" d="M 350.296235 283.802625 
L 353.634585 283.802625 
L 353.634585 96.185331 
L 350.296235 96.185331 
z
" style="fill:#ffbb78;"/>
   </g>
   <g id="patch_76">
    <path clip-path="url(#p424109918c)" d="M 354.469172 283.802625 
L 357.807522 283.802625 
L 357.807522 80.310118 
L 354.469172 80.310118 
z
" style="fill:#ffbb78;"/>
   </g>
   <g id="patch_77">
    <path clip-path="url(#p424109918c)" d="M 358.64211 283.802625 
L 361.98046 283.802625 
L 361.98046 63.706788 
L 358.64211 63.706788 
z
" style="fill:#ffbb78;"/>
   </g>
   <g id="patch_78">
    <path clip-path="url(#p424109918c)" d="M 362.815048 283.802625 
L 366.153398 283.802625 
L 366.153398 46.519332 
L 362.815048 46.519332 
z
" style="fill:#ffbb78;"/>
   </g>
   <g id="patch_79">
    <path clip-path="url(#p424109918c)" d="M 366.987985 283.802625 
L 370.326335 283.802625 
L 370.326335 30.362625 
L 366.987985 30.362625 
z
" style="fill:#ffbb78;"/>
   </g>
   <g id="patch_80">
    <path clip-path="url(#p424109918c)" d="M 45.67179 283.802625 
L 49.01014 283.802625 
L 49.01014 283.744443 
L 45.67179 283.744443 
z
" style="fill:#ff7f0e;"/>
   </g>
   <g id="patch_81">
    <path clip-path="url(#p424109918c)" d="M 49.844727 283.802625 
L 53.183077 283.802625 
L 53.183077 283.737955 
L 49.844727 283.737955 
z
" style="fill:#ff7f0e;"/>
   </g>
   <g id="patch_82">
    <path clip-path="url(#p424109918c)" d="M 58.190603 283.802625 
L 61.528953 283.802625 
L 61.528953 283.683121 
L 58.190603 283.683121 
z
" style="fill:#ff7f0e;"/>
   </g>
   <g id="patch_83">
    <path clip-path="url(#p424109918c)" d="M 62.36354 283.802625 
L 65.70189 283.802625 
L 65.70189 283.628915 
L 62.36354 283.628915 
z
" style="fill:#ff7f0e;"/>
   </g>
   <g id="patch_84">
    <path clip-path="url(#p424109918c)" d="M 66.536478 283.802625 
L 69.874828 283.802625 
L 69.874828 283.531177 
L 66.536478 283.531177 
z
" style="fill:#ff7f0e;"/>
   </g>
   <g id="patch_85">
    <path clip-path="url(#p424109918c)" d="M 70.709415 283.802625 
L 74.047765 283.802625 
L 74.047765 283.387186 
L 70.709415 283.387186 
z
" style="fill:#ff7f0e;"/>
   </g>
   <g id="patch_86">
    <path clip-path="url(#p424109918c)" d="M 74.882353 283.802625 
L 78.220703 283.802625 
L 78.220703 283.228963 
L 74.882353 283.228963 
z
" style="fill:#ff7f0e;"/>
   </g>
   <g id="patch_87">
    <path clip-path="url(#p424109918c)" d="M 79.055291 283.802625 
L 82.393641 283.802625 
L 82.393641 282.85308 
L 79.055291 282.85308 
z
" style="fill:#ff7f0e;"/>
   </g>
   <g id="patch_88">
    <path clip-path="url(#p424109918c)" d="M 83.228228 283.802625 
L 86.566578 283.802625 
L 86.566578 282.547518 
L 83.228228 282.547518 
z
" style="fill:#ff7f0e;"/>
   </g>
   <g id="patch_89">
    <path clip-path="url(#p424109918c)" d="M 87.401166 283.802625 
L 90.739516 283.802625 
L 90.739516 282.183564 
L 87.401166 282.183564 
z
" style="fill:#ff7f0e;"/>
   </g>
   <g id="patch_90">
    <path clip-path="url(#p424109918c)" d="M 91.574103 283.802625 
L 94.912453 283.802625 
L 94.912453 281.768334 
L 91.574103 281.768334 
z
" style="fill:#ff7f0e;"/>
   </g>
   <g id="patch_91">
    <path clip-path="url(#p424109918c)" d="M 95.747041 283.802625 
L 99.085391 283.802625 
L 99.085391 281.328617 
L 95.747041 281.328617 
z
" style="fill:#ff7f0e;"/>
   </g>
   <g id="patch_92">
    <path clip-path="url(#p424109918c)" d="M 99.919979 283.802625 
L 103.258329 283.802625 
L 103.258329 280.786558 
L 99.919979 280.786558 
z
" style="fill:#ff7f0e;"/>
   </g>
   <g id="patch_93">
    <path clip-path="url(#p424109918c)" d="M 104.092916 283.802625 
L 107.431266 283.802625 
L 107.431266 280.194898 
L 104.092916 280.194898 
z
" style="fill:#ff7f0e;"/>
   </g>
   <g id="patch_94">
    <path clip-path="url(#p424109918c)" d="M 108.265854 283.802625 
L 111.604204 283.802625 
L 111.604204 279.518266 
L 108.265854 279.518266 
z
" style="fill:#ff7f0e;"/>
   </g>
   <g id="patch_95">
    <path clip-path="url(#p424109918c)" d="M 112.438791 283.802625 
L 115.777141 283.802625 
L 115.777141 278.703712 
L 112.438791 278.703712 
z
" style="fill:#ff7f0e;"/>
   </g>
   <g id="patch_96">
    <path clip-path="url(#p424109918c)" d="M 116.611729 283.802625 
L 119.950079 283.802625 
L 119.950079 277.92997 
L 116.611729 277.92997 
z
" style="fill:#ff7f0e;"/>
   </g>
   <g id="patch_97">
    <path clip-path="url(#p424109918c)" d="M 120.784667 283.802625 
L 124.123017 283.802625 
L 124.123017 277.2705 
L 120.784667 277.2705 
z
" style="fill:#ff7f0e;"/>
   </g>
   <g id="patch_98">
    <path clip-path="url(#p424109918c)" d="M 124.957604 283.802625 
L 128.295954 283.802625 
L 128.295954 276.561638 
L 124.957604 276.561638 
z
" style="fill:#ff7f0e;"/>
   </g>
   <g id="patch_99">
    <path clip-path="url(#p424109918c)" d="M 129.130542 283.802625 
L 132.468892 283.802625 
L 132.468892 276.006393 
L 129.130542 276.006393 
z
" style="fill:#ff7f0e;"/>
   </g>
   <g id="patch_100">
    <path clip-path="url(#p424109918c)" d="M 133.303479 283.802625 
L 136.64183 283.802625 
L 136.64183 275.381874 
L 133.303479 275.381874 
z
" style="fill:#ff7f0e;"/>
   </g>
   <g id="patch_101">
    <path clip-path="url(#p424109918c)" d="M 137.476417 283.802625 
L 140.814767 283.802625 
L 140.814767 274.864302 
L 137.476417 274.864302 
z
" style="fill:#ff7f0e;"/>
   </g>
   <g id="patch_102">
    <path clip-path="url(#p424109918c)" d="M 141.649355 283.802625 
L 144.987705 283.802625 
L 144.987705 274.44112 
L 141.649355 274.44112 
z
" style="fill:#ff7f0e;"/>
   </g>
   <g id="patch_103">
    <path clip-path="url(#p424109918c)" d="M 145.822292 283.802625 
L 149.160642 283.802625 
L 149.160642 274.060213 
L 145.822292 274.060213 
z
" style="fill:#ff7f0e;"/>
   </g>
   <g id="patch_104">
    <path clip-path="url(#p424109918c)" d="M 149.99523 283.802625 
L 153.33358 283.802625 
L 153.33358 273.642053 
L 149.99523 273.642053 
z
" style="fill:#ff7f0e;"/>
   </g>
   <g id="patch_105">
    <path clip-path="url(#p424109918c)" d="M 154.168167 283.802625 
L 157.506518 283.802625 
L 157.506518 273.326864 
L 154.168167 273.326864 
z
" style="fill:#ff7f0e;"/>
   </g>
   <g id="patch_106">
    <path clip-path="url(#p424109918c)" d="M 158.341105 283.802625 
L 161.679455 283.802625 
L 161.679455 273.09246 
L 158.341105 273.09246 
z
" style="fill:#ff7f0e;"/>
   </g>
   <g id="patch_107">
    <path clip-path="url(#p424109918c)" d="M 162.514043 283.802625 
L 165.852393 283.802625 
L 165.852393 269.019483 
L 162.514043 269.019483 
z
" style="fill:#ff7f0e;"/>
   </g>
   <g id="patch_108">
    <path clip-path="url(#p424109918c)" d="M 166.68698 283.802625 
L 170.02533 283.802625 
L 170.02533 268.623299 
L 166.68698 268.623299 
z
" style="fill:#ff7f0e;"/>
   </g>
   <g id="patch_109">
    <path clip-path="url(#p424109918c)" d="M 170.859918 283.802625 
L 174.198268 283.802625 
L 174.198268 268.256624 
L 170.859918 268.256624 
z
" style="fill:#ff7f0e;"/>
   </g>
   <g id="patch_110">
    <path clip-path="url(#p424109918c)" d="M 175.032855 283.802625 
L 178.371206 283.802625 
L 178.371206 268.173955 
L 175.032855 268.173955 
z
" style="fill:#ff7f0e;"/>
   </g>
   <g id="patch_111">
    <path clip-path="url(#p424109918c)" d="M 179.205793 283.802625 
L 182.544143 283.802625 
L 182.544143 267.98685 
L 179.205793 267.98685 
z
" style="fill:#ff7f0e;"/>
   </g>
   <g id="patch_112">
    <path clip-path="url(#p424109918c)" d="M 183.378731 283.802625 
L 186.717081 283.802625 
L 186.717081 267.814605 
L 183.378731 267.814605 
z
" style="fill:#ff7f0e;"/>
   </g>
   <g id="patch_113">
    <path clip-path="url(#p424109918c)" d="M 187.551668 283.802625 
L 190.890018 283.802625 
L 190.890018 267.678567 
L 187.551668 267.678567 
z
" style="fill:#ff7f0e;"/>
   </g>
   <g id="patch_114">
    <path clip-path="url(#p424109918c)" d="M 191.724606 283.802625 
L 195.062956 283.802625 
L 195.062956 267.632524 
L 191.724606 267.632524 
z
" style="fill:#ff7f0e;"/>
   </g>
   <g id="patch_115">
    <path clip-path="url(#p424109918c)" d="M 195.897543 283.802625 
L 199.235894 283.802625 
L 199.235894 267.524112 
L 195.897543 267.524112 
z
" style="fill:#ff7f0e;"/>
   </g>
   <g id="patch_116">
    <path clip-path="url(#p424109918c)" d="M 200.070481 283.802625 
L 203.408831 283.802625 
L 203.408831 267.438094 
L 200.070481 267.438094 
z
" style="fill:#ff7f0e;"/>
   </g>
   <g id="patch_117">
    <path clip-path="url(#p424109918c)" d="M 204.243419 283.802625 
L 207.581769 283.802625 
L 207.581769 267.346216 
L 204.243419 267.346216 
z
" style="fill:#ff7f0e;"/>
   </g>
   <g id="patch_118">
    <path clip-path="url(#p424109918c)" d="M 208.416356 283.802625 
L 211.754706 283.802625 
L 211.754706 267.276941 
L 208.416356 267.276941 
z
" style="fill:#ff7f0e;"/>
   </g>
   <g id="patch_119">
    <path clip-path="url(#p424109918c)" d="M 212.589294 283.802625 
L 215.927644 283.802625 
L 215.927644 267.186319 
L 212.589294 267.186319 
z
" style="fill:#ff7f0e;"/>
   </g>
   <g id="patch_120">
    <path clip-path="url(#p424109918c)" d="M 216.762231 283.802625 
L 220.100582 283.802625 
L 220.100582 267.066187 
L 216.762231 267.066187 
z
" style="fill:#ff7f0e;"/>
   </g>
   <g id="patch_121">
    <path clip-path="url(#p424109918c)" d="M 220.935169 283.802625 
L 224.273519 283.802625 
L 224.273519 267.023074 
L 220.935169 267.023074 
z
" style="fill:#ff7f0e;"/>
   </g>
   <g id="patch_122">
    <path clip-path="url(#p424109918c)" d="M 225.108107 283.802625 
L 228.446457 283.802625 
L 228.446457 266.995866 
L 225.108107 266.995866 
z
" style="fill:#ff7f0e;"/>
   </g>
   <g id="patch_123">
    <path clip-path="url(#p424109918c)" d="M 229.281044 283.802625 
L 232.619394 283.802625 
L 232.619394 266.97117 
L 229.281044 266.97117 
z
" style="fill:#ff7f0e;"/>
   </g>
   <g id="patch_124">
    <path clip-path="url(#p424109918c)" d="M 233.453982 283.802625 
L 236.792332 283.802625 
L 236.792332 266.941241 
L 233.453982 266.941241 
z
" style="fill:#ff7f0e;"/>
   </g>
   <g id="patch_125">
    <path clip-path="url(#p424109918c)" d="M 237.626919 283.802625 
L 240.96527 283.802625 
L 240.96527 266.910685 
L 237.626919 266.910685 
z
" style="fill:#ff7f0e;"/>
   </g>
   <g id="patch_126">
    <path clip-path="url(#p424109918c)" d="M 241.799857 283.802625 
L 245.138207 283.802625 
L 245.138207 266.889338 
L 241.799857 266.889338 
z
" style="fill:#ff7f0e;"/>
   </g>
   <g id="patch_127">
    <path clip-path="url(#p424109918c)" d="M 245.972795 283.802625 
L 249.311145 283.802625 
L 249.311145 266.87971 
L 245.972795 266.87971 
z
" style="fill:#ff7f0e;"/>
   </g>
   <g id="patch_128">
    <path clip-path="url(#p424109918c)" d="M 250.145732 283.802625 
L 253.484082 283.802625 
L 253.484082 266.870292 
L 250.145732 266.870292 
z
" style="fill:#ff7f0e;"/>
   </g>
   <g id="patch_129">
    <path clip-path="url(#p424109918c)" d="M 254.31867 283.802625 
L 257.65702 283.802625 
L 257.65702 266.866107 
L 254.31867 266.866107 
z
" style="fill:#ff7f0e;"/>
   </g>
   <g id="patch_130">
    <path clip-path="url(#p424109918c)" d="M 258.491607 283.802625 
L 261.829958 283.802625 
L 261.829958 266.859619 
L 258.491607 266.859619 
z
" style="fill:#ff7f0e;"/>
   </g>
   <g id="patch_131">
    <path clip-path="url(#p424109918c)" d="M 262.664545 283.802625 
L 266.002895 283.802625 
L 266.002895 266.854177 
L 262.664545 266.854177 
z
" style="fill:#ff7f0e;"/>
   </g>
   <g id="patch_132">
    <path clip-path="url(#p424109918c)" d="M 266.837483 283.802625 
L 270.175833 283.802625 
L 270.175833 266.852084 
L 266.837483 266.852084 
z
" style="fill:#ff7f0e;"/>
   </g>
   <g id="patch_133">
    <path clip-path="url(#p424109918c)" d="M 271.01042 283.802625 
L 274.34877 283.802625 
L 274.34877 266.845806 
L 271.01042 266.845806 
z
" style="fill:#ff7f0e;"/>
   </g>
   <g id="patch_134">
    <path clip-path="url(#p424109918c)" d="M 275.183358 283.802625 
L 278.521708 283.802625 
L 278.521708 266.840155 
L 275.183358 266.840155 
z
" style="fill:#ff7f0e;"/>
   </g>
   <g id="patch_135">
    <path clip-path="url(#p424109918c)" d="M 279.356295 283.802625 
L 282.694646 283.802625 
L 282.694646 266.834085 
L 279.356295 266.834085 
z
" style="fill:#ff7f0e;"/>
   </g>
   <g id="patch_136">
    <path clip-path="url(#p424109918c)" d="M 283.529233 283.802625 
L 286.867583 283.802625 
L 286.867583 266.825923 
L 283.529233 266.825923 
z
" style="fill:#ff7f0e;"/>
   </g>
   <g id="patch_137">
    <path clip-path="url(#p424109918c)" d="M 287.702171 283.802625 
L 291.040521 283.802625 
L 291.040521 266.825923 
L 287.702171 266.825923 
z
" style="fill:#ff7f0e;"/>
   </g>
   <g id="patch_138">
    <path clip-path="url(#p424109918c)" d="M 291.875108 283.802625 
L 295.213458 283.802625 
L 295.213458 266.813784 
L 291.875108 266.813784 
z
" style="fill:#ff7f0e;"/>
   </g>
   <g id="patch_139">
    <path clip-path="url(#p424109918c)" d="M 296.048046 283.802625 
L 299.386396 283.802625 
L 299.386396 266.787414 
L 296.048046 266.787414 
z
" style="fill:#ff7f0e;"/>
   </g>
   <g id="patch_140">
    <path clip-path="url(#p424109918c)" d="M 300.220984 283.802625 
L 303.559334 283.802625 
L 303.559334 266.763136 
L 300.220984 266.763136 
z
" style="fill:#ff7f0e;"/>
   </g>
   <g id="patch_141">
    <path clip-path="url(#p424109918c)" d="M 304.393921 283.802625 
L 307.732271 283.802625 
L 307.732271 266.745975 
L 304.393921 266.745975 
z
" style="fill:#ff7f0e;"/>
   </g>
   <g id="patch_142">
    <path clip-path="url(#p424109918c)" d="M 308.566859 283.802625 
L 311.905209 283.802625 
L 311.905209 266.724418 
L 308.566859 266.724418 
z
" style="fill:#ff7f0e;"/>
   </g>
   <g id="patch_143">
    <path clip-path="url(#p424109918c)" d="M 312.739796 283.802625 
L 316.078146 283.802625 
L 316.078146 266.693862 
L 312.739796 266.693862 
z
" style="fill:#ff7f0e;"/>
   </g>
   <g id="patch_144">
    <path clip-path="url(#p424109918c)" d="M 316.912734 283.802625 
L 320.251084 283.802625 
L 320.251084 266.672723 
L 316.912734 266.672723 
z
" style="fill:#ff7f0e;"/>
   </g>
   <g id="patch_145">
    <path clip-path="url(#p424109918c)" d="M 321.085672 283.802625 
L 324.424022 283.802625 
L 324.424022 266.649074 
L 321.085672 266.649074 
z
" style="fill:#ff7f0e;"/>
   </g>
   <g id="patch_146">
    <path clip-path="url(#p424109918c)" d="M 325.258609 283.802625 
L 328.596959 283.802625 
L 328.596959 266.624587 
L 325.258609 266.624587 
z
" style="fill:#ff7f0e;"/>
   </g>
   <g id="patch_147">
    <path clip-path="url(#p424109918c)" d="M 329.431547 283.802625 
L 332.769897 283.802625 
L 332.769897 266.592775 
L 329.431547 266.592775 
z
" style="fill:#ff7f0e;"/>
   </g>
   <g id="patch_148">
    <path clip-path="url(#p424109918c)" d="M 333.604484 283.802625 
L 336.942834 283.802625 
L 336.942834 266.566404 
L 333.604484 266.566404 
z
" style="fill:#ff7f0e;"/>
   </g>
   <g id="patch_149">
    <path clip-path="url(#p424109918c)" d="M 337.777422 283.802625 
L 341.115772 283.802625 
L 341.115772 266.547359 
L 337.777422 266.547359 
z
" style="fill:#ff7f0e;"/>
   </g>
   <g id="patch_150">
    <path clip-path="url(#p424109918c)" d="M 341.95036 283.802625 
L 345.28871 283.802625 
L 345.28871 266.526849 
L 341.95036 266.526849 
z
" style="fill:#ff7f0e;"/>
   </g>
   <g id="patch_151">
    <path clip-path="url(#p424109918c)" d="M 346.123297 283.802625 
L 349.461647 283.802625 
L 349.461647 266.50885 
L 346.123297 266.50885 
z
" style="fill:#ff7f0e;"/>
   </g>
   <g id="patch_152">
    <path clip-path="url(#p424109918c)" d="M 350.296235 283.802625 
L 353.634585 283.802625 
L 353.634585 266.489386 
L 350.296235 266.489386 
z
" style="fill:#ff7f0e;"/>
   </g>
   <g id="patch_153">
    <path clip-path="url(#p424109918c)" d="M 354.469172 283.802625 
L 357.807522 283.802625 
L 357.807522 266.473062 
L 354.469172 266.473062 
z
" style="fill:#ff7f0e;"/>
   </g>
   <g id="patch_154">
    <path clip-path="url(#p424109918c)" d="M 358.64211 283.802625 
L 361.98046 283.802625 
L 361.98046 266.457783 
L 358.64211 266.457783 
z
" style="fill:#ff7f0e;"/>
   </g>
   <g id="patch_155">
    <path clip-path="url(#p424109918c)" d="M 362.815048 283.802625 
L 366.153398 283.802625 
L 366.153398 266.446272 
L 362.815048 266.446272 
z
" style="fill:#ff7f0e;"/>
   </g>
   <g id="patch_156">
    <path clip-path="url(#p424109918c)" d="M 366.987985 283.802625 
L 370.326335 283.802625 
L 370.326335 266.430576 
L 366.987985 266.430576 
z
" style="fill:#ff7f0e;"/>
   </g>
   <g id="patch_157">
    <path clip-path="url(#p424109918c)" d="M 45.67179 283.802625 
L 49.01014 283.802625 
L 49.01014 283.801369 
L 45.67179 283.801369 
z
" style="fill:#d62728;"/>
   </g>
   <g id="patch_158">
    <path clip-path="url(#p424109918c)" d="M 49.844727 283.802625 
L 53.183077 283.802625 
L 53.183077 283.801369 
L 49.844727 283.801369 
z
" style="fill:#d62728;"/>
   </g>
   <g id="patch_159">
    <path clip-path="url(#p424109918c)" d="M 58.190603 283.802625 
L 61.528953 283.802625 
L 61.528953 283.799067 
L 58.190603 283.799067 
z
" style="fill:#d62728;"/>
   </g>
   <g id="patch_160">
    <path clip-path="url(#p424109918c)" d="M 62.36354 283.802625 
L 65.70189 283.802625 
L 65.70189 283.797393 
L 62.36354 283.797393 
z
" style="fill:#d62728;"/>
   </g>
   <g id="patch_161">
    <path clip-path="url(#p424109918c)" d="M 66.536478 283.802625 
L 69.874828 283.802625 
L 69.874828 283.794044 
L 66.536478 283.794044 
z
" style="fill:#d62728;"/>
   </g>
   <g id="patch_162">
    <path clip-path="url(#p424109918c)" d="M 70.709415 283.802625 
L 74.047765 283.802625 
L 74.047765 283.790905 
L 70.709415 283.790905 
z
" style="fill:#d62728;"/>
   </g>
   <g id="patch_163">
    <path clip-path="url(#p424109918c)" d="M 74.882353 283.802625 
L 78.220703 283.802625 
L 78.220703 283.785882 
L 74.882353 283.785882 
z
" style="fill:#d62728;"/>
   </g>
   <g id="patch_164">
    <path clip-path="url(#p424109918c)" d="M 79.055291 283.802625 
L 82.393641 283.802625 
L 82.393641 283.78044 
L 79.055291 283.78044 
z
" style="fill:#d62728;"/>
   </g>
   <g id="patch_165">
    <path clip-path="url(#p424109918c)" d="M 83.228228 283.802625 
L 86.566578 283.802625 
L 86.566578 283.774999 
L 83.228228 283.774999 
z
" style="fill:#d62728;"/>
   </g>
   <g id="patch_166">
    <path clip-path="url(#p424109918c)" d="M 87.401166 283.802625 
L 90.739516 283.802625 
L 90.739516 283.767046 
L 87.401166 283.767046 
z
" style="fill:#d62728;"/>
   </g>
   <g id="patch_167">
    <path clip-path="url(#p424109918c)" d="M 91.574103 283.802625 
L 94.912453 283.802625 
L 94.912453 283.758046 
L 91.574103 283.758046 
z
" style="fill:#d62728;"/>
   </g>
   <g id="patch_168">
    <path clip-path="url(#p424109918c)" d="M 95.747041 283.802625 
L 99.085391 283.802625 
L 99.085391 283.748419 
L 95.747041 283.748419 
z
" style="fill:#d62728;"/>
   </g>
   <g id="patch_169">
    <path clip-path="url(#p424109918c)" d="M 99.919979 283.802625 
L 103.258329 283.802625 
L 103.258329 283.738792 
L 99.919979 283.738792 
z
" style="fill:#d62728;"/>
   </g>
   <g id="patch_170">
    <path clip-path="url(#p424109918c)" d="M 104.092916 283.802625 
L 107.431266 283.802625 
L 107.431266 283.726862 
L 104.092916 283.726862 
z
" style="fill:#d62728;"/>
   </g>
   <g id="patch_171">
    <path clip-path="url(#p424109918c)" d="M 108.265854 283.802625 
L 111.604204 283.802625 
L 111.604204 283.713468 
L 108.265854 283.713468 
z
" style="fill:#d62728;"/>
   </g>
   <g id="patch_172">
    <path clip-path="url(#p424109918c)" d="M 112.438791 283.802625 
L 115.777141 283.802625 
L 115.777141 283.699655 
L 112.438791 283.699655 
z
" style="fill:#d62728;"/>
   </g>
   <g id="patch_173">
    <path clip-path="url(#p424109918c)" d="M 116.611729 283.802625 
L 119.950079 283.802625 
L 119.950079 283.684377 
L 116.611729 283.684377 
z
" style="fill:#d62728;"/>
   </g>
   <g id="patch_174">
    <path clip-path="url(#p424109918c)" d="M 120.784667 283.802625 
L 124.123017 283.802625 
L 124.123017 283.669098 
L 120.784667 283.669098 
z
" style="fill:#d62728;"/>
   </g>
   <g id="patch_175">
    <path clip-path="url(#p424109918c)" d="M 124.957604 283.802625 
L 128.295954 283.802625 
L 128.295954 283.6511 
L 124.957604 283.6511 
z
" style="fill:#d62728;"/>
   </g>
   <g id="patch_176">
    <path clip-path="url(#p424109918c)" d="M 129.130542 283.802625 
L 132.468892 283.802625 
L 132.468892 283.632473 
L 129.130542 283.632473 
z
" style="fill:#d62728;"/>
   </g>
   <g id="patch_177">
    <path clip-path="url(#p424109918c)" d="M 133.303479 283.802625 
L 136.64183 283.802625 
L 136.64183 283.612172 
L 133.303479 283.612172 
z
" style="fill:#d62728;"/>
   </g>
   <g id="patch_178">
    <path clip-path="url(#p424109918c)" d="M 137.476417 283.802625 
L 140.814767 283.802625 
L 140.814767 283.589569 
L 137.476417 283.589569 
z
" style="fill:#d62728;"/>
   </g>
   <g id="patch_179">
    <path clip-path="url(#p424109918c)" d="M 141.649355 283.802625 
L 144.987705 283.802625 
L 144.987705 283.569268 
L 141.649355 283.569268 
z
" style="fill:#d62728;"/>
   </g>
   <g id="patch_180">
    <path clip-path="url(#p424109918c)" d="M 145.822292 283.802625 
L 149.160642 283.802625 
L 149.160642 283.516108 
L 145.822292 283.516108 
z
" style="fill:#d62728;"/>
   </g>
   <g id="patch_181">
    <path clip-path="url(#p424109918c)" d="M 149.99523 283.802625 
L 153.33358 283.802625 
L 153.33358 283.513178 
L 149.99523 283.513178 
z
" style="fill:#d62728;"/>
   </g>
   <g id="patch_182">
    <path clip-path="url(#p424109918c)" d="M 154.168167 283.802625 
L 157.506518 283.802625 
L 157.506518 283.48325 
L 154.168167 283.48325 
z
" style="fill:#d62728;"/>
   </g>
   <g id="patch_183">
    <path clip-path="url(#p424109918c)" d="M 158.341105 283.802625 
L 161.679455 283.802625 
L 161.679455 283.453321 
L 158.341105 283.453321 
z
" style="fill:#d62728;"/>
   </g>
   <g id="patch_184">
    <path clip-path="url(#p424109918c)" d="M 162.514043 283.802625 
L 165.852393 283.802625 
L 165.852393 283.431137 
L 162.514043 283.431137 
z
" style="fill:#d62728;"/>
   </g>
   <g id="patch_185">
    <path clip-path="url(#p424109918c)" d="M 166.68698 283.802625 
L 170.02533 283.802625 
L 170.02533 283.410626 
L 166.68698 283.410626 
z
" style="fill:#d62728;"/>
   </g>
   <g id="patch_186">
    <path clip-path="url(#p424109918c)" d="M 170.859918 283.802625 
L 174.198268 283.802625 
L 174.198268 283.382163 
L 170.859918 283.382163 
z
" style="fill:#d62728;"/>
   </g>
   <g id="patch_187">
    <path clip-path="url(#p424109918c)" d="M 175.032855 283.802625 
L 178.371206 283.802625 
L 178.371206 283.357048 
L 175.032855 283.357048 
z
" style="fill:#d62728;"/>
   </g>
   <g id="patch_188">
    <path clip-path="url(#p424109918c)" d="M 179.205793 283.802625 
L 182.544143 283.802625 
L 182.544143 283.332352 
L 179.205793 283.332352 
z
" style="fill:#d62728;"/>
   </g>
   <g id="patch_189">
    <path clip-path="url(#p424109918c)" d="M 183.378731 283.802625 
L 186.717081 283.802625 
L 186.717081 283.308912 
L 183.378731 283.308912 
z
" style="fill:#d62728;"/>
   </g>
   <g id="patch_190">
    <path clip-path="url(#p424109918c)" d="M 187.551668 283.802625 
L 190.890018 283.802625 
L 190.890018 283.287355 
L 187.551668 283.287355 
z
" style="fill:#d62728;"/>
   </g>
   <g id="patch_191">
    <path clip-path="url(#p424109918c)" d="M 191.724606 283.802625 
L 195.062956 283.802625 
L 195.062956 283.254706 
L 191.724606 283.254706 
z
" style="fill:#d62728;"/>
   </g>
   <g id="patch_192">
    <path clip-path="url(#p424109918c)" d="M 195.897543 283.802625 
L 199.235894 283.802625 
L 199.235894 283.237544 
L 195.897543 283.237544 
z
" style="fill:#d62728;"/>
   </g>
   <g id="patch_193">
    <path clip-path="url(#p424109918c)" d="M 200.070481 283.802625 
L 203.408831 283.802625 
L 203.408831 283.224778 
L 200.070481 283.224778 
z
" style="fill:#d62728;"/>
   </g>
   <g id="patch_194">
    <path clip-path="url(#p424109918c)" d="M 204.243419 283.802625 
L 207.581769 283.802625 
L 207.581769 283.215778 
L 204.243419 283.215778 
z
" style="fill:#d62728;"/>
   </g>
   <g id="patch_195">
    <path clip-path="url(#p424109918c)" d="M 208.416356 283.802625 
L 211.754706 283.802625 
L 211.754706 283.204476 
L 208.416356 283.204476 
z
" style="fill:#d62728;"/>
   </g>
   <g id="patch_196">
    <path clip-path="url(#p424109918c)" d="M 212.589294 283.802625 
L 215.927644 283.802625 
L 215.927644 283.190663 
L 212.589294 283.190663 
z
" style="fill:#d62728;"/>
   </g>
   <g id="patch_197">
    <path clip-path="url(#p424109918c)" d="M 216.762231 283.802625 
L 220.100582 283.802625 
L 220.100582 283.179571 
L 216.762231 283.179571 
z
" style="fill:#d62728;"/>
   </g>
   <g id="patch_198">
    <path clip-path="url(#p424109918c)" d="M 220.935169 283.802625 
L 224.273519 283.802625 
L 224.273519 283.165758 
L 220.935169 283.165758 
z
" style="fill:#d62728;"/>
   </g>
   <g id="patch_199">
    <path clip-path="url(#p424109918c)" d="M 225.108107 283.802625 
L 228.446457 283.802625 
L 228.446457 283.151317 
L 225.108107 283.151317 
z
" style="fill:#d62728;"/>
   </g>
   <g id="patch_200">
    <path clip-path="url(#p424109918c)" d="M 229.281044 283.802625 
L 232.619394 283.802625 
L 232.619394 283.133318 
L 229.281044 283.133318 
z
" style="fill:#d62728;"/>
   </g>
   <g id="patch_201">
    <path clip-path="url(#p424109918c)" d="M 233.453982 283.802625 
L 236.792332 283.802625 
L 236.792332 283.115738 
L 233.453982 283.115738 
z
" style="fill:#d62728;"/>
   </g>
   <g id="patch_202">
    <path clip-path="url(#p424109918c)" d="M 237.626919 283.802625 
L 240.96527 283.802625 
L 240.96527 283.095228 
L 237.626919 283.095228 
z
" style="fill:#d62728;"/>
   </g>
   <g id="patch_203">
    <path clip-path="url(#p424109918c)" d="M 241.799857 283.802625 
L 245.138207 283.802625 
L 245.138207 283.073043 
L 241.799857 283.073043 
z
" style="fill:#d62728;"/>
   </g>
   <g id="patch_204">
    <path clip-path="url(#p424109918c)" d="M 245.972795 283.802625 
L 249.311145 283.802625 
L 249.311145 283.052533 
L 245.972795 283.052533 
z
" style="fill:#d62728;"/>
   </g>
   <g id="patch_205">
    <path clip-path="url(#p424109918c)" d="M 250.145732 283.802625 
L 253.484082 283.802625 
L 253.484082 283.005442 
L 250.145732 283.005442 
z
" style="fill:#d62728;"/>
   </g>
   <g id="patch_206">
    <path clip-path="url(#p424109918c)" d="M 254.31867 283.802625 
L 257.65702 283.802625 
L 257.65702 282.962957 
L 254.31867 282.962957 
z
" style="fill:#d62728;"/>
   </g>
   <g id="patch_207">
    <path clip-path="url(#p424109918c)" d="M 258.491607 283.802625 
L 261.829958 283.802625 
L 261.829958 282.904356 
L 258.491607 282.904356 
z
" style="fill:#d62728;"/>
   </g>
   <g id="patch_208">
    <path clip-path="url(#p424109918c)" d="M 262.664545 283.802625 
L 266.002895 283.802625 
L 266.002895 282.837174 
L 262.664545 282.837174 
z
" style="fill:#d62728;"/>
   </g>
   <g id="patch_209">
    <path clip-path="url(#p424109918c)" d="M 266.837483 283.802625 
L 270.175833 283.802625 
L 270.175833 282.765597 
L 266.837483 282.765597 
z
" style="fill:#d62728;"/>
   </g>
   <g id="patch_210">
    <path clip-path="url(#p424109918c)" d="M 271.01042 283.802625 
L 274.34877 283.802625 
L 274.34877 282.673928 
L 271.01042 282.673928 
z
" style="fill:#d62728;"/>
   </g>
   <g id="patch_211">
    <path clip-path="url(#p424109918c)" d="M 275.183358 283.802625 
L 278.521708 283.802625 
L 278.521708 282.602351 
L 275.183358 282.602351 
z
" style="fill:#d62728;"/>
   </g>
   <g id="patch_212">
    <path clip-path="url(#p424109918c)" d="M 279.356295 283.802625 
L 282.694646 283.802625 
L 282.694646 282.420061 
L 279.356295 282.420061 
z
" style="fill:#d62728;"/>
   </g>
   <g id="patch_213">
    <path clip-path="url(#p424109918c)" d="M 283.529233 283.802625 
L 286.867583 283.802625 
L 286.867583 282.248443 
L 283.529233 282.248443 
z
" style="fill:#d62728;"/>
   </g>
   <g id="patch_214">
    <path clip-path="url(#p424109918c)" d="M 287.702171 283.802625 
L 291.040521 283.802625 
L 291.040521 282.168704 
L 287.702171 282.168704 
z
" style="fill:#d62728;"/>
   </g>
   <g id="patch_215">
    <path clip-path="url(#p424109918c)" d="M 291.875108 283.802625 
L 295.213458 283.802625 
L 295.213458 281.965484 
L 291.875108 281.965484 
z
" style="fill:#d62728;"/>
   </g>
   <g id="patch_216">
    <path clip-path="url(#p424109918c)" d="M 296.048046 283.802625 
L 299.386396 283.802625 
L 299.386396 281.743219 
L 296.048046 281.743219 
z
" style="fill:#d62728;"/>
   </g>
   <g id="patch_217">
    <path clip-path="url(#p424109918c)" d="M 300.220984 283.802625 
L 303.559334 283.802625 
L 303.559334 281.461935 
L 300.220984 281.461935 
z
" style="fill:#d62728;"/>
   </g>
   <g id="patch_218">
    <path clip-path="url(#p424109918c)" d="M 304.393921 283.802625 
L 307.732271 283.802625 
L 307.732271 281.127072 
L 304.393921 281.127072 
z
" style="fill:#d62728;"/>
   </g>
   <g id="patch_219">
    <path clip-path="url(#p424109918c)" d="M 308.566859 283.802625 
L 311.905209 283.802625 
L 311.905209 280.765839 
L 308.566859 280.765839 
z
" style="fill:#d62728;"/>
   </g>
   <g id="patch_220">
    <path clip-path="url(#p424109918c)" d="M 312.739796 283.802625 
L 316.078146 283.802625 
L 316.078146 280.405652 
L 312.739796 280.405652 
z
" style="fill:#d62728;"/>
   </g>
   <g id="patch_221">
    <path clip-path="url(#p424109918c)" d="M 316.912734 283.802625 
L 320.251084 283.802625 
L 320.251084 279.943332 
L 316.912734 279.943332 
z
" style="fill:#d62728;"/>
   </g>
   <g id="patch_222">
    <path clip-path="url(#p424109918c)" d="M 321.085672 283.802625 
L 324.424022 283.802625 
L 324.424022 279.442294 
L 321.085672 279.442294 
z
" style="fill:#d62728;"/>
   </g>
   <g id="patch_223">
    <path clip-path="url(#p424109918c)" d="M 325.258609 283.802625 
L 328.596959 283.802625 
L 328.596959 278.918862 
L 325.258609 278.918862 
z
" style="fill:#d62728;"/>
   </g>
   <g id="patch_224">
    <path clip-path="url(#p424109918c)" d="M 329.431547 283.802625 
L 332.769897 283.802625 
L 332.769897 278.257717 
L 329.431547 278.257717 
z
" style="fill:#d62728;"/>
   </g>
   <g id="patch_225">
    <path clip-path="url(#p424109918c)" d="M 333.604484 283.802625 
L 336.942834 283.802625 
L 336.942834 277.532949 
L 333.604484 277.532949 
z
" style="fill:#d62728;"/>
   </g>
   <g id="patch_226">
    <path clip-path="url(#p424109918c)" d="M 337.777422 283.802625 
L 341.115772 283.802625 
L 341.115772 276.873897 
L 337.777422 276.873897 
z
" style="fill:#d62728;"/>
   </g>
   <g id="patch_227">
    <path clip-path="url(#p424109918c)" d="M 341.95036 283.802625 
L 345.28871 283.802625 
L 345.28871 276.183452 
L 341.95036 276.183452 
z
" style="fill:#d62728;"/>
   </g>
   <g id="patch_228">
    <path clip-path="url(#p424109918c)" d="M 346.123297 283.802625 
L 349.461647 283.802625 
L 349.461647 275.305902 
L 346.123297 275.305902 
z
" style="fill:#d62728;"/>
   </g>
   <g id="patch_229">
    <path clip-path="url(#p424109918c)" d="M 350.296235 283.802625 
L 353.634585 283.802625 
L 353.634585 274.274525 
L 350.296235 274.274525 
z
" style="fill:#d62728;"/>
   </g>
   <g id="patch_230">
    <path clip-path="url(#p424109918c)" d="M 354.469172 283.802625 
L 357.807522 283.802625 
L 357.807522 273.270774 
L 354.469172 273.270774 
z
" style="fill:#d62728;"/>
   </g>
   <g id="patch_231">
    <path clip-path="url(#p424109918c)" d="M 358.64211 283.802625 
L 361.98046 283.802625 
L 361.98046 271.876281 
L 358.64211 271.876281 
z
" style="fill:#d62728;"/>
   </g>
   <g id="patch_232">
    <path clip-path="url(#p424109918c)" d="M 362.815048 283.802625 
L 366.153398 283.802625 
L 366.153398 270.662613 
L 362.815048 270.662613 
z
" style="fill:#d62728;"/>
   </g>
   <g id="patch_233">
    <path clip-path="url(#p424109918c)" d="M 366.987985 283.802625 
L 370.326335 283.802625 
L 370.326335 269.655932 
L 366.987985 269.655932 
z
" style="fill:#d62728;"/>
   </g>
   <g id="matplotlib.axis_1">
    <g id="xtick_1">
     <g id="line2d_1">
      <defs>
       <path d="M 0 0 
L 0 3.5 
" id="m6dbd60e067" style="stroke:#000000;stroke-width:0.8;"/>
      </defs>
      <g>
       <use style="stroke:#000000;stroke-width:0.8;" x="97.416216" xlink:href="#m6dbd60e067" y="283.802625"/>
      </g>
     </g>
     <g id="text_1">
      <!-- Feb -->
      <defs>
       <path d="M 54.203125 64.703125 
L 18.3125 64.703125 
L 18.3125 41.5 
L 50.09375 41.5 
L 50.09375 34.1875 
L 18.3125 34.1875 
L 18.3125 0.984375 
L 9.515625 0.984375 
L 9.515625 72.40625 
L 54.203125 72.40625 
z
" id="IPAexGothic-70"/>
       <path d="M 13.484375 24.90625 
Q 13.921875 16.265625 18.890625 11.28125 
Q 23.96875 6.203125 31.203125 6.203125 
Q 40.71875 6.203125 46.296875 15.09375 
L 51.90625 11.375 
Q 44.828125 -0.484375 30.171875 -0.484375 
Q 19.09375 -0.484375 11.96875 6.59375 
Q 4.78125 13.8125 4.78125 25.640625 
Q 4.78125 38.1875 12.3125 45.703125 
Q 19 52.390625 29 52.390625 
Q 38.421875 52.390625 44.78125 46.1875 
Q 51.90625 38.96875 51.90625 26.90625 
L 51.90625 24.90625 
z
M 43.0625 31.203125 
Q 42.328125 37.984375 38.28125 41.890625 
Q 34.28125 45.90625 28.8125 45.90625 
Q 22.46875 45.90625 17.96875 40.484375 
Q 14.890625 36.8125 13.96875 31.203125 
z
" id="IPAexGothic-101"/>
       <path d="M 17.578125 42.671875 
Q 24.21875 52.203125 34.671875 52.203125 
Q 43.5625 52.203125 49.859375 45.90625 
Q 57.171875 38.578125 57.171875 25.6875 
Q 57.171875 13.09375 49.859375 5.8125 
Q 43.5625 -0.484375 34.46875 -0.484375 
Q 24.359375 -0.484375 17 8.0625 
L 15.765625 0.6875 
L 9.078125 0.6875 
L 9.078125 74.90625 
L 17.578125 74.90625 
z
M 17.578125 31.203125 
L 17.578125 19.578125 
Q 17.578125 13.875 23.875 9.375 
Q 28.171875 6.296875 33.109375 6.296875 
Q 38.875 6.296875 42.875 10.296875 
Q 48.1875 15.765625 48.1875 25.484375 
Q 48.1875 34.28125 43.796875 39.890625 
Q 39.453125 45.3125 33.203125 45.3125 
Q 27.484375 45.3125 22.46875 40.28125 
Q 17.578125 35.40625 17.578125 31.203125 
z
" id="IPAexGothic-98"/>
      </defs>
      <g transform="translate(88.592779 298.29325)scale(0.1 -0.1)">
       <use xlink:href="#IPAexGothic-70"/>
       <use x="57.177734" xlink:href="#IPAexGothic-101"/>
       <use x="114.0625" xlink:href="#IPAexGothic-98"/>
      </g>
     </g>
    </g>
    <g id="xtick_2">
     <g id="line2d_2">
      <g>
       <use style="stroke:#000000;stroke-width:0.8;" x="155.837342" xlink:href="#m6dbd60e067" y="283.802625"/>
      </g>
     </g>
     <g id="text_2">
      <!-- 15 -->
      <defs>
       <path d="M 38.484375 0.984375 
L 29.6875 0.984375 
L 29.6875 64.109375 
Q 21.4375 61.28125 12.3125 59.328125 
L 10.6875 66.109375 
Q 23.734375 69.390625 32.90625 73.921875 
L 38.484375 73.921875 
z
" id="IPAexGothic-49"/>
       <path d="M 18.40625 40.671875 
Q 25.53125 46.296875 33.9375 46.296875 
Q 44 46.296875 50.640625 39.5 
Q 56.84375 33.015625 56.84375 23.390625 
Q 56.84375 14.65625 51.515625 8.015625 
Q 44.828125 -0.484375 31.734375 -0.484375 
Q 14.984375 -0.484375 7.328125 12.25 
L 14.65625 16.0625 
Q 20.453125 6.78125 31.453125 6.78125 
Q 38.53125 6.78125 43.265625 11.1875 
Q 48.140625 15.828125 48.140625 23.484375 
Q 48.140625 30.71875 43.84375 35.015625 
Q 39.359375 39.5 32.125 39.5 
Q 21.96875 39.5 16.75 31.6875 
L 9.234375 32.671875 
L 13.8125 72.40625 
L 53.21875 72.40625 
L 53.21875 64.890625 
L 20.953125 64.890625 
L 17.71875 40.671875 
z
" id="IPAexGothic-53"/>
      </defs>
      <g transform="translate(149.538905 298.29325)scale(0.1 -0.1)">
       <use xlink:href="#IPAexGothic-49"/>
       <use x="62.988281" xlink:href="#IPAexGothic-53"/>
      </g>
     </g>
    </g>
    <g id="xtick_3">
     <g id="line2d_3">
      <g>
       <use style="stroke:#000000;stroke-width:0.8;" x="218.431407" xlink:href="#m6dbd60e067" y="283.802625"/>
      </g>
     </g>
     <g id="text_3">
      <!-- Mar -->
      <defs>
       <path d="M 80.421875 0.984375 
L 71.828125 0.984375 
L 71.828125 39.59375 
Q 71.828125 51.265625 72.40625 64.59375 
L 72.015625 64.59375 
Q 68.0625 53.265625 63.53125 41.796875 
L 47.90625 3.265625 
L 41.40625 3.265625 
L 25.640625 42.578125 
Q 20.75 54.78125 17.625 64.703125 
L 17.234375 64.703125 
Q 17.828125 48.921875 17.828125 39.890625 
L 17.828125 0.984375 
L 9.515625 0.984375 
L 9.515625 72.40625 
L 22.125 72.40625 
L 39.109375 30.375 
Q 42.140625 23 44.828125 14.15625 
L 45.125 14.15625 
Q 47.3125 22.125 50.53125 30.171875 
L 67.4375 72.40625 
L 80.421875 72.40625 
z
" id="IPAexGothic-77"/>
       <path d="M 49.3125 0.984375 
L 41.75 0.984375 
Q 39.984375 4.734375 39.546875 8.6875 
L 39.203125 8.6875 
Q 33.546875 -0.390625 22.3125 -0.390625 
Q 14.59375 -0.390625 9.71875 4.5 
Q 5.421875 8.796875 5.421875 14.984375 
Q 5.421875 30.421875 32.03125 31.203125 
L 38.71875 31.390625 
L 38.71875 33.984375 
Q 38.71875 39.203125 35.75 42.1875 
Q 32.625 45.3125 27.734375 45.3125 
Q 19.34375 45.3125 15.140625 37.15625 
L 7.71875 40.578125 
Q 14.65625 52 27.9375 52 
Q 37.109375 52 42.046875 46.875 
Q 46.625 42.28125 46.625 33.890625 
L 46.625 15.578125 
Q 46.625 6.25 49.3125 0.984375 
z
M 38.921875 25.390625 
L 33.453125 25.296875 
Q 14.109375 24.859375 14.109375 14.890625 
Q 14.109375 11.375 16.40625 9.078125 
Q 19.234375 6.296875 23.828125 6.296875 
Q 30.21875 6.296875 34.90625 10.984375 
Q 38.921875 15.140625 38.921875 21 
z
" id="IPAexGothic-97"/>
       <path d="M 36.078125 51.8125 
L 34.578125 43.265625 
Q 32.90625 43.609375 31.59375 43.609375 
Q 25.828125 43.609375 22.078125 38.1875 
Q 17.390625 31.34375 17.390625 26.171875 
L 17.390625 0.984375 
L 8.796875 0.984375 
L 8.796875 50.78125 
L 16.890625 50.78125 
L 16.5 35.984375 
L 16.703125 35.984375 
Q 22.21875 52.203125 32.765625 52.203125 
Q 34.46875 52.203125 36.078125 51.8125 
z
" id="IPAexGothic-114"/>
      </defs>
      <g transform="translate(209.322032 298.29325)scale(0.1 -0.1)">
       <use xlink:href="#IPAexGothic-77"/>
       <use x="90.185547" xlink:href="#IPAexGothic-97"/>
       <use x="145.166016" xlink:href="#IPAexGothic-114"/>
      </g>
     </g>
    </g>
    <g id="xtick_4">
     <g id="line2d_4">
      <g>
       <use style="stroke:#000000;stroke-width:0.8;" x="276.852533" xlink:href="#m6dbd60e067" y="283.802625"/>
      </g>
     </g>
     <g id="text_4">
      <!-- 15 -->
      <g transform="translate(270.554095 298.29325)scale(0.1 -0.1)">
       <use xlink:href="#IPAexGothic-49"/>
       <use x="62.988281" xlink:href="#IPAexGothic-53"/>
      </g>
     </g>
    </g>
    <g id="xtick_5">
     <g id="line2d_5">
      <g>
       <use style="stroke:#000000;stroke-width:0.8;" x="347.792472" xlink:href="#m6dbd60e067" y="283.802625"/>
      </g>
     </g>
     <g id="text_5">
      <!-- Apr -->
      <defs>
       <path d="M 63.375 0.984375 
L 53.8125 0.984375 
L 45.90625 22.015625 
L 17.1875 22.015625 
L 9.421875 0.984375 
L -0.09375 0.984375 
L 28.21875 72.90625 
L 35.296875 72.90625 
z
M 43.40625 29.109375 
L 36.1875 48.09375 
Q 33.203125 56.0625 31.6875 62.5 
L 31.390625 62.5 
Q 29.640625 55.671875 26.8125 48.09375 
L 19.734375 29.109375 
z
" id="IPAexGothic-65"/>
       <path d="M 16.796875 42 
Q 23.828125 52.203125 34.46875 52.203125 
Q 43.265625 52.203125 49.5625 45.90625 
Q 56.890625 38.578125 56.890625 25.6875 
Q 56.890625 13.140625 49.65625 5.8125 
Q 43.359375 -0.484375 34.375 -0.484375 
Q 24.515625 -0.484375 17.28125 7.765625 
L 17.28125 -19 
L 8.796875 -19 
L 8.796875 50.78125 
L 16.796875 50.78125 
z
M 17.28125 30.46875 
L 17.28125 20.171875 
Q 17.28125 14.015625 23.6875 9.375 
Q 27.984375 6.296875 32.90625 6.296875 
Q 38.578125 6.296875 42.578125 10.296875 
Q 47.90625 15.578125 47.90625 25.484375 
Q 47.90625 34.375 43.5 39.984375 
Q 39.109375 45.3125 32.8125 45.3125 
Q 25.875 45.3125 20.90625 38.8125 
Q 17.28125 34.125 17.28125 30.46875 
z
" id="IPAexGothic-112"/>
      </defs>
      <g transform="translate(339.650285 298.29325)scale(0.1 -0.1)">
       <use xlink:href="#IPAexGothic-65"/>
       <use x="63.720703" xlink:href="#IPAexGothic-112"/>
       <use x="125.830078" xlink:href="#IPAexGothic-114"/>
      </g>
     </g>
    </g>
    <g id="text_6">
     <!-- 2020-Apr -->
     <defs>
      <path d="M 57.171875 0.984375 
L 6.984375 0.984375 
L 6.984375 9.28125 
Q 12.890625 23.046875 29.59375 34.421875 
L 32.375 36.28125 
Q 40.921875 42.140625 43.609375 45.40625 
Q 46.6875 49.265625 46.6875 53.8125 
Q 46.6875 58.9375 43.0625 62.546875 
Q 39.0625 66.546875 32.5625 66.546875 
Q 19.53125 66.546875 15.484375 52 
L 7.765625 54.78125 
Q 13.328125 73.828125 33.0625 73.828125 
Q 43.84375 73.828125 50.25 67.4375 
Q 55.859375 61.671875 55.859375 53.515625 
Q 55.859375 47.46875 52.25 42.53125 
Q 48.921875 37.75 36.96875 30.28125 
L 34.859375 29 
Q 19.625 19.578125 15.28125 8.890625 
L 57.171875 8.890625 
z
" id="IPAexGothic-50"/>
      <path d="M 31.84375 73.828125 
Q 45.015625 73.828125 52.09375 61.625 
Q 57.71875 51.953125 57.71875 36.625 
Q 57.71875 21.4375 52.09375 11.578125 
Q 45.125 -0.484375 31.5 -0.484375 
Q 17.921875 -0.484375 10.9375 11.578125 
Q 5.328125 21.4375 5.328125 36.71875 
Q 5.328125 58.015625 15.625 67.71875 
Q 22.171875 73.828125 31.84375 73.828125 
z
M 31.5 66.65625 
Q 23.6875 66.65625 19.1875 58.734375 
Q 14.59375 50.734375 14.59375 36.625 
Q 14.59375 22.75 19.09375 14.796875 
Q 23.640625 6.984375 31.5 6.984375 
Q 40.921875 6.984375 45.453125 18.015625 
Q 48.4375 25.34375 48.4375 37.109375 
Q 48.4375 50.875 43.84375 58.734375 
Q 39.203125 66.65625 31.5 66.65625 
z
" id="IPAexGothic-48"/>
      <path d="M 30.765625 26.609375 
L 4.984375 26.609375 
L 4.984375 34.421875 
L 30.765625 34.421875 
z
" id="IPAexGothic-45"/>
     </defs>
     <g transform="translate(341.50125 310.683875)scale(0.1 -0.1)">
      <use xlink:href="#IPAexGothic-50"/>
      <use x="62.988281" xlink:href="#IPAexGothic-48"/>
      <use x="125.976562" xlink:href="#IPAexGothic-50"/>
      <use x="188.964844" xlink:href="#IPAexGothic-48"/>
      <use x="251.953125" xlink:href="#IPAexGothic-45"/>
      <use x="287.744141" xlink:href="#IPAexGothic-65"/>
      <use x="351.464844" xlink:href="#IPAexGothic-112"/>
      <use x="413.574219" xlink:href="#IPAexGothic-114"/>
     </g>
    </g>
   </g>
   <g id="matplotlib.axis_2">
    <g id="ytick_1">
     <g id="line2d_6">
      <defs>
       <path d="M 0 0 
L -3.5 0 
" id="ma11ea46151" style="stroke:#000000;stroke-width:0.8;"/>
      </defs>
      <g>
       <use style="stroke:#000000;stroke-width:0.8;" x="29.439063" xlink:href="#ma11ea46151" y="283.802625"/>
      </g>
     </g>
     <g id="text_7">
      <!-- 0.0 -->
      <defs>
       <path d="M 18.5 0.984375 
L 7.71875 0.984375 
L 7.71875 11.765625 
L 18.5 11.765625 
z
" id="IPAexGothic-46"/>
      </defs>
      <g transform="translate(7.2 287.547937)scale(0.1 -0.1)">
       <use xlink:href="#IPAexGothic-48"/>
       <use x="62.988281" xlink:href="#IPAexGothic-46"/>
       <use x="89.404297" xlink:href="#IPAexGothic-48"/>
      </g>
     </g>
    </g>
    <g id="ytick_2">
     <g id="line2d_7">
      <g>
       <use style="stroke:#000000;stroke-width:0.8;" x="29.439063" xlink:href="#ma11ea46151" y="241.944787"/>
      </g>
     </g>
     <g id="text_8">
      <!-- 0.2 -->
      <g transform="translate(7.2 245.6901)scale(0.1 -0.1)">
       <use xlink:href="#IPAexGothic-48"/>
       <use x="62.988281" xlink:href="#IPAexGothic-46"/>
       <use x="89.404297" xlink:href="#IPAexGothic-50"/>
      </g>
     </g>
    </g>
    <g id="ytick_3">
     <g id="line2d_8">
      <g>
       <use style="stroke:#000000;stroke-width:0.8;" x="29.439063" xlink:href="#ma11ea46151" y="200.086949"/>
      </g>
     </g>
     <g id="text_9">
      <!-- 0.4 -->
      <defs>
       <path d="M 59.578125 18.109375 
L 47.796875 18.109375 
L 47.796875 0.984375 
L 39.796875 0.984375 
L 39.796875 18.109375 
L 3.078125 18.109375 
L 3.078125 26.125 
L 38.375 73.09375 
L 47.796875 73.09375 
L 47.796875 25.53125 
L 59.578125 25.53125 
z
M 40.28125 64.203125 
L 39.984375 64.203125 
Q 35.59375 57.125 31.296875 51.3125 
L 11.859375 25.53125 
L 39.796875 25.53125 
L 39.796875 49.125 
Q 39.796875 54.390625 40.28125 64.203125 
z
" id="IPAexGothic-52"/>
      </defs>
      <g transform="translate(7.2 203.832262)scale(0.1 -0.1)">
       <use xlink:href="#IPAexGothic-48"/>
       <use x="62.988281" xlink:href="#IPAexGothic-46"/>
       <use x="89.404297" xlink:href="#IPAexGothic-52"/>
      </g>
     </g>
    </g>
    <g id="ytick_4">
     <g id="line2d_9">
      <g>
       <use style="stroke:#000000;stroke-width:0.8;" x="29.439063" xlink:href="#ma11ea46151" y="158.229111"/>
      </g>
     </g>
     <g id="text_10">
      <!-- 0.6 -->
      <defs>
       <path d="M 16.5 36.375 
Q 23.578125 46.578125 34.90625 46.578125 
Q 45.40625 46.578125 51.8125 39.265625 
Q 57.421875 32.90625 57.421875 23.78125 
Q 57.421875 13.8125 51.125 6.78125 
Q 44.578125 -0.484375 34.03125 -0.484375 
Q 21.484375 -0.484375 14.40625 9.078125 
Q 7.515625 18.40625 7.515625 34.8125 
Q 7.515625 53.515625 15.828125 64.203125 
Q 23.34375 73.828125 35.5 73.828125 
Q 49.859375 73.828125 56.390625 62.890625 
L 49.21875 58.984375 
Q 45.21875 66.65625 35.9375 66.65625 
Q 17.484375 66.65625 16.109375 36.375 
z
M 33.453125 39.796875 
Q 26.3125 39.796875 21.625 34.46875 
Q 17.4375 29.6875 17.4375 24.078125 
Q 17.4375 18.0625 21.140625 13.1875 
Q 26.125 6.6875 33.734375 6.6875 
Q 41.703125 6.6875 45.953125 13.1875 
Q 48.828125 17.625 48.828125 23.484375 
Q 48.828125 30.375 45.015625 34.8125 
Q 40.625 39.796875 33.453125 39.796875 
z
" id="IPAexGothic-54"/>
      </defs>
      <g transform="translate(7.2 161.974424)scale(0.1 -0.1)">
       <use xlink:href="#IPAexGothic-48"/>
       <use x="62.988281" xlink:href="#IPAexGothic-46"/>
       <use x="89.404297" xlink:href="#IPAexGothic-54"/>
      </g>
     </g>
    </g>
    <g id="ytick_5">
     <g id="line2d_10">
      <g>
       <use style="stroke:#000000;stroke-width:0.8;" x="29.439063" xlink:href="#ma11ea46151" y="116.371273"/>
      </g>
     </g>
     <g id="text_11">
      <!-- 0.8 -->
      <defs>
       <path d="M 39.703125 37.890625 
Q 57.8125 31.734375 57.8125 18.703125 
Q 57.8125 8.453125 48.4375 3.078125 
Q 41.609375 -0.875 31.5 -0.875 
Q 21.34375 -0.875 14.5 3.078125 
Q 5.421875 8.296875 5.421875 18.40625 
Q 5.421875 31.0625 22.015625 37.203125 
L 22.015625 37.5 
Q 7.515625 42.71875 7.515625 54.828125 
Q 7.515625 64.0625 15.328125 69.625 
Q 21.96875 74.3125 31.546875 74.3125 
Q 42.234375 74.3125 48.921875 68.796875 
Q 55.515625 63.578125 55.515625 55.71875 
Q 55.515625 42.28125 39.703125 38.1875 
z
M 31.59375 41.015625 
Q 46.828125 44.625 46.828125 55.125 
Q 46.828125 61.1875 41.796875 64.84375 
Q 37.703125 67.921875 31.5 67.921875 
Q 25.09375 67.921875 20.796875 64.5 
Q 16.40625 60.890625 16.40625 55.03125 
Q 16.40625 49.21875 21.09375 45.703125 
Q 23.34375 43.890625 26.90625 42.53125 
Q 31 40.875 31.59375 41.015625 
z
M 30.90625 34.515625 
Q 14.40625 30.171875 14.40625 19 
Q 14.40625 12.109375 20.515625 8.6875 
Q 25.09375 6.109375 31.390625 6.109375 
Q 40.234375 6.109375 45.015625 10.890625 
Q 48.53125 14.40625 48.53125 19.53125 
Q 48.53125 24.90625 43.65625 28.90625 
Q 40.765625 31.15625 36.71875 32.8125 
Q 31.984375 34.71875 30.90625 34.515625 
z
" id="IPAexGothic-56"/>
      </defs>
      <g transform="translate(7.2 120.116586)scale(0.1 -0.1)">
       <use xlink:href="#IPAexGothic-48"/>
       <use x="62.988281" xlink:href="#IPAexGothic-46"/>
       <use x="89.404297" xlink:href="#IPAexGothic-56"/>
      </g>
     </g>
    </g>
    <g id="ytick_6">
     <g id="line2d_11">
      <g>
       <use style="stroke:#000000;stroke-width:0.8;" x="29.439063" xlink:href="#ma11ea46151" y="74.513435"/>
      </g>
     </g>
     <g id="text_12">
      <!-- 1.0 -->
      <g transform="translate(7.2 78.258748)scale(0.1 -0.1)">
       <use xlink:href="#IPAexGothic-49"/>
       <use x="62.988281" xlink:href="#IPAexGothic-46"/>
       <use x="89.404297" xlink:href="#IPAexGothic-48"/>
      </g>
     </g>
    </g>
    <g id="ytick_7">
     <g id="line2d_12">
      <g>
       <use style="stroke:#000000;stroke-width:0.8;" x="29.439063" xlink:href="#ma11ea46151" y="32.655597"/>
      </g>
     </g>
     <g id="text_13">
      <!-- 1.2 -->
      <g transform="translate(7.2 36.40091)scale(0.1 -0.1)">
       <use xlink:href="#IPAexGothic-49"/>
       <use x="62.988281" xlink:href="#IPAexGothic-46"/>
       <use x="89.404297" xlink:href="#IPAexGothic-50"/>
      </g>
     </g>
    </g>
    <g id="text_14">
     <!-- 1e6 -->
     <g transform="translate(29.439063 14.690625)scale(0.1 -0.1)">
      <use xlink:href="#IPAexGothic-49"/>
      <use x="62.988281" xlink:href="#IPAexGothic-101"/>
      <use x="119.873047" xlink:href="#IPAexGothic-54"/>
     </g>
    </g>
   </g>
   <g id="patch_234">
    <path d="M 29.439063 283.802625 
L 29.439063 17.690625 
" style="fill:none;stroke:#000000;stroke-linecap:square;stroke-linejoin:miter;stroke-width:0.8;"/>
   </g>
   <g id="patch_235">
    <path d="M 386.559062 283.802625 
L 386.559062 17.690625 
" style="fill:none;stroke:#000000;stroke-linecap:square;stroke-linejoin:miter;stroke-width:0.8;"/>
   </g>
   <g id="patch_236">
    <path d="M 29.439062 283.802625 
L 386.559063 283.802625 
" style="fill:none;stroke:#000000;stroke-linecap:square;stroke-linejoin:miter;stroke-width:0.8;"/>
   </g>
   <g id="patch_237">
    <path d="M 29.439062 17.690625 
L 386.559063 17.690625 
" style="fill:none;stroke:#000000;stroke-linecap:square;stroke-linejoin:miter;stroke-width:0.8;"/>
   </g>
   <g id="legend_1">
    <g id="patch_238">
     <path d="M 36.439063 68.8625 
L 151.284375 68.8625 
Q 153.284375 68.8625 153.284375 66.8625 
L 153.284375 24.690625 
Q 153.284375 22.690625 151.284375 22.690625 
L 36.439063 22.690625 
Q 34.439063 22.690625 34.439063 24.690625 
L 34.439063 66.8625 
Q 34.439063 68.8625 36.439063 68.8625 
z
" style="fill:#ffffff;opacity:0.8;stroke:#cccccc;stroke-linejoin:miter;"/>
    </g>
    <g id="patch_239">
     <path d="M 38.439063 34.18125 
L 58.439063 34.18125 
L 58.439063 27.18125 
L 38.439063 27.18125 
z
" style="fill:#ffbb78;"/>
    </g>
    <g id="text_15">
     <!-- Global Confirmed -->
     <defs>
      <path d="M 68.796875 12.203125 
Q 65.1875 7.71875 58.296875 3.90625 
Q 50.140625 -0.484375 40.484375 -0.484375 
Q 25.09375 -0.484375 15.4375 9.8125 
Q 5.90625 19.921875 5.90625 36.328125 
Q 5.90625 53.21875 15.828125 63.71875 
Q 25.296875 73.828125 39.59375 73.828125 
Q 59.375 73.828125 67.578125 56.6875 
L 59.625 52.984375 
Q 53.46875 66.21875 39.703125 66.21875 
Q 29.546875 66.21875 22.703125 58.5 
Q 15.53125 50.25 15.53125 36.375 
Q 15.53125 23.921875 21.828125 15.96875 
Q 28.8125 7.171875 41.015625 7.171875 
Q 54.046875 7.171875 60.59375 15.09375 
L 60.59375 29 
L 44.671875 29 
L 44.671875 35.796875 
L 68.796875 35.796875 
z
" id="IPAexGothic-71"/>
      <path d="M 17.671875 0.984375 
L 9.078125 0.984375 
L 9.078125 74.90625 
L 17.671875 74.90625 
z
" id="IPAexGothic-108"/>
      <path d="M 29.984375 52.203125 
Q 40.53125 52.203125 47.75 45.125 
Q 55.171875 37.703125 55.171875 25.59375 
Q 55.171875 13.875 47.90625 6.59375 
Q 40.765625 -0.484375 29.984375 -0.484375 
Q 19.1875 -0.484375 12.203125 6.5 
Q 4.890625 13.765625 4.890625 25.875 
Q 4.890625 37.703125 12.3125 45.125 
Q 19.390625 52.203125 29.984375 52.203125 
z
M 29.984375 45.609375 
Q 23.734375 45.609375 19.390625 41.109375 
Q 13.875 35.59375 13.875 25.78125 
Q 13.875 16.109375 19.28125 10.6875 
Q 23.6875 6.296875 29.984375 6.296875 
Q 36.421875 6.296875 40.765625 10.796875 
Q 46.1875 16.21875 46.1875 26.125 
Q 46.1875 35.453125 40.671875 41.109375 
Q 36.1875 45.609375 29.984375 45.609375 
z
" id="IPAexGothic-111"/>
      <path id="IPAexGothic-32"/>
      <path d="M 68.015625 17 
Q 65.328125 10.84375 60.296875 6.6875 
Q 51.765625 -0.484375 39.984375 -0.484375 
Q 24.8125 -0.484375 14.984375 10.203125 
Q 5.90625 20.21875 5.90625 36.421875 
Q 5.90625 53.21875 15.828125 63.71875 
Q 25.296875 73.828125 39.59375 73.828125 
Q 59.578125 73.828125 67.53125 56.6875 
L 59.515625 52.984375 
Q 53.515625 66.21875 39.703125 66.21875 
Q 29.546875 66.21875 22.703125 58.5 
Q 15.53125 50.25 15.53125 36.28125 
Q 15.53125 24.21875 21.625 16.5 
Q 28.765625 7.375 40.046875 7.375 
Q 54 7.375 60.59375 20.609375 
z
" id="IPAexGothic-67"/>
      <path d="M 52 0.984375 
L 43.40625 0.984375 
L 43.40625 31.890625 
Q 43.40625 44.578125 32.90625 44.578125 
Q 22.3125 44.578125 17.390625 31.890625 
L 17.390625 0.984375 
L 8.796875 0.984375 
L 8.796875 50.78125 
L 16.796875 50.78125 
L 16.796875 41.796875 
Q 23.828125 51.8125 34.71875 51.8125 
Q 52 51.8125 52 32.375 
z
" id="IPAexGothic-110"/>
      <path d="M 38.375 72.21875 
L 34.8125 66.3125 
Q 31.109375 69.09375 27.203125 69.09375 
Q 18.5 69.09375 18.5 57.375 
L 18.5 50.78125 
L 32.078125 50.78125 
L 32.078125 44.671875 
L 18.5 44.671875 
L 18.5 0.984375 
L 10.015625 0.984375 
L 10.015625 44.671875 
L 1.90625 44.671875 
L 1.90625 50.78125 
L 10.015625 50.78125 
L 10.015625 57.171875 
Q 10.015625 65.4375 13.921875 70.0625 
Q 18.75 75.6875 26.703125 75.6875 
Q 33.0625 75.6875 38.375 72.21875 
z
" id="IPAexGothic-102"/>
      <path d="M 18.40625 61.375 
L 8.59375 61.375 
L 8.59375 71.390625 
L 18.40625 71.390625 
z
M 17.78125 0.984375 
L 9.1875 0.984375 
L 9.1875 50.78125 
L 17.78125 50.78125 
z
" id="IPAexGothic-105"/>
      <path d="M 78.46875 0.984375 
L 69.875 0.984375 
L 69.875 32.171875 
Q 69.875 44.828125 60.109375 44.828125 
Q 55.46875 44.828125 51.609375 40.53125 
Q 48.875 37.453125 47.796875 32.859375 
L 47.796875 0.984375 
L 39.203125 0.984375 
L 39.203125 32.28125 
Q 39.203125 44.828125 29.984375 44.828125 
Q 25.09375 44.828125 21.390625 40.53125 
Q 17.390625 36.03125 17.390625 31.890625 
L 17.390625 0.984375 
L 8.796875 0.984375 
L 8.796875 50.78125 
L 16.796875 50.78125 
L 16.796875 42.1875 
Q 21.734375 51.8125 31.6875 51.8125 
Q 42.578125 51.8125 46.1875 41.359375 
Q 51.609375 51.8125 61.765625 51.8125 
Q 69.96875 51.8125 74.5625 46 
Q 78.46875 41.21875 78.46875 32.375 
z
" id="IPAexGothic-109"/>
      <path d="M 52.984375 0.984375 
L 45.171875 0.984375 
L 45.171875 9.671875 
Q 38.140625 -0.484375 27.390625 -0.484375 
Q 18.453125 -0.484375 12.3125 5.8125 
Q 4.890625 13.1875 4.890625 25.984375 
Q 4.890625 38.53125 12.0625 45.90625 
Q 18.265625 52.203125 27.390625 52.203125 
Q 37.25 52.203125 44.484375 43.890625 
L 44.484375 74.90625 
L 52.984375 74.90625 
z
M 44.484375 20.359375 
L 44.484375 32.765625 
Q 44.484375 37.703125 38.375 42.28125 
Q 34.078125 45.40625 28.953125 45.40625 
Q 23.1875 45.40625 19.1875 41.40625 
Q 13.875 36.078125 13.875 26.21875 
Q 13.875 17.328125 18.265625 11.71875 
Q 22.515625 6.390625 28.859375 6.390625 
Q 36.28125 6.390625 41.5 13.671875 
Q 44.484375 17.71875 44.484375 20.359375 
z
" id="IPAexGothic-100"/>
     </defs>
     <g transform="translate(66.439063 34.18125)scale(0.1 -0.1)">
      <use xlink:href="#IPAexGothic-71"/>
      <use x="75.292969" xlink:href="#IPAexGothic-108"/>
      <use x="102.294922" xlink:href="#IPAexGothic-111"/>
      <use x="162.695312" xlink:href="#IPAexGothic-98"/>
      <use x="225.097656" xlink:href="#IPAexGothic-97"/>
      <use x="280.078125" xlink:href="#IPAexGothic-108"/>
      <use x="307.080078" xlink:href="#IPAexGothic-32"/>
      <use x="334.082031" xlink:href="#IPAexGothic-67"/>
      <use x="406.591797" xlink:href="#IPAexGothic-111"/>
      <use x="466.992188" xlink:href="#IPAexGothic-110"/>
      <use x="527.392578" xlink:href="#IPAexGothic-102"/>
      <use x="558.007812" xlink:href="#IPAexGothic-105"/>
      <use x="585.009766" xlink:href="#IPAexGothic-114"/>
      <use x="622.021484" xlink:href="#IPAexGothic-109"/>
      <use x="709.130859" xlink:href="#IPAexGothic-101"/>
      <use x="766.015625" xlink:href="#IPAexGothic-100"/>
     </g>
    </g>
    <g id="patch_240">
     <path d="M 38.439063 48.571875 
L 58.439063 48.571875 
L 58.439063 41.571875 
L 38.439063 41.571875 
z
" style="fill:#ff7f0e;"/>
    </g>
    <g id="text_16">
     <!-- China Confirmed -->
     <defs>
      <path d="M 52.296875 0.984375 
L 43.703125 0.984375 
L 43.703125 31.890625 
Q 43.703125 44.578125 33.296875 44.578125 
Q 22.609375 44.578125 17.671875 31.890625 
L 17.671875 0.984375 
L 9.078125 0.984375 
L 9.078125 74.90625 
L 17.671875 74.90625 
L 17.671875 42.28125 
Q 24.46875 51.8125 35.109375 51.8125 
Q 52.296875 51.8125 52.296875 32.375 
z
" id="IPAexGothic-104"/>
     </defs>
     <g transform="translate(66.439063 48.571875)scale(0.1 -0.1)">
      <use xlink:href="#IPAexGothic-67"/>
      <use x="72.509766" xlink:href="#IPAexGothic-104"/>
      <use x="133.203125" xlink:href="#IPAexGothic-105"/>
      <use x="160.205078" xlink:href="#IPAexGothic-110"/>
      <use x="220.605469" xlink:href="#IPAexGothic-97"/>
      <use x="275.585938" xlink:href="#IPAexGothic-32"/>
      <use x="302.587891" xlink:href="#IPAexGothic-67"/>
      <use x="375.097656" xlink:href="#IPAexGothic-111"/>
      <use x="435.498047" xlink:href="#IPAexGothic-110"/>
      <use x="495.898438" xlink:href="#IPAexGothic-102"/>
      <use x="526.513672" xlink:href="#IPAexGothic-105"/>
      <use x="553.515625" xlink:href="#IPAexGothic-114"/>
      <use x="590.527344" xlink:href="#IPAexGothic-109"/>
      <use x="677.636719" xlink:href="#IPAexGothic-101"/>
      <use x="734.521484" xlink:href="#IPAexGothic-100"/>
     </g>
    </g>
    <g id="patch_241">
     <path d="M 38.439063 62.9625 
L 58.439063 62.9625 
L 58.439063 55.9625 
L 38.439063 55.9625 
z
" style="fill:#d62728;"/>
    </g>
    <g id="text_17">
     <!-- Global Deaths -->
     <defs>
      <path d="M 9.515625 72.40625 
L 31 72.40625 
Q 49.359375 72.40625 59.234375 63.28125 
Q 69.625 53.8125 69.625 36.8125 
Q 69.625 16.359375 54.9375 6.890625 
Q 45.703125 0.984375 30.328125 0.984375 
L 9.515625 0.984375 
z
M 18.3125 8.6875 
L 29.59375 8.6875 
Q 60.203125 8.6875 60.203125 36.8125 
Q 60.203125 64.796875 30.125 64.796875 
L 18.3125 64.796875 
z
" id="IPAexGothic-68"/>
      <path d="M 33.203125 3.765625 
Q 27.640625 -0.09375 21.828125 -0.09375 
Q 10.203125 -0.09375 10.203125 12.984375 
L 10.203125 44.671875 
L 3.421875 44.671875 
L 3.421875 50.78125 
L 10.203125 50.78125 
L 10.203125 61.96875 
L 18.40625 66.0625 
L 18.40625 50.78125 
L 32.234375 50.78125 
L 32.234375 44.671875 
L 18.40625 44.671875 
L 18.40625 14.15625 
Q 18.40625 6.5 23.640625 6.5 
Q 27.15625 6.5 30.328125 9.1875 
z
" id="IPAexGothic-116"/>
      <path d="M 34.90625 39.796875 
Q 30.28125 45.796875 23.1875 45.796875 
Q 13.921875 45.796875 13.921875 38.671875 
Q 13.921875 33.640625 23.921875 30.375 
L 27.203125 29.296875 
Q 41.40625 24.65625 41.40625 13.96875 
Q 41.40625 6.78125 35.5 2.6875 
Q 30.8125 -0.484375 23.390625 -0.484375 
Q 11.96875 -0.484375 4 7.859375 
L 9.421875 12.796875 
Q 15.578125 6.203125 23.6875 6.203125 
Q 33.296875 6.203125 33.296875 13.671875 
Q 33.296875 19.34375 22.703125 23.09375 
L 19.28125 24.265625 
Q 5.90625 28.953125 5.90625 37.984375 
Q 5.90625 43.703125 9.8125 47.609375 
Q 14.5 52.296875 22.703125 52.296875 
Q 33.6875 52.296875 40.71875 44.671875 
z
" id="IPAexGothic-115"/>
     </defs>
     <g transform="translate(66.439063 62.9625)scale(0.1 -0.1)">
      <use xlink:href="#IPAexGothic-71"/>
      <use x="75.292969" xlink:href="#IPAexGothic-108"/>
      <use x="102.294922" xlink:href="#IPAexGothic-111"/>
      <use x="162.695312" xlink:href="#IPAexGothic-98"/>
      <use x="225.097656" xlink:href="#IPAexGothic-97"/>
      <use x="280.078125" xlink:href="#IPAexGothic-108"/>
      <use x="307.080078" xlink:href="#IPAexGothic-32"/>
      <use x="334.082031" xlink:href="#IPAexGothic-68"/>
      <use x="409.765625" xlink:href="#IPAexGothic-101"/>
      <use x="466.650391" xlink:href="#IPAexGothic-97"/>
      <use x="521.630859" xlink:href="#IPAexGothic-116"/>
      <use x="556.25" xlink:href="#IPAexGothic-104"/>
      <use x="616.943359" xlink:href="#IPAexGothic-115"/>
     </g>
    </g>
   </g>
  </g>
 </g>
 <defs>
  <clipPath id="p424109918c">
   <rect height="266.112" width="357.12" x="29.439063" y="17.690625"/>
  </clipPath>
 </defs>
</svg>
