<?xml version="1.0" encoding="utf-8" standalone="no"?>
<!DOCTYPE svg PUBLIC "-//W3C//DTD SVG 1.1//EN"
  "http://www.w3.org/Graphics/SVG/1.1/DTD/svg11.dtd">
<!-- Created with matplotlib (https://matplotlib.org/) -->
<svg height="319.783875pt" version="1.1" viewBox="0 0 393.759062 319.783875" width="393.759062pt" xmlns="http://www.w3.org/2000/svg" xmlns:xlink="http://www.w3.org/1999/xlink">
 <defs>
  <style type="text/css">
*{stroke-linecap:butt;stroke-linejoin:round;}
  </style>
 </defs>
 <g id="figure_1">
  <g id="patch_1">
   <path d="M 0 319.783875 
L 393.759062 319.783875 
L 393.759062 0 
L 0 0 
z
" style="fill:#ffffff;"/>
  </g>
  <g id="axes_1">
   <g id="patch_2">
    <path d="M 29.439063 283.802625 
L 386.559062 283.802625 
L 386.559062 17.690625 
L 29.439063 17.690625 
z
" style="fill:#ffffff;"/>
   </g>
   <g id="patch_3">
    <path clip-path="url(#pa688dc516c)" d="M 45.67179 283.802625 
L 48.248413 283.802625 
L 48.248413 283.778951 
L 45.67179 283.778951 
z
" style="fill:#ffbb78;"/>
   </g>
   <g id="patch_4">
    <path clip-path="url(#pa688dc516c)" d="M 48.892569 283.802625 
L 51.469192 283.802625 
L 51.469192 283.776265 
L 48.892569 283.776265 
z
" style="fill:#ffbb78;"/>
   </g>
   <g id="patch_5">
    <path clip-path="url(#pa688dc516c)" d="M 55.334127 283.802625 
L 57.910751 283.802625 
L 57.910751 283.75385 
L 55.334127 283.75385 
z
" style="fill:#ffbb78;"/>
   </g>
   <g id="patch_6">
    <path clip-path="url(#pa688dc516c)" d="M 58.554907 283.802625 
L 61.13153 283.802625 
L 61.13153 283.731604 
L 58.554907 283.731604 
z
" style="fill:#ffbb78;"/>
   </g>
   <g id="patch_7">
    <path clip-path="url(#pa688dc516c)" d="M 61.775686 283.802625 
L 64.352309 283.802625 
L 64.352309 283.691811 
L 61.775686 283.691811 
z
" style="fill:#ffbb78;"/>
   </g>
   <g id="patch_8">
    <path clip-path="url(#pa688dc516c)" d="M 64.996465 283.802625 
L 67.573088 283.802625 
L 67.573088 283.63355 
L 64.996465 283.63355 
z
" style="fill:#ffbb78;"/>
   </g>
   <g id="patch_9">
    <path clip-path="url(#pa688dc516c)" d="M 68.217244 283.802625 
L 70.793868 283.802625 
L 70.793868 283.567734 
L 68.217244 283.567734 
z
" style="fill:#ffbb78;"/>
   </g>
   <g id="patch_10">
    <path clip-path="url(#pa688dc516c)" d="M 71.438024 283.802625 
L 74.014647 283.802625 
L 74.014647 283.417044 
L 71.438024 283.417044 
z
" style="fill:#ffbb78;"/>
   </g>
   <g id="patch_11">
    <path clip-path="url(#pa688dc516c)" d="M 74.658803 283.802625 
L 77.235426 283.802625 
L 77.235426 283.29347 
L 74.658803 283.29347 
z
" style="fill:#ffbb78;"/>
   </g>
   <g id="patch_12">
    <path clip-path="url(#pa688dc516c)" d="M 77.879582 283.802625 
L 80.456205 283.802625 
L 80.456205 283.146307 
L 77.879582 283.146307 
z
" style="fill:#ffbb78;"/>
   </g>
   <g id="patch_13">
    <path clip-path="url(#pa688dc516c)" d="M 81.100361 283.802625 
L 83.676985 283.802625 
L 83.676985 282.977736 
L 81.100361 282.977736 
z
" style="fill:#ffbb78;"/>
   </g>
   <g id="patch_14">
    <path clip-path="url(#pa688dc516c)" d="M 84.32114 283.802625 
L 86.897764 283.802625 
L 86.897764 282.799175 
L 84.32114 282.799175 
z
" style="fill:#ffbb78;"/>
   </g>
   <g id="patch_15">
    <path clip-path="url(#pa688dc516c)" d="M 87.54192 283.802625 
L 90.118543 283.802625 
L 90.118543 282.58057 
L 87.54192 282.58057 
z
" style="fill:#ffbb78;"/>
   </g>
   <g id="patch_16">
    <path clip-path="url(#pa688dc516c)" d="M 90.762699 283.802625 
L 93.339322 283.802625 
L 93.339322 282.342656 
L 90.762699 282.342656 
z
" style="fill:#ffbb78;"/>
   </g>
   <g id="patch_17">
    <path clip-path="url(#pa688dc516c)" d="M 93.983478 283.802625 
L 96.560101 283.802625 
L 96.560101 282.070743 
L 93.983478 282.070743 
z
" style="fill:#ffbb78;"/>
   </g>
   <g id="patch_18">
    <path clip-path="url(#pa688dc516c)" d="M 97.204257 283.802625 
L 99.780881 283.802625 
L 99.780881 281.741325 
L 97.204257 281.741325 
z
" style="fill:#ffbb78;"/>
   </g>
   <g id="patch_19">
    <path clip-path="url(#pa688dc516c)" d="M 100.425037 283.802625 
L 103.00166 283.802625 
L 103.00166 281.428864 
L 100.425037 281.428864 
z
" style="fill:#ffbb78;"/>
   </g>
   <g id="patch_20">
    <path clip-path="url(#pa688dc516c)" d="M 103.645816 283.802625 
L 106.222439 283.802625 
L 106.222439 281.159806 
L 103.645816 281.159806 
z
" style="fill:#ffbb78;"/>
   </g>
   <g id="patch_21">
    <path clip-path="url(#pa688dc516c)" d="M 106.866595 283.802625 
L 109.443218 283.802625 
L 109.443218 280.873957 
L 106.866595 280.873957 
z
" style="fill:#ffbb78;"/>
   </g>
   <g id="patch_22">
    <path clip-path="url(#pa688dc516c)" d="M 110.087374 283.802625 
L 112.663998 283.802625 
L 112.663998 280.649644 
L 110.087374 280.649644 
z
" style="fill:#ffbb78;"/>
   </g>
   <g id="patch_23">
    <path clip-path="url(#pa688dc516c)" d="M 113.308153 283.802625 
L 115.884777 283.802625 
L 115.884777 280.39813 
L 113.308153 280.39813 
z
" style="fill:#ffbb78;"/>
   </g>
   <g id="patch_24">
    <path clip-path="url(#pa688dc516c)" d="M 116.528933 283.802625 
L 119.105556 283.802625 
L 119.105556 280.184143 
L 116.528933 280.184143 
z
" style="fill:#ffbb78;"/>
   </g>
   <g id="patch_25">
    <path clip-path="url(#pa688dc516c)" d="M 119.749712 283.802625 
L 122.326335 283.802625 
L 122.326335 280.010535 
L 119.749712 280.010535 
z
" style="fill:#ffbb78;"/>
   </g>
   <g id="patch_26">
    <path clip-path="url(#pa688dc516c)" d="M 122.970491 283.802625 
L 125.547114 283.802625 
L 125.547114 279.857243 
L 122.970491 279.857243 
z
" style="fill:#ffbb78;"/>
   </g>
   <g id="patch_27">
    <path clip-path="url(#pa688dc516c)" d="M 126.19127 283.802625 
L 128.767894 283.802625 
L 128.767894 279.684642 
L 126.19127 279.684642 
z
" style="fill:#ffbb78;"/>
   </g>
   <g id="patch_28">
    <path clip-path="url(#pa688dc516c)" d="M 129.41205 283.802625 
L 131.988673 283.802625 
L 131.988673 279.556451 
L 129.41205 279.556451 
z
" style="fill:#ffbb78;"/>
   </g>
   <g id="patch_29">
    <path clip-path="url(#pa688dc516c)" d="M 132.632829 283.802625 
L 135.209452 283.802625 
L 135.209452 279.449247 
L 132.632829 279.449247 
z
" style="fill:#ffbb78;"/>
   </g>
   <g id="patch_30">
    <path clip-path="url(#pa688dc516c)" d="M 135.853608 283.802625 
L 138.430231 283.802625 
L 138.430231 277.806185 
L 135.853608 277.806185 
z
" style="fill:#ffbb78;"/>
   </g>
   <g id="patch_31">
    <path clip-path="url(#pa688dc516c)" d="M 139.074387 283.802625 
L 141.651011 283.802625 
L 141.651011 277.646428 
L 139.074387 277.646428 
z
" style="fill:#ffbb78;"/>
   </g>
   <g id="patch_32">
    <path clip-path="url(#pa688dc516c)" d="M 142.295166 283.802625 
L 144.87179 283.802625 
L 144.87179 277.489275 
L 142.295166 277.489275 
z
" style="fill:#ffbb78;"/>
   </g>
   <g id="patch_33">
    <path clip-path="url(#pa688dc516c)" d="M 145.515946 283.802625 
L 148.092569 283.802625 
L 148.092569 277.443606 
L 145.515946 277.443606 
z
" style="fill:#ffbb78;"/>
   </g>
   <g id="patch_34">
    <path clip-path="url(#pa688dc516c)" d="M 148.736725 283.802625 
L 151.313348 283.802625 
L 151.313348 277.357893 
L 148.736725 277.357893 
z
" style="fill:#ffbb78;"/>
   </g>
   <g id="patch_35">
    <path clip-path="url(#pa688dc516c)" d="M 151.957504 283.802625 
L 154.534127 283.802625 
L 154.534127 277.271845 
L 151.957504 277.271845 
z
" style="fill:#ffbb78;"/>
   </g>
   <g id="patch_36">
    <path clip-path="url(#pa688dc516c)" d="M 155.178283 283.802625 
L 157.754907 283.802625 
L 157.754907 277.186468 
L 155.178283 277.186468 
z
" style="fill:#ffbb78;"/>
   </g>
   <g id="patch_37">
    <path clip-path="url(#pa688dc516c)" d="M 158.399062 283.802625 
L 160.975686 283.802625 
L 160.975686 277.142814 
L 158.399062 277.142814 
z
" style="fill:#ffbb78;"/>
   </g>
   <g id="patch_38">
    <path clip-path="url(#pa688dc516c)" d="M 161.619842 283.802625 
L 164.196465 283.802625 
L 164.196465 277.066588 
L 161.619842 277.066588 
z
" style="fill:#ffbb78;"/>
   </g>
   <g id="patch_39">
    <path clip-path="url(#pa688dc516c)" d="M 164.840621 283.802625 
L 167.417244 283.802625 
L 167.417244 276.993552 
L 164.840621 276.993552 
z
" style="fill:#ffbb78;"/>
   </g>
   <g id="patch_40">
    <path clip-path="url(#pa688dc516c)" d="M 168.0614 283.802625 
L 170.638024 283.802625 
L 170.638024 276.894072 
L 168.0614 276.894072 
z
" style="fill:#ffbb78;"/>
   </g>
   <g id="patch_41">
    <path clip-path="url(#pa688dc516c)" d="M 171.282179 283.802625 
L 173.858803 283.802625 
L 173.858803 276.780068 
L 171.282179 276.780068 
z
" style="fill:#ffbb78;"/>
   </g>
   <g id="patch_42">
    <path clip-path="url(#pa688dc516c)" d="M 174.502959 283.802625 
L 177.079582 283.802625 
L 177.079582 276.633072 
L 174.502959 276.633072 
z
" style="fill:#ffbb78;"/>
   </g>
   <g id="patch_43">
    <path clip-path="url(#pa688dc516c)" d="M 177.723738 283.802625 
L 180.300361 283.802625 
L 180.300361 276.487503 
L 177.723738 276.487503 
z
" style="fill:#ffbb78;"/>
   </g>
   <g id="patch_44">
    <path clip-path="url(#pa688dc516c)" d="M 180.944517 283.802625 
L 183.52114 283.802625 
L 183.52114 276.33547 
L 180.944517 276.33547 
z
" style="fill:#ffbb78;"/>
   </g>
   <g id="patch_45">
    <path clip-path="url(#pa688dc516c)" d="M 184.165296 283.802625 
L 186.74192 283.802625 
L 186.74192 276.174119 
L 184.165296 276.174119 
z
" style="fill:#ffbb78;"/>
   </g>
   <g id="patch_46">
    <path clip-path="url(#pa688dc516c)" d="M 187.386075 283.802625 
L 189.962699 283.802625 
L 189.962699 275.987751 
L 187.386075 275.987751 
z
" style="fill:#ffbb78;"/>
   </g>
   <g id="patch_47">
    <path clip-path="url(#pa688dc516c)" d="M 190.606855 283.802625 
L 193.183478 283.802625 
L 193.183478 275.799452 
L 190.606855 275.799452 
z
" style="fill:#ffbb78;"/>
   </g>
   <g id="patch_48">
    <path clip-path="url(#pa688dc516c)" d="M 193.827634 283.802625 
L 196.404257 283.802625 
L 196.404257 275.55944 
L 193.827634 275.55944 
z
" style="fill:#ffbb78;"/>
   </g>
   <g id="patch_49">
    <path clip-path="url(#pa688dc516c)" d="M 197.048413 283.802625 
L 199.625037 283.802625 
L 199.625037 275.245888 
L 197.048413 275.245888 
z
" style="fill:#ffbb78;"/>
   </g>
   <g id="patch_50">
    <path clip-path="url(#pa688dc516c)" d="M 200.269192 283.802625 
L 202.845816 283.802625 
L 202.845816 274.938716 
L 200.269192 274.938716 
z
" style="fill:#ffbb78;"/>
   </g>
   <g id="patch_51">
    <path clip-path="url(#pa688dc516c)" d="M 203.489972 283.802625 
L 206.066595 283.802625 
L 206.066595 274.603673 
L 203.489972 274.603673 
z
" style="fill:#ffbb78;"/>
   </g>
   <g id="patch_52">
    <path clip-path="url(#pa688dc516c)" d="M 206.710751 283.802625 
L 209.287374 283.802625 
L 209.287374 274.257381 
L 206.710751 274.257381 
z
" style="fill:#ffbb78;"/>
   </g>
   <g id="patch_53">
    <path clip-path="url(#pa688dc516c)" d="M 209.93153 283.802625 
L 212.508153 283.802625 
L 212.508153 273.869197 
L 209.93153 273.869197 
z
" style="fill:#ffbb78;"/>
   </g>
   <g id="patch_54">
    <path clip-path="url(#pa688dc516c)" d="M 213.152309 283.802625 
L 215.728933 283.802625 
L 215.728933 273.304888 
L 213.152309 273.304888 
z
" style="fill:#ffbb78;"/>
   </g>
   <g id="patch_55">
    <path clip-path="url(#pa688dc516c)" d="M 216.373088 283.802625 
L 218.949712 283.802625 
L 218.949712 272.657636 
L 216.373088 272.657636 
z
" style="fill:#ffbb78;"/>
   </g>
   <g id="patch_56">
    <path clip-path="url(#pa688dc516c)" d="M 219.593868 283.802625 
L 222.170491 283.802625 
L 222.170491 271.836524 
L 219.593868 271.836524 
z
" style="fill:#ffbb78;"/>
   </g>
   <g id="patch_57">
    <path clip-path="url(#pa688dc516c)" d="M 222.814647 283.802625 
L 225.39127 283.802625 
L 225.39127 270.914925 
L 222.814647 270.914925 
z
" style="fill:#ffbb78;"/>
   </g>
   <g id="patch_58">
    <path clip-path="url(#pa688dc516c)" d="M 226.035426 283.802625 
L 228.61205 283.802625 
L 228.61205 269.740133 
L 226.035426 269.740133 
z
" style="fill:#ffbb78;"/>
   </g>
   <g id="patch_59">
    <path clip-path="url(#pa688dc516c)" d="M 229.256205 283.802625 
L 231.832829 283.802625 
L 231.832829 268.766233 
L 229.256205 268.766233 
z
" style="fill:#ffbb78;"/>
   </g>
   <g id="patch_60">
    <path clip-path="url(#pa688dc516c)" d="M 232.476985 283.802625 
L 235.053608 283.802625 
L 235.053608 267.757578 
L 232.476985 267.757578 
z
" style="fill:#ffbb78;"/>
   </g>
   <g id="patch_61">
    <path clip-path="url(#pa688dc516c)" d="M 235.697764 283.802625 
L 238.274387 283.802625 
L 238.274387 266.186712 
L 235.697764 266.186712 
z
" style="fill:#ffbb78;"/>
   </g>
   <g id="patch_62">
    <path clip-path="url(#pa688dc516c)" d="M 238.918543 283.802625 
L 241.495166 283.802625 
L 241.495166 264.152276 
L 238.918543 264.152276 
z
" style="fill:#ffbb78;"/>
   </g>
   <g id="patch_63">
    <path clip-path="url(#pa688dc516c)" d="M 242.139322 283.802625 
L 244.715946 283.802625 
L 244.715946 261.465887 
L 242.139322 261.465887 
z
" style="fill:#ffbb78;"/>
   </g>
   <g id="patch_64">
    <path clip-path="url(#pa688dc516c)" d="M 245.360101 283.802625 
L 247.936725 283.802625 
L 247.936725 259.277403 
L 245.360101 259.277403 
z
" style="fill:#ffbb78;"/>
   </g>
   <g id="patch_65">
    <path clip-path="url(#pa688dc516c)" d="M 248.580881 283.802625 
L 251.157504 283.802625 
L 251.157504 255.853264 
L 248.580881 255.853264 
z
" style="fill:#ffbb78;"/>
   </g>
   <g id="patch_66">
    <path clip-path="url(#pa688dc516c)" d="M 251.80166 283.802625 
L 254.378283 283.802625 
L 254.378283 252.509801 
L 251.80166 252.509801 
z
" style="fill:#ffbb78;"/>
   </g>
   <g id="patch_67">
    <path clip-path="url(#pa688dc516c)" d="M 255.022439 283.802625 
L 257.599062 283.802625 
L 257.599062 249.032438 
L 255.022439 249.032438 
z
" style="fill:#ffbb78;"/>
   </g>
   <g id="patch_68">
    <path clip-path="url(#pa688dc516c)" d="M 258.243218 283.802625 
L 260.819842 283.802625 
L 260.819842 244.96046 
L 258.243218 244.96046 
z
" style="fill:#ffbb78;"/>
   </g>
   <g id="patch_69">
    <path clip-path="url(#pa688dc516c)" d="M 261.463998 283.802625 
L 264.040621 283.802625 
L 264.040621 241.058479 
L 261.463998 241.058479 
z
" style="fill:#ffbb78;"/>
   </g>
   <g id="patch_70">
    <path clip-path="url(#pa688dc516c)" d="M 264.684777 283.802625 
L 267.2614 283.802625 
L 267.2614 235.81045 
L 264.684777 235.81045 
z
" style="fill:#ffbb78;"/>
   </g>
   <g id="patch_71">
    <path clip-path="url(#pa688dc516c)" d="M 267.905556 283.802625 
L 270.482179 283.802625 
L 270.482179 230.508441 
L 267.905556 230.508441 
z
" style="fill:#ffbb78;"/>
   </g>
   <g id="patch_72">
    <path clip-path="url(#pa688dc516c)" d="M 271.126335 283.802625 
L 273.702959 283.802625 
L 273.702959 225.606705 
L 271.126335 225.606705 
z
" style="fill:#ffbb78;"/>
   </g>
   <g id="patch_73">
    <path clip-path="url(#pa688dc516c)" d="M 274.347114 283.802625 
L 276.923738 283.802625 
L 276.923738 220.765663 
L 274.347114 220.765663 
z
" style="fill:#ffbb78;"/>
   </g>
   <g id="patch_74">
    <path clip-path="url(#pa688dc516c)" d="M 277.567894 283.802625 
L 280.144517 283.802625 
L 280.144517 214.659501 
L 277.567894 214.659501 
z
" style="fill:#ffbb78;"/>
   </g>
   <g id="patch_75">
    <path clip-path="url(#pa688dc516c)" d="M 280.788673 283.802625 
L 283.365296 283.802625 
L 283.365296 208.54595 
L 280.788673 208.54595 
z
" style="fill:#ffbb78;"/>
   </g>
   <g id="patch_76">
    <path clip-path="url(#pa688dc516c)" d="M 284.009452 283.802625 
L 286.586075 283.802625 
L 286.586075 202.178117 
L 284.009452 202.178117 
z
" style="fill:#ffbb78;"/>
   </g>
   <g id="patch_77">
    <path clip-path="url(#pa688dc516c)" d="M 287.230231 283.802625 
L 289.806855 283.802625 
L 289.806855 195.518222 
L 287.230231 195.518222 
z
" style="fill:#ffbb78;"/>
   </g>
   <g id="patch_78">
    <path clip-path="url(#pa688dc516c)" d="M 290.451011 283.802625 
L 293.027634 283.802625 
L 293.027634 188.624024 
L 290.451011 188.624024 
z
" style="fill:#ffbb78;"/>
   </g>
   <g id="patch_79">
    <path clip-path="url(#pa688dc516c)" d="M 293.67179 283.802625 
L 296.248413 283.802625 
L 296.248413 182.143278 
L 293.67179 182.143278 
z
" style="fill:#ffbb78;"/>
   </g>
   <g id="patch_80">
    <path clip-path="url(#pa688dc516c)" d="M 296.892569 283.802625 
L 299.469192 283.802625 
L 299.469192 176.370396 
L 296.892569 176.370396 
z
" style="fill:#ffbb78;"/>
   </g>
   <g id="patch_81">
    <path clip-path="url(#pa688dc516c)" d="M 300.113348 283.802625 
L 302.689972 283.802625 
L 302.689972 170.188426 
L 300.113348 170.188426 
z
" style="fill:#ffbb78;"/>
   </g>
   <g id="patch_82">
    <path clip-path="url(#pa688dc516c)" d="M 303.334127 283.802625 
L 305.910751 283.802625 
L 305.910751 163.234288 
L 303.334127 163.234288 
z
" style="fill:#ffbb78;"/>
   </g>
   <g id="patch_83">
    <path clip-path="url(#pa688dc516c)" d="M 306.554907 283.802625 
L 309.13153 283.802625 
L 309.13153 156.094034 
L 306.554907 156.094034 
z
" style="fill:#ffbb78;"/>
   </g>
   <g id="patch_84">
    <path clip-path="url(#pa688dc516c)" d="M 309.775686 283.802625 
L 312.352309 283.802625 
L 312.352309 148.567359 
L 309.775686 148.567359 
z
" style="fill:#ffbb78;"/>
   </g>
   <g id="patch_85">
    <path clip-path="url(#pa688dc516c)" d="M 312.996465 283.802625 
L 315.573088 283.802625 
L 315.573088 141.374636 
L 312.996465 141.374636 
z
" style="fill:#ffbb78;"/>
   </g>
   <g id="patch_86">
    <path clip-path="url(#pa688dc516c)" d="M 316.217244 283.802625 
L 318.793868 283.802625 
L 318.793868 134.952822 
L 316.217244 134.952822 
z
" style="fill:#ffbb78;"/>
   </g>
   <g id="patch_87">
    <path clip-path="url(#pa688dc516c)" d="M 319.438024 283.802625 
L 322.014647 283.802625 
L 322.014647 128.927 
L 319.438024 128.927 
z
" style="fill:#ffbb78;"/>
   </g>
   <g id="patch_88">
    <path clip-path="url(#pa688dc516c)" d="M 322.658803 283.802625 
L 325.235426 283.802625 
L 325.235426 123.046074 
L 322.658803 123.046074 
z
" style="fill:#ffbb78;"/>
   </g>
   <g id="patch_89">
    <path clip-path="url(#pa688dc516c)" d="M 325.879582 283.802625 
L 328.456205 283.802625 
L 328.456205 116.611668 
L 325.879582 116.611668 
z
" style="fill:#ffbb78;"/>
   </g>
   <g id="patch_90">
    <path clip-path="url(#pa688dc516c)" d="M 329.100361 283.802625 
L 331.676985 283.802625 
L 331.676985 109.646617 
L 329.100361 109.646617 
z
" style="fill:#ffbb78;"/>
   </g>
   <g id="patch_91">
    <path clip-path="url(#pa688dc516c)" d="M 332.32114 283.802625 
L 334.897764 283.802625 
L 334.897764 102.453977 
L 332.32114 102.453977 
z
" style="fill:#ffbb78;"/>
   </g>
   <g id="patch_92">
    <path clip-path="url(#pa688dc516c)" d="M 335.54192 283.802625 
L 338.118543 283.802625 
L 338.118543 95.641295 
L 335.54192 95.641295 
z
" style="fill:#ffbb78;"/>
   </g>
   <g id="patch_93">
    <path clip-path="url(#pa688dc516c)" d="M 338.762699 283.802625 
L 341.339322 283.802625 
L 341.339322 89.490974 
L 338.762699 89.490974 
z
" style="fill:#ffbb78;"/>
   </g>
   <g id="patch_94">
    <path clip-path="url(#pa688dc516c)" d="M 341.983478 283.802625 
L 344.560101 283.802625 
L 344.560101 82.557152 
L 341.983478 82.557152 
z
" style="fill:#ffbb78;"/>
   </g>
   <g id="patch_95">
    <path clip-path="url(#pa688dc516c)" d="M 345.204257 283.802625 
L 347.780881 283.802625 
L 347.780881 76.351593 
L 345.204257 76.351593 
z
" style="fill:#ffbb78;"/>
   </g>
   <g id="patch_96">
    <path clip-path="url(#pa688dc516c)" d="M 348.425037 283.802625 
L 351.00166 283.802625 
L 351.00166 70.168197 
L 348.425037 70.168197 
z
" style="fill:#ffbb78;"/>
   </g>
   <g id="patch_97">
    <path clip-path="url(#pa688dc516c)" d="M 351.645816 283.802625 
L 354.222439 283.802625 
L 354.222439 63.323865 
L 351.645816 63.323865 
z
" style="fill:#ffbb78;"/>
   </g>
   <g id="patch_98">
    <path clip-path="url(#pa688dc516c)" d="M 354.866595 283.802625 
L 357.443218 283.802625 
L 357.443218 55.468191 
L 354.866595 55.468191 
z
" style="fill:#ffbb78;"/>
   </g>
   <g id="patch_99">
    <path clip-path="url(#pa688dc516c)" d="M 358.087374 283.802625 
L 360.663998 283.802625 
L 360.663998 48.340949 
L 358.087374 48.340949 
z
" style="fill:#ffbb78;"/>
   </g>
   <g id="patch_100">
    <path clip-path="url(#pa688dc516c)" d="M 361.308153 283.802625 
L 363.884777 283.802625 
L 363.884777 42.179044 
L 361.308153 42.179044 
z
" style="fill:#ffbb78;"/>
   </g>
   <g id="patch_101">
    <path clip-path="url(#pa688dc516c)" d="M 364.528933 283.802625 
L 367.105556 283.802625 
L 367.105556 35.796687 
L 364.528933 35.796687 
z
" style="fill:#ffbb78;"/>
   </g>
   <g id="patch_102">
    <path clip-path="url(#pa688dc516c)" d="M 367.749712 283.802625 
L 370.326335 283.802625 
L 370.326335 30.362625 
L 367.749712 30.362625 
z
" style="fill:#ffbb78;"/>
   </g>
   <g id="patch_103">
    <path clip-path="url(#pa688dc516c)" d="M 45.67179 283.802625 
L 48.248413 283.802625 
L 48.248413 283.779287 
L 45.67179 283.779287 
z
" style="fill:#ff7f0e;"/>
   </g>
   <g id="patch_104">
    <path clip-path="url(#pa688dc516c)" d="M 48.892569 283.802625 
L 51.469192 283.802625 
L 51.469192 283.776685 
L 48.892569 283.776685 
z
" style="fill:#ff7f0e;"/>
   </g>
   <g id="patch_105">
    <path clip-path="url(#pa688dc516c)" d="M 55.334127 283.802625 
L 57.910751 283.802625 
L 57.910751 283.75469 
L 55.334127 283.75469 
z
" style="fill:#ff7f0e;"/>
   </g>
   <g id="patch_106">
    <path clip-path="url(#pa688dc516c)" d="M 58.554907 283.802625 
L 61.13153 283.802625 
L 61.13153 283.732947 
L 58.554907 283.732947 
z
" style="fill:#ff7f0e;"/>
   </g>
   <g id="patch_107">
    <path clip-path="url(#pa688dc516c)" d="M 61.775686 283.802625 
L 64.352309 283.802625 
L 64.352309 283.693742 
L 61.775686 283.693742 
z
" style="fill:#ff7f0e;"/>
   </g>
   <g id="patch_108">
    <path clip-path="url(#pa688dc516c)" d="M 64.996465 283.802625 
L 67.573088 283.802625 
L 67.573088 283.635985 
L 64.996465 283.635985 
z
" style="fill:#ff7f0e;"/>
   </g>
   <g id="patch_109">
    <path clip-path="url(#pa688dc516c)" d="M 68.217244 283.802625 
L 70.793868 283.802625 
L 70.793868 283.572519 
L 68.217244 283.572519 
z
" style="fill:#ff7f0e;"/>
   </g>
   <g id="patch_110">
    <path clip-path="url(#pa688dc516c)" d="M 71.438024 283.802625 
L 74.014647 283.802625 
L 74.014647 283.421745 
L 71.438024 283.421745 
z
" style="fill:#ff7f0e;"/>
   </g>
   <g id="patch_111">
    <path clip-path="url(#pa688dc516c)" d="M 74.658803 283.802625 
L 77.235426 283.802625 
L 77.235426 283.299179 
L 74.658803 283.299179 
z
" style="fill:#ff7f0e;"/>
   </g>
   <g id="patch_112">
    <path clip-path="url(#pa688dc516c)" d="M 77.879582 283.802625 
L 80.456205 283.802625 
L 80.456205 283.15319 
L 77.879582 283.15319 
z
" style="fill:#ff7f0e;"/>
   </g>
   <g id="patch_113">
    <path clip-path="url(#pa688dc516c)" d="M 81.100361 283.802625 
L 83.676985 283.802625 
L 83.676985 282.986634 
L 81.100361 282.986634 
z
" style="fill:#ff7f0e;"/>
   </g>
   <g id="patch_114">
    <path clip-path="url(#pa688dc516c)" d="M 84.32114 283.802625 
L 86.897764 283.802625 
L 86.897764 282.810256 
L 84.32114 282.810256 
z
" style="fill:#ff7f0e;"/>
   </g>
   <g id="patch_115">
    <path clip-path="url(#pa688dc516c)" d="M 87.54192 283.802625 
L 90.118543 283.802625 
L 90.118543 282.592826 
L 87.54192 282.592826 
z
" style="fill:#ff7f0e;"/>
   </g>
   <g id="patch_116">
    <path clip-path="url(#pa688dc516c)" d="M 90.762699 283.802625 
L 93.339322 283.802625 
L 93.339322 282.355501 
L 90.762699 282.355501 
z
" style="fill:#ff7f0e;"/>
   </g>
   <g id="patch_117">
    <path clip-path="url(#pa688dc516c)" d="M 93.983478 283.802625 
L 96.560101 283.802625 
L 96.560101 282.084091 
L 93.983478 282.084091 
z
" style="fill:#ff7f0e;"/>
   </g>
   <g id="patch_118">
    <path clip-path="url(#pa688dc516c)" d="M 97.204257 283.802625 
L 99.780881 283.802625 
L 99.780881 281.757359 
L 97.204257 281.757359 
z
" style="fill:#ff7f0e;"/>
   </g>
   <g id="patch_119">
    <path clip-path="url(#pa688dc516c)" d="M 100.425037 283.802625 
L 103.00166 283.802625 
L 103.00166 281.446997 
L 100.425037 281.446997 
z
" style="fill:#ff7f0e;"/>
   </g>
   <g id="patch_120">
    <path clip-path="url(#pa688dc516c)" d="M 103.645816 283.802625 
L 106.222439 283.802625 
L 106.222439 281.182472 
L 103.645816 281.182472 
z
" style="fill:#ff7f0e;"/>
   </g>
   <g id="patch_121">
    <path clip-path="url(#pa688dc516c)" d="M 106.866595 283.802625 
L 109.443218 283.802625 
L 109.443218 280.898135 
L 106.866595 280.898135 
z
" style="fill:#ff7f0e;"/>
   </g>
   <g id="patch_122">
    <path clip-path="url(#pa688dc516c)" d="M 110.087374 283.802625 
L 112.663998 283.802625 
L 112.663998 280.675416 
L 110.087374 280.675416 
z
" style="fill:#ff7f0e;"/>
   </g>
   <g id="patch_123">
    <path clip-path="url(#pa688dc516c)" d="M 113.308153 283.802625 
L 115.884777 283.802625 
L 115.884777 280.42491 
L 113.308153 280.42491 
z
" style="fill:#ff7f0e;"/>
   </g>
   <g id="patch_124">
    <path clip-path="url(#pa688dc516c)" d="M 116.528933 283.802625 
L 119.105556 283.802625 
L 119.105556 280.217303 
L 116.528933 280.217303 
z
" style="fill:#ff7f0e;"/>
   </g>
   <g id="patch_125">
    <path clip-path="url(#pa688dc516c)" d="M 119.749712 283.802625 
L 122.326335 283.802625 
L 122.326335 280.047557 
L 119.749712 280.047557 
z
" style="fill:#ff7f0e;"/>
   </g>
   <g id="patch_126">
    <path clip-path="url(#pa688dc516c)" d="M 122.970491 283.802625 
L 125.547114 283.802625 
L 125.547114 279.894768 
L 122.970491 279.894768 
z
" style="fill:#ff7f0e;"/>
   </g>
   <g id="patch_127">
    <path clip-path="url(#pa688dc516c)" d="M 126.19127 283.802625 
L 128.767894 283.802625 
L 128.767894 279.727037 
L 126.19127 279.727037 
z
" style="fill:#ff7f0e;"/>
   </g>
   <g id="patch_128">
    <path clip-path="url(#pa688dc516c)" d="M 129.41205 283.802625 
L 131.988673 283.802625 
L 131.988673 279.600609 
L 129.41205 279.600609 
z
" style="fill:#ff7f0e;"/>
   </g>
   <g id="patch_129">
    <path clip-path="url(#pa688dc516c)" d="M 132.632829 283.802625 
L 135.209452 283.802625 
L 135.209452 279.506585 
L 132.632829 279.506585 
z
" style="fill:#ff7f0e;"/>
   </g>
   <g id="patch_130">
    <path clip-path="url(#pa688dc516c)" d="M 135.853608 283.802625 
L 138.430231 283.802625 
L 138.430231 277.872841 
L 135.853608 277.872841 
z
" style="fill:#ff7f0e;"/>
   </g>
   <g id="patch_131">
    <path clip-path="url(#pa688dc516c)" d="M 139.074387 283.802625 
L 141.651011 283.802625 
L 141.651011 277.713924 
L 139.074387 277.713924 
z
" style="fill:#ff7f0e;"/>
   </g>
   <g id="patch_132">
    <path clip-path="url(#pa688dc516c)" d="M 142.295166 283.802625 
L 144.87179 283.802625 
L 144.87179 277.566844 
L 142.295166 277.566844 
z
" style="fill:#ff7f0e;"/>
   </g>
   <g id="patch_133">
    <path clip-path="url(#pa688dc516c)" d="M 145.515946 283.802625 
L 148.092569 283.802625 
L 148.092569 277.533684 
L 145.515946 277.533684 
z
" style="fill:#ff7f0e;"/>
   </g>
   <g id="patch_134">
    <path clip-path="url(#pa688dc516c)" d="M 148.736725 283.802625 
L 151.313348 283.802625 
L 151.313348 277.458633 
L 148.736725 277.458633 
z
" style="fill:#ff7f0e;"/>
   </g>
   <g id="patch_135">
    <path clip-path="url(#pa688dc516c)" d="M 151.957504 283.802625 
L 154.534127 283.802625 
L 154.534127 277.389542 
L 151.957504 277.389542 
z
" style="fill:#ff7f0e;"/>
   </g>
   <g id="patch_136">
    <path clip-path="url(#pa688dc516c)" d="M 155.178283 283.802625 
L 157.754907 283.802625 
L 157.754907 277.334975 
L 155.178283 277.334975 
z
" style="fill:#ff7f0e;"/>
   </g>
   <g id="patch_137">
    <path clip-path="url(#pa688dc516c)" d="M 158.399062 283.802625 
L 160.975686 283.802625 
L 160.975686 277.316506 
L 158.399062 277.316506 
z
" style="fill:#ff7f0e;"/>
   </g>
   <g id="patch_138">
    <path clip-path="url(#pa688dc516c)" d="M 161.619842 283.802625 
L 164.196465 283.802625 
L 164.196465 277.27302 
L 161.619842 277.27302 
z
" style="fill:#ff7f0e;"/>
   </g>
   <g id="patch_139">
    <path clip-path="url(#pa688dc516c)" d="M 164.840621 283.802625 
L 167.417244 283.802625 
L 167.417244 277.238517 
L 164.840621 277.238517 
z
" style="fill:#ff7f0e;"/>
   </g>
   <g id="patch_140">
    <path clip-path="url(#pa688dc516c)" d="M 168.0614 283.802625 
L 170.638024 283.802625 
L 170.638024 277.201663 
L 168.0614 277.201663 
z
" style="fill:#ff7f0e;"/>
   </g>
   <g id="patch_141">
    <path clip-path="url(#pa688dc516c)" d="M 171.282179 283.802625 
L 173.858803 283.802625 
L 173.858803 277.173876 
L 171.282179 277.173876 
z
" style="fill:#ff7f0e;"/>
   </g>
   <g id="patch_142">
    <path clip-path="url(#pa688dc516c)" d="M 174.502959 283.802625 
L 177.079582 283.802625 
L 177.079582 277.137526 
L 174.502959 277.137526 
z
" style="fill:#ff7f0e;"/>
   </g>
   <g id="patch_143">
    <path clip-path="url(#pa688dc516c)" d="M 177.723738 283.802625 
L 180.300361 283.802625 
L 180.300361 277.089338 
L 177.723738 277.089338 
z
" style="fill:#ff7f0e;"/>
   </g>
   <g id="patch_144">
    <path clip-path="url(#pa688dc516c)" d="M 180.944517 283.802625 
L 183.52114 283.802625 
L 183.52114 277.072045 
L 180.944517 277.072045 
z
" style="fill:#ff7f0e;"/>
   </g>
   <g id="patch_145">
    <path clip-path="url(#pa688dc516c)" d="M 184.165296 283.802625 
L 186.74192 283.802625 
L 186.74192 277.061131 
L 184.165296 277.061131 
z
" style="fill:#ff7f0e;"/>
   </g>
   <g id="patch_146">
    <path clip-path="url(#pa688dc516c)" d="M 187.386075 283.802625 
L 189.962699 283.802625 
L 189.962699 277.051225 
L 187.386075 277.051225 
z
" style="fill:#ff7f0e;"/>
   </g>
   <g id="patch_147">
    <path clip-path="url(#pa688dc516c)" d="M 190.606855 283.802625 
L 193.183478 283.802625 
L 193.183478 277.03922 
L 190.606855 277.03922 
z
" style="fill:#ff7f0e;"/>
   </g>
   <g id="patch_148">
    <path clip-path="url(#pa688dc516c)" d="M 193.827634 283.802625 
L 196.404257 283.802625 
L 196.404257 277.026964 
L 193.827634 277.026964 
z
" style="fill:#ff7f0e;"/>
   </g>
   <g id="patch_149">
    <path clip-path="url(#pa688dc516c)" d="M 197.048413 283.802625 
L 199.625037 283.802625 
L 199.625037 277.018401 
L 197.048413 277.018401 
z
" style="fill:#ff7f0e;"/>
   </g>
   <g id="patch_150">
    <path clip-path="url(#pa688dc516c)" d="M 200.269192 283.802625 
L 202.845816 283.802625 
L 202.845816 277.014539 
L 200.269192 277.014539 
z
" style="fill:#ff7f0e;"/>
   </g>
   <g id="patch_151">
    <path clip-path="url(#pa688dc516c)" d="M 203.489972 283.802625 
L 206.066595 283.802625 
L 206.066595 277.010762 
L 203.489972 277.010762 
z
" style="fill:#ff7f0e;"/>
   </g>
   <g id="patch_152">
    <path clip-path="url(#pa688dc516c)" d="M 206.710751 283.802625 
L 209.287374 283.802625 
L 209.287374 277.009083 
L 206.710751 277.009083 
z
" style="fill:#ff7f0e;"/>
   </g>
   <g id="patch_153">
    <path clip-path="url(#pa688dc516c)" d="M 209.93153 283.802625 
L 212.508153 283.802625 
L 212.508153 277.00648 
L 209.93153 277.00648 
z
" style="fill:#ff7f0e;"/>
   </g>
   <g id="patch_154">
    <path clip-path="url(#pa688dc516c)" d="M 213.152309 283.802625 
L 215.728933 283.802625 
L 215.728933 277.004297 
L 213.152309 277.004297 
z
" style="fill:#ff7f0e;"/>
   </g>
   <g id="patch_155">
    <path clip-path="url(#pa688dc516c)" d="M 216.373088 283.802625 
L 218.949712 283.802625 
L 218.949712 277.003458 
L 216.373088 277.003458 
z
" style="fill:#ff7f0e;"/>
   </g>
   <g id="patch_156">
    <path clip-path="url(#pa688dc516c)" d="M 219.593868 283.802625 
L 222.170491 283.802625 
L 222.170491 277.000939 
L 219.593868 277.000939 
z
" style="fill:#ff7f0e;"/>
   </g>
   <g id="patch_157">
    <path clip-path="url(#pa688dc516c)" d="M 222.814647 283.802625 
L 225.39127 283.802625 
L 225.39127 276.998673 
L 222.814647 276.998673 
z
" style="fill:#ff7f0e;"/>
   </g>
   <g id="patch_158">
    <path clip-path="url(#pa688dc516c)" d="M 226.035426 283.802625 
L 228.61205 283.802625 
L 228.61205 276.996238 
L 226.035426 276.996238 
z
" style="fill:#ff7f0e;"/>
   </g>
   <g id="patch_159">
    <path clip-path="url(#pa688dc516c)" d="M 229.256205 283.802625 
L 231.832829 283.802625 
L 231.832829 276.992964 
L 229.256205 276.992964 
z
" style="fill:#ff7f0e;"/>
   </g>
   <g id="patch_160">
    <path clip-path="url(#pa688dc516c)" d="M 232.476985 283.802625 
L 235.053608 283.802625 
L 235.053608 276.992964 
L 232.476985 276.992964 
z
" style="fill:#ff7f0e;"/>
   </g>
   <g id="patch_161">
    <path clip-path="url(#pa688dc516c)" d="M 235.697764 283.802625 
L 238.274387 283.802625 
L 238.274387 276.988095 
L 235.697764 276.988095 
z
" style="fill:#ff7f0e;"/>
   </g>
   <g id="patch_162">
    <path clip-path="url(#pa688dc516c)" d="M 238.918543 283.802625 
L 241.495166 283.802625 
L 241.495166 276.977517 
L 238.918543 276.977517 
z
" style="fill:#ff7f0e;"/>
   </g>
   <g id="patch_163">
    <path clip-path="url(#pa688dc516c)" d="M 242.139322 283.802625 
L 244.715946 283.802625 
L 244.715946 276.967779 
L 242.139322 276.967779 
z
" style="fill:#ff7f0e;"/>
   </g>
   <g id="patch_164">
    <path clip-path="url(#pa688dc516c)" d="M 245.360101 283.802625 
L 247.936725 283.802625 
L 247.936725 276.960895 
L 245.360101 276.960895 
z
" style="fill:#ff7f0e;"/>
   </g>
   <g id="patch_165">
    <path clip-path="url(#pa688dc516c)" d="M 248.580881 283.802625 
L 251.157504 283.802625 
L 251.157504 276.952249 
L 248.580881 276.952249 
z
" style="fill:#ff7f0e;"/>
   </g>
   <g id="patch_166">
    <path clip-path="url(#pa688dc516c)" d="M 251.80166 283.802625 
L 254.378283 283.802625 
L 254.378283 276.939992 
L 251.80166 276.939992 
z
" style="fill:#ff7f0e;"/>
   </g>
   <g id="patch_167">
    <path clip-path="url(#pa688dc516c)" d="M 255.022439 283.802625 
L 257.599062 283.802625 
L 257.599062 276.931513 
L 255.022439 276.931513 
z
" style="fill:#ff7f0e;"/>
   </g>
   <g id="patch_168">
    <path clip-path="url(#pa688dc516c)" d="M 258.243218 283.802625 
L 260.819842 283.802625 
L 260.819842 276.922027 
L 258.243218 276.922027 
z
" style="fill:#ff7f0e;"/>
   </g>
   <g id="patch_169">
    <path clip-path="url(#pa688dc516c)" d="M 261.463998 283.802625 
L 264.040621 283.802625 
L 264.040621 276.912205 
L 261.463998 276.912205 
z
" style="fill:#ff7f0e;"/>
   </g>
   <g id="patch_170">
    <path clip-path="url(#pa688dc516c)" d="M 264.684777 283.802625 
L 267.2614 283.802625 
L 267.2614 276.899444 
L 264.684777 276.899444 
z
" style="fill:#ff7f0e;"/>
   </g>
   <g id="patch_171">
    <path clip-path="url(#pa688dc516c)" d="M 267.905556 283.802625 
L 270.482179 283.802625 
L 270.482179 276.888867 
L 267.905556 276.888867 
z
" style="fill:#ff7f0e;"/>
   </g>
   <g id="patch_172">
    <path clip-path="url(#pa688dc516c)" d="M 271.126335 283.802625 
L 273.702959 283.802625 
L 273.702959 276.881227 
L 271.126335 276.881227 
z
" style="fill:#ff7f0e;"/>
   </g>
   <g id="patch_173">
    <path clip-path="url(#pa688dc516c)" d="M 274.347114 283.802625 
L 276.923738 283.802625 
L 276.923738 276.873 
L 274.347114 276.873 
z
" style="fill:#ff7f0e;"/>
   </g>
   <g id="patch_174">
    <path clip-path="url(#pa688dc516c)" d="M 277.567894 283.802625 
L 280.144517 283.802625 
L 280.144517 276.86578 
L 277.567894 276.86578 
z
" style="fill:#ff7f0e;"/>
   </g>
   <g id="patch_175">
    <path clip-path="url(#pa688dc516c)" d="M 280.788673 283.802625 
L 283.365296 283.802625 
L 283.365296 276.857973 
L 280.788673 276.857973 
z
" style="fill:#ff7f0e;"/>
   </g>
   <g id="patch_176">
    <path clip-path="url(#pa688dc516c)" d="M 284.009452 283.802625 
L 286.586075 283.802625 
L 286.586075 276.851425 
L 284.009452 276.851425 
z
" style="fill:#ff7f0e;"/>
   </g>
   <g id="patch_177">
    <path clip-path="url(#pa688dc516c)" d="M 287.230231 283.802625 
L 289.806855 283.802625 
L 289.806855 276.845297 
L 287.230231 276.845297 
z
" style="fill:#ff7f0e;"/>
   </g>
   <g id="patch_178">
    <path clip-path="url(#pa688dc516c)" d="M 290.451011 283.802625 
L 293.027634 283.802625 
L 293.027634 276.84068 
L 290.451011 276.84068 
z
" style="fill:#ff7f0e;"/>
   </g>
   <g id="patch_179">
    <path clip-path="url(#pa688dc516c)" d="M 293.67179 283.802625 
L 296.248413 283.802625 
L 296.248413 276.834383 
L 293.67179 276.834383 
z
" style="fill:#ff7f0e;"/>
   </g>
   <g id="patch_180">
    <path clip-path="url(#pa688dc516c)" d="M 296.892569 283.802625 
L 299.469192 283.802625 
L 299.469192 276.828843 
L 296.892569 276.828843 
z
" style="fill:#ff7f0e;"/>
   </g>
   <g id="patch_181">
    <path clip-path="url(#pa688dc516c)" d="M 300.113348 283.802625 
L 302.689972 283.802625 
L 302.689972 276.821623 
L 300.113348 276.821623 
z
" style="fill:#ff7f0e;"/>
   </g>
   <g id="patch_182">
    <path clip-path="url(#pa688dc516c)" d="M 303.334127 283.802625 
L 305.910751 283.802625 
L 305.910751 276.8139 
L 303.334127 276.8139 
z
" style="fill:#ff7f0e;"/>
   </g>
   <g id="patch_183">
    <path clip-path="url(#pa688dc516c)" d="M 306.554907 283.802625 
L 309.13153 283.802625 
L 309.13153 276.809198 
L 306.554907 276.809198 
z
" style="fill:#ff7f0e;"/>
   </g>
   <g id="patch_184">
    <path clip-path="url(#pa688dc516c)" d="M 309.775686 283.802625 
L 312.352309 283.802625 
L 312.352309 276.803826 
L 309.775686 276.803826 
z
" style="fill:#ff7f0e;"/>
   </g>
   <g id="patch_185">
    <path clip-path="url(#pa688dc516c)" d="M 312.996465 283.802625 
L 315.573088 283.802625 
L 315.573088 276.794339 
L 312.996465 276.794339 
z
" style="fill:#ff7f0e;"/>
   </g>
   <g id="patch_186">
    <path clip-path="url(#pa688dc516c)" d="M 316.217244 283.802625 
L 318.793868 283.802625 
L 318.793868 276.784685 
L 316.217244 276.784685 
z
" style="fill:#ff7f0e;"/>
   </g>
   <g id="patch_187">
    <path clip-path="url(#pa688dc516c)" d="M 319.438024 283.802625 
L 322.014647 283.802625 
L 322.014647 276.776374 
L 319.438024 276.776374 
z
" style="fill:#ff7f0e;"/>
   </g>
   <g id="patch_188">
    <path clip-path="url(#pa688dc516c)" d="M 322.658803 283.802625 
L 325.235426 283.802625 
L 325.235426 276.772261 
L 322.658803 276.772261 
z
" style="fill:#ff7f0e;"/>
   </g>
   <g id="patch_189">
    <path clip-path="url(#pa688dc516c)" d="M 325.879582 283.802625 
L 328.456205 283.802625 
L 328.456205 276.767895 
L 325.879582 276.767895 
z
" style="fill:#ff7f0e;"/>
   </g>
   <g id="patch_190">
    <path clip-path="url(#pa688dc516c)" d="M 329.100361 283.802625 
L 331.676985 283.802625 
L 331.676985 276.738345 
L 329.100361 276.738345 
z
" style="fill:#ff7f0e;"/>
   </g>
   <g id="patch_191">
    <path clip-path="url(#pa688dc516c)" d="M 332.32114 283.802625 
L 334.897764 283.802625 
L 334.897764 276.735742 
L 332.32114 276.735742 
z
" style="fill:#ff7f0e;"/>
   </g>
   <g id="patch_192">
    <path clip-path="url(#pa688dc516c)" d="M 335.54192 283.802625 
L 338.118543 283.802625 
L 338.118543 276.73398 
L 335.54192 276.73398 
z
" style="fill:#ff7f0e;"/>
   </g>
   <g id="patch_193">
    <path clip-path="url(#pa688dc516c)" d="M 338.762699 283.802625 
L 341.339322 283.802625 
L 341.339322 276.730957 
L 338.762699 276.730957 
z
" style="fill:#ff7f0e;"/>
   </g>
   <g id="patch_194">
    <path clip-path="url(#pa688dc516c)" d="M 341.983478 283.802625 
L 344.560101 283.802625 
L 344.560101 276.729866 
L 341.983478 276.729866 
z
" style="fill:#ff7f0e;"/>
   </g>
   <g id="patch_195">
    <path clip-path="url(#pa688dc516c)" d="M 345.204257 283.802625 
L 347.780881 283.802625 
L 347.780881 276.72676 
L 345.204257 276.72676 
z
" style="fill:#ff7f0e;"/>
   </g>
   <g id="patch_196">
    <path clip-path="url(#pa688dc516c)" d="M 348.425037 283.802625 
L 351.00166 283.802625 
L 351.00166 276.725501 
L 348.425037 276.725501 
z
" style="fill:#ff7f0e;"/>
   </g>
   <g id="patch_197">
    <path clip-path="url(#pa688dc516c)" d="M 351.645816 283.802625 
L 354.222439 283.802625 
L 354.222439 276.724745 
L 351.645816 276.724745 
z
" style="fill:#ff7f0e;"/>
   </g>
   <g id="patch_198">
    <path clip-path="url(#pa688dc516c)" d="M 354.866595 283.802625 
L 357.443218 283.802625 
L 357.443218 276.72357 
L 354.866595 276.72357 
z
" style="fill:#ff7f0e;"/>
   </g>
   <g id="patch_199">
    <path clip-path="url(#pa688dc516c)" d="M 358.087374 283.802625 
L 360.663998 283.802625 
L 360.663998 276.722478 
L 358.087374 276.722478 
z
" style="fill:#ff7f0e;"/>
   </g>
   <g id="patch_200">
    <path clip-path="url(#pa688dc516c)" d="M 361.308153 283.802625 
L 363.884777 283.802625 
L 363.884777 276.722227 
L 361.308153 276.722227 
z
" style="fill:#ff7f0e;"/>
   </g>
   <g id="patch_201">
    <path clip-path="url(#pa688dc516c)" d="M 364.528933 283.802625 
L 367.105556 283.802625 
L 367.105556 276.721723 
L 364.528933 276.721723 
z
" style="fill:#ff7f0e;"/>
   </g>
   <g id="patch_202">
    <path clip-path="url(#pa688dc516c)" d="M 367.749712 283.802625 
L 370.326335 283.802625 
L 370.326335 276.719876 
L 367.749712 276.719876 
z
" style="fill:#ff7f0e;"/>
   </g>
   <g id="patch_203">
    <path clip-path="url(#pa688dc516c)" d="M 45.67179 283.802625 
L 48.248413 283.802625 
L 48.248413 283.802121 
L 45.67179 283.802121 
z
" style="fill:#d62728;"/>
   </g>
   <g id="patch_204">
    <path clip-path="url(#pa688dc516c)" d="M 48.892569 283.802625 
L 51.469192 283.802625 
L 51.469192 283.802121 
L 48.892569 283.802121 
z
" style="fill:#d62728;"/>
   </g>
   <g id="patch_205">
    <path clip-path="url(#pa688dc516c)" d="M 55.334127 283.802625 
L 57.910751 283.802625 
L 57.910751 283.801198 
L 55.334127 283.801198 
z
" style="fill:#d62728;"/>
   </g>
   <g id="patch_206">
    <path clip-path="url(#pa688dc516c)" d="M 58.554907 283.802625 
L 61.13153 283.802625 
L 61.13153 283.800526 
L 58.554907 283.800526 
z
" style="fill:#d62728;"/>
   </g>
   <g id="patch_207">
    <path clip-path="url(#pa688dc516c)" d="M 61.775686 283.802625 
L 64.352309 283.802625 
L 64.352309 283.799183 
L 61.775686 283.799183 
z
" style="fill:#d62728;"/>
   </g>
   <g id="patch_208">
    <path clip-path="url(#pa688dc516c)" d="M 64.996465 283.802625 
L 67.573088 283.802625 
L 67.573088 283.797924 
L 64.996465 283.797924 
z
" style="fill:#d62728;"/>
   </g>
   <g id="patch_209">
    <path clip-path="url(#pa688dc516c)" d="M 68.217244 283.802625 
L 70.793868 283.802625 
L 70.793868 283.795909 
L 68.217244 283.795909 
z
" style="fill:#d62728;"/>
   </g>
   <g id="patch_210">
    <path clip-path="url(#pa688dc516c)" d="M 71.438024 283.802625 
L 74.014647 283.802625 
L 74.014647 283.793726 
L 71.438024 283.793726 
z
" style="fill:#d62728;"/>
   </g>
   <g id="patch_211">
    <path clip-path="url(#pa688dc516c)" d="M 74.658803 283.802625 
L 77.235426 283.802625 
L 77.235426 283.791544 
L 74.658803 283.791544 
z
" style="fill:#d62728;"/>
   </g>
   <g id="patch_212">
    <path clip-path="url(#pa688dc516c)" d="M 77.879582 283.802625 
L 80.456205 283.802625 
L 80.456205 283.788354 
L 77.879582 283.788354 
z
" style="fill:#d62728;"/>
   </g>
   <g id="patch_213">
    <path clip-path="url(#pa688dc516c)" d="M 81.100361 283.802625 
L 83.676985 283.802625 
L 83.676985 283.784744 
L 81.100361 283.784744 
z
" style="fill:#d62728;"/>
   </g>
   <g id="patch_214">
    <path clip-path="url(#pa688dc516c)" d="M 84.32114 283.802625 
L 86.897764 283.802625 
L 86.897764 283.780882 
L 84.32114 283.780882 
z
" style="fill:#d62728;"/>
   </g>
   <g id="patch_215">
    <path clip-path="url(#pa688dc516c)" d="M 87.54192 283.802625 
L 90.118543 283.802625 
L 90.118543 283.77702 
L 87.54192 283.77702 
z
" style="fill:#d62728;"/>
   </g>
   <g id="patch_216">
    <path clip-path="url(#pa688dc516c)" d="M 90.762699 283.802625 
L 93.339322 283.802625 
L 93.339322 283.772235 
L 90.762699 283.772235 
z
" style="fill:#d62728;"/>
   </g>
   <g id="patch_217">
    <path clip-path="url(#pa688dc516c)" d="M 93.983478 283.802625 
L 96.560101 283.802625 
L 96.560101 283.766862 
L 93.983478 283.766862 
z
" style="fill:#d62728;"/>
   </g>
   <g id="patch_218">
    <path clip-path="url(#pa688dc516c)" d="M 97.204257 283.802625 
L 99.780881 283.802625 
L 99.780881 283.761322 
L 97.204257 283.761322 
z
" style="fill:#d62728;"/>
   </g>
   <g id="patch_219">
    <path clip-path="url(#pa688dc516c)" d="M 100.425037 283.802625 
L 103.00166 283.802625 
L 103.00166 283.755193 
L 100.425037 283.755193 
z
" style="fill:#d62728;"/>
   </g>
   <g id="patch_220">
    <path clip-path="url(#pa688dc516c)" d="M 103.645816 283.802625 
L 106.222439 283.802625 
L 106.222439 283.749065 
L 103.645816 283.749065 
z
" style="fill:#d62728;"/>
   </g>
   <g id="patch_221">
    <path clip-path="url(#pa688dc516c)" d="M 106.866595 283.802625 
L 109.443218 283.802625 
L 109.443218 283.741845 
L 106.866595 283.741845 
z
" style="fill:#d62728;"/>
   </g>
   <g id="patch_222">
    <path clip-path="url(#pa688dc516c)" d="M 110.087374 283.802625 
L 112.663998 283.802625 
L 112.663998 283.734374 
L 110.087374 283.734374 
z
" style="fill:#d62728;"/>
   </g>
   <g id="patch_223">
    <path clip-path="url(#pa688dc516c)" d="M 113.308153 283.802625 
L 115.884777 283.802625 
L 115.884777 283.726231 
L 113.308153 283.726231 
z
" style="fill:#d62728;"/>
   </g>
   <g id="patch_224">
    <path clip-path="url(#pa688dc516c)" d="M 116.528933 283.802625 
L 119.105556 283.802625 
L 119.105556 283.717164 
L 116.528933 283.717164 
z
" style="fill:#d62728;"/>
   </g>
   <g id="patch_225">
    <path clip-path="url(#pa688dc516c)" d="M 119.749712 283.802625 
L 122.326335 283.802625 
L 122.326335 283.709021 
L 119.749712 283.709021 
z
" style="fill:#d62728;"/>
   </g>
   <g id="patch_226">
    <path clip-path="url(#pa688dc516c)" d="M 122.970491 283.802625 
L 125.547114 283.802625 
L 125.547114 283.687698 
L 122.970491 283.687698 
z
" style="fill:#d62728;"/>
   </g>
   <g id="patch_227">
    <path clip-path="url(#pa688dc516c)" d="M 126.19127 283.802625 
L 128.767894 283.802625 
L 128.767894 283.686523 
L 126.19127 283.686523 
z
" style="fill:#d62728;"/>
   </g>
   <g id="patch_228">
    <path clip-path="url(#pa688dc516c)" d="M 129.41205 283.802625 
L 131.988673 283.802625 
L 131.988673 283.674518 
L 129.41205 283.674518 
z
" style="fill:#d62728;"/>
   </g>
   <g id="patch_229">
    <path clip-path="url(#pa688dc516c)" d="M 132.632829 283.802625 
L 135.209452 283.802625 
L 135.209452 283.662513 
L 132.632829 283.662513 
z
" style="fill:#d62728;"/>
   </g>
   <g id="patch_230">
    <path clip-path="url(#pa688dc516c)" d="M 135.853608 283.802625 
L 138.430231 283.802625 
L 138.430231 283.653614 
L 135.853608 283.653614 
z
" style="fill:#d62728;"/>
   </g>
   <g id="patch_231">
    <path clip-path="url(#pa688dc516c)" d="M 139.074387 283.802625 
L 141.651011 283.802625 
L 141.651011 283.645387 
L 139.074387 283.645387 
z
" style="fill:#d62728;"/>
   </g>
   <g id="patch_232">
    <path clip-path="url(#pa688dc516c)" d="M 142.295166 283.802625 
L 144.87179 283.802625 
L 144.87179 283.63397 
L 142.295166 283.63397 
z
" style="fill:#d62728;"/>
   </g>
   <g id="patch_233">
    <path clip-path="url(#pa688dc516c)" d="M 145.515946 283.802625 
L 148.092569 283.802625 
L 148.092569 283.623896 
L 145.515946 283.623896 
z
" style="fill:#d62728;"/>
   </g>
   <g id="patch_234">
    <path clip-path="url(#pa688dc516c)" d="M 148.736725 283.802625 
L 151.313348 283.802625 
L 151.313348 283.61399 
L 148.736725 283.61399 
z
" style="fill:#d62728;"/>
   </g>
   <g id="patch_235">
    <path clip-path="url(#pa688dc516c)" d="M 151.957504 283.802625 
L 154.534127 283.802625 
L 154.534127 283.604588 
L 151.957504 283.604588 
z
" style="fill:#d62728;"/>
   </g>
   <g id="patch_236">
    <path clip-path="url(#pa688dc516c)" d="M 155.178283 283.802625 
L 157.754907 283.802625 
L 157.754907 283.595941 
L 155.178283 283.595941 
z
" style="fill:#d62728;"/>
   </g>
   <g id="patch_237">
    <path clip-path="url(#pa688dc516c)" d="M 158.399062 283.802625 
L 160.975686 283.802625 
L 160.975686 283.582845 
L 158.399062 283.582845 
z
" style="fill:#d62728;"/>
   </g>
   <g id="patch_238">
    <path clip-path="url(#pa688dc516c)" d="M 161.619842 283.802625 
L 164.196465 283.802625 
L 164.196465 283.575961 
L 161.619842 283.575961 
z
" style="fill:#d62728;"/>
   </g>
   <g id="patch_239">
    <path clip-path="url(#pa688dc516c)" d="M 164.840621 283.802625 
L 167.417244 283.802625 
L 167.417244 283.57084 
L 164.840621 283.57084 
z
" style="fill:#d62728;"/>
   </g>
   <g id="patch_240">
    <path clip-path="url(#pa688dc516c)" d="M 168.0614 283.802625 
L 170.638024 283.802625 
L 170.638024 283.56723 
L 168.0614 283.56723 
z
" style="fill:#d62728;"/>
   </g>
   <g id="patch_241">
    <path clip-path="url(#pa688dc516c)" d="M 171.282179 283.802625 
L 173.858803 283.802625 
L 173.858803 283.562697 
L 171.282179 283.562697 
z
" style="fill:#d62728;"/>
   </g>
   <g id="patch_242">
    <path clip-path="url(#pa688dc516c)" d="M 174.502959 283.802625 
L 177.079582 283.802625 
L 177.079582 283.557156 
L 174.502959 283.557156 
z
" style="fill:#d62728;"/>
   </g>
   <g id="patch_243">
    <path clip-path="url(#pa688dc516c)" d="M 177.723738 283.802625 
L 180.300361 283.802625 
L 180.300361 283.552707 
L 177.723738 283.552707 
z
" style="fill:#d62728;"/>
   </g>
   <g id="patch_244">
    <path clip-path="url(#pa688dc516c)" d="M 180.944517 283.802625 
L 183.52114 283.802625 
L 183.52114 283.547166 
L 180.944517 283.547166 
z
" style="fill:#d62728;"/>
   </g>
   <g id="patch_245">
    <path clip-path="url(#pa688dc516c)" d="M 184.165296 283.802625 
L 186.74192 283.802625 
L 186.74192 283.541374 
L 184.165296 283.541374 
z
" style="fill:#d62728;"/>
   </g>
   <g id="patch_246">
    <path clip-path="url(#pa688dc516c)" d="M 187.386075 283.802625 
L 189.962699 283.802625 
L 189.962699 283.534154 
L 187.386075 283.534154 
z
" style="fill:#d62728;"/>
   </g>
   <g id="patch_247">
    <path clip-path="url(#pa688dc516c)" d="M 190.606855 283.802625 
L 193.183478 283.802625 
L 193.183478 283.527102 
L 190.606855 283.527102 
z
" style="fill:#d62728;"/>
   </g>
   <g id="patch_248">
    <path clip-path="url(#pa688dc516c)" d="M 193.827634 283.802625 
L 196.404257 283.802625 
L 196.404257 283.518875 
L 193.827634 283.518875 
z
" style="fill:#d62728;"/>
   </g>
   <g id="patch_249">
    <path clip-path="url(#pa688dc516c)" d="M 197.048413 283.802625 
L 199.625037 283.802625 
L 199.625037 283.509976 
L 197.048413 283.509976 
z
" style="fill:#d62728;"/>
   </g>
   <g id="patch_250">
    <path clip-path="url(#pa688dc516c)" d="M 200.269192 283.802625 
L 202.845816 283.802625 
L 202.845816 283.501749 
L 200.269192 283.501749 
z
" style="fill:#d62728;"/>
   </g>
   <g id="patch_251">
    <path clip-path="url(#pa688dc516c)" d="M 203.489972 283.802625 
L 206.066595 283.802625 
L 206.066595 283.482861 
L 203.489972 283.482861 
z
" style="fill:#d62728;"/>
   </g>
   <g id="patch_252">
    <path clip-path="url(#pa688dc516c)" d="M 206.710751 283.802625 
L 209.287374 283.802625 
L 209.287374 283.465819 
L 206.710751 283.465819 
z
" style="fill:#d62728;"/>
   </g>
   <g id="patch_253">
    <path clip-path="url(#pa688dc516c)" d="M 209.93153 283.802625 
L 212.508153 283.802625 
L 212.508153 283.442313 
L 209.93153 283.442313 
z
" style="fill:#d62728;"/>
   </g>
   <g id="patch_254">
    <path clip-path="url(#pa688dc516c)" d="M 213.152309 283.802625 
L 215.728933 283.802625 
L 215.728933 283.415365 
L 213.152309 283.415365 
z
" style="fill:#d62728;"/>
   </g>
   <g id="patch_255">
    <path clip-path="url(#pa688dc516c)" d="M 216.373088 283.802625 
L 218.949712 283.802625 
L 218.949712 283.386654 
L 216.373088 283.386654 
z
" style="fill:#d62728;"/>
   </g>
   <g id="patch_256">
    <path clip-path="url(#pa688dc516c)" d="M 219.593868 283.802625 
L 222.170491 283.802625 
L 222.170491 283.349884 
L 219.593868 283.349884 
z
" style="fill:#d62728;"/>
   </g>
   <g id="patch_257">
    <path clip-path="url(#pa688dc516c)" d="M 222.814647 283.802625 
L 225.39127 283.802625 
L 225.39127 283.321174 
L 222.814647 283.321174 
z
" style="fill:#d62728;"/>
   </g>
   <g id="patch_258">
    <path clip-path="url(#pa688dc516c)" d="M 226.035426 283.802625 
L 228.61205 283.802625 
L 228.61205 283.248054 
L 226.035426 283.248054 
z
" style="fill:#d62728;"/>
   </g>
   <g id="patch_259">
    <path clip-path="url(#pa688dc516c)" d="M 229.256205 283.802625 
L 231.832829 283.802625 
L 231.832829 283.179215 
L 229.256205 283.179215 
z
" style="fill:#d62728;"/>
   </g>
   <g id="patch_260">
    <path clip-path="url(#pa688dc516c)" d="M 232.476985 283.802625 
L 235.053608 283.802625 
L 235.053608 283.14723 
L 232.476985 283.14723 
z
" style="fill:#d62728;"/>
   </g>
   <g id="patch_261">
    <path clip-path="url(#pa688dc516c)" d="M 235.697764 283.802625 
L 238.274387 283.802625 
L 238.274387 283.065715 
L 235.697764 283.065715 
z
" style="fill:#d62728;"/>
   </g>
   <g id="patch_262">
    <path clip-path="url(#pa688dc516c)" d="M 238.918543 283.802625 
L 241.495166 283.802625 
L 241.495166 282.97656 
L 238.918543 282.97656 
z
" style="fill:#d62728;"/>
   </g>
   <g id="patch_263">
    <path clip-path="url(#pa688dc516c)" d="M 242.139322 283.802625 
L 244.715946 283.802625 
L 244.715946 282.863732 
L 242.139322 282.863732 
z
" style="fill:#d62728;"/>
   </g>
   <g id="patch_264">
    <path clip-path="url(#pa688dc516c)" d="M 245.360101 283.802625 
L 247.936725 283.802625 
L 247.936725 282.729413 
L 245.360101 282.729413 
z
" style="fill:#d62728;"/>
   </g>
   <g id="patch_265">
    <path clip-path="url(#pa688dc516c)" d="M 248.580881 283.802625 
L 251.157504 283.802625 
L 251.157504 282.584515 
L 248.580881 282.584515 
z
" style="fill:#d62728;"/>
   </g>
   <g id="patch_266">
    <path clip-path="url(#pa688dc516c)" d="M 251.80166 283.802625 
L 254.378283 283.802625 
L 254.378283 282.440038 
L 251.80166 282.440038 
z
" style="fill:#d62728;"/>
   </g>
   <g id="patch_267">
    <path clip-path="url(#pa688dc516c)" d="M 255.022439 283.802625 
L 257.599062 283.802625 
L 257.599062 282.254593 
L 255.022439 282.254593 
z
" style="fill:#d62728;"/>
   </g>
   <g id="patch_268">
    <path clip-path="url(#pa688dc516c)" d="M 258.243218 283.802625 
L 260.819842 283.802625 
L 260.819842 282.053618 
L 258.243218 282.053618 
z
" style="fill:#d62728;"/>
   </g>
   <g id="patch_269">
    <path clip-path="url(#pa688dc516c)" d="M 261.463998 283.802625 
L 264.040621 283.802625 
L 264.040621 281.84366 
L 261.463998 281.84366 
z
" style="fill:#d62728;"/>
   </g>
   <g id="patch_270">
    <path clip-path="url(#pa688dc516c)" d="M 264.684777 283.802625 
L 267.2614 283.802625 
L 267.2614 281.578463 
L 264.684777 281.578463 
z
" style="fill:#d62728;"/>
   </g>
   <g id="patch_271">
    <path clip-path="url(#pa688dc516c)" d="M 267.905556 283.802625 
L 270.482179 283.802625 
L 270.482179 281.287745 
L 267.905556 281.287745 
z
" style="fill:#d62728;"/>
   </g>
   <g id="patch_272">
    <path clip-path="url(#pa688dc516c)" d="M 271.126335 283.802625 
L 273.702959 283.802625 
L 273.702959 281.023387 
L 271.126335 281.023387 
z
" style="fill:#d62728;"/>
   </g>
   <g id="patch_273">
    <path clip-path="url(#pa688dc516c)" d="M 274.347114 283.802625 
L 276.923738 283.802625 
L 276.923738 280.746438 
L 274.347114 280.746438 
z
" style="fill:#d62728;"/>
   </g>
   <g id="patch_274">
    <path clip-path="url(#pa688dc516c)" d="M 277.567894 283.802625 
L 280.144517 283.802625 
L 280.144517 280.394437 
L 277.567894 280.394437 
z
" style="fill:#d62728;"/>
   </g>
   <g id="patch_275">
    <path clip-path="url(#pa688dc516c)" d="M 280.788673 283.802625 
L 283.365296 283.802625 
L 283.365296 279.980733 
L 280.788673 279.980733 
z
" style="fill:#d62728;"/>
   </g>
   <g id="patch_276">
    <path clip-path="url(#pa688dc516c)" d="M 284.009452 283.802625 
L 286.586075 283.802625 
L 286.586075 279.57811 
L 284.009452 279.57811 
z
" style="fill:#d62728;"/>
   </g>
   <g id="patch_277">
    <path clip-path="url(#pa688dc516c)" d="M 287.230231 283.802625 
L 289.806855 283.802625 
L 289.806855 279.018754 
L 287.230231 279.018754 
z
" style="fill:#d62728;"/>
   </g>
   <g id="patch_278">
    <path clip-path="url(#pa688dc516c)" d="M 290.451011 283.802625 
L 293.027634 283.802625 
L 293.027634 278.531929 
L 290.451011 278.531929 
z
" style="fill:#d62728;"/>
   </g>
   <g id="patch_279">
    <path clip-path="url(#pa688dc516c)" d="M 293.67179 283.802625 
L 296.248413 283.802625 
L 296.248413 278.128132 
L 293.67179 278.128132 
z
" style="fill:#d62728;"/>
   </g>
   <g id="patch_280">
    <path clip-path="url(#pa688dc516c)" d="M 296.892569 283.802625 
L 299.469192 283.802625 
L 299.469192 277.706704 
L 296.892569 277.706704 
z
" style="fill:#d62728;"/>
   </g>
   <g id="patch_281">
    <path clip-path="url(#pa688dc516c)" d="M 300.113348 283.802625 
L 302.689972 283.802625 
L 302.689972 277.150874 
L 300.113348 277.150874 
z
" style="fill:#d62728;"/>
   </g>
   <g id="patch_282">
    <path clip-path="url(#pa688dc516c)" d="M 303.334127 283.802625 
L 305.910751 283.802625 
L 305.910751 276.623082 
L 303.334127 276.623082 
z
" style="fill:#d62728;"/>
   </g>
   <g id="patch_283">
    <path clip-path="url(#pa688dc516c)" d="M 306.554907 283.802625 
L 309.13153 283.802625 
L 309.13153 276.012264 
L 306.554907 276.012264 
z
" style="fill:#d62728;"/>
   </g>
   <g id="patch_284">
    <path clip-path="url(#pa688dc516c)" d="M 309.775686 283.802625 
L 312.352309 283.802625 
L 312.352309 275.433683 
L 309.775686 275.433683 
z
" style="fill:#d62728;"/>
   </g>
   <g id="patch_285">
    <path clip-path="url(#pa688dc516c)" d="M 312.996465 283.802625 
L 315.573088 283.802625 
L 315.573088 274.90799 
L 312.996465 274.90799 
z
" style="fill:#d62728;"/>
   </g>
   <g id="patch_286">
    <path clip-path="url(#pa688dc516c)" d="M 316.217244 283.802625 
L 318.793868 283.802625 
L 318.793868 274.429477 
L 316.217244 274.429477 
z
" style="fill:#d62728;"/>
   </g>
   <g id="patch_287">
    <path clip-path="url(#pa688dc516c)" d="M 319.438024 283.802625 
L 322.014647 283.802625 
L 322.014647 273.978752 
L 319.438024 273.978752 
z
" style="fill:#d62728;"/>
   </g>
   <g id="patch_288">
    <path clip-path="url(#pa688dc516c)" d="M 322.658803 283.802625 
L 325.235426 283.802625 
L 325.235426 273.475977 
L 322.658803 273.475977 
z
" style="fill:#d62728;"/>
   </g>
   <g id="patch_289">
    <path clip-path="url(#pa688dc516c)" d="M 325.879582 283.802625 
L 328.456205 283.802625 
L 328.456205 272.814873 
L 325.879582 272.814873 
z
" style="fill:#d62728;"/>
   </g>
   <g id="patch_290">
    <path clip-path="url(#pa688dc516c)" d="M 329.100361 283.802625 
L 331.676985 283.802625 
L 331.676985 272.101889 
L 329.100361 272.101889 
z
" style="fill:#d62728;"/>
   </g>
   <g id="patch_291">
    <path clip-path="url(#pa688dc516c)" d="M 332.32114 283.802625 
L 334.897764 283.802625 
L 334.897764 271.538587 
L 332.32114 271.538587 
z
" style="fill:#d62728;"/>
   </g>
   <g id="patch_292">
    <path clip-path="url(#pa688dc516c)" d="M 335.54192 283.802625 
L 338.118543 283.802625 
L 338.118543 270.99602 
L 335.54192 270.99602 
z
" style="fill:#d62728;"/>
   </g>
   <g id="patch_293">
    <path clip-path="url(#pa688dc516c)" d="M 338.762699 283.802625 
L 341.339322 283.802625 
L 341.339322 270.551423 
L 338.762699 270.551423 
z
" style="fill:#d62728;"/>
   </g>
   <g id="patch_294">
    <path clip-path="url(#pa688dc516c)" d="M 341.983478 283.802625 
L 344.560101 283.802625 
L 344.560101 270.122524 
L 341.983478 270.122524 
z
" style="fill:#d62728;"/>
   </g>
   <g id="patch_295">
    <path clip-path="url(#pa688dc516c)" d="M 345.204257 283.802625 
L 347.780881 283.802625 
L 347.780881 269.614628 
L 345.204257 269.614628 
z
" style="fill:#d62728;"/>
   </g>
   <g id="patch_296">
    <path clip-path="url(#pa688dc516c)" d="M 348.425037 283.802625 
L 351.00166 283.802625 
L 351.00166 269.053173 
L 348.425037 269.053173 
z
" style="fill:#d62728;"/>
   </g>
   <g id="patch_297">
    <path clip-path="url(#pa688dc516c)" d="M 351.645816 283.802625 
L 354.222439 283.802625 
L 354.222439 268.528991 
L 351.645816 268.528991 
z
" style="fill:#d62728;"/>
   </g>
   <g id="patch_298">
    <path clip-path="url(#pa688dc516c)" d="M 354.866595 283.802625 
L 357.443218 283.802625 
L 357.443218 268.044854 
L 354.866595 268.044854 
z
" style="fill:#d62728;"/>
   </g>
   <g id="patch_299">
    <path clip-path="url(#pa688dc516c)" d="M 358.087374 283.802625 
L 360.663998 283.802625 
L 360.663998 267.540736 
L 358.087374 267.540736 
z
" style="fill:#d62728;"/>
   </g>
   <g id="patch_300">
    <path clip-path="url(#pa688dc516c)" d="M 361.308153 283.802625 
L 363.884777 283.802625 
L 363.884777 267.124514 
L 361.308153 267.124514 
z
" style="fill:#d62728;"/>
   </g>
   <g id="patch_301">
    <path clip-path="url(#pa688dc516c)" d="M 364.528933 283.802625 
L 367.105556 283.802625 
L 367.105556 266.794675 
L 364.528933 266.794675 
z
" style="fill:#d62728;"/>
   </g>
   <g id="patch_302">
    <path clip-path="url(#pa688dc516c)" d="M 367.749712 283.802625 
L 370.326335 283.802625 
L 370.326335 266.343362 
L 367.749712 266.343362 
z
" style="fill:#d62728;"/>
   </g>
   <g id="matplotlib.axis_1">
    <g id="xtick_1">
     <g id="line2d_1">
      <defs>
       <path d="M 0 0 
L 0 3.5 
" id="m307d8bf8e0" style="stroke:#000000;stroke-width:0.8;"/>
      </defs>
      <g>
       <use style="stroke:#000000;stroke-width:0.8;" x="30.856205" xlink:href="#m307d8bf8e0" y="283.802625"/>
      </g>
     </g>
     <g id="text_1">
      <!-- 15 -->
      <defs>
       <path d="M 38.484375 0.984375 
L 29.6875 0.984375 
L 29.6875 64.109375 
Q 21.4375 61.28125 12.3125 59.328125 
L 10.6875 66.109375 
Q 23.734375 69.390625 32.90625 73.921875 
L 38.484375 73.921875 
z
" id="IPAexGothic-49"/>
       <path d="M 18.40625 40.671875 
Q 25.53125 46.296875 33.9375 46.296875 
Q 44 46.296875 50.640625 39.5 
Q 56.84375 33.015625 56.84375 23.390625 
Q 56.84375 14.65625 51.515625 8.015625 
Q 44.828125 -0.484375 31.734375 -0.484375 
Q 14.984375 -0.484375 7.328125 12.25 
L 14.65625 16.0625 
Q 20.453125 6.78125 31.453125 6.78125 
Q 38.53125 6.78125 43.265625 11.1875 
Q 48.140625 15.828125 48.140625 23.484375 
Q 48.140625 30.71875 43.84375 35.015625 
Q 39.359375 39.5 32.125 39.5 
Q 21.96875 39.5 16.75 31.6875 
L 9.234375 32.671875 
L 13.8125 72.40625 
L 53.21875 72.40625 
L 53.21875 64.890625 
L 20.953125 64.890625 
L 17.71875 40.671875 
z
" id="IPAexGothic-53"/>
      </defs>
      <g transform="translate(24.557768 298.29325)scale(0.1 -0.1)">
       <use xlink:href="#IPAexGothic-49"/>
       <use x="62.988281" xlink:href="#IPAexGothic-53"/>
      </g>
     </g>
    </g>
    <g id="xtick_2">
     <g id="line2d_2">
      <g>
       <use style="stroke:#000000;stroke-width:0.8;" x="85.609452" xlink:href="#m307d8bf8e0" y="283.802625"/>
      </g>
     </g>
     <g id="text_2">
      <!-- Feb -->
      <defs>
       <path d="M 54.203125 64.703125 
L 18.3125 64.703125 
L 18.3125 41.5 
L 50.09375 41.5 
L 50.09375 34.1875 
L 18.3125 34.1875 
L 18.3125 0.984375 
L 9.515625 0.984375 
L 9.515625 72.40625 
L 54.203125 72.40625 
z
" id="IPAexGothic-70"/>
       <path d="M 13.484375 24.90625 
Q 13.921875 16.265625 18.890625 11.28125 
Q 23.96875 6.203125 31.203125 6.203125 
Q 40.71875 6.203125 46.296875 15.09375 
L 51.90625 11.375 
Q 44.828125 -0.484375 30.171875 -0.484375 
Q 19.09375 -0.484375 11.96875 6.59375 
Q 4.78125 13.8125 4.78125 25.640625 
Q 4.78125 38.1875 12.3125 45.703125 
Q 19 52.390625 29 52.390625 
Q 38.421875 52.390625 44.78125 46.1875 
Q 51.90625 38.96875 51.90625 26.90625 
L 51.90625 24.90625 
z
M 43.0625 31.203125 
Q 42.328125 37.984375 38.28125 41.890625 
Q 34.28125 45.90625 28.8125 45.90625 
Q 22.46875 45.90625 17.96875 40.484375 
Q 14.890625 36.8125 13.96875 31.203125 
z
" id="IPAexGothic-101"/>
       <path d="M 17.578125 42.671875 
Q 24.21875 52.203125 34.671875 52.203125 
Q 43.5625 52.203125 49.859375 45.90625 
Q 57.171875 38.578125 57.171875 25.6875 
Q 57.171875 13.09375 49.859375 5.8125 
Q 43.5625 -0.484375 34.46875 -0.484375 
Q 24.359375 -0.484375 17 8.0625 
L 15.765625 0.6875 
L 9.078125 0.6875 
L 9.078125 74.90625 
L 17.578125 74.90625 
z
M 17.578125 31.203125 
L 17.578125 19.578125 
Q 17.578125 13.875 23.875 9.375 
Q 28.171875 6.296875 33.109375 6.296875 
Q 38.875 6.296875 42.875 10.296875 
Q 48.1875 15.765625 48.1875 25.484375 
Q 48.1875 34.28125 43.796875 39.890625 
Q 39.453125 45.3125 33.203125 45.3125 
Q 27.484375 45.3125 22.46875 40.28125 
Q 17.578125 35.40625 17.578125 31.203125 
z
" id="IPAexGothic-98"/>
      </defs>
      <g transform="translate(76.786015 298.29325)scale(0.1 -0.1)">
       <use xlink:href="#IPAexGothic-70"/>
       <use x="57.177734" xlink:href="#IPAexGothic-101"/>
       <use x="114.0625" xlink:href="#IPAexGothic-98"/>
      </g>
     </g>
    </g>
    <g id="xtick_3">
     <g id="line2d_3">
      <g>
       <use style="stroke:#000000;stroke-width:0.8;" x="130.700361" xlink:href="#m307d8bf8e0" y="283.802625"/>
      </g>
     </g>
     <g id="text_3">
      <!-- 15 -->
      <g transform="translate(124.401924 298.29325)scale(0.1 -0.1)">
       <use xlink:href="#IPAexGothic-49"/>
       <use x="62.988281" xlink:href="#IPAexGothic-53"/>
      </g>
     </g>
    </g>
    <g id="xtick_4">
     <g id="line2d_4">
      <g>
       <use style="stroke:#000000;stroke-width:0.8;" x="179.01205" xlink:href="#m307d8bf8e0" y="283.802625"/>
      </g>
     </g>
     <g id="text_4">
      <!-- Mar -->
      <defs>
       <path d="M 80.421875 0.984375 
L 71.828125 0.984375 
L 71.828125 39.59375 
Q 71.828125 51.265625 72.40625 64.59375 
L 72.015625 64.59375 
Q 68.0625 53.265625 63.53125 41.796875 
L 47.90625 3.265625 
L 41.40625 3.265625 
L 25.640625 42.578125 
Q 20.75 54.78125 17.625 64.703125 
L 17.234375 64.703125 
Q 17.828125 48.921875 17.828125 39.890625 
L 17.828125 0.984375 
L 9.515625 0.984375 
L 9.515625 72.40625 
L 22.125 72.40625 
L 39.109375 30.375 
Q 42.140625 23 44.828125 14.15625 
L 45.125 14.15625 
Q 47.3125 22.125 50.53125 30.171875 
L 67.4375 72.40625 
L 80.421875 72.40625 
z
" id="IPAexGothic-77"/>
       <path d="M 49.3125 0.984375 
L 41.75 0.984375 
Q 39.984375 4.734375 39.546875 8.6875 
L 39.203125 8.6875 
Q 33.546875 -0.390625 22.3125 -0.390625 
Q 14.59375 -0.390625 9.71875 4.5 
Q 5.421875 8.796875 5.421875 14.984375 
Q 5.421875 30.421875 32.03125 31.203125 
L 38.71875 31.390625 
L 38.71875 33.984375 
Q 38.71875 39.203125 35.75 42.1875 
Q 32.625 45.3125 27.734375 45.3125 
Q 19.34375 45.3125 15.140625 37.15625 
L 7.71875 40.578125 
Q 14.65625 52 27.9375 52 
Q 37.109375 52 42.046875 46.875 
Q 46.625 42.28125 46.625 33.890625 
L 46.625 15.578125 
Q 46.625 6.25 49.3125 0.984375 
z
M 38.921875 25.390625 
L 33.453125 25.296875 
Q 14.109375 24.859375 14.109375 14.890625 
Q 14.109375 11.375 16.40625 9.078125 
Q 19.234375 6.296875 23.828125 6.296875 
Q 30.21875 6.296875 34.90625 10.984375 
Q 38.921875 15.140625 38.921875 21 
z
" id="IPAexGothic-97"/>
       <path d="M 36.078125 51.8125 
L 34.578125 43.265625 
Q 32.90625 43.609375 31.59375 43.609375 
Q 25.828125 43.609375 22.078125 38.1875 
Q 17.390625 31.34375 17.390625 26.171875 
L 17.390625 0.984375 
L 8.796875 0.984375 
L 8.796875 50.78125 
L 16.890625 50.78125 
L 16.5 35.984375 
L 16.703125 35.984375 
Q 22.21875 52.203125 32.765625 52.203125 
Q 34.46875 52.203125 36.078125 51.8125 
z
" id="IPAexGothic-114"/>
      </defs>
      <g transform="translate(169.902675 298.29325)scale(0.1 -0.1)">
       <use xlink:href="#IPAexGothic-77"/>
       <use x="90.185547" xlink:href="#IPAexGothic-97"/>
       <use x="145.166016" xlink:href="#IPAexGothic-114"/>
      </g>
     </g>
    </g>
    <g id="xtick_5">
     <g id="line2d_5">
      <g>
       <use style="stroke:#000000;stroke-width:0.8;" x="224.102959" xlink:href="#m307d8bf8e0" y="283.802625"/>
      </g>
     </g>
     <g id="text_5">
      <!-- 15 -->
      <g transform="translate(217.804521 298.29325)scale(0.1 -0.1)">
       <use xlink:href="#IPAexGothic-49"/>
       <use x="62.988281" xlink:href="#IPAexGothic-53"/>
      </g>
     </g>
    </g>
    <g id="xtick_6">
     <g id="line2d_6">
      <g>
       <use style="stroke:#000000;stroke-width:0.8;" x="278.856205" xlink:href="#m307d8bf8e0" y="283.802625"/>
      </g>
     </g>
     <g id="text_6">
      <!-- Apr -->
      <defs>
       <path d="M 63.375 0.984375 
L 53.8125 0.984375 
L 45.90625 22.015625 
L 17.1875 22.015625 
L 9.421875 0.984375 
L -0.09375 0.984375 
L 28.21875 72.90625 
L 35.296875 72.90625 
z
M 43.40625 29.109375 
L 36.1875 48.09375 
Q 33.203125 56.0625 31.6875 62.5 
L 31.390625 62.5 
Q 29.640625 55.671875 26.8125 48.09375 
L 19.734375 29.109375 
z
" id="IPAexGothic-65"/>
       <path d="M 16.796875 42 
Q 23.828125 52.203125 34.46875 52.203125 
Q 43.265625 52.203125 49.5625 45.90625 
Q 56.890625 38.578125 56.890625 25.6875 
Q 56.890625 13.140625 49.65625 5.8125 
Q 43.359375 -0.484375 34.375 -0.484375 
Q 24.515625 -0.484375 17.28125 7.765625 
L 17.28125 -19 
L 8.796875 -19 
L 8.796875 50.78125 
L 16.796875 50.78125 
z
M 17.28125 30.46875 
L 17.28125 20.171875 
Q 17.28125 14.015625 23.6875 9.375 
Q 27.984375 6.296875 32.90625 6.296875 
Q 38.578125 6.296875 42.578125 10.296875 
Q 47.90625 15.578125 47.90625 25.484375 
Q 47.90625 34.375 43.5 39.984375 
Q 39.109375 45.3125 32.8125 45.3125 
Q 25.875 45.3125 20.90625 38.8125 
Q 17.28125 34.125 17.28125 30.46875 
z
" id="IPAexGothic-112"/>
      </defs>
      <g transform="translate(270.714018 298.29325)scale(0.1 -0.1)">
       <use xlink:href="#IPAexGothic-65"/>
       <use x="63.720703" xlink:href="#IPAexGothic-112"/>
       <use x="125.830078" xlink:href="#IPAexGothic-114"/>
      </g>
     </g>
    </g>
    <g id="xtick_7">
     <g id="line2d_7">
      <g>
       <use style="stroke:#000000;stroke-width:0.8;" x="323.947114" xlink:href="#m307d8bf8e0" y="283.802625"/>
      </g>
     </g>
     <g id="text_7">
      <!-- 15 -->
      <g transform="translate(317.648677 298.29325)scale(0.1 -0.1)">
       <use xlink:href="#IPAexGothic-49"/>
       <use x="62.988281" xlink:href="#IPAexGothic-53"/>
      </g>
     </g>
    </g>
    <g id="xtick_8">
     <g id="line2d_8">
      <g>
       <use style="stroke:#000000;stroke-width:0.8;" x="375.479582" xlink:href="#m307d8bf8e0" y="283.802625"/>
      </g>
     </g>
     <g id="text_8">
      <!-- May -->
      <defs>
       <path d="M 48.78125 50.78125 
L 24.609375 -7.625 
Q 19.96875 -18.796875 8.59375 -18.796875 
L 7.46875 -18.796875 
L 5.375 -10.984375 
L 6.984375 -10.984375 
Q 15.140625 -10.984375 17.96875 -3.71875 
L 21.1875 4.296875 
L 0.59375 50.78125 
L 10.296875 50.78125 
L 21.296875 22.796875 
Q 23.875 16.015625 25.09375 12.203125 
L 25.390625 12.203125 
Q 27.34375 18.265625 29.109375 22.796875 
L 39.5 50.78125 
z
" id="IPAexGothic-121"/>
      </defs>
      <g transform="translate(365.760051 298.29325)scale(0.1 -0.1)">
       <use xlink:href="#IPAexGothic-77"/>
       <use x="90.185547" xlink:href="#IPAexGothic-97"/>
       <use x="145.166016" xlink:href="#IPAexGothic-121"/>
      </g>
     </g>
    </g>
    <g id="text_9">
     <!-- 2020-May -->
     <defs>
      <path d="M 57.171875 0.984375 
L 6.984375 0.984375 
L 6.984375 9.28125 
Q 12.890625 23.046875 29.59375 34.421875 
L 32.375 36.28125 
Q 40.921875 42.140625 43.609375 45.40625 
Q 46.6875 49.265625 46.6875 53.8125 
Q 46.6875 58.9375 43.0625 62.546875 
Q 39.0625 66.546875 32.5625 66.546875 
Q 19.53125 66.546875 15.484375 52 
L 7.765625 54.78125 
Q 13.328125 73.828125 33.0625 73.828125 
Q 43.84375 73.828125 50.25 67.4375 
Q 55.859375 61.671875 55.859375 53.515625 
Q 55.859375 47.46875 52.25 42.53125 
Q 48.921875 37.75 36.96875 30.28125 
L 34.859375 29 
Q 19.625 19.578125 15.28125 8.890625 
L 57.171875 8.890625 
z
" id="IPAexGothic-50"/>
      <path d="M 31.84375 73.828125 
Q 45.015625 73.828125 52.09375 61.625 
Q 57.71875 51.953125 57.71875 36.625 
Q 57.71875 21.4375 52.09375 11.578125 
Q 45.125 -0.484375 31.5 -0.484375 
Q 17.921875 -0.484375 10.9375 11.578125 
Q 5.328125 21.4375 5.328125 36.71875 
Q 5.328125 58.015625 15.625 67.71875 
Q 22.171875 73.828125 31.84375 73.828125 
z
M 31.5 66.65625 
Q 23.6875 66.65625 19.1875 58.734375 
Q 14.59375 50.734375 14.59375 36.625 
Q 14.59375 22.75 19.09375 14.796875 
Q 23.640625 6.984375 31.5 6.984375 
Q 40.921875 6.984375 45.453125 18.015625 
Q 48.4375 25.34375 48.4375 37.109375 
Q 48.4375 50.875 43.84375 58.734375 
Q 39.203125 66.65625 31.5 66.65625 
z
" id="IPAexGothic-48"/>
      <path d="M 30.765625 26.609375 
L 4.984375 26.609375 
L 4.984375 34.421875 
L 30.765625 34.421875 
z
" id="IPAexGothic-45"/>
     </defs>
     <g transform="translate(338.346563 310.683875)scale(0.1 -0.1)">
      <use xlink:href="#IPAexGothic-50"/>
      <use x="62.988281" xlink:href="#IPAexGothic-48"/>
      <use x="125.976562" xlink:href="#IPAexGothic-50"/>
      <use x="188.964844" xlink:href="#IPAexGothic-48"/>
      <use x="251.953125" xlink:href="#IPAexGothic-45"/>
      <use x="287.744141" xlink:href="#IPAexGothic-77"/>
      <use x="377.929688" xlink:href="#IPAexGothic-97"/>
      <use x="432.910156" xlink:href="#IPAexGothic-121"/>
     </g>
    </g>
   </g>
   <g id="matplotlib.axis_2">
    <g id="ytick_1">
     <g id="line2d_9">
      <defs>
       <path d="M 0 0 
L -3.5 0 
" id="mef88aad7ce" style="stroke:#000000;stroke-width:0.8;"/>
      </defs>
      <g>
       <use style="stroke:#000000;stroke-width:0.8;" x="29.439063" xlink:href="#mef88aad7ce" y="283.802625"/>
      </g>
     </g>
     <g id="text_10">
      <!-- 0.0 -->
      <defs>
       <path d="M 18.5 0.984375 
L 7.71875 0.984375 
L 7.71875 11.765625 
L 18.5 11.765625 
z
" id="IPAexGothic-46"/>
      </defs>
      <g transform="translate(7.2 287.547937)scale(0.1 -0.1)">
       <use xlink:href="#IPAexGothic-48"/>
       <use x="62.988281" xlink:href="#IPAexGothic-46"/>
       <use x="89.404297" xlink:href="#IPAexGothic-48"/>
      </g>
     </g>
    </g>
    <g id="ytick_2">
     <g id="line2d_10">
      <g>
       <use style="stroke:#000000;stroke-width:0.8;" x="29.439063" xlink:href="#mef88aad7ce" y="241.827794"/>
      </g>
     </g>
     <g id="text_11">
      <!-- 0.5 -->
      <g transform="translate(7.2 245.573106)scale(0.1 -0.1)">
       <use xlink:href="#IPAexGothic-48"/>
       <use x="62.988281" xlink:href="#IPAexGothic-46"/>
       <use x="89.404297" xlink:href="#IPAexGothic-53"/>
      </g>
     </g>
    </g>
    <g id="ytick_3">
     <g id="line2d_11">
      <g>
       <use style="stroke:#000000;stroke-width:0.8;" x="29.439063" xlink:href="#mef88aad7ce" y="199.852963"/>
      </g>
     </g>
     <g id="text_12">
      <!-- 1.0 -->
      <g transform="translate(7.2 203.598275)scale(0.1 -0.1)">
       <use xlink:href="#IPAexGothic-49"/>
       <use x="62.988281" xlink:href="#IPAexGothic-46"/>
       <use x="89.404297" xlink:href="#IPAexGothic-48"/>
      </g>
     </g>
    </g>
    <g id="ytick_4">
     <g id="line2d_12">
      <g>
       <use style="stroke:#000000;stroke-width:0.8;" x="29.439063" xlink:href="#mef88aad7ce" y="157.878132"/>
      </g>
     </g>
     <g id="text_13">
      <!-- 1.5 -->
      <g transform="translate(7.2 161.623444)scale(0.1 -0.1)">
       <use xlink:href="#IPAexGothic-49"/>
       <use x="62.988281" xlink:href="#IPAexGothic-46"/>
       <use x="89.404297" xlink:href="#IPAexGothic-53"/>
      </g>
     </g>
    </g>
    <g id="ytick_5">
     <g id="line2d_13">
      <g>
       <use style="stroke:#000000;stroke-width:0.8;" x="29.439063" xlink:href="#mef88aad7ce" y="115.903301"/>
      </g>
     </g>
     <g id="text_14">
      <!-- 2.0 -->
      <g transform="translate(7.2 119.648613)scale(0.1 -0.1)">
       <use xlink:href="#IPAexGothic-50"/>
       <use x="62.988281" xlink:href="#IPAexGothic-46"/>
       <use x="89.404297" xlink:href="#IPAexGothic-48"/>
      </g>
     </g>
    </g>
    <g id="ytick_6">
     <g id="line2d_14">
      <g>
       <use style="stroke:#000000;stroke-width:0.8;" x="29.439063" xlink:href="#mef88aad7ce" y="73.92847"/>
      </g>
     </g>
     <g id="text_15">
      <!-- 2.5 -->
      <g transform="translate(7.2 77.673782)scale(0.1 -0.1)">
       <use xlink:href="#IPAexGothic-50"/>
       <use x="62.988281" xlink:href="#IPAexGothic-46"/>
       <use x="89.404297" xlink:href="#IPAexGothic-53"/>
      </g>
     </g>
    </g>
    <g id="ytick_7">
     <g id="line2d_15">
      <g>
       <use style="stroke:#000000;stroke-width:0.8;" x="29.439063" xlink:href="#mef88aad7ce" y="31.953639"/>
      </g>
     </g>
     <g id="text_16">
      <!-- 3.0 -->
      <defs>
       <path d="M 37.203125 37.796875 
Q 54.78125 34.625 54.78125 19.96875 
Q 54.78125 11.1875 48.875 5.5625 
Q 42.328125 -0.484375 30.375 -0.484375 
Q 12.453125 -0.484375 4.5 13.765625 
L 11.8125 17.671875 
Q 17.328125 6.890625 30.28125 6.890625 
Q 37.890625 6.890625 42.09375 10.796875 
Q 46.09375 14.5 46.09375 20.171875 
Q 46.09375 26.859375 40.09375 30.90625 
Q 34.625 34.578125 25.6875 34.578125 
L 21.296875 34.578125 
L 21.296875 41.703125 
L 25.875 41.703125 
Q 34.859375 41.703125 39.59375 45.125 
Q 44.671875 48.734375 44.671875 54.828125 
Q 44.671875 61.46875 38.96875 64.65625 
Q 35.296875 66.84375 30.171875 66.84375 
Q 19.34375 66.84375 14.109375 55.90625 
L 6.78125 59.421875 
Q 14.015625 73.828125 30.28125 73.828125 
Q 40.578125 73.828125 46.96875 68.65625 
Q 53.375 63.578125 53.375 55.21875 
Q 53.375 47.3125 47.171875 42.28125 
Q 43.171875 39.0625 37.203125 38.1875 
z
" id="IPAexGothic-51"/>
      </defs>
      <g transform="translate(7.2 35.698951)scale(0.1 -0.1)">
       <use xlink:href="#IPAexGothic-51"/>
       <use x="62.988281" xlink:href="#IPAexGothic-46"/>
       <use x="89.404297" xlink:href="#IPAexGothic-48"/>
      </g>
     </g>
    </g>
    <g id="text_17">
     <!-- 1e6 -->
     <defs>
      <path d="M 16.5 36.375 
Q 23.578125 46.578125 34.90625 46.578125 
Q 45.40625 46.578125 51.8125 39.265625 
Q 57.421875 32.90625 57.421875 23.78125 
Q 57.421875 13.8125 51.125 6.78125 
Q 44.578125 -0.484375 34.03125 -0.484375 
Q 21.484375 -0.484375 14.40625 9.078125 
Q 7.515625 18.40625 7.515625 34.8125 
Q 7.515625 53.515625 15.828125 64.203125 
Q 23.34375 73.828125 35.5 73.828125 
Q 49.859375 73.828125 56.390625 62.890625 
L 49.21875 58.984375 
Q 45.21875 66.65625 35.9375 66.65625 
Q 17.484375 66.65625 16.109375 36.375 
z
M 33.453125 39.796875 
Q 26.3125 39.796875 21.625 34.46875 
Q 17.4375 29.6875 17.4375 24.078125 
Q 17.4375 18.0625 21.140625 13.1875 
Q 26.125 6.6875 33.734375 6.6875 
Q 41.703125 6.6875 45.953125 13.1875 
Q 48.828125 17.625 48.828125 23.484375 
Q 48.828125 30.375 45.015625 34.8125 
Q 40.625 39.796875 33.453125 39.796875 
z
" id="IPAexGothic-54"/>
     </defs>
     <g transform="translate(29.439063 14.690625)scale(0.1 -0.1)">
      <use xlink:href="#IPAexGothic-49"/>
      <use x="62.988281" xlink:href="#IPAexGothic-101"/>
      <use x="119.873047" xlink:href="#IPAexGothic-54"/>
     </g>
    </g>
   </g>
   <g id="patch_303">
    <path d="M 29.439063 283.802625 
L 29.439063 17.690625 
" style="fill:none;stroke:#000000;stroke-linecap:square;stroke-linejoin:miter;stroke-width:0.8;"/>
   </g>
   <g id="patch_304">
    <path d="M 386.559062 283.802625 
L 386.559062 17.690625 
" style="fill:none;stroke:#000000;stroke-linecap:square;stroke-linejoin:miter;stroke-width:0.8;"/>
   </g>
   <g id="patch_305">
    <path d="M 29.439062 283.802625 
L 386.559062 283.802625 
" style="fill:none;stroke:#000000;stroke-linecap:square;stroke-linejoin:miter;stroke-width:0.8;"/>
   </g>
   <g id="patch_306">
    <path d="M 29.439062 17.690625 
L 386.559062 17.690625 
" style="fill:none;stroke:#000000;stroke-linecap:square;stroke-linejoin:miter;stroke-width:0.8;"/>
   </g>
   <g id="legend_1">
    <g id="patch_307">
     <path d="M 36.439063 68.8625 
L 151.284375 68.8625 
Q 153.284375 68.8625 153.284375 66.8625 
L 153.284375 24.690625 
Q 153.284375 22.690625 151.284375 22.690625 
L 36.439063 22.690625 
Q 34.439063 22.690625 34.439063 24.690625 
L 34.439063 66.8625 
Q 34.439063 68.8625 36.439063 68.8625 
z
" style="fill:#ffffff;opacity:0.8;stroke:#cccccc;stroke-linejoin:miter;"/>
    </g>
    <g id="patch_308">
     <path d="M 38.439063 34.18125 
L 58.439063 34.18125 
L 58.439063 27.18125 
L 38.439063 27.18125 
z
" style="fill:#ffbb78;"/>
    </g>
    <g id="text_18">
     <!-- Global Confirmed -->
     <defs>
      <path d="M 68.796875 12.203125 
Q 65.1875 7.71875 58.296875 3.90625 
Q 50.140625 -0.484375 40.484375 -0.484375 
Q 25.09375 -0.484375 15.4375 9.8125 
Q 5.90625 19.921875 5.90625 36.328125 
Q 5.90625 53.21875 15.828125 63.71875 
Q 25.296875 73.828125 39.59375 73.828125 
Q 59.375 73.828125 67.578125 56.6875 
L 59.625 52.984375 
Q 53.46875 66.21875 39.703125 66.21875 
Q 29.546875 66.21875 22.703125 58.5 
Q 15.53125 50.25 15.53125 36.375 
Q 15.53125 23.921875 21.828125 15.96875 
Q 28.8125 7.171875 41.015625 7.171875 
Q 54.046875 7.171875 60.59375 15.09375 
L 60.59375 29 
L 44.671875 29 
L 44.671875 35.796875 
L 68.796875 35.796875 
z
" id="IPAexGothic-71"/>
      <path d="M 17.671875 0.984375 
L 9.078125 0.984375 
L 9.078125 74.90625 
L 17.671875 74.90625 
z
" id="IPAexGothic-108"/>
      <path d="M 29.984375 52.203125 
Q 40.53125 52.203125 47.75 45.125 
Q 55.171875 37.703125 55.171875 25.59375 
Q 55.171875 13.875 47.90625 6.59375 
Q 40.765625 -0.484375 29.984375 -0.484375 
Q 19.1875 -0.484375 12.203125 6.5 
Q 4.890625 13.765625 4.890625 25.875 
Q 4.890625 37.703125 12.3125 45.125 
Q 19.390625 52.203125 29.984375 52.203125 
z
M 29.984375 45.609375 
Q 23.734375 45.609375 19.390625 41.109375 
Q 13.875 35.59375 13.875 25.78125 
Q 13.875 16.109375 19.28125 10.6875 
Q 23.6875 6.296875 29.984375 6.296875 
Q 36.421875 6.296875 40.765625 10.796875 
Q 46.1875 16.21875 46.1875 26.125 
Q 46.1875 35.453125 40.671875 41.109375 
Q 36.1875 45.609375 29.984375 45.609375 
z
" id="IPAexGothic-111"/>
      <path id="IPAexGothic-32"/>
      <path d="M 68.015625 17 
Q 65.328125 10.84375 60.296875 6.6875 
Q 51.765625 -0.484375 39.984375 -0.484375 
Q 24.8125 -0.484375 14.984375 10.203125 
Q 5.90625 20.21875 5.90625 36.421875 
Q 5.90625 53.21875 15.828125 63.71875 
Q 25.296875 73.828125 39.59375 73.828125 
Q 59.578125 73.828125 67.53125 56.6875 
L 59.515625 52.984375 
Q 53.515625 66.21875 39.703125 66.21875 
Q 29.546875 66.21875 22.703125 58.5 
Q 15.53125 50.25 15.53125 36.28125 
Q 15.53125 24.21875 21.625 16.5 
Q 28.765625 7.375 40.046875 7.375 
Q 54 7.375 60.59375 20.609375 
z
" id="IPAexGothic-67"/>
      <path d="M 52 0.984375 
L 43.40625 0.984375 
L 43.40625 31.890625 
Q 43.40625 44.578125 32.90625 44.578125 
Q 22.3125 44.578125 17.390625 31.890625 
L 17.390625 0.984375 
L 8.796875 0.984375 
L 8.796875 50.78125 
L 16.796875 50.78125 
L 16.796875 41.796875 
Q 23.828125 51.8125 34.71875 51.8125 
Q 52 51.8125 52 32.375 
z
" id="IPAexGothic-110"/>
      <path d="M 38.375 72.21875 
L 34.8125 66.3125 
Q 31.109375 69.09375 27.203125 69.09375 
Q 18.5 69.09375 18.5 57.375 
L 18.5 50.78125 
L 32.078125 50.78125 
L 32.078125 44.671875 
L 18.5 44.671875 
L 18.5 0.984375 
L 10.015625 0.984375 
L 10.015625 44.671875 
L 1.90625 44.671875 
L 1.90625 50.78125 
L 10.015625 50.78125 
L 10.015625 57.171875 
Q 10.015625 65.4375 13.921875 70.0625 
Q 18.75 75.6875 26.703125 75.6875 
Q 33.0625 75.6875 38.375 72.21875 
z
" id="IPAexGothic-102"/>
      <path d="M 18.40625 61.375 
L 8.59375 61.375 
L 8.59375 71.390625 
L 18.40625 71.390625 
z
M 17.78125 0.984375 
L 9.1875 0.984375 
L 9.1875 50.78125 
L 17.78125 50.78125 
z
" id="IPAexGothic-105"/>
      <path d="M 78.46875 0.984375 
L 69.875 0.984375 
L 69.875 32.171875 
Q 69.875 44.828125 60.109375 44.828125 
Q 55.46875 44.828125 51.609375 40.53125 
Q 48.875 37.453125 47.796875 32.859375 
L 47.796875 0.984375 
L 39.203125 0.984375 
L 39.203125 32.28125 
Q 39.203125 44.828125 29.984375 44.828125 
Q 25.09375 44.828125 21.390625 40.53125 
Q 17.390625 36.03125 17.390625 31.890625 
L 17.390625 0.984375 
L 8.796875 0.984375 
L 8.796875 50.78125 
L 16.796875 50.78125 
L 16.796875 42.1875 
Q 21.734375 51.8125 31.6875 51.8125 
Q 42.578125 51.8125 46.1875 41.359375 
Q 51.609375 51.8125 61.765625 51.8125 
Q 69.96875 51.8125 74.5625 46 
Q 78.46875 41.21875 78.46875 32.375 
z
" id="IPAexGothic-109"/>
      <path d="M 52.984375 0.984375 
L 45.171875 0.984375 
L 45.171875 9.671875 
Q 38.140625 -0.484375 27.390625 -0.484375 
Q 18.453125 -0.484375 12.3125 5.8125 
Q 4.890625 13.1875 4.890625 25.984375 
Q 4.890625 38.53125 12.0625 45.90625 
Q 18.265625 52.203125 27.390625 52.203125 
Q 37.25 52.203125 44.484375 43.890625 
L 44.484375 74.90625 
L 52.984375 74.90625 
z
M 44.484375 20.359375 
L 44.484375 32.765625 
Q 44.484375 37.703125 38.375 42.28125 
Q 34.078125 45.40625 28.953125 45.40625 
Q 23.1875 45.40625 19.1875 41.40625 
Q 13.875 36.078125 13.875 26.21875 
Q 13.875 17.328125 18.265625 11.71875 
Q 22.515625 6.390625 28.859375 6.390625 
Q 36.28125 6.390625 41.5 13.671875 
Q 44.484375 17.71875 44.484375 20.359375 
z
" id="IPAexGothic-100"/>
     </defs>
     <g transform="translate(66.439063 34.18125)scale(0.1 -0.1)">
      <use xlink:href="#IPAexGothic-71"/>
      <use x="75.292969" xlink:href="#IPAexGothic-108"/>
      <use x="102.294922" xlink:href="#IPAexGothic-111"/>
      <use x="162.695312" xlink:href="#IPAexGothic-98"/>
      <use x="225.097656" xlink:href="#IPAexGothic-97"/>
      <use x="280.078125" xlink:href="#IPAexGothic-108"/>
      <use x="307.080078" xlink:href="#IPAexGothic-32"/>
      <use x="334.082031" xlink:href="#IPAexGothic-67"/>
      <use x="406.591797" xlink:href="#IPAexGothic-111"/>
      <use x="466.992188" xlink:href="#IPAexGothic-110"/>
      <use x="527.392578" xlink:href="#IPAexGothic-102"/>
      <use x="558.007812" xlink:href="#IPAexGothic-105"/>
      <use x="585.009766" xlink:href="#IPAexGothic-114"/>
      <use x="622.021484" xlink:href="#IPAexGothic-109"/>
      <use x="709.130859" xlink:href="#IPAexGothic-101"/>
      <use x="766.015625" xlink:href="#IPAexGothic-100"/>
     </g>
    </g>
    <g id="patch_309">
     <path d="M 38.439063 48.571875 
L 58.439063 48.571875 
L 58.439063 41.571875 
L 38.439063 41.571875 
z
" style="fill:#ff7f0e;"/>
    </g>
    <g id="text_19">
     <!-- China Confirmed -->
     <defs>
      <path d="M 52.296875 0.984375 
L 43.703125 0.984375 
L 43.703125 31.890625 
Q 43.703125 44.578125 33.296875 44.578125 
Q 22.609375 44.578125 17.671875 31.890625 
L 17.671875 0.984375 
L 9.078125 0.984375 
L 9.078125 74.90625 
L 17.671875 74.90625 
L 17.671875 42.28125 
Q 24.46875 51.8125 35.109375 51.8125 
Q 52.296875 51.8125 52.296875 32.375 
z
" id="IPAexGothic-104"/>
     </defs>
     <g transform="translate(66.439063 48.571875)scale(0.1 -0.1)">
      <use xlink:href="#IPAexGothic-67"/>
      <use x="72.509766" xlink:href="#IPAexGothic-104"/>
      <use x="133.203125" xlink:href="#IPAexGothic-105"/>
      <use x="160.205078" xlink:href="#IPAexGothic-110"/>
      <use x="220.605469" xlink:href="#IPAexGothic-97"/>
      <use x="275.585938" xlink:href="#IPAexGothic-32"/>
      <use x="302.587891" xlink:href="#IPAexGothic-67"/>
      <use x="375.097656" xlink:href="#IPAexGothic-111"/>
      <use x="435.498047" xlink:href="#IPAexGothic-110"/>
      <use x="495.898438" xlink:href="#IPAexGothic-102"/>
      <use x="526.513672" xlink:href="#IPAexGothic-105"/>
      <use x="553.515625" xlink:href="#IPAexGothic-114"/>
      <use x="590.527344" xlink:href="#IPAexGothic-109"/>
      <use x="677.636719" xlink:href="#IPAexGothic-101"/>
      <use x="734.521484" xlink:href="#IPAexGothic-100"/>
     </g>
    </g>
    <g id="patch_310">
     <path d="M 38.439063 62.9625 
L 58.439063 62.9625 
L 58.439063 55.9625 
L 38.439063 55.9625 
z
" style="fill:#d62728;"/>
    </g>
    <g id="text_20">
     <!-- Global Deaths -->
     <defs>
      <path d="M 9.515625 72.40625 
L 31 72.40625 
Q 49.359375 72.40625 59.234375 63.28125 
Q 69.625 53.8125 69.625 36.8125 
Q 69.625 16.359375 54.9375 6.890625 
Q 45.703125 0.984375 30.328125 0.984375 
L 9.515625 0.984375 
z
M 18.3125 8.6875 
L 29.59375 8.6875 
Q 60.203125 8.6875 60.203125 36.8125 
Q 60.203125 64.796875 30.125 64.796875 
L 18.3125 64.796875 
z
" id="IPAexGothic-68"/>
      <path d="M 33.203125 3.765625 
Q 27.640625 -0.09375 21.828125 -0.09375 
Q 10.203125 -0.09375 10.203125 12.984375 
L 10.203125 44.671875 
L 3.421875 44.671875 
L 3.421875 50.78125 
L 10.203125 50.78125 
L 10.203125 61.96875 
L 18.40625 66.0625 
L 18.40625 50.78125 
L 32.234375 50.78125 
L 32.234375 44.671875 
L 18.40625 44.671875 
L 18.40625 14.15625 
Q 18.40625 6.5 23.640625 6.5 
Q 27.15625 6.5 30.328125 9.1875 
z
" id="IPAexGothic-116"/>
      <path d="M 34.90625 39.796875 
Q 30.28125 45.796875 23.1875 45.796875 
Q 13.921875 45.796875 13.921875 38.671875 
Q 13.921875 33.640625 23.921875 30.375 
L 27.203125 29.296875 
Q 41.40625 24.65625 41.40625 13.96875 
Q 41.40625 6.78125 35.5 2.6875 
Q 30.8125 -0.484375 23.390625 -0.484375 
Q 11.96875 -0.484375 4 7.859375 
L 9.421875 12.796875 
Q 15.578125 6.203125 23.6875 6.203125 
Q 33.296875 6.203125 33.296875 13.671875 
Q 33.296875 19.34375 22.703125 23.09375 
L 19.28125 24.265625 
Q 5.90625 28.953125 5.90625 37.984375 
Q 5.90625 43.703125 9.8125 47.609375 
Q 14.5 52.296875 22.703125 52.296875 
Q 33.6875 52.296875 40.71875 44.671875 
z
" id="IPAexGothic-115"/>
     </defs>
     <g transform="translate(66.439063 62.9625)scale(0.1 -0.1)">
      <use xlink:href="#IPAexGothic-71"/>
      <use x="75.292969" xlink:href="#IPAexGothic-108"/>
      <use x="102.294922" xlink:href="#IPAexGothic-111"/>
      <use x="162.695312" xlink:href="#IPAexGothic-98"/>
      <use x="225.097656" xlink:href="#IPAexGothic-97"/>
      <use x="280.078125" xlink:href="#IPAexGothic-108"/>
      <use x="307.080078" xlink:href="#IPAexGothic-32"/>
      <use x="334.082031" xlink:href="#IPAexGothic-68"/>
      <use x="409.765625" xlink:href="#IPAexGothic-101"/>
      <use x="466.650391" xlink:href="#IPAexGothic-97"/>
      <use x="521.630859" xlink:href="#IPAexGothic-116"/>
      <use x="556.25" xlink:href="#IPAexGothic-104"/>
      <use x="616.943359" xlink:href="#IPAexGothic-115"/>
     </g>
    </g>
   </g>
  </g>
 </g>
 <defs>
  <clipPath id="pa688dc516c">
   <rect height="266.112" width="357.12" x="29.439063" y="17.690625"/>
  </clipPath>
 </defs>
</svg>
