<?xml version="1.0" encoding="utf-8" standalone="no"?>
<!DOCTYPE svg PUBLIC "-//W3C//DTD SVG 1.1//EN"
  "http://www.w3.org/Graphics/SVG/1.1/DTD/svg11.dtd">
<!-- Created with matplotlib (https://matplotlib.org/) -->
<svg height="320.239875pt" version="1.1" viewBox="0 0 410.012187 320.239875" width="410.012187pt" xmlns="http://www.w3.org/2000/svg" xmlns:xlink="http://www.w3.org/1999/xlink">
 <defs>
  <style type="text/css">
*{stroke-linecap:butt;stroke-linejoin:round;}
  </style>
 </defs>
 <g id="figure_1">
  <g id="patch_1">
   <path d="M 0 320.239875 
L 410.012187 320.239875 
L 410.012187 0 
L 0 0 
z
" style="fill:#ffffff;"/>
  </g>
  <g id="axes_1">
   <g id="patch_2">
    <path d="M 45.692188 284.258625 
L 402.812188 284.258625 
L 402.812188 18.146625 
L 45.692188 18.146625 
z
" style="fill:#ffffff;"/>
   </g>
   <g id="patch_3">
    <path clip-path="url(#p14b03c26bb)" d="M 61.924915 284.258625 
L 63.658717 284.258625 
L 63.658717 284.24428 
L 61.924915 284.24428 
z
" style="fill:#ffbb78;"/>
   </g>
   <g id="patch_4">
    <path clip-path="url(#p14b03c26bb)" d="M 64.092168 284.258625 
L 65.825971 284.258625 
L 65.825971 284.24428 
L 64.092168 284.24428 
z
" style="fill:#ffbb78;"/>
   </g>
   <g id="patch_5">
    <path clip-path="url(#p14b03c26bb)" d="M 66.259421 284.258625 
L 67.993224 284.258625 
L 67.993224 284.24428 
L 66.259421 284.24428 
z
" style="fill:#ffbb78;"/>
   </g>
   <g id="patch_6">
    <path clip-path="url(#p14b03c26bb)" d="M 68.426675 284.258625 
L 70.160477 284.258625 
L 70.160477 284.24428 
L 68.426675 284.24428 
z
" style="fill:#ffbb78;"/>
   </g>
   <g id="patch_7">
    <path clip-path="url(#p14b03c26bb)" d="M 70.593928 284.258625 
L 72.327731 284.258625 
L 72.327731 284.215591 
L 70.593928 284.215591 
z
" style="fill:#ffbb78;"/>
   </g>
   <g id="patch_8">
    <path clip-path="url(#p14b03c26bb)" d="M 72.761181 284.258625 
L 74.494984 284.258625 
L 74.494984 284.215591 
L 72.761181 284.215591 
z
" style="fill:#ffbb78;"/>
   </g>
   <g id="patch_9">
    <path clip-path="url(#p14b03c26bb)" d="M 74.928435 284.258625 
L 76.662237 284.258625 
L 76.662237 284.201247 
L 74.928435 284.201247 
z
" style="fill:#ffbb78;"/>
   </g>
   <g id="patch_10">
    <path clip-path="url(#p14b03c26bb)" d="M 77.095688 284.258625 
L 78.829491 284.258625 
L 78.829491 284.172558 
L 77.095688 284.172558 
z
" style="fill:#ffbb78;"/>
   </g>
   <g id="patch_11">
    <path clip-path="url(#p14b03c26bb)" d="M 79.262941 284.258625 
L 80.996744 284.258625 
L 80.996744 284.158213 
L 79.262941 284.158213 
z
" style="fill:#ffbb78;"/>
   </g>
   <g id="patch_12">
    <path clip-path="url(#p14b03c26bb)" d="M 81.430195 284.258625 
L 83.163997 284.258625 
L 83.163997 284.100835 
L 81.430195 284.100835 
z
" style="fill:#ffbb78;"/>
   </g>
   <g id="patch_13">
    <path clip-path="url(#p14b03c26bb)" d="M 83.597448 284.258625 
L 85.33125 284.258625 
L 85.33125 284.057801 
L 83.597448 284.057801 
z
" style="fill:#ffbb78;"/>
   </g>
   <g id="patch_14">
    <path clip-path="url(#p14b03c26bb)" d="M 85.764701 284.258625 
L 87.498504 284.258625 
L 87.498504 284.014767 
L 85.764701 284.014767 
z
" style="fill:#ffbb78;"/>
   </g>
   <g id="patch_15">
    <path clip-path="url(#p14b03c26bb)" d="M 87.931954 284.258625 
L 89.665757 284.258625 
L 89.665757 283.971733 
L 87.931954 283.971733 
z
" style="fill:#ffbb78;"/>
   </g>
   <g id="patch_16">
    <path clip-path="url(#p14b03c26bb)" d="M 90.099208 284.258625 
L 91.83301 284.258625 
L 91.83301 283.971733 
L 90.099208 283.971733 
z
" style="fill:#ffbb78;"/>
   </g>
   <g id="patch_17">
    <path clip-path="url(#p14b03c26bb)" d="M 92.266461 284.258625 
L 94.000264 284.258625 
L 94.000264 283.971733 
L 92.266461 283.971733 
z
" style="fill:#ffbb78;"/>
   </g>
   <g id="patch_18">
    <path clip-path="url(#p14b03c26bb)" d="M 94.433714 284.258625 
L 96.167517 284.258625 
L 96.167517 283.9287 
L 94.433714 283.9287 
z
" style="fill:#ffbb78;"/>
   </g>
   <g id="patch_19">
    <path clip-path="url(#p14b03c26bb)" d="M 96.600968 284.258625 
L 98.33477 284.258625 
L 98.33477 283.900011 
L 96.600968 283.900011 
z
" style="fill:#ffbb78;"/>
   </g>
   <g id="patch_20">
    <path clip-path="url(#p14b03c26bb)" d="M 98.768221 284.258625 
L 100.502024 284.258625 
L 100.502024 283.900011 
L 98.768221 283.900011 
z
" style="fill:#ffbb78;"/>
   </g>
   <g id="patch_21">
    <path clip-path="url(#p14b03c26bb)" d="M 100.935474 284.258625 
L 102.669277 284.258625 
L 102.669277 283.900011 
L 100.935474 283.900011 
z
" style="fill:#ffbb78;"/>
   </g>
   <g id="patch_22">
    <path clip-path="url(#p14b03c26bb)" d="M 103.102728 284.258625 
L 104.83653 284.258625 
L 104.83653 283.885666 
L 103.102728 283.885666 
z
" style="fill:#ffbb78;"/>
   </g>
   <g id="patch_23">
    <path clip-path="url(#p14b03c26bb)" d="M 105.269981 284.258625 
L 107.003784 284.258625 
L 107.003784 283.885666 
L 105.269981 283.885666 
z
" style="fill:#ffbb78;"/>
   </g>
   <g id="patch_24">
    <path clip-path="url(#p14b03c26bb)" d="M 107.437234 284.258625 
L 109.171037 284.258625 
L 109.171037 283.885666 
L 107.437234 283.885666 
z
" style="fill:#ffbb78;"/>
   </g>
   <g id="patch_25">
    <path clip-path="url(#p14b03c26bb)" d="M 109.604488 284.258625 
L 111.33829 284.258625 
L 111.33829 283.856977 
L 109.604488 283.856977 
z
" style="fill:#ffbb78;"/>
   </g>
   <g id="patch_26">
    <path clip-path="url(#p14b03c26bb)" d="M 111.771741 284.258625 
L 113.505543 284.258625 
L 113.505543 283.842632 
L 111.771741 283.842632 
z
" style="fill:#ffbb78;"/>
   </g>
   <g id="patch_27">
    <path clip-path="url(#p14b03c26bb)" d="M 113.938994 284.258625 
L 115.672797 284.258625 
L 115.672797 283.785254 
L 113.938994 283.785254 
z
" style="fill:#ffbb78;"/>
   </g>
   <g id="patch_28">
    <path clip-path="url(#p14b03c26bb)" d="M 116.106247 284.258625 
L 117.84005 284.258625 
L 117.84005 283.670497 
L 116.106247 283.670497 
z
" style="fill:#ffbb78;"/>
   </g>
   <g id="patch_29">
    <path clip-path="url(#p14b03c26bb)" d="M 118.273501 284.258625 
L 120.007303 284.258625 
L 120.007303 283.498362 
L 118.273501 283.498362 
z
" style="fill:#ffbb78;"/>
   </g>
   <g id="patch_30">
    <path clip-path="url(#p14b03c26bb)" d="M 120.440754 284.258625 
L 122.174557 284.258625 
L 122.174557 283.412295 
L 120.440754 283.412295 
z
" style="fill:#ffbb78;"/>
   </g>
   <g id="patch_31">
    <path clip-path="url(#p14b03c26bb)" d="M 122.608007 284.258625 
L 124.34181 284.258625 
L 124.34181 283.326227 
L 122.608007 283.326227 
z
" style="fill:#ffbb78;"/>
   </g>
   <g id="patch_32">
    <path clip-path="url(#p14b03c26bb)" d="M 124.775261 284.258625 
L 126.509063 284.258625 
L 126.509063 283.211471 
L 124.775261 283.211471 
z
" style="fill:#ffbb78;"/>
   </g>
   <g id="patch_33">
    <path clip-path="url(#p14b03c26bb)" d="M 126.942514 284.258625 
L 128.676317 284.258625 
L 128.676317 283.039336 
L 126.942514 283.039336 
z
" style="fill:#ffbb78;"/>
   </g>
   <g id="patch_34">
    <path clip-path="url(#p14b03c26bb)" d="M 129.109767 284.258625 
L 130.84357 284.258625 
L 130.84357 282.924579 
L 129.109767 282.924579 
z
" style="fill:#ffbb78;"/>
   </g>
   <g id="patch_35">
    <path clip-path="url(#p14b03c26bb)" d="M 131.277021 284.258625 
L 133.010823 284.258625 
L 133.010823 282.752444 
L 131.277021 282.752444 
z
" style="fill:#ffbb78;"/>
   </g>
   <g id="patch_36">
    <path clip-path="url(#p14b03c26bb)" d="M 133.444274 284.258625 
L 135.178077 284.258625 
L 135.178077 282.365141 
L 133.444274 282.365141 
z
" style="fill:#ffbb78;"/>
   </g>
   <g id="patch_37">
    <path clip-path="url(#p14b03c26bb)" d="M 135.611527 284.258625 
L 137.34533 284.258625 
L 137.34533 282.193006 
L 135.611527 282.193006 
z
" style="fill:#ffbb78;"/>
   </g>
   <g id="patch_38">
    <path clip-path="url(#p14b03c26bb)" d="M 137.778781 284.258625 
L 139.512583 284.258625 
L 139.512583 282.006526 
L 137.778781 282.006526 
z
" style="fill:#ffbb78;"/>
   </g>
   <g id="patch_39">
    <path clip-path="url(#p14b03c26bb)" d="M 139.946034 284.258625 
L 141.679836 284.258625 
L 141.679836 281.906114 
L 139.946034 281.906114 
z
" style="fill:#ffbb78;"/>
   </g>
   <g id="patch_40">
    <path clip-path="url(#p14b03c26bb)" d="M 142.113287 284.258625 
L 143.84709 284.258625 
L 143.84709 281.590534 
L 142.113287 281.590534 
z
" style="fill:#ffbb78;"/>
   </g>
   <g id="patch_41">
    <path clip-path="url(#p14b03c26bb)" d="M 144.28054 284.258625 
L 146.014343 284.258625 
L 146.014343 281.246264 
L 144.28054 281.246264 
z
" style="fill:#ffbb78;"/>
   </g>
   <g id="patch_42">
    <path clip-path="url(#p14b03c26bb)" d="M 146.447794 284.258625 
L 148.181596 284.258625 
L 148.181596 280.959372 
L 146.447794 280.959372 
z
" style="fill:#ffbb78;"/>
   </g>
   <g id="patch_43">
    <path clip-path="url(#p14b03c26bb)" d="M 148.615047 284.258625 
L 150.34885 284.258625 
L 150.34885 280.830271 
L 148.615047 280.830271 
z
" style="fill:#ffbb78;"/>
   </g>
   <g id="patch_44">
    <path clip-path="url(#p14b03c26bb)" d="M 150.7823 284.258625 
L 152.516103 284.258625 
L 152.516103 280.615102 
L 150.7823 280.615102 
z
" style="fill:#ffbb78;"/>
   </g>
   <g id="patch_45">
    <path clip-path="url(#p14b03c26bb)" d="M 152.949554 284.258625 
L 154.683356 284.258625 
L 154.683356 280.414278 
L 152.949554 280.414278 
z
" style="fill:#ffbb78;"/>
   </g>
   <g id="patch_46">
    <path clip-path="url(#p14b03c26bb)" d="M 155.116807 284.258625 
L 156.85061 284.258625 
L 156.85061 280.184765 
L 155.116807 280.184765 
z
" style="fill:#ffbb78;"/>
   </g>
   <g id="patch_47">
    <path clip-path="url(#p14b03c26bb)" d="M 157.28406 284.258625 
L 159.017863 284.258625 
L 159.017863 279.711394 
L 157.28406 279.711394 
z
" style="fill:#ffbb78;"/>
   </g>
   <g id="patch_48">
    <path clip-path="url(#p14b03c26bb)" d="M 159.451314 284.258625 
L 161.185116 284.258625 
L 161.185116 279.252367 
L 159.451314 279.252367 
z
" style="fill:#ffbb78;"/>
   </g>
   <g id="patch_49">
    <path clip-path="url(#p14b03c26bb)" d="M 161.618567 284.258625 
L 163.35237 284.258625 
L 163.35237 278.406037 
L 161.618567 278.406037 
z
" style="fill:#ffbb78;"/>
   </g>
   <g id="patch_50">
    <path clip-path="url(#p14b03c26bb)" d="M 163.78582 284.258625 
L 165.519623 284.258625 
L 165.519623 277.731842 
L 163.78582 277.731842 
z
" style="fill:#ffbb78;"/>
   </g>
   <g id="patch_51">
    <path clip-path="url(#p14b03c26bb)" d="M 165.953074 284.258625 
L 167.686876 284.258625 
L 167.686876 277.258471 
L 165.953074 277.258471 
z
" style="fill:#ffbb78;"/>
   </g>
   <g id="patch_52">
    <path clip-path="url(#p14b03c26bb)" d="M 168.120327 284.258625 
L 169.854129 284.258625 
L 169.854129 276.885512 
L 168.120327 276.885512 
z
" style="fill:#ffbb78;"/>
   </g>
   <g id="patch_53">
    <path clip-path="url(#p14b03c26bb)" d="M 170.28758 284.258625 
L 172.021383 284.258625 
L 172.021383 276.110905 
L 170.28758 276.110905 
z
" style="fill:#ffbb78;"/>
   </g>
   <g id="patch_54">
    <path clip-path="url(#p14b03c26bb)" d="M 172.454833 284.258625 
L 174.188636 284.258625 
L 174.188636 275.364987 
L 172.454833 275.364987 
z
" style="fill:#ffbb78;"/>
   </g>
   <g id="patch_55">
    <path clip-path="url(#p14b03c26bb)" d="M 174.622087 284.258625 
L 176.355889 284.258625 
L 176.355889 274.576035 
L 174.622087 274.576035 
z
" style="fill:#ffbb78;"/>
   </g>
   <g id="patch_56">
    <path clip-path="url(#p14b03c26bb)" d="M 176.78934 284.258625 
L 178.523143 284.258625 
L 178.523143 273.987907 
L 176.78934 273.987907 
z
" style="fill:#ffbb78;"/>
   </g>
   <g id="patch_57">
    <path clip-path="url(#p14b03c26bb)" d="M 178.956593 284.258625 
L 180.690396 284.258625 
L 180.690396 273.069854 
L 178.956593 273.069854 
z
" style="fill:#ffbb78;"/>
   </g>
   <g id="patch_58">
    <path clip-path="url(#p14b03c26bb)" d="M 181.123847 284.258625 
L 182.857649 284.258625 
L 182.857649 272.582139 
L 181.123847 272.582139 
z
" style="fill:#ffbb78;"/>
   </g>
   <g id="patch_59">
    <path clip-path="url(#p14b03c26bb)" d="M 183.2911 284.258625 
L 185.024903 284.258625 
L 185.024903 272.36697 
L 183.2911 272.36697 
z
" style="fill:#ffbb78;"/>
   </g>
   <g id="patch_60">
    <path clip-path="url(#p14b03c26bb)" d="M 185.458353 284.258625 
L 187.192156 284.258625 
L 187.192156 272.36697 
L 185.458353 272.36697 
z
" style="fill:#ffbb78;"/>
   </g>
   <g id="patch_61">
    <path clip-path="url(#p14b03c26bb)" d="M 187.625607 284.258625 
L 189.359409 284.258625 
L 189.359409 271.735809 
L 187.625607 271.735809 
z
" style="fill:#ffbb78;"/>
   </g>
   <g id="patch_62">
    <path clip-path="url(#p14b03c26bb)" d="M 189.79286 284.258625 
L 191.526663 284.258625 
L 191.526663 270.631276 
L 189.79286 270.631276 
z
" style="fill:#ffbb78;"/>
   </g>
   <g id="patch_63">
    <path clip-path="url(#p14b03c26bb)" d="M 191.960113 284.258625 
L 193.693916 284.258625 
L 193.693916 269.971426 
L 191.960113 269.971426 
z
" style="fill:#ffbb78;"/>
   </g>
   <g id="patch_64">
    <path clip-path="url(#p14b03c26bb)" d="M 194.127367 284.258625 
L 195.861169 284.258625 
L 195.861169 269.254197 
L 194.127367 269.254197 
z
" style="fill:#ffbb78;"/>
   </g>
   <g id="patch_65">
    <path clip-path="url(#p14b03c26bb)" d="M 196.29462 284.258625 
L 198.028422 284.258625 
L 198.028422 268.63738 
L 196.29462 268.63738 
z
" style="fill:#ffbb78;"/>
   </g>
   <g id="patch_66">
    <path clip-path="url(#p14b03c26bb)" d="M 198.461873 284.258625 
L 200.195676 284.258625 
L 200.195676 268.077941 
L 198.461873 268.077941 
z
" style="fill:#ffbb78;"/>
   </g>
   <g id="patch_67">
    <path clip-path="url(#p14b03c26bb)" d="M 200.629126 284.258625 
L 202.362929 284.258625 
L 202.362929 267.145544 
L 200.629126 267.145544 
z
" style="fill:#ffbb78;"/>
   </g>
   <g id="patch_68">
    <path clip-path="url(#p14b03c26bb)" d="M 202.79638 284.258625 
L 204.530182 284.258625 
L 204.530182 265.739775 
L 202.79638 265.739775 
z
" style="fill:#ffbb78;"/>
   </g>
   <g id="patch_69">
    <path clip-path="url(#p14b03c26bb)" d="M 204.963633 284.258625 
L 206.697436 284.258625 
L 206.697436 264.362696 
L 204.963633 264.362696 
z
" style="fill:#ffbb78;"/>
   </g>
   <g id="patch_70">
    <path clip-path="url(#p14b03c26bb)" d="M 207.130886 284.258625 
L 208.864689 284.258625 
L 208.864689 262.756103 
L 207.130886 262.756103 
z
" style="fill:#ffbb78;"/>
   </g>
   <g id="patch_71">
    <path clip-path="url(#p14b03c26bb)" d="M 209.29814 284.258625 
L 211.031942 284.258625 
L 211.031942 259.973255 
L 209.29814 259.973255 
z
" style="fill:#ffbb78;"/>
   </g>
   <g id="patch_72">
    <path clip-path="url(#p14b03c26bb)" d="M 211.465393 284.258625 
L 213.199196 284.258625 
L 213.199196 257.491643 
L 211.465393 257.491643 
z
" style="fill:#ffbb78;"/>
   </g>
   <g id="patch_73">
    <path clip-path="url(#p14b03c26bb)" d="M 213.632646 284.258625 
L 215.366449 284.258625 
L 215.366449 256.243665 
L 213.632646 256.243665 
z
" style="fill:#ffbb78;"/>
   </g>
   <g id="patch_74">
    <path clip-path="url(#p14b03c26bb)" d="M 215.7999 284.258625 
L 217.533702 284.258625 
L 217.533702 253.016135 
L 215.7999 253.016135 
z
" style="fill:#ffbb78;"/>
   </g>
   <g id="patch_75">
    <path clip-path="url(#p14b03c26bb)" d="M 217.967153 284.258625 
L 219.700956 284.258625 
L 219.700956 250.061152 
L 217.967153 250.061152 
z
" style="fill:#ffbb78;"/>
   </g>
   <g id="patch_76">
    <path clip-path="url(#p14b03c26bb)" d="M 220.134406 284.258625 
L 221.868209 284.258625 
L 221.868209 246.718865 
L 220.134406 246.718865 
z
" style="fill:#ffbb78;"/>
   </g>
   <g id="patch_77">
    <path clip-path="url(#p14b03c26bb)" d="M 222.30166 284.258625 
L 224.035462 284.258625 
L 224.035462 242.372458 
L 222.30166 242.372458 
z
" style="fill:#ffbb78;"/>
   </g>
   <g id="patch_78">
    <path clip-path="url(#p14b03c26bb)" d="M 224.468913 284.258625 
L 226.202715 284.258625 
L 226.202715 237.337511 
L 224.468913 237.337511 
z
" style="fill:#ffbb78;"/>
   </g>
   <g id="patch_79">
    <path clip-path="url(#p14b03c26bb)" d="M 226.636166 284.258625 
L 228.369969 284.258625 
L 228.369969 231.843538 
L 226.636166 231.843538 
z
" style="fill:#ffbb78;"/>
   </g>
   <g id="patch_80">
    <path clip-path="url(#p14b03c26bb)" d="M 228.803419 284.258625 
L 230.537222 284.258625 
L 230.537222 228.228704 
L 228.803419 228.228704 
z
" style="fill:#ffbb78;"/>
   </g>
   <g id="patch_81">
    <path clip-path="url(#p14b03c26bb)" d="M 230.970673 284.258625 
L 232.704475 284.258625 
L 232.704475 223.193757 
L 230.970673 223.193757 
z
" style="fill:#ffbb78;"/>
   </g>
   <g id="patch_82">
    <path clip-path="url(#p14b03c26bb)" d="M 233.137926 284.258625 
L 234.871729 284.258625 
L 234.871729 215.863678 
L 233.137926 215.863678 
z
" style="fill:#ffbb78;"/>
   </g>
   <g id="patch_83">
    <path clip-path="url(#p14b03c26bb)" d="M 235.305179 284.258625 
L 237.038982 284.258625 
L 237.038982 207.558168 
L 235.305179 207.558168 
z
" style="fill:#ffbb78;"/>
   </g>
   <g id="patch_84">
    <path clip-path="url(#p14b03c26bb)" d="M 237.472433 284.258625 
L 239.206235 284.258625 
L 239.206235 198.119436 
L 237.472433 198.119436 
z
" style="fill:#ffbb78;"/>
   </g>
   <g id="patch_85">
    <path clip-path="url(#p14b03c26bb)" d="M 239.639686 284.258625 
L 241.373489 284.258625 
L 241.373489 187.461414 
L 239.639686 187.461414 
z
" style="fill:#ffbb78;"/>
   </g>
   <g id="patch_86">
    <path clip-path="url(#p14b03c26bb)" d="M 241.806939 284.258625 
L 243.540742 284.258625 
L 243.540742 180.188713 
L 241.806939 180.188713 
z
" style="fill:#ffbb78;"/>
   </g>
   <g id="patch_87">
    <path clip-path="url(#p14b03c26bb)" d="M 243.974193 284.258625 
L 245.707995 284.258625 
L 245.707995 174.594328 
L 243.974193 174.594328 
z
" style="fill:#ffbb78;"/>
   </g>
   <g id="patch_88">
    <path clip-path="url(#p14b03c26bb)" d="M 246.141446 284.258625 
L 247.875249 284.258625 
L 247.875249 168.067545 
L 246.141446 168.067545 
z
" style="fill:#ffbb78;"/>
   </g>
   <g id="patch_89">
    <path clip-path="url(#p14b03c26bb)" d="M 248.308699 284.258625 
L 250.042502 284.258625 
L 250.042502 161.153459 
L 248.308699 161.153459 
z
" style="fill:#ffbb78;"/>
   </g>
   <g id="patch_90">
    <path clip-path="url(#p14b03c26bb)" d="M 250.475953 284.258625 
L 252.209755 284.258625 
L 252.209755 152.761881 
L 250.475953 152.761881 
z
" style="fill:#ffbb78;"/>
   </g>
   <g id="patch_91">
    <path clip-path="url(#p14b03c26bb)" d="M 252.643206 284.258625 
L 254.377008 284.258625 
L 254.377008 143.753486 
L 252.643206 143.753486 
z
" style="fill:#ffbb78;"/>
   </g>
   <g id="patch_92">
    <path clip-path="url(#p14b03c26bb)" d="M 254.810459 284.258625 
L 256.544262 284.258625 
L 256.544262 135.634455 
L 254.810459 135.634455 
z
" style="fill:#ffbb78;"/>
   </g>
   <g id="patch_93">
    <path clip-path="url(#p14b03c26bb)" d="M 256.977712 284.258625 
L 258.711515 284.258625 
L 258.711515 130.040069 
L 256.977712 130.040069 
z
" style="fill:#ffbb78;"/>
   </g>
   <g id="patch_94">
    <path clip-path="url(#p14b03c26bb)" d="M 259.144966 284.258625 
L 260.878768 284.258625 
L 260.878768 124.775609 
L 259.144966 124.775609 
z
" style="fill:#ffbb78;"/>
   </g>
   <g id="patch_95">
    <path clip-path="url(#p14b03c26bb)" d="M 261.312219 284.258625 
L 263.046022 284.258625 
L 263.046022 119.353359 
L 261.312219 119.353359 
z
" style="fill:#ffbb78;"/>
   </g>
   <g id="patch_96">
    <path clip-path="url(#p14b03c26bb)" d="M 263.479472 284.258625 
L 265.213275 284.258625 
L 265.213275 113.285603 
L 263.479472 113.285603 
z
" style="fill:#ffbb78;"/>
   </g>
   <g id="patch_97">
    <path clip-path="url(#p14b03c26bb)" d="M 265.646726 284.258625 
L 267.380528 284.258625 
L 267.380528 106.557996 
L 265.646726 106.557996 
z
" style="fill:#ffbb78;"/>
   </g>
   <g id="patch_98">
    <path clip-path="url(#p14b03c26bb)" d="M 267.813979 284.258625 
L 269.547782 284.258625 
L 269.547782 100.232037 
L 267.813979 100.232037 
z
" style="fill:#ffbb78;"/>
   </g>
   <g id="patch_99">
    <path clip-path="url(#p14b03c26bb)" d="M 269.981232 284.258625 
L 271.715035 284.258625 
L 271.715035 95.168401 
L 269.981232 95.168401 
z
" style="fill:#ffbb78;"/>
   </g>
   <g id="patch_100">
    <path clip-path="url(#p14b03c26bb)" d="M 272.148486 284.258625 
L 273.882288 284.258625 
L 273.882288 92.256452 
L 272.148486 92.256452 
z
" style="fill:#ffbb78;"/>
   </g>
   <g id="patch_101">
    <path clip-path="url(#p14b03c26bb)" d="M 274.315739 284.258625 
L 276.049542 284.258625 
L 276.049542 89.516637 
L 274.315739 89.516637 
z
" style="fill:#ffbb78;"/>
   </g>
   <g id="patch_102">
    <path clip-path="url(#p14b03c26bb)" d="M 276.482992 284.258625 
L 278.216795 284.258625 
L 278.216795 85.557534 
L 276.482992 85.557534 
z
" style="fill:#ffbb78;"/>
   </g>
   <g id="patch_103">
    <path clip-path="url(#p14b03c26bb)" d="M 278.650246 284.258625 
L 280.384048 284.258625 
L 280.384048 82.172213 
L 278.650246 82.172213 
z
" style="fill:#ffbb78;"/>
   </g>
   <g id="patch_104">
    <path clip-path="url(#p14b03c26bb)" d="M 280.817499 284.258625 
L 282.551301 284.258625 
L 282.551301 79.40371 
L 280.817499 79.40371 
z
" style="fill:#ffbb78;"/>
   </g>
   <g id="patch_105">
    <path clip-path="url(#p14b03c26bb)" d="M 282.984752 284.258625 
L 284.718555 284.258625 
L 284.718555 75.616741 
L 282.984752 75.616741 
z
" style="fill:#ffbb78;"/>
   </g>
   <g id="patch_106">
    <path clip-path="url(#p14b03c26bb)" d="M 285.152005 284.258625 
L 286.885808 284.258625 
L 286.885808 71.399436 
L 285.152005 71.399436 
z
" style="fill:#ffbb78;"/>
   </g>
   <g id="patch_107">
    <path clip-path="url(#p14b03c26bb)" d="M 287.319259 284.258625 
L 289.053061 284.258625 
L 289.053061 68.272318 
L 287.319259 68.272318 
z
" style="fill:#ffbb78;"/>
   </g>
   <g id="patch_108">
    <path clip-path="url(#p14b03c26bb)" d="M 289.486512 284.258625 
L 291.220315 284.258625 
L 291.220315 65.776361 
L 289.486512 65.776361 
z
" style="fill:#ffbb78;"/>
   </g>
   <g id="patch_109">
    <path clip-path="url(#p14b03c26bb)" d="M 291.653765 284.258625 
L 293.387568 284.258625 
L 293.387568 64.011978 
L 291.653765 64.011978 
z
" style="fill:#ffbb78;"/>
   </g>
   <g id="patch_110">
    <path clip-path="url(#p14b03c26bb)" d="M 293.821019 284.258625 
L 295.554821 284.258625 
L 295.554821 62.448419 
L 293.821019 62.448419 
z
" style="fill:#ffbb78;"/>
   </g>
   <g id="patch_111">
    <path clip-path="url(#p14b03c26bb)" d="M 295.988272 284.258625 
L 297.722075 284.258625 
L 297.722075 61.243474 
L 295.988272 61.243474 
z
" style="fill:#ffbb78;"/>
   </g>
   <g id="patch_112">
    <path clip-path="url(#p14b03c26bb)" d="M 298.155525 284.258625 
L 299.889328 284.258625 
L 299.889328 60.081564 
L 298.155525 60.081564 
z
" style="fill:#ffbb78;"/>
   </g>
   <g id="patch_113">
    <path clip-path="url(#p14b03c26bb)" d="M 300.322779 284.258625 
L 302.056581 284.258625 
L 302.056581 58.374559 
L 300.322779 58.374559 
z
" style="fill:#ffbb78;"/>
   </g>
   <g id="patch_114">
    <path clip-path="url(#p14b03c26bb)" d="M 302.490032 284.258625 
L 304.223835 284.258625 
L 304.223835 57.642985 
L 302.490032 57.642985 
z
" style="fill:#ffbb78;"/>
   </g>
   <g id="patch_115">
    <path clip-path="url(#p14b03c26bb)" d="M 304.657285 284.258625 
L 306.391088 284.258625 
L 306.391088 56.552798 
L 304.657285 56.552798 
z
" style="fill:#ffbb78;"/>
   </g>
   <g id="patch_116">
    <path clip-path="url(#p14b03c26bb)" d="M 306.824539 284.258625 
L 308.558341 284.258625 
L 308.558341 54.401111 
L 306.824539 54.401111 
z
" style="fill:#ffbb78;"/>
   </g>
   <g id="patch_117">
    <path clip-path="url(#p14b03c26bb)" d="M 308.991792 284.258625 
L 310.725594 284.258625 
L 310.725594 53.612159 
L 308.991792 53.612159 
z
" style="fill:#ffbb78;"/>
   </g>
   <g id="patch_118">
    <path clip-path="url(#p14b03c26bb)" d="M 311.159045 284.258625 
L 312.892848 284.258625 
L 312.892848 51.976877 
L 311.159045 51.976877 
z
" style="fill:#ffbb78;"/>
   </g>
   <g id="patch_119">
    <path clip-path="url(#p14b03c26bb)" d="M 313.326298 284.258625 
L 315.060101 284.258625 
L 315.060101 51.345716 
L 313.326298 51.345716 
z
" style="fill:#ffbb78;"/>
   </g>
   <g id="patch_120">
    <path clip-path="url(#p14b03c26bb)" d="M 315.493552 284.258625 
L 317.227354 284.258625 
L 317.227354 50.657176 
L 315.493552 50.657176 
z
" style="fill:#ffbb78;"/>
   </g>
   <g id="patch_121">
    <path clip-path="url(#p14b03c26bb)" d="M 317.660805 284.258625 
L 319.394608 284.258625 
L 319.394608 50.370284 
L 317.660805 50.370284 
z
" style="fill:#ffbb78;"/>
   </g>
   <g id="patch_122">
    <path clip-path="url(#p14b03c26bb)" d="M 319.828058 284.258625 
L 321.561861 284.258625 
L 321.561861 49.50961 
L 319.828058 49.50961 
z
" style="fill:#ffbb78;"/>
   </g>
   <g id="patch_123">
    <path clip-path="url(#p14b03c26bb)" d="M 321.995312 284.258625 
L 323.729114 284.258625 
L 323.729114 49.222718 
L 321.995312 49.222718 
z
" style="fill:#ffbb78;"/>
   </g>
   <g id="patch_124">
    <path clip-path="url(#p14b03c26bb)" d="M 324.162565 284.258625 
L 325.896368 284.258625 
L 325.896368 48.66328 
L 324.162565 48.66328 
z
" style="fill:#ffbb78;"/>
   </g>
   <g id="patch_125">
    <path clip-path="url(#p14b03c26bb)" d="M 326.329818 284.258625 
L 328.063621 284.258625 
L 328.063621 47.386612 
L 326.329818 47.386612 
z
" style="fill:#ffbb78;"/>
   </g>
   <g id="patch_126">
    <path clip-path="url(#p14b03c26bb)" d="M 328.497072 284.258625 
L 330.230874 284.258625 
L 330.230874 47.056687 
L 328.497072 47.056687 
z
" style="fill:#ffbb78;"/>
   </g>
   <g id="patch_127">
    <path clip-path="url(#p14b03c26bb)" d="M 330.664325 284.258625 
L 332.398128 284.258625 
L 332.398128 46.855863 
L 330.664325 46.855863 
z
" style="fill:#ffbb78;"/>
   </g>
   <g id="patch_128">
    <path clip-path="url(#p14b03c26bb)" d="M 332.831578 284.258625 
L 334.565381 284.258625 
L 334.565381 46.411181 
L 332.831578 46.411181 
z
" style="fill:#ffbb78;"/>
   </g>
   <g id="patch_129">
    <path clip-path="url(#p14b03c26bb)" d="M 334.998832 284.258625 
L 336.732634 284.258625 
L 336.732634 45.808709 
L 334.998832 45.808709 
z
" style="fill:#ffbb78;"/>
   </g>
   <g id="patch_130">
    <path clip-path="url(#p14b03c26bb)" d="M 337.166085 284.258625 
L 338.899887 284.258625 
L 338.899887 45.407061 
L 337.166085 45.407061 
z
" style="fill:#ffbb78;"/>
   </g>
   <g id="patch_131">
    <path clip-path="url(#p14b03c26bb)" d="M 339.333338 284.258625 
L 341.067141 284.258625 
L 341.067141 44.948034 
L 339.333338 44.948034 
z
" style="fill:#ffbb78;"/>
   </g>
   <g id="patch_132">
    <path clip-path="url(#p14b03c26bb)" d="M 341.500591 284.258625 
L 343.234394 284.258625 
L 343.234394 44.431629 
L 341.500591 44.431629 
z
" style="fill:#ffbb78;"/>
   </g>
   <g id="patch_133">
    <path clip-path="url(#p14b03c26bb)" d="M 343.667845 284.258625 
L 345.401647 284.258625 
L 345.401647 43.21234 
L 343.667845 43.21234 
z
" style="fill:#ffbb78;"/>
   </g>
   <g id="patch_134">
    <path clip-path="url(#p14b03c26bb)" d="M 345.835098 284.258625 
L 347.568901 284.258625 
L 347.568901 42.538145 
L 345.835098 42.538145 
z
" style="fill:#ffbb78;"/>
   </g>
   <g id="patch_135">
    <path clip-path="url(#p14b03c26bb)" d="M 348.002351 284.258625 
L 349.736154 284.258625 
L 349.736154 42.064774 
L 348.002351 42.064774 
z
" style="fill:#ffbb78;"/>
   </g>
   <g id="patch_136">
    <path clip-path="url(#p14b03c26bb)" d="M 350.169605 284.258625 
L 351.903407 284.258625 
L 351.903407 41.404923 
L 350.169605 41.404923 
z
" style="fill:#ffbb78;"/>
   </g>
   <g id="patch_137">
    <path clip-path="url(#p14b03c26bb)" d="M 352.336858 284.258625 
L 354.070661 284.258625 
L 354.070661 40.601627 
L 352.336858 40.601627 
z
" style="fill:#ffbb78;"/>
   </g>
   <g id="patch_138">
    <path clip-path="url(#p14b03c26bb)" d="M 354.504111 284.258625 
L 356.237914 284.258625 
L 356.237914 40.142601 
L 354.504111 40.142601 
z
" style="fill:#ffbb78;"/>
   </g>
   <g id="patch_139">
    <path clip-path="url(#p14b03c26bb)" d="M 356.671365 284.258625 
L 358.405167 284.258625 
L 358.405167 39.48275 
L 356.671365 39.48275 
z
" style="fill:#ffbb78;"/>
   </g>
   <g id="patch_140">
    <path clip-path="url(#p14b03c26bb)" d="M 358.838618 284.258625 
L 360.572421 284.258625 
L 360.572421 38.923311 
L 358.838618 38.923311 
z
" style="fill:#ffbb78;"/>
   </g>
   <g id="patch_141">
    <path clip-path="url(#p14b03c26bb)" d="M 361.005871 284.258625 
L 362.739674 284.258625 
L 362.739674 38.378217 
L 361.005871 38.378217 
z
" style="fill:#ffbb78;"/>
   </g>
   <g id="patch_142">
    <path clip-path="url(#p14b03c26bb)" d="M 363.173125 284.258625 
L 364.906927 284.258625 
L 364.906927 37.904846 
L 363.173125 37.904846 
z
" style="fill:#ffbb78;"/>
   </g>
   <g id="patch_143">
    <path clip-path="url(#p14b03c26bb)" d="M 365.340378 284.258625 
L 367.07418 284.258625 
L 367.07418 37.388442 
L 365.340378 37.388442 
z
" style="fill:#ffbb78;"/>
   </g>
   <g id="patch_144">
    <path clip-path="url(#p14b03c26bb)" d="M 367.507631 284.258625 
L 369.241434 284.258625 
L 369.241434 36.800314 
L 367.507631 36.800314 
z
" style="fill:#ffbb78;"/>
   </g>
   <g id="patch_145">
    <path clip-path="url(#p14b03c26bb)" d="M 369.674884 284.258625 
L 371.408687 284.258625 
L 371.408687 36.212186 
L 369.674884 36.212186 
z
" style="fill:#ffbb78;"/>
   </g>
   <g id="patch_146">
    <path clip-path="url(#p14b03c26bb)" d="M 371.842138 284.258625 
L 373.57594 284.258625 
L 373.57594 35.638403 
L 371.842138 35.638403 
z
" style="fill:#ffbb78;"/>
   </g>
   <g id="patch_147">
    <path clip-path="url(#p14b03c26bb)" d="M 374.009391 284.258625 
L 375.743194 284.258625 
L 375.743194 34.921174 
L 374.009391 34.921174 
z
" style="fill:#ffbb78;"/>
   </g>
   <g id="patch_148">
    <path clip-path="url(#p14b03c26bb)" d="M 376.176644 284.258625 
L 377.910447 284.258625 
L 377.910447 34.246979 
L 376.176644 34.246979 
z
" style="fill:#ffbb78;"/>
   </g>
   <g id="patch_149">
    <path clip-path="url(#p14b03c26bb)" d="M 378.343898 284.258625 
L 380.0777 284.258625 
L 380.0777 33.199825 
L 378.343898 33.199825 
z
" style="fill:#ffbb78;"/>
   </g>
   <g id="patch_150">
    <path clip-path="url(#p14b03c26bb)" d="M 380.511151 284.258625 
L 382.244954 284.258625 
L 382.244954 31.980536 
L 380.511151 31.980536 
z
" style="fill:#ffbb78;"/>
   </g>
   <g id="patch_151">
    <path clip-path="url(#p14b03c26bb)" d="M 382.678404 284.258625 
L 384.412207 284.258625 
L 384.412207 31.392408 
L 382.678404 31.392408 
z
" style="fill:#ffbb78;"/>
   </g>
   <g id="patch_152">
    <path clip-path="url(#p14b03c26bb)" d="M 384.845658 284.258625 
L 386.57946 284.258625 
L 386.57946 30.818625 
L 384.845658 30.818625 
z
" style="fill:#ffbb78;"/>
   </g>
   <g id="patch_153">
    <path clip-path="url(#p14b03c26bb)" d="M 61.924915 284.258625 
L 63.658717 284.258625 
L 63.658717 284.258625 
L 61.924915 284.258625 
z
" style="fill:#d62728;"/>
   </g>
   <g id="patch_154">
    <path clip-path="url(#p14b03c26bb)" d="M 64.092168 284.258625 
L 65.825971 284.258625 
L 65.825971 284.258625 
L 64.092168 284.258625 
z
" style="fill:#d62728;"/>
   </g>
   <g id="patch_155">
    <path clip-path="url(#p14b03c26bb)" d="M 66.259421 284.258625 
L 67.993224 284.258625 
L 67.993224 284.258625 
L 66.259421 284.258625 
z
" style="fill:#d62728;"/>
   </g>
   <g id="patch_156">
    <path clip-path="url(#p14b03c26bb)" d="M 68.426675 284.258625 
L 70.160477 284.258625 
L 70.160477 284.258625 
L 68.426675 284.258625 
z
" style="fill:#d62728;"/>
   </g>
   <g id="patch_157">
    <path clip-path="url(#p14b03c26bb)" d="M 70.593928 284.258625 
L 72.327731 284.258625 
L 72.327731 284.258625 
L 70.593928 284.258625 
z
" style="fill:#d62728;"/>
   </g>
   <g id="patch_158">
    <path clip-path="url(#p14b03c26bb)" d="M 72.761181 284.258625 
L 74.494984 284.258625 
L 74.494984 284.258625 
L 72.761181 284.258625 
z
" style="fill:#d62728;"/>
   </g>
   <g id="patch_159">
    <path clip-path="url(#p14b03c26bb)" d="M 74.928435 284.258625 
L 76.662237 284.258625 
L 76.662237 284.258625 
L 74.928435 284.258625 
z
" style="fill:#d62728;"/>
   </g>
   <g id="patch_160">
    <path clip-path="url(#p14b03c26bb)" d="M 77.095688 284.258625 
L 78.829491 284.258625 
L 78.829491 284.258625 
L 77.095688 284.258625 
z
" style="fill:#d62728;"/>
   </g>
   <g id="patch_161">
    <path clip-path="url(#p14b03c26bb)" d="M 79.262941 284.258625 
L 80.996744 284.258625 
L 80.996744 284.258625 
L 79.262941 284.258625 
z
" style="fill:#d62728;"/>
   </g>
   <g id="patch_162">
    <path clip-path="url(#p14b03c26bb)" d="M 81.430195 284.258625 
L 83.163997 284.258625 
L 83.163997 284.258625 
L 81.430195 284.258625 
z
" style="fill:#d62728;"/>
   </g>
   <g id="patch_163">
    <path clip-path="url(#p14b03c26bb)" d="M 83.597448 284.258625 
L 85.33125 284.258625 
L 85.33125 284.258625 
L 83.597448 284.258625 
z
" style="fill:#d62728;"/>
   </g>
   <g id="patch_164">
    <path clip-path="url(#p14b03c26bb)" d="M 85.764701 284.258625 
L 87.498504 284.258625 
L 87.498504 284.258625 
L 85.764701 284.258625 
z
" style="fill:#d62728;"/>
   </g>
   <g id="patch_165">
    <path clip-path="url(#p14b03c26bb)" d="M 87.931954 284.258625 
L 89.665757 284.258625 
L 89.665757 284.258625 
L 87.931954 284.258625 
z
" style="fill:#d62728;"/>
   </g>
   <g id="patch_166">
    <path clip-path="url(#p14b03c26bb)" d="M 90.099208 284.258625 
L 91.83301 284.258625 
L 91.83301 284.258625 
L 90.099208 284.258625 
z
" style="fill:#d62728;"/>
   </g>
   <g id="patch_167">
    <path clip-path="url(#p14b03c26bb)" d="M 92.266461 284.258625 
L 94.000264 284.258625 
L 94.000264 284.258625 
L 92.266461 284.258625 
z
" style="fill:#d62728;"/>
   </g>
   <g id="patch_168">
    <path clip-path="url(#p14b03c26bb)" d="M 94.433714 284.258625 
L 96.167517 284.258625 
L 96.167517 284.258625 
L 94.433714 284.258625 
z
" style="fill:#d62728;"/>
   </g>
   <g id="patch_169">
    <path clip-path="url(#p14b03c26bb)" d="M 96.600968 284.258625 
L 98.33477 284.258625 
L 98.33477 284.258625 
L 96.600968 284.258625 
z
" style="fill:#d62728;"/>
   </g>
   <g id="patch_170">
    <path clip-path="url(#p14b03c26bb)" d="M 98.768221 284.258625 
L 100.502024 284.258625 
L 100.502024 284.258625 
L 98.768221 284.258625 
z
" style="fill:#d62728;"/>
   </g>
   <g id="patch_171">
    <path clip-path="url(#p14b03c26bb)" d="M 100.935474 284.258625 
L 102.669277 284.258625 
L 102.669277 284.258625 
L 100.935474 284.258625 
z
" style="fill:#d62728;"/>
   </g>
   <g id="patch_172">
    <path clip-path="url(#p14b03c26bb)" d="M 103.102728 284.258625 
L 104.83653 284.258625 
L 104.83653 284.258625 
L 103.102728 284.258625 
z
" style="fill:#d62728;"/>
   </g>
   <g id="patch_173">
    <path clip-path="url(#p14b03c26bb)" d="M 105.269981 284.258625 
L 107.003784 284.258625 
L 107.003784 284.258625 
L 105.269981 284.258625 
z
" style="fill:#d62728;"/>
   </g>
   <g id="patch_174">
    <path clip-path="url(#p14b03c26bb)" d="M 107.437234 284.258625 
L 109.171037 284.258625 
L 109.171037 284.258625 
L 107.437234 284.258625 
z
" style="fill:#d62728;"/>
   </g>
   <g id="patch_175">
    <path clip-path="url(#p14b03c26bb)" d="M 109.604488 284.258625 
L 111.33829 284.258625 
L 111.33829 284.258625 
L 109.604488 284.258625 
z
" style="fill:#d62728;"/>
   </g>
   <g id="patch_176">
    <path clip-path="url(#p14b03c26bb)" d="M 111.771741 284.258625 
L 113.505543 284.258625 
L 113.505543 284.258625 
L 111.771741 284.258625 
z
" style="fill:#d62728;"/>
   </g>
   <g id="patch_177">
    <path clip-path="url(#p14b03c26bb)" d="M 113.938994 284.258625 
L 115.672797 284.258625 
L 115.672797 284.24428 
L 113.938994 284.24428 
z
" style="fill:#d62728;"/>
   </g>
   <g id="patch_178">
    <path clip-path="url(#p14b03c26bb)" d="M 116.106247 284.258625 
L 117.84005 284.258625 
L 117.84005 284.24428 
L 116.106247 284.24428 
z
" style="fill:#d62728;"/>
   </g>
   <g id="patch_179">
    <path clip-path="url(#p14b03c26bb)" d="M 118.273501 284.258625 
L 120.007303 284.258625 
L 120.007303 284.24428 
L 118.273501 284.24428 
z
" style="fill:#d62728;"/>
   </g>
   <g id="patch_180">
    <path clip-path="url(#p14b03c26bb)" d="M 120.440754 284.258625 
L 122.174557 284.258625 
L 122.174557 284.24428 
L 120.440754 284.24428 
z
" style="fill:#d62728;"/>
   </g>
   <g id="patch_181">
    <path clip-path="url(#p14b03c26bb)" d="M 122.608007 284.258625 
L 124.34181 284.258625 
L 124.34181 284.24428 
L 122.608007 284.24428 
z
" style="fill:#d62728;"/>
   </g>
   <g id="patch_182">
    <path clip-path="url(#p14b03c26bb)" d="M 124.775261 284.258625 
L 126.509063 284.258625 
L 126.509063 284.24428 
L 124.775261 284.24428 
z
" style="fill:#d62728;"/>
   </g>
   <g id="patch_183">
    <path clip-path="url(#p14b03c26bb)" d="M 126.942514 284.258625 
L 128.676317 284.258625 
L 128.676317 284.24428 
L 126.942514 284.24428 
z
" style="fill:#d62728;"/>
   </g>
   <g id="patch_184">
    <path clip-path="url(#p14b03c26bb)" d="M 129.109767 284.258625 
L 130.84357 284.258625 
L 130.84357 284.24428 
L 129.109767 284.24428 
z
" style="fill:#d62728;"/>
   </g>
   <g id="patch_185">
    <path clip-path="url(#p14b03c26bb)" d="M 131.277021 284.258625 
L 133.010823 284.258625 
L 133.010823 284.24428 
L 131.277021 284.24428 
z
" style="fill:#d62728;"/>
   </g>
   <g id="patch_186">
    <path clip-path="url(#p14b03c26bb)" d="M 133.444274 284.258625 
L 135.178077 284.258625 
L 135.178077 284.24428 
L 133.444274 284.24428 
z
" style="fill:#d62728;"/>
   </g>
   <g id="patch_187">
    <path clip-path="url(#p14b03c26bb)" d="M 135.611527 284.258625 
L 137.34533 284.258625 
L 137.34533 284.24428 
L 135.611527 284.24428 
z
" style="fill:#d62728;"/>
   </g>
   <g id="patch_188">
    <path clip-path="url(#p14b03c26bb)" d="M 137.778781 284.258625 
L 139.512583 284.258625 
L 139.512583 284.24428 
L 137.778781 284.24428 
z
" style="fill:#d62728;"/>
   </g>
   <g id="patch_189">
    <path clip-path="url(#p14b03c26bb)" d="M 139.946034 284.258625 
L 141.679836 284.258625 
L 141.679836 284.24428 
L 139.946034 284.24428 
z
" style="fill:#d62728;"/>
   </g>
   <g id="patch_190">
    <path clip-path="url(#p14b03c26bb)" d="M 142.113287 284.258625 
L 143.84709 284.258625 
L 143.84709 284.215591 
L 142.113287 284.215591 
z
" style="fill:#d62728;"/>
   </g>
   <g id="patch_191">
    <path clip-path="url(#p14b03c26bb)" d="M 144.28054 284.258625 
L 146.014343 284.258625 
L 146.014343 284.201247 
L 144.28054 284.201247 
z
" style="fill:#d62728;"/>
   </g>
   <g id="patch_192">
    <path clip-path="url(#p14b03c26bb)" d="M 146.447794 284.258625 
L 148.181596 284.258625 
L 148.181596 284.186902 
L 146.447794 284.186902 
z
" style="fill:#d62728;"/>
   </g>
   <g id="patch_193">
    <path clip-path="url(#p14b03c26bb)" d="M 148.615047 284.258625 
L 150.34885 284.258625 
L 150.34885 284.186902 
L 148.615047 284.186902 
z
" style="fill:#d62728;"/>
   </g>
   <g id="patch_194">
    <path clip-path="url(#p14b03c26bb)" d="M 150.7823 284.258625 
L 152.516103 284.258625 
L 152.516103 284.172558 
L 150.7823 284.172558 
z
" style="fill:#d62728;"/>
   </g>
   <g id="patch_195">
    <path clip-path="url(#p14b03c26bb)" d="M 152.949554 284.258625 
L 154.683356 284.258625 
L 154.683356 284.172558 
L 152.949554 284.172558 
z
" style="fill:#d62728;"/>
   </g>
   <g id="patch_196">
    <path clip-path="url(#p14b03c26bb)" d="M 155.116807 284.258625 
L 156.85061 284.258625 
L 156.85061 284.172558 
L 155.116807 284.172558 
z
" style="fill:#d62728;"/>
   </g>
   <g id="patch_197">
    <path clip-path="url(#p14b03c26bb)" d="M 157.28406 284.258625 
L 159.017863 284.258625 
L 159.017863 284.172558 
L 157.28406 284.172558 
z
" style="fill:#d62728;"/>
   </g>
   <g id="patch_198">
    <path clip-path="url(#p14b03c26bb)" d="M 159.451314 284.258625 
L 161.185116 284.258625 
L 161.185116 284.172558 
L 159.451314 284.172558 
z
" style="fill:#d62728;"/>
   </g>
   <g id="patch_199">
    <path clip-path="url(#p14b03c26bb)" d="M 161.618567 284.258625 
L 163.35237 284.258625 
L 163.35237 284.172558 
L 161.618567 284.172558 
z
" style="fill:#d62728;"/>
   </g>
   <g id="patch_200">
    <path clip-path="url(#p14b03c26bb)" d="M 163.78582 284.258625 
L 165.519623 284.258625 
L 165.519623 284.172558 
L 163.78582 284.172558 
z
" style="fill:#d62728;"/>
   </g>
   <g id="patch_201">
    <path clip-path="url(#p14b03c26bb)" d="M 165.953074 284.258625 
L 167.686876 284.258625 
L 167.686876 284.158213 
L 165.953074 284.158213 
z
" style="fill:#d62728;"/>
   </g>
   <g id="patch_202">
    <path clip-path="url(#p14b03c26bb)" d="M 168.120327 284.258625 
L 169.854129 284.258625 
L 169.854129 284.129524 
L 168.120327 284.129524 
z
" style="fill:#d62728;"/>
   </g>
   <g id="patch_203">
    <path clip-path="url(#p14b03c26bb)" d="M 170.28758 284.258625 
L 172.021383 284.258625 
L 172.021383 284.08649 
L 170.28758 284.08649 
z
" style="fill:#d62728;"/>
   </g>
   <g id="patch_204">
    <path clip-path="url(#p14b03c26bb)" d="M 172.454833 284.258625 
L 174.188636 284.258625 
L 174.188636 284.043456 
L 172.454833 284.043456 
z
" style="fill:#d62728;"/>
   </g>
   <g id="patch_205">
    <path clip-path="url(#p14b03c26bb)" d="M 174.622087 284.258625 
L 176.355889 284.258625 
L 176.355889 283.986078 
L 174.622087 283.986078 
z
" style="fill:#d62728;"/>
   </g>
   <g id="patch_206">
    <path clip-path="url(#p14b03c26bb)" d="M 176.78934 284.258625 
L 178.523143 284.258625 
L 178.523143 283.957389 
L 176.78934 283.957389 
z
" style="fill:#d62728;"/>
   </g>
   <g id="patch_207">
    <path clip-path="url(#p14b03c26bb)" d="M 178.956593 284.258625 
L 180.690396 284.258625 
L 180.690396 283.943044 
L 178.956593 283.943044 
z
" style="fill:#d62728;"/>
   </g>
   <g id="patch_208">
    <path clip-path="url(#p14b03c26bb)" d="M 181.123847 284.258625 
L 182.857649 284.258625 
L 182.857649 283.914355 
L 181.123847 283.914355 
z
" style="fill:#d62728;"/>
   </g>
   <g id="patch_209">
    <path clip-path="url(#p14b03c26bb)" d="M 183.2911 284.258625 
L 185.024903 284.258625 
L 185.024903 283.856977 
L 183.2911 283.856977 
z
" style="fill:#d62728;"/>
   </g>
   <g id="patch_210">
    <path clip-path="url(#p14b03c26bb)" d="M 185.458353 284.258625 
L 187.192156 284.258625 
L 187.192156 283.856977 
L 185.458353 283.856977 
z
" style="fill:#d62728;"/>
   </g>
   <g id="patch_211">
    <path clip-path="url(#p14b03c26bb)" d="M 187.625607 284.258625 
L 189.359409 284.258625 
L 189.359409 283.842632 
L 187.625607 283.842632 
z
" style="fill:#d62728;"/>
   </g>
   <g id="patch_212">
    <path clip-path="url(#p14b03c26bb)" d="M 189.79286 284.258625 
L 191.526663 284.258625 
L 191.526663 283.785254 
L 189.79286 283.785254 
z
" style="fill:#d62728;"/>
   </g>
   <g id="patch_213">
    <path clip-path="url(#p14b03c26bb)" d="M 191.960113 284.258625 
L 193.693916 284.258625 
L 193.693916 283.756565 
L 191.960113 283.756565 
z
" style="fill:#d62728;"/>
   </g>
   <g id="patch_214">
    <path clip-path="url(#p14b03c26bb)" d="M 194.127367 284.258625 
L 195.861169 284.258625 
L 195.861169 283.74222 
L 194.127367 283.74222 
z
" style="fill:#d62728;"/>
   </g>
   <g id="patch_215">
    <path clip-path="url(#p14b03c26bb)" d="M 196.29462 284.258625 
L 198.028422 284.258625 
L 198.028422 283.670497 
L 196.29462 283.670497 
z
" style="fill:#d62728;"/>
   </g>
   <g id="patch_216">
    <path clip-path="url(#p14b03c26bb)" d="M 198.461873 284.258625 
L 200.195676 284.258625 
L 200.195676 283.656153 
L 198.461873 283.656153 
z
" style="fill:#d62728;"/>
   </g>
   <g id="patch_217">
    <path clip-path="url(#p14b03c26bb)" d="M 200.629126 284.258625 
L 202.362929 284.258625 
L 202.362929 283.641808 
L 200.629126 283.641808 
z
" style="fill:#d62728;"/>
   </g>
   <g id="patch_218">
    <path clip-path="url(#p14b03c26bb)" d="M 202.79638 284.258625 
L 204.530182 284.258625 
L 204.530182 283.613119 
L 202.79638 283.613119 
z
" style="fill:#d62728;"/>
   </g>
   <g id="patch_219">
    <path clip-path="url(#p14b03c26bb)" d="M 204.963633 284.258625 
L 206.697436 284.258625 
L 206.697436 283.598774 
L 204.963633 283.598774 
z
" style="fill:#d62728;"/>
   </g>
   <g id="patch_220">
    <path clip-path="url(#p14b03c26bb)" d="M 207.130886 284.258625 
L 208.864689 284.258625 
L 208.864689 283.555741 
L 207.130886 283.555741 
z
" style="fill:#d62728;"/>
   </g>
   <g id="patch_221">
    <path clip-path="url(#p14b03c26bb)" d="M 209.29814 284.258625 
L 211.031942 284.258625 
L 211.031942 283.512707 
L 209.29814 283.512707 
z
" style="fill:#d62728;"/>
   </g>
   <g id="patch_222">
    <path clip-path="url(#p14b03c26bb)" d="M 211.465393 284.258625 
L 213.199196 284.258625 
L 213.199196 283.484018 
L 211.465393 283.484018 
z
" style="fill:#d62728;"/>
   </g>
   <g id="patch_223">
    <path clip-path="url(#p14b03c26bb)" d="M 213.632646 284.258625 
L 215.366449 284.258625 
L 215.366449 283.455329 
L 213.632646 283.455329 
z
" style="fill:#d62728;"/>
   </g>
   <g id="patch_224">
    <path clip-path="url(#p14b03c26bb)" d="M 215.7999 284.258625 
L 217.533702 284.258625 
L 217.533702 283.440984 
L 215.7999 283.440984 
z
" style="fill:#d62728;"/>
   </g>
   <g id="patch_225">
    <path clip-path="url(#p14b03c26bb)" d="M 217.967153 284.258625 
L 219.700956 284.258625 
L 219.700956 283.440984 
L 217.967153 283.440984 
z
" style="fill:#d62728;"/>
   </g>
   <g id="patch_226">
    <path clip-path="url(#p14b03c26bb)" d="M 220.134406 284.258625 
L 221.868209 284.258625 
L 221.868209 283.326227 
L 220.134406 283.326227 
z
" style="fill:#d62728;"/>
   </g>
   <g id="patch_227">
    <path clip-path="url(#p14b03c26bb)" d="M 222.30166 284.258625 
L 224.035462 284.258625 
L 224.035462 283.268849 
L 222.30166 283.268849 
z
" style="fill:#d62728;"/>
   </g>
   <g id="patch_228">
    <path clip-path="url(#p14b03c26bb)" d="M 224.468913 284.258625 
L 226.202715 284.258625 
L 226.202715 283.254505 
L 224.468913 283.254505 
z
" style="fill:#d62728;"/>
   </g>
   <g id="patch_229">
    <path clip-path="url(#p14b03c26bb)" d="M 226.636166 284.258625 
L 228.369969 284.258625 
L 228.369969 283.211471 
L 226.636166 283.211471 
z
" style="fill:#d62728;"/>
   </g>
   <g id="patch_230">
    <path clip-path="url(#p14b03c26bb)" d="M 228.803419 284.258625 
L 230.537222 284.258625 
L 230.537222 283.111059 
L 228.803419 283.111059 
z
" style="fill:#d62728;"/>
   </g>
   <g id="patch_231">
    <path clip-path="url(#p14b03c26bb)" d="M 230.970673 284.258625 
L 232.704475 284.258625 
L 232.704475 283.096714 
L 230.970673 283.096714 
z
" style="fill:#d62728;"/>
   </g>
   <g id="patch_232">
    <path clip-path="url(#p14b03c26bb)" d="M 233.137926 284.258625 
L 234.871729 284.258625 
L 234.871729 283.039336 
L 233.137926 283.039336 
z
" style="fill:#d62728;"/>
   </g>
   <g id="patch_233">
    <path clip-path="url(#p14b03c26bb)" d="M 235.305179 284.258625 
L 237.038982 284.258625 
L 237.038982 282.996302 
L 235.305179 282.996302 
z
" style="fill:#d62728;"/>
   </g>
   <g id="patch_234">
    <path clip-path="url(#p14b03c26bb)" d="M 237.472433 284.258625 
L 239.206235 284.258625 
L 239.206235 282.910235 
L 237.472433 282.910235 
z
" style="fill:#d62728;"/>
   </g>
   <g id="patch_235">
    <path clip-path="url(#p14b03c26bb)" d="M 239.639686 284.258625 
L 241.373489 284.258625 
L 241.373489 282.852856 
L 239.639686 282.852856 
z
" style="fill:#d62728;"/>
   </g>
   <g id="patch_236">
    <path clip-path="url(#p14b03c26bb)" d="M 241.806939 284.258625 
L 243.540742 284.258625 
L 243.540742 282.795478 
L 241.806939 282.795478 
z
" style="fill:#d62728;"/>
   </g>
   <g id="patch_237">
    <path clip-path="url(#p14b03c26bb)" d="M 243.974193 284.258625 
L 245.707995 284.258625 
L 245.707995 282.695066 
L 243.974193 282.695066 
z
" style="fill:#d62728;"/>
   </g>
   <g id="patch_238">
    <path clip-path="url(#p14b03c26bb)" d="M 246.141446 284.258625 
L 247.875249 284.258625 
L 247.875249 282.55162 
L 246.141446 282.55162 
z
" style="fill:#d62728;"/>
   </g>
   <g id="patch_239">
    <path clip-path="url(#p14b03c26bb)" d="M 248.308699 284.258625 
L 250.042502 284.258625 
L 250.042502 282.307762 
L 248.308699 282.307762 
z
" style="fill:#d62728;"/>
   </g>
   <g id="patch_240">
    <path clip-path="url(#p14b03c26bb)" d="M 250.475953 284.258625 
L 252.209755 284.258625 
L 252.209755 282.135627 
L 250.475953 282.135627 
z
" style="fill:#d62728;"/>
   </g>
   <g id="patch_241">
    <path clip-path="url(#p14b03c26bb)" d="M 252.643206 284.258625 
L 254.377008 284.258625 
L 254.377008 282.04956 
L 252.643206 282.04956 
z
" style="fill:#d62728;"/>
   </g>
   <g id="patch_242">
    <path clip-path="url(#p14b03c26bb)" d="M 254.810459 284.258625 
L 256.544262 284.258625 
L 256.544262 281.949148 
L 254.810459 281.949148 
z
" style="fill:#d62728;"/>
   </g>
   <g id="patch_243">
    <path clip-path="url(#p14b03c26bb)" d="M 256.977712 284.258625 
L 258.711515 284.258625 
L 258.711515 281.805702 
L 256.977712 281.805702 
z
" style="fill:#d62728;"/>
   </g>
   <g id="patch_244">
    <path clip-path="url(#p14b03c26bb)" d="M 259.144966 284.258625 
L 260.878768 284.258625 
L 260.878768 281.590534 
L 259.144966 281.590534 
z
" style="fill:#d62728;"/>
   </g>
   <g id="patch_245">
    <path clip-path="url(#p14b03c26bb)" d="M 261.312219 284.258625 
L 263.046022 284.258625 
L 263.046022 280.285177 
L 261.312219 280.285177 
z
" style="fill:#d62728;"/>
   </g>
   <g id="patch_246">
    <path clip-path="url(#p14b03c26bb)" d="M 263.479472 284.258625 
L 265.213275 284.258625 
L 265.213275 280.141731 
L 263.479472 280.141731 
z
" style="fill:#d62728;"/>
   </g>
   <g id="patch_247">
    <path clip-path="url(#p14b03c26bb)" d="M 265.646726 284.258625 
L 267.380528 284.258625 
L 267.380528 279.711394 
L 265.646726 279.711394 
z
" style="fill:#d62728;"/>
   </g>
   <g id="patch_248">
    <path clip-path="url(#p14b03c26bb)" d="M 267.813979 284.258625 
L 269.547782 284.258625 
L 269.547782 279.467536 
L 267.813979 279.467536 
z
" style="fill:#d62728;"/>
   </g>
   <g id="patch_249">
    <path clip-path="url(#p14b03c26bb)" d="M 269.981232 284.258625 
L 271.715035 284.258625 
L 271.715035 279.266712 
L 269.981232 279.266712 
z
" style="fill:#d62728;"/>
   </g>
   <g id="patch_250">
    <path clip-path="url(#p14b03c26bb)" d="M 272.148486 284.258625 
L 273.882288 284.258625 
L 273.882288 279.223678 
L 272.148486 279.223678 
z
" style="fill:#d62728;"/>
   </g>
   <g id="patch_251">
    <path clip-path="url(#p14b03c26bb)" d="M 274.315739 284.258625 
L 276.049542 284.258625 
L 276.049542 278.865064 
L 274.315739 278.865064 
z
" style="fill:#d62728;"/>
   </g>
   <g id="patch_252">
    <path clip-path="url(#p14b03c26bb)" d="M 276.482992 284.258625 
L 278.216795 284.258625 
L 278.216795 278.678584 
L 276.482992 278.678584 
z
" style="fill:#d62728;"/>
   </g>
   <g id="patch_253">
    <path clip-path="url(#p14b03c26bb)" d="M 278.650246 284.258625 
L 280.384048 284.258625 
L 280.384048 278.305625 
L 278.650246 278.305625 
z
" style="fill:#d62728;"/>
   </g>
   <g id="patch_254">
    <path clip-path="url(#p14b03c26bb)" d="M 280.817499 284.258625 
L 282.551301 284.258625 
L 282.551301 278.061767 
L 280.817499 278.061767 
z
" style="fill:#d62728;"/>
   </g>
   <g id="patch_255">
    <path clip-path="url(#p14b03c26bb)" d="M 282.984752 284.258625 
L 284.718555 284.258625 
L 284.718555 277.746187 
L 282.984752 277.746187 
z
" style="fill:#d62728;"/>
   </g>
   <g id="patch_256">
    <path clip-path="url(#p14b03c26bb)" d="M 285.152005 284.258625 
L 286.885808 284.258625 
L 286.885808 277.201093 
L 285.152005 277.201093 
z
" style="fill:#d62728;"/>
   </g>
   <g id="patch_257">
    <path clip-path="url(#p14b03c26bb)" d="M 287.319259 284.258625 
L 289.053061 284.258625 
L 289.053061 276.94289 
L 287.319259 276.94289 
z
" style="fill:#d62728;"/>
   </g>
   <g id="patch_258">
    <path clip-path="url(#p14b03c26bb)" d="M 289.486512 284.258625 
L 291.220315 284.258625 
L 291.220315 276.7851 
L 289.486512 276.7851 
z
" style="fill:#d62728;"/>
   </g>
   <g id="patch_259">
    <path clip-path="url(#p14b03c26bb)" d="M 291.653765 284.258625 
L 293.387568 284.258625 
L 293.387568 276.469519 
L 291.653765 276.469519 
z
" style="fill:#d62728;"/>
   </g>
   <g id="patch_260">
    <path clip-path="url(#p14b03c26bb)" d="M 293.821019 284.258625 
L 295.554821 284.258625 
L 295.554821 276.354763 
L 293.821019 276.354763 
z
" style="fill:#d62728;"/>
   </g>
   <g id="patch_261">
    <path clip-path="url(#p14b03c26bb)" d="M 295.988272 284.258625 
L 297.722075 284.258625 
L 297.722075 276.268695 
L 295.988272 276.268695 
z
" style="fill:#d62728;"/>
   </g>
   <g id="patch_262">
    <path clip-path="url(#p14b03c26bb)" d="M 298.155525 284.258625 
L 299.889328 284.258625 
L 299.889328 275.637534 
L 298.155525 275.637534 
z
" style="fill:#d62728;"/>
   </g>
   <g id="patch_263">
    <path clip-path="url(#p14b03c26bb)" d="M 300.322779 284.258625 
L 302.056581 284.258625 
L 302.056581 275.465399 
L 300.322779 275.465399 
z
" style="fill:#d62728;"/>
   </g>
   <g id="patch_264">
    <path clip-path="url(#p14b03c26bb)" d="M 302.490032 284.258625 
L 304.223835 284.258625 
L 304.223835 275.350642 
L 302.490032 275.350642 
z
" style="fill:#d62728;"/>
   </g>
   <g id="patch_265">
    <path clip-path="url(#p14b03c26bb)" d="M 304.657285 284.258625 
L 306.391088 284.258625 
L 306.391088 275.035061 
L 304.657285 275.035061 
z
" style="fill:#d62728;"/>
   </g>
   <g id="patch_266">
    <path clip-path="url(#p14b03c26bb)" d="M 306.824539 284.258625 
L 308.558341 284.258625 
L 308.558341 274.676447 
L 306.824539 274.676447 
z
" style="fill:#d62728;"/>
   </g>
   <g id="patch_267">
    <path clip-path="url(#p14b03c26bb)" d="M 308.991792 284.258625 
L 310.725594 284.258625 
L 310.725594 274.4039 
L 308.991792 274.4039 
z
" style="fill:#d62728;"/>
   </g>
   <g id="patch_268">
    <path clip-path="url(#p14b03c26bb)" d="M 311.159045 284.258625 
L 312.892848 284.258625 
L 312.892848 274.073975 
L 311.159045 274.073975 
z
" style="fill:#d62728;"/>
   </g>
   <g id="patch_269">
    <path clip-path="url(#p14b03c26bb)" d="M 313.326298 284.258625 
L 315.060101 284.258625 
L 315.060101 273.858806 
L 313.326298 273.858806 
z
" style="fill:#d62728;"/>
   </g>
   <g id="patch_270">
    <path clip-path="url(#p14b03c26bb)" d="M 315.493552 284.258625 
L 317.227354 284.258625 
L 317.227354 273.586259 
L 315.493552 273.586259 
z
" style="fill:#d62728;"/>
   </g>
   <g id="patch_271">
    <path clip-path="url(#p14b03c26bb)" d="M 317.660805 284.258625 
L 319.394608 284.258625 
L 319.394608 273.514536 
L 317.660805 273.514536 
z
" style="fill:#d62728;"/>
   </g>
   <g id="patch_272">
    <path clip-path="url(#p14b03c26bb)" d="M 319.828058 284.258625 
L 321.561861 284.258625 
L 321.561861 273.313712 
L 319.828058 273.313712 
z
" style="fill:#d62728;"/>
   </g>
   <g id="patch_273">
    <path clip-path="url(#p14b03c26bb)" d="M 321.995312 284.258625 
L 323.729114 284.258625 
L 323.729114 273.198956 
L 321.995312 273.198956 
z
" style="fill:#d62728;"/>
   </g>
   <g id="patch_274">
    <path clip-path="url(#p14b03c26bb)" d="M 324.162565 284.258625 
L 325.896368 284.258625 
L 325.896368 273.112888 
L 324.162565 273.112888 
z
" style="fill:#d62728;"/>
   </g>
   <g id="patch_275">
    <path clip-path="url(#p14b03c26bb)" d="M 326.329818 284.258625 
L 328.063621 284.258625 
L 328.063621 272.840341 
L 326.329818 272.840341 
z
" style="fill:#d62728;"/>
   </g>
   <g id="patch_276">
    <path clip-path="url(#p14b03c26bb)" d="M 328.497072 284.258625 
L 330.230874 284.258625 
L 330.230874 272.668206 
L 328.497072 272.668206 
z
" style="fill:#d62728;"/>
   </g>
   <g id="patch_277">
    <path clip-path="url(#p14b03c26bb)" d="M 330.664325 284.258625 
L 332.398128 284.258625 
L 332.398128 272.496071 
L 330.664325 272.496071 
z
" style="fill:#d62728;"/>
   </g>
   <g id="patch_278">
    <path clip-path="url(#p14b03c26bb)" d="M 332.831578 284.258625 
L 334.565381 284.258625 
L 334.565381 272.352625 
L 332.831578 272.352625 
z
" style="fill:#d62728;"/>
   </g>
   <g id="patch_279">
    <path clip-path="url(#p14b03c26bb)" d="M 334.998832 284.258625 
L 336.732634 284.258625 
L 336.732634 272.123112 
L 334.998832 272.123112 
z
" style="fill:#d62728;"/>
   </g>
   <g id="patch_280">
    <path clip-path="url(#p14b03c26bb)" d="M 337.166085 284.258625 
L 338.899887 284.258625 
L 338.899887 271.950977 
L 337.166085 271.950977 
z
" style="fill:#d62728;"/>
   </g>
   <g id="patch_281">
    <path clip-path="url(#p14b03c26bb)" d="M 339.333338 284.258625 
L 341.067141 284.258625 
L 341.067141 271.821876 
L 339.333338 271.821876 
z
" style="fill:#d62728;"/>
   </g>
   <g id="patch_282">
    <path clip-path="url(#p14b03c26bb)" d="M 341.500591 284.258625 
L 343.234394 284.258625 
L 343.234394 271.721464 
L 341.500591 271.721464 
z
" style="fill:#d62728;"/>
   </g>
   <g id="patch_283">
    <path clip-path="url(#p14b03c26bb)" d="M 343.667845 284.258625 
L 345.401647 284.258625 
L 345.401647 271.549329 
L 343.667845 271.549329 
z
" style="fill:#d62728;"/>
   </g>
   <g id="patch_284">
    <path clip-path="url(#p14b03c26bb)" d="M 345.835098 284.258625 
L 347.568901 284.258625 
L 347.568901 271.477606 
L 345.835098 271.477606 
z
" style="fill:#d62728;"/>
   </g>
   <g id="patch_285">
    <path clip-path="url(#p14b03c26bb)" d="M 348.002351 284.258625 
L 349.736154 284.258625 
L 349.736154 271.463262 
L 348.002351 271.463262 
z
" style="fill:#d62728;"/>
   </g>
   <g id="patch_286">
    <path clip-path="url(#p14b03c26bb)" d="M 350.169605 284.258625 
L 351.903407 284.258625 
L 351.903407 271.434572 
L 350.169605 271.434572 
z
" style="fill:#d62728;"/>
   </g>
   <g id="patch_287">
    <path clip-path="url(#p14b03c26bb)" d="M 352.336858 284.258625 
L 354.070661 284.258625 
L 354.070661 271.348505 
L 352.336858 271.348505 
z
" style="fill:#d62728;"/>
   </g>
   <g id="patch_288">
    <path clip-path="url(#p14b03c26bb)" d="M 354.504111 284.258625 
L 356.237914 284.258625 
L 356.237914 271.305471 
L 354.504111 271.305471 
z
" style="fill:#d62728;"/>
   </g>
   <g id="patch_289">
    <path clip-path="url(#p14b03c26bb)" d="M 356.671365 284.258625 
L 358.405167 284.258625 
L 358.405167 271.248093 
L 356.671365 271.248093 
z
" style="fill:#d62728;"/>
   </g>
   <g id="patch_290">
    <path clip-path="url(#p14b03c26bb)" d="M 358.838618 284.258625 
L 360.572421 284.258625 
L 360.572421 271.147681 
L 358.838618 271.147681 
z
" style="fill:#d62728;"/>
   </g>
   <g id="patch_291">
    <path clip-path="url(#p14b03c26bb)" d="M 361.005871 284.258625 
L 362.739674 284.258625 
L 362.739674 271.118992 
L 361.005871 271.118992 
z
" style="fill:#d62728;"/>
   </g>
   <g id="patch_292">
    <path clip-path="url(#p14b03c26bb)" d="M 363.173125 284.258625 
L 364.906927 284.258625 
L 364.906927 271.118992 
L 363.173125 271.118992 
z
" style="fill:#d62728;"/>
   </g>
   <g id="patch_293">
    <path clip-path="url(#p14b03c26bb)" d="M 365.340378 284.258625 
L 367.07418 284.258625 
L 367.07418 271.118992 
L 365.340378 271.118992 
z
" style="fill:#d62728;"/>
   </g>
   <g id="patch_294">
    <path clip-path="url(#p14b03c26bb)" d="M 367.507631 284.258625 
L 369.241434 284.258625 
L 369.241434 271.075958 
L 367.507631 271.075958 
z
" style="fill:#d62728;"/>
   </g>
   <g id="patch_295">
    <path clip-path="url(#p14b03c26bb)" d="M 369.674884 284.258625 
L 371.408687 284.258625 
L 371.408687 271.061613 
L 369.674884 271.061613 
z
" style="fill:#d62728;"/>
   </g>
   <g id="patch_296">
    <path clip-path="url(#p14b03c26bb)" d="M 371.842138 284.258625 
L 373.57594 284.258625 
L 373.57594 271.032924 
L 371.842138 271.032924 
z
" style="fill:#d62728;"/>
   </g>
   <g id="patch_297">
    <path clip-path="url(#p14b03c26bb)" d="M 374.009391 284.258625 
L 375.743194 284.258625 
L 375.743194 271.004235 
L 374.009391 271.004235 
z
" style="fill:#d62728;"/>
   </g>
   <g id="patch_298">
    <path clip-path="url(#p14b03c26bb)" d="M 376.176644 284.258625 
L 377.910447 284.258625 
L 377.910447 270.989891 
L 376.176644 270.989891 
z
" style="fill:#d62728;"/>
   </g>
   <g id="patch_299">
    <path clip-path="url(#p14b03c26bb)" d="M 378.343898 284.258625 
L 380.0777 284.258625 
L 380.0777 270.989891 
L 378.343898 270.989891 
z
" style="fill:#d62728;"/>
   </g>
   <g id="patch_300">
    <path clip-path="url(#p14b03c26bb)" d="M 380.511151 284.258625 
L 382.244954 284.258625 
L 382.244954 270.961201 
L 380.511151 270.961201 
z
" style="fill:#d62728;"/>
   </g>
   <g id="patch_301">
    <path clip-path="url(#p14b03c26bb)" d="M 382.678404 284.258625 
L 384.412207 284.258625 
L 384.412207 270.903823 
L 382.678404 270.903823 
z
" style="fill:#d62728;"/>
   </g>
   <g id="patch_302">
    <path clip-path="url(#p14b03c26bb)" d="M 384.845658 284.258625 
L 386.57946 284.258625 
L 386.57946 270.846445 
L 384.845658 270.846445 
z
" style="fill:#d62728;"/>
   </g>
   <g id="matplotlib.axis_1">
    <g id="xtick_1">
     <g id="line2d_1">
      <defs>
       <path d="M 0 0 
L 0 3.5 
" id="m64cf101bbf" style="stroke:#000000;stroke-width:0.8;"/>
      </defs>
      <g>
       <use style="stroke:#000000;stroke-width:0.8;" x="86.631602" xlink:href="#m64cf101bbf" y="284.258625"/>
      </g>
     </g>
     <g id="text_1">
      <!-- Feb -->
      <defs>
       <path d="M 54.203125 64.703125 
L 18.3125 64.703125 
L 18.3125 41.5 
L 50.09375 41.5 
L 50.09375 34.1875 
L 18.3125 34.1875 
L 18.3125 0.984375 
L 9.515625 0.984375 
L 9.515625 72.40625 
L 54.203125 72.40625 
z
" id="IPAexGothic-70"/>
       <path d="M 13.484375 24.90625 
Q 13.921875 16.265625 18.890625 11.28125 
Q 23.96875 6.203125 31.203125 6.203125 
Q 40.71875 6.203125 46.296875 15.09375 
L 51.90625 11.375 
Q 44.828125 -0.484375 30.171875 -0.484375 
Q 19.09375 -0.484375 11.96875 6.59375 
Q 4.78125 13.8125 4.78125 25.640625 
Q 4.78125 38.1875 12.3125 45.703125 
Q 19 52.390625 29 52.390625 
Q 38.421875 52.390625 44.78125 46.1875 
Q 51.90625 38.96875 51.90625 26.90625 
L 51.90625 24.90625 
z
M 43.0625 31.203125 
Q 42.328125 37.984375 38.28125 41.890625 
Q 34.28125 45.90625 28.8125 45.90625 
Q 22.46875 45.90625 17.96875 40.484375 
Q 14.890625 36.8125 13.96875 31.203125 
z
" id="IPAexGothic-101"/>
       <path d="M 17.578125 42.671875 
Q 24.21875 52.203125 34.671875 52.203125 
Q 43.5625 52.203125 49.859375 45.90625 
Q 57.171875 38.578125 57.171875 25.6875 
Q 57.171875 13.09375 49.859375 5.8125 
Q 43.5625 -0.484375 34.46875 -0.484375 
Q 24.359375 -0.484375 17 8.0625 
L 15.765625 0.6875 
L 9.078125 0.6875 
L 9.078125 74.90625 
L 17.578125 74.90625 
z
M 17.578125 31.203125 
L 17.578125 19.578125 
Q 17.578125 13.875 23.875 9.375 
Q 28.171875 6.296875 33.109375 6.296875 
Q 38.875 6.296875 42.875 10.296875 
Q 48.1875 15.765625 48.1875 25.484375 
Q 48.1875 34.28125 43.796875 39.890625 
Q 39.453125 45.3125 33.203125 45.3125 
Q 27.484375 45.3125 22.46875 40.28125 
Q 17.578125 35.40625 17.578125 31.203125 
z
" id="IPAexGothic-98"/>
      </defs>
      <g transform="translate(77.808165 298.74925)scale(0.1 -0.1)">
       <use xlink:href="#IPAexGothic-70"/>
       <use x="57.177734" xlink:href="#IPAexGothic-101"/>
       <use x="114.0625" xlink:href="#IPAexGothic-98"/>
      </g>
     </g>
    </g>
    <g id="xtick_2">
     <g id="line2d_2">
      <g>
       <use style="stroke:#000000;stroke-width:0.8;" x="149.481948" xlink:href="#m64cf101bbf" y="284.258625"/>
      </g>
     </g>
     <g id="text_2">
      <!-- Mar -->
      <defs>
       <path d="M 80.421875 0.984375 
L 71.828125 0.984375 
L 71.828125 39.59375 
Q 71.828125 51.265625 72.40625 64.59375 
L 72.015625 64.59375 
Q 68.0625 53.265625 63.53125 41.796875 
L 47.90625 3.265625 
L 41.40625 3.265625 
L 25.640625 42.578125 
Q 20.75 54.78125 17.625 64.703125 
L 17.234375 64.703125 
Q 17.828125 48.921875 17.828125 39.890625 
L 17.828125 0.984375 
L 9.515625 0.984375 
L 9.515625 72.40625 
L 22.125 72.40625 
L 39.109375 30.375 
Q 42.140625 23 44.828125 14.15625 
L 45.125 14.15625 
Q 47.3125 22.125 50.53125 30.171875 
L 67.4375 72.40625 
L 80.421875 72.40625 
z
" id="IPAexGothic-77"/>
       <path d="M 49.3125 0.984375 
L 41.75 0.984375 
Q 39.984375 4.734375 39.546875 8.6875 
L 39.203125 8.6875 
Q 33.546875 -0.390625 22.3125 -0.390625 
Q 14.59375 -0.390625 9.71875 4.5 
Q 5.421875 8.796875 5.421875 14.984375 
Q 5.421875 30.421875 32.03125 31.203125 
L 38.71875 31.390625 
L 38.71875 33.984375 
Q 38.71875 39.203125 35.75 42.1875 
Q 32.625 45.3125 27.734375 45.3125 
Q 19.34375 45.3125 15.140625 37.15625 
L 7.71875 40.578125 
Q 14.65625 52 27.9375 52 
Q 37.109375 52 42.046875 46.875 
Q 46.625 42.28125 46.625 33.890625 
L 46.625 15.578125 
Q 46.625 6.25 49.3125 0.984375 
z
M 38.921875 25.390625 
L 33.453125 25.296875 
Q 14.109375 24.859375 14.109375 14.890625 
Q 14.109375 11.375 16.40625 9.078125 
Q 19.234375 6.296875 23.828125 6.296875 
Q 30.21875 6.296875 34.90625 10.984375 
Q 38.921875 15.140625 38.921875 21 
z
" id="IPAexGothic-97"/>
       <path d="M 36.078125 51.8125 
L 34.578125 43.265625 
Q 32.90625 43.609375 31.59375 43.609375 
Q 25.828125 43.609375 22.078125 38.1875 
Q 17.390625 31.34375 17.390625 26.171875 
L 17.390625 0.984375 
L 8.796875 0.984375 
L 8.796875 50.78125 
L 16.890625 50.78125 
L 16.5 35.984375 
L 16.703125 35.984375 
Q 22.21875 52.203125 32.765625 52.203125 
Q 34.46875 52.203125 36.078125 51.8125 
z
" id="IPAexGothic-114"/>
      </defs>
      <g transform="translate(140.372573 298.74925)scale(0.1 -0.1)">
       <use xlink:href="#IPAexGothic-77"/>
       <use x="90.185547" xlink:href="#IPAexGothic-97"/>
       <use x="145.166016" xlink:href="#IPAexGothic-114"/>
      </g>
     </g>
    </g>
    <g id="xtick_3">
     <g id="line2d_3">
      <g>
       <use style="stroke:#000000;stroke-width:0.8;" x="216.666801" xlink:href="#m64cf101bbf" y="284.258625"/>
      </g>
     </g>
     <g id="text_3">
      <!-- Apr -->
      <defs>
       <path d="M 63.375 0.984375 
L 53.8125 0.984375 
L 45.90625 22.015625 
L 17.1875 22.015625 
L 9.421875 0.984375 
L -0.09375 0.984375 
L 28.21875 72.90625 
L 35.296875 72.90625 
z
M 43.40625 29.109375 
L 36.1875 48.09375 
Q 33.203125 56.0625 31.6875 62.5 
L 31.390625 62.5 
Q 29.640625 55.671875 26.8125 48.09375 
L 19.734375 29.109375 
z
" id="IPAexGothic-65"/>
       <path d="M 16.796875 42 
Q 23.828125 52.203125 34.46875 52.203125 
Q 43.265625 52.203125 49.5625 45.90625 
Q 56.890625 38.578125 56.890625 25.6875 
Q 56.890625 13.140625 49.65625 5.8125 
Q 43.359375 -0.484375 34.375 -0.484375 
Q 24.515625 -0.484375 17.28125 7.765625 
L 17.28125 -19 
L 8.796875 -19 
L 8.796875 50.78125 
L 16.796875 50.78125 
z
M 17.28125 30.46875 
L 17.28125 20.171875 
Q 17.28125 14.015625 23.6875 9.375 
Q 27.984375 6.296875 32.90625 6.296875 
Q 38.578125 6.296875 42.578125 10.296875 
Q 47.90625 15.578125 47.90625 25.484375 
Q 47.90625 34.375 43.5 39.984375 
Q 39.109375 45.3125 32.8125 45.3125 
Q 25.875 45.3125 20.90625 38.8125 
Q 17.28125 34.125 17.28125 30.46875 
z
" id="IPAexGothic-112"/>
      </defs>
      <g transform="translate(208.524613 298.74925)scale(0.1 -0.1)">
       <use xlink:href="#IPAexGothic-65"/>
       <use x="63.720703" xlink:href="#IPAexGothic-112"/>
       <use x="125.830078" xlink:href="#IPAexGothic-114"/>
      </g>
     </g>
    </g>
    <g id="xtick_4">
     <g id="line2d_4">
      <g>
       <use style="stroke:#000000;stroke-width:0.8;" x="281.6844" xlink:href="#m64cf101bbf" y="284.258625"/>
      </g>
     </g>
     <g id="text_4">
      <!-- May -->
      <defs>
       <path d="M 48.78125 50.78125 
L 24.609375 -7.625 
Q 19.96875 -18.796875 8.59375 -18.796875 
L 7.46875 -18.796875 
L 5.375 -10.984375 
L 6.984375 -10.984375 
Q 15.140625 -10.984375 17.96875 -3.71875 
L 21.1875 4.296875 
L 0.59375 50.78125 
L 10.296875 50.78125 
L 21.296875 22.796875 
Q 23.875 16.015625 25.09375 12.203125 
L 25.390625 12.203125 
Q 27.34375 18.265625 29.109375 22.796875 
L 39.5 50.78125 
z
" id="IPAexGothic-121"/>
      </defs>
      <g transform="translate(271.964869 298.74925)scale(0.1 -0.1)">
       <use xlink:href="#IPAexGothic-77"/>
       <use x="90.185547" xlink:href="#IPAexGothic-97"/>
       <use x="145.166016" xlink:href="#IPAexGothic-121"/>
      </g>
     </g>
    </g>
    <g id="xtick_5">
     <g id="line2d_5">
      <g>
       <use style="stroke:#000000;stroke-width:0.8;" x="348.869253" xlink:href="#m64cf101bbf" y="284.258625"/>
      </g>
     </g>
     <g id="text_5">
      <!-- Jun -->
      <defs>
       <path d="M 28.421875 72.40625 
L 28.421875 19.28125 
Q 28.421875 -0.484375 11.921875 -0.484375 
Q 4.734375 -0.484375 -1.953125 3.265625 
L 1.3125 10.0625 
Q 5.90625 6.984375 10.84375 6.984375 
Q 19.53125 6.984375 19.53125 18.796875 
L 19.53125 72.40625 
z
" id="IPAexGothic-74"/>
       <path d="M 51.3125 0.984375 
L 43.3125 0.984375 
L 43.3125 10.0625 
Q 35.9375 0 25.390625 0 
Q 16.75 0 11.921875 5.859375 
Q 8.109375 10.59375 8.109375 19.390625 
L 8.109375 50.78125 
L 16.703125 50.78125 
L 16.703125 19.671875 
Q 16.703125 7.28125 27.09375 7.28125 
Q 37.59375 7.28125 42.71875 20.171875 
L 42.71875 50.78125 
L 51.3125 50.78125 
z
" id="IPAexGothic-117"/>
       <path d="M 52 0.984375 
L 43.40625 0.984375 
L 43.40625 31.890625 
Q 43.40625 44.578125 32.90625 44.578125 
Q 22.3125 44.578125 17.390625 31.890625 
L 17.390625 0.984375 
L 8.796875 0.984375 
L 8.796875 50.78125 
L 16.796875 50.78125 
L 16.796875 41.796875 
Q 23.828125 51.8125 34.71875 51.8125 
Q 52 51.8125 52 32.375 
z
" id="IPAexGothic-110"/>
      </defs>
      <g transform="translate(340.929409 298.74925)scale(0.1 -0.1)">
       <use xlink:href="#IPAexGothic-74"/>
       <use x="37.988281" xlink:href="#IPAexGothic-117"/>
       <use x="98.388672" xlink:href="#IPAexGothic-110"/>
      </g>
     </g>
    </g>
    <g id="text_6">
     <!-- 2020 -->
     <defs>
      <path d="M 57.171875 0.984375 
L 6.984375 0.984375 
L 6.984375 9.28125 
Q 12.890625 23.046875 29.59375 34.421875 
L 32.375 36.28125 
Q 40.921875 42.140625 43.609375 45.40625 
Q 46.6875 49.265625 46.6875 53.8125 
Q 46.6875 58.9375 43.0625 62.546875 
Q 39.0625 66.546875 32.5625 66.546875 
Q 19.53125 66.546875 15.484375 52 
L 7.765625 54.78125 
Q 13.328125 73.828125 33.0625 73.828125 
Q 43.84375 73.828125 50.25 67.4375 
Q 55.859375 61.671875 55.859375 53.515625 
Q 55.859375 47.46875 52.25 42.53125 
Q 48.921875 37.75 36.96875 30.28125 
L 34.859375 29 
Q 19.625 19.578125 15.28125 8.890625 
L 57.171875 8.890625 
z
" id="IPAexGothic-50"/>
      <path d="M 31.84375 73.828125 
Q 45.015625 73.828125 52.09375 61.625 
Q 57.71875 51.953125 57.71875 36.625 
Q 57.71875 21.4375 52.09375 11.578125 
Q 45.125 -0.484375 31.5 -0.484375 
Q 17.921875 -0.484375 10.9375 11.578125 
Q 5.328125 21.4375 5.328125 36.71875 
Q 5.328125 58.015625 15.625 67.71875 
Q 22.171875 73.828125 31.84375 73.828125 
z
M 31.5 66.65625 
Q 23.6875 66.65625 19.1875 58.734375 
Q 14.59375 50.734375 14.59375 36.625 
Q 14.59375 22.75 19.09375 14.796875 
Q 23.640625 6.984375 31.5 6.984375 
Q 40.921875 6.984375 45.453125 18.015625 
Q 48.4375 25.34375 48.4375 37.109375 
Q 48.4375 50.875 43.84375 58.734375 
Q 39.203125 66.65625 31.5 66.65625 
z
" id="IPAexGothic-48"/>
     </defs>
     <g transform="translate(377.618438 311.139875)scale(0.1 -0.1)">
      <use xlink:href="#IPAexGothic-50"/>
      <use x="62.988281" xlink:href="#IPAexGothic-48"/>
      <use x="125.976562" xlink:href="#IPAexGothic-50"/>
      <use x="188.964844" xlink:href="#IPAexGothic-48"/>
     </g>
    </g>
   </g>
   <g id="matplotlib.axis_2">
    <g id="ytick_1">
     <g id="line2d_6">
      <defs>
       <path d="M 0 0 
L -3.5 0 
" id="m6a2f2f843e" style="stroke:#000000;stroke-width:0.8;"/>
      </defs>
      <g>
       <use style="stroke:#000000;stroke-width:0.8;" x="45.692188" xlink:href="#m6a2f2f843e" y="284.258625"/>
      </g>
     </g>
     <g id="text_7">
      <!-- 0 -->
      <g transform="translate(32.39375 288.003937)scale(0.1 -0.1)">
       <use xlink:href="#IPAexGothic-48"/>
      </g>
     </g>
    </g>
    <g id="ytick_2">
     <g id="line2d_7">
      <g>
       <use style="stroke:#000000;stroke-width:0.8;" x="45.692188" xlink:href="#m6a2f2f843e" y="248.397181"/>
      </g>
     </g>
     <g id="text_8">
      <!-- 2500 -->
      <defs>
       <path d="M 18.40625 40.671875 
Q 25.53125 46.296875 33.9375 46.296875 
Q 44 46.296875 50.640625 39.5 
Q 56.84375 33.015625 56.84375 23.390625 
Q 56.84375 14.65625 51.515625 8.015625 
Q 44.828125 -0.484375 31.734375 -0.484375 
Q 14.984375 -0.484375 7.328125 12.25 
L 14.65625 16.0625 
Q 20.453125 6.78125 31.453125 6.78125 
Q 38.53125 6.78125 43.265625 11.1875 
Q 48.140625 15.828125 48.140625 23.484375 
Q 48.140625 30.71875 43.84375 35.015625 
Q 39.359375 39.5 32.125 39.5 
Q 21.96875 39.5 16.75 31.6875 
L 9.234375 32.671875 
L 13.8125 72.40625 
L 53.21875 72.40625 
L 53.21875 64.890625 
L 20.953125 64.890625 
L 17.71875 40.671875 
z
" id="IPAexGothic-53"/>
      </defs>
      <g transform="translate(13.498438 252.142493)scale(0.1 -0.1)">
       <use xlink:href="#IPAexGothic-50"/>
       <use x="62.988281" xlink:href="#IPAexGothic-53"/>
       <use x="125.976562" xlink:href="#IPAexGothic-48"/>
       <use x="188.964844" xlink:href="#IPAexGothic-48"/>
      </g>
     </g>
    </g>
    <g id="ytick_3">
     <g id="line2d_8">
      <g>
       <use style="stroke:#000000;stroke-width:0.8;" x="45.692188" xlink:href="#m6a2f2f843e" y="212.535736"/>
      </g>
     </g>
     <g id="text_9">
      <!-- 5000 -->
      <g transform="translate(13.498438 216.281049)scale(0.1 -0.1)">
       <use xlink:href="#IPAexGothic-53"/>
       <use x="62.988281" xlink:href="#IPAexGothic-48"/>
       <use x="125.976562" xlink:href="#IPAexGothic-48"/>
       <use x="188.964844" xlink:href="#IPAexGothic-48"/>
      </g>
     </g>
    </g>
    <g id="ytick_4">
     <g id="line2d_9">
      <g>
       <use style="stroke:#000000;stroke-width:0.8;" x="45.692188" xlink:href="#m6a2f2f843e" y="176.674292"/>
      </g>
     </g>
     <g id="text_10">
      <!-- 7500 -->
      <defs>
       <path d="M 56.203125 66.609375 
Q 34.96875 32.90625 27.78125 0.984375 
L 17.671875 0.984375 
Q 24.703125 28.65625 46.09375 64.5 
L 6.6875 64.5 
L 6.6875 72.40625 
L 56.203125 72.40625 
z
" id="IPAexGothic-55"/>
      </defs>
      <g transform="translate(13.498438 180.419604)scale(0.1 -0.1)">
       <use xlink:href="#IPAexGothic-55"/>
       <use x="62.988281" xlink:href="#IPAexGothic-53"/>
       <use x="125.976562" xlink:href="#IPAexGothic-48"/>
       <use x="188.964844" xlink:href="#IPAexGothic-48"/>
      </g>
     </g>
    </g>
    <g id="ytick_5">
     <g id="line2d_10">
      <g>
       <use style="stroke:#000000;stroke-width:0.8;" x="45.692188" xlink:href="#m6a2f2f843e" y="140.812847"/>
      </g>
     </g>
     <g id="text_11">
      <!-- 10000 -->
      <defs>
       <path d="M 38.484375 0.984375 
L 29.6875 0.984375 
L 29.6875 64.109375 
Q 21.4375 61.28125 12.3125 59.328125 
L 10.6875 66.109375 
Q 23.734375 69.390625 32.90625 73.921875 
L 38.484375 73.921875 
z
" id="IPAexGothic-49"/>
      </defs>
      <g transform="translate(7.2 144.55816)scale(0.1 -0.1)">
       <use xlink:href="#IPAexGothic-49"/>
       <use x="62.988281" xlink:href="#IPAexGothic-48"/>
       <use x="125.976562" xlink:href="#IPAexGothic-48"/>
       <use x="188.964844" xlink:href="#IPAexGothic-48"/>
       <use x="251.953125" xlink:href="#IPAexGothic-48"/>
      </g>
     </g>
    </g>
    <g id="ytick_6">
     <g id="line2d_11">
      <g>
       <use style="stroke:#000000;stroke-width:0.8;" x="45.692188" xlink:href="#m6a2f2f843e" y="104.951403"/>
      </g>
     </g>
     <g id="text_12">
      <!-- 12500 -->
      <g transform="translate(7.2 108.696715)scale(0.1 -0.1)">
       <use xlink:href="#IPAexGothic-49"/>
       <use x="62.988281" xlink:href="#IPAexGothic-50"/>
       <use x="125.976562" xlink:href="#IPAexGothic-53"/>
       <use x="188.964844" xlink:href="#IPAexGothic-48"/>
       <use x="251.953125" xlink:href="#IPAexGothic-48"/>
      </g>
     </g>
    </g>
    <g id="ytick_7">
     <g id="line2d_12">
      <g>
       <use style="stroke:#000000;stroke-width:0.8;" x="45.692188" xlink:href="#m6a2f2f843e" y="69.089958"/>
      </g>
     </g>
     <g id="text_13">
      <!-- 15000 -->
      <g transform="translate(7.2 72.835271)scale(0.1 -0.1)">
       <use xlink:href="#IPAexGothic-49"/>
       <use x="62.988281" xlink:href="#IPAexGothic-53"/>
       <use x="125.976562" xlink:href="#IPAexGothic-48"/>
       <use x="188.964844" xlink:href="#IPAexGothic-48"/>
       <use x="251.953125" xlink:href="#IPAexGothic-48"/>
      </g>
     </g>
    </g>
    <g id="ytick_8">
     <g id="line2d_13">
      <g>
       <use style="stroke:#000000;stroke-width:0.8;" x="45.692188" xlink:href="#m6a2f2f843e" y="33.228514"/>
      </g>
     </g>
     <g id="text_14">
      <!-- 17500 -->
      <g transform="translate(7.2 36.973827)scale(0.1 -0.1)">
       <use xlink:href="#IPAexGothic-49"/>
       <use x="62.988281" xlink:href="#IPAexGothic-55"/>
       <use x="125.976562" xlink:href="#IPAexGothic-53"/>
       <use x="188.964844" xlink:href="#IPAexGothic-48"/>
       <use x="251.953125" xlink:href="#IPAexGothic-48"/>
      </g>
     </g>
    </g>
   </g>
   <g id="patch_303">
    <path d="M 45.692188 284.258625 
L 45.692188 18.146625 
" style="fill:none;stroke:#000000;stroke-linecap:square;stroke-linejoin:miter;stroke-width:0.8;"/>
   </g>
   <g id="patch_304">
    <path d="M 402.812188 284.258625 
L 402.812188 18.146625 
" style="fill:none;stroke:#000000;stroke-linecap:square;stroke-linejoin:miter;stroke-width:0.8;"/>
   </g>
   <g id="patch_305">
    <path d="M 45.692187 284.258625 
L 402.812187 284.258625 
" style="fill:none;stroke:#000000;stroke-linecap:square;stroke-linejoin:miter;stroke-width:0.8;"/>
   </g>
   <g id="patch_306">
    <path d="M 45.692187 18.146625 
L 402.812187 18.146625 
" style="fill:none;stroke:#000000;stroke-linecap:square;stroke-linejoin:miter;stroke-width:0.8;"/>
   </g>
   <g id="legend_1">
    <g id="patch_307">
     <path d="M 52.692188 55.28725 
L 170.534375 55.28725 
Q 172.534375 55.28725 172.534375 53.28725 
L 172.534375 25.146625 
Q 172.534375 23.146625 170.534375 23.146625 
L 52.692188 23.146625 
Q 50.692188 23.146625 50.692188 25.146625 
L 50.692188 53.28725 
Q 50.692188 55.28725 52.692188 55.28725 
z
" style="fill:#ffffff;opacity:0.8;stroke:#cccccc;stroke-linejoin:miter;"/>
    </g>
    <g id="patch_308">
     <path d="M 54.692188 34.816937 
L 74.692188 34.816937 
L 74.692188 27.816937 
L 54.692188 27.816937 
z
" style="fill:#ffbb78;"/>
    </g>
    <g id="text_15">
     <!-- Confirmed (Japan) -->
     <defs>
      <path d="M 68.015625 17 
Q 65.328125 10.84375 60.296875 6.6875 
Q 51.765625 -0.484375 39.984375 -0.484375 
Q 24.8125 -0.484375 14.984375 10.203125 
Q 5.90625 20.21875 5.90625 36.421875 
Q 5.90625 53.21875 15.828125 63.71875 
Q 25.296875 73.828125 39.59375 73.828125 
Q 59.578125 73.828125 67.53125 56.6875 
L 59.515625 52.984375 
Q 53.515625 66.21875 39.703125 66.21875 
Q 29.546875 66.21875 22.703125 58.5 
Q 15.53125 50.25 15.53125 36.28125 
Q 15.53125 24.21875 21.625 16.5 
Q 28.765625 7.375 40.046875 7.375 
Q 54 7.375 60.59375 20.609375 
z
" id="IPAexGothic-67"/>
      <path d="M 29.984375 52.203125 
Q 40.53125 52.203125 47.75 45.125 
Q 55.171875 37.703125 55.171875 25.59375 
Q 55.171875 13.875 47.90625 6.59375 
Q 40.765625 -0.484375 29.984375 -0.484375 
Q 19.1875 -0.484375 12.203125 6.5 
Q 4.890625 13.765625 4.890625 25.875 
Q 4.890625 37.703125 12.3125 45.125 
Q 19.390625 52.203125 29.984375 52.203125 
z
M 29.984375 45.609375 
Q 23.734375 45.609375 19.390625 41.109375 
Q 13.875 35.59375 13.875 25.78125 
Q 13.875 16.109375 19.28125 10.6875 
Q 23.6875 6.296875 29.984375 6.296875 
Q 36.421875 6.296875 40.765625 10.796875 
Q 46.1875 16.21875 46.1875 26.125 
Q 46.1875 35.453125 40.671875 41.109375 
Q 36.1875 45.609375 29.984375 45.609375 
z
" id="IPAexGothic-111"/>
      <path d="M 38.375 72.21875 
L 34.8125 66.3125 
Q 31.109375 69.09375 27.203125 69.09375 
Q 18.5 69.09375 18.5 57.375 
L 18.5 50.78125 
L 32.078125 50.78125 
L 32.078125 44.671875 
L 18.5 44.671875 
L 18.5 0.984375 
L 10.015625 0.984375 
L 10.015625 44.671875 
L 1.90625 44.671875 
L 1.90625 50.78125 
L 10.015625 50.78125 
L 10.015625 57.171875 
Q 10.015625 65.4375 13.921875 70.0625 
Q 18.75 75.6875 26.703125 75.6875 
Q 33.0625 75.6875 38.375 72.21875 
z
" id="IPAexGothic-102"/>
      <path d="M 18.40625 61.375 
L 8.59375 61.375 
L 8.59375 71.390625 
L 18.40625 71.390625 
z
M 17.78125 0.984375 
L 9.1875 0.984375 
L 9.1875 50.78125 
L 17.78125 50.78125 
z
" id="IPAexGothic-105"/>
      <path d="M 78.46875 0.984375 
L 69.875 0.984375 
L 69.875 32.171875 
Q 69.875 44.828125 60.109375 44.828125 
Q 55.46875 44.828125 51.609375 40.53125 
Q 48.875 37.453125 47.796875 32.859375 
L 47.796875 0.984375 
L 39.203125 0.984375 
L 39.203125 32.28125 
Q 39.203125 44.828125 29.984375 44.828125 
Q 25.09375 44.828125 21.390625 40.53125 
Q 17.390625 36.03125 17.390625 31.890625 
L 17.390625 0.984375 
L 8.796875 0.984375 
L 8.796875 50.78125 
L 16.796875 50.78125 
L 16.796875 42.1875 
Q 21.734375 51.8125 31.6875 51.8125 
Q 42.578125 51.8125 46.1875 41.359375 
Q 51.609375 51.8125 61.765625 51.8125 
Q 69.96875 51.8125 74.5625 46 
Q 78.46875 41.21875 78.46875 32.375 
z
" id="IPAexGothic-109"/>
      <path d="M 52.984375 0.984375 
L 45.171875 0.984375 
L 45.171875 9.671875 
Q 38.140625 -0.484375 27.390625 -0.484375 
Q 18.453125 -0.484375 12.3125 5.8125 
Q 4.890625 13.1875 4.890625 25.984375 
Q 4.890625 38.53125 12.0625 45.90625 
Q 18.265625 52.203125 27.390625 52.203125 
Q 37.25 52.203125 44.484375 43.890625 
L 44.484375 74.90625 
L 52.984375 74.90625 
z
M 44.484375 20.359375 
L 44.484375 32.765625 
Q 44.484375 37.703125 38.375 42.28125 
Q 34.078125 45.40625 28.953125 45.40625 
Q 23.1875 45.40625 19.1875 41.40625 
Q 13.875 36.078125 13.875 26.21875 
Q 13.875 17.328125 18.265625 11.71875 
Q 22.515625 6.390625 28.859375 6.390625 
Q 36.28125 6.390625 41.5 13.671875 
Q 44.484375 17.71875 44.484375 20.359375 
z
" id="IPAexGothic-100"/>
      <path id="IPAexGothic-32"/>
      <path d="M 30.125 -15.875 
L 25.828125 -18.21875 
Q 7.625 1.078125 7.625 29.296875 
Q 7.625 57.46875 25.828125 76.703125 
L 30.125 74.421875 
Q 15.71875 55.03125 15.71875 29.390625 
Q 15.71875 3.171875 30.125 -15.875 
z
" id="IPAexGothic-40"/>
      <path d="M 7.28125 76.703125 
Q 25.59375 57.375 25.59375 29.296875 
Q 25.59375 1.171875 7.28125 -18.21875 
L 2.984375 -15.875 
Q 17.484375 3.375 17.484375 29.390625 
Q 17.484375 54.828125 2.984375 74.421875 
z
" id="IPAexGothic-41"/>
     </defs>
     <g transform="translate(82.692188 34.816937)scale(0.1 -0.1)">
      <use xlink:href="#IPAexGothic-67"/>
      <use x="72.509766" xlink:href="#IPAexGothic-111"/>
      <use x="132.910156" xlink:href="#IPAexGothic-110"/>
      <use x="193.310547" xlink:href="#IPAexGothic-102"/>
      <use x="223.925781" xlink:href="#IPAexGothic-105"/>
      <use x="250.927734" xlink:href="#IPAexGothic-114"/>
      <use x="287.939453" xlink:href="#IPAexGothic-109"/>
      <use x="375.048828" xlink:href="#IPAexGothic-101"/>
      <use x="431.933594" xlink:href="#IPAexGothic-100"/>
      <use x="494.335938" xlink:href="#IPAexGothic-32"/>
      <use x="521.337891" xlink:href="#IPAexGothic-40"/>
      <use x="554.638672" xlink:href="#IPAexGothic-74"/>
      <use x="592.626953" xlink:href="#IPAexGothic-97"/>
      <use x="647.607422" xlink:href="#IPAexGothic-112"/>
      <use x="709.716797" xlink:href="#IPAexGothic-97"/>
      <use x="764.697266" xlink:href="#IPAexGothic-110"/>
      <use x="825.097656" xlink:href="#IPAexGothic-41"/>
     </g>
    </g>
    <g id="patch_309">
     <path d="M 54.692188 49.38725 
L 74.692188 49.38725 
L 74.692188 42.38725 
L 54.692188 42.38725 
z
" style="fill:#d62728;"/>
    </g>
    <g id="text_16">
     <!-- Deaths (Japan) -->
     <defs>
      <path d="M 9.515625 72.40625 
L 31 72.40625 
Q 49.359375 72.40625 59.234375 63.28125 
Q 69.625 53.8125 69.625 36.8125 
Q 69.625 16.359375 54.9375 6.890625 
Q 45.703125 0.984375 30.328125 0.984375 
L 9.515625 0.984375 
z
M 18.3125 8.6875 
L 29.59375 8.6875 
Q 60.203125 8.6875 60.203125 36.8125 
Q 60.203125 64.796875 30.125 64.796875 
L 18.3125 64.796875 
z
" id="IPAexGothic-68"/>
      <path d="M 33.203125 3.765625 
Q 27.640625 -0.09375 21.828125 -0.09375 
Q 10.203125 -0.09375 10.203125 12.984375 
L 10.203125 44.671875 
L 3.421875 44.671875 
L 3.421875 50.78125 
L 10.203125 50.78125 
L 10.203125 61.96875 
L 18.40625 66.0625 
L 18.40625 50.78125 
L 32.234375 50.78125 
L 32.234375 44.671875 
L 18.40625 44.671875 
L 18.40625 14.15625 
Q 18.40625 6.5 23.640625 6.5 
Q 27.15625 6.5 30.328125 9.1875 
z
" id="IPAexGothic-116"/>
      <path d="M 52.296875 0.984375 
L 43.703125 0.984375 
L 43.703125 31.890625 
Q 43.703125 44.578125 33.296875 44.578125 
Q 22.609375 44.578125 17.671875 31.890625 
L 17.671875 0.984375 
L 9.078125 0.984375 
L 9.078125 74.90625 
L 17.671875 74.90625 
L 17.671875 42.28125 
Q 24.46875 51.8125 35.109375 51.8125 
Q 52.296875 51.8125 52.296875 32.375 
z
" id="IPAexGothic-104"/>
      <path d="M 34.90625 39.796875 
Q 30.28125 45.796875 23.1875 45.796875 
Q 13.921875 45.796875 13.921875 38.671875 
Q 13.921875 33.640625 23.921875 30.375 
L 27.203125 29.296875 
Q 41.40625 24.65625 41.40625 13.96875 
Q 41.40625 6.78125 35.5 2.6875 
Q 30.8125 -0.484375 23.390625 -0.484375 
Q 11.96875 -0.484375 4 7.859375 
L 9.421875 12.796875 
Q 15.578125 6.203125 23.6875 6.203125 
Q 33.296875 6.203125 33.296875 13.671875 
Q 33.296875 19.34375 22.703125 23.09375 
L 19.28125 24.265625 
Q 5.90625 28.953125 5.90625 37.984375 
Q 5.90625 43.703125 9.8125 47.609375 
Q 14.5 52.296875 22.703125 52.296875 
Q 33.6875 52.296875 40.71875 44.671875 
z
" id="IPAexGothic-115"/>
     </defs>
     <g transform="translate(82.692188 49.38725)scale(0.1 -0.1)">
      <use xlink:href="#IPAexGothic-68"/>
      <use x="75.683594" xlink:href="#IPAexGothic-101"/>
      <use x="132.568359" xlink:href="#IPAexGothic-97"/>
      <use x="187.548828" xlink:href="#IPAexGothic-116"/>
      <use x="222.167969" xlink:href="#IPAexGothic-104"/>
      <use x="282.861328" xlink:href="#IPAexGothic-115"/>
      <use x="329.052734" xlink:href="#IPAexGothic-32"/>
      <use x="356.054688" xlink:href="#IPAexGothic-40"/>
      <use x="389.355469" xlink:href="#IPAexGothic-74"/>
      <use x="427.34375" xlink:href="#IPAexGothic-97"/>
      <use x="482.324219" xlink:href="#IPAexGothic-112"/>
      <use x="544.433594" xlink:href="#IPAexGothic-97"/>
      <use x="599.414062" xlink:href="#IPAexGothic-110"/>
      <use x="659.814453" xlink:href="#IPAexGothic-41"/>
     </g>
    </g>
   </g>
  </g>
  <g id="text_17">
   <!-- generated: 2020-06-19 05:37:02 JST -->
   <defs>
    <path d="M 20.796875 17.96875 
Q 15.71875 17.53125 15.71875 14.0625 
Q 15.71875 9.578125 27.546875 8.984375 
L 33.296875 8.6875 
Q 51.609375 7.765625 51.609375 -4.59375 
Q 51.609375 -10.9375 45.703125 -14.984375 
Q 39.359375 -19.578125 28.03125 -19.578125 
Q 17.78125 -19.578125 11.53125 -16.0625 
Q 5.515625 -12.640625 5.515625 -6.6875 
Q 5.515625 1.3125 16.796875 3.859375 
L 16.796875 4.203125 
Q 7.90625 6.453125 7.90625 12.15625 
Q 7.90625 17.4375 15.53125 20.265625 
Q 7.125 24.609375 7.125 34.078125 
Q 7.125 41.40625 12.015625 46.296875 
Q 17.625 51.90625 27.15625 51.90625 
Q 33.203125 51.90625 37.84375 49.265625 
Q 41.40625 53.953125 50.921875 54.109375 
L 50.921875 47.078125 
Q 44.34375 46.921875 42.234375 45.90625 
Q 47.40625 40.828125 47.40625 33.890625 
Q 47.40625 27 42.71875 22.265625 
Q 37.5 17.09375 28.328125 17.09375 
Q 24.421875 17.09375 20.796875 17.96875 
z
M 27.09375 45.609375 
Q 22.015625 45.609375 18.703125 42.28125 
Q 15.4375 39.015625 15.4375 34.078125 
Q 15.4375 29.25 18.5 26.3125 
Q 21.828125 23 27.4375 23 
Q 32.71875 23 35.890625 26.21875 
Q 39.109375 29.390625 39.109375 34.421875 
Q 39.109375 39.015625 35.890625 42.1875 
Q 32.515625 45.609375 27.09375 45.609375 
z
M 27.390625 2.484375 
Q 14.109375 2.484375 14.109375 -5.71875 
Q 14.109375 -13.671875 28.125 -13.671875 
Q 37.15625 -13.671875 41.21875 -9.46875 
Q 43.3125 -7.515625 43.3125 -4.890625 
Q 43.3125 2.484375 27.390625 2.484375 
z
" id="IPAexGothic-103"/>
    <path d="M 21.390625 39.984375 
L 10.5 39.984375 
L 10.5 50.78125 
L 21.390625 50.78125 
z
M 21.390625 0.984375 
L 10.5 0.984375 
L 10.5 11.765625 
L 21.390625 11.765625 
z
" id="IPAexGothic-58"/>
    <path d="M 30.765625 26.609375 
L 4.984375 26.609375 
L 4.984375 34.421875 
L 30.765625 34.421875 
z
" id="IPAexGothic-45"/>
    <path d="M 16.5 36.375 
Q 23.578125 46.578125 34.90625 46.578125 
Q 45.40625 46.578125 51.8125 39.265625 
Q 57.421875 32.90625 57.421875 23.78125 
Q 57.421875 13.8125 51.125 6.78125 
Q 44.578125 -0.484375 34.03125 -0.484375 
Q 21.484375 -0.484375 14.40625 9.078125 
Q 7.515625 18.40625 7.515625 34.8125 
Q 7.515625 53.515625 15.828125 64.203125 
Q 23.34375 73.828125 35.5 73.828125 
Q 49.859375 73.828125 56.390625 62.890625 
L 49.21875 58.984375 
Q 45.21875 66.65625 35.9375 66.65625 
Q 17.484375 66.65625 16.109375 36.375 
z
M 33.453125 39.796875 
Q 26.3125 39.796875 21.625 34.46875 
Q 17.4375 29.6875 17.4375 24.078125 
Q 17.4375 18.0625 21.140625 13.1875 
Q 26.125 6.6875 33.734375 6.6875 
Q 41.703125 6.6875 45.953125 13.1875 
Q 48.828125 17.625 48.828125 23.484375 
Q 48.828125 30.375 45.015625 34.8125 
Q 40.625 39.796875 33.453125 39.796875 
z
" id="IPAexGothic-54"/>
    <path d="M 46.625 36.8125 
Q 39.75 26.8125 28.328125 26.8125 
Q 19.578125 26.8125 13.234375 32.125 
Q 5.71875 38.421875 5.71875 49.421875 
Q 5.71875 59.578125 12.015625 66.65625 
Q 18.453125 73.828125 29.203125 73.828125 
Q 43.75 73.828125 50.640625 61.71875 
Q 55.609375 52.78125 55.609375 38.625 
Q 55.609375 19.53125 47.515625 9.1875 
Q 39.890625 -0.484375 27.640625 -0.484375 
Q 13.421875 -0.484375 6.109375 10.984375 
L 13.328125 14.890625 
Q 18.0625 6.6875 27.390625 6.6875 
Q 45.65625 6.6875 47.015625 36.8125 
z
M 29.5 66.84375 
Q 22.65625 66.84375 18.3125 61.71875 
Q 14.40625 57.078125 14.40625 50 
Q 14.40625 42.828125 18.109375 38.71875 
Q 22.40625 33.796875 29.78125 33.796875 
Q 37.984375 33.796875 42.625 40.1875 
Q 45.703125 44.484375 45.703125 49.515625 
Q 45.703125 55.515625 42.09375 60.359375 
Q 37.109375 66.84375 29.5 66.84375 
z
" id="IPAexGothic-57"/>
    <path d="M 37.203125 37.796875 
Q 54.78125 34.625 54.78125 19.96875 
Q 54.78125 11.1875 48.875 5.5625 
Q 42.328125 -0.484375 30.375 -0.484375 
Q 12.453125 -0.484375 4.5 13.765625 
L 11.8125 17.671875 
Q 17.328125 6.890625 30.28125 6.890625 
Q 37.890625 6.890625 42.09375 10.796875 
Q 46.09375 14.5 46.09375 20.171875 
Q 46.09375 26.859375 40.09375 30.90625 
Q 34.625 34.578125 25.6875 34.578125 
L 21.296875 34.578125 
L 21.296875 41.703125 
L 25.875 41.703125 
Q 34.859375 41.703125 39.59375 45.125 
Q 44.671875 48.734375 44.671875 54.828125 
Q 44.671875 61.46875 38.96875 64.65625 
Q 35.296875 66.84375 30.171875 66.84375 
Q 19.34375 66.84375 14.109375 55.90625 
L 6.78125 59.421875 
Q 14.015625 73.828125 30.28125 73.828125 
Q 40.578125 73.828125 46.96875 68.65625 
Q 53.375 63.578125 53.375 55.21875 
Q 53.375 47.3125 47.171875 42.28125 
Q 43.171875 39.0625 37.203125 38.1875 
z
" id="IPAexGothic-51"/>
    <path d="M 45.609375 56.890625 
Q 40.046875 66.546875 28.953125 66.546875 
Q 22.703125 66.546875 18.953125 62.640625 
Q 16.0625 59.421875 16.0625 55.21875 
Q 16.0625 50.59375 19.78125 47.609375 
Q 22.5625 45.515625 31 42 
L 34.375 40.578125 
Q 45.703125 36.03125 49.859375 30.515625 
Q 53.46875 25.6875 53.46875 19.671875 
Q 53.46875 10.0625 46.390625 4.5 
Q 39.984375 -0.484375 30.171875 -0.484375 
Q 13.765625 -0.484375 4.890625 11.96875 
L 11.765625 17.1875 
Q 18.796875 7.171875 30.28125 7.171875 
Q 35.75 7.171875 39.59375 9.765625 
Q 44.390625 13.234375 44.390625 19 
Q 44.390625 23.484375 40.875 27 
Q 37.109375 30.609375 27 34.46875 
L 24.078125 35.59375 
Q 7.078125 42.09375 7.078125 54.390625 
Q 7.078125 62.59375 12.59375 67.921875 
Q 18.796875 73.828125 29.109375 73.828125 
Q 44.390625 73.828125 52.484375 61.8125 
z
" id="IPAexGothic-83"/>
    <path d="M 60.40625 64.703125 
L 33.984375 64.703125 
L 33.984375 0.984375 
L 25.09375 0.984375 
L 25.09375 64.703125 
L -0.484375 64.703125 
L -0.484375 72.40625 
L 60.40625 72.40625 
z
" id="IPAexGothic-84"/>
   </defs>
   <g transform="translate(226.577813 14.690625)scale(0.1 -0.1)">
    <use xlink:href="#IPAexGothic-103"/>
    <use x="55.517578" xlink:href="#IPAexGothic-101"/>
    <use x="112.402344" xlink:href="#IPAexGothic-110"/>
    <use x="172.802734" xlink:href="#IPAexGothic-101"/>
    <use x="229.6875" xlink:href="#IPAexGothic-114"/>
    <use x="266.699219" xlink:href="#IPAexGothic-97"/>
    <use x="321.679688" xlink:href="#IPAexGothic-116"/>
    <use x="356.298828" xlink:href="#IPAexGothic-101"/>
    <use x="413.183594" xlink:href="#IPAexGothic-100"/>
    <use x="475.585938" xlink:href="#IPAexGothic-58"/>
    <use x="507.568359" xlink:href="#IPAexGothic-32"/>
    <use x="534.570312" xlink:href="#IPAexGothic-50"/>
    <use x="597.558594" xlink:href="#IPAexGothic-48"/>
    <use x="660.546875" xlink:href="#IPAexGothic-50"/>
    <use x="723.535156" xlink:href="#IPAexGothic-48"/>
    <use x="786.523438" xlink:href="#IPAexGothic-45"/>
    <use x="822.314453" xlink:href="#IPAexGothic-48"/>
    <use x="885.302734" xlink:href="#IPAexGothic-54"/>
    <use x="948.291016" xlink:href="#IPAexGothic-45"/>
    <use x="984.082031" xlink:href="#IPAexGothic-49"/>
    <use x="1047.070312" xlink:href="#IPAexGothic-57"/>
    <use x="1110.058594" xlink:href="#IPAexGothic-32"/>
    <use x="1137.060547" xlink:href="#IPAexGothic-48"/>
    <use x="1200.048828" xlink:href="#IPAexGothic-53"/>
    <use x="1263.037109" xlink:href="#IPAexGothic-58"/>
    <use x="1295.019531" xlink:href="#IPAexGothic-51"/>
    <use x="1358.007812" xlink:href="#IPAexGothic-55"/>
    <use x="1420.996094" xlink:href="#IPAexGothic-58"/>
    <use x="1452.978516" xlink:href="#IPAexGothic-48"/>
    <use x="1515.966797" xlink:href="#IPAexGothic-50"/>
    <use x="1578.955078" xlink:href="#IPAexGothic-32"/>
    <use x="1605.957031" xlink:href="#IPAexGothic-74"/>
    <use x="1643.945312" xlink:href="#IPAexGothic-83"/>
    <use x="1702.441406" xlink:href="#IPAexGothic-84"/>
   </g>
  </g>
 </g>
 <defs>
  <clipPath id="p14b03c26bb">
   <rect height="266.112" width="357.12" x="45.692188" y="18.146625"/>
  </clipPath>
 </defs>
</svg>
