<?xml version="1.0" encoding="utf-8" standalone="no"?>
<!DOCTYPE svg PUBLIC "-//W3C//DTD SVG 1.1//EN"
  "http://www.w3.org/Graphics/SVG/1.1/DTD/svg11.dtd">
<!-- Created with matplotlib (https://matplotlib.org/) -->
<svg height="320.239875pt" version="1.1" viewBox="0 0 397.415313 320.239875" width="397.415313pt" xmlns="http://www.w3.org/2000/svg" xmlns:xlink="http://www.w3.org/1999/xlink">
 <metadata>
  <rdf:RDF xmlns:cc="http://creativecommons.org/ns#" xmlns:dc="http://purl.org/dc/elements/1.1/" xmlns:rdf="http://www.w3.org/1999/02/22-rdf-syntax-ns#">
   <cc:Work>
    <dc:type rdf:resource="http://purl.org/dc/dcmitype/StillImage"/>
    <dc:date>2020-09-14T15:00:26.428757</dc:date>
    <dc:format>image/svg+xml</dc:format>
    <dc:creator>
     <cc:Agent>
      <dc:title>Matplotlib v3.3.1, https://matplotlib.org/</dc:title>
     </cc:Agent>
    </dc:creator>
   </cc:Work>
  </rdf:RDF>
 </metadata>
 <defs>
  <style type="text/css">*{stroke-linecap:butt;stroke-linejoin:round;}</style>
 </defs>
 <g id="figure_1">
  <g id="patch_1">
   <path d="M 0 320.239875 
L 397.415313 320.239875 
L 397.415313 0 
L 0 0 
z
" style="fill:#ffffff;"/>
  </g>
  <g id="axes_1">
   <g id="patch_2">
    <path d="M 33.095313 284.258625 
L 390.215312 284.258625 
L 390.215312 18.146625 
L 33.095313 18.146625 
z
" style="fill:#ffffff;"/>
   </g>
   <g id="patch_3">
    <path clip-path="url(#pb7a05c448e)" d="M -33.639233 284.258625 
L -31.835597 284.258625 
L -31.835597 283.721676 
L -33.639233 283.721676 
z
" style="fill:#ff7f0e;stroke:#000000;stroke-linejoin:miter;stroke-width:0.5;"/>
   </g>
   <g id="patch_4">
    <path clip-path="url(#pb7a05c448e)" d="M -31.835597 284.258625 
L -30.03196 284.258625 
L -30.03196 283.721676 
L -31.835597 283.721676 
z
" style="fill:#ff7f0e;stroke:#000000;stroke-linejoin:miter;stroke-width:0.5;"/>
   </g>
   <g id="patch_5">
    <path clip-path="url(#pb7a05c448e)" d="M -30.03196 284.258625 
L -28.228324 284.258625 
L -28.228324 284.258625 
L -30.03196 284.258625 
z
" style="fill:#ff7f0e;stroke:#000000;stroke-linejoin:miter;stroke-width:0.5;"/>
   </g>
   <g id="patch_6">
    <path clip-path="url(#pb7a05c448e)" d="M -28.228324 284.258625 
L -26.424688 284.258625 
L -26.424688 284.258625 
L -28.228324 284.258625 
z
" style="fill:#ff7f0e;stroke:#000000;stroke-linejoin:miter;stroke-width:0.5;"/>
   </g>
   <g id="patch_7">
    <path clip-path="url(#pb7a05c448e)" d="M -26.424687 284.258625 
L -24.621051 284.258625 
L -24.621051 284.258625 
L -26.424687 284.258625 
z
" style="fill:#ff7f0e;stroke:#000000;stroke-linejoin:miter;stroke-width:0.5;"/>
   </g>
   <g id="patch_8">
    <path clip-path="url(#pb7a05c448e)" d="M -24.621051 284.258625 
L -22.817415 284.258625 
L -22.817415 284.258625 
L -24.621051 284.258625 
z
" style="fill:#ff7f0e;stroke:#000000;stroke-linejoin:miter;stroke-width:0.5;"/>
   </g>
   <g id="patch_9">
    <path clip-path="url(#pb7a05c448e)" d="M -22.817415 284.258625 
L -21.013778 284.258625 
L -21.013778 283.721676 
L -22.817415 283.721676 
z
" style="fill:#ff7f0e;stroke:#000000;stroke-linejoin:miter;stroke-width:0.5;"/>
   </g>
   <g id="patch_10">
    <path clip-path="url(#pb7a05c448e)" d="M -21.013778 284.258625 
L -19.210142 284.258625 
L -19.210142 284.258625 
L -21.013778 284.258625 
z
" style="fill:#ff7f0e;stroke:#000000;stroke-linejoin:miter;stroke-width:0.5;"/>
   </g>
   <g id="patch_11">
    <path clip-path="url(#pb7a05c448e)" d="M -19.210142 284.258625 
L -17.406506 284.258625 
L -17.406506 284.258625 
L -19.210142 284.258625 
z
" style="fill:#ff7f0e;stroke:#000000;stroke-linejoin:miter;stroke-width:0.5;"/>
   </g>
   <g id="patch_12">
    <path clip-path="url(#pb7a05c448e)" d="M -17.406506 284.258625 
L -15.602869 284.258625 
L -15.602869 284.258625 
L -17.406506 284.258625 
z
" style="fill:#ff7f0e;stroke:#000000;stroke-linejoin:miter;stroke-width:0.5;"/>
   </g>
   <g id="patch_13">
    <path clip-path="url(#pb7a05c448e)" d="M -15.602869 284.258625 
L -13.799233 284.258625 
L -13.799233 284.258625 
L -15.602869 284.258625 
z
" style="fill:#ff7f0e;stroke:#000000;stroke-linejoin:miter;stroke-width:0.5;"/>
   </g>
   <g id="patch_14">
    <path clip-path="url(#pb7a05c448e)" d="M -13.799233 284.258625 
L -11.995597 284.258625 
L -11.995597 284.258625 
L -13.799233 284.258625 
z
" style="fill:#ff7f0e;stroke:#000000;stroke-linejoin:miter;stroke-width:0.5;"/>
   </g>
   <g id="patch_15">
    <path clip-path="url(#pb7a05c448e)" d="M -11.995597 284.258625 
L -10.19196 284.258625 
L -10.19196 284.258625 
L -11.995597 284.258625 
z
" style="fill:#ff7f0e;stroke:#000000;stroke-linejoin:miter;stroke-width:0.5;"/>
   </g>
   <g id="patch_16">
    <path clip-path="url(#pb7a05c448e)" d="M -10.19196 284.258625 
L -8.388324 284.258625 
L -8.388324 284.258625 
L -10.19196 284.258625 
z
" style="fill:#ff7f0e;stroke:#000000;stroke-linejoin:miter;stroke-width:0.5;"/>
   </g>
   <g id="patch_17">
    <path clip-path="url(#pb7a05c448e)" d="M -8.388324 284.258625 
L -6.584687 284.258625 
L -6.584687 284.258625 
L -8.388324 284.258625 
z
" style="fill:#ff7f0e;stroke:#000000;stroke-linejoin:miter;stroke-width:0.5;"/>
   </g>
   <g id="patch_18">
    <path clip-path="url(#pb7a05c448e)" d="M -6.584687 284.258625 
L -4.781051 284.258625 
L -4.781051 284.258625 
L -6.584687 284.258625 
z
" style="fill:#ff7f0e;stroke:#000000;stroke-linejoin:miter;stroke-width:0.5;"/>
   </g>
   <g id="patch_19">
    <path clip-path="url(#pb7a05c448e)" d="M -4.781051 284.258625 
L -2.977415 284.258625 
L -2.977415 284.258625 
L -4.781051 284.258625 
z
" style="fill:#ff7f0e;stroke:#000000;stroke-linejoin:miter;stroke-width:0.5;"/>
   </g>
   <g id="patch_20">
    <path clip-path="url(#pb7a05c448e)" d="M -2.977415 284.258625 
L -1.173778 284.258625 
L -1.173778 284.258625 
L -2.977415 284.258625 
z
" style="fill:#ff7f0e;stroke:#000000;stroke-linejoin:miter;stroke-width:0.5;"/>
   </g>
   <g id="patch_21">
    <path clip-path="url(#pb7a05c448e)" d="M -1.173778 284.258625 
L 0.629858 284.258625 
L 0.629858 284.258625 
L -1.173778 284.258625 
z
" style="fill:#ff7f0e;stroke:#000000;stroke-linejoin:miter;stroke-width:0.5;"/>
   </g>
   <g id="patch_22">
    <path clip-path="url(#pb7a05c448e)" d="M 0.629858 284.258625 
L 2.433494 284.258625 
L 2.433494 284.258625 
L 0.629858 284.258625 
z
" style="fill:#ff7f0e;stroke:#000000;stroke-linejoin:miter;stroke-width:0.5;"/>
   </g>
   <g id="patch_23">
    <path clip-path="url(#pb7a05c448e)" d="M 2.433494 284.258625 
L 4.237131 284.258625 
L 4.237131 283.721676 
L 2.433494 283.721676 
z
" style="fill:#ff7f0e;stroke:#000000;stroke-linejoin:miter;stroke-width:0.5;"/>
   </g>
   <g id="patch_24">
    <path clip-path="url(#pb7a05c448e)" d="M 4.237131 284.258625 
L 6.040767 284.258625 
L 6.040767 283.184727 
L 4.237131 283.184727 
z
" style="fill:#ff7f0e;stroke:#000000;stroke-linejoin:miter;stroke-width:0.5;"/>
   </g>
   <g id="patch_25">
    <path clip-path="url(#pb7a05c448e)" d="M 6.040767 284.258625 
L 7.844403 284.258625 
L 7.844403 279.963032 
L 6.040767 279.963032 
z
" style="fill:#ff7f0e;stroke:#000000;stroke-linejoin:miter;stroke-width:0.5;"/>
   </g>
   <g id="patch_26">
    <path clip-path="url(#pb7a05c448e)" d="M 7.844403 284.258625 
L 9.64804 284.258625 
L 9.64804 281.573879 
L 7.844403 281.573879 
z
" style="fill:#ff7f0e;stroke:#000000;stroke-linejoin:miter;stroke-width:0.5;"/>
   </g>
   <g id="patch_27">
    <path clip-path="url(#pb7a05c448e)" d="M 9.64804 284.258625 
L 11.451676 284.258625 
L 11.451676 284.258625 
L 9.64804 284.258625 
z
" style="fill:#ff7f0e;stroke:#000000;stroke-linejoin:miter;stroke-width:0.5;"/>
   </g>
   <g id="patch_28">
    <path clip-path="url(#pb7a05c448e)" d="M 11.451676 284.258625 
L 13.255312 284.258625 
L 13.255312 282.647778 
L 11.451676 282.647778 
z
" style="fill:#ff7f0e;stroke:#000000;stroke-linejoin:miter;stroke-width:0.5;"/>
   </g>
   <g id="patch_29">
    <path clip-path="url(#pb7a05c448e)" d="M 13.255312 284.258625 
L 15.058949 284.258625 
L 15.058949 282.647778 
L 13.255312 282.647778 
z
" style="fill:#ff7f0e;stroke:#000000;stroke-linejoin:miter;stroke-width:0.5;"/>
   </g>
   <g id="patch_30">
    <path clip-path="url(#pb7a05c448e)" d="M 15.058949 284.258625 
L 16.862585 284.258625 
L 16.862585 284.258625 
L 15.058949 284.258625 
z
" style="fill:#ff7f0e;stroke:#000000;stroke-linejoin:miter;stroke-width:0.5;"/>
   </g>
   <g id="patch_31">
    <path clip-path="url(#pb7a05c448e)" d="M 16.862585 284.258625 
L 18.666222 284.258625 
L 18.666222 282.647778 
L 16.862585 282.647778 
z
" style="fill:#ff7f0e;stroke:#000000;stroke-linejoin:miter;stroke-width:0.5;"/>
   </g>
   <g id="patch_32">
    <path clip-path="url(#pb7a05c448e)" d="M 18.666222 284.258625 
L 20.469858 284.258625 
L 20.469858 283.721676 
L 18.666222 283.721676 
z
" style="fill:#ff7f0e;stroke:#000000;stroke-linejoin:miter;stroke-width:0.5;"/>
   </g>
   <g id="patch_33">
    <path clip-path="url(#pb7a05c448e)" d="M 20.469858 284.258625 
L 22.273494 284.258625 
L 22.273494 284.258625 
L 20.469858 284.258625 
z
" style="fill:#ff7f0e;stroke:#000000;stroke-linejoin:miter;stroke-width:0.5;"/>
   </g>
   <g id="patch_34">
    <path clip-path="url(#pb7a05c448e)" d="M 22.273494 284.258625 
L 24.077131 284.258625 
L 24.077131 282.647778 
L 22.273494 282.647778 
z
" style="fill:#ff7f0e;stroke:#000000;stroke-linejoin:miter;stroke-width:0.5;"/>
   </g>
   <g id="patch_35">
    <path clip-path="url(#pb7a05c448e)" d="M 24.077131 284.258625 
L 25.880767 284.258625 
L 25.880767 284.258625 
L 24.077131 284.258625 
z
" style="fill:#ff7f0e;stroke:#000000;stroke-linejoin:miter;stroke-width:0.5;"/>
   </g>
   <g id="patch_36">
    <path clip-path="url(#pb7a05c448e)" d="M 25.880767 284.258625 
L 27.684403 284.258625 
L 27.684403 282.647778 
L 25.880767 282.647778 
z
" style="fill:#ff7f0e;stroke:#000000;stroke-linejoin:miter;stroke-width:0.5;"/>
   </g>
   <g id="patch_37">
    <path clip-path="url(#pb7a05c448e)" d="M 27.684403 284.258625 
L 29.48804 284.258625 
L 29.48804 283.721676 
L 27.684403 283.721676 
z
" style="fill:#ff7f0e;stroke:#000000;stroke-linejoin:miter;stroke-width:0.5;"/>
   </g>
   <g id="patch_38">
    <path clip-path="url(#pb7a05c448e)" d="M 29.48804 284.258625 
L 31.291676 284.258625 
L 31.291676 284.258625 
L 29.48804 284.258625 
z
" style="fill:#ff7f0e;stroke:#000000;stroke-linejoin:miter;stroke-width:0.5;"/>
   </g>
   <g id="patch_39">
    <path clip-path="url(#pb7a05c448e)" d="M 31.291676 284.258625 
L 33.095313 284.258625 
L 33.095313 283.721676 
L 31.291676 283.721676 
z
" style="fill:#ff7f0e;stroke:#000000;stroke-linejoin:miter;stroke-width:0.5;"/>
   </g>
   <g id="patch_40">
    <path clip-path="url(#pb7a05c448e)" d="M 33.095313 284.258625 
L 34.898949 284.258625 
L 34.898949 283.184727 
L 33.095313 283.184727 
z
" style="fill:#ff7f0e;stroke:#000000;stroke-linejoin:miter;stroke-width:0.5;"/>
   </g>
   <g id="patch_41">
    <path clip-path="url(#pb7a05c448e)" d="M 34.898949 284.258625 
L 36.702585 284.258625 
L 36.702585 284.258625 
L 34.898949 284.258625 
z
" style="fill:#ff7f0e;stroke:#000000;stroke-linejoin:miter;stroke-width:0.5;"/>
   </g>
   <g id="patch_42">
    <path clip-path="url(#pb7a05c448e)" d="M 36.702585 284.258625 
L 38.506222 284.258625 
L 38.506222 283.721676 
L 36.702585 283.721676 
z
" style="fill:#ff7f0e;stroke:#000000;stroke-linejoin:miter;stroke-width:0.5;"/>
   </g>
   <g id="patch_43">
    <path clip-path="url(#pb7a05c448e)" d="M 38.506222 284.258625 
L 40.309858 284.258625 
L 40.309858 282.110828 
L 38.506222 282.110828 
z
" style="fill:#ff7f0e;stroke:#000000;stroke-linejoin:miter;stroke-width:0.5;"/>
   </g>
   <g id="patch_44">
    <path clip-path="url(#pb7a05c448e)" d="M 40.309858 284.258625 
L 42.113494 284.258625 
L 42.113494 279.963032 
L 40.309858 279.963032 
z
" style="fill:#ff7f0e;stroke:#000000;stroke-linejoin:miter;stroke-width:0.5;"/>
   </g>
   <g id="patch_45">
    <path clip-path="url(#pb7a05c448e)" d="M 42.113494 284.258625 
L 43.917131 284.258625 
L 43.917131 281.03693 
L 42.113494 281.03693 
z
" style="fill:#ff7f0e;stroke:#000000;stroke-linejoin:miter;stroke-width:0.5;"/>
   </g>
   <g id="patch_46">
    <path clip-path="url(#pb7a05c448e)" d="M 43.917131 284.258625 
L 45.720767 284.258625 
L 45.720767 281.03693 
L 43.917131 281.03693 
z
" style="fill:#ff7f0e;stroke:#000000;stroke-linejoin:miter;stroke-width:0.5;"/>
   </g>
   <g id="patch_47">
    <path clip-path="url(#pb7a05c448e)" d="M 45.720767 284.258625 
L 47.524403 284.258625 
L 47.524403 284.258625 
L 45.720767 284.258625 
z
" style="fill:#ff7f0e;stroke:#000000;stroke-linejoin:miter;stroke-width:0.5;"/>
   </g>
   <g id="patch_48">
    <path clip-path="url(#pb7a05c448e)" d="M 47.524403 284.258625 
L 49.32804 284.258625 
L 49.32804 284.258625 
L 47.524403 284.258625 
z
" style="fill:#ff7f0e;stroke:#000000;stroke-linejoin:miter;stroke-width:0.5;"/>
   </g>
   <g id="patch_49">
    <path clip-path="url(#pb7a05c448e)" d="M 49.32804 284.258625 
L 51.131676 284.258625 
L 51.131676 282.647778 
L 49.32804 282.647778 
z
" style="fill:#ff7f0e;stroke:#000000;stroke-linejoin:miter;stroke-width:0.5;"/>
   </g>
   <g id="patch_50">
    <path clip-path="url(#pb7a05c448e)" d="M 51.131676 284.258625 
L 52.935312 284.258625 
L 52.935312 281.03693 
L 51.131676 281.03693 
z
" style="fill:#ff7f0e;stroke:#000000;stroke-linejoin:miter;stroke-width:0.5;"/>
   </g>
   <g id="patch_51">
    <path clip-path="url(#pb7a05c448e)" d="M 52.935312 284.258625 
L 54.738949 284.258625 
L 54.738949 283.184727 
L 52.935312 283.184727 
z
" style="fill:#ff7f0e;stroke:#000000;stroke-linejoin:miter;stroke-width:0.5;"/>
   </g>
   <g id="patch_52">
    <path clip-path="url(#pb7a05c448e)" d="M 54.738949 284.258625 
L 56.542585 284.258625 
L 56.542585 283.184727 
L 54.738949 283.184727 
z
" style="fill:#ff7f0e;stroke:#000000;stroke-linejoin:miter;stroke-width:0.5;"/>
   </g>
   <g id="patch_53">
    <path clip-path="url(#pb7a05c448e)" d="M 56.542585 284.258625 
L 58.346222 284.258625 
L 58.346222 278.889133 
L 56.542585 278.889133 
z
" style="fill:#ff7f0e;stroke:#000000;stroke-linejoin:miter;stroke-width:0.5;"/>
   </g>
   <g id="patch_54">
    <path clip-path="url(#pb7a05c448e)" d="M 58.346222 284.258625 
L 60.149858 284.258625 
L 60.149858 282.647778 
L 58.346222 282.647778 
z
" style="fill:#ff7f0e;stroke:#000000;stroke-linejoin:miter;stroke-width:0.5;"/>
   </g>
   <g id="patch_55">
    <path clip-path="url(#pb7a05c448e)" d="M 60.149858 284.258625 
L 61.953494 284.258625 
L 61.953494 284.258625 
L 60.149858 284.258625 
z
" style="fill:#ff7f0e;stroke:#000000;stroke-linejoin:miter;stroke-width:0.5;"/>
   </g>
   <g id="patch_56">
    <path clip-path="url(#pb7a05c448e)" d="M 61.953494 284.258625 
L 63.757131 284.258625 
L 63.757131 277.815235 
L 61.953494 277.815235 
z
" style="fill:#ff7f0e;stroke:#000000;stroke-linejoin:miter;stroke-width:0.5;"/>
   </g>
   <g id="patch_57">
    <path clip-path="url(#pb7a05c448e)" d="M 63.757131 284.258625 
L 65.560767 284.258625 
L 65.560767 279.426083 
L 63.757131 279.426083 
z
" style="fill:#ff7f0e;stroke:#000000;stroke-linejoin:miter;stroke-width:0.5;"/>
   </g>
   <g id="patch_58">
    <path clip-path="url(#pb7a05c448e)" d="M 65.560767 284.258625 
L 67.364403 284.258625 
L 67.364403 280.499981 
L 65.560767 280.499981 
z
" style="fill:#ff7f0e;stroke:#000000;stroke-linejoin:miter;stroke-width:0.5;"/>
   </g>
   <g id="patch_59">
    <path clip-path="url(#pb7a05c448e)" d="M 67.364403 284.258625 
L 69.16804 284.258625 
L 69.16804 278.352184 
L 67.364403 278.352184 
z
" style="fill:#ff7f0e;stroke:#000000;stroke-linejoin:miter;stroke-width:0.5;"/>
   </g>
   <g id="patch_60">
    <path clip-path="url(#pb7a05c448e)" d="M 69.16804 284.258625 
L 70.971676 284.258625 
L 70.971676 280.499981 
L 69.16804 280.499981 
z
" style="fill:#ff7f0e;stroke:#000000;stroke-linejoin:miter;stroke-width:0.5;"/>
   </g>
   <g id="patch_61">
    <path clip-path="url(#pb7a05c448e)" d="M 70.971676 284.258625 
L 72.775313 284.258625 
L 72.775313 282.647778 
L 70.971676 282.647778 
z
" style="fill:#ff7f0e;stroke:#000000;stroke-linejoin:miter;stroke-width:0.5;"/>
   </g>
   <g id="patch_62">
    <path clip-path="url(#pb7a05c448e)" d="M 72.775313 284.258625 
L 74.578949 284.258625 
L 74.578949 275.667439 
L 72.775313 275.667439 
z
" style="fill:#ff7f0e;stroke:#000000;stroke-linejoin:miter;stroke-width:0.5;"/>
   </g>
   <g id="patch_63">
    <path clip-path="url(#pb7a05c448e)" d="M 74.578949 284.258625 
L 76.382585 284.258625 
L 76.382585 274.59354 
L 74.578949 274.59354 
z
" style="fill:#ff7f0e;stroke:#000000;stroke-linejoin:miter;stroke-width:0.5;"/>
   </g>
   <g id="patch_64">
    <path clip-path="url(#pb7a05c448e)" d="M 76.382585 284.258625 
L 78.186222 284.258625 
L 78.186222 262.24371 
L 76.382585 262.24371 
z
" style="fill:#ff7f0e;stroke:#000000;stroke-linejoin:miter;stroke-width:0.5;"/>
   </g>
   <g id="patch_65">
    <path clip-path="url(#pb7a05c448e)" d="M 78.186222 284.258625 
L 79.989858 284.258625 
L 79.989858 259.558964 
L 78.186222 259.558964 
z
" style="fill:#ff7f0e;stroke:#000000;stroke-linejoin:miter;stroke-width:0.5;"/>
   </g>
   <g id="patch_66">
    <path clip-path="url(#pb7a05c448e)" d="M 79.989858 284.258625 
L 81.793494 284.258625 
L 81.793494 262.780659 
L 79.989858 262.780659 
z
" style="fill:#ff7f0e;stroke:#000000;stroke-linejoin:miter;stroke-width:0.5;"/>
   </g>
   <g id="patch_67">
    <path clip-path="url(#pb7a05c448e)" d="M 81.793494 284.258625 
L 83.597131 284.258625 
L 83.597131 249.893879 
L 81.793494 249.893879 
z
" style="fill:#ff7f0e;stroke:#000000;stroke-linejoin:miter;stroke-width:0.5;"/>
   </g>
   <g id="patch_68">
    <path clip-path="url(#pb7a05c448e)" d="M 83.597131 284.258625 
L 85.400767 284.258625 
L 85.400767 245.598286 
L 83.597131 245.598286 
z
" style="fill:#ff7f0e;stroke:#000000;stroke-linejoin:miter;stroke-width:0.5;"/>
   </g>
   <g id="patch_69">
    <path clip-path="url(#pb7a05c448e)" d="M 85.400767 284.258625 
L 87.204403 284.258625 
L 87.204403 277.815235 
L 85.400767 277.815235 
z
" style="fill:#ff7f0e;stroke:#000000;stroke-linejoin:miter;stroke-width:0.5;"/>
   </g>
   <g id="patch_70">
    <path clip-path="url(#pb7a05c448e)" d="M 87.204403 284.258625 
L 89.00804 284.258625 
L 89.00804 242.376591 
L 87.204403 242.376591 
z
" style="fill:#ff7f0e;stroke:#000000;stroke-linejoin:miter;stroke-width:0.5;"/>
   </g>
   <g id="patch_71">
    <path clip-path="url(#pb7a05c448e)" d="M 89.00804 284.258625 
L 90.811676 284.258625 
L 90.811676 248.283032 
L 89.00804 248.283032 
z
" style="fill:#ff7f0e;stroke:#000000;stroke-linejoin:miter;stroke-width:0.5;"/>
   </g>
   <g id="patch_72">
    <path clip-path="url(#pb7a05c448e)" d="M 90.811676 284.258625 
L 92.615312 284.258625 
L 92.615312 231.637608 
L 90.811676 231.637608 
z
" style="fill:#ff7f0e;stroke:#000000;stroke-linejoin:miter;stroke-width:0.5;"/>
   </g>
   <g id="patch_73">
    <path clip-path="url(#pb7a05c448e)" d="M 92.615312 284.258625 
L 94.418949 284.258625 
L 94.418949 234.859303 
L 92.615312 234.859303 
z
" style="fill:#ff7f0e;stroke:#000000;stroke-linejoin:miter;stroke-width:0.5;"/>
   </g>
   <g id="patch_74">
    <path clip-path="url(#pb7a05c448e)" d="M 94.418949 284.258625 
L 96.222585 284.258625 
L 96.222585 220.898625 
L 94.418949 220.898625 
z
" style="fill:#ff7f0e;stroke:#000000;stroke-linejoin:miter;stroke-width:0.5;"/>
   </g>
   <g id="patch_75">
    <path clip-path="url(#pb7a05c448e)" d="M 96.222585 284.258625 
L 98.026222 284.258625 
L 98.026222 208.548794 
L 96.222585 208.548794 
z
" style="fill:#ff7f0e;stroke:#000000;stroke-linejoin:miter;stroke-width:0.5;"/>
   </g>
   <g id="patch_76">
    <path clip-path="url(#pb7a05c448e)" d="M 98.026222 284.258625 
L 99.829858 284.258625 
L 99.829858 238.617947 
L 98.026222 238.617947 
z
" style="fill:#ff7f0e;stroke:#000000;stroke-linejoin:miter;stroke-width:0.5;"/>
   </g>
   <g id="patch_77">
    <path clip-path="url(#pb7a05c448e)" d="M 99.829858 284.258625 
L 101.633494 284.258625 
L 101.633494 237.544049 
L 99.829858 237.544049 
z
" style="fill:#ff7f0e;stroke:#000000;stroke-linejoin:miter;stroke-width:0.5;"/>
   </g>
   <g id="patch_78">
    <path clip-path="url(#pb7a05c448e)" d="M 101.633494 284.258625 
L 103.437131 284.258625 
L 103.437131 200.494557 
L 101.633494 200.494557 
z
" style="fill:#ff7f0e;stroke:#000000;stroke-linejoin:miter;stroke-width:0.5;"/>
   </g>
   <g id="patch_79">
    <path clip-path="url(#pb7a05c448e)" d="M 103.437131 284.258625 
L 105.240767 284.258625 
L 105.240767 185.99693 
L 103.437131 185.99693 
z
" style="fill:#ff7f0e;stroke:#000000;stroke-linejoin:miter;stroke-width:0.5;"/>
   </g>
   <g id="patch_80">
    <path clip-path="url(#pb7a05c448e)" d="M 105.240767 284.258625 
L 107.044403 284.258625 
L 107.044403 177.405744 
L 105.240767 177.405744 
z
" style="fill:#ff7f0e;stroke:#000000;stroke-linejoin:miter;stroke-width:0.5;"/>
   </g>
   <g id="patch_81">
    <path clip-path="url(#pb7a05c448e)" d="M 107.044403 284.258625 
L 108.84804 284.258625 
L 108.84804 177.942693 
L 107.044403 177.942693 
z
" style="fill:#ff7f0e;stroke:#000000;stroke-linejoin:miter;stroke-width:0.5;"/>
   </g>
   <g id="patch_82">
    <path clip-path="url(#pb7a05c448e)" d="M 108.84804 284.258625 
L 110.651676 284.258625 
L 110.651676 190.829472 
L 108.84804 190.829472 
z
" style="fill:#ff7f0e;stroke:#000000;stroke-linejoin:miter;stroke-width:0.5;"/>
   </g>
   <g id="patch_83">
    <path clip-path="url(#pb7a05c448e)" d="M 110.651676 284.258625 
L 112.455313 284.258625 
L 112.455313 230.56371 
L 110.651676 230.56371 
z
" style="fill:#ff7f0e;stroke:#000000;stroke-linejoin:miter;stroke-width:0.5;"/>
   </g>
   <g id="patch_84">
    <path clip-path="url(#pb7a05c448e)" d="M 112.455313 284.258625 
L 114.258949 284.258625 
L 114.258949 198.88371 
L 112.455313 198.88371 
z
" style="fill:#ff7f0e;stroke:#000000;stroke-linejoin:miter;stroke-width:0.5;"/>
   </g>
   <g id="patch_85">
    <path clip-path="url(#pb7a05c448e)" d="M 114.258949 284.258625 
L 116.062585 284.258625 
L 116.062585 216.066083 
L 114.258949 216.066083 
z
" style="fill:#ff7f0e;stroke:#000000;stroke-linejoin:miter;stroke-width:0.5;"/>
   </g>
   <g id="patch_86">
    <path clip-path="url(#pb7a05c448e)" d="M 116.062585 284.258625 
L 117.866222 284.258625 
L 117.866222 203.179303 
L 116.062585 203.179303 
z
" style="fill:#ff7f0e;stroke:#000000;stroke-linejoin:miter;stroke-width:0.5;"/>
   </g>
   <g id="patch_87">
    <path clip-path="url(#pb7a05c448e)" d="M 117.866222 284.258625 
L 119.669858 284.258625 
L 119.669858 173.6471 
L 117.866222 173.6471 
z
" style="fill:#ff7f0e;stroke:#000000;stroke-linejoin:miter;stroke-width:0.5;"/>
   </g>
   <g id="patch_88">
    <path clip-path="url(#pb7a05c448e)" d="M 119.669858 284.258625 
L 121.473494 284.258625 
L 121.473494 184.386083 
L 119.669858 184.386083 
z
" style="fill:#ff7f0e;stroke:#000000;stroke-linejoin:miter;stroke-width:0.5;"/>
   </g>
   <g id="patch_89">
    <path clip-path="url(#pb7a05c448e)" d="M 121.473494 284.258625 
L 123.277131 284.258625 
L 123.277131 225.731167 
L 121.473494 225.731167 
z
" style="fill:#ff7f0e;stroke:#000000;stroke-linejoin:miter;stroke-width:0.5;"/>
   </g>
   <g id="patch_90">
    <path clip-path="url(#pb7a05c448e)" d="M 123.277131 284.258625 
L 125.080767 284.258625 
L 125.080767 230.026761 
L 123.277131 230.026761 
z
" style="fill:#ff7f0e;stroke:#000000;stroke-linejoin:miter;stroke-width:0.5;"/>
   </g>
   <g id="patch_91">
    <path clip-path="url(#pb7a05c448e)" d="M 125.080767 284.258625 
L 126.884403 284.258625 
L 126.884403 218.213879 
L 125.080767 218.213879 
z
" style="fill:#ff7f0e;stroke:#000000;stroke-linejoin:miter;stroke-width:0.5;"/>
   </g>
   <g id="patch_92">
    <path clip-path="url(#pb7a05c448e)" d="M 126.884403 284.258625 
L 128.68804 284.258625 
L 128.68804 218.213879 
L 126.884403 218.213879 
z
" style="fill:#ff7f0e;stroke:#000000;stroke-linejoin:miter;stroke-width:0.5;"/>
   </g>
   <g id="patch_93">
    <path clip-path="url(#pb7a05c448e)" d="M 128.68804 284.258625 
L 130.491676 284.258625 
L 130.491676 212.307439 
L 128.68804 212.307439 
z
" style="fill:#ff7f0e;stroke:#000000;stroke-linejoin:miter;stroke-width:0.5;"/>
   </g>
   <g id="patch_94">
    <path clip-path="url(#pb7a05c448e)" d="M 130.491676 284.258625 
L 132.295313 284.258625 
L 132.295313 192.977269 
L 130.491676 192.977269 
z
" style="fill:#ff7f0e;stroke:#000000;stroke-linejoin:miter;stroke-width:0.5;"/>
   </g>
   <g id="patch_95">
    <path clip-path="url(#pb7a05c448e)" d="M 132.295312 284.258625 
L 134.098949 284.258625 
L 134.098949 220.361676 
L 132.295312 220.361676 
z
" style="fill:#ff7f0e;stroke:#000000;stroke-linejoin:miter;stroke-width:0.5;"/>
   </g>
   <g id="patch_96">
    <path clip-path="url(#pb7a05c448e)" d="M 134.098949 284.258625 
L 135.902585 284.258625 
L 135.902585 240.228794 
L 134.098949 240.228794 
z
" style="fill:#ff7f0e;stroke:#000000;stroke-linejoin:miter;stroke-width:0.5;"/>
   </g>
   <g id="patch_97">
    <path clip-path="url(#pb7a05c448e)" d="M 135.902585 284.258625 
L 137.706222 284.258625 
L 137.706222 262.24371 
L 135.902585 262.24371 
z
" style="fill:#ff7f0e;stroke:#000000;stroke-linejoin:miter;stroke-width:0.5;"/>
   </g>
   <g id="patch_98">
    <path clip-path="url(#pb7a05c448e)" d="M 137.706222 284.258625 
L 139.509858 284.258625 
L 139.509858 223.583371 
L 137.706222 223.583371 
z
" style="fill:#ff7f0e;stroke:#000000;stroke-linejoin:miter;stroke-width:0.5;"/>
   </g>
   <g id="patch_99">
    <path clip-path="url(#pb7a05c448e)" d="M 139.509858 284.258625 
L 141.313494 284.258625 
L 141.313494 259.022015 
L 139.509858 259.022015 
z
" style="fill:#ff7f0e;stroke:#000000;stroke-linejoin:miter;stroke-width:0.5;"/>
   </g>
   <g id="patch_100">
    <path clip-path="url(#pb7a05c448e)" d="M 141.313494 284.258625 
L 143.117131 284.258625 
L 143.117131 252.578625 
L 141.313494 252.578625 
z
" style="fill:#ff7f0e;stroke:#000000;stroke-linejoin:miter;stroke-width:0.5;"/>
   </g>
   <g id="patch_101">
    <path clip-path="url(#pb7a05c448e)" d="M 143.117131 284.258625 
L 144.920767 284.258625 
L 144.920767 195.662015 
L 143.117131 195.662015 
z
" style="fill:#ff7f0e;stroke:#000000;stroke-linejoin:miter;stroke-width:0.5;"/>
   </g>
   <g id="patch_102">
    <path clip-path="url(#pb7a05c448e)" d="M 144.920767 284.258625 
L 146.724403 284.258625 
L 146.724403 201.568456 
L 144.920767 201.568456 
z
" style="fill:#ff7f0e;stroke:#000000;stroke-linejoin:miter;stroke-width:0.5;"/>
   </g>
   <g id="patch_103">
    <path clip-path="url(#pb7a05c448e)" d="M 146.724403 284.258625 
L 148.52804 284.258625 
L 148.52804 234.322354 
L 146.724403 234.322354 
z
" style="fill:#ff7f0e;stroke:#000000;stroke-linejoin:miter;stroke-width:0.5;"/>
   </g>
   <g id="patch_104">
    <path clip-path="url(#pb7a05c448e)" d="M 148.52804 284.258625 
L 150.331676 284.258625 
L 150.331676 237.544049 
L 148.52804 237.544049 
z
" style="fill:#ff7f0e;stroke:#000000;stroke-linejoin:miter;stroke-width:0.5;"/>
   </g>
   <g id="patch_105">
    <path clip-path="url(#pb7a05c448e)" d="M 150.331676 284.258625 
L 152.135313 284.258625 
L 152.135313 253.652523 
L 150.331676 253.652523 
z
" style="fill:#ff7f0e;stroke:#000000;stroke-linejoin:miter;stroke-width:0.5;"/>
   </g>
   <g id="patch_106">
    <path clip-path="url(#pb7a05c448e)" d="M 152.135313 284.258625 
L 153.938949 284.258625 
L 153.938949 264.391506 
L 152.135313 264.391506 
z
" style="fill:#ff7f0e;stroke:#000000;stroke-linejoin:miter;stroke-width:0.5;"/>
   </g>
   <g id="patch_107">
    <path clip-path="url(#pb7a05c448e)" d="M 153.938949 284.258625 
L 155.742585 284.258625 
L 155.742585 271.908794 
L 153.938949 271.908794 
z
" style="fill:#ff7f0e;stroke:#000000;stroke-linejoin:miter;stroke-width:0.5;"/>
   </g>
   <g id="patch_108">
    <path clip-path="url(#pb7a05c448e)" d="M 155.742585 284.258625 
L 157.546222 284.258625 
L 157.546222 263.317608 
L 155.742585 263.317608 
z
" style="fill:#ff7f0e;stroke:#000000;stroke-linejoin:miter;stroke-width:0.5;"/>
   </g>
   <g id="patch_109">
    <path clip-path="url(#pb7a05c448e)" d="M 157.546222 284.258625 
L 159.349858 284.258625 
L 159.349858 264.928456 
L 157.546222 264.928456 
z
" style="fill:#ff7f0e;stroke:#000000;stroke-linejoin:miter;stroke-width:0.5;"/>
   </g>
   <g id="patch_110">
    <path clip-path="url(#pb7a05c448e)" d="M 159.349858 284.258625 
L 161.153494 284.258625 
L 161.153494 272.445744 
L 159.349858 272.445744 
z
" style="fill:#ff7f0e;stroke:#000000;stroke-linejoin:miter;stroke-width:0.5;"/>
   </g>
   <g id="patch_111">
    <path clip-path="url(#pb7a05c448e)" d="M 161.153494 284.258625 
L 162.957131 284.258625 
L 162.957131 276.204388 
L 161.153494 276.204388 
z
" style="fill:#ff7f0e;stroke:#000000;stroke-linejoin:miter;stroke-width:0.5;"/>
   </g>
   <g id="patch_112">
    <path clip-path="url(#pb7a05c448e)" d="M 162.957131 284.258625 
L 164.760767 284.258625 
L 164.760767 269.760998 
L 162.957131 269.760998 
z
" style="fill:#ff7f0e;stroke:#000000;stroke-linejoin:miter;stroke-width:0.5;"/>
   </g>
   <g id="patch_113">
    <path clip-path="url(#pb7a05c448e)" d="M 164.760767 284.258625 
L 166.564403 284.258625 
L 166.564403 278.889133 
L 164.760767 278.889133 
z
" style="fill:#ff7f0e;stroke:#000000;stroke-linejoin:miter;stroke-width:0.5;"/>
   </g>
   <g id="patch_114">
    <path clip-path="url(#pb7a05c448e)" d="M 166.564403 284.258625 
L 168.36804 284.258625 
L 168.36804 268.15015 
L 166.564403 268.15015 
z
" style="fill:#ff7f0e;stroke:#000000;stroke-linejoin:miter;stroke-width:0.5;"/>
   </g>
   <g id="patch_115">
    <path clip-path="url(#pb7a05c448e)" d="M 168.36804 284.258625 
L 170.171676 284.258625 
L 170.171676 279.426083 
L 168.36804 279.426083 
z
" style="fill:#ff7f0e;stroke:#000000;stroke-linejoin:miter;stroke-width:0.5;"/>
   </g>
   <g id="patch_116">
    <path clip-path="url(#pb7a05c448e)" d="M 170.171676 284.258625 
L 171.975313 284.258625 
L 171.975313 276.741337 
L 170.171676 276.741337 
z
" style="fill:#ff7f0e;stroke:#000000;stroke-linejoin:miter;stroke-width:0.5;"/>
   </g>
   <g id="patch_117">
    <path clip-path="url(#pb7a05c448e)" d="M 171.975312 284.258625 
L 173.778949 284.258625 
L 173.778949 281.573879 
L 171.975312 281.573879 
z
" style="fill:#ff7f0e;stroke:#000000;stroke-linejoin:miter;stroke-width:0.5;"/>
   </g>
   <g id="patch_118">
    <path clip-path="url(#pb7a05c448e)" d="M 173.778949 284.258625 
L 175.582585 284.258625 
L 175.582585 278.889133 
L 173.778949 278.889133 
z
" style="fill:#ff7f0e;stroke:#000000;stroke-linejoin:miter;stroke-width:0.5;"/>
   </g>
   <g id="patch_119">
    <path clip-path="url(#pb7a05c448e)" d="M 175.582585 284.258625 
L 177.386222 284.258625 
L 177.386222 281.573879 
L 175.582585 281.573879 
z
" style="fill:#ff7f0e;stroke:#000000;stroke-linejoin:miter;stroke-width:0.5;"/>
   </g>
   <g id="patch_120">
    <path clip-path="url(#pb7a05c448e)" d="M 177.386222 284.258625 
L 179.189858 284.258625 
L 179.189858 281.573879 
L 177.386222 281.573879 
z
" style="fill:#ff7f0e;stroke:#000000;stroke-linejoin:miter;stroke-width:0.5;"/>
   </g>
   <g id="patch_121">
    <path clip-path="url(#pb7a05c448e)" d="M 179.189858 284.258625 
L 180.993494 284.258625 
L 180.993494 278.352184 
L 179.189858 278.352184 
z
" style="fill:#ff7f0e;stroke:#000000;stroke-linejoin:miter;stroke-width:0.5;"/>
   </g>
   <g id="patch_122">
    <path clip-path="url(#pb7a05c448e)" d="M 180.993494 284.258625 
L 182.797131 284.258625 
L 182.797131 282.647778 
L 180.993494 282.647778 
z
" style="fill:#ff7f0e;stroke:#000000;stroke-linejoin:miter;stroke-width:0.5;"/>
   </g>
   <g id="patch_123">
    <path clip-path="url(#pb7a05c448e)" d="M 182.797131 284.258625 
L 184.600767 284.258625 
L 184.600767 283.184727 
L 182.797131 283.184727 
z
" style="fill:#ff7f0e;stroke:#000000;stroke-linejoin:miter;stroke-width:0.5;"/>
   </g>
   <g id="patch_124">
    <path clip-path="url(#pb7a05c448e)" d="M 184.600767 284.258625 
L 186.404403 284.258625 
L 186.404403 276.741337 
L 184.600767 276.741337 
z
" style="fill:#ff7f0e;stroke:#000000;stroke-linejoin:miter;stroke-width:0.5;"/>
   </g>
   <g id="patch_125">
    <path clip-path="url(#pb7a05c448e)" d="M 186.404403 284.258625 
L 188.20804 284.258625 
L 188.20804 279.963032 
L 186.404403 279.963032 
z
" style="fill:#ff7f0e;stroke:#000000;stroke-linejoin:miter;stroke-width:0.5;"/>
   </g>
   <g id="patch_126">
    <path clip-path="url(#pb7a05c448e)" d="M 188.20804 284.258625 
L 190.011676 284.258625 
L 190.011676 278.889133 
L 188.20804 278.889133 
z
" style="fill:#ff7f0e;stroke:#000000;stroke-linejoin:miter;stroke-width:0.5;"/>
   </g>
   <g id="patch_127">
    <path clip-path="url(#pb7a05c448e)" d="M 190.011676 284.258625 
L 191.815313 284.258625 
L 191.815313 278.352184 
L 190.011676 278.352184 
z
" style="fill:#ff7f0e;stroke:#000000;stroke-linejoin:miter;stroke-width:0.5;"/>
   </g>
   <g id="patch_128">
    <path clip-path="url(#pb7a05c448e)" d="M 191.815313 284.258625 
L 193.618949 284.258625 
L 193.618949 276.204388 
L 191.815313 276.204388 
z
" style="fill:#ff7f0e;stroke:#000000;stroke-linejoin:miter;stroke-width:0.5;"/>
   </g>
   <g id="patch_129">
    <path clip-path="url(#pb7a05c448e)" d="M 193.618949 284.258625 
L 195.422585 284.258625 
L 195.422585 272.982693 
L 193.618949 272.982693 
z
" style="fill:#ff7f0e;stroke:#000000;stroke-linejoin:miter;stroke-width:0.5;"/>
   </g>
   <g id="patch_130">
    <path clip-path="url(#pb7a05c448e)" d="M 195.422585 284.258625 
L 197.226222 284.258625 
L 197.226222 276.741337 
L 195.422585 276.741337 
z
" style="fill:#ff7f0e;stroke:#000000;stroke-linejoin:miter;stroke-width:0.5;"/>
   </g>
   <g id="patch_131">
    <path clip-path="url(#pb7a05c448e)" d="M 197.226222 284.258625 
L 199.029858 284.258625 
L 199.029858 281.573879 
L 197.226222 281.573879 
z
" style="fill:#ff7f0e;stroke:#000000;stroke-linejoin:miter;stroke-width:0.5;"/>
   </g>
   <g id="patch_132">
    <path clip-path="url(#pb7a05c448e)" d="M 199.029858 284.258625 
L 200.833494 284.258625 
L 200.833494 277.278286 
L 199.029858 277.278286 
z
" style="fill:#ff7f0e;stroke:#000000;stroke-linejoin:miter;stroke-width:0.5;"/>
   </g>
   <g id="patch_133">
    <path clip-path="url(#pb7a05c448e)" d="M 200.833494 284.258625 
L 202.637131 284.258625 
L 202.637131 266.002354 
L 200.833494 266.002354 
z
" style="fill:#ff7f0e;stroke:#000000;stroke-linejoin:miter;stroke-width:0.5;"/>
   </g>
   <g id="patch_134">
    <path clip-path="url(#pb7a05c448e)" d="M 202.637131 284.258625 
L 204.440767 284.258625 
L 204.440767 277.815235 
L 202.637131 277.815235 
z
" style="fill:#ff7f0e;stroke:#000000;stroke-linejoin:miter;stroke-width:0.5;"/>
   </g>
   <g id="patch_135">
    <path clip-path="url(#pb7a05c448e)" d="M 204.440767 284.258625 
L 206.244403 284.258625 
L 206.244403 269.224049 
L 204.440767 269.224049 
z
" style="fill:#ff7f0e;stroke:#000000;stroke-linejoin:miter;stroke-width:0.5;"/>
   </g>
   <g id="patch_136">
    <path clip-path="url(#pb7a05c448e)" d="M 206.244403 284.258625 
L 208.04804 284.258625 
L 208.04804 273.519642 
L 206.244403 273.519642 
z
" style="fill:#ff7f0e;stroke:#000000;stroke-linejoin:miter;stroke-width:0.5;"/>
   </g>
   <g id="patch_137">
    <path clip-path="url(#pb7a05c448e)" d="M 208.04804 284.258625 
L 209.851676 284.258625 
L 209.851676 270.297947 
L 208.04804 270.297947 
z
" style="fill:#ff7f0e;stroke:#000000;stroke-linejoin:miter;stroke-width:0.5;"/>
   </g>
   <g id="patch_138">
    <path clip-path="url(#pb7a05c448e)" d="M 209.851676 284.258625 
L 211.655313 284.258625 
L 211.655313 276.741337 
L 209.851676 276.741337 
z
" style="fill:#ff7f0e;stroke:#000000;stroke-linejoin:miter;stroke-width:0.5;"/>
   </g>
   <g id="patch_139">
    <path clip-path="url(#pb7a05c448e)" d="M 211.655312 284.258625 
L 213.458949 284.258625 
L 213.458949 277.278286 
L 211.655312 277.278286 
z
" style="fill:#ff7f0e;stroke:#000000;stroke-linejoin:miter;stroke-width:0.5;"/>
   </g>
   <g id="patch_140">
    <path clip-path="url(#pb7a05c448e)" d="M 213.458949 284.258625 
L 215.262585 284.258625 
L 215.262585 277.815235 
L 213.458949 277.815235 
z
" style="fill:#ff7f0e;stroke:#000000;stroke-linejoin:miter;stroke-width:0.5;"/>
   </g>
   <g id="patch_141">
    <path clip-path="url(#pb7a05c448e)" d="M 215.262585 284.258625 
L 217.066222 284.258625 
L 217.066222 274.59354 
L 215.262585 274.59354 
z
" style="fill:#ff7f0e;stroke:#000000;stroke-linejoin:miter;stroke-width:0.5;"/>
   </g>
   <g id="patch_142">
    <path clip-path="url(#pb7a05c448e)" d="M 217.066222 284.258625 
L 218.869858 284.258625 
L 218.869858 272.445744 
L 217.066222 272.445744 
z
" style="fill:#ff7f0e;stroke:#000000;stroke-linejoin:miter;stroke-width:0.5;"/>
   </g>
   <g id="patch_143">
    <path clip-path="url(#pb7a05c448e)" d="M 218.869858 284.258625 
L 220.673494 284.258625 
L 220.673494 270.834896 
L 218.869858 270.834896 
z
" style="fill:#ff7f0e;stroke:#000000;stroke-linejoin:miter;stroke-width:0.5;"/>
   </g>
   <g id="patch_144">
    <path clip-path="url(#pb7a05c448e)" d="M 220.673494 284.258625 
L 222.477131 284.258625 
L 222.477131 271.371845 
L 220.673494 271.371845 
z
" style="fill:#ff7f0e;stroke:#000000;stroke-linejoin:miter;stroke-width:0.5;"/>
   </g>
   <g id="patch_145">
    <path clip-path="url(#pb7a05c448e)" d="M 222.477131 284.258625 
L 224.280767 284.258625 
L 224.280767 259.022015 
L 222.477131 259.022015 
z
" style="fill:#ff7f0e;stroke:#000000;stroke-linejoin:miter;stroke-width:0.5;"/>
   </g>
   <g id="patch_146">
    <path clip-path="url(#pb7a05c448e)" d="M 224.280767 284.258625 
L 226.084403 284.258625 
L 226.084403 258.485066 
L 224.280767 258.485066 
z
" style="fill:#ff7f0e;stroke:#000000;stroke-linejoin:miter;stroke-width:0.5;"/>
   </g>
   <g id="patch_147">
    <path clip-path="url(#pb7a05c448e)" d="M 226.084403 284.258625 
L 227.88804 284.258625 
L 227.88804 269.760998 
L 226.084403 269.760998 
z
" style="fill:#ff7f0e;stroke:#000000;stroke-linejoin:miter;stroke-width:0.5;"/>
   </g>
   <g id="patch_148">
    <path clip-path="url(#pb7a05c448e)" d="M 227.88804 284.258625 
L 229.691676 284.258625 
L 229.691676 275.667439 
L 227.88804 275.667439 
z
" style="fill:#ff7f0e;stroke:#000000;stroke-linejoin:miter;stroke-width:0.5;"/>
   </g>
   <g id="patch_149">
    <path clip-path="url(#pb7a05c448e)" d="M 229.691676 284.258625 
L 231.495313 284.258625 
L 231.495313 262.24371 
L 229.691676 262.24371 
z
" style="fill:#ff7f0e;stroke:#000000;stroke-linejoin:miter;stroke-width:0.5;"/>
   </g>
   <g id="patch_150">
    <path clip-path="url(#pb7a05c448e)" d="M 231.495313 284.258625 
L 233.298949 284.258625 
L 233.298949 265.465405 
L 231.495313 265.465405 
z
" style="fill:#ff7f0e;stroke:#000000;stroke-linejoin:miter;stroke-width:0.5;"/>
   </g>
   <g id="patch_151">
    <path clip-path="url(#pb7a05c448e)" d="M 233.298949 284.258625 
L 235.102585 284.258625 
L 235.102585 263.317608 
L 233.298949 263.317608 
z
" style="fill:#ff7f0e;stroke:#000000;stroke-linejoin:miter;stroke-width:0.5;"/>
   </g>
   <g id="patch_152">
    <path clip-path="url(#pb7a05c448e)" d="M 235.102585 284.258625 
L 236.906222 284.258625 
L 236.906222 265.465405 
L 235.102585 265.465405 
z
" style="fill:#ff7f0e;stroke:#000000;stroke-linejoin:miter;stroke-width:0.5;"/>
   </g>
   <g id="patch_153">
    <path clip-path="url(#pb7a05c448e)" d="M 236.906222 284.258625 
L 238.709858 284.258625 
L 238.709858 268.6871 
L 236.906222 268.6871 
z
" style="fill:#ff7f0e;stroke:#000000;stroke-linejoin:miter;stroke-width:0.5;"/>
   </g>
   <g id="patch_154">
    <path clip-path="url(#pb7a05c448e)" d="M 238.709858 284.258625 
L 240.513494 284.258625 
L 240.513494 267.613201 
L 238.709858 267.613201 
z
" style="fill:#ff7f0e;stroke:#000000;stroke-linejoin:miter;stroke-width:0.5;"/>
   </g>
   <g id="patch_155">
    <path clip-path="url(#pb7a05c448e)" d="M 240.513494 284.258625 
L 242.317131 284.258625 
L 242.317131 254.726422 
L 240.513494 254.726422 
z
" style="fill:#ff7f0e;stroke:#000000;stroke-linejoin:miter;stroke-width:0.5;"/>
   </g>
   <g id="patch_156">
    <path clip-path="url(#pb7a05c448e)" d="M 242.317131 284.258625 
L 244.120767 284.258625 
L 244.120767 258.485066 
L 242.317131 258.485066 
z
" style="fill:#ff7f0e;stroke:#000000;stroke-linejoin:miter;stroke-width:0.5;"/>
   </g>
   <g id="patch_157">
    <path clip-path="url(#pb7a05c448e)" d="M 244.120767 284.258625 
L 245.924403 284.258625 
L 245.924403 255.263371 
L 244.120767 255.263371 
z
" style="fill:#ff7f0e;stroke:#000000;stroke-linejoin:miter;stroke-width:0.5;"/>
   </g>
   <g id="patch_158">
    <path clip-path="url(#pb7a05c448e)" d="M 245.924403 284.258625 
L 247.72804 284.258625 
L 247.72804 253.652523 
L 245.924403 253.652523 
z
" style="fill:#ff7f0e;stroke:#000000;stroke-linejoin:miter;stroke-width:0.5;"/>
   </g>
   <g id="patch_159">
    <path clip-path="url(#pb7a05c448e)" d="M 247.72804 284.258625 
L 249.531676 284.258625 
L 249.531676 252.041676 
L 247.72804 252.041676 
z
" style="fill:#ff7f0e;stroke:#000000;stroke-linejoin:miter;stroke-width:0.5;"/>
   </g>
   <g id="patch_160">
    <path clip-path="url(#pb7a05c448e)" d="M 249.531676 284.258625 
L 251.335313 284.258625 
L 251.335313 253.115574 
L 249.531676 253.115574 
z
" style="fill:#ff7f0e;stroke:#000000;stroke-linejoin:miter;stroke-width:0.5;"/>
   </g>
   <g id="patch_161">
    <path clip-path="url(#pb7a05c448e)" d="M 251.335312 284.258625 
L 253.138949 284.258625 
L 253.138949 255.263371 
L 251.335312 255.263371 
z
" style="fill:#ff7f0e;stroke:#000000;stroke-linejoin:miter;stroke-width:0.5;"/>
   </g>
   <g id="patch_162">
    <path clip-path="url(#pb7a05c448e)" d="M 253.138949 284.258625 
L 254.942585 284.258625 
L 254.942585 248.283032 
L 253.138949 248.283032 
z
" style="fill:#ff7f0e;stroke:#000000;stroke-linejoin:miter;stroke-width:0.5;"/>
   </g>
   <g id="patch_163">
    <path clip-path="url(#pb7a05c448e)" d="M 254.942585 284.258625 
L 256.746222 284.258625 
L 256.746222 226.805066 
L 254.942585 226.805066 
z
" style="fill:#ff7f0e;stroke:#000000;stroke-linejoin:miter;stroke-width:0.5;"/>
   </g>
   <g id="patch_164">
    <path clip-path="url(#pb7a05c448e)" d="M 256.746222 284.258625 
L 258.549858 284.258625 
L 258.549858 217.67693 
L 256.746222 217.67693 
z
" style="fill:#ff7f0e;stroke:#000000;stroke-linejoin:miter;stroke-width:0.5;"/>
   </g>
   <g id="patch_165">
    <path clip-path="url(#pb7a05c448e)" d="M 258.549858 284.258625 
L 260.353494 284.258625 
L 260.353494 213.918286 
L 258.549858 213.918286 
z
" style="fill:#ff7f0e;stroke:#000000;stroke-linejoin:miter;stroke-width:0.5;"/>
   </g>
   <g id="patch_166">
    <path clip-path="url(#pb7a05c448e)" d="M 260.353494 284.258625 
L 262.157131 284.258625 
L 262.157131 224.657269 
L 260.353494 224.657269 
z
" style="fill:#ff7f0e;stroke:#000000;stroke-linejoin:miter;stroke-width:0.5;"/>
   </g>
   <g id="patch_167">
    <path clip-path="url(#pb7a05c448e)" d="M 262.157131 284.258625 
L 263.960767 284.258625 
L 263.960767 229.489811 
L 262.157131 229.489811 
z
" style="fill:#ff7f0e;stroke:#000000;stroke-linejoin:miter;stroke-width:0.5;"/>
   </g>
   <g id="patch_168">
    <path clip-path="url(#pb7a05c448e)" d="M 263.960767 284.258625 
L 265.764403 284.258625 
L 265.764403 227.342015 
L 263.960767 227.342015 
z
" style="fill:#ff7f0e;stroke:#000000;stroke-linejoin:miter;stroke-width:0.5;"/>
   </g>
   <g id="patch_169">
    <path clip-path="url(#pb7a05c448e)" d="M 265.764403 284.258625 
L 267.56804 284.258625 
L 267.56804 243.987439 
L 265.764403 243.987439 
z
" style="fill:#ff7f0e;stroke:#000000;stroke-linejoin:miter;stroke-width:0.5;"/>
   </g>
   <g id="patch_170">
    <path clip-path="url(#pb7a05c448e)" d="M 267.56804 284.258625 
L 269.371676 284.258625 
L 269.371676 163.982015 
L 267.56804 163.982015 
z
" style="fill:#ff7f0e;stroke:#000000;stroke-linejoin:miter;stroke-width:0.5;"/>
   </g>
   <g id="patch_171">
    <path clip-path="url(#pb7a05c448e)" d="M 269.371676 284.258625 
L 271.175312 284.258625 
L 271.175312 153.779981 
L 269.371676 153.779981 
z
" style="fill:#ff7f0e;stroke:#000000;stroke-linejoin:miter;stroke-width:0.5;"/>
   </g>
   <g id="patch_172">
    <path clip-path="url(#pb7a05c448e)" d="M 271.175313 284.258625 
L 272.978949 284.258625 
L 272.978949 173.6471 
L 271.175313 173.6471 
z
" style="fill:#ff7f0e;stroke:#000000;stroke-linejoin:miter;stroke-width:0.5;"/>
   </g>
   <g id="patch_173">
    <path clip-path="url(#pb7a05c448e)" d="M 272.978949 284.258625 
L 274.782585 284.258625 
L 274.782585 173.6471 
L 272.978949 173.6471 
z
" style="fill:#ff7f0e;stroke:#000000;stroke-linejoin:miter;stroke-width:0.5;"/>
   </g>
   <g id="patch_174">
    <path clip-path="url(#pb7a05c448e)" d="M 274.782585 284.258625 
L 276.586222 284.258625 
L 276.586222 220.361676 
L 274.782585 220.361676 
z
" style="fill:#ff7f0e;stroke:#000000;stroke-linejoin:miter;stroke-width:0.5;"/>
   </g>
   <g id="patch_175">
    <path clip-path="url(#pb7a05c448e)" d="M 276.586222 284.258625 
L 278.389858 284.258625 
L 278.389858 207.474896 
L 276.586222 207.474896 
z
" style="fill:#ff7f0e;stroke:#000000;stroke-linejoin:miter;stroke-width:0.5;"/>
   </g>
   <g id="patch_176">
    <path clip-path="url(#pb7a05c448e)" d="M 278.389858 284.258625 
L 280.193494 284.258625 
L 280.193494 195.662015 
L 278.389858 195.662015 
z
" style="fill:#ff7f0e;stroke:#000000;stroke-linejoin:miter;stroke-width:0.5;"/>
   </g>
   <g id="patch_177">
    <path clip-path="url(#pb7a05c448e)" d="M 280.193494 284.258625 
L 281.997131 284.258625 
L 281.997131 130.691167 
L 280.193494 130.691167 
z
" style="fill:#ff7f0e;stroke:#000000;stroke-linejoin:miter;stroke-width:0.5;"/>
   </g>
   <g id="patch_178">
    <path clip-path="url(#pb7a05c448e)" d="M 281.997131 284.258625 
L 283.800767 284.258625 
L 283.800767 126.932523 
L 281.997131 126.932523 
z
" style="fill:#ff7f0e;stroke:#000000;stroke-linejoin:miter;stroke-width:0.5;"/>
   </g>
   <g id="patch_179">
    <path clip-path="url(#pb7a05c448e)" d="M 283.800767 284.258625 
L 285.604403 284.258625 
L 285.604403 128.543371 
L 283.800767 128.543371 
z
" style="fill:#ff7f0e;stroke:#000000;stroke-linejoin:miter;stroke-width:0.5;"/>
   </g>
   <g id="patch_180">
    <path clip-path="url(#pb7a05c448e)" d="M 285.604403 284.258625 
L 287.40804 284.258625 
L 287.40804 183.312184 
L 285.604403 183.312184 
z
" style="fill:#ff7f0e;stroke:#000000;stroke-linejoin:miter;stroke-width:0.5;"/>
   </g>
   <g id="patch_181">
    <path clip-path="url(#pb7a05c448e)" d="M 287.40804 284.258625 
L 289.211676 284.258625 
L 289.211676 194.051167 
L 287.40804 194.051167 
z
" style="fill:#ff7f0e;stroke:#000000;stroke-linejoin:miter;stroke-width:0.5;"/>
   </g>
   <g id="patch_182">
    <path clip-path="url(#pb7a05c448e)" d="M 289.211676 284.258625 
L 291.015313 284.258625 
L 291.015313 157.001676 
L 289.211676 157.001676 
z
" style="fill:#ff7f0e;stroke:#000000;stroke-linejoin:miter;stroke-width:0.5;"/>
   </g>
   <g id="patch_183">
    <path clip-path="url(#pb7a05c448e)" d="M 291.015312 284.258625 
L 292.818949 284.258625 
L 292.818949 156.464727 
L 291.015312 156.464727 
z
" style="fill:#ff7f0e;stroke:#000000;stroke-linejoin:miter;stroke-width:0.5;"/>
   </g>
   <g id="patch_184">
    <path clip-path="url(#pb7a05c448e)" d="M 292.818949 284.258625 
L 294.622585 284.258625 
L 294.622585 87.735235 
L 292.818949 87.735235 
z
" style="fill:#ff7f0e;stroke:#000000;stroke-linejoin:miter;stroke-width:0.5;"/>
   </g>
   <g id="patch_185">
    <path clip-path="url(#pb7a05c448e)" d="M 294.622585 284.258625 
L 296.426222 284.258625 
L 296.426222 144.651845 
L 294.622585 144.651845 
z
" style="fill:#ff7f0e;stroke:#000000;stroke-linejoin:miter;stroke-width:0.5;"/>
   </g>
   <g id="patch_186">
    <path clip-path="url(#pb7a05c448e)" d="M 296.426222 284.258625 
L 298.229858 284.258625 
L 298.229858 125.858625 
L 296.426222 125.858625 
z
" style="fill:#ff7f0e;stroke:#000000;stroke-linejoin:miter;stroke-width:0.5;"/>
   </g>
   <g id="patch_187">
    <path clip-path="url(#pb7a05c448e)" d="M 298.229858 284.258625 
L 300.033494 284.258625 
L 300.033494 155.927778 
L 298.229858 155.927778 
z
" style="fill:#ff7f0e;stroke:#000000;stroke-linejoin:miter;stroke-width:0.5;"/>
   </g>
   <g id="patch_188">
    <path clip-path="url(#pb7a05c448e)" d="M 300.033494 284.258625 
L 301.837131 284.258625 
L 301.837131 213.918286 
L 300.033494 213.918286 
z
" style="fill:#ff7f0e;stroke:#000000;stroke-linejoin:miter;stroke-width:0.5;"/>
   </g>
   <g id="patch_189">
    <path clip-path="url(#pb7a05c448e)" d="M 301.837131 284.258625 
L 303.640767 284.258625 
L 303.640767 141.43015 
L 301.837131 141.43015 
z
" style="fill:#ff7f0e;stroke:#000000;stroke-linejoin:miter;stroke-width:0.5;"/>
   </g>
   <g id="patch_190">
    <path clip-path="url(#pb7a05c448e)" d="M 303.640767 284.258625 
L 305.444403 284.258625 
L 305.444403 150.021337 
L 303.640767 150.021337 
z
" style="fill:#ff7f0e;stroke:#000000;stroke-linejoin:miter;stroke-width:0.5;"/>
   </g>
   <g id="patch_191">
    <path clip-path="url(#pb7a05c448e)" d="M 305.444403 284.258625 
L 307.24804 284.258625 
L 307.24804 87.198286 
L 305.444403 87.198286 
z
" style="fill:#ff7f0e;stroke:#000000;stroke-linejoin:miter;stroke-width:0.5;"/>
   </g>
   <g id="patch_192">
    <path clip-path="url(#pb7a05c448e)" d="M 307.24804 284.258625 
L 309.051676 284.258625 
L 309.051676 35.651167 
L 307.24804 35.651167 
z
" style="fill:#ff7f0e;stroke:#000000;stroke-linejoin:miter;stroke-width:0.5;"/>
   </g>
   <g id="patch_193">
    <path clip-path="url(#pb7a05c448e)" d="M 309.051676 284.258625 
L 310.855312 284.258625 
L 310.855312 30.818625 
L 309.051676 30.818625 
z
" style="fill:#ff7f0e;stroke:#000000;stroke-linejoin:miter;stroke-width:0.5;"/>
   </g>
   <g id="patch_194">
    <path clip-path="url(#pb7a05c448e)" d="M 310.855313 284.258625 
L 312.658949 284.258625 
L 312.658949 127.469472 
L 310.855313 127.469472 
z
" style="fill:#ff7f0e;stroke:#000000;stroke-linejoin:miter;stroke-width:0.5;"/>
   </g>
   <g id="patch_195">
    <path clip-path="url(#pb7a05c448e)" d="M 312.658949 284.258625 
L 314.462585 284.258625 
L 314.462585 145.725744 
L 312.658949 145.725744 
z
" style="fill:#ff7f0e;stroke:#000000;stroke-linejoin:miter;stroke-width:0.5;"/>
   </g>
   <g id="patch_196">
    <path clip-path="url(#pb7a05c448e)" d="M 314.462585 284.258625 
L 316.266222 284.258625 
L 316.266222 118.341337 
L 314.462585 118.341337 
z
" style="fill:#ff7f0e;stroke:#000000;stroke-linejoin:miter;stroke-width:0.5;"/>
   </g>
   <g id="patch_197">
    <path clip-path="url(#pb7a05c448e)" d="M 316.266222 284.258625 
L 318.069858 284.258625 
L 318.069858 143.040998 
L 316.266222 143.040998 
z
" style="fill:#ff7f0e;stroke:#000000;stroke-linejoin:miter;stroke-width:0.5;"/>
   </g>
   <g id="patch_198">
    <path clip-path="url(#pb7a05c448e)" d="M 318.069858 284.258625 
L 319.873494 284.258625 
L 319.873494 90.95693 
L 318.069858 90.95693 
z
" style="fill:#ff7f0e;stroke:#000000;stroke-linejoin:miter;stroke-width:0.5;"/>
   </g>
   <g id="patch_199">
    <path clip-path="url(#pb7a05c448e)" d="M 319.873494 284.258625 
L 321.677131 284.258625 
L 321.677131 36.188117 
L 319.873494 36.188117 
z
" style="fill:#ff7f0e;stroke:#000000;stroke-linejoin:miter;stroke-width:0.5;"/>
   </g>
   <g id="patch_200">
    <path clip-path="url(#pb7a05c448e)" d="M 321.677131 284.258625 
L 323.480767 284.258625 
L 323.480767 53.907439 
L 321.677131 53.907439 
z
" style="fill:#ff7f0e;stroke:#000000;stroke-linejoin:miter;stroke-width:0.5;"/>
   </g>
   <g id="patch_201">
    <path clip-path="url(#pb7a05c448e)" d="M 323.480767 284.258625 
L 325.284403 284.258625 
L 325.284403 106.528456 
L 323.480767 106.528456 
z
" style="fill:#ff7f0e;stroke:#000000;stroke-linejoin:miter;stroke-width:0.5;"/>
   </g>
   <g id="patch_202">
    <path clip-path="url(#pb7a05c448e)" d="M 325.284403 284.258625 
L 327.08804 284.258625 
L 327.08804 178.479642 
L 325.284403 178.479642 
z
" style="fill:#ff7f0e;stroke:#000000;stroke-linejoin:miter;stroke-width:0.5;"/>
   </g>
   <g id="patch_203">
    <path clip-path="url(#pb7a05c448e)" d="M 327.08804 284.258625 
L 328.891676 284.258625 
L 328.891676 183.312184 
L 327.08804 183.312184 
z
" style="fill:#ff7f0e;stroke:#000000;stroke-linejoin:miter;stroke-width:0.5;"/>
   </g>
   <g id="patch_204">
    <path clip-path="url(#pb7a05c448e)" d="M 328.891676 284.258625 
L 330.695313 284.258625 
L 330.695313 165.055913 
L 328.891676 165.055913 
z
" style="fill:#ff7f0e;stroke:#000000;stroke-linejoin:miter;stroke-width:0.5;"/>
   </g>
   <g id="patch_205">
    <path clip-path="url(#pb7a05c448e)" d="M 330.695312 284.258625 
L 332.498949 284.258625 
L 332.498949 173.6471 
L 330.695312 173.6471 
z
" style="fill:#ff7f0e;stroke:#000000;stroke-linejoin:miter;stroke-width:0.5;"/>
   </g>
   <g id="patch_206">
    <path clip-path="url(#pb7a05c448e)" d="M 332.498949 284.258625 
L 334.302585 284.258625 
L 334.302585 75.385405 
L 332.498949 75.385405 
z
" style="fill:#ff7f0e;stroke:#000000;stroke-linejoin:miter;stroke-width:0.5;"/>
   </g>
   <g id="patch_207">
    <path clip-path="url(#pb7a05c448e)" d="M 334.302585 284.258625 
L 336.106222 284.258625 
L 336.106222 77.533201 
L 334.302585 77.533201 
z
" style="fill:#ff7f0e;stroke:#000000;stroke-linejoin:miter;stroke-width:0.5;"/>
   </g>
   <g id="patch_208">
    <path clip-path="url(#pb7a05c448e)" d="M 336.106222 284.258625 
L 337.909858 284.258625 
L 337.909858 144.651845 
L 336.106222 144.651845 
z
" style="fill:#ff7f0e;stroke:#000000;stroke-linejoin:miter;stroke-width:0.5;"/>
   </g>
   <g id="patch_209">
    <path clip-path="url(#pb7a05c448e)" d="M 337.909858 284.258625 
L 339.713494 284.258625 
L 339.713494 197.809811 
L 337.909858 197.809811 
z
" style="fill:#ff7f0e;stroke:#000000;stroke-linejoin:miter;stroke-width:0.5;"/>
   </g>
   <g id="patch_210">
    <path clip-path="url(#pb7a05c448e)" d="M 339.713494 284.258625 
L 341.517131 284.258625 
L 341.517131 173.11015 
L 339.713494 173.11015 
z
" style="fill:#ff7f0e;stroke:#000000;stroke-linejoin:miter;stroke-width:0.5;"/>
   </g>
   <g id="patch_211">
    <path clip-path="url(#pb7a05c448e)" d="M 341.517131 284.258625 
L 343.320767 284.258625 
L 343.320767 184.386083 
L 341.517131 184.386083 
z
" style="fill:#ff7f0e;stroke:#000000;stroke-linejoin:miter;stroke-width:0.5;"/>
   </g>
   <g id="patch_212">
    <path clip-path="url(#pb7a05c448e)" d="M 343.320767 284.258625 
L 345.124403 284.258625 
L 345.124403 102.232862 
L 343.320767 102.232862 
z
" style="fill:#ff7f0e;stroke:#000000;stroke-linejoin:miter;stroke-width:0.5;"/>
   </g>
   <g id="patch_213">
    <path clip-path="url(#pb7a05c448e)" d="M 345.124403 284.258625 
L 346.92804 284.258625 
L 346.92804 145.725744 
L 345.124403 145.725744 
z
" style="fill:#ff7f0e;stroke:#000000;stroke-linejoin:miter;stroke-width:0.5;"/>
   </g>
   <g id="patch_214">
    <path clip-path="url(#pb7a05c448e)" d="M 346.92804 284.258625 
L 348.731676 284.258625 
L 348.731676 146.799642 
L 346.92804 146.799642 
z
" style="fill:#ff7f0e;stroke:#000000;stroke-linejoin:miter;stroke-width:0.5;"/>
   </g>
   <g id="patch_215">
    <path clip-path="url(#pb7a05c448e)" d="M 348.731676 284.258625 
L 350.535312 284.258625 
L 350.535312 170.425405 
L 348.731676 170.425405 
z
" style="fill:#ff7f0e;stroke:#000000;stroke-linejoin:miter;stroke-width:0.5;"/>
   </g>
   <g id="patch_216">
    <path clip-path="url(#pb7a05c448e)" d="M 350.535313 284.258625 
L 352.338949 284.258625 
L 352.338949 233.248456 
L 350.535313 233.248456 
z
" style="fill:#ff7f0e;stroke:#000000;stroke-linejoin:miter;stroke-width:0.5;"/>
   </g>
   <g id="patch_217">
    <path clip-path="url(#pb7a05c448e)" d="M 352.338949 284.258625 
L 354.142585 284.258625 
L 354.142585 186.533879 
L 352.338949 186.533879 
z
" style="fill:#ff7f0e;stroke:#000000;stroke-linejoin:miter;stroke-width:0.5;"/>
   </g>
   <g id="patch_218">
    <path clip-path="url(#pb7a05c448e)" d="M 354.142585 284.258625 
L 355.946222 284.258625 
L 355.946222 157.538625 
L 354.142585 157.538625 
z
" style="fill:#ff7f0e;stroke:#000000;stroke-linejoin:miter;stroke-width:0.5;"/>
   </g>
   <g id="patch_219">
    <path clip-path="url(#pb7a05c448e)" d="M 355.946222 284.258625 
L 357.749858 284.258625 
L 357.749858 150.021337 
L 355.946222 150.021337 
z
" style="fill:#ff7f0e;stroke:#000000;stroke-linejoin:miter;stroke-width:0.5;"/>
   </g>
   <g id="patch_220">
    <path clip-path="url(#pb7a05c448e)" d="M 357.749858 284.258625 
L 359.553494 284.258625 
L 359.553494 162.908117 
L 357.749858 162.908117 
z
" style="fill:#ff7f0e;stroke:#000000;stroke-linejoin:miter;stroke-width:0.5;"/>
   </g>
   <g id="patch_221">
    <path clip-path="url(#pb7a05c448e)" d="M 359.553494 284.258625 
L 361.357131 284.258625 
L 361.357131 151.632184 
L 359.553494 151.632184 
z
" style="fill:#ff7f0e;stroke:#000000;stroke-linejoin:miter;stroke-width:0.5;"/>
   </g>
   <g id="patch_222">
    <path clip-path="url(#pb7a05c448e)" d="M 361.357131 284.258625 
L 363.160767 284.258625 
L 363.160767 204.79015 
L 361.357131 204.79015 
z
" style="fill:#ff7f0e;stroke:#000000;stroke-linejoin:miter;stroke-width:0.5;"/>
   </g>
   <g id="patch_223">
    <path clip-path="url(#pb7a05c448e)" d="M 363.160767 284.258625 
L 364.964403 284.258625 
L 364.964403 230.56371 
L 363.160767 230.56371 
z
" style="fill:#ff7f0e;stroke:#000000;stroke-linejoin:miter;stroke-width:0.5;"/>
   </g>
   <g id="patch_224">
    <path clip-path="url(#pb7a05c448e)" d="M 364.964403 284.258625 
L 366.76804 284.258625 
L 366.76804 192.977269 
L 364.964403 192.977269 
z
" style="fill:#ff7f0e;stroke:#000000;stroke-linejoin:miter;stroke-width:0.5;"/>
   </g>
   <g id="patch_225">
    <path clip-path="url(#pb7a05c448e)" d="M 366.76804 284.258625 
L 368.571676 284.258625 
L 368.571676 208.548794 
L 366.76804 208.548794 
z
" style="fill:#ff7f0e;stroke:#000000;stroke-linejoin:miter;stroke-width:0.5;"/>
   </g>
   <g id="patch_226">
    <path clip-path="url(#pb7a05c448e)" d="M 368.571676 284.258625 
L 370.375313 284.258625 
L 370.375313 170.962354 
L 368.571676 170.962354 
z
" style="fill:#ff7f0e;stroke:#000000;stroke-linejoin:miter;stroke-width:0.5;"/>
   </g>
   <g id="patch_227">
    <path clip-path="url(#pb7a05c448e)" d="M 370.375313 284.258625 
L 372.178949 284.258625 
L 372.178949 211.23354 
L 370.375313 211.23354 
z
" style="fill:#ff7f0e;stroke:#000000;stroke-linejoin:miter;stroke-width:0.5;"/>
   </g>
   <g id="patch_228">
    <path clip-path="url(#pb7a05c448e)" d="M 372.178949 284.258625 
L 373.982585 284.258625 
L 373.982585 187.070828 
L 372.178949 187.070828 
z
" style="fill:#ff7f0e;stroke:#000000;stroke-linejoin:miter;stroke-width:0.5;"/>
   </g>
   <g id="patch_229">
    <path clip-path="url(#pb7a05c448e)" d="M 373.982585 284.258625 
L 375.786222 284.258625 
L 375.786222 221.972523 
L 373.982585 221.972523 
z
" style="fill:#ff7f0e;stroke:#000000;stroke-linejoin:miter;stroke-width:0.5;"/>
   </g>
   <g id="patch_230">
    <path clip-path="url(#pb7a05c448e)" d="M 375.786222 284.258625 
L 377.589858 284.258625 
L 377.589858 242.91354 
L 375.786222 242.91354 
z
" style="fill:#ff7f0e;stroke:#000000;stroke-linejoin:miter;stroke-width:0.5;"/>
   </g>
   <g id="patch_231">
    <path clip-path="url(#pb7a05c448e)" d="M 377.589858 284.258625 
L 379.393494 284.258625 
L 379.393494 192.977269 
L 377.589858 192.977269 
z
" style="fill:#ff7f0e;stroke:#000000;stroke-linejoin:miter;stroke-width:0.5;"/>
   </g>
   <g id="patch_232">
    <path clip-path="url(#pb7a05c448e)" d="M 379.393494 284.258625 
L 381.197131 284.258625 
L 381.197131 204.253201 
L 379.393494 204.253201 
z
" style="fill:#ff7f0e;stroke:#000000;stroke-linejoin:miter;stroke-width:0.5;"/>
   </g>
   <g id="patch_233">
    <path clip-path="url(#pb7a05c448e)" d="M 381.197131 284.258625 
L 383.000767 284.258625 
L 383.000767 136.060659 
L 381.197131 136.060659 
z
" style="fill:#ff7f0e;stroke:#000000;stroke-linejoin:miter;stroke-width:0.5;"/>
   </g>
   <g id="patch_234">
    <path clip-path="url(#pb7a05c448e)" d="M 383.000767 284.258625 
L 384.804403 284.258625 
L 384.804403 183.849133 
L 383.000767 183.849133 
z
" style="fill:#ff7f0e;stroke:#000000;stroke-linejoin:miter;stroke-width:0.5;"/>
   </g>
   <g id="patch_235">
    <path clip-path="url(#pb7a05c448e)" d="M 384.804403 284.258625 
L 386.60804 284.258625 
L 386.60804 162.908117 
L 384.804403 162.908117 
z
" style="fill:#ff7f0e;stroke:#000000;stroke-linejoin:miter;stroke-width:0.5;"/>
   </g>
   <g id="patch_236">
    <path clip-path="url(#pb7a05c448e)" d="M 386.60804 284.258625 
L 388.411676 284.258625 
L 388.411676 205.864049 
L 386.60804 205.864049 
z
" style="fill:#ff7f0e;stroke:#000000;stroke-linejoin:miter;stroke-width:0.5;"/>
   </g>
   <g id="patch_237">
    <path clip-path="url(#pb7a05c448e)" d="M 388.411676 284.258625 
L 390.215312 284.258625 
L 390.215312 241.302693 
L 388.411676 241.302693 
z
" style="fill:#ff7f0e;stroke:#000000;stroke-linejoin:miter;stroke-width:0.5;"/>
   </g>
   <g id="matplotlib.axis_1">
    <g id="xtick_1">
     <g id="line2d_1">
      <defs>
       <path d="M 0 0 
L 0 3.5 
" id="mcec16c151f" style="stroke:#000000;stroke-width:0.8;"/>
      </defs>
      <g>
       <use style="stroke:#000000;stroke-width:0.8;" x="33.095313" xlink:href="#mcec16c151f" y="284.258625"/>
      </g>
     </g>
     <g id="text_1">
      <!-- Mar -->
      <g transform="translate(23.985938 298.74925)scale(0.1 -0.1)">
       <defs>
        <path d="M 80.421875 0.984375 
L 71.828125 0.984375 
L 71.828125 39.59375 
Q 71.828125 51.265625 72.40625 64.59375 
L 72.015625 64.59375 
Q 68.0625 53.265625 63.53125 41.796875 
L 47.90625 3.265625 
L 41.40625 3.265625 
L 25.640625 42.578125 
Q 20.75 54.78125 17.625 64.703125 
L 17.234375 64.703125 
Q 17.828125 48.921875 17.828125 39.890625 
L 17.828125 0.984375 
L 9.515625 0.984375 
L 9.515625 72.40625 
L 22.125 72.40625 
L 39.109375 30.375 
Q 42.140625 23 44.828125 14.15625 
L 45.125 14.15625 
Q 47.3125 22.125 50.53125 30.171875 
L 67.4375 72.40625 
L 80.421875 72.40625 
z
" id="IPAexGothic-77"/>
        <path d="M 49.3125 0.984375 
L 41.75 0.984375 
Q 39.984375 4.734375 39.546875 8.6875 
L 39.203125 8.6875 
Q 33.546875 -0.390625 22.3125 -0.390625 
Q 14.59375 -0.390625 9.71875 4.5 
Q 5.421875 8.796875 5.421875 14.984375 
Q 5.421875 30.421875 32.03125 31.203125 
L 38.71875 31.390625 
L 38.71875 33.984375 
Q 38.71875 39.203125 35.75 42.1875 
Q 32.625 45.3125 27.734375 45.3125 
Q 19.34375 45.3125 15.140625 37.15625 
L 7.71875 40.578125 
Q 14.65625 52 27.9375 52 
Q 37.109375 52 42.046875 46.875 
Q 46.625 42.28125 46.625 33.890625 
L 46.625 15.578125 
Q 46.625 6.25 49.3125 0.984375 
z
M 38.921875 25.390625 
L 33.453125 25.296875 
Q 14.109375 24.859375 14.109375 14.890625 
Q 14.109375 11.375 16.40625 9.078125 
Q 19.234375 6.296875 23.828125 6.296875 
Q 30.21875 6.296875 34.90625 10.984375 
Q 38.921875 15.140625 38.921875 21 
z
" id="IPAexGothic-97"/>
        <path d="M 36.078125 51.8125 
L 34.578125 43.265625 
Q 32.90625 43.609375 31.59375 43.609375 
Q 25.828125 43.609375 22.078125 38.1875 
Q 17.390625 31.34375 17.390625 26.171875 
L 17.390625 0.984375 
L 8.796875 0.984375 
L 8.796875 50.78125 
L 16.890625 50.78125 
L 16.5 35.984375 
L 16.703125 35.984375 
Q 22.21875 52.203125 32.765625 52.203125 
Q 34.46875 52.203125 36.078125 51.8125 
z
" id="IPAexGothic-114"/>
       </defs>
       <use xlink:href="#IPAexGothic-77"/>
       <use x="90.185547" xlink:href="#IPAexGothic-97"/>
       <use x="145.166016" xlink:href="#IPAexGothic-114"/>
      </g>
     </g>
    </g>
    <g id="xtick_2">
     <g id="line2d_2">
      <g>
       <use style="stroke:#000000;stroke-width:0.8;" x="89.00804" xlink:href="#mcec16c151f" y="284.258625"/>
      </g>
     </g>
     <g id="text_2">
      <!-- Apr -->
      <g transform="translate(80.865852 298.74925)scale(0.1 -0.1)">
       <defs>
        <path d="M 63.375 0.984375 
L 53.8125 0.984375 
L 45.90625 22.015625 
L 17.1875 22.015625 
L 9.421875 0.984375 
L -0.09375 0.984375 
L 28.21875 72.90625 
L 35.296875 72.90625 
z
M 43.40625 29.109375 
L 36.1875 48.09375 
Q 33.203125 56.0625 31.6875 62.5 
L 31.390625 62.5 
Q 29.640625 55.671875 26.8125 48.09375 
L 19.734375 29.109375 
z
" id="IPAexGothic-65"/>
        <path d="M 16.796875 42 
Q 23.828125 52.203125 34.46875 52.203125 
Q 43.265625 52.203125 49.5625 45.90625 
Q 56.890625 38.578125 56.890625 25.6875 
Q 56.890625 13.140625 49.65625 5.8125 
Q 43.359375 -0.484375 34.375 -0.484375 
Q 24.515625 -0.484375 17.28125 7.765625 
L 17.28125 -19 
L 8.796875 -19 
L 8.796875 50.78125 
L 16.796875 50.78125 
z
M 17.28125 30.46875 
L 17.28125 20.171875 
Q 17.28125 14.015625 23.6875 9.375 
Q 27.984375 6.296875 32.90625 6.296875 
Q 38.578125 6.296875 42.578125 10.296875 
Q 47.90625 15.578125 47.90625 25.484375 
Q 47.90625 34.375 43.5 39.984375 
Q 39.109375 45.3125 32.8125 45.3125 
Q 25.875 45.3125 20.90625 38.8125 
Q 17.28125 34.125 17.28125 30.46875 
z
" id="IPAexGothic-112"/>
       </defs>
       <use xlink:href="#IPAexGothic-65"/>
       <use x="63.720703" xlink:href="#IPAexGothic-112"/>
       <use x="125.830078" xlink:href="#IPAexGothic-114"/>
      </g>
     </g>
    </g>
    <g id="xtick_3">
     <g id="line2d_3">
      <g>
       <use style="stroke:#000000;stroke-width:0.8;" x="143.117131" xlink:href="#mcec16c151f" y="284.258625"/>
      </g>
     </g>
     <g id="text_3">
      <!-- May -->
      <g transform="translate(133.397599 298.74925)scale(0.1 -0.1)">
       <defs>
        <path d="M 48.78125 50.78125 
L 24.609375 -7.625 
Q 19.96875 -18.796875 8.59375 -18.796875 
L 7.46875 -18.796875 
L 5.375 -10.984375 
L 6.984375 -10.984375 
Q 15.140625 -10.984375 17.96875 -3.71875 
L 21.1875 4.296875 
L 0.59375 50.78125 
L 10.296875 50.78125 
L 21.296875 22.796875 
Q 23.875 16.015625 25.09375 12.203125 
L 25.390625 12.203125 
Q 27.34375 18.265625 29.109375 22.796875 
L 39.5 50.78125 
z
" id="IPAexGothic-121"/>
       </defs>
       <use xlink:href="#IPAexGothic-77"/>
       <use x="90.185547" xlink:href="#IPAexGothic-97"/>
       <use x="145.166016" xlink:href="#IPAexGothic-121"/>
      </g>
     </g>
    </g>
    <g id="xtick_4">
     <g id="line2d_4">
      <g>
       <use style="stroke:#000000;stroke-width:0.8;" x="199.029858" xlink:href="#mcec16c151f" y="284.258625"/>
      </g>
     </g>
     <g id="text_4">
      <!-- Jun -->
      <g transform="translate(191.090014 298.74925)scale(0.1 -0.1)">
       <defs>
        <path d="M 28.421875 72.40625 
L 28.421875 19.28125 
Q 28.421875 -0.484375 11.921875 -0.484375 
Q 4.734375 -0.484375 -1.953125 3.265625 
L 1.3125 10.0625 
Q 5.90625 6.984375 10.84375 6.984375 
Q 19.53125 6.984375 19.53125 18.796875 
L 19.53125 72.40625 
z
" id="IPAexGothic-74"/>
        <path d="M 51.3125 0.984375 
L 43.3125 0.984375 
L 43.3125 10.0625 
Q 35.9375 0 25.390625 0 
Q 16.75 0 11.921875 5.859375 
Q 8.109375 10.59375 8.109375 19.390625 
L 8.109375 50.78125 
L 16.703125 50.78125 
L 16.703125 19.671875 
Q 16.703125 7.28125 27.09375 7.28125 
Q 37.59375 7.28125 42.71875 20.171875 
L 42.71875 50.78125 
L 51.3125 50.78125 
z
" id="IPAexGothic-117"/>
        <path d="M 52 0.984375 
L 43.40625 0.984375 
L 43.40625 31.890625 
Q 43.40625 44.578125 32.90625 44.578125 
Q 22.3125 44.578125 17.390625 31.890625 
L 17.390625 0.984375 
L 8.796875 0.984375 
L 8.796875 50.78125 
L 16.796875 50.78125 
L 16.796875 41.796875 
Q 23.828125 51.8125 34.71875 51.8125 
Q 52 51.8125 52 32.375 
z
" id="IPAexGothic-110"/>
       </defs>
       <use xlink:href="#IPAexGothic-74"/>
       <use x="37.988281" xlink:href="#IPAexGothic-117"/>
       <use x="98.388672" xlink:href="#IPAexGothic-110"/>
      </g>
     </g>
    </g>
    <g id="xtick_5">
     <g id="line2d_5">
      <g>
       <use style="stroke:#000000;stroke-width:0.8;" x="253.138949" xlink:href="#mcec16c151f" y="284.258625"/>
      </g>
     </g>
     <g id="text_5">
      <!-- Jul -->
      <g transform="translate(246.869418 298.74925)scale(0.1 -0.1)">
       <defs>
        <path d="M 17.671875 0.984375 
L 9.078125 0.984375 
L 9.078125 74.90625 
L 17.671875 74.90625 
z
" id="IPAexGothic-108"/>
       </defs>
       <use xlink:href="#IPAexGothic-74"/>
       <use x="37.988281" xlink:href="#IPAexGothic-117"/>
       <use x="98.388672" xlink:href="#IPAexGothic-108"/>
      </g>
     </g>
    </g>
    <g id="xtick_6">
     <g id="line2d_6">
      <g>
       <use style="stroke:#000000;stroke-width:0.8;" x="309.051676" xlink:href="#mcec16c151f" y="284.258625"/>
      </g>
     </g>
     <g id="text_6">
      <!-- Aug -->
      <g transform="translate(300.069645 298.691437)scale(0.1 -0.1)">
       <defs>
        <path d="M 20.796875 17.96875 
Q 15.71875 17.53125 15.71875 14.0625 
Q 15.71875 9.578125 27.546875 8.984375 
L 33.296875 8.6875 
Q 51.609375 7.765625 51.609375 -4.59375 
Q 51.609375 -10.9375 45.703125 -14.984375 
Q 39.359375 -19.578125 28.03125 -19.578125 
Q 17.78125 -19.578125 11.53125 -16.0625 
Q 5.515625 -12.640625 5.515625 -6.6875 
Q 5.515625 1.3125 16.796875 3.859375 
L 16.796875 4.203125 
Q 7.90625 6.453125 7.90625 12.15625 
Q 7.90625 17.4375 15.53125 20.265625 
Q 7.125 24.609375 7.125 34.078125 
Q 7.125 41.40625 12.015625 46.296875 
Q 17.625 51.90625 27.15625 51.90625 
Q 33.203125 51.90625 37.84375 49.265625 
Q 41.40625 53.953125 50.921875 54.109375 
L 50.921875 47.078125 
Q 44.34375 46.921875 42.234375 45.90625 
Q 47.40625 40.828125 47.40625 33.890625 
Q 47.40625 27 42.71875 22.265625 
Q 37.5 17.09375 28.328125 17.09375 
Q 24.421875 17.09375 20.796875 17.96875 
z
M 27.09375 45.609375 
Q 22.015625 45.609375 18.703125 42.28125 
Q 15.4375 39.015625 15.4375 34.078125 
Q 15.4375 29.25 18.5 26.3125 
Q 21.828125 23 27.4375 23 
Q 32.71875 23 35.890625 26.21875 
Q 39.109375 29.390625 39.109375 34.421875 
Q 39.109375 39.015625 35.890625 42.1875 
Q 32.515625 45.609375 27.09375 45.609375 
z
M 27.390625 2.484375 
Q 14.109375 2.484375 14.109375 -5.71875 
Q 14.109375 -13.671875 28.125 -13.671875 
Q 37.15625 -13.671875 41.21875 -9.46875 
Q 43.3125 -7.515625 43.3125 -4.890625 
Q 43.3125 2.484375 27.390625 2.484375 
z
" id="IPAexGothic-103"/>
       </defs>
       <use xlink:href="#IPAexGothic-65"/>
       <use x="63.720703" xlink:href="#IPAexGothic-117"/>
       <use x="124.121094" xlink:href="#IPAexGothic-103"/>
      </g>
     </g>
    </g>
    <g id="xtick_7">
     <g id="line2d_7">
      <g>
       <use style="stroke:#000000;stroke-width:0.8;" x="364.964403" xlink:href="#mcec16c151f" y="284.258625"/>
      </g>
     </g>
     <g id="text_7">
      <!-- Sep -->
      <g transform="translate(356.089403 298.74925)scale(0.1 -0.1)">
       <defs>
        <path d="M 45.609375 56.890625 
Q 40.046875 66.546875 28.953125 66.546875 
Q 22.703125 66.546875 18.953125 62.640625 
Q 16.0625 59.421875 16.0625 55.21875 
Q 16.0625 50.59375 19.78125 47.609375 
Q 22.5625 45.515625 31 42 
L 34.375 40.578125 
Q 45.703125 36.03125 49.859375 30.515625 
Q 53.46875 25.6875 53.46875 19.671875 
Q 53.46875 10.0625 46.390625 4.5 
Q 39.984375 -0.484375 30.171875 -0.484375 
Q 13.765625 -0.484375 4.890625 11.96875 
L 11.765625 17.1875 
Q 18.796875 7.171875 30.28125 7.171875 
Q 35.75 7.171875 39.59375 9.765625 
Q 44.390625 13.234375 44.390625 19 
Q 44.390625 23.484375 40.875 27 
Q 37.109375 30.609375 27 34.46875 
L 24.078125 35.59375 
Q 7.078125 42.09375 7.078125 54.390625 
Q 7.078125 62.59375 12.59375 67.921875 
Q 18.796875 73.828125 29.109375 73.828125 
Q 44.390625 73.828125 52.484375 61.8125 
z
" id="IPAexGothic-83"/>
        <path d="M 13.484375 24.90625 
Q 13.921875 16.265625 18.890625 11.28125 
Q 23.96875 6.203125 31.203125 6.203125 
Q 40.71875 6.203125 46.296875 15.09375 
L 51.90625 11.375 
Q 44.828125 -0.484375 30.171875 -0.484375 
Q 19.09375 -0.484375 11.96875 6.59375 
Q 4.78125 13.8125 4.78125 25.640625 
Q 4.78125 38.1875 12.3125 45.703125 
Q 19 52.390625 29 52.390625 
Q 38.421875 52.390625 44.78125 46.1875 
Q 51.90625 38.96875 51.90625 26.90625 
L 51.90625 24.90625 
z
M 43.0625 31.203125 
Q 42.328125 37.984375 38.28125 41.890625 
Q 34.28125 45.90625 28.8125 45.90625 
Q 22.46875 45.90625 17.96875 40.484375 
Q 14.890625 36.8125 13.96875 31.203125 
z
" id="IPAexGothic-101"/>
       </defs>
       <use xlink:href="#IPAexGothic-83"/>
       <use x="58.496094" xlink:href="#IPAexGothic-101"/>
       <use x="115.380859" xlink:href="#IPAexGothic-112"/>
      </g>
     </g>
    </g>
    <g id="text_8">
     <!-- 2020 -->
     <g transform="translate(365.021562 311.139875)scale(0.1 -0.1)">
      <defs>
       <path d="M 57.171875 0.984375 
L 6.984375 0.984375 
L 6.984375 9.28125 
Q 12.890625 23.046875 29.59375 34.421875 
L 32.375 36.28125 
Q 40.921875 42.140625 43.609375 45.40625 
Q 46.6875 49.265625 46.6875 53.8125 
Q 46.6875 58.9375 43.0625 62.546875 
Q 39.0625 66.546875 32.5625 66.546875 
Q 19.53125 66.546875 15.484375 52 
L 7.765625 54.78125 
Q 13.328125 73.828125 33.0625 73.828125 
Q 43.84375 73.828125 50.25 67.4375 
Q 55.859375 61.671875 55.859375 53.515625 
Q 55.859375 47.46875 52.25 42.53125 
Q 48.921875 37.75 36.96875 30.28125 
L 34.859375 29 
Q 19.625 19.578125 15.28125 8.890625 
L 57.171875 8.890625 
z
" id="IPAexGothic-50"/>
       <path d="M 31.84375 73.828125 
Q 45.015625 73.828125 52.09375 61.625 
Q 57.71875 51.953125 57.71875 36.625 
Q 57.71875 21.4375 52.09375 11.578125 
Q 45.125 -0.484375 31.5 -0.484375 
Q 17.921875 -0.484375 10.9375 11.578125 
Q 5.328125 21.4375 5.328125 36.71875 
Q 5.328125 58.015625 15.625 67.71875 
Q 22.171875 73.828125 31.84375 73.828125 
z
M 31.5 66.65625 
Q 23.6875 66.65625 19.1875 58.734375 
Q 14.59375 50.734375 14.59375 36.625 
Q 14.59375 22.75 19.09375 14.796875 
Q 23.640625 6.984375 31.5 6.984375 
Q 40.921875 6.984375 45.453125 18.015625 
Q 48.4375 25.34375 48.4375 37.109375 
Q 48.4375 50.875 43.84375 58.734375 
Q 39.203125 66.65625 31.5 66.65625 
z
" id="IPAexGothic-48"/>
      </defs>
      <use xlink:href="#IPAexGothic-50"/>
      <use x="62.988281" xlink:href="#IPAexGothic-48"/>
      <use x="125.976562" xlink:href="#IPAexGothic-50"/>
      <use x="188.964844" xlink:href="#IPAexGothic-48"/>
     </g>
    </g>
   </g>
   <g id="matplotlib.axis_2">
    <g id="ytick_1">
     <g id="line2d_8">
      <defs>
       <path d="M 0 0 
L -3.5 0 
" id="m7ca2dd24da" style="stroke:#000000;stroke-width:0.8;"/>
      </defs>
      <g>
       <use style="stroke:#000000;stroke-width:0.8;" x="33.095313" xlink:href="#m7ca2dd24da" y="284.258625"/>
      </g>
     </g>
     <g id="text_9">
      <!-- 0 -->
      <g transform="translate(19.796875 288.003937)scale(0.1 -0.1)">
       <use xlink:href="#IPAexGothic-48"/>
      </g>
     </g>
    </g>
    <g id="ytick_2">
     <g id="line2d_9">
      <g>
       <use style="stroke:#000000;stroke-width:0.8;" x="33.095313" xlink:href="#m7ca2dd24da" y="230.56371"/>
      </g>
     </g>
     <g id="text_10">
      <!-- 100 -->
      <g transform="translate(7.2 234.309022)scale(0.1 -0.1)">
       <defs>
        <path d="M 38.484375 0.984375 
L 29.6875 0.984375 
L 29.6875 64.109375 
Q 21.4375 61.28125 12.3125 59.328125 
L 10.6875 66.109375 
Q 23.734375 69.390625 32.90625 73.921875 
L 38.484375 73.921875 
z
" id="IPAexGothic-49"/>
       </defs>
       <use xlink:href="#IPAexGothic-49"/>
       <use x="62.988281" xlink:href="#IPAexGothic-48"/>
       <use x="125.976562" xlink:href="#IPAexGothic-48"/>
      </g>
     </g>
    </g>
    <g id="ytick_3">
     <g id="line2d_10">
      <g>
       <use style="stroke:#000000;stroke-width:0.8;" x="33.095313" xlink:href="#m7ca2dd24da" y="176.868794"/>
      </g>
     </g>
     <g id="text_11">
      <!-- 200 -->
      <g transform="translate(7.2 180.614107)scale(0.1 -0.1)">
       <use xlink:href="#IPAexGothic-50"/>
       <use x="62.988281" xlink:href="#IPAexGothic-48"/>
       <use x="125.976562" xlink:href="#IPAexGothic-48"/>
      </g>
     </g>
    </g>
    <g id="ytick_4">
     <g id="line2d_11">
      <g>
       <use style="stroke:#000000;stroke-width:0.8;" x="33.095313" xlink:href="#m7ca2dd24da" y="123.173879"/>
      </g>
     </g>
     <g id="text_12">
      <!-- 300 -->
      <g transform="translate(7.2 126.919192)scale(0.1 -0.1)">
       <defs>
        <path d="M 37.203125 37.796875 
Q 54.78125 34.625 54.78125 19.96875 
Q 54.78125 11.1875 48.875 5.5625 
Q 42.328125 -0.484375 30.375 -0.484375 
Q 12.453125 -0.484375 4.5 13.765625 
L 11.8125 17.671875 
Q 17.328125 6.890625 30.28125 6.890625 
Q 37.890625 6.890625 42.09375 10.796875 
Q 46.09375 14.5 46.09375 20.171875 
Q 46.09375 26.859375 40.09375 30.90625 
Q 34.625 34.578125 25.6875 34.578125 
L 21.296875 34.578125 
L 21.296875 41.703125 
L 25.875 41.703125 
Q 34.859375 41.703125 39.59375 45.125 
Q 44.671875 48.734375 44.671875 54.828125 
Q 44.671875 61.46875 38.96875 64.65625 
Q 35.296875 66.84375 30.171875 66.84375 
Q 19.34375 66.84375 14.109375 55.90625 
L 6.78125 59.421875 
Q 14.015625 73.828125 30.28125 73.828125 
Q 40.578125 73.828125 46.96875 68.65625 
Q 53.375 63.578125 53.375 55.21875 
Q 53.375 47.3125 47.171875 42.28125 
Q 43.171875 39.0625 37.203125 38.1875 
z
" id="IPAexGothic-51"/>
       </defs>
       <use xlink:href="#IPAexGothic-51"/>
       <use x="62.988281" xlink:href="#IPAexGothic-48"/>
       <use x="125.976562" xlink:href="#IPAexGothic-48"/>
      </g>
     </g>
    </g>
    <g id="ytick_5">
     <g id="line2d_12">
      <g>
       <use style="stroke:#000000;stroke-width:0.8;" x="33.095313" xlink:href="#m7ca2dd24da" y="69.478964"/>
      </g>
     </g>
     <g id="text_13">
      <!-- 400 -->
      <g transform="translate(7.2 73.224276)scale(0.1 -0.1)">
       <defs>
        <path d="M 59.578125 18.109375 
L 47.796875 18.109375 
L 47.796875 0.984375 
L 39.796875 0.984375 
L 39.796875 18.109375 
L 3.078125 18.109375 
L 3.078125 26.125 
L 38.375 73.09375 
L 47.796875 73.09375 
L 47.796875 25.53125 
L 59.578125 25.53125 
z
M 40.28125 64.203125 
L 39.984375 64.203125 
Q 35.59375 57.125 31.296875 51.3125 
L 11.859375 25.53125 
L 39.796875 25.53125 
L 39.796875 49.125 
Q 39.796875 54.390625 40.28125 64.203125 
z
" id="IPAexGothic-52"/>
       </defs>
       <use xlink:href="#IPAexGothic-52"/>
       <use x="62.988281" xlink:href="#IPAexGothic-48"/>
       <use x="125.976562" xlink:href="#IPAexGothic-48"/>
      </g>
     </g>
    </g>
   </g>
   <g id="patch_238">
    <path d="M 33.095313 284.258625 
L 33.095313 18.146625 
" style="fill:none;stroke:#000000;stroke-linecap:square;stroke-linejoin:miter;stroke-width:0.8;"/>
   </g>
   <g id="patch_239">
    <path d="M 390.215312 284.258625 
L 390.215312 18.146625 
" style="fill:none;stroke:#000000;stroke-linecap:square;stroke-linejoin:miter;stroke-width:0.8;"/>
   </g>
   <g id="patch_240">
    <path d="M 33.095313 284.258625 
L 390.215313 284.258625 
" style="fill:none;stroke:#000000;stroke-linecap:square;stroke-linejoin:miter;stroke-width:0.8;"/>
   </g>
   <g id="patch_241">
    <path d="M 33.095313 18.146625 
L 390.215313 18.146625 
" style="fill:none;stroke:#000000;stroke-linecap:square;stroke-linejoin:miter;stroke-width:0.8;"/>
   </g>
   <g id="legend_1">
    <g id="patch_242">
     <path d="M 40.095313 40.595062 
L 150.59375 40.595062 
Q 152.59375 40.595062 152.59375 38.595062 
L 152.59375 25.146625 
Q 152.59375 23.146625 150.59375 23.146625 
L 40.095313 23.146625 
Q 38.095313 23.146625 38.095313 25.146625 
L 38.095313 38.595062 
Q 38.095313 40.595062 40.095313 40.595062 
z
" style="fill:#ffffff;opacity:0.8;stroke:#cccccc;stroke-linejoin:miter;"/>
    </g>
    <g id="patch_243">
     <path d="M 42.095313 34.695062 
L 62.095313 34.695062 
L 62.095313 27.695062 
L 42.095313 27.695062 
z
" style="fill:#ff7f0e;stroke:#000000;stroke-linejoin:miter;stroke-width:0.5;"/>
    </g>
    <g id="text_14">
     <!-- Tokyo confirmed -->
     <g transform="translate(70.095313 34.695062)scale(0.1 -0.1)">
      <defs>
       <path d="M 60.40625 64.703125 
L 33.984375 64.703125 
L 33.984375 0.984375 
L 25.09375 0.984375 
L 25.09375 64.703125 
L -0.484375 64.703125 
L -0.484375 72.40625 
L 60.40625 72.40625 
z
" id="IPAexGothic-84"/>
       <path d="M 29.984375 52.203125 
Q 40.53125 52.203125 47.75 45.125 
Q 55.171875 37.703125 55.171875 25.59375 
Q 55.171875 13.875 47.90625 6.59375 
Q 40.765625 -0.484375 29.984375 -0.484375 
Q 19.1875 -0.484375 12.203125 6.5 
Q 4.890625 13.765625 4.890625 25.875 
Q 4.890625 37.703125 12.3125 45.125 
Q 19.390625 52.203125 29.984375 52.203125 
z
M 29.984375 45.609375 
Q 23.734375 45.609375 19.390625 41.109375 
Q 13.875 35.59375 13.875 25.78125 
Q 13.875 16.109375 19.28125 10.6875 
Q 23.6875 6.296875 29.984375 6.296875 
Q 36.421875 6.296875 40.765625 10.796875 
Q 46.1875 16.21875 46.1875 26.125 
Q 46.1875 35.453125 40.671875 41.109375 
Q 36.1875 45.609375 29.984375 45.609375 
z
" id="IPAexGothic-111"/>
       <path d="M 50.6875 0.984375 
L 40.28125 0.984375 
L 23.1875 25.203125 
L 17.484375 19.671875 
L 17.484375 0.984375 
L 9.078125 0.984375 
L 9.078125 74.90625 
L 17.484375 74.90625 
L 17.484375 27.59375 
L 38.484375 50.78125 
L 49.265625 50.78125 
L 28.5625 30.078125 
z
" id="IPAexGothic-107"/>
       <path id="IPAexGothic-32"/>
       <path d="M 51.078125 12.25 
Q 44.28125 -0.484375 29.6875 -0.484375 
Q 19.1875 -0.484375 12.3125 6.390625 
Q 4.890625 13.921875 4.890625 25.984375 
Q 4.890625 37.9375 12.3125 45.515625 
Q 19.09375 52.296875 29.390625 52.296875 
Q 43.953125 52.296875 50.09375 39.703125 
L 43.171875 36.078125 
Q 38.8125 45.3125 29.6875 45.3125 
Q 23.6875 45.3125 19.28125 40.921875 
Q 13.765625 35.40625 13.765625 25.78125 
Q 13.765625 16.703125 19.09375 11.375 
Q 23.78125 6.6875 30.5625 6.6875 
Q 39.796875 6.6875 44.484375 15.875 
z
" id="IPAexGothic-99"/>
       <path d="M 38.375 72.21875 
L 34.8125 66.3125 
Q 31.109375 69.09375 27.203125 69.09375 
Q 18.5 69.09375 18.5 57.375 
L 18.5 50.78125 
L 32.078125 50.78125 
L 32.078125 44.671875 
L 18.5 44.671875 
L 18.5 0.984375 
L 10.015625 0.984375 
L 10.015625 44.671875 
L 1.90625 44.671875 
L 1.90625 50.78125 
L 10.015625 50.78125 
L 10.015625 57.171875 
Q 10.015625 65.4375 13.921875 70.0625 
Q 18.75 75.6875 26.703125 75.6875 
Q 33.0625 75.6875 38.375 72.21875 
z
" id="IPAexGothic-102"/>
       <path d="M 18.40625 61.375 
L 8.59375 61.375 
L 8.59375 71.390625 
L 18.40625 71.390625 
z
M 17.78125 0.984375 
L 9.1875 0.984375 
L 9.1875 50.78125 
L 17.78125 50.78125 
z
" id="IPAexGothic-105"/>
       <path d="M 78.46875 0.984375 
L 69.875 0.984375 
L 69.875 32.171875 
Q 69.875 44.828125 60.109375 44.828125 
Q 55.46875 44.828125 51.609375 40.53125 
Q 48.875 37.453125 47.796875 32.859375 
L 47.796875 0.984375 
L 39.203125 0.984375 
L 39.203125 32.28125 
Q 39.203125 44.828125 29.984375 44.828125 
Q 25.09375 44.828125 21.390625 40.53125 
Q 17.390625 36.03125 17.390625 31.890625 
L 17.390625 0.984375 
L 8.796875 0.984375 
L 8.796875 50.78125 
L 16.796875 50.78125 
L 16.796875 42.1875 
Q 21.734375 51.8125 31.6875 51.8125 
Q 42.578125 51.8125 46.1875 41.359375 
Q 51.609375 51.8125 61.765625 51.8125 
Q 69.96875 51.8125 74.5625 46 
Q 78.46875 41.21875 78.46875 32.375 
z
" id="IPAexGothic-109"/>
       <path d="M 52.984375 0.984375 
L 45.171875 0.984375 
L 45.171875 9.671875 
Q 38.140625 -0.484375 27.390625 -0.484375 
Q 18.453125 -0.484375 12.3125 5.8125 
Q 4.890625 13.1875 4.890625 25.984375 
Q 4.890625 38.53125 12.0625 45.90625 
Q 18.265625 52.203125 27.390625 52.203125 
Q 37.25 52.203125 44.484375 43.890625 
L 44.484375 74.90625 
L 52.984375 74.90625 
z
M 44.484375 20.359375 
L 44.484375 32.765625 
Q 44.484375 37.703125 38.375 42.28125 
Q 34.078125 45.40625 28.953125 45.40625 
Q 23.1875 45.40625 19.1875 41.40625 
Q 13.875 36.078125 13.875 26.21875 
Q 13.875 17.328125 18.265625 11.71875 
Q 22.515625 6.390625 28.859375 6.390625 
Q 36.28125 6.390625 41.5 13.671875 
Q 44.484375 17.71875 44.484375 20.359375 
z
" id="IPAexGothic-100"/>
      </defs>
      <use xlink:href="#IPAexGothic-84"/>
      <use x="59.912109" xlink:href="#IPAexGothic-111"/>
      <use x="120.3125" xlink:href="#IPAexGothic-107"/>
      <use x="172.119141" xlink:href="#IPAexGothic-121"/>
      <use x="221.337891" xlink:href="#IPAexGothic-111"/>
      <use x="281.738281" xlink:href="#IPAexGothic-32"/>
      <use x="308.740234" xlink:href="#IPAexGothic-99"/>
      <use x="363.134766" xlink:href="#IPAexGothic-111"/>
      <use x="423.535156" xlink:href="#IPAexGothic-110"/>
      <use x="483.935547" xlink:href="#IPAexGothic-102"/>
      <use x="514.550781" xlink:href="#IPAexGothic-105"/>
      <use x="541.552734" xlink:href="#IPAexGothic-114"/>
      <use x="578.564453" xlink:href="#IPAexGothic-109"/>
      <use x="665.673828" xlink:href="#IPAexGothic-101"/>
      <use x="722.558594" xlink:href="#IPAexGothic-100"/>
     </g>
    </g>
   </g>
  </g>
  <g id="text_15">
   <!-- generated: 2020-09-14 15:00:25 JST -->
   <g transform="translate(213.980938 14.690625)scale(0.1 -0.1)">
    <defs>
     <path d="M 33.203125 3.765625 
Q 27.640625 -0.09375 21.828125 -0.09375 
Q 10.203125 -0.09375 10.203125 12.984375 
L 10.203125 44.671875 
L 3.421875 44.671875 
L 3.421875 50.78125 
L 10.203125 50.78125 
L 10.203125 61.96875 
L 18.40625 66.0625 
L 18.40625 50.78125 
L 32.234375 50.78125 
L 32.234375 44.671875 
L 18.40625 44.671875 
L 18.40625 14.15625 
Q 18.40625 6.5 23.640625 6.5 
Q 27.15625 6.5 30.328125 9.1875 
z
" id="IPAexGothic-116"/>
     <path d="M 21.390625 39.984375 
L 10.5 39.984375 
L 10.5 50.78125 
L 21.390625 50.78125 
z
M 21.390625 0.984375 
L 10.5 0.984375 
L 10.5 11.765625 
L 21.390625 11.765625 
z
" id="IPAexGothic-58"/>
     <path d="M 30.765625 26.609375 
L 4.984375 26.609375 
L 4.984375 34.421875 
L 30.765625 34.421875 
z
" id="IPAexGothic-45"/>
     <path d="M 46.625 36.8125 
Q 39.75 26.8125 28.328125 26.8125 
Q 19.578125 26.8125 13.234375 32.125 
Q 5.71875 38.421875 5.71875 49.421875 
Q 5.71875 59.578125 12.015625 66.65625 
Q 18.453125 73.828125 29.203125 73.828125 
Q 43.75 73.828125 50.640625 61.71875 
Q 55.609375 52.78125 55.609375 38.625 
Q 55.609375 19.53125 47.515625 9.1875 
Q 39.890625 -0.484375 27.640625 -0.484375 
Q 13.421875 -0.484375 6.109375 10.984375 
L 13.328125 14.890625 
Q 18.0625 6.6875 27.390625 6.6875 
Q 45.65625 6.6875 47.015625 36.8125 
z
M 29.5 66.84375 
Q 22.65625 66.84375 18.3125 61.71875 
Q 14.40625 57.078125 14.40625 50 
Q 14.40625 42.828125 18.109375 38.71875 
Q 22.40625 33.796875 29.78125 33.796875 
Q 37.984375 33.796875 42.625 40.1875 
Q 45.703125 44.484375 45.703125 49.515625 
Q 45.703125 55.515625 42.09375 60.359375 
Q 37.109375 66.84375 29.5 66.84375 
z
" id="IPAexGothic-57"/>
     <path d="M 18.40625 40.671875 
Q 25.53125 46.296875 33.9375 46.296875 
Q 44 46.296875 50.640625 39.5 
Q 56.84375 33.015625 56.84375 23.390625 
Q 56.84375 14.65625 51.515625 8.015625 
Q 44.828125 -0.484375 31.734375 -0.484375 
Q 14.984375 -0.484375 7.328125 12.25 
L 14.65625 16.0625 
Q 20.453125 6.78125 31.453125 6.78125 
Q 38.53125 6.78125 43.265625 11.1875 
Q 48.140625 15.828125 48.140625 23.484375 
Q 48.140625 30.71875 43.84375 35.015625 
Q 39.359375 39.5 32.125 39.5 
Q 21.96875 39.5 16.75 31.6875 
L 9.234375 32.671875 
L 13.8125 72.40625 
L 53.21875 72.40625 
L 53.21875 64.890625 
L 20.953125 64.890625 
L 17.71875 40.671875 
z
" id="IPAexGothic-53"/>
    </defs>
    <use xlink:href="#IPAexGothic-103"/>
    <use x="55.517578" xlink:href="#IPAexGothic-101"/>
    <use x="112.402344" xlink:href="#IPAexGothic-110"/>
    <use x="172.802734" xlink:href="#IPAexGothic-101"/>
    <use x="229.6875" xlink:href="#IPAexGothic-114"/>
    <use x="266.699219" xlink:href="#IPAexGothic-97"/>
    <use x="321.679688" xlink:href="#IPAexGothic-116"/>
    <use x="356.298828" xlink:href="#IPAexGothic-101"/>
    <use x="413.183594" xlink:href="#IPAexGothic-100"/>
    <use x="475.585938" xlink:href="#IPAexGothic-58"/>
    <use x="507.568359" xlink:href="#IPAexGothic-32"/>
    <use x="534.570312" xlink:href="#IPAexGothic-50"/>
    <use x="597.558594" xlink:href="#IPAexGothic-48"/>
    <use x="660.546875" xlink:href="#IPAexGothic-50"/>
    <use x="723.535156" xlink:href="#IPAexGothic-48"/>
    <use x="786.523438" xlink:href="#IPAexGothic-45"/>
    <use x="822.314453" xlink:href="#IPAexGothic-48"/>
    <use x="885.302734" xlink:href="#IPAexGothic-57"/>
    <use x="948.291016" xlink:href="#IPAexGothic-45"/>
    <use x="984.082031" xlink:href="#IPAexGothic-49"/>
    <use x="1047.070312" xlink:href="#IPAexGothic-52"/>
    <use x="1110.058594" xlink:href="#IPAexGothic-32"/>
    <use x="1137.060547" xlink:href="#IPAexGothic-49"/>
    <use x="1200.048828" xlink:href="#IPAexGothic-53"/>
    <use x="1263.037109" xlink:href="#IPAexGothic-58"/>
    <use x="1295.019531" xlink:href="#IPAexGothic-48"/>
    <use x="1358.007812" xlink:href="#IPAexGothic-48"/>
    <use x="1420.996094" xlink:href="#IPAexGothic-58"/>
    <use x="1452.978516" xlink:href="#IPAexGothic-50"/>
    <use x="1515.966797" xlink:href="#IPAexGothic-53"/>
    <use x="1578.955078" xlink:href="#IPAexGothic-32"/>
    <use x="1605.957031" xlink:href="#IPAexGothic-74"/>
    <use x="1643.945312" xlink:href="#IPAexGothic-83"/>
    <use x="1702.441406" xlink:href="#IPAexGothic-84"/>
   </g>
  </g>
 </g>
 <defs>
  <clipPath id="pb7a05c448e">
   <rect height="266.112" width="357.12" x="33.095313" y="18.146625"/>
  </clipPath>
 </defs>
</svg>
