<?xml version="1.0" encoding="utf-8" standalone="no"?>
<!DOCTYPE svg PUBLIC "-//W3C//DTD SVG 1.1//EN"
  "http://www.w3.org/Graphics/SVG/1.1/DTD/svg11.dtd">
<!-- Created with matplotlib (https://matplotlib.org/) -->
<svg height="309.29325pt" version="1.1" viewBox="0 0 412.042532 309.29325" width="412.042532pt" xmlns="http://www.w3.org/2000/svg" xmlns:xlink="http://www.w3.org/1999/xlink">
 <defs>
  <style type="text/css">
*{stroke-linecap:butt;stroke-linejoin:round;}
  </style>
 </defs>
 <g id="figure_1">
  <g id="patch_1">
   <path d="M 0 309.29325 
L 412.042532 309.29325 
L 412.042532 0 
L 0 0 
z
" style="fill:#ffffff;"/>
  </g>
  <g id="axes_1">
   <g id="patch_2">
    <path d="M 45.692188 273.312 
L 402.812188 273.312 
L 402.812188 7.2 
L 45.692188 7.2 
z
" style="fill:#ffffff;"/>
   </g>
   <g id="patch_3">
    <path clip-path="url(#p16c60a26e3)" d="M 61.924915 273.312 
L 64.553697 273.312 
L 64.553697 273.293332 
L 61.924915 273.293332 
z
" style="fill:#ffbb78;"/>
   </g>
   <g id="patch_4">
    <path clip-path="url(#p16c60a26e3)" d="M 65.210892 273.312 
L 67.839674 273.312 
L 67.839674 273.293332 
L 65.210892 273.293332 
z
" style="fill:#ffbb78;"/>
   </g>
   <g id="patch_5">
    <path clip-path="url(#p16c60a26e3)" d="M 68.496869 273.312 
L 71.125651 273.312 
L 71.125651 273.293332 
L 68.496869 273.293332 
z
" style="fill:#ffbb78;"/>
   </g>
   <g id="patch_6">
    <path clip-path="url(#p16c60a26e3)" d="M 71.782846 273.312 
L 74.411628 273.312 
L 74.411628 273.293332 
L 71.782846 273.293332 
z
" style="fill:#ffbb78;"/>
   </g>
   <g id="patch_7">
    <path clip-path="url(#p16c60a26e3)" d="M 75.068823 273.312 
L 77.697605 273.312 
L 77.697605 273.255995 
L 75.068823 273.255995 
z
" style="fill:#ffbb78;"/>
   </g>
   <g id="patch_8">
    <path clip-path="url(#p16c60a26e3)" d="M 78.354801 273.312 
L 80.983582 273.312 
L 80.983582 273.255995 
L 78.354801 273.255995 
z
" style="fill:#ffbb78;"/>
   </g>
   <g id="patch_9">
    <path clip-path="url(#p16c60a26e3)" d="M 81.640778 273.312 
L 84.26956 273.312 
L 84.26956 273.237327 
L 81.640778 273.237327 
z
" style="fill:#ffbb78;"/>
   </g>
   <g id="patch_10">
    <path clip-path="url(#p16c60a26e3)" d="M 84.926755 273.312 
L 87.555537 273.312 
L 87.555537 273.199991 
L 84.926755 273.199991 
z
" style="fill:#ffbb78;"/>
   </g>
   <g id="patch_11">
    <path clip-path="url(#p16c60a26e3)" d="M 88.212732 273.312 
L 90.841514 273.312 
L 90.841514 273.181322 
L 88.212732 273.181322 
z
" style="fill:#ffbb78;"/>
   </g>
   <g id="patch_12">
    <path clip-path="url(#p16c60a26e3)" d="M 91.498709 273.312 
L 94.127491 273.312 
L 94.127491 273.106649 
L 91.498709 273.106649 
z
" style="fill:#ffbb78;"/>
   </g>
   <g id="patch_13">
    <path clip-path="url(#p16c60a26e3)" d="M 94.784687 273.312 
L 97.413468 273.312 
L 97.413468 273.050645 
L 94.784687 273.050645 
z
" style="fill:#ffbb78;"/>
   </g>
   <g id="patch_14">
    <path clip-path="url(#p16c60a26e3)" d="M 98.070664 273.312 
L 100.699446 273.312 
L 100.699446 272.99464 
L 98.070664 272.99464 
z
" style="fill:#ffbb78;"/>
   </g>
   <g id="patch_15">
    <path clip-path="url(#p16c60a26e3)" d="M 101.356641 273.312 
L 103.985423 273.312 
L 103.985423 272.938635 
L 101.356641 272.938635 
z
" style="fill:#ffbb78;"/>
   </g>
   <g id="patch_16">
    <path clip-path="url(#p16c60a26e3)" d="M 104.642618 273.312 
L 107.2714 273.312 
L 107.2714 272.938635 
L 104.642618 272.938635 
z
" style="fill:#ffbb78;"/>
   </g>
   <g id="patch_17">
    <path clip-path="url(#p16c60a26e3)" d="M 107.928595 273.312 
L 110.557377 273.312 
L 110.557377 272.938635 
L 107.928595 272.938635 
z
" style="fill:#ffbb78;"/>
   </g>
   <g id="patch_18">
    <path clip-path="url(#p16c60a26e3)" d="M 111.214572 273.312 
L 113.843354 273.312 
L 113.843354 272.882631 
L 111.214572 272.882631 
z
" style="fill:#ffbb78;"/>
   </g>
   <g id="patch_19">
    <path clip-path="url(#p16c60a26e3)" d="M 114.50055 273.312 
L 117.129331 273.312 
L 117.129331 272.845294 
L 114.50055 272.845294 
z
" style="fill:#ffbb78;"/>
   </g>
   <g id="patch_20">
    <path clip-path="url(#p16c60a26e3)" d="M 117.786527 273.312 
L 120.415309 273.312 
L 120.415309 272.845294 
L 117.786527 272.845294 
z
" style="fill:#ffbb78;"/>
   </g>
   <g id="patch_21">
    <path clip-path="url(#p16c60a26e3)" d="M 121.072504 273.312 
L 123.701286 273.312 
L 123.701286 272.845294 
L 121.072504 272.845294 
z
" style="fill:#ffbb78;"/>
   </g>
   <g id="patch_22">
    <path clip-path="url(#p16c60a26e3)" d="M 124.358481 273.312 
L 126.987263 273.312 
L 126.987263 272.826626 
L 124.358481 272.826626 
z
" style="fill:#ffbb78;"/>
   </g>
   <g id="patch_23">
    <path clip-path="url(#p16c60a26e3)" d="M 127.644458 273.312 
L 130.27324 273.312 
L 130.27324 272.826626 
L 127.644458 272.826626 
z
" style="fill:#ffbb78;"/>
   </g>
   <g id="patch_24">
    <path clip-path="url(#p16c60a26e3)" d="M 130.930436 273.312 
L 133.559217 273.312 
L 133.559217 272.826626 
L 130.930436 272.826626 
z
" style="fill:#ffbb78;"/>
   </g>
   <g id="patch_25">
    <path clip-path="url(#p16c60a26e3)" d="M 134.216413 273.312 
L 136.845194 273.312 
L 136.845194 272.789289 
L 134.216413 272.789289 
z
" style="fill:#ffbb78;"/>
   </g>
   <g id="patch_26">
    <path clip-path="url(#p16c60a26e3)" d="M 137.50239 273.312 
L 140.131172 273.312 
L 140.131172 272.770621 
L 137.50239 272.770621 
z
" style="fill:#ffbb78;"/>
   </g>
   <g id="patch_27">
    <path clip-path="url(#p16c60a26e3)" d="M 140.788367 273.312 
L 143.417149 273.312 
L 143.417149 272.695948 
L 140.788367 272.695948 
z
" style="fill:#ffbb78;"/>
   </g>
   <g id="patch_28">
    <path clip-path="url(#p16c60a26e3)" d="M 144.074344 273.312 
L 146.703126 273.312 
L 146.703126 272.546602 
L 144.074344 272.546602 
z
" style="fill:#ffbb78;"/>
   </g>
   <g id="patch_29">
    <path clip-path="url(#p16c60a26e3)" d="M 147.360321 273.312 
L 149.989103 273.312 
L 149.989103 272.322583 
L 147.360321 272.322583 
z
" style="fill:#ffbb78;"/>
   </g>
   <g id="patch_30">
    <path clip-path="url(#p16c60a26e3)" d="M 150.646299 273.312 
L 153.27508 273.312 
L 153.27508 272.210574 
L 150.646299 272.210574 
z
" style="fill:#ffbb78;"/>
   </g>
   <g id="patch_31">
    <path clip-path="url(#p16c60a26e3)" d="M 153.932276 273.312 
L 156.561058 273.312 
L 156.561058 272.098565 
L 153.932276 272.098565 
z
" style="fill:#ffbb78;"/>
   </g>
   <g id="patch_32">
    <path clip-path="url(#p16c60a26e3)" d="M 157.218253 273.312 
L 159.847035 273.312 
L 159.847035 271.949219 
L 157.218253 271.949219 
z
" style="fill:#ffbb78;"/>
   </g>
   <g id="patch_33">
    <path clip-path="url(#p16c60a26e3)" d="M 160.50423 273.312 
L 163.133012 273.312 
L 163.133012 271.7252 
L 160.50423 271.7252 
z
" style="fill:#ffbb78;"/>
   </g>
   <g id="patch_34">
    <path clip-path="url(#p16c60a26e3)" d="M 163.790207 273.312 
L 166.418989 273.312 
L 166.418989 271.575854 
L 163.790207 271.575854 
z
" style="fill:#ffbb78;"/>
   </g>
   <g id="patch_35">
    <path clip-path="url(#p16c60a26e3)" d="M 167.076185 273.312 
L 169.704966 273.312 
L 169.704966 271.351835 
L 167.076185 271.351835 
z
" style="fill:#ffbb78;"/>
   </g>
   <g id="patch_36">
    <path clip-path="url(#p16c60a26e3)" d="M 170.362162 273.312 
L 172.990943 273.312 
L 172.990943 270.847793 
L 170.362162 270.847793 
z
" style="fill:#ffbb78;"/>
   </g>
   <g id="patch_37">
    <path clip-path="url(#p16c60a26e3)" d="M 173.648139 273.312 
L 176.276921 273.312 
L 176.276921 270.623774 
L 173.648139 270.623774 
z
" style="fill:#ffbb78;"/>
   </g>
   <g id="patch_38">
    <path clip-path="url(#p16c60a26e3)" d="M 176.934116 273.312 
L 179.562898 273.312 
L 179.562898 270.381087 
L 176.934116 270.381087 
z
" style="fill:#ffbb78;"/>
   </g>
   <g id="patch_39">
    <path clip-path="url(#p16c60a26e3)" d="M 180.220093 273.312 
L 182.848875 273.312 
L 182.848875 270.250409 
L 180.220093 270.250409 
z
" style="fill:#ffbb78;"/>
   </g>
   <g id="patch_40">
    <path clip-path="url(#p16c60a26e3)" d="M 183.50607 273.312 
L 186.134852 273.312 
L 186.134852 269.839708 
L 183.50607 269.839708 
z
" style="fill:#ffbb78;"/>
   </g>
   <g id="patch_41">
    <path clip-path="url(#p16c60a26e3)" d="M 186.792048 273.312 
L 189.420829 273.312 
L 189.420829 269.39167 
L 186.792048 269.39167 
z
" style="fill:#ffbb78;"/>
   </g>
   <g id="patch_42">
    <path clip-path="url(#p16c60a26e3)" d="M 190.078025 273.312 
L 192.706807 273.312 
L 192.706807 269.018305 
L 190.078025 269.018305 
z
" style="fill:#ffbb78;"/>
   </g>
   <g id="patch_43">
    <path clip-path="url(#p16c60a26e3)" d="M 193.364002 273.312 
L 195.992784 273.312 
L 195.992784 268.850291 
L 193.364002 268.850291 
z
" style="fill:#ffbb78;"/>
   </g>
   <g id="patch_44">
    <path clip-path="url(#p16c60a26e3)" d="M 196.649979 273.312 
L 199.278761 273.312 
L 199.278761 268.570268 
L 196.649979 268.570268 
z
" style="fill:#ffbb78;"/>
   </g>
   <g id="patch_45">
    <path clip-path="url(#p16c60a26e3)" d="M 199.935956 273.312 
L 202.564738 273.312 
L 202.564738 268.308912 
L 199.935956 268.308912 
z
" style="fill:#ffbb78;"/>
   </g>
   <g id="patch_46">
    <path clip-path="url(#p16c60a26e3)" d="M 203.221934 273.312 
L 205.850715 273.312 
L 205.850715 268.01022 
L 203.221934 268.01022 
z
" style="fill:#ffbb78;"/>
   </g>
   <g id="patch_47">
    <path clip-path="url(#p16c60a26e3)" d="M 206.507911 273.312 
L 209.136692 273.312 
L 209.136692 267.394169 
L 206.507911 267.394169 
z
" style="fill:#ffbb78;"/>
   </g>
   <g id="patch_48">
    <path clip-path="url(#p16c60a26e3)" d="M 209.793888 273.312 
L 212.42267 273.312 
L 212.42267 266.796785 
L 209.793888 266.796785 
z
" style="fill:#ffbb78;"/>
   </g>
   <g id="patch_49">
    <path clip-path="url(#p16c60a26e3)" d="M 213.079865 273.312 
L 215.708647 273.312 
L 215.708647 265.695359 
L 213.079865 265.695359 
z
" style="fill:#ffbb78;"/>
   </g>
   <g id="patch_50">
    <path clip-path="url(#p16c60a26e3)" d="M 216.365842 273.312 
L 218.994624 273.312 
L 218.994624 264.817952 
L 216.365842 264.817952 
z
" style="fill:#ffbb78;"/>
   </g>
   <g id="patch_51">
    <path clip-path="url(#p16c60a26e3)" d="M 219.651819 273.312 
L 222.280601 273.312 
L 222.280601 264.2019 
L 219.651819 264.2019 
z
" style="fill:#ffbb78;"/>
   </g>
   <g id="patch_52">
    <path clip-path="url(#p16c60a26e3)" d="M 222.937797 273.312 
L 225.566578 273.312 
L 225.566578 263.716526 
L 222.937797 263.716526 
z
" style="fill:#ffbb78;"/>
   </g>
   <g id="patch_53">
    <path clip-path="url(#p16c60a26e3)" d="M 226.223774 273.312 
L 228.852556 273.312 
L 228.852556 262.708441 
L 226.223774 262.708441 
z
" style="fill:#ffbb78;"/>
   </g>
   <g id="patch_54">
    <path clip-path="url(#p16c60a26e3)" d="M 229.509751 273.312 
L 232.138533 273.312 
L 232.138533 261.737692 
L 229.509751 261.737692 
z
" style="fill:#ffbb78;"/>
   </g>
   <g id="patch_55">
    <path clip-path="url(#p16c60a26e3)" d="M 232.795728 273.312 
L 235.42451 273.312 
L 235.42451 260.710939 
L 232.795728 260.710939 
z
" style="fill:#ffbb78;"/>
   </g>
   <g id="patch_56">
    <path clip-path="url(#p16c60a26e3)" d="M 236.081705 273.312 
L 238.710487 273.312 
L 238.710487 259.945542 
L 236.081705 259.945542 
z
" style="fill:#ffbb78;"/>
   </g>
   <g id="patch_57">
    <path clip-path="url(#p16c60a26e3)" d="M 239.367683 273.312 
L 241.996464 273.312 
L 241.996464 258.750774 
L 239.367683 258.750774 
z
" style="fill:#ffbb78;"/>
   </g>
   <g id="patch_58">
    <path clip-path="url(#p16c60a26e3)" d="M 242.65366 273.312 
L 245.282441 273.312 
L 245.282441 258.116054 
L 242.65366 258.116054 
z
" style="fill:#ffbb78;"/>
   </g>
   <g id="patch_59">
    <path clip-path="url(#p16c60a26e3)" d="M 245.939637 273.312 
L 248.568419 273.312 
L 248.568419 257.836031 
L 245.939637 257.836031 
z
" style="fill:#ffbb78;"/>
   </g>
   <g id="patch_60">
    <path clip-path="url(#p16c60a26e3)" d="M 249.225614 273.312 
L 251.854396 273.312 
L 251.854396 257.836031 
L 249.225614 257.836031 
z
" style="fill:#ffbb78;"/>
   </g>
   <g id="patch_61">
    <path clip-path="url(#p16c60a26e3)" d="M 252.511591 273.312 
L 255.140373 273.312 
L 255.140373 257.014628 
L 252.511591 257.014628 
z
" style="fill:#ffbb78;"/>
   </g>
   <g id="patch_62">
    <path clip-path="url(#p16c60a26e3)" d="M 255.797568 273.312 
L 258.42635 273.312 
L 258.42635 255.577174 
L 255.797568 255.577174 
z
" style="fill:#ffbb78;"/>
   </g>
   <g id="patch_63">
    <path clip-path="url(#p16c60a26e3)" d="M 259.083546 273.312 
L 261.712327 273.312 
L 261.712327 254.718435 
L 259.083546 254.718435 
z
" style="fill:#ffbb78;"/>
   </g>
   <g id="patch_64">
    <path clip-path="url(#p16c60a26e3)" d="M 262.369523 273.312 
L 264.998305 273.312 
L 264.998305 253.785023 
L 262.369523 253.785023 
z
" style="fill:#ffbb78;"/>
   </g>
   <g id="patch_65">
    <path clip-path="url(#p16c60a26e3)" d="M 265.6555 273.312 
L 268.284282 273.312 
L 268.284282 252.982289 
L 265.6555 252.982289 
z
" style="fill:#ffbb78;"/>
   </g>
   <g id="patch_66">
    <path clip-path="url(#p16c60a26e3)" d="M 268.941477 273.312 
L 271.570259 273.312 
L 271.570259 252.254227 
L 268.941477 252.254227 
z
" style="fill:#ffbb78;"/>
   </g>
   <g id="patch_67">
    <path clip-path="url(#p16c60a26e3)" d="M 272.227454 273.312 
L 274.856236 273.312 
L 274.856236 251.040792 
L 272.227454 251.040792 
z
" style="fill:#ffbb78;"/>
   </g>
   <g id="patch_68">
    <path clip-path="url(#p16c60a26e3)" d="M 275.513432 273.312 
L 278.142213 273.312 
L 278.142213 249.211305 
L 275.513432 249.211305 
z
" style="fill:#ffbb78;"/>
   </g>
   <g id="patch_69">
    <path clip-path="url(#p16c60a26e3)" d="M 278.799409 273.312 
L 281.42819 273.312 
L 281.42819 247.419154 
L 278.799409 247.419154 
z
" style="fill:#ffbb78;"/>
   </g>
   <g id="patch_70">
    <path clip-path="url(#p16c60a26e3)" d="M 282.085386 273.312 
L 284.714168 273.312 
L 284.714168 245.328311 
L 282.085386 245.328311 
z
" style="fill:#ffbb78;"/>
   </g>
   <g id="patch_71">
    <path clip-path="url(#p16c60a26e3)" d="M 285.371363 273.312 
L 288.000145 273.312 
L 288.000145 241.706673 
L 285.371363 241.706673 
z
" style="fill:#ffbb78;"/>
   </g>
   <g id="patch_72">
    <path clip-path="url(#p16c60a26e3)" d="M 288.65734 273.312 
L 291.286122 273.312 
L 291.286122 238.477068 
L 288.65734 238.477068 
z
" style="fill:#ffbb78;"/>
   </g>
   <g id="patch_73">
    <path clip-path="url(#p16c60a26e3)" d="M 291.943317 273.312 
L 294.572099 273.312 
L 294.572099 236.852931 
L 291.943317 236.852931 
z
" style="fill:#ffbb78;"/>
   </g>
   <g id="patch_74">
    <path clip-path="url(#p16c60a26e3)" d="M 295.229295 273.312 
L 297.858076 273.312 
L 297.858076 232.652577 
L 295.229295 232.652577 
z
" style="fill:#ffbb78;"/>
   </g>
   <g id="patch_75">
    <path clip-path="url(#p16c60a26e3)" d="M 298.515272 273.312 
L 301.144054 273.312 
L 301.144054 228.80692 
L 298.515272 228.80692 
z
" style="fill:#ffbb78;"/>
   </g>
   <g id="patch_76">
    <path clip-path="url(#p16c60a26e3)" d="M 301.801249 273.312 
L 304.430031 273.312 
L 304.430031 224.457221 
L 301.801249 224.457221 
z
" style="fill:#ffbb78;"/>
   </g>
   <g id="patch_77">
    <path clip-path="url(#p16c60a26e3)" d="M 305.087226 273.312 
L 307.716008 273.312 
L 307.716008 218.800745 
L 305.087226 218.800745 
z
" style="fill:#ffbb78;"/>
   </g>
   <g id="patch_78">
    <path clip-path="url(#p16c60a26e3)" d="M 308.373203 273.312 
L 311.001985 273.312 
L 311.001985 212.248193 
L 308.373203 212.248193 
z
" style="fill:#ffbb78;"/>
   </g>
   <g id="patch_79">
    <path clip-path="url(#p16c60a26e3)" d="M 311.659181 273.312 
L 314.287962 273.312 
L 314.287962 205.098258 
L 311.659181 205.098258 
z
" style="fill:#ffbb78;"/>
   </g>
   <g id="patch_80">
    <path clip-path="url(#p16c60a26e3)" d="M 314.945158 273.312 
L 317.573939 273.312 
L 317.573939 200.393862 
L 314.945158 200.393862 
z
" style="fill:#ffbb78;"/>
   </g>
   <g id="patch_81">
    <path clip-path="url(#p16c60a26e3)" d="M 318.231135 273.312 
L 320.859917 273.312 
L 320.859917 193.841311 
L 318.231135 193.841311 
z
" style="fill:#ffbb78;"/>
   </g>
   <g id="patch_82">
    <path clip-path="url(#p16c60a26e3)" d="M 321.517112 273.312 
L 324.145894 273.312 
L 324.145894 184.301841 
L 321.517112 184.301841 
z
" style="fill:#ffbb78;"/>
   </g>
   <g id="patch_83">
    <path clip-path="url(#p16c60a26e3)" d="M 324.803089 273.312 
L 327.431871 273.312 
L 327.431871 173.492931 
L 324.803089 173.492931 
z
" style="fill:#ffbb78;"/>
   </g>
   <g id="patch_84">
    <path clip-path="url(#p16c60a26e3)" d="M 328.089066 273.312 
L 330.717848 273.312 
L 330.717848 161.20923 
L 328.089066 161.20923 
z
" style="fill:#ffbb78;"/>
   </g>
   <g id="patch_85">
    <path clip-path="url(#p16c60a26e3)" d="M 331.375044 273.312 
L 334.003825 273.312 
L 334.003825 147.33873 
L 331.375044 147.33873 
z
" style="fill:#ffbb78;"/>
   </g>
   <g id="patch_86">
    <path clip-path="url(#p16c60a26e3)" d="M 334.661021 273.312 
L 337.289803 273.312 
L 337.289803 137.873933 
L 334.661021 137.873933 
z
" style="fill:#ffbb78;"/>
   </g>
   <g id="patch_87">
    <path clip-path="url(#p16c60a26e3)" d="M 337.946998 273.312 
L 340.57578 273.312 
L 340.57578 130.59332 
L 337.946998 130.59332 
z
" style="fill:#ffbb78;"/>
   </g>
   <g id="patch_88">
    <path clip-path="url(#p16c60a26e3)" d="M 341.232975 273.312 
L 343.861757 273.312 
L 343.861757 122.099272 
L 341.232975 122.099272 
z
" style="fill:#ffbb78;"/>
   </g>
   <g id="patch_89">
    <path clip-path="url(#p16c60a26e3)" d="M 344.518952 273.312 
L 347.147734 273.312 
L 347.147734 113.101181 
L 344.518952 113.101181 
z
" style="fill:#ffbb78;"/>
   </g>
   <g id="patch_90">
    <path clip-path="url(#p16c60a26e3)" d="M 347.804929 273.312 
L 350.433711 273.312 
L 350.433711 102.180262 
L 347.804929 102.180262 
z
" style="fill:#ffbb78;"/>
   </g>
   <g id="patch_91">
    <path clip-path="url(#p16c60a26e3)" d="M 351.090907 273.312 
L 353.719688 273.312 
L 353.719688 90.456608 
L 351.090907 90.456608 
z
" style="fill:#ffbb78;"/>
   </g>
   <g id="patch_92">
    <path clip-path="url(#p16c60a26e3)" d="M 354.376884 273.312 
L 357.005666 273.312 
L 357.005666 79.890385 
L 354.376884 79.890385 
z
" style="fill:#ffbb78;"/>
   </g>
   <g id="patch_93">
    <path clip-path="url(#p16c60a26e3)" d="M 357.662861 273.312 
L 360.291643 273.312 
L 360.291643 72.609773 
L 357.662861 72.609773 
z
" style="fill:#ffbb78;"/>
   </g>
   <g id="patch_94">
    <path clip-path="url(#p16c60a26e3)" d="M 360.948838 273.312 
L 363.57762 273.312 
L 363.57762 65.758529 
L 360.948838 65.758529 
z
" style="fill:#ffbb78;"/>
   </g>
   <g id="patch_95">
    <path clip-path="url(#p16c60a26e3)" d="M 364.234815 273.312 
L 366.863597 273.312 
L 366.863597 58.701935 
L 364.234815 58.701935 
z
" style="fill:#ffbb78;"/>
   </g>
   <g id="patch_96">
    <path clip-path="url(#p16c60a26e3)" d="M 367.520793 273.312 
L 370.149574 273.312 
L 370.149574 50.80527 
L 367.520793 50.80527 
z
" style="fill:#ffbb78;"/>
   </g>
   <g id="patch_97">
    <path clip-path="url(#p16c60a26e3)" d="M 370.80677 273.312 
L 373.435552 273.312 
L 373.435552 42.049867 
L 370.80677 42.049867 
z
" style="fill:#ffbb78;"/>
   </g>
   <g id="patch_98">
    <path clip-path="url(#p16c60a26e3)" d="M 374.092747 273.312 
L 376.721529 273.312 
L 376.721529 33.817174 
L 374.092747 33.817174 
z
" style="fill:#ffbb78;"/>
   </g>
   <g id="patch_99">
    <path clip-path="url(#p16c60a26e3)" d="M 377.378724 273.312 
L 380.007506 273.312 
L 380.007506 27.227286 
L 377.378724 27.227286 
z
" style="fill:#ffbb78;"/>
   </g>
   <g id="patch_100">
    <path clip-path="url(#p16c60a26e3)" d="M 380.664701 273.312 
L 383.293483 273.312 
L 383.293483 23.437633 
L 380.664701 23.437633 
z
" style="fill:#ffbb78;"/>
   </g>
   <g id="patch_101">
    <path clip-path="url(#p16c60a26e3)" d="M 383.950678 273.312 
L 386.57946 273.312 
L 386.57946 19.872 
L 383.950678 19.872 
z
" style="fill:#ffbb78;"/>
   </g>
   <g id="patch_102">
    <path clip-path="url(#p16c60a26e3)" d="M 61.924915 273.312 
L 64.553697 273.312 
L 64.553697 273.312 
L 61.924915 273.312 
z
" style="fill:#d62728;"/>
   </g>
   <g id="patch_103">
    <path clip-path="url(#p16c60a26e3)" d="M 65.210892 273.312 
L 67.839674 273.312 
L 67.839674 273.312 
L 65.210892 273.312 
z
" style="fill:#d62728;"/>
   </g>
   <g id="patch_104">
    <path clip-path="url(#p16c60a26e3)" d="M 68.496869 273.312 
L 71.125651 273.312 
L 71.125651 273.312 
L 68.496869 273.312 
z
" style="fill:#d62728;"/>
   </g>
   <g id="patch_105">
    <path clip-path="url(#p16c60a26e3)" d="M 71.782846 273.312 
L 74.411628 273.312 
L 74.411628 273.312 
L 71.782846 273.312 
z
" style="fill:#d62728;"/>
   </g>
   <g id="patch_106">
    <path clip-path="url(#p16c60a26e3)" d="M 75.068823 273.312 
L 77.697605 273.312 
L 77.697605 273.312 
L 75.068823 273.312 
z
" style="fill:#d62728;"/>
   </g>
   <g id="patch_107">
    <path clip-path="url(#p16c60a26e3)" d="M 78.354801 273.312 
L 80.983582 273.312 
L 80.983582 273.312 
L 78.354801 273.312 
z
" style="fill:#d62728;"/>
   </g>
   <g id="patch_108">
    <path clip-path="url(#p16c60a26e3)" d="M 81.640778 273.312 
L 84.26956 273.312 
L 84.26956 273.312 
L 81.640778 273.312 
z
" style="fill:#d62728;"/>
   </g>
   <g id="patch_109">
    <path clip-path="url(#p16c60a26e3)" d="M 84.926755 273.312 
L 87.555537 273.312 
L 87.555537 273.312 
L 84.926755 273.312 
z
" style="fill:#d62728;"/>
   </g>
   <g id="patch_110">
    <path clip-path="url(#p16c60a26e3)" d="M 88.212732 273.312 
L 90.841514 273.312 
L 90.841514 273.312 
L 88.212732 273.312 
z
" style="fill:#d62728;"/>
   </g>
   <g id="patch_111">
    <path clip-path="url(#p16c60a26e3)" d="M 91.498709 273.312 
L 94.127491 273.312 
L 94.127491 273.312 
L 91.498709 273.312 
z
" style="fill:#d62728;"/>
   </g>
   <g id="patch_112">
    <path clip-path="url(#p16c60a26e3)" d="M 94.784687 273.312 
L 97.413468 273.312 
L 97.413468 273.312 
L 94.784687 273.312 
z
" style="fill:#d62728;"/>
   </g>
   <g id="patch_113">
    <path clip-path="url(#p16c60a26e3)" d="M 98.070664 273.312 
L 100.699446 273.312 
L 100.699446 273.312 
L 98.070664 273.312 
z
" style="fill:#d62728;"/>
   </g>
   <g id="patch_114">
    <path clip-path="url(#p16c60a26e3)" d="M 101.356641 273.312 
L 103.985423 273.312 
L 103.985423 273.312 
L 101.356641 273.312 
z
" style="fill:#d62728;"/>
   </g>
   <g id="patch_115">
    <path clip-path="url(#p16c60a26e3)" d="M 104.642618 273.312 
L 107.2714 273.312 
L 107.2714 273.312 
L 104.642618 273.312 
z
" style="fill:#d62728;"/>
   </g>
   <g id="patch_116">
    <path clip-path="url(#p16c60a26e3)" d="M 107.928595 273.312 
L 110.557377 273.312 
L 110.557377 273.312 
L 107.928595 273.312 
z
" style="fill:#d62728;"/>
   </g>
   <g id="patch_117">
    <path clip-path="url(#p16c60a26e3)" d="M 111.214572 273.312 
L 113.843354 273.312 
L 113.843354 273.312 
L 111.214572 273.312 
z
" style="fill:#d62728;"/>
   </g>
   <g id="patch_118">
    <path clip-path="url(#p16c60a26e3)" d="M 114.50055 273.312 
L 117.129331 273.312 
L 117.129331 273.312 
L 114.50055 273.312 
z
" style="fill:#d62728;"/>
   </g>
   <g id="patch_119">
    <path clip-path="url(#p16c60a26e3)" d="M 117.786527 273.312 
L 120.415309 273.312 
L 120.415309 273.312 
L 117.786527 273.312 
z
" style="fill:#d62728;"/>
   </g>
   <g id="patch_120">
    <path clip-path="url(#p16c60a26e3)" d="M 121.072504 273.312 
L 123.701286 273.312 
L 123.701286 273.312 
L 121.072504 273.312 
z
" style="fill:#d62728;"/>
   </g>
   <g id="patch_121">
    <path clip-path="url(#p16c60a26e3)" d="M 124.358481 273.312 
L 126.987263 273.312 
L 126.987263 273.312 
L 124.358481 273.312 
z
" style="fill:#d62728;"/>
   </g>
   <g id="patch_122">
    <path clip-path="url(#p16c60a26e3)" d="M 127.644458 273.312 
L 130.27324 273.312 
L 130.27324 273.312 
L 127.644458 273.312 
z
" style="fill:#d62728;"/>
   </g>
   <g id="patch_123">
    <path clip-path="url(#p16c60a26e3)" d="M 130.930436 273.312 
L 133.559217 273.312 
L 133.559217 273.312 
L 130.930436 273.312 
z
" style="fill:#d62728;"/>
   </g>
   <g id="patch_124">
    <path clip-path="url(#p16c60a26e3)" d="M 134.216413 273.312 
L 136.845194 273.312 
L 136.845194 273.312 
L 134.216413 273.312 
z
" style="fill:#d62728;"/>
   </g>
   <g id="patch_125">
    <path clip-path="url(#p16c60a26e3)" d="M 137.50239 273.312 
L 140.131172 273.312 
L 140.131172 273.312 
L 137.50239 273.312 
z
" style="fill:#d62728;"/>
   </g>
   <g id="patch_126">
    <path clip-path="url(#p16c60a26e3)" d="M 140.788367 273.312 
L 143.417149 273.312 
L 143.417149 273.293332 
L 140.788367 273.293332 
z
" style="fill:#d62728;"/>
   </g>
   <g id="patch_127">
    <path clip-path="url(#p16c60a26e3)" d="M 144.074344 273.312 
L 146.703126 273.312 
L 146.703126 273.293332 
L 144.074344 273.293332 
z
" style="fill:#d62728;"/>
   </g>
   <g id="patch_128">
    <path clip-path="url(#p16c60a26e3)" d="M 147.360321 273.312 
L 149.989103 273.312 
L 149.989103 273.293332 
L 147.360321 273.293332 
z
" style="fill:#d62728;"/>
   </g>
   <g id="patch_129">
    <path clip-path="url(#p16c60a26e3)" d="M 150.646299 273.312 
L 153.27508 273.312 
L 153.27508 273.293332 
L 150.646299 273.293332 
z
" style="fill:#d62728;"/>
   </g>
   <g id="patch_130">
    <path clip-path="url(#p16c60a26e3)" d="M 153.932276 273.312 
L 156.561058 273.312 
L 156.561058 273.293332 
L 153.932276 273.293332 
z
" style="fill:#d62728;"/>
   </g>
   <g id="patch_131">
    <path clip-path="url(#p16c60a26e3)" d="M 157.218253 273.312 
L 159.847035 273.312 
L 159.847035 273.293332 
L 157.218253 273.293332 
z
" style="fill:#d62728;"/>
   </g>
   <g id="patch_132">
    <path clip-path="url(#p16c60a26e3)" d="M 160.50423 273.312 
L 163.133012 273.312 
L 163.133012 273.293332 
L 160.50423 273.293332 
z
" style="fill:#d62728;"/>
   </g>
   <g id="patch_133">
    <path clip-path="url(#p16c60a26e3)" d="M 163.790207 273.312 
L 166.418989 273.312 
L 166.418989 273.293332 
L 163.790207 273.293332 
z
" style="fill:#d62728;"/>
   </g>
   <g id="patch_134">
    <path clip-path="url(#p16c60a26e3)" d="M 167.076185 273.312 
L 169.704966 273.312 
L 169.704966 273.293332 
L 167.076185 273.293332 
z
" style="fill:#d62728;"/>
   </g>
   <g id="patch_135">
    <path clip-path="url(#p16c60a26e3)" d="M 170.362162 273.312 
L 172.990943 273.312 
L 172.990943 273.293332 
L 170.362162 273.293332 
z
" style="fill:#d62728;"/>
   </g>
   <g id="patch_136">
    <path clip-path="url(#p16c60a26e3)" d="M 173.648139 273.312 
L 176.276921 273.312 
L 176.276921 273.293332 
L 173.648139 273.293332 
z
" style="fill:#d62728;"/>
   </g>
   <g id="patch_137">
    <path clip-path="url(#p16c60a26e3)" d="M 176.934116 273.312 
L 179.562898 273.312 
L 179.562898 273.293332 
L 176.934116 273.293332 
z
" style="fill:#d62728;"/>
   </g>
   <g id="patch_138">
    <path clip-path="url(#p16c60a26e3)" d="M 180.220093 273.312 
L 182.848875 273.312 
L 182.848875 273.293332 
L 180.220093 273.293332 
z
" style="fill:#d62728;"/>
   </g>
   <g id="patch_139">
    <path clip-path="url(#p16c60a26e3)" d="M 183.50607 273.312 
L 186.134852 273.312 
L 186.134852 273.255995 
L 183.50607 273.255995 
z
" style="fill:#d62728;"/>
   </g>
   <g id="patch_140">
    <path clip-path="url(#p16c60a26e3)" d="M 186.792048 273.312 
L 189.420829 273.312 
L 189.420829 273.237327 
L 186.792048 273.237327 
z
" style="fill:#d62728;"/>
   </g>
   <g id="patch_141">
    <path clip-path="url(#p16c60a26e3)" d="M 190.078025 273.312 
L 192.706807 273.312 
L 192.706807 273.218659 
L 190.078025 273.218659 
z
" style="fill:#d62728;"/>
   </g>
   <g id="patch_142">
    <path clip-path="url(#p16c60a26e3)" d="M 193.364002 273.312 
L 195.992784 273.312 
L 195.992784 273.218659 
L 193.364002 273.218659 
z
" style="fill:#d62728;"/>
   </g>
   <g id="patch_143">
    <path clip-path="url(#p16c60a26e3)" d="M 196.649979 273.312 
L 199.278761 273.312 
L 199.278761 273.199991 
L 196.649979 273.199991 
z
" style="fill:#d62728;"/>
   </g>
   <g id="patch_144">
    <path clip-path="url(#p16c60a26e3)" d="M 199.935956 273.312 
L 202.564738 273.312 
L 202.564738 273.199991 
L 199.935956 273.199991 
z
" style="fill:#d62728;"/>
   </g>
   <g id="patch_145">
    <path clip-path="url(#p16c60a26e3)" d="M 203.221934 273.312 
L 205.850715 273.312 
L 205.850715 273.199991 
L 203.221934 273.199991 
z
" style="fill:#d62728;"/>
   </g>
   <g id="patch_146">
    <path clip-path="url(#p16c60a26e3)" d="M 206.507911 273.312 
L 209.136692 273.312 
L 209.136692 273.199991 
L 206.507911 273.199991 
z
" style="fill:#d62728;"/>
   </g>
   <g id="patch_147">
    <path clip-path="url(#p16c60a26e3)" d="M 209.793888 273.312 
L 212.42267 273.312 
L 212.42267 273.199991 
L 209.793888 273.199991 
z
" style="fill:#d62728;"/>
   </g>
   <g id="patch_148">
    <path clip-path="url(#p16c60a26e3)" d="M 213.079865 273.312 
L 215.708647 273.312 
L 215.708647 273.199991 
L 213.079865 273.199991 
z
" style="fill:#d62728;"/>
   </g>
   <g id="patch_149">
    <path clip-path="url(#p16c60a26e3)" d="M 216.365842 273.312 
L 218.994624 273.312 
L 218.994624 273.199991 
L 216.365842 273.199991 
z
" style="fill:#d62728;"/>
   </g>
   <g id="patch_150">
    <path clip-path="url(#p16c60a26e3)" d="M 219.651819 273.312 
L 222.280601 273.312 
L 222.280601 273.181322 
L 219.651819 273.181322 
z
" style="fill:#d62728;"/>
   </g>
   <g id="patch_151">
    <path clip-path="url(#p16c60a26e3)" d="M 222.937797 273.312 
L 225.566578 273.312 
L 225.566578 273.143986 
L 222.937797 273.143986 
z
" style="fill:#d62728;"/>
   </g>
   <g id="patch_152">
    <path clip-path="url(#p16c60a26e3)" d="M 226.223774 273.312 
L 228.852556 273.312 
L 228.852556 273.087981 
L 226.223774 273.087981 
z
" style="fill:#d62728;"/>
   </g>
   <g id="patch_153">
    <path clip-path="url(#p16c60a26e3)" d="M 229.509751 273.312 
L 232.138533 273.312 
L 232.138533 273.031976 
L 229.509751 273.031976 
z
" style="fill:#d62728;"/>
   </g>
   <g id="patch_154">
    <path clip-path="url(#p16c60a26e3)" d="M 232.795728 273.312 
L 235.42451 273.312 
L 235.42451 272.957303 
L 232.795728 272.957303 
z
" style="fill:#d62728;"/>
   </g>
   <g id="patch_155">
    <path clip-path="url(#p16c60a26e3)" d="M 236.081705 273.312 
L 238.710487 273.312 
L 238.710487 272.919967 
L 236.081705 272.919967 
z
" style="fill:#d62728;"/>
   </g>
   <g id="patch_156">
    <path clip-path="url(#p16c60a26e3)" d="M 239.367683 273.312 
L 241.996464 273.312 
L 241.996464 272.901299 
L 239.367683 272.901299 
z
" style="fill:#d62728;"/>
   </g>
   <g id="patch_157">
    <path clip-path="url(#p16c60a26e3)" d="M 242.65366 273.312 
L 245.282441 273.312 
L 245.282441 272.863962 
L 242.65366 272.863962 
z
" style="fill:#d62728;"/>
   </g>
   <g id="patch_158">
    <path clip-path="url(#p16c60a26e3)" d="M 245.939637 273.312 
L 248.568419 273.312 
L 248.568419 272.789289 
L 245.939637 272.789289 
z
" style="fill:#d62728;"/>
   </g>
   <g id="patch_159">
    <path clip-path="url(#p16c60a26e3)" d="M 249.225614 273.312 
L 251.854396 273.312 
L 251.854396 272.789289 
L 249.225614 272.789289 
z
" style="fill:#d62728;"/>
   </g>
   <g id="patch_160">
    <path clip-path="url(#p16c60a26e3)" d="M 252.511591 273.312 
L 255.140373 273.312 
L 255.140373 272.770621 
L 252.511591 272.770621 
z
" style="fill:#d62728;"/>
   </g>
   <g id="patch_161">
    <path clip-path="url(#p16c60a26e3)" d="M 255.797568 273.312 
L 258.42635 273.312 
L 258.42635 272.695948 
L 255.797568 272.695948 
z
" style="fill:#d62728;"/>
   </g>
   <g id="patch_162">
    <path clip-path="url(#p16c60a26e3)" d="M 259.083546 273.312 
L 261.712327 273.312 
L 261.712327 272.658612 
L 259.083546 272.658612 
z
" style="fill:#d62728;"/>
   </g>
   <g id="patch_163">
    <path clip-path="url(#p16c60a26e3)" d="M 262.369523 273.312 
L 264.998305 273.312 
L 264.998305 272.639943 
L 262.369523 272.639943 
z
" style="fill:#d62728;"/>
   </g>
   <g id="patch_164">
    <path clip-path="url(#p16c60a26e3)" d="M 265.6555 273.312 
L 268.284282 273.312 
L 268.284282 272.546602 
L 265.6555 272.546602 
z
" style="fill:#d62728;"/>
   </g>
   <g id="patch_165">
    <path clip-path="url(#p16c60a26e3)" d="M 268.941477 273.312 
L 271.570259 273.312 
L 271.570259 272.527934 
L 268.941477 272.527934 
z
" style="fill:#d62728;"/>
   </g>
   <g id="patch_166">
    <path clip-path="url(#p16c60a26e3)" d="M 272.227454 273.312 
L 274.856236 273.312 
L 274.856236 272.509266 
L 272.227454 272.509266 
z
" style="fill:#d62728;"/>
   </g>
   <g id="patch_167">
    <path clip-path="url(#p16c60a26e3)" d="M 275.513432 273.312 
L 278.142213 273.312 
L 278.142213 272.471929 
L 275.513432 272.471929 
z
" style="fill:#d62728;"/>
   </g>
   <g id="patch_168">
    <path clip-path="url(#p16c60a26e3)" d="M 278.799409 273.312 
L 281.42819 273.312 
L 281.42819 272.453261 
L 278.799409 272.453261 
z
" style="fill:#d62728;"/>
   </g>
   <g id="patch_169">
    <path clip-path="url(#p16c60a26e3)" d="M 282.085386 273.312 
L 284.714168 273.312 
L 284.714168 272.397256 
L 282.085386 272.397256 
z
" style="fill:#d62728;"/>
   </g>
   <g id="patch_170">
    <path clip-path="url(#p16c60a26e3)" d="M 285.371363 273.312 
L 288.000145 273.312 
L 288.000145 272.341252 
L 285.371363 272.341252 
z
" style="fill:#d62728;"/>
   </g>
   <g id="patch_171">
    <path clip-path="url(#p16c60a26e3)" d="M 288.65734 273.312 
L 291.286122 273.312 
L 291.286122 272.303915 
L 288.65734 272.303915 
z
" style="fill:#d62728;"/>
   </g>
   <g id="patch_172">
    <path clip-path="url(#p16c60a26e3)" d="M 291.943317 273.312 
L 294.572099 273.312 
L 294.572099 272.266579 
L 291.943317 272.266579 
z
" style="fill:#d62728;"/>
   </g>
   <g id="patch_173">
    <path clip-path="url(#p16c60a26e3)" d="M 295.229295 273.312 
L 297.858076 273.312 
L 297.858076 272.24791 
L 295.229295 272.24791 
z
" style="fill:#d62728;"/>
   </g>
   <g id="patch_174">
    <path clip-path="url(#p16c60a26e3)" d="M 298.515272 273.312 
L 301.144054 273.312 
L 301.144054 272.24791 
L 298.515272 272.24791 
z
" style="fill:#d62728;"/>
   </g>
   <g id="patch_175">
    <path clip-path="url(#p16c60a26e3)" d="M 301.801249 273.312 
L 304.430031 273.312 
L 304.430031 272.098565 
L 301.801249 272.098565 
z
" style="fill:#d62728;"/>
   </g>
   <g id="patch_176">
    <path clip-path="url(#p16c60a26e3)" d="M 305.087226 273.312 
L 307.716008 273.312 
L 307.716008 272.023892 
L 305.087226 272.023892 
z
" style="fill:#d62728;"/>
   </g>
   <g id="patch_177">
    <path clip-path="url(#p16c60a26e3)" d="M 308.373203 273.312 
L 311.001985 273.312 
L 311.001985 272.005223 
L 308.373203 272.005223 
z
" style="fill:#d62728;"/>
   </g>
   <g id="patch_178">
    <path clip-path="url(#p16c60a26e3)" d="M 311.659181 273.312 
L 314.287962 273.312 
L 314.287962 271.949219 
L 311.659181 271.949219 
z
" style="fill:#d62728;"/>
   </g>
   <g id="patch_179">
    <path clip-path="url(#p16c60a26e3)" d="M 314.945158 273.312 
L 317.573939 273.312 
L 317.573939 271.818541 
L 314.945158 271.818541 
z
" style="fill:#d62728;"/>
   </g>
   <g id="patch_180">
    <path clip-path="url(#p16c60a26e3)" d="M 318.231135 273.312 
L 320.859917 273.312 
L 320.859917 271.799873 
L 318.231135 271.799873 
z
" style="fill:#d62728;"/>
   </g>
   <g id="patch_181">
    <path clip-path="url(#p16c60a26e3)" d="M 321.517112 273.312 
L 324.145894 273.312 
L 324.145894 271.7252 
L 321.517112 271.7252 
z
" style="fill:#d62728;"/>
   </g>
   <g id="patch_182">
    <path clip-path="url(#p16c60a26e3)" d="M 324.803089 273.312 
L 327.431871 273.312 
L 327.431871 271.669195 
L 324.803089 271.669195 
z
" style="fill:#d62728;"/>
   </g>
   <g id="patch_183">
    <path clip-path="url(#p16c60a26e3)" d="M 328.089066 273.312 
L 330.717848 273.312 
L 330.717848 271.557186 
L 328.089066 271.557186 
z
" style="fill:#d62728;"/>
   </g>
   <g id="patch_184">
    <path clip-path="url(#p16c60a26e3)" d="M 331.375044 273.312 
L 334.003825 273.312 
L 334.003825 271.482513 
L 331.375044 271.482513 
z
" style="fill:#d62728;"/>
   </g>
   <g id="patch_185">
    <path clip-path="url(#p16c60a26e3)" d="M 334.661021 273.312 
L 337.289803 273.312 
L 337.289803 271.40784 
L 334.661021 271.40784 
z
" style="fill:#d62728;"/>
   </g>
   <g id="patch_186">
    <path clip-path="url(#p16c60a26e3)" d="M 337.946998 273.312 
L 340.57578 273.312 
L 340.57578 271.277162 
L 337.946998 271.277162 
z
" style="fill:#d62728;"/>
   </g>
   <g id="patch_187">
    <path clip-path="url(#p16c60a26e3)" d="M 341.232975 273.312 
L 343.861757 273.312 
L 343.861757 271.09048 
L 341.232975 271.09048 
z
" style="fill:#d62728;"/>
   </g>
   <g id="patch_188">
    <path clip-path="url(#p16c60a26e3)" d="M 344.518952 273.312 
L 347.147734 273.312 
L 347.147734 270.77312 
L 344.518952 270.77312 
z
" style="fill:#d62728;"/>
   </g>
   <g id="patch_189">
    <path clip-path="url(#p16c60a26e3)" d="M 347.804929 273.312 
L 350.433711 273.312 
L 350.433711 270.549101 
L 347.804929 270.549101 
z
" style="fill:#d62728;"/>
   </g>
   <g id="patch_190">
    <path clip-path="url(#p16c60a26e3)" d="M 351.090907 273.312 
L 353.719688 273.312 
L 353.719688 270.437091 
L 351.090907 270.437091 
z
" style="fill:#d62728;"/>
   </g>
   <g id="patch_191">
    <path clip-path="url(#p16c60a26e3)" d="M 354.376884 273.312 
L 357.005666 273.312 
L 357.005666 270.306414 
L 354.376884 270.306414 
z
" style="fill:#d62728;"/>
   </g>
   <g id="patch_192">
    <path clip-path="url(#p16c60a26e3)" d="M 357.662861 273.312 
L 360.291643 273.312 
L 360.291643 270.119731 
L 357.662861 270.119731 
z
" style="fill:#d62728;"/>
   </g>
   <g id="patch_193">
    <path clip-path="url(#p16c60a26e3)" d="M 360.948838 273.312 
L 363.57762 273.312 
L 363.57762 269.839708 
L 360.948838 269.839708 
z
" style="fill:#d62728;"/>
   </g>
   <g id="patch_194">
    <path clip-path="url(#p16c60a26e3)" d="M 364.234815 273.312 
L 366.863597 273.312 
L 366.863597 268.140898 
L 364.234815 268.140898 
z
" style="fill:#d62728;"/>
   </g>
   <g id="patch_195">
    <path clip-path="url(#p16c60a26e3)" d="M 367.520793 273.312 
L 370.149574 273.312 
L 370.149574 267.954216 
L 367.520793 267.954216 
z
" style="fill:#d62728;"/>
   </g>
   <g id="patch_196">
    <path clip-path="url(#p16c60a26e3)" d="M 370.80677 273.312 
L 373.435552 273.312 
L 373.435552 267.394169 
L 370.80677 267.394169 
z
" style="fill:#d62728;"/>
   </g>
   <g id="patch_197">
    <path clip-path="url(#p16c60a26e3)" d="M 374.092747 273.312 
L 376.721529 273.312 
L 376.721529 267.076808 
L 374.092747 267.076808 
z
" style="fill:#d62728;"/>
   </g>
   <g id="patch_198">
    <path clip-path="url(#p16c60a26e3)" d="M 377.378724 273.312 
L 380.007506 273.312 
L 380.007506 266.815453 
L 377.378724 266.815453 
z
" style="fill:#d62728;"/>
   </g>
   <g id="patch_199">
    <path clip-path="url(#p16c60a26e3)" d="M 380.664701 273.312 
L 383.293483 273.312 
L 383.293483 266.759448 
L 380.664701 266.759448 
z
" style="fill:#d62728;"/>
   </g>
   <g id="patch_200">
    <path clip-path="url(#p16c60a26e3)" d="M 383.950678 273.312 
L 386.57946 273.312 
L 386.57946 266.292742 
L 383.950678 266.292742 
z
" style="fill:#d62728;"/>
   </g>
   <g id="matplotlib.axis_1">
    <g id="xtick_1">
     <g id="line2d_1">
      <defs>
       <path d="M 0 0 
L 0 3.5 
" id="m6be2eaa1a8" style="stroke:#000000;stroke-width:0.8;"/>
      </defs>
      <g>
       <use style="stroke:#000000;stroke-width:0.8;" x="99.385055" xlink:href="#m6be2eaa1a8" y="273.312"/>
      </g>
     </g>
     <g id="text_1">
      <!-- Feb -->
      <defs>
       <path d="M 54.203125 64.703125 
L 18.3125 64.703125 
L 18.3125 41.5 
L 50.09375 41.5 
L 50.09375 34.1875 
L 18.3125 34.1875 
L 18.3125 0.984375 
L 9.515625 0.984375 
L 9.515625 72.40625 
L 54.203125 72.40625 
z
" id="IPAexGothic-70"/>
       <path d="M 13.484375 24.90625 
Q 13.921875 16.265625 18.890625 11.28125 
Q 23.96875 6.203125 31.203125 6.203125 
Q 40.71875 6.203125 46.296875 15.09375 
L 51.90625 11.375 
Q 44.828125 -0.484375 30.171875 -0.484375 
Q 19.09375 -0.484375 11.96875 6.59375 
Q 4.78125 13.8125 4.78125 25.640625 
Q 4.78125 38.1875 12.3125 45.703125 
Q 19 52.390625 29 52.390625 
Q 38.421875 52.390625 44.78125 46.1875 
Q 51.90625 38.96875 51.90625 26.90625 
L 51.90625 24.90625 
z
M 43.0625 31.203125 
Q 42.328125 37.984375 38.28125 41.890625 
Q 34.28125 45.90625 28.8125 45.90625 
Q 22.46875 45.90625 17.96875 40.484375 
Q 14.890625 36.8125 13.96875 31.203125 
z
" id="IPAexGothic-101"/>
       <path d="M 17.578125 42.671875 
Q 24.21875 52.203125 34.671875 52.203125 
Q 43.5625 52.203125 49.859375 45.90625 
Q 57.171875 38.578125 57.171875 25.6875 
Q 57.171875 13.09375 49.859375 5.8125 
Q 43.5625 -0.484375 34.46875 -0.484375 
Q 24.359375 -0.484375 17 8.0625 
L 15.765625 0.6875 
L 9.078125 0.6875 
L 9.078125 74.90625 
L 17.578125 74.90625 
z
M 17.578125 31.203125 
L 17.578125 19.578125 
Q 17.578125 13.875 23.875 9.375 
Q 28.171875 6.296875 33.109375 6.296875 
Q 38.875 6.296875 42.875 10.296875 
Q 48.1875 15.765625 48.1875 25.484375 
Q 48.1875 34.28125 43.796875 39.890625 
Q 39.453125 45.3125 33.203125 45.3125 
Q 27.484375 45.3125 22.46875 40.28125 
Q 17.578125 35.40625 17.578125 31.203125 
z
" id="IPAexGothic-98"/>
      </defs>
      <g transform="translate(90.561617 287.802625)scale(0.1 -0.1)">
       <use xlink:href="#IPAexGothic-70"/>
       <use x="57.177734" xlink:href="#IPAexGothic-101"/>
       <use x="114.0625" xlink:href="#IPAexGothic-98"/>
      </g>
     </g>
    </g>
    <g id="xtick_2">
     <g id="line2d_2">
      <g>
       <use style="stroke:#000000;stroke-width:0.8;" x="145.388735" xlink:href="#m6be2eaa1a8" y="273.312"/>
      </g>
     </g>
     <g id="text_2">
      <!-- 15 -->
      <defs>
       <path d="M 38.484375 0.984375 
L 29.6875 0.984375 
L 29.6875 64.109375 
Q 21.4375 61.28125 12.3125 59.328125 
L 10.6875 66.109375 
Q 23.734375 69.390625 32.90625 73.921875 
L 38.484375 73.921875 
z
" id="IPAexGothic-49"/>
       <path d="M 18.40625 40.671875 
Q 25.53125 46.296875 33.9375 46.296875 
Q 44 46.296875 50.640625 39.5 
Q 56.84375 33.015625 56.84375 23.390625 
Q 56.84375 14.65625 51.515625 8.015625 
Q 44.828125 -0.484375 31.734375 -0.484375 
Q 14.984375 -0.484375 7.328125 12.25 
L 14.65625 16.0625 
Q 20.453125 6.78125 31.453125 6.78125 
Q 38.53125 6.78125 43.265625 11.1875 
Q 48.140625 15.828125 48.140625 23.484375 
Q 48.140625 30.71875 43.84375 35.015625 
Q 39.359375 39.5 32.125 39.5 
Q 21.96875 39.5 16.75 31.6875 
L 9.234375 32.671875 
L 13.8125 72.40625 
L 53.21875 72.40625 
L 53.21875 64.890625 
L 20.953125 64.890625 
L 17.71875 40.671875 
z
" id="IPAexGothic-53"/>
      </defs>
      <g transform="translate(139.090298 287.802625)scale(0.1 -0.1)">
       <use xlink:href="#IPAexGothic-49"/>
       <use x="62.988281" xlink:href="#IPAexGothic-53"/>
      </g>
     </g>
    </g>
    <g id="xtick_3">
     <g id="line2d_3">
      <g>
       <use style="stroke:#000000;stroke-width:0.8;" x="194.678393" xlink:href="#m6be2eaa1a8" y="273.312"/>
      </g>
     </g>
     <g id="text_3">
      <!-- Mar -->
      <defs>
       <path d="M 80.421875 0.984375 
L 71.828125 0.984375 
L 71.828125 39.59375 
Q 71.828125 51.265625 72.40625 64.59375 
L 72.015625 64.59375 
Q 68.0625 53.265625 63.53125 41.796875 
L 47.90625 3.265625 
L 41.40625 3.265625 
L 25.640625 42.578125 
Q 20.75 54.78125 17.625 64.703125 
L 17.234375 64.703125 
Q 17.828125 48.921875 17.828125 39.890625 
L 17.828125 0.984375 
L 9.515625 0.984375 
L 9.515625 72.40625 
L 22.125 72.40625 
L 39.109375 30.375 
Q 42.140625 23 44.828125 14.15625 
L 45.125 14.15625 
Q 47.3125 22.125 50.53125 30.171875 
L 67.4375 72.40625 
L 80.421875 72.40625 
z
" id="IPAexGothic-77"/>
       <path d="M 49.3125 0.984375 
L 41.75 0.984375 
Q 39.984375 4.734375 39.546875 8.6875 
L 39.203125 8.6875 
Q 33.546875 -0.390625 22.3125 -0.390625 
Q 14.59375 -0.390625 9.71875 4.5 
Q 5.421875 8.796875 5.421875 14.984375 
Q 5.421875 30.421875 32.03125 31.203125 
L 38.71875 31.390625 
L 38.71875 33.984375 
Q 38.71875 39.203125 35.75 42.1875 
Q 32.625 45.3125 27.734375 45.3125 
Q 19.34375 45.3125 15.140625 37.15625 
L 7.71875 40.578125 
Q 14.65625 52 27.9375 52 
Q 37.109375 52 42.046875 46.875 
Q 46.625 42.28125 46.625 33.890625 
L 46.625 15.578125 
Q 46.625 6.25 49.3125 0.984375 
z
M 38.921875 25.390625 
L 33.453125 25.296875 
Q 14.109375 24.859375 14.109375 14.890625 
Q 14.109375 11.375 16.40625 9.078125 
Q 19.234375 6.296875 23.828125 6.296875 
Q 30.21875 6.296875 34.90625 10.984375 
Q 38.921875 15.140625 38.921875 21 
z
" id="IPAexGothic-97"/>
       <path d="M 36.078125 51.8125 
L 34.578125 43.265625 
Q 32.90625 43.609375 31.59375 43.609375 
Q 25.828125 43.609375 22.078125 38.1875 
Q 17.390625 31.34375 17.390625 26.171875 
L 17.390625 0.984375 
L 8.796875 0.984375 
L 8.796875 50.78125 
L 16.890625 50.78125 
L 16.5 35.984375 
L 16.703125 35.984375 
Q 22.21875 52.203125 32.765625 52.203125 
Q 34.46875 52.203125 36.078125 51.8125 
z
" id="IPAexGothic-114"/>
      </defs>
      <g transform="translate(185.569018 287.802625)scale(0.1 -0.1)">
       <use xlink:href="#IPAexGothic-77"/>
       <use x="90.185547" xlink:href="#IPAexGothic-97"/>
       <use x="145.166016" xlink:href="#IPAexGothic-114"/>
      </g>
     </g>
    </g>
    <g id="xtick_4">
     <g id="line2d_4">
      <g>
       <use style="stroke:#000000;stroke-width:0.8;" x="240.682073" xlink:href="#m6be2eaa1a8" y="273.312"/>
      </g>
     </g>
     <g id="text_4">
      <!-- 15 -->
      <g transform="translate(234.383636 287.802625)scale(0.1 -0.1)">
       <use xlink:href="#IPAexGothic-49"/>
       <use x="62.988281" xlink:href="#IPAexGothic-53"/>
      </g>
     </g>
    </g>
    <g id="xtick_5">
     <g id="line2d_5">
      <g>
       <use style="stroke:#000000;stroke-width:0.8;" x="296.543685" xlink:href="#m6be2eaa1a8" y="273.312"/>
      </g>
     </g>
     <g id="text_5">
      <!-- Apr -->
      <defs>
       <path d="M 63.375 0.984375 
L 53.8125 0.984375 
L 45.90625 22.015625 
L 17.1875 22.015625 
L 9.421875 0.984375 
L -0.09375 0.984375 
L 28.21875 72.90625 
L 35.296875 72.90625 
z
M 43.40625 29.109375 
L 36.1875 48.09375 
Q 33.203125 56.0625 31.6875 62.5 
L 31.390625 62.5 
Q 29.640625 55.671875 26.8125 48.09375 
L 19.734375 29.109375 
z
" id="IPAexGothic-65"/>
       <path d="M 16.796875 42 
Q 23.828125 52.203125 34.46875 52.203125 
Q 43.265625 52.203125 49.5625 45.90625 
Q 56.890625 38.578125 56.890625 25.6875 
Q 56.890625 13.140625 49.65625 5.8125 
Q 43.359375 -0.484375 34.375 -0.484375 
Q 24.515625 -0.484375 17.28125 7.765625 
L 17.28125 -19 
L 8.796875 -19 
L 8.796875 50.78125 
L 16.796875 50.78125 
z
M 17.28125 30.46875 
L 17.28125 20.171875 
Q 17.28125 14.015625 23.6875 9.375 
Q 27.984375 6.296875 32.90625 6.296875 
Q 38.578125 6.296875 42.578125 10.296875 
Q 47.90625 15.578125 47.90625 25.484375 
Q 47.90625 34.375 43.5 39.984375 
Q 39.109375 45.3125 32.8125 45.3125 
Q 25.875 45.3125 20.90625 38.8125 
Q 17.28125 34.125 17.28125 30.46875 
z
" id="IPAexGothic-112"/>
      </defs>
      <g transform="translate(288.401498 287.802625)scale(0.1 -0.1)">
       <use xlink:href="#IPAexGothic-65"/>
       <use x="63.720703" xlink:href="#IPAexGothic-112"/>
       <use x="125.830078" xlink:href="#IPAexGothic-114"/>
      </g>
     </g>
    </g>
    <g id="xtick_6">
     <g id="line2d_6">
      <g>
       <use style="stroke:#000000;stroke-width:0.8;" x="342.547366" xlink:href="#m6be2eaa1a8" y="273.312"/>
      </g>
     </g>
     <g id="text_6">
      <!-- 15 -->
      <g transform="translate(336.248929 287.802625)scale(0.1 -0.1)">
       <use xlink:href="#IPAexGothic-49"/>
       <use x="62.988281" xlink:href="#IPAexGothic-53"/>
      </g>
     </g>
    </g>
    <g id="xtick_7">
     <g id="line2d_7">
      <g>
       <use style="stroke:#000000;stroke-width:0.8;" x="395.123001" xlink:href="#m6be2eaa1a8" y="273.312"/>
      </g>
     </g>
     <g id="text_7">
      <!-- May -->
      <defs>
       <path d="M 48.78125 50.78125 
L 24.609375 -7.625 
Q 19.96875 -18.796875 8.59375 -18.796875 
L 7.46875 -18.796875 
L 5.375 -10.984375 
L 6.984375 -10.984375 
Q 15.140625 -10.984375 17.96875 -3.71875 
L 21.1875 4.296875 
L 0.59375 50.78125 
L 10.296875 50.78125 
L 21.296875 22.796875 
Q 23.875 16.015625 25.09375 12.203125 
L 25.390625 12.203125 
Q 27.34375 18.265625 29.109375 22.796875 
L 39.5 50.78125 
z
" id="IPAexGothic-121"/>
      </defs>
      <g transform="translate(385.40347 287.802625)scale(0.1 -0.1)">
       <use xlink:href="#IPAexGothic-77"/>
       <use x="90.185547" xlink:href="#IPAexGothic-97"/>
       <use x="145.166016" xlink:href="#IPAexGothic-121"/>
      </g>
     </g>
    </g>
    <g id="text_8">
     <!-- 2020-May -->
     <defs>
      <path d="M 57.171875 0.984375 
L 6.984375 0.984375 
L 6.984375 9.28125 
Q 12.890625 23.046875 29.59375 34.421875 
L 32.375 36.28125 
Q 40.921875 42.140625 43.609375 45.40625 
Q 46.6875 49.265625 46.6875 53.8125 
Q 46.6875 58.9375 43.0625 62.546875 
Q 39.0625 66.546875 32.5625 66.546875 
Q 19.53125 66.546875 15.484375 52 
L 7.765625 54.78125 
Q 13.328125 73.828125 33.0625 73.828125 
Q 43.84375 73.828125 50.25 67.4375 
Q 55.859375 61.671875 55.859375 53.515625 
Q 55.859375 47.46875 52.25 42.53125 
Q 48.921875 37.75 36.96875 30.28125 
L 34.859375 29 
Q 19.625 19.578125 15.28125 8.890625 
L 57.171875 8.890625 
z
" id="IPAexGothic-50"/>
      <path d="M 31.84375 73.828125 
Q 45.015625 73.828125 52.09375 61.625 
Q 57.71875 51.953125 57.71875 36.625 
Q 57.71875 21.4375 52.09375 11.578125 
Q 45.125 -0.484375 31.5 -0.484375 
Q 17.921875 -0.484375 10.9375 11.578125 
Q 5.328125 21.4375 5.328125 36.71875 
Q 5.328125 58.015625 15.625 67.71875 
Q 22.171875 73.828125 31.84375 73.828125 
z
M 31.5 66.65625 
Q 23.6875 66.65625 19.1875 58.734375 
Q 14.59375 50.734375 14.59375 36.625 
Q 14.59375 22.75 19.09375 14.796875 
Q 23.640625 6.984375 31.5 6.984375 
Q 40.921875 6.984375 45.453125 18.015625 
Q 48.4375 25.34375 48.4375 37.109375 
Q 48.4375 50.875 43.84375 58.734375 
Q 39.203125 66.65625 31.5 66.65625 
z
" id="IPAexGothic-48"/>
      <path d="M 30.765625 26.609375 
L 4.984375 26.609375 
L 4.984375 34.421875 
L 30.765625 34.421875 
z
" id="IPAexGothic-45"/>
     </defs>
     <g transform="translate(354.599688 300.19325)scale(0.1 -0.1)">
      <use xlink:href="#IPAexGothic-50"/>
      <use x="62.988281" xlink:href="#IPAexGothic-48"/>
      <use x="125.976562" xlink:href="#IPAexGothic-50"/>
      <use x="188.964844" xlink:href="#IPAexGothic-48"/>
      <use x="251.953125" xlink:href="#IPAexGothic-45"/>
      <use x="287.744141" xlink:href="#IPAexGothic-77"/>
      <use x="377.929688" xlink:href="#IPAexGothic-97"/>
      <use x="432.910156" xlink:href="#IPAexGothic-121"/>
     </g>
    </g>
   </g>
   <g id="matplotlib.axis_2">
    <g id="ytick_1">
     <g id="line2d_8">
      <defs>
       <path d="M 0 0 
L -3.5 0 
" id="m325bd270d3" style="stroke:#000000;stroke-width:0.8;"/>
      </defs>
      <g>
       <use style="stroke:#000000;stroke-width:0.8;" x="45.692188" xlink:href="#m325bd270d3" y="273.312"/>
      </g>
     </g>
     <g id="text_9">
      <!-- 0 -->
      <g transform="translate(32.39375 277.057312)scale(0.1 -0.1)">
       <use xlink:href="#IPAexGothic-48"/>
      </g>
     </g>
    </g>
    <g id="ytick_2">
     <g id="line2d_9">
      <g>
       <use style="stroke:#000000;stroke-width:0.8;" x="45.692188" xlink:href="#m325bd270d3" y="235.975524"/>
      </g>
     </g>
     <g id="text_10">
      <!-- 2000 -->
      <g transform="translate(13.498438 239.720836)scale(0.1 -0.1)">
       <use xlink:href="#IPAexGothic-50"/>
       <use x="62.988281" xlink:href="#IPAexGothic-48"/>
       <use x="125.976562" xlink:href="#IPAexGothic-48"/>
       <use x="188.964844" xlink:href="#IPAexGothic-48"/>
      </g>
     </g>
    </g>
    <g id="ytick_3">
     <g id="line2d_10">
      <g>
       <use style="stroke:#000000;stroke-width:0.8;" x="45.692188" xlink:href="#m325bd270d3" y="198.639048"/>
      </g>
     </g>
     <g id="text_11">
      <!-- 4000 -->
      <defs>
       <path d="M 59.578125 18.109375 
L 47.796875 18.109375 
L 47.796875 0.984375 
L 39.796875 0.984375 
L 39.796875 18.109375 
L 3.078125 18.109375 
L 3.078125 26.125 
L 38.375 73.09375 
L 47.796875 73.09375 
L 47.796875 25.53125 
L 59.578125 25.53125 
z
M 40.28125 64.203125 
L 39.984375 64.203125 
Q 35.59375 57.125 31.296875 51.3125 
L 11.859375 25.53125 
L 39.796875 25.53125 
L 39.796875 49.125 
Q 39.796875 54.390625 40.28125 64.203125 
z
" id="IPAexGothic-52"/>
      </defs>
      <g transform="translate(13.498438 202.38436)scale(0.1 -0.1)">
       <use xlink:href="#IPAexGothic-52"/>
       <use x="62.988281" xlink:href="#IPAexGothic-48"/>
       <use x="125.976562" xlink:href="#IPAexGothic-48"/>
       <use x="188.964844" xlink:href="#IPAexGothic-48"/>
      </g>
     </g>
    </g>
    <g id="ytick_4">
     <g id="line2d_11">
      <g>
       <use style="stroke:#000000;stroke-width:0.8;" x="45.692188" xlink:href="#m325bd270d3" y="161.302572"/>
      </g>
     </g>
     <g id="text_12">
      <!-- 6000 -->
      <defs>
       <path d="M 16.5 36.375 
Q 23.578125 46.578125 34.90625 46.578125 
Q 45.40625 46.578125 51.8125 39.265625 
Q 57.421875 32.90625 57.421875 23.78125 
Q 57.421875 13.8125 51.125 6.78125 
Q 44.578125 -0.484375 34.03125 -0.484375 
Q 21.484375 -0.484375 14.40625 9.078125 
Q 7.515625 18.40625 7.515625 34.8125 
Q 7.515625 53.515625 15.828125 64.203125 
Q 23.34375 73.828125 35.5 73.828125 
Q 49.859375 73.828125 56.390625 62.890625 
L 49.21875 58.984375 
Q 45.21875 66.65625 35.9375 66.65625 
Q 17.484375 66.65625 16.109375 36.375 
z
M 33.453125 39.796875 
Q 26.3125 39.796875 21.625 34.46875 
Q 17.4375 29.6875 17.4375 24.078125 
Q 17.4375 18.0625 21.140625 13.1875 
Q 26.125 6.6875 33.734375 6.6875 
Q 41.703125 6.6875 45.953125 13.1875 
Q 48.828125 17.625 48.828125 23.484375 
Q 48.828125 30.375 45.015625 34.8125 
Q 40.625 39.796875 33.453125 39.796875 
z
" id="IPAexGothic-54"/>
      </defs>
      <g transform="translate(13.498438 165.047884)scale(0.1 -0.1)">
       <use xlink:href="#IPAexGothic-54"/>
       <use x="62.988281" xlink:href="#IPAexGothic-48"/>
       <use x="125.976562" xlink:href="#IPAexGothic-48"/>
       <use x="188.964844" xlink:href="#IPAexGothic-48"/>
      </g>
     </g>
    </g>
    <g id="ytick_5">
     <g id="line2d_12">
      <g>
       <use style="stroke:#000000;stroke-width:0.8;" x="45.692188" xlink:href="#m325bd270d3" y="123.966095"/>
      </g>
     </g>
     <g id="text_13">
      <!-- 8000 -->
      <defs>
       <path d="M 39.703125 37.890625 
Q 57.8125 31.734375 57.8125 18.703125 
Q 57.8125 8.453125 48.4375 3.078125 
Q 41.609375 -0.875 31.5 -0.875 
Q 21.34375 -0.875 14.5 3.078125 
Q 5.421875 8.296875 5.421875 18.40625 
Q 5.421875 31.0625 22.015625 37.203125 
L 22.015625 37.5 
Q 7.515625 42.71875 7.515625 54.828125 
Q 7.515625 64.0625 15.328125 69.625 
Q 21.96875 74.3125 31.546875 74.3125 
Q 42.234375 74.3125 48.921875 68.796875 
Q 55.515625 63.578125 55.515625 55.71875 
Q 55.515625 42.28125 39.703125 38.1875 
z
M 31.59375 41.015625 
Q 46.828125 44.625 46.828125 55.125 
Q 46.828125 61.1875 41.796875 64.84375 
Q 37.703125 67.921875 31.5 67.921875 
Q 25.09375 67.921875 20.796875 64.5 
Q 16.40625 60.890625 16.40625 55.03125 
Q 16.40625 49.21875 21.09375 45.703125 
Q 23.34375 43.890625 26.90625 42.53125 
Q 31 40.875 31.59375 41.015625 
z
M 30.90625 34.515625 
Q 14.40625 30.171875 14.40625 19 
Q 14.40625 12.109375 20.515625 8.6875 
Q 25.09375 6.109375 31.390625 6.109375 
Q 40.234375 6.109375 45.015625 10.890625 
Q 48.53125 14.40625 48.53125 19.53125 
Q 48.53125 24.90625 43.65625 28.90625 
Q 40.765625 31.15625 36.71875 32.8125 
Q 31.984375 34.71875 30.90625 34.515625 
z
" id="IPAexGothic-56"/>
      </defs>
      <g transform="translate(13.498438 127.711408)scale(0.1 -0.1)">
       <use xlink:href="#IPAexGothic-56"/>
       <use x="62.988281" xlink:href="#IPAexGothic-48"/>
       <use x="125.976562" xlink:href="#IPAexGothic-48"/>
       <use x="188.964844" xlink:href="#IPAexGothic-48"/>
      </g>
     </g>
    </g>
    <g id="ytick_6">
     <g id="line2d_13">
      <g>
       <use style="stroke:#000000;stroke-width:0.8;" x="45.692188" xlink:href="#m325bd270d3" y="86.629619"/>
      </g>
     </g>
     <g id="text_14">
      <!-- 10000 -->
      <g transform="translate(7.2 90.374932)scale(0.1 -0.1)">
       <use xlink:href="#IPAexGothic-49"/>
       <use x="62.988281" xlink:href="#IPAexGothic-48"/>
       <use x="125.976562" xlink:href="#IPAexGothic-48"/>
       <use x="188.964844" xlink:href="#IPAexGothic-48"/>
       <use x="251.953125" xlink:href="#IPAexGothic-48"/>
      </g>
     </g>
    </g>
    <g id="ytick_7">
     <g id="line2d_14">
      <g>
       <use style="stroke:#000000;stroke-width:0.8;" x="45.692188" xlink:href="#m325bd270d3" y="49.293143"/>
      </g>
     </g>
     <g id="text_15">
      <!-- 12000 -->
      <g transform="translate(7.2 53.038456)scale(0.1 -0.1)">
       <use xlink:href="#IPAexGothic-49"/>
       <use x="62.988281" xlink:href="#IPAexGothic-50"/>
       <use x="125.976562" xlink:href="#IPAexGothic-48"/>
       <use x="188.964844" xlink:href="#IPAexGothic-48"/>
       <use x="251.953125" xlink:href="#IPAexGothic-48"/>
      </g>
     </g>
    </g>
    <g id="ytick_8">
     <g id="line2d_15">
      <g>
       <use style="stroke:#000000;stroke-width:0.8;" x="45.692188" xlink:href="#m325bd270d3" y="11.956667"/>
      </g>
     </g>
     <g id="text_16">
      <!-- 14000 -->
      <g transform="translate(7.2 15.70198)scale(0.1 -0.1)">
       <use xlink:href="#IPAexGothic-49"/>
       <use x="62.988281" xlink:href="#IPAexGothic-52"/>
       <use x="125.976562" xlink:href="#IPAexGothic-48"/>
       <use x="188.964844" xlink:href="#IPAexGothic-48"/>
       <use x="251.953125" xlink:href="#IPAexGothic-48"/>
      </g>
     </g>
    </g>
   </g>
   <g id="patch_201">
    <path d="M 45.692188 273.312 
L 45.692188 7.2 
" style="fill:none;stroke:#000000;stroke-linecap:square;stroke-linejoin:miter;stroke-width:0.8;"/>
   </g>
   <g id="patch_202">
    <path d="M 402.812188 273.312 
L 402.812188 7.2 
" style="fill:none;stroke:#000000;stroke-linecap:square;stroke-linejoin:miter;stroke-width:0.8;"/>
   </g>
   <g id="patch_203">
    <path d="M 45.692188 273.312 
L 402.812188 273.312 
" style="fill:none;stroke:#000000;stroke-linecap:square;stroke-linejoin:miter;stroke-width:0.8;"/>
   </g>
   <g id="patch_204">
    <path d="M 45.692188 7.2 
L 402.812188 7.2 
" style="fill:none;stroke:#000000;stroke-linecap:square;stroke-linejoin:miter;stroke-width:0.8;"/>
   </g>
   <g id="legend_1">
    <g id="patch_205">
     <path d="M 52.692188 44.340625 
L 170.534375 44.340625 
Q 172.534375 44.340625 172.534375 42.340625 
L 172.534375 14.2 
Q 172.534375 12.2 170.534375 12.2 
L 52.692188 12.2 
Q 50.692188 12.2 50.692188 14.2 
L 50.692188 42.340625 
Q 50.692188 44.340625 52.692188 44.340625 
z
" style="fill:#ffffff;opacity:0.8;stroke:#cccccc;stroke-linejoin:miter;"/>
    </g>
    <g id="patch_206">
     <path d="M 54.692188 23.870312 
L 74.692188 23.870312 
L 74.692188 16.870312 
L 54.692188 16.870312 
z
" style="fill:#ffbb78;"/>
    </g>
    <g id="text_17">
     <!-- Confirmed (Japan) -->
     <defs>
      <path d="M 68.015625 17 
Q 65.328125 10.84375 60.296875 6.6875 
Q 51.765625 -0.484375 39.984375 -0.484375 
Q 24.8125 -0.484375 14.984375 10.203125 
Q 5.90625 20.21875 5.90625 36.421875 
Q 5.90625 53.21875 15.828125 63.71875 
Q 25.296875 73.828125 39.59375 73.828125 
Q 59.578125 73.828125 67.53125 56.6875 
L 59.515625 52.984375 
Q 53.515625 66.21875 39.703125 66.21875 
Q 29.546875 66.21875 22.703125 58.5 
Q 15.53125 50.25 15.53125 36.28125 
Q 15.53125 24.21875 21.625 16.5 
Q 28.765625 7.375 40.046875 7.375 
Q 54 7.375 60.59375 20.609375 
z
" id="IPAexGothic-67"/>
      <path d="M 29.984375 52.203125 
Q 40.53125 52.203125 47.75 45.125 
Q 55.171875 37.703125 55.171875 25.59375 
Q 55.171875 13.875 47.90625 6.59375 
Q 40.765625 -0.484375 29.984375 -0.484375 
Q 19.1875 -0.484375 12.203125 6.5 
Q 4.890625 13.765625 4.890625 25.875 
Q 4.890625 37.703125 12.3125 45.125 
Q 19.390625 52.203125 29.984375 52.203125 
z
M 29.984375 45.609375 
Q 23.734375 45.609375 19.390625 41.109375 
Q 13.875 35.59375 13.875 25.78125 
Q 13.875 16.109375 19.28125 10.6875 
Q 23.6875 6.296875 29.984375 6.296875 
Q 36.421875 6.296875 40.765625 10.796875 
Q 46.1875 16.21875 46.1875 26.125 
Q 46.1875 35.453125 40.671875 41.109375 
Q 36.1875 45.609375 29.984375 45.609375 
z
" id="IPAexGothic-111"/>
      <path d="M 52 0.984375 
L 43.40625 0.984375 
L 43.40625 31.890625 
Q 43.40625 44.578125 32.90625 44.578125 
Q 22.3125 44.578125 17.390625 31.890625 
L 17.390625 0.984375 
L 8.796875 0.984375 
L 8.796875 50.78125 
L 16.796875 50.78125 
L 16.796875 41.796875 
Q 23.828125 51.8125 34.71875 51.8125 
Q 52 51.8125 52 32.375 
z
" id="IPAexGothic-110"/>
      <path d="M 38.375 72.21875 
L 34.8125 66.3125 
Q 31.109375 69.09375 27.203125 69.09375 
Q 18.5 69.09375 18.5 57.375 
L 18.5 50.78125 
L 32.078125 50.78125 
L 32.078125 44.671875 
L 18.5 44.671875 
L 18.5 0.984375 
L 10.015625 0.984375 
L 10.015625 44.671875 
L 1.90625 44.671875 
L 1.90625 50.78125 
L 10.015625 50.78125 
L 10.015625 57.171875 
Q 10.015625 65.4375 13.921875 70.0625 
Q 18.75 75.6875 26.703125 75.6875 
Q 33.0625 75.6875 38.375 72.21875 
z
" id="IPAexGothic-102"/>
      <path d="M 18.40625 61.375 
L 8.59375 61.375 
L 8.59375 71.390625 
L 18.40625 71.390625 
z
M 17.78125 0.984375 
L 9.1875 0.984375 
L 9.1875 50.78125 
L 17.78125 50.78125 
z
" id="IPAexGothic-105"/>
      <path d="M 78.46875 0.984375 
L 69.875 0.984375 
L 69.875 32.171875 
Q 69.875 44.828125 60.109375 44.828125 
Q 55.46875 44.828125 51.609375 40.53125 
Q 48.875 37.453125 47.796875 32.859375 
L 47.796875 0.984375 
L 39.203125 0.984375 
L 39.203125 32.28125 
Q 39.203125 44.828125 29.984375 44.828125 
Q 25.09375 44.828125 21.390625 40.53125 
Q 17.390625 36.03125 17.390625 31.890625 
L 17.390625 0.984375 
L 8.796875 0.984375 
L 8.796875 50.78125 
L 16.796875 50.78125 
L 16.796875 42.1875 
Q 21.734375 51.8125 31.6875 51.8125 
Q 42.578125 51.8125 46.1875 41.359375 
Q 51.609375 51.8125 61.765625 51.8125 
Q 69.96875 51.8125 74.5625 46 
Q 78.46875 41.21875 78.46875 32.375 
z
" id="IPAexGothic-109"/>
      <path d="M 52.984375 0.984375 
L 45.171875 0.984375 
L 45.171875 9.671875 
Q 38.140625 -0.484375 27.390625 -0.484375 
Q 18.453125 -0.484375 12.3125 5.8125 
Q 4.890625 13.1875 4.890625 25.984375 
Q 4.890625 38.53125 12.0625 45.90625 
Q 18.265625 52.203125 27.390625 52.203125 
Q 37.25 52.203125 44.484375 43.890625 
L 44.484375 74.90625 
L 52.984375 74.90625 
z
M 44.484375 20.359375 
L 44.484375 32.765625 
Q 44.484375 37.703125 38.375 42.28125 
Q 34.078125 45.40625 28.953125 45.40625 
Q 23.1875 45.40625 19.1875 41.40625 
Q 13.875 36.078125 13.875 26.21875 
Q 13.875 17.328125 18.265625 11.71875 
Q 22.515625 6.390625 28.859375 6.390625 
Q 36.28125 6.390625 41.5 13.671875 
Q 44.484375 17.71875 44.484375 20.359375 
z
" id="IPAexGothic-100"/>
      <path id="IPAexGothic-32"/>
      <path d="M 30.125 -15.875 
L 25.828125 -18.21875 
Q 7.625 1.078125 7.625 29.296875 
Q 7.625 57.46875 25.828125 76.703125 
L 30.125 74.421875 
Q 15.71875 55.03125 15.71875 29.390625 
Q 15.71875 3.171875 30.125 -15.875 
z
" id="IPAexGothic-40"/>
      <path d="M 28.421875 72.40625 
L 28.421875 19.28125 
Q 28.421875 -0.484375 11.921875 -0.484375 
Q 4.734375 -0.484375 -1.953125 3.265625 
L 1.3125 10.0625 
Q 5.90625 6.984375 10.84375 6.984375 
Q 19.53125 6.984375 19.53125 18.796875 
L 19.53125 72.40625 
z
" id="IPAexGothic-74"/>
      <path d="M 7.28125 76.703125 
Q 25.59375 57.375 25.59375 29.296875 
Q 25.59375 1.171875 7.28125 -18.21875 
L 2.984375 -15.875 
Q 17.484375 3.375 17.484375 29.390625 
Q 17.484375 54.828125 2.984375 74.421875 
z
" id="IPAexGothic-41"/>
     </defs>
     <g transform="translate(82.692188 23.870312)scale(0.1 -0.1)">
      <use xlink:href="#IPAexGothic-67"/>
      <use x="72.509766" xlink:href="#IPAexGothic-111"/>
      <use x="132.910156" xlink:href="#IPAexGothic-110"/>
      <use x="193.310547" xlink:href="#IPAexGothic-102"/>
      <use x="223.925781" xlink:href="#IPAexGothic-105"/>
      <use x="250.927734" xlink:href="#IPAexGothic-114"/>
      <use x="287.939453" xlink:href="#IPAexGothic-109"/>
      <use x="375.048828" xlink:href="#IPAexGothic-101"/>
      <use x="431.933594" xlink:href="#IPAexGothic-100"/>
      <use x="494.335938" xlink:href="#IPAexGothic-32"/>
      <use x="521.337891" xlink:href="#IPAexGothic-40"/>
      <use x="554.638672" xlink:href="#IPAexGothic-74"/>
      <use x="592.626953" xlink:href="#IPAexGothic-97"/>
      <use x="647.607422" xlink:href="#IPAexGothic-112"/>
      <use x="709.716797" xlink:href="#IPAexGothic-97"/>
      <use x="764.697266" xlink:href="#IPAexGothic-110"/>
      <use x="825.097656" xlink:href="#IPAexGothic-41"/>
     </g>
    </g>
    <g id="patch_207">
     <path d="M 54.692188 38.440625 
L 74.692188 38.440625 
L 74.692188 31.440625 
L 54.692188 31.440625 
z
" style="fill:#d62728;"/>
    </g>
    <g id="text_18">
     <!-- Deaths (Japan) -->
     <defs>
      <path d="M 9.515625 72.40625 
L 31 72.40625 
Q 49.359375 72.40625 59.234375 63.28125 
Q 69.625 53.8125 69.625 36.8125 
Q 69.625 16.359375 54.9375 6.890625 
Q 45.703125 0.984375 30.328125 0.984375 
L 9.515625 0.984375 
z
M 18.3125 8.6875 
L 29.59375 8.6875 
Q 60.203125 8.6875 60.203125 36.8125 
Q 60.203125 64.796875 30.125 64.796875 
L 18.3125 64.796875 
z
" id="IPAexGothic-68"/>
      <path d="M 33.203125 3.765625 
Q 27.640625 -0.09375 21.828125 -0.09375 
Q 10.203125 -0.09375 10.203125 12.984375 
L 10.203125 44.671875 
L 3.421875 44.671875 
L 3.421875 50.78125 
L 10.203125 50.78125 
L 10.203125 61.96875 
L 18.40625 66.0625 
L 18.40625 50.78125 
L 32.234375 50.78125 
L 32.234375 44.671875 
L 18.40625 44.671875 
L 18.40625 14.15625 
Q 18.40625 6.5 23.640625 6.5 
Q 27.15625 6.5 30.328125 9.1875 
z
" id="IPAexGothic-116"/>
      <path d="M 52.296875 0.984375 
L 43.703125 0.984375 
L 43.703125 31.890625 
Q 43.703125 44.578125 33.296875 44.578125 
Q 22.609375 44.578125 17.671875 31.890625 
L 17.671875 0.984375 
L 9.078125 0.984375 
L 9.078125 74.90625 
L 17.671875 74.90625 
L 17.671875 42.28125 
Q 24.46875 51.8125 35.109375 51.8125 
Q 52.296875 51.8125 52.296875 32.375 
z
" id="IPAexGothic-104"/>
      <path d="M 34.90625 39.796875 
Q 30.28125 45.796875 23.1875 45.796875 
Q 13.921875 45.796875 13.921875 38.671875 
Q 13.921875 33.640625 23.921875 30.375 
L 27.203125 29.296875 
Q 41.40625 24.65625 41.40625 13.96875 
Q 41.40625 6.78125 35.5 2.6875 
Q 30.8125 -0.484375 23.390625 -0.484375 
Q 11.96875 -0.484375 4 7.859375 
L 9.421875 12.796875 
Q 15.578125 6.203125 23.6875 6.203125 
Q 33.296875 6.203125 33.296875 13.671875 
Q 33.296875 19.34375 22.703125 23.09375 
L 19.28125 24.265625 
Q 5.90625 28.953125 5.90625 37.984375 
Q 5.90625 43.703125 9.8125 47.609375 
Q 14.5 52.296875 22.703125 52.296875 
Q 33.6875 52.296875 40.71875 44.671875 
z
" id="IPAexGothic-115"/>
     </defs>
     <g transform="translate(82.692188 38.440625)scale(0.1 -0.1)">
      <use xlink:href="#IPAexGothic-68"/>
      <use x="75.683594" xlink:href="#IPAexGothic-101"/>
      <use x="132.568359" xlink:href="#IPAexGothic-97"/>
      <use x="187.548828" xlink:href="#IPAexGothic-116"/>
      <use x="222.167969" xlink:href="#IPAexGothic-104"/>
      <use x="282.861328" xlink:href="#IPAexGothic-115"/>
      <use x="329.052734" xlink:href="#IPAexGothic-32"/>
      <use x="356.054688" xlink:href="#IPAexGothic-40"/>
      <use x="389.355469" xlink:href="#IPAexGothic-74"/>
      <use x="427.34375" xlink:href="#IPAexGothic-97"/>
      <use x="482.324219" xlink:href="#IPAexGothic-112"/>
      <use x="544.433594" xlink:href="#IPAexGothic-97"/>
      <use x="599.414062" xlink:href="#IPAexGothic-110"/>
      <use x="659.814453" xlink:href="#IPAexGothic-41"/>
     </g>
    </g>
   </g>
  </g>
 </g>
 <defs>
  <clipPath id="p16c60a26e3">
   <rect height="266.112" width="357.12" x="45.692188" y="7.2"/>
  </clipPath>
 </defs>
</svg>
