<?xml version="1.0" encoding="utf-8" standalone="no"?>
<!DOCTYPE svg PUBLIC "-//W3C//DTD SVG 1.1//EN"
  "http://www.w3.org/Graphics/SVG/1.1/DTD/svg11.dtd">
<!-- Created with matplotlib (https://matplotlib.org/) -->
<svg height="309.29325pt" version="1.1" viewBox="0 0 410.012187 309.29325" width="410.012187pt" xmlns="http://www.w3.org/2000/svg" xmlns:xlink="http://www.w3.org/1999/xlink">
 <defs>
  <style type="text/css">
*{stroke-linecap:butt;stroke-linejoin:round;}
  </style>
 </defs>
 <g id="figure_1">
  <g id="patch_1">
   <path d="M 0 309.29325 
L 410.012187 309.29325 
L 410.012187 0 
L 0 0 
z
" style="fill:#ffffff;"/>
  </g>
  <g id="axes_1">
   <g id="patch_2">
    <path d="M 45.692188 273.312 
L 402.812188 273.312 
L 402.812188 7.2 
L 45.692188 7.2 
z
" style="fill:#ffffff;"/>
   </g>
   <g id="patch_3">
    <path clip-path="url(#p43847fd014)" d="M 61.924915 273.312 
L 68.982622 273.312 
L 68.982622 258.643582 
L 61.924915 258.643582 
z
" style="fill:#1f77b4;"/>
   </g>
   <g id="patch_4">
    <path clip-path="url(#p43847fd014)" d="M 70.747049 273.312 
L 77.804757 273.312 
L 77.804757 258.244299 
L 70.747049 258.244299 
z
" style="fill:#1f77b4;"/>
   </g>
   <g id="patch_5">
    <path clip-path="url(#p43847fd014)" d="M 97.213452 273.312 
L 104.27116 273.312 
L 104.27116 253.6 
L 97.213452 253.6 
z
" style="fill:#1f77b4;"/>
   </g>
   <g id="patch_6">
    <path clip-path="url(#p43847fd014)" d="M 114.857721 273.312 
L 121.915429 273.312 
L 121.915429 253.263761 
L 114.857721 253.263761 
z
" style="fill:#1f77b4;"/>
   </g>
   <g id="patch_7">
    <path clip-path="url(#p43847fd014)" d="M 123.679855 273.312 
L 130.737563 273.312 
L 130.737563 253.053612 
L 123.679855 253.053612 
z
" style="fill:#1f77b4;"/>
   </g>
   <g id="patch_8">
    <path clip-path="url(#p43847fd014)" d="M 132.50199 273.312 
L 139.559697 273.312 
L 139.559697 252.759403 
L 132.50199 252.759403 
z
" style="fill:#1f77b4;"/>
   </g>
   <g id="patch_9">
    <path clip-path="url(#p43847fd014)" d="M 158.968393 273.312 
L 166.026101 273.312 
L 166.026101 247.022328 
L 158.968393 247.022328 
z
" style="fill:#1f77b4;"/>
   </g>
   <g id="patch_10">
    <path clip-path="url(#p43847fd014)" d="M 167.790527 273.312 
L 174.848235 273.312 
L 174.848235 246.265791 
L 167.790527 246.265791 
z
" style="fill:#1f77b4;"/>
   </g>
   <g id="patch_11">
    <path clip-path="url(#p43847fd014)" d="M 176.612662 273.312 
L 183.670369 273.312 
L 183.670369 246.076657 
L 176.612662 246.076657 
z
" style="fill:#1f77b4;"/>
   </g>
   <g id="patch_12">
    <path clip-path="url(#p43847fd014)" d="M 185.434796 273.312 
L 192.492504 273.312 
L 192.492504 243.218627 
L 185.434796 243.218627 
z
" style="fill:#1f77b4;"/>
   </g>
   <g id="patch_13">
    <path clip-path="url(#p43847fd014)" d="M 194.256931 273.312 
L 201.314638 273.312 
L 201.314638 241.327284 
L 194.256931 241.327284 
z
" style="fill:#1f77b4;"/>
   </g>
   <g id="patch_14">
    <path clip-path="url(#p43847fd014)" d="M 203.079065 273.312 
L 210.136772 273.312 
L 210.136772 239.541015 
L 203.079065 239.541015 
z
" style="fill:#1f77b4;"/>
   </g>
   <g id="patch_15">
    <path clip-path="url(#p43847fd014)" d="M 211.901199 273.312 
L 218.958907 273.312 
L 218.958907 237.523582 
L 211.901199 237.523582 
z
" style="fill:#1f77b4;"/>
   </g>
   <g id="patch_16">
    <path clip-path="url(#p43847fd014)" d="M 220.723334 273.312 
L 227.781041 273.312 
L 227.781041 236.704 
L 220.723334 236.704 
z
" style="fill:#1f77b4;"/>
   </g>
   <g id="patch_17">
    <path clip-path="url(#p43847fd014)" d="M 229.545468 273.312 
L 236.603176 273.312 
L 236.603176 234.518448 
L 229.545468 234.518448 
z
" style="fill:#1f77b4;"/>
   </g>
   <g id="patch_18">
    <path clip-path="url(#p43847fd014)" d="M 238.367603 273.312 
L 245.42531 273.312 
L 245.42531 233.593791 
L 238.367603 233.593791 
z
" style="fill:#1f77b4;"/>
   </g>
   <g id="patch_19">
    <path clip-path="url(#p43847fd014)" d="M 247.189737 273.312 
L 254.247444 273.312 
L 254.247444 230.063284 
L 247.189737 230.063284 
z
" style="fill:#1f77b4;"/>
   </g>
   <g id="patch_20">
    <path clip-path="url(#p43847fd014)" d="M 256.011871 273.312 
L 263.069579 273.312 
L 263.069579 226.89003 
L 256.011871 226.89003 
z
" style="fill:#1f77b4;"/>
   </g>
   <g id="patch_21">
    <path clip-path="url(#p43847fd014)" d="M 264.834006 273.312 
L 271.891713 273.312 
L 271.891713 224.15809 
L 264.834006 224.15809 
z
" style="fill:#1f77b4;"/>
   </g>
   <g id="patch_22">
    <path clip-path="url(#p43847fd014)" d="M 273.65614 273.312 
L 280.713848 273.312 
L 280.713848 220.417433 
L 273.65614 220.417433 
z
" style="fill:#1f77b4;"/>
   </g>
   <g id="patch_23">
    <path clip-path="url(#p43847fd014)" d="M 282.478274 273.312 
L 289.535982 273.312 
L 289.535982 218.4 
L 282.478274 218.4 
z
" style="fill:#1f77b4;"/>
   </g>
   <g id="patch_24">
    <path clip-path="url(#p43847fd014)" d="M 291.300409 273.312 
L 298.358116 273.312 
L 298.358116 216.90794 
L 291.300409 216.90794 
z
" style="fill:#1f77b4;"/>
   </g>
   <g id="patch_25">
    <path clip-path="url(#p43847fd014)" d="M 300.122543 273.312 
L 307.180251 273.312 
L 307.180251 136.315701 
L 300.122543 136.315701 
z
" style="fill:#1f77b4;"/>
   </g>
   <g id="patch_26">
    <path clip-path="url(#p43847fd014)" d="M 308.944678 273.312 
L 316.002385 273.312 
L 316.002385 130.893851 
L 308.944678 130.893851 
z
" style="fill:#1f77b4;"/>
   </g>
   <g id="patch_27">
    <path clip-path="url(#p43847fd014)" d="M 317.766812 273.312 
L 324.82452 273.312 
L 324.82452 116.204418 
L 317.766812 116.204418 
z
" style="fill:#1f77b4;"/>
   </g>
   <g id="patch_28">
    <path clip-path="url(#p43847fd014)" d="M 326.588946 273.312 
L 333.646654 273.312 
L 333.646654 104.583164 
L 326.588946 104.583164 
z
" style="fill:#1f77b4;"/>
   </g>
   <g id="patch_29">
    <path clip-path="url(#p43847fd014)" d="M 335.411081 273.312 
L 342.468788 273.312 
L 342.468788 101.49397 
L 335.411081 101.49397 
z
" style="fill:#1f77b4;"/>
   </g>
   <g id="patch_30">
    <path clip-path="url(#p43847fd014)" d="M 344.233215 273.312 
L 351.290923 273.312 
L 351.290923 99.182328 
L 344.233215 99.182328 
z
" style="fill:#1f77b4;"/>
   </g>
   <g id="patch_31">
    <path clip-path="url(#p43847fd014)" d="M 353.05535 273.312 
L 360.113057 273.312 
L 360.113057 71.568716 
L 353.05535 71.568716 
z
" style="fill:#1f77b4;"/>
   </g>
   <g id="patch_32">
    <path clip-path="url(#p43847fd014)" d="M 361.877484 273.312 
L 368.935191 273.312 
L 368.935191 62.658388 
L 361.877484 62.658388 
z
" style="fill:#1f77b4;"/>
   </g>
   <g id="patch_33">
    <path clip-path="url(#p43847fd014)" d="M 370.699618 273.312 
L 377.757326 273.312 
L 377.757326 58.854687 
L 370.699618 58.854687 
z
" style="fill:#1f77b4;"/>
   </g>
   <g id="patch_34">
    <path clip-path="url(#p43847fd014)" d="M 379.521753 273.312 
L 386.57946 273.312 
L 386.57946 19.872 
L 379.521753 19.872 
z
" style="fill:#1f77b4;"/>
   </g>
   <g id="patch_35">
    <path clip-path="url(#p43847fd014)" d="M 61.924915 273.312 
L 68.982622 273.312 
L 68.982622 272.786627 
L 61.924915 272.786627 
z
" style="fill:#ff7f0e;"/>
   </g>
   <g id="patch_36">
    <path clip-path="url(#p43847fd014)" d="M 70.747049 273.312 
L 77.804757 273.312 
L 77.804757 272.786627 
L 70.747049 272.786627 
z
" style="fill:#ff7f0e;"/>
   </g>
   <g id="patch_37">
    <path clip-path="url(#p43847fd014)" d="M 97.213452 273.312 
L 104.27116 273.312 
L 104.27116 272.765612 
L 97.213452 272.765612 
z
" style="fill:#ff7f0e;"/>
   </g>
   <g id="patch_38">
    <path clip-path="url(#p43847fd014)" d="M 114.857721 273.312 
L 121.915429 273.312 
L 121.915429 272.723582 
L 114.857721 272.723582 
z
" style="fill:#ff7f0e;"/>
   </g>
   <g id="patch_39">
    <path clip-path="url(#p43847fd014)" d="M 123.679855 273.312 
L 130.737563 273.312 
L 130.737563 272.702567 
L 123.679855 272.702567 
z
" style="fill:#ff7f0e;"/>
   </g>
   <g id="patch_40">
    <path clip-path="url(#p43847fd014)" d="M 132.50199 273.312 
L 139.559697 273.312 
L 139.559697 272.618507 
L 132.50199 272.618507 
z
" style="fill:#ff7f0e;"/>
   </g>
   <g id="patch_41">
    <path clip-path="url(#p43847fd014)" d="M 158.968393 273.312 
L 166.026101 273.312 
L 166.026101 272.072119 
L 158.968393 272.072119 
z
" style="fill:#ff7f0e;"/>
   </g>
   <g id="patch_42">
    <path clip-path="url(#p43847fd014)" d="M 167.790527 273.312 
L 174.848235 273.312 
L 174.848235 271.925015 
L 167.790527 271.925015 
z
" style="fill:#ff7f0e;"/>
   </g>
   <g id="patch_43">
    <path clip-path="url(#p43847fd014)" d="M 176.612662 273.312 
L 183.670369 273.312 
L 183.670369 271.77791 
L 176.612662 271.77791 
z
" style="fill:#ff7f0e;"/>
   </g>
   <g id="patch_44">
    <path clip-path="url(#p43847fd014)" d="M 185.434796 273.312 
L 192.492504 273.312 
L 192.492504 271.546746 
L 185.434796 271.546746 
z
" style="fill:#ff7f0e;"/>
   </g>
   <g id="patch_45">
    <path clip-path="url(#p43847fd014)" d="M 194.256931 273.312 
L 201.314638 273.312 
L 201.314638 271.357612 
L 194.256931 271.357612 
z
" style="fill:#ff7f0e;"/>
   </g>
   <g id="patch_46">
    <path clip-path="url(#p43847fd014)" d="M 203.079065 273.312 
L 210.136772 273.312 
L 210.136772 271.105433 
L 203.079065 271.105433 
z
" style="fill:#ff7f0e;"/>
   </g>
   <g id="patch_47">
    <path clip-path="url(#p43847fd014)" d="M 211.901199 273.312 
L 218.958907 273.312 
L 218.958907 270.53803 
L 211.901199 270.53803 
z
" style="fill:#ff7f0e;"/>
   </g>
   <g id="patch_48">
    <path clip-path="url(#p43847fd014)" d="M 220.723334 273.312 
L 227.781041 273.312 
L 227.781041 270.285851 
L 220.723334 270.285851 
z
" style="fill:#ff7f0e;"/>
   </g>
   <g id="patch_49">
    <path clip-path="url(#p43847fd014)" d="M 229.545468 273.312 
L 236.603176 273.312 
L 236.603176 270.033672 
L 229.545468 270.033672 
z
" style="fill:#ff7f0e;"/>
   </g>
   <g id="patch_50">
    <path clip-path="url(#p43847fd014)" d="M 238.367603 273.312 
L 245.42531 273.312 
L 245.42531 269.865552 
L 238.367603 269.865552 
z
" style="fill:#ff7f0e;"/>
   </g>
   <g id="patch_51">
    <path clip-path="url(#p43847fd014)" d="M 247.189737 273.312 
L 254.247444 273.312 
L 254.247444 269.403224 
L 247.189737 269.403224 
z
" style="fill:#ff7f0e;"/>
   </g>
   <g id="patch_52">
    <path clip-path="url(#p43847fd014)" d="M 256.011871 273.312 
L 263.069579 273.312 
L 263.069579 268.898866 
L 256.011871 268.898866 
z
" style="fill:#ff7f0e;"/>
   </g>
   <g id="patch_53">
    <path clip-path="url(#p43847fd014)" d="M 264.834006 273.312 
L 271.891713 273.312 
L 271.891713 268.478567 
L 264.834006 268.478567 
z
" style="fill:#ff7f0e;"/>
   </g>
   <g id="patch_54">
    <path clip-path="url(#p43847fd014)" d="M 273.65614 273.312 
L 280.713848 273.312 
L 280.713848 268.289433 
L 273.65614 268.289433 
z
" style="fill:#ff7f0e;"/>
   </g>
   <g id="patch_55">
    <path clip-path="url(#p43847fd014)" d="M 282.478274 273.312 
L 289.535982 273.312 
L 289.535982 267.974209 
L 282.478274 267.974209 
z
" style="fill:#ff7f0e;"/>
   </g>
   <g id="patch_56">
    <path clip-path="url(#p43847fd014)" d="M 291.300409 273.312 
L 298.358116 273.312 
L 298.358116 267.68 
L 291.300409 267.68 
z
" style="fill:#ff7f0e;"/>
   </g>
   <g id="patch_57">
    <path clip-path="url(#p43847fd014)" d="M 300.122543 273.312 
L 307.180251 273.312 
L 307.180251 267.343761 
L 300.122543 267.343761 
z
" style="fill:#ff7f0e;"/>
   </g>
   <g id="patch_58">
    <path clip-path="url(#p43847fd014)" d="M 308.944678 273.312 
L 316.002385 273.312 
L 316.002385 266.650269 
L 308.944678 266.650269 
z
" style="fill:#ff7f0e;"/>
   </g>
   <g id="patch_59">
    <path clip-path="url(#p43847fd014)" d="M 317.766812 273.312 
L 324.82452 273.312 
L 324.82452 265.998806 
L 317.766812 265.998806 
z
" style="fill:#ff7f0e;"/>
   </g>
   <g id="patch_60">
    <path clip-path="url(#p43847fd014)" d="M 326.588946 273.312 
L 333.646654 273.312 
L 333.646654 264.758925 
L 326.588946 264.758925 
z
" style="fill:#ff7f0e;"/>
   </g>
   <g id="patch_61">
    <path clip-path="url(#p43847fd014)" d="M 335.411081 273.312 
L 342.468788 273.312 
L 342.468788 263.771224 
L 335.411081 263.771224 
z
" style="fill:#ff7f0e;"/>
   </g>
   <g id="patch_62">
    <path clip-path="url(#p43847fd014)" d="M 344.233215 273.312 
L 351.290923 273.312 
L 351.290923 263.077731 
L 344.233215 263.077731 
z
" style="fill:#ff7f0e;"/>
   </g>
   <g id="patch_63">
    <path clip-path="url(#p43847fd014)" d="M 353.05535 273.312 
L 360.113057 273.312 
L 360.113057 262.531343 
L 353.05535 262.531343 
z
" style="fill:#ff7f0e;"/>
   </g>
   <g id="patch_64">
    <path clip-path="url(#p43847fd014)" d="M 361.877484 273.312 
L 368.935191 273.312 
L 368.935191 261.396537 
L 361.877484 261.396537 
z
" style="fill:#ff7f0e;"/>
   </g>
   <g id="patch_65">
    <path clip-path="url(#p43847fd014)" d="M 370.699618 273.312 
L 377.757326 273.312 
L 377.757326 260.303761 
L 370.699618 260.303761 
z
" style="fill:#ff7f0e;"/>
   </g>
   <g id="patch_66">
    <path clip-path="url(#p43847fd014)" d="M 379.521753 273.312 
L 386.57946 273.312 
L 386.57946 259.14794 
L 379.521753 259.14794 
z
" style="fill:#ff7f0e;"/>
   </g>
   <g id="matplotlib.axis_1">
    <g id="xtick_1">
     <g id="line2d_1">
      <defs>
       <path d="M 0 0 
L 0 3.5 
" id="mf51c5e33bc" style="stroke:#000000;stroke-width:0.8;"/>
      </defs>
      <g>
       <use style="stroke:#000000;stroke-width:0.8;" x="52.220567" xlink:href="#mf51c5e33bc" y="273.312"/>
      </g>
     </g>
     <g id="text_1">
      <!-- 05 -->
      <defs>
       <path d="M 31.84375 73.828125 
Q 45.015625 73.828125 52.09375 61.625 
Q 57.71875 51.953125 57.71875 36.625 
Q 57.71875 21.4375 52.09375 11.578125 
Q 45.125 -0.484375 31.5 -0.484375 
Q 17.921875 -0.484375 10.9375 11.578125 
Q 5.328125 21.4375 5.328125 36.71875 
Q 5.328125 58.015625 15.625 67.71875 
Q 22.171875 73.828125 31.84375 73.828125 
z
M 31.5 66.65625 
Q 23.6875 66.65625 19.1875 58.734375 
Q 14.59375 50.734375 14.59375 36.625 
Q 14.59375 22.75 19.09375 14.796875 
Q 23.640625 6.984375 31.5 6.984375 
Q 40.921875 6.984375 45.453125 18.015625 
Q 48.4375 25.34375 48.4375 37.109375 
Q 48.4375 50.875 43.84375 58.734375 
Q 39.203125 66.65625 31.5 66.65625 
z
" id="IPAexGothic-48"/>
       <path d="M 18.40625 40.671875 
Q 25.53125 46.296875 33.9375 46.296875 
Q 44 46.296875 50.640625 39.5 
Q 56.84375 33.015625 56.84375 23.390625 
Q 56.84375 14.65625 51.515625 8.015625 
Q 44.828125 -0.484375 31.734375 -0.484375 
Q 14.984375 -0.484375 7.328125 12.25 
L 14.65625 16.0625 
Q 20.453125 6.78125 31.453125 6.78125 
Q 38.53125 6.78125 43.265625 11.1875 
Q 48.140625 15.828125 48.140625 23.484375 
Q 48.140625 30.71875 43.84375 35.015625 
Q 39.359375 39.5 32.125 39.5 
Q 21.96875 39.5 16.75 31.6875 
L 9.234375 32.671875 
L 13.8125 72.40625 
L 53.21875 72.40625 
L 53.21875 64.890625 
L 20.953125 64.890625 
L 17.71875 40.671875 
z
" id="IPAexGothic-53"/>
      </defs>
      <g transform="translate(45.922129 287.802625)scale(0.1 -0.1)">
       <use xlink:href="#IPAexGothic-48"/>
       <use x="62.988281" xlink:href="#IPAexGothic-53"/>
      </g>
     </g>
    </g>
    <g id="xtick_2">
     <g id="line2d_2">
      <g>
       <use style="stroke:#000000;stroke-width:0.8;" x="87.509104" xlink:href="#mf51c5e33bc" y="273.312"/>
      </g>
     </g>
     <g id="text_2">
      <!-- 09 -->
      <defs>
       <path d="M 46.625 36.8125 
Q 39.75 26.8125 28.328125 26.8125 
Q 19.578125 26.8125 13.234375 32.125 
Q 5.71875 38.421875 5.71875 49.421875 
Q 5.71875 59.578125 12.015625 66.65625 
Q 18.453125 73.828125 29.203125 73.828125 
Q 43.75 73.828125 50.640625 61.71875 
Q 55.609375 52.78125 55.609375 38.625 
Q 55.609375 19.53125 47.515625 9.1875 
Q 39.890625 -0.484375 27.640625 -0.484375 
Q 13.421875 -0.484375 6.109375 10.984375 
L 13.328125 14.890625 
Q 18.0625 6.6875 27.390625 6.6875 
Q 45.65625 6.6875 47.015625 36.8125 
z
M 29.5 66.84375 
Q 22.65625 66.84375 18.3125 61.71875 
Q 14.40625 57.078125 14.40625 50 
Q 14.40625 42.828125 18.109375 38.71875 
Q 22.40625 33.796875 29.78125 33.796875 
Q 37.984375 33.796875 42.625 40.1875 
Q 45.703125 44.484375 45.703125 49.515625 
Q 45.703125 55.515625 42.09375 60.359375 
Q 37.109375 66.84375 29.5 66.84375 
z
" id="IPAexGothic-57"/>
      </defs>
      <g transform="translate(81.210667 287.802625)scale(0.1 -0.1)">
       <use xlink:href="#IPAexGothic-48"/>
       <use x="62.988281" xlink:href="#IPAexGothic-57"/>
      </g>
     </g>
    </g>
    <g id="xtick_3">
     <g id="line2d_3">
      <g>
       <use style="stroke:#000000;stroke-width:0.8;" x="122.797642" xlink:href="#mf51c5e33bc" y="273.312"/>
      </g>
     </g>
     <g id="text_3">
      <!-- 13 -->
      <defs>
       <path d="M 38.484375 0.984375 
L 29.6875 0.984375 
L 29.6875 64.109375 
Q 21.4375 61.28125 12.3125 59.328125 
L 10.6875 66.109375 
Q 23.734375 69.390625 32.90625 73.921875 
L 38.484375 73.921875 
z
" id="IPAexGothic-49"/>
       <path d="M 37.203125 37.796875 
Q 54.78125 34.625 54.78125 19.96875 
Q 54.78125 11.1875 48.875 5.5625 
Q 42.328125 -0.484375 30.375 -0.484375 
Q 12.453125 -0.484375 4.5 13.765625 
L 11.8125 17.671875 
Q 17.328125 6.890625 30.28125 6.890625 
Q 37.890625 6.890625 42.09375 10.796875 
Q 46.09375 14.5 46.09375 20.171875 
Q 46.09375 26.859375 40.09375 30.90625 
Q 34.625 34.578125 25.6875 34.578125 
L 21.296875 34.578125 
L 21.296875 41.703125 
L 25.875 41.703125 
Q 34.859375 41.703125 39.59375 45.125 
Q 44.671875 48.734375 44.671875 54.828125 
Q 44.671875 61.46875 38.96875 64.65625 
Q 35.296875 66.84375 30.171875 66.84375 
Q 19.34375 66.84375 14.109375 55.90625 
L 6.78125 59.421875 
Q 14.015625 73.828125 30.28125 73.828125 
Q 40.578125 73.828125 46.96875 68.65625 
Q 53.375 63.578125 53.375 55.21875 
Q 53.375 47.3125 47.171875 42.28125 
Q 43.171875 39.0625 37.203125 38.1875 
z
" id="IPAexGothic-51"/>
      </defs>
      <g transform="translate(116.499205 287.802625)scale(0.1 -0.1)">
       <use xlink:href="#IPAexGothic-49"/>
       <use x="62.988281" xlink:href="#IPAexGothic-51"/>
      </g>
     </g>
    </g>
    <g id="xtick_4">
     <g id="line2d_4">
      <g>
       <use style="stroke:#000000;stroke-width:0.8;" x="158.08618" xlink:href="#mf51c5e33bc" y="273.312"/>
      </g>
     </g>
     <g id="text_4">
      <!-- 17 -->
      <defs>
       <path d="M 56.203125 66.609375 
Q 34.96875 32.90625 27.78125 0.984375 
L 17.671875 0.984375 
Q 24.703125 28.65625 46.09375 64.5 
L 6.6875 64.5 
L 6.6875 72.40625 
L 56.203125 72.40625 
z
" id="IPAexGothic-55"/>
      </defs>
      <g transform="translate(151.787742 287.802625)scale(0.1 -0.1)">
       <use xlink:href="#IPAexGothic-49"/>
       <use x="62.988281" xlink:href="#IPAexGothic-55"/>
      </g>
     </g>
    </g>
    <g id="xtick_5">
     <g id="line2d_5">
      <g>
       <use style="stroke:#000000;stroke-width:0.8;" x="193.374717" xlink:href="#mf51c5e33bc" y="273.312"/>
      </g>
     </g>
     <g id="text_5">
      <!-- 21 -->
      <defs>
       <path d="M 57.171875 0.984375 
L 6.984375 0.984375 
L 6.984375 9.28125 
Q 12.890625 23.046875 29.59375 34.421875 
L 32.375 36.28125 
Q 40.921875 42.140625 43.609375 45.40625 
Q 46.6875 49.265625 46.6875 53.8125 
Q 46.6875 58.9375 43.0625 62.546875 
Q 39.0625 66.546875 32.5625 66.546875 
Q 19.53125 66.546875 15.484375 52 
L 7.765625 54.78125 
Q 13.328125 73.828125 33.0625 73.828125 
Q 43.84375 73.828125 50.25 67.4375 
Q 55.859375 61.671875 55.859375 53.515625 
Q 55.859375 47.46875 52.25 42.53125 
Q 48.921875 37.75 36.96875 30.28125 
L 34.859375 29 
Q 19.625 19.578125 15.28125 8.890625 
L 57.171875 8.890625 
z
" id="IPAexGothic-50"/>
      </defs>
      <g transform="translate(187.07628 287.802625)scale(0.1 -0.1)">
       <use xlink:href="#IPAexGothic-50"/>
       <use x="62.988281" xlink:href="#IPAexGothic-49"/>
      </g>
     </g>
    </g>
    <g id="xtick_6">
     <g id="line2d_6">
      <g>
       <use style="stroke:#000000;stroke-width:0.8;" x="228.663255" xlink:href="#mf51c5e33bc" y="273.312"/>
      </g>
     </g>
     <g id="text_6">
      <!-- 25 -->
      <g transform="translate(222.364817 287.802625)scale(0.1 -0.1)">
       <use xlink:href="#IPAexGothic-50"/>
       <use x="62.988281" xlink:href="#IPAexGothic-53"/>
      </g>
     </g>
    </g>
    <g id="xtick_7">
     <g id="line2d_7">
      <g>
       <use style="stroke:#000000;stroke-width:0.8;" x="263.951792" xlink:href="#mf51c5e33bc" y="273.312"/>
      </g>
     </g>
     <g id="text_7">
      <!-- 29 -->
      <g transform="translate(257.653355 287.802625)scale(0.1 -0.1)">
       <use xlink:href="#IPAexGothic-50"/>
       <use x="62.988281" xlink:href="#IPAexGothic-57"/>
      </g>
     </g>
    </g>
    <g id="xtick_8">
     <g id="line2d_8">
      <g>
       <use style="stroke:#000000;stroke-width:0.8;" x="272.773927" xlink:href="#mf51c5e33bc" y="273.312"/>
      </g>
     </g>
     <g id="text_8">
      <!-- Mar -->
      <defs>
       <path d="M 80.421875 0.984375 
L 71.828125 0.984375 
L 71.828125 39.59375 
Q 71.828125 51.265625 72.40625 64.59375 
L 72.015625 64.59375 
Q 68.0625 53.265625 63.53125 41.796875 
L 47.90625 3.265625 
L 41.40625 3.265625 
L 25.640625 42.578125 
Q 20.75 54.78125 17.625 64.703125 
L 17.234375 64.703125 
Q 17.828125 48.921875 17.828125 39.890625 
L 17.828125 0.984375 
L 9.515625 0.984375 
L 9.515625 72.40625 
L 22.125 72.40625 
L 39.109375 30.375 
Q 42.140625 23 44.828125 14.15625 
L 45.125 14.15625 
Q 47.3125 22.125 50.53125 30.171875 
L 67.4375 72.40625 
L 80.421875 72.40625 
z
" id="IPAexGothic-77"/>
       <path d="M 49.3125 0.984375 
L 41.75 0.984375 
Q 39.984375 4.734375 39.546875 8.6875 
L 39.203125 8.6875 
Q 33.546875 -0.390625 22.3125 -0.390625 
Q 14.59375 -0.390625 9.71875 4.5 
Q 5.421875 8.796875 5.421875 14.984375 
Q 5.421875 30.421875 32.03125 31.203125 
L 38.71875 31.390625 
L 38.71875 33.984375 
Q 38.71875 39.203125 35.75 42.1875 
Q 32.625 45.3125 27.734375 45.3125 
Q 19.34375 45.3125 15.140625 37.15625 
L 7.71875 40.578125 
Q 14.65625 52 27.9375 52 
Q 37.109375 52 42.046875 46.875 
Q 46.625 42.28125 46.625 33.890625 
L 46.625 15.578125 
Q 46.625 6.25 49.3125 0.984375 
z
M 38.921875 25.390625 
L 33.453125 25.296875 
Q 14.109375 24.859375 14.109375 14.890625 
Q 14.109375 11.375 16.40625 9.078125 
Q 19.234375 6.296875 23.828125 6.296875 
Q 30.21875 6.296875 34.90625 10.984375 
Q 38.921875 15.140625 38.921875 21 
z
" id="IPAexGothic-97"/>
       <path d="M 36.078125 51.8125 
L 34.578125 43.265625 
Q 32.90625 43.609375 31.59375 43.609375 
Q 25.828125 43.609375 22.078125 38.1875 
Q 17.390625 31.34375 17.390625 26.171875 
L 17.390625 0.984375 
L 8.796875 0.984375 
L 8.796875 50.78125 
L 16.890625 50.78125 
L 16.5 35.984375 
L 16.703125 35.984375 
Q 22.21875 52.203125 32.765625 52.203125 
Q 34.46875 52.203125 36.078125 51.8125 
z
" id="IPAexGothic-114"/>
      </defs>
      <g transform="translate(263.664552 287.802625)scale(0.1 -0.1)">
       <use xlink:href="#IPAexGothic-77"/>
       <use x="90.185547" xlink:href="#IPAexGothic-97"/>
       <use x="145.166016" xlink:href="#IPAexGothic-114"/>
      </g>
     </g>
    </g>
    <g id="xtick_9">
     <g id="line2d_9">
      <g>
       <use style="stroke:#000000;stroke-width:0.8;" x="308.062464" xlink:href="#mf51c5e33bc" y="273.312"/>
      </g>
     </g>
     <g id="text_9">
      <!-- 05 -->
      <g transform="translate(301.764027 287.802625)scale(0.1 -0.1)">
       <use xlink:href="#IPAexGothic-48"/>
       <use x="62.988281" xlink:href="#IPAexGothic-53"/>
      </g>
     </g>
    </g>
    <g id="xtick_10">
     <g id="line2d_10">
      <g>
       <use style="stroke:#000000;stroke-width:0.8;" x="343.351002" xlink:href="#mf51c5e33bc" y="273.312"/>
      </g>
     </g>
     <g id="text_10">
      <!-- 09 -->
      <g transform="translate(337.052564 287.802625)scale(0.1 -0.1)">
       <use xlink:href="#IPAexGothic-48"/>
       <use x="62.988281" xlink:href="#IPAexGothic-57"/>
      </g>
     </g>
    </g>
    <g id="xtick_11">
     <g id="line2d_11">
      <g>
       <use style="stroke:#000000;stroke-width:0.8;" x="378.639539" xlink:href="#mf51c5e33bc" y="273.312"/>
      </g>
     </g>
     <g id="text_11">
      <!-- 13 -->
      <g transform="translate(372.341102 287.802625)scale(0.1 -0.1)">
       <use xlink:href="#IPAexGothic-49"/>
       <use x="62.988281" xlink:href="#IPAexGothic-51"/>
      </g>
     </g>
    </g>
    <g id="text_12">
     <!-- 2020-Mar -->
     <defs>
      <path d="M 30.765625 26.609375 
L 4.984375 26.609375 
L 4.984375 34.421875 
L 30.765625 34.421875 
z
" id="IPAexGothic-45"/>
     </defs>
     <g transform="translate(355.82 300.19325)scale(0.1 -0.1)">
      <use xlink:href="#IPAexGothic-50"/>
      <use x="62.988281" xlink:href="#IPAexGothic-48"/>
      <use x="125.976562" xlink:href="#IPAexGothic-50"/>
      <use x="188.964844" xlink:href="#IPAexGothic-48"/>
      <use x="251.953125" xlink:href="#IPAexGothic-45"/>
      <use x="287.744141" xlink:href="#IPAexGothic-77"/>
      <use x="377.929688" xlink:href="#IPAexGothic-97"/>
      <use x="432.910156" xlink:href="#IPAexGothic-114"/>
     </g>
    </g>
   </g>
   <g id="matplotlib.axis_2">
    <g id="ytick_1">
     <g id="line2d_12">
      <defs>
       <path d="M 0 0 
L -3.5 0 
" id="meb57572d31" style="stroke:#000000;stroke-width:0.8;"/>
      </defs>
      <g>
       <use style="stroke:#000000;stroke-width:0.8;" x="45.692188" xlink:href="#meb57572d31" y="273.312"/>
      </g>
     </g>
     <g id="text_13">
      <!-- 0 -->
      <g transform="translate(32.39375 277.057312)scale(0.1 -0.1)">
       <use xlink:href="#IPAexGothic-48"/>
      </g>
     </g>
    </g>
    <g id="ytick_2">
     <g id="line2d_13">
      <g>
       <use style="stroke:#000000;stroke-width:0.8;" x="45.692188" xlink:href="#meb57572d31" y="231.282149"/>
      </g>
     </g>
     <g id="text_14">
      <!-- 2000 -->
      <g transform="translate(13.498438 235.027462)scale(0.1 -0.1)">
       <use xlink:href="#IPAexGothic-50"/>
       <use x="62.988281" xlink:href="#IPAexGothic-48"/>
       <use x="125.976562" xlink:href="#IPAexGothic-48"/>
       <use x="188.964844" xlink:href="#IPAexGothic-48"/>
      </g>
     </g>
    </g>
    <g id="ytick_3">
     <g id="line2d_14">
      <g>
       <use style="stroke:#000000;stroke-width:0.8;" x="45.692188" xlink:href="#meb57572d31" y="189.252299"/>
      </g>
     </g>
     <g id="text_15">
      <!-- 4000 -->
      <defs>
       <path d="M 59.578125 18.109375 
L 47.796875 18.109375 
L 47.796875 0.984375 
L 39.796875 0.984375 
L 39.796875 18.109375 
L 3.078125 18.109375 
L 3.078125 26.125 
L 38.375 73.09375 
L 47.796875 73.09375 
L 47.796875 25.53125 
L 59.578125 25.53125 
z
M 40.28125 64.203125 
L 39.984375 64.203125 
Q 35.59375 57.125 31.296875 51.3125 
L 11.859375 25.53125 
L 39.796875 25.53125 
L 39.796875 49.125 
Q 39.796875 54.390625 40.28125 64.203125 
z
" id="IPAexGothic-52"/>
      </defs>
      <g transform="translate(13.498438 192.997611)scale(0.1 -0.1)">
       <use xlink:href="#IPAexGothic-52"/>
       <use x="62.988281" xlink:href="#IPAexGothic-48"/>
       <use x="125.976562" xlink:href="#IPAexGothic-48"/>
       <use x="188.964844" xlink:href="#IPAexGothic-48"/>
      </g>
     </g>
    </g>
    <g id="ytick_4">
     <g id="line2d_15">
      <g>
       <use style="stroke:#000000;stroke-width:0.8;" x="45.692188" xlink:href="#meb57572d31" y="147.222448"/>
      </g>
     </g>
     <g id="text_16">
      <!-- 6000 -->
      <defs>
       <path d="M 16.5 36.375 
Q 23.578125 46.578125 34.90625 46.578125 
Q 45.40625 46.578125 51.8125 39.265625 
Q 57.421875 32.90625 57.421875 23.78125 
Q 57.421875 13.8125 51.125 6.78125 
Q 44.578125 -0.484375 34.03125 -0.484375 
Q 21.484375 -0.484375 14.40625 9.078125 
Q 7.515625 18.40625 7.515625 34.8125 
Q 7.515625 53.515625 15.828125 64.203125 
Q 23.34375 73.828125 35.5 73.828125 
Q 49.859375 73.828125 56.390625 62.890625 
L 49.21875 58.984375 
Q 45.21875 66.65625 35.9375 66.65625 
Q 17.484375 66.65625 16.109375 36.375 
z
M 33.453125 39.796875 
Q 26.3125 39.796875 21.625 34.46875 
Q 17.4375 29.6875 17.4375 24.078125 
Q 17.4375 18.0625 21.140625 13.1875 
Q 26.125 6.6875 33.734375 6.6875 
Q 41.703125 6.6875 45.953125 13.1875 
Q 48.828125 17.625 48.828125 23.484375 
Q 48.828125 30.375 45.015625 34.8125 
Q 40.625 39.796875 33.453125 39.796875 
z
" id="IPAexGothic-54"/>
      </defs>
      <g transform="translate(13.498438 150.96776)scale(0.1 -0.1)">
       <use xlink:href="#IPAexGothic-54"/>
       <use x="62.988281" xlink:href="#IPAexGothic-48"/>
       <use x="125.976562" xlink:href="#IPAexGothic-48"/>
       <use x="188.964844" xlink:href="#IPAexGothic-48"/>
      </g>
     </g>
    </g>
    <g id="ytick_5">
     <g id="line2d_16">
      <g>
       <use style="stroke:#000000;stroke-width:0.8;" x="45.692188" xlink:href="#meb57572d31" y="105.192597"/>
      </g>
     </g>
     <g id="text_17">
      <!-- 8000 -->
      <defs>
       <path d="M 39.703125 37.890625 
Q 57.8125 31.734375 57.8125 18.703125 
Q 57.8125 8.453125 48.4375 3.078125 
Q 41.609375 -0.875 31.5 -0.875 
Q 21.34375 -0.875 14.5 3.078125 
Q 5.421875 8.296875 5.421875 18.40625 
Q 5.421875 31.0625 22.015625 37.203125 
L 22.015625 37.5 
Q 7.515625 42.71875 7.515625 54.828125 
Q 7.515625 64.0625 15.328125 69.625 
Q 21.96875 74.3125 31.546875 74.3125 
Q 42.234375 74.3125 48.921875 68.796875 
Q 55.515625 63.578125 55.515625 55.71875 
Q 55.515625 42.28125 39.703125 38.1875 
z
M 31.59375 41.015625 
Q 46.828125 44.625 46.828125 55.125 
Q 46.828125 61.1875 41.796875 64.84375 
Q 37.703125 67.921875 31.5 67.921875 
Q 25.09375 67.921875 20.796875 64.5 
Q 16.40625 60.890625 16.40625 55.03125 
Q 16.40625 49.21875 21.09375 45.703125 
Q 23.34375 43.890625 26.90625 42.53125 
Q 31 40.875 31.59375 41.015625 
z
M 30.90625 34.515625 
Q 14.40625 30.171875 14.40625 19 
Q 14.40625 12.109375 20.515625 8.6875 
Q 25.09375 6.109375 31.390625 6.109375 
Q 40.234375 6.109375 45.015625 10.890625 
Q 48.53125 14.40625 48.53125 19.53125 
Q 48.53125 24.90625 43.65625 28.90625 
Q 40.765625 31.15625 36.71875 32.8125 
Q 31.984375 34.71875 30.90625 34.515625 
z
" id="IPAexGothic-56"/>
      </defs>
      <g transform="translate(13.498438 108.93791)scale(0.1 -0.1)">
       <use xlink:href="#IPAexGothic-56"/>
       <use x="62.988281" xlink:href="#IPAexGothic-48"/>
       <use x="125.976562" xlink:href="#IPAexGothic-48"/>
       <use x="188.964844" xlink:href="#IPAexGothic-48"/>
      </g>
     </g>
    </g>
    <g id="ytick_6">
     <g id="line2d_17">
      <g>
       <use style="stroke:#000000;stroke-width:0.8;" x="45.692188" xlink:href="#meb57572d31" y="63.162746"/>
      </g>
     </g>
     <g id="text_18">
      <!-- 10000 -->
      <g transform="translate(7.2 66.908059)scale(0.1 -0.1)">
       <use xlink:href="#IPAexGothic-49"/>
       <use x="62.988281" xlink:href="#IPAexGothic-48"/>
       <use x="125.976562" xlink:href="#IPAexGothic-48"/>
       <use x="188.964844" xlink:href="#IPAexGothic-48"/>
       <use x="251.953125" xlink:href="#IPAexGothic-48"/>
      </g>
     </g>
    </g>
    <g id="ytick_7">
     <g id="line2d_18">
      <g>
       <use style="stroke:#000000;stroke-width:0.8;" x="45.692188" xlink:href="#meb57572d31" y="21.132896"/>
      </g>
     </g>
     <g id="text_19">
      <!-- 12000 -->
      <g transform="translate(7.2 24.878208)scale(0.1 -0.1)">
       <use xlink:href="#IPAexGothic-49"/>
       <use x="62.988281" xlink:href="#IPAexGothic-50"/>
       <use x="125.976562" xlink:href="#IPAexGothic-48"/>
       <use x="188.964844" xlink:href="#IPAexGothic-48"/>
       <use x="251.953125" xlink:href="#IPAexGothic-48"/>
      </g>
     </g>
    </g>
   </g>
   <g id="patch_67">
    <path d="M 45.692188 273.312 
L 45.692188 7.2 
" style="fill:none;stroke:#000000;stroke-linecap:square;stroke-linejoin:miter;stroke-width:0.8;"/>
   </g>
   <g id="patch_68">
    <path d="M 402.812188 273.312 
L 402.812188 7.2 
" style="fill:none;stroke:#000000;stroke-linecap:square;stroke-linejoin:miter;stroke-width:0.8;"/>
   </g>
   <g id="patch_69">
    <path d="M 45.692187 273.312 
L 402.812187 273.312 
" style="fill:none;stroke:#000000;stroke-linecap:square;stroke-linejoin:miter;stroke-width:0.8;"/>
   </g>
   <g id="patch_70">
    <path d="M 45.692187 7.2 
L 402.812187 7.2 
" style="fill:none;stroke:#000000;stroke-linecap:square;stroke-linejoin:miter;stroke-width:0.8;"/>
   </g>
   <g id="legend_1">
    <g id="patch_71">
     <path d="M 52.692188 44.039062 
L 125.739063 44.039062 
Q 127.739063 44.039062 127.739063 42.039062 
L 127.739063 14.2 
Q 127.739063 12.2 125.739063 12.2 
L 52.692188 12.2 
Q 50.692188 12.2 50.692188 14.2 
L 50.692188 42.039062 
Q 50.692188 44.039062 52.692188 44.039062 
z
" style="fill:#ffffff;opacity:0.8;stroke:#cccccc;stroke-linejoin:miter;"/>
    </g>
    <g id="patch_72">
     <path d="M 54.692188 23.690625 
L 74.692188 23.690625 
L 74.692188 16.690625 
L 54.692188 16.690625 
z
" style="fill:#1f77b4;"/>
    </g>
    <g id="text_20">
     <!-- Negative -->
     <defs>
      <path d="M 66.3125 0.984375 
L 58.296875 0.984375 
L 26.515625 49.21875 
Q 22.90625 54.6875 17.828125 64.015625 
L 17.4375 64.015625 
L 17.625 59.328125 
Q 18.109375 43.796875 18.109375 38.578125 
L 18.109375 0.984375 
L 9.515625 0.984375 
L 9.515625 72.40625 
L 21.34375 72.40625 
L 48.640625 30.90625 
Q 53.953125 22.609375 58.015625 15.09375 
L 58.40625 15.09375 
Q 57.71875 29.640625 57.71875 38.578125 
L 57.71875 72.40625 
L 66.3125 72.40625 
z
" id="IPAexGothic-78"/>
      <path d="M 13.484375 24.90625 
Q 13.921875 16.265625 18.890625 11.28125 
Q 23.96875 6.203125 31.203125 6.203125 
Q 40.71875 6.203125 46.296875 15.09375 
L 51.90625 11.375 
Q 44.828125 -0.484375 30.171875 -0.484375 
Q 19.09375 -0.484375 11.96875 6.59375 
Q 4.78125 13.8125 4.78125 25.640625 
Q 4.78125 38.1875 12.3125 45.703125 
Q 19 52.390625 29 52.390625 
Q 38.421875 52.390625 44.78125 46.1875 
Q 51.90625 38.96875 51.90625 26.90625 
L 51.90625 24.90625 
z
M 43.0625 31.203125 
Q 42.328125 37.984375 38.28125 41.890625 
Q 34.28125 45.90625 28.8125 45.90625 
Q 22.46875 45.90625 17.96875 40.484375 
Q 14.890625 36.8125 13.96875 31.203125 
z
" id="IPAexGothic-101"/>
      <path d="M 20.796875 17.96875 
Q 15.71875 17.53125 15.71875 14.0625 
Q 15.71875 9.578125 27.546875 8.984375 
L 33.296875 8.6875 
Q 51.609375 7.765625 51.609375 -4.59375 
Q 51.609375 -10.9375 45.703125 -14.984375 
Q 39.359375 -19.578125 28.03125 -19.578125 
Q 17.78125 -19.578125 11.53125 -16.0625 
Q 5.515625 -12.640625 5.515625 -6.6875 
Q 5.515625 1.3125 16.796875 3.859375 
L 16.796875 4.203125 
Q 7.90625 6.453125 7.90625 12.15625 
Q 7.90625 17.4375 15.53125 20.265625 
Q 7.125 24.609375 7.125 34.078125 
Q 7.125 41.40625 12.015625 46.296875 
Q 17.625 51.90625 27.15625 51.90625 
Q 33.203125 51.90625 37.84375 49.265625 
Q 41.40625 53.953125 50.921875 54.109375 
L 50.921875 47.078125 
Q 44.34375 46.921875 42.234375 45.90625 
Q 47.40625 40.828125 47.40625 33.890625 
Q 47.40625 27 42.71875 22.265625 
Q 37.5 17.09375 28.328125 17.09375 
Q 24.421875 17.09375 20.796875 17.96875 
z
M 27.09375 45.609375 
Q 22.015625 45.609375 18.703125 42.28125 
Q 15.4375 39.015625 15.4375 34.078125 
Q 15.4375 29.25 18.5 26.3125 
Q 21.828125 23 27.4375 23 
Q 32.71875 23 35.890625 26.21875 
Q 39.109375 29.390625 39.109375 34.421875 
Q 39.109375 39.015625 35.890625 42.1875 
Q 32.515625 45.609375 27.09375 45.609375 
z
M 27.390625 2.484375 
Q 14.109375 2.484375 14.109375 -5.71875 
Q 14.109375 -13.671875 28.125 -13.671875 
Q 37.15625 -13.671875 41.21875 -9.46875 
Q 43.3125 -7.515625 43.3125 -4.890625 
Q 43.3125 2.484375 27.390625 2.484375 
z
" id="IPAexGothic-103"/>
      <path d="M 33.203125 3.765625 
Q 27.640625 -0.09375 21.828125 -0.09375 
Q 10.203125 -0.09375 10.203125 12.984375 
L 10.203125 44.671875 
L 3.421875 44.671875 
L 3.421875 50.78125 
L 10.203125 50.78125 
L 10.203125 61.96875 
L 18.40625 66.0625 
L 18.40625 50.78125 
L 32.234375 50.78125 
L 32.234375 44.671875 
L 18.40625 44.671875 
L 18.40625 14.15625 
Q 18.40625 6.5 23.640625 6.5 
Q 27.15625 6.5 30.328125 9.1875 
z
" id="IPAexGothic-116"/>
      <path d="M 18.40625 61.375 
L 8.59375 61.375 
L 8.59375 71.390625 
L 18.40625 71.390625 
z
M 17.78125 0.984375 
L 9.1875 0.984375 
L 9.1875 50.78125 
L 17.78125 50.78125 
z
" id="IPAexGothic-105"/>
      <path d="M 48.484375 50.78125 
L 27.296875 0.09375 
L 21.484375 0.09375 
L 0.390625 50.78125 
L 9.8125 50.78125 
L 20.90625 21.6875 
L 23.78125 13.1875 
L 24.515625 10.984375 
L 24.8125 10.984375 
Q 25.640625 13.8125 28.46875 21.6875 
L 39.3125 50.78125 
z
" id="IPAexGothic-118"/>
     </defs>
     <g transform="translate(82.692188 23.690625)scale(0.1 -0.1)">
      <use xlink:href="#IPAexGothic-78"/>
      <use x="75.976562" xlink:href="#IPAexGothic-101"/>
      <use x="132.861328" xlink:href="#IPAexGothic-103"/>
      <use x="188.378906" xlink:href="#IPAexGothic-97"/>
      <use x="243.359375" xlink:href="#IPAexGothic-116"/>
      <use x="277.978516" xlink:href="#IPAexGothic-105"/>
      <use x="304.980469" xlink:href="#IPAexGothic-118"/>
      <use x="353.564453" xlink:href="#IPAexGothic-101"/>
     </g>
    </g>
    <g id="patch_73">
     <path d="M 54.692188 38.139062 
L 74.692188 38.139062 
L 74.692188 31.139062 
L 54.692188 31.139062 
z
" style="fill:#ff7f0e;"/>
    </g>
    <g id="text_21">
     <!-- Positive -->
     <defs>
      <path d="M 9.515625 72.40625 
L 30.328125 72.40625 
Q 57.625 72.40625 57.625 51.90625 
Q 57.625 30.21875 29.78125 30.21875 
L 18.3125 30.21875 
L 18.3125 0.984375 
L 9.515625 0.984375 
z
M 18.3125 37.203125 
L 28.125 37.203125 
Q 48.4375 37.203125 48.4375 51.8125 
Q 48.4375 65.328125 29.59375 65.328125 
L 18.3125 65.328125 
z
" id="IPAexGothic-80"/>
      <path d="M 29.984375 52.203125 
Q 40.53125 52.203125 47.75 45.125 
Q 55.171875 37.703125 55.171875 25.59375 
Q 55.171875 13.875 47.90625 6.59375 
Q 40.765625 -0.484375 29.984375 -0.484375 
Q 19.1875 -0.484375 12.203125 6.5 
Q 4.890625 13.765625 4.890625 25.875 
Q 4.890625 37.703125 12.3125 45.125 
Q 19.390625 52.203125 29.984375 52.203125 
z
M 29.984375 45.609375 
Q 23.734375 45.609375 19.390625 41.109375 
Q 13.875 35.59375 13.875 25.78125 
Q 13.875 16.109375 19.28125 10.6875 
Q 23.6875 6.296875 29.984375 6.296875 
Q 36.421875 6.296875 40.765625 10.796875 
Q 46.1875 16.21875 46.1875 26.125 
Q 46.1875 35.453125 40.671875 41.109375 
Q 36.1875 45.609375 29.984375 45.609375 
z
" id="IPAexGothic-111"/>
      <path d="M 34.90625 39.796875 
Q 30.28125 45.796875 23.1875 45.796875 
Q 13.921875 45.796875 13.921875 38.671875 
Q 13.921875 33.640625 23.921875 30.375 
L 27.203125 29.296875 
Q 41.40625 24.65625 41.40625 13.96875 
Q 41.40625 6.78125 35.5 2.6875 
Q 30.8125 -0.484375 23.390625 -0.484375 
Q 11.96875 -0.484375 4 7.859375 
L 9.421875 12.796875 
Q 15.578125 6.203125 23.6875 6.203125 
Q 33.296875 6.203125 33.296875 13.671875 
Q 33.296875 19.34375 22.703125 23.09375 
L 19.28125 24.265625 
Q 5.90625 28.953125 5.90625 37.984375 
Q 5.90625 43.703125 9.8125 47.609375 
Q 14.5 52.296875 22.703125 52.296875 
Q 33.6875 52.296875 40.71875 44.671875 
z
" id="IPAexGothic-115"/>
     </defs>
     <g transform="translate(82.692188 38.139062)scale(0.1 -0.1)">
      <use xlink:href="#IPAexGothic-80"/>
      <use x="62.109375" xlink:href="#IPAexGothic-111"/>
      <use x="122.509766" xlink:href="#IPAexGothic-115"/>
      <use x="168.701172" xlink:href="#IPAexGothic-105"/>
      <use x="195.703125" xlink:href="#IPAexGothic-116"/>
      <use x="230.322266" xlink:href="#IPAexGothic-105"/>
      <use x="257.324219" xlink:href="#IPAexGothic-118"/>
      <use x="305.908203" xlink:href="#IPAexGothic-101"/>
     </g>
    </g>
   </g>
  </g>
 </g>
 <defs>
  <clipPath id="p43847fd014">
   <rect height="266.112" width="357.12" x="45.692188" y="7.2"/>
  </clipPath>
 </defs>
</svg>
