<?xml version="1.0" encoding="utf-8" standalone="no"?>
<!DOCTYPE svg PUBLIC "-//W3C//DTD SVG 1.1//EN"
  "http://www.w3.org/Graphics/SVG/1.1/DTD/svg11.dtd">
<!-- Created with matplotlib (https://matplotlib.org/) -->
<svg height="309.29325pt" version="1.1" viewBox="0 0 403.71375 309.29325" width="403.71375pt" xmlns="http://www.w3.org/2000/svg" xmlns:xlink="http://www.w3.org/1999/xlink">
 <defs>
  <style type="text/css">
*{stroke-linecap:butt;stroke-linejoin:round;}
  </style>
 </defs>
 <g id="figure_1">
  <g id="patch_1">
   <path d="M 0 309.29325 
L 403.71375 309.29325 
L 403.71375 0 
L 0 0 
z
" style="fill:#ffffff;"/>
  </g>
  <g id="axes_1">
   <g id="patch_2">
    <path d="M 39.39375 273.312 
L 396.51375 273.312 
L 396.51375 7.2 
L 39.39375 7.2 
z
" style="fill:#ffffff;"/>
   </g>
   <g id="patch_3">
    <path clip-path="url(#p68916d6266)" d="M 55.626477 273.312 
L 58.922463 273.312 
L 58.922463 273.252465 
L 55.626477 273.252465 
z
" style="fill:#ffbb78;"/>
   </g>
   <g id="patch_4">
    <path clip-path="url(#p68916d6266)" d="M 59.746459 273.312 
L 63.042444 273.312 
L 63.042444 273.252465 
L 59.746459 273.252465 
z
" style="fill:#ffbb78;"/>
   </g>
   <g id="patch_5">
    <path clip-path="url(#p68916d6266)" d="M 63.86644 273.312 
L 67.162426 273.312 
L 67.162426 273.252465 
L 63.86644 273.252465 
z
" style="fill:#ffbb78;"/>
   </g>
   <g id="patch_6">
    <path clip-path="url(#p68916d6266)" d="M 67.986422 273.312 
L 71.282407 273.312 
L 71.282407 273.252465 
L 67.986422 273.252465 
z
" style="fill:#ffbb78;"/>
   </g>
   <g id="patch_7">
    <path clip-path="url(#p68916d6266)" d="M 72.106403 273.312 
L 75.402389 273.312 
L 75.402389 273.133395 
L 72.106403 273.133395 
z
" style="fill:#ffbb78;"/>
   </g>
   <g id="patch_8">
    <path clip-path="url(#p68916d6266)" d="M 76.226385 273.312 
L 79.52237 273.312 
L 79.52237 273.133395 
L 76.226385 273.133395 
z
" style="fill:#ffbb78;"/>
   </g>
   <g id="patch_9">
    <path clip-path="url(#p68916d6266)" d="M 80.346367 273.312 
L 83.642352 273.312 
L 83.642352 273.07386 
L 80.346367 273.07386 
z
" style="fill:#ffbb78;"/>
   </g>
   <g id="patch_10">
    <path clip-path="url(#p68916d6266)" d="M 84.466348 273.312 
L 87.762333 273.312 
L 87.762333 272.954791 
L 84.466348 272.954791 
z
" style="fill:#ffbb78;"/>
   </g>
   <g id="patch_11">
    <path clip-path="url(#p68916d6266)" d="M 88.58633 273.312 
L 91.882315 273.312 
L 91.882315 272.895256 
L 88.58633 272.895256 
z
" style="fill:#ffbb78;"/>
   </g>
   <g id="patch_12">
    <path clip-path="url(#p68916d6266)" d="M 92.706311 273.312 
L 96.002296 273.312 
L 96.002296 272.657116 
L 92.706311 272.657116 
z
" style="fill:#ffbb78;"/>
   </g>
   <g id="patch_13">
    <path clip-path="url(#p68916d6266)" d="M 96.826293 273.312 
L 100.122278 273.312 
L 100.122278 272.478512 
L 96.826293 272.478512 
z
" style="fill:#ffbb78;"/>
   </g>
   <g id="patch_14">
    <path clip-path="url(#p68916d6266)" d="M 100.946274 273.312 
L 104.242259 273.312 
L 104.242259 272.299907 
L 100.946274 272.299907 
z
" style="fill:#ffbb78;"/>
   </g>
   <g id="patch_15">
    <path clip-path="url(#p68916d6266)" d="M 105.066256 273.312 
L 108.362241 273.312 
L 108.362241 272.121302 
L 105.066256 272.121302 
z
" style="fill:#ffbb78;"/>
   </g>
   <g id="patch_16">
    <path clip-path="url(#p68916d6266)" d="M 109.186237 273.312 
L 112.482223 273.312 
L 112.482223 272.121302 
L 109.186237 272.121302 
z
" style="fill:#ffbb78;"/>
   </g>
   <g id="patch_17">
    <path clip-path="url(#p68916d6266)" d="M 113.306219 273.312 
L 116.602204 273.312 
L 116.602204 272.121302 
L 113.306219 272.121302 
z
" style="fill:#ffbb78;"/>
   </g>
   <g id="patch_18">
    <path clip-path="url(#p68916d6266)" d="M 117.4262 273.312 
L 120.722186 273.312 
L 120.722186 271.942698 
L 117.4262 271.942698 
z
" style="fill:#ffbb78;"/>
   </g>
   <g id="patch_19">
    <path clip-path="url(#p68916d6266)" d="M 121.546182 273.312 
L 124.842167 273.312 
L 124.842167 271.823628 
L 121.546182 271.823628 
z
" style="fill:#ffbb78;"/>
   </g>
   <g id="patch_20">
    <path clip-path="url(#p68916d6266)" d="M 125.666163 273.312 
L 128.962149 273.312 
L 128.962149 271.823628 
L 125.666163 271.823628 
z
" style="fill:#ffbb78;"/>
   </g>
   <g id="patch_21">
    <path clip-path="url(#p68916d6266)" d="M 129.786145 273.312 
L 133.08213 273.312 
L 133.08213 271.823628 
L 129.786145 271.823628 
z
" style="fill:#ffbb78;"/>
   </g>
   <g id="patch_22">
    <path clip-path="url(#p68916d6266)" d="M 133.906127 273.312 
L 137.202112 273.312 
L 137.202112 271.764093 
L 133.906127 271.764093 
z
" style="fill:#ffbb78;"/>
   </g>
   <g id="patch_23">
    <path clip-path="url(#p68916d6266)" d="M 138.026108 273.312 
L 141.322093 273.312 
L 141.322093 271.764093 
L 138.026108 271.764093 
z
" style="fill:#ffbb78;"/>
   </g>
   <g id="patch_24">
    <path clip-path="url(#p68916d6266)" d="M 142.14609 273.312 
L 145.442075 273.312 
L 145.442075 271.764093 
L 142.14609 271.764093 
z
" style="fill:#ffbb78;"/>
   </g>
   <g id="patch_25">
    <path clip-path="url(#p68916d6266)" d="M 146.266071 273.312 
L 149.562056 273.312 
L 149.562056 271.645023 
L 146.266071 271.645023 
z
" style="fill:#ffbb78;"/>
   </g>
   <g id="patch_26">
    <path clip-path="url(#p68916d6266)" d="M 150.386053 273.312 
L 153.682038 273.312 
L 153.682038 271.585488 
L 150.386053 271.585488 
z
" style="fill:#ffbb78;"/>
   </g>
   <g id="patch_27">
    <path clip-path="url(#p68916d6266)" d="M 154.506034 273.312 
L 157.802019 273.312 
L 157.802019 271.347349 
L 154.506034 271.347349 
z
" style="fill:#ffbb78;"/>
   </g>
   <g id="patch_28">
    <path clip-path="url(#p68916d6266)" d="M 158.626016 273.312 
L 161.922001 273.312 
L 161.922001 270.87107 
L 158.626016 270.87107 
z
" style="fill:#ffbb78;"/>
   </g>
   <g id="patch_29">
    <path clip-path="url(#p68916d6266)" d="M 162.745997 273.312 
L 166.041983 273.312 
L 166.041983 270.156651 
L 162.745997 270.156651 
z
" style="fill:#ffbb78;"/>
   </g>
   <g id="patch_30">
    <path clip-path="url(#p68916d6266)" d="M 166.865979 273.312 
L 170.161964 273.312 
L 170.161964 269.799442 
L 166.865979 269.799442 
z
" style="fill:#ffbb78;"/>
   </g>
   <g id="patch_31">
    <path clip-path="url(#p68916d6266)" d="M 170.98596 273.312 
L 174.281946 273.312 
L 174.281946 269.442233 
L 170.98596 269.442233 
z
" style="fill:#ffbb78;"/>
   </g>
   <g id="patch_32">
    <path clip-path="url(#p68916d6266)" d="M 175.105942 273.312 
L 178.401927 273.312 
L 178.401927 268.965953 
L 175.105942 268.965953 
z
" style="fill:#ffbb78;"/>
   </g>
   <g id="patch_33">
    <path clip-path="url(#p68916d6266)" d="M 179.225924 273.312 
L 182.521909 273.312 
L 182.521909 268.251535 
L 179.225924 268.251535 
z
" style="fill:#ffbb78;"/>
   </g>
   <g id="patch_34">
    <path clip-path="url(#p68916d6266)" d="M 183.345905 273.312 
L 186.64189 273.312 
L 186.64189 267.775256 
L 183.345905 267.775256 
z
" style="fill:#ffbb78;"/>
   </g>
   <g id="patch_35">
    <path clip-path="url(#p68916d6266)" d="M 187.465887 273.312 
L 190.761872 273.312 
L 190.761872 267.060837 
L 187.465887 267.060837 
z
" style="fill:#ffbb78;"/>
   </g>
   <g id="patch_36">
    <path clip-path="url(#p68916d6266)" d="M 191.585868 273.312 
L 194.881853 273.312 
L 194.881853 265.453395 
L 191.585868 265.453395 
z
" style="fill:#ffbb78;"/>
   </g>
   <g id="patch_37">
    <path clip-path="url(#p68916d6266)" d="M 195.70585 273.312 
L 199.001835 273.312 
L 199.001835 264.738977 
L 195.70585 264.738977 
z
" style="fill:#ffbb78;"/>
   </g>
   <g id="patch_38">
    <path clip-path="url(#p68916d6266)" d="M 199.825831 273.312 
L 203.121816 273.312 
L 203.121816 263.965023 
L 199.825831 263.965023 
z
" style="fill:#ffbb78;"/>
   </g>
   <g id="patch_39">
    <path clip-path="url(#p68916d6266)" d="M 203.945813 273.312 
L 207.241798 273.312 
L 207.241798 263.548279 
L 203.945813 263.548279 
z
" style="fill:#ffbb78;"/>
   </g>
   <g id="patch_40">
    <path clip-path="url(#p68916d6266)" d="M 208.065794 273.312 
L 211.36178 273.312 
L 211.36178 262.238512 
L 208.065794 262.238512 
z
" style="fill:#ffbb78;"/>
   </g>
   <g id="patch_41">
    <path clip-path="url(#p68916d6266)" d="M 212.185776 273.312 
L 215.481761 273.312 
L 215.481761 260.809674 
L 212.185776 260.809674 
z
" style="fill:#ffbb78;"/>
   </g>
   <g id="patch_42">
    <path clip-path="url(#p68916d6266)" d="M 216.305757 273.312 
L 219.601743 273.312 
L 219.601743 259.618977 
L 216.305757 259.618977 
z
" style="fill:#ffbb78;"/>
   </g>
   <g id="patch_43">
    <path clip-path="url(#p68916d6266)" d="M 220.425739 273.312 
L 223.721724 273.312 
L 223.721724 259.083163 
L 220.425739 259.083163 
z
" style="fill:#ffbb78;"/>
   </g>
   <g id="patch_44">
    <path clip-path="url(#p68916d6266)" d="M 224.54572 273.312 
L 227.841706 273.312 
L 227.841706 258.19014 
L 224.54572 258.19014 
z
" style="fill:#ffbb78;"/>
   </g>
   <g id="patch_45">
    <path clip-path="url(#p68916d6266)" d="M 228.665702 273.312 
L 231.961687 273.312 
L 231.961687 257.356651 
L 228.665702 257.356651 
z
" style="fill:#ffbb78;"/>
   </g>
   <g id="patch_46">
    <path clip-path="url(#p68916d6266)" d="M 232.785684 273.312 
L 236.081669 273.312 
L 236.081669 256.404093 
L 232.785684 256.404093 
z
" style="fill:#ffbb78;"/>
   </g>
   <g id="patch_47">
    <path clip-path="url(#p68916d6266)" d="M 236.905665 273.312 
L 240.20165 273.312 
L 240.20165 254.439442 
L 236.905665 254.439442 
z
" style="fill:#ffbb78;"/>
   </g>
   <g id="patch_48">
    <path clip-path="url(#p68916d6266)" d="M 241.025647 273.312 
L 244.321632 273.312 
L 244.321632 252.534326 
L 241.025647 252.534326 
z
" style="fill:#ffbb78;"/>
   </g>
   <g id="patch_49">
    <path clip-path="url(#p68916d6266)" d="M 245.145628 273.312 
L 248.441613 273.312 
L 248.441613 249.021767 
L 245.145628 249.021767 
z
" style="fill:#ffbb78;"/>
   </g>
   <g id="patch_50">
    <path clip-path="url(#p68916d6266)" d="M 249.26561 273.312 
L 252.561595 273.312 
L 252.561595 246.223628 
L 249.26561 246.223628 
z
" style="fill:#ffbb78;"/>
   </g>
   <g id="patch_51">
    <path clip-path="url(#p68916d6266)" d="M 253.385591 273.312 
L 256.681576 273.312 
L 256.681576 244.258977 
L 253.385591 244.258977 
z
" style="fill:#ffbb78;"/>
   </g>
   <g id="patch_52">
    <path clip-path="url(#p68916d6266)" d="M 257.505573 273.312 
L 260.801558 273.312 
L 260.801558 242.71107 
L 257.505573 242.71107 
z
" style="fill:#ffbb78;"/>
   </g>
   <g id="patch_53">
    <path clip-path="url(#p68916d6266)" d="M 261.625554 273.312 
L 264.92154 273.312 
L 264.92154 239.496186 
L 261.625554 239.496186 
z
" style="fill:#ffbb78;"/>
   </g>
   <g id="patch_54">
    <path clip-path="url(#p68916d6266)" d="M 265.745536 273.312 
L 269.041521 273.312 
L 269.041521 236.400372 
L 265.745536 236.400372 
z
" style="fill:#ffbb78;"/>
   </g>
   <g id="patch_55">
    <path clip-path="url(#p68916d6266)" d="M 269.865517 273.312 
L 273.161503 273.312 
L 273.161503 233.125953 
L 269.865517 233.125953 
z
" style="fill:#ffbb78;"/>
   </g>
   <g id="patch_56">
    <path clip-path="url(#p68916d6266)" d="M 273.985499 273.312 
L 277.281484 273.312 
L 277.281484 230.685023 
L 273.985499 230.685023 
z
" style="fill:#ffbb78;"/>
   </g>
   <g id="patch_57">
    <path clip-path="url(#p68916d6266)" d="M 278.105481 273.312 
L 281.401466 273.312 
L 281.401466 226.874791 
L 278.105481 226.874791 
z
" style="fill:#ffbb78;"/>
   </g>
   <g id="patch_58">
    <path clip-path="url(#p68916d6266)" d="M 282.225462 273.312 
L 285.521447 273.312 
L 285.521447 224.850605 
L 282.225462 224.850605 
z
" style="fill:#ffbb78;"/>
   </g>
   <g id="patch_59">
    <path clip-path="url(#p68916d6266)" d="M 286.345444 273.312 
L 289.641429 273.312 
L 289.641429 223.957581 
L 286.345444 223.957581 
z
" style="fill:#ffbb78;"/>
   </g>
   <g id="patch_60">
    <path clip-path="url(#p68916d6266)" d="M 290.465425 273.312 
L 293.76141 273.312 
L 293.76141 223.957581 
L 290.465425 223.957581 
z
" style="fill:#ffbb78;"/>
   </g>
   <g id="patch_61">
    <path clip-path="url(#p68916d6266)" d="M 294.585407 273.312 
L 297.881392 273.312 
L 297.881392 221.338047 
L 294.585407 221.338047 
z
" style="fill:#ffbb78;"/>
   </g>
   <g id="patch_62">
    <path clip-path="url(#p68916d6266)" d="M 298.705388 273.312 
L 302.001373 273.312 
L 302.001373 216.75386 
L 298.705388 216.75386 
z
" style="fill:#ffbb78;"/>
   </g>
   <g id="patch_63">
    <path clip-path="url(#p68916d6266)" d="M 302.82537 273.312 
L 306.121355 273.312 
L 306.121355 214.015256 
L 302.82537 214.015256 
z
" style="fill:#ffbb78;"/>
   </g>
   <g id="patch_64">
    <path clip-path="url(#p68916d6266)" d="M 306.945351 273.312 
L 310.241337 273.312 
L 310.241337 211.038512 
L 306.945351 211.038512 
z
" style="fill:#ffbb78;"/>
   </g>
   <g id="patch_65">
    <path clip-path="url(#p68916d6266)" d="M 311.065333 273.312 
L 314.361318 273.312 
L 314.361318 208.478512 
L 311.065333 208.478512 
z
" style="fill:#ffbb78;"/>
   </g>
   <g id="patch_66">
    <path clip-path="url(#p68916d6266)" d="M 315.185314 273.312 
L 318.4813 273.312 
L 318.4813 206.156651 
L 315.185314 206.156651 
z
" style="fill:#ffbb78;"/>
   </g>
   <g id="patch_67">
    <path clip-path="url(#p68916d6266)" d="M 319.305296 273.312 
L 322.601281 273.312 
L 322.601281 202.286884 
L 319.305296 202.286884 
z
" style="fill:#ffbb78;"/>
   </g>
   <g id="patch_68">
    <path clip-path="url(#p68916d6266)" d="M 323.425277 273.312 
L 326.721263 273.312 
L 326.721263 196.452465 
L 323.425277 196.452465 
z
" style="fill:#ffbb78;"/>
   </g>
   <g id="patch_69">
    <path clip-path="url(#p68916d6266)" d="M 327.545259 273.312 
L 330.841244 273.312 
L 330.841244 190.737116 
L 327.545259 190.737116 
z
" style="fill:#ffbb78;"/>
   </g>
   <g id="patch_70">
    <path clip-path="url(#p68916d6266)" d="M 331.665241 273.312 
L 334.961226 273.312 
L 334.961226 184.069209 
L 331.665241 184.069209 
z
" style="fill:#ffbb78;"/>
   </g>
   <g id="patch_71">
    <path clip-path="url(#p68916d6266)" d="M 335.785222 273.312 
L 339.081207 273.312 
L 339.081207 172.519442 
L 335.785222 172.519442 
z
" style="fill:#ffbb78;"/>
   </g>
   <g id="patch_72">
    <path clip-path="url(#p68916d6266)" d="M 339.905204 273.312 
L 343.201189 273.312 
L 343.201189 162.219907 
L 339.905204 162.219907 
z
" style="fill:#ffbb78;"/>
   </g>
   <g id="patch_73">
    <path clip-path="url(#p68916d6266)" d="M 344.025185 273.312 
L 347.32117 273.312 
L 347.32117 157.040372 
L 344.025185 157.040372 
z
" style="fill:#ffbb78;"/>
   </g>
   <g id="patch_74">
    <path clip-path="url(#p68916d6266)" d="M 348.145167 273.312 
L 351.441152 273.312 
L 351.441152 143.645023 
L 348.145167 143.645023 
z
" style="fill:#ffbb78;"/>
   </g>
   <g id="patch_75">
    <path clip-path="url(#p68916d6266)" d="M 352.265148 273.312 
L 355.561133 273.312 
L 355.561133 131.380837 
L 352.265148 131.380837 
z
" style="fill:#ffbb78;"/>
   </g>
   <g id="patch_76">
    <path clip-path="url(#p68916d6266)" d="M 356.38513 273.312 
L 359.681115 273.312 
L 359.681115 117.509209 
L 356.38513 117.509209 
z
" style="fill:#ffbb78;"/>
   </g>
   <g id="patch_77">
    <path clip-path="url(#p68916d6266)" d="M 360.505111 273.312 
L 363.801097 273.312 
L 363.801097 99.47014 
L 360.505111 99.47014 
z
" style="fill:#ffbb78;"/>
   </g>
   <g id="patch_78">
    <path clip-path="url(#p68916d6266)" d="M 364.625093 273.312 
L 367.921078 273.312 
L 367.921078 78.573395 
L 364.625093 78.573395 
z
" style="fill:#ffbb78;"/>
   </g>
   <g id="patch_79">
    <path clip-path="url(#p68916d6266)" d="M 368.745074 273.312 
L 372.04106 273.312 
L 372.04106 55.771535 
L 368.745074 55.771535 
z
" style="fill:#ffbb78;"/>
   </g>
   <g id="patch_80">
    <path clip-path="url(#p68916d6266)" d="M 372.865056 273.312 
L 376.161041 273.312 
L 376.161041 40.768744 
L 372.865056 40.768744 
z
" style="fill:#ffbb78;"/>
   </g>
   <g id="patch_81">
    <path clip-path="url(#p68916d6266)" d="M 376.985037 273.312 
L 380.281023 273.312 
L 380.281023 19.872 
L 376.985037 19.872 
z
" style="fill:#ffbb78;"/>
   </g>
   <g id="patch_82">
    <path clip-path="url(#p68916d6266)" d="M 55.626477 273.312 
L 58.922463 273.312 
L 58.922463 273.312 
L 55.626477 273.312 
z
" style="fill:#d62728;"/>
   </g>
   <g id="patch_83">
    <path clip-path="url(#p68916d6266)" d="M 59.746459 273.312 
L 63.042444 273.312 
L 63.042444 273.312 
L 59.746459 273.312 
z
" style="fill:#d62728;"/>
   </g>
   <g id="patch_84">
    <path clip-path="url(#p68916d6266)" d="M 63.86644 273.312 
L 67.162426 273.312 
L 67.162426 273.312 
L 63.86644 273.312 
z
" style="fill:#d62728;"/>
   </g>
   <g id="patch_85">
    <path clip-path="url(#p68916d6266)" d="M 67.986422 273.312 
L 71.282407 273.312 
L 71.282407 273.312 
L 67.986422 273.312 
z
" style="fill:#d62728;"/>
   </g>
   <g id="patch_86">
    <path clip-path="url(#p68916d6266)" d="M 72.106403 273.312 
L 75.402389 273.312 
L 75.402389 273.312 
L 72.106403 273.312 
z
" style="fill:#d62728;"/>
   </g>
   <g id="patch_87">
    <path clip-path="url(#p68916d6266)" d="M 76.226385 273.312 
L 79.52237 273.312 
L 79.52237 273.312 
L 76.226385 273.312 
z
" style="fill:#d62728;"/>
   </g>
   <g id="patch_88">
    <path clip-path="url(#p68916d6266)" d="M 80.346367 273.312 
L 83.642352 273.312 
L 83.642352 273.312 
L 80.346367 273.312 
z
" style="fill:#d62728;"/>
   </g>
   <g id="patch_89">
    <path clip-path="url(#p68916d6266)" d="M 84.466348 273.312 
L 87.762333 273.312 
L 87.762333 273.312 
L 84.466348 273.312 
z
" style="fill:#d62728;"/>
   </g>
   <g id="patch_90">
    <path clip-path="url(#p68916d6266)" d="M 88.58633 273.312 
L 91.882315 273.312 
L 91.882315 273.312 
L 88.58633 273.312 
z
" style="fill:#d62728;"/>
   </g>
   <g id="patch_91">
    <path clip-path="url(#p68916d6266)" d="M 92.706311 273.312 
L 96.002296 273.312 
L 96.002296 273.312 
L 92.706311 273.312 
z
" style="fill:#d62728;"/>
   </g>
   <g id="patch_92">
    <path clip-path="url(#p68916d6266)" d="M 96.826293 273.312 
L 100.122278 273.312 
L 100.122278 273.312 
L 96.826293 273.312 
z
" style="fill:#d62728;"/>
   </g>
   <g id="patch_93">
    <path clip-path="url(#p68916d6266)" d="M 100.946274 273.312 
L 104.242259 273.312 
L 104.242259 273.312 
L 100.946274 273.312 
z
" style="fill:#d62728;"/>
   </g>
   <g id="patch_94">
    <path clip-path="url(#p68916d6266)" d="M 105.066256 273.312 
L 108.362241 273.312 
L 108.362241 273.312 
L 105.066256 273.312 
z
" style="fill:#d62728;"/>
   </g>
   <g id="patch_95">
    <path clip-path="url(#p68916d6266)" d="M 109.186237 273.312 
L 112.482223 273.312 
L 112.482223 273.312 
L 109.186237 273.312 
z
" style="fill:#d62728;"/>
   </g>
   <g id="patch_96">
    <path clip-path="url(#p68916d6266)" d="M 113.306219 273.312 
L 116.602204 273.312 
L 116.602204 273.312 
L 113.306219 273.312 
z
" style="fill:#d62728;"/>
   </g>
   <g id="patch_97">
    <path clip-path="url(#p68916d6266)" d="M 117.4262 273.312 
L 120.722186 273.312 
L 120.722186 273.312 
L 117.4262 273.312 
z
" style="fill:#d62728;"/>
   </g>
   <g id="patch_98">
    <path clip-path="url(#p68916d6266)" d="M 121.546182 273.312 
L 124.842167 273.312 
L 124.842167 273.312 
L 121.546182 273.312 
z
" style="fill:#d62728;"/>
   </g>
   <g id="patch_99">
    <path clip-path="url(#p68916d6266)" d="M 125.666163 273.312 
L 128.962149 273.312 
L 128.962149 273.312 
L 125.666163 273.312 
z
" style="fill:#d62728;"/>
   </g>
   <g id="patch_100">
    <path clip-path="url(#p68916d6266)" d="M 129.786145 273.312 
L 133.08213 273.312 
L 133.08213 273.312 
L 129.786145 273.312 
z
" style="fill:#d62728;"/>
   </g>
   <g id="patch_101">
    <path clip-path="url(#p68916d6266)" d="M 133.906127 273.312 
L 137.202112 273.312 
L 137.202112 273.312 
L 133.906127 273.312 
z
" style="fill:#d62728;"/>
   </g>
   <g id="patch_102">
    <path clip-path="url(#p68916d6266)" d="M 138.026108 273.312 
L 141.322093 273.312 
L 141.322093 273.312 
L 138.026108 273.312 
z
" style="fill:#d62728;"/>
   </g>
   <g id="patch_103">
    <path clip-path="url(#p68916d6266)" d="M 142.14609 273.312 
L 145.442075 273.312 
L 145.442075 273.312 
L 142.14609 273.312 
z
" style="fill:#d62728;"/>
   </g>
   <g id="patch_104">
    <path clip-path="url(#p68916d6266)" d="M 146.266071 273.312 
L 149.562056 273.312 
L 149.562056 273.312 
L 146.266071 273.312 
z
" style="fill:#d62728;"/>
   </g>
   <g id="patch_105">
    <path clip-path="url(#p68916d6266)" d="M 150.386053 273.312 
L 153.682038 273.312 
L 153.682038 273.312 
L 150.386053 273.312 
z
" style="fill:#d62728;"/>
   </g>
   <g id="patch_106">
    <path clip-path="url(#p68916d6266)" d="M 154.506034 273.312 
L 157.802019 273.312 
L 157.802019 273.252465 
L 154.506034 273.252465 
z
" style="fill:#d62728;"/>
   </g>
   <g id="patch_107">
    <path clip-path="url(#p68916d6266)" d="M 158.626016 273.312 
L 161.922001 273.312 
L 161.922001 273.252465 
L 158.626016 273.252465 
z
" style="fill:#d62728;"/>
   </g>
   <g id="patch_108">
    <path clip-path="url(#p68916d6266)" d="M 162.745997 273.312 
L 166.041983 273.312 
L 166.041983 273.252465 
L 162.745997 273.252465 
z
" style="fill:#d62728;"/>
   </g>
   <g id="patch_109">
    <path clip-path="url(#p68916d6266)" d="M 166.865979 273.312 
L 170.161964 273.312 
L 170.161964 273.252465 
L 166.865979 273.252465 
z
" style="fill:#d62728;"/>
   </g>
   <g id="patch_110">
    <path clip-path="url(#p68916d6266)" d="M 170.98596 273.312 
L 174.281946 273.312 
L 174.281946 273.252465 
L 170.98596 273.252465 
z
" style="fill:#d62728;"/>
   </g>
   <g id="patch_111">
    <path clip-path="url(#p68916d6266)" d="M 175.105942 273.312 
L 178.401927 273.312 
L 178.401927 273.252465 
L 175.105942 273.252465 
z
" style="fill:#d62728;"/>
   </g>
   <g id="patch_112">
    <path clip-path="url(#p68916d6266)" d="M 179.225924 273.312 
L 182.521909 273.312 
L 182.521909 273.252465 
L 179.225924 273.252465 
z
" style="fill:#d62728;"/>
   </g>
   <g id="patch_113">
    <path clip-path="url(#p68916d6266)" d="M 183.345905 273.312 
L 186.64189 273.312 
L 186.64189 273.252465 
L 183.345905 273.252465 
z
" style="fill:#d62728;"/>
   </g>
   <g id="patch_114">
    <path clip-path="url(#p68916d6266)" d="M 187.465887 273.312 
L 190.761872 273.312 
L 190.761872 273.252465 
L 187.465887 273.252465 
z
" style="fill:#d62728;"/>
   </g>
   <g id="patch_115">
    <path clip-path="url(#p68916d6266)" d="M 191.585868 273.312 
L 194.881853 273.312 
L 194.881853 273.252465 
L 191.585868 273.252465 
z
" style="fill:#d62728;"/>
   </g>
   <g id="patch_116">
    <path clip-path="url(#p68916d6266)" d="M 195.70585 273.312 
L 199.001835 273.312 
L 199.001835 273.252465 
L 195.70585 273.252465 
z
" style="fill:#d62728;"/>
   </g>
   <g id="patch_117">
    <path clip-path="url(#p68916d6266)" d="M 199.825831 273.312 
L 203.121816 273.312 
L 203.121816 273.252465 
L 199.825831 273.252465 
z
" style="fill:#d62728;"/>
   </g>
   <g id="patch_118">
    <path clip-path="url(#p68916d6266)" d="M 203.945813 273.312 
L 207.241798 273.312 
L 207.241798 273.252465 
L 203.945813 273.252465 
z
" style="fill:#d62728;"/>
   </g>
   <g id="patch_119">
    <path clip-path="url(#p68916d6266)" d="M 208.065794 273.312 
L 211.36178 273.312 
L 211.36178 273.133395 
L 208.065794 273.133395 
z
" style="fill:#d62728;"/>
   </g>
   <g id="patch_120">
    <path clip-path="url(#p68916d6266)" d="M 212.185776 273.312 
L 215.481761 273.312 
L 215.481761 273.07386 
L 212.185776 273.07386 
z
" style="fill:#d62728;"/>
   </g>
   <g id="patch_121">
    <path clip-path="url(#p68916d6266)" d="M 216.305757 273.312 
L 219.601743 273.312 
L 219.601743 273.014326 
L 216.305757 273.014326 
z
" style="fill:#d62728;"/>
   </g>
   <g id="patch_122">
    <path clip-path="url(#p68916d6266)" d="M 220.425739 273.312 
L 223.721724 273.312 
L 223.721724 273.014326 
L 220.425739 273.014326 
z
" style="fill:#d62728;"/>
   </g>
   <g id="patch_123">
    <path clip-path="url(#p68916d6266)" d="M 224.54572 273.312 
L 227.841706 273.312 
L 227.841706 272.954791 
L 224.54572 272.954791 
z
" style="fill:#d62728;"/>
   </g>
   <g id="patch_124">
    <path clip-path="url(#p68916d6266)" d="M 228.665702 273.312 
L 231.961687 273.312 
L 231.961687 272.954791 
L 228.665702 272.954791 
z
" style="fill:#d62728;"/>
   </g>
   <g id="patch_125">
    <path clip-path="url(#p68916d6266)" d="M 232.785684 273.312 
L 236.081669 273.312 
L 236.081669 272.954791 
L 232.785684 272.954791 
z
" style="fill:#d62728;"/>
   </g>
   <g id="patch_126">
    <path clip-path="url(#p68916d6266)" d="M 236.905665 273.312 
L 240.20165 273.312 
L 240.20165 272.954791 
L 236.905665 272.954791 
z
" style="fill:#d62728;"/>
   </g>
   <g id="patch_127">
    <path clip-path="url(#p68916d6266)" d="M 241.025647 273.312 
L 244.321632 273.312 
L 244.321632 272.954791 
L 241.025647 272.954791 
z
" style="fill:#d62728;"/>
   </g>
   <g id="patch_128">
    <path clip-path="url(#p68916d6266)" d="M 245.145628 273.312 
L 248.441613 273.312 
L 248.441613 272.954791 
L 245.145628 272.954791 
z
" style="fill:#d62728;"/>
   </g>
   <g id="patch_129">
    <path clip-path="url(#p68916d6266)" d="M 249.26561 273.312 
L 252.561595 273.312 
L 252.561595 272.954791 
L 249.26561 272.954791 
z
" style="fill:#d62728;"/>
   </g>
   <g id="patch_130">
    <path clip-path="url(#p68916d6266)" d="M 253.385591 273.312 
L 256.681576 273.312 
L 256.681576 272.895256 
L 253.385591 272.895256 
z
" style="fill:#d62728;"/>
   </g>
   <g id="patch_131">
    <path clip-path="url(#p68916d6266)" d="M 257.505573 273.312 
L 260.801558 273.312 
L 260.801558 272.776186 
L 257.505573 272.776186 
z
" style="fill:#d62728;"/>
   </g>
   <g id="patch_132">
    <path clip-path="url(#p68916d6266)" d="M 261.625554 273.312 
L 264.92154 273.312 
L 264.92154 272.597581 
L 261.625554 272.597581 
z
" style="fill:#d62728;"/>
   </g>
   <g id="patch_133">
    <path clip-path="url(#p68916d6266)" d="M 265.745536 273.312 
L 269.041521 273.312 
L 269.041521 272.418977 
L 265.745536 272.418977 
z
" style="fill:#d62728;"/>
   </g>
   <g id="patch_134">
    <path clip-path="url(#p68916d6266)" d="M 269.865517 273.312 
L 273.161503 273.312 
L 273.161503 272.180837 
L 269.865517 272.180837 
z
" style="fill:#d62728;"/>
   </g>
   <g id="patch_135">
    <path clip-path="url(#p68916d6266)" d="M 273.985499 273.312 
L 277.281484 273.312 
L 277.281484 272.061767 
L 273.985499 272.061767 
z
" style="fill:#d62728;"/>
   </g>
   <g id="patch_136">
    <path clip-path="url(#p68916d6266)" d="M 278.105481 273.312 
L 281.401466 273.312 
L 281.401466 272.002233 
L 278.105481 272.002233 
z
" style="fill:#d62728;"/>
   </g>
   <g id="patch_137">
    <path clip-path="url(#p68916d6266)" d="M 282.225462 273.312 
L 285.521447 273.312 
L 285.521447 271.883163 
L 282.225462 271.883163 
z
" style="fill:#d62728;"/>
   </g>
   <g id="patch_138">
    <path clip-path="url(#p68916d6266)" d="M 286.345444 273.312 
L 289.641429 273.312 
L 289.641429 271.645023 
L 286.345444 271.645023 
z
" style="fill:#d62728;"/>
   </g>
   <g id="patch_139">
    <path clip-path="url(#p68916d6266)" d="M 290.465425 273.312 
L 293.76141 273.312 
L 293.76141 271.645023 
L 290.465425 271.645023 
z
" style="fill:#d62728;"/>
   </g>
   <g id="patch_140">
    <path clip-path="url(#p68916d6266)" d="M 294.585407 273.312 
L 297.881392 273.312 
L 297.881392 271.585488 
L 294.585407 271.585488 
z
" style="fill:#d62728;"/>
   </g>
   <g id="patch_141">
    <path clip-path="url(#p68916d6266)" d="M 298.705388 273.312 
L 302.001373 273.312 
L 302.001373 271.347349 
L 298.705388 271.347349 
z
" style="fill:#d62728;"/>
   </g>
   <g id="patch_142">
    <path clip-path="url(#p68916d6266)" d="M 302.82537 273.312 
L 306.121355 273.312 
L 306.121355 271.228279 
L 302.82537 271.228279 
z
" style="fill:#d62728;"/>
   </g>
   <g id="patch_143">
    <path clip-path="url(#p68916d6266)" d="M 306.945351 273.312 
L 310.241337 273.312 
L 310.241337 271.168744 
L 306.945351 271.168744 
z
" style="fill:#d62728;"/>
   </g>
   <g id="patch_144">
    <path clip-path="url(#p68916d6266)" d="M 311.065333 273.312 
L 314.361318 273.312 
L 314.361318 270.87107 
L 311.065333 270.87107 
z
" style="fill:#d62728;"/>
   </g>
   <g id="patch_145">
    <path clip-path="url(#p68916d6266)" d="M 315.185314 273.312 
L 318.4813 273.312 
L 318.4813 270.811535 
L 315.185314 270.811535 
z
" style="fill:#d62728;"/>
   </g>
   <g id="patch_146">
    <path clip-path="url(#p68916d6266)" d="M 319.305296 273.312 
L 322.601281 273.312 
L 322.601281 270.752 
L 319.305296 270.752 
z
" style="fill:#d62728;"/>
   </g>
   <g id="patch_147">
    <path clip-path="url(#p68916d6266)" d="M 323.425277 273.312 
L 326.721263 273.312 
L 326.721263 270.63293 
L 323.425277 270.63293 
z
" style="fill:#d62728;"/>
   </g>
   <g id="patch_148">
    <path clip-path="url(#p68916d6266)" d="M 327.545259 273.312 
L 330.841244 273.312 
L 330.841244 270.573395 
L 327.545259 270.573395 
z
" style="fill:#d62728;"/>
   </g>
   <g id="patch_149">
    <path clip-path="url(#p68916d6266)" d="M 331.665241 273.312 
L 334.961226 273.312 
L 334.961226 270.394791 
L 331.665241 270.394791 
z
" style="fill:#d62728;"/>
   </g>
   <g id="patch_150">
    <path clip-path="url(#p68916d6266)" d="M 335.785222 273.312 
L 339.081207 273.312 
L 339.081207 270.216186 
L 335.785222 270.216186 
z
" style="fill:#d62728;"/>
   </g>
   <g id="patch_151">
    <path clip-path="url(#p68916d6266)" d="M 339.905204 273.312 
L 343.201189 273.312 
L 343.201189 270.097116 
L 339.905204 270.097116 
z
" style="fill:#d62728;"/>
   </g>
   <g id="patch_152">
    <path clip-path="url(#p68916d6266)" d="M 344.025185 273.312 
L 347.32117 273.312 
L 347.32117 269.978047 
L 344.025185 269.978047 
z
" style="fill:#d62728;"/>
   </g>
   <g id="patch_153">
    <path clip-path="url(#p68916d6266)" d="M 348.145167 273.312 
L 351.441152 273.312 
L 351.441152 269.918512 
L 348.145167 269.918512 
z
" style="fill:#d62728;"/>
   </g>
   <g id="patch_154">
    <path clip-path="url(#p68916d6266)" d="M 352.265148 273.312 
L 355.561133 273.312 
L 355.561133 269.918512 
L 352.265148 269.918512 
z
" style="fill:#d62728;"/>
   </g>
   <g id="patch_155">
    <path clip-path="url(#p68916d6266)" d="M 356.38513 273.312 
L 359.681115 273.312 
L 359.681115 269.442233 
L 356.38513 269.442233 
z
" style="fill:#d62728;"/>
   </g>
   <g id="patch_156">
    <path clip-path="url(#p68916d6266)" d="M 360.505111 273.312 
L 363.801097 273.312 
L 363.801097 269.204093 
L 360.505111 269.204093 
z
" style="fill:#d62728;"/>
   </g>
   <g id="patch_157">
    <path clip-path="url(#p68916d6266)" d="M 364.625093 273.312 
L 367.921078 273.312 
L 367.921078 269.144558 
L 364.625093 269.144558 
z
" style="fill:#d62728;"/>
   </g>
   <g id="patch_158">
    <path clip-path="url(#p68916d6266)" d="M 368.745074 273.312 
L 372.04106 273.312 
L 372.04106 268.965953 
L 368.745074 268.965953 
z
" style="fill:#d62728;"/>
   </g>
   <g id="patch_159">
    <path clip-path="url(#p68916d6266)" d="M 372.865056 273.312 
L 376.161041 273.312 
L 376.161041 268.549209 
L 372.865056 268.549209 
z
" style="fill:#d62728;"/>
   </g>
   <g id="patch_160">
    <path clip-path="url(#p68916d6266)" d="M 376.985037 273.312 
L 380.281023 273.312 
L 380.281023 268.489674 
L 376.985037 268.489674 
z
" style="fill:#d62728;"/>
   </g>
   <g id="matplotlib.axis_1">
    <g id="xtick_1">
     <g id="line2d_1">
      <defs>
       <path d="M 0 0 
L 0 3.5 
" id="md2b89562de" style="stroke:#000000;stroke-width:0.8;"/>
      </defs>
      <g>
       <use style="stroke:#000000;stroke-width:0.8;" x="102.594267" xlink:href="#md2b89562de" y="273.312"/>
      </g>
     </g>
     <g id="text_1">
      <!-- Feb -->
      <defs>
       <path d="M 54.203125 64.703125 
L 18.3125 64.703125 
L 18.3125 41.5 
L 50.09375 41.5 
L 50.09375 34.1875 
L 18.3125 34.1875 
L 18.3125 0.984375 
L 9.515625 0.984375 
L 9.515625 72.40625 
L 54.203125 72.40625 
z
" id="IPAexGothic-70"/>
       <path d="M 13.484375 24.90625 
Q 13.921875 16.265625 18.890625 11.28125 
Q 23.96875 6.203125 31.203125 6.203125 
Q 40.71875 6.203125 46.296875 15.09375 
L 51.90625 11.375 
Q 44.828125 -0.484375 30.171875 -0.484375 
Q 19.09375 -0.484375 11.96875 6.59375 
Q 4.78125 13.8125 4.78125 25.640625 
Q 4.78125 38.1875 12.3125 45.703125 
Q 19 52.390625 29 52.390625 
Q 38.421875 52.390625 44.78125 46.1875 
Q 51.90625 38.96875 51.90625 26.90625 
L 51.90625 24.90625 
z
M 43.0625 31.203125 
Q 42.328125 37.984375 38.28125 41.890625 
Q 34.28125 45.90625 28.8125 45.90625 
Q 22.46875 45.90625 17.96875 40.484375 
Q 14.890625 36.8125 13.96875 31.203125 
z
" id="IPAexGothic-101"/>
       <path d="M 17.578125 42.671875 
Q 24.21875 52.203125 34.671875 52.203125 
Q 43.5625 52.203125 49.859375 45.90625 
Q 57.171875 38.578125 57.171875 25.6875 
Q 57.171875 13.09375 49.859375 5.8125 
Q 43.5625 -0.484375 34.46875 -0.484375 
Q 24.359375 -0.484375 17 8.0625 
L 15.765625 0.6875 
L 9.078125 0.6875 
L 9.078125 74.90625 
L 17.578125 74.90625 
z
M 17.578125 31.203125 
L 17.578125 19.578125 
Q 17.578125 13.875 23.875 9.375 
Q 28.171875 6.296875 33.109375 6.296875 
Q 38.875 6.296875 42.875 10.296875 
Q 48.1875 15.765625 48.1875 25.484375 
Q 48.1875 34.28125 43.796875 39.890625 
Q 39.453125 45.3125 33.203125 45.3125 
Q 27.484375 45.3125 22.46875 40.28125 
Q 17.578125 35.40625 17.578125 31.203125 
z
" id="IPAexGothic-98"/>
      </defs>
      <g transform="translate(93.770829 287.802625)scale(0.1 -0.1)">
       <use xlink:href="#IPAexGothic-70"/>
       <use x="57.177734" xlink:href="#IPAexGothic-101"/>
       <use x="114.0625" xlink:href="#IPAexGothic-98"/>
      </g>
     </g>
    </g>
    <g id="xtick_2">
     <g id="line2d_2">
      <g>
       <use style="stroke:#000000;stroke-width:0.8;" x="160.274008" xlink:href="#md2b89562de" y="273.312"/>
      </g>
     </g>
     <g id="text_2">
      <!-- 15 -->
      <defs>
       <path d="M 38.484375 0.984375 
L 29.6875 0.984375 
L 29.6875 64.109375 
Q 21.4375 61.28125 12.3125 59.328125 
L 10.6875 66.109375 
Q 23.734375 69.390625 32.90625 73.921875 
L 38.484375 73.921875 
z
" id="IPAexGothic-49"/>
       <path d="M 18.40625 40.671875 
Q 25.53125 46.296875 33.9375 46.296875 
Q 44 46.296875 50.640625 39.5 
Q 56.84375 33.015625 56.84375 23.390625 
Q 56.84375 14.65625 51.515625 8.015625 
Q 44.828125 -0.484375 31.734375 -0.484375 
Q 14.984375 -0.484375 7.328125 12.25 
L 14.65625 16.0625 
Q 20.453125 6.78125 31.453125 6.78125 
Q 38.53125 6.78125 43.265625 11.1875 
Q 48.140625 15.828125 48.140625 23.484375 
Q 48.140625 30.71875 43.84375 35.015625 
Q 39.359375 39.5 32.125 39.5 
Q 21.96875 39.5 16.75 31.6875 
L 9.234375 32.671875 
L 13.8125 72.40625 
L 53.21875 72.40625 
L 53.21875 64.890625 
L 20.953125 64.890625 
L 17.71875 40.671875 
z
" id="IPAexGothic-53"/>
      </defs>
      <g transform="translate(153.975571 287.802625)scale(0.1 -0.1)">
       <use xlink:href="#IPAexGothic-49"/>
       <use x="62.988281" xlink:href="#IPAexGothic-53"/>
      </g>
     </g>
    </g>
    <g id="xtick_3">
     <g id="line2d_3">
      <g>
       <use style="stroke:#000000;stroke-width:0.8;" x="222.073732" xlink:href="#md2b89562de" y="273.312"/>
      </g>
     </g>
     <g id="text_3">
      <!-- Mar -->
      <defs>
       <path d="M 80.421875 0.984375 
L 71.828125 0.984375 
L 71.828125 39.59375 
Q 71.828125 51.265625 72.40625 64.59375 
L 72.015625 64.59375 
Q 68.0625 53.265625 63.53125 41.796875 
L 47.90625 3.265625 
L 41.40625 3.265625 
L 25.640625 42.578125 
Q 20.75 54.78125 17.625 64.703125 
L 17.234375 64.703125 
Q 17.828125 48.921875 17.828125 39.890625 
L 17.828125 0.984375 
L 9.515625 0.984375 
L 9.515625 72.40625 
L 22.125 72.40625 
L 39.109375 30.375 
Q 42.140625 23 44.828125 14.15625 
L 45.125 14.15625 
Q 47.3125 22.125 50.53125 30.171875 
L 67.4375 72.40625 
L 80.421875 72.40625 
z
" id="IPAexGothic-77"/>
       <path d="M 49.3125 0.984375 
L 41.75 0.984375 
Q 39.984375 4.734375 39.546875 8.6875 
L 39.203125 8.6875 
Q 33.546875 -0.390625 22.3125 -0.390625 
Q 14.59375 -0.390625 9.71875 4.5 
Q 5.421875 8.796875 5.421875 14.984375 
Q 5.421875 30.421875 32.03125 31.203125 
L 38.71875 31.390625 
L 38.71875 33.984375 
Q 38.71875 39.203125 35.75 42.1875 
Q 32.625 45.3125 27.734375 45.3125 
Q 19.34375 45.3125 15.140625 37.15625 
L 7.71875 40.578125 
Q 14.65625 52 27.9375 52 
Q 37.109375 52 42.046875 46.875 
Q 46.625 42.28125 46.625 33.890625 
L 46.625 15.578125 
Q 46.625 6.25 49.3125 0.984375 
z
M 38.921875 25.390625 
L 33.453125 25.296875 
Q 14.109375 24.859375 14.109375 14.890625 
Q 14.109375 11.375 16.40625 9.078125 
Q 19.234375 6.296875 23.828125 6.296875 
Q 30.21875 6.296875 34.90625 10.984375 
Q 38.921875 15.140625 38.921875 21 
z
" id="IPAexGothic-97"/>
       <path d="M 36.078125 51.8125 
L 34.578125 43.265625 
Q 32.90625 43.609375 31.59375 43.609375 
Q 25.828125 43.609375 22.078125 38.1875 
Q 17.390625 31.34375 17.390625 26.171875 
L 17.390625 0.984375 
L 8.796875 0.984375 
L 8.796875 50.78125 
L 16.890625 50.78125 
L 16.5 35.984375 
L 16.703125 35.984375 
Q 22.21875 52.203125 32.765625 52.203125 
Q 34.46875 52.203125 36.078125 51.8125 
z
" id="IPAexGothic-114"/>
      </defs>
      <g transform="translate(212.964357 287.802625)scale(0.1 -0.1)">
       <use xlink:href="#IPAexGothic-77"/>
       <use x="90.185547" xlink:href="#IPAexGothic-97"/>
       <use x="145.166016" xlink:href="#IPAexGothic-114"/>
      </g>
     </g>
    </g>
    <g id="xtick_4">
     <g id="line2d_4">
      <g>
       <use style="stroke:#000000;stroke-width:0.8;" x="279.753473" xlink:href="#md2b89562de" y="273.312"/>
      </g>
     </g>
     <g id="text_4">
      <!-- 15 -->
      <g transform="translate(273.455036 287.802625)scale(0.1 -0.1)">
       <use xlink:href="#IPAexGothic-49"/>
       <use x="62.988281" xlink:href="#IPAexGothic-53"/>
      </g>
     </g>
    </g>
    <g id="xtick_5">
     <g id="line2d_5">
      <g>
       <use style="stroke:#000000;stroke-width:0.8;" x="349.793159" xlink:href="#md2b89562de" y="273.312"/>
      </g>
     </g>
     <g id="text_5">
      <!-- Apr -->
      <defs>
       <path d="M 63.375 0.984375 
L 53.8125 0.984375 
L 45.90625 22.015625 
L 17.1875 22.015625 
L 9.421875 0.984375 
L -0.09375 0.984375 
L 28.21875 72.90625 
L 35.296875 72.90625 
z
M 43.40625 29.109375 
L 36.1875 48.09375 
Q 33.203125 56.0625 31.6875 62.5 
L 31.390625 62.5 
Q 29.640625 55.671875 26.8125 48.09375 
L 19.734375 29.109375 
z
" id="IPAexGothic-65"/>
       <path d="M 16.796875 42 
Q 23.828125 52.203125 34.46875 52.203125 
Q 43.265625 52.203125 49.5625 45.90625 
Q 56.890625 38.578125 56.890625 25.6875 
Q 56.890625 13.140625 49.65625 5.8125 
Q 43.359375 -0.484375 34.375 -0.484375 
Q 24.515625 -0.484375 17.28125 7.765625 
L 17.28125 -19 
L 8.796875 -19 
L 8.796875 50.78125 
L 16.796875 50.78125 
z
M 17.28125 30.46875 
L 17.28125 20.171875 
Q 17.28125 14.015625 23.6875 9.375 
Q 27.984375 6.296875 32.90625 6.296875 
Q 38.578125 6.296875 42.578125 10.296875 
Q 47.90625 15.578125 47.90625 25.484375 
Q 47.90625 34.375 43.5 39.984375 
Q 39.109375 45.3125 32.8125 45.3125 
Q 25.875 45.3125 20.90625 38.8125 
Q 17.28125 34.125 17.28125 30.46875 
z
" id="IPAexGothic-112"/>
      </defs>
      <g transform="translate(341.650972 287.802625)scale(0.1 -0.1)">
       <use xlink:href="#IPAexGothic-65"/>
       <use x="63.720703" xlink:href="#IPAexGothic-112"/>
       <use x="125.830078" xlink:href="#IPAexGothic-114"/>
      </g>
     </g>
    </g>
    <g id="text_6">
     <!-- 2020-Apr -->
     <defs>
      <path d="M 57.171875 0.984375 
L 6.984375 0.984375 
L 6.984375 9.28125 
Q 12.890625 23.046875 29.59375 34.421875 
L 32.375 36.28125 
Q 40.921875 42.140625 43.609375 45.40625 
Q 46.6875 49.265625 46.6875 53.8125 
Q 46.6875 58.9375 43.0625 62.546875 
Q 39.0625 66.546875 32.5625 66.546875 
Q 19.53125 66.546875 15.484375 52 
L 7.765625 54.78125 
Q 13.328125 73.828125 33.0625 73.828125 
Q 43.84375 73.828125 50.25 67.4375 
Q 55.859375 61.671875 55.859375 53.515625 
Q 55.859375 47.46875 52.25 42.53125 
Q 48.921875 37.75 36.96875 30.28125 
L 34.859375 29 
Q 19.625 19.578125 15.28125 8.890625 
L 57.171875 8.890625 
z
" id="IPAexGothic-50"/>
      <path d="M 31.84375 73.828125 
Q 45.015625 73.828125 52.09375 61.625 
Q 57.71875 51.953125 57.71875 36.625 
Q 57.71875 21.4375 52.09375 11.578125 
Q 45.125 -0.484375 31.5 -0.484375 
Q 17.921875 -0.484375 10.9375 11.578125 
Q 5.328125 21.4375 5.328125 36.71875 
Q 5.328125 58.015625 15.625 67.71875 
Q 22.171875 73.828125 31.84375 73.828125 
z
M 31.5 66.65625 
Q 23.6875 66.65625 19.1875 58.734375 
Q 14.59375 50.734375 14.59375 36.625 
Q 14.59375 22.75 19.09375 14.796875 
Q 23.640625 6.984375 31.5 6.984375 
Q 40.921875 6.984375 45.453125 18.015625 
Q 48.4375 25.34375 48.4375 37.109375 
Q 48.4375 50.875 43.84375 58.734375 
Q 39.203125 66.65625 31.5 66.65625 
z
" id="IPAexGothic-48"/>
      <path d="M 30.765625 26.609375 
L 4.984375 26.609375 
L 4.984375 34.421875 
L 30.765625 34.421875 
z
" id="IPAexGothic-45"/>
     </defs>
     <g transform="translate(351.455938 300.19325)scale(0.1 -0.1)">
      <use xlink:href="#IPAexGothic-50"/>
      <use x="62.988281" xlink:href="#IPAexGothic-48"/>
      <use x="125.976562" xlink:href="#IPAexGothic-50"/>
      <use x="188.964844" xlink:href="#IPAexGothic-48"/>
      <use x="251.953125" xlink:href="#IPAexGothic-45"/>
      <use x="287.744141" xlink:href="#IPAexGothic-65"/>
      <use x="351.464844" xlink:href="#IPAexGothic-112"/>
      <use x="413.574219" xlink:href="#IPAexGothic-114"/>
     </g>
    </g>
   </g>
   <g id="matplotlib.axis_2">
    <g id="ytick_1">
     <g id="line2d_6">
      <defs>
       <path d="M 0 0 
L -3.5 0 
" id="med0046f4bd" style="stroke:#000000;stroke-width:0.8;"/>
      </defs>
      <g>
       <use style="stroke:#000000;stroke-width:0.8;" x="39.39375" xlink:href="#med0046f4bd" y="273.312"/>
      </g>
     </g>
     <g id="text_7">
      <!-- 0 -->
      <g transform="translate(26.095313 277.057312)scale(0.1 -0.1)">
       <use xlink:href="#IPAexGothic-48"/>
      </g>
     </g>
    </g>
    <g id="ytick_2">
     <g id="line2d_7">
      <g>
       <use style="stroke:#000000;stroke-width:0.8;" x="39.39375" xlink:href="#med0046f4bd" y="243.544558"/>
      </g>
     </g>
     <g id="text_8">
      <!-- 500 -->
      <g transform="translate(13.498438 247.289871)scale(0.1 -0.1)">
       <use xlink:href="#IPAexGothic-53"/>
       <use x="62.988281" xlink:href="#IPAexGothic-48"/>
       <use x="125.976562" xlink:href="#IPAexGothic-48"/>
      </g>
     </g>
    </g>
    <g id="ytick_3">
     <g id="line2d_8">
      <g>
       <use style="stroke:#000000;stroke-width:0.8;" x="39.39375" xlink:href="#med0046f4bd" y="213.777116"/>
      </g>
     </g>
     <g id="text_9">
      <!-- 1000 -->
      <g transform="translate(7.2 217.522429)scale(0.1 -0.1)">
       <use xlink:href="#IPAexGothic-49"/>
       <use x="62.988281" xlink:href="#IPAexGothic-48"/>
       <use x="125.976562" xlink:href="#IPAexGothic-48"/>
       <use x="188.964844" xlink:href="#IPAexGothic-48"/>
      </g>
     </g>
    </g>
    <g id="ytick_4">
     <g id="line2d_9">
      <g>
       <use style="stroke:#000000;stroke-width:0.8;" x="39.39375" xlink:href="#med0046f4bd" y="184.009674"/>
      </g>
     </g>
     <g id="text_10">
      <!-- 1500 -->
      <g transform="translate(7.2 187.754987)scale(0.1 -0.1)">
       <use xlink:href="#IPAexGothic-49"/>
       <use x="62.988281" xlink:href="#IPAexGothic-53"/>
       <use x="125.976562" xlink:href="#IPAexGothic-48"/>
       <use x="188.964844" xlink:href="#IPAexGothic-48"/>
      </g>
     </g>
    </g>
    <g id="ytick_5">
     <g id="line2d_10">
      <g>
       <use style="stroke:#000000;stroke-width:0.8;" x="39.39375" xlink:href="#med0046f4bd" y="154.242233"/>
      </g>
     </g>
     <g id="text_11">
      <!-- 2000 -->
      <g transform="translate(7.2 157.987545)scale(0.1 -0.1)">
       <use xlink:href="#IPAexGothic-50"/>
       <use x="62.988281" xlink:href="#IPAexGothic-48"/>
       <use x="125.976562" xlink:href="#IPAexGothic-48"/>
       <use x="188.964844" xlink:href="#IPAexGothic-48"/>
      </g>
     </g>
    </g>
    <g id="ytick_6">
     <g id="line2d_11">
      <g>
       <use style="stroke:#000000;stroke-width:0.8;" x="39.39375" xlink:href="#med0046f4bd" y="124.474791"/>
      </g>
     </g>
     <g id="text_12">
      <!-- 2500 -->
      <g transform="translate(7.2 128.220103)scale(0.1 -0.1)">
       <use xlink:href="#IPAexGothic-50"/>
       <use x="62.988281" xlink:href="#IPAexGothic-53"/>
       <use x="125.976562" xlink:href="#IPAexGothic-48"/>
       <use x="188.964844" xlink:href="#IPAexGothic-48"/>
      </g>
     </g>
    </g>
    <g id="ytick_7">
     <g id="line2d_12">
      <g>
       <use style="stroke:#000000;stroke-width:0.8;" x="39.39375" xlink:href="#med0046f4bd" y="94.707349"/>
      </g>
     </g>
     <g id="text_13">
      <!-- 3000 -->
      <defs>
       <path d="M 37.203125 37.796875 
Q 54.78125 34.625 54.78125 19.96875 
Q 54.78125 11.1875 48.875 5.5625 
Q 42.328125 -0.484375 30.375 -0.484375 
Q 12.453125 -0.484375 4.5 13.765625 
L 11.8125 17.671875 
Q 17.328125 6.890625 30.28125 6.890625 
Q 37.890625 6.890625 42.09375 10.796875 
Q 46.09375 14.5 46.09375 20.171875 
Q 46.09375 26.859375 40.09375 30.90625 
Q 34.625 34.578125 25.6875 34.578125 
L 21.296875 34.578125 
L 21.296875 41.703125 
L 25.875 41.703125 
Q 34.859375 41.703125 39.59375 45.125 
Q 44.671875 48.734375 44.671875 54.828125 
Q 44.671875 61.46875 38.96875 64.65625 
Q 35.296875 66.84375 30.171875 66.84375 
Q 19.34375 66.84375 14.109375 55.90625 
L 6.78125 59.421875 
Q 14.015625 73.828125 30.28125 73.828125 
Q 40.578125 73.828125 46.96875 68.65625 
Q 53.375 63.578125 53.375 55.21875 
Q 53.375 47.3125 47.171875 42.28125 
Q 43.171875 39.0625 37.203125 38.1875 
z
" id="IPAexGothic-51"/>
      </defs>
      <g transform="translate(7.2 98.452661)scale(0.1 -0.1)">
       <use xlink:href="#IPAexGothic-51"/>
       <use x="62.988281" xlink:href="#IPAexGothic-48"/>
       <use x="125.976562" xlink:href="#IPAexGothic-48"/>
       <use x="188.964844" xlink:href="#IPAexGothic-48"/>
      </g>
     </g>
    </g>
    <g id="ytick_8">
     <g id="line2d_13">
      <g>
       <use style="stroke:#000000;stroke-width:0.8;" x="39.39375" xlink:href="#med0046f4bd" y="64.939907"/>
      </g>
     </g>
     <g id="text_14">
      <!-- 3500 -->
      <g transform="translate(7.2 68.685219)scale(0.1 -0.1)">
       <use xlink:href="#IPAexGothic-51"/>
       <use x="62.988281" xlink:href="#IPAexGothic-53"/>
       <use x="125.976562" xlink:href="#IPAexGothic-48"/>
       <use x="188.964844" xlink:href="#IPAexGothic-48"/>
      </g>
     </g>
    </g>
    <g id="ytick_9">
     <g id="line2d_14">
      <g>
       <use style="stroke:#000000;stroke-width:0.8;" x="39.39375" xlink:href="#med0046f4bd" y="35.172465"/>
      </g>
     </g>
     <g id="text_15">
      <!-- 4000 -->
      <defs>
       <path d="M 59.578125 18.109375 
L 47.796875 18.109375 
L 47.796875 0.984375 
L 39.796875 0.984375 
L 39.796875 18.109375 
L 3.078125 18.109375 
L 3.078125 26.125 
L 38.375 73.09375 
L 47.796875 73.09375 
L 47.796875 25.53125 
L 59.578125 25.53125 
z
M 40.28125 64.203125 
L 39.984375 64.203125 
Q 35.59375 57.125 31.296875 51.3125 
L 11.859375 25.53125 
L 39.796875 25.53125 
L 39.796875 49.125 
Q 39.796875 54.390625 40.28125 64.203125 
z
" id="IPAexGothic-52"/>
      </defs>
      <g transform="translate(7.2 38.917778)scale(0.1 -0.1)">
       <use xlink:href="#IPAexGothic-52"/>
       <use x="62.988281" xlink:href="#IPAexGothic-48"/>
       <use x="125.976562" xlink:href="#IPAexGothic-48"/>
       <use x="188.964844" xlink:href="#IPAexGothic-48"/>
      </g>
     </g>
    </g>
   </g>
   <g id="patch_161">
    <path d="M 39.39375 273.312 
L 39.39375 7.2 
" style="fill:none;stroke:#000000;stroke-linecap:square;stroke-linejoin:miter;stroke-width:0.8;"/>
   </g>
   <g id="patch_162">
    <path d="M 396.51375 273.312 
L 396.51375 7.2 
" style="fill:none;stroke:#000000;stroke-linecap:square;stroke-linejoin:miter;stroke-width:0.8;"/>
   </g>
   <g id="patch_163">
    <path d="M 39.39375 273.312 
L 396.51375 273.312 
" style="fill:none;stroke:#000000;stroke-linecap:square;stroke-linejoin:miter;stroke-width:0.8;"/>
   </g>
   <g id="patch_164">
    <path d="M 39.39375 7.2 
L 396.51375 7.2 
" style="fill:none;stroke:#000000;stroke-linecap:square;stroke-linejoin:miter;stroke-width:0.8;"/>
   </g>
   <g id="legend_1">
    <g id="patch_165">
     <path d="M 46.39375 44.340625 
L 164.235938 44.340625 
Q 166.235938 44.340625 166.235938 42.340625 
L 166.235938 14.2 
Q 166.235938 12.2 164.235938 12.2 
L 46.39375 12.2 
Q 44.39375 12.2 44.39375 14.2 
L 44.39375 42.340625 
Q 44.39375 44.340625 46.39375 44.340625 
z
" style="fill:#ffffff;opacity:0.8;stroke:#cccccc;stroke-linejoin:miter;"/>
    </g>
    <g id="patch_166">
     <path d="M 48.39375 23.870312 
L 68.39375 23.870312 
L 68.39375 16.870312 
L 48.39375 16.870312 
z
" style="fill:#ffbb78;"/>
    </g>
    <g id="text_16">
     <!-- Confirmed (Japan) -->
     <defs>
      <path d="M 68.015625 17 
Q 65.328125 10.84375 60.296875 6.6875 
Q 51.765625 -0.484375 39.984375 -0.484375 
Q 24.8125 -0.484375 14.984375 10.203125 
Q 5.90625 20.21875 5.90625 36.421875 
Q 5.90625 53.21875 15.828125 63.71875 
Q 25.296875 73.828125 39.59375 73.828125 
Q 59.578125 73.828125 67.53125 56.6875 
L 59.515625 52.984375 
Q 53.515625 66.21875 39.703125 66.21875 
Q 29.546875 66.21875 22.703125 58.5 
Q 15.53125 50.25 15.53125 36.28125 
Q 15.53125 24.21875 21.625 16.5 
Q 28.765625 7.375 40.046875 7.375 
Q 54 7.375 60.59375 20.609375 
z
" id="IPAexGothic-67"/>
      <path d="M 29.984375 52.203125 
Q 40.53125 52.203125 47.75 45.125 
Q 55.171875 37.703125 55.171875 25.59375 
Q 55.171875 13.875 47.90625 6.59375 
Q 40.765625 -0.484375 29.984375 -0.484375 
Q 19.1875 -0.484375 12.203125 6.5 
Q 4.890625 13.765625 4.890625 25.875 
Q 4.890625 37.703125 12.3125 45.125 
Q 19.390625 52.203125 29.984375 52.203125 
z
M 29.984375 45.609375 
Q 23.734375 45.609375 19.390625 41.109375 
Q 13.875 35.59375 13.875 25.78125 
Q 13.875 16.109375 19.28125 10.6875 
Q 23.6875 6.296875 29.984375 6.296875 
Q 36.421875 6.296875 40.765625 10.796875 
Q 46.1875 16.21875 46.1875 26.125 
Q 46.1875 35.453125 40.671875 41.109375 
Q 36.1875 45.609375 29.984375 45.609375 
z
" id="IPAexGothic-111"/>
      <path d="M 52 0.984375 
L 43.40625 0.984375 
L 43.40625 31.890625 
Q 43.40625 44.578125 32.90625 44.578125 
Q 22.3125 44.578125 17.390625 31.890625 
L 17.390625 0.984375 
L 8.796875 0.984375 
L 8.796875 50.78125 
L 16.796875 50.78125 
L 16.796875 41.796875 
Q 23.828125 51.8125 34.71875 51.8125 
Q 52 51.8125 52 32.375 
z
" id="IPAexGothic-110"/>
      <path d="M 38.375 72.21875 
L 34.8125 66.3125 
Q 31.109375 69.09375 27.203125 69.09375 
Q 18.5 69.09375 18.5 57.375 
L 18.5 50.78125 
L 32.078125 50.78125 
L 32.078125 44.671875 
L 18.5 44.671875 
L 18.5 0.984375 
L 10.015625 0.984375 
L 10.015625 44.671875 
L 1.90625 44.671875 
L 1.90625 50.78125 
L 10.015625 50.78125 
L 10.015625 57.171875 
Q 10.015625 65.4375 13.921875 70.0625 
Q 18.75 75.6875 26.703125 75.6875 
Q 33.0625 75.6875 38.375 72.21875 
z
" id="IPAexGothic-102"/>
      <path d="M 18.40625 61.375 
L 8.59375 61.375 
L 8.59375 71.390625 
L 18.40625 71.390625 
z
M 17.78125 0.984375 
L 9.1875 0.984375 
L 9.1875 50.78125 
L 17.78125 50.78125 
z
" id="IPAexGothic-105"/>
      <path d="M 78.46875 0.984375 
L 69.875 0.984375 
L 69.875 32.171875 
Q 69.875 44.828125 60.109375 44.828125 
Q 55.46875 44.828125 51.609375 40.53125 
Q 48.875 37.453125 47.796875 32.859375 
L 47.796875 0.984375 
L 39.203125 0.984375 
L 39.203125 32.28125 
Q 39.203125 44.828125 29.984375 44.828125 
Q 25.09375 44.828125 21.390625 40.53125 
Q 17.390625 36.03125 17.390625 31.890625 
L 17.390625 0.984375 
L 8.796875 0.984375 
L 8.796875 50.78125 
L 16.796875 50.78125 
L 16.796875 42.1875 
Q 21.734375 51.8125 31.6875 51.8125 
Q 42.578125 51.8125 46.1875 41.359375 
Q 51.609375 51.8125 61.765625 51.8125 
Q 69.96875 51.8125 74.5625 46 
Q 78.46875 41.21875 78.46875 32.375 
z
" id="IPAexGothic-109"/>
      <path d="M 52.984375 0.984375 
L 45.171875 0.984375 
L 45.171875 9.671875 
Q 38.140625 -0.484375 27.390625 -0.484375 
Q 18.453125 -0.484375 12.3125 5.8125 
Q 4.890625 13.1875 4.890625 25.984375 
Q 4.890625 38.53125 12.0625 45.90625 
Q 18.265625 52.203125 27.390625 52.203125 
Q 37.25 52.203125 44.484375 43.890625 
L 44.484375 74.90625 
L 52.984375 74.90625 
z
M 44.484375 20.359375 
L 44.484375 32.765625 
Q 44.484375 37.703125 38.375 42.28125 
Q 34.078125 45.40625 28.953125 45.40625 
Q 23.1875 45.40625 19.1875 41.40625 
Q 13.875 36.078125 13.875 26.21875 
Q 13.875 17.328125 18.265625 11.71875 
Q 22.515625 6.390625 28.859375 6.390625 
Q 36.28125 6.390625 41.5 13.671875 
Q 44.484375 17.71875 44.484375 20.359375 
z
" id="IPAexGothic-100"/>
      <path id="IPAexGothic-32"/>
      <path d="M 30.125 -15.875 
L 25.828125 -18.21875 
Q 7.625 1.078125 7.625 29.296875 
Q 7.625 57.46875 25.828125 76.703125 
L 30.125 74.421875 
Q 15.71875 55.03125 15.71875 29.390625 
Q 15.71875 3.171875 30.125 -15.875 
z
" id="IPAexGothic-40"/>
      <path d="M 28.421875 72.40625 
L 28.421875 19.28125 
Q 28.421875 -0.484375 11.921875 -0.484375 
Q 4.734375 -0.484375 -1.953125 3.265625 
L 1.3125 10.0625 
Q 5.90625 6.984375 10.84375 6.984375 
Q 19.53125 6.984375 19.53125 18.796875 
L 19.53125 72.40625 
z
" id="IPAexGothic-74"/>
      <path d="M 7.28125 76.703125 
Q 25.59375 57.375 25.59375 29.296875 
Q 25.59375 1.171875 7.28125 -18.21875 
L 2.984375 -15.875 
Q 17.484375 3.375 17.484375 29.390625 
Q 17.484375 54.828125 2.984375 74.421875 
z
" id="IPAexGothic-41"/>
     </defs>
     <g transform="translate(76.39375 23.870312)scale(0.1 -0.1)">
      <use xlink:href="#IPAexGothic-67"/>
      <use x="72.509766" xlink:href="#IPAexGothic-111"/>
      <use x="132.910156" xlink:href="#IPAexGothic-110"/>
      <use x="193.310547" xlink:href="#IPAexGothic-102"/>
      <use x="223.925781" xlink:href="#IPAexGothic-105"/>
      <use x="250.927734" xlink:href="#IPAexGothic-114"/>
      <use x="287.939453" xlink:href="#IPAexGothic-109"/>
      <use x="375.048828" xlink:href="#IPAexGothic-101"/>
      <use x="431.933594" xlink:href="#IPAexGothic-100"/>
      <use x="494.335938" xlink:href="#IPAexGothic-32"/>
      <use x="521.337891" xlink:href="#IPAexGothic-40"/>
      <use x="554.638672" xlink:href="#IPAexGothic-74"/>
      <use x="592.626953" xlink:href="#IPAexGothic-97"/>
      <use x="647.607422" xlink:href="#IPAexGothic-112"/>
      <use x="709.716797" xlink:href="#IPAexGothic-97"/>
      <use x="764.697266" xlink:href="#IPAexGothic-110"/>
      <use x="825.097656" xlink:href="#IPAexGothic-41"/>
     </g>
    </g>
    <g id="patch_167">
     <path d="M 48.39375 38.440625 
L 68.39375 38.440625 
L 68.39375 31.440625 
L 48.39375 31.440625 
z
" style="fill:#d62728;"/>
    </g>
    <g id="text_17">
     <!-- Deaths (Japan) -->
     <defs>
      <path d="M 9.515625 72.40625 
L 31 72.40625 
Q 49.359375 72.40625 59.234375 63.28125 
Q 69.625 53.8125 69.625 36.8125 
Q 69.625 16.359375 54.9375 6.890625 
Q 45.703125 0.984375 30.328125 0.984375 
L 9.515625 0.984375 
z
M 18.3125 8.6875 
L 29.59375 8.6875 
Q 60.203125 8.6875 60.203125 36.8125 
Q 60.203125 64.796875 30.125 64.796875 
L 18.3125 64.796875 
z
" id="IPAexGothic-68"/>
      <path d="M 33.203125 3.765625 
Q 27.640625 -0.09375 21.828125 -0.09375 
Q 10.203125 -0.09375 10.203125 12.984375 
L 10.203125 44.671875 
L 3.421875 44.671875 
L 3.421875 50.78125 
L 10.203125 50.78125 
L 10.203125 61.96875 
L 18.40625 66.0625 
L 18.40625 50.78125 
L 32.234375 50.78125 
L 32.234375 44.671875 
L 18.40625 44.671875 
L 18.40625 14.15625 
Q 18.40625 6.5 23.640625 6.5 
Q 27.15625 6.5 30.328125 9.1875 
z
" id="IPAexGothic-116"/>
      <path d="M 52.296875 0.984375 
L 43.703125 0.984375 
L 43.703125 31.890625 
Q 43.703125 44.578125 33.296875 44.578125 
Q 22.609375 44.578125 17.671875 31.890625 
L 17.671875 0.984375 
L 9.078125 0.984375 
L 9.078125 74.90625 
L 17.671875 74.90625 
L 17.671875 42.28125 
Q 24.46875 51.8125 35.109375 51.8125 
Q 52.296875 51.8125 52.296875 32.375 
z
" id="IPAexGothic-104"/>
      <path d="M 34.90625 39.796875 
Q 30.28125 45.796875 23.1875 45.796875 
Q 13.921875 45.796875 13.921875 38.671875 
Q 13.921875 33.640625 23.921875 30.375 
L 27.203125 29.296875 
Q 41.40625 24.65625 41.40625 13.96875 
Q 41.40625 6.78125 35.5 2.6875 
Q 30.8125 -0.484375 23.390625 -0.484375 
Q 11.96875 -0.484375 4 7.859375 
L 9.421875 12.796875 
Q 15.578125 6.203125 23.6875 6.203125 
Q 33.296875 6.203125 33.296875 13.671875 
Q 33.296875 19.34375 22.703125 23.09375 
L 19.28125 24.265625 
Q 5.90625 28.953125 5.90625 37.984375 
Q 5.90625 43.703125 9.8125 47.609375 
Q 14.5 52.296875 22.703125 52.296875 
Q 33.6875 52.296875 40.71875 44.671875 
z
" id="IPAexGothic-115"/>
     </defs>
     <g transform="translate(76.39375 38.440625)scale(0.1 -0.1)">
      <use xlink:href="#IPAexGothic-68"/>
      <use x="75.683594" xlink:href="#IPAexGothic-101"/>
      <use x="132.568359" xlink:href="#IPAexGothic-97"/>
      <use x="187.548828" xlink:href="#IPAexGothic-116"/>
      <use x="222.167969" xlink:href="#IPAexGothic-104"/>
      <use x="282.861328" xlink:href="#IPAexGothic-115"/>
      <use x="329.052734" xlink:href="#IPAexGothic-32"/>
      <use x="356.054688" xlink:href="#IPAexGothic-40"/>
      <use x="389.355469" xlink:href="#IPAexGothic-74"/>
      <use x="427.34375" xlink:href="#IPAexGothic-97"/>
      <use x="482.324219" xlink:href="#IPAexGothic-112"/>
      <use x="544.433594" xlink:href="#IPAexGothic-97"/>
      <use x="599.414062" xlink:href="#IPAexGothic-110"/>
      <use x="659.814453" xlink:href="#IPAexGothic-41"/>
     </g>
    </g>
   </g>
  </g>
 </g>
 <defs>
  <clipPath id="p68916d6266">
   <rect height="266.112" width="357.12" x="39.39375" y="7.2"/>
  </clipPath>
 </defs>
</svg>
