<?xml version="1.0" encoding="utf-8" standalone="no"?>
<!DOCTYPE svg PUBLIC "-//W3C//DTD SVG 1.1//EN"
  "http://www.w3.org/Graphics/SVG/1.1/DTD/svg11.dtd">
<!-- Created with matplotlib (https://matplotlib.org/) -->
<svg height="309.29325pt" version="1.1" viewBox="0 0 416.310625 309.29325" width="416.310625pt" xmlns="http://www.w3.org/2000/svg" xmlns:xlink="http://www.w3.org/1999/xlink">
 <defs>
  <style type="text/css">
*{stroke-linecap:butt;stroke-linejoin:round;}
  </style>
 </defs>
 <g id="figure_1">
  <g id="patch_1">
   <path d="M 0 309.29325 
L 416.310625 309.29325 
L 416.310625 0 
L 0 0 
z
" style="fill:#ffffff;"/>
  </g>
  <g id="axes_1">
   <g id="patch_2">
    <path d="M 51.990625 273.312 
L 409.110625 273.312 
L 409.110625 7.2 
L 51.990625 7.2 
z
" style="fill:#ffffff;"/>
   </g>
   <g id="patch_3">
    <path clip-path="url(#p429a1437d1)" d="M 68.223352 273.312 
L 71.115598 273.312 
L 71.115598 272.362669 
L 68.223352 272.362669 
z
" style="fill:#1f77b4;"/>
   </g>
   <g id="patch_4">
    <path clip-path="url(#p429a1437d1)" d="M 71.838659 273.312 
L 74.730904 273.312 
L 74.730904 272.336828 
L 71.838659 272.336828 
z
" style="fill:#1f77b4;"/>
   </g>
   <g id="patch_5">
    <path clip-path="url(#p429a1437d1)" d="M 82.684579 273.312 
L 85.576825 273.312 
L 85.576825 272.036252 
L 82.684579 272.036252 
z
" style="fill:#1f77b4;"/>
   </g>
   <g id="patch_6">
    <path clip-path="url(#p429a1437d1)" d="M 89.915193 273.312 
L 92.807438 273.312 
L 92.807438 272.014491 
L 89.915193 272.014491 
z
" style="fill:#1f77b4;"/>
   </g>
   <g id="patch_7">
    <path clip-path="url(#p429a1437d1)" d="M 93.530499 273.312 
L 96.422745 273.312 
L 96.422745 272.00089 
L 93.530499 272.00089 
z
" style="fill:#1f77b4;"/>
   </g>
   <g id="patch_8">
    <path clip-path="url(#p429a1437d1)" d="M 97.145806 273.312 
L 100.038052 273.312 
L 100.038052 271.981849 
L 97.145806 271.981849 
z
" style="fill:#1f77b4;"/>
   </g>
   <g id="patch_9">
    <path clip-path="url(#p429a1437d1)" d="M 107.991726 273.312 
L 110.883972 273.312 
L 110.883972 271.610549 
L 107.991726 271.610549 
z
" style="fill:#1f77b4;"/>
   </g>
   <g id="patch_10">
    <path clip-path="url(#p429a1437d1)" d="M 111.607033 273.312 
L 114.499279 273.312 
L 114.499279 271.561587 
L 111.607033 271.561587 
z
" style="fill:#1f77b4;"/>
   </g>
   <g id="patch_11">
    <path clip-path="url(#p429a1437d1)" d="M 115.22234 273.312 
L 118.114585 273.312 
L 118.114585 271.549346 
L 115.22234 271.549346 
z
" style="fill:#1f77b4;"/>
   </g>
   <g id="patch_12">
    <path clip-path="url(#p429a1437d1)" d="M 118.837647 273.312 
L 121.729892 273.312 
L 121.729892 271.364376 
L 118.837647 271.364376 
z
" style="fill:#1f77b4;"/>
   </g>
   <g id="patch_13">
    <path clip-path="url(#p429a1437d1)" d="M 122.452953 273.312 
L 125.345199 273.312 
L 125.345199 271.24197 
L 122.452953 271.24197 
z
" style="fill:#1f77b4;"/>
   </g>
   <g id="patch_14">
    <path clip-path="url(#p429a1437d1)" d="M 126.06826 273.312 
L 128.960506 273.312 
L 128.960506 271.126363 
L 126.06826 271.126363 
z
" style="fill:#1f77b4;"/>
   </g>
   <g id="patch_15">
    <path clip-path="url(#p429a1437d1)" d="M 129.683567 273.312 
L 132.575812 273.312 
L 132.575812 270.995796 
L 129.683567 270.995796 
z
" style="fill:#1f77b4;"/>
   </g>
   <g id="patch_16">
    <path clip-path="url(#p429a1437d1)" d="M 133.298874 273.312 
L 136.191119 273.312 
L 136.191119 270.942754 
L 133.298874 270.942754 
z
" style="fill:#1f77b4;"/>
   </g>
   <g id="patch_17">
    <path clip-path="url(#p429a1437d1)" d="M 136.91418 273.312 
L 139.806426 273.312 
L 139.806426 270.801306 
L 136.91418 270.801306 
z
" style="fill:#1f77b4;"/>
   </g>
   <g id="patch_18">
    <path clip-path="url(#p429a1437d1)" d="M 140.529487 273.312 
L 143.421733 273.312 
L 143.421733 270.741463 
L 140.529487 270.741463 
z
" style="fill:#1f77b4;"/>
   </g>
   <g id="patch_19">
    <path clip-path="url(#p429a1437d1)" d="M 144.144794 273.312 
L 147.037039 273.312 
L 147.037039 270.512971 
L 144.144794 270.512971 
z
" style="fill:#1f77b4;"/>
   </g>
   <g id="patch_20">
    <path clip-path="url(#p429a1437d1)" d="M 147.760101 273.312 
L 150.652346 273.312 
L 150.652346 270.3076 
L 147.760101 270.3076 
z
" style="fill:#1f77b4;"/>
   </g>
   <g id="patch_21">
    <path clip-path="url(#p429a1437d1)" d="M 151.375407 273.312 
L 154.267653 273.312 
L 154.267653 270.13079 
L 151.375407 270.13079 
z
" style="fill:#1f77b4;"/>
   </g>
   <g id="patch_22">
    <path clip-path="url(#p429a1437d1)" d="M 154.990714 273.312 
L 157.882959 273.312 
L 157.882959 269.888697 
L 154.990714 269.888697 
z
" style="fill:#1f77b4;"/>
   </g>
   <g id="patch_23">
    <path clip-path="url(#p429a1437d1)" d="M 158.606021 273.312 
L 161.498266 273.312 
L 161.498266 269.75813 
L 158.606021 269.75813 
z
" style="fill:#1f77b4;"/>
   </g>
   <g id="patch_24">
    <path clip-path="url(#p429a1437d1)" d="M 162.221328 273.312 
L 165.113573 273.312 
L 165.113573 269.661565 
L 162.221328 269.661565 
z
" style="fill:#1f77b4;"/>
   </g>
   <g id="patch_25">
    <path clip-path="url(#p429a1437d1)" d="M 165.836634 273.312 
L 168.72888 273.312 
L 168.72888 264.445687 
L 165.836634 264.445687 
z
" style="fill:#1f77b4;"/>
   </g>
   <g id="patch_26">
    <path clip-path="url(#p429a1437d1)" d="M 169.451941 273.312 
L 172.344186 273.312 
L 172.344186 264.094788 
L 169.451941 264.094788 
z
" style="fill:#1f77b4;"/>
   </g>
   <g id="patch_27">
    <path clip-path="url(#p429a1437d1)" d="M 173.067248 273.312 
L 175.959493 273.312 
L 175.959493 263.144098 
L 173.067248 263.144098 
z
" style="fill:#1f77b4;"/>
   </g>
   <g id="patch_28">
    <path clip-path="url(#p429a1437d1)" d="M 176.682555 273.312 
L 179.5748 273.312 
L 179.5748 262.391977 
L 176.682555 262.391977 
z
" style="fill:#1f77b4;"/>
   </g>
   <g id="patch_29">
    <path clip-path="url(#p429a1437d1)" d="M 180.297861 273.312 
L 183.190107 273.312 
L 183.190107 262.192047 
L 180.297861 262.192047 
z
" style="fill:#1f77b4;"/>
   </g>
   <g id="patch_30">
    <path clip-path="url(#p429a1437d1)" d="M 183.913168 273.312 
L 186.805413 273.312 
L 186.805413 262.042439 
L 183.913168 262.042439 
z
" style="fill:#1f77b4;"/>
   </g>
   <g id="patch_31">
    <path clip-path="url(#p429a1437d1)" d="M 187.528475 273.312 
L 190.42072 273.312 
L 190.42072 260.255303 
L 187.528475 260.255303 
z
" style="fill:#1f77b4;"/>
   </g>
   <g id="patch_32">
    <path clip-path="url(#p429a1437d1)" d="M 191.143782 273.312 
L 194.036027 273.312 
L 194.036027 259.678633 
L 191.143782 259.678633 
z
" style="fill:#1f77b4;"/>
   </g>
   <g id="patch_33">
    <path clip-path="url(#p429a1437d1)" d="M 194.759088 273.312 
L 197.651334 273.312 
L 197.651334 259.43246 
L 194.759088 259.43246 
z
" style="fill:#1f77b4;"/>
   </g>
   <g id="patch_34">
    <path clip-path="url(#p429a1437d1)" d="M 198.374395 273.312 
L 201.26664 273.312 
L 201.26664 256.909525 
L 198.374395 256.909525 
z
" style="fill:#1f77b4;"/>
   </g>
   <g id="patch_35">
    <path clip-path="url(#p429a1437d1)" d="M 201.989702 273.312 
L 204.881947 273.312 
L 204.881947 255.741223 
L 201.989702 255.741223 
z
" style="fill:#1f77b4;"/>
   </g>
   <g id="patch_36">
    <path clip-path="url(#p429a1437d1)" d="M 205.605008 273.312 
L 208.497254 273.312 
L 208.497254 255.595695 
L 205.605008 255.595695 
z
" style="fill:#1f77b4;"/>
   </g>
   <g id="patch_37">
    <path clip-path="url(#p429a1437d1)" d="M 209.220315 273.312 
L 212.112561 273.312 
L 212.112561 255.538572 
L 209.220315 255.538572 
z
" style="fill:#1f77b4;"/>
   </g>
   <g id="patch_38">
    <path clip-path="url(#p429a1437d1)" d="M 212.835622 273.312 
L 215.727867 273.312 
L 215.727867 252.705541 
L 212.835622 252.705541 
z
" style="fill:#1f77b4;"/>
   </g>
   <g id="patch_39">
    <path clip-path="url(#p429a1437d1)" d="M 216.450929 273.312 
L 219.343174 273.312 
L 219.343174 252.429446 
L 216.450929 252.429446 
z
" style="fill:#1f77b4;"/>
   </g>
   <g id="patch_40">
    <path clip-path="url(#p429a1437d1)" d="M 220.066235 273.312 
L 222.958481 273.312 
L 222.958481 253.045559 
L 220.066235 253.045559 
z
" style="fill:#1f77b4;"/>
   </g>
   <g id="patch_41">
    <path clip-path="url(#p429a1437d1)" d="M 223.681542 273.312 
L 226.573788 273.312 
L 226.573788 247.682793 
L 223.681542 247.682793 
z
" style="fill:#1f77b4;"/>
   </g>
   <g id="patch_42">
    <path clip-path="url(#p429a1437d1)" d="M 227.296849 273.312 
L 230.189094 273.312 
L 230.189094 247.520944 
L 227.296849 247.520944 
z
" style="fill:#1f77b4;"/>
   </g>
   <g id="patch_43">
    <path clip-path="url(#p429a1437d1)" d="M 230.912156 273.312 
L 233.804401 273.312 
L 233.804401 245.800452 
L 230.912156 245.800452 
z
" style="fill:#1f77b4;"/>
   </g>
   <g id="patch_44">
    <path clip-path="url(#p429a1437d1)" d="M 234.527462 273.312 
L 237.419708 273.312 
L 237.419708 245.648124 
L 234.527462 245.648124 
z
" style="fill:#1f77b4;"/>
   </g>
   <g id="patch_45">
    <path clip-path="url(#p429a1437d1)" d="M 238.142769 273.312 
L 241.035015 273.312 
L 241.035015 240.085427 
L 238.142769 240.085427 
z
" style="fill:#1f77b4;"/>
   </g>
   <g id="patch_46">
    <path clip-path="url(#p429a1437d1)" d="M 241.758076 273.312 
L 244.650321 273.312 
L 244.650321 241.321733 
L 241.758076 241.321733 
z
" style="fill:#1f77b4;"/>
   </g>
   <g id="patch_47">
    <path clip-path="url(#p429a1437d1)" d="M 245.373383 273.312 
L 248.265628 273.312 
L 248.265628 239.077614 
L 245.373383 239.077614 
z
" style="fill:#1f77b4;"/>
   </g>
   <g id="patch_48">
    <path clip-path="url(#p429a1437d1)" d="M 248.988689 273.312 
L 251.880935 273.312 
L 251.880935 236.583241 
L 248.988689 236.583241 
z
" style="fill:#1f77b4;"/>
   </g>
   <g id="patch_49">
    <path clip-path="url(#p429a1437d1)" d="M 252.603996 273.312 
L 255.496242 273.312 
L 255.496242 234.598895 
L 252.603996 234.598895 
z
" style="fill:#1f77b4;"/>
   </g>
   <g id="patch_50">
    <path clip-path="url(#p429a1437d1)" d="M 256.219303 273.312 
L 259.111548 273.312 
L 259.111548 234.196313 
L 256.219303 234.196313 
z
" style="fill:#1f77b4;"/>
   </g>
   <g id="patch_51">
    <path clip-path="url(#p429a1437d1)" d="M 259.83461 273.312 
L 262.726855 273.312 
L 262.726855 233.916138 
L 259.83461 233.916138 
z
" style="fill:#1f77b4;"/>
   </g>
   <g id="patch_52">
    <path clip-path="url(#p429a1437d1)" d="M 263.449916 273.312 
L 266.342162 273.312 
L 266.342162 229.113722 
L 263.449916 229.113722 
z
" style="fill:#1f77b4;"/>
   </g>
   <g id="patch_53">
    <path clip-path="url(#p429a1437d1)" d="M 267.065223 273.312 
L 269.957468 273.312 
L 269.957468 226.378616 
L 267.065223 226.378616 
z
" style="fill:#1f77b4;"/>
   </g>
   <g id="patch_54">
    <path clip-path="url(#p429a1437d1)" d="M 270.68053 273.312 
L 273.572775 273.312 
L 273.572775 226.375896 
L 270.68053 226.375896 
z
" style="fill:#1f77b4;"/>
   </g>
   <g id="patch_55">
    <path clip-path="url(#p429a1437d1)" d="M 274.295837 273.312 
L 277.188082 273.312 
L 277.188082 219.662578 
L 274.295837 219.662578 
z
" style="fill:#1f77b4;"/>
   </g>
   <g id="patch_56">
    <path clip-path="url(#p429a1437d1)" d="M 277.911143 273.312 
L 280.803389 273.312 
L 280.803389 214.989369 
L 277.911143 214.989369 
z
" style="fill:#1f77b4;"/>
   </g>
   <g id="patch_57">
    <path clip-path="url(#p429a1437d1)" d="M 281.52645 273.312 
L 284.418695 273.312 
L 284.418695 212.599721 
L 281.52645 212.599721 
z
" style="fill:#1f77b4;"/>
   </g>
   <g id="patch_58">
    <path clip-path="url(#p429a1437d1)" d="M 285.141757 273.312 
L 288.034002 273.312 
L 288.034002 210.51473 
L 285.141757 210.51473 
z
" style="fill:#1f77b4;"/>
   </g>
   <g id="patch_59">
    <path clip-path="url(#p429a1437d1)" d="M 288.757064 273.312 
L 291.649309 273.312 
L 291.649309 198.085027 
L 288.757064 198.085027 
z
" style="fill:#1f77b4;"/>
   </g>
   <g id="patch_60">
    <path clip-path="url(#p429a1437d1)" d="M 292.37237 273.312 
L 295.264616 273.312 
L 295.264616 189.670258 
L 292.37237 189.670258 
z
" style="fill:#1f77b4;"/>
   </g>
   <g id="patch_61">
    <path clip-path="url(#p429a1437d1)" d="M 295.987677 273.312 
L 298.879922 273.312 
L 298.879922 185.741008 
L 295.987677 185.741008 
z
" style="fill:#1f77b4;"/>
   </g>
   <g id="patch_62">
    <path clip-path="url(#p429a1437d1)" d="M 299.602984 273.312 
L 302.495229 273.312 
L 302.495229 179.77845 
L 299.602984 179.77845 
z
" style="fill:#1f77b4;"/>
   </g>
   <g id="patch_63">
    <path clip-path="url(#p429a1437d1)" d="M 303.218291 273.312 
L 306.110536 273.312 
L 306.110536 171.454806 
L 303.218291 171.454806 
z
" style="fill:#1f77b4;"/>
   </g>
   <g id="patch_64">
    <path clip-path="url(#p429a1437d1)" d="M 306.833597 273.312 
L 309.725843 273.312 
L 309.725843 168.068226 
L 306.833597 168.068226 
z
" style="fill:#1f77b4;"/>
   </g>
   <g id="patch_65">
    <path clip-path="url(#p429a1437d1)" d="M 310.448904 273.312 
L 313.341149 273.312 
L 313.341149 166.27157 
L 310.448904 166.27157 
z
" style="fill:#1f77b4;"/>
   </g>
   <g id="patch_66">
    <path clip-path="url(#p429a1437d1)" d="M 314.064211 273.312 
L 316.956456 273.312 
L 316.956456 151.516143 
L 314.064211 151.516143 
z
" style="fill:#1f77b4;"/>
   </g>
   <g id="patch_67">
    <path clip-path="url(#p429a1437d1)" d="M 317.679517 273.312 
L 320.571763 273.312 
L 320.571763 145.144203 
L 317.679517 145.144203 
z
" style="fill:#1f77b4;"/>
   </g>
   <g id="patch_68">
    <path clip-path="url(#p429a1437d1)" d="M 321.294824 273.312 
L 324.18707 273.312 
L 324.18707 136.348614 
L 321.294824 136.348614 
z
" style="fill:#1f77b4;"/>
   </g>
   <g id="patch_69">
    <path clip-path="url(#p429a1437d1)" d="M 324.910131 273.312 
L 327.802376 273.312 
L 327.802376 128.638362 
L 324.910131 128.638362 
z
" style="fill:#1f77b4;"/>
   </g>
   <g id="patch_70">
    <path clip-path="url(#p429a1437d1)" d="M 328.525438 273.312 
L 331.417683 273.312 
L 331.417683 121.901923 
L 328.525438 121.901923 
z
" style="fill:#1f77b4;"/>
   </g>
   <g id="patch_71">
    <path clip-path="url(#p429a1437d1)" d="M 332.140744 273.312 
L 335.03299 273.312 
L 335.03299 119.874055 
L 332.140744 119.874055 
z
" style="fill:#1f77b4;"/>
   </g>
   <g id="patch_72">
    <path clip-path="url(#p429a1437d1)" d="M 335.756051 273.312 
L 338.648297 273.312 
L 338.648297 114.557531 
L 335.756051 114.557531 
z
" style="fill:#1f77b4;"/>
   </g>
   <g id="patch_73">
    <path clip-path="url(#p429a1437d1)" d="M 339.371358 273.312 
L 342.263603 273.312 
L 342.263603 103.914963 
L 339.371358 103.914963 
z
" style="fill:#1f77b4;"/>
   </g>
   <g id="patch_74">
    <path clip-path="url(#p429a1437d1)" d="M 342.986665 273.312 
L 345.87891 273.312 
L 345.87891 95.704205 
L 342.986665 95.704205 
z
" style="fill:#1f77b4;"/>
   </g>
   <g id="patch_75">
    <path clip-path="url(#p429a1437d1)" d="M 346.601971 273.312 
L 349.494217 273.312 
L 349.494217 88.365254 
L 346.601971 88.365254 
z
" style="fill:#1f77b4;"/>
   </g>
   <g id="patch_76">
    <path clip-path="url(#p429a1437d1)" d="M 350.217278 273.312 
L 353.109524 273.312 
L 353.109524 80.725726 
L 350.217278 80.725726 
z
" style="fill:#1f77b4;"/>
   </g>
   <g id="patch_77">
    <path clip-path="url(#p429a1437d1)" d="M 353.832585 273.312 
L 356.72483 273.312 
L 356.72483 72.763862 
L 353.832585 72.763862 
z
" style="fill:#1f77b4;"/>
   </g>
   <g id="patch_78">
    <path clip-path="url(#p429a1437d1)" d="M 357.447892 273.312 
L 360.340137 273.312 
L 360.340137 70.560544 
L 357.447892 70.560544 
z
" style="fill:#1f77b4;"/>
   </g>
   <g id="patch_79">
    <path clip-path="url(#p429a1437d1)" d="M 361.063198 273.312 
L 363.955444 273.312 
L 363.955444 68.359947 
L 361.063198 68.359947 
z
" style="fill:#1f77b4;"/>
   </g>
   <g id="patch_80">
    <path clip-path="url(#p429a1437d1)" d="M 364.678505 273.312 
L 367.570751 273.312 
L 367.570751 54.957792 
L 364.678505 54.957792 
z
" style="fill:#1f77b4;"/>
   </g>
   <g id="patch_81">
    <path clip-path="url(#p429a1437d1)" d="M 368.293812 273.312 
L 371.186057 273.312 
L 371.186057 49.913283 
L 368.293812 49.913283 
z
" style="fill:#1f77b4;"/>
   </g>
   <g id="patch_82">
    <path clip-path="url(#p429a1437d1)" d="M 371.909119 273.312 
L 374.801364 273.312 
L 374.801364 48.071744 
L 371.909119 48.071744 
z
" style="fill:#1f77b4;"/>
   </g>
   <g id="patch_83">
    <path clip-path="url(#p429a1437d1)" d="M 375.524425 273.312 
L 378.416671 273.312 
L 378.416671 36.455365 
L 375.524425 36.455365 
z
" style="fill:#1f77b4;"/>
   </g>
   <g id="patch_84">
    <path clip-path="url(#p429a1437d1)" d="M 379.139732 273.312 
L 382.031978 273.312 
L 382.031978 26.422109 
L 379.139732 26.422109 
z
" style="fill:#1f77b4;"/>
   </g>
   <g id="patch_85">
    <path clip-path="url(#p429a1437d1)" d="M 382.755039 273.312 
L 385.647284 273.312 
L 385.647284 24.077344 
L 382.755039 24.077344 
z
" style="fill:#1f77b4;"/>
   </g>
   <g id="patch_86">
    <path clip-path="url(#p429a1437d1)" d="M 386.370346 273.312 
L 389.262591 273.312 
L 389.262591 22.261647 
L 386.370346 22.261647 
z
" style="fill:#1f77b4;"/>
   </g>
   <g id="patch_87">
    <path clip-path="url(#p429a1437d1)" d="M 389.985652 273.312 
L 392.877898 273.312 
L 392.877898 19.872 
L 389.985652 19.872 
z
" style="fill:#1f77b4;"/>
   </g>
   <g id="patch_88">
    <path clip-path="url(#p429a1437d1)" d="M 68.223352 273.312 
L 71.115598 273.312 
L 71.115598 273.277998 
L 68.223352 273.277998 
z
" style="fill:#ff7f0e;"/>
   </g>
   <g id="patch_89">
    <path clip-path="url(#p429a1437d1)" d="M 71.838659 273.312 
L 74.730904 273.312 
L 74.730904 273.277998 
L 71.838659 273.277998 
z
" style="fill:#ff7f0e;"/>
   </g>
   <g id="patch_90">
    <path clip-path="url(#p429a1437d1)" d="M 82.684579 273.312 
L 85.576825 273.312 
L 85.576825 273.276638 
L 82.684579 273.276638 
z
" style="fill:#ff7f0e;"/>
   </g>
   <g id="patch_91">
    <path clip-path="url(#p429a1437d1)" d="M 89.915193 273.312 
L 92.807438 273.312 
L 92.807438 273.273918 
L 89.915193 273.273918 
z
" style="fill:#ff7f0e;"/>
   </g>
   <g id="patch_92">
    <path clip-path="url(#p429a1437d1)" d="M 93.530499 273.312 
L 96.422745 273.312 
L 96.422745 273.272558 
L 93.530499 273.272558 
z
" style="fill:#ff7f0e;"/>
   </g>
   <g id="patch_93">
    <path clip-path="url(#p429a1437d1)" d="M 97.145806 273.312 
L 100.038052 273.312 
L 100.038052 273.267118 
L 97.145806 273.267118 
z
" style="fill:#ff7f0e;"/>
   </g>
   <g id="patch_94">
    <path clip-path="url(#p429a1437d1)" d="M 107.991726 273.312 
L 110.883972 273.312 
L 110.883972 273.231756 
L 107.991726 273.231756 
z
" style="fill:#ff7f0e;"/>
   </g>
   <g id="patch_95">
    <path clip-path="url(#p429a1437d1)" d="M 111.607033 273.312 
L 114.499279 273.312 
L 114.499279 273.222235 
L 111.607033 273.222235 
z
" style="fill:#ff7f0e;"/>
   </g>
   <g id="patch_96">
    <path clip-path="url(#p429a1437d1)" d="M 115.22234 273.312 
L 118.114585 273.312 
L 118.114585 273.212715 
L 115.22234 273.212715 
z
" style="fill:#ff7f0e;"/>
   </g>
   <g id="patch_97">
    <path clip-path="url(#p429a1437d1)" d="M 118.837647 273.312 
L 121.729892 273.312 
L 121.729892 273.197754 
L 118.837647 273.197754 
z
" style="fill:#ff7f0e;"/>
   </g>
   <g id="patch_98">
    <path clip-path="url(#p429a1437d1)" d="M 122.452953 273.312 
L 125.345199 273.312 
L 125.345199 273.185513 
L 122.452953 273.185513 
z
" style="fill:#ff7f0e;"/>
   </g>
   <g id="patch_99">
    <path clip-path="url(#p429a1437d1)" d="M 126.06826 273.312 
L 128.960506 273.312 
L 128.960506 273.169192 
L 126.06826 273.169192 
z
" style="fill:#ff7f0e;"/>
   </g>
   <g id="patch_100">
    <path clip-path="url(#p429a1437d1)" d="M 129.683567 273.312 
L 132.575812 273.312 
L 132.575812 273.13247 
L 129.683567 273.13247 
z
" style="fill:#ff7f0e;"/>
   </g>
   <g id="patch_101">
    <path clip-path="url(#p429a1437d1)" d="M 133.298874 273.312 
L 136.191119 273.312 
L 136.191119 273.11615 
L 133.298874 273.11615 
z
" style="fill:#ff7f0e;"/>
   </g>
   <g id="patch_102">
    <path clip-path="url(#p429a1437d1)" d="M 136.91418 273.312 
L 139.806426 273.312 
L 139.806426 273.099829 
L 136.91418 273.099829 
z
" style="fill:#ff7f0e;"/>
   </g>
   <g id="patch_103">
    <path clip-path="url(#p429a1437d1)" d="M 140.529487 273.312 
L 143.421733 273.312 
L 143.421733 273.088948 
L 140.529487 273.088948 
z
" style="fill:#ff7f0e;"/>
   </g>
   <g id="patch_104">
    <path clip-path="url(#p429a1437d1)" d="M 144.144794 273.312 
L 147.037039 273.312 
L 147.037039 273.059027 
L 144.144794 273.059027 
z
" style="fill:#ff7f0e;"/>
   </g>
   <g id="patch_105">
    <path clip-path="url(#p429a1437d1)" d="M 147.760101 273.312 
L 150.652346 273.312 
L 150.652346 273.026385 
L 147.760101 273.026385 
z
" style="fill:#ff7f0e;"/>
   </g>
   <g id="patch_106">
    <path clip-path="url(#p429a1437d1)" d="M 151.375407 273.312 
L 154.267653 273.312 
L 154.267653 272.999183 
L 151.375407 272.999183 
z
" style="fill:#ff7f0e;"/>
   </g>
   <g id="patch_107">
    <path clip-path="url(#p429a1437d1)" d="M 154.990714 273.312 
L 157.882959 273.312 
L 157.882959 272.986943 
L 154.990714 272.986943 
z
" style="fill:#ff7f0e;"/>
   </g>
   <g id="patch_108">
    <path clip-path="url(#p429a1437d1)" d="M 158.606021 273.312 
L 161.498266 273.312 
L 161.498266 272.966542 
L 158.606021 272.966542 
z
" style="fill:#ff7f0e;"/>
   </g>
   <g id="patch_109">
    <path clip-path="url(#p429a1437d1)" d="M 162.221328 273.312 
L 165.113573 273.312 
L 165.113573 272.947501 
L 162.221328 272.947501 
z
" style="fill:#ff7f0e;"/>
   </g>
   <g id="patch_110">
    <path clip-path="url(#p429a1437d1)" d="M 165.836634 273.312 
L 168.72888 273.312 
L 168.72888 272.925739 
L 165.836634 272.925739 
z
" style="fill:#ff7f0e;"/>
   </g>
   <g id="patch_111">
    <path clip-path="url(#p429a1437d1)" d="M 169.451941 273.312 
L 172.344186 273.312 
L 172.344186 272.880857 
L 169.451941 272.880857 
z
" style="fill:#ff7f0e;"/>
   </g>
   <g id="patch_112">
    <path clip-path="url(#p429a1437d1)" d="M 173.067248 273.312 
L 175.959493 273.312 
L 175.959493 272.838695 
L 173.067248 272.838695 
z
" style="fill:#ff7f0e;"/>
   </g>
   <g id="patch_113">
    <path clip-path="url(#p429a1437d1)" d="M 176.682555 273.312 
L 179.5748 273.312 
L 179.5748 272.75845 
L 176.682555 272.75845 
z
" style="fill:#ff7f0e;"/>
   </g>
   <g id="patch_114">
    <path clip-path="url(#p429a1437d1)" d="M 180.297861 273.312 
L 183.190107 273.312 
L 183.190107 272.694527 
L 180.297861 272.694527 
z
" style="fill:#ff7f0e;"/>
   </g>
   <g id="patch_115">
    <path clip-path="url(#p429a1437d1)" d="M 183.913168 273.312 
L 186.805413 273.312 
L 186.805413 272.649645 
L 183.913168 272.649645 
z
" style="fill:#ff7f0e;"/>
   </g>
   <g id="patch_116">
    <path clip-path="url(#p429a1437d1)" d="M 187.528475 273.312 
L 190.42072 273.312 
L 190.42072 272.614283 
L 187.528475 272.614283 
z
" style="fill:#ff7f0e;"/>
   </g>
   <g id="patch_117">
    <path clip-path="url(#p429a1437d1)" d="M 191.143782 273.312 
L 194.036027 273.312 
L 194.036027 272.540839 
L 191.143782 272.540839 
z
" style="fill:#ff7f0e;"/>
   </g>
   <g id="patch_118">
    <path clip-path="url(#p429a1437d1)" d="M 194.759088 273.312 
L 197.651334 273.312 
L 197.651334 272.470115 
L 194.759088 272.470115 
z
" style="fill:#ff7f0e;"/>
   </g>
   <g id="patch_119">
    <path clip-path="url(#p429a1437d1)" d="M 198.374395 273.312 
L 201.26664 273.312 
L 201.26664 272.395311 
L 198.374395 272.395311 
z
" style="fill:#ff7f0e;"/>
   </g>
   <g id="patch_120">
    <path clip-path="url(#p429a1437d1)" d="M 201.989702 273.312 
L 204.881947 273.312 
L 204.881947 272.340908 
L 201.989702 272.340908 
z
" style="fill:#ff7f0e;"/>
   </g>
   <g id="patch_121">
    <path clip-path="url(#p429a1437d1)" d="M 205.605008 273.312 
L 208.497254 273.312 
L 208.497254 272.255224 
L 205.605008 272.255224 
z
" style="fill:#ff7f0e;"/>
   </g>
   <g id="patch_122">
    <path clip-path="url(#p429a1437d1)" d="M 209.220315 273.312 
L 212.112561 273.312 
L 212.112561 272.211701 
L 209.220315 272.211701 
z
" style="fill:#ff7f0e;"/>
   </g>
   <g id="patch_123">
    <path clip-path="url(#p429a1437d1)" d="M 212.835622 273.312 
L 215.727867 273.312 
L 215.727867 272.1913 
L 212.835622 272.1913 
z
" style="fill:#ff7f0e;"/>
   </g>
   <g id="patch_124">
    <path clip-path="url(#p429a1437d1)" d="M 216.450929 273.312 
L 219.343174 273.312 
L 219.343174 272.131457 
L 216.450929 272.131457 
z
" style="fill:#ff7f0e;"/>
   </g>
   <g id="patch_125">
    <path clip-path="url(#p429a1437d1)" d="M 220.066235 273.312 
L 222.958481 273.312 
L 222.958481 272.078414 
L 220.066235 272.078414 
z
" style="fill:#ff7f0e;"/>
   </g>
   <g id="patch_126">
    <path clip-path="url(#p429a1437d1)" d="M 223.681542 273.312 
L 226.573788 273.312 
L 226.573788 272.029452 
L 223.681542 272.029452 
z
" style="fill:#ff7f0e;"/>
   </g>
   <g id="patch_127">
    <path clip-path="url(#p429a1437d1)" d="M 227.296849 273.312 
L 230.189094 273.312 
L 230.189094 271.957368 
L 227.296849 271.957368 
z
" style="fill:#ff7f0e;"/>
   </g>
   <g id="patch_128">
    <path clip-path="url(#p429a1437d1)" d="M 230.912156 273.312 
L 233.804401 273.312 
L 233.804401 271.889364 
L 230.912156 271.889364 
z
" style="fill:#ff7f0e;"/>
   </g>
   <g id="patch_129">
    <path clip-path="url(#p429a1437d1)" d="M 234.527462 273.312 
L 237.419708 273.312 
L 237.419708 271.830881 
L 234.527462 271.830881 
z
" style="fill:#ff7f0e;"/>
   </g>
   <g id="patch_130">
    <path clip-path="url(#p429a1437d1)" d="M 238.142769 273.312 
L 241.035015 273.312 
L 241.035015 271.777838 
L 238.142769 271.777838 
z
" style="fill:#ff7f0e;"/>
   </g>
   <g id="patch_131">
    <path clip-path="url(#p429a1437d1)" d="M 241.758076 273.312 
L 244.650321 273.312 
L 244.650321 271.689433 
L 241.758076 271.689433 
z
" style="fill:#ff7f0e;"/>
   </g>
   <g id="patch_132">
    <path clip-path="url(#p429a1437d1)" d="M 245.373383 273.312 
L 248.265628 273.312 
L 248.265628 271.556146 
L 245.373383 271.556146 
z
" style="fill:#ff7f0e;"/>
   </g>
   <g id="patch_133">
    <path clip-path="url(#p429a1437d1)" d="M 248.988689 273.312 
L 251.880935 273.312 
L 251.880935 271.425579 
L 248.988689 271.425579 
z
" style="fill:#ff7f0e;"/>
   </g>
   <g id="patch_134">
    <path clip-path="url(#p429a1437d1)" d="M 252.603996 273.312 
L 255.496242 273.312 
L 255.496242 271.273251 
L 252.603996 271.273251 
z
" style="fill:#ff7f0e;"/>
   </g>
   <g id="patch_135">
    <path clip-path="url(#p429a1437d1)" d="M 256.219303 273.312 
L 259.111548 273.312 
L 259.111548 271.009397 
L 256.219303 271.009397 
z
" style="fill:#ff7f0e;"/>
   </g>
   <g id="patch_136">
    <path clip-path="url(#p429a1437d1)" d="M 259.83461 273.312 
L 262.726855 273.312 
L 262.726855 270.774105 
L 259.83461 270.774105 
z
" style="fill:#ff7f0e;"/>
   </g>
   <g id="patch_137">
    <path clip-path="url(#p429a1437d1)" d="M 263.449916 273.312 
L 266.342162 273.312 
L 266.342162 270.655778 
L 263.449916 270.655778 
z
" style="fill:#ff7f0e;"/>
   </g>
   <g id="patch_138">
    <path clip-path="url(#p429a1437d1)" d="M 267.065223 273.312 
L 269.957468 273.312 
L 269.957468 270.349762 
L 267.065223 270.349762 
z
" style="fill:#ff7f0e;"/>
   </g>
   <g id="patch_139">
    <path clip-path="url(#p429a1437d1)" d="M 270.68053 273.312 
L 273.572775 273.312 
L 273.572775 270.073667 
L 270.68053 270.073667 
z
" style="fill:#ff7f0e;"/>
   </g>
   <g id="patch_140">
    <path clip-path="url(#p429a1437d1)" d="M 274.295837 273.312 
L 277.188082 273.312 
L 277.188082 269.75269 
L 274.295837 269.75269 
z
" style="fill:#ff7f0e;"/>
   </g>
   <g id="patch_141">
    <path clip-path="url(#p429a1437d1)" d="M 277.911143 273.312 
L 280.803389 273.312 
L 280.803389 269.320187 
L 277.911143 269.320187 
z
" style="fill:#ff7f0e;"/>
   </g>
   <g id="patch_142">
    <path clip-path="url(#p429a1437d1)" d="M 281.52645 273.312 
L 284.418695 273.312 
L 284.418695 268.863203 
L 281.52645 268.863203 
z
" style="fill:#ff7f0e;"/>
   </g>
   <g id="patch_143">
    <path clip-path="url(#p429a1437d1)" d="M 285.141757 273.312 
L 288.034002 273.312 
L 288.034002 268.342295 
L 285.141757 268.342295 
z
" style="fill:#ff7f0e;"/>
   </g>
   <g id="patch_144">
    <path clip-path="url(#p429a1437d1)" d="M 288.757064 273.312 
L 291.649309 273.312 
L 291.649309 267.999557 
L 288.757064 267.999557 
z
" style="fill:#ff7f0e;"/>
   </g>
   <g id="patch_145">
    <path clip-path="url(#p429a1437d1)" d="M 292.37237 273.312 
L 295.264616 273.312 
L 295.264616 267.522171 
L 292.37237 267.522171 
z
" style="fill:#ff7f0e;"/>
   </g>
   <g id="patch_146">
    <path clip-path="url(#p429a1437d1)" d="M 295.987677 273.312 
L 298.879922 273.312 
L 298.879922 266.827174 
L 295.987677 266.827174 
z
" style="fill:#ff7f0e;"/>
   </g>
   <g id="patch_147">
    <path clip-path="url(#p429a1437d1)" d="M 299.602984 273.312 
L 302.495229 273.312 
L 302.495229 266.039692 
L 299.602984 266.039692 
z
" style="fill:#ff7f0e;"/>
   </g>
   <g id="patch_148">
    <path clip-path="url(#p429a1437d1)" d="M 303.218291 273.312 
L 306.110536 273.312 
L 306.110536 265.144764 
L 303.218291 265.144764 
z
" style="fill:#ff7f0e;"/>
   </g>
   <g id="patch_149">
    <path clip-path="url(#p429a1437d1)" d="M 306.833597 273.312 
L 309.725843 273.312 
L 309.725843 264.13423 
L 306.833597 264.13423 
z
" style="fill:#ff7f0e;"/>
   </g>
   <g id="patch_150">
    <path clip-path="url(#p429a1437d1)" d="M 310.448904 273.312 
L 313.341149 273.312 
L 313.341149 263.444674 
L 310.448904 263.444674 
z
" style="fill:#ff7f0e;"/>
   </g>
   <g id="patch_151">
    <path clip-path="url(#p429a1437d1)" d="M 314.064211 273.312 
L 316.956456 273.312 
L 316.956456 262.914245 
L 314.064211 262.914245 
z
" style="fill:#ff7f0e;"/>
   </g>
   <g id="patch_152">
    <path clip-path="url(#p429a1437d1)" d="M 317.679517 273.312 
L 320.571763 273.312 
L 320.571763 262.295412 
L 317.679517 262.295412 
z
" style="fill:#ff7f0e;"/>
   </g>
   <g id="patch_153">
    <path clip-path="url(#p429a1437d1)" d="M 321.294824 273.312 
L 324.18707 273.312 
L 324.18707 261.639857 
L 321.294824 261.639857 
z
" style="fill:#ff7f0e;"/>
   </g>
   <g id="patch_154">
    <path clip-path="url(#p429a1437d1)" d="M 324.910131 273.312 
L 327.802376 273.312 
L 327.802376 260.844215 
L 324.910131 260.844215 
z
" style="fill:#ff7f0e;"/>
   </g>
   <g id="patch_155">
    <path clip-path="url(#p429a1437d1)" d="M 328.525438 273.312 
L 331.417683 273.312 
L 331.417683 259.990089 
L 328.525438 259.990089 
z
" style="fill:#ff7f0e;"/>
   </g>
   <g id="patch_156">
    <path clip-path="url(#p429a1437d1)" d="M 332.140744 273.312 
L 335.03299 273.312 
L 335.03299 259.220288 
L 332.140744 259.220288 
z
" style="fill:#ff7f0e;"/>
   </g>
   <g id="patch_157">
    <path clip-path="url(#p429a1437d1)" d="M 335.756051 273.312 
L 338.648297 273.312 
L 338.648297 258.68986 
L 335.756051 258.68986 
z
" style="fill:#ff7f0e;"/>
   </g>
   <g id="patch_158">
    <path clip-path="url(#p429a1437d1)" d="M 339.371358 273.312 
L 342.263603 273.312 
L 342.263603 258.189353 
L 339.371358 258.189353 
z
" style="fill:#ff7f0e;"/>
   </g>
   <g id="patch_159">
    <path clip-path="url(#p429a1437d1)" d="M 342.986665 273.312 
L 345.87891 273.312 
L 345.87891 257.676606 
L 342.986665 257.676606 
z
" style="fill:#ff7f0e;"/>
   </g>
   <g id="patch_160">
    <path clip-path="url(#p429a1437d1)" d="M 346.601971 273.312 
L 349.494217 273.312 
L 349.494217 257.101295 
L 346.601971 257.101295 
z
" style="fill:#ff7f0e;"/>
   </g>
   <g id="patch_161">
    <path clip-path="url(#p429a1437d1)" d="M 350.217278 273.312 
L 353.109524 273.312 
L 353.109524 256.463421 
L 350.217278 256.463421 
z
" style="fill:#ff7f0e;"/>
   </g>
   <g id="patch_162">
    <path clip-path="url(#p429a1437d1)" d="M 353.832585 273.312 
L 356.72483 273.312 
L 356.72483 255.863629 
L 353.832585 255.863629 
z
" style="fill:#ff7f0e;"/>
   </g>
   <g id="patch_163">
    <path clip-path="url(#p429a1437d1)" d="M 357.447892 273.312 
L 360.340137 273.312 
L 360.340137 255.383524 
L 357.447892 255.383524 
z
" style="fill:#ff7f0e;"/>
   </g>
   <g id="patch_164">
    <path clip-path="url(#p429a1437d1)" d="M 361.063198 273.312 
L 363.955444 273.312 
L 363.955444 255.107429 
L 361.063198 255.107429 
z
" style="fill:#ff7f0e;"/>
   </g>
   <g id="patch_165">
    <path clip-path="url(#p429a1437d1)" d="M 364.678505 273.312 
L 367.570751 273.312 
L 367.570751 254.847655 
L 364.678505 254.847655 
z
" style="fill:#ff7f0e;"/>
   </g>
   <g id="patch_166">
    <path clip-path="url(#p429a1437d1)" d="M 368.293812 273.312 
L 371.186057 273.312 
L 371.186057 254.472275 
L 368.293812 254.472275 
z
" style="fill:#ff7f0e;"/>
   </g>
   <g id="patch_167">
    <path clip-path="url(#p429a1437d1)" d="M 371.909119 273.312 
L 374.801364 273.312 
L 374.801364 254.151298 
L 371.909119 254.151298 
z
" style="fill:#ff7f0e;"/>
   </g>
   <g id="patch_168">
    <path clip-path="url(#p429a1437d1)" d="M 375.524425 273.312 
L 378.416671 273.312 
L 378.416671 253.888804 
L 375.524425 253.888804 
z
" style="fill:#ff7f0e;"/>
   </g>
   <g id="patch_169">
    <path clip-path="url(#p429a1437d1)" d="M 379.139732 273.312 
L 382.031978 273.312 
L 382.031978 253.531105 
L 379.139732 253.531105 
z
" style="fill:#ff7f0e;"/>
   </g>
   <g id="patch_170">
    <path clip-path="url(#p429a1437d1)" d="M 382.755039 273.312 
L 385.647284 273.312 
L 385.647284 253.129883 
L 382.755039 253.129883 
z
" style="fill:#ff7f0e;"/>
   </g>
   <g id="patch_171">
    <path clip-path="url(#p429a1437d1)" d="M 386.370346 273.312 
L 389.262591 273.312 
L 389.262591 252.833388 
L 386.370346 252.833388 
z
" style="fill:#ff7f0e;"/>
   </g>
   <g id="patch_172">
    <path clip-path="url(#p429a1437d1)" d="M 389.985652 273.312 
L 392.877898 273.312 
L 392.877898 252.596735 
L 389.985652 252.596735 
z
" style="fill:#ff7f0e;"/>
   </g>
   <g id="matplotlib.axis_1">
    <g id="xtick_1">
     <g id="line2d_1">
      <defs>
       <path d="M 0 0 
L 0 3.5 
" id="me730f99793" style="stroke:#000000;stroke-width:0.8;"/>
      </defs>
      <g>
       <use style="stroke:#000000;stroke-width:0.8;" x="100.399582" xlink:href="#me730f99793" y="273.312"/>
      </g>
     </g>
     <g id="text_1">
      <!-- 15 -->
      <defs>
       <path d="M 38.484375 0.984375 
L 29.6875 0.984375 
L 29.6875 64.109375 
Q 21.4375 61.28125 12.3125 59.328125 
L 10.6875 66.109375 
Q 23.734375 69.390625 32.90625 73.921875 
L 38.484375 73.921875 
z
" id="IPAexGothic-49"/>
       <path d="M 18.40625 40.671875 
Q 25.53125 46.296875 33.9375 46.296875 
Q 44 46.296875 50.640625 39.5 
Q 56.84375 33.015625 56.84375 23.390625 
Q 56.84375 14.65625 51.515625 8.015625 
Q 44.828125 -0.484375 31.734375 -0.484375 
Q 14.984375 -0.484375 7.328125 12.25 
L 14.65625 16.0625 
Q 20.453125 6.78125 31.453125 6.78125 
Q 38.53125 6.78125 43.265625 11.1875 
Q 48.140625 15.828125 48.140625 23.484375 
Q 48.140625 30.71875 43.84375 35.015625 
Q 39.359375 39.5 32.125 39.5 
Q 21.96875 39.5 16.75 31.6875 
L 9.234375 32.671875 
L 13.8125 72.40625 
L 53.21875 72.40625 
L 53.21875 64.890625 
L 20.953125 64.890625 
L 17.71875 40.671875 
z
" id="IPAexGothic-53"/>
      </defs>
      <g transform="translate(94.101145 287.802625)scale(0.1 -0.1)">
       <use xlink:href="#IPAexGothic-49"/>
       <use x="62.988281" xlink:href="#IPAexGothic-53"/>
      </g>
     </g>
    </g>
    <g id="xtick_2">
     <g id="line2d_2">
      <g>
       <use style="stroke:#000000;stroke-width:0.8;" x="154.629183" xlink:href="#me730f99793" y="273.312"/>
      </g>
     </g>
     <g id="text_2">
      <!-- Mar -->
      <defs>
       <path d="M 80.421875 0.984375 
L 71.828125 0.984375 
L 71.828125 39.59375 
Q 71.828125 51.265625 72.40625 64.59375 
L 72.015625 64.59375 
Q 68.0625 53.265625 63.53125 41.796875 
L 47.90625 3.265625 
L 41.40625 3.265625 
L 25.640625 42.578125 
Q 20.75 54.78125 17.625 64.703125 
L 17.234375 64.703125 
Q 17.828125 48.921875 17.828125 39.890625 
L 17.828125 0.984375 
L 9.515625 0.984375 
L 9.515625 72.40625 
L 22.125 72.40625 
L 39.109375 30.375 
Q 42.140625 23 44.828125 14.15625 
L 45.125 14.15625 
Q 47.3125 22.125 50.53125 30.171875 
L 67.4375 72.40625 
L 80.421875 72.40625 
z
" id="IPAexGothic-77"/>
       <path d="M 49.3125 0.984375 
L 41.75 0.984375 
Q 39.984375 4.734375 39.546875 8.6875 
L 39.203125 8.6875 
Q 33.546875 -0.390625 22.3125 -0.390625 
Q 14.59375 -0.390625 9.71875 4.5 
Q 5.421875 8.796875 5.421875 14.984375 
Q 5.421875 30.421875 32.03125 31.203125 
L 38.71875 31.390625 
L 38.71875 33.984375 
Q 38.71875 39.203125 35.75 42.1875 
Q 32.625 45.3125 27.734375 45.3125 
Q 19.34375 45.3125 15.140625 37.15625 
L 7.71875 40.578125 
Q 14.65625 52 27.9375 52 
Q 37.109375 52 42.046875 46.875 
Q 46.625 42.28125 46.625 33.890625 
L 46.625 15.578125 
Q 46.625 6.25 49.3125 0.984375 
z
M 38.921875 25.390625 
L 33.453125 25.296875 
Q 14.109375 24.859375 14.109375 14.890625 
Q 14.109375 11.375 16.40625 9.078125 
Q 19.234375 6.296875 23.828125 6.296875 
Q 30.21875 6.296875 34.90625 10.984375 
Q 38.921875 15.140625 38.921875 21 
z
" id="IPAexGothic-97"/>
       <path d="M 36.078125 51.8125 
L 34.578125 43.265625 
Q 32.90625 43.609375 31.59375 43.609375 
Q 25.828125 43.609375 22.078125 38.1875 
Q 17.390625 31.34375 17.390625 26.171875 
L 17.390625 0.984375 
L 8.796875 0.984375 
L 8.796875 50.78125 
L 16.890625 50.78125 
L 16.5 35.984375 
L 16.703125 35.984375 
Q 22.21875 52.203125 32.765625 52.203125 
Q 34.46875 52.203125 36.078125 51.8125 
z
" id="IPAexGothic-114"/>
      </defs>
      <g transform="translate(145.519808 287.802625)scale(0.1 -0.1)">
       <use xlink:href="#IPAexGothic-77"/>
       <use x="90.185547" xlink:href="#IPAexGothic-97"/>
       <use x="145.166016" xlink:href="#IPAexGothic-114"/>
      </g>
     </g>
    </g>
    <g id="xtick_3">
     <g id="line2d_3">
      <g>
       <use style="stroke:#000000;stroke-width:0.8;" x="205.243478" xlink:href="#me730f99793" y="273.312"/>
      </g>
     </g>
     <g id="text_3">
      <!-- 15 -->
      <g transform="translate(198.94504 287.802625)scale(0.1 -0.1)">
       <use xlink:href="#IPAexGothic-49"/>
       <use x="62.988281" xlink:href="#IPAexGothic-53"/>
      </g>
     </g>
    </g>
    <g id="xtick_4">
     <g id="line2d_4">
      <g>
       <use style="stroke:#000000;stroke-width:0.8;" x="266.703692" xlink:href="#me730f99793" y="273.312"/>
      </g>
     </g>
     <g id="text_4">
      <!-- Apr -->
      <defs>
       <path d="M 63.375 0.984375 
L 53.8125 0.984375 
L 45.90625 22.015625 
L 17.1875 22.015625 
L 9.421875 0.984375 
L -0.09375 0.984375 
L 28.21875 72.90625 
L 35.296875 72.90625 
z
M 43.40625 29.109375 
L 36.1875 48.09375 
Q 33.203125 56.0625 31.6875 62.5 
L 31.390625 62.5 
Q 29.640625 55.671875 26.8125 48.09375 
L 19.734375 29.109375 
z
" id="IPAexGothic-65"/>
       <path d="M 16.796875 42 
Q 23.828125 52.203125 34.46875 52.203125 
Q 43.265625 52.203125 49.5625 45.90625 
Q 56.890625 38.578125 56.890625 25.6875 
Q 56.890625 13.140625 49.65625 5.8125 
Q 43.359375 -0.484375 34.375 -0.484375 
Q 24.515625 -0.484375 17.28125 7.765625 
L 17.28125 -19 
L 8.796875 -19 
L 8.796875 50.78125 
L 16.796875 50.78125 
z
M 17.28125 30.46875 
L 17.28125 20.171875 
Q 17.28125 14.015625 23.6875 9.375 
Q 27.984375 6.296875 32.90625 6.296875 
Q 38.578125 6.296875 42.578125 10.296875 
Q 47.90625 15.578125 47.90625 25.484375 
Q 47.90625 34.375 43.5 39.984375 
Q 39.109375 45.3125 32.8125 45.3125 
Q 25.875 45.3125 20.90625 38.8125 
Q 17.28125 34.125 17.28125 30.46875 
z
" id="IPAexGothic-112"/>
      </defs>
      <g transform="translate(258.561505 287.802625)scale(0.1 -0.1)">
       <use xlink:href="#IPAexGothic-65"/>
       <use x="63.720703" xlink:href="#IPAexGothic-112"/>
       <use x="125.830078" xlink:href="#IPAexGothic-114"/>
      </g>
     </g>
    </g>
    <g id="xtick_5">
     <g id="line2d_5">
      <g>
       <use style="stroke:#000000;stroke-width:0.8;" x="317.317987" xlink:href="#me730f99793" y="273.312"/>
      </g>
     </g>
     <g id="text_5">
      <!-- 15 -->
      <g transform="translate(311.019549 287.802625)scale(0.1 -0.1)">
       <use xlink:href="#IPAexGothic-49"/>
       <use x="62.988281" xlink:href="#IPAexGothic-53"/>
      </g>
     </g>
    </g>
    <g id="xtick_6">
     <g id="line2d_6">
      <g>
       <use style="stroke:#000000;stroke-width:0.8;" x="375.162895" xlink:href="#me730f99793" y="273.312"/>
      </g>
     </g>
     <g id="text_6">
      <!-- May -->
      <defs>
       <path d="M 48.78125 50.78125 
L 24.609375 -7.625 
Q 19.96875 -18.796875 8.59375 -18.796875 
L 7.46875 -18.796875 
L 5.375 -10.984375 
L 6.984375 -10.984375 
Q 15.140625 -10.984375 17.96875 -3.71875 
L 21.1875 4.296875 
L 0.59375 50.78125 
L 10.296875 50.78125 
L 21.296875 22.796875 
Q 23.875 16.015625 25.09375 12.203125 
L 25.390625 12.203125 
Q 27.34375 18.265625 29.109375 22.796875 
L 39.5 50.78125 
z
" id="IPAexGothic-121"/>
      </defs>
      <g transform="translate(365.443363 287.802625)scale(0.1 -0.1)">
       <use xlink:href="#IPAexGothic-77"/>
       <use x="90.185547" xlink:href="#IPAexGothic-97"/>
       <use x="145.166016" xlink:href="#IPAexGothic-121"/>
      </g>
     </g>
    </g>
    <g id="text_7">
     <!-- 2020-May -->
     <defs>
      <path d="M 57.171875 0.984375 
L 6.984375 0.984375 
L 6.984375 9.28125 
Q 12.890625 23.046875 29.59375 34.421875 
L 32.375 36.28125 
Q 40.921875 42.140625 43.609375 45.40625 
Q 46.6875 49.265625 46.6875 53.8125 
Q 46.6875 58.9375 43.0625 62.546875 
Q 39.0625 66.546875 32.5625 66.546875 
Q 19.53125 66.546875 15.484375 52 
L 7.765625 54.78125 
Q 13.328125 73.828125 33.0625 73.828125 
Q 43.84375 73.828125 50.25 67.4375 
Q 55.859375 61.671875 55.859375 53.515625 
Q 55.859375 47.46875 52.25 42.53125 
Q 48.921875 37.75 36.96875 30.28125 
L 34.859375 29 
Q 19.625 19.578125 15.28125 8.890625 
L 57.171875 8.890625 
z
" id="IPAexGothic-50"/>
      <path d="M 31.84375 73.828125 
Q 45.015625 73.828125 52.09375 61.625 
Q 57.71875 51.953125 57.71875 36.625 
Q 57.71875 21.4375 52.09375 11.578125 
Q 45.125 -0.484375 31.5 -0.484375 
Q 17.921875 -0.484375 10.9375 11.578125 
Q 5.328125 21.4375 5.328125 36.71875 
Q 5.328125 58.015625 15.625 67.71875 
Q 22.171875 73.828125 31.84375 73.828125 
z
M 31.5 66.65625 
Q 23.6875 66.65625 19.1875 58.734375 
Q 14.59375 50.734375 14.59375 36.625 
Q 14.59375 22.75 19.09375 14.796875 
Q 23.640625 6.984375 31.5 6.984375 
Q 40.921875 6.984375 45.453125 18.015625 
Q 48.4375 25.34375 48.4375 37.109375 
Q 48.4375 50.875 43.84375 58.734375 
Q 39.203125 66.65625 31.5 66.65625 
z
" id="IPAexGothic-48"/>
      <path d="M 30.765625 26.609375 
L 4.984375 26.609375 
L 4.984375 34.421875 
L 30.765625 34.421875 
z
" id="IPAexGothic-45"/>
     </defs>
     <g transform="translate(360.898125 300.19325)scale(0.1 -0.1)">
      <use xlink:href="#IPAexGothic-50"/>
      <use x="62.988281" xlink:href="#IPAexGothic-48"/>
      <use x="125.976562" xlink:href="#IPAexGothic-50"/>
      <use x="188.964844" xlink:href="#IPAexGothic-48"/>
      <use x="251.953125" xlink:href="#IPAexGothic-45"/>
      <use x="287.744141" xlink:href="#IPAexGothic-77"/>
      <use x="377.929688" xlink:href="#IPAexGothic-97"/>
      <use x="432.910156" xlink:href="#IPAexGothic-121"/>
     </g>
    </g>
   </g>
   <g id="matplotlib.axis_2">
    <g id="ytick_1">
     <g id="line2d_7">
      <defs>
       <path d="M 0 0 
L -3.5 0 
" id="me3b5a39245" style="stroke:#000000;stroke-width:0.8;"/>
      </defs>
      <g>
       <use style="stroke:#000000;stroke-width:0.8;" x="51.990625" xlink:href="#me3b5a39245" y="273.312"/>
      </g>
     </g>
     <g id="text_8">
      <!-- 0 -->
      <g transform="translate(38.692188 277.057312)scale(0.1 -0.1)">
       <use xlink:href="#IPAexGothic-48"/>
      </g>
     </g>
    </g>
    <g id="ytick_2">
     <g id="line2d_8">
      <g>
       <use style="stroke:#000000;stroke-width:0.8;" x="51.990625" xlink:href="#me3b5a39245" y="239.310186"/>
      </g>
     </g>
     <g id="text_9">
      <!-- 25000 -->
      <g transform="translate(13.498438 243.055499)scale(0.1 -0.1)">
       <use xlink:href="#IPAexGothic-50"/>
       <use x="62.988281" xlink:href="#IPAexGothic-53"/>
       <use x="125.976562" xlink:href="#IPAexGothic-48"/>
       <use x="188.964844" xlink:href="#IPAexGothic-48"/>
       <use x="251.953125" xlink:href="#IPAexGothic-48"/>
      </g>
     </g>
    </g>
    <g id="ytick_3">
     <g id="line2d_9">
      <g>
       <use style="stroke:#000000;stroke-width:0.8;" x="51.990625" xlink:href="#me3b5a39245" y="205.308372"/>
      </g>
     </g>
     <g id="text_10">
      <!-- 50000 -->
      <g transform="translate(13.498438 209.053685)scale(0.1 -0.1)">
       <use xlink:href="#IPAexGothic-53"/>
       <use x="62.988281" xlink:href="#IPAexGothic-48"/>
       <use x="125.976562" xlink:href="#IPAexGothic-48"/>
       <use x="188.964844" xlink:href="#IPAexGothic-48"/>
       <use x="251.953125" xlink:href="#IPAexGothic-48"/>
      </g>
     </g>
    </g>
    <g id="ytick_4">
     <g id="line2d_10">
      <g>
       <use style="stroke:#000000;stroke-width:0.8;" x="51.990625" xlink:href="#me3b5a39245" y="171.306558"/>
      </g>
     </g>
     <g id="text_11">
      <!-- 75000 -->
      <defs>
       <path d="M 56.203125 66.609375 
Q 34.96875 32.90625 27.78125 0.984375 
L 17.671875 0.984375 
Q 24.703125 28.65625 46.09375 64.5 
L 6.6875 64.5 
L 6.6875 72.40625 
L 56.203125 72.40625 
z
" id="IPAexGothic-55"/>
      </defs>
      <g transform="translate(13.498438 175.051871)scale(0.1 -0.1)">
       <use xlink:href="#IPAexGothic-55"/>
       <use x="62.988281" xlink:href="#IPAexGothic-53"/>
       <use x="125.976562" xlink:href="#IPAexGothic-48"/>
       <use x="188.964844" xlink:href="#IPAexGothic-48"/>
       <use x="251.953125" xlink:href="#IPAexGothic-48"/>
      </g>
     </g>
    </g>
    <g id="ytick_5">
     <g id="line2d_11">
      <g>
       <use style="stroke:#000000;stroke-width:0.8;" x="51.990625" xlink:href="#me3b5a39245" y="137.304745"/>
      </g>
     </g>
     <g id="text_12">
      <!-- 100000 -->
      <g transform="translate(7.2 141.050057)scale(0.1 -0.1)">
       <use xlink:href="#IPAexGothic-49"/>
       <use x="62.988281" xlink:href="#IPAexGothic-48"/>
       <use x="125.976562" xlink:href="#IPAexGothic-48"/>
       <use x="188.964844" xlink:href="#IPAexGothic-48"/>
       <use x="251.953125" xlink:href="#IPAexGothic-48"/>
       <use x="314.941406" xlink:href="#IPAexGothic-48"/>
      </g>
     </g>
    </g>
    <g id="ytick_6">
     <g id="line2d_12">
      <g>
       <use style="stroke:#000000;stroke-width:0.8;" x="51.990625" xlink:href="#me3b5a39245" y="103.302931"/>
      </g>
     </g>
     <g id="text_13">
      <!-- 125000 -->
      <g transform="translate(7.2 107.048243)scale(0.1 -0.1)">
       <use xlink:href="#IPAexGothic-49"/>
       <use x="62.988281" xlink:href="#IPAexGothic-50"/>
       <use x="125.976562" xlink:href="#IPAexGothic-53"/>
       <use x="188.964844" xlink:href="#IPAexGothic-48"/>
       <use x="251.953125" xlink:href="#IPAexGothic-48"/>
       <use x="314.941406" xlink:href="#IPAexGothic-48"/>
      </g>
     </g>
    </g>
    <g id="ytick_7">
     <g id="line2d_13">
      <g>
       <use style="stroke:#000000;stroke-width:0.8;" x="51.990625" xlink:href="#me3b5a39245" y="69.301117"/>
      </g>
     </g>
     <g id="text_14">
      <!-- 150000 -->
      <g transform="translate(7.2 73.046429)scale(0.1 -0.1)">
       <use xlink:href="#IPAexGothic-49"/>
       <use x="62.988281" xlink:href="#IPAexGothic-53"/>
       <use x="125.976562" xlink:href="#IPAexGothic-48"/>
       <use x="188.964844" xlink:href="#IPAexGothic-48"/>
       <use x="251.953125" xlink:href="#IPAexGothic-48"/>
       <use x="314.941406" xlink:href="#IPAexGothic-48"/>
      </g>
     </g>
    </g>
    <g id="ytick_8">
     <g id="line2d_14">
      <g>
       <use style="stroke:#000000;stroke-width:0.8;" x="51.990625" xlink:href="#me3b5a39245" y="35.299303"/>
      </g>
     </g>
     <g id="text_15">
      <!-- 175000 -->
      <g transform="translate(7.2 39.044615)scale(0.1 -0.1)">
       <use xlink:href="#IPAexGothic-49"/>
       <use x="62.988281" xlink:href="#IPAexGothic-55"/>
       <use x="125.976562" xlink:href="#IPAexGothic-53"/>
       <use x="188.964844" xlink:href="#IPAexGothic-48"/>
       <use x="251.953125" xlink:href="#IPAexGothic-48"/>
       <use x="314.941406" xlink:href="#IPAexGothic-48"/>
      </g>
     </g>
    </g>
   </g>
   <g id="patch_173">
    <path d="M 51.990625 273.312 
L 51.990625 7.2 
" style="fill:none;stroke:#000000;stroke-linecap:square;stroke-linejoin:miter;stroke-width:0.8;"/>
   </g>
   <g id="patch_174">
    <path d="M 409.110625 273.312 
L 409.110625 7.2 
" style="fill:none;stroke:#000000;stroke-linecap:square;stroke-linejoin:miter;stroke-width:0.8;"/>
   </g>
   <g id="patch_175">
    <path d="M 51.990625 273.312 
L 409.110625 273.312 
" style="fill:none;stroke:#000000;stroke-linecap:square;stroke-linejoin:miter;stroke-width:0.8;"/>
   </g>
   <g id="patch_176">
    <path d="M 51.990625 7.2 
L 409.110625 7.2 
" style="fill:none;stroke:#000000;stroke-linecap:square;stroke-linejoin:miter;stroke-width:0.8;"/>
   </g>
   <g id="legend_1">
    <g id="patch_177">
     <path d="M 58.990625 44.039062 
L 132.0375 44.039062 
Q 134.0375 44.039062 134.0375 42.039062 
L 134.0375 14.2 
Q 134.0375 12.2 132.0375 12.2 
L 58.990625 12.2 
Q 56.990625 12.2 56.990625 14.2 
L 56.990625 42.039062 
Q 56.990625 44.039062 58.990625 44.039062 
z
" style="fill:#ffffff;opacity:0.8;stroke:#cccccc;stroke-linejoin:miter;"/>
    </g>
    <g id="patch_178">
     <path d="M 60.990625 23.690625 
L 80.990625 23.690625 
L 80.990625 16.690625 
L 60.990625 16.690625 
z
" style="fill:#1f77b4;"/>
    </g>
    <g id="text_16">
     <!-- Negative -->
     <defs>
      <path d="M 66.3125 0.984375 
L 58.296875 0.984375 
L 26.515625 49.21875 
Q 22.90625 54.6875 17.828125 64.015625 
L 17.4375 64.015625 
L 17.625 59.328125 
Q 18.109375 43.796875 18.109375 38.578125 
L 18.109375 0.984375 
L 9.515625 0.984375 
L 9.515625 72.40625 
L 21.34375 72.40625 
L 48.640625 30.90625 
Q 53.953125 22.609375 58.015625 15.09375 
L 58.40625 15.09375 
Q 57.71875 29.640625 57.71875 38.578125 
L 57.71875 72.40625 
L 66.3125 72.40625 
z
" id="IPAexGothic-78"/>
      <path d="M 13.484375 24.90625 
Q 13.921875 16.265625 18.890625 11.28125 
Q 23.96875 6.203125 31.203125 6.203125 
Q 40.71875 6.203125 46.296875 15.09375 
L 51.90625 11.375 
Q 44.828125 -0.484375 30.171875 -0.484375 
Q 19.09375 -0.484375 11.96875 6.59375 
Q 4.78125 13.8125 4.78125 25.640625 
Q 4.78125 38.1875 12.3125 45.703125 
Q 19 52.390625 29 52.390625 
Q 38.421875 52.390625 44.78125 46.1875 
Q 51.90625 38.96875 51.90625 26.90625 
L 51.90625 24.90625 
z
M 43.0625 31.203125 
Q 42.328125 37.984375 38.28125 41.890625 
Q 34.28125 45.90625 28.8125 45.90625 
Q 22.46875 45.90625 17.96875 40.484375 
Q 14.890625 36.8125 13.96875 31.203125 
z
" id="IPAexGothic-101"/>
      <path d="M 20.796875 17.96875 
Q 15.71875 17.53125 15.71875 14.0625 
Q 15.71875 9.578125 27.546875 8.984375 
L 33.296875 8.6875 
Q 51.609375 7.765625 51.609375 -4.59375 
Q 51.609375 -10.9375 45.703125 -14.984375 
Q 39.359375 -19.578125 28.03125 -19.578125 
Q 17.78125 -19.578125 11.53125 -16.0625 
Q 5.515625 -12.640625 5.515625 -6.6875 
Q 5.515625 1.3125 16.796875 3.859375 
L 16.796875 4.203125 
Q 7.90625 6.453125 7.90625 12.15625 
Q 7.90625 17.4375 15.53125 20.265625 
Q 7.125 24.609375 7.125 34.078125 
Q 7.125 41.40625 12.015625 46.296875 
Q 17.625 51.90625 27.15625 51.90625 
Q 33.203125 51.90625 37.84375 49.265625 
Q 41.40625 53.953125 50.921875 54.109375 
L 50.921875 47.078125 
Q 44.34375 46.921875 42.234375 45.90625 
Q 47.40625 40.828125 47.40625 33.890625 
Q 47.40625 27 42.71875 22.265625 
Q 37.5 17.09375 28.328125 17.09375 
Q 24.421875 17.09375 20.796875 17.96875 
z
M 27.09375 45.609375 
Q 22.015625 45.609375 18.703125 42.28125 
Q 15.4375 39.015625 15.4375 34.078125 
Q 15.4375 29.25 18.5 26.3125 
Q 21.828125 23 27.4375 23 
Q 32.71875 23 35.890625 26.21875 
Q 39.109375 29.390625 39.109375 34.421875 
Q 39.109375 39.015625 35.890625 42.1875 
Q 32.515625 45.609375 27.09375 45.609375 
z
M 27.390625 2.484375 
Q 14.109375 2.484375 14.109375 -5.71875 
Q 14.109375 -13.671875 28.125 -13.671875 
Q 37.15625 -13.671875 41.21875 -9.46875 
Q 43.3125 -7.515625 43.3125 -4.890625 
Q 43.3125 2.484375 27.390625 2.484375 
z
" id="IPAexGothic-103"/>
      <path d="M 33.203125 3.765625 
Q 27.640625 -0.09375 21.828125 -0.09375 
Q 10.203125 -0.09375 10.203125 12.984375 
L 10.203125 44.671875 
L 3.421875 44.671875 
L 3.421875 50.78125 
L 10.203125 50.78125 
L 10.203125 61.96875 
L 18.40625 66.0625 
L 18.40625 50.78125 
L 32.234375 50.78125 
L 32.234375 44.671875 
L 18.40625 44.671875 
L 18.40625 14.15625 
Q 18.40625 6.5 23.640625 6.5 
Q 27.15625 6.5 30.328125 9.1875 
z
" id="IPAexGothic-116"/>
      <path d="M 18.40625 61.375 
L 8.59375 61.375 
L 8.59375 71.390625 
L 18.40625 71.390625 
z
M 17.78125 0.984375 
L 9.1875 0.984375 
L 9.1875 50.78125 
L 17.78125 50.78125 
z
" id="IPAexGothic-105"/>
      <path d="M 48.484375 50.78125 
L 27.296875 0.09375 
L 21.484375 0.09375 
L 0.390625 50.78125 
L 9.8125 50.78125 
L 20.90625 21.6875 
L 23.78125 13.1875 
L 24.515625 10.984375 
L 24.8125 10.984375 
Q 25.640625 13.8125 28.46875 21.6875 
L 39.3125 50.78125 
z
" id="IPAexGothic-118"/>
     </defs>
     <g transform="translate(88.990625 23.690625)scale(0.1 -0.1)">
      <use xlink:href="#IPAexGothic-78"/>
      <use x="75.976562" xlink:href="#IPAexGothic-101"/>
      <use x="132.861328" xlink:href="#IPAexGothic-103"/>
      <use x="188.378906" xlink:href="#IPAexGothic-97"/>
      <use x="243.359375" xlink:href="#IPAexGothic-116"/>
      <use x="277.978516" xlink:href="#IPAexGothic-105"/>
      <use x="304.980469" xlink:href="#IPAexGothic-118"/>
      <use x="353.564453" xlink:href="#IPAexGothic-101"/>
     </g>
    </g>
    <g id="patch_179">
     <path d="M 60.990625 38.139062 
L 80.990625 38.139062 
L 80.990625 31.139062 
L 60.990625 31.139062 
z
" style="fill:#ff7f0e;"/>
    </g>
    <g id="text_17">
     <!-- Positive -->
     <defs>
      <path d="M 9.515625 72.40625 
L 30.328125 72.40625 
Q 57.625 72.40625 57.625 51.90625 
Q 57.625 30.21875 29.78125 30.21875 
L 18.3125 30.21875 
L 18.3125 0.984375 
L 9.515625 0.984375 
z
M 18.3125 37.203125 
L 28.125 37.203125 
Q 48.4375 37.203125 48.4375 51.8125 
Q 48.4375 65.328125 29.59375 65.328125 
L 18.3125 65.328125 
z
" id="IPAexGothic-80"/>
      <path d="M 29.984375 52.203125 
Q 40.53125 52.203125 47.75 45.125 
Q 55.171875 37.703125 55.171875 25.59375 
Q 55.171875 13.875 47.90625 6.59375 
Q 40.765625 -0.484375 29.984375 -0.484375 
Q 19.1875 -0.484375 12.203125 6.5 
Q 4.890625 13.765625 4.890625 25.875 
Q 4.890625 37.703125 12.3125 45.125 
Q 19.390625 52.203125 29.984375 52.203125 
z
M 29.984375 45.609375 
Q 23.734375 45.609375 19.390625 41.109375 
Q 13.875 35.59375 13.875 25.78125 
Q 13.875 16.109375 19.28125 10.6875 
Q 23.6875 6.296875 29.984375 6.296875 
Q 36.421875 6.296875 40.765625 10.796875 
Q 46.1875 16.21875 46.1875 26.125 
Q 46.1875 35.453125 40.671875 41.109375 
Q 36.1875 45.609375 29.984375 45.609375 
z
" id="IPAexGothic-111"/>
      <path d="M 34.90625 39.796875 
Q 30.28125 45.796875 23.1875 45.796875 
Q 13.921875 45.796875 13.921875 38.671875 
Q 13.921875 33.640625 23.921875 30.375 
L 27.203125 29.296875 
Q 41.40625 24.65625 41.40625 13.96875 
Q 41.40625 6.78125 35.5 2.6875 
Q 30.8125 -0.484375 23.390625 -0.484375 
Q 11.96875 -0.484375 4 7.859375 
L 9.421875 12.796875 
Q 15.578125 6.203125 23.6875 6.203125 
Q 33.296875 6.203125 33.296875 13.671875 
Q 33.296875 19.34375 22.703125 23.09375 
L 19.28125 24.265625 
Q 5.90625 28.953125 5.90625 37.984375 
Q 5.90625 43.703125 9.8125 47.609375 
Q 14.5 52.296875 22.703125 52.296875 
Q 33.6875 52.296875 40.71875 44.671875 
z
" id="IPAexGothic-115"/>
     </defs>
     <g transform="translate(88.990625 38.139062)scale(0.1 -0.1)">
      <use xlink:href="#IPAexGothic-80"/>
      <use x="62.109375" xlink:href="#IPAexGothic-111"/>
      <use x="122.509766" xlink:href="#IPAexGothic-115"/>
      <use x="168.701172" xlink:href="#IPAexGothic-105"/>
      <use x="195.703125" xlink:href="#IPAexGothic-116"/>
      <use x="230.322266" xlink:href="#IPAexGothic-105"/>
      <use x="257.324219" xlink:href="#IPAexGothic-118"/>
      <use x="305.908203" xlink:href="#IPAexGothic-101"/>
     </g>
    </g>
   </g>
  </g>
 </g>
 <defs>
  <clipPath id="p429a1437d1">
   <rect height="266.112" width="357.12" x="51.990625" y="7.2"/>
  </clipPath>
 </defs>
</svg>
