<?xml version="1.0" encoding="utf-8" standalone="no"?>
<!DOCTYPE svg PUBLIC "-//W3C//DTD SVG 1.1//EN"
  "http://www.w3.org/Graphics/SVG/1.1/DTD/svg11.dtd">
<!-- Created with matplotlib (https://matplotlib.org/) -->
<svg height="309.29325pt" version="1.1" viewBox="0 0 403.71375 309.29325" width="403.71375pt" xmlns="http://www.w3.org/2000/svg" xmlns:xlink="http://www.w3.org/1999/xlink">
 <defs>
  <style type="text/css">
*{stroke-linecap:butt;stroke-linejoin:round;}
  </style>
 </defs>
 <g id="figure_1">
  <g id="patch_1">
   <path d="M 0 309.29325 
L 403.71375 309.29325 
L 403.71375 0 
L 0 0 
z
" style="fill:#ffffff;"/>
  </g>
  <g id="axes_1">
   <g id="patch_2">
    <path d="M 39.39375 273.312 
L 396.51375 273.312 
L 396.51375 7.2 
L 39.39375 7.2 
z
" style="fill:#ffffff;"/>
   </g>
   <g id="patch_3">
    <path clip-path="url(#pb2d978dd87)" d="z
" style="fill:#ffbb78;stroke:#ffffff;stroke-linejoin:miter;"/>
   </g>
   <g id="patch_4">
    <path clip-path="url(#pb2d978dd87)" d="M 61.992253 273.312 
L 55.626477 273.312 
L 55.626477 271.55809 
L 61.992253 271.55809 
z
" style="fill:#ffbb78;stroke:#ffffff;stroke-linejoin:miter;"/>
   </g>
   <g id="patch_5">
    <path clip-path="url(#pb2d978dd87)" d="M 74.723803 273.312 
L 61.992253 273.312 
L 61.992253 265.994907 
L 74.723803 265.994907 
z
" style="fill:#ffbb78;stroke:#ffffff;stroke-linejoin:miter;"/>
   </g>
   <g id="patch_6">
    <path clip-path="url(#pb2d978dd87)" d="M 81.089579 273.312 
L 74.723803 273.312 
L 74.723803 258.787433 
L 81.089579 258.787433 
z
" style="fill:#ffbb78;stroke:#ffffff;stroke-linejoin:miter;"/>
   </g>
   <g id="patch_7">
    <path clip-path="url(#pb2d978dd87)" d="M 87.455354 273.312 
L 81.089579 273.312 
L 81.089579 247.332208 
L 87.455354 247.332208 
z
" style="fill:#ffbb78;stroke:#ffffff;stroke-linejoin:miter;"/>
   </g>
   <g id="patch_8">
    <path clip-path="url(#pb2d978dd87)" d="M 93.82113 273.312 
L 87.455354 273.312 
L 87.455354 235.274076 
L 93.82113 235.274076 
z
" style="fill:#ffbb78;stroke:#ffffff;stroke-linejoin:miter;"/>
   </g>
   <g id="patch_9">
    <path clip-path="url(#pb2d978dd87)" d="M 100.186905 273.312 
L 93.82113 273.312 
L 93.82113 230.341204 
L 100.186905 230.341204 
z
" style="fill:#ffbb78;stroke:#ffffff;stroke-linejoin:miter;"/>
   </g>
   <g id="patch_10">
    <path clip-path="url(#pb2d978dd87)" d="M 106.55268 273.312 
L 100.186905 273.312 
L 100.186905 174.928609 
L 106.55268 174.928609 
z
" style="fill:#ffbb78;stroke:#ffffff;stroke-linejoin:miter;"/>
   </g>
   <g id="patch_11">
    <path clip-path="url(#pb2d978dd87)" d="M 112.918456 273.312 
L 106.55268 273.312 
L 106.55268 192.632138 
L 112.918456 192.632138 
z
" style="fill:#ffbb78;stroke:#ffffff;stroke-linejoin:miter;"/>
   </g>
   <g id="patch_12">
    <path clip-path="url(#pb2d978dd87)" d="M 119.284231 273.312 
L 112.918456 273.312 
L 112.918456 177.230616 
L 119.284231 177.230616 
z
" style="fill:#ffbb78;stroke:#ffffff;stroke-linejoin:miter;"/>
   </g>
   <g id="patch_13">
    <path clip-path="url(#pb2d978dd87)" d="M 125.650007 273.312 
L 119.284231 273.312 
L 119.284231 163.254145 
L 125.650007 163.254145 
z
" style="fill:#ffbb78;stroke:#ffffff;stroke-linejoin:miter;"/>
   </g>
   <g id="patch_14">
    <path clip-path="url(#pb2d978dd87)" d="M 132.015782 273.312 
L 125.650007 273.312 
L 125.650007 156.731792 
L 132.015782 156.731792 
z
" style="fill:#ffbb78;stroke:#ffffff;stroke-linejoin:miter;"/>
   </g>
   <g id="patch_15">
    <path clip-path="url(#pb2d978dd87)" d="M 138.381557 273.312 
L 132.015782 273.312 
L 132.015782 130.587571 
L 138.381557 130.587571 
z
" style="fill:#ffbb78;stroke:#ffffff;stroke-linejoin:miter;"/>
   </g>
   <g id="patch_16">
    <path clip-path="url(#pb2d978dd87)" d="M 144.747333 273.312 
L 138.381557 273.312 
L 138.381557 117.981343 
L 144.747333 117.981343 
z
" style="fill:#ffbb78;stroke:#ffffff;stroke-linejoin:miter;"/>
   </g>
   <g id="patch_17">
    <path clip-path="url(#pb2d978dd87)" d="M 151.113108 273.312 
L 144.747333 273.312 
L 144.747333 95.783419 
L 151.113108 95.783419 
z
" style="fill:#ffbb78;stroke:#ffffff;stroke-linejoin:miter;"/>
   </g>
   <g id="patch_18">
    <path clip-path="url(#pb2d978dd87)" d="M 157.478884 273.312 
L 151.113108 273.312 
L 151.113108 58.238782 
L 157.478884 58.238782 
z
" style="fill:#ffbb78;stroke:#ffffff;stroke-linejoin:miter;"/>
   </g>
   <g id="patch_19">
    <path clip-path="url(#pb2d978dd87)" d="M 163.844659 273.312 
L 157.478884 273.312 
L 157.478884 69.310339 
L 163.844659 69.310339 
z
" style="fill:#ffbb78;stroke:#ffffff;stroke-linejoin:miter;"/>
   </g>
   <g id="patch_20">
    <path clip-path="url(#pb2d978dd87)" d="M 170.210434 273.312 
L 163.844659 273.312 
L 163.844659 97.646948 
L 170.210434 97.646948 
z
" style="fill:#ffbb78;stroke:#ffffff;stroke-linejoin:miter;"/>
   </g>
   <g id="patch_21">
    <path clip-path="url(#pb2d978dd87)" d="M 176.57621 273.312 
L 170.210434 273.312 
L 170.210434 86.68501 
L 176.57621 86.68501 
z
" style="fill:#ffbb78;stroke:#ffffff;stroke-linejoin:miter;"/>
   </g>
   <g id="patch_22">
    <path clip-path="url(#pb2d978dd87)" d="M 182.941985 273.312 
L 176.57621 273.312 
L 176.57621 126.860512 
L 182.941985 126.860512 
z
" style="fill:#ffbb78;stroke:#ffffff;stroke-linejoin:miter;"/>
   </g>
   <g id="patch_23">
    <path clip-path="url(#pb2d978dd87)" d="M 189.307761 273.312 
L 182.941985 273.312 
L 182.941985 109.102173 
L 189.307761 109.102173 
z
" style="fill:#ffbb78;stroke:#ffffff;stroke-linejoin:miter;"/>
   </g>
   <g id="patch_24">
    <path clip-path="url(#pb2d978dd87)" d="M 195.673536 273.312 
L 189.307761 273.312 
L 189.307761 133.602104 
L 195.673536 133.602104 
z
" style="fill:#ffbb78;stroke:#ffffff;stroke-linejoin:miter;"/>
   </g>
   <g id="patch_25">
    <path clip-path="url(#pb2d978dd87)" d="M 202.039311 273.312 
L 195.673536 273.312 
L 195.673536 159.965564 
L 202.039311 159.965564 
z
" style="fill:#ffbb78;stroke:#ffffff;stroke-linejoin:miter;"/>
   </g>
   <g id="patch_26">
    <path clip-path="url(#pb2d978dd87)" d="M 208.405087 273.312 
L 202.039311 273.312 
L 202.039311 173.229509 
L 208.405087 173.229509 
z
" style="fill:#ffbb78;stroke:#ffffff;stroke-linejoin:miter;"/>
   </g>
   <g id="patch_27">
    <path clip-path="url(#pb2d978dd87)" d="M 214.770862 273.312 
L 208.405087 273.312 
L 208.405087 160.62328 
L 214.770862 160.62328 
z
" style="fill:#ffbb78;stroke:#ffffff;stroke-linejoin:miter;"/>
   </g>
   <g id="patch_28">
    <path clip-path="url(#pb2d978dd87)" d="M 221.136638 273.312 
L 214.770862 273.312 
L 214.770862 189.617606 
L 221.136638 189.617606 
z
" style="fill:#ffbb78;stroke:#ffffff;stroke-linejoin:miter;"/>
   </g>
   <g id="patch_29">
    <path clip-path="url(#pb2d978dd87)" d="M 227.502413 273.312 
L 221.136638 273.312 
L 221.136638 203.320028 
L 227.502413 203.320028 
z
" style="fill:#ffbb78;stroke:#ffffff;stroke-linejoin:miter;"/>
   </g>
   <g id="patch_30">
    <path clip-path="url(#pb2d978dd87)" d="z
" style="fill:#ffbb78;stroke:#ffffff;stroke-linejoin:miter;"/>
   </g>
   <g id="patch_31">
    <path clip-path="url(#pb2d978dd87)" d="M 240.233964 273.312 
L 233.868189 273.312 
L 233.868189 169.009163 
L 240.233964 169.009163 
z
" style="fill:#ffbb78;stroke:#ffffff;stroke-linejoin:miter;"/>
   </g>
   <g id="patch_32">
    <path clip-path="url(#pb2d978dd87)" d="M 246.599739 273.312 
L 240.233964 273.312 
L 240.233964 170.708263 
L 246.599739 170.708263 
z
" style="fill:#ffbb78;stroke:#ffffff;stroke-linejoin:miter;"/>
   </g>
   <g id="patch_33">
    <path clip-path="url(#pb2d978dd87)" d="M 252.965515 273.312 
L 246.599739 273.312 
L 246.599739 243.495529 
L 252.965515 243.495529 
z
" style="fill:#ffbb78;stroke:#ffffff;stroke-linejoin:miter;"/>
   </g>
   <g id="patch_34">
    <path clip-path="url(#pb2d978dd87)" d="M 259.33129 273.312 
L 252.965515 273.312 
L 252.965515 217.351308 
L 259.33129 217.351308 
z
" style="fill:#ffbb78;stroke:#ffffff;stroke-linejoin:miter;"/>
   </g>
   <g id="patch_35">
    <path clip-path="url(#pb2d978dd87)" d="M 265.697066 273.312 
L 259.33129 273.312 
L 259.33129 217.132069 
L 265.697066 217.132069 
z
" style="fill:#ffbb78;stroke:#ffffff;stroke-linejoin:miter;"/>
   </g>
   <g id="patch_36">
    <path clip-path="url(#pb2d978dd87)" d="M 272.062841 273.312 
L 265.697066 273.312 
L 265.697066 217.570547 
L 272.062841 217.570547 
z
" style="fill:#ffbb78;stroke:#ffffff;stroke-linejoin:miter;"/>
   </g>
   <g id="patch_37">
    <path clip-path="url(#pb2d978dd87)" d="M 278.428616 273.312 
L 272.062841 273.312 
L 272.062841 244.810962 
L 278.428616 244.810962 
z
" style="fill:#ffbb78;stroke:#ffffff;stroke-linejoin:miter;"/>
   </g>
   <g id="patch_38">
    <path clip-path="url(#pb2d978dd87)" d="M 284.794392 273.312 
L 278.428616 273.312 
L 278.428616 223.544803 
L 284.794392 223.544803 
z
" style="fill:#ffbb78;stroke:#ffffff;stroke-linejoin:miter;"/>
   </g>
   <g id="patch_39">
    <path clip-path="url(#pb2d978dd87)" d="M 291.160167 273.312 
L 284.794392 273.312 
L 284.794392 225.627571 
L 291.160167 225.627571 
z
" style="fill:#ffbb78;stroke:#ffffff;stroke-linejoin:miter;"/>
   </g>
   <g id="patch_40">
    <path clip-path="url(#pb2d978dd87)" d="M 297.525943 273.312 
L 291.160167 273.312 
L 291.160167 208.362519 
L 297.525943 208.362519 
z
" style="fill:#ffbb78;stroke:#ffffff;stroke-linejoin:miter;"/>
   </g>
   <g id="patch_41">
    <path clip-path="url(#pb2d978dd87)" d="M 303.891718 273.312 
L 297.525943 273.312 
L 297.525943 198.880443 
L 303.891718 198.880443 
z
" style="fill:#ffbb78;stroke:#ffffff;stroke-linejoin:miter;"/>
   </g>
   <g id="patch_42">
    <path clip-path="url(#pb2d978dd87)" d="M 310.257493 273.312 
L 303.891718 273.312 
L 303.891718 177.340235 
L 310.257493 177.340235 
z
" style="fill:#ffbb78;stroke:#ffffff;stroke-linejoin:miter;"/>
   </g>
   <g id="patch_43">
    <path clip-path="url(#pb2d978dd87)" d="M 316.623269 273.312 
L 310.257493 273.312 
L 310.257493 178.272 
L 316.623269 178.272 
z
" style="fill:#ffbb78;stroke:#ffffff;stroke-linejoin:miter;"/>
   </g>
   <g id="patch_44">
    <path clip-path="url(#pb2d978dd87)" d="M 322.989044 273.312 
L 316.623269 273.312 
L 316.623269 174.051654 
L 322.989044 174.051654 
z
" style="fill:#ffbb78;stroke:#ffffff;stroke-linejoin:miter;"/>
   </g>
   <g id="patch_45">
    <path clip-path="url(#pb2d978dd87)" d="M 329.35482 273.312 
L 322.989044 273.312 
L 322.989044 167.967779 
L 329.35482 167.967779 
z
" style="fill:#ffbb78;stroke:#ffffff;stroke-linejoin:miter;"/>
   </g>
   <g id="patch_46">
    <path clip-path="url(#pb2d978dd87)" d="M 335.720595 273.312 
L 329.35482 273.312 
L 329.35482 151.634491 
L 335.720595 151.634491 
z
" style="fill:#ffbb78;stroke:#ffffff;stroke-linejoin:miter;"/>
   </g>
   <g id="patch_47">
    <path clip-path="url(#pb2d978dd87)" d="M 342.08637 273.312 
L 335.720595 273.312 
L 335.720595 150.373869 
L 342.08637 150.373869 
z
" style="fill:#ffbb78;stroke:#ffffff;stroke-linejoin:miter;"/>
   </g>
   <g id="patch_48">
    <path clip-path="url(#pb2d978dd87)" d="M 348.452146 273.312 
L 342.08637 273.312 
L 342.08637 116.6111 
L 348.452146 116.6111 
z
" style="fill:#ffbb78;stroke:#ffffff;stroke-linejoin:miter;"/>
   </g>
   <g id="patch_49">
    <path clip-path="url(#pb2d978dd87)" d="M 354.817921 273.312 
L 348.452146 273.312 
L 348.452146 68.597813 
L 354.817921 68.597813 
z
" style="fill:#ffbb78;stroke:#ffffff;stroke-linejoin:miter;"/>
   </g>
   <g id="patch_50">
    <path clip-path="url(#pb2d978dd87)" d="M 361.183697 273.312 
L 354.817921 273.312 
L 354.817921 72.763349 
L 361.183697 72.763349 
z
" style="fill:#ffbb78;stroke:#ffffff;stroke-linejoin:miter;"/>
   </g>
   <g id="patch_51">
    <path clip-path="url(#pb2d978dd87)" d="M 367.549472 273.312 
L 361.183697 273.312 
L 361.183697 54.566533 
L 367.549472 54.566533 
z
" style="fill:#ffbb78;stroke:#ffffff;stroke-linejoin:miter;"/>
   </g>
   <g id="patch_52">
    <path clip-path="url(#pb2d978dd87)" d="M 373.915247 273.312 
L 367.549472 273.312 
L 367.549472 47.222035 
L 373.915247 47.222035 
z
" style="fill:#ffbb78;stroke:#ffffff;stroke-linejoin:miter;"/>
   </g>
   <g id="patch_53">
    <path clip-path="url(#pb2d978dd87)" d="M 380.281023 273.312 
L 373.915247 273.312 
L 373.915247 19.872 
L 380.281023 19.872 
z
" style="fill:#ffbb78;stroke:#ffffff;stroke-linejoin:miter;"/>
   </g>
   <g id="patch_54">
    <path clip-path="url(#pb2d978dd87)" d="z
" style="fill:#ff7f0e;stroke:#ffffff;stroke-linejoin:miter;"/>
   </g>
   <g id="patch_55">
    <path clip-path="url(#pb2d978dd87)" d="M 61.992253 273.312 
L 55.626477 273.312 
L 55.626477 271.6129 
L 61.992253 271.6129 
z
" style="fill:#ff7f0e;stroke:#ffffff;stroke-linejoin:miter;"/>
   </g>
   <g id="patch_56">
    <path clip-path="url(#pb2d978dd87)" d="M 74.723803 273.312 
L 61.992253 273.312 
L 61.992253 266.131931 
L 74.723803 266.131931 
z
" style="fill:#ff7f0e;stroke:#ffffff;stroke-linejoin:miter;"/>
   </g>
   <g id="patch_57">
    <path clip-path="url(#pb2d978dd87)" d="M 81.089579 273.312 
L 74.723803 273.312 
L 74.723803 259.116291 
L 81.089579 259.116291 
z
" style="fill:#ff7f0e;stroke:#ffffff;stroke-linejoin:miter;"/>
   </g>
   <g id="patch_58">
    <path clip-path="url(#pb2d978dd87)" d="M 87.455354 273.312 
L 81.089579 273.312 
L 81.089579 247.715875 
L 87.455354 247.715875 
z
" style="fill:#ff7f0e;stroke:#ffffff;stroke-linejoin:miter;"/>
   </g>
   <g id="patch_59">
    <path clip-path="url(#pb2d978dd87)" d="M 93.82113 273.312 
L 87.455354 273.312 
L 87.455354 235.602934 
L 93.82113 235.602934 
z
" style="fill:#ff7f0e;stroke:#ffffff;stroke-linejoin:miter;"/>
   </g>
   <g id="patch_60">
    <path clip-path="url(#pb2d978dd87)" d="M 100.186905 273.312 
L 93.82113 273.312 
L 93.82113 231.875875 
L 100.186905 231.875875 
z
" style="fill:#ff7f0e;stroke:#ffffff;stroke-linejoin:miter;"/>
   </g>
   <g id="patch_61">
    <path clip-path="url(#pb2d978dd87)" d="M 106.55268 273.312 
L 100.186905 273.312 
L 100.186905 174.873799 
L 106.55268 174.873799 
z
" style="fill:#ff7f0e;stroke:#ffffff;stroke-linejoin:miter;"/>
   </g>
   <g id="patch_62">
    <path clip-path="url(#pb2d978dd87)" d="M 112.918456 273.312 
L 106.55268 273.312 
L 106.55268 193.289855 
L 112.918456 193.289855 
z
" style="fill:#ff7f0e;stroke:#ffffff;stroke-linejoin:miter;"/>
   </g>
   <g id="patch_63">
    <path clip-path="url(#pb2d978dd87)" d="M 119.284231 273.312 
L 112.918456 273.312 
L 112.918456 177.997952 
L 119.284231 177.997952 
z
" style="fill:#ff7f0e;stroke:#ffffff;stroke-linejoin:miter;"/>
   </g>
   <g id="patch_64">
    <path clip-path="url(#pb2d978dd87)" d="M 125.650007 273.312 
L 119.284231 273.312 
L 119.284231 164.569578 
L 125.650007 164.569578 
z
" style="fill:#ff7f0e;stroke:#ffffff;stroke-linejoin:miter;"/>
   </g>
   <g id="patch_65">
    <path clip-path="url(#pb2d978dd87)" d="M 132.015782 273.312 
L 125.650007 273.312 
L 125.650007 158.156844 
L 132.015782 158.156844 
z
" style="fill:#ff7f0e;stroke:#ffffff;stroke-linejoin:miter;"/>
   </g>
   <g id="patch_66">
    <path clip-path="url(#pb2d978dd87)" d="M 138.381557 273.312 
L 132.015782 273.312 
L 132.015782 131.354907 
L 138.381557 131.354907 
z
" style="fill:#ff7f0e;stroke:#ffffff;stroke-linejoin:miter;"/>
   </g>
   <g id="patch_67">
    <path clip-path="url(#pb2d978dd87)" d="M 144.747333 273.312 
L 138.381557 273.312 
L 138.381557 118.36501 
L 144.747333 118.36501 
z
" style="fill:#ff7f0e;stroke:#ffffff;stroke-linejoin:miter;"/>
   </g>
   <g id="patch_68">
    <path clip-path="url(#pb2d978dd87)" d="M 151.113108 273.312 
L 144.747333 273.312 
L 144.747333 96.112277 
L 151.113108 96.112277 
z
" style="fill:#ff7f0e;stroke:#ffffff;stroke-linejoin:miter;"/>
   </g>
   <g id="patch_69">
    <path clip-path="url(#pb2d978dd87)" d="M 157.478884 273.312 
L 151.113108 273.312 
L 151.113108 59.992692 
L 157.478884 59.992692 
z
" style="fill:#ff7f0e;stroke:#ffffff;stroke-linejoin:miter;"/>
   </g>
   <g id="patch_70">
    <path clip-path="url(#pb2d978dd87)" d="M 163.844659 273.312 
L 157.478884 273.312 
L 157.478884 70.680581 
L 163.844659 70.680581 
z
" style="fill:#ff7f0e;stroke:#ffffff;stroke-linejoin:miter;"/>
   </g>
   <g id="patch_71">
    <path clip-path="url(#pb2d978dd87)" d="M 170.210434 273.312 
L 163.844659 273.312 
L 163.844659 100.606671 
L 170.210434 100.606671 
z
" style="fill:#ff7f0e;stroke:#ffffff;stroke-linejoin:miter;"/>
   </g>
   <g id="patch_72">
    <path clip-path="url(#pb2d978dd87)" d="M 176.57621 273.312 
L 170.210434 273.312 
L 170.210434 87.671585 
L 176.57621 87.671585 
z
" style="fill:#ff7f0e;stroke:#ffffff;stroke-linejoin:miter;"/>
   </g>
   <g id="patch_73">
    <path clip-path="url(#pb2d978dd87)" d="M 182.941985 273.312 
L 176.57621 273.312 
L 176.57621 127.901896 
L 182.941985 127.901896 
z
" style="fill:#ff7f0e;stroke:#ffffff;stroke-linejoin:miter;"/>
   </g>
   <g id="patch_74">
    <path clip-path="url(#pb2d978dd87)" d="M 189.307761 273.312 
L 182.941985 273.312 
L 182.941985 109.759889 
L 189.307761 109.759889 
z
" style="fill:#ff7f0e;stroke:#ffffff;stroke-linejoin:miter;"/>
   </g>
   <g id="patch_75">
    <path clip-path="url(#pb2d978dd87)" d="M 195.673536 273.312 
L 189.307761 273.312 
L 189.307761 137.76764 
L 195.673536 137.76764 
z
" style="fill:#ff7f0e;stroke:#ffffff;stroke-linejoin:miter;"/>
   </g>
   <g id="patch_76">
    <path clip-path="url(#pb2d978dd87)" d="M 202.039311 273.312 
L 195.673536 273.312 
L 195.673536 162.48681 
L 202.039311 162.48681 
z
" style="fill:#ff7f0e;stroke:#ffffff;stroke-linejoin:miter;"/>
   </g>
   <g id="patch_77">
    <path clip-path="url(#pb2d978dd87)" d="M 208.405087 273.312 
L 202.039311 273.312 
L 202.039311 173.558367 
L 208.405087 173.558367 
z
" style="fill:#ff7f0e;stroke:#ffffff;stroke-linejoin:miter;"/>
   </g>
   <g id="patch_78">
    <path clip-path="url(#pb2d978dd87)" d="M 214.770862 273.312 
L 208.405087 273.312 
L 208.405087 163.802242 
L 214.770862 163.802242 
z
" style="fill:#ff7f0e;stroke:#ffffff;stroke-linejoin:miter;"/>
   </g>
   <g id="patch_79">
    <path clip-path="url(#pb2d978dd87)" d="M 221.136638 273.312 
L 214.770862 273.312 
L 214.770862 190.768609 
L 221.136638 190.768609 
z
" style="fill:#ff7f0e;stroke:#ffffff;stroke-linejoin:miter;"/>
   </g>
   <g id="patch_80">
    <path clip-path="url(#pb2d978dd87)" d="M 227.502413 273.312 
L 221.136638 273.312 
L 221.136638 211.925149 
L 227.502413 211.925149 
z
" style="fill:#ff7f0e;stroke:#ffffff;stroke-linejoin:miter;"/>
   </g>
   <g id="patch_81">
    <path clip-path="url(#pb2d978dd87)" d="z
" style="fill:#ff7f0e;stroke:#ffffff;stroke-linejoin:miter;"/>
   </g>
   <g id="patch_82">
    <path clip-path="url(#pb2d978dd87)" d="M 240.233964 273.312 
L 233.868189 273.312 
L 233.868189 169.55726 
L 240.233964 169.55726 
z
" style="fill:#ff7f0e;stroke:#ffffff;stroke-linejoin:miter;"/>
   </g>
   <g id="patch_83">
    <path clip-path="url(#pb2d978dd87)" d="M 246.599739 273.312 
L 240.233964 273.312 
L 240.233964 177.285426 
L 246.599739 177.285426 
z
" style="fill:#ff7f0e;stroke:#ffffff;stroke-linejoin:miter;"/>
   </g>
   <g id="patch_84">
    <path clip-path="url(#pb2d978dd87)" d="M 252.965515 273.312 
L 246.599739 273.312 
L 246.599739 251.662173 
L 252.965515 251.662173 
z
" style="fill:#ff7f0e;stroke:#ffffff;stroke-linejoin:miter;"/>
   </g>
   <g id="patch_85">
    <path clip-path="url(#pb2d978dd87)" d="M 259.33129 273.312 
L 252.965515 273.312 
L 252.965515 224.312138 
L 259.33129 224.312138 
z
" style="fill:#ff7f0e;stroke:#ffffff;stroke-linejoin:miter;"/>
   </g>
   <g id="patch_86">
    <path clip-path="url(#pb2d978dd87)" d="M 265.697066 273.312 
L 259.33129 273.312 
L 259.33129 228.203626 
L 265.697066 228.203626 
z
" style="fill:#ff7f0e;stroke:#ffffff;stroke-linejoin:miter;"/>
   </g>
   <g id="patch_87">
    <path clip-path="url(#pb2d978dd87)" d="M 272.062841 273.312 
L 265.697066 273.312 
L 265.697066 237.685702 
L 272.062841 237.685702 
z
" style="fill:#ff7f0e;stroke:#ffffff;stroke-linejoin:miter;"/>
   </g>
   <g id="patch_88">
    <path clip-path="url(#pb2d978dd87)" d="M 278.428616 273.312 
L 272.062841 273.312 
L 272.062841 261.253869 
L 278.428616 261.253869 
z
" style="fill:#ff7f0e;stroke:#ffffff;stroke-linejoin:miter;"/>
   </g>
   <g id="patch_89">
    <path clip-path="url(#pb2d978dd87)" d="M 284.794392 273.312 
L 278.428616 273.312 
L 278.428616 244.920581 
L 284.794392 244.920581 
z
" style="fill:#ff7f0e;stroke:#ffffff;stroke-linejoin:miter;"/>
   </g>
   <g id="patch_90">
    <path clip-path="url(#pb2d978dd87)" d="M 291.160167 273.312 
L 284.794392 273.312 
L 284.794392 250.785218 
L 291.160167 250.785218 
z
" style="fill:#ff7f0e;stroke:#ffffff;stroke-linejoin:miter;"/>
   </g>
   <g id="patch_91">
    <path clip-path="url(#pb2d978dd87)" d="M 297.525943 273.312 
L 291.160167 273.312 
L 291.160167 249.250547 
L 297.525943 249.250547 
z
" style="fill:#ff7f0e;stroke:#ffffff;stroke-linejoin:miter;"/>
   </g>
   <g id="patch_92">
    <path clip-path="url(#pb2d978dd87)" d="M 303.891718 273.312 
L 297.525943 273.312 
L 297.525943 255.169993 
L 303.891718 255.169993 
z
" style="fill:#ff7f0e;stroke:#ffffff;stroke-linejoin:miter;"/>
   </g>
   <g id="patch_93">
    <path clip-path="url(#pb2d978dd87)" d="M 310.257493 273.312 
L 303.891718 273.312 
L 303.891718 249.579405 
L 310.257493 249.579405 
z
" style="fill:#ff7f0e;stroke:#ffffff;stroke-linejoin:miter;"/>
   </g>
   <g id="patch_94">
    <path clip-path="url(#pb2d978dd87)" d="M 316.623269 273.312 
L 310.257493 273.312 
L 310.257493 241.851239 
L 316.623269 241.851239 
z
" style="fill:#ff7f0e;stroke:#ffffff;stroke-linejoin:miter;"/>
   </g>
   <g id="patch_95">
    <path clip-path="url(#pb2d978dd87)" d="M 322.989044 273.312 
L 316.623269 273.312 
L 316.623269 262.021204 
L 322.989044 262.021204 
z
" style="fill:#ff7f0e;stroke:#ffffff;stroke-linejoin:miter;"/>
   </g>
   <g id="patch_96">
    <path clip-path="url(#pb2d978dd87)" d="M 329.35482 273.312 
L 322.989044 273.312 
L 322.989044 266.18674 
L 329.35482 266.18674 
z
" style="fill:#ff7f0e;stroke:#ffffff;stroke-linejoin:miter;"/>
   </g>
   <g id="patch_97">
    <path clip-path="url(#pb2d978dd87)" d="M 335.720595 273.312 
L 329.35482 273.312 
L 329.35482 266.844457 
L 335.720595 266.844457 
z
" style="fill:#ff7f0e;stroke:#ffffff;stroke-linejoin:miter;"/>
   </g>
   <g id="patch_98">
    <path clip-path="url(#pb2d978dd87)" d="M 342.08637 273.312 
L 335.720595 273.312 
L 335.720595 265.474215 
L 342.08637 265.474215 
z
" style="fill:#ff7f0e;stroke:#ffffff;stroke-linejoin:miter;"/>
   </g>
   <g id="patch_99">
    <path clip-path="url(#pb2d978dd87)" d="M 348.452146 273.312 
L 342.08637 273.312 
L 342.08637 265.309785 
L 348.452146 265.309785 
z
" style="fill:#ff7f0e;stroke:#ffffff;stroke-linejoin:miter;"/>
   </g>
   <g id="patch_100">
    <path clip-path="url(#pb2d978dd87)" d="M 354.817921 273.312 
L 348.452146 273.312 
L 348.452146 267.721412 
L 354.817921 267.721412 
z
" style="fill:#ff7f0e;stroke:#ffffff;stroke-linejoin:miter;"/>
   </g>
   <g id="patch_101">
    <path clip-path="url(#pb2d978dd87)" d="M 361.183697 273.312 
L 354.817921 273.312 
L 354.817921 270.790754 
L 361.183697 270.790754 
z
" style="fill:#ff7f0e;stroke:#ffffff;stroke-linejoin:miter;"/>
   </g>
   <g id="patch_102">
    <path clip-path="url(#pb2d978dd87)" d="M 367.549472 273.312 
L 361.183697 273.312 
L 361.183697 270.845564 
L 367.549472 270.845564 
z
" style="fill:#ff7f0e;stroke:#ffffff;stroke-linejoin:miter;"/>
   </g>
   <g id="patch_103">
    <path clip-path="url(#pb2d978dd87)" d="M 373.915247 273.312 
L 367.549472 273.312 
L 367.549472 272.215806 
L 373.915247 272.215806 
z
" style="fill:#ff7f0e;stroke:#ffffff;stroke-linejoin:miter;"/>
   </g>
   <g id="patch_104">
    <path clip-path="url(#pb2d978dd87)" d="M 380.281023 273.312 
L 373.915247 273.312 
L 373.915247 271.6129 
L 380.281023 271.6129 
z
" style="fill:#ff7f0e;stroke:#ffffff;stroke-linejoin:miter;"/>
   </g>
   <g id="patch_105">
    <path clip-path="url(#pb2d978dd87)" d="z
" style="fill:#d62728;stroke:#ffffff;stroke-linejoin:miter;"/>
   </g>
   <g id="patch_106">
    <path clip-path="url(#pb2d978dd87)" d="M 61.992253 273.312 
L 55.626477 273.312 
L 55.626477 273.312 
L 61.992253 273.312 
z
" style="fill:#d62728;stroke:#ffffff;stroke-linejoin:miter;"/>
   </g>
   <g id="patch_107">
    <path clip-path="url(#pb2d978dd87)" d="M 74.723803 273.312 
L 61.992253 273.312 
L 61.992253 273.010547 
L 74.723803 273.010547 
z
" style="fill:#d62728;stroke:#ffffff;stroke-linejoin:miter;"/>
   </g>
   <g id="patch_108">
    <path clip-path="url(#pb2d978dd87)" d="M 81.089579 273.312 
L 74.723803 273.312 
L 74.723803 272.873522 
L 81.089579 272.873522 
z
" style="fill:#d62728;stroke:#ffffff;stroke-linejoin:miter;"/>
   </g>
   <g id="patch_109">
    <path clip-path="url(#pb2d978dd87)" d="M 87.455354 273.312 
L 81.089579 273.312 
L 81.089579 272.435045 
L 87.455354 272.435045 
z
" style="fill:#d62728;stroke:#ffffff;stroke-linejoin:miter;"/>
   </g>
   <g id="patch_110">
    <path clip-path="url(#pb2d978dd87)" d="M 93.82113 273.312 
L 87.455354 273.312 
L 87.455354 272.489855 
L 93.82113 272.489855 
z
" style="fill:#d62728;stroke:#ffffff;stroke-linejoin:miter;"/>
   </g>
   <g id="patch_111">
    <path clip-path="url(#pb2d978dd87)" d="M 100.186905 273.312 
L 93.82113 273.312 
L 93.82113 271.996567 
L 100.186905 271.996567 
z
" style="fill:#d62728;stroke:#ffffff;stroke-linejoin:miter;"/>
   </g>
   <g id="patch_112">
    <path clip-path="url(#pb2d978dd87)" d="M 106.55268 273.312 
L 100.186905 273.312 
L 100.186905 271.886948 
L 106.55268 271.886948 
z
" style="fill:#d62728;stroke:#ffffff;stroke-linejoin:miter;"/>
   </g>
   <g id="patch_113">
    <path clip-path="url(#pb2d978dd87)" d="M 112.918456 273.312 
L 106.55268 273.312 
L 106.55268 271.886948 
L 112.918456 271.886948 
z
" style="fill:#d62728;stroke:#ffffff;stroke-linejoin:miter;"/>
   </g>
   <g id="patch_114">
    <path clip-path="url(#pb2d978dd87)" d="M 119.284231 273.312 
L 112.918456 273.312 
L 112.918456 271.229232 
L 119.284231 271.229232 
z
" style="fill:#d62728;stroke:#ffffff;stroke-linejoin:miter;"/>
   </g>
   <g id="patch_115">
    <path clip-path="url(#pb2d978dd87)" d="M 125.650007 273.312 
L 119.284231 273.312 
L 119.284231 270.955183 
L 125.650007 270.955183 
z
" style="fill:#d62728;stroke:#ffffff;stroke-linejoin:miter;"/>
   </g>
   <g id="patch_116">
    <path clip-path="url(#pb2d978dd87)" d="M 132.015782 273.312 
L 125.650007 273.312 
L 125.650007 270.790754 
L 132.015782 270.790754 
z
" style="fill:#d62728;stroke:#ffffff;stroke-linejoin:miter;"/>
   </g>
   <g id="patch_117">
    <path clip-path="url(#pb2d978dd87)" d="M 138.381557 273.312 
L 132.015782 273.312 
L 132.015782 270.790754 
L 138.381557 270.790754 
z
" style="fill:#d62728;stroke:#ffffff;stroke-linejoin:miter;"/>
   </g>
   <g id="patch_118">
    <path clip-path="url(#pb2d978dd87)" d="M 144.747333 273.312 
L 138.381557 273.312 
L 138.381557 270.187848 
L 144.747333 270.187848 
z
" style="fill:#d62728;stroke:#ffffff;stroke-linejoin:miter;"/>
   </g>
   <g id="patch_119">
    <path clip-path="url(#pb2d978dd87)" d="M 151.113108 273.312 
L 144.747333 273.312 
L 144.747333 269.80418 
L 151.113108 269.80418 
z
" style="fill:#d62728;stroke:#ffffff;stroke-linejoin:miter;"/>
   </g>
   <g id="patch_120">
    <path clip-path="url(#pb2d978dd87)" d="M 157.478884 273.312 
L 151.113108 273.312 
L 151.113108 269.694561 
L 157.478884 269.694561 
z
" style="fill:#d62728;stroke:#ffffff;stroke-linejoin:miter;"/>
   </g>
   <g id="patch_121">
    <path clip-path="url(#pb2d978dd87)" d="M 163.844659 273.312 
L 157.478884 273.312 
L 157.478884 269.310893 
L 163.844659 269.310893 
z
" style="fill:#d62728;stroke:#ffffff;stroke-linejoin:miter;"/>
   </g>
   <g id="patch_122">
    <path clip-path="url(#pb2d978dd87)" d="M 170.210434 273.312 
L 163.844659 273.312 
L 163.844659 269.310893 
L 170.210434 269.310893 
z
" style="fill:#d62728;stroke:#ffffff;stroke-linejoin:miter;"/>
   </g>
   <g id="patch_123">
    <path clip-path="url(#pb2d978dd87)" d="M 176.57621 273.312 
L 170.210434 273.312 
L 170.210434 268.598367 
L 176.57621 268.598367 
z
" style="fill:#d62728;stroke:#ffffff;stroke-linejoin:miter;"/>
   </g>
   <g id="patch_124">
    <path clip-path="url(#pb2d978dd87)" d="M 182.941985 273.312 
L 176.57621 273.312 
L 176.57621 268.433938 
L 182.941985 268.433938 
z
" style="fill:#d62728;stroke:#ffffff;stroke-linejoin:miter;"/>
   </g>
   <g id="patch_125">
    <path clip-path="url(#pb2d978dd87)" d="M 189.307761 273.312 
L 182.941985 273.312 
L 182.941985 267.99546 
L 189.307761 267.99546 
z
" style="fill:#d62728;stroke:#ffffff;stroke-linejoin:miter;"/>
   </g>
   <g id="patch_126">
    <path clip-path="url(#pb2d978dd87)" d="M 195.673536 273.312 
L 189.307761 273.312 
L 189.307761 267.392554 
L 195.673536 267.392554 
z
" style="fill:#d62728;stroke:#ffffff;stroke-linejoin:miter;"/>
   </g>
   <g id="patch_127">
    <path clip-path="url(#pb2d978dd87)" d="M 202.039311 273.312 
L 195.673536 273.312 
L 195.673536 267.99546 
L 202.039311 267.99546 
z
" style="fill:#d62728;stroke:#ffffff;stroke-linejoin:miter;"/>
   </g>
   <g id="patch_128">
    <path clip-path="url(#pb2d978dd87)" d="M 208.405087 273.312 
L 202.039311 273.312 
L 202.039311 259.390339 
L 208.405087 259.390339 
z
" style="fill:#d62728;stroke:#ffffff;stroke-linejoin:miter;"/>
   </g>
   <g id="patch_129">
    <path clip-path="url(#pb2d978dd87)" d="M 214.770862 273.312 
L 208.405087 273.312 
L 208.405087 272.544664 
L 214.770862 272.544664 
z
" style="fill:#d62728;stroke:#ffffff;stroke-linejoin:miter;"/>
   </g>
   <g id="patch_130">
    <path clip-path="url(#pb2d978dd87)" d="M 221.136638 273.312 
L 214.770862 273.312 
L 214.770862 265.474215 
L 221.136638 265.474215 
z
" style="fill:#d62728;stroke:#ffffff;stroke-linejoin:miter;"/>
   </g>
   <g id="patch_131">
    <path clip-path="url(#pb2d978dd87)" d="M 227.502413 273.312 
L 221.136638 273.312 
L 221.136638 265.474215 
L 227.502413 265.474215 
z
" style="fill:#d62728;stroke:#ffffff;stroke-linejoin:miter;"/>
   </g>
   <g id="patch_132">
    <path clip-path="url(#pb2d978dd87)" d="M 233.868189 273.312 
L 227.502413 273.312 
L 227.502413 267.502173 
L 233.868189 267.502173 
z
" style="fill:#d62728;stroke:#ffffff;stroke-linejoin:miter;"/>
   </g>
   <g id="patch_133">
    <path clip-path="url(#pb2d978dd87)" d="M 240.233964 273.312 
L 233.868189 273.312 
L 233.868189 267.940651 
L 240.233964 267.940651 
z
" style="fill:#d62728;stroke:#ffffff;stroke-linejoin:miter;"/>
   </g>
   <g id="patch_134">
    <path clip-path="url(#pb2d978dd87)" d="M 246.599739 273.312 
L 240.233964 273.312 
L 240.233964 265.857882 
L 246.599739 265.857882 
z
" style="fill:#d62728;stroke:#ffffff;stroke-linejoin:miter;"/>
   </g>
   <g id="patch_135">
    <path clip-path="url(#pb2d978dd87)" d="M 252.965515 273.312 
L 246.599739 273.312 
L 246.599739 266.734837 
L 252.965515 266.734837 
z
" style="fill:#d62728;stroke:#ffffff;stroke-linejoin:miter;"/>
   </g>
   <g id="patch_136">
    <path clip-path="url(#pb2d978dd87)" d="M 259.33129 273.312 
L 252.965515 273.312 
L 252.965515 266.844457 
L 259.33129 266.844457 
z
" style="fill:#d62728;stroke:#ffffff;stroke-linejoin:miter;"/>
   </g>
   <g id="patch_137">
    <path clip-path="url(#pb2d978dd87)" d="M 265.697066 273.312 
L 259.33129 273.312 
L 259.33129 267.173315 
L 265.697066 267.173315 
z
" style="fill:#d62728;stroke:#ffffff;stroke-linejoin:miter;"/>
   </g>
   <g id="patch_138">
    <path clip-path="url(#pb2d978dd87)" d="M 272.062841 273.312 
L 265.697066 273.312 
L 265.697066 267.666602 
L 272.062841 267.666602 
z
" style="fill:#d62728;stroke:#ffffff;stroke-linejoin:miter;"/>
   </g>
   <g id="patch_139">
    <path clip-path="url(#pb2d978dd87)" d="M 278.428616 273.312 
L 272.062841 273.312 
L 272.062841 264.761689 
L 278.428616 264.761689 
z
" style="fill:#d62728;stroke:#ffffff;stroke-linejoin:miter;"/>
   </g>
   <g id="patch_140">
    <path clip-path="url(#pb2d978dd87)" d="M 284.794392 273.312 
L 278.428616 273.312 
L 278.428616 268.817606 
L 284.794392 268.817606 
z
" style="fill:#d62728;stroke:#ffffff;stroke-linejoin:miter;"/>
   </g>
   <g id="patch_141">
    <path clip-path="url(#pb2d978dd87)" d="M 291.160167 273.312 
L 284.794392 273.312 
L 284.794392 269.968609 
L 291.160167 269.968609 
z
" style="fill:#d62728;stroke:#ffffff;stroke-linejoin:miter;"/>
   </g>
   <g id="patch_142">
    <path clip-path="url(#pb2d978dd87)" d="M 297.525943 273.312 
L 291.160167 273.312 
L 291.160167 270.955183 
L 297.525943 270.955183 
z
" style="fill:#d62728;stroke:#ffffff;stroke-linejoin:miter;"/>
   </g>
   <g id="patch_143">
    <path clip-path="url(#pb2d978dd87)" d="M 303.891718 273.312 
L 297.525943 273.312 
L 297.525943 270.352277 
L 303.891718 270.352277 
z
" style="fill:#d62728;stroke:#ffffff;stroke-linejoin:miter;"/>
   </g>
   <g id="patch_144">
    <path clip-path="url(#pb2d978dd87)" d="M 310.257493 273.312 
L 303.891718 273.312 
L 303.891718 269.694561 
L 310.257493 269.694561 
z
" style="fill:#d62728;stroke:#ffffff;stroke-linejoin:miter;"/>
   </g>
   <g id="patch_145">
    <path clip-path="url(#pb2d978dd87)" d="M 316.623269 273.312 
L 310.257493 273.312 
L 310.257493 270.407087 
L 316.623269 270.407087 
z
" style="fill:#d62728;stroke:#ffffff;stroke-linejoin:miter;"/>
   </g>
   <g id="patch_146">
    <path clip-path="url(#pb2d978dd87)" d="M 322.989044 273.312 
L 316.623269 273.312 
L 316.623269 269.694561 
L 322.989044 269.694561 
z
" style="fill:#d62728;stroke:#ffffff;stroke-linejoin:miter;"/>
   </g>
   <g id="patch_147">
    <path clip-path="url(#pb2d978dd87)" d="M 329.35482 273.312 
L 322.989044 273.312 
L 322.989044 269.530131 
L 329.35482 269.530131 
z
" style="fill:#d62728;stroke:#ffffff;stroke-linejoin:miter;"/>
   </g>
   <g id="patch_148">
    <path clip-path="url(#pb2d978dd87)" d="M 335.720595 273.312 
L 329.35482 273.312 
L 329.35482 268.598367 
L 335.720595 268.598367 
z
" style="fill:#d62728;stroke:#ffffff;stroke-linejoin:miter;"/>
   </g>
   <g id="patch_149">
    <path clip-path="url(#pb2d978dd87)" d="M 342.08637 273.312 
L 335.720595 273.312 
L 335.720595 268.707986 
L 342.08637 268.707986 
z
" style="fill:#d62728;stroke:#ffffff;stroke-linejoin:miter;"/>
   </g>
   <g id="patch_150">
    <path clip-path="url(#pb2d978dd87)" d="M 348.452146 273.312 
L 342.08637 273.312 
L 342.08637 267.940651 
L 348.452146 267.940651 
z
" style="fill:#d62728;stroke:#ffffff;stroke-linejoin:miter;"/>
   </g>
   <g id="patch_151">
    <path clip-path="url(#pb2d978dd87)" d="M 354.817921 273.312 
L 348.452146 273.312 
L 348.452146 267.502173 
L 354.817921 267.502173 
z
" style="fill:#d62728;stroke:#ffffff;stroke-linejoin:miter;"/>
   </g>
   <g id="patch_152">
    <path clip-path="url(#pb2d978dd87)" d="M 361.183697 273.312 
L 354.817921 273.312 
L 354.817921 267.940651 
L 361.183697 267.940651 
z
" style="fill:#d62728;stroke:#ffffff;stroke-linejoin:miter;"/>
   </g>
   <g id="patch_153">
    <path clip-path="url(#pb2d978dd87)" d="M 367.549472 273.312 
L 361.183697 273.312 
L 361.183697 260.97982 
L 367.549472 260.97982 
z
" style="fill:#d62728;stroke:#ffffff;stroke-linejoin:miter;"/>
   </g>
   <g id="patch_154">
    <path clip-path="url(#pb2d978dd87)" d="M 373.915247 273.312 
L 367.549472 273.312 
L 367.549472 262.185633 
L 373.915247 262.185633 
z
" style="fill:#d62728;stroke:#ffffff;stroke-linejoin:miter;"/>
   </g>
   <g id="patch_155">
    <path clip-path="url(#pb2d978dd87)" d="M 380.281023 273.312 
L 373.915247 273.312 
L 373.915247 257.965287 
L 380.281023 257.965287 
z
" style="fill:#d62728;stroke:#ffffff;stroke-linejoin:miter;"/>
   </g>
   <g id="matplotlib.axis_1">
    <g id="xtick_1">
     <g id="line2d_1">
      <defs>
       <path d="M 0 0 
L 0 3.5 
" id="mc5892f4f97" style="stroke:#000000;stroke-width:0.8;"/>
      </defs>
      <g>
       <use style="stroke:#000000;stroke-width:0.8;" x="68.358028" xlink:href="#mc5892f4f97" y="273.312"/>
      </g>
     </g>
     <g id="text_1">
      <!-- 22 -->
      <defs>
       <path d="M 57.171875 0.984375 
L 6.984375 0.984375 
L 6.984375 9.28125 
Q 12.890625 23.046875 29.59375 34.421875 
L 32.375 36.28125 
Q 40.921875 42.140625 43.609375 45.40625 
Q 46.6875 49.265625 46.6875 53.8125 
Q 46.6875 58.9375 43.0625 62.546875 
Q 39.0625 66.546875 32.5625 66.546875 
Q 19.53125 66.546875 15.484375 52 
L 7.765625 54.78125 
Q 13.328125 73.828125 33.0625 73.828125 
Q 43.84375 73.828125 50.25 67.4375 
Q 55.859375 61.671875 55.859375 53.515625 
Q 55.859375 47.46875 52.25 42.53125 
Q 48.921875 37.75 36.96875 30.28125 
L 34.859375 29 
Q 19.625 19.578125 15.28125 8.890625 
L 57.171875 8.890625 
z
" id="IPAexGothic-50"/>
      </defs>
      <g transform="translate(62.059591 287.802625)scale(0.1 -0.1)">
       <use xlink:href="#IPAexGothic-50"/>
       <use x="62.988281" xlink:href="#IPAexGothic-50"/>
      </g>
     </g>
    </g>
    <g id="xtick_2">
     <g id="line2d_2">
      <g>
       <use style="stroke:#000000;stroke-width:0.8;" x="132.015782" xlink:href="#mc5892f4f97" y="273.312"/>
      </g>
     </g>
     <g id="text_2">
      <!-- Feb -->
      <defs>
       <path d="M 54.203125 64.703125 
L 18.3125 64.703125 
L 18.3125 41.5 
L 50.09375 41.5 
L 50.09375 34.1875 
L 18.3125 34.1875 
L 18.3125 0.984375 
L 9.515625 0.984375 
L 9.515625 72.40625 
L 54.203125 72.40625 
z
" id="IPAexGothic-70"/>
       <path d="M 13.484375 24.90625 
Q 13.921875 16.265625 18.890625 11.28125 
Q 23.96875 6.203125 31.203125 6.203125 
Q 40.71875 6.203125 46.296875 15.09375 
L 51.90625 11.375 
Q 44.828125 -0.484375 30.171875 -0.484375 
Q 19.09375 -0.484375 11.96875 6.59375 
Q 4.78125 13.8125 4.78125 25.640625 
Q 4.78125 38.1875 12.3125 45.703125 
Q 19 52.390625 29 52.390625 
Q 38.421875 52.390625 44.78125 46.1875 
Q 51.90625 38.96875 51.90625 26.90625 
L 51.90625 24.90625 
z
M 43.0625 31.203125 
Q 42.328125 37.984375 38.28125 41.890625 
Q 34.28125 45.90625 28.8125 45.90625 
Q 22.46875 45.90625 17.96875 40.484375 
Q 14.890625 36.8125 13.96875 31.203125 
z
" id="IPAexGothic-101"/>
       <path d="M 17.578125 42.671875 
Q 24.21875 52.203125 34.671875 52.203125 
Q 43.5625 52.203125 49.859375 45.90625 
Q 57.171875 38.578125 57.171875 25.6875 
Q 57.171875 13.09375 49.859375 5.8125 
Q 43.5625 -0.484375 34.46875 -0.484375 
Q 24.359375 -0.484375 17 8.0625 
L 15.765625 0.6875 
L 9.078125 0.6875 
L 9.078125 74.90625 
L 17.578125 74.90625 
z
M 17.578125 31.203125 
L 17.578125 19.578125 
Q 17.578125 13.875 23.875 9.375 
Q 28.171875 6.296875 33.109375 6.296875 
Q 38.875 6.296875 42.875 10.296875 
Q 48.1875 15.765625 48.1875 25.484375 
Q 48.1875 34.28125 43.796875 39.890625 
Q 39.453125 45.3125 33.203125 45.3125 
Q 27.484375 45.3125 22.46875 40.28125 
Q 17.578125 35.40625 17.578125 31.203125 
z
" id="IPAexGothic-98"/>
      </defs>
      <g transform="translate(123.192345 287.802625)scale(0.1 -0.1)">
       <use xlink:href="#IPAexGothic-70"/>
       <use x="57.177734" xlink:href="#IPAexGothic-101"/>
       <use x="114.0625" xlink:href="#IPAexGothic-98"/>
      </g>
     </g>
    </g>
    <g id="xtick_3">
     <g id="line2d_3">
      <g>
       <use style="stroke:#000000;stroke-width:0.8;" x="176.57621" xlink:href="#mc5892f4f97" y="273.312"/>
      </g>
     </g>
     <g id="text_3">
      <!-- 08 -->
      <defs>
       <path d="M 31.84375 73.828125 
Q 45.015625 73.828125 52.09375 61.625 
Q 57.71875 51.953125 57.71875 36.625 
Q 57.71875 21.4375 52.09375 11.578125 
Q 45.125 -0.484375 31.5 -0.484375 
Q 17.921875 -0.484375 10.9375 11.578125 
Q 5.328125 21.4375 5.328125 36.71875 
Q 5.328125 58.015625 15.625 67.71875 
Q 22.171875 73.828125 31.84375 73.828125 
z
M 31.5 66.65625 
Q 23.6875 66.65625 19.1875 58.734375 
Q 14.59375 50.734375 14.59375 36.625 
Q 14.59375 22.75 19.09375 14.796875 
Q 23.640625 6.984375 31.5 6.984375 
Q 40.921875 6.984375 45.453125 18.015625 
Q 48.4375 25.34375 48.4375 37.109375 
Q 48.4375 50.875 43.84375 58.734375 
Q 39.203125 66.65625 31.5 66.65625 
z
" id="IPAexGothic-48"/>
       <path d="M 39.703125 37.890625 
Q 57.8125 31.734375 57.8125 18.703125 
Q 57.8125 8.453125 48.4375 3.078125 
Q 41.609375 -0.875 31.5 -0.875 
Q 21.34375 -0.875 14.5 3.078125 
Q 5.421875 8.296875 5.421875 18.40625 
Q 5.421875 31.0625 22.015625 37.203125 
L 22.015625 37.5 
Q 7.515625 42.71875 7.515625 54.828125 
Q 7.515625 64.0625 15.328125 69.625 
Q 21.96875 74.3125 31.546875 74.3125 
Q 42.234375 74.3125 48.921875 68.796875 
Q 55.515625 63.578125 55.515625 55.71875 
Q 55.515625 42.28125 39.703125 38.1875 
z
M 31.59375 41.015625 
Q 46.828125 44.625 46.828125 55.125 
Q 46.828125 61.1875 41.796875 64.84375 
Q 37.703125 67.921875 31.5 67.921875 
Q 25.09375 67.921875 20.796875 64.5 
Q 16.40625 60.890625 16.40625 55.03125 
Q 16.40625 49.21875 21.09375 45.703125 
Q 23.34375 43.890625 26.90625 42.53125 
Q 31 40.875 31.59375 41.015625 
z
M 30.90625 34.515625 
Q 14.40625 30.171875 14.40625 19 
Q 14.40625 12.109375 20.515625 8.6875 
Q 25.09375 6.109375 31.390625 6.109375 
Q 40.234375 6.109375 45.015625 10.890625 
Q 48.53125 14.40625 48.53125 19.53125 
Q 48.53125 24.90625 43.65625 28.90625 
Q 40.765625 31.15625 36.71875 32.8125 
Q 31.984375 34.71875 30.90625 34.515625 
z
" id="IPAexGothic-56"/>
      </defs>
      <g transform="translate(170.277772 287.802625)scale(0.1 -0.1)">
       <use xlink:href="#IPAexGothic-48"/>
       <use x="62.988281" xlink:href="#IPAexGothic-56"/>
      </g>
     </g>
    </g>
    <g id="xtick_4">
     <g id="line2d_4">
      <g>
       <use style="stroke:#000000;stroke-width:0.8;" x="221.136638" xlink:href="#mc5892f4f97" y="273.312"/>
      </g>
     </g>
     <g id="text_4">
      <!-- 15 -->
      <defs>
       <path d="M 38.484375 0.984375 
L 29.6875 0.984375 
L 29.6875 64.109375 
Q 21.4375 61.28125 12.3125 59.328125 
L 10.6875 66.109375 
Q 23.734375 69.390625 32.90625 73.921875 
L 38.484375 73.921875 
z
" id="IPAexGothic-49"/>
       <path d="M 18.40625 40.671875 
Q 25.53125 46.296875 33.9375 46.296875 
Q 44 46.296875 50.640625 39.5 
Q 56.84375 33.015625 56.84375 23.390625 
Q 56.84375 14.65625 51.515625 8.015625 
Q 44.828125 -0.484375 31.734375 -0.484375 
Q 14.984375 -0.484375 7.328125 12.25 
L 14.65625 16.0625 
Q 20.453125 6.78125 31.453125 6.78125 
Q 38.53125 6.78125 43.265625 11.1875 
Q 48.140625 15.828125 48.140625 23.484375 
Q 48.140625 30.71875 43.84375 35.015625 
Q 39.359375 39.5 32.125 39.5 
Q 21.96875 39.5 16.75 31.6875 
L 9.234375 32.671875 
L 13.8125 72.40625 
L 53.21875 72.40625 
L 53.21875 64.890625 
L 20.953125 64.890625 
L 17.71875 40.671875 
z
" id="IPAexGothic-53"/>
      </defs>
      <g transform="translate(214.8382 287.802625)scale(0.1 -0.1)">
       <use xlink:href="#IPAexGothic-49"/>
       <use x="62.988281" xlink:href="#IPAexGothic-53"/>
      </g>
     </g>
    </g>
    <g id="xtick_5">
     <g id="line2d_5">
      <g>
       <use style="stroke:#000000;stroke-width:0.8;" x="265.697066" xlink:href="#mc5892f4f97" y="273.312"/>
      </g>
     </g>
     <g id="text_5">
      <!-- 22 -->
      <g transform="translate(259.398628 287.802625)scale(0.1 -0.1)">
       <use xlink:href="#IPAexGothic-50"/>
       <use x="62.988281" xlink:href="#IPAexGothic-50"/>
      </g>
     </g>
    </g>
    <g id="xtick_6">
     <g id="line2d_6">
      <g>
       <use style="stroke:#000000;stroke-width:0.8;" x="316.623269" xlink:href="#mc5892f4f97" y="273.312"/>
      </g>
     </g>
     <g id="text_6">
      <!-- Mar -->
      <defs>
       <path d="M 80.421875 0.984375 
L 71.828125 0.984375 
L 71.828125 39.59375 
Q 71.828125 51.265625 72.40625 64.59375 
L 72.015625 64.59375 
Q 68.0625 53.265625 63.53125 41.796875 
L 47.90625 3.265625 
L 41.40625 3.265625 
L 25.640625 42.578125 
Q 20.75 54.78125 17.625 64.703125 
L 17.234375 64.703125 
Q 17.828125 48.921875 17.828125 39.890625 
L 17.828125 0.984375 
L 9.515625 0.984375 
L 9.515625 72.40625 
L 22.125 72.40625 
L 39.109375 30.375 
Q 42.140625 23 44.828125 14.15625 
L 45.125 14.15625 
Q 47.3125 22.125 50.53125 30.171875 
L 67.4375 72.40625 
L 80.421875 72.40625 
z
" id="IPAexGothic-77"/>
       <path d="M 49.3125 0.984375 
L 41.75 0.984375 
Q 39.984375 4.734375 39.546875 8.6875 
L 39.203125 8.6875 
Q 33.546875 -0.390625 22.3125 -0.390625 
Q 14.59375 -0.390625 9.71875 4.5 
Q 5.421875 8.796875 5.421875 14.984375 
Q 5.421875 30.421875 32.03125 31.203125 
L 38.71875 31.390625 
L 38.71875 33.984375 
Q 38.71875 39.203125 35.75 42.1875 
Q 32.625 45.3125 27.734375 45.3125 
Q 19.34375 45.3125 15.140625 37.15625 
L 7.71875 40.578125 
Q 14.65625 52 27.9375 52 
Q 37.109375 52 42.046875 46.875 
Q 46.625 42.28125 46.625 33.890625 
L 46.625 15.578125 
Q 46.625 6.25 49.3125 0.984375 
z
M 38.921875 25.390625 
L 33.453125 25.296875 
Q 14.109375 24.859375 14.109375 14.890625 
Q 14.109375 11.375 16.40625 9.078125 
Q 19.234375 6.296875 23.828125 6.296875 
Q 30.21875 6.296875 34.90625 10.984375 
Q 38.921875 15.140625 38.921875 21 
z
" id="IPAexGothic-97"/>
       <path d="M 36.078125 51.8125 
L 34.578125 43.265625 
Q 32.90625 43.609375 31.59375 43.609375 
Q 25.828125 43.609375 22.078125 38.1875 
Q 17.390625 31.34375 17.390625 26.171875 
L 17.390625 0.984375 
L 8.796875 0.984375 
L 8.796875 50.78125 
L 16.890625 50.78125 
L 16.5 35.984375 
L 16.703125 35.984375 
Q 22.21875 52.203125 32.765625 52.203125 
Q 34.46875 52.203125 36.078125 51.8125 
z
" id="IPAexGothic-114"/>
      </defs>
      <g transform="translate(307.513894 287.802625)scale(0.1 -0.1)">
       <use xlink:href="#IPAexGothic-77"/>
       <use x="90.185547" xlink:href="#IPAexGothic-97"/>
       <use x="145.166016" xlink:href="#IPAexGothic-114"/>
      </g>
     </g>
    </g>
    <g id="xtick_7">
     <g id="line2d_7">
      <g>
       <use style="stroke:#000000;stroke-width:0.8;" x="361.183697" xlink:href="#mc5892f4f97" y="273.312"/>
      </g>
     </g>
     <g id="text_7">
      <!-- 08 -->
      <g transform="translate(354.885259 287.802625)scale(0.1 -0.1)">
       <use xlink:href="#IPAexGothic-48"/>
       <use x="62.988281" xlink:href="#IPAexGothic-56"/>
      </g>
     </g>
    </g>
    <g id="text_8">
     <!-- 2020-Mar -->
     <defs>
      <path d="M 30.765625 26.609375 
L 4.984375 26.609375 
L 4.984375 34.421875 
L 30.765625 34.421875 
z
" id="IPAexGothic-45"/>
     </defs>
     <g transform="translate(349.521563 300.19325)scale(0.1 -0.1)">
      <use xlink:href="#IPAexGothic-50"/>
      <use x="62.988281" xlink:href="#IPAexGothic-48"/>
      <use x="125.976562" xlink:href="#IPAexGothic-50"/>
      <use x="188.964844" xlink:href="#IPAexGothic-48"/>
      <use x="251.953125" xlink:href="#IPAexGothic-45"/>
      <use x="287.744141" xlink:href="#IPAexGothic-77"/>
      <use x="377.929688" xlink:href="#IPAexGothic-97"/>
      <use x="432.910156" xlink:href="#IPAexGothic-114"/>
     </g>
    </g>
   </g>
   <g id="matplotlib.axis_2">
    <g id="ytick_1">
     <g id="line2d_8">
      <defs>
       <path d="M 0 0 
L -3.5 0 
" id="m4eb490ae5a" style="stroke:#000000;stroke-width:0.8;"/>
      </defs>
      <g>
       <use style="stroke:#000000;stroke-width:0.8;" x="39.39375" xlink:href="#m4eb490ae5a" y="273.312"/>
      </g>
     </g>
     <g id="text_9">
      <!-- 0 -->
      <g transform="translate(26.095313 277.057312)scale(0.1 -0.1)">
       <use xlink:href="#IPAexGothic-48"/>
      </g>
     </g>
    </g>
    <g id="ytick_2">
     <g id="line2d_9">
      <g>
       <use style="stroke:#000000;stroke-width:0.8;" x="39.39375" xlink:href="#m4eb490ae5a" y="218.502311"/>
      </g>
     </g>
     <g id="text_10">
      <!-- 1000 -->
      <g transform="translate(7.2 222.247624)scale(0.1 -0.1)">
       <use xlink:href="#IPAexGothic-49"/>
       <use x="62.988281" xlink:href="#IPAexGothic-48"/>
       <use x="125.976562" xlink:href="#IPAexGothic-48"/>
       <use x="188.964844" xlink:href="#IPAexGothic-48"/>
      </g>
     </g>
    </g>
    <g id="ytick_3">
     <g id="line2d_10">
      <g>
       <use style="stroke:#000000;stroke-width:0.8;" x="39.39375" xlink:href="#m4eb490ae5a" y="163.692623"/>
      </g>
     </g>
     <g id="text_11">
      <!-- 2000 -->
      <g transform="translate(7.2 167.437935)scale(0.1 -0.1)">
       <use xlink:href="#IPAexGothic-50"/>
       <use x="62.988281" xlink:href="#IPAexGothic-48"/>
       <use x="125.976562" xlink:href="#IPAexGothic-48"/>
       <use x="188.964844" xlink:href="#IPAexGothic-48"/>
      </g>
     </g>
    </g>
    <g id="ytick_4">
     <g id="line2d_11">
      <g>
       <use style="stroke:#000000;stroke-width:0.8;" x="39.39375" xlink:href="#m4eb490ae5a" y="108.882934"/>
      </g>
     </g>
     <g id="text_12">
      <!-- 3000 -->
      <defs>
       <path d="M 37.203125 37.796875 
Q 54.78125 34.625 54.78125 19.96875 
Q 54.78125 11.1875 48.875 5.5625 
Q 42.328125 -0.484375 30.375 -0.484375 
Q 12.453125 -0.484375 4.5 13.765625 
L 11.8125 17.671875 
Q 17.328125 6.890625 30.28125 6.890625 
Q 37.890625 6.890625 42.09375 10.796875 
Q 46.09375 14.5 46.09375 20.171875 
Q 46.09375 26.859375 40.09375 30.90625 
Q 34.625 34.578125 25.6875 34.578125 
L 21.296875 34.578125 
L 21.296875 41.703125 
L 25.875 41.703125 
Q 34.859375 41.703125 39.59375 45.125 
Q 44.671875 48.734375 44.671875 54.828125 
Q 44.671875 61.46875 38.96875 64.65625 
Q 35.296875 66.84375 30.171875 66.84375 
Q 19.34375 66.84375 14.109375 55.90625 
L 6.78125 59.421875 
Q 14.015625 73.828125 30.28125 73.828125 
Q 40.578125 73.828125 46.96875 68.65625 
Q 53.375 63.578125 53.375 55.21875 
Q 53.375 47.3125 47.171875 42.28125 
Q 43.171875 39.0625 37.203125 38.1875 
z
" id="IPAexGothic-51"/>
      </defs>
      <g transform="translate(7.2 112.628247)scale(0.1 -0.1)">
       <use xlink:href="#IPAexGothic-51"/>
       <use x="62.988281" xlink:href="#IPAexGothic-48"/>
       <use x="125.976562" xlink:href="#IPAexGothic-48"/>
       <use x="188.964844" xlink:href="#IPAexGothic-48"/>
      </g>
     </g>
    </g>
    <g id="ytick_5">
     <g id="line2d_12">
      <g>
       <use style="stroke:#000000;stroke-width:0.8;" x="39.39375" xlink:href="#m4eb490ae5a" y="54.073246"/>
      </g>
     </g>
     <g id="text_13">
      <!-- 4000 -->
      <defs>
       <path d="M 59.578125 18.109375 
L 47.796875 18.109375 
L 47.796875 0.984375 
L 39.796875 0.984375 
L 39.796875 18.109375 
L 3.078125 18.109375 
L 3.078125 26.125 
L 38.375 73.09375 
L 47.796875 73.09375 
L 47.796875 25.53125 
L 59.578125 25.53125 
z
M 40.28125 64.203125 
L 39.984375 64.203125 
Q 35.59375 57.125 31.296875 51.3125 
L 11.859375 25.53125 
L 39.796875 25.53125 
L 39.796875 49.125 
Q 39.796875 54.390625 40.28125 64.203125 
z
" id="IPAexGothic-52"/>
      </defs>
      <g transform="translate(7.2 57.818558)scale(0.1 -0.1)">
       <use xlink:href="#IPAexGothic-52"/>
       <use x="62.988281" xlink:href="#IPAexGothic-48"/>
       <use x="125.976562" xlink:href="#IPAexGothic-48"/>
       <use x="188.964844" xlink:href="#IPAexGothic-48"/>
      </g>
     </g>
    </g>
   </g>
   <g id="patch_156">
    <path d="M 39.39375 273.312 
L 39.39375 7.2 
" style="fill:none;stroke:#000000;stroke-linecap:square;stroke-linejoin:miter;stroke-width:0.8;"/>
   </g>
   <g id="patch_157">
    <path d="M 396.51375 273.312 
L 396.51375 7.2 
" style="fill:none;stroke:#000000;stroke-linecap:square;stroke-linejoin:miter;stroke-width:0.8;"/>
   </g>
   <g id="patch_158">
    <path d="M 39.39375 273.312 
L 396.51375 273.312 
" style="fill:none;stroke:#000000;stroke-linecap:square;stroke-linejoin:miter;stroke-width:0.8;"/>
   </g>
   <g id="patch_159">
    <path d="M 39.39375 7.2 
L 396.51375 7.2 
" style="fill:none;stroke:#000000;stroke-linecap:square;stroke-linejoin:miter;stroke-width:0.8;"/>
   </g>
   <g id="legend_1">
    <g id="patch_160">
     <path d="M 189.24175 58.371875 
L 304.087063 58.371875 
Q 306.087063 58.371875 306.087063 56.371875 
L 306.087063 14.2 
Q 306.087063 12.2 304.087063 12.2 
L 189.24175 12.2 
Q 187.24175 12.2 187.24175 14.2 
L 187.24175 56.371875 
Q 187.24175 58.371875 189.24175 58.371875 
z
" style="fill:#ffffff;opacity:0.8;stroke:#cccccc;stroke-linejoin:miter;"/>
    </g>
    <g id="patch_161">
     <path d="M 191.24175 23.690625 
L 211.24175 23.690625 
L 211.24175 16.690625 
L 191.24175 16.690625 
z
" style="fill:#ffbb78;stroke:#ffffff;stroke-linejoin:miter;"/>
    </g>
    <g id="text_14">
     <!-- Global Confirmed -->
     <defs>
      <path d="M 68.796875 12.203125 
Q 65.1875 7.71875 58.296875 3.90625 
Q 50.140625 -0.484375 40.484375 -0.484375 
Q 25.09375 -0.484375 15.4375 9.8125 
Q 5.90625 19.921875 5.90625 36.328125 
Q 5.90625 53.21875 15.828125 63.71875 
Q 25.296875 73.828125 39.59375 73.828125 
Q 59.375 73.828125 67.578125 56.6875 
L 59.625 52.984375 
Q 53.46875 66.21875 39.703125 66.21875 
Q 29.546875 66.21875 22.703125 58.5 
Q 15.53125 50.25 15.53125 36.375 
Q 15.53125 23.921875 21.828125 15.96875 
Q 28.8125 7.171875 41.015625 7.171875 
Q 54.046875 7.171875 60.59375 15.09375 
L 60.59375 29 
L 44.671875 29 
L 44.671875 35.796875 
L 68.796875 35.796875 
z
" id="IPAexGothic-71"/>
      <path d="M 17.671875 0.984375 
L 9.078125 0.984375 
L 9.078125 74.90625 
L 17.671875 74.90625 
z
" id="IPAexGothic-108"/>
      <path d="M 29.984375 52.203125 
Q 40.53125 52.203125 47.75 45.125 
Q 55.171875 37.703125 55.171875 25.59375 
Q 55.171875 13.875 47.90625 6.59375 
Q 40.765625 -0.484375 29.984375 -0.484375 
Q 19.1875 -0.484375 12.203125 6.5 
Q 4.890625 13.765625 4.890625 25.875 
Q 4.890625 37.703125 12.3125 45.125 
Q 19.390625 52.203125 29.984375 52.203125 
z
M 29.984375 45.609375 
Q 23.734375 45.609375 19.390625 41.109375 
Q 13.875 35.59375 13.875 25.78125 
Q 13.875 16.109375 19.28125 10.6875 
Q 23.6875 6.296875 29.984375 6.296875 
Q 36.421875 6.296875 40.765625 10.796875 
Q 46.1875 16.21875 46.1875 26.125 
Q 46.1875 35.453125 40.671875 41.109375 
Q 36.1875 45.609375 29.984375 45.609375 
z
" id="IPAexGothic-111"/>
      <path id="IPAexGothic-32"/>
      <path d="M 68.015625 17 
Q 65.328125 10.84375 60.296875 6.6875 
Q 51.765625 -0.484375 39.984375 -0.484375 
Q 24.8125 -0.484375 14.984375 10.203125 
Q 5.90625 20.21875 5.90625 36.421875 
Q 5.90625 53.21875 15.828125 63.71875 
Q 25.296875 73.828125 39.59375 73.828125 
Q 59.578125 73.828125 67.53125 56.6875 
L 59.515625 52.984375 
Q 53.515625 66.21875 39.703125 66.21875 
Q 29.546875 66.21875 22.703125 58.5 
Q 15.53125 50.25 15.53125 36.28125 
Q 15.53125 24.21875 21.625 16.5 
Q 28.765625 7.375 40.046875 7.375 
Q 54 7.375 60.59375 20.609375 
z
" id="IPAexGothic-67"/>
      <path d="M 52 0.984375 
L 43.40625 0.984375 
L 43.40625 31.890625 
Q 43.40625 44.578125 32.90625 44.578125 
Q 22.3125 44.578125 17.390625 31.890625 
L 17.390625 0.984375 
L 8.796875 0.984375 
L 8.796875 50.78125 
L 16.796875 50.78125 
L 16.796875 41.796875 
Q 23.828125 51.8125 34.71875 51.8125 
Q 52 51.8125 52 32.375 
z
" id="IPAexGothic-110"/>
      <path d="M 38.375 72.21875 
L 34.8125 66.3125 
Q 31.109375 69.09375 27.203125 69.09375 
Q 18.5 69.09375 18.5 57.375 
L 18.5 50.78125 
L 32.078125 50.78125 
L 32.078125 44.671875 
L 18.5 44.671875 
L 18.5 0.984375 
L 10.015625 0.984375 
L 10.015625 44.671875 
L 1.90625 44.671875 
L 1.90625 50.78125 
L 10.015625 50.78125 
L 10.015625 57.171875 
Q 10.015625 65.4375 13.921875 70.0625 
Q 18.75 75.6875 26.703125 75.6875 
Q 33.0625 75.6875 38.375 72.21875 
z
" id="IPAexGothic-102"/>
      <path d="M 18.40625 61.375 
L 8.59375 61.375 
L 8.59375 71.390625 
L 18.40625 71.390625 
z
M 17.78125 0.984375 
L 9.1875 0.984375 
L 9.1875 50.78125 
L 17.78125 50.78125 
z
" id="IPAexGothic-105"/>
      <path d="M 78.46875 0.984375 
L 69.875 0.984375 
L 69.875 32.171875 
Q 69.875 44.828125 60.109375 44.828125 
Q 55.46875 44.828125 51.609375 40.53125 
Q 48.875 37.453125 47.796875 32.859375 
L 47.796875 0.984375 
L 39.203125 0.984375 
L 39.203125 32.28125 
Q 39.203125 44.828125 29.984375 44.828125 
Q 25.09375 44.828125 21.390625 40.53125 
Q 17.390625 36.03125 17.390625 31.890625 
L 17.390625 0.984375 
L 8.796875 0.984375 
L 8.796875 50.78125 
L 16.796875 50.78125 
L 16.796875 42.1875 
Q 21.734375 51.8125 31.6875 51.8125 
Q 42.578125 51.8125 46.1875 41.359375 
Q 51.609375 51.8125 61.765625 51.8125 
Q 69.96875 51.8125 74.5625 46 
Q 78.46875 41.21875 78.46875 32.375 
z
" id="IPAexGothic-109"/>
      <path d="M 52.984375 0.984375 
L 45.171875 0.984375 
L 45.171875 9.671875 
Q 38.140625 -0.484375 27.390625 -0.484375 
Q 18.453125 -0.484375 12.3125 5.8125 
Q 4.890625 13.1875 4.890625 25.984375 
Q 4.890625 38.53125 12.0625 45.90625 
Q 18.265625 52.203125 27.390625 52.203125 
Q 37.25 52.203125 44.484375 43.890625 
L 44.484375 74.90625 
L 52.984375 74.90625 
z
M 44.484375 20.359375 
L 44.484375 32.765625 
Q 44.484375 37.703125 38.375 42.28125 
Q 34.078125 45.40625 28.953125 45.40625 
Q 23.1875 45.40625 19.1875 41.40625 
Q 13.875 36.078125 13.875 26.21875 
Q 13.875 17.328125 18.265625 11.71875 
Q 22.515625 6.390625 28.859375 6.390625 
Q 36.28125 6.390625 41.5 13.671875 
Q 44.484375 17.71875 44.484375 20.359375 
z
" id="IPAexGothic-100"/>
     </defs>
     <g transform="translate(219.24175 23.690625)scale(0.1 -0.1)">
      <use xlink:href="#IPAexGothic-71"/>
      <use x="75.292969" xlink:href="#IPAexGothic-108"/>
      <use x="102.294922" xlink:href="#IPAexGothic-111"/>
      <use x="162.695312" xlink:href="#IPAexGothic-98"/>
      <use x="225.097656" xlink:href="#IPAexGothic-97"/>
      <use x="280.078125" xlink:href="#IPAexGothic-108"/>
      <use x="307.080078" xlink:href="#IPAexGothic-32"/>
      <use x="334.082031" xlink:href="#IPAexGothic-67"/>
      <use x="406.591797" xlink:href="#IPAexGothic-111"/>
      <use x="466.992188" xlink:href="#IPAexGothic-110"/>
      <use x="527.392578" xlink:href="#IPAexGothic-102"/>
      <use x="558.007812" xlink:href="#IPAexGothic-105"/>
      <use x="585.009766" xlink:href="#IPAexGothic-114"/>
      <use x="622.021484" xlink:href="#IPAexGothic-109"/>
      <use x="709.130859" xlink:href="#IPAexGothic-101"/>
      <use x="766.015625" xlink:href="#IPAexGothic-100"/>
     </g>
    </g>
    <g id="patch_162">
     <path d="M 191.24175 38.08125 
L 211.24175 38.08125 
L 211.24175 31.08125 
L 191.24175 31.08125 
z
" style="fill:#ff7f0e;stroke:#ffffff;stroke-linejoin:miter;"/>
    </g>
    <g id="text_15">
     <!-- China Confirmed -->
     <defs>
      <path d="M 52.296875 0.984375 
L 43.703125 0.984375 
L 43.703125 31.890625 
Q 43.703125 44.578125 33.296875 44.578125 
Q 22.609375 44.578125 17.671875 31.890625 
L 17.671875 0.984375 
L 9.078125 0.984375 
L 9.078125 74.90625 
L 17.671875 74.90625 
L 17.671875 42.28125 
Q 24.46875 51.8125 35.109375 51.8125 
Q 52.296875 51.8125 52.296875 32.375 
z
" id="IPAexGothic-104"/>
     </defs>
     <g transform="translate(219.24175 38.08125)scale(0.1 -0.1)">
      <use xlink:href="#IPAexGothic-67"/>
      <use x="72.509766" xlink:href="#IPAexGothic-104"/>
      <use x="133.203125" xlink:href="#IPAexGothic-105"/>
      <use x="160.205078" xlink:href="#IPAexGothic-110"/>
      <use x="220.605469" xlink:href="#IPAexGothic-97"/>
      <use x="275.585938" xlink:href="#IPAexGothic-32"/>
      <use x="302.587891" xlink:href="#IPAexGothic-67"/>
      <use x="375.097656" xlink:href="#IPAexGothic-111"/>
      <use x="435.498047" xlink:href="#IPAexGothic-110"/>
      <use x="495.898438" xlink:href="#IPAexGothic-102"/>
      <use x="526.513672" xlink:href="#IPAexGothic-105"/>
      <use x="553.515625" xlink:href="#IPAexGothic-114"/>
      <use x="590.527344" xlink:href="#IPAexGothic-109"/>
      <use x="677.636719" xlink:href="#IPAexGothic-101"/>
      <use x="734.521484" xlink:href="#IPAexGothic-100"/>
     </g>
    </g>
    <g id="patch_163">
     <path d="M 191.24175 52.471875 
L 211.24175 52.471875 
L 211.24175 45.471875 
L 191.24175 45.471875 
z
" style="fill:#d62728;stroke:#ffffff;stroke-linejoin:miter;"/>
    </g>
    <g id="text_16">
     <!-- Global Deaths -->
     <defs>
      <path d="M 9.515625 72.40625 
L 31 72.40625 
Q 49.359375 72.40625 59.234375 63.28125 
Q 69.625 53.8125 69.625 36.8125 
Q 69.625 16.359375 54.9375 6.890625 
Q 45.703125 0.984375 30.328125 0.984375 
L 9.515625 0.984375 
z
M 18.3125 8.6875 
L 29.59375 8.6875 
Q 60.203125 8.6875 60.203125 36.8125 
Q 60.203125 64.796875 30.125 64.796875 
L 18.3125 64.796875 
z
" id="IPAexGothic-68"/>
      <path d="M 33.203125 3.765625 
Q 27.640625 -0.09375 21.828125 -0.09375 
Q 10.203125 -0.09375 10.203125 12.984375 
L 10.203125 44.671875 
L 3.421875 44.671875 
L 3.421875 50.78125 
L 10.203125 50.78125 
L 10.203125 61.96875 
L 18.40625 66.0625 
L 18.40625 50.78125 
L 32.234375 50.78125 
L 32.234375 44.671875 
L 18.40625 44.671875 
L 18.40625 14.15625 
Q 18.40625 6.5 23.640625 6.5 
Q 27.15625 6.5 30.328125 9.1875 
z
" id="IPAexGothic-116"/>
      <path d="M 34.90625 39.796875 
Q 30.28125 45.796875 23.1875 45.796875 
Q 13.921875 45.796875 13.921875 38.671875 
Q 13.921875 33.640625 23.921875 30.375 
L 27.203125 29.296875 
Q 41.40625 24.65625 41.40625 13.96875 
Q 41.40625 6.78125 35.5 2.6875 
Q 30.8125 -0.484375 23.390625 -0.484375 
Q 11.96875 -0.484375 4 7.859375 
L 9.421875 12.796875 
Q 15.578125 6.203125 23.6875 6.203125 
Q 33.296875 6.203125 33.296875 13.671875 
Q 33.296875 19.34375 22.703125 23.09375 
L 19.28125 24.265625 
Q 5.90625 28.953125 5.90625 37.984375 
Q 5.90625 43.703125 9.8125 47.609375 
Q 14.5 52.296875 22.703125 52.296875 
Q 33.6875 52.296875 40.71875 44.671875 
z
" id="IPAexGothic-115"/>
     </defs>
     <g transform="translate(219.24175 52.471875)scale(0.1 -0.1)">
      <use xlink:href="#IPAexGothic-71"/>
      <use x="75.292969" xlink:href="#IPAexGothic-108"/>
      <use x="102.294922" xlink:href="#IPAexGothic-111"/>
      <use x="162.695312" xlink:href="#IPAexGothic-98"/>
      <use x="225.097656" xlink:href="#IPAexGothic-97"/>
      <use x="280.078125" xlink:href="#IPAexGothic-108"/>
      <use x="307.080078" xlink:href="#IPAexGothic-32"/>
      <use x="334.082031" xlink:href="#IPAexGothic-68"/>
      <use x="409.765625" xlink:href="#IPAexGothic-101"/>
      <use x="466.650391" xlink:href="#IPAexGothic-97"/>
      <use x="521.630859" xlink:href="#IPAexGothic-116"/>
      <use x="556.25" xlink:href="#IPAexGothic-104"/>
      <use x="616.943359" xlink:href="#IPAexGothic-115"/>
     </g>
    </g>
   </g>
  </g>
 </g>
 <defs>
  <clipPath id="pb2d978dd87">
   <rect height="266.112" width="357.12" x="39.39375" y="7.2"/>
  </clipPath>
 </defs>
</svg>
