<?xml version="1.0" encoding="utf-8" standalone="no"?>
<!DOCTYPE svg PUBLIC "-//W3C//DTD SVG 1.1//EN"
  "http://www.w3.org/Graphics/SVG/1.1/DTD/svg11.dtd">
<!-- Created with matplotlib (https://matplotlib.org/) -->
<svg height="320.239875pt" version="1.1" viewBox="0 0 397.415313 320.239875" width="397.415313pt" xmlns="http://www.w3.org/2000/svg" xmlns:xlink="http://www.w3.org/1999/xlink">
 <metadata>
  <rdf:RDF xmlns:cc="http://creativecommons.org/ns#" xmlns:dc="http://purl.org/dc/elements/1.1/" xmlns:rdf="http://www.w3.org/1999/02/22-rdf-syntax-ns#">
   <cc:Work>
    <dc:type rdf:resource="http://purl.org/dc/dcmitype/StillImage"/>
    <dc:date>2021-02-02T20:01:06.898330</dc:date>
    <dc:format>image/svg+xml</dc:format>
    <dc:creator>
     <cc:Agent>
      <dc:title>Matplotlib v3.3.3, https://matplotlib.org/</dc:title>
     </cc:Agent>
    </dc:creator>
   </cc:Work>
  </rdf:RDF>
 </metadata>
 <defs>
  <style type="text/css">*{stroke-linecap:butt;stroke-linejoin:round;}</style>
 </defs>
 <g id="figure_1">
  <g id="patch_1">
   <path d="M 0 320.239875 
L 397.415313 320.239875 
L 397.415313 0 
L 0 0 
z
" style="fill:#ffffff;"/>
  </g>
  <g id="axes_1">
   <g id="patch_2">
    <path d="M 33.095313 284.258625 
L 390.215312 284.258625 
L 390.215312 18.146625 
L 33.095313 18.146625 
z
" style="fill:#ffffff;"/>
   </g>
   <g id="patch_3">
    <path clip-path="url(#pd2478ff9d8)" d="M 0 0 
z
" style="fill:#d62728;"/>
   </g>
   <g id="patch_4">
    <path clip-path="url(#pd2478ff9d8)" d="M 49.32804 284.258625 
L 50.247741 284.258625 
L 50.247741 284.258625 
L 49.32804 284.258625 
z
" style="fill:#d62728;"/>
   </g>
   <g id="patch_5">
    <path clip-path="url(#pd2478ff9d8)" d="M 50.247741 284.258625 
L 51.167442 284.258625 
L 51.167442 284.258625 
L 50.247741 284.258625 
z
" style="fill:#d62728;"/>
   </g>
   <g id="patch_6">
    <path clip-path="url(#pd2478ff9d8)" d="M 51.167442 284.258625 
L 52.087144 284.258625 
L 52.087144 284.258625 
L 51.167442 284.258625 
z
" style="fill:#d62728;"/>
   </g>
   <g id="patch_7">
    <path clip-path="url(#pd2478ff9d8)" d="M 52.087144 284.258625 
L 53.006845 284.258625 
L 53.006845 284.258625 
L 52.087144 284.258625 
z
" style="fill:#d62728;"/>
   </g>
   <g id="patch_8">
    <path clip-path="url(#pd2478ff9d8)" d="M 53.006845 284.258625 
L 53.926546 284.258625 
L 53.926546 284.258625 
L 53.006845 284.258625 
z
" style="fill:#d62728;"/>
   </g>
   <g id="patch_9">
    <path clip-path="url(#pd2478ff9d8)" d="M 53.926546 284.258625 
L 54.846247 284.258625 
L 54.846247 284.258625 
L 53.926546 284.258625 
z
" style="fill:#d62728;"/>
   </g>
   <g id="patch_10">
    <path clip-path="url(#pd2478ff9d8)" d="M 54.846247 284.258625 
L 55.765949 284.258625 
L 55.765949 284.258625 
L 54.846247 284.258625 
z
" style="fill:#d62728;"/>
   </g>
   <g id="patch_11">
    <path clip-path="url(#pd2478ff9d8)" d="M 55.765949 284.258625 
L 56.68565 284.258625 
L 56.68565 284.258625 
L 55.765949 284.258625 
z
" style="fill:#d62728;"/>
   </g>
   <g id="patch_12">
    <path clip-path="url(#pd2478ff9d8)" d="M 56.68565 284.258625 
L 57.605351 284.258625 
L 57.605351 284.258625 
L 56.68565 284.258625 
z
" style="fill:#d62728;"/>
   </g>
   <g id="patch_13">
    <path clip-path="url(#pd2478ff9d8)" d="M 57.605351 284.258625 
L 58.525052 284.258625 
L 58.525052 284.258625 
L 57.605351 284.258625 
z
" style="fill:#d62728;"/>
   </g>
   <g id="patch_14">
    <path clip-path="url(#pd2478ff9d8)" d="M 58.525052 284.258625 
L 59.444754 284.258625 
L 59.444754 284.258625 
L 58.525052 284.258625 
z
" style="fill:#d62728;"/>
   </g>
   <g id="patch_15">
    <path clip-path="url(#pd2478ff9d8)" d="M 59.444754 284.258625 
L 60.364455 284.258625 
L 60.364455 284.258625 
L 59.444754 284.258625 
z
" style="fill:#d62728;"/>
   </g>
   <g id="patch_16">
    <path clip-path="url(#pd2478ff9d8)" d="M 60.364455 284.258625 
L 61.284156 284.258625 
L 61.284156 279.60835 
L 60.364455 279.60835 
z
" style="fill:#d62728;"/>
   </g>
   <g id="patch_17">
    <path clip-path="url(#pd2478ff9d8)" d="M 61.284156 284.258625 
L 62.203857 284.258625 
L 62.203857 281.933487 
L 61.284156 281.933487 
z
" style="fill:#d62728;"/>
   </g>
   <g id="patch_18">
    <path clip-path="url(#pd2478ff9d8)" d="M 62.203857 284.258625 
L 63.123559 284.258625 
L 63.123559 281.933487 
L 62.203857 281.933487 
z
" style="fill:#d62728;"/>
   </g>
   <g id="patch_19">
    <path clip-path="url(#pd2478ff9d8)" d="M 63.123559 284.258625 
L 64.04326 284.258625 
L 64.04326 284.258625 
L 63.123559 284.258625 
z
" style="fill:#d62728;"/>
   </g>
   <g id="patch_20">
    <path clip-path="url(#pd2478ff9d8)" d="M 64.04326 284.258625 
L 64.962961 284.258625 
L 64.962961 281.933487 
L 64.04326 281.933487 
z
" style="fill:#d62728;"/>
   </g>
   <g id="patch_21">
    <path clip-path="url(#pd2478ff9d8)" d="M 64.962961 284.258625 
L 65.882662 284.258625 
L 65.882662 284.258625 
L 64.962961 284.258625 
z
" style="fill:#d62728;"/>
   </g>
   <g id="patch_22">
    <path clip-path="url(#pd2478ff9d8)" d="M 65.882662 284.258625 
L 66.802364 284.258625 
L 66.802364 284.258625 
L 65.882662 284.258625 
z
" style="fill:#d62728;"/>
   </g>
   <g id="patch_23">
    <path clip-path="url(#pd2478ff9d8)" d="M 66.802364 284.258625 
L 67.722065 284.258625 
L 67.722065 284.258625 
L 66.802364 284.258625 
z
" style="fill:#d62728;"/>
   </g>
   <g id="patch_24">
    <path clip-path="url(#pd2478ff9d8)" d="M 67.722065 284.258625 
L 68.641766 284.258625 
L 68.641766 284.258625 
L 67.722065 284.258625 
z
" style="fill:#d62728;"/>
   </g>
   <g id="patch_25">
    <path clip-path="url(#pd2478ff9d8)" d="M 68.641766 284.258625 
L 69.561468 284.258625 
L 69.561468 284.258625 
L 68.641766 284.258625 
z
" style="fill:#d62728;"/>
   </g>
   <g id="patch_26">
    <path clip-path="url(#pd2478ff9d8)" d="M 69.561468 284.258625 
L 70.481169 284.258625 
L 70.481169 284.258625 
L 69.561468 284.258625 
z
" style="fill:#d62728;"/>
   </g>
   <g id="patch_27">
    <path clip-path="url(#pd2478ff9d8)" d="M 70.481169 284.258625 
L 71.40087 284.258625 
L 71.40087 281.933487 
L 70.481169 281.933487 
z
" style="fill:#d62728;"/>
   </g>
   <g id="patch_28">
    <path clip-path="url(#pd2478ff9d8)" d="M 71.40087 284.258625 
L 72.320571 284.258625 
L 72.320571 279.60835 
L 71.40087 279.60835 
z
" style="fill:#d62728;"/>
   </g>
   <g id="patch_29">
    <path clip-path="url(#pd2478ff9d8)" d="M 72.320571 284.258625 
L 73.240273 284.258625 
L 73.240273 277.283212 
L 72.320571 277.283212 
z
" style="fill:#d62728;"/>
   </g>
   <g id="patch_30">
    <path clip-path="url(#pd2478ff9d8)" d="M 73.240273 284.258625 
L 74.159974 284.258625 
L 74.159974 277.283212 
L 73.240273 277.283212 
z
" style="fill:#d62728;"/>
   </g>
   <g id="patch_31">
    <path clip-path="url(#pd2478ff9d8)" d="M 74.159974 284.258625 
L 75.079675 284.258625 
L 75.079675 274.958075 
L 74.159974 274.958075 
z
" style="fill:#d62728;"/>
   </g>
   <g id="patch_32">
    <path clip-path="url(#pd2478ff9d8)" d="M 75.079675 284.258625 
L 75.999376 284.258625 
L 75.999376 279.60835 
L 75.079675 279.60835 
z
" style="fill:#d62728;"/>
   </g>
   <g id="patch_33">
    <path clip-path="url(#pd2478ff9d8)" d="M 75.999376 284.258625 
L 76.919078 284.258625 
L 76.919078 281.933487 
L 75.999376 281.933487 
z
" style="fill:#d62728;"/>
   </g>
   <g id="patch_34">
    <path clip-path="url(#pd2478ff9d8)" d="M 76.919078 284.258625 
L 77.838779 284.258625 
L 77.838779 279.60835 
L 76.919078 279.60835 
z
" style="fill:#d62728;"/>
   </g>
   <g id="patch_35">
    <path clip-path="url(#pd2478ff9d8)" d="M 77.838779 284.258625 
L 78.75848 284.258625 
L 78.75848 274.958075 
L 77.838779 274.958075 
z
" style="fill:#d62728;"/>
   </g>
   <g id="patch_36">
    <path clip-path="url(#pd2478ff9d8)" d="M 78.75848 284.258625 
L 79.678181 284.258625 
L 79.678181 281.933487 
L 78.75848 281.933487 
z
" style="fill:#d62728;"/>
   </g>
   <g id="patch_37">
    <path clip-path="url(#pd2478ff9d8)" d="M 79.678181 284.258625 
L 80.597883 284.258625 
L 80.597883 279.60835 
L 79.678181 279.60835 
z
" style="fill:#d62728;"/>
   </g>
   <g id="patch_38">
    <path clip-path="url(#pd2478ff9d8)" d="M 80.597883 284.258625 
L 81.517584 284.258625 
L 81.517584 279.60835 
L 80.597883 279.60835 
z
" style="fill:#d62728;"/>
   </g>
   <g id="patch_39">
    <path clip-path="url(#pd2478ff9d8)" d="M 81.517584 284.258625 
L 82.437285 284.258625 
L 82.437285 279.60835 
L 81.517584 279.60835 
z
" style="fill:#d62728;"/>
   </g>
   <g id="patch_40">
    <path clip-path="url(#pd2478ff9d8)" d="M 82.437285 284.258625 
L 83.356986 284.258625 
L 83.356986 281.933487 
L 82.437285 281.933487 
z
" style="fill:#d62728;"/>
   </g>
   <g id="patch_41">
    <path clip-path="url(#pd2478ff9d8)" d="M 83.356986 284.258625 
L 84.276688 284.258625 
L 84.276688 272.632937 
L 83.356986 272.632937 
z
" style="fill:#d62728;"/>
   </g>
   <g id="patch_42">
    <path clip-path="url(#pd2478ff9d8)" d="M 84.276688 284.258625 
L 85.196389 284.258625 
L 85.196389 281.933487 
L 84.276688 281.933487 
z
" style="fill:#d62728;"/>
   </g>
   <g id="patch_43">
    <path clip-path="url(#pd2478ff9d8)" d="M 85.196389 284.258625 
L 86.11609 284.258625 
L 86.11609 281.933487 
L 85.196389 281.933487 
z
" style="fill:#d62728;"/>
   </g>
   <g id="patch_44">
    <path clip-path="url(#pd2478ff9d8)" d="M 86.11609 284.258625 
L 87.035792 284.258625 
L 87.035792 279.60835 
L 86.11609 279.60835 
z
" style="fill:#d62728;"/>
   </g>
   <g id="patch_45">
    <path clip-path="url(#pd2478ff9d8)" d="M 87.035792 284.258625 
L 87.955493 284.258625 
L 87.955493 281.933487 
L 87.035792 281.933487 
z
" style="fill:#d62728;"/>
   </g>
   <g id="patch_46">
    <path clip-path="url(#pd2478ff9d8)" d="M 87.955493 284.258625 
L 88.875194 284.258625 
L 88.875194 277.283212 
L 87.955493 277.283212 
z
" style="fill:#d62728;"/>
   </g>
   <g id="patch_47">
    <path clip-path="url(#pd2478ff9d8)" d="M 88.875194 284.258625 
L 89.794895 284.258625 
L 89.794895 277.283212 
L 88.875194 277.283212 
z
" style="fill:#d62728;"/>
   </g>
   <g id="patch_48">
    <path clip-path="url(#pd2478ff9d8)" d="M 89.794895 284.258625 
L 90.714597 284.258625 
L 90.714597 279.60835 
L 89.794895 279.60835 
z
" style="fill:#d62728;"/>
   </g>
   <g id="patch_49">
    <path clip-path="url(#pd2478ff9d8)" d="M 90.714597 284.258625 
L 91.634298 284.258625 
L 91.634298 279.60835 
L 90.714597 279.60835 
z
" style="fill:#d62728;"/>
   </g>
   <g id="patch_50">
    <path clip-path="url(#pd2478ff9d8)" d="M 91.634298 284.258625 
L 92.553999 284.258625 
L 92.553999 281.933487 
L 91.634298 281.933487 
z
" style="fill:#d62728;"/>
   </g>
   <g id="patch_51">
    <path clip-path="url(#pd2478ff9d8)" d="M 92.553999 284.258625 
L 93.4737 284.258625 
L 93.4737 277.283212 
L 92.553999 277.283212 
z
" style="fill:#d62728;"/>
   </g>
   <g id="patch_52">
    <path clip-path="url(#pd2478ff9d8)" d="M 93.4737 284.258625 
L 94.393402 284.258625 
L 94.393402 277.283212 
L 93.4737 277.283212 
z
" style="fill:#d62728;"/>
   </g>
   <g id="patch_53">
    <path clip-path="url(#pd2478ff9d8)" d="M 94.393402 284.258625 
L 95.313103 284.258625 
L 95.313103 270.307799 
L 94.393402 270.307799 
z
" style="fill:#d62728;"/>
   </g>
   <g id="patch_54">
    <path clip-path="url(#pd2478ff9d8)" d="M 95.313103 284.258625 
L 96.232804 284.258625 
L 96.232804 281.933487 
L 95.313103 281.933487 
z
" style="fill:#d62728;"/>
   </g>
   <g id="patch_55">
    <path clip-path="url(#pd2478ff9d8)" d="M 96.232804 284.258625 
L 97.152505 284.258625 
L 97.152505 277.283212 
L 96.232804 277.283212 
z
" style="fill:#d62728;"/>
   </g>
   <g id="patch_56">
    <path clip-path="url(#pd2478ff9d8)" d="M 97.152505 284.258625 
L 98.072207 284.258625 
L 98.072207 267.982662 
L 97.152505 267.982662 
z
" style="fill:#d62728;"/>
   </g>
   <g id="patch_57">
    <path clip-path="url(#pd2478ff9d8)" d="M 98.072207 284.258625 
L 98.991908 284.258625 
L 98.991908 281.933487 
L 98.072207 281.933487 
z
" style="fill:#d62728;"/>
   </g>
   <g id="patch_58">
    <path clip-path="url(#pd2478ff9d8)" d="M 98.991908 284.258625 
L 99.911609 284.258625 
L 99.911609 274.958075 
L 98.991908 274.958075 
z
" style="fill:#d62728;"/>
   </g>
   <g id="patch_59">
    <path clip-path="url(#pd2478ff9d8)" d="M 99.911609 284.258625 
L 100.83131 284.258625 
L 100.83131 277.283212 
L 99.911609 277.283212 
z
" style="fill:#d62728;"/>
   </g>
   <g id="patch_60">
    <path clip-path="url(#pd2478ff9d8)" d="M 100.83131 284.258625 
L 101.751012 284.258625 
L 101.751012 270.307799 
L 100.83131 270.307799 
z
" style="fill:#d62728;"/>
   </g>
   <g id="patch_61">
    <path clip-path="url(#pd2478ff9d8)" d="M 101.751012 284.258625 
L 102.670713 284.258625 
L 102.670713 274.958075 
L 101.751012 274.958075 
z
" style="fill:#d62728;"/>
   </g>
   <g id="patch_62">
    <path clip-path="url(#pd2478ff9d8)" d="M 102.670713 284.258625 
L 103.590414 284.258625 
L 103.590414 274.958075 
L 102.670713 274.958075 
z
" style="fill:#d62728;"/>
   </g>
   <g id="patch_63">
    <path clip-path="url(#pd2478ff9d8)" d="M 103.590414 284.258625 
L 104.510115 284.258625 
L 104.510115 267.982662 
L 103.590414 267.982662 
z
" style="fill:#d62728;"/>
   </g>
   <g id="patch_64">
    <path clip-path="url(#pd2478ff9d8)" d="M 104.510115 284.258625 
L 105.429817 284.258625 
L 105.429817 261.007249 
L 104.510115 261.007249 
z
" style="fill:#d62728;"/>
   </g>
   <g id="patch_65">
    <path clip-path="url(#pd2478ff9d8)" d="M 105.429817 284.258625 
L 106.349518 284.258625 
L 106.349518 244.731286 
L 105.429817 244.731286 
z
" style="fill:#d62728;"/>
   </g>
   <g id="patch_66">
    <path clip-path="url(#pd2478ff9d8)" d="M 106.349518 284.258625 
L 107.269219 284.258625 
L 107.269219 256.356974 
L 106.349518 256.356974 
z
" style="fill:#d62728;"/>
   </g>
   <g id="patch_67">
    <path clip-path="url(#pd2478ff9d8)" d="M 107.269219 284.258625 
L 108.188921 284.258625 
L 108.188921 270.307799 
L 107.269219 270.307799 
z
" style="fill:#d62728;"/>
   </g>
   <g id="patch_68">
    <path clip-path="url(#pd2478ff9d8)" d="M 108.188921 284.258625 
L 109.108622 284.258625 
L 109.108622 267.982662 
L 108.188921 267.982662 
z
" style="fill:#d62728;"/>
   </g>
   <g id="patch_69">
    <path clip-path="url(#pd2478ff9d8)" d="M 109.108622 284.258625 
L 110.028323 284.258625 
L 110.028323 261.007249 
L 109.108622 261.007249 
z
" style="fill:#d62728;"/>
   </g>
   <g id="patch_70">
    <path clip-path="url(#pd2478ff9d8)" d="M 110.028323 284.258625 
L 110.948024 284.258625 
L 110.948024 249.381561 
L 110.028323 249.381561 
z
" style="fill:#d62728;"/>
   </g>
   <g id="patch_71">
    <path clip-path="url(#pd2478ff9d8)" d="M 110.948024 284.258625 
L 111.867726 284.258625 
L 111.867726 72.671102 
L 110.948024 72.671102 
z
" style="fill:#d62728;"/>
   </g>
   <g id="patch_72">
    <path clip-path="url(#pd2478ff9d8)" d="M 111.867726 284.258625 
L 112.787427 284.258625 
L 112.787427 261.007249 
L 111.867726 261.007249 
z
" style="fill:#d62728;"/>
   </g>
   <g id="patch_73">
    <path clip-path="url(#pd2478ff9d8)" d="M 112.787427 284.258625 
L 113.707128 284.258625 
L 113.707128 214.504497 
L 112.787427 214.504497 
z
" style="fill:#d62728;"/>
   </g>
   <g id="patch_74">
    <path clip-path="url(#pd2478ff9d8)" d="M 113.707128 284.258625 
L 114.626829 284.258625 
L 114.626829 244.731286 
L 113.707128 244.731286 
z
" style="fill:#d62728;"/>
   </g>
   <g id="patch_75">
    <path clip-path="url(#pd2478ff9d8)" d="M 114.626829 284.258625 
L 115.546531 284.258625 
L 115.546531 251.706698 
L 114.626829 251.706698 
z
" style="fill:#d62728;"/>
   </g>
   <g id="patch_76">
    <path clip-path="url(#pd2478ff9d8)" d="M 115.546531 284.258625 
L 116.466232 284.258625 
L 116.466232 277.283212 
L 115.546531 277.283212 
z
" style="fill:#d62728;"/>
   </g>
   <g id="patch_77">
    <path clip-path="url(#pd2478ff9d8)" d="M 116.466232 284.258625 
L 117.385933 284.258625 
L 117.385933 226.130185 
L 116.466232 226.130185 
z
" style="fill:#d62728;"/>
   </g>
   <g id="patch_78">
    <path clip-path="url(#pd2478ff9d8)" d="M 117.385933 284.258625 
L 118.305634 284.258625 
L 118.305634 254.031836 
L 117.385933 254.031836 
z
" style="fill:#d62728;"/>
   </g>
   <g id="patch_79">
    <path clip-path="url(#pd2478ff9d8)" d="M 118.305634 284.258625 
L 119.225336 284.258625 
L 119.225336 223.805047 
L 118.305634 223.805047 
z
" style="fill:#d62728;"/>
   </g>
   <g id="patch_80">
    <path clip-path="url(#pd2478ff9d8)" d="M 119.225336 284.258625 
L 120.145037 284.258625 
L 120.145037 244.731286 
L 119.225336 244.731286 
z
" style="fill:#d62728;"/>
   </g>
   <g id="patch_81">
    <path clip-path="url(#pd2478ff9d8)" d="M 120.145037 284.258625 
L 121.064738 284.258625 
L 121.064738 223.805047 
L 120.145037 223.805047 
z
" style="fill:#d62728;"/>
   </g>
   <g id="patch_82">
    <path clip-path="url(#pd2478ff9d8)" d="M 121.064738 284.258625 
L 121.984439 284.258625 
L 121.984439 205.203946 
L 121.064738 205.203946 
z
" style="fill:#d62728;"/>
   </g>
   <g id="patch_83">
    <path clip-path="url(#pd2478ff9d8)" d="M 121.984439 284.258625 
L 122.904141 284.258625 
L 122.904141 242.406148 
L 121.984439 242.406148 
z
" style="fill:#d62728;"/>
   </g>
   <g id="patch_84">
    <path clip-path="url(#pd2478ff9d8)" d="M 122.904141 284.258625 
L 123.823842 284.258625 
L 123.823842 258.682111 
L 122.904141 258.682111 
z
" style="fill:#d62728;"/>
   </g>
   <g id="patch_85">
    <path clip-path="url(#pd2478ff9d8)" d="M 123.823842 284.258625 
L 124.743543 284.258625 
L 124.743543 233.105597 
L 123.823842 233.105597 
z
" style="fill:#d62728;"/>
   </g>
   <g id="patch_86">
    <path clip-path="url(#pd2478ff9d8)" d="M 124.743543 284.258625 
L 125.663245 284.258625 
L 125.663245 265.657524 
L 124.743543 265.657524 
z
" style="fill:#d62728;"/>
   </g>
   <g id="patch_87">
    <path clip-path="url(#pd2478ff9d8)" d="M 125.663245 284.258625 
L 126.582946 284.258625 
L 126.582946 170.326882 
L 125.663245 170.326882 
z
" style="fill:#d62728;"/>
   </g>
   <g id="patch_88">
    <path clip-path="url(#pd2478ff9d8)" d="M 126.582946 284.258625 
L 127.502647 284.258625 
L 127.502647 254.031836 
L 126.582946 254.031836 
z
" style="fill:#d62728;"/>
   </g>
   <g id="patch_89">
    <path clip-path="url(#pd2478ff9d8)" d="M 127.502647 284.258625 
L 128.422348 284.258625 
L 128.422348 265.657524 
L 127.502647 265.657524 
z
" style="fill:#d62728;"/>
   </g>
   <g id="patch_90">
    <path clip-path="url(#pd2478ff9d8)" d="M 128.422348 284.258625 
L 129.34205 284.258625 
L 129.34205 233.105597 
L 128.422348 233.105597 
z
" style="fill:#d62728;"/>
   </g>
   <g id="patch_91">
    <path clip-path="url(#pd2478ff9d8)" d="M 129.34205 284.258625 
L 130.261751 284.258625 
L 130.261751 226.130185 
L 129.34205 226.130185 
z
" style="fill:#d62728;"/>
   </g>
   <g id="patch_92">
    <path clip-path="url(#pd2478ff9d8)" d="M 130.261751 284.258625 
L 131.181452 284.258625 
L 131.181452 240.08101 
L 130.261751 240.08101 
z
" style="fill:#d62728;"/>
   </g>
   <g id="patch_93">
    <path clip-path="url(#pd2478ff9d8)" d="M 131.181452 284.258625 
L 132.101153 284.258625 
L 132.101153 230.78046 
L 131.181452 230.78046 
z
" style="fill:#d62728;"/>
   </g>
   <g id="patch_94">
    <path clip-path="url(#pd2478ff9d8)" d="M 132.101153 284.258625 
L 133.020855 284.258625 
L 133.020855 249.381561 
L 132.101153 249.381561 
z
" style="fill:#d62728;"/>
   </g>
   <g id="patch_95">
    <path clip-path="url(#pd2478ff9d8)" d="M 133.020855 284.258625 
L 133.940556 284.258625 
L 133.940556 240.08101 
L 133.020855 240.08101 
z
" style="fill:#d62728;"/>
   </g>
   <g id="patch_96">
    <path clip-path="url(#pd2478ff9d8)" d="M 133.940556 284.258625 
L 134.860257 284.258625 
L 134.860257 272.632937 
L 133.940556 272.632937 
z
" style="fill:#d62728;"/>
   </g>
   <g id="patch_97">
    <path clip-path="url(#pd2478ff9d8)" d="M 134.860257 284.258625 
L 135.779958 284.258625 
L 135.779958 251.706698 
L 134.860257 251.706698 
z
" style="fill:#d62728;"/>
   </g>
   <g id="patch_98">
    <path clip-path="url(#pd2478ff9d8)" d="M 135.779958 284.258625 
L 136.69966 284.258625 
L 136.69966 265.657524 
L 135.779958 265.657524 
z
" style="fill:#d62728;"/>
   </g>
   <g id="patch_99">
    <path clip-path="url(#pd2478ff9d8)" d="M 136.69966 284.258625 
L 137.619361 284.258625 
L 137.619361 270.307799 
L 136.69966 270.307799 
z
" style="fill:#d62728;"/>
   </g>
   <g id="patch_100">
    <path clip-path="url(#pd2478ff9d8)" d="M 137.619361 284.258625 
L 138.539062 284.258625 
L 138.539062 240.08101 
L 137.619361 240.08101 
z
" style="fill:#d62728;"/>
   </g>
   <g id="patch_101">
    <path clip-path="url(#pd2478ff9d8)" d="M 138.539062 284.258625 
L 139.458763 284.258625 
L 139.458763 256.356974 
L 138.539062 256.356974 
z
" style="fill:#d62728;"/>
   </g>
   <g id="patch_102">
    <path clip-path="url(#pd2478ff9d8)" d="M 139.458763 284.258625 
L 140.378465 284.258625 
L 140.378465 256.356974 
L 139.458763 256.356974 
z
" style="fill:#d62728;"/>
   </g>
   <g id="patch_103">
    <path clip-path="url(#pd2478ff9d8)" d="M 140.378465 284.258625 
L 141.298166 284.258625 
L 141.298166 261.007249 
L 140.378465 261.007249 
z
" style="fill:#d62728;"/>
   </g>
   <g id="patch_104">
    <path clip-path="url(#pd2478ff9d8)" d="M 141.298166 284.258625 
L 142.217867 284.258625 
L 142.217867 247.056423 
L 141.298166 247.056423 
z
" style="fill:#d62728;"/>
   </g>
   <g id="patch_105">
    <path clip-path="url(#pd2478ff9d8)" d="M 142.217867 284.258625 
L 143.137568 284.258625 
L 143.137568 256.356974 
L 142.217867 256.356974 
z
" style="fill:#d62728;"/>
   </g>
   <g id="patch_106">
    <path clip-path="url(#pd2478ff9d8)" d="M 143.137568 284.258625 
L 144.05727 284.258625 
L 144.05727 263.332386 
L 143.137568 263.332386 
z
" style="fill:#d62728;"/>
   </g>
   <g id="patch_107">
    <path clip-path="url(#pd2478ff9d8)" d="M 144.05727 284.258625 
L 144.976971 284.258625 
L 144.976971 267.982662 
L 144.05727 267.982662 
z
" style="fill:#d62728;"/>
   </g>
   <g id="patch_108">
    <path clip-path="url(#pd2478ff9d8)" d="M 144.976971 284.258625 
L 145.896672 284.258625 
L 145.896672 256.356974 
L 144.976971 256.356974 
z
" style="fill:#d62728;"/>
   </g>
   <g id="patch_109">
    <path clip-path="url(#pd2478ff9d8)" d="M 145.896672 284.258625 
L 146.816374 284.258625 
L 146.816374 272.632937 
L 145.896672 272.632937 
z
" style="fill:#d62728;"/>
   </g>
   <g id="patch_110">
    <path clip-path="url(#pd2478ff9d8)" d="M 146.816374 284.258625 
L 147.736075 284.258625 
L 147.736075 281.933487 
L 146.816374 281.933487 
z
" style="fill:#d62728;"/>
   </g>
   <g id="patch_111">
    <path clip-path="url(#pd2478ff9d8)" d="M 147.736075 284.258625 
L 148.655776 284.258625 
L 148.655776 279.60835 
L 147.736075 279.60835 
z
" style="fill:#d62728;"/>
   </g>
   <g id="patch_112">
    <path clip-path="url(#pd2478ff9d8)" d="M 148.655776 284.258625 
L 149.575477 284.258625 
L 149.575477 270.307799 
L 148.655776 270.307799 
z
" style="fill:#d62728;"/>
   </g>
   <g id="patch_113">
    <path clip-path="url(#pd2478ff9d8)" d="M 149.575477 284.258625 
L 150.495179 284.258625 
L 150.495179 277.283212 
L 149.575477 277.283212 
z
" style="fill:#d62728;"/>
   </g>
   <g id="patch_114">
    <path clip-path="url(#pd2478ff9d8)" d="M 150.495179 284.258625 
L 151.41488 284.258625 
L 151.41488 274.958075 
L 150.495179 274.958075 
z
" style="fill:#d62728;"/>
   </g>
   <g id="patch_115">
    <path clip-path="url(#pd2478ff9d8)" d="M 151.41488 284.258625 
L 152.334581 284.258625 
L 152.334581 267.982662 
L 151.41488 267.982662 
z
" style="fill:#d62728;"/>
   </g>
   <g id="patch_116">
    <path clip-path="url(#pd2478ff9d8)" d="M 152.334581 284.258625 
L 153.254282 284.258625 
L 153.254282 279.60835 
L 152.334581 279.60835 
z
" style="fill:#d62728;"/>
   </g>
   <g id="patch_117">
    <path clip-path="url(#pd2478ff9d8)" d="M 153.254282 284.258625 
L 154.173984 284.258625 
L 154.173984 284.258625 
L 153.254282 284.258625 
z
" style="fill:#d62728;"/>
   </g>
   <g id="patch_118">
    <path clip-path="url(#pd2478ff9d8)" d="M 154.173984 284.258625 
L 155.093685 284.258625 
L 155.093685 284.258625 
L 154.173984 284.258625 
z
" style="fill:#d62728;"/>
   </g>
   <g id="patch_119">
    <path clip-path="url(#pd2478ff9d8)" d="M 155.093685 284.258625 
L 156.013386 284.258625 
L 156.013386 277.283212 
L 155.093685 277.283212 
z
" style="fill:#d62728;"/>
   </g>
   <g id="patch_120">
    <path clip-path="url(#pd2478ff9d8)" d="M 156.013386 284.258625 
L 156.933087 284.258625 
L 156.933087 281.933487 
L 156.013386 281.933487 
z
" style="fill:#d62728;"/>
   </g>
   <g id="patch_121">
    <path clip-path="url(#pd2478ff9d8)" d="M 156.933087 284.258625 
L 157.852789 284.258625 
L 157.852789 279.60835 
L 156.933087 279.60835 
z
" style="fill:#d62728;"/>
   </g>
   <g id="patch_122">
    <path clip-path="url(#pd2478ff9d8)" d="M 157.852789 284.258625 
L 158.77249 284.258625 
L 158.77249 279.60835 
L 157.852789 279.60835 
z
" style="fill:#d62728;"/>
   </g>
   <g id="patch_123">
    <path clip-path="url(#pd2478ff9d8)" d="M 158.77249 284.258625 
L 159.692191 284.258625 
L 159.692191 281.933487 
L 158.77249 281.933487 
z
" style="fill:#d62728;"/>
   </g>
   <g id="patch_124">
    <path clip-path="url(#pd2478ff9d8)" d="M 159.692191 284.258625 
L 160.611892 284.258625 
L 160.611892 284.258625 
L 159.692191 284.258625 
z
" style="fill:#d62728;"/>
   </g>
   <g id="patch_125">
    <path clip-path="url(#pd2478ff9d8)" d="M 160.611892 284.258625 
L 161.531594 284.258625 
L 161.531594 279.60835 
L 160.611892 279.60835 
z
" style="fill:#d62728;"/>
   </g>
   <g id="patch_126">
    <path clip-path="url(#pd2478ff9d8)" d="M 161.531594 284.258625 
L 162.451295 284.258625 
L 162.451295 274.958075 
L 161.531594 274.958075 
z
" style="fill:#d62728;"/>
   </g>
   <g id="patch_127">
    <path clip-path="url(#pd2478ff9d8)" d="M 162.451295 284.258625 
L 163.370996 284.258625 
L 163.370996 274.958075 
L 162.451295 274.958075 
z
" style="fill:#d62728;"/>
   </g>
   <g id="patch_128">
    <path clip-path="url(#pd2478ff9d8)" d="M 163.370996 284.258625 
L 164.290698 284.258625 
L 164.290698 284.258625 
L 163.370996 284.258625 
z
" style="fill:#d62728;"/>
   </g>
   <g id="patch_129">
    <path clip-path="url(#pd2478ff9d8)" d="M 164.290698 284.258625 
L 165.210399 284.258625 
L 165.210399 244.731286 
L 164.290698 244.731286 
z
" style="fill:#d62728;"/>
   </g>
   <g id="patch_130">
    <path clip-path="url(#pd2478ff9d8)" d="M 165.210399 284.258625 
L 166.1301 284.258625 
L 166.1301 281.933487 
L 165.210399 281.933487 
z
" style="fill:#d62728;"/>
   </g>
   <g id="patch_131">
    <path clip-path="url(#pd2478ff9d8)" d="M 166.1301 284.258625 
L 167.049801 284.258625 
L 167.049801 284.258625 
L 166.1301 284.258625 
z
" style="fill:#d62728;"/>
   </g>
   <g id="patch_132">
    <path clip-path="url(#pd2478ff9d8)" d="M 167.049801 284.258625 
L 167.969503 284.258625 
L 167.969503 279.60835 
L 167.049801 279.60835 
z
" style="fill:#d62728;"/>
   </g>
   <g id="patch_133">
    <path clip-path="url(#pd2478ff9d8)" d="M 167.969503 284.258625 
L 168.889204 284.258625 
L 168.889204 265.657524 
L 167.969503 265.657524 
z
" style="fill:#d62728;"/>
   </g>
   <g id="patch_134">
    <path clip-path="url(#pd2478ff9d8)" d="M 168.889204 284.258625 
L 169.808905 284.258625 
L 169.808905 274.958075 
L 168.889204 274.958075 
z
" style="fill:#d62728;"/>
   </g>
   <g id="patch_135">
    <path clip-path="url(#pd2478ff9d8)" d="M 169.808905 284.258625 
L 170.728606 284.258625 
L 170.728606 281.933487 
L 169.808905 281.933487 
z
" style="fill:#d62728;"/>
   </g>
   <g id="patch_136">
    <path clip-path="url(#pd2478ff9d8)" d="M 170.728606 284.258625 
L 171.648308 284.258625 
L 171.648308 279.60835 
L 170.728606 279.60835 
z
" style="fill:#d62728;"/>
   </g>
   <g id="patch_137">
    <path clip-path="url(#pd2478ff9d8)" d="M 171.648308 284.258625 
L 172.568009 284.258625 
L 172.568009 284.258625 
L 171.648308 284.258625 
z
" style="fill:#d62728;"/>
   </g>
   <g id="patch_138">
    <path clip-path="url(#pd2478ff9d8)" d="M 172.568009 284.258625 
L 173.48771 284.258625 
L 173.48771 281.933487 
L 172.568009 281.933487 
z
" style="fill:#d62728;"/>
   </g>
   <g id="patch_139">
    <path clip-path="url(#pd2478ff9d8)" d="M 173.48771 284.258625 
L 174.407411 284.258625 
L 174.407411 284.258625 
L 173.48771 284.258625 
z
" style="fill:#d62728;"/>
   </g>
   <g id="patch_140">
    <path clip-path="url(#pd2478ff9d8)" d="M 174.407411 284.258625 
L 175.327113 284.258625 
L 175.327113 279.60835 
L 174.407411 279.60835 
z
" style="fill:#d62728;"/>
   </g>
   <g id="patch_141">
    <path clip-path="url(#pd2478ff9d8)" d="M 175.327113 284.258625 
L 176.246814 284.258625 
L 176.246814 281.933487 
L 175.327113 281.933487 
z
" style="fill:#d62728;"/>
   </g>
   <g id="patch_142">
    <path clip-path="url(#pd2478ff9d8)" d="M 176.246814 284.258625 
L 177.166515 284.258625 
L 177.166515 281.933487 
L 176.246814 281.933487 
z
" style="fill:#d62728;"/>
   </g>
   <g id="patch_143">
    <path clip-path="url(#pd2478ff9d8)" d="M 177.166515 284.258625 
L 178.086216 284.258625 
L 178.086216 281.933487 
L 177.166515 281.933487 
z
" style="fill:#d62728;"/>
   </g>
   <g id="patch_144">
    <path clip-path="url(#pd2478ff9d8)" d="M 178.086216 284.258625 
L 179.005918 284.258625 
L 179.005918 284.258625 
L 178.086216 284.258625 
z
" style="fill:#d62728;"/>
   </g>
   <g id="patch_145">
    <path clip-path="url(#pd2478ff9d8)" d="M 179.005918 284.258625 
L 179.925619 284.258625 
L 179.925619 284.258625 
L 179.005918 284.258625 
z
" style="fill:#d62728;"/>
   </g>
   <g id="patch_146">
    <path clip-path="url(#pd2478ff9d8)" d="M 179.925619 284.258625 
L 180.84532 284.258625 
L 180.84532 281.933487 
L 179.925619 281.933487 
z
" style="fill:#d62728;"/>
   </g>
   <g id="patch_147">
    <path clip-path="url(#pd2478ff9d8)" d="M 180.84532 284.258625 
L 181.765021 284.258625 
L 181.765021 279.60835 
L 180.84532 279.60835 
z
" style="fill:#d62728;"/>
   </g>
   <g id="patch_148">
    <path clip-path="url(#pd2478ff9d8)" d="M 181.765021 284.258625 
L 182.684723 284.258625 
L 182.684723 281.933487 
L 181.765021 281.933487 
z
" style="fill:#d62728;"/>
   </g>
   <g id="patch_149">
    <path clip-path="url(#pd2478ff9d8)" d="M 182.684723 284.258625 
L 183.604424 284.258625 
L 183.604424 281.933487 
L 182.684723 281.933487 
z
" style="fill:#d62728;"/>
   </g>
   <g id="patch_150">
    <path clip-path="url(#pd2478ff9d8)" d="M 183.604424 284.258625 
L 184.524125 284.258625 
L 184.524125 284.258625 
L 183.604424 284.258625 
z
" style="fill:#d62728;"/>
   </g>
   <g id="patch_151">
    <path clip-path="url(#pd2478ff9d8)" d="M 184.524125 284.258625 
L 185.443827 284.258625 
L 185.443827 284.258625 
L 184.524125 284.258625 
z
" style="fill:#d62728;"/>
   </g>
   <g id="patch_152">
    <path clip-path="url(#pd2478ff9d8)" d="M 185.443827 284.258625 
L 186.363528 284.258625 
L 186.363528 284.258625 
L 185.443827 284.258625 
z
" style="fill:#d62728;"/>
   </g>
   <g id="patch_153">
    <path clip-path="url(#pd2478ff9d8)" d="M 186.363528 284.258625 
L 187.283229 284.258625 
L 187.283229 284.258625 
L 186.363528 284.258625 
z
" style="fill:#d62728;"/>
   </g>
   <g id="patch_154">
    <path clip-path="url(#pd2478ff9d8)" d="M 187.283229 284.258625 
L 188.20293 284.258625 
L 188.20293 279.60835 
L 187.283229 279.60835 
z
" style="fill:#d62728;"/>
   </g>
   <g id="patch_155">
    <path clip-path="url(#pd2478ff9d8)" d="M 188.20293 284.258625 
L 189.122632 284.258625 
L 189.122632 281.933487 
L 188.20293 281.933487 
z
" style="fill:#d62728;"/>
   </g>
   <g id="patch_156">
    <path clip-path="url(#pd2478ff9d8)" d="M 189.122632 284.258625 
L 190.042333 284.258625 
L 190.042333 284.258625 
L 189.122632 284.258625 
z
" style="fill:#d62728;"/>
   </g>
   <g id="patch_157">
    <path clip-path="url(#pd2478ff9d8)" d="M 190.042333 284.258625 
L 190.962034 284.258625 
L 190.962034 284.258625 
L 190.042333 284.258625 
z
" style="fill:#d62728;"/>
   </g>
   <g id="patch_158">
    <path clip-path="url(#pd2478ff9d8)" d="M 190.962034 284.258625 
L 191.881735 284.258625 
L 191.881735 284.258625 
L 190.962034 284.258625 
z
" style="fill:#d62728;"/>
   </g>
   <g id="patch_159">
    <path clip-path="url(#pd2478ff9d8)" d="M 191.881735 284.258625 
L 192.801437 284.258625 
L 192.801437 284.258625 
L 191.881735 284.258625 
z
" style="fill:#d62728;"/>
   </g>
   <g id="patch_160">
    <path clip-path="url(#pd2478ff9d8)" d="M 192.801437 284.258625 
L 193.721138 284.258625 
L 193.721138 277.283212 
L 192.801437 277.283212 
z
" style="fill:#d62728;"/>
   </g>
   <g id="patch_161">
    <path clip-path="url(#pd2478ff9d8)" d="M 193.721138 284.258625 
L 194.640839 284.258625 
L 194.640839 281.933487 
L 193.721138 281.933487 
z
" style="fill:#d62728;"/>
   </g>
   <g id="patch_162">
    <path clip-path="url(#pd2478ff9d8)" d="M 194.640839 284.258625 
L 195.56054 284.258625 
L 195.56054 281.933487 
L 194.640839 281.933487 
z
" style="fill:#d62728;"/>
   </g>
   <g id="patch_163">
    <path clip-path="url(#pd2478ff9d8)" d="M 195.56054 284.258625 
L 196.480242 284.258625 
L 196.480242 279.60835 
L 195.56054 279.60835 
z
" style="fill:#d62728;"/>
   </g>
   <g id="patch_164">
    <path clip-path="url(#pd2478ff9d8)" d="M 196.480242 284.258625 
L 197.399943 284.258625 
L 197.399943 281.933487 
L 196.480242 281.933487 
z
" style="fill:#d62728;"/>
   </g>
   <g id="patch_165">
    <path clip-path="url(#pd2478ff9d8)" d="M 197.399943 284.258625 
L 198.319644 284.258625 
L 198.319644 277.283212 
L 197.399943 277.283212 
z
" style="fill:#d62728;"/>
   </g>
   <g id="patch_166">
    <path clip-path="url(#pd2478ff9d8)" d="M 198.319644 284.258625 
L 199.239345 284.258625 
L 199.239345 284.258625 
L 198.319644 284.258625 
z
" style="fill:#d62728;"/>
   </g>
   <g id="patch_167">
    <path clip-path="url(#pd2478ff9d8)" d="M 199.239345 284.258625 
L 200.159047 284.258625 
L 200.159047 279.60835 
L 199.239345 279.60835 
z
" style="fill:#d62728;"/>
   </g>
   <g id="patch_168">
    <path clip-path="url(#pd2478ff9d8)" d="M 200.159047 284.258625 
L 201.078748 284.258625 
L 201.078748 277.283212 
L 200.159047 277.283212 
z
" style="fill:#d62728;"/>
   </g>
   <g id="patch_169">
    <path clip-path="url(#pd2478ff9d8)" d="M 201.078748 284.258625 
L 201.998449 284.258625 
L 201.998449 277.283212 
L 201.078748 277.283212 
z
" style="fill:#d62728;"/>
   </g>
   <g id="patch_170">
    <path clip-path="url(#pd2478ff9d8)" d="M 201.998449 284.258625 
L 202.918151 284.258625 
L 202.918151 279.60835 
L 201.998449 279.60835 
z
" style="fill:#d62728;"/>
   </g>
   <g id="patch_171">
    <path clip-path="url(#pd2478ff9d8)" d="M 202.918151 284.258625 
L 203.837852 284.258625 
L 203.837852 272.632937 
L 202.918151 272.632937 
z
" style="fill:#d62728;"/>
   </g>
   <g id="patch_172">
    <path clip-path="url(#pd2478ff9d8)" d="M 203.837852 284.258625 
L 204.757553 284.258625 
L 204.757553 284.258625 
L 203.837852 284.258625 
z
" style="fill:#d62728;"/>
   </g>
   <g id="patch_173">
    <path clip-path="url(#pd2478ff9d8)" d="M 204.757553 284.258625 
L 205.677254 284.258625 
L 205.677254 281.933487 
L 204.757553 281.933487 
z
" style="fill:#d62728;"/>
   </g>
   <g id="patch_174">
    <path clip-path="url(#pd2478ff9d8)" d="M 205.677254 284.258625 
L 206.596956 284.258625 
L 206.596956 274.958075 
L 205.677254 274.958075 
z
" style="fill:#d62728;"/>
   </g>
   <g id="patch_175">
    <path clip-path="url(#pd2478ff9d8)" d="M 206.596956 284.258625 
L 207.516657 284.258625 
L 207.516657 270.307799 
L 206.596956 270.307799 
z
" style="fill:#d62728;"/>
   </g>
   <g id="patch_176">
    <path clip-path="url(#pd2478ff9d8)" d="M 207.516657 284.258625 
L 208.436358 284.258625 
L 208.436358 274.958075 
L 207.516657 274.958075 
z
" style="fill:#d62728;"/>
   </g>
   <g id="patch_177">
    <path clip-path="url(#pd2478ff9d8)" d="M 208.436358 284.258625 
L 209.356059 284.258625 
L 209.356059 267.982662 
L 208.436358 267.982662 
z
" style="fill:#d62728;"/>
   </g>
   <g id="patch_178">
    <path clip-path="url(#pd2478ff9d8)" d="M 209.356059 284.258625 
L 210.275761 284.258625 
L 210.275761 270.307799 
L 209.356059 270.307799 
z
" style="fill:#d62728;"/>
   </g>
   <g id="patch_179">
    <path clip-path="url(#pd2478ff9d8)" d="M 210.275761 284.258625 
L 211.195462 284.258625 
L 211.195462 281.933487 
L 210.275761 281.933487 
z
" style="fill:#d62728;"/>
   </g>
   <g id="patch_180">
    <path clip-path="url(#pd2478ff9d8)" d="M 211.195462 284.258625 
L 212.115163 284.258625 
L 212.115163 267.982662 
L 211.195462 267.982662 
z
" style="fill:#d62728;"/>
   </g>
   <g id="patch_181">
    <path clip-path="url(#pd2478ff9d8)" d="M 212.115163 284.258625 
L 213.034864 284.258625 
L 213.034864 272.632937 
L 212.115163 272.632937 
z
" style="fill:#d62728;"/>
   </g>
   <g id="patch_182">
    <path clip-path="url(#pd2478ff9d8)" d="M 213.034864 284.258625 
L 213.954566 284.258625 
L 213.954566 267.982662 
L 213.034864 267.982662 
z
" style="fill:#d62728;"/>
   </g>
   <g id="patch_183">
    <path clip-path="url(#pd2478ff9d8)" d="M 213.954566 284.258625 
L 214.874267 284.258625 
L 214.874267 274.958075 
L 213.954566 274.958075 
z
" style="fill:#d62728;"/>
   </g>
   <g id="patch_184">
    <path clip-path="url(#pd2478ff9d8)" d="M 214.874267 284.258625 
L 215.793968 284.258625 
L 215.793968 261.007249 
L 214.874267 261.007249 
z
" style="fill:#d62728;"/>
   </g>
   <g id="patch_185">
    <path clip-path="url(#pd2478ff9d8)" d="M 215.793968 284.258625 
L 216.713669 284.258625 
L 216.713669 256.356974 
L 215.793968 256.356974 
z
" style="fill:#d62728;"/>
   </g>
   <g id="patch_186">
    <path clip-path="url(#pd2478ff9d8)" d="M 216.713669 284.258625 
L 217.633371 284.258625 
L 217.633371 277.283212 
L 216.713669 277.283212 
z
" style="fill:#d62728;"/>
   </g>
   <g id="patch_187">
    <path clip-path="url(#pd2478ff9d8)" d="M 217.633371 284.258625 
L 218.553072 284.258625 
L 218.553072 258.682111 
L 217.633371 258.682111 
z
" style="fill:#d62728;"/>
   </g>
   <g id="patch_188">
    <path clip-path="url(#pd2478ff9d8)" d="M 218.553072 284.258625 
L 219.472773 284.258625 
L 219.472773 247.056423 
L 218.553072 247.056423 
z
" style="fill:#d62728;"/>
   </g>
   <g id="patch_189">
    <path clip-path="url(#pd2478ff9d8)" d="M 219.472773 284.258625 
L 220.392474 284.258625 
L 220.392474 254.031836 
L 219.472773 254.031836 
z
" style="fill:#d62728;"/>
   </g>
   <g id="patch_190">
    <path clip-path="url(#pd2478ff9d8)" d="M 220.392474 284.258625 
L 221.312176 284.258625 
L 221.312176 247.056423 
L 220.392474 247.056423 
z
" style="fill:#d62728;"/>
   </g>
   <g id="patch_191">
    <path clip-path="url(#pd2478ff9d8)" d="M 221.312176 284.258625 
L 222.231877 284.258625 
L 222.231877 258.682111 
L 221.312176 258.682111 
z
" style="fill:#d62728;"/>
   </g>
   <g id="patch_192">
    <path clip-path="url(#pd2478ff9d8)" d="M 222.231877 284.258625 
L 223.151578 284.258625 
L 223.151578 251.706698 
L 222.231877 251.706698 
z
" style="fill:#d62728;"/>
   </g>
   <g id="patch_193">
    <path clip-path="url(#pd2478ff9d8)" d="M 223.151578 284.258625 
L 224.07128 284.258625 
L 224.07128 267.982662 
L 223.151578 267.982662 
z
" style="fill:#d62728;"/>
   </g>
   <g id="patch_194">
    <path clip-path="url(#pd2478ff9d8)" d="M 224.07128 284.258625 
L 224.990981 284.258625 
L 224.990981 272.632937 
L 224.07128 272.632937 
z
" style="fill:#d62728;"/>
   </g>
   <g id="patch_195">
    <path clip-path="url(#pd2478ff9d8)" d="M 224.990981 284.258625 
L 225.910682 284.258625 
L 225.910682 249.381561 
L 224.990981 249.381561 
z
" style="fill:#d62728;"/>
   </g>
   <g id="patch_196">
    <path clip-path="url(#pd2478ff9d8)" d="M 225.910682 284.258625 
L 226.830383 284.258625 
L 226.830383 254.031836 
L 225.910682 254.031836 
z
" style="fill:#d62728;"/>
   </g>
   <g id="patch_197">
    <path clip-path="url(#pd2478ff9d8)" d="M 226.830383 284.258625 
L 227.750085 284.258625 
L 227.750085 244.731286 
L 226.830383 244.731286 
z
" style="fill:#d62728;"/>
   </g>
   <g id="patch_198">
    <path clip-path="url(#pd2478ff9d8)" d="M 227.750085 284.258625 
L 228.669786 284.258625 
L 228.669786 256.356974 
L 227.750085 256.356974 
z
" style="fill:#d62728;"/>
   </g>
   <g id="patch_199">
    <path clip-path="url(#pd2478ff9d8)" d="M 228.669786 284.258625 
L 229.589487 284.258625 
L 229.589487 244.731286 
L 228.669786 244.731286 
z
" style="fill:#d62728;"/>
   </g>
   <g id="patch_200">
    <path clip-path="url(#pd2478ff9d8)" d="M 229.589487 284.258625 
L 230.509188 284.258625 
L 230.509188 263.332386 
L 229.589487 263.332386 
z
" style="fill:#d62728;"/>
   </g>
   <g id="patch_201">
    <path clip-path="url(#pd2478ff9d8)" d="M 230.509188 284.258625 
L 231.42889 284.258625 
L 231.42889 249.381561 
L 230.509188 249.381561 
z
" style="fill:#d62728;"/>
   </g>
   <g id="patch_202">
    <path clip-path="url(#pd2478ff9d8)" d="M 231.42889 284.258625 
L 232.348591 284.258625 
L 232.348591 244.731286 
L 231.42889 244.731286 
z
" style="fill:#d62728;"/>
   </g>
   <g id="patch_203">
    <path clip-path="url(#pd2478ff9d8)" d="M 232.348591 284.258625 
L 233.268292 284.258625 
L 233.268292 258.682111 
L 232.348591 258.682111 
z
" style="fill:#d62728;"/>
   </g>
   <g id="patch_204">
    <path clip-path="url(#pd2478ff9d8)" d="M 233.268292 284.258625 
L 234.187993 284.258625 
L 234.187993 256.356974 
L 233.268292 256.356974 
z
" style="fill:#d62728;"/>
   </g>
   <g id="patch_205">
    <path clip-path="url(#pd2478ff9d8)" d="M 234.187993 284.258625 
L 235.107695 284.258625 
L 235.107695 258.682111 
L 234.187993 258.682111 
z
" style="fill:#d62728;"/>
   </g>
   <g id="patch_206">
    <path clip-path="url(#pd2478ff9d8)" d="M 235.107695 284.258625 
L 236.027396 284.258625 
L 236.027396 240.08101 
L 235.107695 240.08101 
z
" style="fill:#d62728;"/>
   </g>
   <g id="patch_207">
    <path clip-path="url(#pd2478ff9d8)" d="M 236.027396 284.258625 
L 236.947097 284.258625 
L 236.947097 265.657524 
L 236.027396 265.657524 
z
" style="fill:#d62728;"/>
   </g>
   <g id="patch_208">
    <path clip-path="url(#pd2478ff9d8)" d="M 236.947097 284.258625 
L 237.866798 284.258625 
L 237.866798 270.307799 
L 236.947097 270.307799 
z
" style="fill:#d62728;"/>
   </g>
   <g id="patch_209">
    <path clip-path="url(#pd2478ff9d8)" d="M 237.866798 284.258625 
L 238.7865 284.258625 
L 238.7865 251.706698 
L 237.866798 251.706698 
z
" style="fill:#d62728;"/>
   </g>
   <g id="patch_210">
    <path clip-path="url(#pd2478ff9d8)" d="M 238.7865 284.258625 
L 239.706201 284.258625 
L 239.706201 247.056423 
L 238.7865 247.056423 
z
" style="fill:#d62728;"/>
   </g>
   <g id="patch_211">
    <path clip-path="url(#pd2478ff9d8)" d="M 239.706201 284.258625 
L 240.625902 284.258625 
L 240.625902 254.031836 
L 239.706201 254.031836 
z
" style="fill:#d62728;"/>
   </g>
   <g id="patch_212">
    <path clip-path="url(#pd2478ff9d8)" d="M 240.625902 284.258625 
L 241.545604 284.258625 
L 241.545604 270.307799 
L 240.625902 270.307799 
z
" style="fill:#d62728;"/>
   </g>
   <g id="patch_213">
    <path clip-path="url(#pd2478ff9d8)" d="M 241.545604 284.258625 
L 242.465305 284.258625 
L 242.465305 258.682111 
L 241.545604 258.682111 
z
" style="fill:#d62728;"/>
   </g>
   <g id="patch_214">
    <path clip-path="url(#pd2478ff9d8)" d="M 242.465305 284.258625 
L 243.385006 284.258625 
L 243.385006 247.056423 
L 242.465305 247.056423 
z
" style="fill:#d62728;"/>
   </g>
   <g id="patch_215">
    <path clip-path="url(#pd2478ff9d8)" d="M 243.385006 284.258625 
L 244.304707 284.258625 
L 244.304707 277.283212 
L 243.385006 277.283212 
z
" style="fill:#d62728;"/>
   </g>
   <g id="patch_216">
    <path clip-path="url(#pd2478ff9d8)" d="M 244.304707 284.258625 
L 245.224409 284.258625 
L 245.224409 263.332386 
L 244.304707 263.332386 
z
" style="fill:#d62728;"/>
   </g>
   <g id="patch_217">
    <path clip-path="url(#pd2478ff9d8)" d="M 245.224409 284.258625 
L 246.14411 284.258625 
L 246.14411 261.007249 
L 245.224409 261.007249 
z
" style="fill:#d62728;"/>
   </g>
   <g id="patch_218">
    <path clip-path="url(#pd2478ff9d8)" d="M 246.14411 284.258625 
L 247.063811 284.258625 
L 247.063811 256.356974 
L 246.14411 256.356974 
z
" style="fill:#d62728;"/>
   </g>
   <g id="patch_219">
    <path clip-path="url(#pd2478ff9d8)" d="M 247.063811 284.258625 
L 247.983512 284.258625 
L 247.983512 263.332386 
L 247.063811 263.332386 
z
" style="fill:#d62728;"/>
   </g>
   <g id="patch_220">
    <path clip-path="url(#pd2478ff9d8)" d="M 247.983512 284.258625 
L 248.903214 284.258625 
L 248.903214 254.031836 
L 247.983512 254.031836 
z
" style="fill:#d62728;"/>
   </g>
   <g id="patch_221">
    <path clip-path="url(#pd2478ff9d8)" d="M 248.903214 284.258625 
L 249.822915 284.258625 
L 249.822915 272.632937 
L 248.903214 272.632937 
z
" style="fill:#d62728;"/>
   </g>
   <g id="patch_222">
    <path clip-path="url(#pd2478ff9d8)" d="M 249.822915 284.258625 
L 250.742616 284.258625 
L 250.742616 284.258625 
L 249.822915 284.258625 
z
" style="fill:#d62728;"/>
   </g>
   <g id="patch_223">
    <path clip-path="url(#pd2478ff9d8)" d="M 250.742616 284.258625 
L 251.662317 284.258625 
L 251.662317 265.657524 
L 250.742616 265.657524 
z
" style="fill:#d62728;"/>
   </g>
   <g id="patch_224">
    <path clip-path="url(#pd2478ff9d8)" d="M 251.662317 284.258625 
L 252.582019 284.258625 
L 252.582019 274.958075 
L 251.662317 274.958075 
z
" style="fill:#d62728;"/>
   </g>
   <g id="patch_225">
    <path clip-path="url(#pd2478ff9d8)" d="M 252.582019 284.258625 
L 253.50172 284.258625 
L 253.50172 265.657524 
L 252.582019 265.657524 
z
" style="fill:#d62728;"/>
   </g>
   <g id="patch_226">
    <path clip-path="url(#pd2478ff9d8)" d="M 253.50172 284.258625 
L 254.421421 284.258625 
L 254.421421 256.356974 
L 253.50172 256.356974 
z
" style="fill:#d62728;"/>
   </g>
   <g id="patch_227">
    <path clip-path="url(#pd2478ff9d8)" d="M 254.421421 284.258625 
L 255.341122 284.258625 
L 255.341122 265.657524 
L 254.421421 265.657524 
z
" style="fill:#d62728;"/>
   </g>
   <g id="patch_228">
    <path clip-path="url(#pd2478ff9d8)" d="M 255.341122 284.258625 
L 256.260824 284.258625 
L 256.260824 272.632937 
L 255.341122 272.632937 
z
" style="fill:#d62728;"/>
   </g>
   <g id="patch_229">
    <path clip-path="url(#pd2478ff9d8)" d="M 256.260824 284.258625 
L 257.180525 284.258625 
L 257.180525 277.283212 
L 256.260824 277.283212 
z
" style="fill:#d62728;"/>
   </g>
   <g id="patch_230">
    <path clip-path="url(#pd2478ff9d8)" d="M 257.180525 284.258625 
L 258.100226 284.258625 
L 258.100226 263.332386 
L 257.180525 263.332386 
z
" style="fill:#d62728;"/>
   </g>
   <g id="patch_231">
    <path clip-path="url(#pd2478ff9d8)" d="M 258.100226 284.258625 
L 259.019927 284.258625 
L 259.019927 267.982662 
L 258.100226 267.982662 
z
" style="fill:#d62728;"/>
   </g>
   <g id="patch_232">
    <path clip-path="url(#pd2478ff9d8)" d="M 259.019927 284.258625 
L 259.939629 284.258625 
L 259.939629 267.982662 
L 259.019927 267.982662 
z
" style="fill:#d62728;"/>
   </g>
   <g id="patch_233">
    <path clip-path="url(#pd2478ff9d8)" d="M 259.939629 284.258625 
L 260.85933 284.258625 
L 260.85933 267.982662 
L 259.939629 267.982662 
z
" style="fill:#d62728;"/>
   </g>
   <g id="patch_234">
    <path clip-path="url(#pd2478ff9d8)" d="M 260.85933 284.258625 
L 261.779031 284.258625 
L 261.779031 256.356974 
L 260.85933 256.356974 
z
" style="fill:#d62728;"/>
   </g>
   <g id="patch_235">
    <path clip-path="url(#pd2478ff9d8)" d="M 261.779031 284.258625 
L 262.698733 284.258625 
L 262.698733 267.982662 
L 261.779031 267.982662 
z
" style="fill:#d62728;"/>
   </g>
   <g id="patch_236">
    <path clip-path="url(#pd2478ff9d8)" d="M 262.698733 284.258625 
L 263.618434 284.258625 
L 263.618434 279.60835 
L 262.698733 279.60835 
z
" style="fill:#d62728;"/>
   </g>
   <g id="patch_237">
    <path clip-path="url(#pd2478ff9d8)" d="M 263.618434 284.258625 
L 264.538135 284.258625 
L 264.538135 277.283212 
L 263.618434 277.283212 
z
" style="fill:#d62728;"/>
   </g>
   <g id="patch_238">
    <path clip-path="url(#pd2478ff9d8)" d="M 264.538135 284.258625 
L 265.457836 284.258625 
L 265.457836 277.283212 
L 264.538135 277.283212 
z
" style="fill:#d62728;"/>
   </g>
   <g id="patch_239">
    <path clip-path="url(#pd2478ff9d8)" d="M 265.457836 284.258625 
L 266.377538 284.258625 
L 266.377538 265.657524 
L 265.457836 265.657524 
z
" style="fill:#d62728;"/>
   </g>
   <g id="patch_240">
    <path clip-path="url(#pd2478ff9d8)" d="M 266.377538 284.258625 
L 267.297239 284.258625 
L 267.297239 277.283212 
L 266.377538 277.283212 
z
" style="fill:#d62728;"/>
   </g>
   <g id="patch_241">
    <path clip-path="url(#pd2478ff9d8)" d="M 267.297239 284.258625 
L 268.21694 284.258625 
L 268.21694 265.657524 
L 267.297239 265.657524 
z
" style="fill:#d62728;"/>
   </g>
   <g id="patch_242">
    <path clip-path="url(#pd2478ff9d8)" d="M 268.21694 284.258625 
L 269.136641 284.258625 
L 269.136641 277.283212 
L 268.21694 277.283212 
z
" style="fill:#d62728;"/>
   </g>
   <g id="patch_243">
    <path clip-path="url(#pd2478ff9d8)" d="M 269.136641 284.258625 
L 270.056343 284.258625 
L 270.056343 279.60835 
L 269.136641 279.60835 
z
" style="fill:#d62728;"/>
   </g>
   <g id="patch_244">
    <path clip-path="url(#pd2478ff9d8)" d="M 270.056343 284.258625 
L 270.976044 284.258625 
L 270.976044 272.632937 
L 270.056343 272.632937 
z
" style="fill:#d62728;"/>
   </g>
   <g id="patch_245">
    <path clip-path="url(#pd2478ff9d8)" d="M 270.976044 284.258625 
L 271.895745 284.258625 
L 271.895745 274.958075 
L 270.976044 274.958075 
z
" style="fill:#d62728;"/>
   </g>
   <g id="patch_246">
    <path clip-path="url(#pd2478ff9d8)" d="M 271.895745 284.258625 
L 272.815446 284.258625 
L 272.815446 265.657524 
L 271.895745 265.657524 
z
" style="fill:#d62728;"/>
   </g>
   <g id="patch_247">
    <path clip-path="url(#pd2478ff9d8)" d="M 272.815446 284.258625 
L 273.735148 284.258625 
L 273.735148 274.958075 
L 272.815446 274.958075 
z
" style="fill:#d62728;"/>
   </g>
   <g id="patch_248">
    <path clip-path="url(#pd2478ff9d8)" d="M 273.735148 284.258625 
L 274.654849 284.258625 
L 274.654849 258.682111 
L 273.735148 258.682111 
z
" style="fill:#d62728;"/>
   </g>
   <g id="patch_249">
    <path clip-path="url(#pd2478ff9d8)" d="M 274.654849 284.258625 
L 275.57455 284.258625 
L 275.57455 263.332386 
L 274.654849 263.332386 
z
" style="fill:#d62728;"/>
   </g>
   <g id="patch_250">
    <path clip-path="url(#pd2478ff9d8)" d="M 275.57455 284.258625 
L 276.494251 284.258625 
L 276.494251 274.958075 
L 275.57455 274.958075 
z
" style="fill:#d62728;"/>
   </g>
   <g id="patch_251">
    <path clip-path="url(#pd2478ff9d8)" d="M 276.494251 284.258625 
L 277.413953 284.258625 
L 277.413953 279.60835 
L 276.494251 279.60835 
z
" style="fill:#d62728;"/>
   </g>
   <g id="patch_252">
    <path clip-path="url(#pd2478ff9d8)" d="M 277.413953 284.258625 
L 278.333654 284.258625 
L 278.333654 277.283212 
L 277.413953 277.283212 
z
" style="fill:#d62728;"/>
   </g>
   <g id="patch_253">
    <path clip-path="url(#pd2478ff9d8)" d="M 278.333654 284.258625 
L 279.253355 284.258625 
L 279.253355 270.307799 
L 278.333654 270.307799 
z
" style="fill:#d62728;"/>
   </g>
   <g id="patch_254">
    <path clip-path="url(#pd2478ff9d8)" d="M 279.253355 284.258625 
L 280.173057 284.258625 
L 280.173057 263.332386 
L 279.253355 263.332386 
z
" style="fill:#d62728;"/>
   </g>
   <g id="patch_255">
    <path clip-path="url(#pd2478ff9d8)" d="M 280.173057 284.258625 
L 281.092758 284.258625 
L 281.092758 256.356974 
L 280.173057 256.356974 
z
" style="fill:#d62728;"/>
   </g>
   <g id="patch_256">
    <path clip-path="url(#pd2478ff9d8)" d="M 281.092758 284.258625 
L 282.012459 284.258625 
L 282.012459 272.632937 
L 281.092758 272.632937 
z
" style="fill:#d62728;"/>
   </g>
   <g id="patch_257">
    <path clip-path="url(#pd2478ff9d8)" d="M 282.012459 284.258625 
L 282.93216 284.258625 
L 282.93216 267.982662 
L 282.012459 267.982662 
z
" style="fill:#d62728;"/>
   </g>
   <g id="patch_258">
    <path clip-path="url(#pd2478ff9d8)" d="M 282.93216 284.258625 
L 283.851862 284.258625 
L 283.851862 267.982662 
L 282.93216 267.982662 
z
" style="fill:#d62728;"/>
   </g>
   <g id="patch_259">
    <path clip-path="url(#pd2478ff9d8)" d="M 283.851862 284.258625 
L 284.771563 284.258625 
L 284.771563 272.632937 
L 283.851862 272.632937 
z
" style="fill:#d62728;"/>
   </g>
   <g id="patch_260">
    <path clip-path="url(#pd2478ff9d8)" d="M 284.771563 284.258625 
L 285.691264 284.258625 
L 285.691264 277.283212 
L 284.771563 277.283212 
z
" style="fill:#d62728;"/>
   </g>
   <g id="patch_261">
    <path clip-path="url(#pd2478ff9d8)" d="M 285.691264 284.258625 
L 286.610965 284.258625 
L 286.610965 258.682111 
L 285.691264 258.682111 
z
" style="fill:#d62728;"/>
   </g>
   <g id="patch_262">
    <path clip-path="url(#pd2478ff9d8)" d="M 286.610965 284.258625 
L 287.530667 284.258625 
L 287.530667 258.682111 
L 286.610965 258.682111 
z
" style="fill:#d62728;"/>
   </g>
   <g id="patch_263">
    <path clip-path="url(#pd2478ff9d8)" d="M 287.530667 284.258625 
L 288.450368 284.258625 
L 288.450368 258.682111 
L 287.530667 258.682111 
z
" style="fill:#d62728;"/>
   </g>
   <g id="patch_264">
    <path clip-path="url(#pd2478ff9d8)" d="M 288.450368 284.258625 
L 289.370069 284.258625 
L 289.370069 265.657524 
L 288.450368 265.657524 
z
" style="fill:#d62728;"/>
   </g>
   <g id="patch_265">
    <path clip-path="url(#pd2478ff9d8)" d="M 289.370069 284.258625 
L 290.28977 284.258625 
L 290.28977 270.307799 
L 289.370069 270.307799 
z
" style="fill:#d62728;"/>
   </g>
   <g id="patch_266">
    <path clip-path="url(#pd2478ff9d8)" d="M 290.28977 284.258625 
L 291.209472 284.258625 
L 291.209472 270.307799 
L 290.28977 270.307799 
z
" style="fill:#d62728;"/>
   </g>
   <g id="patch_267">
    <path clip-path="url(#pd2478ff9d8)" d="M 291.209472 284.258625 
L 292.129173 284.258625 
L 292.129173 265.657524 
L 291.209472 265.657524 
z
" style="fill:#d62728;"/>
   </g>
   <g id="patch_268">
    <path clip-path="url(#pd2478ff9d8)" d="M 292.129173 284.258625 
L 293.048874 284.258625 
L 293.048874 256.356974 
L 292.129173 256.356974 
z
" style="fill:#d62728;"/>
   </g>
   <g id="patch_269">
    <path clip-path="url(#pd2478ff9d8)" d="M 293.048874 284.258625 
L 293.968575 284.258625 
L 293.968575 277.283212 
L 293.048874 277.283212 
z
" style="fill:#d62728;"/>
   </g>
   <g id="patch_270">
    <path clip-path="url(#pd2478ff9d8)" d="M 293.968575 284.258625 
L 294.888277 284.258625 
L 294.888277 277.283212 
L 293.968575 277.283212 
z
" style="fill:#d62728;"/>
   </g>
   <g id="patch_271">
    <path clip-path="url(#pd2478ff9d8)" d="M 294.888277 284.258625 
L 295.807978 284.258625 
L 295.807978 270.307799 
L 294.888277 270.307799 
z
" style="fill:#d62728;"/>
   </g>
   <g id="patch_272">
    <path clip-path="url(#pd2478ff9d8)" d="M 295.807978 284.258625 
L 296.727679 284.258625 
L 296.727679 258.682111 
L 295.807978 258.682111 
z
" style="fill:#d62728;"/>
   </g>
   <g id="patch_273">
    <path clip-path="url(#pd2478ff9d8)" d="M 296.727679 284.258625 
L 297.64738 284.258625 
L 297.64738 256.356974 
L 296.727679 256.356974 
z
" style="fill:#d62728;"/>
   </g>
   <g id="patch_274">
    <path clip-path="url(#pd2478ff9d8)" d="M 297.64738 284.258625 
L 298.567082 284.258625 
L 298.567082 261.007249 
L 297.64738 261.007249 
z
" style="fill:#d62728;"/>
   </g>
   <g id="patch_275">
    <path clip-path="url(#pd2478ff9d8)" d="M 298.567082 284.258625 
L 299.486783 284.258625 
L 299.486783 247.056423 
L 298.567082 247.056423 
z
" style="fill:#d62728;"/>
   </g>
   <g id="patch_276">
    <path clip-path="url(#pd2478ff9d8)" d="M 299.486783 284.258625 
L 300.406484 284.258625 
L 300.406484 254.031836 
L 299.486783 254.031836 
z
" style="fill:#d62728;"/>
   </g>
   <g id="patch_277">
    <path clip-path="url(#pd2478ff9d8)" d="M 300.406484 284.258625 
L 301.326186 284.258625 
L 301.326186 277.283212 
L 300.406484 277.283212 
z
" style="fill:#d62728;"/>
   </g>
   <g id="patch_278">
    <path clip-path="url(#pd2478ff9d8)" d="M 301.326186 284.258625 
L 302.245887 284.258625 
L 302.245887 279.60835 
L 301.326186 279.60835 
z
" style="fill:#d62728;"/>
   </g>
   <g id="patch_279">
    <path clip-path="url(#pd2478ff9d8)" d="M 302.245887 284.258625 
L 303.165588 284.258625 
L 303.165588 242.406148 
L 302.245887 242.406148 
z
" style="fill:#d62728;"/>
   </g>
   <g id="patch_280">
    <path clip-path="url(#pd2478ff9d8)" d="M 303.165588 284.258625 
L 304.085289 284.258625 
L 304.085289 261.007249 
L 303.165588 261.007249 
z
" style="fill:#d62728;"/>
   </g>
   <g id="patch_281">
    <path clip-path="url(#pd2478ff9d8)" d="M 304.085289 284.258625 
L 305.004991 284.258625 
L 305.004991 263.332386 
L 304.085289 263.332386 
z
" style="fill:#d62728;"/>
   </g>
   <g id="patch_282">
    <path clip-path="url(#pd2478ff9d8)" d="M 305.004991 284.258625 
L 305.924692 284.258625 
L 305.924692 235.430735 
L 305.004991 235.430735 
z
" style="fill:#d62728;"/>
   </g>
   <g id="patch_283">
    <path clip-path="url(#pd2478ff9d8)" d="M 305.924692 284.258625 
L 306.844393 284.258625 
L 306.844393 237.755873 
L 305.924692 237.755873 
z
" style="fill:#d62728;"/>
   </g>
   <g id="patch_284">
    <path clip-path="url(#pd2478ff9d8)" d="M 306.844393 284.258625 
L 307.764094 284.258625 
L 307.764094 258.682111 
L 306.844393 258.682111 
z
" style="fill:#d62728;"/>
   </g>
   <g id="patch_285">
    <path clip-path="url(#pd2478ff9d8)" d="M 307.764094 284.258625 
L 308.683796 284.258625 
L 308.683796 267.982662 
L 307.764094 267.982662 
z
" style="fill:#d62728;"/>
   </g>
   <g id="patch_286">
    <path clip-path="url(#pd2478ff9d8)" d="M 308.683796 284.258625 
L 309.603497 284.258625 
L 309.603497 265.657524 
L 308.683796 265.657524 
z
" style="fill:#d62728;"/>
   </g>
   <g id="patch_287">
    <path clip-path="url(#pd2478ff9d8)" d="M 309.603497 284.258625 
L 310.523198 284.258625 
L 310.523198 256.356974 
L 309.603497 256.356974 
z
" style="fill:#d62728;"/>
   </g>
   <g id="patch_288">
    <path clip-path="url(#pd2478ff9d8)" d="M 310.523198 284.258625 
L 311.442899 284.258625 
L 311.442899 235.430735 
L 310.523198 235.430735 
z
" style="fill:#d62728;"/>
   </g>
   <g id="patch_289">
    <path clip-path="url(#pd2478ff9d8)" d="M 311.442899 284.258625 
L 312.362601 284.258625 
L 312.362601 216.829634 
L 311.442899 216.829634 
z
" style="fill:#d62728;"/>
   </g>
   <g id="patch_290">
    <path clip-path="url(#pd2478ff9d8)" d="M 312.362601 284.258625 
L 313.282302 284.258625 
L 313.282302 230.78046 
L 312.362601 230.78046 
z
" style="fill:#d62728;"/>
   </g>
   <g id="patch_291">
    <path clip-path="url(#pd2478ff9d8)" d="M 313.282302 284.258625 
L 314.202003 284.258625 
L 314.202003 209.854221 
L 313.282302 209.854221 
z
" style="fill:#d62728;"/>
   </g>
   <g id="patch_292">
    <path clip-path="url(#pd2478ff9d8)" d="M 314.202003 284.258625 
L 315.121704 284.258625 
L 315.121704 254.031836 
L 314.202003 254.031836 
z
" style="fill:#d62728;"/>
   </g>
   <g id="patch_293">
    <path clip-path="url(#pd2478ff9d8)" d="M 315.121704 284.258625 
L 316.041406 284.258625 
L 316.041406 237.755873 
L 315.121704 237.755873 
z
" style="fill:#d62728;"/>
   </g>
   <g id="patch_294">
    <path clip-path="url(#pd2478ff9d8)" d="M 316.041406 284.258625 
L 316.961107 284.258625 
L 316.961107 207.529084 
L 316.041406 207.529084 
z
" style="fill:#d62728;"/>
   </g>
   <g id="patch_295">
    <path clip-path="url(#pd2478ff9d8)" d="M 316.961107 284.258625 
L 317.880808 284.258625 
L 317.880808 188.927983 
L 316.961107 188.927983 
z
" style="fill:#d62728;"/>
   </g>
   <g id="patch_296">
    <path clip-path="url(#pd2478ff9d8)" d="M 317.880808 284.258625 
L 318.80051 284.258625 
L 318.80051 221.479909 
L 317.880808 221.479909 
z
" style="fill:#d62728;"/>
   </g>
   <g id="patch_297">
    <path clip-path="url(#pd2478ff9d8)" d="M 318.80051 284.258625 
L 319.720211 284.258625 
L 319.720211 184.277708 
L 318.80051 184.277708 
z
" style="fill:#d62728;"/>
   </g>
   <g id="patch_298">
    <path clip-path="url(#pd2478ff9d8)" d="M 319.720211 284.258625 
L 320.639912 284.258625 
L 320.639912 209.854221 
L 319.720211 209.854221 
z
" style="fill:#d62728;"/>
   </g>
   <g id="patch_299">
    <path clip-path="url(#pd2478ff9d8)" d="M 320.639912 284.258625 
L 321.559613 284.258625 
L 321.559613 237.755873 
L 320.639912 237.755873 
z
" style="fill:#d62728;"/>
   </g>
   <g id="patch_300">
    <path clip-path="url(#pd2478ff9d8)" d="M 321.559613 284.258625 
L 322.479315 284.258625 
L 322.479315 174.977157 
L 321.559613 174.977157 
z
" style="fill:#d62728;"/>
   </g>
   <g id="patch_301">
    <path clip-path="url(#pd2478ff9d8)" d="M 322.479315 284.258625 
L 323.399016 284.258625 
L 323.399016 195.903396 
L 322.479315 195.903396 
z
" style="fill:#d62728;"/>
   </g>
   <g id="patch_302">
    <path clip-path="url(#pd2478ff9d8)" d="M 323.399016 284.258625 
L 324.318717 284.258625 
L 324.318717 179.627432 
L 323.399016 179.627432 
z
" style="fill:#d62728;"/>
   </g>
   <g id="patch_303">
    <path clip-path="url(#pd2478ff9d8)" d="M 324.318717 284.258625 
L 325.238418 284.258625 
L 325.238418 198.228533 
L 324.318717 198.228533 
z
" style="fill:#d62728;"/>
   </g>
   <g id="patch_304">
    <path clip-path="url(#pd2478ff9d8)" d="M 325.238418 284.258625 
L 326.15812 284.258625 
L 326.15812 209.854221 
L 325.238418 209.854221 
z
" style="fill:#d62728;"/>
   </g>
   <g id="patch_305">
    <path clip-path="url(#pd2478ff9d8)" d="M 326.15812 284.258625 
L 327.077821 284.258625 
L 327.077821 219.154772 
L 326.15812 219.154772 
z
" style="fill:#d62728;"/>
   </g>
   <g id="patch_306">
    <path clip-path="url(#pd2478ff9d8)" d="M 327.077821 284.258625 
L 327.997522 284.258625 
L 327.997522 230.78046 
L 327.077821 230.78046 
z
" style="fill:#d62728;"/>
   </g>
   <g id="patch_307">
    <path clip-path="url(#pd2478ff9d8)" d="M 327.997522 284.258625 
L 328.917223 284.258625 
L 328.917223 149.400643 
L 327.997522 149.400643 
z
" style="fill:#d62728;"/>
   </g>
   <g id="patch_308">
    <path clip-path="url(#pd2478ff9d8)" d="M 328.917223 284.258625 
L 329.836925 284.258625 
L 329.836925 179.627432 
L 328.917223 179.627432 
z
" style="fill:#d62728;"/>
   </g>
   <g id="patch_309">
    <path clip-path="url(#pd2478ff9d8)" d="M 329.836925 284.258625 
L 330.756626 284.258625 
L 330.756626 165.676607 
L 329.836925 165.676607 
z
" style="fill:#d62728;"/>
   </g>
   <g id="patch_310">
    <path clip-path="url(#pd2478ff9d8)" d="M 330.756626 284.258625 
L 331.676327 284.258625 
L 331.676327 181.95257 
L 330.756626 181.95257 
z
" style="fill:#d62728;"/>
   </g>
   <g id="patch_311">
    <path clip-path="url(#pd2478ff9d8)" d="M 331.676327 284.258625 
L 332.596028 284.258625 
L 332.596028 179.627432 
L 331.676327 179.627432 
z
" style="fill:#d62728;"/>
   </g>
   <g id="patch_312">
    <path clip-path="url(#pd2478ff9d8)" d="M 332.596028 284.258625 
L 333.51573 284.258625 
L 333.51573 179.627432 
L 332.596028 179.627432 
z
" style="fill:#d62728;"/>
   </g>
   <g id="patch_313">
    <path clip-path="url(#pd2478ff9d8)" d="M 333.51573 284.258625 
L 334.435431 284.258625 
L 334.435431 221.479909 
L 333.51573 221.479909 
z
" style="fill:#d62728;"/>
   </g>
   <g id="patch_314">
    <path clip-path="url(#pd2478ff9d8)" d="M 334.435431 284.258625 
L 335.355132 284.258625 
L 335.355132 181.95257 
L 334.435431 181.95257 
z
" style="fill:#d62728;"/>
   </g>
   <g id="patch_315">
    <path clip-path="url(#pd2478ff9d8)" d="M 335.355132 284.258625 
L 336.274833 284.258625 
L 336.274833 168.001744 
L 335.355132 168.001744 
z
" style="fill:#d62728;"/>
   </g>
   <g id="patch_316">
    <path clip-path="url(#pd2478ff9d8)" d="M 336.274833 284.258625 
L 337.194535 284.258625 
L 337.194535 154.050919 
L 336.274833 154.050919 
z
" style="fill:#d62728;"/>
   </g>
   <g id="patch_317">
    <path clip-path="url(#pd2478ff9d8)" d="M 337.194535 284.258625 
L 338.114236 284.258625 
L 338.114236 156.376056 
L 337.194535 156.376056 
z
" style="fill:#d62728;"/>
   </g>
   <g id="patch_318">
    <path clip-path="url(#pd2478ff9d8)" d="M 338.114236 284.258625 
L 339.033937 284.258625 
L 339.033937 168.001744 
L 338.114236 168.001744 
z
" style="fill:#d62728;"/>
   </g>
   <g id="patch_319">
    <path clip-path="url(#pd2478ff9d8)" d="M 339.033937 284.258625 
L 339.953639 284.258625 
L 339.953639 149.400643 
L 339.033937 149.400643 
z
" style="fill:#d62728;"/>
   </g>
   <g id="patch_320">
    <path clip-path="url(#pd2478ff9d8)" d="M 339.953639 284.258625 
L 340.87334 284.258625 
L 340.87334 193.578258 
L 339.953639 193.578258 
z
" style="fill:#d62728;"/>
   </g>
   <g id="patch_321">
    <path clip-path="url(#pd2478ff9d8)" d="M 340.87334 284.258625 
L 341.793041 284.258625 
L 341.793041 158.701194 
L 340.87334 158.701194 
z
" style="fill:#d62728;"/>
   </g>
   <g id="patch_322">
    <path clip-path="url(#pd2478ff9d8)" d="M 341.793041 284.258625 
L 342.712742 284.258625 
L 342.712742 184.277708 
L 341.793041 184.277708 
z
" style="fill:#d62728;"/>
   </g>
   <g id="patch_323">
    <path clip-path="url(#pd2478ff9d8)" d="M 342.712742 284.258625 
L 343.632444 284.258625 
L 343.632444 133.12468 
L 342.712742 133.12468 
z
" style="fill:#d62728;"/>
   </g>
   <g id="patch_324">
    <path clip-path="url(#pd2478ff9d8)" d="M 343.632444 284.258625 
L 344.552145 284.258625 
L 344.552145 177.302295 
L 343.632444 177.302295 
z
" style="fill:#d62728;"/>
   </g>
   <g id="patch_325">
    <path clip-path="url(#pd2478ff9d8)" d="M 344.552145 284.258625 
L 345.471846 284.258625 
L 345.471846 158.701194 
L 344.552145 158.701194 
z
" style="fill:#d62728;"/>
   </g>
   <g id="patch_326">
    <path clip-path="url(#pd2478ff9d8)" d="M 345.471846 284.258625 
L 346.391547 284.258625 
L 346.391547 205.203946 
L 345.471846 205.203946 
z
" style="fill:#d62728;"/>
   </g>
   <g id="patch_327">
    <path clip-path="url(#pd2478ff9d8)" d="M 346.391547 284.258625 
L 347.311249 284.258625 
L 347.311249 165.676607 
L 346.391547 165.676607 
z
" style="fill:#d62728;"/>
   </g>
   <g id="patch_328">
    <path clip-path="url(#pd2478ff9d8)" d="M 347.311249 284.258625 
L 348.23095 284.258625 
L 348.23095 154.050919 
L 347.311249 154.050919 
z
" style="fill:#d62728;"/>
   </g>
   <g id="patch_329">
    <path clip-path="url(#pd2478ff9d8)" d="M 348.23095 284.258625 
L 349.150651 284.258625 
L 349.150651 135.449818 
L 348.23095 135.449818 
z
" style="fill:#d62728;"/>
   </g>
   <g id="patch_330">
    <path clip-path="url(#pd2478ff9d8)" d="M 349.150651 284.258625 
L 350.070352 284.258625 
L 350.070352 116.848717 
L 349.150651 116.848717 
z
" style="fill:#d62728;"/>
   </g>
   <g id="patch_331">
    <path clip-path="url(#pd2478ff9d8)" d="M 350.070352 284.258625 
L 350.990054 284.258625 
L 350.990054 130.799542 
L 350.070352 130.799542 
z
" style="fill:#d62728;"/>
   </g>
   <g id="patch_332">
    <path clip-path="url(#pd2478ff9d8)" d="M 350.990054 284.258625 
L 351.909755 284.258625 
L 351.909755 109.873304 
L 350.990054 109.873304 
z
" style="fill:#d62728;"/>
   </g>
   <g id="patch_333">
    <path clip-path="url(#pd2478ff9d8)" d="M 351.909755 284.258625 
L 352.829456 284.258625 
L 352.829456 135.449818 
L 351.909755 135.449818 
z
" style="fill:#d62728;"/>
   </g>
   <g id="patch_334">
    <path clip-path="url(#pd2478ff9d8)" d="M 352.829456 284.258625 
L 353.749157 284.258625 
L 353.749157 172.652019 
L 352.829456 172.652019 
z
" style="fill:#d62728;"/>
   </g>
   <g id="patch_335">
    <path clip-path="url(#pd2478ff9d8)" d="M 353.749157 284.258625 
L 354.668859 284.258625 
L 354.668859 168.001744 
L 353.749157 168.001744 
z
" style="fill:#d62728;"/>
   </g>
   <g id="patch_336">
    <path clip-path="url(#pd2478ff9d8)" d="M 354.668859 284.258625 
L 355.58856 284.258625 
L 355.58856 165.676607 
L 354.668859 165.676607 
z
" style="fill:#d62728;"/>
   </g>
   <g id="patch_337">
    <path clip-path="url(#pd2478ff9d8)" d="M 355.58856 284.258625 
L 356.508261 284.258625 
L 356.508261 79.646515 
L 355.58856 79.646515 
z
" style="fill:#d62728;"/>
   </g>
   <g id="patch_338">
    <path clip-path="url(#pd2478ff9d8)" d="M 356.508261 284.258625 
L 357.427963 284.258625 
L 357.427963 93.597341 
L 356.508261 93.597341 
z
" style="fill:#d62728;"/>
   </g>
   <g id="patch_339">
    <path clip-path="url(#pd2478ff9d8)" d="M 357.427963 284.258625 
L 358.347664 284.258625 
L 358.347664 133.12468 
L 357.427963 133.12468 
z
" style="fill:#d62728;"/>
   </g>
   <g id="patch_340">
    <path clip-path="url(#pd2478ff9d8)" d="M 358.347664 284.258625 
L 359.267365 284.258625 
L 359.267365 130.799542 
L 358.347664 130.799542 
z
" style="fill:#d62728;"/>
   </g>
   <g id="patch_341">
    <path clip-path="url(#pd2478ff9d8)" d="M 359.267365 284.258625 
L 360.187066 284.258625 
L 360.187066 156.376056 
L 359.267365 156.376056 
z
" style="fill:#d62728;"/>
   </g>
   <g id="patch_342">
    <path clip-path="url(#pd2478ff9d8)" d="M 360.187066 284.258625 
L 361.106768 284.258625 
L 361.106768 174.977157 
L 360.187066 174.977157 
z
" style="fill:#d62728;"/>
   </g>
   <g id="patch_343">
    <path clip-path="url(#pd2478ff9d8)" d="M 361.106768 284.258625 
L 362.026469 284.258625 
L 362.026469 54.070001 
L 361.106768 54.070001 
z
" style="fill:#d62728;"/>
   </g>
   <g id="patch_344">
    <path clip-path="url(#pd2478ff9d8)" d="M 362.026469 284.258625 
L 362.94617 284.258625 
L 362.94617 61.045414 
L 362.026469 61.045414 
z
" style="fill:#d62728;"/>
   </g>
   <g id="patch_345">
    <path clip-path="url(#pd2478ff9d8)" d="M 362.94617 284.258625 
L 363.865871 284.258625 
L 363.865871 81.971653 
L 362.94617 81.971653 
z
" style="fill:#d62728;"/>
   </g>
   <g id="patch_346">
    <path clip-path="url(#pd2478ff9d8)" d="M 363.865871 284.258625 
L 364.785573 284.258625 
L 364.785573 40.119175 
L 363.865871 40.119175 
z
" style="fill:#d62728;"/>
   </g>
   <g id="patch_347">
    <path clip-path="url(#pd2478ff9d8)" d="M 364.785573 284.258625 
L 365.705274 284.258625 
L 365.705274 88.947065 
L 364.785573 88.947065 
z
" style="fill:#d62728;"/>
   </g>
   <g id="patch_348">
    <path clip-path="url(#pd2478ff9d8)" d="M 365.705274 284.258625 
L 366.624975 284.258625 
L 366.624975 133.12468 
L 365.705274 133.12468 
z
" style="fill:#d62728;"/>
   </g>
   <g id="patch_349">
    <path clip-path="url(#pd2478ff9d8)" d="M 366.624975 284.258625 
L 367.544676 284.258625 
L 367.544676 112.198442 
L 366.624975 112.198442 
z
" style="fill:#d62728;"/>
   </g>
   <g id="patch_350">
    <path clip-path="url(#pd2478ff9d8)" d="M 367.544676 284.258625 
L 368.464378 284.258625 
L 368.464378 65.695689 
L 367.544676 65.695689 
z
" style="fill:#d62728;"/>
   </g>
   <g id="patch_351">
    <path clip-path="url(#pd2478ff9d8)" d="M 368.464378 284.258625 
L 369.384079 284.258625 
L 369.384079 30.818625 
L 368.464378 30.818625 
z
" style="fill:#d62728;"/>
   </g>
   <g id="patch_352">
    <path clip-path="url(#pd2478ff9d8)" d="M 369.384079 284.258625 
L 370.30378 284.258625 
L 370.30378 74.99624 
L 369.384079 74.99624 
z
" style="fill:#d62728;"/>
   </g>
   <g id="patch_353">
    <path clip-path="url(#pd2478ff9d8)" d="M 370.30378 284.258625 
L 371.223481 284.258625 
L 371.223481 65.695689 
L 370.30378 65.695689 
z
" style="fill:#d62728;"/>
   </g>
   <g id="patch_354">
    <path clip-path="url(#pd2478ff9d8)" d="M 371.223481 284.258625 
L 372.143183 284.258625 
L 372.143183 33.143763 
L 371.223481 33.143763 
z
" style="fill:#d62728;"/>
   </g>
   <g id="patch_355">
    <path clip-path="url(#pd2478ff9d8)" d="M 372.143183 284.258625 
L 373.062884 284.258625 
L 373.062884 126.149267 
L 372.143183 126.149267 
z
" style="fill:#d62728;"/>
   </g>
   <g id="patch_356">
    <path clip-path="url(#pd2478ff9d8)" d="M 373.062884 284.258625 
L 373.982585 284.258625 
L 373.982585 116.848717 
L 373.062884 116.848717 
z
" style="fill:#d62728;"/>
   </g>
   <g id="matplotlib.axis_1">
    <g id="xtick_1">
     <g id="line2d_1">
      <defs>
       <path d="M 0 0 
L 0 3.5 
" id="m60a3dfd9d2" style="stroke:#000000;stroke-width:0.8;"/>
      </defs>
      <g>
       <use style="stroke:#000000;stroke-width:0.8;" x="63.583409" xlink:href="#m60a3dfd9d2" y="284.258625"/>
      </g>
     </g>
     <g id="text_1">
      <!-- Mar -->
      <g transform="translate(54.474034 298.74925)scale(0.1 -0.1)">
       <defs>
        <path d="M 80.421875 0.984375 
L 71.828125 0.984375 
L 71.828125 39.59375 
Q 71.828125 51.265625 72.40625 64.59375 
L 72.015625 64.59375 
Q 68.0625 53.265625 63.53125 41.796875 
L 47.90625 3.265625 
L 41.40625 3.265625 
L 25.640625 42.578125 
Q 20.75 54.78125 17.625 64.703125 
L 17.234375 64.703125 
Q 17.828125 48.921875 17.828125 39.890625 
L 17.828125 0.984375 
L 9.515625 0.984375 
L 9.515625 72.40625 
L 22.125 72.40625 
L 39.109375 30.375 
Q 42.140625 23 44.828125 14.15625 
L 45.125 14.15625 
Q 47.3125 22.125 50.53125 30.171875 
L 67.4375 72.40625 
L 80.421875 72.40625 
z
" id="IPAexGothic-77"/>
        <path d="M 49.3125 0.984375 
L 41.75 0.984375 
Q 39.984375 4.734375 39.546875 8.6875 
L 39.203125 8.6875 
Q 33.546875 -0.390625 22.3125 -0.390625 
Q 14.59375 -0.390625 9.71875 4.5 
Q 5.421875 8.796875 5.421875 14.984375 
Q 5.421875 30.421875 32.03125 31.203125 
L 38.71875 31.390625 
L 38.71875 33.984375 
Q 38.71875 39.203125 35.75 42.1875 
Q 32.625 45.3125 27.734375 45.3125 
Q 19.34375 45.3125 15.140625 37.15625 
L 7.71875 40.578125 
Q 14.65625 52 27.9375 52 
Q 37.109375 52 42.046875 46.875 
Q 46.625 42.28125 46.625 33.890625 
L 46.625 15.578125 
Q 46.625 6.25 49.3125 0.984375 
z
M 38.921875 25.390625 
L 33.453125 25.296875 
Q 14.109375 24.859375 14.109375 14.890625 
Q 14.109375 11.375 16.40625 9.078125 
Q 19.234375 6.296875 23.828125 6.296875 
Q 30.21875 6.296875 34.90625 10.984375 
Q 38.921875 15.140625 38.921875 21 
z
" id="IPAexGothic-97"/>
        <path d="M 36.078125 51.8125 
L 34.578125 43.265625 
Q 32.90625 43.609375 31.59375 43.609375 
Q 25.828125 43.609375 22.078125 38.1875 
Q 17.390625 31.34375 17.390625 26.171875 
L 17.390625 0.984375 
L 8.796875 0.984375 
L 8.796875 50.78125 
L 16.890625 50.78125 
L 16.5 35.984375 
L 16.703125 35.984375 
Q 22.21875 52.203125 32.765625 52.203125 
Q 34.46875 52.203125 36.078125 51.8125 
z
" id="IPAexGothic-114"/>
       </defs>
       <use xlink:href="#IPAexGothic-77"/>
       <use x="90.185547" xlink:href="#IPAexGothic-97"/>
       <use x="145.166016" xlink:href="#IPAexGothic-114"/>
      </g>
     </g>
    </g>
    <g id="xtick_2">
     <g id="line2d_2">
      <g>
       <use style="stroke:#000000;stroke-width:0.8;" x="119.685186" xlink:href="#m60a3dfd9d2" y="284.258625"/>
      </g>
     </g>
     <g id="text_2">
      <!-- May -->
      <g transform="translate(109.965655 298.74925)scale(0.1 -0.1)">
       <defs>
        <path d="M 48.78125 50.78125 
L 24.609375 -7.625 
Q 19.96875 -18.796875 8.59375 -18.796875 
L 7.46875 -18.796875 
L 5.375 -10.984375 
L 6.984375 -10.984375 
Q 15.140625 -10.984375 17.96875 -3.71875 
L 21.1875 4.296875 
L 0.59375 50.78125 
L 10.296875 50.78125 
L 21.296875 22.796875 
Q 23.875 16.015625 25.09375 12.203125 
L 25.390625 12.203125 
Q 27.34375 18.265625 29.109375 22.796875 
L 39.5 50.78125 
z
" id="IPAexGothic-121"/>
       </defs>
       <use xlink:href="#IPAexGothic-77"/>
       <use x="90.185547" xlink:href="#IPAexGothic-97"/>
       <use x="145.166016" xlink:href="#IPAexGothic-121"/>
      </g>
     </g>
    </g>
    <g id="xtick_3">
     <g id="line2d_3">
      <g>
       <use style="stroke:#000000;stroke-width:0.8;" x="175.786963" xlink:href="#m60a3dfd9d2" y="284.258625"/>
      </g>
     </g>
     <g id="text_3">
      <!-- Jul -->
      <g transform="translate(169.517432 298.74925)scale(0.1 -0.1)">
       <defs>
        <path d="M 28.421875 72.40625 
L 28.421875 19.28125 
Q 28.421875 -0.484375 11.921875 -0.484375 
Q 4.734375 -0.484375 -1.953125 3.265625 
L 1.3125 10.0625 
Q 5.90625 6.984375 10.84375 6.984375 
Q 19.53125 6.984375 19.53125 18.796875 
L 19.53125 72.40625 
z
" id="IPAexGothic-74"/>
        <path d="M 51.3125 0.984375 
L 43.3125 0.984375 
L 43.3125 10.0625 
Q 35.9375 0 25.390625 0 
Q 16.75 0 11.921875 5.859375 
Q 8.109375 10.59375 8.109375 19.390625 
L 8.109375 50.78125 
L 16.703125 50.78125 
L 16.703125 19.671875 
Q 16.703125 7.28125 27.09375 7.28125 
Q 37.59375 7.28125 42.71875 20.171875 
L 42.71875 50.78125 
L 51.3125 50.78125 
z
" id="IPAexGothic-117"/>
        <path d="M 17.671875 0.984375 
L 9.078125 0.984375 
L 9.078125 74.90625 
L 17.671875 74.90625 
z
" id="IPAexGothic-108"/>
       </defs>
       <use xlink:href="#IPAexGothic-74"/>
       <use x="37.988281" xlink:href="#IPAexGothic-117"/>
       <use x="98.388672" xlink:href="#IPAexGothic-108"/>
      </g>
     </g>
    </g>
    <g id="xtick_4">
     <g id="line2d_4">
      <g>
       <use style="stroke:#000000;stroke-width:0.8;" x="232.808442" xlink:href="#m60a3dfd9d2" y="284.258625"/>
      </g>
     </g>
     <g id="text_4">
      <!-- Sep -->
      <g transform="translate(223.933442 298.74925)scale(0.1 -0.1)">
       <defs>
        <path d="M 45.609375 56.890625 
Q 40.046875 66.546875 28.953125 66.546875 
Q 22.703125 66.546875 18.953125 62.640625 
Q 16.0625 59.421875 16.0625 55.21875 
Q 16.0625 50.59375 19.78125 47.609375 
Q 22.5625 45.515625 31 42 
L 34.375 40.578125 
Q 45.703125 36.03125 49.859375 30.515625 
Q 53.46875 25.6875 53.46875 19.671875 
Q 53.46875 10.0625 46.390625 4.5 
Q 39.984375 -0.484375 30.171875 -0.484375 
Q 13.765625 -0.484375 4.890625 11.96875 
L 11.765625 17.1875 
Q 18.796875 7.171875 30.28125 7.171875 
Q 35.75 7.171875 39.59375 9.765625 
Q 44.390625 13.234375 44.390625 19 
Q 44.390625 23.484375 40.875 27 
Q 37.109375 30.609375 27 34.46875 
L 24.078125 35.59375 
Q 7.078125 42.09375 7.078125 54.390625 
Q 7.078125 62.59375 12.59375 67.921875 
Q 18.796875 73.828125 29.109375 73.828125 
Q 44.390625 73.828125 52.484375 61.8125 
z
" id="IPAexGothic-83"/>
        <path d="M 13.484375 24.90625 
Q 13.921875 16.265625 18.890625 11.28125 
Q 23.96875 6.203125 31.203125 6.203125 
Q 40.71875 6.203125 46.296875 15.09375 
L 51.90625 11.375 
Q 44.828125 -0.484375 30.171875 -0.484375 
Q 19.09375 -0.484375 11.96875 6.59375 
Q 4.78125 13.8125 4.78125 25.640625 
Q 4.78125 38.1875 12.3125 45.703125 
Q 19 52.390625 29 52.390625 
Q 38.421875 52.390625 44.78125 46.1875 
Q 51.90625 38.96875 51.90625 26.90625 
L 51.90625 24.90625 
z
M 43.0625 31.203125 
Q 42.328125 37.984375 38.28125 41.890625 
Q 34.28125 45.90625 28.8125 45.90625 
Q 22.46875 45.90625 17.96875 40.484375 
Q 14.890625 36.8125 13.96875 31.203125 
z
" id="IPAexGothic-101"/>
        <path d="M 16.796875 42 
Q 23.828125 52.203125 34.46875 52.203125 
Q 43.265625 52.203125 49.5625 45.90625 
Q 56.890625 38.578125 56.890625 25.6875 
Q 56.890625 13.140625 49.65625 5.8125 
Q 43.359375 -0.484375 34.375 -0.484375 
Q 24.515625 -0.484375 17.28125 7.765625 
L 17.28125 -19 
L 8.796875 -19 
L 8.796875 50.78125 
L 16.796875 50.78125 
z
M 17.28125 30.46875 
L 17.28125 20.171875 
Q 17.28125 14.015625 23.6875 9.375 
Q 27.984375 6.296875 32.90625 6.296875 
Q 38.578125 6.296875 42.578125 10.296875 
Q 47.90625 15.578125 47.90625 25.484375 
Q 47.90625 34.375 43.5 39.984375 
Q 39.109375 45.3125 32.8125 45.3125 
Q 25.875 45.3125 20.90625 38.8125 
Q 17.28125 34.125 17.28125 30.46875 
z
" id="IPAexGothic-112"/>
       </defs>
       <use xlink:href="#IPAexGothic-83"/>
       <use x="58.496094" xlink:href="#IPAexGothic-101"/>
       <use x="115.380859" xlink:href="#IPAexGothic-112"/>
      </g>
     </g>
    </g>
    <g id="xtick_5">
     <g id="line2d_5">
      <g>
       <use style="stroke:#000000;stroke-width:0.8;" x="288.910219" xlink:href="#m60a3dfd9d2" y="284.258625"/>
      </g>
     </g>
     <g id="text_5">
      <!-- Nov -->
      <g transform="translate(279.661781 298.74925)scale(0.1 -0.1)">
       <defs>
        <path d="M 66.3125 0.984375 
L 58.296875 0.984375 
L 26.515625 49.21875 
Q 22.90625 54.6875 17.828125 64.015625 
L 17.4375 64.015625 
L 17.625 59.328125 
Q 18.109375 43.796875 18.109375 38.578125 
L 18.109375 0.984375 
L 9.515625 0.984375 
L 9.515625 72.40625 
L 21.34375 72.40625 
L 48.640625 30.90625 
Q 53.953125 22.609375 58.015625 15.09375 
L 58.40625 15.09375 
Q 57.71875 29.640625 57.71875 38.578125 
L 57.71875 72.40625 
L 66.3125 72.40625 
z
" id="IPAexGothic-78"/>
        <path d="M 29.984375 52.203125 
Q 40.53125 52.203125 47.75 45.125 
Q 55.171875 37.703125 55.171875 25.59375 
Q 55.171875 13.875 47.90625 6.59375 
Q 40.765625 -0.484375 29.984375 -0.484375 
Q 19.1875 -0.484375 12.203125 6.5 
Q 4.890625 13.765625 4.890625 25.875 
Q 4.890625 37.703125 12.3125 45.125 
Q 19.390625 52.203125 29.984375 52.203125 
z
M 29.984375 45.609375 
Q 23.734375 45.609375 19.390625 41.109375 
Q 13.875 35.59375 13.875 25.78125 
Q 13.875 16.109375 19.28125 10.6875 
Q 23.6875 6.296875 29.984375 6.296875 
Q 36.421875 6.296875 40.765625 10.796875 
Q 46.1875 16.21875 46.1875 26.125 
Q 46.1875 35.453125 40.671875 41.109375 
Q 36.1875 45.609375 29.984375 45.609375 
z
" id="IPAexGothic-111"/>
        <path d="M 48.484375 50.78125 
L 27.296875 0.09375 
L 21.484375 0.09375 
L 0.390625 50.78125 
L 9.8125 50.78125 
L 20.90625 21.6875 
L 23.78125 13.1875 
L 24.515625 10.984375 
L 24.8125 10.984375 
Q 25.640625 13.8125 28.46875 21.6875 
L 39.3125 50.78125 
z
" id="IPAexGothic-118"/>
       </defs>
       <use xlink:href="#IPAexGothic-78"/>
       <use x="75.976562" xlink:href="#IPAexGothic-111"/>
       <use x="136.376953" xlink:href="#IPAexGothic-118"/>
      </g>
     </g>
    </g>
    <g id="xtick_6">
     <g id="line2d_6">
      <g>
       <use style="stroke:#000000;stroke-width:0.8;" x="345.011995" xlink:href="#m60a3dfd9d2" y="284.258625"/>
      </g>
     </g>
     <g id="text_6">
      <!-- 2021 -->
      <g transform="translate(332.41512 298.74925)scale(0.1 -0.1)">
       <defs>
        <path d="M 57.171875 0.984375 
L 6.984375 0.984375 
L 6.984375 9.28125 
Q 12.890625 23.046875 29.59375 34.421875 
L 32.375 36.28125 
Q 40.921875 42.140625 43.609375 45.40625 
Q 46.6875 49.265625 46.6875 53.8125 
Q 46.6875 58.9375 43.0625 62.546875 
Q 39.0625 66.546875 32.5625 66.546875 
Q 19.53125 66.546875 15.484375 52 
L 7.765625 54.78125 
Q 13.328125 73.828125 33.0625 73.828125 
Q 43.84375 73.828125 50.25 67.4375 
Q 55.859375 61.671875 55.859375 53.515625 
Q 55.859375 47.46875 52.25 42.53125 
Q 48.921875 37.75 36.96875 30.28125 
L 34.859375 29 
Q 19.625 19.578125 15.28125 8.890625 
L 57.171875 8.890625 
z
" id="IPAexGothic-50"/>
        <path d="M 31.84375 73.828125 
Q 45.015625 73.828125 52.09375 61.625 
Q 57.71875 51.953125 57.71875 36.625 
Q 57.71875 21.4375 52.09375 11.578125 
Q 45.125 -0.484375 31.5 -0.484375 
Q 17.921875 -0.484375 10.9375 11.578125 
Q 5.328125 21.4375 5.328125 36.71875 
Q 5.328125 58.015625 15.625 67.71875 
Q 22.171875 73.828125 31.84375 73.828125 
z
M 31.5 66.65625 
Q 23.6875 66.65625 19.1875 58.734375 
Q 14.59375 50.734375 14.59375 36.625 
Q 14.59375 22.75 19.09375 14.796875 
Q 23.640625 6.984375 31.5 6.984375 
Q 40.921875 6.984375 45.453125 18.015625 
Q 48.4375 25.34375 48.4375 37.109375 
Q 48.4375 50.875 43.84375 58.734375 
Q 39.203125 66.65625 31.5 66.65625 
z
" id="IPAexGothic-48"/>
        <path d="M 38.484375 0.984375 
L 29.6875 0.984375 
L 29.6875 64.109375 
Q 21.4375 61.28125 12.3125 59.328125 
L 10.6875 66.109375 
Q 23.734375 69.390625 32.90625 73.921875 
L 38.484375 73.921875 
z
" id="IPAexGothic-49"/>
       </defs>
       <use xlink:href="#IPAexGothic-50"/>
       <use x="62.988281" xlink:href="#IPAexGothic-48"/>
       <use x="125.976562" xlink:href="#IPAexGothic-50"/>
       <use x="188.964844" xlink:href="#IPAexGothic-49"/>
      </g>
     </g>
    </g>
    <g id="text_7">
     <!-- 2021 -->
     <g transform="translate(365.021562 311.139875)scale(0.1 -0.1)">
      <use xlink:href="#IPAexGothic-50"/>
      <use x="62.988281" xlink:href="#IPAexGothic-48"/>
      <use x="125.976562" xlink:href="#IPAexGothic-50"/>
      <use x="188.964844" xlink:href="#IPAexGothic-49"/>
     </g>
    </g>
   </g>
   <g id="matplotlib.axis_2">
    <g id="ytick_1">
     <g id="line2d_7">
      <defs>
       <path d="M 0 0 
L -3.5 0 
" id="mdb9dbe1bf1" style="stroke:#000000;stroke-width:0.8;"/>
      </defs>
      <g>
       <use style="stroke:#000000;stroke-width:0.8;" x="33.095313" xlink:href="#mdb9dbe1bf1" y="284.258625"/>
      </g>
     </g>
     <g id="text_8">
      <!-- 0 -->
      <g transform="translate(19.796875 288.003937)scale(0.1 -0.1)">
       <use xlink:href="#IPAexGothic-48"/>
      </g>
     </g>
    </g>
    <g id="ytick_2">
     <g id="line2d_8">
      <g>
       <use style="stroke:#000000;stroke-width:0.8;" x="33.095313" xlink:href="#mdb9dbe1bf1" y="237.755873"/>
      </g>
     </g>
     <g id="text_9">
      <!-- 20 -->
      <g transform="translate(13.498438 241.501185)scale(0.1 -0.1)">
       <use xlink:href="#IPAexGothic-50"/>
       <use x="62.988281" xlink:href="#IPAexGothic-48"/>
      </g>
     </g>
    </g>
    <g id="ytick_3">
     <g id="line2d_9">
      <g>
       <use style="stroke:#000000;stroke-width:0.8;" x="33.095313" xlink:href="#mdb9dbe1bf1" y="191.25312"/>
      </g>
     </g>
     <g id="text_10">
      <!-- 40 -->
      <g transform="translate(13.498438 194.998433)scale(0.1 -0.1)">
       <defs>
        <path d="M 59.578125 18.109375 
L 47.796875 18.109375 
L 47.796875 0.984375 
L 39.796875 0.984375 
L 39.796875 18.109375 
L 3.078125 18.109375 
L 3.078125 26.125 
L 38.375 73.09375 
L 47.796875 73.09375 
L 47.796875 25.53125 
L 59.578125 25.53125 
z
M 40.28125 64.203125 
L 39.984375 64.203125 
Q 35.59375 57.125 31.296875 51.3125 
L 11.859375 25.53125 
L 39.796875 25.53125 
L 39.796875 49.125 
Q 39.796875 54.390625 40.28125 64.203125 
z
" id="IPAexGothic-52"/>
       </defs>
       <use xlink:href="#IPAexGothic-52"/>
       <use x="62.988281" xlink:href="#IPAexGothic-48"/>
      </g>
     </g>
    </g>
    <g id="ytick_4">
     <g id="line2d_10">
      <g>
       <use style="stroke:#000000;stroke-width:0.8;" x="33.095313" xlink:href="#mdb9dbe1bf1" y="144.750368"/>
      </g>
     </g>
     <g id="text_11">
      <!-- 60 -->
      <g transform="translate(13.498438 148.495681)scale(0.1 -0.1)">
       <defs>
        <path d="M 16.5 36.375 
Q 23.578125 46.578125 34.90625 46.578125 
Q 45.40625 46.578125 51.8125 39.265625 
Q 57.421875 32.90625 57.421875 23.78125 
Q 57.421875 13.8125 51.125 6.78125 
Q 44.578125 -0.484375 34.03125 -0.484375 
Q 21.484375 -0.484375 14.40625 9.078125 
Q 7.515625 18.40625 7.515625 34.8125 
Q 7.515625 53.515625 15.828125 64.203125 
Q 23.34375 73.828125 35.5 73.828125 
Q 49.859375 73.828125 56.390625 62.890625 
L 49.21875 58.984375 
Q 45.21875 66.65625 35.9375 66.65625 
Q 17.484375 66.65625 16.109375 36.375 
z
M 33.453125 39.796875 
Q 26.3125 39.796875 21.625 34.46875 
Q 17.4375 29.6875 17.4375 24.078125 
Q 17.4375 18.0625 21.140625 13.1875 
Q 26.125 6.6875 33.734375 6.6875 
Q 41.703125 6.6875 45.953125 13.1875 
Q 48.828125 17.625 48.828125 23.484375 
Q 48.828125 30.375 45.015625 34.8125 
Q 40.625 39.796875 33.453125 39.796875 
z
" id="IPAexGothic-54"/>
       </defs>
       <use xlink:href="#IPAexGothic-54"/>
       <use x="62.988281" xlink:href="#IPAexGothic-48"/>
      </g>
     </g>
    </g>
    <g id="ytick_5">
     <g id="line2d_11">
      <g>
       <use style="stroke:#000000;stroke-width:0.8;" x="33.095313" xlink:href="#mdb9dbe1bf1" y="98.247616"/>
      </g>
     </g>
     <g id="text_12">
      <!-- 80 -->
      <g transform="translate(13.498438 101.992928)scale(0.1 -0.1)">
       <defs>
        <path d="M 39.703125 37.890625 
Q 57.8125 31.734375 57.8125 18.703125 
Q 57.8125 8.453125 48.4375 3.078125 
Q 41.609375 -0.875 31.5 -0.875 
Q 21.34375 -0.875 14.5 3.078125 
Q 5.421875 8.296875 5.421875 18.40625 
Q 5.421875 31.0625 22.015625 37.203125 
L 22.015625 37.5 
Q 7.515625 42.71875 7.515625 54.828125 
Q 7.515625 64.0625 15.328125 69.625 
Q 21.96875 74.3125 31.546875 74.3125 
Q 42.234375 74.3125 48.921875 68.796875 
Q 55.515625 63.578125 55.515625 55.71875 
Q 55.515625 42.28125 39.703125 38.1875 
z
M 31.59375 41.015625 
Q 46.828125 44.625 46.828125 55.125 
Q 46.828125 61.1875 41.796875 64.84375 
Q 37.703125 67.921875 31.5 67.921875 
Q 25.09375 67.921875 20.796875 64.5 
Q 16.40625 60.890625 16.40625 55.03125 
Q 16.40625 49.21875 21.09375 45.703125 
Q 23.34375 43.890625 26.90625 42.53125 
Q 31 40.875 31.59375 41.015625 
z
M 30.90625 34.515625 
Q 14.40625 30.171875 14.40625 19 
Q 14.40625 12.109375 20.515625 8.6875 
Q 25.09375 6.109375 31.390625 6.109375 
Q 40.234375 6.109375 45.015625 10.890625 
Q 48.53125 14.40625 48.53125 19.53125 
Q 48.53125 24.90625 43.65625 28.90625 
Q 40.765625 31.15625 36.71875 32.8125 
Q 31.984375 34.71875 30.90625 34.515625 
z
" id="IPAexGothic-56"/>
       </defs>
       <use xlink:href="#IPAexGothic-56"/>
       <use x="62.988281" xlink:href="#IPAexGothic-48"/>
      </g>
     </g>
    </g>
    <g id="ytick_6">
     <g id="line2d_12">
      <g>
       <use style="stroke:#000000;stroke-width:0.8;" x="33.095313" xlink:href="#mdb9dbe1bf1" y="51.744864"/>
      </g>
     </g>
     <g id="text_13">
      <!-- 100 -->
      <g transform="translate(7.2 55.490176)scale(0.1 -0.1)">
       <use xlink:href="#IPAexGothic-49"/>
       <use x="62.988281" xlink:href="#IPAexGothic-48"/>
       <use x="125.976562" xlink:href="#IPAexGothic-48"/>
      </g>
     </g>
    </g>
   </g>
   <g id="patch_357">
    <path d="M 33.095313 284.258625 
L 33.095313 18.146625 
" style="fill:none;stroke:#000000;stroke-linecap:square;stroke-linejoin:miter;stroke-width:0.8;"/>
   </g>
   <g id="patch_358">
    <path d="M 390.215312 284.258625 
L 390.215312 18.146625 
" style="fill:none;stroke:#000000;stroke-linecap:square;stroke-linejoin:miter;stroke-width:0.8;"/>
   </g>
   <g id="patch_359">
    <path d="M 33.095313 284.258625 
L 390.215313 284.258625 
" style="fill:none;stroke:#000000;stroke-linecap:square;stroke-linejoin:miter;stroke-width:0.8;"/>
   </g>
   <g id="patch_360">
    <path d="M 33.095313 18.146625 
L 390.215313 18.146625 
" style="fill:none;stroke:#000000;stroke-linecap:square;stroke-linejoin:miter;stroke-width:0.8;"/>
   </g>
   <g id="legend_1">
    <g id="patch_361">
     <path d="M 40.095313 40.53725 
L 105.001563 40.53725 
Q 107.001563 40.53725 107.001563 38.53725 
L 107.001563 25.146625 
Q 107.001563 23.146625 105.001563 23.146625 
L 40.095313 23.146625 
Q 38.095313 23.146625 38.095313 25.146625 
L 38.095313 38.53725 
Q 38.095313 40.53725 40.095313 40.53725 
z
" style="fill:#ffffff;opacity:0.8;stroke:#cccccc;stroke-linejoin:miter;"/>
    </g>
    <g id="patch_362">
     <path d="M 42.095313 34.63725 
L 62.095313 34.63725 
L 62.095313 27.63725 
L 42.095313 27.63725 
z
" style="fill:#d62728;"/>
    </g>
    <g id="text_14">
     <!-- Deaths -->
     <g transform="translate(70.095313 34.63725)scale(0.1 -0.1)">
      <defs>
       <path d="M 9.515625 72.40625 
L 31 72.40625 
Q 49.359375 72.40625 59.234375 63.28125 
Q 69.625 53.8125 69.625 36.8125 
Q 69.625 16.359375 54.9375 6.890625 
Q 45.703125 0.984375 30.328125 0.984375 
L 9.515625 0.984375 
z
M 18.3125 8.6875 
L 29.59375 8.6875 
Q 60.203125 8.6875 60.203125 36.8125 
Q 60.203125 64.796875 30.125 64.796875 
L 18.3125 64.796875 
z
" id="IPAexGothic-68"/>
       <path d="M 33.203125 3.765625 
Q 27.640625 -0.09375 21.828125 -0.09375 
Q 10.203125 -0.09375 10.203125 12.984375 
L 10.203125 44.671875 
L 3.421875 44.671875 
L 3.421875 50.78125 
L 10.203125 50.78125 
L 10.203125 61.96875 
L 18.40625 66.0625 
L 18.40625 50.78125 
L 32.234375 50.78125 
L 32.234375 44.671875 
L 18.40625 44.671875 
L 18.40625 14.15625 
Q 18.40625 6.5 23.640625 6.5 
Q 27.15625 6.5 30.328125 9.1875 
z
" id="IPAexGothic-116"/>
       <path d="M 52.296875 0.984375 
L 43.703125 0.984375 
L 43.703125 31.890625 
Q 43.703125 44.578125 33.296875 44.578125 
Q 22.609375 44.578125 17.671875 31.890625 
L 17.671875 0.984375 
L 9.078125 0.984375 
L 9.078125 74.90625 
L 17.671875 74.90625 
L 17.671875 42.28125 
Q 24.46875 51.8125 35.109375 51.8125 
Q 52.296875 51.8125 52.296875 32.375 
z
" id="IPAexGothic-104"/>
       <path d="M 34.90625 39.796875 
Q 30.28125 45.796875 23.1875 45.796875 
Q 13.921875 45.796875 13.921875 38.671875 
Q 13.921875 33.640625 23.921875 30.375 
L 27.203125 29.296875 
Q 41.40625 24.65625 41.40625 13.96875 
Q 41.40625 6.78125 35.5 2.6875 
Q 30.8125 -0.484375 23.390625 -0.484375 
Q 11.96875 -0.484375 4 7.859375 
L 9.421875 12.796875 
Q 15.578125 6.203125 23.6875 6.203125 
Q 33.296875 6.203125 33.296875 13.671875 
Q 33.296875 19.34375 22.703125 23.09375 
L 19.28125 24.265625 
Q 5.90625 28.953125 5.90625 37.984375 
Q 5.90625 43.703125 9.8125 47.609375 
Q 14.5 52.296875 22.703125 52.296875 
Q 33.6875 52.296875 40.71875 44.671875 
z
" id="IPAexGothic-115"/>
      </defs>
      <use xlink:href="#IPAexGothic-68"/>
      <use x="75.683594" xlink:href="#IPAexGothic-101"/>
      <use x="132.568359" xlink:href="#IPAexGothic-97"/>
      <use x="187.548828" xlink:href="#IPAexGothic-116"/>
      <use x="222.167969" xlink:href="#IPAexGothic-104"/>
      <use x="282.861328" xlink:href="#IPAexGothic-115"/>
     </g>
    </g>
   </g>
  </g>
  <g id="text_15">
   <!-- generated: 2021-02-02 20:01:01 JST -->
   <g transform="translate(213.980938 14.690625)scale(0.1 -0.1)">
    <defs>
     <path d="M 20.796875 17.96875 
Q 15.71875 17.53125 15.71875 14.0625 
Q 15.71875 9.578125 27.546875 8.984375 
L 33.296875 8.6875 
Q 51.609375 7.765625 51.609375 -4.59375 
Q 51.609375 -10.9375 45.703125 -14.984375 
Q 39.359375 -19.578125 28.03125 -19.578125 
Q 17.78125 -19.578125 11.53125 -16.0625 
Q 5.515625 -12.640625 5.515625 -6.6875 
Q 5.515625 1.3125 16.796875 3.859375 
L 16.796875 4.203125 
Q 7.90625 6.453125 7.90625 12.15625 
Q 7.90625 17.4375 15.53125 20.265625 
Q 7.125 24.609375 7.125 34.078125 
Q 7.125 41.40625 12.015625 46.296875 
Q 17.625 51.90625 27.15625 51.90625 
Q 33.203125 51.90625 37.84375 49.265625 
Q 41.40625 53.953125 50.921875 54.109375 
L 50.921875 47.078125 
Q 44.34375 46.921875 42.234375 45.90625 
Q 47.40625 40.828125 47.40625 33.890625 
Q 47.40625 27 42.71875 22.265625 
Q 37.5 17.09375 28.328125 17.09375 
Q 24.421875 17.09375 20.796875 17.96875 
z
M 27.09375 45.609375 
Q 22.015625 45.609375 18.703125 42.28125 
Q 15.4375 39.015625 15.4375 34.078125 
Q 15.4375 29.25 18.5 26.3125 
Q 21.828125 23 27.4375 23 
Q 32.71875 23 35.890625 26.21875 
Q 39.109375 29.390625 39.109375 34.421875 
Q 39.109375 39.015625 35.890625 42.1875 
Q 32.515625 45.609375 27.09375 45.609375 
z
M 27.390625 2.484375 
Q 14.109375 2.484375 14.109375 -5.71875 
Q 14.109375 -13.671875 28.125 -13.671875 
Q 37.15625 -13.671875 41.21875 -9.46875 
Q 43.3125 -7.515625 43.3125 -4.890625 
Q 43.3125 2.484375 27.390625 2.484375 
z
" id="IPAexGothic-103"/>
     <path d="M 52 0.984375 
L 43.40625 0.984375 
L 43.40625 31.890625 
Q 43.40625 44.578125 32.90625 44.578125 
Q 22.3125 44.578125 17.390625 31.890625 
L 17.390625 0.984375 
L 8.796875 0.984375 
L 8.796875 50.78125 
L 16.796875 50.78125 
L 16.796875 41.796875 
Q 23.828125 51.8125 34.71875 51.8125 
Q 52 51.8125 52 32.375 
z
" id="IPAexGothic-110"/>
     <path d="M 52.984375 0.984375 
L 45.171875 0.984375 
L 45.171875 9.671875 
Q 38.140625 -0.484375 27.390625 -0.484375 
Q 18.453125 -0.484375 12.3125 5.8125 
Q 4.890625 13.1875 4.890625 25.984375 
Q 4.890625 38.53125 12.0625 45.90625 
Q 18.265625 52.203125 27.390625 52.203125 
Q 37.25 52.203125 44.484375 43.890625 
L 44.484375 74.90625 
L 52.984375 74.90625 
z
M 44.484375 20.359375 
L 44.484375 32.765625 
Q 44.484375 37.703125 38.375 42.28125 
Q 34.078125 45.40625 28.953125 45.40625 
Q 23.1875 45.40625 19.1875 41.40625 
Q 13.875 36.078125 13.875 26.21875 
Q 13.875 17.328125 18.265625 11.71875 
Q 22.515625 6.390625 28.859375 6.390625 
Q 36.28125 6.390625 41.5 13.671875 
Q 44.484375 17.71875 44.484375 20.359375 
z
" id="IPAexGothic-100"/>
     <path d="M 21.390625 39.984375 
L 10.5 39.984375 
L 10.5 50.78125 
L 21.390625 50.78125 
z
M 21.390625 0.984375 
L 10.5 0.984375 
L 10.5 11.765625 
L 21.390625 11.765625 
z
" id="IPAexGothic-58"/>
     <path id="IPAexGothic-32"/>
     <path d="M 30.765625 26.609375 
L 4.984375 26.609375 
L 4.984375 34.421875 
L 30.765625 34.421875 
z
" id="IPAexGothic-45"/>
     <path d="M 60.40625 64.703125 
L 33.984375 64.703125 
L 33.984375 0.984375 
L 25.09375 0.984375 
L 25.09375 64.703125 
L -0.484375 64.703125 
L -0.484375 72.40625 
L 60.40625 72.40625 
z
" id="IPAexGothic-84"/>
    </defs>
    <use xlink:href="#IPAexGothic-103"/>
    <use x="55.517578" xlink:href="#IPAexGothic-101"/>
    <use x="112.402344" xlink:href="#IPAexGothic-110"/>
    <use x="172.802734" xlink:href="#IPAexGothic-101"/>
    <use x="229.6875" xlink:href="#IPAexGothic-114"/>
    <use x="266.699219" xlink:href="#IPAexGothic-97"/>
    <use x="321.679688" xlink:href="#IPAexGothic-116"/>
    <use x="356.298828" xlink:href="#IPAexGothic-101"/>
    <use x="413.183594" xlink:href="#IPAexGothic-100"/>
    <use x="475.585938" xlink:href="#IPAexGothic-58"/>
    <use x="507.568359" xlink:href="#IPAexGothic-32"/>
    <use x="534.570312" xlink:href="#IPAexGothic-50"/>
    <use x="597.558594" xlink:href="#IPAexGothic-48"/>
    <use x="660.546875" xlink:href="#IPAexGothic-50"/>
    <use x="723.535156" xlink:href="#IPAexGothic-49"/>
    <use x="786.523438" xlink:href="#IPAexGothic-45"/>
    <use x="822.314453" xlink:href="#IPAexGothic-48"/>
    <use x="885.302734" xlink:href="#IPAexGothic-50"/>
    <use x="948.291016" xlink:href="#IPAexGothic-45"/>
    <use x="984.082031" xlink:href="#IPAexGothic-48"/>
    <use x="1047.070312" xlink:href="#IPAexGothic-50"/>
    <use x="1110.058594" xlink:href="#IPAexGothic-32"/>
    <use x="1137.060547" xlink:href="#IPAexGothic-50"/>
    <use x="1200.048828" xlink:href="#IPAexGothic-48"/>
    <use x="1263.037109" xlink:href="#IPAexGothic-58"/>
    <use x="1295.019531" xlink:href="#IPAexGothic-48"/>
    <use x="1358.007812" xlink:href="#IPAexGothic-49"/>
    <use x="1420.996094" xlink:href="#IPAexGothic-58"/>
    <use x="1452.978516" xlink:href="#IPAexGothic-48"/>
    <use x="1515.966797" xlink:href="#IPAexGothic-49"/>
    <use x="1578.955078" xlink:href="#IPAexGothic-32"/>
    <use x="1605.957031" xlink:href="#IPAexGothic-74"/>
    <use x="1643.945312" xlink:href="#IPAexGothic-83"/>
    <use x="1702.441406" xlink:href="#IPAexGothic-84"/>
   </g>
  </g>
 </g>
 <defs>
  <clipPath id="pd2478ff9d8">
   <rect height="266.112" width="357.12" x="33.095313" y="18.146625"/>
  </clipPath>
 </defs>
</svg>
