<?xml version="1.0" encoding="utf-8" standalone="no"?>
<!DOCTYPE svg PUBLIC "-//W3C//DTD SVG 1.1//EN"
  "http://www.w3.org/Graphics/SVG/1.1/DTD/svg11.dtd">
<!-- Created with matplotlib (https://matplotlib.org/) -->
<svg height="411.095875pt" version="1.1" viewBox="0 0 409.310625 411.095875" width="409.310625pt" xmlns="http://www.w3.org/2000/svg" xmlns:xlink="http://www.w3.org/1999/xlink">
 <defs>
  <style type="text/css">
*{stroke-linecap:butt;stroke-linejoin:round;}
  </style>
 </defs>
 <g id="figure_1">
  <g id="patch_1">
   <path d="M 0 411.095875 
L 409.310625 411.095875 
L 409.310625 0 
L 0 0 
z
" style="fill:#ffffff;"/>
  </g>
  <g id="axes_1">
   <g id="patch_2">
    <path d="M 44.990625 374.114625 
L 402.110625 374.114625 
L 402.110625 19.298625 
L 44.990625 19.298625 
z
" style="fill:#ffffff;"/>
   </g>
   <g id="matplotlib.axis_1">
    <g id="xtick_1">
     <g id="line2d_1">
      <defs>
       <path d="M 0 0 
L 0 3.5 
" id="m46f5603c36" style="stroke:#000000;stroke-width:0.8;"/>
      </defs>
      <g>
       <use style="stroke:#000000;stroke-width:0.8;" x="72.687676" xlink:href="#m46f5603c36" y="374.114625"/>
      </g>
     </g>
     <g id="text_1">
      <!-- $\mathdefault{10^{4}}$ -->
      <defs>
       <path d="M 38.484375 0.984375 
L 29.6875 0.984375 
L 29.6875 64.109375 
Q 21.4375 61.28125 12.3125 59.328125 
L 10.6875 66.109375 
Q 23.734375 69.390625 32.90625 73.921875 
L 38.484375 73.921875 
z
" id="IPAexGothic-49"/>
       <path d="M 31.84375 73.828125 
Q 45.015625 73.828125 52.09375 61.625 
Q 57.71875 51.953125 57.71875 36.625 
Q 57.71875 21.4375 52.09375 11.578125 
Q 45.125 -0.484375 31.5 -0.484375 
Q 17.921875 -0.484375 10.9375 11.578125 
Q 5.328125 21.4375 5.328125 36.71875 
Q 5.328125 58.015625 15.625 67.71875 
Q 22.171875 73.828125 31.84375 73.828125 
z
M 31.5 66.65625 
Q 23.6875 66.65625 19.1875 58.734375 
Q 14.59375 50.734375 14.59375 36.625 
Q 14.59375 22.75 19.09375 14.796875 
Q 23.640625 6.984375 31.5 6.984375 
Q 40.921875 6.984375 45.453125 18.015625 
Q 48.4375 25.34375 48.4375 37.109375 
Q 48.4375 50.875 43.84375 58.734375 
Q 39.203125 66.65625 31.5 66.65625 
z
" id="IPAexGothic-48"/>
       <path d="M 59.578125 18.109375 
L 47.796875 18.109375 
L 47.796875 0.984375 
L 39.796875 0.984375 
L 39.796875 18.109375 
L 3.078125 18.109375 
L 3.078125 26.125 
L 38.375 73.09375 
L 47.796875 73.09375 
L 47.796875 25.53125 
L 59.578125 25.53125 
z
M 40.28125 64.203125 
L 39.984375 64.203125 
Q 35.59375 57.125 31.296875 51.3125 
L 11.859375 25.53125 
L 39.796875 25.53125 
L 39.796875 49.125 
Q 39.796875 54.390625 40.28125 64.203125 
z
" id="IPAexGothic-52"/>
      </defs>
      <g transform="translate(63.987676 388.60525)scale(0.1 -0.1)">
       <use transform="translate(0 0.2875)" xlink:href="#IPAexGothic-49"/>
       <use transform="translate(62.988281 0.2875)" xlink:href="#IPAexGothic-48"/>
       <use transform="translate(126.865234 35.834375)scale(0.7)" xlink:href="#IPAexGothic-52"/>
      </g>
     </g>
    </g>
    <g id="xtick_2">
     <g id="line2d_2">
      <g>
       <use style="stroke:#000000;stroke-width:0.8;" x="214.910693" xlink:href="#m46f5603c36" y="374.114625"/>
      </g>
     </g>
     <g id="text_2">
      <!-- $\mathdefault{10^{5}}$ -->
      <defs>
       <path d="M 18.40625 40.671875 
Q 25.53125 46.296875 33.9375 46.296875 
Q 44 46.296875 50.640625 39.5 
Q 56.84375 33.015625 56.84375 23.390625 
Q 56.84375 14.65625 51.515625 8.015625 
Q 44.828125 -0.484375 31.734375 -0.484375 
Q 14.984375 -0.484375 7.328125 12.25 
L 14.65625 16.0625 
Q 20.453125 6.78125 31.453125 6.78125 
Q 38.53125 6.78125 43.265625 11.1875 
Q 48.140625 15.828125 48.140625 23.484375 
Q 48.140625 30.71875 43.84375 35.015625 
Q 39.359375 39.5 32.125 39.5 
Q 21.96875 39.5 16.75 31.6875 
L 9.234375 32.671875 
L 13.8125 72.40625 
L 53.21875 72.40625 
L 53.21875 64.890625 
L 20.953125 64.890625 
L 17.71875 40.671875 
z
" id="IPAexGothic-53"/>
      </defs>
      <g transform="translate(206.210693 388.60525)scale(0.1 -0.1)">
       <use transform="translate(0 0.76875)" xlink:href="#IPAexGothic-49"/>
       <use transform="translate(62.988281 0.76875)" xlink:href="#IPAexGothic-48"/>
       <use transform="translate(126.865234 36.315625)scale(0.7)" xlink:href="#IPAexGothic-53"/>
      </g>
     </g>
    </g>
    <g id="xtick_3">
     <g id="line2d_3">
      <g>
       <use style="stroke:#000000;stroke-width:0.8;" x="357.13371" xlink:href="#m46f5603c36" y="374.114625"/>
      </g>
     </g>
     <g id="text_3">
      <!-- $\mathdefault{10^{6}}$ -->
      <defs>
       <path d="M 16.5 36.375 
Q 23.578125 46.578125 34.90625 46.578125 
Q 45.40625 46.578125 51.8125 39.265625 
Q 57.421875 32.90625 57.421875 23.78125 
Q 57.421875 13.8125 51.125 6.78125 
Q 44.578125 -0.484375 34.03125 -0.484375 
Q 21.484375 -0.484375 14.40625 9.078125 
Q 7.515625 18.40625 7.515625 34.8125 
Q 7.515625 53.515625 15.828125 64.203125 
Q 23.34375 73.828125 35.5 73.828125 
Q 49.859375 73.828125 56.390625 62.890625 
L 49.21875 58.984375 
Q 45.21875 66.65625 35.9375 66.65625 
Q 17.484375 66.65625 16.109375 36.375 
z
M 33.453125 39.796875 
Q 26.3125 39.796875 21.625 34.46875 
Q 17.4375 29.6875 17.4375 24.078125 
Q 17.4375 18.0625 21.140625 13.1875 
Q 26.125 6.6875 33.734375 6.6875 
Q 41.703125 6.6875 45.953125 13.1875 
Q 48.828125 17.625 48.828125 23.484375 
Q 48.828125 30.375 45.015625 34.8125 
Q 40.625 39.796875 33.453125 39.796875 
z
" id="IPAexGothic-54"/>
      </defs>
      <g transform="translate(348.43371 388.60525)scale(0.1 -0.1)">
       <use transform="translate(0 0.773438)" xlink:href="#IPAexGothic-49"/>
       <use transform="translate(62.988281 0.773438)" xlink:href="#IPAexGothic-48"/>
       <use transform="translate(126.865234 36.320312)scale(0.7)" xlink:href="#IPAexGothic-54"/>
      </g>
     </g>
    </g>
    <g id="xtick_4">
     <g id="line2d_4">
      <defs>
       <path d="M 0 0 
L 0 2 
" id="maf04bd62bf" style="stroke:#000000;stroke-width:0.6;"/>
      </defs>
      <g>
       <use style="stroke:#000000;stroke-width:0.6;" x="50.657052" xlink:href="#maf04bd62bf" y="374.114625"/>
      </g>
     </g>
    </g>
    <g id="xtick_5">
     <g id="line2d_5">
      <g>
       <use style="stroke:#000000;stroke-width:0.6;" x="58.904841" xlink:href="#maf04bd62bf" y="374.114625"/>
      </g>
     </g>
    </g>
    <g id="xtick_6">
     <g id="line2d_6">
      <g>
       <use style="stroke:#000000;stroke-width:0.6;" x="66.179907" xlink:href="#maf04bd62bf" y="374.114625"/>
      </g>
     </g>
    </g>
    <g id="xtick_7">
     <g id="line2d_7">
      <g>
       <use style="stroke:#000000;stroke-width:0.6;" x="115.50107" xlink:href="#maf04bd62bf" y="374.114625"/>
      </g>
     </g>
    </g>
    <g id="xtick_8">
     <g id="line2d_8">
      <g>
       <use style="stroke:#000000;stroke-width:0.6;" x="140.5453" xlink:href="#maf04bd62bf" y="374.114625"/>
      </g>
     </g>
    </g>
    <g id="xtick_9">
     <g id="line2d_9">
      <g>
       <use style="stroke:#000000;stroke-width:0.6;" x="158.314464" xlink:href="#maf04bd62bf" y="374.114625"/>
      </g>
     </g>
    </g>
    <g id="xtick_10">
     <g id="line2d_10">
      <g>
       <use style="stroke:#000000;stroke-width:0.6;" x="172.097299" xlink:href="#maf04bd62bf" y="374.114625"/>
      </g>
     </g>
    </g>
    <g id="xtick_11">
     <g id="line2d_11">
      <g>
       <use style="stroke:#000000;stroke-width:0.6;" x="183.358694" xlink:href="#maf04bd62bf" y="374.114625"/>
      </g>
     </g>
    </g>
    <g id="xtick_12">
     <g id="line2d_12">
      <g>
       <use style="stroke:#000000;stroke-width:0.6;" x="192.880069" xlink:href="#maf04bd62bf" y="374.114625"/>
      </g>
     </g>
    </g>
    <g id="xtick_13">
     <g id="line2d_13">
      <g>
       <use style="stroke:#000000;stroke-width:0.6;" x="201.127858" xlink:href="#maf04bd62bf" y="374.114625"/>
      </g>
     </g>
    </g>
    <g id="xtick_14">
     <g id="line2d_14">
      <g>
       <use style="stroke:#000000;stroke-width:0.6;" x="208.402925" xlink:href="#maf04bd62bf" y="374.114625"/>
      </g>
     </g>
    </g>
    <g id="xtick_15">
     <g id="line2d_15">
      <g>
       <use style="stroke:#000000;stroke-width:0.6;" x="257.724087" xlink:href="#maf04bd62bf" y="374.114625"/>
      </g>
     </g>
    </g>
    <g id="xtick_16">
     <g id="line2d_16">
      <g>
       <use style="stroke:#000000;stroke-width:0.6;" x="282.768317" xlink:href="#maf04bd62bf" y="374.114625"/>
      </g>
     </g>
    </g>
    <g id="xtick_17">
     <g id="line2d_17">
      <g>
       <use style="stroke:#000000;stroke-width:0.6;" x="300.537481" xlink:href="#maf04bd62bf" y="374.114625"/>
      </g>
     </g>
    </g>
    <g id="xtick_18">
     <g id="line2d_18">
      <g>
       <use style="stroke:#000000;stroke-width:0.6;" x="314.320316" xlink:href="#maf04bd62bf" y="374.114625"/>
      </g>
     </g>
    </g>
    <g id="xtick_19">
     <g id="line2d_19">
      <g>
       <use style="stroke:#000000;stroke-width:0.6;" x="325.581712" xlink:href="#maf04bd62bf" y="374.114625"/>
      </g>
     </g>
    </g>
    <g id="xtick_20">
     <g id="line2d_20">
      <g>
       <use style="stroke:#000000;stroke-width:0.6;" x="335.103086" xlink:href="#maf04bd62bf" y="374.114625"/>
      </g>
     </g>
    </g>
    <g id="xtick_21">
     <g id="line2d_21">
      <g>
       <use style="stroke:#000000;stroke-width:0.6;" x="343.350876" xlink:href="#maf04bd62bf" y="374.114625"/>
      </g>
     </g>
    </g>
    <g id="xtick_22">
     <g id="line2d_22">
      <g>
       <use style="stroke:#000000;stroke-width:0.6;" x="350.625942" xlink:href="#maf04bd62bf" y="374.114625"/>
      </g>
     </g>
    </g>
    <g id="xtick_23">
     <g id="line2d_23">
      <g>
       <use style="stroke:#000000;stroke-width:0.6;" x="399.947104" xlink:href="#maf04bd62bf" y="374.114625"/>
      </g>
     </g>
    </g>
    <g id="text_4">
     <!-- Confirmed -->
     <defs>
      <path d="M 68.015625 17 
Q 65.328125 10.84375 60.296875 6.6875 
Q 51.765625 -0.484375 39.984375 -0.484375 
Q 24.8125 -0.484375 14.984375 10.203125 
Q 5.90625 20.21875 5.90625 36.421875 
Q 5.90625 53.21875 15.828125 63.71875 
Q 25.296875 73.828125 39.59375 73.828125 
Q 59.578125 73.828125 67.53125 56.6875 
L 59.515625 52.984375 
Q 53.515625 66.21875 39.703125 66.21875 
Q 29.546875 66.21875 22.703125 58.5 
Q 15.53125 50.25 15.53125 36.28125 
Q 15.53125 24.21875 21.625 16.5 
Q 28.765625 7.375 40.046875 7.375 
Q 54 7.375 60.59375 20.609375 
z
" id="IPAexGothic-67"/>
      <path d="M 29.984375 52.203125 
Q 40.53125 52.203125 47.75 45.125 
Q 55.171875 37.703125 55.171875 25.59375 
Q 55.171875 13.875 47.90625 6.59375 
Q 40.765625 -0.484375 29.984375 -0.484375 
Q 19.1875 -0.484375 12.203125 6.5 
Q 4.890625 13.765625 4.890625 25.875 
Q 4.890625 37.703125 12.3125 45.125 
Q 19.390625 52.203125 29.984375 52.203125 
z
M 29.984375 45.609375 
Q 23.734375 45.609375 19.390625 41.109375 
Q 13.875 35.59375 13.875 25.78125 
Q 13.875 16.109375 19.28125 10.6875 
Q 23.6875 6.296875 29.984375 6.296875 
Q 36.421875 6.296875 40.765625 10.796875 
Q 46.1875 16.21875 46.1875 26.125 
Q 46.1875 35.453125 40.671875 41.109375 
Q 36.1875 45.609375 29.984375 45.609375 
z
" id="IPAexGothic-111"/>
      <path d="M 52 0.984375 
L 43.40625 0.984375 
L 43.40625 31.890625 
Q 43.40625 44.578125 32.90625 44.578125 
Q 22.3125 44.578125 17.390625 31.890625 
L 17.390625 0.984375 
L 8.796875 0.984375 
L 8.796875 50.78125 
L 16.796875 50.78125 
L 16.796875 41.796875 
Q 23.828125 51.8125 34.71875 51.8125 
Q 52 51.8125 52 32.375 
z
" id="IPAexGothic-110"/>
      <path d="M 38.375 72.21875 
L 34.8125 66.3125 
Q 31.109375 69.09375 27.203125 69.09375 
Q 18.5 69.09375 18.5 57.375 
L 18.5 50.78125 
L 32.078125 50.78125 
L 32.078125 44.671875 
L 18.5 44.671875 
L 18.5 0.984375 
L 10.015625 0.984375 
L 10.015625 44.671875 
L 1.90625 44.671875 
L 1.90625 50.78125 
L 10.015625 50.78125 
L 10.015625 57.171875 
Q 10.015625 65.4375 13.921875 70.0625 
Q 18.75 75.6875 26.703125 75.6875 
Q 33.0625 75.6875 38.375 72.21875 
z
" id="IPAexGothic-102"/>
      <path d="M 18.40625 61.375 
L 8.59375 61.375 
L 8.59375 71.390625 
L 18.40625 71.390625 
z
M 17.78125 0.984375 
L 9.1875 0.984375 
L 9.1875 50.78125 
L 17.78125 50.78125 
z
" id="IPAexGothic-105"/>
      <path d="M 36.078125 51.8125 
L 34.578125 43.265625 
Q 32.90625 43.609375 31.59375 43.609375 
Q 25.828125 43.609375 22.078125 38.1875 
Q 17.390625 31.34375 17.390625 26.171875 
L 17.390625 0.984375 
L 8.796875 0.984375 
L 8.796875 50.78125 
L 16.890625 50.78125 
L 16.5 35.984375 
L 16.703125 35.984375 
Q 22.21875 52.203125 32.765625 52.203125 
Q 34.46875 52.203125 36.078125 51.8125 
z
" id="IPAexGothic-114"/>
      <path d="M 78.46875 0.984375 
L 69.875 0.984375 
L 69.875 32.171875 
Q 69.875 44.828125 60.109375 44.828125 
Q 55.46875 44.828125 51.609375 40.53125 
Q 48.875 37.453125 47.796875 32.859375 
L 47.796875 0.984375 
L 39.203125 0.984375 
L 39.203125 32.28125 
Q 39.203125 44.828125 29.984375 44.828125 
Q 25.09375 44.828125 21.390625 40.53125 
Q 17.390625 36.03125 17.390625 31.890625 
L 17.390625 0.984375 
L 8.796875 0.984375 
L 8.796875 50.78125 
L 16.796875 50.78125 
L 16.796875 42.1875 
Q 21.734375 51.8125 31.6875 51.8125 
Q 42.578125 51.8125 46.1875 41.359375 
Q 51.609375 51.8125 61.765625 51.8125 
Q 69.96875 51.8125 74.5625 46 
Q 78.46875 41.21875 78.46875 32.375 
z
" id="IPAexGothic-109"/>
      <path d="M 13.484375 24.90625 
Q 13.921875 16.265625 18.890625 11.28125 
Q 23.96875 6.203125 31.203125 6.203125 
Q 40.71875 6.203125 46.296875 15.09375 
L 51.90625 11.375 
Q 44.828125 -0.484375 30.171875 -0.484375 
Q 19.09375 -0.484375 11.96875 6.59375 
Q 4.78125 13.8125 4.78125 25.640625 
Q 4.78125 38.1875 12.3125 45.703125 
Q 19 52.390625 29 52.390625 
Q 38.421875 52.390625 44.78125 46.1875 
Q 51.90625 38.96875 51.90625 26.90625 
L 51.90625 24.90625 
z
M 43.0625 31.203125 
Q 42.328125 37.984375 38.28125 41.890625 
Q 34.28125 45.90625 28.8125 45.90625 
Q 22.46875 45.90625 17.96875 40.484375 
Q 14.890625 36.8125 13.96875 31.203125 
z
" id="IPAexGothic-101"/>
      <path d="M 52.984375 0.984375 
L 45.171875 0.984375 
L 45.171875 9.671875 
Q 38.140625 -0.484375 27.390625 -0.484375 
Q 18.453125 -0.484375 12.3125 5.8125 
Q 4.890625 13.1875 4.890625 25.984375 
Q 4.890625 38.53125 12.0625 45.90625 
Q 18.265625 52.203125 27.390625 52.203125 
Q 37.25 52.203125 44.484375 43.890625 
L 44.484375 74.90625 
L 52.984375 74.90625 
z
M 44.484375 20.359375 
L 44.484375 32.765625 
Q 44.484375 37.703125 38.375 42.28125 
Q 34.078125 45.40625 28.953125 45.40625 
Q 23.1875 45.40625 19.1875 41.40625 
Q 13.875 36.078125 13.875 26.21875 
Q 13.875 17.328125 18.265625 11.71875 
Q 22.515625 6.390625 28.859375 6.390625 
Q 36.28125 6.390625 41.5 13.671875 
Q 44.484375 17.71875 44.484375 20.359375 
z
" id="IPAexGothic-100"/>
     </defs>
     <g transform="translate(198.832656 401.995875)scale(0.1 -0.1)">
      <use xlink:href="#IPAexGothic-67"/>
      <use x="72.509766" xlink:href="#IPAexGothic-111"/>
      <use x="132.910156" xlink:href="#IPAexGothic-110"/>
      <use x="193.310547" xlink:href="#IPAexGothic-102"/>
      <use x="223.925781" xlink:href="#IPAexGothic-105"/>
      <use x="250.927734" xlink:href="#IPAexGothic-114"/>
      <use x="287.939453" xlink:href="#IPAexGothic-109"/>
      <use x="375.048828" xlink:href="#IPAexGothic-101"/>
      <use x="431.933594" xlink:href="#IPAexGothic-100"/>
     </g>
    </g>
   </g>
   <g id="matplotlib.axis_2">
    <g id="ytick_1">
     <g id="line2d_24">
      <defs>
       <path d="M 0 0 
L -3.5 0 
" id="m173253b175" style="stroke:#000000;stroke-width:0.8;"/>
      </defs>
      <g>
       <use style="stroke:#000000;stroke-width:0.8;" x="44.990625" xlink:href="#m173253b175" y="319.82819"/>
      </g>
     </g>
     <g id="text_5">
      <!-- $\mathdefault{10^{3}}$ -->
      <defs>
       <path d="M 37.203125 37.796875 
Q 54.78125 34.625 54.78125 19.96875 
Q 54.78125 11.1875 48.875 5.5625 
Q 42.328125 -0.484375 30.375 -0.484375 
Q 12.453125 -0.484375 4.5 13.765625 
L 11.8125 17.671875 
Q 17.328125 6.890625 30.28125 6.890625 
Q 37.890625 6.890625 42.09375 10.796875 
Q 46.09375 14.5 46.09375 20.171875 
Q 46.09375 26.859375 40.09375 30.90625 
Q 34.625 34.578125 25.6875 34.578125 
L 21.296875 34.578125 
L 21.296875 41.703125 
L 25.875 41.703125 
Q 34.859375 41.703125 39.59375 45.125 
Q 44.671875 48.734375 44.671875 54.828125 
Q 44.671875 61.46875 38.96875 64.65625 
Q 35.296875 66.84375 30.171875 66.84375 
Q 19.34375 66.84375 14.109375 55.90625 
L 6.78125 59.421875 
Q 14.015625 73.828125 30.28125 73.828125 
Q 40.578125 73.828125 46.96875 68.65625 
Q 53.375 63.578125 53.375 55.21875 
Q 53.375 47.3125 47.171875 42.28125 
Q 43.171875 39.0625 37.203125 38.1875 
z
" id="IPAexGothic-51"/>
      </defs>
      <g transform="translate(20.590625 323.573503)scale(0.1 -0.1)">
       <use transform="translate(0 0.773438)" xlink:href="#IPAexGothic-49"/>
       <use transform="translate(62.988281 0.773438)" xlink:href="#IPAexGothic-48"/>
       <use transform="translate(126.865234 36.320312)scale(0.7)" xlink:href="#IPAexGothic-51"/>
      </g>
     </g>
    </g>
    <g id="ytick_2">
     <g id="line2d_25">
      <g>
       <use style="stroke:#000000;stroke-width:0.8;" x="44.990625" xlink:href="#m173253b175" y="177.605173"/>
      </g>
     </g>
     <g id="text_6">
      <!-- $\mathdefault{10^{4}}$ -->
      <g transform="translate(20.590625 181.350485)scale(0.1 -0.1)">
       <use transform="translate(0 0.2875)" xlink:href="#IPAexGothic-49"/>
       <use transform="translate(62.988281 0.2875)" xlink:href="#IPAexGothic-48"/>
       <use transform="translate(126.865234 35.834375)scale(0.7)" xlink:href="#IPAexGothic-52"/>
      </g>
     </g>
    </g>
    <g id="ytick_3">
     <g id="line2d_26">
      <g>
       <use style="stroke:#000000;stroke-width:0.8;" x="44.990625" xlink:href="#m173253b175" y="35.382156"/>
      </g>
     </g>
     <g id="text_7">
      <!-- $\mathdefault{10^{5}}$ -->
      <g transform="translate(20.590625 39.127468)scale(0.1 -0.1)">
       <use transform="translate(0 0.76875)" xlink:href="#IPAexGothic-49"/>
       <use transform="translate(62.988281 0.76875)" xlink:href="#IPAexGothic-48"/>
       <use transform="translate(126.865234 36.315625)scale(0.7)" xlink:href="#IPAexGothic-53"/>
      </g>
     </g>
    </g>
    <g id="ytick_4">
     <g id="line2d_27">
      <defs>
       <path d="M 0 0 
L -2 0 
" id="mc9e64c5aed" style="stroke:#000000;stroke-width:0.6;"/>
      </defs>
      <g>
       <use style="stroke:#000000;stroke-width:0.6;" x="44.990625" xlink:href="#mc9e64c5aed" y="362.641584"/>
      </g>
     </g>
    </g>
    <g id="ytick_5">
     <g id="line2d_28">
      <g>
       <use style="stroke:#000000;stroke-width:0.6;" x="44.990625" xlink:href="#mc9e64c5aed" y="351.380189"/>
      </g>
     </g>
    </g>
    <g id="ytick_6">
     <g id="line2d_29">
      <g>
       <use style="stroke:#000000;stroke-width:0.6;" x="44.990625" xlink:href="#mc9e64c5aed" y="341.858814"/>
      </g>
     </g>
    </g>
    <g id="ytick_7">
     <g id="line2d_30">
      <g>
       <use style="stroke:#000000;stroke-width:0.6;" x="44.990625" xlink:href="#mc9e64c5aed" y="333.611025"/>
      </g>
     </g>
    </g>
    <g id="ytick_8">
     <g id="line2d_31">
      <g>
       <use style="stroke:#000000;stroke-width:0.6;" x="44.990625" xlink:href="#mc9e64c5aed" y="326.335959"/>
      </g>
     </g>
    </g>
    <g id="ytick_9">
     <g id="line2d_32">
      <g>
       <use style="stroke:#000000;stroke-width:0.6;" x="44.990625" xlink:href="#mc9e64c5aed" y="277.014796"/>
      </g>
     </g>
    </g>
    <g id="ytick_10">
     <g id="line2d_33">
      <g>
       <use style="stroke:#000000;stroke-width:0.6;" x="44.990625" xlink:href="#mc9e64c5aed" y="251.970566"/>
      </g>
     </g>
    </g>
    <g id="ytick_11">
     <g id="line2d_34">
      <g>
       <use style="stroke:#000000;stroke-width:0.6;" x="44.990625" xlink:href="#mc9e64c5aed" y="234.201402"/>
      </g>
     </g>
    </g>
    <g id="ytick_12">
     <g id="line2d_35">
      <g>
       <use style="stroke:#000000;stroke-width:0.6;" x="44.990625" xlink:href="#mc9e64c5aed" y="220.418567"/>
      </g>
     </g>
    </g>
    <g id="ytick_13">
     <g id="line2d_36">
      <g>
       <use style="stroke:#000000;stroke-width:0.6;" x="44.990625" xlink:href="#mc9e64c5aed" y="209.157171"/>
      </g>
     </g>
    </g>
    <g id="ytick_14">
     <g id="line2d_37">
      <g>
       <use style="stroke:#000000;stroke-width:0.6;" x="44.990625" xlink:href="#mc9e64c5aed" y="199.635797"/>
      </g>
     </g>
    </g>
    <g id="ytick_15">
     <g id="line2d_38">
      <g>
       <use style="stroke:#000000;stroke-width:0.6;" x="44.990625" xlink:href="#mc9e64c5aed" y="191.388007"/>
      </g>
     </g>
    </g>
    <g id="ytick_16">
     <g id="line2d_39">
      <g>
       <use style="stroke:#000000;stroke-width:0.6;" x="44.990625" xlink:href="#mc9e64c5aed" y="184.112941"/>
      </g>
     </g>
    </g>
    <g id="ytick_17">
     <g id="line2d_40">
      <g>
       <use style="stroke:#000000;stroke-width:0.6;" x="44.990625" xlink:href="#mc9e64c5aed" y="134.791779"/>
      </g>
     </g>
    </g>
    <g id="ytick_18">
     <g id="line2d_41">
      <g>
       <use style="stroke:#000000;stroke-width:0.6;" x="44.990625" xlink:href="#mc9e64c5aed" y="109.747548"/>
      </g>
     </g>
    </g>
    <g id="ytick_19">
     <g id="line2d_42">
      <g>
       <use style="stroke:#000000;stroke-width:0.6;" x="44.990625" xlink:href="#mc9e64c5aed" y="91.978384"/>
      </g>
     </g>
    </g>
    <g id="ytick_20">
     <g id="line2d_43">
      <g>
       <use style="stroke:#000000;stroke-width:0.6;" x="44.990625" xlink:href="#mc9e64c5aed" y="78.19555"/>
      </g>
     </g>
    </g>
    <g id="ytick_21">
     <g id="line2d_44">
      <g>
       <use style="stroke:#000000;stroke-width:0.6;" x="44.990625" xlink:href="#mc9e64c5aed" y="66.934154"/>
      </g>
     </g>
    </g>
    <g id="ytick_22">
     <g id="line2d_45">
      <g>
       <use style="stroke:#000000;stroke-width:0.6;" x="44.990625" xlink:href="#mc9e64c5aed" y="57.41278"/>
      </g>
     </g>
    </g>
    <g id="ytick_23">
     <g id="line2d_46">
      <g>
       <use style="stroke:#000000;stroke-width:0.6;" x="44.990625" xlink:href="#mc9e64c5aed" y="49.16499"/>
      </g>
     </g>
    </g>
    <g id="ytick_24">
     <g id="line2d_47">
      <g>
       <use style="stroke:#000000;stroke-width:0.6;" x="44.990625" xlink:href="#mc9e64c5aed" y="41.889924"/>
      </g>
     </g>
    </g>
    <g id="text_8">
     <!-- Deaths -->
     <defs>
      <path d="M 9.515625 72.40625 
L 31 72.40625 
Q 49.359375 72.40625 59.234375 63.28125 
Q 69.625 53.8125 69.625 36.8125 
Q 69.625 16.359375 54.9375 6.890625 
Q 45.703125 0.984375 30.328125 0.984375 
L 9.515625 0.984375 
z
M 18.3125 8.6875 
L 29.59375 8.6875 
Q 60.203125 8.6875 60.203125 36.8125 
Q 60.203125 64.796875 30.125 64.796875 
L 18.3125 64.796875 
z
" id="IPAexGothic-68"/>
      <path d="M 49.3125 0.984375 
L 41.75 0.984375 
Q 39.984375 4.734375 39.546875 8.6875 
L 39.203125 8.6875 
Q 33.546875 -0.390625 22.3125 -0.390625 
Q 14.59375 -0.390625 9.71875 4.5 
Q 5.421875 8.796875 5.421875 14.984375 
Q 5.421875 30.421875 32.03125 31.203125 
L 38.71875 31.390625 
L 38.71875 33.984375 
Q 38.71875 39.203125 35.75 42.1875 
Q 32.625 45.3125 27.734375 45.3125 
Q 19.34375 45.3125 15.140625 37.15625 
L 7.71875 40.578125 
Q 14.65625 52 27.9375 52 
Q 37.109375 52 42.046875 46.875 
Q 46.625 42.28125 46.625 33.890625 
L 46.625 15.578125 
Q 46.625 6.25 49.3125 0.984375 
z
M 38.921875 25.390625 
L 33.453125 25.296875 
Q 14.109375 24.859375 14.109375 14.890625 
Q 14.109375 11.375 16.40625 9.078125 
Q 19.234375 6.296875 23.828125 6.296875 
Q 30.21875 6.296875 34.90625 10.984375 
Q 38.921875 15.140625 38.921875 21 
z
" id="IPAexGothic-97"/>
      <path d="M 33.203125 3.765625 
Q 27.640625 -0.09375 21.828125 -0.09375 
Q 10.203125 -0.09375 10.203125 12.984375 
L 10.203125 44.671875 
L 3.421875 44.671875 
L 3.421875 50.78125 
L 10.203125 50.78125 
L 10.203125 61.96875 
L 18.40625 66.0625 
L 18.40625 50.78125 
L 32.234375 50.78125 
L 32.234375 44.671875 
L 18.40625 44.671875 
L 18.40625 14.15625 
Q 18.40625 6.5 23.640625 6.5 
Q 27.15625 6.5 30.328125 9.1875 
z
" id="IPAexGothic-116"/>
      <path d="M 52.296875 0.984375 
L 43.703125 0.984375 
L 43.703125 31.890625 
Q 43.703125 44.578125 33.296875 44.578125 
Q 22.609375 44.578125 17.671875 31.890625 
L 17.671875 0.984375 
L 9.078125 0.984375 
L 9.078125 74.90625 
L 17.671875 74.90625 
L 17.671875 42.28125 
Q 24.46875 51.8125 35.109375 51.8125 
Q 52.296875 51.8125 52.296875 32.375 
z
" id="IPAexGothic-104"/>
      <path d="M 34.90625 39.796875 
Q 30.28125 45.796875 23.1875 45.796875 
Q 13.921875 45.796875 13.921875 38.671875 
Q 13.921875 33.640625 23.921875 30.375 
L 27.203125 29.296875 
Q 41.40625 24.65625 41.40625 13.96875 
Q 41.40625 6.78125 35.5 2.6875 
Q 30.8125 -0.484375 23.390625 -0.484375 
Q 11.96875 -0.484375 4 7.859375 
L 9.421875 12.796875 
Q 15.578125 6.203125 23.6875 6.203125 
Q 33.296875 6.203125 33.296875 13.671875 
Q 33.296875 19.34375 22.703125 23.09375 
L 19.28125 24.265625 
Q 5.90625 28.953125 5.90625 37.984375 
Q 5.90625 43.703125 9.8125 47.609375 
Q 14.5 52.296875 22.703125 52.296875 
Q 33.6875 52.296875 40.71875 44.671875 
z
" id="IPAexGothic-115"/>
     </defs>
     <g transform="translate(14.690625 213.15975)rotate(-90)scale(0.1 -0.1)">
      <use xlink:href="#IPAexGothic-68"/>
      <use x="75.683594" xlink:href="#IPAexGothic-101"/>
      <use x="132.568359" xlink:href="#IPAexGothic-97"/>
      <use x="187.548828" xlink:href="#IPAexGothic-116"/>
      <use x="222.167969" xlink:href="#IPAexGothic-104"/>
      <use x="282.861328" xlink:href="#IPAexGothic-115"/>
     </g>
    </g>
   </g>
   <g id="line2d_48">
    <defs>
     <path d="M 0 3 
C 0.795609 3 1.55874 2.683901 2.12132 2.12132 
C 2.683901 1.55874 3 0.795609 3 0 
C 3 -0.795609 2.683901 -1.55874 2.12132 -2.12132 
C 1.55874 -2.683901 0.795609 -3 0 -3 
C -0.795609 -3 -1.55874 -2.683901 -2.12132 -2.12132 
C -2.683901 -1.55874 -3 -0.795609 -3 0 
C -3 0.795609 -2.683901 1.55874 -2.12132 2.12132 
C -1.55874 2.683901 -0.795609 3 0 3 
z
" id="m39858657e6" style="stroke:#1f77b4;"/>
    </defs>
    <g clip-path="url(#p504ad805e1)">
     <use style="fill:#1f77b4;stroke:#1f77b4;" x="61.223352" xlink:href="#m39858657e6" y="351.380189"/>
     <use style="fill:#1f77b4;stroke:#1f77b4;" x="385.877898" xlink:href="#m39858657e6" y="37.991804"/>
     <use style="fill:#1f77b4;stroke:#1f77b4;" x="291.828785" xlink:href="#m39858657e6" y="128.868298"/>
     <use style="fill:#1f77b4;stroke:#1f77b4;" x="223.946976" xlink:href="#m39858657e6" y="244.732113"/>
     <use style="fill:#1f77b4;stroke:#1f77b4;" x="204.200997" xlink:href="#m39858657e6" y="205.364165"/>
     <use style="fill:#1f77b4;stroke:#1f77b4;" x="192.082564" xlink:href="#m39858657e6" y="340.290606"/>
     <use style="fill:#1f77b4;stroke:#1f77b4;" x="189.110776" xlink:href="#m39858657e6" y="198.076192"/>
     <use style="fill:#1f77b4;stroke:#1f77b4;" x="153.090364" xlink:href="#m39858657e6" y="249.786055"/>
     <use style="fill:#1f77b4;stroke:#1f77b4;" x="116.0453" xlink:href="#m39858657e6" y="341.419192"/>
     <use style="fill:#1f77b4;stroke:#1f77b4;" x="233.767054" xlink:href="#m39858657e6" y="196.061699"/>
     <use style="fill:#1f77b4;stroke:#1f77b4;" x="179.480979" xlink:href="#m39858657e6" y="310.289171"/>
     <use style="fill:#1f77b4;stroke:#1f77b4;" x="106.418223" xlink:href="#m39858657e6" y="336.455005"/>
     <use style="fill:#1f77b4;stroke:#1f77b4;" x="292.891534" xlink:href="#m39858657e6" y="240.145555"/>
     <use style="fill:#1f77b4;stroke:#1f77b4;" x="273.825552" xlink:href="#m39858657e6" y="97.140339"/>
     <use style="fill:#1f77b4;stroke:#1f77b4;" x="267.887661" xlink:href="#m39858657e6" y="112.372018"/>
     <use style="fill:#1f77b4;stroke:#1f77b4;" x="266.318571" xlink:href="#m39858657e6" y="104.264292"/>
     <use style="fill:#1f77b4;stroke:#1f77b4;" x="250.723657" xlink:href="#m39858657e6" y="189.434959"/>
     <use style="fill:#1f77b4;stroke:#1f77b4;" x="242.704034" xlink:href="#m39858657e6" y="229.162477"/>
     <use style="fill:#1f77b4;stroke:#1f77b4;" x="236.658272" xlink:href="#m39858657e6" y="113.318013"/>
     <use style="fill:#1f77b4;stroke:#1f77b4;" x="180.290092" xlink:href="#m39858657e6" y="182.220598"/>
     <use style="fill:#1f77b4;stroke:#1f77b4;" x="165.912616" xlink:href="#m39858657e6" y="211.017313"/>
     <use style="fill:#1f77b4;stroke:#1f77b4;" x="147.285491" xlink:href="#m39858657e6" y="234.232293"/>
     <use style="fill:#1f77b4;stroke:#1f77b4;" x="141.875331" xlink:href="#m39858657e6" y="289.27245"/>
     <use style="fill:#1f77b4;stroke:#1f77b4;" x="141.814851" xlink:href="#m39858657e6" y="302.867258"/>
     <use style="fill:#1f77b4;stroke:#1f77b4;" x="128.385491" xlink:href="#m39858657e6" y="290.489567"/>
     <use style="fill:#1f77b4;stroke:#1f77b4;" x="119.466164" xlink:href="#m39858657e6" y="320.075752"/>
     <use style="fill:#1f77b4;stroke:#1f77b4;" x="119.231116" xlink:href="#m39858657e6" y="349.05672"/>
     <use style="fill:#1f77b4;stroke:#1f77b4;" x="109.233039" xlink:href="#m39858657e6" y="309.657281"/>
     <use style="fill:#1f77b4;stroke:#1f77b4;" x="103.390126" xlink:href="#m39858657e6" y="347.393859"/>
     <use style="fill:#1f77b4;stroke:#1f77b4;" x="80.563749" xlink:href="#m39858657e6" y="355.421446"/>
     <use style="fill:#1f77b4;stroke:#1f77b4;" x="235.181774" xlink:href="#m39858657e6" y="233.877975"/>
     <use style="fill:#1f77b4;stroke:#1f77b4;" x="122.144268" xlink:href="#m39858657e6" y="300.293274"/>
     <use style="fill:#1f77b4;stroke:#1f77b4;" x="204.534343" xlink:href="#m39858657e6" y="224.967469"/>
     <use style="fill:#1f77b4;stroke:#1f77b4;" x="103.921375" xlink:href="#m39858657e6" y="331.337148"/>
     <use style="fill:#1f77b4;stroke:#1f77b4;" x="93.62467" xlink:href="#m39858657e6" y="328.5721"/>
    </g>
   </g>
   <g id="line2d_49">
    <path clip-path="url(#p504ad805e1)" d="M 74.188325 412.095875 
L 83.020778 403.270468 
L 95.257632 393.375469 
L 106.321553 382.760851 
L 116.938811 372.679838 
L 127.689692 363.763512 
L 136.416056 355.202026 
L 142.989606 347.684071 
L 149.353135 339.861967 
L 153.916636 332.691405 
L 158.676282 325.72136 
L 162.360601 318.786982 
L 165.217814 313.160037 
L 167.681229 300.473615 
L 170.277034 299.889422 
L 172.163971 293.803516 
L 173.530816 288.300903 
L 193.437855 284.490931 
L 195.071393 281.166057 
L 196.545704 276.829773 
L 196.873292 273.386591 
L 197.608363 270.042441 
L 198.27741 267.106389 
L 198.800743 264.605999 
L 198.976872 260.928325 
L 199.389602 259.261075 
L 199.715126 258.067923 
L 200.060942 257.412387 
L 200.320409 256.430881 
L 200.658195 255.399401 
L 201.103147 254.642315 
L 201.262055 253.745892 
L 201.362127 253.092494 
L 201.452821 252.30087 
L 201.562552 251.662502 
L 201.674385 251.050946 
L 201.752394 250.485572 
L 201.787543 249.945248 
L 201.821908 249.48867 
L 201.837175 249.153356 
L 201.860832 248.722105 
L 201.880666 248.507603 
L 201.888293 248.371489 
L 201.911168 248.100157 
L 201.931748 247.907076 
L 201.953845 247.637772 
L 201.983549 247.388751 
L 201.983549 247.388751 
L 202.027698 247.178823 
L 202.123499 246.969605 
L 202.211566 246.817891 
L 202.273744 246.704349 
L 202.351758 246.534427 
L 202.462172 246.402588 
L 202.538438 246.327377 
L 202.623655 246.214733 
L 202.711765 246.121019 
L 202.826044 246.064859 
L 202.920616 245.971372 
L 202.988828 245.896684 
L 203.062203 245.822087 
L 203.126522 245.691758 
L 203.196 245.580266 
L 203.254212 245.506049 
L 203.308643 245.431922 
L 203.349621 245.376384 
L 203.405456 245.339387 
L 203.454549 245.339387 
L 203.51846 245.302412 
L 203.586758 245.26546 
L 203.628293 245.246991 
L 203.675728 245.173174 
L 203.759391 245.173174 
L 203.844418 245.136298 
L 203.917523 245.136298 
L 203.953673 245.117869 
L 203.992014 245.117869 
L 204.25093 225.007374 
L 204.27368 225.007374 
L 204.289087 225.007374 
L 204.315489 225.007374 
L 204.325021 225.007374 
L 204.352141 225.007374 
L 204.363132 225.007374 
L 204.369726 225.007374 
L 204.379982 225.007374 
L 204.389503 225.007374 
L 204.3917 224.994069 
L 204.396094 224.994069 
L 204.412202 224.994069 
L 204.415131 224.994069 
L 204.423915 224.994069 
L 204.426111 224.994069 
L 204.42977 224.994069 
L 204.434893 224.994069 
L 204.437821 224.994069 
L 204.439284 224.994069 
L 204.44148 224.994069 
L 204.44587 224.994069 
L 204.446602 224.994069 
L 204.456845 224.994069 
L 204.471474 224.994069 
L 204.472206 224.980768 
L 204.477325 224.980768 
L 204.481713 224.980768 
L 204.485369 224.980768 
L 204.49195 224.980768 
L 204.496337 224.967469 
L 204.503647 224.967469 
L 204.508033 224.967469 
L 204.511688 224.967469 
L 204.51315 224.967469 
L 204.522651 224.967469 
L 204.524113 224.967469 
L 204.526305 224.967469 
L 204.534343 224.967469 
" style="fill:none;stroke:#ff7f0e;stroke-linecap:square;stroke-width:1.5;"/>
    <defs>
     <path d="M -3 3 
L 3 -3 
M -3 -3 
L 3 3 
" id="m00eb2a45ea" style="stroke:#ff7f0e;"/>
    </defs>
    <g clip-path="url(#p504ad805e1)">
     <use style="fill:#ff7f0e;stroke:#ff7f0e;" x="-1" xlink:href="#m00eb2a45ea" y="472.341343"/>
     <use style="fill:#ff7f0e;stroke:#ff7f0e;" x="23.872296" xlink:href="#m00eb2a45ea" y="458.452131"/>
     <use style="fill:#ff7f0e;stroke:#ff7f0e;" x="41.104786" xlink:href="#m00eb2a45ea" y="444.902819"/>
     <use style="fill:#ff7f0e;stroke:#ff7f0e;" x="56.83215" xlink:href="#m00eb2a45ea" y="429.276067"/>
     <use style="fill:#ff7f0e;stroke:#ff7f0e;" x="70.933535" xlink:href="#m00eb2a45ea" y="415.348069"/>
     <use style="fill:#ff7f0e;stroke:#ff7f0e;" x="83.020778" xlink:href="#m00eb2a45ea" y="403.270468"/>
     <use style="fill:#ff7f0e;stroke:#ff7f0e;" x="95.257632" xlink:href="#m00eb2a45ea" y="393.375469"/>
     <use style="fill:#ff7f0e;stroke:#ff7f0e;" x="106.321553" xlink:href="#m00eb2a45ea" y="382.760851"/>
     <use style="fill:#ff7f0e;stroke:#ff7f0e;" x="116.938811" xlink:href="#m00eb2a45ea" y="372.679838"/>
     <use style="fill:#ff7f0e;stroke:#ff7f0e;" x="127.689692" xlink:href="#m00eb2a45ea" y="363.763512"/>
     <use style="fill:#ff7f0e;stroke:#ff7f0e;" x="136.416056" xlink:href="#m00eb2a45ea" y="355.202026"/>
     <use style="fill:#ff7f0e;stroke:#ff7f0e;" x="142.989606" xlink:href="#m00eb2a45ea" y="347.684071"/>
     <use style="fill:#ff7f0e;stroke:#ff7f0e;" x="149.353135" xlink:href="#m00eb2a45ea" y="339.861967"/>
     <use style="fill:#ff7f0e;stroke:#ff7f0e;" x="153.916636" xlink:href="#m00eb2a45ea" y="332.691405"/>
     <use style="fill:#ff7f0e;stroke:#ff7f0e;" x="158.676282" xlink:href="#m00eb2a45ea" y="325.72136"/>
     <use style="fill:#ff7f0e;stroke:#ff7f0e;" x="162.360601" xlink:href="#m00eb2a45ea" y="318.786982"/>
     <use style="fill:#ff7f0e;stroke:#ff7f0e;" x="165.217814" xlink:href="#m00eb2a45ea" y="313.160037"/>
     <use style="fill:#ff7f0e;stroke:#ff7f0e;" x="167.681229" xlink:href="#m00eb2a45ea" y="300.473615"/>
     <use style="fill:#ff7f0e;stroke:#ff7f0e;" x="170.277034" xlink:href="#m00eb2a45ea" y="299.889422"/>
     <use style="fill:#ff7f0e;stroke:#ff7f0e;" x="172.163971" xlink:href="#m00eb2a45ea" y="293.803516"/>
     <use style="fill:#ff7f0e;stroke:#ff7f0e;" x="173.530816" xlink:href="#m00eb2a45ea" y="288.300903"/>
     <use style="fill:#ff7f0e;stroke:#ff7f0e;" x="193.437855" xlink:href="#m00eb2a45ea" y="284.490931"/>
     <use style="fill:#ff7f0e;stroke:#ff7f0e;" x="195.071393" xlink:href="#m00eb2a45ea" y="281.166057"/>
     <use style="fill:#ff7f0e;stroke:#ff7f0e;" x="196.545704" xlink:href="#m00eb2a45ea" y="276.829773"/>
     <use style="fill:#ff7f0e;stroke:#ff7f0e;" x="196.873292" xlink:href="#m00eb2a45ea" y="273.386591"/>
     <use style="fill:#ff7f0e;stroke:#ff7f0e;" x="197.608363" xlink:href="#m00eb2a45ea" y="270.042441"/>
     <use style="fill:#ff7f0e;stroke:#ff7f0e;" x="198.27741" xlink:href="#m00eb2a45ea" y="267.106389"/>
     <use style="fill:#ff7f0e;stroke:#ff7f0e;" x="198.800743" xlink:href="#m00eb2a45ea" y="264.605999"/>
     <use style="fill:#ff7f0e;stroke:#ff7f0e;" x="198.976872" xlink:href="#m00eb2a45ea" y="260.928325"/>
     <use style="fill:#ff7f0e;stroke:#ff7f0e;" x="199.389602" xlink:href="#m00eb2a45ea" y="259.261075"/>
     <use style="fill:#ff7f0e;stroke:#ff7f0e;" x="199.715126" xlink:href="#m00eb2a45ea" y="258.067923"/>
     <use style="fill:#ff7f0e;stroke:#ff7f0e;" x="200.060942" xlink:href="#m00eb2a45ea" y="257.412387"/>
     <use style="fill:#ff7f0e;stroke:#ff7f0e;" x="200.320409" xlink:href="#m00eb2a45ea" y="256.430881"/>
     <use style="fill:#ff7f0e;stroke:#ff7f0e;" x="200.658195" xlink:href="#m00eb2a45ea" y="255.399401"/>
     <use style="fill:#ff7f0e;stroke:#ff7f0e;" x="201.103147" xlink:href="#m00eb2a45ea" y="254.642315"/>
     <use style="fill:#ff7f0e;stroke:#ff7f0e;" x="201.262055" xlink:href="#m00eb2a45ea" y="253.745892"/>
     <use style="fill:#ff7f0e;stroke:#ff7f0e;" x="201.362127" xlink:href="#m00eb2a45ea" y="253.092494"/>
     <use style="fill:#ff7f0e;stroke:#ff7f0e;" x="201.452821" xlink:href="#m00eb2a45ea" y="252.30087"/>
     <use style="fill:#ff7f0e;stroke:#ff7f0e;" x="201.562552" xlink:href="#m00eb2a45ea" y="251.662502"/>
     <use style="fill:#ff7f0e;stroke:#ff7f0e;" x="201.674385" xlink:href="#m00eb2a45ea" y="251.050946"/>
     <use style="fill:#ff7f0e;stroke:#ff7f0e;" x="201.752394" xlink:href="#m00eb2a45ea" y="250.485572"/>
     <use style="fill:#ff7f0e;stroke:#ff7f0e;" x="201.787543" xlink:href="#m00eb2a45ea" y="249.945248"/>
     <use style="fill:#ff7f0e;stroke:#ff7f0e;" x="201.821908" xlink:href="#m00eb2a45ea" y="249.48867"/>
     <use style="fill:#ff7f0e;stroke:#ff7f0e;" x="201.837175" xlink:href="#m00eb2a45ea" y="249.153356"/>
     <use style="fill:#ff7f0e;stroke:#ff7f0e;" x="201.860832" xlink:href="#m00eb2a45ea" y="248.722105"/>
     <use style="fill:#ff7f0e;stroke:#ff7f0e;" x="201.880666" xlink:href="#m00eb2a45ea" y="248.507603"/>
     <use style="fill:#ff7f0e;stroke:#ff7f0e;" x="201.888293" xlink:href="#m00eb2a45ea" y="248.371489"/>
     <use style="fill:#ff7f0e;stroke:#ff7f0e;" x="201.911168" xlink:href="#m00eb2a45ea" y="248.100157"/>
     <use style="fill:#ff7f0e;stroke:#ff7f0e;" x="201.931748" xlink:href="#m00eb2a45ea" y="247.907076"/>
     <use style="fill:#ff7f0e;stroke:#ff7f0e;" x="201.953845" xlink:href="#m00eb2a45ea" y="247.637772"/>
     <use style="fill:#ff7f0e;stroke:#ff7f0e;" x="201.983549" xlink:href="#m00eb2a45ea" y="247.388751"/>
     <use style="fill:#ff7f0e;stroke:#ff7f0e;" x="201.983549" xlink:href="#m00eb2a45ea" y="247.388751"/>
     <use style="fill:#ff7f0e;stroke:#ff7f0e;" x="202.027698" xlink:href="#m00eb2a45ea" y="247.178823"/>
     <use style="fill:#ff7f0e;stroke:#ff7f0e;" x="202.123499" xlink:href="#m00eb2a45ea" y="246.969605"/>
     <use style="fill:#ff7f0e;stroke:#ff7f0e;" x="202.211566" xlink:href="#m00eb2a45ea" y="246.817891"/>
     <use style="fill:#ff7f0e;stroke:#ff7f0e;" x="202.273744" xlink:href="#m00eb2a45ea" y="246.704349"/>
     <use style="fill:#ff7f0e;stroke:#ff7f0e;" x="202.351758" xlink:href="#m00eb2a45ea" y="246.534427"/>
     <use style="fill:#ff7f0e;stroke:#ff7f0e;" x="202.462172" xlink:href="#m00eb2a45ea" y="246.402588"/>
     <use style="fill:#ff7f0e;stroke:#ff7f0e;" x="202.538438" xlink:href="#m00eb2a45ea" y="246.327377"/>
     <use style="fill:#ff7f0e;stroke:#ff7f0e;" x="202.623655" xlink:href="#m00eb2a45ea" y="246.214733"/>
     <use style="fill:#ff7f0e;stroke:#ff7f0e;" x="202.711765" xlink:href="#m00eb2a45ea" y="246.121019"/>
     <use style="fill:#ff7f0e;stroke:#ff7f0e;" x="202.826044" xlink:href="#m00eb2a45ea" y="246.064859"/>
     <use style="fill:#ff7f0e;stroke:#ff7f0e;" x="202.920616" xlink:href="#m00eb2a45ea" y="245.971372"/>
     <use style="fill:#ff7f0e;stroke:#ff7f0e;" x="202.988828" xlink:href="#m00eb2a45ea" y="245.896684"/>
     <use style="fill:#ff7f0e;stroke:#ff7f0e;" x="203.062203" xlink:href="#m00eb2a45ea" y="245.822087"/>
     <use style="fill:#ff7f0e;stroke:#ff7f0e;" x="203.126522" xlink:href="#m00eb2a45ea" y="245.691758"/>
     <use style="fill:#ff7f0e;stroke:#ff7f0e;" x="203.196" xlink:href="#m00eb2a45ea" y="245.580266"/>
     <use style="fill:#ff7f0e;stroke:#ff7f0e;" x="203.254212" xlink:href="#m00eb2a45ea" y="245.506049"/>
     <use style="fill:#ff7f0e;stroke:#ff7f0e;" x="203.308643" xlink:href="#m00eb2a45ea" y="245.431922"/>
     <use style="fill:#ff7f0e;stroke:#ff7f0e;" x="203.349621" xlink:href="#m00eb2a45ea" y="245.376384"/>
     <use style="fill:#ff7f0e;stroke:#ff7f0e;" x="203.405456" xlink:href="#m00eb2a45ea" y="245.339387"/>
     <use style="fill:#ff7f0e;stroke:#ff7f0e;" x="203.454549" xlink:href="#m00eb2a45ea" y="245.339387"/>
     <use style="fill:#ff7f0e;stroke:#ff7f0e;" x="203.51846" xlink:href="#m00eb2a45ea" y="245.302412"/>
     <use style="fill:#ff7f0e;stroke:#ff7f0e;" x="203.586758" xlink:href="#m00eb2a45ea" y="245.26546"/>
     <use style="fill:#ff7f0e;stroke:#ff7f0e;" x="203.628293" xlink:href="#m00eb2a45ea" y="245.246991"/>
     <use style="fill:#ff7f0e;stroke:#ff7f0e;" x="203.675728" xlink:href="#m00eb2a45ea" y="245.173174"/>
     <use style="fill:#ff7f0e;stroke:#ff7f0e;" x="203.759391" xlink:href="#m00eb2a45ea" y="245.173174"/>
     <use style="fill:#ff7f0e;stroke:#ff7f0e;" x="203.844418" xlink:href="#m00eb2a45ea" y="245.136298"/>
     <use style="fill:#ff7f0e;stroke:#ff7f0e;" x="203.917523" xlink:href="#m00eb2a45ea" y="245.136298"/>
     <use style="fill:#ff7f0e;stroke:#ff7f0e;" x="203.953673" xlink:href="#m00eb2a45ea" y="245.117869"/>
     <use style="fill:#ff7f0e;stroke:#ff7f0e;" x="203.992014" xlink:href="#m00eb2a45ea" y="245.117869"/>
     <use style="fill:#ff7f0e;stroke:#ff7f0e;" x="204.25093" xlink:href="#m00eb2a45ea" y="225.007374"/>
     <use style="fill:#ff7f0e;stroke:#ff7f0e;" x="204.27368" xlink:href="#m00eb2a45ea" y="225.007374"/>
     <use style="fill:#ff7f0e;stroke:#ff7f0e;" x="204.289087" xlink:href="#m00eb2a45ea" y="225.007374"/>
     <use style="fill:#ff7f0e;stroke:#ff7f0e;" x="204.315489" xlink:href="#m00eb2a45ea" y="225.007374"/>
     <use style="fill:#ff7f0e;stroke:#ff7f0e;" x="204.325021" xlink:href="#m00eb2a45ea" y="225.007374"/>
     <use style="fill:#ff7f0e;stroke:#ff7f0e;" x="204.352141" xlink:href="#m00eb2a45ea" y="225.007374"/>
     <use style="fill:#ff7f0e;stroke:#ff7f0e;" x="204.363132" xlink:href="#m00eb2a45ea" y="225.007374"/>
     <use style="fill:#ff7f0e;stroke:#ff7f0e;" x="204.369726" xlink:href="#m00eb2a45ea" y="225.007374"/>
     <use style="fill:#ff7f0e;stroke:#ff7f0e;" x="204.379982" xlink:href="#m00eb2a45ea" y="225.007374"/>
     <use style="fill:#ff7f0e;stroke:#ff7f0e;" x="204.389503" xlink:href="#m00eb2a45ea" y="225.007374"/>
     <use style="fill:#ff7f0e;stroke:#ff7f0e;" x="204.3917" xlink:href="#m00eb2a45ea" y="224.994069"/>
     <use style="fill:#ff7f0e;stroke:#ff7f0e;" x="204.396094" xlink:href="#m00eb2a45ea" y="224.994069"/>
     <use style="fill:#ff7f0e;stroke:#ff7f0e;" x="204.412202" xlink:href="#m00eb2a45ea" y="224.994069"/>
     <use style="fill:#ff7f0e;stroke:#ff7f0e;" x="204.415131" xlink:href="#m00eb2a45ea" y="224.994069"/>
     <use style="fill:#ff7f0e;stroke:#ff7f0e;" x="204.423915" xlink:href="#m00eb2a45ea" y="224.994069"/>
     <use style="fill:#ff7f0e;stroke:#ff7f0e;" x="204.426111" xlink:href="#m00eb2a45ea" y="224.994069"/>
     <use style="fill:#ff7f0e;stroke:#ff7f0e;" x="204.42977" xlink:href="#m00eb2a45ea" y="224.994069"/>
     <use style="fill:#ff7f0e;stroke:#ff7f0e;" x="204.434893" xlink:href="#m00eb2a45ea" y="224.994069"/>
     <use style="fill:#ff7f0e;stroke:#ff7f0e;" x="204.437821" xlink:href="#m00eb2a45ea" y="224.994069"/>
     <use style="fill:#ff7f0e;stroke:#ff7f0e;" x="204.439284" xlink:href="#m00eb2a45ea" y="224.994069"/>
     <use style="fill:#ff7f0e;stroke:#ff7f0e;" x="204.44148" xlink:href="#m00eb2a45ea" y="224.994069"/>
     <use style="fill:#ff7f0e;stroke:#ff7f0e;" x="204.44587" xlink:href="#m00eb2a45ea" y="224.994069"/>
     <use style="fill:#ff7f0e;stroke:#ff7f0e;" x="204.446602" xlink:href="#m00eb2a45ea" y="224.994069"/>
     <use style="fill:#ff7f0e;stroke:#ff7f0e;" x="204.456845" xlink:href="#m00eb2a45ea" y="224.994069"/>
     <use style="fill:#ff7f0e;stroke:#ff7f0e;" x="204.471474" xlink:href="#m00eb2a45ea" y="224.994069"/>
     <use style="fill:#ff7f0e;stroke:#ff7f0e;" x="204.472206" xlink:href="#m00eb2a45ea" y="224.980768"/>
     <use style="fill:#ff7f0e;stroke:#ff7f0e;" x="204.477325" xlink:href="#m00eb2a45ea" y="224.980768"/>
     <use style="fill:#ff7f0e;stroke:#ff7f0e;" x="204.481713" xlink:href="#m00eb2a45ea" y="224.980768"/>
     <use style="fill:#ff7f0e;stroke:#ff7f0e;" x="204.485369" xlink:href="#m00eb2a45ea" y="224.980768"/>
     <use style="fill:#ff7f0e;stroke:#ff7f0e;" x="204.49195" xlink:href="#m00eb2a45ea" y="224.980768"/>
     <use style="fill:#ff7f0e;stroke:#ff7f0e;" x="204.496337" xlink:href="#m00eb2a45ea" y="224.967469"/>
     <use style="fill:#ff7f0e;stroke:#ff7f0e;" x="204.503647" xlink:href="#m00eb2a45ea" y="224.967469"/>
     <use style="fill:#ff7f0e;stroke:#ff7f0e;" x="204.508033" xlink:href="#m00eb2a45ea" y="224.967469"/>
     <use style="fill:#ff7f0e;stroke:#ff7f0e;" x="204.511688" xlink:href="#m00eb2a45ea" y="224.967469"/>
     <use style="fill:#ff7f0e;stroke:#ff7f0e;" x="204.51315" xlink:href="#m00eb2a45ea" y="224.967469"/>
     <use style="fill:#ff7f0e;stroke:#ff7f0e;" x="204.522651" xlink:href="#m00eb2a45ea" y="224.967469"/>
     <use style="fill:#ff7f0e;stroke:#ff7f0e;" x="204.524113" xlink:href="#m00eb2a45ea" y="224.967469"/>
     <use style="fill:#ff7f0e;stroke:#ff7f0e;" x="204.526305" xlink:href="#m00eb2a45ea" y="224.967469"/>
     <use style="fill:#ff7f0e;stroke:#ff7f0e;" x="204.534343" xlink:href="#m00eb2a45ea" y="224.967469"/>
    </g>
   </g>
   <g id="line2d_50">
    <path clip-path="url(#p504ad805e1)" d="M 80.209563 412.095875 
L 81.298818 399.1204 
L 83.530733 396.929863 
L 85.914586 390.789047 
L 88.075183 387.562405 
L 89.751779 385.026173 
L 90.695723 384.495984 
L 91.570886 380.246257 
L 92.814008 378.146795 
L 93.857478 374.150542 
L 94.697913 371.670792 
L 95.829313 368.602742 
L 97.06536 363.637843 
L 97.966174 361.418442 
L 98.675863 360.100384 
L 99.172664 357.545759 
L 99.609605 356.642391 
L 99.944233 355.973431 
L 100.265203 351.27733 
L 100.733746 350.056203 
L 100.933467 349.255327 
L 101.229898 347.105004 
L 101.810816 344.74901 
L 102.022458 343.016695 
L 102.458838 340.982677 
L 102.626444 339.69134 
L 102.80877 338.093475 
L 102.884581 337.679765 
L 103.111456 336.535905 
L 103.186896 335.891657 
L 103.33374 335.412844 
L 103.667544 333.920633 
L 103.753515 332.996426 
L 103.805787 332.085844 
L 103.921375 331.337148 
" style="fill:none;stroke:#2ca02c;stroke-linecap:square;stroke-width:1.5;"/>
    <defs>
     <path d="M -3 3 
L 3 -3 
M -3 -3 
L 3 3 
" id="meaf866e75c" style="stroke:#2ca02c;"/>
    </defs>
    <g clip-path="url(#p504ad805e1)">
     <use style="fill:#2ca02c;stroke:#2ca02c;" x="-1" xlink:href="#meaf866e75c" y="484.673048"/>
     <use style="fill:#2ca02c;stroke:#2ca02c;" x="3.664078" xlink:href="#meaf866e75c" y="484.081832"/>
     <use style="fill:#2ca02c;stroke:#2ca02c;" x="10.503299" xlink:href="#meaf866e75c" y="481.489843"/>
     <use style="fill:#2ca02c;stroke:#2ca02c;" x="14.622603" xlink:href="#meaf866e75c" y="475.834042"/>
     <use style="fill:#2ca02c;stroke:#2ca02c;" x="19.937678" xlink:href="#meaf866e75c" y="475.066744"/>
     <use style="fill:#2ca02c;stroke:#2ca02c;" x="26.939686" xlink:href="#meaf866e75c" y="472.089461"/>
     <use style="fill:#2ca02c;stroke:#2ca02c;" x="34.018686" xlink:href="#meaf866e75c" y="469.947049"/>
     <use style="fill:#2ca02c;stroke:#2ca02c;" x="41.187128" xlink:href="#meaf866e75c" y="465.873045"/>
     <use style="fill:#2ca02c;stroke:#2ca02c;" x="48.392439" xlink:href="#meaf866e75c" y="463.299061"/>
     <use style="fill:#2ca02c;stroke:#2ca02c;" x="52.867109" xlink:href="#meaf866e75c" y="460.828065"/>
     <use style="fill:#2ca02c;stroke:#2ca02c;" x="56.10127" xlink:href="#meaf866e75c" y="456.728298"/>
     <use style="fill:#2ca02c;stroke:#2ca02c;" x="59.672139" xlink:href="#meaf866e75c" y="451.306691"/>
     <use style="fill:#2ca02c;stroke:#2ca02c;" x="63.242433" xlink:href="#meaf866e75c" y="443.058901"/>
     <use style="fill:#2ca02c;stroke:#2ca02c;" x="67.315519" xlink:href="#meaf866e75c" y="437.836073"/>
     <use style="fill:#2ca02c;stroke:#2ca02c;" x="71.4083" xlink:href="#meaf866e75c" y="435.381445"/>
     <use style="fill:#2ca02c;stroke:#2ca02c;" x="74.878148" xlink:href="#meaf866e75c" y="432.635807"/>
     <use style="fill:#2ca02c;stroke:#2ca02c;" x="77.160428" xlink:href="#meaf866e75c" y="428.913798"/>
     <use style="fill:#2ca02c;stroke:#2ca02c;" x="79.233728" xlink:href="#meaf866e75c" y="423.720263"/>
     <use style="fill:#2ca02c;stroke:#2ca02c;" x="81.298818" xlink:href="#meaf866e75c" y="399.1204"/>
     <use style="fill:#2ca02c;stroke:#2ca02c;" x="83.530733" xlink:href="#meaf866e75c" y="396.929863"/>
     <use style="fill:#2ca02c;stroke:#2ca02c;" x="85.914586" xlink:href="#meaf866e75c" y="390.789047"/>
     <use style="fill:#2ca02c;stroke:#2ca02c;" x="88.075183" xlink:href="#meaf866e75c" y="387.562405"/>
     <use style="fill:#2ca02c;stroke:#2ca02c;" x="89.751779" xlink:href="#meaf866e75c" y="385.026173"/>
     <use style="fill:#2ca02c;stroke:#2ca02c;" x="90.695723" xlink:href="#meaf866e75c" y="384.495984"/>
     <use style="fill:#2ca02c;stroke:#2ca02c;" x="91.570886" xlink:href="#meaf866e75c" y="380.246257"/>
     <use style="fill:#2ca02c;stroke:#2ca02c;" x="92.814008" xlink:href="#meaf866e75c" y="378.146795"/>
     <use style="fill:#2ca02c;stroke:#2ca02c;" x="93.857478" xlink:href="#meaf866e75c" y="374.150542"/>
     <use style="fill:#2ca02c;stroke:#2ca02c;" x="94.697913" xlink:href="#meaf866e75c" y="371.670792"/>
     <use style="fill:#2ca02c;stroke:#2ca02c;" x="95.829313" xlink:href="#meaf866e75c" y="368.602742"/>
     <use style="fill:#2ca02c;stroke:#2ca02c;" x="97.06536" xlink:href="#meaf866e75c" y="363.637843"/>
     <use style="fill:#2ca02c;stroke:#2ca02c;" x="97.966174" xlink:href="#meaf866e75c" y="361.418442"/>
     <use style="fill:#2ca02c;stroke:#2ca02c;" x="98.675863" xlink:href="#meaf866e75c" y="360.100384"/>
     <use style="fill:#2ca02c;stroke:#2ca02c;" x="99.172664" xlink:href="#meaf866e75c" y="357.545759"/>
     <use style="fill:#2ca02c;stroke:#2ca02c;" x="99.609605" xlink:href="#meaf866e75c" y="356.642391"/>
     <use style="fill:#2ca02c;stroke:#2ca02c;" x="99.944233" xlink:href="#meaf866e75c" y="355.973431"/>
     <use style="fill:#2ca02c;stroke:#2ca02c;" x="100.265203" xlink:href="#meaf866e75c" y="351.27733"/>
     <use style="fill:#2ca02c;stroke:#2ca02c;" x="100.733746" xlink:href="#meaf866e75c" y="350.056203"/>
     <use style="fill:#2ca02c;stroke:#2ca02c;" x="100.933467" xlink:href="#meaf866e75c" y="349.255327"/>
     <use style="fill:#2ca02c;stroke:#2ca02c;" x="101.229898" xlink:href="#meaf866e75c" y="347.105004"/>
     <use style="fill:#2ca02c;stroke:#2ca02c;" x="101.810816" xlink:href="#meaf866e75c" y="344.74901"/>
     <use style="fill:#2ca02c;stroke:#2ca02c;" x="102.022458" xlink:href="#meaf866e75c" y="343.016695"/>
     <use style="fill:#2ca02c;stroke:#2ca02c;" x="102.458838" xlink:href="#meaf866e75c" y="340.982677"/>
     <use style="fill:#2ca02c;stroke:#2ca02c;" x="102.626444" xlink:href="#meaf866e75c" y="339.69134"/>
     <use style="fill:#2ca02c;stroke:#2ca02c;" x="102.80877" xlink:href="#meaf866e75c" y="338.093475"/>
     <use style="fill:#2ca02c;stroke:#2ca02c;" x="102.884581" xlink:href="#meaf866e75c" y="337.679765"/>
     <use style="fill:#2ca02c;stroke:#2ca02c;" x="103.111456" xlink:href="#meaf866e75c" y="336.535905"/>
     <use style="fill:#2ca02c;stroke:#2ca02c;" x="103.186896" xlink:href="#meaf866e75c" y="335.891657"/>
     <use style="fill:#2ca02c;stroke:#2ca02c;" x="103.33374" xlink:href="#meaf866e75c" y="335.412844"/>
     <use style="fill:#2ca02c;stroke:#2ca02c;" x="103.667544" xlink:href="#meaf866e75c" y="333.920633"/>
     <use style="fill:#2ca02c;stroke:#2ca02c;" x="103.753515" xlink:href="#meaf866e75c" y="332.996426"/>
     <use style="fill:#2ca02c;stroke:#2ca02c;" x="103.805787" xlink:href="#meaf866e75c" y="332.085844"/>
     <use style="fill:#2ca02c;stroke:#2ca02c;" x="103.921375" xlink:href="#meaf866e75c" y="331.337148"/>
    </g>
   </g>
   <g id="line2d_51">
    <path clip-path="url(#p504ad805e1)" d="M 61.223352 368.278459 
L 385.877898 43.623914 
" style="fill:none;stroke:#d3d3d3;stroke-linecap:square;stroke-width:1.5;"/>
   </g>
   <g id="patch_3">
    <path d="M 44.990625 374.114625 
L 44.990625 19.298625 
" style="fill:none;stroke:#000000;stroke-linecap:square;stroke-linejoin:miter;stroke-width:0.8;"/>
   </g>
   <g id="patch_4">
    <path d="M 402.110625 374.114625 
L 402.110625 19.298625 
" style="fill:none;stroke:#000000;stroke-linecap:square;stroke-linejoin:miter;stroke-width:0.8;"/>
   </g>
   <g id="patch_5">
    <path d="M 44.990625 374.114625 
L 402.110625 374.114625 
" style="fill:none;stroke:#000000;stroke-linecap:square;stroke-linejoin:miter;stroke-width:0.8;"/>
   </g>
   <g id="patch_6">
    <path d="M 44.990625 19.298625 
L 402.110625 19.298625 
" style="fill:none;stroke:#000000;stroke-linecap:square;stroke-linejoin:miter;stroke-width:0.8;"/>
   </g>
   <g id="text_9">
    <!-- Algeria -->
    <defs>
     <path d="M 63.375 0.984375 
L 53.8125 0.984375 
L 45.90625 22.015625 
L 17.1875 22.015625 
L 9.421875 0.984375 
L -0.09375 0.984375 
L 28.21875 72.90625 
L 35.296875 72.90625 
z
M 43.40625 29.109375 
L 36.1875 48.09375 
Q 33.203125 56.0625 31.6875 62.5 
L 31.390625 62.5 
Q 29.640625 55.671875 26.8125 48.09375 
L 19.734375 29.109375 
z
" id="IPAexGothic-65"/>
     <path d="M 17.671875 0.984375 
L 9.078125 0.984375 
L 9.078125 74.90625 
L 17.671875 74.90625 
z
" id="IPAexGothic-108"/>
     <path d="M 20.796875 17.96875 
Q 15.71875 17.53125 15.71875 14.0625 
Q 15.71875 9.578125 27.546875 8.984375 
L 33.296875 8.6875 
Q 51.609375 7.765625 51.609375 -4.59375 
Q 51.609375 -10.9375 45.703125 -14.984375 
Q 39.359375 -19.578125 28.03125 -19.578125 
Q 17.78125 -19.578125 11.53125 -16.0625 
Q 5.515625 -12.640625 5.515625 -6.6875 
Q 5.515625 1.3125 16.796875 3.859375 
L 16.796875 4.203125 
Q 7.90625 6.453125 7.90625 12.15625 
Q 7.90625 17.4375 15.53125 20.265625 
Q 7.125 24.609375 7.125 34.078125 
Q 7.125 41.40625 12.015625 46.296875 
Q 17.625 51.90625 27.15625 51.90625 
Q 33.203125 51.90625 37.84375 49.265625 
Q 41.40625 53.953125 50.921875 54.109375 
L 50.921875 47.078125 
Q 44.34375 46.921875 42.234375 45.90625 
Q 47.40625 40.828125 47.40625 33.890625 
Q 47.40625 27 42.71875 22.265625 
Q 37.5 17.09375 28.328125 17.09375 
Q 24.421875 17.09375 20.796875 17.96875 
z
M 27.09375 45.609375 
Q 22.015625 45.609375 18.703125 42.28125 
Q 15.4375 39.015625 15.4375 34.078125 
Q 15.4375 29.25 18.5 26.3125 
Q 21.828125 23 27.4375 23 
Q 32.71875 23 35.890625 26.21875 
Q 39.109375 29.390625 39.109375 34.421875 
Q 39.109375 39.015625 35.890625 42.1875 
Q 32.515625 45.609375 27.09375 45.609375 
z
M 27.390625 2.484375 
Q 14.109375 2.484375 14.109375 -5.71875 
Q 14.109375 -13.671875 28.125 -13.671875 
Q 37.15625 -13.671875 41.21875 -9.46875 
Q 43.3125 -7.515625 43.3125 -4.890625 
Q 43.3125 2.484375 27.390625 2.484375 
z
" id="IPAexGothic-103"/>
    </defs>
    <g transform="translate(61.223352 349.422376)scale(0.1 -0.1)">
     <use xlink:href="#IPAexGothic-65"/>
     <use x="63.720703" xlink:href="#IPAexGothic-108"/>
     <use x="90.722656" xlink:href="#IPAexGothic-103"/>
     <use x="146.240234" xlink:href="#IPAexGothic-101"/>
     <use x="203.125" xlink:href="#IPAexGothic-114"/>
     <use x="240.136719" xlink:href="#IPAexGothic-105"/>
     <use x="267.138672" xlink:href="#IPAexGothic-97"/>
    </g>
   </g>
   <g id="text_10">
    <!-- US -->
    <defs>
     <path d="M 65.921875 72.40625 
L 65.921875 25.484375 
Q 65.921875 15.53125 61.03125 9.28125 
Q 53.125 -0.984375 37.3125 -0.984375 
Q 21.4375 -0.984375 13.375 9.28125 
Q 8.59375 15.4375 8.59375 25.484375 
L 8.59375 72.40625 
L 17.390625 72.40625 
L 17.390625 26.5625 
Q 17.390625 17.71875 21.6875 12.984375 
Q 27.390625 6.6875 37.3125 6.6875 
Q 47.359375 6.6875 52.9375 12.984375 
Q 57.234375 17.875 57.234375 26.5625 
L 57.234375 72.40625 
z
" id="IPAexGothic-85"/>
     <path d="M 45.609375 56.890625 
Q 40.046875 66.546875 28.953125 66.546875 
Q 22.703125 66.546875 18.953125 62.640625 
Q 16.0625 59.421875 16.0625 55.21875 
Q 16.0625 50.59375 19.78125 47.609375 
Q 22.5625 45.515625 31 42 
L 34.375 40.578125 
Q 45.703125 36.03125 49.859375 30.515625 
Q 53.46875 25.6875 53.46875 19.671875 
Q 53.46875 10.0625 46.390625 4.5 
Q 39.984375 -0.484375 30.171875 -0.484375 
Q 13.765625 -0.484375 4.890625 11.96875 
L 11.765625 17.1875 
Q 18.796875 7.171875 30.28125 7.171875 
Q 35.75 7.171875 39.59375 9.765625 
Q 44.390625 13.234375 44.390625 19 
Q 44.390625 23.484375 40.875 27 
Q 37.109375 30.609375 27 34.46875 
L 24.078125 35.59375 
Q 7.078125 42.09375 7.078125 54.390625 
Q 7.078125 62.59375 12.59375 67.921875 
Q 18.796875 73.828125 29.109375 73.828125 
Q 44.390625 73.828125 52.484375 61.8125 
z
" id="IPAexGothic-83"/>
    </defs>
    <g transform="translate(385.877898 36.091804)scale(0.1 -0.1)">
     <use xlink:href="#IPAexGothic-85"/>
     <use x="74.707031" xlink:href="#IPAexGothic-83"/>
    </g>
   </g>
   <g id="text_11">
    <!-- Brazil -->
    <defs>
     <path d="M 42 37.890625 
Q 59.625 34.765625 59.625 20.90625 
Q 59.625 8.6875 47.515625 3.46875 
Q 41.75 0.984375 32.71875 0.984375 
L 9.515625 0.984375 
L 9.515625 72.40625 
L 29.9375 72.40625 
Q 38.96875 72.40625 44.828125 70.3125 
Q 56.9375 65.96875 56.9375 54.546875 
Q 56.9375 40.765625 42 38.234375 
z
M 18.109375 41.5 
L 28.8125 41.5 
Q 47.859375 41.5 47.859375 53.609375 
Q 47.859375 65.328125 29.390625 65.328125 
L 18.109375 65.328125 
z
M 18.109375 8.15625 
L 31.5 8.15625 
Q 50.34375 8.15625 50.34375 21.390625 
Q 50.34375 29.640625 41.015625 32.8125 
Q 35.59375 34.71875 29.296875 34.71875 
L 18.109375 34.71875 
z
" id="IPAexGothic-66"/>
     <path d="M 43.40625 0.984375 
L 3.21875 0.984375 
L 3.21875 5.953125 
L 24.609375 33.984375 
Q 28.46875 39.0625 32.515625 43.703125 
L 32.515625 44 
L 5.71875 44 
L 5.71875 50.78125 
L 42.234375 50.78125 
L 42.234375 45.3125 
L 21.53125 17.78125 
Q 19.625 15.234375 13.625 8.15625 
L 13.625 7.859375 
L 43.40625 7.859375 
z
" id="IPAexGothic-122"/>
    </defs>
    <g transform="translate(291.828785 126.968298)scale(0.1 -0.1)">
     <use xlink:href="#IPAexGothic-66"/>
     <use x="65.917969" xlink:href="#IPAexGothic-114"/>
     <use x="102.929688" xlink:href="#IPAexGothic-97"/>
     <use x="157.910156" xlink:href="#IPAexGothic-122"/>
     <use x="205.224609" xlink:href="#IPAexGothic-105"/>
     <use x="232.226562" xlink:href="#IPAexGothic-108"/>
    </g>
   </g>
   <g id="text_12">
    <!-- Peru -->
    <defs>
     <path d="M 9.515625 72.40625 
L 30.328125 72.40625 
Q 57.625 72.40625 57.625 51.90625 
Q 57.625 30.21875 29.78125 30.21875 
L 18.3125 30.21875 
L 18.3125 0.984375 
L 9.515625 0.984375 
z
M 18.3125 37.203125 
L 28.125 37.203125 
Q 48.4375 37.203125 48.4375 51.8125 
Q 48.4375 65.328125 29.59375 65.328125 
L 18.3125 65.328125 
z
" id="IPAexGothic-80"/>
     <path d="M 51.3125 0.984375 
L 43.3125 0.984375 
L 43.3125 10.0625 
Q 35.9375 0 25.390625 0 
Q 16.75 0 11.921875 5.859375 
Q 8.109375 10.59375 8.109375 19.390625 
L 8.109375 50.78125 
L 16.703125 50.78125 
L 16.703125 19.671875 
Q 16.703125 7.28125 27.09375 7.28125 
Q 37.59375 7.28125 42.71875 20.171875 
L 42.71875 50.78125 
L 51.3125 50.78125 
z
" id="IPAexGothic-117"/>
    </defs>
    <g transform="translate(223.946976 242.832113)scale(0.1 -0.1)">
     <use xlink:href="#IPAexGothic-80"/>
     <use x="62.109375" xlink:href="#IPAexGothic-101"/>
     <use x="118.994141" xlink:href="#IPAexGothic-114"/>
     <use x="156.005859" xlink:href="#IPAexGothic-117"/>
    </g>
   </g>
   <g id="text_13">
    <!-- Canada -->
    <g transform="translate(204.200997 203.464165)scale(0.1 -0.1)">
     <use xlink:href="#IPAexGothic-67"/>
     <use x="72.509766" xlink:href="#IPAexGothic-97"/>
     <use x="127.490234" xlink:href="#IPAexGothic-110"/>
     <use x="187.890625" xlink:href="#IPAexGothic-97"/>
     <use x="242.871094" xlink:href="#IPAexGothic-100"/>
     <use x="305.273438" xlink:href="#IPAexGothic-97"/>
    </g>
   </g>
   <g id="text_14">
    <!-- Chile -->
    <g transform="translate(192.082564 338.390606)scale(0.1 -0.1)">
     <use xlink:href="#IPAexGothic-67"/>
     <use x="72.509766" xlink:href="#IPAexGothic-104"/>
     <use x="133.203125" xlink:href="#IPAexGothic-105"/>
     <use x="160.205078" xlink:href="#IPAexGothic-108"/>
     <use x="187.207031" xlink:href="#IPAexGothic-101"/>
    </g>
   </g>
   <g id="text_15">
    <!-- Mexico -->
    <defs>
     <path d="M 80.421875 0.984375 
L 71.828125 0.984375 
L 71.828125 39.59375 
Q 71.828125 51.265625 72.40625 64.59375 
L 72.015625 64.59375 
Q 68.0625 53.265625 63.53125 41.796875 
L 47.90625 3.265625 
L 41.40625 3.265625 
L 25.640625 42.578125 
Q 20.75 54.78125 17.625 64.703125 
L 17.234375 64.703125 
Q 17.828125 48.921875 17.828125 39.890625 
L 17.828125 0.984375 
L 9.515625 0.984375 
L 9.515625 72.40625 
L 22.125 72.40625 
L 39.109375 30.375 
Q 42.140625 23 44.828125 14.15625 
L 45.125 14.15625 
Q 47.3125 22.125 50.53125 30.171875 
L 67.4375 72.40625 
L 80.421875 72.40625 
z
" id="IPAexGothic-77"/>
     <path d="M 47.65625 0.984375 
L 37.796875 0.984375 
L 24.171875 20.90625 
L 10.796875 0.984375 
L 0.875 0.984375 
L 19.484375 26.171875 
L 1.65625 50.78125 
L 11.671875 50.78125 
L 24.65625 31.5 
L 37.703125 50.78125 
L 47.171875 50.78125 
L 29.296875 26.265625 
z
" id="IPAexGothic-120"/>
     <path d="M 51.078125 12.25 
Q 44.28125 -0.484375 29.6875 -0.484375 
Q 19.1875 -0.484375 12.3125 6.390625 
Q 4.890625 13.921875 4.890625 25.984375 
Q 4.890625 37.9375 12.3125 45.515625 
Q 19.09375 52.296875 29.390625 52.296875 
Q 43.953125 52.296875 50.09375 39.703125 
L 43.171875 36.078125 
Q 38.8125 45.3125 29.6875 45.3125 
Q 23.6875 45.3125 19.28125 40.921875 
Q 13.765625 35.40625 13.765625 25.78125 
Q 13.765625 16.703125 19.09375 11.375 
Q 23.78125 6.6875 30.5625 6.6875 
Q 39.796875 6.6875 44.484375 15.875 
z
" id="IPAexGothic-99"/>
    </defs>
    <g transform="translate(189.110776 196.176192)scale(0.1 -0.1)">
     <use xlink:href="#IPAexGothic-77"/>
     <use x="90.185547" xlink:href="#IPAexGothic-101"/>
     <use x="147.070312" xlink:href="#IPAexGothic-120"/>
     <use x="195.947266" xlink:href="#IPAexGothic-105"/>
     <use x="222.949219" xlink:href="#IPAexGothic-99"/>
     <use x="277.34375" xlink:href="#IPAexGothic-111"/>
    </g>
   </g>
   <g id="text_16">
    <!-- Ecuador -->
    <defs>
     <path d="M 55.421875 0.984375 
L 9.515625 0.984375 
L 9.515625 72.40625 
L 54.203125 72.40625 
L 54.203125 64.796875 
L 18.21875 64.796875 
L 18.21875 41.40625 
L 50.09375 41.40625 
L 50.09375 34.234375 
L 18.21875 34.234375 
L 18.21875 8.6875 
L 55.421875 8.6875 
z
" id="IPAexGothic-69"/>
    </defs>
    <g transform="translate(153.090364 247.886055)scale(0.1 -0.1)">
     <use xlink:href="#IPAexGothic-69"/>
     <use x="59.521484" xlink:href="#IPAexGothic-99"/>
     <use x="113.916016" xlink:href="#IPAexGothic-117"/>
     <use x="174.316406" xlink:href="#IPAexGothic-97"/>
     <use x="229.296875" xlink:href="#IPAexGothic-100"/>
     <use x="291.699219" xlink:href="#IPAexGothic-111"/>
     <use x="352.099609" xlink:href="#IPAexGothic-114"/>
    </g>
   </g>
   <g id="text_17">
    <!-- Colombia -->
    <defs>
     <path d="M 17.578125 42.671875 
Q 24.21875 52.203125 34.671875 52.203125 
Q 43.5625 52.203125 49.859375 45.90625 
Q 57.171875 38.578125 57.171875 25.6875 
Q 57.171875 13.09375 49.859375 5.8125 
Q 43.5625 -0.484375 34.46875 -0.484375 
Q 24.359375 -0.484375 17 8.0625 
L 15.765625 0.6875 
L 9.078125 0.6875 
L 9.078125 74.90625 
L 17.578125 74.90625 
z
M 17.578125 31.203125 
L 17.578125 19.578125 
Q 17.578125 13.875 23.875 9.375 
Q 28.171875 6.296875 33.109375 6.296875 
Q 38.875 6.296875 42.875 10.296875 
Q 48.1875 15.765625 48.1875 25.484375 
Q 48.1875 34.28125 43.796875 39.890625 
Q 39.453125 45.3125 33.203125 45.3125 
Q 27.484375 45.3125 22.46875 40.28125 
Q 17.578125 35.40625 17.578125 31.203125 
z
" id="IPAexGothic-98"/>
    </defs>
    <g transform="translate(116.0453 339.519192)scale(0.1 -0.1)">
     <use xlink:href="#IPAexGothic-67"/>
     <use x="72.509766" xlink:href="#IPAexGothic-111"/>
     <use x="132.910156" xlink:href="#IPAexGothic-108"/>
     <use x="159.912109" xlink:href="#IPAexGothic-111"/>
     <use x="220.3125" xlink:href="#IPAexGothic-109"/>
     <use x="307.421875" xlink:href="#IPAexGothic-98"/>
     <use x="369.824219" xlink:href="#IPAexGothic-105"/>
     <use x="396.826172" xlink:href="#IPAexGothic-97"/>
    </g>
   </g>
   <g id="text_18">
    <!-- Iran -->
    <defs>
     <path d="M 18.796875 0.984375 
L 9.90625 0.984375 
L 9.90625 72.40625 
L 18.796875 72.40625 
z
" id="IPAexGothic-73"/>
    </defs>
    <g transform="translate(233.767054 194.161699)scale(0.1 -0.1)">
     <use xlink:href="#IPAexGothic-73"/>
     <use x="28.90625" xlink:href="#IPAexGothic-114"/>
     <use x="65.917969" xlink:href="#IPAexGothic-97"/>
     <use x="120.898438" xlink:href="#IPAexGothic-110"/>
    </g>
   </g>
   <g id="text_19">
    <!-- Pakistan -->
    <defs>
     <path d="M 50.6875 0.984375 
L 40.28125 0.984375 
L 23.1875 25.203125 
L 17.484375 19.671875 
L 17.484375 0.984375 
L 9.078125 0.984375 
L 9.078125 74.90625 
L 17.484375 74.90625 
L 17.484375 27.59375 
L 38.484375 50.78125 
L 49.265625 50.78125 
L 28.5625 30.078125 
z
" id="IPAexGothic-107"/>
    </defs>
    <g transform="translate(179.480979 308.389171)scale(0.1 -0.1)">
     <use xlink:href="#IPAexGothic-80"/>
     <use x="62.109375" xlink:href="#IPAexGothic-97"/>
     <use x="117.089844" xlink:href="#IPAexGothic-107"/>
     <use x="168.896484" xlink:href="#IPAexGothic-105"/>
     <use x="195.898438" xlink:href="#IPAexGothic-115"/>
     <use x="242.089844" xlink:href="#IPAexGothic-116"/>
     <use x="276.708984" xlink:href="#IPAexGothic-97"/>
     <use x="331.689453" xlink:href="#IPAexGothic-110"/>
    </g>
   </g>
   <g id="text_20">
    <!-- Egypt -->
    <defs>
     <path d="M 48.78125 50.78125 
L 24.609375 -7.625 
Q 19.96875 -18.796875 8.59375 -18.796875 
L 7.46875 -18.796875 
L 5.375 -10.984375 
L 6.984375 -10.984375 
Q 15.140625 -10.984375 17.96875 -3.71875 
L 21.1875 4.296875 
L 0.59375 50.78125 
L 10.296875 50.78125 
L 21.296875 22.796875 
Q 23.875 16.015625 25.09375 12.203125 
L 25.390625 12.203125 
Q 27.34375 18.265625 29.109375 22.796875 
L 39.5 50.78125 
z
" id="IPAexGothic-121"/>
     <path d="M 16.796875 42 
Q 23.828125 52.203125 34.46875 52.203125 
Q 43.265625 52.203125 49.5625 45.90625 
Q 56.890625 38.578125 56.890625 25.6875 
Q 56.890625 13.140625 49.65625 5.8125 
Q 43.359375 -0.484375 34.375 -0.484375 
Q 24.515625 -0.484375 17.28125 7.765625 
L 17.28125 -19 
L 8.796875 -19 
L 8.796875 50.78125 
L 16.796875 50.78125 
z
M 17.28125 30.46875 
L 17.28125 20.171875 
Q 17.28125 14.015625 23.6875 9.375 
Q 27.984375 6.296875 32.90625 6.296875 
Q 38.578125 6.296875 42.578125 10.296875 
Q 47.90625 15.578125 47.90625 25.484375 
Q 47.90625 34.375 43.5 39.984375 
Q 39.109375 45.3125 32.8125 45.3125 
Q 25.875 45.3125 20.90625 38.8125 
Q 17.28125 34.125 17.28125 30.46875 
z
" id="IPAexGothic-112"/>
    </defs>
    <g transform="translate(106.418223 334.497193)scale(0.1 -0.1)">
     <use xlink:href="#IPAexGothic-69"/>
     <use x="59.521484" xlink:href="#IPAexGothic-103"/>
     <use x="115.039062" xlink:href="#IPAexGothic-121"/>
     <use x="164.257812" xlink:href="#IPAexGothic-112"/>
     <use x="226.367188" xlink:href="#IPAexGothic-116"/>
    </g>
   </g>
   <g id="text_21">
    <!-- Russia -->
    <defs>
     <path d="M 63.625 0.984375 
L 53.03125 0.984375 
Q 49.03125 10.015625 44.1875 18.703125 
Q 40.375 25.640625 36.625 28.515625 
Q 32.03125 31.9375 25.390625 31.9375 
L 18.3125 31.9375 
L 18.3125 0.984375 
L 9.515625 0.984375 
L 9.515625 72.40625 
L 31.390625 72.40625 
Q 42.390625 72.40625 48.921875 68.40625 
Q 57.625 63.1875 57.625 52.828125 
Q 57.625 43.5 49.703125 38.421875 
Q 45.40625 35.5 39.40625 34.625 
L 39.40625 34.328125 
Q 45.953125 32.03125 50.734375 24.703125 
Q 54.9375 18.21875 63.625 0.984375 
z
M 18.3125 38.71875 
L 29.203125 38.71875 
Q 48.53125 38.71875 48.53125 52.640625 
Q 48.53125 65.328125 30.125 65.328125 
L 18.3125 65.328125 
z
" id="IPAexGothic-82"/>
    </defs>
    <g transform="translate(292.891534 238.245555)scale(0.1 -0.1)">
     <use xlink:href="#IPAexGothic-82"/>
     <use x="64.794922" xlink:href="#IPAexGothic-117"/>
     <use x="125.195312" xlink:href="#IPAexGothic-115"/>
     <use x="171.386719" xlink:href="#IPAexGothic-115"/>
     <use x="217.578125" xlink:href="#IPAexGothic-105"/>
     <use x="244.580078" xlink:href="#IPAexGothic-97"/>
    </g>
   </g>
   <g id="text_22">
    <!-- UK -->
    <defs>
     <path d="M 64.703125 0.984375 
L 53.328125 0.984375 
L 26.21875 36.671875 
L 18.3125 29 
L 18.3125 0.984375 
L 9.515625 0.984375 
L 9.515625 72.40625 
L 18.3125 72.40625 
L 18.3125 38.28125 
L 50 72.40625 
L 61.8125 72.40625 
L 31.890625 42.09375 
z
" id="IPAexGothic-75"/>
    </defs>
    <g transform="translate(273.825552 95.240339)scale(0.1 -0.1)">
     <use xlink:href="#IPAexGothic-85"/>
     <use x="74.707031" xlink:href="#IPAexGothic-75"/>
    </g>
   </g>
   <g id="text_23">
    <!-- Spain -->
    <g transform="translate(267.887661 110.472018)scale(0.1 -0.1)">
     <use xlink:href="#IPAexGothic-83"/>
     <use x="58.496094" xlink:href="#IPAexGothic-112"/>
     <use x="120.605469" xlink:href="#IPAexGothic-97"/>
     <use x="175.585938" xlink:href="#IPAexGothic-105"/>
     <use x="202.587891" xlink:href="#IPAexGothic-110"/>
    </g>
   </g>
   <g id="text_24">
    <!-- Italy -->
    <g transform="translate(266.318571 102.364292)scale(0.1 -0.1)">
     <use xlink:href="#IPAexGothic-73"/>
     <use x="28.90625" xlink:href="#IPAexGothic-116"/>
     <use x="63.525391" xlink:href="#IPAexGothic-97"/>
     <use x="118.505859" xlink:href="#IPAexGothic-108"/>
     <use x="145.507812" xlink:href="#IPAexGothic-121"/>
    </g>
   </g>
   <g id="text_25">
    <!-- Germany -->
    <defs>
     <path d="M 68.796875 12.203125 
Q 65.1875 7.71875 58.296875 3.90625 
Q 50.140625 -0.484375 40.484375 -0.484375 
Q 25.09375 -0.484375 15.4375 9.8125 
Q 5.90625 19.921875 5.90625 36.328125 
Q 5.90625 53.21875 15.828125 63.71875 
Q 25.296875 73.828125 39.59375 73.828125 
Q 59.375 73.828125 67.578125 56.6875 
L 59.625 52.984375 
Q 53.46875 66.21875 39.703125 66.21875 
Q 29.546875 66.21875 22.703125 58.5 
Q 15.53125 50.25 15.53125 36.375 
Q 15.53125 23.921875 21.828125 15.96875 
Q 28.8125 7.171875 41.015625 7.171875 
Q 54.046875 7.171875 60.59375 15.09375 
L 60.59375 29 
L 44.671875 29 
L 44.671875 35.796875 
L 68.796875 35.796875 
z
" id="IPAexGothic-71"/>
    </defs>
    <g transform="translate(250.723657 187.534959)scale(0.1 -0.1)">
     <use xlink:href="#IPAexGothic-71"/>
     <use x="75.292969" xlink:href="#IPAexGothic-101"/>
     <use x="132.177734" xlink:href="#IPAexGothic-114"/>
     <use x="169.189453" xlink:href="#IPAexGothic-109"/>
     <use x="256.298828" xlink:href="#IPAexGothic-97"/>
     <use x="311.279297" xlink:href="#IPAexGothic-110"/>
     <use x="371.679688" xlink:href="#IPAexGothic-121"/>
    </g>
   </g>
   <g id="text_26">
    <!-- Turkey -->
    <defs>
     <path d="M 60.40625 64.703125 
L 33.984375 64.703125 
L 33.984375 0.984375 
L 25.09375 0.984375 
L 25.09375 64.703125 
L -0.484375 64.703125 
L -0.484375 72.40625 
L 60.40625 72.40625 
z
" id="IPAexGothic-84"/>
    </defs>
    <g transform="translate(242.704034 227.262477)scale(0.1 -0.1)">
     <use xlink:href="#IPAexGothic-84"/>
     <use x="59.912109" xlink:href="#IPAexGothic-117"/>
     <use x="120.3125" xlink:href="#IPAexGothic-114"/>
     <use x="157.324219" xlink:href="#IPAexGothic-107"/>
     <use x="209.130859" xlink:href="#IPAexGothic-101"/>
     <use x="266.015625" xlink:href="#IPAexGothic-121"/>
    </g>
   </g>
   <g id="text_27">
    <!-- France -->
    <defs>
     <path d="M 54.203125 64.703125 
L 18.3125 64.703125 
L 18.3125 41.5 
L 50.09375 41.5 
L 50.09375 34.1875 
L 18.3125 34.1875 
L 18.3125 0.984375 
L 9.515625 0.984375 
L 9.515625 72.40625 
L 54.203125 72.40625 
z
" id="IPAexGothic-70"/>
    </defs>
    <g transform="translate(236.658272 111.418013)scale(0.1 -0.1)">
     <use xlink:href="#IPAexGothic-70"/>
     <use x="57.177734" xlink:href="#IPAexGothic-114"/>
     <use x="94.189453" xlink:href="#IPAexGothic-97"/>
     <use x="149.169922" xlink:href="#IPAexGothic-110"/>
     <use x="209.570312" xlink:href="#IPAexGothic-99"/>
     <use x="263.964844" xlink:href="#IPAexGothic-101"/>
    </g>
   </g>
   <g id="text_28">
    <!-- Belgium -->
    <g transform="translate(180.290092 180.262785)scale(0.1 -0.1)">
     <use xlink:href="#IPAexGothic-66"/>
     <use x="65.917969" xlink:href="#IPAexGothic-101"/>
     <use x="122.802734" xlink:href="#IPAexGothic-108"/>
     <use x="149.804688" xlink:href="#IPAexGothic-103"/>
     <use x="205.322266" xlink:href="#IPAexGothic-105"/>
     <use x="232.324219" xlink:href="#IPAexGothic-117"/>
     <use x="292.724609" xlink:href="#IPAexGothic-109"/>
    </g>
   </g>
   <g id="text_29">
    <!-- Netherlands -->
    <defs>
     <path d="M 66.3125 0.984375 
L 58.296875 0.984375 
L 26.515625 49.21875 
Q 22.90625 54.6875 17.828125 64.015625 
L 17.4375 64.015625 
L 17.625 59.328125 
Q 18.109375 43.796875 18.109375 38.578125 
L 18.109375 0.984375 
L 9.515625 0.984375 
L 9.515625 72.40625 
L 21.34375 72.40625 
L 48.640625 30.90625 
Q 53.953125 22.609375 58.015625 15.09375 
L 58.40625 15.09375 
Q 57.71875 29.640625 57.71875 38.578125 
L 57.71875 72.40625 
L 66.3125 72.40625 
z
" id="IPAexGothic-78"/>
    </defs>
    <g transform="translate(165.912616 209.117313)scale(0.1 -0.1)">
     <use xlink:href="#IPAexGothic-78"/>
     <use x="75.976562" xlink:href="#IPAexGothic-101"/>
     <use x="132.861328" xlink:href="#IPAexGothic-116"/>
     <use x="167.480469" xlink:href="#IPAexGothic-104"/>
     <use x="228.173828" xlink:href="#IPAexGothic-101"/>
     <use x="285.058594" xlink:href="#IPAexGothic-114"/>
     <use x="322.070312" xlink:href="#IPAexGothic-108"/>
     <use x="349.072266" xlink:href="#IPAexGothic-97"/>
     <use x="404.052734" xlink:href="#IPAexGothic-110"/>
     <use x="464.453125" xlink:href="#IPAexGothic-100"/>
     <use x="526.855469" xlink:href="#IPAexGothic-115"/>
    </g>
   </g>
   <g id="text_30">
    <!-- Sweden -->
    <defs>
     <path d="M 74.5625 50.78125 
L 57.28125 0.09375 
L 51.265625 0.09375 
L 40.765625 29.984375 
Q 39.203125 34.421875 37.703125 40.96875 
L 37.40625 40.96875 
Q 36.28125 36.234375 34.1875 29.984375 
L 23.96875 0.09375 
L 17.96875 0.09375 
L 0.6875 50.78125 
L 9.671875 50.78125 
L 18.0625 23.296875 
Q 18.84375 20.796875 21.296875 11.765625 
L 21.578125 11.765625 
Q 23.046875 17.578125 24.90625 23.296875 
L 33.890625 50.78125 
L 41.5 50.78125 
L 50.875 23.296875 
Q 52.296875 19.4375 54.203125 11.765625 
L 54.5 11.765625 
Q 56.109375 18.5 57.5625 23.296875 
L 65.875 50.78125 
z
" id="IPAexGothic-119"/>
    </defs>
    <g transform="translate(147.285491 232.332293)scale(0.1 -0.1)">
     <use xlink:href="#IPAexGothic-83"/>
     <use x="58.496094" xlink:href="#IPAexGothic-119"/>
     <use x="133.691406" xlink:href="#IPAexGothic-101"/>
     <use x="190.576172" xlink:href="#IPAexGothic-100"/>
     <use x="252.978516" xlink:href="#IPAexGothic-101"/>
     <use x="309.863281" xlink:href="#IPAexGothic-110"/>
    </g>
   </g>
   <g id="text_31">
    <!-- Switzerland -->
    <g transform="translate(141.875331 287.37245)scale(0.1 -0.1)">
     <use xlink:href="#IPAexGothic-83"/>
     <use x="58.496094" xlink:href="#IPAexGothic-119"/>
     <use x="133.691406" xlink:href="#IPAexGothic-105"/>
     <use x="160.693359" xlink:href="#IPAexGothic-116"/>
     <use x="195.3125" xlink:href="#IPAexGothic-122"/>
     <use x="242.626953" xlink:href="#IPAexGothic-101"/>
     <use x="299.511719" xlink:href="#IPAexGothic-114"/>
     <use x="336.523438" xlink:href="#IPAexGothic-108"/>
     <use x="363.525391" xlink:href="#IPAexGothic-97"/>
     <use x="418.505859" xlink:href="#IPAexGothic-110"/>
     <use x="478.90625" xlink:href="#IPAexGothic-100"/>
    </g>
   </g>
   <g id="text_32">
    <!-- Portugal -->
    <g transform="translate(141.814851 300.909445)scale(0.1 -0.1)">
     <use xlink:href="#IPAexGothic-80"/>
     <use x="62.109375" xlink:href="#IPAexGothic-111"/>
     <use x="122.509766" xlink:href="#IPAexGothic-114"/>
     <use x="159.521484" xlink:href="#IPAexGothic-116"/>
     <use x="194.140625" xlink:href="#IPAexGothic-117"/>
     <use x="254.541016" xlink:href="#IPAexGothic-103"/>
     <use x="310.058594" xlink:href="#IPAexGothic-97"/>
     <use x="365.039062" xlink:href="#IPAexGothic-108"/>
    </g>
   </g>
   <g id="text_33">
    <!-- Ireland -->
    <g transform="translate(128.385491 288.589567)scale(0.1 -0.1)">
     <use xlink:href="#IPAexGothic-73"/>
     <use x="28.90625" xlink:href="#IPAexGothic-114"/>
     <use x="65.917969" xlink:href="#IPAexGothic-101"/>
     <use x="122.802734" xlink:href="#IPAexGothic-108"/>
     <use x="149.804688" xlink:href="#IPAexGothic-97"/>
     <use x="204.785156" xlink:href="#IPAexGothic-110"/>
     <use x="265.185547" xlink:href="#IPAexGothic-100"/>
    </g>
   </g>
   <g id="text_34">
    <!-- Poland -->
    <g transform="translate(119.466164 318.175752)scale(0.1 -0.1)">
     <use xlink:href="#IPAexGothic-80"/>
     <use x="62.109375" xlink:href="#IPAexGothic-111"/>
     <use x="122.509766" xlink:href="#IPAexGothic-108"/>
     <use x="149.511719" xlink:href="#IPAexGothic-97"/>
     <use x="204.492188" xlink:href="#IPAexGothic-110"/>
     <use x="264.892578" xlink:href="#IPAexGothic-100"/>
    </g>
   </g>
   <g id="text_35">
    <!-- Ukraine -->
    <g transform="translate(119.231116 347.15672)scale(0.1 -0.1)">
     <use xlink:href="#IPAexGothic-85"/>
     <use x="74.707031" xlink:href="#IPAexGothic-107"/>
     <use x="126.513672" xlink:href="#IPAexGothic-114"/>
     <use x="163.525391" xlink:href="#IPAexGothic-97"/>
     <use x="218.505859" xlink:href="#IPAexGothic-105"/>
     <use x="245.507812" xlink:href="#IPAexGothic-110"/>
     <use x="305.908203" xlink:href="#IPAexGothic-101"/>
    </g>
   </g>
   <g id="text_36">
    <!-- Romania -->
    <g transform="translate(109.233039 307.757281)scale(0.1 -0.1)">
     <use xlink:href="#IPAexGothic-82"/>
     <use x="64.794922" xlink:href="#IPAexGothic-111"/>
     <use x="125.195312" xlink:href="#IPAexGothic-109"/>
     <use x="212.304688" xlink:href="#IPAexGothic-97"/>
     <use x="267.285156" xlink:href="#IPAexGothic-110"/>
     <use x="327.685547" xlink:href="#IPAexGothic-105"/>
     <use x="354.6875" xlink:href="#IPAexGothic-97"/>
    </g>
   </g>
   <g id="text_37">
    <!-- Austria -->
    <g transform="translate(103.390126 345.493859)scale(0.1 -0.1)">
     <use xlink:href="#IPAexGothic-65"/>
     <use x="63.720703" xlink:href="#IPAexGothic-117"/>
     <use x="124.121094" xlink:href="#IPAexGothic-115"/>
     <use x="170.3125" xlink:href="#IPAexGothic-116"/>
     <use x="204.931641" xlink:href="#IPAexGothic-114"/>
     <use x="241.943359" xlink:href="#IPAexGothic-105"/>
     <use x="268.945312" xlink:href="#IPAexGothic-97"/>
    </g>
   </g>
   <g id="text_38">
    <!-- Denmark -->
    <g transform="translate(80.563749 353.521446)scale(0.1 -0.1)">
     <use xlink:href="#IPAexGothic-68"/>
     <use x="75.683594" xlink:href="#IPAexGothic-101"/>
     <use x="132.568359" xlink:href="#IPAexGothic-110"/>
     <use x="192.96875" xlink:href="#IPAexGothic-109"/>
     <use x="280.078125" xlink:href="#IPAexGothic-97"/>
     <use x="335.058594" xlink:href="#IPAexGothic-114"/>
     <use x="372.070312" xlink:href="#IPAexGothic-107"/>
    </g>
   </g>
   <g id="text_39">
    <!-- India -->
    <g transform="translate(235.181774 231.977975)scale(0.1 -0.1)">
     <use xlink:href="#IPAexGothic-73"/>
     <use x="28.90625" xlink:href="#IPAexGothic-110"/>
     <use x="89.306641" xlink:href="#IPAexGothic-100"/>
     <use x="151.708984" xlink:href="#IPAexGothic-105"/>
     <use x="178.710938" xlink:href="#IPAexGothic-97"/>
    </g>
   </g>
   <g id="text_40">
    <!-- Indonesia -->
    <g transform="translate(122.144268 298.393274)scale(0.1 -0.1)">
     <use xlink:href="#IPAexGothic-73"/>
     <use x="28.90625" xlink:href="#IPAexGothic-110"/>
     <use x="89.306641" xlink:href="#IPAexGothic-100"/>
     <use x="151.708984" xlink:href="#IPAexGothic-111"/>
     <use x="212.109375" xlink:href="#IPAexGothic-110"/>
     <use x="272.509766" xlink:href="#IPAexGothic-101"/>
     <use x="329.394531" xlink:href="#IPAexGothic-115"/>
     <use x="375.585938" xlink:href="#IPAexGothic-105"/>
     <use x="402.587891" xlink:href="#IPAexGothic-97"/>
    </g>
   </g>
   <g id="text_41">
    <!-- China -->
    <g transform="translate(204.534343 223.067469)scale(0.1 -0.1)">
     <use xlink:href="#IPAexGothic-67"/>
     <use x="72.509766" xlink:href="#IPAexGothic-104"/>
     <use x="133.203125" xlink:href="#IPAexGothic-105"/>
     <use x="160.205078" xlink:href="#IPAexGothic-110"/>
     <use x="220.605469" xlink:href="#IPAexGothic-97"/>
    </g>
   </g>
   <g id="text_42">
    <!-- Japan -->
    <defs>
     <path d="M 28.421875 72.40625 
L 28.421875 19.28125 
Q 28.421875 -0.484375 11.921875 -0.484375 
Q 4.734375 -0.484375 -1.953125 3.265625 
L 1.3125 10.0625 
Q 5.90625 6.984375 10.84375 6.984375 
Q 19.53125 6.984375 19.53125 18.796875 
L 19.53125 72.40625 
z
" id="IPAexGothic-74"/>
    </defs>
    <g transform="translate(103.921375 329.437148)scale(0.1 -0.1)">
     <use xlink:href="#IPAexGothic-74"/>
     <use x="37.988281" xlink:href="#IPAexGothic-97"/>
     <use x="92.96875" xlink:href="#IPAexGothic-112"/>
     <use x="155.078125" xlink:href="#IPAexGothic-97"/>
     <use x="210.058594" xlink:href="#IPAexGothic-110"/>
    </g>
   </g>
   <g id="text_43">
    <!-- Philippines -->
    <g transform="translate(93.62467 326.6721)scale(0.1 -0.1)">
     <use xlink:href="#IPAexGothic-80"/>
     <use x="62.109375" xlink:href="#IPAexGothic-104"/>
     <use x="122.802734" xlink:href="#IPAexGothic-105"/>
     <use x="149.804688" xlink:href="#IPAexGothic-108"/>
     <use x="176.806641" xlink:href="#IPAexGothic-105"/>
     <use x="203.808594" xlink:href="#IPAexGothic-112"/>
     <use x="265.917969" xlink:href="#IPAexGothic-112"/>
     <use x="328.027344" xlink:href="#IPAexGothic-105"/>
     <use x="355.029297" xlink:href="#IPAexGothic-110"/>
     <use x="415.429688" xlink:href="#IPAexGothic-101"/>
     <use x="472.314453" xlink:href="#IPAexGothic-115"/>
    </g>
   </g>
   <g id="legend_1">
    <g id="patch_7">
     <path d="M 51.990625 41.68925 
L 223.05 41.68925 
Q 225.05 41.68925 225.05 39.68925 
L 225.05 26.298625 
Q 225.05 24.298625 223.05 24.298625 
L 51.990625 24.298625 
Q 49.990625 24.298625 49.990625 26.298625 
L 49.990625 39.68925 
Q 49.990625 41.68925 51.990625 41.68925 
z
" style="fill:#ffffff;opacity:0.8;stroke:#cccccc;stroke-linejoin:miter;"/>
    </g>
    <g id="line2d_52">
     <path d="M 53.990625 32.28925 
L 73.990625 32.28925 
" style="fill:none;stroke:#d3d3d3;stroke-linecap:square;stroke-width:1.5;"/>
    </g>
    <g id="line2d_53"/>
    <g id="text_44">
     <!-- Deaths / Confirmed = 0.0549 -->
     <defs>
      <path id="IPAexGothic-32"/>
      <path d="M 42.484375 73.578125 
L 9.375 -13.8125 
L 4.6875 -11.921875 
L 37.703125 75.484375 
z
" id="IPAexGothic-47"/>
      <path d="M 6.5 43.796875 
L 61.28125 43.796875 
L 61.28125 38.09375 
L 6.5 38.09375 
z
M 6.5 25.390625 
L 61.28125 25.390625 
L 61.28125 19.671875 
L 6.5 19.671875 
z
" id="IPAexGothic-61"/>
      <path d="M 18.5 0.984375 
L 7.71875 0.984375 
L 7.71875 11.765625 
L 18.5 11.765625 
z
" id="IPAexGothic-46"/>
      <path d="M 46.625 36.8125 
Q 39.75 26.8125 28.328125 26.8125 
Q 19.578125 26.8125 13.234375 32.125 
Q 5.71875 38.421875 5.71875 49.421875 
Q 5.71875 59.578125 12.015625 66.65625 
Q 18.453125 73.828125 29.203125 73.828125 
Q 43.75 73.828125 50.640625 61.71875 
Q 55.609375 52.78125 55.609375 38.625 
Q 55.609375 19.53125 47.515625 9.1875 
Q 39.890625 -0.484375 27.640625 -0.484375 
Q 13.421875 -0.484375 6.109375 10.984375 
L 13.328125 14.890625 
Q 18.0625 6.6875 27.390625 6.6875 
Q 45.65625 6.6875 47.015625 36.8125 
z
M 29.5 66.84375 
Q 22.65625 66.84375 18.3125 61.71875 
Q 14.40625 57.078125 14.40625 50 
Q 14.40625 42.828125 18.109375 38.71875 
Q 22.40625 33.796875 29.78125 33.796875 
Q 37.984375 33.796875 42.625 40.1875 
Q 45.703125 44.484375 45.703125 49.515625 
Q 45.703125 55.515625 42.09375 60.359375 
Q 37.109375 66.84375 29.5 66.84375 
z
" id="IPAexGothic-57"/>
     </defs>
     <g transform="translate(81.990625 35.78925)scale(0.1 -0.1)">
      <use xlink:href="#IPAexGothic-68"/>
      <use x="75.683594" xlink:href="#IPAexGothic-101"/>
      <use x="132.568359" xlink:href="#IPAexGothic-97"/>
      <use x="187.548828" xlink:href="#IPAexGothic-116"/>
      <use x="222.167969" xlink:href="#IPAexGothic-104"/>
      <use x="282.861328" xlink:href="#IPAexGothic-115"/>
      <use x="329.052734" xlink:href="#IPAexGothic-32"/>
      <use x="356.054688" xlink:href="#IPAexGothic-47"/>
      <use x="406.054688" xlink:href="#IPAexGothic-32"/>
      <use x="433.056641" xlink:href="#IPAexGothic-67"/>
      <use x="505.566406" xlink:href="#IPAexGothic-111"/>
      <use x="565.966797" xlink:href="#IPAexGothic-110"/>
      <use x="626.367188" xlink:href="#IPAexGothic-102"/>
      <use x="656.982422" xlink:href="#IPAexGothic-105"/>
      <use x="683.984375" xlink:href="#IPAexGothic-114"/>
      <use x="720.996094" xlink:href="#IPAexGothic-109"/>
      <use x="808.105469" xlink:href="#IPAexGothic-101"/>
      <use x="864.990234" xlink:href="#IPAexGothic-100"/>
      <use x="927.392578" xlink:href="#IPAexGothic-32"/>
      <use x="954.394531" xlink:href="#IPAexGothic-61"/>
      <use x="1022.216797" xlink:href="#IPAexGothic-32"/>
      <use x="1049.21875" xlink:href="#IPAexGothic-48"/>
      <use x="1112.207031" xlink:href="#IPAexGothic-46"/>
      <use x="1138.623047" xlink:href="#IPAexGothic-48"/>
      <use x="1201.611328" xlink:href="#IPAexGothic-53"/>
      <use x="1264.599609" xlink:href="#IPAexGothic-52"/>
      <use x="1327.587891" xlink:href="#IPAexGothic-57"/>
     </g>
    </g>
   </g>
  </g>
  <g id="text_45">
   <!-- generated: 2020-05-26 07:34:41 JST -->
   <defs>
    <path d="M 21.390625 39.984375 
L 10.5 39.984375 
L 10.5 50.78125 
L 21.390625 50.78125 
z
M 21.390625 0.984375 
L 10.5 0.984375 
L 10.5 11.765625 
L 21.390625 11.765625 
z
" id="IPAexGothic-58"/>
    <path d="M 57.171875 0.984375 
L 6.984375 0.984375 
L 6.984375 9.28125 
Q 12.890625 23.046875 29.59375 34.421875 
L 32.375 36.28125 
Q 40.921875 42.140625 43.609375 45.40625 
Q 46.6875 49.265625 46.6875 53.8125 
Q 46.6875 58.9375 43.0625 62.546875 
Q 39.0625 66.546875 32.5625 66.546875 
Q 19.53125 66.546875 15.484375 52 
L 7.765625 54.78125 
Q 13.328125 73.828125 33.0625 73.828125 
Q 43.84375 73.828125 50.25 67.4375 
Q 55.859375 61.671875 55.859375 53.515625 
Q 55.859375 47.46875 52.25 42.53125 
Q 48.921875 37.75 36.96875 30.28125 
L 34.859375 29 
Q 19.625 19.578125 15.28125 8.890625 
L 57.171875 8.890625 
z
" id="IPAexGothic-50"/>
    <path d="M 30.765625 26.609375 
L 4.984375 26.609375 
L 4.984375 34.421875 
L 30.765625 34.421875 
z
" id="IPAexGothic-45"/>
    <path d="M 56.203125 66.609375 
Q 34.96875 32.90625 27.78125 0.984375 
L 17.671875 0.984375 
Q 24.703125 28.65625 46.09375 64.5 
L 6.6875 64.5 
L 6.6875 72.40625 
L 56.203125 72.40625 
z
" id="IPAexGothic-55"/>
   </defs>
   <g transform="translate(225.87625 14.690625)scale(0.1 -0.1)">
    <use xlink:href="#IPAexGothic-103"/>
    <use x="55.517578" xlink:href="#IPAexGothic-101"/>
    <use x="112.402344" xlink:href="#IPAexGothic-110"/>
    <use x="172.802734" xlink:href="#IPAexGothic-101"/>
    <use x="229.6875" xlink:href="#IPAexGothic-114"/>
    <use x="266.699219" xlink:href="#IPAexGothic-97"/>
    <use x="321.679688" xlink:href="#IPAexGothic-116"/>
    <use x="356.298828" xlink:href="#IPAexGothic-101"/>
    <use x="413.183594" xlink:href="#IPAexGothic-100"/>
    <use x="475.585938" xlink:href="#IPAexGothic-58"/>
    <use x="507.568359" xlink:href="#IPAexGothic-32"/>
    <use x="534.570312" xlink:href="#IPAexGothic-50"/>
    <use x="597.558594" xlink:href="#IPAexGothic-48"/>
    <use x="660.546875" xlink:href="#IPAexGothic-50"/>
    <use x="723.535156" xlink:href="#IPAexGothic-48"/>
    <use x="786.523438" xlink:href="#IPAexGothic-45"/>
    <use x="822.314453" xlink:href="#IPAexGothic-48"/>
    <use x="885.302734" xlink:href="#IPAexGothic-53"/>
    <use x="948.291016" xlink:href="#IPAexGothic-45"/>
    <use x="984.082031" xlink:href="#IPAexGothic-50"/>
    <use x="1047.070312" xlink:href="#IPAexGothic-54"/>
    <use x="1110.058594" xlink:href="#IPAexGothic-32"/>
    <use x="1137.060547" xlink:href="#IPAexGothic-48"/>
    <use x="1200.048828" xlink:href="#IPAexGothic-55"/>
    <use x="1263.037109" xlink:href="#IPAexGothic-58"/>
    <use x="1295.019531" xlink:href="#IPAexGothic-51"/>
    <use x="1358.007812" xlink:href="#IPAexGothic-52"/>
    <use x="1420.996094" xlink:href="#IPAexGothic-58"/>
    <use x="1452.978516" xlink:href="#IPAexGothic-52"/>
    <use x="1515.966797" xlink:href="#IPAexGothic-49"/>
    <use x="1578.955078" xlink:href="#IPAexGothic-32"/>
    <use x="1605.957031" xlink:href="#IPAexGothic-74"/>
    <use x="1643.945312" xlink:href="#IPAexGothic-83"/>
    <use x="1702.441406" xlink:href="#IPAexGothic-84"/>
   </g>
  </g>
 </g>
 <defs>
  <clipPath id="p504ad805e1">
   <rect height="354.816" width="357.12" x="44.990625" y="19.298625"/>
  </clipPath>
 </defs>
</svg>
