<?xml version="1.0" encoding="utf-8" standalone="no"?>
<!DOCTYPE svg PUBLIC "-//W3C//DTD SVG 1.1//EN"
  "http://www.w3.org/Graphics/SVG/1.1/DTD/svg11.dtd">
<!-- Created with matplotlib (https://matplotlib.org/) -->
<svg height="320.239875pt" version="1.1" viewBox="0 0 423.310625 320.239875" width="423.310625pt" xmlns="http://www.w3.org/2000/svg" xmlns:xlink="http://www.w3.org/1999/xlink">
 <metadata>
  <rdf:RDF xmlns:cc="http://creativecommons.org/ns#" xmlns:dc="http://purl.org/dc/elements/1.1/" xmlns:rdf="http://www.w3.org/1999/02/22-rdf-syntax-ns#">
   <cc:Work>
    <dc:type rdf:resource="http://purl.org/dc/dcmitype/StillImage"/>
    <dc:date>2020-11-30T15:00:29.261293</dc:date>
    <dc:format>image/svg+xml</dc:format>
    <dc:creator>
     <cc:Agent>
      <dc:title>Matplotlib v3.3.3, https://matplotlib.org/</dc:title>
     </cc:Agent>
    </dc:creator>
   </cc:Work>
  </rdf:RDF>
 </metadata>
 <defs>
  <style type="text/css">*{stroke-linecap:butt;stroke-linejoin:round;}</style>
 </defs>
 <g id="figure_1">
  <g id="patch_1">
   <path d="M 0 320.239875 
L 423.310625 320.239875 
L 423.310625 0 
L 0 0 
z
" style="fill:#ffffff;"/>
  </g>
  <g id="axes_1">
   <g id="patch_2">
    <path d="M 33.095313 284.258625 
L 390.215312 284.258625 
L 390.215312 18.146625 
L 33.095313 18.146625 
z
" style="fill:#ffffff;"/>
   </g>
   <g id="patch_3">
    <path clip-path="url(#p2a99bdf7a7)" d="M -15.128921 284.258625 
L -16.432279 284.258625 
L -16.432279 283.813993 
L -15.128921 283.813993 
z
" style="fill:#ff7f0e;"/>
   </g>
   <g id="patch_4">
    <path clip-path="url(#p2a99bdf7a7)" d="M -13.825563 284.258625 
L -15.128921 284.258625 
L -15.128921 283.813993 
L -13.825563 283.813993 
z
" style="fill:#ff7f0e;"/>
   </g>
   <g id="patch_5">
    <path clip-path="url(#p2a99bdf7a7)" d="M -12.522206 284.258625 
L -13.825563 284.258625 
L -13.825563 284.258625 
L -12.522206 284.258625 
z
" style="fill:#ff7f0e;"/>
   </g>
   <g id="patch_6">
    <path clip-path="url(#p2a99bdf7a7)" d="M -11.218848 284.258625 
L -12.522206 284.258625 
L -12.522206 284.258625 
L -11.218848 284.258625 
z
" style="fill:#ff7f0e;"/>
   </g>
   <g id="patch_7">
    <path clip-path="url(#p2a99bdf7a7)" d="M -9.91549 284.258625 
L -11.218848 284.258625 
L -11.218848 284.258625 
L -9.91549 284.258625 
z
" style="fill:#ff7f0e;"/>
   </g>
   <g id="patch_8">
    <path clip-path="url(#p2a99bdf7a7)" d="M -8.612133 284.258625 
L -9.91549 284.258625 
L -9.91549 284.258625 
L -8.612133 284.258625 
z
" style="fill:#ff7f0e;"/>
   </g>
   <g id="patch_9">
    <path clip-path="url(#p2a99bdf7a7)" d="M -7.308775 284.258625 
L -8.612133 284.258625 
L -8.612133 283.813993 
L -7.308775 283.813993 
z
" style="fill:#ff7f0e;"/>
   </g>
   <g id="patch_10">
    <path clip-path="url(#p2a99bdf7a7)" d="M -6.005417 284.258625 
L -7.308775 284.258625 
L -7.308775 284.258625 
L -6.005417 284.258625 
z
" style="fill:#ff7f0e;"/>
   </g>
   <g id="patch_11">
    <path clip-path="url(#p2a99bdf7a7)" d="M -4.70206 284.258625 
L -6.005417 284.258625 
L -6.005417 284.258625 
L -4.70206 284.258625 
z
" style="fill:#ff7f0e;"/>
   </g>
   <g id="patch_12">
    <path clip-path="url(#p2a99bdf7a7)" d="M -3.398702 284.258625 
L -4.70206 284.258625 
L -4.70206 284.258625 
L -3.398702 284.258625 
z
" style="fill:#ff7f0e;"/>
   </g>
   <g id="patch_13">
    <path clip-path="url(#p2a99bdf7a7)" d="M -2.095344 284.258625 
L -3.398702 284.258625 
L -3.398702 284.258625 
L -2.095344 284.258625 
z
" style="fill:#ff7f0e;"/>
   </g>
   <g id="patch_14">
    <path clip-path="url(#p2a99bdf7a7)" d="M -0.791987 284.258625 
L -2.095344 284.258625 
L -2.095344 284.258625 
L -0.791987 284.258625 
z
" style="fill:#ff7f0e;"/>
   </g>
   <g id="patch_15">
    <path clip-path="url(#p2a99bdf7a7)" d="M 0.511371 284.258625 
L -0.791987 284.258625 
L -0.791987 284.258625 
L 0.511371 284.258625 
z
" style="fill:#ff7f0e;"/>
   </g>
   <g id="patch_16">
    <path clip-path="url(#p2a99bdf7a7)" d="M 1.814729 284.258625 
L 0.511371 284.258625 
L 0.511371 284.258625 
L 1.814729 284.258625 
z
" style="fill:#ff7f0e;"/>
   </g>
   <g id="patch_17">
    <path clip-path="url(#p2a99bdf7a7)" d="M 3.118086 284.258625 
L 1.814729 284.258625 
L 1.814729 284.258625 
L 3.118086 284.258625 
z
" style="fill:#ff7f0e;"/>
   </g>
   <g id="patch_18">
    <path clip-path="url(#p2a99bdf7a7)" d="M 4.421444 284.258625 
L 3.118086 284.258625 
L 3.118086 284.258625 
L 4.421444 284.258625 
z
" style="fill:#ff7f0e;"/>
   </g>
   <g id="patch_19">
    <path clip-path="url(#p2a99bdf7a7)" d="M 5.724802 284.258625 
L 4.421444 284.258625 
L 4.421444 284.258625 
L 5.724802 284.258625 
z
" style="fill:#ff7f0e;"/>
   </g>
   <g id="patch_20">
    <path clip-path="url(#p2a99bdf7a7)" d="M 7.028159 284.258625 
L 5.724802 284.258625 
L 5.724802 284.258625 
L 7.028159 284.258625 
z
" style="fill:#ff7f0e;"/>
   </g>
   <g id="patch_21">
    <path clip-path="url(#p2a99bdf7a7)" d="M 8.331517 284.258625 
L 7.028159 284.258625 
L 7.028159 284.258625 
L 8.331517 284.258625 
z
" style="fill:#ff7f0e;"/>
   </g>
   <g id="patch_22">
    <path clip-path="url(#p2a99bdf7a7)" d="M 9.634875 284.258625 
L 8.331517 284.258625 
L 8.331517 284.258625 
L 9.634875 284.258625 
z
" style="fill:#ff7f0e;"/>
   </g>
   <g id="patch_23">
    <path clip-path="url(#p2a99bdf7a7)" d="M 10.938232 284.258625 
L 9.634875 284.258625 
L 9.634875 283.813993 
L 10.938232 283.813993 
z
" style="fill:#ff7f0e;"/>
   </g>
   <g id="patch_24">
    <path clip-path="url(#p2a99bdf7a7)" d="M 12.24159 284.258625 
L 10.938232 284.258625 
L 10.938232 283.369362 
L 12.24159 283.369362 
z
" style="fill:#ff7f0e;"/>
   </g>
   <g id="patch_25">
    <path clip-path="url(#p2a99bdf7a7)" d="M 13.544948 284.258625 
L 12.24159 284.258625 
L 12.24159 280.701572 
L 13.544948 280.701572 
z
" style="fill:#ff7f0e;"/>
   </g>
   <g id="patch_26">
    <path clip-path="url(#p2a99bdf7a7)" d="M 14.848305 284.258625 
L 13.544948 284.258625 
L 13.544948 282.035467 
L 14.848305 282.035467 
z
" style="fill:#ff7f0e;"/>
   </g>
   <g id="patch_27">
    <path clip-path="url(#p2a99bdf7a7)" d="M 16.151663 284.258625 
L 14.848305 284.258625 
L 14.848305 284.258625 
L 16.151663 284.258625 
z
" style="fill:#ff7f0e;"/>
   </g>
   <g id="patch_28">
    <path clip-path="url(#p2a99bdf7a7)" d="M 17.455021 284.258625 
L 16.151663 284.258625 
L 16.151663 282.92473 
L 17.455021 282.92473 
z
" style="fill:#ff7f0e;"/>
   </g>
   <g id="patch_29">
    <path clip-path="url(#p2a99bdf7a7)" d="M 18.758378 284.258625 
L 17.455021 284.258625 
L 17.455021 282.92473 
L 18.758378 282.92473 
z
" style="fill:#ff7f0e;"/>
   </g>
   <g id="patch_30">
    <path clip-path="url(#p2a99bdf7a7)" d="M 20.061736 284.258625 
L 18.758378 284.258625 
L 18.758378 284.258625 
L 20.061736 284.258625 
z
" style="fill:#ff7f0e;"/>
   </g>
   <g id="patch_31">
    <path clip-path="url(#p2a99bdf7a7)" d="M 21.365094 284.258625 
L 20.061736 284.258625 
L 20.061736 282.92473 
L 21.365094 282.92473 
z
" style="fill:#ff7f0e;"/>
   </g>
   <g id="patch_32">
    <path clip-path="url(#p2a99bdf7a7)" d="M 22.668451 284.258625 
L 21.365094 284.258625 
L 21.365094 283.813993 
L 22.668451 283.813993 
z
" style="fill:#ff7f0e;"/>
   </g>
   <g id="patch_33">
    <path clip-path="url(#p2a99bdf7a7)" d="M 23.971809 284.258625 
L 22.668451 284.258625 
L 22.668451 284.258625 
L 23.971809 284.258625 
z
" style="fill:#ff7f0e;"/>
   </g>
   <g id="patch_34">
    <path clip-path="url(#p2a99bdf7a7)" d="M 25.275167 284.258625 
L 23.971809 284.258625 
L 23.971809 282.92473 
L 25.275167 282.92473 
z
" style="fill:#ff7f0e;"/>
   </g>
   <g id="patch_35">
    <path clip-path="url(#p2a99bdf7a7)" d="M 26.578524 284.258625 
L 25.275167 284.258625 
L 25.275167 284.258625 
L 26.578524 284.258625 
z
" style="fill:#ff7f0e;"/>
   </g>
   <g id="patch_36">
    <path clip-path="url(#p2a99bdf7a7)" d="M 27.881882 284.258625 
L 26.578524 284.258625 
L 26.578524 282.92473 
L 27.881882 282.92473 
z
" style="fill:#ff7f0e;"/>
   </g>
   <g id="patch_37">
    <path clip-path="url(#p2a99bdf7a7)" d="M 29.18524 284.258625 
L 27.881882 284.258625 
L 27.881882 283.813993 
L 29.18524 283.813993 
z
" style="fill:#ff7f0e;"/>
   </g>
   <g id="patch_38">
    <path clip-path="url(#p2a99bdf7a7)" d="M 30.488597 284.258625 
L 29.18524 284.258625 
L 29.18524 284.258625 
L 30.488597 284.258625 
z
" style="fill:#ff7f0e;"/>
   </g>
   <g id="patch_39">
    <path clip-path="url(#p2a99bdf7a7)" d="M 31.791955 284.258625 
L 30.488597 284.258625 
L 30.488597 283.813993 
L 31.791955 283.813993 
z
" style="fill:#ff7f0e;"/>
   </g>
   <g id="patch_40">
    <path clip-path="url(#p2a99bdf7a7)" d="M 33.095313 284.258625 
L 31.791955 284.258625 
L 31.791955 283.369362 
L 33.095313 283.369362 
z
" style="fill:#ff7f0e;"/>
   </g>
   <g id="patch_41">
    <path clip-path="url(#p2a99bdf7a7)" d="M 34.39867 284.258625 
L 33.095313 284.258625 
L 33.095313 284.258625 
L 34.39867 284.258625 
z
" style="fill:#ff7f0e;"/>
   </g>
   <g id="patch_42">
    <path clip-path="url(#p2a99bdf7a7)" d="M 35.702028 284.258625 
L 34.39867 284.258625 
L 34.39867 283.813993 
L 35.702028 283.813993 
z
" style="fill:#ff7f0e;"/>
   </g>
   <g id="patch_43">
    <path clip-path="url(#p2a99bdf7a7)" d="M 37.005385 284.258625 
L 35.702028 284.258625 
L 35.702028 282.480099 
L 37.005385 282.480099 
z
" style="fill:#ff7f0e;"/>
   </g>
   <g id="patch_44">
    <path clip-path="url(#p2a99bdf7a7)" d="M 38.308743 284.258625 
L 37.005385 284.258625 
L 37.005385 280.701572 
L 38.308743 280.701572 
z
" style="fill:#ff7f0e;"/>
   </g>
   <g id="patch_45">
    <path clip-path="url(#p2a99bdf7a7)" d="M 39.612101 284.258625 
L 38.308743 284.258625 
L 38.308743 281.590836 
L 39.612101 281.590836 
z
" style="fill:#ff7f0e;"/>
   </g>
   <g id="patch_46">
    <path clip-path="url(#p2a99bdf7a7)" d="M 40.915458 284.258625 
L 39.612101 284.258625 
L 39.612101 281.590836 
L 40.915458 281.590836 
z
" style="fill:#ff7f0e;"/>
   </g>
   <g id="patch_47">
    <path clip-path="url(#p2a99bdf7a7)" d="M 42.218816 284.258625 
L 40.915458 284.258625 
L 40.915458 284.258625 
L 42.218816 284.258625 
z
" style="fill:#ff7f0e;"/>
   </g>
   <g id="patch_48">
    <path clip-path="url(#p2a99bdf7a7)" d="M 43.522174 284.258625 
L 42.218816 284.258625 
L 42.218816 284.258625 
L 43.522174 284.258625 
z
" style="fill:#ff7f0e;"/>
   </g>
   <g id="patch_49">
    <path clip-path="url(#p2a99bdf7a7)" d="M 44.825531 284.258625 
L 43.522174 284.258625 
L 43.522174 282.92473 
L 44.825531 282.92473 
z
" style="fill:#ff7f0e;"/>
   </g>
   <g id="patch_50">
    <path clip-path="url(#p2a99bdf7a7)" d="M 46.128889 284.258625 
L 44.825531 284.258625 
L 44.825531 281.590836 
L 46.128889 281.590836 
z
" style="fill:#ff7f0e;"/>
   </g>
   <g id="patch_51">
    <path clip-path="url(#p2a99bdf7a7)" d="M 47.432247 284.258625 
L 46.128889 284.258625 
L 46.128889 283.369362 
L 47.432247 283.369362 
z
" style="fill:#ff7f0e;"/>
   </g>
   <g id="patch_52">
    <path clip-path="url(#p2a99bdf7a7)" d="M 48.735604 284.258625 
L 47.432247 284.258625 
L 47.432247 283.369362 
L 48.735604 283.369362 
z
" style="fill:#ff7f0e;"/>
   </g>
   <g id="patch_53">
    <path clip-path="url(#p2a99bdf7a7)" d="M 50.038962 284.258625 
L 48.735604 284.258625 
L 48.735604 279.812309 
L 50.038962 279.812309 
z
" style="fill:#ff7f0e;"/>
   </g>
   <g id="patch_54">
    <path clip-path="url(#p2a99bdf7a7)" d="M 51.34232 284.258625 
L 50.038962 284.258625 
L 50.038962 282.92473 
L 51.34232 282.92473 
z
" style="fill:#ff7f0e;"/>
   </g>
   <g id="patch_55">
    <path clip-path="url(#p2a99bdf7a7)" d="M 52.645677 284.258625 
L 51.34232 284.258625 
L 51.34232 284.258625 
L 52.645677 284.258625 
z
" style="fill:#ff7f0e;"/>
   </g>
   <g id="patch_56">
    <path clip-path="url(#p2a99bdf7a7)" d="M 53.949035 284.258625 
L 52.645677 284.258625 
L 52.645677 278.923046 
L 53.949035 278.923046 
z
" style="fill:#ff7f0e;"/>
   </g>
   <g id="patch_57">
    <path clip-path="url(#p2a99bdf7a7)" d="M 55.252393 284.258625 
L 53.949035 284.258625 
L 53.949035 280.256941 
L 55.252393 280.256941 
z
" style="fill:#ff7f0e;"/>
   </g>
   <g id="patch_58">
    <path clip-path="url(#p2a99bdf7a7)" d="M 56.55575 284.258625 
L 55.252393 284.258625 
L 55.252393 281.146204 
L 56.55575 281.146204 
z
" style="fill:#ff7f0e;"/>
   </g>
   <g id="patch_59">
    <path clip-path="url(#p2a99bdf7a7)" d="M 57.859108 284.258625 
L 56.55575 284.258625 
L 56.55575 279.367678 
L 57.859108 279.367678 
z
" style="fill:#ff7f0e;"/>
   </g>
   <g id="patch_60">
    <path clip-path="url(#p2a99bdf7a7)" d="M 59.162466 284.258625 
L 57.859108 284.258625 
L 57.859108 281.146204 
L 59.162466 281.146204 
z
" style="fill:#ff7f0e;"/>
   </g>
   <g id="patch_61">
    <path clip-path="url(#p2a99bdf7a7)" d="M 60.465823 284.258625 
L 59.162466 284.258625 
L 59.162466 282.92473 
L 60.465823 282.92473 
z
" style="fill:#ff7f0e;"/>
   </g>
   <g id="patch_62">
    <path clip-path="url(#p2a99bdf7a7)" d="M 61.769181 284.258625 
L 60.465823 284.258625 
L 60.465823 277.14452 
L 61.769181 277.14452 
z
" style="fill:#ff7f0e;"/>
   </g>
   <g id="patch_63">
    <path clip-path="url(#p2a99bdf7a7)" d="M 63.072539 284.258625 
L 61.769181 284.258625 
L 61.769181 276.255257 
L 63.072539 276.255257 
z
" style="fill:#ff7f0e;"/>
   </g>
   <g id="patch_64">
    <path clip-path="url(#p2a99bdf7a7)" d="M 64.375896 284.258625 
L 63.072539 284.258625 
L 63.072539 266.02873 
L 64.375896 266.02873 
z
" style="fill:#ff7f0e;"/>
   </g>
   <g id="patch_65">
    <path clip-path="url(#p2a99bdf7a7)" d="M 65.679254 284.258625 
L 64.375896 284.258625 
L 64.375896 263.805572 
L 65.679254 263.805572 
z
" style="fill:#ff7f0e;"/>
   </g>
   <g id="patch_66">
    <path clip-path="url(#p2a99bdf7a7)" d="M 66.982612 284.258625 
L 65.679254 284.258625 
L 65.679254 266.473362 
L 66.982612 266.473362 
z
" style="fill:#ff7f0e;"/>
   </g>
   <g id="patch_67">
    <path clip-path="url(#p2a99bdf7a7)" d="M 68.285969 284.258625 
L 66.982612 284.258625 
L 66.982612 255.802204 
L 68.285969 255.802204 
z
" style="fill:#ff7f0e;"/>
   </g>
   <g id="patch_68">
    <path clip-path="url(#p2a99bdf7a7)" d="M 69.589327 284.258625 
L 68.285969 284.258625 
L 68.285969 252.245151 
L 69.589327 252.245151 
z
" style="fill:#ff7f0e;"/>
   </g>
   <g id="patch_69">
    <path clip-path="url(#p2a99bdf7a7)" d="M 70.892685 284.258625 
L 69.589327 284.258625 
L 69.589327 278.923046 
L 70.892685 278.923046 
z
" style="fill:#ff7f0e;"/>
   </g>
   <g id="patch_70">
    <path clip-path="url(#p2a99bdf7a7)" d="M 72.196042 284.258625 
L 70.892685 284.258625 
L 70.892685 249.577362 
L 72.196042 249.577362 
z
" style="fill:#ff7f0e;"/>
   </g>
   <g id="patch_71">
    <path clip-path="url(#p2a99bdf7a7)" d="M 73.4994 284.258625 
L 72.196042 284.258625 
L 72.196042 254.468309 
L 73.4994 254.468309 
z
" style="fill:#ff7f0e;"/>
   </g>
   <g id="patch_72">
    <path clip-path="url(#p2a99bdf7a7)" d="M 74.802758 284.258625 
L 73.4994 284.258625 
L 73.4994 240.68473 
L 74.802758 240.68473 
z
" style="fill:#ff7f0e;"/>
   </g>
   <g id="patch_73">
    <path clip-path="url(#p2a99bdf7a7)" d="M 76.106115 284.258625 
L 74.802758 284.258625 
L 74.802758 243.35252 
L 76.106115 243.35252 
z
" style="fill:#ff7f0e;"/>
   </g>
   <g id="patch_74">
    <path clip-path="url(#p2a99bdf7a7)" d="M 77.409473 284.258625 
L 76.106115 284.258625 
L 76.106115 231.792099 
L 77.409473 231.792099 
z
" style="fill:#ff7f0e;"/>
   </g>
   <g id="patch_75">
    <path clip-path="url(#p2a99bdf7a7)" d="M 78.712831 284.258625 
L 77.409473 284.258625 
L 77.409473 221.565572 
L 78.712831 221.565572 
z
" style="fill:#ff7f0e;"/>
   </g>
   <g id="patch_76">
    <path clip-path="url(#p2a99bdf7a7)" d="M 80.016188 284.258625 
L 78.712831 284.258625 
L 78.712831 246.464941 
L 80.016188 246.464941 
z
" style="fill:#ff7f0e;"/>
   </g>
   <g id="patch_77">
    <path clip-path="url(#p2a99bdf7a7)" d="M 81.319546 284.258625 
L 80.016188 284.258625 
L 80.016188 245.575678 
L 81.319546 245.575678 
z
" style="fill:#ff7f0e;"/>
   </g>
   <g id="patch_78">
    <path clip-path="url(#p2a99bdf7a7)" d="M 82.622904 284.258625 
L 81.319546 284.258625 
L 81.319546 214.896099 
L 82.622904 214.896099 
z
" style="fill:#ff7f0e;"/>
   </g>
   <g id="patch_79">
    <path clip-path="url(#p2a99bdf7a7)" d="M 83.926261 284.258625 
L 82.622904 284.258625 
L 82.622904 202.891046 
L 83.926261 202.891046 
z
" style="fill:#ff7f0e;"/>
   </g>
   <g id="patch_80">
    <path clip-path="url(#p2a99bdf7a7)" d="M 85.229619 284.258625 
L 83.926261 284.258625 
L 83.926261 195.776941 
L 85.229619 195.776941 
z
" style="fill:#ff7f0e;"/>
   </g>
   <g id="patch_81">
    <path clip-path="url(#p2a99bdf7a7)" d="M 86.532977 284.258625 
L 85.229619 284.258625 
L 85.229619 196.221572 
L 86.532977 196.221572 
z
" style="fill:#ff7f0e;"/>
   </g>
   <g id="patch_82">
    <path clip-path="url(#p2a99bdf7a7)" d="M 87.836334 284.258625 
L 86.532977 284.258625 
L 86.532977 206.89273 
L 87.836334 206.89273 
z
" style="fill:#ff7f0e;"/>
   </g>
   <g id="patch_83">
    <path clip-path="url(#p2a99bdf7a7)" d="M 89.139692 284.258625 
L 87.836334 284.258625 
L 87.836334 239.795467 
L 89.139692 239.795467 
z
" style="fill:#ff7f0e;"/>
   </g>
   <g id="patch_84">
    <path clip-path="url(#p2a99bdf7a7)" d="M 90.44305 284.258625 
L 89.139692 284.258625 
L 89.139692 213.562204 
L 90.44305 213.562204 
z
" style="fill:#ff7f0e;"/>
   </g>
   <g id="patch_85">
    <path clip-path="url(#p2a99bdf7a7)" d="M 91.746407 284.258625 
L 90.44305 284.258625 
L 90.44305 227.790414 
L 91.746407 227.790414 
z
" style="fill:#ff7f0e;"/>
   </g>
   <g id="patch_86">
    <path clip-path="url(#p2a99bdf7a7)" d="M 93.049765 284.258625 
L 91.746407 284.258625 
L 91.746407 217.119257 
L 93.049765 217.119257 
z
" style="fill:#ff7f0e;"/>
   </g>
   <g id="patch_87">
    <path clip-path="url(#p2a99bdf7a7)" d="M 94.353123 284.258625 
L 93.049765 284.258625 
L 93.049765 192.66452 
L 94.353123 192.66452 
z
" style="fill:#ff7f0e;"/>
   </g>
   <g id="patch_88">
    <path clip-path="url(#p2a99bdf7a7)" d="M 95.65648 284.258625 
L 94.353123 284.258625 
L 94.353123 201.557151 
L 95.65648 201.557151 
z
" style="fill:#ff7f0e;"/>
   </g>
   <g id="patch_89">
    <path clip-path="url(#p2a99bdf7a7)" d="M 96.959838 284.258625 
L 95.65648 284.258625 
L 95.65648 235.793783 
L 96.959838 235.793783 
z
" style="fill:#ff7f0e;"/>
   </g>
   <g id="patch_90">
    <path clip-path="url(#p2a99bdf7a7)" d="M 98.263196 284.258625 
L 96.959838 284.258625 
L 96.959838 239.350836 
L 98.263196 239.350836 
z
" style="fill:#ff7f0e;"/>
   </g>
   <g id="patch_91">
    <path clip-path="url(#p2a99bdf7a7)" d="M 99.566553 284.258625 
L 98.263196 284.258625 
L 98.263196 229.568941 
L 99.566553 229.568941 
z
" style="fill:#ff7f0e;"/>
   </g>
   <g id="patch_92">
    <path clip-path="url(#p2a99bdf7a7)" d="M 100.869911 284.258625 
L 99.566553 284.258625 
L 99.566553 229.568941 
L 100.869911 229.568941 
z
" style="fill:#ff7f0e;"/>
   </g>
   <g id="patch_93">
    <path clip-path="url(#p2a99bdf7a7)" d="M 102.173269 284.258625 
L 100.869911 284.258625 
L 100.869911 224.677993 
L 102.173269 224.677993 
z
" style="fill:#ff7f0e;"/>
   </g>
   <g id="patch_94">
    <path clip-path="url(#p2a99bdf7a7)" d="M 103.476626 284.258625 
L 102.173269 284.258625 
L 102.173269 208.671257 
L 103.476626 208.671257 
z
" style="fill:#ff7f0e;"/>
   </g>
   <g id="patch_95">
    <path clip-path="url(#p2a99bdf7a7)" d="M 104.779984 284.258625 
L 103.476626 284.258625 
L 103.476626 231.347467 
L 104.779984 231.347467 
z
" style="fill:#ff7f0e;"/>
   </g>
   <g id="patch_96">
    <path clip-path="url(#p2a99bdf7a7)" d="M 106.083342 284.258625 
L 104.779984 284.258625 
L 104.779984 247.798836 
L 106.083342 247.798836 
z
" style="fill:#ff7f0e;"/>
   </g>
   <g id="patch_97">
    <path clip-path="url(#p2a99bdf7a7)" d="M 107.386699 284.258625 
L 106.083342 284.258625 
L 106.083342 266.02873 
L 107.386699 266.02873 
z
" style="fill:#ff7f0e;"/>
   </g>
   <g id="patch_98">
    <path clip-path="url(#p2a99bdf7a7)" d="M 108.690057 284.258625 
L 107.386699 284.258625 
L 107.386699 234.015257 
L 108.690057 234.015257 
z
" style="fill:#ff7f0e;"/>
   </g>
   <g id="patch_99">
    <path clip-path="url(#p2a99bdf7a7)" d="M 109.993415 284.258625 
L 108.690057 284.258625 
L 108.690057 263.360941 
L 109.993415 263.360941 
z
" style="fill:#ff7f0e;"/>
   </g>
   <g id="patch_100">
    <path clip-path="url(#p2a99bdf7a7)" d="M 111.296772 284.258625 
L 109.993415 284.258625 
L 109.993415 258.025362 
L 111.296772 258.025362 
z
" style="fill:#ff7f0e;"/>
   </g>
   <g id="patch_101">
    <path clip-path="url(#p2a99bdf7a7)" d="M 112.60013 284.258625 
L 111.296772 284.258625 
L 111.296772 210.894414 
L 112.60013 210.894414 
z
" style="fill:#ff7f0e;"/>
   </g>
   <g id="patch_102">
    <path clip-path="url(#p2a99bdf7a7)" d="M 113.903488 284.258625 
L 112.60013 284.258625 
L 112.60013 215.785362 
L 113.903488 215.785362 
z
" style="fill:#ff7f0e;"/>
   </g>
   <g id="patch_103">
    <path clip-path="url(#p2a99bdf7a7)" d="M 115.206845 284.258625 
L 113.903488 284.258625 
L 113.903488 242.907888 
L 115.206845 242.907888 
z
" style="fill:#ff7f0e;"/>
   </g>
   <g id="patch_104">
    <path clip-path="url(#p2a99bdf7a7)" d="M 116.510203 284.258625 
L 115.206845 284.258625 
L 115.206845 245.575678 
L 116.510203 245.575678 
z
" style="fill:#ff7f0e;"/>
   </g>
   <g id="patch_105">
    <path clip-path="url(#p2a99bdf7a7)" d="M 117.813561 284.258625 
L 116.510203 284.258625 
L 116.510203 258.914625 
L 117.813561 258.914625 
z
" style="fill:#ff7f0e;"/>
   </g>
   <g id="patch_106">
    <path clip-path="url(#p2a99bdf7a7)" d="M 119.116918 284.258625 
L 117.813561 284.258625 
L 117.813561 267.807257 
L 119.116918 267.807257 
z
" style="fill:#ff7f0e;"/>
   </g>
   <g id="patch_107">
    <path clip-path="url(#p2a99bdf7a7)" d="M 120.420276 284.258625 
L 119.116918 284.258625 
L 119.116918 274.032099 
L 120.420276 274.032099 
z
" style="fill:#ff7f0e;"/>
   </g>
   <g id="patch_108">
    <path clip-path="url(#p2a99bdf7a7)" d="M 121.723634 284.258625 
L 120.420276 284.258625 
L 120.420276 266.917993 
L 121.723634 266.917993 
z
" style="fill:#ff7f0e;"/>
   </g>
   <g id="patch_109">
    <path clip-path="url(#p2a99bdf7a7)" d="M 123.026991 284.258625 
L 121.723634 284.258625 
L 121.723634 268.251888 
L 123.026991 268.251888 
z
" style="fill:#ff7f0e;"/>
   </g>
   <g id="patch_110">
    <path clip-path="url(#p2a99bdf7a7)" d="M 124.330349 284.258625 
L 123.026991 284.258625 
L 123.026991 274.47673 
L 124.330349 274.47673 
z
" style="fill:#ff7f0e;"/>
   </g>
   <g id="patch_111">
    <path clip-path="url(#p2a99bdf7a7)" d="M 125.633707 284.258625 
L 124.330349 284.258625 
L 124.330349 277.589151 
L 125.633707 277.589151 
z
" style="fill:#ff7f0e;"/>
   </g>
   <g id="patch_112">
    <path clip-path="url(#p2a99bdf7a7)" d="M 126.937064 284.258625 
L 125.633707 284.258625 
L 125.633707 272.253572 
L 126.937064 272.253572 
z
" style="fill:#ff7f0e;"/>
   </g>
   <g id="patch_113">
    <path clip-path="url(#p2a99bdf7a7)" d="M 128.240422 284.258625 
L 126.937064 284.258625 
L 126.937064 279.812309 
L 128.240422 279.812309 
z
" style="fill:#ff7f0e;"/>
   </g>
   <g id="patch_114">
    <path clip-path="url(#p2a99bdf7a7)" d="M 129.54378 284.258625 
L 128.240422 284.258625 
L 128.240422 270.919678 
L 129.54378 270.919678 
z
" style="fill:#ff7f0e;"/>
   </g>
   <g id="patch_115">
    <path clip-path="url(#p2a99bdf7a7)" d="M 130.847137 284.258625 
L 129.54378 284.258625 
L 129.54378 280.256941 
L 130.847137 280.256941 
z
" style="fill:#ff7f0e;"/>
   </g>
   <g id="patch_116">
    <path clip-path="url(#p2a99bdf7a7)" d="M 132.150495 284.258625 
L 130.847137 284.258625 
L 130.847137 278.033783 
L 132.150495 278.033783 
z
" style="fill:#ff7f0e;"/>
   </g>
   <g id="patch_117">
    <path clip-path="url(#p2a99bdf7a7)" d="M 133.453853 284.258625 
L 132.150495 284.258625 
L 132.150495 282.035467 
L 133.453853 282.035467 
z
" style="fill:#ff7f0e;"/>
   </g>
   <g id="patch_118">
    <path clip-path="url(#p2a99bdf7a7)" d="M 134.75721 284.258625 
L 133.453853 284.258625 
L 133.453853 279.812309 
L 134.75721 279.812309 
z
" style="fill:#ff7f0e;"/>
   </g>
   <g id="patch_119">
    <path clip-path="url(#p2a99bdf7a7)" d="M 136.060568 284.258625 
L 134.75721 284.258625 
L 134.75721 282.035467 
L 136.060568 282.035467 
z
" style="fill:#ff7f0e;"/>
   </g>
   <g id="patch_120">
    <path clip-path="url(#p2a99bdf7a7)" d="M 137.363926 284.258625 
L 136.060568 284.258625 
L 136.060568 282.035467 
L 137.363926 282.035467 
z
" style="fill:#ff7f0e;"/>
   </g>
   <g id="patch_121">
    <path clip-path="url(#p2a99bdf7a7)" d="M 138.667283 284.258625 
L 137.363926 284.258625 
L 137.363926 279.367678 
L 138.667283 279.367678 
z
" style="fill:#ff7f0e;"/>
   </g>
   <g id="patch_122">
    <path clip-path="url(#p2a99bdf7a7)" d="M 139.970641 284.258625 
L 138.667283 284.258625 
L 138.667283 282.92473 
L 139.970641 282.92473 
z
" style="fill:#ff7f0e;"/>
   </g>
   <g id="patch_123">
    <path clip-path="url(#p2a99bdf7a7)" d="M 141.273999 284.258625 
L 139.970641 284.258625 
L 139.970641 283.369362 
L 141.273999 283.369362 
z
" style="fill:#ff7f0e;"/>
   </g>
   <g id="patch_124">
    <path clip-path="url(#p2a99bdf7a7)" d="M 142.577356 284.258625 
L 141.273999 284.258625 
L 141.273999 278.033783 
L 142.577356 278.033783 
z
" style="fill:#ff7f0e;"/>
   </g>
   <g id="patch_125">
    <path clip-path="url(#p2a99bdf7a7)" d="M 143.880714 284.258625 
L 142.577356 284.258625 
L 142.577356 280.701572 
L 143.880714 280.701572 
z
" style="fill:#ff7f0e;"/>
   </g>
   <g id="patch_126">
    <path clip-path="url(#p2a99bdf7a7)" d="M 145.184072 284.258625 
L 143.880714 284.258625 
L 143.880714 279.812309 
L 145.184072 279.812309 
z
" style="fill:#ff7f0e;"/>
   </g>
   <g id="patch_127">
    <path clip-path="url(#p2a99bdf7a7)" d="M 146.487429 284.258625 
L 145.184072 284.258625 
L 145.184072 279.367678 
L 146.487429 279.367678 
z
" style="fill:#ff7f0e;"/>
   </g>
   <g id="patch_128">
    <path clip-path="url(#p2a99bdf7a7)" d="M 147.790787 284.258625 
L 146.487429 284.258625 
L 146.487429 277.589151 
L 147.790787 277.589151 
z
" style="fill:#ff7f0e;"/>
   </g>
   <g id="patch_129">
    <path clip-path="url(#p2a99bdf7a7)" d="M 149.094145 284.258625 
L 147.790787 284.258625 
L 147.790787 274.921362 
L 149.094145 274.921362 
z
" style="fill:#ff7f0e;"/>
   </g>
   <g id="patch_130">
    <path clip-path="url(#p2a99bdf7a7)" d="M 150.397502 284.258625 
L 149.094145 284.258625 
L 149.094145 278.033783 
L 150.397502 278.033783 
z
" style="fill:#ff7f0e;"/>
   </g>
   <g id="patch_131">
    <path clip-path="url(#p2a99bdf7a7)" d="M 151.70086 284.258625 
L 150.397502 284.258625 
L 150.397502 282.035467 
L 151.70086 282.035467 
z
" style="fill:#ff7f0e;"/>
   </g>
   <g id="patch_132">
    <path clip-path="url(#p2a99bdf7a7)" d="M 153.004218 284.258625 
L 151.70086 284.258625 
L 151.70086 278.478414 
L 153.004218 278.478414 
z
" style="fill:#ff7f0e;"/>
   </g>
   <g id="patch_133">
    <path clip-path="url(#p2a99bdf7a7)" d="M 154.307575 284.258625 
L 153.004218 284.258625 
L 153.004218 269.141151 
L 154.307575 269.141151 
z
" style="fill:#ff7f0e;"/>
   </g>
   <g id="patch_134">
    <path clip-path="url(#p2a99bdf7a7)" d="M 155.610933 284.258625 
L 154.307575 284.258625 
L 154.307575 278.923046 
L 155.610933 278.923046 
z
" style="fill:#ff7f0e;"/>
   </g>
   <g id="patch_135">
    <path clip-path="url(#p2a99bdf7a7)" d="M 156.914291 284.258625 
L 155.610933 284.258625 
L 155.610933 271.808941 
L 156.914291 271.808941 
z
" style="fill:#ff7f0e;"/>
   </g>
   <g id="patch_136">
    <path clip-path="url(#p2a99bdf7a7)" d="M 158.217648 284.258625 
L 156.914291 284.258625 
L 156.914291 275.365993 
L 158.217648 275.365993 
z
" style="fill:#ff7f0e;"/>
   </g>
   <g id="patch_137">
    <path clip-path="url(#p2a99bdf7a7)" d="M 159.521006 284.258625 
L 158.217648 284.258625 
L 158.217648 272.698204 
L 159.521006 272.698204 
z
" style="fill:#ff7f0e;"/>
   </g>
   <g id="patch_138">
    <path clip-path="url(#p2a99bdf7a7)" d="M 160.824364 284.258625 
L 159.521006 284.258625 
L 159.521006 278.033783 
L 160.824364 278.033783 
z
" style="fill:#ff7f0e;"/>
   </g>
   <g id="patch_139">
    <path clip-path="url(#p2a99bdf7a7)" d="M 162.127721 284.258625 
L 160.824364 284.258625 
L 160.824364 278.478414 
L 162.127721 278.478414 
z
" style="fill:#ff7f0e;"/>
   </g>
   <g id="patch_140">
    <path clip-path="url(#p2a99bdf7a7)" d="M 163.431079 284.258625 
L 162.127721 284.258625 
L 162.127721 278.923046 
L 163.431079 278.923046 
z
" style="fill:#ff7f0e;"/>
   </g>
   <g id="patch_141">
    <path clip-path="url(#p2a99bdf7a7)" d="M 164.734437 284.258625 
L 163.431079 284.258625 
L 163.431079 276.255257 
L 164.734437 276.255257 
z
" style="fill:#ff7f0e;"/>
   </g>
   <g id="patch_142">
    <path clip-path="url(#p2a99bdf7a7)" d="M 166.037794 284.258625 
L 164.734437 284.258625 
L 164.734437 274.47673 
L 166.037794 274.47673 
z
" style="fill:#ff7f0e;"/>
   </g>
   <g id="patch_143">
    <path clip-path="url(#p2a99bdf7a7)" d="M 167.341152 284.258625 
L 166.037794 284.258625 
L 166.037794 273.142836 
L 167.341152 273.142836 
z
" style="fill:#ff7f0e;"/>
   </g>
   <g id="patch_144">
    <path clip-path="url(#p2a99bdf7a7)" d="M 168.64451 284.258625 
L 167.341152 284.258625 
L 167.341152 273.587467 
L 168.64451 273.587467 
z
" style="fill:#ff7f0e;"/>
   </g>
   <g id="patch_145">
    <path clip-path="url(#p2a99bdf7a7)" d="M 169.947867 284.258625 
L 168.64451 284.258625 
L 168.64451 263.360941 
L 169.947867 263.360941 
z
" style="fill:#ff7f0e;"/>
   </g>
   <g id="patch_146">
    <path clip-path="url(#p2a99bdf7a7)" d="M 171.251225 284.258625 
L 169.947867 284.258625 
L 169.947867 262.916309 
L 171.251225 262.916309 
z
" style="fill:#ff7f0e;"/>
   </g>
   <g id="patch_147">
    <path clip-path="url(#p2a99bdf7a7)" d="M 172.554583 284.258625 
L 171.251225 284.258625 
L 171.251225 272.253572 
L 172.554583 272.253572 
z
" style="fill:#ff7f0e;"/>
   </g>
   <g id="patch_148">
    <path clip-path="url(#p2a99bdf7a7)" d="M 173.85794 284.258625 
L 172.554583 284.258625 
L 172.554583 277.14452 
L 173.85794 277.14452 
z
" style="fill:#ff7f0e;"/>
   </g>
   <g id="patch_149">
    <path clip-path="url(#p2a99bdf7a7)" d="M 175.161298 284.258625 
L 173.85794 284.258625 
L 173.85794 266.02873 
L 175.161298 266.02873 
z
" style="fill:#ff7f0e;"/>
   </g>
   <g id="patch_150">
    <path clip-path="url(#p2a99bdf7a7)" d="M 176.464656 284.258625 
L 175.161298 284.258625 
L 175.161298 268.69652 
L 176.464656 268.69652 
z
" style="fill:#ff7f0e;"/>
   </g>
   <g id="patch_151">
    <path clip-path="url(#p2a99bdf7a7)" d="M 177.768013 284.258625 
L 176.464656 284.258625 
L 176.464656 266.917993 
L 177.768013 266.917993 
z
" style="fill:#ff7f0e;"/>
   </g>
   <g id="patch_152">
    <path clip-path="url(#p2a99bdf7a7)" d="M 179.071371 284.258625 
L 177.768013 284.258625 
L 177.768013 268.69652 
L 179.071371 268.69652 
z
" style="fill:#ff7f0e;"/>
   </g>
   <g id="patch_153">
    <path clip-path="url(#p2a99bdf7a7)" d="M 180.374729 284.258625 
L 179.071371 284.258625 
L 179.071371 271.364309 
L 180.374729 271.364309 
z
" style="fill:#ff7f0e;"/>
   </g>
   <g id="patch_154">
    <path clip-path="url(#p2a99bdf7a7)" d="M 181.678086 284.258625 
L 180.374729 284.258625 
L 180.374729 270.475046 
L 181.678086 270.475046 
z
" style="fill:#ff7f0e;"/>
   </g>
   <g id="patch_155">
    <path clip-path="url(#p2a99bdf7a7)" d="M 182.981444 284.258625 
L 181.678086 284.258625 
L 181.678086 259.803888 
L 182.981444 259.803888 
z
" style="fill:#ff7f0e;"/>
   </g>
   <g id="patch_156">
    <path clip-path="url(#p2a99bdf7a7)" d="M 184.284802 284.258625 
L 182.981444 284.258625 
L 182.981444 262.916309 
L 184.284802 262.916309 
z
" style="fill:#ff7f0e;"/>
   </g>
   <g id="patch_157">
    <path clip-path="url(#p2a99bdf7a7)" d="M 185.588159 284.258625 
L 184.284802 284.258625 
L 184.284802 260.24852 
L 185.588159 260.24852 
z
" style="fill:#ff7f0e;"/>
   </g>
   <g id="patch_158">
    <path clip-path="url(#p2a99bdf7a7)" d="M 186.891517 284.258625 
L 185.588159 284.258625 
L 185.588159 258.914625 
L 186.891517 258.914625 
z
" style="fill:#ff7f0e;"/>
   </g>
   <g id="patch_159">
    <path clip-path="url(#p2a99bdf7a7)" d="M 188.194875 284.258625 
L 186.891517 284.258625 
L 186.891517 257.58073 
L 188.194875 257.58073 
z
" style="fill:#ff7f0e;"/>
   </g>
   <g id="patch_160">
    <path clip-path="url(#p2a99bdf7a7)" d="M 189.498232 284.258625 
L 188.194875 284.258625 
L 188.194875 258.469993 
L 189.498232 258.469993 
z
" style="fill:#ff7f0e;"/>
   </g>
   <g id="patch_161">
    <path clip-path="url(#p2a99bdf7a7)" d="M 190.80159 284.258625 
L 189.498232 284.258625 
L 189.498232 260.24852 
L 190.80159 260.24852 
z
" style="fill:#ff7f0e;"/>
   </g>
   <g id="patch_162">
    <path clip-path="url(#p2a99bdf7a7)" d="M 192.104948 284.258625 
L 190.80159 284.258625 
L 190.80159 254.468309 
L 192.104948 254.468309 
z
" style="fill:#ff7f0e;"/>
   </g>
   <g id="patch_163">
    <path clip-path="url(#p2a99bdf7a7)" d="M 193.408305 284.258625 
L 192.104948 284.258625 
L 192.104948 236.683046 
L 193.408305 236.683046 
z
" style="fill:#ff7f0e;"/>
   </g>
   <g id="patch_164">
    <path clip-path="url(#p2a99bdf7a7)" d="M 194.711663 284.258625 
L 193.408305 284.258625 
L 193.408305 229.124309 
L 194.711663 229.124309 
z
" style="fill:#ff7f0e;"/>
   </g>
   <g id="patch_165">
    <path clip-path="url(#p2a99bdf7a7)" d="M 196.015021 284.258625 
L 194.711663 284.258625 
L 194.711663 226.011888 
L 196.015021 226.011888 
z
" style="fill:#ff7f0e;"/>
   </g>
   <g id="patch_166">
    <path clip-path="url(#p2a99bdf7a7)" d="M 197.318378 284.258625 
L 196.015021 284.258625 
L 196.015021 234.90452 
L 197.318378 234.90452 
z
" style="fill:#ff7f0e;"/>
   </g>
   <g id="patch_167">
    <path clip-path="url(#p2a99bdf7a7)" d="M 198.621736 284.258625 
L 197.318378 284.258625 
L 197.318378 238.906204 
L 198.621736 238.906204 
z
" style="fill:#ff7f0e;"/>
   </g>
   <g id="patch_168">
    <path clip-path="url(#p2a99bdf7a7)" d="M 199.925094 284.258625 
L 198.621736 284.258625 
L 198.621736 237.127678 
L 199.925094 237.127678 
z
" style="fill:#ff7f0e;"/>
   </g>
   <g id="patch_169">
    <path clip-path="url(#p2a99bdf7a7)" d="M 201.228451 284.258625 
L 199.925094 284.258625 
L 199.925094 250.911257 
L 201.228451 250.911257 
z
" style="fill:#ff7f0e;"/>
   </g>
   <g id="patch_170">
    <path clip-path="url(#p2a99bdf7a7)" d="M 202.531809 284.258625 
L 201.228451 284.258625 
L 201.228451 184.661151 
L 202.531809 184.661151 
z
" style="fill:#ff7f0e;"/>
   </g>
   <g id="patch_171">
    <path clip-path="url(#p2a99bdf7a7)" d="M 203.835167 284.258625 
L 202.531809 284.258625 
L 202.531809 176.213151 
L 203.835167 176.213151 
z
" style="fill:#ff7f0e;"/>
   </g>
   <g id="patch_172">
    <path clip-path="url(#p2a99bdf7a7)" d="M 205.138524 284.258625 
L 203.835167 284.258625 
L 203.835167 192.66452 
L 205.138524 192.66452 
z
" style="fill:#ff7f0e;"/>
   </g>
   <g id="patch_173">
    <path clip-path="url(#p2a99bdf7a7)" d="M 206.441882 284.258625 
L 205.138524 284.258625 
L 205.138524 192.66452 
L 206.441882 192.66452 
z
" style="fill:#ff7f0e;"/>
   </g>
   <g id="patch_174">
    <path clip-path="url(#p2a99bdf7a7)" d="M 207.74524 284.258625 
L 206.441882 284.258625 
L 206.441882 231.347467 
L 207.74524 231.347467 
z
" style="fill:#ff7f0e;"/>
   </g>
   <g id="patch_175">
    <path clip-path="url(#p2a99bdf7a7)" d="M 209.048597 284.258625 
L 207.74524 284.258625 
L 207.74524 220.676309 
L 209.048597 220.676309 
z
" style="fill:#ff7f0e;"/>
   </g>
   <g id="patch_176">
    <path clip-path="url(#p2a99bdf7a7)" d="M 210.351955 284.258625 
L 209.048597 284.258625 
L 209.048597 210.894414 
L 210.351955 210.894414 
z
" style="fill:#ff7f0e;"/>
   </g>
   <g id="patch_177">
    <path clip-path="url(#p2a99bdf7a7)" d="M 211.655313 284.258625 
L 210.351955 284.258625 
L 210.351955 157.093993 
L 211.655313 157.093993 
z
" style="fill:#ff7f0e;"/>
   </g>
   <g id="patch_178">
    <path clip-path="url(#p2a99bdf7a7)" d="M 212.95867 284.258625 
L 211.655312 284.258625 
L 211.655312 153.981572 
L 212.95867 153.981572 
z
" style="fill:#ff7f0e;"/>
   </g>
   <g id="patch_179">
    <path clip-path="url(#p2a99bdf7a7)" d="M 214.262028 284.258625 
L 212.95867 284.258625 
L 212.95867 155.315467 
L 214.262028 155.315467 
z
" style="fill:#ff7f0e;"/>
   </g>
   <g id="patch_180">
    <path clip-path="url(#p2a99bdf7a7)" d="M 215.565385 284.258625 
L 214.262028 284.258625 
L 214.262028 200.667888 
L 215.565385 200.667888 
z
" style="fill:#ff7f0e;"/>
   </g>
   <g id="patch_181">
    <path clip-path="url(#p2a99bdf7a7)" d="M 216.868743 284.258625 
L 215.565385 284.258625 
L 215.565385 209.56052 
L 216.868743 209.56052 
z
" style="fill:#ff7f0e;"/>
   </g>
   <g id="patch_182">
    <path clip-path="url(#p2a99bdf7a7)" d="M 218.172101 284.258625 
L 216.868743 284.258625 
L 216.868743 178.880941 
L 218.172101 178.880941 
z
" style="fill:#ff7f0e;"/>
   </g>
   <g id="patch_183">
    <path clip-path="url(#p2a99bdf7a7)" d="M 219.475458 284.258625 
L 218.172101 284.258625 
L 218.172101 178.436309 
L 219.475458 178.436309 
z
" style="fill:#ff7f0e;"/>
   </g>
   <g id="patch_184">
    <path clip-path="url(#p2a99bdf7a7)" d="M 220.778816 284.258625 
L 219.475458 284.258625 
L 219.475458 121.523467 
L 220.778816 121.523467 
z
" style="fill:#ff7f0e;"/>
   </g>
   <g id="patch_185">
    <path clip-path="url(#p2a99bdf7a7)" d="M 222.082174 284.258625 
L 220.778816 284.258625 
L 220.778816 168.654414 
L 222.082174 168.654414 
z
" style="fill:#ff7f0e;"/>
   </g>
   <g id="patch_186">
    <path clip-path="url(#p2a99bdf7a7)" d="M 223.385531 284.258625 
L 222.082174 284.258625 
L 222.082174 153.092309 
L 223.385531 153.092309 
z
" style="fill:#ff7f0e;"/>
   </g>
   <g id="patch_187">
    <path clip-path="url(#p2a99bdf7a7)" d="M 224.688889 284.258625 
L 223.385531 284.258625 
L 223.385531 177.991678 
L 224.688889 177.991678 
z
" style="fill:#ff7f0e;"/>
   </g>
   <g id="patch_188">
    <path clip-path="url(#p2a99bdf7a7)" d="M 225.992247 284.258625 
L 224.688889 284.258625 
L 224.688889 226.011888 
L 225.992247 226.011888 
z
" style="fill:#ff7f0e;"/>
   </g>
   <g id="patch_189">
    <path clip-path="url(#p2a99bdf7a7)" d="M 227.295604 284.258625 
L 225.992247 284.258625 
L 225.992247 165.986625 
L 227.295604 165.986625 
z
" style="fill:#ff7f0e;"/>
   </g>
   <g id="patch_190">
    <path clip-path="url(#p2a99bdf7a7)" d="M 228.598962 284.258625 
L 227.295604 284.258625 
L 227.295604 173.10073 
L 228.598962 173.10073 
z
" style="fill:#ff7f0e;"/>
   </g>
   <g id="patch_191">
    <path clip-path="url(#p2a99bdf7a7)" d="M 229.90232 284.258625 
L 228.598962 284.258625 
L 228.598962 121.078836 
L 229.90232 121.078836 
z
" style="fill:#ff7f0e;"/>
   </g>
   <g id="patch_192">
    <path clip-path="url(#p2a99bdf7a7)" d="M 231.205677 284.258625 
L 229.90232 284.258625 
L 229.90232 78.394204 
L 231.205677 78.394204 
z
" style="fill:#ff7f0e;"/>
   </g>
   <g id="patch_193">
    <path clip-path="url(#p2a99bdf7a7)" d="M 232.509035 284.258625 
L 231.205677 284.258625 
L 231.205677 74.39252 
L 232.509035 74.39252 
z
" style="fill:#ff7f0e;"/>
   </g>
   <g id="patch_194">
    <path clip-path="url(#p2a99bdf7a7)" d="M 233.812393 284.258625 
L 232.509035 284.258625 
L 232.509035 154.426204 
L 233.812393 154.426204 
z
" style="fill:#ff7f0e;"/>
   </g>
   <g id="patch_195">
    <path clip-path="url(#p2a99bdf7a7)" d="M 235.11575 284.258625 
L 233.812393 284.258625 
L 233.812393 169.543678 
L 235.11575 169.543678 
z
" style="fill:#ff7f0e;"/>
   </g>
   <g id="patch_196">
    <path clip-path="url(#p2a99bdf7a7)" d="M 236.419108 284.258625 
L 235.11575 284.258625 
L 235.11575 146.867467 
L 236.419108 146.867467 
z
" style="fill:#ff7f0e;"/>
   </g>
   <g id="patch_197">
    <path clip-path="url(#p2a99bdf7a7)" d="M 237.722466 284.258625 
L 236.419108 284.258625 
L 236.419108 167.32052 
L 237.722466 167.32052 
z
" style="fill:#ff7f0e;"/>
   </g>
   <g id="patch_198">
    <path clip-path="url(#p2a99bdf7a7)" d="M 239.025823 284.258625 
L 237.722466 284.258625 
L 237.722466 124.191257 
L 239.025823 124.191257 
z
" style="fill:#ff7f0e;"/>
   </g>
   <g id="patch_199">
    <path clip-path="url(#p2a99bdf7a7)" d="M 240.329181 284.258625 
L 239.025823 284.258625 
L 239.025823 78.838836 
L 240.329181 78.838836 
z
" style="fill:#ff7f0e;"/>
   </g>
   <g id="patch_200">
    <path clip-path="url(#p2a99bdf7a7)" d="M 241.632539 284.258625 
L 240.329181 284.258625 
L 240.329181 93.511678 
L 241.632539 93.511678 
z
" style="fill:#ff7f0e;"/>
   </g>
   <g id="patch_201">
    <path clip-path="url(#p2a99bdf7a7)" d="M 242.935896 284.258625 
L 241.632539 284.258625 
L 241.632539 137.085572 
L 242.935896 137.085572 
z
" style="fill:#ff7f0e;"/>
   </g>
   <g id="patch_202">
    <path clip-path="url(#p2a99bdf7a7)" d="M 244.239254 284.258625 
L 242.935896 284.258625 
L 242.935896 196.666204 
L 244.239254 196.666204 
z
" style="fill:#ff7f0e;"/>
   </g>
   <g id="patch_203">
    <path clip-path="url(#p2a99bdf7a7)" d="M 245.542612 284.258625 
L 244.239254 284.258625 
L 244.239254 200.667888 
L 245.542612 200.667888 
z
" style="fill:#ff7f0e;"/>
   </g>
   <g id="patch_204">
    <path clip-path="url(#p2a99bdf7a7)" d="M 246.845969 284.258625 
L 245.542612 284.258625 
L 245.542612 185.550414 
L 246.845969 185.550414 
z
" style="fill:#ff7f0e;"/>
   </g>
   <g id="patch_205">
    <path clip-path="url(#p2a99bdf7a7)" d="M 248.149327 284.258625 
L 246.845969 284.258625 
L 246.845969 192.66452 
L 248.149327 192.66452 
z
" style="fill:#ff7f0e;"/>
   </g>
   <g id="patch_206">
    <path clip-path="url(#p2a99bdf7a7)" d="M 249.452685 284.258625 
L 248.149327 284.258625 
L 248.149327 111.296941 
L 249.452685 111.296941 
z
" style="fill:#ff7f0e;"/>
   </g>
   <g id="patch_207">
    <path clip-path="url(#p2a99bdf7a7)" d="M 250.756042 284.258625 
L 249.452685 284.258625 
L 249.452685 113.075467 
L 250.756042 113.075467 
z
" style="fill:#ff7f0e;"/>
   </g>
   <g id="patch_208">
    <path clip-path="url(#p2a99bdf7a7)" d="M 252.0594 284.258625 
L 250.756042 284.258625 
L 250.756042 168.654414 
L 252.0594 168.654414 
z
" style="fill:#ff7f0e;"/>
   </g>
   <g id="patch_209">
    <path clip-path="url(#p2a99bdf7a7)" d="M 253.362758 284.258625 
L 252.0594 284.258625 
L 252.0594 212.672941 
L 253.362758 212.672941 
z
" style="fill:#ff7f0e;"/>
   </g>
   <g id="patch_210">
    <path clip-path="url(#p2a99bdf7a7)" d="M 254.666115 284.258625 
L 253.362758 284.258625 
L 253.362758 192.219888 
L 254.666115 192.219888 
z
" style="fill:#ff7f0e;"/>
   </g>
   <g id="patch_211">
    <path clip-path="url(#p2a99bdf7a7)" d="M 255.969473 284.258625 
L 254.666115 284.258625 
L 254.666115 201.557151 
L 255.969473 201.557151 
z
" style="fill:#ff7f0e;"/>
   </g>
   <g id="patch_212">
    <path clip-path="url(#p2a99bdf7a7)" d="M 257.272831 284.258625 
L 255.969473 284.258625 
L 255.969473 133.52852 
L 257.272831 133.52852 
z
" style="fill:#ff7f0e;"/>
   </g>
   <g id="patch_213">
    <path clip-path="url(#p2a99bdf7a7)" d="M 258.576188 284.258625 
L 257.272831 284.258625 
L 257.272831 169.543678 
L 258.576188 169.543678 
z
" style="fill:#ff7f0e;"/>
   </g>
   <g id="patch_214">
    <path clip-path="url(#p2a99bdf7a7)" d="M 259.879546 284.258625 
L 258.576188 284.258625 
L 258.576188 170.432941 
L 259.879546 170.432941 
z
" style="fill:#ff7f0e;"/>
   </g>
   <g id="patch_215">
    <path clip-path="url(#p2a99bdf7a7)" d="M 261.182904 284.258625 
L 259.879546 284.258625 
L 259.879546 189.99673 
L 261.182904 189.99673 
z
" style="fill:#ff7f0e;"/>
   </g>
   <g id="patch_216">
    <path clip-path="url(#p2a99bdf7a7)" d="M 262.486261 284.258625 
L 261.182904 284.258625 
L 261.182904 242.018625 
L 262.486261 242.018625 
z
" style="fill:#ff7f0e;"/>
   </g>
   <g id="patch_217">
    <path clip-path="url(#p2a99bdf7a7)" d="M 263.789619 284.258625 
L 262.486261 284.258625 
L 262.486261 203.335678 
L 263.789619 203.335678 
z
" style="fill:#ff7f0e;"/>
   </g>
   <g id="patch_218">
    <path clip-path="url(#p2a99bdf7a7)" d="M 265.092977 284.258625 
L 263.789619 284.258625 
L 263.789619 179.325572 
L 265.092977 179.325572 
z
" style="fill:#ff7f0e;"/>
   </g>
   <g id="patch_219">
    <path clip-path="url(#p2a99bdf7a7)" d="M 266.396334 284.258625 
L 265.092977 284.258625 
L 265.092977 173.10073 
L 266.396334 173.10073 
z
" style="fill:#ff7f0e;"/>
   </g>
   <g id="patch_220">
    <path clip-path="url(#p2a99bdf7a7)" d="M 267.699692 284.258625 
L 266.396334 284.258625 
L 266.396334 183.771888 
L 267.699692 183.771888 
z
" style="fill:#ff7f0e;"/>
   </g>
   <g id="patch_221">
    <path clip-path="url(#p2a99bdf7a7)" d="M 269.00305 284.258625 
L 267.699692 284.258625 
L 267.699692 174.434625 
L 269.00305 174.434625 
z
" style="fill:#ff7f0e;"/>
   </g>
   <g id="patch_222">
    <path clip-path="url(#p2a99bdf7a7)" d="M 270.306407 284.258625 
L 269.00305 284.258625 
L 269.00305 218.453151 
L 270.306407 218.453151 
z
" style="fill:#ff7f0e;"/>
   </g>
   <g id="patch_223">
    <path clip-path="url(#p2a99bdf7a7)" d="M 271.609765 284.258625 
L 270.306407 284.258625 
L 270.306407 239.795467 
L 271.609765 239.795467 
z
" style="fill:#ff7f0e;"/>
   </g>
   <g id="patch_224">
    <path clip-path="url(#p2a99bdf7a7)" d="M 272.913123 284.258625 
L 271.609765 284.258625 
L 271.609765 208.671257 
L 272.913123 208.671257 
z
" style="fill:#ff7f0e;"/>
   </g>
   <g id="patch_225">
    <path clip-path="url(#p2a99bdf7a7)" d="M 274.21648 284.258625 
L 272.913123 284.258625 
L 272.913123 221.565572 
L 274.21648 221.565572 
z
" style="fill:#ff7f0e;"/>
   </g>
   <g id="patch_226">
    <path clip-path="url(#p2a99bdf7a7)" d="M 275.519838 284.258625 
L 274.21648 284.258625 
L 274.21648 190.441362 
L 275.519838 190.441362 
z
" style="fill:#ff7f0e;"/>
   </g>
   <g id="patch_227">
    <path clip-path="url(#p2a99bdf7a7)" d="M 276.823196 284.258625 
L 275.519838 284.258625 
L 275.519838 223.78873 
L 276.823196 223.78873 
z
" style="fill:#ff7f0e;"/>
   </g>
   <g id="patch_228">
    <path clip-path="url(#p2a99bdf7a7)" d="M 278.126553 284.258625 
L 276.823196 284.258625 
L 276.823196 203.780309 
L 278.126553 203.780309 
z
" style="fill:#ff7f0e;"/>
   </g>
   <g id="patch_229">
    <path clip-path="url(#p2a99bdf7a7)" d="M 279.429911 284.258625 
L 278.126553 284.258625 
L 278.126553 232.681362 
L 279.429911 232.681362 
z
" style="fill:#ff7f0e;"/>
   </g>
   <g id="patch_230">
    <path clip-path="url(#p2a99bdf7a7)" d="M 280.733269 284.258625 
L 279.429911 284.258625 
L 279.429911 250.021993 
L 280.733269 250.021993 
z
" style="fill:#ff7f0e;"/>
   </g>
   <g id="patch_231">
    <path clip-path="url(#p2a99bdf7a7)" d="M 282.036626 284.258625 
L 280.733269 284.258625 
L 280.733269 208.671257 
L 282.036626 208.671257 
z
" style="fill:#ff7f0e;"/>
   </g>
   <g id="patch_232">
    <path clip-path="url(#p2a99bdf7a7)" d="M 283.339984 284.258625 
L 282.036626 284.258625 
L 282.036626 218.00852 
L 283.339984 218.00852 
z
" style="fill:#ff7f0e;"/>
   </g>
   <g id="patch_233">
    <path clip-path="url(#p2a99bdf7a7)" d="M 284.643342 284.258625 
L 283.339984 284.258625 
L 283.339984 161.540309 
L 284.643342 161.540309 
z
" style="fill:#ff7f0e;"/>
   </g>
   <g id="patch_234">
    <path clip-path="url(#p2a99bdf7a7)" d="M 285.946699 284.258625 
L 284.643342 284.258625 
L 284.643342 201.11252 
L 285.946699 201.11252 
z
" style="fill:#ff7f0e;"/>
   </g>
   <g id="patch_235">
    <path clip-path="url(#p2a99bdf7a7)" d="M 287.250057 284.258625 
L 285.946699 284.258625 
L 285.946699 183.771888 
L 287.250057 183.771888 
z
" style="fill:#ff7f0e;"/>
   </g>
   <g id="patch_236">
    <path clip-path="url(#p2a99bdf7a7)" d="M 288.553415 284.258625 
L 287.250057 284.258625 
L 287.250057 219.342414 
L 288.553415 219.342414 
z
" style="fill:#ff7f0e;"/>
   </g>
   <g id="patch_237">
    <path clip-path="url(#p2a99bdf7a7)" d="M 289.856772 284.258625 
L 288.553415 284.258625 
L 288.553415 248.688099 
L 289.856772 248.688099 
z
" style="fill:#ff7f0e;"/>
   </g>
   <g id="patch_238">
    <path clip-path="url(#p2a99bdf7a7)" d="M 291.16013 284.258625 
L 289.856772 284.258625 
L 289.856772 199.333993 
L 291.16013 199.333993 
z
" style="fill:#ff7f0e;"/>
   </g>
   <g id="patch_239">
    <path clip-path="url(#p2a99bdf7a7)" d="M 292.463488 284.258625 
L 291.16013 284.258625 
L 291.16013 211.783678 
L 292.463488 211.783678 
z
" style="fill:#ff7f0e;"/>
   </g>
   <g id="patch_240">
    <path clip-path="url(#p2a99bdf7a7)" d="M 293.766845 284.258625 
L 292.463488 284.258625 
L 292.463488 208.226625 
L 293.766845 208.226625 
z
" style="fill:#ff7f0e;"/>
   </g>
   <g id="patch_241">
    <path clip-path="url(#p2a99bdf7a7)" d="M 295.070203 284.258625 
L 293.766845 284.258625 
L 293.766845 186.439678 
L 295.070203 186.439678 
z
" style="fill:#ff7f0e;"/>
   </g>
   <g id="patch_242">
    <path clip-path="url(#p2a99bdf7a7)" d="M 296.373561 284.258625 
L 295.070203 284.258625 
L 295.070203 187.328941 
L 296.373561 187.328941 
z
" style="fill:#ff7f0e;"/>
   </g>
   <g id="patch_243">
    <path clip-path="url(#p2a99bdf7a7)" d="M 297.676918 284.258625 
L 296.373561 284.258625 
L 296.373561 212.228309 
L 297.676918 212.228309 
z
" style="fill:#ff7f0e;"/>
   </g>
   <g id="patch_244">
    <path clip-path="url(#p2a99bdf7a7)" d="M 298.980276 284.258625 
L 297.676918 284.258625 
L 297.676918 240.68473 
L 298.980276 240.68473 
z
" style="fill:#ff7f0e;"/>
   </g>
   <g id="patch_245">
    <path clip-path="url(#p2a99bdf7a7)" d="M 300.283634 284.258625 
L 298.980276 284.258625 
L 298.980276 245.131046 
L 300.283634 245.131046 
z
" style="fill:#ff7f0e;"/>
   </g>
   <g id="patch_246">
    <path clip-path="url(#p2a99bdf7a7)" d="M 301.586991 284.258625 
L 300.283634 284.258625 
L 300.283634 258.025362 
L 301.586991 258.025362 
z
" style="fill:#ff7f0e;"/>
   </g>
   <g id="patch_247">
    <path clip-path="url(#p2a99bdf7a7)" d="M 302.890349 284.258625 
L 301.586991 284.258625 
L 301.586991 197.555467 
L 302.890349 197.555467 
z
" style="fill:#ff7f0e;"/>
   </g>
   <g id="patch_248">
    <path clip-path="url(#p2a99bdf7a7)" d="M 304.193707 284.258625 
L 302.890349 284.258625 
L 302.890349 197.555467 
L 304.193707 197.555467 
z
" style="fill:#ff7f0e;"/>
   </g>
   <g id="patch_249">
    <path clip-path="url(#p2a99bdf7a7)" d="M 305.497064 284.258625 
L 304.193707 284.258625 
L 304.193707 164.208099 
L 305.497064 164.208099 
z
" style="fill:#ff7f0e;"/>
   </g>
   <g id="patch_250">
    <path clip-path="url(#p2a99bdf7a7)" d="M 306.800422 284.258625 
L 305.497064 284.258625 
L 305.497064 220.231678 
L 306.800422 220.231678 
z
" style="fill:#ff7f0e;"/>
   </g>
   <g id="patch_251">
    <path clip-path="url(#p2a99bdf7a7)" d="M 308.10378 284.258625 
L 306.800422 284.258625 
L 306.800422 249.577362 
L 308.10378 249.577362 
z
" style="fill:#ff7f0e;"/>
   </g>
   <g id="patch_252">
    <path clip-path="url(#p2a99bdf7a7)" d="M 309.407137 284.258625 
L 308.10378 284.258625 
L 308.10378 189.99673 
L 309.407137 189.99673 
z
" style="fill:#ff7f0e;"/>
   </g>
   <g id="patch_253">
    <path clip-path="url(#p2a99bdf7a7)" d="M 310.710495 284.258625 
L 309.407137 284.258625 
L 309.407137 198.000099 
L 310.710495 198.000099 
z
" style="fill:#ff7f0e;"/>
   </g>
   <g id="patch_254">
    <path clip-path="url(#p2a99bdf7a7)" d="M 312.013853 284.258625 
L 310.710495 284.258625 
L 310.710495 179.770204 
L 312.013853 179.770204 
z
" style="fill:#ff7f0e;"/>
   </g>
   <g id="patch_255">
    <path clip-path="url(#p2a99bdf7a7)" d="M 313.31721 284.258625 
L 312.013853 284.258625 
L 312.013853 197.110836 
L 313.31721 197.110836 
z
" style="fill:#ff7f0e;"/>
   </g>
   <g id="patch_256">
    <path clip-path="url(#p2a99bdf7a7)" d="M 314.620568 284.258625 
L 313.31721 284.258625 
L 313.31721 191.775257 
L 314.620568 191.775257 
z
" style="fill:#ff7f0e;"/>
   </g>
   <g id="patch_257">
    <path clip-path="url(#p2a99bdf7a7)" d="M 315.923926 284.258625 
L 314.620568 284.258625 
L 314.620568 236.238414 
L 315.923926 236.238414 
z
" style="fill:#ff7f0e;"/>
   </g>
   <g id="patch_258">
    <path clip-path="url(#p2a99bdf7a7)" d="M 317.227283 284.258625 
L 315.923926 284.258625 
L 315.923926 254.912941 
L 317.227283 254.912941 
z
" style="fill:#ff7f0e;"/>
   </g>
   <g id="patch_259">
    <path clip-path="url(#p2a99bdf7a7)" d="M 318.530641 284.258625 
L 317.227283 284.258625 
L 317.227283 205.558836 
L 318.530641 205.558836 
z
" style="fill:#ff7f0e;"/>
   </g>
   <g id="patch_260">
    <path clip-path="url(#p2a99bdf7a7)" d="M 319.833999 284.258625 
L 318.530641 284.258625 
L 318.530641 221.120941 
L 319.833999 221.120941 
z
" style="fill:#ff7f0e;"/>
   </g>
   <g id="patch_261">
    <path clip-path="url(#p2a99bdf7a7)" d="M 321.137356 284.258625 
L 319.833999 284.258625 
L 319.833999 173.989993 
L 321.137356 173.989993 
z
" style="fill:#ff7f0e;"/>
   </g>
   <g id="patch_262">
    <path clip-path="url(#p2a99bdf7a7)" d="M 322.440714 284.258625 
L 321.137356 284.258625 
L 321.137356 193.998414 
L 322.440714 193.998414 
z
" style="fill:#ff7f0e;"/>
   </g>
   <g id="patch_263">
    <path clip-path="url(#p2a99bdf7a7)" d="M 323.744072 284.258625 
L 322.440714 284.258625 
L 322.440714 173.545362 
L 323.744072 173.545362 
z
" style="fill:#ff7f0e;"/>
   </g>
   <g id="patch_264">
    <path clip-path="url(#p2a99bdf7a7)" d="M 325.047429 284.258625 
L 323.744072 284.258625 
L 323.744072 219.342414 
L 325.047429 219.342414 
z
" style="fill:#ff7f0e;"/>
   </g>
   <g id="patch_265">
    <path clip-path="url(#p2a99bdf7a7)" d="M 326.350787 284.258625 
L 325.047429 284.258625 
L 325.047429 249.577362 
L 326.350787 249.577362 
z
" style="fill:#ff7f0e;"/>
   </g>
   <g id="patch_266">
    <path clip-path="url(#p2a99bdf7a7)" d="M 327.654145 284.258625 
L 326.350787 284.258625 
L 326.350787 210.449783 
L 327.654145 210.449783 
z
" style="fill:#ff7f0e;"/>
   </g>
   <g id="patch_267">
    <path clip-path="url(#p2a99bdf7a7)" d="M 328.957502 284.258625 
L 327.654145 284.258625 
L 327.654145 205.558836 
L 328.957502 205.558836 
z
" style="fill:#ff7f0e;"/>
   </g>
   <g id="patch_268">
    <path clip-path="url(#p2a99bdf7a7)" d="M 330.26086 284.258625 
L 328.957502 284.258625 
L 328.957502 157.983257 
L 330.26086 157.983257 
z
" style="fill:#ff7f0e;"/>
   </g>
   <g id="patch_269">
    <path clip-path="url(#p2a99bdf7a7)" d="M 331.564218 284.258625 
L 330.26086 284.258625 
L 330.26086 202.446414 
L 331.564218 202.446414 
z
" style="fill:#ff7f0e;"/>
   </g>
   <g id="patch_270">
    <path clip-path="url(#p2a99bdf7a7)" d="M 332.867575 284.258625 
L 331.564218 284.258625 
L 331.564218 179.770204 
L 332.867575 179.770204 
z
" style="fill:#ff7f0e;"/>
   </g>
   <g id="patch_271">
    <path clip-path="url(#p2a99bdf7a7)" d="M 334.170933 284.258625 
L 332.867575 284.258625 
L 332.867575 225.567257 
L 334.170933 225.567257 
z
" style="fill:#ff7f0e;"/>
   </g>
   <g id="patch_272">
    <path clip-path="url(#p2a99bdf7a7)" d="M 335.474291 284.258625 
L 334.170933 284.258625 
L 334.170933 249.577362 
L 335.474291 249.577362 
z
" style="fill:#ff7f0e;"/>
   </g>
   <g id="patch_273">
    <path clip-path="url(#p2a99bdf7a7)" d="M 336.777648 284.258625 
L 335.474291 284.258625 
L 335.474291 222.454836 
L 336.777648 222.454836 
z
" style="fill:#ff7f0e;"/>
   </g>
   <g id="patch_274">
    <path clip-path="url(#p2a99bdf7a7)" d="M 338.081006 284.258625 
L 336.777648 284.258625 
L 336.777648 217.563888 
L 338.081006 217.563888 
z
" style="fill:#ff7f0e;"/>
   </g>
   <g id="patch_275">
    <path clip-path="url(#p2a99bdf7a7)" d="M 339.384364 284.258625 
L 338.081006 284.258625 
L 338.081006 202.001783 
L 339.384364 202.001783 
z
" style="fill:#ff7f0e;"/>
   </g>
   <g id="patch_276">
    <path clip-path="url(#p2a99bdf7a7)" d="M 340.687721 284.258625 
L 339.384364 284.258625 
L 339.384364 201.557151 
L 340.687721 201.557151 
z
" style="fill:#ff7f0e;"/>
   </g>
   <g id="patch_277">
    <path clip-path="url(#p2a99bdf7a7)" d="M 341.991079 284.258625 
L 340.687721 284.258625 
L 340.687721 193.998414 
L 341.991079 193.998414 
z
" style="fill:#ff7f0e;"/>
   </g>
   <g id="patch_278">
    <path clip-path="url(#p2a99bdf7a7)" d="M 343.294437 284.258625 
L 341.991079 284.258625 
L 341.991079 229.124309 
L 343.294437 229.124309 
z
" style="fill:#ff7f0e;"/>
   </g>
   <g id="patch_279">
    <path clip-path="url(#p2a99bdf7a7)" d="M 344.597794 284.258625 
L 343.294437 284.258625 
L 343.294437 238.906204 
L 344.597794 238.906204 
z
" style="fill:#ff7f0e;"/>
   </g>
   <g id="patch_280">
    <path clip-path="url(#p2a99bdf7a7)" d="M 345.901152 284.258625 
L 344.597794 284.258625 
L 344.597794 214.006836 
L 345.901152 214.006836 
z
" style="fill:#ff7f0e;"/>
   </g>
   <g id="patch_281">
    <path clip-path="url(#p2a99bdf7a7)" d="M 347.20451 284.258625 
L 345.901152 284.258625 
L 345.901152 208.226625 
L 347.20451 208.226625 
z
" style="fill:#ff7f0e;"/>
   </g>
   <g id="patch_282">
    <path clip-path="url(#p2a99bdf7a7)" d="M 348.507867 284.258625 
L 347.20451 284.258625 
L 347.20451 185.995046 
L 348.507867 185.995046 
z
" style="fill:#ff7f0e;"/>
   </g>
   <g id="patch_283">
    <path clip-path="url(#p2a99bdf7a7)" d="M 349.811225 284.258625 
L 348.507867 284.258625 
L 348.507867 193.553783 
L 349.811225 193.553783 
z
" style="fill:#ff7f0e;"/>
   </g>
   <g id="patch_284">
    <path clip-path="url(#p2a99bdf7a7)" d="M 351.114583 284.258625 
L 349.811225 284.258625 
L 349.811225 188.662836 
L 351.114583 188.662836 
z
" style="fill:#ff7f0e;"/>
   </g>
   <g id="patch_285">
    <path clip-path="url(#p2a99bdf7a7)" d="M 352.41794 284.258625 
L 351.114583 284.258625 
L 351.114583 232.681362 
L 352.41794 232.681362 
z
" style="fill:#ff7f0e;"/>
   </g>
   <g id="patch_286">
    <path clip-path="url(#p2a99bdf7a7)" d="M 353.721298 284.258625 
L 352.41794 284.258625 
L 352.41794 245.575678 
L 353.721298 245.575678 
z
" style="fill:#ff7f0e;"/>
   </g>
   <g id="patch_287">
    <path clip-path="url(#p2a99bdf7a7)" d="M 355.024656 284.258625 
L 353.721298 284.258625 
L 353.721298 191.330625 
L 355.024656 191.330625 
z
" style="fill:#ff7f0e;"/>
   </g>
   <g id="patch_288">
    <path clip-path="url(#p2a99bdf7a7)" d="M 356.328013 284.258625 
L 355.024656 284.258625 
L 355.024656 230.013572 
L 356.328013 230.013572 
z
" style="fill:#ff7f0e;"/>
   </g>
   <g id="patch_289">
    <path clip-path="url(#p2a99bdf7a7)" d="M 357.631371 284.258625 
L 356.328013 284.258625 
L 356.328013 164.65273 
L 357.631371 164.65273 
z
" style="fill:#ff7f0e;"/>
   </g>
   <g id="patch_290">
    <path clip-path="url(#p2a99bdf7a7)" d="M 358.934729 284.258625 
L 357.631371 284.258625 
L 357.631371 176.657783 
L 358.934729 176.657783 
z
" style="fill:#ff7f0e;"/>
   </g>
   <g id="patch_291">
    <path clip-path="url(#p2a99bdf7a7)" d="M 360.238086 284.258625 
L 358.934729 284.258625 
L 358.934729 153.536941 
L 360.238086 153.536941 
z
" style="fill:#ff7f0e;"/>
   </g>
   <g id="patch_292">
    <path clip-path="url(#p2a99bdf7a7)" d="M 361.541444 284.258625 
L 360.238086 284.258625 
L 360.238086 200.223257 
L 361.541444 200.223257 
z
" style="fill:#ff7f0e;"/>
   </g>
   <g id="patch_293">
    <path clip-path="url(#p2a99bdf7a7)" d="M 362.844802 284.258625 
L 361.541444 284.258625 
L 361.541444 214.451467 
L 362.844802 214.451467 
z
" style="fill:#ff7f0e;"/>
   </g>
   <g id="patch_294">
    <path clip-path="url(#p2a99bdf7a7)" d="M 364.148159 284.258625 
L 362.844802 284.258625 
L 362.844802 153.981572 
L 364.148159 153.981572 
z
" style="fill:#ff7f0e;"/>
   </g>
   <g id="patch_295">
    <path clip-path="url(#p2a99bdf7a7)" d="M 365.451517 284.258625 
L 364.148159 284.258625 
L 364.148159 143.310414 
L 365.451517 143.310414 
z
" style="fill:#ff7f0e;"/>
   </g>
   <g id="patch_296">
    <path clip-path="url(#p2a99bdf7a7)" d="M 366.754875 284.258625 
L 365.451517 284.258625 
L 365.451517 109.518414 
L 366.754875 109.518414 
z
" style="fill:#ff7f0e;"/>
   </g>
   <g id="patch_297">
    <path clip-path="url(#p2a99bdf7a7)" d="M 368.058232 284.258625 
L 366.754875 284.258625 
L 366.754875 117.966414 
L 368.058232 117.966414 
z
" style="fill:#ff7f0e;"/>
   </g>
   <g id="patch_298">
    <path clip-path="url(#p2a99bdf7a7)" d="M 369.36159 284.258625 
L 368.058232 284.258625 
L 368.058232 127.748309 
L 369.36159 127.748309 
z
" style="fill:#ff7f0e;"/>
   </g>
   <g id="patch_299">
    <path clip-path="url(#p2a99bdf7a7)" d="M 370.664948 284.258625 
L 369.36159 284.258625 
L 369.36159 170.877572 
L 370.664948 170.877572 
z
" style="fill:#ff7f0e;"/>
   </g>
   <g id="patch_300">
    <path clip-path="url(#p2a99bdf7a7)" d="M 371.968305 284.258625 
L 370.664948 284.258625 
L 370.664948 204.224941 
L 371.968305 204.224941 
z
" style="fill:#ff7f0e;"/>
   </g>
   <g id="patch_301">
    <path clip-path="url(#p2a99bdf7a7)" d="M 373.271663 284.258625 
L 371.968305 284.258625 
L 371.968305 151.758414 
L 373.271663 151.758414 
z
" style="fill:#ff7f0e;"/>
   </g>
   <g id="patch_302">
    <path clip-path="url(#p2a99bdf7a7)" d="M 374.575021 284.258625 
L 373.271663 284.258625 
L 373.271663 65.055257 
L 374.575021 65.055257 
z
" style="fill:#ff7f0e;"/>
   </g>
   <g id="patch_303">
    <path clip-path="url(#p2a99bdf7a7)" d="M 375.878378 284.258625 
L 374.575021 284.258625 
L 374.575021 46.825362 
L 375.878378 46.825362 
z
" style="fill:#ff7f0e;"/>
   </g>
   <g id="patch_304">
    <path clip-path="url(#p2a99bdf7a7)" d="M 377.181736 284.258625 
L 375.878378 284.258625 
L 375.878378 52.160941 
L 377.181736 52.160941 
z
" style="fill:#ff7f0e;"/>
   </g>
   <g id="patch_305">
    <path clip-path="url(#p2a99bdf7a7)" d="M 378.485094 284.258625 
L 377.181736 284.258625 
L 377.181736 44.602204 
L 378.485094 44.602204 
z
" style="fill:#ff7f0e;"/>
   </g>
   <g id="patch_306">
    <path clip-path="url(#p2a99bdf7a7)" d="M 379.788451 284.258625 
L 378.485094 284.258625 
L 378.485094 110.407678 
L 379.788451 110.407678 
z
" style="fill:#ff7f0e;"/>
   </g>
   <g id="patch_307">
    <path clip-path="url(#p2a99bdf7a7)" d="M 381.091809 284.258625 
L 379.788451 284.258625 
L 379.788451 144.644309 
L 381.091809 144.644309 
z
" style="fill:#ff7f0e;"/>
   </g>
   <g id="patch_308">
    <path clip-path="url(#p2a99bdf7a7)" d="M 382.395167 284.258625 
L 381.091809 284.258625 
L 381.091809 201.557151 
L 382.395167 201.557151 
z
" style="fill:#ff7f0e;"/>
   </g>
   <g id="patch_309">
    <path clip-path="url(#p2a99bdf7a7)" d="M 383.698524 284.258625 
L 382.395167 284.258625 
L 382.395167 105.961362 
L 383.698524 105.961362 
z
" style="fill:#ff7f0e;"/>
   </g>
   <g id="patch_310">
    <path clip-path="url(#p2a99bdf7a7)" d="M 385.001882 284.258625 
L 383.698524 284.258625 
L 383.698524 70.390836 
L 385.001882 70.390836 
z
" style="fill:#ff7f0e;"/>
   </g>
   <g id="patch_311">
    <path clip-path="url(#p2a99bdf7a7)" d="M 386.30524 284.258625 
L 385.001882 284.258625 
L 385.001882 30.818625 
L 386.30524 30.818625 
z
" style="fill:#ff7f0e;"/>
   </g>
   <g id="patch_312">
    <path clip-path="url(#p2a99bdf7a7)" d="M 387.608597 284.258625 
L 386.30524 284.258625 
L 386.30524 34.820309 
L 387.608597 34.820309 
z
" style="fill:#ff7f0e;"/>
   </g>
   <g id="patch_313">
    <path clip-path="url(#p2a99bdf7a7)" d="M 388.911955 284.258625 
L 387.608597 284.258625 
L 387.608597 98.402625 
L 388.911955 98.402625 
z
" style="fill:#ff7f0e;"/>
   </g>
   <g id="patch_314">
    <path clip-path="url(#p2a99bdf7a7)" d="M 390.215313 284.258625 
L 388.911955 284.258625 
L 388.911955 145.978204 
L 390.215313 145.978204 
z
" style="fill:#ff7f0e;"/>
   </g>
   <g id="matplotlib.axis_1">
    <g id="xtick_1">
     <g id="line2d_1">
      <defs>
       <path d="M 0 0 
L 0 3.5 
" id="m4d0990c2e1" style="stroke:#000000;stroke-width:0.8;"/>
      </defs>
      <g>
       <use style="stroke:#000000;stroke-width:0.8;" x="33.095313" xlink:href="#m4d0990c2e1" y="284.258625"/>
      </g>
     </g>
     <g id="text_1">
      <!-- Mar -->
      <g transform="translate(23.985938 298.74925)scale(0.1 -0.1)">
       <defs>
        <path d="M 80.421875 0.984375 
L 71.828125 0.984375 
L 71.828125 39.59375 
Q 71.828125 51.265625 72.40625 64.59375 
L 72.015625 64.59375 
Q 68.0625 53.265625 63.53125 41.796875 
L 47.90625 3.265625 
L 41.40625 3.265625 
L 25.640625 42.578125 
Q 20.75 54.78125 17.625 64.703125 
L 17.234375 64.703125 
Q 17.828125 48.921875 17.828125 39.890625 
L 17.828125 0.984375 
L 9.515625 0.984375 
L 9.515625 72.40625 
L 22.125 72.40625 
L 39.109375 30.375 
Q 42.140625 23 44.828125 14.15625 
L 45.125 14.15625 
Q 47.3125 22.125 50.53125 30.171875 
L 67.4375 72.40625 
L 80.421875 72.40625 
z
" id="IPAexGothic-77"/>
        <path d="M 49.3125 0.984375 
L 41.75 0.984375 
Q 39.984375 4.734375 39.546875 8.6875 
L 39.203125 8.6875 
Q 33.546875 -0.390625 22.3125 -0.390625 
Q 14.59375 -0.390625 9.71875 4.5 
Q 5.421875 8.796875 5.421875 14.984375 
Q 5.421875 30.421875 32.03125 31.203125 
L 38.71875 31.390625 
L 38.71875 33.984375 
Q 38.71875 39.203125 35.75 42.1875 
Q 32.625 45.3125 27.734375 45.3125 
Q 19.34375 45.3125 15.140625 37.15625 
L 7.71875 40.578125 
Q 14.65625 52 27.9375 52 
Q 37.109375 52 42.046875 46.875 
Q 46.625 42.28125 46.625 33.890625 
L 46.625 15.578125 
Q 46.625 6.25 49.3125 0.984375 
z
M 38.921875 25.390625 
L 33.453125 25.296875 
Q 14.109375 24.859375 14.109375 14.890625 
Q 14.109375 11.375 16.40625 9.078125 
Q 19.234375 6.296875 23.828125 6.296875 
Q 30.21875 6.296875 34.90625 10.984375 
Q 38.921875 15.140625 38.921875 21 
z
" id="IPAexGothic-97"/>
        <path d="M 36.078125 51.8125 
L 34.578125 43.265625 
Q 32.90625 43.609375 31.59375 43.609375 
Q 25.828125 43.609375 22.078125 38.1875 
Q 17.390625 31.34375 17.390625 26.171875 
L 17.390625 0.984375 
L 8.796875 0.984375 
L 8.796875 50.78125 
L 16.890625 50.78125 
L 16.5 35.984375 
L 16.703125 35.984375 
Q 22.21875 52.203125 32.765625 52.203125 
Q 34.46875 52.203125 36.078125 51.8125 
z
" id="IPAexGothic-114"/>
       </defs>
       <use xlink:href="#IPAexGothic-77"/>
       <use x="90.185547" xlink:href="#IPAexGothic-97"/>
       <use x="145.166016" xlink:href="#IPAexGothic-114"/>
      </g>
     </g>
    </g>
    <g id="xtick_2">
     <g id="line2d_2">
      <g>
       <use style="stroke:#000000;stroke-width:0.8;" x="73.4994" xlink:href="#m4d0990c2e1" y="284.258625"/>
      </g>
     </g>
     <g id="text_2">
      <!-- Apr -->
      <g transform="translate(65.357213 298.74925)scale(0.1 -0.1)">
       <defs>
        <path d="M 63.375 0.984375 
L 53.8125 0.984375 
L 45.90625 22.015625 
L 17.1875 22.015625 
L 9.421875 0.984375 
L -0.09375 0.984375 
L 28.21875 72.90625 
L 35.296875 72.90625 
z
M 43.40625 29.109375 
L 36.1875 48.09375 
Q 33.203125 56.0625 31.6875 62.5 
L 31.390625 62.5 
Q 29.640625 55.671875 26.8125 48.09375 
L 19.734375 29.109375 
z
" id="IPAexGothic-65"/>
        <path d="M 16.796875 42 
Q 23.828125 52.203125 34.46875 52.203125 
Q 43.265625 52.203125 49.5625 45.90625 
Q 56.890625 38.578125 56.890625 25.6875 
Q 56.890625 13.140625 49.65625 5.8125 
Q 43.359375 -0.484375 34.375 -0.484375 
Q 24.515625 -0.484375 17.28125 7.765625 
L 17.28125 -19 
L 8.796875 -19 
L 8.796875 50.78125 
L 16.796875 50.78125 
z
M 17.28125 30.46875 
L 17.28125 20.171875 
Q 17.28125 14.015625 23.6875 9.375 
Q 27.984375 6.296875 32.90625 6.296875 
Q 38.578125 6.296875 42.578125 10.296875 
Q 47.90625 15.578125 47.90625 25.484375 
Q 47.90625 34.375 43.5 39.984375 
Q 39.109375 45.3125 32.8125 45.3125 
Q 25.875 45.3125 20.90625 38.8125 
Q 17.28125 34.125 17.28125 30.46875 
z
" id="IPAexGothic-112"/>
       </defs>
       <use xlink:href="#IPAexGothic-65"/>
       <use x="63.720703" xlink:href="#IPAexGothic-112"/>
       <use x="125.830078" xlink:href="#IPAexGothic-114"/>
      </g>
     </g>
    </g>
    <g id="xtick_3">
     <g id="line2d_3">
      <g>
       <use style="stroke:#000000;stroke-width:0.8;" x="112.60013" xlink:href="#m4d0990c2e1" y="284.258625"/>
      </g>
     </g>
     <g id="text_3">
      <!-- May -->
      <g transform="translate(102.880599 298.74925)scale(0.1 -0.1)">
       <defs>
        <path d="M 48.78125 50.78125 
L 24.609375 -7.625 
Q 19.96875 -18.796875 8.59375 -18.796875 
L 7.46875 -18.796875 
L 5.375 -10.984375 
L 6.984375 -10.984375 
Q 15.140625 -10.984375 17.96875 -3.71875 
L 21.1875 4.296875 
L 0.59375 50.78125 
L 10.296875 50.78125 
L 21.296875 22.796875 
Q 23.875 16.015625 25.09375 12.203125 
L 25.390625 12.203125 
Q 27.34375 18.265625 29.109375 22.796875 
L 39.5 50.78125 
z
" id="IPAexGothic-121"/>
       </defs>
       <use xlink:href="#IPAexGothic-77"/>
       <use x="90.185547" xlink:href="#IPAexGothic-97"/>
       <use x="145.166016" xlink:href="#IPAexGothic-121"/>
      </g>
     </g>
    </g>
    <g id="xtick_4">
     <g id="line2d_4">
      <g>
       <use style="stroke:#000000;stroke-width:0.8;" x="153.004218" xlink:href="#m4d0990c2e1" y="284.258625"/>
      </g>
     </g>
     <g id="text_4">
      <!-- Jun -->
      <g transform="translate(145.064374 298.74925)scale(0.1 -0.1)">
       <defs>
        <path d="M 28.421875 72.40625 
L 28.421875 19.28125 
Q 28.421875 -0.484375 11.921875 -0.484375 
Q 4.734375 -0.484375 -1.953125 3.265625 
L 1.3125 10.0625 
Q 5.90625 6.984375 10.84375 6.984375 
Q 19.53125 6.984375 19.53125 18.796875 
L 19.53125 72.40625 
z
" id="IPAexGothic-74"/>
        <path d="M 51.3125 0.984375 
L 43.3125 0.984375 
L 43.3125 10.0625 
Q 35.9375 0 25.390625 0 
Q 16.75 0 11.921875 5.859375 
Q 8.109375 10.59375 8.109375 19.390625 
L 8.109375 50.78125 
L 16.703125 50.78125 
L 16.703125 19.671875 
Q 16.703125 7.28125 27.09375 7.28125 
Q 37.59375 7.28125 42.71875 20.171875 
L 42.71875 50.78125 
L 51.3125 50.78125 
z
" id="IPAexGothic-117"/>
        <path d="M 52 0.984375 
L 43.40625 0.984375 
L 43.40625 31.890625 
Q 43.40625 44.578125 32.90625 44.578125 
Q 22.3125 44.578125 17.390625 31.890625 
L 17.390625 0.984375 
L 8.796875 0.984375 
L 8.796875 50.78125 
L 16.796875 50.78125 
L 16.796875 41.796875 
Q 23.828125 51.8125 34.71875 51.8125 
Q 52 51.8125 52 32.375 
z
" id="IPAexGothic-110"/>
       </defs>
       <use xlink:href="#IPAexGothic-74"/>
       <use x="37.988281" xlink:href="#IPAexGothic-117"/>
       <use x="98.388672" xlink:href="#IPAexGothic-110"/>
      </g>
     </g>
    </g>
    <g id="xtick_5">
     <g id="line2d_5">
      <g>
       <use style="stroke:#000000;stroke-width:0.8;" x="192.104948" xlink:href="#m4d0990c2e1" y="284.258625"/>
      </g>
     </g>
     <g id="text_5">
      <!-- Jul -->
      <g transform="translate(185.835416 298.74925)scale(0.1 -0.1)">
       <defs>
        <path d="M 17.671875 0.984375 
L 9.078125 0.984375 
L 9.078125 74.90625 
L 17.671875 74.90625 
z
" id="IPAexGothic-108"/>
       </defs>
       <use xlink:href="#IPAexGothic-74"/>
       <use x="37.988281" xlink:href="#IPAexGothic-117"/>
       <use x="98.388672" xlink:href="#IPAexGothic-108"/>
      </g>
     </g>
    </g>
    <g id="xtick_6">
     <g id="line2d_6">
      <g>
       <use style="stroke:#000000;stroke-width:0.8;" x="232.509035" xlink:href="#m4d0990c2e1" y="284.258625"/>
      </g>
     </g>
     <g id="text_6">
      <!-- Aug -->
      <g transform="translate(223.527004 298.691437)scale(0.1 -0.1)">
       <defs>
        <path d="M 20.796875 17.96875 
Q 15.71875 17.53125 15.71875 14.0625 
Q 15.71875 9.578125 27.546875 8.984375 
L 33.296875 8.6875 
Q 51.609375 7.765625 51.609375 -4.59375 
Q 51.609375 -10.9375 45.703125 -14.984375 
Q 39.359375 -19.578125 28.03125 -19.578125 
Q 17.78125 -19.578125 11.53125 -16.0625 
Q 5.515625 -12.640625 5.515625 -6.6875 
Q 5.515625 1.3125 16.796875 3.859375 
L 16.796875 4.203125 
Q 7.90625 6.453125 7.90625 12.15625 
Q 7.90625 17.4375 15.53125 20.265625 
Q 7.125 24.609375 7.125 34.078125 
Q 7.125 41.40625 12.015625 46.296875 
Q 17.625 51.90625 27.15625 51.90625 
Q 33.203125 51.90625 37.84375 49.265625 
Q 41.40625 53.953125 50.921875 54.109375 
L 50.921875 47.078125 
Q 44.34375 46.921875 42.234375 45.90625 
Q 47.40625 40.828125 47.40625 33.890625 
Q 47.40625 27 42.71875 22.265625 
Q 37.5 17.09375 28.328125 17.09375 
Q 24.421875 17.09375 20.796875 17.96875 
z
M 27.09375 45.609375 
Q 22.015625 45.609375 18.703125 42.28125 
Q 15.4375 39.015625 15.4375 34.078125 
Q 15.4375 29.25 18.5 26.3125 
Q 21.828125 23 27.4375 23 
Q 32.71875 23 35.890625 26.21875 
Q 39.109375 29.390625 39.109375 34.421875 
Q 39.109375 39.015625 35.890625 42.1875 
Q 32.515625 45.609375 27.09375 45.609375 
z
M 27.390625 2.484375 
Q 14.109375 2.484375 14.109375 -5.71875 
Q 14.109375 -13.671875 28.125 -13.671875 
Q 37.15625 -13.671875 41.21875 -9.46875 
Q 43.3125 -7.515625 43.3125 -4.890625 
Q 43.3125 2.484375 27.390625 2.484375 
z
" id="IPAexGothic-103"/>
       </defs>
       <use xlink:href="#IPAexGothic-65"/>
       <use x="63.720703" xlink:href="#IPAexGothic-117"/>
       <use x="124.121094" xlink:href="#IPAexGothic-103"/>
      </g>
     </g>
    </g>
    <g id="xtick_7">
     <g id="line2d_7">
      <g>
       <use style="stroke:#000000;stroke-width:0.8;" x="272.913123" xlink:href="#m4d0990c2e1" y="284.258625"/>
      </g>
     </g>
     <g id="text_7">
      <!-- Sep -->
      <g transform="translate(264.038123 298.74925)scale(0.1 -0.1)">
       <defs>
        <path d="M 45.609375 56.890625 
Q 40.046875 66.546875 28.953125 66.546875 
Q 22.703125 66.546875 18.953125 62.640625 
Q 16.0625 59.421875 16.0625 55.21875 
Q 16.0625 50.59375 19.78125 47.609375 
Q 22.5625 45.515625 31 42 
L 34.375 40.578125 
Q 45.703125 36.03125 49.859375 30.515625 
Q 53.46875 25.6875 53.46875 19.671875 
Q 53.46875 10.0625 46.390625 4.5 
Q 39.984375 -0.484375 30.171875 -0.484375 
Q 13.765625 -0.484375 4.890625 11.96875 
L 11.765625 17.1875 
Q 18.796875 7.171875 30.28125 7.171875 
Q 35.75 7.171875 39.59375 9.765625 
Q 44.390625 13.234375 44.390625 19 
Q 44.390625 23.484375 40.875 27 
Q 37.109375 30.609375 27 34.46875 
L 24.078125 35.59375 
Q 7.078125 42.09375 7.078125 54.390625 
Q 7.078125 62.59375 12.59375 67.921875 
Q 18.796875 73.828125 29.109375 73.828125 
Q 44.390625 73.828125 52.484375 61.8125 
z
" id="IPAexGothic-83"/>
        <path d="M 13.484375 24.90625 
Q 13.921875 16.265625 18.890625 11.28125 
Q 23.96875 6.203125 31.203125 6.203125 
Q 40.71875 6.203125 46.296875 15.09375 
L 51.90625 11.375 
Q 44.828125 -0.484375 30.171875 -0.484375 
Q 19.09375 -0.484375 11.96875 6.59375 
Q 4.78125 13.8125 4.78125 25.640625 
Q 4.78125 38.1875 12.3125 45.703125 
Q 19 52.390625 29 52.390625 
Q 38.421875 52.390625 44.78125 46.1875 
Q 51.90625 38.96875 51.90625 26.90625 
L 51.90625 24.90625 
z
M 43.0625 31.203125 
Q 42.328125 37.984375 38.28125 41.890625 
Q 34.28125 45.90625 28.8125 45.90625 
Q 22.46875 45.90625 17.96875 40.484375 
Q 14.890625 36.8125 13.96875 31.203125 
z
" id="IPAexGothic-101"/>
       </defs>
       <use xlink:href="#IPAexGothic-83"/>
       <use x="58.496094" xlink:href="#IPAexGothic-101"/>
       <use x="115.380859" xlink:href="#IPAexGothic-112"/>
      </g>
     </g>
    </g>
    <g id="xtick_8">
     <g id="line2d_8">
      <g>
       <use style="stroke:#000000;stroke-width:0.8;" x="312.013853" xlink:href="#m4d0990c2e1" y="284.258625"/>
      </g>
     </g>
     <g id="text_8">
      <!-- Oct -->
      <g transform="translate(303.578696 298.74925)scale(0.1 -0.1)">
       <defs>
        <path d="M 39.703125 73.828125 
Q 54 73.828125 63.1875 64.65625 
Q 73.578125 54.25 73.578125 36.421875 
Q 73.578125 19.046875 62.984375 8.59375 
Q 53.90625 -0.484375 39.703125 -0.484375 
Q 25.59375 -0.484375 16.5 8.59375 
Q 5.90625 19.046875 5.90625 36.8125 
Q 5.90625 54.203125 16.3125 64.65625 
Q 25.484375 73.828125 39.703125 73.828125 
z
M 39.703125 66.65625 
Q 30.515625 66.65625 23.921875 60.0625 
Q 15.53125 51.609375 15.53125 36.71875 
Q 15.53125 21.734375 23.921875 13.484375 
Q 30.421875 6.984375 39.703125 6.984375 
Q 48.921875 6.984375 55.5625 13.484375 
Q 63.96875 21.875 63.96875 37.109375 
Q 63.96875 51.515625 55.46875 60.0625 
Q 49.03125 66.65625 39.703125 66.65625 
z
" id="IPAexGothic-79"/>
        <path d="M 51.078125 12.25 
Q 44.28125 -0.484375 29.6875 -0.484375 
Q 19.1875 -0.484375 12.3125 6.390625 
Q 4.890625 13.921875 4.890625 25.984375 
Q 4.890625 37.9375 12.3125 45.515625 
Q 19.09375 52.296875 29.390625 52.296875 
Q 43.953125 52.296875 50.09375 39.703125 
L 43.171875 36.078125 
Q 38.8125 45.3125 29.6875 45.3125 
Q 23.6875 45.3125 19.28125 40.921875 
Q 13.765625 35.40625 13.765625 25.78125 
Q 13.765625 16.703125 19.09375 11.375 
Q 23.78125 6.6875 30.5625 6.6875 
Q 39.796875 6.6875 44.484375 15.875 
z
" id="IPAexGothic-99"/>
        <path d="M 33.203125 3.765625 
Q 27.640625 -0.09375 21.828125 -0.09375 
Q 10.203125 -0.09375 10.203125 12.984375 
L 10.203125 44.671875 
L 3.421875 44.671875 
L 3.421875 50.78125 
L 10.203125 50.78125 
L 10.203125 61.96875 
L 18.40625 66.0625 
L 18.40625 50.78125 
L 32.234375 50.78125 
L 32.234375 44.671875 
L 18.40625 44.671875 
L 18.40625 14.15625 
Q 18.40625 6.5 23.640625 6.5 
Q 27.15625 6.5 30.328125 9.1875 
z
" id="IPAexGothic-116"/>
       </defs>
       <use xlink:href="#IPAexGothic-79"/>
       <use x="79.6875" xlink:href="#IPAexGothic-99"/>
       <use x="134.082031" xlink:href="#IPAexGothic-116"/>
      </g>
     </g>
    </g>
    <g id="xtick_9">
     <g id="line2d_9">
      <g>
       <use style="stroke:#000000;stroke-width:0.8;" x="352.41794" xlink:href="#m4d0990c2e1" y="284.258625"/>
      </g>
     </g>
     <g id="text_9">
      <!-- Nov -->
      <g transform="translate(343.169503 298.74925)scale(0.1 -0.1)">
       <defs>
        <path d="M 66.3125 0.984375 
L 58.296875 0.984375 
L 26.515625 49.21875 
Q 22.90625 54.6875 17.828125 64.015625 
L 17.4375 64.015625 
L 17.625 59.328125 
Q 18.109375 43.796875 18.109375 38.578125 
L 18.109375 0.984375 
L 9.515625 0.984375 
L 9.515625 72.40625 
L 21.34375 72.40625 
L 48.640625 30.90625 
Q 53.953125 22.609375 58.015625 15.09375 
L 58.40625 15.09375 
Q 57.71875 29.640625 57.71875 38.578125 
L 57.71875 72.40625 
L 66.3125 72.40625 
z
" id="IPAexGothic-78"/>
        <path d="M 29.984375 52.203125 
Q 40.53125 52.203125 47.75 45.125 
Q 55.171875 37.703125 55.171875 25.59375 
Q 55.171875 13.875 47.90625 6.59375 
Q 40.765625 -0.484375 29.984375 -0.484375 
Q 19.1875 -0.484375 12.203125 6.5 
Q 4.890625 13.765625 4.890625 25.875 
Q 4.890625 37.703125 12.3125 45.125 
Q 19.390625 52.203125 29.984375 52.203125 
z
M 29.984375 45.609375 
Q 23.734375 45.609375 19.390625 41.109375 
Q 13.875 35.59375 13.875 25.78125 
Q 13.875 16.109375 19.28125 10.6875 
Q 23.6875 6.296875 29.984375 6.296875 
Q 36.421875 6.296875 40.765625 10.796875 
Q 46.1875 16.21875 46.1875 26.125 
Q 46.1875 35.453125 40.671875 41.109375 
Q 36.1875 45.609375 29.984375 45.609375 
z
" id="IPAexGothic-111"/>
        <path d="M 48.484375 50.78125 
L 27.296875 0.09375 
L 21.484375 0.09375 
L 0.390625 50.78125 
L 9.8125 50.78125 
L 20.90625 21.6875 
L 23.78125 13.1875 
L 24.515625 10.984375 
L 24.8125 10.984375 
Q 25.640625 13.8125 28.46875 21.6875 
L 39.3125 50.78125 
z
" id="IPAexGothic-118"/>
       </defs>
       <use xlink:href="#IPAexGothic-78"/>
       <use x="75.976562" xlink:href="#IPAexGothic-111"/>
       <use x="136.376953" xlink:href="#IPAexGothic-118"/>
      </g>
     </g>
    </g>
    <g id="text_10">
     <!-- 2020 -->
     <g transform="translate(365.021562 311.139875)scale(0.1 -0.1)">
      <defs>
       <path d="M 57.171875 0.984375 
L 6.984375 0.984375 
L 6.984375 9.28125 
Q 12.890625 23.046875 29.59375 34.421875 
L 32.375 36.28125 
Q 40.921875 42.140625 43.609375 45.40625 
Q 46.6875 49.265625 46.6875 53.8125 
Q 46.6875 58.9375 43.0625 62.546875 
Q 39.0625 66.546875 32.5625 66.546875 
Q 19.53125 66.546875 15.484375 52 
L 7.765625 54.78125 
Q 13.328125 73.828125 33.0625 73.828125 
Q 43.84375 73.828125 50.25 67.4375 
Q 55.859375 61.671875 55.859375 53.515625 
Q 55.859375 47.46875 52.25 42.53125 
Q 48.921875 37.75 36.96875 30.28125 
L 34.859375 29 
Q 19.625 19.578125 15.28125 8.890625 
L 57.171875 8.890625 
z
" id="IPAexGothic-50"/>
       <path d="M 31.84375 73.828125 
Q 45.015625 73.828125 52.09375 61.625 
Q 57.71875 51.953125 57.71875 36.625 
Q 57.71875 21.4375 52.09375 11.578125 
Q 45.125 -0.484375 31.5 -0.484375 
Q 17.921875 -0.484375 10.9375 11.578125 
Q 5.328125 21.4375 5.328125 36.71875 
Q 5.328125 58.015625 15.625 67.71875 
Q 22.171875 73.828125 31.84375 73.828125 
z
M 31.5 66.65625 
Q 23.6875 66.65625 19.1875 58.734375 
Q 14.59375 50.734375 14.59375 36.625 
Q 14.59375 22.75 19.09375 14.796875 
Q 23.640625 6.984375 31.5 6.984375 
Q 40.921875 6.984375 45.453125 18.015625 
Q 48.4375 25.34375 48.4375 37.109375 
Q 48.4375 50.875 43.84375 58.734375 
Q 39.203125 66.65625 31.5 66.65625 
z
" id="IPAexGothic-48"/>
      </defs>
      <use xlink:href="#IPAexGothic-50"/>
      <use x="62.988281" xlink:href="#IPAexGothic-48"/>
      <use x="125.976562" xlink:href="#IPAexGothic-50"/>
      <use x="188.964844" xlink:href="#IPAexGothic-48"/>
     </g>
    </g>
   </g>
   <g id="matplotlib.axis_2">
    <g id="ytick_1">
     <g id="line2d_10">
      <defs>
       <path d="M 0 0 
L -3.5 0 
" id="m04c295781f" style="stroke:#000000;stroke-width:0.8;"/>
      </defs>
      <g>
       <use style="stroke:#000000;stroke-width:0.8;" x="33.095313" xlink:href="#m04c295781f" y="284.258625"/>
      </g>
     </g>
     <g id="text_11">
      <!-- 0 -->
      <g transform="translate(19.796875 288.003937)scale(0.1 -0.1)">
       <use xlink:href="#IPAexGothic-48"/>
      </g>
     </g>
    </g>
    <g id="ytick_2">
     <g id="line2d_11">
      <g>
       <use style="stroke:#000000;stroke-width:0.8;" x="33.095313" xlink:href="#m04c295781f" y="239.795467"/>
      </g>
     </g>
     <g id="text_12">
      <!-- 100 -->
      <g transform="translate(7.2 243.54078)scale(0.1 -0.1)">
       <defs>
        <path d="M 38.484375 0.984375 
L 29.6875 0.984375 
L 29.6875 64.109375 
Q 21.4375 61.28125 12.3125 59.328125 
L 10.6875 66.109375 
Q 23.734375 69.390625 32.90625 73.921875 
L 38.484375 73.921875 
z
" id="IPAexGothic-49"/>
       </defs>
       <use xlink:href="#IPAexGothic-49"/>
       <use x="62.988281" xlink:href="#IPAexGothic-48"/>
       <use x="125.976562" xlink:href="#IPAexGothic-48"/>
      </g>
     </g>
    </g>
    <g id="ytick_3">
     <g id="line2d_12">
      <g>
       <use style="stroke:#000000;stroke-width:0.8;" x="33.095313" xlink:href="#m04c295781f" y="195.332309"/>
      </g>
     </g>
     <g id="text_13">
      <!-- 200 -->
      <g transform="translate(7.2 199.077622)scale(0.1 -0.1)">
       <use xlink:href="#IPAexGothic-50"/>
       <use x="62.988281" xlink:href="#IPAexGothic-48"/>
       <use x="125.976562" xlink:href="#IPAexGothic-48"/>
      </g>
     </g>
    </g>
    <g id="ytick_4">
     <g id="line2d_13">
      <g>
       <use style="stroke:#000000;stroke-width:0.8;" x="33.095313" xlink:href="#m04c295781f" y="150.869151"/>
      </g>
     </g>
     <g id="text_14">
      <!-- 300 -->
      <g transform="translate(7.2 154.614464)scale(0.1 -0.1)">
       <defs>
        <path d="M 37.203125 37.796875 
Q 54.78125 34.625 54.78125 19.96875 
Q 54.78125 11.1875 48.875 5.5625 
Q 42.328125 -0.484375 30.375 -0.484375 
Q 12.453125 -0.484375 4.5 13.765625 
L 11.8125 17.671875 
Q 17.328125 6.890625 30.28125 6.890625 
Q 37.890625 6.890625 42.09375 10.796875 
Q 46.09375 14.5 46.09375 20.171875 
Q 46.09375 26.859375 40.09375 30.90625 
Q 34.625 34.578125 25.6875 34.578125 
L 21.296875 34.578125 
L 21.296875 41.703125 
L 25.875 41.703125 
Q 34.859375 41.703125 39.59375 45.125 
Q 44.671875 48.734375 44.671875 54.828125 
Q 44.671875 61.46875 38.96875 64.65625 
Q 35.296875 66.84375 30.171875 66.84375 
Q 19.34375 66.84375 14.109375 55.90625 
L 6.78125 59.421875 
Q 14.015625 73.828125 30.28125 73.828125 
Q 40.578125 73.828125 46.96875 68.65625 
Q 53.375 63.578125 53.375 55.21875 
Q 53.375 47.3125 47.171875 42.28125 
Q 43.171875 39.0625 37.203125 38.1875 
z
" id="IPAexGothic-51"/>
       </defs>
       <use xlink:href="#IPAexGothic-51"/>
       <use x="62.988281" xlink:href="#IPAexGothic-48"/>
       <use x="125.976562" xlink:href="#IPAexGothic-48"/>
      </g>
     </g>
    </g>
    <g id="ytick_5">
     <g id="line2d_14">
      <g>
       <use style="stroke:#000000;stroke-width:0.8;" x="33.095313" xlink:href="#m04c295781f" y="106.405993"/>
      </g>
     </g>
     <g id="text_15">
      <!-- 400 -->
      <g transform="translate(7.2 110.151306)scale(0.1 -0.1)">
       <defs>
        <path d="M 59.578125 18.109375 
L 47.796875 18.109375 
L 47.796875 0.984375 
L 39.796875 0.984375 
L 39.796875 18.109375 
L 3.078125 18.109375 
L 3.078125 26.125 
L 38.375 73.09375 
L 47.796875 73.09375 
L 47.796875 25.53125 
L 59.578125 25.53125 
z
M 40.28125 64.203125 
L 39.984375 64.203125 
Q 35.59375 57.125 31.296875 51.3125 
L 11.859375 25.53125 
L 39.796875 25.53125 
L 39.796875 49.125 
Q 39.796875 54.390625 40.28125 64.203125 
z
" id="IPAexGothic-52"/>
       </defs>
       <use xlink:href="#IPAexGothic-52"/>
       <use x="62.988281" xlink:href="#IPAexGothic-48"/>
       <use x="125.976562" xlink:href="#IPAexGothic-48"/>
      </g>
     </g>
    </g>
    <g id="ytick_6">
     <g id="line2d_15">
      <g>
       <use style="stroke:#000000;stroke-width:0.8;" x="33.095313" xlink:href="#m04c295781f" y="61.942836"/>
      </g>
     </g>
     <g id="text_16">
      <!-- 500 -->
      <g transform="translate(7.2 65.688148)scale(0.1 -0.1)">
       <defs>
        <path d="M 18.40625 40.671875 
Q 25.53125 46.296875 33.9375 46.296875 
Q 44 46.296875 50.640625 39.5 
Q 56.84375 33.015625 56.84375 23.390625 
Q 56.84375 14.65625 51.515625 8.015625 
Q 44.828125 -0.484375 31.734375 -0.484375 
Q 14.984375 -0.484375 7.328125 12.25 
L 14.65625 16.0625 
Q 20.453125 6.78125 31.453125 6.78125 
Q 38.53125 6.78125 43.265625 11.1875 
Q 48.140625 15.828125 48.140625 23.484375 
Q 48.140625 30.71875 43.84375 35.015625 
Q 39.359375 39.5 32.125 39.5 
Q 21.96875 39.5 16.75 31.6875 
L 9.234375 32.671875 
L 13.8125 72.40625 
L 53.21875 72.40625 
L 53.21875 64.890625 
L 20.953125 64.890625 
L 17.71875 40.671875 
z
" id="IPAexGothic-53"/>
       </defs>
       <use xlink:href="#IPAexGothic-53"/>
       <use x="62.988281" xlink:href="#IPAexGothic-48"/>
       <use x="125.976562" xlink:href="#IPAexGothic-48"/>
      </g>
     </g>
    </g>
   </g>
   <g id="patch_315">
    <path d="M 33.095313 284.258625 
L 33.095313 18.146625 
" style="fill:none;stroke:#000000;stroke-linecap:square;stroke-linejoin:miter;stroke-width:0.8;"/>
   </g>
   <g id="patch_316">
    <path d="M 390.215312 284.258625 
L 390.215312 18.146625 
" style="fill:none;stroke:#000000;stroke-linecap:square;stroke-linejoin:miter;stroke-width:0.8;"/>
   </g>
   <g id="patch_317">
    <path d="M 33.095313 284.258625 
L 390.215313 284.258625 
" style="fill:none;stroke:#000000;stroke-linecap:square;stroke-linejoin:miter;stroke-width:0.8;"/>
   </g>
   <g id="patch_318">
    <path d="M 33.095313 18.146625 
L 390.215313 18.146625 
" style="fill:none;stroke:#000000;stroke-linecap:square;stroke-linejoin:miter;stroke-width:0.8;"/>
   </g>
   <g id="legend_1">
    <g id="patch_319">
     <path d="M 40.095313 40.595062 
L 150.59375 40.595062 
Q 152.59375 40.595062 152.59375 38.595062 
L 152.59375 25.146625 
Q 152.59375 23.146625 150.59375 23.146625 
L 40.095313 23.146625 
Q 38.095313 23.146625 38.095313 25.146625 
L 38.095313 38.595062 
Q 38.095313 40.595062 40.095313 40.595062 
z
" style="fill:#ffffff;opacity:0.8;stroke:#cccccc;stroke-linejoin:miter;"/>
    </g>
    <g id="patch_320">
     <path d="M 42.095313 34.695062 
L 62.095313 34.695062 
L 62.095313 27.695062 
L 42.095313 27.695062 
z
" style="fill:#ff7f0e;"/>
    </g>
    <g id="text_17">
     <!-- Tokyo confirmed -->
     <g transform="translate(70.095313 34.695062)scale(0.1 -0.1)">
      <defs>
       <path d="M 60.40625 64.703125 
L 33.984375 64.703125 
L 33.984375 0.984375 
L 25.09375 0.984375 
L 25.09375 64.703125 
L -0.484375 64.703125 
L -0.484375 72.40625 
L 60.40625 72.40625 
z
" id="IPAexGothic-84"/>
       <path d="M 50.6875 0.984375 
L 40.28125 0.984375 
L 23.1875 25.203125 
L 17.484375 19.671875 
L 17.484375 0.984375 
L 9.078125 0.984375 
L 9.078125 74.90625 
L 17.484375 74.90625 
L 17.484375 27.59375 
L 38.484375 50.78125 
L 49.265625 50.78125 
L 28.5625 30.078125 
z
" id="IPAexGothic-107"/>
       <path id="IPAexGothic-32"/>
       <path d="M 38.375 72.21875 
L 34.8125 66.3125 
Q 31.109375 69.09375 27.203125 69.09375 
Q 18.5 69.09375 18.5 57.375 
L 18.5 50.78125 
L 32.078125 50.78125 
L 32.078125 44.671875 
L 18.5 44.671875 
L 18.5 0.984375 
L 10.015625 0.984375 
L 10.015625 44.671875 
L 1.90625 44.671875 
L 1.90625 50.78125 
L 10.015625 50.78125 
L 10.015625 57.171875 
Q 10.015625 65.4375 13.921875 70.0625 
Q 18.75 75.6875 26.703125 75.6875 
Q 33.0625 75.6875 38.375 72.21875 
z
" id="IPAexGothic-102"/>
       <path d="M 18.40625 61.375 
L 8.59375 61.375 
L 8.59375 71.390625 
L 18.40625 71.390625 
z
M 17.78125 0.984375 
L 9.1875 0.984375 
L 9.1875 50.78125 
L 17.78125 50.78125 
z
" id="IPAexGothic-105"/>
       <path d="M 78.46875 0.984375 
L 69.875 0.984375 
L 69.875 32.171875 
Q 69.875 44.828125 60.109375 44.828125 
Q 55.46875 44.828125 51.609375 40.53125 
Q 48.875 37.453125 47.796875 32.859375 
L 47.796875 0.984375 
L 39.203125 0.984375 
L 39.203125 32.28125 
Q 39.203125 44.828125 29.984375 44.828125 
Q 25.09375 44.828125 21.390625 40.53125 
Q 17.390625 36.03125 17.390625 31.890625 
L 17.390625 0.984375 
L 8.796875 0.984375 
L 8.796875 50.78125 
L 16.796875 50.78125 
L 16.796875 42.1875 
Q 21.734375 51.8125 31.6875 51.8125 
Q 42.578125 51.8125 46.1875 41.359375 
Q 51.609375 51.8125 61.765625 51.8125 
Q 69.96875 51.8125 74.5625 46 
Q 78.46875 41.21875 78.46875 32.375 
z
" id="IPAexGothic-109"/>
       <path d="M 52.984375 0.984375 
L 45.171875 0.984375 
L 45.171875 9.671875 
Q 38.140625 -0.484375 27.390625 -0.484375 
Q 18.453125 -0.484375 12.3125 5.8125 
Q 4.890625 13.1875 4.890625 25.984375 
Q 4.890625 38.53125 12.0625 45.90625 
Q 18.265625 52.203125 27.390625 52.203125 
Q 37.25 52.203125 44.484375 43.890625 
L 44.484375 74.90625 
L 52.984375 74.90625 
z
M 44.484375 20.359375 
L 44.484375 32.765625 
Q 44.484375 37.703125 38.375 42.28125 
Q 34.078125 45.40625 28.953125 45.40625 
Q 23.1875 45.40625 19.1875 41.40625 
Q 13.875 36.078125 13.875 26.21875 
Q 13.875 17.328125 18.265625 11.71875 
Q 22.515625 6.390625 28.859375 6.390625 
Q 36.28125 6.390625 41.5 13.671875 
Q 44.484375 17.71875 44.484375 20.359375 
z
" id="IPAexGothic-100"/>
      </defs>
      <use xlink:href="#IPAexGothic-84"/>
      <use x="59.912109" xlink:href="#IPAexGothic-111"/>
      <use x="120.3125" xlink:href="#IPAexGothic-107"/>
      <use x="172.119141" xlink:href="#IPAexGothic-121"/>
      <use x="221.337891" xlink:href="#IPAexGothic-111"/>
      <use x="281.738281" xlink:href="#IPAexGothic-32"/>
      <use x="308.740234" xlink:href="#IPAexGothic-99"/>
      <use x="363.134766" xlink:href="#IPAexGothic-111"/>
      <use x="423.535156" xlink:href="#IPAexGothic-110"/>
      <use x="483.935547" xlink:href="#IPAexGothic-102"/>
      <use x="514.550781" xlink:href="#IPAexGothic-105"/>
      <use x="541.552734" xlink:href="#IPAexGothic-114"/>
      <use x="578.564453" xlink:href="#IPAexGothic-109"/>
      <use x="665.673828" xlink:href="#IPAexGothic-101"/>
      <use x="722.558594" xlink:href="#IPAexGothic-100"/>
     </g>
    </g>
   </g>
  </g>
  <g id="axes_2">
   <g id="matplotlib.axis_3">
    <g id="ytick_7">
     <g id="line2d_16">
      <defs>
       <path d="M 0 0 
L 3.5 0 
" id="m835f43dbd1" style="stroke:#000000;stroke-width:0.8;"/>
      </defs>
      <g>
       <use style="stroke:#000000;stroke-width:0.8;" x="390.215312" xlink:href="#m835f43dbd1" y="145.978204"/>
      </g>
     </g>
     <g id="text_18">
      <!-- 311 -->
      <g transform="translate(397.215312 149.723516)scale(0.1 -0.1)">
       <use xlink:href="#IPAexGothic-51"/>
       <use x="62.988281" xlink:href="#IPAexGothic-49"/>
       <use x="125.976562" xlink:href="#IPAexGothic-49"/>
      </g>
     </g>
    </g>
   </g>
   <g id="patch_321">
    <path d="M 33.095313 284.258625 
L 33.095313 18.146625 
" style="fill:none;stroke:#000000;stroke-linecap:square;stroke-linejoin:miter;stroke-width:0.8;"/>
   </g>
   <g id="patch_322">
    <path d="M 390.215312 284.258625 
L 390.215312 18.146625 
" style="fill:none;stroke:#000000;stroke-linecap:square;stroke-linejoin:miter;stroke-width:0.8;"/>
   </g>
   <g id="patch_323">
    <path d="M 33.095313 284.258625 
L 390.215313 284.258625 
" style="fill:none;stroke:#000000;stroke-linecap:square;stroke-linejoin:miter;stroke-width:0.8;"/>
   </g>
   <g id="patch_324">
    <path d="M 33.095313 18.146625 
L 390.215313 18.146625 
" style="fill:none;stroke:#000000;stroke-linecap:square;stroke-linejoin:miter;stroke-width:0.8;"/>
   </g>
  </g>
  <g id="text_19">
   <!-- generated: 2020-11-30 15:00:28 JST -->
   <g transform="translate(213.980938 14.690625)scale(0.1 -0.1)">
    <defs>
     <path d="M 21.390625 39.984375 
L 10.5 39.984375 
L 10.5 50.78125 
L 21.390625 50.78125 
z
M 21.390625 0.984375 
L 10.5 0.984375 
L 10.5 11.765625 
L 21.390625 11.765625 
z
" id="IPAexGothic-58"/>
     <path d="M 30.765625 26.609375 
L 4.984375 26.609375 
L 4.984375 34.421875 
L 30.765625 34.421875 
z
" id="IPAexGothic-45"/>
     <path d="M 39.703125 37.890625 
Q 57.8125 31.734375 57.8125 18.703125 
Q 57.8125 8.453125 48.4375 3.078125 
Q 41.609375 -0.875 31.5 -0.875 
Q 21.34375 -0.875 14.5 3.078125 
Q 5.421875 8.296875 5.421875 18.40625 
Q 5.421875 31.0625 22.015625 37.203125 
L 22.015625 37.5 
Q 7.515625 42.71875 7.515625 54.828125 
Q 7.515625 64.0625 15.328125 69.625 
Q 21.96875 74.3125 31.546875 74.3125 
Q 42.234375 74.3125 48.921875 68.796875 
Q 55.515625 63.578125 55.515625 55.71875 
Q 55.515625 42.28125 39.703125 38.1875 
z
M 31.59375 41.015625 
Q 46.828125 44.625 46.828125 55.125 
Q 46.828125 61.1875 41.796875 64.84375 
Q 37.703125 67.921875 31.5 67.921875 
Q 25.09375 67.921875 20.796875 64.5 
Q 16.40625 60.890625 16.40625 55.03125 
Q 16.40625 49.21875 21.09375 45.703125 
Q 23.34375 43.890625 26.90625 42.53125 
Q 31 40.875 31.59375 41.015625 
z
M 30.90625 34.515625 
Q 14.40625 30.171875 14.40625 19 
Q 14.40625 12.109375 20.515625 8.6875 
Q 25.09375 6.109375 31.390625 6.109375 
Q 40.234375 6.109375 45.015625 10.890625 
Q 48.53125 14.40625 48.53125 19.53125 
Q 48.53125 24.90625 43.65625 28.90625 
Q 40.765625 31.15625 36.71875 32.8125 
Q 31.984375 34.71875 30.90625 34.515625 
z
" id="IPAexGothic-56"/>
    </defs>
    <use xlink:href="#IPAexGothic-103"/>
    <use x="55.517578" xlink:href="#IPAexGothic-101"/>
    <use x="112.402344" xlink:href="#IPAexGothic-110"/>
    <use x="172.802734" xlink:href="#IPAexGothic-101"/>
    <use x="229.6875" xlink:href="#IPAexGothic-114"/>
    <use x="266.699219" xlink:href="#IPAexGothic-97"/>
    <use x="321.679688" xlink:href="#IPAexGothic-116"/>
    <use x="356.298828" xlink:href="#IPAexGothic-101"/>
    <use x="413.183594" xlink:href="#IPAexGothic-100"/>
    <use x="475.585938" xlink:href="#IPAexGothic-58"/>
    <use x="507.568359" xlink:href="#IPAexGothic-32"/>
    <use x="534.570312" xlink:href="#IPAexGothic-50"/>
    <use x="597.558594" xlink:href="#IPAexGothic-48"/>
    <use x="660.546875" xlink:href="#IPAexGothic-50"/>
    <use x="723.535156" xlink:href="#IPAexGothic-48"/>
    <use x="786.523438" xlink:href="#IPAexGothic-45"/>
    <use x="822.314453" xlink:href="#IPAexGothic-49"/>
    <use x="885.302734" xlink:href="#IPAexGothic-49"/>
    <use x="948.291016" xlink:href="#IPAexGothic-45"/>
    <use x="984.082031" xlink:href="#IPAexGothic-51"/>
    <use x="1047.070312" xlink:href="#IPAexGothic-48"/>
    <use x="1110.058594" xlink:href="#IPAexGothic-32"/>
    <use x="1137.060547" xlink:href="#IPAexGothic-49"/>
    <use x="1200.048828" xlink:href="#IPAexGothic-53"/>
    <use x="1263.037109" xlink:href="#IPAexGothic-58"/>
    <use x="1295.019531" xlink:href="#IPAexGothic-48"/>
    <use x="1358.007812" xlink:href="#IPAexGothic-48"/>
    <use x="1420.996094" xlink:href="#IPAexGothic-58"/>
    <use x="1452.978516" xlink:href="#IPAexGothic-50"/>
    <use x="1515.966797" xlink:href="#IPAexGothic-56"/>
    <use x="1578.955078" xlink:href="#IPAexGothic-32"/>
    <use x="1605.957031" xlink:href="#IPAexGothic-74"/>
    <use x="1643.945312" xlink:href="#IPAexGothic-83"/>
    <use x="1702.441406" xlink:href="#IPAexGothic-84"/>
   </g>
  </g>
 </g>
 <defs>
  <clipPath id="p2a99bdf7a7">
   <rect height="266.112" width="357.12" x="33.095313" y="18.146625"/>
  </clipPath>
 </defs>
</svg>
