<?xml version="1.0" encoding="utf-8" standalone="no"?>
<!DOCTYPE svg PUBLIC "-//W3C//DTD SVG 1.1//EN"
  "http://www.w3.org/Graphics/SVG/1.1/DTD/svg11.dtd">
<!-- Created with matplotlib (https://matplotlib.org/) -->
<svg height="309.29325pt" version="1.1" viewBox="0 0 391.116875 309.29325" width="391.116875pt" xmlns="http://www.w3.org/2000/svg" xmlns:xlink="http://www.w3.org/1999/xlink">
 <defs>
  <style type="text/css">
*{stroke-linecap:butt;stroke-linejoin:round;}
  </style>
 </defs>
 <g id="figure_1">
  <g id="patch_1">
   <path d="M 0 309.29325 
L 391.116875 309.29325 
L 391.116875 0 
L 0 0 
z
" style="fill:#ffffff;"/>
  </g>
  <g id="axes_1">
   <g id="patch_2">
    <path d="M 26.796875 273.312 
L 383.916875 273.312 
L 383.916875 7.2 
L 26.796875 7.2 
z
" style="fill:#ffffff;"/>
   </g>
   <g id="patch_3">
    <path clip-path="url(#pe1ef5aa800)" d="M 43.029602 273.312 
L 47.602202 273.312 
L 47.602202 258.829714 
L 43.029602 258.829714 
z
" style="fill:#1f77b4;"/>
   </g>
   <g id="patch_4">
    <path clip-path="url(#pe1ef5aa800)" d="M 54.4611 273.312 
L 59.0337 273.312 
L 59.0337 258.829714 
L 54.4611 258.829714 
z
" style="fill:#1f77b4;"/>
   </g>
   <g id="patch_5">
    <path clip-path="url(#pe1ef5aa800)" d="M 88.755595 273.312 
L 93.328194 273.312 
L 93.328194 266.070857 
L 88.755595 266.070857 
z
" style="fill:#1f77b4;"/>
   </g>
   <g id="patch_6">
    <path clip-path="url(#pe1ef5aa800)" d="M 128.765838 273.312 
L 133.338437 273.312 
L 133.338437 258.829714 
L 128.765838 258.829714 
z
" style="fill:#1f77b4;"/>
   </g>
   <g id="patch_7">
    <path clip-path="url(#pe1ef5aa800)" d="M 134.481587 273.312 
L 139.054186 273.312 
L 139.054186 258.829714 
L 134.481587 258.829714 
z
" style="fill:#1f77b4;"/>
   </g>
   <g id="patch_8">
    <path clip-path="url(#pe1ef5aa800)" d="M 145.913085 273.312 
L 150.485684 273.312 
L 150.485684 229.865143 
L 145.913085 229.865143 
z
" style="fill:#1f77b4;"/>
   </g>
   <g id="patch_9">
    <path clip-path="url(#pe1ef5aa800)" d="M 151.628834 273.312 
L 156.201433 273.312 
L 156.201433 258.829714 
L 151.628834 258.829714 
z
" style="fill:#1f77b4;"/>
   </g>
   <g id="patch_10">
    <path clip-path="url(#pe1ef5aa800)" d="M 157.344583 273.312 
L 161.917182 273.312 
L 161.917182 208.141714 
L 157.344583 208.141714 
z
" style="fill:#1f77b4;"/>
   </g>
   <g id="patch_11">
    <path clip-path="url(#pe1ef5aa800)" d="M 163.060332 273.312 
L 167.632931 273.312 
L 167.632931 244.347429 
L 163.060332 244.347429 
z
" style="fill:#1f77b4;"/>
   </g>
   <g id="patch_12">
    <path clip-path="url(#pe1ef5aa800)" d="M 168.776081 273.312 
L 173.34868 273.312 
L 173.34868 266.070857 
L 168.776081 266.070857 
z
" style="fill:#1f77b4;"/>
   </g>
   <g id="patch_13">
    <path clip-path="url(#pe1ef5aa800)" d="M 174.49183 273.312 
L 179.064429 273.312 
L 179.064429 229.865143 
L 174.49183 229.865143 
z
" style="fill:#1f77b4;"/>
   </g>
   <g id="patch_14">
    <path clip-path="url(#pe1ef5aa800)" d="M 180.207579 273.312 
L 184.780178 273.312 
L 184.780178 266.070857 
L 180.207579 266.070857 
z
" style="fill:#1f77b4;"/>
   </g>
   <g id="patch_15">
    <path clip-path="url(#pe1ef5aa800)" d="M 197.354826 273.312 
L 201.927426 273.312 
L 201.927426 237.106286 
L 197.354826 237.106286 
z
" style="fill:#1f77b4;"/>
   </g>
   <g id="patch_16">
    <path clip-path="url(#pe1ef5aa800)" d="M 203.070575 273.312 
L 207.643175 273.312 
L 207.643175 222.624 
L 203.070575 222.624 
z
" style="fill:#1f77b4;"/>
   </g>
   <g id="patch_17">
    <path clip-path="url(#pe1ef5aa800)" d="M 208.786324 273.312 
L 213.358924 273.312 
L 213.358924 215.382857 
L 208.786324 215.382857 
z
" style="fill:#1f77b4;"/>
   </g>
   <g id="patch_18">
    <path clip-path="url(#pe1ef5aa800)" d="M 214.502073 273.312 
L 219.074673 273.312 
L 219.074673 229.865143 
L 214.502073 229.865143 
z
" style="fill:#1f77b4;"/>
   </g>
   <g id="patch_19">
    <path clip-path="url(#pe1ef5aa800)" d="M 220.217823 273.312 
L 224.790422 273.312 
L 224.790422 258.829714 
L 220.217823 258.829714 
z
" style="fill:#1f77b4;"/>
   </g>
   <g id="patch_20">
    <path clip-path="url(#pe1ef5aa800)" d="M 225.933572 273.312 
L 230.506171 273.312 
L 230.506171 258.829714 
L 225.933572 258.829714 
z
" style="fill:#1f77b4;"/>
   </g>
   <g id="patch_21">
    <path clip-path="url(#pe1ef5aa800)" d="M 231.649321 273.312 
L 236.22192 273.312 
L 236.22192 179.177143 
L 231.649321 179.177143 
z
" style="fill:#1f77b4;"/>
   </g>
   <g id="patch_22">
    <path clip-path="url(#pe1ef5aa800)" d="M 237.36507 273.312 
L 241.937669 273.312 
L 241.937669 222.624 
L 237.36507 222.624 
z
" style="fill:#1f77b4;"/>
   </g>
   <g id="patch_23">
    <path clip-path="url(#pe1ef5aa800)" d="M 243.080819 273.312 
L 247.653418 273.312 
L 247.653418 193.659429 
L 243.080819 193.659429 
z
" style="fill:#1f77b4;"/>
   </g>
   <g id="patch_24">
    <path clip-path="url(#pe1ef5aa800)" d="M 248.796568 273.312 
L 253.369167 273.312 
L 253.369167 142.971429 
L 248.796568 142.971429 
z
" style="fill:#1f77b4;"/>
   </g>
   <g id="patch_25">
    <path clip-path="url(#pe1ef5aa800)" d="M 254.512317 273.312 
L 259.084916 273.312 
L 259.084916 157.453714 
L 254.512317 157.453714 
z
" style="fill:#1f77b4;"/>
   </g>
   <g id="patch_26">
    <path clip-path="url(#pe1ef5aa800)" d="M 260.228066 273.312 
L 264.800665 273.312 
L 264.800665 237.106286 
L 260.228066 237.106286 
z
" style="fill:#1f77b4;"/>
   </g>
   <g id="patch_27">
    <path clip-path="url(#pe1ef5aa800)" d="M 265.943815 273.312 
L 270.516414 273.312 
L 270.516414 258.829714 
L 265.943815 258.829714 
z
" style="fill:#1f77b4;"/>
   </g>
   <g id="patch_28">
    <path clip-path="url(#pe1ef5aa800)" d="M 271.659564 273.312 
L 276.232163 273.312 
L 276.232163 164.694857 
L 271.659564 164.694857 
z
" style="fill:#1f77b4;"/>
   </g>
   <g id="patch_29">
    <path clip-path="url(#pe1ef5aa800)" d="M 277.375313 273.312 
L 281.947912 273.312 
L 281.947912 85.042286 
L 277.375313 85.042286 
z
" style="fill:#1f77b4;"/>
   </g>
   <g id="patch_30">
    <path clip-path="url(#pe1ef5aa800)" d="M 283.091062 273.312 
L 287.663661 273.312 
L 287.663661 150.212571 
L 283.091062 150.212571 
z
" style="fill:#1f77b4;"/>
   </g>
   <g id="patch_31">
    <path clip-path="url(#pe1ef5aa800)" d="M 288.806811 273.312 
L 293.37941 273.312 
L 293.37941 19.872 
L 288.806811 19.872 
z
" style="fill:#1f77b4;"/>
   </g>
   <g id="patch_32">
    <path clip-path="url(#pe1ef5aa800)" d="M 294.52256 273.312 
L 299.095159 273.312 
L 299.095159 150.212571 
L 294.52256 150.212571 
z
" style="fill:#1f77b4;"/>
   </g>
   <g id="patch_33">
    <path clip-path="url(#pe1ef5aa800)" d="M 300.238309 273.312 
L 304.810908 273.312 
L 304.810908 244.347429 
L 300.238309 244.347429 
z
" style="fill:#1f77b4;"/>
   </g>
   <g id="patch_34">
    <path clip-path="url(#pe1ef5aa800)" d="M 305.954058 273.312 
L 310.526657 273.312 
L 310.526657 251.588571 
L 305.954058 251.588571 
z
" style="fill:#1f77b4;"/>
   </g>
   <g id="patch_35">
    <path clip-path="url(#pe1ef5aa800)" d="M 311.669807 273.312 
L 316.242406 273.312 
L 316.242406 128.489143 
L 311.669807 128.489143 
z
" style="fill:#1f77b4;"/>
   </g>
   <g id="patch_36">
    <path clip-path="url(#pe1ef5aa800)" d="M 317.385556 273.312 
L 321.958155 273.312 
L 321.958155 99.524571 
L 317.385556 99.524571 
z
" style="fill:#1f77b4;"/>
   </g>
   <g id="patch_37">
    <path clip-path="url(#pe1ef5aa800)" d="M 323.101305 273.312 
L 327.673904 273.312 
L 327.673904 150.212571 
L 323.101305 150.212571 
z
" style="fill:#1f77b4;"/>
   </g>
   <g id="patch_38">
    <path clip-path="url(#pe1ef5aa800)" d="M 328.817054 273.312 
L 333.389653 273.312 
L 333.389653 229.865143 
L 328.817054 229.865143 
z
" style="fill:#1f77b4;"/>
   </g>
   <g id="patch_39">
    <path clip-path="url(#pe1ef5aa800)" d="M 334.532803 273.312 
L 339.105403 273.312 
L 339.105403 215.382857 
L 334.532803 215.382857 
z
" style="fill:#1f77b4;"/>
   </g>
   <g id="patch_40">
    <path clip-path="url(#pe1ef5aa800)" d="M 340.248552 273.312 
L 344.821152 273.312 
L 344.821152 193.659429 
L 340.248552 193.659429 
z
" style="fill:#1f77b4;"/>
   </g>
   <g id="patch_41">
    <path clip-path="url(#pe1ef5aa800)" d="M 345.964301 273.312 
L 350.536901 273.312 
L 350.536901 251.588571 
L 345.964301 251.588571 
z
" style="fill:#1f77b4;"/>
   </g>
   <g id="patch_42">
    <path clip-path="url(#pe1ef5aa800)" d="M 351.68005 273.312 
L 356.25265 273.312 
L 356.25265 99.524571 
L 351.68005 99.524571 
z
" style="fill:#1f77b4;"/>
   </g>
   <g id="patch_43">
    <path clip-path="url(#pe1ef5aa800)" d="M 357.395799 273.312 
L 361.968399 273.312 
L 361.968399 200.900571 
L 357.395799 200.900571 
z
" style="fill:#1f77b4;"/>
   </g>
   <g id="patch_44">
    <path clip-path="url(#pe1ef5aa800)" d="M 363.111548 273.312 
L 367.684148 273.312 
L 367.684148 142.971429 
L 363.111548 142.971429 
z
" style="fill:#1f77b4;"/>
   </g>
   <g id="patch_45">
    <path clip-path="url(#pe1ef5aa800)" d="M 43.029602 273.312 
L 47.602202 273.312 
L 47.602202 266.070857 
L 43.029602 266.070857 
z
" style="fill:#ff7f0e;"/>
   </g>
   <g id="patch_46">
    <path clip-path="url(#pe1ef5aa800)" d="M 54.4611 273.312 
L 59.0337 273.312 
L 59.0337 273.312 
L 54.4611 273.312 
z
" style="fill:#ff7f0e;"/>
   </g>
   <g id="patch_47">
    <path clip-path="url(#pe1ef5aa800)" d="M 88.755595 273.312 
L 93.328194 273.312 
L 93.328194 273.312 
L 88.755595 273.312 
z
" style="fill:#ff7f0e;"/>
   </g>
   <g id="patch_48">
    <path clip-path="url(#pe1ef5aa800)" d="M 128.765838 273.312 
L 133.338437 273.312 
L 133.338437 273.312 
L 128.765838 273.312 
z
" style="fill:#ff7f0e;"/>
   </g>
   <g id="patch_49">
    <path clip-path="url(#pe1ef5aa800)" d="M 134.481587 273.312 
L 139.054186 273.312 
L 139.054186 273.312 
L 134.481587 273.312 
z
" style="fill:#ff7f0e;"/>
   </g>
   <g id="patch_50">
    <path clip-path="url(#pe1ef5aa800)" d="M 145.913085 273.312 
L 150.485684 273.312 
L 150.485684 273.312 
L 145.913085 273.312 
z
" style="fill:#ff7f0e;"/>
   </g>
   <g id="patch_51">
    <path clip-path="url(#pe1ef5aa800)" d="M 151.628834 273.312 
L 156.201433 273.312 
L 156.201433 273.312 
L 151.628834 273.312 
z
" style="fill:#ff7f0e;"/>
   </g>
   <g id="patch_52">
    <path clip-path="url(#pe1ef5aa800)" d="M 157.344583 273.312 
L 161.917182 273.312 
L 161.917182 273.312 
L 157.344583 273.312 
z
" style="fill:#ff7f0e;"/>
   </g>
   <g id="patch_53">
    <path clip-path="url(#pe1ef5aa800)" d="M 163.060332 273.312 
L 167.632931 273.312 
L 167.632931 273.312 
L 163.060332 273.312 
z
" style="fill:#ff7f0e;"/>
   </g>
   <g id="patch_54">
    <path clip-path="url(#pe1ef5aa800)" d="M 168.776081 273.312 
L 173.34868 273.312 
L 173.34868 273.312 
L 168.776081 273.312 
z
" style="fill:#ff7f0e;"/>
   </g>
   <g id="patch_55">
    <path clip-path="url(#pe1ef5aa800)" d="M 174.49183 273.312 
L 179.064429 273.312 
L 179.064429 273.312 
L 174.49183 273.312 
z
" style="fill:#ff7f0e;"/>
   </g>
   <g id="patch_56">
    <path clip-path="url(#pe1ef5aa800)" d="M 180.207579 273.312 
L 184.780178 273.312 
L 184.780178 273.312 
L 180.207579 273.312 
z
" style="fill:#ff7f0e;"/>
   </g>
   <g id="patch_57">
    <path clip-path="url(#pe1ef5aa800)" d="M 197.354826 273.312 
L 201.927426 273.312 
L 201.927426 273.312 
L 197.354826 273.312 
z
" style="fill:#ff7f0e;"/>
   </g>
   <g id="patch_58">
    <path clip-path="url(#pe1ef5aa800)" d="M 203.070575 273.312 
L 207.643175 273.312 
L 207.643175 273.312 
L 203.070575 273.312 
z
" style="fill:#ff7f0e;"/>
   </g>
   <g id="patch_59">
    <path clip-path="url(#pe1ef5aa800)" d="M 208.786324 273.312 
L 213.358924 273.312 
L 213.358924 273.312 
L 208.786324 273.312 
z
" style="fill:#ff7f0e;"/>
   </g>
   <g id="patch_60">
    <path clip-path="url(#pe1ef5aa800)" d="M 214.502073 273.312 
L 219.074673 273.312 
L 219.074673 273.312 
L 214.502073 273.312 
z
" style="fill:#ff7f0e;"/>
   </g>
   <g id="patch_61">
    <path clip-path="url(#pe1ef5aa800)" d="M 220.217823 273.312 
L 224.790422 273.312 
L 224.790422 273.312 
L 220.217823 273.312 
z
" style="fill:#ff7f0e;"/>
   </g>
   <g id="patch_62">
    <path clip-path="url(#pe1ef5aa800)" d="M 225.933572 273.312 
L 230.506171 273.312 
L 230.506171 273.312 
L 225.933572 273.312 
z
" style="fill:#ff7f0e;"/>
   </g>
   <g id="patch_63">
    <path clip-path="url(#pe1ef5aa800)" d="M 231.649321 273.312 
L 236.22192 273.312 
L 236.22192 273.312 
L 231.649321 273.312 
z
" style="fill:#ff7f0e;"/>
   </g>
   <g id="patch_64">
    <path clip-path="url(#pe1ef5aa800)" d="M 237.36507 273.312 
L 241.937669 273.312 
L 241.937669 273.312 
L 237.36507 273.312 
z
" style="fill:#ff7f0e;"/>
   </g>
   <g id="patch_65">
    <path clip-path="url(#pe1ef5aa800)" d="M 243.080819 273.312 
L 247.653418 273.312 
L 247.653418 273.312 
L 243.080819 273.312 
z
" style="fill:#ff7f0e;"/>
   </g>
   <g id="patch_66">
    <path clip-path="url(#pe1ef5aa800)" d="M 248.796568 273.312 
L 253.369167 273.312 
L 253.369167 273.312 
L 248.796568 273.312 
z
" style="fill:#ff7f0e;"/>
   </g>
   <g id="patch_67">
    <path clip-path="url(#pe1ef5aa800)" d="M 254.512317 273.312 
L 259.084916 273.312 
L 259.084916 273.312 
L 254.512317 273.312 
z
" style="fill:#ff7f0e;"/>
   </g>
   <g id="patch_68">
    <path clip-path="url(#pe1ef5aa800)" d="M 260.228066 273.312 
L 264.800665 273.312 
L 264.800665 273.312 
L 260.228066 273.312 
z
" style="fill:#ff7f0e;"/>
   </g>
   <g id="patch_69">
    <path clip-path="url(#pe1ef5aa800)" d="M 265.943815 273.312 
L 270.516414 273.312 
L 270.516414 273.312 
L 265.943815 273.312 
z
" style="fill:#ff7f0e;"/>
   </g>
   <g id="patch_70">
    <path clip-path="url(#pe1ef5aa800)" d="M 271.659564 273.312 
L 276.232163 273.312 
L 276.232163 266.070857 
L 271.659564 266.070857 
z
" style="fill:#ff7f0e;"/>
   </g>
   <g id="patch_71">
    <path clip-path="url(#pe1ef5aa800)" d="M 277.375313 273.312 
L 281.947912 273.312 
L 281.947912 237.106286 
L 277.375313 237.106286 
z
" style="fill:#ff7f0e;"/>
   </g>
   <g id="patch_72">
    <path clip-path="url(#pe1ef5aa800)" d="M 283.091062 273.312 
L 287.663661 273.312 
L 287.663661 273.312 
L 283.091062 273.312 
z
" style="fill:#ff7f0e;"/>
   </g>
   <g id="patch_73">
    <path clip-path="url(#pe1ef5aa800)" d="M 288.806811 273.312 
L 293.37941 273.312 
L 293.37941 273.312 
L 288.806811 273.312 
z
" style="fill:#ff7f0e;"/>
   </g>
   <g id="patch_74">
    <path clip-path="url(#pe1ef5aa800)" d="M 294.52256 273.312 
L 299.095159 273.312 
L 299.095159 266.070857 
L 294.52256 266.070857 
z
" style="fill:#ff7f0e;"/>
   </g>
   <g id="patch_75">
    <path clip-path="url(#pe1ef5aa800)" d="M 300.238309 273.312 
L 304.810908 273.312 
L 304.810908 273.312 
L 300.238309 273.312 
z
" style="fill:#ff7f0e;"/>
   </g>
   <g id="patch_76">
    <path clip-path="url(#pe1ef5aa800)" d="M 305.954058 273.312 
L 310.526657 273.312 
L 310.526657 273.312 
L 305.954058 273.312 
z
" style="fill:#ff7f0e;"/>
   </g>
   <g id="patch_77">
    <path clip-path="url(#pe1ef5aa800)" d="M 311.669807 273.312 
L 316.242406 273.312 
L 316.242406 273.312 
L 311.669807 273.312 
z
" style="fill:#ff7f0e;"/>
   </g>
   <g id="patch_78">
    <path clip-path="url(#pe1ef5aa800)" d="M 317.385556 273.312 
L 321.958155 273.312 
L 321.958155 266.070857 
L 317.385556 266.070857 
z
" style="fill:#ff7f0e;"/>
   </g>
   <g id="patch_79">
    <path clip-path="url(#pe1ef5aa800)" d="M 323.101305 273.312 
L 327.673904 273.312 
L 327.673904 273.312 
L 323.101305 273.312 
z
" style="fill:#ff7f0e;"/>
   </g>
   <g id="patch_80">
    <path clip-path="url(#pe1ef5aa800)" d="M 328.817054 273.312 
L 333.389653 273.312 
L 333.389653 273.312 
L 328.817054 273.312 
z
" style="fill:#ff7f0e;"/>
   </g>
   <g id="patch_81">
    <path clip-path="url(#pe1ef5aa800)" d="M 334.532803 273.312 
L 339.105403 273.312 
L 339.105403 273.312 
L 334.532803 273.312 
z
" style="fill:#ff7f0e;"/>
   </g>
   <g id="patch_82">
    <path clip-path="url(#pe1ef5aa800)" d="M 340.248552 273.312 
L 344.821152 273.312 
L 344.821152 273.312 
L 340.248552 273.312 
z
" style="fill:#ff7f0e;"/>
   </g>
   <g id="patch_83">
    <path clip-path="url(#pe1ef5aa800)" d="M 345.964301 273.312 
L 350.536901 273.312 
L 350.536901 273.312 
L 345.964301 273.312 
z
" style="fill:#ff7f0e;"/>
   </g>
   <g id="patch_84">
    <path clip-path="url(#pe1ef5aa800)" d="M 351.68005 273.312 
L 356.25265 273.312 
L 356.25265 273.312 
L 351.68005 273.312 
z
" style="fill:#ff7f0e;"/>
   </g>
   <g id="patch_85">
    <path clip-path="url(#pe1ef5aa800)" d="M 357.395799 273.312 
L 361.968399 273.312 
L 361.968399 273.312 
L 357.395799 273.312 
z
" style="fill:#ff7f0e;"/>
   </g>
   <g id="patch_86">
    <path clip-path="url(#pe1ef5aa800)" d="M 363.111548 273.312 
L 367.684148 273.312 
L 367.684148 273.312 
L 363.111548 273.312 
z
" style="fill:#ff7f0e;"/>
   </g>
   <g id="matplotlib.axis_1">
    <g id="xtick_1">
     <g id="line2d_1">
      <defs>
       <path d="M 0 0 
L 0 3.5 
" id="m345f670d5d" style="stroke:#000000;stroke-width:0.8;"/>
      </defs>
      <g>
       <use style="stroke:#000000;stroke-width:0.8;" x="56.7474" xlink:href="#m345f670d5d" y="273.312"/>
      </g>
     </g>
     <g id="text_1">
      <!-- Feb -->
      <defs>
       <path d="M 54.203125 64.703125 
L 18.3125 64.703125 
L 18.3125 41.5 
L 50.09375 41.5 
L 50.09375 34.1875 
L 18.3125 34.1875 
L 18.3125 0.984375 
L 9.515625 0.984375 
L 9.515625 72.40625 
L 54.203125 72.40625 
z
" id="IPAexGothic-70"/>
       <path d="M 13.484375 24.90625 
Q 13.921875 16.265625 18.890625 11.28125 
Q 23.96875 6.203125 31.203125 6.203125 
Q 40.71875 6.203125 46.296875 15.09375 
L 51.90625 11.375 
Q 44.828125 -0.484375 30.171875 -0.484375 
Q 19.09375 -0.484375 11.96875 6.59375 
Q 4.78125 13.8125 4.78125 25.640625 
Q 4.78125 38.1875 12.3125 45.703125 
Q 19 52.390625 29 52.390625 
Q 38.421875 52.390625 44.78125 46.1875 
Q 51.90625 38.96875 51.90625 26.90625 
L 51.90625 24.90625 
z
M 43.0625 31.203125 
Q 42.328125 37.984375 38.28125 41.890625 
Q 34.28125 45.90625 28.8125 45.90625 
Q 22.46875 45.90625 17.96875 40.484375 
Q 14.890625 36.8125 13.96875 31.203125 
z
" id="IPAexGothic-101"/>
       <path d="M 17.578125 42.671875 
Q 24.21875 52.203125 34.671875 52.203125 
Q 43.5625 52.203125 49.859375 45.90625 
Q 57.171875 38.578125 57.171875 25.6875 
Q 57.171875 13.09375 49.859375 5.8125 
Q 43.5625 -0.484375 34.46875 -0.484375 
Q 24.359375 -0.484375 17 8.0625 
L 15.765625 0.6875 
L 9.078125 0.6875 
L 9.078125 74.90625 
L 17.578125 74.90625 
z
M 17.578125 31.203125 
L 17.578125 19.578125 
Q 17.578125 13.875 23.875 9.375 
Q 28.171875 6.296875 33.109375 6.296875 
Q 38.875 6.296875 42.875 10.296875 
Q 48.1875 15.765625 48.1875 25.484375 
Q 48.1875 34.28125 43.796875 39.890625 
Q 39.453125 45.3125 33.203125 45.3125 
Q 27.484375 45.3125 22.46875 40.28125 
Q 17.578125 35.40625 17.578125 31.203125 
z
" id="IPAexGothic-98"/>
      </defs>
      <g transform="translate(47.923962 287.802625)scale(0.1 -0.1)">
       <use xlink:href="#IPAexGothic-70"/>
       <use x="57.177734" xlink:href="#IPAexGothic-101"/>
       <use x="114.0625" xlink:href="#IPAexGothic-98"/>
      </g>
     </g>
    </g>
    <g id="xtick_2">
     <g id="line2d_2">
      <g>
       <use style="stroke:#000000;stroke-width:0.8;" x="96.757643" xlink:href="#m345f670d5d" y="273.312"/>
      </g>
     </g>
     <g id="text_2">
      <!-- 08 -->
      <defs>
       <path d="M 31.84375 73.828125 
Q 45.015625 73.828125 52.09375 61.625 
Q 57.71875 51.953125 57.71875 36.625 
Q 57.71875 21.4375 52.09375 11.578125 
Q 45.125 -0.484375 31.5 -0.484375 
Q 17.921875 -0.484375 10.9375 11.578125 
Q 5.328125 21.4375 5.328125 36.71875 
Q 5.328125 58.015625 15.625 67.71875 
Q 22.171875 73.828125 31.84375 73.828125 
z
M 31.5 66.65625 
Q 23.6875 66.65625 19.1875 58.734375 
Q 14.59375 50.734375 14.59375 36.625 
Q 14.59375 22.75 19.09375 14.796875 
Q 23.640625 6.984375 31.5 6.984375 
Q 40.921875 6.984375 45.453125 18.015625 
Q 48.4375 25.34375 48.4375 37.109375 
Q 48.4375 50.875 43.84375 58.734375 
Q 39.203125 66.65625 31.5 66.65625 
z
" id="IPAexGothic-48"/>
       <path d="M 39.703125 37.890625 
Q 57.8125 31.734375 57.8125 18.703125 
Q 57.8125 8.453125 48.4375 3.078125 
Q 41.609375 -0.875 31.5 -0.875 
Q 21.34375 -0.875 14.5 3.078125 
Q 5.421875 8.296875 5.421875 18.40625 
Q 5.421875 31.0625 22.015625 37.203125 
L 22.015625 37.5 
Q 7.515625 42.71875 7.515625 54.828125 
Q 7.515625 64.0625 15.328125 69.625 
Q 21.96875 74.3125 31.546875 74.3125 
Q 42.234375 74.3125 48.921875 68.796875 
Q 55.515625 63.578125 55.515625 55.71875 
Q 55.515625 42.28125 39.703125 38.1875 
z
M 31.59375 41.015625 
Q 46.828125 44.625 46.828125 55.125 
Q 46.828125 61.1875 41.796875 64.84375 
Q 37.703125 67.921875 31.5 67.921875 
Q 25.09375 67.921875 20.796875 64.5 
Q 16.40625 60.890625 16.40625 55.03125 
Q 16.40625 49.21875 21.09375 45.703125 
Q 23.34375 43.890625 26.90625 42.53125 
Q 31 40.875 31.59375 41.015625 
z
M 30.90625 34.515625 
Q 14.40625 30.171875 14.40625 19 
Q 14.40625 12.109375 20.515625 8.6875 
Q 25.09375 6.109375 31.390625 6.109375 
Q 40.234375 6.109375 45.015625 10.890625 
Q 48.53125 14.40625 48.53125 19.53125 
Q 48.53125 24.90625 43.65625 28.90625 
Q 40.765625 31.15625 36.71875 32.8125 
Q 31.984375 34.71875 30.90625 34.515625 
z
" id="IPAexGothic-56"/>
      </defs>
      <g transform="translate(90.459206 287.802625)scale(0.1 -0.1)">
       <use xlink:href="#IPAexGothic-48"/>
       <use x="62.988281" xlink:href="#IPAexGothic-56"/>
      </g>
     </g>
    </g>
    <g id="xtick_3">
     <g id="line2d_3">
      <g>
       <use style="stroke:#000000;stroke-width:0.8;" x="136.767887" xlink:href="#m345f670d5d" y="273.312"/>
      </g>
     </g>
     <g id="text_3">
      <!-- 15 -->
      <defs>
       <path d="M 38.484375 0.984375 
L 29.6875 0.984375 
L 29.6875 64.109375 
Q 21.4375 61.28125 12.3125 59.328125 
L 10.6875 66.109375 
Q 23.734375 69.390625 32.90625 73.921875 
L 38.484375 73.921875 
z
" id="IPAexGothic-49"/>
       <path d="M 18.40625 40.671875 
Q 25.53125 46.296875 33.9375 46.296875 
Q 44 46.296875 50.640625 39.5 
Q 56.84375 33.015625 56.84375 23.390625 
Q 56.84375 14.65625 51.515625 8.015625 
Q 44.828125 -0.484375 31.734375 -0.484375 
Q 14.984375 -0.484375 7.328125 12.25 
L 14.65625 16.0625 
Q 20.453125 6.78125 31.453125 6.78125 
Q 38.53125 6.78125 43.265625 11.1875 
Q 48.140625 15.828125 48.140625 23.484375 
Q 48.140625 30.71875 43.84375 35.015625 
Q 39.359375 39.5 32.125 39.5 
Q 21.96875 39.5 16.75 31.6875 
L 9.234375 32.671875 
L 13.8125 72.40625 
L 53.21875 72.40625 
L 53.21875 64.890625 
L 20.953125 64.890625 
L 17.71875 40.671875 
z
" id="IPAexGothic-53"/>
      </defs>
      <g transform="translate(130.469449 287.802625)scale(0.1 -0.1)">
       <use xlink:href="#IPAexGothic-49"/>
       <use x="62.988281" xlink:href="#IPAexGothic-53"/>
      </g>
     </g>
    </g>
    <g id="xtick_4">
     <g id="line2d_4">
      <g>
       <use style="stroke:#000000;stroke-width:0.8;" x="176.77813" xlink:href="#m345f670d5d" y="273.312"/>
      </g>
     </g>
     <g id="text_4">
      <!-- 22 -->
      <defs>
       <path d="M 57.171875 0.984375 
L 6.984375 0.984375 
L 6.984375 9.28125 
Q 12.890625 23.046875 29.59375 34.421875 
L 32.375 36.28125 
Q 40.921875 42.140625 43.609375 45.40625 
Q 46.6875 49.265625 46.6875 53.8125 
Q 46.6875 58.9375 43.0625 62.546875 
Q 39.0625 66.546875 32.5625 66.546875 
Q 19.53125 66.546875 15.484375 52 
L 7.765625 54.78125 
Q 13.328125 73.828125 33.0625 73.828125 
Q 43.84375 73.828125 50.25 67.4375 
Q 55.859375 61.671875 55.859375 53.515625 
Q 55.859375 47.46875 52.25 42.53125 
Q 48.921875 37.75 36.96875 30.28125 
L 34.859375 29 
Q 19.625 19.578125 15.28125 8.890625 
L 57.171875 8.890625 
z
" id="IPAexGothic-50"/>
      </defs>
      <g transform="translate(170.479692 287.802625)scale(0.1 -0.1)">
       <use xlink:href="#IPAexGothic-50"/>
       <use x="62.988281" xlink:href="#IPAexGothic-50"/>
      </g>
     </g>
    </g>
    <g id="xtick_5">
     <g id="line2d_5">
      <g>
       <use style="stroke:#000000;stroke-width:0.8;" x="222.504122" xlink:href="#m345f670d5d" y="273.312"/>
      </g>
     </g>
     <g id="text_5">
      <!-- Mar -->
      <defs>
       <path d="M 80.421875 0.984375 
L 71.828125 0.984375 
L 71.828125 39.59375 
Q 71.828125 51.265625 72.40625 64.59375 
L 72.015625 64.59375 
Q 68.0625 53.265625 63.53125 41.796875 
L 47.90625 3.265625 
L 41.40625 3.265625 
L 25.640625 42.578125 
Q 20.75 54.78125 17.625 64.703125 
L 17.234375 64.703125 
Q 17.828125 48.921875 17.828125 39.890625 
L 17.828125 0.984375 
L 9.515625 0.984375 
L 9.515625 72.40625 
L 22.125 72.40625 
L 39.109375 30.375 
Q 42.140625 23 44.828125 14.15625 
L 45.125 14.15625 
Q 47.3125 22.125 50.53125 30.171875 
L 67.4375 72.40625 
L 80.421875 72.40625 
z
" id="IPAexGothic-77"/>
       <path d="M 49.3125 0.984375 
L 41.75 0.984375 
Q 39.984375 4.734375 39.546875 8.6875 
L 39.203125 8.6875 
Q 33.546875 -0.390625 22.3125 -0.390625 
Q 14.59375 -0.390625 9.71875 4.5 
Q 5.421875 8.796875 5.421875 14.984375 
Q 5.421875 30.421875 32.03125 31.203125 
L 38.71875 31.390625 
L 38.71875 33.984375 
Q 38.71875 39.203125 35.75 42.1875 
Q 32.625 45.3125 27.734375 45.3125 
Q 19.34375 45.3125 15.140625 37.15625 
L 7.71875 40.578125 
Q 14.65625 52 27.9375 52 
Q 37.109375 52 42.046875 46.875 
Q 46.625 42.28125 46.625 33.890625 
L 46.625 15.578125 
Q 46.625 6.25 49.3125 0.984375 
z
M 38.921875 25.390625 
L 33.453125 25.296875 
Q 14.109375 24.859375 14.109375 14.890625 
Q 14.109375 11.375 16.40625 9.078125 
Q 19.234375 6.296875 23.828125 6.296875 
Q 30.21875 6.296875 34.90625 10.984375 
Q 38.921875 15.140625 38.921875 21 
z
" id="IPAexGothic-97"/>
       <path d="M 36.078125 51.8125 
L 34.578125 43.265625 
Q 32.90625 43.609375 31.59375 43.609375 
Q 25.828125 43.609375 22.078125 38.1875 
Q 17.390625 31.34375 17.390625 26.171875 
L 17.390625 0.984375 
L 8.796875 0.984375 
L 8.796875 50.78125 
L 16.890625 50.78125 
L 16.5 35.984375 
L 16.703125 35.984375 
Q 22.21875 52.203125 32.765625 52.203125 
Q 34.46875 52.203125 36.078125 51.8125 
z
" id="IPAexGothic-114"/>
      </defs>
      <g transform="translate(213.394747 287.802625)scale(0.1 -0.1)">
       <use xlink:href="#IPAexGothic-77"/>
       <use x="90.185547" xlink:href="#IPAexGothic-97"/>
       <use x="145.166016" xlink:href="#IPAexGothic-114"/>
      </g>
     </g>
    </g>
    <g id="xtick_6">
     <g id="line2d_6">
      <g>
       <use style="stroke:#000000;stroke-width:0.8;" x="262.514365" xlink:href="#m345f670d5d" y="273.312"/>
      </g>
     </g>
     <g id="text_6">
      <!-- 08 -->
      <g transform="translate(256.215928 287.802625)scale(0.1 -0.1)">
       <use xlink:href="#IPAexGothic-48"/>
       <use x="62.988281" xlink:href="#IPAexGothic-56"/>
      </g>
     </g>
    </g>
    <g id="xtick_7">
     <g id="line2d_7">
      <g>
       <use style="stroke:#000000;stroke-width:0.8;" x="302.524609" xlink:href="#m345f670d5d" y="273.312"/>
      </g>
     </g>
     <g id="text_7">
      <!-- 15 -->
      <g transform="translate(296.226171 287.802625)scale(0.1 -0.1)">
       <use xlink:href="#IPAexGothic-49"/>
       <use x="62.988281" xlink:href="#IPAexGothic-53"/>
      </g>
     </g>
    </g>
    <g id="xtick_8">
     <g id="line2d_8">
      <g>
       <use style="stroke:#000000;stroke-width:0.8;" x="342.534852" xlink:href="#m345f670d5d" y="273.312"/>
      </g>
     </g>
     <g id="text_8">
      <!-- 22 -->
      <g transform="translate(336.236414 287.802625)scale(0.1 -0.1)">
       <use xlink:href="#IPAexGothic-50"/>
       <use x="62.988281" xlink:href="#IPAexGothic-50"/>
      </g>
     </g>
    </g>
    <g id="text_9">
     <!-- 2020-Mar -->
     <defs>
      <path d="M 30.765625 26.609375 
L 4.984375 26.609375 
L 4.984375 34.421875 
L 30.765625 34.421875 
z
" id="IPAexGothic-45"/>
     </defs>
     <g transform="translate(336.924688 300.19325)scale(0.1 -0.1)">
      <use xlink:href="#IPAexGothic-50"/>
      <use x="62.988281" xlink:href="#IPAexGothic-48"/>
      <use x="125.976562" xlink:href="#IPAexGothic-50"/>
      <use x="188.964844" xlink:href="#IPAexGothic-48"/>
      <use x="251.953125" xlink:href="#IPAexGothic-45"/>
      <use x="287.744141" xlink:href="#IPAexGothic-77"/>
      <use x="377.929688" xlink:href="#IPAexGothic-97"/>
      <use x="432.910156" xlink:href="#IPAexGothic-114"/>
     </g>
    </g>
   </g>
   <g id="matplotlib.axis_2">
    <g id="ytick_1">
     <g id="line2d_9">
      <defs>
       <path d="M 0 0 
L -3.5 0 
" id="m924d899c3c" style="stroke:#000000;stroke-width:0.8;"/>
      </defs>
      <g>
       <use style="stroke:#000000;stroke-width:0.8;" x="26.796875" xlink:href="#m924d899c3c" y="273.312"/>
      </g>
     </g>
     <g id="text_10">
      <!-- 0 -->
      <g transform="translate(13.498438 277.057312)scale(0.1 -0.1)">
       <use xlink:href="#IPAexGothic-48"/>
      </g>
     </g>
    </g>
    <g id="ytick_2">
     <g id="line2d_10">
      <g>
       <use style="stroke:#000000;stroke-width:0.8;" x="26.796875" xlink:href="#m924d899c3c" y="237.106286"/>
      </g>
     </g>
     <g id="text_11">
      <!-- 5 -->
      <g transform="translate(13.498438 240.851598)scale(0.1 -0.1)">
       <use xlink:href="#IPAexGothic-53"/>
      </g>
     </g>
    </g>
    <g id="ytick_3">
     <g id="line2d_11">
      <g>
       <use style="stroke:#000000;stroke-width:0.8;" x="26.796875" xlink:href="#m924d899c3c" y="200.900571"/>
      </g>
     </g>
     <g id="text_12">
      <!-- 10 -->
      <g transform="translate(7.2 204.645884)scale(0.1 -0.1)">
       <use xlink:href="#IPAexGothic-49"/>
       <use x="62.988281" xlink:href="#IPAexGothic-48"/>
      </g>
     </g>
    </g>
    <g id="ytick_4">
     <g id="line2d_12">
      <g>
       <use style="stroke:#000000;stroke-width:0.8;" x="26.796875" xlink:href="#m924d899c3c" y="164.694857"/>
      </g>
     </g>
     <g id="text_13">
      <!-- 15 -->
      <g transform="translate(7.2 168.44017)scale(0.1 -0.1)">
       <use xlink:href="#IPAexGothic-49"/>
       <use x="62.988281" xlink:href="#IPAexGothic-53"/>
      </g>
     </g>
    </g>
    <g id="ytick_5">
     <g id="line2d_13">
      <g>
       <use style="stroke:#000000;stroke-width:0.8;" x="26.796875" xlink:href="#m924d899c3c" y="128.489143"/>
      </g>
     </g>
     <g id="text_14">
      <!-- 20 -->
      <g transform="translate(7.2 132.234455)scale(0.1 -0.1)">
       <use xlink:href="#IPAexGothic-50"/>
       <use x="62.988281" xlink:href="#IPAexGothic-48"/>
      </g>
     </g>
    </g>
    <g id="ytick_6">
     <g id="line2d_14">
      <g>
       <use style="stroke:#000000;stroke-width:0.8;" x="26.796875" xlink:href="#m924d899c3c" y="92.283429"/>
      </g>
     </g>
     <g id="text_15">
      <!-- 25 -->
      <g transform="translate(7.2 96.028741)scale(0.1 -0.1)">
       <use xlink:href="#IPAexGothic-50"/>
       <use x="62.988281" xlink:href="#IPAexGothic-53"/>
      </g>
     </g>
    </g>
    <g id="ytick_7">
     <g id="line2d_15">
      <g>
       <use style="stroke:#000000;stroke-width:0.8;" x="26.796875" xlink:href="#m924d899c3c" y="56.077714"/>
      </g>
     </g>
     <g id="text_16">
      <!-- 30 -->
      <defs>
       <path d="M 37.203125 37.796875 
Q 54.78125 34.625 54.78125 19.96875 
Q 54.78125 11.1875 48.875 5.5625 
Q 42.328125 -0.484375 30.375 -0.484375 
Q 12.453125 -0.484375 4.5 13.765625 
L 11.8125 17.671875 
Q 17.328125 6.890625 30.28125 6.890625 
Q 37.890625 6.890625 42.09375 10.796875 
Q 46.09375 14.5 46.09375 20.171875 
Q 46.09375 26.859375 40.09375 30.90625 
Q 34.625 34.578125 25.6875 34.578125 
L 21.296875 34.578125 
L 21.296875 41.703125 
L 25.875 41.703125 
Q 34.859375 41.703125 39.59375 45.125 
Q 44.671875 48.734375 44.671875 54.828125 
Q 44.671875 61.46875 38.96875 64.65625 
Q 35.296875 66.84375 30.171875 66.84375 
Q 19.34375 66.84375 14.109375 55.90625 
L 6.78125 59.421875 
Q 14.015625 73.828125 30.28125 73.828125 
Q 40.578125 73.828125 46.96875 68.65625 
Q 53.375 63.578125 53.375 55.21875 
Q 53.375 47.3125 47.171875 42.28125 
Q 43.171875 39.0625 37.203125 38.1875 
z
" id="IPAexGothic-51"/>
      </defs>
      <g transform="translate(7.2 59.823027)scale(0.1 -0.1)">
       <use xlink:href="#IPAexGothic-51"/>
       <use x="62.988281" xlink:href="#IPAexGothic-48"/>
      </g>
     </g>
    </g>
    <g id="ytick_8">
     <g id="line2d_16">
      <g>
       <use style="stroke:#000000;stroke-width:0.8;" x="26.796875" xlink:href="#m924d899c3c" y="19.872"/>
      </g>
     </g>
     <g id="text_17">
      <!-- 35 -->
      <g transform="translate(7.2 23.617312)scale(0.1 -0.1)">
       <use xlink:href="#IPAexGothic-51"/>
       <use x="62.988281" xlink:href="#IPAexGothic-53"/>
      </g>
     </g>
    </g>
   </g>
   <g id="patch_87">
    <path d="M 26.796875 273.312 
L 26.796875 7.2 
" style="fill:none;stroke:#000000;stroke-linecap:square;stroke-linejoin:miter;stroke-width:0.8;"/>
   </g>
   <g id="patch_88">
    <path d="M 383.916875 273.312 
L 383.916875 7.2 
" style="fill:none;stroke:#000000;stroke-linecap:square;stroke-linejoin:miter;stroke-width:0.8;"/>
   </g>
   <g id="patch_89">
    <path d="M 26.796875 273.312 
L 383.916875 273.312 
" style="fill:none;stroke:#000000;stroke-linecap:square;stroke-linejoin:miter;stroke-width:0.8;"/>
   </g>
   <g id="patch_90">
    <path d="M 26.796875 7.2 
L 383.916875 7.2 
" style="fill:none;stroke:#000000;stroke-linecap:square;stroke-linejoin:miter;stroke-width:0.8;"/>
   </g>
   <g id="legend_1">
    <g id="patch_91">
     <path d="M 303.87 44.039062 
L 376.916875 44.039062 
Q 378.916875 44.039062 378.916875 42.039062 
L 378.916875 14.2 
Q 378.916875 12.2 376.916875 12.2 
L 303.87 12.2 
Q 301.87 12.2 301.87 14.2 
L 301.87 42.039062 
Q 301.87 44.039062 303.87 44.039062 
z
" style="fill:#ffffff;opacity:0.8;stroke:#cccccc;stroke-linejoin:miter;"/>
    </g>
    <g id="patch_92">
     <path d="M 305.87 23.690625 
L 325.87 23.690625 
L 325.87 16.690625 
L 305.87 16.690625 
z
" style="fill:#1f77b4;"/>
    </g>
    <g id="text_18">
     <!-- Negative -->
     <defs>
      <path d="M 66.3125 0.984375 
L 58.296875 0.984375 
L 26.515625 49.21875 
Q 22.90625 54.6875 17.828125 64.015625 
L 17.4375 64.015625 
L 17.625 59.328125 
Q 18.109375 43.796875 18.109375 38.578125 
L 18.109375 0.984375 
L 9.515625 0.984375 
L 9.515625 72.40625 
L 21.34375 72.40625 
L 48.640625 30.90625 
Q 53.953125 22.609375 58.015625 15.09375 
L 58.40625 15.09375 
Q 57.71875 29.640625 57.71875 38.578125 
L 57.71875 72.40625 
L 66.3125 72.40625 
z
" id="IPAexGothic-78"/>
      <path d="M 20.796875 17.96875 
Q 15.71875 17.53125 15.71875 14.0625 
Q 15.71875 9.578125 27.546875 8.984375 
L 33.296875 8.6875 
Q 51.609375 7.765625 51.609375 -4.59375 
Q 51.609375 -10.9375 45.703125 -14.984375 
Q 39.359375 -19.578125 28.03125 -19.578125 
Q 17.78125 -19.578125 11.53125 -16.0625 
Q 5.515625 -12.640625 5.515625 -6.6875 
Q 5.515625 1.3125 16.796875 3.859375 
L 16.796875 4.203125 
Q 7.90625 6.453125 7.90625 12.15625 
Q 7.90625 17.4375 15.53125 20.265625 
Q 7.125 24.609375 7.125 34.078125 
Q 7.125 41.40625 12.015625 46.296875 
Q 17.625 51.90625 27.15625 51.90625 
Q 33.203125 51.90625 37.84375 49.265625 
Q 41.40625 53.953125 50.921875 54.109375 
L 50.921875 47.078125 
Q 44.34375 46.921875 42.234375 45.90625 
Q 47.40625 40.828125 47.40625 33.890625 
Q 47.40625 27 42.71875 22.265625 
Q 37.5 17.09375 28.328125 17.09375 
Q 24.421875 17.09375 20.796875 17.96875 
z
M 27.09375 45.609375 
Q 22.015625 45.609375 18.703125 42.28125 
Q 15.4375 39.015625 15.4375 34.078125 
Q 15.4375 29.25 18.5 26.3125 
Q 21.828125 23 27.4375 23 
Q 32.71875 23 35.890625 26.21875 
Q 39.109375 29.390625 39.109375 34.421875 
Q 39.109375 39.015625 35.890625 42.1875 
Q 32.515625 45.609375 27.09375 45.609375 
z
M 27.390625 2.484375 
Q 14.109375 2.484375 14.109375 -5.71875 
Q 14.109375 -13.671875 28.125 -13.671875 
Q 37.15625 -13.671875 41.21875 -9.46875 
Q 43.3125 -7.515625 43.3125 -4.890625 
Q 43.3125 2.484375 27.390625 2.484375 
z
" id="IPAexGothic-103"/>
      <path d="M 33.203125 3.765625 
Q 27.640625 -0.09375 21.828125 -0.09375 
Q 10.203125 -0.09375 10.203125 12.984375 
L 10.203125 44.671875 
L 3.421875 44.671875 
L 3.421875 50.78125 
L 10.203125 50.78125 
L 10.203125 61.96875 
L 18.40625 66.0625 
L 18.40625 50.78125 
L 32.234375 50.78125 
L 32.234375 44.671875 
L 18.40625 44.671875 
L 18.40625 14.15625 
Q 18.40625 6.5 23.640625 6.5 
Q 27.15625 6.5 30.328125 9.1875 
z
" id="IPAexGothic-116"/>
      <path d="M 18.40625 61.375 
L 8.59375 61.375 
L 8.59375 71.390625 
L 18.40625 71.390625 
z
M 17.78125 0.984375 
L 9.1875 0.984375 
L 9.1875 50.78125 
L 17.78125 50.78125 
z
" id="IPAexGothic-105"/>
      <path d="M 48.484375 50.78125 
L 27.296875 0.09375 
L 21.484375 0.09375 
L 0.390625 50.78125 
L 9.8125 50.78125 
L 20.90625 21.6875 
L 23.78125 13.1875 
L 24.515625 10.984375 
L 24.8125 10.984375 
Q 25.640625 13.8125 28.46875 21.6875 
L 39.3125 50.78125 
z
" id="IPAexGothic-118"/>
     </defs>
     <g transform="translate(333.87 23.690625)scale(0.1 -0.1)">
      <use xlink:href="#IPAexGothic-78"/>
      <use x="75.976562" xlink:href="#IPAexGothic-101"/>
      <use x="132.861328" xlink:href="#IPAexGothic-103"/>
      <use x="188.378906" xlink:href="#IPAexGothic-97"/>
      <use x="243.359375" xlink:href="#IPAexGothic-116"/>
      <use x="277.978516" xlink:href="#IPAexGothic-105"/>
      <use x="304.980469" xlink:href="#IPAexGothic-118"/>
      <use x="353.564453" xlink:href="#IPAexGothic-101"/>
     </g>
    </g>
    <g id="patch_93">
     <path d="M 305.87 38.139062 
L 325.87 38.139062 
L 325.87 31.139062 
L 305.87 31.139062 
z
" style="fill:#ff7f0e;"/>
    </g>
    <g id="text_19">
     <!-- Positive -->
     <defs>
      <path d="M 9.515625 72.40625 
L 30.328125 72.40625 
Q 57.625 72.40625 57.625 51.90625 
Q 57.625 30.21875 29.78125 30.21875 
L 18.3125 30.21875 
L 18.3125 0.984375 
L 9.515625 0.984375 
z
M 18.3125 37.203125 
L 28.125 37.203125 
Q 48.4375 37.203125 48.4375 51.8125 
Q 48.4375 65.328125 29.59375 65.328125 
L 18.3125 65.328125 
z
" id="IPAexGothic-80"/>
      <path d="M 29.984375 52.203125 
Q 40.53125 52.203125 47.75 45.125 
Q 55.171875 37.703125 55.171875 25.59375 
Q 55.171875 13.875 47.90625 6.59375 
Q 40.765625 -0.484375 29.984375 -0.484375 
Q 19.1875 -0.484375 12.203125 6.5 
Q 4.890625 13.765625 4.890625 25.875 
Q 4.890625 37.703125 12.3125 45.125 
Q 19.390625 52.203125 29.984375 52.203125 
z
M 29.984375 45.609375 
Q 23.734375 45.609375 19.390625 41.109375 
Q 13.875 35.59375 13.875 25.78125 
Q 13.875 16.109375 19.28125 10.6875 
Q 23.6875 6.296875 29.984375 6.296875 
Q 36.421875 6.296875 40.765625 10.796875 
Q 46.1875 16.21875 46.1875 26.125 
Q 46.1875 35.453125 40.671875 41.109375 
Q 36.1875 45.609375 29.984375 45.609375 
z
" id="IPAexGothic-111"/>
      <path d="M 34.90625 39.796875 
Q 30.28125 45.796875 23.1875 45.796875 
Q 13.921875 45.796875 13.921875 38.671875 
Q 13.921875 33.640625 23.921875 30.375 
L 27.203125 29.296875 
Q 41.40625 24.65625 41.40625 13.96875 
Q 41.40625 6.78125 35.5 2.6875 
Q 30.8125 -0.484375 23.390625 -0.484375 
Q 11.96875 -0.484375 4 7.859375 
L 9.421875 12.796875 
Q 15.578125 6.203125 23.6875 6.203125 
Q 33.296875 6.203125 33.296875 13.671875 
Q 33.296875 19.34375 22.703125 23.09375 
L 19.28125 24.265625 
Q 5.90625 28.953125 5.90625 37.984375 
Q 5.90625 43.703125 9.8125 47.609375 
Q 14.5 52.296875 22.703125 52.296875 
Q 33.6875 52.296875 40.71875 44.671875 
z
" id="IPAexGothic-115"/>
     </defs>
     <g transform="translate(333.87 38.139062)scale(0.1 -0.1)">
      <use xlink:href="#IPAexGothic-80"/>
      <use x="62.109375" xlink:href="#IPAexGothic-111"/>
      <use x="122.509766" xlink:href="#IPAexGothic-115"/>
      <use x="168.701172" xlink:href="#IPAexGothic-105"/>
      <use x="195.703125" xlink:href="#IPAexGothic-116"/>
      <use x="230.322266" xlink:href="#IPAexGothic-105"/>
      <use x="257.324219" xlink:href="#IPAexGothic-118"/>
      <use x="305.908203" xlink:href="#IPAexGothic-101"/>
     </g>
    </g>
   </g>
  </g>
 </g>
 <defs>
  <clipPath id="pe1ef5aa800">
   <rect height="266.112" width="357.12" x="26.796875" y="7.2"/>
  </clipPath>
 </defs>
</svg>
