<?xml version="1.0" encoding="utf-8" standalone="no"?>
<!DOCTYPE svg PUBLIC "-//W3C//DTD SVG 1.1//EN"
  "http://www.w3.org/Graphics/SVG/1.1/DTD/svg11.dtd">
<!-- Created with matplotlib (https://matplotlib.org/) -->
<svg height="320.239875pt" version="1.1" viewBox="0 0 397.415312 320.239875" width="397.415312pt" xmlns="http://www.w3.org/2000/svg" xmlns:xlink="http://www.w3.org/1999/xlink">
 <defs>
  <style type="text/css">
*{stroke-linecap:butt;stroke-linejoin:round;}
  </style>
 </defs>
 <g id="figure_1">
  <g id="patch_1">
   <path d="M 0 320.239875 
L 397.415312 320.239875 
L 397.415312 0 
L 0 0 
z
" style="fill:#ffffff;"/>
  </g>
  <g id="axes_1">
   <g id="patch_2">
    <path d="M 33.095313 284.258625 
L 390.215312 284.258625 
L 390.215312 18.146625 
L 33.095313 18.146625 
z
" style="fill:#ffffff;"/>
   </g>
   <g id="patch_3">
    <path clip-path="url(#pd4281fe68a)" d="M 49.32804 284.258625 
L 51.422585 284.258625 
L 51.422585 283.028334 
L 49.32804 283.028334 
z
" style="fill:#ff7f0e;stroke:#000000;stroke-linejoin:miter;"/>
   </g>
   <g id="patch_4">
    <path clip-path="url(#pd4281fe68a)" d="M 51.422585 284.258625 
L 53.517131 284.258625 
L 53.517131 283.028334 
L 51.422585 283.028334 
z
" style="fill:#ff7f0e;stroke:#000000;stroke-linejoin:miter;"/>
   </g>
   <g id="patch_5">
    <path clip-path="url(#pd4281fe68a)" d="M 53.517131 284.258625 
L 55.611676 284.258625 
L 55.611676 284.258625 
L 53.517131 284.258625 
z
" style="fill:#ff7f0e;stroke:#000000;stroke-linejoin:miter;"/>
   </g>
   <g id="patch_6">
    <path clip-path="url(#pd4281fe68a)" d="M 55.611676 284.258625 
L 57.706222 284.258625 
L 57.706222 284.258625 
L 55.611676 284.258625 
z
" style="fill:#ff7f0e;stroke:#000000;stroke-linejoin:miter;"/>
   </g>
   <g id="patch_7">
    <path clip-path="url(#pd4281fe68a)" d="M 57.706222 284.258625 
L 59.800767 284.258625 
L 59.800767 284.258625 
L 57.706222 284.258625 
z
" style="fill:#ff7f0e;stroke:#000000;stroke-linejoin:miter;"/>
   </g>
   <g id="patch_8">
    <path clip-path="url(#pd4281fe68a)" d="M 59.800767 284.258625 
L 61.895312 284.258625 
L 61.895312 284.258625 
L 59.800767 284.258625 
z
" style="fill:#ff7f0e;stroke:#000000;stroke-linejoin:miter;"/>
   </g>
   <g id="patch_9">
    <path clip-path="url(#pd4281fe68a)" d="M 61.895312 284.258625 
L 63.989858 284.258625 
L 63.989858 283.028334 
L 61.895312 283.028334 
z
" style="fill:#ff7f0e;stroke:#000000;stroke-linejoin:miter;"/>
   </g>
   <g id="patch_10">
    <path clip-path="url(#pd4281fe68a)" d="M 63.989858 284.258625 
L 66.084403 284.258625 
L 66.084403 284.258625 
L 63.989858 284.258625 
z
" style="fill:#ff7f0e;stroke:#000000;stroke-linejoin:miter;"/>
   </g>
   <g id="patch_11">
    <path clip-path="url(#pd4281fe68a)" d="M 66.084403 284.258625 
L 68.178949 284.258625 
L 68.178949 284.258625 
L 66.084403 284.258625 
z
" style="fill:#ff7f0e;stroke:#000000;stroke-linejoin:miter;"/>
   </g>
   <g id="patch_12">
    <path clip-path="url(#pd4281fe68a)" d="M 68.178949 284.258625 
L 70.273494 284.258625 
L 70.273494 284.258625 
L 68.178949 284.258625 
z
" style="fill:#ff7f0e;stroke:#000000;stroke-linejoin:miter;"/>
   </g>
   <g id="patch_13">
    <path clip-path="url(#pd4281fe68a)" d="M 70.273494 284.258625 
L 72.36804 284.258625 
L 72.36804 284.258625 
L 70.273494 284.258625 
z
" style="fill:#ff7f0e;stroke:#000000;stroke-linejoin:miter;"/>
   </g>
   <g id="patch_14">
    <path clip-path="url(#pd4281fe68a)" d="M 72.36804 284.258625 
L 74.462585 284.258625 
L 74.462585 284.258625 
L 72.36804 284.258625 
z
" style="fill:#ff7f0e;stroke:#000000;stroke-linejoin:miter;"/>
   </g>
   <g id="patch_15">
    <path clip-path="url(#pd4281fe68a)" d="M 74.462585 284.258625 
L 76.557131 284.258625 
L 76.557131 284.258625 
L 74.462585 284.258625 
z
" style="fill:#ff7f0e;stroke:#000000;stroke-linejoin:miter;"/>
   </g>
   <g id="patch_16">
    <path clip-path="url(#pd4281fe68a)" d="M 76.557131 284.258625 
L 78.651676 284.258625 
L 78.651676 284.258625 
L 76.557131 284.258625 
z
" style="fill:#ff7f0e;stroke:#000000;stroke-linejoin:miter;"/>
   </g>
   <g id="patch_17">
    <path clip-path="url(#pd4281fe68a)" d="M 78.651676 284.258625 
L 80.746222 284.258625 
L 80.746222 284.258625 
L 78.651676 284.258625 
z
" style="fill:#ff7f0e;stroke:#000000;stroke-linejoin:miter;"/>
   </g>
   <g id="patch_18">
    <path clip-path="url(#pd4281fe68a)" d="M 80.746222 284.258625 
L 82.840767 284.258625 
L 82.840767 284.258625 
L 80.746222 284.258625 
z
" style="fill:#ff7f0e;stroke:#000000;stroke-linejoin:miter;"/>
   </g>
   <g id="patch_19">
    <path clip-path="url(#pd4281fe68a)" d="M 82.840767 284.258625 
L 84.935312 284.258625 
L 84.935312 284.258625 
L 82.840767 284.258625 
z
" style="fill:#ff7f0e;stroke:#000000;stroke-linejoin:miter;"/>
   </g>
   <g id="patch_20">
    <path clip-path="url(#pd4281fe68a)" d="M 84.935312 284.258625 
L 87.029858 284.258625 
L 87.029858 284.258625 
L 84.935312 284.258625 
z
" style="fill:#ff7f0e;stroke:#000000;stroke-linejoin:miter;"/>
   </g>
   <g id="patch_21">
    <path clip-path="url(#pd4281fe68a)" d="M 87.029858 284.258625 
L 89.124403 284.258625 
L 89.124403 284.258625 
L 87.029858 284.258625 
z
" style="fill:#ff7f0e;stroke:#000000;stroke-linejoin:miter;"/>
   </g>
   <g id="patch_22">
    <path clip-path="url(#pd4281fe68a)" d="M 89.124403 284.258625 
L 91.218949 284.258625 
L 91.218949 284.258625 
L 89.124403 284.258625 
z
" style="fill:#ff7f0e;stroke:#000000;stroke-linejoin:miter;"/>
   </g>
   <g id="patch_23">
    <path clip-path="url(#pd4281fe68a)" d="M 91.218949 284.258625 
L 93.313494 284.258625 
L 93.313494 283.028334 
L 91.218949 283.028334 
z
" style="fill:#ff7f0e;stroke:#000000;stroke-linejoin:miter;"/>
   </g>
   <g id="patch_24">
    <path clip-path="url(#pd4281fe68a)" d="M 93.313494 284.258625 
L 95.40804 284.258625 
L 95.40804 281.798042 
L 93.313494 281.798042 
z
" style="fill:#ff7f0e;stroke:#000000;stroke-linejoin:miter;"/>
   </g>
   <g id="patch_25">
    <path clip-path="url(#pd4281fe68a)" d="M 95.40804 284.258625 
L 97.502585 284.258625 
L 97.502585 274.416295 
L 95.40804 274.416295 
z
" style="fill:#ff7f0e;stroke:#000000;stroke-linejoin:miter;"/>
   </g>
   <g id="patch_26">
    <path clip-path="url(#pd4281fe68a)" d="M 97.502585 284.258625 
L 99.597131 284.258625 
L 99.597131 278.107169 
L 97.502585 278.107169 
z
" style="fill:#ff7f0e;stroke:#000000;stroke-linejoin:miter;"/>
   </g>
   <g id="patch_27">
    <path clip-path="url(#pd4281fe68a)" d="M 99.597131 284.258625 
L 101.691676 284.258625 
L 101.691676 284.258625 
L 99.597131 284.258625 
z
" style="fill:#ff7f0e;stroke:#000000;stroke-linejoin:miter;"/>
   </g>
   <g id="patch_28">
    <path clip-path="url(#pd4281fe68a)" d="M 101.691676 284.258625 
L 103.786222 284.258625 
L 103.786222 280.567751 
L 101.691676 280.567751 
z
" style="fill:#ff7f0e;stroke:#000000;stroke-linejoin:miter;"/>
   </g>
   <g id="patch_29">
    <path clip-path="url(#pd4281fe68a)" d="M 103.786222 284.258625 
L 105.880767 284.258625 
L 105.880767 280.567751 
L 103.786222 280.567751 
z
" style="fill:#ff7f0e;stroke:#000000;stroke-linejoin:miter;"/>
   </g>
   <g id="patch_30">
    <path clip-path="url(#pd4281fe68a)" d="M 105.880767 284.258625 
L 107.975312 284.258625 
L 107.975312 284.258625 
L 105.880767 284.258625 
z
" style="fill:#ff7f0e;stroke:#000000;stroke-linejoin:miter;"/>
   </g>
   <g id="patch_31">
    <path clip-path="url(#pd4281fe68a)" d="M 107.975312 284.258625 
L 110.069858 284.258625 
L 110.069858 280.567751 
L 107.975312 280.567751 
z
" style="fill:#ff7f0e;stroke:#000000;stroke-linejoin:miter;"/>
   </g>
   <g id="patch_32">
    <path clip-path="url(#pd4281fe68a)" d="M 110.069858 284.258625 
L 112.164403 284.258625 
L 112.164403 283.028334 
L 110.069858 283.028334 
z
" style="fill:#ff7f0e;stroke:#000000;stroke-linejoin:miter;"/>
   </g>
   <g id="patch_33">
    <path clip-path="url(#pd4281fe68a)" d="M 112.164403 284.258625 
L 114.258949 284.258625 
L 114.258949 284.258625 
L 112.164403 284.258625 
z
" style="fill:#ff7f0e;stroke:#000000;stroke-linejoin:miter;"/>
   </g>
   <g id="patch_34">
    <path clip-path="url(#pd4281fe68a)" d="M 114.258949 284.258625 
L 116.353494 284.258625 
L 116.353494 280.567751 
L 114.258949 280.567751 
z
" style="fill:#ff7f0e;stroke:#000000;stroke-linejoin:miter;"/>
   </g>
   <g id="patch_35">
    <path clip-path="url(#pd4281fe68a)" d="M 116.353494 284.258625 
L 118.44804 284.258625 
L 118.44804 284.258625 
L 116.353494 284.258625 
z
" style="fill:#ff7f0e;stroke:#000000;stroke-linejoin:miter;"/>
   </g>
   <g id="patch_36">
    <path clip-path="url(#pd4281fe68a)" d="M 118.44804 284.258625 
L 120.542585 284.258625 
L 120.542585 280.567751 
L 118.44804 280.567751 
z
" style="fill:#ff7f0e;stroke:#000000;stroke-linejoin:miter;"/>
   </g>
   <g id="patch_37">
    <path clip-path="url(#pd4281fe68a)" d="M 120.542585 284.258625 
L 122.637131 284.258625 
L 122.637131 283.028334 
L 120.542585 283.028334 
z
" style="fill:#ff7f0e;stroke:#000000;stroke-linejoin:miter;"/>
   </g>
   <g id="patch_38">
    <path clip-path="url(#pd4281fe68a)" d="M 122.637131 284.258625 
L 124.731676 284.258625 
L 124.731676 284.258625 
L 122.637131 284.258625 
z
" style="fill:#ff7f0e;stroke:#000000;stroke-linejoin:miter;"/>
   </g>
   <g id="patch_39">
    <path clip-path="url(#pd4281fe68a)" d="M 124.731676 284.258625 
L 126.826222 284.258625 
L 126.826222 283.028334 
L 124.731676 283.028334 
z
" style="fill:#ff7f0e;stroke:#000000;stroke-linejoin:miter;"/>
   </g>
   <g id="patch_40">
    <path clip-path="url(#pd4281fe68a)" d="M 126.826222 284.258625 
L 128.920767 284.258625 
L 128.920767 281.798042 
L 126.826222 281.798042 
z
" style="fill:#ff7f0e;stroke:#000000;stroke-linejoin:miter;"/>
   </g>
   <g id="patch_41">
    <path clip-path="url(#pd4281fe68a)" d="M 128.920767 284.258625 
L 131.015312 284.258625 
L 131.015312 284.258625 
L 128.920767 284.258625 
z
" style="fill:#ff7f0e;stroke:#000000;stroke-linejoin:miter;"/>
   </g>
   <g id="patch_42">
    <path clip-path="url(#pd4281fe68a)" d="M 131.015312 284.258625 
L 133.109858 284.258625 
L 133.109858 283.028334 
L 131.015312 283.028334 
z
" style="fill:#ff7f0e;stroke:#000000;stroke-linejoin:miter;"/>
   </g>
   <g id="patch_43">
    <path clip-path="url(#pd4281fe68a)" d="M 133.109858 284.258625 
L 135.204403 284.258625 
L 135.204403 279.33746 
L 133.109858 279.33746 
z
" style="fill:#ff7f0e;stroke:#000000;stroke-linejoin:miter;"/>
   </g>
   <g id="patch_44">
    <path clip-path="url(#pd4281fe68a)" d="M 135.204403 284.258625 
L 137.298949 284.258625 
L 137.298949 274.416295 
L 135.204403 274.416295 
z
" style="fill:#ff7f0e;stroke:#000000;stroke-linejoin:miter;"/>
   </g>
   <g id="patch_45">
    <path clip-path="url(#pd4281fe68a)" d="M 137.298949 284.258625 
L 139.393494 284.258625 
L 139.393494 276.876877 
L 137.298949 276.876877 
z
" style="fill:#ff7f0e;stroke:#000000;stroke-linejoin:miter;"/>
   </g>
   <g id="patch_46">
    <path clip-path="url(#pd4281fe68a)" d="M 139.393494 284.258625 
L 141.48804 284.258625 
L 141.48804 276.876877 
L 139.393494 276.876877 
z
" style="fill:#ff7f0e;stroke:#000000;stroke-linejoin:miter;"/>
   </g>
   <g id="patch_47">
    <path clip-path="url(#pd4281fe68a)" d="M 141.48804 284.258625 
L 143.582585 284.258625 
L 143.582585 284.258625 
L 141.48804 284.258625 
z
" style="fill:#ff7f0e;stroke:#000000;stroke-linejoin:miter;"/>
   </g>
   <g id="patch_48">
    <path clip-path="url(#pd4281fe68a)" d="M 143.582585 284.258625 
L 145.677131 284.258625 
L 145.677131 284.258625 
L 143.582585 284.258625 
z
" style="fill:#ff7f0e;stroke:#000000;stroke-linejoin:miter;"/>
   </g>
   <g id="patch_49">
    <path clip-path="url(#pd4281fe68a)" d="M 145.677131 284.258625 
L 147.771676 284.258625 
L 147.771676 280.567751 
L 145.677131 280.567751 
z
" style="fill:#ff7f0e;stroke:#000000;stroke-linejoin:miter;"/>
   </g>
   <g id="patch_50">
    <path clip-path="url(#pd4281fe68a)" d="M 147.771676 284.258625 
L 149.866222 284.258625 
L 149.866222 276.876877 
L 147.771676 276.876877 
z
" style="fill:#ff7f0e;stroke:#000000;stroke-linejoin:miter;"/>
   </g>
   <g id="patch_51">
    <path clip-path="url(#pd4281fe68a)" d="M 149.866222 284.258625 
L 151.960767 284.258625 
L 151.960767 281.798042 
L 149.866222 281.798042 
z
" style="fill:#ff7f0e;stroke:#000000;stroke-linejoin:miter;"/>
   </g>
   <g id="patch_52">
    <path clip-path="url(#pd4281fe68a)" d="M 151.960767 284.258625 
L 154.055312 284.258625 
L 154.055312 281.798042 
L 151.960767 281.798042 
z
" style="fill:#ff7f0e;stroke:#000000;stroke-linejoin:miter;"/>
   </g>
   <g id="patch_53">
    <path clip-path="url(#pd4281fe68a)" d="M 154.055312 284.258625 
L 156.149858 284.258625 
L 156.149858 271.955712 
L 154.055312 271.955712 
z
" style="fill:#ff7f0e;stroke:#000000;stroke-linejoin:miter;"/>
   </g>
   <g id="patch_54">
    <path clip-path="url(#pd4281fe68a)" d="M 156.149858 284.258625 
L 158.244403 284.258625 
L 158.244403 280.567751 
L 156.149858 280.567751 
z
" style="fill:#ff7f0e;stroke:#000000;stroke-linejoin:miter;"/>
   </g>
   <g id="patch_55">
    <path clip-path="url(#pd4281fe68a)" d="M 158.244403 284.258625 
L 160.338949 284.258625 
L 160.338949 284.258625 
L 158.244403 284.258625 
z
" style="fill:#ff7f0e;stroke:#000000;stroke-linejoin:miter;"/>
   </g>
   <g id="patch_56">
    <path clip-path="url(#pd4281fe68a)" d="M 160.338949 284.258625 
L 162.433494 284.258625 
L 162.433494 269.49513 
L 160.338949 269.49513 
z
" style="fill:#ff7f0e;stroke:#000000;stroke-linejoin:miter;"/>
   </g>
   <g id="patch_57">
    <path clip-path="url(#pd4281fe68a)" d="M 162.433494 284.258625 
L 164.52804 284.258625 
L 164.52804 273.186004 
L 162.433494 273.186004 
z
" style="fill:#ff7f0e;stroke:#000000;stroke-linejoin:miter;"/>
   </g>
   <g id="patch_58">
    <path clip-path="url(#pd4281fe68a)" d="M 164.52804 284.258625 
L 166.622585 284.258625 
L 166.622585 275.646586 
L 164.52804 275.646586 
z
" style="fill:#ff7f0e;stroke:#000000;stroke-linejoin:miter;"/>
   </g>
   <g id="patch_59">
    <path clip-path="url(#pd4281fe68a)" d="M 166.622585 284.258625 
L 168.717131 284.258625 
L 168.717131 270.725421 
L 166.622585 270.725421 
z
" style="fill:#ff7f0e;stroke:#000000;stroke-linejoin:miter;"/>
   </g>
   <g id="patch_60">
    <path clip-path="url(#pd4281fe68a)" d="M 168.717131 284.258625 
L 170.811676 284.258625 
L 170.811676 275.646586 
L 168.717131 275.646586 
z
" style="fill:#ff7f0e;stroke:#000000;stroke-linejoin:miter;"/>
   </g>
   <g id="patch_61">
    <path clip-path="url(#pd4281fe68a)" d="M 170.811676 284.258625 
L 172.906222 284.258625 
L 172.906222 280.567751 
L 170.811676 280.567751 
z
" style="fill:#ff7f0e;stroke:#000000;stroke-linejoin:miter;"/>
   </g>
   <g id="patch_62">
    <path clip-path="url(#pd4281fe68a)" d="M 172.906222 284.258625 
L 175.000767 284.258625 
L 175.000767 264.573965 
L 172.906222 264.573965 
z
" style="fill:#ff7f0e;stroke:#000000;stroke-linejoin:miter;"/>
   </g>
   <g id="patch_63">
    <path clip-path="url(#pd4281fe68a)" d="M 175.000767 284.258625 
L 177.095312 284.258625 
L 177.095312 262.113382 
L 175.000767 262.113382 
z
" style="fill:#ff7f0e;stroke:#000000;stroke-linejoin:miter;"/>
   </g>
   <g id="patch_64">
    <path clip-path="url(#pd4281fe68a)" d="M 177.095312 284.258625 
L 179.189858 284.258625 
L 179.189858 233.816683 
L 177.095312 233.816683 
z
" style="fill:#ff7f0e;stroke:#000000;stroke-linejoin:miter;"/>
   </g>
   <g id="patch_65">
    <path clip-path="url(#pd4281fe68a)" d="M 179.189858 284.258625 
L 181.284403 284.258625 
L 181.284403 227.665227 
L 179.189858 227.665227 
z
" style="fill:#ff7f0e;stroke:#000000;stroke-linejoin:miter;"/>
   </g>
   <g id="patch_66">
    <path clip-path="url(#pd4281fe68a)" d="M 181.284403 284.258625 
L 183.378949 284.258625 
L 183.378949 235.046975 
L 181.284403 235.046975 
z
" style="fill:#ff7f0e;stroke:#000000;stroke-linejoin:miter;"/>
   </g>
   <g id="patch_67">
    <path clip-path="url(#pd4281fe68a)" d="M 183.378949 284.258625 
L 185.473494 284.258625 
L 185.473494 205.519984 
L 183.378949 205.519984 
z
" style="fill:#ff7f0e;stroke:#000000;stroke-linejoin:miter;"/>
   </g>
   <g id="patch_68">
    <path clip-path="url(#pd4281fe68a)" d="M 185.473494 284.258625 
L 187.56804 284.258625 
L 187.56804 195.677654 
L 185.473494 195.677654 
z
" style="fill:#ff7f0e;stroke:#000000;stroke-linejoin:miter;"/>
   </g>
   <g id="patch_69">
    <path clip-path="url(#pd4281fe68a)" d="M 187.56804 284.258625 
L 189.662585 284.258625 
L 189.662585 269.49513 
L 187.56804 269.49513 
z
" style="fill:#ff7f0e;stroke:#000000;stroke-linejoin:miter;"/>
   </g>
   <g id="patch_70">
    <path clip-path="url(#pd4281fe68a)" d="M 189.662585 284.258625 
L 191.757131 284.258625 
L 191.757131 188.295907 
L 189.662585 188.295907 
z
" style="fill:#ff7f0e;stroke:#000000;stroke-linejoin:miter;"/>
   </g>
   <g id="patch_71">
    <path clip-path="url(#pd4281fe68a)" d="M 191.757131 284.258625 
L 193.851676 284.258625 
L 193.851676 201.82911 
L 191.757131 201.82911 
z
" style="fill:#ff7f0e;stroke:#000000;stroke-linejoin:miter;"/>
   </g>
   <g id="patch_72">
    <path clip-path="url(#pd4281fe68a)" d="M 193.851676 284.258625 
L 195.946222 284.258625 
L 195.946222 163.690081 
L 193.851676 163.690081 
z
" style="fill:#ff7f0e;stroke:#000000;stroke-linejoin:miter;"/>
   </g>
   <g id="patch_73">
    <path clip-path="url(#pd4281fe68a)" d="M 195.946222 284.258625 
L 198.040767 284.258625 
L 198.040767 171.071829 
L 195.946222 171.071829 
z
" style="fill:#ff7f0e;stroke:#000000;stroke-linejoin:miter;"/>
   </g>
   <g id="patch_74">
    <path clip-path="url(#pd4281fe68a)" d="M 198.040767 284.258625 
L 200.135313 284.258625 
L 200.135313 139.084256 
L 198.040767 139.084256 
z
" style="fill:#ff7f0e;stroke:#000000;stroke-linejoin:miter;"/>
   </g>
   <g id="patch_75">
    <path clip-path="url(#pd4281fe68a)" d="M 200.135312 284.258625 
L 202.229858 284.258625 
L 202.229858 110.787557 
L 200.135312 110.787557 
z
" style="fill:#ff7f0e;stroke:#000000;stroke-linejoin:miter;"/>
   </g>
   <g id="patch_76">
    <path clip-path="url(#pd4281fe68a)" d="M 202.229858 284.258625 
L 204.324403 284.258625 
L 204.324403 179.683868 
L 202.229858 179.683868 
z
" style="fill:#ff7f0e;stroke:#000000;stroke-linejoin:miter;"/>
   </g>
   <g id="patch_77">
    <path clip-path="url(#pd4281fe68a)" d="M 204.324403 284.258625 
L 206.418949 284.258625 
L 206.418949 177.223285 
L 204.324403 177.223285 
z
" style="fill:#ff7f0e;stroke:#000000;stroke-linejoin:miter;"/>
   </g>
   <g id="patch_78">
    <path clip-path="url(#pd4281fe68a)" d="M 206.418949 284.258625 
L 208.513494 284.258625 
L 208.513494 92.333188 
L 206.418949 92.333188 
z
" style="fill:#ff7f0e;stroke:#000000;stroke-linejoin:miter;"/>
   </g>
   <g id="patch_79">
    <path clip-path="url(#pd4281fe68a)" d="M 208.513494 284.258625 
L 210.60804 284.258625 
L 210.60804 59.115324 
L 208.513494 59.115324 
z
" style="fill:#ff7f0e;stroke:#000000;stroke-linejoin:miter;"/>
   </g>
   <g id="patch_80">
    <path clip-path="url(#pd4281fe68a)" d="M 210.60804 284.258625 
L 212.702585 284.258625 
L 212.702585 39.430664 
L 210.60804 39.430664 
z
" style="fill:#ff7f0e;stroke:#000000;stroke-linejoin:miter;"/>
   </g>
   <g id="patch_81">
    <path clip-path="url(#pd4281fe68a)" d="M 212.702585 284.258625 
L 214.797131 284.258625 
L 214.797131 40.660955 
L 212.702585 40.660955 
z
" style="fill:#ff7f0e;stroke:#000000;stroke-linejoin:miter;"/>
   </g>
   <g id="patch_82">
    <path clip-path="url(#pd4281fe68a)" d="M 214.797131 284.258625 
L 216.891676 284.258625 
L 216.891676 70.187945 
L 214.797131 70.187945 
z
" style="fill:#ff7f0e;stroke:#000000;stroke-linejoin:miter;"/>
   </g>
   <g id="patch_83">
    <path clip-path="url(#pd4281fe68a)" d="M 216.891676 284.258625 
L 218.986222 284.258625 
L 218.986222 158.768916 
L 216.891676 158.768916 
z
" style="fill:#ff7f0e;stroke:#000000;stroke-linejoin:miter;"/>
   </g>
   <g id="patch_84">
    <path clip-path="url(#pd4281fe68a)" d="M 218.986222 284.258625 
L 221.080767 284.258625 
L 221.080767 88.642314 
L 218.986222 88.642314 
z
" style="fill:#ff7f0e;stroke:#000000;stroke-linejoin:miter;"/>
   </g>
   <g id="patch_85">
    <path clip-path="url(#pd4281fe68a)" d="M 221.080767 284.258625 
L 223.175312 284.258625 
L 223.175312 128.011635 
L 221.080767 128.011635 
z
" style="fill:#ff7f0e;stroke:#000000;stroke-linejoin:miter;"/>
   </g>
   <g id="patch_86">
    <path clip-path="url(#pd4281fe68a)" d="M 223.175312 284.258625 
L 225.269858 284.258625 
L 225.269858 98.484644 
L 223.175312 98.484644 
z
" style="fill:#ff7f0e;stroke:#000000;stroke-linejoin:miter;"/>
   </g>
   <g id="patch_87">
    <path clip-path="url(#pd4281fe68a)" d="M 225.269858 284.258625 
L 227.364403 284.258625 
L 227.364403 30.818625 
L 225.269858 30.818625 
z
" style="fill:#ff7f0e;stroke:#000000;stroke-linejoin:miter;"/>
   </g>
   <g id="patch_88">
    <path clip-path="url(#pd4281fe68a)" d="M 227.364403 284.258625 
L 229.458949 284.258625 
L 229.458949 55.42445 
L 227.364403 55.42445 
z
" style="fill:#ff7f0e;stroke:#000000;stroke-linejoin:miter;"/>
   </g>
   <g id="patch_89">
    <path clip-path="url(#pd4281fe68a)" d="M 229.458949 284.258625 
L 231.553494 284.258625 
L 231.553494 150.156877 
L 229.458949 150.156877 
z
" style="fill:#ff7f0e;stroke:#000000;stroke-linejoin:miter;"/>
   </g>
   <g id="patch_90">
    <path clip-path="url(#pd4281fe68a)" d="M 231.553494 284.258625 
L 233.64804 284.258625 
L 233.64804 159.999208 
L 231.553494 159.999208 
z
" style="fill:#ff7f0e;stroke:#000000;stroke-linejoin:miter;"/>
   </g>
   <g id="patch_91">
    <path clip-path="url(#pd4281fe68a)" d="M 233.64804 284.258625 
L 235.742585 284.258625 
L 235.742585 132.9328 
L 233.64804 132.9328 
z
" style="fill:#ff7f0e;stroke:#000000;stroke-linejoin:miter;"/>
   </g>
   <g id="patch_92">
    <path clip-path="url(#pd4281fe68a)" d="M 235.742585 284.258625 
L 237.837131 284.258625 
L 237.837131 132.9328 
L 235.742585 132.9328 
z
" style="fill:#ff7f0e;stroke:#000000;stroke-linejoin:miter;"/>
   </g>
   <g id="patch_93">
    <path clip-path="url(#pd4281fe68a)" d="M 237.837131 284.258625 
L 239.931676 284.258625 
L 239.931676 119.399596 
L 237.837131 119.399596 
z
" style="fill:#ff7f0e;stroke:#000000;stroke-linejoin:miter;"/>
   </g>
   <g id="patch_94">
    <path clip-path="url(#pd4281fe68a)" d="M 239.931676 284.258625 
L 242.026222 284.258625 
L 242.026222 75.10911 
L 239.931676 75.10911 
z
" style="fill:#ff7f0e;stroke:#000000;stroke-linejoin:miter;"/>
   </g>
   <g id="patch_95">
    <path clip-path="url(#pd4281fe68a)" d="M 242.026222 284.258625 
L 244.120767 284.258625 
L 244.120767 137.853965 
L 242.026222 137.853965 
z
" style="fill:#ff7f0e;stroke:#000000;stroke-linejoin:miter;"/>
   </g>
   <g id="patch_96">
    <path clip-path="url(#pd4281fe68a)" d="M 244.120767 284.258625 
L 246.215312 284.258625 
L 246.215312 183.374742 
L 244.120767 183.374742 
z
" style="fill:#ff7f0e;stroke:#000000;stroke-linejoin:miter;"/>
   </g>
   <g id="patch_97">
    <path clip-path="url(#pd4281fe68a)" d="M 246.215312 284.258625 
L 248.309858 284.258625 
L 248.309858 233.816683 
L 246.215312 233.816683 
z
" style="fill:#ff7f0e;stroke:#000000;stroke-linejoin:miter;"/>
   </g>
   <g id="patch_98">
    <path clip-path="url(#pd4281fe68a)" d="M 248.309858 284.258625 
L 250.404403 284.258625 
L 250.404403 145.235712 
L 248.309858 145.235712 
z
" style="fill:#ff7f0e;stroke:#000000;stroke-linejoin:miter;"/>
   </g>
   <g id="patch_99">
    <path clip-path="url(#pd4281fe68a)" d="M 250.404403 284.258625 
L 252.498949 284.258625 
L 252.498949 226.434936 
L 250.404403 226.434936 
z
" style="fill:#ff7f0e;stroke:#000000;stroke-linejoin:miter;"/>
   </g>
   <g id="patch_100">
    <path clip-path="url(#pd4281fe68a)" d="M 252.498949 284.258625 
L 254.593494 284.258625 
L 254.593494 211.671441 
L 252.498949 211.671441 
z
" style="fill:#ff7f0e;stroke:#000000;stroke-linejoin:miter;"/>
   </g>
   <g id="patch_101">
    <path clip-path="url(#pd4281fe68a)" d="M 254.593494 284.258625 
L 256.68804 284.258625 
L 256.68804 81.260567 
L 254.593494 81.260567 
z
" style="fill:#ff7f0e;stroke:#000000;stroke-linejoin:miter;"/>
   </g>
   <g id="patch_102">
    <path clip-path="url(#pd4281fe68a)" d="M 256.68804 284.258625 
L 258.782585 284.258625 
L 258.782585 92.333188 
L 256.68804 92.333188 
z
" style="fill:#ff7f0e;stroke:#000000;stroke-linejoin:miter;"/>
   </g>
   <g id="patch_103">
    <path clip-path="url(#pd4281fe68a)" d="M 258.782585 284.258625 
L 260.877131 284.258625 
L 260.877131 169.841538 
L 258.782585 169.841538 
z
" style="fill:#ff7f0e;stroke:#000000;stroke-linejoin:miter;"/>
   </g>
   <g id="patch_104">
    <path clip-path="url(#pd4281fe68a)" d="M 260.877131 284.258625 
L 262.971676 284.258625 
L 262.971676 177.223285 
L 260.877131 177.223285 
z
" style="fill:#ff7f0e;stroke:#000000;stroke-linejoin:miter;"/>
   </g>
   <g id="patch_105">
    <path clip-path="url(#pd4281fe68a)" d="M 262.971676 284.258625 
L 265.066222 284.258625 
L 265.066222 214.132023 
L 262.971676 214.132023 
z
" style="fill:#ff7f0e;stroke:#000000;stroke-linejoin:miter;"/>
   </g>
   <g id="patch_106">
    <path clip-path="url(#pd4281fe68a)" d="M 265.066222 284.258625 
L 267.160767 284.258625 
L 267.160767 238.737848 
L 265.066222 238.737848 
z
" style="fill:#ff7f0e;stroke:#000000;stroke-linejoin:miter;"/>
   </g>
   <g id="patch_107">
    <path clip-path="url(#pd4281fe68a)" d="M 267.160767 284.258625 
L 269.255312 284.258625 
L 269.255312 255.961926 
L 267.160767 255.961926 
z
" style="fill:#ff7f0e;stroke:#000000;stroke-linejoin:miter;"/>
   </g>
   <g id="patch_108">
    <path clip-path="url(#pd4281fe68a)" d="M 269.255312 284.258625 
L 271.349858 284.258625 
L 271.349858 236.277266 
L 269.255312 236.277266 
z
" style="fill:#ff7f0e;stroke:#000000;stroke-linejoin:miter;"/>
   </g>
   <g id="patch_109">
    <path clip-path="url(#pd4281fe68a)" d="M 271.349858 284.258625 
L 273.444403 284.258625 
L 273.444403 239.96814 
L 271.349858 239.96814 
z
" style="fill:#ff7f0e;stroke:#000000;stroke-linejoin:miter;"/>
   </g>
   <g id="patch_110">
    <path clip-path="url(#pd4281fe68a)" d="M 273.444403 284.258625 
L 275.538949 284.258625 
L 275.538949 257.192217 
L 273.444403 257.192217 
z
" style="fill:#ff7f0e;stroke:#000000;stroke-linejoin:miter;"/>
   </g>
   <g id="patch_111">
    <path clip-path="url(#pd4281fe68a)" d="M 275.538949 284.258625 
L 277.633494 284.258625 
L 277.633494 265.804256 
L 275.538949 265.804256 
z
" style="fill:#ff7f0e;stroke:#000000;stroke-linejoin:miter;"/>
   </g>
   <g id="patch_112">
    <path clip-path="url(#pd4281fe68a)" d="M 277.633494 284.258625 
L 279.72804 284.258625 
L 279.72804 251.040761 
L 277.633494 251.040761 
z
" style="fill:#ff7f0e;stroke:#000000;stroke-linejoin:miter;"/>
   </g>
   <g id="patch_113">
    <path clip-path="url(#pd4281fe68a)" d="M 279.72804 284.258625 
L 281.822585 284.258625 
L 281.822585 271.955712 
L 279.72804 271.955712 
z
" style="fill:#ff7f0e;stroke:#000000;stroke-linejoin:miter;"/>
   </g>
   <g id="patch_114">
    <path clip-path="url(#pd4281fe68a)" d="M 281.822585 284.258625 
L 283.917131 284.258625 
L 283.917131 247.349887 
L 281.822585 247.349887 
z
" style="fill:#ff7f0e;stroke:#000000;stroke-linejoin:miter;"/>
   </g>
   <g id="patch_115">
    <path clip-path="url(#pd4281fe68a)" d="M 283.917131 284.258625 
L 286.011676 284.258625 
L 286.011676 273.186004 
L 283.917131 273.186004 
z
" style="fill:#ff7f0e;stroke:#000000;stroke-linejoin:miter;"/>
   </g>
   <g id="patch_116">
    <path clip-path="url(#pd4281fe68a)" d="M 286.011676 284.258625 
L 288.106222 284.258625 
L 288.106222 267.034547 
L 286.011676 267.034547 
z
" style="fill:#ff7f0e;stroke:#000000;stroke-linejoin:miter;"/>
   </g>
   <g id="patch_117">
    <path clip-path="url(#pd4281fe68a)" d="M 288.106222 284.258625 
L 290.200767 284.258625 
L 290.200767 278.107169 
L 288.106222 278.107169 
z
" style="fill:#ff7f0e;stroke:#000000;stroke-linejoin:miter;"/>
   </g>
   <g id="patch_118">
    <path clip-path="url(#pd4281fe68a)" d="M 290.200767 284.258625 
L 292.295312 284.258625 
L 292.295312 271.955712 
L 290.200767 271.955712 
z
" style="fill:#ff7f0e;stroke:#000000;stroke-linejoin:miter;"/>
   </g>
   <g id="patch_119">
    <path clip-path="url(#pd4281fe68a)" d="M 292.295312 284.258625 
L 294.389858 284.258625 
L 294.389858 278.107169 
L 292.295312 278.107169 
z
" style="fill:#ff7f0e;stroke:#000000;stroke-linejoin:miter;"/>
   </g>
   <g id="patch_120">
    <path clip-path="url(#pd4281fe68a)" d="M 294.389858 284.258625 
L 296.484403 284.258625 
L 296.484403 278.107169 
L 294.389858 278.107169 
z
" style="fill:#ff7f0e;stroke:#000000;stroke-linejoin:miter;"/>
   </g>
   <g id="patch_121">
    <path clip-path="url(#pd4281fe68a)" d="M 296.484403 284.258625 
L 298.578949 284.258625 
L 298.578949 270.725421 
L 296.484403 270.725421 
z
" style="fill:#ff7f0e;stroke:#000000;stroke-linejoin:miter;"/>
   </g>
   <g id="patch_122">
    <path clip-path="url(#pd4281fe68a)" d="M 298.578949 284.258625 
L 300.673494 284.258625 
L 300.673494 280.567751 
L 298.578949 280.567751 
z
" style="fill:#ff7f0e;stroke:#000000;stroke-linejoin:miter;"/>
   </g>
   <g id="patch_123">
    <path clip-path="url(#pd4281fe68a)" d="M 300.673494 284.258625 
L 302.76804 284.258625 
L 302.76804 281.798042 
L 300.673494 281.798042 
z
" style="fill:#ff7f0e;stroke:#000000;stroke-linejoin:miter;"/>
   </g>
   <g id="patch_124">
    <path clip-path="url(#pd4281fe68a)" d="M 302.76804 284.258625 
L 304.862585 284.258625 
L 304.862585 267.034547 
L 302.76804 267.034547 
z
" style="fill:#ff7f0e;stroke:#000000;stroke-linejoin:miter;"/>
   </g>
   <g id="patch_125">
    <path clip-path="url(#pd4281fe68a)" d="M 304.862585 284.258625 
L 306.957131 284.258625 
L 306.957131 274.416295 
L 304.862585 274.416295 
z
" style="fill:#ff7f0e;stroke:#000000;stroke-linejoin:miter;"/>
   </g>
   <g id="patch_126">
    <path clip-path="url(#pd4281fe68a)" d="M 306.957131 284.258625 
L 309.051676 284.258625 
L 309.051676 271.955712 
L 306.957131 271.955712 
z
" style="fill:#ff7f0e;stroke:#000000;stroke-linejoin:miter;"/>
   </g>
   <g id="patch_127">
    <path clip-path="url(#pd4281fe68a)" d="M 309.051676 284.258625 
L 311.146222 284.258625 
L 311.146222 270.725421 
L 309.051676 270.725421 
z
" style="fill:#ff7f0e;stroke:#000000;stroke-linejoin:miter;"/>
   </g>
   <g id="patch_128">
    <path clip-path="url(#pd4281fe68a)" d="M 311.146222 284.258625 
L 313.240767 284.258625 
L 313.240767 265.804256 
L 311.146222 265.804256 
z
" style="fill:#ff7f0e;stroke:#000000;stroke-linejoin:miter;"/>
   </g>
   <g id="patch_129">
    <path clip-path="url(#pd4281fe68a)" d="M 313.240767 284.258625 
L 315.335312 284.258625 
L 315.335312 257.192217 
L 313.240767 257.192217 
z
" style="fill:#ff7f0e;stroke:#000000;stroke-linejoin:miter;"/>
   </g>
   <g id="patch_130">
    <path clip-path="url(#pd4281fe68a)" d="M 315.335312 284.258625 
L 317.429858 284.258625 
L 317.429858 267.034547 
L 315.335312 267.034547 
z
" style="fill:#ff7f0e;stroke:#000000;stroke-linejoin:miter;"/>
   </g>
   <g id="patch_131">
    <path clip-path="url(#pd4281fe68a)" d="M 317.429858 284.258625 
L 319.524403 284.258625 
L 319.524403 278.107169 
L 317.429858 278.107169 
z
" style="fill:#ff7f0e;stroke:#000000;stroke-linejoin:miter;"/>
   </g>
   <g id="patch_132">
    <path clip-path="url(#pd4281fe68a)" d="M 319.524403 284.258625 
L 321.618949 284.258625 
L 321.618949 268.264839 
L 319.524403 268.264839 
z
" style="fill:#ff7f0e;stroke:#000000;stroke-linejoin:miter;"/>
   </g>
   <g id="patch_133">
    <path clip-path="url(#pd4281fe68a)" d="M 321.618949 284.258625 
L 323.713494 284.258625 
L 323.713494 242.428722 
L 321.618949 242.428722 
z
" style="fill:#ff7f0e;stroke:#000000;stroke-linejoin:miter;"/>
   </g>
   <g id="patch_134">
    <path clip-path="url(#pd4281fe68a)" d="M 323.713494 284.258625 
L 325.80804 284.258625 
L 325.80804 269.49513 
L 323.713494 269.49513 
z
" style="fill:#ff7f0e;stroke:#000000;stroke-linejoin:miter;"/>
   </g>
   <g id="patch_135">
    <path clip-path="url(#pd4281fe68a)" d="M 325.80804 284.258625 
L 327.902585 284.258625 
L 327.902585 249.81047 
L 325.80804 249.81047 
z
" style="fill:#ff7f0e;stroke:#000000;stroke-linejoin:miter;"/>
   </g>
   <g id="patch_136">
    <path clip-path="url(#pd4281fe68a)" d="M 327.902585 284.258625 
L 329.997131 284.258625 
L 329.997131 259.6528 
L 327.902585 259.6528 
z
" style="fill:#ff7f0e;stroke:#000000;stroke-linejoin:miter;"/>
   </g>
   <g id="patch_137">
    <path clip-path="url(#pd4281fe68a)" d="M 329.997131 284.258625 
L 332.091676 284.258625 
L 332.091676 252.271052 
L 329.997131 252.271052 
z
" style="fill:#ff7f0e;stroke:#000000;stroke-linejoin:miter;"/>
   </g>
   <g id="patch_138">
    <path clip-path="url(#pd4281fe68a)" d="M 332.091676 284.258625 
L 334.186222 284.258625 
L 334.186222 267.034547 
L 332.091676 267.034547 
z
" style="fill:#ff7f0e;stroke:#000000;stroke-linejoin:miter;"/>
   </g>
   <g id="patch_139">
    <path clip-path="url(#pd4281fe68a)" d="M 334.186222 284.258625 
L 336.280767 284.258625 
L 336.280767 268.264839 
L 334.186222 268.264839 
z
" style="fill:#ff7f0e;stroke:#000000;stroke-linejoin:miter;"/>
   </g>
   <g id="patch_140">
    <path clip-path="url(#pd4281fe68a)" d="M 336.280767 284.258625 
L 338.375312 284.258625 
L 338.375312 269.49513 
L 336.280767 269.49513 
z
" style="fill:#ff7f0e;stroke:#000000;stroke-linejoin:miter;"/>
   </g>
   <g id="patch_141">
    <path clip-path="url(#pd4281fe68a)" d="M 338.375312 284.258625 
L 340.469858 284.258625 
L 340.469858 262.113382 
L 338.375312 262.113382 
z
" style="fill:#ff7f0e;stroke:#000000;stroke-linejoin:miter;"/>
   </g>
   <g id="patch_142">
    <path clip-path="url(#pd4281fe68a)" d="M 340.469858 284.258625 
L 342.564403 284.258625 
L 342.564403 257.192217 
L 340.469858 257.192217 
z
" style="fill:#ff7f0e;stroke:#000000;stroke-linejoin:miter;"/>
   </g>
   <g id="patch_143">
    <path clip-path="url(#pd4281fe68a)" d="M 342.564403 284.258625 
L 344.658949 284.258625 
L 344.658949 253.501343 
L 342.564403 253.501343 
z
" style="fill:#ff7f0e;stroke:#000000;stroke-linejoin:miter;"/>
   </g>
   <g id="patch_144">
    <path clip-path="url(#pd4281fe68a)" d="M 344.658949 284.258625 
L 346.753494 284.258625 
L 346.753494 254.731635 
L 344.658949 254.731635 
z
" style="fill:#ff7f0e;stroke:#000000;stroke-linejoin:miter;"/>
   </g>
   <g id="patch_145">
    <path clip-path="url(#pd4281fe68a)" d="M 346.753494 284.258625 
L 348.84804 284.258625 
L 348.84804 226.434936 
L 346.753494 226.434936 
z
" style="fill:#ff7f0e;stroke:#000000;stroke-linejoin:miter;"/>
   </g>
   <g id="patch_146">
    <path clip-path="url(#pd4281fe68a)" d="M 348.84804 284.258625 
L 350.942585 284.258625 
L 350.942585 225.204644 
L 348.84804 225.204644 
z
" style="fill:#ff7f0e;stroke:#000000;stroke-linejoin:miter;"/>
   </g>
   <g id="patch_147">
    <path clip-path="url(#pd4281fe68a)" d="M 350.942585 284.258625 
L 353.037131 284.258625 
L 353.037131 251.040761 
L 350.942585 251.040761 
z
" style="fill:#ff7f0e;stroke:#000000;stroke-linejoin:miter;"/>
   </g>
   <g id="patch_148">
    <path clip-path="url(#pd4281fe68a)" d="M 353.037131 284.258625 
L 355.131676 284.258625 
L 355.131676 264.573965 
L 353.037131 264.573965 
z
" style="fill:#ff7f0e;stroke:#000000;stroke-linejoin:miter;"/>
   </g>
   <g id="patch_149">
    <path clip-path="url(#pd4281fe68a)" d="M 355.131676 284.258625 
L 357.226222 284.258625 
L 357.226222 233.816683 
L 355.131676 233.816683 
z
" style="fill:#ff7f0e;stroke:#000000;stroke-linejoin:miter;"/>
   </g>
   <g id="patch_150">
    <path clip-path="url(#pd4281fe68a)" d="M 357.226222 284.258625 
L 359.320767 284.258625 
L 359.320767 241.198431 
L 357.226222 241.198431 
z
" style="fill:#ff7f0e;stroke:#000000;stroke-linejoin:miter;"/>
   </g>
   <g id="patch_151">
    <path clip-path="url(#pd4281fe68a)" d="M 359.320767 284.258625 
L 361.415312 284.258625 
L 361.415312 236.277266 
L 359.320767 236.277266 
z
" style="fill:#ff7f0e;stroke:#000000;stroke-linejoin:miter;"/>
   </g>
   <g id="patch_152">
    <path clip-path="url(#pd4281fe68a)" d="M 361.415312 284.258625 
L 363.509858 284.258625 
L 363.509858 241.198431 
L 361.415312 241.198431 
z
" style="fill:#ff7f0e;stroke:#000000;stroke-linejoin:miter;"/>
   </g>
   <g id="patch_153">
    <path clip-path="url(#pd4281fe68a)" d="M 363.509858 284.258625 
L 365.604403 284.258625 
L 365.604403 248.580178 
L 363.509858 248.580178 
z
" style="fill:#ff7f0e;stroke:#000000;stroke-linejoin:miter;"/>
   </g>
   <g id="patch_154">
    <path clip-path="url(#pd4281fe68a)" d="M 365.604403 284.258625 
L 367.698949 284.258625 
L 367.698949 246.119596 
L 365.604403 246.119596 
z
" style="fill:#ff7f0e;stroke:#000000;stroke-linejoin:miter;"/>
   </g>
   <g id="patch_155">
    <path clip-path="url(#pd4281fe68a)" d="M 367.698949 284.258625 
L 369.793494 284.258625 
L 369.793494 216.592606 
L 367.698949 216.592606 
z
" style="fill:#ff7f0e;stroke:#000000;stroke-linejoin:miter;"/>
   </g>
   <g id="patch_156">
    <path clip-path="url(#pd4281fe68a)" d="M 369.793494 284.258625 
L 371.88804 284.258625 
L 371.88804 225.204644 
L 369.793494 225.204644 
z
" style="fill:#ff7f0e;stroke:#000000;stroke-linejoin:miter;"/>
   </g>
   <g id="patch_157">
    <path clip-path="url(#pd4281fe68a)" d="M 371.88804 284.258625 
L 373.982585 284.258625 
L 373.982585 217.822897 
L 371.88804 217.822897 
z
" style="fill:#ff7f0e;stroke:#000000;stroke-linejoin:miter;"/>
   </g>
   <g id="matplotlib.axis_1">
    <g id="xtick_1">
     <g id="line2d_1">
      <defs>
       <path d="M 0 0 
L 0 3.5 
" id="m3febc29530" style="stroke:#000000;stroke-width:0.8;"/>
      </defs>
      <g>
       <use style="stroke:#000000;stroke-width:0.8;" x="66.084403" xlink:href="#m3febc29530" y="284.258625"/>
      </g>
     </g>
     <g id="text_1">
      <!-- Feb -->
      <defs>
       <path d="M 54.203125 64.703125 
L 18.3125 64.703125 
L 18.3125 41.5 
L 50.09375 41.5 
L 50.09375 34.1875 
L 18.3125 34.1875 
L 18.3125 0.984375 
L 9.515625 0.984375 
L 9.515625 72.40625 
L 54.203125 72.40625 
z
" id="IPAexGothic-70"/>
       <path d="M 13.484375 24.90625 
Q 13.921875 16.265625 18.890625 11.28125 
Q 23.96875 6.203125 31.203125 6.203125 
Q 40.71875 6.203125 46.296875 15.09375 
L 51.90625 11.375 
Q 44.828125 -0.484375 30.171875 -0.484375 
Q 19.09375 -0.484375 11.96875 6.59375 
Q 4.78125 13.8125 4.78125 25.640625 
Q 4.78125 38.1875 12.3125 45.703125 
Q 19 52.390625 29 52.390625 
Q 38.421875 52.390625 44.78125 46.1875 
Q 51.90625 38.96875 51.90625 26.90625 
L 51.90625 24.90625 
z
M 43.0625 31.203125 
Q 42.328125 37.984375 38.28125 41.890625 
Q 34.28125 45.90625 28.8125 45.90625 
Q 22.46875 45.90625 17.96875 40.484375 
Q 14.890625 36.8125 13.96875 31.203125 
z
" id="IPAexGothic-101"/>
       <path d="M 17.578125 42.671875 
Q 24.21875 52.203125 34.671875 52.203125 
Q 43.5625 52.203125 49.859375 45.90625 
Q 57.171875 38.578125 57.171875 25.6875 
Q 57.171875 13.09375 49.859375 5.8125 
Q 43.5625 -0.484375 34.46875 -0.484375 
Q 24.359375 -0.484375 17 8.0625 
L 15.765625 0.6875 
L 9.078125 0.6875 
L 9.078125 74.90625 
L 17.578125 74.90625 
z
M 17.578125 31.203125 
L 17.578125 19.578125 
Q 17.578125 13.875 23.875 9.375 
Q 28.171875 6.296875 33.109375 6.296875 
Q 38.875 6.296875 42.875 10.296875 
Q 48.1875 15.765625 48.1875 25.484375 
Q 48.1875 34.28125 43.796875 39.890625 
Q 39.453125 45.3125 33.203125 45.3125 
Q 27.484375 45.3125 22.46875 40.28125 
Q 17.578125 35.40625 17.578125 31.203125 
z
" id="IPAexGothic-98"/>
      </defs>
      <g transform="translate(57.260966 298.74925)scale(0.1 -0.1)">
       <use xlink:href="#IPAexGothic-70"/>
       <use x="57.177734" xlink:href="#IPAexGothic-101"/>
       <use x="114.0625" xlink:href="#IPAexGothic-98"/>
      </g>
     </g>
    </g>
    <g id="xtick_2">
     <g id="line2d_2">
      <g>
       <use style="stroke:#000000;stroke-width:0.8;" x="126.826222" xlink:href="#m3febc29530" y="284.258625"/>
      </g>
     </g>
     <g id="text_2">
      <!-- Mar -->
      <defs>
       <path d="M 80.421875 0.984375 
L 71.828125 0.984375 
L 71.828125 39.59375 
Q 71.828125 51.265625 72.40625 64.59375 
L 72.015625 64.59375 
Q 68.0625 53.265625 63.53125 41.796875 
L 47.90625 3.265625 
L 41.40625 3.265625 
L 25.640625 42.578125 
Q 20.75 54.78125 17.625 64.703125 
L 17.234375 64.703125 
Q 17.828125 48.921875 17.828125 39.890625 
L 17.828125 0.984375 
L 9.515625 0.984375 
L 9.515625 72.40625 
L 22.125 72.40625 
L 39.109375 30.375 
Q 42.140625 23 44.828125 14.15625 
L 45.125 14.15625 
Q 47.3125 22.125 50.53125 30.171875 
L 67.4375 72.40625 
L 80.421875 72.40625 
z
" id="IPAexGothic-77"/>
       <path d="M 49.3125 0.984375 
L 41.75 0.984375 
Q 39.984375 4.734375 39.546875 8.6875 
L 39.203125 8.6875 
Q 33.546875 -0.390625 22.3125 -0.390625 
Q 14.59375 -0.390625 9.71875 4.5 
Q 5.421875 8.796875 5.421875 14.984375 
Q 5.421875 30.421875 32.03125 31.203125 
L 38.71875 31.390625 
L 38.71875 33.984375 
Q 38.71875 39.203125 35.75 42.1875 
Q 32.625 45.3125 27.734375 45.3125 
Q 19.34375 45.3125 15.140625 37.15625 
L 7.71875 40.578125 
Q 14.65625 52 27.9375 52 
Q 37.109375 52 42.046875 46.875 
Q 46.625 42.28125 46.625 33.890625 
L 46.625 15.578125 
Q 46.625 6.25 49.3125 0.984375 
z
M 38.921875 25.390625 
L 33.453125 25.296875 
Q 14.109375 24.859375 14.109375 14.890625 
Q 14.109375 11.375 16.40625 9.078125 
Q 19.234375 6.296875 23.828125 6.296875 
Q 30.21875 6.296875 34.90625 10.984375 
Q 38.921875 15.140625 38.921875 21 
z
" id="IPAexGothic-97"/>
       <path d="M 36.078125 51.8125 
L 34.578125 43.265625 
Q 32.90625 43.609375 31.59375 43.609375 
Q 25.828125 43.609375 22.078125 38.1875 
Q 17.390625 31.34375 17.390625 26.171875 
L 17.390625 0.984375 
L 8.796875 0.984375 
L 8.796875 50.78125 
L 16.890625 50.78125 
L 16.5 35.984375 
L 16.703125 35.984375 
Q 22.21875 52.203125 32.765625 52.203125 
Q 34.46875 52.203125 36.078125 51.8125 
z
" id="IPAexGothic-114"/>
      </defs>
      <g transform="translate(117.716847 298.74925)scale(0.1 -0.1)">
       <use xlink:href="#IPAexGothic-77"/>
       <use x="90.185547" xlink:href="#IPAexGothic-97"/>
       <use x="145.166016" xlink:href="#IPAexGothic-114"/>
      </g>
     </g>
    </g>
    <g id="xtick_3">
     <g id="line2d_3">
      <g>
       <use style="stroke:#000000;stroke-width:0.8;" x="191.757131" xlink:href="#m3febc29530" y="284.258625"/>
      </g>
     </g>
     <g id="text_3">
      <!-- Apr -->
      <defs>
       <path d="M 63.375 0.984375 
L 53.8125 0.984375 
L 45.90625 22.015625 
L 17.1875 22.015625 
L 9.421875 0.984375 
L -0.09375 0.984375 
L 28.21875 72.90625 
L 35.296875 72.90625 
z
M 43.40625 29.109375 
L 36.1875 48.09375 
Q 33.203125 56.0625 31.6875 62.5 
L 31.390625 62.5 
Q 29.640625 55.671875 26.8125 48.09375 
L 19.734375 29.109375 
z
" id="IPAexGothic-65"/>
       <path d="M 16.796875 42 
Q 23.828125 52.203125 34.46875 52.203125 
Q 43.265625 52.203125 49.5625 45.90625 
Q 56.890625 38.578125 56.890625 25.6875 
Q 56.890625 13.140625 49.65625 5.8125 
Q 43.359375 -0.484375 34.375 -0.484375 
Q 24.515625 -0.484375 17.28125 7.765625 
L 17.28125 -19 
L 8.796875 -19 
L 8.796875 50.78125 
L 16.796875 50.78125 
z
M 17.28125 30.46875 
L 17.28125 20.171875 
Q 17.28125 14.015625 23.6875 9.375 
Q 27.984375 6.296875 32.90625 6.296875 
Q 38.578125 6.296875 42.578125 10.296875 
Q 47.90625 15.578125 47.90625 25.484375 
Q 47.90625 34.375 43.5 39.984375 
Q 39.109375 45.3125 32.8125 45.3125 
Q 25.875 45.3125 20.90625 38.8125 
Q 17.28125 34.125 17.28125 30.46875 
z
" id="IPAexGothic-112"/>
      </defs>
      <g transform="translate(183.614943 298.74925)scale(0.1 -0.1)">
       <use xlink:href="#IPAexGothic-65"/>
       <use x="63.720703" xlink:href="#IPAexGothic-112"/>
       <use x="125.830078" xlink:href="#IPAexGothic-114"/>
      </g>
     </g>
    </g>
    <g id="xtick_4">
     <g id="line2d_4">
      <g>
       <use style="stroke:#000000;stroke-width:0.8;" x="254.593494" xlink:href="#m3febc29530" y="284.258625"/>
      </g>
     </g>
     <g id="text_4">
      <!-- May -->
      <defs>
       <path d="M 48.78125 50.78125 
L 24.609375 -7.625 
Q 19.96875 -18.796875 8.59375 -18.796875 
L 7.46875 -18.796875 
L 5.375 -10.984375 
L 6.984375 -10.984375 
Q 15.140625 -10.984375 17.96875 -3.71875 
L 21.1875 4.296875 
L 0.59375 50.78125 
L 10.296875 50.78125 
L 21.296875 22.796875 
Q 23.875 16.015625 25.09375 12.203125 
L 25.390625 12.203125 
Q 27.34375 18.265625 29.109375 22.796875 
L 39.5 50.78125 
z
" id="IPAexGothic-121"/>
      </defs>
      <g transform="translate(244.873963 298.74925)scale(0.1 -0.1)">
       <use xlink:href="#IPAexGothic-77"/>
       <use x="90.185547" xlink:href="#IPAexGothic-97"/>
       <use x="145.166016" xlink:href="#IPAexGothic-121"/>
      </g>
     </g>
    </g>
    <g id="xtick_5">
     <g id="line2d_5">
      <g>
       <use style="stroke:#000000;stroke-width:0.8;" x="319.524403" xlink:href="#m3febc29530" y="284.258625"/>
      </g>
     </g>
     <g id="text_5">
      <!-- Jun -->
      <defs>
       <path d="M 28.421875 72.40625 
L 28.421875 19.28125 
Q 28.421875 -0.484375 11.921875 -0.484375 
Q 4.734375 -0.484375 -1.953125 3.265625 
L 1.3125 10.0625 
Q 5.90625 6.984375 10.84375 6.984375 
Q 19.53125 6.984375 19.53125 18.796875 
L 19.53125 72.40625 
z
" id="IPAexGothic-74"/>
       <path d="M 51.3125 0.984375 
L 43.3125 0.984375 
L 43.3125 10.0625 
Q 35.9375 0 25.390625 0 
Q 16.75 0 11.921875 5.859375 
Q 8.109375 10.59375 8.109375 19.390625 
L 8.109375 50.78125 
L 16.703125 50.78125 
L 16.703125 19.671875 
Q 16.703125 7.28125 27.09375 7.28125 
Q 37.59375 7.28125 42.71875 20.171875 
L 42.71875 50.78125 
L 51.3125 50.78125 
z
" id="IPAexGothic-117"/>
       <path d="M 52 0.984375 
L 43.40625 0.984375 
L 43.40625 31.890625 
Q 43.40625 44.578125 32.90625 44.578125 
Q 22.3125 44.578125 17.390625 31.890625 
L 17.390625 0.984375 
L 8.796875 0.984375 
L 8.796875 50.78125 
L 16.796875 50.78125 
L 16.796875 41.796875 
Q 23.828125 51.8125 34.71875 51.8125 
Q 52 51.8125 52 32.375 
z
" id="IPAexGothic-110"/>
      </defs>
      <g transform="translate(311.58456 298.74925)scale(0.1 -0.1)">
       <use xlink:href="#IPAexGothic-74"/>
       <use x="37.988281" xlink:href="#IPAexGothic-117"/>
       <use x="98.388672" xlink:href="#IPAexGothic-110"/>
      </g>
     </g>
    </g>
    <g id="xtick_6">
     <g id="line2d_6">
      <g>
       <use style="stroke:#000000;stroke-width:0.8;" x="382.360767" xlink:href="#m3febc29530" y="284.258625"/>
      </g>
     </g>
     <g id="text_6">
      <!-- Jul -->
      <defs>
       <path d="M 17.671875 0.984375 
L 9.078125 0.984375 
L 9.078125 74.90625 
L 17.671875 74.90625 
z
" id="IPAexGothic-108"/>
      </defs>
      <g transform="translate(376.091236 298.74925)scale(0.1 -0.1)">
       <use xlink:href="#IPAexGothic-74"/>
       <use x="37.988281" xlink:href="#IPAexGothic-117"/>
       <use x="98.388672" xlink:href="#IPAexGothic-108"/>
      </g>
     </g>
    </g>
    <g id="text_7">
     <!-- 2020 -->
     <defs>
      <path d="M 57.171875 0.984375 
L 6.984375 0.984375 
L 6.984375 9.28125 
Q 12.890625 23.046875 29.59375 34.421875 
L 32.375 36.28125 
Q 40.921875 42.140625 43.609375 45.40625 
Q 46.6875 49.265625 46.6875 53.8125 
Q 46.6875 58.9375 43.0625 62.546875 
Q 39.0625 66.546875 32.5625 66.546875 
Q 19.53125 66.546875 15.484375 52 
L 7.765625 54.78125 
Q 13.328125 73.828125 33.0625 73.828125 
Q 43.84375 73.828125 50.25 67.4375 
Q 55.859375 61.671875 55.859375 53.515625 
Q 55.859375 47.46875 52.25 42.53125 
Q 48.921875 37.75 36.96875 30.28125 
L 34.859375 29 
Q 19.625 19.578125 15.28125 8.890625 
L 57.171875 8.890625 
z
" id="IPAexGothic-50"/>
      <path d="M 31.84375 73.828125 
Q 45.015625 73.828125 52.09375 61.625 
Q 57.71875 51.953125 57.71875 36.625 
Q 57.71875 21.4375 52.09375 11.578125 
Q 45.125 -0.484375 31.5 -0.484375 
Q 17.921875 -0.484375 10.9375 11.578125 
Q 5.328125 21.4375 5.328125 36.71875 
Q 5.328125 58.015625 15.625 67.71875 
Q 22.171875 73.828125 31.84375 73.828125 
z
M 31.5 66.65625 
Q 23.6875 66.65625 19.1875 58.734375 
Q 14.59375 50.734375 14.59375 36.625 
Q 14.59375 22.75 19.09375 14.796875 
Q 23.640625 6.984375 31.5 6.984375 
Q 40.921875 6.984375 45.453125 18.015625 
Q 48.4375 25.34375 48.4375 37.109375 
Q 48.4375 50.875 43.84375 58.734375 
Q 39.203125 66.65625 31.5 66.65625 
z
" id="IPAexGothic-48"/>
     </defs>
     <g transform="translate(365.021562 311.139875)scale(0.1 -0.1)">
      <use xlink:href="#IPAexGothic-50"/>
      <use x="62.988281" xlink:href="#IPAexGothic-48"/>
      <use x="125.976562" xlink:href="#IPAexGothic-50"/>
      <use x="188.964844" xlink:href="#IPAexGothic-48"/>
     </g>
    </g>
   </g>
   <g id="matplotlib.axis_2">
    <g id="ytick_1">
     <g id="line2d_7">
      <defs>
       <path d="M 0 0 
L -3.5 0 
" id="m398e8557c3" style="stroke:#000000;stroke-width:0.8;"/>
      </defs>
      <g>
       <use style="stroke:#000000;stroke-width:0.8;" x="33.095313" xlink:href="#m398e8557c3" y="284.258625"/>
      </g>
     </g>
     <g id="text_8">
      <!-- 0 -->
      <g transform="translate(19.796875 288.003937)scale(0.1 -0.1)">
       <use xlink:href="#IPAexGothic-48"/>
      </g>
     </g>
    </g>
    <g id="ytick_2">
     <g id="line2d_8">
      <g>
       <use style="stroke:#000000;stroke-width:0.8;" x="33.095313" xlink:href="#m398e8557c3" y="253.501343"/>
      </g>
     </g>
     <g id="text_9">
      <!-- 25 -->
      <defs>
       <path d="M 18.40625 40.671875 
Q 25.53125 46.296875 33.9375 46.296875 
Q 44 46.296875 50.640625 39.5 
Q 56.84375 33.015625 56.84375 23.390625 
Q 56.84375 14.65625 51.515625 8.015625 
Q 44.828125 -0.484375 31.734375 -0.484375 
Q 14.984375 -0.484375 7.328125 12.25 
L 14.65625 16.0625 
Q 20.453125 6.78125 31.453125 6.78125 
Q 38.53125 6.78125 43.265625 11.1875 
Q 48.140625 15.828125 48.140625 23.484375 
Q 48.140625 30.71875 43.84375 35.015625 
Q 39.359375 39.5 32.125 39.5 
Q 21.96875 39.5 16.75 31.6875 
L 9.234375 32.671875 
L 13.8125 72.40625 
L 53.21875 72.40625 
L 53.21875 64.890625 
L 20.953125 64.890625 
L 17.71875 40.671875 
z
" id="IPAexGothic-53"/>
      </defs>
      <g transform="translate(13.498438 257.246656)scale(0.1 -0.1)">
       <use xlink:href="#IPAexGothic-50"/>
       <use x="62.988281" xlink:href="#IPAexGothic-53"/>
      </g>
     </g>
    </g>
    <g id="ytick_3">
     <g id="line2d_9">
      <g>
       <use style="stroke:#000000;stroke-width:0.8;" x="33.095313" xlink:href="#m398e8557c3" y="222.744062"/>
      </g>
     </g>
     <g id="text_10">
      <!-- 50 -->
      <g transform="translate(13.498438 226.489374)scale(0.1 -0.1)">
       <use xlink:href="#IPAexGothic-53"/>
       <use x="62.988281" xlink:href="#IPAexGothic-48"/>
      </g>
     </g>
    </g>
    <g id="ytick_4">
     <g id="line2d_10">
      <g>
       <use style="stroke:#000000;stroke-width:0.8;" x="33.095313" xlink:href="#m398e8557c3" y="191.98678"/>
      </g>
     </g>
     <g id="text_11">
      <!-- 75 -->
      <defs>
       <path d="M 56.203125 66.609375 
Q 34.96875 32.90625 27.78125 0.984375 
L 17.671875 0.984375 
Q 24.703125 28.65625 46.09375 64.5 
L 6.6875 64.5 
L 6.6875 72.40625 
L 56.203125 72.40625 
z
" id="IPAexGothic-55"/>
      </defs>
      <g transform="translate(13.498438 195.732093)scale(0.1 -0.1)">
       <use xlink:href="#IPAexGothic-55"/>
       <use x="62.988281" xlink:href="#IPAexGothic-53"/>
      </g>
     </g>
    </g>
    <g id="ytick_5">
     <g id="line2d_11">
      <g>
       <use style="stroke:#000000;stroke-width:0.8;" x="33.095313" xlink:href="#m398e8557c3" y="161.229499"/>
      </g>
     </g>
     <g id="text_12">
      <!-- 100 -->
      <defs>
       <path d="M 38.484375 0.984375 
L 29.6875 0.984375 
L 29.6875 64.109375 
Q 21.4375 61.28125 12.3125 59.328125 
L 10.6875 66.109375 
Q 23.734375 69.390625 32.90625 73.921875 
L 38.484375 73.921875 
z
" id="IPAexGothic-49"/>
      </defs>
      <g transform="translate(7.2 164.974811)scale(0.1 -0.1)">
       <use xlink:href="#IPAexGothic-49"/>
       <use x="62.988281" xlink:href="#IPAexGothic-48"/>
       <use x="125.976562" xlink:href="#IPAexGothic-48"/>
      </g>
     </g>
    </g>
    <g id="ytick_6">
     <g id="line2d_12">
      <g>
       <use style="stroke:#000000;stroke-width:0.8;" x="33.095313" xlink:href="#m398e8557c3" y="130.472217"/>
      </g>
     </g>
     <g id="text_13">
      <!-- 125 -->
      <g transform="translate(7.2 134.21753)scale(0.1 -0.1)">
       <use xlink:href="#IPAexGothic-49"/>
       <use x="62.988281" xlink:href="#IPAexGothic-50"/>
       <use x="125.976562" xlink:href="#IPAexGothic-53"/>
      </g>
     </g>
    </g>
    <g id="ytick_7">
     <g id="line2d_13">
      <g>
       <use style="stroke:#000000;stroke-width:0.8;" x="33.095313" xlink:href="#m398e8557c3" y="99.714936"/>
      </g>
     </g>
     <g id="text_14">
      <!-- 150 -->
      <g transform="translate(7.2 103.460248)scale(0.1 -0.1)">
       <use xlink:href="#IPAexGothic-49"/>
       <use x="62.988281" xlink:href="#IPAexGothic-53"/>
       <use x="125.976562" xlink:href="#IPAexGothic-48"/>
      </g>
     </g>
    </g>
    <g id="ytick_8">
     <g id="line2d_14">
      <g>
       <use style="stroke:#000000;stroke-width:0.8;" x="33.095313" xlink:href="#m398e8557c3" y="68.957654"/>
      </g>
     </g>
     <g id="text_15">
      <!-- 175 -->
      <g transform="translate(7.2 72.702967)scale(0.1 -0.1)">
       <use xlink:href="#IPAexGothic-49"/>
       <use x="62.988281" xlink:href="#IPAexGothic-55"/>
       <use x="125.976562" xlink:href="#IPAexGothic-53"/>
      </g>
     </g>
    </g>
    <g id="ytick_9">
     <g id="line2d_15">
      <g>
       <use style="stroke:#000000;stroke-width:0.8;" x="33.095313" xlink:href="#m398e8557c3" y="38.200373"/>
      </g>
     </g>
     <g id="text_16">
      <!-- 200 -->
      <g transform="translate(7.2 41.945685)scale(0.1 -0.1)">
       <use xlink:href="#IPAexGothic-50"/>
       <use x="62.988281" xlink:href="#IPAexGothic-48"/>
       <use x="125.976562" xlink:href="#IPAexGothic-48"/>
      </g>
     </g>
    </g>
   </g>
   <g id="patch_158">
    <path d="M 33.095313 284.258625 
L 33.095313 18.146625 
" style="fill:none;stroke:#000000;stroke-linecap:square;stroke-linejoin:miter;stroke-width:0.8;"/>
   </g>
   <g id="patch_159">
    <path d="M 390.215312 284.258625 
L 390.215312 18.146625 
" style="fill:none;stroke:#000000;stroke-linecap:square;stroke-linejoin:miter;stroke-width:0.8;"/>
   </g>
   <g id="patch_160">
    <path d="M 33.095312 284.258625 
L 390.215312 284.258625 
" style="fill:none;stroke:#000000;stroke-linecap:square;stroke-linejoin:miter;stroke-width:0.8;"/>
   </g>
   <g id="patch_161">
    <path d="M 33.095312 18.146625 
L 390.215312 18.146625 
" style="fill:none;stroke:#000000;stroke-linecap:square;stroke-linejoin:miter;stroke-width:0.8;"/>
   </g>
   <g id="legend_1">
    <g id="patch_162">
     <path d="M 40.095313 40.595062 
L 150.59375 40.595062 
Q 152.59375 40.595062 152.59375 38.595062 
L 152.59375 25.146625 
Q 152.59375 23.146625 150.59375 23.146625 
L 40.095313 23.146625 
Q 38.095313 23.146625 38.095313 25.146625 
L 38.095313 38.595062 
Q 38.095313 40.595062 40.095313 40.595062 
z
" style="fill:#ffffff;opacity:0.8;stroke:#cccccc;stroke-linejoin:miter;"/>
    </g>
    <g id="patch_163">
     <path d="M 42.095313 34.695062 
L 62.095313 34.695062 
L 62.095313 27.695062 
L 42.095313 27.695062 
z
" style="fill:#ff7f0e;stroke:#000000;stroke-linejoin:miter;"/>
    </g>
    <g id="text_17">
     <!-- Tokyo confirmed -->
     <defs>
      <path d="M 60.40625 64.703125 
L 33.984375 64.703125 
L 33.984375 0.984375 
L 25.09375 0.984375 
L 25.09375 64.703125 
L -0.484375 64.703125 
L -0.484375 72.40625 
L 60.40625 72.40625 
z
" id="IPAexGothic-84"/>
      <path d="M 29.984375 52.203125 
Q 40.53125 52.203125 47.75 45.125 
Q 55.171875 37.703125 55.171875 25.59375 
Q 55.171875 13.875 47.90625 6.59375 
Q 40.765625 -0.484375 29.984375 -0.484375 
Q 19.1875 -0.484375 12.203125 6.5 
Q 4.890625 13.765625 4.890625 25.875 
Q 4.890625 37.703125 12.3125 45.125 
Q 19.390625 52.203125 29.984375 52.203125 
z
M 29.984375 45.609375 
Q 23.734375 45.609375 19.390625 41.109375 
Q 13.875 35.59375 13.875 25.78125 
Q 13.875 16.109375 19.28125 10.6875 
Q 23.6875 6.296875 29.984375 6.296875 
Q 36.421875 6.296875 40.765625 10.796875 
Q 46.1875 16.21875 46.1875 26.125 
Q 46.1875 35.453125 40.671875 41.109375 
Q 36.1875 45.609375 29.984375 45.609375 
z
" id="IPAexGothic-111"/>
      <path d="M 50.6875 0.984375 
L 40.28125 0.984375 
L 23.1875 25.203125 
L 17.484375 19.671875 
L 17.484375 0.984375 
L 9.078125 0.984375 
L 9.078125 74.90625 
L 17.484375 74.90625 
L 17.484375 27.59375 
L 38.484375 50.78125 
L 49.265625 50.78125 
L 28.5625 30.078125 
z
" id="IPAexGothic-107"/>
      <path id="IPAexGothic-32"/>
      <path d="M 51.078125 12.25 
Q 44.28125 -0.484375 29.6875 -0.484375 
Q 19.1875 -0.484375 12.3125 6.390625 
Q 4.890625 13.921875 4.890625 25.984375 
Q 4.890625 37.9375 12.3125 45.515625 
Q 19.09375 52.296875 29.390625 52.296875 
Q 43.953125 52.296875 50.09375 39.703125 
L 43.171875 36.078125 
Q 38.8125 45.3125 29.6875 45.3125 
Q 23.6875 45.3125 19.28125 40.921875 
Q 13.765625 35.40625 13.765625 25.78125 
Q 13.765625 16.703125 19.09375 11.375 
Q 23.78125 6.6875 30.5625 6.6875 
Q 39.796875 6.6875 44.484375 15.875 
z
" id="IPAexGothic-99"/>
      <path d="M 38.375 72.21875 
L 34.8125 66.3125 
Q 31.109375 69.09375 27.203125 69.09375 
Q 18.5 69.09375 18.5 57.375 
L 18.5 50.78125 
L 32.078125 50.78125 
L 32.078125 44.671875 
L 18.5 44.671875 
L 18.5 0.984375 
L 10.015625 0.984375 
L 10.015625 44.671875 
L 1.90625 44.671875 
L 1.90625 50.78125 
L 10.015625 50.78125 
L 10.015625 57.171875 
Q 10.015625 65.4375 13.921875 70.0625 
Q 18.75 75.6875 26.703125 75.6875 
Q 33.0625 75.6875 38.375 72.21875 
z
" id="IPAexGothic-102"/>
      <path d="M 18.40625 61.375 
L 8.59375 61.375 
L 8.59375 71.390625 
L 18.40625 71.390625 
z
M 17.78125 0.984375 
L 9.1875 0.984375 
L 9.1875 50.78125 
L 17.78125 50.78125 
z
" id="IPAexGothic-105"/>
      <path d="M 78.46875 0.984375 
L 69.875 0.984375 
L 69.875 32.171875 
Q 69.875 44.828125 60.109375 44.828125 
Q 55.46875 44.828125 51.609375 40.53125 
Q 48.875 37.453125 47.796875 32.859375 
L 47.796875 0.984375 
L 39.203125 0.984375 
L 39.203125 32.28125 
Q 39.203125 44.828125 29.984375 44.828125 
Q 25.09375 44.828125 21.390625 40.53125 
Q 17.390625 36.03125 17.390625 31.890625 
L 17.390625 0.984375 
L 8.796875 0.984375 
L 8.796875 50.78125 
L 16.796875 50.78125 
L 16.796875 42.1875 
Q 21.734375 51.8125 31.6875 51.8125 
Q 42.578125 51.8125 46.1875 41.359375 
Q 51.609375 51.8125 61.765625 51.8125 
Q 69.96875 51.8125 74.5625 46 
Q 78.46875 41.21875 78.46875 32.375 
z
" id="IPAexGothic-109"/>
      <path d="M 52.984375 0.984375 
L 45.171875 0.984375 
L 45.171875 9.671875 
Q 38.140625 -0.484375 27.390625 -0.484375 
Q 18.453125 -0.484375 12.3125 5.8125 
Q 4.890625 13.1875 4.890625 25.984375 
Q 4.890625 38.53125 12.0625 45.90625 
Q 18.265625 52.203125 27.390625 52.203125 
Q 37.25 52.203125 44.484375 43.890625 
L 44.484375 74.90625 
L 52.984375 74.90625 
z
M 44.484375 20.359375 
L 44.484375 32.765625 
Q 44.484375 37.703125 38.375 42.28125 
Q 34.078125 45.40625 28.953125 45.40625 
Q 23.1875 45.40625 19.1875 41.40625 
Q 13.875 36.078125 13.875 26.21875 
Q 13.875 17.328125 18.265625 11.71875 
Q 22.515625 6.390625 28.859375 6.390625 
Q 36.28125 6.390625 41.5 13.671875 
Q 44.484375 17.71875 44.484375 20.359375 
z
" id="IPAexGothic-100"/>
     </defs>
     <g transform="translate(70.095313 34.695062)scale(0.1 -0.1)">
      <use xlink:href="#IPAexGothic-84"/>
      <use x="59.912109" xlink:href="#IPAexGothic-111"/>
      <use x="120.3125" xlink:href="#IPAexGothic-107"/>
      <use x="172.119141" xlink:href="#IPAexGothic-121"/>
      <use x="221.337891" xlink:href="#IPAexGothic-111"/>
      <use x="281.738281" xlink:href="#IPAexGothic-32"/>
      <use x="308.740234" xlink:href="#IPAexGothic-99"/>
      <use x="363.134766" xlink:href="#IPAexGothic-111"/>
      <use x="423.535156" xlink:href="#IPAexGothic-110"/>
      <use x="483.935547" xlink:href="#IPAexGothic-102"/>
      <use x="514.550781" xlink:href="#IPAexGothic-105"/>
      <use x="541.552734" xlink:href="#IPAexGothic-114"/>
      <use x="578.564453" xlink:href="#IPAexGothic-109"/>
      <use x="665.673828" xlink:href="#IPAexGothic-101"/>
      <use x="722.558594" xlink:href="#IPAexGothic-100"/>
     </g>
    </g>
   </g>
  </g>
  <g id="text_18">
   <!-- generated: 2020-06-26 19:13:12 JST -->
   <defs>
    <path d="M 20.796875 17.96875 
Q 15.71875 17.53125 15.71875 14.0625 
Q 15.71875 9.578125 27.546875 8.984375 
L 33.296875 8.6875 
Q 51.609375 7.765625 51.609375 -4.59375 
Q 51.609375 -10.9375 45.703125 -14.984375 
Q 39.359375 -19.578125 28.03125 -19.578125 
Q 17.78125 -19.578125 11.53125 -16.0625 
Q 5.515625 -12.640625 5.515625 -6.6875 
Q 5.515625 1.3125 16.796875 3.859375 
L 16.796875 4.203125 
Q 7.90625 6.453125 7.90625 12.15625 
Q 7.90625 17.4375 15.53125 20.265625 
Q 7.125 24.609375 7.125 34.078125 
Q 7.125 41.40625 12.015625 46.296875 
Q 17.625 51.90625 27.15625 51.90625 
Q 33.203125 51.90625 37.84375 49.265625 
Q 41.40625 53.953125 50.921875 54.109375 
L 50.921875 47.078125 
Q 44.34375 46.921875 42.234375 45.90625 
Q 47.40625 40.828125 47.40625 33.890625 
Q 47.40625 27 42.71875 22.265625 
Q 37.5 17.09375 28.328125 17.09375 
Q 24.421875 17.09375 20.796875 17.96875 
z
M 27.09375 45.609375 
Q 22.015625 45.609375 18.703125 42.28125 
Q 15.4375 39.015625 15.4375 34.078125 
Q 15.4375 29.25 18.5 26.3125 
Q 21.828125 23 27.4375 23 
Q 32.71875 23 35.890625 26.21875 
Q 39.109375 29.390625 39.109375 34.421875 
Q 39.109375 39.015625 35.890625 42.1875 
Q 32.515625 45.609375 27.09375 45.609375 
z
M 27.390625 2.484375 
Q 14.109375 2.484375 14.109375 -5.71875 
Q 14.109375 -13.671875 28.125 -13.671875 
Q 37.15625 -13.671875 41.21875 -9.46875 
Q 43.3125 -7.515625 43.3125 -4.890625 
Q 43.3125 2.484375 27.390625 2.484375 
z
" id="IPAexGothic-103"/>
    <path d="M 33.203125 3.765625 
Q 27.640625 -0.09375 21.828125 -0.09375 
Q 10.203125 -0.09375 10.203125 12.984375 
L 10.203125 44.671875 
L 3.421875 44.671875 
L 3.421875 50.78125 
L 10.203125 50.78125 
L 10.203125 61.96875 
L 18.40625 66.0625 
L 18.40625 50.78125 
L 32.234375 50.78125 
L 32.234375 44.671875 
L 18.40625 44.671875 
L 18.40625 14.15625 
Q 18.40625 6.5 23.640625 6.5 
Q 27.15625 6.5 30.328125 9.1875 
z
" id="IPAexGothic-116"/>
    <path d="M 21.390625 39.984375 
L 10.5 39.984375 
L 10.5 50.78125 
L 21.390625 50.78125 
z
M 21.390625 0.984375 
L 10.5 0.984375 
L 10.5 11.765625 
L 21.390625 11.765625 
z
" id="IPAexGothic-58"/>
    <path d="M 30.765625 26.609375 
L 4.984375 26.609375 
L 4.984375 34.421875 
L 30.765625 34.421875 
z
" id="IPAexGothic-45"/>
    <path d="M 16.5 36.375 
Q 23.578125 46.578125 34.90625 46.578125 
Q 45.40625 46.578125 51.8125 39.265625 
Q 57.421875 32.90625 57.421875 23.78125 
Q 57.421875 13.8125 51.125 6.78125 
Q 44.578125 -0.484375 34.03125 -0.484375 
Q 21.484375 -0.484375 14.40625 9.078125 
Q 7.515625 18.40625 7.515625 34.8125 
Q 7.515625 53.515625 15.828125 64.203125 
Q 23.34375 73.828125 35.5 73.828125 
Q 49.859375 73.828125 56.390625 62.890625 
L 49.21875 58.984375 
Q 45.21875 66.65625 35.9375 66.65625 
Q 17.484375 66.65625 16.109375 36.375 
z
M 33.453125 39.796875 
Q 26.3125 39.796875 21.625 34.46875 
Q 17.4375 29.6875 17.4375 24.078125 
Q 17.4375 18.0625 21.140625 13.1875 
Q 26.125 6.6875 33.734375 6.6875 
Q 41.703125 6.6875 45.953125 13.1875 
Q 48.828125 17.625 48.828125 23.484375 
Q 48.828125 30.375 45.015625 34.8125 
Q 40.625 39.796875 33.453125 39.796875 
z
" id="IPAexGothic-54"/>
    <path d="M 46.625 36.8125 
Q 39.75 26.8125 28.328125 26.8125 
Q 19.578125 26.8125 13.234375 32.125 
Q 5.71875 38.421875 5.71875 49.421875 
Q 5.71875 59.578125 12.015625 66.65625 
Q 18.453125 73.828125 29.203125 73.828125 
Q 43.75 73.828125 50.640625 61.71875 
Q 55.609375 52.78125 55.609375 38.625 
Q 55.609375 19.53125 47.515625 9.1875 
Q 39.890625 -0.484375 27.640625 -0.484375 
Q 13.421875 -0.484375 6.109375 10.984375 
L 13.328125 14.890625 
Q 18.0625 6.6875 27.390625 6.6875 
Q 45.65625 6.6875 47.015625 36.8125 
z
M 29.5 66.84375 
Q 22.65625 66.84375 18.3125 61.71875 
Q 14.40625 57.078125 14.40625 50 
Q 14.40625 42.828125 18.109375 38.71875 
Q 22.40625 33.796875 29.78125 33.796875 
Q 37.984375 33.796875 42.625 40.1875 
Q 45.703125 44.484375 45.703125 49.515625 
Q 45.703125 55.515625 42.09375 60.359375 
Q 37.109375 66.84375 29.5 66.84375 
z
" id="IPAexGothic-57"/>
    <path d="M 37.203125 37.796875 
Q 54.78125 34.625 54.78125 19.96875 
Q 54.78125 11.1875 48.875 5.5625 
Q 42.328125 -0.484375 30.375 -0.484375 
Q 12.453125 -0.484375 4.5 13.765625 
L 11.8125 17.671875 
Q 17.328125 6.890625 30.28125 6.890625 
Q 37.890625 6.890625 42.09375 10.796875 
Q 46.09375 14.5 46.09375 20.171875 
Q 46.09375 26.859375 40.09375 30.90625 
Q 34.625 34.578125 25.6875 34.578125 
L 21.296875 34.578125 
L 21.296875 41.703125 
L 25.875 41.703125 
Q 34.859375 41.703125 39.59375 45.125 
Q 44.671875 48.734375 44.671875 54.828125 
Q 44.671875 61.46875 38.96875 64.65625 
Q 35.296875 66.84375 30.171875 66.84375 
Q 19.34375 66.84375 14.109375 55.90625 
L 6.78125 59.421875 
Q 14.015625 73.828125 30.28125 73.828125 
Q 40.578125 73.828125 46.96875 68.65625 
Q 53.375 63.578125 53.375 55.21875 
Q 53.375 47.3125 47.171875 42.28125 
Q 43.171875 39.0625 37.203125 38.1875 
z
" id="IPAexGothic-51"/>
    <path d="M 45.609375 56.890625 
Q 40.046875 66.546875 28.953125 66.546875 
Q 22.703125 66.546875 18.953125 62.640625 
Q 16.0625 59.421875 16.0625 55.21875 
Q 16.0625 50.59375 19.78125 47.609375 
Q 22.5625 45.515625 31 42 
L 34.375 40.578125 
Q 45.703125 36.03125 49.859375 30.515625 
Q 53.46875 25.6875 53.46875 19.671875 
Q 53.46875 10.0625 46.390625 4.5 
Q 39.984375 -0.484375 30.171875 -0.484375 
Q 13.765625 -0.484375 4.890625 11.96875 
L 11.765625 17.1875 
Q 18.796875 7.171875 30.28125 7.171875 
Q 35.75 7.171875 39.59375 9.765625 
Q 44.390625 13.234375 44.390625 19 
Q 44.390625 23.484375 40.875 27 
Q 37.109375 30.609375 27 34.46875 
L 24.078125 35.59375 
Q 7.078125 42.09375 7.078125 54.390625 
Q 7.078125 62.59375 12.59375 67.921875 
Q 18.796875 73.828125 29.109375 73.828125 
Q 44.390625 73.828125 52.484375 61.8125 
z
" id="IPAexGothic-83"/>
   </defs>
   <g transform="translate(213.980938 14.690625)scale(0.1 -0.1)">
    <use xlink:href="#IPAexGothic-103"/>
    <use x="55.517578" xlink:href="#IPAexGothic-101"/>
    <use x="112.402344" xlink:href="#IPAexGothic-110"/>
    <use x="172.802734" xlink:href="#IPAexGothic-101"/>
    <use x="229.6875" xlink:href="#IPAexGothic-114"/>
    <use x="266.699219" xlink:href="#IPAexGothic-97"/>
    <use x="321.679688" xlink:href="#IPAexGothic-116"/>
    <use x="356.298828" xlink:href="#IPAexGothic-101"/>
    <use x="413.183594" xlink:href="#IPAexGothic-100"/>
    <use x="475.585938" xlink:href="#IPAexGothic-58"/>
    <use x="507.568359" xlink:href="#IPAexGothic-32"/>
    <use x="534.570312" xlink:href="#IPAexGothic-50"/>
    <use x="597.558594" xlink:href="#IPAexGothic-48"/>
    <use x="660.546875" xlink:href="#IPAexGothic-50"/>
    <use x="723.535156" xlink:href="#IPAexGothic-48"/>
    <use x="786.523438" xlink:href="#IPAexGothic-45"/>
    <use x="822.314453" xlink:href="#IPAexGothic-48"/>
    <use x="885.302734" xlink:href="#IPAexGothic-54"/>
    <use x="948.291016" xlink:href="#IPAexGothic-45"/>
    <use x="984.082031" xlink:href="#IPAexGothic-50"/>
    <use x="1047.070312" xlink:href="#IPAexGothic-54"/>
    <use x="1110.058594" xlink:href="#IPAexGothic-32"/>
    <use x="1137.060547" xlink:href="#IPAexGothic-49"/>
    <use x="1200.048828" xlink:href="#IPAexGothic-57"/>
    <use x="1263.037109" xlink:href="#IPAexGothic-58"/>
    <use x="1295.019531" xlink:href="#IPAexGothic-49"/>
    <use x="1358.007812" xlink:href="#IPAexGothic-51"/>
    <use x="1420.996094" xlink:href="#IPAexGothic-58"/>
    <use x="1452.978516" xlink:href="#IPAexGothic-49"/>
    <use x="1515.966797" xlink:href="#IPAexGothic-50"/>
    <use x="1578.955078" xlink:href="#IPAexGothic-32"/>
    <use x="1605.957031" xlink:href="#IPAexGothic-74"/>
    <use x="1643.945312" xlink:href="#IPAexGothic-83"/>
    <use x="1702.441406" xlink:href="#IPAexGothic-84"/>
   </g>
  </g>
 </g>
 <defs>
  <clipPath id="pd4281fe68a">
   <rect height="266.112" width="357.12" x="33.095313" y="18.146625"/>
  </clipPath>
 </defs>
</svg>
