<?xml version="1.0" encoding="utf-8" standalone="no"?>
<!DOCTYPE svg PUBLIC "-//W3C//DTD SVG 1.1//EN"
  "http://www.w3.org/Graphics/SVG/1.1/DTD/svg11.dtd">
<!-- Created with matplotlib (https://matplotlib.org/) -->
<svg height="309.29325pt" version="1.1" viewBox="0 0 393.759062 309.29325" width="393.759062pt" xmlns="http://www.w3.org/2000/svg" xmlns:xlink="http://www.w3.org/1999/xlink">
 <defs>
  <style type="text/css">
*{stroke-linecap:butt;stroke-linejoin:round;}
  </style>
 </defs>
 <g id="figure_1">
  <g id="patch_1">
   <path d="M 0 309.29325 
L 393.759062 309.29325 
L 393.759062 0 
L 0 0 
z
" style="fill:#ffffff;"/>
  </g>
  <g id="axes_1">
   <g id="patch_2">
    <path d="M 29.439063 273.312 
L 386.559062 273.312 
L 386.559062 7.2 
L 29.439063 7.2 
z
" style="fill:#ffffff;"/>
   </g>
   <g id="matplotlib.axis_1">
    <g id="xtick_1">
     <g id="line2d_1">
      <defs>
       <path d="M 0 0 
L 0 3.5 
" id="m7b9c56eed3" style="stroke:#000000;stroke-width:0.8;"/>
      </defs>
      <g>
       <use style="stroke:#000000;stroke-width:0.8;" x="49.361046" xlink:href="#m7b9c56eed3" y="273.312"/>
      </g>
     </g>
     <g id="text_1">
      <!-- 08 -->
      <defs>
       <path d="M 31.84375 73.828125 
Q 45.015625 73.828125 52.09375 61.625 
Q 57.71875 51.953125 57.71875 36.625 
Q 57.71875 21.4375 52.09375 11.578125 
Q 45.125 -0.484375 31.5 -0.484375 
Q 17.921875 -0.484375 10.9375 11.578125 
Q 5.328125 21.4375 5.328125 36.71875 
Q 5.328125 58.015625 15.625 67.71875 
Q 22.171875 73.828125 31.84375 73.828125 
z
M 31.5 66.65625 
Q 23.6875 66.65625 19.1875 58.734375 
Q 14.59375 50.734375 14.59375 36.625 
Q 14.59375 22.75 19.09375 14.796875 
Q 23.640625 6.984375 31.5 6.984375 
Q 40.921875 6.984375 45.453125 18.015625 
Q 48.4375 25.34375 48.4375 37.109375 
Q 48.4375 50.875 43.84375 58.734375 
Q 39.203125 66.65625 31.5 66.65625 
z
" id="IPAexGothic-48"/>
       <path d="M 39.703125 37.890625 
Q 57.8125 31.734375 57.8125 18.703125 
Q 57.8125 8.453125 48.4375 3.078125 
Q 41.609375 -0.875 31.5 -0.875 
Q 21.34375 -0.875 14.5 3.078125 
Q 5.421875 8.296875 5.421875 18.40625 
Q 5.421875 31.0625 22.015625 37.203125 
L 22.015625 37.5 
Q 7.515625 42.71875 7.515625 54.828125 
Q 7.515625 64.0625 15.328125 69.625 
Q 21.96875 74.3125 31.546875 74.3125 
Q 42.234375 74.3125 48.921875 68.796875 
Q 55.515625 63.578125 55.515625 55.71875 
Q 55.515625 42.28125 39.703125 38.1875 
z
M 31.59375 41.015625 
Q 46.828125 44.625 46.828125 55.125 
Q 46.828125 61.1875 41.796875 64.84375 
Q 37.703125 67.921875 31.5 67.921875 
Q 25.09375 67.921875 20.796875 64.5 
Q 16.40625 60.890625 16.40625 55.03125 
Q 16.40625 49.21875 21.09375 45.703125 
Q 23.34375 43.890625 26.90625 42.53125 
Q 31 40.875 31.59375 41.015625 
z
M 30.90625 34.515625 
Q 14.40625 30.171875 14.40625 19 
Q 14.40625 12.109375 20.515625 8.6875 
Q 25.09375 6.109375 31.390625 6.109375 
Q 40.234375 6.109375 45.015625 10.890625 
Q 48.53125 14.40625 48.53125 19.53125 
Q 48.53125 24.90625 43.65625 28.90625 
Q 40.765625 31.15625 36.71875 32.8125 
Q 31.984375 34.71875 30.90625 34.515625 
z
" id="IPAexGothic-56"/>
      </defs>
      <g transform="translate(43.062608 287.802625)scale(0.1 -0.1)">
       <use xlink:href="#IPAexGothic-48"/>
       <use x="62.988281" xlink:href="#IPAexGothic-56"/>
      </g>
     </g>
    </g>
    <g id="xtick_2">
     <g id="line2d_2">
      <g>
       <use style="stroke:#000000;stroke-width:0.8;" x="101.010633" xlink:href="#m7b9c56eed3" y="273.312"/>
      </g>
     </g>
     <g id="text_2">
      <!-- 15 -->
      <defs>
       <path d="M 38.484375 0.984375 
L 29.6875 0.984375 
L 29.6875 64.109375 
Q 21.4375 61.28125 12.3125 59.328125 
L 10.6875 66.109375 
Q 23.734375 69.390625 32.90625 73.921875 
L 38.484375 73.921875 
z
" id="IPAexGothic-49"/>
       <path d="M 18.40625 40.671875 
Q 25.53125 46.296875 33.9375 46.296875 
Q 44 46.296875 50.640625 39.5 
Q 56.84375 33.015625 56.84375 23.390625 
Q 56.84375 14.65625 51.515625 8.015625 
Q 44.828125 -0.484375 31.734375 -0.484375 
Q 14.984375 -0.484375 7.328125 12.25 
L 14.65625 16.0625 
Q 20.453125 6.78125 31.453125 6.78125 
Q 38.53125 6.78125 43.265625 11.1875 
Q 48.140625 15.828125 48.140625 23.484375 
Q 48.140625 30.71875 43.84375 35.015625 
Q 39.359375 39.5 32.125 39.5 
Q 21.96875 39.5 16.75 31.6875 
L 9.234375 32.671875 
L 13.8125 72.40625 
L 53.21875 72.40625 
L 53.21875 64.890625 
L 20.953125 64.890625 
L 17.71875 40.671875 
z
" id="IPAexGothic-53"/>
      </defs>
      <g transform="translate(94.712195 287.802625)scale(0.1 -0.1)">
       <use xlink:href="#IPAexGothic-49"/>
       <use x="62.988281" xlink:href="#IPAexGothic-53"/>
      </g>
     </g>
    </g>
    <g id="xtick_3">
     <g id="line2d_3">
      <g>
       <use style="stroke:#000000;stroke-width:0.8;" x="152.66022" xlink:href="#m7b9c56eed3" y="273.312"/>
      </g>
     </g>
     <g id="text_3">
      <!-- 22 -->
      <defs>
       <path d="M 57.171875 0.984375 
L 6.984375 0.984375 
L 6.984375 9.28125 
Q 12.890625 23.046875 29.59375 34.421875 
L 32.375 36.28125 
Q 40.921875 42.140625 43.609375 45.40625 
Q 46.6875 49.265625 46.6875 53.8125 
Q 46.6875 58.9375 43.0625 62.546875 
Q 39.0625 66.546875 32.5625 66.546875 
Q 19.53125 66.546875 15.484375 52 
L 7.765625 54.78125 
Q 13.328125 73.828125 33.0625 73.828125 
Q 43.84375 73.828125 50.25 67.4375 
Q 55.859375 61.671875 55.859375 53.515625 
Q 55.859375 47.46875 52.25 42.53125 
Q 48.921875 37.75 36.96875 30.28125 
L 34.859375 29 
Q 19.625 19.578125 15.28125 8.890625 
L 57.171875 8.890625 
z
" id="IPAexGothic-50"/>
      </defs>
      <g transform="translate(146.361782 287.802625)scale(0.1 -0.1)">
       <use xlink:href="#IPAexGothic-50"/>
       <use x="62.988281" xlink:href="#IPAexGothic-50"/>
      </g>
     </g>
    </g>
    <g id="xtick_4">
     <g id="line2d_4">
      <g>
       <use style="stroke:#000000;stroke-width:0.8;" x="211.688319" xlink:href="#m7b9c56eed3" y="273.312"/>
      </g>
     </g>
     <g id="text_4">
      <!-- Mar -->
      <defs>
       <path d="M 80.421875 0.984375 
L 71.828125 0.984375 
L 71.828125 39.59375 
Q 71.828125 51.265625 72.40625 64.59375 
L 72.015625 64.59375 
Q 68.0625 53.265625 63.53125 41.796875 
L 47.90625 3.265625 
L 41.40625 3.265625 
L 25.640625 42.578125 
Q 20.75 54.78125 17.625 64.703125 
L 17.234375 64.703125 
Q 17.828125 48.921875 17.828125 39.890625 
L 17.828125 0.984375 
L 9.515625 0.984375 
L 9.515625 72.40625 
L 22.125 72.40625 
L 39.109375 30.375 
Q 42.140625 23 44.828125 14.15625 
L 45.125 14.15625 
Q 47.3125 22.125 50.53125 30.171875 
L 67.4375 72.40625 
L 80.421875 72.40625 
z
" id="IPAexGothic-77"/>
       <path d="M 49.3125 0.984375 
L 41.75 0.984375 
Q 39.984375 4.734375 39.546875 8.6875 
L 39.203125 8.6875 
Q 33.546875 -0.390625 22.3125 -0.390625 
Q 14.59375 -0.390625 9.71875 4.5 
Q 5.421875 8.796875 5.421875 14.984375 
Q 5.421875 30.421875 32.03125 31.203125 
L 38.71875 31.390625 
L 38.71875 33.984375 
Q 38.71875 39.203125 35.75 42.1875 
Q 32.625 45.3125 27.734375 45.3125 
Q 19.34375 45.3125 15.140625 37.15625 
L 7.71875 40.578125 
Q 14.65625 52 27.9375 52 
Q 37.109375 52 42.046875 46.875 
Q 46.625 42.28125 46.625 33.890625 
L 46.625 15.578125 
Q 46.625 6.25 49.3125 0.984375 
z
M 38.921875 25.390625 
L 33.453125 25.296875 
Q 14.109375 24.859375 14.109375 14.890625 
Q 14.109375 11.375 16.40625 9.078125 
Q 19.234375 6.296875 23.828125 6.296875 
Q 30.21875 6.296875 34.90625 10.984375 
Q 38.921875 15.140625 38.921875 21 
z
" id="IPAexGothic-97"/>
       <path d="M 36.078125 51.8125 
L 34.578125 43.265625 
Q 32.90625 43.609375 31.59375 43.609375 
Q 25.828125 43.609375 22.078125 38.1875 
Q 17.390625 31.34375 17.390625 26.171875 
L 17.390625 0.984375 
L 8.796875 0.984375 
L 8.796875 50.78125 
L 16.890625 50.78125 
L 16.5 35.984375 
L 16.703125 35.984375 
Q 22.21875 52.203125 32.765625 52.203125 
Q 34.46875 52.203125 36.078125 51.8125 
z
" id="IPAexGothic-114"/>
      </defs>
      <g transform="translate(202.578944 287.802625)scale(0.1 -0.1)">
       <use xlink:href="#IPAexGothic-77"/>
       <use x="90.185547" xlink:href="#IPAexGothic-97"/>
       <use x="145.166016" xlink:href="#IPAexGothic-114"/>
      </g>
     </g>
    </g>
    <g id="xtick_5">
     <g id="line2d_5">
      <g>
       <use style="stroke:#000000;stroke-width:0.8;" x="263.337905" xlink:href="#m7b9c56eed3" y="273.312"/>
      </g>
     </g>
     <g id="text_5">
      <!-- 08 -->
      <g transform="translate(257.039468 287.802625)scale(0.1 -0.1)">
       <use xlink:href="#IPAexGothic-48"/>
       <use x="62.988281" xlink:href="#IPAexGothic-56"/>
      </g>
     </g>
    </g>
    <g id="xtick_6">
     <g id="line2d_6">
      <g>
       <use style="stroke:#000000;stroke-width:0.8;" x="314.987492" xlink:href="#m7b9c56eed3" y="273.312"/>
      </g>
     </g>
     <g id="text_6">
      <!-- 15 -->
      <g transform="translate(308.689055 287.802625)scale(0.1 -0.1)">
       <use xlink:href="#IPAexGothic-49"/>
       <use x="62.988281" xlink:href="#IPAexGothic-53"/>
      </g>
     </g>
    </g>
    <g id="xtick_7">
     <g id="line2d_7">
      <g>
       <use style="stroke:#000000;stroke-width:0.8;" x="366.637079" xlink:href="#m7b9c56eed3" y="273.312"/>
      </g>
     </g>
     <g id="text_7">
      <!-- 22 -->
      <g transform="translate(360.338642 287.802625)scale(0.1 -0.1)">
       <use xlink:href="#IPAexGothic-50"/>
       <use x="62.988281" xlink:href="#IPAexGothic-50"/>
      </g>
     </g>
    </g>
    <g id="text_8">
     <!-- 2020-Mar -->
     <defs>
      <path d="M 30.765625 26.609375 
L 4.984375 26.609375 
L 4.984375 34.421875 
L 30.765625 34.421875 
z
" id="IPAexGothic-45"/>
     </defs>
     <g transform="translate(339.566875 300.19325)scale(0.1 -0.1)">
      <use xlink:href="#IPAexGothic-50"/>
      <use x="62.988281" xlink:href="#IPAexGothic-48"/>
      <use x="125.976562" xlink:href="#IPAexGothic-50"/>
      <use x="188.964844" xlink:href="#IPAexGothic-48"/>
      <use x="251.953125" xlink:href="#IPAexGothic-45"/>
      <use x="287.744141" xlink:href="#IPAexGothic-77"/>
      <use x="377.929688" xlink:href="#IPAexGothic-97"/>
      <use x="432.910156" xlink:href="#IPAexGothic-114"/>
     </g>
    </g>
   </g>
   <g id="matplotlib.axis_2">
    <g id="ytick_1">
     <g id="line2d_8">
      <path clip-path="url(#p0670600381)" d="M 29.439063 241.529253 
L 386.559062 241.529253 
" style="fill:none;stroke:#b0b0b0;stroke-linecap:square;stroke-width:0.8;"/>
     </g>
     <g id="line2d_9">
      <defs>
       <path d="M 0 0 
L -3.5 0 
" id="m72016dbf9b" style="stroke:#000000;stroke-width:0.8;"/>
      </defs>
      <g>
       <use style="stroke:#000000;stroke-width:0.8;" x="29.439063" xlink:href="#m72016dbf9b" y="241.529253"/>
      </g>
     </g>
     <g id="text_9">
      <!-- 0.0 -->
      <defs>
       <path d="M 18.5 0.984375 
L 7.71875 0.984375 
L 7.71875 11.765625 
L 18.5 11.765625 
z
" id="IPAexGothic-46"/>
      </defs>
      <g transform="translate(7.2 245.274565)scale(0.1 -0.1)">
       <use xlink:href="#IPAexGothic-48"/>
       <use x="62.988281" xlink:href="#IPAexGothic-46"/>
       <use x="89.404297" xlink:href="#IPAexGothic-48"/>
      </g>
     </g>
    </g>
    <g id="ytick_2">
     <g id="line2d_10">
      <path clip-path="url(#p0670600381)" d="M 29.439063 195.795425 
L 386.559062 195.795425 
" style="fill:none;stroke:#b0b0b0;stroke-linecap:square;stroke-width:0.8;"/>
     </g>
     <g id="line2d_11">
      <g>
       <use style="stroke:#000000;stroke-width:0.8;" x="29.439063" xlink:href="#m72016dbf9b" y="195.795425"/>
      </g>
     </g>
     <g id="text_10">
      <!-- 0.2 -->
      <g transform="translate(7.2 199.540737)scale(0.1 -0.1)">
       <use xlink:href="#IPAexGothic-48"/>
       <use x="62.988281" xlink:href="#IPAexGothic-46"/>
       <use x="89.404297" xlink:href="#IPAexGothic-50"/>
      </g>
     </g>
    </g>
    <g id="ytick_3">
     <g id="line2d_12">
      <path clip-path="url(#p0670600381)" d="M 29.439063 150.061597 
L 386.559062 150.061597 
" style="fill:none;stroke:#b0b0b0;stroke-linecap:square;stroke-width:0.8;"/>
     </g>
     <g id="line2d_13">
      <g>
       <use style="stroke:#000000;stroke-width:0.8;" x="29.439063" xlink:href="#m72016dbf9b" y="150.061597"/>
      </g>
     </g>
     <g id="text_11">
      <!-- 0.4 -->
      <defs>
       <path d="M 59.578125 18.109375 
L 47.796875 18.109375 
L 47.796875 0.984375 
L 39.796875 0.984375 
L 39.796875 18.109375 
L 3.078125 18.109375 
L 3.078125 26.125 
L 38.375 73.09375 
L 47.796875 73.09375 
L 47.796875 25.53125 
L 59.578125 25.53125 
z
M 40.28125 64.203125 
L 39.984375 64.203125 
Q 35.59375 57.125 31.296875 51.3125 
L 11.859375 25.53125 
L 39.796875 25.53125 
L 39.796875 49.125 
Q 39.796875 54.390625 40.28125 64.203125 
z
" id="IPAexGothic-52"/>
      </defs>
      <g transform="translate(7.2 153.806909)scale(0.1 -0.1)">
       <use xlink:href="#IPAexGothic-48"/>
       <use x="62.988281" xlink:href="#IPAexGothic-46"/>
       <use x="89.404297" xlink:href="#IPAexGothic-52"/>
      </g>
     </g>
    </g>
    <g id="ytick_4">
     <g id="line2d_14">
      <path clip-path="url(#p0670600381)" d="M 29.439063 104.327769 
L 386.559062 104.327769 
" style="fill:none;stroke:#b0b0b0;stroke-linecap:square;stroke-width:0.8;"/>
     </g>
     <g id="line2d_15">
      <g>
       <use style="stroke:#000000;stroke-width:0.8;" x="29.439063" xlink:href="#m72016dbf9b" y="104.327769"/>
      </g>
     </g>
     <g id="text_12">
      <!-- 0.6 -->
      <defs>
       <path d="M 16.5 36.375 
Q 23.578125 46.578125 34.90625 46.578125 
Q 45.40625 46.578125 51.8125 39.265625 
Q 57.421875 32.90625 57.421875 23.78125 
Q 57.421875 13.8125 51.125 6.78125 
Q 44.578125 -0.484375 34.03125 -0.484375 
Q 21.484375 -0.484375 14.40625 9.078125 
Q 7.515625 18.40625 7.515625 34.8125 
Q 7.515625 53.515625 15.828125 64.203125 
Q 23.34375 73.828125 35.5 73.828125 
Q 49.859375 73.828125 56.390625 62.890625 
L 49.21875 58.984375 
Q 45.21875 66.65625 35.9375 66.65625 
Q 17.484375 66.65625 16.109375 36.375 
z
M 33.453125 39.796875 
Q 26.3125 39.796875 21.625 34.46875 
Q 17.4375 29.6875 17.4375 24.078125 
Q 17.4375 18.0625 21.140625 13.1875 
Q 26.125 6.6875 33.734375 6.6875 
Q 41.703125 6.6875 45.953125 13.1875 
Q 48.828125 17.625 48.828125 23.484375 
Q 48.828125 30.375 45.015625 34.8125 
Q 40.625 39.796875 33.453125 39.796875 
z
" id="IPAexGothic-54"/>
      </defs>
      <g transform="translate(7.2 108.073082)scale(0.1 -0.1)">
       <use xlink:href="#IPAexGothic-48"/>
       <use x="62.988281" xlink:href="#IPAexGothic-46"/>
       <use x="89.404297" xlink:href="#IPAexGothic-54"/>
      </g>
     </g>
    </g>
    <g id="ytick_5">
     <g id="line2d_16">
      <path clip-path="url(#p0670600381)" d="M 29.439063 58.593941 
L 386.559062 58.593941 
" style="fill:none;stroke:#b0b0b0;stroke-linecap:square;stroke-width:0.8;"/>
     </g>
     <g id="line2d_17">
      <g>
       <use style="stroke:#000000;stroke-width:0.8;" x="29.439063" xlink:href="#m72016dbf9b" y="58.593941"/>
      </g>
     </g>
     <g id="text_13">
      <!-- 0.8 -->
      <g transform="translate(7.2 62.339254)scale(0.1 -0.1)">
       <use xlink:href="#IPAexGothic-48"/>
       <use x="62.988281" xlink:href="#IPAexGothic-46"/>
       <use x="89.404297" xlink:href="#IPAexGothic-56"/>
      </g>
     </g>
    </g>
    <g id="ytick_6">
     <g id="line2d_18">
      <path clip-path="url(#p0670600381)" d="M 29.439063 12.860113 
L 386.559062 12.860113 
" style="fill:none;stroke:#b0b0b0;stroke-linecap:square;stroke-width:0.8;"/>
     </g>
     <g id="line2d_19">
      <g>
       <use style="stroke:#000000;stroke-width:0.8;" x="29.439063" xlink:href="#m72016dbf9b" y="12.860113"/>
      </g>
     </g>
     <g id="text_14">
      <!-- 1.0 -->
      <g transform="translate(7.2 16.605426)scale(0.1 -0.1)">
       <use xlink:href="#IPAexGothic-49"/>
       <use x="62.988281" xlink:href="#IPAexGothic-46"/>
       <use x="89.404297" xlink:href="#IPAexGothic-48"/>
      </g>
     </g>
    </g>
   </g>
   <g id="LineCollection_1">
    <path clip-path="url(#p0670600381)" d="M 45.67179 241.529253 
L 45.67179 201.176716 
" style="fill:none;stroke:#ff7f0e;stroke-width:1.5;"/>
    <path clip-path="url(#p0670600381)" d="M 67.807327 241.503058 
L 67.807327 235.823538 
" style="fill:none;stroke:#ff7f0e;stroke-width:1.5;"/>
    <path clip-path="url(#p0670600381)" d="M 82.564352 237.98177 
L 82.564352 153.840072 
" style="fill:none;stroke:#ff7f0e;stroke-width:1.5;"/>
    <path clip-path="url(#p0670600381)" d="M 89.942864 240.951045 
L 89.942864 139.7678 
" style="fill:none;stroke:#ff7f0e;stroke-width:1.5;"/>
    <path clip-path="url(#p0670600381)" d="M 97.321377 222.346355 
L 97.321377 108.66442 
" style="fill:none;stroke:#ff7f0e;stroke-width:1.5;"/>
    <path clip-path="url(#p0670600381)" d="M 119.456914 227.086672 
L 119.456914 210.332251 
" style="fill:none;stroke:#ff7f0e;stroke-width:1.5;"/>
    <path clip-path="url(#p0670600381)" d="M 126.835426 222.791271 
L 126.835426 159.151649 
" style="fill:none;stroke:#ff7f0e;stroke-width:1.5;"/>
    <path clip-path="url(#p0670600381)" d="M 134.213939 150.082994 
L 134.213939 19.296 
" style="fill:none;stroke:#ff7f0e;stroke-width:1.5;"/>
    <path clip-path="url(#p0670600381)" d="M 141.592451 232.138278 
L 141.592451 209.489975 
" style="fill:none;stroke:#ff7f0e;stroke-width:1.5;"/>
    <path clip-path="url(#p0670600381)" d="M 148.970963 230.837755 
L 148.970963 200.057824 
" style="fill:none;stroke:#ff7f0e;stroke-width:1.5;"/>
    <path clip-path="url(#p0670600381)" d="M 156.349476 224.349032 
L 156.349476 188.106512 
" style="fill:none;stroke:#ff7f0e;stroke-width:1.5;"/>
    <path clip-path="url(#p0670600381)" d="M 163.727988 197.117845 
L 163.727988 154.124215 
" style="fill:none;stroke:#ff7f0e;stroke-width:1.5;"/>
    <path clip-path="url(#p0670600381)" d="M 171.106501 202.610702 
L 171.106501 132.753312 
" style="fill:none;stroke:#ff7f0e;stroke-width:1.5;"/>
    <path clip-path="url(#p0670600381)" d="M 178.485013 227.565964 
L 178.485013 197.42331 
" style="fill:none;stroke:#ff7f0e;stroke-width:1.5;"/>
    <path clip-path="url(#p0670600381)" d="M 185.863525 222.796942 
L 185.863525 166.723151 
" style="fill:none;stroke:#ff7f0e;stroke-width:1.5;"/>
    <path clip-path="url(#p0670600381)" d="M 193.242038 222.339214 
L 193.242038 197.732874 
" style="fill:none;stroke:#ff7f0e;stroke-width:1.5;"/>
    <path clip-path="url(#p0670600381)" d="M 200.62055 217.617323 
L 200.62055 189.576116 
" style="fill:none;stroke:#ff7f0e;stroke-width:1.5;"/>
    <path clip-path="url(#p0670600381)" d="M 207.999062 219.444712 
L 207.999062 189.494339 
" style="fill:none;stroke:#ff7f0e;stroke-width:1.5;"/>
    <path clip-path="url(#p0670600381)" d="M 215.377575 236.183505 
L 215.377575 220.077867 
" style="fill:none;stroke:#ff7f0e;stroke-width:1.5;"/>
    <path clip-path="url(#p0670600381)" d="M 222.756087 220.909589 
L 222.756087 185.600414 
" style="fill:none;stroke:#ff7f0e;stroke-width:1.5;"/>
    <path clip-path="url(#p0670600381)" d="M 230.1346 215.870787 
L 230.1346 170.950533 
" style="fill:none;stroke:#ff7f0e;stroke-width:1.5;"/>
    <path clip-path="url(#p0670600381)" d="M 237.513112 240.983525 
L 237.513112 239.981984 
" style="fill:none;stroke:#ff7f0e;stroke-width:1.5;"/>
    <path clip-path="url(#p0670600381)" d="M 244.891624 221.016197 
L 244.891624 201.531192 
" style="fill:none;stroke:#ff7f0e;stroke-width:1.5;"/>
    <path clip-path="url(#p0670600381)" d="M 252.270137 234.593995 
L 252.270137 227.269013 
" style="fill:none;stroke:#ff7f0e;stroke-width:1.5;"/>
    <path clip-path="url(#p0670600381)" d="M 259.648649 222.729217 
L 259.648649 210.553714 
" style="fill:none;stroke:#ff7f0e;stroke-width:1.5;"/>
    <path clip-path="url(#p0670600381)" d="M 267.027162 185.439261 
L 267.027162 149.694698 
" style="fill:none;stroke:#ff7f0e;stroke-width:1.5;"/>
    <path clip-path="url(#p0670600381)" d="M 274.405674 192.062868 
L 274.405674 151.25774 
" style="fill:none;stroke:#ff7f0e;stroke-width:1.5;"/>
    <path clip-path="url(#p0670600381)" d="M 281.784186 238.564517 
L 281.784186 234.930148 
" style="fill:none;stroke:#ff7f0e;stroke-width:1.5;"/>
    <path clip-path="url(#p0670600381)" d="M 289.162699 219.315741 
L 289.162699 204.281642 
" style="fill:none;stroke:#ff7f0e;stroke-width:1.5;"/>
    <path clip-path="url(#p0670600381)" d="M 296.541211 190.62821 
L 296.541211 159.413644 
" style="fill:none;stroke:#ff7f0e;stroke-width:1.5;"/>
    <path clip-path="url(#p0670600381)" d="M 303.919724 236.404194 
L 303.919724 232.743848 
" style="fill:none;stroke:#ff7f0e;stroke-width:1.5;"/>
    <path clip-path="url(#p0670600381)" d="M 311.298236 233.875138 
L 311.298236 227.152292 
" style="fill:none;stroke:#ff7f0e;stroke-width:1.5;"/>
    <path clip-path="url(#p0670600381)" d="M 318.676748 129.593147 
L 318.676748 85.344625 
" style="fill:none;stroke:#ff7f0e;stroke-width:1.5;"/>
    <path clip-path="url(#p0670600381)" d="M 326.055261 103.070644 
L 326.055261 40.418446 
" style="fill:none;stroke:#ff7f0e;stroke-width:1.5;"/>
    <path clip-path="url(#p0670600381)" d="M 333.433773 240.606375 
L 333.433773 238.819653 
" style="fill:none;stroke:#ff7f0e;stroke-width:1.5;"/>
    <path clip-path="url(#p0670600381)" d="M 340.812286 204.455753 
L 340.812286 177.538657 
" style="fill:none;stroke:#ff7f0e;stroke-width:1.5;"/>
    <path clip-path="url(#p0670600381)" d="M 355.56931 240.065182 
L 355.56931 238.643972 
" style="fill:none;stroke:#ff7f0e;stroke-width:1.5;"/>
    <path clip-path="url(#p0670600381)" d="M 362.947823 160.518972 
L 362.947823 118.214522 
" style="fill:none;stroke:#ff7f0e;stroke-width:1.5;"/>
    <path clip-path="url(#p0670600381)" d="M 370.326335 234.788894 
L 370.326335 229.688753 
" style="fill:none;stroke:#ff7f0e;stroke-width:1.5;"/>
   </g>
   <g id="line2d_20">
    <defs>
     <path d="M 5 0 
L -5 -0 
" id="m73438cd4c3" style="stroke:#ff7f0e;"/>
    </defs>
    <g clip-path="url(#p0670600381)">
     <use style="fill:#ff7f0e;stroke:#ff7f0e;" x="45.67179" xlink:href="#m73438cd4c3" y="241.529253"/>
     <use style="fill:#ff7f0e;stroke:#ff7f0e;" x="67.807327" xlink:href="#m73438cd4c3" y="241.503058"/>
     <use style="fill:#ff7f0e;stroke:#ff7f0e;" x="82.564352" xlink:href="#m73438cd4c3" y="237.98177"/>
     <use style="fill:#ff7f0e;stroke:#ff7f0e;" x="89.942864" xlink:href="#m73438cd4c3" y="240.951045"/>
     <use style="fill:#ff7f0e;stroke:#ff7f0e;" x="97.321377" xlink:href="#m73438cd4c3" y="222.346355"/>
     <use style="fill:#ff7f0e;stroke:#ff7f0e;" x="119.456914" xlink:href="#m73438cd4c3" y="227.086672"/>
     <use style="fill:#ff7f0e;stroke:#ff7f0e;" x="126.835426" xlink:href="#m73438cd4c3" y="222.791271"/>
     <use style="fill:#ff7f0e;stroke:#ff7f0e;" x="134.213939" xlink:href="#m73438cd4c3" y="150.082994"/>
     <use style="fill:#ff7f0e;stroke:#ff7f0e;" x="141.592451" xlink:href="#m73438cd4c3" y="232.138278"/>
     <use style="fill:#ff7f0e;stroke:#ff7f0e;" x="148.970963" xlink:href="#m73438cd4c3" y="230.837755"/>
     <use style="fill:#ff7f0e;stroke:#ff7f0e;" x="156.349476" xlink:href="#m73438cd4c3" y="224.349032"/>
     <use style="fill:#ff7f0e;stroke:#ff7f0e;" x="163.727988" xlink:href="#m73438cd4c3" y="197.117845"/>
     <use style="fill:#ff7f0e;stroke:#ff7f0e;" x="171.106501" xlink:href="#m73438cd4c3" y="202.610702"/>
     <use style="fill:#ff7f0e;stroke:#ff7f0e;" x="178.485013" xlink:href="#m73438cd4c3" y="227.565964"/>
     <use style="fill:#ff7f0e;stroke:#ff7f0e;" x="185.863525" xlink:href="#m73438cd4c3" y="222.796942"/>
     <use style="fill:#ff7f0e;stroke:#ff7f0e;" x="193.242038" xlink:href="#m73438cd4c3" y="222.339214"/>
     <use style="fill:#ff7f0e;stroke:#ff7f0e;" x="200.62055" xlink:href="#m73438cd4c3" y="217.617323"/>
     <use style="fill:#ff7f0e;stroke:#ff7f0e;" x="207.999062" xlink:href="#m73438cd4c3" y="219.444712"/>
     <use style="fill:#ff7f0e;stroke:#ff7f0e;" x="215.377575" xlink:href="#m73438cd4c3" y="236.183505"/>
     <use style="fill:#ff7f0e;stroke:#ff7f0e;" x="222.756087" xlink:href="#m73438cd4c3" y="220.909589"/>
     <use style="fill:#ff7f0e;stroke:#ff7f0e;" x="230.1346" xlink:href="#m73438cd4c3" y="215.870787"/>
     <use style="fill:#ff7f0e;stroke:#ff7f0e;" x="237.513112" xlink:href="#m73438cd4c3" y="240.983525"/>
     <use style="fill:#ff7f0e;stroke:#ff7f0e;" x="244.891624" xlink:href="#m73438cd4c3" y="221.016197"/>
     <use style="fill:#ff7f0e;stroke:#ff7f0e;" x="252.270137" xlink:href="#m73438cd4c3" y="234.593995"/>
     <use style="fill:#ff7f0e;stroke:#ff7f0e;" x="259.648649" xlink:href="#m73438cd4c3" y="222.729217"/>
     <use style="fill:#ff7f0e;stroke:#ff7f0e;" x="267.027162" xlink:href="#m73438cd4c3" y="185.439261"/>
     <use style="fill:#ff7f0e;stroke:#ff7f0e;" x="274.405674" xlink:href="#m73438cd4c3" y="192.062868"/>
     <use style="fill:#ff7f0e;stroke:#ff7f0e;" x="281.784186" xlink:href="#m73438cd4c3" y="238.564517"/>
     <use style="fill:#ff7f0e;stroke:#ff7f0e;" x="289.162699" xlink:href="#m73438cd4c3" y="219.315741"/>
     <use style="fill:#ff7f0e;stroke:#ff7f0e;" x="296.541211" xlink:href="#m73438cd4c3" y="190.62821"/>
     <use style="fill:#ff7f0e;stroke:#ff7f0e;" x="303.919724" xlink:href="#m73438cd4c3" y="236.404194"/>
     <use style="fill:#ff7f0e;stroke:#ff7f0e;" x="311.298236" xlink:href="#m73438cd4c3" y="233.875138"/>
     <use style="fill:#ff7f0e;stroke:#ff7f0e;" x="318.676748" xlink:href="#m73438cd4c3" y="129.593147"/>
     <use style="fill:#ff7f0e;stroke:#ff7f0e;" x="326.055261" xlink:href="#m73438cd4c3" y="103.070644"/>
     <use style="fill:#ff7f0e;stroke:#ff7f0e;" x="333.433773" xlink:href="#m73438cd4c3" y="240.606375"/>
     <use style="fill:#ff7f0e;stroke:#ff7f0e;" x="340.812286" xlink:href="#m73438cd4c3" y="204.455753"/>
     <use style="fill:#ff7f0e;stroke:#ff7f0e;" x="355.56931" xlink:href="#m73438cd4c3" y="240.065182"/>
     <use style="fill:#ff7f0e;stroke:#ff7f0e;" x="362.947823" xlink:href="#m73438cd4c3" y="160.518972"/>
     <use style="fill:#ff7f0e;stroke:#ff7f0e;" x="370.326335" xlink:href="#m73438cd4c3" y="234.788894"/>
    </g>
   </g>
   <g id="line2d_21">
    <g clip-path="url(#p0670600381)">
     <use style="fill:#ff7f0e;stroke:#ff7f0e;" x="45.67179" xlink:href="#m73438cd4c3" y="201.176716"/>
     <use style="fill:#ff7f0e;stroke:#ff7f0e;" x="67.807327" xlink:href="#m73438cd4c3" y="235.823538"/>
     <use style="fill:#ff7f0e;stroke:#ff7f0e;" x="82.564352" xlink:href="#m73438cd4c3" y="153.840072"/>
     <use style="fill:#ff7f0e;stroke:#ff7f0e;" x="89.942864" xlink:href="#m73438cd4c3" y="139.7678"/>
     <use style="fill:#ff7f0e;stroke:#ff7f0e;" x="97.321377" xlink:href="#m73438cd4c3" y="108.66442"/>
     <use style="fill:#ff7f0e;stroke:#ff7f0e;" x="119.456914" xlink:href="#m73438cd4c3" y="210.332251"/>
     <use style="fill:#ff7f0e;stroke:#ff7f0e;" x="126.835426" xlink:href="#m73438cd4c3" y="159.151649"/>
     <use style="fill:#ff7f0e;stroke:#ff7f0e;" x="134.213939" xlink:href="#m73438cd4c3" y="19.296"/>
     <use style="fill:#ff7f0e;stroke:#ff7f0e;" x="141.592451" xlink:href="#m73438cd4c3" y="209.489975"/>
     <use style="fill:#ff7f0e;stroke:#ff7f0e;" x="148.970963" xlink:href="#m73438cd4c3" y="200.057824"/>
     <use style="fill:#ff7f0e;stroke:#ff7f0e;" x="156.349476" xlink:href="#m73438cd4c3" y="188.106512"/>
     <use style="fill:#ff7f0e;stroke:#ff7f0e;" x="163.727988" xlink:href="#m73438cd4c3" y="154.124215"/>
     <use style="fill:#ff7f0e;stroke:#ff7f0e;" x="171.106501" xlink:href="#m73438cd4c3" y="132.753312"/>
     <use style="fill:#ff7f0e;stroke:#ff7f0e;" x="178.485013" xlink:href="#m73438cd4c3" y="197.42331"/>
     <use style="fill:#ff7f0e;stroke:#ff7f0e;" x="185.863525" xlink:href="#m73438cd4c3" y="166.723151"/>
     <use style="fill:#ff7f0e;stroke:#ff7f0e;" x="193.242038" xlink:href="#m73438cd4c3" y="197.732874"/>
     <use style="fill:#ff7f0e;stroke:#ff7f0e;" x="200.62055" xlink:href="#m73438cd4c3" y="189.576116"/>
     <use style="fill:#ff7f0e;stroke:#ff7f0e;" x="207.999062" xlink:href="#m73438cd4c3" y="189.494339"/>
     <use style="fill:#ff7f0e;stroke:#ff7f0e;" x="215.377575" xlink:href="#m73438cd4c3" y="220.077867"/>
     <use style="fill:#ff7f0e;stroke:#ff7f0e;" x="222.756087" xlink:href="#m73438cd4c3" y="185.600414"/>
     <use style="fill:#ff7f0e;stroke:#ff7f0e;" x="230.1346" xlink:href="#m73438cd4c3" y="170.950533"/>
     <use style="fill:#ff7f0e;stroke:#ff7f0e;" x="237.513112" xlink:href="#m73438cd4c3" y="239.981984"/>
     <use style="fill:#ff7f0e;stroke:#ff7f0e;" x="244.891624" xlink:href="#m73438cd4c3" y="201.531192"/>
     <use style="fill:#ff7f0e;stroke:#ff7f0e;" x="252.270137" xlink:href="#m73438cd4c3" y="227.269013"/>
     <use style="fill:#ff7f0e;stroke:#ff7f0e;" x="259.648649" xlink:href="#m73438cd4c3" y="210.553714"/>
     <use style="fill:#ff7f0e;stroke:#ff7f0e;" x="267.027162" xlink:href="#m73438cd4c3" y="149.694698"/>
     <use style="fill:#ff7f0e;stroke:#ff7f0e;" x="274.405674" xlink:href="#m73438cd4c3" y="151.25774"/>
     <use style="fill:#ff7f0e;stroke:#ff7f0e;" x="281.784186" xlink:href="#m73438cd4c3" y="234.930148"/>
     <use style="fill:#ff7f0e;stroke:#ff7f0e;" x="289.162699" xlink:href="#m73438cd4c3" y="204.281642"/>
     <use style="fill:#ff7f0e;stroke:#ff7f0e;" x="296.541211" xlink:href="#m73438cd4c3" y="159.413644"/>
     <use style="fill:#ff7f0e;stroke:#ff7f0e;" x="303.919724" xlink:href="#m73438cd4c3" y="232.743848"/>
     <use style="fill:#ff7f0e;stroke:#ff7f0e;" x="311.298236" xlink:href="#m73438cd4c3" y="227.152292"/>
     <use style="fill:#ff7f0e;stroke:#ff7f0e;" x="318.676748" xlink:href="#m73438cd4c3" y="85.344625"/>
     <use style="fill:#ff7f0e;stroke:#ff7f0e;" x="326.055261" xlink:href="#m73438cd4c3" y="40.418446"/>
     <use style="fill:#ff7f0e;stroke:#ff7f0e;" x="333.433773" xlink:href="#m73438cd4c3" y="238.819653"/>
     <use style="fill:#ff7f0e;stroke:#ff7f0e;" x="340.812286" xlink:href="#m73438cd4c3" y="177.538657"/>
     <use style="fill:#ff7f0e;stroke:#ff7f0e;" x="355.56931" xlink:href="#m73438cd4c3" y="238.643972"/>
     <use style="fill:#ff7f0e;stroke:#ff7f0e;" x="362.947823" xlink:href="#m73438cd4c3" y="118.214522"/>
     <use style="fill:#ff7f0e;stroke:#ff7f0e;" x="370.326335" xlink:href="#m73438cd4c3" y="229.688753"/>
    </g>
   </g>
   <g id="line2d_22">
    <defs>
     <path d="M 0 3 
C 0.795609 3 1.55874 2.683901 2.12132 2.12132 
C 2.683901 1.55874 3 0.795609 3 0 
C 3 -0.795609 2.683901 -1.55874 2.12132 -2.12132 
C 1.55874 -2.683901 0.795609 -3 0 -3 
C -0.795609 -3 -1.55874 -2.683901 -2.12132 -2.12132 
C -2.683901 -1.55874 -3 -0.795609 -3 0 
C -3 0.795609 -2.683901 1.55874 -2.12132 2.12132 
C -1.55874 2.683901 -0.795609 3 0 3 
z
" id="m68b63d6ea9" style="stroke:#ff7f0e;"/>
    </defs>
    <g clip-path="url(#p0670600381)">
     <use style="fill:#ff7f0e;stroke:#ff7f0e;" x="45.67179" xlink:href="#m68b63d6ea9" y="241.529253"/>
     <use style="fill:#ff7f0e;stroke:#ff7f0e;" x="67.807327" xlink:href="#m68b63d6ea9" y="240.494551"/>
     <use style="fill:#ff7f0e;stroke:#ff7f0e;" x="82.564352" xlink:href="#m68b63d6ea9" y="212.94561"/>
     <use style="fill:#ff7f0e;stroke:#ff7f0e;" x="89.942864" xlink:href="#m68b63d6ea9" y="218.662339"/>
     <use style="fill:#ff7f0e;stroke:#ff7f0e;" x="97.321377" xlink:href="#m68b63d6ea9" y="176.195213"/>
     <use style="fill:#ff7f0e;stroke:#ff7f0e;" x="119.456914" xlink:href="#m68b63d6ea9" y="219.75124"/>
     <use style="fill:#ff7f0e;stroke:#ff7f0e;" x="126.835426" xlink:href="#m68b63d6ea9" y="197.065809"/>
     <use style="fill:#ff7f0e;stroke:#ff7f0e;" x="134.213939" xlink:href="#m68b63d6ea9" y="63.675478"/>
     <use style="fill:#ff7f0e;stroke:#ff7f0e;" x="141.592451" xlink:href="#m68b63d6ea9" y="223.033955"/>
     <use style="fill:#ff7f0e;stroke:#ff7f0e;" x="148.970963" xlink:href="#m68b63d6ea9" y="218.662339"/>
     <use style="fill:#ff7f0e;stroke:#ff7f0e;" x="156.349476" xlink:href="#m68b63d6ea9" y="209.246551"/>
     <use style="fill:#ff7f0e;stroke:#ff7f0e;" x="163.727988" xlink:href="#m68b63d6ea9" y="177.216057"/>
     <use style="fill:#ff7f0e;stroke:#ff7f0e;" x="171.106501" xlink:href="#m68b63d6ea9" y="171.169518"/>
     <use style="fill:#ff7f0e;stroke:#ff7f0e;" x="178.485013" xlink:href="#m68b63d6ea9" y="215.144352"/>
     <use style="fill:#ff7f0e;stroke:#ff7f0e;" x="185.863525" xlink:href="#m68b63d6ea9" y="199.953046"/>
     <use style="fill:#ff7f0e;stroke:#ff7f0e;" x="193.242038" xlink:href="#m68b63d6ea9" y="211.584485"/>
     <use style="fill:#ff7f0e;stroke:#ff7f0e;" x="200.62055" xlink:href="#m68b63d6ea9" y="205.184489"/>
     <use style="fill:#ff7f0e;stroke:#ff7f0e;" x="207.999062" xlink:href="#m68b63d6ea9" y="206.349385"/>
     <use style="fill:#ff7f0e;stroke:#ff7f0e;" x="215.377575" xlink:href="#m68b63d6ea9" y="229.96733"/>
     <use style="fill:#ff7f0e;stroke:#ff7f0e;" x="222.756087" xlink:href="#m68b63d6ea9" y="205.7997"/>
     <use style="fill:#ff7f0e;stroke:#ff7f0e;" x="230.1346" xlink:href="#m68b63d6ea9" y="196.439563"/>
     <use style="fill:#ff7f0e;stroke:#ff7f0e;" x="237.513112" xlink:href="#m68b63d6ea9" y="240.575223"/>
     <use style="fill:#ff7f0e;stroke:#ff7f0e;" x="244.891624" xlink:href="#m68b63d6ea9" y="212.280875"/>
     <use style="fill:#ff7f0e;stroke:#ff7f0e;" x="252.270137" xlink:href="#m68b63d6ea9" y="231.387989"/>
     <use style="fill:#ff7f0e;stroke:#ff7f0e;" x="259.648649" xlink:href="#m68b63d6ea9" y="217.132365"/>
     <use style="fill:#ff7f0e;stroke:#ff7f0e;" x="267.027162" xlink:href="#m68b63d6ea9" y="168.417351"/>
     <use style="fill:#ff7f0e;stroke:#ff7f0e;" x="274.405674" xlink:href="#m68b63d6ea9" y="172.928511"/>
     <use style="fill:#ff7f0e;stroke:#ff7f0e;" x="281.784186" xlink:href="#m68b63d6ea9" y="237.004597"/>
     <use style="fill:#ff7f0e;stroke:#ff7f0e;" x="289.162699" xlink:href="#m68b63d6ea9" y="212.406296"/>
     <use style="fill:#ff7f0e;stroke:#ff7f0e;" x="296.541211" xlink:href="#m68b63d6ea9" y="175.834251"/>
     <use style="fill:#ff7f0e;stroke:#ff7f0e;" x="303.919724" xlink:href="#m68b63d6ea9" y="234.749305"/>
     <use style="fill:#ff7f0e;stroke:#ff7f0e;" x="311.298236" xlink:href="#m68b63d6ea9" y="230.881097"/>
     <use style="fill:#ff7f0e;stroke:#ff7f0e;" x="318.676748" xlink:href="#m68b63d6ea9" y="106.892283"/>
     <use style="fill:#ff7f0e;stroke:#ff7f0e;" x="326.055261" xlink:href="#m68b63d6ea9" y="67.305146"/>
     <use style="fill:#ff7f0e;stroke:#ff7f0e;" x="333.433773" xlink:href="#m68b63d6ea9" y="239.882572"/>
     <use style="fill:#ff7f0e;stroke:#ff7f0e;" x="340.812286" xlink:href="#m68b63d6ea9" y="191.965498"/>
     <use style="fill:#ff7f0e;stroke:#ff7f0e;" x="348.190798" xlink:href="#m68b63d6ea9" y="261.216"/>
     <use style="fill:#ff7f0e;stroke:#ff7f0e;" x="355.56931" xlink:href="#m68b63d6ea9" y="239.44148"/>
     <use style="fill:#ff7f0e;stroke:#ff7f0e;" x="362.947823" xlink:href="#m68b63d6ea9" y="139.685014"/>
     <use style="fill:#ff7f0e;stroke:#ff7f0e;" x="370.326335" xlink:href="#m68b63d6ea9" y="232.490947"/>
    </g>
   </g>
   <g id="patch_3">
    <path d="M 29.439063 273.312 
L 29.439063 7.2 
" style="fill:none;stroke:#000000;stroke-linecap:square;stroke-linejoin:miter;stroke-width:0.8;"/>
   </g>
   <g id="patch_4">
    <path d="M 386.559062 273.312 
L 386.559062 7.2 
" style="fill:none;stroke:#000000;stroke-linecap:square;stroke-linejoin:miter;stroke-width:0.8;"/>
   </g>
   <g id="patch_5">
    <path d="M 29.439063 273.312 
L 386.559063 273.312 
" style="fill:none;stroke:#000000;stroke-linecap:square;stroke-linejoin:miter;stroke-width:0.8;"/>
   </g>
   <g id="patch_6">
    <path d="M 29.439063 7.2 
L 386.559063 7.2 
" style="fill:none;stroke:#000000;stroke-linecap:square;stroke-linejoin:miter;stroke-width:0.8;"/>
   </g>
  </g>
 </g>
 <defs>
  <clipPath id="p0670600381">
   <rect height="266.112" width="357.12" x="29.439063" y="7.2"/>
  </clipPath>
 </defs>
</svg>
