<?xml version="1.0" encoding="utf-8" standalone="no"?>
<!DOCTYPE svg PUBLIC "-//W3C//DTD SVG 1.1//EN"
  "http://www.w3.org/Graphics/SVG/1.1/DTD/svg11.dtd">
<!-- Created with matplotlib (https://matplotlib.org/) -->
<svg height="309.29325pt" version="1.1" viewBox="0 0 416.310625 309.29325" width="416.310625pt" xmlns="http://www.w3.org/2000/svg" xmlns:xlink="http://www.w3.org/1999/xlink">
 <defs>
  <style type="text/css">
*{stroke-linecap:butt;stroke-linejoin:round;}
  </style>
 </defs>
 <g id="figure_1">
  <g id="patch_1">
   <path d="M 0 309.29325 
L 416.310625 309.29325 
L 416.310625 0 
L 0 0 
z
" style="fill:#ffffff;"/>
  </g>
  <g id="axes_1">
   <g id="patch_2">
    <path d="M 51.990625 273.312 
L 409.110625 273.312 
L 409.110625 7.2 
L 51.990625 7.2 
z
" style="fill:#ffffff;"/>
   </g>
   <g id="patch_3">
    <path clip-path="url(#pfb7a1624ff)" d="M 68.223352 273.312 
L 71.561702 273.312 
L 71.561702 272.011094 
L 68.223352 272.011094 
z
" style="fill:#1f77b4;"/>
   </g>
   <g id="patch_4">
    <path clip-path="url(#pfb7a1624ff)" d="M 72.39629 273.312 
L 75.73464 273.312 
L 75.73464 271.975682 
L 72.39629 271.975682 
z
" style="fill:#1f77b4;"/>
   </g>
   <g id="patch_5">
    <path clip-path="url(#pfb7a1624ff)" d="M 84.915103 273.312 
L 88.253453 273.312 
L 88.253453 271.563791 
L 84.915103 271.563791 
z
" style="fill:#1f77b4;"/>
   </g>
   <g id="patch_6">
    <path clip-path="url(#pfb7a1624ff)" d="M 93.260978 273.312 
L 96.599328 273.312 
L 96.599328 271.533971 
L 93.260978 271.533971 
z
" style="fill:#1f77b4;"/>
   </g>
   <g id="patch_7">
    <path clip-path="url(#pfb7a1624ff)" d="M 97.433915 273.312 
L 100.772266 273.312 
L 100.772266 271.515333 
L 97.433915 271.515333 
z
" style="fill:#1f77b4;"/>
   </g>
   <g id="patch_8">
    <path clip-path="url(#pfb7a1624ff)" d="M 101.606853 273.312 
L 104.945203 273.312 
L 104.945203 271.48924 
L 101.606853 271.48924 
z
" style="fill:#1f77b4;"/>
   </g>
   <g id="patch_9">
    <path clip-path="url(#pfb7a1624ff)" d="M 114.125666 273.312 
L 117.464016 273.312 
L 117.464016 270.980433 
L 114.125666 270.980433 
z
" style="fill:#1f77b4;"/>
   </g>
   <g id="patch_10">
    <path clip-path="url(#pfb7a1624ff)" d="M 118.298603 273.312 
L 121.636954 273.312 
L 121.636954 270.913338 
L 118.298603 270.913338 
z
" style="fill:#1f77b4;"/>
   </g>
   <g id="patch_11">
    <path clip-path="url(#pfb7a1624ff)" d="M 122.471541 273.312 
L 125.809891 273.312 
L 125.809891 270.896564 
L 122.471541 270.896564 
z
" style="fill:#1f77b4;"/>
   </g>
   <g id="patch_12">
    <path clip-path="url(#pfb7a1624ff)" d="M 126.644479 273.312 
L 129.982829 273.312 
L 129.982829 270.643092 
L 126.644479 270.643092 
z
" style="fill:#1f77b4;"/>
   </g>
   <g id="patch_13">
    <path clip-path="url(#pfb7a1624ff)" d="M 130.817416 273.312 
L 134.155766 273.312 
L 134.155766 270.475354 
L 130.817416 270.475354 
z
" style="fill:#1f77b4;"/>
   </g>
   <g id="patch_14">
    <path clip-path="url(#pfb7a1624ff)" d="M 134.990354 273.312 
L 138.328704 273.312 
L 138.328704 270.316934 
L 134.990354 270.316934 
z
" style="fill:#1f77b4;"/>
   </g>
   <g id="patch_15">
    <path clip-path="url(#pfb7a1624ff)" d="M 139.163292 273.312 
L 142.501642 273.312 
L 142.501642 270.138013 
L 139.163292 270.138013 
z
" style="fill:#1f77b4;"/>
   </g>
   <g id="patch_16">
    <path clip-path="url(#pfb7a1624ff)" d="M 143.336229 273.312 
L 146.674579 273.312 
L 146.674579 270.065326 
L 143.336229 270.065326 
z
" style="fill:#1f77b4;"/>
   </g>
   <g id="patch_17">
    <path clip-path="url(#pfb7a1624ff)" d="M 147.509167 273.312 
L 150.847517 273.312 
L 150.847517 269.871495 
L 147.509167 269.871495 
z
" style="fill:#1f77b4;"/>
   </g>
   <g id="patch_18">
    <path clip-path="url(#pfb7a1624ff)" d="M 151.682104 273.312 
L 155.020454 273.312 
L 155.020454 269.789489 
L 151.682104 269.789489 
z
" style="fill:#1f77b4;"/>
   </g>
   <g id="patch_19">
    <path clip-path="url(#pfb7a1624ff)" d="M 155.855042 273.312 
L 159.193392 273.312 
L 159.193392 269.476377 
L 155.855042 269.476377 
z
" style="fill:#1f77b4;"/>
   </g>
   <g id="patch_20">
    <path clip-path="url(#pfb7a1624ff)" d="M 160.02798 273.312 
L 163.36633 273.312 
L 163.36633 269.194949 
L 160.02798 269.194949 
z
" style="fill:#1f77b4;"/>
   </g>
   <g id="patch_21">
    <path clip-path="url(#pfb7a1624ff)" d="M 164.200917 273.312 
L 167.539267 273.312 
L 167.539267 268.95266 
L 164.200917 268.95266 
z
" style="fill:#1f77b4;"/>
   </g>
   <g id="patch_22">
    <path clip-path="url(#pfb7a1624ff)" d="M 168.373855 273.312 
L 171.712205 273.312 
L 171.712205 268.62091 
L 168.373855 268.62091 
z
" style="fill:#1f77b4;"/>
   </g>
   <g id="patch_23">
    <path clip-path="url(#pfb7a1624ff)" d="M 172.546792 273.312 
L 175.885142 273.312 
L 175.885142 268.441989 
L 172.546792 268.441989 
z
" style="fill:#1f77b4;"/>
   </g>
   <g id="patch_24">
    <path clip-path="url(#pfb7a1624ff)" d="M 176.71973 273.312 
L 180.05808 273.312 
L 180.05808 268.309662 
L 176.71973 268.309662 
z
" style="fill:#1f77b4;"/>
   </g>
   <g id="patch_25">
    <path clip-path="url(#pfb7a1624ff)" d="M 180.892668 273.312 
L 184.231018 273.312 
L 184.231018 261.162133 
L 180.892668 261.162133 
z
" style="fill:#1f77b4;"/>
   </g>
   <g id="patch_26">
    <path clip-path="url(#pfb7a1624ff)" d="M 185.065605 273.312 
L 188.403955 273.312 
L 188.403955 260.681282 
L 185.065605 260.681282 
z
" style="fill:#1f77b4;"/>
   </g>
   <g id="patch_27">
    <path clip-path="url(#pfb7a1624ff)" d="M 189.238543 273.312 
L 192.576893 273.312 
L 192.576893 259.378512 
L 189.238543 259.378512 
z
" style="fill:#1f77b4;"/>
   </g>
   <g id="patch_28">
    <path clip-path="url(#pfb7a1624ff)" d="M 193.41148 273.312 
L 196.74983 273.312 
L 196.74983 258.347852 
L 193.41148 258.347852 
z
" style="fill:#1f77b4;"/>
   </g>
   <g id="patch_29">
    <path clip-path="url(#pfb7a1624ff)" d="M 197.584418 273.312 
L 200.922768 273.312 
L 200.922768 258.073879 
L 197.584418 258.073879 
z
" style="fill:#1f77b4;"/>
   </g>
   <g id="patch_30">
    <path clip-path="url(#pfb7a1624ff)" d="M 201.757356 273.312 
L 205.095706 273.312 
L 205.095706 257.868865 
L 201.757356 257.868865 
z
" style="fill:#1f77b4;"/>
   </g>
   <g id="patch_31">
    <path clip-path="url(#pfb7a1624ff)" d="M 205.930293 273.312 
L 209.268643 273.312 
L 209.268643 255.419881 
L 205.930293 255.419881 
z
" style="fill:#1f77b4;"/>
   </g>
   <g id="patch_32">
    <path clip-path="url(#pfb7a1624ff)" d="M 210.103231 273.312 
L 213.441581 273.312 
L 213.441581 254.629646 
L 210.103231 254.629646 
z
" style="fill:#1f77b4;"/>
   </g>
   <g id="patch_33">
    <path clip-path="url(#pfb7a1624ff)" d="M 214.276168 273.312 
L 217.614518 273.312 
L 217.614518 254.292305 
L 214.276168 254.292305 
z
" style="fill:#1f77b4;"/>
   </g>
   <g id="patch_34">
    <path clip-path="url(#pfb7a1624ff)" d="M 218.449106 273.312 
L 221.787456 273.312 
L 221.787456 250.835026 
L 218.449106 250.835026 
z
" style="fill:#1f77b4;"/>
   </g>
   <g id="patch_35">
    <path clip-path="url(#pfb7a1624ff)" d="M 222.622044 273.312 
L 225.960394 273.312 
L 225.960394 249.234054 
L 222.622044 249.234054 
z
" style="fill:#1f77b4;"/>
   </g>
   <g id="patch_36">
    <path clip-path="url(#pfb7a1624ff)" d="M 226.794981 273.312 
L 230.133331 273.312 
L 230.133331 249.034631 
L 226.794981 249.034631 
z
" style="fill:#1f77b4;"/>
   </g>
   <g id="patch_37">
    <path clip-path="url(#pfb7a1624ff)" d="M 230.967919 273.312 
L 234.306269 273.312 
L 234.306269 248.956353 
L 230.967919 248.956353 
z
" style="fill:#1f77b4;"/>
   </g>
   <g id="patch_38">
    <path clip-path="url(#pfb7a1624ff)" d="M 235.140856 273.312 
L 238.479206 273.312 
L 238.479206 245.074136 
L 235.140856 245.074136 
z
" style="fill:#1f77b4;"/>
   </g>
   <g id="patch_39">
    <path clip-path="url(#pfb7a1624ff)" d="M 239.313794 273.312 
L 242.652144 273.312 
L 242.652144 244.695792 
L 239.313794 244.695792 
z
" style="fill:#1f77b4;"/>
   </g>
   <g id="patch_40">
    <path clip-path="url(#pfb7a1624ff)" d="M 243.486732 273.312 
L 246.825082 273.312 
L 246.825082 245.540077 
L 243.486732 245.540077 
z
" style="fill:#1f77b4;"/>
   </g>
   <g id="patch_41">
    <path clip-path="url(#pfb7a1624ff)" d="M 247.659669 273.312 
L 250.998019 273.312 
L 250.998019 238.191262 
L 247.659669 238.191262 
z
" style="fill:#1f77b4;"/>
   </g>
   <g id="patch_42">
    <path clip-path="url(#pfb7a1624ff)" d="M 251.832607 273.312 
L 255.170957 273.312 
L 255.170957 237.969474 
L 251.832607 237.969474 
z
" style="fill:#1f77b4;"/>
   </g>
   <g id="patch_43">
    <path clip-path="url(#pfb7a1624ff)" d="M 256.005544 273.312 
L 259.343894 273.312 
L 259.343894 235.611815 
L 256.005544 235.611815 
z
" style="fill:#1f77b4;"/>
   </g>
   <g id="patch_44">
    <path clip-path="url(#pfb7a1624ff)" d="M 260.178482 273.312 
L 263.516832 273.312 
L 263.516832 235.403073 
L 260.178482 235.403073 
z
" style="fill:#1f77b4;"/>
   </g>
   <g id="patch_45">
    <path clip-path="url(#pfb7a1624ff)" d="M 264.35142 273.312 
L 267.68977 273.312 
L 267.68977 227.780285 
L 264.35142 227.780285 
z
" style="fill:#1f77b4;"/>
   </g>
   <g id="patch_46">
    <path clip-path="url(#pfb7a1624ff)" d="M 268.524357 273.312 
L 271.862707 273.312 
L 271.862707 229.474445 
L 268.524357 229.474445 
z
" style="fill:#1f77b4;"/>
   </g>
   <g id="patch_47">
    <path clip-path="url(#pfb7a1624ff)" d="M 272.697295 273.312 
L 276.035645 273.312 
L 276.035645 226.399237 
L 272.697295 226.399237 
z
" style="fill:#1f77b4;"/>
   </g>
   <g id="patch_48">
    <path clip-path="url(#pfb7a1624ff)" d="M 276.870232 273.312 
L 280.208582 273.312 
L 280.208582 222.981097 
L 276.870232 222.981097 
z
" style="fill:#1f77b4;"/>
   </g>
   <g id="patch_49">
    <path clip-path="url(#pfb7a1624ff)" d="M 281.04317 273.312 
L 284.38152 273.312 
L 284.38152 220.261868 
L 281.04317 220.261868 
z
" style="fill:#1f77b4;"/>
   </g>
   <g id="patch_50">
    <path clip-path="url(#pfb7a1624ff)" d="M 285.216108 273.312 
L 288.554458 273.312 
L 288.554458 219.710194 
L 285.216108 219.710194 
z
" style="fill:#1f77b4;"/>
   </g>
   <g id="patch_51">
    <path clip-path="url(#pfb7a1624ff)" d="M 289.389045 273.312 
L 292.727395 273.312 
L 292.727395 219.326259 
L 289.389045 219.326259 
z
" style="fill:#1f77b4;"/>
   </g>
   <g id="patch_52">
    <path clip-path="url(#pfb7a1624ff)" d="M 293.561983 273.312 
L 296.900333 273.312 
L 296.900333 212.745314 
L 293.561983 212.745314 
z
" style="fill:#1f77b4;"/>
   </g>
   <g id="patch_53">
    <path clip-path="url(#pfb7a1624ff)" d="M 297.73492 273.312 
L 301.07327 273.312 
L 301.07327 208.997288 
L 297.73492 208.997288 
z
" style="fill:#1f77b4;"/>
   </g>
   <g id="patch_54">
    <path clip-path="url(#pfb7a1624ff)" d="M 301.907858 273.312 
L 305.246208 273.312 
L 305.246208 208.99356 
L 301.907858 208.99356 
z
" style="fill:#1f77b4;"/>
   </g>
   <g id="patch_55">
    <path clip-path="url(#pfb7a1624ff)" d="M 306.080796 273.312 
L 309.419146 273.312 
L 309.419146 199.794029 
L 306.080796 199.794029 
z
" style="fill:#1f77b4;"/>
   </g>
   <g id="patch_56">
    <path clip-path="url(#pfb7a1624ff)" d="M 310.253733 273.312 
L 313.592083 273.312 
L 313.592083 193.390142 
L 310.253733 193.390142 
z
" style="fill:#1f77b4;"/>
   </g>
   <g id="patch_57">
    <path clip-path="url(#pfb7a1624ff)" d="M 314.426671 273.312 
L 317.765021 273.312 
L 317.765021 190.115511 
L 314.426671 190.115511 
z
" style="fill:#1f77b4;"/>
   </g>
   <g id="patch_58">
    <path clip-path="url(#pfb7a1624ff)" d="M 318.599608 273.312 
L 321.937958 273.312 
L 321.937958 187.258363 
L 318.599608 187.258363 
z
" style="fill:#1f77b4;"/>
   </g>
   <g id="patch_59">
    <path clip-path="url(#pfb7a1624ff)" d="M 322.772546 273.312 
L 326.110896 273.312 
L 326.110896 170.225439 
L 322.772546 170.225439 
z
" style="fill:#1f77b4;"/>
   </g>
   <g id="patch_60">
    <path clip-path="url(#pfb7a1624ff)" d="M 326.945484 273.312 
L 330.283834 273.312 
L 330.283834 158.694341 
L 326.945484 158.694341 
z
" style="fill:#1f77b4;"/>
   </g>
   <g id="patch_61">
    <path clip-path="url(#pfb7a1624ff)" d="M 331.118421 273.312 
L 334.456771 273.312 
L 334.456771 153.309932 
L 331.118421 153.309932 
z
" style="fill:#1f77b4;"/>
   </g>
   <g id="patch_62">
    <path clip-path="url(#pfb7a1624ff)" d="M 335.291359 273.312 
L 338.629709 273.312 
L 338.629709 145.139197 
L 335.291359 145.139197 
z
" style="fill:#1f77b4;"/>
   </g>
   <g id="patch_63">
    <path clip-path="url(#pfb7a1624ff)" d="M 339.464296 273.312 
L 342.802647 273.312 
L 342.802647 133.732971 
L 339.464296 133.732971 
z
" style="fill:#1f77b4;"/>
   </g>
   <g id="patch_64">
    <path clip-path="url(#pfb7a1624ff)" d="M 343.637234 273.312 
L 346.975584 273.312 
L 346.975584 129.092203 
L 343.637234 129.092203 
z
" style="fill:#1f77b4;"/>
   </g>
   <g id="patch_65">
    <path clip-path="url(#pfb7a1624ff)" d="M 347.810172 273.312 
L 351.148522 273.312 
L 351.148522 126.630173 
L 347.810172 126.630173 
z
" style="fill:#1f77b4;"/>
   </g>
   <g id="patch_66">
    <path clip-path="url(#pfb7a1624ff)" d="M 351.983109 273.312 
L 355.321459 273.312 
L 355.321459 106.410215 
L 351.983109 106.410215 
z
" style="fill:#1f77b4;"/>
   </g>
   <g id="patch_67">
    <path clip-path="url(#pfb7a1624ff)" d="M 356.156047 273.312 
L 359.494397 273.312 
L 359.494397 97.678488 
L 356.156047 97.678488 
z
" style="fill:#1f77b4;"/>
   </g>
   <g id="patch_68">
    <path clip-path="url(#pfb7a1624ff)" d="M 360.328984 273.312 
L 363.667335 273.312 
L 363.667335 85.625537 
L 360.328984 85.625537 
z
" style="fill:#1f77b4;"/>
   </g>
   <g id="patch_69">
    <path clip-path="url(#pfb7a1624ff)" d="M 364.501922 273.312 
L 367.840272 273.312 
L 367.840272 75.059868 
L 364.501922 75.059868 
z
" style="fill:#1f77b4;"/>
   </g>
   <g id="patch_70">
    <path clip-path="url(#pfb7a1624ff)" d="M 368.67486 273.312 
L 372.01321 273.312 
L 372.01321 65.828653 
L 368.67486 65.828653 
z
" style="fill:#1f77b4;"/>
   </g>
   <g id="patch_71">
    <path clip-path="url(#pfb7a1624ff)" d="M 372.847797 273.312 
L 376.186147 273.312 
L 376.186147 63.049783 
L 372.847797 63.049783 
z
" style="fill:#1f77b4;"/>
   </g>
   <g id="patch_72">
    <path clip-path="url(#pfb7a1624ff)" d="M 377.020735 273.312 
L 380.359085 273.312 
L 380.359085 55.764336 
L 377.020735 55.764336 
z
" style="fill:#1f77b4;"/>
   </g>
   <g id="patch_73">
    <path clip-path="url(#pfb7a1624ff)" d="M 381.193672 273.312 
L 384.532023 273.312 
L 384.532023 41.180395 
L 381.193672 41.180395 
z
" style="fill:#1f77b4;"/>
   </g>
   <g id="patch_74">
    <path clip-path="url(#pfb7a1624ff)" d="M 385.36661 273.312 
L 388.70496 273.312 
L 388.70496 29.928862 
L 385.36661 29.928862 
z
" style="fill:#1f77b4;"/>
   </g>
   <g id="patch_75">
    <path clip-path="url(#pfb7a1624ff)" d="M 389.539548 273.312 
L 392.877898 273.312 
L 392.877898 19.872 
L 389.539548 19.872 
z
" style="fill:#1f77b4;"/>
   </g>
   <g id="patch_76">
    <path clip-path="url(#pfb7a1624ff)" d="M 68.223352 273.312 
L 71.561702 273.312 
L 71.561702 273.265406 
L 68.223352 273.265406 
z
" style="fill:#ff7f0e;"/>
   </g>
   <g id="patch_77">
    <path clip-path="url(#pfb7a1624ff)" d="M 72.39629 273.312 
L 75.73464 273.312 
L 75.73464 273.265406 
L 72.39629 273.265406 
z
" style="fill:#ff7f0e;"/>
   </g>
   <g id="patch_78">
    <path clip-path="url(#pfb7a1624ff)" d="M 84.915103 273.312 
L 88.253453 273.312 
L 88.253453 273.263542 
L 84.915103 273.263542 
z
" style="fill:#ff7f0e;"/>
   </g>
   <g id="patch_79">
    <path clip-path="url(#pfb7a1624ff)" d="M 93.260978 273.312 
L 96.599328 273.312 
L 96.599328 273.259815 
L 93.260978 273.259815 
z
" style="fill:#ff7f0e;"/>
   </g>
   <g id="patch_80">
    <path clip-path="url(#pfb7a1624ff)" d="M 97.433915 273.312 
L 100.772266 273.312 
L 100.772266 273.257951 
L 97.433915 273.257951 
z
" style="fill:#ff7f0e;"/>
   </g>
   <g id="patch_81">
    <path clip-path="url(#pfb7a1624ff)" d="M 101.606853 273.312 
L 104.945203 273.312 
L 104.945203 273.250496 
L 101.606853 273.250496 
z
" style="fill:#ff7f0e;"/>
   </g>
   <g id="patch_82">
    <path clip-path="url(#pfb7a1624ff)" d="M 114.125666 273.312 
L 117.464016 273.312 
L 117.464016 273.202038 
L 114.125666 273.202038 
z
" style="fill:#ff7f0e;"/>
   </g>
   <g id="patch_83">
    <path clip-path="url(#pfb7a1624ff)" d="M 118.298603 273.312 
L 121.636954 273.312 
L 121.636954 273.188992 
L 118.298603 273.188992 
z
" style="fill:#ff7f0e;"/>
   </g>
   <g id="patch_84">
    <path clip-path="url(#pfb7a1624ff)" d="M 122.471541 273.312 
L 125.809891 273.312 
L 125.809891 273.175945 
L 122.471541 273.175945 
z
" style="fill:#ff7f0e;"/>
   </g>
   <g id="patch_85">
    <path clip-path="url(#pfb7a1624ff)" d="M 126.644479 273.312 
L 129.982829 273.312 
L 129.982829 273.155444 
L 126.644479 273.155444 
z
" style="fill:#ff7f0e;"/>
   </g>
   <g id="patch_86">
    <path clip-path="url(#pfb7a1624ff)" d="M 130.817416 273.312 
L 134.155766 273.312 
L 134.155766 273.13867 
L 130.817416 273.13867 
z
" style="fill:#ff7f0e;"/>
   </g>
   <g id="patch_87">
    <path clip-path="url(#pfb7a1624ff)" d="M 134.990354 273.312 
L 138.328704 273.312 
L 138.328704 273.116305 
L 134.990354 273.116305 
z
" style="fill:#ff7f0e;"/>
   </g>
   <g id="patch_88">
    <path clip-path="url(#pfb7a1624ff)" d="M 139.163292 273.312 
L 142.501642 273.312 
L 142.501642 273.065983 
L 139.163292 273.065983 
z
" style="fill:#ff7f0e;"/>
   </g>
   <g id="patch_89">
    <path clip-path="url(#pfb7a1624ff)" d="M 143.336229 273.312 
L 146.674579 273.312 
L 146.674579 273.043618 
L 143.336229 273.043618 
z
" style="fill:#ff7f0e;"/>
   </g>
   <g id="patch_90">
    <path clip-path="url(#pfb7a1624ff)" d="M 147.509167 273.312 
L 150.847517 273.312 
L 150.847517 273.021253 
L 147.509167 273.021253 
z
" style="fill:#ff7f0e;"/>
   </g>
   <g id="patch_91">
    <path clip-path="url(#pfb7a1624ff)" d="M 151.682104 273.312 
L 155.020454 273.312 
L 155.020454 273.006343 
L 151.682104 273.006343 
z
" style="fill:#ff7f0e;"/>
   </g>
   <g id="patch_92">
    <path clip-path="url(#pfb7a1624ff)" d="M 155.855042 273.312 
L 159.193392 273.312 
L 159.193392 272.96534 
L 155.855042 272.96534 
z
" style="fill:#ff7f0e;"/>
   </g>
   <g id="patch_93">
    <path clip-path="url(#pfb7a1624ff)" d="M 160.02798 273.312 
L 163.36633 273.312 
L 163.36633 272.92061 
L 160.02798 272.92061 
z
" style="fill:#ff7f0e;"/>
   </g>
   <g id="patch_94">
    <path clip-path="url(#pfb7a1624ff)" d="M 164.200917 273.312 
L 167.539267 273.312 
L 167.539267 272.883335 
L 164.200917 272.883335 
z
" style="fill:#ff7f0e;"/>
   </g>
   <g id="patch_95">
    <path clip-path="url(#pfb7a1624ff)" d="M 168.373855 273.312 
L 171.712205 273.312 
L 171.712205 272.866561 
L 168.373855 272.866561 
z
" style="fill:#ff7f0e;"/>
   </g>
   <g id="patch_96">
    <path clip-path="url(#pfb7a1624ff)" d="M 172.546792 273.312 
L 175.885142 273.312 
L 175.885142 272.838604 
L 172.546792 272.838604 
z
" style="fill:#ff7f0e;"/>
   </g>
   <g id="patch_97">
    <path clip-path="url(#pfb7a1624ff)" d="M 176.71973 273.312 
L 180.05808 273.312 
L 180.05808 272.812512 
L 176.71973 272.812512 
z
" style="fill:#ff7f0e;"/>
   </g>
   <g id="patch_98">
    <path clip-path="url(#pfb7a1624ff)" d="M 180.892668 273.312 
L 184.231018 273.312 
L 184.231018 272.782691 
L 180.892668 272.782691 
z
" style="fill:#ff7f0e;"/>
   </g>
   <g id="patch_99">
    <path clip-path="url(#pfb7a1624ff)" d="M 185.065605 273.312 
L 188.403955 273.312 
L 188.403955 272.721187 
L 185.065605 272.721187 
z
" style="fill:#ff7f0e;"/>
   </g>
   <g id="patch_100">
    <path clip-path="url(#pfb7a1624ff)" d="M 189.238543 273.312 
L 192.576893 273.312 
L 192.576893 272.663411 
L 189.238543 272.663411 
z
" style="fill:#ff7f0e;"/>
   </g>
   <g id="patch_101">
    <path clip-path="url(#pfb7a1624ff)" d="M 193.41148 273.312 
L 196.74983 273.312 
L 196.74983 272.553449 
L 193.41148 272.553449 
z
" style="fill:#ff7f0e;"/>
   </g>
   <g id="patch_102">
    <path clip-path="url(#pfb7a1624ff)" d="M 197.584418 273.312 
L 200.922768 273.312 
L 200.922768 272.465852 
L 197.584418 272.465852 
z
" style="fill:#ff7f0e;"/>
   </g>
   <g id="patch_103">
    <path clip-path="url(#pfb7a1624ff)" d="M 201.757356 273.312 
L 205.095706 273.312 
L 205.095706 272.404348 
L 201.757356 272.404348 
z
" style="fill:#ff7f0e;"/>
   </g>
   <g id="patch_104">
    <path clip-path="url(#pfb7a1624ff)" d="M 205.930293 273.312 
L 209.268643 273.312 
L 209.268643 272.35589 
L 205.930293 272.35589 
z
" style="fill:#ff7f0e;"/>
   </g>
   <g id="patch_105">
    <path clip-path="url(#pfb7a1624ff)" d="M 210.103231 273.312 
L 213.441581 273.312 
L 213.441581 272.255247 
L 210.103231 272.255247 
z
" style="fill:#ff7f0e;"/>
   </g>
   <g id="patch_106">
    <path clip-path="url(#pfb7a1624ff)" d="M 214.276168 273.312 
L 217.614518 273.312 
L 217.614518 272.158331 
L 214.276168 272.158331 
z
" style="fill:#ff7f0e;"/>
   </g>
   <g id="patch_107">
    <path clip-path="url(#pfb7a1624ff)" d="M 218.449106 273.312 
L 221.787456 273.312 
L 221.787456 272.055824 
L 218.449106 272.055824 
z
" style="fill:#ff7f0e;"/>
   </g>
   <g id="patch_108">
    <path clip-path="url(#pfb7a1624ff)" d="M 222.622044 273.312 
L 225.960394 273.312 
L 225.960394 271.981274 
L 222.622044 271.981274 
z
" style="fill:#ff7f0e;"/>
   </g>
   <g id="patch_109">
    <path clip-path="url(#pfb7a1624ff)" d="M 226.794981 273.312 
L 230.133331 273.312 
L 230.133331 271.863857 
L 226.794981 271.863857 
z
" style="fill:#ff7f0e;"/>
   </g>
   <g id="patch_110">
    <path clip-path="url(#pfb7a1624ff)" d="M 230.967919 273.312 
L 234.306269 273.312 
L 234.306269 271.804216 
L 230.967919 271.804216 
z
" style="fill:#ff7f0e;"/>
   </g>
   <g id="patch_111">
    <path clip-path="url(#pfb7a1624ff)" d="M 235.140856 273.312 
L 238.479206 273.312 
L 238.479206 271.77626 
L 235.140856 271.77626 
z
" style="fill:#ff7f0e;"/>
   </g>
   <g id="patch_112">
    <path clip-path="url(#pfb7a1624ff)" d="M 239.313794 273.312 
L 242.652144 273.312 
L 242.652144 271.694254 
L 239.313794 271.694254 
z
" style="fill:#ff7f0e;"/>
   </g>
   <g id="patch_113">
    <path clip-path="url(#pfb7a1624ff)" d="M 243.486732 273.312 
L 246.825082 273.312 
L 246.825082 271.621568 
L 243.486732 271.621568 
z
" style="fill:#ff7f0e;"/>
   </g>
   <g id="patch_114">
    <path clip-path="url(#pfb7a1624ff)" d="M 247.659669 273.312 
L 250.998019 273.312 
L 250.998019 271.554472 
L 247.659669 271.554472 
z
" style="fill:#ff7f0e;"/>
   </g>
   <g id="patch_115">
    <path clip-path="url(#pfb7a1624ff)" d="M 251.832607 273.312 
L 255.170957 273.312 
L 255.170957 271.455693 
L 251.832607 271.455693 
z
" style="fill:#ff7f0e;"/>
   </g>
   <g id="patch_116">
    <path clip-path="url(#pfb7a1624ff)" d="M 256.005544 273.312 
L 259.343894 273.312 
L 259.343894 271.362505 
L 256.005544 271.362505 
z
" style="fill:#ff7f0e;"/>
   </g>
   <g id="patch_117">
    <path clip-path="url(#pfb7a1624ff)" d="M 260.178482 273.312 
L 263.516832 273.312 
L 263.516832 271.282363 
L 260.178482 271.282363 
z
" style="fill:#ff7f0e;"/>
   </g>
   <g id="patch_118">
    <path clip-path="url(#pfb7a1624ff)" d="M 264.35142 273.312 
L 267.68977 273.312 
L 267.68977 271.209676 
L 264.35142 271.209676 
z
" style="fill:#ff7f0e;"/>
   </g>
   <g id="patch_119">
    <path clip-path="url(#pfb7a1624ff)" d="M 268.524357 273.312 
L 271.862707 273.312 
L 271.862707 271.088531 
L 268.524357 271.088531 
z
" style="fill:#ff7f0e;"/>
   </g>
   <g id="patch_120">
    <path clip-path="url(#pfb7a1624ff)" d="M 272.697295 273.312 
L 276.035645 273.312 
L 276.035645 270.905883 
L 272.697295 270.905883 
z
" style="fill:#ff7f0e;"/>
   </g>
   <g id="patch_121">
    <path clip-path="url(#pfb7a1624ff)" d="M 276.870232 273.312 
L 280.208582 273.312 
L 280.208582 270.726962 
L 276.870232 270.726962 
z
" style="fill:#ff7f0e;"/>
   </g>
   <g id="patch_122">
    <path clip-path="url(#pfb7a1624ff)" d="M 281.04317 273.312 
L 284.38152 273.312 
L 284.38152 270.51822 
L 281.04317 270.51822 
z
" style="fill:#ff7f0e;"/>
   </g>
   <g id="patch_123">
    <path clip-path="url(#pfb7a1624ff)" d="M 285.216108 273.312 
L 288.554458 273.312 
L 288.554458 270.15665 
L 285.216108 270.15665 
z
" style="fill:#ff7f0e;"/>
   </g>
   <g id="patch_124">
    <path clip-path="url(#pfb7a1624ff)" d="M 289.389045 273.312 
L 292.727395 273.312 
L 292.727395 269.834219 
L 289.389045 269.834219 
z
" style="fill:#ff7f0e;"/>
   </g>
   <g id="patch_125">
    <path clip-path="url(#pfb7a1624ff)" d="M 293.561983 273.312 
L 296.900333 273.312 
L 296.900333 269.672072 
L 293.561983 269.672072 
z
" style="fill:#ff7f0e;"/>
   </g>
   <g id="patch_126">
    <path clip-path="url(#pfb7a1624ff)" d="M 297.73492 273.312 
L 301.07327 273.312 
L 301.07327 269.252726 
L 297.73492 269.252726 
z
" style="fill:#ff7f0e;"/>
   </g>
   <g id="patch_127">
    <path clip-path="url(#pfb7a1624ff)" d="M 301.907858 273.312 
L 305.246208 273.312 
L 305.246208 268.874382 
L 301.907858 268.874382 
z
" style="fill:#ff7f0e;"/>
   </g>
   <g id="patch_128">
    <path clip-path="url(#pfb7a1624ff)" d="M 306.080796 273.312 
L 309.419146 273.312 
L 309.419146 268.434534 
L 306.080796 268.434534 
z
" style="fill:#ff7f0e;"/>
   </g>
   <g id="patch_129">
    <path clip-path="url(#pfb7a1624ff)" d="M 310.253733 273.312 
L 313.592083 273.312 
L 313.592083 267.841857 
L 310.253733 267.841857 
z
" style="fill:#ff7f0e;"/>
   </g>
   <g id="patch_130">
    <path clip-path="url(#pfb7a1624ff)" d="M 314.426671 273.312 
L 317.765021 273.312 
L 317.765021 267.215633 
L 314.426671 267.215633 
z
" style="fill:#ff7f0e;"/>
   </g>
   <g id="patch_131">
    <path clip-path="url(#pfb7a1624ff)" d="M 318.599608 273.312 
L 321.937958 273.312 
L 321.937958 266.501812 
L 318.599608 266.501812 
z
" style="fill:#ff7f0e;"/>
   </g>
   <g id="patch_132">
    <path clip-path="url(#pfb7a1624ff)" d="M 322.772546 273.312 
L 326.110896 273.312 
L 326.110896 266.032144 
L 322.772546 266.032144 
z
" style="fill:#ff7f0e;"/>
   </g>
   <g id="patch_133">
    <path clip-path="url(#pfb7a1624ff)" d="M 326.945484 273.312 
L 330.283834 273.312 
L 330.283834 265.377964 
L 326.945484 265.377964 
z
" style="fill:#ff7f0e;"/>
   </g>
   <g id="patch_134">
    <path clip-path="url(#pfb7a1624ff)" d="M 331.118421 273.312 
L 334.456771 273.312 
L 334.456771 264.425581 
L 331.118421 264.425581 
z
" style="fill:#ff7f0e;"/>
   </g>
   <g id="patch_135">
    <path clip-path="url(#pfb7a1624ff)" d="M 335.291359 273.312 
L 338.629709 273.312 
L 338.629709 263.346463 
L 335.291359 263.346463 
z
" style="fill:#ff7f0e;"/>
   </g>
   <g id="patch_136">
    <path clip-path="url(#pfb7a1624ff)" d="M 339.464296 273.312 
L 342.802647 273.312 
L 342.802647 262.120107 
L 339.464296 262.120107 
z
" style="fill:#ff7f0e;"/>
   </g>
   <g id="patch_137">
    <path clip-path="url(#pfb7a1624ff)" d="M 343.637234 273.312 
L 346.975584 273.312 
L 346.975584 260.735331 
L 343.637234 260.735331 
z
" style="fill:#ff7f0e;"/>
   </g>
   <g id="patch_138">
    <path clip-path="url(#pfb7a1624ff)" d="M 347.810172 273.312 
L 351.148522 273.312 
L 351.148522 259.790404 
L 347.810172 259.790404 
z
" style="fill:#ff7f0e;"/>
   </g>
   <g id="patch_139">
    <path clip-path="url(#pfb7a1624ff)" d="M 351.983109 273.312 
L 355.321459 273.312 
L 355.321459 259.063537 
L 351.983109 259.063537 
z
" style="fill:#ff7f0e;"/>
   </g>
   <g id="patch_140">
    <path clip-path="url(#pfb7a1624ff)" d="M 356.156047 273.312 
L 359.494397 273.312 
L 359.494397 258.215525 
L 356.156047 258.215525 
z
" style="fill:#ff7f0e;"/>
   </g>
   <g id="patch_141">
    <path clip-path="url(#pfb7a1624ff)" d="M 360.328984 273.312 
L 363.667335 273.312 
L 363.667335 257.317191 
L 360.328984 257.317191 
z
" style="fill:#ff7f0e;"/>
   </g>
   <g id="patch_142">
    <path clip-path="url(#pfb7a1624ff)" d="M 364.501922 273.312 
L 367.840272 273.312 
L 367.840272 256.22689 
L 364.501922 256.22689 
z
" style="fill:#ff7f0e;"/>
   </g>
   <g id="patch_143">
    <path clip-path="url(#pfb7a1624ff)" d="M 368.67486 273.312 
L 372.01321 273.312 
L 372.01321 255.056447 
L 368.67486 255.056447 
z
" style="fill:#ff7f0e;"/>
   </g>
   <g id="patch_144">
    <path clip-path="url(#pfb7a1624ff)" d="M 372.847797 273.312 
L 376.186147 273.312 
L 376.186147 254.001558 
L 372.847797 254.001558 
z
" style="fill:#ff7f0e;"/>
   </g>
   <g id="patch_145">
    <path clip-path="url(#pfb7a1624ff)" d="M 377.020735 273.312 
L 380.359085 273.312 
L 380.359085 253.274691 
L 377.020735 253.274691 
z
" style="fill:#ff7f0e;"/>
   </g>
   <g id="patch_146">
    <path clip-path="url(#pfb7a1624ff)" d="M 381.193672 273.312 
L 384.532023 273.312 
L 384.532023 252.588826 
L 381.193672 252.588826 
z
" style="fill:#ff7f0e;"/>
   </g>
   <g id="patch_147">
    <path clip-path="url(#pfb7a1624ff)" d="M 385.36661 273.312 
L 388.70496 273.312 
L 388.70496 251.886188 
L 385.36661 251.886188 
z
" style="fill:#ff7f0e;"/>
   </g>
   <g id="patch_148">
    <path clip-path="url(#pfb7a1624ff)" d="M 389.539548 273.312 
L 392.877898 273.312 
L 392.877898 251.097816 
L 389.539548 251.097816 
z
" style="fill:#ff7f0e;"/>
   </g>
   <g id="matplotlib.axis_1">
    <g id="xtick_1">
     <g id="line2d_1">
      <defs>
       <path d="M 0 0 
L 0 3.5 
" id="mf758d412ad" style="stroke:#000000;stroke-width:0.8;"/>
      </defs>
      <g>
       <use style="stroke:#000000;stroke-width:0.8;" x="105.362497" xlink:href="#mf758d412ad" y="273.312"/>
      </g>
     </g>
     <g id="text_1">
      <!-- 15 -->
      <defs>
       <path d="M 38.484375 0.984375 
L 29.6875 0.984375 
L 29.6875 64.109375 
Q 21.4375 61.28125 12.3125 59.328125 
L 10.6875 66.109375 
Q 23.734375 69.390625 32.90625 73.921875 
L 38.484375 73.921875 
z
" id="IPAexGothic-49"/>
       <path d="M 18.40625 40.671875 
Q 25.53125 46.296875 33.9375 46.296875 
Q 44 46.296875 50.640625 39.5 
Q 56.84375 33.015625 56.84375 23.390625 
Q 56.84375 14.65625 51.515625 8.015625 
Q 44.828125 -0.484375 31.734375 -0.484375 
Q 14.984375 -0.484375 7.328125 12.25 
L 14.65625 16.0625 
Q 20.453125 6.78125 31.453125 6.78125 
Q 38.53125 6.78125 43.265625 11.1875 
Q 48.140625 15.828125 48.140625 23.484375 
Q 48.140625 30.71875 43.84375 35.015625 
Q 39.359375 39.5 32.125 39.5 
Q 21.96875 39.5 16.75 31.6875 
L 9.234375 32.671875 
L 13.8125 72.40625 
L 53.21875 72.40625 
L 53.21875 64.890625 
L 20.953125 64.890625 
L 17.71875 40.671875 
z
" id="IPAexGothic-53"/>
      </defs>
      <g transform="translate(99.064059 287.802625)scale(0.1 -0.1)">
       <use xlink:href="#IPAexGothic-49"/>
       <use x="62.988281" xlink:href="#IPAexGothic-53"/>
      </g>
     </g>
    </g>
    <g id="xtick_2">
     <g id="line2d_2">
      <g>
       <use style="stroke:#000000;stroke-width:0.8;" x="167.956561" xlink:href="#mf758d412ad" y="273.312"/>
      </g>
     </g>
     <g id="text_2">
      <!-- Mar -->
      <defs>
       <path d="M 80.421875 0.984375 
L 71.828125 0.984375 
L 71.828125 39.59375 
Q 71.828125 51.265625 72.40625 64.59375 
L 72.015625 64.59375 
Q 68.0625 53.265625 63.53125 41.796875 
L 47.90625 3.265625 
L 41.40625 3.265625 
L 25.640625 42.578125 
Q 20.75 54.78125 17.625 64.703125 
L 17.234375 64.703125 
Q 17.828125 48.921875 17.828125 39.890625 
L 17.828125 0.984375 
L 9.515625 0.984375 
L 9.515625 72.40625 
L 22.125 72.40625 
L 39.109375 30.375 
Q 42.140625 23 44.828125 14.15625 
L 45.125 14.15625 
Q 47.3125 22.125 50.53125 30.171875 
L 67.4375 72.40625 
L 80.421875 72.40625 
z
" id="IPAexGothic-77"/>
       <path d="M 49.3125 0.984375 
L 41.75 0.984375 
Q 39.984375 4.734375 39.546875 8.6875 
L 39.203125 8.6875 
Q 33.546875 -0.390625 22.3125 -0.390625 
Q 14.59375 -0.390625 9.71875 4.5 
Q 5.421875 8.796875 5.421875 14.984375 
Q 5.421875 30.421875 32.03125 31.203125 
L 38.71875 31.390625 
L 38.71875 33.984375 
Q 38.71875 39.203125 35.75 42.1875 
Q 32.625 45.3125 27.734375 45.3125 
Q 19.34375 45.3125 15.140625 37.15625 
L 7.71875 40.578125 
Q 14.65625 52 27.9375 52 
Q 37.109375 52 42.046875 46.875 
Q 46.625 42.28125 46.625 33.890625 
L 46.625 15.578125 
Q 46.625 6.25 49.3125 0.984375 
z
M 38.921875 25.390625 
L 33.453125 25.296875 
Q 14.109375 24.859375 14.109375 14.890625 
Q 14.109375 11.375 16.40625 9.078125 
Q 19.234375 6.296875 23.828125 6.296875 
Q 30.21875 6.296875 34.90625 10.984375 
Q 38.921875 15.140625 38.921875 21 
z
" id="IPAexGothic-97"/>
       <path d="M 36.078125 51.8125 
L 34.578125 43.265625 
Q 32.90625 43.609375 31.59375 43.609375 
Q 25.828125 43.609375 22.078125 38.1875 
Q 17.390625 31.34375 17.390625 26.171875 
L 17.390625 0.984375 
L 8.796875 0.984375 
L 8.796875 50.78125 
L 16.890625 50.78125 
L 16.5 35.984375 
L 16.703125 35.984375 
Q 22.21875 52.203125 32.765625 52.203125 
Q 34.46875 52.203125 36.078125 51.8125 
z
" id="IPAexGothic-114"/>
      </defs>
      <g transform="translate(158.847186 287.802625)scale(0.1 -0.1)">
       <use xlink:href="#IPAexGothic-77"/>
       <use x="90.185547" xlink:href="#IPAexGothic-97"/>
       <use x="145.166016" xlink:href="#IPAexGothic-114"/>
      </g>
     </g>
    </g>
    <g id="xtick_3">
     <g id="line2d_3">
      <g>
       <use style="stroke:#000000;stroke-width:0.8;" x="226.377687" xlink:href="#mf758d412ad" y="273.312"/>
      </g>
     </g>
     <g id="text_3">
      <!-- 15 -->
      <g transform="translate(220.07925 287.802625)scale(0.1 -0.1)">
       <use xlink:href="#IPAexGothic-49"/>
       <use x="62.988281" xlink:href="#IPAexGothic-53"/>
      </g>
     </g>
    </g>
    <g id="xtick_4">
     <g id="line2d_4">
      <g>
       <use style="stroke:#000000;stroke-width:0.8;" x="297.317627" xlink:href="#mf758d412ad" y="273.312"/>
      </g>
     </g>
     <g id="text_4">
      <!-- Apr -->
      <defs>
       <path d="M 63.375 0.984375 
L 53.8125 0.984375 
L 45.90625 22.015625 
L 17.1875 22.015625 
L 9.421875 0.984375 
L -0.09375 0.984375 
L 28.21875 72.90625 
L 35.296875 72.90625 
z
M 43.40625 29.109375 
L 36.1875 48.09375 
Q 33.203125 56.0625 31.6875 62.5 
L 31.390625 62.5 
Q 29.640625 55.671875 26.8125 48.09375 
L 19.734375 29.109375 
z
" id="IPAexGothic-65"/>
       <path d="M 16.796875 42 
Q 23.828125 52.203125 34.46875 52.203125 
Q 43.265625 52.203125 49.5625 45.90625 
Q 56.890625 38.578125 56.890625 25.6875 
Q 56.890625 13.140625 49.65625 5.8125 
Q 43.359375 -0.484375 34.375 -0.484375 
Q 24.515625 -0.484375 17.28125 7.765625 
L 17.28125 -19 
L 8.796875 -19 
L 8.796875 50.78125 
L 16.796875 50.78125 
z
M 17.28125 30.46875 
L 17.28125 20.171875 
Q 17.28125 14.015625 23.6875 9.375 
Q 27.984375 6.296875 32.90625 6.296875 
Q 38.578125 6.296875 42.578125 10.296875 
Q 47.90625 15.578125 47.90625 25.484375 
Q 47.90625 34.375 43.5 39.984375 
Q 39.109375 45.3125 32.8125 45.3125 
Q 25.875 45.3125 20.90625 38.8125 
Q 17.28125 34.125 17.28125 30.46875 
z
" id="IPAexGothic-112"/>
      </defs>
      <g transform="translate(289.175439 287.802625)scale(0.1 -0.1)">
       <use xlink:href="#IPAexGothic-65"/>
       <use x="63.720703" xlink:href="#IPAexGothic-112"/>
       <use x="125.830078" xlink:href="#IPAexGothic-114"/>
      </g>
     </g>
    </g>
    <g id="xtick_5">
     <g id="line2d_5">
      <g>
       <use style="stroke:#000000;stroke-width:0.8;" x="355.738753" xlink:href="#mf758d412ad" y="273.312"/>
      </g>
     </g>
     <g id="text_5">
      <!-- 15 -->
      <g transform="translate(349.440316 287.802625)scale(0.1 -0.1)">
       <use xlink:href="#IPAexGothic-49"/>
       <use x="62.988281" xlink:href="#IPAexGothic-53"/>
      </g>
     </g>
    </g>
    <g id="text_6">
     <!-- 2020-Apr -->
     <defs>
      <path d="M 57.171875 0.984375 
L 6.984375 0.984375 
L 6.984375 9.28125 
Q 12.890625 23.046875 29.59375 34.421875 
L 32.375 36.28125 
Q 40.921875 42.140625 43.609375 45.40625 
Q 46.6875 49.265625 46.6875 53.8125 
Q 46.6875 58.9375 43.0625 62.546875 
Q 39.0625 66.546875 32.5625 66.546875 
Q 19.53125 66.546875 15.484375 52 
L 7.765625 54.78125 
Q 13.328125 73.828125 33.0625 73.828125 
Q 43.84375 73.828125 50.25 67.4375 
Q 55.859375 61.671875 55.859375 53.515625 
Q 55.859375 47.46875 52.25 42.53125 
Q 48.921875 37.75 36.96875 30.28125 
L 34.859375 29 
Q 19.625 19.578125 15.28125 8.890625 
L 57.171875 8.890625 
z
" id="IPAexGothic-50"/>
      <path d="M 31.84375 73.828125 
Q 45.015625 73.828125 52.09375 61.625 
Q 57.71875 51.953125 57.71875 36.625 
Q 57.71875 21.4375 52.09375 11.578125 
Q 45.125 -0.484375 31.5 -0.484375 
Q 17.921875 -0.484375 10.9375 11.578125 
Q 5.328125 21.4375 5.328125 36.71875 
Q 5.328125 58.015625 15.625 67.71875 
Q 22.171875 73.828125 31.84375 73.828125 
z
M 31.5 66.65625 
Q 23.6875 66.65625 19.1875 58.734375 
Q 14.59375 50.734375 14.59375 36.625 
Q 14.59375 22.75 19.09375 14.796875 
Q 23.640625 6.984375 31.5 6.984375 
Q 40.921875 6.984375 45.453125 18.015625 
Q 48.4375 25.34375 48.4375 37.109375 
Q 48.4375 50.875 43.84375 58.734375 
Q 39.203125 66.65625 31.5 66.65625 
z
" id="IPAexGothic-48"/>
      <path d="M 30.765625 26.609375 
L 4.984375 26.609375 
L 4.984375 34.421875 
L 30.765625 34.421875 
z
" id="IPAexGothic-45"/>
     </defs>
     <g transform="translate(364.052813 300.19325)scale(0.1 -0.1)">
      <use xlink:href="#IPAexGothic-50"/>
      <use x="62.988281" xlink:href="#IPAexGothic-48"/>
      <use x="125.976562" xlink:href="#IPAexGothic-50"/>
      <use x="188.964844" xlink:href="#IPAexGothic-48"/>
      <use x="251.953125" xlink:href="#IPAexGothic-45"/>
      <use x="287.744141" xlink:href="#IPAexGothic-65"/>
      <use x="351.464844" xlink:href="#IPAexGothic-112"/>
      <use x="413.574219" xlink:href="#IPAexGothic-114"/>
     </g>
    </g>
   </g>
   <g id="matplotlib.axis_2">
    <g id="ytick_1">
     <g id="line2d_6">
      <defs>
       <path d="M 0 0 
L -3.5 0 
" id="macc1964c33" style="stroke:#000000;stroke-width:0.8;"/>
      </defs>
      <g>
       <use style="stroke:#000000;stroke-width:0.8;" x="51.990625" xlink:href="#macc1964c33" y="273.312"/>
      </g>
     </g>
     <g id="text_7">
      <!-- 0 -->
      <g transform="translate(38.692188 277.057312)scale(0.1 -0.1)">
       <use xlink:href="#IPAexGothic-48"/>
      </g>
     </g>
    </g>
    <g id="ytick_2">
     <g id="line2d_7">
      <g>
       <use style="stroke:#000000;stroke-width:0.8;" x="51.990625" xlink:href="#macc1964c33" y="236.036752"/>
      </g>
     </g>
     <g id="text_8">
      <!-- 20000 -->
      <g transform="translate(13.498438 239.782065)scale(0.1 -0.1)">
       <use xlink:href="#IPAexGothic-50"/>
       <use x="62.988281" xlink:href="#IPAexGothic-48"/>
       <use x="125.976562" xlink:href="#IPAexGothic-48"/>
       <use x="188.964844" xlink:href="#IPAexGothic-48"/>
       <use x="251.953125" xlink:href="#IPAexGothic-48"/>
      </g>
     </g>
    </g>
    <g id="ytick_3">
     <g id="line2d_8">
      <g>
       <use style="stroke:#000000;stroke-width:0.8;" x="51.990625" xlink:href="#macc1964c33" y="198.761505"/>
      </g>
     </g>
     <g id="text_9">
      <!-- 40000 -->
      <defs>
       <path d="M 59.578125 18.109375 
L 47.796875 18.109375 
L 47.796875 0.984375 
L 39.796875 0.984375 
L 39.796875 18.109375 
L 3.078125 18.109375 
L 3.078125 26.125 
L 38.375 73.09375 
L 47.796875 73.09375 
L 47.796875 25.53125 
L 59.578125 25.53125 
z
M 40.28125 64.203125 
L 39.984375 64.203125 
Q 35.59375 57.125 31.296875 51.3125 
L 11.859375 25.53125 
L 39.796875 25.53125 
L 39.796875 49.125 
Q 39.796875 54.390625 40.28125 64.203125 
z
" id="IPAexGothic-52"/>
      </defs>
      <g transform="translate(13.498438 202.506817)scale(0.1 -0.1)">
       <use xlink:href="#IPAexGothic-52"/>
       <use x="62.988281" xlink:href="#IPAexGothic-48"/>
       <use x="125.976562" xlink:href="#IPAexGothic-48"/>
       <use x="188.964844" xlink:href="#IPAexGothic-48"/>
       <use x="251.953125" xlink:href="#IPAexGothic-48"/>
      </g>
     </g>
    </g>
    <g id="ytick_4">
     <g id="line2d_9">
      <g>
       <use style="stroke:#000000;stroke-width:0.8;" x="51.990625" xlink:href="#macc1964c33" y="161.486257"/>
      </g>
     </g>
     <g id="text_10">
      <!-- 60000 -->
      <defs>
       <path d="M 16.5 36.375 
Q 23.578125 46.578125 34.90625 46.578125 
Q 45.40625 46.578125 51.8125 39.265625 
Q 57.421875 32.90625 57.421875 23.78125 
Q 57.421875 13.8125 51.125 6.78125 
Q 44.578125 -0.484375 34.03125 -0.484375 
Q 21.484375 -0.484375 14.40625 9.078125 
Q 7.515625 18.40625 7.515625 34.8125 
Q 7.515625 53.515625 15.828125 64.203125 
Q 23.34375 73.828125 35.5 73.828125 
Q 49.859375 73.828125 56.390625 62.890625 
L 49.21875 58.984375 
Q 45.21875 66.65625 35.9375 66.65625 
Q 17.484375 66.65625 16.109375 36.375 
z
M 33.453125 39.796875 
Q 26.3125 39.796875 21.625 34.46875 
Q 17.4375 29.6875 17.4375 24.078125 
Q 17.4375 18.0625 21.140625 13.1875 
Q 26.125 6.6875 33.734375 6.6875 
Q 41.703125 6.6875 45.953125 13.1875 
Q 48.828125 17.625 48.828125 23.484375 
Q 48.828125 30.375 45.015625 34.8125 
Q 40.625 39.796875 33.453125 39.796875 
z
" id="IPAexGothic-54"/>
      </defs>
      <g transform="translate(13.498438 165.23157)scale(0.1 -0.1)">
       <use xlink:href="#IPAexGothic-54"/>
       <use x="62.988281" xlink:href="#IPAexGothic-48"/>
       <use x="125.976562" xlink:href="#IPAexGothic-48"/>
       <use x="188.964844" xlink:href="#IPAexGothic-48"/>
       <use x="251.953125" xlink:href="#IPAexGothic-48"/>
      </g>
     </g>
    </g>
    <g id="ytick_5">
     <g id="line2d_10">
      <g>
       <use style="stroke:#000000;stroke-width:0.8;" x="51.990625" xlink:href="#macc1964c33" y="124.211009"/>
      </g>
     </g>
     <g id="text_11">
      <!-- 80000 -->
      <defs>
       <path d="M 39.703125 37.890625 
Q 57.8125 31.734375 57.8125 18.703125 
Q 57.8125 8.453125 48.4375 3.078125 
Q 41.609375 -0.875 31.5 -0.875 
Q 21.34375 -0.875 14.5 3.078125 
Q 5.421875 8.296875 5.421875 18.40625 
Q 5.421875 31.0625 22.015625 37.203125 
L 22.015625 37.5 
Q 7.515625 42.71875 7.515625 54.828125 
Q 7.515625 64.0625 15.328125 69.625 
Q 21.96875 74.3125 31.546875 74.3125 
Q 42.234375 74.3125 48.921875 68.796875 
Q 55.515625 63.578125 55.515625 55.71875 
Q 55.515625 42.28125 39.703125 38.1875 
z
M 31.59375 41.015625 
Q 46.828125 44.625 46.828125 55.125 
Q 46.828125 61.1875 41.796875 64.84375 
Q 37.703125 67.921875 31.5 67.921875 
Q 25.09375 67.921875 20.796875 64.5 
Q 16.40625 60.890625 16.40625 55.03125 
Q 16.40625 49.21875 21.09375 45.703125 
Q 23.34375 43.890625 26.90625 42.53125 
Q 31 40.875 31.59375 41.015625 
z
M 30.90625 34.515625 
Q 14.40625 30.171875 14.40625 19 
Q 14.40625 12.109375 20.515625 8.6875 
Q 25.09375 6.109375 31.390625 6.109375 
Q 40.234375 6.109375 45.015625 10.890625 
Q 48.53125 14.40625 48.53125 19.53125 
Q 48.53125 24.90625 43.65625 28.90625 
Q 40.765625 31.15625 36.71875 32.8125 
Q 31.984375 34.71875 30.90625 34.515625 
z
" id="IPAexGothic-56"/>
      </defs>
      <g transform="translate(13.498438 127.956322)scale(0.1 -0.1)">
       <use xlink:href="#IPAexGothic-56"/>
       <use x="62.988281" xlink:href="#IPAexGothic-48"/>
       <use x="125.976562" xlink:href="#IPAexGothic-48"/>
       <use x="188.964844" xlink:href="#IPAexGothic-48"/>
       <use x="251.953125" xlink:href="#IPAexGothic-48"/>
      </g>
     </g>
    </g>
    <g id="ytick_6">
     <g id="line2d_11">
      <g>
       <use style="stroke:#000000;stroke-width:0.8;" x="51.990625" xlink:href="#macc1964c33" y="86.935762"/>
      </g>
     </g>
     <g id="text_12">
      <!-- 100000 -->
      <g transform="translate(7.2 90.681074)scale(0.1 -0.1)">
       <use xlink:href="#IPAexGothic-49"/>
       <use x="62.988281" xlink:href="#IPAexGothic-48"/>
       <use x="125.976562" xlink:href="#IPAexGothic-48"/>
       <use x="188.964844" xlink:href="#IPAexGothic-48"/>
       <use x="251.953125" xlink:href="#IPAexGothic-48"/>
       <use x="314.941406" xlink:href="#IPAexGothic-48"/>
      </g>
     </g>
    </g>
    <g id="ytick_7">
     <g id="line2d_12">
      <g>
       <use style="stroke:#000000;stroke-width:0.8;" x="51.990625" xlink:href="#macc1964c33" y="49.660514"/>
      </g>
     </g>
     <g id="text_13">
      <!-- 120000 -->
      <g transform="translate(7.2 53.405827)scale(0.1 -0.1)">
       <use xlink:href="#IPAexGothic-49"/>
       <use x="62.988281" xlink:href="#IPAexGothic-50"/>
       <use x="125.976562" xlink:href="#IPAexGothic-48"/>
       <use x="188.964844" xlink:href="#IPAexGothic-48"/>
       <use x="251.953125" xlink:href="#IPAexGothic-48"/>
       <use x="314.941406" xlink:href="#IPAexGothic-48"/>
      </g>
     </g>
    </g>
    <g id="ytick_8">
     <g id="line2d_13">
      <g>
       <use style="stroke:#000000;stroke-width:0.8;" x="51.990625" xlink:href="#macc1964c33" y="12.385267"/>
      </g>
     </g>
     <g id="text_14">
      <!-- 140000 -->
      <g transform="translate(7.2 16.130579)scale(0.1 -0.1)">
       <use xlink:href="#IPAexGothic-49"/>
       <use x="62.988281" xlink:href="#IPAexGothic-52"/>
       <use x="125.976562" xlink:href="#IPAexGothic-48"/>
       <use x="188.964844" xlink:href="#IPAexGothic-48"/>
       <use x="251.953125" xlink:href="#IPAexGothic-48"/>
       <use x="314.941406" xlink:href="#IPAexGothic-48"/>
      </g>
     </g>
    </g>
   </g>
   <g id="patch_149">
    <path d="M 51.990625 273.312 
L 51.990625 7.2 
" style="fill:none;stroke:#000000;stroke-linecap:square;stroke-linejoin:miter;stroke-width:0.8;"/>
   </g>
   <g id="patch_150">
    <path d="M 409.110625 273.312 
L 409.110625 7.2 
" style="fill:none;stroke:#000000;stroke-linecap:square;stroke-linejoin:miter;stroke-width:0.8;"/>
   </g>
   <g id="patch_151">
    <path d="M 51.990625 273.312 
L 409.110625 273.312 
" style="fill:none;stroke:#000000;stroke-linecap:square;stroke-linejoin:miter;stroke-width:0.8;"/>
   </g>
   <g id="patch_152">
    <path d="M 51.990625 7.2 
L 409.110625 7.2 
" style="fill:none;stroke:#000000;stroke-linecap:square;stroke-linejoin:miter;stroke-width:0.8;"/>
   </g>
   <g id="legend_1">
    <g id="patch_153">
     <path d="M 58.990625 44.039062 
L 132.0375 44.039062 
Q 134.0375 44.039062 134.0375 42.039062 
L 134.0375 14.2 
Q 134.0375 12.2 132.0375 12.2 
L 58.990625 12.2 
Q 56.990625 12.2 56.990625 14.2 
L 56.990625 42.039062 
Q 56.990625 44.039062 58.990625 44.039062 
z
" style="fill:#ffffff;opacity:0.8;stroke:#cccccc;stroke-linejoin:miter;"/>
    </g>
    <g id="patch_154">
     <path d="M 60.990625 23.690625 
L 80.990625 23.690625 
L 80.990625 16.690625 
L 60.990625 16.690625 
z
" style="fill:#1f77b4;"/>
    </g>
    <g id="text_15">
     <!-- Negative -->
     <defs>
      <path d="M 66.3125 0.984375 
L 58.296875 0.984375 
L 26.515625 49.21875 
Q 22.90625 54.6875 17.828125 64.015625 
L 17.4375 64.015625 
L 17.625 59.328125 
Q 18.109375 43.796875 18.109375 38.578125 
L 18.109375 0.984375 
L 9.515625 0.984375 
L 9.515625 72.40625 
L 21.34375 72.40625 
L 48.640625 30.90625 
Q 53.953125 22.609375 58.015625 15.09375 
L 58.40625 15.09375 
Q 57.71875 29.640625 57.71875 38.578125 
L 57.71875 72.40625 
L 66.3125 72.40625 
z
" id="IPAexGothic-78"/>
      <path d="M 13.484375 24.90625 
Q 13.921875 16.265625 18.890625 11.28125 
Q 23.96875 6.203125 31.203125 6.203125 
Q 40.71875 6.203125 46.296875 15.09375 
L 51.90625 11.375 
Q 44.828125 -0.484375 30.171875 -0.484375 
Q 19.09375 -0.484375 11.96875 6.59375 
Q 4.78125 13.8125 4.78125 25.640625 
Q 4.78125 38.1875 12.3125 45.703125 
Q 19 52.390625 29 52.390625 
Q 38.421875 52.390625 44.78125 46.1875 
Q 51.90625 38.96875 51.90625 26.90625 
L 51.90625 24.90625 
z
M 43.0625 31.203125 
Q 42.328125 37.984375 38.28125 41.890625 
Q 34.28125 45.90625 28.8125 45.90625 
Q 22.46875 45.90625 17.96875 40.484375 
Q 14.890625 36.8125 13.96875 31.203125 
z
" id="IPAexGothic-101"/>
      <path d="M 20.796875 17.96875 
Q 15.71875 17.53125 15.71875 14.0625 
Q 15.71875 9.578125 27.546875 8.984375 
L 33.296875 8.6875 
Q 51.609375 7.765625 51.609375 -4.59375 
Q 51.609375 -10.9375 45.703125 -14.984375 
Q 39.359375 -19.578125 28.03125 -19.578125 
Q 17.78125 -19.578125 11.53125 -16.0625 
Q 5.515625 -12.640625 5.515625 -6.6875 
Q 5.515625 1.3125 16.796875 3.859375 
L 16.796875 4.203125 
Q 7.90625 6.453125 7.90625 12.15625 
Q 7.90625 17.4375 15.53125 20.265625 
Q 7.125 24.609375 7.125 34.078125 
Q 7.125 41.40625 12.015625 46.296875 
Q 17.625 51.90625 27.15625 51.90625 
Q 33.203125 51.90625 37.84375 49.265625 
Q 41.40625 53.953125 50.921875 54.109375 
L 50.921875 47.078125 
Q 44.34375 46.921875 42.234375 45.90625 
Q 47.40625 40.828125 47.40625 33.890625 
Q 47.40625 27 42.71875 22.265625 
Q 37.5 17.09375 28.328125 17.09375 
Q 24.421875 17.09375 20.796875 17.96875 
z
M 27.09375 45.609375 
Q 22.015625 45.609375 18.703125 42.28125 
Q 15.4375 39.015625 15.4375 34.078125 
Q 15.4375 29.25 18.5 26.3125 
Q 21.828125 23 27.4375 23 
Q 32.71875 23 35.890625 26.21875 
Q 39.109375 29.390625 39.109375 34.421875 
Q 39.109375 39.015625 35.890625 42.1875 
Q 32.515625 45.609375 27.09375 45.609375 
z
M 27.390625 2.484375 
Q 14.109375 2.484375 14.109375 -5.71875 
Q 14.109375 -13.671875 28.125 -13.671875 
Q 37.15625 -13.671875 41.21875 -9.46875 
Q 43.3125 -7.515625 43.3125 -4.890625 
Q 43.3125 2.484375 27.390625 2.484375 
z
" id="IPAexGothic-103"/>
      <path d="M 33.203125 3.765625 
Q 27.640625 -0.09375 21.828125 -0.09375 
Q 10.203125 -0.09375 10.203125 12.984375 
L 10.203125 44.671875 
L 3.421875 44.671875 
L 3.421875 50.78125 
L 10.203125 50.78125 
L 10.203125 61.96875 
L 18.40625 66.0625 
L 18.40625 50.78125 
L 32.234375 50.78125 
L 32.234375 44.671875 
L 18.40625 44.671875 
L 18.40625 14.15625 
Q 18.40625 6.5 23.640625 6.5 
Q 27.15625 6.5 30.328125 9.1875 
z
" id="IPAexGothic-116"/>
      <path d="M 18.40625 61.375 
L 8.59375 61.375 
L 8.59375 71.390625 
L 18.40625 71.390625 
z
M 17.78125 0.984375 
L 9.1875 0.984375 
L 9.1875 50.78125 
L 17.78125 50.78125 
z
" id="IPAexGothic-105"/>
      <path d="M 48.484375 50.78125 
L 27.296875 0.09375 
L 21.484375 0.09375 
L 0.390625 50.78125 
L 9.8125 50.78125 
L 20.90625 21.6875 
L 23.78125 13.1875 
L 24.515625 10.984375 
L 24.8125 10.984375 
Q 25.640625 13.8125 28.46875 21.6875 
L 39.3125 50.78125 
z
" id="IPAexGothic-118"/>
     </defs>
     <g transform="translate(88.990625 23.690625)scale(0.1 -0.1)">
      <use xlink:href="#IPAexGothic-78"/>
      <use x="75.976562" xlink:href="#IPAexGothic-101"/>
      <use x="132.861328" xlink:href="#IPAexGothic-103"/>
      <use x="188.378906" xlink:href="#IPAexGothic-97"/>
      <use x="243.359375" xlink:href="#IPAexGothic-116"/>
      <use x="277.978516" xlink:href="#IPAexGothic-105"/>
      <use x="304.980469" xlink:href="#IPAexGothic-118"/>
      <use x="353.564453" xlink:href="#IPAexGothic-101"/>
     </g>
    </g>
    <g id="patch_155">
     <path d="M 60.990625 38.139062 
L 80.990625 38.139062 
L 80.990625 31.139062 
L 60.990625 31.139062 
z
" style="fill:#ff7f0e;"/>
    </g>
    <g id="text_16">
     <!-- Positive -->
     <defs>
      <path d="M 9.515625 72.40625 
L 30.328125 72.40625 
Q 57.625 72.40625 57.625 51.90625 
Q 57.625 30.21875 29.78125 30.21875 
L 18.3125 30.21875 
L 18.3125 0.984375 
L 9.515625 0.984375 
z
M 18.3125 37.203125 
L 28.125 37.203125 
Q 48.4375 37.203125 48.4375 51.8125 
Q 48.4375 65.328125 29.59375 65.328125 
L 18.3125 65.328125 
z
" id="IPAexGothic-80"/>
      <path d="M 29.984375 52.203125 
Q 40.53125 52.203125 47.75 45.125 
Q 55.171875 37.703125 55.171875 25.59375 
Q 55.171875 13.875 47.90625 6.59375 
Q 40.765625 -0.484375 29.984375 -0.484375 
Q 19.1875 -0.484375 12.203125 6.5 
Q 4.890625 13.765625 4.890625 25.875 
Q 4.890625 37.703125 12.3125 45.125 
Q 19.390625 52.203125 29.984375 52.203125 
z
M 29.984375 45.609375 
Q 23.734375 45.609375 19.390625 41.109375 
Q 13.875 35.59375 13.875 25.78125 
Q 13.875 16.109375 19.28125 10.6875 
Q 23.6875 6.296875 29.984375 6.296875 
Q 36.421875 6.296875 40.765625 10.796875 
Q 46.1875 16.21875 46.1875 26.125 
Q 46.1875 35.453125 40.671875 41.109375 
Q 36.1875 45.609375 29.984375 45.609375 
z
" id="IPAexGothic-111"/>
      <path d="M 34.90625 39.796875 
Q 30.28125 45.796875 23.1875 45.796875 
Q 13.921875 45.796875 13.921875 38.671875 
Q 13.921875 33.640625 23.921875 30.375 
L 27.203125 29.296875 
Q 41.40625 24.65625 41.40625 13.96875 
Q 41.40625 6.78125 35.5 2.6875 
Q 30.8125 -0.484375 23.390625 -0.484375 
Q 11.96875 -0.484375 4 7.859375 
L 9.421875 12.796875 
Q 15.578125 6.203125 23.6875 6.203125 
Q 33.296875 6.203125 33.296875 13.671875 
Q 33.296875 19.34375 22.703125 23.09375 
L 19.28125 24.265625 
Q 5.90625 28.953125 5.90625 37.984375 
Q 5.90625 43.703125 9.8125 47.609375 
Q 14.5 52.296875 22.703125 52.296875 
Q 33.6875 52.296875 40.71875 44.671875 
z
" id="IPAexGothic-115"/>
     </defs>
     <g transform="translate(88.990625 38.139062)scale(0.1 -0.1)">
      <use xlink:href="#IPAexGothic-80"/>
      <use x="62.109375" xlink:href="#IPAexGothic-111"/>
      <use x="122.509766" xlink:href="#IPAexGothic-115"/>
      <use x="168.701172" xlink:href="#IPAexGothic-105"/>
      <use x="195.703125" xlink:href="#IPAexGothic-116"/>
      <use x="230.322266" xlink:href="#IPAexGothic-105"/>
      <use x="257.324219" xlink:href="#IPAexGothic-118"/>
      <use x="305.908203" xlink:href="#IPAexGothic-101"/>
     </g>
    </g>
   </g>
  </g>
 </g>
 <defs>
  <clipPath id="pfb7a1624ff">
   <rect height="266.112" width="357.12" x="51.990625" y="7.2"/>
  </clipPath>
 </defs>
</svg>
