<?xml version="1.0" encoding="utf-8" standalone="no"?>
<!DOCTYPE svg PUBLIC "-//W3C//DTD SVG 1.1//EN"
  "http://www.w3.org/Graphics/SVG/1.1/DTD/svg11.dtd">
<!-- Created with matplotlib (https://matplotlib.org/) -->
<svg height="309.29325pt" version="1.1" viewBox="0 0 397.415312 309.29325" width="397.415312pt" xmlns="http://www.w3.org/2000/svg" xmlns:xlink="http://www.w3.org/1999/xlink">
 <defs>
  <style type="text/css">
*{stroke-linecap:butt;stroke-linejoin:round;}
  </style>
 </defs>
 <g id="figure_1">
  <g id="patch_1">
   <path d="M 0 309.29325 
L 397.415312 309.29325 
L 397.415312 0 
L 0 0 
z
" style="fill:#ffffff;"/>
  </g>
  <g id="axes_1">
   <g id="patch_2">
    <path d="M 33.095313 273.312 
L 390.215312 273.312 
L 390.215312 7.2 
L 33.095313 7.2 
z
" style="fill:#ffffff;"/>
   </g>
   <g id="patch_3">
    <path clip-path="url(#p826366ea90)" d="M 49.32804 273.312 
L 54.761589 273.312 
L 54.761589 272.754989 
L 49.32804 272.754989 
z
" style="fill:#ffbb78;"/>
   </g>
   <g id="patch_4">
    <path clip-path="url(#p826366ea90)" d="M 56.119976 273.312 
L 61.553525 273.312 
L 61.553525 272.754989 
L 56.119976 272.754989 
z
" style="fill:#ffbb78;"/>
   </g>
   <g id="patch_5">
    <path clip-path="url(#p826366ea90)" d="M 62.911912 273.312 
L 68.345461 273.312 
L 68.345461 272.754989 
L 62.911912 272.754989 
z
" style="fill:#ffbb78;"/>
   </g>
   <g id="patch_6">
    <path clip-path="url(#p826366ea90)" d="M 69.703848 273.312 
L 75.137397 273.312 
L 75.137397 272.754989 
L 69.703848 272.754989 
z
" style="fill:#ffbb78;"/>
   </g>
   <g id="patch_7">
    <path clip-path="url(#p826366ea90)" d="M 76.495784 273.312 
L 81.929333 273.312 
L 81.929333 271.640967 
L 76.495784 271.640967 
z
" style="fill:#ffbb78;"/>
   </g>
   <g id="patch_8">
    <path clip-path="url(#p826366ea90)" d="M 83.28772 273.312 
L 88.721269 273.312 
L 88.721269 271.640967 
L 83.28772 271.640967 
z
" style="fill:#ffbb78;"/>
   </g>
   <g id="patch_9">
    <path clip-path="url(#p826366ea90)" d="M 90.079656 273.312 
L 95.513205 273.312 
L 95.513205 271.083956 
L 90.079656 271.083956 
z
" style="fill:#ffbb78;"/>
   </g>
   <g id="patch_10">
    <path clip-path="url(#p826366ea90)" d="M 96.871592 273.312 
L 102.305141 273.312 
L 102.305141 269.969934 
L 96.871592 269.969934 
z
" style="fill:#ffbb78;"/>
   </g>
   <g id="patch_11">
    <path clip-path="url(#p826366ea90)" d="M 103.663529 273.312 
L 109.097077 273.312 
L 109.097077 269.412923 
L 103.663529 269.412923 
z
" style="fill:#ffbb78;"/>
   </g>
   <g id="patch_12">
    <path clip-path="url(#p826366ea90)" d="M 110.455465 273.312 
L 115.889014 273.312 
L 115.889014 267.184879 
L 110.455465 267.184879 
z
" style="fill:#ffbb78;"/>
   </g>
   <g id="patch_13">
    <path clip-path="url(#p826366ea90)" d="M 117.247401 273.312 
L 122.68095 273.312 
L 122.68095 265.513846 
L 117.247401 265.513846 
z
" style="fill:#ffbb78;"/>
   </g>
   <g id="patch_14">
    <path clip-path="url(#p826366ea90)" d="M 124.039337 273.312 
L 129.472886 273.312 
L 129.472886 263.842813 
L 124.039337 263.842813 
z
" style="fill:#ffbb78;"/>
   </g>
   <g id="patch_15">
    <path clip-path="url(#p826366ea90)" d="M 130.831273 273.312 
L 136.264822 273.312 
L 136.264822 262.17178 
L 130.831273 262.17178 
z
" style="fill:#ffbb78;"/>
   </g>
   <g id="patch_16">
    <path clip-path="url(#p826366ea90)" d="M 137.623209 273.312 
L 143.056758 273.312 
L 143.056758 262.17178 
L 137.623209 262.17178 
z
" style="fill:#ffbb78;"/>
   </g>
   <g id="patch_17">
    <path clip-path="url(#p826366ea90)" d="M 144.415145 273.312 
L 149.848694 273.312 
L 149.848694 262.17178 
L 144.415145 262.17178 
z
" style="fill:#ffbb78;"/>
   </g>
   <g id="patch_18">
    <path clip-path="url(#p826366ea90)" d="M 151.207081 273.312 
L 156.64063 273.312 
L 156.64063 260.500747 
L 151.207081 260.500747 
z
" style="fill:#ffbb78;"/>
   </g>
   <g id="patch_19">
    <path clip-path="url(#p826366ea90)" d="M 157.999017 273.312 
L 163.432566 273.312 
L 163.432566 259.386725 
L 157.999017 259.386725 
z
" style="fill:#ffbb78;"/>
   </g>
   <g id="patch_20">
    <path clip-path="url(#p826366ea90)" d="M 164.790953 273.312 
L 170.224502 273.312 
L 170.224502 259.386725 
L 164.790953 259.386725 
z
" style="fill:#ffbb78;"/>
   </g>
   <g id="patch_21">
    <path clip-path="url(#p826366ea90)" d="M 171.58289 273.312 
L 177.016438 273.312 
L 177.016438 259.386725 
L 171.58289 259.386725 
z
" style="fill:#ffbb78;"/>
   </g>
   <g id="patch_22">
    <path clip-path="url(#p826366ea90)" d="M 178.374826 273.312 
L 183.808375 273.312 
L 183.808375 258.829714 
L 178.374826 258.829714 
z
" style="fill:#ffbb78;"/>
   </g>
   <g id="patch_23">
    <path clip-path="url(#p826366ea90)" d="M 185.166762 273.312 
L 190.600311 273.312 
L 190.600311 258.829714 
L 185.166762 258.829714 
z
" style="fill:#ffbb78;"/>
   </g>
   <g id="patch_24">
    <path clip-path="url(#p826366ea90)" d="M 191.958698 273.312 
L 197.392247 273.312 
L 197.392247 258.829714 
L 191.958698 258.829714 
z
" style="fill:#ffbb78;"/>
   </g>
   <g id="patch_25">
    <path clip-path="url(#p826366ea90)" d="M 198.750634 273.312 
L 204.184183 273.312 
L 204.184183 257.715692 
L 198.750634 257.715692 
z
" style="fill:#ffbb78;"/>
   </g>
   <g id="patch_26">
    <path clip-path="url(#p826366ea90)" d="M 205.54257 273.312 
L 210.976119 273.312 
L 210.976119 257.158681 
L 205.54257 257.158681 
z
" style="fill:#ffbb78;"/>
   </g>
   <g id="patch_27">
    <path clip-path="url(#p826366ea90)" d="M 212.334506 273.312 
L 217.768055 273.312 
L 217.768055 254.930637 
L 212.334506 254.930637 
z
" style="fill:#ffbb78;"/>
   </g>
   <g id="patch_28">
    <path clip-path="url(#p826366ea90)" d="M 219.126442 273.312 
L 224.559991 273.312 
L 224.559991 250.474549 
L 219.126442 250.474549 
z
" style="fill:#ffbb78;"/>
   </g>
   <g id="patch_29">
    <path clip-path="url(#p826366ea90)" d="M 225.918378 273.312 
L 231.351927 273.312 
L 231.351927 243.790418 
L 225.918378 243.790418 
z
" style="fill:#ffbb78;"/>
   </g>
   <g id="patch_30">
    <path clip-path="url(#p826366ea90)" d="M 232.710314 273.312 
L 238.143863 273.312 
L 238.143863 240.448352 
L 232.710314 240.448352 
z
" style="fill:#ffbb78;"/>
   </g>
   <g id="patch_31">
    <path clip-path="url(#p826366ea90)" d="M 239.502251 273.312 
L 244.935799 273.312 
L 244.935799 237.106286 
L 239.502251 237.106286 
z
" style="fill:#ffbb78;"/>
   </g>
   <g id="patch_32">
    <path clip-path="url(#p826366ea90)" d="M 246.294187 273.312 
L 251.727735 273.312 
L 251.727735 232.650198 
L 246.294187 232.650198 
z
" style="fill:#ffbb78;"/>
   </g>
   <g id="patch_33">
    <path clip-path="url(#p826366ea90)" d="M 253.086123 273.312 
L 258.519672 273.312 
L 258.519672 225.966066 
L 253.086123 225.966066 
z
" style="fill:#ffbb78;"/>
   </g>
   <g id="patch_34">
    <path clip-path="url(#p826366ea90)" d="M 259.878059 273.312 
L 265.311608 273.312 
L 265.311608 221.509978 
L 259.878059 221.509978 
z
" style="fill:#ffbb78;"/>
   </g>
   <g id="patch_35">
    <path clip-path="url(#p826366ea90)" d="M 266.669995 273.312 
L 272.103544 273.312 
L 272.103544 214.825846 
L 266.669995 214.825846 
z
" style="fill:#ffbb78;"/>
   </g>
   <g id="patch_36">
    <path clip-path="url(#p826366ea90)" d="M 273.461931 273.312 
L 278.89548 273.312 
L 278.89548 199.786549 
L 273.461931 199.786549 
z
" style="fill:#ffbb78;"/>
   </g>
   <g id="patch_37">
    <path clip-path="url(#p826366ea90)" d="M 280.253867 273.312 
L 285.687416 273.312 
L 285.687416 193.102418 
L 280.253867 193.102418 
z
" style="fill:#ffbb78;"/>
   </g>
   <g id="patch_38">
    <path clip-path="url(#p826366ea90)" d="M 287.045803 273.312 
L 292.479352 273.312 
L 292.479352 185.861275 
L 287.045803 185.861275 
z
" style="fill:#ffbb78;"/>
   </g>
   <g id="patch_39">
    <path clip-path="url(#p826366ea90)" d="M 293.837739 273.312 
L 299.271288 273.312 
L 299.271288 181.962198 
L 293.837739 181.962198 
z
" style="fill:#ffbb78;"/>
   </g>
   <g id="patch_40">
    <path clip-path="url(#p826366ea90)" d="M 300.629675 273.312 
L 306.063224 273.312 
L 306.063224 169.707956 
L 300.629675 169.707956 
z
" style="fill:#ffbb78;"/>
   </g>
   <g id="patch_41">
    <path clip-path="url(#p826366ea90)" d="M 307.421611 273.312 
L 312.85516 273.312 
L 312.85516 156.339692 
L 307.421611 156.339692 
z
" style="fill:#ffbb78;"/>
   </g>
   <g id="patch_42">
    <path clip-path="url(#p826366ea90)" d="M 314.213548 273.312 
L 319.647096 273.312 
L 319.647096 145.199473 
L 314.213548 145.199473 
z
" style="fill:#ffbb78;"/>
   </g>
   <g id="patch_43">
    <path clip-path="url(#p826366ea90)" d="M 321.005484 273.312 
L 326.439033 273.312 
L 326.439033 140.186374 
L 321.005484 140.186374 
z
" style="fill:#ffbb78;"/>
   </g>
   <g id="patch_44">
    <path clip-path="url(#p826366ea90)" d="M 327.79742 273.312 
L 333.230969 273.312 
L 333.230969 131.831209 
L 327.79742 131.831209 
z
" style="fill:#ffbb78;"/>
   </g>
   <g id="patch_45">
    <path clip-path="url(#p826366ea90)" d="M 334.589356 273.312 
L 340.022905 273.312 
L 340.022905 124.033055 
L 334.589356 124.033055 
z
" style="fill:#ffbb78;"/>
   </g>
   <g id="patch_46">
    <path clip-path="url(#p826366ea90)" d="M 341.381292 273.312 
L 346.814841 273.312 
L 346.814841 115.120879 
L 341.381292 115.120879 
z
" style="fill:#ffbb78;"/>
   </g>
   <g id="patch_47">
    <path clip-path="url(#p826366ea90)" d="M 348.173228 273.312 
L 353.606777 273.312 
L 353.606777 96.739516 
L 348.173228 96.739516 
z
" style="fill:#ffbb78;"/>
   </g>
   <g id="patch_48">
    <path clip-path="url(#p826366ea90)" d="M 354.965164 273.312 
L 360.398713 273.312 
L 360.398713 78.915165 
L 354.965164 78.915165 
z
" style="fill:#ffbb78;"/>
   </g>
   <g id="patch_49">
    <path clip-path="url(#p826366ea90)" d="M 361.7571 273.312 
L 367.190649 273.312 
L 367.190649 46.051516 
L 361.7571 46.051516 
z
" style="fill:#ffbb78;"/>
   </g>
   <g id="patch_50">
    <path clip-path="url(#p826366ea90)" d="M 368.549036 273.312 
L 373.982585 273.312 
L 373.982585 19.872 
L 368.549036 19.872 
z
" style="fill:#ffbb78;"/>
   </g>
   <g id="patch_51">
    <path clip-path="url(#p826366ea90)" d="M 49.32804 273.312 
L 54.761589 273.312 
L 54.761589 273.312 
L 49.32804 273.312 
z
" style="fill:#d62728;"/>
   </g>
   <g id="patch_52">
    <path clip-path="url(#p826366ea90)" d="M 56.119976 273.312 
L 61.553525 273.312 
L 61.553525 273.312 
L 56.119976 273.312 
z
" style="fill:#d62728;"/>
   </g>
   <g id="patch_53">
    <path clip-path="url(#p826366ea90)" d="M 62.911912 273.312 
L 68.345461 273.312 
L 68.345461 273.312 
L 62.911912 273.312 
z
" style="fill:#d62728;"/>
   </g>
   <g id="patch_54">
    <path clip-path="url(#p826366ea90)" d="M 69.703848 273.312 
L 75.137397 273.312 
L 75.137397 273.312 
L 69.703848 273.312 
z
" style="fill:#d62728;"/>
   </g>
   <g id="patch_55">
    <path clip-path="url(#p826366ea90)" d="M 76.495784 273.312 
L 81.929333 273.312 
L 81.929333 273.312 
L 76.495784 273.312 
z
" style="fill:#d62728;"/>
   </g>
   <g id="patch_56">
    <path clip-path="url(#p826366ea90)" d="M 83.28772 273.312 
L 88.721269 273.312 
L 88.721269 273.312 
L 83.28772 273.312 
z
" style="fill:#d62728;"/>
   </g>
   <g id="patch_57">
    <path clip-path="url(#p826366ea90)" d="M 90.079656 273.312 
L 95.513205 273.312 
L 95.513205 273.312 
L 90.079656 273.312 
z
" style="fill:#d62728;"/>
   </g>
   <g id="patch_58">
    <path clip-path="url(#p826366ea90)" d="M 96.871592 273.312 
L 102.305141 273.312 
L 102.305141 273.312 
L 96.871592 273.312 
z
" style="fill:#d62728;"/>
   </g>
   <g id="patch_59">
    <path clip-path="url(#p826366ea90)" d="M 103.663529 273.312 
L 109.097077 273.312 
L 109.097077 273.312 
L 103.663529 273.312 
z
" style="fill:#d62728;"/>
   </g>
   <g id="patch_60">
    <path clip-path="url(#p826366ea90)" d="M 110.455465 273.312 
L 115.889014 273.312 
L 115.889014 273.312 
L 110.455465 273.312 
z
" style="fill:#d62728;"/>
   </g>
   <g id="patch_61">
    <path clip-path="url(#p826366ea90)" d="M 117.247401 273.312 
L 122.68095 273.312 
L 122.68095 273.312 
L 117.247401 273.312 
z
" style="fill:#d62728;"/>
   </g>
   <g id="patch_62">
    <path clip-path="url(#p826366ea90)" d="M 124.039337 273.312 
L 129.472886 273.312 
L 129.472886 273.312 
L 124.039337 273.312 
z
" style="fill:#d62728;"/>
   </g>
   <g id="patch_63">
    <path clip-path="url(#p826366ea90)" d="M 130.831273 273.312 
L 136.264822 273.312 
L 136.264822 273.312 
L 130.831273 273.312 
z
" style="fill:#d62728;"/>
   </g>
   <g id="patch_64">
    <path clip-path="url(#p826366ea90)" d="M 137.623209 273.312 
L 143.056758 273.312 
L 143.056758 273.312 
L 137.623209 273.312 
z
" style="fill:#d62728;"/>
   </g>
   <g id="patch_65">
    <path clip-path="url(#p826366ea90)" d="M 144.415145 273.312 
L 149.848694 273.312 
L 149.848694 273.312 
L 144.415145 273.312 
z
" style="fill:#d62728;"/>
   </g>
   <g id="patch_66">
    <path clip-path="url(#p826366ea90)" d="M 151.207081 273.312 
L 156.64063 273.312 
L 156.64063 273.312 
L 151.207081 273.312 
z
" style="fill:#d62728;"/>
   </g>
   <g id="patch_67">
    <path clip-path="url(#p826366ea90)" d="M 157.999017 273.312 
L 163.432566 273.312 
L 163.432566 273.312 
L 157.999017 273.312 
z
" style="fill:#d62728;"/>
   </g>
   <g id="patch_68">
    <path clip-path="url(#p826366ea90)" d="M 164.790953 273.312 
L 170.224502 273.312 
L 170.224502 273.312 
L 164.790953 273.312 
z
" style="fill:#d62728;"/>
   </g>
   <g id="patch_69">
    <path clip-path="url(#p826366ea90)" d="M 171.58289 273.312 
L 177.016438 273.312 
L 177.016438 273.312 
L 171.58289 273.312 
z
" style="fill:#d62728;"/>
   </g>
   <g id="patch_70">
    <path clip-path="url(#p826366ea90)" d="M 178.374826 273.312 
L 183.808375 273.312 
L 183.808375 273.312 
L 178.374826 273.312 
z
" style="fill:#d62728;"/>
   </g>
   <g id="patch_71">
    <path clip-path="url(#p826366ea90)" d="M 185.166762 273.312 
L 190.600311 273.312 
L 190.600311 273.312 
L 185.166762 273.312 
z
" style="fill:#d62728;"/>
   </g>
   <g id="patch_72">
    <path clip-path="url(#p826366ea90)" d="M 191.958698 273.312 
L 197.392247 273.312 
L 197.392247 273.312 
L 191.958698 273.312 
z
" style="fill:#d62728;"/>
   </g>
   <g id="patch_73">
    <path clip-path="url(#p826366ea90)" d="M 198.750634 273.312 
L 204.184183 273.312 
L 204.184183 273.312 
L 198.750634 273.312 
z
" style="fill:#d62728;"/>
   </g>
   <g id="patch_74">
    <path clip-path="url(#p826366ea90)" d="M 205.54257 273.312 
L 210.976119 273.312 
L 210.976119 273.312 
L 205.54257 273.312 
z
" style="fill:#d62728;"/>
   </g>
   <g id="patch_75">
    <path clip-path="url(#p826366ea90)" d="M 212.334506 273.312 
L 217.768055 273.312 
L 217.768055 272.754989 
L 212.334506 272.754989 
z
" style="fill:#d62728;"/>
   </g>
   <g id="patch_76">
    <path clip-path="url(#p826366ea90)" d="M 219.126442 273.312 
L 224.559991 273.312 
L 224.559991 272.754989 
L 219.126442 272.754989 
z
" style="fill:#d62728;"/>
   </g>
   <g id="patch_77">
    <path clip-path="url(#p826366ea90)" d="M 225.918378 273.312 
L 231.351927 273.312 
L 231.351927 272.754989 
L 225.918378 272.754989 
z
" style="fill:#d62728;"/>
   </g>
   <g id="patch_78">
    <path clip-path="url(#p826366ea90)" d="M 232.710314 273.312 
L 238.143863 273.312 
L 238.143863 272.754989 
L 232.710314 272.754989 
z
" style="fill:#d62728;"/>
   </g>
   <g id="patch_79">
    <path clip-path="url(#p826366ea90)" d="M 239.502251 273.312 
L 244.935799 273.312 
L 244.935799 272.754989 
L 239.502251 272.754989 
z
" style="fill:#d62728;"/>
   </g>
   <g id="patch_80">
    <path clip-path="url(#p826366ea90)" d="M 246.294187 273.312 
L 251.727735 273.312 
L 251.727735 272.754989 
L 246.294187 272.754989 
z
" style="fill:#d62728;"/>
   </g>
   <g id="patch_81">
    <path clip-path="url(#p826366ea90)" d="M 253.086123 273.312 
L 258.519672 273.312 
L 258.519672 272.754989 
L 253.086123 272.754989 
z
" style="fill:#d62728;"/>
   </g>
   <g id="patch_82">
    <path clip-path="url(#p826366ea90)" d="M 259.878059 273.312 
L 265.311608 273.312 
L 265.311608 272.754989 
L 259.878059 272.754989 
z
" style="fill:#d62728;"/>
   </g>
   <g id="patch_83">
    <path clip-path="url(#p826366ea90)" d="M 266.669995 273.312 
L 272.103544 273.312 
L 272.103544 272.754989 
L 266.669995 272.754989 
z
" style="fill:#d62728;"/>
   </g>
   <g id="patch_84">
    <path clip-path="url(#p826366ea90)" d="M 273.461931 273.312 
L 278.89548 273.312 
L 278.89548 272.754989 
L 273.461931 272.754989 
z
" style="fill:#d62728;"/>
   </g>
   <g id="patch_85">
    <path clip-path="url(#p826366ea90)" d="M 280.253867 273.312 
L 285.687416 273.312 
L 285.687416 272.754989 
L 280.253867 272.754989 
z
" style="fill:#d62728;"/>
   </g>
   <g id="patch_86">
    <path clip-path="url(#p826366ea90)" d="M 287.045803 273.312 
L 292.479352 273.312 
L 292.479352 272.754989 
L 287.045803 272.754989 
z
" style="fill:#d62728;"/>
   </g>
   <g id="patch_87">
    <path clip-path="url(#p826366ea90)" d="M 293.837739 273.312 
L 299.271288 273.312 
L 299.271288 272.754989 
L 293.837739 272.754989 
z
" style="fill:#d62728;"/>
   </g>
   <g id="patch_88">
    <path clip-path="url(#p826366ea90)" d="M 300.629675 273.312 
L 306.063224 273.312 
L 306.063224 271.640967 
L 300.629675 271.640967 
z
" style="fill:#d62728;"/>
   </g>
   <g id="patch_89">
    <path clip-path="url(#p826366ea90)" d="M 307.421611 273.312 
L 312.85516 273.312 
L 312.85516 271.083956 
L 307.421611 271.083956 
z
" style="fill:#d62728;"/>
   </g>
   <g id="patch_90">
    <path clip-path="url(#p826366ea90)" d="M 314.213548 273.312 
L 319.647096 273.312 
L 319.647096 270.526945 
L 314.213548 270.526945 
z
" style="fill:#d62728;"/>
   </g>
   <g id="patch_91">
    <path clip-path="url(#p826366ea90)" d="M 321.005484 273.312 
L 326.439033 273.312 
L 326.439033 270.526945 
L 321.005484 270.526945 
z
" style="fill:#d62728;"/>
   </g>
   <g id="patch_92">
    <path clip-path="url(#p826366ea90)" d="M 327.79742 273.312 
L 333.230969 273.312 
L 333.230969 269.969934 
L 327.79742 269.969934 
z
" style="fill:#d62728;"/>
   </g>
   <g id="patch_93">
    <path clip-path="url(#p826366ea90)" d="M 334.589356 273.312 
L 340.022905 273.312 
L 340.022905 269.969934 
L 334.589356 269.969934 
z
" style="fill:#d62728;"/>
   </g>
   <g id="patch_94">
    <path clip-path="url(#p826366ea90)" d="M 341.381292 273.312 
L 346.814841 273.312 
L 346.814841 269.969934 
L 341.381292 269.969934 
z
" style="fill:#d62728;"/>
   </g>
   <g id="patch_95">
    <path clip-path="url(#p826366ea90)" d="M 348.173228 273.312 
L 353.606777 273.312 
L 353.606777 269.969934 
L 348.173228 269.969934 
z
" style="fill:#d62728;"/>
   </g>
   <g id="patch_96">
    <path clip-path="url(#p826366ea90)" d="M 354.965164 273.312 
L 360.398713 273.312 
L 360.398713 269.969934 
L 354.965164 269.969934 
z
" style="fill:#d62728;"/>
   </g>
   <g id="patch_97">
    <path clip-path="url(#p826366ea90)" d="M 361.7571 273.312 
L 367.190649 273.312 
L 367.190649 269.969934 
L 361.7571 269.969934 
z
" style="fill:#d62728;"/>
   </g>
   <g id="patch_98">
    <path clip-path="url(#p826366ea90)" d="M 368.549036 273.312 
L 373.982585 273.312 
L 373.982585 269.969934 
L 368.549036 269.969934 
z
" style="fill:#d62728;"/>
   </g>
   <g id="matplotlib.axis_1">
    <g id="xtick_1">
     <g id="line2d_1">
      <defs>
       <path d="M 0 0 
L 0 3.5 
" id="md3662536fb" style="stroke:#000000;stroke-width:0.8;"/>
      </defs>
      <g>
       <use style="stroke:#000000;stroke-width:0.8;" x="58.83675" xlink:href="#md3662536fb" y="273.312"/>
      </g>
     </g>
     <g id="text_1">
      <!-- 22 -->
      <defs>
       <path d="M 57.171875 0.984375 
L 6.984375 0.984375 
L 6.984375 9.28125 
Q 12.890625 23.046875 29.59375 34.421875 
L 32.375 36.28125 
Q 40.921875 42.140625 43.609375 45.40625 
Q 46.6875 49.265625 46.6875 53.8125 
Q 46.6875 58.9375 43.0625 62.546875 
Q 39.0625 66.546875 32.5625 66.546875 
Q 19.53125 66.546875 15.484375 52 
L 7.765625 54.78125 
Q 13.328125 73.828125 33.0625 73.828125 
Q 43.84375 73.828125 50.25 67.4375 
Q 55.859375 61.671875 55.859375 53.515625 
Q 55.859375 47.46875 52.25 42.53125 
Q 48.921875 37.75 36.96875 30.28125 
L 34.859375 29 
Q 19.625 19.578125 15.28125 8.890625 
L 57.171875 8.890625 
z
" id="IPAexGothic-50"/>
      </defs>
      <g transform="translate(52.538313 287.802625)scale(0.1 -0.1)">
       <use xlink:href="#IPAexGothic-50"/>
       <use x="62.988281" xlink:href="#IPAexGothic-50"/>
      </g>
     </g>
    </g>
    <g id="xtick_2">
     <g id="line2d_2">
      <g>
       <use style="stroke:#000000;stroke-width:0.8;" x="126.756111" xlink:href="#md3662536fb" y="273.312"/>
      </g>
     </g>
     <g id="text_2">
      <!-- Feb -->
      <defs>
       <path d="M 54.203125 64.703125 
L 18.3125 64.703125 
L 18.3125 41.5 
L 50.09375 41.5 
L 50.09375 34.1875 
L 18.3125 34.1875 
L 18.3125 0.984375 
L 9.515625 0.984375 
L 9.515625 72.40625 
L 54.203125 72.40625 
z
" id="IPAexGothic-70"/>
       <path d="M 13.484375 24.90625 
Q 13.921875 16.265625 18.890625 11.28125 
Q 23.96875 6.203125 31.203125 6.203125 
Q 40.71875 6.203125 46.296875 15.09375 
L 51.90625 11.375 
Q 44.828125 -0.484375 30.171875 -0.484375 
Q 19.09375 -0.484375 11.96875 6.59375 
Q 4.78125 13.8125 4.78125 25.640625 
Q 4.78125 38.1875 12.3125 45.703125 
Q 19 52.390625 29 52.390625 
Q 38.421875 52.390625 44.78125 46.1875 
Q 51.90625 38.96875 51.90625 26.90625 
L 51.90625 24.90625 
z
M 43.0625 31.203125 
Q 42.328125 37.984375 38.28125 41.890625 
Q 34.28125 45.90625 28.8125 45.90625 
Q 22.46875 45.90625 17.96875 40.484375 
Q 14.890625 36.8125 13.96875 31.203125 
z
" id="IPAexGothic-101"/>
       <path d="M 17.578125 42.671875 
Q 24.21875 52.203125 34.671875 52.203125 
Q 43.5625 52.203125 49.859375 45.90625 
Q 57.171875 38.578125 57.171875 25.6875 
Q 57.171875 13.09375 49.859375 5.8125 
Q 43.5625 -0.484375 34.46875 -0.484375 
Q 24.359375 -0.484375 17 8.0625 
L 15.765625 0.6875 
L 9.078125 0.6875 
L 9.078125 74.90625 
L 17.578125 74.90625 
z
M 17.578125 31.203125 
L 17.578125 19.578125 
Q 17.578125 13.875 23.875 9.375 
Q 28.171875 6.296875 33.109375 6.296875 
Q 38.875 6.296875 42.875 10.296875 
Q 48.1875 15.765625 48.1875 25.484375 
Q 48.1875 34.28125 43.796875 39.890625 
Q 39.453125 45.3125 33.203125 45.3125 
Q 27.484375 45.3125 22.46875 40.28125 
Q 17.578125 35.40625 17.578125 31.203125 
z
" id="IPAexGothic-98"/>
      </defs>
      <g transform="translate(117.932674 287.802625)scale(0.1 -0.1)">
       <use xlink:href="#IPAexGothic-70"/>
       <use x="57.177734" xlink:href="#IPAexGothic-101"/>
       <use x="114.0625" xlink:href="#IPAexGothic-98"/>
      </g>
     </g>
    </g>
    <g id="xtick_3">
     <g id="line2d_3">
      <g>
       <use style="stroke:#000000;stroke-width:0.8;" x="174.299664" xlink:href="#md3662536fb" y="273.312"/>
      </g>
     </g>
     <g id="text_3">
      <!-- 08 -->
      <defs>
       <path d="M 31.84375 73.828125 
Q 45.015625 73.828125 52.09375 61.625 
Q 57.71875 51.953125 57.71875 36.625 
Q 57.71875 21.4375 52.09375 11.578125 
Q 45.125 -0.484375 31.5 -0.484375 
Q 17.921875 -0.484375 10.9375 11.578125 
Q 5.328125 21.4375 5.328125 36.71875 
Q 5.328125 58.015625 15.625 67.71875 
Q 22.171875 73.828125 31.84375 73.828125 
z
M 31.5 66.65625 
Q 23.6875 66.65625 19.1875 58.734375 
Q 14.59375 50.734375 14.59375 36.625 
Q 14.59375 22.75 19.09375 14.796875 
Q 23.640625 6.984375 31.5 6.984375 
Q 40.921875 6.984375 45.453125 18.015625 
Q 48.4375 25.34375 48.4375 37.109375 
Q 48.4375 50.875 43.84375 58.734375 
Q 39.203125 66.65625 31.5 66.65625 
z
" id="IPAexGothic-48"/>
       <path d="M 39.703125 37.890625 
Q 57.8125 31.734375 57.8125 18.703125 
Q 57.8125 8.453125 48.4375 3.078125 
Q 41.609375 -0.875 31.5 -0.875 
Q 21.34375 -0.875 14.5 3.078125 
Q 5.421875 8.296875 5.421875 18.40625 
Q 5.421875 31.0625 22.015625 37.203125 
L 22.015625 37.5 
Q 7.515625 42.71875 7.515625 54.828125 
Q 7.515625 64.0625 15.328125 69.625 
Q 21.96875 74.3125 31.546875 74.3125 
Q 42.234375 74.3125 48.921875 68.796875 
Q 55.515625 63.578125 55.515625 55.71875 
Q 55.515625 42.28125 39.703125 38.1875 
z
M 31.59375 41.015625 
Q 46.828125 44.625 46.828125 55.125 
Q 46.828125 61.1875 41.796875 64.84375 
Q 37.703125 67.921875 31.5 67.921875 
Q 25.09375 67.921875 20.796875 64.5 
Q 16.40625 60.890625 16.40625 55.03125 
Q 16.40625 49.21875 21.09375 45.703125 
Q 23.34375 43.890625 26.90625 42.53125 
Q 31 40.875 31.59375 41.015625 
z
M 30.90625 34.515625 
Q 14.40625 30.171875 14.40625 19 
Q 14.40625 12.109375 20.515625 8.6875 
Q 25.09375 6.109375 31.390625 6.109375 
Q 40.234375 6.109375 45.015625 10.890625 
Q 48.53125 14.40625 48.53125 19.53125 
Q 48.53125 24.90625 43.65625 28.90625 
Q 40.765625 31.15625 36.71875 32.8125 
Q 31.984375 34.71875 30.90625 34.515625 
z
" id="IPAexGothic-56"/>
      </defs>
      <g transform="translate(168.001226 287.802625)scale(0.1 -0.1)">
       <use xlink:href="#IPAexGothic-48"/>
       <use x="62.988281" xlink:href="#IPAexGothic-56"/>
      </g>
     </g>
    </g>
    <g id="xtick_4">
     <g id="line2d_4">
      <g>
       <use style="stroke:#000000;stroke-width:0.8;" x="221.843217" xlink:href="#md3662536fb" y="273.312"/>
      </g>
     </g>
     <g id="text_4">
      <!-- 15 -->
      <defs>
       <path d="M 38.484375 0.984375 
L 29.6875 0.984375 
L 29.6875 64.109375 
Q 21.4375 61.28125 12.3125 59.328125 
L 10.6875 66.109375 
Q 23.734375 69.390625 32.90625 73.921875 
L 38.484375 73.921875 
z
" id="IPAexGothic-49"/>
       <path d="M 18.40625 40.671875 
Q 25.53125 46.296875 33.9375 46.296875 
Q 44 46.296875 50.640625 39.5 
Q 56.84375 33.015625 56.84375 23.390625 
Q 56.84375 14.65625 51.515625 8.015625 
Q 44.828125 -0.484375 31.734375 -0.484375 
Q 14.984375 -0.484375 7.328125 12.25 
L 14.65625 16.0625 
Q 20.453125 6.78125 31.453125 6.78125 
Q 38.53125 6.78125 43.265625 11.1875 
Q 48.140625 15.828125 48.140625 23.484375 
Q 48.140625 30.71875 43.84375 35.015625 
Q 39.359375 39.5 32.125 39.5 
Q 21.96875 39.5 16.75 31.6875 
L 9.234375 32.671875 
L 13.8125 72.40625 
L 53.21875 72.40625 
L 53.21875 64.890625 
L 20.953125 64.890625 
L 17.71875 40.671875 
z
" id="IPAexGothic-53"/>
      </defs>
      <g transform="translate(215.544779 287.802625)scale(0.1 -0.1)">
       <use xlink:href="#IPAexGothic-49"/>
       <use x="62.988281" xlink:href="#IPAexGothic-53"/>
      </g>
     </g>
    </g>
    <g id="xtick_5">
     <g id="line2d_5">
      <g>
       <use style="stroke:#000000;stroke-width:0.8;" x="269.386769" xlink:href="#md3662536fb" y="273.312"/>
      </g>
     </g>
     <g id="text_5">
      <!-- 22 -->
      <g transform="translate(263.088332 287.802625)scale(0.1 -0.1)">
       <use xlink:href="#IPAexGothic-50"/>
       <use x="62.988281" xlink:href="#IPAexGothic-50"/>
      </g>
     </g>
    </g>
    <g id="xtick_6">
     <g id="line2d_6">
      <g>
       <use style="stroke:#000000;stroke-width:0.8;" x="323.722258" xlink:href="#md3662536fb" y="273.312"/>
      </g>
     </g>
     <g id="text_6">
      <!-- Mar -->
      <defs>
       <path d="M 80.421875 0.984375 
L 71.828125 0.984375 
L 71.828125 39.59375 
Q 71.828125 51.265625 72.40625 64.59375 
L 72.015625 64.59375 
Q 68.0625 53.265625 63.53125 41.796875 
L 47.90625 3.265625 
L 41.40625 3.265625 
L 25.640625 42.578125 
Q 20.75 54.78125 17.625 64.703125 
L 17.234375 64.703125 
Q 17.828125 48.921875 17.828125 39.890625 
L 17.828125 0.984375 
L 9.515625 0.984375 
L 9.515625 72.40625 
L 22.125 72.40625 
L 39.109375 30.375 
Q 42.140625 23 44.828125 14.15625 
L 45.125 14.15625 
Q 47.3125 22.125 50.53125 30.171875 
L 67.4375 72.40625 
L 80.421875 72.40625 
z
" id="IPAexGothic-77"/>
       <path d="M 49.3125 0.984375 
L 41.75 0.984375 
Q 39.984375 4.734375 39.546875 8.6875 
L 39.203125 8.6875 
Q 33.546875 -0.390625 22.3125 -0.390625 
Q 14.59375 -0.390625 9.71875 4.5 
Q 5.421875 8.796875 5.421875 14.984375 
Q 5.421875 30.421875 32.03125 31.203125 
L 38.71875 31.390625 
L 38.71875 33.984375 
Q 38.71875 39.203125 35.75 42.1875 
Q 32.625 45.3125 27.734375 45.3125 
Q 19.34375 45.3125 15.140625 37.15625 
L 7.71875 40.578125 
Q 14.65625 52 27.9375 52 
Q 37.109375 52 42.046875 46.875 
Q 46.625 42.28125 46.625 33.890625 
L 46.625 15.578125 
Q 46.625 6.25 49.3125 0.984375 
z
M 38.921875 25.390625 
L 33.453125 25.296875 
Q 14.109375 24.859375 14.109375 14.890625 
Q 14.109375 11.375 16.40625 9.078125 
Q 19.234375 6.296875 23.828125 6.296875 
Q 30.21875 6.296875 34.90625 10.984375 
Q 38.921875 15.140625 38.921875 21 
z
" id="IPAexGothic-97"/>
       <path d="M 36.078125 51.8125 
L 34.578125 43.265625 
Q 32.90625 43.609375 31.59375 43.609375 
Q 25.828125 43.609375 22.078125 38.1875 
Q 17.390625 31.34375 17.390625 26.171875 
L 17.390625 0.984375 
L 8.796875 0.984375 
L 8.796875 50.78125 
L 16.890625 50.78125 
L 16.5 35.984375 
L 16.703125 35.984375 
Q 22.21875 52.203125 32.765625 52.203125 
Q 34.46875 52.203125 36.078125 51.8125 
z
" id="IPAexGothic-114"/>
      </defs>
      <g transform="translate(314.612883 287.802625)scale(0.1 -0.1)">
       <use xlink:href="#IPAexGothic-77"/>
       <use x="90.185547" xlink:href="#IPAexGothic-97"/>
       <use x="145.166016" xlink:href="#IPAexGothic-114"/>
      </g>
     </g>
    </g>
    <g id="xtick_7">
     <g id="line2d_7">
      <g>
       <use style="stroke:#000000;stroke-width:0.8;" x="371.265811" xlink:href="#md3662536fb" y="273.312"/>
      </g>
     </g>
     <g id="text_7">
      <!-- 08 -->
      <g transform="translate(364.967373 287.802625)scale(0.1 -0.1)">
       <use xlink:href="#IPAexGothic-48"/>
       <use x="62.988281" xlink:href="#IPAexGothic-56"/>
      </g>
     </g>
    </g>
    <g id="text_8">
     <!-- 2020-Mar -->
     <defs>
      <path d="M 30.765625 26.609375 
L 4.984375 26.609375 
L 4.984375 34.421875 
L 30.765625 34.421875 
z
" id="IPAexGothic-45"/>
     </defs>
     <g transform="translate(343.223125 300.19325)scale(0.1 -0.1)">
      <use xlink:href="#IPAexGothic-50"/>
      <use x="62.988281" xlink:href="#IPAexGothic-48"/>
      <use x="125.976562" xlink:href="#IPAexGothic-50"/>
      <use x="188.964844" xlink:href="#IPAexGothic-48"/>
      <use x="251.953125" xlink:href="#IPAexGothic-45"/>
      <use x="287.744141" xlink:href="#IPAexGothic-77"/>
      <use x="377.929688" xlink:href="#IPAexGothic-97"/>
      <use x="432.910156" xlink:href="#IPAexGothic-114"/>
     </g>
    </g>
   </g>
   <g id="matplotlib.axis_2">
    <g id="ytick_1">
     <g id="line2d_8">
      <defs>
       <path d="M 0 0 
L -3.5 0 
" id="m6dd6ef440d" style="stroke:#000000;stroke-width:0.8;"/>
      </defs>
      <g>
       <use style="stroke:#000000;stroke-width:0.8;" x="33.095313" xlink:href="#m6dd6ef440d" y="273.312"/>
      </g>
     </g>
     <g id="text_9">
      <!-- 0 -->
      <g transform="translate(19.796875 277.057312)scale(0.1 -0.1)">
       <use xlink:href="#IPAexGothic-48"/>
      </g>
     </g>
    </g>
    <g id="ytick_2">
     <g id="line2d_9">
      <g>
       <use style="stroke:#000000;stroke-width:0.8;" x="33.095313" xlink:href="#m6dd6ef440d" y="217.610901"/>
      </g>
     </g>
     <g id="text_10">
      <!-- 100 -->
      <g transform="translate(7.2 221.356214)scale(0.1 -0.1)">
       <use xlink:href="#IPAexGothic-49"/>
       <use x="62.988281" xlink:href="#IPAexGothic-48"/>
       <use x="125.976562" xlink:href="#IPAexGothic-48"/>
      </g>
     </g>
    </g>
    <g id="ytick_3">
     <g id="line2d_10">
      <g>
       <use style="stroke:#000000;stroke-width:0.8;" x="33.095313" xlink:href="#m6dd6ef440d" y="161.909802"/>
      </g>
     </g>
     <g id="text_11">
      <!-- 200 -->
      <g transform="translate(7.2 165.655115)scale(0.1 -0.1)">
       <use xlink:href="#IPAexGothic-50"/>
       <use x="62.988281" xlink:href="#IPAexGothic-48"/>
       <use x="125.976562" xlink:href="#IPAexGothic-48"/>
      </g>
     </g>
    </g>
    <g id="ytick_4">
     <g id="line2d_11">
      <g>
       <use style="stroke:#000000;stroke-width:0.8;" x="33.095313" xlink:href="#m6dd6ef440d" y="106.208703"/>
      </g>
     </g>
     <g id="text_12">
      <!-- 300 -->
      <defs>
       <path d="M 37.203125 37.796875 
Q 54.78125 34.625 54.78125 19.96875 
Q 54.78125 11.1875 48.875 5.5625 
Q 42.328125 -0.484375 30.375 -0.484375 
Q 12.453125 -0.484375 4.5 13.765625 
L 11.8125 17.671875 
Q 17.328125 6.890625 30.28125 6.890625 
Q 37.890625 6.890625 42.09375 10.796875 
Q 46.09375 14.5 46.09375 20.171875 
Q 46.09375 26.859375 40.09375 30.90625 
Q 34.625 34.578125 25.6875 34.578125 
L 21.296875 34.578125 
L 21.296875 41.703125 
L 25.875 41.703125 
Q 34.859375 41.703125 39.59375 45.125 
Q 44.671875 48.734375 44.671875 54.828125 
Q 44.671875 61.46875 38.96875 64.65625 
Q 35.296875 66.84375 30.171875 66.84375 
Q 19.34375 66.84375 14.109375 55.90625 
L 6.78125 59.421875 
Q 14.015625 73.828125 30.28125 73.828125 
Q 40.578125 73.828125 46.96875 68.65625 
Q 53.375 63.578125 53.375 55.21875 
Q 53.375 47.3125 47.171875 42.28125 
Q 43.171875 39.0625 37.203125 38.1875 
z
" id="IPAexGothic-51"/>
      </defs>
      <g transform="translate(7.2 109.954016)scale(0.1 -0.1)">
       <use xlink:href="#IPAexGothic-51"/>
       <use x="62.988281" xlink:href="#IPAexGothic-48"/>
       <use x="125.976562" xlink:href="#IPAexGothic-48"/>
      </g>
     </g>
    </g>
    <g id="ytick_5">
     <g id="line2d_12">
      <g>
       <use style="stroke:#000000;stroke-width:0.8;" x="33.095313" xlink:href="#m6dd6ef440d" y="50.507604"/>
      </g>
     </g>
     <g id="text_13">
      <!-- 400 -->
      <defs>
       <path d="M 59.578125 18.109375 
L 47.796875 18.109375 
L 47.796875 0.984375 
L 39.796875 0.984375 
L 39.796875 18.109375 
L 3.078125 18.109375 
L 3.078125 26.125 
L 38.375 73.09375 
L 47.796875 73.09375 
L 47.796875 25.53125 
L 59.578125 25.53125 
z
M 40.28125 64.203125 
L 39.984375 64.203125 
Q 35.59375 57.125 31.296875 51.3125 
L 11.859375 25.53125 
L 39.796875 25.53125 
L 39.796875 49.125 
Q 39.796875 54.390625 40.28125 64.203125 
z
" id="IPAexGothic-52"/>
      </defs>
      <g transform="translate(7.2 54.252917)scale(0.1 -0.1)">
       <use xlink:href="#IPAexGothic-52"/>
       <use x="62.988281" xlink:href="#IPAexGothic-48"/>
       <use x="125.976562" xlink:href="#IPAexGothic-48"/>
      </g>
     </g>
    </g>
   </g>
   <g id="patch_99">
    <path d="M 33.095313 273.312 
L 33.095313 7.2 
" style="fill:none;stroke:#000000;stroke-linecap:square;stroke-linejoin:miter;stroke-width:0.8;"/>
   </g>
   <g id="patch_100">
    <path d="M 390.215312 273.312 
L 390.215312 7.2 
" style="fill:none;stroke:#000000;stroke-linecap:square;stroke-linejoin:miter;stroke-width:0.8;"/>
   </g>
   <g id="patch_101">
    <path d="M 33.095313 273.312 
L 390.215313 273.312 
" style="fill:none;stroke:#000000;stroke-linecap:square;stroke-linejoin:miter;stroke-width:0.8;"/>
   </g>
   <g id="patch_102">
    <path d="M 33.095313 7.2 
L 390.215313 7.2 
" style="fill:none;stroke:#000000;stroke-linecap:square;stroke-linejoin:miter;stroke-width:0.8;"/>
   </g>
   <g id="legend_1">
    <g id="patch_103">
     <path d="M 40.095313 44.340625 
L 157.9375 44.340625 
Q 159.9375 44.340625 159.9375 42.340625 
L 159.9375 14.2 
Q 159.9375 12.2 157.9375 12.2 
L 40.095313 12.2 
Q 38.095313 12.2 38.095313 14.2 
L 38.095313 42.340625 
Q 38.095313 44.340625 40.095313 44.340625 
z
" style="fill:#ffffff;opacity:0.8;stroke:#cccccc;stroke-linejoin:miter;"/>
    </g>
    <g id="patch_104">
     <path d="M 42.095313 23.870312 
L 62.095313 23.870312 
L 62.095313 16.870312 
L 42.095313 16.870312 
z
" style="fill:#ffbb78;"/>
    </g>
    <g id="text_14">
     <!-- Confirmed (Japan) -->
     <defs>
      <path d="M 68.015625 17 
Q 65.328125 10.84375 60.296875 6.6875 
Q 51.765625 -0.484375 39.984375 -0.484375 
Q 24.8125 -0.484375 14.984375 10.203125 
Q 5.90625 20.21875 5.90625 36.421875 
Q 5.90625 53.21875 15.828125 63.71875 
Q 25.296875 73.828125 39.59375 73.828125 
Q 59.578125 73.828125 67.53125 56.6875 
L 59.515625 52.984375 
Q 53.515625 66.21875 39.703125 66.21875 
Q 29.546875 66.21875 22.703125 58.5 
Q 15.53125 50.25 15.53125 36.28125 
Q 15.53125 24.21875 21.625 16.5 
Q 28.765625 7.375 40.046875 7.375 
Q 54 7.375 60.59375 20.609375 
z
" id="IPAexGothic-67"/>
      <path d="M 29.984375 52.203125 
Q 40.53125 52.203125 47.75 45.125 
Q 55.171875 37.703125 55.171875 25.59375 
Q 55.171875 13.875 47.90625 6.59375 
Q 40.765625 -0.484375 29.984375 -0.484375 
Q 19.1875 -0.484375 12.203125 6.5 
Q 4.890625 13.765625 4.890625 25.875 
Q 4.890625 37.703125 12.3125 45.125 
Q 19.390625 52.203125 29.984375 52.203125 
z
M 29.984375 45.609375 
Q 23.734375 45.609375 19.390625 41.109375 
Q 13.875 35.59375 13.875 25.78125 
Q 13.875 16.109375 19.28125 10.6875 
Q 23.6875 6.296875 29.984375 6.296875 
Q 36.421875 6.296875 40.765625 10.796875 
Q 46.1875 16.21875 46.1875 26.125 
Q 46.1875 35.453125 40.671875 41.109375 
Q 36.1875 45.609375 29.984375 45.609375 
z
" id="IPAexGothic-111"/>
      <path d="M 52 0.984375 
L 43.40625 0.984375 
L 43.40625 31.890625 
Q 43.40625 44.578125 32.90625 44.578125 
Q 22.3125 44.578125 17.390625 31.890625 
L 17.390625 0.984375 
L 8.796875 0.984375 
L 8.796875 50.78125 
L 16.796875 50.78125 
L 16.796875 41.796875 
Q 23.828125 51.8125 34.71875 51.8125 
Q 52 51.8125 52 32.375 
z
" id="IPAexGothic-110"/>
      <path d="M 38.375 72.21875 
L 34.8125 66.3125 
Q 31.109375 69.09375 27.203125 69.09375 
Q 18.5 69.09375 18.5 57.375 
L 18.5 50.78125 
L 32.078125 50.78125 
L 32.078125 44.671875 
L 18.5 44.671875 
L 18.5 0.984375 
L 10.015625 0.984375 
L 10.015625 44.671875 
L 1.90625 44.671875 
L 1.90625 50.78125 
L 10.015625 50.78125 
L 10.015625 57.171875 
Q 10.015625 65.4375 13.921875 70.0625 
Q 18.75 75.6875 26.703125 75.6875 
Q 33.0625 75.6875 38.375 72.21875 
z
" id="IPAexGothic-102"/>
      <path d="M 18.40625 61.375 
L 8.59375 61.375 
L 8.59375 71.390625 
L 18.40625 71.390625 
z
M 17.78125 0.984375 
L 9.1875 0.984375 
L 9.1875 50.78125 
L 17.78125 50.78125 
z
" id="IPAexGothic-105"/>
      <path d="M 78.46875 0.984375 
L 69.875 0.984375 
L 69.875 32.171875 
Q 69.875 44.828125 60.109375 44.828125 
Q 55.46875 44.828125 51.609375 40.53125 
Q 48.875 37.453125 47.796875 32.859375 
L 47.796875 0.984375 
L 39.203125 0.984375 
L 39.203125 32.28125 
Q 39.203125 44.828125 29.984375 44.828125 
Q 25.09375 44.828125 21.390625 40.53125 
Q 17.390625 36.03125 17.390625 31.890625 
L 17.390625 0.984375 
L 8.796875 0.984375 
L 8.796875 50.78125 
L 16.796875 50.78125 
L 16.796875 42.1875 
Q 21.734375 51.8125 31.6875 51.8125 
Q 42.578125 51.8125 46.1875 41.359375 
Q 51.609375 51.8125 61.765625 51.8125 
Q 69.96875 51.8125 74.5625 46 
Q 78.46875 41.21875 78.46875 32.375 
z
" id="IPAexGothic-109"/>
      <path d="M 52.984375 0.984375 
L 45.171875 0.984375 
L 45.171875 9.671875 
Q 38.140625 -0.484375 27.390625 -0.484375 
Q 18.453125 -0.484375 12.3125 5.8125 
Q 4.890625 13.1875 4.890625 25.984375 
Q 4.890625 38.53125 12.0625 45.90625 
Q 18.265625 52.203125 27.390625 52.203125 
Q 37.25 52.203125 44.484375 43.890625 
L 44.484375 74.90625 
L 52.984375 74.90625 
z
M 44.484375 20.359375 
L 44.484375 32.765625 
Q 44.484375 37.703125 38.375 42.28125 
Q 34.078125 45.40625 28.953125 45.40625 
Q 23.1875 45.40625 19.1875 41.40625 
Q 13.875 36.078125 13.875 26.21875 
Q 13.875 17.328125 18.265625 11.71875 
Q 22.515625 6.390625 28.859375 6.390625 
Q 36.28125 6.390625 41.5 13.671875 
Q 44.484375 17.71875 44.484375 20.359375 
z
" id="IPAexGothic-100"/>
      <path id="IPAexGothic-32"/>
      <path d="M 30.125 -15.875 
L 25.828125 -18.21875 
Q 7.625 1.078125 7.625 29.296875 
Q 7.625 57.46875 25.828125 76.703125 
L 30.125 74.421875 
Q 15.71875 55.03125 15.71875 29.390625 
Q 15.71875 3.171875 30.125 -15.875 
z
" id="IPAexGothic-40"/>
      <path d="M 28.421875 72.40625 
L 28.421875 19.28125 
Q 28.421875 -0.484375 11.921875 -0.484375 
Q 4.734375 -0.484375 -1.953125 3.265625 
L 1.3125 10.0625 
Q 5.90625 6.984375 10.84375 6.984375 
Q 19.53125 6.984375 19.53125 18.796875 
L 19.53125 72.40625 
z
" id="IPAexGothic-74"/>
      <path d="M 16.796875 42 
Q 23.828125 52.203125 34.46875 52.203125 
Q 43.265625 52.203125 49.5625 45.90625 
Q 56.890625 38.578125 56.890625 25.6875 
Q 56.890625 13.140625 49.65625 5.8125 
Q 43.359375 -0.484375 34.375 -0.484375 
Q 24.515625 -0.484375 17.28125 7.765625 
L 17.28125 -19 
L 8.796875 -19 
L 8.796875 50.78125 
L 16.796875 50.78125 
z
M 17.28125 30.46875 
L 17.28125 20.171875 
Q 17.28125 14.015625 23.6875 9.375 
Q 27.984375 6.296875 32.90625 6.296875 
Q 38.578125 6.296875 42.578125 10.296875 
Q 47.90625 15.578125 47.90625 25.484375 
Q 47.90625 34.375 43.5 39.984375 
Q 39.109375 45.3125 32.8125 45.3125 
Q 25.875 45.3125 20.90625 38.8125 
Q 17.28125 34.125 17.28125 30.46875 
z
" id="IPAexGothic-112"/>
      <path d="M 7.28125 76.703125 
Q 25.59375 57.375 25.59375 29.296875 
Q 25.59375 1.171875 7.28125 -18.21875 
L 2.984375 -15.875 
Q 17.484375 3.375 17.484375 29.390625 
Q 17.484375 54.828125 2.984375 74.421875 
z
" id="IPAexGothic-41"/>
     </defs>
     <g transform="translate(70.095313 23.870312)scale(0.1 -0.1)">
      <use xlink:href="#IPAexGothic-67"/>
      <use x="72.509766" xlink:href="#IPAexGothic-111"/>
      <use x="132.910156" xlink:href="#IPAexGothic-110"/>
      <use x="193.310547" xlink:href="#IPAexGothic-102"/>
      <use x="223.925781" xlink:href="#IPAexGothic-105"/>
      <use x="250.927734" xlink:href="#IPAexGothic-114"/>
      <use x="287.939453" xlink:href="#IPAexGothic-109"/>
      <use x="375.048828" xlink:href="#IPAexGothic-101"/>
      <use x="431.933594" xlink:href="#IPAexGothic-100"/>
      <use x="494.335938" xlink:href="#IPAexGothic-32"/>
      <use x="521.337891" xlink:href="#IPAexGothic-40"/>
      <use x="554.638672" xlink:href="#IPAexGothic-74"/>
      <use x="592.626953" xlink:href="#IPAexGothic-97"/>
      <use x="647.607422" xlink:href="#IPAexGothic-112"/>
      <use x="709.716797" xlink:href="#IPAexGothic-97"/>
      <use x="764.697266" xlink:href="#IPAexGothic-110"/>
      <use x="825.097656" xlink:href="#IPAexGothic-41"/>
     </g>
    </g>
    <g id="patch_105">
     <path d="M 42.095313 38.440625 
L 62.095313 38.440625 
L 62.095313 31.440625 
L 42.095313 31.440625 
z
" style="fill:#d62728;"/>
    </g>
    <g id="text_15">
     <!-- Deaths (Japan) -->
     <defs>
      <path d="M 9.515625 72.40625 
L 31 72.40625 
Q 49.359375 72.40625 59.234375 63.28125 
Q 69.625 53.8125 69.625 36.8125 
Q 69.625 16.359375 54.9375 6.890625 
Q 45.703125 0.984375 30.328125 0.984375 
L 9.515625 0.984375 
z
M 18.3125 8.6875 
L 29.59375 8.6875 
Q 60.203125 8.6875 60.203125 36.8125 
Q 60.203125 64.796875 30.125 64.796875 
L 18.3125 64.796875 
z
" id="IPAexGothic-68"/>
      <path d="M 33.203125 3.765625 
Q 27.640625 -0.09375 21.828125 -0.09375 
Q 10.203125 -0.09375 10.203125 12.984375 
L 10.203125 44.671875 
L 3.421875 44.671875 
L 3.421875 50.78125 
L 10.203125 50.78125 
L 10.203125 61.96875 
L 18.40625 66.0625 
L 18.40625 50.78125 
L 32.234375 50.78125 
L 32.234375 44.671875 
L 18.40625 44.671875 
L 18.40625 14.15625 
Q 18.40625 6.5 23.640625 6.5 
Q 27.15625 6.5 30.328125 9.1875 
z
" id="IPAexGothic-116"/>
      <path d="M 52.296875 0.984375 
L 43.703125 0.984375 
L 43.703125 31.890625 
Q 43.703125 44.578125 33.296875 44.578125 
Q 22.609375 44.578125 17.671875 31.890625 
L 17.671875 0.984375 
L 9.078125 0.984375 
L 9.078125 74.90625 
L 17.671875 74.90625 
L 17.671875 42.28125 
Q 24.46875 51.8125 35.109375 51.8125 
Q 52.296875 51.8125 52.296875 32.375 
z
" id="IPAexGothic-104"/>
      <path d="M 34.90625 39.796875 
Q 30.28125 45.796875 23.1875 45.796875 
Q 13.921875 45.796875 13.921875 38.671875 
Q 13.921875 33.640625 23.921875 30.375 
L 27.203125 29.296875 
Q 41.40625 24.65625 41.40625 13.96875 
Q 41.40625 6.78125 35.5 2.6875 
Q 30.8125 -0.484375 23.390625 -0.484375 
Q 11.96875 -0.484375 4 7.859375 
L 9.421875 12.796875 
Q 15.578125 6.203125 23.6875 6.203125 
Q 33.296875 6.203125 33.296875 13.671875 
Q 33.296875 19.34375 22.703125 23.09375 
L 19.28125 24.265625 
Q 5.90625 28.953125 5.90625 37.984375 
Q 5.90625 43.703125 9.8125 47.609375 
Q 14.5 52.296875 22.703125 52.296875 
Q 33.6875 52.296875 40.71875 44.671875 
z
" id="IPAexGothic-115"/>
     </defs>
     <g transform="translate(70.095313 38.440625)scale(0.1 -0.1)">
      <use xlink:href="#IPAexGothic-68"/>
      <use x="75.683594" xlink:href="#IPAexGothic-101"/>
      <use x="132.568359" xlink:href="#IPAexGothic-97"/>
      <use x="187.548828" xlink:href="#IPAexGothic-116"/>
      <use x="222.167969" xlink:href="#IPAexGothic-104"/>
      <use x="282.861328" xlink:href="#IPAexGothic-115"/>
      <use x="329.052734" xlink:href="#IPAexGothic-32"/>
      <use x="356.054688" xlink:href="#IPAexGothic-40"/>
      <use x="389.355469" xlink:href="#IPAexGothic-74"/>
      <use x="427.34375" xlink:href="#IPAexGothic-97"/>
      <use x="482.324219" xlink:href="#IPAexGothic-112"/>
      <use x="544.433594" xlink:href="#IPAexGothic-97"/>
      <use x="599.414062" xlink:href="#IPAexGothic-110"/>
      <use x="659.814453" xlink:href="#IPAexGothic-41"/>
     </g>
    </g>
   </g>
  </g>
 </g>
 <defs>
  <clipPath id="p826366ea90">
   <rect height="266.112" width="357.12" x="33.095313" y="7.2"/>
  </clipPath>
 </defs>
</svg>
