<?xml version="1.0" encoding="utf-8" standalone="no"?>
<!DOCTYPE svg PUBLIC "-//W3C//DTD SVG 1.1//EN"
  "http://www.w3.org/Graphics/SVG/1.1/DTD/svg11.dtd">
<!-- Created with matplotlib (https://matplotlib.org/) -->
<svg height="320.239875pt" version="1.1" viewBox="0 0 403.71375 320.239875" width="403.71375pt" xmlns="http://www.w3.org/2000/svg" xmlns:xlink="http://www.w3.org/1999/xlink">
 <defs>
  <style type="text/css">
*{stroke-linecap:butt;stroke-linejoin:round;}
  </style>
 </defs>
 <g id="figure_1">
  <g id="patch_1">
   <path d="M 0 320.239875 
L 403.71375 320.239875 
L 403.71375 0 
L 0 0 
z
" style="fill:#ffffff;"/>
  </g>
  <g id="axes_1">
   <g id="patch_2">
    <path d="M 39.39375 284.258625 
L 396.51375 284.258625 
L 396.51375 18.146625 
L 39.39375 18.146625 
z
" style="fill:#ffffff;"/>
   </g>
   <g id="line2d_1">
    <path clip-path="url(#pd025ec08bd)" d="M 39.39375 30.818625 
L 396.51375 30.818625 
" style="fill:none;stroke:#808080;stroke-dasharray:5.55,2.4;stroke-dashoffset:0;stroke-width:1.5;"/>
   </g>
   <g id="line2d_2">
    <path clip-path="url(#pd025ec08bd)" d="M 39.39375 157.538625 
L 396.51375 157.538625 
" style="fill:none;stroke:#808080;stroke-dasharray:5.55,2.4;stroke-dashoffset:0;stroke-width:1.5;"/>
   </g>
   <g id="patch_3">
    <path clip-path="url(#pd025ec08bd)" d="M 55.626477 284.258625 
L 57.395712 284.258625 
L 57.395712 284.213974 
L 55.626477 284.213974 
z
" style="fill:#1f77b4;"/>
   </g>
   <g id="patch_4">
    <path clip-path="url(#pd025ec08bd)" d="M 57.83802 284.258625 
L 59.607255 284.258625 
L 59.607255 284.169323 
L 57.83802 284.169323 
z
" style="fill:#1f77b4;"/>
   </g>
   <g id="patch_5">
    <path clip-path="url(#pd025ec08bd)" d="M 60.049564 284.258625 
L 61.818798 284.258625 
L 61.818798 284.169323 
L 60.049564 284.169323 
z
" style="fill:#1f77b4;"/>
   </g>
   <g id="patch_6">
    <path clip-path="url(#pd025ec08bd)" d="M 62.261107 284.258625 
L 64.030342 284.258625 
L 64.030342 284.169323 
L 62.261107 284.169323 
z
" style="fill:#1f77b4;"/>
   </g>
   <g id="patch_7">
    <path clip-path="url(#pd025ec08bd)" d="M 64.47265 284.258625 
L 66.241885 284.258625 
L 66.241885 284.169323 
L 64.47265 284.169323 
z
" style="fill:#1f77b4;"/>
   </g>
   <g id="patch_8">
    <path clip-path="url(#pd025ec08bd)" d="M 66.684193 284.258625 
L 68.453428 284.258625 
L 68.453428 284.169323 
L 66.684193 284.169323 
z
" style="fill:#1f77b4;"/>
   </g>
   <g id="patch_9">
    <path clip-path="url(#pd025ec08bd)" d="M 68.895737 284.258625 
L 70.664971 284.258625 
L 70.664971 284.124672 
L 68.895737 284.124672 
z
" style="fill:#1f77b4;"/>
   </g>
   <g id="patch_10">
    <path clip-path="url(#pd025ec08bd)" d="M 71.10728 284.258625 
L 72.876514 284.258625 
L 72.876514 284.124672 
L 71.10728 284.124672 
z
" style="fill:#1f77b4;"/>
   </g>
   <g id="patch_11">
    <path clip-path="url(#pd025ec08bd)" d="M 73.318823 284.258625 
L 75.088058 284.258625 
L 75.088058 284.124672 
L 73.318823 284.124672 
z
" style="fill:#1f77b4;"/>
   </g>
   <g id="patch_12">
    <path clip-path="url(#pd025ec08bd)" d="M 75.530366 284.258625 
L 77.299601 284.258625 
L 77.299601 284.124672 
L 75.530366 284.124672 
z
" style="fill:#1f77b4;"/>
   </g>
   <g id="patch_13">
    <path clip-path="url(#pd025ec08bd)" d="M 77.74191 284.258625 
L 79.511144 284.258625 
L 79.511144 284.124672 
L 77.74191 284.124672 
z
" style="fill:#1f77b4;"/>
   </g>
   <g id="patch_14">
    <path clip-path="url(#pd025ec08bd)" d="M 79.953453 284.258625 
L 81.722687 284.258625 
L 81.722687 284.124672 
L 79.953453 284.124672 
z
" style="fill:#1f77b4;"/>
   </g>
   <g id="patch_15">
    <path clip-path="url(#pd025ec08bd)" d="M 82.164996 284.258625 
L 83.934231 284.258625 
L 83.934231 284.124672 
L 82.164996 284.124672 
z
" style="fill:#1f77b4;"/>
   </g>
   <g id="patch_16">
    <path clip-path="url(#pd025ec08bd)" d="M 84.376539 284.258625 
L 86.145774 284.258625 
L 86.145774 284.124672 
L 84.376539 284.124672 
z
" style="fill:#1f77b4;"/>
   </g>
   <g id="patch_17">
    <path clip-path="url(#pd025ec08bd)" d="M 86.588082 284.258625 
L 88.357317 284.258625 
L 88.357317 284.124672 
L 86.588082 284.124672 
z
" style="fill:#1f77b4;"/>
   </g>
   <g id="patch_18">
    <path clip-path="url(#pd025ec08bd)" d="M 88.799626 284.258625 
L 90.56886 284.258625 
L 90.56886 284.124672 
L 88.799626 284.124672 
z
" style="fill:#1f77b4;"/>
   </g>
   <g id="patch_19">
    <path clip-path="url(#pd025ec08bd)" d="M 91.011169 284.258625 
L 92.780403 284.258625 
L 92.780403 284.124672 
L 91.011169 284.124672 
z
" style="fill:#1f77b4;"/>
   </g>
   <g id="patch_20">
    <path clip-path="url(#pd025ec08bd)" d="M 93.222712 284.258625 
L 94.991947 284.258625 
L 94.991947 284.124672 
L 93.222712 284.124672 
z
" style="fill:#1f77b4;"/>
   </g>
   <g id="patch_21">
    <path clip-path="url(#pd025ec08bd)" d="M 95.434255 284.258625 
L 97.20349 284.258625 
L 97.20349 284.124672 
L 95.434255 284.124672 
z
" style="fill:#1f77b4;"/>
   </g>
   <g id="patch_22">
    <path clip-path="url(#pd025ec08bd)" d="M 97.645799 284.258625 
L 99.415033 284.258625 
L 99.415033 284.124672 
L 97.645799 284.124672 
z
" style="fill:#1f77b4;"/>
   </g>
   <g id="patch_23">
    <path clip-path="url(#pd025ec08bd)" d="M 99.857342 284.258625 
L 101.626576 284.258625 
L 101.626576 284.08002 
L 99.857342 284.08002 
z
" style="fill:#1f77b4;"/>
   </g>
   <g id="patch_24">
    <path clip-path="url(#pd025ec08bd)" d="M 102.068885 284.258625 
L 103.83812 284.258625 
L 103.83812 283.990718 
L 102.068885 283.990718 
z
" style="fill:#1f77b4;"/>
   </g>
   <g id="patch_25">
    <path clip-path="url(#pd025ec08bd)" d="M 104.280428 284.258625 
L 106.049663 284.258625 
L 106.049663 283.633509 
L 104.280428 283.633509 
z
" style="fill:#1f77b4;"/>
   </g>
   <g id="patch_26">
    <path clip-path="url(#pd025ec08bd)" d="M 106.491971 284.258625 
L 108.261206 284.258625 
L 108.261206 283.410253 
L 106.491971 283.410253 
z
" style="fill:#1f77b4;"/>
   </g>
   <g id="patch_27">
    <path clip-path="url(#pd025ec08bd)" d="M 108.703515 284.258625 
L 110.472749 284.258625 
L 110.472749 283.410253 
L 108.703515 283.410253 
z
" style="fill:#1f77b4;"/>
   </g>
   <g id="patch_28">
    <path clip-path="url(#pd025ec08bd)" d="M 110.915058 284.258625 
L 112.684292 284.258625 
L 112.684292 283.276299 
L 110.915058 283.276299 
z
" style="fill:#1f77b4;"/>
   </g>
   <g id="patch_29">
    <path clip-path="url(#pd025ec08bd)" d="M 113.126601 284.258625 
L 114.895836 284.258625 
L 114.895836 283.142346 
L 113.126601 283.142346 
z
" style="fill:#1f77b4;"/>
   </g>
   <g id="patch_30">
    <path clip-path="url(#pd025ec08bd)" d="M 115.338144 284.258625 
L 117.107379 284.258625 
L 117.107379 283.142346 
L 115.338144 283.142346 
z
" style="fill:#1f77b4;"/>
   </g>
   <g id="patch_31">
    <path clip-path="url(#pd025ec08bd)" d="M 117.549688 284.258625 
L 119.318922 284.258625 
L 119.318922 283.008392 
L 117.549688 283.008392 
z
" style="fill:#1f77b4;"/>
   </g>
   <g id="patch_32">
    <path clip-path="url(#pd025ec08bd)" d="M 119.761231 284.258625 
L 121.530465 284.258625 
L 121.530465 282.963741 
L 119.761231 282.963741 
z
" style="fill:#1f77b4;"/>
   </g>
   <g id="patch_33">
    <path clip-path="url(#pd025ec08bd)" d="M 121.972774 284.258625 
L 123.742009 284.258625 
L 123.742009 282.963741 
L 121.972774 282.963741 
z
" style="fill:#1f77b4;"/>
   </g>
   <g id="patch_34">
    <path clip-path="url(#pd025ec08bd)" d="M 124.184317 284.258625 
L 125.953552 284.258625 
L 125.953552 282.829788 
L 124.184317 282.829788 
z
" style="fill:#1f77b4;"/>
   </g>
   <g id="patch_35">
    <path clip-path="url(#pd025ec08bd)" d="M 126.39586 284.258625 
L 128.165095 284.258625 
L 128.165095 282.829788 
L 126.39586 282.829788 
z
" style="fill:#1f77b4;"/>
   </g>
   <g id="patch_36">
    <path clip-path="url(#pd025ec08bd)" d="M 128.607404 284.258625 
L 130.376638 284.258625 
L 130.376638 282.695834 
L 128.607404 282.695834 
z
" style="fill:#1f77b4;"/>
   </g>
   <g id="patch_37">
    <path clip-path="url(#pd025ec08bd)" d="M 130.818947 284.258625 
L 132.588182 284.258625 
L 132.588182 282.651183 
L 130.818947 282.651183 
z
" style="fill:#1f77b4;"/>
   </g>
   <g id="patch_38">
    <path clip-path="url(#pd025ec08bd)" d="M 133.03049 284.258625 
L 134.799725 284.258625 
L 134.799725 282.651183 
L 133.03049 282.651183 
z
" style="fill:#1f77b4;"/>
   </g>
   <g id="patch_39">
    <path clip-path="url(#pd025ec08bd)" d="M 135.242033 284.258625 
L 137.011268 284.258625 
L 137.011268 282.606532 
L 135.242033 282.606532 
z
" style="fill:#1f77b4;"/>
   </g>
   <g id="patch_40">
    <path clip-path="url(#pd025ec08bd)" d="M 137.453577 284.258625 
L 139.222811 284.258625 
L 139.222811 282.51723 
L 137.453577 282.51723 
z
" style="fill:#1f77b4;"/>
   </g>
   <g id="patch_41">
    <path clip-path="url(#pd025ec08bd)" d="M 139.66512 284.258625 
L 141.434354 284.258625 
L 141.434354 282.51723 
L 139.66512 282.51723 
z
" style="fill:#1f77b4;"/>
   </g>
   <g id="patch_42">
    <path clip-path="url(#pd025ec08bd)" d="M 141.876663 284.258625 
L 143.645898 284.258625 
L 143.645898 282.472578 
L 141.876663 282.472578 
z
" style="fill:#1f77b4;"/>
   </g>
   <g id="patch_43">
    <path clip-path="url(#pd025ec08bd)" d="M 144.088206 284.258625 
L 145.857441 284.258625 
L 145.857441 282.293974 
L 144.088206 282.293974 
z
" style="fill:#1f77b4;"/>
   </g>
   <g id="patch_44">
    <path clip-path="url(#pd025ec08bd)" d="M 146.29975 284.258625 
L 148.068984 284.258625 
L 148.068984 281.936765 
L 146.29975 281.936765 
z
" style="fill:#1f77b4;"/>
   </g>
   <g id="patch_45">
    <path clip-path="url(#pd025ec08bd)" d="M 148.511293 284.258625 
L 150.280527 284.258625 
L 150.280527 281.668858 
L 148.511293 281.668858 
z
" style="fill:#1f77b4;"/>
   </g>
   <g id="patch_46">
    <path clip-path="url(#pd025ec08bd)" d="M 150.722836 284.258625 
L 152.492071 284.258625 
L 152.492071 281.400951 
L 150.722836 281.400951 
z
" style="fill:#1f77b4;"/>
   </g>
   <g id="patch_47">
    <path clip-path="url(#pd025ec08bd)" d="M 152.934379 284.258625 
L 154.703614 284.258625 
L 154.703614 281.400951 
L 152.934379 281.400951 
z
" style="fill:#1f77b4;"/>
   </g>
   <g id="patch_48">
    <path clip-path="url(#pd025ec08bd)" d="M 155.145922 284.258625 
L 156.915157 284.258625 
L 156.915157 281.400951 
L 155.145922 281.400951 
z
" style="fill:#1f77b4;"/>
   </g>
   <g id="patch_49">
    <path clip-path="url(#pd025ec08bd)" d="M 157.357466 284.258625 
L 159.1267 284.258625 
L 159.1267 281.266997 
L 157.357466 281.266997 
z
" style="fill:#1f77b4;"/>
   </g>
   <g id="patch_50">
    <path clip-path="url(#pd025ec08bd)" d="M 159.569009 284.258625 
L 161.338243 284.258625 
L 161.338243 280.99909 
L 159.569009 280.99909 
z
" style="fill:#1f77b4;"/>
   </g>
   <g id="patch_51">
    <path clip-path="url(#pd025ec08bd)" d="M 161.780552 284.258625 
L 163.549787 284.258625 
L 163.549787 280.909788 
L 161.780552 280.909788 
z
" style="fill:#1f77b4;"/>
   </g>
   <g id="patch_52">
    <path clip-path="url(#pd025ec08bd)" d="M 163.992095 284.258625 
L 165.76133 284.258625 
L 165.76133 280.820485 
L 163.992095 280.820485 
z
" style="fill:#1f77b4;"/>
   </g>
   <g id="patch_53">
    <path clip-path="url(#pd025ec08bd)" d="M 166.203639 284.258625 
L 167.972873 284.258625 
L 167.972873 280.373974 
L 166.203639 280.373974 
z
" style="fill:#1f77b4;"/>
   </g>
   <g id="patch_54">
    <path clip-path="url(#pd025ec08bd)" d="M 168.415182 284.258625 
L 170.184416 284.258625 
L 170.184416 280.24002 
L 168.415182 280.24002 
z
" style="fill:#1f77b4;"/>
   </g>
   <g id="patch_55">
    <path clip-path="url(#pd025ec08bd)" d="M 170.626725 284.258625 
L 172.39596 284.258625 
L 172.39596 280.24002 
L 170.626725 280.24002 
z
" style="fill:#1f77b4;"/>
   </g>
   <g id="patch_56">
    <path clip-path="url(#pd025ec08bd)" d="M 172.838268 284.258625 
L 174.607503 284.258625 
L 174.607503 279.704206 
L 172.838268 279.704206 
z
" style="fill:#1f77b4;"/>
   </g>
   <g id="patch_57">
    <path clip-path="url(#pd025ec08bd)" d="M 175.049811 284.258625 
L 176.819046 284.258625 
L 176.819046 279.302346 
L 175.049811 279.302346 
z
" style="fill:#1f77b4;"/>
   </g>
   <g id="patch_58">
    <path clip-path="url(#pd025ec08bd)" d="M 177.261355 284.258625 
L 179.030589 284.258625 
L 179.030589 278.989788 
L 177.261355 278.989788 
z
" style="fill:#1f77b4;"/>
   </g>
   <g id="patch_59">
    <path clip-path="url(#pd025ec08bd)" d="M 179.472898 284.258625 
L 181.242132 284.258625 
L 181.242132 278.498625 
L 179.472898 278.498625 
z
" style="fill:#1f77b4;"/>
   </g>
   <g id="patch_60">
    <path clip-path="url(#pd025ec08bd)" d="M 181.684441 284.258625 
L 183.453676 284.258625 
L 183.453676 278.186067 
L 181.684441 278.186067 
z
" style="fill:#1f77b4;"/>
   </g>
   <g id="patch_61">
    <path clip-path="url(#pd025ec08bd)" d="M 183.895984 284.258625 
L 185.665219 284.258625 
L 185.665219 278.052113 
L 183.895984 278.052113 
z
" style="fill:#1f77b4;"/>
   </g>
   <g id="patch_62">
    <path clip-path="url(#pd025ec08bd)" d="M 186.107528 284.258625 
L 187.876762 284.258625 
L 187.876762 277.337695 
L 186.107528 277.337695 
z
" style="fill:#1f77b4;"/>
   </g>
   <g id="patch_63">
    <path clip-path="url(#pd025ec08bd)" d="M 188.319071 284.258625 
L 190.088305 284.258625 
L 190.088305 276.533974 
L 188.319071 276.533974 
z
" style="fill:#1f77b4;"/>
   </g>
   <g id="patch_64">
    <path clip-path="url(#pd025ec08bd)" d="M 190.530614 284.258625 
L 192.299849 284.258625 
L 192.299849 274.703276 
L 190.530614 274.703276 
z
" style="fill:#1f77b4;"/>
   </g>
   <g id="patch_65">
    <path clip-path="url(#pd025ec08bd)" d="M 192.742157 284.258625 
L 194.511392 284.258625 
L 194.511392 272.649323 
L 192.742157 272.649323 
z
" style="fill:#1f77b4;"/>
   </g>
   <g id="patch_66">
    <path clip-path="url(#pd025ec08bd)" d="M 194.9537 284.258625 
L 196.722935 284.258625 
L 196.722935 270.863276 
L 194.9537 270.863276 
z
" style="fill:#1f77b4;"/>
   </g>
   <g id="patch_67">
    <path clip-path="url(#pd025ec08bd)" d="M 197.165244 284.258625 
L 198.934478 284.258625 
L 198.934478 268.005602 
L 197.165244 268.005602 
z
" style="fill:#1f77b4;"/>
   </g>
   <g id="patch_68">
    <path clip-path="url(#pd025ec08bd)" d="M 199.376787 284.258625 
L 201.146021 284.258625 
L 201.146021 264.790718 
L 199.376787 264.790718 
z
" style="fill:#1f77b4;"/>
   </g>
   <g id="patch_69">
    <path clip-path="url(#pd025ec08bd)" d="M 201.58833 284.258625 
L 203.357565 284.258625 
L 203.357565 264.254904 
L 201.58833 264.254904 
z
" style="fill:#1f77b4;"/>
   </g>
   <g id="patch_70">
    <path clip-path="url(#pd025ec08bd)" d="M 203.799873 284.258625 
L 205.569108 284.258625 
L 205.569108 260.772113 
L 203.799873 260.772113 
z
" style="fill:#1f77b4;"/>
   </g>
   <g id="patch_71">
    <path clip-path="url(#pd025ec08bd)" d="M 206.011417 284.258625 
L 207.780651 284.258625 
L 207.780651 257.780485 
L 206.011417 257.780485 
z
" style="fill:#1f77b4;"/>
   </g>
   <g id="patch_72">
    <path clip-path="url(#pd025ec08bd)" d="M 208.22296 284.258625 
L 209.992194 284.258625 
L 209.992194 253.404672 
L 208.22296 253.404672 
z
" style="fill:#1f77b4;"/>
   </g>
   <g id="patch_73">
    <path clip-path="url(#pd025ec08bd)" d="M 210.434503 284.258625 
L 212.203738 284.258625 
L 212.203738 249.296765 
L 210.434503 249.296765 
z
" style="fill:#1f77b4;"/>
   </g>
   <g id="patch_74">
    <path clip-path="url(#pd025ec08bd)" d="M 212.646046 284.258625 
L 214.415281 284.258625 
L 214.415281 244.027927 
L 212.646046 244.027927 
z
" style="fill:#1f77b4;"/>
   </g>
   <g id="patch_75">
    <path clip-path="url(#pd025ec08bd)" d="M 214.857589 284.258625 
L 216.626824 284.258625 
L 216.626824 237.732113 
L 214.857589 237.732113 
z
" style="fill:#1f77b4;"/>
   </g>
   <g id="patch_76">
    <path clip-path="url(#pd025ec08bd)" d="M 217.069133 284.258625 
L 218.838367 284.258625 
L 218.838367 233.936765 
L 217.069133 233.936765 
z
" style="fill:#1f77b4;"/>
   </g>
   <g id="patch_77">
    <path clip-path="url(#pd025ec08bd)" d="M 219.280676 284.258625 
L 221.049911 284.258625 
L 221.049911 230.052113 
L 219.280676 230.052113 
z
" style="fill:#1f77b4;"/>
   </g>
   <g id="patch_78">
    <path clip-path="url(#pd025ec08bd)" d="M 221.492219 284.258625 
L 223.261454 284.258625 
L 223.261454 223.086532 
L 221.492219 223.086532 
z
" style="fill:#1f77b4;"/>
   </g>
   <g id="patch_79">
    <path clip-path="url(#pd025ec08bd)" d="M 223.703762 284.258625 
L 225.472997 284.258625 
L 225.472997 214.915369 
L 223.703762 214.915369 
z
" style="fill:#1f77b4;"/>
   </g>
   <g id="patch_80">
    <path clip-path="url(#pd025ec08bd)" d="M 225.915306 284.258625 
L 227.68454 284.258625 
L 227.68454 206.029788 
L 225.915306 206.029788 
z
" style="fill:#1f77b4;"/>
   </g>
   <g id="patch_81">
    <path clip-path="url(#pd025ec08bd)" d="M 228.126849 284.258625 
L 229.896083 284.258625 
L 229.896083 197.188858 
L 228.126849 197.188858 
z
" style="fill:#1f77b4;"/>
   </g>
   <g id="patch_82">
    <path clip-path="url(#pd025ec08bd)" d="M 230.338392 284.258625 
L 232.107627 284.258625 
L 232.107627 189.419555 
L 230.338392 189.419555 
z
" style="fill:#1f77b4;"/>
   </g>
   <g id="patch_83">
    <path clip-path="url(#pd025ec08bd)" d="M 232.549935 284.258625 
L 234.31917 284.258625 
L 234.31917 184.865137 
L 232.549935 184.865137 
z
" style="fill:#1f77b4;"/>
   </g>
   <g id="patch_84">
    <path clip-path="url(#pd025ec08bd)" d="M 234.761479 284.258625 
L 236.530713 284.258625 
L 236.530713 177.765602 
L 234.761479 177.765602 
z
" style="fill:#1f77b4;"/>
   </g>
   <g id="patch_85">
    <path clip-path="url(#pd025ec08bd)" d="M 236.973022 284.258625 
L 238.742256 284.258625 
L 238.742256 172.094904 
L 236.973022 172.094904 
z
" style="fill:#1f77b4;"/>
   </g>
   <g id="patch_86">
    <path clip-path="url(#pd025ec08bd)" d="M 239.184565 284.258625 
L 240.9538 284.258625 
L 240.9538 165.352578 
L 239.184565 165.352578 
z
" style="fill:#1f77b4;"/>
   </g>
   <g id="patch_87">
    <path clip-path="url(#pd025ec08bd)" d="M 241.396108 284.258625 
L 243.165343 284.258625 
L 243.165343 156.154439 
L 241.396108 156.154439 
z
" style="fill:#1f77b4;"/>
   </g>
   <g id="patch_88">
    <path clip-path="url(#pd025ec08bd)" d="M 243.607651 284.258625 
L 245.376886 284.258625 
L 245.376886 147.849323 
L 243.607651 147.849323 
z
" style="fill:#1f77b4;"/>
   </g>
   <g id="patch_89">
    <path clip-path="url(#pd025ec08bd)" d="M 245.819195 284.258625 
L 247.588429 284.258625 
L 247.588429 142.982346 
L 245.819195 142.982346 
z
" style="fill:#1f77b4;"/>
   </g>
   <g id="patch_90">
    <path clip-path="url(#pd025ec08bd)" d="M 248.030738 284.258625 
L 249.799972 284.258625 
L 249.799972 138.472578 
L 248.030738 138.472578 
z
" style="fill:#1f77b4;"/>
   </g>
   <g id="patch_91">
    <path clip-path="url(#pd025ec08bd)" d="M 250.242281 284.258625 
L 252.011516 284.258625 
L 252.011516 132.980485 
L 250.242281 132.980485 
z
" style="fill:#1f77b4;"/>
   </g>
   <g id="patch_92">
    <path clip-path="url(#pd025ec08bd)" d="M 252.453824 284.258625 
L 254.223059 284.258625 
L 254.223059 127.488392 
L 252.453824 127.488392 
z
" style="fill:#1f77b4;"/>
   </g>
   <g id="patch_93">
    <path clip-path="url(#pd025ec08bd)" d="M 254.665368 284.258625 
L 256.434602 284.258625 
L 256.434602 121.505137 
L 254.665368 121.505137 
z
" style="fill:#1f77b4;"/>
   </g>
   <g id="patch_94">
    <path clip-path="url(#pd025ec08bd)" d="M 256.876911 284.258625 
L 258.646145 284.258625 
L 258.646145 113.914439 
L 256.876911 113.914439 
z
" style="fill:#1f77b4;"/>
   </g>
   <g id="patch_95">
    <path clip-path="url(#pd025ec08bd)" d="M 259.088454 284.258625 
L 260.857689 284.258625 
L 260.857689 108.600951 
L 259.088454 108.600951 
z
" style="fill:#1f77b4;"/>
   </g>
   <g id="patch_96">
    <path clip-path="url(#pd025ec08bd)" d="M 261.299997 284.258625 
L 263.069232 284.258625 
L 263.069232 104.939555 
L 261.299997 104.939555 
z
" style="fill:#1f77b4;"/>
   </g>
   <g id="patch_97">
    <path clip-path="url(#pd025ec08bd)" d="M 263.51154 284.258625 
L 265.280775 284.258625 
L 265.280775 103.108858 
L 263.51154 103.108858 
z
" style="fill:#1f77b4;"/>
   </g>
   <g id="patch_98">
    <path clip-path="url(#pd025ec08bd)" d="M 265.723084 284.258625 
L 267.492318 284.258625 
L 267.492318 98.063276 
L 265.723084 98.063276 
z
" style="fill:#1f77b4;"/>
   </g>
   <g id="patch_99">
    <path clip-path="url(#pd025ec08bd)" d="M 267.934627 284.258625 
L 269.703861 284.258625 
L 269.703861 95.964672 
L 267.934627 95.964672 
z
" style="fill:#1f77b4;"/>
   </g>
   <g id="patch_100">
    <path clip-path="url(#pd025ec08bd)" d="M 270.14617 284.258625 
L 271.915405 284.258625 
L 271.915405 93.330253 
L 270.14617 93.330253 
z
" style="fill:#1f77b4;"/>
   </g>
   <g id="patch_101">
    <path clip-path="url(#pd025ec08bd)" d="M 272.357713 284.258625 
L 274.126948 284.258625 
L 274.126948 85.962811 
L 272.357713 85.962811 
z
" style="fill:#1f77b4;"/>
   </g>
   <g id="patch_102">
    <path clip-path="url(#pd025ec08bd)" d="M 274.569257 284.258625 
L 276.338491 284.258625 
L 276.338491 78.99723 
L 274.569257 78.99723 
z
" style="fill:#1f77b4;"/>
   </g>
   <g id="patch_103">
    <path clip-path="url(#pd025ec08bd)" d="M 276.7808 284.258625 
L 278.550034 284.258625 
L 278.550034 74.844672 
L 276.7808 74.844672 
z
" style="fill:#1f77b4;"/>
   </g>
   <g id="patch_104">
    <path clip-path="url(#pd025ec08bd)" d="M 278.992343 284.258625 
L 280.761578 284.258625 
L 280.761578 70.96002 
L 278.992343 70.96002 
z
" style="fill:#1f77b4;"/>
   </g>
   <g id="patch_105">
    <path clip-path="url(#pd025ec08bd)" d="M 281.203886 284.258625 
L 282.973121 284.258625 
L 282.973121 68.414904 
L 281.203886 68.414904 
z
" style="fill:#1f77b4;"/>
   </g>
   <g id="patch_106">
    <path clip-path="url(#pd025ec08bd)" d="M 283.415429 284.258625 
L 285.184664 284.258625 
L 285.184664 66.762811 
L 283.415429 66.762811 
z
" style="fill:#1f77b4;"/>
   </g>
   <g id="patch_107">
    <path clip-path="url(#pd025ec08bd)" d="M 285.626973 284.258625 
L 287.396207 284.258625 
L 287.396207 65.735834 
L 285.626973 65.735834 
z
" style="fill:#1f77b4;"/>
   </g>
   <g id="patch_108">
    <path clip-path="url(#pd025ec08bd)" d="M 287.838516 284.258625 
L 289.60775 284.258625 
L 289.60775 63.994439 
L 287.838516 63.994439 
z
" style="fill:#1f77b4;"/>
   </g>
   <g id="patch_109">
    <path clip-path="url(#pd025ec08bd)" d="M 290.050059 284.258625 
L 291.819294 284.258625 
L 291.819294 62.386997 
L 290.050059 62.386997 
z
" style="fill:#1f77b4;"/>
   </g>
   <g id="patch_110">
    <path clip-path="url(#pd025ec08bd)" d="M 292.261602 284.258625 
L 294.030837 284.258625 
L 294.030837 61.404672 
L 292.261602 61.404672 
z
" style="fill:#1f77b4;"/>
   </g>
   <g id="patch_111">
    <path clip-path="url(#pd025ec08bd)" d="M 294.473146 284.258625 
L 296.24238 284.258625 
L 296.24238 60.734904 
L 294.473146 60.734904 
z
" style="fill:#1f77b4;"/>
   </g>
   <g id="patch_112">
    <path clip-path="url(#pd025ec08bd)" d="M 296.684689 284.258625 
L 298.453923 284.258625 
L 298.453923 59.529323 
L 296.684689 59.529323 
z
" style="fill:#1f77b4;"/>
   </g>
   <g id="patch_113">
    <path clip-path="url(#pd025ec08bd)" d="M 298.896232 284.258625 
L 300.665467 284.258625 
L 300.665467 59.082811 
L 298.896232 59.082811 
z
" style="fill:#1f77b4;"/>
   </g>
   <g id="patch_114">
    <path clip-path="url(#pd025ec08bd)" d="M 301.107775 284.258625 
L 302.87701 284.258625 
L 302.87701 57.743276 
L 301.107775 57.743276 
z
" style="fill:#1f77b4;"/>
   </g>
   <g id="patch_115">
    <path clip-path="url(#pd025ec08bd)" d="M 303.319318 284.258625 
L 305.088553 284.258625 
L 305.088553 57.341416 
L 303.319318 57.341416 
z
" style="fill:#1f77b4;"/>
   </g>
   <g id="patch_116">
    <path clip-path="url(#pd025ec08bd)" d="M 305.530862 284.258625 
L 307.300096 284.258625 
L 307.300096 56.716299 
L 305.530862 56.716299 
z
" style="fill:#1f77b4;"/>
   </g>
   <g id="patch_117">
    <path clip-path="url(#pd025ec08bd)" d="M 307.742405 284.258625 
L 309.51164 284.258625 
L 309.51164 56.493044 
L 307.742405 56.493044 
z
" style="fill:#1f77b4;"/>
   </g>
   <g id="patch_118">
    <path clip-path="url(#pd025ec08bd)" d="M 309.953948 284.258625 
L 311.723183 284.258625 
L 311.723183 56.046532 
L 309.953948 56.046532 
z
" style="fill:#1f77b4;"/>
   </g>
   <g id="patch_119">
    <path clip-path="url(#pd025ec08bd)" d="M 312.165491 284.258625 
L 313.934726 284.258625 
L 313.934726 55.823276 
L 312.165491 55.823276 
z
" style="fill:#1f77b4;"/>
   </g>
   <g id="patch_120">
    <path clip-path="url(#pd025ec08bd)" d="M 314.377035 284.258625 
L 316.146269 284.258625 
L 316.146269 55.60002 
L 314.377035 55.60002 
z
" style="fill:#1f77b4;"/>
   </g>
   <g id="patch_121">
    <path clip-path="url(#pd025ec08bd)" d="M 316.588578 284.258625 
L 318.357812 284.258625 
L 318.357812 55.108858 
L 316.588578 55.108858 
z
" style="fill:#1f77b4;"/>
   </g>
   <g id="patch_122">
    <path clip-path="url(#pd025ec08bd)" d="M 318.800121 284.258625 
L 320.569356 284.258625 
L 320.569356 54.974904 
L 318.800121 54.974904 
z
" style="fill:#1f77b4;"/>
   </g>
   <g id="patch_123">
    <path clip-path="url(#pd025ec08bd)" d="M 321.011664 284.258625 
L 322.780899 284.258625 
L 322.780899 54.885602 
L 321.011664 54.885602 
z
" style="fill:#1f77b4;"/>
   </g>
   <g id="patch_124">
    <path clip-path="url(#pd025ec08bd)" d="M 323.223208 284.258625 
L 324.992442 284.258625 
L 324.992442 54.260485 
L 323.223208 54.260485 
z
" style="fill:#1f77b4;"/>
   </g>
   <g id="patch_125">
    <path clip-path="url(#pd025ec08bd)" d="M 325.434751 284.258625 
L 327.203985 284.258625 
L 327.203985 53.903276 
L 325.434751 53.903276 
z
" style="fill:#1f77b4;"/>
   </g>
   <g id="patch_126">
    <path clip-path="url(#pd025ec08bd)" d="M 327.646294 284.258625 
L 329.415529 284.258625 
L 329.415529 53.456765 
L 327.646294 53.456765 
z
" style="fill:#1f77b4;"/>
   </g>
   <g id="patch_127">
    <path clip-path="url(#pd025ec08bd)" d="M 329.857837 284.258625 
L 331.627072 284.258625 
L 331.627072 52.965602 
L 329.857837 52.965602 
z
" style="fill:#1f77b4;"/>
   </g>
   <g id="patch_128">
    <path clip-path="url(#pd025ec08bd)" d="M 332.06938 284.258625 
L 333.838615 284.258625 
L 333.838615 52.295834 
L 332.06938 52.295834 
z
" style="fill:#1f77b4;"/>
   </g>
   <g id="patch_129">
    <path clip-path="url(#pd025ec08bd)" d="M 334.280924 284.258625 
L 336.050158 284.258625 
L 336.050158 51.313509 
L 334.280924 51.313509 
z
" style="fill:#1f77b4;"/>
   </g>
   <g id="patch_130">
    <path clip-path="url(#pd025ec08bd)" d="M 336.492467 284.258625 
L 338.261701 284.258625 
L 338.261701 50.688392 
L 336.492467 50.688392 
z
" style="fill:#1f77b4;"/>
   </g>
   <g id="patch_131">
    <path clip-path="url(#pd025ec08bd)" d="M 338.70401 284.258625 
L 340.473245 284.258625 
L 340.473245 50.465137 
L 338.70401 50.465137 
z
" style="fill:#1f77b4;"/>
   </g>
   <g id="patch_132">
    <path clip-path="url(#pd025ec08bd)" d="M 340.915553 284.258625 
L 342.684788 284.258625 
L 342.684788 49.884672 
L 340.915553 49.884672 
z
" style="fill:#1f77b4;"/>
   </g>
   <g id="patch_133">
    <path clip-path="url(#pd025ec08bd)" d="M 343.127097 284.258625 
L 344.896331 284.258625 
L 344.896331 48.366532 
L 343.127097 48.366532 
z
" style="fill:#1f77b4;"/>
   </g>
   <g id="patch_134">
    <path clip-path="url(#pd025ec08bd)" d="M 345.33864 284.258625 
L 347.107874 284.258625 
L 347.107874 47.830718 
L 345.33864 47.830718 
z
" style="fill:#1f77b4;"/>
   </g>
   <g id="patch_135">
    <path clip-path="url(#pd025ec08bd)" d="M 347.550183 284.258625 
L 349.319418 284.258625 
L 349.319418 46.580485 
L 347.550183 46.580485 
z
" style="fill:#1f77b4;"/>
   </g>
   <g id="patch_136">
    <path clip-path="url(#pd025ec08bd)" d="M 349.761726 284.258625 
L 351.530961 284.258625 
L 351.530961 45.687462 
L 349.761726 45.687462 
z
" style="fill:#1f77b4;"/>
   </g>
   <g id="patch_137">
    <path clip-path="url(#pd025ec08bd)" d="M 351.973269 284.258625 
L 353.742504 284.258625 
L 353.742504 44.526532 
L 351.973269 44.526532 
z
" style="fill:#1f77b4;"/>
   </g>
   <g id="patch_138">
    <path clip-path="url(#pd025ec08bd)" d="M 354.184813 284.258625 
L 355.954047 284.258625 
L 355.954047 43.901416 
L 354.184813 43.901416 
z
" style="fill:#1f77b4;"/>
   </g>
   <g id="patch_139">
    <path clip-path="url(#pd025ec08bd)" d="M 356.396356 284.258625 
L 358.16559 284.258625 
L 358.16559 43.320951 
L 356.396356 43.320951 
z
" style="fill:#1f77b4;"/>
   </g>
   <g id="patch_140">
    <path clip-path="url(#pd025ec08bd)" d="M 358.607899 284.258625 
L 360.377134 284.258625 
L 360.377134 42.785137 
L 358.607899 42.785137 
z
" style="fill:#1f77b4;"/>
   </g>
   <g id="patch_141">
    <path clip-path="url(#pd025ec08bd)" d="M 360.819442 284.258625 
L 362.588677 284.258625 
L 362.588677 41.981416 
L 360.819442 41.981416 
z
" style="fill:#1f77b4;"/>
   </g>
   <g id="patch_142">
    <path clip-path="url(#pd025ec08bd)" d="M 363.030986 284.258625 
L 364.80022 284.258625 
L 364.80022 40.99909 
L 363.030986 40.99909 
z
" style="fill:#1f77b4;"/>
   </g>
   <g id="patch_143">
    <path clip-path="url(#pd025ec08bd)" d="M 365.242529 284.258625 
L 367.011763 284.258625 
L 367.011763 39.882811 
L 365.242529 39.882811 
z
" style="fill:#1f77b4;"/>
   </g>
   <g id="patch_144">
    <path clip-path="url(#pd025ec08bd)" d="M 367.454072 284.258625 
L 369.223307 284.258625 
L 369.223307 38.811183 
L 367.454072 38.811183 
z
" style="fill:#1f77b4;"/>
   </g>
   <g id="patch_145">
    <path clip-path="url(#pd025ec08bd)" d="M 369.665615 284.258625 
L 371.43485 284.258625 
L 371.43485 36.712578 
L 369.665615 36.712578 
z
" style="fill:#1f77b4;"/>
   </g>
   <g id="patch_146">
    <path clip-path="url(#pd025ec08bd)" d="M 371.877158 284.258625 
L 373.646393 284.258625 
L 373.646393 34.569323 
L 371.877158 34.569323 
z
" style="fill:#1f77b4;"/>
   </g>
   <g id="patch_147">
    <path clip-path="url(#pd025ec08bd)" d="M 374.088702 284.258625 
L 375.857936 284.258625 
L 375.857936 33.363741 
L 374.088702 33.363741 
z
" style="fill:#1f77b4;"/>
   </g>
   <g id="patch_148">
    <path clip-path="url(#pd025ec08bd)" d="M 376.300245 284.258625 
L 378.06948 284.258625 
L 378.06948 32.649323 
L 376.300245 32.649323 
z
" style="fill:#1f77b4;"/>
   </g>
   <g id="patch_149">
    <path clip-path="url(#pd025ec08bd)" d="M 378.511788 284.258625 
L 380.281023 284.258625 
L 380.281023 30.818625 
L 378.511788 30.818625 
z
" style="fill:#1f77b4;"/>
   </g>
   <g id="matplotlib.axis_1">
    <g id="xtick_1">
     <g id="line2d_3">
      <defs>
       <path d="M 0 0 
L 0 3.5 
" id="m4bc07ab0e3" style="stroke:#000000;stroke-width:0.8;"/>
      </defs>
      <g>
       <use style="stroke:#000000;stroke-width:0.8;" x="73.318823" xlink:href="#m4bc07ab0e3" y="284.258625"/>
      </g>
     </g>
     <g id="text_1">
      <!-- Feb -->
      <defs>
       <path d="M 54.203125 64.703125 
L 18.3125 64.703125 
L 18.3125 41.5 
L 50.09375 41.5 
L 50.09375 34.1875 
L 18.3125 34.1875 
L 18.3125 0.984375 
L 9.515625 0.984375 
L 9.515625 72.40625 
L 54.203125 72.40625 
z
" id="IPAexGothic-70"/>
       <path d="M 13.484375 24.90625 
Q 13.921875 16.265625 18.890625 11.28125 
Q 23.96875 6.203125 31.203125 6.203125 
Q 40.71875 6.203125 46.296875 15.09375 
L 51.90625 11.375 
Q 44.828125 -0.484375 30.171875 -0.484375 
Q 19.09375 -0.484375 11.96875 6.59375 
Q 4.78125 13.8125 4.78125 25.640625 
Q 4.78125 38.1875 12.3125 45.703125 
Q 19 52.390625 29 52.390625 
Q 38.421875 52.390625 44.78125 46.1875 
Q 51.90625 38.96875 51.90625 26.90625 
L 51.90625 24.90625 
z
M 43.0625 31.203125 
Q 42.328125 37.984375 38.28125 41.890625 
Q 34.28125 45.90625 28.8125 45.90625 
Q 22.46875 45.90625 17.96875 40.484375 
Q 14.890625 36.8125 13.96875 31.203125 
z
" id="IPAexGothic-101"/>
       <path d="M 17.578125 42.671875 
Q 24.21875 52.203125 34.671875 52.203125 
Q 43.5625 52.203125 49.859375 45.90625 
Q 57.171875 38.578125 57.171875 25.6875 
Q 57.171875 13.09375 49.859375 5.8125 
Q 43.5625 -0.484375 34.46875 -0.484375 
Q 24.359375 -0.484375 17 8.0625 
L 15.765625 0.6875 
L 9.078125 0.6875 
L 9.078125 74.90625 
L 17.578125 74.90625 
z
M 17.578125 31.203125 
L 17.578125 19.578125 
Q 17.578125 13.875 23.875 9.375 
Q 28.171875 6.296875 33.109375 6.296875 
Q 38.875 6.296875 42.875 10.296875 
Q 48.1875 15.765625 48.1875 25.484375 
Q 48.1875 34.28125 43.796875 39.890625 
Q 39.453125 45.3125 33.203125 45.3125 
Q 27.484375 45.3125 22.46875 40.28125 
Q 17.578125 35.40625 17.578125 31.203125 
z
" id="IPAexGothic-98"/>
      </defs>
      <g transform="translate(64.495386 298.74925)scale(0.1 -0.1)">
       <use xlink:href="#IPAexGothic-70"/>
       <use x="57.177734" xlink:href="#IPAexGothic-101"/>
       <use x="114.0625" xlink:href="#IPAexGothic-98"/>
      </g>
     </g>
    </g>
    <g id="xtick_2">
     <g id="line2d_4">
      <g>
       <use style="stroke:#000000;stroke-width:0.8;" x="137.453577" xlink:href="#m4bc07ab0e3" y="284.258625"/>
      </g>
     </g>
     <g id="text_2">
      <!-- Mar -->
      <defs>
       <path d="M 80.421875 0.984375 
L 71.828125 0.984375 
L 71.828125 39.59375 
Q 71.828125 51.265625 72.40625 64.59375 
L 72.015625 64.59375 
Q 68.0625 53.265625 63.53125 41.796875 
L 47.90625 3.265625 
L 41.40625 3.265625 
L 25.640625 42.578125 
Q 20.75 54.78125 17.625 64.703125 
L 17.234375 64.703125 
Q 17.828125 48.921875 17.828125 39.890625 
L 17.828125 0.984375 
L 9.515625 0.984375 
L 9.515625 72.40625 
L 22.125 72.40625 
L 39.109375 30.375 
Q 42.140625 23 44.828125 14.15625 
L 45.125 14.15625 
Q 47.3125 22.125 50.53125 30.171875 
L 67.4375 72.40625 
L 80.421875 72.40625 
z
" id="IPAexGothic-77"/>
       <path d="M 49.3125 0.984375 
L 41.75 0.984375 
Q 39.984375 4.734375 39.546875 8.6875 
L 39.203125 8.6875 
Q 33.546875 -0.390625 22.3125 -0.390625 
Q 14.59375 -0.390625 9.71875 4.5 
Q 5.421875 8.796875 5.421875 14.984375 
Q 5.421875 30.421875 32.03125 31.203125 
L 38.71875 31.390625 
L 38.71875 33.984375 
Q 38.71875 39.203125 35.75 42.1875 
Q 32.625 45.3125 27.734375 45.3125 
Q 19.34375 45.3125 15.140625 37.15625 
L 7.71875 40.578125 
Q 14.65625 52 27.9375 52 
Q 37.109375 52 42.046875 46.875 
Q 46.625 42.28125 46.625 33.890625 
L 46.625 15.578125 
Q 46.625 6.25 49.3125 0.984375 
z
M 38.921875 25.390625 
L 33.453125 25.296875 
Q 14.109375 24.859375 14.109375 14.890625 
Q 14.109375 11.375 16.40625 9.078125 
Q 19.234375 6.296875 23.828125 6.296875 
Q 30.21875 6.296875 34.90625 10.984375 
Q 38.921875 15.140625 38.921875 21 
z
" id="IPAexGothic-97"/>
       <path d="M 36.078125 51.8125 
L 34.578125 43.265625 
Q 32.90625 43.609375 31.59375 43.609375 
Q 25.828125 43.609375 22.078125 38.1875 
Q 17.390625 31.34375 17.390625 26.171875 
L 17.390625 0.984375 
L 8.796875 0.984375 
L 8.796875 50.78125 
L 16.890625 50.78125 
L 16.5 35.984375 
L 16.703125 35.984375 
Q 22.21875 52.203125 32.765625 52.203125 
Q 34.46875 52.203125 36.078125 51.8125 
z
" id="IPAexGothic-114"/>
      </defs>
      <g transform="translate(128.344202 298.74925)scale(0.1 -0.1)">
       <use xlink:href="#IPAexGothic-77"/>
       <use x="90.185547" xlink:href="#IPAexGothic-97"/>
       <use x="145.166016" xlink:href="#IPAexGothic-114"/>
      </g>
     </g>
    </g>
    <g id="xtick_3">
     <g id="line2d_5">
      <g>
       <use style="stroke:#000000;stroke-width:0.8;" x="206.011417" xlink:href="#m4bc07ab0e3" y="284.258625"/>
      </g>
     </g>
     <g id="text_3">
      <!-- Apr -->
      <defs>
       <path d="M 63.375 0.984375 
L 53.8125 0.984375 
L 45.90625 22.015625 
L 17.1875 22.015625 
L 9.421875 0.984375 
L -0.09375 0.984375 
L 28.21875 72.90625 
L 35.296875 72.90625 
z
M 43.40625 29.109375 
L 36.1875 48.09375 
Q 33.203125 56.0625 31.6875 62.5 
L 31.390625 62.5 
Q 29.640625 55.671875 26.8125 48.09375 
L 19.734375 29.109375 
z
" id="IPAexGothic-65"/>
       <path d="M 16.796875 42 
Q 23.828125 52.203125 34.46875 52.203125 
Q 43.265625 52.203125 49.5625 45.90625 
Q 56.890625 38.578125 56.890625 25.6875 
Q 56.890625 13.140625 49.65625 5.8125 
Q 43.359375 -0.484375 34.375 -0.484375 
Q 24.515625 -0.484375 17.28125 7.765625 
L 17.28125 -19 
L 8.796875 -19 
L 8.796875 50.78125 
L 16.796875 50.78125 
z
M 17.28125 30.46875 
L 17.28125 20.171875 
Q 17.28125 14.015625 23.6875 9.375 
Q 27.984375 6.296875 32.90625 6.296875 
Q 38.578125 6.296875 42.578125 10.296875 
Q 47.90625 15.578125 47.90625 25.484375 
Q 47.90625 34.375 43.5 39.984375 
Q 39.109375 45.3125 32.8125 45.3125 
Q 25.875 45.3125 20.90625 38.8125 
Q 17.28125 34.125 17.28125 30.46875 
z
" id="IPAexGothic-112"/>
      </defs>
      <g transform="translate(197.869229 298.74925)scale(0.1 -0.1)">
       <use xlink:href="#IPAexGothic-65"/>
       <use x="63.720703" xlink:href="#IPAexGothic-112"/>
       <use x="125.830078" xlink:href="#IPAexGothic-114"/>
      </g>
     </g>
    </g>
    <g id="xtick_4">
     <g id="line2d_6">
      <g>
       <use style="stroke:#000000;stroke-width:0.8;" x="272.357713" xlink:href="#m4bc07ab0e3" y="284.258625"/>
      </g>
     </g>
     <g id="text_4">
      <!-- May -->
      <defs>
       <path d="M 48.78125 50.78125 
L 24.609375 -7.625 
Q 19.96875 -18.796875 8.59375 -18.796875 
L 7.46875 -18.796875 
L 5.375 -10.984375 
L 6.984375 -10.984375 
Q 15.140625 -10.984375 17.96875 -3.71875 
L 21.1875 4.296875 
L 0.59375 50.78125 
L 10.296875 50.78125 
L 21.296875 22.796875 
Q 23.875 16.015625 25.09375 12.203125 
L 25.390625 12.203125 
Q 27.34375 18.265625 29.109375 22.796875 
L 39.5 50.78125 
z
" id="IPAexGothic-121"/>
      </defs>
      <g transform="translate(262.638182 298.74925)scale(0.1 -0.1)">
       <use xlink:href="#IPAexGothic-77"/>
       <use x="90.185547" xlink:href="#IPAexGothic-97"/>
       <use x="145.166016" xlink:href="#IPAexGothic-121"/>
      </g>
     </g>
    </g>
    <g id="xtick_5">
     <g id="line2d_7">
      <g>
       <use style="stroke:#000000;stroke-width:0.8;" x="340.915553" xlink:href="#m4bc07ab0e3" y="284.258625"/>
      </g>
     </g>
     <g id="text_5">
      <!-- Jun -->
      <defs>
       <path d="M 28.421875 72.40625 
L 28.421875 19.28125 
Q 28.421875 -0.484375 11.921875 -0.484375 
Q 4.734375 -0.484375 -1.953125 3.265625 
L 1.3125 10.0625 
Q 5.90625 6.984375 10.84375 6.984375 
Q 19.53125 6.984375 19.53125 18.796875 
L 19.53125 72.40625 
z
" id="IPAexGothic-74"/>
       <path d="M 51.3125 0.984375 
L 43.3125 0.984375 
L 43.3125 10.0625 
Q 35.9375 0 25.390625 0 
Q 16.75 0 11.921875 5.859375 
Q 8.109375 10.59375 8.109375 19.390625 
L 8.109375 50.78125 
L 16.703125 50.78125 
L 16.703125 19.671875 
Q 16.703125 7.28125 27.09375 7.28125 
Q 37.59375 7.28125 42.71875 20.171875 
L 42.71875 50.78125 
L 51.3125 50.78125 
z
" id="IPAexGothic-117"/>
       <path d="M 52 0.984375 
L 43.40625 0.984375 
L 43.40625 31.890625 
Q 43.40625 44.578125 32.90625 44.578125 
Q 22.3125 44.578125 17.390625 31.890625 
L 17.390625 0.984375 
L 8.796875 0.984375 
L 8.796875 50.78125 
L 16.796875 50.78125 
L 16.796875 41.796875 
Q 23.828125 51.8125 34.71875 51.8125 
Q 52 51.8125 52 32.375 
z
" id="IPAexGothic-110"/>
      </defs>
      <g transform="translate(332.97571 298.74925)scale(0.1 -0.1)">
       <use xlink:href="#IPAexGothic-74"/>
       <use x="37.988281" xlink:href="#IPAexGothic-117"/>
       <use x="98.388672" xlink:href="#IPAexGothic-110"/>
      </g>
     </g>
    </g>
    <g id="text_6">
     <!-- 2020 -->
     <defs>
      <path d="M 57.171875 0.984375 
L 6.984375 0.984375 
L 6.984375 9.28125 
Q 12.890625 23.046875 29.59375 34.421875 
L 32.375 36.28125 
Q 40.921875 42.140625 43.609375 45.40625 
Q 46.6875 49.265625 46.6875 53.8125 
Q 46.6875 58.9375 43.0625 62.546875 
Q 39.0625 66.546875 32.5625 66.546875 
Q 19.53125 66.546875 15.484375 52 
L 7.765625 54.78125 
Q 13.328125 73.828125 33.0625 73.828125 
Q 43.84375 73.828125 50.25 67.4375 
Q 55.859375 61.671875 55.859375 53.515625 
Q 55.859375 47.46875 52.25 42.53125 
Q 48.921875 37.75 36.96875 30.28125 
L 34.859375 29 
Q 19.625 19.578125 15.28125 8.890625 
L 57.171875 8.890625 
z
" id="IPAexGothic-50"/>
      <path d="M 31.84375 73.828125 
Q 45.015625 73.828125 52.09375 61.625 
Q 57.71875 51.953125 57.71875 36.625 
Q 57.71875 21.4375 52.09375 11.578125 
Q 45.125 -0.484375 31.5 -0.484375 
Q 17.921875 -0.484375 10.9375 11.578125 
Q 5.328125 21.4375 5.328125 36.71875 
Q 5.328125 58.015625 15.625 67.71875 
Q 22.171875 73.828125 31.84375 73.828125 
z
M 31.5 66.65625 
Q 23.6875 66.65625 19.1875 58.734375 
Q 14.59375 50.734375 14.59375 36.625 
Q 14.59375 22.75 19.09375 14.796875 
Q 23.640625 6.984375 31.5 6.984375 
Q 40.921875 6.984375 45.453125 18.015625 
Q 48.4375 25.34375 48.4375 37.109375 
Q 48.4375 50.875 43.84375 58.734375 
Q 39.203125 66.65625 31.5 66.65625 
z
" id="IPAexGothic-48"/>
     </defs>
     <g transform="translate(371.32 311.139875)scale(0.1 -0.1)">
      <use xlink:href="#IPAexGothic-50"/>
      <use x="62.988281" xlink:href="#IPAexGothic-48"/>
      <use x="125.976562" xlink:href="#IPAexGothic-50"/>
      <use x="188.964844" xlink:href="#IPAexGothic-48"/>
     </g>
    </g>
   </g>
   <g id="matplotlib.axis_2">
    <g id="ytick_1">
     <g id="line2d_8">
      <defs>
       <path d="M 0 0 
L -3.5 0 
" id="m3f87b148bb" style="stroke:#000000;stroke-width:0.8;"/>
      </defs>
      <g>
       <use style="stroke:#000000;stroke-width:0.8;" x="39.39375" xlink:href="#m3f87b148bb" y="284.258625"/>
      </g>
     </g>
     <g id="text_7">
      <!-- 0 -->
      <g transform="translate(26.095313 288.003937)scale(0.1 -0.1)">
       <use xlink:href="#IPAexGothic-48"/>
      </g>
     </g>
    </g>
    <g id="ytick_2">
     <g id="line2d_9">
      <g>
       <use style="stroke:#000000;stroke-width:0.8;" x="39.39375" xlink:href="#m3f87b148bb" y="239.607462"/>
      </g>
     </g>
     <g id="text_8">
      <!-- 1000 -->
      <defs>
       <path d="M 38.484375 0.984375 
L 29.6875 0.984375 
L 29.6875 64.109375 
Q 21.4375 61.28125 12.3125 59.328125 
L 10.6875 66.109375 
Q 23.734375 69.390625 32.90625 73.921875 
L 38.484375 73.921875 
z
" id="IPAexGothic-49"/>
      </defs>
      <g transform="translate(7.2 243.352775)scale(0.1 -0.1)">
       <use xlink:href="#IPAexGothic-49"/>
       <use x="62.988281" xlink:href="#IPAexGothic-48"/>
       <use x="125.976562" xlink:href="#IPAexGothic-48"/>
       <use x="188.964844" xlink:href="#IPAexGothic-48"/>
      </g>
     </g>
    </g>
    <g id="ytick_3">
     <g id="line2d_10">
      <g>
       <use style="stroke:#000000;stroke-width:0.8;" x="39.39375" xlink:href="#m3f87b148bb" y="194.956299"/>
      </g>
     </g>
     <g id="text_9">
      <!-- 2000 -->
      <g transform="translate(7.2 198.701612)scale(0.1 -0.1)">
       <use xlink:href="#IPAexGothic-50"/>
       <use x="62.988281" xlink:href="#IPAexGothic-48"/>
       <use x="125.976562" xlink:href="#IPAexGothic-48"/>
       <use x="188.964844" xlink:href="#IPAexGothic-48"/>
      </g>
     </g>
    </g>
    <g id="ytick_4">
     <g id="line2d_11">
      <g>
       <use style="stroke:#000000;stroke-width:0.8;" x="39.39375" xlink:href="#m3f87b148bb" y="150.305137"/>
      </g>
     </g>
     <g id="text_10">
      <!-- 3000 -->
      <defs>
       <path d="M 37.203125 37.796875 
Q 54.78125 34.625 54.78125 19.96875 
Q 54.78125 11.1875 48.875 5.5625 
Q 42.328125 -0.484375 30.375 -0.484375 
Q 12.453125 -0.484375 4.5 13.765625 
L 11.8125 17.671875 
Q 17.328125 6.890625 30.28125 6.890625 
Q 37.890625 6.890625 42.09375 10.796875 
Q 46.09375 14.5 46.09375 20.171875 
Q 46.09375 26.859375 40.09375 30.90625 
Q 34.625 34.578125 25.6875 34.578125 
L 21.296875 34.578125 
L 21.296875 41.703125 
L 25.875 41.703125 
Q 34.859375 41.703125 39.59375 45.125 
Q 44.671875 48.734375 44.671875 54.828125 
Q 44.671875 61.46875 38.96875 64.65625 
Q 35.296875 66.84375 30.171875 66.84375 
Q 19.34375 66.84375 14.109375 55.90625 
L 6.78125 59.421875 
Q 14.015625 73.828125 30.28125 73.828125 
Q 40.578125 73.828125 46.96875 68.65625 
Q 53.375 63.578125 53.375 55.21875 
Q 53.375 47.3125 47.171875 42.28125 
Q 43.171875 39.0625 37.203125 38.1875 
z
" id="IPAexGothic-51"/>
      </defs>
      <g transform="translate(7.2 154.050449)scale(0.1 -0.1)">
       <use xlink:href="#IPAexGothic-51"/>
       <use x="62.988281" xlink:href="#IPAexGothic-48"/>
       <use x="125.976562" xlink:href="#IPAexGothic-48"/>
       <use x="188.964844" xlink:href="#IPAexGothic-48"/>
      </g>
     </g>
    </g>
    <g id="ytick_5">
     <g id="line2d_12">
      <g>
       <use style="stroke:#000000;stroke-width:0.8;" x="39.39375" xlink:href="#m3f87b148bb" y="105.653974"/>
      </g>
     </g>
     <g id="text_11">
      <!-- 4000 -->
      <defs>
       <path d="M 59.578125 18.109375 
L 47.796875 18.109375 
L 47.796875 0.984375 
L 39.796875 0.984375 
L 39.796875 18.109375 
L 3.078125 18.109375 
L 3.078125 26.125 
L 38.375 73.09375 
L 47.796875 73.09375 
L 47.796875 25.53125 
L 59.578125 25.53125 
z
M 40.28125 64.203125 
L 39.984375 64.203125 
Q 35.59375 57.125 31.296875 51.3125 
L 11.859375 25.53125 
L 39.796875 25.53125 
L 39.796875 49.125 
Q 39.796875 54.390625 40.28125 64.203125 
z
" id="IPAexGothic-52"/>
      </defs>
      <g transform="translate(7.2 109.399286)scale(0.1 -0.1)">
       <use xlink:href="#IPAexGothic-52"/>
       <use x="62.988281" xlink:href="#IPAexGothic-48"/>
       <use x="125.976562" xlink:href="#IPAexGothic-48"/>
       <use x="188.964844" xlink:href="#IPAexGothic-48"/>
      </g>
     </g>
    </g>
    <g id="ytick_6">
     <g id="line2d_13">
      <g>
       <use style="stroke:#000000;stroke-width:0.8;" x="39.39375" xlink:href="#m3f87b148bb" y="61.002811"/>
      </g>
     </g>
     <g id="text_12">
      <!-- 5000 -->
      <defs>
       <path d="M 18.40625 40.671875 
Q 25.53125 46.296875 33.9375 46.296875 
Q 44 46.296875 50.640625 39.5 
Q 56.84375 33.015625 56.84375 23.390625 
Q 56.84375 14.65625 51.515625 8.015625 
Q 44.828125 -0.484375 31.734375 -0.484375 
Q 14.984375 -0.484375 7.328125 12.25 
L 14.65625 16.0625 
Q 20.453125 6.78125 31.453125 6.78125 
Q 38.53125 6.78125 43.265625 11.1875 
Q 48.140625 15.828125 48.140625 23.484375 
Q 48.140625 30.71875 43.84375 35.015625 
Q 39.359375 39.5 32.125 39.5 
Q 21.96875 39.5 16.75 31.6875 
L 9.234375 32.671875 
L 13.8125 72.40625 
L 53.21875 72.40625 
L 53.21875 64.890625 
L 20.953125 64.890625 
L 17.71875 40.671875 
z
" id="IPAexGothic-53"/>
      </defs>
      <g transform="translate(7.2 64.748124)scale(0.1 -0.1)">
       <use xlink:href="#IPAexGothic-53"/>
       <use x="62.988281" xlink:href="#IPAexGothic-48"/>
       <use x="125.976562" xlink:href="#IPAexGothic-48"/>
       <use x="188.964844" xlink:href="#IPAexGothic-48"/>
      </g>
     </g>
    </g>
   </g>
   <g id="patch_150">
    <path d="M 39.39375 284.258625 
L 39.39375 18.146625 
" style="fill:none;stroke:#000000;stroke-linecap:square;stroke-linejoin:miter;stroke-width:0.8;"/>
   </g>
   <g id="patch_151">
    <path d="M 396.51375 284.258625 
L 396.51375 18.146625 
" style="fill:none;stroke:#000000;stroke-linecap:square;stroke-linejoin:miter;stroke-width:0.8;"/>
   </g>
   <g id="patch_152">
    <path d="M 39.39375 284.258625 
L 396.51375 284.258625 
" style="fill:none;stroke:#000000;stroke-linecap:square;stroke-linejoin:miter;stroke-width:0.8;"/>
   </g>
   <g id="patch_153">
    <path d="M 39.39375 18.146625 
L 396.51375 18.146625 
" style="fill:none;stroke:#000000;stroke-linecap:square;stroke-linejoin:miter;stroke-width:0.8;"/>
   </g>
   <g id="legend_1">
    <g id="patch_154">
     <path d="M 46.39375 40.595062 
L 210.73125 40.595062 
Q 212.73125 40.595062 212.73125 38.595062 
L 212.73125 25.146625 
Q 212.73125 23.146625 210.73125 23.146625 
L 46.39375 23.146625 
Q 44.39375 23.146625 44.39375 25.146625 
L 44.39375 38.595062 
Q 44.39375 40.595062 46.39375 40.595062 
z
" style="fill:#ffffff;opacity:0.8;stroke:#cccccc;stroke-linejoin:miter;"/>
    </g>
    <g id="patch_155">
     <path d="M 48.39375 34.695062 
L 68.39375 34.695062 
L 68.39375 27.695062 
L 48.39375 27.695062 
z
" style="fill:#1f77b4;"/>
    </g>
    <g id="text_13">
     <!-- Tokyo cumulative confirmed -->
     <defs>
      <path d="M 60.40625 64.703125 
L 33.984375 64.703125 
L 33.984375 0.984375 
L 25.09375 0.984375 
L 25.09375 64.703125 
L -0.484375 64.703125 
L -0.484375 72.40625 
L 60.40625 72.40625 
z
" id="IPAexGothic-84"/>
      <path d="M 29.984375 52.203125 
Q 40.53125 52.203125 47.75 45.125 
Q 55.171875 37.703125 55.171875 25.59375 
Q 55.171875 13.875 47.90625 6.59375 
Q 40.765625 -0.484375 29.984375 -0.484375 
Q 19.1875 -0.484375 12.203125 6.5 
Q 4.890625 13.765625 4.890625 25.875 
Q 4.890625 37.703125 12.3125 45.125 
Q 19.390625 52.203125 29.984375 52.203125 
z
M 29.984375 45.609375 
Q 23.734375 45.609375 19.390625 41.109375 
Q 13.875 35.59375 13.875 25.78125 
Q 13.875 16.109375 19.28125 10.6875 
Q 23.6875 6.296875 29.984375 6.296875 
Q 36.421875 6.296875 40.765625 10.796875 
Q 46.1875 16.21875 46.1875 26.125 
Q 46.1875 35.453125 40.671875 41.109375 
Q 36.1875 45.609375 29.984375 45.609375 
z
" id="IPAexGothic-111"/>
      <path d="M 50.6875 0.984375 
L 40.28125 0.984375 
L 23.1875 25.203125 
L 17.484375 19.671875 
L 17.484375 0.984375 
L 9.078125 0.984375 
L 9.078125 74.90625 
L 17.484375 74.90625 
L 17.484375 27.59375 
L 38.484375 50.78125 
L 49.265625 50.78125 
L 28.5625 30.078125 
z
" id="IPAexGothic-107"/>
      <path id="IPAexGothic-32"/>
      <path d="M 51.078125 12.25 
Q 44.28125 -0.484375 29.6875 -0.484375 
Q 19.1875 -0.484375 12.3125 6.390625 
Q 4.890625 13.921875 4.890625 25.984375 
Q 4.890625 37.9375 12.3125 45.515625 
Q 19.09375 52.296875 29.390625 52.296875 
Q 43.953125 52.296875 50.09375 39.703125 
L 43.171875 36.078125 
Q 38.8125 45.3125 29.6875 45.3125 
Q 23.6875 45.3125 19.28125 40.921875 
Q 13.765625 35.40625 13.765625 25.78125 
Q 13.765625 16.703125 19.09375 11.375 
Q 23.78125 6.6875 30.5625 6.6875 
Q 39.796875 6.6875 44.484375 15.875 
z
" id="IPAexGothic-99"/>
      <path d="M 78.46875 0.984375 
L 69.875 0.984375 
L 69.875 32.171875 
Q 69.875 44.828125 60.109375 44.828125 
Q 55.46875 44.828125 51.609375 40.53125 
Q 48.875 37.453125 47.796875 32.859375 
L 47.796875 0.984375 
L 39.203125 0.984375 
L 39.203125 32.28125 
Q 39.203125 44.828125 29.984375 44.828125 
Q 25.09375 44.828125 21.390625 40.53125 
Q 17.390625 36.03125 17.390625 31.890625 
L 17.390625 0.984375 
L 8.796875 0.984375 
L 8.796875 50.78125 
L 16.796875 50.78125 
L 16.796875 42.1875 
Q 21.734375 51.8125 31.6875 51.8125 
Q 42.578125 51.8125 46.1875 41.359375 
Q 51.609375 51.8125 61.765625 51.8125 
Q 69.96875 51.8125 74.5625 46 
Q 78.46875 41.21875 78.46875 32.375 
z
" id="IPAexGothic-109"/>
      <path d="M 17.671875 0.984375 
L 9.078125 0.984375 
L 9.078125 74.90625 
L 17.671875 74.90625 
z
" id="IPAexGothic-108"/>
      <path d="M 33.203125 3.765625 
Q 27.640625 -0.09375 21.828125 -0.09375 
Q 10.203125 -0.09375 10.203125 12.984375 
L 10.203125 44.671875 
L 3.421875 44.671875 
L 3.421875 50.78125 
L 10.203125 50.78125 
L 10.203125 61.96875 
L 18.40625 66.0625 
L 18.40625 50.78125 
L 32.234375 50.78125 
L 32.234375 44.671875 
L 18.40625 44.671875 
L 18.40625 14.15625 
Q 18.40625 6.5 23.640625 6.5 
Q 27.15625 6.5 30.328125 9.1875 
z
" id="IPAexGothic-116"/>
      <path d="M 18.40625 61.375 
L 8.59375 61.375 
L 8.59375 71.390625 
L 18.40625 71.390625 
z
M 17.78125 0.984375 
L 9.1875 0.984375 
L 9.1875 50.78125 
L 17.78125 50.78125 
z
" id="IPAexGothic-105"/>
      <path d="M 48.484375 50.78125 
L 27.296875 0.09375 
L 21.484375 0.09375 
L 0.390625 50.78125 
L 9.8125 50.78125 
L 20.90625 21.6875 
L 23.78125 13.1875 
L 24.515625 10.984375 
L 24.8125 10.984375 
Q 25.640625 13.8125 28.46875 21.6875 
L 39.3125 50.78125 
z
" id="IPAexGothic-118"/>
      <path d="M 38.375 72.21875 
L 34.8125 66.3125 
Q 31.109375 69.09375 27.203125 69.09375 
Q 18.5 69.09375 18.5 57.375 
L 18.5 50.78125 
L 32.078125 50.78125 
L 32.078125 44.671875 
L 18.5 44.671875 
L 18.5 0.984375 
L 10.015625 0.984375 
L 10.015625 44.671875 
L 1.90625 44.671875 
L 1.90625 50.78125 
L 10.015625 50.78125 
L 10.015625 57.171875 
Q 10.015625 65.4375 13.921875 70.0625 
Q 18.75 75.6875 26.703125 75.6875 
Q 33.0625 75.6875 38.375 72.21875 
z
" id="IPAexGothic-102"/>
      <path d="M 52.984375 0.984375 
L 45.171875 0.984375 
L 45.171875 9.671875 
Q 38.140625 -0.484375 27.390625 -0.484375 
Q 18.453125 -0.484375 12.3125 5.8125 
Q 4.890625 13.1875 4.890625 25.984375 
Q 4.890625 38.53125 12.0625 45.90625 
Q 18.265625 52.203125 27.390625 52.203125 
Q 37.25 52.203125 44.484375 43.890625 
L 44.484375 74.90625 
L 52.984375 74.90625 
z
M 44.484375 20.359375 
L 44.484375 32.765625 
Q 44.484375 37.703125 38.375 42.28125 
Q 34.078125 45.40625 28.953125 45.40625 
Q 23.1875 45.40625 19.1875 41.40625 
Q 13.875 36.078125 13.875 26.21875 
Q 13.875 17.328125 18.265625 11.71875 
Q 22.515625 6.390625 28.859375 6.390625 
Q 36.28125 6.390625 41.5 13.671875 
Q 44.484375 17.71875 44.484375 20.359375 
z
" id="IPAexGothic-100"/>
     </defs>
     <g transform="translate(76.39375 34.695062)scale(0.1 -0.1)">
      <use xlink:href="#IPAexGothic-84"/>
      <use x="59.912109" xlink:href="#IPAexGothic-111"/>
      <use x="120.3125" xlink:href="#IPAexGothic-107"/>
      <use x="172.119141" xlink:href="#IPAexGothic-121"/>
      <use x="221.337891" xlink:href="#IPAexGothic-111"/>
      <use x="281.738281" xlink:href="#IPAexGothic-32"/>
      <use x="308.740234" xlink:href="#IPAexGothic-99"/>
      <use x="363.134766" xlink:href="#IPAexGothic-117"/>
      <use x="423.535156" xlink:href="#IPAexGothic-109"/>
      <use x="510.644531" xlink:href="#IPAexGothic-117"/>
      <use x="571.044922" xlink:href="#IPAexGothic-108"/>
      <use x="598.046875" xlink:href="#IPAexGothic-97"/>
      <use x="653.027344" xlink:href="#IPAexGothic-116"/>
      <use x="687.646484" xlink:href="#IPAexGothic-105"/>
      <use x="714.648438" xlink:href="#IPAexGothic-118"/>
      <use x="763.232422" xlink:href="#IPAexGothic-101"/>
      <use x="820.117188" xlink:href="#IPAexGothic-32"/>
      <use x="847.119141" xlink:href="#IPAexGothic-99"/>
      <use x="901.513672" xlink:href="#IPAexGothic-111"/>
      <use x="961.914062" xlink:href="#IPAexGothic-110"/>
      <use x="1022.314453" xlink:href="#IPAexGothic-102"/>
      <use x="1052.929688" xlink:href="#IPAexGothic-105"/>
      <use x="1079.931641" xlink:href="#IPAexGothic-114"/>
      <use x="1116.943359" xlink:href="#IPAexGothic-109"/>
      <use x="1204.052734" xlink:href="#IPAexGothic-101"/>
      <use x="1260.9375" xlink:href="#IPAexGothic-100"/>
     </g>
    </g>
   </g>
  </g>
  <g id="text_14">
   <!-- generated: 2020-06-18 17:56:51 JST -->
   <defs>
    <path d="M 20.796875 17.96875 
Q 15.71875 17.53125 15.71875 14.0625 
Q 15.71875 9.578125 27.546875 8.984375 
L 33.296875 8.6875 
Q 51.609375 7.765625 51.609375 -4.59375 
Q 51.609375 -10.9375 45.703125 -14.984375 
Q 39.359375 -19.578125 28.03125 -19.578125 
Q 17.78125 -19.578125 11.53125 -16.0625 
Q 5.515625 -12.640625 5.515625 -6.6875 
Q 5.515625 1.3125 16.796875 3.859375 
L 16.796875 4.203125 
Q 7.90625 6.453125 7.90625 12.15625 
Q 7.90625 17.4375 15.53125 20.265625 
Q 7.125 24.609375 7.125 34.078125 
Q 7.125 41.40625 12.015625 46.296875 
Q 17.625 51.90625 27.15625 51.90625 
Q 33.203125 51.90625 37.84375 49.265625 
Q 41.40625 53.953125 50.921875 54.109375 
L 50.921875 47.078125 
Q 44.34375 46.921875 42.234375 45.90625 
Q 47.40625 40.828125 47.40625 33.890625 
Q 47.40625 27 42.71875 22.265625 
Q 37.5 17.09375 28.328125 17.09375 
Q 24.421875 17.09375 20.796875 17.96875 
z
M 27.09375 45.609375 
Q 22.015625 45.609375 18.703125 42.28125 
Q 15.4375 39.015625 15.4375 34.078125 
Q 15.4375 29.25 18.5 26.3125 
Q 21.828125 23 27.4375 23 
Q 32.71875 23 35.890625 26.21875 
Q 39.109375 29.390625 39.109375 34.421875 
Q 39.109375 39.015625 35.890625 42.1875 
Q 32.515625 45.609375 27.09375 45.609375 
z
M 27.390625 2.484375 
Q 14.109375 2.484375 14.109375 -5.71875 
Q 14.109375 -13.671875 28.125 -13.671875 
Q 37.15625 -13.671875 41.21875 -9.46875 
Q 43.3125 -7.515625 43.3125 -4.890625 
Q 43.3125 2.484375 27.390625 2.484375 
z
" id="IPAexGothic-103"/>
    <path d="M 21.390625 39.984375 
L 10.5 39.984375 
L 10.5 50.78125 
L 21.390625 50.78125 
z
M 21.390625 0.984375 
L 10.5 0.984375 
L 10.5 11.765625 
L 21.390625 11.765625 
z
" id="IPAexGothic-58"/>
    <path d="M 30.765625 26.609375 
L 4.984375 26.609375 
L 4.984375 34.421875 
L 30.765625 34.421875 
z
" id="IPAexGothic-45"/>
    <path d="M 16.5 36.375 
Q 23.578125 46.578125 34.90625 46.578125 
Q 45.40625 46.578125 51.8125 39.265625 
Q 57.421875 32.90625 57.421875 23.78125 
Q 57.421875 13.8125 51.125 6.78125 
Q 44.578125 -0.484375 34.03125 -0.484375 
Q 21.484375 -0.484375 14.40625 9.078125 
Q 7.515625 18.40625 7.515625 34.8125 
Q 7.515625 53.515625 15.828125 64.203125 
Q 23.34375 73.828125 35.5 73.828125 
Q 49.859375 73.828125 56.390625 62.890625 
L 49.21875 58.984375 
Q 45.21875 66.65625 35.9375 66.65625 
Q 17.484375 66.65625 16.109375 36.375 
z
M 33.453125 39.796875 
Q 26.3125 39.796875 21.625 34.46875 
Q 17.4375 29.6875 17.4375 24.078125 
Q 17.4375 18.0625 21.140625 13.1875 
Q 26.125 6.6875 33.734375 6.6875 
Q 41.703125 6.6875 45.953125 13.1875 
Q 48.828125 17.625 48.828125 23.484375 
Q 48.828125 30.375 45.015625 34.8125 
Q 40.625 39.796875 33.453125 39.796875 
z
" id="IPAexGothic-54"/>
    <path d="M 39.703125 37.890625 
Q 57.8125 31.734375 57.8125 18.703125 
Q 57.8125 8.453125 48.4375 3.078125 
Q 41.609375 -0.875 31.5 -0.875 
Q 21.34375 -0.875 14.5 3.078125 
Q 5.421875 8.296875 5.421875 18.40625 
Q 5.421875 31.0625 22.015625 37.203125 
L 22.015625 37.5 
Q 7.515625 42.71875 7.515625 54.828125 
Q 7.515625 64.0625 15.328125 69.625 
Q 21.96875 74.3125 31.546875 74.3125 
Q 42.234375 74.3125 48.921875 68.796875 
Q 55.515625 63.578125 55.515625 55.71875 
Q 55.515625 42.28125 39.703125 38.1875 
z
M 31.59375 41.015625 
Q 46.828125 44.625 46.828125 55.125 
Q 46.828125 61.1875 41.796875 64.84375 
Q 37.703125 67.921875 31.5 67.921875 
Q 25.09375 67.921875 20.796875 64.5 
Q 16.40625 60.890625 16.40625 55.03125 
Q 16.40625 49.21875 21.09375 45.703125 
Q 23.34375 43.890625 26.90625 42.53125 
Q 31 40.875 31.59375 41.015625 
z
M 30.90625 34.515625 
Q 14.40625 30.171875 14.40625 19 
Q 14.40625 12.109375 20.515625 8.6875 
Q 25.09375 6.109375 31.390625 6.109375 
Q 40.234375 6.109375 45.015625 10.890625 
Q 48.53125 14.40625 48.53125 19.53125 
Q 48.53125 24.90625 43.65625 28.90625 
Q 40.765625 31.15625 36.71875 32.8125 
Q 31.984375 34.71875 30.90625 34.515625 
z
" id="IPAexGothic-56"/>
    <path d="M 56.203125 66.609375 
Q 34.96875 32.90625 27.78125 0.984375 
L 17.671875 0.984375 
Q 24.703125 28.65625 46.09375 64.5 
L 6.6875 64.5 
L 6.6875 72.40625 
L 56.203125 72.40625 
z
" id="IPAexGothic-55"/>
    <path d="M 45.609375 56.890625 
Q 40.046875 66.546875 28.953125 66.546875 
Q 22.703125 66.546875 18.953125 62.640625 
Q 16.0625 59.421875 16.0625 55.21875 
Q 16.0625 50.59375 19.78125 47.609375 
Q 22.5625 45.515625 31 42 
L 34.375 40.578125 
Q 45.703125 36.03125 49.859375 30.515625 
Q 53.46875 25.6875 53.46875 19.671875 
Q 53.46875 10.0625 46.390625 4.5 
Q 39.984375 -0.484375 30.171875 -0.484375 
Q 13.765625 -0.484375 4.890625 11.96875 
L 11.765625 17.1875 
Q 18.796875 7.171875 30.28125 7.171875 
Q 35.75 7.171875 39.59375 9.765625 
Q 44.390625 13.234375 44.390625 19 
Q 44.390625 23.484375 40.875 27 
Q 37.109375 30.609375 27 34.46875 
L 24.078125 35.59375 
Q 7.078125 42.09375 7.078125 54.390625 
Q 7.078125 62.59375 12.59375 67.921875 
Q 18.796875 73.828125 29.109375 73.828125 
Q 44.390625 73.828125 52.484375 61.8125 
z
" id="IPAexGothic-83"/>
   </defs>
   <g transform="translate(220.279375 14.690625)scale(0.1 -0.1)">
    <use xlink:href="#IPAexGothic-103"/>
    <use x="55.517578" xlink:href="#IPAexGothic-101"/>
    <use x="112.402344" xlink:href="#IPAexGothic-110"/>
    <use x="172.802734" xlink:href="#IPAexGothic-101"/>
    <use x="229.6875" xlink:href="#IPAexGothic-114"/>
    <use x="266.699219" xlink:href="#IPAexGothic-97"/>
    <use x="321.679688" xlink:href="#IPAexGothic-116"/>
    <use x="356.298828" xlink:href="#IPAexGothic-101"/>
    <use x="413.183594" xlink:href="#IPAexGothic-100"/>
    <use x="475.585938" xlink:href="#IPAexGothic-58"/>
    <use x="507.568359" xlink:href="#IPAexGothic-32"/>
    <use x="534.570312" xlink:href="#IPAexGothic-50"/>
    <use x="597.558594" xlink:href="#IPAexGothic-48"/>
    <use x="660.546875" xlink:href="#IPAexGothic-50"/>
    <use x="723.535156" xlink:href="#IPAexGothic-48"/>
    <use x="786.523438" xlink:href="#IPAexGothic-45"/>
    <use x="822.314453" xlink:href="#IPAexGothic-48"/>
    <use x="885.302734" xlink:href="#IPAexGothic-54"/>
    <use x="948.291016" xlink:href="#IPAexGothic-45"/>
    <use x="984.082031" xlink:href="#IPAexGothic-49"/>
    <use x="1047.070312" xlink:href="#IPAexGothic-56"/>
    <use x="1110.058594" xlink:href="#IPAexGothic-32"/>
    <use x="1137.060547" xlink:href="#IPAexGothic-49"/>
    <use x="1200.048828" xlink:href="#IPAexGothic-55"/>
    <use x="1263.037109" xlink:href="#IPAexGothic-58"/>
    <use x="1295.019531" xlink:href="#IPAexGothic-53"/>
    <use x="1358.007812" xlink:href="#IPAexGothic-54"/>
    <use x="1420.996094" xlink:href="#IPAexGothic-58"/>
    <use x="1452.978516" xlink:href="#IPAexGothic-53"/>
    <use x="1515.966797" xlink:href="#IPAexGothic-49"/>
    <use x="1578.955078" xlink:href="#IPAexGothic-32"/>
    <use x="1605.957031" xlink:href="#IPAexGothic-74"/>
    <use x="1643.945312" xlink:href="#IPAexGothic-83"/>
    <use x="1702.441406" xlink:href="#IPAexGothic-84"/>
   </g>
  </g>
 </g>
 <defs>
  <clipPath id="pd025ec08bd">
   <rect height="266.112" width="357.12" x="39.39375" y="18.146625"/>
  </clipPath>
 </defs>
</svg>
