<?xml version="1.0" encoding="utf-8" standalone="no"?>
<!DOCTYPE svg PUBLIC "-//W3C//DTD SVG 1.1//EN"
  "http://www.w3.org/Graphics/SVG/1.1/DTD/svg11.dtd">
<!-- Created with matplotlib (https://matplotlib.org/) -->
<svg height="320.239875pt" version="1.1" viewBox="0 0 403.71375 320.239875" width="403.71375pt" xmlns="http://www.w3.org/2000/svg" xmlns:xlink="http://www.w3.org/1999/xlink">
 <defs>
  <style type="text/css">
*{stroke-linecap:butt;stroke-linejoin:round;}
  </style>
 </defs>
 <g id="figure_1">
  <g id="patch_1">
   <path d="M 0 320.239875 
L 403.71375 320.239875 
L 403.71375 0 
L 0 0 
z
" style="fill:#ffffff;"/>
  </g>
  <g id="axes_1">
   <g id="patch_2">
    <path d="M 39.39375 284.258625 
L 396.51375 284.258625 
L 396.51375 18.146625 
L 39.39375 18.146625 
z
" style="fill:#ffffff;"/>
   </g>
   <g id="line2d_1">
    <path clip-path="url(#pf9fe725970)" d="M 39.39375 30.818625 
L 396.51375 30.818625 
" style="fill:none;stroke:#808080;stroke-dasharray:5.55,2.4;stroke-dashoffset:0;stroke-width:1.5;"/>
   </g>
   <g id="line2d_2">
    <path clip-path="url(#pf9fe725970)" d="M 39.39375 157.538625 
L 396.51375 157.538625 
" style="fill:none;stroke:#808080;stroke-dasharray:5.55,2.4;stroke-dashoffset:0;stroke-width:1.5;"/>
   </g>
   <g id="patch_3">
    <path clip-path="url(#pf9fe725970)" d="M 55.626477 284.258625 
L 57.272381 284.258625 
L 57.272381 284.217562 
L 55.626477 284.217562 
z
" style="fill:#1f77b4;"/>
   </g>
   <g id="patch_4">
    <path clip-path="url(#pf9fe725970)" d="M 57.683857 284.258625 
L 59.329761 284.258625 
L 59.329761 284.176499 
L 57.683857 284.176499 
z
" style="fill:#1f77b4;"/>
   </g>
   <g id="patch_5">
    <path clip-path="url(#pf9fe725970)" d="M 59.741237 284.258625 
L 61.387141 284.258625 
L 61.387141 284.176499 
L 59.741237 284.176499 
z
" style="fill:#1f77b4;"/>
   </g>
   <g id="patch_6">
    <path clip-path="url(#pf9fe725970)" d="M 61.798617 284.258625 
L 63.444521 284.258625 
L 63.444521 284.176499 
L 61.798617 284.176499 
z
" style="fill:#1f77b4;"/>
   </g>
   <g id="patch_7">
    <path clip-path="url(#pf9fe725970)" d="M 63.855997 284.258625 
L 65.501901 284.258625 
L 65.501901 284.176499 
L 63.855997 284.176499 
z
" style="fill:#1f77b4;"/>
   </g>
   <g id="patch_8">
    <path clip-path="url(#pf9fe725970)" d="M 65.913377 284.258625 
L 67.559281 284.258625 
L 67.559281 284.176499 
L 65.913377 284.176499 
z
" style="fill:#1f77b4;"/>
   </g>
   <g id="patch_9">
    <path clip-path="url(#pf9fe725970)" d="M 67.970757 284.258625 
L 69.61666 284.258625 
L 69.61666 284.135436 
L 67.970757 284.135436 
z
" style="fill:#1f77b4;"/>
   </g>
   <g id="patch_10">
    <path clip-path="url(#pf9fe725970)" d="M 70.028136 284.258625 
L 71.67404 284.258625 
L 71.67404 284.135436 
L 70.028136 284.135436 
z
" style="fill:#1f77b4;"/>
   </g>
   <g id="patch_11">
    <path clip-path="url(#pf9fe725970)" d="M 72.085516 284.258625 
L 73.73142 284.258625 
L 73.73142 284.135436 
L 72.085516 284.135436 
z
" style="fill:#1f77b4;"/>
   </g>
   <g id="patch_12">
    <path clip-path="url(#pf9fe725970)" d="M 74.142896 284.258625 
L 75.7888 284.258625 
L 75.7888 284.135436 
L 74.142896 284.135436 
z
" style="fill:#1f77b4;"/>
   </g>
   <g id="patch_13">
    <path clip-path="url(#pf9fe725970)" d="M 76.200276 284.258625 
L 77.84618 284.258625 
L 77.84618 284.135436 
L 76.200276 284.135436 
z
" style="fill:#1f77b4;"/>
   </g>
   <g id="patch_14">
    <path clip-path="url(#pf9fe725970)" d="M 78.257656 284.258625 
L 79.90356 284.258625 
L 79.90356 284.135436 
L 78.257656 284.135436 
z
" style="fill:#1f77b4;"/>
   </g>
   <g id="patch_15">
    <path clip-path="url(#pf9fe725970)" d="M 80.315036 284.258625 
L 81.96094 284.258625 
L 81.96094 284.135436 
L 80.315036 284.135436 
z
" style="fill:#1f77b4;"/>
   </g>
   <g id="patch_16">
    <path clip-path="url(#pf9fe725970)" d="M 82.372416 284.258625 
L 84.01832 284.258625 
L 84.01832 284.135436 
L 82.372416 284.135436 
z
" style="fill:#1f77b4;"/>
   </g>
   <g id="patch_17">
    <path clip-path="url(#pf9fe725970)" d="M 84.429796 284.258625 
L 86.0757 284.258625 
L 86.0757 284.135436 
L 84.429796 284.135436 
z
" style="fill:#1f77b4;"/>
   </g>
   <g id="patch_18">
    <path clip-path="url(#pf9fe725970)" d="M 86.487176 284.258625 
L 88.133079 284.258625 
L 88.133079 284.135436 
L 86.487176 284.135436 
z
" style="fill:#1f77b4;"/>
   </g>
   <g id="patch_19">
    <path clip-path="url(#pf9fe725970)" d="M 88.544555 284.258625 
L 90.190459 284.258625 
L 90.190459 284.135436 
L 88.544555 284.135436 
z
" style="fill:#1f77b4;"/>
   </g>
   <g id="patch_20">
    <path clip-path="url(#pf9fe725970)" d="M 90.601935 284.258625 
L 92.247839 284.258625 
L 92.247839 284.135436 
L 90.601935 284.135436 
z
" style="fill:#1f77b4;"/>
   </g>
   <g id="patch_21">
    <path clip-path="url(#pf9fe725970)" d="M 92.659315 284.258625 
L 94.305219 284.258625 
L 94.305219 284.135436 
L 92.659315 284.135436 
z
" style="fill:#1f77b4;"/>
   </g>
   <g id="patch_22">
    <path clip-path="url(#pf9fe725970)" d="M 94.716695 284.258625 
L 96.362599 284.258625 
L 96.362599 284.135436 
L 94.716695 284.135436 
z
" style="fill:#1f77b4;"/>
   </g>
   <g id="patch_23">
    <path clip-path="url(#pf9fe725970)" d="M 96.774075 284.258625 
L 98.419979 284.258625 
L 98.419979 284.094374 
L 96.774075 284.094374 
z
" style="fill:#1f77b4;"/>
   </g>
   <g id="patch_24">
    <path clip-path="url(#pf9fe725970)" d="M 98.831455 284.258625 
L 100.477359 284.258625 
L 100.477359 284.012248 
L 98.831455 284.012248 
z
" style="fill:#1f77b4;"/>
   </g>
   <g id="patch_25">
    <path clip-path="url(#pf9fe725970)" d="M 100.888835 284.258625 
L 102.534739 284.258625 
L 102.534739 283.683745 
L 100.888835 283.683745 
z
" style="fill:#1f77b4;"/>
   </g>
   <g id="patch_26">
    <path clip-path="url(#pf9fe725970)" d="M 102.946215 284.258625 
L 104.592118 284.258625 
L 104.592118 283.478431 
L 102.946215 283.478431 
z
" style="fill:#1f77b4;"/>
   </g>
   <g id="patch_27">
    <path clip-path="url(#pf9fe725970)" d="M 105.003594 284.258625 
L 106.649498 284.258625 
L 106.649498 283.478431 
L 105.003594 283.478431 
z
" style="fill:#1f77b4;"/>
   </g>
   <g id="patch_28">
    <path clip-path="url(#pf9fe725970)" d="M 107.060974 284.258625 
L 108.706878 284.258625 
L 108.706878 283.355242 
L 107.060974 283.355242 
z
" style="fill:#1f77b4;"/>
   </g>
   <g id="patch_29">
    <path clip-path="url(#pf9fe725970)" d="M 109.118354 284.258625 
L 110.764258 284.258625 
L 110.764258 283.232053 
L 109.118354 283.232053 
z
" style="fill:#1f77b4;"/>
   </g>
   <g id="patch_30">
    <path clip-path="url(#pf9fe725970)" d="M 111.175734 284.258625 
L 112.821638 284.258625 
L 112.821638 283.232053 
L 111.175734 283.232053 
z
" style="fill:#1f77b4;"/>
   </g>
   <g id="patch_31">
    <path clip-path="url(#pf9fe725970)" d="M 113.233114 284.258625 
L 114.879018 284.258625 
L 114.879018 283.108865 
L 113.233114 283.108865 
z
" style="fill:#1f77b4;"/>
   </g>
   <g id="patch_32">
    <path clip-path="url(#pf9fe725970)" d="M 115.290494 284.258625 
L 116.936398 284.258625 
L 116.936398 283.067802 
L 115.290494 283.067802 
z
" style="fill:#1f77b4;"/>
   </g>
   <g id="patch_33">
    <path clip-path="url(#pf9fe725970)" d="M 117.347874 284.258625 
L 118.993778 284.258625 
L 118.993778 283.067802 
L 117.347874 283.067802 
z
" style="fill:#1f77b4;"/>
   </g>
   <g id="patch_34">
    <path clip-path="url(#pf9fe725970)" d="M 119.405254 284.258625 
L 121.051158 284.258625 
L 121.051158 282.944613 
L 119.405254 282.944613 
z
" style="fill:#1f77b4;"/>
   </g>
   <g id="patch_35">
    <path clip-path="url(#pf9fe725970)" d="M 121.462634 284.258625 
L 123.108537 284.258625 
L 123.108537 282.944613 
L 121.462634 282.944613 
z
" style="fill:#1f77b4;"/>
   </g>
   <g id="patch_36">
    <path clip-path="url(#pf9fe725970)" d="M 123.520013 284.258625 
L 125.165917 284.258625 
L 125.165917 282.821425 
L 123.520013 282.821425 
z
" style="fill:#1f77b4;"/>
   </g>
   <g id="patch_37">
    <path clip-path="url(#pf9fe725970)" d="M 125.577393 284.258625 
L 127.223297 284.258625 
L 127.223297 282.780362 
L 125.577393 282.780362 
z
" style="fill:#1f77b4;"/>
   </g>
   <g id="patch_38">
    <path clip-path="url(#pf9fe725970)" d="M 127.634773 284.258625 
L 129.280677 284.258625 
L 129.280677 282.780362 
L 127.634773 282.780362 
z
" style="fill:#1f77b4;"/>
   </g>
   <g id="patch_39">
    <path clip-path="url(#pf9fe725970)" d="M 129.692153 284.258625 
L 131.338057 284.258625 
L 131.338057 282.739299 
L 129.692153 282.739299 
z
" style="fill:#1f77b4;"/>
   </g>
   <g id="patch_40">
    <path clip-path="url(#pf9fe725970)" d="M 131.749533 284.258625 
L 133.395437 284.258625 
L 133.395437 282.657173 
L 131.749533 282.657173 
z
" style="fill:#1f77b4;"/>
   </g>
   <g id="patch_41">
    <path clip-path="url(#pf9fe725970)" d="M 133.806913 284.258625 
L 135.452817 284.258625 
L 135.452817 282.657173 
L 133.806913 282.657173 
z
" style="fill:#1f77b4;"/>
   </g>
   <g id="patch_42">
    <path clip-path="url(#pf9fe725970)" d="M 135.864293 284.258625 
L 137.510197 284.258625 
L 137.510197 282.61611 
L 135.864293 282.61611 
z
" style="fill:#1f77b4;"/>
   </g>
   <g id="patch_43">
    <path clip-path="url(#pf9fe725970)" d="M 137.921673 284.258625 
L 139.567576 284.258625 
L 139.567576 282.451859 
L 137.921673 282.451859 
z
" style="fill:#1f77b4;"/>
   </g>
   <g id="patch_44">
    <path clip-path="url(#pf9fe725970)" d="M 139.979052 284.258625 
L 141.624956 284.258625 
L 141.624956 282.123356 
L 139.979052 282.123356 
z
" style="fill:#1f77b4;"/>
   </g>
   <g id="patch_45">
    <path clip-path="url(#pf9fe725970)" d="M 142.036432 284.258625 
L 143.682336 284.258625 
L 143.682336 281.876979 
L 142.036432 281.876979 
z
" style="fill:#1f77b4;"/>
   </g>
   <g id="patch_46">
    <path clip-path="url(#pf9fe725970)" d="M 144.093812 284.258625 
L 145.739716 284.258625 
L 145.739716 281.630602 
L 144.093812 281.630602 
z
" style="fill:#1f77b4;"/>
   </g>
   <g id="patch_47">
    <path clip-path="url(#pf9fe725970)" d="M 146.151192 284.258625 
L 147.797096 284.258625 
L 147.797096 281.630602 
L 146.151192 281.630602 
z
" style="fill:#1f77b4;"/>
   </g>
   <g id="patch_48">
    <path clip-path="url(#pf9fe725970)" d="M 148.208572 284.258625 
L 149.854476 284.258625 
L 149.854476 281.630602 
L 148.208572 281.630602 
z
" style="fill:#1f77b4;"/>
   </g>
   <g id="patch_49">
    <path clip-path="url(#pf9fe725970)" d="M 150.265952 284.258625 
L 151.911856 284.258625 
L 151.911856 281.507413 
L 150.265952 281.507413 
z
" style="fill:#1f77b4;"/>
   </g>
   <g id="patch_50">
    <path clip-path="url(#pf9fe725970)" d="M 152.323332 284.258625 
L 153.969236 284.258625 
L 153.969236 281.261036 
L 152.323332 281.261036 
z
" style="fill:#1f77b4;"/>
   </g>
   <g id="patch_51">
    <path clip-path="url(#pf9fe725970)" d="M 154.380712 284.258625 
L 156.026616 284.258625 
L 156.026616 281.17891 
L 154.380712 281.17891 
z
" style="fill:#1f77b4;"/>
   </g>
   <g id="patch_52">
    <path clip-path="url(#pf9fe725970)" d="M 156.438092 284.258625 
L 158.083995 284.258625 
L 158.083995 281.096784 
L 156.438092 281.096784 
z
" style="fill:#1f77b4;"/>
   </g>
   <g id="patch_53">
    <path clip-path="url(#pf9fe725970)" d="M 158.495471 284.258625 
L 160.141375 284.258625 
L 160.141375 280.686156 
L 158.495471 280.686156 
z
" style="fill:#1f77b4;"/>
   </g>
   <g id="patch_54">
    <path clip-path="url(#pf9fe725970)" d="M 160.552851 284.258625 
L 162.198755 284.258625 
L 162.198755 280.562967 
L 160.552851 280.562967 
z
" style="fill:#1f77b4;"/>
   </g>
   <g id="patch_55">
    <path clip-path="url(#pf9fe725970)" d="M 162.610231 284.258625 
L 164.256135 284.258625 
L 164.256135 280.562967 
L 162.610231 280.562967 
z
" style="fill:#1f77b4;"/>
   </g>
   <g id="patch_56">
    <path clip-path="url(#pf9fe725970)" d="M 164.667611 284.258625 
L 166.313515 284.258625 
L 166.313515 280.070213 
L 164.667611 280.070213 
z
" style="fill:#1f77b4;"/>
   </g>
   <g id="patch_57">
    <path clip-path="url(#pf9fe725970)" d="M 166.724991 284.258625 
L 168.370895 284.258625 
L 168.370895 279.700647 
L 166.724991 279.700647 
z
" style="fill:#1f77b4;"/>
   </g>
   <g id="patch_58">
    <path clip-path="url(#pf9fe725970)" d="M 168.782371 284.258625 
L 170.428275 284.258625 
L 170.428275 279.413207 
L 168.782371 279.413207 
z
" style="fill:#1f77b4;"/>
   </g>
   <g id="patch_59">
    <path clip-path="url(#pf9fe725970)" d="M 170.839751 284.258625 
L 172.485655 284.258625 
L 172.485655 278.961515 
L 170.839751 278.961515 
z
" style="fill:#1f77b4;"/>
   </g>
   <g id="patch_60">
    <path clip-path="url(#pf9fe725970)" d="M 172.897131 284.258625 
L 174.543034 284.258625 
L 174.543034 278.674075 
L 172.897131 278.674075 
z
" style="fill:#1f77b4;"/>
   </g>
   <g id="patch_61">
    <path clip-path="url(#pf9fe725970)" d="M 174.95451 284.258625 
L 176.600414 284.258625 
L 176.600414 278.550887 
L 174.95451 278.550887 
z
" style="fill:#1f77b4;"/>
   </g>
   <g id="patch_62">
    <path clip-path="url(#pf9fe725970)" d="M 177.01189 284.258625 
L 178.657794 284.258625 
L 178.657794 277.893881 
L 177.01189 277.893881 
z
" style="fill:#1f77b4;"/>
   </g>
   <g id="patch_63">
    <path clip-path="url(#pf9fe725970)" d="M 179.06927 284.258625 
L 180.715174 284.258625 
L 180.715174 277.154749 
L 179.06927 277.154749 
z
" style="fill:#1f77b4;"/>
   </g>
   <g id="patch_64">
    <path clip-path="url(#pf9fe725970)" d="M 181.12665 284.258625 
L 182.772554 284.258625 
L 182.772554 275.471172 
L 181.12665 275.471172 
z
" style="fill:#1f77b4;"/>
   </g>
   <g id="patch_65">
    <path clip-path="url(#pf9fe725970)" d="M 183.18403 284.258625 
L 184.829934 284.258625 
L 184.829934 273.58228 
L 183.18403 273.58228 
z
" style="fill:#1f77b4;"/>
   </g>
   <g id="patch_66">
    <path clip-path="url(#pf9fe725970)" d="M 185.24141 284.258625 
L 186.887314 284.258625 
L 186.887314 271.939766 
L 185.24141 271.939766 
z
" style="fill:#1f77b4;"/>
   </g>
   <g id="patch_67">
    <path clip-path="url(#pf9fe725970)" d="M 187.29879 284.258625 
L 188.944694 284.258625 
L 188.944694 269.311742 
L 187.29879 269.311742 
z
" style="fill:#1f77b4;"/>
   </g>
   <g id="patch_68">
    <path clip-path="url(#pf9fe725970)" d="M 189.35617 284.258625 
L 191.002074 284.258625 
L 191.002074 266.355216 
L 189.35617 266.355216 
z
" style="fill:#1f77b4;"/>
   </g>
   <g id="patch_69">
    <path clip-path="url(#pf9fe725970)" d="M 191.41355 284.258625 
L 193.059453 284.258625 
L 193.059453 265.862462 
L 191.41355 265.862462 
z
" style="fill:#1f77b4;"/>
   </g>
   <g id="patch_70">
    <path clip-path="url(#pf9fe725970)" d="M 193.470929 284.258625 
L 195.116833 284.258625 
L 195.116833 262.659558 
L 193.470929 262.659558 
z
" style="fill:#1f77b4;"/>
   </g>
   <g id="patch_71">
    <path clip-path="url(#pf9fe725970)" d="M 195.528309 284.258625 
L 197.174213 284.258625 
L 197.174213 259.908346 
L 195.528309 259.908346 
z
" style="fill:#1f77b4;"/>
   </g>
   <g id="patch_72">
    <path clip-path="url(#pf9fe725970)" d="M 197.585689 284.258625 
L 199.231593 284.258625 
L 199.231593 255.884186 
L 197.585689 255.884186 
z
" style="fill:#1f77b4;"/>
   </g>
   <g id="patch_73">
    <path clip-path="url(#pf9fe725970)" d="M 199.643069 284.258625 
L 201.288973 284.258625 
L 201.288973 252.106402 
L 199.643069 252.106402 
z
" style="fill:#1f77b4;"/>
   </g>
   <g id="patch_74">
    <path clip-path="url(#pf9fe725970)" d="M 201.700449 284.258625 
L 203.346353 284.258625 
L 203.346353 247.260984 
L 201.700449 247.260984 
z
" style="fill:#1f77b4;"/>
   </g>
   <g id="patch_75">
    <path clip-path="url(#pf9fe725970)" d="M 203.757829 284.258625 
L 205.403733 284.258625 
L 205.403733 241.47112 
L 203.757829 241.47112 
z
" style="fill:#1f77b4;"/>
   </g>
   <g id="patch_76">
    <path clip-path="url(#pf9fe725970)" d="M 205.815209 284.258625 
L 207.461113 284.258625 
L 207.461113 237.980777 
L 205.815209 237.980777 
z
" style="fill:#1f77b4;"/>
   </g>
   <g id="patch_77">
    <path clip-path="url(#pf9fe725970)" d="M 207.872589 284.258625 
L 209.518492 284.258625 
L 209.518492 234.408307 
L 207.872589 234.408307 
z
" style="fill:#1f77b4;"/>
   </g>
   <g id="patch_78">
    <path clip-path="url(#pf9fe725970)" d="M 209.929968 284.258625 
L 211.575872 284.258625 
L 211.575872 228.002501 
L 209.929968 228.002501 
z
" style="fill:#1f77b4;"/>
   </g>
   <g id="patch_79">
    <path clip-path="url(#pf9fe725970)" d="M 211.987348 284.258625 
L 213.633252 284.258625 
L 213.633252 220.487996 
L 211.987348 220.487996 
z
" style="fill:#1f77b4;"/>
   </g>
   <g id="patch_80">
    <path clip-path="url(#pf9fe725970)" d="M 214.044728 284.258625 
L 215.690632 284.258625 
L 215.690632 212.316486 
L 214.044728 212.316486 
z
" style="fill:#1f77b4;"/>
   </g>
   <g id="patch_81">
    <path clip-path="url(#pf9fe725970)" d="M 216.102108 284.258625 
L 217.748012 284.258625 
L 217.748012 204.186039 
L 216.102108 204.186039 
z
" style="fill:#1f77b4;"/>
   </g>
   <g id="patch_82">
    <path clip-path="url(#pf9fe725970)" d="M 218.159488 284.258625 
L 219.805392 284.258625 
L 219.805392 197.041101 
L 218.159488 197.041101 
z
" style="fill:#1f77b4;"/>
   </g>
   <g id="patch_83">
    <path clip-path="url(#pf9fe725970)" d="M 220.216868 284.258625 
L 221.862772 284.258625 
L 221.862772 192.934814 
L 220.216868 192.934814 
z
" style="fill:#1f77b4;"/>
   </g>
   <g id="patch_84">
    <path clip-path="url(#pf9fe725970)" d="M 222.274248 284.258625 
L 223.920152 284.258625 
L 223.920152 186.405819 
L 222.274248 186.405819 
z
" style="fill:#1f77b4;"/>
   </g>
   <g id="patch_85">
    <path clip-path="url(#pf9fe725970)" d="M 224.331628 284.258625 
L 225.977532 284.258625 
L 225.977532 181.190835 
L 224.331628 181.190835 
z
" style="fill:#1f77b4;"/>
   </g>
   <g id="patch_86">
    <path clip-path="url(#pf9fe725970)" d="M 226.389008 284.258625 
L 228.034911 284.258625 
L 228.034911 174.990342 
L 226.389008 174.990342 
z
" style="fill:#1f77b4;"/>
   </g>
   <g id="patch_87">
    <path clip-path="url(#pf9fe725970)" d="M 228.446387 284.258625 
L 230.092291 284.258625 
L 230.092291 166.531392 
L 228.446387 166.531392 
z
" style="fill:#1f77b4;"/>
   </g>
   <g id="patch_88">
    <path clip-path="url(#pf9fe725970)" d="M 230.503767 284.258625 
L 232.149671 284.258625 
L 232.149671 158.8937 
L 230.503767 158.8937 
z
" style="fill:#1f77b4;"/>
   </g>
   <g id="patch_89">
    <path clip-path="url(#pf9fe725970)" d="M 232.561147 284.258625 
L 234.207051 284.258625 
L 234.207051 154.417847 
L 232.561147 154.417847 
z
" style="fill:#1f77b4;"/>
   </g>
   <g id="patch_90">
    <path clip-path="url(#pf9fe725970)" d="M 234.618527 284.258625 
L 236.264431 284.258625 
L 236.264431 150.270498 
L 234.618527 150.270498 
z
" style="fill:#1f77b4;"/>
   </g>
   <g id="patch_91">
    <path clip-path="url(#pf9fe725970)" d="M 236.675907 284.258625 
L 238.321811 284.258625 
L 238.321811 145.219766 
L 236.675907 145.219766 
z
" style="fill:#1f77b4;"/>
   </g>
   <g id="patch_92">
    <path clip-path="url(#pf9fe725970)" d="M 238.733287 284.258625 
L 240.379191 284.258625 
L 240.379191 140.169033 
L 238.733287 140.169033 
z
" style="fill:#1f77b4;"/>
   </g>
   <g id="patch_93">
    <path clip-path="url(#pf9fe725970)" d="M 240.790667 284.258625 
L 242.436571 284.258625 
L 242.436571 134.666609 
L 240.790667 134.666609 
z
" style="fill:#1f77b4;"/>
   </g>
   <g id="patch_94">
    <path clip-path="url(#pf9fe725970)" d="M 242.848047 284.258625 
L 244.49395 284.258625 
L 244.49395 127.685922 
L 242.848047 127.685922 
z
" style="fill:#1f77b4;"/>
   </g>
   <g id="patch_95">
    <path clip-path="url(#pf9fe725970)" d="M 244.905426 284.258625 
L 246.55133 284.258625 
L 246.55133 122.799442 
L 244.905426 122.799442 
z
" style="fill:#1f77b4;"/>
   </g>
   <g id="patch_96">
    <path clip-path="url(#pf9fe725970)" d="M 246.962806 284.258625 
L 248.60871 284.258625 
L 248.60871 119.432287 
L 246.962806 119.432287 
z
" style="fill:#1f77b4;"/>
   </g>
   <g id="patch_97">
    <path clip-path="url(#pf9fe725970)" d="M 249.020186 284.258625 
L 250.66609 284.258625 
L 250.66609 117.748709 
L 249.020186 117.748709 
z
" style="fill:#1f77b4;"/>
   </g>
   <g id="patch_98">
    <path clip-path="url(#pf9fe725970)" d="M 251.077566 284.258625 
L 252.72347 284.258625 
L 252.72347 113.108606 
L 251.077566 113.108606 
z
" style="fill:#1f77b4;"/>
   </g>
   <g id="patch_99">
    <path clip-path="url(#pf9fe725970)" d="M 253.134946 284.258625 
L 254.78085 284.258625 
L 254.78085 111.178651 
L 253.134946 111.178651 
z
" style="fill:#1f77b4;"/>
   </g>
   <g id="patch_100">
    <path clip-path="url(#pf9fe725970)" d="M 255.192326 284.258625 
L 256.83823 284.258625 
L 256.83823 108.755942 
L 255.192326 108.755942 
z
" style="fill:#1f77b4;"/>
   </g>
   <g id="patch_101">
    <path clip-path="url(#pf9fe725970)" d="M 257.249706 284.258625 
L 258.89561 284.258625 
L 258.89561 101.980569 
L 257.249706 101.980569 
z
" style="fill:#1f77b4;"/>
   </g>
   <g id="patch_102">
    <path clip-path="url(#pf9fe725970)" d="M 259.307086 284.258625 
L 260.95299 284.258625 
L 260.95299 95.656888 
L 259.307086 95.656888 
z
" style="fill:#1f77b4;"/>
   </g>
   <g id="patch_103">
    <path clip-path="url(#pf9fe725970)" d="M 261.364466 284.258625 
L 263.010369 284.258625 
L 263.010369 91.838042 
L 261.364466 91.838042 
z
" style="fill:#1f77b4;"/>
   </g>
   <g id="patch_104">
    <path clip-path="url(#pf9fe725970)" d="M 263.421845 284.258625 
L 265.067749 284.258625 
L 265.067749 88.265573 
L 263.421845 88.265573 
z
" style="fill:#1f77b4;"/>
   </g>
   <g id="patch_105">
    <path clip-path="url(#pf9fe725970)" d="M 265.479225 284.258625 
L 267.125129 284.258625 
L 267.125129 85.924989 
L 265.479225 85.924989 
z
" style="fill:#1f77b4;"/>
   </g>
   <g id="patch_106">
    <path clip-path="url(#pf9fe725970)" d="M 267.536605 284.258625 
L 269.182509 284.258625 
L 269.182509 84.405663 
L 267.536605 84.405663 
z
" style="fill:#1f77b4;"/>
   </g>
   <g id="patch_107">
    <path clip-path="url(#pf9fe725970)" d="M 269.593985 284.258625 
L 271.239889 284.258625 
L 271.239889 83.461217 
L 269.593985 83.461217 
z
" style="fill:#1f77b4;"/>
   </g>
   <g id="patch_108">
    <path clip-path="url(#pf9fe725970)" d="M 271.651365 284.258625 
L 273.297269 284.258625 
L 273.297269 81.859766 
L 271.651365 81.859766 
z
" style="fill:#1f77b4;"/>
   </g>
   <g id="patch_109">
    <path clip-path="url(#pf9fe725970)" d="M 273.708745 284.258625 
L 275.354649 284.258625 
L 275.354649 80.381503 
L 273.708745 80.381503 
z
" style="fill:#1f77b4;"/>
   </g>
   <g id="patch_110">
    <path clip-path="url(#pf9fe725970)" d="M 275.766125 284.258625 
L 277.412029 284.258625 
L 277.412029 79.478119 
L 275.766125 79.478119 
z
" style="fill:#1f77b4;"/>
   </g>
   <g id="patch_111">
    <path clip-path="url(#pf9fe725970)" d="M 277.823505 284.258625 
L 279.469408 284.258625 
L 279.469408 78.862177 
L 277.823505 78.862177 
z
" style="fill:#1f77b4;"/>
   </g>
   <g id="patch_112">
    <path clip-path="url(#pf9fe725970)" d="M 279.880884 284.258625 
L 281.526788 284.258625 
L 281.526788 77.753479 
L 279.880884 77.753479 
z
" style="fill:#1f77b4;"/>
   </g>
   <g id="patch_113">
    <path clip-path="url(#pf9fe725970)" d="M 281.938264 284.258625 
L 283.584168 284.258625 
L 283.584168 77.342851 
L 281.938264 77.342851 
z
" style="fill:#1f77b4;"/>
   </g>
   <g id="patch_114">
    <path clip-path="url(#pf9fe725970)" d="M 283.995644 284.258625 
L 285.641548 284.258625 
L 285.641548 76.110965 
L 283.995644 76.110965 
z
" style="fill:#1f77b4;"/>
   </g>
   <g id="patch_115">
    <path clip-path="url(#pf9fe725970)" d="M 286.053024 284.258625 
L 287.698928 284.258625 
L 287.698928 75.741399 
L 286.053024 75.741399 
z
" style="fill:#1f77b4;"/>
   </g>
   <g id="patch_116">
    <path clip-path="url(#pf9fe725970)" d="M 288.110404 284.258625 
L 289.756308 284.258625 
L 289.756308 75.166519 
L 288.110404 75.166519 
z
" style="fill:#1f77b4;"/>
   </g>
   <g id="patch_117">
    <path clip-path="url(#pf9fe725970)" d="M 290.167784 284.258625 
L 291.813688 284.258625 
L 291.813688 74.961204 
L 290.167784 74.961204 
z
" style="fill:#1f77b4;"/>
   </g>
   <g id="patch_118">
    <path clip-path="url(#pf9fe725970)" d="M 292.225164 284.258625 
L 293.871068 284.258625 
L 293.871068 74.550576 
L 292.225164 74.550576 
z
" style="fill:#1f77b4;"/>
   </g>
   <g id="patch_119">
    <path clip-path="url(#pf9fe725970)" d="M 294.282544 284.258625 
L 295.928448 284.258625 
L 295.928448 74.345261 
L 294.282544 74.345261 
z
" style="fill:#1f77b4;"/>
   </g>
   <g id="patch_120">
    <path clip-path="url(#pf9fe725970)" d="M 296.339924 284.258625 
L 297.985827 284.258625 
L 297.985827 74.139947 
L 296.339924 74.139947 
z
" style="fill:#1f77b4;"/>
   </g>
   <g id="patch_121">
    <path clip-path="url(#pf9fe725970)" d="M 298.397303 284.258625 
L 300.043207 284.258625 
L 300.043207 73.688256 
L 298.397303 73.688256 
z
" style="fill:#1f77b4;"/>
   </g>
   <g id="patch_122">
    <path clip-path="url(#pf9fe725970)" d="M 300.454683 284.258625 
L 302.100587 284.258625 
L 302.100587 73.565067 
L 300.454683 73.565067 
z
" style="fill:#1f77b4;"/>
   </g>
   <g id="patch_123">
    <path clip-path="url(#pf9fe725970)" d="M 302.512063 284.258625 
L 304.157967 284.258625 
L 304.157967 73.482941 
L 302.512063 73.482941 
z
" style="fill:#1f77b4;"/>
   </g>
   <g id="patch_124">
    <path clip-path="url(#pf9fe725970)" d="M 304.569443 284.258625 
L 306.215347 284.258625 
L 306.215347 72.908061 
L 304.569443 72.908061 
z
" style="fill:#1f77b4;"/>
   </g>
   <g id="patch_125">
    <path clip-path="url(#pf9fe725970)" d="M 306.626823 284.258625 
L 308.272727 284.258625 
L 308.272727 72.579558 
L 306.626823 72.579558 
z
" style="fill:#1f77b4;"/>
   </g>
   <g id="patch_126">
    <path clip-path="url(#pf9fe725970)" d="M 308.684203 284.258625 
L 310.330107 284.258625 
L 310.330107 72.16893 
L 308.684203 72.16893 
z
" style="fill:#1f77b4;"/>
   </g>
   <g id="patch_127">
    <path clip-path="url(#pf9fe725970)" d="M 310.741583 284.258625 
L 312.387487 284.258625 
L 312.387487 71.717238 
L 310.741583 71.717238 
z
" style="fill:#1f77b4;"/>
   </g>
   <g id="patch_128">
    <path clip-path="url(#pf9fe725970)" d="M 312.798963 284.258625 
L 314.444866 284.258625 
L 314.444866 71.101295 
L 312.798963 71.101295 
z
" style="fill:#1f77b4;"/>
   </g>
   <g id="patch_129">
    <path clip-path="url(#pf9fe725970)" d="M 314.856342 284.258625 
L 316.502246 284.258625 
L 316.502246 70.238975 
L 314.856342 70.238975 
z
" style="fill:#1f77b4;"/>
   </g>
   <g id="patch_130">
    <path clip-path="url(#pf9fe725970)" d="M 316.913722 284.258625 
L 318.559626 284.258625 
L 318.559626 69.664095 
L 316.913722 69.664095 
z
" style="fill:#1f77b4;"/>
   </g>
   <g id="patch_131">
    <path clip-path="url(#pf9fe725970)" d="M 318.971102 284.258625 
L 320.617006 284.258625 
L 320.617006 69.458781 
L 318.971102 69.458781 
z
" style="fill:#1f77b4;"/>
   </g>
   <g id="patch_132">
    <path clip-path="url(#pf9fe725970)" d="M 321.028482 284.258625 
L 322.674386 284.258625 
L 322.674386 68.924963 
L 321.028482 68.924963 
z
" style="fill:#1f77b4;"/>
   </g>
   <g id="patch_133">
    <path clip-path="url(#pf9fe725970)" d="M 323.085862 284.258625 
L 324.731766 284.258625 
L 324.731766 67.528826 
L 323.085862 67.528826 
z
" style="fill:#1f77b4;"/>
   </g>
   <g id="patch_134">
    <path clip-path="url(#pf9fe725970)" d="M 325.143242 284.258625 
L 326.789146 284.258625 
L 326.789146 67.036072 
L 325.143242 67.036072 
z
" style="fill:#1f77b4;"/>
   </g>
   <g id="patch_135">
    <path clip-path="url(#pf9fe725970)" d="M 327.200622 284.258625 
L 328.846526 284.258625 
L 328.846526 65.886311 
L 327.200622 65.886311 
z
" style="fill:#1f77b4;"/>
   </g>
   <g id="patch_136">
    <path clip-path="url(#pf9fe725970)" d="M 329.258002 284.258625 
L 330.903906 284.258625 
L 330.903906 65.065054 
L 329.258002 65.065054 
z
" style="fill:#1f77b4;"/>
   </g>
   <g id="patch_137">
    <path clip-path="url(#pf9fe725970)" d="M 331.315382 284.258625 
L 332.961285 284.258625 
L 332.961285 63.99742 
L 331.315382 63.99742 
z
" style="fill:#1f77b4;"/>
   </g>
   <g id="patch_138">
    <path clip-path="url(#pf9fe725970)" d="M 333.372761 284.258625 
L 335.018665 284.258625 
L 335.018665 63.422539 
L 333.372761 63.422539 
z
" style="fill:#1f77b4;"/>
   </g>
   <g id="patch_139">
    <path clip-path="url(#pf9fe725970)" d="M 335.430141 284.258625 
L 337.076045 284.258625 
L 337.076045 62.888722 
L 335.430141 62.888722 
z
" style="fill:#1f77b4;"/>
   </g>
   <g id="patch_140">
    <path clip-path="url(#pf9fe725970)" d="M 337.487521 284.258625 
L 339.133425 284.258625 
L 339.133425 62.395968 
L 337.487521 62.395968 
z
" style="fill:#1f77b4;"/>
   </g>
   <g id="patch_141">
    <path clip-path="url(#pf9fe725970)" d="M 339.544901 284.258625 
L 341.190805 284.258625 
L 341.190805 61.656836 
L 339.544901 61.656836 
z
" style="fill:#1f77b4;"/>
   </g>
   <g id="patch_142">
    <path clip-path="url(#pf9fe725970)" d="M 341.602281 284.258625 
L 343.248185 284.258625 
L 343.248185 60.753453 
L 341.602281 60.753453 
z
" style="fill:#1f77b4;"/>
   </g>
   <g id="patch_143">
    <path clip-path="url(#pf9fe725970)" d="M 343.659661 284.258625 
L 345.305565 284.258625 
L 345.305565 59.726882 
L 343.659661 59.726882 
z
" style="fill:#1f77b4;"/>
   </g>
   <g id="patch_144">
    <path clip-path="url(#pf9fe725970)" d="M 345.717041 284.258625 
L 347.362945 284.258625 
L 347.362945 58.741373 
L 345.717041 58.741373 
z
" style="fill:#1f77b4;"/>
   </g>
   <g id="patch_145">
    <path clip-path="url(#pf9fe725970)" d="M 347.774421 284.258625 
L 349.420324 284.258625 
L 349.420324 56.811418 
L 347.774421 56.811418 
z
" style="fill:#1f77b4;"/>
   </g>
   <g id="patch_146">
    <path clip-path="url(#pf9fe725970)" d="M 349.8318 284.258625 
L 351.477704 284.258625 
L 351.477704 54.840401 
L 349.8318 54.840401 
z
" style="fill:#1f77b4;"/>
   </g>
   <g id="patch_147">
    <path clip-path="url(#pf9fe725970)" d="M 351.88918 284.258625 
L 353.535084 284.258625 
L 353.535084 53.731703 
L 351.88918 53.731703 
z
" style="fill:#1f77b4;"/>
   </g>
   <g id="patch_148">
    <path clip-path="url(#pf9fe725970)" d="M 353.94656 284.258625 
L 355.592464 284.258625 
L 355.592464 53.074698 
L 353.94656 53.074698 
z
" style="fill:#1f77b4;"/>
   </g>
   <g id="patch_149">
    <path clip-path="url(#pf9fe725970)" d="M 356.00394 284.258625 
L 357.649844 284.258625 
L 357.649844 51.39112 
L 356.00394 51.39112 
z
" style="fill:#1f77b4;"/>
   </g>
   <g id="patch_150">
    <path clip-path="url(#pf9fe725970)" d="M 358.06132 284.258625 
L 359.707224 284.258625 
L 359.707224 49.95392 
L 358.06132 49.95392 
z
" style="fill:#1f77b4;"/>
   </g>
   <g id="patch_151">
    <path clip-path="url(#pf9fe725970)" d="M 360.1187 284.258625 
L 361.764604 284.258625 
L 361.764604 48.352468 
L 360.1187 48.352468 
z
" style="fill:#1f77b4;"/>
   </g>
   <g id="patch_152">
    <path clip-path="url(#pf9fe725970)" d="M 362.17608 284.258625 
L 363.821984 284.258625 
L 363.821984 46.915268 
L 362.17608 46.915268 
z
" style="fill:#1f77b4;"/>
   </g>
   <g id="patch_153">
    <path clip-path="url(#pf9fe725970)" d="M 364.23346 284.258625 
L 365.879364 284.258625 
L 365.879364 45.724445 
L 364.23346 45.724445 
z
" style="fill:#1f77b4;"/>
   </g>
   <g id="patch_154">
    <path clip-path="url(#pf9fe725970)" d="M 366.29084 284.258625 
L 367.936743 284.258625 
L 367.936743 44.451496 
L 366.29084 44.451496 
z
" style="fill:#1f77b4;"/>
   </g>
   <g id="patch_155">
    <path clip-path="url(#pf9fe725970)" d="M 368.348219 284.258625 
L 369.994123 284.258625 
L 369.994123 42.193038 
L 368.348219 42.193038 
z
" style="fill:#1f77b4;"/>
   </g>
   <g id="patch_156">
    <path clip-path="url(#pf9fe725970)" d="M 370.405599 284.258625 
L 372.051503 284.258625 
L 372.051503 40.222021 
L 370.405599 40.222021 
z
" style="fill:#1f77b4;"/>
   </g>
   <g id="patch_157">
    <path clip-path="url(#pf9fe725970)" d="M 372.462979 284.258625 
L 374.108883 284.258625 
L 374.108883 38.004626 
L 372.462979 38.004626 
z
" style="fill:#1f77b4;"/>
   </g>
   <g id="patch_158">
    <path clip-path="url(#pf9fe725970)" d="M 374.520359 284.258625 
L 376.166263 284.258625 
L 376.166263 35.664043 
L 374.520359 35.664043 
z
" style="fill:#1f77b4;"/>
   </g>
   <g id="patch_159">
    <path clip-path="url(#pf9fe725970)" d="M 376.577739 284.258625 
L 378.223643 284.258625 
L 378.223643 33.200271 
L 376.577739 33.200271 
z
" style="fill:#1f77b4;"/>
   </g>
   <g id="patch_160">
    <path clip-path="url(#pf9fe725970)" d="M 378.635119 284.258625 
L 380.281023 284.258625 
L 380.281023 30.818625 
L 378.635119 30.818625 
z
" style="fill:#1f77b4;"/>
   </g>
   <g id="matplotlib.axis_1">
    <g id="xtick_1">
     <g id="line2d_3">
      <defs>
       <path d="M 0 0 
L 0 3.5 
" id="m5e0202ed29" style="stroke:#000000;stroke-width:0.8;"/>
      </defs>
      <g>
       <use style="stroke:#000000;stroke-width:0.8;" x="72.085516" xlink:href="#m5e0202ed29" y="284.258625"/>
      </g>
     </g>
     <g id="text_1">
      <!-- Feb -->
      <defs>
       <path d="M 54.203125 64.703125 
L 18.3125 64.703125 
L 18.3125 41.5 
L 50.09375 41.5 
L 50.09375 34.1875 
L 18.3125 34.1875 
L 18.3125 0.984375 
L 9.515625 0.984375 
L 9.515625 72.40625 
L 54.203125 72.40625 
z
" id="IPAexGothic-70"/>
       <path d="M 13.484375 24.90625 
Q 13.921875 16.265625 18.890625 11.28125 
Q 23.96875 6.203125 31.203125 6.203125 
Q 40.71875 6.203125 46.296875 15.09375 
L 51.90625 11.375 
Q 44.828125 -0.484375 30.171875 -0.484375 
Q 19.09375 -0.484375 11.96875 6.59375 
Q 4.78125 13.8125 4.78125 25.640625 
Q 4.78125 38.1875 12.3125 45.703125 
Q 19 52.390625 29 52.390625 
Q 38.421875 52.390625 44.78125 46.1875 
Q 51.90625 38.96875 51.90625 26.90625 
L 51.90625 24.90625 
z
M 43.0625 31.203125 
Q 42.328125 37.984375 38.28125 41.890625 
Q 34.28125 45.90625 28.8125 45.90625 
Q 22.46875 45.90625 17.96875 40.484375 
Q 14.890625 36.8125 13.96875 31.203125 
z
" id="IPAexGothic-101"/>
       <path d="M 17.578125 42.671875 
Q 24.21875 52.203125 34.671875 52.203125 
Q 43.5625 52.203125 49.859375 45.90625 
Q 57.171875 38.578125 57.171875 25.6875 
Q 57.171875 13.09375 49.859375 5.8125 
Q 43.5625 -0.484375 34.46875 -0.484375 
Q 24.359375 -0.484375 17 8.0625 
L 15.765625 0.6875 
L 9.078125 0.6875 
L 9.078125 74.90625 
L 17.578125 74.90625 
z
M 17.578125 31.203125 
L 17.578125 19.578125 
Q 17.578125 13.875 23.875 9.375 
Q 28.171875 6.296875 33.109375 6.296875 
Q 38.875 6.296875 42.875 10.296875 
Q 48.1875 15.765625 48.1875 25.484375 
Q 48.1875 34.28125 43.796875 39.890625 
Q 39.453125 45.3125 33.203125 45.3125 
Q 27.484375 45.3125 22.46875 40.28125 
Q 17.578125 35.40625 17.578125 31.203125 
z
" id="IPAexGothic-98"/>
      </defs>
      <g transform="translate(63.262079 298.74925)scale(0.1 -0.1)">
       <use xlink:href="#IPAexGothic-70"/>
       <use x="57.177734" xlink:href="#IPAexGothic-101"/>
       <use x="114.0625" xlink:href="#IPAexGothic-98"/>
      </g>
     </g>
    </g>
    <g id="xtick_2">
     <g id="line2d_4">
      <g>
       <use style="stroke:#000000;stroke-width:0.8;" x="131.749533" xlink:href="#m5e0202ed29" y="284.258625"/>
      </g>
     </g>
     <g id="text_2">
      <!-- Mar -->
      <defs>
       <path d="M 80.421875 0.984375 
L 71.828125 0.984375 
L 71.828125 39.59375 
Q 71.828125 51.265625 72.40625 64.59375 
L 72.015625 64.59375 
Q 68.0625 53.265625 63.53125 41.796875 
L 47.90625 3.265625 
L 41.40625 3.265625 
L 25.640625 42.578125 
Q 20.75 54.78125 17.625 64.703125 
L 17.234375 64.703125 
Q 17.828125 48.921875 17.828125 39.890625 
L 17.828125 0.984375 
L 9.515625 0.984375 
L 9.515625 72.40625 
L 22.125 72.40625 
L 39.109375 30.375 
Q 42.140625 23 44.828125 14.15625 
L 45.125 14.15625 
Q 47.3125 22.125 50.53125 30.171875 
L 67.4375 72.40625 
L 80.421875 72.40625 
z
" id="IPAexGothic-77"/>
       <path d="M 49.3125 0.984375 
L 41.75 0.984375 
Q 39.984375 4.734375 39.546875 8.6875 
L 39.203125 8.6875 
Q 33.546875 -0.390625 22.3125 -0.390625 
Q 14.59375 -0.390625 9.71875 4.5 
Q 5.421875 8.796875 5.421875 14.984375 
Q 5.421875 30.421875 32.03125 31.203125 
L 38.71875 31.390625 
L 38.71875 33.984375 
Q 38.71875 39.203125 35.75 42.1875 
Q 32.625 45.3125 27.734375 45.3125 
Q 19.34375 45.3125 15.140625 37.15625 
L 7.71875 40.578125 
Q 14.65625 52 27.9375 52 
Q 37.109375 52 42.046875 46.875 
Q 46.625 42.28125 46.625 33.890625 
L 46.625 15.578125 
Q 46.625 6.25 49.3125 0.984375 
z
M 38.921875 25.390625 
L 33.453125 25.296875 
Q 14.109375 24.859375 14.109375 14.890625 
Q 14.109375 11.375 16.40625 9.078125 
Q 19.234375 6.296875 23.828125 6.296875 
Q 30.21875 6.296875 34.90625 10.984375 
Q 38.921875 15.140625 38.921875 21 
z
" id="IPAexGothic-97"/>
       <path d="M 36.078125 51.8125 
L 34.578125 43.265625 
Q 32.90625 43.609375 31.59375 43.609375 
Q 25.828125 43.609375 22.078125 38.1875 
Q 17.390625 31.34375 17.390625 26.171875 
L 17.390625 0.984375 
L 8.796875 0.984375 
L 8.796875 50.78125 
L 16.890625 50.78125 
L 16.5 35.984375 
L 16.703125 35.984375 
Q 22.21875 52.203125 32.765625 52.203125 
Q 34.46875 52.203125 36.078125 51.8125 
z
" id="IPAexGothic-114"/>
      </defs>
      <g transform="translate(122.640158 298.74925)scale(0.1 -0.1)">
       <use xlink:href="#IPAexGothic-77"/>
       <use x="90.185547" xlink:href="#IPAexGothic-97"/>
       <use x="145.166016" xlink:href="#IPAexGothic-114"/>
      </g>
     </g>
    </g>
    <g id="xtick_3">
     <g id="line2d_5">
      <g>
       <use style="stroke:#000000;stroke-width:0.8;" x="195.528309" xlink:href="#m5e0202ed29" y="284.258625"/>
      </g>
     </g>
     <g id="text_3">
      <!-- Apr -->
      <defs>
       <path d="M 63.375 0.984375 
L 53.8125 0.984375 
L 45.90625 22.015625 
L 17.1875 22.015625 
L 9.421875 0.984375 
L -0.09375 0.984375 
L 28.21875 72.90625 
L 35.296875 72.90625 
z
M 43.40625 29.109375 
L 36.1875 48.09375 
Q 33.203125 56.0625 31.6875 62.5 
L 31.390625 62.5 
Q 29.640625 55.671875 26.8125 48.09375 
L 19.734375 29.109375 
z
" id="IPAexGothic-65"/>
       <path d="M 16.796875 42 
Q 23.828125 52.203125 34.46875 52.203125 
Q 43.265625 52.203125 49.5625 45.90625 
Q 56.890625 38.578125 56.890625 25.6875 
Q 56.890625 13.140625 49.65625 5.8125 
Q 43.359375 -0.484375 34.375 -0.484375 
Q 24.515625 -0.484375 17.28125 7.765625 
L 17.28125 -19 
L 8.796875 -19 
L 8.796875 50.78125 
L 16.796875 50.78125 
z
M 17.28125 30.46875 
L 17.28125 20.171875 
Q 17.28125 14.015625 23.6875 9.375 
Q 27.984375 6.296875 32.90625 6.296875 
Q 38.578125 6.296875 42.578125 10.296875 
Q 47.90625 15.578125 47.90625 25.484375 
Q 47.90625 34.375 43.5 39.984375 
Q 39.109375 45.3125 32.8125 45.3125 
Q 25.875 45.3125 20.90625 38.8125 
Q 17.28125 34.125 17.28125 30.46875 
z
" id="IPAexGothic-112"/>
      </defs>
      <g transform="translate(187.386122 298.74925)scale(0.1 -0.1)">
       <use xlink:href="#IPAexGothic-65"/>
       <use x="63.720703" xlink:href="#IPAexGothic-112"/>
       <use x="125.830078" xlink:href="#IPAexGothic-114"/>
      </g>
     </g>
    </g>
    <g id="xtick_4">
     <g id="line2d_6">
      <g>
       <use style="stroke:#000000;stroke-width:0.8;" x="257.249706" xlink:href="#m5e0202ed29" y="284.258625"/>
      </g>
     </g>
     <g id="text_4">
      <!-- May -->
      <defs>
       <path d="M 48.78125 50.78125 
L 24.609375 -7.625 
Q 19.96875 -18.796875 8.59375 -18.796875 
L 7.46875 -18.796875 
L 5.375 -10.984375 
L 6.984375 -10.984375 
Q 15.140625 -10.984375 17.96875 -3.71875 
L 21.1875 4.296875 
L 0.59375 50.78125 
L 10.296875 50.78125 
L 21.296875 22.796875 
Q 23.875 16.015625 25.09375 12.203125 
L 25.390625 12.203125 
Q 27.34375 18.265625 29.109375 22.796875 
L 39.5 50.78125 
z
" id="IPAexGothic-121"/>
      </defs>
      <g transform="translate(247.530175 298.74925)scale(0.1 -0.1)">
       <use xlink:href="#IPAexGothic-77"/>
       <use x="90.185547" xlink:href="#IPAexGothic-97"/>
       <use x="145.166016" xlink:href="#IPAexGothic-121"/>
      </g>
     </g>
    </g>
    <g id="xtick_5">
     <g id="line2d_7">
      <g>
       <use style="stroke:#000000;stroke-width:0.8;" x="321.028482" xlink:href="#m5e0202ed29" y="284.258625"/>
      </g>
     </g>
     <g id="text_5">
      <!-- Jun -->
      <defs>
       <path d="M 28.421875 72.40625 
L 28.421875 19.28125 
Q 28.421875 -0.484375 11.921875 -0.484375 
Q 4.734375 -0.484375 -1.953125 3.265625 
L 1.3125 10.0625 
Q 5.90625 6.984375 10.84375 6.984375 
Q 19.53125 6.984375 19.53125 18.796875 
L 19.53125 72.40625 
z
" id="IPAexGothic-74"/>
       <path d="M 51.3125 0.984375 
L 43.3125 0.984375 
L 43.3125 10.0625 
Q 35.9375 0 25.390625 0 
Q 16.75 0 11.921875 5.859375 
Q 8.109375 10.59375 8.109375 19.390625 
L 8.109375 50.78125 
L 16.703125 50.78125 
L 16.703125 19.671875 
Q 16.703125 7.28125 27.09375 7.28125 
Q 37.59375 7.28125 42.71875 20.171875 
L 42.71875 50.78125 
L 51.3125 50.78125 
z
" id="IPAexGothic-117"/>
       <path d="M 52 0.984375 
L 43.40625 0.984375 
L 43.40625 31.890625 
Q 43.40625 44.578125 32.90625 44.578125 
Q 22.3125 44.578125 17.390625 31.890625 
L 17.390625 0.984375 
L 8.796875 0.984375 
L 8.796875 50.78125 
L 16.796875 50.78125 
L 16.796875 41.796875 
Q 23.828125 51.8125 34.71875 51.8125 
Q 52 51.8125 52 32.375 
z
" id="IPAexGothic-110"/>
      </defs>
      <g transform="translate(313.088638 298.74925)scale(0.1 -0.1)">
       <use xlink:href="#IPAexGothic-74"/>
       <use x="37.988281" xlink:href="#IPAexGothic-117"/>
       <use x="98.388672" xlink:href="#IPAexGothic-110"/>
      </g>
     </g>
    </g>
    <g id="xtick_6">
     <g id="line2d_8">
      <g>
       <use style="stroke:#000000;stroke-width:0.8;" x="382.749879" xlink:href="#m5e0202ed29" y="284.258625"/>
      </g>
     </g>
     <g id="text_6">
      <!-- Jul -->
      <defs>
       <path d="M 17.671875 0.984375 
L 9.078125 0.984375 
L 9.078125 74.90625 
L 17.671875 74.90625 
z
" id="IPAexGothic-108"/>
      </defs>
      <g transform="translate(376.480347 298.74925)scale(0.1 -0.1)">
       <use xlink:href="#IPAexGothic-74"/>
       <use x="37.988281" xlink:href="#IPAexGothic-117"/>
       <use x="98.388672" xlink:href="#IPAexGothic-108"/>
      </g>
     </g>
    </g>
    <g id="text_7">
     <!-- 2020 -->
     <defs>
      <path d="M 57.171875 0.984375 
L 6.984375 0.984375 
L 6.984375 9.28125 
Q 12.890625 23.046875 29.59375 34.421875 
L 32.375 36.28125 
Q 40.921875 42.140625 43.609375 45.40625 
Q 46.6875 49.265625 46.6875 53.8125 
Q 46.6875 58.9375 43.0625 62.546875 
Q 39.0625 66.546875 32.5625 66.546875 
Q 19.53125 66.546875 15.484375 52 
L 7.765625 54.78125 
Q 13.328125 73.828125 33.0625 73.828125 
Q 43.84375 73.828125 50.25 67.4375 
Q 55.859375 61.671875 55.859375 53.515625 
Q 55.859375 47.46875 52.25 42.53125 
Q 48.921875 37.75 36.96875 30.28125 
L 34.859375 29 
Q 19.625 19.578125 15.28125 8.890625 
L 57.171875 8.890625 
z
" id="IPAexGothic-50"/>
      <path d="M 31.84375 73.828125 
Q 45.015625 73.828125 52.09375 61.625 
Q 57.71875 51.953125 57.71875 36.625 
Q 57.71875 21.4375 52.09375 11.578125 
Q 45.125 -0.484375 31.5 -0.484375 
Q 17.921875 -0.484375 10.9375 11.578125 
Q 5.328125 21.4375 5.328125 36.71875 
Q 5.328125 58.015625 15.625 67.71875 
Q 22.171875 73.828125 31.84375 73.828125 
z
M 31.5 66.65625 
Q 23.6875 66.65625 19.1875 58.734375 
Q 14.59375 50.734375 14.59375 36.625 
Q 14.59375 22.75 19.09375 14.796875 
Q 23.640625 6.984375 31.5 6.984375 
Q 40.921875 6.984375 45.453125 18.015625 
Q 48.4375 25.34375 48.4375 37.109375 
Q 48.4375 50.875 43.84375 58.734375 
Q 39.203125 66.65625 31.5 66.65625 
z
" id="IPAexGothic-48"/>
     </defs>
     <g transform="translate(371.32 311.139875)scale(0.1 -0.1)">
      <use xlink:href="#IPAexGothic-50"/>
      <use x="62.988281" xlink:href="#IPAexGothic-48"/>
      <use x="125.976562" xlink:href="#IPAexGothic-50"/>
      <use x="188.964844" xlink:href="#IPAexGothic-48"/>
     </g>
    </g>
   </g>
   <g id="matplotlib.axis_2">
    <g id="ytick_1">
     <g id="line2d_9">
      <defs>
       <path d="M 0 0 
L -3.5 0 
" id="mb64cab9599" style="stroke:#000000;stroke-width:0.8;"/>
      </defs>
      <g>
       <use style="stroke:#000000;stroke-width:0.8;" x="39.39375" xlink:href="#mb64cab9599" y="284.258625"/>
      </g>
     </g>
     <g id="text_8">
      <!-- 0 -->
      <g transform="translate(26.095313 288.003937)scale(0.1 -0.1)">
       <use xlink:href="#IPAexGothic-48"/>
      </g>
     </g>
    </g>
    <g id="ytick_2">
     <g id="line2d_10">
      <g>
       <use style="stroke:#000000;stroke-width:0.8;" x="39.39375" xlink:href="#mb64cab9599" y="243.19576"/>
      </g>
     </g>
     <g id="text_9">
      <!-- 1000 -->
      <defs>
       <path d="M 38.484375 0.984375 
L 29.6875 0.984375 
L 29.6875 64.109375 
Q 21.4375 61.28125 12.3125 59.328125 
L 10.6875 66.109375 
Q 23.734375 69.390625 32.90625 73.921875 
L 38.484375 73.921875 
z
" id="IPAexGothic-49"/>
      </defs>
      <g transform="translate(7.2 246.941073)scale(0.1 -0.1)">
       <use xlink:href="#IPAexGothic-49"/>
       <use x="62.988281" xlink:href="#IPAexGothic-48"/>
       <use x="125.976562" xlink:href="#IPAexGothic-48"/>
       <use x="188.964844" xlink:href="#IPAexGothic-48"/>
      </g>
     </g>
    </g>
    <g id="ytick_3">
     <g id="line2d_11">
      <g>
       <use style="stroke:#000000;stroke-width:0.8;" x="39.39375" xlink:href="#mb64cab9599" y="202.132896"/>
      </g>
     </g>
     <g id="text_10">
      <!-- 2000 -->
      <g transform="translate(7.2 205.878208)scale(0.1 -0.1)">
       <use xlink:href="#IPAexGothic-50"/>
       <use x="62.988281" xlink:href="#IPAexGothic-48"/>
       <use x="125.976562" xlink:href="#IPAexGothic-48"/>
       <use x="188.964844" xlink:href="#IPAexGothic-48"/>
      </g>
     </g>
    </g>
    <g id="ytick_4">
     <g id="line2d_12">
      <g>
       <use style="stroke:#000000;stroke-width:0.8;" x="39.39375" xlink:href="#mb64cab9599" y="161.070031"/>
      </g>
     </g>
     <g id="text_11">
      <!-- 3000 -->
      <defs>
       <path d="M 37.203125 37.796875 
Q 54.78125 34.625 54.78125 19.96875 
Q 54.78125 11.1875 48.875 5.5625 
Q 42.328125 -0.484375 30.375 -0.484375 
Q 12.453125 -0.484375 4.5 13.765625 
L 11.8125 17.671875 
Q 17.328125 6.890625 30.28125 6.890625 
Q 37.890625 6.890625 42.09375 10.796875 
Q 46.09375 14.5 46.09375 20.171875 
Q 46.09375 26.859375 40.09375 30.90625 
Q 34.625 34.578125 25.6875 34.578125 
L 21.296875 34.578125 
L 21.296875 41.703125 
L 25.875 41.703125 
Q 34.859375 41.703125 39.59375 45.125 
Q 44.671875 48.734375 44.671875 54.828125 
Q 44.671875 61.46875 38.96875 64.65625 
Q 35.296875 66.84375 30.171875 66.84375 
Q 19.34375 66.84375 14.109375 55.90625 
L 6.78125 59.421875 
Q 14.015625 73.828125 30.28125 73.828125 
Q 40.578125 73.828125 46.96875 68.65625 
Q 53.375 63.578125 53.375 55.21875 
Q 53.375 47.3125 47.171875 42.28125 
Q 43.171875 39.0625 37.203125 38.1875 
z
" id="IPAexGothic-51"/>
      </defs>
      <g transform="translate(7.2 164.815344)scale(0.1 -0.1)">
       <use xlink:href="#IPAexGothic-51"/>
       <use x="62.988281" xlink:href="#IPAexGothic-48"/>
       <use x="125.976562" xlink:href="#IPAexGothic-48"/>
       <use x="188.964844" xlink:href="#IPAexGothic-48"/>
      </g>
     </g>
    </g>
    <g id="ytick_5">
     <g id="line2d_13">
      <g>
       <use style="stroke:#000000;stroke-width:0.8;" x="39.39375" xlink:href="#mb64cab9599" y="120.007167"/>
      </g>
     </g>
     <g id="text_12">
      <!-- 4000 -->
      <defs>
       <path d="M 59.578125 18.109375 
L 47.796875 18.109375 
L 47.796875 0.984375 
L 39.796875 0.984375 
L 39.796875 18.109375 
L 3.078125 18.109375 
L 3.078125 26.125 
L 38.375 73.09375 
L 47.796875 73.09375 
L 47.796875 25.53125 
L 59.578125 25.53125 
z
M 40.28125 64.203125 
L 39.984375 64.203125 
Q 35.59375 57.125 31.296875 51.3125 
L 11.859375 25.53125 
L 39.796875 25.53125 
L 39.796875 49.125 
Q 39.796875 54.390625 40.28125 64.203125 
z
" id="IPAexGothic-52"/>
      </defs>
      <g transform="translate(7.2 123.752479)scale(0.1 -0.1)">
       <use xlink:href="#IPAexGothic-52"/>
       <use x="62.988281" xlink:href="#IPAexGothic-48"/>
       <use x="125.976562" xlink:href="#IPAexGothic-48"/>
       <use x="188.964844" xlink:href="#IPAexGothic-48"/>
      </g>
     </g>
    </g>
    <g id="ytick_6">
     <g id="line2d_14">
      <g>
       <use style="stroke:#000000;stroke-width:0.8;" x="39.39375" xlink:href="#mb64cab9599" y="78.944302"/>
      </g>
     </g>
     <g id="text_13">
      <!-- 5000 -->
      <defs>
       <path d="M 18.40625 40.671875 
Q 25.53125 46.296875 33.9375 46.296875 
Q 44 46.296875 50.640625 39.5 
Q 56.84375 33.015625 56.84375 23.390625 
Q 56.84375 14.65625 51.515625 8.015625 
Q 44.828125 -0.484375 31.734375 -0.484375 
Q 14.984375 -0.484375 7.328125 12.25 
L 14.65625 16.0625 
Q 20.453125 6.78125 31.453125 6.78125 
Q 38.53125 6.78125 43.265625 11.1875 
Q 48.140625 15.828125 48.140625 23.484375 
Q 48.140625 30.71875 43.84375 35.015625 
Q 39.359375 39.5 32.125 39.5 
Q 21.96875 39.5 16.75 31.6875 
L 9.234375 32.671875 
L 13.8125 72.40625 
L 53.21875 72.40625 
L 53.21875 64.890625 
L 20.953125 64.890625 
L 17.71875 40.671875 
z
" id="IPAexGothic-53"/>
      </defs>
      <g transform="translate(7.2 82.689615)scale(0.1 -0.1)">
       <use xlink:href="#IPAexGothic-53"/>
       <use x="62.988281" xlink:href="#IPAexGothic-48"/>
       <use x="125.976562" xlink:href="#IPAexGothic-48"/>
       <use x="188.964844" xlink:href="#IPAexGothic-48"/>
      </g>
     </g>
    </g>
    <g id="ytick_7">
     <g id="line2d_15">
      <g>
       <use style="stroke:#000000;stroke-width:0.8;" x="39.39375" xlink:href="#mb64cab9599" y="37.881438"/>
      </g>
     </g>
     <g id="text_14">
      <!-- 6000 -->
      <defs>
       <path d="M 16.5 36.375 
Q 23.578125 46.578125 34.90625 46.578125 
Q 45.40625 46.578125 51.8125 39.265625 
Q 57.421875 32.90625 57.421875 23.78125 
Q 57.421875 13.8125 51.125 6.78125 
Q 44.578125 -0.484375 34.03125 -0.484375 
Q 21.484375 -0.484375 14.40625 9.078125 
Q 7.515625 18.40625 7.515625 34.8125 
Q 7.515625 53.515625 15.828125 64.203125 
Q 23.34375 73.828125 35.5 73.828125 
Q 49.859375 73.828125 56.390625 62.890625 
L 49.21875 58.984375 
Q 45.21875 66.65625 35.9375 66.65625 
Q 17.484375 66.65625 16.109375 36.375 
z
M 33.453125 39.796875 
Q 26.3125 39.796875 21.625 34.46875 
Q 17.4375 29.6875 17.4375 24.078125 
Q 17.4375 18.0625 21.140625 13.1875 
Q 26.125 6.6875 33.734375 6.6875 
Q 41.703125 6.6875 45.953125 13.1875 
Q 48.828125 17.625 48.828125 23.484375 
Q 48.828125 30.375 45.015625 34.8125 
Q 40.625 39.796875 33.453125 39.796875 
z
" id="IPAexGothic-54"/>
      </defs>
      <g transform="translate(7.2 41.62675)scale(0.1 -0.1)">
       <use xlink:href="#IPAexGothic-54"/>
       <use x="62.988281" xlink:href="#IPAexGothic-48"/>
       <use x="125.976562" xlink:href="#IPAexGothic-48"/>
       <use x="188.964844" xlink:href="#IPAexGothic-48"/>
      </g>
     </g>
    </g>
   </g>
   <g id="patch_161">
    <path d="M 39.39375 284.258625 
L 39.39375 18.146625 
" style="fill:none;stroke:#000000;stroke-linecap:square;stroke-linejoin:miter;stroke-width:0.8;"/>
   </g>
   <g id="patch_162">
    <path d="M 396.51375 284.258625 
L 396.51375 18.146625 
" style="fill:none;stroke:#000000;stroke-linecap:square;stroke-linejoin:miter;stroke-width:0.8;"/>
   </g>
   <g id="patch_163">
    <path d="M 39.39375 284.258625 
L 396.51375 284.258625 
" style="fill:none;stroke:#000000;stroke-linecap:square;stroke-linejoin:miter;stroke-width:0.8;"/>
   </g>
   <g id="patch_164">
    <path d="M 39.39375 18.146625 
L 396.51375 18.146625 
" style="fill:none;stroke:#000000;stroke-linecap:square;stroke-linejoin:miter;stroke-width:0.8;"/>
   </g>
   <g id="legend_1">
    <g id="patch_165">
     <path d="M 46.39375 40.595062 
L 210.73125 40.595062 
Q 212.73125 40.595062 212.73125 38.595062 
L 212.73125 25.146625 
Q 212.73125 23.146625 210.73125 23.146625 
L 46.39375 23.146625 
Q 44.39375 23.146625 44.39375 25.146625 
L 44.39375 38.595062 
Q 44.39375 40.595062 46.39375 40.595062 
z
" style="fill:#ffffff;opacity:0.8;stroke:#cccccc;stroke-linejoin:miter;"/>
    </g>
    <g id="patch_166">
     <path d="M 48.39375 34.695062 
L 68.39375 34.695062 
L 68.39375 27.695062 
L 48.39375 27.695062 
z
" style="fill:#1f77b4;"/>
    </g>
    <g id="text_15">
     <!-- Tokyo cumulative confirmed -->
     <defs>
      <path d="M 60.40625 64.703125 
L 33.984375 64.703125 
L 33.984375 0.984375 
L 25.09375 0.984375 
L 25.09375 64.703125 
L -0.484375 64.703125 
L -0.484375 72.40625 
L 60.40625 72.40625 
z
" id="IPAexGothic-84"/>
      <path d="M 29.984375 52.203125 
Q 40.53125 52.203125 47.75 45.125 
Q 55.171875 37.703125 55.171875 25.59375 
Q 55.171875 13.875 47.90625 6.59375 
Q 40.765625 -0.484375 29.984375 -0.484375 
Q 19.1875 -0.484375 12.203125 6.5 
Q 4.890625 13.765625 4.890625 25.875 
Q 4.890625 37.703125 12.3125 45.125 
Q 19.390625 52.203125 29.984375 52.203125 
z
M 29.984375 45.609375 
Q 23.734375 45.609375 19.390625 41.109375 
Q 13.875 35.59375 13.875 25.78125 
Q 13.875 16.109375 19.28125 10.6875 
Q 23.6875 6.296875 29.984375 6.296875 
Q 36.421875 6.296875 40.765625 10.796875 
Q 46.1875 16.21875 46.1875 26.125 
Q 46.1875 35.453125 40.671875 41.109375 
Q 36.1875 45.609375 29.984375 45.609375 
z
" id="IPAexGothic-111"/>
      <path d="M 50.6875 0.984375 
L 40.28125 0.984375 
L 23.1875 25.203125 
L 17.484375 19.671875 
L 17.484375 0.984375 
L 9.078125 0.984375 
L 9.078125 74.90625 
L 17.484375 74.90625 
L 17.484375 27.59375 
L 38.484375 50.78125 
L 49.265625 50.78125 
L 28.5625 30.078125 
z
" id="IPAexGothic-107"/>
      <path id="IPAexGothic-32"/>
      <path d="M 51.078125 12.25 
Q 44.28125 -0.484375 29.6875 -0.484375 
Q 19.1875 -0.484375 12.3125 6.390625 
Q 4.890625 13.921875 4.890625 25.984375 
Q 4.890625 37.9375 12.3125 45.515625 
Q 19.09375 52.296875 29.390625 52.296875 
Q 43.953125 52.296875 50.09375 39.703125 
L 43.171875 36.078125 
Q 38.8125 45.3125 29.6875 45.3125 
Q 23.6875 45.3125 19.28125 40.921875 
Q 13.765625 35.40625 13.765625 25.78125 
Q 13.765625 16.703125 19.09375 11.375 
Q 23.78125 6.6875 30.5625 6.6875 
Q 39.796875 6.6875 44.484375 15.875 
z
" id="IPAexGothic-99"/>
      <path d="M 78.46875 0.984375 
L 69.875 0.984375 
L 69.875 32.171875 
Q 69.875 44.828125 60.109375 44.828125 
Q 55.46875 44.828125 51.609375 40.53125 
Q 48.875 37.453125 47.796875 32.859375 
L 47.796875 0.984375 
L 39.203125 0.984375 
L 39.203125 32.28125 
Q 39.203125 44.828125 29.984375 44.828125 
Q 25.09375 44.828125 21.390625 40.53125 
Q 17.390625 36.03125 17.390625 31.890625 
L 17.390625 0.984375 
L 8.796875 0.984375 
L 8.796875 50.78125 
L 16.796875 50.78125 
L 16.796875 42.1875 
Q 21.734375 51.8125 31.6875 51.8125 
Q 42.578125 51.8125 46.1875 41.359375 
Q 51.609375 51.8125 61.765625 51.8125 
Q 69.96875 51.8125 74.5625 46 
Q 78.46875 41.21875 78.46875 32.375 
z
" id="IPAexGothic-109"/>
      <path d="M 33.203125 3.765625 
Q 27.640625 -0.09375 21.828125 -0.09375 
Q 10.203125 -0.09375 10.203125 12.984375 
L 10.203125 44.671875 
L 3.421875 44.671875 
L 3.421875 50.78125 
L 10.203125 50.78125 
L 10.203125 61.96875 
L 18.40625 66.0625 
L 18.40625 50.78125 
L 32.234375 50.78125 
L 32.234375 44.671875 
L 18.40625 44.671875 
L 18.40625 14.15625 
Q 18.40625 6.5 23.640625 6.5 
Q 27.15625 6.5 30.328125 9.1875 
z
" id="IPAexGothic-116"/>
      <path d="M 18.40625 61.375 
L 8.59375 61.375 
L 8.59375 71.390625 
L 18.40625 71.390625 
z
M 17.78125 0.984375 
L 9.1875 0.984375 
L 9.1875 50.78125 
L 17.78125 50.78125 
z
" id="IPAexGothic-105"/>
      <path d="M 48.484375 50.78125 
L 27.296875 0.09375 
L 21.484375 0.09375 
L 0.390625 50.78125 
L 9.8125 50.78125 
L 20.90625 21.6875 
L 23.78125 13.1875 
L 24.515625 10.984375 
L 24.8125 10.984375 
Q 25.640625 13.8125 28.46875 21.6875 
L 39.3125 50.78125 
z
" id="IPAexGothic-118"/>
      <path d="M 38.375 72.21875 
L 34.8125 66.3125 
Q 31.109375 69.09375 27.203125 69.09375 
Q 18.5 69.09375 18.5 57.375 
L 18.5 50.78125 
L 32.078125 50.78125 
L 32.078125 44.671875 
L 18.5 44.671875 
L 18.5 0.984375 
L 10.015625 0.984375 
L 10.015625 44.671875 
L 1.90625 44.671875 
L 1.90625 50.78125 
L 10.015625 50.78125 
L 10.015625 57.171875 
Q 10.015625 65.4375 13.921875 70.0625 
Q 18.75 75.6875 26.703125 75.6875 
Q 33.0625 75.6875 38.375 72.21875 
z
" id="IPAexGothic-102"/>
      <path d="M 52.984375 0.984375 
L 45.171875 0.984375 
L 45.171875 9.671875 
Q 38.140625 -0.484375 27.390625 -0.484375 
Q 18.453125 -0.484375 12.3125 5.8125 
Q 4.890625 13.1875 4.890625 25.984375 
Q 4.890625 38.53125 12.0625 45.90625 
Q 18.265625 52.203125 27.390625 52.203125 
Q 37.25 52.203125 44.484375 43.890625 
L 44.484375 74.90625 
L 52.984375 74.90625 
z
M 44.484375 20.359375 
L 44.484375 32.765625 
Q 44.484375 37.703125 38.375 42.28125 
Q 34.078125 45.40625 28.953125 45.40625 
Q 23.1875 45.40625 19.1875 41.40625 
Q 13.875 36.078125 13.875 26.21875 
Q 13.875 17.328125 18.265625 11.71875 
Q 22.515625 6.390625 28.859375 6.390625 
Q 36.28125 6.390625 41.5 13.671875 
Q 44.484375 17.71875 44.484375 20.359375 
z
" id="IPAexGothic-100"/>
     </defs>
     <g transform="translate(76.39375 34.695062)scale(0.1 -0.1)">
      <use xlink:href="#IPAexGothic-84"/>
      <use x="59.912109" xlink:href="#IPAexGothic-111"/>
      <use x="120.3125" xlink:href="#IPAexGothic-107"/>
      <use x="172.119141" xlink:href="#IPAexGothic-121"/>
      <use x="221.337891" xlink:href="#IPAexGothic-111"/>
      <use x="281.738281" xlink:href="#IPAexGothic-32"/>
      <use x="308.740234" xlink:href="#IPAexGothic-99"/>
      <use x="363.134766" xlink:href="#IPAexGothic-117"/>
      <use x="423.535156" xlink:href="#IPAexGothic-109"/>
      <use x="510.644531" xlink:href="#IPAexGothic-117"/>
      <use x="571.044922" xlink:href="#IPAexGothic-108"/>
      <use x="598.046875" xlink:href="#IPAexGothic-97"/>
      <use x="653.027344" xlink:href="#IPAexGothic-116"/>
      <use x="687.646484" xlink:href="#IPAexGothic-105"/>
      <use x="714.648438" xlink:href="#IPAexGothic-118"/>
      <use x="763.232422" xlink:href="#IPAexGothic-101"/>
      <use x="820.117188" xlink:href="#IPAexGothic-32"/>
      <use x="847.119141" xlink:href="#IPAexGothic-99"/>
      <use x="901.513672" xlink:href="#IPAexGothic-111"/>
      <use x="961.914062" xlink:href="#IPAexGothic-110"/>
      <use x="1022.314453" xlink:href="#IPAexGothic-102"/>
      <use x="1052.929688" xlink:href="#IPAexGothic-105"/>
      <use x="1079.931641" xlink:href="#IPAexGothic-114"/>
      <use x="1116.943359" xlink:href="#IPAexGothic-109"/>
      <use x="1204.052734" xlink:href="#IPAexGothic-101"/>
      <use x="1260.9375" xlink:href="#IPAexGothic-100"/>
     </g>
    </g>
   </g>
  </g>
  <g id="text_16">
   <!-- generated: 2020-06-29 17:45:05 JST -->
   <defs>
    <path d="M 20.796875 17.96875 
Q 15.71875 17.53125 15.71875 14.0625 
Q 15.71875 9.578125 27.546875 8.984375 
L 33.296875 8.6875 
Q 51.609375 7.765625 51.609375 -4.59375 
Q 51.609375 -10.9375 45.703125 -14.984375 
Q 39.359375 -19.578125 28.03125 -19.578125 
Q 17.78125 -19.578125 11.53125 -16.0625 
Q 5.515625 -12.640625 5.515625 -6.6875 
Q 5.515625 1.3125 16.796875 3.859375 
L 16.796875 4.203125 
Q 7.90625 6.453125 7.90625 12.15625 
Q 7.90625 17.4375 15.53125 20.265625 
Q 7.125 24.609375 7.125 34.078125 
Q 7.125 41.40625 12.015625 46.296875 
Q 17.625 51.90625 27.15625 51.90625 
Q 33.203125 51.90625 37.84375 49.265625 
Q 41.40625 53.953125 50.921875 54.109375 
L 50.921875 47.078125 
Q 44.34375 46.921875 42.234375 45.90625 
Q 47.40625 40.828125 47.40625 33.890625 
Q 47.40625 27 42.71875 22.265625 
Q 37.5 17.09375 28.328125 17.09375 
Q 24.421875 17.09375 20.796875 17.96875 
z
M 27.09375 45.609375 
Q 22.015625 45.609375 18.703125 42.28125 
Q 15.4375 39.015625 15.4375 34.078125 
Q 15.4375 29.25 18.5 26.3125 
Q 21.828125 23 27.4375 23 
Q 32.71875 23 35.890625 26.21875 
Q 39.109375 29.390625 39.109375 34.421875 
Q 39.109375 39.015625 35.890625 42.1875 
Q 32.515625 45.609375 27.09375 45.609375 
z
M 27.390625 2.484375 
Q 14.109375 2.484375 14.109375 -5.71875 
Q 14.109375 -13.671875 28.125 -13.671875 
Q 37.15625 -13.671875 41.21875 -9.46875 
Q 43.3125 -7.515625 43.3125 -4.890625 
Q 43.3125 2.484375 27.390625 2.484375 
z
" id="IPAexGothic-103"/>
    <path d="M 21.390625 39.984375 
L 10.5 39.984375 
L 10.5 50.78125 
L 21.390625 50.78125 
z
M 21.390625 0.984375 
L 10.5 0.984375 
L 10.5 11.765625 
L 21.390625 11.765625 
z
" id="IPAexGothic-58"/>
    <path d="M 30.765625 26.609375 
L 4.984375 26.609375 
L 4.984375 34.421875 
L 30.765625 34.421875 
z
" id="IPAexGothic-45"/>
    <path d="M 46.625 36.8125 
Q 39.75 26.8125 28.328125 26.8125 
Q 19.578125 26.8125 13.234375 32.125 
Q 5.71875 38.421875 5.71875 49.421875 
Q 5.71875 59.578125 12.015625 66.65625 
Q 18.453125 73.828125 29.203125 73.828125 
Q 43.75 73.828125 50.640625 61.71875 
Q 55.609375 52.78125 55.609375 38.625 
Q 55.609375 19.53125 47.515625 9.1875 
Q 39.890625 -0.484375 27.640625 -0.484375 
Q 13.421875 -0.484375 6.109375 10.984375 
L 13.328125 14.890625 
Q 18.0625 6.6875 27.390625 6.6875 
Q 45.65625 6.6875 47.015625 36.8125 
z
M 29.5 66.84375 
Q 22.65625 66.84375 18.3125 61.71875 
Q 14.40625 57.078125 14.40625 50 
Q 14.40625 42.828125 18.109375 38.71875 
Q 22.40625 33.796875 29.78125 33.796875 
Q 37.984375 33.796875 42.625 40.1875 
Q 45.703125 44.484375 45.703125 49.515625 
Q 45.703125 55.515625 42.09375 60.359375 
Q 37.109375 66.84375 29.5 66.84375 
z
" id="IPAexGothic-57"/>
    <path d="M 56.203125 66.609375 
Q 34.96875 32.90625 27.78125 0.984375 
L 17.671875 0.984375 
Q 24.703125 28.65625 46.09375 64.5 
L 6.6875 64.5 
L 6.6875 72.40625 
L 56.203125 72.40625 
z
" id="IPAexGothic-55"/>
    <path d="M 45.609375 56.890625 
Q 40.046875 66.546875 28.953125 66.546875 
Q 22.703125 66.546875 18.953125 62.640625 
Q 16.0625 59.421875 16.0625 55.21875 
Q 16.0625 50.59375 19.78125 47.609375 
Q 22.5625 45.515625 31 42 
L 34.375 40.578125 
Q 45.703125 36.03125 49.859375 30.515625 
Q 53.46875 25.6875 53.46875 19.671875 
Q 53.46875 10.0625 46.390625 4.5 
Q 39.984375 -0.484375 30.171875 -0.484375 
Q 13.765625 -0.484375 4.890625 11.96875 
L 11.765625 17.1875 
Q 18.796875 7.171875 30.28125 7.171875 
Q 35.75 7.171875 39.59375 9.765625 
Q 44.390625 13.234375 44.390625 19 
Q 44.390625 23.484375 40.875 27 
Q 37.109375 30.609375 27 34.46875 
L 24.078125 35.59375 
Q 7.078125 42.09375 7.078125 54.390625 
Q 7.078125 62.59375 12.59375 67.921875 
Q 18.796875 73.828125 29.109375 73.828125 
Q 44.390625 73.828125 52.484375 61.8125 
z
" id="IPAexGothic-83"/>
   </defs>
   <g transform="translate(220.279375 14.690625)scale(0.1 -0.1)">
    <use xlink:href="#IPAexGothic-103"/>
    <use x="55.517578" xlink:href="#IPAexGothic-101"/>
    <use x="112.402344" xlink:href="#IPAexGothic-110"/>
    <use x="172.802734" xlink:href="#IPAexGothic-101"/>
    <use x="229.6875" xlink:href="#IPAexGothic-114"/>
    <use x="266.699219" xlink:href="#IPAexGothic-97"/>
    <use x="321.679688" xlink:href="#IPAexGothic-116"/>
    <use x="356.298828" xlink:href="#IPAexGothic-101"/>
    <use x="413.183594" xlink:href="#IPAexGothic-100"/>
    <use x="475.585938" xlink:href="#IPAexGothic-58"/>
    <use x="507.568359" xlink:href="#IPAexGothic-32"/>
    <use x="534.570312" xlink:href="#IPAexGothic-50"/>
    <use x="597.558594" xlink:href="#IPAexGothic-48"/>
    <use x="660.546875" xlink:href="#IPAexGothic-50"/>
    <use x="723.535156" xlink:href="#IPAexGothic-48"/>
    <use x="786.523438" xlink:href="#IPAexGothic-45"/>
    <use x="822.314453" xlink:href="#IPAexGothic-48"/>
    <use x="885.302734" xlink:href="#IPAexGothic-54"/>
    <use x="948.291016" xlink:href="#IPAexGothic-45"/>
    <use x="984.082031" xlink:href="#IPAexGothic-50"/>
    <use x="1047.070312" xlink:href="#IPAexGothic-57"/>
    <use x="1110.058594" xlink:href="#IPAexGothic-32"/>
    <use x="1137.060547" xlink:href="#IPAexGothic-49"/>
    <use x="1200.048828" xlink:href="#IPAexGothic-55"/>
    <use x="1263.037109" xlink:href="#IPAexGothic-58"/>
    <use x="1295.019531" xlink:href="#IPAexGothic-52"/>
    <use x="1358.007812" xlink:href="#IPAexGothic-53"/>
    <use x="1420.996094" xlink:href="#IPAexGothic-58"/>
    <use x="1452.978516" xlink:href="#IPAexGothic-48"/>
    <use x="1515.966797" xlink:href="#IPAexGothic-53"/>
    <use x="1578.955078" xlink:href="#IPAexGothic-32"/>
    <use x="1605.957031" xlink:href="#IPAexGothic-74"/>
    <use x="1643.945312" xlink:href="#IPAexGothic-83"/>
    <use x="1702.441406" xlink:href="#IPAexGothic-84"/>
   </g>
  </g>
 </g>
 <defs>
  <clipPath id="pf9fe725970">
   <rect height="266.112" width="357.12" x="39.39375" y="18.146625"/>
  </clipPath>
 </defs>
</svg>
