<?xml version="1.0" encoding="utf-8" standalone="no"?>
<!DOCTYPE svg PUBLIC "-//W3C//DTD SVG 1.1//EN"
  "http://www.w3.org/Graphics/SVG/1.1/DTD/svg11.dtd">
<!-- Created with matplotlib (https://matplotlib.org/) -->
<svg height="309.29325pt" version="1.1" viewBox="0 0 410.012188 309.29325" width="410.012188pt" xmlns="http://www.w3.org/2000/svg" xmlns:xlink="http://www.w3.org/1999/xlink">
 <defs>
  <style type="text/css">
*{stroke-linecap:butt;stroke-linejoin:round;}
  </style>
 </defs>
 <g id="figure_1">
  <g id="patch_1">
   <path d="M 0 309.29325 
L 410.012188 309.29325 
L 410.012188 0 
L 0 0 
z
" style="fill:#ffffff;"/>
  </g>
  <g id="axes_1">
   <g id="patch_2">
    <path d="M 45.692188 273.312 
L 402.812188 273.312 
L 402.812188 7.2 
L 45.692188 7.2 
z
" style="fill:#ffffff;"/>
   </g>
   <g id="patch_3">
    <path clip-path="url(#pdbca1fd1c9)" d="z
" style="fill:#ffbb78;stroke:#ffffff;stroke-linejoin:miter;"/>
   </g>
   <g id="patch_4">
    <path clip-path="url(#pdbca1fd1c9)" d="M 66.034466 273.312 
L 61.924915 273.312 
L 61.924915 273.213245 
L 66.034466 273.213245 
z
" style="fill:#ffbb78;stroke:#ffffff;stroke-linejoin:miter;"/>
   </g>
   <g id="patch_5">
    <path clip-path="url(#pdbca1fd1c9)" d="M 74.253568 273.312 
L 66.034466 273.312 
L 66.034466 272.900005 
L 74.253568 272.900005 
z
" style="fill:#ffbb78;stroke:#ffffff;stroke-linejoin:miter;"/>
   </g>
   <g id="patch_6">
    <path clip-path="url(#pdbca1fd1c9)" d="M 78.36312 273.312 
L 74.253568 273.312 
L 74.253568 272.494183 
L 78.36312 272.494183 
z
" style="fill:#ffbb78;stroke:#ffffff;stroke-linejoin:miter;"/>
   </g>
   <g id="patch_7">
    <path clip-path="url(#pdbca1fd1c9)" d="M 82.472671 273.312 
L 78.36312 273.312 
L 78.36312 271.849187 
L 82.472671 271.849187 
z
" style="fill:#ffbb78;stroke:#ffffff;stroke-linejoin:miter;"/>
   </g>
   <g id="patch_8">
    <path clip-path="url(#pdbca1fd1c9)" d="M 86.582222 273.312 
L 82.472671 273.312 
L 82.472671 271.170245 
L 86.582222 271.170245 
z
" style="fill:#ffbb78;stroke:#ffffff;stroke-linejoin:miter;"/>
   </g>
   <g id="patch_9">
    <path clip-path="url(#pdbca1fd1c9)" d="M 90.691773 273.312 
L 86.582222 273.312 
L 86.582222 270.892496 
L 90.691773 270.892496 
z
" style="fill:#ffbb78;stroke:#ffffff;stroke-linejoin:miter;"/>
   </g>
   <g id="patch_10">
    <path clip-path="url(#pdbca1fd1c9)" d="M 94.801324 273.312 
L 90.691773 273.312 
L 90.691773 267.772446 
L 94.801324 267.772446 
z
" style="fill:#ffbb78;stroke:#ffffff;stroke-linejoin:miter;"/>
   </g>
   <g id="patch_11">
    <path clip-path="url(#pdbca1fd1c9)" d="M 98.910876 273.312 
L 94.801324 273.312 
L 94.801324 268.769257 
L 98.910876 268.769257 
z
" style="fill:#ffbb78;stroke:#ffffff;stroke-linejoin:miter;"/>
   </g>
   <g id="patch_12">
    <path clip-path="url(#pdbca1fd1c9)" d="M 103.020427 273.312 
L 98.910876 273.312 
L 98.910876 267.902062 
L 103.020427 267.902062 
z
" style="fill:#ffbb78;stroke:#ffffff;stroke-linejoin:miter;"/>
   </g>
   <g id="patch_13">
    <path clip-path="url(#pdbca1fd1c9)" d="M 107.129978 273.312 
L 103.020427 273.312 
L 103.020427 267.115106 
L 107.129978 267.115106 
z
" style="fill:#ffbb78;stroke:#ffffff;stroke-linejoin:miter;"/>
   </g>
   <g id="patch_14">
    <path clip-path="url(#pdbca1fd1c9)" d="M 111.239529 273.312 
L 107.129978 273.312 
L 107.129978 266.74786 
L 111.239529 266.74786 
z
" style="fill:#ffbb78;stroke:#ffffff;stroke-linejoin:miter;"/>
   </g>
   <g id="patch_15">
    <path clip-path="url(#pdbca1fd1c9)" d="M 115.34908 273.312 
L 111.239529 273.312 
L 111.239529 265.275789 
L 115.34908 265.275789 
z
" style="fill:#ffbb78;stroke:#ffffff;stroke-linejoin:miter;"/>
   </g>
   <g id="patch_16">
    <path clip-path="url(#pdbca1fd1c9)" d="M 119.458632 273.312 
L 115.34908 273.312 
L 115.34908 264.565985 
L 119.458632 264.565985 
z
" style="fill:#ffbb78;stroke:#ffffff;stroke-linejoin:miter;"/>
   </g>
   <g id="patch_17">
    <path clip-path="url(#pdbca1fd1c9)" d="M 123.568183 273.312 
L 119.458632 273.312 
L 119.458632 263.316114 
L 123.568183 263.316114 
z
" style="fill:#ffbb78;stroke:#ffffff;stroke-linejoin:miter;"/>
   </g>
   <g id="patch_18">
    <path clip-path="url(#pdbca1fd1c9)" d="M 127.677734 273.312 
L 123.568183 273.312 
L 123.568183 261.202134 
L 127.677734 261.202134 
z
" style="fill:#ffbb78;stroke:#ffffff;stroke-linejoin:miter;"/>
   </g>
   <g id="patch_19">
    <path clip-path="url(#pdbca1fd1c9)" d="M 131.787285 273.312 
L 127.677734 273.312 
L 127.677734 261.825526 
L 131.787285 261.825526 
z
" style="fill:#ffbb78;stroke:#ffffff;stroke-linejoin:miter;"/>
   </g>
   <g id="patch_20">
    <path clip-path="url(#pdbca1fd1c9)" d="M 135.896837 273.312 
L 131.787285 273.312 
L 131.787285 263.421041 
L 135.896837 263.421041 
z
" style="fill:#ffbb78;stroke:#ffffff;stroke-linejoin:miter;"/>
   </g>
   <g id="patch_21">
    <path clip-path="url(#pdbca1fd1c9)" d="M 140.006388 273.312 
L 135.896837 273.312 
L 135.896837 262.803821 
L 140.006388 262.803821 
z
" style="fill:#ffbb78;stroke:#ffffff;stroke-linejoin:miter;"/>
   </g>
   <g id="patch_22">
    <path clip-path="url(#pdbca1fd1c9)" d="M 144.115939 273.312 
L 140.006388 273.312 
L 140.006388 265.065934 
L 144.115939 265.065934 
z
" style="fill:#ffbb78;stroke:#ffffff;stroke-linejoin:miter;"/>
   </g>
   <g id="patch_23">
    <path clip-path="url(#pdbca1fd1c9)" d="M 148.22549 273.312 
L 144.115939 273.312 
L 144.115939 264.066037 
L 148.22549 264.066037 
z
" style="fill:#ffbb78;stroke:#ffffff;stroke-linejoin:miter;"/>
   </g>
   <g id="patch_24">
    <path clip-path="url(#pdbca1fd1c9)" d="M 152.335041 273.312 
L 148.22549 273.312 
L 148.22549 265.445525 
L 152.335041 265.445525 
z
" style="fill:#ffbb78;stroke:#ffffff;stroke-linejoin:miter;"/>
   </g>
   <g id="patch_25">
    <path clip-path="url(#pdbca1fd1c9)" d="M 156.444593 273.312 
L 152.335041 273.312 
L 152.335041 266.92994 
L 156.444593 266.92994 
z
" style="fill:#ffbb78;stroke:#ffffff;stroke-linejoin:miter;"/>
   </g>
   <g id="patch_26">
    <path clip-path="url(#pdbca1fd1c9)" d="M 160.554144 273.312 
L 156.444593 273.312 
L 156.444593 267.676777 
L 160.554144 267.676777 
z
" style="fill:#ffbb78;stroke:#ffffff;stroke-linejoin:miter;"/>
   </g>
   <g id="patch_27">
    <path clip-path="url(#pdbca1fd1c9)" d="M 164.663695 273.312 
L 160.554144 273.312 
L 160.554144 266.966973 
L 164.663695 266.966973 
z
" style="fill:#ffbb78;stroke:#ffffff;stroke-linejoin:miter;"/>
   </g>
   <g id="patch_28">
    <path clip-path="url(#pdbca1fd1c9)" d="M 168.773246 273.312 
L 164.663695 273.312 
L 164.663695 268.599521 
L 168.773246 268.599521 
z
" style="fill:#ffbb78;stroke:#ffffff;stroke-linejoin:miter;"/>
   </g>
   <g id="patch_29">
    <path clip-path="url(#pdbca1fd1c9)" d="M 172.882797 273.312 
L 168.773246 273.312 
L 168.773246 269.371047 
L 172.882797 269.371047 
z
" style="fill:#ffbb78;stroke:#ffffff;stroke-linejoin:miter;"/>
   </g>
   <g id="patch_30">
    <path clip-path="url(#pdbca1fd1c9)" d="z
" style="fill:#ffbb78;stroke:#ffffff;stroke-linejoin:miter;"/>
   </g>
   <g id="patch_31">
    <path clip-path="url(#pdbca1fd1c9)" d="M 181.1019 273.312 
L 176.992349 273.312 
L 176.992349 267.439147 
L 181.1019 267.439147 
z
" style="fill:#ffbb78;stroke:#ffffff;stroke-linejoin:miter;"/>
   </g>
   <g id="patch_32">
    <path clip-path="url(#pdbca1fd1c9)" d="M 185.211451 273.312 
L 181.1019 273.312 
L 181.1019 267.534816 
L 185.211451 267.534816 
z
" style="fill:#ffbb78;stroke:#ffffff;stroke-linejoin:miter;"/>
   </g>
   <g id="patch_33">
    <path clip-path="url(#pdbca1fd1c9)" d="M 189.321002 273.312 
L 185.211451 273.312 
L 185.211451 271.63316 
L 189.321002 271.63316 
z
" style="fill:#ffbb78;stroke:#ffffff;stroke-linejoin:miter;"/>
   </g>
   <g id="patch_34">
    <path clip-path="url(#pdbca1fd1c9)" d="M 193.430553 273.312 
L 189.321002 273.312 
L 189.321002 270.161089 
L 193.430553 270.161089 
z
" style="fill:#ffbb78;stroke:#ffffff;stroke-linejoin:miter;"/>
   </g>
   <g id="patch_35">
    <path clip-path="url(#pdbca1fd1c9)" d="M 197.540105 273.312 
L 193.430553 273.312 
L 193.430553 270.148745 
L 197.540105 270.148745 
z
" style="fill:#ffbb78;stroke:#ffffff;stroke-linejoin:miter;"/>
   </g>
   <g id="patch_36">
    <path clip-path="url(#pdbca1fd1c9)" d="M 201.649656 273.312 
L 197.540105 273.312 
L 197.540105 270.173434 
L 201.649656 270.173434 
z
" style="fill:#ffbb78;stroke:#ffffff;stroke-linejoin:miter;"/>
   </g>
   <g id="patch_37">
    <path clip-path="url(#pdbca1fd1c9)" d="M 205.759207 273.312 
L 201.649656 273.312 
L 201.649656 271.707227 
L 205.759207 271.707227 
z
" style="fill:#ffbb78;stroke:#ffffff;stroke-linejoin:miter;"/>
   </g>
   <g id="patch_38">
    <path clip-path="url(#pdbca1fd1c9)" d="M 209.868758 273.312 
L 205.759207 273.312 
L 205.759207 270.509819 
L 209.868758 270.509819 
z
" style="fill:#ffbb78;stroke:#ffffff;stroke-linejoin:miter;"/>
   </g>
   <g id="patch_39">
    <path clip-path="url(#pdbca1fd1c9)" d="M 213.978309 273.312 
L 209.868758 273.312 
L 209.868758 270.627091 
L 213.978309 270.627091 
z
" style="fill:#ffbb78;stroke:#ffffff;stroke-linejoin:miter;"/>
   </g>
   <g id="patch_40">
    <path clip-path="url(#pdbca1fd1c9)" d="M 218.087861 273.312 
L 213.978309 273.312 
L 213.978309 269.654968 
L 218.087861 269.654968 
z
" style="fill:#ffbb78;stroke:#ffffff;stroke-linejoin:miter;"/>
   </g>
   <g id="patch_41">
    <path clip-path="url(#pdbca1fd1c9)" d="M 222.197412 273.312 
L 218.087861 273.312 
L 218.087861 269.121073 
L 222.197412 269.121073 
z
" style="fill:#ffbb78;stroke:#ffffff;stroke-linejoin:miter;"/>
   </g>
   <g id="patch_42">
    <path clip-path="url(#pdbca1fd1c9)" d="M 226.306963 273.312 
L 222.197412 273.312 
L 222.197412 267.908234 
L 226.306963 267.908234 
z
" style="fill:#ffbb78;stroke:#ffffff;stroke-linejoin:miter;"/>
   </g>
   <g id="patch_43">
    <path clip-path="url(#pdbca1fd1c9)" d="M 230.416514 273.312 
L 226.306963 273.312 
L 226.306963 267.960698 
L 230.416514 267.960698 
z
" style="fill:#ffbb78;stroke:#ffffff;stroke-linejoin:miter;"/>
   </g>
   <g id="patch_44">
    <path clip-path="url(#pdbca1fd1c9)" d="M 234.526066 273.312 
L 230.416514 273.312 
L 230.416514 267.723068 
L 234.526066 267.723068 
z
" style="fill:#ffbb78;stroke:#ffffff;stroke-linejoin:miter;"/>
   </g>
   <g id="patch_45">
    <path clip-path="url(#pdbca1fd1c9)" d="M 238.635617 273.312 
L 234.526066 273.312 
L 234.526066 267.380511 
L 238.635617 267.380511 
z
" style="fill:#ffbb78;stroke:#ffffff;stroke-linejoin:miter;"/>
   </g>
   <g id="patch_46">
    <path clip-path="url(#pdbca1fd1c9)" d="M 242.745168 273.312 
L 238.635617 273.312 
L 238.635617 266.460852 
L 242.745168 266.460852 
z
" style="fill:#ffbb78;stroke:#ffffff;stroke-linejoin:miter;"/>
   </g>
   <g id="patch_47">
    <path clip-path="url(#pdbca1fd1c9)" d="M 246.854719 273.312 
L 242.745168 273.312 
L 242.745168 266.389872 
L 246.854719 266.389872 
z
" style="fill:#ffbb78;stroke:#ffffff;stroke-linejoin:miter;"/>
   </g>
   <g id="patch_48">
    <path clip-path="url(#pdbca1fd1c9)" d="M 250.96427 273.312 
L 246.854719 273.312 
L 246.854719 264.488833 
L 250.96427 264.488833 
z
" style="fill:#ffbb78;stroke:#ffffff;stroke-linejoin:miter;"/>
   </g>
   <g id="patch_49">
    <path clip-path="url(#pdbca1fd1c9)" d="M 255.073822 273.312 
L 250.96427 273.312 
L 250.96427 261.785407 
L 255.073822 261.785407 
z
" style="fill:#ffbb78;stroke:#ffffff;stroke-linejoin:miter;"/>
   </g>
   <g id="patch_50">
    <path clip-path="url(#pdbca1fd1c9)" d="M 259.183373 273.312 
L 255.073822 273.312 
L 255.073822 262.019951 
L 259.183373 262.019951 
z
" style="fill:#ffbb78;stroke:#ffffff;stroke-linejoin:miter;"/>
   </g>
   <g id="patch_51">
    <path clip-path="url(#pdbca1fd1c9)" d="M 263.292924 273.312 
L 259.183373 273.312 
L 259.183373 260.995365 
L 263.292924 260.995365 
z
" style="fill:#ffbb78;stroke:#ffffff;stroke-linejoin:miter;"/>
   </g>
   <g id="patch_52">
    <path clip-path="url(#pdbca1fd1c9)" d="M 267.402475 273.312 
L 263.292924 273.312 
L 263.292924 260.581827 
L 267.402475 260.581827 
z
" style="fill:#ffbb78;stroke:#ffffff;stroke-linejoin:miter;"/>
   </g>
   <g id="patch_53">
    <path clip-path="url(#pdbca1fd1c9)" d="M 271.512026 273.312 
L 267.402475 273.312 
L 267.402475 259.041862 
L 271.512026 259.041862 
z
" style="fill:#ffbb78;stroke:#ffffff;stroke-linejoin:miter;"/>
   </g>
   <g id="patch_54">
    <path clip-path="url(#pdbca1fd1c9)" d="M 275.621578 273.312 
L 271.512026 273.312 
L 271.512026 252.567219 
L 275.621578 252.567219 
z
" style="fill:#ffbb78;stroke:#ffffff;stroke-linejoin:miter;"/>
   </g>
   <g id="patch_55">
    <path clip-path="url(#pdbca1fd1c9)" d="M 279.731129 273.312 
L 275.621578 273.312 
L 275.621578 249.518149 
L 279.731129 249.518149 
z
" style="fill:#ffbb78;stroke:#ffffff;stroke-linejoin:miter;"/>
   </g>
   <g id="patch_56">
    <path clip-path="url(#pdbca1fd1c9)" d="M 283.84068 273.312 
L 279.731129 273.312 
L 279.731129 243.126831 
L 283.84068 243.126831 
z
" style="fill:#ffbb78;stroke:#ffffff;stroke-linejoin:miter;"/>
   </g>
   <g id="patch_57">
    <path clip-path="url(#pdbca1fd1c9)" d="M 287.950231 273.312 
L 283.84068 273.312 
L 283.84068 239.432766 
L 287.950231 239.432766 
z
" style="fill:#ffbb78;stroke:#ffffff;stroke-linejoin:miter;"/>
   </g>
   <g id="patch_58">
    <path clip-path="url(#pdbca1fd1c9)" d="M 292.059782 273.312 
L 287.950231 273.312 
L 287.950231 230.125081 
L 292.059782 230.125081 
z
" style="fill:#ffbb78;stroke:#ffffff;stroke-linejoin:miter;"/>
   </g>
   <g id="patch_59">
    <path clip-path="url(#pdbca1fd1c9)" d="M 296.169334 273.312 
L 292.059782 273.312 
L 292.059782 237.510124 
L 296.169334 237.510124 
z
" style="fill:#ffbb78;stroke:#ffffff;stroke-linejoin:miter;"/>
   </g>
   <g id="patch_60">
    <path clip-path="url(#pdbca1fd1c9)" d="M 300.278885 273.312 
L 296.169334 273.312 
L 296.169334 236.232478 
L 300.278885 236.232478 
z
" style="fill:#ffbb78;stroke:#ffffff;stroke-linejoin:miter;"/>
   </g>
   <g id="patch_61">
    <path clip-path="url(#pdbca1fd1c9)" d="M 304.388436 273.312 
L 300.278885 273.312 
L 300.278885 215.564849 
L 304.388436 215.564849 
z
" style="fill:#ffbb78;stroke:#ffffff;stroke-linejoin:miter;"/>
   </g>
   <g id="patch_62">
    <path clip-path="url(#pdbca1fd1c9)" d="M 308.497987 273.312 
L 304.388436 273.312 
L 304.388436 198.523391 
L 308.497987 198.523391 
z
" style="fill:#ffbb78;stroke:#ffffff;stroke-linejoin:miter;"/>
   </g>
   <g id="patch_63">
    <path clip-path="url(#pdbca1fd1c9)" d="M 312.607538 273.312 
L 308.497987 273.312 
L 308.497987 174.556718 
L 312.607538 174.556718 
z
" style="fill:#ffbb78;stroke:#ffffff;stroke-linejoin:miter;"/>
   </g>
   <g id="patch_64">
    <path clip-path="url(#pdbca1fd1c9)" d="M 316.71709 273.312 
L 312.607538 273.312 
L 312.607538 192.860393 
L 316.71709 192.860393 
z
" style="fill:#ffbb78;stroke:#ffffff;stroke-linejoin:miter;"/>
   </g>
   <g id="patch_65">
    <path clip-path="url(#pdbca1fd1c9)" d="M 320.826641 273.312 
L 316.71709 273.312 
L 316.71709 147.436049 
L 320.826641 147.436049 
z
" style="fill:#ffbb78;stroke:#ffffff;stroke-linejoin:miter;"/>
   </g>
   <g id="patch_66">
    <path clip-path="url(#pdbca1fd1c9)" d="M 324.936192 273.312 
L 320.826641 273.312 
L 320.826641 150.401794 
L 324.936192 150.401794 
z
" style="fill:#ffbb78;stroke:#ffffff;stroke-linejoin:miter;"/>
   </g>
   <g id="patch_67">
    <path clip-path="url(#pdbca1fd1c9)" d="M 329.045743 273.312 
L 324.936192 273.312 
L 324.936192 145.47946 
L 329.045743 145.47946 
z
" style="fill:#ffbb78;stroke:#ffffff;stroke-linejoin:miter;"/>
   </g>
   <g id="patch_68">
    <path clip-path="url(#pdbca1fd1c9)" d="M 333.155295 273.312 
L 329.045743 273.312 
L 329.045743 123.620596 
L 333.155295 123.620596 
z
" style="fill:#ffbb78;stroke:#ffffff;stroke-linejoin:miter;"/>
   </g>
   <g id="patch_69">
    <path clip-path="url(#pdbca1fd1c9)" d="M 337.264846 273.312 
L 333.155295 273.312 
L 333.155295 129.869953 
L 337.264846 129.869953 
z
" style="fill:#ffbb78;stroke:#ffffff;stroke-linejoin:miter;"/>
   </g>
   <g id="patch_70">
    <path clip-path="url(#pdbca1fd1c9)" d="M 341.374397 273.312 
L 337.264846 273.312 
L 337.264846 80.387385 
L 341.374397 80.387385 
z
" style="fill:#ffbb78;stroke:#ffffff;stroke-linejoin:miter;"/>
   </g>
   <g id="patch_71">
    <path clip-path="url(#pdbca1fd1c9)" d="M 345.483948 273.312 
L 341.374397 273.312 
L 341.374397 78.403021 
L 345.483948 78.403021 
z
" style="fill:#ffbb78;stroke:#ffffff;stroke-linejoin:miter;"/>
   </g>
   <g id="patch_72">
    <path clip-path="url(#pdbca1fd1c9)" d="M 349.593499 273.312 
L 345.483948 273.312 
L 345.483948 93.117558 
L 349.593499 93.117558 
z
" style="fill:#ffbb78;stroke:#ffffff;stroke-linejoin:miter;"/>
   </g>
   <g id="patch_73">
    <path clip-path="url(#pdbca1fd1c9)" d="M 353.703051 273.312 
L 349.593499 273.312 
L 349.593499 95.34881 
L 353.703051 95.34881 
z
" style="fill:#ffbb78;stroke:#ffffff;stroke-linejoin:miter;"/>
   </g>
   <g id="patch_74">
    <path clip-path="url(#pdbca1fd1c9)" d="M 357.812602 273.312 
L 353.703051 273.312 
L 353.703051 48.841245 
L 357.812602 48.841245 
z
" style="fill:#ffbb78;stroke:#ffffff;stroke-linejoin:miter;"/>
   </g>
   <g id="patch_75">
    <path clip-path="url(#pdbca1fd1c9)" d="M 361.922153 273.312 
L 357.812602 273.312 
L 357.812602 48.569668 
L 361.922153 48.569668 
z
" style="fill:#ffbb78;stroke:#ffffff;stroke-linejoin:miter;"/>
   </g>
   <g id="patch_76">
    <path clip-path="url(#pdbca1fd1c9)" d="M 366.031704 273.312 
L 361.922153 273.312 
L 361.922153 39.221863 
L 366.031704 39.221863 
z
" style="fill:#ffbb78;stroke:#ffffff;stroke-linejoin:miter;"/>
   </g>
   <g id="patch_77">
    <path clip-path="url(#pdbca1fd1c9)" d="M 370.141255 273.312 
L 366.031704 273.312 
L 366.031704 28.485312 
L 370.141255 28.485312 
z
" style="fill:#ffbb78;stroke:#ffffff;stroke-linejoin:miter;"/>
   </g>
   <g id="patch_78">
    <path clip-path="url(#pdbca1fd1c9)" d="M 374.250807 273.312 
L 370.141255 273.312 
L 370.141255 19.872 
L 374.250807 19.872 
z
" style="fill:#ffbb78;stroke:#ffffff;stroke-linejoin:miter;"/>
   </g>
   <g id="patch_79">
    <path clip-path="url(#pdbca1fd1c9)" d="M 378.360358 273.312 
L 374.250807 273.312 
L 374.250807 35.071055 
L 378.360358 35.071055 
z
" style="fill:#ffbb78;stroke:#ffffff;stroke-linejoin:miter;"/>
   </g>
   <g id="patch_80">
    <path clip-path="url(#pdbca1fd1c9)" d="M 382.469909 273.312 
L 378.360358 273.312 
L 378.360358 61.093072 
L 382.469909 61.093072 
z
" style="fill:#ffbb78;stroke:#ffffff;stroke-linejoin:miter;"/>
   </g>
   <g id="patch_81">
    <path clip-path="url(#pdbca1fd1c9)" d="M 386.57946 273.312 
L 382.469909 273.312 
L 382.469909 46.054494 
L 386.57946 46.054494 
z
" style="fill:#ffbb78;stroke:#ffffff;stroke-linejoin:miter;"/>
   </g>
   <g id="patch_82">
    <path clip-path="url(#pdbca1fd1c9)" d="z
" style="fill:#ff7f0e;stroke:#ffffff;stroke-linejoin:miter;"/>
   </g>
   <g id="patch_83">
    <path clip-path="url(#pdbca1fd1c9)" d="M 66.034466 273.312 
L 61.924915 273.312 
L 61.924915 273.216331 
L 66.034466 273.216331 
z
" style="fill:#ff7f0e;stroke:#ffffff;stroke-linejoin:miter;"/>
   </g>
   <g id="patch_84">
    <path clip-path="url(#pdbca1fd1c9)" d="M 74.253568 273.312 
L 66.034466 273.312 
L 66.034466 272.907721 
L 74.253568 272.907721 
z
" style="fill:#ff7f0e;stroke:#ffffff;stroke-linejoin:miter;"/>
   </g>
   <g id="patch_85">
    <path clip-path="url(#pdbca1fd1c9)" d="M 78.36312 273.312 
L 74.253568 273.312 
L 74.253568 272.512699 
L 78.36312 272.512699 
z
" style="fill:#ff7f0e;stroke:#ffffff;stroke-linejoin:miter;"/>
   </g>
   <g id="patch_86">
    <path clip-path="url(#pdbca1fd1c9)" d="M 82.472671 273.312 
L 78.36312 273.312 
L 78.36312 271.87079 
L 82.472671 271.87079 
z
" style="fill:#ff7f0e;stroke:#ffffff;stroke-linejoin:miter;"/>
   </g>
   <g id="patch_87">
    <path clip-path="url(#pdbca1fd1c9)" d="M 86.582222 273.312 
L 82.472671 273.312 
L 82.472671 271.188761 
L 86.582222 271.188761 
z
" style="fill:#ff7f0e;stroke:#ffffff;stroke-linejoin:miter;"/>
   </g>
   <g id="patch_88">
    <path clip-path="url(#pdbca1fd1c9)" d="M 90.691773 273.312 
L 86.582222 273.312 
L 86.582222 270.978906 
L 90.691773 270.978906 
z
" style="fill:#ff7f0e;stroke:#ffffff;stroke-linejoin:miter;"/>
   </g>
   <g id="patch_89">
    <path clip-path="url(#pdbca1fd1c9)" d="M 94.801324 273.312 
L 90.691773 273.312 
L 90.691773 267.76936 
L 94.801324 267.76936 
z
" style="fill:#ff7f0e;stroke:#ffffff;stroke-linejoin:miter;"/>
   </g>
   <g id="patch_90">
    <path clip-path="url(#pdbca1fd1c9)" d="M 98.910876 273.312 
L 94.801324 273.312 
L 94.801324 268.80629 
L 98.910876 268.80629 
z
" style="fill:#ff7f0e;stroke:#ffffff;stroke-linejoin:miter;"/>
   </g>
   <g id="patch_91">
    <path clip-path="url(#pdbca1fd1c9)" d="M 103.020427 273.312 
L 98.910876 273.312 
L 98.910876 267.945268 
L 103.020427 267.945268 
z
" style="fill:#ff7f0e;stroke:#ffffff;stroke-linejoin:miter;"/>
   </g>
   <g id="patch_92">
    <path clip-path="url(#pdbca1fd1c9)" d="M 107.129978 273.312 
L 103.020427 273.312 
L 103.020427 267.189173 
L 107.129978 267.189173 
z
" style="fill:#ff7f0e;stroke:#ffffff;stroke-linejoin:miter;"/>
   </g>
   <g id="patch_93">
    <path clip-path="url(#pdbca1fd1c9)" d="M 111.239529 273.312 
L 107.129978 273.312 
L 107.129978 266.828099 
L 111.239529 266.828099 
z
" style="fill:#ff7f0e;stroke:#ffffff;stroke-linejoin:miter;"/>
   </g>
   <g id="patch_94">
    <path clip-path="url(#pdbca1fd1c9)" d="M 115.34908 273.312 
L 111.239529 273.312 
L 111.239529 265.318994 
L 115.34908 265.318994 
z
" style="fill:#ff7f0e;stroke:#ffffff;stroke-linejoin:miter;"/>
   </g>
   <g id="patch_95">
    <path clip-path="url(#pdbca1fd1c9)" d="M 119.458632 273.312 
L 115.34908 273.312 
L 115.34908 264.587588 
L 119.458632 264.587588 
z
" style="fill:#ff7f0e;stroke:#ffffff;stroke-linejoin:miter;"/>
   </g>
   <g id="patch_96">
    <path clip-path="url(#pdbca1fd1c9)" d="M 123.568183 273.312 
L 119.458632 273.312 
L 119.458632 263.33463 
L 123.568183 263.33463 
z
" style="fill:#ff7f0e;stroke:#ffffff;stroke-linejoin:miter;"/>
   </g>
   <g id="patch_97">
    <path clip-path="url(#pdbca1fd1c9)" d="M 127.677734 273.312 
L 123.568183 273.312 
L 123.568183 261.300889 
L 127.677734 261.300889 
z
" style="fill:#ff7f0e;stroke:#ffffff;stroke-linejoin:miter;"/>
   </g>
   <g id="patch_98">
    <path clip-path="url(#pdbca1fd1c9)" d="M 131.787285 273.312 
L 127.677734 273.312 
L 127.677734 261.902679 
L 131.787285 261.902679 
z
" style="fill:#ff7f0e;stroke:#ffffff;stroke-linejoin:miter;"/>
   </g>
   <g id="patch_99">
    <path clip-path="url(#pdbca1fd1c9)" d="M 135.896837 273.312 
L 131.787285 273.312 
L 131.787285 263.587691 
L 135.896837 263.587691 
z
" style="fill:#ff7f0e;stroke:#ffffff;stroke-linejoin:miter;"/>
   </g>
   <g id="patch_100">
    <path clip-path="url(#pdbca1fd1c9)" d="M 140.006388 273.312 
L 135.896837 273.312 
L 135.896837 262.859371 
L 140.006388 262.859371 
z
" style="fill:#ff7f0e;stroke:#ffffff;stroke-linejoin:miter;"/>
   </g>
   <g id="patch_101">
    <path clip-path="url(#pdbca1fd1c9)" d="M 144.115939 273.312 
L 140.006388 273.312 
L 140.006388 265.12457 
L 144.115939 265.12457 
z
" style="fill:#ff7f0e;stroke:#ffffff;stroke-linejoin:miter;"/>
   </g>
   <g id="patch_102">
    <path clip-path="url(#pdbca1fd1c9)" d="M 148.22549 273.312 
L 144.115939 273.312 
L 144.115939 264.10307 
L 148.22549 264.10307 
z
" style="fill:#ff7f0e;stroke:#ffffff;stroke-linejoin:miter;"/>
   </g>
   <g id="patch_103">
    <path clip-path="url(#pdbca1fd1c9)" d="M 152.335041 273.312 
L 148.22549 273.312 
L 148.22549 265.680068 
L 152.335041 265.680068 
z
" style="fill:#ff7f0e;stroke:#ffffff;stroke-linejoin:miter;"/>
   </g>
   <g id="patch_104">
    <path clip-path="url(#pdbca1fd1c9)" d="M 156.444593 273.312 
L 152.335041 273.312 
L 152.335041 267.071901 
L 156.444593 267.071901 
z
" style="fill:#ff7f0e;stroke:#ffffff;stroke-linejoin:miter;"/>
   </g>
   <g id="patch_105">
    <path clip-path="url(#pdbca1fd1c9)" d="M 160.554144 273.312 
L 156.444593 273.312 
L 156.444593 267.695293 
L 160.554144 267.695293 
z
" style="fill:#ff7f0e;stroke:#ffffff;stroke-linejoin:miter;"/>
   </g>
   <g id="patch_106">
    <path clip-path="url(#pdbca1fd1c9)" d="M 164.663695 273.312 
L 160.554144 273.312 
L 160.554144 267.145967 
L 164.663695 267.145967 
z
" style="fill:#ff7f0e;stroke:#ffffff;stroke-linejoin:miter;"/>
   </g>
   <g id="patch_107">
    <path clip-path="url(#pdbca1fd1c9)" d="M 168.773246 273.312 
L 164.663695 273.312 
L 164.663695 268.66433 
L 168.773246 268.66433 
z
" style="fill:#ff7f0e;stroke:#ffffff;stroke-linejoin:miter;"/>
   </g>
   <g id="patch_108">
    <path clip-path="url(#pdbca1fd1c9)" d="M 172.882797 273.312 
L 168.773246 273.312 
L 168.773246 269.855565 
L 172.882797 269.855565 
z
" style="fill:#ff7f0e;stroke:#ffffff;stroke-linejoin:miter;"/>
   </g>
   <g id="patch_109">
    <path clip-path="url(#pdbca1fd1c9)" d="z
" style="fill:#ff7f0e;stroke:#ffffff;stroke-linejoin:miter;"/>
   </g>
   <g id="patch_110">
    <path clip-path="url(#pdbca1fd1c9)" d="M 181.1019 273.312 
L 176.992349 273.312 
L 176.992349 267.470008 
L 181.1019 267.470008 
z
" style="fill:#ff7f0e;stroke:#ffffff;stroke-linejoin:miter;"/>
   </g>
   <g id="patch_111">
    <path clip-path="url(#pdbca1fd1c9)" d="M 185.211451 273.312 
L 181.1019 273.312 
L 181.1019 267.905148 
L 185.211451 267.905148 
z
" style="fill:#ff7f0e;stroke:#ffffff;stroke-linejoin:miter;"/>
   </g>
   <g id="patch_112">
    <path clip-path="url(#pdbca1fd1c9)" d="M 189.321002 273.312 
L 185.211451 273.312 
L 185.211451 272.092989 
L 189.321002 272.092989 
z
" style="fill:#ff7f0e;stroke:#ffffff;stroke-linejoin:miter;"/>
   </g>
   <g id="patch_113">
    <path clip-path="url(#pdbca1fd1c9)" d="M 193.430553 273.312 
L 189.321002 273.312 
L 189.321002 270.553024 
L 193.430553 270.553024 
z
" style="fill:#ff7f0e;stroke:#ffffff;stroke-linejoin:miter;"/>
   </g>
   <g id="patch_114">
    <path clip-path="url(#pdbca1fd1c9)" d="M 197.540105 273.312 
L 193.430553 273.312 
L 193.430553 270.772138 
L 197.540105 270.772138 
z
" style="fill:#ff7f0e;stroke:#ffffff;stroke-linejoin:miter;"/>
   </g>
   <g id="patch_115">
    <path clip-path="url(#pdbca1fd1c9)" d="M 201.649656 273.312 
L 197.540105 273.312 
L 197.540105 271.306033 
L 201.649656 271.306033 
z
" style="fill:#ff7f0e;stroke:#ffffff;stroke-linejoin:miter;"/>
   </g>
   <g id="patch_116">
    <path clip-path="url(#pdbca1fd1c9)" d="M 205.759207 273.312 
L 201.649656 273.312 
L 201.649656 272.633057 
L 205.759207 272.633057 
z
" style="fill:#ff7f0e;stroke:#ffffff;stroke-linejoin:miter;"/>
   </g>
   <g id="patch_117">
    <path clip-path="url(#pdbca1fd1c9)" d="M 209.868758 273.312 
L 205.759207 273.312 
L 205.759207 271.713399 
L 209.868758 271.713399 
z
" style="fill:#ff7f0e;stroke:#ffffff;stroke-linejoin:miter;"/>
   </g>
   <g id="patch_118">
    <path clip-path="url(#pdbca1fd1c9)" d="M 213.978309 273.312 
L 209.868758 273.312 
L 209.868758 272.043612 
L 213.978309 272.043612 
z
" style="fill:#ff7f0e;stroke:#ffffff;stroke-linejoin:miter;"/>
   </g>
   <g id="patch_119">
    <path clip-path="url(#pdbca1fd1c9)" d="M 218.087861 273.312 
L 213.978309 273.312 
L 213.978309 271.957201 
L 218.087861 271.957201 
z
" style="fill:#ff7f0e;stroke:#ffffff;stroke-linejoin:miter;"/>
   </g>
   <g id="patch_120">
    <path clip-path="url(#pdbca1fd1c9)" d="M 222.197412 273.312 
L 218.087861 273.312 
L 218.087861 272.2905 
L 222.197412 272.2905 
z
" style="fill:#ff7f0e;stroke:#ffffff;stroke-linejoin:miter;"/>
   </g>
   <g id="patch_121">
    <path clip-path="url(#pdbca1fd1c9)" d="M 226.306963 273.312 
L 222.197412 273.312 
L 222.197412 271.975718 
L 226.306963 271.975718 
z
" style="fill:#ff7f0e;stroke:#ffffff;stroke-linejoin:miter;"/>
   </g>
   <g id="patch_122">
    <path clip-path="url(#pdbca1fd1c9)" d="M 230.416514 273.312 
L 226.306963 273.312 
L 226.306963 271.540577 
L 230.416514 271.540577 
z
" style="fill:#ff7f0e;stroke:#ffffff;stroke-linejoin:miter;"/>
   </g>
   <g id="patch_123">
    <path clip-path="url(#pdbca1fd1c9)" d="M 234.526066 273.312 
L 230.416514 273.312 
L 230.416514 272.676263 
L 234.526066 272.676263 
z
" style="fill:#ff7f0e;stroke:#ffffff;stroke-linejoin:miter;"/>
   </g>
   <g id="patch_124">
    <path clip-path="url(#pdbca1fd1c9)" d="M 238.635617 273.312 
L 234.526066 273.312 
L 234.526066 272.910807 
L 238.635617 272.910807 
z
" style="fill:#ff7f0e;stroke:#ffffff;stroke-linejoin:miter;"/>
   </g>
   <g id="patch_125">
    <path clip-path="url(#pdbca1fd1c9)" d="M 242.745168 273.312 
L 238.635617 273.312 
L 238.635617 272.94784 
L 242.745168 272.94784 
z
" style="fill:#ff7f0e;stroke:#ffffff;stroke-linejoin:miter;"/>
   </g>
   <g id="patch_126">
    <path clip-path="url(#pdbca1fd1c9)" d="M 246.854719 273.312 
L 242.745168 273.312 
L 242.745168 272.870687 
L 246.854719 272.870687 
z
" style="fill:#ff7f0e;stroke:#ffffff;stroke-linejoin:miter;"/>
   </g>
   <g id="patch_127">
    <path clip-path="url(#pdbca1fd1c9)" d="M 250.96427 273.312 
L 246.854719 273.312 
L 246.854719 272.861429 
L 250.96427 272.861429 
z
" style="fill:#ff7f0e;stroke:#ffffff;stroke-linejoin:miter;"/>
   </g>
   <g id="patch_128">
    <path clip-path="url(#pdbca1fd1c9)" d="M 255.073822 273.312 
L 250.96427 273.312 
L 250.96427 272.997218 
L 255.073822 272.997218 
z
" style="fill:#ff7f0e;stroke:#ffffff;stroke-linejoin:miter;"/>
   </g>
   <g id="patch_129">
    <path clip-path="url(#pdbca1fd1c9)" d="M 259.183373 273.312 
L 255.073822 273.312 
L 255.073822 273.170039 
L 259.183373 273.170039 
z
" style="fill:#ff7f0e;stroke:#ffffff;stroke-linejoin:miter;"/>
   </g>
   <g id="patch_130">
    <path clip-path="url(#pdbca1fd1c9)" d="M 263.292924 273.312 
L 259.183373 273.312 
L 259.183373 273.173125 
L 263.292924 273.173125 
z
" style="fill:#ff7f0e;stroke:#ffffff;stroke-linejoin:miter;"/>
   </g>
   <g id="patch_131">
    <path clip-path="url(#pdbca1fd1c9)" d="M 267.402475 273.312 
L 263.292924 273.312 
L 263.292924 273.250278 
L 267.402475 273.250278 
z
" style="fill:#ff7f0e;stroke:#ffffff;stroke-linejoin:miter;"/>
   </g>
   <g id="patch_132">
    <path clip-path="url(#pdbca1fd1c9)" d="M 271.512026 273.312 
L 267.402475 273.312 
L 267.402475 273.216331 
L 271.512026 273.216331 
z
" style="fill:#ff7f0e;stroke:#ffffff;stroke-linejoin:miter;"/>
   </g>
   <g id="patch_133">
    <path clip-path="url(#pdbca1fd1c9)" d="M 275.621578 273.312 
L 271.512026 273.312 
L 271.512026 273.231761 
L 275.621578 273.231761 
z
" style="fill:#ff7f0e;stroke:#ffffff;stroke-linejoin:miter;"/>
   </g>
   <g id="patch_134">
    <path clip-path="url(#pdbca1fd1c9)" d="M 279.731129 273.312 
L 275.621578 273.312 
L 275.621578 273.281139 
L 279.731129 273.281139 
z
" style="fill:#ff7f0e;stroke:#ffffff;stroke-linejoin:miter;"/>
   </g>
   <g id="patch_135">
    <path clip-path="url(#pdbca1fd1c9)" d="M 283.84068 273.312 
L 279.731129 273.312 
L 279.731129 273.219417 
L 283.84068 273.219417 
z
" style="fill:#ff7f0e;stroke:#ffffff;stroke-linejoin:miter;"/>
   </g>
   <g id="patch_136">
    <path clip-path="url(#pdbca1fd1c9)" d="M 287.950231 273.312 
L 283.84068 273.312 
L 283.84068 273.228675 
L 287.950231 273.228675 
z
" style="fill:#ff7f0e;stroke:#ffffff;stroke-linejoin:miter;"/>
   </g>
   <g id="patch_137">
    <path clip-path="url(#pdbca1fd1c9)" d="M 292.059782 273.312 
L 287.950231 273.312 
L 287.950231 273.222503 
L 292.059782 273.222503 
z
" style="fill:#ff7f0e;stroke:#ffffff;stroke-linejoin:miter;"/>
   </g>
   <g id="patch_138">
    <path clip-path="url(#pdbca1fd1c9)" d="M 296.169334 273.312 
L 292.059782 273.312 
L 292.059782 273.191642 
L 296.169334 273.191642 
z
" style="fill:#ff7f0e;stroke:#ffffff;stroke-linejoin:miter;"/>
   </g>
   <g id="patch_139">
    <path clip-path="url(#pdbca1fd1c9)" d="M 300.278885 273.312 
L 296.169334 273.312 
L 296.169334 273.312 
L 300.278885 273.312 
z
" style="fill:#ff7f0e;stroke:#ffffff;stroke-linejoin:miter;"/>
   </g>
   <g id="patch_140">
    <path clip-path="url(#pdbca1fd1c9)" d="M 304.388436 273.312 
L 300.278885 273.312 
L 300.278885 273.133006 
L 304.388436 273.133006 
z
" style="fill:#ff7f0e;stroke:#ffffff;stroke-linejoin:miter;"/>
   </g>
   <g id="patch_141">
    <path clip-path="url(#pdbca1fd1c9)" d="M 308.497987 273.312 
L 304.388436 273.312 
L 304.388436 272.923151 
L 308.497987 272.923151 
z
" style="fill:#ff7f0e;stroke:#ffffff;stroke-linejoin:miter;"/>
   </g>
   <g id="patch_142">
    <path clip-path="url(#pdbca1fd1c9)" d="M 312.607538 273.312 
L 308.497987 273.312 
L 308.497987 272.954012 
L 312.607538 272.954012 
z
" style="fill:#ff7f0e;stroke:#ffffff;stroke-linejoin:miter;"/>
   </g>
   <g id="patch_143">
    <path clip-path="url(#pdbca1fd1c9)" d="M 316.71709 273.312 
L 312.607538 273.312 
L 312.607538 273.05894 
L 316.71709 273.05894 
z
" style="fill:#ff7f0e;stroke:#ffffff;stroke-linejoin:miter;"/>
   </g>
   <g id="patch_144">
    <path clip-path="url(#pdbca1fd1c9)" d="M 320.826641 273.312 
L 316.71709 273.312 
L 316.71709 272.994131 
L 320.826641 272.994131 
z
" style="fill:#ff7f0e;stroke:#ffffff;stroke-linejoin:miter;"/>
   </g>
   <g id="patch_145">
    <path clip-path="url(#pdbca1fd1c9)" d="M 324.936192 273.312 
L 320.826641 273.312 
L 320.826641 272.861429 
L 324.936192 272.861429 
z
" style="fill:#ff7f0e;stroke:#ffffff;stroke-linejoin:miter;"/>
   </g>
   <g id="patch_146">
    <path clip-path="url(#pdbca1fd1c9)" d="M 329.045743 273.312 
L 324.936192 273.312 
L 324.936192 273.000304 
L 329.045743 273.000304 
z
" style="fill:#ff7f0e;stroke:#ffffff;stroke-linejoin:miter;"/>
   </g>
   <g id="patch_147">
    <path clip-path="url(#pdbca1fd1c9)" d="M 333.155295 273.312 
L 329.045743 273.312 
L 329.045743 272.96327 
L 333.155295 272.96327 
z
" style="fill:#ff7f0e;stroke:#ffffff;stroke-linejoin:miter;"/>
   </g>
   <g id="patch_148">
    <path clip-path="url(#pdbca1fd1c9)" d="M 337.264846 273.312 
L 333.155295 273.312 
L 333.155295 272.950926 
L 337.264846 272.950926 
z
" style="fill:#ff7f0e;stroke:#ffffff;stroke-linejoin:miter;"/>
   </g>
   <g id="patch_149">
    <path clip-path="url(#pdbca1fd1c9)" d="M 341.374397 273.312 
L 337.264846 273.312 
L 337.264846 272.842912 
L 341.374397 272.842912 
z
" style="fill:#ff7f0e;stroke:#ffffff;stroke-linejoin:miter;"/>
   </g>
   <g id="patch_150">
    <path clip-path="url(#pdbca1fd1c9)" d="M 345.483948 273.312 
L 341.374397 273.312 
L 341.374397 272.923151 
L 345.483948 272.923151 
z
" style="fill:#ff7f0e;stroke:#ffffff;stroke-linejoin:miter;"/>
   </g>
   <g id="patch_151">
    <path clip-path="url(#pdbca1fd1c9)" d="M 349.593499 273.312 
L 345.483948 273.312 
L 345.483948 273.031165 
L 349.593499 273.031165 
z
" style="fill:#ff7f0e;stroke:#ffffff;stroke-linejoin:miter;"/>
   </g>
   <g id="patch_152">
    <path clip-path="url(#pdbca1fd1c9)" d="M 353.703051 273.312 
L 349.593499 273.312 
L 349.593499 273.009562 
L 353.703051 273.009562 
z
" style="fill:#ff7f0e;stroke:#ffffff;stroke-linejoin:miter;"/>
   </g>
   <g id="patch_153">
    <path clip-path="url(#pdbca1fd1c9)" d="M 357.812602 273.312 
L 353.703051 273.312 
L 353.703051 273.046595 
L 357.812602 273.046595 
z
" style="fill:#ff7f0e;stroke:#ffffff;stroke-linejoin:miter;"/>
   </g>
   <g id="patch_154">
    <path clip-path="url(#pdbca1fd1c9)" d="M 361.922153 273.312 
L 357.812602 273.312 
L 357.812602 273.024992 
L 361.922153 273.024992 
z
" style="fill:#ff7f0e;stroke:#ffffff;stroke-linejoin:miter;"/>
   </g>
   <g id="patch_155">
    <path clip-path="url(#pdbca1fd1c9)" d="M 366.031704 273.312 
L 361.922153 273.312 
L 361.922153 273.071284 
L 366.031704 273.071284 
z
" style="fill:#ff7f0e;stroke:#ffffff;stroke-linejoin:miter;"/>
   </g>
   <g id="patch_156">
    <path clip-path="url(#pdbca1fd1c9)" d="M 370.141255 273.312 
L 366.031704 273.312 
L 366.031704 273.086715 
L 370.141255 273.086715 
z
" style="fill:#ff7f0e;stroke:#ffffff;stroke-linejoin:miter;"/>
   </g>
   <g id="patch_157">
    <path clip-path="url(#pdbca1fd1c9)" d="M 374.250807 273.312 
L 370.141255 273.312 
L 370.141255 273.142264 
L 374.250807 273.142264 
z
" style="fill:#ff7f0e;stroke:#ffffff;stroke-linejoin:miter;"/>
   </g>
   <g id="patch_158">
    <path clip-path="url(#pdbca1fd1c9)" d="M 378.360358 273.312 
L 374.250807 273.312 
L 374.250807 273.080542 
L 378.360358 273.080542 
z
" style="fill:#ff7f0e;stroke:#ffffff;stroke-linejoin:miter;"/>
   </g>
   <g id="patch_159">
    <path clip-path="url(#pdbca1fd1c9)" d="M 382.469909 273.312 
L 378.360358 273.312 
L 378.360358 273.108317 
L 382.469909 273.108317 
z
" style="fill:#ff7f0e;stroke:#ffffff;stroke-linejoin:miter;"/>
   </g>
   <g id="patch_160">
    <path clip-path="url(#pdbca1fd1c9)" d="M 386.57946 273.312 
L 382.469909 273.312 
L 382.469909 273.046595 
L 386.57946 273.046595 
z
" style="fill:#ff7f0e;stroke:#ffffff;stroke-linejoin:miter;"/>
   </g>
   <g id="patch_161">
    <path clip-path="url(#pdbca1fd1c9)" d="z
" style="fill:#d62728;stroke:#ffffff;stroke-linejoin:miter;"/>
   </g>
   <g id="patch_162">
    <path clip-path="url(#pdbca1fd1c9)" d="M 66.034466 273.312 
L 61.924915 273.312 
L 61.924915 273.312 
L 66.034466 273.312 
z
" style="fill:#d62728;stroke:#ffffff;stroke-linejoin:miter;"/>
   </g>
   <g id="patch_163">
    <path clip-path="url(#pdbca1fd1c9)" d="M 74.253568 273.312 
L 66.034466 273.312 
L 66.034466 273.295026 
L 74.253568 273.295026 
z
" style="fill:#d62728;stroke:#ffffff;stroke-linejoin:miter;"/>
   </g>
   <g id="patch_164">
    <path clip-path="url(#pdbca1fd1c9)" d="M 78.36312 273.312 
L 74.253568 273.312 
L 74.253568 273.287311 
L 78.36312 273.287311 
z
" style="fill:#d62728;stroke:#ffffff;stroke-linejoin:miter;"/>
   </g>
   <g id="patch_165">
    <path clip-path="url(#pdbca1fd1c9)" d="M 82.472671 273.312 
L 78.36312 273.312 
L 78.36312 273.262622 
L 82.472671 273.262622 
z
" style="fill:#d62728;stroke:#ffffff;stroke-linejoin:miter;"/>
   </g>
   <g id="patch_166">
    <path clip-path="url(#pdbca1fd1c9)" d="M 86.582222 273.312 
L 82.472671 273.312 
L 82.472671 273.265708 
L 86.582222 273.265708 
z
" style="fill:#d62728;stroke:#ffffff;stroke-linejoin:miter;"/>
   </g>
   <g id="patch_167">
    <path clip-path="url(#pdbca1fd1c9)" d="M 90.691773 273.312 
L 86.582222 273.312 
L 86.582222 273.237934 
L 90.691773 273.237934 
z
" style="fill:#d62728;stroke:#ffffff;stroke-linejoin:miter;"/>
   </g>
   <g id="patch_168">
    <path clip-path="url(#pdbca1fd1c9)" d="M 94.801324 273.312 
L 90.691773 273.312 
L 90.691773 273.231761 
L 94.801324 273.231761 
z
" style="fill:#d62728;stroke:#ffffff;stroke-linejoin:miter;"/>
   </g>
   <g id="patch_169">
    <path clip-path="url(#pdbca1fd1c9)" d="M 98.910876 273.312 
L 94.801324 273.312 
L 94.801324 273.231761 
L 98.910876 273.231761 
z
" style="fill:#d62728;stroke:#ffffff;stroke-linejoin:miter;"/>
   </g>
   <g id="patch_170">
    <path clip-path="url(#pdbca1fd1c9)" d="M 103.020427 273.312 
L 98.910876 273.312 
L 98.910876 273.194728 
L 103.020427 273.194728 
z
" style="fill:#d62728;stroke:#ffffff;stroke-linejoin:miter;"/>
   </g>
   <g id="patch_171">
    <path clip-path="url(#pdbca1fd1c9)" d="M 107.129978 273.312 
L 103.020427 273.312 
L 103.020427 273.179298 
L 107.129978 273.179298 
z
" style="fill:#d62728;stroke:#ffffff;stroke-linejoin:miter;"/>
   </g>
   <g id="patch_172">
    <path clip-path="url(#pdbca1fd1c9)" d="M 111.239529 273.312 
L 107.129978 273.312 
L 107.129978 273.170039 
L 111.239529 273.170039 
z
" style="fill:#d62728;stroke:#ffffff;stroke-linejoin:miter;"/>
   </g>
   <g id="patch_173">
    <path clip-path="url(#pdbca1fd1c9)" d="M 115.34908 273.312 
L 111.239529 273.312 
L 111.239529 273.170039 
L 115.34908 273.170039 
z
" style="fill:#d62728;stroke:#ffffff;stroke-linejoin:miter;"/>
   </g>
   <g id="patch_174">
    <path clip-path="url(#pdbca1fd1c9)" d="M 119.458632 273.312 
L 115.34908 273.312 
L 115.34908 273.136092 
L 119.458632 273.136092 
z
" style="fill:#d62728;stroke:#ffffff;stroke-linejoin:miter;"/>
   </g>
   <g id="patch_175">
    <path clip-path="url(#pdbca1fd1c9)" d="M 123.568183 273.312 
L 119.458632 273.312 
L 119.458632 273.114489 
L 123.568183 273.114489 
z
" style="fill:#d62728;stroke:#ffffff;stroke-linejoin:miter;"/>
   </g>
   <g id="patch_176">
    <path clip-path="url(#pdbca1fd1c9)" d="M 127.677734 273.312 
L 123.568183 273.312 
L 123.568183 273.108317 
L 127.677734 273.108317 
z
" style="fill:#d62728;stroke:#ffffff;stroke-linejoin:miter;"/>
   </g>
   <g id="patch_177">
    <path clip-path="url(#pdbca1fd1c9)" d="M 131.787285 273.312 
L 127.677734 273.312 
L 127.677734 273.086715 
L 131.787285 273.086715 
z
" style="fill:#d62728;stroke:#ffffff;stroke-linejoin:miter;"/>
   </g>
   <g id="patch_178">
    <path clip-path="url(#pdbca1fd1c9)" d="M 135.896837 273.312 
L 131.787285 273.312 
L 131.787285 273.086715 
L 135.896837 273.086715 
z
" style="fill:#d62728;stroke:#ffffff;stroke-linejoin:miter;"/>
   </g>
   <g id="patch_179">
    <path clip-path="url(#pdbca1fd1c9)" d="M 140.006388 273.312 
L 135.896837 273.312 
L 135.896837 273.046595 
L 140.006388 273.046595 
z
" style="fill:#d62728;stroke:#ffffff;stroke-linejoin:miter;"/>
   </g>
   <g id="patch_180">
    <path clip-path="url(#pdbca1fd1c9)" d="M 144.115939 273.312 
L 140.006388 273.312 
L 140.006388 273.037337 
L 144.115939 273.037337 
z
" style="fill:#d62728;stroke:#ffffff;stroke-linejoin:miter;"/>
   </g>
   <g id="patch_181">
    <path clip-path="url(#pdbca1fd1c9)" d="M 148.22549 273.312 
L 144.115939 273.312 
L 144.115939 273.012648 
L 148.22549 273.012648 
z
" style="fill:#d62728;stroke:#ffffff;stroke-linejoin:miter;"/>
   </g>
   <g id="patch_182">
    <path clip-path="url(#pdbca1fd1c9)" d="M 152.335041 273.312 
L 148.22549 273.312 
L 148.22549 272.978701 
L 152.335041 272.978701 
z
" style="fill:#d62728;stroke:#ffffff;stroke-linejoin:miter;"/>
   </g>
   <g id="patch_183">
    <path clip-path="url(#pdbca1fd1c9)" d="M 156.444593 273.312 
L 152.335041 273.312 
L 152.335041 273.012648 
L 156.444593 273.012648 
z
" style="fill:#d62728;stroke:#ffffff;stroke-linejoin:miter;"/>
   </g>
   <g id="patch_184">
    <path clip-path="url(#pdbca1fd1c9)" d="M 160.554144 273.312 
L 156.444593 273.312 
L 156.444593 272.52813 
L 160.554144 272.52813 
z
" style="fill:#d62728;stroke:#ffffff;stroke-linejoin:miter;"/>
   </g>
   <g id="patch_185">
    <path clip-path="url(#pdbca1fd1c9)" d="M 164.663695 273.312 
L 160.554144 273.312 
L 160.554144 273.268795 
L 164.663695 273.268795 
z
" style="fill:#d62728;stroke:#ffffff;stroke-linejoin:miter;"/>
   </g>
   <g id="patch_186">
    <path clip-path="url(#pdbca1fd1c9)" d="M 168.773246 273.312 
L 164.663695 273.312 
L 164.663695 272.870687 
L 168.773246 272.870687 
z
" style="fill:#d62728;stroke:#ffffff;stroke-linejoin:miter;"/>
   </g>
   <g id="patch_187">
    <path clip-path="url(#pdbca1fd1c9)" d="M 172.882797 273.312 
L 168.773246 273.312 
L 168.773246 272.870687 
L 172.882797 272.870687 
z
" style="fill:#d62728;stroke:#ffffff;stroke-linejoin:miter;"/>
   </g>
   <g id="patch_188">
    <path clip-path="url(#pdbca1fd1c9)" d="M 176.992349 273.312 
L 172.882797 273.312 
L 172.882797 272.984873 
L 176.992349 272.984873 
z
" style="fill:#d62728;stroke:#ffffff;stroke-linejoin:miter;"/>
   </g>
   <g id="patch_189">
    <path clip-path="url(#pdbca1fd1c9)" d="M 181.1019 273.312 
L 176.992349 273.312 
L 176.992349 273.009562 
L 181.1019 273.009562 
z
" style="fill:#d62728;stroke:#ffffff;stroke-linejoin:miter;"/>
   </g>
   <g id="patch_190">
    <path clip-path="url(#pdbca1fd1c9)" d="M 185.211451 273.312 
L 181.1019 273.312 
L 181.1019 272.89229 
L 185.211451 272.89229 
z
" style="fill:#d62728;stroke:#ffffff;stroke-linejoin:miter;"/>
   </g>
   <g id="patch_191">
    <path clip-path="url(#pdbca1fd1c9)" d="M 189.321002 273.312 
L 185.211451 273.312 
L 185.211451 272.941668 
L 189.321002 272.941668 
z
" style="fill:#d62728;stroke:#ffffff;stroke-linejoin:miter;"/>
   </g>
   <g id="patch_192">
    <path clip-path="url(#pdbca1fd1c9)" d="M 193.430553 273.312 
L 189.321002 273.312 
L 189.321002 272.94784 
L 193.430553 272.94784 
z
" style="fill:#d62728;stroke:#ffffff;stroke-linejoin:miter;"/>
   </g>
   <g id="patch_193">
    <path clip-path="url(#pdbca1fd1c9)" d="M 197.540105 273.312 
L 193.430553 273.312 
L 193.430553 272.966357 
L 197.540105 272.966357 
z
" style="fill:#d62728;stroke:#ffffff;stroke-linejoin:miter;"/>
   </g>
   <g id="patch_194">
    <path clip-path="url(#pdbca1fd1c9)" d="M 201.649656 273.312 
L 197.540105 273.312 
L 197.540105 272.994131 
L 201.649656 272.994131 
z
" style="fill:#d62728;stroke:#ffffff;stroke-linejoin:miter;"/>
   </g>
   <g id="patch_195">
    <path clip-path="url(#pdbca1fd1c9)" d="M 205.759207 273.312 
L 201.649656 273.312 
L 201.649656 272.830568 
L 205.759207 272.830568 
z
" style="fill:#d62728;stroke:#ffffff;stroke-linejoin:miter;"/>
   </g>
   <g id="patch_196">
    <path clip-path="url(#pdbca1fd1c9)" d="M 209.868758 273.312 
L 205.759207 273.312 
L 205.759207 273.05894 
L 209.868758 273.05894 
z
" style="fill:#d62728;stroke:#ffffff;stroke-linejoin:miter;"/>
   </g>
   <g id="patch_197">
    <path clip-path="url(#pdbca1fd1c9)" d="M 213.978309 273.312 
L 209.868758 273.312 
L 209.868758 273.123748 
L 213.978309 273.123748 
z
" style="fill:#d62728;stroke:#ffffff;stroke-linejoin:miter;"/>
   </g>
   <g id="patch_198">
    <path clip-path="url(#pdbca1fd1c9)" d="M 218.087861 273.312 
L 213.978309 273.312 
L 213.978309 273.179298 
L 218.087861 273.179298 
z
" style="fill:#d62728;stroke:#ffffff;stroke-linejoin:miter;"/>
   </g>
   <g id="patch_199">
    <path clip-path="url(#pdbca1fd1c9)" d="M 222.197412 273.312 
L 218.087861 273.312 
L 218.087861 273.14535 
L 222.197412 273.14535 
z
" style="fill:#d62728;stroke:#ffffff;stroke-linejoin:miter;"/>
   </g>
   <g id="patch_200">
    <path clip-path="url(#pdbca1fd1c9)" d="M 226.306963 273.312 
L 222.197412 273.312 
L 222.197412 273.108317 
L 226.306963 273.108317 
z
" style="fill:#d62728;stroke:#ffffff;stroke-linejoin:miter;"/>
   </g>
   <g id="patch_201">
    <path clip-path="url(#pdbca1fd1c9)" d="M 230.416514 273.312 
L 226.306963 273.312 
L 226.306963 273.148437 
L 230.416514 273.148437 
z
" style="fill:#d62728;stroke:#ffffff;stroke-linejoin:miter;"/>
   </g>
   <g id="patch_202">
    <path clip-path="url(#pdbca1fd1c9)" d="M 234.526066 273.312 
L 230.416514 273.312 
L 230.416514 273.108317 
L 234.526066 273.108317 
z
" style="fill:#d62728;stroke:#ffffff;stroke-linejoin:miter;"/>
   </g>
   <g id="patch_203">
    <path clip-path="url(#pdbca1fd1c9)" d="M 238.635617 273.312 
L 234.526066 273.312 
L 234.526066 273.099059 
L 238.635617 273.099059 
z
" style="fill:#d62728;stroke:#ffffff;stroke-linejoin:miter;"/>
   </g>
   <g id="patch_204">
    <path clip-path="url(#pdbca1fd1c9)" d="M 242.745168 273.312 
L 238.635617 273.312 
L 238.635617 273.046595 
L 242.745168 273.046595 
z
" style="fill:#d62728;stroke:#ffffff;stroke-linejoin:miter;"/>
   </g>
   <g id="patch_205">
    <path clip-path="url(#pdbca1fd1c9)" d="M 246.854719 273.312 
L 242.745168 273.312 
L 242.745168 273.052767 
L 246.854719 273.052767 
z
" style="fill:#d62728;stroke:#ffffff;stroke-linejoin:miter;"/>
   </g>
   <g id="patch_206">
    <path clip-path="url(#pdbca1fd1c9)" d="M 250.96427 273.312 
L 246.854719 273.312 
L 246.854719 273.009562 
L 250.96427 273.009562 
z
" style="fill:#d62728;stroke:#ffffff;stroke-linejoin:miter;"/>
   </g>
   <g id="patch_207">
    <path clip-path="url(#pdbca1fd1c9)" d="M 255.073822 273.312 
L 250.96427 273.312 
L 250.96427 272.984873 
L 255.073822 272.984873 
z
" style="fill:#d62728;stroke:#ffffff;stroke-linejoin:miter;"/>
   </g>
   <g id="patch_208">
    <path clip-path="url(#pdbca1fd1c9)" d="M 259.183373 273.312 
L 255.073822 273.312 
L 255.073822 273.009562 
L 259.183373 273.009562 
z
" style="fill:#d62728;stroke:#ffffff;stroke-linejoin:miter;"/>
   </g>
   <g id="patch_209">
    <path clip-path="url(#pdbca1fd1c9)" d="M 263.292924 273.312 
L 259.183373 273.312 
L 259.183373 272.617627 
L 263.292924 272.617627 
z
" style="fill:#d62728;stroke:#ffffff;stroke-linejoin:miter;"/>
   </g>
   <g id="patch_210">
    <path clip-path="url(#pdbca1fd1c9)" d="M 267.402475 273.312 
L 263.292924 273.312 
L 263.292924 272.685521 
L 267.402475 272.685521 
z
" style="fill:#d62728;stroke:#ffffff;stroke-linejoin:miter;"/>
   </g>
   <g id="patch_211">
    <path clip-path="url(#pdbca1fd1c9)" d="M 271.512026 273.312 
L 267.402475 273.312 
L 267.402475 272.447891 
L 271.512026 272.447891 
z
" style="fill:#d62728;stroke:#ffffff;stroke-linejoin:miter;"/>
   </g>
   <g id="patch_212">
    <path clip-path="url(#pdbca1fd1c9)" d="M 275.621578 273.312 
L 271.512026 273.312 
L 271.512026 272.321361 
L 275.621578 272.321361 
z
" style="fill:#d62728;stroke:#ffffff;stroke-linejoin:miter;"/>
   </g>
   <g id="patch_213">
    <path clip-path="url(#pdbca1fd1c9)" d="M 279.731129 273.312 
L 275.621578 273.312 
L 275.621578 272.256553 
L 279.731129 272.256553 
z
" style="fill:#d62728;stroke:#ffffff;stroke-linejoin:miter;"/>
   </g>
   <g id="patch_214">
    <path clip-path="url(#pdbca1fd1c9)" d="M 283.84068 273.312 
L 279.731129 273.312 
L 279.731129 271.960287 
L 283.84068 271.960287 
z
" style="fill:#d62728;stroke:#ffffff;stroke-linejoin:miter;"/>
   </g>
   <g id="patch_215">
    <path clip-path="url(#pdbca1fd1c9)" d="M 287.950231 273.312 
L 283.84068 273.312 
L 283.84068 272.256553 
L 287.950231 272.256553 
z
" style="fill:#d62728;stroke:#ffffff;stroke-linejoin:miter;"/>
   </g>
   <g id="patch_216">
    <path clip-path="url(#pdbca1fd1c9)" d="M 292.059782 273.312 
L 287.950231 273.312 
L 287.950231 270.624005 
L 292.059782 270.624005 
z
" style="fill:#d62728;stroke:#ffffff;stroke-linejoin:miter;"/>
   </g>
   <g id="patch_217">
    <path clip-path="url(#pdbca1fd1c9)" d="M 296.169334 273.312 
L 292.059782 273.312 
L 292.059782 270.781396 
L 296.169334 270.781396 
z
" style="fill:#d62728;stroke:#ffffff;stroke-linejoin:miter;"/>
   </g>
   <g id="patch_218">
    <path clip-path="url(#pdbca1fd1c9)" d="M 300.278885 273.312 
L 296.169334 273.312 
L 296.169334 272.136195 
L 300.278885 272.136195 
z
" style="fill:#d62728;stroke:#ffffff;stroke-linejoin:miter;"/>
   </g>
   <g id="patch_219">
    <path clip-path="url(#pdbca1fd1c9)" d="M 304.388436 273.312 
L 300.278885 273.312 
L 300.278885 270.315394 
L 304.388436 270.315394 
z
" style="fill:#d62728;stroke:#ffffff;stroke-linejoin:miter;"/>
   </g>
   <g id="patch_220">
    <path clip-path="url(#pdbca1fd1c9)" d="M 308.497987 273.312 
L 304.388436 273.312 
L 304.388436 270.034559 
L 308.497987 270.034559 
z
" style="fill:#d62728;stroke:#ffffff;stroke-linejoin:miter;"/>
   </g>
   <g id="patch_221">
    <path clip-path="url(#pdbca1fd1c9)" d="M 312.607538 273.312 
L 308.497987 273.312 
L 308.497987 269.164278 
L 312.607538 269.164278 
z
" style="fill:#d62728;stroke:#ffffff;stroke-linejoin:miter;"/>
   </g>
   <g id="patch_222">
    <path clip-path="url(#pdbca1fd1c9)" d="M 316.71709 273.312 
L 312.607538 273.312 
L 312.607538 268.374236 
L 316.71709 268.374236 
z
" style="fill:#d62728;stroke:#ffffff;stroke-linejoin:miter;"/>
   </g>
   <g id="patch_223">
    <path clip-path="url(#pdbca1fd1c9)" d="M 320.826641 273.312 
L 316.71709 273.312 
L 316.71709 267.985387 
L 320.826641 267.985387 
z
" style="fill:#d62728;stroke:#ffffff;stroke-linejoin:miter;"/>
   </g>
   <g id="patch_224">
    <path clip-path="url(#pdbca1fd1c9)" d="M 324.936192 273.312 
L 320.826641 273.312 
L 320.826641 268.000818 
L 324.936192 268.000818 
z
" style="fill:#d62728;stroke:#ffffff;stroke-linejoin:miter;"/>
   </g>
   <g id="patch_225">
    <path clip-path="url(#pdbca1fd1c9)" d="M 329.045743 273.312 
L 324.936192 273.312 
L 324.936192 266.494799 
L 329.045743 266.494799 
z
" style="fill:#d62728;stroke:#ffffff;stroke-linejoin:miter;"/>
   </g>
   <g id="patch_226">
    <path clip-path="url(#pdbca1fd1c9)" d="M 333.155295 273.312 
L 329.045743 273.312 
L 329.045743 265.92387 
L 333.155295 265.92387 
z
" style="fill:#d62728;stroke:#ffffff;stroke-linejoin:miter;"/>
   </g>
   <g id="patch_227">
    <path clip-path="url(#pdbca1fd1c9)" d="M 337.264846 273.312 
L 333.155295 273.312 
L 333.155295 265.593658 
L 337.264846 265.593658 
z
" style="fill:#d62728;stroke:#ffffff;stroke-linejoin:miter;"/>
   </g>
   <g id="patch_228">
    <path clip-path="url(#pdbca1fd1c9)" d="M 341.374397 273.312 
L 337.264846 273.312 
L 337.264846 263.563002 
L 341.374397 263.563002 
z
" style="fill:#d62728;stroke:#ffffff;stroke-linejoin:miter;"/>
   </g>
   <g id="patch_229">
    <path clip-path="url(#pdbca1fd1c9)" d="M 345.483948 273.312 
L 341.374397 273.312 
L 341.374397 262.624827 
L 345.483948 262.624827 
z
" style="fill:#d62728;stroke:#ffffff;stroke-linejoin:miter;"/>
   </g>
   <g id="patch_230">
    <path clip-path="url(#pdbca1fd1c9)" d="M 349.593499 273.312 
L 345.483948 273.312 
L 345.483948 263.593863 
L 349.593499 263.593863 
z
" style="fill:#d62728;stroke:#ffffff;stroke-linejoin:miter;"/>
   </g>
   <g id="patch_231">
    <path clip-path="url(#pdbca1fd1c9)" d="M 353.703051 273.312 
L 349.593499 273.312 
L 349.593499 263.130948 
L 353.703051 263.130948 
z
" style="fill:#d62728;stroke:#ffffff;stroke-linejoin:miter;"/>
   </g>
   <g id="patch_232">
    <path clip-path="url(#pdbca1fd1c9)" d="M 357.812602 273.312 
L 353.703051 273.312 
L 353.703051 260.371972 
L 357.812602 260.371972 
z
" style="fill:#d62728;stroke:#ffffff;stroke-linejoin:miter;"/>
   </g>
   <g id="patch_233">
    <path clip-path="url(#pdbca1fd1c9)" d="M 361.922153 273.312 
L 357.812602 273.312 
L 357.812602 258.103687 
L 361.922153 258.103687 
z
" style="fill:#d62728;stroke:#ffffff;stroke-linejoin:miter;"/>
   </g>
   <g id="patch_234">
    <path clip-path="url(#pdbca1fd1c9)" d="M 366.031704 273.312 
L 361.922153 273.312 
L 361.922153 258.511052 
L 366.031704 258.511052 
z
" style="fill:#d62728;stroke:#ffffff;stroke-linejoin:miter;"/>
   </g>
   <g id="patch_235">
    <path clip-path="url(#pdbca1fd1c9)" d="M 370.141255 273.312 
L 366.031704 273.312 
L 366.031704 252.749299 
L 370.141255 252.749299 
z
" style="fill:#d62728;stroke:#ffffff;stroke-linejoin:miter;"/>
   </g>
   <g id="patch_236">
    <path clip-path="url(#pdbca1fd1c9)" d="M 374.250807 273.312 
L 370.141255 273.312 
L 370.141255 255.415691 
L 374.250807 255.415691 
z
" style="fill:#d62728;stroke:#ffffff;stroke-linejoin:miter;"/>
   </g>
   <g id="patch_237">
    <path clip-path="url(#pdbca1fd1c9)" d="M 378.360358 273.312 
L 374.250807 273.312 
L 374.250807 258.467847 
L 378.360358 258.467847 
z
" style="fill:#d62728;stroke:#ffffff;stroke-linejoin:miter;"/>
   </g>
   <g id="patch_238">
    <path clip-path="url(#pdbca1fd1c9)" d="M 382.469909 273.312 
L 378.360358 273.312 
L 378.360358 257.819765 
L 382.469909 257.819765 
z
" style="fill:#d62728;stroke:#ffffff;stroke-linejoin:miter;"/>
   </g>
   <g id="patch_239">
    <path clip-path="url(#pdbca1fd1c9)" d="M 386.57946 273.312 
L 382.469909 273.312 
L 382.469909 252.878915 
L 386.57946 252.878915 
z
" style="fill:#d62728;stroke:#ffffff;stroke-linejoin:miter;"/>
   </g>
   <g id="matplotlib.axis_1">
    <g id="xtick_1">
     <g id="line2d_1">
      <defs>
       <path d="M 0 0 
L 0 3.5 
" id="m8922846fd4" style="stroke:#000000;stroke-width:0.8;"/>
      </defs>
      <g>
       <use style="stroke:#000000;stroke-width:0.8;" x="111.239529" xlink:href="#m8922846fd4" y="273.312"/>
      </g>
     </g>
     <g id="text_1">
      <!-- Feb -->
      <defs>
       <path d="M 54.203125 64.703125 
L 18.3125 64.703125 
L 18.3125 41.5 
L 50.09375 41.5 
L 50.09375 34.1875 
L 18.3125 34.1875 
L 18.3125 0.984375 
L 9.515625 0.984375 
L 9.515625 72.40625 
L 54.203125 72.40625 
z
" id="IPAexGothic-70"/>
       <path d="M 13.484375 24.90625 
Q 13.921875 16.265625 18.890625 11.28125 
Q 23.96875 6.203125 31.203125 6.203125 
Q 40.71875 6.203125 46.296875 15.09375 
L 51.90625 11.375 
Q 44.828125 -0.484375 30.171875 -0.484375 
Q 19.09375 -0.484375 11.96875 6.59375 
Q 4.78125 13.8125 4.78125 25.640625 
Q 4.78125 38.1875 12.3125 45.703125 
Q 19 52.390625 29 52.390625 
Q 38.421875 52.390625 44.78125 46.1875 
Q 51.90625 38.96875 51.90625 26.90625 
L 51.90625 24.90625 
z
M 43.0625 31.203125 
Q 42.328125 37.984375 38.28125 41.890625 
Q 34.28125 45.90625 28.8125 45.90625 
Q 22.46875 45.90625 17.96875 40.484375 
Q 14.890625 36.8125 13.96875 31.203125 
z
" id="IPAexGothic-101"/>
       <path d="M 17.578125 42.671875 
Q 24.21875 52.203125 34.671875 52.203125 
Q 43.5625 52.203125 49.859375 45.90625 
Q 57.171875 38.578125 57.171875 25.6875 
Q 57.171875 13.09375 49.859375 5.8125 
Q 43.5625 -0.484375 34.46875 -0.484375 
Q 24.359375 -0.484375 17 8.0625 
L 15.765625 0.6875 
L 9.078125 0.6875 
L 9.078125 74.90625 
L 17.578125 74.90625 
z
M 17.578125 31.203125 
L 17.578125 19.578125 
Q 17.578125 13.875 23.875 9.375 
Q 28.171875 6.296875 33.109375 6.296875 
Q 38.875 6.296875 42.875 10.296875 
Q 48.1875 15.765625 48.1875 25.484375 
Q 48.1875 34.28125 43.796875 39.890625 
Q 39.453125 45.3125 33.203125 45.3125 
Q 27.484375 45.3125 22.46875 40.28125 
Q 17.578125 35.40625 17.578125 31.203125 
z
" id="IPAexGothic-98"/>
      </defs>
      <g transform="translate(102.416092 287.802625)scale(0.1 -0.1)">
       <use xlink:href="#IPAexGothic-70"/>
       <use x="57.177734" xlink:href="#IPAexGothic-101"/>
       <use x="114.0625" xlink:href="#IPAexGothic-98"/>
      </g>
     </g>
    </g>
    <g id="xtick_2">
     <g id="line2d_2">
      <g>
       <use style="stroke:#000000;stroke-width:0.8;" x="168.773246" xlink:href="#m8922846fd4" y="273.312"/>
      </g>
     </g>
     <g id="text_2">
      <!-- 15 -->
      <defs>
       <path d="M 38.484375 0.984375 
L 29.6875 0.984375 
L 29.6875 64.109375 
Q 21.4375 61.28125 12.3125 59.328125 
L 10.6875 66.109375 
Q 23.734375 69.390625 32.90625 73.921875 
L 38.484375 73.921875 
z
" id="IPAexGothic-49"/>
       <path d="M 18.40625 40.671875 
Q 25.53125 46.296875 33.9375 46.296875 
Q 44 46.296875 50.640625 39.5 
Q 56.84375 33.015625 56.84375 23.390625 
Q 56.84375 14.65625 51.515625 8.015625 
Q 44.828125 -0.484375 31.734375 -0.484375 
Q 14.984375 -0.484375 7.328125 12.25 
L 14.65625 16.0625 
Q 20.453125 6.78125 31.453125 6.78125 
Q 38.53125 6.78125 43.265625 11.1875 
Q 48.140625 15.828125 48.140625 23.484375 
Q 48.140625 30.71875 43.84375 35.015625 
Q 39.359375 39.5 32.125 39.5 
Q 21.96875 39.5 16.75 31.6875 
L 9.234375 32.671875 
L 13.8125 72.40625 
L 53.21875 72.40625 
L 53.21875 64.890625 
L 20.953125 64.890625 
L 17.71875 40.671875 
z
" id="IPAexGothic-53"/>
      </defs>
      <g transform="translate(162.474809 287.802625)scale(0.1 -0.1)">
       <use xlink:href="#IPAexGothic-49"/>
       <use x="62.988281" xlink:href="#IPAexGothic-53"/>
      </g>
     </g>
    </g>
    <g id="xtick_3">
     <g id="line2d_3">
      <g>
       <use style="stroke:#000000;stroke-width:0.8;" x="230.416514" xlink:href="#m8922846fd4" y="273.312"/>
      </g>
     </g>
     <g id="text_3">
      <!-- Mar -->
      <defs>
       <path d="M 80.421875 0.984375 
L 71.828125 0.984375 
L 71.828125 39.59375 
Q 71.828125 51.265625 72.40625 64.59375 
L 72.015625 64.59375 
Q 68.0625 53.265625 63.53125 41.796875 
L 47.90625 3.265625 
L 41.40625 3.265625 
L 25.640625 42.578125 
Q 20.75 54.78125 17.625 64.703125 
L 17.234375 64.703125 
Q 17.828125 48.921875 17.828125 39.890625 
L 17.828125 0.984375 
L 9.515625 0.984375 
L 9.515625 72.40625 
L 22.125 72.40625 
L 39.109375 30.375 
Q 42.140625 23 44.828125 14.15625 
L 45.125 14.15625 
Q 47.3125 22.125 50.53125 30.171875 
L 67.4375 72.40625 
L 80.421875 72.40625 
z
" id="IPAexGothic-77"/>
       <path d="M 49.3125 0.984375 
L 41.75 0.984375 
Q 39.984375 4.734375 39.546875 8.6875 
L 39.203125 8.6875 
Q 33.546875 -0.390625 22.3125 -0.390625 
Q 14.59375 -0.390625 9.71875 4.5 
Q 5.421875 8.796875 5.421875 14.984375 
Q 5.421875 30.421875 32.03125 31.203125 
L 38.71875 31.390625 
L 38.71875 33.984375 
Q 38.71875 39.203125 35.75 42.1875 
Q 32.625 45.3125 27.734375 45.3125 
Q 19.34375 45.3125 15.140625 37.15625 
L 7.71875 40.578125 
Q 14.65625 52 27.9375 52 
Q 37.109375 52 42.046875 46.875 
Q 46.625 42.28125 46.625 33.890625 
L 46.625 15.578125 
Q 46.625 6.25 49.3125 0.984375 
z
M 38.921875 25.390625 
L 33.453125 25.296875 
Q 14.109375 24.859375 14.109375 14.890625 
Q 14.109375 11.375 16.40625 9.078125 
Q 19.234375 6.296875 23.828125 6.296875 
Q 30.21875 6.296875 34.90625 10.984375 
Q 38.921875 15.140625 38.921875 21 
z
" id="IPAexGothic-97"/>
       <path d="M 36.078125 51.8125 
L 34.578125 43.265625 
Q 32.90625 43.609375 31.59375 43.609375 
Q 25.828125 43.609375 22.078125 38.1875 
Q 17.390625 31.34375 17.390625 26.171875 
L 17.390625 0.984375 
L 8.796875 0.984375 
L 8.796875 50.78125 
L 16.890625 50.78125 
L 16.5 35.984375 
L 16.703125 35.984375 
Q 22.21875 52.203125 32.765625 52.203125 
Q 34.46875 52.203125 36.078125 51.8125 
z
" id="IPAexGothic-114"/>
      </defs>
      <g transform="translate(221.307139 287.802625)scale(0.1 -0.1)">
       <use xlink:href="#IPAexGothic-77"/>
       <use x="90.185547" xlink:href="#IPAexGothic-97"/>
       <use x="145.166016" xlink:href="#IPAexGothic-114"/>
      </g>
     </g>
    </g>
    <g id="xtick_4">
     <g id="line2d_4">
      <g>
       <use style="stroke:#000000;stroke-width:0.8;" x="287.950231" xlink:href="#m8922846fd4" y="273.312"/>
      </g>
     </g>
     <g id="text_4">
      <!-- 15 -->
      <g transform="translate(281.651794 287.802625)scale(0.1 -0.1)">
       <use xlink:href="#IPAexGothic-49"/>
       <use x="62.988281" xlink:href="#IPAexGothic-53"/>
      </g>
     </g>
    </g>
    <g id="xtick_5">
     <g id="line2d_5">
      <g>
       <use style="stroke:#000000;stroke-width:0.8;" x="357.812602" xlink:href="#m8922846fd4" y="273.312"/>
      </g>
     </g>
     <g id="text_5">
      <!-- Apr -->
      <defs>
       <path d="M 63.375 0.984375 
L 53.8125 0.984375 
L 45.90625 22.015625 
L 17.1875 22.015625 
L 9.421875 0.984375 
L -0.09375 0.984375 
L 28.21875 72.90625 
L 35.296875 72.90625 
z
M 43.40625 29.109375 
L 36.1875 48.09375 
Q 33.203125 56.0625 31.6875 62.5 
L 31.390625 62.5 
Q 29.640625 55.671875 26.8125 48.09375 
L 19.734375 29.109375 
z
" id="IPAexGothic-65"/>
       <path d="M 16.796875 42 
Q 23.828125 52.203125 34.46875 52.203125 
Q 43.265625 52.203125 49.5625 45.90625 
Q 56.890625 38.578125 56.890625 25.6875 
Q 56.890625 13.140625 49.65625 5.8125 
Q 43.359375 -0.484375 34.375 -0.484375 
Q 24.515625 -0.484375 17.28125 7.765625 
L 17.28125 -19 
L 8.796875 -19 
L 8.796875 50.78125 
L 16.796875 50.78125 
z
M 17.28125 30.46875 
L 17.28125 20.171875 
Q 17.28125 14.015625 23.6875 9.375 
Q 27.984375 6.296875 32.90625 6.296875 
Q 38.578125 6.296875 42.578125 10.296875 
Q 47.90625 15.578125 47.90625 25.484375 
Q 47.90625 34.375 43.5 39.984375 
Q 39.109375 45.3125 32.8125 45.3125 
Q 25.875 45.3125 20.90625 38.8125 
Q 17.28125 34.125 17.28125 30.46875 
z
" id="IPAexGothic-112"/>
      </defs>
      <g transform="translate(349.670414 287.802625)scale(0.1 -0.1)">
       <use xlink:href="#IPAexGothic-65"/>
       <use x="63.720703" xlink:href="#IPAexGothic-112"/>
       <use x="125.830078" xlink:href="#IPAexGothic-114"/>
      </g>
     </g>
    </g>
    <g id="text_6">
     <!-- 2020-Apr -->
     <defs>
      <path d="M 57.171875 0.984375 
L 6.984375 0.984375 
L 6.984375 9.28125 
Q 12.890625 23.046875 29.59375 34.421875 
L 32.375 36.28125 
Q 40.921875 42.140625 43.609375 45.40625 
Q 46.6875 49.265625 46.6875 53.8125 
Q 46.6875 58.9375 43.0625 62.546875 
Q 39.0625 66.546875 32.5625 66.546875 
Q 19.53125 66.546875 15.484375 52 
L 7.765625 54.78125 
Q 13.328125 73.828125 33.0625 73.828125 
Q 43.84375 73.828125 50.25 67.4375 
Q 55.859375 61.671875 55.859375 53.515625 
Q 55.859375 47.46875 52.25 42.53125 
Q 48.921875 37.75 36.96875 30.28125 
L 34.859375 29 
Q 19.625 19.578125 15.28125 8.890625 
L 57.171875 8.890625 
z
" id="IPAexGothic-50"/>
      <path d="M 31.84375 73.828125 
Q 45.015625 73.828125 52.09375 61.625 
Q 57.71875 51.953125 57.71875 36.625 
Q 57.71875 21.4375 52.09375 11.578125 
Q 45.125 -0.484375 31.5 -0.484375 
Q 17.921875 -0.484375 10.9375 11.578125 
Q 5.328125 21.4375 5.328125 36.71875 
Q 5.328125 58.015625 15.625 67.71875 
Q 22.171875 73.828125 31.84375 73.828125 
z
M 31.5 66.65625 
Q 23.6875 66.65625 19.1875 58.734375 
Q 14.59375 50.734375 14.59375 36.625 
Q 14.59375 22.75 19.09375 14.796875 
Q 23.640625 6.984375 31.5 6.984375 
Q 40.921875 6.984375 45.453125 18.015625 
Q 48.4375 25.34375 48.4375 37.109375 
Q 48.4375 50.875 43.84375 58.734375 
Q 39.203125 66.65625 31.5 66.65625 
z
" id="IPAexGothic-48"/>
      <path d="M 30.765625 26.609375 
L 4.984375 26.609375 
L 4.984375 34.421875 
L 30.765625 34.421875 
z
" id="IPAexGothic-45"/>
     </defs>
     <g transform="translate(357.754375 300.19325)scale(0.1 -0.1)">
      <use xlink:href="#IPAexGothic-50"/>
      <use x="62.988281" xlink:href="#IPAexGothic-48"/>
      <use x="125.976562" xlink:href="#IPAexGothic-50"/>
      <use x="188.964844" xlink:href="#IPAexGothic-48"/>
      <use x="251.953125" xlink:href="#IPAexGothic-45"/>
      <use x="287.744141" xlink:href="#IPAexGothic-65"/>
      <use x="351.464844" xlink:href="#IPAexGothic-112"/>
      <use x="413.574219" xlink:href="#IPAexGothic-114"/>
     </g>
    </g>
   </g>
   <g id="matplotlib.axis_2">
    <g id="ytick_1">
     <g id="line2d_6">
      <defs>
       <path d="M 0 0 
L -3.5 0 
" id="m0994c34c07" style="stroke:#000000;stroke-width:0.8;"/>
      </defs>
      <g>
       <use style="stroke:#000000;stroke-width:0.8;" x="45.692188" xlink:href="#m0994c34c07" y="273.312"/>
      </g>
     </g>
     <g id="text_7">
      <!-- 0 -->
      <g transform="translate(32.39375 277.057312)scale(0.1 -0.1)">
       <use xlink:href="#IPAexGothic-48"/>
      </g>
     </g>
    </g>
    <g id="ytick_2">
     <g id="line2d_7">
      <g>
       <use style="stroke:#000000;stroke-width:0.8;" x="45.692188" xlink:href="#m0994c34c07" y="242.450974"/>
      </g>
     </g>
     <g id="text_8">
      <!-- 10000 -->
      <g transform="translate(7.2 246.196287)scale(0.1 -0.1)">
       <use xlink:href="#IPAexGothic-49"/>
       <use x="62.988281" xlink:href="#IPAexGothic-48"/>
       <use x="125.976562" xlink:href="#IPAexGothic-48"/>
       <use x="188.964844" xlink:href="#IPAexGothic-48"/>
       <use x="251.953125" xlink:href="#IPAexGothic-48"/>
      </g>
     </g>
    </g>
    <g id="ytick_3">
     <g id="line2d_8">
      <g>
       <use style="stroke:#000000;stroke-width:0.8;" x="45.692188" xlink:href="#m0994c34c07" y="211.589949"/>
      </g>
     </g>
     <g id="text_9">
      <!-- 20000 -->
      <g transform="translate(7.2 215.335261)scale(0.1 -0.1)">
       <use xlink:href="#IPAexGothic-50"/>
       <use x="62.988281" xlink:href="#IPAexGothic-48"/>
       <use x="125.976562" xlink:href="#IPAexGothic-48"/>
       <use x="188.964844" xlink:href="#IPAexGothic-48"/>
       <use x="251.953125" xlink:href="#IPAexGothic-48"/>
      </g>
     </g>
    </g>
    <g id="ytick_4">
     <g id="line2d_9">
      <g>
       <use style="stroke:#000000;stroke-width:0.8;" x="45.692188" xlink:href="#m0994c34c07" y="180.728923"/>
      </g>
     </g>
     <g id="text_10">
      <!-- 30000 -->
      <defs>
       <path d="M 37.203125 37.796875 
Q 54.78125 34.625 54.78125 19.96875 
Q 54.78125 11.1875 48.875 5.5625 
Q 42.328125 -0.484375 30.375 -0.484375 
Q 12.453125 -0.484375 4.5 13.765625 
L 11.8125 17.671875 
Q 17.328125 6.890625 30.28125 6.890625 
Q 37.890625 6.890625 42.09375 10.796875 
Q 46.09375 14.5 46.09375 20.171875 
Q 46.09375 26.859375 40.09375 30.90625 
Q 34.625 34.578125 25.6875 34.578125 
L 21.296875 34.578125 
L 21.296875 41.703125 
L 25.875 41.703125 
Q 34.859375 41.703125 39.59375 45.125 
Q 44.671875 48.734375 44.671875 54.828125 
Q 44.671875 61.46875 38.96875 64.65625 
Q 35.296875 66.84375 30.171875 66.84375 
Q 19.34375 66.84375 14.109375 55.90625 
L 6.78125 59.421875 
Q 14.015625 73.828125 30.28125 73.828125 
Q 40.578125 73.828125 46.96875 68.65625 
Q 53.375 63.578125 53.375 55.21875 
Q 53.375 47.3125 47.171875 42.28125 
Q 43.171875 39.0625 37.203125 38.1875 
z
" id="IPAexGothic-51"/>
      </defs>
      <g transform="translate(7.2 184.474236)scale(0.1 -0.1)">
       <use xlink:href="#IPAexGothic-51"/>
       <use x="62.988281" xlink:href="#IPAexGothic-48"/>
       <use x="125.976562" xlink:href="#IPAexGothic-48"/>
       <use x="188.964844" xlink:href="#IPAexGothic-48"/>
       <use x="251.953125" xlink:href="#IPAexGothic-48"/>
      </g>
     </g>
    </g>
    <g id="ytick_5">
     <g id="line2d_10">
      <g>
       <use style="stroke:#000000;stroke-width:0.8;" x="45.692188" xlink:href="#m0994c34c07" y="149.867898"/>
      </g>
     </g>
     <g id="text_11">
      <!-- 40000 -->
      <defs>
       <path d="M 59.578125 18.109375 
L 47.796875 18.109375 
L 47.796875 0.984375 
L 39.796875 0.984375 
L 39.796875 18.109375 
L 3.078125 18.109375 
L 3.078125 26.125 
L 38.375 73.09375 
L 47.796875 73.09375 
L 47.796875 25.53125 
L 59.578125 25.53125 
z
M 40.28125 64.203125 
L 39.984375 64.203125 
Q 35.59375 57.125 31.296875 51.3125 
L 11.859375 25.53125 
L 39.796875 25.53125 
L 39.796875 49.125 
Q 39.796875 54.390625 40.28125 64.203125 
z
" id="IPAexGothic-52"/>
      </defs>
      <g transform="translate(7.2 153.61321)scale(0.1 -0.1)">
       <use xlink:href="#IPAexGothic-52"/>
       <use x="62.988281" xlink:href="#IPAexGothic-48"/>
       <use x="125.976562" xlink:href="#IPAexGothic-48"/>
       <use x="188.964844" xlink:href="#IPAexGothic-48"/>
       <use x="251.953125" xlink:href="#IPAexGothic-48"/>
      </g>
     </g>
    </g>
    <g id="ytick_6">
     <g id="line2d_11">
      <g>
       <use style="stroke:#000000;stroke-width:0.8;" x="45.692188" xlink:href="#m0994c34c07" y="119.006872"/>
      </g>
     </g>
     <g id="text_12">
      <!-- 50000 -->
      <g transform="translate(7.2 122.752185)scale(0.1 -0.1)">
       <use xlink:href="#IPAexGothic-53"/>
       <use x="62.988281" xlink:href="#IPAexGothic-48"/>
       <use x="125.976562" xlink:href="#IPAexGothic-48"/>
       <use x="188.964844" xlink:href="#IPAexGothic-48"/>
       <use x="251.953125" xlink:href="#IPAexGothic-48"/>
      </g>
     </g>
    </g>
    <g id="ytick_7">
     <g id="line2d_12">
      <g>
       <use style="stroke:#000000;stroke-width:0.8;" x="45.692188" xlink:href="#m0994c34c07" y="88.145847"/>
      </g>
     </g>
     <g id="text_13">
      <!-- 60000 -->
      <defs>
       <path d="M 16.5 36.375 
Q 23.578125 46.578125 34.90625 46.578125 
Q 45.40625 46.578125 51.8125 39.265625 
Q 57.421875 32.90625 57.421875 23.78125 
Q 57.421875 13.8125 51.125 6.78125 
Q 44.578125 -0.484375 34.03125 -0.484375 
Q 21.484375 -0.484375 14.40625 9.078125 
Q 7.515625 18.40625 7.515625 34.8125 
Q 7.515625 53.515625 15.828125 64.203125 
Q 23.34375 73.828125 35.5 73.828125 
Q 49.859375 73.828125 56.390625 62.890625 
L 49.21875 58.984375 
Q 45.21875 66.65625 35.9375 66.65625 
Q 17.484375 66.65625 16.109375 36.375 
z
M 33.453125 39.796875 
Q 26.3125 39.796875 21.625 34.46875 
Q 17.4375 29.6875 17.4375 24.078125 
Q 17.4375 18.0625 21.140625 13.1875 
Q 26.125 6.6875 33.734375 6.6875 
Q 41.703125 6.6875 45.953125 13.1875 
Q 48.828125 17.625 48.828125 23.484375 
Q 48.828125 30.375 45.015625 34.8125 
Q 40.625 39.796875 33.453125 39.796875 
z
" id="IPAexGothic-54"/>
      </defs>
      <g transform="translate(7.2 91.891159)scale(0.1 -0.1)">
       <use xlink:href="#IPAexGothic-54"/>
       <use x="62.988281" xlink:href="#IPAexGothic-48"/>
       <use x="125.976562" xlink:href="#IPAexGothic-48"/>
       <use x="188.964844" xlink:href="#IPAexGothic-48"/>
       <use x="251.953125" xlink:href="#IPAexGothic-48"/>
      </g>
     </g>
    </g>
    <g id="ytick_8">
     <g id="line2d_13">
      <g>
       <use style="stroke:#000000;stroke-width:0.8;" x="45.692188" xlink:href="#m0994c34c07" y="57.284821"/>
      </g>
     </g>
     <g id="text_14">
      <!-- 70000 -->
      <defs>
       <path d="M 56.203125 66.609375 
Q 34.96875 32.90625 27.78125 0.984375 
L 17.671875 0.984375 
Q 24.703125 28.65625 46.09375 64.5 
L 6.6875 64.5 
L 6.6875 72.40625 
L 56.203125 72.40625 
z
" id="IPAexGothic-55"/>
      </defs>
      <g transform="translate(7.2 61.030134)scale(0.1 -0.1)">
       <use xlink:href="#IPAexGothic-55"/>
       <use x="62.988281" xlink:href="#IPAexGothic-48"/>
       <use x="125.976562" xlink:href="#IPAexGothic-48"/>
       <use x="188.964844" xlink:href="#IPAexGothic-48"/>
       <use x="251.953125" xlink:href="#IPAexGothic-48"/>
      </g>
     </g>
    </g>
    <g id="ytick_9">
     <g id="line2d_14">
      <g>
       <use style="stroke:#000000;stroke-width:0.8;" x="45.692188" xlink:href="#m0994c34c07" y="26.423796"/>
      </g>
     </g>
     <g id="text_15">
      <!-- 80000 -->
      <defs>
       <path d="M 39.703125 37.890625 
Q 57.8125 31.734375 57.8125 18.703125 
Q 57.8125 8.453125 48.4375 3.078125 
Q 41.609375 -0.875 31.5 -0.875 
Q 21.34375 -0.875 14.5 3.078125 
Q 5.421875 8.296875 5.421875 18.40625 
Q 5.421875 31.0625 22.015625 37.203125 
L 22.015625 37.5 
Q 7.515625 42.71875 7.515625 54.828125 
Q 7.515625 64.0625 15.328125 69.625 
Q 21.96875 74.3125 31.546875 74.3125 
Q 42.234375 74.3125 48.921875 68.796875 
Q 55.515625 63.578125 55.515625 55.71875 
Q 55.515625 42.28125 39.703125 38.1875 
z
M 31.59375 41.015625 
Q 46.828125 44.625 46.828125 55.125 
Q 46.828125 61.1875 41.796875 64.84375 
Q 37.703125 67.921875 31.5 67.921875 
Q 25.09375 67.921875 20.796875 64.5 
Q 16.40625 60.890625 16.40625 55.03125 
Q 16.40625 49.21875 21.09375 45.703125 
Q 23.34375 43.890625 26.90625 42.53125 
Q 31 40.875 31.59375 41.015625 
z
M 30.90625 34.515625 
Q 14.40625 30.171875 14.40625 19 
Q 14.40625 12.109375 20.515625 8.6875 
Q 25.09375 6.109375 31.390625 6.109375 
Q 40.234375 6.109375 45.015625 10.890625 
Q 48.53125 14.40625 48.53125 19.53125 
Q 48.53125 24.90625 43.65625 28.90625 
Q 40.765625 31.15625 36.71875 32.8125 
Q 31.984375 34.71875 30.90625 34.515625 
z
" id="IPAexGothic-56"/>
      </defs>
      <g transform="translate(7.2 30.169108)scale(0.1 -0.1)">
       <use xlink:href="#IPAexGothic-56"/>
       <use x="62.988281" xlink:href="#IPAexGothic-48"/>
       <use x="125.976562" xlink:href="#IPAexGothic-48"/>
       <use x="188.964844" xlink:href="#IPAexGothic-48"/>
       <use x="251.953125" xlink:href="#IPAexGothic-48"/>
      </g>
     </g>
    </g>
   </g>
   <g id="patch_240">
    <path d="M 45.692188 273.312 
L 45.692188 7.2 
" style="fill:none;stroke:#000000;stroke-linecap:square;stroke-linejoin:miter;stroke-width:0.8;"/>
   </g>
   <g id="patch_241">
    <path d="M 402.812188 273.312 
L 402.812188 7.2 
" style="fill:none;stroke:#000000;stroke-linecap:square;stroke-linejoin:miter;stroke-width:0.8;"/>
   </g>
   <g id="patch_242">
    <path d="M 45.692188 273.312 
L 402.812188 273.312 
" style="fill:none;stroke:#000000;stroke-linecap:square;stroke-linejoin:miter;stroke-width:0.8;"/>
   </g>
   <g id="patch_243">
    <path d="M 45.692188 7.2 
L 402.812188 7.2 
" style="fill:none;stroke:#000000;stroke-linecap:square;stroke-linejoin:miter;stroke-width:0.8;"/>
   </g>
   <g id="legend_1">
    <g id="patch_244">
     <path d="M 52.692188 58.371875 
L 167.5375 58.371875 
Q 169.5375 58.371875 169.5375 56.371875 
L 169.5375 14.2 
Q 169.5375 12.2 167.5375 12.2 
L 52.692188 12.2 
Q 50.692188 12.2 50.692188 14.2 
L 50.692188 56.371875 
Q 50.692188 58.371875 52.692188 58.371875 
z
" style="fill:#ffffff;opacity:0.8;stroke:#cccccc;stroke-linejoin:miter;"/>
    </g>
    <g id="patch_245">
     <path d="M 54.692188 23.690625 
L 74.692188 23.690625 
L 74.692188 16.690625 
L 54.692188 16.690625 
z
" style="fill:#ffbb78;stroke:#ffffff;stroke-linejoin:miter;"/>
    </g>
    <g id="text_16">
     <!-- Global Confirmed -->
     <defs>
      <path d="M 68.796875 12.203125 
Q 65.1875 7.71875 58.296875 3.90625 
Q 50.140625 -0.484375 40.484375 -0.484375 
Q 25.09375 -0.484375 15.4375 9.8125 
Q 5.90625 19.921875 5.90625 36.328125 
Q 5.90625 53.21875 15.828125 63.71875 
Q 25.296875 73.828125 39.59375 73.828125 
Q 59.375 73.828125 67.578125 56.6875 
L 59.625 52.984375 
Q 53.46875 66.21875 39.703125 66.21875 
Q 29.546875 66.21875 22.703125 58.5 
Q 15.53125 50.25 15.53125 36.375 
Q 15.53125 23.921875 21.828125 15.96875 
Q 28.8125 7.171875 41.015625 7.171875 
Q 54.046875 7.171875 60.59375 15.09375 
L 60.59375 29 
L 44.671875 29 
L 44.671875 35.796875 
L 68.796875 35.796875 
z
" id="IPAexGothic-71"/>
      <path d="M 17.671875 0.984375 
L 9.078125 0.984375 
L 9.078125 74.90625 
L 17.671875 74.90625 
z
" id="IPAexGothic-108"/>
      <path d="M 29.984375 52.203125 
Q 40.53125 52.203125 47.75 45.125 
Q 55.171875 37.703125 55.171875 25.59375 
Q 55.171875 13.875 47.90625 6.59375 
Q 40.765625 -0.484375 29.984375 -0.484375 
Q 19.1875 -0.484375 12.203125 6.5 
Q 4.890625 13.765625 4.890625 25.875 
Q 4.890625 37.703125 12.3125 45.125 
Q 19.390625 52.203125 29.984375 52.203125 
z
M 29.984375 45.609375 
Q 23.734375 45.609375 19.390625 41.109375 
Q 13.875 35.59375 13.875 25.78125 
Q 13.875 16.109375 19.28125 10.6875 
Q 23.6875 6.296875 29.984375 6.296875 
Q 36.421875 6.296875 40.765625 10.796875 
Q 46.1875 16.21875 46.1875 26.125 
Q 46.1875 35.453125 40.671875 41.109375 
Q 36.1875 45.609375 29.984375 45.609375 
z
" id="IPAexGothic-111"/>
      <path id="IPAexGothic-32"/>
      <path d="M 68.015625 17 
Q 65.328125 10.84375 60.296875 6.6875 
Q 51.765625 -0.484375 39.984375 -0.484375 
Q 24.8125 -0.484375 14.984375 10.203125 
Q 5.90625 20.21875 5.90625 36.421875 
Q 5.90625 53.21875 15.828125 63.71875 
Q 25.296875 73.828125 39.59375 73.828125 
Q 59.578125 73.828125 67.53125 56.6875 
L 59.515625 52.984375 
Q 53.515625 66.21875 39.703125 66.21875 
Q 29.546875 66.21875 22.703125 58.5 
Q 15.53125 50.25 15.53125 36.28125 
Q 15.53125 24.21875 21.625 16.5 
Q 28.765625 7.375 40.046875 7.375 
Q 54 7.375 60.59375 20.609375 
z
" id="IPAexGothic-67"/>
      <path d="M 52 0.984375 
L 43.40625 0.984375 
L 43.40625 31.890625 
Q 43.40625 44.578125 32.90625 44.578125 
Q 22.3125 44.578125 17.390625 31.890625 
L 17.390625 0.984375 
L 8.796875 0.984375 
L 8.796875 50.78125 
L 16.796875 50.78125 
L 16.796875 41.796875 
Q 23.828125 51.8125 34.71875 51.8125 
Q 52 51.8125 52 32.375 
z
" id="IPAexGothic-110"/>
      <path d="M 38.375 72.21875 
L 34.8125 66.3125 
Q 31.109375 69.09375 27.203125 69.09375 
Q 18.5 69.09375 18.5 57.375 
L 18.5 50.78125 
L 32.078125 50.78125 
L 32.078125 44.671875 
L 18.5 44.671875 
L 18.5 0.984375 
L 10.015625 0.984375 
L 10.015625 44.671875 
L 1.90625 44.671875 
L 1.90625 50.78125 
L 10.015625 50.78125 
L 10.015625 57.171875 
Q 10.015625 65.4375 13.921875 70.0625 
Q 18.75 75.6875 26.703125 75.6875 
Q 33.0625 75.6875 38.375 72.21875 
z
" id="IPAexGothic-102"/>
      <path d="M 18.40625 61.375 
L 8.59375 61.375 
L 8.59375 71.390625 
L 18.40625 71.390625 
z
M 17.78125 0.984375 
L 9.1875 0.984375 
L 9.1875 50.78125 
L 17.78125 50.78125 
z
" id="IPAexGothic-105"/>
      <path d="M 78.46875 0.984375 
L 69.875 0.984375 
L 69.875 32.171875 
Q 69.875 44.828125 60.109375 44.828125 
Q 55.46875 44.828125 51.609375 40.53125 
Q 48.875 37.453125 47.796875 32.859375 
L 47.796875 0.984375 
L 39.203125 0.984375 
L 39.203125 32.28125 
Q 39.203125 44.828125 29.984375 44.828125 
Q 25.09375 44.828125 21.390625 40.53125 
Q 17.390625 36.03125 17.390625 31.890625 
L 17.390625 0.984375 
L 8.796875 0.984375 
L 8.796875 50.78125 
L 16.796875 50.78125 
L 16.796875 42.1875 
Q 21.734375 51.8125 31.6875 51.8125 
Q 42.578125 51.8125 46.1875 41.359375 
Q 51.609375 51.8125 61.765625 51.8125 
Q 69.96875 51.8125 74.5625 46 
Q 78.46875 41.21875 78.46875 32.375 
z
" id="IPAexGothic-109"/>
      <path d="M 52.984375 0.984375 
L 45.171875 0.984375 
L 45.171875 9.671875 
Q 38.140625 -0.484375 27.390625 -0.484375 
Q 18.453125 -0.484375 12.3125 5.8125 
Q 4.890625 13.1875 4.890625 25.984375 
Q 4.890625 38.53125 12.0625 45.90625 
Q 18.265625 52.203125 27.390625 52.203125 
Q 37.25 52.203125 44.484375 43.890625 
L 44.484375 74.90625 
L 52.984375 74.90625 
z
M 44.484375 20.359375 
L 44.484375 32.765625 
Q 44.484375 37.703125 38.375 42.28125 
Q 34.078125 45.40625 28.953125 45.40625 
Q 23.1875 45.40625 19.1875 41.40625 
Q 13.875 36.078125 13.875 26.21875 
Q 13.875 17.328125 18.265625 11.71875 
Q 22.515625 6.390625 28.859375 6.390625 
Q 36.28125 6.390625 41.5 13.671875 
Q 44.484375 17.71875 44.484375 20.359375 
z
" id="IPAexGothic-100"/>
     </defs>
     <g transform="translate(82.692188 23.690625)scale(0.1 -0.1)">
      <use xlink:href="#IPAexGothic-71"/>
      <use x="75.292969" xlink:href="#IPAexGothic-108"/>
      <use x="102.294922" xlink:href="#IPAexGothic-111"/>
      <use x="162.695312" xlink:href="#IPAexGothic-98"/>
      <use x="225.097656" xlink:href="#IPAexGothic-97"/>
      <use x="280.078125" xlink:href="#IPAexGothic-108"/>
      <use x="307.080078" xlink:href="#IPAexGothic-32"/>
      <use x="334.082031" xlink:href="#IPAexGothic-67"/>
      <use x="406.591797" xlink:href="#IPAexGothic-111"/>
      <use x="466.992188" xlink:href="#IPAexGothic-110"/>
      <use x="527.392578" xlink:href="#IPAexGothic-102"/>
      <use x="558.007812" xlink:href="#IPAexGothic-105"/>
      <use x="585.009766" xlink:href="#IPAexGothic-114"/>
      <use x="622.021484" xlink:href="#IPAexGothic-109"/>
      <use x="709.130859" xlink:href="#IPAexGothic-101"/>
      <use x="766.015625" xlink:href="#IPAexGothic-100"/>
     </g>
    </g>
    <g id="patch_246">
     <path d="M 54.692188 38.08125 
L 74.692188 38.08125 
L 74.692188 31.08125 
L 54.692188 31.08125 
z
" style="fill:#ff7f0e;stroke:#ffffff;stroke-linejoin:miter;"/>
    </g>
    <g id="text_17">
     <!-- China Confirmed -->
     <defs>
      <path d="M 52.296875 0.984375 
L 43.703125 0.984375 
L 43.703125 31.890625 
Q 43.703125 44.578125 33.296875 44.578125 
Q 22.609375 44.578125 17.671875 31.890625 
L 17.671875 0.984375 
L 9.078125 0.984375 
L 9.078125 74.90625 
L 17.671875 74.90625 
L 17.671875 42.28125 
Q 24.46875 51.8125 35.109375 51.8125 
Q 52.296875 51.8125 52.296875 32.375 
z
" id="IPAexGothic-104"/>
     </defs>
     <g transform="translate(82.692188 38.08125)scale(0.1 -0.1)">
      <use xlink:href="#IPAexGothic-67"/>
      <use x="72.509766" xlink:href="#IPAexGothic-104"/>
      <use x="133.203125" xlink:href="#IPAexGothic-105"/>
      <use x="160.205078" xlink:href="#IPAexGothic-110"/>
      <use x="220.605469" xlink:href="#IPAexGothic-97"/>
      <use x="275.585938" xlink:href="#IPAexGothic-32"/>
      <use x="302.587891" xlink:href="#IPAexGothic-67"/>
      <use x="375.097656" xlink:href="#IPAexGothic-111"/>
      <use x="435.498047" xlink:href="#IPAexGothic-110"/>
      <use x="495.898438" xlink:href="#IPAexGothic-102"/>
      <use x="526.513672" xlink:href="#IPAexGothic-105"/>
      <use x="553.515625" xlink:href="#IPAexGothic-114"/>
      <use x="590.527344" xlink:href="#IPAexGothic-109"/>
      <use x="677.636719" xlink:href="#IPAexGothic-101"/>
      <use x="734.521484" xlink:href="#IPAexGothic-100"/>
     </g>
    </g>
    <g id="patch_247">
     <path d="M 54.692188 52.471875 
L 74.692188 52.471875 
L 74.692188 45.471875 
L 54.692188 45.471875 
z
" style="fill:#d62728;stroke:#ffffff;stroke-linejoin:miter;"/>
    </g>
    <g id="text_18">
     <!-- Global Deaths -->
     <defs>
      <path d="M 9.515625 72.40625 
L 31 72.40625 
Q 49.359375 72.40625 59.234375 63.28125 
Q 69.625 53.8125 69.625 36.8125 
Q 69.625 16.359375 54.9375 6.890625 
Q 45.703125 0.984375 30.328125 0.984375 
L 9.515625 0.984375 
z
M 18.3125 8.6875 
L 29.59375 8.6875 
Q 60.203125 8.6875 60.203125 36.8125 
Q 60.203125 64.796875 30.125 64.796875 
L 18.3125 64.796875 
z
" id="IPAexGothic-68"/>
      <path d="M 33.203125 3.765625 
Q 27.640625 -0.09375 21.828125 -0.09375 
Q 10.203125 -0.09375 10.203125 12.984375 
L 10.203125 44.671875 
L 3.421875 44.671875 
L 3.421875 50.78125 
L 10.203125 50.78125 
L 10.203125 61.96875 
L 18.40625 66.0625 
L 18.40625 50.78125 
L 32.234375 50.78125 
L 32.234375 44.671875 
L 18.40625 44.671875 
L 18.40625 14.15625 
Q 18.40625 6.5 23.640625 6.5 
Q 27.15625 6.5 30.328125 9.1875 
z
" id="IPAexGothic-116"/>
      <path d="M 34.90625 39.796875 
Q 30.28125 45.796875 23.1875 45.796875 
Q 13.921875 45.796875 13.921875 38.671875 
Q 13.921875 33.640625 23.921875 30.375 
L 27.203125 29.296875 
Q 41.40625 24.65625 41.40625 13.96875 
Q 41.40625 6.78125 35.5 2.6875 
Q 30.8125 -0.484375 23.390625 -0.484375 
Q 11.96875 -0.484375 4 7.859375 
L 9.421875 12.796875 
Q 15.578125 6.203125 23.6875 6.203125 
Q 33.296875 6.203125 33.296875 13.671875 
Q 33.296875 19.34375 22.703125 23.09375 
L 19.28125 24.265625 
Q 5.90625 28.953125 5.90625 37.984375 
Q 5.90625 43.703125 9.8125 47.609375 
Q 14.5 52.296875 22.703125 52.296875 
Q 33.6875 52.296875 40.71875 44.671875 
z
" id="IPAexGothic-115"/>
     </defs>
     <g transform="translate(82.692188 52.471875)scale(0.1 -0.1)">
      <use xlink:href="#IPAexGothic-71"/>
      <use x="75.292969" xlink:href="#IPAexGothic-108"/>
      <use x="102.294922" xlink:href="#IPAexGothic-111"/>
      <use x="162.695312" xlink:href="#IPAexGothic-98"/>
      <use x="225.097656" xlink:href="#IPAexGothic-97"/>
      <use x="280.078125" xlink:href="#IPAexGothic-108"/>
      <use x="307.080078" xlink:href="#IPAexGothic-32"/>
      <use x="334.082031" xlink:href="#IPAexGothic-68"/>
      <use x="409.765625" xlink:href="#IPAexGothic-101"/>
      <use x="466.650391" xlink:href="#IPAexGothic-97"/>
      <use x="521.630859" xlink:href="#IPAexGothic-116"/>
      <use x="556.25" xlink:href="#IPAexGothic-104"/>
      <use x="616.943359" xlink:href="#IPAexGothic-115"/>
     </g>
    </g>
   </g>
  </g>
 </g>
 <defs>
  <clipPath id="pdbca1fd1c9">
   <rect height="266.112" width="357.12" x="45.692188" y="7.2"/>
  </clipPath>
 </defs>
</svg>
