<?xml version="1.0" encoding="utf-8" standalone="no"?>
<!DOCTYPE svg PUBLIC "-//W3C//DTD SVG 1.1//EN"
  "http://www.w3.org/Graphics/SVG/1.1/DTD/svg11.dtd">
<!-- Created with matplotlib (https://matplotlib.org/) -->
<svg height="320.239875pt" version="1.1" viewBox="0 0 410.012188 320.239875" width="410.012188pt" xmlns="http://www.w3.org/2000/svg" xmlns:xlink="http://www.w3.org/1999/xlink">
 <defs>
  <style type="text/css">
*{stroke-linecap:butt;stroke-linejoin:round;}
  </style>
 </defs>
 <g id="figure_1">
  <g id="patch_1">
   <path d="M 0 320.239875 
L 410.012188 320.239875 
L 410.012188 0 
L 0 0 
z
" style="fill:#ffffff;"/>
  </g>
  <g id="axes_1">
   <g id="patch_2">
    <path d="M 45.692188 284.258625 
L 402.812188 284.258625 
L 402.812188 18.146625 
L 45.692188 18.146625 
z
" style="fill:#ffffff;"/>
   </g>
   <g id="patch_3">
    <path clip-path="url(#pa144e9d79c)" d="M 61.924915 284.258625 
L 63.613625 284.258625 
L 63.613625 284.244479 
L 61.924915 284.244479 
z
" style="fill:#ffbb78;"/>
   </g>
   <g id="patch_4">
    <path clip-path="url(#pa144e9d79c)" d="M 64.035803 284.258625 
L 65.724513 284.258625 
L 65.724513 284.244479 
L 64.035803 284.244479 
z
" style="fill:#ffbb78;"/>
   </g>
   <g id="patch_5">
    <path clip-path="url(#pa144e9d79c)" d="M 66.14669 284.258625 
L 67.835401 284.258625 
L 67.835401 284.244479 
L 66.14669 284.244479 
z
" style="fill:#ffbb78;"/>
   </g>
   <g id="patch_6">
    <path clip-path="url(#pa144e9d79c)" d="M 68.257578 284.258625 
L 69.946288 284.258625 
L 69.946288 284.244479 
L 68.257578 284.244479 
z
" style="fill:#ffbb78;"/>
   </g>
   <g id="patch_7">
    <path clip-path="url(#pa144e9d79c)" d="M 70.368466 284.258625 
L 72.057176 284.258625 
L 72.057176 284.216187 
L 70.368466 284.216187 
z
" style="fill:#ffbb78;"/>
   </g>
   <g id="patch_8">
    <path clip-path="url(#pa144e9d79c)" d="M 72.479354 284.258625 
L 74.168064 284.258625 
L 74.168064 284.216187 
L 72.479354 284.216187 
z
" style="fill:#ffbb78;"/>
   </g>
   <g id="patch_9">
    <path clip-path="url(#pa144e9d79c)" d="M 74.590242 284.258625 
L 76.278952 284.258625 
L 76.278952 284.202041 
L 74.590242 284.202041 
z
" style="fill:#ffbb78;"/>
   </g>
   <g id="patch_10">
    <path clip-path="url(#pa144e9d79c)" d="M 76.701129 284.258625 
L 78.38984 284.258625 
L 78.38984 284.173749 
L 76.701129 284.173749 
z
" style="fill:#ffbb78;"/>
   </g>
   <g id="patch_11">
    <path clip-path="url(#pa144e9d79c)" d="M 78.812017 284.258625 
L 80.500728 284.258625 
L 80.500728 284.159603 
L 78.812017 284.159603 
z
" style="fill:#ffbb78;"/>
   </g>
   <g id="patch_12">
    <path clip-path="url(#pa144e9d79c)" d="M 80.922905 284.258625 
L 82.611615 284.258625 
L 82.611615 284.103019 
L 80.922905 284.103019 
z
" style="fill:#ffbb78;"/>
   </g>
   <g id="patch_13">
    <path clip-path="url(#pa144e9d79c)" d="M 83.033793 284.258625 
L 84.722503 284.258625 
L 84.722503 284.060581 
L 83.033793 284.060581 
z
" style="fill:#ffbb78;"/>
   </g>
   <g id="patch_14">
    <path clip-path="url(#pa144e9d79c)" d="M 85.144681 284.258625 
L 86.833391 284.258625 
L 86.833391 284.018143 
L 85.144681 284.018143 
z
" style="fill:#ffbb78;"/>
   </g>
   <g id="patch_15">
    <path clip-path="url(#pa144e9d79c)" d="M 87.255569 284.258625 
L 88.944279 284.258625 
L 88.944279 283.975705 
L 87.255569 283.975705 
z
" style="fill:#ffbb78;"/>
   </g>
   <g id="patch_16">
    <path clip-path="url(#pa144e9d79c)" d="M 89.366456 284.258625 
L 91.055167 284.258625 
L 91.055167 283.975705 
L 89.366456 283.975705 
z
" style="fill:#ffbb78;"/>
   </g>
   <g id="patch_17">
    <path clip-path="url(#pa144e9d79c)" d="M 91.477344 284.258625 
L 93.166054 284.258625 
L 93.166054 283.975705 
L 91.477344 283.975705 
z
" style="fill:#ffbb78;"/>
   </g>
   <g id="patch_18">
    <path clip-path="url(#pa144e9d79c)" d="M 93.588232 284.258625 
L 95.276942 284.258625 
L 95.276942 283.933267 
L 93.588232 283.933267 
z
" style="fill:#ffbb78;"/>
   </g>
   <g id="patch_19">
    <path clip-path="url(#pa144e9d79c)" d="M 95.69912 284.258625 
L 97.38783 284.258625 
L 97.38783 283.904975 
L 95.69912 283.904975 
z
" style="fill:#ffbb78;"/>
   </g>
   <g id="patch_20">
    <path clip-path="url(#pa144e9d79c)" d="M 97.810008 284.258625 
L 99.498718 284.258625 
L 99.498718 283.904975 
L 97.810008 283.904975 
z
" style="fill:#ffbb78;"/>
   </g>
   <g id="patch_21">
    <path clip-path="url(#pa144e9d79c)" d="M 99.920895 284.258625 
L 101.609606 284.258625 
L 101.609606 283.904975 
L 99.920895 283.904975 
z
" style="fill:#ffbb78;"/>
   </g>
   <g id="patch_22">
    <path clip-path="url(#pa144e9d79c)" d="M 102.031783 284.258625 
L 103.720493 284.258625 
L 103.720493 283.890829 
L 102.031783 283.890829 
z
" style="fill:#ffbb78;"/>
   </g>
   <g id="patch_23">
    <path clip-path="url(#pa144e9d79c)" d="M 104.142671 284.258625 
L 105.831381 284.258625 
L 105.831381 283.890829 
L 104.142671 283.890829 
z
" style="fill:#ffbb78;"/>
   </g>
   <g id="patch_24">
    <path clip-path="url(#pa144e9d79c)" d="M 106.253559 284.258625 
L 107.942269 284.258625 
L 107.942269 283.890829 
L 106.253559 283.890829 
z
" style="fill:#ffbb78;"/>
   </g>
   <g id="patch_25">
    <path clip-path="url(#pa144e9d79c)" d="M 108.364447 284.258625 
L 110.053157 284.258625 
L 110.053157 283.862537 
L 108.364447 283.862537 
z
" style="fill:#ffbb78;"/>
   </g>
   <g id="patch_26">
    <path clip-path="url(#pa144e9d79c)" d="M 110.475334 284.258625 
L 112.164045 284.258625 
L 112.164045 283.848391 
L 110.475334 283.848391 
z
" style="fill:#ffbb78;"/>
   </g>
   <g id="patch_27">
    <path clip-path="url(#pa144e9d79c)" d="M 112.586222 284.258625 
L 114.274933 284.258625 
L 114.274933 283.791807 
L 112.586222 283.791807 
z
" style="fill:#ffbb78;"/>
   </g>
   <g id="patch_28">
    <path clip-path="url(#pa144e9d79c)" d="M 114.69711 284.258625 
L 116.38582 284.258625 
L 116.38582 283.678638 
L 114.69711 283.678638 
z
" style="fill:#ffbb78;"/>
   </g>
   <g id="patch_29">
    <path clip-path="url(#pa144e9d79c)" d="M 116.807998 284.258625 
L 118.496708 284.258625 
L 118.496708 283.508886 
L 116.807998 283.508886 
z
" style="fill:#ffbb78;"/>
   </g>
   <g id="patch_30">
    <path clip-path="url(#pa144e9d79c)" d="M 118.918886 284.258625 
L 120.607596 284.258625 
L 120.607596 283.42401 
L 118.918886 283.42401 
z
" style="fill:#ffbb78;"/>
   </g>
   <g id="patch_31">
    <path clip-path="url(#pa144e9d79c)" d="M 121.029774 284.258625 
L 122.718484 284.258625 
L 122.718484 283.339134 
L 121.029774 283.339134 
z
" style="fill:#ffbb78;"/>
   </g>
   <g id="patch_32">
    <path clip-path="url(#pa144e9d79c)" d="M 123.140661 284.258625 
L 124.829372 284.258625 
L 124.829372 283.225966 
L 123.140661 283.225966 
z
" style="fill:#ffbb78;"/>
   </g>
   <g id="patch_33">
    <path clip-path="url(#pa144e9d79c)" d="M 125.251549 284.258625 
L 126.940259 284.258625 
L 126.940259 283.056214 
L 125.251549 283.056214 
z
" style="fill:#ffbb78;"/>
   </g>
   <g id="patch_34">
    <path clip-path="url(#pa144e9d79c)" d="M 127.362437 284.258625 
L 129.051147 284.258625 
L 129.051147 282.943046 
L 127.362437 282.943046 
z
" style="fill:#ffbb78;"/>
   </g>
   <g id="patch_35">
    <path clip-path="url(#pa144e9d79c)" d="M 129.473325 284.258625 
L 131.162035 284.258625 
L 131.162035 282.773293 
L 129.473325 282.773293 
z
" style="fill:#ffbb78;"/>
   </g>
   <g id="patch_36">
    <path clip-path="url(#pa144e9d79c)" d="M 131.584213 284.258625 
L 133.272923 284.258625 
L 133.272923 282.391351 
L 131.584213 282.391351 
z
" style="fill:#ffbb78;"/>
   </g>
   <g id="patch_37">
    <path clip-path="url(#pa144e9d79c)" d="M 133.6951 284.258625 
L 135.383811 284.258625 
L 135.383811 282.221599 
L 133.6951 282.221599 
z
" style="fill:#ffbb78;"/>
   </g>
   <g id="patch_38">
    <path clip-path="url(#pa144e9d79c)" d="M 135.805988 284.258625 
L 137.494698 284.258625 
L 137.494698 282.037701 
L 135.805988 282.037701 
z
" style="fill:#ffbb78;"/>
   </g>
   <g id="patch_39">
    <path clip-path="url(#pa144e9d79c)" d="M 137.916876 284.258625 
L 139.605586 284.258625 
L 139.605586 281.938679 
L 137.916876 281.938679 
z
" style="fill:#ffbb78;"/>
   </g>
   <g id="patch_40">
    <path clip-path="url(#pa144e9d79c)" d="M 140.027764 284.258625 
L 141.716474 284.258625 
L 141.716474 281.627466 
L 140.027764 281.627466 
z
" style="fill:#ffbb78;"/>
   </g>
   <g id="patch_41">
    <path clip-path="url(#pa144e9d79c)" d="M 142.138652 284.258625 
L 143.827362 284.258625 
L 143.827362 281.287962 
L 142.138652 281.287962 
z
" style="fill:#ffbb78;"/>
   </g>
   <g id="patch_42">
    <path clip-path="url(#pa144e9d79c)" d="M 144.249539 284.258625 
L 145.93825 284.258625 
L 145.93825 281.005042 
L 144.249539 281.005042 
z
" style="fill:#ffbb78;"/>
   </g>
   <g id="patch_43">
    <path clip-path="url(#pa144e9d79c)" d="M 146.360427 284.258625 
L 148.049137 284.258625 
L 148.049137 280.877727 
L 146.360427 280.877727 
z
" style="fill:#ffbb78;"/>
   </g>
   <g id="patch_44">
    <path clip-path="url(#pa144e9d79c)" d="M 148.471315 284.258625 
L 150.160025 284.258625 
L 150.160025 280.665537 
L 148.471315 280.665537 
z
" style="fill:#ffbb78;"/>
   </g>
   <g id="patch_45">
    <path clip-path="url(#pa144e9d79c)" d="M 150.582203 284.258625 
L 152.270913 284.258625 
L 152.270913 280.467493 
L 150.582203 280.467493 
z
" style="fill:#ffbb78;"/>
   </g>
   <g id="patch_46">
    <path clip-path="url(#pa144e9d79c)" d="M 152.693091 284.258625 
L 154.381801 284.258625 
L 154.381801 280.241157 
L 152.693091 280.241157 
z
" style="fill:#ffbb78;"/>
   </g>
   <g id="patch_47">
    <path clip-path="url(#pa144e9d79c)" d="M 154.803978 284.258625 
L 156.492689 284.258625 
L 156.492689 279.774338 
L 154.803978 279.774338 
z
" style="fill:#ffbb78;"/>
   </g>
   <g id="patch_48">
    <path clip-path="url(#pa144e9d79c)" d="M 156.914866 284.258625 
L 158.603577 284.258625 
L 158.603577 279.321666 
L 156.914866 279.321666 
z
" style="fill:#ffbb78;"/>
   </g>
   <g id="patch_49">
    <path clip-path="url(#pa144e9d79c)" d="M 159.025754 284.258625 
L 160.714464 284.258625 
L 160.714464 278.487051 
L 159.025754 278.487051 
z
" style="fill:#ffbb78;"/>
   </g>
   <g id="patch_50">
    <path clip-path="url(#pa144e9d79c)" d="M 161.136642 284.258625 
L 162.825352 284.258625 
L 162.825352 277.822188 
L 161.136642 277.822188 
z
" style="fill:#ffbb78;"/>
   </g>
   <g id="patch_51">
    <path clip-path="url(#pa144e9d79c)" d="M 163.24753 284.258625 
L 164.93624 284.258625 
L 164.93624 277.35537 
L 163.24753 277.35537 
z
" style="fill:#ffbb78;"/>
   </g>
   <g id="patch_52">
    <path clip-path="url(#pa144e9d79c)" d="M 165.358418 284.258625 
L 167.047128 284.258625 
L 167.047128 276.987573 
L 165.358418 276.987573 
z
" style="fill:#ffbb78;"/>
   </g>
   <g id="patch_53">
    <path clip-path="url(#pa144e9d79c)" d="M 167.469305 284.258625 
L 169.158016 284.258625 
L 169.158016 276.223689 
L 167.469305 276.223689 
z
" style="fill:#ffbb78;"/>
   </g>
   <g id="patch_54">
    <path clip-path="url(#pa144e9d79c)" d="M 169.580193 284.258625 
L 171.268903 284.258625 
L 171.268903 275.488096 
L 169.580193 275.488096 
z
" style="fill:#ffbb78;"/>
   </g>
   <g id="patch_55">
    <path clip-path="url(#pa144e9d79c)" d="M 171.691081 284.258625 
L 173.379791 284.258625 
L 173.379791 274.710065 
L 171.691081 274.710065 
z
" style="fill:#ffbb78;"/>
   </g>
   <g id="patch_56">
    <path clip-path="url(#pa144e9d79c)" d="M 173.801969 284.258625 
L 175.490679 284.258625 
L 175.490679 274.130078 
L 173.801969 274.130078 
z
" style="fill:#ffbb78;"/>
   </g>
   <g id="patch_57">
    <path clip-path="url(#pa144e9d79c)" d="M 175.912857 284.258625 
L 177.601567 284.258625 
L 177.601567 273.224734 
L 175.912857 273.224734 
z
" style="fill:#ffbb78;"/>
   </g>
   <g id="patch_58">
    <path clip-path="url(#pa144e9d79c)" d="M 178.023744 284.258625 
L 179.712455 284.258625 
L 179.712455 272.743769 
L 178.023744 272.743769 
z
" style="fill:#ffbb78;"/>
   </g>
   <g id="patch_59">
    <path clip-path="url(#pa144e9d79c)" d="M 180.134632 284.258625 
L 181.823342 284.258625 
L 181.823342 272.531579 
L 180.134632 272.531579 
z
" style="fill:#ffbb78;"/>
   </g>
   <g id="patch_60">
    <path clip-path="url(#pa144e9d79c)" d="M 182.24552 284.258625 
L 183.93423 284.258625 
L 183.93423 272.531579 
L 182.24552 272.531579 
z
" style="fill:#ffbb78;"/>
   </g>
   <g id="patch_61">
    <path clip-path="url(#pa144e9d79c)" d="M 184.356408 284.258625 
L 186.045118 284.258625 
L 186.045118 271.909154 
L 184.356408 271.909154 
z
" style="fill:#ffbb78;"/>
   </g>
   <g id="patch_62">
    <path clip-path="url(#pa144e9d79c)" d="M 186.467296 284.258625 
L 188.156006 284.258625 
L 188.156006 270.819911 
L 186.467296 270.819911 
z
" style="fill:#ffbb78;"/>
   </g>
   <g id="patch_63">
    <path clip-path="url(#pa144e9d79c)" d="M 188.578183 284.258625 
L 190.266894 284.258625 
L 190.266894 270.169194 
L 188.578183 270.169194 
z
" style="fill:#ffbb78;"/>
   </g>
   <g id="patch_64">
    <path clip-path="url(#pa144e9d79c)" d="M 190.689071 284.258625 
L 192.377782 284.258625 
L 192.377782 269.461894 
L 190.689071 269.461894 
z
" style="fill:#ffbb78;"/>
   </g>
   <g id="patch_65">
    <path clip-path="url(#pa144e9d79c)" d="M 192.799959 284.258625 
L 194.488669 284.258625 
L 194.488669 268.853615 
L 192.799959 268.853615 
z
" style="fill:#ffbb78;"/>
   </g>
   <g id="patch_66">
    <path clip-path="url(#pa144e9d79c)" d="M 194.910847 284.258625 
L 196.599557 284.258625 
L 196.599557 268.30192 
L 194.910847 268.30192 
z
" style="fill:#ffbb78;"/>
   </g>
   <g id="patch_67">
    <path clip-path="url(#pa144e9d79c)" d="M 197.021735 284.258625 
L 198.710445 284.258625 
L 198.710445 267.382429 
L 197.021735 267.382429 
z
" style="fill:#ffbb78;"/>
   </g>
   <g id="patch_68">
    <path clip-path="url(#pa144e9d79c)" d="M 199.132623 284.258625 
L 200.821333 284.258625 
L 200.821333 265.99612 
L 199.132623 265.99612 
z
" style="fill:#ffbb78;"/>
   </g>
   <g id="patch_69">
    <path clip-path="url(#pa144e9d79c)" d="M 201.24351 284.258625 
L 202.932221 284.258625 
L 202.932221 264.638103 
L 201.24351 264.638103 
z
" style="fill:#ffbb78;"/>
   </g>
   <g id="patch_70">
    <path clip-path="url(#pa144e9d79c)" d="M 203.354398 284.258625 
L 205.043108 284.258625 
L 205.043108 263.053749 
L 203.354398 263.053749 
z
" style="fill:#ffbb78;"/>
   </g>
   <g id="patch_71">
    <path clip-path="url(#pa144e9d79c)" d="M 205.465286 284.258625 
L 207.153996 284.258625 
L 207.153996 260.309422 
L 205.465286 260.309422 
z
" style="fill:#ffbb78;"/>
   </g>
   <g id="patch_72">
    <path clip-path="url(#pa144e9d79c)" d="M 207.576174 284.258625 
L 209.264884 284.258625 
L 209.264884 257.862162 
L 207.576174 257.862162 
z
" style="fill:#ffbb78;"/>
   </g>
   <g id="patch_73">
    <path clip-path="url(#pa144e9d79c)" d="M 209.687062 284.258625 
L 211.375772 284.258625 
L 211.375772 256.631458 
L 209.687062 256.631458 
z
" style="fill:#ffbb78;"/>
   </g>
   <g id="patch_74">
    <path clip-path="url(#pa144e9d79c)" d="M 211.797949 284.258625 
L 213.48666 284.258625 
L 213.48666 253.448605 
L 211.797949 253.448605 
z
" style="fill:#ffbb78;"/>
   </g>
   <g id="patch_75">
    <path clip-path="url(#pa144e9d79c)" d="M 213.908837 284.258625 
L 215.597547 284.258625 
L 215.597547 250.534526 
L 213.908837 250.534526 
z
" style="fill:#ffbb78;"/>
   </g>
   <g id="patch_76">
    <path clip-path="url(#pa144e9d79c)" d="M 216.019725 284.258625 
L 217.708435 284.258625 
L 217.708435 247.238504 
L 216.019725 247.238504 
z
" style="fill:#ffbb78;"/>
   </g>
   <g id="patch_77">
    <path clip-path="url(#pa144e9d79c)" d="M 218.130613 284.258625 
L 219.819323 284.258625 
L 219.819323 242.952262 
L 218.130613 242.952262 
z
" style="fill:#ffbb78;"/>
   </g>
   <g id="patch_78">
    <path clip-path="url(#pa144e9d79c)" d="M 220.241501 284.258625 
L 221.930211 284.258625 
L 221.930211 237.987011 
L 220.241501 237.987011 
z
" style="fill:#ffbb78;"/>
   </g>
   <g id="patch_79">
    <path clip-path="url(#pa144e9d79c)" d="M 222.352388 284.258625 
L 224.041099 284.258625 
L 224.041099 232.569087 
L 222.352388 232.569087 
z
" style="fill:#ffbb78;"/>
   </g>
   <g id="patch_80">
    <path clip-path="url(#pa144e9d79c)" d="M 224.463276 284.258625 
L 226.151987 284.258625 
L 226.151987 229.004291 
L 224.463276 229.004291 
z
" style="fill:#ffbb78;"/>
   </g>
   <g id="patch_81">
    <path clip-path="url(#pa144e9d79c)" d="M 226.574164 284.258625 
L 228.262874 284.258625 
L 228.262874 224.03904 
L 226.574164 224.03904 
z
" style="fill:#ffbb78;"/>
   </g>
   <g id="patch_82">
    <path clip-path="url(#pa144e9d79c)" d="M 228.685052 284.258625 
L 230.373762 284.258625 
L 230.373762 216.810427 
L 228.685052 216.810427 
z
" style="fill:#ffbb78;"/>
   </g>
   <g id="patch_83">
    <path clip-path="url(#pa144e9d79c)" d="M 230.79594 284.258625 
L 232.48465 284.258625 
L 232.48465 208.619884 
L 230.79594 208.619884 
z
" style="fill:#ffbb78;"/>
   </g>
   <g id="patch_84">
    <path clip-path="url(#pa144e9d79c)" d="M 232.906828 284.258625 
L 234.595538 284.258625 
L 234.595538 199.311807 
L 232.906828 199.311807 
z
" style="fill:#ffbb78;"/>
   </g>
   <g id="patch_85">
    <path clip-path="url(#pa144e9d79c)" d="M 235.017715 284.258625 
L 236.706426 284.258625 
L 236.706426 188.801318 
L 235.017715 188.801318 
z
" style="fill:#ffbb78;"/>
   </g>
   <g id="patch_86">
    <path clip-path="url(#pa144e9d79c)" d="M 237.128603 284.258625 
L 238.817313 284.258625 
L 238.817313 181.629288 
L 237.128603 181.629288 
z
" style="fill:#ffbb78;"/>
   </g>
   <g id="patch_87">
    <path clip-path="url(#pa144e9d79c)" d="M 239.239491 284.258625 
L 240.928201 284.258625 
L 240.928201 176.112342 
L 239.239491 176.112342 
z
" style="fill:#ffbb78;"/>
   </g>
   <g id="patch_88">
    <path clip-path="url(#pa144e9d79c)" d="M 241.350379 284.258625 
L 243.039089 284.258625 
L 243.039089 169.675906 
L 241.350379 169.675906 
z
" style="fill:#ffbb78;"/>
   </g>
   <g id="patch_89">
    <path clip-path="url(#pa144e9d79c)" d="M 243.461267 284.258625 
L 245.149977 284.258625 
L 245.149977 162.857527 
L 243.461267 162.857527 
z
" style="fill:#ffbb78;"/>
   </g>
   <g id="patch_90">
    <path clip-path="url(#pa144e9d79c)" d="M 245.572154 284.258625 
L 247.260865 284.258625 
L 247.260865 154.582108 
L 245.572154 154.582108 
z
" style="fill:#ffbb78;"/>
   </g>
   <g id="patch_91">
    <path clip-path="url(#pa144e9d79c)" d="M 247.683042 284.258625 
L 249.371752 284.258625 
L 249.371752 145.698411 
L 247.683042 145.698411 
z
" style="fill:#ffbb78;"/>
   </g>
   <g id="patch_92">
    <path clip-path="url(#pa144e9d79c)" d="M 249.79393 284.258625 
L 251.48264 284.258625 
L 251.48264 137.691766 
L 249.79393 137.691766 
z
" style="fill:#ffbb78;"/>
   </g>
   <g id="patch_93">
    <path clip-path="url(#pa144e9d79c)" d="M 251.904818 284.258625 
L 253.593528 284.258625 
L 253.593528 132.174821 
L 251.904818 132.174821 
z
" style="fill:#ffbb78;"/>
   </g>
   <g id="patch_94">
    <path clip-path="url(#pa144e9d79c)" d="M 254.015706 284.258625 
L 255.704416 284.258625 
L 255.704416 126.983233 
L 254.015706 126.983233 
z
" style="fill:#ffbb78;"/>
   </g>
   <g id="patch_95">
    <path clip-path="url(#pa144e9d79c)" d="M 256.126593 284.258625 
L 257.815304 284.258625 
L 257.815304 121.63604 
L 256.126593 121.63604 
z
" style="fill:#ffbb78;"/>
   </g>
   <g id="patch_96">
    <path clip-path="url(#pa144e9d79c)" d="M 258.237481 284.258625 
L 259.926192 284.258625 
L 259.926192 115.652275 
L 258.237481 115.652275 
z
" style="fill:#ffbb78;"/>
   </g>
   <g id="patch_97">
    <path clip-path="url(#pa144e9d79c)" d="M 260.348369 284.258625 
L 262.037079 284.258625 
L 262.037079 109.017794 
L 260.348369 109.017794 
z
" style="fill:#ffbb78;"/>
   </g>
   <g id="patch_98">
    <path clip-path="url(#pa144e9d79c)" d="M 262.459257 284.258625 
L 264.147967 284.258625 
L 264.147967 102.779402 
L 262.459257 102.779402 
z
" style="fill:#ffbb78;"/>
   </g>
   <g id="patch_99">
    <path clip-path="url(#pa144e9d79c)" d="M 264.570145 284.258625 
L 266.258855 284.258625 
L 266.258855 97.785859 
L 264.570145 97.785859 
z
" style="fill:#ffbb78;"/>
   </g>
   <g id="patch_100">
    <path clip-path="url(#pa144e9d79c)" d="M 266.681033 284.258625 
L 268.369743 284.258625 
L 268.369743 94.914218 
L 266.681033 94.914218 
z
" style="fill:#ffbb78;"/>
   </g>
   <g id="patch_101">
    <path clip-path="url(#pa144e9d79c)" d="M 268.79192 284.258625 
L 270.480631 284.258625 
L 270.480631 92.212329 
L 268.79192 92.212329 
z
" style="fill:#ffbb78;"/>
   </g>
   <g id="patch_102">
    <path clip-path="url(#pa144e9d79c)" d="M 270.902808 284.258625 
L 272.591518 284.258625 
L 272.591518 88.308029 
L 270.902808 88.308029 
z
" style="fill:#ffbb78;"/>
   </g>
   <g id="patch_103">
    <path clip-path="url(#pa144e9d79c)" d="M 273.013696 284.258625 
L 274.702406 284.258625 
L 274.702406 84.969569 
L 273.013696 84.969569 
z
" style="fill:#ffbb78;"/>
   </g>
   <g id="patch_104">
    <path clip-path="url(#pa144e9d79c)" d="M 275.124584 284.258625 
L 276.813294 284.258625 
L 276.813294 82.239389 
L 275.124584 82.239389 
z
" style="fill:#ffbb78;"/>
   </g>
   <g id="patch_105">
    <path clip-path="url(#pa144e9d79c)" d="M 277.235472 284.258625 
L 278.924182 284.258625 
L 278.924182 78.504841 
L 277.235472 78.504841 
z
" style="fill:#ffbb78;"/>
   </g>
   <g id="patch_106">
    <path clip-path="url(#pa144e9d79c)" d="M 279.346359 284.258625 
L 281.03507 284.258625 
L 281.03507 74.345912 
L 279.346359 74.345912 
z
" style="fill:#ffbb78;"/>
   </g>
   <g id="patch_107">
    <path clip-path="url(#pa144e9d79c)" d="M 281.457247 284.258625 
L 283.145957 284.258625 
L 283.145957 71.262081 
L 281.457247 71.262081 
z
" style="fill:#ffbb78;"/>
   </g>
   <g id="patch_108">
    <path clip-path="url(#pa144e9d79c)" d="M 283.568135 284.258625 
L 285.256845 284.258625 
L 285.256845 68.800675 
L 283.568135 68.800675 
z
" style="fill:#ffbb78;"/>
   </g>
   <g id="patch_109">
    <path clip-path="url(#pa144e9d79c)" d="M 285.679023 284.258625 
L 287.367733 284.258625 
L 287.367733 67.060715 
L 285.679023 67.060715 
z
" style="fill:#ffbb78;"/>
   </g>
   <g id="patch_110">
    <path clip-path="url(#pa144e9d79c)" d="M 287.789911 284.258625 
L 289.478621 284.258625 
L 289.478621 65.518799 
L 287.789911 65.518799 
z
" style="fill:#ffbb78;"/>
   </g>
   <g id="patch_111">
    <path clip-path="url(#pa144e9d79c)" d="M 289.900798 284.258625 
L 291.589509 284.258625 
L 291.589509 64.330534 
L 289.900798 64.330534 
z
" style="fill:#ffbb78;"/>
   </g>
   <g id="patch_112">
    <path clip-path="url(#pa144e9d79c)" d="M 292.011686 284.258625 
L 293.700397 284.258625 
L 293.700397 63.184707 
L 292.011686 63.184707 
z
" style="fill:#ffbb78;"/>
   </g>
   <g id="patch_113">
    <path clip-path="url(#pa144e9d79c)" d="M 294.122574 284.258625 
L 295.811284 284.258625 
L 295.811284 61.501331 
L 294.122574 61.501331 
z
" style="fill:#ffbb78;"/>
   </g>
   <g id="patch_114">
    <path clip-path="url(#pa144e9d79c)" d="M 296.233462 284.258625 
L 297.922172 284.258625 
L 297.922172 60.779884 
L 296.233462 60.779884 
z
" style="fill:#ffbb78;"/>
   </g>
   <g id="patch_115">
    <path clip-path="url(#pa144e9d79c)" d="M 298.34435 284.258625 
L 300.03306 284.258625 
L 300.03306 59.704787 
L 298.34435 59.704787 
z
" style="fill:#ffbb78;"/>
   </g>
   <g id="patch_116">
    <path clip-path="url(#pa144e9d79c)" d="M 300.455238 284.258625 
L 302.143948 284.258625 
L 302.143948 57.582885 
L 300.455238 57.582885 
z
" style="fill:#ffbb78;"/>
   </g>
   <g id="patch_117">
    <path clip-path="url(#pa144e9d79c)" d="M 302.566125 284.258625 
L 304.254836 284.258625 
L 304.254836 56.804854 
L 302.566125 56.804854 
z
" style="fill:#ffbb78;"/>
   </g>
   <g id="patch_118">
    <path clip-path="url(#pa144e9d79c)" d="M 304.677013 284.258625 
L 306.365723 284.258625 
L 306.365723 55.192208 
L 304.677013 55.192208 
z
" style="fill:#ffbb78;"/>
   </g>
   <g id="patch_119">
    <path clip-path="url(#pa144e9d79c)" d="M 306.787901 284.258625 
L 308.476611 284.258625 
L 308.476611 54.569784 
L 306.787901 54.569784 
z
" style="fill:#ffbb78;"/>
   </g>
   <g id="patch_120">
    <path clip-path="url(#pa144e9d79c)" d="M 308.898789 284.258625 
L 310.587499 284.258625 
L 310.587499 53.890775 
L 308.898789 53.890775 
z
" style="fill:#ffbb78;"/>
   </g>
   <g id="patch_121">
    <path clip-path="url(#pa144e9d79c)" d="M 311.009677 284.258625 
L 312.698387 284.258625 
L 312.698387 53.607855 
L 311.009677 53.607855 
z
" style="fill:#ffbb78;"/>
   </g>
   <g id="patch_122">
    <path clip-path="url(#pa144e9d79c)" d="M 313.120564 284.258625 
L 314.809275 284.258625 
L 314.809275 52.759094 
L 313.120564 52.759094 
z
" style="fill:#ffbb78;"/>
   </g>
   <g id="patch_123">
    <path clip-path="url(#pa144e9d79c)" d="M 315.231452 284.258625 
L 316.920162 284.258625 
L 316.920162 52.476174 
L 315.231452 52.476174 
z
" style="fill:#ffbb78;"/>
   </g>
   <g id="patch_124">
    <path clip-path="url(#pa144e9d79c)" d="M 317.34234 284.258625 
L 319.03105 284.258625 
L 319.03105 51.924479 
L 317.34234 51.924479 
z
" style="fill:#ffbb78;"/>
   </g>
   <g id="patch_125">
    <path clip-path="url(#pa144e9d79c)" d="M 319.453228 284.258625 
L 321.141938 284.258625 
L 321.141938 50.665484 
L 319.453228 50.665484 
z
" style="fill:#ffbb78;"/>
   </g>
   <g id="patch_126">
    <path clip-path="url(#pa144e9d79c)" d="M 321.564116 284.258625 
L 323.252826 284.258625 
L 323.252826 50.340125 
L 321.564116 50.340125 
z
" style="fill:#ffbb78;"/>
   </g>
   <g id="patch_127">
    <path clip-path="url(#pa144e9d79c)" d="M 323.675003 284.258625 
L 325.363714 284.258625 
L 325.363714 50.142081 
L 323.675003 50.142081 
z
" style="fill:#ffbb78;"/>
   </g>
   <g id="patch_128">
    <path clip-path="url(#pa144e9d79c)" d="M 325.785891 284.258625 
L 327.474601 284.258625 
L 327.474601 49.703555 
L 325.785891 49.703555 
z
" style="fill:#ffbb78;"/>
   </g>
   <g id="patch_129">
    <path clip-path="url(#pa144e9d79c)" d="M 327.896779 284.258625 
L 329.585489 284.258625 
L 329.585489 49.109422 
L 327.896779 49.109422 
z
" style="fill:#ffbb78;"/>
   </g>
   <g id="patch_130">
    <path clip-path="url(#pa144e9d79c)" d="M 330.007667 284.258625 
L 331.696377 284.258625 
L 331.696377 48.713334 
L 330.007667 48.713334 
z
" style="fill:#ffbb78;"/>
   </g>
   <g id="patch_131">
    <path clip-path="url(#pa144e9d79c)" d="M 332.118555 284.258625 
L 333.807265 284.258625 
L 333.807265 48.260661 
L 332.118555 48.260661 
z
" style="fill:#ffbb78;"/>
   </g>
   <g id="patch_132">
    <path clip-path="url(#pa144e9d79c)" d="M 334.229442 284.258625 
L 335.918153 284.258625 
L 335.918153 47.751405 
L 334.229442 47.751405 
z
" style="fill:#ffbb78;"/>
   </g>
   <g id="patch_133">
    <path clip-path="url(#pa144e9d79c)" d="M 336.34033 284.258625 
L 338.029041 284.258625 
L 338.029041 46.548993 
L 336.34033 46.548993 
z
" style="fill:#ffbb78;"/>
   </g>
   <g id="patch_134">
    <path clip-path="url(#pa144e9d79c)" d="M 338.451218 284.258625 
L 340.139928 284.258625 
L 340.139928 45.884131 
L 338.451218 45.884131 
z
" style="fill:#ffbb78;"/>
   </g>
   <g id="patch_135">
    <path clip-path="url(#pa144e9d79c)" d="M 340.562106 284.258625 
L 342.250816 284.258625 
L 342.250816 45.417312 
L 340.562106 45.417312 
z
" style="fill:#ffbb78;"/>
   </g>
   <g id="patch_136">
    <path clip-path="url(#pa144e9d79c)" d="M 342.672994 284.258625 
L 344.361704 284.258625 
L 344.361704 44.766596 
L 342.672994 44.766596 
z
" style="fill:#ffbb78;"/>
   </g>
   <g id="patch_137">
    <path clip-path="url(#pa144e9d79c)" d="M 344.783882 284.258625 
L 346.472592 284.258625 
L 346.472592 43.974419 
L 344.783882 43.974419 
z
" style="fill:#ffbb78;"/>
   </g>
   <g id="patch_138">
    <path clip-path="url(#pa144e9d79c)" d="M 346.894769 284.258625 
L 348.58348 284.258625 
L 348.58348 43.521746 
L 346.894769 43.521746 
z
" style="fill:#ffbb78;"/>
   </g>
   <g id="patch_139">
    <path clip-path="url(#pa144e9d79c)" d="M 349.005657 284.258625 
L 350.694367 284.258625 
L 350.694367 42.87103 
L 349.005657 42.87103 
z
" style="fill:#ffbb78;"/>
   </g>
   <g id="patch_140">
    <path clip-path="url(#pa144e9d79c)" d="M 351.116545 284.258625 
L 352.805255 284.258625 
L 352.805255 42.319335 
L 351.116545 42.319335 
z
" style="fill:#ffbb78;"/>
   </g>
   <g id="patch_141">
    <path clip-path="url(#pa144e9d79c)" d="M 353.227433 284.258625 
L 354.916143 284.258625 
L 354.916143 41.781786 
L 353.227433 41.781786 
z
" style="fill:#ffbb78;"/>
   </g>
   <g id="patch_142">
    <path clip-path="url(#pa144e9d79c)" d="M 355.338321 284.258625 
L 357.027031 284.258625 
L 357.027031 41.314968 
L 355.338321 41.314968 
z
" style="fill:#ffbb78;"/>
   </g>
   <g id="patch_143">
    <path clip-path="url(#pa144e9d79c)" d="M 357.449208 284.258625 
L 359.137919 284.258625 
L 359.137919 40.805711 
L 357.449208 40.805711 
z
" style="fill:#ffbb78;"/>
   </g>
   <g id="patch_144">
    <path clip-path="url(#pa144e9d79c)" d="M 359.560096 284.258625 
L 361.248806 284.258625 
L 361.248806 40.225725 
L 359.560096 40.225725 
z
" style="fill:#ffbb78;"/>
   </g>
   <g id="patch_145">
    <path clip-path="url(#pa144e9d79c)" d="M 361.670984 284.258625 
L 363.359694 284.258625 
L 363.359694 39.645738 
L 361.670984 39.645738 
z
" style="fill:#ffbb78;"/>
   </g>
   <g id="patch_146">
    <path clip-path="url(#pa144e9d79c)" d="M 363.781872 284.258625 
L 365.470582 284.258625 
L 365.470582 39.079898 
L 363.781872 39.079898 
z
" style="fill:#ffbb78;"/>
   </g>
   <g id="patch_147">
    <path clip-path="url(#pa144e9d79c)" d="M 365.89276 284.258625 
L 367.58147 284.258625 
L 367.58147 38.372597 
L 365.89276 38.372597 
z
" style="fill:#ffbb78;"/>
   </g>
   <g id="patch_148">
    <path clip-path="url(#pa144e9d79c)" d="M 368.003647 284.258625 
L 369.692358 284.258625 
L 369.692358 37.707734 
L 368.003647 37.707734 
z
" style="fill:#ffbb78;"/>
   </g>
   <g id="patch_149">
    <path clip-path="url(#pa144e9d79c)" d="M 370.114535 284.258625 
L 371.803246 284.258625 
L 371.803246 36.675075 
L 370.114535 36.675075 
z
" style="fill:#ffbb78;"/>
   </g>
   <g id="patch_150">
    <path clip-path="url(#pa144e9d79c)" d="M 372.225423 284.258625 
L 373.914133 284.258625 
L 373.914133 35.472664 
L 372.225423 35.472664 
z
" style="fill:#ffbb78;"/>
   </g>
   <g id="patch_151">
    <path clip-path="url(#pa144e9d79c)" d="M 374.336311 284.258625 
L 376.025021 284.258625 
L 376.025021 34.892677 
L 374.336311 34.892677 
z
" style="fill:#ffbb78;"/>
   </g>
   <g id="patch_152">
    <path clip-path="url(#pa144e9d79c)" d="M 376.447199 284.258625 
L 378.135909 284.258625 
L 378.135909 34.326837 
L 376.447199 34.326837 
z
" style="fill:#ffbb78;"/>
   </g>
   <g id="patch_153">
    <path clip-path="url(#pa144e9d79c)" d="M 378.558087 284.258625 
L 380.246797 284.258625 
L 380.246797 33.308324 
L 378.558087 33.308324 
z
" style="fill:#ffbb78;"/>
   </g>
   <g id="patch_154">
    <path clip-path="url(#pa144e9d79c)" d="M 380.668974 284.258625 
L 382.357685 284.258625 
L 382.357685 32.473709 
L 380.668974 32.473709 
z
" style="fill:#ffbb78;"/>
   </g>
   <g id="patch_155">
    <path clip-path="url(#pa144e9d79c)" d="M 382.779862 284.258625 
L 384.468572 284.258625 
L 384.468572 31.554218 
L 382.779862 31.554218 
z
" style="fill:#ffbb78;"/>
   </g>
   <g id="patch_156">
    <path clip-path="url(#pa144e9d79c)" d="M 384.89075 284.258625 
L 386.57946 284.258625 
L 386.57946 30.818625 
L 384.89075 30.818625 
z
" style="fill:#ffbb78;"/>
   </g>
   <g id="patch_157">
    <path clip-path="url(#pa144e9d79c)" d="M 61.924915 284.258625 
L 63.613625 284.258625 
L 63.613625 284.258625 
L 61.924915 284.258625 
z
" style="fill:#d62728;"/>
   </g>
   <g id="patch_158">
    <path clip-path="url(#pa144e9d79c)" d="M 64.035803 284.258625 
L 65.724513 284.258625 
L 65.724513 284.258625 
L 64.035803 284.258625 
z
" style="fill:#d62728;"/>
   </g>
   <g id="patch_159">
    <path clip-path="url(#pa144e9d79c)" d="M 66.14669 284.258625 
L 67.835401 284.258625 
L 67.835401 284.258625 
L 66.14669 284.258625 
z
" style="fill:#d62728;"/>
   </g>
   <g id="patch_160">
    <path clip-path="url(#pa144e9d79c)" d="M 68.257578 284.258625 
L 69.946288 284.258625 
L 69.946288 284.258625 
L 68.257578 284.258625 
z
" style="fill:#d62728;"/>
   </g>
   <g id="patch_161">
    <path clip-path="url(#pa144e9d79c)" d="M 70.368466 284.258625 
L 72.057176 284.258625 
L 72.057176 284.258625 
L 70.368466 284.258625 
z
" style="fill:#d62728;"/>
   </g>
   <g id="patch_162">
    <path clip-path="url(#pa144e9d79c)" d="M 72.479354 284.258625 
L 74.168064 284.258625 
L 74.168064 284.258625 
L 72.479354 284.258625 
z
" style="fill:#d62728;"/>
   </g>
   <g id="patch_163">
    <path clip-path="url(#pa144e9d79c)" d="M 74.590242 284.258625 
L 76.278952 284.258625 
L 76.278952 284.258625 
L 74.590242 284.258625 
z
" style="fill:#d62728;"/>
   </g>
   <g id="patch_164">
    <path clip-path="url(#pa144e9d79c)" d="M 76.701129 284.258625 
L 78.38984 284.258625 
L 78.38984 284.258625 
L 76.701129 284.258625 
z
" style="fill:#d62728;"/>
   </g>
   <g id="patch_165">
    <path clip-path="url(#pa144e9d79c)" d="M 78.812017 284.258625 
L 80.500728 284.258625 
L 80.500728 284.258625 
L 78.812017 284.258625 
z
" style="fill:#d62728;"/>
   </g>
   <g id="patch_166">
    <path clip-path="url(#pa144e9d79c)" d="M 80.922905 284.258625 
L 82.611615 284.258625 
L 82.611615 284.258625 
L 80.922905 284.258625 
z
" style="fill:#d62728;"/>
   </g>
   <g id="patch_167">
    <path clip-path="url(#pa144e9d79c)" d="M 83.033793 284.258625 
L 84.722503 284.258625 
L 84.722503 284.258625 
L 83.033793 284.258625 
z
" style="fill:#d62728;"/>
   </g>
   <g id="patch_168">
    <path clip-path="url(#pa144e9d79c)" d="M 85.144681 284.258625 
L 86.833391 284.258625 
L 86.833391 284.258625 
L 85.144681 284.258625 
z
" style="fill:#d62728;"/>
   </g>
   <g id="patch_169">
    <path clip-path="url(#pa144e9d79c)" d="M 87.255569 284.258625 
L 88.944279 284.258625 
L 88.944279 284.258625 
L 87.255569 284.258625 
z
" style="fill:#d62728;"/>
   </g>
   <g id="patch_170">
    <path clip-path="url(#pa144e9d79c)" d="M 89.366456 284.258625 
L 91.055167 284.258625 
L 91.055167 284.258625 
L 89.366456 284.258625 
z
" style="fill:#d62728;"/>
   </g>
   <g id="patch_171">
    <path clip-path="url(#pa144e9d79c)" d="M 91.477344 284.258625 
L 93.166054 284.258625 
L 93.166054 284.258625 
L 91.477344 284.258625 
z
" style="fill:#d62728;"/>
   </g>
   <g id="patch_172">
    <path clip-path="url(#pa144e9d79c)" d="M 93.588232 284.258625 
L 95.276942 284.258625 
L 95.276942 284.258625 
L 93.588232 284.258625 
z
" style="fill:#d62728;"/>
   </g>
   <g id="patch_173">
    <path clip-path="url(#pa144e9d79c)" d="M 95.69912 284.258625 
L 97.38783 284.258625 
L 97.38783 284.258625 
L 95.69912 284.258625 
z
" style="fill:#d62728;"/>
   </g>
   <g id="patch_174">
    <path clip-path="url(#pa144e9d79c)" d="M 97.810008 284.258625 
L 99.498718 284.258625 
L 99.498718 284.258625 
L 97.810008 284.258625 
z
" style="fill:#d62728;"/>
   </g>
   <g id="patch_175">
    <path clip-path="url(#pa144e9d79c)" d="M 99.920895 284.258625 
L 101.609606 284.258625 
L 101.609606 284.258625 
L 99.920895 284.258625 
z
" style="fill:#d62728;"/>
   </g>
   <g id="patch_176">
    <path clip-path="url(#pa144e9d79c)" d="M 102.031783 284.258625 
L 103.720493 284.258625 
L 103.720493 284.258625 
L 102.031783 284.258625 
z
" style="fill:#d62728;"/>
   </g>
   <g id="patch_177">
    <path clip-path="url(#pa144e9d79c)" d="M 104.142671 284.258625 
L 105.831381 284.258625 
L 105.831381 284.258625 
L 104.142671 284.258625 
z
" style="fill:#d62728;"/>
   </g>
   <g id="patch_178">
    <path clip-path="url(#pa144e9d79c)" d="M 106.253559 284.258625 
L 107.942269 284.258625 
L 107.942269 284.258625 
L 106.253559 284.258625 
z
" style="fill:#d62728;"/>
   </g>
   <g id="patch_179">
    <path clip-path="url(#pa144e9d79c)" d="M 108.364447 284.258625 
L 110.053157 284.258625 
L 110.053157 284.258625 
L 108.364447 284.258625 
z
" style="fill:#d62728;"/>
   </g>
   <g id="patch_180">
    <path clip-path="url(#pa144e9d79c)" d="M 110.475334 284.258625 
L 112.164045 284.258625 
L 112.164045 284.258625 
L 110.475334 284.258625 
z
" style="fill:#d62728;"/>
   </g>
   <g id="patch_181">
    <path clip-path="url(#pa144e9d79c)" d="M 112.586222 284.258625 
L 114.274933 284.258625 
L 114.274933 284.244479 
L 112.586222 284.244479 
z
" style="fill:#d62728;"/>
   </g>
   <g id="patch_182">
    <path clip-path="url(#pa144e9d79c)" d="M 114.69711 284.258625 
L 116.38582 284.258625 
L 116.38582 284.244479 
L 114.69711 284.244479 
z
" style="fill:#d62728;"/>
   </g>
   <g id="patch_183">
    <path clip-path="url(#pa144e9d79c)" d="M 116.807998 284.258625 
L 118.496708 284.258625 
L 118.496708 284.244479 
L 116.807998 284.244479 
z
" style="fill:#d62728;"/>
   </g>
   <g id="patch_184">
    <path clip-path="url(#pa144e9d79c)" d="M 118.918886 284.258625 
L 120.607596 284.258625 
L 120.607596 284.244479 
L 118.918886 284.244479 
z
" style="fill:#d62728;"/>
   </g>
   <g id="patch_185">
    <path clip-path="url(#pa144e9d79c)" d="M 121.029774 284.258625 
L 122.718484 284.258625 
L 122.718484 284.244479 
L 121.029774 284.244479 
z
" style="fill:#d62728;"/>
   </g>
   <g id="patch_186">
    <path clip-path="url(#pa144e9d79c)" d="M 123.140661 284.258625 
L 124.829372 284.258625 
L 124.829372 284.244479 
L 123.140661 284.244479 
z
" style="fill:#d62728;"/>
   </g>
   <g id="patch_187">
    <path clip-path="url(#pa144e9d79c)" d="M 125.251549 284.258625 
L 126.940259 284.258625 
L 126.940259 284.244479 
L 125.251549 284.244479 
z
" style="fill:#d62728;"/>
   </g>
   <g id="patch_188">
    <path clip-path="url(#pa144e9d79c)" d="M 127.362437 284.258625 
L 129.051147 284.258625 
L 129.051147 284.244479 
L 127.362437 284.244479 
z
" style="fill:#d62728;"/>
   </g>
   <g id="patch_189">
    <path clip-path="url(#pa144e9d79c)" d="M 129.473325 284.258625 
L 131.162035 284.258625 
L 131.162035 284.244479 
L 129.473325 284.244479 
z
" style="fill:#d62728;"/>
   </g>
   <g id="patch_190">
    <path clip-path="url(#pa144e9d79c)" d="M 131.584213 284.258625 
L 133.272923 284.258625 
L 133.272923 284.244479 
L 131.584213 284.244479 
z
" style="fill:#d62728;"/>
   </g>
   <g id="patch_191">
    <path clip-path="url(#pa144e9d79c)" d="M 133.6951 284.258625 
L 135.383811 284.258625 
L 135.383811 284.244479 
L 133.6951 284.244479 
z
" style="fill:#d62728;"/>
   </g>
   <g id="patch_192">
    <path clip-path="url(#pa144e9d79c)" d="M 135.805988 284.258625 
L 137.494698 284.258625 
L 137.494698 284.244479 
L 135.805988 284.244479 
z
" style="fill:#d62728;"/>
   </g>
   <g id="patch_193">
    <path clip-path="url(#pa144e9d79c)" d="M 137.916876 284.258625 
L 139.605586 284.258625 
L 139.605586 284.244479 
L 137.916876 284.244479 
z
" style="fill:#d62728;"/>
   </g>
   <g id="patch_194">
    <path clip-path="url(#pa144e9d79c)" d="M 140.027764 284.258625 
L 141.716474 284.258625 
L 141.716474 284.216187 
L 140.027764 284.216187 
z
" style="fill:#d62728;"/>
   </g>
   <g id="patch_195">
    <path clip-path="url(#pa144e9d79c)" d="M 142.138652 284.258625 
L 143.827362 284.258625 
L 143.827362 284.202041 
L 142.138652 284.202041 
z
" style="fill:#d62728;"/>
   </g>
   <g id="patch_196">
    <path clip-path="url(#pa144e9d79c)" d="M 144.249539 284.258625 
L 145.93825 284.258625 
L 145.93825 284.187895 
L 144.249539 284.187895 
z
" style="fill:#d62728;"/>
   </g>
   <g id="patch_197">
    <path clip-path="url(#pa144e9d79c)" d="M 146.360427 284.258625 
L 148.049137 284.258625 
L 148.049137 284.187895 
L 146.360427 284.187895 
z
" style="fill:#d62728;"/>
   </g>
   <g id="patch_198">
    <path clip-path="url(#pa144e9d79c)" d="M 148.471315 284.258625 
L 150.160025 284.258625 
L 150.160025 284.173749 
L 148.471315 284.173749 
z
" style="fill:#d62728;"/>
   </g>
   <g id="patch_199">
    <path clip-path="url(#pa144e9d79c)" d="M 150.582203 284.258625 
L 152.270913 284.258625 
L 152.270913 284.173749 
L 150.582203 284.173749 
z
" style="fill:#d62728;"/>
   </g>
   <g id="patch_200">
    <path clip-path="url(#pa144e9d79c)" d="M 152.693091 284.258625 
L 154.381801 284.258625 
L 154.381801 284.173749 
L 152.693091 284.173749 
z
" style="fill:#d62728;"/>
   </g>
   <g id="patch_201">
    <path clip-path="url(#pa144e9d79c)" d="M 154.803978 284.258625 
L 156.492689 284.258625 
L 156.492689 284.173749 
L 154.803978 284.173749 
z
" style="fill:#d62728;"/>
   </g>
   <g id="patch_202">
    <path clip-path="url(#pa144e9d79c)" d="M 156.914866 284.258625 
L 158.603577 284.258625 
L 158.603577 284.173749 
L 156.914866 284.173749 
z
" style="fill:#d62728;"/>
   </g>
   <g id="patch_203">
    <path clip-path="url(#pa144e9d79c)" d="M 159.025754 284.258625 
L 160.714464 284.258625 
L 160.714464 284.173749 
L 159.025754 284.173749 
z
" style="fill:#d62728;"/>
   </g>
   <g id="patch_204">
    <path clip-path="url(#pa144e9d79c)" d="M 161.136642 284.258625 
L 162.825352 284.258625 
L 162.825352 284.173749 
L 161.136642 284.173749 
z
" style="fill:#d62728;"/>
   </g>
   <g id="patch_205">
    <path clip-path="url(#pa144e9d79c)" d="M 163.24753 284.258625 
L 164.93624 284.258625 
L 164.93624 284.159603 
L 163.24753 284.159603 
z
" style="fill:#d62728;"/>
   </g>
   <g id="patch_206">
    <path clip-path="url(#pa144e9d79c)" d="M 165.358418 284.258625 
L 167.047128 284.258625 
L 167.047128 284.131311 
L 165.358418 284.131311 
z
" style="fill:#d62728;"/>
   </g>
   <g id="patch_207">
    <path clip-path="url(#pa144e9d79c)" d="M 167.469305 284.258625 
L 169.158016 284.258625 
L 169.158016 284.088873 
L 167.469305 284.088873 
z
" style="fill:#d62728;"/>
   </g>
   <g id="patch_208">
    <path clip-path="url(#pa144e9d79c)" d="M 169.580193 284.258625 
L 171.268903 284.258625 
L 171.268903 284.046435 
L 169.580193 284.046435 
z
" style="fill:#d62728;"/>
   </g>
   <g id="patch_209">
    <path clip-path="url(#pa144e9d79c)" d="M 171.691081 284.258625 
L 173.379791 284.258625 
L 173.379791 283.989851 
L 171.691081 283.989851 
z
" style="fill:#d62728;"/>
   </g>
   <g id="patch_210">
    <path clip-path="url(#pa144e9d79c)" d="M 173.801969 284.258625 
L 175.490679 284.258625 
L 175.490679 283.961559 
L 173.801969 283.961559 
z
" style="fill:#d62728;"/>
   </g>
   <g id="patch_211">
    <path clip-path="url(#pa144e9d79c)" d="M 175.912857 284.258625 
L 177.601567 284.258625 
L 177.601567 283.947413 
L 175.912857 283.947413 
z
" style="fill:#d62728;"/>
   </g>
   <g id="patch_212">
    <path clip-path="url(#pa144e9d79c)" d="M 178.023744 284.258625 
L 179.712455 284.258625 
L 179.712455 283.919121 
L 178.023744 283.919121 
z
" style="fill:#d62728;"/>
   </g>
   <g id="patch_213">
    <path clip-path="url(#pa144e9d79c)" d="M 180.134632 284.258625 
L 181.823342 284.258625 
L 181.823342 283.862537 
L 180.134632 283.862537 
z
" style="fill:#d62728;"/>
   </g>
   <g id="patch_214">
    <path clip-path="url(#pa144e9d79c)" d="M 182.24552 284.258625 
L 183.93423 284.258625 
L 183.93423 283.862537 
L 182.24552 283.862537 
z
" style="fill:#d62728;"/>
   </g>
   <g id="patch_215">
    <path clip-path="url(#pa144e9d79c)" d="M 184.356408 284.258625 
L 186.045118 284.258625 
L 186.045118 283.848391 
L 184.356408 283.848391 
z
" style="fill:#d62728;"/>
   </g>
   <g id="patch_216">
    <path clip-path="url(#pa144e9d79c)" d="M 186.467296 284.258625 
L 188.156006 284.258625 
L 188.156006 283.791807 
L 186.467296 283.791807 
z
" style="fill:#d62728;"/>
   </g>
   <g id="patch_217">
    <path clip-path="url(#pa144e9d79c)" d="M 188.578183 284.258625 
L 190.266894 284.258625 
L 190.266894 283.763514 
L 188.578183 283.763514 
z
" style="fill:#d62728;"/>
   </g>
   <g id="patch_218">
    <path clip-path="url(#pa144e9d79c)" d="M 190.689071 284.258625 
L 192.377782 284.258625 
L 192.377782 283.749368 
L 190.689071 283.749368 
z
" style="fill:#d62728;"/>
   </g>
   <g id="patch_219">
    <path clip-path="url(#pa144e9d79c)" d="M 192.799959 284.258625 
L 194.488669 284.258625 
L 194.488669 283.678638 
L 192.799959 283.678638 
z
" style="fill:#d62728;"/>
   </g>
   <g id="patch_220">
    <path clip-path="url(#pa144e9d79c)" d="M 194.910847 284.258625 
L 196.599557 284.258625 
L 196.599557 283.664492 
L 194.910847 283.664492 
z
" style="fill:#d62728;"/>
   </g>
   <g id="patch_221">
    <path clip-path="url(#pa144e9d79c)" d="M 197.021735 284.258625 
L 198.710445 284.258625 
L 198.710445 283.650346 
L 197.021735 283.650346 
z
" style="fill:#d62728;"/>
   </g>
   <g id="patch_222">
    <path clip-path="url(#pa144e9d79c)" d="M 199.132623 284.258625 
L 200.821333 284.258625 
L 200.821333 283.622054 
L 199.132623 283.622054 
z
" style="fill:#d62728;"/>
   </g>
   <g id="patch_223">
    <path clip-path="url(#pa144e9d79c)" d="M 201.24351 284.258625 
L 202.932221 284.258625 
L 202.932221 283.607908 
L 201.24351 283.607908 
z
" style="fill:#d62728;"/>
   </g>
   <g id="patch_224">
    <path clip-path="url(#pa144e9d79c)" d="M 203.354398 284.258625 
L 205.043108 284.258625 
L 205.043108 283.56547 
L 203.354398 283.56547 
z
" style="fill:#d62728;"/>
   </g>
   <g id="patch_225">
    <path clip-path="url(#pa144e9d79c)" d="M 205.465286 284.258625 
L 207.153996 284.258625 
L 207.153996 283.523032 
L 205.465286 283.523032 
z
" style="fill:#d62728;"/>
   </g>
   <g id="patch_226">
    <path clip-path="url(#pa144e9d79c)" d="M 207.576174 284.258625 
L 209.264884 284.258625 
L 209.264884 283.49474 
L 207.576174 283.49474 
z
" style="fill:#d62728;"/>
   </g>
   <g id="patch_227">
    <path clip-path="url(#pa144e9d79c)" d="M 209.687062 284.258625 
L 211.375772 284.258625 
L 211.375772 283.466448 
L 209.687062 283.466448 
z
" style="fill:#d62728;"/>
   </g>
   <g id="patch_228">
    <path clip-path="url(#pa144e9d79c)" d="M 211.797949 284.258625 
L 213.48666 284.258625 
L 213.48666 283.452302 
L 211.797949 283.452302 
z
" style="fill:#d62728;"/>
   </g>
   <g id="patch_229">
    <path clip-path="url(#pa144e9d79c)" d="M 213.908837 284.258625 
L 215.597547 284.258625 
L 215.597547 283.452302 
L 213.908837 283.452302 
z
" style="fill:#d62728;"/>
   </g>
   <g id="patch_230">
    <path clip-path="url(#pa144e9d79c)" d="M 216.019725 284.258625 
L 217.708435 284.258625 
L 217.708435 283.339134 
L 216.019725 283.339134 
z
" style="fill:#d62728;"/>
   </g>
   <g id="patch_231">
    <path clip-path="url(#pa144e9d79c)" d="M 218.130613 284.258625 
L 219.819323 284.258625 
L 219.819323 283.28255 
L 218.130613 283.28255 
z
" style="fill:#d62728;"/>
   </g>
   <g id="patch_232">
    <path clip-path="url(#pa144e9d79c)" d="M 220.241501 284.258625 
L 221.930211 284.258625 
L 221.930211 283.268404 
L 220.241501 283.268404 
z
" style="fill:#d62728;"/>
   </g>
   <g id="patch_233">
    <path clip-path="url(#pa144e9d79c)" d="M 222.352388 284.258625 
L 224.041099 284.258625 
L 224.041099 283.225966 
L 222.352388 283.225966 
z
" style="fill:#d62728;"/>
   </g>
   <g id="patch_234">
    <path clip-path="url(#pa144e9d79c)" d="M 224.463276 284.258625 
L 226.151987 284.258625 
L 226.151987 283.126944 
L 224.463276 283.126944 
z
" style="fill:#d62728;"/>
   </g>
   <g id="patch_235">
    <path clip-path="url(#pa144e9d79c)" d="M 226.574164 284.258625 
L 228.262874 284.258625 
L 228.262874 283.112798 
L 226.574164 283.112798 
z
" style="fill:#d62728;"/>
   </g>
   <g id="patch_236">
    <path clip-path="url(#pa144e9d79c)" d="M 228.685052 284.258625 
L 230.373762 284.258625 
L 230.373762 283.056214 
L 228.685052 283.056214 
z
" style="fill:#d62728;"/>
   </g>
   <g id="patch_237">
    <path clip-path="url(#pa144e9d79c)" d="M 230.79594 284.258625 
L 232.48465 284.258625 
L 232.48465 283.013776 
L 230.79594 283.013776 
z
" style="fill:#d62728;"/>
   </g>
   <g id="patch_238">
    <path clip-path="url(#pa144e9d79c)" d="M 232.906828 284.258625 
L 234.595538 284.258625 
L 234.595538 282.9289 
L 232.906828 282.9289 
z
" style="fill:#d62728;"/>
   </g>
   <g id="patch_239">
    <path clip-path="url(#pa144e9d79c)" d="M 235.017715 284.258625 
L 236.706426 284.258625 
L 236.706426 282.872316 
L 235.017715 282.872316 
z
" style="fill:#d62728;"/>
   </g>
   <g id="patch_240">
    <path clip-path="url(#pa144e9d79c)" d="M 237.128603 284.258625 
L 238.817313 284.258625 
L 238.817313 282.815731 
L 237.128603 282.815731 
z
" style="fill:#d62728;"/>
   </g>
   <g id="patch_241">
    <path clip-path="url(#pa144e9d79c)" d="M 239.239491 284.258625 
L 240.928201 284.258625 
L 240.928201 282.716709 
L 239.239491 282.716709 
z
" style="fill:#d62728;"/>
   </g>
   <g id="patch_242">
    <path clip-path="url(#pa144e9d79c)" d="M 241.350379 284.258625 
L 243.039089 284.258625 
L 243.039089 282.575249 
L 241.350379 282.575249 
z
" style="fill:#d62728;"/>
   </g>
   <g id="patch_243">
    <path clip-path="url(#pa144e9d79c)" d="M 243.461267 284.258625 
L 245.149977 284.258625 
L 245.149977 282.334767 
L 243.461267 282.334767 
z
" style="fill:#d62728;"/>
   </g>
   <g id="patch_244">
    <path clip-path="url(#pa144e9d79c)" d="M 245.572154 284.258625 
L 247.260865 284.258625 
L 247.260865 282.165015 
L 245.572154 282.165015 
z
" style="fill:#d62728;"/>
   </g>
   <g id="patch_245">
    <path clip-path="url(#pa144e9d79c)" d="M 247.683042 284.258625 
L 249.371752 284.258625 
L 249.371752 282.080139 
L 247.683042 282.080139 
z
" style="fill:#d62728;"/>
   </g>
   <g id="patch_246">
    <path clip-path="url(#pa144e9d79c)" d="M 249.79393 284.258625 
L 251.48264 284.258625 
L 251.48264 281.981117 
L 249.79393 281.981117 
z
" style="fill:#d62728;"/>
   </g>
   <g id="patch_247">
    <path clip-path="url(#pa144e9d79c)" d="M 251.904818 284.258625 
L 253.593528 284.258625 
L 253.593528 281.839656 
L 251.904818 281.839656 
z
" style="fill:#d62728;"/>
   </g>
   <g id="patch_248">
    <path clip-path="url(#pa144e9d79c)" d="M 254.015706 284.258625 
L 255.704416 284.258625 
L 255.704416 281.627466 
L 254.015706 281.627466 
z
" style="fill:#d62728;"/>
   </g>
   <g id="patch_249">
    <path clip-path="url(#pa144e9d79c)" d="M 256.126593 284.258625 
L 257.815304 284.258625 
L 257.815304 280.340179 
L 256.126593 280.340179 
z
" style="fill:#d62728;"/>
   </g>
   <g id="patch_250">
    <path clip-path="url(#pa144e9d79c)" d="M 258.237481 284.258625 
L 259.926192 284.258625 
L 259.926192 280.198719 
L 258.237481 280.198719 
z
" style="fill:#d62728;"/>
   </g>
   <g id="patch_251">
    <path clip-path="url(#pa144e9d79c)" d="M 260.348369 284.258625 
L 262.037079 284.258625 
L 262.037079 279.774338 
L 260.348369 279.774338 
z
" style="fill:#d62728;"/>
   </g>
   <g id="patch_252">
    <path clip-path="url(#pa144e9d79c)" d="M 262.459257 284.258625 
L 264.147967 284.258625 
L 264.147967 279.533856 
L 262.459257 279.533856 
z
" style="fill:#d62728;"/>
   </g>
   <g id="patch_253">
    <path clip-path="url(#pa144e9d79c)" d="M 264.570145 284.258625 
L 266.258855 284.258625 
L 266.258855 279.335812 
L 264.570145 279.335812 
z
" style="fill:#d62728;"/>
   </g>
   <g id="patch_254">
    <path clip-path="url(#pa144e9d79c)" d="M 266.681033 284.258625 
L 268.369743 284.258625 
L 268.369743 279.293374 
L 266.681033 279.293374 
z
" style="fill:#d62728;"/>
   </g>
   <g id="patch_255">
    <path clip-path="url(#pa144e9d79c)" d="M 268.79192 284.258625 
L 270.480631 284.258625 
L 270.480631 278.939723 
L 268.79192 278.939723 
z
" style="fill:#d62728;"/>
   </g>
   <g id="patch_256">
    <path clip-path="url(#pa144e9d79c)" d="M 270.902808 284.258625 
L 272.591518 284.258625 
L 272.591518 278.755825 
L 270.902808 278.755825 
z
" style="fill:#d62728;"/>
   </g>
   <g id="patch_257">
    <path clip-path="url(#pa144e9d79c)" d="M 273.013696 284.258625 
L 274.702406 284.258625 
L 274.702406 278.388029 
L 273.013696 278.388029 
z
" style="fill:#d62728;"/>
   </g>
   <g id="patch_258">
    <path clip-path="url(#pa144e9d79c)" d="M 275.124584 284.258625 
L 276.813294 284.258625 
L 276.813294 278.147547 
L 275.124584 278.147547 
z
" style="fill:#d62728;"/>
   </g>
   <g id="patch_259">
    <path clip-path="url(#pa144e9d79c)" d="M 277.235472 284.258625 
L 278.924182 284.258625 
L 278.924182 277.836334 
L 277.235472 277.836334 
z
" style="fill:#d62728;"/>
   </g>
   <g id="patch_260">
    <path clip-path="url(#pa144e9d79c)" d="M 279.346359 284.258625 
L 281.03507 284.258625 
L 281.03507 277.298786 
L 279.346359 277.298786 
z
" style="fill:#d62728;"/>
   </g>
   <g id="patch_261">
    <path clip-path="url(#pa144e9d79c)" d="M 281.457247 284.258625 
L 283.145957 284.258625 
L 283.145957 277.044157 
L 281.457247 277.044157 
z
" style="fill:#d62728;"/>
   </g>
   <g id="patch_262">
    <path clip-path="url(#pa144e9d79c)" d="M 283.568135 284.258625 
L 285.256845 284.258625 
L 285.256845 276.888551 
L 283.568135 276.888551 
z
" style="fill:#d62728;"/>
   </g>
   <g id="patch_263">
    <path clip-path="url(#pa144e9d79c)" d="M 285.679023 284.258625 
L 287.367733 284.258625 
L 287.367733 276.577339 
L 285.679023 276.577339 
z
" style="fill:#d62728;"/>
   </g>
   <g id="patch_264">
    <path clip-path="url(#pa144e9d79c)" d="M 287.789911 284.258625 
L 289.478621 284.258625 
L 289.478621 276.464171 
L 287.789911 276.464171 
z
" style="fill:#d62728;"/>
   </g>
   <g id="patch_265">
    <path clip-path="url(#pa144e9d79c)" d="M 289.900798 284.258625 
L 291.589509 284.258625 
L 291.589509 276.379295 
L 289.900798 276.379295 
z
" style="fill:#d62728;"/>
   </g>
   <g id="patch_266">
    <path clip-path="url(#pa144e9d79c)" d="M 292.011686 284.258625 
L 293.700397 284.258625 
L 293.700397 275.75687 
L 292.011686 275.75687 
z
" style="fill:#d62728;"/>
   </g>
   <g id="patch_267">
    <path clip-path="url(#pa144e9d79c)" d="M 294.122574 284.258625 
L 295.811284 284.258625 
L 295.811284 275.587118 
L 294.122574 275.587118 
z
" style="fill:#d62728;"/>
   </g>
   <g id="patch_268">
    <path clip-path="url(#pa144e9d79c)" d="M 296.233462 284.258625 
L 297.922172 284.258625 
L 297.922172 275.47395 
L 296.233462 275.47395 
z
" style="fill:#d62728;"/>
   </g>
   <g id="patch_269">
    <path clip-path="url(#pa144e9d79c)" d="M 298.34435 284.258625 
L 300.03306 284.258625 
L 300.03306 275.162738 
L 298.34435 275.162738 
z
" style="fill:#d62728;"/>
   </g>
   <g id="patch_270">
    <path clip-path="url(#pa144e9d79c)" d="M 300.455238 284.258625 
L 302.143948 284.258625 
L 302.143948 274.809087 
L 300.455238 274.809087 
z
" style="fill:#d62728;"/>
   </g>
   <g id="patch_271">
    <path clip-path="url(#pa144e9d79c)" d="M 302.566125 284.258625 
L 304.254836 284.258625 
L 304.254836 274.540313 
L 302.566125 274.540313 
z
" style="fill:#d62728;"/>
   </g>
   <g id="patch_272">
    <path clip-path="url(#pa144e9d79c)" d="M 304.677013 284.258625 
L 306.365723 284.258625 
L 306.365723 274.214955 
L 304.677013 274.214955 
z
" style="fill:#d62728;"/>
   </g>
   <g id="patch_273">
    <path clip-path="url(#pa144e9d79c)" d="M 306.787901 284.258625 
L 308.476611 284.258625 
L 308.476611 274.002764 
L 306.787901 274.002764 
z
" style="fill:#d62728;"/>
   </g>
   <g id="patch_274">
    <path clip-path="url(#pa144e9d79c)" d="M 308.898789 284.258625 
L 310.587499 284.258625 
L 310.587499 273.73399 
L 308.898789 273.73399 
z
" style="fill:#d62728;"/>
   </g>
   <g id="patch_275">
    <path clip-path="url(#pa144e9d79c)" d="M 311.009677 284.258625 
L 312.698387 284.258625 
L 312.698387 273.66326 
L 311.009677 273.66326 
z
" style="fill:#d62728;"/>
   </g>
   <g id="patch_276">
    <path clip-path="url(#pa144e9d79c)" d="M 313.120564 284.258625 
L 314.809275 284.258625 
L 314.809275 273.465216 
L 313.120564 273.465216 
z
" style="fill:#d62728;"/>
   </g>
   <g id="patch_277">
    <path clip-path="url(#pa144e9d79c)" d="M 315.231452 284.258625 
L 316.920162 284.258625 
L 316.920162 273.352048 
L 315.231452 273.352048 
z
" style="fill:#d62728;"/>
   </g>
   <g id="patch_278">
    <path clip-path="url(#pa144e9d79c)" d="M 317.34234 284.258625 
L 319.03105 284.258625 
L 319.03105 273.267172 
L 317.34234 273.267172 
z
" style="fill:#d62728;"/>
   </g>
   <g id="patch_279">
    <path clip-path="url(#pa144e9d79c)" d="M 319.453228 284.258625 
L 321.141938 284.258625 
L 321.141938 272.998397 
L 319.453228 272.998397 
z
" style="fill:#d62728;"/>
   </g>
   <g id="patch_280">
    <path clip-path="url(#pa144e9d79c)" d="M 321.564116 284.258625 
L 323.252826 284.258625 
L 323.252826 272.828645 
L 321.564116 272.828645 
z
" style="fill:#d62728;"/>
   </g>
   <g id="patch_281">
    <path clip-path="url(#pa144e9d79c)" d="M 323.675003 284.258625 
L 325.363714 284.258625 
L 325.363714 272.658893 
L 323.675003 272.658893 
z
" style="fill:#d62728;"/>
   </g>
   <g id="patch_282">
    <path clip-path="url(#pa144e9d79c)" d="M 325.785891 284.258625 
L 327.474601 284.258625 
L 327.474601 272.517433 
L 325.785891 272.517433 
z
" style="fill:#d62728;"/>
   </g>
   <g id="patch_283">
    <path clip-path="url(#pa144e9d79c)" d="M 327.896779 284.258625 
L 329.585489 284.258625 
L 329.585489 272.291097 
L 327.896779 272.291097 
z
" style="fill:#d62728;"/>
   </g>
   <g id="patch_284">
    <path clip-path="url(#pa144e9d79c)" d="M 330.007667 284.258625 
L 331.696377 284.258625 
L 331.696377 272.121344 
L 330.007667 272.121344 
z
" style="fill:#d62728;"/>
   </g>
   <g id="patch_285">
    <path clip-path="url(#pa144e9d79c)" d="M 332.118555 284.258625 
L 333.807265 284.258625 
L 333.807265 271.99403 
L 332.118555 271.99403 
z
" style="fill:#d62728;"/>
   </g>
   <g id="patch_286">
    <path clip-path="url(#pa144e9d79c)" d="M 334.229442 284.258625 
L 335.918153 284.258625 
L 335.918153 271.895008 
L 334.229442 271.895008 
z
" style="fill:#d62728;"/>
   </g>
   <g id="patch_287">
    <path clip-path="url(#pa144e9d79c)" d="M 336.34033 284.258625 
L 338.029041 284.258625 
L 338.029041 271.725256 
L 336.34033 271.725256 
z
" style="fill:#d62728;"/>
   </g>
   <g id="patch_288">
    <path clip-path="url(#pa144e9d79c)" d="M 338.451218 284.258625 
L 340.139928 284.258625 
L 340.139928 271.654526 
L 338.451218 271.654526 
z
" style="fill:#d62728;"/>
   </g>
   <g id="patch_289">
    <path clip-path="url(#pa144e9d79c)" d="M 340.562106 284.258625 
L 342.250816 284.258625 
L 342.250816 271.64038 
L 340.562106 271.64038 
z
" style="fill:#d62728;"/>
   </g>
   <g id="patch_290">
    <path clip-path="url(#pa144e9d79c)" d="M 342.672994 284.258625 
L 344.361704 284.258625 
L 344.361704 271.612088 
L 342.672994 271.612088 
z
" style="fill:#d62728;"/>
   </g>
   <g id="patch_291">
    <path clip-path="url(#pa144e9d79c)" d="M 344.783882 284.258625 
L 346.472592 284.258625 
L 346.472592 271.527212 
L 344.783882 271.527212 
z
" style="fill:#d62728;"/>
   </g>
   <g id="patch_292">
    <path clip-path="url(#pa144e9d79c)" d="M 346.894769 284.258625 
L 348.58348 284.258625 
L 348.58348 271.484774 
L 346.894769 271.484774 
z
" style="fill:#d62728;"/>
   </g>
   <g id="patch_293">
    <path clip-path="url(#pa144e9d79c)" d="M 349.005657 284.258625 
L 350.694367 284.258625 
L 350.694367 271.42819 
L 349.005657 271.42819 
z
" style="fill:#d62728;"/>
   </g>
   <g id="patch_294">
    <path clip-path="url(#pa144e9d79c)" d="M 351.116545 284.258625 
L 352.805255 284.258625 
L 352.805255 271.329168 
L 351.116545 271.329168 
z
" style="fill:#d62728;"/>
   </g>
   <g id="patch_295">
    <path clip-path="url(#pa144e9d79c)" d="M 353.227433 284.258625 
L 354.916143 284.258625 
L 354.916143 271.300876 
L 353.227433 271.300876 
z
" style="fill:#d62728;"/>
   </g>
   <g id="patch_296">
    <path clip-path="url(#pa144e9d79c)" d="M 355.338321 284.258625 
L 357.027031 284.258625 
L 357.027031 271.300876 
L 355.338321 271.300876 
z
" style="fill:#d62728;"/>
   </g>
   <g id="patch_297">
    <path clip-path="url(#pa144e9d79c)" d="M 357.449208 284.258625 
L 359.137919 284.258625 
L 359.137919 271.300876 
L 357.449208 271.300876 
z
" style="fill:#d62728;"/>
   </g>
   <g id="patch_298">
    <path clip-path="url(#pa144e9d79c)" d="M 359.560096 284.258625 
L 361.248806 284.258625 
L 361.248806 271.258437 
L 359.560096 271.258437 
z
" style="fill:#d62728;"/>
   </g>
   <g id="patch_299">
    <path clip-path="url(#pa144e9d79c)" d="M 361.670984 284.258625 
L 363.359694 284.258625 
L 363.359694 271.244291 
L 361.670984 271.244291 
z
" style="fill:#d62728;"/>
   </g>
   <g id="patch_300">
    <path clip-path="url(#pa144e9d79c)" d="M 363.781872 284.258625 
L 365.470582 284.258625 
L 365.470582 271.215999 
L 363.781872 271.215999 
z
" style="fill:#d62728;"/>
   </g>
   <g id="patch_301">
    <path clip-path="url(#pa144e9d79c)" d="M 365.89276 284.258625 
L 367.58147 284.258625 
L 367.58147 271.187707 
L 365.89276 271.187707 
z
" style="fill:#d62728;"/>
   </g>
   <g id="patch_302">
    <path clip-path="url(#pa144e9d79c)" d="M 368.003647 284.258625 
L 369.692358 284.258625 
L 369.692358 271.173561 
L 368.003647 271.173561 
z
" style="fill:#d62728;"/>
   </g>
   <g id="patch_303">
    <path clip-path="url(#pa144e9d79c)" d="M 370.114535 284.258625 
L 371.803246 284.258625 
L 371.803246 271.173561 
L 370.114535 271.173561 
z
" style="fill:#d62728;"/>
   </g>
   <g id="patch_304">
    <path clip-path="url(#pa144e9d79c)" d="M 372.225423 284.258625 
L 373.914133 284.258625 
L 373.914133 271.145269 
L 372.225423 271.145269 
z
" style="fill:#d62728;"/>
   </g>
   <g id="patch_305">
    <path clip-path="url(#pa144e9d79c)" d="M 374.336311 284.258625 
L 376.025021 284.258625 
L 376.025021 271.088685 
L 374.336311 271.088685 
z
" style="fill:#d62728;"/>
   </g>
   <g id="patch_306">
    <path clip-path="url(#pa144e9d79c)" d="M 376.447199 284.258625 
L 378.135909 284.258625 
L 378.135909 271.032101 
L 376.447199 271.032101 
z
" style="fill:#d62728;"/>
   </g>
   <g id="patch_307">
    <path clip-path="url(#pa144e9d79c)" d="M 378.558087 284.258625 
L 380.246797 284.258625 
L 380.246797 271.032101 
L 378.558087 271.032101 
z
" style="fill:#d62728;"/>
   </g>
   <g id="patch_308">
    <path clip-path="url(#pa144e9d79c)" d="M 380.668974 284.258625 
L 382.357685 284.258625 
L 382.357685 270.791619 
L 380.668974 270.791619 
z
" style="fill:#d62728;"/>
   </g>
   <g id="patch_309">
    <path clip-path="url(#pa144e9d79c)" d="M 382.779862 284.258625 
L 384.468572 284.258625 
L 384.468572 270.777473 
L 382.779862 270.777473 
z
" style="fill:#d62728;"/>
   </g>
   <g id="patch_310">
    <path clip-path="url(#pa144e9d79c)" d="M 384.89075 284.258625 
L 386.57946 284.258625 
L 386.57946 270.777473 
L 384.89075 270.777473 
z
" style="fill:#d62728;"/>
   </g>
   <g id="matplotlib.axis_1">
    <g id="xtick_1">
     <g id="line2d_1">
      <defs>
       <path d="M 0 0 
L 0 3.5 
" id="m4c48313b6b" style="stroke:#000000;stroke-width:0.8;"/>
      </defs>
      <g>
       <use style="stroke:#000000;stroke-width:0.8;" x="85.989036" xlink:href="#m4c48313b6b" y="284.258625"/>
      </g>
     </g>
     <g id="text_1">
      <!-- Feb -->
      <defs>
       <path d="M 54.203125 64.703125 
L 18.3125 64.703125 
L 18.3125 41.5 
L 50.09375 41.5 
L 50.09375 34.1875 
L 18.3125 34.1875 
L 18.3125 0.984375 
L 9.515625 0.984375 
L 9.515625 72.40625 
L 54.203125 72.40625 
z
" id="IPAexGothic-70"/>
       <path d="M 13.484375 24.90625 
Q 13.921875 16.265625 18.890625 11.28125 
Q 23.96875 6.203125 31.203125 6.203125 
Q 40.71875 6.203125 46.296875 15.09375 
L 51.90625 11.375 
Q 44.828125 -0.484375 30.171875 -0.484375 
Q 19.09375 -0.484375 11.96875 6.59375 
Q 4.78125 13.8125 4.78125 25.640625 
Q 4.78125 38.1875 12.3125 45.703125 
Q 19 52.390625 29 52.390625 
Q 38.421875 52.390625 44.78125 46.1875 
Q 51.90625 38.96875 51.90625 26.90625 
L 51.90625 24.90625 
z
M 43.0625 31.203125 
Q 42.328125 37.984375 38.28125 41.890625 
Q 34.28125 45.90625 28.8125 45.90625 
Q 22.46875 45.90625 17.96875 40.484375 
Q 14.890625 36.8125 13.96875 31.203125 
z
" id="IPAexGothic-101"/>
       <path d="M 17.578125 42.671875 
Q 24.21875 52.203125 34.671875 52.203125 
Q 43.5625 52.203125 49.859375 45.90625 
Q 57.171875 38.578125 57.171875 25.6875 
Q 57.171875 13.09375 49.859375 5.8125 
Q 43.5625 -0.484375 34.46875 -0.484375 
Q 24.359375 -0.484375 17 8.0625 
L 15.765625 0.6875 
L 9.078125 0.6875 
L 9.078125 74.90625 
L 17.578125 74.90625 
z
M 17.578125 31.203125 
L 17.578125 19.578125 
Q 17.578125 13.875 23.875 9.375 
Q 28.171875 6.296875 33.109375 6.296875 
Q 38.875 6.296875 42.875 10.296875 
Q 48.1875 15.765625 48.1875 25.484375 
Q 48.1875 34.28125 43.796875 39.890625 
Q 39.453125 45.3125 33.203125 45.3125 
Q 27.484375 45.3125 22.46875 40.28125 
Q 17.578125 35.40625 17.578125 31.203125 
z
" id="IPAexGothic-98"/>
      </defs>
      <g transform="translate(77.165598 298.74925)scale(0.1 -0.1)">
       <use xlink:href="#IPAexGothic-70"/>
       <use x="57.177734" xlink:href="#IPAexGothic-101"/>
       <use x="114.0625" xlink:href="#IPAexGothic-98"/>
      </g>
     </g>
    </g>
    <g id="xtick_2">
     <g id="line2d_2">
      <g>
       <use style="stroke:#000000;stroke-width:0.8;" x="147.204782" xlink:href="#m4c48313b6b" y="284.258625"/>
      </g>
     </g>
     <g id="text_2">
      <!-- Mar -->
      <defs>
       <path d="M 80.421875 0.984375 
L 71.828125 0.984375 
L 71.828125 39.59375 
Q 71.828125 51.265625 72.40625 64.59375 
L 72.015625 64.59375 
Q 68.0625 53.265625 63.53125 41.796875 
L 47.90625 3.265625 
L 41.40625 3.265625 
L 25.640625 42.578125 
Q 20.75 54.78125 17.625 64.703125 
L 17.234375 64.703125 
Q 17.828125 48.921875 17.828125 39.890625 
L 17.828125 0.984375 
L 9.515625 0.984375 
L 9.515625 72.40625 
L 22.125 72.40625 
L 39.109375 30.375 
Q 42.140625 23 44.828125 14.15625 
L 45.125 14.15625 
Q 47.3125 22.125 50.53125 30.171875 
L 67.4375 72.40625 
L 80.421875 72.40625 
z
" id="IPAexGothic-77"/>
       <path d="M 49.3125 0.984375 
L 41.75 0.984375 
Q 39.984375 4.734375 39.546875 8.6875 
L 39.203125 8.6875 
Q 33.546875 -0.390625 22.3125 -0.390625 
Q 14.59375 -0.390625 9.71875 4.5 
Q 5.421875 8.796875 5.421875 14.984375 
Q 5.421875 30.421875 32.03125 31.203125 
L 38.71875 31.390625 
L 38.71875 33.984375 
Q 38.71875 39.203125 35.75 42.1875 
Q 32.625 45.3125 27.734375 45.3125 
Q 19.34375 45.3125 15.140625 37.15625 
L 7.71875 40.578125 
Q 14.65625 52 27.9375 52 
Q 37.109375 52 42.046875 46.875 
Q 46.625 42.28125 46.625 33.890625 
L 46.625 15.578125 
Q 46.625 6.25 49.3125 0.984375 
z
M 38.921875 25.390625 
L 33.453125 25.296875 
Q 14.109375 24.859375 14.109375 14.890625 
Q 14.109375 11.375 16.40625 9.078125 
Q 19.234375 6.296875 23.828125 6.296875 
Q 30.21875 6.296875 34.90625 10.984375 
Q 38.921875 15.140625 38.921875 21 
z
" id="IPAexGothic-97"/>
       <path d="M 36.078125 51.8125 
L 34.578125 43.265625 
Q 32.90625 43.609375 31.59375 43.609375 
Q 25.828125 43.609375 22.078125 38.1875 
Q 17.390625 31.34375 17.390625 26.171875 
L 17.390625 0.984375 
L 8.796875 0.984375 
L 8.796875 50.78125 
L 16.890625 50.78125 
L 16.5 35.984375 
L 16.703125 35.984375 
Q 22.21875 52.203125 32.765625 52.203125 
Q 34.46875 52.203125 36.078125 51.8125 
z
" id="IPAexGothic-114"/>
      </defs>
      <g transform="translate(138.095407 298.74925)scale(0.1 -0.1)">
       <use xlink:href="#IPAexGothic-77"/>
       <use x="90.185547" xlink:href="#IPAexGothic-97"/>
       <use x="145.166016" xlink:href="#IPAexGothic-114"/>
      </g>
     </g>
    </g>
    <g id="xtick_3">
     <g id="line2d_3">
      <g>
       <use style="stroke:#000000;stroke-width:0.8;" x="212.642305" xlink:href="#m4c48313b6b" y="284.258625"/>
      </g>
     </g>
     <g id="text_3">
      <!-- Apr -->
      <defs>
       <path d="M 63.375 0.984375 
L 53.8125 0.984375 
L 45.90625 22.015625 
L 17.1875 22.015625 
L 9.421875 0.984375 
L -0.09375 0.984375 
L 28.21875 72.90625 
L 35.296875 72.90625 
z
M 43.40625 29.109375 
L 36.1875 48.09375 
Q 33.203125 56.0625 31.6875 62.5 
L 31.390625 62.5 
Q 29.640625 55.671875 26.8125 48.09375 
L 19.734375 29.109375 
z
" id="IPAexGothic-65"/>
       <path d="M 16.796875 42 
Q 23.828125 52.203125 34.46875 52.203125 
Q 43.265625 52.203125 49.5625 45.90625 
Q 56.890625 38.578125 56.890625 25.6875 
Q 56.890625 13.140625 49.65625 5.8125 
Q 43.359375 -0.484375 34.375 -0.484375 
Q 24.515625 -0.484375 17.28125 7.765625 
L 17.28125 -19 
L 8.796875 -19 
L 8.796875 50.78125 
L 16.796875 50.78125 
z
M 17.28125 30.46875 
L 17.28125 20.171875 
Q 17.28125 14.015625 23.6875 9.375 
Q 27.984375 6.296875 32.90625 6.296875 
Q 38.578125 6.296875 42.578125 10.296875 
Q 47.90625 15.578125 47.90625 25.484375 
Q 47.90625 34.375 43.5 39.984375 
Q 39.109375 45.3125 32.8125 45.3125 
Q 25.875 45.3125 20.90625 38.8125 
Q 17.28125 34.125 17.28125 30.46875 
z
" id="IPAexGothic-112"/>
      </defs>
      <g transform="translate(204.500117 298.74925)scale(0.1 -0.1)">
       <use xlink:href="#IPAexGothic-65"/>
       <use x="63.720703" xlink:href="#IPAexGothic-112"/>
       <use x="125.830078" xlink:href="#IPAexGothic-114"/>
      </g>
     </g>
    </g>
    <g id="xtick_4">
     <g id="line2d_4">
      <g>
       <use style="stroke:#000000;stroke-width:0.8;" x="275.968939" xlink:href="#m4c48313b6b" y="284.258625"/>
      </g>
     </g>
     <g id="text_4">
      <!-- May -->
      <defs>
       <path d="M 48.78125 50.78125 
L 24.609375 -7.625 
Q 19.96875 -18.796875 8.59375 -18.796875 
L 7.46875 -18.796875 
L 5.375 -10.984375 
L 6.984375 -10.984375 
Q 15.140625 -10.984375 17.96875 -3.71875 
L 21.1875 4.296875 
L 0.59375 50.78125 
L 10.296875 50.78125 
L 21.296875 22.796875 
Q 23.875 16.015625 25.09375 12.203125 
L 25.390625 12.203125 
Q 27.34375 18.265625 29.109375 22.796875 
L 39.5 50.78125 
z
" id="IPAexGothic-121"/>
      </defs>
      <g transform="translate(266.249408 298.74925)scale(0.1 -0.1)">
       <use xlink:href="#IPAexGothic-77"/>
       <use x="90.185547" xlink:href="#IPAexGothic-97"/>
       <use x="145.166016" xlink:href="#IPAexGothic-121"/>
      </g>
     </g>
    </g>
    <g id="xtick_5">
     <g id="line2d_5">
      <g>
       <use style="stroke:#000000;stroke-width:0.8;" x="341.406461" xlink:href="#m4c48313b6b" y="284.258625"/>
      </g>
     </g>
     <g id="text_5">
      <!-- Jun -->
      <defs>
       <path d="M 28.421875 72.40625 
L 28.421875 19.28125 
Q 28.421875 -0.484375 11.921875 -0.484375 
Q 4.734375 -0.484375 -1.953125 3.265625 
L 1.3125 10.0625 
Q 5.90625 6.984375 10.84375 6.984375 
Q 19.53125 6.984375 19.53125 18.796875 
L 19.53125 72.40625 
z
" id="IPAexGothic-74"/>
       <path d="M 51.3125 0.984375 
L 43.3125 0.984375 
L 43.3125 10.0625 
Q 35.9375 0 25.390625 0 
Q 16.75 0 11.921875 5.859375 
Q 8.109375 10.59375 8.109375 19.390625 
L 8.109375 50.78125 
L 16.703125 50.78125 
L 16.703125 19.671875 
Q 16.703125 7.28125 27.09375 7.28125 
Q 37.59375 7.28125 42.71875 20.171875 
L 42.71875 50.78125 
L 51.3125 50.78125 
z
" id="IPAexGothic-117"/>
       <path d="M 52 0.984375 
L 43.40625 0.984375 
L 43.40625 31.890625 
Q 43.40625 44.578125 32.90625 44.578125 
Q 22.3125 44.578125 17.390625 31.890625 
L 17.390625 0.984375 
L 8.796875 0.984375 
L 8.796875 50.78125 
L 16.796875 50.78125 
L 16.796875 41.796875 
Q 23.828125 51.8125 34.71875 51.8125 
Q 52 51.8125 52 32.375 
z
" id="IPAexGothic-110"/>
      </defs>
      <g transform="translate(333.466617 298.74925)scale(0.1 -0.1)">
       <use xlink:href="#IPAexGothic-74"/>
       <use x="37.988281" xlink:href="#IPAexGothic-117"/>
       <use x="98.388672" xlink:href="#IPAexGothic-110"/>
      </g>
     </g>
    </g>
    <g id="text_6">
     <!-- 2020 -->
     <defs>
      <path d="M 57.171875 0.984375 
L 6.984375 0.984375 
L 6.984375 9.28125 
Q 12.890625 23.046875 29.59375 34.421875 
L 32.375 36.28125 
Q 40.921875 42.140625 43.609375 45.40625 
Q 46.6875 49.265625 46.6875 53.8125 
Q 46.6875 58.9375 43.0625 62.546875 
Q 39.0625 66.546875 32.5625 66.546875 
Q 19.53125 66.546875 15.484375 52 
L 7.765625 54.78125 
Q 13.328125 73.828125 33.0625 73.828125 
Q 43.84375 73.828125 50.25 67.4375 
Q 55.859375 61.671875 55.859375 53.515625 
Q 55.859375 47.46875 52.25 42.53125 
Q 48.921875 37.75 36.96875 30.28125 
L 34.859375 29 
Q 19.625 19.578125 15.28125 8.890625 
L 57.171875 8.890625 
z
" id="IPAexGothic-50"/>
      <path d="M 31.84375 73.828125 
Q 45.015625 73.828125 52.09375 61.625 
Q 57.71875 51.953125 57.71875 36.625 
Q 57.71875 21.4375 52.09375 11.578125 
Q 45.125 -0.484375 31.5 -0.484375 
Q 17.921875 -0.484375 10.9375 11.578125 
Q 5.328125 21.4375 5.328125 36.71875 
Q 5.328125 58.015625 15.625 67.71875 
Q 22.171875 73.828125 31.84375 73.828125 
z
M 31.5 66.65625 
Q 23.6875 66.65625 19.1875 58.734375 
Q 14.59375 50.734375 14.59375 36.625 
Q 14.59375 22.75 19.09375 14.796875 
Q 23.640625 6.984375 31.5 6.984375 
Q 40.921875 6.984375 45.453125 18.015625 
Q 48.4375 25.34375 48.4375 37.109375 
Q 48.4375 50.875 43.84375 58.734375 
Q 39.203125 66.65625 31.5 66.65625 
z
" id="IPAexGothic-48"/>
     </defs>
     <g transform="translate(377.618438 311.139875)scale(0.1 -0.1)">
      <use xlink:href="#IPAexGothic-50"/>
      <use x="62.988281" xlink:href="#IPAexGothic-48"/>
      <use x="125.976562" xlink:href="#IPAexGothic-50"/>
      <use x="188.964844" xlink:href="#IPAexGothic-48"/>
     </g>
    </g>
   </g>
   <g id="matplotlib.axis_2">
    <g id="ytick_1">
     <g id="line2d_6">
      <defs>
       <path d="M 0 0 
L -3.5 0 
" id="m9c97ae24a5" style="stroke:#000000;stroke-width:0.8;"/>
      </defs>
      <g>
       <use style="stroke:#000000;stroke-width:0.8;" x="45.692188" xlink:href="#m9c97ae24a5" y="284.258625"/>
      </g>
     </g>
     <g id="text_7">
      <!-- 0 -->
      <g transform="translate(32.39375 288.003937)scale(0.1 -0.1)">
       <use xlink:href="#IPAexGothic-48"/>
      </g>
     </g>
    </g>
    <g id="ytick_2">
     <g id="line2d_7">
      <g>
       <use style="stroke:#000000;stroke-width:0.8;" x="45.692188" xlink:href="#m9c97ae24a5" y="248.893588"/>
      </g>
     </g>
     <g id="text_8">
      <!-- 2500 -->
      <defs>
       <path d="M 18.40625 40.671875 
Q 25.53125 46.296875 33.9375 46.296875 
Q 44 46.296875 50.640625 39.5 
Q 56.84375 33.015625 56.84375 23.390625 
Q 56.84375 14.65625 51.515625 8.015625 
Q 44.828125 -0.484375 31.734375 -0.484375 
Q 14.984375 -0.484375 7.328125 12.25 
L 14.65625 16.0625 
Q 20.453125 6.78125 31.453125 6.78125 
Q 38.53125 6.78125 43.265625 11.1875 
Q 48.140625 15.828125 48.140625 23.484375 
Q 48.140625 30.71875 43.84375 35.015625 
Q 39.359375 39.5 32.125 39.5 
Q 21.96875 39.5 16.75 31.6875 
L 9.234375 32.671875 
L 13.8125 72.40625 
L 53.21875 72.40625 
L 53.21875 64.890625 
L 20.953125 64.890625 
L 17.71875 40.671875 
z
" id="IPAexGothic-53"/>
      </defs>
      <g transform="translate(13.498438 252.638901)scale(0.1 -0.1)">
       <use xlink:href="#IPAexGothic-50"/>
       <use x="62.988281" xlink:href="#IPAexGothic-53"/>
       <use x="125.976562" xlink:href="#IPAexGothic-48"/>
       <use x="188.964844" xlink:href="#IPAexGothic-48"/>
      </g>
     </g>
    </g>
    <g id="ytick_3">
     <g id="line2d_8">
      <g>
       <use style="stroke:#000000;stroke-width:0.8;" x="45.692188" xlink:href="#m9c97ae24a5" y="213.528551"/>
      </g>
     </g>
     <g id="text_9">
      <!-- 5000 -->
      <g transform="translate(13.498438 217.273864)scale(0.1 -0.1)">
       <use xlink:href="#IPAexGothic-53"/>
       <use x="62.988281" xlink:href="#IPAexGothic-48"/>
       <use x="125.976562" xlink:href="#IPAexGothic-48"/>
       <use x="188.964844" xlink:href="#IPAexGothic-48"/>
      </g>
     </g>
    </g>
    <g id="ytick_4">
     <g id="line2d_9">
      <g>
       <use style="stroke:#000000;stroke-width:0.8;" x="45.692188" xlink:href="#m9c97ae24a5" y="178.163514"/>
      </g>
     </g>
     <g id="text_10">
      <!-- 7500 -->
      <defs>
       <path d="M 56.203125 66.609375 
Q 34.96875 32.90625 27.78125 0.984375 
L 17.671875 0.984375 
Q 24.703125 28.65625 46.09375 64.5 
L 6.6875 64.5 
L 6.6875 72.40625 
L 56.203125 72.40625 
z
" id="IPAexGothic-55"/>
      </defs>
      <g transform="translate(13.498438 181.908827)scale(0.1 -0.1)">
       <use xlink:href="#IPAexGothic-55"/>
       <use x="62.988281" xlink:href="#IPAexGothic-53"/>
       <use x="125.976562" xlink:href="#IPAexGothic-48"/>
       <use x="188.964844" xlink:href="#IPAexGothic-48"/>
      </g>
     </g>
    </g>
    <g id="ytick_5">
     <g id="line2d_10">
      <g>
       <use style="stroke:#000000;stroke-width:0.8;" x="45.692188" xlink:href="#m9c97ae24a5" y="142.798478"/>
      </g>
     </g>
     <g id="text_11">
      <!-- 10000 -->
      <defs>
       <path d="M 38.484375 0.984375 
L 29.6875 0.984375 
L 29.6875 64.109375 
Q 21.4375 61.28125 12.3125 59.328125 
L 10.6875 66.109375 
Q 23.734375 69.390625 32.90625 73.921875 
L 38.484375 73.921875 
z
" id="IPAexGothic-49"/>
      </defs>
      <g transform="translate(7.2 146.54379)scale(0.1 -0.1)">
       <use xlink:href="#IPAexGothic-49"/>
       <use x="62.988281" xlink:href="#IPAexGothic-48"/>
       <use x="125.976562" xlink:href="#IPAexGothic-48"/>
       <use x="188.964844" xlink:href="#IPAexGothic-48"/>
       <use x="251.953125" xlink:href="#IPAexGothic-48"/>
      </g>
     </g>
    </g>
    <g id="ytick_6">
     <g id="line2d_11">
      <g>
       <use style="stroke:#000000;stroke-width:0.8;" x="45.692188" xlink:href="#m9c97ae24a5" y="107.433441"/>
      </g>
     </g>
     <g id="text_12">
      <!-- 12500 -->
      <g transform="translate(7.2 111.178753)scale(0.1 -0.1)">
       <use xlink:href="#IPAexGothic-49"/>
       <use x="62.988281" xlink:href="#IPAexGothic-50"/>
       <use x="125.976562" xlink:href="#IPAexGothic-53"/>
       <use x="188.964844" xlink:href="#IPAexGothic-48"/>
       <use x="251.953125" xlink:href="#IPAexGothic-48"/>
      </g>
     </g>
    </g>
    <g id="ytick_7">
     <g id="line2d_12">
      <g>
       <use style="stroke:#000000;stroke-width:0.8;" x="45.692188" xlink:href="#m9c97ae24a5" y="72.068404"/>
      </g>
     </g>
     <g id="text_13">
      <!-- 15000 -->
      <g transform="translate(7.2 75.813716)scale(0.1 -0.1)">
       <use xlink:href="#IPAexGothic-49"/>
       <use x="62.988281" xlink:href="#IPAexGothic-53"/>
       <use x="125.976562" xlink:href="#IPAexGothic-48"/>
       <use x="188.964844" xlink:href="#IPAexGothic-48"/>
       <use x="251.953125" xlink:href="#IPAexGothic-48"/>
      </g>
     </g>
    </g>
    <g id="ytick_8">
     <g id="line2d_13">
      <g>
       <use style="stroke:#000000;stroke-width:0.8;" x="45.692188" xlink:href="#m9c97ae24a5" y="36.703367"/>
      </g>
     </g>
     <g id="text_14">
      <!-- 17500 -->
      <g transform="translate(7.2 40.44868)scale(0.1 -0.1)">
       <use xlink:href="#IPAexGothic-49"/>
       <use x="62.988281" xlink:href="#IPAexGothic-55"/>
       <use x="125.976562" xlink:href="#IPAexGothic-53"/>
       <use x="188.964844" xlink:href="#IPAexGothic-48"/>
       <use x="251.953125" xlink:href="#IPAexGothic-48"/>
      </g>
     </g>
    </g>
   </g>
   <g id="patch_311">
    <path d="M 45.692188 284.258625 
L 45.692188 18.146625 
" style="fill:none;stroke:#000000;stroke-linecap:square;stroke-linejoin:miter;stroke-width:0.8;"/>
   </g>
   <g id="patch_312">
    <path d="M 402.812188 284.258625 
L 402.812188 18.146625 
" style="fill:none;stroke:#000000;stroke-linecap:square;stroke-linejoin:miter;stroke-width:0.8;"/>
   </g>
   <g id="patch_313">
    <path d="M 45.692187 284.258625 
L 402.812188 284.258625 
" style="fill:none;stroke:#000000;stroke-linecap:square;stroke-linejoin:miter;stroke-width:0.8;"/>
   </g>
   <g id="patch_314">
    <path d="M 45.692187 18.146625 
L 402.812188 18.146625 
" style="fill:none;stroke:#000000;stroke-linecap:square;stroke-linejoin:miter;stroke-width:0.8;"/>
   </g>
   <g id="legend_1">
    <g id="patch_315">
     <path d="M 52.692188 55.28725 
L 170.534375 55.28725 
Q 172.534375 55.28725 172.534375 53.28725 
L 172.534375 25.146625 
Q 172.534375 23.146625 170.534375 23.146625 
L 52.692188 23.146625 
Q 50.692188 23.146625 50.692188 25.146625 
L 50.692188 53.28725 
Q 50.692188 55.28725 52.692188 55.28725 
z
" style="fill:#ffffff;opacity:0.8;stroke:#cccccc;stroke-linejoin:miter;"/>
    </g>
    <g id="patch_316">
     <path d="M 54.692188 34.816937 
L 74.692188 34.816937 
L 74.692188 27.816937 
L 54.692188 27.816937 
z
" style="fill:#ffbb78;"/>
    </g>
    <g id="text_15">
     <!-- Confirmed (Japan) -->
     <defs>
      <path d="M 68.015625 17 
Q 65.328125 10.84375 60.296875 6.6875 
Q 51.765625 -0.484375 39.984375 -0.484375 
Q 24.8125 -0.484375 14.984375 10.203125 
Q 5.90625 20.21875 5.90625 36.421875 
Q 5.90625 53.21875 15.828125 63.71875 
Q 25.296875 73.828125 39.59375 73.828125 
Q 59.578125 73.828125 67.53125 56.6875 
L 59.515625 52.984375 
Q 53.515625 66.21875 39.703125 66.21875 
Q 29.546875 66.21875 22.703125 58.5 
Q 15.53125 50.25 15.53125 36.28125 
Q 15.53125 24.21875 21.625 16.5 
Q 28.765625 7.375 40.046875 7.375 
Q 54 7.375 60.59375 20.609375 
z
" id="IPAexGothic-67"/>
      <path d="M 29.984375 52.203125 
Q 40.53125 52.203125 47.75 45.125 
Q 55.171875 37.703125 55.171875 25.59375 
Q 55.171875 13.875 47.90625 6.59375 
Q 40.765625 -0.484375 29.984375 -0.484375 
Q 19.1875 -0.484375 12.203125 6.5 
Q 4.890625 13.765625 4.890625 25.875 
Q 4.890625 37.703125 12.3125 45.125 
Q 19.390625 52.203125 29.984375 52.203125 
z
M 29.984375 45.609375 
Q 23.734375 45.609375 19.390625 41.109375 
Q 13.875 35.59375 13.875 25.78125 
Q 13.875 16.109375 19.28125 10.6875 
Q 23.6875 6.296875 29.984375 6.296875 
Q 36.421875 6.296875 40.765625 10.796875 
Q 46.1875 16.21875 46.1875 26.125 
Q 46.1875 35.453125 40.671875 41.109375 
Q 36.1875 45.609375 29.984375 45.609375 
z
" id="IPAexGothic-111"/>
      <path d="M 38.375 72.21875 
L 34.8125 66.3125 
Q 31.109375 69.09375 27.203125 69.09375 
Q 18.5 69.09375 18.5 57.375 
L 18.5 50.78125 
L 32.078125 50.78125 
L 32.078125 44.671875 
L 18.5 44.671875 
L 18.5 0.984375 
L 10.015625 0.984375 
L 10.015625 44.671875 
L 1.90625 44.671875 
L 1.90625 50.78125 
L 10.015625 50.78125 
L 10.015625 57.171875 
Q 10.015625 65.4375 13.921875 70.0625 
Q 18.75 75.6875 26.703125 75.6875 
Q 33.0625 75.6875 38.375 72.21875 
z
" id="IPAexGothic-102"/>
      <path d="M 18.40625 61.375 
L 8.59375 61.375 
L 8.59375 71.390625 
L 18.40625 71.390625 
z
M 17.78125 0.984375 
L 9.1875 0.984375 
L 9.1875 50.78125 
L 17.78125 50.78125 
z
" id="IPAexGothic-105"/>
      <path d="M 78.46875 0.984375 
L 69.875 0.984375 
L 69.875 32.171875 
Q 69.875 44.828125 60.109375 44.828125 
Q 55.46875 44.828125 51.609375 40.53125 
Q 48.875 37.453125 47.796875 32.859375 
L 47.796875 0.984375 
L 39.203125 0.984375 
L 39.203125 32.28125 
Q 39.203125 44.828125 29.984375 44.828125 
Q 25.09375 44.828125 21.390625 40.53125 
Q 17.390625 36.03125 17.390625 31.890625 
L 17.390625 0.984375 
L 8.796875 0.984375 
L 8.796875 50.78125 
L 16.796875 50.78125 
L 16.796875 42.1875 
Q 21.734375 51.8125 31.6875 51.8125 
Q 42.578125 51.8125 46.1875 41.359375 
Q 51.609375 51.8125 61.765625 51.8125 
Q 69.96875 51.8125 74.5625 46 
Q 78.46875 41.21875 78.46875 32.375 
z
" id="IPAexGothic-109"/>
      <path d="M 52.984375 0.984375 
L 45.171875 0.984375 
L 45.171875 9.671875 
Q 38.140625 -0.484375 27.390625 -0.484375 
Q 18.453125 -0.484375 12.3125 5.8125 
Q 4.890625 13.1875 4.890625 25.984375 
Q 4.890625 38.53125 12.0625 45.90625 
Q 18.265625 52.203125 27.390625 52.203125 
Q 37.25 52.203125 44.484375 43.890625 
L 44.484375 74.90625 
L 52.984375 74.90625 
z
M 44.484375 20.359375 
L 44.484375 32.765625 
Q 44.484375 37.703125 38.375 42.28125 
Q 34.078125 45.40625 28.953125 45.40625 
Q 23.1875 45.40625 19.1875 41.40625 
Q 13.875 36.078125 13.875 26.21875 
Q 13.875 17.328125 18.265625 11.71875 
Q 22.515625 6.390625 28.859375 6.390625 
Q 36.28125 6.390625 41.5 13.671875 
Q 44.484375 17.71875 44.484375 20.359375 
z
" id="IPAexGothic-100"/>
      <path id="IPAexGothic-32"/>
      <path d="M 30.125 -15.875 
L 25.828125 -18.21875 
Q 7.625 1.078125 7.625 29.296875 
Q 7.625 57.46875 25.828125 76.703125 
L 30.125 74.421875 
Q 15.71875 55.03125 15.71875 29.390625 
Q 15.71875 3.171875 30.125 -15.875 
z
" id="IPAexGothic-40"/>
      <path d="M 7.28125 76.703125 
Q 25.59375 57.375 25.59375 29.296875 
Q 25.59375 1.171875 7.28125 -18.21875 
L 2.984375 -15.875 
Q 17.484375 3.375 17.484375 29.390625 
Q 17.484375 54.828125 2.984375 74.421875 
z
" id="IPAexGothic-41"/>
     </defs>
     <g transform="translate(82.692188 34.816937)scale(0.1 -0.1)">
      <use xlink:href="#IPAexGothic-67"/>
      <use x="72.509766" xlink:href="#IPAexGothic-111"/>
      <use x="132.910156" xlink:href="#IPAexGothic-110"/>
      <use x="193.310547" xlink:href="#IPAexGothic-102"/>
      <use x="223.925781" xlink:href="#IPAexGothic-105"/>
      <use x="250.927734" xlink:href="#IPAexGothic-114"/>
      <use x="287.939453" xlink:href="#IPAexGothic-109"/>
      <use x="375.048828" xlink:href="#IPAexGothic-101"/>
      <use x="431.933594" xlink:href="#IPAexGothic-100"/>
      <use x="494.335938" xlink:href="#IPAexGothic-32"/>
      <use x="521.337891" xlink:href="#IPAexGothic-40"/>
      <use x="554.638672" xlink:href="#IPAexGothic-74"/>
      <use x="592.626953" xlink:href="#IPAexGothic-97"/>
      <use x="647.607422" xlink:href="#IPAexGothic-112"/>
      <use x="709.716797" xlink:href="#IPAexGothic-97"/>
      <use x="764.697266" xlink:href="#IPAexGothic-110"/>
      <use x="825.097656" xlink:href="#IPAexGothic-41"/>
     </g>
    </g>
    <g id="patch_317">
     <path d="M 54.692188 49.38725 
L 74.692188 49.38725 
L 74.692188 42.38725 
L 54.692188 42.38725 
z
" style="fill:#d62728;"/>
    </g>
    <g id="text_16">
     <!-- Deaths (Japan) -->
     <defs>
      <path d="M 9.515625 72.40625 
L 31 72.40625 
Q 49.359375 72.40625 59.234375 63.28125 
Q 69.625 53.8125 69.625 36.8125 
Q 69.625 16.359375 54.9375 6.890625 
Q 45.703125 0.984375 30.328125 0.984375 
L 9.515625 0.984375 
z
M 18.3125 8.6875 
L 29.59375 8.6875 
Q 60.203125 8.6875 60.203125 36.8125 
Q 60.203125 64.796875 30.125 64.796875 
L 18.3125 64.796875 
z
" id="IPAexGothic-68"/>
      <path d="M 33.203125 3.765625 
Q 27.640625 -0.09375 21.828125 -0.09375 
Q 10.203125 -0.09375 10.203125 12.984375 
L 10.203125 44.671875 
L 3.421875 44.671875 
L 3.421875 50.78125 
L 10.203125 50.78125 
L 10.203125 61.96875 
L 18.40625 66.0625 
L 18.40625 50.78125 
L 32.234375 50.78125 
L 32.234375 44.671875 
L 18.40625 44.671875 
L 18.40625 14.15625 
Q 18.40625 6.5 23.640625 6.5 
Q 27.15625 6.5 30.328125 9.1875 
z
" id="IPAexGothic-116"/>
      <path d="M 52.296875 0.984375 
L 43.703125 0.984375 
L 43.703125 31.890625 
Q 43.703125 44.578125 33.296875 44.578125 
Q 22.609375 44.578125 17.671875 31.890625 
L 17.671875 0.984375 
L 9.078125 0.984375 
L 9.078125 74.90625 
L 17.671875 74.90625 
L 17.671875 42.28125 
Q 24.46875 51.8125 35.109375 51.8125 
Q 52.296875 51.8125 52.296875 32.375 
z
" id="IPAexGothic-104"/>
      <path d="M 34.90625 39.796875 
Q 30.28125 45.796875 23.1875 45.796875 
Q 13.921875 45.796875 13.921875 38.671875 
Q 13.921875 33.640625 23.921875 30.375 
L 27.203125 29.296875 
Q 41.40625 24.65625 41.40625 13.96875 
Q 41.40625 6.78125 35.5 2.6875 
Q 30.8125 -0.484375 23.390625 -0.484375 
Q 11.96875 -0.484375 4 7.859375 
L 9.421875 12.796875 
Q 15.578125 6.203125 23.6875 6.203125 
Q 33.296875 6.203125 33.296875 13.671875 
Q 33.296875 19.34375 22.703125 23.09375 
L 19.28125 24.265625 
Q 5.90625 28.953125 5.90625 37.984375 
Q 5.90625 43.703125 9.8125 47.609375 
Q 14.5 52.296875 22.703125 52.296875 
Q 33.6875 52.296875 40.71875 44.671875 
z
" id="IPAexGothic-115"/>
     </defs>
     <g transform="translate(82.692188 49.38725)scale(0.1 -0.1)">
      <use xlink:href="#IPAexGothic-68"/>
      <use x="75.683594" xlink:href="#IPAexGothic-101"/>
      <use x="132.568359" xlink:href="#IPAexGothic-97"/>
      <use x="187.548828" xlink:href="#IPAexGothic-116"/>
      <use x="222.167969" xlink:href="#IPAexGothic-104"/>
      <use x="282.861328" xlink:href="#IPAexGothic-115"/>
      <use x="329.052734" xlink:href="#IPAexGothic-32"/>
      <use x="356.054688" xlink:href="#IPAexGothic-40"/>
      <use x="389.355469" xlink:href="#IPAexGothic-74"/>
      <use x="427.34375" xlink:href="#IPAexGothic-97"/>
      <use x="482.324219" xlink:href="#IPAexGothic-112"/>
      <use x="544.433594" xlink:href="#IPAexGothic-97"/>
      <use x="599.414062" xlink:href="#IPAexGothic-110"/>
      <use x="659.814453" xlink:href="#IPAexGothic-41"/>
     </g>
    </g>
   </g>
  </g>
  <g id="text_17">
   <!-- generated: 2020-06-23 08:18:09 JST -->
   <defs>
    <path d="M 20.796875 17.96875 
Q 15.71875 17.53125 15.71875 14.0625 
Q 15.71875 9.578125 27.546875 8.984375 
L 33.296875 8.6875 
Q 51.609375 7.765625 51.609375 -4.59375 
Q 51.609375 -10.9375 45.703125 -14.984375 
Q 39.359375 -19.578125 28.03125 -19.578125 
Q 17.78125 -19.578125 11.53125 -16.0625 
Q 5.515625 -12.640625 5.515625 -6.6875 
Q 5.515625 1.3125 16.796875 3.859375 
L 16.796875 4.203125 
Q 7.90625 6.453125 7.90625 12.15625 
Q 7.90625 17.4375 15.53125 20.265625 
Q 7.125 24.609375 7.125 34.078125 
Q 7.125 41.40625 12.015625 46.296875 
Q 17.625 51.90625 27.15625 51.90625 
Q 33.203125 51.90625 37.84375 49.265625 
Q 41.40625 53.953125 50.921875 54.109375 
L 50.921875 47.078125 
Q 44.34375 46.921875 42.234375 45.90625 
Q 47.40625 40.828125 47.40625 33.890625 
Q 47.40625 27 42.71875 22.265625 
Q 37.5 17.09375 28.328125 17.09375 
Q 24.421875 17.09375 20.796875 17.96875 
z
M 27.09375 45.609375 
Q 22.015625 45.609375 18.703125 42.28125 
Q 15.4375 39.015625 15.4375 34.078125 
Q 15.4375 29.25 18.5 26.3125 
Q 21.828125 23 27.4375 23 
Q 32.71875 23 35.890625 26.21875 
Q 39.109375 29.390625 39.109375 34.421875 
Q 39.109375 39.015625 35.890625 42.1875 
Q 32.515625 45.609375 27.09375 45.609375 
z
M 27.390625 2.484375 
Q 14.109375 2.484375 14.109375 -5.71875 
Q 14.109375 -13.671875 28.125 -13.671875 
Q 37.15625 -13.671875 41.21875 -9.46875 
Q 43.3125 -7.515625 43.3125 -4.890625 
Q 43.3125 2.484375 27.390625 2.484375 
z
" id="IPAexGothic-103"/>
    <path d="M 21.390625 39.984375 
L 10.5 39.984375 
L 10.5 50.78125 
L 21.390625 50.78125 
z
M 21.390625 0.984375 
L 10.5 0.984375 
L 10.5 11.765625 
L 21.390625 11.765625 
z
" id="IPAexGothic-58"/>
    <path d="M 30.765625 26.609375 
L 4.984375 26.609375 
L 4.984375 34.421875 
L 30.765625 34.421875 
z
" id="IPAexGothic-45"/>
    <path d="M 16.5 36.375 
Q 23.578125 46.578125 34.90625 46.578125 
Q 45.40625 46.578125 51.8125 39.265625 
Q 57.421875 32.90625 57.421875 23.78125 
Q 57.421875 13.8125 51.125 6.78125 
Q 44.578125 -0.484375 34.03125 -0.484375 
Q 21.484375 -0.484375 14.40625 9.078125 
Q 7.515625 18.40625 7.515625 34.8125 
Q 7.515625 53.515625 15.828125 64.203125 
Q 23.34375 73.828125 35.5 73.828125 
Q 49.859375 73.828125 56.390625 62.890625 
L 49.21875 58.984375 
Q 45.21875 66.65625 35.9375 66.65625 
Q 17.484375 66.65625 16.109375 36.375 
z
M 33.453125 39.796875 
Q 26.3125 39.796875 21.625 34.46875 
Q 17.4375 29.6875 17.4375 24.078125 
Q 17.4375 18.0625 21.140625 13.1875 
Q 26.125 6.6875 33.734375 6.6875 
Q 41.703125 6.6875 45.953125 13.1875 
Q 48.828125 17.625 48.828125 23.484375 
Q 48.828125 30.375 45.015625 34.8125 
Q 40.625 39.796875 33.453125 39.796875 
z
" id="IPAexGothic-54"/>
    <path d="M 37.203125 37.796875 
Q 54.78125 34.625 54.78125 19.96875 
Q 54.78125 11.1875 48.875 5.5625 
Q 42.328125 -0.484375 30.375 -0.484375 
Q 12.453125 -0.484375 4.5 13.765625 
L 11.8125 17.671875 
Q 17.328125 6.890625 30.28125 6.890625 
Q 37.890625 6.890625 42.09375 10.796875 
Q 46.09375 14.5 46.09375 20.171875 
Q 46.09375 26.859375 40.09375 30.90625 
Q 34.625 34.578125 25.6875 34.578125 
L 21.296875 34.578125 
L 21.296875 41.703125 
L 25.875 41.703125 
Q 34.859375 41.703125 39.59375 45.125 
Q 44.671875 48.734375 44.671875 54.828125 
Q 44.671875 61.46875 38.96875 64.65625 
Q 35.296875 66.84375 30.171875 66.84375 
Q 19.34375 66.84375 14.109375 55.90625 
L 6.78125 59.421875 
Q 14.015625 73.828125 30.28125 73.828125 
Q 40.578125 73.828125 46.96875 68.65625 
Q 53.375 63.578125 53.375 55.21875 
Q 53.375 47.3125 47.171875 42.28125 
Q 43.171875 39.0625 37.203125 38.1875 
z
" id="IPAexGothic-51"/>
    <path d="M 39.703125 37.890625 
Q 57.8125 31.734375 57.8125 18.703125 
Q 57.8125 8.453125 48.4375 3.078125 
Q 41.609375 -0.875 31.5 -0.875 
Q 21.34375 -0.875 14.5 3.078125 
Q 5.421875 8.296875 5.421875 18.40625 
Q 5.421875 31.0625 22.015625 37.203125 
L 22.015625 37.5 
Q 7.515625 42.71875 7.515625 54.828125 
Q 7.515625 64.0625 15.328125 69.625 
Q 21.96875 74.3125 31.546875 74.3125 
Q 42.234375 74.3125 48.921875 68.796875 
Q 55.515625 63.578125 55.515625 55.71875 
Q 55.515625 42.28125 39.703125 38.1875 
z
M 31.59375 41.015625 
Q 46.828125 44.625 46.828125 55.125 
Q 46.828125 61.1875 41.796875 64.84375 
Q 37.703125 67.921875 31.5 67.921875 
Q 25.09375 67.921875 20.796875 64.5 
Q 16.40625 60.890625 16.40625 55.03125 
Q 16.40625 49.21875 21.09375 45.703125 
Q 23.34375 43.890625 26.90625 42.53125 
Q 31 40.875 31.59375 41.015625 
z
M 30.90625 34.515625 
Q 14.40625 30.171875 14.40625 19 
Q 14.40625 12.109375 20.515625 8.6875 
Q 25.09375 6.109375 31.390625 6.109375 
Q 40.234375 6.109375 45.015625 10.890625 
Q 48.53125 14.40625 48.53125 19.53125 
Q 48.53125 24.90625 43.65625 28.90625 
Q 40.765625 31.15625 36.71875 32.8125 
Q 31.984375 34.71875 30.90625 34.515625 
z
" id="IPAexGothic-56"/>
    <path d="M 46.625 36.8125 
Q 39.75 26.8125 28.328125 26.8125 
Q 19.578125 26.8125 13.234375 32.125 
Q 5.71875 38.421875 5.71875 49.421875 
Q 5.71875 59.578125 12.015625 66.65625 
Q 18.453125 73.828125 29.203125 73.828125 
Q 43.75 73.828125 50.640625 61.71875 
Q 55.609375 52.78125 55.609375 38.625 
Q 55.609375 19.53125 47.515625 9.1875 
Q 39.890625 -0.484375 27.640625 -0.484375 
Q 13.421875 -0.484375 6.109375 10.984375 
L 13.328125 14.890625 
Q 18.0625 6.6875 27.390625 6.6875 
Q 45.65625 6.6875 47.015625 36.8125 
z
M 29.5 66.84375 
Q 22.65625 66.84375 18.3125 61.71875 
Q 14.40625 57.078125 14.40625 50 
Q 14.40625 42.828125 18.109375 38.71875 
Q 22.40625 33.796875 29.78125 33.796875 
Q 37.984375 33.796875 42.625 40.1875 
Q 45.703125 44.484375 45.703125 49.515625 
Q 45.703125 55.515625 42.09375 60.359375 
Q 37.109375 66.84375 29.5 66.84375 
z
" id="IPAexGothic-57"/>
    <path d="M 45.609375 56.890625 
Q 40.046875 66.546875 28.953125 66.546875 
Q 22.703125 66.546875 18.953125 62.640625 
Q 16.0625 59.421875 16.0625 55.21875 
Q 16.0625 50.59375 19.78125 47.609375 
Q 22.5625 45.515625 31 42 
L 34.375 40.578125 
Q 45.703125 36.03125 49.859375 30.515625 
Q 53.46875 25.6875 53.46875 19.671875 
Q 53.46875 10.0625 46.390625 4.5 
Q 39.984375 -0.484375 30.171875 -0.484375 
Q 13.765625 -0.484375 4.890625 11.96875 
L 11.765625 17.1875 
Q 18.796875 7.171875 30.28125 7.171875 
Q 35.75 7.171875 39.59375 9.765625 
Q 44.390625 13.234375 44.390625 19 
Q 44.390625 23.484375 40.875 27 
Q 37.109375 30.609375 27 34.46875 
L 24.078125 35.59375 
Q 7.078125 42.09375 7.078125 54.390625 
Q 7.078125 62.59375 12.59375 67.921875 
Q 18.796875 73.828125 29.109375 73.828125 
Q 44.390625 73.828125 52.484375 61.8125 
z
" id="IPAexGothic-83"/>
    <path d="M 60.40625 64.703125 
L 33.984375 64.703125 
L 33.984375 0.984375 
L 25.09375 0.984375 
L 25.09375 64.703125 
L -0.484375 64.703125 
L -0.484375 72.40625 
L 60.40625 72.40625 
z
" id="IPAexGothic-84"/>
   </defs>
   <g transform="translate(226.577813 14.690625)scale(0.1 -0.1)">
    <use xlink:href="#IPAexGothic-103"/>
    <use x="55.517578" xlink:href="#IPAexGothic-101"/>
    <use x="112.402344" xlink:href="#IPAexGothic-110"/>
    <use x="172.802734" xlink:href="#IPAexGothic-101"/>
    <use x="229.6875" xlink:href="#IPAexGothic-114"/>
    <use x="266.699219" xlink:href="#IPAexGothic-97"/>
    <use x="321.679688" xlink:href="#IPAexGothic-116"/>
    <use x="356.298828" xlink:href="#IPAexGothic-101"/>
    <use x="413.183594" xlink:href="#IPAexGothic-100"/>
    <use x="475.585938" xlink:href="#IPAexGothic-58"/>
    <use x="507.568359" xlink:href="#IPAexGothic-32"/>
    <use x="534.570312" xlink:href="#IPAexGothic-50"/>
    <use x="597.558594" xlink:href="#IPAexGothic-48"/>
    <use x="660.546875" xlink:href="#IPAexGothic-50"/>
    <use x="723.535156" xlink:href="#IPAexGothic-48"/>
    <use x="786.523438" xlink:href="#IPAexGothic-45"/>
    <use x="822.314453" xlink:href="#IPAexGothic-48"/>
    <use x="885.302734" xlink:href="#IPAexGothic-54"/>
    <use x="948.291016" xlink:href="#IPAexGothic-45"/>
    <use x="984.082031" xlink:href="#IPAexGothic-50"/>
    <use x="1047.070312" xlink:href="#IPAexGothic-51"/>
    <use x="1110.058594" xlink:href="#IPAexGothic-32"/>
    <use x="1137.060547" xlink:href="#IPAexGothic-48"/>
    <use x="1200.048828" xlink:href="#IPAexGothic-56"/>
    <use x="1263.037109" xlink:href="#IPAexGothic-58"/>
    <use x="1295.019531" xlink:href="#IPAexGothic-49"/>
    <use x="1358.007812" xlink:href="#IPAexGothic-56"/>
    <use x="1420.996094" xlink:href="#IPAexGothic-58"/>
    <use x="1452.978516" xlink:href="#IPAexGothic-48"/>
    <use x="1515.966797" xlink:href="#IPAexGothic-57"/>
    <use x="1578.955078" xlink:href="#IPAexGothic-32"/>
    <use x="1605.957031" xlink:href="#IPAexGothic-74"/>
    <use x="1643.945312" xlink:href="#IPAexGothic-83"/>
    <use x="1702.441406" xlink:href="#IPAexGothic-84"/>
   </g>
  </g>
 </g>
 <defs>
  <clipPath id="pa144e9d79c">
   <rect height="266.112" width="357.12" x="45.692188" y="18.146625"/>
  </clipPath>
 </defs>
</svg>
