<?xml version="1.0" encoding="utf-8" standalone="no"?>
<!DOCTYPE svg PUBLIC "-//W3C//DTD SVG 1.1//EN"
  "http://www.w3.org/Graphics/SVG/1.1/DTD/svg11.dtd">
<!-- Created with matplotlib (https://matplotlib.org/) -->
<svg height="309.29325pt" version="1.1" viewBox="0 0 416.310625 309.29325" width="416.310625pt" xmlns="http://www.w3.org/2000/svg" xmlns:xlink="http://www.w3.org/1999/xlink">
 <defs>
  <style type="text/css">
*{stroke-linecap:butt;stroke-linejoin:round;}
  </style>
 </defs>
 <g id="figure_1">
  <g id="patch_1">
   <path d="M 0 309.29325 
L 416.310625 309.29325 
L 416.310625 0 
L 0 0 
z
" style="fill:#ffffff;"/>
  </g>
  <g id="axes_1">
   <g id="patch_2">
    <path d="M 51.990625 273.312 
L 409.110625 273.312 
L 409.110625 7.2 
L 51.990625 7.2 
z
" style="fill:#ffffff;"/>
   </g>
   <g id="patch_3">
    <path clip-path="url(#p1900bd85c4)" d="M 68.223352 273.312 
L 72.962835 273.312 
L 72.962835 272.810593 
L 68.223352 272.810593 
z
" style="fill:#ffbb78;"/>
   </g>
   <g id="patch_4">
    <path clip-path="url(#p1900bd85c4)" d="M 74.147705 273.312 
L 78.887188 273.312 
L 78.887188 272.753696 
L 74.147705 272.753696 
z
" style="fill:#ffbb78;"/>
   </g>
   <g id="patch_5">
    <path clip-path="url(#p1900bd85c4)" d="M 85.996411 273.312 
L 90.735894 273.312 
L 90.735894 272.278959 
L 85.996411 272.278959 
z
" style="fill:#ffbb78;"/>
   </g>
   <g id="patch_6">
    <path clip-path="url(#p1900bd85c4)" d="M 91.920764 273.312 
L 96.660247 273.312 
L 96.660247 271.807778 
L 91.920764 271.807778 
z
" style="fill:#ffbb78;"/>
   </g>
   <g id="patch_7">
    <path clip-path="url(#p1900bd85c4)" d="M 97.845117 273.312 
L 102.5846 273.312 
L 102.5846 270.964988 
L 97.845117 270.964988 
z
" style="fill:#ffbb78;"/>
   </g>
   <g id="patch_8">
    <path clip-path="url(#p1900bd85c4)" d="M 103.76947 273.312 
L 108.508953 273.312 
L 108.508953 269.731028 
L 103.76947 269.731028 
z
" style="fill:#ffbb78;"/>
   </g>
   <g id="patch_9">
    <path clip-path="url(#p1900bd85c4)" d="M 109.693823 273.312 
L 114.433306 273.312 
L 114.433306 268.337045 
L 109.693823 268.337045 
z
" style="fill:#ffbb78;"/>
   </g>
   <g id="patch_10">
    <path clip-path="url(#p1900bd85c4)" d="M 115.618176 273.312 
L 120.357659 273.312 
L 120.357659 265.145464 
L 115.618176 265.145464 
z
" style="fill:#ffbb78;"/>
   </g>
   <g id="patch_11">
    <path clip-path="url(#p1900bd85c4)" d="M 121.542529 273.312 
L 126.282012 273.312 
L 126.282012 262.528189 
L 121.542529 262.528189 
z
" style="fill:#ffbb78;"/>
   </g>
   <g id="patch_12">
    <path clip-path="url(#p1900bd85c4)" d="M 127.466882 273.312 
L 132.206365 273.312 
L 132.206365 259.411286 
L 127.466882 259.411286 
z
" style="fill:#ffbb78;"/>
   </g>
   <g id="patch_13">
    <path clip-path="url(#p1900bd85c4)" d="M 133.391235 273.312 
L 138.130718 273.312 
L 138.130718 255.840982 
L 133.391235 255.840982 
z
" style="fill:#ffbb78;"/>
   </g>
   <g id="patch_14">
    <path clip-path="url(#p1900bd85c4)" d="M 139.315589 273.312 
L 144.055071 273.312 
L 144.055071 252.059092 
L 139.315589 252.059092 
z
" style="fill:#ffbb78;"/>
   </g>
   <g id="patch_15">
    <path clip-path="url(#p1900bd85c4)" d="M 145.239942 273.312 
L 149.979424 273.312 
L 149.979424 247.429076 
L 145.239942 247.429076 
z
" style="fill:#ffbb78;"/>
   </g>
   <g id="patch_16">
    <path clip-path="url(#p1900bd85c4)" d="M 151.164295 273.312 
L 155.903777 273.312 
L 155.903777 242.390112 
L 151.164295 242.390112 
z
" style="fill:#ffbb78;"/>
   </g>
   <g id="patch_17">
    <path clip-path="url(#p1900bd85c4)" d="M 157.088648 273.312 
L 161.82813 273.312 
L 161.82813 236.631041 
L 157.088648 236.631041 
z
" style="fill:#ffbb78;"/>
   </g>
   <g id="patch_18">
    <path clip-path="url(#p1900bd85c4)" d="M 163.013001 273.312 
L 167.752483 273.312 
L 167.752483 229.654013 
L 163.013001 229.654013 
z
" style="fill:#ffbb78;"/>
   </g>
   <g id="patch_19">
    <path clip-path="url(#p1900bd85c4)" d="M 168.937354 273.312 
L 173.676836 273.312 
L 173.676836 223.03615 
L 168.937354 223.03615 
z
" style="fill:#ffbb78;"/>
   </g>
   <g id="patch_20">
    <path clip-path="url(#p1900bd85c4)" d="M 174.861707 273.312 
L 179.601189 273.312 
L 179.601189 217.337532 
L 174.861707 217.337532 
z
" style="fill:#ffbb78;"/>
   </g>
   <g id="patch_21">
    <path clip-path="url(#p1900bd85c4)" d="M 180.78606 273.312 
L 185.525542 273.312 
L 185.525542 211.283307 
L 180.78606 211.283307 
z
" style="fill:#ffbb78;"/>
   </g>
   <g id="patch_22">
    <path clip-path="url(#p1900bd85c4)" d="M 186.710413 273.312 
L 191.449895 273.312 
L 191.449895 206.532385 
L 186.710413 206.532385 
z
" style="fill:#ffbb78;"/>
   </g>
   <g id="patch_23">
    <path clip-path="url(#p1900bd85c4)" d="M 192.634766 273.312 
L 197.374248 273.312 
L 197.374248 201.205378 
L 192.634766 201.205378 
z
" style="fill:#ffbb78;"/>
   </g>
   <g id="patch_24">
    <path clip-path="url(#p1900bd85c4)" d="M 198.559119 273.312 
L 203.298601 273.312 
L 203.298601 196.673155 
L 198.559119 196.673155 
z
" style="fill:#ffbb78;"/>
   </g>
   <g id="patch_25">
    <path clip-path="url(#p1900bd85c4)" d="M 204.483472 273.312 
L 209.222954 273.312 
L 209.222954 192.996169 
L 204.483472 192.996169 
z
" style="fill:#ffbb78;"/>
   </g>
   <g id="patch_26">
    <path clip-path="url(#p1900bd85c4)" d="M 210.407825 273.312 
L 215.147307 273.312 
L 215.147307 189.749468 
L 210.407825 189.749468 
z
" style="fill:#ffbb78;"/>
   </g>
   <g id="patch_27">
    <path clip-path="url(#p1900bd85c4)" d="M 216.332178 273.312 
L 221.07166 273.312 
L 221.07166 186.093819 
L 216.332178 186.093819 
z
" style="fill:#ffbb78;"/>
   </g>
   <g id="patch_28">
    <path clip-path="url(#p1900bd85c4)" d="M 222.256531 273.312 
L 226.996013 273.312 
L 226.996013 183.378752 
L 222.256531 183.378752 
z
" style="fill:#ffbb78;"/>
   </g>
   <g id="patch_29">
    <path clip-path="url(#p1900bd85c4)" d="M 228.180884 273.312 
L 232.920366 273.312 
L 232.920366 181.108196 
L 228.180884 181.108196 
z
" style="fill:#ffbb78;"/>
   </g>
   <g id="patch_30">
    <path clip-path="url(#p1900bd85c4)" d="M 234.105237 273.312 
L 238.844719 273.312 
L 238.844719 146.308403 
L 234.105237 146.308403 
z
" style="fill:#ffbb78;"/>
   </g>
   <g id="patch_31">
    <path clip-path="url(#p1900bd85c4)" d="M 240.02959 273.312 
L 244.769072 273.312 
L 244.769072 142.924793 
L 240.02959 142.924793 
z
" style="fill:#ffbb78;"/>
   </g>
   <g id="patch_32">
    <path clip-path="url(#p1900bd85c4)" d="M 245.953943 273.312 
L 250.693425 273.312 
L 250.693425 139.596303 
L 245.953943 139.596303 
z
" style="fill:#ffbb78;"/>
   </g>
   <g id="patch_33">
    <path clip-path="url(#p1900bd85c4)" d="M 251.878296 273.312 
L 256.617778 273.312 
L 256.617778 138.629049 
L 251.878296 138.629049 
z
" style="fill:#ffbb78;"/>
   </g>
   <g id="patch_34">
    <path clip-path="url(#p1900bd85c4)" d="M 257.802649 273.312 
L 262.542131 273.312 
L 262.542131 136.813671 
L 257.802649 136.813671 
z
" style="fill:#ffbb78;"/>
   </g>
   <g id="patch_35">
    <path clip-path="url(#p1900bd85c4)" d="M 263.727002 273.312 
L 268.466484 273.312 
L 268.466484 134.99118 
L 263.727002 134.99118 
z
" style="fill:#ffbb78;"/>
   </g>
   <g id="patch_36">
    <path clip-path="url(#p1900bd85c4)" d="M 269.651355 273.312 
L 274.390837 273.312 
L 274.390837 133.182914 
L 269.651355 133.182914 
z
" style="fill:#ffbb78;"/>
   </g>
   <g id="patch_37">
    <path clip-path="url(#p1900bd85c4)" d="M 275.575708 273.312 
L 280.31519 273.312 
L 280.31519 132.258333 
L 275.575708 132.258333 
z
" style="fill:#ffbb78;"/>
   </g>
   <g id="patch_38">
    <path clip-path="url(#p1900bd85c4)" d="M 281.500061 273.312 
L 286.239543 273.312 
L 286.239543 130.643873 
L 281.500061 130.643873 
z
" style="fill:#ffbb78;"/>
   </g>
   <g id="patch_39">
    <path clip-path="url(#p1900bd85c4)" d="M 287.424414 273.312 
L 292.163896 273.312 
L 292.163896 129.096978 
L 287.424414 129.096978 
z
" style="fill:#ffbb78;"/>
   </g>
   <g id="patch_40">
    <path clip-path="url(#p1900bd85c4)" d="M 293.348767 273.312 
L 298.088249 273.312 
L 298.088249 126.990001 
L 293.348767 126.990001 
z
" style="fill:#ffbb78;"/>
   </g>
   <g id="patch_41">
    <path clip-path="url(#p1900bd85c4)" d="M 299.27312 273.312 
L 304.012602 273.312 
L 304.012602 124.575423 
L 299.27312 124.575423 
z
" style="fill:#ffbb78;"/>
   </g>
   <g id="patch_42">
    <path clip-path="url(#p1900bd85c4)" d="M 305.197473 273.312 
L 309.936955 273.312 
L 309.936955 121.462076 
L 305.197473 121.462076 
z
" style="fill:#ffbb78;"/>
   </g>
   <g id="patch_43">
    <path clip-path="url(#p1900bd85c4)" d="M 311.121826 273.312 
L 315.861308 273.312 
L 315.861308 118.378955 
L 311.121826 118.378955 
z
" style="fill:#ffbb78;"/>
   </g>
   <g id="patch_44">
    <path clip-path="url(#p1900bd85c4)" d="M 317.046179 273.312 
L 321.785661 273.312 
L 321.785661 115.158925 
L 317.046179 115.158925 
z
" style="fill:#ffbb78;"/>
   </g>
   <g id="patch_45">
    <path clip-path="url(#p1900bd85c4)" d="M 322.970532 273.312 
L 327.710015 273.312 
L 327.710015 111.741533 
L 322.970532 111.741533 
z
" style="fill:#ffbb78;"/>
   </g>
   <g id="patch_46">
    <path clip-path="url(#p1900bd85c4)" d="M 328.894885 273.312 
L 333.634368 273.312 
L 333.634368 107.794285 
L 328.894885 107.794285 
z
" style="fill:#ffbb78;"/>
   </g>
   <g id="patch_47">
    <path clip-path="url(#p1900bd85c4)" d="M 334.819238 273.312 
L 339.558721 273.312 
L 339.558721 103.806142 
L 334.819238 103.806142 
z
" style="fill:#ffbb78;"/>
   </g>
   <g id="patch_48">
    <path clip-path="url(#p1900bd85c4)" d="M 340.743591 273.312 
L 345.483074 273.312 
L 345.483074 98.722726 
L 340.743591 98.722726 
z
" style="fill:#ffbb78;"/>
   </g>
   <g id="patch_49">
    <path clip-path="url(#p1900bd85c4)" d="M 346.667944 273.312 
L 351.407427 273.312 
L 351.407427 92.081748 
L 346.667944 92.081748 
z
" style="fill:#ffbb78;"/>
   </g>
   <g id="patch_50">
    <path clip-path="url(#p1900bd85c4)" d="M 352.592297 273.312 
L 357.33178 273.312 
L 357.33178 85.575901 
L 352.592297 85.575901 
z
" style="fill:#ffbb78;"/>
   </g>
   <g id="patch_51">
    <path clip-path="url(#p1900bd85c4)" d="M 358.51665 273.312 
L 363.256133 273.312 
L 363.256133 78.479744 
L 358.51665 78.479744 
z
" style="fill:#ffbb78;"/>
   </g>
   <g id="patch_52">
    <path clip-path="url(#p1900bd85c4)" d="M 364.441003 273.312 
L 369.180486 273.312 
L 369.180486 71.145331 
L 364.441003 71.145331 
z
" style="fill:#ffbb78;"/>
   </g>
   <g id="patch_53">
    <path clip-path="url(#p1900bd85c4)" d="M 370.365356 273.312 
L 375.104839 273.312 
L 375.104839 62.923675 
L 370.365356 62.923675 
z
" style="fill:#ffbb78;"/>
   </g>
   <g id="patch_54">
    <path clip-path="url(#p1900bd85c4)" d="M 376.289709 273.312 
L 381.029192 273.312 
L 381.029192 50.971692 
L 376.289709 50.971692 
z
" style="fill:#ffbb78;"/>
   </g>
   <g id="patch_55">
    <path clip-path="url(#p1900bd85c4)" d="M 382.214062 273.312 
L 386.953545 273.312 
L 386.953545 37.263006 
L 382.214062 37.263006 
z
" style="fill:#ffbb78;"/>
   </g>
   <g id="patch_56">
    <path clip-path="url(#p1900bd85c4)" d="M 388.138415 273.312 
L 392.877898 273.312 
L 392.877898 19.872 
L 388.138415 19.872 
z
" style="fill:#ffbb78;"/>
   </g>
   <g id="patch_57">
    <path clip-path="url(#p1900bd85c4)" d="M 68.223352 273.312 
L 72.962835 273.312 
L 72.962835 272.817705 
L 68.223352 272.817705 
z
" style="fill:#ff7f0e;"/>
   </g>
   <g id="patch_58">
    <path clip-path="url(#p1900bd85c4)" d="M 74.147705 273.312 
L 78.887188 273.312 
L 78.887188 272.762586 
L 74.147705 272.762586 
z
" style="fill:#ff7f0e;"/>
   </g>
   <g id="patch_59">
    <path clip-path="url(#p1900bd85c4)" d="M 85.996411 273.312 
L 90.735894 273.312 
L 90.735894 272.296739 
L 85.996411 272.296739 
z
" style="fill:#ff7f0e;"/>
   </g>
   <g id="patch_60">
    <path clip-path="url(#p1900bd85c4)" d="M 91.920764 273.312 
L 96.660247 273.312 
L 96.660247 271.836227 
L 91.920764 271.836227 
z
" style="fill:#ff7f0e;"/>
   </g>
   <g id="patch_61">
    <path clip-path="url(#p1900bd85c4)" d="M 97.845117 273.312 
L 102.5846 273.312 
L 102.5846 271.005883 
L 97.845117 271.005883 
z
" style="fill:#ff7f0e;"/>
   </g>
   <g id="patch_62">
    <path clip-path="url(#p1900bd85c4)" d="M 103.76947 273.312 
L 108.508953 273.312 
L 108.508953 269.782591 
L 103.76947 269.782591 
z
" style="fill:#ff7f0e;"/>
   </g>
   <g id="patch_63">
    <path clip-path="url(#p1900bd85c4)" d="M 109.693823 273.312 
L 114.433306 273.312 
L 114.433306 268.438393 
L 109.693823 268.438393 
z
" style="fill:#ff7f0e;"/>
   </g>
   <g id="patch_64">
    <path clip-path="url(#p1900bd85c4)" d="M 115.618176 273.312 
L 120.357659 273.312 
L 120.357659 265.245034 
L 115.618176 265.245034 
z
" style="fill:#ff7f0e;"/>
   </g>
   <g id="patch_65">
    <path clip-path="url(#p1900bd85c4)" d="M 121.542529 273.312 
L 126.282012 273.312 
L 126.282012 262.649096 
L 121.542529 262.649096 
z
" style="fill:#ff7f0e;"/>
   </g>
   <g id="patch_66">
    <path clip-path="url(#p1900bd85c4)" d="M 127.466882 273.312 
L 132.206365 273.312 
L 132.206365 259.557085 
L 127.466882 259.557085 
z
" style="fill:#ff7f0e;"/>
   </g>
   <g id="patch_67">
    <path clip-path="url(#p1900bd85c4)" d="M 133.391235 273.312 
L 138.130718 273.312 
L 138.130718 256.029454 
L 133.391235 256.029454 
z
" style="fill:#ff7f0e;"/>
   </g>
   <g id="patch_68">
    <path clip-path="url(#p1900bd85c4)" d="M 139.315589 273.312 
L 144.055071 273.312 
L 144.055071 252.293793 
L 139.315589 252.293793 
z
" style="fill:#ff7f0e;"/>
   </g>
   <g id="patch_69">
    <path clip-path="url(#p1900bd85c4)" d="M 145.239942 273.312 
L 149.979424 273.312 
L 149.979424 247.68867 
L 145.239942 247.68867 
z
" style="fill:#ff7f0e;"/>
   </g>
   <g id="patch_70">
    <path clip-path="url(#p1900bd85c4)" d="M 151.164295 273.312 
L 155.903777 273.312 
L 155.903777 242.662152 
L 151.164295 242.662152 
z
" style="fill:#ff7f0e;"/>
   </g>
   <g id="patch_71">
    <path clip-path="url(#p1900bd85c4)" d="M 157.088648 273.312 
L 161.82813 273.312 
L 161.82813 236.913749 
L 157.088648 236.913749 
z
" style="fill:#ff7f0e;"/>
   </g>
   <g id="patch_72">
    <path clip-path="url(#p1900bd85c4)" d="M 163.013001 273.312 
L 167.752483 273.312 
L 167.752483 229.993619 
L 163.013001 229.993619 
z
" style="fill:#ff7f0e;"/>
   </g>
   <g id="patch_73">
    <path clip-path="url(#p1900bd85c4)" d="M 168.937354 273.312 
L 173.676836 273.312 
L 173.676836 223.420206 
L 168.937354 223.420206 
z
" style="fill:#ff7f0e;"/>
   </g>
   <g id="patch_74">
    <path clip-path="url(#p1900bd85c4)" d="M 174.861707 273.312 
L 179.601189 273.312 
L 179.601189 217.817603 
L 174.861707 217.817603 
z
" style="fill:#ff7f0e;"/>
   </g>
   <g id="patch_75">
    <path clip-path="url(#p1900bd85c4)" d="M 180.78606 273.312 
L 185.525542 273.312 
L 185.525542 211.795383 
L 180.78606 211.795383 
z
" style="fill:#ff7f0e;"/>
   </g>
   <g id="patch_76">
    <path clip-path="url(#p1900bd85c4)" d="M 186.710413 273.312 
L 191.449895 273.312 
L 191.449895 207.078243 
L 186.710413 207.078243 
z
" style="fill:#ff7f0e;"/>
   </g>
   <g id="patch_77">
    <path clip-path="url(#p1900bd85c4)" d="M 192.634766 273.312 
L 197.374248 273.312 
L 197.374248 201.772573 
L 192.634766 201.772573 
z
" style="fill:#ff7f0e;"/>
   </g>
   <g id="patch_78">
    <path clip-path="url(#p1900bd85c4)" d="M 198.559119 273.312 
L 203.298601 273.312 
L 203.298601 197.375481 
L 198.559119 197.375481 
z
" style="fill:#ff7f0e;"/>
   </g>
   <g id="patch_79">
    <path clip-path="url(#p1900bd85c4)" d="M 204.483472 273.312 
L 209.222954 273.312 
L 209.222954 193.780284 
L 204.483472 193.780284 
z
" style="fill:#ff7f0e;"/>
   </g>
   <g id="patch_80">
    <path clip-path="url(#p1900bd85c4)" d="M 210.407825 273.312 
L 215.147307 273.312 
L 215.147307 190.544252 
L 210.407825 190.544252 
z
" style="fill:#ff7f0e;"/>
   </g>
   <g id="patch_81">
    <path clip-path="url(#p1900bd85c4)" d="M 216.332178 273.312 
L 221.07166 273.312 
L 221.07166 186.991729 
L 216.332178 186.991729 
z
" style="fill:#ff7f0e;"/>
   </g>
   <g id="patch_82">
    <path clip-path="url(#p1900bd85c4)" d="M 222.256531 273.312 
L 226.996013 273.312 
L 226.996013 184.314001 
L 222.256531 184.314001 
z
" style="fill:#ff7f0e;"/>
   </g>
   <g id="patch_83">
    <path clip-path="url(#p1900bd85c4)" d="M 228.180884 273.312 
L 232.920366 273.312 
L 232.920366 182.322597 
L 228.180884 182.322597 
z
" style="fill:#ff7f0e;"/>
   </g>
   <g id="patch_84">
    <path clip-path="url(#p1900bd85c4)" d="M 234.105237 273.312 
L 238.844719 273.312 
L 238.844719 147.720166 
L 234.105237 147.720166 
z
" style="fill:#ff7f0e;"/>
   </g>
   <g id="patch_85">
    <path clip-path="url(#p1900bd85c4)" d="M 240.02959 273.312 
L 244.769072 273.312 
L 244.769072 144.354337 
L 240.02959 144.354337 
z
" style="fill:#ff7f0e;"/>
   </g>
   <g id="patch_86">
    <path clip-path="url(#p1900bd85c4)" d="M 245.953943 273.312 
L 250.693425 273.312 
L 250.693425 141.239212 
L 245.953943 141.239212 
z
" style="fill:#ff7f0e;"/>
   </g>
   <g id="patch_87">
    <path clip-path="url(#p1900bd85c4)" d="M 251.878296 273.312 
L 256.617778 273.312 
L 256.617778 140.536886 
L 251.878296 140.536886 
z
" style="fill:#ff7f0e;"/>
   </g>
   <g id="patch_88">
    <path clip-path="url(#p1900bd85c4)" d="M 257.802649 273.312 
L 262.542131 273.312 
L 262.542131 138.947318 
L 257.802649 138.947318 
z
" style="fill:#ff7f0e;"/>
   </g>
   <g id="patch_89">
    <path clip-path="url(#p1900bd85c4)" d="M 263.727002 273.312 
L 268.466484 273.312 
L 268.466484 137.483992 
L 263.727002 137.483992 
z
" style="fill:#ff7f0e;"/>
   </g>
   <g id="patch_90">
    <path clip-path="url(#p1900bd85c4)" d="M 269.651355 273.312 
L 274.390837 273.312 
L 274.390837 136.328266 
L 269.651355 136.328266 
z
" style="fill:#ff7f0e;"/>
   </g>
   <g id="patch_91">
    <path clip-path="url(#p1900bd85c4)" d="M 275.575708 273.312 
L 280.31519 273.312 
L 280.31519 135.937097 
L 275.575708 135.937097 
z
" style="fill:#ff7f0e;"/>
   </g>
   <g id="patch_92">
    <path clip-path="url(#p1900bd85c4)" d="M 281.500061 273.312 
L 286.239543 273.312 
L 286.239543 135.016073 
L 281.500061 135.016073 
z
" style="fill:#ff7f0e;"/>
   </g>
   <g id="patch_93">
    <path clip-path="url(#p1900bd85c4)" d="M 287.424414 273.312 
L 292.163896 273.312 
L 292.163896 134.285298 
L 287.424414 134.285298 
z
" style="fill:#ff7f0e;"/>
   </g>
   <g id="patch_94">
    <path clip-path="url(#p1900bd85c4)" d="M 293.348767 273.312 
L 298.088249 273.312 
L 298.088249 133.504739 
L 293.348767 133.504739 
z
" style="fill:#ff7f0e;"/>
   </g>
   <g id="patch_95">
    <path clip-path="url(#p1900bd85c4)" d="M 299.27312 273.312 
L 304.012602 273.312 
L 304.012602 132.916208 
L 299.27312 132.916208 
z
" style="fill:#ff7f0e;"/>
   </g>
   <g id="patch_96">
    <path clip-path="url(#p1900bd85c4)" d="M 305.197473 273.312 
L 309.936955 273.312 
L 309.936955 132.146317 
L 305.197473 132.146317 
z
" style="fill:#ff7f0e;"/>
   </g>
   <g id="patch_97">
    <path clip-path="url(#p1900bd85c4)" d="M 311.121826 273.312 
L 315.861308 273.312 
L 315.861308 131.125722 
L 311.121826 131.125722 
z
" style="fill:#ff7f0e;"/>
   </g>
   <g id="patch_98">
    <path clip-path="url(#p1900bd85c4)" d="M 317.046179 273.312 
L 321.785661 273.312 
L 321.785661 130.759446 
L 317.046179 130.759446 
z
" style="fill:#ff7f0e;"/>
   </g>
   <g id="patch_99">
    <path clip-path="url(#p1900bd85c4)" d="M 322.970532 273.312 
L 327.710015 273.312 
L 327.710015 130.5283 
L 322.970532 130.5283 
z
" style="fill:#ff7f0e;"/>
   </g>
   <g id="patch_100">
    <path clip-path="url(#p1900bd85c4)" d="M 328.894885 273.312 
L 333.634368 273.312 
L 333.634368 130.318492 
L 328.894885 130.318492 
z
" style="fill:#ff7f0e;"/>
   </g>
   <g id="patch_101">
    <path clip-path="url(#p1900bd85c4)" d="M 334.819238 273.312 
L 339.558721 273.312 
L 339.558721 130.064232 
L 334.819238 130.064232 
z
" style="fill:#ff7f0e;"/>
   </g>
   <g id="patch_102">
    <path clip-path="url(#p1900bd85c4)" d="M 340.743591 273.312 
L 345.483074 273.312 
L 345.483074 129.804638 
L 340.743591 129.804638 
z
" style="fill:#ff7f0e;"/>
   </g>
   <g id="patch_103">
    <path clip-path="url(#p1900bd85c4)" d="M 346.667944 273.312 
L 351.407427 273.312 
L 351.407427 129.623278 
L 346.667944 129.623278 
z
" style="fill:#ff7f0e;"/>
   </g>
   <g id="patch_104">
    <path clip-path="url(#p1900bd85c4)" d="M 352.592297 273.312 
L 357.33178 273.312 
L 357.33178 129.541488 
L 352.592297 129.541488 
z
" style="fill:#ff7f0e;"/>
   </g>
   <g id="patch_105">
    <path clip-path="url(#p1900bd85c4)" d="M 358.51665 273.312 
L 363.256133 273.312 
L 363.256133 129.461477 
L 358.51665 129.461477 
z
" style="fill:#ff7f0e;"/>
   </g>
   <g id="patch_106">
    <path clip-path="url(#p1900bd85c4)" d="M 364.441003 273.312 
L 369.180486 273.312 
L 369.180486 129.425916 
L 364.441003 129.425916 
z
" style="fill:#ff7f0e;"/>
   </g>
   <g id="patch_107">
    <path clip-path="url(#p1900bd85c4)" d="M 370.365356 273.312 
L 375.104839 273.312 
L 375.104839 129.370797 
L 370.365356 129.370797 
z
" style="fill:#ff7f0e;"/>
   </g>
   <g id="patch_108">
    <path clip-path="url(#p1900bd85c4)" d="M 376.289709 273.312 
L 381.029192 273.312 
L 381.029192 129.324568 
L 376.289709 129.324568 
z
" style="fill:#ff7f0e;"/>
   </g>
   <g id="patch_109">
    <path clip-path="url(#p1900bd85c4)" d="M 382.214062 273.312 
L 386.953545 273.312 
L 386.953545 129.306787 
L 382.214062 129.306787 
z
" style="fill:#ff7f0e;"/>
   </g>
   <g id="patch_110">
    <path clip-path="url(#p1900bd85c4)" d="M 388.138415 273.312 
L 392.877898 273.312 
L 392.877898 129.253446 
L 388.138415 129.253446 
z
" style="fill:#ff7f0e;"/>
   </g>
   <g id="patch_111">
    <path clip-path="url(#p1900bd85c4)" d="M 68.223352 273.312 
L 72.962835 273.312 
L 72.962835 273.301332 
L 68.223352 273.301332 
z
" style="fill:#d62728;"/>
   </g>
   <g id="patch_112">
    <path clip-path="url(#p1900bd85c4)" d="M 74.147705 273.312 
L 78.887188 273.312 
L 78.887188 273.301332 
L 74.147705 273.301332 
z
" style="fill:#d62728;"/>
   </g>
   <g id="patch_113">
    <path clip-path="url(#p1900bd85c4)" d="M 85.996411 273.312 
L 90.735894 273.312 
L 90.735894 273.281773 
L 85.996411 273.281773 
z
" style="fill:#d62728;"/>
   </g>
   <g id="patch_114">
    <path clip-path="url(#p1900bd85c4)" d="M 91.920764 273.312 
L 96.660247 273.312 
L 96.660247 273.267549 
L 91.920764 273.267549 
z
" style="fill:#d62728;"/>
   </g>
   <g id="patch_115">
    <path clip-path="url(#p1900bd85c4)" d="M 97.845117 273.312 
L 102.5846 273.312 
L 102.5846 273.2391 
L 97.845117 273.2391 
z
" style="fill:#d62728;"/>
   </g>
   <g id="patch_116">
    <path clip-path="url(#p1900bd85c4)" d="M 103.76947 273.312 
L 108.508953 273.312 
L 108.508953 273.21243 
L 103.76947 273.21243 
z
" style="fill:#d62728;"/>
   </g>
   <g id="patch_117">
    <path clip-path="url(#p1900bd85c4)" d="M 109.693823 273.312 
L 114.433306 273.312 
L 114.433306 273.169757 
L 109.693823 273.169757 
z
" style="fill:#d62728;"/>
   </g>
   <g id="patch_118">
    <path clip-path="url(#p1900bd85c4)" d="M 115.618176 273.312 
L 120.357659 273.312 
L 120.357659 273.123528 
L 115.618176 273.123528 
z
" style="fill:#d62728;"/>
   </g>
   <g id="patch_119">
    <path clip-path="url(#p1900bd85c4)" d="M 121.542529 273.312 
L 126.282012 273.312 
L 126.282012 273.077299 
L 121.542529 273.077299 
z
" style="fill:#d62728;"/>
   </g>
   <g id="patch_120">
    <path clip-path="url(#p1900bd85c4)" d="M 127.466882 273.312 
L 132.206365 273.312 
L 132.206365 273.009733 
L 127.466882 273.009733 
z
" style="fill:#d62728;"/>
   </g>
   <g id="patch_121">
    <path clip-path="url(#p1900bd85c4)" d="M 133.391235 273.312 
L 138.130718 273.312 
L 138.130718 272.933278 
L 133.391235 272.933278 
z
" style="fill:#d62728;"/>
   </g>
   <g id="patch_122">
    <path clip-path="url(#p1900bd85c4)" d="M 139.315589 273.312 
L 144.055071 273.312 
L 144.055071 272.851488 
L 139.315589 272.851488 
z
" style="fill:#d62728;"/>
   </g>
   <g id="patch_123">
    <path clip-path="url(#p1900bd85c4)" d="M 145.239942 273.312 
L 149.979424 273.312 
L 149.979424 272.769698 
L 145.239942 272.769698 
z
" style="fill:#d62728;"/>
   </g>
   <g id="patch_124">
    <path clip-path="url(#p1900bd85c4)" d="M 151.164295 273.312 
L 155.903777 273.312 
L 155.903777 272.66835 
L 151.164295 272.66835 
z
" style="fill:#d62728;"/>
   </g>
   <g id="patch_125">
    <path clip-path="url(#p1900bd85c4)" d="M 157.088648 273.312 
L 161.82813 273.312 
L 161.82813 272.554555 
L 157.088648 272.554555 
z
" style="fill:#d62728;"/>
   </g>
   <g id="patch_126">
    <path clip-path="url(#p1900bd85c4)" d="M 163.013001 273.312 
L 167.752483 273.312 
L 167.752483 272.437204 
L 163.013001 272.437204 
z
" style="fill:#d62728;"/>
   </g>
   <g id="patch_127">
    <path clip-path="url(#p1900bd85c4)" d="M 168.937354 273.312 
L 173.676836 273.312 
L 173.676836 272.307408 
L 168.937354 272.307408 
z
" style="fill:#d62728;"/>
   </g>
   <g id="patch_128">
    <path clip-path="url(#p1900bd85c4)" d="M 174.861707 273.312 
L 179.601189 273.312 
L 179.601189 272.177611 
L 174.861707 272.177611 
z
" style="fill:#d62728;"/>
   </g>
   <g id="patch_129">
    <path clip-path="url(#p1900bd85c4)" d="M 180.78606 273.312 
L 185.525542 273.312 
L 185.525542 272.024699 
L 180.78606 272.024699 
z
" style="fill:#d62728;"/>
   </g>
   <g id="patch_130">
    <path clip-path="url(#p1900bd85c4)" d="M 186.710413 273.312 
L 191.449895 273.312 
L 191.449895 271.866454 
L 186.710413 271.866454 
z
" style="fill:#d62728;"/>
   </g>
   <g id="patch_131">
    <path clip-path="url(#p1900bd85c4)" d="M 192.634766 273.312 
L 197.374248 273.312 
L 197.374248 271.693984 
L 192.634766 271.693984 
z
" style="fill:#d62728;"/>
   </g>
   <g id="patch_132">
    <path clip-path="url(#p1900bd85c4)" d="M 198.559119 273.312 
L 203.298601 273.312 
L 203.298601 271.501956 
L 198.559119 271.501956 
z
" style="fill:#d62728;"/>
   </g>
   <g id="patch_133">
    <path clip-path="url(#p1900bd85c4)" d="M 204.483472 273.312 
L 209.222954 273.312 
L 209.222954 271.329486 
L 204.483472 271.329486 
z
" style="fill:#d62728;"/>
   </g>
   <g id="patch_134">
    <path clip-path="url(#p1900bd85c4)" d="M 210.407825 273.312 
L 215.147307 273.312 
L 215.147307 270.877864 
L 210.407825 270.877864 
z
" style="fill:#d62728;"/>
   </g>
   <g id="patch_135">
    <path clip-path="url(#p1900bd85c4)" d="M 216.332178 273.312 
L 221.07166 273.312 
L 221.07166 270.852971 
L 216.332178 270.852971 
z
" style="fill:#d62728;"/>
   </g>
   <g id="patch_136">
    <path clip-path="url(#p1900bd85c4)" d="M 222.256531 273.312 
L 226.996013 273.312 
L 226.996013 270.598711 
L 222.256531 270.598711 
z
" style="fill:#d62728;"/>
   </g>
   <g id="patch_137">
    <path clip-path="url(#p1900bd85c4)" d="M 228.180884 273.312 
L 232.920366 273.312 
L 232.920366 270.344452 
L 228.180884 270.344452 
z
" style="fill:#d62728;"/>
   </g>
   <g id="patch_138">
    <path clip-path="url(#p1900bd85c4)" d="M 234.105237 273.312 
L 238.844719 273.312 
L 238.844719 270.15598 
L 234.105237 270.15598 
z
" style="fill:#d62728;"/>
   </g>
   <g id="patch_139">
    <path clip-path="url(#p1900bd85c4)" d="M 240.02959 273.312 
L 244.769072 273.312 
L 244.769072 269.981732 
L 240.02959 269.981732 
z
" style="fill:#d62728;"/>
   </g>
   <g id="patch_140">
    <path clip-path="url(#p1900bd85c4)" d="M 245.953943 273.312 
L 250.693425 273.312 
L 250.693425 269.739918 
L 245.953943 269.739918 
z
" style="fill:#d62728;"/>
   </g>
   <g id="patch_141">
    <path clip-path="url(#p1900bd85c4)" d="M 251.878296 273.312 
L 256.617778 273.312 
L 256.617778 269.526553 
L 251.878296 269.526553 
z
" style="fill:#d62728;"/>
   </g>
   <g id="patch_142">
    <path clip-path="url(#p1900bd85c4)" d="M 257.802649 273.312 
L 262.542131 273.312 
L 262.542131 269.316745 
L 257.802649 269.316745 
z
" style="fill:#d62728;"/>
   </g>
   <g id="patch_143">
    <path clip-path="url(#p1900bd85c4)" d="M 263.727002 273.312 
L 268.466484 273.312 
L 268.466484 269.117604 
L 263.727002 269.117604 
z
" style="fill:#d62728;"/>
   </g>
   <g id="patch_144">
    <path clip-path="url(#p1900bd85c4)" d="M 269.651355 273.312 
L 274.390837 273.312 
L 274.390837 268.934466 
L 269.651355 268.934466 
z
" style="fill:#d62728;"/>
   </g>
   <g id="patch_145">
    <path clip-path="url(#p1900bd85c4)" d="M 275.575708 273.312 
L 280.31519 273.312 
L 280.31519 268.657092 
L 275.575708 268.657092 
z
" style="fill:#d62728;"/>
   </g>
   <g id="patch_146">
    <path clip-path="url(#p1900bd85c4)" d="M 281.500061 273.312 
L 286.239543 273.312 
L 286.239543 268.511293 
L 281.500061 268.511293 
z
" style="fill:#d62728;"/>
   </g>
   <g id="patch_147">
    <path clip-path="url(#p1900bd85c4)" d="M 287.424414 273.312 
L 292.163896 273.312 
L 292.163896 268.402832 
L 287.424414 268.402832 
z
" style="fill:#d62728;"/>
   </g>
   <g id="patch_148">
    <path clip-path="url(#p1900bd85c4)" d="M 293.348767 273.312 
L 298.088249 273.312 
L 298.088249 268.326377 
L 293.348767 268.326377 
z
" style="fill:#d62728;"/>
   </g>
   <g id="patch_149">
    <path clip-path="url(#p1900bd85c4)" d="M 299.27312 273.312 
L 304.012602 273.312 
L 304.012602 268.230363 
L 299.27312 268.230363 
z
" style="fill:#d62728;"/>
   </g>
   <g id="patch_150">
    <path clip-path="url(#p1900bd85c4)" d="M 305.197473 273.312 
L 309.936955 273.312 
L 309.936955 268.113012 
L 305.197473 268.113012 
z
" style="fill:#d62728;"/>
   </g>
   <g id="patch_151">
    <path clip-path="url(#p1900bd85c4)" d="M 311.121826 273.312 
L 315.861308 273.312 
L 315.861308 268.018776 
L 311.121826 268.018776 
z
" style="fill:#d62728;"/>
   </g>
   <g id="patch_152">
    <path clip-path="url(#p1900bd85c4)" d="M 317.046179 273.312 
L 321.785661 273.312 
L 321.785661 267.901425 
L 317.046179 267.901425 
z
" style="fill:#d62728;"/>
   </g>
   <g id="patch_153">
    <path clip-path="url(#p1900bd85c4)" d="M 322.970532 273.312 
L 327.710015 273.312 
L 327.710015 267.77874 
L 322.970532 267.77874 
z
" style="fill:#d62728;"/>
   </g>
   <g id="patch_154">
    <path clip-path="url(#p1900bd85c4)" d="M 328.894885 273.312 
L 333.634368 273.312 
L 333.634368 267.625829 
L 328.894885 267.625829 
z
" style="fill:#d62728;"/>
   </g>
   <g id="patch_155">
    <path clip-path="url(#p1900bd85c4)" d="M 334.819238 273.312 
L 339.558721 273.312 
L 339.558721 267.476474 
L 334.819238 267.476474 
z
" style="fill:#d62728;"/>
   </g>
   <g id="patch_156">
    <path clip-path="url(#p1900bd85c4)" d="M 340.743591 273.312 
L 345.483074 273.312 
L 345.483074 267.302226 
L 340.743591 267.302226 
z
" style="fill:#d62728;"/>
   </g>
   <g id="patch_157">
    <path clip-path="url(#p1900bd85c4)" d="M 346.667944 273.312 
L 351.407427 273.312 
L 351.407427 267.113754 
L 346.667944 267.113754 
z
" style="fill:#d62728;"/>
   </g>
   <g id="patch_158">
    <path clip-path="url(#p1900bd85c4)" d="M 352.592297 273.312 
L 357.33178 273.312 
L 357.33178 266.939506 
L 352.592297 266.939506 
z
" style="fill:#d62728;"/>
   </g>
   <g id="patch_159">
    <path clip-path="url(#p1900bd85c4)" d="M 358.51665 273.312 
L 363.256133 273.312 
L 363.256133 266.539447 
L 358.51665 266.539447 
z
" style="fill:#d62728;"/>
   </g>
   <g id="patch_160">
    <path clip-path="url(#p1900bd85c4)" d="M 364.441003 273.312 
L 369.180486 273.312 
L 369.180486 266.178505 
L 364.441003 266.178505 
z
" style="fill:#d62728;"/>
   </g>
   <g id="patch_161">
    <path clip-path="url(#p1900bd85c4)" d="M 370.365356 273.312 
L 375.104839 273.312 
L 375.104839 265.680654 
L 370.365356 265.680654 
z
" style="fill:#d62728;"/>
   </g>
   <g id="patch_162">
    <path clip-path="url(#p1900bd85c4)" d="M 376.289709 273.312 
L 381.029192 273.312 
L 381.029192 265.109903 
L 376.289709 265.109903 
z
" style="fill:#d62728;"/>
   </g>
   <g id="patch_163">
    <path clip-path="url(#p1900bd85c4)" d="M 382.214062 273.312 
L 386.953545 273.312 
L 386.953545 264.501813 
L 382.214062 264.501813 
z
" style="fill:#d62728;"/>
   </g>
   <g id="patch_164">
    <path clip-path="url(#p1900bd85c4)" d="M 388.138415 273.312 
L 392.877898 273.312 
L 392.877898 263.723032 
L 388.138415 263.723032 
z
" style="fill:#d62728;"/>
   </g>
   <g id="matplotlib.axis_1">
    <g id="xtick_1">
     <g id="line2d_1">
      <defs>
       <path d="M 0 0 
L 0 3.5 
" id="m84756e17dc" style="stroke:#000000;stroke-width:0.8;"/>
      </defs>
      <g>
       <use style="stroke:#000000;stroke-width:0.8;" x="82.4418" xlink:href="#m84756e17dc" y="273.312"/>
      </g>
     </g>
     <g id="text_1">
      <!-- 22 -->
      <defs>
       <path d="M 57.171875 0.984375 
L 6.984375 0.984375 
L 6.984375 9.28125 
Q 12.890625 23.046875 29.59375 34.421875 
L 32.375 36.28125 
Q 40.921875 42.140625 43.609375 45.40625 
Q 46.6875 49.265625 46.6875 53.8125 
Q 46.6875 58.9375 43.0625 62.546875 
Q 39.0625 66.546875 32.5625 66.546875 
Q 19.53125 66.546875 15.484375 52 
L 7.765625 54.78125 
Q 13.328125 73.828125 33.0625 73.828125 
Q 43.84375 73.828125 50.25 67.4375 
Q 55.859375 61.671875 55.859375 53.515625 
Q 55.859375 47.46875 52.25 42.53125 
Q 48.921875 37.75 36.96875 30.28125 
L 34.859375 29 
Q 19.625 19.578125 15.28125 8.890625 
L 57.171875 8.890625 
z
" id="IPAexGothic-50"/>
      </defs>
      <g transform="translate(76.143362 287.802625)scale(0.1 -0.1)">
       <use xlink:href="#IPAexGothic-50"/>
       <use x="62.988281" xlink:href="#IPAexGothic-50"/>
      </g>
     </g>
    </g>
    <g id="xtick_2">
     <g id="line2d_2">
      <g>
       <use style="stroke:#000000;stroke-width:0.8;" x="141.68533" xlink:href="#m84756e17dc" y="273.312"/>
      </g>
     </g>
     <g id="text_2">
      <!-- Feb -->
      <defs>
       <path d="M 54.203125 64.703125 
L 18.3125 64.703125 
L 18.3125 41.5 
L 50.09375 41.5 
L 50.09375 34.1875 
L 18.3125 34.1875 
L 18.3125 0.984375 
L 9.515625 0.984375 
L 9.515625 72.40625 
L 54.203125 72.40625 
z
" id="IPAexGothic-70"/>
       <path d="M 13.484375 24.90625 
Q 13.921875 16.265625 18.890625 11.28125 
Q 23.96875 6.203125 31.203125 6.203125 
Q 40.71875 6.203125 46.296875 15.09375 
L 51.90625 11.375 
Q 44.828125 -0.484375 30.171875 -0.484375 
Q 19.09375 -0.484375 11.96875 6.59375 
Q 4.78125 13.8125 4.78125 25.640625 
Q 4.78125 38.1875 12.3125 45.703125 
Q 19 52.390625 29 52.390625 
Q 38.421875 52.390625 44.78125 46.1875 
Q 51.90625 38.96875 51.90625 26.90625 
L 51.90625 24.90625 
z
M 43.0625 31.203125 
Q 42.328125 37.984375 38.28125 41.890625 
Q 34.28125 45.90625 28.8125 45.90625 
Q 22.46875 45.90625 17.96875 40.484375 
Q 14.890625 36.8125 13.96875 31.203125 
z
" id="IPAexGothic-101"/>
       <path d="M 17.578125 42.671875 
Q 24.21875 52.203125 34.671875 52.203125 
Q 43.5625 52.203125 49.859375 45.90625 
Q 57.171875 38.578125 57.171875 25.6875 
Q 57.171875 13.09375 49.859375 5.8125 
Q 43.5625 -0.484375 34.46875 -0.484375 
Q 24.359375 -0.484375 17 8.0625 
L 15.765625 0.6875 
L 9.078125 0.6875 
L 9.078125 74.90625 
L 17.578125 74.90625 
z
M 17.578125 31.203125 
L 17.578125 19.578125 
Q 17.578125 13.875 23.875 9.375 
Q 28.171875 6.296875 33.109375 6.296875 
Q 38.875 6.296875 42.875 10.296875 
Q 48.1875 15.765625 48.1875 25.484375 
Q 48.1875 34.28125 43.796875 39.890625 
Q 39.453125 45.3125 33.203125 45.3125 
Q 27.484375 45.3125 22.46875 40.28125 
Q 17.578125 35.40625 17.578125 31.203125 
z
" id="IPAexGothic-98"/>
      </defs>
      <g transform="translate(132.861892 287.802625)scale(0.1 -0.1)">
       <use xlink:href="#IPAexGothic-70"/>
       <use x="57.177734" xlink:href="#IPAexGothic-101"/>
       <use x="114.0625" xlink:href="#IPAexGothic-98"/>
      </g>
     </g>
    </g>
    <g id="xtick_3">
     <g id="line2d_3">
      <g>
       <use style="stroke:#000000;stroke-width:0.8;" x="183.155801" xlink:href="#m84756e17dc" y="273.312"/>
      </g>
     </g>
     <g id="text_3">
      <!-- 08 -->
      <defs>
       <path d="M 31.84375 73.828125 
Q 45.015625 73.828125 52.09375 61.625 
Q 57.71875 51.953125 57.71875 36.625 
Q 57.71875 21.4375 52.09375 11.578125 
Q 45.125 -0.484375 31.5 -0.484375 
Q 17.921875 -0.484375 10.9375 11.578125 
Q 5.328125 21.4375 5.328125 36.71875 
Q 5.328125 58.015625 15.625 67.71875 
Q 22.171875 73.828125 31.84375 73.828125 
z
M 31.5 66.65625 
Q 23.6875 66.65625 19.1875 58.734375 
Q 14.59375 50.734375 14.59375 36.625 
Q 14.59375 22.75 19.09375 14.796875 
Q 23.640625 6.984375 31.5 6.984375 
Q 40.921875 6.984375 45.453125 18.015625 
Q 48.4375 25.34375 48.4375 37.109375 
Q 48.4375 50.875 43.84375 58.734375 
Q 39.203125 66.65625 31.5 66.65625 
z
" id="IPAexGothic-48"/>
       <path d="M 39.703125 37.890625 
Q 57.8125 31.734375 57.8125 18.703125 
Q 57.8125 8.453125 48.4375 3.078125 
Q 41.609375 -0.875 31.5 -0.875 
Q 21.34375 -0.875 14.5 3.078125 
Q 5.421875 8.296875 5.421875 18.40625 
Q 5.421875 31.0625 22.015625 37.203125 
L 22.015625 37.5 
Q 7.515625 42.71875 7.515625 54.828125 
Q 7.515625 64.0625 15.328125 69.625 
Q 21.96875 74.3125 31.546875 74.3125 
Q 42.234375 74.3125 48.921875 68.796875 
Q 55.515625 63.578125 55.515625 55.71875 
Q 55.515625 42.28125 39.703125 38.1875 
z
M 31.59375 41.015625 
Q 46.828125 44.625 46.828125 55.125 
Q 46.828125 61.1875 41.796875 64.84375 
Q 37.703125 67.921875 31.5 67.921875 
Q 25.09375 67.921875 20.796875 64.5 
Q 16.40625 60.890625 16.40625 55.03125 
Q 16.40625 49.21875 21.09375 45.703125 
Q 23.34375 43.890625 26.90625 42.53125 
Q 31 40.875 31.59375 41.015625 
z
M 30.90625 34.515625 
Q 14.40625 30.171875 14.40625 19 
Q 14.40625 12.109375 20.515625 8.6875 
Q 25.09375 6.109375 31.390625 6.109375 
Q 40.234375 6.109375 45.015625 10.890625 
Q 48.53125 14.40625 48.53125 19.53125 
Q 48.53125 24.90625 43.65625 28.90625 
Q 40.765625 31.15625 36.71875 32.8125 
Q 31.984375 34.71875 30.90625 34.515625 
z
" id="IPAexGothic-56"/>
      </defs>
      <g transform="translate(176.857363 287.802625)scale(0.1 -0.1)">
       <use xlink:href="#IPAexGothic-48"/>
       <use x="62.988281" xlink:href="#IPAexGothic-56"/>
      </g>
     </g>
    </g>
    <g id="xtick_4">
     <g id="line2d_4">
      <g>
       <use style="stroke:#000000;stroke-width:0.8;" x="224.626272" xlink:href="#m84756e17dc" y="273.312"/>
      </g>
     </g>
     <g id="text_4">
      <!-- 15 -->
      <defs>
       <path d="M 38.484375 0.984375 
L 29.6875 0.984375 
L 29.6875 64.109375 
Q 21.4375 61.28125 12.3125 59.328125 
L 10.6875 66.109375 
Q 23.734375 69.390625 32.90625 73.921875 
L 38.484375 73.921875 
z
" id="IPAexGothic-49"/>
       <path d="M 18.40625 40.671875 
Q 25.53125 46.296875 33.9375 46.296875 
Q 44 46.296875 50.640625 39.5 
Q 56.84375 33.015625 56.84375 23.390625 
Q 56.84375 14.65625 51.515625 8.015625 
Q 44.828125 -0.484375 31.734375 -0.484375 
Q 14.984375 -0.484375 7.328125 12.25 
L 14.65625 16.0625 
Q 20.453125 6.78125 31.453125 6.78125 
Q 38.53125 6.78125 43.265625 11.1875 
Q 48.140625 15.828125 48.140625 23.484375 
Q 48.140625 30.71875 43.84375 35.015625 
Q 39.359375 39.5 32.125 39.5 
Q 21.96875 39.5 16.75 31.6875 
L 9.234375 32.671875 
L 13.8125 72.40625 
L 53.21875 72.40625 
L 53.21875 64.890625 
L 20.953125 64.890625 
L 17.71875 40.671875 
z
" id="IPAexGothic-53"/>
      </defs>
      <g transform="translate(218.327834 287.802625)scale(0.1 -0.1)">
       <use xlink:href="#IPAexGothic-49"/>
       <use x="62.988281" xlink:href="#IPAexGothic-53"/>
      </g>
     </g>
    </g>
    <g id="xtick_5">
     <g id="line2d_5">
      <g>
       <use style="stroke:#000000;stroke-width:0.8;" x="266.096743" xlink:href="#m84756e17dc" y="273.312"/>
      </g>
     </g>
     <g id="text_5">
      <!-- 22 -->
      <g transform="translate(259.798306 287.802625)scale(0.1 -0.1)">
       <use xlink:href="#IPAexGothic-50"/>
       <use x="62.988281" xlink:href="#IPAexGothic-50"/>
      </g>
     </g>
    </g>
    <g id="xtick_6">
     <g id="line2d_6">
      <g>
       <use style="stroke:#000000;stroke-width:0.8;" x="313.491567" xlink:href="#m84756e17dc" y="273.312"/>
      </g>
     </g>
     <g id="text_6">
      <!-- Mar -->
      <defs>
       <path d="M 80.421875 0.984375 
L 71.828125 0.984375 
L 71.828125 39.59375 
Q 71.828125 51.265625 72.40625 64.59375 
L 72.015625 64.59375 
Q 68.0625 53.265625 63.53125 41.796875 
L 47.90625 3.265625 
L 41.40625 3.265625 
L 25.640625 42.578125 
Q 20.75 54.78125 17.625 64.703125 
L 17.234375 64.703125 
Q 17.828125 48.921875 17.828125 39.890625 
L 17.828125 0.984375 
L 9.515625 0.984375 
L 9.515625 72.40625 
L 22.125 72.40625 
L 39.109375 30.375 
Q 42.140625 23 44.828125 14.15625 
L 45.125 14.15625 
Q 47.3125 22.125 50.53125 30.171875 
L 67.4375 72.40625 
L 80.421875 72.40625 
z
" id="IPAexGothic-77"/>
       <path d="M 49.3125 0.984375 
L 41.75 0.984375 
Q 39.984375 4.734375 39.546875 8.6875 
L 39.203125 8.6875 
Q 33.546875 -0.390625 22.3125 -0.390625 
Q 14.59375 -0.390625 9.71875 4.5 
Q 5.421875 8.796875 5.421875 14.984375 
Q 5.421875 30.421875 32.03125 31.203125 
L 38.71875 31.390625 
L 38.71875 33.984375 
Q 38.71875 39.203125 35.75 42.1875 
Q 32.625 45.3125 27.734375 45.3125 
Q 19.34375 45.3125 15.140625 37.15625 
L 7.71875 40.578125 
Q 14.65625 52 27.9375 52 
Q 37.109375 52 42.046875 46.875 
Q 46.625 42.28125 46.625 33.890625 
L 46.625 15.578125 
Q 46.625 6.25 49.3125 0.984375 
z
M 38.921875 25.390625 
L 33.453125 25.296875 
Q 14.109375 24.859375 14.109375 14.890625 
Q 14.109375 11.375 16.40625 9.078125 
Q 19.234375 6.296875 23.828125 6.296875 
Q 30.21875 6.296875 34.90625 10.984375 
Q 38.921875 15.140625 38.921875 21 
z
" id="IPAexGothic-97"/>
       <path d="M 36.078125 51.8125 
L 34.578125 43.265625 
Q 32.90625 43.609375 31.59375 43.609375 
Q 25.828125 43.609375 22.078125 38.1875 
Q 17.390625 31.34375 17.390625 26.171875 
L 17.390625 0.984375 
L 8.796875 0.984375 
L 8.796875 50.78125 
L 16.890625 50.78125 
L 16.5 35.984375 
L 16.703125 35.984375 
Q 22.21875 52.203125 32.765625 52.203125 
Q 34.46875 52.203125 36.078125 51.8125 
z
" id="IPAexGothic-114"/>
      </defs>
      <g transform="translate(304.382192 287.802625)scale(0.1 -0.1)">
       <use xlink:href="#IPAexGothic-77"/>
       <use x="90.185547" xlink:href="#IPAexGothic-97"/>
       <use x="145.166016" xlink:href="#IPAexGothic-114"/>
      </g>
     </g>
    </g>
    <g id="xtick_7">
     <g id="line2d_7">
      <g>
       <use style="stroke:#000000;stroke-width:0.8;" x="354.962038" xlink:href="#m84756e17dc" y="273.312"/>
      </g>
     </g>
     <g id="text_7">
      <!-- 08 -->
      <g transform="translate(348.663601 287.802625)scale(0.1 -0.1)">
       <use xlink:href="#IPAexGothic-48"/>
       <use x="62.988281" xlink:href="#IPAexGothic-56"/>
      </g>
     </g>
    </g>
    <g id="xtick_8">
     <g id="line2d_8">
      <g>
       <use style="stroke:#000000;stroke-width:0.8;" x="396.43251" xlink:href="#m84756e17dc" y="273.312"/>
      </g>
     </g>
     <g id="text_8">
      <!-- 15 -->
      <g transform="translate(390.134072 287.802625)scale(0.1 -0.1)">
       <use xlink:href="#IPAexGothic-49"/>
       <use x="62.988281" xlink:href="#IPAexGothic-53"/>
      </g>
     </g>
    </g>
    <g id="text_9">
     <!-- 2020-Mar -->
     <defs>
      <path d="M 30.765625 26.609375 
L 4.984375 26.609375 
L 4.984375 34.421875 
L 30.765625 34.421875 
z
" id="IPAexGothic-45"/>
     </defs>
     <g transform="translate(362.118438 300.19325)scale(0.1 -0.1)">
      <use xlink:href="#IPAexGothic-50"/>
      <use x="62.988281" xlink:href="#IPAexGothic-48"/>
      <use x="125.976562" xlink:href="#IPAexGothic-50"/>
      <use x="188.964844" xlink:href="#IPAexGothic-48"/>
      <use x="251.953125" xlink:href="#IPAexGothic-45"/>
      <use x="287.744141" xlink:href="#IPAexGothic-77"/>
      <use x="377.929688" xlink:href="#IPAexGothic-97"/>
      <use x="432.910156" xlink:href="#IPAexGothic-114"/>
     </g>
    </g>
   </g>
   <g id="matplotlib.axis_2">
    <g id="ytick_1">
     <g id="line2d_9">
      <defs>
       <path d="M 0 0 
L -3.5 0 
" id="m93b7953d91" style="stroke:#000000;stroke-width:0.8;"/>
      </defs>
      <g>
       <use style="stroke:#000000;stroke-width:0.8;" x="51.990625" xlink:href="#m93b7953d91" y="273.312"/>
      </g>
     </g>
     <g id="text_10">
      <!-- 0 -->
      <g transform="translate(38.692188 277.057312)scale(0.1 -0.1)">
       <use xlink:href="#IPAexGothic-48"/>
      </g>
     </g>
    </g>
    <g id="ytick_2">
     <g id="line2d_10">
      <g>
       <use style="stroke:#000000;stroke-width:0.8;" x="51.990625" xlink:href="#m93b7953d91" y="237.751206"/>
      </g>
     </g>
     <g id="text_11">
      <!-- 20000 -->
      <g transform="translate(13.498438 241.496519)scale(0.1 -0.1)">
       <use xlink:href="#IPAexGothic-50"/>
       <use x="62.988281" xlink:href="#IPAexGothic-48"/>
       <use x="125.976562" xlink:href="#IPAexGothic-48"/>
       <use x="188.964844" xlink:href="#IPAexGothic-48"/>
       <use x="251.953125" xlink:href="#IPAexGothic-48"/>
      </g>
     </g>
    </g>
    <g id="ytick_3">
     <g id="line2d_11">
      <g>
       <use style="stroke:#000000;stroke-width:0.8;" x="51.990625" xlink:href="#m93b7953d91" y="202.190412"/>
      </g>
     </g>
     <g id="text_12">
      <!-- 40000 -->
      <defs>
       <path d="M 59.578125 18.109375 
L 47.796875 18.109375 
L 47.796875 0.984375 
L 39.796875 0.984375 
L 39.796875 18.109375 
L 3.078125 18.109375 
L 3.078125 26.125 
L 38.375 73.09375 
L 47.796875 73.09375 
L 47.796875 25.53125 
L 59.578125 25.53125 
z
M 40.28125 64.203125 
L 39.984375 64.203125 
Q 35.59375 57.125 31.296875 51.3125 
L 11.859375 25.53125 
L 39.796875 25.53125 
L 39.796875 49.125 
Q 39.796875 54.390625 40.28125 64.203125 
z
" id="IPAexGothic-52"/>
      </defs>
      <g transform="translate(13.498438 205.935725)scale(0.1 -0.1)">
       <use xlink:href="#IPAexGothic-52"/>
       <use x="62.988281" xlink:href="#IPAexGothic-48"/>
       <use x="125.976562" xlink:href="#IPAexGothic-48"/>
       <use x="188.964844" xlink:href="#IPAexGothic-48"/>
       <use x="251.953125" xlink:href="#IPAexGothic-48"/>
      </g>
     </g>
    </g>
    <g id="ytick_4">
     <g id="line2d_12">
      <g>
       <use style="stroke:#000000;stroke-width:0.8;" x="51.990625" xlink:href="#m93b7953d91" y="166.629618"/>
      </g>
     </g>
     <g id="text_13">
      <!-- 60000 -->
      <defs>
       <path d="M 16.5 36.375 
Q 23.578125 46.578125 34.90625 46.578125 
Q 45.40625 46.578125 51.8125 39.265625 
Q 57.421875 32.90625 57.421875 23.78125 
Q 57.421875 13.8125 51.125 6.78125 
Q 44.578125 -0.484375 34.03125 -0.484375 
Q 21.484375 -0.484375 14.40625 9.078125 
Q 7.515625 18.40625 7.515625 34.8125 
Q 7.515625 53.515625 15.828125 64.203125 
Q 23.34375 73.828125 35.5 73.828125 
Q 49.859375 73.828125 56.390625 62.890625 
L 49.21875 58.984375 
Q 45.21875 66.65625 35.9375 66.65625 
Q 17.484375 66.65625 16.109375 36.375 
z
M 33.453125 39.796875 
Q 26.3125 39.796875 21.625 34.46875 
Q 17.4375 29.6875 17.4375 24.078125 
Q 17.4375 18.0625 21.140625 13.1875 
Q 26.125 6.6875 33.734375 6.6875 
Q 41.703125 6.6875 45.953125 13.1875 
Q 48.828125 17.625 48.828125 23.484375 
Q 48.828125 30.375 45.015625 34.8125 
Q 40.625 39.796875 33.453125 39.796875 
z
" id="IPAexGothic-54"/>
      </defs>
      <g transform="translate(13.498438 170.374931)scale(0.1 -0.1)">
       <use xlink:href="#IPAexGothic-54"/>
       <use x="62.988281" xlink:href="#IPAexGothic-48"/>
       <use x="125.976562" xlink:href="#IPAexGothic-48"/>
       <use x="188.964844" xlink:href="#IPAexGothic-48"/>
       <use x="251.953125" xlink:href="#IPAexGothic-48"/>
      </g>
     </g>
    </g>
    <g id="ytick_5">
     <g id="line2d_13">
      <g>
       <use style="stroke:#000000;stroke-width:0.8;" x="51.990625" xlink:href="#m93b7953d91" y="131.068824"/>
      </g>
     </g>
     <g id="text_14">
      <!-- 80000 -->
      <g transform="translate(13.498438 134.814137)scale(0.1 -0.1)">
       <use xlink:href="#IPAexGothic-56"/>
       <use x="62.988281" xlink:href="#IPAexGothic-48"/>
       <use x="125.976562" xlink:href="#IPAexGothic-48"/>
       <use x="188.964844" xlink:href="#IPAexGothic-48"/>
       <use x="251.953125" xlink:href="#IPAexGothic-48"/>
      </g>
     </g>
    </g>
    <g id="ytick_6">
     <g id="line2d_14">
      <g>
       <use style="stroke:#000000;stroke-width:0.8;" x="51.990625" xlink:href="#m93b7953d91" y="95.508031"/>
      </g>
     </g>
     <g id="text_15">
      <!-- 100000 -->
      <g transform="translate(7.2 99.253343)scale(0.1 -0.1)">
       <use xlink:href="#IPAexGothic-49"/>
       <use x="62.988281" xlink:href="#IPAexGothic-48"/>
       <use x="125.976562" xlink:href="#IPAexGothic-48"/>
       <use x="188.964844" xlink:href="#IPAexGothic-48"/>
       <use x="251.953125" xlink:href="#IPAexGothic-48"/>
       <use x="314.941406" xlink:href="#IPAexGothic-48"/>
      </g>
     </g>
    </g>
    <g id="ytick_7">
     <g id="line2d_15">
      <g>
       <use style="stroke:#000000;stroke-width:0.8;" x="51.990625" xlink:href="#m93b7953d91" y="59.947237"/>
      </g>
     </g>
     <g id="text_16">
      <!-- 120000 -->
      <g transform="translate(7.2 63.692549)scale(0.1 -0.1)">
       <use xlink:href="#IPAexGothic-49"/>
       <use x="62.988281" xlink:href="#IPAexGothic-50"/>
       <use x="125.976562" xlink:href="#IPAexGothic-48"/>
       <use x="188.964844" xlink:href="#IPAexGothic-48"/>
       <use x="251.953125" xlink:href="#IPAexGothic-48"/>
       <use x="314.941406" xlink:href="#IPAexGothic-48"/>
      </g>
     </g>
    </g>
    <g id="ytick_8">
     <g id="line2d_16">
      <g>
       <use style="stroke:#000000;stroke-width:0.8;" x="51.990625" xlink:href="#m93b7953d91" y="24.386443"/>
      </g>
     </g>
     <g id="text_17">
      <!-- 140000 -->
      <g transform="translate(7.2 28.131755)scale(0.1 -0.1)">
       <use xlink:href="#IPAexGothic-49"/>
       <use x="62.988281" xlink:href="#IPAexGothic-52"/>
       <use x="125.976562" xlink:href="#IPAexGothic-48"/>
       <use x="188.964844" xlink:href="#IPAexGothic-48"/>
       <use x="251.953125" xlink:href="#IPAexGothic-48"/>
       <use x="314.941406" xlink:href="#IPAexGothic-48"/>
      </g>
     </g>
    </g>
   </g>
   <g id="patch_165">
    <path d="M 51.990625 273.312 
L 51.990625 7.2 
" style="fill:none;stroke:#000000;stroke-linecap:square;stroke-linejoin:miter;stroke-width:0.8;"/>
   </g>
   <g id="patch_166">
    <path d="M 409.110625 273.312 
L 409.110625 7.2 
" style="fill:none;stroke:#000000;stroke-linecap:square;stroke-linejoin:miter;stroke-width:0.8;"/>
   </g>
   <g id="patch_167">
    <path d="M 51.990625 273.312 
L 409.110625 273.312 
" style="fill:none;stroke:#000000;stroke-linecap:square;stroke-linejoin:miter;stroke-width:0.8;"/>
   </g>
   <g id="patch_168">
    <path d="M 51.990625 7.2 
L 409.110625 7.2 
" style="fill:none;stroke:#000000;stroke-linecap:square;stroke-linejoin:miter;stroke-width:0.8;"/>
   </g>
   <g id="legend_1">
    <g id="patch_169">
     <path d="M 58.990625 58.371875 
L 173.835938 58.371875 
Q 175.835938 58.371875 175.835938 56.371875 
L 175.835938 14.2 
Q 175.835938 12.2 173.835938 12.2 
L 58.990625 12.2 
Q 56.990625 12.2 56.990625 14.2 
L 56.990625 56.371875 
Q 56.990625 58.371875 58.990625 58.371875 
z
" style="fill:#ffffff;opacity:0.8;stroke:#cccccc;stroke-linejoin:miter;"/>
    </g>
    <g id="patch_170">
     <path d="M 60.990625 23.690625 
L 80.990625 23.690625 
L 80.990625 16.690625 
L 60.990625 16.690625 
z
" style="fill:#ffbb78;"/>
    </g>
    <g id="text_18">
     <!-- Global Confirmed -->
     <defs>
      <path d="M 68.796875 12.203125 
Q 65.1875 7.71875 58.296875 3.90625 
Q 50.140625 -0.484375 40.484375 -0.484375 
Q 25.09375 -0.484375 15.4375 9.8125 
Q 5.90625 19.921875 5.90625 36.328125 
Q 5.90625 53.21875 15.828125 63.71875 
Q 25.296875 73.828125 39.59375 73.828125 
Q 59.375 73.828125 67.578125 56.6875 
L 59.625 52.984375 
Q 53.46875 66.21875 39.703125 66.21875 
Q 29.546875 66.21875 22.703125 58.5 
Q 15.53125 50.25 15.53125 36.375 
Q 15.53125 23.921875 21.828125 15.96875 
Q 28.8125 7.171875 41.015625 7.171875 
Q 54.046875 7.171875 60.59375 15.09375 
L 60.59375 29 
L 44.671875 29 
L 44.671875 35.796875 
L 68.796875 35.796875 
z
" id="IPAexGothic-71"/>
      <path d="M 17.671875 0.984375 
L 9.078125 0.984375 
L 9.078125 74.90625 
L 17.671875 74.90625 
z
" id="IPAexGothic-108"/>
      <path d="M 29.984375 52.203125 
Q 40.53125 52.203125 47.75 45.125 
Q 55.171875 37.703125 55.171875 25.59375 
Q 55.171875 13.875 47.90625 6.59375 
Q 40.765625 -0.484375 29.984375 -0.484375 
Q 19.1875 -0.484375 12.203125 6.5 
Q 4.890625 13.765625 4.890625 25.875 
Q 4.890625 37.703125 12.3125 45.125 
Q 19.390625 52.203125 29.984375 52.203125 
z
M 29.984375 45.609375 
Q 23.734375 45.609375 19.390625 41.109375 
Q 13.875 35.59375 13.875 25.78125 
Q 13.875 16.109375 19.28125 10.6875 
Q 23.6875 6.296875 29.984375 6.296875 
Q 36.421875 6.296875 40.765625 10.796875 
Q 46.1875 16.21875 46.1875 26.125 
Q 46.1875 35.453125 40.671875 41.109375 
Q 36.1875 45.609375 29.984375 45.609375 
z
" id="IPAexGothic-111"/>
      <path id="IPAexGothic-32"/>
      <path d="M 68.015625 17 
Q 65.328125 10.84375 60.296875 6.6875 
Q 51.765625 -0.484375 39.984375 -0.484375 
Q 24.8125 -0.484375 14.984375 10.203125 
Q 5.90625 20.21875 5.90625 36.421875 
Q 5.90625 53.21875 15.828125 63.71875 
Q 25.296875 73.828125 39.59375 73.828125 
Q 59.578125 73.828125 67.53125 56.6875 
L 59.515625 52.984375 
Q 53.515625 66.21875 39.703125 66.21875 
Q 29.546875 66.21875 22.703125 58.5 
Q 15.53125 50.25 15.53125 36.28125 
Q 15.53125 24.21875 21.625 16.5 
Q 28.765625 7.375 40.046875 7.375 
Q 54 7.375 60.59375 20.609375 
z
" id="IPAexGothic-67"/>
      <path d="M 52 0.984375 
L 43.40625 0.984375 
L 43.40625 31.890625 
Q 43.40625 44.578125 32.90625 44.578125 
Q 22.3125 44.578125 17.390625 31.890625 
L 17.390625 0.984375 
L 8.796875 0.984375 
L 8.796875 50.78125 
L 16.796875 50.78125 
L 16.796875 41.796875 
Q 23.828125 51.8125 34.71875 51.8125 
Q 52 51.8125 52 32.375 
z
" id="IPAexGothic-110"/>
      <path d="M 38.375 72.21875 
L 34.8125 66.3125 
Q 31.109375 69.09375 27.203125 69.09375 
Q 18.5 69.09375 18.5 57.375 
L 18.5 50.78125 
L 32.078125 50.78125 
L 32.078125 44.671875 
L 18.5 44.671875 
L 18.5 0.984375 
L 10.015625 0.984375 
L 10.015625 44.671875 
L 1.90625 44.671875 
L 1.90625 50.78125 
L 10.015625 50.78125 
L 10.015625 57.171875 
Q 10.015625 65.4375 13.921875 70.0625 
Q 18.75 75.6875 26.703125 75.6875 
Q 33.0625 75.6875 38.375 72.21875 
z
" id="IPAexGothic-102"/>
      <path d="M 18.40625 61.375 
L 8.59375 61.375 
L 8.59375 71.390625 
L 18.40625 71.390625 
z
M 17.78125 0.984375 
L 9.1875 0.984375 
L 9.1875 50.78125 
L 17.78125 50.78125 
z
" id="IPAexGothic-105"/>
      <path d="M 78.46875 0.984375 
L 69.875 0.984375 
L 69.875 32.171875 
Q 69.875 44.828125 60.109375 44.828125 
Q 55.46875 44.828125 51.609375 40.53125 
Q 48.875 37.453125 47.796875 32.859375 
L 47.796875 0.984375 
L 39.203125 0.984375 
L 39.203125 32.28125 
Q 39.203125 44.828125 29.984375 44.828125 
Q 25.09375 44.828125 21.390625 40.53125 
Q 17.390625 36.03125 17.390625 31.890625 
L 17.390625 0.984375 
L 8.796875 0.984375 
L 8.796875 50.78125 
L 16.796875 50.78125 
L 16.796875 42.1875 
Q 21.734375 51.8125 31.6875 51.8125 
Q 42.578125 51.8125 46.1875 41.359375 
Q 51.609375 51.8125 61.765625 51.8125 
Q 69.96875 51.8125 74.5625 46 
Q 78.46875 41.21875 78.46875 32.375 
z
" id="IPAexGothic-109"/>
      <path d="M 52.984375 0.984375 
L 45.171875 0.984375 
L 45.171875 9.671875 
Q 38.140625 -0.484375 27.390625 -0.484375 
Q 18.453125 -0.484375 12.3125 5.8125 
Q 4.890625 13.1875 4.890625 25.984375 
Q 4.890625 38.53125 12.0625 45.90625 
Q 18.265625 52.203125 27.390625 52.203125 
Q 37.25 52.203125 44.484375 43.890625 
L 44.484375 74.90625 
L 52.984375 74.90625 
z
M 44.484375 20.359375 
L 44.484375 32.765625 
Q 44.484375 37.703125 38.375 42.28125 
Q 34.078125 45.40625 28.953125 45.40625 
Q 23.1875 45.40625 19.1875 41.40625 
Q 13.875 36.078125 13.875 26.21875 
Q 13.875 17.328125 18.265625 11.71875 
Q 22.515625 6.390625 28.859375 6.390625 
Q 36.28125 6.390625 41.5 13.671875 
Q 44.484375 17.71875 44.484375 20.359375 
z
" id="IPAexGothic-100"/>
     </defs>
     <g transform="translate(88.990625 23.690625)scale(0.1 -0.1)">
      <use xlink:href="#IPAexGothic-71"/>
      <use x="75.292969" xlink:href="#IPAexGothic-108"/>
      <use x="102.294922" xlink:href="#IPAexGothic-111"/>
      <use x="162.695312" xlink:href="#IPAexGothic-98"/>
      <use x="225.097656" xlink:href="#IPAexGothic-97"/>
      <use x="280.078125" xlink:href="#IPAexGothic-108"/>
      <use x="307.080078" xlink:href="#IPAexGothic-32"/>
      <use x="334.082031" xlink:href="#IPAexGothic-67"/>
      <use x="406.591797" xlink:href="#IPAexGothic-111"/>
      <use x="466.992188" xlink:href="#IPAexGothic-110"/>
      <use x="527.392578" xlink:href="#IPAexGothic-102"/>
      <use x="558.007812" xlink:href="#IPAexGothic-105"/>
      <use x="585.009766" xlink:href="#IPAexGothic-114"/>
      <use x="622.021484" xlink:href="#IPAexGothic-109"/>
      <use x="709.130859" xlink:href="#IPAexGothic-101"/>
      <use x="766.015625" xlink:href="#IPAexGothic-100"/>
     </g>
    </g>
    <g id="patch_171">
     <path d="M 60.990625 38.08125 
L 80.990625 38.08125 
L 80.990625 31.08125 
L 60.990625 31.08125 
z
" style="fill:#ff7f0e;"/>
    </g>
    <g id="text_19">
     <!-- China Confirmed -->
     <defs>
      <path d="M 52.296875 0.984375 
L 43.703125 0.984375 
L 43.703125 31.890625 
Q 43.703125 44.578125 33.296875 44.578125 
Q 22.609375 44.578125 17.671875 31.890625 
L 17.671875 0.984375 
L 9.078125 0.984375 
L 9.078125 74.90625 
L 17.671875 74.90625 
L 17.671875 42.28125 
Q 24.46875 51.8125 35.109375 51.8125 
Q 52.296875 51.8125 52.296875 32.375 
z
" id="IPAexGothic-104"/>
     </defs>
     <g transform="translate(88.990625 38.08125)scale(0.1 -0.1)">
      <use xlink:href="#IPAexGothic-67"/>
      <use x="72.509766" xlink:href="#IPAexGothic-104"/>
      <use x="133.203125" xlink:href="#IPAexGothic-105"/>
      <use x="160.205078" xlink:href="#IPAexGothic-110"/>
      <use x="220.605469" xlink:href="#IPAexGothic-97"/>
      <use x="275.585938" xlink:href="#IPAexGothic-32"/>
      <use x="302.587891" xlink:href="#IPAexGothic-67"/>
      <use x="375.097656" xlink:href="#IPAexGothic-111"/>
      <use x="435.498047" xlink:href="#IPAexGothic-110"/>
      <use x="495.898438" xlink:href="#IPAexGothic-102"/>
      <use x="526.513672" xlink:href="#IPAexGothic-105"/>
      <use x="553.515625" xlink:href="#IPAexGothic-114"/>
      <use x="590.527344" xlink:href="#IPAexGothic-109"/>
      <use x="677.636719" xlink:href="#IPAexGothic-101"/>
      <use x="734.521484" xlink:href="#IPAexGothic-100"/>
     </g>
    </g>
    <g id="patch_172">
     <path d="M 60.990625 52.471875 
L 80.990625 52.471875 
L 80.990625 45.471875 
L 60.990625 45.471875 
z
" style="fill:#d62728;"/>
    </g>
    <g id="text_20">
     <!-- Global Deaths -->
     <defs>
      <path d="M 9.515625 72.40625 
L 31 72.40625 
Q 49.359375 72.40625 59.234375 63.28125 
Q 69.625 53.8125 69.625 36.8125 
Q 69.625 16.359375 54.9375 6.890625 
Q 45.703125 0.984375 30.328125 0.984375 
L 9.515625 0.984375 
z
M 18.3125 8.6875 
L 29.59375 8.6875 
Q 60.203125 8.6875 60.203125 36.8125 
Q 60.203125 64.796875 30.125 64.796875 
L 18.3125 64.796875 
z
" id="IPAexGothic-68"/>
      <path d="M 33.203125 3.765625 
Q 27.640625 -0.09375 21.828125 -0.09375 
Q 10.203125 -0.09375 10.203125 12.984375 
L 10.203125 44.671875 
L 3.421875 44.671875 
L 3.421875 50.78125 
L 10.203125 50.78125 
L 10.203125 61.96875 
L 18.40625 66.0625 
L 18.40625 50.78125 
L 32.234375 50.78125 
L 32.234375 44.671875 
L 18.40625 44.671875 
L 18.40625 14.15625 
Q 18.40625 6.5 23.640625 6.5 
Q 27.15625 6.5 30.328125 9.1875 
z
" id="IPAexGothic-116"/>
      <path d="M 34.90625 39.796875 
Q 30.28125 45.796875 23.1875 45.796875 
Q 13.921875 45.796875 13.921875 38.671875 
Q 13.921875 33.640625 23.921875 30.375 
L 27.203125 29.296875 
Q 41.40625 24.65625 41.40625 13.96875 
Q 41.40625 6.78125 35.5 2.6875 
Q 30.8125 -0.484375 23.390625 -0.484375 
Q 11.96875 -0.484375 4 7.859375 
L 9.421875 12.796875 
Q 15.578125 6.203125 23.6875 6.203125 
Q 33.296875 6.203125 33.296875 13.671875 
Q 33.296875 19.34375 22.703125 23.09375 
L 19.28125 24.265625 
Q 5.90625 28.953125 5.90625 37.984375 
Q 5.90625 43.703125 9.8125 47.609375 
Q 14.5 52.296875 22.703125 52.296875 
Q 33.6875 52.296875 40.71875 44.671875 
z
" id="IPAexGothic-115"/>
     </defs>
     <g transform="translate(88.990625 52.471875)scale(0.1 -0.1)">
      <use xlink:href="#IPAexGothic-71"/>
      <use x="75.292969" xlink:href="#IPAexGothic-108"/>
      <use x="102.294922" xlink:href="#IPAexGothic-111"/>
      <use x="162.695312" xlink:href="#IPAexGothic-98"/>
      <use x="225.097656" xlink:href="#IPAexGothic-97"/>
      <use x="280.078125" xlink:href="#IPAexGothic-108"/>
      <use x="307.080078" xlink:href="#IPAexGothic-32"/>
      <use x="334.082031" xlink:href="#IPAexGothic-68"/>
      <use x="409.765625" xlink:href="#IPAexGothic-101"/>
      <use x="466.650391" xlink:href="#IPAexGothic-97"/>
      <use x="521.630859" xlink:href="#IPAexGothic-116"/>
      <use x="556.25" xlink:href="#IPAexGothic-104"/>
      <use x="616.943359" xlink:href="#IPAexGothic-115"/>
     </g>
    </g>
   </g>
  </g>
 </g>
 <defs>
  <clipPath id="p1900bd85c4">
   <rect height="266.112" width="357.12" x="51.990625" y="7.2"/>
  </clipPath>
 </defs>
</svg>
