<?xml version="1.0" encoding="utf-8" standalone="no"?>
<!DOCTYPE svg PUBLIC "-//W3C//DTD SVG 1.1//EN"
  "http://www.w3.org/Graphics/SVG/1.1/DTD/svg11.dtd">
<!-- Created with matplotlib (https://matplotlib.org/) -->
<svg height="309.29325pt" version="1.1" viewBox="0 0 416.310625 309.29325" width="416.310625pt" xmlns="http://www.w3.org/2000/svg" xmlns:xlink="http://www.w3.org/1999/xlink">
 <defs>
  <style type="text/css">
*{stroke-linecap:butt;stroke-linejoin:round;}
  </style>
 </defs>
 <g id="figure_1">
  <g id="patch_1">
   <path d="M 0 309.29325 
L 416.310625 309.29325 
L 416.310625 0 
L 0 0 
z
" style="fill:#ffffff;"/>
  </g>
  <g id="axes_1">
   <g id="patch_2">
    <path d="M 51.990625 273.312 
L 409.110625 273.312 
L 409.110625 7.2 
L 51.990625 7.2 
z
" style="fill:#ffffff;"/>
   </g>
   <g id="patch_3">
    <path clip-path="url(#p3ef308e8ca)" d="M 68.223352 273.312 
L 70.879013 273.312 
L 70.879013 272.521087 
L 68.223352 272.521087 
z
" style="fill:#1f77b4;"/>
   </g>
   <g id="patch_4">
    <path clip-path="url(#p3ef308e8ca)" d="M 71.542928 273.312 
L 74.198589 273.312 
L 74.198589 272.499558 
L 71.542928 272.499558 
z
" style="fill:#1f77b4;"/>
   </g>
   <g id="patch_5">
    <path clip-path="url(#p3ef308e8ca)" d="M 81.501657 273.312 
L 84.157318 273.312 
L 84.157318 272.24914 
L 81.501657 272.24914 
z
" style="fill:#1f77b4;"/>
   </g>
   <g id="patch_6">
    <path clip-path="url(#p3ef308e8ca)" d="M 88.140809 273.312 
L 90.79647 273.312 
L 90.79647 272.23101 
L 88.140809 272.23101 
z
" style="fill:#1f77b4;"/>
   </g>
   <g id="patch_7">
    <path clip-path="url(#p3ef308e8ca)" d="M 91.460385 273.312 
L 94.116046 273.312 
L 94.116046 272.219679 
L 91.460385 272.219679 
z
" style="fill:#1f77b4;"/>
   </g>
   <g id="patch_8">
    <path clip-path="url(#p3ef308e8ca)" d="M 94.779961 273.312 
L 97.435622 273.312 
L 97.435622 272.203815 
L 94.779961 272.203815 
z
" style="fill:#1f77b4;"/>
   </g>
   <g id="patch_9">
    <path clip-path="url(#p3ef308e8ca)" d="M 104.73869 273.312 
L 107.394351 273.312 
L 107.394351 271.894476 
L 104.73869 271.894476 
z
" style="fill:#1f77b4;"/>
   </g>
   <g id="patch_10">
    <path clip-path="url(#p3ef308e8ca)" d="M 108.058266 273.312 
L 110.713927 273.312 
L 110.713927 271.853683 
L 108.058266 271.853683 
z
" style="fill:#1f77b4;"/>
   </g>
   <g id="patch_11">
    <path clip-path="url(#p3ef308e8ca)" d="M 111.377842 273.312 
L 114.033503 273.312 
L 114.033503 271.843485 
L 111.377842 271.843485 
z
" style="fill:#1f77b4;"/>
   </g>
   <g id="patch_12">
    <path clip-path="url(#p3ef308e8ca)" d="M 114.697418 273.312 
L 117.353079 273.312 
L 117.353079 271.689382 
L 114.697418 271.689382 
z
" style="fill:#1f77b4;"/>
   </g>
   <g id="patch_13">
    <path clip-path="url(#p3ef308e8ca)" d="M 118.016994 273.312 
L 120.672655 273.312 
L 120.672655 271.587402 
L 118.016994 271.587402 
z
" style="fill:#1f77b4;"/>
   </g>
   <g id="patch_14">
    <path clip-path="url(#p3ef308e8ca)" d="M 121.33657 273.312 
L 123.992231 273.312 
L 123.992231 271.491087 
L 121.33657 271.491087 
z
" style="fill:#1f77b4;"/>
   </g>
   <g id="patch_15">
    <path clip-path="url(#p3ef308e8ca)" d="M 124.656146 273.312 
L 127.311807 273.312 
L 127.311807 271.382308 
L 124.656146 271.382308 
z
" style="fill:#1f77b4;"/>
   </g>
   <g id="patch_16">
    <path clip-path="url(#p3ef308e8ca)" d="M 127.975723 273.312 
L 130.631384 273.312 
L 130.631384 271.338117 
L 127.975723 271.338117 
z
" style="fill:#1f77b4;"/>
   </g>
   <g id="patch_17">
    <path clip-path="url(#p3ef308e8ca)" d="M 131.295299 273.312 
L 133.95096 273.312 
L 133.95096 271.220273 
L 131.295299 271.220273 
z
" style="fill:#1f77b4;"/>
   </g>
   <g id="patch_18">
    <path clip-path="url(#p3ef308e8ca)" d="M 134.614875 273.312 
L 137.270536 273.312 
L 137.270536 271.170416 
L 134.614875 271.170416 
z
" style="fill:#1f77b4;"/>
   </g>
   <g id="patch_19">
    <path clip-path="url(#p3ef308e8ca)" d="M 137.934451 273.312 
L 140.590112 273.312 
L 140.590112 270.980053 
L 137.934451 270.980053 
z
" style="fill:#1f77b4;"/>
   </g>
   <g id="patch_20">
    <path clip-path="url(#p3ef308e8ca)" d="M 141.254027 273.312 
L 143.909688 273.312 
L 143.909688 270.808953 
L 141.254027 270.808953 
z
" style="fill:#1f77b4;"/>
   </g>
   <g id="patch_21">
    <path clip-path="url(#p3ef308e8ca)" d="M 144.573603 273.312 
L 147.229264 273.312 
L 147.229264 270.661649 
L 144.573603 270.661649 
z
" style="fill:#1f77b4;"/>
   </g>
   <g id="patch_22">
    <path clip-path="url(#p3ef308e8ca)" d="M 147.893179 273.312 
L 150.54884 273.312 
L 150.54884 270.459954 
L 147.893179 270.459954 
z
" style="fill:#1f77b4;"/>
   </g>
   <g id="patch_23">
    <path clip-path="url(#p3ef308e8ca)" d="M 151.212756 273.312 
L 153.868416 273.312 
L 153.868416 270.351176 
L 151.212756 270.351176 
z
" style="fill:#1f77b4;"/>
   </g>
   <g id="patch_24">
    <path clip-path="url(#p3ef308e8ca)" d="M 154.532332 273.312 
L 157.187993 273.312 
L 157.187993 270.270725 
L 154.532332 270.270725 
z
" style="fill:#1f77b4;"/>
   </g>
   <g id="patch_25">
    <path clip-path="url(#p3ef308e8ca)" d="M 157.851908 273.312 
L 160.507569 273.312 
L 160.507569 265.925236 
L 157.851908 265.925236 
z
" style="fill:#1f77b4;"/>
   </g>
   <g id="patch_26">
    <path clip-path="url(#p3ef308e8ca)" d="M 161.171484 273.312 
L 163.827145 273.312 
L 163.827145 265.632893 
L 161.171484 265.632893 
z
" style="fill:#1f77b4;"/>
   </g>
   <g id="patch_27">
    <path clip-path="url(#p3ef308e8ca)" d="M 164.49106 273.312 
L 167.146721 273.312 
L 167.146721 264.840847 
L 164.49106 264.840847 
z
" style="fill:#1f77b4;"/>
   </g>
   <g id="patch_28">
    <path clip-path="url(#p3ef308e8ca)" d="M 167.810636 273.312 
L 170.466297 273.312 
L 170.466297 264.214235 
L 167.810636 264.214235 
z
" style="fill:#1f77b4;"/>
   </g>
   <g id="patch_29">
    <path clip-path="url(#p3ef308e8ca)" d="M 171.130212 273.312 
L 173.785873 273.312 
L 173.785873 264.047668 
L 171.130212 264.047668 
z
" style="fill:#1f77b4;"/>
   </g>
   <g id="patch_30">
    <path clip-path="url(#p3ef308e8ca)" d="M 174.449788 273.312 
L 177.105449 273.312 
L 177.105449 263.923025 
L 174.449788 263.923025 
z
" style="fill:#1f77b4;"/>
   </g>
   <g id="patch_31">
    <path clip-path="url(#p3ef308e8ca)" d="M 177.769365 273.312 
L 180.425025 273.312 
L 180.425025 262.434115 
L 177.769365 262.434115 
z
" style="fill:#1f77b4;"/>
   </g>
   <g id="patch_32">
    <path clip-path="url(#p3ef308e8ca)" d="M 181.088941 273.312 
L 183.744602 273.312 
L 183.744602 261.953675 
L 181.088941 261.953675 
z
" style="fill:#1f77b4;"/>
   </g>
   <g id="patch_33">
    <path clip-path="url(#p3ef308e8ca)" d="M 184.408517 273.312 
L 187.064178 273.312 
L 187.064178 261.748581 
L 184.408517 261.748581 
z
" style="fill:#1f77b4;"/>
   </g>
   <g id="patch_34">
    <path clip-path="url(#p3ef308e8ca)" d="M 187.728093 273.312 
L 190.383754 273.312 
L 190.383754 259.646656 
L 187.728093 259.646656 
z
" style="fill:#1f77b4;"/>
   </g>
   <g id="patch_35">
    <path clip-path="url(#p3ef308e8ca)" d="M 191.047669 273.312 
L 193.70333 273.312 
L 193.70333 258.673312 
L 191.047669 258.673312 
z
" style="fill:#1f77b4;"/>
   </g>
   <g id="patch_36">
    <path clip-path="url(#p3ef308e8ca)" d="M 194.367245 273.312 
L 197.022906 273.312 
L 197.022906 258.552069 
L 194.367245 258.552069 
z
" style="fill:#1f77b4;"/>
   </g>
   <g id="patch_37">
    <path clip-path="url(#p3ef308e8ca)" d="M 197.686821 273.312 
L 200.342482 273.312 
L 200.342482 258.504478 
L 197.686821 258.504478 
z
" style="fill:#1f77b4;"/>
   </g>
   <g id="patch_38">
    <path clip-path="url(#p3ef308e8ca)" d="M 201.006397 273.312 
L 203.662058 273.312 
L 203.662058 256.144204 
L 201.006397 256.144204 
z
" style="fill:#1f77b4;"/>
   </g>
   <g id="patch_39">
    <path clip-path="url(#p3ef308e8ca)" d="M 204.325974 273.312 
L 206.981634 273.312 
L 206.981634 255.914182 
L 204.325974 255.914182 
z
" style="fill:#1f77b4;"/>
   </g>
   <g id="patch_40">
    <path clip-path="url(#p3ef308e8ca)" d="M 207.64555 273.312 
L 210.301211 273.312 
L 210.301211 256.427482 
L 207.64555 256.427482 
z
" style="fill:#1f77b4;"/>
   </g>
   <g id="patch_41">
    <path clip-path="url(#p3ef308e8ca)" d="M 210.965126 273.312 
L 213.620787 273.312 
L 213.620787 251.959617 
L 210.965126 251.959617 
z
" style="fill:#1f77b4;"/>
   </g>
   <g id="patch_42">
    <path clip-path="url(#p3ef308e8ca)" d="M 214.284702 273.312 
L 216.940363 273.312 
L 216.940363 251.824777 
L 214.284702 251.824777 
z
" style="fill:#1f77b4;"/>
   </g>
   <g id="patch_43">
    <path clip-path="url(#p3ef308e8ca)" d="M 217.604278 273.312 
L 220.259939 273.312 
L 220.259939 250.391389 
L 217.604278 250.391389 
z
" style="fill:#1f77b4;"/>
   </g>
   <g id="patch_44">
    <path clip-path="url(#p3ef308e8ca)" d="M 220.923854 273.312 
L 223.579515 273.312 
L 223.579515 250.26448 
L 220.923854 250.26448 
z
" style="fill:#1f77b4;"/>
   </g>
   <g id="patch_45">
    <path clip-path="url(#p3ef308e8ca)" d="M 224.24343 273.312 
L 226.899091 273.312 
L 226.899091 245.630048 
L 224.24343 245.630048 
z
" style="fill:#1f77b4;"/>
   </g>
   <g id="patch_46">
    <path clip-path="url(#p3ef308e8ca)" d="M 227.563006 273.312 
L 230.218667 273.312 
L 230.218667 246.660048 
L 227.563006 246.660048 
z
" style="fill:#1f77b4;"/>
   </g>
   <g id="patch_47">
    <path clip-path="url(#p3ef308e8ca)" d="M 230.882583 273.312 
L 233.538244 273.312 
L 233.538244 244.790411 
L 230.882583 244.790411 
z
" style="fill:#1f77b4;"/>
   </g>
   <g id="patch_48">
    <path clip-path="url(#p3ef308e8ca)" d="M 234.202159 273.312 
L 236.85782 273.312 
L 236.85782 242.712282 
L 234.202159 242.712282 
z
" style="fill:#1f77b4;"/>
   </g>
   <g id="patch_49">
    <path clip-path="url(#p3ef308e8ca)" d="M 237.521735 273.312 
L 240.177396 273.312 
L 240.177396 241.05907 
L 237.521735 241.05907 
z
" style="fill:#1f77b4;"/>
   </g>
   <g id="patch_50">
    <path clip-path="url(#p3ef308e8ca)" d="M 240.841311 273.312 
L 243.496972 273.312 
L 243.496972 240.723668 
L 240.841311 240.723668 
z
" style="fill:#1f77b4;"/>
   </g>
   <g id="patch_51">
    <path clip-path="url(#p3ef308e8ca)" d="M 244.160887 273.312 
L 246.816548 273.312 
L 246.816548 240.490247 
L 244.160887 240.490247 
z
" style="fill:#1f77b4;"/>
   </g>
   <g id="patch_52">
    <path clip-path="url(#p3ef308e8ca)" d="M 247.480463 273.312 
L 250.136124 273.312 
L 250.136124 236.489225 
L 247.480463 236.489225 
z
" style="fill:#1f77b4;"/>
   </g>
   <g id="patch_53">
    <path clip-path="url(#p3ef308e8ca)" d="M 250.800039 273.312 
L 253.4557 273.312 
L 253.4557 234.210534 
L 250.800039 234.210534 
z
" style="fill:#1f77b4;"/>
   </g>
   <g id="patch_54">
    <path clip-path="url(#p3ef308e8ca)" d="M 254.119616 273.312 
L 256.775276 273.312 
L 256.775276 234.208268 
L 254.119616 234.208268 
z
" style="fill:#1f77b4;"/>
   </g>
   <g id="patch_55">
    <path clip-path="url(#p3ef308e8ca)" d="M 257.439192 273.312 
L 260.094853 273.312 
L 260.094853 228.615222 
L 257.439192 228.615222 
z
" style="fill:#1f77b4;"/>
   </g>
   <g id="patch_56">
    <path clip-path="url(#p3ef308e8ca)" d="M 260.758768 273.312 
L 263.414429 273.312 
L 263.414429 224.721846 
L 260.758768 224.721846 
z
" style="fill:#1f77b4;"/>
   </g>
   <g id="patch_57">
    <path clip-path="url(#p3ef308e8ca)" d="M 264.078344 273.312 
L 266.734005 273.312 
L 266.734005 222.730966 
L 264.078344 222.730966 
z
" style="fill:#1f77b4;"/>
   </g>
   <g id="patch_58">
    <path clip-path="url(#p3ef308e8ca)" d="M 267.39792 273.312 
L 270.053581 273.312 
L 270.053581 220.993904 
L 267.39792 220.993904 
z
" style="fill:#1f77b4;"/>
   </g>
   <g id="patch_59">
    <path clip-path="url(#p3ef308e8ca)" d="M 270.717496 273.312 
L 273.373157 273.312 
L 273.373157 210.638383 
L 270.717496 210.638383 
z
" style="fill:#1f77b4;"/>
   </g>
   <g id="patch_60">
    <path clip-path="url(#p3ef308e8ca)" d="M 274.037072 273.312 
L 276.692733 273.312 
L 276.692733 203.627813 
L 274.037072 203.627813 
z
" style="fill:#1f77b4;"/>
   </g>
   <g id="patch_61">
    <path clip-path="url(#p3ef308e8ca)" d="M 277.356648 273.312 
L 280.012309 273.312 
L 280.012309 200.354249 
L 277.356648 200.354249 
z
" style="fill:#1f77b4;"/>
   </g>
   <g id="patch_62">
    <path clip-path="url(#p3ef308e8ca)" d="M 280.676225 273.312 
L 283.331885 273.312 
L 283.331885 195.386681 
L 280.676225 195.386681 
z
" style="fill:#1f77b4;"/>
   </g>
   <g id="patch_63">
    <path clip-path="url(#p3ef308e8ca)" d="M 283.995801 273.312 
L 286.651462 273.312 
L 286.651462 188.452029 
L 283.995801 188.452029 
z
" style="fill:#1f77b4;"/>
   </g>
   <g id="patch_64">
    <path clip-path="url(#p3ef308e8ca)" d="M 287.315377 273.312 
L 289.971038 273.312 
L 289.971038 185.630578 
L 287.315377 185.630578 
z
" style="fill:#1f77b4;"/>
   </g>
   <g id="patch_65">
    <path clip-path="url(#p3ef308e8ca)" d="M 290.634953 273.312 
L 293.290614 273.312 
L 293.290614 184.133736 
L 290.634953 184.133736 
z
" style="fill:#1f77b4;"/>
   </g>
   <g id="patch_66">
    <path clip-path="url(#p3ef308e8ca)" d="M 293.954529 273.312 
L 296.61019 273.312 
L 296.61019 171.840592 
L 293.954529 171.840592 
z
" style="fill:#1f77b4;"/>
   </g>
   <g id="patch_67">
    <path clip-path="url(#p3ef308e8ca)" d="M 297.274105 273.312 
L 299.929766 273.312 
L 299.929766 166.531957 
L 297.274105 166.531957 
z
" style="fill:#1f77b4;"/>
   </g>
   <g id="patch_68">
    <path clip-path="url(#p3ef308e8ca)" d="M 300.593681 273.312 
L 303.249342 273.312 
L 303.249342 159.204115 
L 300.593681 159.204115 
z
" style="fill:#1f77b4;"/>
   </g>
   <g id="patch_69">
    <path clip-path="url(#p3ef308e8ca)" d="M 303.913257 273.312 
L 306.568918 273.312 
L 306.568918 152.780497 
L 303.913257 152.780497 
z
" style="fill:#1f77b4;"/>
   </g>
   <g id="patch_70">
    <path clip-path="url(#p3ef308e8ca)" d="M 307.232834 273.312 
L 309.888494 273.312 
L 309.888494 147.168188 
L 307.232834 147.168188 
z
" style="fill:#1f77b4;"/>
   </g>
   <g id="patch_71">
    <path clip-path="url(#p3ef308e8ca)" d="M 310.55241 273.312 
L 313.208071 273.312 
L 313.208071 145.478716 
L 310.55241 145.478716 
z
" style="fill:#1f77b4;"/>
   </g>
   <g id="patch_72">
    <path clip-path="url(#p3ef308e8ca)" d="M 313.871986 273.312 
L 316.527647 273.312 
L 316.527647 141.049377 
L 313.871986 141.049377 
z
" style="fill:#1f77b4;"/>
   </g>
   <g id="patch_73">
    <path clip-path="url(#p3ef308e8ca)" d="M 317.191562 273.312 
L 319.847223 273.312 
L 319.847223 132.182768 
L 317.191562 132.182768 
z
" style="fill:#1f77b4;"/>
   </g>
   <g id="patch_74">
    <path clip-path="url(#p3ef308e8ca)" d="M 320.511138 273.312 
L 323.166799 273.312 
L 323.166799 125.342164 
L 320.511138 125.342164 
z
" style="fill:#1f77b4;"/>
   </g>
   <g id="patch_75">
    <path clip-path="url(#p3ef308e8ca)" d="M 323.830714 273.312 
L 326.486375 273.312 
L 326.486375 119.227886 
L 323.830714 119.227886 
z
" style="fill:#1f77b4;"/>
   </g>
   <g id="patch_76">
    <path clip-path="url(#p3ef308e8ca)" d="M 327.15029 273.312 
L 329.805951 273.312 
L 329.805951 112.86319 
L 327.15029 112.86319 
z
" style="fill:#1f77b4;"/>
   </g>
   <g id="patch_77">
    <path clip-path="url(#p3ef308e8ca)" d="M 330.469866 273.312 
L 333.125527 273.312 
L 333.125527 106.229946 
L 330.469866 106.229946 
z
" style="fill:#1f77b4;"/>
   </g>
   <g id="patch_78">
    <path clip-path="url(#p3ef308e8ca)" d="M 333.789443 273.312 
L 336.445104 273.312 
L 336.445104 104.394303 
L 333.789443 104.394303 
z
" style="fill:#1f77b4;"/>
   </g>
   <g id="patch_79">
    <path clip-path="url(#p3ef308e8ca)" d="M 337.109019 273.312 
L 339.76468 273.312 
L 339.76468 102.560926 
L 337.109019 102.560926 
z
" style="fill:#1f77b4;"/>
   </g>
   <g id="patch_80">
    <path clip-path="url(#p3ef308e8ca)" d="M 340.428595 273.312 
L 343.084256 273.312 
L 343.084256 91.39523 
L 340.428595 91.39523 
z
" style="fill:#1f77b4;"/>
   </g>
   <g id="patch_81">
    <path clip-path="url(#p3ef308e8ca)" d="M 343.748171 273.312 
L 346.403832 273.312 
L 346.403832 87.192513 
L 343.748171 87.192513 
z
" style="fill:#1f77b4;"/>
   </g>
   <g id="patch_82">
    <path clip-path="url(#p3ef308e8ca)" d="M 347.067747 273.312 
L 349.723408 273.312 
L 349.723408 85.658278 
L 347.067747 85.658278 
z
" style="fill:#1f77b4;"/>
   </g>
   <g id="patch_83">
    <path clip-path="url(#p3ef308e8ca)" d="M 350.387323 273.312 
L 353.042984 273.312 
L 353.042984 75.98036 
L 350.387323 75.98036 
z
" style="fill:#1f77b4;"/>
   </g>
   <g id="patch_84">
    <path clip-path="url(#p3ef308e8ca)" d="M 353.706899 273.312 
L 356.36256 273.312 
L 356.36256 67.621385 
L 353.706899 67.621385 
z
" style="fill:#1f77b4;"/>
   </g>
   <g id="patch_85">
    <path clip-path="url(#p3ef308e8ca)" d="M 357.026476 273.312 
L 359.682136 273.312 
L 359.682136 65.667898 
L 357.026476 65.667898 
z
" style="fill:#1f77b4;"/>
   </g>
   <g id="patch_86">
    <path clip-path="url(#p3ef308e8ca)" d="M 360.346052 273.312 
L 363.001713 273.312 
L 363.001713 64.155192 
L 360.346052 64.155192 
z
" style="fill:#1f77b4;"/>
   </g>
   <g id="patch_87">
    <path clip-path="url(#p3ef308e8ca)" d="M 363.665628 273.312 
L 366.321289 273.312 
L 366.321289 62.164312 
L 363.665628 62.164312 
z
" style="fill:#1f77b4;"/>
   </g>
   <g id="patch_88">
    <path clip-path="url(#p3ef308e8ca)" d="M 366.985204 273.312 
L 369.640865 273.312 
L 369.640865 59.236348 
L 366.985204 59.236348 
z
" style="fill:#1f77b4;"/>
   </g>
   <g id="patch_89">
    <path clip-path="url(#p3ef308e8ca)" d="M 370.30478 273.312 
L 372.960441 273.312 
L 372.960441 57.986524 
L 370.30478 57.986524 
z
" style="fill:#1f77b4;"/>
   </g>
   <g id="patch_90">
    <path clip-path="url(#p3ef308e8ca)" d="M 373.624356 273.312 
L 376.280017 273.312 
L 376.280017 44.40843 
L 373.624356 44.40843 
z
" style="fill:#1f77b4;"/>
   </g>
   <g id="patch_91">
    <path clip-path="url(#p3ef308e8ca)" d="M 376.943932 273.312 
L 379.599593 273.312 
L 379.599593 33.095429 
L 376.943932 33.095429 
z
" style="fill:#1f77b4;"/>
   </g>
   <g id="patch_92">
    <path clip-path="url(#p3ef308e8ca)" d="M 380.263508 273.312 
L 382.919169 273.312 
L 382.919169 30.535727 
L 380.263508 30.535727 
z
" style="fill:#1f77b4;"/>
   </g>
   <g id="patch_93">
    <path clip-path="url(#p3ef308e8ca)" d="M 383.583085 273.312 
L 386.238745 273.312 
L 386.238745 26.062197 
L 383.583085 26.062197 
z
" style="fill:#1f77b4;"/>
   </g>
   <g id="patch_94">
    <path clip-path="url(#p3ef308e8ca)" d="M 386.902661 273.312 
L 389.558322 273.312 
L 389.558322 19.892396 
L 386.902661 19.892396 
z
" style="fill:#1f77b4;"/>
   </g>
   <g id="patch_95">
    <path clip-path="url(#p3ef308e8ca)" d="M 390.222237 273.312 
L 392.877898 273.312 
L 392.877898 19.872 
L 390.222237 19.872 
z
" style="fill:#1f77b4;"/>
   </g>
   <g id="patch_96">
    <path clip-path="url(#p3ef308e8ca)" d="M 68.223352 273.312 
L 70.879013 273.312 
L 70.879013 273.283672 
L 68.223352 273.283672 
z
" style="fill:#ff7f0e;"/>
   </g>
   <g id="patch_97">
    <path clip-path="url(#p3ef308e8ca)" d="M 71.542928 273.312 
L 74.198589 273.312 
L 74.198589 273.283672 
L 71.542928 273.283672 
z
" style="fill:#ff7f0e;"/>
   </g>
   <g id="patch_98">
    <path clip-path="url(#p3ef308e8ca)" d="M 81.501657 273.312 
L 84.157318 273.312 
L 84.157318 273.282539 
L 81.501657 273.282539 
z
" style="fill:#ff7f0e;"/>
   </g>
   <g id="patch_99">
    <path clip-path="url(#p3ef308e8ca)" d="M 88.140809 273.312 
L 90.79647 273.312 
L 90.79647 273.280273 
L 88.140809 273.280273 
z
" style="fill:#ff7f0e;"/>
   </g>
   <g id="patch_100">
    <path clip-path="url(#p3ef308e8ca)" d="M 91.460385 273.312 
L 94.116046 273.312 
L 94.116046 273.27914 
L 91.460385 273.27914 
z
" style="fill:#ff7f0e;"/>
   </g>
   <g id="patch_101">
    <path clip-path="url(#p3ef308e8ca)" d="M 94.779961 273.312 
L 97.435622 273.312 
L 97.435622 273.274607 
L 94.779961 273.274607 
z
" style="fill:#ff7f0e;"/>
   </g>
   <g id="patch_102">
    <path clip-path="url(#p3ef308e8ca)" d="M 104.73869 273.312 
L 107.394351 273.312 
L 107.394351 273.245146 
L 104.73869 273.245146 
z
" style="fill:#ff7f0e;"/>
   </g>
   <g id="patch_103">
    <path clip-path="url(#p3ef308e8ca)" d="M 108.058266 273.312 
L 110.713927 273.312 
L 110.713927 273.237215 
L 108.058266 273.237215 
z
" style="fill:#ff7f0e;"/>
   </g>
   <g id="patch_104">
    <path clip-path="url(#p3ef308e8ca)" d="M 111.377842 273.312 
L 114.033503 273.312 
L 114.033503 273.229283 
L 111.377842 273.229283 
z
" style="fill:#ff7f0e;"/>
   </g>
   <g id="patch_105">
    <path clip-path="url(#p3ef308e8ca)" d="M 114.697418 273.312 
L 117.353079 273.312 
L 117.353079 273.216819 
L 114.697418 273.216819 
z
" style="fill:#ff7f0e;"/>
   </g>
   <g id="patch_106">
    <path clip-path="url(#p3ef308e8ca)" d="M 118.016994 273.312 
L 120.672655 273.312 
L 120.672655 273.20662 
L 118.016994 273.20662 
z
" style="fill:#ff7f0e;"/>
   </g>
   <g id="patch_107">
    <path clip-path="url(#p3ef308e8ca)" d="M 121.33657 273.312 
L 123.992231 273.312 
L 123.992231 273.193023 
L 121.33657 273.193023 
z
" style="fill:#ff7f0e;"/>
   </g>
   <g id="patch_108">
    <path clip-path="url(#p3ef308e8ca)" d="M 124.656146 273.312 
L 127.311807 273.312 
L 127.311807 273.162429 
L 124.656146 273.162429 
z
" style="fill:#ff7f0e;"/>
   </g>
   <g id="patch_109">
    <path clip-path="url(#p3ef308e8ca)" d="M 127.975723 273.312 
L 130.631384 273.312 
L 130.631384 273.148832 
L 127.975723 273.148832 
z
" style="fill:#ff7f0e;"/>
   </g>
   <g id="patch_110">
    <path clip-path="url(#p3ef308e8ca)" d="M 131.295299 273.312 
L 133.95096 273.312 
L 133.95096 273.135234 
L 131.295299 273.135234 
z
" style="fill:#ff7f0e;"/>
   </g>
   <g id="patch_111">
    <path clip-path="url(#p3ef308e8ca)" d="M 134.614875 273.312 
L 137.270536 273.312 
L 137.270536 273.126169 
L 134.614875 273.126169 
z
" style="fill:#ff7f0e;"/>
   </g>
   <g id="patch_112">
    <path clip-path="url(#p3ef308e8ca)" d="M 137.934451 273.312 
L 140.590112 273.312 
L 140.590112 273.101241 
L 137.934451 273.101241 
z
" style="fill:#ff7f0e;"/>
   </g>
   <g id="patch_113">
    <path clip-path="url(#p3ef308e8ca)" d="M 141.254027 273.312 
L 143.909688 273.312 
L 143.909688 273.074046 
L 141.254027 273.074046 
z
" style="fill:#ff7f0e;"/>
   </g>
   <g id="patch_114">
    <path clip-path="url(#p3ef308e8ca)" d="M 144.573603 273.312 
L 147.229264 273.312 
L 147.229264 273.051384 
L 144.573603 273.051384 
z
" style="fill:#ff7f0e;"/>
   </g>
   <g id="patch_115">
    <path clip-path="url(#p3ef308e8ca)" d="M 147.893179 273.312 
L 150.54884 273.312 
L 150.54884 273.041186 
L 147.893179 273.041186 
z
" style="fill:#ff7f0e;"/>
   </g>
   <g id="patch_116">
    <path clip-path="url(#p3ef308e8ca)" d="M 151.212756 273.312 
L 153.868416 273.312 
L 153.868416 273.024189 
L 151.212756 273.024189 
z
" style="fill:#ff7f0e;"/>
   </g>
   <g id="patch_117">
    <path clip-path="url(#p3ef308e8ca)" d="M 154.532332 273.312 
L 157.187993 273.312 
L 157.187993 273.008326 
L 154.532332 273.008326 
z
" style="fill:#ff7f0e;"/>
   </g>
   <g id="patch_118">
    <path clip-path="url(#p3ef308e8ca)" d="M 157.851908 273.312 
L 160.507569 273.312 
L 160.507569 272.990196 
L 157.851908 272.990196 
z
" style="fill:#ff7f0e;"/>
   </g>
   <g id="patch_119">
    <path clip-path="url(#p3ef308e8ca)" d="M 161.171484 273.312 
L 163.827145 273.312 
L 163.827145 272.952803 
L 161.171484 272.952803 
z
" style="fill:#ff7f0e;"/>
   </g>
   <g id="patch_120">
    <path clip-path="url(#p3ef308e8ca)" d="M 164.49106 273.312 
L 167.146721 273.312 
L 167.146721 272.917677 
L 164.49106 272.917677 
z
" style="fill:#ff7f0e;"/>
   </g>
   <g id="patch_121">
    <path clip-path="url(#p3ef308e8ca)" d="M 167.810636 273.312 
L 170.466297 273.312 
L 170.466297 272.850823 
L 167.810636 272.850823 
z
" style="fill:#ff7f0e;"/>
   </g>
   <g id="patch_122">
    <path clip-path="url(#p3ef308e8ca)" d="M 171.130212 273.312 
L 173.785873 273.312 
L 173.785873 272.797567 
L 171.130212 272.797567 
z
" style="fill:#ff7f0e;"/>
   </g>
   <g id="patch_123">
    <path clip-path="url(#p3ef308e8ca)" d="M 174.449788 273.312 
L 177.105449 273.312 
L 177.105449 272.760174 
L 174.449788 272.760174 
z
" style="fill:#ff7f0e;"/>
   </g>
   <g id="patch_124">
    <path clip-path="url(#p3ef308e8ca)" d="M 177.769365 273.312 
L 180.425025 273.312 
L 180.425025 272.730713 
L 177.769365 272.730713 
z
" style="fill:#ff7f0e;"/>
   </g>
   <g id="patch_125">
    <path clip-path="url(#p3ef308e8ca)" d="M 181.088941 273.312 
L 183.744602 273.312 
L 183.744602 272.669525 
L 181.088941 272.669525 
z
" style="fill:#ff7f0e;"/>
   </g>
   <g id="patch_126">
    <path clip-path="url(#p3ef308e8ca)" d="M 184.408517 273.312 
L 187.064178 273.312 
L 187.064178 272.610603 
L 184.408517 272.610603 
z
" style="fill:#ff7f0e;"/>
   </g>
   <g id="patch_127">
    <path clip-path="url(#p3ef308e8ca)" d="M 187.728093 273.312 
L 190.383754 273.312 
L 190.383754 272.548282 
L 187.728093 272.548282 
z
" style="fill:#ff7f0e;"/>
   </g>
   <g id="patch_128">
    <path clip-path="url(#p3ef308e8ca)" d="M 191.047669 273.312 
L 193.70333 273.312 
L 193.70333 272.502957 
L 191.047669 272.502957 
z
" style="fill:#ff7f0e;"/>
   </g>
   <g id="patch_129">
    <path clip-path="url(#p3ef308e8ca)" d="M 194.367245 273.312 
L 197.022906 273.312 
L 197.022906 272.431571 
L 194.367245 272.431571 
z
" style="fill:#ff7f0e;"/>
   </g>
   <g id="patch_130">
    <path clip-path="url(#p3ef308e8ca)" d="M 197.686821 273.312 
L 200.342482 273.312 
L 200.342482 272.395312 
L 197.686821 272.395312 
z
" style="fill:#ff7f0e;"/>
   </g>
   <g id="patch_131">
    <path clip-path="url(#p3ef308e8ca)" d="M 201.006397 273.312 
L 203.662058 273.312 
L 203.662058 272.378315 
L 201.006397 272.378315 
z
" style="fill:#ff7f0e;"/>
   </g>
   <g id="patch_132">
    <path clip-path="url(#p3ef308e8ca)" d="M 204.325974 273.312 
L 206.981634 273.312 
L 206.981634 272.328458 
L 204.325974 272.328458 
z
" style="fill:#ff7f0e;"/>
   </g>
   <g id="patch_133">
    <path clip-path="url(#p3ef308e8ca)" d="M 207.64555 273.312 
L 210.301211 273.312 
L 210.301211 272.284266 
L 207.64555 272.284266 
z
" style="fill:#ff7f0e;"/>
   </g>
   <g id="patch_134">
    <path clip-path="url(#p3ef308e8ca)" d="M 210.965126 273.312 
L 213.620787 273.312 
L 213.620787 272.243474 
L 210.965126 272.243474 
z
" style="fill:#ff7f0e;"/>
   </g>
   <g id="patch_135">
    <path clip-path="url(#p3ef308e8ca)" d="M 214.284702 273.312 
L 216.940363 273.312 
L 216.940363 272.183419 
L 214.284702 272.183419 
z
" style="fill:#ff7f0e;"/>
   </g>
   <g id="patch_136">
    <path clip-path="url(#p3ef308e8ca)" d="M 217.604278 273.312 
L 220.259939 273.312 
L 220.259939 272.126764 
L 217.604278 272.126764 
z
" style="fill:#ff7f0e;"/>
   </g>
   <g id="patch_137">
    <path clip-path="url(#p3ef308e8ca)" d="M 220.923854 273.312 
L 223.579515 273.312 
L 223.579515 272.07804 
L 220.923854 272.07804 
z
" style="fill:#ff7f0e;"/>
   </g>
   <g id="patch_138">
    <path clip-path="url(#p3ef308e8ca)" d="M 224.24343 273.312 
L 226.899091 273.312 
L 226.899091 272.033848 
L 224.24343 272.033848 
z
" style="fill:#ff7f0e;"/>
   </g>
   <g id="patch_139">
    <path clip-path="url(#p3ef308e8ca)" d="M 227.563006 273.312 
L 230.218667 273.312 
L 230.218667 271.960196 
L 227.563006 271.960196 
z
" style="fill:#ff7f0e;"/>
   </g>
   <g id="patch_140">
    <path clip-path="url(#p3ef308e8ca)" d="M 230.882583 273.312 
L 233.538244 273.312 
L 233.538244 271.849151 
L 230.882583 271.849151 
z
" style="fill:#ff7f0e;"/>
   </g>
   <g id="patch_141">
    <path clip-path="url(#p3ef308e8ca)" d="M 234.202159 273.312 
L 236.85782 273.312 
L 236.85782 271.740372 
L 234.202159 271.740372 
z
" style="fill:#ff7f0e;"/>
   </g>
   <g id="patch_142">
    <path clip-path="url(#p3ef308e8ca)" d="M 237.521735 273.312 
L 240.177396 273.312 
L 240.177396 271.613464 
L 237.521735 271.613464 
z
" style="fill:#ff7f0e;"/>
   </g>
   <g id="patch_143">
    <path clip-path="url(#p3ef308e8ca)" d="M 240.841311 273.312 
L 243.496972 273.312 
L 243.496972 271.39364 
L 240.841311 271.39364 
z
" style="fill:#ff7f0e;"/>
   </g>
   <g id="patch_144">
    <path clip-path="url(#p3ef308e8ca)" d="M 244.160887 273.312 
L 246.816548 273.312 
L 246.816548 271.197611 
L 244.160887 271.197611 
z
" style="fill:#ff7f0e;"/>
   </g>
   <g id="patch_145">
    <path clip-path="url(#p3ef308e8ca)" d="M 247.480463 273.312 
L 250.136124 273.312 
L 250.136124 271.09903 
L 247.480463 271.09903 
z
" style="fill:#ff7f0e;"/>
   </g>
   <g id="patch_146">
    <path clip-path="url(#p3ef308e8ca)" d="M 250.800039 273.312 
L 253.4557 273.312 
L 253.4557 270.84408 
L 250.800039 270.84408 
z
" style="fill:#ff7f0e;"/>
   </g>
   <g id="patch_147">
    <path clip-path="url(#p3ef308e8ca)" d="M 254.119616 273.312 
L 256.775276 273.312 
L 256.775276 270.614058 
L 254.119616 270.614058 
z
" style="fill:#ff7f0e;"/>
   </g>
   <g id="patch_148">
    <path clip-path="url(#p3ef308e8ca)" d="M 257.439192 273.312 
L 260.094853 273.312 
L 260.094853 270.346643 
L 257.439192 270.346643 
z
" style="fill:#ff7f0e;"/>
   </g>
   <g id="patch_149">
    <path clip-path="url(#p3ef308e8ca)" d="M 260.758768 273.312 
L 263.414429 273.312 
L 263.414429 269.986313 
L 260.758768 269.986313 
z
" style="fill:#ff7f0e;"/>
   </g>
   <g id="patch_150">
    <path clip-path="url(#p3ef308e8ca)" d="M 264.078344 273.312 
L 266.734005 273.312 
L 266.734005 269.605587 
L 264.078344 269.605587 
z
" style="fill:#ff7f0e;"/>
   </g>
   <g id="patch_151">
    <path clip-path="url(#p3ef308e8ca)" d="M 267.39792 273.312 
L 270.053581 273.312 
L 270.053581 269.171605 
L 267.39792 269.171605 
z
" style="fill:#ff7f0e;"/>
   </g>
   <g id="patch_152">
    <path clip-path="url(#p3ef308e8ca)" d="M 270.717496 273.312 
L 273.373157 273.312 
L 273.373157 268.88606 
L 270.717496 268.88606 
z
" style="fill:#ff7f0e;"/>
   </g>
   <g id="patch_153">
    <path clip-path="url(#p3ef308e8ca)" d="M 274.037072 273.312 
L 276.692733 273.312 
L 276.692733 268.488338 
L 274.037072 268.488338 
z
" style="fill:#ff7f0e;"/>
   </g>
   <g id="patch_154">
    <path clip-path="url(#p3ef308e8ca)" d="M 277.356648 273.312 
L 280.012309 273.312 
L 280.012309 267.909317 
L 277.356648 267.909317 
z
" style="fill:#ff7f0e;"/>
   </g>
   <g id="patch_155">
    <path clip-path="url(#p3ef308e8ca)" d="M 280.676225 273.312 
L 283.331885 273.312 
L 283.331885 267.253244 
L 280.676225 267.253244 
z
" style="fill:#ff7f0e;"/>
   </g>
   <g id="patch_156">
    <path clip-path="url(#p3ef308e8ca)" d="M 283.995801 273.312 
L 286.651462 273.312 
L 286.651462 266.507656 
L 283.995801 266.507656 
z
" style="fill:#ff7f0e;"/>
   </g>
   <g id="patch_157">
    <path clip-path="url(#p3ef308e8ca)" d="M 287.315377 273.312 
L 289.971038 273.312 
L 289.971038 265.665753 
L 287.315377 265.665753 
z
" style="fill:#ff7f0e;"/>
   </g>
   <g id="patch_158">
    <path clip-path="url(#p3ef308e8ca)" d="M 290.634953 273.312 
L 293.290614 273.312 
L 293.290614 265.091265 
L 290.634953 265.091265 
z
" style="fill:#ff7f0e;"/>
   </g>
   <g id="patch_159">
    <path clip-path="url(#p3ef308e8ca)" d="M 293.954529 273.312 
L 296.61019 273.312 
L 296.61019 264.649351 
L 293.954529 264.649351 
z
" style="fill:#ff7f0e;"/>
   </g>
   <g id="patch_160">
    <path clip-path="url(#p3ef308e8ca)" d="M 297.274105 273.312 
L 299.929766 273.312 
L 299.929766 264.133784 
L 297.274105 264.133784 
z
" style="fill:#ff7f0e;"/>
   </g>
   <g id="patch_161">
    <path clip-path="url(#p3ef308e8ca)" d="M 300.593681 273.312 
L 303.249342 273.312 
L 303.249342 263.587624 
L 300.593681 263.587624 
z
" style="fill:#ff7f0e;"/>
   </g>
   <g id="patch_162">
    <path clip-path="url(#p3ef308e8ca)" d="M 303.913257 273.312 
L 306.568918 273.312 
L 306.568918 262.924753 
L 303.913257 262.924753 
z
" style="fill:#ff7f0e;"/>
   </g>
   <g id="patch_163">
    <path clip-path="url(#p3ef308e8ca)" d="M 307.232834 273.312 
L 309.888494 273.312 
L 309.888494 262.213158 
L 307.232834 262.213158 
z
" style="fill:#ff7f0e;"/>
   </g>
   <g id="patch_164">
    <path clip-path="url(#p3ef308e8ca)" d="M 310.55241 273.312 
L 313.208071 273.312 
L 313.208071 261.571816 
L 310.55241 261.571816 
z
" style="fill:#ff7f0e;"/>
   </g>
   <g id="patch_165">
    <path clip-path="url(#p3ef308e8ca)" d="M 313.871986 273.312 
L 316.527647 273.312 
L 316.527647 261.129901 
L 313.871986 261.129901 
z
" style="fill:#ff7f0e;"/>
   </g>
   <g id="patch_166">
    <path clip-path="url(#p3ef308e8ca)" d="M 317.191562 273.312 
L 319.847223 273.312 
L 319.847223 260.712916 
L 317.191562 260.712916 
z
" style="fill:#ff7f0e;"/>
   </g>
   <g id="patch_167">
    <path clip-path="url(#p3ef308e8ca)" d="M 320.511138 273.312 
L 323.166799 273.312 
L 323.166799 260.285732 
L 320.511138 260.285732 
z
" style="fill:#ff7f0e;"/>
   </g>
   <g id="patch_168">
    <path clip-path="url(#p3ef308e8ca)" d="M 323.830714 273.312 
L 326.486375 273.312 
L 326.486375 259.806425 
L 323.830714 259.806425 
z
" style="fill:#ff7f0e;"/>
   </g>
   <g id="patch_169">
    <path clip-path="url(#p3ef308e8ca)" d="M 327.15029 273.312 
L 329.805951 273.312 
L 329.805951 259.274995 
L 327.15029 259.274995 
z
" style="fill:#ff7f0e;"/>
   </g>
   <g id="patch_170">
    <path clip-path="url(#p3ef308e8ca)" d="M 330.469866 273.312 
L 333.125527 273.312 
L 333.125527 258.775292 
L 330.469866 258.775292 
z
" style="fill:#ff7f0e;"/>
   </g>
   <g id="patch_171">
    <path clip-path="url(#p3ef308e8ca)" d="M 333.789443 273.312 
L 336.445104 273.312 
L 336.445104 258.375304 
L 333.789443 258.375304 
z
" style="fill:#ff7f0e;"/>
   </g>
   <g id="patch_172">
    <path clip-path="url(#p3ef308e8ca)" d="M 337.109019 273.312 
L 339.76468 273.312 
L 339.76468 258.145282 
L 337.109019 258.145282 
z
" style="fill:#ff7f0e;"/>
   </g>
   <g id="patch_173">
    <path clip-path="url(#p3ef308e8ca)" d="M 340.428595 273.312 
L 343.084256 273.312 
L 343.084256 257.928857 
L 340.428595 257.928857 
z
" style="fill:#ff7f0e;"/>
   </g>
   <g id="patch_174">
    <path clip-path="url(#p3ef308e8ca)" d="M 343.748171 273.312 
L 346.403832 273.312 
L 346.403832 257.616118 
L 343.748171 257.616118 
z
" style="fill:#ff7f0e;"/>
   </g>
   <g id="patch_175">
    <path clip-path="url(#p3ef308e8ca)" d="M 347.067747 273.312 
L 349.723408 273.312 
L 349.723408 257.348703 
L 347.067747 257.348703 
z
" style="fill:#ff7f0e;"/>
   </g>
   <g id="patch_176">
    <path clip-path="url(#p3ef308e8ca)" d="M 350.387323 273.312 
L 353.042984 273.312 
L 353.042984 257.130012 
L 350.387323 257.130012 
z
" style="fill:#ff7f0e;"/>
   </g>
   <g id="patch_177">
    <path clip-path="url(#p3ef308e8ca)" d="M 353.706899 273.312 
L 356.36256 273.312 
L 356.36256 256.832004 
L 353.706899 256.832004 
z
" style="fill:#ff7f0e;"/>
   </g>
   <g id="patch_178">
    <path clip-path="url(#p3ef308e8ca)" d="M 357.026476 273.312 
L 359.682136 273.312 
L 359.682136 256.497735 
L 357.026476 256.497735 
z
" style="fill:#ff7f0e;"/>
   </g>
   <g id="patch_179">
    <path clip-path="url(#p3ef308e8ca)" d="M 360.346052 273.312 
L 363.001713 273.312 
L 363.001713 256.250717 
L 360.346052 256.250717 
z
" style="fill:#ff7f0e;"/>
   </g>
   <g id="patch_180">
    <path clip-path="url(#p3ef308e8ca)" d="M 363.665628 273.312 
L 366.321289 273.312 
L 366.321289 256.053555 
L 363.665628 256.053555 
z
" style="fill:#ff7f0e;"/>
   </g>
   <g id="patch_181">
    <path clip-path="url(#p3ef308e8ca)" d="M 366.985204 273.312 
L 369.640865 273.312 
L 369.640865 255.914182 
L 366.985204 255.914182 
z
" style="fill:#ff7f0e;"/>
   </g>
   <g id="patch_182">
    <path clip-path="url(#p3ef308e8ca)" d="M 370.30478 273.312 
L 372.960441 273.312 
L 372.960441 255.790673 
L 370.30478 255.790673 
z
" style="fill:#ff7f0e;"/>
   </g>
   <g id="patch_183">
    <path clip-path="url(#p3ef308e8ca)" d="M 373.624356 273.312 
L 376.280017 273.312 
L 376.280017 255.695491 
L 373.624356 255.695491 
z
" style="fill:#ff7f0e;"/>
   </g>
   <g id="patch_184">
    <path clip-path="url(#p3ef308e8ca)" d="M 376.943932 273.312 
L 379.599593 273.312 
L 379.599593 255.579914 
L 376.943932 255.579914 
z
" style="fill:#ff7f0e;"/>
   </g>
   <g id="patch_185">
    <path clip-path="url(#p3ef308e8ca)" d="M 380.263508 273.312 
L 382.919169 273.312 
L 382.919169 255.468869 
L 380.263508 255.468869 
z
" style="fill:#ff7f0e;"/>
   </g>
   <g id="patch_186">
    <path clip-path="url(#p3ef308e8ca)" d="M 383.583085 273.312 
L 386.238745 273.312 
L 386.238745 255.41108 
L 383.583085 255.41108 
z
" style="fill:#ff7f0e;"/>
   </g>
   <g id="patch_187">
    <path clip-path="url(#p3ef308e8ca)" d="M 386.902661 273.312 
L 389.558322 273.312 
L 389.558322 255.324963 
L 386.902661 255.324963 
z
" style="fill:#ff7f0e;"/>
   </g>
   <g id="patch_188">
    <path clip-path="url(#p3ef308e8ca)" d="M 390.222237 273.312 
L 392.877898 273.312 
L 392.877898 255.154996 
L 390.222237 255.154996 
z
" style="fill:#ff7f0e;"/>
   </g>
   <g id="matplotlib.axis_1">
    <g id="xtick_1">
     <g id="line2d_1">
      <defs>
       <path d="M 0 0 
L 0 3.5 
" id="m9808174f14" style="stroke:#000000;stroke-width:0.8;"/>
      </defs>
      <g>
       <use style="stroke:#000000;stroke-width:0.8;" x="52.953302" xlink:href="#m9808174f14" y="273.312"/>
      </g>
     </g>
     <g id="text_1">
      <!-- Feb -->
      <defs>
       <path d="M 54.203125 64.703125 
L 18.3125 64.703125 
L 18.3125 41.5 
L 50.09375 41.5 
L 50.09375 34.1875 
L 18.3125 34.1875 
L 18.3125 0.984375 
L 9.515625 0.984375 
L 9.515625 72.40625 
L 54.203125 72.40625 
z
" id="IPAexGothic-70"/>
       <path d="M 13.484375 24.90625 
Q 13.921875 16.265625 18.890625 11.28125 
Q 23.96875 6.203125 31.203125 6.203125 
Q 40.71875 6.203125 46.296875 15.09375 
L 51.90625 11.375 
Q 44.828125 -0.484375 30.171875 -0.484375 
Q 19.09375 -0.484375 11.96875 6.59375 
Q 4.78125 13.8125 4.78125 25.640625 
Q 4.78125 38.1875 12.3125 45.703125 
Q 19 52.390625 29 52.390625 
Q 38.421875 52.390625 44.78125 46.1875 
Q 51.90625 38.96875 51.90625 26.90625 
L 51.90625 24.90625 
z
M 43.0625 31.203125 
Q 42.328125 37.984375 38.28125 41.890625 
Q 34.28125 45.90625 28.8125 45.90625 
Q 22.46875 45.90625 17.96875 40.484375 
Q 14.890625 36.8125 13.96875 31.203125 
z
" id="IPAexGothic-101"/>
       <path d="M 17.578125 42.671875 
Q 24.21875 52.203125 34.671875 52.203125 
Q 43.5625 52.203125 49.859375 45.90625 
Q 57.171875 38.578125 57.171875 25.6875 
Q 57.171875 13.09375 49.859375 5.8125 
Q 43.5625 -0.484375 34.46875 -0.484375 
Q 24.359375 -0.484375 17 8.0625 
L 15.765625 0.6875 
L 9.078125 0.6875 
L 9.078125 74.90625 
L 17.578125 74.90625 
z
M 17.578125 31.203125 
L 17.578125 19.578125 
Q 17.578125 13.875 23.875 9.375 
Q 28.171875 6.296875 33.109375 6.296875 
Q 38.875 6.296875 42.875 10.296875 
Q 48.1875 15.765625 48.1875 25.484375 
Q 48.1875 34.28125 43.796875 39.890625 
Q 39.453125 45.3125 33.203125 45.3125 
Q 27.484375 45.3125 22.46875 40.28125 
Q 17.578125 35.40625 17.578125 31.203125 
z
" id="IPAexGothic-98"/>
      </defs>
      <g transform="translate(44.129865 287.802625)scale(0.1 -0.1)">
       <use xlink:href="#IPAexGothic-70"/>
       <use x="57.177734" xlink:href="#IPAexGothic-101"/>
       <use x="114.0625" xlink:href="#IPAexGothic-98"/>
      </g>
     </g>
    </g>
    <g id="xtick_2">
     <g id="line2d_2">
      <g>
       <use style="stroke:#000000;stroke-width:0.8;" x="99.427368" xlink:href="#m9808174f14" y="273.312"/>
      </g>
     </g>
     <g id="text_2">
      <!-- 15 -->
      <defs>
       <path d="M 38.484375 0.984375 
L 29.6875 0.984375 
L 29.6875 64.109375 
Q 21.4375 61.28125 12.3125 59.328125 
L 10.6875 66.109375 
Q 23.734375 69.390625 32.90625 73.921875 
L 38.484375 73.921875 
z
" id="IPAexGothic-49"/>
       <path d="M 18.40625 40.671875 
Q 25.53125 46.296875 33.9375 46.296875 
Q 44 46.296875 50.640625 39.5 
Q 56.84375 33.015625 56.84375 23.390625 
Q 56.84375 14.65625 51.515625 8.015625 
Q 44.828125 -0.484375 31.734375 -0.484375 
Q 14.984375 -0.484375 7.328125 12.25 
L 14.65625 16.0625 
Q 20.453125 6.78125 31.453125 6.78125 
Q 38.53125 6.78125 43.265625 11.1875 
Q 48.140625 15.828125 48.140625 23.484375 
Q 48.140625 30.71875 43.84375 35.015625 
Q 39.359375 39.5 32.125 39.5 
Q 21.96875 39.5 16.75 31.6875 
L 9.234375 32.671875 
L 13.8125 72.40625 
L 53.21875 72.40625 
L 53.21875 64.890625 
L 20.953125 64.890625 
L 17.71875 40.671875 
z
" id="IPAexGothic-53"/>
      </defs>
      <g transform="translate(93.12893 287.802625)scale(0.1 -0.1)">
       <use xlink:href="#IPAexGothic-49"/>
       <use x="62.988281" xlink:href="#IPAexGothic-53"/>
      </g>
     </g>
    </g>
    <g id="xtick_3">
     <g id="line2d_3">
      <g>
       <use style="stroke:#000000;stroke-width:0.8;" x="149.22101" xlink:href="#m9808174f14" y="273.312"/>
      </g>
     </g>
     <g id="text_3">
      <!-- Mar -->
      <defs>
       <path d="M 80.421875 0.984375 
L 71.828125 0.984375 
L 71.828125 39.59375 
Q 71.828125 51.265625 72.40625 64.59375 
L 72.015625 64.59375 
Q 68.0625 53.265625 63.53125 41.796875 
L 47.90625 3.265625 
L 41.40625 3.265625 
L 25.640625 42.578125 
Q 20.75 54.78125 17.625 64.703125 
L 17.234375 64.703125 
Q 17.828125 48.921875 17.828125 39.890625 
L 17.828125 0.984375 
L 9.515625 0.984375 
L 9.515625 72.40625 
L 22.125 72.40625 
L 39.109375 30.375 
Q 42.140625 23 44.828125 14.15625 
L 45.125 14.15625 
Q 47.3125 22.125 50.53125 30.171875 
L 67.4375 72.40625 
L 80.421875 72.40625 
z
" id="IPAexGothic-77"/>
       <path d="M 49.3125 0.984375 
L 41.75 0.984375 
Q 39.984375 4.734375 39.546875 8.6875 
L 39.203125 8.6875 
Q 33.546875 -0.390625 22.3125 -0.390625 
Q 14.59375 -0.390625 9.71875 4.5 
Q 5.421875 8.796875 5.421875 14.984375 
Q 5.421875 30.421875 32.03125 31.203125 
L 38.71875 31.390625 
L 38.71875 33.984375 
Q 38.71875 39.203125 35.75 42.1875 
Q 32.625 45.3125 27.734375 45.3125 
Q 19.34375 45.3125 15.140625 37.15625 
L 7.71875 40.578125 
Q 14.65625 52 27.9375 52 
Q 37.109375 52 42.046875 46.875 
Q 46.625 42.28125 46.625 33.890625 
L 46.625 15.578125 
Q 46.625 6.25 49.3125 0.984375 
z
M 38.921875 25.390625 
L 33.453125 25.296875 
Q 14.109375 24.859375 14.109375 14.890625 
Q 14.109375 11.375 16.40625 9.078125 
Q 19.234375 6.296875 23.828125 6.296875 
Q 30.21875 6.296875 34.90625 10.984375 
Q 38.921875 15.140625 38.921875 21 
z
" id="IPAexGothic-97"/>
       <path d="M 36.078125 51.8125 
L 34.578125 43.265625 
Q 32.90625 43.609375 31.59375 43.609375 
Q 25.828125 43.609375 22.078125 38.1875 
Q 17.390625 31.34375 17.390625 26.171875 
L 17.390625 0.984375 
L 8.796875 0.984375 
L 8.796875 50.78125 
L 16.890625 50.78125 
L 16.5 35.984375 
L 16.703125 35.984375 
Q 22.21875 52.203125 32.765625 52.203125 
Q 34.46875 52.203125 36.078125 51.8125 
z
" id="IPAexGothic-114"/>
      </defs>
      <g transform="translate(140.111635 287.802625)scale(0.1 -0.1)">
       <use xlink:href="#IPAexGothic-77"/>
       <use x="90.185547" xlink:href="#IPAexGothic-97"/>
       <use x="145.166016" xlink:href="#IPAexGothic-114"/>
      </g>
     </g>
    </g>
    <g id="xtick_4">
     <g id="line2d_4">
      <g>
       <use style="stroke:#000000;stroke-width:0.8;" x="195.695076" xlink:href="#m9808174f14" y="273.312"/>
      </g>
     </g>
     <g id="text_4">
      <!-- 15 -->
      <g transform="translate(189.396638 287.802625)scale(0.1 -0.1)">
       <use xlink:href="#IPAexGothic-49"/>
       <use x="62.988281" xlink:href="#IPAexGothic-53"/>
      </g>
     </g>
    </g>
    <g id="xtick_5">
     <g id="line2d_5">
      <g>
       <use style="stroke:#000000;stroke-width:0.8;" x="252.12787" xlink:href="#m9808174f14" y="273.312"/>
      </g>
     </g>
     <g id="text_5">
      <!-- Apr -->
      <defs>
       <path d="M 63.375 0.984375 
L 53.8125 0.984375 
L 45.90625 22.015625 
L 17.1875 22.015625 
L 9.421875 0.984375 
L -0.09375 0.984375 
L 28.21875 72.90625 
L 35.296875 72.90625 
z
M 43.40625 29.109375 
L 36.1875 48.09375 
Q 33.203125 56.0625 31.6875 62.5 
L 31.390625 62.5 
Q 29.640625 55.671875 26.8125 48.09375 
L 19.734375 29.109375 
z
" id="IPAexGothic-65"/>
       <path d="M 16.796875 42 
Q 23.828125 52.203125 34.46875 52.203125 
Q 43.265625 52.203125 49.5625 45.90625 
Q 56.890625 38.578125 56.890625 25.6875 
Q 56.890625 13.140625 49.65625 5.8125 
Q 43.359375 -0.484375 34.375 -0.484375 
Q 24.515625 -0.484375 17.28125 7.765625 
L 17.28125 -19 
L 8.796875 -19 
L 8.796875 50.78125 
L 16.796875 50.78125 
z
M 17.28125 30.46875 
L 17.28125 20.171875 
Q 17.28125 14.015625 23.6875 9.375 
Q 27.984375 6.296875 32.90625 6.296875 
Q 38.578125 6.296875 42.578125 10.296875 
Q 47.90625 15.578125 47.90625 25.484375 
Q 47.90625 34.375 43.5 39.984375 
Q 39.109375 45.3125 32.8125 45.3125 
Q 25.875 45.3125 20.90625 38.8125 
Q 17.28125 34.125 17.28125 30.46875 
z
" id="IPAexGothic-112"/>
      </defs>
      <g transform="translate(243.985682 287.802625)scale(0.1 -0.1)">
       <use xlink:href="#IPAexGothic-65"/>
       <use x="63.720703" xlink:href="#IPAexGothic-112"/>
       <use x="125.830078" xlink:href="#IPAexGothic-114"/>
      </g>
     </g>
    </g>
    <g id="xtick_6">
     <g id="line2d_6">
      <g>
       <use style="stroke:#000000;stroke-width:0.8;" x="298.601936" xlink:href="#m9808174f14" y="273.312"/>
      </g>
     </g>
     <g id="text_6">
      <!-- 15 -->
      <g transform="translate(292.303498 287.802625)scale(0.1 -0.1)">
       <use xlink:href="#IPAexGothic-49"/>
       <use x="62.988281" xlink:href="#IPAexGothic-53"/>
      </g>
     </g>
    </g>
    <g id="xtick_7">
     <g id="line2d_7">
      <g>
       <use style="stroke:#000000;stroke-width:0.8;" x="351.715154" xlink:href="#m9808174f14" y="273.312"/>
      </g>
     </g>
     <g id="text_7">
      <!-- May -->
      <defs>
       <path d="M 48.78125 50.78125 
L 24.609375 -7.625 
Q 19.96875 -18.796875 8.59375 -18.796875 
L 7.46875 -18.796875 
L 5.375 -10.984375 
L 6.984375 -10.984375 
Q 15.140625 -10.984375 17.96875 -3.71875 
L 21.1875 4.296875 
L 0.59375 50.78125 
L 10.296875 50.78125 
L 21.296875 22.796875 
Q 23.875 16.015625 25.09375 12.203125 
L 25.390625 12.203125 
Q 27.34375 18.265625 29.109375 22.796875 
L 39.5 50.78125 
z
" id="IPAexGothic-121"/>
      </defs>
      <g transform="translate(341.995622 287.802625)scale(0.1 -0.1)">
       <use xlink:href="#IPAexGothic-77"/>
       <use x="90.185547" xlink:href="#IPAexGothic-97"/>
       <use x="145.166016" xlink:href="#IPAexGothic-121"/>
      </g>
     </g>
    </g>
    <g id="xtick_8">
     <g id="line2d_8">
      <g>
       <use style="stroke:#000000;stroke-width:0.8;" x="398.18922" xlink:href="#m9808174f14" y="273.312"/>
      </g>
     </g>
     <g id="text_8">
      <!-- 15 -->
      <g transform="translate(391.890782 287.802625)scale(0.1 -0.1)">
       <use xlink:href="#IPAexGothic-49"/>
       <use x="62.988281" xlink:href="#IPAexGothic-53"/>
      </g>
     </g>
    </g>
    <g id="text_9">
     <!-- 2020-May -->
     <defs>
      <path d="M 57.171875 0.984375 
L 6.984375 0.984375 
L 6.984375 9.28125 
Q 12.890625 23.046875 29.59375 34.421875 
L 32.375 36.28125 
Q 40.921875 42.140625 43.609375 45.40625 
Q 46.6875 49.265625 46.6875 53.8125 
Q 46.6875 58.9375 43.0625 62.546875 
Q 39.0625 66.546875 32.5625 66.546875 
Q 19.53125 66.546875 15.484375 52 
L 7.765625 54.78125 
Q 13.328125 73.828125 33.0625 73.828125 
Q 43.84375 73.828125 50.25 67.4375 
Q 55.859375 61.671875 55.859375 53.515625 
Q 55.859375 47.46875 52.25 42.53125 
Q 48.921875 37.75 36.96875 30.28125 
L 34.859375 29 
Q 19.625 19.578125 15.28125 8.890625 
L 57.171875 8.890625 
z
" id="IPAexGothic-50"/>
      <path d="M 31.84375 73.828125 
Q 45.015625 73.828125 52.09375 61.625 
Q 57.71875 51.953125 57.71875 36.625 
Q 57.71875 21.4375 52.09375 11.578125 
Q 45.125 -0.484375 31.5 -0.484375 
Q 17.921875 -0.484375 10.9375 11.578125 
Q 5.328125 21.4375 5.328125 36.71875 
Q 5.328125 58.015625 15.625 67.71875 
Q 22.171875 73.828125 31.84375 73.828125 
z
M 31.5 66.65625 
Q 23.6875 66.65625 19.1875 58.734375 
Q 14.59375 50.734375 14.59375 36.625 
Q 14.59375 22.75 19.09375 14.796875 
Q 23.640625 6.984375 31.5 6.984375 
Q 40.921875 6.984375 45.453125 18.015625 
Q 48.4375 25.34375 48.4375 37.109375 
Q 48.4375 50.875 43.84375 58.734375 
Q 39.203125 66.65625 31.5 66.65625 
z
" id="IPAexGothic-48"/>
      <path d="M 30.765625 26.609375 
L 4.984375 26.609375 
L 4.984375 34.421875 
L 30.765625 34.421875 
z
" id="IPAexGothic-45"/>
     </defs>
     <g transform="translate(360.898125 300.19325)scale(0.1 -0.1)">
      <use xlink:href="#IPAexGothic-50"/>
      <use x="62.988281" xlink:href="#IPAexGothic-48"/>
      <use x="125.976562" xlink:href="#IPAexGothic-50"/>
      <use x="188.964844" xlink:href="#IPAexGothic-48"/>
      <use x="251.953125" xlink:href="#IPAexGothic-45"/>
      <use x="287.744141" xlink:href="#IPAexGothic-77"/>
      <use x="377.929688" xlink:href="#IPAexGothic-97"/>
      <use x="432.910156" xlink:href="#IPAexGothic-121"/>
     </g>
    </g>
   </g>
   <g id="matplotlib.axis_2">
    <g id="ytick_1">
     <g id="line2d_9">
      <defs>
       <path d="M 0 0 
L -3.5 0 
" id="m5c323ed3d6" style="stroke:#000000;stroke-width:0.8;"/>
      </defs>
      <g>
       <use style="stroke:#000000;stroke-width:0.8;" x="51.990625" xlink:href="#m5c323ed3d6" y="273.312"/>
      </g>
     </g>
     <g id="text_10">
      <!-- 0 -->
      <g transform="translate(38.692188 277.057312)scale(0.1 -0.1)">
       <use xlink:href="#IPAexGothic-48"/>
      </g>
     </g>
    </g>
    <g id="ytick_2">
     <g id="line2d_10">
      <g>
       <use style="stroke:#000000;stroke-width:0.8;" x="51.990625" xlink:href="#m5c323ed3d6" y="216.656347"/>
      </g>
     </g>
     <g id="text_11">
      <!-- 50000 -->
      <g transform="translate(13.498438 220.401659)scale(0.1 -0.1)">
       <use xlink:href="#IPAexGothic-53"/>
       <use x="62.988281" xlink:href="#IPAexGothic-48"/>
       <use x="125.976562" xlink:href="#IPAexGothic-48"/>
       <use x="188.964844" xlink:href="#IPAexGothic-48"/>
       <use x="251.953125" xlink:href="#IPAexGothic-48"/>
      </g>
     </g>
    </g>
    <g id="ytick_3">
     <g id="line2d_11">
      <g>
       <use style="stroke:#000000;stroke-width:0.8;" x="51.990625" xlink:href="#m5c323ed3d6" y="160.000693"/>
      </g>
     </g>
     <g id="text_12">
      <!-- 100000 -->
      <g transform="translate(7.2 163.746006)scale(0.1 -0.1)">
       <use xlink:href="#IPAexGothic-49"/>
       <use x="62.988281" xlink:href="#IPAexGothic-48"/>
       <use x="125.976562" xlink:href="#IPAexGothic-48"/>
       <use x="188.964844" xlink:href="#IPAexGothic-48"/>
       <use x="251.953125" xlink:href="#IPAexGothic-48"/>
       <use x="314.941406" xlink:href="#IPAexGothic-48"/>
      </g>
     </g>
    </g>
    <g id="ytick_4">
     <g id="line2d_12">
      <g>
       <use style="stroke:#000000;stroke-width:0.8;" x="51.990625" xlink:href="#m5c323ed3d6" y="103.34504"/>
      </g>
     </g>
     <g id="text_13">
      <!-- 150000 -->
      <g transform="translate(7.2 107.090353)scale(0.1 -0.1)">
       <use xlink:href="#IPAexGothic-49"/>
       <use x="62.988281" xlink:href="#IPAexGothic-53"/>
       <use x="125.976562" xlink:href="#IPAexGothic-48"/>
       <use x="188.964844" xlink:href="#IPAexGothic-48"/>
       <use x="251.953125" xlink:href="#IPAexGothic-48"/>
       <use x="314.941406" xlink:href="#IPAexGothic-48"/>
      </g>
     </g>
    </g>
    <g id="ytick_5">
     <g id="line2d_13">
      <g>
       <use style="stroke:#000000;stroke-width:0.8;" x="51.990625" xlink:href="#m5c323ed3d6" y="46.689387"/>
      </g>
     </g>
     <g id="text_14">
      <!-- 200000 -->
      <g transform="translate(7.2 50.434699)scale(0.1 -0.1)">
       <use xlink:href="#IPAexGothic-50"/>
       <use x="62.988281" xlink:href="#IPAexGothic-48"/>
       <use x="125.976562" xlink:href="#IPAexGothic-48"/>
       <use x="188.964844" xlink:href="#IPAexGothic-48"/>
       <use x="251.953125" xlink:href="#IPAexGothic-48"/>
       <use x="314.941406" xlink:href="#IPAexGothic-48"/>
      </g>
     </g>
    </g>
   </g>
   <g id="patch_189">
    <path d="M 51.990625 273.312 
L 51.990625 7.2 
" style="fill:none;stroke:#000000;stroke-linecap:square;stroke-linejoin:miter;stroke-width:0.8;"/>
   </g>
   <g id="patch_190">
    <path d="M 409.110625 273.312 
L 409.110625 7.2 
" style="fill:none;stroke:#000000;stroke-linecap:square;stroke-linejoin:miter;stroke-width:0.8;"/>
   </g>
   <g id="patch_191">
    <path d="M 51.990625 273.312 
L 409.110625 273.312 
" style="fill:none;stroke:#000000;stroke-linecap:square;stroke-linejoin:miter;stroke-width:0.8;"/>
   </g>
   <g id="patch_192">
    <path d="M 51.990625 7.2 
L 409.110625 7.2 
" style="fill:none;stroke:#000000;stroke-linecap:square;stroke-linejoin:miter;stroke-width:0.8;"/>
   </g>
   <g id="legend_1">
    <g id="patch_193">
     <path d="M 58.990625 44.039062 
L 132.0375 44.039062 
Q 134.0375 44.039062 134.0375 42.039062 
L 134.0375 14.2 
Q 134.0375 12.2 132.0375 12.2 
L 58.990625 12.2 
Q 56.990625 12.2 56.990625 14.2 
L 56.990625 42.039062 
Q 56.990625 44.039062 58.990625 44.039062 
z
" style="fill:#ffffff;opacity:0.8;stroke:#cccccc;stroke-linejoin:miter;"/>
    </g>
    <g id="patch_194">
     <path d="M 60.990625 23.690625 
L 80.990625 23.690625 
L 80.990625 16.690625 
L 60.990625 16.690625 
z
" style="fill:#1f77b4;"/>
    </g>
    <g id="text_15">
     <!-- Negative -->
     <defs>
      <path d="M 66.3125 0.984375 
L 58.296875 0.984375 
L 26.515625 49.21875 
Q 22.90625 54.6875 17.828125 64.015625 
L 17.4375 64.015625 
L 17.625 59.328125 
Q 18.109375 43.796875 18.109375 38.578125 
L 18.109375 0.984375 
L 9.515625 0.984375 
L 9.515625 72.40625 
L 21.34375 72.40625 
L 48.640625 30.90625 
Q 53.953125 22.609375 58.015625 15.09375 
L 58.40625 15.09375 
Q 57.71875 29.640625 57.71875 38.578125 
L 57.71875 72.40625 
L 66.3125 72.40625 
z
" id="IPAexGothic-78"/>
      <path d="M 20.796875 17.96875 
Q 15.71875 17.53125 15.71875 14.0625 
Q 15.71875 9.578125 27.546875 8.984375 
L 33.296875 8.6875 
Q 51.609375 7.765625 51.609375 -4.59375 
Q 51.609375 -10.9375 45.703125 -14.984375 
Q 39.359375 -19.578125 28.03125 -19.578125 
Q 17.78125 -19.578125 11.53125 -16.0625 
Q 5.515625 -12.640625 5.515625 -6.6875 
Q 5.515625 1.3125 16.796875 3.859375 
L 16.796875 4.203125 
Q 7.90625 6.453125 7.90625 12.15625 
Q 7.90625 17.4375 15.53125 20.265625 
Q 7.125 24.609375 7.125 34.078125 
Q 7.125 41.40625 12.015625 46.296875 
Q 17.625 51.90625 27.15625 51.90625 
Q 33.203125 51.90625 37.84375 49.265625 
Q 41.40625 53.953125 50.921875 54.109375 
L 50.921875 47.078125 
Q 44.34375 46.921875 42.234375 45.90625 
Q 47.40625 40.828125 47.40625 33.890625 
Q 47.40625 27 42.71875 22.265625 
Q 37.5 17.09375 28.328125 17.09375 
Q 24.421875 17.09375 20.796875 17.96875 
z
M 27.09375 45.609375 
Q 22.015625 45.609375 18.703125 42.28125 
Q 15.4375 39.015625 15.4375 34.078125 
Q 15.4375 29.25 18.5 26.3125 
Q 21.828125 23 27.4375 23 
Q 32.71875 23 35.890625 26.21875 
Q 39.109375 29.390625 39.109375 34.421875 
Q 39.109375 39.015625 35.890625 42.1875 
Q 32.515625 45.609375 27.09375 45.609375 
z
M 27.390625 2.484375 
Q 14.109375 2.484375 14.109375 -5.71875 
Q 14.109375 -13.671875 28.125 -13.671875 
Q 37.15625 -13.671875 41.21875 -9.46875 
Q 43.3125 -7.515625 43.3125 -4.890625 
Q 43.3125 2.484375 27.390625 2.484375 
z
" id="IPAexGothic-103"/>
      <path d="M 33.203125 3.765625 
Q 27.640625 -0.09375 21.828125 -0.09375 
Q 10.203125 -0.09375 10.203125 12.984375 
L 10.203125 44.671875 
L 3.421875 44.671875 
L 3.421875 50.78125 
L 10.203125 50.78125 
L 10.203125 61.96875 
L 18.40625 66.0625 
L 18.40625 50.78125 
L 32.234375 50.78125 
L 32.234375 44.671875 
L 18.40625 44.671875 
L 18.40625 14.15625 
Q 18.40625 6.5 23.640625 6.5 
Q 27.15625 6.5 30.328125 9.1875 
z
" id="IPAexGothic-116"/>
      <path d="M 18.40625 61.375 
L 8.59375 61.375 
L 8.59375 71.390625 
L 18.40625 71.390625 
z
M 17.78125 0.984375 
L 9.1875 0.984375 
L 9.1875 50.78125 
L 17.78125 50.78125 
z
" id="IPAexGothic-105"/>
      <path d="M 48.484375 50.78125 
L 27.296875 0.09375 
L 21.484375 0.09375 
L 0.390625 50.78125 
L 9.8125 50.78125 
L 20.90625 21.6875 
L 23.78125 13.1875 
L 24.515625 10.984375 
L 24.8125 10.984375 
Q 25.640625 13.8125 28.46875 21.6875 
L 39.3125 50.78125 
z
" id="IPAexGothic-118"/>
     </defs>
     <g transform="translate(88.990625 23.690625)scale(0.1 -0.1)">
      <use xlink:href="#IPAexGothic-78"/>
      <use x="75.976562" xlink:href="#IPAexGothic-101"/>
      <use x="132.861328" xlink:href="#IPAexGothic-103"/>
      <use x="188.378906" xlink:href="#IPAexGothic-97"/>
      <use x="243.359375" xlink:href="#IPAexGothic-116"/>
      <use x="277.978516" xlink:href="#IPAexGothic-105"/>
      <use x="304.980469" xlink:href="#IPAexGothic-118"/>
      <use x="353.564453" xlink:href="#IPAexGothic-101"/>
     </g>
    </g>
    <g id="patch_195">
     <path d="M 60.990625 38.139062 
L 80.990625 38.139062 
L 80.990625 31.139062 
L 60.990625 31.139062 
z
" style="fill:#ff7f0e;"/>
    </g>
    <g id="text_16">
     <!-- Positive -->
     <defs>
      <path d="M 9.515625 72.40625 
L 30.328125 72.40625 
Q 57.625 72.40625 57.625 51.90625 
Q 57.625 30.21875 29.78125 30.21875 
L 18.3125 30.21875 
L 18.3125 0.984375 
L 9.515625 0.984375 
z
M 18.3125 37.203125 
L 28.125 37.203125 
Q 48.4375 37.203125 48.4375 51.8125 
Q 48.4375 65.328125 29.59375 65.328125 
L 18.3125 65.328125 
z
" id="IPAexGothic-80"/>
      <path d="M 29.984375 52.203125 
Q 40.53125 52.203125 47.75 45.125 
Q 55.171875 37.703125 55.171875 25.59375 
Q 55.171875 13.875 47.90625 6.59375 
Q 40.765625 -0.484375 29.984375 -0.484375 
Q 19.1875 -0.484375 12.203125 6.5 
Q 4.890625 13.765625 4.890625 25.875 
Q 4.890625 37.703125 12.3125 45.125 
Q 19.390625 52.203125 29.984375 52.203125 
z
M 29.984375 45.609375 
Q 23.734375 45.609375 19.390625 41.109375 
Q 13.875 35.59375 13.875 25.78125 
Q 13.875 16.109375 19.28125 10.6875 
Q 23.6875 6.296875 29.984375 6.296875 
Q 36.421875 6.296875 40.765625 10.796875 
Q 46.1875 16.21875 46.1875 26.125 
Q 46.1875 35.453125 40.671875 41.109375 
Q 36.1875 45.609375 29.984375 45.609375 
z
" id="IPAexGothic-111"/>
      <path d="M 34.90625 39.796875 
Q 30.28125 45.796875 23.1875 45.796875 
Q 13.921875 45.796875 13.921875 38.671875 
Q 13.921875 33.640625 23.921875 30.375 
L 27.203125 29.296875 
Q 41.40625 24.65625 41.40625 13.96875 
Q 41.40625 6.78125 35.5 2.6875 
Q 30.8125 -0.484375 23.390625 -0.484375 
Q 11.96875 -0.484375 4 7.859375 
L 9.421875 12.796875 
Q 15.578125 6.203125 23.6875 6.203125 
Q 33.296875 6.203125 33.296875 13.671875 
Q 33.296875 19.34375 22.703125 23.09375 
L 19.28125 24.265625 
Q 5.90625 28.953125 5.90625 37.984375 
Q 5.90625 43.703125 9.8125 47.609375 
Q 14.5 52.296875 22.703125 52.296875 
Q 33.6875 52.296875 40.71875 44.671875 
z
" id="IPAexGothic-115"/>
     </defs>
     <g transform="translate(88.990625 38.139062)scale(0.1 -0.1)">
      <use xlink:href="#IPAexGothic-80"/>
      <use x="62.109375" xlink:href="#IPAexGothic-111"/>
      <use x="122.509766" xlink:href="#IPAexGothic-115"/>
      <use x="168.701172" xlink:href="#IPAexGothic-105"/>
      <use x="195.703125" xlink:href="#IPAexGothic-116"/>
      <use x="230.322266" xlink:href="#IPAexGothic-105"/>
      <use x="257.324219" xlink:href="#IPAexGothic-118"/>
      <use x="305.908203" xlink:href="#IPAexGothic-101"/>
     </g>
    </g>
   </g>
  </g>
 </g>
 <defs>
  <clipPath id="p3ef308e8ca">
   <rect height="266.112" width="357.12" x="51.990625" y="7.2"/>
  </clipPath>
 </defs>
</svg>
