<?xml version="1.0" encoding="utf-8" standalone="no"?>
<!DOCTYPE svg PUBLIC "-//W3C//DTD SVG 1.1//EN"
  "http://www.w3.org/Graphics/SVG/1.1/DTD/svg11.dtd">
<!-- Created with matplotlib (https://matplotlib.org/) -->
<svg height="309.29325pt" version="1.1" viewBox="0 0 403.71375 309.29325" width="403.71375pt" xmlns="http://www.w3.org/2000/svg" xmlns:xlink="http://www.w3.org/1999/xlink">
 <defs>
  <style type="text/css">
*{stroke-linecap:butt;stroke-linejoin:round;}
  </style>
 </defs>
 <g id="figure_1">
  <g id="patch_1">
   <path d="M 0 309.29325 
L 403.71375 309.29325 
L 403.71375 0 
L 0 0 
z
" style="fill:#ffffff;"/>
  </g>
  <g id="axes_1">
   <g id="patch_2">
    <path d="M 39.39375 273.312 
L 396.51375 273.312 
L 396.51375 7.2 
L 39.39375 7.2 
z
" style="fill:#ffffff;"/>
   </g>
   <g id="line2d_1">
    <path clip-path="url(#p686e0e4929)" d="M 39.39375 19.872 
L 396.51375 19.872 
" style="fill:none;stroke:#808080;stroke-dasharray:5.55,2.4;stroke-dashoffset:0;stroke-width:1.5;"/>
   </g>
   <g id="line2d_2">
    <path clip-path="url(#p686e0e4929)" d="M 39.39375 146.592 
L 396.51375 146.592 
" style="fill:none;stroke:#808080;stroke-dasharray:5.55,2.4;stroke-dashoffset:0;stroke-width:1.5;"/>
   </g>
   <g id="patch_3">
    <path clip-path="url(#p686e0e4929)" d="M 55.626477 273.312 
L 58.48687 273.312 
L 58.48687 273.241128 
L 55.626477 273.241128 
z
" style="fill:#1f77b4;"/>
   </g>
   <g id="patch_4">
    <path clip-path="url(#p686e0e4929)" d="M 59.201968 273.312 
L 62.06236 273.312 
L 62.06236 273.170255 
L 59.201968 273.170255 
z
" style="fill:#1f77b4;"/>
   </g>
   <g id="patch_5">
    <path clip-path="url(#p686e0e4929)" d="M 62.777458 273.312 
L 65.637851 273.312 
L 65.637851 273.170255 
L 62.777458 273.170255 
z
" style="fill:#1f77b4;"/>
   </g>
   <g id="patch_6">
    <path clip-path="url(#p686e0e4929)" d="M 66.352949 273.312 
L 69.213342 273.312 
L 69.213342 273.170255 
L 66.352949 273.170255 
z
" style="fill:#1f77b4;"/>
   </g>
   <g id="patch_7">
    <path clip-path="url(#p686e0e4929)" d="M 69.92844 273.312 
L 72.788832 273.312 
L 72.788832 273.170255 
L 69.92844 273.170255 
z
" style="fill:#1f77b4;"/>
   </g>
   <g id="patch_8">
    <path clip-path="url(#p686e0e4929)" d="M 73.50393 273.312 
L 76.364323 273.312 
L 76.364323 273.170255 
L 73.50393 273.170255 
z
" style="fill:#1f77b4;"/>
   </g>
   <g id="patch_9">
    <path clip-path="url(#p686e0e4929)" d="M 77.079421 273.312 
L 79.939813 273.312 
L 79.939813 273.099383 
L 77.079421 273.099383 
z
" style="fill:#1f77b4;"/>
   </g>
   <g id="patch_10">
    <path clip-path="url(#p686e0e4929)" d="M 80.654911 273.312 
L 83.515304 273.312 
L 83.515304 273.099383 
L 80.654911 273.099383 
z
" style="fill:#1f77b4;"/>
   </g>
   <g id="patch_11">
    <path clip-path="url(#p686e0e4929)" d="M 84.230402 273.312 
L 87.090794 273.312 
L 87.090794 273.099383 
L 84.230402 273.099383 
z
" style="fill:#1f77b4;"/>
   </g>
   <g id="patch_12">
    <path clip-path="url(#p686e0e4929)" d="M 87.805893 273.312 
L 90.666285 273.312 
L 90.666285 273.099383 
L 87.805893 273.099383 
z
" style="fill:#1f77b4;"/>
   </g>
   <g id="patch_13">
    <path clip-path="url(#p686e0e4929)" d="M 91.381383 273.312 
L 94.241776 273.312 
L 94.241776 273.099383 
L 91.381383 273.099383 
z
" style="fill:#1f77b4;"/>
   </g>
   <g id="patch_14">
    <path clip-path="url(#p686e0e4929)" d="M 94.956874 273.312 
L 97.817266 273.312 
L 97.817266 273.099383 
L 94.956874 273.099383 
z
" style="fill:#1f77b4;"/>
   </g>
   <g id="patch_15">
    <path clip-path="url(#p686e0e4929)" d="M 98.532364 273.312 
L 101.392757 273.312 
L 101.392757 273.099383 
L 98.532364 273.099383 
z
" style="fill:#1f77b4;"/>
   </g>
   <g id="patch_16">
    <path clip-path="url(#p686e0e4929)" d="M 102.107855 273.312 
L 104.968247 273.312 
L 104.968247 273.099383 
L 102.107855 273.099383 
z
" style="fill:#1f77b4;"/>
   </g>
   <g id="patch_17">
    <path clip-path="url(#p686e0e4929)" d="M 105.683346 273.312 
L 108.543738 273.312 
L 108.543738 273.099383 
L 105.683346 273.099383 
z
" style="fill:#1f77b4;"/>
   </g>
   <g id="patch_18">
    <path clip-path="url(#p686e0e4929)" d="M 109.258836 273.312 
L 112.119229 273.312 
L 112.119229 273.099383 
L 109.258836 273.099383 
z
" style="fill:#1f77b4;"/>
   </g>
   <g id="patch_19">
    <path clip-path="url(#p686e0e4929)" d="M 112.834327 273.312 
L 115.694719 273.312 
L 115.694719 273.099383 
L 112.834327 273.099383 
z
" style="fill:#1f77b4;"/>
   </g>
   <g id="patch_20">
    <path clip-path="url(#p686e0e4929)" d="M 116.409817 273.312 
L 119.27021 273.312 
L 119.27021 273.099383 
L 116.409817 273.099383 
z
" style="fill:#1f77b4;"/>
   </g>
   <g id="patch_21">
    <path clip-path="url(#p686e0e4929)" d="M 119.985308 273.312 
L 122.8457 273.312 
L 122.8457 273.099383 
L 119.985308 273.099383 
z
" style="fill:#1f77b4;"/>
   </g>
   <g id="patch_22">
    <path clip-path="url(#p686e0e4929)" d="M 123.560798 273.312 
L 126.421191 273.312 
L 126.421191 273.099383 
L 123.560798 273.099383 
z
" style="fill:#1f77b4;"/>
   </g>
   <g id="patch_23">
    <path clip-path="url(#p686e0e4929)" d="M 127.136289 273.312 
L 129.996682 273.312 
L 129.996682 273.02851 
L 127.136289 273.02851 
z
" style="fill:#1f77b4;"/>
   </g>
   <g id="patch_24">
    <path clip-path="url(#p686e0e4929)" d="M 130.71178 273.312 
L 133.572172 273.312 
L 133.572172 272.886765 
L 130.71178 272.886765 
z
" style="fill:#1f77b4;"/>
   </g>
   <g id="patch_25">
    <path clip-path="url(#p686e0e4929)" d="M 134.28727 273.312 
L 137.147663 273.312 
L 137.147663 272.319785 
L 134.28727 272.319785 
z
" style="fill:#1f77b4;"/>
   </g>
   <g id="patch_26">
    <path clip-path="url(#p686e0e4929)" d="M 137.862761 273.312 
L 140.723153 273.312 
L 140.723153 271.965423 
L 137.862761 271.965423 
z
" style="fill:#1f77b4;"/>
   </g>
   <g id="patch_27">
    <path clip-path="url(#p686e0e4929)" d="M 141.438251 273.312 
L 144.298644 273.312 
L 144.298644 271.965423 
L 141.438251 271.965423 
z
" style="fill:#1f77b4;"/>
   </g>
   <g id="patch_28">
    <path clip-path="url(#p686e0e4929)" d="M 145.013742 273.312 
L 147.874134 273.312 
L 147.874134 271.752805 
L 145.013742 271.752805 
z
" style="fill:#1f77b4;"/>
   </g>
   <g id="patch_29">
    <path clip-path="url(#p686e0e4929)" d="M 148.589233 273.312 
L 151.449625 273.312 
L 151.449625 271.540188 
L 148.589233 271.540188 
z
" style="fill:#1f77b4;"/>
   </g>
   <g id="patch_30">
    <path clip-path="url(#p686e0e4929)" d="M 152.164723 273.312 
L 155.025116 273.312 
L 155.025116 271.540188 
L 152.164723 271.540188 
z
" style="fill:#1f77b4;"/>
   </g>
   <g id="patch_31">
    <path clip-path="url(#p686e0e4929)" d="M 155.740214 273.312 
L 158.600606 273.312 
L 158.600606 271.32757 
L 155.740214 271.32757 
z
" style="fill:#1f77b4;"/>
   </g>
   <g id="patch_32">
    <path clip-path="url(#p686e0e4929)" d="M 159.315704 273.312 
L 162.176097 273.312 
L 162.176097 271.256698 
L 159.315704 271.256698 
z
" style="fill:#1f77b4;"/>
   </g>
   <g id="patch_33">
    <path clip-path="url(#p686e0e4929)" d="M 162.891195 273.312 
L 165.751587 273.312 
L 165.751587 271.256698 
L 162.891195 271.256698 
z
" style="fill:#1f77b4;"/>
   </g>
   <g id="patch_34">
    <path clip-path="url(#p686e0e4929)" d="M 166.466686 273.312 
L 169.327078 273.312 
L 169.327078 271.044081 
L 166.466686 271.044081 
z
" style="fill:#1f77b4;"/>
   </g>
   <g id="patch_35">
    <path clip-path="url(#p686e0e4929)" d="M 170.042176 273.312 
L 172.902569 273.312 
L 172.902569 271.044081 
L 170.042176 271.044081 
z
" style="fill:#1f77b4;"/>
   </g>
   <g id="patch_36">
    <path clip-path="url(#p686e0e4929)" d="M 173.617667 273.312 
L 176.478059 273.312 
L 176.478059 270.831463 
L 173.617667 270.831463 
z
" style="fill:#1f77b4;"/>
   </g>
   <g id="patch_37">
    <path clip-path="url(#p686e0e4929)" d="M 177.193157 273.312 
L 180.05355 273.312 
L 180.05355 270.760591 
L 177.193157 270.760591 
z
" style="fill:#1f77b4;"/>
   </g>
   <g id="patch_38">
    <path clip-path="url(#p686e0e4929)" d="M 180.768648 273.312 
L 183.62904 273.312 
L 183.62904 270.760591 
L 180.768648 270.760591 
z
" style="fill:#1f77b4;"/>
   </g>
   <g id="patch_39">
    <path clip-path="url(#p686e0e4929)" d="M 184.344138 273.312 
L 187.204531 273.312 
L 187.204531 270.689718 
L 184.344138 270.689718 
z
" style="fill:#1f77b4;"/>
   </g>
   <g id="patch_40">
    <path clip-path="url(#p686e0e4929)" d="M 187.919629 273.312 
L 190.780022 273.312 
L 190.780022 270.547973 
L 187.919629 270.547973 
z
" style="fill:#1f77b4;"/>
   </g>
   <g id="patch_41">
    <path clip-path="url(#p686e0e4929)" d="M 191.49512 273.312 
L 194.355512 273.312 
L 194.355512 270.547973 
L 191.49512 270.547973 
z
" style="fill:#1f77b4;"/>
   </g>
   <g id="patch_42">
    <path clip-path="url(#p686e0e4929)" d="M 195.07061 273.312 
L 197.931003 273.312 
L 197.931003 270.477101 
L 195.07061 270.477101 
z
" style="fill:#1f77b4;"/>
   </g>
   <g id="patch_43">
    <path clip-path="url(#p686e0e4929)" d="M 198.646101 273.312 
L 201.506493 273.312 
L 201.506493 270.193611 
L 198.646101 270.193611 
z
" style="fill:#1f77b4;"/>
   </g>
   <g id="patch_44">
    <path clip-path="url(#p686e0e4929)" d="M 202.221591 273.312 
L 205.081984 273.312 
L 205.081984 269.626631 
L 202.221591 269.626631 
z
" style="fill:#1f77b4;"/>
   </g>
   <g id="patch_45">
    <path clip-path="url(#p686e0e4929)" d="M 205.797082 273.312 
L 208.657474 273.312 
L 208.657474 269.201396 
L 205.797082 269.201396 
z
" style="fill:#1f77b4;"/>
   </g>
   <g id="patch_46">
    <path clip-path="url(#p686e0e4929)" d="M 209.372573 273.312 
L 212.232965 273.312 
L 212.232965 268.776161 
L 209.372573 268.776161 
z
" style="fill:#1f77b4;"/>
   </g>
   <g id="patch_47">
    <path clip-path="url(#p686e0e4929)" d="M 212.948063 273.312 
L 215.808456 273.312 
L 215.808456 268.776161 
L 212.948063 268.776161 
z
" style="fill:#1f77b4;"/>
   </g>
   <g id="patch_48">
    <path clip-path="url(#p686e0e4929)" d="M 216.523554 273.312 
L 219.383946 273.312 
L 219.383946 268.776161 
L 216.523554 268.776161 
z
" style="fill:#1f77b4;"/>
   </g>
   <g id="patch_49">
    <path clip-path="url(#p686e0e4929)" d="M 220.099044 273.312 
L 222.959437 273.312 
L 222.959437 268.563544 
L 220.099044 268.563544 
z
" style="fill:#1f77b4;"/>
   </g>
   <g id="patch_50">
    <path clip-path="url(#p686e0e4929)" d="M 223.674535 273.312 
L 226.534927 273.312 
L 226.534927 268.138309 
L 223.674535 268.138309 
z
" style="fill:#1f77b4;"/>
   </g>
   <g id="patch_51">
    <path clip-path="url(#p686e0e4929)" d="M 227.250026 273.312 
L 230.110418 273.312 
L 230.110418 267.996564 
L 227.250026 267.996564 
z
" style="fill:#1f77b4;"/>
   </g>
   <g id="patch_52">
    <path clip-path="url(#p686e0e4929)" d="M 230.825516 273.312 
L 233.685909 273.312 
L 233.685909 267.854819 
L 230.825516 267.854819 
z
" style="fill:#1f77b4;"/>
   </g>
   <g id="patch_53">
    <path clip-path="url(#p686e0e4929)" d="M 234.401007 273.312 
L 237.261399 273.312 
L 237.261399 267.146094 
L 234.401007 267.146094 
z
" style="fill:#1f77b4;"/>
   </g>
   <g id="patch_54">
    <path clip-path="url(#p686e0e4929)" d="M 237.976497 273.312 
L 240.83689 273.312 
L 240.83689 266.933477 
L 237.976497 266.933477 
z
" style="fill:#1f77b4;"/>
   </g>
   <g id="patch_55">
    <path clip-path="url(#p686e0e4929)" d="M 241.551988 273.312 
L 244.41238 273.312 
L 244.41238 266.933477 
L 241.551988 266.933477 
z
" style="fill:#1f77b4;"/>
   </g>
   <g id="patch_56">
    <path clip-path="url(#p686e0e4929)" d="M 245.127478 273.312 
L 247.987871 273.312 
L 247.987871 266.083007 
L 245.127478 266.083007 
z
" style="fill:#1f77b4;"/>
   </g>
   <g id="patch_57">
    <path clip-path="url(#p686e0e4929)" d="M 248.702969 273.312 
L 251.563362 273.312 
L 251.563362 265.445154 
L 248.702969 265.445154 
z
" style="fill:#1f77b4;"/>
   </g>
   <g id="patch_58">
    <path clip-path="url(#p686e0e4929)" d="M 252.27846 273.312 
L 255.138852 273.312 
L 255.138852 264.949047 
L 252.27846 264.949047 
z
" style="fill:#1f77b4;"/>
   </g>
   <g id="patch_59">
    <path clip-path="url(#p686e0e4929)" d="M 255.85395 273.312 
L 258.714343 273.312 
L 258.714343 264.16945 
L 255.85395 264.16945 
z
" style="fill:#1f77b4;"/>
   </g>
   <g id="patch_60">
    <path clip-path="url(#p686e0e4929)" d="M 259.429441 273.312 
L 262.289833 273.312 
L 262.289833 263.673342 
L 259.429441 263.673342 
z
" style="fill:#1f77b4;"/>
   </g>
   <g id="patch_61">
    <path clip-path="url(#p686e0e4929)" d="M 263.004931 273.312 
L 265.865324 273.312 
L 265.865324 263.531597 
L 263.004931 263.531597 
z
" style="fill:#1f77b4;"/>
   </g>
   <g id="patch_62">
    <path clip-path="url(#p686e0e4929)" d="M 266.580422 273.312 
L 269.440814 273.312 
L 269.440814 262.397638 
L 266.580422 262.397638 
z
" style="fill:#1f77b4;"/>
   </g>
   <g id="patch_63">
    <path clip-path="url(#p686e0e4929)" d="M 270.155913 273.312 
L 273.016305 273.312 
L 273.016305 261.192805 
L 270.155913 261.192805 
z
" style="fill:#1f77b4;"/>
   </g>
   <g id="patch_64">
    <path clip-path="url(#p686e0e4929)" d="M 273.731403 273.312 
L 276.591796 273.312 
L 276.591796 258.287034 
L 273.731403 258.287034 
z
" style="fill:#1f77b4;"/>
   </g>
   <g id="patch_65">
    <path clip-path="url(#p686e0e4929)" d="M 277.306894 273.312 
L 280.167286 273.312 
L 280.167286 254.956027 
L 277.306894 254.956027 
z
" style="fill:#1f77b4;"/>
   </g>
   <g id="patch_66">
    <path clip-path="url(#p686e0e4929)" d="M 280.882384 273.312 
L 283.742777 273.312 
L 283.742777 252.121128 
L 280.882384 252.121128 
z
" style="fill:#1f77b4;"/>
   </g>
   <g id="patch_67">
    <path clip-path="url(#p686e0e4929)" d="M 284.457875 273.312 
L 287.318267 273.312 
L 287.318267 247.656161 
L 284.457875 247.656161 
z
" style="fill:#1f77b4;"/>
   </g>
   <g id="patch_68">
    <path clip-path="url(#p686e0e4929)" d="M 288.033366 273.312 
L 290.893758 273.312 
L 290.893758 242.836832 
L 288.033366 242.836832 
z
" style="fill:#1f77b4;"/>
   </g>
   <g id="patch_69">
    <path clip-path="url(#p686e0e4929)" d="M 291.608856 273.312 
L 294.469249 273.312 
L 294.469249 241.91549 
L 291.608856 241.91549 
z
" style="fill:#1f77b4;"/>
   </g>
   <g id="patch_70">
    <path clip-path="url(#p686e0e4929)" d="M 295.184347 273.312 
L 298.044739 273.312 
L 298.044739 236.387436 
L 295.184347 236.387436 
z
" style="fill:#1f77b4;"/>
   </g>
   <g id="patch_71">
    <path clip-path="url(#p686e0e4929)" d="M 298.759837 273.312 
L 301.62023 273.312 
L 301.62023 231.709852 
L 298.759837 231.709852 
z
" style="fill:#1f77b4;"/>
   </g>
   <g id="patch_72">
    <path clip-path="url(#p686e0e4929)" d="M 302.335328 273.312 
L 305.19572 273.312 
L 305.19572 224.835221 
L 302.335328 224.835221 
z
" style="fill:#1f77b4;"/>
   </g>
   <g id="patch_73">
    <path clip-path="url(#p686e0e4929)" d="M 305.910818 273.312 
L 308.771211 273.312 
L 308.771211 218.52757 
L 305.910818 218.52757 
z
" style="fill:#1f77b4;"/>
   </g>
   <g id="patch_74">
    <path clip-path="url(#p686e0e4929)" d="M 309.486309 273.312 
L 312.346702 273.312 
L 312.346702 210.306362 
L 309.486309 210.306362 
z
" style="fill:#1f77b4;"/>
   </g>
   <g id="patch_75">
    <path clip-path="url(#p686e0e4929)" d="M 313.0618 273.312 
L 315.922192 273.312 
L 315.922192 200.171597 
L 313.0618 200.171597 
z
" style="fill:#1f77b4;"/>
   </g>
   <g id="patch_76">
    <path clip-path="url(#p686e0e4929)" d="M 316.63729 273.312 
L 319.497683 273.312 
L 319.497683 194.289181 
L 316.63729 194.289181 
z
" style="fill:#1f77b4;"/>
   </g>
   <g id="patch_77">
    <path clip-path="url(#p686e0e4929)" d="M 320.212781 273.312 
L 323.073173 273.312 
L 323.073173 188.690255 
L 320.212781 188.690255 
z
" style="fill:#1f77b4;"/>
   </g>
   <g id="patch_78">
    <path clip-path="url(#p686e0e4929)" d="M 323.788271 273.312 
L 326.648664 273.312 
L 326.648664 178.484617 
L 323.788271 178.484617 
z
" style="fill:#1f77b4;"/>
   </g>
   <g id="patch_79">
    <path clip-path="url(#p686e0e4929)" d="M 327.363762 273.312 
L 330.224154 273.312 
L 330.224154 165.869315 
L 327.363762 165.869315 
z
" style="fill:#1f77b4;"/>
   </g>
   <g id="patch_80">
    <path clip-path="url(#p686e0e4929)" d="M 330.939253 273.312 
L 333.799645 273.312 
L 333.799645 152.474416 
L 330.939253 152.474416 
z
" style="fill:#1f77b4;"/>
   </g>
   <g id="patch_81">
    <path clip-path="url(#p686e0e4929)" d="M 334.514743 273.312 
L 337.375136 273.312 
L 337.375136 138.512537 
L 334.514743 138.512537 
z
" style="fill:#1f77b4;"/>
   </g>
   <g id="patch_82">
    <path clip-path="url(#p686e0e4929)" d="M 338.090234 273.312 
L 340.950626 273.312 
L 340.950626 126.747705 
L 338.090234 126.747705 
z
" style="fill:#1f77b4;"/>
   </g>
   <g id="patch_83">
    <path clip-path="url(#p686e0e4929)" d="M 341.665724 273.312 
L 344.526117 273.312 
L 344.526117 120.298309 
L 341.665724 120.298309 
z
" style="fill:#1f77b4;"/>
   </g>
   <g id="patch_84">
    <path clip-path="url(#p686e0e4929)" d="M 345.241215 273.312 
L 348.101607 273.312 
L 348.101607 108.887839 
L 345.241215 108.887839 
z
" style="fill:#1f77b4;"/>
   </g>
   <g id="patch_85">
    <path clip-path="url(#p686e0e4929)" d="M 348.816706 273.312 
L 351.677098 273.312 
L 351.677098 99.887034 
L 348.816706 99.887034 
z
" style="fill:#1f77b4;"/>
   </g>
   <g id="patch_86">
    <path clip-path="url(#p686e0e4929)" d="M 352.392196 273.312 
L 355.252589 273.312 
L 355.252589 89.327034 
L 352.392196 89.327034 
z
" style="fill:#1f77b4;"/>
   </g>
   <g id="patch_87">
    <path clip-path="url(#p686e0e4929)" d="M 355.967687 273.312 
L 358.828079 273.312 
L 358.828079 75.081664 
L 355.967687 75.081664 
z
" style="fill:#1f77b4;"/>
   </g>
   <g id="patch_88">
    <path clip-path="url(#p686e0e4929)" d="M 359.543177 273.312 
L 362.40357 273.312 
L 362.40357 62.253745 
L 359.543177 62.253745 
z
" style="fill:#1f77b4;"/>
   </g>
   <g id="patch_89">
    <path clip-path="url(#p686e0e4929)" d="M 363.118668 273.312 
L 365.97906 273.312 
L 365.97906 54.670389 
L 363.118668 54.670389 
z
" style="fill:#1f77b4;"/>
   </g>
   <g id="patch_90">
    <path clip-path="url(#p686e0e4929)" d="M 366.694158 273.312 
L 369.554551 273.312 
L 369.554551 47.441396 
L 366.694158 47.441396 
z
" style="fill:#1f77b4;"/>
   </g>
   <g id="patch_91">
    <path clip-path="url(#p686e0e4929)" d="M 370.269649 273.312 
L 373.130042 273.312 
L 373.130042 38.724081 
L 370.269649 38.724081 
z
" style="fill:#1f77b4;"/>
   </g>
   <g id="patch_92">
    <path clip-path="url(#p686e0e4929)" d="M 373.84514 273.312 
L 376.705532 273.312 
L 376.705532 29.368913 
L 373.84514 29.368913 
z
" style="fill:#1f77b4;"/>
   </g>
   <g id="patch_93">
    <path clip-path="url(#p686e0e4929)" d="M 377.42063 273.312 
L 380.281023 273.312 
L 380.281023 19.872 
L 377.42063 19.872 
z
" style="fill:#1f77b4;"/>
   </g>
   <g id="matplotlib.axis_1">
    <g id="xtick_1">
     <g id="line2d_3">
      <defs>
       <path d="M 0 0 
L 0 3.5 
" id="mfca1d1fcd1" style="stroke:#000000;stroke-width:0.8;"/>
      </defs>
      <g>
       <use style="stroke:#000000;stroke-width:0.8;" x="84.230402" xlink:href="#mfca1d1fcd1" y="273.312"/>
      </g>
     </g>
     <g id="text_1">
      <!-- Feb -->
      <defs>
       <path d="M 54.203125 64.703125 
L 18.3125 64.703125 
L 18.3125 41.5 
L 50.09375 41.5 
L 50.09375 34.1875 
L 18.3125 34.1875 
L 18.3125 0.984375 
L 9.515625 0.984375 
L 9.515625 72.40625 
L 54.203125 72.40625 
z
" id="IPAexGothic-70"/>
       <path d="M 13.484375 24.90625 
Q 13.921875 16.265625 18.890625 11.28125 
Q 23.96875 6.203125 31.203125 6.203125 
Q 40.71875 6.203125 46.296875 15.09375 
L 51.90625 11.375 
Q 44.828125 -0.484375 30.171875 -0.484375 
Q 19.09375 -0.484375 11.96875 6.59375 
Q 4.78125 13.8125 4.78125 25.640625 
Q 4.78125 38.1875 12.3125 45.703125 
Q 19 52.390625 29 52.390625 
Q 38.421875 52.390625 44.78125 46.1875 
Q 51.90625 38.96875 51.90625 26.90625 
L 51.90625 24.90625 
z
M 43.0625 31.203125 
Q 42.328125 37.984375 38.28125 41.890625 
Q 34.28125 45.90625 28.8125 45.90625 
Q 22.46875 45.90625 17.96875 40.484375 
Q 14.890625 36.8125 13.96875 31.203125 
z
" id="IPAexGothic-101"/>
       <path d="M 17.578125 42.671875 
Q 24.21875 52.203125 34.671875 52.203125 
Q 43.5625 52.203125 49.859375 45.90625 
Q 57.171875 38.578125 57.171875 25.6875 
Q 57.171875 13.09375 49.859375 5.8125 
Q 43.5625 -0.484375 34.46875 -0.484375 
Q 24.359375 -0.484375 17 8.0625 
L 15.765625 0.6875 
L 9.078125 0.6875 
L 9.078125 74.90625 
L 17.578125 74.90625 
z
M 17.578125 31.203125 
L 17.578125 19.578125 
Q 17.578125 13.875 23.875 9.375 
Q 28.171875 6.296875 33.109375 6.296875 
Q 38.875 6.296875 42.875 10.296875 
Q 48.1875 15.765625 48.1875 25.484375 
Q 48.1875 34.28125 43.796875 39.890625 
Q 39.453125 45.3125 33.203125 45.3125 
Q 27.484375 45.3125 22.46875 40.28125 
Q 17.578125 35.40625 17.578125 31.203125 
z
" id="IPAexGothic-98"/>
      </defs>
      <g transform="translate(75.406964 287.802625)scale(0.1 -0.1)">
       <use xlink:href="#IPAexGothic-70"/>
       <use x="57.177734" xlink:href="#IPAexGothic-101"/>
       <use x="114.0625" xlink:href="#IPAexGothic-98"/>
      </g>
     </g>
    </g>
    <g id="xtick_2">
     <g id="line2d_4">
      <g>
       <use style="stroke:#000000;stroke-width:0.8;" x="134.28727" xlink:href="#mfca1d1fcd1" y="273.312"/>
      </g>
     </g>
     <g id="text_2">
      <!-- 15 -->
      <defs>
       <path d="M 38.484375 0.984375 
L 29.6875 0.984375 
L 29.6875 64.109375 
Q 21.4375 61.28125 12.3125 59.328125 
L 10.6875 66.109375 
Q 23.734375 69.390625 32.90625 73.921875 
L 38.484375 73.921875 
z
" id="IPAexGothic-49"/>
       <path d="M 18.40625 40.671875 
Q 25.53125 46.296875 33.9375 46.296875 
Q 44 46.296875 50.640625 39.5 
Q 56.84375 33.015625 56.84375 23.390625 
Q 56.84375 14.65625 51.515625 8.015625 
Q 44.828125 -0.484375 31.734375 -0.484375 
Q 14.984375 -0.484375 7.328125 12.25 
L 14.65625 16.0625 
Q 20.453125 6.78125 31.453125 6.78125 
Q 38.53125 6.78125 43.265625 11.1875 
Q 48.140625 15.828125 48.140625 23.484375 
Q 48.140625 30.71875 43.84375 35.015625 
Q 39.359375 39.5 32.125 39.5 
Q 21.96875 39.5 16.75 31.6875 
L 9.234375 32.671875 
L 13.8125 72.40625 
L 53.21875 72.40625 
L 53.21875 64.890625 
L 20.953125 64.890625 
L 17.71875 40.671875 
z
" id="IPAexGothic-53"/>
      </defs>
      <g transform="translate(127.988833 287.802625)scale(0.1 -0.1)">
       <use xlink:href="#IPAexGothic-49"/>
       <use x="62.988281" xlink:href="#IPAexGothic-53"/>
      </g>
     </g>
    </g>
    <g id="xtick_3">
     <g id="line2d_5">
      <g>
       <use style="stroke:#000000;stroke-width:0.8;" x="187.919629" xlink:href="#mfca1d1fcd1" y="273.312"/>
      </g>
     </g>
     <g id="text_3">
      <!-- Mar -->
      <defs>
       <path d="M 80.421875 0.984375 
L 71.828125 0.984375 
L 71.828125 39.59375 
Q 71.828125 51.265625 72.40625 64.59375 
L 72.015625 64.59375 
Q 68.0625 53.265625 63.53125 41.796875 
L 47.90625 3.265625 
L 41.40625 3.265625 
L 25.640625 42.578125 
Q 20.75 54.78125 17.625 64.703125 
L 17.234375 64.703125 
Q 17.828125 48.921875 17.828125 39.890625 
L 17.828125 0.984375 
L 9.515625 0.984375 
L 9.515625 72.40625 
L 22.125 72.40625 
L 39.109375 30.375 
Q 42.140625 23 44.828125 14.15625 
L 45.125 14.15625 
Q 47.3125 22.125 50.53125 30.171875 
L 67.4375 72.40625 
L 80.421875 72.40625 
z
" id="IPAexGothic-77"/>
       <path d="M 49.3125 0.984375 
L 41.75 0.984375 
Q 39.984375 4.734375 39.546875 8.6875 
L 39.203125 8.6875 
Q 33.546875 -0.390625 22.3125 -0.390625 
Q 14.59375 -0.390625 9.71875 4.5 
Q 5.421875 8.796875 5.421875 14.984375 
Q 5.421875 30.421875 32.03125 31.203125 
L 38.71875 31.390625 
L 38.71875 33.984375 
Q 38.71875 39.203125 35.75 42.1875 
Q 32.625 45.3125 27.734375 45.3125 
Q 19.34375 45.3125 15.140625 37.15625 
L 7.71875 40.578125 
Q 14.65625 52 27.9375 52 
Q 37.109375 52 42.046875 46.875 
Q 46.625 42.28125 46.625 33.890625 
L 46.625 15.578125 
Q 46.625 6.25 49.3125 0.984375 
z
M 38.921875 25.390625 
L 33.453125 25.296875 
Q 14.109375 24.859375 14.109375 14.890625 
Q 14.109375 11.375 16.40625 9.078125 
Q 19.234375 6.296875 23.828125 6.296875 
Q 30.21875 6.296875 34.90625 10.984375 
Q 38.921875 15.140625 38.921875 21 
z
" id="IPAexGothic-97"/>
       <path d="M 36.078125 51.8125 
L 34.578125 43.265625 
Q 32.90625 43.609375 31.59375 43.609375 
Q 25.828125 43.609375 22.078125 38.1875 
Q 17.390625 31.34375 17.390625 26.171875 
L 17.390625 0.984375 
L 8.796875 0.984375 
L 8.796875 50.78125 
L 16.890625 50.78125 
L 16.5 35.984375 
L 16.703125 35.984375 
Q 22.21875 52.203125 32.765625 52.203125 
Q 34.46875 52.203125 36.078125 51.8125 
z
" id="IPAexGothic-114"/>
      </defs>
      <g transform="translate(178.810254 287.802625)scale(0.1 -0.1)">
       <use xlink:href="#IPAexGothic-77"/>
       <use x="90.185547" xlink:href="#IPAexGothic-97"/>
       <use x="145.166016" xlink:href="#IPAexGothic-114"/>
      </g>
     </g>
    </g>
    <g id="xtick_4">
     <g id="line2d_6">
      <g>
       <use style="stroke:#000000;stroke-width:0.8;" x="237.976497" xlink:href="#mfca1d1fcd1" y="273.312"/>
      </g>
     </g>
     <g id="text_4">
      <!-- 15 -->
      <g transform="translate(231.67806 287.802625)scale(0.1 -0.1)">
       <use xlink:href="#IPAexGothic-49"/>
       <use x="62.988281" xlink:href="#IPAexGothic-53"/>
      </g>
     </g>
    </g>
    <g id="xtick_5">
     <g id="line2d_7">
      <g>
       <use style="stroke:#000000;stroke-width:0.8;" x="298.759837" xlink:href="#mfca1d1fcd1" y="273.312"/>
      </g>
     </g>
     <g id="text_5">
      <!-- Apr -->
      <defs>
       <path d="M 63.375 0.984375 
L 53.8125 0.984375 
L 45.90625 22.015625 
L 17.1875 22.015625 
L 9.421875 0.984375 
L -0.09375 0.984375 
L 28.21875 72.90625 
L 35.296875 72.90625 
z
M 43.40625 29.109375 
L 36.1875 48.09375 
Q 33.203125 56.0625 31.6875 62.5 
L 31.390625 62.5 
Q 29.640625 55.671875 26.8125 48.09375 
L 19.734375 29.109375 
z
" id="IPAexGothic-65"/>
       <path d="M 16.796875 42 
Q 23.828125 52.203125 34.46875 52.203125 
Q 43.265625 52.203125 49.5625 45.90625 
Q 56.890625 38.578125 56.890625 25.6875 
Q 56.890625 13.140625 49.65625 5.8125 
Q 43.359375 -0.484375 34.375 -0.484375 
Q 24.515625 -0.484375 17.28125 7.765625 
L 17.28125 -19 
L 8.796875 -19 
L 8.796875 50.78125 
L 16.796875 50.78125 
z
M 17.28125 30.46875 
L 17.28125 20.171875 
Q 17.28125 14.015625 23.6875 9.375 
Q 27.984375 6.296875 32.90625 6.296875 
Q 38.578125 6.296875 42.578125 10.296875 
Q 47.90625 15.578125 47.90625 25.484375 
Q 47.90625 34.375 43.5 39.984375 
Q 39.109375 45.3125 32.8125 45.3125 
Q 25.875 45.3125 20.90625 38.8125 
Q 17.28125 34.125 17.28125 30.46875 
z
" id="IPAexGothic-112"/>
      </defs>
      <g transform="translate(290.61765 287.802625)scale(0.1 -0.1)">
       <use xlink:href="#IPAexGothic-65"/>
       <use x="63.720703" xlink:href="#IPAexGothic-112"/>
       <use x="125.830078" xlink:href="#IPAexGothic-114"/>
      </g>
     </g>
    </g>
    <g id="xtick_6">
     <g id="line2d_8">
      <g>
       <use style="stroke:#000000;stroke-width:0.8;" x="348.816706" xlink:href="#mfca1d1fcd1" y="273.312"/>
      </g>
     </g>
     <g id="text_6">
      <!-- 15 -->
      <g transform="translate(342.518268 287.802625)scale(0.1 -0.1)">
       <use xlink:href="#IPAexGothic-49"/>
       <use x="62.988281" xlink:href="#IPAexGothic-53"/>
      </g>
     </g>
    </g>
    <g id="text_7">
     <!-- 2020-Apr -->
     <defs>
      <path d="M 57.171875 0.984375 
L 6.984375 0.984375 
L 6.984375 9.28125 
Q 12.890625 23.046875 29.59375 34.421875 
L 32.375 36.28125 
Q 40.921875 42.140625 43.609375 45.40625 
Q 46.6875 49.265625 46.6875 53.8125 
Q 46.6875 58.9375 43.0625 62.546875 
Q 39.0625 66.546875 32.5625 66.546875 
Q 19.53125 66.546875 15.484375 52 
L 7.765625 54.78125 
Q 13.328125 73.828125 33.0625 73.828125 
Q 43.84375 73.828125 50.25 67.4375 
Q 55.859375 61.671875 55.859375 53.515625 
Q 55.859375 47.46875 52.25 42.53125 
Q 48.921875 37.75 36.96875 30.28125 
L 34.859375 29 
Q 19.625 19.578125 15.28125 8.890625 
L 57.171875 8.890625 
z
" id="IPAexGothic-50"/>
      <path d="M 31.84375 73.828125 
Q 45.015625 73.828125 52.09375 61.625 
Q 57.71875 51.953125 57.71875 36.625 
Q 57.71875 21.4375 52.09375 11.578125 
Q 45.125 -0.484375 31.5 -0.484375 
Q 17.921875 -0.484375 10.9375 11.578125 
Q 5.328125 21.4375 5.328125 36.71875 
Q 5.328125 58.015625 15.625 67.71875 
Q 22.171875 73.828125 31.84375 73.828125 
z
M 31.5 66.65625 
Q 23.6875 66.65625 19.1875 58.734375 
Q 14.59375 50.734375 14.59375 36.625 
Q 14.59375 22.75 19.09375 14.796875 
Q 23.640625 6.984375 31.5 6.984375 
Q 40.921875 6.984375 45.453125 18.015625 
Q 48.4375 25.34375 48.4375 37.109375 
Q 48.4375 50.875 43.84375 58.734375 
Q 39.203125 66.65625 31.5 66.65625 
z
" id="IPAexGothic-48"/>
      <path d="M 30.765625 26.609375 
L 4.984375 26.609375 
L 4.984375 34.421875 
L 30.765625 34.421875 
z
" id="IPAexGothic-45"/>
     </defs>
     <g transform="translate(351.455938 300.19325)scale(0.1 -0.1)">
      <use xlink:href="#IPAexGothic-50"/>
      <use x="62.988281" xlink:href="#IPAexGothic-48"/>
      <use x="125.976562" xlink:href="#IPAexGothic-50"/>
      <use x="188.964844" xlink:href="#IPAexGothic-48"/>
      <use x="251.953125" xlink:href="#IPAexGothic-45"/>
      <use x="287.744141" xlink:href="#IPAexGothic-65"/>
      <use x="351.464844" xlink:href="#IPAexGothic-112"/>
      <use x="413.574219" xlink:href="#IPAexGothic-114"/>
     </g>
    </g>
   </g>
   <g id="matplotlib.axis_2">
    <g id="ytick_1">
     <g id="line2d_9">
      <defs>
       <path d="M 0 0 
L -3.5 0 
" id="m7fe1e5110b" style="stroke:#000000;stroke-width:0.8;"/>
      </defs>
      <g>
       <use style="stroke:#000000;stroke-width:0.8;" x="39.39375" xlink:href="#m7fe1e5110b" y="273.312"/>
      </g>
     </g>
     <g id="text_8">
      <!-- 0 -->
      <g transform="translate(26.095313 277.057312)scale(0.1 -0.1)">
       <use xlink:href="#IPAexGothic-48"/>
      </g>
     </g>
    </g>
    <g id="ytick_2">
     <g id="line2d_10">
      <g>
       <use style="stroke:#000000;stroke-width:0.8;" x="39.39375" xlink:href="#m7fe1e5110b" y="237.875758"/>
      </g>
     </g>
     <g id="text_9">
      <!-- 500 -->
      <g transform="translate(13.498438 241.621071)scale(0.1 -0.1)">
       <use xlink:href="#IPAexGothic-53"/>
       <use x="62.988281" xlink:href="#IPAexGothic-48"/>
       <use x="125.976562" xlink:href="#IPAexGothic-48"/>
      </g>
     </g>
    </g>
    <g id="ytick_3">
     <g id="line2d_11">
      <g>
       <use style="stroke:#000000;stroke-width:0.8;" x="39.39375" xlink:href="#m7fe1e5110b" y="202.439517"/>
      </g>
     </g>
     <g id="text_10">
      <!-- 1000 -->
      <g transform="translate(7.2 206.184829)scale(0.1 -0.1)">
       <use xlink:href="#IPAexGothic-49"/>
       <use x="62.988281" xlink:href="#IPAexGothic-48"/>
       <use x="125.976562" xlink:href="#IPAexGothic-48"/>
       <use x="188.964844" xlink:href="#IPAexGothic-48"/>
      </g>
     </g>
    </g>
    <g id="ytick_4">
     <g id="line2d_12">
      <g>
       <use style="stroke:#000000;stroke-width:0.8;" x="39.39375" xlink:href="#m7fe1e5110b" y="167.003275"/>
      </g>
     </g>
     <g id="text_11">
      <!-- 1500 -->
      <g transform="translate(7.2 170.748588)scale(0.1 -0.1)">
       <use xlink:href="#IPAexGothic-49"/>
       <use x="62.988281" xlink:href="#IPAexGothic-53"/>
       <use x="125.976562" xlink:href="#IPAexGothic-48"/>
       <use x="188.964844" xlink:href="#IPAexGothic-48"/>
      </g>
     </g>
    </g>
    <g id="ytick_5">
     <g id="line2d_13">
      <g>
       <use style="stroke:#000000;stroke-width:0.8;" x="39.39375" xlink:href="#m7fe1e5110b" y="131.567034"/>
      </g>
     </g>
     <g id="text_12">
      <!-- 2000 -->
      <g transform="translate(7.2 135.312346)scale(0.1 -0.1)">
       <use xlink:href="#IPAexGothic-50"/>
       <use x="62.988281" xlink:href="#IPAexGothic-48"/>
       <use x="125.976562" xlink:href="#IPAexGothic-48"/>
       <use x="188.964844" xlink:href="#IPAexGothic-48"/>
      </g>
     </g>
    </g>
    <g id="ytick_6">
     <g id="line2d_14">
      <g>
       <use style="stroke:#000000;stroke-width:0.8;" x="39.39375" xlink:href="#m7fe1e5110b" y="96.130792"/>
      </g>
     </g>
     <g id="text_13">
      <!-- 2500 -->
      <g transform="translate(7.2 99.876104)scale(0.1 -0.1)">
       <use xlink:href="#IPAexGothic-50"/>
       <use x="62.988281" xlink:href="#IPAexGothic-53"/>
       <use x="125.976562" xlink:href="#IPAexGothic-48"/>
       <use x="188.964844" xlink:href="#IPAexGothic-48"/>
      </g>
     </g>
    </g>
    <g id="ytick_7">
     <g id="line2d_15">
      <g>
       <use style="stroke:#000000;stroke-width:0.8;" x="39.39375" xlink:href="#m7fe1e5110b" y="60.69455"/>
      </g>
     </g>
     <g id="text_14">
      <!-- 3000 -->
      <defs>
       <path d="M 37.203125 37.796875 
Q 54.78125 34.625 54.78125 19.96875 
Q 54.78125 11.1875 48.875 5.5625 
Q 42.328125 -0.484375 30.375 -0.484375 
Q 12.453125 -0.484375 4.5 13.765625 
L 11.8125 17.671875 
Q 17.328125 6.890625 30.28125 6.890625 
Q 37.890625 6.890625 42.09375 10.796875 
Q 46.09375 14.5 46.09375 20.171875 
Q 46.09375 26.859375 40.09375 30.90625 
Q 34.625 34.578125 25.6875 34.578125 
L 21.296875 34.578125 
L 21.296875 41.703125 
L 25.875 41.703125 
Q 34.859375 41.703125 39.59375 45.125 
Q 44.671875 48.734375 44.671875 54.828125 
Q 44.671875 61.46875 38.96875 64.65625 
Q 35.296875 66.84375 30.171875 66.84375 
Q 19.34375 66.84375 14.109375 55.90625 
L 6.78125 59.421875 
Q 14.015625 73.828125 30.28125 73.828125 
Q 40.578125 73.828125 46.96875 68.65625 
Q 53.375 63.578125 53.375 55.21875 
Q 53.375 47.3125 47.171875 42.28125 
Q 43.171875 39.0625 37.203125 38.1875 
z
" id="IPAexGothic-51"/>
      </defs>
      <g transform="translate(7.2 64.439863)scale(0.1 -0.1)">
       <use xlink:href="#IPAexGothic-51"/>
       <use x="62.988281" xlink:href="#IPAexGothic-48"/>
       <use x="125.976562" xlink:href="#IPAexGothic-48"/>
       <use x="188.964844" xlink:href="#IPAexGothic-48"/>
      </g>
     </g>
    </g>
    <g id="ytick_8">
     <g id="line2d_16">
      <g>
       <use style="stroke:#000000;stroke-width:0.8;" x="39.39375" xlink:href="#m7fe1e5110b" y="25.258309"/>
      </g>
     </g>
     <g id="text_15">
      <!-- 3500 -->
      <g transform="translate(7.2 29.003621)scale(0.1 -0.1)">
       <use xlink:href="#IPAexGothic-51"/>
       <use x="62.988281" xlink:href="#IPAexGothic-53"/>
       <use x="125.976562" xlink:href="#IPAexGothic-48"/>
       <use x="188.964844" xlink:href="#IPAexGothic-48"/>
      </g>
     </g>
    </g>
   </g>
   <g id="patch_94">
    <path d="M 39.39375 273.312 
L 39.39375 7.2 
" style="fill:none;stroke:#000000;stroke-linecap:square;stroke-linejoin:miter;stroke-width:0.8;"/>
   </g>
   <g id="patch_95">
    <path d="M 396.51375 273.312 
L 396.51375 7.2 
" style="fill:none;stroke:#000000;stroke-linecap:square;stroke-linejoin:miter;stroke-width:0.8;"/>
   </g>
   <g id="patch_96">
    <path d="M 39.39375 273.312 
L 396.51375 273.312 
" style="fill:none;stroke:#000000;stroke-linecap:square;stroke-linejoin:miter;stroke-width:0.8;"/>
   </g>
   <g id="patch_97">
    <path d="M 39.39375 7.2 
L 396.51375 7.2 
" style="fill:none;stroke:#000000;stroke-linecap:square;stroke-linejoin:miter;stroke-width:0.8;"/>
   </g>
   <g id="legend_1">
    <g id="patch_98">
     <path d="M 46.39375 29.648437 
L 210.73125 29.648437 
Q 212.73125 29.648437 212.73125 27.648437 
L 212.73125 14.2 
Q 212.73125 12.2 210.73125 12.2 
L 46.39375 12.2 
Q 44.39375 12.2 44.39375 14.2 
L 44.39375 27.648437 
Q 44.39375 29.648437 46.39375 29.648437 
z
" style="fill:#ffffff;opacity:0.8;stroke:#cccccc;stroke-linejoin:miter;"/>
    </g>
    <g id="patch_99">
     <path d="M 48.39375 23.748437 
L 68.39375 23.748437 
L 68.39375 16.748437 
L 48.39375 16.748437 
z
" style="fill:#1f77b4;"/>
    </g>
    <g id="text_16">
     <!-- Tokyo cumulative confirmed -->
     <defs>
      <path d="M 60.40625 64.703125 
L 33.984375 64.703125 
L 33.984375 0.984375 
L 25.09375 0.984375 
L 25.09375 64.703125 
L -0.484375 64.703125 
L -0.484375 72.40625 
L 60.40625 72.40625 
z
" id="IPAexGothic-84"/>
      <path d="M 29.984375 52.203125 
Q 40.53125 52.203125 47.75 45.125 
Q 55.171875 37.703125 55.171875 25.59375 
Q 55.171875 13.875 47.90625 6.59375 
Q 40.765625 -0.484375 29.984375 -0.484375 
Q 19.1875 -0.484375 12.203125 6.5 
Q 4.890625 13.765625 4.890625 25.875 
Q 4.890625 37.703125 12.3125 45.125 
Q 19.390625 52.203125 29.984375 52.203125 
z
M 29.984375 45.609375 
Q 23.734375 45.609375 19.390625 41.109375 
Q 13.875 35.59375 13.875 25.78125 
Q 13.875 16.109375 19.28125 10.6875 
Q 23.6875 6.296875 29.984375 6.296875 
Q 36.421875 6.296875 40.765625 10.796875 
Q 46.1875 16.21875 46.1875 26.125 
Q 46.1875 35.453125 40.671875 41.109375 
Q 36.1875 45.609375 29.984375 45.609375 
z
" id="IPAexGothic-111"/>
      <path d="M 50.6875 0.984375 
L 40.28125 0.984375 
L 23.1875 25.203125 
L 17.484375 19.671875 
L 17.484375 0.984375 
L 9.078125 0.984375 
L 9.078125 74.90625 
L 17.484375 74.90625 
L 17.484375 27.59375 
L 38.484375 50.78125 
L 49.265625 50.78125 
L 28.5625 30.078125 
z
" id="IPAexGothic-107"/>
      <path d="M 48.78125 50.78125 
L 24.609375 -7.625 
Q 19.96875 -18.796875 8.59375 -18.796875 
L 7.46875 -18.796875 
L 5.375 -10.984375 
L 6.984375 -10.984375 
Q 15.140625 -10.984375 17.96875 -3.71875 
L 21.1875 4.296875 
L 0.59375 50.78125 
L 10.296875 50.78125 
L 21.296875 22.796875 
Q 23.875 16.015625 25.09375 12.203125 
L 25.390625 12.203125 
Q 27.34375 18.265625 29.109375 22.796875 
L 39.5 50.78125 
z
" id="IPAexGothic-121"/>
      <path id="IPAexGothic-32"/>
      <path d="M 51.078125 12.25 
Q 44.28125 -0.484375 29.6875 -0.484375 
Q 19.1875 -0.484375 12.3125 6.390625 
Q 4.890625 13.921875 4.890625 25.984375 
Q 4.890625 37.9375 12.3125 45.515625 
Q 19.09375 52.296875 29.390625 52.296875 
Q 43.953125 52.296875 50.09375 39.703125 
L 43.171875 36.078125 
Q 38.8125 45.3125 29.6875 45.3125 
Q 23.6875 45.3125 19.28125 40.921875 
Q 13.765625 35.40625 13.765625 25.78125 
Q 13.765625 16.703125 19.09375 11.375 
Q 23.78125 6.6875 30.5625 6.6875 
Q 39.796875 6.6875 44.484375 15.875 
z
" id="IPAexGothic-99"/>
      <path d="M 51.3125 0.984375 
L 43.3125 0.984375 
L 43.3125 10.0625 
Q 35.9375 0 25.390625 0 
Q 16.75 0 11.921875 5.859375 
Q 8.109375 10.59375 8.109375 19.390625 
L 8.109375 50.78125 
L 16.703125 50.78125 
L 16.703125 19.671875 
Q 16.703125 7.28125 27.09375 7.28125 
Q 37.59375 7.28125 42.71875 20.171875 
L 42.71875 50.78125 
L 51.3125 50.78125 
z
" id="IPAexGothic-117"/>
      <path d="M 78.46875 0.984375 
L 69.875 0.984375 
L 69.875 32.171875 
Q 69.875 44.828125 60.109375 44.828125 
Q 55.46875 44.828125 51.609375 40.53125 
Q 48.875 37.453125 47.796875 32.859375 
L 47.796875 0.984375 
L 39.203125 0.984375 
L 39.203125 32.28125 
Q 39.203125 44.828125 29.984375 44.828125 
Q 25.09375 44.828125 21.390625 40.53125 
Q 17.390625 36.03125 17.390625 31.890625 
L 17.390625 0.984375 
L 8.796875 0.984375 
L 8.796875 50.78125 
L 16.796875 50.78125 
L 16.796875 42.1875 
Q 21.734375 51.8125 31.6875 51.8125 
Q 42.578125 51.8125 46.1875 41.359375 
Q 51.609375 51.8125 61.765625 51.8125 
Q 69.96875 51.8125 74.5625 46 
Q 78.46875 41.21875 78.46875 32.375 
z
" id="IPAexGothic-109"/>
      <path d="M 17.671875 0.984375 
L 9.078125 0.984375 
L 9.078125 74.90625 
L 17.671875 74.90625 
z
" id="IPAexGothic-108"/>
      <path d="M 33.203125 3.765625 
Q 27.640625 -0.09375 21.828125 -0.09375 
Q 10.203125 -0.09375 10.203125 12.984375 
L 10.203125 44.671875 
L 3.421875 44.671875 
L 3.421875 50.78125 
L 10.203125 50.78125 
L 10.203125 61.96875 
L 18.40625 66.0625 
L 18.40625 50.78125 
L 32.234375 50.78125 
L 32.234375 44.671875 
L 18.40625 44.671875 
L 18.40625 14.15625 
Q 18.40625 6.5 23.640625 6.5 
Q 27.15625 6.5 30.328125 9.1875 
z
" id="IPAexGothic-116"/>
      <path d="M 18.40625 61.375 
L 8.59375 61.375 
L 8.59375 71.390625 
L 18.40625 71.390625 
z
M 17.78125 0.984375 
L 9.1875 0.984375 
L 9.1875 50.78125 
L 17.78125 50.78125 
z
" id="IPAexGothic-105"/>
      <path d="M 48.484375 50.78125 
L 27.296875 0.09375 
L 21.484375 0.09375 
L 0.390625 50.78125 
L 9.8125 50.78125 
L 20.90625 21.6875 
L 23.78125 13.1875 
L 24.515625 10.984375 
L 24.8125 10.984375 
Q 25.640625 13.8125 28.46875 21.6875 
L 39.3125 50.78125 
z
" id="IPAexGothic-118"/>
      <path d="M 52 0.984375 
L 43.40625 0.984375 
L 43.40625 31.890625 
Q 43.40625 44.578125 32.90625 44.578125 
Q 22.3125 44.578125 17.390625 31.890625 
L 17.390625 0.984375 
L 8.796875 0.984375 
L 8.796875 50.78125 
L 16.796875 50.78125 
L 16.796875 41.796875 
Q 23.828125 51.8125 34.71875 51.8125 
Q 52 51.8125 52 32.375 
z
" id="IPAexGothic-110"/>
      <path d="M 38.375 72.21875 
L 34.8125 66.3125 
Q 31.109375 69.09375 27.203125 69.09375 
Q 18.5 69.09375 18.5 57.375 
L 18.5 50.78125 
L 32.078125 50.78125 
L 32.078125 44.671875 
L 18.5 44.671875 
L 18.5 0.984375 
L 10.015625 0.984375 
L 10.015625 44.671875 
L 1.90625 44.671875 
L 1.90625 50.78125 
L 10.015625 50.78125 
L 10.015625 57.171875 
Q 10.015625 65.4375 13.921875 70.0625 
Q 18.75 75.6875 26.703125 75.6875 
Q 33.0625 75.6875 38.375 72.21875 
z
" id="IPAexGothic-102"/>
      <path d="M 52.984375 0.984375 
L 45.171875 0.984375 
L 45.171875 9.671875 
Q 38.140625 -0.484375 27.390625 -0.484375 
Q 18.453125 -0.484375 12.3125 5.8125 
Q 4.890625 13.1875 4.890625 25.984375 
Q 4.890625 38.53125 12.0625 45.90625 
Q 18.265625 52.203125 27.390625 52.203125 
Q 37.25 52.203125 44.484375 43.890625 
L 44.484375 74.90625 
L 52.984375 74.90625 
z
M 44.484375 20.359375 
L 44.484375 32.765625 
Q 44.484375 37.703125 38.375 42.28125 
Q 34.078125 45.40625 28.953125 45.40625 
Q 23.1875 45.40625 19.1875 41.40625 
Q 13.875 36.078125 13.875 26.21875 
Q 13.875 17.328125 18.265625 11.71875 
Q 22.515625 6.390625 28.859375 6.390625 
Q 36.28125 6.390625 41.5 13.671875 
Q 44.484375 17.71875 44.484375 20.359375 
z
" id="IPAexGothic-100"/>
     </defs>
     <g transform="translate(76.39375 23.748437)scale(0.1 -0.1)">
      <use xlink:href="#IPAexGothic-84"/>
      <use x="59.912109" xlink:href="#IPAexGothic-111"/>
      <use x="120.3125" xlink:href="#IPAexGothic-107"/>
      <use x="172.119141" xlink:href="#IPAexGothic-121"/>
      <use x="221.337891" xlink:href="#IPAexGothic-111"/>
      <use x="281.738281" xlink:href="#IPAexGothic-32"/>
      <use x="308.740234" xlink:href="#IPAexGothic-99"/>
      <use x="363.134766" xlink:href="#IPAexGothic-117"/>
      <use x="423.535156" xlink:href="#IPAexGothic-109"/>
      <use x="510.644531" xlink:href="#IPAexGothic-117"/>
      <use x="571.044922" xlink:href="#IPAexGothic-108"/>
      <use x="598.046875" xlink:href="#IPAexGothic-97"/>
      <use x="653.027344" xlink:href="#IPAexGothic-116"/>
      <use x="687.646484" xlink:href="#IPAexGothic-105"/>
      <use x="714.648438" xlink:href="#IPAexGothic-118"/>
      <use x="763.232422" xlink:href="#IPAexGothic-101"/>
      <use x="820.117188" xlink:href="#IPAexGothic-32"/>
      <use x="847.119141" xlink:href="#IPAexGothic-99"/>
      <use x="901.513672" xlink:href="#IPAexGothic-111"/>
      <use x="961.914062" xlink:href="#IPAexGothic-110"/>
      <use x="1022.314453" xlink:href="#IPAexGothic-102"/>
      <use x="1052.929688" xlink:href="#IPAexGothic-105"/>
      <use x="1079.931641" xlink:href="#IPAexGothic-114"/>
      <use x="1116.943359" xlink:href="#IPAexGothic-109"/>
      <use x="1204.052734" xlink:href="#IPAexGothic-101"/>
      <use x="1260.9375" xlink:href="#IPAexGothic-100"/>
     </g>
    </g>
   </g>
  </g>
 </g>
 <defs>
  <clipPath id="p686e0e4929">
   <rect height="266.112" width="357.12" x="39.39375" y="7.2"/>
  </clipPath>
 </defs>
</svg>
