<?xml version="1.0" encoding="utf-8" standalone="no"?>
<!DOCTYPE svg PUBLIC "-//W3C//DTD SVG 1.1//EN"
  "http://www.w3.org/Graphics/SVG/1.1/DTD/svg11.dtd">
<!-- Created with matplotlib (https://matplotlib.org/) -->
<svg height="320.239875pt" version="1.1" viewBox="0 0 403.71375 320.239875" width="403.71375pt" xmlns="http://www.w3.org/2000/svg" xmlns:xlink="http://www.w3.org/1999/xlink">
 <defs>
  <style type="text/css">
*{stroke-linecap:butt;stroke-linejoin:round;}
  </style>
 </defs>
 <g id="figure_1">
  <g id="patch_1">
   <path d="M 0 320.239875 
L 403.71375 320.239875 
L 403.71375 0 
L 0 0 
z
" style="fill:#ffffff;"/>
  </g>
  <g id="axes_1">
   <g id="patch_2">
    <path d="M 39.39375 284.258625 
L 396.51375 284.258625 
L 396.51375 18.146625 
L 39.39375 18.146625 
z
" style="fill:#ffffff;"/>
   </g>
   <g id="line2d_1">
    <path clip-path="url(#p68522536ed)" d="M 39.39375 30.818625 
L 396.51375 30.818625 
" style="fill:none;stroke:#808080;stroke-dasharray:5.55,2.4;stroke-dashoffset:0;stroke-width:1.5;"/>
   </g>
   <g id="line2d_2">
    <path clip-path="url(#p68522536ed)" d="M 39.39375 157.538625 
L 396.51375 157.538625 
" style="fill:none;stroke:#808080;stroke-dasharray:5.55,2.4;stroke-dashoffset:0;stroke-width:1.5;"/>
   </g>
   <g id="patch_3">
    <path clip-path="url(#p68522536ed)" d="M 55.626477 284.258625 
L 57.55321 284.258625 
L 57.55321 284.211421 
L 55.626477 284.211421 
z
" style="fill:#1f77b4;"/>
   </g>
   <g id="patch_4">
    <path clip-path="url(#p68522536ed)" d="M 58.034894 284.258625 
L 59.961627 284.258625 
L 59.961627 284.164216 
L 58.034894 284.164216 
z
" style="fill:#1f77b4;"/>
   </g>
   <g id="patch_5">
    <path clip-path="url(#p68522536ed)" d="M 60.44331 284.258625 
L 62.370043 284.258625 
L 62.370043 284.164216 
L 60.44331 284.164216 
z
" style="fill:#1f77b4;"/>
   </g>
   <g id="patch_6">
    <path clip-path="url(#p68522536ed)" d="M 62.851727 284.258625 
L 64.77846 284.258625 
L 64.77846 284.164216 
L 62.851727 284.164216 
z
" style="fill:#1f77b4;"/>
   </g>
   <g id="patch_7">
    <path clip-path="url(#p68522536ed)" d="M 65.260143 284.258625 
L 67.186877 284.258625 
L 67.186877 284.164216 
L 65.260143 284.164216 
z
" style="fill:#1f77b4;"/>
   </g>
   <g id="patch_8">
    <path clip-path="url(#p68522536ed)" d="M 67.66856 284.258625 
L 69.595293 284.258625 
L 69.595293 284.164216 
L 67.66856 284.164216 
z
" style="fill:#1f77b4;"/>
   </g>
   <g id="patch_9">
    <path clip-path="url(#p68522536ed)" d="M 70.076976 284.258625 
L 72.00371 284.258625 
L 72.00371 284.117012 
L 70.076976 284.117012 
z
" style="fill:#1f77b4;"/>
   </g>
   <g id="patch_10">
    <path clip-path="url(#p68522536ed)" d="M 72.485393 284.258625 
L 74.412126 284.258625 
L 74.412126 284.117012 
L 72.485393 284.117012 
z
" style="fill:#1f77b4;"/>
   </g>
   <g id="patch_11">
    <path clip-path="url(#p68522536ed)" d="M 74.893809 284.258625 
L 76.820543 284.258625 
L 76.820543 284.117012 
L 74.893809 284.117012 
z
" style="fill:#1f77b4;"/>
   </g>
   <g id="patch_12">
    <path clip-path="url(#p68522536ed)" d="M 77.302226 284.258625 
L 79.228959 284.258625 
L 79.228959 284.117012 
L 77.302226 284.117012 
z
" style="fill:#1f77b4;"/>
   </g>
   <g id="patch_13">
    <path clip-path="url(#p68522536ed)" d="M 79.710642 284.258625 
L 81.637376 284.258625 
L 81.637376 284.117012 
L 79.710642 284.117012 
z
" style="fill:#1f77b4;"/>
   </g>
   <g id="patch_14">
    <path clip-path="url(#p68522536ed)" d="M 82.119059 284.258625 
L 84.045792 284.258625 
L 84.045792 284.117012 
L 82.119059 284.117012 
z
" style="fill:#1f77b4;"/>
   </g>
   <g id="patch_15">
    <path clip-path="url(#p68522536ed)" d="M 84.527475 284.258625 
L 86.454209 284.258625 
L 86.454209 284.117012 
L 84.527475 284.117012 
z
" style="fill:#1f77b4;"/>
   </g>
   <g id="patch_16">
    <path clip-path="url(#p68522536ed)" d="M 86.935892 284.258625 
L 88.862625 284.258625 
L 88.862625 284.117012 
L 86.935892 284.117012 
z
" style="fill:#1f77b4;"/>
   </g>
   <g id="patch_17">
    <path clip-path="url(#p68522536ed)" d="M 89.344308 284.258625 
L 91.271042 284.258625 
L 91.271042 284.117012 
L 89.344308 284.117012 
z
" style="fill:#1f77b4;"/>
   </g>
   <g id="patch_18">
    <path clip-path="url(#p68522536ed)" d="M 91.752725 284.258625 
L 93.679458 284.258625 
L 93.679458 284.117012 
L 91.752725 284.117012 
z
" style="fill:#1f77b4;"/>
   </g>
   <g id="patch_19">
    <path clip-path="url(#p68522536ed)" d="M 94.161141 284.258625 
L 96.087875 284.258625 
L 96.087875 284.117012 
L 94.161141 284.117012 
z
" style="fill:#1f77b4;"/>
   </g>
   <g id="patch_20">
    <path clip-path="url(#p68522536ed)" d="M 96.569558 284.258625 
L 98.496291 284.258625 
L 98.496291 284.117012 
L 96.569558 284.117012 
z
" style="fill:#1f77b4;"/>
   </g>
   <g id="patch_21">
    <path clip-path="url(#p68522536ed)" d="M 98.977974 284.258625 
L 100.904708 284.258625 
L 100.904708 284.117012 
L 98.977974 284.117012 
z
" style="fill:#1f77b4;"/>
   </g>
   <g id="patch_22">
    <path clip-path="url(#p68522536ed)" d="M 101.386391 284.258625 
L 103.313124 284.258625 
L 103.313124 284.117012 
L 101.386391 284.117012 
z
" style="fill:#1f77b4;"/>
   </g>
   <g id="patch_23">
    <path clip-path="url(#p68522536ed)" d="M 103.794807 284.258625 
L 105.721541 284.258625 
L 105.721541 284.069808 
L 103.794807 284.069808 
z
" style="fill:#1f77b4;"/>
   </g>
   <g id="patch_24">
    <path clip-path="url(#p68522536ed)" d="M 106.203224 284.258625 
L 108.129957 284.258625 
L 108.129957 283.975399 
L 106.203224 283.975399 
z
" style="fill:#1f77b4;"/>
   </g>
   <g id="patch_25">
    <path clip-path="url(#p68522536ed)" d="M 108.61164 284.258625 
L 110.538374 284.258625 
L 110.538374 283.597765 
L 108.61164 283.597765 
z
" style="fill:#1f77b4;"/>
   </g>
   <g id="patch_26">
    <path clip-path="url(#p68522536ed)" d="M 111.020057 284.258625 
L 112.94679 284.258625 
L 112.94679 283.361743 
L 111.020057 283.361743 
z
" style="fill:#1f77b4;"/>
   </g>
   <g id="patch_27">
    <path clip-path="url(#p68522536ed)" d="M 113.428473 284.258625 
L 115.355207 284.258625 
L 115.355207 283.361743 
L 113.428473 283.361743 
z
" style="fill:#1f77b4;"/>
   </g>
   <g id="patch_28">
    <path clip-path="url(#p68522536ed)" d="M 115.83689 284.258625 
L 117.763623 284.258625 
L 117.763623 283.22013 
L 115.83689 283.22013 
z
" style="fill:#1f77b4;"/>
   </g>
   <g id="patch_29">
    <path clip-path="url(#p68522536ed)" d="M 118.245307 284.258625 
L 120.17204 284.258625 
L 120.17204 283.078517 
L 118.245307 283.078517 
z
" style="fill:#1f77b4;"/>
   </g>
   <g id="patch_30">
    <path clip-path="url(#p68522536ed)" d="M 120.653723 284.258625 
L 122.580456 284.258625 
L 122.580456 283.078517 
L 120.653723 283.078517 
z
" style="fill:#1f77b4;"/>
   </g>
   <g id="patch_31">
    <path clip-path="url(#p68522536ed)" d="M 123.06214 284.258625 
L 124.988873 284.258625 
L 124.988873 282.936904 
L 123.06214 282.936904 
z
" style="fill:#1f77b4;"/>
   </g>
   <g id="patch_32">
    <path clip-path="url(#p68522536ed)" d="M 125.470556 284.258625 
L 127.397289 284.258625 
L 127.397289 282.8897 
L 125.470556 282.8897 
z
" style="fill:#1f77b4;"/>
   </g>
   <g id="patch_33">
    <path clip-path="url(#p68522536ed)" d="M 127.878973 284.258625 
L 129.805706 284.258625 
L 129.805706 282.8897 
L 127.878973 282.8897 
z
" style="fill:#1f77b4;"/>
   </g>
   <g id="patch_34">
    <path clip-path="url(#p68522536ed)" d="M 130.287389 284.258625 
L 132.214122 284.258625 
L 132.214122 282.748087 
L 130.287389 282.748087 
z
" style="fill:#1f77b4;"/>
   </g>
   <g id="patch_35">
    <path clip-path="url(#p68522536ed)" d="M 132.695806 284.258625 
L 134.622539 284.258625 
L 134.622539 282.748087 
L 132.695806 282.748087 
z
" style="fill:#1f77b4;"/>
   </g>
   <g id="patch_36">
    <path clip-path="url(#p68522536ed)" d="M 135.104222 284.258625 
L 137.030955 284.258625 
L 137.030955 282.606474 
L 135.104222 282.606474 
z
" style="fill:#1f77b4;"/>
   </g>
   <g id="patch_37">
    <path clip-path="url(#p68522536ed)" d="M 137.512639 284.258625 
L 139.439372 284.258625 
L 139.439372 282.559269 
L 137.512639 282.559269 
z
" style="fill:#1f77b4;"/>
   </g>
   <g id="patch_38">
    <path clip-path="url(#p68522536ed)" d="M 139.921055 284.258625 
L 141.847788 284.258625 
L 141.847788 282.559269 
L 139.921055 282.559269 
z
" style="fill:#1f77b4;"/>
   </g>
   <g id="patch_39">
    <path clip-path="url(#p68522536ed)" d="M 142.329472 284.258625 
L 144.256205 284.258625 
L 144.256205 282.512065 
L 142.329472 282.512065 
z
" style="fill:#1f77b4;"/>
   </g>
   <g id="patch_40">
    <path clip-path="url(#p68522536ed)" d="M 144.737888 284.258625 
L 146.664621 284.258625 
L 146.664621 282.417656 
L 144.737888 282.417656 
z
" style="fill:#1f77b4;"/>
   </g>
   <g id="patch_41">
    <path clip-path="url(#p68522536ed)" d="M 147.146305 284.258625 
L 149.073038 284.258625 
L 149.073038 282.417656 
L 147.146305 282.417656 
z
" style="fill:#1f77b4;"/>
   </g>
   <g id="patch_42">
    <path clip-path="url(#p68522536ed)" d="M 149.554721 284.258625 
L 151.481454 284.258625 
L 151.481454 282.370452 
L 149.554721 282.370452 
z
" style="fill:#1f77b4;"/>
   </g>
   <g id="patch_43">
    <path clip-path="url(#p68522536ed)" d="M 151.963138 284.258625 
L 153.889871 284.258625 
L 153.889871 282.181635 
L 151.963138 282.181635 
z
" style="fill:#1f77b4;"/>
   </g>
   <g id="patch_44">
    <path clip-path="url(#p68522536ed)" d="M 154.371554 284.258625 
L 156.298287 284.258625 
L 156.298287 281.804 
L 154.371554 281.804 
z
" style="fill:#1f77b4;"/>
   </g>
   <g id="patch_45">
    <path clip-path="url(#p68522536ed)" d="M 156.779971 284.258625 
L 158.706704 284.258625 
L 158.706704 281.520774 
L 156.779971 281.520774 
z
" style="fill:#1f77b4;"/>
   </g>
   <g id="patch_46">
    <path clip-path="url(#p68522536ed)" d="M 159.188387 284.258625 
L 161.11512 284.258625 
L 161.11512 281.237548 
L 159.188387 281.237548 
z
" style="fill:#1f77b4;"/>
   </g>
   <g id="patch_47">
    <path clip-path="url(#p68522536ed)" d="M 161.596804 284.258625 
L 163.523537 284.258625 
L 163.523537 281.237548 
L 161.596804 281.237548 
z
" style="fill:#1f77b4;"/>
   </g>
   <g id="patch_48">
    <path clip-path="url(#p68522536ed)" d="M 164.00522 284.258625 
L 165.931953 284.258625 
L 165.931953 281.237548 
L 164.00522 281.237548 
z
" style="fill:#1f77b4;"/>
   </g>
   <g id="patch_49">
    <path clip-path="url(#p68522536ed)" d="M 166.413637 284.258625 
L 168.34037 284.258625 
L 168.34037 281.095935 
L 166.413637 281.095935 
z
" style="fill:#1f77b4;"/>
   </g>
   <g id="patch_50">
    <path clip-path="url(#p68522536ed)" d="M 168.822053 284.258625 
L 170.748786 284.258625 
L 170.748786 280.81271 
L 168.822053 280.81271 
z
" style="fill:#1f77b4;"/>
   </g>
   <g id="patch_51">
    <path clip-path="url(#p68522536ed)" d="M 171.23047 284.258625 
L 173.157203 284.258625 
L 173.157203 280.718301 
L 171.23047 280.718301 
z
" style="fill:#1f77b4;"/>
   </g>
   <g id="patch_52">
    <path clip-path="url(#p68522536ed)" d="M 173.638886 284.258625 
L 175.565619 284.258625 
L 175.565619 280.623892 
L 173.638886 280.623892 
z
" style="fill:#1f77b4;"/>
   </g>
   <g id="patch_53">
    <path clip-path="url(#p68522536ed)" d="M 176.047303 284.258625 
L 177.974036 284.258625 
L 177.974036 280.151849 
L 176.047303 280.151849 
z
" style="fill:#1f77b4;"/>
   </g>
   <g id="patch_54">
    <path clip-path="url(#p68522536ed)" d="M 178.455719 284.258625 
L 180.382452 284.258625 
L 180.382452 280.010236 
L 178.455719 280.010236 
z
" style="fill:#1f77b4;"/>
   </g>
   <g id="patch_55">
    <path clip-path="url(#p68522536ed)" d="M 180.864136 284.258625 
L 182.790869 284.258625 
L 182.790869 280.010236 
L 180.864136 280.010236 
z
" style="fill:#1f77b4;"/>
   </g>
   <g id="patch_56">
    <path clip-path="url(#p68522536ed)" d="M 183.272552 284.258625 
L 185.199285 284.258625 
L 185.199285 279.443784 
L 183.272552 279.443784 
z
" style="fill:#1f77b4;"/>
   </g>
   <g id="patch_57">
    <path clip-path="url(#p68522536ed)" d="M 185.680969 284.258625 
L 187.607702 284.258625 
L 187.607702 279.018945 
L 185.680969 279.018945 
z
" style="fill:#1f77b4;"/>
   </g>
   <g id="patch_58">
    <path clip-path="url(#p68522536ed)" d="M 188.089385 284.258625 
L 190.016118 284.258625 
L 190.016118 278.688515 
L 188.089385 278.688515 
z
" style="fill:#1f77b4;"/>
   </g>
   <g id="patch_59">
    <path clip-path="url(#p68522536ed)" d="M 190.497802 284.258625 
L 192.424535 284.258625 
L 192.424535 278.169268 
L 190.497802 278.169268 
z
" style="fill:#1f77b4;"/>
   </g>
   <g id="patch_60">
    <path clip-path="url(#p68522536ed)" d="M 192.906218 284.258625 
L 194.832952 284.258625 
L 194.832952 277.838837 
L 192.906218 277.838837 
z
" style="fill:#1f77b4;"/>
   </g>
   <g id="patch_61">
    <path clip-path="url(#p68522536ed)" d="M 195.314635 284.258625 
L 197.241368 284.258625 
L 197.241368 277.697224 
L 195.314635 277.697224 
z
" style="fill:#1f77b4;"/>
   </g>
   <g id="patch_62">
    <path clip-path="url(#p68522536ed)" d="M 197.723051 284.258625 
L 199.649785 284.258625 
L 199.649785 276.941955 
L 197.723051 276.941955 
z
" style="fill:#1f77b4;"/>
   </g>
   <g id="patch_63">
    <path clip-path="url(#p68522536ed)" d="M 200.131468 284.258625 
L 202.058201 284.258625 
L 202.058201 276.092277 
L 200.131468 276.092277 
z
" style="fill:#1f77b4;"/>
   </g>
   <g id="patch_64">
    <path clip-path="url(#p68522536ed)" d="M 202.539884 284.258625 
L 204.466618 284.258625 
L 204.466618 274.1569 
L 202.539884 274.1569 
z
" style="fill:#1f77b4;"/>
   </g>
   <g id="patch_65">
    <path clip-path="url(#p68522536ed)" d="M 204.948301 284.258625 
L 206.875034 284.258625 
L 206.875034 271.985502 
L 204.948301 271.985502 
z
" style="fill:#1f77b4;"/>
   </g>
   <g id="patch_66">
    <path clip-path="url(#p68522536ed)" d="M 207.356717 284.258625 
L 209.283451 284.258625 
L 209.283451 270.097329 
L 207.356717 270.097329 
z
" style="fill:#1f77b4;"/>
   </g>
   <g id="patch_67">
    <path clip-path="url(#p68522536ed)" d="M 209.765134 284.258625 
L 211.691867 284.258625 
L 211.691867 267.076252 
L 209.765134 267.076252 
z
" style="fill:#1f77b4;"/>
   </g>
   <g id="patch_68">
    <path clip-path="url(#p68522536ed)" d="M 212.17355 284.258625 
L 214.100284 284.258625 
L 214.100284 263.677541 
L 212.17355 263.677541 
z
" style="fill:#1f77b4;"/>
   </g>
   <g id="patch_69">
    <path clip-path="url(#p68522536ed)" d="M 214.581967 284.258625 
L 216.5087 284.258625 
L 216.5087 263.111089 
L 214.581967 263.111089 
z
" style="fill:#1f77b4;"/>
   </g>
   <g id="patch_70">
    <path clip-path="url(#p68522536ed)" d="M 216.990383 284.258625 
L 218.917117 284.258625 
L 218.917117 259.429152 
L 216.990383 259.429152 
z
" style="fill:#1f77b4;"/>
   </g>
   <g id="patch_71">
    <path clip-path="url(#p68522536ed)" d="M 219.3988 284.258625 
L 221.325533 284.258625 
L 221.325533 256.266463 
L 219.3988 256.266463 
z
" style="fill:#1f77b4;"/>
   </g>
   <g id="patch_72">
    <path clip-path="url(#p68522536ed)" d="M 221.807216 284.258625 
L 223.73395 284.258625 
L 223.73395 251.640439 
L 221.807216 251.640439 
z
" style="fill:#1f77b4;"/>
   </g>
   <g id="patch_73">
    <path clip-path="url(#p68522536ed)" d="M 224.215633 284.258625 
L 226.142366 284.258625 
L 226.142366 247.297642 
L 224.215633 247.297642 
z
" style="fill:#1f77b4;"/>
   </g>
   <g id="patch_74">
    <path clip-path="url(#p68522536ed)" d="M 226.624049 284.258625 
L 228.550783 284.258625 
L 228.550783 241.727532 
L 226.624049 241.727532 
z
" style="fill:#1f77b4;"/>
   </g>
   <g id="patch_75">
    <path clip-path="url(#p68522536ed)" d="M 229.032466 284.258625 
L 230.959199 284.258625 
L 230.959199 235.071722 
L 229.032466 235.071722 
z
" style="fill:#1f77b4;"/>
   </g>
   <g id="patch_76">
    <path clip-path="url(#p68522536ed)" d="M 231.440882 284.258625 
L 233.367616 284.258625 
L 233.367616 231.059355 
L 231.440882 231.059355 
z
" style="fill:#1f77b4;"/>
   </g>
   <g id="patch_77">
    <path clip-path="url(#p68522536ed)" d="M 233.849299 284.258625 
L 235.776032 284.258625 
L 235.776032 226.952579 
L 233.849299 226.952579 
z
" style="fill:#1f77b4;"/>
   </g>
   <g id="patch_78">
    <path clip-path="url(#p68522536ed)" d="M 236.257715 284.258625 
L 238.184449 284.258625 
L 238.184449 219.588705 
L 236.257715 219.588705 
z
" style="fill:#1f77b4;"/>
   </g>
   <g id="patch_79">
    <path clip-path="url(#p68522536ed)" d="M 238.666132 284.258625 
L 240.592865 284.258625 
L 240.592865 210.950314 
L 238.666132 210.950314 
z
" style="fill:#1f77b4;"/>
   </g>
   <g id="patch_80">
    <path clip-path="url(#p68522536ed)" d="M 241.074548 284.258625 
L 243.001282 284.258625 
L 243.001282 201.556654 
L 241.074548 201.556654 
z
" style="fill:#1f77b4;"/>
   </g>
   <g id="patch_81">
    <path clip-path="url(#p68522536ed)" d="M 243.482965 284.258625 
L 245.409698 284.258625 
L 245.409698 192.210199 
L 243.482965 192.210199 
z
" style="fill:#1f77b4;"/>
   </g>
   <g id="patch_82">
    <path clip-path="url(#p68522536ed)" d="M 245.891382 284.258625 
L 247.818115 284.258625 
L 247.818115 183.996647 
L 245.891382 183.996647 
z
" style="fill:#1f77b4;"/>
   </g>
   <g id="patch_83">
    <path clip-path="url(#p68522536ed)" d="M 248.299798 284.258625 
L 250.226531 284.258625 
L 250.226531 179.181806 
L 248.299798 179.181806 
z
" style="fill:#1f77b4;"/>
   </g>
   <g id="patch_84">
    <path clip-path="url(#p68522536ed)" d="M 250.708215 284.258625 
L 252.634948 284.258625 
L 252.634948 171.676319 
L 250.708215 171.676319 
z
" style="fill:#1f77b4;"/>
   </g>
   <g id="patch_85">
    <path clip-path="url(#p68522536ed)" d="M 253.116631 284.258625 
L 255.043364 284.258625 
L 255.043364 165.68137 
L 253.116631 165.68137 
z
" style="fill:#1f77b4;"/>
   </g>
   <g id="patch_86">
    <path clip-path="url(#p68522536ed)" d="M 255.525048 284.258625 
L 257.451781 284.258625 
L 257.451781 158.553518 
L 255.525048 158.553518 
z
" style="fill:#1f77b4;"/>
   </g>
   <g id="patch_87">
    <path clip-path="url(#p68522536ed)" d="M 257.933464 284.258625 
L 259.860197 284.258625 
L 259.860197 148.829428 
L 257.933464 148.829428 
z
" style="fill:#1f77b4;"/>
   </g>
   <g id="patch_88">
    <path clip-path="url(#p68522536ed)" d="M 260.341881 284.258625 
L 262.268614 284.258625 
L 262.268614 140.049424 
L 260.341881 140.049424 
z
" style="fill:#1f77b4;"/>
   </g>
   <g id="patch_89">
    <path clip-path="url(#p68522536ed)" d="M 262.750297 284.258625 
L 264.67703 284.258625 
L 264.67703 134.904153 
L 262.750297 134.904153 
z
" style="fill:#1f77b4;"/>
   </g>
   <g id="patch_90">
    <path clip-path="url(#p68522536ed)" d="M 265.158714 284.258625 
L 267.085447 284.258625 
L 267.085447 130.136517 
L 265.158714 130.136517 
z
" style="fill:#1f77b4;"/>
   </g>
   <g id="patch_91">
    <path clip-path="url(#p68522536ed)" d="M 267.56713 284.258625 
L 269.493863 284.258625 
L 269.493863 124.330385 
L 267.56713 124.330385 
z
" style="fill:#1f77b4;"/>
   </g>
   <g id="patch_92">
    <path clip-path="url(#p68522536ed)" d="M 269.975547 284.258625 
L 271.90228 284.258625 
L 271.90228 118.524254 
L 269.975547 118.524254 
z
" style="fill:#1f77b4;"/>
   </g>
   <g id="patch_93">
    <path clip-path="url(#p68522536ed)" d="M 272.383963 284.258625 
L 274.310696 284.258625 
L 274.310696 112.198875 
L 272.383963 112.198875 
z
" style="fill:#1f77b4;"/>
   </g>
   <g id="patch_94">
    <path clip-path="url(#p68522536ed)" d="M 274.79238 284.258625 
L 276.719113 284.258625 
L 276.719113 104.17414 
L 274.79238 104.17414 
z
" style="fill:#1f77b4;"/>
   </g>
   <g id="patch_95">
    <path clip-path="url(#p68522536ed)" d="M 277.200796 284.258625 
L 279.127529 284.258625 
L 279.127529 98.556826 
L 277.200796 98.556826 
z
" style="fill:#1f77b4;"/>
   </g>
   <g id="patch_96">
    <path clip-path="url(#p68522536ed)" d="M 279.609213 284.258625 
L 281.535946 284.258625 
L 281.535946 94.686071 
L 279.609213 94.686071 
z
" style="fill:#1f77b4;"/>
   </g>
   <g id="patch_97">
    <path clip-path="url(#p68522536ed)" d="M 282.017629 284.258625 
L 283.944362 284.258625 
L 283.944362 92.750694 
L 282.017629 92.750694 
z
" style="fill:#1f77b4;"/>
   </g>
   <g id="patch_98">
    <path clip-path="url(#p68522536ed)" d="M 284.426046 284.258625 
L 286.352779 284.258625 
L 286.352779 87.416606 
L 284.426046 87.416606 
z
" style="fill:#1f77b4;"/>
   </g>
   <g id="patch_99">
    <path clip-path="url(#p68522536ed)" d="M 286.834462 284.258625 
L 288.761195 284.258625 
L 288.761195 85.198003 
L 286.834462 85.198003 
z
" style="fill:#1f77b4;"/>
   </g>
   <g id="patch_100">
    <path clip-path="url(#p68522536ed)" d="M 289.242879 284.258625 
L 291.169612 284.258625 
L 291.169612 82.412948 
L 289.242879 82.412948 
z
" style="fill:#1f77b4;"/>
   </g>
   <g id="patch_101">
    <path clip-path="url(#p68522536ed)" d="M 291.651295 284.258625 
L 293.578028 284.258625 
L 293.578028 74.624235 
L 291.651295 74.624235 
z
" style="fill:#1f77b4;"/>
   </g>
   <g id="patch_102">
    <path clip-path="url(#p68522536ed)" d="M 294.059712 284.258625 
L 295.986445 284.258625 
L 295.986445 67.260361 
L 294.059712 67.260361 
z
" style="fill:#1f77b4;"/>
   </g>
   <g id="patch_103">
    <path clip-path="url(#p68522536ed)" d="M 296.468128 284.258625 
L 298.394861 284.258625 
L 298.394861 62.870359 
L 296.468128 62.870359 
z
" style="fill:#1f77b4;"/>
   </g>
   <g id="patch_104">
    <path clip-path="url(#p68522536ed)" d="M 298.876545 284.258625 
L 300.803278 284.258625 
L 300.803278 58.763583 
L 298.876545 58.763583 
z
" style="fill:#1f77b4;"/>
   </g>
   <g id="patch_105">
    <path clip-path="url(#p68522536ed)" d="M 301.284961 284.258625 
L 303.211694 284.258625 
L 303.211694 56.072937 
L 301.284961 56.072937 
z
" style="fill:#1f77b4;"/>
   </g>
   <g id="patch_106">
    <path clip-path="url(#p68522536ed)" d="M 303.693378 284.258625 
L 305.620111 284.258625 
L 305.620111 54.326377 
L 303.693378 54.326377 
z
" style="fill:#1f77b4;"/>
   </g>
   <g id="patch_107">
    <path clip-path="url(#p68522536ed)" d="M 306.101794 284.258625 
L 308.028527 284.258625 
L 308.028527 53.240678 
L 306.101794 53.240678 
z
" style="fill:#1f77b4;"/>
   </g>
   <g id="patch_108">
    <path clip-path="url(#p68522536ed)" d="M 308.510211 284.258625 
L 310.436944 284.258625 
L 310.436944 51.399709 
L 308.510211 51.399709 
z
" style="fill:#1f77b4;"/>
   </g>
   <g id="patch_109">
    <path clip-path="url(#p68522536ed)" d="M 310.918627 284.258625 
L 312.84536 284.258625 
L 312.84536 49.700353 
L 310.918627 49.700353 
z
" style="fill:#1f77b4;"/>
   </g>
   <g id="patch_110">
    <path clip-path="url(#p68522536ed)" d="M 313.327044 284.258625 
L 315.253777 284.258625 
L 315.253777 48.661858 
L 313.327044 48.661858 
z
" style="fill:#1f77b4;"/>
   </g>
   <g id="patch_111">
    <path clip-path="url(#p68522536ed)" d="M 315.73546 284.258625 
L 317.662193 284.258625 
L 317.662193 47.953794 
L 315.73546 47.953794 
z
" style="fill:#1f77b4;"/>
   </g>
   <g id="patch_112">
    <path clip-path="url(#p68522536ed)" d="M 318.143877 284.258625 
L 320.07061 284.258625 
L 320.07061 46.679277 
L 318.143877 46.679277 
z
" style="fill:#1f77b4;"/>
   </g>
   <g id="patch_113">
    <path clip-path="url(#p68522536ed)" d="M 320.552293 284.258625 
L 322.479027 284.258625 
L 322.479027 46.207234 
L 320.552293 46.207234 
z
" style="fill:#1f77b4;"/>
   </g>
   <g id="patch_114">
    <path clip-path="url(#p68522536ed)" d="M 322.96071 284.258625 
L 324.887443 284.258625 
L 324.887443 44.791104 
L 322.96071 44.791104 
z
" style="fill:#1f77b4;"/>
   </g>
   <g id="patch_115">
    <path clip-path="url(#p68522536ed)" d="M 325.369126 284.258625 
L 327.29586 284.258625 
L 327.29586 44.366265 
L 325.369126 44.366265 
z
" style="fill:#1f77b4;"/>
   </g>
   <g id="patch_116">
    <path clip-path="url(#p68522536ed)" d="M 327.777543 284.258625 
L 329.704276 284.258625 
L 329.704276 43.705405 
L 327.777543 43.705405 
z
" style="fill:#1f77b4;"/>
   </g>
   <g id="patch_117">
    <path clip-path="url(#p68522536ed)" d="M 330.185959 284.258625 
L 332.112693 284.258625 
L 332.112693 43.469383 
L 330.185959 43.469383 
z
" style="fill:#1f77b4;"/>
   </g>
   <g id="patch_118">
    <path clip-path="url(#p68522536ed)" d="M 332.594376 284.258625 
L 334.521109 284.258625 
L 334.521109 42.99734 
L 332.594376 42.99734 
z
" style="fill:#1f77b4;"/>
   </g>
   <g id="patch_119">
    <path clip-path="url(#p68522536ed)" d="M 335.002792 284.258625 
L 336.929526 284.258625 
L 336.929526 42.761318 
L 335.002792 42.761318 
z
" style="fill:#1f77b4;"/>
   </g>
   <g id="patch_120">
    <path clip-path="url(#p68522536ed)" d="M 337.411209 284.258625 
L 339.337942 284.258625 
L 339.337942 42.525297 
L 337.411209 42.525297 
z
" style="fill:#1f77b4;"/>
   </g>
   <g id="patch_121">
    <path clip-path="url(#p68522536ed)" d="M 339.819625 284.258625 
L 341.746359 284.258625 
L 341.746359 42.006049 
L 339.819625 42.006049 
z
" style="fill:#1f77b4;"/>
   </g>
   <g id="patch_122">
    <path clip-path="url(#p68522536ed)" d="M 342.228042 284.258625 
L 344.154775 284.258625 
L 344.154775 41.864436 
L 342.228042 41.864436 
z
" style="fill:#1f77b4;"/>
   </g>
   <g id="patch_123">
    <path clip-path="url(#p68522536ed)" d="M 344.636458 284.258625 
L 346.563192 284.258625 
L 346.563192 41.770027 
L 344.636458 41.770027 
z
" style="fill:#1f77b4;"/>
   </g>
   <g id="patch_124">
    <path clip-path="url(#p68522536ed)" d="M 347.044875 284.258625 
L 348.971608 284.258625 
L 348.971608 41.109167 
L 347.044875 41.109167 
z
" style="fill:#1f77b4;"/>
   </g>
   <g id="patch_125">
    <path clip-path="url(#p68522536ed)" d="M 349.453291 284.258625 
L 351.380025 284.258625 
L 351.380025 40.731532 
L 349.453291 40.731532 
z
" style="fill:#1f77b4;"/>
   </g>
   <g id="patch_126">
    <path clip-path="url(#p68522536ed)" d="M 351.861708 284.258625 
L 353.788441 284.258625 
L 353.788441 40.259489 
L 351.861708 40.259489 
z
" style="fill:#1f77b4;"/>
   </g>
   <g id="patch_127">
    <path clip-path="url(#p68522536ed)" d="M 354.270124 284.258625 
L 356.196858 284.258625 
L 356.196858 39.740242 
L 354.270124 39.740242 
z
" style="fill:#1f77b4;"/>
   </g>
   <g id="patch_128">
    <path clip-path="url(#p68522536ed)" d="M 356.678541 284.258625 
L 358.605274 284.258625 
L 358.605274 39.032177 
L 356.678541 39.032177 
z
" style="fill:#1f77b4;"/>
   </g>
   <g id="patch_129">
    <path clip-path="url(#p68522536ed)" d="M 359.086957 284.258625 
L 361.013691 284.258625 
L 361.013691 37.993682 
L 359.086957 37.993682 
z
" style="fill:#1f77b4;"/>
   </g>
   <g id="patch_130">
    <path clip-path="url(#p68522536ed)" d="M 361.495374 284.258625 
L 363.422107 284.258625 
L 363.422107 37.332821 
L 361.495374 37.332821 
z
" style="fill:#1f77b4;"/>
   </g>
   <g id="patch_131">
    <path clip-path="url(#p68522536ed)" d="M 363.90379 284.258625 
L 365.830524 284.258625 
L 365.830524 37.0968 
L 363.90379 37.0968 
z
" style="fill:#1f77b4;"/>
   </g>
   <g id="patch_132">
    <path clip-path="url(#p68522536ed)" d="M 366.312207 284.258625 
L 368.23894 284.258625 
L 368.23894 36.483144 
L 366.312207 36.483144 
z
" style="fill:#1f77b4;"/>
   </g>
   <g id="patch_133">
    <path clip-path="url(#p68522536ed)" d="M 368.720623 284.258625 
L 370.647357 284.258625 
L 370.647357 34.878197 
L 368.720623 34.878197 
z
" style="fill:#1f77b4;"/>
   </g>
   <g id="patch_134">
    <path clip-path="url(#p68522536ed)" d="M 371.12904 284.258625 
L 373.055773 284.258625 
L 373.055773 34.311745 
L 371.12904 34.311745 
z
" style="fill:#1f77b4;"/>
   </g>
   <g id="patch_135">
    <path clip-path="url(#p68522536ed)" d="M 373.537457 284.258625 
L 375.46419 284.258625 
L 375.46419 32.990024 
L 373.537457 32.990024 
z
" style="fill:#1f77b4;"/>
   </g>
   <g id="patch_136">
    <path clip-path="url(#p68522536ed)" d="M 375.945873 284.258625 
L 377.872606 284.258625 
L 377.872606 32.045937 
L 375.945873 32.045937 
z
" style="fill:#1f77b4;"/>
   </g>
   <g id="patch_137">
    <path clip-path="url(#p68522536ed)" d="M 378.35429 284.258625 
L 380.281023 284.258625 
L 380.281023 30.818625 
L 378.35429 30.818625 
z
" style="fill:#1f77b4;"/>
   </g>
   <g id="matplotlib.axis_1">
    <g id="xtick_1">
     <g id="line2d_3">
      <defs>
       <path d="M 0 0 
L 0 3.5 
" id="m0365c9fec8" style="stroke:#000000;stroke-width:0.8;"/>
      </defs>
      <g>
       <use style="stroke:#000000;stroke-width:0.8;" x="50.809644" xlink:href="#m0365c9fec8" y="284.258625"/>
      </g>
     </g>
     <g id="text_1">
      <!-- 22 -->
      <defs>
       <path d="M 57.171875 0.984375 
L 6.984375 0.984375 
L 6.984375 9.28125 
Q 12.890625 23.046875 29.59375 34.421875 
L 32.375 36.28125 
Q 40.921875 42.140625 43.609375 45.40625 
Q 46.6875 49.265625 46.6875 53.8125 
Q 46.6875 58.9375 43.0625 62.546875 
Q 39.0625 66.546875 32.5625 66.546875 
Q 19.53125 66.546875 15.484375 52 
L 7.765625 54.78125 
Q 13.328125 73.828125 33.0625 73.828125 
Q 43.84375 73.828125 50.25 67.4375 
Q 55.859375 61.671875 55.859375 53.515625 
Q 55.859375 47.46875 52.25 42.53125 
Q 48.921875 37.75 36.96875 30.28125 
L 34.859375 29 
Q 19.625 19.578125 15.28125 8.890625 
L 57.171875 8.890625 
z
" id="IPAexGothic-50"/>
      </defs>
      <g transform="translate(44.511207 298.74925)scale(0.1 -0.1)">
       <use xlink:href="#IPAexGothic-50"/>
       <use x="62.988281" xlink:href="#IPAexGothic-50"/>
      </g>
     </g>
    </g>
    <g id="xtick_2">
     <g id="line2d_4">
      <g>
       <use style="stroke:#000000;stroke-width:0.8;" x="74.893809" xlink:href="#m0365c9fec8" y="284.258625"/>
      </g>
     </g>
     <g id="text_2">
      <!-- Feb -->
      <defs>
       <path d="M 54.203125 64.703125 
L 18.3125 64.703125 
L 18.3125 41.5 
L 50.09375 41.5 
L 50.09375 34.1875 
L 18.3125 34.1875 
L 18.3125 0.984375 
L 9.515625 0.984375 
L 9.515625 72.40625 
L 54.203125 72.40625 
z
" id="IPAexGothic-70"/>
       <path d="M 13.484375 24.90625 
Q 13.921875 16.265625 18.890625 11.28125 
Q 23.96875 6.203125 31.203125 6.203125 
Q 40.71875 6.203125 46.296875 15.09375 
L 51.90625 11.375 
Q 44.828125 -0.484375 30.171875 -0.484375 
Q 19.09375 -0.484375 11.96875 6.59375 
Q 4.78125 13.8125 4.78125 25.640625 
Q 4.78125 38.1875 12.3125 45.703125 
Q 19 52.390625 29 52.390625 
Q 38.421875 52.390625 44.78125 46.1875 
Q 51.90625 38.96875 51.90625 26.90625 
L 51.90625 24.90625 
z
M 43.0625 31.203125 
Q 42.328125 37.984375 38.28125 41.890625 
Q 34.28125 45.90625 28.8125 45.90625 
Q 22.46875 45.90625 17.96875 40.484375 
Q 14.890625 36.8125 13.96875 31.203125 
z
" id="IPAexGothic-101"/>
       <path d="M 17.578125 42.671875 
Q 24.21875 52.203125 34.671875 52.203125 
Q 43.5625 52.203125 49.859375 45.90625 
Q 57.171875 38.578125 57.171875 25.6875 
Q 57.171875 13.09375 49.859375 5.8125 
Q 43.5625 -0.484375 34.46875 -0.484375 
Q 24.359375 -0.484375 17 8.0625 
L 15.765625 0.6875 
L 9.078125 0.6875 
L 9.078125 74.90625 
L 17.578125 74.90625 
z
M 17.578125 31.203125 
L 17.578125 19.578125 
Q 17.578125 13.875 23.875 9.375 
Q 28.171875 6.296875 33.109375 6.296875 
Q 38.875 6.296875 42.875 10.296875 
Q 48.1875 15.765625 48.1875 25.484375 
Q 48.1875 34.28125 43.796875 39.890625 
Q 39.453125 45.3125 33.203125 45.3125 
Q 27.484375 45.3125 22.46875 40.28125 
Q 17.578125 35.40625 17.578125 31.203125 
z
" id="IPAexGothic-98"/>
      </defs>
      <g transform="translate(66.070372 298.74925)scale(0.1 -0.1)">
       <use xlink:href="#IPAexGothic-70"/>
       <use x="57.177734" xlink:href="#IPAexGothic-101"/>
       <use x="114.0625" xlink:href="#IPAexGothic-98"/>
      </g>
     </g>
    </g>
    <g id="xtick_3">
     <g id="line2d_5">
      <g>
       <use style="stroke:#000000;stroke-width:0.8;" x="125.470556" xlink:href="#m0365c9fec8" y="284.258625"/>
      </g>
     </g>
     <g id="text_3">
      <!-- 22 -->
      <g transform="translate(119.172119 298.74925)scale(0.1 -0.1)">
       <use xlink:href="#IPAexGothic-50"/>
       <use x="62.988281" xlink:href="#IPAexGothic-50"/>
      </g>
     </g>
    </g>
    <g id="xtick_4">
     <g id="line2d_6">
      <g>
       <use style="stroke:#000000;stroke-width:0.8;" x="144.737888" xlink:href="#m0365c9fec8" y="284.258625"/>
      </g>
     </g>
     <g id="text_4">
      <!-- Mar -->
      <defs>
       <path d="M 80.421875 0.984375 
L 71.828125 0.984375 
L 71.828125 39.59375 
Q 71.828125 51.265625 72.40625 64.59375 
L 72.015625 64.59375 
Q 68.0625 53.265625 63.53125 41.796875 
L 47.90625 3.265625 
L 41.40625 3.265625 
L 25.640625 42.578125 
Q 20.75 54.78125 17.625 64.703125 
L 17.234375 64.703125 
Q 17.828125 48.921875 17.828125 39.890625 
L 17.828125 0.984375 
L 9.515625 0.984375 
L 9.515625 72.40625 
L 22.125 72.40625 
L 39.109375 30.375 
Q 42.140625 23 44.828125 14.15625 
L 45.125 14.15625 
Q 47.3125 22.125 50.53125 30.171875 
L 67.4375 72.40625 
L 80.421875 72.40625 
z
" id="IPAexGothic-77"/>
       <path d="M 49.3125 0.984375 
L 41.75 0.984375 
Q 39.984375 4.734375 39.546875 8.6875 
L 39.203125 8.6875 
Q 33.546875 -0.390625 22.3125 -0.390625 
Q 14.59375 -0.390625 9.71875 4.5 
Q 5.421875 8.796875 5.421875 14.984375 
Q 5.421875 30.421875 32.03125 31.203125 
L 38.71875 31.390625 
L 38.71875 33.984375 
Q 38.71875 39.203125 35.75 42.1875 
Q 32.625 45.3125 27.734375 45.3125 
Q 19.34375 45.3125 15.140625 37.15625 
L 7.71875 40.578125 
Q 14.65625 52 27.9375 52 
Q 37.109375 52 42.046875 46.875 
Q 46.625 42.28125 46.625 33.890625 
L 46.625 15.578125 
Q 46.625 6.25 49.3125 0.984375 
z
M 38.921875 25.390625 
L 33.453125 25.296875 
Q 14.109375 24.859375 14.109375 14.890625 
Q 14.109375 11.375 16.40625 9.078125 
Q 19.234375 6.296875 23.828125 6.296875 
Q 30.21875 6.296875 34.90625 10.984375 
Q 38.921875 15.140625 38.921875 21 
z
" id="IPAexGothic-97"/>
       <path d="M 36.078125 51.8125 
L 34.578125 43.265625 
Q 32.90625 43.609375 31.59375 43.609375 
Q 25.828125 43.609375 22.078125 38.1875 
Q 17.390625 31.34375 17.390625 26.171875 
L 17.390625 0.984375 
L 8.796875 0.984375 
L 8.796875 50.78125 
L 16.890625 50.78125 
L 16.5 35.984375 
L 16.703125 35.984375 
Q 22.21875 52.203125 32.765625 52.203125 
Q 34.46875 52.203125 36.078125 51.8125 
z
" id="IPAexGothic-114"/>
      </defs>
      <g transform="translate(135.628513 298.74925)scale(0.1 -0.1)">
       <use xlink:href="#IPAexGothic-77"/>
       <use x="90.185547" xlink:href="#IPAexGothic-97"/>
       <use x="145.166016" xlink:href="#IPAexGothic-114"/>
      </g>
     </g>
    </g>
    <g id="xtick_5">
     <g id="line2d_7">
      <g>
       <use style="stroke:#000000;stroke-width:0.8;" x="195.314635" xlink:href="#m0365c9fec8" y="284.258625"/>
      </g>
     </g>
     <g id="text_5">
      <!-- 22 -->
      <g transform="translate(189.016197 298.74925)scale(0.1 -0.1)">
       <use xlink:href="#IPAexGothic-50"/>
       <use x="62.988281" xlink:href="#IPAexGothic-50"/>
      </g>
     </g>
    </g>
    <g id="xtick_6">
     <g id="line2d_8">
      <g>
       <use style="stroke:#000000;stroke-width:0.8;" x="219.3988" xlink:href="#m0365c9fec8" y="284.258625"/>
      </g>
     </g>
     <g id="text_6">
      <!-- Apr -->
      <defs>
       <path d="M 63.375 0.984375 
L 53.8125 0.984375 
L 45.90625 22.015625 
L 17.1875 22.015625 
L 9.421875 0.984375 
L -0.09375 0.984375 
L 28.21875 72.90625 
L 35.296875 72.90625 
z
M 43.40625 29.109375 
L 36.1875 48.09375 
Q 33.203125 56.0625 31.6875 62.5 
L 31.390625 62.5 
Q 29.640625 55.671875 26.8125 48.09375 
L 19.734375 29.109375 
z
" id="IPAexGothic-65"/>
       <path d="M 16.796875 42 
Q 23.828125 52.203125 34.46875 52.203125 
Q 43.265625 52.203125 49.5625 45.90625 
Q 56.890625 38.578125 56.890625 25.6875 
Q 56.890625 13.140625 49.65625 5.8125 
Q 43.359375 -0.484375 34.375 -0.484375 
Q 24.515625 -0.484375 17.28125 7.765625 
L 17.28125 -19 
L 8.796875 -19 
L 8.796875 50.78125 
L 16.796875 50.78125 
z
M 17.28125 30.46875 
L 17.28125 20.171875 
Q 17.28125 14.015625 23.6875 9.375 
Q 27.984375 6.296875 32.90625 6.296875 
Q 38.578125 6.296875 42.578125 10.296875 
Q 47.90625 15.578125 47.90625 25.484375 
Q 47.90625 34.375 43.5 39.984375 
Q 39.109375 45.3125 32.8125 45.3125 
Q 25.875 45.3125 20.90625 38.8125 
Q 17.28125 34.125 17.28125 30.46875 
z
" id="IPAexGothic-112"/>
      </defs>
      <g transform="translate(211.256612 298.74925)scale(0.1 -0.1)">
       <use xlink:href="#IPAexGothic-65"/>
       <use x="63.720703" xlink:href="#IPAexGothic-112"/>
       <use x="125.830078" xlink:href="#IPAexGothic-114"/>
      </g>
     </g>
    </g>
    <g id="xtick_7">
     <g id="line2d_9">
      <g>
       <use style="stroke:#000000;stroke-width:0.8;" x="269.975547" xlink:href="#m0365c9fec8" y="284.258625"/>
      </g>
     </g>
     <g id="text_7">
      <!-- 22 -->
      <g transform="translate(263.677109 298.74925)scale(0.1 -0.1)">
       <use xlink:href="#IPAexGothic-50"/>
       <use x="62.988281" xlink:href="#IPAexGothic-50"/>
      </g>
     </g>
    </g>
    <g id="xtick_8">
     <g id="line2d_10">
      <g>
       <use style="stroke:#000000;stroke-width:0.8;" x="291.651295" xlink:href="#m0365c9fec8" y="284.258625"/>
      </g>
     </g>
     <g id="text_8">
      <!-- May -->
      <defs>
       <path d="M 48.78125 50.78125 
L 24.609375 -7.625 
Q 19.96875 -18.796875 8.59375 -18.796875 
L 7.46875 -18.796875 
L 5.375 -10.984375 
L 6.984375 -10.984375 
Q 15.140625 -10.984375 17.96875 -3.71875 
L 21.1875 4.296875 
L 0.59375 50.78125 
L 10.296875 50.78125 
L 21.296875 22.796875 
Q 23.875 16.015625 25.09375 12.203125 
L 25.390625 12.203125 
Q 27.34375 18.265625 29.109375 22.796875 
L 39.5 50.78125 
z
" id="IPAexGothic-121"/>
      </defs>
      <g transform="translate(281.931764 298.74925)scale(0.1 -0.1)">
       <use xlink:href="#IPAexGothic-77"/>
       <use x="90.185547" xlink:href="#IPAexGothic-97"/>
       <use x="145.166016" xlink:href="#IPAexGothic-121"/>
      </g>
     </g>
    </g>
    <g id="xtick_9">
     <g id="line2d_11">
      <g>
       <use style="stroke:#000000;stroke-width:0.8;" x="342.228042" xlink:href="#m0365c9fec8" y="284.258625"/>
      </g>
     </g>
     <g id="text_9">
      <!-- 22 -->
      <g transform="translate(335.929604 298.74925)scale(0.1 -0.1)">
       <use xlink:href="#IPAexGothic-50"/>
       <use x="62.988281" xlink:href="#IPAexGothic-50"/>
      </g>
     </g>
    </g>
    <g id="xtick_10">
     <g id="line2d_12">
      <g>
       <use style="stroke:#000000;stroke-width:0.8;" x="366.312207" xlink:href="#m0365c9fec8" y="284.258625"/>
      </g>
     </g>
     <g id="text_10">
      <!-- Jun -->
      <defs>
       <path d="M 28.421875 72.40625 
L 28.421875 19.28125 
Q 28.421875 -0.484375 11.921875 -0.484375 
Q 4.734375 -0.484375 -1.953125 3.265625 
L 1.3125 10.0625 
Q 5.90625 6.984375 10.84375 6.984375 
Q 19.53125 6.984375 19.53125 18.796875 
L 19.53125 72.40625 
z
" id="IPAexGothic-74"/>
       <path d="M 51.3125 0.984375 
L 43.3125 0.984375 
L 43.3125 10.0625 
Q 35.9375 0 25.390625 0 
Q 16.75 0 11.921875 5.859375 
Q 8.109375 10.59375 8.109375 19.390625 
L 8.109375 50.78125 
L 16.703125 50.78125 
L 16.703125 19.671875 
Q 16.703125 7.28125 27.09375 7.28125 
Q 37.59375 7.28125 42.71875 20.171875 
L 42.71875 50.78125 
L 51.3125 50.78125 
z
" id="IPAexGothic-117"/>
       <path d="M 52 0.984375 
L 43.40625 0.984375 
L 43.40625 31.890625 
Q 43.40625 44.578125 32.90625 44.578125 
Q 22.3125 44.578125 17.390625 31.890625 
L 17.390625 0.984375 
L 8.796875 0.984375 
L 8.796875 50.78125 
L 16.796875 50.78125 
L 16.796875 41.796875 
Q 23.828125 51.8125 34.71875 51.8125 
Q 52 51.8125 52 32.375 
z
" id="IPAexGothic-110"/>
      </defs>
      <g transform="translate(358.372363 298.74925)scale(0.1 -0.1)">
       <use xlink:href="#IPAexGothic-74"/>
       <use x="37.988281" xlink:href="#IPAexGothic-117"/>
       <use x="98.388672" xlink:href="#IPAexGothic-110"/>
      </g>
     </g>
    </g>
    <g id="text_11">
     <!-- 2020-Jun -->
     <defs>
      <path d="M 31.84375 73.828125 
Q 45.015625 73.828125 52.09375 61.625 
Q 57.71875 51.953125 57.71875 36.625 
Q 57.71875 21.4375 52.09375 11.578125 
Q 45.125 -0.484375 31.5 -0.484375 
Q 17.921875 -0.484375 10.9375 11.578125 
Q 5.328125 21.4375 5.328125 36.71875 
Q 5.328125 58.015625 15.625 67.71875 
Q 22.171875 73.828125 31.84375 73.828125 
z
M 31.5 66.65625 
Q 23.6875 66.65625 19.1875 58.734375 
Q 14.59375 50.734375 14.59375 36.625 
Q 14.59375 22.75 19.09375 14.796875 
Q 23.640625 6.984375 31.5 6.984375 
Q 40.921875 6.984375 45.453125 18.015625 
Q 48.4375 25.34375 48.4375 37.109375 
Q 48.4375 50.875 43.84375 58.734375 
Q 39.203125 66.65625 31.5 66.65625 
z
" id="IPAexGothic-48"/>
      <path d="M 30.765625 26.609375 
L 4.984375 26.609375 
L 4.984375 34.421875 
L 30.765625 34.421875 
z
" id="IPAexGothic-45"/>
     </defs>
     <g transform="translate(351.860625 311.139875)scale(0.1 -0.1)">
      <use xlink:href="#IPAexGothic-50"/>
      <use x="62.988281" xlink:href="#IPAexGothic-48"/>
      <use x="125.976562" xlink:href="#IPAexGothic-50"/>
      <use x="188.964844" xlink:href="#IPAexGothic-48"/>
      <use x="251.953125" xlink:href="#IPAexGothic-45"/>
      <use x="287.744141" xlink:href="#IPAexGothic-74"/>
      <use x="325.732422" xlink:href="#IPAexGothic-117"/>
      <use x="386.132812" xlink:href="#IPAexGothic-110"/>
     </g>
    </g>
   </g>
   <g id="matplotlib.axis_2">
    <g id="ytick_1">
     <g id="line2d_13">
      <defs>
       <path d="M 0 0 
L -3.5 0 
" id="mcaba10babb" style="stroke:#000000;stroke-width:0.8;"/>
      </defs>
      <g>
       <use style="stroke:#000000;stroke-width:0.8;" x="39.39375" xlink:href="#mcaba10babb" y="284.258625"/>
      </g>
     </g>
     <g id="text_12">
      <!-- 0 -->
      <g transform="translate(26.095313 288.003937)scale(0.1 -0.1)">
       <use xlink:href="#IPAexGothic-48"/>
      </g>
     </g>
    </g>
    <g id="ytick_2">
     <g id="line2d_14">
      <g>
       <use style="stroke:#000000;stroke-width:0.8;" x="39.39375" xlink:href="#mcaba10babb" y="237.054304"/>
      </g>
     </g>
     <g id="text_13">
      <!-- 1000 -->
      <defs>
       <path d="M 38.484375 0.984375 
L 29.6875 0.984375 
L 29.6875 64.109375 
Q 21.4375 61.28125 12.3125 59.328125 
L 10.6875 66.109375 
Q 23.734375 69.390625 32.90625 73.921875 
L 38.484375 73.921875 
z
" id="IPAexGothic-49"/>
      </defs>
      <g transform="translate(7.2 240.799616)scale(0.1 -0.1)">
       <use xlink:href="#IPAexGothic-49"/>
       <use x="62.988281" xlink:href="#IPAexGothic-48"/>
       <use x="125.976562" xlink:href="#IPAexGothic-48"/>
       <use x="188.964844" xlink:href="#IPAexGothic-48"/>
      </g>
     </g>
    </g>
    <g id="ytick_3">
     <g id="line2d_15">
      <g>
       <use style="stroke:#000000;stroke-width:0.8;" x="39.39375" xlink:href="#mcaba10babb" y="189.849983"/>
      </g>
     </g>
     <g id="text_14">
      <!-- 2000 -->
      <g transform="translate(7.2 193.595295)scale(0.1 -0.1)">
       <use xlink:href="#IPAexGothic-50"/>
       <use x="62.988281" xlink:href="#IPAexGothic-48"/>
       <use x="125.976562" xlink:href="#IPAexGothic-48"/>
       <use x="188.964844" xlink:href="#IPAexGothic-48"/>
      </g>
     </g>
    </g>
    <g id="ytick_4">
     <g id="line2d_16">
      <g>
       <use style="stroke:#000000;stroke-width:0.8;" x="39.39375" xlink:href="#mcaba10babb" y="142.645662"/>
      </g>
     </g>
     <g id="text_15">
      <!-- 3000 -->
      <defs>
       <path d="M 37.203125 37.796875 
Q 54.78125 34.625 54.78125 19.96875 
Q 54.78125 11.1875 48.875 5.5625 
Q 42.328125 -0.484375 30.375 -0.484375 
Q 12.453125 -0.484375 4.5 13.765625 
L 11.8125 17.671875 
Q 17.328125 6.890625 30.28125 6.890625 
Q 37.890625 6.890625 42.09375 10.796875 
Q 46.09375 14.5 46.09375 20.171875 
Q 46.09375 26.859375 40.09375 30.90625 
Q 34.625 34.578125 25.6875 34.578125 
L 21.296875 34.578125 
L 21.296875 41.703125 
L 25.875 41.703125 
Q 34.859375 41.703125 39.59375 45.125 
Q 44.671875 48.734375 44.671875 54.828125 
Q 44.671875 61.46875 38.96875 64.65625 
Q 35.296875 66.84375 30.171875 66.84375 
Q 19.34375 66.84375 14.109375 55.90625 
L 6.78125 59.421875 
Q 14.015625 73.828125 30.28125 73.828125 
Q 40.578125 73.828125 46.96875 68.65625 
Q 53.375 63.578125 53.375 55.21875 
Q 53.375 47.3125 47.171875 42.28125 
Q 43.171875 39.0625 37.203125 38.1875 
z
" id="IPAexGothic-51"/>
      </defs>
      <g transform="translate(7.2 146.390974)scale(0.1 -0.1)">
       <use xlink:href="#IPAexGothic-51"/>
       <use x="62.988281" xlink:href="#IPAexGothic-48"/>
       <use x="125.976562" xlink:href="#IPAexGothic-48"/>
       <use x="188.964844" xlink:href="#IPAexGothic-48"/>
      </g>
     </g>
    </g>
    <g id="ytick_5">
     <g id="line2d_17">
      <g>
       <use style="stroke:#000000;stroke-width:0.8;" x="39.39375" xlink:href="#mcaba10babb" y="95.441341"/>
      </g>
     </g>
     <g id="text_16">
      <!-- 4000 -->
      <defs>
       <path d="M 59.578125 18.109375 
L 47.796875 18.109375 
L 47.796875 0.984375 
L 39.796875 0.984375 
L 39.796875 18.109375 
L 3.078125 18.109375 
L 3.078125 26.125 
L 38.375 73.09375 
L 47.796875 73.09375 
L 47.796875 25.53125 
L 59.578125 25.53125 
z
M 40.28125 64.203125 
L 39.984375 64.203125 
Q 35.59375 57.125 31.296875 51.3125 
L 11.859375 25.53125 
L 39.796875 25.53125 
L 39.796875 49.125 
Q 39.796875 54.390625 40.28125 64.203125 
z
" id="IPAexGothic-52"/>
      </defs>
      <g transform="translate(7.2 99.186653)scale(0.1 -0.1)">
       <use xlink:href="#IPAexGothic-52"/>
       <use x="62.988281" xlink:href="#IPAexGothic-48"/>
       <use x="125.976562" xlink:href="#IPAexGothic-48"/>
       <use x="188.964844" xlink:href="#IPAexGothic-48"/>
      </g>
     </g>
    </g>
    <g id="ytick_6">
     <g id="line2d_18">
      <g>
       <use style="stroke:#000000;stroke-width:0.8;" x="39.39375" xlink:href="#mcaba10babb" y="48.237019"/>
      </g>
     </g>
     <g id="text_17">
      <!-- 5000 -->
      <defs>
       <path d="M 18.40625 40.671875 
Q 25.53125 46.296875 33.9375 46.296875 
Q 44 46.296875 50.640625 39.5 
Q 56.84375 33.015625 56.84375 23.390625 
Q 56.84375 14.65625 51.515625 8.015625 
Q 44.828125 -0.484375 31.734375 -0.484375 
Q 14.984375 -0.484375 7.328125 12.25 
L 14.65625 16.0625 
Q 20.453125 6.78125 31.453125 6.78125 
Q 38.53125 6.78125 43.265625 11.1875 
Q 48.140625 15.828125 48.140625 23.484375 
Q 48.140625 30.71875 43.84375 35.015625 
Q 39.359375 39.5 32.125 39.5 
Q 21.96875 39.5 16.75 31.6875 
L 9.234375 32.671875 
L 13.8125 72.40625 
L 53.21875 72.40625 
L 53.21875 64.890625 
L 20.953125 64.890625 
L 17.71875 40.671875 
z
" id="IPAexGothic-53"/>
      </defs>
      <g transform="translate(7.2 51.982332)scale(0.1 -0.1)">
       <use xlink:href="#IPAexGothic-53"/>
       <use x="62.988281" xlink:href="#IPAexGothic-48"/>
       <use x="125.976562" xlink:href="#IPAexGothic-48"/>
       <use x="188.964844" xlink:href="#IPAexGothic-48"/>
      </g>
     </g>
    </g>
   </g>
   <g id="patch_138">
    <path d="M 39.39375 284.258625 
L 39.39375 18.146625 
" style="fill:none;stroke:#000000;stroke-linecap:square;stroke-linejoin:miter;stroke-width:0.8;"/>
   </g>
   <g id="patch_139">
    <path d="M 396.51375 284.258625 
L 396.51375 18.146625 
" style="fill:none;stroke:#000000;stroke-linecap:square;stroke-linejoin:miter;stroke-width:0.8;"/>
   </g>
   <g id="patch_140">
    <path d="M 39.39375 284.258625 
L 396.51375 284.258625 
" style="fill:none;stroke:#000000;stroke-linecap:square;stroke-linejoin:miter;stroke-width:0.8;"/>
   </g>
   <g id="patch_141">
    <path d="M 39.39375 18.146625 
L 396.51375 18.146625 
" style="fill:none;stroke:#000000;stroke-linecap:square;stroke-linejoin:miter;stroke-width:0.8;"/>
   </g>
   <g id="legend_1">
    <g id="patch_142">
     <path d="M 46.39375 40.595062 
L 210.73125 40.595062 
Q 212.73125 40.595062 212.73125 38.595062 
L 212.73125 25.146625 
Q 212.73125 23.146625 210.73125 23.146625 
L 46.39375 23.146625 
Q 44.39375 23.146625 44.39375 25.146625 
L 44.39375 38.595062 
Q 44.39375 40.595062 46.39375 40.595062 
z
" style="fill:#ffffff;opacity:0.8;stroke:#cccccc;stroke-linejoin:miter;"/>
    </g>
    <g id="patch_143">
     <path d="M 48.39375 34.695062 
L 68.39375 34.695062 
L 68.39375 27.695062 
L 48.39375 27.695062 
z
" style="fill:#1f77b4;"/>
    </g>
    <g id="text_18">
     <!-- Tokyo cumulative confirmed -->
     <defs>
      <path d="M 60.40625 64.703125 
L 33.984375 64.703125 
L 33.984375 0.984375 
L 25.09375 0.984375 
L 25.09375 64.703125 
L -0.484375 64.703125 
L -0.484375 72.40625 
L 60.40625 72.40625 
z
" id="IPAexGothic-84"/>
      <path d="M 29.984375 52.203125 
Q 40.53125 52.203125 47.75 45.125 
Q 55.171875 37.703125 55.171875 25.59375 
Q 55.171875 13.875 47.90625 6.59375 
Q 40.765625 -0.484375 29.984375 -0.484375 
Q 19.1875 -0.484375 12.203125 6.5 
Q 4.890625 13.765625 4.890625 25.875 
Q 4.890625 37.703125 12.3125 45.125 
Q 19.390625 52.203125 29.984375 52.203125 
z
M 29.984375 45.609375 
Q 23.734375 45.609375 19.390625 41.109375 
Q 13.875 35.59375 13.875 25.78125 
Q 13.875 16.109375 19.28125 10.6875 
Q 23.6875 6.296875 29.984375 6.296875 
Q 36.421875 6.296875 40.765625 10.796875 
Q 46.1875 16.21875 46.1875 26.125 
Q 46.1875 35.453125 40.671875 41.109375 
Q 36.1875 45.609375 29.984375 45.609375 
z
" id="IPAexGothic-111"/>
      <path d="M 50.6875 0.984375 
L 40.28125 0.984375 
L 23.1875 25.203125 
L 17.484375 19.671875 
L 17.484375 0.984375 
L 9.078125 0.984375 
L 9.078125 74.90625 
L 17.484375 74.90625 
L 17.484375 27.59375 
L 38.484375 50.78125 
L 49.265625 50.78125 
L 28.5625 30.078125 
z
" id="IPAexGothic-107"/>
      <path id="IPAexGothic-32"/>
      <path d="M 51.078125 12.25 
Q 44.28125 -0.484375 29.6875 -0.484375 
Q 19.1875 -0.484375 12.3125 6.390625 
Q 4.890625 13.921875 4.890625 25.984375 
Q 4.890625 37.9375 12.3125 45.515625 
Q 19.09375 52.296875 29.390625 52.296875 
Q 43.953125 52.296875 50.09375 39.703125 
L 43.171875 36.078125 
Q 38.8125 45.3125 29.6875 45.3125 
Q 23.6875 45.3125 19.28125 40.921875 
Q 13.765625 35.40625 13.765625 25.78125 
Q 13.765625 16.703125 19.09375 11.375 
Q 23.78125 6.6875 30.5625 6.6875 
Q 39.796875 6.6875 44.484375 15.875 
z
" id="IPAexGothic-99"/>
      <path d="M 78.46875 0.984375 
L 69.875 0.984375 
L 69.875 32.171875 
Q 69.875 44.828125 60.109375 44.828125 
Q 55.46875 44.828125 51.609375 40.53125 
Q 48.875 37.453125 47.796875 32.859375 
L 47.796875 0.984375 
L 39.203125 0.984375 
L 39.203125 32.28125 
Q 39.203125 44.828125 29.984375 44.828125 
Q 25.09375 44.828125 21.390625 40.53125 
Q 17.390625 36.03125 17.390625 31.890625 
L 17.390625 0.984375 
L 8.796875 0.984375 
L 8.796875 50.78125 
L 16.796875 50.78125 
L 16.796875 42.1875 
Q 21.734375 51.8125 31.6875 51.8125 
Q 42.578125 51.8125 46.1875 41.359375 
Q 51.609375 51.8125 61.765625 51.8125 
Q 69.96875 51.8125 74.5625 46 
Q 78.46875 41.21875 78.46875 32.375 
z
" id="IPAexGothic-109"/>
      <path d="M 17.671875 0.984375 
L 9.078125 0.984375 
L 9.078125 74.90625 
L 17.671875 74.90625 
z
" id="IPAexGothic-108"/>
      <path d="M 33.203125 3.765625 
Q 27.640625 -0.09375 21.828125 -0.09375 
Q 10.203125 -0.09375 10.203125 12.984375 
L 10.203125 44.671875 
L 3.421875 44.671875 
L 3.421875 50.78125 
L 10.203125 50.78125 
L 10.203125 61.96875 
L 18.40625 66.0625 
L 18.40625 50.78125 
L 32.234375 50.78125 
L 32.234375 44.671875 
L 18.40625 44.671875 
L 18.40625 14.15625 
Q 18.40625 6.5 23.640625 6.5 
Q 27.15625 6.5 30.328125 9.1875 
z
" id="IPAexGothic-116"/>
      <path d="M 18.40625 61.375 
L 8.59375 61.375 
L 8.59375 71.390625 
L 18.40625 71.390625 
z
M 17.78125 0.984375 
L 9.1875 0.984375 
L 9.1875 50.78125 
L 17.78125 50.78125 
z
" id="IPAexGothic-105"/>
      <path d="M 48.484375 50.78125 
L 27.296875 0.09375 
L 21.484375 0.09375 
L 0.390625 50.78125 
L 9.8125 50.78125 
L 20.90625 21.6875 
L 23.78125 13.1875 
L 24.515625 10.984375 
L 24.8125 10.984375 
Q 25.640625 13.8125 28.46875 21.6875 
L 39.3125 50.78125 
z
" id="IPAexGothic-118"/>
      <path d="M 38.375 72.21875 
L 34.8125 66.3125 
Q 31.109375 69.09375 27.203125 69.09375 
Q 18.5 69.09375 18.5 57.375 
L 18.5 50.78125 
L 32.078125 50.78125 
L 32.078125 44.671875 
L 18.5 44.671875 
L 18.5 0.984375 
L 10.015625 0.984375 
L 10.015625 44.671875 
L 1.90625 44.671875 
L 1.90625 50.78125 
L 10.015625 50.78125 
L 10.015625 57.171875 
Q 10.015625 65.4375 13.921875 70.0625 
Q 18.75 75.6875 26.703125 75.6875 
Q 33.0625 75.6875 38.375 72.21875 
z
" id="IPAexGothic-102"/>
      <path d="M 52.984375 0.984375 
L 45.171875 0.984375 
L 45.171875 9.671875 
Q 38.140625 -0.484375 27.390625 -0.484375 
Q 18.453125 -0.484375 12.3125 5.8125 
Q 4.890625 13.1875 4.890625 25.984375 
Q 4.890625 38.53125 12.0625 45.90625 
Q 18.265625 52.203125 27.390625 52.203125 
Q 37.25 52.203125 44.484375 43.890625 
L 44.484375 74.90625 
L 52.984375 74.90625 
z
M 44.484375 20.359375 
L 44.484375 32.765625 
Q 44.484375 37.703125 38.375 42.28125 
Q 34.078125 45.40625 28.953125 45.40625 
Q 23.1875 45.40625 19.1875 41.40625 
Q 13.875 36.078125 13.875 26.21875 
Q 13.875 17.328125 18.265625 11.71875 
Q 22.515625 6.390625 28.859375 6.390625 
Q 36.28125 6.390625 41.5 13.671875 
Q 44.484375 17.71875 44.484375 20.359375 
z
" id="IPAexGothic-100"/>
     </defs>
     <g transform="translate(76.39375 34.695062)scale(0.1 -0.1)">
      <use xlink:href="#IPAexGothic-84"/>
      <use x="59.912109" xlink:href="#IPAexGothic-111"/>
      <use x="120.3125" xlink:href="#IPAexGothic-107"/>
      <use x="172.119141" xlink:href="#IPAexGothic-121"/>
      <use x="221.337891" xlink:href="#IPAexGothic-111"/>
      <use x="281.738281" xlink:href="#IPAexGothic-32"/>
      <use x="308.740234" xlink:href="#IPAexGothic-99"/>
      <use x="363.134766" xlink:href="#IPAexGothic-117"/>
      <use x="423.535156" xlink:href="#IPAexGothic-109"/>
      <use x="510.644531" xlink:href="#IPAexGothic-117"/>
      <use x="571.044922" xlink:href="#IPAexGothic-108"/>
      <use x="598.046875" xlink:href="#IPAexGothic-97"/>
      <use x="653.027344" xlink:href="#IPAexGothic-116"/>
      <use x="687.646484" xlink:href="#IPAexGothic-105"/>
      <use x="714.648438" xlink:href="#IPAexGothic-118"/>
      <use x="763.232422" xlink:href="#IPAexGothic-101"/>
      <use x="820.117188" xlink:href="#IPAexGothic-32"/>
      <use x="847.119141" xlink:href="#IPAexGothic-99"/>
      <use x="901.513672" xlink:href="#IPAexGothic-111"/>
      <use x="961.914062" xlink:href="#IPAexGothic-110"/>
      <use x="1022.314453" xlink:href="#IPAexGothic-102"/>
      <use x="1052.929688" xlink:href="#IPAexGothic-105"/>
      <use x="1079.931641" xlink:href="#IPAexGothic-114"/>
      <use x="1116.943359" xlink:href="#IPAexGothic-109"/>
      <use x="1204.052734" xlink:href="#IPAexGothic-101"/>
      <use x="1260.9375" xlink:href="#IPAexGothic-100"/>
     </g>
    </g>
   </g>
  </g>
  <g id="text_19">
   <!-- generated: 2020-06-06 15:41:56 JST -->
   <defs>
    <path d="M 20.796875 17.96875 
Q 15.71875 17.53125 15.71875 14.0625 
Q 15.71875 9.578125 27.546875 8.984375 
L 33.296875 8.6875 
Q 51.609375 7.765625 51.609375 -4.59375 
Q 51.609375 -10.9375 45.703125 -14.984375 
Q 39.359375 -19.578125 28.03125 -19.578125 
Q 17.78125 -19.578125 11.53125 -16.0625 
Q 5.515625 -12.640625 5.515625 -6.6875 
Q 5.515625 1.3125 16.796875 3.859375 
L 16.796875 4.203125 
Q 7.90625 6.453125 7.90625 12.15625 
Q 7.90625 17.4375 15.53125 20.265625 
Q 7.125 24.609375 7.125 34.078125 
Q 7.125 41.40625 12.015625 46.296875 
Q 17.625 51.90625 27.15625 51.90625 
Q 33.203125 51.90625 37.84375 49.265625 
Q 41.40625 53.953125 50.921875 54.109375 
L 50.921875 47.078125 
Q 44.34375 46.921875 42.234375 45.90625 
Q 47.40625 40.828125 47.40625 33.890625 
Q 47.40625 27 42.71875 22.265625 
Q 37.5 17.09375 28.328125 17.09375 
Q 24.421875 17.09375 20.796875 17.96875 
z
M 27.09375 45.609375 
Q 22.015625 45.609375 18.703125 42.28125 
Q 15.4375 39.015625 15.4375 34.078125 
Q 15.4375 29.25 18.5 26.3125 
Q 21.828125 23 27.4375 23 
Q 32.71875 23 35.890625 26.21875 
Q 39.109375 29.390625 39.109375 34.421875 
Q 39.109375 39.015625 35.890625 42.1875 
Q 32.515625 45.609375 27.09375 45.609375 
z
M 27.390625 2.484375 
Q 14.109375 2.484375 14.109375 -5.71875 
Q 14.109375 -13.671875 28.125 -13.671875 
Q 37.15625 -13.671875 41.21875 -9.46875 
Q 43.3125 -7.515625 43.3125 -4.890625 
Q 43.3125 2.484375 27.390625 2.484375 
z
" id="IPAexGothic-103"/>
    <path d="M 21.390625 39.984375 
L 10.5 39.984375 
L 10.5 50.78125 
L 21.390625 50.78125 
z
M 21.390625 0.984375 
L 10.5 0.984375 
L 10.5 11.765625 
L 21.390625 11.765625 
z
" id="IPAexGothic-58"/>
    <path d="M 16.5 36.375 
Q 23.578125 46.578125 34.90625 46.578125 
Q 45.40625 46.578125 51.8125 39.265625 
Q 57.421875 32.90625 57.421875 23.78125 
Q 57.421875 13.8125 51.125 6.78125 
Q 44.578125 -0.484375 34.03125 -0.484375 
Q 21.484375 -0.484375 14.40625 9.078125 
Q 7.515625 18.40625 7.515625 34.8125 
Q 7.515625 53.515625 15.828125 64.203125 
Q 23.34375 73.828125 35.5 73.828125 
Q 49.859375 73.828125 56.390625 62.890625 
L 49.21875 58.984375 
Q 45.21875 66.65625 35.9375 66.65625 
Q 17.484375 66.65625 16.109375 36.375 
z
M 33.453125 39.796875 
Q 26.3125 39.796875 21.625 34.46875 
Q 17.4375 29.6875 17.4375 24.078125 
Q 17.4375 18.0625 21.140625 13.1875 
Q 26.125 6.6875 33.734375 6.6875 
Q 41.703125 6.6875 45.953125 13.1875 
Q 48.828125 17.625 48.828125 23.484375 
Q 48.828125 30.375 45.015625 34.8125 
Q 40.625 39.796875 33.453125 39.796875 
z
" id="IPAexGothic-54"/>
    <path d="M 45.609375 56.890625 
Q 40.046875 66.546875 28.953125 66.546875 
Q 22.703125 66.546875 18.953125 62.640625 
Q 16.0625 59.421875 16.0625 55.21875 
Q 16.0625 50.59375 19.78125 47.609375 
Q 22.5625 45.515625 31 42 
L 34.375 40.578125 
Q 45.703125 36.03125 49.859375 30.515625 
Q 53.46875 25.6875 53.46875 19.671875 
Q 53.46875 10.0625 46.390625 4.5 
Q 39.984375 -0.484375 30.171875 -0.484375 
Q 13.765625 -0.484375 4.890625 11.96875 
L 11.765625 17.1875 
Q 18.796875 7.171875 30.28125 7.171875 
Q 35.75 7.171875 39.59375 9.765625 
Q 44.390625 13.234375 44.390625 19 
Q 44.390625 23.484375 40.875 27 
Q 37.109375 30.609375 27 34.46875 
L 24.078125 35.59375 
Q 7.078125 42.09375 7.078125 54.390625 
Q 7.078125 62.59375 12.59375 67.921875 
Q 18.796875 73.828125 29.109375 73.828125 
Q 44.390625 73.828125 52.484375 61.8125 
z
" id="IPAexGothic-83"/>
   </defs>
   <g transform="translate(220.279375 14.690625)scale(0.1 -0.1)">
    <use xlink:href="#IPAexGothic-103"/>
    <use x="55.517578" xlink:href="#IPAexGothic-101"/>
    <use x="112.402344" xlink:href="#IPAexGothic-110"/>
    <use x="172.802734" xlink:href="#IPAexGothic-101"/>
    <use x="229.6875" xlink:href="#IPAexGothic-114"/>
    <use x="266.699219" xlink:href="#IPAexGothic-97"/>
    <use x="321.679688" xlink:href="#IPAexGothic-116"/>
    <use x="356.298828" xlink:href="#IPAexGothic-101"/>
    <use x="413.183594" xlink:href="#IPAexGothic-100"/>
    <use x="475.585938" xlink:href="#IPAexGothic-58"/>
    <use x="507.568359" xlink:href="#IPAexGothic-32"/>
    <use x="534.570312" xlink:href="#IPAexGothic-50"/>
    <use x="597.558594" xlink:href="#IPAexGothic-48"/>
    <use x="660.546875" xlink:href="#IPAexGothic-50"/>
    <use x="723.535156" xlink:href="#IPAexGothic-48"/>
    <use x="786.523438" xlink:href="#IPAexGothic-45"/>
    <use x="822.314453" xlink:href="#IPAexGothic-48"/>
    <use x="885.302734" xlink:href="#IPAexGothic-54"/>
    <use x="948.291016" xlink:href="#IPAexGothic-45"/>
    <use x="984.082031" xlink:href="#IPAexGothic-48"/>
    <use x="1047.070312" xlink:href="#IPAexGothic-54"/>
    <use x="1110.058594" xlink:href="#IPAexGothic-32"/>
    <use x="1137.060547" xlink:href="#IPAexGothic-49"/>
    <use x="1200.048828" xlink:href="#IPAexGothic-53"/>
    <use x="1263.037109" xlink:href="#IPAexGothic-58"/>
    <use x="1295.019531" xlink:href="#IPAexGothic-52"/>
    <use x="1358.007812" xlink:href="#IPAexGothic-49"/>
    <use x="1420.996094" xlink:href="#IPAexGothic-58"/>
    <use x="1452.978516" xlink:href="#IPAexGothic-53"/>
    <use x="1515.966797" xlink:href="#IPAexGothic-54"/>
    <use x="1578.955078" xlink:href="#IPAexGothic-32"/>
    <use x="1605.957031" xlink:href="#IPAexGothic-74"/>
    <use x="1643.945312" xlink:href="#IPAexGothic-83"/>
    <use x="1702.441406" xlink:href="#IPAexGothic-84"/>
   </g>
  </g>
 </g>
 <defs>
  <clipPath id="p68522536ed">
   <rect height="266.112" width="357.12" x="39.39375" y="18.146625"/>
  </clipPath>
 </defs>
</svg>
