<?xml version="1.0" encoding="utf-8" standalone="no"?>
<!DOCTYPE svg PUBLIC "-//W3C//DTD SVG 1.1//EN"
  "http://www.w3.org/Graphics/SVG/1.1/DTD/svg11.dtd">
<!-- Created with matplotlib (https://matplotlib.org/) -->
<svg height="309.29325pt" version="1.1" viewBox="0 0 410.012188 309.29325" width="410.012188pt" xmlns="http://www.w3.org/2000/svg" xmlns:xlink="http://www.w3.org/1999/xlink">
 <defs>
  <style type="text/css">
*{stroke-linecap:butt;stroke-linejoin:round;}
  </style>
 </defs>
 <g id="figure_1">
  <g id="patch_1">
   <path d="M 0 309.29325 
L 410.012188 309.29325 
L 410.012188 0 
L 0 0 
z
" style="fill:#ffffff;"/>
  </g>
  <g id="axes_1">
   <g id="patch_2">
    <path d="M 45.692188 273.312 
L 402.812188 273.312 
L 402.812188 7.2 
L 45.692188 7.2 
z
" style="fill:#ffffff;"/>
   </g>
   <g id="patch_3">
    <path clip-path="url(#p774a654c12)" d="M 61.924915 273.312 
L 64.664616 273.312 
L 64.664616 273.291541 
L 61.924915 273.291541 
z
" style="fill:#ffbb78;"/>
   </g>
   <g id="patch_4">
    <path clip-path="url(#p774a654c12)" d="M 65.349541 273.312 
L 68.089242 273.312 
L 68.089242 273.291541 
L 65.349541 273.291541 
z
" style="fill:#ffbb78;"/>
   </g>
   <g id="patch_5">
    <path clip-path="url(#p774a654c12)" d="M 68.774167 273.312 
L 71.513868 273.312 
L 71.513868 273.291541 
L 68.774167 273.291541 
z
" style="fill:#ffbb78;"/>
   </g>
   <g id="patch_6">
    <path clip-path="url(#p774a654c12)" d="M 72.198793 273.312 
L 74.938494 273.312 
L 74.938494 273.291541 
L 72.198793 273.291541 
z
" style="fill:#ffbb78;"/>
   </g>
   <g id="patch_7">
    <path clip-path="url(#p774a654c12)" d="M 75.623419 273.312 
L 78.36312 273.312 
L 78.36312 273.250624 
L 75.623419 273.250624 
z
" style="fill:#ffbb78;"/>
   </g>
   <g id="patch_8">
    <path clip-path="url(#p774a654c12)" d="M 79.048045 273.312 
L 81.787746 273.312 
L 81.787746 273.250624 
L 79.048045 273.250624 
z
" style="fill:#ffbb78;"/>
   </g>
   <g id="patch_9">
    <path clip-path="url(#p774a654c12)" d="M 82.472671 273.312 
L 85.212372 273.312 
L 85.212372 273.230166 
L 82.472671 273.230166 
z
" style="fill:#ffbb78;"/>
   </g>
   <g id="patch_10">
    <path clip-path="url(#p774a654c12)" d="M 85.897297 273.312 
L 88.636998 273.312 
L 88.636998 273.189249 
L 85.897297 273.189249 
z
" style="fill:#ffbb78;"/>
   </g>
   <g id="patch_11">
    <path clip-path="url(#p774a654c12)" d="M 89.321923 273.312 
L 92.061624 273.312 
L 92.061624 273.16879 
L 89.321923 273.16879 
z
" style="fill:#ffbb78;"/>
   </g>
   <g id="patch_12">
    <path clip-path="url(#p774a654c12)" d="M 92.746549 273.312 
L 95.48625 273.312 
L 95.48625 273.086956 
L 92.746549 273.086956 
z
" style="fill:#ffbb78;"/>
   </g>
   <g id="patch_13">
    <path clip-path="url(#p774a654c12)" d="M 96.171175 273.312 
L 98.910876 273.312 
L 98.910876 273.025581 
L 96.171175 273.025581 
z
" style="fill:#ffbb78;"/>
   </g>
   <g id="patch_14">
    <path clip-path="url(#p774a654c12)" d="M 99.595801 273.312 
L 102.335502 273.312 
L 102.335502 272.964205 
L 99.595801 272.964205 
z
" style="fill:#ffbb78;"/>
   </g>
   <g id="patch_15">
    <path clip-path="url(#p774a654c12)" d="M 103.020427 273.312 
L 105.760128 273.312 
L 105.760128 272.90283 
L 103.020427 272.90283 
z
" style="fill:#ffbb78;"/>
   </g>
   <g id="patch_16">
    <path clip-path="url(#p774a654c12)" d="M 106.445053 273.312 
L 109.184754 273.312 
L 109.184754 272.90283 
L 106.445053 272.90283 
z
" style="fill:#ffbb78;"/>
   </g>
   <g id="patch_17">
    <path clip-path="url(#p774a654c12)" d="M 109.869679 273.312 
L 112.60938 273.312 
L 112.60938 272.90283 
L 109.869679 272.90283 
z
" style="fill:#ffbb78;"/>
   </g>
   <g id="patch_18">
    <path clip-path="url(#p774a654c12)" d="M 113.294305 273.312 
L 116.034006 273.312 
L 116.034006 272.841454 
L 113.294305 272.841454 
z
" style="fill:#ffbb78;"/>
   </g>
   <g id="patch_19">
    <path clip-path="url(#p774a654c12)" d="M 116.718931 273.312 
L 119.458632 273.312 
L 119.458632 272.800537 
L 116.718931 272.800537 
z
" style="fill:#ffbb78;"/>
   </g>
   <g id="patch_20">
    <path clip-path="url(#p774a654c12)" d="M 120.143557 273.312 
L 122.883258 273.312 
L 122.883258 272.800537 
L 120.143557 272.800537 
z
" style="fill:#ffbb78;"/>
   </g>
   <g id="patch_21">
    <path clip-path="url(#p774a654c12)" d="M 123.568183 273.312 
L 126.307884 273.312 
L 126.307884 272.800537 
L 123.568183 272.800537 
z
" style="fill:#ffbb78;"/>
   </g>
   <g id="patch_22">
    <path clip-path="url(#p774a654c12)" d="M 126.992809 273.312 
L 129.73251 273.312 
L 129.73251 272.780079 
L 126.992809 272.780079 
z
" style="fill:#ffbb78;"/>
   </g>
   <g id="patch_23">
    <path clip-path="url(#p774a654c12)" d="M 130.417435 273.312 
L 133.157136 273.312 
L 133.157136 272.780079 
L 130.417435 272.780079 
z
" style="fill:#ffbb78;"/>
   </g>
   <g id="patch_24">
    <path clip-path="url(#p774a654c12)" d="M 133.842061 273.312 
L 136.581762 273.312 
L 136.581762 272.780079 
L 133.842061 272.780079 
z
" style="fill:#ffbb78;"/>
   </g>
   <g id="patch_25">
    <path clip-path="url(#p774a654c12)" d="M 137.266687 273.312 
L 140.006388 273.312 
L 140.006388 272.739162 
L 137.266687 272.739162 
z
" style="fill:#ffbb78;"/>
   </g>
   <g id="patch_26">
    <path clip-path="url(#p774a654c12)" d="M 140.691313 273.312 
L 143.431014 273.312 
L 143.431014 272.718703 
L 140.691313 272.718703 
z
" style="fill:#ffbb78;"/>
   </g>
   <g id="patch_27">
    <path clip-path="url(#p774a654c12)" d="M 144.115939 273.312 
L 146.85564 273.312 
L 146.85564 272.636869 
L 144.115939 272.636869 
z
" style="fill:#ffbb78;"/>
   </g>
   <g id="patch_28">
    <path clip-path="url(#p774a654c12)" d="M 147.540565 273.312 
L 150.280266 273.312 
L 150.280266 272.473201 
L 147.540565 272.473201 
z
" style="fill:#ffbb78;"/>
   </g>
   <g id="patch_29">
    <path clip-path="url(#p774a654c12)" d="M 150.965191 273.312 
L 153.704892 273.312 
L 153.704892 272.227699 
L 150.965191 272.227699 
z
" style="fill:#ffbb78;"/>
   </g>
   <g id="patch_30">
    <path clip-path="url(#p774a654c12)" d="M 154.389817 273.312 
L 157.129518 273.312 
L 157.129518 272.104948 
L 154.389817 272.104948 
z
" style="fill:#ffbb78;"/>
   </g>
   <g id="patch_31">
    <path clip-path="url(#p774a654c12)" d="M 157.814443 273.312 
L 160.554144 273.312 
L 160.554144 271.982197 
L 157.814443 271.982197 
z
" style="fill:#ffbb78;"/>
   </g>
   <g id="patch_32">
    <path clip-path="url(#p774a654c12)" d="M 161.239069 273.312 
L 163.97877 273.312 
L 163.97877 271.818529 
L 161.239069 271.818529 
z
" style="fill:#ffbb78;"/>
   </g>
   <g id="patch_33">
    <path clip-path="url(#p774a654c12)" d="M 164.663695 273.312 
L 167.403396 273.312 
L 167.403396 271.573027 
L 164.663695 271.573027 
z
" style="fill:#ffbb78;"/>
   </g>
   <g id="patch_34">
    <path clip-path="url(#p774a654c12)" d="M 168.088321 273.312 
L 170.828022 273.312 
L 170.828022 271.409359 
L 168.088321 271.409359 
z
" style="fill:#ffbb78;"/>
   </g>
   <g id="patch_35">
    <path clip-path="url(#p774a654c12)" d="M 171.512947 273.312 
L 174.252648 273.312 
L 174.252648 271.163857 
L 171.512947 271.163857 
z
" style="fill:#ffbb78;"/>
   </g>
   <g id="patch_36">
    <path clip-path="url(#p774a654c12)" d="M 174.937573 273.312 
L 177.677274 273.312 
L 177.677274 270.611477 
L 174.937573 270.611477 
z
" style="fill:#ffbb78;"/>
   </g>
   <g id="patch_37">
    <path clip-path="url(#p774a654c12)" d="M 178.362199 273.312 
L 181.1019 273.312 
L 181.1019 270.365975 
L 178.362199 270.365975 
z
" style="fill:#ffbb78;"/>
   </g>
   <g id="patch_38">
    <path clip-path="url(#p774a654c12)" d="M 181.786825 273.312 
L 184.526526 273.312 
L 184.526526 270.100014 
L 181.786825 270.100014 
z
" style="fill:#ffbb78;"/>
   </g>
   <g id="patch_39">
    <path clip-path="url(#p774a654c12)" d="M 185.211451 273.312 
L 187.951152 273.312 
L 187.951152 269.956805 
L 185.211451 269.956805 
z
" style="fill:#ffbb78;"/>
   </g>
   <g id="patch_40">
    <path clip-path="url(#p774a654c12)" d="M 188.636077 273.312 
L 191.375778 273.312 
L 191.375778 269.506717 
L 188.636077 269.506717 
z
" style="fill:#ffbb78;"/>
   </g>
   <g id="patch_41">
    <path clip-path="url(#p774a654c12)" d="M 192.060703 273.312 
L 194.800404 273.312 
L 194.800404 269.015713 
L 192.060703 269.015713 
z
" style="fill:#ffbb78;"/>
   </g>
   <g id="patch_42">
    <path clip-path="url(#p774a654c12)" d="M 195.485329 273.312 
L 198.22503 273.312 
L 198.22503 268.606543 
L 195.485329 268.606543 
z
" style="fill:#ffbb78;"/>
   </g>
   <g id="patch_43">
    <path clip-path="url(#p774a654c12)" d="M 198.909955 273.312 
L 201.649656 273.312 
L 201.649656 268.422417 
L 198.909955 268.422417 
z
" style="fill:#ffbb78;"/>
   </g>
   <g id="patch_44">
    <path clip-path="url(#p774a654c12)" d="M 202.334581 273.312 
L 205.074282 273.312 
L 205.074282 268.115539 
L 202.334581 268.115539 
z
" style="fill:#ffbb78;"/>
   </g>
   <g id="patch_45">
    <path clip-path="url(#p774a654c12)" d="M 205.759207 273.312 
L 208.498908 273.312 
L 208.498908 267.82912 
L 205.759207 267.82912 
z
" style="fill:#ffbb78;"/>
   </g>
   <g id="patch_46">
    <path clip-path="url(#p774a654c12)" d="M 209.183833 273.312 
L 211.923534 273.312 
L 211.923534 267.501784 
L 209.183833 267.501784 
z
" style="fill:#ffbb78;"/>
   </g>
   <g id="patch_47">
    <path clip-path="url(#p774a654c12)" d="M 212.608459 273.312 
L 215.34816 273.312 
L 215.34816 266.826653 
L 212.608459 266.826653 
z
" style="fill:#ffbb78;"/>
   </g>
   <g id="patch_48">
    <path clip-path="url(#p774a654c12)" d="M 216.033085 273.312 
L 218.772786 273.312 
L 218.772786 266.171981 
L 216.033085 266.171981 
z
" style="fill:#ffbb78;"/>
   </g>
   <g id="patch_49">
    <path clip-path="url(#p774a654c12)" d="M 219.457711 273.312 
L 222.197412 273.312 
L 222.197412 264.964929 
L 219.457711 264.964929 
z
" style="fill:#ffbb78;"/>
   </g>
   <g id="patch_50">
    <path clip-path="url(#p774a654c12)" d="M 222.882337 273.312 
L 225.622038 273.312 
L 225.622038 264.003379 
L 222.882337 264.003379 
z
" style="fill:#ffbb78;"/>
   </g>
   <g id="patch_51">
    <path clip-path="url(#p774a654c12)" d="M 226.306963 273.312 
L 229.046664 273.312 
L 229.046664 263.328248 
L 226.306963 263.328248 
z
" style="fill:#ffbb78;"/>
   </g>
   <g id="patch_52">
    <path clip-path="url(#p774a654c12)" d="M 229.731589 273.312 
L 232.47129 273.312 
L 232.47129 262.796327 
L 229.731589 262.796327 
z
" style="fill:#ffbb78;"/>
   </g>
   <g id="patch_53">
    <path clip-path="url(#p774a654c12)" d="M 233.156215 273.312 
L 235.895916 273.312 
L 235.895916 261.691567 
L 233.156215 261.691567 
z
" style="fill:#ffbb78;"/>
   </g>
   <g id="patch_54">
    <path clip-path="url(#p774a654c12)" d="M 236.580841 273.312 
L 239.320542 273.312 
L 239.320542 260.627725 
L 236.580841 260.627725 
z
" style="fill:#ffbb78;"/>
   </g>
   <g id="patch_55">
    <path clip-path="url(#p774a654c12)" d="M 240.005467 273.312 
L 242.745168 273.312 
L 242.745168 259.502507 
L 240.005467 259.502507 
z
" style="fill:#ffbb78;"/>
   </g>
   <g id="patch_56">
    <path clip-path="url(#p774a654c12)" d="M 243.430093 273.312 
L 246.169794 273.312 
L 246.169794 258.663708 
L 243.430093 258.663708 
z
" style="fill:#ffbb78;"/>
   </g>
   <g id="patch_57">
    <path clip-path="url(#p774a654c12)" d="M 246.854719 273.312 
L 249.59442 273.312 
L 249.59442 257.354364 
L 246.854719 257.354364 
z
" style="fill:#ffbb78;"/>
   </g>
   <g id="patch_58">
    <path clip-path="url(#p774a654c12)" d="M 250.279345 273.312 
L 253.019046 273.312 
L 253.019046 256.658774 
L 250.279345 256.658774 
z
" style="fill:#ffbb78;"/>
   </g>
   <g id="patch_59">
    <path clip-path="url(#p774a654c12)" d="M 253.703971 273.312 
L 256.443672 273.312 
L 256.443672 256.351897 
L 253.703971 256.351897 
z
" style="fill:#ffbb78;"/>
   </g>
   <g id="patch_60">
    <path clip-path="url(#p774a654c12)" d="M 257.128597 273.312 
L 259.868298 273.312 
L 259.868298 256.351897 
L 257.128597 256.351897 
z
" style="fill:#ffbb78;"/>
   </g>
   <g id="patch_61">
    <path clip-path="url(#p774a654c12)" d="M 260.553223 273.312 
L 263.292924 273.312 
L 263.292924 255.451722 
L 260.553223 255.451722 
z
" style="fill:#ffbb78;"/>
   </g>
   <g id="patch_62">
    <path clip-path="url(#p774a654c12)" d="M 263.977849 273.312 
L 266.71755 273.312 
L 266.71755 253.876417 
L 263.977849 253.876417 
z
" style="fill:#ffbb78;"/>
   </g>
   <g id="patch_63">
    <path clip-path="url(#p774a654c12)" d="M 267.402475 273.312 
L 270.142176 273.312 
L 270.142176 252.935326 
L 267.402475 252.935326 
z
" style="fill:#ffbb78;"/>
   </g>
   <g id="patch_64">
    <path clip-path="url(#p774a654c12)" d="M 270.827101 273.312 
L 273.566802 273.312 
L 273.566802 251.9124 
L 270.827101 251.9124 
z
" style="fill:#ffbb78;"/>
   </g>
   <g id="patch_65">
    <path clip-path="url(#p774a654c12)" d="M 274.251727 273.312 
L 276.991428 273.312 
L 276.991428 251.032685 
L 274.251727 251.032685 
z
" style="fill:#ffbb78;"/>
   </g>
   <g id="patch_66">
    <path clip-path="url(#p774a654c12)" d="M 277.676353 273.312 
L 280.416054 273.312 
L 280.416054 250.234803 
L 277.676353 250.234803 
z
" style="fill:#ffbb78;"/>
   </g>
   <g id="patch_67">
    <path clip-path="url(#p774a654c12)" d="M 281.100979 273.312 
L 283.84068 273.312 
L 283.84068 248.905 
L 281.100979 248.905 
z
" style="fill:#ffbb78;"/>
   </g>
   <g id="patch_68">
    <path clip-path="url(#p774a654c12)" d="M 284.525605 273.312 
L 287.265306 273.312 
L 287.265306 246.900066 
L 284.525605 246.900066 
z
" style="fill:#ffbb78;"/>
   </g>
   <g id="patch_69">
    <path clip-path="url(#p774a654c12)" d="M 287.950231 273.312 
L 290.689932 273.312 
L 290.689932 244.936049 
L 287.950231 244.936049 
z
" style="fill:#ffbb78;"/>
   </g>
   <g id="patch_70">
    <path clip-path="url(#p774a654c12)" d="M 291.374857 273.312 
L 294.114558 273.312 
L 294.114558 242.644696 
L 291.374857 242.644696 
z
" style="fill:#ffbb78;"/>
   </g>
   <g id="patch_71">
    <path clip-path="url(#p774a654c12)" d="M 294.799483 273.312 
L 297.539184 273.312 
L 297.539184 238.675746 
L 294.799483 238.675746 
z
" style="fill:#ffbb78;"/>
   </g>
   <g id="patch_72">
    <path clip-path="url(#p774a654c12)" d="M 298.224109 273.312 
L 300.96381 273.312 
L 300.96381 235.136424 
L 298.224109 235.136424 
z
" style="fill:#ffbb78;"/>
   </g>
   <g id="patch_73">
    <path clip-path="url(#p774a654c12)" d="M 301.648735 273.312 
L 304.388436 273.312 
L 304.388436 233.356533 
L 301.648735 233.356533 
z
" style="fill:#ffbb78;"/>
   </g>
   <g id="patch_74">
    <path clip-path="url(#p774a654c12)" d="M 305.073361 273.312 
L 307.813062 273.312 
L 307.813062 228.753369 
L 305.073361 228.753369 
z
" style="fill:#ffbb78;"/>
   </g>
   <g id="patch_75">
    <path clip-path="url(#p774a654c12)" d="M 308.497987 273.312 
L 311.237688 273.312 
L 311.237688 224.538916 
L 308.497987 224.538916 
z
" style="fill:#ffbb78;"/>
   </g>
   <g id="patch_76">
    <path clip-path="url(#p774a654c12)" d="M 311.922613 273.312 
L 314.662314 273.312 
L 314.662314 219.772084 
L 311.922613 219.772084 
z
" style="fill:#ffbb78;"/>
   </g>
   <g id="patch_77">
    <path clip-path="url(#p774a654c12)" d="M 315.347239 273.312 
L 318.08694 273.312 
L 318.08694 213.573156 
L 315.347239 213.573156 
z
" style="fill:#ffbb78;"/>
   </g>
   <g id="patch_78">
    <path clip-path="url(#p774a654c12)" d="M 318.771865 273.312 
L 321.511566 273.312 
L 321.511566 206.39222 
L 318.771865 206.39222 
z
" style="fill:#ffbb78;"/>
   </g>
   <g id="patch_79">
    <path clip-path="url(#p774a654c12)" d="M 322.196491 273.312 
L 324.936192 273.312 
L 324.936192 198.556611 
L 322.196491 198.556611 
z
" style="fill:#ffbb78;"/>
   </g>
   <g id="patch_80">
    <path clip-path="url(#p774a654c12)" d="M 325.621117 273.312 
L 328.360818 273.312 
L 328.360818 193.401067 
L 325.621117 193.401067 
z
" style="fill:#ffbb78;"/>
   </g>
   <g id="patch_81">
    <path clip-path="url(#p774a654c12)" d="M 329.045743 273.312 
L 331.785444 273.312 
L 331.785444 186.22013 
L 329.045743 186.22013 
z
" style="fill:#ffbb78;"/>
   </g>
   <g id="patch_82">
    <path clip-path="url(#p774a654c12)" d="M 332.470369 273.312 
L 335.21007 273.312 
L 335.21007 175.765833 
L 332.470369 175.765833 
z
" style="fill:#ffbb78;"/>
   </g>
   <g id="patch_83">
    <path clip-path="url(#p774a654c12)" d="M 335.894995 273.312 
L 338.634696 273.312 
L 338.634696 163.920356 
L 335.894995 163.920356 
z
" style="fill:#ffbb78;"/>
   </g>
   <g id="patch_84">
    <path clip-path="url(#p774a654c12)" d="M 339.319621 273.312 
L 342.059322 273.312 
L 342.059322 150.458658 
L 339.319621 150.458658 
z
" style="fill:#ffbb78;"/>
   </g>
   <g id="patch_85">
    <path clip-path="url(#p774a654c12)" d="M 342.744247 273.312 
L 345.483948 273.312 
L 345.483948 135.257986 
L 342.744247 135.257986 
z
" style="fill:#ffbb78;"/>
   </g>
   <g id="patch_86">
    <path clip-path="url(#p774a654c12)" d="M 346.168873 273.312 
L 348.908574 273.312 
L 348.908574 124.885523 
L 346.168873 124.885523 
z
" style="fill:#ffbb78;"/>
   </g>
   <g id="patch_87">
    <path clip-path="url(#p774a654c12)" d="M 349.593499 273.312 
L 352.3332 273.312 
L 352.3332 116.906705 
L 349.593499 116.906705 
z
" style="fill:#ffbb78;"/>
   </g>
   <g id="patch_88">
    <path clip-path="url(#p774a654c12)" d="M 353.018125 273.312 
L 355.757826 273.312 
L 355.757826 107.598083 
L 353.018125 107.598083 
z
" style="fill:#ffbb78;"/>
   </g>
   <g id="patch_89">
    <path clip-path="url(#p774a654c12)" d="M 356.442751 273.312 
L 359.182452 273.312 
L 359.182452 97.737082 
L 356.442751 97.737082 
z
" style="fill:#ffbb78;"/>
   </g>
   <g id="patch_90">
    <path clip-path="url(#p774a654c12)" d="M 359.867377 273.312 
L 362.607078 273.312 
L 362.607078 85.768855 
L 359.867377 85.768855 
z
" style="fill:#ffbb78;"/>
   </g>
   <g id="patch_91">
    <path clip-path="url(#p774a654c12)" d="M 363.292003 273.312 
L 366.031704 273.312 
L 366.031704 72.920912 
L 363.292003 72.920912 
z
" style="fill:#ffbb78;"/>
   </g>
   <g id="patch_92">
    <path clip-path="url(#p774a654c12)" d="M 366.716629 273.312 
L 369.45633 273.312 
L 369.45633 61.341396 
L 366.716629 61.341396 
z
" style="fill:#ffbb78;"/>
   </g>
   <g id="patch_93">
    <path clip-path="url(#p774a654c12)" d="M 370.141255 273.312 
L 372.880956 273.312 
L 372.880956 53.362578 
L 370.141255 53.362578 
z
" style="fill:#ffbb78;"/>
   </g>
   <g id="patch_94">
    <path clip-path="url(#p774a654c12)" d="M 373.565881 273.312 
L 376.305582 273.312 
L 376.305582 45.854305 
L 373.565881 45.854305 
z
" style="fill:#ffbb78;"/>
   </g>
   <g id="patch_95">
    <path clip-path="url(#p774a654c12)" d="M 376.990507 273.312 
L 379.730208 273.312 
L 379.730208 38.120989 
L 376.990507 38.120989 
z
" style="fill:#ffbb78;"/>
   </g>
   <g id="patch_96">
    <path clip-path="url(#p774a654c12)" d="M 380.415133 273.312 
L 383.154834 273.312 
L 383.154834 29.46704 
L 380.415133 29.46704 
z
" style="fill:#ffbb78;"/>
   </g>
   <g id="patch_97">
    <path clip-path="url(#p774a654c12)" d="M 383.839759 273.312 
L 386.57946 273.312 
L 386.57946 19.872 
L 383.839759 19.872 
z
" style="fill:#ffbb78;"/>
   </g>
   <g id="patch_98">
    <path clip-path="url(#p774a654c12)" d="M 61.924915 273.312 
L 64.664616 273.312 
L 64.664616 273.312 
L 61.924915 273.312 
z
" style="fill:#d62728;"/>
   </g>
   <g id="patch_99">
    <path clip-path="url(#p774a654c12)" d="M 65.349541 273.312 
L 68.089242 273.312 
L 68.089242 273.312 
L 65.349541 273.312 
z
" style="fill:#d62728;"/>
   </g>
   <g id="patch_100">
    <path clip-path="url(#p774a654c12)" d="M 68.774167 273.312 
L 71.513868 273.312 
L 71.513868 273.312 
L 68.774167 273.312 
z
" style="fill:#d62728;"/>
   </g>
   <g id="patch_101">
    <path clip-path="url(#p774a654c12)" d="M 72.198793 273.312 
L 74.938494 273.312 
L 74.938494 273.312 
L 72.198793 273.312 
z
" style="fill:#d62728;"/>
   </g>
   <g id="patch_102">
    <path clip-path="url(#p774a654c12)" d="M 75.623419 273.312 
L 78.36312 273.312 
L 78.36312 273.312 
L 75.623419 273.312 
z
" style="fill:#d62728;"/>
   </g>
   <g id="patch_103">
    <path clip-path="url(#p774a654c12)" d="M 79.048045 273.312 
L 81.787746 273.312 
L 81.787746 273.312 
L 79.048045 273.312 
z
" style="fill:#d62728;"/>
   </g>
   <g id="patch_104">
    <path clip-path="url(#p774a654c12)" d="M 82.472671 273.312 
L 85.212372 273.312 
L 85.212372 273.312 
L 82.472671 273.312 
z
" style="fill:#d62728;"/>
   </g>
   <g id="patch_105">
    <path clip-path="url(#p774a654c12)" d="M 85.897297 273.312 
L 88.636998 273.312 
L 88.636998 273.312 
L 85.897297 273.312 
z
" style="fill:#d62728;"/>
   </g>
   <g id="patch_106">
    <path clip-path="url(#p774a654c12)" d="M 89.321923 273.312 
L 92.061624 273.312 
L 92.061624 273.312 
L 89.321923 273.312 
z
" style="fill:#d62728;"/>
   </g>
   <g id="patch_107">
    <path clip-path="url(#p774a654c12)" d="M 92.746549 273.312 
L 95.48625 273.312 
L 95.48625 273.312 
L 92.746549 273.312 
z
" style="fill:#d62728;"/>
   </g>
   <g id="patch_108">
    <path clip-path="url(#p774a654c12)" d="M 96.171175 273.312 
L 98.910876 273.312 
L 98.910876 273.312 
L 96.171175 273.312 
z
" style="fill:#d62728;"/>
   </g>
   <g id="patch_109">
    <path clip-path="url(#p774a654c12)" d="M 99.595801 273.312 
L 102.335502 273.312 
L 102.335502 273.312 
L 99.595801 273.312 
z
" style="fill:#d62728;"/>
   </g>
   <g id="patch_110">
    <path clip-path="url(#p774a654c12)" d="M 103.020427 273.312 
L 105.760128 273.312 
L 105.760128 273.312 
L 103.020427 273.312 
z
" style="fill:#d62728;"/>
   </g>
   <g id="patch_111">
    <path clip-path="url(#p774a654c12)" d="M 106.445053 273.312 
L 109.184754 273.312 
L 109.184754 273.312 
L 106.445053 273.312 
z
" style="fill:#d62728;"/>
   </g>
   <g id="patch_112">
    <path clip-path="url(#p774a654c12)" d="M 109.869679 273.312 
L 112.60938 273.312 
L 112.60938 273.312 
L 109.869679 273.312 
z
" style="fill:#d62728;"/>
   </g>
   <g id="patch_113">
    <path clip-path="url(#p774a654c12)" d="M 113.294305 273.312 
L 116.034006 273.312 
L 116.034006 273.312 
L 113.294305 273.312 
z
" style="fill:#d62728;"/>
   </g>
   <g id="patch_114">
    <path clip-path="url(#p774a654c12)" d="M 116.718931 273.312 
L 119.458632 273.312 
L 119.458632 273.312 
L 116.718931 273.312 
z
" style="fill:#d62728;"/>
   </g>
   <g id="patch_115">
    <path clip-path="url(#p774a654c12)" d="M 120.143557 273.312 
L 122.883258 273.312 
L 122.883258 273.312 
L 120.143557 273.312 
z
" style="fill:#d62728;"/>
   </g>
   <g id="patch_116">
    <path clip-path="url(#p774a654c12)" d="M 123.568183 273.312 
L 126.307884 273.312 
L 126.307884 273.312 
L 123.568183 273.312 
z
" style="fill:#d62728;"/>
   </g>
   <g id="patch_117">
    <path clip-path="url(#p774a654c12)" d="M 126.992809 273.312 
L 129.73251 273.312 
L 129.73251 273.312 
L 126.992809 273.312 
z
" style="fill:#d62728;"/>
   </g>
   <g id="patch_118">
    <path clip-path="url(#p774a654c12)" d="M 130.417435 273.312 
L 133.157136 273.312 
L 133.157136 273.312 
L 130.417435 273.312 
z
" style="fill:#d62728;"/>
   </g>
   <g id="patch_119">
    <path clip-path="url(#p774a654c12)" d="M 133.842061 273.312 
L 136.581762 273.312 
L 136.581762 273.312 
L 133.842061 273.312 
z
" style="fill:#d62728;"/>
   </g>
   <g id="patch_120">
    <path clip-path="url(#p774a654c12)" d="M 137.266687 273.312 
L 140.006388 273.312 
L 140.006388 273.312 
L 137.266687 273.312 
z
" style="fill:#d62728;"/>
   </g>
   <g id="patch_121">
    <path clip-path="url(#p774a654c12)" d="M 140.691313 273.312 
L 143.431014 273.312 
L 143.431014 273.312 
L 140.691313 273.312 
z
" style="fill:#d62728;"/>
   </g>
   <g id="patch_122">
    <path clip-path="url(#p774a654c12)" d="M 144.115939 273.312 
L 146.85564 273.312 
L 146.85564 273.291541 
L 144.115939 273.291541 
z
" style="fill:#d62728;"/>
   </g>
   <g id="patch_123">
    <path clip-path="url(#p774a654c12)" d="M 147.540565 273.312 
L 150.280266 273.312 
L 150.280266 273.291541 
L 147.540565 273.291541 
z
" style="fill:#d62728;"/>
   </g>
   <g id="patch_124">
    <path clip-path="url(#p774a654c12)" d="M 150.965191 273.312 
L 153.704892 273.312 
L 153.704892 273.291541 
L 150.965191 273.291541 
z
" style="fill:#d62728;"/>
   </g>
   <g id="patch_125">
    <path clip-path="url(#p774a654c12)" d="M 154.389817 273.312 
L 157.129518 273.312 
L 157.129518 273.291541 
L 154.389817 273.291541 
z
" style="fill:#d62728;"/>
   </g>
   <g id="patch_126">
    <path clip-path="url(#p774a654c12)" d="M 157.814443 273.312 
L 160.554144 273.312 
L 160.554144 273.291541 
L 157.814443 273.291541 
z
" style="fill:#d62728;"/>
   </g>
   <g id="patch_127">
    <path clip-path="url(#p774a654c12)" d="M 161.239069 273.312 
L 163.97877 273.312 
L 163.97877 273.291541 
L 161.239069 273.291541 
z
" style="fill:#d62728;"/>
   </g>
   <g id="patch_128">
    <path clip-path="url(#p774a654c12)" d="M 164.663695 273.312 
L 167.403396 273.312 
L 167.403396 273.291541 
L 164.663695 273.291541 
z
" style="fill:#d62728;"/>
   </g>
   <g id="patch_129">
    <path clip-path="url(#p774a654c12)" d="M 168.088321 273.312 
L 170.828022 273.312 
L 170.828022 273.291541 
L 168.088321 273.291541 
z
" style="fill:#d62728;"/>
   </g>
   <g id="patch_130">
    <path clip-path="url(#p774a654c12)" d="M 171.512947 273.312 
L 174.252648 273.312 
L 174.252648 273.291541 
L 171.512947 273.291541 
z
" style="fill:#d62728;"/>
   </g>
   <g id="patch_131">
    <path clip-path="url(#p774a654c12)" d="M 174.937573 273.312 
L 177.677274 273.312 
L 177.677274 273.291541 
L 174.937573 273.291541 
z
" style="fill:#d62728;"/>
   </g>
   <g id="patch_132">
    <path clip-path="url(#p774a654c12)" d="M 178.362199 273.312 
L 181.1019 273.312 
L 181.1019 273.291541 
L 178.362199 273.291541 
z
" style="fill:#d62728;"/>
   </g>
   <g id="patch_133">
    <path clip-path="url(#p774a654c12)" d="M 181.786825 273.312 
L 184.526526 273.312 
L 184.526526 273.291541 
L 181.786825 273.291541 
z
" style="fill:#d62728;"/>
   </g>
   <g id="patch_134">
    <path clip-path="url(#p774a654c12)" d="M 185.211451 273.312 
L 187.951152 273.312 
L 187.951152 273.291541 
L 185.211451 273.291541 
z
" style="fill:#d62728;"/>
   </g>
   <g id="patch_135">
    <path clip-path="url(#p774a654c12)" d="M 188.636077 273.312 
L 191.375778 273.312 
L 191.375778 273.250624 
L 188.636077 273.250624 
z
" style="fill:#d62728;"/>
   </g>
   <g id="patch_136">
    <path clip-path="url(#p774a654c12)" d="M 192.060703 273.312 
L 194.800404 273.312 
L 194.800404 273.230166 
L 192.060703 273.230166 
z
" style="fill:#d62728;"/>
   </g>
   <g id="patch_137">
    <path clip-path="url(#p774a654c12)" d="M 195.485329 273.312 
L 198.22503 273.312 
L 198.22503 273.209707 
L 195.485329 273.209707 
z
" style="fill:#d62728;"/>
   </g>
   <g id="patch_138">
    <path clip-path="url(#p774a654c12)" d="M 198.909955 273.312 
L 201.649656 273.312 
L 201.649656 273.209707 
L 198.909955 273.209707 
z
" style="fill:#d62728;"/>
   </g>
   <g id="patch_139">
    <path clip-path="url(#p774a654c12)" d="M 202.334581 273.312 
L 205.074282 273.312 
L 205.074282 273.189249 
L 202.334581 273.189249 
z
" style="fill:#d62728;"/>
   </g>
   <g id="patch_140">
    <path clip-path="url(#p774a654c12)" d="M 205.759207 273.312 
L 208.498908 273.312 
L 208.498908 273.189249 
L 205.759207 273.189249 
z
" style="fill:#d62728;"/>
   </g>
   <g id="patch_141">
    <path clip-path="url(#p774a654c12)" d="M 209.183833 273.312 
L 211.923534 273.312 
L 211.923534 273.189249 
L 209.183833 273.189249 
z
" style="fill:#d62728;"/>
   </g>
   <g id="patch_142">
    <path clip-path="url(#p774a654c12)" d="M 212.608459 273.312 
L 215.34816 273.312 
L 215.34816 273.189249 
L 212.608459 273.189249 
z
" style="fill:#d62728;"/>
   </g>
   <g id="patch_143">
    <path clip-path="url(#p774a654c12)" d="M 216.033085 273.312 
L 218.772786 273.312 
L 218.772786 273.189249 
L 216.033085 273.189249 
z
" style="fill:#d62728;"/>
   </g>
   <g id="patch_144">
    <path clip-path="url(#p774a654c12)" d="M 219.457711 273.312 
L 222.197412 273.312 
L 222.197412 273.189249 
L 219.457711 273.189249 
z
" style="fill:#d62728;"/>
   </g>
   <g id="patch_145">
    <path clip-path="url(#p774a654c12)" d="M 222.882337 273.312 
L 225.622038 273.312 
L 225.622038 273.189249 
L 222.882337 273.189249 
z
" style="fill:#d62728;"/>
   </g>
   <g id="patch_146">
    <path clip-path="url(#p774a654c12)" d="M 226.306963 273.312 
L 229.046664 273.312 
L 229.046664 273.16879 
L 226.306963 273.16879 
z
" style="fill:#d62728;"/>
   </g>
   <g id="patch_147">
    <path clip-path="url(#p774a654c12)" d="M 229.731589 273.312 
L 232.47129 273.312 
L 232.47129 273.127873 
L 229.731589 273.127873 
z
" style="fill:#d62728;"/>
   </g>
   <g id="patch_148">
    <path clip-path="url(#p774a654c12)" d="M 233.156215 273.312 
L 235.895916 273.312 
L 235.895916 273.066498 
L 233.156215 273.066498 
z
" style="fill:#d62728;"/>
   </g>
   <g id="patch_149">
    <path clip-path="url(#p774a654c12)" d="M 236.580841 273.312 
L 239.320542 273.312 
L 239.320542 273.005122 
L 236.580841 273.005122 
z
" style="fill:#d62728;"/>
   </g>
   <g id="patch_150">
    <path clip-path="url(#p774a654c12)" d="M 240.005467 273.312 
L 242.745168 273.312 
L 242.745168 272.923288 
L 240.005467 272.923288 
z
" style="fill:#d62728;"/>
   </g>
   <g id="patch_151">
    <path clip-path="url(#p774a654c12)" d="M 243.430093 273.312 
L 246.169794 273.312 
L 246.169794 272.882371 
L 243.430093 272.882371 
z
" style="fill:#d62728;"/>
   </g>
   <g id="patch_152">
    <path clip-path="url(#p774a654c12)" d="M 246.854719 273.312 
L 249.59442 273.312 
L 249.59442 272.861913 
L 246.854719 272.861913 
z
" style="fill:#d62728;"/>
   </g>
   <g id="patch_153">
    <path clip-path="url(#p774a654c12)" d="M 250.279345 273.312 
L 253.019046 273.312 
L 253.019046 272.820996 
L 250.279345 272.820996 
z
" style="fill:#d62728;"/>
   </g>
   <g id="patch_154">
    <path clip-path="url(#p774a654c12)" d="M 253.703971 273.312 
L 256.443672 273.312 
L 256.443672 272.739162 
L 253.703971 272.739162 
z
" style="fill:#d62728;"/>
   </g>
   <g id="patch_155">
    <path clip-path="url(#p774a654c12)" d="M 257.128597 273.312 
L 259.868298 273.312 
L 259.868298 272.739162 
L 257.128597 272.739162 
z
" style="fill:#d62728;"/>
   </g>
   <g id="patch_156">
    <path clip-path="url(#p774a654c12)" d="M 260.553223 273.312 
L 263.292924 273.312 
L 263.292924 272.718703 
L 260.553223 272.718703 
z
" style="fill:#d62728;"/>
   </g>
   <g id="patch_157">
    <path clip-path="url(#p774a654c12)" d="M 263.977849 273.312 
L 266.71755 273.312 
L 266.71755 272.636869 
L 263.977849 272.636869 
z
" style="fill:#d62728;"/>
   </g>
   <g id="patch_158">
    <path clip-path="url(#p774a654c12)" d="M 267.402475 273.312 
L 270.142176 273.312 
L 270.142176 272.595952 
L 267.402475 272.595952 
z
" style="fill:#d62728;"/>
   </g>
   <g id="patch_159">
    <path clip-path="url(#p774a654c12)" d="M 270.827101 273.312 
L 273.566802 273.312 
L 273.566802 272.575494 
L 270.827101 272.575494 
z
" style="fill:#d62728;"/>
   </g>
   <g id="patch_160">
    <path clip-path="url(#p774a654c12)" d="M 274.251727 273.312 
L 276.991428 273.312 
L 276.991428 272.473201 
L 274.251727 272.473201 
z
" style="fill:#d62728;"/>
   </g>
   <g id="patch_161">
    <path clip-path="url(#p774a654c12)" d="M 277.676353 273.312 
L 280.416054 273.312 
L 280.416054 272.452743 
L 277.676353 272.452743 
z
" style="fill:#d62728;"/>
   </g>
   <g id="patch_162">
    <path clip-path="url(#p774a654c12)" d="M 281.100979 273.312 
L 283.84068 273.312 
L 283.84068 272.432284 
L 281.100979 272.432284 
z
" style="fill:#d62728;"/>
   </g>
   <g id="patch_163">
    <path clip-path="url(#p774a654c12)" d="M 284.525605 273.312 
L 287.265306 273.312 
L 287.265306 272.391367 
L 284.525605 272.391367 
z
" style="fill:#d62728;"/>
   </g>
   <g id="patch_164">
    <path clip-path="url(#p774a654c12)" d="M 287.950231 273.312 
L 290.689932 273.312 
L 290.689932 272.370909 
L 287.950231 272.370909 
z
" style="fill:#d62728;"/>
   </g>
   <g id="patch_165">
    <path clip-path="url(#p774a654c12)" d="M 291.374857 273.312 
L 294.114558 273.312 
L 294.114558 272.309533 
L 291.374857 272.309533 
z
" style="fill:#d62728;"/>
   </g>
   <g id="patch_166">
    <path clip-path="url(#p774a654c12)" d="M 294.799483 273.312 
L 297.539184 273.312 
L 297.539184 272.248158 
L 294.799483 272.248158 
z
" style="fill:#d62728;"/>
   </g>
   <g id="patch_167">
    <path clip-path="url(#p774a654c12)" d="M 298.224109 273.312 
L 300.96381 273.312 
L 300.96381 272.207241 
L 298.224109 272.207241 
z
" style="fill:#d62728;"/>
   </g>
   <g id="patch_168">
    <path clip-path="url(#p774a654c12)" d="M 301.648735 273.312 
L 304.388436 273.312 
L 304.388436 272.166324 
L 301.648735 272.166324 
z
" style="fill:#d62728;"/>
   </g>
   <g id="patch_169">
    <path clip-path="url(#p774a654c12)" d="M 305.073361 273.312 
L 307.813062 273.312 
L 307.813062 272.145865 
L 305.073361 272.145865 
z
" style="fill:#d62728;"/>
   </g>
   <g id="patch_170">
    <path clip-path="url(#p774a654c12)" d="M 308.497987 273.312 
L 311.237688 273.312 
L 311.237688 272.145865 
L 308.497987 272.145865 
z
" style="fill:#d62728;"/>
   </g>
   <g id="patch_171">
    <path clip-path="url(#p774a654c12)" d="M 311.922613 273.312 
L 314.662314 273.312 
L 314.662314 271.982197 
L 311.922613 271.982197 
z
" style="fill:#d62728;"/>
   </g>
   <g id="patch_172">
    <path clip-path="url(#p774a654c12)" d="M 315.347239 273.312 
L 318.08694 273.312 
L 318.08694 271.900363 
L 315.347239 271.900363 
z
" style="fill:#d62728;"/>
   </g>
   <g id="patch_173">
    <path clip-path="url(#p774a654c12)" d="M 318.771865 273.312 
L 321.511566 273.312 
L 321.511566 271.879904 
L 318.771865 271.879904 
z
" style="fill:#d62728;"/>
   </g>
   <g id="patch_174">
    <path clip-path="url(#p774a654c12)" d="M 322.196491 273.312 
L 324.936192 273.312 
L 324.936192 271.818529 
L 322.196491 271.818529 
z
" style="fill:#d62728;"/>
   </g>
   <g id="patch_175">
    <path clip-path="url(#p774a654c12)" d="M 325.621117 273.312 
L 328.360818 273.312 
L 328.360818 271.675319 
L 325.621117 271.675319 
z
" style="fill:#d62728;"/>
   </g>
   <g id="patch_176">
    <path clip-path="url(#p774a654c12)" d="M 329.045743 273.312 
L 331.785444 273.312 
L 331.785444 271.654861 
L 329.045743 271.654861 
z
" style="fill:#d62728;"/>
   </g>
   <g id="patch_177">
    <path clip-path="url(#p774a654c12)" d="M 332.470369 273.312 
L 335.21007 273.312 
L 335.21007 271.573027 
L 332.470369 271.573027 
z
" style="fill:#d62728;"/>
   </g>
   <g id="patch_178">
    <path clip-path="url(#p774a654c12)" d="M 335.894995 273.312 
L 338.634696 273.312 
L 338.634696 271.511651 
L 335.894995 271.511651 
z
" style="fill:#d62728;"/>
   </g>
   <g id="patch_179">
    <path clip-path="url(#p774a654c12)" d="M 339.319621 273.312 
L 342.059322 273.312 
L 342.059322 271.3889 
L 339.319621 271.3889 
z
" style="fill:#d62728;"/>
   </g>
   <g id="patch_180">
    <path clip-path="url(#p774a654c12)" d="M 342.744247 273.312 
L 345.483948 273.312 
L 345.483948 271.307066 
L 342.744247 271.307066 
z
" style="fill:#d62728;"/>
   </g>
   <g id="patch_181">
    <path clip-path="url(#p774a654c12)" d="M 346.168873 273.312 
L 348.908574 273.312 
L 348.908574 271.225232 
L 346.168873 271.225232 
z
" style="fill:#d62728;"/>
   </g>
   <g id="patch_182">
    <path clip-path="url(#p774a654c12)" d="M 349.593499 273.312 
L 352.3332 273.312 
L 352.3332 271.082023 
L 349.593499 271.082023 
z
" style="fill:#d62728;"/>
   </g>
   <g id="patch_183">
    <path clip-path="url(#p774a654c12)" d="M 353.018125 273.312 
L 355.757826 273.312 
L 355.757826 270.877438 
L 353.018125 270.877438 
z
" style="fill:#d62728;"/>
   </g>
   <g id="patch_184">
    <path clip-path="url(#p774a654c12)" d="M 356.442751 273.312 
L 359.182452 273.312 
L 359.182452 270.529643 
L 356.442751 270.529643 
z
" style="fill:#d62728;"/>
   </g>
   <g id="patch_185">
    <path clip-path="url(#p774a654c12)" d="M 359.867377 273.312 
L 362.607078 273.312 
L 362.607078 270.284141 
L 359.867377 270.284141 
z
" style="fill:#d62728;"/>
   </g>
   <g id="patch_186">
    <path clip-path="url(#p774a654c12)" d="M 363.292003 273.312 
L 366.031704 273.312 
L 366.031704 270.16139 
L 363.292003 270.16139 
z
" style="fill:#d62728;"/>
   </g>
   <g id="patch_187">
    <path clip-path="url(#p774a654c12)" d="M 366.716629 273.312 
L 369.45633 273.312 
L 369.45633 270.01818 
L 366.716629 270.01818 
z
" style="fill:#d62728;"/>
   </g>
   <g id="patch_188">
    <path clip-path="url(#p774a654c12)" d="M 370.141255 273.312 
L 372.880956 273.312 
L 372.880956 269.813595 
L 370.141255 269.813595 
z
" style="fill:#d62728;"/>
   </g>
   <g id="patch_189">
    <path clip-path="url(#p774a654c12)" d="M 373.565881 273.312 
L 376.305582 273.312 
L 376.305582 269.506717 
L 373.565881 269.506717 
z
" style="fill:#d62728;"/>
   </g>
   <g id="patch_190">
    <path clip-path="url(#p774a654c12)" d="M 376.990507 273.312 
L 379.730208 273.312 
L 379.730208 267.644993 
L 376.990507 267.644993 
z
" style="fill:#d62728;"/>
   </g>
   <g id="patch_191">
    <path clip-path="url(#p774a654c12)" d="M 380.415133 273.312 
L 383.154834 273.312 
L 383.154834 267.440408 
L 380.415133 267.440408 
z
" style="fill:#d62728;"/>
   </g>
   <g id="patch_192">
    <path clip-path="url(#p774a654c12)" d="M 383.839759 273.312 
L 386.57946 273.312 
L 386.57946 266.826653 
L 383.839759 266.826653 
z
" style="fill:#d62728;"/>
   </g>
   <g id="matplotlib.axis_1">
    <g id="xtick_1">
     <g id="line2d_1">
      <defs>
       <path d="M 0 0 
L 0 3.5 
" id="mcb1a2d9f36" style="stroke:#000000;stroke-width:0.8;"/>
      </defs>
      <g>
       <use style="stroke:#000000;stroke-width:0.8;" x="100.965651" xlink:href="#mcb1a2d9f36" y="273.312"/>
      </g>
     </g>
     <g id="text_1">
      <!-- Feb -->
      <defs>
       <path d="M 54.203125 64.703125 
L 18.3125 64.703125 
L 18.3125 41.5 
L 50.09375 41.5 
L 50.09375 34.1875 
L 18.3125 34.1875 
L 18.3125 0.984375 
L 9.515625 0.984375 
L 9.515625 72.40625 
L 54.203125 72.40625 
z
" id="IPAexGothic-70"/>
       <path d="M 13.484375 24.90625 
Q 13.921875 16.265625 18.890625 11.28125 
Q 23.96875 6.203125 31.203125 6.203125 
Q 40.71875 6.203125 46.296875 15.09375 
L 51.90625 11.375 
Q 44.828125 -0.484375 30.171875 -0.484375 
Q 19.09375 -0.484375 11.96875 6.59375 
Q 4.78125 13.8125 4.78125 25.640625 
Q 4.78125 38.1875 12.3125 45.703125 
Q 19 52.390625 29 52.390625 
Q 38.421875 52.390625 44.78125 46.1875 
Q 51.90625 38.96875 51.90625 26.90625 
L 51.90625 24.90625 
z
M 43.0625 31.203125 
Q 42.328125 37.984375 38.28125 41.890625 
Q 34.28125 45.90625 28.8125 45.90625 
Q 22.46875 45.90625 17.96875 40.484375 
Q 14.890625 36.8125 13.96875 31.203125 
z
" id="IPAexGothic-101"/>
       <path d="M 17.578125 42.671875 
Q 24.21875 52.203125 34.671875 52.203125 
Q 43.5625 52.203125 49.859375 45.90625 
Q 57.171875 38.578125 57.171875 25.6875 
Q 57.171875 13.09375 49.859375 5.8125 
Q 43.5625 -0.484375 34.46875 -0.484375 
Q 24.359375 -0.484375 17 8.0625 
L 15.765625 0.6875 
L 9.078125 0.6875 
L 9.078125 74.90625 
L 17.578125 74.90625 
z
M 17.578125 31.203125 
L 17.578125 19.578125 
Q 17.578125 13.875 23.875 9.375 
Q 28.171875 6.296875 33.109375 6.296875 
Q 38.875 6.296875 42.875 10.296875 
Q 48.1875 15.765625 48.1875 25.484375 
Q 48.1875 34.28125 43.796875 39.890625 
Q 39.453125 45.3125 33.203125 45.3125 
Q 27.484375 45.3125 22.46875 40.28125 
Q 17.578125 35.40625 17.578125 31.203125 
z
" id="IPAexGothic-98"/>
      </defs>
      <g transform="translate(92.142214 287.802625)scale(0.1 -0.1)">
       <use xlink:href="#IPAexGothic-70"/>
       <use x="57.177734" xlink:href="#IPAexGothic-101"/>
       <use x="114.0625" xlink:href="#IPAexGothic-98"/>
      </g>
     </g>
    </g>
    <g id="xtick_2">
     <g id="line2d_2">
      <g>
       <use style="stroke:#000000;stroke-width:0.8;" x="148.910415" xlink:href="#mcb1a2d9f36" y="273.312"/>
      </g>
     </g>
     <g id="text_2">
      <!-- 15 -->
      <defs>
       <path d="M 38.484375 0.984375 
L 29.6875 0.984375 
L 29.6875 64.109375 
Q 21.4375 61.28125 12.3125 59.328125 
L 10.6875 66.109375 
Q 23.734375 69.390625 32.90625 73.921875 
L 38.484375 73.921875 
z
" id="IPAexGothic-49"/>
       <path d="M 18.40625 40.671875 
Q 25.53125 46.296875 33.9375 46.296875 
Q 44 46.296875 50.640625 39.5 
Q 56.84375 33.015625 56.84375 23.390625 
Q 56.84375 14.65625 51.515625 8.015625 
Q 44.828125 -0.484375 31.734375 -0.484375 
Q 14.984375 -0.484375 7.328125 12.25 
L 14.65625 16.0625 
Q 20.453125 6.78125 31.453125 6.78125 
Q 38.53125 6.78125 43.265625 11.1875 
Q 48.140625 15.828125 48.140625 23.484375 
Q 48.140625 30.71875 43.84375 35.015625 
Q 39.359375 39.5 32.125 39.5 
Q 21.96875 39.5 16.75 31.6875 
L 9.234375 32.671875 
L 13.8125 72.40625 
L 53.21875 72.40625 
L 53.21875 64.890625 
L 20.953125 64.890625 
L 17.71875 40.671875 
z
" id="IPAexGothic-53"/>
      </defs>
      <g transform="translate(142.611978 287.802625)scale(0.1 -0.1)">
       <use xlink:href="#IPAexGothic-49"/>
       <use x="62.988281" xlink:href="#IPAexGothic-53"/>
      </g>
     </g>
    </g>
    <g id="xtick_3">
     <g id="line2d_3">
      <g>
       <use style="stroke:#000000;stroke-width:0.8;" x="200.279805" xlink:href="#mcb1a2d9f36" y="273.312"/>
      </g>
     </g>
     <g id="text_3">
      <!-- Mar -->
      <defs>
       <path d="M 80.421875 0.984375 
L 71.828125 0.984375 
L 71.828125 39.59375 
Q 71.828125 51.265625 72.40625 64.59375 
L 72.015625 64.59375 
Q 68.0625 53.265625 63.53125 41.796875 
L 47.90625 3.265625 
L 41.40625 3.265625 
L 25.640625 42.578125 
Q 20.75 54.78125 17.625 64.703125 
L 17.234375 64.703125 
Q 17.828125 48.921875 17.828125 39.890625 
L 17.828125 0.984375 
L 9.515625 0.984375 
L 9.515625 72.40625 
L 22.125 72.40625 
L 39.109375 30.375 
Q 42.140625 23 44.828125 14.15625 
L 45.125 14.15625 
Q 47.3125 22.125 50.53125 30.171875 
L 67.4375 72.40625 
L 80.421875 72.40625 
z
" id="IPAexGothic-77"/>
       <path d="M 49.3125 0.984375 
L 41.75 0.984375 
Q 39.984375 4.734375 39.546875 8.6875 
L 39.203125 8.6875 
Q 33.546875 -0.390625 22.3125 -0.390625 
Q 14.59375 -0.390625 9.71875 4.5 
Q 5.421875 8.796875 5.421875 14.984375 
Q 5.421875 30.421875 32.03125 31.203125 
L 38.71875 31.390625 
L 38.71875 33.984375 
Q 38.71875 39.203125 35.75 42.1875 
Q 32.625 45.3125 27.734375 45.3125 
Q 19.34375 45.3125 15.140625 37.15625 
L 7.71875 40.578125 
Q 14.65625 52 27.9375 52 
Q 37.109375 52 42.046875 46.875 
Q 46.625 42.28125 46.625 33.890625 
L 46.625 15.578125 
Q 46.625 6.25 49.3125 0.984375 
z
M 38.921875 25.390625 
L 33.453125 25.296875 
Q 14.109375 24.859375 14.109375 14.890625 
Q 14.109375 11.375 16.40625 9.078125 
Q 19.234375 6.296875 23.828125 6.296875 
Q 30.21875 6.296875 34.90625 10.984375 
Q 38.921875 15.140625 38.921875 21 
z
" id="IPAexGothic-97"/>
       <path d="M 36.078125 51.8125 
L 34.578125 43.265625 
Q 32.90625 43.609375 31.59375 43.609375 
Q 25.828125 43.609375 22.078125 38.1875 
Q 17.390625 31.34375 17.390625 26.171875 
L 17.390625 0.984375 
L 8.796875 0.984375 
L 8.796875 50.78125 
L 16.890625 50.78125 
L 16.5 35.984375 
L 16.703125 35.984375 
Q 22.21875 52.203125 32.765625 52.203125 
Q 34.46875 52.203125 36.078125 51.8125 
z
" id="IPAexGothic-114"/>
      </defs>
      <g transform="translate(191.17043 287.802625)scale(0.1 -0.1)">
       <use xlink:href="#IPAexGothic-77"/>
       <use x="90.185547" xlink:href="#IPAexGothic-97"/>
       <use x="145.166016" xlink:href="#IPAexGothic-114"/>
      </g>
     </g>
    </g>
    <g id="xtick_4">
     <g id="line2d_4">
      <g>
       <use style="stroke:#000000;stroke-width:0.8;" x="248.22457" xlink:href="#mcb1a2d9f36" y="273.312"/>
      </g>
     </g>
     <g id="text_4">
      <!-- 15 -->
      <g transform="translate(241.926132 287.802625)scale(0.1 -0.1)">
       <use xlink:href="#IPAexGothic-49"/>
       <use x="62.988281" xlink:href="#IPAexGothic-53"/>
      </g>
     </g>
    </g>
    <g id="xtick_5">
     <g id="line2d_5">
      <g>
       <use style="stroke:#000000;stroke-width:0.8;" x="306.443212" xlink:href="#mcb1a2d9f36" y="273.312"/>
      </g>
     </g>
     <g id="text_5">
      <!-- Apr -->
      <defs>
       <path d="M 63.375 0.984375 
L 53.8125 0.984375 
L 45.90625 22.015625 
L 17.1875 22.015625 
L 9.421875 0.984375 
L -0.09375 0.984375 
L 28.21875 72.90625 
L 35.296875 72.90625 
z
M 43.40625 29.109375 
L 36.1875 48.09375 
Q 33.203125 56.0625 31.6875 62.5 
L 31.390625 62.5 
Q 29.640625 55.671875 26.8125 48.09375 
L 19.734375 29.109375 
z
" id="IPAexGothic-65"/>
       <path d="M 16.796875 42 
Q 23.828125 52.203125 34.46875 52.203125 
Q 43.265625 52.203125 49.5625 45.90625 
Q 56.890625 38.578125 56.890625 25.6875 
Q 56.890625 13.140625 49.65625 5.8125 
Q 43.359375 -0.484375 34.375 -0.484375 
Q 24.515625 -0.484375 17.28125 7.765625 
L 17.28125 -19 
L 8.796875 -19 
L 8.796875 50.78125 
L 16.796875 50.78125 
z
M 17.28125 30.46875 
L 17.28125 20.171875 
Q 17.28125 14.015625 23.6875 9.375 
Q 27.984375 6.296875 32.90625 6.296875 
Q 38.578125 6.296875 42.578125 10.296875 
Q 47.90625 15.578125 47.90625 25.484375 
Q 47.90625 34.375 43.5 39.984375 
Q 39.109375 45.3125 32.8125 45.3125 
Q 25.875 45.3125 20.90625 38.8125 
Q 17.28125 34.125 17.28125 30.46875 
z
" id="IPAexGothic-112"/>
      </defs>
      <g transform="translate(298.301024 287.802625)scale(0.1 -0.1)">
       <use xlink:href="#IPAexGothic-65"/>
       <use x="63.720703" xlink:href="#IPAexGothic-112"/>
       <use x="125.830078" xlink:href="#IPAexGothic-114"/>
      </g>
     </g>
    </g>
    <g id="xtick_6">
     <g id="line2d_6">
      <g>
       <use style="stroke:#000000;stroke-width:0.8;" x="354.387976" xlink:href="#mcb1a2d9f36" y="273.312"/>
      </g>
     </g>
     <g id="text_6">
      <!-- 15 -->
      <g transform="translate(348.089538 287.802625)scale(0.1 -0.1)">
       <use xlink:href="#IPAexGothic-49"/>
       <use x="62.988281" xlink:href="#IPAexGothic-53"/>
      </g>
     </g>
    </g>
    <g id="text_7">
     <!-- 2020-Apr -->
     <defs>
      <path d="M 57.171875 0.984375 
L 6.984375 0.984375 
L 6.984375 9.28125 
Q 12.890625 23.046875 29.59375 34.421875 
L 32.375 36.28125 
Q 40.921875 42.140625 43.609375 45.40625 
Q 46.6875 49.265625 46.6875 53.8125 
Q 46.6875 58.9375 43.0625 62.546875 
Q 39.0625 66.546875 32.5625 66.546875 
Q 19.53125 66.546875 15.484375 52 
L 7.765625 54.78125 
Q 13.328125 73.828125 33.0625 73.828125 
Q 43.84375 73.828125 50.25 67.4375 
Q 55.859375 61.671875 55.859375 53.515625 
Q 55.859375 47.46875 52.25 42.53125 
Q 48.921875 37.75 36.96875 30.28125 
L 34.859375 29 
Q 19.625 19.578125 15.28125 8.890625 
L 57.171875 8.890625 
z
" id="IPAexGothic-50"/>
      <path d="M 31.84375 73.828125 
Q 45.015625 73.828125 52.09375 61.625 
Q 57.71875 51.953125 57.71875 36.625 
Q 57.71875 21.4375 52.09375 11.578125 
Q 45.125 -0.484375 31.5 -0.484375 
Q 17.921875 -0.484375 10.9375 11.578125 
Q 5.328125 21.4375 5.328125 36.71875 
Q 5.328125 58.015625 15.625 67.71875 
Q 22.171875 73.828125 31.84375 73.828125 
z
M 31.5 66.65625 
Q 23.6875 66.65625 19.1875 58.734375 
Q 14.59375 50.734375 14.59375 36.625 
Q 14.59375 22.75 19.09375 14.796875 
Q 23.640625 6.984375 31.5 6.984375 
Q 40.921875 6.984375 45.453125 18.015625 
Q 48.4375 25.34375 48.4375 37.109375 
Q 48.4375 50.875 43.84375 58.734375 
Q 39.203125 66.65625 31.5 66.65625 
z
" id="IPAexGothic-48"/>
      <path d="M 30.765625 26.609375 
L 4.984375 26.609375 
L 4.984375 34.421875 
L 30.765625 34.421875 
z
" id="IPAexGothic-45"/>
     </defs>
     <g transform="translate(357.754375 300.19325)scale(0.1 -0.1)">
      <use xlink:href="#IPAexGothic-50"/>
      <use x="62.988281" xlink:href="#IPAexGothic-48"/>
      <use x="125.976562" xlink:href="#IPAexGothic-50"/>
      <use x="188.964844" xlink:href="#IPAexGothic-48"/>
      <use x="251.953125" xlink:href="#IPAexGothic-45"/>
      <use x="287.744141" xlink:href="#IPAexGothic-65"/>
      <use x="351.464844" xlink:href="#IPAexGothic-112"/>
      <use x="413.574219" xlink:href="#IPAexGothic-114"/>
     </g>
    </g>
   </g>
   <g id="matplotlib.axis_2">
    <g id="ytick_1">
     <g id="line2d_7">
      <defs>
       <path d="M 0 0 
L -3.5 0 
" id="mc55843b68f" style="stroke:#000000;stroke-width:0.8;"/>
      </defs>
      <g>
       <use style="stroke:#000000;stroke-width:0.8;" x="45.692188" xlink:href="#mc55843b68f" y="273.312"/>
      </g>
     </g>
     <g id="text_8">
      <!-- 0 -->
      <g transform="translate(32.39375 277.057312)scale(0.1 -0.1)">
       <use xlink:href="#IPAexGothic-48"/>
      </g>
     </g>
    </g>
    <g id="ytick_2">
     <g id="line2d_8">
      <g>
       <use style="stroke:#000000;stroke-width:0.8;" x="45.692188" xlink:href="#mc55843b68f" y="232.394984"/>
      </g>
     </g>
     <g id="text_9">
      <!-- 2000 -->
      <g transform="translate(13.498438 236.140296)scale(0.1 -0.1)">
       <use xlink:href="#IPAexGothic-50"/>
       <use x="62.988281" xlink:href="#IPAexGothic-48"/>
       <use x="125.976562" xlink:href="#IPAexGothic-48"/>
       <use x="188.964844" xlink:href="#IPAexGothic-48"/>
      </g>
     </g>
    </g>
    <g id="ytick_3">
     <g id="line2d_9">
      <g>
       <use style="stroke:#000000;stroke-width:0.8;" x="45.692188" xlink:href="#mc55843b68f" y="191.477967"/>
      </g>
     </g>
     <g id="text_10">
      <!-- 4000 -->
      <defs>
       <path d="M 59.578125 18.109375 
L 47.796875 18.109375 
L 47.796875 0.984375 
L 39.796875 0.984375 
L 39.796875 18.109375 
L 3.078125 18.109375 
L 3.078125 26.125 
L 38.375 73.09375 
L 47.796875 73.09375 
L 47.796875 25.53125 
L 59.578125 25.53125 
z
M 40.28125 64.203125 
L 39.984375 64.203125 
Q 35.59375 57.125 31.296875 51.3125 
L 11.859375 25.53125 
L 39.796875 25.53125 
L 39.796875 49.125 
Q 39.796875 54.390625 40.28125 64.203125 
z
" id="IPAexGothic-52"/>
      </defs>
      <g transform="translate(13.498438 195.22328)scale(0.1 -0.1)">
       <use xlink:href="#IPAexGothic-52"/>
       <use x="62.988281" xlink:href="#IPAexGothic-48"/>
       <use x="125.976562" xlink:href="#IPAexGothic-48"/>
       <use x="188.964844" xlink:href="#IPAexGothic-48"/>
      </g>
     </g>
    </g>
    <g id="ytick_4">
     <g id="line2d_10">
      <g>
       <use style="stroke:#000000;stroke-width:0.8;" x="45.692188" xlink:href="#mc55843b68f" y="150.560951"/>
      </g>
     </g>
     <g id="text_11">
      <!-- 6000 -->
      <defs>
       <path d="M 16.5 36.375 
Q 23.578125 46.578125 34.90625 46.578125 
Q 45.40625 46.578125 51.8125 39.265625 
Q 57.421875 32.90625 57.421875 23.78125 
Q 57.421875 13.8125 51.125 6.78125 
Q 44.578125 -0.484375 34.03125 -0.484375 
Q 21.484375 -0.484375 14.40625 9.078125 
Q 7.515625 18.40625 7.515625 34.8125 
Q 7.515625 53.515625 15.828125 64.203125 
Q 23.34375 73.828125 35.5 73.828125 
Q 49.859375 73.828125 56.390625 62.890625 
L 49.21875 58.984375 
Q 45.21875 66.65625 35.9375 66.65625 
Q 17.484375 66.65625 16.109375 36.375 
z
M 33.453125 39.796875 
Q 26.3125 39.796875 21.625 34.46875 
Q 17.4375 29.6875 17.4375 24.078125 
Q 17.4375 18.0625 21.140625 13.1875 
Q 26.125 6.6875 33.734375 6.6875 
Q 41.703125 6.6875 45.953125 13.1875 
Q 48.828125 17.625 48.828125 23.484375 
Q 48.828125 30.375 45.015625 34.8125 
Q 40.625 39.796875 33.453125 39.796875 
z
" id="IPAexGothic-54"/>
      </defs>
      <g transform="translate(13.498438 154.306263)scale(0.1 -0.1)">
       <use xlink:href="#IPAexGothic-54"/>
       <use x="62.988281" xlink:href="#IPAexGothic-48"/>
       <use x="125.976562" xlink:href="#IPAexGothic-48"/>
       <use x="188.964844" xlink:href="#IPAexGothic-48"/>
      </g>
     </g>
    </g>
    <g id="ytick_5">
     <g id="line2d_11">
      <g>
       <use style="stroke:#000000;stroke-width:0.8;" x="45.692188" xlink:href="#mc55843b68f" y="109.643934"/>
      </g>
     </g>
     <g id="text_12">
      <!-- 8000 -->
      <defs>
       <path d="M 39.703125 37.890625 
Q 57.8125 31.734375 57.8125 18.703125 
Q 57.8125 8.453125 48.4375 3.078125 
Q 41.609375 -0.875 31.5 -0.875 
Q 21.34375 -0.875 14.5 3.078125 
Q 5.421875 8.296875 5.421875 18.40625 
Q 5.421875 31.0625 22.015625 37.203125 
L 22.015625 37.5 
Q 7.515625 42.71875 7.515625 54.828125 
Q 7.515625 64.0625 15.328125 69.625 
Q 21.96875 74.3125 31.546875 74.3125 
Q 42.234375 74.3125 48.921875 68.796875 
Q 55.515625 63.578125 55.515625 55.71875 
Q 55.515625 42.28125 39.703125 38.1875 
z
M 31.59375 41.015625 
Q 46.828125 44.625 46.828125 55.125 
Q 46.828125 61.1875 41.796875 64.84375 
Q 37.703125 67.921875 31.5 67.921875 
Q 25.09375 67.921875 20.796875 64.5 
Q 16.40625 60.890625 16.40625 55.03125 
Q 16.40625 49.21875 21.09375 45.703125 
Q 23.34375 43.890625 26.90625 42.53125 
Q 31 40.875 31.59375 41.015625 
z
M 30.90625 34.515625 
Q 14.40625 30.171875 14.40625 19 
Q 14.40625 12.109375 20.515625 8.6875 
Q 25.09375 6.109375 31.390625 6.109375 
Q 40.234375 6.109375 45.015625 10.890625 
Q 48.53125 14.40625 48.53125 19.53125 
Q 48.53125 24.90625 43.65625 28.90625 
Q 40.765625 31.15625 36.71875 32.8125 
Q 31.984375 34.71875 30.90625 34.515625 
z
" id="IPAexGothic-56"/>
      </defs>
      <g transform="translate(13.498438 113.389247)scale(0.1 -0.1)">
       <use xlink:href="#IPAexGothic-56"/>
       <use x="62.988281" xlink:href="#IPAexGothic-48"/>
       <use x="125.976562" xlink:href="#IPAexGothic-48"/>
       <use x="188.964844" xlink:href="#IPAexGothic-48"/>
      </g>
     </g>
    </g>
    <g id="ytick_6">
     <g id="line2d_12">
      <g>
       <use style="stroke:#000000;stroke-width:0.8;" x="45.692188" xlink:href="#mc55843b68f" y="68.726918"/>
      </g>
     </g>
     <g id="text_13">
      <!-- 10000 -->
      <g transform="translate(7.2 72.47223)scale(0.1 -0.1)">
       <use xlink:href="#IPAexGothic-49"/>
       <use x="62.988281" xlink:href="#IPAexGothic-48"/>
       <use x="125.976562" xlink:href="#IPAexGothic-48"/>
       <use x="188.964844" xlink:href="#IPAexGothic-48"/>
       <use x="251.953125" xlink:href="#IPAexGothic-48"/>
      </g>
     </g>
    </g>
    <g id="ytick_7">
     <g id="line2d_13">
      <g>
       <use style="stroke:#000000;stroke-width:0.8;" x="45.692188" xlink:href="#mc55843b68f" y="27.809901"/>
      </g>
     </g>
     <g id="text_14">
      <!-- 12000 -->
      <g transform="translate(7.2 31.555214)scale(0.1 -0.1)">
       <use xlink:href="#IPAexGothic-49"/>
       <use x="62.988281" xlink:href="#IPAexGothic-50"/>
       <use x="125.976562" xlink:href="#IPAexGothic-48"/>
       <use x="188.964844" xlink:href="#IPAexGothic-48"/>
       <use x="251.953125" xlink:href="#IPAexGothic-48"/>
      </g>
     </g>
    </g>
   </g>
   <g id="patch_193">
    <path d="M 45.692188 273.312 
L 45.692188 7.2 
" style="fill:none;stroke:#000000;stroke-linecap:square;stroke-linejoin:miter;stroke-width:0.8;"/>
   </g>
   <g id="patch_194">
    <path d="M 402.812188 273.312 
L 402.812188 7.2 
" style="fill:none;stroke:#000000;stroke-linecap:square;stroke-linejoin:miter;stroke-width:0.8;"/>
   </g>
   <g id="patch_195">
    <path d="M 45.692188 273.312 
L 402.812188 273.312 
" style="fill:none;stroke:#000000;stroke-linecap:square;stroke-linejoin:miter;stroke-width:0.8;"/>
   </g>
   <g id="patch_196">
    <path d="M 45.692188 7.2 
L 402.812188 7.2 
" style="fill:none;stroke:#000000;stroke-linecap:square;stroke-linejoin:miter;stroke-width:0.8;"/>
   </g>
   <g id="legend_1">
    <g id="patch_197">
     <path d="M 52.692188 44.340625 
L 170.534375 44.340625 
Q 172.534375 44.340625 172.534375 42.340625 
L 172.534375 14.2 
Q 172.534375 12.2 170.534375 12.2 
L 52.692188 12.2 
Q 50.692188 12.2 50.692188 14.2 
L 50.692188 42.340625 
Q 50.692188 44.340625 52.692188 44.340625 
z
" style="fill:#ffffff;opacity:0.8;stroke:#cccccc;stroke-linejoin:miter;"/>
    </g>
    <g id="patch_198">
     <path d="M 54.692188 23.870312 
L 74.692188 23.870312 
L 74.692188 16.870312 
L 54.692188 16.870312 
z
" style="fill:#ffbb78;"/>
    </g>
    <g id="text_15">
     <!-- Confirmed (Japan) -->
     <defs>
      <path d="M 68.015625 17 
Q 65.328125 10.84375 60.296875 6.6875 
Q 51.765625 -0.484375 39.984375 -0.484375 
Q 24.8125 -0.484375 14.984375 10.203125 
Q 5.90625 20.21875 5.90625 36.421875 
Q 5.90625 53.21875 15.828125 63.71875 
Q 25.296875 73.828125 39.59375 73.828125 
Q 59.578125 73.828125 67.53125 56.6875 
L 59.515625 52.984375 
Q 53.515625 66.21875 39.703125 66.21875 
Q 29.546875 66.21875 22.703125 58.5 
Q 15.53125 50.25 15.53125 36.28125 
Q 15.53125 24.21875 21.625 16.5 
Q 28.765625 7.375 40.046875 7.375 
Q 54 7.375 60.59375 20.609375 
z
" id="IPAexGothic-67"/>
      <path d="M 29.984375 52.203125 
Q 40.53125 52.203125 47.75 45.125 
Q 55.171875 37.703125 55.171875 25.59375 
Q 55.171875 13.875 47.90625 6.59375 
Q 40.765625 -0.484375 29.984375 -0.484375 
Q 19.1875 -0.484375 12.203125 6.5 
Q 4.890625 13.765625 4.890625 25.875 
Q 4.890625 37.703125 12.3125 45.125 
Q 19.390625 52.203125 29.984375 52.203125 
z
M 29.984375 45.609375 
Q 23.734375 45.609375 19.390625 41.109375 
Q 13.875 35.59375 13.875 25.78125 
Q 13.875 16.109375 19.28125 10.6875 
Q 23.6875 6.296875 29.984375 6.296875 
Q 36.421875 6.296875 40.765625 10.796875 
Q 46.1875 16.21875 46.1875 26.125 
Q 46.1875 35.453125 40.671875 41.109375 
Q 36.1875 45.609375 29.984375 45.609375 
z
" id="IPAexGothic-111"/>
      <path d="M 52 0.984375 
L 43.40625 0.984375 
L 43.40625 31.890625 
Q 43.40625 44.578125 32.90625 44.578125 
Q 22.3125 44.578125 17.390625 31.890625 
L 17.390625 0.984375 
L 8.796875 0.984375 
L 8.796875 50.78125 
L 16.796875 50.78125 
L 16.796875 41.796875 
Q 23.828125 51.8125 34.71875 51.8125 
Q 52 51.8125 52 32.375 
z
" id="IPAexGothic-110"/>
      <path d="M 38.375 72.21875 
L 34.8125 66.3125 
Q 31.109375 69.09375 27.203125 69.09375 
Q 18.5 69.09375 18.5 57.375 
L 18.5 50.78125 
L 32.078125 50.78125 
L 32.078125 44.671875 
L 18.5 44.671875 
L 18.5 0.984375 
L 10.015625 0.984375 
L 10.015625 44.671875 
L 1.90625 44.671875 
L 1.90625 50.78125 
L 10.015625 50.78125 
L 10.015625 57.171875 
Q 10.015625 65.4375 13.921875 70.0625 
Q 18.75 75.6875 26.703125 75.6875 
Q 33.0625 75.6875 38.375 72.21875 
z
" id="IPAexGothic-102"/>
      <path d="M 18.40625 61.375 
L 8.59375 61.375 
L 8.59375 71.390625 
L 18.40625 71.390625 
z
M 17.78125 0.984375 
L 9.1875 0.984375 
L 9.1875 50.78125 
L 17.78125 50.78125 
z
" id="IPAexGothic-105"/>
      <path d="M 78.46875 0.984375 
L 69.875 0.984375 
L 69.875 32.171875 
Q 69.875 44.828125 60.109375 44.828125 
Q 55.46875 44.828125 51.609375 40.53125 
Q 48.875 37.453125 47.796875 32.859375 
L 47.796875 0.984375 
L 39.203125 0.984375 
L 39.203125 32.28125 
Q 39.203125 44.828125 29.984375 44.828125 
Q 25.09375 44.828125 21.390625 40.53125 
Q 17.390625 36.03125 17.390625 31.890625 
L 17.390625 0.984375 
L 8.796875 0.984375 
L 8.796875 50.78125 
L 16.796875 50.78125 
L 16.796875 42.1875 
Q 21.734375 51.8125 31.6875 51.8125 
Q 42.578125 51.8125 46.1875 41.359375 
Q 51.609375 51.8125 61.765625 51.8125 
Q 69.96875 51.8125 74.5625 46 
Q 78.46875 41.21875 78.46875 32.375 
z
" id="IPAexGothic-109"/>
      <path d="M 52.984375 0.984375 
L 45.171875 0.984375 
L 45.171875 9.671875 
Q 38.140625 -0.484375 27.390625 -0.484375 
Q 18.453125 -0.484375 12.3125 5.8125 
Q 4.890625 13.1875 4.890625 25.984375 
Q 4.890625 38.53125 12.0625 45.90625 
Q 18.265625 52.203125 27.390625 52.203125 
Q 37.25 52.203125 44.484375 43.890625 
L 44.484375 74.90625 
L 52.984375 74.90625 
z
M 44.484375 20.359375 
L 44.484375 32.765625 
Q 44.484375 37.703125 38.375 42.28125 
Q 34.078125 45.40625 28.953125 45.40625 
Q 23.1875 45.40625 19.1875 41.40625 
Q 13.875 36.078125 13.875 26.21875 
Q 13.875 17.328125 18.265625 11.71875 
Q 22.515625 6.390625 28.859375 6.390625 
Q 36.28125 6.390625 41.5 13.671875 
Q 44.484375 17.71875 44.484375 20.359375 
z
" id="IPAexGothic-100"/>
      <path id="IPAexGothic-32"/>
      <path d="M 30.125 -15.875 
L 25.828125 -18.21875 
Q 7.625 1.078125 7.625 29.296875 
Q 7.625 57.46875 25.828125 76.703125 
L 30.125 74.421875 
Q 15.71875 55.03125 15.71875 29.390625 
Q 15.71875 3.171875 30.125 -15.875 
z
" id="IPAexGothic-40"/>
      <path d="M 28.421875 72.40625 
L 28.421875 19.28125 
Q 28.421875 -0.484375 11.921875 -0.484375 
Q 4.734375 -0.484375 -1.953125 3.265625 
L 1.3125 10.0625 
Q 5.90625 6.984375 10.84375 6.984375 
Q 19.53125 6.984375 19.53125 18.796875 
L 19.53125 72.40625 
z
" id="IPAexGothic-74"/>
      <path d="M 7.28125 76.703125 
Q 25.59375 57.375 25.59375 29.296875 
Q 25.59375 1.171875 7.28125 -18.21875 
L 2.984375 -15.875 
Q 17.484375 3.375 17.484375 29.390625 
Q 17.484375 54.828125 2.984375 74.421875 
z
" id="IPAexGothic-41"/>
     </defs>
     <g transform="translate(82.692188 23.870312)scale(0.1 -0.1)">
      <use xlink:href="#IPAexGothic-67"/>
      <use x="72.509766" xlink:href="#IPAexGothic-111"/>
      <use x="132.910156" xlink:href="#IPAexGothic-110"/>
      <use x="193.310547" xlink:href="#IPAexGothic-102"/>
      <use x="223.925781" xlink:href="#IPAexGothic-105"/>
      <use x="250.927734" xlink:href="#IPAexGothic-114"/>
      <use x="287.939453" xlink:href="#IPAexGothic-109"/>
      <use x="375.048828" xlink:href="#IPAexGothic-101"/>
      <use x="431.933594" xlink:href="#IPAexGothic-100"/>
      <use x="494.335938" xlink:href="#IPAexGothic-32"/>
      <use x="521.337891" xlink:href="#IPAexGothic-40"/>
      <use x="554.638672" xlink:href="#IPAexGothic-74"/>
      <use x="592.626953" xlink:href="#IPAexGothic-97"/>
      <use x="647.607422" xlink:href="#IPAexGothic-112"/>
      <use x="709.716797" xlink:href="#IPAexGothic-97"/>
      <use x="764.697266" xlink:href="#IPAexGothic-110"/>
      <use x="825.097656" xlink:href="#IPAexGothic-41"/>
     </g>
    </g>
    <g id="patch_199">
     <path d="M 54.692188 38.440625 
L 74.692188 38.440625 
L 74.692188 31.440625 
L 54.692188 31.440625 
z
" style="fill:#d62728;"/>
    </g>
    <g id="text_16">
     <!-- Deaths (Japan) -->
     <defs>
      <path d="M 9.515625 72.40625 
L 31 72.40625 
Q 49.359375 72.40625 59.234375 63.28125 
Q 69.625 53.8125 69.625 36.8125 
Q 69.625 16.359375 54.9375 6.890625 
Q 45.703125 0.984375 30.328125 0.984375 
L 9.515625 0.984375 
z
M 18.3125 8.6875 
L 29.59375 8.6875 
Q 60.203125 8.6875 60.203125 36.8125 
Q 60.203125 64.796875 30.125 64.796875 
L 18.3125 64.796875 
z
" id="IPAexGothic-68"/>
      <path d="M 33.203125 3.765625 
Q 27.640625 -0.09375 21.828125 -0.09375 
Q 10.203125 -0.09375 10.203125 12.984375 
L 10.203125 44.671875 
L 3.421875 44.671875 
L 3.421875 50.78125 
L 10.203125 50.78125 
L 10.203125 61.96875 
L 18.40625 66.0625 
L 18.40625 50.78125 
L 32.234375 50.78125 
L 32.234375 44.671875 
L 18.40625 44.671875 
L 18.40625 14.15625 
Q 18.40625 6.5 23.640625 6.5 
Q 27.15625 6.5 30.328125 9.1875 
z
" id="IPAexGothic-116"/>
      <path d="M 52.296875 0.984375 
L 43.703125 0.984375 
L 43.703125 31.890625 
Q 43.703125 44.578125 33.296875 44.578125 
Q 22.609375 44.578125 17.671875 31.890625 
L 17.671875 0.984375 
L 9.078125 0.984375 
L 9.078125 74.90625 
L 17.671875 74.90625 
L 17.671875 42.28125 
Q 24.46875 51.8125 35.109375 51.8125 
Q 52.296875 51.8125 52.296875 32.375 
z
" id="IPAexGothic-104"/>
      <path d="M 34.90625 39.796875 
Q 30.28125 45.796875 23.1875 45.796875 
Q 13.921875 45.796875 13.921875 38.671875 
Q 13.921875 33.640625 23.921875 30.375 
L 27.203125 29.296875 
Q 41.40625 24.65625 41.40625 13.96875 
Q 41.40625 6.78125 35.5 2.6875 
Q 30.8125 -0.484375 23.390625 -0.484375 
Q 11.96875 -0.484375 4 7.859375 
L 9.421875 12.796875 
Q 15.578125 6.203125 23.6875 6.203125 
Q 33.296875 6.203125 33.296875 13.671875 
Q 33.296875 19.34375 22.703125 23.09375 
L 19.28125 24.265625 
Q 5.90625 28.953125 5.90625 37.984375 
Q 5.90625 43.703125 9.8125 47.609375 
Q 14.5 52.296875 22.703125 52.296875 
Q 33.6875 52.296875 40.71875 44.671875 
z
" id="IPAexGothic-115"/>
     </defs>
     <g transform="translate(82.692188 38.440625)scale(0.1 -0.1)">
      <use xlink:href="#IPAexGothic-68"/>
      <use x="75.683594" xlink:href="#IPAexGothic-101"/>
      <use x="132.568359" xlink:href="#IPAexGothic-97"/>
      <use x="187.548828" xlink:href="#IPAexGothic-116"/>
      <use x="222.167969" xlink:href="#IPAexGothic-104"/>
      <use x="282.861328" xlink:href="#IPAexGothic-115"/>
      <use x="329.052734" xlink:href="#IPAexGothic-32"/>
      <use x="356.054688" xlink:href="#IPAexGothic-40"/>
      <use x="389.355469" xlink:href="#IPAexGothic-74"/>
      <use x="427.34375" xlink:href="#IPAexGothic-97"/>
      <use x="482.324219" xlink:href="#IPAexGothic-112"/>
      <use x="544.433594" xlink:href="#IPAexGothic-97"/>
      <use x="599.414062" xlink:href="#IPAexGothic-110"/>
      <use x="659.814453" xlink:href="#IPAexGothic-41"/>
     </g>
    </g>
   </g>
  </g>
 </g>
 <defs>
  <clipPath id="p774a654c12">
   <rect height="266.112" width="357.12" x="45.692188" y="7.2"/>
  </clipPath>
 </defs>
</svg>
