<?xml version="1.0" encoding="utf-8" standalone="no"?>
<!DOCTYPE svg PUBLIC "-//W3C//DTD SVG 1.1//EN"
  "http://www.w3.org/Graphics/SVG/1.1/DTD/svg11.dtd">
<!-- Created with matplotlib (https://matplotlib.org/) -->
<svg height="320.239875pt" version="1.1" viewBox="0 0 420.944167 320.239875" width="420.944167pt" xmlns="http://www.w3.org/2000/svg" xmlns:xlink="http://www.w3.org/1999/xlink">
 <defs>
  <style type="text/css">
*{stroke-linecap:butt;stroke-linejoin:round;}
  </style>
 </defs>
 <g id="figure_1">
  <g id="patch_1">
   <path d="M 0 320.239875 
L 420.944167 320.239875 
L 420.944167 0 
L 0 0 
z
" style="fill:#ffffff;"/>
  </g>
  <g id="axes_1">
   <g id="patch_2">
    <path d="M 51.990625 284.258625 
L 409.110625 284.258625 
L 409.110625 18.146625 
L 51.990625 18.146625 
z
" style="fill:#ffffff;"/>
   </g>
   <g id="patch_3">
    <path clip-path="url(#p0f133c748b)" d="M 68.223352 284.258625 
L 70.304471 284.258625 
L 70.304471 283.707622 
L 68.223352 283.707622 
z
" style="fill:#1f77b4;"/>
   </g>
   <g id="patch_4">
    <path clip-path="url(#p0f133c748b)" d="M 70.824751 284.258625 
L 72.90587 284.258625 
L 72.90587 283.692623 
L 70.824751 283.692623 
z
" style="fill:#1f77b4;"/>
   </g>
   <g id="patch_5">
    <path clip-path="url(#p0f133c748b)" d="M 78.628947 284.258625 
L 80.710066 284.258625 
L 80.710066 283.518166 
L 78.628947 283.518166 
z
" style="fill:#1f77b4;"/>
   </g>
   <g id="patch_6">
    <path clip-path="url(#p0f133c748b)" d="M 83.831744 284.258625 
L 85.912863 284.258625 
L 85.912863 283.505535 
L 83.831744 283.505535 
z
" style="fill:#1f77b4;"/>
   </g>
   <g id="patch_7">
    <path clip-path="url(#p0f133c748b)" d="M 86.433142 284.258625 
L 88.514261 284.258625 
L 88.514261 283.497641 
L 86.433142 283.497641 
z
" style="fill:#1f77b4;"/>
   </g>
   <g id="patch_8">
    <path clip-path="url(#p0f133c748b)" d="M 89.034541 284.258625 
L 91.11566 284.258625 
L 91.11566 283.486589 
L 89.034541 283.486589 
z
" style="fill:#1f77b4;"/>
   </g>
   <g id="patch_9">
    <path clip-path="url(#p0f133c748b)" d="M 96.838737 284.258625 
L 98.919856 284.258625 
L 98.919856 283.271083 
L 96.838737 283.271083 
z
" style="fill:#1f77b4;"/>
   </g>
   <g id="patch_10">
    <path clip-path="url(#p0f133c748b)" d="M 99.440135 284.258625 
L 101.521254 284.258625 
L 101.521254 283.242664 
L 99.440135 283.242664 
z
" style="fill:#1f77b4;"/>
   </g>
   <g id="patch_11">
    <path clip-path="url(#p0f133c748b)" d="M 102.041534 284.258625 
L 104.122653 284.258625 
L 104.122653 283.23556 
L 102.041534 283.23556 
z
" style="fill:#1f77b4;"/>
   </g>
   <g id="patch_12">
    <path clip-path="url(#p0f133c748b)" d="M 104.642933 284.258625 
L 106.724052 284.258625 
L 106.724052 283.128201 
L 104.642933 283.128201 
z
" style="fill:#1f77b4;"/>
   </g>
   <g id="patch_13">
    <path clip-path="url(#p0f133c748b)" d="M 107.244331 284.258625 
L 109.32545 284.258625 
L 109.32545 283.057155 
L 107.244331 283.057155 
z
" style="fill:#1f77b4;"/>
   </g>
   <g id="patch_14">
    <path clip-path="url(#p0f133c748b)" d="M 109.84573 284.258625 
L 111.926849 284.258625 
L 111.926849 282.990055 
L 109.84573 282.990055 
z
" style="fill:#1f77b4;"/>
   </g>
   <g id="patch_15">
    <path clip-path="url(#p0f133c748b)" d="M 112.447128 284.258625 
L 114.528247 284.258625 
L 114.528247 282.914273 
L 112.447128 282.914273 
z
" style="fill:#1f77b4;"/>
   </g>
   <g id="patch_16">
    <path clip-path="url(#p0f133c748b)" d="M 115.048527 284.258625 
L 117.129646 284.258625 
L 117.129646 282.883486 
L 115.048527 282.883486 
z
" style="fill:#1f77b4;"/>
   </g>
   <g id="patch_17">
    <path clip-path="url(#p0f133c748b)" d="M 117.649926 284.258625 
L 119.731045 284.258625 
L 119.731045 282.801388 
L 117.649926 282.801388 
z
" style="fill:#1f77b4;"/>
   </g>
   <g id="patch_18">
    <path clip-path="url(#p0f133c748b)" d="M 120.251324 284.258625 
L 122.332443 284.258625 
L 122.332443 282.766655 
L 120.251324 282.766655 
z
" style="fill:#1f77b4;"/>
   </g>
   <g id="patch_19">
    <path clip-path="url(#p0f133c748b)" d="M 122.852723 284.258625 
L 124.933842 284.258625 
L 124.933842 282.634035 
L 122.852723 282.634035 
z
" style="fill:#1f77b4;"/>
   </g>
   <g id="patch_20">
    <path clip-path="url(#p0f133c748b)" d="M 125.454122 284.258625 
L 127.53524 284.258625 
L 127.53524 282.514835 
L 125.454122 282.514835 
z
" style="fill:#1f77b4;"/>
   </g>
   <g id="patch_21">
    <path clip-path="url(#p0f133c748b)" d="M 128.05552 284.258625 
L 130.136639 284.258625 
L 130.136639 282.412213 
L 128.05552 282.412213 
z
" style="fill:#1f77b4;"/>
   </g>
   <g id="patch_22">
    <path clip-path="url(#p0f133c748b)" d="M 130.656919 284.258625 
L 132.738038 284.258625 
L 132.738038 282.271699 
L 130.656919 282.271699 
z
" style="fill:#1f77b4;"/>
   </g>
   <g id="patch_23">
    <path clip-path="url(#p0f133c748b)" d="M 133.258317 284.258625 
L 135.339436 284.258625 
L 135.339436 282.195917 
L 133.258317 282.195917 
z
" style="fill:#1f77b4;"/>
   </g>
   <g id="patch_24">
    <path clip-path="url(#p0f133c748b)" d="M 135.859716 284.258625 
L 137.940835 284.258625 
L 137.940835 282.139869 
L 135.859716 282.139869 
z
" style="fill:#1f77b4;"/>
   </g>
   <g id="patch_25">
    <path clip-path="url(#p0f133c748b)" d="M 138.461115 284.258625 
L 140.542233 284.258625 
L 140.542233 279.112511 
L 138.461115 279.112511 
z
" style="fill:#1f77b4;"/>
   </g>
   <g id="patch_26">
    <path clip-path="url(#p0f133c748b)" d="M 141.062513 284.258625 
L 143.143632 284.258625 
L 143.143632 278.908845 
L 141.062513 278.908845 
z
" style="fill:#1f77b4;"/>
   </g>
   <g id="patch_27">
    <path clip-path="url(#p0f133c748b)" d="M 143.663912 284.258625 
L 145.745031 284.258625 
L 145.745031 278.357053 
L 143.663912 278.357053 
z
" style="fill:#1f77b4;"/>
   </g>
   <g id="patch_28">
    <path clip-path="url(#p0f133c748b)" d="M 146.26531 284.258625 
L 148.346429 284.258625 
L 148.346429 277.920513 
L 146.26531 277.920513 
z
" style="fill:#1f77b4;"/>
   </g>
   <g id="patch_29">
    <path clip-path="url(#p0f133c748b)" d="M 148.866709 284.258625 
L 150.947828 284.258625 
L 150.947828 277.804471 
L 148.866709 277.804471 
z
" style="fill:#1f77b4;"/>
   </g>
   <g id="patch_30">
    <path clip-path="url(#p0f133c748b)" d="M 151.468108 284.258625 
L 153.549226 284.258625 
L 153.549226 277.717637 
L 151.468108 277.717637 
z
" style="fill:#1f77b4;"/>
   </g>
   <g id="patch_31">
    <path clip-path="url(#p0f133c748b)" d="M 154.069506 284.258625 
L 156.150625 284.258625 
L 156.150625 276.680362 
L 154.069506 276.680362 
z
" style="fill:#1f77b4;"/>
   </g>
   <g id="patch_32">
    <path clip-path="url(#p0f133c748b)" d="M 156.670905 284.258625 
L 158.752024 284.258625 
L 158.752024 276.345656 
L 156.670905 276.345656 
z
" style="fill:#1f77b4;"/>
   </g>
   <g id="patch_33">
    <path clip-path="url(#p0f133c748b)" d="M 159.272303 284.258625 
L 161.353422 284.258625 
L 161.353422 276.202774 
L 159.272303 276.202774 
z
" style="fill:#1f77b4;"/>
   </g>
   <g id="patch_34">
    <path clip-path="url(#p0f133c748b)" d="M 161.873702 284.258625 
L 163.954821 284.258625 
L 163.954821 274.738432 
L 161.873702 274.738432 
z
" style="fill:#1f77b4;"/>
   </g>
   <g id="patch_35">
    <path clip-path="url(#p0f133c748b)" d="M 164.475101 284.258625 
L 166.556219 284.258625 
L 166.556219 274.060336 
L 164.475101 274.060336 
z
" style="fill:#1f77b4;"/>
   </g>
   <g id="patch_36">
    <path clip-path="url(#p0f133c748b)" d="M 167.076499 284.258625 
L 169.157618 284.258625 
L 169.157618 273.97587 
L 167.076499 273.97587 
z
" style="fill:#1f77b4;"/>
   </g>
   <g id="patch_37">
    <path clip-path="url(#p0f133c748b)" d="M 169.677898 284.258625 
L 171.759017 284.258625 
L 171.759017 273.942715 
L 169.677898 273.942715 
z
" style="fill:#1f77b4;"/>
   </g>
   <g id="patch_38">
    <path clip-path="url(#p0f133c748b)" d="M 172.279296 284.258625 
L 174.360415 284.258625 
L 174.360415 272.29839 
L 172.279296 272.29839 
z
" style="fill:#1f77b4;"/>
   </g>
   <g id="patch_39">
    <path clip-path="url(#p0f133c748b)" d="M 174.880695 284.258625 
L 176.961814 284.258625 
L 176.961814 272.138141 
L 174.880695 272.138141 
z
" style="fill:#1f77b4;"/>
   </g>
   <g id="patch_40">
    <path clip-path="url(#p0f133c748b)" d="M 177.482094 284.258625 
L 179.563212 284.258625 
L 179.563212 272.49574 
L 177.482094 272.49574 
z
" style="fill:#1f77b4;"/>
   </g>
   <g id="patch_41">
    <path clip-path="url(#p0f133c748b)" d="M 180.083492 284.258625 
L 182.164611 284.258625 
L 182.164611 269.383127 
L 180.083492 269.383127 
z
" style="fill:#1f77b4;"/>
   </g>
   <g id="patch_42">
    <path clip-path="url(#p0f133c748b)" d="M 182.684891 284.258625 
L 184.76601 284.258625 
L 184.76601 269.289188 
L 182.684891 269.289188 
z
" style="fill:#1f77b4;"/>
   </g>
   <g id="patch_43">
    <path clip-path="url(#p0f133c748b)" d="M 185.286289 284.258625 
L 187.367408 284.258625 
L 187.367408 268.290594 
L 185.286289 268.290594 
z
" style="fill:#1f77b4;"/>
   </g>
   <g id="patch_44">
    <path clip-path="url(#p0f133c748b)" d="M 187.887688 284.258625 
L 189.968807 284.258625 
L 189.968807 268.202181 
L 187.887688 268.202181 
z
" style="fill:#1f77b4;"/>
   </g>
   <g id="patch_45">
    <path clip-path="url(#p0f133c748b)" d="M 190.489087 284.258625 
L 192.570205 284.258625 
L 192.570205 264.973525 
L 190.489087 264.973525 
z
" style="fill:#1f77b4;"/>
   </g>
   <g id="patch_46">
    <path clip-path="url(#p0f133c748b)" d="M 193.090485 284.258625 
L 195.171604 284.258625 
L 195.171604 265.691092 
L 193.090485 265.691092 
z
" style="fill:#1f77b4;"/>
   </g>
   <g id="patch_47">
    <path clip-path="url(#p0f133c748b)" d="M 195.691884 284.258625 
L 197.773003 284.258625 
L 197.773003 264.388578 
L 195.691884 264.388578 
z
" style="fill:#1f77b4;"/>
   </g>
   <g id="patch_48">
    <path clip-path="url(#p0f133c748b)" d="M 198.293282 284.258625 
L 200.374401 284.258625 
L 200.374401 262.940814 
L 198.293282 262.940814 
z
" style="fill:#1f77b4;"/>
   </g>
   <g id="patch_49">
    <path clip-path="url(#p0f133c748b)" d="M 200.894681 284.258625 
L 202.9758 284.258625 
L 202.9758 261.789076 
L 200.894681 261.789076 
z
" style="fill:#1f77b4;"/>
   </g>
   <g id="patch_50">
    <path clip-path="url(#p0f133c748b)" d="M 203.49608 284.258625 
L 205.577198 284.258625 
L 205.577198 261.555413 
L 203.49608 261.555413 
z
" style="fill:#1f77b4;"/>
   </g>
   <g id="patch_51">
    <path clip-path="url(#p0f133c748b)" d="M 206.097478 284.258625 
L 208.178597 284.258625 
L 208.178597 261.392796 
L 206.097478 261.392796 
z
" style="fill:#1f77b4;"/>
   </g>
   <g id="patch_52">
    <path clip-path="url(#p0f133c748b)" d="M 208.698877 284.258625 
L 210.779996 284.258625 
L 210.779996 258.605416 
L 208.698877 258.605416 
z
" style="fill:#1f77b4;"/>
   </g>
   <g id="patch_53">
    <path clip-path="url(#p0f133c748b)" d="M 211.300275 284.258625 
L 213.381394 284.258625 
L 213.381394 257.017928 
L 211.300275 257.017928 
z
" style="fill:#1f77b4;"/>
   </g>
   <g id="patch_54">
    <path clip-path="url(#p0f133c748b)" d="M 213.901674 284.258625 
L 215.982793 284.258625 
L 215.982793 257.016349 
L 213.901674 257.016349 
z
" style="fill:#1f77b4;"/>
   </g>
   <g id="patch_55">
    <path clip-path="url(#p0f133c748b)" d="M 216.503073 284.258625 
L 218.584191 284.258625 
L 218.584191 253.119859 
L 216.503073 253.119859 
z
" style="fill:#1f77b4;"/>
   </g>
   <g id="patch_56">
    <path clip-path="url(#p0f133c748b)" d="M 219.104471 284.258625 
L 221.18559 284.258625 
L 221.18559 250.407472 
L 219.104471 250.407472 
z
" style="fill:#1f77b4;"/>
   </g>
   <g id="patch_57">
    <path clip-path="url(#p0f133c748b)" d="M 221.70587 284.258625 
L 223.786989 284.258625 
L 223.786989 249.020492 
L 221.70587 249.020492 
z
" style="fill:#1f77b4;"/>
   </g>
   <g id="patch_58">
    <path clip-path="url(#p0f133c748b)" d="M 224.307268 284.258625 
L 226.388387 284.258625 
L 226.388387 247.810339 
L 224.307268 247.810339 
z
" style="fill:#1f77b4;"/>
   </g>
   <g id="patch_59">
    <path clip-path="url(#p0f133c748b)" d="M 226.908667 284.258625 
L 228.989786 284.258625 
L 228.989786 240.59599 
L 226.908667 240.59599 
z
" style="fill:#1f77b4;"/>
   </g>
   <g id="patch_60">
    <path clip-path="url(#p0f133c748b)" d="M 229.510066 284.258625 
L 231.591184 284.258625 
L 231.591184 235.711958 
L 229.510066 235.711958 
z
" style="fill:#1f77b4;"/>
   </g>
   <g id="patch_61">
    <path clip-path="url(#p0f133c748b)" d="M 232.111464 284.258625 
L 234.192583 284.258625 
L 234.192583 233.431374 
L 232.111464 233.431374 
z
" style="fill:#1f77b4;"/>
   </g>
   <g id="patch_62">
    <path clip-path="url(#p0f133c748b)" d="M 234.712863 284.258625 
L 236.793982 284.258625 
L 236.793982 229.970634 
L 234.712863 229.970634 
z
" style="fill:#1f77b4;"/>
   </g>
   <g id="patch_63">
    <path clip-path="url(#p0f133c748b)" d="M 237.314261 284.258625 
L 239.39538 284.258625 
L 239.39538 225.139492 
L 237.314261 225.139492 
z
" style="fill:#1f77b4;"/>
   </g>
   <g id="patch_64">
    <path clip-path="url(#p0f133c748b)" d="M 239.91566 284.258625 
L 241.996779 284.258625 
L 241.996779 223.17388 
L 239.91566 223.17388 
z
" style="fill:#1f77b4;"/>
   </g>
   <g id="patch_65">
    <path clip-path="url(#p0f133c748b)" d="M 242.517059 284.258625 
L 244.598177 284.258625 
L 244.598177 222.131079 
L 242.517059 222.131079 
z
" style="fill:#1f77b4;"/>
   </g>
   <g id="patch_66">
    <path clip-path="url(#p0f133c748b)" d="M 245.118457 284.258625 
L 247.199576 284.258625 
L 247.199576 213.566853 
L 245.118457 213.566853 
z
" style="fill:#1f77b4;"/>
   </g>
   <g id="patch_67">
    <path clip-path="url(#p0f133c748b)" d="M 247.719856 284.258625 
L 249.800975 284.258625 
L 249.800975 209.868503 
L 247.719856 209.868503 
z
" style="fill:#1f77b4;"/>
   </g>
   <g id="patch_68">
    <path clip-path="url(#p0f133c748b)" d="M 250.321254 284.258625 
L 252.402373 284.258625 
L 252.402373 204.763438 
L 250.321254 204.763438 
z
" style="fill:#1f77b4;"/>
   </g>
   <g id="patch_69">
    <path clip-path="url(#p0f133c748b)" d="M 252.922653 284.258625 
L 255.003772 284.258625 
L 255.003772 200.288316 
L 252.922653 200.288316 
z
" style="fill:#1f77b4;"/>
   </g>
   <g id="patch_70">
    <path clip-path="url(#p0f133c748b)" d="M 255.524052 284.258625 
L 257.60517 284.258625 
L 257.60517 196.378406 
L 255.524052 196.378406 
z
" style="fill:#1f77b4;"/>
   </g>
   <g id="patch_71">
    <path clip-path="url(#p0f133c748b)" d="M 258.12545 284.258625 
L 260.206569 284.258625 
L 260.206569 195.201407 
L 258.12545 195.201407 
z
" style="fill:#1f77b4;"/>
   </g>
   <g id="patch_72">
    <path clip-path="url(#p0f133c748b)" d="M 260.726849 284.258625 
L 262.807968 284.258625 
L 262.807968 192.115633 
L 260.726849 192.115633 
z
" style="fill:#1f77b4;"/>
   </g>
   <g id="patch_73">
    <path clip-path="url(#p0f133c748b)" d="M 263.328247 284.258625 
L 265.409366 284.258625 
L 265.409366 185.938559 
L 263.328247 185.938559 
z
" style="fill:#1f77b4;"/>
   </g>
   <g id="patch_74">
    <path clip-path="url(#p0f133c748b)" d="M 265.929646 284.258625 
L 268.010765 284.258625 
L 268.010765 181.172937 
L 265.929646 181.172937 
z
" style="fill:#1f77b4;"/>
   </g>
   <g id="patch_75">
    <path clip-path="url(#p0f133c748b)" d="M 268.531045 284.258625 
L 270.612163 284.258625 
L 270.612163 176.913322 
L 268.531045 176.913322 
z
" style="fill:#1f77b4;"/>
   </g>
   <g id="patch_76">
    <path clip-path="url(#p0f133c748b)" d="M 271.132443 284.258625 
L 273.213562 284.258625 
L 273.213562 172.479249 
L 271.132443 172.479249 
z
" style="fill:#1f77b4;"/>
   </g>
   <g id="patch_77">
    <path clip-path="url(#p0f133c748b)" d="M 273.733842 284.258625 
L 275.814961 284.258625 
L 275.814961 167.858088 
L 273.733842 167.858088 
z
" style="fill:#1f77b4;"/>
   </g>
   <g id="patch_78">
    <path clip-path="url(#p0f133c748b)" d="M 276.33524 284.258625 
L 278.416359 284.258625 
L 278.416359 166.579256 
L 276.33524 166.579256 
z
" style="fill:#1f77b4;"/>
   </g>
   <g id="patch_79">
    <path clip-path="url(#p0f133c748b)" d="M 278.936639 284.258625 
L 281.017758 284.258625 
L 281.017758 165.302003 
L 278.936639 165.302003 
z
" style="fill:#1f77b4;"/>
   </g>
   <g id="patch_80">
    <path clip-path="url(#p0f133c748b)" d="M 281.538038 284.258625 
L 283.619156 284.258625 
L 283.619156 157.523232 
L 281.538038 157.523232 
z
" style="fill:#1f77b4;"/>
   </g>
   <g id="patch_81">
    <path clip-path="url(#p0f133c748b)" d="M 284.139436 284.258625 
L 286.220555 284.258625 
L 286.220555 154.595338 
L 284.139436 154.595338 
z
" style="fill:#1f77b4;"/>
   </g>
   <g id="patch_82">
    <path clip-path="url(#p0f133c748b)" d="M 286.740835 284.258625 
L 288.821954 284.258625 
L 288.821954 153.526487 
L 286.740835 153.526487 
z
" style="fill:#1f77b4;"/>
   </g>
   <g id="patch_83">
    <path clip-path="url(#p0f133c748b)" d="M 289.342233 284.258625 
L 291.423352 284.258625 
L 291.423352 146.784202 
L 289.342233 146.784202 
z
" style="fill:#1f77b4;"/>
   </g>
   <g id="patch_84">
    <path clip-path="url(#p0f133c748b)" d="M 291.943632 284.258625 
L 294.024751 284.258625 
L 294.024751 140.96078 
L 291.943632 140.96078 
z
" style="fill:#1f77b4;"/>
   </g>
   <g id="patch_85">
    <path clip-path="url(#p0f133c748b)" d="M 294.545031 284.258625 
L 296.626149 284.258625 
L 296.626149 139.599851 
L 294.545031 139.599851 
z
" style="fill:#1f77b4;"/>
   </g>
   <g id="patch_86">
    <path clip-path="url(#p0f133c748b)" d="M 297.146429 284.258625 
L 299.227548 284.258625 
L 299.227548 138.545999 
L 297.146429 138.545999 
z
" style="fill:#1f77b4;"/>
   </g>
   <g id="patch_87">
    <path clip-path="url(#p0f133c748b)" d="M 299.747828 284.258625 
L 301.828947 284.258625 
L 301.828947 137.159019 
L 299.747828 137.159019 
z
" style="fill:#1f77b4;"/>
   </g>
   <g id="patch_88">
    <path clip-path="url(#p0f133c748b)" d="M 302.349226 284.258625 
L 304.430345 284.258625 
L 304.430345 135.119203 
L 302.349226 135.119203 
z
" style="fill:#1f77b4;"/>
   </g>
   <g id="patch_89">
    <path clip-path="url(#p0f133c748b)" d="M 304.950625 284.258625 
L 307.031744 284.258625 
L 307.031744 134.248492 
L 304.950625 134.248492 
z
" style="fill:#1f77b4;"/>
   </g>
   <g id="patch_90">
    <path clip-path="url(#p0f133c748b)" d="M 307.552024 284.258625 
L 309.633142 284.258625 
L 309.633142 124.789083 
L 307.552024 124.789083 
z
" style="fill:#1f77b4;"/>
   </g>
   <g id="patch_91">
    <path clip-path="url(#p0f133c748b)" d="M 310.153422 284.258625 
L 312.234541 284.258625 
L 312.234541 116.90769 
L 310.153422 116.90769 
z
" style="fill:#1f77b4;"/>
   </g>
   <g id="patch_92">
    <path clip-path="url(#p0f133c748b)" d="M 312.754821 284.258625 
L 314.83594 284.258625 
L 314.83594 115.12443 
L 312.754821 115.12443 
z
" style="fill:#1f77b4;"/>
   </g>
   <g id="patch_93">
    <path clip-path="url(#p0f133c748b)" d="M 315.356219 284.258625 
L 317.437338 284.258625 
L 317.437338 112.00787 
L 315.356219 112.00787 
z
" style="fill:#1f77b4;"/>
   </g>
   <g id="patch_94">
    <path clip-path="url(#p0f133c748b)" d="M 317.957618 284.258625 
L 320.038737 284.258625 
L 320.038737 107.709574 
L 317.957618 107.709574 
z
" style="fill:#1f77b4;"/>
   </g>
   <g id="patch_95">
    <path clip-path="url(#p0f133c748b)" d="M 320.559017 284.258625 
L 322.640135 284.258625 
L 322.640135 107.695364 
L 320.559017 107.695364 
z
" style="fill:#1f77b4;"/>
   </g>
   <g id="patch_96">
    <path clip-path="url(#p0f133c748b)" d="M 323.160415 284.258625 
L 325.241534 284.258625 
L 325.241534 100.214198 
L 323.160415 100.214198 
z
" style="fill:#1f77b4;"/>
   </g>
   <g id="patch_97">
    <path clip-path="url(#p0f133c748b)" d="M 325.761814 284.258625 
L 327.842933 284.258625 
L 327.842933 101.999826 
L 325.761814 101.999826 
z
" style="fill:#1f77b4;"/>
   </g>
   <g id="patch_98">
    <path clip-path="url(#p0f133c748b)" d="M 328.363212 284.258625 
L 330.444331 284.258625 
L 330.444331 94.511555 
L 328.363212 94.511555 
z
" style="fill:#1f77b4;"/>
   </g>
   <g id="patch_99">
    <path clip-path="url(#p0f133c748b)" d="M 330.964611 284.258625 
L 333.04573 284.258625 
L 333.04573 91.287636 
L 330.964611 91.287636 
z
" style="fill:#1f77b4;"/>
   </g>
   <g id="patch_100">
    <path clip-path="url(#p0f133c748b)" d="M 333.56601 284.258625 
L 335.647128 284.258625 
L 335.647128 86.788832 
L 333.56601 86.788832 
z
" style="fill:#1f77b4;"/>
   </g>
   <g id="patch_101">
    <path clip-path="url(#p0f133c748b)" d="M 336.167408 284.258625 
L 338.248527 284.258625 
L 338.248527 82.428173 
L 336.167408 82.428173 
z
" style="fill:#1f77b4;"/>
   </g>
   <g id="patch_102">
    <path clip-path="url(#p0f133c748b)" d="M 338.768807 284.258625 
L 340.849926 284.258625 
L 340.849926 80.374148 
L 338.768807 80.374148 
z
" style="fill:#1f77b4;"/>
   </g>
   <g id="patch_103">
    <path clip-path="url(#p0f133c748b)" d="M 341.370205 284.258625 
L 343.451324 284.258625 
L 343.451324 77.773068 
L 341.370205 77.773068 
z
" style="fill:#1f77b4;"/>
   </g>
   <g id="patch_104">
    <path clip-path="url(#p0f133c748b)" d="M 343.971604 284.258625 
L 346.052723 284.258625 
L 346.052723 74.670716 
L 343.971604 74.670716 
z
" style="fill:#1f77b4;"/>
   </g>
   <g id="patch_105">
    <path clip-path="url(#p0f133c748b)" d="M 346.573003 284.258625 
L 348.654122 284.258625 
L 348.654122 72.322244 
L 346.573003 72.322244 
z
" style="fill:#1f77b4;"/>
   </g>
   <g id="patch_106">
    <path clip-path="url(#p0f133c748b)" d="M 349.174401 284.258625 
L 351.25552 284.258625 
L 351.25552 70.171912 
L 349.174401 70.171912 
z
" style="fill:#1f77b4;"/>
   </g>
   <g id="patch_107">
    <path clip-path="url(#p0f133c748b)" d="M 351.7758 284.258625 
L 353.856919 284.258625 
L 353.856919 68.998071 
L 351.7758 68.998071 
z
" style="fill:#1f77b4;"/>
   </g>
   <g id="patch_108">
    <path clip-path="url(#p0f133c748b)" d="M 354.377198 284.258625 
L 356.458317 284.258625 
L 356.458317 66.249372 
L 354.377198 66.249372 
z
" style="fill:#1f77b4;"/>
   </g>
   <g id="patch_109">
    <path clip-path="url(#p0f133c748b)" d="M 356.978597 284.258625 
L 359.059716 284.258625 
L 359.059716 64.297969 
L 356.978597 64.297969 
z
" style="fill:#1f77b4;"/>
   </g>
   <g id="patch_110">
    <path clip-path="url(#p0f133c748b)" d="M 359.579996 284.258625 
L 361.661115 284.258625 
L 361.661115 62.205263 
L 359.579996 62.205263 
z
" style="fill:#1f77b4;"/>
   </g>
   <g id="patch_111">
    <path clip-path="url(#p0f133c748b)" d="M 362.181394 284.258625 
L 364.262513 284.258625 
L 364.262513 59.466037 
L 362.181394 59.466037 
z
" style="fill:#1f77b4;"/>
   </g>
   <g id="patch_112">
    <path clip-path="url(#p0f133c748b)" d="M 364.782793 284.258625 
L 366.863912 284.258625 
L 366.863912 57.104935 
L 364.782793 57.104935 
z
" style="fill:#1f77b4;"/>
   </g>
   <g id="patch_113">
    <path clip-path="url(#p0f133c748b)" d="M 367.384191 284.258625 
L 369.46531 284.258625 
L 369.46531 54.987757 
L 367.384191 54.987757 
z
" style="fill:#1f77b4;"/>
   </g>
   <g id="patch_114">
    <path clip-path="url(#p0f133c748b)" d="M 369.98559 284.258625 
L 372.066709 284.258625 
L 372.066709 53.303962 
L 369.98559 53.303962 
z
" style="fill:#1f77b4;"/>
   </g>
   <g id="patch_115">
    <path clip-path="url(#p0f133c748b)" d="M 372.586989 284.258625 
L 374.668108 284.258625 
L 374.668108 50.293182 
L 372.586989 50.293182 
z
" style="fill:#1f77b4;"/>
   </g>
   <g id="patch_116">
    <path clip-path="url(#p0f133c748b)" d="M 375.188387 284.258625 
L 377.269506 284.258625 
L 377.269506 47.219249 
L 375.188387 47.219249 
z
" style="fill:#1f77b4;"/>
   </g>
   <g id="patch_117">
    <path clip-path="url(#p0f133c748b)" d="M 377.789786 284.258625 
L 379.870905 284.258625 
L 379.870905 44.570014 
L 377.789786 44.570014 
z
" style="fill:#1f77b4;"/>
   </g>
   <g id="patch_118">
    <path clip-path="url(#p0f133c748b)" d="M 380.391184 284.258625 
L 382.472303 284.258625 
L 382.472303 41.547393 
L 380.391184 41.547393 
z
" style="fill:#1f77b4;"/>
   </g>
   <g id="patch_119">
    <path clip-path="url(#p0f133c748b)" d="M 382.992583 284.258625 
L 385.073702 284.258625 
L 385.073702 38.401624 
L 382.992583 38.401624 
z
" style="fill:#1f77b4;"/>
   </g>
   <g id="patch_120">
    <path clip-path="url(#p0f133c748b)" d="M 385.593982 284.258625 
L 387.675101 284.258625 
L 387.675101 36.004999 
L 385.593982 36.004999 
z
" style="fill:#1f77b4;"/>
   </g>
   <g id="patch_121">
    <path clip-path="url(#p0f133c748b)" d="M 388.19538 284.258625 
L 390.276499 284.258625 
L 390.276499 34.138062 
L 388.19538 34.138062 
z
" style="fill:#1f77b4;"/>
   </g>
   <g id="patch_122">
    <path clip-path="url(#p0f133c748b)" d="M 390.796779 284.258625 
L 392.877898 284.258625 
L 392.877898 30.818625 
L 390.796779 30.818625 
z
" style="fill:#1f77b4;"/>
   </g>
   <g id="patch_123">
    <path clip-path="url(#p0f133c748b)" d="M 68.223352 284.258625 
L 70.304471 284.258625 
L 70.304471 284.23889 
L 68.223352 284.23889 
z
" style="fill:#ff7f0e;"/>
   </g>
   <g id="patch_124">
    <path clip-path="url(#p0f133c748b)" d="M 70.824751 284.258625 
L 72.90587 284.258625 
L 72.90587 284.23889 
L 70.824751 284.23889 
z
" style="fill:#ff7f0e;"/>
   </g>
   <g id="patch_125">
    <path clip-path="url(#p0f133c748b)" d="M 78.628947 284.258625 
L 80.710066 284.258625 
L 80.710066 284.238101 
L 78.628947 284.238101 
z
" style="fill:#ff7f0e;"/>
   </g>
   <g id="patch_126">
    <path clip-path="url(#p0f133c748b)" d="M 83.831744 284.258625 
L 85.912863 284.258625 
L 85.912863 284.236522 
L 83.831744 284.236522 
z
" style="fill:#ff7f0e;"/>
   </g>
   <g id="patch_127">
    <path clip-path="url(#p0f133c748b)" d="M 86.433142 284.258625 
L 88.514261 284.258625 
L 88.514261 284.235732 
L 86.433142 284.235732 
z
" style="fill:#ff7f0e;"/>
   </g>
   <g id="patch_128">
    <path clip-path="url(#p0f133c748b)" d="M 89.034541 284.258625 
L 91.11566 284.258625 
L 91.11566 284.232575 
L 89.034541 284.232575 
z
" style="fill:#ff7f0e;"/>
   </g>
   <g id="patch_129">
    <path clip-path="url(#p0f133c748b)" d="M 96.838737 284.258625 
L 98.919856 284.258625 
L 98.919856 284.21205 
L 96.838737 284.21205 
z
" style="fill:#ff7f0e;"/>
   </g>
   <g id="patch_130">
    <path clip-path="url(#p0f133c748b)" d="M 99.440135 284.258625 
L 101.521254 284.258625 
L 101.521254 284.206524 
L 99.440135 284.206524 
z
" style="fill:#ff7f0e;"/>
   </g>
   <g id="patch_131">
    <path clip-path="url(#p0f133c748b)" d="M 102.041534 284.258625 
L 104.122653 284.258625 
L 104.122653 284.200999 
L 102.041534 284.200999 
z
" style="fill:#ff7f0e;"/>
   </g>
   <g id="patch_132">
    <path clip-path="url(#p0f133c748b)" d="M 104.642933 284.258625 
L 106.724052 284.258625 
L 106.724052 284.192315 
L 104.642933 284.192315 
z
" style="fill:#ff7f0e;"/>
   </g>
   <g id="patch_133">
    <path clip-path="url(#p0f133c748b)" d="M 107.244331 284.258625 
L 109.32545 284.258625 
L 109.32545 284.185211 
L 107.244331 284.185211 
z
" style="fill:#ff7f0e;"/>
   </g>
   <g id="patch_134">
    <path clip-path="url(#p0f133c748b)" d="M 109.84573 284.258625 
L 111.926849 284.258625 
L 111.926849 284.175738 
L 109.84573 284.175738 
z
" style="fill:#ff7f0e;"/>
   </g>
   <g id="patch_135">
    <path clip-path="url(#p0f133c748b)" d="M 112.447128 284.258625 
L 114.528247 284.258625 
L 114.528247 284.154424 
L 112.447128 284.154424 
z
" style="fill:#ff7f0e;"/>
   </g>
   <g id="patch_136">
    <path clip-path="url(#p0f133c748b)" d="M 115.048527 284.258625 
L 117.129646 284.258625 
L 117.129646 284.144951 
L 115.048527 284.144951 
z
" style="fill:#ff7f0e;"/>
   </g>
   <g id="patch_137">
    <path clip-path="url(#p0f133c748b)" d="M 117.649926 284.258625 
L 119.731045 284.258625 
L 119.731045 284.135478 
L 117.649926 284.135478 
z
" style="fill:#ff7f0e;"/>
   </g>
   <g id="patch_138">
    <path clip-path="url(#p0f133c748b)" d="M 120.251324 284.258625 
L 122.332443 284.258625 
L 122.332443 284.129163 
L 120.251324 284.129163 
z
" style="fill:#ff7f0e;"/>
   </g>
   <g id="patch_139">
    <path clip-path="url(#p0f133c748b)" d="M 122.852723 284.258625 
L 124.933842 284.258625 
L 124.933842 284.111796 
L 122.852723 284.111796 
z
" style="fill:#ff7f0e;"/>
   </g>
   <g id="patch_140">
    <path clip-path="url(#p0f133c748b)" d="M 125.454122 284.258625 
L 127.53524 284.258625 
L 127.53524 284.092851 
L 125.454122 284.092851 
z
" style="fill:#ff7f0e;"/>
   </g>
   <g id="patch_141">
    <path clip-path="url(#p0f133c748b)" d="M 128.05552 284.258625 
L 130.136639 284.258625 
L 130.136639 284.077062 
L 128.05552 284.077062 
z
" style="fill:#ff7f0e;"/>
   </g>
   <g id="patch_142">
    <path clip-path="url(#p0f133c748b)" d="M 130.656919 284.258625 
L 132.738038 284.258625 
L 132.738038 284.069958 
L 130.656919 284.069958 
z
" style="fill:#ff7f0e;"/>
   </g>
   <g id="patch_143">
    <path clip-path="url(#p0f133c748b)" d="M 133.258317 284.258625 
L 135.339436 284.258625 
L 135.339436 284.058117 
L 133.258317 284.058117 
z
" style="fill:#ff7f0e;"/>
   </g>
   <g id="patch_144">
    <path clip-path="url(#p0f133c748b)" d="M 135.859716 284.258625 
L 137.940835 284.258625 
L 137.940835 284.047065 
L 135.859716 284.047065 
z
" style="fill:#ff7f0e;"/>
   </g>
   <g id="patch_145">
    <path clip-path="url(#p0f133c748b)" d="M 138.461115 284.258625 
L 140.542233 284.258625 
L 140.542233 284.034435 
L 138.461115 284.034435 
z
" style="fill:#ff7f0e;"/>
   </g>
   <g id="patch_146">
    <path clip-path="url(#p0f133c748b)" d="M 141.062513 284.258625 
L 143.143632 284.258625 
L 143.143632 284.008384 
L 141.062513 284.008384 
z
" style="fill:#ff7f0e;"/>
   </g>
   <g id="patch_147">
    <path clip-path="url(#p0f133c748b)" d="M 143.663912 284.258625 
L 145.745031 284.258625 
L 145.745031 283.983913 
L 143.663912 283.983913 
z
" style="fill:#ff7f0e;"/>
   </g>
   <g id="patch_148">
    <path clip-path="url(#p0f133c748b)" d="M 146.26531 284.258625 
L 148.346429 284.258625 
L 148.346429 283.937338 
L 146.26531 283.937338 
z
" style="fill:#ff7f0e;"/>
   </g>
   <g id="patch_149">
    <path clip-path="url(#p0f133c748b)" d="M 148.866709 284.258625 
L 150.947828 284.258625 
L 150.947828 283.900236 
L 148.866709 283.900236 
z
" style="fill:#ff7f0e;"/>
   </g>
   <g id="patch_150">
    <path clip-path="url(#p0f133c748b)" d="M 151.468108 284.258625 
L 153.549226 284.258625 
L 153.549226 283.874186 
L 151.468108 283.874186 
z
" style="fill:#ff7f0e;"/>
   </g>
   <g id="patch_151">
    <path clip-path="url(#p0f133c748b)" d="M 154.069506 284.258625 
L 156.150625 284.258625 
L 156.150625 283.853662 
L 154.069506 283.853662 
z
" style="fill:#ff7f0e;"/>
   </g>
   <g id="patch_152">
    <path clip-path="url(#p0f133c748b)" d="M 156.670905 284.258625 
L 158.752024 284.258625 
L 158.752024 283.811034 
L 156.670905 283.811034 
z
" style="fill:#ff7f0e;"/>
   </g>
   <g id="patch_153">
    <path clip-path="url(#p0f133c748b)" d="M 159.272303 284.258625 
L 161.353422 284.258625 
L 161.353422 283.769985 
L 159.272303 283.769985 
z
" style="fill:#ff7f0e;"/>
   </g>
   <g id="patch_154">
    <path clip-path="url(#p0f133c748b)" d="M 161.873702 284.258625 
L 163.954821 284.258625 
L 163.954821 283.726568 
L 161.873702 283.726568 
z
" style="fill:#ff7f0e;"/>
   </g>
   <g id="patch_155">
    <path clip-path="url(#p0f133c748b)" d="M 164.475101 284.258625 
L 166.556219 284.258625 
L 166.556219 283.694992 
L 164.475101 283.694992 
z
" style="fill:#ff7f0e;"/>
   </g>
   <g id="patch_156">
    <path clip-path="url(#p0f133c748b)" d="M 167.076499 284.258625 
L 169.157618 284.258625 
L 169.157618 283.645259 
L 167.076499 283.645259 
z
" style="fill:#ff7f0e;"/>
   </g>
   <g id="patch_157">
    <path clip-path="url(#p0f133c748b)" d="M 169.677898 284.258625 
L 171.759017 284.258625 
L 171.759017 283.619998 
L 169.677898 283.619998 
z
" style="fill:#ff7f0e;"/>
   </g>
   <g id="patch_158">
    <path clip-path="url(#p0f133c748b)" d="M 172.279296 284.258625 
L 174.360415 284.258625 
L 174.360415 283.608157 
L 172.279296 283.608157 
z
" style="fill:#ff7f0e;"/>
   </g>
   <g id="patch_159">
    <path clip-path="url(#p0f133c748b)" d="M 174.880695 284.258625 
L 176.961814 284.258625 
L 176.961814 283.573424 
L 174.880695 283.573424 
z
" style="fill:#ff7f0e;"/>
   </g>
   <g id="patch_160">
    <path clip-path="url(#p0f133c748b)" d="M 177.482094 284.258625 
L 179.563212 284.258625 
L 179.563212 283.542637 
L 177.482094 283.542637 
z
" style="fill:#ff7f0e;"/>
   </g>
   <g id="patch_161">
    <path clip-path="url(#p0f133c748b)" d="M 180.083492 284.258625 
L 182.164611 284.258625 
L 182.164611 283.514219 
L 180.083492 283.514219 
z
" style="fill:#ff7f0e;"/>
   </g>
   <g id="patch_162">
    <path clip-path="url(#p0f133c748b)" d="M 182.684891 284.258625 
L 184.76601 284.258625 
L 184.76601 283.47238 
L 182.684891 283.47238 
z
" style="fill:#ff7f0e;"/>
   </g>
   <g id="patch_163">
    <path clip-path="url(#p0f133c748b)" d="M 185.286289 284.258625 
L 187.367408 284.258625 
L 187.367408 283.43291 
L 185.286289 283.43291 
z
" style="fill:#ff7f0e;"/>
   </g>
   <g id="patch_164">
    <path clip-path="url(#p0f133c748b)" d="M 187.887688 284.258625 
L 189.968807 284.258625 
L 189.968807 283.398966 
L 187.887688 283.398966 
z
" style="fill:#ff7f0e;"/>
   </g>
   <g id="patch_165">
    <path clip-path="url(#p0f133c748b)" d="M 190.489087 284.258625 
L 192.570205 284.258625 
L 192.570205 283.368179 
L 190.489087 283.368179 
z
" style="fill:#ff7f0e;"/>
   </g>
   <g id="patch_166">
    <path clip-path="url(#p0f133c748b)" d="M 193.090485 284.258625 
L 195.171604 284.258625 
L 195.171604 283.316868 
L 193.090485 283.316868 
z
" style="fill:#ff7f0e;"/>
   </g>
   <g id="patch_167">
    <path clip-path="url(#p0f133c748b)" d="M 195.691884 284.258625 
L 197.773003 284.258625 
L 197.773003 283.239507 
L 195.691884 283.239507 
z
" style="fill:#ff7f0e;"/>
   </g>
   <g id="patch_168">
    <path clip-path="url(#p0f133c748b)" d="M 198.293282 284.258625 
L 200.374401 284.258625 
L 200.374401 283.163724 
L 198.293282 283.163724 
z
" style="fill:#ff7f0e;"/>
   </g>
   <g id="patch_169">
    <path clip-path="url(#p0f133c748b)" d="M 200.894681 284.258625 
L 202.9758 284.258625 
L 202.9758 283.075311 
L 200.894681 283.075311 
z
" style="fill:#ff7f0e;"/>
   </g>
   <g id="patch_170">
    <path clip-path="url(#p0f133c748b)" d="M 203.49608 284.258625 
L 205.577198 284.258625 
L 205.577198 282.922167 
L 203.49608 282.922167 
z
" style="fill:#ff7f0e;"/>
   </g>
   <g id="patch_171">
    <path clip-path="url(#p0f133c748b)" d="M 206.097478 284.258625 
L 208.178597 284.258625 
L 208.178597 282.7856 
L 206.097478 282.7856 
z
" style="fill:#ff7f0e;"/>
   </g>
   <g id="patch_172">
    <path clip-path="url(#p0f133c748b)" d="M 208.698877 284.258625 
L 210.779996 284.258625 
L 210.779996 282.716922 
L 208.698877 282.716922 
z
" style="fill:#ff7f0e;"/>
   </g>
   <g id="patch_173">
    <path clip-path="url(#p0f133c748b)" d="M 211.300275 284.258625 
L 213.381394 284.258625 
L 213.381394 282.539307 
L 211.300275 282.539307 
z
" style="fill:#ff7f0e;"/>
   </g>
   <g id="patch_174">
    <path clip-path="url(#p0f133c748b)" d="M 213.901674 284.258625 
L 215.982793 284.258625 
L 215.982793 282.379058 
L 213.901674 282.379058 
z
" style="fill:#ff7f0e;"/>
   </g>
   <g id="patch_175">
    <path clip-path="url(#p0f133c748b)" d="M 216.503073 284.258625 
L 218.584191 284.258625 
L 218.584191 282.192759 
L 216.503073 282.192759 
z
" style="fill:#ff7f0e;"/>
   </g>
   <g id="patch_176">
    <path clip-path="url(#p0f133c748b)" d="M 219.104471 284.258625 
L 221.18559 284.258625 
L 221.18559 281.941729 
L 219.104471 281.941729 
z
" style="fill:#ff7f0e;"/>
   </g>
   <g id="patch_177">
    <path clip-path="url(#p0f133c748b)" d="M 221.70587 284.258625 
L 223.786989 284.258625 
L 223.786989 281.67649 
L 221.70587 281.67649 
z
" style="fill:#ff7f0e;"/>
   </g>
   <g id="patch_178">
    <path clip-path="url(#p0f133c748b)" d="M 224.307268 284.258625 
L 226.388387 284.258625 
L 226.388387 281.374149 
L 224.307268 281.374149 
z
" style="fill:#ff7f0e;"/>
   </g>
   <g id="patch_179">
    <path clip-path="url(#p0f133c748b)" d="M 226.908667 284.258625 
L 228.989786 284.258625 
L 228.989786 281.175219 
L 226.908667 281.175219 
z
" style="fill:#ff7f0e;"/>
   </g>
   <g id="patch_180">
    <path clip-path="url(#p0f133c748b)" d="M 229.510066 284.258625 
L 231.591184 284.258625 
L 231.591184 280.898139 
L 229.510066 280.898139 
z
" style="fill:#ff7f0e;"/>
   </g>
   <g id="patch_181">
    <path clip-path="url(#p0f133c748b)" d="M 232.111464 284.258625 
L 234.192583 284.258625 
L 234.192583 280.494754 
L 232.111464 280.494754 
z
" style="fill:#ff7f0e;"/>
   </g>
   <g id="patch_182">
    <path clip-path="url(#p0f133c748b)" d="M 234.712863 284.258625 
L 236.793982 284.258625 
L 236.793982 280.037691 
L 234.712863 280.037691 
z
" style="fill:#ff7f0e;"/>
   </g>
   <g id="patch_183">
    <path clip-path="url(#p0f133c748b)" d="M 237.314261 284.258625 
L 239.39538 284.258625 
L 239.39538 279.518264 
L 237.314261 279.518264 
z
" style="fill:#ff7f0e;"/>
   </g>
   <g id="patch_184">
    <path clip-path="url(#p0f133c748b)" d="M 239.91566 284.258625 
L 241.996779 284.258625 
L 241.996779 278.931738 
L 239.91566 278.931738 
z
" style="fill:#ff7f0e;"/>
   </g>
   <g id="patch_185">
    <path clip-path="url(#p0f133c748b)" d="M 242.517059 284.258625 
L 244.598177 284.258625 
L 244.598177 278.531511 
L 242.517059 278.531511 
z
" style="fill:#ff7f0e;"/>
   </g>
   <g id="patch_186">
    <path clip-path="url(#p0f133c748b)" d="M 245.118457 284.258625 
L 247.199576 284.258625 
L 247.199576 278.223644 
L 245.118457 278.223644 
z
" style="fill:#ff7f0e;"/>
   </g>
   <g id="patch_187">
    <path clip-path="url(#p0f133c748b)" d="M 247.719856 284.258625 
L 249.800975 284.258625 
L 249.800975 277.864466 
L 247.719856 277.864466 
z
" style="fill:#ff7f0e;"/>
   </g>
   <g id="patch_188">
    <path clip-path="url(#p0f133c748b)" d="M 250.321254 284.258625 
L 252.402373 284.258625 
L 252.402373 277.483974 
L 250.321254 277.483974 
z
" style="fill:#ff7f0e;"/>
   </g>
   <g id="patch_189">
    <path clip-path="url(#p0f133c748b)" d="M 252.922653 284.258625 
L 255.003772 284.258625 
L 255.003772 277.022173 
L 252.922653 277.022173 
z
" style="fill:#ff7f0e;"/>
   </g>
   <g id="patch_190">
    <path clip-path="url(#p0f133c748b)" d="M 255.524052 284.258625 
L 257.60517 284.258625 
L 257.60517 276.526429 
L 255.524052 276.526429 
z
" style="fill:#ff7f0e;"/>
   </g>
   <g id="patch_191">
    <path clip-path="url(#p0f133c748b)" d="M 258.12545 284.258625 
L 260.206569 284.258625 
L 260.206569 276.079627 
L 258.12545 276.079627 
z
" style="fill:#ff7f0e;"/>
   </g>
   <g id="patch_192">
    <path clip-path="url(#p0f133c748b)" d="M 260.726849 284.258625 
L 262.807968 284.258625 
L 262.807968 275.77176 
L 260.726849 275.77176 
z
" style="fill:#ff7f0e;"/>
   </g>
   <g id="patch_193">
    <path clip-path="url(#p0f133c748b)" d="M 263.328247 284.258625 
L 265.409366 284.258625 
L 265.409366 275.48126 
L 263.328247 275.48126 
z
" style="fill:#ff7f0e;"/>
   </g>
   <g id="patch_194">
    <path clip-path="url(#p0f133c748b)" d="M 265.929646 284.258625 
L 268.010765 284.258625 
L 268.010765 275.183655 
L 265.929646 275.183655 
z
" style="fill:#ff7f0e;"/>
   </g>
   <g id="patch_195">
    <path clip-path="url(#p0f133c748b)" d="M 268.531045 284.258625 
L 270.612163 284.258625 
L 270.612163 274.849738 
L 268.531045 274.849738 
z
" style="fill:#ff7f0e;"/>
   </g>
   <g id="patch_196">
    <path clip-path="url(#p0f133c748b)" d="M 271.132443 284.258625 
L 273.213562 284.258625 
L 273.213562 274.479508 
L 271.132443 274.479508 
z
" style="fill:#ff7f0e;"/>
   </g>
   <g id="patch_197">
    <path clip-path="url(#p0f133c748b)" d="M 273.733842 284.258625 
L 275.814961 284.258625 
L 275.814961 274.131382 
L 273.733842 274.131382 
z
" style="fill:#ff7f0e;"/>
   </g>
   <g id="patch_198">
    <path clip-path="url(#p0f133c748b)" d="M 276.33524 284.258625 
L 278.416359 284.258625 
L 278.416359 273.852723 
L 276.33524 273.852723 
z
" style="fill:#ff7f0e;"/>
   </g>
   <g id="patch_199">
    <path clip-path="url(#p0f133c748b)" d="M 278.936639 284.258625 
L 281.017758 284.258625 
L 281.017758 273.692474 
L 278.936639 273.692474 
z
" style="fill:#ff7f0e;"/>
   </g>
   <g id="patch_200">
    <path clip-path="url(#p0f133c748b)" d="M 281.538038 284.258625 
L 283.619156 284.258625 
L 283.619156 273.541698 
L 281.538038 273.541698 
z
" style="fill:#ff7f0e;"/>
   </g>
   <g id="patch_201">
    <path clip-path="url(#p0f133c748b)" d="M 284.139436 284.258625 
L 286.220555 284.258625 
L 286.220555 273.323823 
L 284.139436 273.323823 
z
" style="fill:#ff7f0e;"/>
   </g>
   <g id="patch_202">
    <path clip-path="url(#p0f133c748b)" d="M 286.740835 284.258625 
L 288.821954 284.258625 
L 288.821954 273.137524 
L 286.740835 273.137524 
z
" style="fill:#ff7f0e;"/>
   </g>
   <g id="patch_203">
    <path clip-path="url(#p0f133c748b)" d="M 289.342233 284.258625 
L 291.423352 284.258625 
L 291.423352 272.98517 
L 289.342233 272.98517 
z
" style="fill:#ff7f0e;"/>
   </g>
   <g id="patch_204">
    <path clip-path="url(#p0f133c748b)" d="M 291.943632 284.258625 
L 294.024751 284.258625 
L 294.024751 272.777557 
L 291.943632 272.777557 
z
" style="fill:#ff7f0e;"/>
   </g>
   <g id="patch_205">
    <path clip-path="url(#p0f133c748b)" d="M 294.545031 284.258625 
L 296.626149 284.258625 
L 296.626149 272.544683 
L 294.545031 272.544683 
z
" style="fill:#ff7f0e;"/>
   </g>
   <g id="patch_206">
    <path clip-path="url(#p0f133c748b)" d="M 297.146429 284.258625 
L 299.227548 284.258625 
L 299.227548 272.372593 
L 297.146429 272.372593 
z
" style="fill:#ff7f0e;"/>
   </g>
   <g id="patch_207">
    <path clip-path="url(#p0f133c748b)" d="M 299.747828 284.258625 
L 301.828947 284.258625 
L 301.828947 272.235237 
L 299.747828 272.235237 
z
" style="fill:#ff7f0e;"/>
   </g>
   <g id="patch_208">
    <path clip-path="url(#p0f133c748b)" d="M 302.349226 284.258625 
L 304.430345 284.258625 
L 304.430345 272.138141 
L 302.349226 272.138141 
z
" style="fill:#ff7f0e;"/>
   </g>
   <g id="patch_209">
    <path clip-path="url(#p0f133c748b)" d="M 304.950625 284.258625 
L 307.031744 284.258625 
L 307.031744 272.052096 
L 304.950625 272.052096 
z
" style="fill:#ff7f0e;"/>
   </g>
   <g id="patch_210">
    <path clip-path="url(#p0f133c748b)" d="M 307.552024 284.258625 
L 309.633142 284.258625 
L 309.633142 271.985786 
L 307.552024 271.985786 
z
" style="fill:#ff7f0e;"/>
   </g>
   <g id="patch_211">
    <path clip-path="url(#p0f133c748b)" d="M 310.153422 284.258625 
L 312.234541 284.258625 
L 312.234541 271.905267 
L 310.153422 271.905267 
z
" style="fill:#ff7f0e;"/>
   </g>
   <g id="patch_212">
    <path clip-path="url(#p0f133c748b)" d="M 312.754821 284.258625 
L 314.83594 284.258625 
L 314.83594 271.827906 
L 312.754821 271.827906 
z
" style="fill:#ff7f0e;"/>
   </g>
   <g id="patch_213">
    <path clip-path="url(#p0f133c748b)" d="M 315.356219 284.258625 
L 317.437338 284.258625 
L 317.437338 271.787646 
L 315.356219 271.787646 
z
" style="fill:#ff7f0e;"/>
   </g>
   <g id="patch_214">
    <path clip-path="url(#p0f133c748b)" d="M 317.957618 284.258625 
L 320.038737 284.258625 
L 320.038737 271.727652 
L 317.957618 271.727652 
z
" style="fill:#ff7f0e;"/>
   </g>
   <g id="patch_215">
    <path clip-path="url(#p0f133c748b)" d="M 320.559017 284.258625 
L 322.640135 284.258625 
L 322.640135 271.609241 
L 320.559017 271.609241 
z
" style="fill:#ff7f0e;"/>
   </g>
   <g id="patch_216">
    <path clip-path="url(#p0f133c748b)" d="M 323.160415 284.258625 
L 325.241534 284.258625 
L 325.241534 271.565824 
L 323.160415 271.565824 
z
" style="fill:#ff7f0e;"/>
   </g>
   <g id="patch_217">
    <path clip-path="url(#p0f133c748b)" d="M 325.761814 284.258625 
L 327.842933 284.258625 
L 327.842933 271.475832 
L 325.761814 271.475832 
z
" style="fill:#ff7f0e;"/>
   </g>
   <g id="patch_218">
    <path clip-path="url(#p0f133c748b)" d="M 328.363212 284.258625 
L 330.444331 284.258625 
L 330.444331 271.441099 
L 328.363212 271.441099 
z
" style="fill:#ff7f0e;"/>
   </g>
   <g id="patch_219">
    <path clip-path="url(#p0f133c748b)" d="M 330.964611 284.258625 
L 333.04573 284.258625 
L 333.04573 271.403207 
L 330.964611 271.403207 
z
" style="fill:#ff7f0e;"/>
   </g>
   <g id="patch_220">
    <path clip-path="url(#p0f133c748b)" d="M 333.56601 284.258625 
L 335.647128 284.258625 
L 335.647128 271.387419 
L 333.56601 271.387419 
z
" style="fill:#ff7f0e;"/>
   </g>
   <g id="patch_221">
    <path clip-path="url(#p0f133c748b)" d="M 336.167408 284.258625 
L 338.248527 284.258625 
L 338.248527 271.340055 
L 336.167408 271.340055 
z
" style="fill:#ff7f0e;"/>
   </g>
   <g id="patch_222">
    <path clip-path="url(#p0f133c748b)" d="M 338.768807 284.258625 
L 340.849926 284.258625 
L 340.849926 271.324267 
L 338.768807 271.324267 
z
" style="fill:#ff7f0e;"/>
   </g>
   <g id="patch_223">
    <path clip-path="url(#p0f133c748b)" d="M 341.370205 284.258625 
L 343.451324 284.258625 
L 343.451324 271.29348 
L 341.370205 271.29348 
z
" style="fill:#ff7f0e;"/>
   </g>
   <g id="patch_224">
    <path clip-path="url(#p0f133c748b)" d="M 343.971604 284.258625 
L 346.052723 284.258625 
L 346.052723 271.223224 
L 343.971604 271.223224 
z
" style="fill:#ff7f0e;"/>
   </g>
   <g id="patch_225">
    <path clip-path="url(#p0f133c748b)" d="M 346.573003 284.258625 
L 348.654122 284.258625 
L 348.654122 271.205067 
L 346.573003 271.205067 
z
" style="fill:#ff7f0e;"/>
   </g>
   <g id="patch_226">
    <path clip-path="url(#p0f133c748b)" d="M 349.174401 284.258625 
L 351.25552 284.258625 
L 351.25552 271.194016 
L 349.174401 271.194016 
z
" style="fill:#ff7f0e;"/>
   </g>
   <g id="patch_227">
    <path clip-path="url(#p0f133c748b)" d="M 351.7758 284.258625 
L 353.856919 284.258625 
L 353.856919 271.169544 
L 351.7758 271.169544 
z
" style="fill:#ff7f0e;"/>
   </g>
   <g id="patch_228">
    <path clip-path="url(#p0f133c748b)" d="M 354.377198 284.258625 
L 356.458317 284.258625 
L 356.458317 271.136389 
L 354.377198 271.136389 
z
" style="fill:#ff7f0e;"/>
   </g>
   <g id="patch_229">
    <path clip-path="url(#p0f133c748b)" d="M 356.978597 284.258625 
L 359.059716 284.258625 
L 359.059716 271.114286 
L 356.978597 271.114286 
z
" style="fill:#ff7f0e;"/>
   </g>
   <g id="patch_230">
    <path clip-path="url(#p0f133c748b)" d="M 359.579996 284.258625 
L 361.661115 284.258625 
L 361.661115 271.089025 
L 359.579996 271.089025 
z
" style="fill:#ff7f0e;"/>
   </g>
   <g id="patch_231">
    <path clip-path="url(#p0f133c748b)" d="M 362.181394 284.258625 
L 364.262513 284.258625 
L 364.262513 271.060607 
L 362.181394 271.060607 
z
" style="fill:#ff7f0e;"/>
   </g>
   <g id="patch_232">
    <path clip-path="url(#p0f133c748b)" d="M 364.782793 284.258625 
L 366.863912 284.258625 
L 366.863912 270.993508 
L 364.782793 270.993508 
z
" style="fill:#ff7f0e;"/>
   </g>
   <g id="patch_233">
    <path clip-path="url(#p0f133c748b)" d="M 367.384191 284.258625 
L 369.46531 284.258625 
L 369.46531 270.956406 
L 367.384191 270.956406 
z
" style="fill:#ff7f0e;"/>
   </g>
   <g id="patch_234">
    <path clip-path="url(#p0f133c748b)" d="M 369.98559 284.258625 
L 372.066709 284.258625 
L 372.066709 270.930355 
L 369.98559 270.930355 
z
" style="fill:#ff7f0e;"/>
   </g>
   <g id="patch_235">
    <path clip-path="url(#p0f133c748b)" d="M 372.586989 284.258625 
L 374.668108 284.258625 
L 374.668108 270.894043 
L 372.586989 270.894043 
z
" style="fill:#ff7f0e;"/>
   </g>
   <g id="patch_236">
    <path clip-path="url(#p0f133c748b)" d="M 375.188387 284.258625 
L 377.269506 284.258625 
L 377.269506 270.849836 
L 375.188387 270.849836 
z
" style="fill:#ff7f0e;"/>
   </g>
   <g id="patch_237">
    <path clip-path="url(#p0f133c748b)" d="M 377.789786 284.258625 
L 379.870905 284.258625 
L 379.870905 270.824575 
L 377.789786 270.824575 
z
" style="fill:#ff7f0e;"/>
   </g>
   <g id="patch_238">
    <path clip-path="url(#p0f133c748b)" d="M 380.391184 284.258625 
L 382.472303 284.258625 
L 382.472303 270.788263 
L 380.391184 270.788263 
z
" style="fill:#ff7f0e;"/>
   </g>
   <g id="patch_239">
    <path clip-path="url(#p0f133c748b)" d="M 382.992583 284.258625 
L 385.073702 284.258625 
L 385.073702 270.757476 
L 382.992583 270.757476 
z
" style="fill:#ff7f0e;"/>
   </g>
   <g id="patch_240">
    <path clip-path="url(#p0f133c748b)" d="M 385.593982 284.258625 
L 387.675101 284.258625 
L 387.675101 270.727479 
L 385.593982 270.727479 
z
" style="fill:#ff7f0e;"/>
   </g>
   <g id="patch_241">
    <path clip-path="url(#p0f133c748b)" d="M 388.19538 284.258625 
L 390.276499 284.258625 
L 390.276499 270.701429 
L 388.19538 270.701429 
z
" style="fill:#ff7f0e;"/>
   </g>
   <g id="patch_242">
    <path clip-path="url(#p0f133c748b)" d="M 390.796779 284.258625 
L 392.877898 284.258625 
L 392.877898 270.67301 
L 390.796779 270.67301 
z
" style="fill:#ff7f0e;"/>
   </g>
   <g id="matplotlib.axis_1">
    <g id="xtick_1">
     <g id="line2d_1">
      <defs>
       <path d="M 0 0 
L 0 3.5 
" id="m4474abfd97" style="stroke:#000000;stroke-width:0.8;"/>
      </defs>
      <g>
       <use style="stroke:#000000;stroke-width:0.8;" x="56.256919" xlink:href="#m4474abfd97" y="284.258625"/>
      </g>
     </g>
     <g id="text_1">
      <!-- Feb -->
      <defs>
       <path d="M 54.203125 64.703125 
L 18.3125 64.703125 
L 18.3125 41.5 
L 50.09375 41.5 
L 50.09375 34.1875 
L 18.3125 34.1875 
L 18.3125 0.984375 
L 9.515625 0.984375 
L 9.515625 72.40625 
L 54.203125 72.40625 
z
" id="IPAexGothic-70"/>
       <path d="M 13.484375 24.90625 
Q 13.921875 16.265625 18.890625 11.28125 
Q 23.96875 6.203125 31.203125 6.203125 
Q 40.71875 6.203125 46.296875 15.09375 
L 51.90625 11.375 
Q 44.828125 -0.484375 30.171875 -0.484375 
Q 19.09375 -0.484375 11.96875 6.59375 
Q 4.78125 13.8125 4.78125 25.640625 
Q 4.78125 38.1875 12.3125 45.703125 
Q 19 52.390625 29 52.390625 
Q 38.421875 52.390625 44.78125 46.1875 
Q 51.90625 38.96875 51.90625 26.90625 
L 51.90625 24.90625 
z
M 43.0625 31.203125 
Q 42.328125 37.984375 38.28125 41.890625 
Q 34.28125 45.90625 28.8125 45.90625 
Q 22.46875 45.90625 17.96875 40.484375 
Q 14.890625 36.8125 13.96875 31.203125 
z
" id="IPAexGothic-101"/>
       <path d="M 17.578125 42.671875 
Q 24.21875 52.203125 34.671875 52.203125 
Q 43.5625 52.203125 49.859375 45.90625 
Q 57.171875 38.578125 57.171875 25.6875 
Q 57.171875 13.09375 49.859375 5.8125 
Q 43.5625 -0.484375 34.46875 -0.484375 
Q 24.359375 -0.484375 17 8.0625 
L 15.765625 0.6875 
L 9.078125 0.6875 
L 9.078125 74.90625 
L 17.578125 74.90625 
z
M 17.578125 31.203125 
L 17.578125 19.578125 
Q 17.578125 13.875 23.875 9.375 
Q 28.171875 6.296875 33.109375 6.296875 
Q 38.875 6.296875 42.875 10.296875 
Q 48.1875 15.765625 48.1875 25.484375 
Q 48.1875 34.28125 43.796875 39.890625 
Q 39.453125 45.3125 33.203125 45.3125 
Q 27.484375 45.3125 22.46875 40.28125 
Q 17.578125 35.40625 17.578125 31.203125 
z
" id="IPAexGothic-98"/>
      </defs>
      <g transform="translate(47.433481 298.74925)scale(0.1 -0.1)">
       <use xlink:href="#IPAexGothic-70"/>
       <use x="57.177734" xlink:href="#IPAexGothic-101"/>
       <use x="114.0625" xlink:href="#IPAexGothic-98"/>
      </g>
     </g>
    </g>
    <g id="xtick_2">
     <g id="line2d_2">
      <g>
       <use style="stroke:#000000;stroke-width:0.8;" x="92.676499" xlink:href="#m4474abfd97" y="284.258625"/>
      </g>
     </g>
     <g id="text_2">
      <!-- 15 -->
      <defs>
       <path d="M 38.484375 0.984375 
L 29.6875 0.984375 
L 29.6875 64.109375 
Q 21.4375 61.28125 12.3125 59.328125 
L 10.6875 66.109375 
Q 23.734375 69.390625 32.90625 73.921875 
L 38.484375 73.921875 
z
" id="IPAexGothic-49"/>
       <path d="M 18.40625 40.671875 
Q 25.53125 46.296875 33.9375 46.296875 
Q 44 46.296875 50.640625 39.5 
Q 56.84375 33.015625 56.84375 23.390625 
Q 56.84375 14.65625 51.515625 8.015625 
Q 44.828125 -0.484375 31.734375 -0.484375 
Q 14.984375 -0.484375 7.328125 12.25 
L 14.65625 16.0625 
Q 20.453125 6.78125 31.453125 6.78125 
Q 38.53125 6.78125 43.265625 11.1875 
Q 48.140625 15.828125 48.140625 23.484375 
Q 48.140625 30.71875 43.84375 35.015625 
Q 39.359375 39.5 32.125 39.5 
Q 21.96875 39.5 16.75 31.6875 
L 9.234375 32.671875 
L 13.8125 72.40625 
L 53.21875 72.40625 
L 53.21875 64.890625 
L 20.953125 64.890625 
L 17.71875 40.671875 
z
" id="IPAexGothic-53"/>
      </defs>
      <g transform="translate(86.378062 298.74925)scale(0.1 -0.1)">
       <use xlink:href="#IPAexGothic-49"/>
       <use x="62.988281" xlink:href="#IPAexGothic-53"/>
      </g>
     </g>
    </g>
    <g id="xtick_3">
     <g id="line2d_3">
      <g>
       <use style="stroke:#000000;stroke-width:0.8;" x="131.697478" xlink:href="#m4474abfd97" y="284.258625"/>
      </g>
     </g>
     <g id="text_3">
      <!-- Mar -->
      <defs>
       <path d="M 80.421875 0.984375 
L 71.828125 0.984375 
L 71.828125 39.59375 
Q 71.828125 51.265625 72.40625 64.59375 
L 72.015625 64.59375 
Q 68.0625 53.265625 63.53125 41.796875 
L 47.90625 3.265625 
L 41.40625 3.265625 
L 25.640625 42.578125 
Q 20.75 54.78125 17.625 64.703125 
L 17.234375 64.703125 
Q 17.828125 48.921875 17.828125 39.890625 
L 17.828125 0.984375 
L 9.515625 0.984375 
L 9.515625 72.40625 
L 22.125 72.40625 
L 39.109375 30.375 
Q 42.140625 23 44.828125 14.15625 
L 45.125 14.15625 
Q 47.3125 22.125 50.53125 30.171875 
L 67.4375 72.40625 
L 80.421875 72.40625 
z
" id="IPAexGothic-77"/>
       <path d="M 49.3125 0.984375 
L 41.75 0.984375 
Q 39.984375 4.734375 39.546875 8.6875 
L 39.203125 8.6875 
Q 33.546875 -0.390625 22.3125 -0.390625 
Q 14.59375 -0.390625 9.71875 4.5 
Q 5.421875 8.796875 5.421875 14.984375 
Q 5.421875 30.421875 32.03125 31.203125 
L 38.71875 31.390625 
L 38.71875 33.984375 
Q 38.71875 39.203125 35.75 42.1875 
Q 32.625 45.3125 27.734375 45.3125 
Q 19.34375 45.3125 15.140625 37.15625 
L 7.71875 40.578125 
Q 14.65625 52 27.9375 52 
Q 37.109375 52 42.046875 46.875 
Q 46.625 42.28125 46.625 33.890625 
L 46.625 15.578125 
Q 46.625 6.25 49.3125 0.984375 
z
M 38.921875 25.390625 
L 33.453125 25.296875 
Q 14.109375 24.859375 14.109375 14.890625 
Q 14.109375 11.375 16.40625 9.078125 
Q 19.234375 6.296875 23.828125 6.296875 
Q 30.21875 6.296875 34.90625 10.984375 
Q 38.921875 15.140625 38.921875 21 
z
" id="IPAexGothic-97"/>
       <path d="M 36.078125 51.8125 
L 34.578125 43.265625 
Q 32.90625 43.609375 31.59375 43.609375 
Q 25.828125 43.609375 22.078125 38.1875 
Q 17.390625 31.34375 17.390625 26.171875 
L 17.390625 0.984375 
L 8.796875 0.984375 
L 8.796875 50.78125 
L 16.890625 50.78125 
L 16.5 35.984375 
L 16.703125 35.984375 
Q 22.21875 52.203125 32.765625 52.203125 
Q 34.46875 52.203125 36.078125 51.8125 
z
" id="IPAexGothic-114"/>
      </defs>
      <g transform="translate(122.588103 298.74925)scale(0.1 -0.1)">
       <use xlink:href="#IPAexGothic-77"/>
       <use x="90.185547" xlink:href="#IPAexGothic-97"/>
       <use x="145.166016" xlink:href="#IPAexGothic-114"/>
      </g>
     </g>
    </g>
    <g id="xtick_4">
     <g id="line2d_4">
      <g>
       <use style="stroke:#000000;stroke-width:0.8;" x="168.117059" xlink:href="#m4474abfd97" y="284.258625"/>
      </g>
     </g>
     <g id="text_4">
      <!-- 15 -->
      <g transform="translate(161.818621 298.74925)scale(0.1 -0.1)">
       <use xlink:href="#IPAexGothic-49"/>
       <use x="62.988281" xlink:href="#IPAexGothic-53"/>
      </g>
     </g>
    </g>
    <g id="xtick_5">
     <g id="line2d_5">
      <g>
       <use style="stroke:#000000;stroke-width:0.8;" x="212.340835" xlink:href="#m4474abfd97" y="284.258625"/>
      </g>
     </g>
     <g id="text_5">
      <!-- Apr -->
      <defs>
       <path d="M 63.375 0.984375 
L 53.8125 0.984375 
L 45.90625 22.015625 
L 17.1875 22.015625 
L 9.421875 0.984375 
L -0.09375 0.984375 
L 28.21875 72.90625 
L 35.296875 72.90625 
z
M 43.40625 29.109375 
L 36.1875 48.09375 
Q 33.203125 56.0625 31.6875 62.5 
L 31.390625 62.5 
Q 29.640625 55.671875 26.8125 48.09375 
L 19.734375 29.109375 
z
" id="IPAexGothic-65"/>
       <path d="M 16.796875 42 
Q 23.828125 52.203125 34.46875 52.203125 
Q 43.265625 52.203125 49.5625 45.90625 
Q 56.890625 38.578125 56.890625 25.6875 
Q 56.890625 13.140625 49.65625 5.8125 
Q 43.359375 -0.484375 34.375 -0.484375 
Q 24.515625 -0.484375 17.28125 7.765625 
L 17.28125 -19 
L 8.796875 -19 
L 8.796875 50.78125 
L 16.796875 50.78125 
z
M 17.28125 30.46875 
L 17.28125 20.171875 
Q 17.28125 14.015625 23.6875 9.375 
Q 27.984375 6.296875 32.90625 6.296875 
Q 38.578125 6.296875 42.578125 10.296875 
Q 47.90625 15.578125 47.90625 25.484375 
Q 47.90625 34.375 43.5 39.984375 
Q 39.109375 45.3125 32.8125 45.3125 
Q 25.875 45.3125 20.90625 38.8125 
Q 17.28125 34.125 17.28125 30.46875 
z
" id="IPAexGothic-112"/>
      </defs>
      <g transform="translate(204.198647 298.74925)scale(0.1 -0.1)">
       <use xlink:href="#IPAexGothic-65"/>
       <use x="63.720703" xlink:href="#IPAexGothic-112"/>
       <use x="125.830078" xlink:href="#IPAexGothic-114"/>
      </g>
     </g>
    </g>
    <g id="xtick_6">
     <g id="line2d_6">
      <g>
       <use style="stroke:#000000;stroke-width:0.8;" x="248.760415" xlink:href="#m4474abfd97" y="284.258625"/>
      </g>
     </g>
     <g id="text_6">
      <!-- 15 -->
      <g transform="translate(242.461978 298.74925)scale(0.1 -0.1)">
       <use xlink:href="#IPAexGothic-49"/>
       <use x="62.988281" xlink:href="#IPAexGothic-53"/>
      </g>
     </g>
    </g>
    <g id="xtick_7">
     <g id="line2d_7">
      <g>
       <use style="stroke:#000000;stroke-width:0.8;" x="290.382793" xlink:href="#m4474abfd97" y="284.258625"/>
      </g>
     </g>
     <g id="text_7">
      <!-- May -->
      <defs>
       <path d="M 48.78125 50.78125 
L 24.609375 -7.625 
Q 19.96875 -18.796875 8.59375 -18.796875 
L 7.46875 -18.796875 
L 5.375 -10.984375 
L 6.984375 -10.984375 
Q 15.140625 -10.984375 17.96875 -3.71875 
L 21.1875 4.296875 
L 0.59375 50.78125 
L 10.296875 50.78125 
L 21.296875 22.796875 
Q 23.875 16.015625 25.09375 12.203125 
L 25.390625 12.203125 
Q 27.34375 18.265625 29.109375 22.796875 
L 39.5 50.78125 
z
" id="IPAexGothic-121"/>
      </defs>
      <g transform="translate(280.663262 298.74925)scale(0.1 -0.1)">
       <use xlink:href="#IPAexGothic-77"/>
       <use x="90.185547" xlink:href="#IPAexGothic-97"/>
       <use x="145.166016" xlink:href="#IPAexGothic-121"/>
      </g>
     </g>
    </g>
    <g id="xtick_8">
     <g id="line2d_8">
      <g>
       <use style="stroke:#000000;stroke-width:0.8;" x="326.802373" xlink:href="#m4474abfd97" y="284.258625"/>
      </g>
     </g>
     <g id="text_8">
      <!-- 15 -->
      <g transform="translate(320.503936 298.74925)scale(0.1 -0.1)">
       <use xlink:href="#IPAexGothic-49"/>
       <use x="62.988281" xlink:href="#IPAexGothic-53"/>
      </g>
     </g>
    </g>
    <g id="xtick_9">
     <g id="line2d_9">
      <g>
       <use style="stroke:#000000;stroke-width:0.8;" x="371.026149" xlink:href="#m4474abfd97" y="284.258625"/>
      </g>
     </g>
     <g id="text_9">
      <!-- Jun -->
      <defs>
       <path d="M 28.421875 72.40625 
L 28.421875 19.28125 
Q 28.421875 -0.484375 11.921875 -0.484375 
Q 4.734375 -0.484375 -1.953125 3.265625 
L 1.3125 10.0625 
Q 5.90625 6.984375 10.84375 6.984375 
Q 19.53125 6.984375 19.53125 18.796875 
L 19.53125 72.40625 
z
" id="IPAexGothic-74"/>
       <path d="M 51.3125 0.984375 
L 43.3125 0.984375 
L 43.3125 10.0625 
Q 35.9375 0 25.390625 0 
Q 16.75 0 11.921875 5.859375 
Q 8.109375 10.59375 8.109375 19.390625 
L 8.109375 50.78125 
L 16.703125 50.78125 
L 16.703125 19.671875 
Q 16.703125 7.28125 27.09375 7.28125 
Q 37.59375 7.28125 42.71875 20.171875 
L 42.71875 50.78125 
L 51.3125 50.78125 
z
" id="IPAexGothic-117"/>
       <path d="M 52 0.984375 
L 43.40625 0.984375 
L 43.40625 31.890625 
Q 43.40625 44.578125 32.90625 44.578125 
Q 22.3125 44.578125 17.390625 31.890625 
L 17.390625 0.984375 
L 8.796875 0.984375 
L 8.796875 50.78125 
L 16.796875 50.78125 
L 16.796875 41.796875 
Q 23.828125 51.8125 34.71875 51.8125 
Q 52 51.8125 52 32.375 
z
" id="IPAexGothic-110"/>
      </defs>
      <g transform="translate(363.086306 298.74925)scale(0.1 -0.1)">
       <use xlink:href="#IPAexGothic-74"/>
       <use x="37.988281" xlink:href="#IPAexGothic-117"/>
       <use x="98.388672" xlink:href="#IPAexGothic-110"/>
      </g>
     </g>
    </g>
    <g id="xtick_10">
     <g id="line2d_10">
      <g>
       <use style="stroke:#000000;stroke-width:0.8;" x="407.44573" xlink:href="#m4474abfd97" y="284.258625"/>
      </g>
     </g>
     <g id="text_10">
      <!-- 15 -->
      <g transform="translate(401.147292 298.74925)scale(0.1 -0.1)">
       <use xlink:href="#IPAexGothic-49"/>
       <use x="62.988281" xlink:href="#IPAexGothic-53"/>
      </g>
     </g>
    </g>
    <g id="text_11">
     <!-- 2020-Jun -->
     <defs>
      <path d="M 57.171875 0.984375 
L 6.984375 0.984375 
L 6.984375 9.28125 
Q 12.890625 23.046875 29.59375 34.421875 
L 32.375 36.28125 
Q 40.921875 42.140625 43.609375 45.40625 
Q 46.6875 49.265625 46.6875 53.8125 
Q 46.6875 58.9375 43.0625 62.546875 
Q 39.0625 66.546875 32.5625 66.546875 
Q 19.53125 66.546875 15.484375 52 
L 7.765625 54.78125 
Q 13.328125 73.828125 33.0625 73.828125 
Q 43.84375 73.828125 50.25 67.4375 
Q 55.859375 61.671875 55.859375 53.515625 
Q 55.859375 47.46875 52.25 42.53125 
Q 48.921875 37.75 36.96875 30.28125 
L 34.859375 29 
Q 19.625 19.578125 15.28125 8.890625 
L 57.171875 8.890625 
z
" id="IPAexGothic-50"/>
      <path d="M 31.84375 73.828125 
Q 45.015625 73.828125 52.09375 61.625 
Q 57.71875 51.953125 57.71875 36.625 
Q 57.71875 21.4375 52.09375 11.578125 
Q 45.125 -0.484375 31.5 -0.484375 
Q 17.921875 -0.484375 10.9375 11.578125 
Q 5.328125 21.4375 5.328125 36.71875 
Q 5.328125 58.015625 15.625 67.71875 
Q 22.171875 73.828125 31.84375 73.828125 
z
M 31.5 66.65625 
Q 23.6875 66.65625 19.1875 58.734375 
Q 14.59375 50.734375 14.59375 36.625 
Q 14.59375 22.75 19.09375 14.796875 
Q 23.640625 6.984375 31.5 6.984375 
Q 40.921875 6.984375 45.453125 18.015625 
Q 48.4375 25.34375 48.4375 37.109375 
Q 48.4375 50.875 43.84375 58.734375 
Q 39.203125 66.65625 31.5 66.65625 
z
" id="IPAexGothic-48"/>
      <path d="M 30.765625 26.609375 
L 4.984375 26.609375 
L 4.984375 34.421875 
L 30.765625 34.421875 
z
" id="IPAexGothic-45"/>
     </defs>
     <g transform="translate(364.4575 311.139875)scale(0.1 -0.1)">
      <use xlink:href="#IPAexGothic-50"/>
      <use x="62.988281" xlink:href="#IPAexGothic-48"/>
      <use x="125.976562" xlink:href="#IPAexGothic-50"/>
      <use x="188.964844" xlink:href="#IPAexGothic-48"/>
      <use x="251.953125" xlink:href="#IPAexGothic-45"/>
      <use x="287.744141" xlink:href="#IPAexGothic-74"/>
      <use x="325.732422" xlink:href="#IPAexGothic-117"/>
      <use x="386.132812" xlink:href="#IPAexGothic-110"/>
     </g>
    </g>
   </g>
   <g id="matplotlib.axis_2">
    <g id="ytick_1">
     <g id="line2d_11">
      <defs>
       <path d="M 0 0 
L -3.5 0 
" id="m6e4a5243c7" style="stroke:#000000;stroke-width:0.8;"/>
      </defs>
      <g>
       <use style="stroke:#000000;stroke-width:0.8;" x="51.990625" xlink:href="#m6e4a5243c7" y="284.258625"/>
      </g>
     </g>
     <g id="text_12">
      <!-- 0 -->
      <g transform="translate(38.692188 288.003937)scale(0.1 -0.1)">
       <use xlink:href="#IPAexGothic-48"/>
      </g>
     </g>
    </g>
    <g id="ytick_2">
     <g id="line2d_12">
      <g>
       <use style="stroke:#000000;stroke-width:0.8;" x="51.990625" xlink:href="#m6e4a5243c7" y="244.788506"/>
      </g>
     </g>
     <g id="text_13">
      <!-- 50000 -->
      <g transform="translate(13.498438 248.533819)scale(0.1 -0.1)">
       <use xlink:href="#IPAexGothic-53"/>
       <use x="62.988281" xlink:href="#IPAexGothic-48"/>
       <use x="125.976562" xlink:href="#IPAexGothic-48"/>
       <use x="188.964844" xlink:href="#IPAexGothic-48"/>
       <use x="251.953125" xlink:href="#IPAexGothic-48"/>
      </g>
     </g>
    </g>
    <g id="ytick_3">
     <g id="line2d_13">
      <g>
       <use style="stroke:#000000;stroke-width:0.8;" x="51.990625" xlink:href="#m6e4a5243c7" y="205.318388"/>
      </g>
     </g>
     <g id="text_14">
      <!-- 100000 -->
      <g transform="translate(7.2 209.0637)scale(0.1 -0.1)">
       <use xlink:href="#IPAexGothic-49"/>
       <use x="62.988281" xlink:href="#IPAexGothic-48"/>
       <use x="125.976562" xlink:href="#IPAexGothic-48"/>
       <use x="188.964844" xlink:href="#IPAexGothic-48"/>
       <use x="251.953125" xlink:href="#IPAexGothic-48"/>
       <use x="314.941406" xlink:href="#IPAexGothic-48"/>
      </g>
     </g>
    </g>
    <g id="ytick_4">
     <g id="line2d_14">
      <g>
       <use style="stroke:#000000;stroke-width:0.8;" x="51.990625" xlink:href="#m6e4a5243c7" y="165.848269"/>
      </g>
     </g>
     <g id="text_15">
      <!-- 150000 -->
      <g transform="translate(7.2 169.593582)scale(0.1 -0.1)">
       <use xlink:href="#IPAexGothic-49"/>
       <use x="62.988281" xlink:href="#IPAexGothic-53"/>
       <use x="125.976562" xlink:href="#IPAexGothic-48"/>
       <use x="188.964844" xlink:href="#IPAexGothic-48"/>
       <use x="251.953125" xlink:href="#IPAexGothic-48"/>
       <use x="314.941406" xlink:href="#IPAexGothic-48"/>
      </g>
     </g>
    </g>
    <g id="ytick_5">
     <g id="line2d_15">
      <g>
       <use style="stroke:#000000;stroke-width:0.8;" x="51.990625" xlink:href="#m6e4a5243c7" y="126.37815"/>
      </g>
     </g>
     <g id="text_16">
      <!-- 200000 -->
      <g transform="translate(7.2 130.123463)scale(0.1 -0.1)">
       <use xlink:href="#IPAexGothic-50"/>
       <use x="62.988281" xlink:href="#IPAexGothic-48"/>
       <use x="125.976562" xlink:href="#IPAexGothic-48"/>
       <use x="188.964844" xlink:href="#IPAexGothic-48"/>
       <use x="251.953125" xlink:href="#IPAexGothic-48"/>
       <use x="314.941406" xlink:href="#IPAexGothic-48"/>
      </g>
     </g>
    </g>
    <g id="ytick_6">
     <g id="line2d_16">
      <g>
       <use style="stroke:#000000;stroke-width:0.8;" x="51.990625" xlink:href="#m6e4a5243c7" y="86.908032"/>
      </g>
     </g>
     <g id="text_17">
      <!-- 250000 -->
      <g transform="translate(7.2 90.653344)scale(0.1 -0.1)">
       <use xlink:href="#IPAexGothic-50"/>
       <use x="62.988281" xlink:href="#IPAexGothic-53"/>
       <use x="125.976562" xlink:href="#IPAexGothic-48"/>
       <use x="188.964844" xlink:href="#IPAexGothic-48"/>
       <use x="251.953125" xlink:href="#IPAexGothic-48"/>
       <use x="314.941406" xlink:href="#IPAexGothic-48"/>
      </g>
     </g>
    </g>
    <g id="ytick_7">
     <g id="line2d_17">
      <g>
       <use style="stroke:#000000;stroke-width:0.8;" x="51.990625" xlink:href="#m6e4a5243c7" y="47.437913"/>
      </g>
     </g>
     <g id="text_18">
      <!-- 300000 -->
      <defs>
       <path d="M 37.203125 37.796875 
Q 54.78125 34.625 54.78125 19.96875 
Q 54.78125 11.1875 48.875 5.5625 
Q 42.328125 -0.484375 30.375 -0.484375 
Q 12.453125 -0.484375 4.5 13.765625 
L 11.8125 17.671875 
Q 17.328125 6.890625 30.28125 6.890625 
Q 37.890625 6.890625 42.09375 10.796875 
Q 46.09375 14.5 46.09375 20.171875 
Q 46.09375 26.859375 40.09375 30.90625 
Q 34.625 34.578125 25.6875 34.578125 
L 21.296875 34.578125 
L 21.296875 41.703125 
L 25.875 41.703125 
Q 34.859375 41.703125 39.59375 45.125 
Q 44.671875 48.734375 44.671875 54.828125 
Q 44.671875 61.46875 38.96875 64.65625 
Q 35.296875 66.84375 30.171875 66.84375 
Q 19.34375 66.84375 14.109375 55.90625 
L 6.78125 59.421875 
Q 14.015625 73.828125 30.28125 73.828125 
Q 40.578125 73.828125 46.96875 68.65625 
Q 53.375 63.578125 53.375 55.21875 
Q 53.375 47.3125 47.171875 42.28125 
Q 43.171875 39.0625 37.203125 38.1875 
z
" id="IPAexGothic-51"/>
      </defs>
      <g transform="translate(7.2 51.183226)scale(0.1 -0.1)">
       <use xlink:href="#IPAexGothic-51"/>
       <use x="62.988281" xlink:href="#IPAexGothic-48"/>
       <use x="125.976562" xlink:href="#IPAexGothic-48"/>
       <use x="188.964844" xlink:href="#IPAexGothic-48"/>
       <use x="251.953125" xlink:href="#IPAexGothic-48"/>
       <use x="314.941406" xlink:href="#IPAexGothic-48"/>
      </g>
     </g>
    </g>
   </g>
   <g id="patch_243">
    <path d="M 51.990625 284.258625 
L 51.990625 18.146625 
" style="fill:none;stroke:#000000;stroke-linecap:square;stroke-linejoin:miter;stroke-width:0.8;"/>
   </g>
   <g id="patch_244">
    <path d="M 409.110625 284.258625 
L 409.110625 18.146625 
" style="fill:none;stroke:#000000;stroke-linecap:square;stroke-linejoin:miter;stroke-width:0.8;"/>
   </g>
   <g id="patch_245">
    <path d="M 51.990625 284.258625 
L 409.110625 284.258625 
" style="fill:none;stroke:#000000;stroke-linecap:square;stroke-linejoin:miter;stroke-width:0.8;"/>
   </g>
   <g id="patch_246">
    <path d="M 51.990625 18.146625 
L 409.110625 18.146625 
" style="fill:none;stroke:#000000;stroke-linecap:square;stroke-linejoin:miter;stroke-width:0.8;"/>
   </g>
   <g id="legend_1">
    <g id="patch_247">
     <path d="M 58.990625 54.985687 
L 132.0375 54.985687 
Q 134.0375 54.985687 134.0375 52.985687 
L 134.0375 25.146625 
Q 134.0375 23.146625 132.0375 23.146625 
L 58.990625 23.146625 
Q 56.990625 23.146625 56.990625 25.146625 
L 56.990625 52.985687 
Q 56.990625 54.985687 58.990625 54.985687 
z
" style="fill:#ffffff;opacity:0.8;stroke:#cccccc;stroke-linejoin:miter;"/>
    </g>
    <g id="patch_248">
     <path d="M 60.990625 34.63725 
L 80.990625 34.63725 
L 80.990625 27.63725 
L 60.990625 27.63725 
z
" style="fill:#1f77b4;"/>
    </g>
    <g id="text_19">
     <!-- Negative -->
     <defs>
      <path d="M 66.3125 0.984375 
L 58.296875 0.984375 
L 26.515625 49.21875 
Q 22.90625 54.6875 17.828125 64.015625 
L 17.4375 64.015625 
L 17.625 59.328125 
Q 18.109375 43.796875 18.109375 38.578125 
L 18.109375 0.984375 
L 9.515625 0.984375 
L 9.515625 72.40625 
L 21.34375 72.40625 
L 48.640625 30.90625 
Q 53.953125 22.609375 58.015625 15.09375 
L 58.40625 15.09375 
Q 57.71875 29.640625 57.71875 38.578125 
L 57.71875 72.40625 
L 66.3125 72.40625 
z
" id="IPAexGothic-78"/>
      <path d="M 20.796875 17.96875 
Q 15.71875 17.53125 15.71875 14.0625 
Q 15.71875 9.578125 27.546875 8.984375 
L 33.296875 8.6875 
Q 51.609375 7.765625 51.609375 -4.59375 
Q 51.609375 -10.9375 45.703125 -14.984375 
Q 39.359375 -19.578125 28.03125 -19.578125 
Q 17.78125 -19.578125 11.53125 -16.0625 
Q 5.515625 -12.640625 5.515625 -6.6875 
Q 5.515625 1.3125 16.796875 3.859375 
L 16.796875 4.203125 
Q 7.90625 6.453125 7.90625 12.15625 
Q 7.90625 17.4375 15.53125 20.265625 
Q 7.125 24.609375 7.125 34.078125 
Q 7.125 41.40625 12.015625 46.296875 
Q 17.625 51.90625 27.15625 51.90625 
Q 33.203125 51.90625 37.84375 49.265625 
Q 41.40625 53.953125 50.921875 54.109375 
L 50.921875 47.078125 
Q 44.34375 46.921875 42.234375 45.90625 
Q 47.40625 40.828125 47.40625 33.890625 
Q 47.40625 27 42.71875 22.265625 
Q 37.5 17.09375 28.328125 17.09375 
Q 24.421875 17.09375 20.796875 17.96875 
z
M 27.09375 45.609375 
Q 22.015625 45.609375 18.703125 42.28125 
Q 15.4375 39.015625 15.4375 34.078125 
Q 15.4375 29.25 18.5 26.3125 
Q 21.828125 23 27.4375 23 
Q 32.71875 23 35.890625 26.21875 
Q 39.109375 29.390625 39.109375 34.421875 
Q 39.109375 39.015625 35.890625 42.1875 
Q 32.515625 45.609375 27.09375 45.609375 
z
M 27.390625 2.484375 
Q 14.109375 2.484375 14.109375 -5.71875 
Q 14.109375 -13.671875 28.125 -13.671875 
Q 37.15625 -13.671875 41.21875 -9.46875 
Q 43.3125 -7.515625 43.3125 -4.890625 
Q 43.3125 2.484375 27.390625 2.484375 
z
" id="IPAexGothic-103"/>
      <path d="M 33.203125 3.765625 
Q 27.640625 -0.09375 21.828125 -0.09375 
Q 10.203125 -0.09375 10.203125 12.984375 
L 10.203125 44.671875 
L 3.421875 44.671875 
L 3.421875 50.78125 
L 10.203125 50.78125 
L 10.203125 61.96875 
L 18.40625 66.0625 
L 18.40625 50.78125 
L 32.234375 50.78125 
L 32.234375 44.671875 
L 18.40625 44.671875 
L 18.40625 14.15625 
Q 18.40625 6.5 23.640625 6.5 
Q 27.15625 6.5 30.328125 9.1875 
z
" id="IPAexGothic-116"/>
      <path d="M 18.40625 61.375 
L 8.59375 61.375 
L 8.59375 71.390625 
L 18.40625 71.390625 
z
M 17.78125 0.984375 
L 9.1875 0.984375 
L 9.1875 50.78125 
L 17.78125 50.78125 
z
" id="IPAexGothic-105"/>
      <path d="M 48.484375 50.78125 
L 27.296875 0.09375 
L 21.484375 0.09375 
L 0.390625 50.78125 
L 9.8125 50.78125 
L 20.90625 21.6875 
L 23.78125 13.1875 
L 24.515625 10.984375 
L 24.8125 10.984375 
Q 25.640625 13.8125 28.46875 21.6875 
L 39.3125 50.78125 
z
" id="IPAexGothic-118"/>
     </defs>
     <g transform="translate(88.990625 34.63725)scale(0.1 -0.1)">
      <use xlink:href="#IPAexGothic-78"/>
      <use x="75.976562" xlink:href="#IPAexGothic-101"/>
      <use x="132.861328" xlink:href="#IPAexGothic-103"/>
      <use x="188.378906" xlink:href="#IPAexGothic-97"/>
      <use x="243.359375" xlink:href="#IPAexGothic-116"/>
      <use x="277.978516" xlink:href="#IPAexGothic-105"/>
      <use x="304.980469" xlink:href="#IPAexGothic-118"/>
      <use x="353.564453" xlink:href="#IPAexGothic-101"/>
     </g>
    </g>
    <g id="patch_249">
     <path d="M 60.990625 49.085687 
L 80.990625 49.085687 
L 80.990625 42.085687 
L 60.990625 42.085687 
z
" style="fill:#ff7f0e;"/>
    </g>
    <g id="text_20">
     <!-- Positive -->
     <defs>
      <path d="M 9.515625 72.40625 
L 30.328125 72.40625 
Q 57.625 72.40625 57.625 51.90625 
Q 57.625 30.21875 29.78125 30.21875 
L 18.3125 30.21875 
L 18.3125 0.984375 
L 9.515625 0.984375 
z
M 18.3125 37.203125 
L 28.125 37.203125 
Q 48.4375 37.203125 48.4375 51.8125 
Q 48.4375 65.328125 29.59375 65.328125 
L 18.3125 65.328125 
z
" id="IPAexGothic-80"/>
      <path d="M 29.984375 52.203125 
Q 40.53125 52.203125 47.75 45.125 
Q 55.171875 37.703125 55.171875 25.59375 
Q 55.171875 13.875 47.90625 6.59375 
Q 40.765625 -0.484375 29.984375 -0.484375 
Q 19.1875 -0.484375 12.203125 6.5 
Q 4.890625 13.765625 4.890625 25.875 
Q 4.890625 37.703125 12.3125 45.125 
Q 19.390625 52.203125 29.984375 52.203125 
z
M 29.984375 45.609375 
Q 23.734375 45.609375 19.390625 41.109375 
Q 13.875 35.59375 13.875 25.78125 
Q 13.875 16.109375 19.28125 10.6875 
Q 23.6875 6.296875 29.984375 6.296875 
Q 36.421875 6.296875 40.765625 10.796875 
Q 46.1875 16.21875 46.1875 26.125 
Q 46.1875 35.453125 40.671875 41.109375 
Q 36.1875 45.609375 29.984375 45.609375 
z
" id="IPAexGothic-111"/>
      <path d="M 34.90625 39.796875 
Q 30.28125 45.796875 23.1875 45.796875 
Q 13.921875 45.796875 13.921875 38.671875 
Q 13.921875 33.640625 23.921875 30.375 
L 27.203125 29.296875 
Q 41.40625 24.65625 41.40625 13.96875 
Q 41.40625 6.78125 35.5 2.6875 
Q 30.8125 -0.484375 23.390625 -0.484375 
Q 11.96875 -0.484375 4 7.859375 
L 9.421875 12.796875 
Q 15.578125 6.203125 23.6875 6.203125 
Q 33.296875 6.203125 33.296875 13.671875 
Q 33.296875 19.34375 22.703125 23.09375 
L 19.28125 24.265625 
Q 5.90625 28.953125 5.90625 37.984375 
Q 5.90625 43.703125 9.8125 47.609375 
Q 14.5 52.296875 22.703125 52.296875 
Q 33.6875 52.296875 40.71875 44.671875 
z
" id="IPAexGothic-115"/>
     </defs>
     <g transform="translate(88.990625 49.085687)scale(0.1 -0.1)">
      <use xlink:href="#IPAexGothic-80"/>
      <use x="62.109375" xlink:href="#IPAexGothic-111"/>
      <use x="122.509766" xlink:href="#IPAexGothic-115"/>
      <use x="168.701172" xlink:href="#IPAexGothic-105"/>
      <use x="195.703125" xlink:href="#IPAexGothic-116"/>
      <use x="230.322266" xlink:href="#IPAexGothic-105"/>
      <use x="257.324219" xlink:href="#IPAexGothic-118"/>
      <use x="305.908203" xlink:href="#IPAexGothic-101"/>
     </g>
    </g>
   </g>
  </g>
  <g id="text_21">
   <!-- generated: 2020-06-09 17:45:46 JST -->
   <defs>
    <path d="M 52.984375 0.984375 
L 45.171875 0.984375 
L 45.171875 9.671875 
Q 38.140625 -0.484375 27.390625 -0.484375 
Q 18.453125 -0.484375 12.3125 5.8125 
Q 4.890625 13.1875 4.890625 25.984375 
Q 4.890625 38.53125 12.0625 45.90625 
Q 18.265625 52.203125 27.390625 52.203125 
Q 37.25 52.203125 44.484375 43.890625 
L 44.484375 74.90625 
L 52.984375 74.90625 
z
M 44.484375 20.359375 
L 44.484375 32.765625 
Q 44.484375 37.703125 38.375 42.28125 
Q 34.078125 45.40625 28.953125 45.40625 
Q 23.1875 45.40625 19.1875 41.40625 
Q 13.875 36.078125 13.875 26.21875 
Q 13.875 17.328125 18.265625 11.71875 
Q 22.515625 6.390625 28.859375 6.390625 
Q 36.28125 6.390625 41.5 13.671875 
Q 44.484375 17.71875 44.484375 20.359375 
z
" id="IPAexGothic-100"/>
    <path d="M 21.390625 39.984375 
L 10.5 39.984375 
L 10.5 50.78125 
L 21.390625 50.78125 
z
M 21.390625 0.984375 
L 10.5 0.984375 
L 10.5 11.765625 
L 21.390625 11.765625 
z
" id="IPAexGothic-58"/>
    <path id="IPAexGothic-32"/>
    <path d="M 16.5 36.375 
Q 23.578125 46.578125 34.90625 46.578125 
Q 45.40625 46.578125 51.8125 39.265625 
Q 57.421875 32.90625 57.421875 23.78125 
Q 57.421875 13.8125 51.125 6.78125 
Q 44.578125 -0.484375 34.03125 -0.484375 
Q 21.484375 -0.484375 14.40625 9.078125 
Q 7.515625 18.40625 7.515625 34.8125 
Q 7.515625 53.515625 15.828125 64.203125 
Q 23.34375 73.828125 35.5 73.828125 
Q 49.859375 73.828125 56.390625 62.890625 
L 49.21875 58.984375 
Q 45.21875 66.65625 35.9375 66.65625 
Q 17.484375 66.65625 16.109375 36.375 
z
M 33.453125 39.796875 
Q 26.3125 39.796875 21.625 34.46875 
Q 17.4375 29.6875 17.4375 24.078125 
Q 17.4375 18.0625 21.140625 13.1875 
Q 26.125 6.6875 33.734375 6.6875 
Q 41.703125 6.6875 45.953125 13.1875 
Q 48.828125 17.625 48.828125 23.484375 
Q 48.828125 30.375 45.015625 34.8125 
Q 40.625 39.796875 33.453125 39.796875 
z
" id="IPAexGothic-54"/>
    <path d="M 46.625 36.8125 
Q 39.75 26.8125 28.328125 26.8125 
Q 19.578125 26.8125 13.234375 32.125 
Q 5.71875 38.421875 5.71875 49.421875 
Q 5.71875 59.578125 12.015625 66.65625 
Q 18.453125 73.828125 29.203125 73.828125 
Q 43.75 73.828125 50.640625 61.71875 
Q 55.609375 52.78125 55.609375 38.625 
Q 55.609375 19.53125 47.515625 9.1875 
Q 39.890625 -0.484375 27.640625 -0.484375 
Q 13.421875 -0.484375 6.109375 10.984375 
L 13.328125 14.890625 
Q 18.0625 6.6875 27.390625 6.6875 
Q 45.65625 6.6875 47.015625 36.8125 
z
M 29.5 66.84375 
Q 22.65625 66.84375 18.3125 61.71875 
Q 14.40625 57.078125 14.40625 50 
Q 14.40625 42.828125 18.109375 38.71875 
Q 22.40625 33.796875 29.78125 33.796875 
Q 37.984375 33.796875 42.625 40.1875 
Q 45.703125 44.484375 45.703125 49.515625 
Q 45.703125 55.515625 42.09375 60.359375 
Q 37.109375 66.84375 29.5 66.84375 
z
" id="IPAexGothic-57"/>
    <path d="M 56.203125 66.609375 
Q 34.96875 32.90625 27.78125 0.984375 
L 17.671875 0.984375 
Q 24.703125 28.65625 46.09375 64.5 
L 6.6875 64.5 
L 6.6875 72.40625 
L 56.203125 72.40625 
z
" id="IPAexGothic-55"/>
    <path d="M 59.578125 18.109375 
L 47.796875 18.109375 
L 47.796875 0.984375 
L 39.796875 0.984375 
L 39.796875 18.109375 
L 3.078125 18.109375 
L 3.078125 26.125 
L 38.375 73.09375 
L 47.796875 73.09375 
L 47.796875 25.53125 
L 59.578125 25.53125 
z
M 40.28125 64.203125 
L 39.984375 64.203125 
Q 35.59375 57.125 31.296875 51.3125 
L 11.859375 25.53125 
L 39.796875 25.53125 
L 39.796875 49.125 
Q 39.796875 54.390625 40.28125 64.203125 
z
" id="IPAexGothic-52"/>
    <path d="M 45.609375 56.890625 
Q 40.046875 66.546875 28.953125 66.546875 
Q 22.703125 66.546875 18.953125 62.640625 
Q 16.0625 59.421875 16.0625 55.21875 
Q 16.0625 50.59375 19.78125 47.609375 
Q 22.5625 45.515625 31 42 
L 34.375 40.578125 
Q 45.703125 36.03125 49.859375 30.515625 
Q 53.46875 25.6875 53.46875 19.671875 
Q 53.46875 10.0625 46.390625 4.5 
Q 39.984375 -0.484375 30.171875 -0.484375 
Q 13.765625 -0.484375 4.890625 11.96875 
L 11.765625 17.1875 
Q 18.796875 7.171875 30.28125 7.171875 
Q 35.75 7.171875 39.59375 9.765625 
Q 44.390625 13.234375 44.390625 19 
Q 44.390625 23.484375 40.875 27 
Q 37.109375 30.609375 27 34.46875 
L 24.078125 35.59375 
Q 7.078125 42.09375 7.078125 54.390625 
Q 7.078125 62.59375 12.59375 67.921875 
Q 18.796875 73.828125 29.109375 73.828125 
Q 44.390625 73.828125 52.484375 61.8125 
z
" id="IPAexGothic-83"/>
    <path d="M 60.40625 64.703125 
L 33.984375 64.703125 
L 33.984375 0.984375 
L 25.09375 0.984375 
L 25.09375 64.703125 
L -0.484375 64.703125 
L -0.484375 72.40625 
L 60.40625 72.40625 
z
" id="IPAexGothic-84"/>
   </defs>
   <g transform="translate(232.87625 14.690625)scale(0.1 -0.1)">
    <use xlink:href="#IPAexGothic-103"/>
    <use x="55.517578" xlink:href="#IPAexGothic-101"/>
    <use x="112.402344" xlink:href="#IPAexGothic-110"/>
    <use x="172.802734" xlink:href="#IPAexGothic-101"/>
    <use x="229.6875" xlink:href="#IPAexGothic-114"/>
    <use x="266.699219" xlink:href="#IPAexGothic-97"/>
    <use x="321.679688" xlink:href="#IPAexGothic-116"/>
    <use x="356.298828" xlink:href="#IPAexGothic-101"/>
    <use x="413.183594" xlink:href="#IPAexGothic-100"/>
    <use x="475.585938" xlink:href="#IPAexGothic-58"/>
    <use x="507.568359" xlink:href="#IPAexGothic-32"/>
    <use x="534.570312" xlink:href="#IPAexGothic-50"/>
    <use x="597.558594" xlink:href="#IPAexGothic-48"/>
    <use x="660.546875" xlink:href="#IPAexGothic-50"/>
    <use x="723.535156" xlink:href="#IPAexGothic-48"/>
    <use x="786.523438" xlink:href="#IPAexGothic-45"/>
    <use x="822.314453" xlink:href="#IPAexGothic-48"/>
    <use x="885.302734" xlink:href="#IPAexGothic-54"/>
    <use x="948.291016" xlink:href="#IPAexGothic-45"/>
    <use x="984.082031" xlink:href="#IPAexGothic-48"/>
    <use x="1047.070312" xlink:href="#IPAexGothic-57"/>
    <use x="1110.058594" xlink:href="#IPAexGothic-32"/>
    <use x="1137.060547" xlink:href="#IPAexGothic-49"/>
    <use x="1200.048828" xlink:href="#IPAexGothic-55"/>
    <use x="1263.037109" xlink:href="#IPAexGothic-58"/>
    <use x="1295.019531" xlink:href="#IPAexGothic-52"/>
    <use x="1358.007812" xlink:href="#IPAexGothic-53"/>
    <use x="1420.996094" xlink:href="#IPAexGothic-58"/>
    <use x="1452.978516" xlink:href="#IPAexGothic-52"/>
    <use x="1515.966797" xlink:href="#IPAexGothic-54"/>
    <use x="1578.955078" xlink:href="#IPAexGothic-32"/>
    <use x="1605.957031" xlink:href="#IPAexGothic-74"/>
    <use x="1643.945312" xlink:href="#IPAexGothic-83"/>
    <use x="1702.441406" xlink:href="#IPAexGothic-84"/>
   </g>
  </g>
 </g>
 <defs>
  <clipPath id="p0f133c748b">
   <rect height="266.112" width="357.12" x="51.990625" y="18.146625"/>
  </clipPath>
 </defs>
</svg>
