<?xml version="1.0" encoding="utf-8" standalone="no"?>
<!DOCTYPE svg PUBLIC "-//W3C//DTD SVG 1.1//EN"
  "http://www.w3.org/Graphics/SVG/1.1/DTD/svg11.dtd">
<!-- Created with matplotlib (https://matplotlib.org/) -->
<svg height="309.29325pt" version="1.1" viewBox="0 0 403.71375 309.29325" width="403.71375pt" xmlns="http://www.w3.org/2000/svg" xmlns:xlink="http://www.w3.org/1999/xlink">
 <defs>
  <style type="text/css">
*{stroke-linecap:butt;stroke-linejoin:round;}
  </style>
 </defs>
 <g id="figure_1">
  <g id="patch_1">
   <path d="M 0 309.29325 
L 403.71375 309.29325 
L 403.71375 0 
L 0 0 
z
" style="fill:#ffffff;"/>
  </g>
  <g id="axes_1">
   <g id="patch_2">
    <path d="M 39.39375 273.312 
L 396.51375 273.312 
L 396.51375 7.2 
L 39.39375 7.2 
z
" style="fill:#ffffff;"/>
   </g>
   <g id="line2d_1">
    <path clip-path="url(#p24b6ecba2a)" d="M 39.39375 19.872 
L 396.51375 19.872 
" style="fill:none;stroke:#808080;stroke-dasharray:5.55,2.4;stroke-dashoffset:0;stroke-width:1.5;"/>
   </g>
   <g id="line2d_2">
    <path clip-path="url(#p24b6ecba2a)" d="M 39.39375 146.592 
L 396.51375 146.592 
" style="fill:none;stroke:#808080;stroke-dasharray:5.55,2.4;stroke-dashoffset:0;stroke-width:1.5;"/>
   </g>
   <g id="patch_3">
    <path clip-path="url(#p24b6ecba2a)" d="M 55.626477 273.312 
L 57.928992 273.312 
L 57.928992 273.261674 
L 55.626477 273.261674 
z
" style="fill:#1f77b4;"/>
   </g>
   <g id="patch_4">
    <path clip-path="url(#p24b6ecba2a)" d="M 58.50462 273.312 
L 60.807135 273.312 
L 60.807135 273.211349 
L 58.50462 273.211349 
z
" style="fill:#1f77b4;"/>
   </g>
   <g id="patch_5">
    <path clip-path="url(#p24b6ecba2a)" d="M 61.382764 273.312 
L 63.685278 273.312 
L 63.685278 273.211349 
L 61.382764 273.211349 
z
" style="fill:#1f77b4;"/>
   </g>
   <g id="patch_6">
    <path clip-path="url(#p24b6ecba2a)" d="M 64.260907 273.312 
L 66.563421 273.312 
L 66.563421 273.211349 
L 64.260907 273.211349 
z
" style="fill:#1f77b4;"/>
   </g>
   <g id="patch_7">
    <path clip-path="url(#p24b6ecba2a)" d="M 67.13905 273.312 
L 69.441564 273.312 
L 69.441564 273.211349 
L 67.13905 273.211349 
z
" style="fill:#1f77b4;"/>
   </g>
   <g id="patch_8">
    <path clip-path="url(#p24b6ecba2a)" d="M 70.017193 273.312 
L 72.319707 273.312 
L 72.319707 273.211349 
L 70.017193 273.211349 
z
" style="fill:#1f77b4;"/>
   </g>
   <g id="patch_9">
    <path clip-path="url(#p24b6ecba2a)" d="M 72.895336 273.312 
L 75.197851 273.312 
L 75.197851 273.161023 
L 72.895336 273.161023 
z
" style="fill:#1f77b4;"/>
   </g>
   <g id="patch_10">
    <path clip-path="url(#p24b6ecba2a)" d="M 75.773479 273.312 
L 78.075994 273.312 
L 78.075994 273.161023 
L 75.773479 273.161023 
z
" style="fill:#1f77b4;"/>
   </g>
   <g id="patch_11">
    <path clip-path="url(#p24b6ecba2a)" d="M 78.651622 273.312 
L 80.954137 273.312 
L 80.954137 273.161023 
L 78.651622 273.161023 
z
" style="fill:#1f77b4;"/>
   </g>
   <g id="patch_12">
    <path clip-path="url(#p24b6ecba2a)" d="M 81.529765 273.312 
L 83.83228 273.312 
L 83.83228 273.161023 
L 81.529765 273.161023 
z
" style="fill:#1f77b4;"/>
   </g>
   <g id="patch_13">
    <path clip-path="url(#p24b6ecba2a)" d="M 84.407909 273.312 
L 86.710423 273.312 
L 86.710423 273.161023 
L 84.407909 273.161023 
z
" style="fill:#1f77b4;"/>
   </g>
   <g id="patch_14">
    <path clip-path="url(#p24b6ecba2a)" d="M 87.286052 273.312 
L 89.588566 273.312 
L 89.588566 273.161023 
L 87.286052 273.161023 
z
" style="fill:#1f77b4;"/>
   </g>
   <g id="patch_15">
    <path clip-path="url(#p24b6ecba2a)" d="M 90.164195 273.312 
L 92.466709 273.312 
L 92.466709 273.161023 
L 90.164195 273.161023 
z
" style="fill:#1f77b4;"/>
   </g>
   <g id="patch_16">
    <path clip-path="url(#p24b6ecba2a)" d="M 93.042338 273.312 
L 95.344853 273.312 
L 95.344853 273.161023 
L 93.042338 273.161023 
z
" style="fill:#1f77b4;"/>
   </g>
   <g id="patch_17">
    <path clip-path="url(#p24b6ecba2a)" d="M 95.920481 273.312 
L 98.222996 273.312 
L 98.222996 273.161023 
L 95.920481 273.161023 
z
" style="fill:#1f77b4;"/>
   </g>
   <g id="patch_18">
    <path clip-path="url(#p24b6ecba2a)" d="M 98.798624 273.312 
L 101.101139 273.312 
L 101.101139 273.161023 
L 98.798624 273.161023 
z
" style="fill:#1f77b4;"/>
   </g>
   <g id="patch_19">
    <path clip-path="url(#p24b6ecba2a)" d="M 101.676767 273.312 
L 103.979282 273.312 
L 103.979282 273.161023 
L 101.676767 273.161023 
z
" style="fill:#1f77b4;"/>
   </g>
   <g id="patch_20">
    <path clip-path="url(#p24b6ecba2a)" d="M 104.554911 273.312 
L 106.857425 273.312 
L 106.857425 273.161023 
L 104.554911 273.161023 
z
" style="fill:#1f77b4;"/>
   </g>
   <g id="patch_21">
    <path clip-path="url(#p24b6ecba2a)" d="M 107.433054 273.312 
L 109.735568 273.312 
L 109.735568 273.161023 
L 107.433054 273.161023 
z
" style="fill:#1f77b4;"/>
   </g>
   <g id="patch_22">
    <path clip-path="url(#p24b6ecba2a)" d="M 110.311197 273.312 
L 112.613711 273.312 
L 112.613711 273.161023 
L 110.311197 273.161023 
z
" style="fill:#1f77b4;"/>
   </g>
   <g id="patch_23">
    <path clip-path="url(#p24b6ecba2a)" d="M 113.18934 273.312 
L 115.491854 273.312 
L 115.491854 273.110697 
L 113.18934 273.110697 
z
" style="fill:#1f77b4;"/>
   </g>
   <g id="patch_24">
    <path clip-path="url(#p24b6ecba2a)" d="M 116.067483 273.312 
L 118.369998 273.312 
L 118.369998 273.010046 
L 116.067483 273.010046 
z
" style="fill:#1f77b4;"/>
   </g>
   <g id="patch_25">
    <path clip-path="url(#p24b6ecba2a)" d="M 118.945626 273.312 
L 121.248141 273.312 
L 121.248141 272.607441 
L 118.945626 272.607441 
z
" style="fill:#1f77b4;"/>
   </g>
   <g id="patch_26">
    <path clip-path="url(#p24b6ecba2a)" d="M 121.823769 273.312 
L 124.126284 273.312 
L 124.126284 272.355813 
L 121.823769 272.355813 
z
" style="fill:#1f77b4;"/>
   </g>
   <g id="patch_27">
    <path clip-path="url(#p24b6ecba2a)" d="M 124.701912 273.312 
L 127.004427 273.312 
L 127.004427 272.355813 
L 124.701912 272.355813 
z
" style="fill:#1f77b4;"/>
   </g>
   <g id="patch_28">
    <path clip-path="url(#p24b6ecba2a)" d="M 127.580056 273.312 
L 129.88257 273.312 
L 129.88257 272.204836 
L 127.580056 272.204836 
z
" style="fill:#1f77b4;"/>
   </g>
   <g id="patch_29">
    <path clip-path="url(#p24b6ecba2a)" d="M 130.458199 273.312 
L 132.760713 273.312 
L 132.760713 272.053859 
L 130.458199 272.053859 
z
" style="fill:#1f77b4;"/>
   </g>
   <g id="patch_30">
    <path clip-path="url(#p24b6ecba2a)" d="M 133.336342 273.312 
L 135.638856 273.312 
L 135.638856 272.053859 
L 133.336342 272.053859 
z
" style="fill:#1f77b4;"/>
   </g>
   <g id="patch_31">
    <path clip-path="url(#p24b6ecba2a)" d="M 136.214485 273.312 
L 138.517 273.312 
L 138.517 271.902882 
L 136.214485 271.902882 
z
" style="fill:#1f77b4;"/>
   </g>
   <g id="patch_32">
    <path clip-path="url(#p24b6ecba2a)" d="M 139.092628 273.312 
L 141.395143 273.312 
L 141.395143 271.852556 
L 139.092628 271.852556 
z
" style="fill:#1f77b4;"/>
   </g>
   <g id="patch_33">
    <path clip-path="url(#p24b6ecba2a)" d="M 141.970771 273.312 
L 144.273286 273.312 
L 144.273286 271.852556 
L 141.970771 271.852556 
z
" style="fill:#1f77b4;"/>
   </g>
   <g id="patch_34">
    <path clip-path="url(#p24b6ecba2a)" d="M 144.848914 273.312 
L 147.151429 273.312 
L 147.151429 271.701579 
L 144.848914 271.701579 
z
" style="fill:#1f77b4;"/>
   </g>
   <g id="patch_35">
    <path clip-path="url(#p24b6ecba2a)" d="M 147.727058 273.312 
L 150.029572 273.312 
L 150.029572 271.701579 
L 147.727058 271.701579 
z
" style="fill:#1f77b4;"/>
   </g>
   <g id="patch_36">
    <path clip-path="url(#p24b6ecba2a)" d="M 150.605201 273.312 
L 152.907715 273.312 
L 152.907715 271.550602 
L 150.605201 271.550602 
z
" style="fill:#1f77b4;"/>
   </g>
   <g id="patch_37">
    <path clip-path="url(#p24b6ecba2a)" d="M 153.483344 273.312 
L 155.785858 273.312 
L 155.785858 271.500276 
L 153.483344 271.500276 
z
" style="fill:#1f77b4;"/>
   </g>
   <g id="patch_38">
    <path clip-path="url(#p24b6ecba2a)" d="M 156.361487 273.312 
L 158.664001 273.312 
L 158.664001 271.500276 
L 156.361487 271.500276 
z
" style="fill:#1f77b4;"/>
   </g>
   <g id="patch_39">
    <path clip-path="url(#p24b6ecba2a)" d="M 159.23963 273.312 
L 161.542145 273.312 
L 161.542145 271.449951 
L 159.23963 271.449951 
z
" style="fill:#1f77b4;"/>
   </g>
   <g id="patch_40">
    <path clip-path="url(#p24b6ecba2a)" d="M 162.117773 273.312 
L 164.420288 273.312 
L 164.420288 271.349299 
L 162.117773 271.349299 
z
" style="fill:#1f77b4;"/>
   </g>
   <g id="patch_41">
    <path clip-path="url(#p24b6ecba2a)" d="M 164.995916 273.312 
L 167.298431 273.312 
L 167.298431 271.349299 
L 164.995916 271.349299 
z
" style="fill:#1f77b4;"/>
   </g>
   <g id="patch_42">
    <path clip-path="url(#p24b6ecba2a)" d="M 167.874059 273.312 
L 170.176574 273.312 
L 170.176574 271.298974 
L 167.874059 271.298974 
z
" style="fill:#1f77b4;"/>
   </g>
   <g id="patch_43">
    <path clip-path="url(#p24b6ecba2a)" d="M 170.752203 273.312 
L 173.054717 273.312 
L 173.054717 271.097671 
L 170.752203 271.097671 
z
" style="fill:#1f77b4;"/>
   </g>
   <g id="patch_44">
    <path clip-path="url(#p24b6ecba2a)" d="M 173.630346 273.312 
L 175.93286 273.312 
L 175.93286 270.695066 
L 173.630346 270.695066 
z
" style="fill:#1f77b4;"/>
   </g>
   <g id="patch_45">
    <path clip-path="url(#p24b6ecba2a)" d="M 176.508489 273.312 
L 178.811003 273.312 
L 178.811003 270.393112 
L 176.508489 270.393112 
z
" style="fill:#1f77b4;"/>
   </g>
   <g id="patch_46">
    <path clip-path="url(#p24b6ecba2a)" d="M 179.386632 273.312 
L 181.689147 273.312 
L 181.689147 270.091158 
L 179.386632 270.091158 
z
" style="fill:#1f77b4;"/>
   </g>
   <g id="patch_47">
    <path clip-path="url(#p24b6ecba2a)" d="M 182.264775 273.312 
L 184.56729 273.312 
L 184.56729 270.091158 
L 182.264775 270.091158 
z
" style="fill:#1f77b4;"/>
   </g>
   <g id="patch_48">
    <path clip-path="url(#p24b6ecba2a)" d="M 185.142918 273.312 
L 187.445433 273.312 
L 187.445433 270.091158 
L 185.142918 270.091158 
z
" style="fill:#1f77b4;"/>
   </g>
   <g id="patch_49">
    <path clip-path="url(#p24b6ecba2a)" d="M 188.021061 273.312 
L 190.323576 273.312 
L 190.323576 269.940181 
L 188.021061 269.940181 
z
" style="fill:#1f77b4;"/>
   </g>
   <g id="patch_50">
    <path clip-path="url(#p24b6ecba2a)" d="M 190.899205 273.312 
L 193.201719 273.312 
L 193.201719 269.638227 
L 190.899205 269.638227 
z
" style="fill:#1f77b4;"/>
   </g>
   <g id="patch_51">
    <path clip-path="url(#p24b6ecba2a)" d="M 193.777348 273.312 
L 196.079862 273.312 
L 196.079862 269.537576 
L 193.777348 269.537576 
z
" style="fill:#1f77b4;"/>
   </g>
   <g id="patch_52">
    <path clip-path="url(#p24b6ecba2a)" d="M 196.655491 273.312 
L 198.958005 273.312 
L 198.958005 269.436925 
L 196.655491 269.436925 
z
" style="fill:#1f77b4;"/>
   </g>
   <g id="patch_53">
    <path clip-path="url(#p24b6ecba2a)" d="M 199.533634 273.312 
L 201.836148 273.312 
L 201.836148 268.933668 
L 199.533634 268.933668 
z
" style="fill:#1f77b4;"/>
   </g>
   <g id="patch_54">
    <path clip-path="url(#p24b6ecba2a)" d="M 202.411777 273.312 
L 204.714292 273.312 
L 204.714292 268.782691 
L 202.411777 268.782691 
z
" style="fill:#1f77b4;"/>
   </g>
   <g id="patch_55">
    <path clip-path="url(#p24b6ecba2a)" d="M 205.28992 273.312 
L 207.592435 273.312 
L 207.592435 268.782691 
L 205.28992 268.782691 
z
" style="fill:#1f77b4;"/>
   </g>
   <g id="patch_56">
    <path clip-path="url(#p24b6ecba2a)" d="M 208.168063 273.312 
L 210.470578 273.312 
L 210.470578 268.178783 
L 208.168063 268.178783 
z
" style="fill:#1f77b4;"/>
   </g>
   <g id="patch_57">
    <path clip-path="url(#p24b6ecba2a)" d="M 211.046206 273.312 
L 213.348721 273.312 
L 213.348721 267.725852 
L 211.046206 267.725852 
z
" style="fill:#1f77b4;"/>
   </g>
   <g id="patch_58">
    <path clip-path="url(#p24b6ecba2a)" d="M 213.92435 273.312 
L 216.226864 273.312 
L 216.226864 267.373573 
L 213.92435 267.373573 
z
" style="fill:#1f77b4;"/>
   </g>
   <g id="patch_59">
    <path clip-path="url(#p24b6ecba2a)" d="M 216.802493 273.312 
L 219.105007 273.312 
L 219.105007 266.81999 
L 216.802493 266.81999 
z
" style="fill:#1f77b4;"/>
   </g>
   <g id="patch_60">
    <path clip-path="url(#p24b6ecba2a)" d="M 219.680636 273.312 
L 221.98315 273.312 
L 221.98315 266.467711 
L 219.680636 266.467711 
z
" style="fill:#1f77b4;"/>
   </g>
   <g id="patch_61">
    <path clip-path="url(#p24b6ecba2a)" d="M 222.558779 273.312 
L 224.861294 273.312 
L 224.861294 266.316734 
L 222.558779 266.316734 
z
" style="fill:#1f77b4;"/>
   </g>
   <g id="patch_62">
    <path clip-path="url(#p24b6ecba2a)" d="M 225.436922 273.312 
L 227.739437 273.312 
L 227.739437 265.511523 
L 225.436922 265.511523 
z
" style="fill:#1f77b4;"/>
   </g>
   <g id="patch_63">
    <path clip-path="url(#p24b6ecba2a)" d="M 228.315065 273.312 
L 230.61758 273.312 
L 230.61758 264.605662 
L 228.315065 264.605662 
z
" style="fill:#1f77b4;"/>
   </g>
   <g id="patch_64">
    <path clip-path="url(#p24b6ecba2a)" d="M 231.193208 273.312 
L 233.495723 273.312 
L 233.495723 262.54231 
L 231.193208 262.54231 
z
" style="fill:#1f77b4;"/>
   </g>
   <g id="patch_65">
    <path clip-path="url(#p24b6ecba2a)" d="M 234.071352 273.312 
L 236.373866 273.312 
L 236.373866 260.177004 
L 234.071352 260.177004 
z
" style="fill:#1f77b4;"/>
   </g>
   <g id="patch_66">
    <path clip-path="url(#p24b6ecba2a)" d="M 236.949495 273.312 
L 239.252009 273.312 
L 239.252009 258.163978 
L 236.949495 258.163978 
z
" style="fill:#1f77b4;"/>
   </g>
   <g id="patch_67">
    <path clip-path="url(#p24b6ecba2a)" d="M 239.827638 273.312 
L 242.130152 273.312 
L 242.130152 254.943136 
L 239.827638 254.943136 
z
" style="fill:#1f77b4;"/>
   </g>
   <g id="patch_68">
    <path clip-path="url(#p24b6ecba2a)" d="M 242.705781 273.312 
L 245.008295 273.312 
L 245.008295 251.319689 
L 242.705781 251.319689 
z
" style="fill:#1f77b4;"/>
   </g>
   <g id="patch_69">
    <path clip-path="url(#p24b6ecba2a)" d="M 245.583924 273.312 
L 247.886439 273.312 
L 247.886439 250.715781 
L 245.583924 250.715781 
z
" style="fill:#1f77b4;"/>
   </g>
   <g id="patch_70">
    <path clip-path="url(#p24b6ecba2a)" d="M 248.462067 273.312 
L 250.764582 273.312 
L 250.764582 246.740054 
L 248.462067 246.740054 
z
" style="fill:#1f77b4;"/>
   </g>
   <g id="patch_71">
    <path clip-path="url(#p24b6ecba2a)" d="M 251.34021 273.312 
L 253.642725 273.312 
L 253.642725 243.368235 
L 251.34021 243.368235 
z
" style="fill:#1f77b4;"/>
   </g>
   <g id="patch_72">
    <path clip-path="url(#p24b6ecba2a)" d="M 254.218353 273.312 
L 256.520868 273.312 
L 256.520868 238.385995 
L 254.218353 238.385995 
z
" style="fill:#1f77b4;"/>
   </g>
   <g id="patch_73">
    <path clip-path="url(#p24b6ecba2a)" d="M 257.096497 273.312 
L 259.399011 273.312 
L 259.399011 233.756035 
L 257.096497 233.756035 
z
" style="fill:#1f77b4;"/>
   </g>
   <g id="patch_74">
    <path clip-path="url(#p24b6ecba2a)" d="M 259.97464 273.312 
L 262.277154 273.312 
L 262.277154 227.817608 
L 259.97464 227.817608 
z
" style="fill:#1f77b4;"/>
   </g>
   <g id="patch_75">
    <path clip-path="url(#p24b6ecba2a)" d="M 262.852783 273.312 
L 265.155297 273.312 
L 265.155297 220.72169 
L 262.852783 220.72169 
z
" style="fill:#1f77b4;"/>
   </g>
   <g id="patch_76">
    <path clip-path="url(#p24b6ecba2a)" d="M 265.730926 273.312 
L 268.033441 273.312 
L 268.033441 216.44401 
L 265.730926 216.44401 
z
" style="fill:#1f77b4;"/>
   </g>
   <g id="patch_77">
    <path clip-path="url(#p24b6ecba2a)" d="M 268.609069 273.312 
L 270.911584 273.312 
L 270.911584 212.116003 
L 268.609069 212.116003 
z
" style="fill:#1f77b4;"/>
   </g>
   <g id="patch_78">
    <path clip-path="url(#p24b6ecba2a)" d="M 271.487212 273.312 
L 273.789727 273.312 
L 273.789727 204.214875 
L 271.487212 204.214875 
z
" style="fill:#1f77b4;"/>
   </g>
   <g id="patch_79">
    <path clip-path="url(#p24b6ecba2a)" d="M 274.365355 273.312 
L 276.66787 273.312 
L 276.66787 195.00528 
L 274.365355 195.00528 
z
" style="fill:#1f77b4;"/>
   </g>
   <g id="patch_80">
    <path clip-path="url(#p24b6ecba2a)" d="M 277.243499 273.312 
L 279.546013 273.312 
L 279.546013 184.940149 
L 277.243499 184.940149 
z
" style="fill:#1f77b4;"/>
   </g>
   <g id="patch_81">
    <path clip-path="url(#p24b6ecba2a)" d="M 280.121642 273.312 
L 282.424156 273.312 
L 282.424156 174.97567 
L 280.121642 174.97567 
z
" style="fill:#1f77b4;"/>
   </g>
   <g id="patch_82">
    <path clip-path="url(#p24b6ecba2a)" d="M 282.999785 273.312 
L 285.302299 273.312 
L 285.302299 166.369983 
L 282.999785 166.369983 
z
" style="fill:#1f77b4;"/>
   </g>
   <g id="patch_83">
    <path clip-path="url(#p24b6ecba2a)" d="M 285.877928 273.312 
L 288.180442 273.312 
L 288.180442 161.438068 
L 285.877928 161.438068 
z
" style="fill:#1f77b4;"/>
   </g>
   <g id="patch_84">
    <path clip-path="url(#p24b6ecba2a)" d="M 288.756071 273.312 
L 291.058586 273.312 
L 291.058586 153.385963 
L 288.756071 153.385963 
z
" style="fill:#1f77b4;"/>
   </g>
   <g id="patch_85">
    <path clip-path="url(#p24b6ecba2a)" d="M 291.634214 273.312 
L 293.936729 273.312 
L 293.936729 146.994605 
L 291.634214 146.994605 
z
" style="fill:#1f77b4;"/>
   </g>
   <g id="patch_86">
    <path clip-path="url(#p24b6ecba2a)" d="M 294.512357 273.312 
L 296.814872 273.312 
L 296.814872 139.445757 
L 294.512357 139.445757 
z
" style="fill:#1f77b4;"/>
   </g>
   <g id="patch_87">
    <path clip-path="url(#p24b6ecba2a)" d="M 297.3905 273.312 
L 299.693015 273.312 
L 299.693015 129.179323 
L 297.3905 129.179323 
z
" style="fill:#1f77b4;"/>
   </g>
   <g id="patch_88">
    <path clip-path="url(#p24b6ecba2a)" d="M 300.268644 273.312 
L 302.571158 273.312 
L 302.571158 119.869077 
L 300.268644 119.869077 
z
" style="fill:#1f77b4;"/>
   </g>
   <g id="patch_89">
    <path clip-path="url(#p24b6ecba2a)" d="M 303.146787 273.312 
L 305.449301 273.312 
L 305.449301 114.484232 
L 303.146787 114.484232 
z
" style="fill:#1f77b4;"/>
   </g>
   <g id="patch_90">
    <path clip-path="url(#p24b6ecba2a)" d="M 306.02493 273.312 
L 308.327444 273.312 
L 308.327444 109.451666 
L 306.02493 109.451666 
z
" style="fill:#1f77b4;"/>
   </g>
   <g id="patch_91">
    <path clip-path="url(#p24b6ecba2a)" d="M 308.903073 273.312 
L 311.205588 273.312 
L 311.205588 103.261611 
L 308.903073 103.261611 
z
" style="fill:#1f77b4;"/>
   </g>
   <g id="patch_92">
    <path clip-path="url(#p24b6ecba2a)" d="M 311.781216 273.312 
L 314.083731 273.312 
L 314.083731 96.970904 
L 311.781216 96.970904 
z
" style="fill:#1f77b4;"/>
   </g>
   <g id="patch_93">
    <path clip-path="url(#p24b6ecba2a)" d="M 314.659359 273.312 
L 316.961874 273.312 
L 316.961874 90.227266 
L 314.659359 90.227266 
z
" style="fill:#1f77b4;"/>
   </g>
   <g id="patch_94">
    <path clip-path="url(#p24b6ecba2a)" d="M 317.537502 273.312 
L 319.840017 273.312 
L 319.840017 81.873207 
L 317.537502 81.873207 
z
" style="fill:#1f77b4;"/>
   </g>
   <g id="patch_95">
    <path clip-path="url(#p24b6ecba2a)" d="M 320.415646 273.312 
L 322.71816 273.312 
L 322.71816 76.488362 
L 320.415646 76.488362 
z
" style="fill:#1f77b4;"/>
   </g>
   <g id="patch_96">
    <path clip-path="url(#p24b6ecba2a)" d="M 323.293789 273.312 
L 325.596303 273.312 
L 325.596303 72.663612 
L 323.293789 72.663612 
z
" style="fill:#1f77b4;"/>
   </g>
   <g id="patch_97">
    <path clip-path="url(#p24b6ecba2a)" d="M 326.171932 273.312 
L 328.474446 273.312 
L 328.474446 70.650586 
L 326.171932 70.650586 
z
" style="fill:#1f77b4;"/>
   </g>
   <g id="patch_98">
    <path clip-path="url(#p24b6ecba2a)" d="M 329.050075 273.312 
L 331.352589 273.312 
L 331.352589 65.014113 
L 329.050075 65.014113 
z
" style="fill:#1f77b4;"/>
   </g>
   <g id="patch_99">
    <path clip-path="url(#p24b6ecba2a)" d="M 331.928218 273.312 
L 334.230733 273.312 
L 334.230733 62.648807 
L 331.928218 62.648807 
z
" style="fill:#1f77b4;"/>
   </g>
   <g id="patch_100">
    <path clip-path="url(#p24b6ecba2a)" d="M 334.806361 273.312 
L 337.108876 273.312 
L 337.108876 60.333827 
L 334.806361 60.333827 
z
" style="fill:#1f77b4;"/>
   </g>
   <g id="patch_101">
    <path clip-path="url(#p24b6ecba2a)" d="M 337.684504 273.312 
L 339.987019 273.312 
L 339.987019 52.080419 
L 337.684504 52.080419 
z
" style="fill:#1f77b4;"/>
   </g>
   <g id="patch_102">
    <path clip-path="url(#p24b6ecba2a)" d="M 340.562647 273.312 
L 342.865162 273.312 
L 342.865162 44.179292 
L 340.562647 44.179292 
z
" style="fill:#1f77b4;"/>
   </g>
   <g id="patch_103">
    <path clip-path="url(#p24b6ecba2a)" d="M 343.440791 273.312 
L 345.743305 273.312 
L 345.743305 39.649983 
L 343.440791 39.649983 
z
" style="fill:#1f77b4;"/>
   </g>
   <g id="patch_104">
    <path clip-path="url(#p24b6ecba2a)" d="M 346.318934 273.312 
L 348.621448 273.312 
L 348.621448 35.271651 
L 346.318934 35.271651 
z
" style="fill:#1f77b4;"/>
   </g>
   <g id="patch_105">
    <path clip-path="url(#p24b6ecba2a)" d="M 349.197077 273.312 
L 351.499591 273.312 
L 351.499591 32.403088 
L 349.197077 32.403088 
z
" style="fill:#1f77b4;"/>
   </g>
   <g id="patch_106">
    <path clip-path="url(#p24b6ecba2a)" d="M 352.07522 273.312 
L 354.377735 273.312 
L 354.377735 30.541039 
L 352.07522 30.541039 
z
" style="fill:#1f77b4;"/>
   </g>
   <g id="patch_107">
    <path clip-path="url(#p24b6ecba2a)" d="M 354.953363 273.312 
L 357.255878 273.312 
L 357.255878 29.383549 
L 354.953363 29.383549 
z
" style="fill:#1f77b4;"/>
   </g>
   <g id="patch_108">
    <path clip-path="url(#p24b6ecba2a)" d="M 357.831506 273.312 
L 360.134021 273.312 
L 360.134021 27.420848 
L 357.831506 27.420848 
z
" style="fill:#1f77b4;"/>
   </g>
   <g id="patch_109">
    <path clip-path="url(#p24b6ecba2a)" d="M 360.709649 273.312 
L 363.012164 273.312 
L 363.012164 25.609125 
L 360.709649 25.609125 
z
" style="fill:#1f77b4;"/>
   </g>
   <g id="patch_110">
    <path clip-path="url(#p24b6ecba2a)" d="M 363.587793 273.312 
L 365.890307 273.312 
L 365.890307 24.50196 
L 363.587793 24.50196 
z
" style="fill:#1f77b4;"/>
   </g>
   <g id="patch_111">
    <path clip-path="url(#p24b6ecba2a)" d="M 366.465936 273.312 
L 368.76845 273.312 
L 368.76845 23.747075 
L 366.465936 23.747075 
z
" style="fill:#1f77b4;"/>
   </g>
   <g id="patch_112">
    <path clip-path="url(#p24b6ecba2a)" d="M 369.344079 273.312 
L 371.646593 273.312 
L 371.646593 22.337957 
L 369.344079 22.337957 
z
" style="fill:#1f77b4;"/>
   </g>
   <g id="patch_113">
    <path clip-path="url(#p24b6ecba2a)" d="M 372.222222 273.312 
L 374.524736 273.312 
L 374.524736 21.834701 
L 372.222222 21.834701 
z
" style="fill:#1f77b4;"/>
   </g>
   <g id="patch_114">
    <path clip-path="url(#p24b6ecba2a)" d="M 375.100365 273.312 
L 377.40288 273.312 
L 377.40288 20.324931 
L 375.100365 20.324931 
z
" style="fill:#1f77b4;"/>
   </g>
   <g id="patch_115">
    <path clip-path="url(#p24b6ecba2a)" d="M 377.978508 273.312 
L 380.281023 273.312 
L 380.281023 19.872 
L 377.978508 19.872 
z
" style="fill:#1f77b4;"/>
   </g>
   <g id="matplotlib.axis_1">
    <g id="xtick_1">
     <g id="line2d_3">
      <defs>
       <path d="M 0 0 
L 0 3.5 
" id="ma530501390" style="stroke:#000000;stroke-width:0.8;"/>
      </defs>
      <g>
       <use style="stroke:#000000;stroke-width:0.8;" x="78.651622" xlink:href="#ma530501390" y="273.312"/>
      </g>
     </g>
     <g id="text_1">
      <!-- Feb -->
      <defs>
       <path d="M 54.203125 64.703125 
L 18.3125 64.703125 
L 18.3125 41.5 
L 50.09375 41.5 
L 50.09375 34.1875 
L 18.3125 34.1875 
L 18.3125 0.984375 
L 9.515625 0.984375 
L 9.515625 72.40625 
L 54.203125 72.40625 
z
" id="IPAexGothic-70"/>
       <path d="M 13.484375 24.90625 
Q 13.921875 16.265625 18.890625 11.28125 
Q 23.96875 6.203125 31.203125 6.203125 
Q 40.71875 6.203125 46.296875 15.09375 
L 51.90625 11.375 
Q 44.828125 -0.484375 30.171875 -0.484375 
Q 19.09375 -0.484375 11.96875 6.59375 
Q 4.78125 13.8125 4.78125 25.640625 
Q 4.78125 38.1875 12.3125 45.703125 
Q 19 52.390625 29 52.390625 
Q 38.421875 52.390625 44.78125 46.1875 
Q 51.90625 38.96875 51.90625 26.90625 
L 51.90625 24.90625 
z
M 43.0625 31.203125 
Q 42.328125 37.984375 38.28125 41.890625 
Q 34.28125 45.90625 28.8125 45.90625 
Q 22.46875 45.90625 17.96875 40.484375 
Q 14.890625 36.8125 13.96875 31.203125 
z
" id="IPAexGothic-101"/>
       <path d="M 17.578125 42.671875 
Q 24.21875 52.203125 34.671875 52.203125 
Q 43.5625 52.203125 49.859375 45.90625 
Q 57.171875 38.578125 57.171875 25.6875 
Q 57.171875 13.09375 49.859375 5.8125 
Q 43.5625 -0.484375 34.46875 -0.484375 
Q 24.359375 -0.484375 17 8.0625 
L 15.765625 0.6875 
L 9.078125 0.6875 
L 9.078125 74.90625 
L 17.578125 74.90625 
z
M 17.578125 31.203125 
L 17.578125 19.578125 
Q 17.578125 13.875 23.875 9.375 
Q 28.171875 6.296875 33.109375 6.296875 
Q 38.875 6.296875 42.875 10.296875 
Q 48.1875 15.765625 48.1875 25.484375 
Q 48.1875 34.28125 43.796875 39.890625 
Q 39.453125 45.3125 33.203125 45.3125 
Q 27.484375 45.3125 22.46875 40.28125 
Q 17.578125 35.40625 17.578125 31.203125 
z
" id="IPAexGothic-98"/>
      </defs>
      <g transform="translate(69.828185 287.802625)scale(0.1 -0.1)">
       <use xlink:href="#IPAexGothic-70"/>
       <use x="57.177734" xlink:href="#IPAexGothic-101"/>
       <use x="114.0625" xlink:href="#IPAexGothic-98"/>
      </g>
     </g>
    </g>
    <g id="xtick_2">
     <g id="line2d_4">
      <g>
       <use style="stroke:#000000;stroke-width:0.8;" x="118.945626" xlink:href="#ma530501390" y="273.312"/>
      </g>
     </g>
     <g id="text_2">
      <!-- 15 -->
      <defs>
       <path d="M 38.484375 0.984375 
L 29.6875 0.984375 
L 29.6875 64.109375 
Q 21.4375 61.28125 12.3125 59.328125 
L 10.6875 66.109375 
Q 23.734375 69.390625 32.90625 73.921875 
L 38.484375 73.921875 
z
" id="IPAexGothic-49"/>
       <path d="M 18.40625 40.671875 
Q 25.53125 46.296875 33.9375 46.296875 
Q 44 46.296875 50.640625 39.5 
Q 56.84375 33.015625 56.84375 23.390625 
Q 56.84375 14.65625 51.515625 8.015625 
Q 44.828125 -0.484375 31.734375 -0.484375 
Q 14.984375 -0.484375 7.328125 12.25 
L 14.65625 16.0625 
Q 20.453125 6.78125 31.453125 6.78125 
Q 38.53125 6.78125 43.265625 11.1875 
Q 48.140625 15.828125 48.140625 23.484375 
Q 48.140625 30.71875 43.84375 35.015625 
Q 39.359375 39.5 32.125 39.5 
Q 21.96875 39.5 16.75 31.6875 
L 9.234375 32.671875 
L 13.8125 72.40625 
L 53.21875 72.40625 
L 53.21875 64.890625 
L 20.953125 64.890625 
L 17.71875 40.671875 
z
" id="IPAexGothic-53"/>
      </defs>
      <g transform="translate(112.647189 287.802625)scale(0.1 -0.1)">
       <use xlink:href="#IPAexGothic-49"/>
       <use x="62.988281" xlink:href="#IPAexGothic-53"/>
      </g>
     </g>
    </g>
    <g id="xtick_3">
     <g id="line2d_5">
      <g>
       <use style="stroke:#000000;stroke-width:0.8;" x="162.117773" xlink:href="#ma530501390" y="273.312"/>
      </g>
     </g>
     <g id="text_3">
      <!-- Mar -->
      <defs>
       <path d="M 80.421875 0.984375 
L 71.828125 0.984375 
L 71.828125 39.59375 
Q 71.828125 51.265625 72.40625 64.59375 
L 72.015625 64.59375 
Q 68.0625 53.265625 63.53125 41.796875 
L 47.90625 3.265625 
L 41.40625 3.265625 
L 25.640625 42.578125 
Q 20.75 54.78125 17.625 64.703125 
L 17.234375 64.703125 
Q 17.828125 48.921875 17.828125 39.890625 
L 17.828125 0.984375 
L 9.515625 0.984375 
L 9.515625 72.40625 
L 22.125 72.40625 
L 39.109375 30.375 
Q 42.140625 23 44.828125 14.15625 
L 45.125 14.15625 
Q 47.3125 22.125 50.53125 30.171875 
L 67.4375 72.40625 
L 80.421875 72.40625 
z
" id="IPAexGothic-77"/>
       <path d="M 49.3125 0.984375 
L 41.75 0.984375 
Q 39.984375 4.734375 39.546875 8.6875 
L 39.203125 8.6875 
Q 33.546875 -0.390625 22.3125 -0.390625 
Q 14.59375 -0.390625 9.71875 4.5 
Q 5.421875 8.796875 5.421875 14.984375 
Q 5.421875 30.421875 32.03125 31.203125 
L 38.71875 31.390625 
L 38.71875 33.984375 
Q 38.71875 39.203125 35.75 42.1875 
Q 32.625 45.3125 27.734375 45.3125 
Q 19.34375 45.3125 15.140625 37.15625 
L 7.71875 40.578125 
Q 14.65625 52 27.9375 52 
Q 37.109375 52 42.046875 46.875 
Q 46.625 42.28125 46.625 33.890625 
L 46.625 15.578125 
Q 46.625 6.25 49.3125 0.984375 
z
M 38.921875 25.390625 
L 33.453125 25.296875 
Q 14.109375 24.859375 14.109375 14.890625 
Q 14.109375 11.375 16.40625 9.078125 
Q 19.234375 6.296875 23.828125 6.296875 
Q 30.21875 6.296875 34.90625 10.984375 
Q 38.921875 15.140625 38.921875 21 
z
" id="IPAexGothic-97"/>
       <path d="M 36.078125 51.8125 
L 34.578125 43.265625 
Q 32.90625 43.609375 31.59375 43.609375 
Q 25.828125 43.609375 22.078125 38.1875 
Q 17.390625 31.34375 17.390625 26.171875 
L 17.390625 0.984375 
L 8.796875 0.984375 
L 8.796875 50.78125 
L 16.890625 50.78125 
L 16.5 35.984375 
L 16.703125 35.984375 
Q 22.21875 52.203125 32.765625 52.203125 
Q 34.46875 52.203125 36.078125 51.8125 
z
" id="IPAexGothic-114"/>
      </defs>
      <g transform="translate(153.008398 287.802625)scale(0.1 -0.1)">
       <use xlink:href="#IPAexGothic-77"/>
       <use x="90.185547" xlink:href="#IPAexGothic-97"/>
       <use x="145.166016" xlink:href="#IPAexGothic-114"/>
      </g>
     </g>
    </g>
    <g id="xtick_4">
     <g id="line2d_6">
      <g>
       <use style="stroke:#000000;stroke-width:0.8;" x="202.411777" xlink:href="#ma530501390" y="273.312"/>
      </g>
     </g>
     <g id="text_4">
      <!-- 15 -->
      <g transform="translate(196.11334 287.802625)scale(0.1 -0.1)">
       <use xlink:href="#IPAexGothic-49"/>
       <use x="62.988281" xlink:href="#IPAexGothic-53"/>
      </g>
     </g>
    </g>
    <g id="xtick_5">
     <g id="line2d_7">
      <g>
       <use style="stroke:#000000;stroke-width:0.8;" x="251.34021" xlink:href="#ma530501390" y="273.312"/>
      </g>
     </g>
     <g id="text_5">
      <!-- Apr -->
      <defs>
       <path d="M 63.375 0.984375 
L 53.8125 0.984375 
L 45.90625 22.015625 
L 17.1875 22.015625 
L 9.421875 0.984375 
L -0.09375 0.984375 
L 28.21875 72.90625 
L 35.296875 72.90625 
z
M 43.40625 29.109375 
L 36.1875 48.09375 
Q 33.203125 56.0625 31.6875 62.5 
L 31.390625 62.5 
Q 29.640625 55.671875 26.8125 48.09375 
L 19.734375 29.109375 
z
" id="IPAexGothic-65"/>
       <path d="M 16.796875 42 
Q 23.828125 52.203125 34.46875 52.203125 
Q 43.265625 52.203125 49.5625 45.90625 
Q 56.890625 38.578125 56.890625 25.6875 
Q 56.890625 13.140625 49.65625 5.8125 
Q 43.359375 -0.484375 34.375 -0.484375 
Q 24.515625 -0.484375 17.28125 7.765625 
L 17.28125 -19 
L 8.796875 -19 
L 8.796875 50.78125 
L 16.796875 50.78125 
z
M 17.28125 30.46875 
L 17.28125 20.171875 
Q 17.28125 14.015625 23.6875 9.375 
Q 27.984375 6.296875 32.90625 6.296875 
Q 38.578125 6.296875 42.578125 10.296875 
Q 47.90625 15.578125 47.90625 25.484375 
Q 47.90625 34.375 43.5 39.984375 
Q 39.109375 45.3125 32.8125 45.3125 
Q 25.875 45.3125 20.90625 38.8125 
Q 17.28125 34.125 17.28125 30.46875 
z
" id="IPAexGothic-112"/>
      </defs>
      <g transform="translate(243.198023 287.802625)scale(0.1 -0.1)">
       <use xlink:href="#IPAexGothic-65"/>
       <use x="63.720703" xlink:href="#IPAexGothic-112"/>
       <use x="125.830078" xlink:href="#IPAexGothic-114"/>
      </g>
     </g>
    </g>
    <g id="xtick_6">
     <g id="line2d_8">
      <g>
       <use style="stroke:#000000;stroke-width:0.8;" x="291.634214" xlink:href="#ma530501390" y="273.312"/>
      </g>
     </g>
     <g id="text_6">
      <!-- 15 -->
      <g transform="translate(285.335777 287.802625)scale(0.1 -0.1)">
       <use xlink:href="#IPAexGothic-49"/>
       <use x="62.988281" xlink:href="#IPAexGothic-53"/>
      </g>
     </g>
    </g>
    <g id="xtick_7">
     <g id="line2d_9">
      <g>
       <use style="stroke:#000000;stroke-width:0.8;" x="337.684504" xlink:href="#ma530501390" y="273.312"/>
      </g>
     </g>
     <g id="text_7">
      <!-- May -->
      <defs>
       <path d="M 48.78125 50.78125 
L 24.609375 -7.625 
Q 19.96875 -18.796875 8.59375 -18.796875 
L 7.46875 -18.796875 
L 5.375 -10.984375 
L 6.984375 -10.984375 
Q 15.140625 -10.984375 17.96875 -3.71875 
L 21.1875 4.296875 
L 0.59375 50.78125 
L 10.296875 50.78125 
L 21.296875 22.796875 
Q 23.875 16.015625 25.09375 12.203125 
L 25.390625 12.203125 
Q 27.34375 18.265625 29.109375 22.796875 
L 39.5 50.78125 
z
" id="IPAexGothic-121"/>
      </defs>
      <g transform="translate(327.964973 287.802625)scale(0.1 -0.1)">
       <use xlink:href="#IPAexGothic-77"/>
       <use x="90.185547" xlink:href="#IPAexGothic-97"/>
       <use x="145.166016" xlink:href="#IPAexGothic-121"/>
      </g>
     </g>
    </g>
    <g id="xtick_8">
     <g id="line2d_10">
      <g>
       <use style="stroke:#000000;stroke-width:0.8;" x="377.978508" xlink:href="#ma530501390" y="273.312"/>
      </g>
     </g>
     <g id="text_8">
      <!-- 15 -->
      <g transform="translate(371.680071 287.802625)scale(0.1 -0.1)">
       <use xlink:href="#IPAexGothic-49"/>
       <use x="62.988281" xlink:href="#IPAexGothic-53"/>
      </g>
     </g>
    </g>
    <g id="text_9">
     <!-- 2020-May -->
     <defs>
      <path d="M 57.171875 0.984375 
L 6.984375 0.984375 
L 6.984375 9.28125 
Q 12.890625 23.046875 29.59375 34.421875 
L 32.375 36.28125 
Q 40.921875 42.140625 43.609375 45.40625 
Q 46.6875 49.265625 46.6875 53.8125 
Q 46.6875 58.9375 43.0625 62.546875 
Q 39.0625 66.546875 32.5625 66.546875 
Q 19.53125 66.546875 15.484375 52 
L 7.765625 54.78125 
Q 13.328125 73.828125 33.0625 73.828125 
Q 43.84375 73.828125 50.25 67.4375 
Q 55.859375 61.671875 55.859375 53.515625 
Q 55.859375 47.46875 52.25 42.53125 
Q 48.921875 37.75 36.96875 30.28125 
L 34.859375 29 
Q 19.625 19.578125 15.28125 8.890625 
L 57.171875 8.890625 
z
" id="IPAexGothic-50"/>
      <path d="M 31.84375 73.828125 
Q 45.015625 73.828125 52.09375 61.625 
Q 57.71875 51.953125 57.71875 36.625 
Q 57.71875 21.4375 52.09375 11.578125 
Q 45.125 -0.484375 31.5 -0.484375 
Q 17.921875 -0.484375 10.9375 11.578125 
Q 5.328125 21.4375 5.328125 36.71875 
Q 5.328125 58.015625 15.625 67.71875 
Q 22.171875 73.828125 31.84375 73.828125 
z
M 31.5 66.65625 
Q 23.6875 66.65625 19.1875 58.734375 
Q 14.59375 50.734375 14.59375 36.625 
Q 14.59375 22.75 19.09375 14.796875 
Q 23.640625 6.984375 31.5 6.984375 
Q 40.921875 6.984375 45.453125 18.015625 
Q 48.4375 25.34375 48.4375 37.109375 
Q 48.4375 50.875 43.84375 58.734375 
Q 39.203125 66.65625 31.5 66.65625 
z
" id="IPAexGothic-48"/>
      <path d="M 30.765625 26.609375 
L 4.984375 26.609375 
L 4.984375 34.421875 
L 30.765625 34.421875 
z
" id="IPAexGothic-45"/>
     </defs>
     <g transform="translate(348.30125 300.19325)scale(0.1 -0.1)">
      <use xlink:href="#IPAexGothic-50"/>
      <use x="62.988281" xlink:href="#IPAexGothic-48"/>
      <use x="125.976562" xlink:href="#IPAexGothic-50"/>
      <use x="188.964844" xlink:href="#IPAexGothic-48"/>
      <use x="251.953125" xlink:href="#IPAexGothic-45"/>
      <use x="287.744141" xlink:href="#IPAexGothic-77"/>
      <use x="377.929688" xlink:href="#IPAexGothic-97"/>
      <use x="432.910156" xlink:href="#IPAexGothic-121"/>
     </g>
    </g>
   </g>
   <g id="matplotlib.axis_2">
    <g id="ytick_1">
     <g id="line2d_11">
      <defs>
       <path d="M 0 0 
L -3.5 0 
" id="mb9d007bc2e" style="stroke:#000000;stroke-width:0.8;"/>
      </defs>
      <g>
       <use style="stroke:#000000;stroke-width:0.8;" x="39.39375" xlink:href="#mb9d007bc2e" y="273.312"/>
      </g>
     </g>
     <g id="text_10">
      <!-- 0 -->
      <g transform="translate(26.095313 277.057312)scale(0.1 -0.1)">
       <use xlink:href="#IPAexGothic-48"/>
      </g>
     </g>
    </g>
    <g id="ytick_2">
     <g id="line2d_12">
      <g>
       <use style="stroke:#000000;stroke-width:0.8;" x="39.39375" xlink:href="#mb9d007bc2e" y="222.986345"/>
      </g>
     </g>
     <g id="text_11">
      <!-- 1000 -->
      <g transform="translate(7.2 226.731657)scale(0.1 -0.1)">
       <use xlink:href="#IPAexGothic-49"/>
       <use x="62.988281" xlink:href="#IPAexGothic-48"/>
       <use x="125.976562" xlink:href="#IPAexGothic-48"/>
       <use x="188.964844" xlink:href="#IPAexGothic-48"/>
      </g>
     </g>
    </g>
    <g id="ytick_3">
     <g id="line2d_13">
      <g>
       <use style="stroke:#000000;stroke-width:0.8;" x="39.39375" xlink:href="#mb9d007bc2e" y="172.660689"/>
      </g>
     </g>
     <g id="text_12">
      <!-- 2000 -->
      <g transform="translate(7.2 176.406002)scale(0.1 -0.1)">
       <use xlink:href="#IPAexGothic-50"/>
       <use x="62.988281" xlink:href="#IPAexGothic-48"/>
       <use x="125.976562" xlink:href="#IPAexGothic-48"/>
       <use x="188.964844" xlink:href="#IPAexGothic-48"/>
      </g>
     </g>
    </g>
    <g id="ytick_4">
     <g id="line2d_14">
      <g>
       <use style="stroke:#000000;stroke-width:0.8;" x="39.39375" xlink:href="#mb9d007bc2e" y="122.335034"/>
      </g>
     </g>
     <g id="text_13">
      <!-- 3000 -->
      <defs>
       <path d="M 37.203125 37.796875 
Q 54.78125 34.625 54.78125 19.96875 
Q 54.78125 11.1875 48.875 5.5625 
Q 42.328125 -0.484375 30.375 -0.484375 
Q 12.453125 -0.484375 4.5 13.765625 
L 11.8125 17.671875 
Q 17.328125 6.890625 30.28125 6.890625 
Q 37.890625 6.890625 42.09375 10.796875 
Q 46.09375 14.5 46.09375 20.171875 
Q 46.09375 26.859375 40.09375 30.90625 
Q 34.625 34.578125 25.6875 34.578125 
L 21.296875 34.578125 
L 21.296875 41.703125 
L 25.875 41.703125 
Q 34.859375 41.703125 39.59375 45.125 
Q 44.671875 48.734375 44.671875 54.828125 
Q 44.671875 61.46875 38.96875 64.65625 
Q 35.296875 66.84375 30.171875 66.84375 
Q 19.34375 66.84375 14.109375 55.90625 
L 6.78125 59.421875 
Q 14.015625 73.828125 30.28125 73.828125 
Q 40.578125 73.828125 46.96875 68.65625 
Q 53.375 63.578125 53.375 55.21875 
Q 53.375 47.3125 47.171875 42.28125 
Q 43.171875 39.0625 37.203125 38.1875 
z
" id="IPAexGothic-51"/>
      </defs>
      <g transform="translate(7.2 126.080347)scale(0.1 -0.1)">
       <use xlink:href="#IPAexGothic-51"/>
       <use x="62.988281" xlink:href="#IPAexGothic-48"/>
       <use x="125.976562" xlink:href="#IPAexGothic-48"/>
       <use x="188.964844" xlink:href="#IPAexGothic-48"/>
      </g>
     </g>
    </g>
    <g id="ytick_5">
     <g id="line2d_15">
      <g>
       <use style="stroke:#000000;stroke-width:0.8;" x="39.39375" xlink:href="#mb9d007bc2e" y="72.009379"/>
      </g>
     </g>
     <g id="text_14">
      <!-- 4000 -->
      <defs>
       <path d="M 59.578125 18.109375 
L 47.796875 18.109375 
L 47.796875 0.984375 
L 39.796875 0.984375 
L 39.796875 18.109375 
L 3.078125 18.109375 
L 3.078125 26.125 
L 38.375 73.09375 
L 47.796875 73.09375 
L 47.796875 25.53125 
L 59.578125 25.53125 
z
M 40.28125 64.203125 
L 39.984375 64.203125 
Q 35.59375 57.125 31.296875 51.3125 
L 11.859375 25.53125 
L 39.796875 25.53125 
L 39.796875 49.125 
Q 39.796875 54.390625 40.28125 64.203125 
z
" id="IPAexGothic-52"/>
      </defs>
      <g transform="translate(7.2 75.754691)scale(0.1 -0.1)">
       <use xlink:href="#IPAexGothic-52"/>
       <use x="62.988281" xlink:href="#IPAexGothic-48"/>
       <use x="125.976562" xlink:href="#IPAexGothic-48"/>
       <use x="188.964844" xlink:href="#IPAexGothic-48"/>
      </g>
     </g>
    </g>
    <g id="ytick_6">
     <g id="line2d_16">
      <g>
       <use style="stroke:#000000;stroke-width:0.8;" x="39.39375" xlink:href="#mb9d007bc2e" y="21.683724"/>
      </g>
     </g>
     <g id="text_15">
      <!-- 5000 -->
      <g transform="translate(7.2 25.429036)scale(0.1 -0.1)">
       <use xlink:href="#IPAexGothic-53"/>
       <use x="62.988281" xlink:href="#IPAexGothic-48"/>
       <use x="125.976562" xlink:href="#IPAexGothic-48"/>
       <use x="188.964844" xlink:href="#IPAexGothic-48"/>
      </g>
     </g>
    </g>
   </g>
   <g id="patch_116">
    <path d="M 39.39375 273.312 
L 39.39375 7.2 
" style="fill:none;stroke:#000000;stroke-linecap:square;stroke-linejoin:miter;stroke-width:0.8;"/>
   </g>
   <g id="patch_117">
    <path d="M 396.51375 273.312 
L 396.51375 7.2 
" style="fill:none;stroke:#000000;stroke-linecap:square;stroke-linejoin:miter;stroke-width:0.8;"/>
   </g>
   <g id="patch_118">
    <path d="M 39.39375 273.312 
L 396.51375 273.312 
" style="fill:none;stroke:#000000;stroke-linecap:square;stroke-linejoin:miter;stroke-width:0.8;"/>
   </g>
   <g id="patch_119">
    <path d="M 39.39375 7.2 
L 396.51375 7.2 
" style="fill:none;stroke:#000000;stroke-linecap:square;stroke-linejoin:miter;stroke-width:0.8;"/>
   </g>
   <g id="legend_1">
    <g id="patch_120">
     <path d="M 46.39375 29.648437 
L 210.73125 29.648437 
Q 212.73125 29.648437 212.73125 27.648437 
L 212.73125 14.2 
Q 212.73125 12.2 210.73125 12.2 
L 46.39375 12.2 
Q 44.39375 12.2 44.39375 14.2 
L 44.39375 27.648437 
Q 44.39375 29.648437 46.39375 29.648437 
z
" style="fill:#ffffff;opacity:0.8;stroke:#cccccc;stroke-linejoin:miter;"/>
    </g>
    <g id="patch_121">
     <path d="M 48.39375 23.748437 
L 68.39375 23.748437 
L 68.39375 16.748437 
L 48.39375 16.748437 
z
" style="fill:#1f77b4;"/>
    </g>
    <g id="text_16">
     <!-- Tokyo cumulative confirmed -->
     <defs>
      <path d="M 60.40625 64.703125 
L 33.984375 64.703125 
L 33.984375 0.984375 
L 25.09375 0.984375 
L 25.09375 64.703125 
L -0.484375 64.703125 
L -0.484375 72.40625 
L 60.40625 72.40625 
z
" id="IPAexGothic-84"/>
      <path d="M 29.984375 52.203125 
Q 40.53125 52.203125 47.75 45.125 
Q 55.171875 37.703125 55.171875 25.59375 
Q 55.171875 13.875 47.90625 6.59375 
Q 40.765625 -0.484375 29.984375 -0.484375 
Q 19.1875 -0.484375 12.203125 6.5 
Q 4.890625 13.765625 4.890625 25.875 
Q 4.890625 37.703125 12.3125 45.125 
Q 19.390625 52.203125 29.984375 52.203125 
z
M 29.984375 45.609375 
Q 23.734375 45.609375 19.390625 41.109375 
Q 13.875 35.59375 13.875 25.78125 
Q 13.875 16.109375 19.28125 10.6875 
Q 23.6875 6.296875 29.984375 6.296875 
Q 36.421875 6.296875 40.765625 10.796875 
Q 46.1875 16.21875 46.1875 26.125 
Q 46.1875 35.453125 40.671875 41.109375 
Q 36.1875 45.609375 29.984375 45.609375 
z
" id="IPAexGothic-111"/>
      <path d="M 50.6875 0.984375 
L 40.28125 0.984375 
L 23.1875 25.203125 
L 17.484375 19.671875 
L 17.484375 0.984375 
L 9.078125 0.984375 
L 9.078125 74.90625 
L 17.484375 74.90625 
L 17.484375 27.59375 
L 38.484375 50.78125 
L 49.265625 50.78125 
L 28.5625 30.078125 
z
" id="IPAexGothic-107"/>
      <path id="IPAexGothic-32"/>
      <path d="M 51.078125 12.25 
Q 44.28125 -0.484375 29.6875 -0.484375 
Q 19.1875 -0.484375 12.3125 6.390625 
Q 4.890625 13.921875 4.890625 25.984375 
Q 4.890625 37.9375 12.3125 45.515625 
Q 19.09375 52.296875 29.390625 52.296875 
Q 43.953125 52.296875 50.09375 39.703125 
L 43.171875 36.078125 
Q 38.8125 45.3125 29.6875 45.3125 
Q 23.6875 45.3125 19.28125 40.921875 
Q 13.765625 35.40625 13.765625 25.78125 
Q 13.765625 16.703125 19.09375 11.375 
Q 23.78125 6.6875 30.5625 6.6875 
Q 39.796875 6.6875 44.484375 15.875 
z
" id="IPAexGothic-99"/>
      <path d="M 51.3125 0.984375 
L 43.3125 0.984375 
L 43.3125 10.0625 
Q 35.9375 0 25.390625 0 
Q 16.75 0 11.921875 5.859375 
Q 8.109375 10.59375 8.109375 19.390625 
L 8.109375 50.78125 
L 16.703125 50.78125 
L 16.703125 19.671875 
Q 16.703125 7.28125 27.09375 7.28125 
Q 37.59375 7.28125 42.71875 20.171875 
L 42.71875 50.78125 
L 51.3125 50.78125 
z
" id="IPAexGothic-117"/>
      <path d="M 78.46875 0.984375 
L 69.875 0.984375 
L 69.875 32.171875 
Q 69.875 44.828125 60.109375 44.828125 
Q 55.46875 44.828125 51.609375 40.53125 
Q 48.875 37.453125 47.796875 32.859375 
L 47.796875 0.984375 
L 39.203125 0.984375 
L 39.203125 32.28125 
Q 39.203125 44.828125 29.984375 44.828125 
Q 25.09375 44.828125 21.390625 40.53125 
Q 17.390625 36.03125 17.390625 31.890625 
L 17.390625 0.984375 
L 8.796875 0.984375 
L 8.796875 50.78125 
L 16.796875 50.78125 
L 16.796875 42.1875 
Q 21.734375 51.8125 31.6875 51.8125 
Q 42.578125 51.8125 46.1875 41.359375 
Q 51.609375 51.8125 61.765625 51.8125 
Q 69.96875 51.8125 74.5625 46 
Q 78.46875 41.21875 78.46875 32.375 
z
" id="IPAexGothic-109"/>
      <path d="M 17.671875 0.984375 
L 9.078125 0.984375 
L 9.078125 74.90625 
L 17.671875 74.90625 
z
" id="IPAexGothic-108"/>
      <path d="M 33.203125 3.765625 
Q 27.640625 -0.09375 21.828125 -0.09375 
Q 10.203125 -0.09375 10.203125 12.984375 
L 10.203125 44.671875 
L 3.421875 44.671875 
L 3.421875 50.78125 
L 10.203125 50.78125 
L 10.203125 61.96875 
L 18.40625 66.0625 
L 18.40625 50.78125 
L 32.234375 50.78125 
L 32.234375 44.671875 
L 18.40625 44.671875 
L 18.40625 14.15625 
Q 18.40625 6.5 23.640625 6.5 
Q 27.15625 6.5 30.328125 9.1875 
z
" id="IPAexGothic-116"/>
      <path d="M 18.40625 61.375 
L 8.59375 61.375 
L 8.59375 71.390625 
L 18.40625 71.390625 
z
M 17.78125 0.984375 
L 9.1875 0.984375 
L 9.1875 50.78125 
L 17.78125 50.78125 
z
" id="IPAexGothic-105"/>
      <path d="M 48.484375 50.78125 
L 27.296875 0.09375 
L 21.484375 0.09375 
L 0.390625 50.78125 
L 9.8125 50.78125 
L 20.90625 21.6875 
L 23.78125 13.1875 
L 24.515625 10.984375 
L 24.8125 10.984375 
Q 25.640625 13.8125 28.46875 21.6875 
L 39.3125 50.78125 
z
" id="IPAexGothic-118"/>
      <path d="M 52 0.984375 
L 43.40625 0.984375 
L 43.40625 31.890625 
Q 43.40625 44.578125 32.90625 44.578125 
Q 22.3125 44.578125 17.390625 31.890625 
L 17.390625 0.984375 
L 8.796875 0.984375 
L 8.796875 50.78125 
L 16.796875 50.78125 
L 16.796875 41.796875 
Q 23.828125 51.8125 34.71875 51.8125 
Q 52 51.8125 52 32.375 
z
" id="IPAexGothic-110"/>
      <path d="M 38.375 72.21875 
L 34.8125 66.3125 
Q 31.109375 69.09375 27.203125 69.09375 
Q 18.5 69.09375 18.5 57.375 
L 18.5 50.78125 
L 32.078125 50.78125 
L 32.078125 44.671875 
L 18.5 44.671875 
L 18.5 0.984375 
L 10.015625 0.984375 
L 10.015625 44.671875 
L 1.90625 44.671875 
L 1.90625 50.78125 
L 10.015625 50.78125 
L 10.015625 57.171875 
Q 10.015625 65.4375 13.921875 70.0625 
Q 18.75 75.6875 26.703125 75.6875 
Q 33.0625 75.6875 38.375 72.21875 
z
" id="IPAexGothic-102"/>
      <path d="M 52.984375 0.984375 
L 45.171875 0.984375 
L 45.171875 9.671875 
Q 38.140625 -0.484375 27.390625 -0.484375 
Q 18.453125 -0.484375 12.3125 5.8125 
Q 4.890625 13.1875 4.890625 25.984375 
Q 4.890625 38.53125 12.0625 45.90625 
Q 18.265625 52.203125 27.390625 52.203125 
Q 37.25 52.203125 44.484375 43.890625 
L 44.484375 74.90625 
L 52.984375 74.90625 
z
M 44.484375 20.359375 
L 44.484375 32.765625 
Q 44.484375 37.703125 38.375 42.28125 
Q 34.078125 45.40625 28.953125 45.40625 
Q 23.1875 45.40625 19.1875 41.40625 
Q 13.875 36.078125 13.875 26.21875 
Q 13.875 17.328125 18.265625 11.71875 
Q 22.515625 6.390625 28.859375 6.390625 
Q 36.28125 6.390625 41.5 13.671875 
Q 44.484375 17.71875 44.484375 20.359375 
z
" id="IPAexGothic-100"/>
     </defs>
     <g transform="translate(76.39375 23.748437)scale(0.1 -0.1)">
      <use xlink:href="#IPAexGothic-84"/>
      <use x="59.912109" xlink:href="#IPAexGothic-111"/>
      <use x="120.3125" xlink:href="#IPAexGothic-107"/>
      <use x="172.119141" xlink:href="#IPAexGothic-121"/>
      <use x="221.337891" xlink:href="#IPAexGothic-111"/>
      <use x="281.738281" xlink:href="#IPAexGothic-32"/>
      <use x="308.740234" xlink:href="#IPAexGothic-99"/>
      <use x="363.134766" xlink:href="#IPAexGothic-117"/>
      <use x="423.535156" xlink:href="#IPAexGothic-109"/>
      <use x="510.644531" xlink:href="#IPAexGothic-117"/>
      <use x="571.044922" xlink:href="#IPAexGothic-108"/>
      <use x="598.046875" xlink:href="#IPAexGothic-97"/>
      <use x="653.027344" xlink:href="#IPAexGothic-116"/>
      <use x="687.646484" xlink:href="#IPAexGothic-105"/>
      <use x="714.648438" xlink:href="#IPAexGothic-118"/>
      <use x="763.232422" xlink:href="#IPAexGothic-101"/>
      <use x="820.117188" xlink:href="#IPAexGothic-32"/>
      <use x="847.119141" xlink:href="#IPAexGothic-99"/>
      <use x="901.513672" xlink:href="#IPAexGothic-111"/>
      <use x="961.914062" xlink:href="#IPAexGothic-110"/>
      <use x="1022.314453" xlink:href="#IPAexGothic-102"/>
      <use x="1052.929688" xlink:href="#IPAexGothic-105"/>
      <use x="1079.931641" xlink:href="#IPAexGothic-114"/>
      <use x="1116.943359" xlink:href="#IPAexGothic-109"/>
      <use x="1204.052734" xlink:href="#IPAexGothic-101"/>
      <use x="1260.9375" xlink:href="#IPAexGothic-100"/>
     </g>
    </g>
   </g>
  </g>
 </g>
 <defs>
  <clipPath id="p24b6ecba2a">
   <rect height="266.112" width="357.12" x="39.39375" y="7.2"/>
  </clipPath>
 </defs>
</svg>
