<?xml version="1.0" encoding="utf-8" standalone="no"?>
<!DOCTYPE svg PUBLIC "-//W3C//DTD SVG 1.1//EN"
  "http://www.w3.org/Graphics/SVG/1.1/DTD/svg11.dtd">
<!-- Created with matplotlib (https://matplotlib.org/) -->
<svg height="320.239875pt" version="1.1" viewBox="0 0 397.415312 320.239875" width="397.415312pt" xmlns="http://www.w3.org/2000/svg" xmlns:xlink="http://www.w3.org/1999/xlink">
 <defs>
  <style type="text/css">
*{stroke-linecap:butt;stroke-linejoin:round;}
  </style>
 </defs>
 <g id="figure_1">
  <g id="patch_1">
   <path d="M 0 320.239875 
L 397.415312 320.239875 
L 397.415312 0 
L 0 0 
z
" style="fill:#ffffff;"/>
  </g>
  <g id="axes_1">
   <g id="patch_2">
    <path d="M 33.095313 284.258625 
L 390.215312 284.258625 
L 390.215312 18.146625 
L 33.095313 18.146625 
z
" style="fill:#ffffff;"/>
   </g>
   <g id="patch_3">
    <path clip-path="url(#pcdb7cfd336)" d="M 49.32804 284.258625 
L 51.172668 284.258625 
L 51.172668 279.926317 
L 49.32804 279.926317 
z
" style="fill:#1f77b4;"/>
   </g>
   <g id="patch_4">
    <path clip-path="url(#pcdb7cfd336)" d="M 51.633825 284.258625 
L 53.478453 284.258625 
L 53.478453 284.258625 
L 51.633825 284.258625 
z
" style="fill:#1f77b4;"/>
   </g>
   <g id="patch_5">
    <path clip-path="url(#pcdb7cfd336)" d="M 53.93961 284.258625 
L 55.784238 284.258625 
L 55.784238 279.926317 
L 53.93961 279.926317 
z
" style="fill:#1f77b4;"/>
   </g>
   <g id="patch_6">
    <path clip-path="url(#pcdb7cfd336)" d="M 56.245395 284.258625 
L 58.090023 284.258625 
L 58.090023 284.258625 
L 56.245395 284.258625 
z
" style="fill:#1f77b4;"/>
   </g>
   <g id="patch_7">
    <path clip-path="url(#pcdb7cfd336)" d="M 58.55118 284.258625 
L 60.395808 284.258625 
L 60.395808 284.258625 
L 58.55118 284.258625 
z
" style="fill:#1f77b4;"/>
   </g>
   <g id="patch_8">
    <path clip-path="url(#pcdb7cfd336)" d="M 60.856965 284.258625 
L 62.701593 284.258625 
L 62.701593 284.258625 
L 60.856965 284.258625 
z
" style="fill:#1f77b4;"/>
   </g>
   <g id="patch_9">
    <path clip-path="url(#pcdb7cfd336)" d="M 63.162751 284.258625 
L 65.007379 284.258625 
L 65.007379 284.258625 
L 63.162751 284.258625 
z
" style="fill:#1f77b4;"/>
   </g>
   <g id="patch_10">
    <path clip-path="url(#pcdb7cfd336)" d="M 65.468536 284.258625 
L 67.313164 284.258625 
L 67.313164 284.258625 
L 65.468536 284.258625 
z
" style="fill:#1f77b4;"/>
   </g>
   <g id="patch_11">
    <path clip-path="url(#pcdb7cfd336)" d="M 67.774321 284.258625 
L 69.618949 284.258625 
L 69.618949 282.092471 
L 67.774321 282.092471 
z
" style="fill:#1f77b4;"/>
   </g>
   <g id="patch_12">
    <path clip-path="url(#pcdb7cfd336)" d="M 70.080106 284.258625 
L 71.924734 284.258625 
L 71.924734 284.258625 
L 70.080106 284.258625 
z
" style="fill:#1f77b4;"/>
   </g>
   <g id="patch_13">
    <path clip-path="url(#pcdb7cfd336)" d="M 72.385891 284.258625 
L 74.230519 284.258625 
L 74.230519 284.258625 
L 72.385891 284.258625 
z
" style="fill:#1f77b4;"/>
   </g>
   <g id="patch_14">
    <path clip-path="url(#pcdb7cfd336)" d="M 74.691676 284.258625 
L 76.536304 284.258625 
L 76.536304 284.258625 
L 74.691676 284.258625 
z
" style="fill:#1f77b4;"/>
   </g>
   <g id="patch_15">
    <path clip-path="url(#pcdb7cfd336)" d="M 76.997461 284.258625 
L 78.842089 284.258625 
L 78.842089 284.258625 
L 76.997461 284.258625 
z
" style="fill:#1f77b4;"/>
   </g>
   <g id="patch_16">
    <path clip-path="url(#pcdb7cfd336)" d="M 79.303246 284.258625 
L 81.147874 284.258625 
L 81.147874 284.258625 
L 79.303246 284.258625 
z
" style="fill:#1f77b4;"/>
   </g>
   <g id="patch_17">
    <path clip-path="url(#pcdb7cfd336)" d="M 81.609032 284.258625 
L 83.45366 284.258625 
L 83.45366 284.258625 
L 81.609032 284.258625 
z
" style="fill:#1f77b4;"/>
   </g>
   <g id="patch_18">
    <path clip-path="url(#pcdb7cfd336)" d="M 83.914817 284.258625 
L 85.759445 284.258625 
L 85.759445 279.926317 
L 83.914817 279.926317 
z
" style="fill:#1f77b4;"/>
   </g>
   <g id="patch_19">
    <path clip-path="url(#pcdb7cfd336)" d="M 86.220602 284.258625 
L 88.06523 284.258625 
L 88.06523 279.926317 
L 86.220602 279.926317 
z
" style="fill:#1f77b4;"/>
   </g>
   <g id="patch_20">
    <path clip-path="url(#pcdb7cfd336)" d="M 88.526387 284.258625 
L 90.371015 284.258625 
L 90.371015 284.258625 
L 88.526387 284.258625 
z
" style="fill:#1f77b4;"/>
   </g>
   <g id="patch_21">
    <path clip-path="url(#pcdb7cfd336)" d="M 90.832172 284.258625 
L 92.6768 284.258625 
L 92.6768 271.261702 
L 90.832172 271.261702 
z
" style="fill:#1f77b4;"/>
   </g>
   <g id="patch_22">
    <path clip-path="url(#pcdb7cfd336)" d="M 93.137957 284.258625 
L 94.982585 284.258625 
L 94.982585 279.926317 
L 93.137957 279.926317 
z
" style="fill:#1f77b4;"/>
   </g>
   <g id="patch_23">
    <path clip-path="url(#pcdb7cfd336)" d="M 95.443742 284.258625 
L 97.28837 284.258625 
L 97.28837 264.76324 
L 95.443742 264.76324 
z
" style="fill:#1f77b4;"/>
   </g>
   <g id="patch_24">
    <path clip-path="url(#pcdb7cfd336)" d="M 97.749527 284.258625 
L 99.594155 284.258625 
L 99.594155 275.59401 
L 97.749527 275.59401 
z
" style="fill:#1f77b4;"/>
   </g>
   <g id="patch_25">
    <path clip-path="url(#pcdb7cfd336)" d="M 100.055312 284.258625 
L 101.899941 284.258625 
L 101.899941 282.092471 
L 100.055312 282.092471 
z
" style="fill:#1f77b4;"/>
   </g>
   <g id="patch_26">
    <path clip-path="url(#pcdb7cfd336)" d="M 102.361098 284.258625 
L 104.205726 284.258625 
L 104.205726 271.261702 
L 102.361098 271.261702 
z
" style="fill:#1f77b4;"/>
   </g>
   <g id="patch_27">
    <path clip-path="url(#pcdb7cfd336)" d="M 104.666883 284.258625 
L 106.511511 284.258625 
L 106.511511 282.092471 
L 104.666883 282.092471 
z
" style="fill:#1f77b4;"/>
   </g>
   <g id="patch_28">
    <path clip-path="url(#pcdb7cfd336)" d="M 106.972668 284.258625 
L 108.817296 284.258625 
L 108.817296 284.258625 
L 106.972668 284.258625 
z
" style="fill:#1f77b4;"/>
   </g>
   <g id="patch_29">
    <path clip-path="url(#pcdb7cfd336)" d="M 109.278453 284.258625 
L 111.123081 284.258625 
L 111.123081 284.258625 
L 109.278453 284.258625 
z
" style="fill:#1f77b4;"/>
   </g>
   <g id="patch_30">
    <path clip-path="url(#pcdb7cfd336)" d="M 111.584238 284.258625 
L 113.428866 284.258625 
L 113.428866 273.427856 
L 111.584238 273.427856 
z
" style="fill:#1f77b4;"/>
   </g>
   <g id="patch_31">
    <path clip-path="url(#pcdb7cfd336)" d="M 113.890023 284.258625 
L 115.734651 284.258625 
L 115.734651 269.095548 
L 113.890023 269.095548 
z
" style="fill:#1f77b4;"/>
   </g>
   <g id="patch_32">
    <path clip-path="url(#pcdb7cfd336)" d="M 116.195808 284.258625 
L 118.040436 284.258625 
L 118.040436 266.929394 
L 116.195808 266.929394 
z
" style="fill:#1f77b4;"/>
   </g>
   <g id="patch_33">
    <path clip-path="url(#pcdb7cfd336)" d="M 118.501593 284.258625 
L 120.346222 284.258625 
L 120.346222 271.261702 
L 118.501593 271.261702 
z
" style="fill:#1f77b4;"/>
   </g>
   <g id="patch_34">
    <path clip-path="url(#pcdb7cfd336)" d="M 120.807379 284.258625 
L 122.652007 284.258625 
L 122.652007 279.926317 
L 120.807379 279.926317 
z
" style="fill:#1f77b4;"/>
   </g>
   <g id="patch_35">
    <path clip-path="url(#pcdb7cfd336)" d="M 123.113164 284.258625 
L 124.957792 284.258625 
L 124.957792 279.926317 
L 123.113164 279.926317 
z
" style="fill:#1f77b4;"/>
   </g>
   <g id="patch_36">
    <path clip-path="url(#pcdb7cfd336)" d="M 125.418949 284.258625 
L 127.263577 284.258625 
L 127.263577 256.098625 
L 125.418949 256.098625 
z
" style="fill:#1f77b4;"/>
   </g>
   <g id="patch_37">
    <path clip-path="url(#pcdb7cfd336)" d="M 127.724734 284.258625 
L 129.569362 284.258625 
L 129.569362 269.095548 
L 127.724734 269.095548 
z
" style="fill:#1f77b4;"/>
   </g>
   <g id="patch_38">
    <path clip-path="url(#pcdb7cfd336)" d="M 130.030519 284.258625 
L 131.875147 284.258625 
L 131.875147 260.430933 
L 130.030519 260.430933 
z
" style="fill:#1f77b4;"/>
   </g>
   <g id="patch_39">
    <path clip-path="url(#pcdb7cfd336)" d="M 132.336304 284.258625 
L 134.180932 284.258625 
L 134.180932 245.267856 
L 132.336304 245.267856 
z
" style="fill:#1f77b4;"/>
   </g>
   <g id="patch_40">
    <path clip-path="url(#pcdb7cfd336)" d="M 134.642089 284.258625 
L 136.486717 284.258625 
L 136.486717 249.600163 
L 134.642089 249.600163 
z
" style="fill:#1f77b4;"/>
   </g>
   <g id="patch_41">
    <path clip-path="url(#pcdb7cfd336)" d="M 136.947874 284.258625 
L 138.792503 284.258625 
L 138.792503 273.427856 
L 136.947874 273.427856 
z
" style="fill:#1f77b4;"/>
   </g>
   <g id="patch_42">
    <path clip-path="url(#pcdb7cfd336)" d="M 139.25366 284.258625 
L 141.098288 284.258625 
L 141.098288 279.926317 
L 139.25366 279.926317 
z
" style="fill:#1f77b4;"/>
   </g>
   <g id="patch_43">
    <path clip-path="url(#pcdb7cfd336)" d="M 141.559445 284.258625 
L 143.404073 284.258625 
L 143.404073 251.766317 
L 141.559445 251.766317 
z
" style="fill:#1f77b4;"/>
   </g>
   <g id="patch_44">
    <path clip-path="url(#pcdb7cfd336)" d="M 143.86523 284.258625 
L 145.709858 284.258625 
L 145.709858 227.938625 
L 143.86523 227.938625 
z
" style="fill:#1f77b4;"/>
   </g>
   <g id="patch_45">
    <path clip-path="url(#pcdb7cfd336)" d="M 146.171015 284.258625 
L 148.015643 284.258625 
L 148.015643 247.43401 
L 146.171015 247.43401 
z
" style="fill:#1f77b4;"/>
   </g>
   <g id="patch_46">
    <path clip-path="url(#pcdb7cfd336)" d="M 148.4768 284.258625 
L 150.321428 284.258625 
L 150.321428 208.44324 
L 148.4768 208.44324 
z
" style="fill:#1f77b4;"/>
   </g>
   <g id="patch_47">
    <path clip-path="url(#pcdb7cfd336)" d="M 150.782585 284.258625 
L 152.627213 284.258625 
L 152.627213 247.43401 
L 150.782585 247.43401 
z
" style="fill:#1f77b4;"/>
   </g>
   <g id="patch_48">
    <path clip-path="url(#pcdb7cfd336)" d="M 153.08837 284.258625 
L 154.932998 284.258625 
L 154.932998 275.59401 
L 153.08837 275.59401 
z
" style="fill:#1f77b4;"/>
   </g>
   <g id="patch_49">
    <path clip-path="url(#pcdb7cfd336)" d="M 155.394155 284.258625 
L 157.238784 284.258625 
L 157.238784 277.760163 
L 155.394155 277.760163 
z
" style="fill:#1f77b4;"/>
   </g>
   <g id="patch_50">
    <path clip-path="url(#pcdb7cfd336)" d="M 157.699941 284.258625 
L 159.544569 284.258625 
L 159.544569 240.935548 
L 157.699941 240.935548 
z
" style="fill:#1f77b4;"/>
   </g>
   <g id="patch_51">
    <path clip-path="url(#pcdb7cfd336)" d="M 160.005726 284.258625 
L 161.850354 284.258625 
L 161.850354 232.270933 
L 160.005726 232.270933 
z
" style="fill:#1f77b4;"/>
   </g>
   <g id="patch_52">
    <path clip-path="url(#pcdb7cfd336)" d="M 162.311511 284.258625 
L 164.156139 284.258625 
L 164.156139 247.43401 
L 162.311511 247.43401 
z
" style="fill:#1f77b4;"/>
   </g>
   <g id="patch_53">
    <path clip-path="url(#pcdb7cfd336)" d="M 164.617296 284.258625 
L 166.461924 284.258625 
L 166.461924 271.261702 
L 164.617296 271.261702 
z
" style="fill:#1f77b4;"/>
   </g>
   <g id="patch_54">
    <path clip-path="url(#pcdb7cfd336)" d="M 166.923081 284.258625 
L 168.767709 284.258625 
L 168.767709 266.929394 
L 166.923081 266.929394 
z
" style="fill:#1f77b4;"/>
   </g>
   <g id="patch_55">
    <path clip-path="url(#pcdb7cfd336)" d="M 169.228866 284.258625 
L 171.073494 284.258625 
L 171.073494 260.430933 
L 169.228866 260.430933 
z
" style="fill:#1f77b4;"/>
   </g>
   <g id="patch_56">
    <path clip-path="url(#pcdb7cfd336)" d="M 171.534651 284.258625 
L 173.379279 284.258625 
L 173.379279 277.760163 
L 171.534651 277.760163 
z
" style="fill:#1f77b4;"/>
   </g>
   <g id="patch_57">
    <path clip-path="url(#pcdb7cfd336)" d="M 173.840436 284.258625 
L 175.685065 284.258625 
L 175.685065 232.270933 
L 173.840436 232.270933 
z
" style="fill:#1f77b4;"/>
   </g>
   <g id="patch_58">
    <path clip-path="url(#pcdb7cfd336)" d="M 176.146222 284.258625 
L 177.99085 284.258625 
L 177.99085 262.597087 
L 176.146222 262.597087 
z
" style="fill:#1f77b4;"/>
   </g>
   <g id="patch_59">
    <path clip-path="url(#pcdb7cfd336)" d="M 178.452007 284.258625 
L 180.296635 284.258625 
L 180.296635 245.267856 
L 178.452007 245.267856 
z
" style="fill:#1f77b4;"/>
   </g>
   <g id="patch_60">
    <path clip-path="url(#pcdb7cfd336)" d="M 180.757792 284.258625 
L 182.60242 284.258625 
L 182.60242 258.264779 
L 180.757792 258.264779 
z
" style="fill:#1f77b4;"/>
   </g>
   <g id="patch_61">
    <path clip-path="url(#pcdb7cfd336)" d="M 183.063577 284.258625 
L 184.908205 284.258625 
L 184.908205 249.600163 
L 183.063577 249.600163 
z
" style="fill:#1f77b4;"/>
   </g>
   <g id="patch_62">
    <path clip-path="url(#pcdb7cfd336)" d="M 185.369362 284.258625 
L 187.21399 284.258625 
L 187.21399 273.427856 
L 185.369362 273.427856 
z
" style="fill:#1f77b4;"/>
   </g>
   <g id="patch_63">
    <path clip-path="url(#pcdb7cfd336)" d="M 187.675147 284.258625 
L 189.519775 284.258625 
L 189.519775 273.427856 
L 187.675147 273.427856 
z
" style="fill:#1f77b4;"/>
   </g>
   <g id="patch_64">
    <path clip-path="url(#pcdb7cfd336)" d="M 189.980932 284.258625 
L 191.82556 284.258625 
L 191.82556 219.27401 
L 189.980932 219.27401 
z
" style="fill:#1f77b4;"/>
   </g>
   <g id="patch_65">
    <path clip-path="url(#pcdb7cfd336)" d="M 192.286717 284.258625 
L 194.131346 284.258625 
L 194.131346 188.947856 
L 192.286717 188.947856 
z
" style="fill:#1f77b4;"/>
   </g>
   <g id="patch_66">
    <path clip-path="url(#pcdb7cfd336)" d="M 194.592503 284.258625 
L 196.437131 284.258625 
L 196.437131 91.470933 
L 194.592503 91.470933 
z
" style="fill:#1f77b4;"/>
   </g>
   <g id="patch_67">
    <path clip-path="url(#pcdb7cfd336)" d="M 196.898288 284.258625 
L 198.742916 284.258625 
L 198.742916 136.960163 
L 196.898288 136.960163 
z
" style="fill:#1f77b4;"/>
   </g>
   <g id="patch_68">
    <path clip-path="url(#pcdb7cfd336)" d="M 199.204073 284.258625 
L 201.048701 284.258625 
L 201.048701 123.96324 
L 199.204073 123.96324 
z
" style="fill:#1f77b4;"/>
   </g>
   <g id="patch_69">
    <path clip-path="url(#pcdb7cfd336)" d="M 201.509858 284.258625 
L 203.354486 284.258625 
L 203.354486 253.932471 
L 201.509858 253.932471 
z
" style="fill:#1f77b4;"/>
   </g>
   <g id="patch_70">
    <path clip-path="url(#pcdb7cfd336)" d="M 203.815643 284.258625 
L 205.660271 284.258625 
L 205.660271 258.264779 
L 203.815643 258.264779 
z
" style="fill:#1f77b4;"/>
   </g>
   <g id="patch_71">
    <path clip-path="url(#pcdb7cfd336)" d="M 206.121428 284.258625 
L 207.966056 284.258625 
L 207.966056 236.60324 
L 206.121428 236.60324 
z
" style="fill:#1f77b4;"/>
   </g>
   <g id="patch_72">
    <path clip-path="url(#pcdb7cfd336)" d="M 208.427213 284.258625 
L 210.271841 284.258625 
L 210.271841 147.790933 
L 208.427213 147.790933 
z
" style="fill:#1f77b4;"/>
   </g>
   <g id="patch_73">
    <path clip-path="url(#pcdb7cfd336)" d="M 210.732998 284.258625 
L 212.577627 284.258625 
L 212.577627 221.440163 
L 210.732998 221.440163 
z
" style="fill:#1f77b4;"/>
   </g>
   <g id="patch_74">
    <path clip-path="url(#pcdb7cfd336)" d="M 213.038784 284.258625 
L 214.883412 284.258625 
L 214.883412 186.781702 
L 213.038784 186.781702 
z
" style="fill:#1f77b4;"/>
   </g>
   <g id="patch_75">
    <path clip-path="url(#pcdb7cfd336)" d="M 215.344569 284.258625 
L 217.189197 284.258625 
L 217.189197 214.941702 
L 215.344569 214.941702 
z
" style="fill:#1f77b4;"/>
   </g>
   <g id="patch_76">
    <path clip-path="url(#pcdb7cfd336)" d="M 217.650354 284.258625 
L 219.494982 284.258625 
L 219.494982 199.778625 
L 217.650354 199.778625 
z
" style="fill:#1f77b4;"/>
   </g>
   <g id="patch_77">
    <path clip-path="url(#pcdb7cfd336)" d="M 219.956139 284.258625 
L 221.800767 284.258625 
L 221.800767 260.430933 
L 219.956139 260.430933 
z
" style="fill:#1f77b4;"/>
   </g>
   <g id="patch_78">
    <path clip-path="url(#pcdb7cfd336)" d="M 222.261924 284.258625 
L 224.106552 284.258625 
L 224.106552 197.612471 
L 222.261924 197.612471 
z
" style="fill:#1f77b4;"/>
   </g>
   <g id="patch_79">
    <path clip-path="url(#pcdb7cfd336)" d="M 224.567709 284.258625 
L 226.412337 284.258625 
L 226.412337 169.452471 
L 224.567709 169.452471 
z
" style="fill:#1f77b4;"/>
   </g>
   <g id="patch_80">
    <path clip-path="url(#pcdb7cfd336)" d="M 226.873494 284.258625 
L 228.718122 284.258625 
L 228.718122 167.286317 
L 226.873494 167.286317 
z
" style="fill:#1f77b4;"/>
   </g>
   <g id="patch_81">
    <path clip-path="url(#pcdb7cfd336)" d="M 229.179279 284.258625 
L 231.023908 284.258625 
L 231.023908 108.800163 
L 229.179279 108.800163 
z
" style="fill:#1f77b4;"/>
   </g>
   <g id="patch_82">
    <path clip-path="url(#pcdb7cfd336)" d="M 231.485065 284.258625 
L 233.329693 284.258625 
L 233.329693 30.818625 
L 231.485065 30.818625 
z
" style="fill:#1f77b4;"/>
   </g>
   <g id="patch_83">
    <path clip-path="url(#pcdb7cfd336)" d="M 233.79085 284.258625 
L 235.635478 284.258625 
L 235.635478 141.292471 
L 233.79085 141.292471 
z
" style="fill:#1f77b4;"/>
   </g>
   <g id="patch_84">
    <path clip-path="url(#pcdb7cfd336)" d="M 236.096635 284.258625 
L 237.941263 284.258625 
L 237.941263 210.609394 
L 236.096635 210.609394 
z
" style="fill:#1f77b4;"/>
   </g>
   <g id="patch_85">
    <path clip-path="url(#pcdb7cfd336)" d="M 238.40242 284.258625 
L 240.247048 284.258625 
L 240.247048 158.621702 
L 238.40242 158.621702 
z
" style="fill:#1f77b4;"/>
   </g>
   <g id="patch_86">
    <path clip-path="url(#pcdb7cfd336)" d="M 240.708205 284.258625 
L 242.552833 284.258625 
L 242.552833 95.80324 
L 240.708205 95.80324 
z
" style="fill:#1f77b4;"/>
   </g>
   <g id="patch_87">
    <path clip-path="url(#pcdb7cfd336)" d="M 243.01399 284.258625 
L 244.858618 284.258625 
L 244.858618 93.637087 
L 243.01399 93.637087 
z
" style="fill:#1f77b4;"/>
   </g>
   <g id="patch_88">
    <path clip-path="url(#pcdb7cfd336)" d="M 245.319775 284.258625 
L 247.164403 284.258625 
L 247.164403 141.292471 
L 245.319775 141.292471 
z
" style="fill:#1f77b4;"/>
   </g>
   <g id="patch_89">
    <path clip-path="url(#pcdb7cfd336)" d="M 247.62556 284.258625 
L 249.470189 284.258625 
L 249.470189 193.280163 
L 247.62556 193.280163 
z
" style="fill:#1f77b4;"/>
   </g>
   <g id="patch_90">
    <path clip-path="url(#pcdb7cfd336)" d="M 249.931346 284.258625 
L 251.775974 284.258625 
L 251.775974 223.606317 
L 249.931346 223.606317 
z
" style="fill:#1f77b4;"/>
   </g>
   <g id="patch_91">
    <path clip-path="url(#pcdb7cfd336)" d="M 252.237131 284.258625 
L 254.081759 284.258625 
L 254.081759 208.44324 
L 252.237131 208.44324 
z
" style="fill:#1f77b4;"/>
   </g>
   <g id="patch_92">
    <path clip-path="url(#pcdb7cfd336)" d="M 254.542916 284.258625 
L 256.387544 284.258625 
L 256.387544 219.27401 
L 254.542916 219.27401 
z
" style="fill:#1f77b4;"/>
   </g>
   <g id="patch_93">
    <path clip-path="url(#pcdb7cfd336)" d="M 256.848701 284.258625 
L 258.693329 284.258625 
L 258.693329 160.787856 
L 256.848701 160.787856 
z
" style="fill:#1f77b4;"/>
   </g>
   <g id="patch_94">
    <path clip-path="url(#pcdb7cfd336)" d="M 259.154486 284.258625 
L 260.999114 284.258625 
L 260.999114 219.27401 
L 259.154486 219.27401 
z
" style="fill:#1f77b4;"/>
   </g>
   <g id="patch_95">
    <path clip-path="url(#pcdb7cfd336)" d="M 261.460271 284.258625 
L 263.304899 284.258625 
L 263.304899 219.27401 
L 261.460271 219.27401 
z
" style="fill:#1f77b4;"/>
   </g>
   <g id="patch_96">
    <path clip-path="url(#pcdb7cfd336)" d="M 263.766056 284.258625 
L 265.610684 284.258625 
L 265.610684 182.449394 
L 263.766056 182.449394 
z
" style="fill:#1f77b4;"/>
   </g>
   <g id="patch_97">
    <path clip-path="url(#pcdb7cfd336)" d="M 266.071841 284.258625 
L 267.91647 284.258625 
L 267.91647 219.27401 
L 266.071841 219.27401 
z
" style="fill:#1f77b4;"/>
   </g>
   <g id="patch_98">
    <path clip-path="url(#pcdb7cfd336)" d="M 268.377627 284.258625 
L 270.222255 284.258625 
L 270.222255 253.932471 
L 268.377627 253.932471 
z
" style="fill:#1f77b4;"/>
   </g>
   <g id="patch_99">
    <path clip-path="url(#pcdb7cfd336)" d="M 270.683412 284.258625 
L 272.52804 284.258625 
L 272.52804 221.440163 
L 270.683412 221.440163 
z
" style="fill:#1f77b4;"/>
   </g>
   <g id="patch_100">
    <path clip-path="url(#pcdb7cfd336)" d="M 272.989197 284.258625 
L 274.833825 284.258625 
L 274.833825 266.929394 
L 272.989197 266.929394 
z
" style="fill:#1f77b4;"/>
   </g>
   <g id="patch_101">
    <path clip-path="url(#pcdb7cfd336)" d="M 275.294982 284.258625 
L 277.13961 284.258625 
L 277.13961 264.76324 
L 275.294982 264.76324 
z
" style="fill:#1f77b4;"/>
   </g>
   <g id="patch_102">
    <path clip-path="url(#pcdb7cfd336)" d="M 277.600767 284.258625 
L 279.445395 284.258625 
L 279.445395 243.101702 
L 277.600767 243.101702 
z
" style="fill:#1f77b4;"/>
   </g>
   <g id="patch_103">
    <path clip-path="url(#pcdb7cfd336)" d="M 279.906552 284.258625 
L 281.75118 284.258625 
L 281.75118 236.60324 
L 279.906552 236.60324 
z
" style="fill:#1f77b4;"/>
   </g>
   <g id="patch_104">
    <path clip-path="url(#pcdb7cfd336)" d="M 282.212337 284.258625 
L 284.056965 284.258625 
L 284.056965 184.615548 
L 282.212337 184.615548 
z
" style="fill:#1f77b4;"/>
   </g>
   <g id="patch_105">
    <path clip-path="url(#pcdb7cfd336)" d="M 284.518122 284.258625 
L 286.362751 284.258625 
L 286.362751 258.264779 
L 284.518122 258.264779 
z
" style="fill:#1f77b4;"/>
   </g>
   <g id="patch_106">
    <path clip-path="url(#pcdb7cfd336)" d="M 286.823908 284.258625 
L 288.668536 284.258625 
L 288.668536 225.772471 
L 286.823908 225.772471 
z
" style="fill:#1f77b4;"/>
   </g>
   <g id="patch_107">
    <path clip-path="url(#pcdb7cfd336)" d="M 289.129693 284.258625 
L 290.974321 284.258625 
L 290.974321 212.775548 
L 289.129693 212.775548 
z
" style="fill:#1f77b4;"/>
   </g>
   <g id="patch_108">
    <path clip-path="url(#pcdb7cfd336)" d="M 291.435478 284.258625 
L 293.280106 284.258625 
L 293.280106 214.941702 
L 291.435478 214.941702 
z
" style="fill:#1f77b4;"/>
   </g>
   <g id="patch_109">
    <path clip-path="url(#pcdb7cfd336)" d="M 293.741263 284.258625 
L 295.585891 284.258625 
L 295.585891 236.60324 
L 293.741263 236.60324 
z
" style="fill:#1f77b4;"/>
   </g>
   <g id="patch_110">
    <path clip-path="url(#pcdb7cfd336)" d="M 296.047048 284.258625 
L 297.891676 284.258625 
L 297.891676 251.766317 
L 296.047048 251.766317 
z
" style="fill:#1f77b4;"/>
   </g>
   <g id="patch_111">
    <path clip-path="url(#pcdb7cfd336)" d="M 298.352833 284.258625 
L 300.197461 284.258625 
L 300.197461 232.270933 
L 298.352833 232.270933 
z
" style="fill:#1f77b4;"/>
   </g>
   <g id="patch_112">
    <path clip-path="url(#pcdb7cfd336)" d="M 300.658618 284.258625 
L 302.503246 284.258625 
L 302.503246 279.926317 
L 300.658618 279.926317 
z
" style="fill:#1f77b4;"/>
   </g>
   <g id="patch_113">
    <path clip-path="url(#pcdb7cfd336)" d="M 302.964403 284.258625 
L 304.809032 284.258625 
L 304.809032 269.095548 
L 302.964403 269.095548 
z
" style="fill:#1f77b4;"/>
   </g>
   <g id="patch_114">
    <path clip-path="url(#pcdb7cfd336)" d="M 305.270189 284.258625 
L 307.114817 284.258625 
L 307.114817 240.935548 
L 305.270189 240.935548 
z
" style="fill:#1f77b4;"/>
   </g>
   <g id="patch_115">
    <path clip-path="url(#pcdb7cfd336)" d="M 307.575974 284.258625 
L 309.420602 284.258625 
L 309.420602 243.101702 
L 307.575974 243.101702 
z
" style="fill:#1f77b4;"/>
   </g>
   <g id="patch_116">
    <path clip-path="url(#pcdb7cfd336)" d="M 309.881759 284.258625 
L 311.726387 284.258625 
L 311.726387 234.437087 
L 309.881759 234.437087 
z
" style="fill:#1f77b4;"/>
   </g>
   <g id="patch_117">
    <path clip-path="url(#pcdb7cfd336)" d="M 312.187544 284.258625 
L 314.032172 284.258625 
L 314.032172 269.095548 
L 312.187544 269.095548 
z
" style="fill:#1f77b4;"/>
   </g>
   <g id="patch_118">
    <path clip-path="url(#pcdb7cfd336)" d="M 314.493329 284.258625 
L 316.337957 284.258625 
L 316.337957 262.597087 
L 314.493329 262.597087 
z
" style="fill:#1f77b4;"/>
   </g>
   <g id="patch_119">
    <path clip-path="url(#pcdb7cfd336)" d="M 316.799114 284.258625 
L 318.643742 284.258625 
L 318.643742 279.926317 
L 316.799114 279.926317 
z
" style="fill:#1f77b4;"/>
   </g>
   <g id="patch_120">
    <path clip-path="url(#pcdb7cfd336)" d="M 319.104899 284.258625 
L 320.949527 284.258625 
L 320.949527 275.59401 
L 319.104899 275.59401 
z
" style="fill:#1f77b4;"/>
   </g>
   <g id="patch_121">
    <path clip-path="url(#pcdb7cfd336)" d="M 321.410684 284.258625 
L 323.255312 284.258625 
L 323.255312 262.597087 
L 321.410684 262.597087 
z
" style="fill:#1f77b4;"/>
   </g>
   <g id="patch_122">
    <path clip-path="url(#pcdb7cfd336)" d="M 323.71647 284.258625 
L 325.561098 284.258625 
L 325.561098 275.59401 
L 323.71647 275.59401 
z
" style="fill:#1f77b4;"/>
   </g>
   <g id="patch_123">
    <path clip-path="url(#pcdb7cfd336)" d="M 326.022255 284.258625 
L 327.866883 284.258625 
L 327.866883 249.600163 
L 326.022255 249.600163 
z
" style="fill:#1f77b4;"/>
   </g>
   <g id="patch_124">
    <path clip-path="url(#pcdb7cfd336)" d="M 328.32804 284.258625 
L 330.172668 284.258625 
L 330.172668 258.264779 
L 328.32804 258.264779 
z
" style="fill:#1f77b4;"/>
   </g>
   <g id="patch_125">
    <path clip-path="url(#pcdb7cfd336)" d="M 330.633825 284.258625 
L 332.478453 284.258625 
L 332.478453 271.261702 
L 330.633825 271.261702 
z
" style="fill:#1f77b4;"/>
   </g>
   <g id="patch_126">
    <path clip-path="url(#pcdb7cfd336)" d="M 332.93961 284.258625 
L 334.784238 284.258625 
L 334.784238 273.427856 
L 332.93961 273.427856 
z
" style="fill:#1f77b4;"/>
   </g>
   <g id="patch_127">
    <path clip-path="url(#pcdb7cfd336)" d="M 335.245395 284.258625 
L 337.090023 284.258625 
L 337.090023 273.427856 
L 335.245395 273.427856 
z
" style="fill:#1f77b4;"/>
   </g>
   <g id="patch_128">
    <path clip-path="url(#pcdb7cfd336)" d="M 337.55118 284.258625 
L 339.395808 284.258625 
L 339.395808 256.098625 
L 337.55118 256.098625 
z
" style="fill:#1f77b4;"/>
   </g>
   <g id="patch_129">
    <path clip-path="url(#pcdb7cfd336)" d="M 339.856965 284.258625 
L 341.701593 284.258625 
L 341.701593 266.929394 
L 339.856965 266.929394 
z
" style="fill:#1f77b4;"/>
   </g>
   <g id="patch_130">
    <path clip-path="url(#pcdb7cfd336)" d="M 342.162751 284.258625 
L 344.007379 284.258625 
L 344.007379 273.427856 
L 342.162751 273.427856 
z
" style="fill:#1f77b4;"/>
   </g>
   <g id="patch_131">
    <path clip-path="url(#pcdb7cfd336)" d="M 344.468536 284.258625 
L 346.313164 284.258625 
L 346.313164 258.264779 
L 344.468536 258.264779 
z
" style="fill:#1f77b4;"/>
   </g>
   <g id="patch_132">
    <path clip-path="url(#pcdb7cfd336)" d="M 346.774321 284.258625 
L 348.618949 284.258625 
L 348.618949 279.926317 
L 346.774321 279.926317 
z
" style="fill:#1f77b4;"/>
   </g>
   <g id="patch_133">
    <path clip-path="url(#pcdb7cfd336)" d="M 349.080106 284.258625 
L 350.924734 284.258625 
L 350.924734 277.760163 
L 349.080106 277.760163 
z
" style="fill:#1f77b4;"/>
   </g>
   <g id="patch_134">
    <path clip-path="url(#pcdb7cfd336)" d="M 351.385891 284.258625 
L 353.230519 284.258625 
L 353.230519 258.264779 
L 351.385891 258.264779 
z
" style="fill:#1f77b4;"/>
   </g>
   <g id="patch_135">
    <path clip-path="url(#pcdb7cfd336)" d="M 353.691676 284.258625 
L 355.536304 284.258625 
L 355.536304 262.597087 
L 353.691676 262.597087 
z
" style="fill:#1f77b4;"/>
   </g>
   <g id="patch_136">
    <path clip-path="url(#pcdb7cfd336)" d="M 355.997461 284.258625 
L 357.842089 284.258625 
L 357.842089 253.932471 
L 355.997461 253.932471 
z
" style="fill:#1f77b4;"/>
   </g>
   <g id="patch_137">
    <path clip-path="url(#pcdb7cfd336)" d="M 358.303246 284.258625 
L 360.147874 284.258625 
L 360.147874 251.766317 
L 358.303246 251.766317 
z
" style="fill:#1f77b4;"/>
   </g>
   <g id="patch_138">
    <path clip-path="url(#pcdb7cfd336)" d="M 360.609032 284.258625 
L 362.45366 284.258625 
L 362.45366 264.76324 
L 360.609032 264.76324 
z
" style="fill:#1f77b4;"/>
   </g>
   <g id="patch_139">
    <path clip-path="url(#pcdb7cfd336)" d="M 362.914817 284.258625 
L 364.759445 284.258625 
L 364.759445 264.76324 
L 362.914817 264.76324 
z
" style="fill:#1f77b4;"/>
   </g>
   <g id="patch_140">
    <path clip-path="url(#pcdb7cfd336)" d="M 365.220602 284.258625 
L 367.06523 284.258625 
L 367.06523 260.430933 
L 365.220602 260.430933 
z
" style="fill:#1f77b4;"/>
   </g>
   <g id="patch_141">
    <path clip-path="url(#pcdb7cfd336)" d="M 367.526387 284.258625 
L 369.371015 284.258625 
L 369.371015 262.597087 
L 367.526387 262.597087 
z
" style="fill:#1f77b4;"/>
   </g>
   <g id="patch_142">
    <path clip-path="url(#pcdb7cfd336)" d="M 369.832172 284.258625 
L 371.6768 284.258625 
L 371.6768 262.597087 
L 369.832172 262.597087 
z
" style="fill:#1f77b4;"/>
   </g>
   <g id="patch_143">
    <path clip-path="url(#pcdb7cfd336)" d="M 372.137957 284.258625 
L 373.982585 284.258625 
L 373.982585 277.760163 
L 372.137957 277.760163 
z
" style="fill:#1f77b4;"/>
   </g>
   <g id="patch_144">
    <path clip-path="url(#pcdb7cfd336)" d="M 49.32804 284.258625 
L 51.172668 284.258625 
L 51.172668 282.092471 
L 49.32804 282.092471 
z
" style="fill:#ff7f0e;"/>
   </g>
   <g id="patch_145">
    <path clip-path="url(#pcdb7cfd336)" d="M 51.633825 284.258625 
L 53.478453 284.258625 
L 53.478453 284.258625 
L 51.633825 284.258625 
z
" style="fill:#ff7f0e;"/>
   </g>
   <g id="patch_146">
    <path clip-path="url(#pcdb7cfd336)" d="M 53.93961 284.258625 
L 55.784238 284.258625 
L 55.784238 284.258625 
L 53.93961 284.258625 
z
" style="fill:#ff7f0e;"/>
   </g>
   <g id="patch_147">
    <path clip-path="url(#pcdb7cfd336)" d="M 56.245395 284.258625 
L 58.090023 284.258625 
L 58.090023 284.258625 
L 56.245395 284.258625 
z
" style="fill:#ff7f0e;"/>
   </g>
   <g id="patch_148">
    <path clip-path="url(#pcdb7cfd336)" d="M 58.55118 284.258625 
L 60.395808 284.258625 
L 60.395808 284.258625 
L 58.55118 284.258625 
z
" style="fill:#ff7f0e;"/>
   </g>
   <g id="patch_149">
    <path clip-path="url(#pcdb7cfd336)" d="M 60.856965 284.258625 
L 62.701593 284.258625 
L 62.701593 284.258625 
L 60.856965 284.258625 
z
" style="fill:#ff7f0e;"/>
   </g>
   <g id="patch_150">
    <path clip-path="url(#pcdb7cfd336)" d="M 63.162751 284.258625 
L 65.007379 284.258625 
L 65.007379 284.258625 
L 63.162751 284.258625 
z
" style="fill:#ff7f0e;"/>
   </g>
   <g id="patch_151">
    <path clip-path="url(#pcdb7cfd336)" d="M 65.468536 284.258625 
L 67.313164 284.258625 
L 67.313164 284.258625 
L 65.468536 284.258625 
z
" style="fill:#ff7f0e;"/>
   </g>
   <g id="patch_152">
    <path clip-path="url(#pcdb7cfd336)" d="M 67.774321 284.258625 
L 69.618949 284.258625 
L 69.618949 284.258625 
L 67.774321 284.258625 
z
" style="fill:#ff7f0e;"/>
   </g>
   <g id="patch_153">
    <path clip-path="url(#pcdb7cfd336)" d="M 70.080106 284.258625 
L 71.924734 284.258625 
L 71.924734 284.258625 
L 70.080106 284.258625 
z
" style="fill:#ff7f0e;"/>
   </g>
   <g id="patch_154">
    <path clip-path="url(#pcdb7cfd336)" d="M 72.385891 284.258625 
L 74.230519 284.258625 
L 74.230519 284.258625 
L 72.385891 284.258625 
z
" style="fill:#ff7f0e;"/>
   </g>
   <g id="patch_155">
    <path clip-path="url(#pcdb7cfd336)" d="M 74.691676 284.258625 
L 76.536304 284.258625 
L 76.536304 284.258625 
L 74.691676 284.258625 
z
" style="fill:#ff7f0e;"/>
   </g>
   <g id="patch_156">
    <path clip-path="url(#pcdb7cfd336)" d="M 76.997461 284.258625 
L 78.842089 284.258625 
L 78.842089 284.258625 
L 76.997461 284.258625 
z
" style="fill:#ff7f0e;"/>
   </g>
   <g id="patch_157">
    <path clip-path="url(#pcdb7cfd336)" d="M 79.303246 284.258625 
L 81.147874 284.258625 
L 81.147874 284.258625 
L 79.303246 284.258625 
z
" style="fill:#ff7f0e;"/>
   </g>
   <g id="patch_158">
    <path clip-path="url(#pcdb7cfd336)" d="M 81.609032 284.258625 
L 83.45366 284.258625 
L 83.45366 284.258625 
L 81.609032 284.258625 
z
" style="fill:#ff7f0e;"/>
   </g>
   <g id="patch_159">
    <path clip-path="url(#pcdb7cfd336)" d="M 83.914817 284.258625 
L 85.759445 284.258625 
L 85.759445 284.258625 
L 83.914817 284.258625 
z
" style="fill:#ff7f0e;"/>
   </g>
   <g id="patch_160">
    <path clip-path="url(#pcdb7cfd336)" d="M 86.220602 284.258625 
L 88.06523 284.258625 
L 88.06523 284.258625 
L 86.220602 284.258625 
z
" style="fill:#ff7f0e;"/>
   </g>
   <g id="patch_161">
    <path clip-path="url(#pcdb7cfd336)" d="M 88.526387 284.258625 
L 90.371015 284.258625 
L 90.371015 284.258625 
L 88.526387 284.258625 
z
" style="fill:#ff7f0e;"/>
   </g>
   <g id="patch_162">
    <path clip-path="url(#pcdb7cfd336)" d="M 90.832172 284.258625 
L 92.6768 284.258625 
L 92.6768 284.258625 
L 90.832172 284.258625 
z
" style="fill:#ff7f0e;"/>
   </g>
   <g id="patch_163">
    <path clip-path="url(#pcdb7cfd336)" d="M 93.137957 284.258625 
L 94.982585 284.258625 
L 94.982585 284.258625 
L 93.137957 284.258625 
z
" style="fill:#ff7f0e;"/>
   </g>
   <g id="patch_164">
    <path clip-path="url(#pcdb7cfd336)" d="M 95.443742 284.258625 
L 97.28837 284.258625 
L 97.28837 284.258625 
L 95.443742 284.258625 
z
" style="fill:#ff7f0e;"/>
   </g>
   <g id="patch_165">
    <path clip-path="url(#pcdb7cfd336)" d="M 97.749527 284.258625 
L 99.594155 284.258625 
L 99.594155 284.258625 
L 97.749527 284.258625 
z
" style="fill:#ff7f0e;"/>
   </g>
   <g id="patch_166">
    <path clip-path="url(#pcdb7cfd336)" d="M 100.055312 284.258625 
L 101.899941 284.258625 
L 101.899941 284.258625 
L 100.055312 284.258625 
z
" style="fill:#ff7f0e;"/>
   </g>
   <g id="patch_167">
    <path clip-path="url(#pcdb7cfd336)" d="M 102.361098 284.258625 
L 104.205726 284.258625 
L 104.205726 284.258625 
L 102.361098 284.258625 
z
" style="fill:#ff7f0e;"/>
   </g>
   <g id="patch_168">
    <path clip-path="url(#pcdb7cfd336)" d="M 104.666883 284.258625 
L 106.511511 284.258625 
L 106.511511 284.258625 
L 104.666883 284.258625 
z
" style="fill:#ff7f0e;"/>
   </g>
   <g id="patch_169">
    <path clip-path="url(#pcdb7cfd336)" d="M 106.972668 284.258625 
L 108.817296 284.258625 
L 108.817296 284.258625 
L 106.972668 284.258625 
z
" style="fill:#ff7f0e;"/>
   </g>
   <g id="patch_170">
    <path clip-path="url(#pcdb7cfd336)" d="M 109.278453 284.258625 
L 111.123081 284.258625 
L 111.123081 284.258625 
L 109.278453 284.258625 
z
" style="fill:#ff7f0e;"/>
   </g>
   <g id="patch_171">
    <path clip-path="url(#pcdb7cfd336)" d="M 111.584238 284.258625 
L 113.428866 284.258625 
L 113.428866 284.258625 
L 111.584238 284.258625 
z
" style="fill:#ff7f0e;"/>
   </g>
   <g id="patch_172">
    <path clip-path="url(#pcdb7cfd336)" d="M 113.890023 284.258625 
L 115.734651 284.258625 
L 115.734651 284.258625 
L 113.890023 284.258625 
z
" style="fill:#ff7f0e;"/>
   </g>
   <g id="patch_173">
    <path clip-path="url(#pcdb7cfd336)" d="M 116.195808 284.258625 
L 118.040436 284.258625 
L 118.040436 284.258625 
L 116.195808 284.258625 
z
" style="fill:#ff7f0e;"/>
   </g>
   <g id="patch_174">
    <path clip-path="url(#pcdb7cfd336)" d="M 118.501593 284.258625 
L 120.346222 284.258625 
L 120.346222 284.258625 
L 118.501593 284.258625 
z
" style="fill:#ff7f0e;"/>
   </g>
   <g id="patch_175">
    <path clip-path="url(#pcdb7cfd336)" d="M 120.807379 284.258625 
L 122.652007 284.258625 
L 122.652007 284.258625 
L 120.807379 284.258625 
z
" style="fill:#ff7f0e;"/>
   </g>
   <g id="patch_176">
    <path clip-path="url(#pcdb7cfd336)" d="M 123.113164 284.258625 
L 124.957792 284.258625 
L 124.957792 284.258625 
L 123.113164 284.258625 
z
" style="fill:#ff7f0e;"/>
   </g>
   <g id="patch_177">
    <path clip-path="url(#pcdb7cfd336)" d="M 125.418949 284.258625 
L 127.263577 284.258625 
L 127.263577 284.258625 
L 125.418949 284.258625 
z
" style="fill:#ff7f0e;"/>
   </g>
   <g id="patch_178">
    <path clip-path="url(#pcdb7cfd336)" d="M 127.724734 284.258625 
L 129.569362 284.258625 
L 129.569362 284.258625 
L 127.724734 284.258625 
z
" style="fill:#ff7f0e;"/>
   </g>
   <g id="patch_179">
    <path clip-path="url(#pcdb7cfd336)" d="M 130.030519 284.258625 
L 131.875147 284.258625 
L 131.875147 284.258625 
L 130.030519 284.258625 
z
" style="fill:#ff7f0e;"/>
   </g>
   <g id="patch_180">
    <path clip-path="url(#pcdb7cfd336)" d="M 132.336304 284.258625 
L 134.180932 284.258625 
L 134.180932 284.258625 
L 132.336304 284.258625 
z
" style="fill:#ff7f0e;"/>
   </g>
   <g id="patch_181">
    <path clip-path="url(#pcdb7cfd336)" d="M 134.642089 284.258625 
L 136.486717 284.258625 
L 136.486717 284.258625 
L 134.642089 284.258625 
z
" style="fill:#ff7f0e;"/>
   </g>
   <g id="patch_182">
    <path clip-path="url(#pcdb7cfd336)" d="M 136.947874 284.258625 
L 138.792503 284.258625 
L 138.792503 284.258625 
L 136.947874 284.258625 
z
" style="fill:#ff7f0e;"/>
   </g>
   <g id="patch_183">
    <path clip-path="url(#pcdb7cfd336)" d="M 139.25366 284.258625 
L 141.098288 284.258625 
L 141.098288 284.258625 
L 139.25366 284.258625 
z
" style="fill:#ff7f0e;"/>
   </g>
   <g id="patch_184">
    <path clip-path="url(#pcdb7cfd336)" d="M 141.559445 284.258625 
L 143.404073 284.258625 
L 143.404073 282.092471 
L 141.559445 282.092471 
z
" style="fill:#ff7f0e;"/>
   </g>
   <g id="patch_185">
    <path clip-path="url(#pcdb7cfd336)" d="M 143.86523 284.258625 
L 145.709858 284.258625 
L 145.709858 273.427856 
L 143.86523 273.427856 
z
" style="fill:#ff7f0e;"/>
   </g>
   <g id="patch_186">
    <path clip-path="url(#pcdb7cfd336)" d="M 146.171015 284.258625 
L 148.015643 284.258625 
L 148.015643 284.258625 
L 146.171015 284.258625 
z
" style="fill:#ff7f0e;"/>
   </g>
   <g id="patch_187">
    <path clip-path="url(#pcdb7cfd336)" d="M 148.4768 284.258625 
L 150.321428 284.258625 
L 150.321428 284.258625 
L 148.4768 284.258625 
z
" style="fill:#ff7f0e;"/>
   </g>
   <g id="patch_188">
    <path clip-path="url(#pcdb7cfd336)" d="M 150.782585 284.258625 
L 152.627213 284.258625 
L 152.627213 282.092471 
L 150.782585 282.092471 
z
" style="fill:#ff7f0e;"/>
   </g>
   <g id="patch_189">
    <path clip-path="url(#pcdb7cfd336)" d="M 153.08837 284.258625 
L 154.932998 284.258625 
L 154.932998 284.258625 
L 153.08837 284.258625 
z
" style="fill:#ff7f0e;"/>
   </g>
   <g id="patch_190">
    <path clip-path="url(#pcdb7cfd336)" d="M 155.394155 284.258625 
L 157.238784 284.258625 
L 157.238784 284.258625 
L 155.394155 284.258625 
z
" style="fill:#ff7f0e;"/>
   </g>
   <g id="patch_191">
    <path clip-path="url(#pcdb7cfd336)" d="M 157.699941 284.258625 
L 159.544569 284.258625 
L 159.544569 284.258625 
L 157.699941 284.258625 
z
" style="fill:#ff7f0e;"/>
   </g>
   <g id="patch_192">
    <path clip-path="url(#pcdb7cfd336)" d="M 160.005726 284.258625 
L 161.850354 284.258625 
L 161.850354 282.092471 
L 160.005726 282.092471 
z
" style="fill:#ff7f0e;"/>
   </g>
   <g id="patch_193">
    <path clip-path="url(#pcdb7cfd336)" d="M 162.311511 284.258625 
L 164.156139 284.258625 
L 164.156139 284.258625 
L 162.311511 284.258625 
z
" style="fill:#ff7f0e;"/>
   </g>
   <g id="patch_194">
    <path clip-path="url(#pcdb7cfd336)" d="M 164.617296 284.258625 
L 166.461924 284.258625 
L 166.461924 284.258625 
L 164.617296 284.258625 
z
" style="fill:#ff7f0e;"/>
   </g>
   <g id="patch_195">
    <path clip-path="url(#pcdb7cfd336)" d="M 166.923081 284.258625 
L 168.767709 284.258625 
L 168.767709 284.258625 
L 166.923081 284.258625 
z
" style="fill:#ff7f0e;"/>
   </g>
   <g id="patch_196">
    <path clip-path="url(#pcdb7cfd336)" d="M 169.228866 284.258625 
L 171.073494 284.258625 
L 171.073494 284.258625 
L 169.228866 284.258625 
z
" style="fill:#ff7f0e;"/>
   </g>
   <g id="patch_197">
    <path clip-path="url(#pcdb7cfd336)" d="M 171.534651 284.258625 
L 173.379279 284.258625 
L 173.379279 284.258625 
L 171.534651 284.258625 
z
" style="fill:#ff7f0e;"/>
   </g>
   <g id="patch_198">
    <path clip-path="url(#pcdb7cfd336)" d="M 173.840436 284.258625 
L 175.685065 284.258625 
L 175.685065 284.258625 
L 173.840436 284.258625 
z
" style="fill:#ff7f0e;"/>
   </g>
   <g id="patch_199">
    <path clip-path="url(#pcdb7cfd336)" d="M 176.146222 284.258625 
L 177.99085 284.258625 
L 177.99085 284.258625 
L 176.146222 284.258625 
z
" style="fill:#ff7f0e;"/>
   </g>
   <g id="patch_200">
    <path clip-path="url(#pcdb7cfd336)" d="M 178.452007 284.258625 
L 180.296635 284.258625 
L 180.296635 284.258625 
L 178.452007 284.258625 
z
" style="fill:#ff7f0e;"/>
   </g>
   <g id="patch_201">
    <path clip-path="url(#pcdb7cfd336)" d="M 180.757792 284.258625 
L 182.60242 284.258625 
L 182.60242 284.258625 
L 180.757792 284.258625 
z
" style="fill:#ff7f0e;"/>
   </g>
   <g id="patch_202">
    <path clip-path="url(#pcdb7cfd336)" d="M 183.063577 284.258625 
L 184.908205 284.258625 
L 184.908205 284.258625 
L 183.063577 284.258625 
z
" style="fill:#ff7f0e;"/>
   </g>
   <g id="patch_203">
    <path clip-path="url(#pcdb7cfd336)" d="M 185.369362 284.258625 
L 187.21399 284.258625 
L 187.21399 284.258625 
L 185.369362 284.258625 
z
" style="fill:#ff7f0e;"/>
   </g>
   <g id="patch_204">
    <path clip-path="url(#pcdb7cfd336)" d="M 187.675147 284.258625 
L 189.519775 284.258625 
L 189.519775 279.926317 
L 187.675147 279.926317 
z
" style="fill:#ff7f0e;"/>
   </g>
   <g id="patch_205">
    <path clip-path="url(#pcdb7cfd336)" d="M 189.980932 284.258625 
L 191.82556 284.258625 
L 191.82556 284.258625 
L 189.980932 284.258625 
z
" style="fill:#ff7f0e;"/>
   </g>
   <g id="patch_206">
    <path clip-path="url(#pcdb7cfd336)" d="M 192.286717 284.258625 
L 194.131346 284.258625 
L 194.131346 284.258625 
L 192.286717 284.258625 
z
" style="fill:#ff7f0e;"/>
   </g>
   <g id="patch_207">
    <path clip-path="url(#pcdb7cfd336)" d="M 194.592503 284.258625 
L 196.437131 284.258625 
L 196.437131 282.092471 
L 194.592503 282.092471 
z
" style="fill:#ff7f0e;"/>
   </g>
   <g id="patch_208">
    <path clip-path="url(#pcdb7cfd336)" d="M 196.898288 284.258625 
L 198.742916 284.258625 
L 198.742916 282.092471 
L 196.898288 282.092471 
z
" style="fill:#ff7f0e;"/>
   </g>
   <g id="patch_209">
    <path clip-path="url(#pcdb7cfd336)" d="M 199.204073 284.258625 
L 201.048701 284.258625 
L 201.048701 284.258625 
L 199.204073 284.258625 
z
" style="fill:#ff7f0e;"/>
   </g>
   <g id="patch_210">
    <path clip-path="url(#pcdb7cfd336)" d="M 201.509858 284.258625 
L 203.354486 284.258625 
L 203.354486 284.258625 
L 201.509858 284.258625 
z
" style="fill:#ff7f0e;"/>
   </g>
   <g id="patch_211">
    <path clip-path="url(#pcdb7cfd336)" d="M 203.815643 284.258625 
L 205.660271 284.258625 
L 205.660271 284.258625 
L 203.815643 284.258625 
z
" style="fill:#ff7f0e;"/>
   </g>
   <g id="patch_212">
    <path clip-path="url(#pcdb7cfd336)" d="M 206.121428 284.258625 
L 207.966056 284.258625 
L 207.966056 284.258625 
L 206.121428 284.258625 
z
" style="fill:#ff7f0e;"/>
   </g>
   <g id="patch_213">
    <path clip-path="url(#pcdb7cfd336)" d="M 208.427213 284.258625 
L 210.271841 284.258625 
L 210.271841 284.258625 
L 208.427213 284.258625 
z
" style="fill:#ff7f0e;"/>
   </g>
   <g id="patch_214">
    <path clip-path="url(#pcdb7cfd336)" d="M 210.732998 284.258625 
L 212.577627 284.258625 
L 212.577627 279.926317 
L 210.732998 279.926317 
z
" style="fill:#ff7f0e;"/>
   </g>
   <g id="patch_215">
    <path clip-path="url(#pcdb7cfd336)" d="M 213.038784 284.258625 
L 214.883412 284.258625 
L 214.883412 284.258625 
L 213.038784 284.258625 
z
" style="fill:#ff7f0e;"/>
   </g>
   <g id="patch_216">
    <path clip-path="url(#pcdb7cfd336)" d="M 215.344569 284.258625 
L 217.189197 284.258625 
L 217.189197 279.926317 
L 215.344569 279.926317 
z
" style="fill:#ff7f0e;"/>
   </g>
   <g id="patch_217">
    <path clip-path="url(#pcdb7cfd336)" d="M 217.650354 284.258625 
L 219.494982 284.258625 
L 219.494982 284.258625 
L 217.650354 284.258625 
z
" style="fill:#ff7f0e;"/>
   </g>
   <g id="patch_218">
    <path clip-path="url(#pcdb7cfd336)" d="M 219.956139 284.258625 
L 221.800767 284.258625 
L 221.800767 284.258625 
L 219.956139 284.258625 
z
" style="fill:#ff7f0e;"/>
   </g>
   <g id="patch_219">
    <path clip-path="url(#pcdb7cfd336)" d="M 222.261924 284.258625 
L 224.106552 284.258625 
L 224.106552 279.926317 
L 222.261924 279.926317 
z
" style="fill:#ff7f0e;"/>
   </g>
   <g id="patch_220">
    <path clip-path="url(#pcdb7cfd336)" d="M 224.567709 284.258625 
L 226.412337 284.258625 
L 226.412337 282.092471 
L 224.567709 282.092471 
z
" style="fill:#ff7f0e;"/>
   </g>
   <g id="patch_221">
    <path clip-path="url(#pcdb7cfd336)" d="M 226.873494 284.258625 
L 228.718122 284.258625 
L 228.718122 271.261702 
L 226.873494 271.261702 
z
" style="fill:#ff7f0e;"/>
   </g>
   <g id="patch_222">
    <path clip-path="url(#pcdb7cfd336)" d="M 229.179279 284.258625 
L 231.023908 284.258625 
L 231.023908 271.261702 
L 229.179279 271.261702 
z
" style="fill:#ff7f0e;"/>
   </g>
   <g id="patch_223">
    <path clip-path="url(#pcdb7cfd336)" d="M 231.485065 284.258625 
L 233.329693 284.258625 
L 233.329693 277.760163 
L 231.485065 277.760163 
z
" style="fill:#ff7f0e;"/>
   </g>
   <g id="patch_224">
    <path clip-path="url(#pcdb7cfd336)" d="M 233.79085 284.258625 
L 235.635478 284.258625 
L 235.635478 282.092471 
L 233.79085 282.092471 
z
" style="fill:#ff7f0e;"/>
   </g>
   <g id="patch_225">
    <path clip-path="url(#pcdb7cfd336)" d="M 236.096635 284.258625 
L 237.941263 284.258625 
L 237.941263 277.760163 
L 236.096635 277.760163 
z
" style="fill:#ff7f0e;"/>
   </g>
   <g id="patch_226">
    <path clip-path="url(#pcdb7cfd336)" d="M 238.40242 284.258625 
L 240.247048 284.258625 
L 240.247048 279.926317 
L 238.40242 279.926317 
z
" style="fill:#ff7f0e;"/>
   </g>
   <g id="patch_227">
    <path clip-path="url(#pcdb7cfd336)" d="M 240.708205 284.258625 
L 242.552833 284.258625 
L 242.552833 279.926317 
L 240.708205 279.926317 
z
" style="fill:#ff7f0e;"/>
   </g>
   <g id="patch_228">
    <path clip-path="url(#pcdb7cfd336)" d="M 243.01399 284.258625 
L 244.858618 284.258625 
L 244.858618 284.258625 
L 243.01399 284.258625 
z
" style="fill:#ff7f0e;"/>
   </g>
   <g id="patch_229">
    <path clip-path="url(#pcdb7cfd336)" d="M 245.319775 284.258625 
L 247.164403 284.258625 
L 247.164403 279.926317 
L 245.319775 279.926317 
z
" style="fill:#ff7f0e;"/>
   </g>
   <g id="patch_230">
    <path clip-path="url(#pcdb7cfd336)" d="M 247.62556 284.258625 
L 249.470189 284.258625 
L 249.470189 284.258625 
L 247.62556 284.258625 
z
" style="fill:#ff7f0e;"/>
   </g>
   <g id="patch_231">
    <path clip-path="url(#pcdb7cfd336)" d="M 249.931346 284.258625 
L 251.775974 284.258625 
L 251.775974 284.258625 
L 249.931346 284.258625 
z
" style="fill:#ff7f0e;"/>
   </g>
   <g id="patch_232">
    <path clip-path="url(#pcdb7cfd336)" d="M 252.237131 284.258625 
L 254.081759 284.258625 
L 254.081759 284.258625 
L 252.237131 284.258625 
z
" style="fill:#ff7f0e;"/>
   </g>
   <g id="patch_233">
    <path clip-path="url(#pcdb7cfd336)" d="M 254.542916 284.258625 
L 256.387544 284.258625 
L 256.387544 284.258625 
L 254.542916 284.258625 
z
" style="fill:#ff7f0e;"/>
   </g>
   <g id="patch_234">
    <path clip-path="url(#pcdb7cfd336)" d="M 256.848701 284.258625 
L 258.693329 284.258625 
L 258.693329 284.258625 
L 256.848701 284.258625 
z
" style="fill:#ff7f0e;"/>
   </g>
   <g id="patch_235">
    <path clip-path="url(#pcdb7cfd336)" d="M 259.154486 284.258625 
L 260.999114 284.258625 
L 260.999114 284.258625 
L 259.154486 284.258625 
z
" style="fill:#ff7f0e;"/>
   </g>
   <g id="patch_236">
    <path clip-path="url(#pcdb7cfd336)" d="M 261.460271 284.258625 
L 263.304899 284.258625 
L 263.304899 284.258625 
L 261.460271 284.258625 
z
" style="fill:#ff7f0e;"/>
   </g>
   <g id="patch_237">
    <path clip-path="url(#pcdb7cfd336)" d="M 263.766056 284.258625 
L 265.610684 284.258625 
L 265.610684 284.258625 
L 263.766056 284.258625 
z
" style="fill:#ff7f0e;"/>
   </g>
   <g id="patch_238">
    <path clip-path="url(#pcdb7cfd336)" d="M 266.071841 284.258625 
L 267.91647 284.258625 
L 267.91647 284.258625 
L 266.071841 284.258625 
z
" style="fill:#ff7f0e;"/>
   </g>
   <g id="patch_239">
    <path clip-path="url(#pcdb7cfd336)" d="M 268.377627 284.258625 
L 270.222255 284.258625 
L 270.222255 284.258625 
L 268.377627 284.258625 
z
" style="fill:#ff7f0e;"/>
   </g>
   <g id="patch_240">
    <path clip-path="url(#pcdb7cfd336)" d="M 270.683412 284.258625 
L 272.52804 284.258625 
L 272.52804 284.258625 
L 270.683412 284.258625 
z
" style="fill:#ff7f0e;"/>
   </g>
   <g id="patch_241">
    <path clip-path="url(#pcdb7cfd336)" d="M 272.989197 284.258625 
L 274.833825 284.258625 
L 274.833825 284.258625 
L 272.989197 284.258625 
z
" style="fill:#ff7f0e;"/>
   </g>
   <g id="patch_242">
    <path clip-path="url(#pcdb7cfd336)" d="M 275.294982 284.258625 
L 277.13961 284.258625 
L 277.13961 284.258625 
L 275.294982 284.258625 
z
" style="fill:#ff7f0e;"/>
   </g>
   <g id="patch_243">
    <path clip-path="url(#pcdb7cfd336)" d="M 277.600767 284.258625 
L 279.445395 284.258625 
L 279.445395 284.258625 
L 277.600767 284.258625 
z
" style="fill:#ff7f0e;"/>
   </g>
   <g id="patch_244">
    <path clip-path="url(#pcdb7cfd336)" d="M 279.906552 284.258625 
L 281.75118 284.258625 
L 281.75118 284.258625 
L 279.906552 284.258625 
z
" style="fill:#ff7f0e;"/>
   </g>
   <g id="patch_245">
    <path clip-path="url(#pcdb7cfd336)" d="M 282.212337 284.258625 
L 284.056965 284.258625 
L 284.056965 284.258625 
L 282.212337 284.258625 
z
" style="fill:#ff7f0e;"/>
   </g>
   <g id="patch_246">
    <path clip-path="url(#pcdb7cfd336)" d="M 284.518122 284.258625 
L 286.362751 284.258625 
L 286.362751 284.258625 
L 284.518122 284.258625 
z
" style="fill:#ff7f0e;"/>
   </g>
   <g id="patch_247">
    <path clip-path="url(#pcdb7cfd336)" d="M 286.823908 284.258625 
L 288.668536 284.258625 
L 288.668536 284.258625 
L 286.823908 284.258625 
z
" style="fill:#ff7f0e;"/>
   </g>
   <g id="patch_248">
    <path clip-path="url(#pcdb7cfd336)" d="M 289.129693 284.258625 
L 290.974321 284.258625 
L 290.974321 284.258625 
L 289.129693 284.258625 
z
" style="fill:#ff7f0e;"/>
   </g>
   <g id="patch_249">
    <path clip-path="url(#pcdb7cfd336)" d="M 291.435478 284.258625 
L 293.280106 284.258625 
L 293.280106 284.258625 
L 291.435478 284.258625 
z
" style="fill:#ff7f0e;"/>
   </g>
   <g id="patch_250">
    <path clip-path="url(#pcdb7cfd336)" d="M 293.741263 284.258625 
L 295.585891 284.258625 
L 295.585891 284.258625 
L 293.741263 284.258625 
z
" style="fill:#ff7f0e;"/>
   </g>
   <g id="patch_251">
    <path clip-path="url(#pcdb7cfd336)" d="M 296.047048 284.258625 
L 297.891676 284.258625 
L 297.891676 284.258625 
L 296.047048 284.258625 
z
" style="fill:#ff7f0e;"/>
   </g>
   <g id="patch_252">
    <path clip-path="url(#pcdb7cfd336)" d="M 298.352833 284.258625 
L 300.197461 284.258625 
L 300.197461 284.258625 
L 298.352833 284.258625 
z
" style="fill:#ff7f0e;"/>
   </g>
   <g id="patch_253">
    <path clip-path="url(#pcdb7cfd336)" d="M 300.658618 284.258625 
L 302.503246 284.258625 
L 302.503246 284.258625 
L 300.658618 284.258625 
z
" style="fill:#ff7f0e;"/>
   </g>
   <g id="patch_254">
    <path clip-path="url(#pcdb7cfd336)" d="M 302.964403 284.258625 
L 304.809032 284.258625 
L 304.809032 284.258625 
L 302.964403 284.258625 
z
" style="fill:#ff7f0e;"/>
   </g>
   <g id="patch_255">
    <path clip-path="url(#pcdb7cfd336)" d="M 305.270189 284.258625 
L 307.114817 284.258625 
L 307.114817 284.258625 
L 305.270189 284.258625 
z
" style="fill:#ff7f0e;"/>
   </g>
   <g id="patch_256">
    <path clip-path="url(#pcdb7cfd336)" d="M 307.575974 284.258625 
L 309.420602 284.258625 
L 309.420602 284.258625 
L 307.575974 284.258625 
z
" style="fill:#ff7f0e;"/>
   </g>
   <g id="patch_257">
    <path clip-path="url(#pcdb7cfd336)" d="M 309.881759 284.258625 
L 311.726387 284.258625 
L 311.726387 284.258625 
L 309.881759 284.258625 
z
" style="fill:#ff7f0e;"/>
   </g>
   <g id="patch_258">
    <path clip-path="url(#pcdb7cfd336)" d="M 312.187544 284.258625 
L 314.032172 284.258625 
L 314.032172 284.258625 
L 312.187544 284.258625 
z
" style="fill:#ff7f0e;"/>
   </g>
   <g id="patch_259">
    <path clip-path="url(#pcdb7cfd336)" d="M 314.493329 284.258625 
L 316.337957 284.258625 
L 316.337957 284.258625 
L 314.493329 284.258625 
z
" style="fill:#ff7f0e;"/>
   </g>
   <g id="patch_260">
    <path clip-path="url(#pcdb7cfd336)" d="M 316.799114 284.258625 
L 318.643742 284.258625 
L 318.643742 284.258625 
L 316.799114 284.258625 
z
" style="fill:#ff7f0e;"/>
   </g>
   <g id="patch_261">
    <path clip-path="url(#pcdb7cfd336)" d="M 319.104899 284.258625 
L 320.949527 284.258625 
L 320.949527 284.258625 
L 319.104899 284.258625 
z
" style="fill:#ff7f0e;"/>
   </g>
   <g id="patch_262">
    <path clip-path="url(#pcdb7cfd336)" d="M 321.410684 284.258625 
L 323.255312 284.258625 
L 323.255312 284.258625 
L 321.410684 284.258625 
z
" style="fill:#ff7f0e;"/>
   </g>
   <g id="patch_263">
    <path clip-path="url(#pcdb7cfd336)" d="M 323.71647 284.258625 
L 325.561098 284.258625 
L 325.561098 284.258625 
L 323.71647 284.258625 
z
" style="fill:#ff7f0e;"/>
   </g>
   <g id="patch_264">
    <path clip-path="url(#pcdb7cfd336)" d="M 326.022255 284.258625 
L 327.866883 284.258625 
L 327.866883 284.258625 
L 326.022255 284.258625 
z
" style="fill:#ff7f0e;"/>
   </g>
   <g id="patch_265">
    <path clip-path="url(#pcdb7cfd336)" d="M 328.32804 284.258625 
L 330.172668 284.258625 
L 330.172668 284.258625 
L 328.32804 284.258625 
z
" style="fill:#ff7f0e;"/>
   </g>
   <g id="patch_266">
    <path clip-path="url(#pcdb7cfd336)" d="M 330.633825 284.258625 
L 332.478453 284.258625 
L 332.478453 284.258625 
L 330.633825 284.258625 
z
" style="fill:#ff7f0e;"/>
   </g>
   <g id="patch_267">
    <path clip-path="url(#pcdb7cfd336)" d="M 332.93961 284.258625 
L 334.784238 284.258625 
L 334.784238 284.258625 
L 332.93961 284.258625 
z
" style="fill:#ff7f0e;"/>
   </g>
   <g id="patch_268">
    <path clip-path="url(#pcdb7cfd336)" d="M 335.245395 284.258625 
L 337.090023 284.258625 
L 337.090023 284.258625 
L 335.245395 284.258625 
z
" style="fill:#ff7f0e;"/>
   </g>
   <g id="patch_269">
    <path clip-path="url(#pcdb7cfd336)" d="M 337.55118 284.258625 
L 339.395808 284.258625 
L 339.395808 284.258625 
L 337.55118 284.258625 
z
" style="fill:#ff7f0e;"/>
   </g>
   <g id="patch_270">
    <path clip-path="url(#pcdb7cfd336)" d="M 339.856965 284.258625 
L 341.701593 284.258625 
L 341.701593 284.258625 
L 339.856965 284.258625 
z
" style="fill:#ff7f0e;"/>
   </g>
   <g id="patch_271">
    <path clip-path="url(#pcdb7cfd336)" d="M 342.162751 284.258625 
L 344.007379 284.258625 
L 344.007379 284.258625 
L 342.162751 284.258625 
z
" style="fill:#ff7f0e;"/>
   </g>
   <g id="patch_272">
    <path clip-path="url(#pcdb7cfd336)" d="M 344.468536 284.258625 
L 346.313164 284.258625 
L 346.313164 284.258625 
L 344.468536 284.258625 
z
" style="fill:#ff7f0e;"/>
   </g>
   <g id="patch_273">
    <path clip-path="url(#pcdb7cfd336)" d="M 346.774321 284.258625 
L 348.618949 284.258625 
L 348.618949 284.258625 
L 346.774321 284.258625 
z
" style="fill:#ff7f0e;"/>
   </g>
   <g id="patch_274">
    <path clip-path="url(#pcdb7cfd336)" d="M 349.080106 284.258625 
L 350.924734 284.258625 
L 350.924734 284.258625 
L 349.080106 284.258625 
z
" style="fill:#ff7f0e;"/>
   </g>
   <g id="patch_275">
    <path clip-path="url(#pcdb7cfd336)" d="M 351.385891 284.258625 
L 353.230519 284.258625 
L 353.230519 284.258625 
L 351.385891 284.258625 
z
" style="fill:#ff7f0e;"/>
   </g>
   <g id="patch_276">
    <path clip-path="url(#pcdb7cfd336)" d="M 353.691676 284.258625 
L 355.536304 284.258625 
L 355.536304 284.258625 
L 353.691676 284.258625 
z
" style="fill:#ff7f0e;"/>
   </g>
   <g id="patch_277">
    <path clip-path="url(#pcdb7cfd336)" d="M 355.997461 284.258625 
L 357.842089 284.258625 
L 357.842089 284.258625 
L 355.997461 284.258625 
z
" style="fill:#ff7f0e;"/>
   </g>
   <g id="patch_278">
    <path clip-path="url(#pcdb7cfd336)" d="M 358.303246 284.258625 
L 360.147874 284.258625 
L 360.147874 284.258625 
L 358.303246 284.258625 
z
" style="fill:#ff7f0e;"/>
   </g>
   <g id="patch_279">
    <path clip-path="url(#pcdb7cfd336)" d="M 360.609032 284.258625 
L 362.45366 284.258625 
L 362.45366 284.258625 
L 360.609032 284.258625 
z
" style="fill:#ff7f0e;"/>
   </g>
   <g id="patch_280">
    <path clip-path="url(#pcdb7cfd336)" d="M 362.914817 284.258625 
L 364.759445 284.258625 
L 364.759445 284.258625 
L 362.914817 284.258625 
z
" style="fill:#ff7f0e;"/>
   </g>
   <g id="patch_281">
    <path clip-path="url(#pcdb7cfd336)" d="M 365.220602 284.258625 
L 367.06523 284.258625 
L 367.06523 284.258625 
L 365.220602 284.258625 
z
" style="fill:#ff7f0e;"/>
   </g>
   <g id="patch_282">
    <path clip-path="url(#pcdb7cfd336)" d="M 367.526387 284.258625 
L 369.371015 284.258625 
L 369.371015 284.258625 
L 367.526387 284.258625 
z
" style="fill:#ff7f0e;"/>
   </g>
   <g id="patch_283">
    <path clip-path="url(#pcdb7cfd336)" d="M 369.832172 284.258625 
L 371.6768 284.258625 
L 371.6768 284.258625 
L 369.832172 284.258625 
z
" style="fill:#ff7f0e;"/>
   </g>
   <g id="patch_284">
    <path clip-path="url(#pcdb7cfd336)" d="M 372.137957 284.258625 
L 373.982585 284.258625 
L 373.982585 284.258625 
L 372.137957 284.258625 
z
" style="fill:#ff7f0e;"/>
   </g>
   <g id="matplotlib.axis_1">
    <g id="xtick_1">
     <g id="line2d_1">
      <defs>
       <path d="M 0 0 
L 0 3.5 
" id="m0ee85f0510" style="stroke:#000000;stroke-width:0.8;"/>
      </defs>
      <g>
       <use style="stroke:#000000;stroke-width:0.8;" x="54.861924" xlink:href="#m0ee85f0510" y="284.258625"/>
      </g>
     </g>
     <g id="text_1">
      <!-- Feb -->
      <defs>
       <path d="M 54.203125 64.703125 
L 18.3125 64.703125 
L 18.3125 41.5 
L 50.09375 41.5 
L 50.09375 34.1875 
L 18.3125 34.1875 
L 18.3125 0.984375 
L 9.515625 0.984375 
L 9.515625 72.40625 
L 54.203125 72.40625 
z
" id="IPAexGothic-70"/>
       <path d="M 13.484375 24.90625 
Q 13.921875 16.265625 18.890625 11.28125 
Q 23.96875 6.203125 31.203125 6.203125 
Q 40.71875 6.203125 46.296875 15.09375 
L 51.90625 11.375 
Q 44.828125 -0.484375 30.171875 -0.484375 
Q 19.09375 -0.484375 11.96875 6.59375 
Q 4.78125 13.8125 4.78125 25.640625 
Q 4.78125 38.1875 12.3125 45.703125 
Q 19 52.390625 29 52.390625 
Q 38.421875 52.390625 44.78125 46.1875 
Q 51.90625 38.96875 51.90625 26.90625 
L 51.90625 24.90625 
z
M 43.0625 31.203125 
Q 42.328125 37.984375 38.28125 41.890625 
Q 34.28125 45.90625 28.8125 45.90625 
Q 22.46875 45.90625 17.96875 40.484375 
Q 14.890625 36.8125 13.96875 31.203125 
z
" id="IPAexGothic-101"/>
       <path d="M 17.578125 42.671875 
Q 24.21875 52.203125 34.671875 52.203125 
Q 43.5625 52.203125 49.859375 45.90625 
Q 57.171875 38.578125 57.171875 25.6875 
Q 57.171875 13.09375 49.859375 5.8125 
Q 43.5625 -0.484375 34.46875 -0.484375 
Q 24.359375 -0.484375 17 8.0625 
L 15.765625 0.6875 
L 9.078125 0.6875 
L 9.078125 74.90625 
L 17.578125 74.90625 
z
M 17.578125 31.203125 
L 17.578125 19.578125 
Q 17.578125 13.875 23.875 9.375 
Q 28.171875 6.296875 33.109375 6.296875 
Q 38.875 6.296875 42.875 10.296875 
Q 48.1875 15.765625 48.1875 25.484375 
Q 48.1875 34.28125 43.796875 39.890625 
Q 39.453125 45.3125 33.203125 45.3125 
Q 27.484375 45.3125 22.46875 40.28125 
Q 17.578125 35.40625 17.578125 31.203125 
z
" id="IPAexGothic-98"/>
      </defs>
      <g transform="translate(46.038487 298.74925)scale(0.1 -0.1)">
       <use xlink:href="#IPAexGothic-70"/>
       <use x="57.177734" xlink:href="#IPAexGothic-101"/>
       <use x="114.0625" xlink:href="#IPAexGothic-98"/>
      </g>
     </g>
    </g>
    <g id="xtick_2">
     <g id="line2d_2">
      <g>
       <use style="stroke:#000000;stroke-width:0.8;" x="121.729693" xlink:href="#m0ee85f0510" y="284.258625"/>
      </g>
     </g>
     <g id="text_2">
      <!-- Mar -->
      <defs>
       <path d="M 80.421875 0.984375 
L 71.828125 0.984375 
L 71.828125 39.59375 
Q 71.828125 51.265625 72.40625 64.59375 
L 72.015625 64.59375 
Q 68.0625 53.265625 63.53125 41.796875 
L 47.90625 3.265625 
L 41.40625 3.265625 
L 25.640625 42.578125 
Q 20.75 54.78125 17.625 64.703125 
L 17.234375 64.703125 
Q 17.828125 48.921875 17.828125 39.890625 
L 17.828125 0.984375 
L 9.515625 0.984375 
L 9.515625 72.40625 
L 22.125 72.40625 
L 39.109375 30.375 
Q 42.140625 23 44.828125 14.15625 
L 45.125 14.15625 
Q 47.3125 22.125 50.53125 30.171875 
L 67.4375 72.40625 
L 80.421875 72.40625 
z
" id="IPAexGothic-77"/>
       <path d="M 49.3125 0.984375 
L 41.75 0.984375 
Q 39.984375 4.734375 39.546875 8.6875 
L 39.203125 8.6875 
Q 33.546875 -0.390625 22.3125 -0.390625 
Q 14.59375 -0.390625 9.71875 4.5 
Q 5.421875 8.796875 5.421875 14.984375 
Q 5.421875 30.421875 32.03125 31.203125 
L 38.71875 31.390625 
L 38.71875 33.984375 
Q 38.71875 39.203125 35.75 42.1875 
Q 32.625 45.3125 27.734375 45.3125 
Q 19.34375 45.3125 15.140625 37.15625 
L 7.71875 40.578125 
Q 14.65625 52 27.9375 52 
Q 37.109375 52 42.046875 46.875 
Q 46.625 42.28125 46.625 33.890625 
L 46.625 15.578125 
Q 46.625 6.25 49.3125 0.984375 
z
M 38.921875 25.390625 
L 33.453125 25.296875 
Q 14.109375 24.859375 14.109375 14.890625 
Q 14.109375 11.375 16.40625 9.078125 
Q 19.234375 6.296875 23.828125 6.296875 
Q 30.21875 6.296875 34.90625 10.984375 
Q 38.921875 15.140625 38.921875 21 
z
" id="IPAexGothic-97"/>
       <path d="M 36.078125 51.8125 
L 34.578125 43.265625 
Q 32.90625 43.609375 31.59375 43.609375 
Q 25.828125 43.609375 22.078125 38.1875 
Q 17.390625 31.34375 17.390625 26.171875 
L 17.390625 0.984375 
L 8.796875 0.984375 
L 8.796875 50.78125 
L 16.890625 50.78125 
L 16.5 35.984375 
L 16.703125 35.984375 
Q 22.21875 52.203125 32.765625 52.203125 
Q 34.46875 52.203125 36.078125 51.8125 
z
" id="IPAexGothic-114"/>
      </defs>
      <g transform="translate(112.620318 298.74925)scale(0.1 -0.1)">
       <use xlink:href="#IPAexGothic-77"/>
       <use x="90.185547" xlink:href="#IPAexGothic-97"/>
       <use x="145.166016" xlink:href="#IPAexGothic-114"/>
      </g>
     </g>
    </g>
    <g id="xtick_3">
     <g id="line2d_3">
      <g>
       <use style="stroke:#000000;stroke-width:0.8;" x="193.209032" xlink:href="#m0ee85f0510" y="284.258625"/>
      </g>
     </g>
     <g id="text_3">
      <!-- Apr -->
      <defs>
       <path d="M 63.375 0.984375 
L 53.8125 0.984375 
L 45.90625 22.015625 
L 17.1875 22.015625 
L 9.421875 0.984375 
L -0.09375 0.984375 
L 28.21875 72.90625 
L 35.296875 72.90625 
z
M 43.40625 29.109375 
L 36.1875 48.09375 
Q 33.203125 56.0625 31.6875 62.5 
L 31.390625 62.5 
Q 29.640625 55.671875 26.8125 48.09375 
L 19.734375 29.109375 
z
" id="IPAexGothic-65"/>
       <path d="M 16.796875 42 
Q 23.828125 52.203125 34.46875 52.203125 
Q 43.265625 52.203125 49.5625 45.90625 
Q 56.890625 38.578125 56.890625 25.6875 
Q 56.890625 13.140625 49.65625 5.8125 
Q 43.359375 -0.484375 34.375 -0.484375 
Q 24.515625 -0.484375 17.28125 7.765625 
L 17.28125 -19 
L 8.796875 -19 
L 8.796875 50.78125 
L 16.796875 50.78125 
z
M 17.28125 30.46875 
L 17.28125 20.171875 
Q 17.28125 14.015625 23.6875 9.375 
Q 27.984375 6.296875 32.90625 6.296875 
Q 38.578125 6.296875 42.578125 10.296875 
Q 47.90625 15.578125 47.90625 25.484375 
Q 47.90625 34.375 43.5 39.984375 
Q 39.109375 45.3125 32.8125 45.3125 
Q 25.875 45.3125 20.90625 38.8125 
Q 17.28125 34.125 17.28125 30.46875 
z
" id="IPAexGothic-112"/>
      </defs>
      <g transform="translate(185.066844 298.74925)scale(0.1 -0.1)">
       <use xlink:href="#IPAexGothic-65"/>
       <use x="63.720703" xlink:href="#IPAexGothic-112"/>
       <use x="125.830078" xlink:href="#IPAexGothic-114"/>
      </g>
     </g>
    </g>
    <g id="xtick_4">
     <g id="line2d_4">
      <g>
       <use style="stroke:#000000;stroke-width:0.8;" x="262.382585" xlink:href="#m0ee85f0510" y="284.258625"/>
      </g>
     </g>
     <g id="text_4">
      <!-- May -->
      <defs>
       <path d="M 48.78125 50.78125 
L 24.609375 -7.625 
Q 19.96875 -18.796875 8.59375 -18.796875 
L 7.46875 -18.796875 
L 5.375 -10.984375 
L 6.984375 -10.984375 
Q 15.140625 -10.984375 17.96875 -3.71875 
L 21.1875 4.296875 
L 0.59375 50.78125 
L 10.296875 50.78125 
L 21.296875 22.796875 
Q 23.875 16.015625 25.09375 12.203125 
L 25.390625 12.203125 
Q 27.34375 18.265625 29.109375 22.796875 
L 39.5 50.78125 
z
" id="IPAexGothic-121"/>
      </defs>
      <g transform="translate(252.663054 298.74925)scale(0.1 -0.1)">
       <use xlink:href="#IPAexGothic-77"/>
       <use x="90.185547" xlink:href="#IPAexGothic-97"/>
       <use x="145.166016" xlink:href="#IPAexGothic-121"/>
      </g>
     </g>
    </g>
    <g id="xtick_5">
     <g id="line2d_5">
      <g>
       <use style="stroke:#000000;stroke-width:0.8;" x="333.861924" xlink:href="#m0ee85f0510" y="284.258625"/>
      </g>
     </g>
     <g id="text_5">
      <!-- Jun -->
      <defs>
       <path d="M 28.421875 72.40625 
L 28.421875 19.28125 
Q 28.421875 -0.484375 11.921875 -0.484375 
Q 4.734375 -0.484375 -1.953125 3.265625 
L 1.3125 10.0625 
Q 5.90625 6.984375 10.84375 6.984375 
Q 19.53125 6.984375 19.53125 18.796875 
L 19.53125 72.40625 
z
" id="IPAexGothic-74"/>
       <path d="M 51.3125 0.984375 
L 43.3125 0.984375 
L 43.3125 10.0625 
Q 35.9375 0 25.390625 0 
Q 16.75 0 11.921875 5.859375 
Q 8.109375 10.59375 8.109375 19.390625 
L 8.109375 50.78125 
L 16.703125 50.78125 
L 16.703125 19.671875 
Q 16.703125 7.28125 27.09375 7.28125 
Q 37.59375 7.28125 42.71875 20.171875 
L 42.71875 50.78125 
L 51.3125 50.78125 
z
" id="IPAexGothic-117"/>
       <path d="M 52 0.984375 
L 43.40625 0.984375 
L 43.40625 31.890625 
Q 43.40625 44.578125 32.90625 44.578125 
Q 22.3125 44.578125 17.390625 31.890625 
L 17.390625 0.984375 
L 8.796875 0.984375 
L 8.796875 50.78125 
L 16.796875 50.78125 
L 16.796875 41.796875 
Q 23.828125 51.8125 34.71875 51.8125 
Q 52 51.8125 52 32.375 
z
" id="IPAexGothic-110"/>
      </defs>
      <g transform="translate(325.92208 298.74925)scale(0.1 -0.1)">
       <use xlink:href="#IPAexGothic-74"/>
       <use x="37.988281" xlink:href="#IPAexGothic-117"/>
       <use x="98.388672" xlink:href="#IPAexGothic-110"/>
      </g>
     </g>
    </g>
    <g id="text_6">
     <!-- 2020 -->
     <defs>
      <path d="M 57.171875 0.984375 
L 6.984375 0.984375 
L 6.984375 9.28125 
Q 12.890625 23.046875 29.59375 34.421875 
L 32.375 36.28125 
Q 40.921875 42.140625 43.609375 45.40625 
Q 46.6875 49.265625 46.6875 53.8125 
Q 46.6875 58.9375 43.0625 62.546875 
Q 39.0625 66.546875 32.5625 66.546875 
Q 19.53125 66.546875 15.484375 52 
L 7.765625 54.78125 
Q 13.328125 73.828125 33.0625 73.828125 
Q 43.84375 73.828125 50.25 67.4375 
Q 55.859375 61.671875 55.859375 53.515625 
Q 55.859375 47.46875 52.25 42.53125 
Q 48.921875 37.75 36.96875 30.28125 
L 34.859375 29 
Q 19.625 19.578125 15.28125 8.890625 
L 57.171875 8.890625 
z
" id="IPAexGothic-50"/>
      <path d="M 31.84375 73.828125 
Q 45.015625 73.828125 52.09375 61.625 
Q 57.71875 51.953125 57.71875 36.625 
Q 57.71875 21.4375 52.09375 11.578125 
Q 45.125 -0.484375 31.5 -0.484375 
Q 17.921875 -0.484375 10.9375 11.578125 
Q 5.328125 21.4375 5.328125 36.71875 
Q 5.328125 58.015625 15.625 67.71875 
Q 22.171875 73.828125 31.84375 73.828125 
z
M 31.5 66.65625 
Q 23.6875 66.65625 19.1875 58.734375 
Q 14.59375 50.734375 14.59375 36.625 
Q 14.59375 22.75 19.09375 14.796875 
Q 23.640625 6.984375 31.5 6.984375 
Q 40.921875 6.984375 45.453125 18.015625 
Q 48.4375 25.34375 48.4375 37.109375 
Q 48.4375 50.875 43.84375 58.734375 
Q 39.203125 66.65625 31.5 66.65625 
z
" id="IPAexGothic-48"/>
     </defs>
     <g transform="translate(365.021562 311.139875)scale(0.1 -0.1)">
      <use xlink:href="#IPAexGothic-50"/>
      <use x="62.988281" xlink:href="#IPAexGothic-48"/>
      <use x="125.976562" xlink:href="#IPAexGothic-50"/>
      <use x="188.964844" xlink:href="#IPAexGothic-48"/>
     </g>
    </g>
   </g>
   <g id="matplotlib.axis_2">
    <g id="ytick_1">
     <g id="line2d_6">
      <defs>
       <path d="M 0 0 
L -3.5 0 
" id="m3066b2f574" style="stroke:#000000;stroke-width:0.8;"/>
      </defs>
      <g>
       <use style="stroke:#000000;stroke-width:0.8;" x="33.095313" xlink:href="#m3066b2f574" y="284.258625"/>
      </g>
     </g>
     <g id="text_7">
      <!-- 0 -->
      <g transform="translate(19.796875 288.003937)scale(0.1 -0.1)">
       <use xlink:href="#IPAexGothic-48"/>
      </g>
     </g>
    </g>
    <g id="ytick_2">
     <g id="line2d_7">
      <g>
       <use style="stroke:#000000;stroke-width:0.8;" x="33.095313" xlink:href="#m3066b2f574" y="240.935548"/>
      </g>
     </g>
     <g id="text_8">
      <!-- 20 -->
      <g transform="translate(13.498438 244.680861)scale(0.1 -0.1)">
       <use xlink:href="#IPAexGothic-50"/>
       <use x="62.988281" xlink:href="#IPAexGothic-48"/>
      </g>
     </g>
    </g>
    <g id="ytick_3">
     <g id="line2d_8">
      <g>
       <use style="stroke:#000000;stroke-width:0.8;" x="33.095313" xlink:href="#m3066b2f574" y="197.612471"/>
      </g>
     </g>
     <g id="text_9">
      <!-- 40 -->
      <defs>
       <path d="M 59.578125 18.109375 
L 47.796875 18.109375 
L 47.796875 0.984375 
L 39.796875 0.984375 
L 39.796875 18.109375 
L 3.078125 18.109375 
L 3.078125 26.125 
L 38.375 73.09375 
L 47.796875 73.09375 
L 47.796875 25.53125 
L 59.578125 25.53125 
z
M 40.28125 64.203125 
L 39.984375 64.203125 
Q 35.59375 57.125 31.296875 51.3125 
L 11.859375 25.53125 
L 39.796875 25.53125 
L 39.796875 49.125 
Q 39.796875 54.390625 40.28125 64.203125 
z
" id="IPAexGothic-52"/>
      </defs>
      <g transform="translate(13.498438 201.357784)scale(0.1 -0.1)">
       <use xlink:href="#IPAexGothic-52"/>
       <use x="62.988281" xlink:href="#IPAexGothic-48"/>
      </g>
     </g>
    </g>
    <g id="ytick_4">
     <g id="line2d_9">
      <g>
       <use style="stroke:#000000;stroke-width:0.8;" x="33.095313" xlink:href="#m3066b2f574" y="154.289394"/>
      </g>
     </g>
     <g id="text_10">
      <!-- 60 -->
      <defs>
       <path d="M 16.5 36.375 
Q 23.578125 46.578125 34.90625 46.578125 
Q 45.40625 46.578125 51.8125 39.265625 
Q 57.421875 32.90625 57.421875 23.78125 
Q 57.421875 13.8125 51.125 6.78125 
Q 44.578125 -0.484375 34.03125 -0.484375 
Q 21.484375 -0.484375 14.40625 9.078125 
Q 7.515625 18.40625 7.515625 34.8125 
Q 7.515625 53.515625 15.828125 64.203125 
Q 23.34375 73.828125 35.5 73.828125 
Q 49.859375 73.828125 56.390625 62.890625 
L 49.21875 58.984375 
Q 45.21875 66.65625 35.9375 66.65625 
Q 17.484375 66.65625 16.109375 36.375 
z
M 33.453125 39.796875 
Q 26.3125 39.796875 21.625 34.46875 
Q 17.4375 29.6875 17.4375 24.078125 
Q 17.4375 18.0625 21.140625 13.1875 
Q 26.125 6.6875 33.734375 6.6875 
Q 41.703125 6.6875 45.953125 13.1875 
Q 48.828125 17.625 48.828125 23.484375 
Q 48.828125 30.375 45.015625 34.8125 
Q 40.625 39.796875 33.453125 39.796875 
z
" id="IPAexGothic-54"/>
      </defs>
      <g transform="translate(13.498438 158.034707)scale(0.1 -0.1)">
       <use xlink:href="#IPAexGothic-54"/>
       <use x="62.988281" xlink:href="#IPAexGothic-48"/>
      </g>
     </g>
    </g>
    <g id="ytick_5">
     <g id="line2d_10">
      <g>
       <use style="stroke:#000000;stroke-width:0.8;" x="33.095313" xlink:href="#m3066b2f574" y="110.966317"/>
      </g>
     </g>
     <g id="text_11">
      <!-- 80 -->
      <defs>
       <path d="M 39.703125 37.890625 
Q 57.8125 31.734375 57.8125 18.703125 
Q 57.8125 8.453125 48.4375 3.078125 
Q 41.609375 -0.875 31.5 -0.875 
Q 21.34375 -0.875 14.5 3.078125 
Q 5.421875 8.296875 5.421875 18.40625 
Q 5.421875 31.0625 22.015625 37.203125 
L 22.015625 37.5 
Q 7.515625 42.71875 7.515625 54.828125 
Q 7.515625 64.0625 15.328125 69.625 
Q 21.96875 74.3125 31.546875 74.3125 
Q 42.234375 74.3125 48.921875 68.796875 
Q 55.515625 63.578125 55.515625 55.71875 
Q 55.515625 42.28125 39.703125 38.1875 
z
M 31.59375 41.015625 
Q 46.828125 44.625 46.828125 55.125 
Q 46.828125 61.1875 41.796875 64.84375 
Q 37.703125 67.921875 31.5 67.921875 
Q 25.09375 67.921875 20.796875 64.5 
Q 16.40625 60.890625 16.40625 55.03125 
Q 16.40625 49.21875 21.09375 45.703125 
Q 23.34375 43.890625 26.90625 42.53125 
Q 31 40.875 31.59375 41.015625 
z
M 30.90625 34.515625 
Q 14.40625 30.171875 14.40625 19 
Q 14.40625 12.109375 20.515625 8.6875 
Q 25.09375 6.109375 31.390625 6.109375 
Q 40.234375 6.109375 45.015625 10.890625 
Q 48.53125 14.40625 48.53125 19.53125 
Q 48.53125 24.90625 43.65625 28.90625 
Q 40.765625 31.15625 36.71875 32.8125 
Q 31.984375 34.71875 30.90625 34.515625 
z
" id="IPAexGothic-56"/>
      </defs>
      <g transform="translate(13.498438 114.71163)scale(0.1 -0.1)">
       <use xlink:href="#IPAexGothic-56"/>
       <use x="62.988281" xlink:href="#IPAexGothic-48"/>
      </g>
     </g>
    </g>
    <g id="ytick_6">
     <g id="line2d_11">
      <g>
       <use style="stroke:#000000;stroke-width:0.8;" x="33.095313" xlink:href="#m3066b2f574" y="67.64324"/>
      </g>
     </g>
     <g id="text_12">
      <!-- 100 -->
      <defs>
       <path d="M 38.484375 0.984375 
L 29.6875 0.984375 
L 29.6875 64.109375 
Q 21.4375 61.28125 12.3125 59.328125 
L 10.6875 66.109375 
Q 23.734375 69.390625 32.90625 73.921875 
L 38.484375 73.921875 
z
" id="IPAexGothic-49"/>
      </defs>
      <g transform="translate(7.2 71.388553)scale(0.1 -0.1)">
       <use xlink:href="#IPAexGothic-49"/>
       <use x="62.988281" xlink:href="#IPAexGothic-48"/>
       <use x="125.976562" xlink:href="#IPAexGothic-48"/>
      </g>
     </g>
    </g>
    <g id="ytick_7">
     <g id="line2d_12">
      <g>
       <use style="stroke:#000000;stroke-width:0.8;" x="33.095313" xlink:href="#m3066b2f574" y="24.320163"/>
      </g>
     </g>
     <g id="text_13">
      <!-- 120 -->
      <g transform="translate(7.2 28.065476)scale(0.1 -0.1)">
       <use xlink:href="#IPAexGothic-49"/>
       <use x="62.988281" xlink:href="#IPAexGothic-50"/>
       <use x="125.976562" xlink:href="#IPAexGothic-48"/>
      </g>
     </g>
    </g>
   </g>
   <g id="patch_285">
    <path d="M 33.095313 284.258625 
L 33.095313 18.146625 
" style="fill:none;stroke:#000000;stroke-linecap:square;stroke-linejoin:miter;stroke-width:0.8;"/>
   </g>
   <g id="patch_286">
    <path d="M 390.215312 284.258625 
L 390.215312 18.146625 
" style="fill:none;stroke:#000000;stroke-linecap:square;stroke-linejoin:miter;stroke-width:0.8;"/>
   </g>
   <g id="patch_287">
    <path d="M 33.095312 284.258625 
L 390.215312 284.258625 
" style="fill:none;stroke:#000000;stroke-linecap:square;stroke-linejoin:miter;stroke-width:0.8;"/>
   </g>
   <g id="patch_288">
    <path d="M 33.095312 18.146625 
L 390.215312 18.146625 
" style="fill:none;stroke:#000000;stroke-linecap:square;stroke-linejoin:miter;stroke-width:0.8;"/>
   </g>
   <g id="legend_1">
    <g id="patch_289">
     <path d="M 310.168437 54.985687 
L 383.215312 54.985687 
Q 385.215312 54.985687 385.215312 52.985687 
L 385.215312 25.146625 
Q 385.215312 23.146625 383.215312 23.146625 
L 310.168437 23.146625 
Q 308.168437 23.146625 308.168437 25.146625 
L 308.168437 52.985687 
Q 308.168437 54.985687 310.168437 54.985687 
z
" style="fill:#ffffff;opacity:0.8;stroke:#cccccc;stroke-linejoin:miter;"/>
    </g>
    <g id="patch_290">
     <path d="M 312.168437 34.63725 
L 332.168437 34.63725 
L 332.168437 27.63725 
L 312.168437 27.63725 
z
" style="fill:#1f77b4;"/>
    </g>
    <g id="text_14">
     <!-- Negative -->
     <defs>
      <path d="M 66.3125 0.984375 
L 58.296875 0.984375 
L 26.515625 49.21875 
Q 22.90625 54.6875 17.828125 64.015625 
L 17.4375 64.015625 
L 17.625 59.328125 
Q 18.109375 43.796875 18.109375 38.578125 
L 18.109375 0.984375 
L 9.515625 0.984375 
L 9.515625 72.40625 
L 21.34375 72.40625 
L 48.640625 30.90625 
Q 53.953125 22.609375 58.015625 15.09375 
L 58.40625 15.09375 
Q 57.71875 29.640625 57.71875 38.578125 
L 57.71875 72.40625 
L 66.3125 72.40625 
z
" id="IPAexGothic-78"/>
      <path d="M 20.796875 17.96875 
Q 15.71875 17.53125 15.71875 14.0625 
Q 15.71875 9.578125 27.546875 8.984375 
L 33.296875 8.6875 
Q 51.609375 7.765625 51.609375 -4.59375 
Q 51.609375 -10.9375 45.703125 -14.984375 
Q 39.359375 -19.578125 28.03125 -19.578125 
Q 17.78125 -19.578125 11.53125 -16.0625 
Q 5.515625 -12.640625 5.515625 -6.6875 
Q 5.515625 1.3125 16.796875 3.859375 
L 16.796875 4.203125 
Q 7.90625 6.453125 7.90625 12.15625 
Q 7.90625 17.4375 15.53125 20.265625 
Q 7.125 24.609375 7.125 34.078125 
Q 7.125 41.40625 12.015625 46.296875 
Q 17.625 51.90625 27.15625 51.90625 
Q 33.203125 51.90625 37.84375 49.265625 
Q 41.40625 53.953125 50.921875 54.109375 
L 50.921875 47.078125 
Q 44.34375 46.921875 42.234375 45.90625 
Q 47.40625 40.828125 47.40625 33.890625 
Q 47.40625 27 42.71875 22.265625 
Q 37.5 17.09375 28.328125 17.09375 
Q 24.421875 17.09375 20.796875 17.96875 
z
M 27.09375 45.609375 
Q 22.015625 45.609375 18.703125 42.28125 
Q 15.4375 39.015625 15.4375 34.078125 
Q 15.4375 29.25 18.5 26.3125 
Q 21.828125 23 27.4375 23 
Q 32.71875 23 35.890625 26.21875 
Q 39.109375 29.390625 39.109375 34.421875 
Q 39.109375 39.015625 35.890625 42.1875 
Q 32.515625 45.609375 27.09375 45.609375 
z
M 27.390625 2.484375 
Q 14.109375 2.484375 14.109375 -5.71875 
Q 14.109375 -13.671875 28.125 -13.671875 
Q 37.15625 -13.671875 41.21875 -9.46875 
Q 43.3125 -7.515625 43.3125 -4.890625 
Q 43.3125 2.484375 27.390625 2.484375 
z
" id="IPAexGothic-103"/>
      <path d="M 33.203125 3.765625 
Q 27.640625 -0.09375 21.828125 -0.09375 
Q 10.203125 -0.09375 10.203125 12.984375 
L 10.203125 44.671875 
L 3.421875 44.671875 
L 3.421875 50.78125 
L 10.203125 50.78125 
L 10.203125 61.96875 
L 18.40625 66.0625 
L 18.40625 50.78125 
L 32.234375 50.78125 
L 32.234375 44.671875 
L 18.40625 44.671875 
L 18.40625 14.15625 
Q 18.40625 6.5 23.640625 6.5 
Q 27.15625 6.5 30.328125 9.1875 
z
" id="IPAexGothic-116"/>
      <path d="M 18.40625 61.375 
L 8.59375 61.375 
L 8.59375 71.390625 
L 18.40625 71.390625 
z
M 17.78125 0.984375 
L 9.1875 0.984375 
L 9.1875 50.78125 
L 17.78125 50.78125 
z
" id="IPAexGothic-105"/>
      <path d="M 48.484375 50.78125 
L 27.296875 0.09375 
L 21.484375 0.09375 
L 0.390625 50.78125 
L 9.8125 50.78125 
L 20.90625 21.6875 
L 23.78125 13.1875 
L 24.515625 10.984375 
L 24.8125 10.984375 
Q 25.640625 13.8125 28.46875 21.6875 
L 39.3125 50.78125 
z
" id="IPAexGothic-118"/>
     </defs>
     <g transform="translate(340.168437 34.63725)scale(0.1 -0.1)">
      <use xlink:href="#IPAexGothic-78"/>
      <use x="75.976562" xlink:href="#IPAexGothic-101"/>
      <use x="132.861328" xlink:href="#IPAexGothic-103"/>
      <use x="188.378906" xlink:href="#IPAexGothic-97"/>
      <use x="243.359375" xlink:href="#IPAexGothic-116"/>
      <use x="277.978516" xlink:href="#IPAexGothic-105"/>
      <use x="304.980469" xlink:href="#IPAexGothic-118"/>
      <use x="353.564453" xlink:href="#IPAexGothic-101"/>
     </g>
    </g>
    <g id="patch_291">
     <path d="M 312.168437 49.085687 
L 332.168437 49.085687 
L 332.168437 42.085687 
L 312.168437 42.085687 
z
" style="fill:#ff7f0e;"/>
    </g>
    <g id="text_15">
     <!-- Positive -->
     <defs>
      <path d="M 9.515625 72.40625 
L 30.328125 72.40625 
Q 57.625 72.40625 57.625 51.90625 
Q 57.625 30.21875 29.78125 30.21875 
L 18.3125 30.21875 
L 18.3125 0.984375 
L 9.515625 0.984375 
z
M 18.3125 37.203125 
L 28.125 37.203125 
Q 48.4375 37.203125 48.4375 51.8125 
Q 48.4375 65.328125 29.59375 65.328125 
L 18.3125 65.328125 
z
" id="IPAexGothic-80"/>
      <path d="M 29.984375 52.203125 
Q 40.53125 52.203125 47.75 45.125 
Q 55.171875 37.703125 55.171875 25.59375 
Q 55.171875 13.875 47.90625 6.59375 
Q 40.765625 -0.484375 29.984375 -0.484375 
Q 19.1875 -0.484375 12.203125 6.5 
Q 4.890625 13.765625 4.890625 25.875 
Q 4.890625 37.703125 12.3125 45.125 
Q 19.390625 52.203125 29.984375 52.203125 
z
M 29.984375 45.609375 
Q 23.734375 45.609375 19.390625 41.109375 
Q 13.875 35.59375 13.875 25.78125 
Q 13.875 16.109375 19.28125 10.6875 
Q 23.6875 6.296875 29.984375 6.296875 
Q 36.421875 6.296875 40.765625 10.796875 
Q 46.1875 16.21875 46.1875 26.125 
Q 46.1875 35.453125 40.671875 41.109375 
Q 36.1875 45.609375 29.984375 45.609375 
z
" id="IPAexGothic-111"/>
      <path d="M 34.90625 39.796875 
Q 30.28125 45.796875 23.1875 45.796875 
Q 13.921875 45.796875 13.921875 38.671875 
Q 13.921875 33.640625 23.921875 30.375 
L 27.203125 29.296875 
Q 41.40625 24.65625 41.40625 13.96875 
Q 41.40625 6.78125 35.5 2.6875 
Q 30.8125 -0.484375 23.390625 -0.484375 
Q 11.96875 -0.484375 4 7.859375 
L 9.421875 12.796875 
Q 15.578125 6.203125 23.6875 6.203125 
Q 33.296875 6.203125 33.296875 13.671875 
Q 33.296875 19.34375 22.703125 23.09375 
L 19.28125 24.265625 
Q 5.90625 28.953125 5.90625 37.984375 
Q 5.90625 43.703125 9.8125 47.609375 
Q 14.5 52.296875 22.703125 52.296875 
Q 33.6875 52.296875 40.71875 44.671875 
z
" id="IPAexGothic-115"/>
     </defs>
     <g transform="translate(340.168437 49.085687)scale(0.1 -0.1)">
      <use xlink:href="#IPAexGothic-80"/>
      <use x="62.109375" xlink:href="#IPAexGothic-111"/>
      <use x="122.509766" xlink:href="#IPAexGothic-115"/>
      <use x="168.701172" xlink:href="#IPAexGothic-105"/>
      <use x="195.703125" xlink:href="#IPAexGothic-116"/>
      <use x="230.322266" xlink:href="#IPAexGothic-105"/>
      <use x="257.324219" xlink:href="#IPAexGothic-118"/>
      <use x="305.908203" xlink:href="#IPAexGothic-101"/>
     </g>
    </g>
   </g>
  </g>
  <g id="text_16">
   <!-- generated: 2020-06-19 18:20:05 JST -->
   <defs>
    <path d="M 52.984375 0.984375 
L 45.171875 0.984375 
L 45.171875 9.671875 
Q 38.140625 -0.484375 27.390625 -0.484375 
Q 18.453125 -0.484375 12.3125 5.8125 
Q 4.890625 13.1875 4.890625 25.984375 
Q 4.890625 38.53125 12.0625 45.90625 
Q 18.265625 52.203125 27.390625 52.203125 
Q 37.25 52.203125 44.484375 43.890625 
L 44.484375 74.90625 
L 52.984375 74.90625 
z
M 44.484375 20.359375 
L 44.484375 32.765625 
Q 44.484375 37.703125 38.375 42.28125 
Q 34.078125 45.40625 28.953125 45.40625 
Q 23.1875 45.40625 19.1875 41.40625 
Q 13.875 36.078125 13.875 26.21875 
Q 13.875 17.328125 18.265625 11.71875 
Q 22.515625 6.390625 28.859375 6.390625 
Q 36.28125 6.390625 41.5 13.671875 
Q 44.484375 17.71875 44.484375 20.359375 
z
" id="IPAexGothic-100"/>
    <path d="M 21.390625 39.984375 
L 10.5 39.984375 
L 10.5 50.78125 
L 21.390625 50.78125 
z
M 21.390625 0.984375 
L 10.5 0.984375 
L 10.5 11.765625 
L 21.390625 11.765625 
z
" id="IPAexGothic-58"/>
    <path id="IPAexGothic-32"/>
    <path d="M 30.765625 26.609375 
L 4.984375 26.609375 
L 4.984375 34.421875 
L 30.765625 34.421875 
z
" id="IPAexGothic-45"/>
    <path d="M 46.625 36.8125 
Q 39.75 26.8125 28.328125 26.8125 
Q 19.578125 26.8125 13.234375 32.125 
Q 5.71875 38.421875 5.71875 49.421875 
Q 5.71875 59.578125 12.015625 66.65625 
Q 18.453125 73.828125 29.203125 73.828125 
Q 43.75 73.828125 50.640625 61.71875 
Q 55.609375 52.78125 55.609375 38.625 
Q 55.609375 19.53125 47.515625 9.1875 
Q 39.890625 -0.484375 27.640625 -0.484375 
Q 13.421875 -0.484375 6.109375 10.984375 
L 13.328125 14.890625 
Q 18.0625 6.6875 27.390625 6.6875 
Q 45.65625 6.6875 47.015625 36.8125 
z
M 29.5 66.84375 
Q 22.65625 66.84375 18.3125 61.71875 
Q 14.40625 57.078125 14.40625 50 
Q 14.40625 42.828125 18.109375 38.71875 
Q 22.40625 33.796875 29.78125 33.796875 
Q 37.984375 33.796875 42.625 40.1875 
Q 45.703125 44.484375 45.703125 49.515625 
Q 45.703125 55.515625 42.09375 60.359375 
Q 37.109375 66.84375 29.5 66.84375 
z
" id="IPAexGothic-57"/>
    <path d="M 18.40625 40.671875 
Q 25.53125 46.296875 33.9375 46.296875 
Q 44 46.296875 50.640625 39.5 
Q 56.84375 33.015625 56.84375 23.390625 
Q 56.84375 14.65625 51.515625 8.015625 
Q 44.828125 -0.484375 31.734375 -0.484375 
Q 14.984375 -0.484375 7.328125 12.25 
L 14.65625 16.0625 
Q 20.453125 6.78125 31.453125 6.78125 
Q 38.53125 6.78125 43.265625 11.1875 
Q 48.140625 15.828125 48.140625 23.484375 
Q 48.140625 30.71875 43.84375 35.015625 
Q 39.359375 39.5 32.125 39.5 
Q 21.96875 39.5 16.75 31.6875 
L 9.234375 32.671875 
L 13.8125 72.40625 
L 53.21875 72.40625 
L 53.21875 64.890625 
L 20.953125 64.890625 
L 17.71875 40.671875 
z
" id="IPAexGothic-53"/>
    <path d="M 45.609375 56.890625 
Q 40.046875 66.546875 28.953125 66.546875 
Q 22.703125 66.546875 18.953125 62.640625 
Q 16.0625 59.421875 16.0625 55.21875 
Q 16.0625 50.59375 19.78125 47.609375 
Q 22.5625 45.515625 31 42 
L 34.375 40.578125 
Q 45.703125 36.03125 49.859375 30.515625 
Q 53.46875 25.6875 53.46875 19.671875 
Q 53.46875 10.0625 46.390625 4.5 
Q 39.984375 -0.484375 30.171875 -0.484375 
Q 13.765625 -0.484375 4.890625 11.96875 
L 11.765625 17.1875 
Q 18.796875 7.171875 30.28125 7.171875 
Q 35.75 7.171875 39.59375 9.765625 
Q 44.390625 13.234375 44.390625 19 
Q 44.390625 23.484375 40.875 27 
Q 37.109375 30.609375 27 34.46875 
L 24.078125 35.59375 
Q 7.078125 42.09375 7.078125 54.390625 
Q 7.078125 62.59375 12.59375 67.921875 
Q 18.796875 73.828125 29.109375 73.828125 
Q 44.390625 73.828125 52.484375 61.8125 
z
" id="IPAexGothic-83"/>
    <path d="M 60.40625 64.703125 
L 33.984375 64.703125 
L 33.984375 0.984375 
L 25.09375 0.984375 
L 25.09375 64.703125 
L -0.484375 64.703125 
L -0.484375 72.40625 
L 60.40625 72.40625 
z
" id="IPAexGothic-84"/>
   </defs>
   <g transform="translate(213.980938 14.690625)scale(0.1 -0.1)">
    <use xlink:href="#IPAexGothic-103"/>
    <use x="55.517578" xlink:href="#IPAexGothic-101"/>
    <use x="112.402344" xlink:href="#IPAexGothic-110"/>
    <use x="172.802734" xlink:href="#IPAexGothic-101"/>
    <use x="229.6875" xlink:href="#IPAexGothic-114"/>
    <use x="266.699219" xlink:href="#IPAexGothic-97"/>
    <use x="321.679688" xlink:href="#IPAexGothic-116"/>
    <use x="356.298828" xlink:href="#IPAexGothic-101"/>
    <use x="413.183594" xlink:href="#IPAexGothic-100"/>
    <use x="475.585938" xlink:href="#IPAexGothic-58"/>
    <use x="507.568359" xlink:href="#IPAexGothic-32"/>
    <use x="534.570312" xlink:href="#IPAexGothic-50"/>
    <use x="597.558594" xlink:href="#IPAexGothic-48"/>
    <use x="660.546875" xlink:href="#IPAexGothic-50"/>
    <use x="723.535156" xlink:href="#IPAexGothic-48"/>
    <use x="786.523438" xlink:href="#IPAexGothic-45"/>
    <use x="822.314453" xlink:href="#IPAexGothic-48"/>
    <use x="885.302734" xlink:href="#IPAexGothic-54"/>
    <use x="948.291016" xlink:href="#IPAexGothic-45"/>
    <use x="984.082031" xlink:href="#IPAexGothic-49"/>
    <use x="1047.070312" xlink:href="#IPAexGothic-57"/>
    <use x="1110.058594" xlink:href="#IPAexGothic-32"/>
    <use x="1137.060547" xlink:href="#IPAexGothic-49"/>
    <use x="1200.048828" xlink:href="#IPAexGothic-56"/>
    <use x="1263.037109" xlink:href="#IPAexGothic-58"/>
    <use x="1295.019531" xlink:href="#IPAexGothic-50"/>
    <use x="1358.007812" xlink:href="#IPAexGothic-48"/>
    <use x="1420.996094" xlink:href="#IPAexGothic-58"/>
    <use x="1452.978516" xlink:href="#IPAexGothic-48"/>
    <use x="1515.966797" xlink:href="#IPAexGothic-53"/>
    <use x="1578.955078" xlink:href="#IPAexGothic-32"/>
    <use x="1605.957031" xlink:href="#IPAexGothic-74"/>
    <use x="1643.945312" xlink:href="#IPAexGothic-83"/>
    <use x="1702.441406" xlink:href="#IPAexGothic-84"/>
   </g>
  </g>
 </g>
 <defs>
  <clipPath id="pcdb7cfd336">
   <rect height="266.112" width="357.12" x="33.095313" y="18.146625"/>
  </clipPath>
 </defs>
</svg>
