<?xml version="1.0" encoding="utf-8" standalone="no"?>
<!DOCTYPE svg PUBLIC "-//W3C//DTD SVG 1.1//EN"
  "http://www.w3.org/Graphics/SVG/1.1/DTD/svg11.dtd">
<svg xmlns:xlink="http://www.w3.org/1999/xlink" width="401.999687pt" height="297.271375pt" viewBox="0 0 401.999687 297.271375" xmlns="http://www.w3.org/2000/svg" version="1.1">
 <metadata>
  <rdf:RDF xmlns:dc="http://purl.org/dc/elements/1.1/" xmlns:cc="http://creativecommons.org/ns#" xmlns:rdf="http://www.w3.org/1999/02/22-rdf-syntax-ns#">
   <cc:Work>
    <dc:type rdf:resource="http://purl.org/dc/dcmitype/StillImage"/>
    <dc:date>2024-10-28T11:42:28.921313</dc:date>
    <dc:format>image/svg+xml</dc:format>
    <dc:creator>
     <cc:Agent>
      <dc:title>Matplotlib v3.9.2, https://matplotlib.org/</dc:title>
     </cc:Agent>
    </dc:creator>
   </cc:Work>
  </rdf:RDF>
 </metadata>
 <defs>
  <style type="text/css">*{stroke-linejoin: round; stroke-linecap: butt}</style>
 </defs>
 <g id="figure_1">
  <g id="patch_1">
   <path d="M 0 297.271375 
L 401.999687 297.271375 
L 401.999687 0 
L 0 0 
z
" style="fill: #ffffff"/>
  </g>
  <g id="axes_1">
   <g id="patch_2">
    <path d="M 37.679688 273.312 
L 394.799688 273.312 
L 394.799688 7.2 
L 37.679688 7.2 
z
" style="fill: #ffffff"/>
   </g>
   <g id="patch_3">
    <path d="M 37.679688 47.757176 
L 56.136564 47.757176 
L 56.136564 19.296 
L 37.679688 19.296 
z
" clip-path="url(#p7434944c1d)" style="fill: #1f77b4"/>
   </g>
   <g id="patch_4">
    <path d="M 37.679688 83.333647 
L 125.953961 83.333647 
L 125.953961 54.872471 
L 37.679688 54.872471 
z
" clip-path="url(#p7434944c1d)" style="fill: #1f77b4"/>
   </g>
   <g id="patch_5">
    <path d="M 37.679688 118.910118 
L 158.026072 118.910118 
L 158.026072 90.448941 
L 37.679688 90.448941 
z
" clip-path="url(#p7434944c1d)" style="fill: #1f77b4"/>
   </g>
   <g id="patch_6">
    <path d="M 37.679688 154.486588 
L 216.047722 154.486588 
L 216.047722 126.025412 
L 37.679688 126.025412 
z
" clip-path="url(#p7434944c1d)" style="fill: #1f77b4"/>
   </g>
   <g id="patch_7">
    <path d="M 37.679688 190.063059 
L 252.340704 190.063059 
L 252.340704 161.601882 
L 37.679688 161.601882 
z
" clip-path="url(#p7434944c1d)" style="fill: #1f77b4"/>
   </g>
   <g id="patch_8">
    <path d="M 37.679688 225.639529 
L 239.129591 225.639529 
L 239.129591 197.178353 
L 37.679688 197.178353 
z
" clip-path="url(#p7434944c1d)" style="fill: #1f77b4"/>
   </g>
   <g id="patch_9">
    <path d="M 37.679688 261.216 
L 377.793973 261.216 
L 377.793973 232.754824 
L 37.679688 232.754824 
z
" clip-path="url(#p7434944c1d)" style="fill: #1f77b4"/>
   </g>
   <g id="matplotlib.axis_1">
    <g id="xtick_1">
     <g id="line2d_1">
      <defs>
       <path id="m74f0c810a0" d="M 0 0 
L 0 3.5 
" style="stroke: #000000; stroke-width: 0.8"/>
      </defs>
      <g>
       <use xlink:href="#m74f0c810a0" x="37.679688" y="273.312" style="stroke: #000000; stroke-width: 0.8"/>
      </g>
     </g>
     <g id="text_1">
      <!-- 0 -->
      <g transform="translate(34.314844 288.021375) scale(0.1 -0.1)">
       <defs>
        <path id="HiraginoSans-W4-30" d="M 2144 -90 
C 2758 -90 3232 141 3565 602 
C 3846 998 4019 1696 4019 2464 
C 4019 3002 3936 3501 3770 3949 
C 3693 4160 3558 4371 3379 4550 
C 3078 4858 2650 5024 2157 5024 
C 1498 5024 986 4742 666 4205 
C 435 3834 288 3142 288 2458 
C 288 1939 371 1434 538 986 
C 614 768 749 563 928 384 
C 1242 70 1651 -90 2144 -90 
z
M 2144 4499 
C 2592 4499 2918 4307 3123 3923 
C 3283 3629 3398 3014 3398 2470 
C 3398 2022 3341 1619 3213 1235 
C 3155 1043 3046 870 2912 730 
C 2726 538 2458 435 2150 435 
C 1734 435 1414 614 1197 973 
C 1024 1261 902 1875 902 2451 
C 902 2906 966 3328 1088 3699 
C 1139 3866 1235 4026 1370 4173 
C 1568 4397 1818 4499 2144 4499 
z
" transform="scale(0.015625)"/>
       </defs>
       <use xlink:href="#HiraginoSans-W4-30"/>
      </g>
     </g>
    </g>
    <g id="xtick_2">
     <g id="line2d_2">
      <g>
       <use xlink:href="#m74f0c810a0" x="85.223787" y="273.312" style="stroke: #000000; stroke-width: 0.8"/>
      </g>
     </g>
     <g id="text_2">
      <!-- 2500 -->
      <g transform="translate(71.764412 288.021375) scale(0.1 -0.1)">
       <defs>
        <path id="HiraginoSans-W4-32" d="M 3078 0 
C 3424 0 3642 -6 3917 -32 
L 3917 589 
C 3693 557 3430 544 3091 544 
L 1114 544 
C 1280 1114 1606 1478 2451 2042 
C 3181 2528 3341 2656 3546 2912 
C 3738 3142 3846 3443 3846 3744 
C 3846 4525 3200 5030 2202 5030 
C 1613 5030 1158 4858 858 4518 
C 640 4269 531 4026 442 3565 
L 1088 3469 
C 1139 3782 1190 3936 1306 4102 
C 1491 4371 1792 4506 2208 4506 
C 2816 4506 3206 4211 3206 3744 
C 3206 3360 2995 3085 2387 2675 
C 1754 2246 1600 2138 1389 1952 
C 979 1594 710 1229 544 806 
C 448 563 429 461 365 -26 
C 576 -6 678 0 1107 0 
L 3078 0 
z
" transform="scale(0.015625)"/>
        <path id="HiraginoSans-W4-35" d="M 1331 4416 
L 2835 4416 
C 3155 4416 3366 4403 3622 4365 
L 3622 4986 
C 3360 4947 3206 4934 2829 4934 
L 1446 4934 
C 1082 4934 954 4941 762 4966 
C 774 4768 774 4762 774 4742 
C 774 4563 774 4518 749 4307 
L 608 2822 
C 589 2566 570 2445 518 2157 
L 1088 2106 
C 1146 2240 1178 2291 1261 2374 
C 1485 2605 1811 2739 2131 2739 
C 2842 2739 3264 2317 3264 1613 
C 3264 902 2803 435 2106 435 
C 1747 435 1440 563 1235 794 
C 1146 902 1101 986 1037 1171 
L 410 1005 
C 557 685 646 544 813 378 
C 1133 64 1562 -96 2099 -96 
C 3194 -96 3885 576 3885 1638 
C 3885 2605 3245 3238 2272 3238 
C 1830 3238 1472 3098 1158 2803 
C 1197 2982 1197 2982 1203 3091 
L 1331 4416 
z
" transform="scale(0.015625)"/>
       </defs>
       <use xlink:href="#HiraginoSans-W4-32"/>
       <use xlink:href="#HiraginoSans-W4-35" x="67.299988"/>
       <use xlink:href="#HiraginoSans-W4-30" x="134.599976"/>
       <use xlink:href="#HiraginoSans-W4-30" x="201.899963"/>
      </g>
     </g>
    </g>
    <g id="xtick_3">
     <g id="line2d_3">
      <g>
       <use xlink:href="#m74f0c810a0" x="132.767887" y="273.312" style="stroke: #000000; stroke-width: 0.8"/>
      </g>
     </g>
     <g id="text_3">
      <!-- 5000 -->
      <g transform="translate(119.308512 288.021375) scale(0.1 -0.1)">
       <use xlink:href="#HiraginoSans-W4-35"/>
       <use xlink:href="#HiraginoSans-W4-30" x="67.299988"/>
       <use xlink:href="#HiraginoSans-W4-30" x="134.599976"/>
       <use xlink:href="#HiraginoSans-W4-30" x="201.899963"/>
      </g>
     </g>
    </g>
    <g id="xtick_4">
     <g id="line2d_4">
      <g>
       <use xlink:href="#m74f0c810a0" x="180.311986" y="273.312" style="stroke: #000000; stroke-width: 0.8"/>
      </g>
     </g>
     <g id="text_4">
      <!-- 7500 -->
      <g transform="translate(166.852611 288.021375) scale(0.1 -0.1)">
       <defs>
        <path id="HiraginoSans-W4-37" d="M 3898 4966 
C 3661 4941 3526 4934 3117 4934 
L 1165 4934 
C 838 4934 646 4947 390 4979 
L 390 4346 
C 634 4378 819 4390 1146 4390 
L 3200 4390 
C 2643 3635 2368 3187 2054 2541 
C 1664 1741 1491 1171 1280 0 
L 2003 0 
C 2099 685 2163 992 2317 1491 
C 2554 2291 2829 2861 3373 3718 
C 3642 4141 3763 4301 3898 4422 
L 3898 4966 
z
" transform="scale(0.015625)"/>
       </defs>
       <use xlink:href="#HiraginoSans-W4-37"/>
       <use xlink:href="#HiraginoSans-W4-35" x="67.299988"/>
       <use xlink:href="#HiraginoSans-W4-30" x="134.599976"/>
       <use xlink:href="#HiraginoSans-W4-30" x="201.899963"/>
      </g>
     </g>
    </g>
    <g id="xtick_5">
     <g id="line2d_5">
      <g>
       <use xlink:href="#m74f0c810a0" x="227.856086" y="273.312" style="stroke: #000000; stroke-width: 0.8"/>
      </g>
     </g>
     <g id="text_5">
      <!-- 10000 -->
      <g transform="translate(211.031867 288.021375) scale(0.1 -0.1)">
       <defs>
        <path id="HiraginoSans-W4-31" d="M 1018 4371 
C 1222 4397 1389 4410 1606 4410 
L 1939 4410 
L 1939 755 
C 1939 454 1926 237 1888 0 
L 2598 0 
C 2560 250 2547 448 2547 755 
L 2547 3904 
C 2547 4256 2566 4582 2605 4966 
C 2387 4941 2278 4934 2035 4934 
L 1581 4934 
C 1325 4934 1197 4941 1018 4966 
L 1018 4371 
z
" transform="scale(0.015625)"/>
       </defs>
       <use xlink:href="#HiraginoSans-W4-31"/>
       <use xlink:href="#HiraginoSans-W4-30" x="67.299988"/>
       <use xlink:href="#HiraginoSans-W4-30" x="134.599976"/>
       <use xlink:href="#HiraginoSans-W4-30" x="201.899963"/>
       <use xlink:href="#HiraginoSans-W4-30" x="269.199951"/>
      </g>
     </g>
    </g>
    <g id="xtick_6">
     <g id="line2d_6">
      <g>
       <use xlink:href="#m74f0c810a0" x="275.400186" y="273.312" style="stroke: #000000; stroke-width: 0.8"/>
      </g>
     </g>
     <g id="text_6">
      <!-- 12500 -->
      <g transform="translate(258.575967 288.021375) scale(0.1 -0.1)">
       <use xlink:href="#HiraginoSans-W4-31"/>
       <use xlink:href="#HiraginoSans-W4-32" x="67.299988"/>
       <use xlink:href="#HiraginoSans-W4-35" x="134.599976"/>
       <use xlink:href="#HiraginoSans-W4-30" x="201.899963"/>
       <use xlink:href="#HiraginoSans-W4-30" x="269.199951"/>
      </g>
     </g>
    </g>
    <g id="xtick_7">
     <g id="line2d_7">
      <g>
       <use xlink:href="#m74f0c810a0" x="322.944285" y="273.312" style="stroke: #000000; stroke-width: 0.8"/>
      </g>
     </g>
     <g id="text_7">
      <!-- 15000 -->
      <g transform="translate(306.120067 288.021375) scale(0.1 -0.1)">
       <use xlink:href="#HiraginoSans-W4-31"/>
       <use xlink:href="#HiraginoSans-W4-35" x="67.299988"/>
       <use xlink:href="#HiraginoSans-W4-30" x="134.599976"/>
       <use xlink:href="#HiraginoSans-W4-30" x="201.899963"/>
       <use xlink:href="#HiraginoSans-W4-30" x="269.199951"/>
      </g>
     </g>
    </g>
    <g id="xtick_8">
     <g id="line2d_8">
      <g>
       <use xlink:href="#m74f0c810a0" x="370.488385" y="273.312" style="stroke: #000000; stroke-width: 0.8"/>
      </g>
     </g>
     <g id="text_8">
      <!-- 17500 -->
      <g transform="translate(353.664166 288.021375) scale(0.1 -0.1)">
       <use xlink:href="#HiraginoSans-W4-31"/>
       <use xlink:href="#HiraginoSans-W4-37" x="67.299988"/>
       <use xlink:href="#HiraginoSans-W4-35" x="134.599976"/>
       <use xlink:href="#HiraginoSans-W4-30" x="201.899963"/>
       <use xlink:href="#HiraginoSans-W4-30" x="269.199951"/>
      </g>
     </g>
    </g>
   </g>
   <g id="matplotlib.axis_2">
    <g id="ytick_1">
     <g id="line2d_9">
      <defs>
       <path id="md808e880e3" d="M 0 0 
L -3.5 0 
" style="stroke: #000000; stroke-width: 0.8"/>
      </defs>
      <g>
       <use xlink:href="#md808e880e3" x="37.679688" y="33.526588" style="stroke: #000000; stroke-width: 0.8"/>
      </g>
     </g>
     <g id="text_9">
      <!-- 10代 -->
      <g transform="translate(7.220312 37.381276) scale(0.1 -0.1)">
       <defs>
        <path id="HiraginoSans-W4-4ee3" d="M 5427 3238 
C 5645 3258 5824 3270 5946 3270 
C 5958 3270 5997 3270 6074 3264 
L 6042 3802 
C 5875 3757 5747 3738 5382 3699 
L 3910 3558 
C 3859 4058 3840 4416 3840 4781 
C 3840 4979 3846 5088 3866 5216 
L 3296 5210 
C 3315 5069 3328 4883 3334 4570 
C 3341 4275 3366 3878 3405 3514 
L 2650 3437 
C 2451 3418 2272 3411 2138 3411 
C 2099 3411 2061 3411 1990 3411 
L 2010 2880 
C 2208 2925 2374 2944 2650 2970 
L 3462 3046 
C 3571 2310 3750 1664 3994 1146 
C 4422 224 5056 -442 5504 -442 
C 5882 -442 6074 -90 6221 883 
C 6074 954 5958 1037 5773 1197 
C 5741 826 5690 525 5638 358 
C 5587 198 5542 141 5466 141 
C 5318 141 5005 461 4730 877 
C 4346 1459 4128 2112 3974 3098 
L 5427 3238 
z
M 1184 282 
C 1184 -77 1171 -282 1139 -499 
L 1715 -499 
C 1690 -269 1677 -38 1677 269 
L 1677 3706 
C 1894 4102 2054 4448 2240 4928 
C 2278 5024 2278 5024 2330 5152 
L 1798 5338 
C 1766 5107 1670 4800 1530 4480 
C 1203 3712 768 3098 134 2509 
C 275 2355 288 2330 422 2042 
C 826 2438 954 2598 1210 3002 
C 1190 2758 1184 2522 1184 2227 
L 1184 282 
z
M 4269 4915 
C 4640 4608 4998 4237 5248 3910 
L 5619 4256 
C 5184 4717 4992 4896 4602 5210 
L 4269 4915 
z
" transform="scale(0.015625)"/>
       </defs>
       <use xlink:href="#HiraginoSans-W4-31"/>
       <use xlink:href="#HiraginoSans-W4-30" x="67.299988"/>
       <use xlink:href="#HiraginoSans-W4-4ee3" x="134.599976"/>
      </g>
     </g>
    </g>
    <g id="ytick_2">
     <g id="line2d_10">
      <g>
       <use xlink:href="#md808e880e3" x="37.679688" y="69.103059" style="stroke: #000000; stroke-width: 0.8"/>
      </g>
     </g>
     <g id="text_10">
      <!-- 20代 -->
      <g transform="translate(7.220312 72.957746) scale(0.1 -0.1)">
       <use xlink:href="#HiraginoSans-W4-32"/>
       <use xlink:href="#HiraginoSans-W4-30" x="67.299988"/>
       <use xlink:href="#HiraginoSans-W4-4ee3" x="134.599976"/>
      </g>
     </g>
    </g>
    <g id="ytick_3">
     <g id="line2d_11">
      <g>
       <use xlink:href="#md808e880e3" x="37.679688" y="104.679529" style="stroke: #000000; stroke-width: 0.8"/>
      </g>
     </g>
     <g id="text_11">
      <!-- 30代 -->
      <g transform="translate(7.220312 108.534217) scale(0.1 -0.1)">
       <defs>
        <path id="HiraginoSans-W4-33" d="M 282 1101 
C 397 768 474 621 621 448 
C 934 90 1434 -96 2112 -96 
C 2720 -96 3213 70 3533 384 
C 3770 614 3904 954 3904 1306 
C 3904 1677 3802 1958 3597 2182 
C 3379 2419 3130 2528 2688 2586 
C 2995 2650 3130 2701 3290 2816 
C 3578 3021 3738 3366 3738 3757 
C 3738 4538 3117 5043 2157 5043 
C 1594 5043 1146 4883 845 4576 
C 666 4390 582 4237 467 3891 
L 1107 3757 
C 1171 3981 1216 4083 1306 4192 
C 1478 4416 1741 4525 2125 4525 
C 2746 4525 3110 4224 3110 3725 
C 3110 3482 3021 3264 2867 3110 
C 2669 2918 2374 2829 1965 2829 
C 1779 2829 1613 2842 1459 2861 
L 1459 2272 
C 1651 2298 1811 2310 2003 2310 
C 2829 2310 3264 1990 3264 1376 
C 3264 794 2816 429 2106 429 
C 1779 429 1510 506 1293 666 
C 1107 800 1024 928 928 1248 
L 282 1101 
z
" transform="scale(0.015625)"/>
       </defs>
       <use xlink:href="#HiraginoSans-W4-33"/>
       <use xlink:href="#HiraginoSans-W4-30" x="67.299988"/>
       <use xlink:href="#HiraginoSans-W4-4ee3" x="134.599976"/>
      </g>
     </g>
    </g>
    <g id="ytick_4">
     <g id="line2d_12">
      <g>
       <use xlink:href="#md808e880e3" x="37.679688" y="140.256" style="stroke: #000000; stroke-width: 0.8"/>
      </g>
     </g>
     <g id="text_12">
      <!-- 40代 -->
      <g transform="translate(7.2 144.110687) scale(0.1 -0.1)">
       <defs>
        <path id="HiraginoSans-W4-34" d="M 179 1210 
C 403 1229 589 1235 954 1235 
L 2688 1235 
L 2688 710 
C 2688 410 2675 218 2630 0 
L 3309 0 
C 3270 230 3258 390 3258 704 
L 3258 1235 
L 3494 1235 
C 3763 1235 3910 1222 4154 1190 
L 4154 1798 
C 3917 1766 3750 1754 3494 1754 
L 3258 1754 
L 3258 3853 
C 3258 4358 3264 4544 3296 4934 
L 2701 4934 
C 2560 4704 2445 4550 2214 4269 
L 621 2298 
C 467 2099 326 1939 179 1773 
L 179 1210 
z
M 2688 1747 
L 858 1747 
L 2259 3514 
C 2464 3763 2592 3936 2720 4128 
C 2694 3814 2688 3622 2688 3283 
L 2688 1747 
z
" transform="scale(0.015625)"/>
       </defs>
       <use xlink:href="#HiraginoSans-W4-34"/>
       <use xlink:href="#HiraginoSans-W4-30" x="67.499985"/>
       <use xlink:href="#HiraginoSans-W4-4ee3" x="134.799973"/>
      </g>
     </g>
    </g>
    <g id="ytick_5">
     <g id="line2d_13">
      <g>
       <use xlink:href="#md808e880e3" x="37.679688" y="175.832471" style="stroke: #000000; stroke-width: 0.8"/>
      </g>
     </g>
     <g id="text_13">
      <!-- 50代 -->
      <g transform="translate(7.220312 179.687158) scale(0.1 -0.1)">
       <use xlink:href="#HiraginoSans-W4-35"/>
       <use xlink:href="#HiraginoSans-W4-30" x="67.299988"/>
       <use xlink:href="#HiraginoSans-W4-4ee3" x="134.599976"/>
      </g>
     </g>
    </g>
    <g id="ytick_6">
     <g id="line2d_14">
      <g>
       <use xlink:href="#md808e880e3" x="37.679688" y="211.408941" style="stroke: #000000; stroke-width: 0.8"/>
      </g>
     </g>
     <g id="text_14">
      <!-- 60代 -->
      <g transform="translate(7.220312 215.263629) scale(0.1 -0.1)">
       <defs>
        <path id="HiraginoSans-W4-36" d="M 3846 3994 
C 3706 4301 3616 4442 3462 4602 
C 3187 4877 2784 5024 2304 5024 
C 1683 5024 1222 4794 864 4307 
C 557 3891 371 3162 371 2355 
C 371 1446 614 704 1043 320 
C 1331 58 1773 -90 2253 -90 
C 3277 -90 3968 589 3968 1587 
C 3968 2586 3334 3213 2323 3213 
C 1894 3213 1568 3104 1274 2854 
C 1133 2739 1062 2656 941 2458 
C 979 3085 1043 3392 1210 3763 
C 1434 4262 1798 4518 2285 4518 
C 2765 4518 3040 4314 3238 3821 
L 3846 3994 
z
M 2266 2714 
C 2950 2714 3366 2285 3366 1574 
C 3366 1325 3309 1088 3206 922 
C 3008 614 2643 422 2234 422 
C 1568 422 1069 915 1069 1574 
C 1069 2234 1574 2714 2266 2714 
z
" transform="scale(0.015625)"/>
       </defs>
       <use xlink:href="#HiraginoSans-W4-36"/>
       <use xlink:href="#HiraginoSans-W4-30" x="67.299988"/>
       <use xlink:href="#HiraginoSans-W4-4ee3" x="134.599976"/>
      </g>
     </g>
    </g>
    <g id="ytick_7">
     <g id="line2d_15">
      <g>
       <use xlink:href="#md808e880e3" x="37.679688" y="246.985412" style="stroke: #000000; stroke-width: 0.8"/>
      </g>
     </g>
     <g id="text_15">
      <!-- 70〜 -->
      <g transform="translate(7.220312 250.840099) scale(0.1 -0.1)">
       <defs>
        <path id="HiraginoSans-W4-301c" d="M 678 2099 
C 1107 2547 1414 2707 1850 2707 
C 2234 2707 2470 2611 2989 2240 
C 3424 1926 3616 1818 3872 1734 
C 4070 1664 4275 1632 4467 1632 
C 4774 1632 5094 1715 5338 1856 
C 5600 2010 5779 2170 6086 2541 
L 5709 2893 
C 5453 2560 5274 2406 4998 2278 
C 4826 2202 4672 2170 4499 2170 
C 4147 2170 3808 2310 3290 2675 
C 2899 2950 2867 2970 2694 3053 
C 2438 3181 2176 3238 1888 3238 
C 1549 3238 1267 3162 947 2970 
C 698 2822 563 2714 307 2438 
L 678 2099 
z
" transform="scale(0.015625)"/>
       </defs>
       <use xlink:href="#HiraginoSans-W4-37"/>
       <use xlink:href="#HiraginoSans-W4-30" x="67.299988"/>
       <use xlink:href="#HiraginoSans-W4-301c" x="134.599976"/>
      </g>
     </g>
    </g>
   </g>
   <g id="patch_10">
    <path d="M 37.679688 273.312 
L 37.679688 7.2 
" style="fill: none; stroke: #000000; stroke-width: 0.8; stroke-linejoin: miter; stroke-linecap: square"/>
   </g>
   <g id="patch_11">
    <path d="M 394.799688 273.312 
L 394.799688 7.2 
" style="fill: none; stroke: #000000; stroke-width: 0.8; stroke-linejoin: miter; stroke-linecap: square"/>
   </g>
   <g id="patch_12">
    <path d="M 37.679688 273.312 
L 394.799688 273.312 
" style="fill: none; stroke: #000000; stroke-width: 0.8; stroke-linejoin: miter; stroke-linecap: square"/>
   </g>
   <g id="patch_13">
    <path d="M 37.679688 7.2 
L 394.799688 7.2 
" style="fill: none; stroke: #000000; stroke-width: 0.8; stroke-linejoin: miter; stroke-linecap: square"/>
   </g>
  </g>
 </g>
 <defs>
  <clipPath id="p7434944c1d">
   <rect x="37.679688" y="7.2" width="357.12" height="266.112"/>
  </clipPath>
 </defs>
</svg>
