<?xml version="1.0" encoding="utf-8" standalone="no"?>
<!DOCTYPE svg PUBLIC "-//W3C//DTD SVG 1.1//EN"
  "http://www.w3.org/Graphics/SVG/1.1/DTD/svg11.dtd">
<svg xmlns:xlink="http://www.w3.org/1999/xlink" width="419.218437pt" height="326.282pt" viewBox="0 0 419.218437 326.282" xmlns="http://www.w3.org/2000/svg" version="1.1">
 <metadata>
  <rdf:RDF xmlns:dc="http://purl.org/dc/elements/1.1/" xmlns:cc="http://creativecommons.org/ns#" xmlns:rdf="http://www.w3.org/1999/02/22-rdf-syntax-ns#">
   <cc:Work>
    <dc:type rdf:resource="http://purl.org/dc/dcmitype/StillImage"/>
    <dc:date>2024-07-06T09:41:41.699881</dc:date>
    <dc:format>image/svg+xml</dc:format>
    <dc:creator>
     <cc:Agent>
      <dc:title>Matplotlib v3.9.1, https://matplotlib.org/</dc:title>
     </cc:Agent>
    </dc:creator>
   </cc:Work>
  </rdf:RDF>
 </metadata>
 <defs>
  <style type="text/css">*{stroke-linejoin: round; stroke-linecap: butt}</style>
 </defs>
 <g id="figure_1">
  <g id="patch_1">
   <path d="M 0 326.282 
L 419.218437 326.282 
L 419.218437 0 
L 0 0 
z
" style="fill: #ffffff"/>
  </g>
  <g id="axes_1">
   <g id="patch_2">
    <path d="M 54.898438 288.56325 
L 412.018438 288.56325 
L 412.018438 22.45125 
L 54.898438 22.45125 
z
" style="fill: #ffffff"/>
   </g>
   <g id="patch_3">
    <path d="M 71.131165 288.56325 
L 74.599971 288.56325 
L 74.599971 280.017753 
L 71.131165 280.017753 
z
" clip-path="url(#p8d4421bbf4)" style="fill: #aec7e8"/>
   </g>
   <g id="patch_4">
    <path d="M 74.343022 288.56325 
L 77.811828 288.56325 
L 77.811828 288.524407 
L 74.343022 288.524407 
z
" clip-path="url(#p8d4421bbf4)" style="fill: #aec7e8"/>
   </g>
   <g id="patch_5">
    <path d="M 77.55488 288.56325 
L 81.023686 288.56325 
L 81.023686 278.619399 
L 77.55488 278.619399 
z
" clip-path="url(#p8d4421bbf4)" style="fill: #aec7e8"/>
   </g>
   <g id="patch_6">
    <path d="M 80.766737 288.56325 
L 84.235543 288.56325 
L 84.235543 284.756619 
L 80.766737 284.756619 
z
" clip-path="url(#p8d4421bbf4)" style="fill: #aec7e8"/>
   </g>
   <g id="patch_7">
    <path d="M 83.978594 288.56325 
L 87.4474 288.56325 
L 87.4474 269.607783 
L 83.978594 269.607783 
z
" clip-path="url(#p8d4421bbf4)" style="fill: #aec7e8"/>
   </g>
   <g id="patch_8">
    <path d="M 87.190452 288.56325 
L 90.659258 288.56325 
L 90.659258 278.425183 
L 87.190452 278.425183 
z
" clip-path="url(#p8d4421bbf4)" style="fill: #aec7e8"/>
   </g>
   <g id="patch_9">
    <path d="M 90.402309 288.56325 
L 93.871115 288.56325 
L 93.871115 260.673854 
L 90.402309 260.673854 
z
" clip-path="url(#p8d4421bbf4)" style="fill: #aec7e8"/>
   </g>
   <g id="patch_10">
    <path d="M 93.614167 288.56325 
L 97.082973 288.56325 
L 97.082973 268.248272 
L 93.614167 268.248272 
z
" clip-path="url(#p8d4421bbf4)" style="fill: #aec7e8"/>
   </g>
   <g id="patch_11">
    <path d="M 96.826024 288.56325 
L 100.29483 288.56325 
L 100.29483 252.400259 
L 96.826024 252.400259 
z
" clip-path="url(#p8d4421bbf4)" style="fill: #aec7e8"/>
   </g>
   <g id="patch_12">
    <path d="M 100.037881 288.56325 
L 103.506687 288.56325 
L 103.506687 253.449024 
L 100.037881 253.449024 
z
" clip-path="url(#p8d4421bbf4)" style="fill: #aec7e8"/>
   </g>
   <g id="patch_13">
    <path d="M 103.249739 288.56325 
L 106.718545 288.56325 
L 106.718545 244.359723 
L 103.249739 244.359723 
z
" clip-path="url(#p8d4421bbf4)" style="fill: #aec7e8"/>
   </g>
   <g id="patch_14">
    <path d="M 106.461596 288.56325 
L 109.930402 288.56325 
L 109.930402 237.9506 
L 106.461596 237.9506 
z
" clip-path="url(#p8d4421bbf4)" style="fill: #aec7e8"/>
   </g>
   <g id="patch_15">
    <path d="M 109.673454 288.56325 
L 113.142259 288.56325 
L 113.142259 236.163814 
L 109.673454 236.163814 
z
" clip-path="url(#p8d4421bbf4)" style="fill: #aec7e8"/>
   </g>
   <g id="patch_16">
    <path d="M 112.885311 288.56325 
L 116.354117 288.56325 
L 116.354117 220.976134 
L 112.885311 220.976134 
z
" clip-path="url(#p8d4421bbf4)" style="fill: #aec7e8"/>
   </g>
   <g id="patch_17">
    <path d="M 116.097168 288.56325 
L 119.565974 288.56325 
L 119.565974 226.025747 
L 116.097168 226.025747 
z
" clip-path="url(#p8d4421bbf4)" style="fill: #aec7e8"/>
   </g>
   <g id="patch_18">
    <path d="M 119.309026 288.56325 
L 122.777832 288.56325 
L 122.777832 208.934752 
L 119.309026 208.934752 
z
" clip-path="url(#p8d4421bbf4)" style="fill: #aec7e8"/>
   </g>
   <g id="patch_19">
    <path d="M 122.520883 288.56325 
L 125.989689 288.56325 
L 125.989689 217.052974 
L 122.520883 217.052974 
z
" clip-path="url(#p8d4421bbf4)" style="fill: #aec7e8"/>
   </g>
   <g id="patch_20">
    <path d="M 125.73274 288.56325 
L 129.201546 288.56325 
L 129.201546 195.18427 
L 125.73274 195.18427 
z
" clip-path="url(#p8d4421bbf4)" style="fill: #aec7e8"/>
   </g>
   <g id="patch_21">
    <path d="M 128.944598 288.56325 
L 132.413404 288.56325 
L 132.413404 203.03059 
L 128.944598 203.03059 
z
" clip-path="url(#p8d4421bbf4)" style="fill: #aec7e8"/>
   </g>
   <g id="patch_22">
    <path d="M 132.156455 288.56325 
L 135.625261 288.56325 
L 135.625261 186.056125 
L 132.156455 186.056125 
z
" clip-path="url(#p8d4421bbf4)" style="fill: #aec7e8"/>
   </g>
   <g id="patch_23">
    <path d="M 135.368313 288.56325 
L 138.837119 288.56325 
L 138.837119 193.436327 
L 135.368313 193.436327 
z
" clip-path="url(#p8d4421bbf4)" style="fill: #aec7e8"/>
   </g>
   <g id="patch_24">
    <path d="M 138.58017 288.56325 
L 142.048976 288.56325 
L 142.048976 174.170115 
L 138.58017 174.170115 
z
" clip-path="url(#p8d4421bbf4)" style="fill: #aec7e8"/>
   </g>
   <g id="patch_25">
    <path d="M 141.792027 288.56325 
L 145.260833 288.56325 
L 145.260833 181.899906 
L 141.792027 181.899906 
z
" clip-path="url(#p8d4421bbf4)" style="fill: #aec7e8"/>
   </g>
   <g id="patch_26">
    <path d="M 145.003885 288.56325 
L 148.472691 288.56325 
L 148.472691 159.137808 
L 145.003885 159.137808 
z
" clip-path="url(#p8d4421bbf4)" style="fill: #aec7e8"/>
   </g>
   <g id="patch_27">
    <path d="M 148.215742 288.56325 
L 151.684548 288.56325 
L 151.684548 165.546931 
L 148.215742 165.546931 
z
" clip-path="url(#p8d4421bbf4)" style="fill: #aec7e8"/>
   </g>
   <g id="patch_28">
    <path d="M 151.4276 288.56325 
L 154.896406 288.56325 
L 154.896406 149.465859 
L 151.4276 149.465859 
z
" clip-path="url(#p8d4421bbf4)" style="fill: #aec7e8"/>
   </g>
   <g id="patch_29">
    <path d="M 154.639457 288.56325 
L 158.108263 288.56325 
L 158.108263 152.107194 
L 154.639457 152.107194 
z
" clip-path="url(#p8d4421bbf4)" style="fill: #aec7e8"/>
   </g>
   <g id="patch_30">
    <path d="M 157.851314 288.56325 
L 161.32012 288.56325 
L 161.32012 142.86252 
L 157.851314 142.86252 
z
" clip-path="url(#p8d4421bbf4)" style="fill: #aec7e8"/>
   </g>
   <g id="patch_31">
    <path d="M 161.063172 288.56325 
L 164.531978 288.56325 
L 164.531978 141.114577 
L 161.063172 141.114577 
z
" clip-path="url(#p8d4421bbf4)" style="fill: #aec7e8"/>
   </g>
   <g id="patch_32">
    <path d="M 164.275029 288.56325 
L 167.743835 288.56325 
L 167.743835 131.326098 
L 164.275029 131.326098 
z
" clip-path="url(#p8d4421bbf4)" style="fill: #aec7e8"/>
   </g>
   <g id="patch_33">
    <path d="M 167.486887 288.56325 
L 170.955693 288.56325 
L 170.955693 126.587232 
L 167.486887 126.587232 
z
" clip-path="url(#p8d4421bbf4)" style="fill: #aec7e8"/>
   </g>
   <g id="patch_34">
    <path d="M 170.698744 288.56325 
L 174.16755 288.56325 
L 174.16755 121.343404 
L 170.698744 121.343404 
z
" clip-path="url(#p8d4421bbf4)" style="fill: #aec7e8"/>
   </g>
   <g id="patch_35">
    <path d="M 173.910601 288.56325 
L 177.379407 288.56325 
L 177.379407 119.906207 
L 173.910601 119.906207 
z
" clip-path="url(#p8d4421bbf4)" style="fill: #aec7e8"/>
   </g>
   <g id="patch_36">
    <path d="M 177.122459 288.56325 
L 180.591265 288.56325 
L 180.591265 114.545849 
L 177.122459 114.545849 
z
" clip-path="url(#p8d4421bbf4)" style="fill: #aec7e8"/>
   </g>
   <g id="patch_37">
    <path d="M 180.334316 288.56325 
L 183.803122 288.56325 
L 183.803122 105.49539 
L 180.334316 105.49539 
z
" clip-path="url(#p8d4421bbf4)" style="fill: #aec7e8"/>
   </g>
   <g id="patch_38">
    <path d="M 183.546174 288.56325 
L 187.01498 288.56325 
L 187.01498 104.407782 
L 183.546174 104.407782 
z
" clip-path="url(#p8d4421bbf4)" style="fill: #aec7e8"/>
   </g>
   <g id="patch_39">
    <path d="M 186.758031 288.56325 
L 190.226837 288.56325 
L 190.226837 94.347401 
L 186.758031 94.347401 
z
" clip-path="url(#p8d4421bbf4)" style="fill: #aec7e8"/>
   </g>
   <g id="patch_40">
    <path d="M 189.969888 288.56325 
L 193.438694 288.56325 
L 193.438694 94.230871 
L 189.969888 94.230871 
z
" clip-path="url(#p8d4421bbf4)" style="fill: #aec7e8"/>
   </g>
   <g id="patch_41">
    <path d="M 193.181746 288.56325 
L 196.650552 288.56325 
L 196.650552 90.968045 
L 193.181746 90.968045 
z
" clip-path="url(#p8d4421bbf4)" style="fill: #aec7e8"/>
   </g>
   <g id="patch_42">
    <path d="M 196.393603 288.56325 
L 199.862409 288.56325 
L 199.862409 93.609381 
L 196.393603 93.609381 
z
" clip-path="url(#p8d4421bbf4)" style="fill: #aec7e8"/>
   </g>
   <g id="patch_43">
    <path d="M 199.605461 288.56325 
L 203.074267 288.56325 
L 203.074267 84.753138 
L 199.605461 84.753138 
z
" clip-path="url(#p8d4421bbf4)" style="fill: #aec7e8"/>
   </g>
   <g id="patch_44">
    <path d="M 202.817318 288.56325 
L 206.286124 288.56325 
L 206.286124 91.006888 
L 202.817318 91.006888 
z
" clip-path="url(#p8d4421bbf4)" style="fill: #aec7e8"/>
   </g>
   <g id="patch_45">
    <path d="M 206.029175 288.56325 
L 209.497981 288.56325 
L 209.497981 82.539077 
L 206.029175 82.539077 
z
" clip-path="url(#p8d4421bbf4)" style="fill: #aec7e8"/>
   </g>
   <g id="patch_46">
    <path d="M 209.241033 288.56325 
L 212.709839 288.56325 
L 212.709839 79.159721 
L 209.241033 79.159721 
z
" clip-path="url(#p8d4421bbf4)" style="fill: #aec7e8"/>
   </g>
   <g id="patch_47">
    <path d="M 212.45289 288.56325 
L 215.921696 288.56325 
L 215.921696 74.925816 
L 212.45289 74.925816 
z
" clip-path="url(#p8d4421bbf4)" style="fill: #aec7e8"/>
   </g>
   <g id="patch_48">
    <path d="M 215.664748 288.56325 
L 219.133554 288.56325 
L 219.133554 76.596072 
L 215.664748 76.596072 
z
" clip-path="url(#p8d4421bbf4)" style="fill: #aec7e8"/>
   </g>
   <g id="patch_49">
    <path d="M 218.876605 288.56325 
L 222.345411 288.56325 
L 222.345411 73.410932 
L 218.876605 73.410932 
z
" clip-path="url(#p8d4421bbf4)" style="fill: #aec7e8"/>
   </g>
   <g id="patch_50">
    <path d="M 222.088462 288.56325 
L 225.557268 288.56325 
L 225.557268 71.934892 
L 222.088462 71.934892 
z
" clip-path="url(#p8d4421bbf4)" style="fill: #aec7e8"/>
   </g>
   <g id="patch_51">
    <path d="M 225.30032 288.56325 
L 228.769126 288.56325 
L 228.769126 68.866281 
L 225.30032 68.866281 
z
" clip-path="url(#p8d4421bbf4)" style="fill: #aec7e8"/>
   </g>
   <g id="patch_52">
    <path d="M 228.512177 288.56325 
L 231.980983 288.56325 
L 231.980983 66.924123 
L 228.512177 66.924123 
z
" clip-path="url(#p8d4421bbf4)" style="fill: #aec7e8"/>
   </g>
   <g id="patch_53">
    <path d="M 231.724035 288.56325 
L 235.19284 288.56325 
L 235.19284 67.079496 
L 231.724035 67.079496 
z
" clip-path="url(#p8d4421bbf4)" style="fill: #aec7e8"/>
   </g>
   <g id="patch_54">
    <path d="M 234.935892 288.56325 
L 238.404698 288.56325 
L 238.404698 66.691064 
L 234.935892 66.691064 
z
" clip-path="url(#p8d4421bbf4)" style="fill: #aec7e8"/>
   </g>
   <g id="patch_55">
    <path d="M 238.147749 288.56325 
L 241.616555 288.56325 
L 241.616555 69.720831 
L 238.147749 69.720831 
z
" clip-path="url(#p8d4421bbf4)" style="fill: #aec7e8"/>
   </g>
   <g id="patch_56">
    <path d="M 241.359607 288.56325 
L 244.828413 288.56325 
L 244.828413 65.797671 
L 241.359607 65.797671 
z
" clip-path="url(#p8d4421bbf4)" style="fill: #aec7e8"/>
   </g>
   <g id="patch_57">
    <path d="M 244.571464 288.56325 
L 248.04027 288.56325 
L 248.04027 63.350551 
L 244.571464 63.350551 
z
" clip-path="url(#p8d4421bbf4)" style="fill: #aec7e8"/>
   </g>
   <g id="patch_58">
    <path d="M 247.783321 288.56325 
L 251.252127 288.56325 
L 251.252127 62.923276 
L 247.783321 62.923276 
z
" clip-path="url(#p8d4421bbf4)" style="fill: #aec7e8"/>
   </g>
   <g id="patch_59">
    <path d="M 250.995179 288.56325 
L 254.463985 288.56325 
L 254.463985 64.671219 
L 250.995179 64.671219 
z
" clip-path="url(#p8d4421bbf4)" style="fill: #aec7e8"/>
   </g>
   <g id="patch_60">
    <path d="M 254.207036 288.56325 
L 257.675842 288.56325 
L 257.675842 61.019961 
L 254.207036 61.019961 
z
" clip-path="url(#p8d4421bbf4)" style="fill: #aec7e8"/>
   </g>
   <g id="patch_61">
    <path d="M 257.418894 288.56325 
L 260.8877 288.56325 
L 260.8877 66.962966 
L 257.418894 66.962966 
z
" clip-path="url(#p8d4421bbf4)" style="fill: #aec7e8"/>
   </g>
   <g id="patch_62">
    <path d="M 260.630751 288.56325 
L 264.099557 288.56325 
L 264.099557 62.651374 
L 260.630751 62.651374 
z
" clip-path="url(#p8d4421bbf4)" style="fill: #aec7e8"/>
   </g>
   <g id="patch_63">
    <path d="M 263.842608 288.56325 
L 267.311414 288.56325 
L 267.311414 65.681141 
L 263.842608 65.681141 
z
" clip-path="url(#p8d4421bbf4)" style="fill: #aec7e8"/>
   </g>
   <g id="patch_64">
    <path d="M 267.054466 288.56325 
L 270.523272 288.56325 
L 270.523272 60.476157 
L 267.054466 60.476157 
z
" clip-path="url(#p8d4421bbf4)" style="fill: #aec7e8"/>
   </g>
   <g id="patch_65">
    <path d="M 270.266323 288.56325 
L 273.735129 288.56325 
L 273.735129 74.809286 
L 270.266323 74.809286 
z
" clip-path="url(#p8d4421bbf4)" style="fill: #aec7e8"/>
   </g>
   <g id="patch_66">
    <path d="M 273.478181 288.56325 
L 276.946987 288.56325 
L 276.946987 68.47785 
L 273.478181 68.47785 
z
" clip-path="url(#p8d4421bbf4)" style="fill: #aec7e8"/>
   </g>
   <g id="patch_67">
    <path d="M 276.690038 288.56325 
L 280.158844 288.56325 
L 280.158844 84.248177 
L 276.690038 84.248177 
z
" clip-path="url(#p8d4421bbf4)" style="fill: #aec7e8"/>
   </g>
   <g id="patch_68">
    <path d="M 279.901895 288.56325 
L 283.370701 288.56325 
L 283.370701 78.693603 
L 279.901895 78.693603 
z
" clip-path="url(#p8d4421bbf4)" style="fill: #aec7e8"/>
   </g>
   <g id="patch_69">
    <path d="M 283.113753 288.56325 
L 286.582559 288.56325 
L 286.582559 87.666376 
L 283.113753 87.666376 
z
" clip-path="url(#p8d4421bbf4)" style="fill: #aec7e8"/>
   </g>
   <g id="patch_70">
    <path d="M 286.32561 288.56325 
L 289.794416 288.56325 
L 289.794416 81.606841 
L 286.32561 81.606841 
z
" clip-path="url(#p8d4421bbf4)" style="fill: #aec7e8"/>
   </g>
   <g id="patch_71">
    <path d="M 289.537468 288.56325 
L 293.006274 288.56325 
L 293.006274 90.385397 
L 289.537468 90.385397 
z
" clip-path="url(#p8d4421bbf4)" style="fill: #aec7e8"/>
   </g>
   <g id="patch_72">
    <path d="M 292.749325 288.56325 
L 296.218131 288.56325 
L 296.218131 90.890359 
L 292.749325 90.890359 
z
" clip-path="url(#p8d4421bbf4)" style="fill: #aec7e8"/>
   </g>
   <g id="patch_73">
    <path d="M 295.961182 288.56325 
L 299.429988 288.56325 
L 299.429988 103.825134 
L 295.961182 103.825134 
z
" clip-path="url(#p8d4421bbf4)" style="fill: #aec7e8"/>
   </g>
   <g id="patch_74">
    <path d="M 299.17304 288.56325 
L 302.641846 288.56325 
L 302.641846 105.068116 
L 299.17304 105.068116 
z
" clip-path="url(#p8d4421bbf4)" style="fill: #aec7e8"/>
   </g>
   <g id="patch_75">
    <path d="M 302.384897 288.56325 
L 305.853703 288.56325 
L 305.853703 118.857441 
L 302.384897 118.857441 
z
" clip-path="url(#p8d4421bbf4)" style="fill: #aec7e8"/>
   </g>
   <g id="patch_76">
    <path d="M 305.596755 288.56325 
L 309.065561 288.56325 
L 309.065561 121.964895 
L 305.596755 121.964895 
z
" clip-path="url(#p8d4421bbf4)" style="fill: #aec7e8"/>
   </g>
   <g id="patch_77">
    <path d="M 308.808612 288.56325 
L 312.277418 288.56325 
L 312.277418 136.336867 
L 308.808612 136.336867 
z
" clip-path="url(#p8d4421bbf4)" style="fill: #aec7e8"/>
   </g>
   <g id="patch_78">
    <path d="M 312.020469 288.56325 
L 315.489275 288.56325 
L 315.489275 136.919515 
L 312.020469 136.919515 
z
" clip-path="url(#p8d4421bbf4)" style="fill: #aec7e8"/>
   </g>
   <g id="patch_79">
    <path d="M 315.232327 288.56325 
L 318.701133 288.56325 
L 318.701133 149.077427 
L 315.232327 149.077427 
z
" clip-path="url(#p8d4421bbf4)" style="fill: #aec7e8"/>
   </g>
   <g id="patch_80">
    <path d="M 318.444184 288.56325 
L 321.91299 288.56325 
L 321.91299 152.767528 
L 318.444184 152.767528 
z
" clip-path="url(#p8d4421bbf4)" style="fill: #aec7e8"/>
   </g>
   <g id="patch_81">
    <path d="M 321.656042 288.56325 
L 325.124848 288.56325 
L 325.124848 165.158499 
L 321.656042 165.158499 
z
" clip-path="url(#p8d4421bbf4)" style="fill: #aec7e8"/>
   </g>
   <g id="patch_82">
    <path d="M 324.867899 288.56325 
L 328.336705 288.56325 
L 328.336705 165.352715 
L 324.867899 165.352715 
z
" clip-path="url(#p8d4421bbf4)" style="fill: #aec7e8"/>
   </g>
   <g id="patch_83">
    <path d="M 328.079756 288.56325 
L 331.548562 288.56325 
L 331.548562 184.385868 
L 328.079756 184.385868 
z
" clip-path="url(#p8d4421bbf4)" style="fill: #aec7e8"/>
   </g>
   <g id="patch_84">
    <path d="M 331.291614 288.56325 
L 334.76042 288.56325 
L 334.76042 184.580084 
L 331.291614 184.580084 
z
" clip-path="url(#p8d4421bbf4)" style="fill: #aec7e8"/>
   </g>
   <g id="patch_85">
    <path d="M 334.503471 288.56325 
L 337.972277 288.56325 
L 337.972277 199.418175 
L 334.503471 199.418175 
z
" clip-path="url(#p8d4421bbf4)" style="fill: #aec7e8"/>
   </g>
   <g id="patch_86">
    <path d="M 337.715329 288.56325 
L 341.184135 288.56325 
L 341.184135 197.903292 
L 337.715329 197.903292 
z
" clip-path="url(#p8d4421bbf4)" style="fill: #aec7e8"/>
   </g>
   <g id="patch_87">
    <path d="M 340.927186 288.56325 
L 344.395992 288.56325 
L 344.395992 213.2075 
L 340.927186 213.2075 
z
" clip-path="url(#p8d4421bbf4)" style="fill: #aec7e8"/>
   </g>
   <g id="patch_88">
    <path d="M 344.139043 288.56325 
L 347.607849 288.56325 
L 347.607849 214.256266 
L 344.139043 214.256266 
z
" clip-path="url(#p8d4421bbf4)" style="fill: #aec7e8"/>
   </g>
   <g id="patch_89">
    <path d="M 347.350901 288.56325 
L 350.819707 288.56325 
L 350.819707 222.607548 
L 347.350901 222.607548 
z
" clip-path="url(#p8d4421bbf4)" style="fill: #aec7e8"/>
   </g>
   <g id="patch_90">
    <path d="M 350.562758 288.56325 
L 354.031564 288.56325 
L 354.031564 221.481096 
L 350.562758 221.481096 
z
" clip-path="url(#p8d4421bbf4)" style="fill: #aec7e8"/>
   </g>
   <g id="patch_91">
    <path d="M 353.774616 288.56325 
L 357.243421 288.56325 
L 357.243421 234.143969 
L 353.774616 234.143969 
z
" clip-path="url(#p8d4421bbf4)" style="fill: #aec7e8"/>
   </g>
   <g id="patch_92">
    <path d="M 356.986473 288.56325 
L 360.455279 288.56325 
L 360.455279 232.279497 
L 356.986473 232.279497 
z
" clip-path="url(#p8d4421bbf4)" style="fill: #aec7e8"/>
   </g>
   <g id="patch_93">
    <path d="M 360.19833 288.56325 
L 363.667136 288.56325 
L 363.667136 240.630778 
L 360.19833 240.630778 
z
" clip-path="url(#p8d4421bbf4)" style="fill: #aec7e8"/>
   </g>
   <g id="patch_94">
    <path d="M 363.410188 288.56325 
L 366.878994 288.56325 
L 366.878994 242.689466 
L 363.410188 242.689466 
z
" clip-path="url(#p8d4421bbf4)" style="fill: #aec7e8"/>
   </g>
   <g id="patch_95">
    <path d="M 366.622045 288.56325 
L 370.090851 288.56325 
L 370.090851 247.855608 
L 366.622045 247.855608 
z
" clip-path="url(#p8d4421bbf4)" style="fill: #aec7e8"/>
   </g>
   <g id="patch_96">
    <path d="M 369.833902 288.56325 
L 373.302708 288.56325 
L 373.302708 248.166353 
L 369.833902 248.166353 
z
" clip-path="url(#p8d4421bbf4)" style="fill: #aec7e8"/>
   </g>
   <g id="patch_97">
    <path d="M 373.04576 288.56325 
L 376.514566 288.56325 
L 376.514566 246.146509 
L 373.04576 246.146509 
z
" clip-path="url(#p8d4421bbf4)" style="fill: #aec7e8"/>
   </g>
   <g id="patch_98">
    <path d="M 376.257617 288.56325 
L 379.726423 288.56325 
L 379.726423 261.489561 
L 376.257617 261.489561 
z
" clip-path="url(#p8d4421bbf4)" style="fill: #aec7e8"/>
   </g>
   <g id="patch_99">
    <path d="M 379.469475 288.56325 
L 382.938281 288.56325 
L 382.938281 247.739078 
L 379.469475 247.739078 
z
" clip-path="url(#p8d4421bbf4)" style="fill: #aec7e8"/>
   </g>
   <g id="patch_100">
    <path d="M 382.681332 288.56325 
L 386.150138 288.56325 
L 386.150138 259.974677 
L 382.681332 259.974677 
z
" clip-path="url(#p8d4421bbf4)" style="fill: #aec7e8"/>
   </g>
   <g id="patch_101">
    <path d="M 385.893189 288.56325 
L 389.361995 288.56325 
L 389.361995 250.108512 
L 385.893189 250.108512 
z
" clip-path="url(#p8d4421bbf4)" style="fill: #aec7e8"/>
   </g>
   <g id="patch_102">
    <path d="M 389.105047 288.56325 
L 392.573853 288.56325 
L 392.573853 282.464872 
L 389.105047 282.464872 
z
" clip-path="url(#p8d4421bbf4)" style="fill: #aec7e8"/>
   </g>
   <g id="patch_103">
    <path d="M 392.316904 288.56325 
L 395.78571 288.56325 
L 395.78571 233.405949 
L 392.316904 233.405949 
z
" clip-path="url(#p8d4421bbf4)" style="fill: #aec7e8"/>
   </g>
   <g id="matplotlib.axis_1">
    <g id="xtick_1">
     <g id="line2d_1">
      <defs>
       <path id="m775471c1d8" d="M 0 0 
L 0 3.5 
" style="stroke: #000000; stroke-width: 0.8"/>
      </defs>
      <g>
       <use xlink:href="#m775471c1d8" x="72.865568" y="288.56325" style="stroke: #000000; stroke-width: 0.8"/>
      </g>
     </g>
     <g id="text_1">
      <!-- 0 -->
      <g transform="translate(69.500724 303.272625) scale(0.1 -0.1)">
       <defs>
        <path id="HiraginoSans-W4-30" d="M 2144 -90 
C 2758 -90 3232 141 3565 602 
C 3846 998 4019 1696 4019 2464 
C 4019 3002 3936 3501 3770 3949 
C 3693 4160 3558 4371 3379 4550 
C 3078 4858 2650 5024 2157 5024 
C 1498 5024 986 4742 666 4205 
C 435 3834 288 3142 288 2458 
C 288 1939 371 1434 538 986 
C 614 768 749 563 928 384 
C 1242 70 1651 -90 2144 -90 
z
M 2144 4499 
C 2592 4499 2918 4307 3123 3923 
C 3283 3629 3398 3014 3398 2470 
C 3398 2022 3341 1619 3213 1235 
C 3155 1043 3046 870 2912 730 
C 2726 538 2458 435 2150 435 
C 1734 435 1414 614 1197 973 
C 1024 1261 902 1875 902 2451 
C 902 2906 966 3328 1088 3699 
C 1139 3866 1235 4026 1370 4173 
C 1568 4397 1818 4499 2144 4499 
z
" transform="scale(0.015625)"/>
       </defs>
       <use xlink:href="#HiraginoSans-W4-30"/>
      </g>
     </g>
    </g>
    <g id="xtick_2">
     <g id="line2d_2">
      <g>
       <use xlink:href="#m775471c1d8" x="137.102716" y="288.56325" style="stroke: #000000; stroke-width: 0.8"/>
      </g>
     </g>
     <g id="text_2">
      <!-- 20 -->
      <g transform="translate(130.373028 303.272625) scale(0.1 -0.1)">
       <defs>
        <path id="HiraginoSans-W4-32" d="M 3078 0 
C 3424 0 3642 -6 3917 -32 
L 3917 589 
C 3693 557 3430 544 3091 544 
L 1114 544 
C 1280 1114 1606 1478 2451 2042 
C 3181 2528 3341 2656 3546 2912 
C 3738 3142 3846 3443 3846 3744 
C 3846 4525 3200 5030 2202 5030 
C 1613 5030 1158 4858 858 4518 
C 640 4269 531 4026 442 3565 
L 1088 3469 
C 1139 3782 1190 3936 1306 4102 
C 1491 4371 1792 4506 2208 4506 
C 2816 4506 3206 4211 3206 3744 
C 3206 3360 2995 3085 2387 2675 
C 1754 2246 1600 2138 1389 1952 
C 979 1594 710 1229 544 806 
C 448 563 429 461 365 -26 
C 576 -6 678 0 1107 0 
L 3078 0 
z
" transform="scale(0.015625)"/>
       </defs>
       <use xlink:href="#HiraginoSans-W4-32"/>
       <use xlink:href="#HiraginoSans-W4-30" x="67.299988"/>
      </g>
     </g>
    </g>
    <g id="xtick_3">
     <g id="line2d_3">
      <g>
       <use xlink:href="#m775471c1d8" x="201.339864" y="288.56325" style="stroke: #000000; stroke-width: 0.8"/>
      </g>
     </g>
     <g id="text_3">
      <!-- 40 -->
      <g transform="translate(194.60002 303.272625) scale(0.1 -0.1)">
       <defs>
        <path id="HiraginoSans-W4-34" d="M 179 1210 
C 403 1229 589 1235 954 1235 
L 2688 1235 
L 2688 710 
C 2688 410 2675 218 2630 0 
L 3309 0 
C 3270 230 3258 390 3258 704 
L 3258 1235 
L 3494 1235 
C 3763 1235 3910 1222 4154 1190 
L 4154 1798 
C 3917 1766 3750 1754 3494 1754 
L 3258 1754 
L 3258 3853 
C 3258 4358 3264 4544 3296 4934 
L 2701 4934 
C 2560 4704 2445 4550 2214 4269 
L 621 2298 
C 467 2099 326 1939 179 1773 
L 179 1210 
z
M 2688 1747 
L 858 1747 
L 2259 3514 
C 2464 3763 2592 3936 2720 4128 
C 2694 3814 2688 3622 2688 3283 
L 2688 1747 
z
" transform="scale(0.015625)"/>
       </defs>
       <use xlink:href="#HiraginoSans-W4-34"/>
       <use xlink:href="#HiraginoSans-W4-30" x="67.499985"/>
      </g>
     </g>
    </g>
    <g id="xtick_4">
     <g id="line2d_4">
      <g>
       <use xlink:href="#m775471c1d8" x="265.577011" y="288.56325" style="stroke: #000000; stroke-width: 0.8"/>
      </g>
     </g>
     <g id="text_4">
      <!-- 60 -->
      <g transform="translate(258.847324 303.272625) scale(0.1 -0.1)">
       <defs>
        <path id="HiraginoSans-W4-36" d="M 3846 3994 
C 3706 4301 3616 4442 3462 4602 
C 3187 4877 2784 5024 2304 5024 
C 1683 5024 1222 4794 864 4307 
C 557 3891 371 3162 371 2355 
C 371 1446 614 704 1043 320 
C 1331 58 1773 -90 2253 -90 
C 3277 -90 3968 589 3968 1587 
C 3968 2586 3334 3213 2323 3213 
C 1894 3213 1568 3104 1274 2854 
C 1133 2739 1062 2656 941 2458 
C 979 3085 1043 3392 1210 3763 
C 1434 4262 1798 4518 2285 4518 
C 2765 4518 3040 4314 3238 3821 
L 3846 3994 
z
M 2266 2714 
C 2950 2714 3366 2285 3366 1574 
C 3366 1325 3309 1088 3206 922 
C 3008 614 2643 422 2234 422 
C 1568 422 1069 915 1069 1574 
C 1069 2234 1574 2714 2266 2714 
z
" transform="scale(0.015625)"/>
       </defs>
       <use xlink:href="#HiraginoSans-W4-36"/>
       <use xlink:href="#HiraginoSans-W4-30" x="67.299988"/>
      </g>
     </g>
    </g>
    <g id="xtick_5">
     <g id="line2d_5">
      <g>
       <use xlink:href="#m775471c1d8" x="329.814159" y="288.56325" style="stroke: #000000; stroke-width: 0.8"/>
      </g>
     </g>
     <g id="text_5">
      <!-- 80 -->
      <g transform="translate(323.084472 303.272625) scale(0.1 -0.1)">
       <defs>
        <path id="HiraginoSans-W4-38" d="M 1446 2586 
C 1203 2547 1056 2490 851 2355 
C 480 2106 294 1754 294 1299 
C 294 397 966 -102 2163 -102 
C 3347 -102 4006 397 4006 1299 
C 4006 1728 3853 2061 3539 2304 
C 3322 2470 3136 2547 2867 2586 
C 3437 2714 3789 3162 3789 3757 
C 3789 4550 3162 5043 2150 5043 
C 1146 5043 512 4544 512 3750 
C 512 3162 877 2701 1446 2586 
z
M 2150 4538 
C 2784 4538 3187 4211 3187 3699 
C 3187 3155 2797 2829 2157 2829 
C 1510 2829 1114 3162 1114 3699 
C 1114 4211 1523 4538 2150 4538 
z
M 2157 2304 
C 2912 2304 3373 1939 3373 1344 
C 3373 749 2925 410 2144 410 
C 1376 410 928 749 928 1338 
C 928 1939 1389 2304 2157 2304 
z
" transform="scale(0.015625)"/>
       </defs>
       <use xlink:href="#HiraginoSans-W4-38"/>
       <use xlink:href="#HiraginoSans-W4-30" x="67.299988"/>
      </g>
     </g>
    </g>
    <g id="xtick_6">
     <g id="line2d_6">
      <g>
       <use xlink:href="#m775471c1d8" x="394.051307" y="288.56325" style="stroke: #000000; stroke-width: 0.8"/>
      </g>
     </g>
     <g id="text_6">
      <!-- 100 -->
      <g transform="translate(383.956776 303.272625) scale(0.1 -0.1)">
       <defs>
        <path id="HiraginoSans-W4-31" d="M 1018 4371 
C 1222 4397 1389 4410 1606 4410 
L 1939 4410 
L 1939 755 
C 1939 454 1926 237 1888 0 
L 2598 0 
C 2560 250 2547 448 2547 755 
L 2547 3904 
C 2547 4256 2566 4582 2605 4966 
C 2387 4941 2278 4934 2035 4934 
L 1581 4934 
C 1325 4934 1197 4941 1018 4966 
L 1018 4371 
z
" transform="scale(0.015625)"/>
       </defs>
       <use xlink:href="#HiraginoSans-W4-31"/>
       <use xlink:href="#HiraginoSans-W4-30" x="67.299988"/>
       <use xlink:href="#HiraginoSans-W4-30" x="134.599976"/>
      </g>
     </g>
    </g>
    <g id="text_7">
     <!-- 点数 -->
     <g transform="translate(223.458438 317.032) scale(0.1 -0.1)">
      <defs>
       <path id="HiraginoSans-W4-70b9" d="M 3341 4122 
L 5114 4122 
C 5350 4122 5542 4109 5766 4083 
L 5766 4602 
C 5587 4576 5402 4563 5114 4563 
L 3341 4563 
L 3341 4736 
C 3341 4973 3354 5165 3386 5331 
L 2790 5331 
C 2822 5152 2835 4941 2835 4704 
L 2835 3341 
L 1850 3341 
C 1555 3341 1325 3354 1126 3373 
C 1146 3206 1152 3072 1152 2874 
L 1152 1805 
C 1152 1632 1146 1498 1126 1338 
C 1318 1357 1498 1363 1773 1363 
L 4640 1363 
C 4922 1363 5088 1357 5286 1338 
C 5267 1491 5261 1606 5261 1811 
L 5261 2874 
C 5261 3085 5267 3232 5286 3373 
C 5107 3347 4915 3341 4570 3341 
L 3341 3341 
L 3341 4122 
z
M 4774 2893 
L 4774 1818 
L 1645 1818 
L 1645 2893 
L 4774 2893 
z
M 749 -474 
C 1126 -19 1331 352 1562 966 
L 1114 1146 
C 1005 806 941 659 781 403 
C 627 147 531 26 294 -205 
L 749 -474 
z
M 2803 -378 
C 2778 109 2733 435 2618 1018 
L 2176 947 
C 2278 410 2304 141 2304 -474 
L 2803 -378 
z
M 4378 -288 
C 4211 211 4070 563 3827 1069 
L 3405 941 
C 3648 397 3776 26 3885 -480 
L 4378 -288 
z
M 5984 -205 
C 5632 429 5504 640 5126 1165 
L 4704 986 
C 5069 474 5242 160 5523 -467 
L 5984 -205 
z
" transform="scale(0.015625)"/>
       <path id="HiraginoSans-W4-6570" d="M 6170 4173 
C 6003 4141 5862 4134 5568 4134 
L 4288 4134 
C 4365 4384 4435 4627 4512 4947 
C 4557 5126 4563 5152 4595 5235 
L 4077 5344 
C 4070 5158 4032 4934 3974 4672 
C 3782 3853 3437 3130 2995 2598 
C 3142 2509 3226 2438 3354 2291 
C 3526 2515 3610 2643 3770 2931 
C 3904 2176 4070 1702 4397 1158 
C 4013 653 3526 275 2803 -77 
C 2944 -218 3021 -326 3110 -506 
C 3776 -141 4256 250 4666 755 
C 5069 230 5485 -141 6035 -467 
C 6138 -237 6202 -128 6317 13 
C 5747 314 5338 653 4954 1158 
C 5171 1523 5325 1875 5440 2304 
C 5562 2739 5613 3078 5651 3699 
C 5920 3699 6035 3693 6170 3667 
L 6170 4173 
z
M 5184 3699 
C 5133 2797 4992 2214 4672 1600 
C 4358 2170 4192 2707 4064 3539 
C 4096 3610 4102 3629 4128 3699 
L 5184 3699 
z
M 3046 339 
C 2752 512 2656 570 2419 685 
C 2643 992 2746 1190 2880 1626 
L 2963 1626 
C 3187 1626 3309 1619 3443 1594 
L 3443 2067 
C 3328 2042 3206 2035 2989 2035 
L 1862 2035 
C 1926 2176 1958 2234 2029 2426 
L 1562 2528 
C 1485 2285 1453 2202 1382 2035 
L 832 2035 
C 608 2035 493 2042 365 2067 
L 365 1594 
C 499 1619 614 1626 832 1626 
L 1165 1626 
C 1005 1344 941 1248 723 954 
C 1203 774 1402 691 1702 550 
C 1376 294 902 83 326 -58 
C 429 -205 493 -314 563 -480 
C 1325 -224 1715 -19 2112 346 
C 2432 173 2502 122 2778 -77 
L 3046 339 
z
M 2419 1626 
C 2310 1306 2214 1120 2022 870 
C 1818 960 1709 1005 1357 1146 
C 1504 1370 1549 1440 1651 1626 
L 2419 1626 
z
M 2163 4070 
L 2163 4902 
C 2163 5075 2170 5203 2189 5325 
L 1696 5325 
C 1722 5184 1728 5075 1728 4896 
L 1728 4070 
L 915 4070 
C 666 4070 531 4077 390 4102 
L 390 3642 
C 518 3667 678 3674 902 3674 
L 1434 3674 
C 1133 3258 864 3034 269 2688 
C 410 2566 486 2477 589 2317 
C 1184 2739 1408 2963 1747 3494 
C 1734 3366 1728 3258 1728 3162 
L 1728 2835 
C 1728 2752 1722 2662 1702 2586 
L 2182 2586 
C 2170 2662 2163 2758 2163 2848 
L 2163 3168 
C 2163 3258 2157 3347 2138 3494 
C 2355 3162 2490 3014 2848 2739 
C 2989 2970 3002 2982 3130 3110 
C 2816 3277 2566 3469 2406 3674 
L 2989 3674 
C 3200 3674 3309 3667 3418 3648 
L 3418 4096 
C 3322 4077 3200 4070 2995 4070 
L 2163 4070 
z
M 570 5056 
C 774 4768 896 4550 1024 4211 
L 1427 4371 
C 1286 4704 1190 4883 960 5210 
L 570 5056 
z
M 2918 5235 
C 2784 4883 2643 4634 2406 4333 
L 2790 4147 
C 3008 4442 3104 4608 3328 5050 
L 2918 5235 
z
" transform="scale(0.015625)"/>
      </defs>
      <use xlink:href="#HiraginoSans-W4-70b9"/>
      <use xlink:href="#HiraginoSans-W4-6570" x="99.999985"/>
     </g>
    </g>
   </g>
   <g id="matplotlib.axis_2">
    <g id="ytick_1">
     <g id="line2d_7">
      <defs>
       <path id="m2779e713b9" d="M 0 0 
L -3.5 0 
" style="stroke: #000000; stroke-width: 0.8"/>
      </defs>
      <g>
       <use xlink:href="#m2779e713b9" x="54.898438" y="288.56325" style="stroke: #000000; stroke-width: 0.8"/>
      </g>
     </g>
     <g id="text_8">
      <!-- 0 -->
      <g transform="translate(41.16875 292.417937) scale(0.1 -0.1)">
       <use xlink:href="#HiraginoSans-W4-30"/>
      </g>
     </g>
    </g>
    <g id="ytick_2">
     <g id="line2d_8">
      <g>
       <use xlink:href="#m2779e713b9" x="54.898438" y="249.72008" style="stroke: #000000; stroke-width: 0.8"/>
      </g>
     </g>
     <g id="text_9">
      <!-- 1000 -->
      <g transform="translate(20.979687 253.574768) scale(0.1 -0.1)">
       <use xlink:href="#HiraginoSans-W4-31"/>
       <use xlink:href="#HiraginoSans-W4-30" x="67.299988"/>
       <use xlink:href="#HiraginoSans-W4-30" x="134.599976"/>
       <use xlink:href="#HiraginoSans-W4-30" x="201.899963"/>
      </g>
     </g>
    </g>
    <g id="ytick_3">
     <g id="line2d_9">
      <g>
       <use xlink:href="#m2779e713b9" x="54.898438" y="210.87691" style="stroke: #000000; stroke-width: 0.8"/>
      </g>
     </g>
     <g id="text_10">
      <!-- 2000 -->
      <g transform="translate(20.979687 214.731598) scale(0.1 -0.1)">
       <use xlink:href="#HiraginoSans-W4-32"/>
       <use xlink:href="#HiraginoSans-W4-30" x="67.299988"/>
       <use xlink:href="#HiraginoSans-W4-30" x="134.599976"/>
       <use xlink:href="#HiraginoSans-W4-30" x="201.899963"/>
      </g>
     </g>
    </g>
    <g id="ytick_4">
     <g id="line2d_10">
      <g>
       <use xlink:href="#m2779e713b9" x="54.898438" y="172.03374" style="stroke: #000000; stroke-width: 0.8"/>
      </g>
     </g>
     <g id="text_11">
      <!-- 3000 -->
      <g transform="translate(20.979687 175.888428) scale(0.1 -0.1)">
       <defs>
        <path id="HiraginoSans-W4-33" d="M 282 1101 
C 397 768 474 621 621 448 
C 934 90 1434 -96 2112 -96 
C 2720 -96 3213 70 3533 384 
C 3770 614 3904 954 3904 1306 
C 3904 1677 3802 1958 3597 2182 
C 3379 2419 3130 2528 2688 2586 
C 2995 2650 3130 2701 3290 2816 
C 3578 3021 3738 3366 3738 3757 
C 3738 4538 3117 5043 2157 5043 
C 1594 5043 1146 4883 845 4576 
C 666 4390 582 4237 467 3891 
L 1107 3757 
C 1171 3981 1216 4083 1306 4192 
C 1478 4416 1741 4525 2125 4525 
C 2746 4525 3110 4224 3110 3725 
C 3110 3482 3021 3264 2867 3110 
C 2669 2918 2374 2829 1965 2829 
C 1779 2829 1613 2842 1459 2861 
L 1459 2272 
C 1651 2298 1811 2310 2003 2310 
C 2829 2310 3264 1990 3264 1376 
C 3264 794 2816 429 2106 429 
C 1779 429 1510 506 1293 666 
C 1107 800 1024 928 928 1248 
L 282 1101 
z
" transform="scale(0.015625)"/>
       </defs>
       <use xlink:href="#HiraginoSans-W4-33"/>
       <use xlink:href="#HiraginoSans-W4-30" x="67.299988"/>
       <use xlink:href="#HiraginoSans-W4-30" x="134.599976"/>
       <use xlink:href="#HiraginoSans-W4-30" x="201.899963"/>
      </g>
     </g>
    </g>
    <g id="ytick_5">
     <g id="line2d_11">
      <g>
       <use xlink:href="#m2779e713b9" x="54.898438" y="133.190571" style="stroke: #000000; stroke-width: 0.8"/>
      </g>
     </g>
     <g id="text_12">
      <!-- 4000 -->
      <g transform="translate(20.959375 137.045258) scale(0.1 -0.1)">
       <use xlink:href="#HiraginoSans-W4-34"/>
       <use xlink:href="#HiraginoSans-W4-30" x="67.499985"/>
       <use xlink:href="#HiraginoSans-W4-30" x="134.799973"/>
       <use xlink:href="#HiraginoSans-W4-30" x="202.09996"/>
      </g>
     </g>
    </g>
    <g id="ytick_6">
     <g id="line2d_12">
      <g>
       <use xlink:href="#m2779e713b9" x="54.898438" y="94.347401" style="stroke: #000000; stroke-width: 0.8"/>
      </g>
     </g>
     <g id="text_13">
      <!-- 5000 -->
      <g transform="translate(20.979687 98.202088) scale(0.1 -0.1)">
       <defs>
        <path id="HiraginoSans-W4-35" d="M 1331 4416 
L 2835 4416 
C 3155 4416 3366 4403 3622 4365 
L 3622 4986 
C 3360 4947 3206 4934 2829 4934 
L 1446 4934 
C 1082 4934 954 4941 762 4966 
C 774 4768 774 4762 774 4742 
C 774 4563 774 4518 749 4307 
L 608 2822 
C 589 2566 570 2445 518 2157 
L 1088 2106 
C 1146 2240 1178 2291 1261 2374 
C 1485 2605 1811 2739 2131 2739 
C 2842 2739 3264 2317 3264 1613 
C 3264 902 2803 435 2106 435 
C 1747 435 1440 563 1235 794 
C 1146 902 1101 986 1037 1171 
L 410 1005 
C 557 685 646 544 813 378 
C 1133 64 1562 -96 2099 -96 
C 3194 -96 3885 576 3885 1638 
C 3885 2605 3245 3238 2272 3238 
C 1830 3238 1472 3098 1158 2803 
C 1197 2982 1197 2982 1203 3091 
L 1331 4416 
z
" transform="scale(0.015625)"/>
       </defs>
       <use xlink:href="#HiraginoSans-W4-35"/>
       <use xlink:href="#HiraginoSans-W4-30" x="67.299988"/>
       <use xlink:href="#HiraginoSans-W4-30" x="134.599976"/>
       <use xlink:href="#HiraginoSans-W4-30" x="201.899963"/>
      </g>
     </g>
    </g>
    <g id="ytick_7">
     <g id="line2d_13">
      <g>
       <use xlink:href="#m2779e713b9" x="54.898438" y="55.504231" style="stroke: #000000; stroke-width: 0.8"/>
      </g>
     </g>
     <g id="text_14">
      <!-- 6000 -->
      <g transform="translate(20.979687 59.358918) scale(0.1 -0.1)">
       <use xlink:href="#HiraginoSans-W4-36"/>
       <use xlink:href="#HiraginoSans-W4-30" x="67.299988"/>
       <use xlink:href="#HiraginoSans-W4-30" x="134.599976"/>
       <use xlink:href="#HiraginoSans-W4-30" x="201.899963"/>
      </g>
     </g>
    </g>
    <g id="text_15">
     <!-- 人数 -->
     <g transform="translate(14.909375 165.50725) rotate(-90) scale(0.1 -0.1)">
      <defs>
       <path id="HiraginoSans-W4-4eba" d="M 2893 5254 
C 2912 5088 2918 4973 2918 4717 
C 2918 3277 2586 2195 1856 1267 
C 1434 723 1056 422 307 13 
C 486 -134 576 -243 691 -448 
C 1222 -115 1466 77 1824 429 
C 2240 845 2528 1235 2758 1722 
C 2989 2195 3098 2528 3213 3110 
C 3411 2285 3661 1709 4051 1152 
C 4506 512 4954 83 5728 -448 
C 5856 -224 5926 -128 6112 38 
C 5760 243 5606 346 5414 499 
C 5082 768 4736 1120 4499 1434 
C 4109 1946 3750 2682 3616 3226 
C 3533 3565 3456 4262 3456 4672 
C 3456 4858 3475 5152 3494 5254 
L 2893 5254 
z
" transform="scale(0.015625)"/>
      </defs>
      <use xlink:href="#HiraginoSans-W4-4eba"/>
      <use xlink:href="#HiraginoSans-W4-6570" x="99.999985"/>
     </g>
    </g>
   </g>
   <g id="line2d_14">
    <path d="M 72.865568 276.800191 
L 76.077425 275.32223 
L 79.289283 273.693204 
L 82.50114 271.902562 
L 85.712997 269.939666 
L 88.924855 267.79388 
L 92.136712 265.454679 
L 95.34857 262.91176 
L 98.560427 260.155175 
L 101.772284 257.175459 
L 104.984142 253.963783 
L 108.195999 250.512099 
L 111.407857 246.813305 
L 114.619714 242.861405 
L 117.831571 238.651674 
L 121.043429 234.180827 
L 124.255286 229.44718 
L 127.467143 224.450816 
L 130.679001 219.193727 
L 133.890858 213.679969 
L 137.102716 207.91578 
L 140.314573 201.909701 
L 143.52643 195.672669 
L 146.738288 189.218087 
L 149.950145 182.561875 
L 153.162003 175.722494 
L 156.37386 168.720932 
L 159.585717 161.580673 
L 162.797575 154.327623 
L 166.009432 146.990009 
L 169.22129 139.598238 
L 172.433147 132.18473 
L 175.645004 124.783711 
L 178.856862 117.43098 
L 182.068719 110.163641 
L 185.280577 103.019807 
L 188.492434 96.03829 
L 191.704291 89.258249 
L 194.916149 82.718842 
L 198.128006 76.458853 
L 201.339864 70.516312 
L 204.551721 64.928116 
L 207.763578 59.729647 
L 210.975436 54.954404 
L 214.187293 50.63364 
L 217.399151 46.796027 
L 220.611008 43.467335 
L 223.822865 40.670145 
L 227.034723 38.423597 
L 230.24658 36.743169 
L 233.458438 35.640498 
L 236.670295 35.12325 
L 239.882152 35.195029 
L 243.09401 35.855333 
L 246.305867 37.099565 
L 249.517724 38.919083 
L 252.729582 41.301298 
L 255.941439 44.229823 
L 259.153297 47.68466 
L 262.365154 51.642424 
L 265.577011 56.076613 
L 268.788869 60.957895 
L 272.000726 66.254438 
L 275.212584 71.932251 
L 278.424441 77.955549 
L 281.636298 84.287123 
L 284.848156 90.888725 
L 288.060013 97.721445 
L 291.271871 104.746091 
L 294.483728 111.923555 
L 297.695585 119.215168 
L 300.907443 126.583031 
L 304.1193 133.990333 
L 307.331158 141.401635 
L 310.543015 148.78313 
L 313.754872 156.10287 
L 316.96673 163.330965 
L 320.178587 170.439742 
L 323.390445 177.403877 
L 326.602302 184.200488 
L 329.814159 190.8092 
L 333.026017 197.212172 
L 336.237874 203.394099 
L 339.449732 209.342184 
L 342.661589 215.046083 
L 345.873446 220.497824 
L 349.085304 225.69171 
L 352.297161 230.624203 
L 355.509018 235.293787 
L 358.720876 239.700826 
L 361.932733 243.847407 
L 365.144591 247.737181 
L 368.356448 251.375199 
L 371.568305 254.76774 
L 374.780163 257.922153 
L 377.99202 260.84669 
L 381.203878 263.550348 
L 384.415735 266.042723 
L 387.627592 268.333862 
L 390.83945 270.434133 
L 394.051307 272.354098 
" clip-path="url(#p8d4421bbf4)" style="fill: none; stroke: #ff7f0e; stroke-width: 2; stroke-linecap: square"/>
   </g>
   <g id="patch_104">
    <path d="M 54.898438 288.56325 
L 54.898438 22.45125 
" style="fill: none; stroke: #000000; stroke-width: 0.8; stroke-linejoin: miter; stroke-linecap: square"/>
   </g>
   <g id="patch_105">
    <path d="M 412.018438 288.56325 
L 412.018438 22.45125 
" style="fill: none; stroke: #000000; stroke-width: 0.8; stroke-linejoin: miter; stroke-linecap: square"/>
   </g>
   <g id="patch_106">
    <path d="M 54.898438 288.56325 
L 412.018438 288.56325 
" style="fill: none; stroke: #000000; stroke-width: 0.8; stroke-linejoin: miter; stroke-linecap: square"/>
   </g>
   <g id="patch_107">
    <path d="M 54.898438 22.45125 
L 412.018438 22.45125 
" style="fill: none; stroke: #000000; stroke-width: 0.8; stroke-linejoin: miter; stroke-linecap: square"/>
   </g>
   <g id="text_16">
    <!-- 数学I・A -->
    <g transform="translate(209.297188 16.45125) scale(0.12 -0.12)">
     <defs>
      <path id="HiraginoSans-W4-5b66" d="M 1229 4307 
C 864 4307 749 4314 486 4333 
C 506 4179 512 4045 512 3808 
L 512 3296 
C 512 3130 499 2982 480 2835 
L 986 2835 
L 986 3891 
L 5395 3891 
L 5395 2835 
L 5901 2835 
C 5882 2989 5869 3136 5869 3296 
L 5869 3808 
C 5869 4045 5875 4179 5894 4333 
C 5658 4314 5530 4307 5139 4307 
L 4704 4307 
C 4896 4538 5056 4768 5280 5139 
L 4794 5312 
C 4614 4902 4461 4646 4173 4307 
L 3520 4307 
C 3386 4678 3283 4890 3046 5325 
L 2573 5197 
C 2778 4883 2912 4602 3014 4307 
L 2157 4307 
C 1926 4710 1792 4915 1523 5242 
L 1069 5101 
C 1350 4774 1466 4608 1632 4307 
L 1229 4307 
z
M 3462 1338 
L 5299 1338 
C 5600 1338 5837 1325 6010 1299 
L 6010 1818 
C 5811 1792 5600 1779 5299 1779 
L 3462 1779 
L 3462 1926 
C 4038 2227 4429 2490 4877 2861 
C 5011 2976 5011 2976 5101 3046 
L 4826 3341 
C 4710 3322 4582 3315 4346 3315 
L 2093 3315 
C 1856 3315 1638 3328 1466 3347 
L 1466 2861 
C 1638 2880 1856 2893 2080 2893 
L 4262 2893 
C 3878 2598 3616 2432 3219 2240 
L 2950 2240 
C 2963 2112 2970 1997 2970 1869 
L 2970 1779 
L 1101 1779 
C 819 1779 602 1792 403 1818 
L 403 1299 
C 595 1325 806 1338 1101 1338 
L 2970 1338 
L 2970 147 
C 2970 19 2931 0 2643 0 
C 2400 0 2157 19 1811 64 
C 1888 -102 1920 -192 1965 -422 
C 2189 -442 2509 -454 2675 -454 
C 3334 -454 3462 -371 3462 58 
L 3462 1338 
z
" transform="scale(0.015625)"/>
      <path id="HiraginoSans-W4-49" d="M 480 4934 
C 518 4698 531 4531 531 4186 
L 531 749 
C 531 410 518 243 480 0 
L 1190 0 
C 1152 224 1139 442 1139 749 
L 1139 4186 
C 1139 4486 1152 4704 1190 4934 
L 480 4934 
z
" transform="scale(0.015625)"/>
      <path id="HiraginoSans-W4-30fb" d="M 3206 3027 
C 2880 3027 2611 2758 2611 2432 
C 2611 2112 2880 1843 3206 1843 
C 3526 1843 3795 2112 3795 2438 
C 3795 2765 3533 3027 3206 3027 
z
" transform="scale(0.015625)"/>
      <path id="HiraginoSans-W4-41" d="M 4826 0 
C 4730 166 4646 352 4486 742 
L 3053 4326 
C 2899 4710 2867 4806 2835 4934 
L 2054 4934 
C 2022 4781 1971 4634 1850 4326 
L 422 742 
C 269 358 198 205 83 0 
L 858 0 
C 902 230 954 397 1056 659 
L 1363 1453 
L 3546 1453 
L 3859 659 
C 3930 467 4006 218 4051 0 
L 4826 0 
z
M 3366 1978 
L 1542 1978 
L 2317 4026 
C 2330 4058 2349 4122 2381 4211 
C 2394 4256 2419 4333 2451 4422 
C 2566 4083 2566 4083 2586 4026 
L 3366 1978 
z
" transform="scale(0.015625)"/>
     </defs>
     <use xlink:href="#HiraginoSans-W4-6570"/>
     <use xlink:href="#HiraginoSans-W4-5b66" x="99.999985"/>
     <use xlink:href="#HiraginoSans-W4-49" x="199.999969"/>
     <use xlink:href="#HiraginoSans-W4-30fb" x="226.09996"/>
     <use xlink:href="#HiraginoSans-W4-41" x="326.099945"/>
    </g>
   </g>
  </g>
 </g>
 <defs>
  <clipPath id="p8d4421bbf4">
   <rect x="54.898438" y="22.45125" width="357.12" height="266.112"/>
  </clipPath>
 </defs>
</svg>
