<?xml version="1.0" encoding="utf-8" standalone="no"?>
<!DOCTYPE svg PUBLIC "-//W3C//DTD SVG 1.1//EN"
  "http://www.w3.org/Graphics/SVG/1.1/DTD/svg11.dtd">
<svg xmlns:xlink="http://www.w3.org/1999/xlink" width="419.218437pt" height="326.282pt" viewBox="0 0 419.218437 326.282" xmlns="http://www.w3.org/2000/svg" version="1.1">
 <metadata>
  <rdf:RDF xmlns:dc="http://purl.org/dc/elements/1.1/" xmlns:cc="http://creativecommons.org/ns#" xmlns:rdf="http://www.w3.org/1999/02/22-rdf-syntax-ns#">
   <cc:Work>
    <dc:type rdf:resource="http://purl.org/dc/dcmitype/StillImage"/>
    <dc:date>2024-07-06T09:40:26.064522</dc:date>
    <dc:format>image/svg+xml</dc:format>
    <dc:creator>
     <cc:Agent>
      <dc:title>Matplotlib v3.9.1, https://matplotlib.org/</dc:title>
     </cc:Agent>
    </dc:creator>
   </cc:Work>
  </rdf:RDF>
 </metadata>
 <defs>
  <style type="text/css">*{stroke-linejoin: round; stroke-linecap: butt}</style>
 </defs>
 <g id="figure_1">
  <g id="patch_1">
   <path d="M 0 326.282 
L 419.218437 326.282 
L 419.218437 0 
L 0 0 
z
" style="fill: #ffffff"/>
  </g>
  <g id="axes_1">
   <g id="patch_2">
    <path d="M 54.898438 288.56325 
L 412.018438 288.56325 
L 412.018438 22.45125 
L 54.898438 22.45125 
z
" style="fill: #ffffff"/>
   </g>
   <g id="patch_3">
    <path d="M 71.131165 288.56325 
L 74.599971 288.56325 
L 74.599971 288.01048 
L 71.131165 288.01048 
z
" clip-path="url(#pb9b688cf6b)" style="fill: #aec7e8"/>
   </g>
   <g id="patch_4">
    <path d="M 74.343022 288.56325 
L 77.811828 288.56325 
L 77.811828 288.01048 
L 74.343022 288.01048 
z
" clip-path="url(#pb9b688cf6b)" style="fill: #aec7e8"/>
   </g>
   <g id="patch_5">
    <path d="M 77.55488 288.56325 
L 81.023686 288.56325 
L 81.023686 288.01048 
L 77.55488 288.01048 
z
" clip-path="url(#pb9b688cf6b)" style="fill: #aec7e8"/>
   </g>
   <g id="patch_6">
    <path d="M 80.766737 288.56325 
L 84.235543 288.56325 
L 84.235543 287.953297 
L 80.766737 287.953297 
z
" clip-path="url(#pb9b688cf6b)" style="fill: #aec7e8"/>
   </g>
   <g id="patch_7">
    <path d="M 83.978594 288.56325 
L 87.4474 288.56325 
L 87.4474 287.953297 
L 83.978594 287.953297 
z
" clip-path="url(#pb9b688cf6b)" style="fill: #aec7e8"/>
   </g>
   <g id="patch_8">
    <path d="M 87.190452 288.56325 
L 90.659258 288.56325 
L 90.659258 287.953297 
L 87.190452 287.953297 
z
" clip-path="url(#pb9b688cf6b)" style="fill: #aec7e8"/>
   </g>
   <g id="patch_9">
    <path d="M 90.402309 288.56325 
L 93.871115 288.56325 
L 93.871115 286.866819 
L 90.402309 286.866819 
z
" clip-path="url(#pb9b688cf6b)" style="fill: #aec7e8"/>
   </g>
   <g id="patch_10">
    <path d="M 93.614167 288.56325 
L 97.082973 288.56325 
L 97.082973 286.866819 
L 93.614167 286.866819 
z
" clip-path="url(#pb9b688cf6b)" style="fill: #aec7e8"/>
   </g>
   <g id="patch_11">
    <path d="M 96.826024 288.56325 
L 100.29483 288.56325 
L 100.29483 286.866819 
L 96.826024 286.866819 
z
" clip-path="url(#pb9b688cf6b)" style="fill: #aec7e8"/>
   </g>
   <g id="patch_12">
    <path d="M 100.037881 288.56325 
L 103.506687 288.56325 
L 103.506687 283.778935 
L 100.037881 283.778935 
z
" clip-path="url(#pb9b688cf6b)" style="fill: #aec7e8"/>
   </g>
   <g id="patch_13">
    <path d="M 103.249739 288.56325 
L 106.718545 288.56325 
L 106.718545 283.778935 
L 103.249739 283.778935 
z
" clip-path="url(#pb9b688cf6b)" style="fill: #aec7e8"/>
   </g>
   <g id="patch_14">
    <path d="M 106.461596 288.56325 
L 109.930402 288.56325 
L 109.930402 283.778935 
L 106.461596 283.778935 
z
" clip-path="url(#pb9b688cf6b)" style="fill: #aec7e8"/>
   </g>
   <g id="patch_15">
    <path d="M 109.673454 288.56325 
L 113.142259 288.56325 
L 113.142259 278.63246 
L 109.673454 278.63246 
z
" clip-path="url(#pb9b688cf6b)" style="fill: #aec7e8"/>
   </g>
   <g id="patch_16">
    <path d="M 112.885311 288.56325 
L 116.354117 288.56325 
L 116.354117 278.63246 
L 112.885311 278.63246 
z
" clip-path="url(#pb9b688cf6b)" style="fill: #aec7e8"/>
   </g>
   <g id="patch_17">
    <path d="M 116.097168 288.56325 
L 119.565974 288.56325 
L 119.565974 278.63246 
L 116.097168 278.63246 
z
" clip-path="url(#pb9b688cf6b)" style="fill: #aec7e8"/>
   </g>
   <g id="patch_18">
    <path d="M 119.309026 288.56325 
L 122.777832 288.56325 
L 122.777832 270.169368 
L 119.309026 270.169368 
z
" clip-path="url(#pb9b688cf6b)" style="fill: #aec7e8"/>
   </g>
   <g id="patch_19">
    <path d="M 122.520883 288.56325 
L 125.989689 288.56325 
L 125.989689 270.169368 
L 122.520883 270.169368 
z
" clip-path="url(#pb9b688cf6b)" style="fill: #aec7e8"/>
   </g>
   <g id="patch_20">
    <path d="M 125.73274 288.56325 
L 129.201546 288.56325 
L 129.201546 270.169368 
L 125.73274 270.169368 
z
" clip-path="url(#pb9b688cf6b)" style="fill: #aec7e8"/>
   </g>
   <g id="patch_21">
    <path d="M 128.944598 288.56325 
L 132.413404 288.56325 
L 132.413404 262.373411 
L 128.944598 262.373411 
z
" clip-path="url(#pb9b688cf6b)" style="fill: #aec7e8"/>
   </g>
   <g id="patch_22">
    <path d="M 132.156455 288.56325 
L 135.625261 288.56325 
L 135.625261 262.373411 
L 132.156455 262.373411 
z
" clip-path="url(#pb9b688cf6b)" style="fill: #aec7e8"/>
   </g>
   <g id="patch_23">
    <path d="M 135.368313 288.56325 
L 138.837119 288.56325 
L 138.837119 262.373411 
L 135.368313 262.373411 
z
" clip-path="url(#pb9b688cf6b)" style="fill: #aec7e8"/>
   </g>
   <g id="patch_24">
    <path d="M 138.58017 288.56325 
L 142.048976 288.56325 
L 142.048976 251.565814 
L 138.58017 251.565814 
z
" clip-path="url(#pb9b688cf6b)" style="fill: #aec7e8"/>
   </g>
   <g id="patch_25">
    <path d="M 141.792027 288.56325 
L 145.260833 288.56325 
L 145.260833 251.565814 
L 141.792027 251.565814 
z
" clip-path="url(#pb9b688cf6b)" style="fill: #aec7e8"/>
   </g>
   <g id="patch_26">
    <path d="M 145.003885 288.56325 
L 148.472691 288.56325 
L 148.472691 251.565814 
L 145.003885 251.565814 
z
" clip-path="url(#pb9b688cf6b)" style="fill: #aec7e8"/>
   </g>
   <g id="patch_27">
    <path d="M 148.215742 288.56325 
L 151.684548 288.56325 
L 151.684548 239.023664 
L 148.215742 239.023664 
z
" clip-path="url(#pb9b688cf6b)" style="fill: #aec7e8"/>
   </g>
   <g id="patch_28">
    <path d="M 151.4276 288.56325 
L 154.896406 288.56325 
L 154.896406 239.023664 
L 151.4276 239.023664 
z
" clip-path="url(#pb9b688cf6b)" style="fill: #aec7e8"/>
   </g>
   <g id="patch_29">
    <path d="M 154.639457 288.56325 
L 158.108263 288.56325 
L 158.108263 239.023664 
L 154.639457 239.023664 
z
" clip-path="url(#pb9b688cf6b)" style="fill: #aec7e8"/>
   </g>
   <g id="patch_30">
    <path d="M 157.851314 288.56325 
L 161.32012 288.56325 
L 161.32012 222.593067 
L 157.851314 222.593067 
z
" clip-path="url(#pb9b688cf6b)" style="fill: #aec7e8"/>
   </g>
   <g id="patch_31">
    <path d="M 161.063172 288.56325 
L 164.531978 288.56325 
L 164.531978 222.593067 
L 161.063172 222.593067 
z
" clip-path="url(#pb9b688cf6b)" style="fill: #aec7e8"/>
   </g>
   <g id="patch_32">
    <path d="M 164.275029 288.56325 
L 167.743835 288.56325 
L 167.743835 222.593067 
L 164.275029 222.593067 
z
" clip-path="url(#pb9b688cf6b)" style="fill: #aec7e8"/>
   </g>
   <g id="patch_33">
    <path d="M 167.486887 288.56325 
L 170.955693 288.56325 
L 170.955693 207.763595 
L 167.486887 207.763595 
z
" clip-path="url(#pb9b688cf6b)" style="fill: #aec7e8"/>
   </g>
   <g id="patch_34">
    <path d="M 170.698744 288.56325 
L 174.16755 288.56325 
L 174.16755 207.763595 
L 170.698744 207.763595 
z
" clip-path="url(#pb9b688cf6b)" style="fill: #aec7e8"/>
   </g>
   <g id="patch_35">
    <path d="M 173.910601 288.56325 
L 177.379407 288.56325 
L 177.379407 207.763595 
L 173.910601 207.763595 
z
" clip-path="url(#pb9b688cf6b)" style="fill: #aec7e8"/>
   </g>
   <g id="patch_36">
    <path d="M 177.122459 288.56325 
L 180.591265 288.56325 
L 180.591265 185.748119 
L 177.122459 185.748119 
z
" clip-path="url(#pb9b688cf6b)" style="fill: #aec7e8"/>
   </g>
   <g id="patch_37">
    <path d="M 180.334316 288.56325 
L 183.803122 288.56325 
L 183.803122 185.748119 
L 180.334316 185.748119 
z
" clip-path="url(#pb9b688cf6b)" style="fill: #aec7e8"/>
   </g>
   <g id="patch_38">
    <path d="M 183.546174 288.56325 
L 187.01498 288.56325 
L 187.01498 185.748119 
L 183.546174 185.748119 
z
" clip-path="url(#pb9b688cf6b)" style="fill: #aec7e8"/>
   </g>
   <g id="patch_39">
    <path d="M 186.758031 288.56325 
L 190.226837 288.56325 
L 190.226837 167.849824 
L 186.758031 167.849824 
z
" clip-path="url(#pb9b688cf6b)" style="fill: #aec7e8"/>
   </g>
   <g id="patch_40">
    <path d="M 189.969888 288.56325 
L 193.438694 288.56325 
L 193.438694 167.849824 
L 189.969888 167.849824 
z
" clip-path="url(#pb9b688cf6b)" style="fill: #aec7e8"/>
   </g>
   <g id="patch_41">
    <path d="M 193.181746 288.56325 
L 196.650552 288.56325 
L 196.650552 167.849824 
L 193.181746 167.849824 
z
" clip-path="url(#pb9b688cf6b)" style="fill: #aec7e8"/>
   </g>
   <g id="patch_42">
    <path d="M 196.393603 288.56325 
L 199.862409 288.56325 
L 199.862409 140.325714 
L 196.393603 140.325714 
z
" clip-path="url(#pb9b688cf6b)" style="fill: #aec7e8"/>
   </g>
   <g id="patch_43">
    <path d="M 199.605461 288.56325 
L 203.074267 288.56325 
L 203.074267 140.325714 
L 199.605461 140.325714 
z
" clip-path="url(#pb9b688cf6b)" style="fill: #aec7e8"/>
   </g>
   <g id="patch_44">
    <path d="M 202.817318 288.56325 
L 206.286124 288.56325 
L 206.286124 140.325714 
L 202.817318 140.325714 
z
" clip-path="url(#pb9b688cf6b)" style="fill: #aec7e8"/>
   </g>
   <g id="patch_45">
    <path d="M 206.029175 288.56325 
L 209.497981 288.56325 
L 209.497981 112.229773 
L 206.029175 112.229773 
z
" clip-path="url(#pb9b688cf6b)" style="fill: #aec7e8"/>
   </g>
   <g id="patch_46">
    <path d="M 209.241033 288.56325 
L 212.709839 288.56325 
L 212.709839 112.229773 
L 209.241033 112.229773 
z
" clip-path="url(#pb9b688cf6b)" style="fill: #aec7e8"/>
   </g>
   <g id="patch_47">
    <path d="M 212.45289 288.56325 
L 215.921696 288.56325 
L 215.921696 112.229773 
L 212.45289 112.229773 
z
" clip-path="url(#pb9b688cf6b)" style="fill: #aec7e8"/>
   </g>
   <g id="patch_48">
    <path d="M 215.664748 288.56325 
L 219.133554 288.56325 
L 219.133554 90.82425 
L 215.664748 90.82425 
z
" clip-path="url(#pb9b688cf6b)" style="fill: #aec7e8"/>
   </g>
   <g id="patch_49">
    <path d="M 218.876605 288.56325 
L 222.345411 288.56325 
L 222.345411 90.82425 
L 218.876605 90.82425 
z
" clip-path="url(#pb9b688cf6b)" style="fill: #aec7e8"/>
   </g>
   <g id="patch_50">
    <path d="M 222.088462 288.56325 
L 225.557268 288.56325 
L 225.557268 90.82425 
L 222.088462 90.82425 
z
" clip-path="url(#pb9b688cf6b)" style="fill: #aec7e8"/>
   </g>
   <g id="patch_51">
    <path d="M 225.30032 288.56325 
L 228.769126 288.56325 
L 228.769126 69.189995 
L 225.30032 69.189995 
z
" clip-path="url(#pb9b688cf6b)" style="fill: #aec7e8"/>
   </g>
   <g id="patch_52">
    <path d="M 228.512177 288.56325 
L 231.980983 288.56325 
L 231.980983 69.189995 
L 228.512177 69.189995 
z
" clip-path="url(#pb9b688cf6b)" style="fill: #aec7e8"/>
   </g>
   <g id="patch_53">
    <path d="M 231.724035 288.56325 
L 235.19284 288.56325 
L 235.19284 69.189995 
L 231.724035 69.189995 
z
" clip-path="url(#pb9b688cf6b)" style="fill: #aec7e8"/>
   </g>
   <g id="patch_54">
    <path d="M 234.935892 288.56325 
L 238.404698 288.56325 
L 238.404698 57.658079 
L 234.935892 57.658079 
z
" clip-path="url(#pb9b688cf6b)" style="fill: #aec7e8"/>
   </g>
   <g id="patch_55">
    <path d="M 238.147749 288.56325 
L 241.616555 288.56325 
L 241.616555 57.658079 
L 238.147749 57.658079 
z
" clip-path="url(#pb9b688cf6b)" style="fill: #aec7e8"/>
   </g>
   <g id="patch_56">
    <path d="M 241.359607 288.56325 
L 244.828413 288.56325 
L 244.828413 57.658079 
L 241.359607 57.658079 
z
" clip-path="url(#pb9b688cf6b)" style="fill: #aec7e8"/>
   </g>
   <g id="patch_57">
    <path d="M 244.571464 288.56325 
L 248.04027 288.56325 
L 248.04027 43.381377 
L 244.571464 43.381377 
z
" clip-path="url(#pb9b688cf6b)" style="fill: #aec7e8"/>
   </g>
   <g id="patch_58">
    <path d="M 247.783321 288.56325 
L 251.252127 288.56325 
L 251.252127 43.381377 
L 247.783321 43.381377 
z
" clip-path="url(#pb9b688cf6b)" style="fill: #aec7e8"/>
   </g>
   <g id="patch_59">
    <path d="M 250.995179 288.56325 
L 254.463985 288.56325 
L 254.463985 43.381377 
L 250.995179 43.381377 
z
" clip-path="url(#pb9b688cf6b)" style="fill: #aec7e8"/>
   </g>
   <g id="patch_60">
    <path d="M 254.207036 288.56325 
L 257.675842 288.56325 
L 257.675842 40.274431 
L 254.207036 40.274431 
z
" clip-path="url(#pb9b688cf6b)" style="fill: #aec7e8"/>
   </g>
   <g id="patch_61">
    <path d="M 257.418894 288.56325 
L 260.8877 288.56325 
L 260.8877 40.274431 
L 257.418894 40.274431 
z
" clip-path="url(#pb9b688cf6b)" style="fill: #aec7e8"/>
   </g>
   <g id="patch_62">
    <path d="M 260.630751 288.56325 
L 264.099557 288.56325 
L 264.099557 40.274431 
L 260.630751 40.274431 
z
" clip-path="url(#pb9b688cf6b)" style="fill: #aec7e8"/>
   </g>
   <g id="patch_63">
    <path d="M 263.842608 288.56325 
L 267.311414 288.56325 
L 267.311414 50.18616 
L 263.842608 50.18616 
z
" clip-path="url(#pb9b688cf6b)" style="fill: #aec7e8"/>
   </g>
   <g id="patch_64">
    <path d="M 267.054466 288.56325 
L 270.523272 288.56325 
L 270.523272 50.18616 
L 267.054466 50.18616 
z
" clip-path="url(#pb9b688cf6b)" style="fill: #aec7e8"/>
   </g>
   <g id="patch_65">
    <path d="M 270.266323 288.56325 
L 273.735129 288.56325 
L 273.735129 50.18616 
L 270.266323 50.18616 
z
" clip-path="url(#pb9b688cf6b)" style="fill: #aec7e8"/>
   </g>
   <g id="patch_66">
    <path d="M 273.478181 288.56325 
L 276.946987 288.56325 
L 276.946987 64.825022 
L 273.478181 64.825022 
z
" clip-path="url(#pb9b688cf6b)" style="fill: #aec7e8"/>
   </g>
   <g id="patch_67">
    <path d="M 276.690038 288.56325 
L 280.158844 288.56325 
L 280.158844 64.825022 
L 276.690038 64.825022 
z
" clip-path="url(#pb9b688cf6b)" style="fill: #aec7e8"/>
   </g>
   <g id="patch_68">
    <path d="M 279.901895 288.56325 
L 283.370701 288.56325 
L 283.370701 64.825022 
L 279.901895 64.825022 
z
" clip-path="url(#pb9b688cf6b)" style="fill: #aec7e8"/>
   </g>
   <g id="patch_69">
    <path d="M 283.113753 288.56325 
L 286.582559 288.56325 
L 286.582559 83.676369 
L 283.113753 83.676369 
z
" clip-path="url(#pb9b688cf6b)" style="fill: #aec7e8"/>
   </g>
   <g id="patch_70">
    <path d="M 286.32561 288.56325 
L 289.794416 288.56325 
L 289.794416 83.676369 
L 286.32561 83.676369 
z
" clip-path="url(#pb9b688cf6b)" style="fill: #aec7e8"/>
   </g>
   <g id="patch_71">
    <path d="M 289.537468 288.56325 
L 293.006274 288.56325 
L 293.006274 83.676369 
L 289.537468 83.676369 
z
" clip-path="url(#pb9b688cf6b)" style="fill: #aec7e8"/>
   </g>
   <g id="patch_72">
    <path d="M 292.749325 288.56325 
L 296.218131 288.56325 
L 296.218131 115.374841 
L 292.749325 115.374841 
z
" clip-path="url(#pb9b688cf6b)" style="fill: #aec7e8"/>
   </g>
   <g id="patch_73">
    <path d="M 295.961182 288.56325 
L 299.429988 288.56325 
L 299.429988 115.374841 
L 295.961182 115.374841 
z
" clip-path="url(#pb9b688cf6b)" style="fill: #aec7e8"/>
   </g>
   <g id="patch_74">
    <path d="M 299.17304 288.56325 
L 302.641846 288.56325 
L 302.641846 115.374841 
L 299.17304 115.374841 
z
" clip-path="url(#pb9b688cf6b)" style="fill: #aec7e8"/>
   </g>
   <g id="patch_75">
    <path d="M 302.384897 288.56325 
L 305.853703 288.56325 
L 305.853703 144.709748 
L 302.384897 144.709748 
z
" clip-path="url(#pb9b688cf6b)" style="fill: #aec7e8"/>
   </g>
   <g id="patch_76">
    <path d="M 305.596755 288.56325 
L 309.065561 288.56325 
L 309.065561 144.709748 
L 305.596755 144.709748 
z
" clip-path="url(#pb9b688cf6b)" style="fill: #aec7e8"/>
   </g>
   <g id="patch_77">
    <path d="M 308.808612 288.56325 
L 312.277418 288.56325 
L 312.277418 144.709748 
L 308.808612 144.709748 
z
" clip-path="url(#pb9b688cf6b)" style="fill: #aec7e8"/>
   </g>
   <g id="patch_78">
    <path d="M 312.020469 288.56325 
L 315.489275 288.56325 
L 315.489275 172.386346 
L 312.020469 172.386346 
z
" clip-path="url(#pb9b688cf6b)" style="fill: #aec7e8"/>
   </g>
   <g id="patch_79">
    <path d="M 315.232327 288.56325 
L 318.701133 288.56325 
L 318.701133 172.386346 
L 315.232327 172.386346 
z
" clip-path="url(#pb9b688cf6b)" style="fill: #aec7e8"/>
   </g>
   <g id="patch_80">
    <path d="M 318.444184 288.56325 
L 321.91299 288.56325 
L 321.91299 172.386346 
L 318.444184 172.386346 
z
" clip-path="url(#pb9b688cf6b)" style="fill: #aec7e8"/>
   </g>
   <g id="patch_81">
    <path d="M 321.656042 288.56325 
L 325.124848 288.56325 
L 325.124848 203.150829 
L 321.656042 203.150829 
z
" clip-path="url(#pb9b688cf6b)" style="fill: #aec7e8"/>
   </g>
   <g id="patch_82">
    <path d="M 324.867899 288.56325 
L 328.336705 288.56325 
L 328.336705 203.150829 
L 324.867899 203.150829 
z
" clip-path="url(#pb9b688cf6b)" style="fill: #aec7e8"/>
   </g>
   <g id="patch_83">
    <path d="M 328.079756 288.56325 
L 331.548562 288.56325 
L 331.548562 203.150829 
L 328.079756 203.150829 
z
" clip-path="url(#pb9b688cf6b)" style="fill: #aec7e8"/>
   </g>
   <g id="patch_84">
    <path d="M 331.291614 288.56325 
L 334.76042 288.56325 
L 334.76042 229.073813 
L 331.291614 229.073813 
z
" clip-path="url(#pb9b688cf6b)" style="fill: #aec7e8"/>
   </g>
   <g id="patch_85">
    <path d="M 334.503471 288.56325 
L 337.972277 288.56325 
L 337.972277 229.073813 
L 334.503471 229.073813 
z
" clip-path="url(#pb9b688cf6b)" style="fill: #aec7e8"/>
   </g>
   <g id="patch_86">
    <path d="M 337.715329 288.56325 
L 341.184135 288.56325 
L 341.184135 229.073813 
L 337.715329 229.073813 
z
" clip-path="url(#pb9b688cf6b)" style="fill: #aec7e8"/>
   </g>
   <g id="patch_87">
    <path d="M 340.927186 288.56325 
L 344.395992 288.56325 
L 344.395992 250.098116 
L 340.927186 250.098116 
z
" clip-path="url(#pb9b688cf6b)" style="fill: #aec7e8"/>
   </g>
   <g id="patch_88">
    <path d="M 344.139043 288.56325 
L 347.607849 288.56325 
L 347.607849 250.098116 
L 344.139043 250.098116 
z
" clip-path="url(#pb9b688cf6b)" style="fill: #aec7e8"/>
   </g>
   <g id="patch_89">
    <path d="M 347.350901 288.56325 
L 350.819707 288.56325 
L 350.819707 250.098116 
L 347.350901 250.098116 
z
" clip-path="url(#pb9b688cf6b)" style="fill: #aec7e8"/>
   </g>
   <g id="patch_90">
    <path d="M 350.562758 288.56325 
L 354.031564 288.56325 
L 354.031564 266.071249 
L 350.562758 266.071249 
z
" clip-path="url(#pb9b688cf6b)" style="fill: #aec7e8"/>
   </g>
   <g id="patch_91">
    <path d="M 353.774616 288.56325 
L 357.243421 288.56325 
L 357.243421 266.071249 
L 353.774616 266.071249 
z
" clip-path="url(#pb9b688cf6b)" style="fill: #aec7e8"/>
   </g>
   <g id="patch_92">
    <path d="M 356.986473 288.56325 
L 360.455279 288.56325 
L 360.455279 266.071249 
L 356.986473 266.071249 
z
" clip-path="url(#pb9b688cf6b)" style="fill: #aec7e8"/>
   </g>
   <g id="patch_93">
    <path d="M 360.19833 288.56325 
L 363.667136 288.56325 
L 363.667136 278.041568 
L 360.19833 278.041568 
z
" clip-path="url(#pb9b688cf6b)" style="fill: #aec7e8"/>
   </g>
   <g id="patch_94">
    <path d="M 363.410188 288.56325 
L 366.878994 288.56325 
L 366.878994 278.041568 
L 363.410188 278.041568 
z
" clip-path="url(#pb9b688cf6b)" style="fill: #aec7e8"/>
   </g>
   <g id="patch_95">
    <path d="M 366.622045 288.56325 
L 370.090851 288.56325 
L 370.090851 278.041568 
L 366.622045 278.041568 
z
" clip-path="url(#pb9b688cf6b)" style="fill: #aec7e8"/>
   </g>
   <g id="patch_96">
    <path d="M 369.833902 288.56325 
L 373.302708 288.56325 
L 373.302708 284.522314 
L 369.833902 284.522314 
z
" clip-path="url(#pb9b688cf6b)" style="fill: #aec7e8"/>
   </g>
   <g id="patch_97">
    <path d="M 373.04576 288.56325 
L 376.514566 288.56325 
L 376.514566 284.522314 
L 373.04576 284.522314 
z
" clip-path="url(#pb9b688cf6b)" style="fill: #aec7e8"/>
   </g>
   <g id="patch_98">
    <path d="M 376.257617 288.56325 
L 379.726423 288.56325 
L 379.726423 284.522314 
L 376.257617 284.522314 
z
" clip-path="url(#pb9b688cf6b)" style="fill: #aec7e8"/>
   </g>
   <g id="patch_99">
    <path d="M 379.469475 288.56325 
L 382.938281 288.56325 
L 382.938281 287.114613 
L 379.469475 287.114613 
z
" clip-path="url(#pb9b688cf6b)" style="fill: #aec7e8"/>
   </g>
   <g id="patch_100">
    <path d="M 382.681332 288.56325 
L 386.150138 288.56325 
L 386.150138 287.114613 
L 382.681332 287.114613 
z
" clip-path="url(#pb9b688cf6b)" style="fill: #aec7e8"/>
   </g>
   <g id="patch_101">
    <path d="M 385.893189 288.56325 
L 389.361995 288.56325 
L 389.361995 287.114613 
L 385.893189 287.114613 
z
" clip-path="url(#pb9b688cf6b)" style="fill: #aec7e8"/>
   </g>
   <g id="patch_102">
    <path d="M 389.105047 288.56325 
L 392.573853 288.56325 
L 392.573853 288.420292 
L 389.105047 288.420292 
z
" clip-path="url(#pb9b688cf6b)" style="fill: #aec7e8"/>
   </g>
   <g id="patch_103">
    <path d="M 392.316904 288.56325 
L 395.78571 288.56325 
L 395.78571 288.420292 
L 392.316904 288.420292 
z
" clip-path="url(#pb9b688cf6b)" style="fill: #aec7e8"/>
   </g>
   <g id="patch_104">
    <path d="M 0 0 
z
" clip-path="url(#pb9b688cf6b)" style="fill: #aec7e8"/>
   </g>
   <g id="matplotlib.axis_1">
    <g id="xtick_1">
     <g id="line2d_1">
      <defs>
       <path id="mb17175506c" d="M 0 0 
L 0 3.5 
" style="stroke: #000000; stroke-width: 0.8"/>
      </defs>
      <g>
       <use xlink:href="#mb17175506c" x="72.865568" y="288.56325" style="stroke: #000000; stroke-width: 0.8"/>
      </g>
     </g>
     <g id="text_1">
      <!-- 0 -->
      <g transform="translate(69.500724 303.272625) scale(0.1 -0.1)">
       <defs>
        <path id="HiraginoSans-W4-30" d="M 2144 -90 
C 2758 -90 3232 141 3565 602 
C 3846 998 4019 1696 4019 2464 
C 4019 3002 3936 3501 3770 3949 
C 3693 4160 3558 4371 3379 4550 
C 3078 4858 2650 5024 2157 5024 
C 1498 5024 986 4742 666 4205 
C 435 3834 288 3142 288 2458 
C 288 1939 371 1434 538 986 
C 614 768 749 563 928 384 
C 1242 70 1651 -90 2144 -90 
z
M 2144 4499 
C 2592 4499 2918 4307 3123 3923 
C 3283 3629 3398 3014 3398 2470 
C 3398 2022 3341 1619 3213 1235 
C 3155 1043 3046 870 2912 730 
C 2726 538 2458 435 2150 435 
C 1734 435 1414 614 1197 973 
C 1024 1261 902 1875 902 2451 
C 902 2906 966 3328 1088 3699 
C 1139 3866 1235 4026 1370 4173 
C 1568 4397 1818 4499 2144 4499 
z
" transform="scale(0.015625)"/>
       </defs>
       <use xlink:href="#HiraginoSans-W4-30"/>
      </g>
     </g>
    </g>
    <g id="xtick_2">
     <g id="line2d_2">
      <g>
       <use xlink:href="#mb17175506c" x="137.102716" y="288.56325" style="stroke: #000000; stroke-width: 0.8"/>
      </g>
     </g>
     <g id="text_2">
      <!-- 20 -->
      <g transform="translate(130.373028 303.272625) scale(0.1 -0.1)">
       <defs>
        <path id="HiraginoSans-W4-32" d="M 3078 0 
C 3424 0 3642 -6 3917 -32 
L 3917 589 
C 3693 557 3430 544 3091 544 
L 1114 544 
C 1280 1114 1606 1478 2451 2042 
C 3181 2528 3341 2656 3546 2912 
C 3738 3142 3846 3443 3846 3744 
C 3846 4525 3200 5030 2202 5030 
C 1613 5030 1158 4858 858 4518 
C 640 4269 531 4026 442 3565 
L 1088 3469 
C 1139 3782 1190 3936 1306 4102 
C 1491 4371 1792 4506 2208 4506 
C 2816 4506 3206 4211 3206 3744 
C 3206 3360 2995 3085 2387 2675 
C 1754 2246 1600 2138 1389 1952 
C 979 1594 710 1229 544 806 
C 448 563 429 461 365 -26 
C 576 -6 678 0 1107 0 
L 3078 0 
z
" transform="scale(0.015625)"/>
       </defs>
       <use xlink:href="#HiraginoSans-W4-32"/>
       <use xlink:href="#HiraginoSans-W4-30" x="67.299988"/>
      </g>
     </g>
    </g>
    <g id="xtick_3">
     <g id="line2d_3">
      <g>
       <use xlink:href="#mb17175506c" x="201.339864" y="288.56325" style="stroke: #000000; stroke-width: 0.8"/>
      </g>
     </g>
     <g id="text_3">
      <!-- 40 -->
      <g transform="translate(194.60002 303.272625) scale(0.1 -0.1)">
       <defs>
        <path id="HiraginoSans-W4-34" d="M 179 1210 
C 403 1229 589 1235 954 1235 
L 2688 1235 
L 2688 710 
C 2688 410 2675 218 2630 0 
L 3309 0 
C 3270 230 3258 390 3258 704 
L 3258 1235 
L 3494 1235 
C 3763 1235 3910 1222 4154 1190 
L 4154 1798 
C 3917 1766 3750 1754 3494 1754 
L 3258 1754 
L 3258 3853 
C 3258 4358 3264 4544 3296 4934 
L 2701 4934 
C 2560 4704 2445 4550 2214 4269 
L 621 2298 
C 467 2099 326 1939 179 1773 
L 179 1210 
z
M 2688 1747 
L 858 1747 
L 2259 3514 
C 2464 3763 2592 3936 2720 4128 
C 2694 3814 2688 3622 2688 3283 
L 2688 1747 
z
" transform="scale(0.015625)"/>
       </defs>
       <use xlink:href="#HiraginoSans-W4-34"/>
       <use xlink:href="#HiraginoSans-W4-30" x="67.499985"/>
      </g>
     </g>
    </g>
    <g id="xtick_4">
     <g id="line2d_4">
      <g>
       <use xlink:href="#mb17175506c" x="265.577011" y="288.56325" style="stroke: #000000; stroke-width: 0.8"/>
      </g>
     </g>
     <g id="text_4">
      <!-- 60 -->
      <g transform="translate(258.847324 303.272625) scale(0.1 -0.1)">
       <defs>
        <path id="HiraginoSans-W4-36" d="M 3846 3994 
C 3706 4301 3616 4442 3462 4602 
C 3187 4877 2784 5024 2304 5024 
C 1683 5024 1222 4794 864 4307 
C 557 3891 371 3162 371 2355 
C 371 1446 614 704 1043 320 
C 1331 58 1773 -90 2253 -90 
C 3277 -90 3968 589 3968 1587 
C 3968 2586 3334 3213 2323 3213 
C 1894 3213 1568 3104 1274 2854 
C 1133 2739 1062 2656 941 2458 
C 979 3085 1043 3392 1210 3763 
C 1434 4262 1798 4518 2285 4518 
C 2765 4518 3040 4314 3238 3821 
L 3846 3994 
z
M 2266 2714 
C 2950 2714 3366 2285 3366 1574 
C 3366 1325 3309 1088 3206 922 
C 3008 614 2643 422 2234 422 
C 1568 422 1069 915 1069 1574 
C 1069 2234 1574 2714 2266 2714 
z
" transform="scale(0.015625)"/>
       </defs>
       <use xlink:href="#HiraginoSans-W4-36"/>
       <use xlink:href="#HiraginoSans-W4-30" x="67.299988"/>
      </g>
     </g>
    </g>
    <g id="xtick_5">
     <g id="line2d_5">
      <g>
       <use xlink:href="#mb17175506c" x="329.814159" y="288.56325" style="stroke: #000000; stroke-width: 0.8"/>
      </g>
     </g>
     <g id="text_5">
      <!-- 80 -->
      <g transform="translate(323.084472 303.272625) scale(0.1 -0.1)">
       <defs>
        <path id="HiraginoSans-W4-38" d="M 1446 2586 
C 1203 2547 1056 2490 851 2355 
C 480 2106 294 1754 294 1299 
C 294 397 966 -102 2163 -102 
C 3347 -102 4006 397 4006 1299 
C 4006 1728 3853 2061 3539 2304 
C 3322 2470 3136 2547 2867 2586 
C 3437 2714 3789 3162 3789 3757 
C 3789 4550 3162 5043 2150 5043 
C 1146 5043 512 4544 512 3750 
C 512 3162 877 2701 1446 2586 
z
M 2150 4538 
C 2784 4538 3187 4211 3187 3699 
C 3187 3155 2797 2829 2157 2829 
C 1510 2829 1114 3162 1114 3699 
C 1114 4211 1523 4538 2150 4538 
z
M 2157 2304 
C 2912 2304 3373 1939 3373 1344 
C 3373 749 2925 410 2144 410 
C 1376 410 928 749 928 1338 
C 928 1939 1389 2304 2157 2304 
z
" transform="scale(0.015625)"/>
       </defs>
       <use xlink:href="#HiraginoSans-W4-38"/>
       <use xlink:href="#HiraginoSans-W4-30" x="67.299988"/>
      </g>
     </g>
    </g>
    <g id="xtick_6">
     <g id="line2d_6">
      <g>
       <use xlink:href="#mb17175506c" x="394.051307" y="288.56325" style="stroke: #000000; stroke-width: 0.8"/>
      </g>
     </g>
     <g id="text_6">
      <!-- 100 -->
      <g transform="translate(383.956776 303.272625) scale(0.1 -0.1)">
       <defs>
        <path id="HiraginoSans-W4-31" d="M 1018 4371 
C 1222 4397 1389 4410 1606 4410 
L 1939 4410 
L 1939 755 
C 1939 454 1926 237 1888 0 
L 2598 0 
C 2560 250 2547 448 2547 755 
L 2547 3904 
C 2547 4256 2566 4582 2605 4966 
C 2387 4941 2278 4934 2035 4934 
L 1581 4934 
C 1325 4934 1197 4941 1018 4966 
L 1018 4371 
z
" transform="scale(0.015625)"/>
       </defs>
       <use xlink:href="#HiraginoSans-W4-31"/>
       <use xlink:href="#HiraginoSans-W4-30" x="67.299988"/>
       <use xlink:href="#HiraginoSans-W4-30" x="134.599976"/>
      </g>
     </g>
    </g>
    <g id="text_7">
     <!-- 点数 -->
     <g transform="translate(223.458438 317.032) scale(0.1 -0.1)">
      <defs>
       <path id="HiraginoSans-W4-70b9" d="M 3341 4122 
L 5114 4122 
C 5350 4122 5542 4109 5766 4083 
L 5766 4602 
C 5587 4576 5402 4563 5114 4563 
L 3341 4563 
L 3341 4736 
C 3341 4973 3354 5165 3386 5331 
L 2790 5331 
C 2822 5152 2835 4941 2835 4704 
L 2835 3341 
L 1850 3341 
C 1555 3341 1325 3354 1126 3373 
C 1146 3206 1152 3072 1152 2874 
L 1152 1805 
C 1152 1632 1146 1498 1126 1338 
C 1318 1357 1498 1363 1773 1363 
L 4640 1363 
C 4922 1363 5088 1357 5286 1338 
C 5267 1491 5261 1606 5261 1811 
L 5261 2874 
C 5261 3085 5267 3232 5286 3373 
C 5107 3347 4915 3341 4570 3341 
L 3341 3341 
L 3341 4122 
z
M 4774 2893 
L 4774 1818 
L 1645 1818 
L 1645 2893 
L 4774 2893 
z
M 749 -474 
C 1126 -19 1331 352 1562 966 
L 1114 1146 
C 1005 806 941 659 781 403 
C 627 147 531 26 294 -205 
L 749 -474 
z
M 2803 -378 
C 2778 109 2733 435 2618 1018 
L 2176 947 
C 2278 410 2304 141 2304 -474 
L 2803 -378 
z
M 4378 -288 
C 4211 211 4070 563 3827 1069 
L 3405 941 
C 3648 397 3776 26 3885 -480 
L 4378 -288 
z
M 5984 -205 
C 5632 429 5504 640 5126 1165 
L 4704 986 
C 5069 474 5242 160 5523 -467 
L 5984 -205 
z
" transform="scale(0.015625)"/>
       <path id="HiraginoSans-W4-6570" d="M 6170 4173 
C 6003 4141 5862 4134 5568 4134 
L 4288 4134 
C 4365 4384 4435 4627 4512 4947 
C 4557 5126 4563 5152 4595 5235 
L 4077 5344 
C 4070 5158 4032 4934 3974 4672 
C 3782 3853 3437 3130 2995 2598 
C 3142 2509 3226 2438 3354 2291 
C 3526 2515 3610 2643 3770 2931 
C 3904 2176 4070 1702 4397 1158 
C 4013 653 3526 275 2803 -77 
C 2944 -218 3021 -326 3110 -506 
C 3776 -141 4256 250 4666 755 
C 5069 230 5485 -141 6035 -467 
C 6138 -237 6202 -128 6317 13 
C 5747 314 5338 653 4954 1158 
C 5171 1523 5325 1875 5440 2304 
C 5562 2739 5613 3078 5651 3699 
C 5920 3699 6035 3693 6170 3667 
L 6170 4173 
z
M 5184 3699 
C 5133 2797 4992 2214 4672 1600 
C 4358 2170 4192 2707 4064 3539 
C 4096 3610 4102 3629 4128 3699 
L 5184 3699 
z
M 3046 339 
C 2752 512 2656 570 2419 685 
C 2643 992 2746 1190 2880 1626 
L 2963 1626 
C 3187 1626 3309 1619 3443 1594 
L 3443 2067 
C 3328 2042 3206 2035 2989 2035 
L 1862 2035 
C 1926 2176 1958 2234 2029 2426 
L 1562 2528 
C 1485 2285 1453 2202 1382 2035 
L 832 2035 
C 608 2035 493 2042 365 2067 
L 365 1594 
C 499 1619 614 1626 832 1626 
L 1165 1626 
C 1005 1344 941 1248 723 954 
C 1203 774 1402 691 1702 550 
C 1376 294 902 83 326 -58 
C 429 -205 493 -314 563 -480 
C 1325 -224 1715 -19 2112 346 
C 2432 173 2502 122 2778 -77 
L 3046 339 
z
M 2419 1626 
C 2310 1306 2214 1120 2022 870 
C 1818 960 1709 1005 1357 1146 
C 1504 1370 1549 1440 1651 1626 
L 2419 1626 
z
M 2163 4070 
L 2163 4902 
C 2163 5075 2170 5203 2189 5325 
L 1696 5325 
C 1722 5184 1728 5075 1728 4896 
L 1728 4070 
L 915 4070 
C 666 4070 531 4077 390 4102 
L 390 3642 
C 518 3667 678 3674 902 3674 
L 1434 3674 
C 1133 3258 864 3034 269 2688 
C 410 2566 486 2477 589 2317 
C 1184 2739 1408 2963 1747 3494 
C 1734 3366 1728 3258 1728 3162 
L 1728 2835 
C 1728 2752 1722 2662 1702 2586 
L 2182 2586 
C 2170 2662 2163 2758 2163 2848 
L 2163 3168 
C 2163 3258 2157 3347 2138 3494 
C 2355 3162 2490 3014 2848 2739 
C 2989 2970 3002 2982 3130 3110 
C 2816 3277 2566 3469 2406 3674 
L 2989 3674 
C 3200 3674 3309 3667 3418 3648 
L 3418 4096 
C 3322 4077 3200 4070 2995 4070 
L 2163 4070 
z
M 570 5056 
C 774 4768 896 4550 1024 4211 
L 1427 4371 
C 1286 4704 1190 4883 960 5210 
L 570 5056 
z
M 2918 5235 
C 2784 4883 2643 4634 2406 4333 
L 2790 4147 
C 3008 4442 3104 4608 3328 5050 
L 2918 5235 
z
" transform="scale(0.015625)"/>
      </defs>
      <use xlink:href="#HiraginoSans-W4-70b9"/>
      <use xlink:href="#HiraginoSans-W4-6570" x="99.999985"/>
     </g>
    </g>
   </g>
   <g id="matplotlib.axis_2">
    <g id="ytick_1">
     <g id="line2d_7">
      <defs>
       <path id="m2ae44163fa" d="M 0 0 
L -3.5 0 
" style="stroke: #000000; stroke-width: 0.8"/>
      </defs>
      <g>
       <use xlink:href="#m2ae44163fa" x="54.898438" y="288.56325" style="stroke: #000000; stroke-width: 0.8"/>
      </g>
     </g>
     <g id="text_8">
      <!-- 0 -->
      <g transform="translate(41.16875 292.417937) scale(0.1 -0.1)">
       <use xlink:href="#HiraginoSans-W4-30"/>
      </g>
     </g>
    </g>
    <g id="ytick_2">
     <g id="line2d_8">
      <g>
       <use xlink:href="#m2ae44163fa" x="54.898438" y="231.380196" style="stroke: #000000; stroke-width: 0.8"/>
      </g>
     </g>
     <g id="text_9">
      <!-- 1000 -->
      <g transform="translate(20.979687 235.234884) scale(0.1 -0.1)">
       <use xlink:href="#HiraginoSans-W4-31"/>
       <use xlink:href="#HiraginoSans-W4-30" x="67.299988"/>
       <use xlink:href="#HiraginoSans-W4-30" x="134.599976"/>
       <use xlink:href="#HiraginoSans-W4-30" x="201.899963"/>
      </g>
     </g>
    </g>
    <g id="ytick_3">
     <g id="line2d_9">
      <g>
       <use xlink:href="#m2ae44163fa" x="54.898438" y="174.197143" style="stroke: #000000; stroke-width: 0.8"/>
      </g>
     </g>
     <g id="text_10">
      <!-- 2000 -->
      <g transform="translate(20.979687 178.05183) scale(0.1 -0.1)">
       <use xlink:href="#HiraginoSans-W4-32"/>
       <use xlink:href="#HiraginoSans-W4-30" x="67.299988"/>
       <use xlink:href="#HiraginoSans-W4-30" x="134.599976"/>
       <use xlink:href="#HiraginoSans-W4-30" x="201.899963"/>
      </g>
     </g>
    </g>
    <g id="ytick_4">
     <g id="line2d_10">
      <g>
       <use xlink:href="#m2ae44163fa" x="54.898438" y="117.014089" style="stroke: #000000; stroke-width: 0.8"/>
      </g>
     </g>
     <g id="text_11">
      <!-- 3000 -->
      <g transform="translate(20.979687 120.868776) scale(0.1 -0.1)">
       <defs>
        <path id="HiraginoSans-W4-33" d="M 282 1101 
C 397 768 474 621 621 448 
C 934 90 1434 -96 2112 -96 
C 2720 -96 3213 70 3533 384 
C 3770 614 3904 954 3904 1306 
C 3904 1677 3802 1958 3597 2182 
C 3379 2419 3130 2528 2688 2586 
C 2995 2650 3130 2701 3290 2816 
C 3578 3021 3738 3366 3738 3757 
C 3738 4538 3117 5043 2157 5043 
C 1594 5043 1146 4883 845 4576 
C 666 4390 582 4237 467 3891 
L 1107 3757 
C 1171 3981 1216 4083 1306 4192 
C 1478 4416 1741 4525 2125 4525 
C 2746 4525 3110 4224 3110 3725 
C 3110 3482 3021 3264 2867 3110 
C 2669 2918 2374 2829 1965 2829 
C 1779 2829 1613 2842 1459 2861 
L 1459 2272 
C 1651 2298 1811 2310 2003 2310 
C 2829 2310 3264 1990 3264 1376 
C 3264 794 2816 429 2106 429 
C 1779 429 1510 506 1293 666 
C 1107 800 1024 928 928 1248 
L 282 1101 
z
" transform="scale(0.015625)"/>
       </defs>
       <use xlink:href="#HiraginoSans-W4-33"/>
       <use xlink:href="#HiraginoSans-W4-30" x="67.299988"/>
       <use xlink:href="#HiraginoSans-W4-30" x="134.599976"/>
       <use xlink:href="#HiraginoSans-W4-30" x="201.899963"/>
      </g>
     </g>
    </g>
    <g id="ytick_5">
     <g id="line2d_11">
      <g>
       <use xlink:href="#m2ae44163fa" x="54.898438" y="59.831035" style="stroke: #000000; stroke-width: 0.8"/>
      </g>
     </g>
     <g id="text_12">
      <!-- 4000 -->
      <g transform="translate(20.959375 63.685723) scale(0.1 -0.1)">
       <use xlink:href="#HiraginoSans-W4-34"/>
       <use xlink:href="#HiraginoSans-W4-30" x="67.499985"/>
       <use xlink:href="#HiraginoSans-W4-30" x="134.799973"/>
       <use xlink:href="#HiraginoSans-W4-30" x="202.09996"/>
      </g>
     </g>
    </g>
    <g id="text_13">
     <!-- 人数 -->
     <g transform="translate(14.909375 165.50725) rotate(-90) scale(0.1 -0.1)">
      <defs>
       <path id="HiraginoSans-W4-4eba" d="M 2893 5254 
C 2912 5088 2918 4973 2918 4717 
C 2918 3277 2586 2195 1856 1267 
C 1434 723 1056 422 307 13 
C 486 -134 576 -243 691 -448 
C 1222 -115 1466 77 1824 429 
C 2240 845 2528 1235 2758 1722 
C 2989 2195 3098 2528 3213 3110 
C 3411 2285 3661 1709 4051 1152 
C 4506 512 4954 83 5728 -448 
C 5856 -224 5926 -128 6112 38 
C 5760 243 5606 346 5414 499 
C 5082 768 4736 1120 4499 1434 
C 4109 1946 3750 2682 3616 3226 
C 3533 3565 3456 4262 3456 4672 
C 3456 4858 3475 5152 3494 5254 
L 2893 5254 
z
" transform="scale(0.015625)"/>
      </defs>
      <use xlink:href="#HiraginoSans-W4-4eba"/>
      <use xlink:href="#HiraginoSans-W4-6570" x="99.999985"/>
     </g>
    </g>
   </g>
   <g id="line2d_12">
    <path d="M 72.865568 288.014537 
L 76.077425 287.877947 
L 79.289283 287.710859 
L 82.50114 287.507372 
L 85.712997 287.260661 
L 88.924855 286.962881 
L 92.136712 286.605075 
L 95.34857 286.177078 
L 98.560427 285.667435 
L 101.772284 285.063324 
L 104.984142 284.350501 
L 108.195999 283.513251 
L 111.407857 282.534382 
L 114.619714 281.395232 
L 117.831571 280.075721 
L 121.043429 278.554443 
L 124.255286 276.808804 
L 127.467143 274.815207 
L 130.679001 272.549301 
L 133.890858 269.986282 
L 137.102716 267.101256 
L 140.314573 263.869665 
L 143.52643 260.267769 
L 146.738288 256.27319 
L 149.950145 251.865497 
L 153.162003 247.026843 
L 156.37386 241.742622 
L 159.585717 236.002158 
L 162.797575 229.799382 
L 166.009432 223.133508 
L 169.22129 216.009663 
L 172.433147 208.439473 
L 175.645004 200.441567 
L 178.856862 192.041987 
L 182.068719 183.274481 
L 185.280577 174.180654 
L 188.492434 164.809977 
L 191.704291 155.219618 
L 194.916149 145.474097 
L 198.128006 135.644765 
L 201.339864 125.809087 
L 204.551721 116.049757 
L 207.763578 106.453635 
L 210.975436 97.110536 
L 214.187293 88.111884 
L 217.399151 79.549258 
L 220.611008 71.512874 
L 223.822865 64.090014 
L 227.034723 57.363458 
L 230.24658 51.409961 
L 233.458438 46.298788 
L 236.670295 42.090385 
L 239.882152 38.835181 
L 243.09401 36.572587 
L 246.305867 35.330202 
L 249.517724 35.12325 
L 252.729582 35.954272 
L 255.941439 37.813074 
L 259.153297 40.676932 
L 262.365154 44.51106 
L 265.577011 49.269307 
L 268.788869 54.895085 
L 272.000726 61.32249 
L 275.212584 68.477582 
L 278.424441 76.279801 
L 281.636298 84.643471 
L 284.848156 93.479358 
L 288.060013 102.696239 
L 291.271871 112.202448 
L 294.483728 121.907364 
L 297.695585 131.722795 
L 300.907443 141.564253 
L 304.1193 151.352071 
L 307.331158 161.012368 
L 310.543015 170.477831 
L 313.754872 179.688309 
L 316.96673 188.591238 
L 320.178587 197.141869 
L 323.390445 205.303335 
L 326.602302 213.046552 
L 329.814159 220.34998 
L 333.026017 227.19926 
L 336.237874 233.586742 
L 339.449732 239.510929 
L 342.661589 244.975866 
L 345.873446 249.990473 
L 349.085304 254.567874 
L 352.297161 258.724706 
L 355.509018 262.480448 
L 358.720876 265.856775 
L 361.932733 268.876953 
L 365.144591 271.565275 
L 368.356448 273.946555 
L 371.568305 276.04568 
L 374.780163 277.887221 
L 377.99202 279.495109 
L 381.203878 280.892362 
L 384.415735 282.100879 
L 387.627592 283.141282 
L 390.83945 284.032805 
L 394.051307 284.793231 
" clip-path="url(#pb9b688cf6b)" style="fill: none; stroke: #ff7f0e; stroke-width: 2; stroke-linecap: square"/>
   </g>
   <g id="patch_105">
    <path d="M 54.898438 288.56325 
L 54.898438 22.45125 
" style="fill: none; stroke: #000000; stroke-width: 0.8; stroke-linejoin: miter; stroke-linecap: square"/>
   </g>
   <g id="patch_106">
    <path d="M 412.018438 288.56325 
L 412.018438 22.45125 
" style="fill: none; stroke: #000000; stroke-width: 0.8; stroke-linejoin: miter; stroke-linecap: square"/>
   </g>
   <g id="patch_107">
    <path d="M 54.898438 288.56325 
L 412.018438 288.56325 
" style="fill: none; stroke: #000000; stroke-width: 0.8; stroke-linejoin: miter; stroke-linecap: square"/>
   </g>
   <g id="patch_108">
    <path d="M 54.898438 22.45125 
L 412.018438 22.45125 
" style="fill: none; stroke: #000000; stroke-width: 0.8; stroke-linejoin: miter; stroke-linecap: square"/>
   </g>
   <g id="text_14">
    <!-- 公民 -->
    <g transform="translate(221.458438 16.45125) scale(0.12 -0.12)">
     <defs>
      <path id="HiraginoSans-W4-516c" d="M 5734 -173 
C 5299 614 4800 1363 4160 2163 
L 3731 1914 
C 4166 1376 4371 1094 4646 646 
C 3674 506 3219 467 1971 403 
C 2355 1062 2854 2112 3206 3008 
C 3270 3174 3277 3194 3328 3296 
L 2739 3462 
C 2598 2784 1984 1382 1389 378 
C 1216 371 1139 371 1018 371 
C 864 371 723 378 550 384 
L 659 -205 
C 864 -166 896 -166 1395 -134 
C 2624 -70 3834 58 4896 224 
C 5069 -77 5114 -166 5261 -467 
L 5734 -173 
z
M 2189 5126 
C 2150 4915 2042 4653 1843 4320 
C 1440 3642 922 3110 192 2611 
C 339 2477 435 2355 550 2170 
C 973 2490 1210 2707 1510 3034 
C 1920 3475 2323 4064 2586 4589 
C 2662 4755 2714 4845 2758 4915 
L 2189 5126 
z
M 3616 4915 
C 3648 4870 3686 4794 3763 4640 
C 4038 4096 4339 3635 4710 3213 
C 5030 2848 5331 2573 5875 2150 
C 5984 2355 6067 2464 6227 2637 
C 5600 3053 5216 3398 4845 3872 
C 4506 4301 4224 4794 4122 5133 
L 3616 4915 
z
" transform="scale(0.015625)"/>
      <path id="HiraginoSans-W4-6c11" d="M 4774 3206 
C 5043 3206 5235 3200 5434 3187 
C 5414 3309 5414 3456 5414 3693 
L 5414 4448 
C 5414 4749 5414 4838 5434 4992 
C 5235 4966 5043 4960 4755 4960 
L 1850 4960 
C 1491 4960 1312 4966 1088 4992 
C 1114 4723 1120 4582 1120 4250 
L 1120 186 
C 749 122 576 102 397 96 
L 518 -448 
C 602 -422 749 -390 928 -352 
C 1971 -141 2528 6 3494 314 
L 3488 794 
C 2746 557 2304 435 1619 288 
L 1619 1894 
L 3418 1914 
C 3584 1389 3795 960 4096 544 
C 4525 -32 5043 -416 5414 -416 
C 5594 -416 5722 -339 5824 -173 
C 5952 38 6010 230 6099 768 
C 5907 851 5837 890 5651 1050 
C 5581 422 5491 141 5363 141 
C 5229 141 4928 346 4698 602 
C 4346 979 4083 1434 3923 1920 
L 5229 1933 
C 5683 1933 5696 1933 5939 1907 
L 5939 2432 
C 5773 2400 5600 2387 5222 2387 
L 3802 2368 
C 3731 2669 3699 2886 3674 3206 
L 4774 3206 
z
M 3181 3206 
C 3213 2880 3238 2726 3309 2368 
L 1619 2349 
L 1619 3206 
L 3181 3206 
z
M 1619 4518 
L 4928 4518 
L 4928 3635 
L 1619 3635 
L 1619 4518 
z
" transform="scale(0.015625)"/>
     </defs>
     <use xlink:href="#HiraginoSans-W4-516c"/>
     <use xlink:href="#HiraginoSans-W4-6c11" x="99.999985"/>
    </g>
   </g>
  </g>
 </g>
 <defs>
  <clipPath id="pb9b688cf6b">
   <rect x="54.898438" y="22.45125" width="357.12" height="266.112"/>
  </clipPath>
 </defs>
</svg>
