<?xml version="1.0" encoding="utf-8" standalone="no"?>
<!DOCTYPE svg PUBLIC "-//W3C//DTD SVG 1.1//EN"
  "http://www.w3.org/Graphics/SVG/1.1/DTD/svg11.dtd">
<svg xmlns:xlink="http://www.w3.org/1999/xlink" width="419.218437pt" height="326.282pt" viewBox="0 0 419.218437 326.282" xmlns="http://www.w3.org/2000/svg" version="1.1">
 <metadata>
  <rdf:RDF xmlns:dc="http://purl.org/dc/elements/1.1/" xmlns:cc="http://creativecommons.org/ns#" xmlns:rdf="http://www.w3.org/1999/02/22-rdf-syntax-ns#">
   <cc:Work>
    <dc:type rdf:resource="http://purl.org/dc/dcmitype/StillImage"/>
    <dc:date>2024-07-06T09:32:52.486696</dc:date>
    <dc:format>image/svg+xml</dc:format>
    <dc:creator>
     <cc:Agent>
      <dc:title>Matplotlib v3.9.1, https://matplotlib.org/</dc:title>
     </cc:Agent>
    </dc:creator>
   </cc:Work>
  </rdf:RDF>
 </metadata>
 <defs>
  <style type="text/css">*{stroke-linejoin: round; stroke-linecap: butt}</style>
 </defs>
 <g id="figure_1">
  <g id="patch_1">
   <path d="M 0 326.282 
L 419.218437 326.282 
L 419.218437 0 
L 0 0 
z
" style="fill: #ffffff"/>
  </g>
  <g id="axes_1">
   <g id="patch_2">
    <path d="M 54.898438 288.56325 
L 412.018438 288.56325 
L 412.018438 22.45125 
L 54.898438 22.45125 
z
" style="fill: #ffffff"/>
   </g>
   <g id="patch_3">
    <path d="M 71.131165 288.56325 
L 72.874883 288.56325 
L 72.874883 287.526937 
L 71.131165 287.526937 
z
" clip-path="url(#p75e9b8b749)" style="fill: #aec7e8"/>
   </g>
   <g id="patch_4">
    <path d="M 72.745719 288.56325 
L 74.489437 288.56325 
L 74.489437 288.56325 
L 72.745719 288.56325 
z
" clip-path="url(#p75e9b8b749)" style="fill: #aec7e8"/>
   </g>
   <g id="patch_5">
    <path d="M 74.360273 288.56325 
L 76.103992 288.56325 
L 76.103992 288.304172 
L 74.360273 288.304172 
z
" clip-path="url(#p75e9b8b749)" style="fill: #aec7e8"/>
   </g>
   <g id="patch_6">
    <path d="M 75.974827 288.56325 
L 77.718546 288.56325 
L 77.718546 288.56325 
L 75.974827 288.56325 
z
" clip-path="url(#p75e9b8b749)" style="fill: #aec7e8"/>
   </g>
   <g id="patch_7">
    <path d="M 77.589381 288.56325 
L 79.3331 288.56325 
L 79.3331 288.407803 
L 77.589381 288.407803 
z
" clip-path="url(#p75e9b8b749)" style="fill: #aec7e8"/>
   </g>
   <g id="patch_8">
    <path d="M 79.203935 288.56325 
L 80.947654 288.56325 
L 80.947654 288.459619 
L 79.203935 288.459619 
z
" clip-path="url(#p75e9b8b749)" style="fill: #aec7e8"/>
   </g>
   <g id="patch_9">
    <path d="M 80.81849 288.56325 
L 82.562208 288.56325 
L 82.562208 288.252356 
L 80.81849 288.252356 
z
" clip-path="url(#p75e9b8b749)" style="fill: #aec7e8"/>
   </g>
   <g id="patch_10">
    <path d="M 82.433044 288.56325 
L 84.176762 288.56325 
L 84.176762 288.459619 
L 82.433044 288.459619 
z
" clip-path="url(#p75e9b8b749)" style="fill: #aec7e8"/>
   </g>
   <g id="patch_11">
    <path d="M 84.047598 288.56325 
L 85.791316 288.56325 
L 85.791316 287.993278 
L 84.047598 287.993278 
z
" clip-path="url(#p75e9b8b749)" style="fill: #aec7e8"/>
   </g>
   <g id="patch_12">
    <path d="M 85.662152 288.56325 
L 87.40587 288.56325 
L 87.40587 288.096909 
L 85.662152 288.096909 
z
" clip-path="url(#p75e9b8b749)" style="fill: #aec7e8"/>
   </g>
   <g id="patch_13">
    <path d="M 87.276706 288.56325 
L 89.020425 288.56325 
L 89.020425 287.682384 
L 87.276706 287.682384 
z
" clip-path="url(#p75e9b8b749)" style="fill: #aec7e8"/>
   </g>
   <g id="patch_14">
    <path d="M 88.89126 288.56325 
L 90.634979 288.56325 
L 90.634979 288.20054 
L 88.89126 288.20054 
z
" clip-path="url(#p75e9b8b749)" style="fill: #aec7e8"/>
   </g>
   <g id="patch_15">
    <path d="M 90.505814 288.56325 
L 92.249533 288.56325 
L 92.249533 287.993278 
L 90.505814 287.993278 
z
" clip-path="url(#p75e9b8b749)" style="fill: #aec7e8"/>
   </g>
   <g id="patch_16">
    <path d="M 92.120369 288.56325 
L 93.864087 288.56325 
L 93.864087 287.526937 
L 92.120369 287.526937 
z
" clip-path="url(#p75e9b8b749)" style="fill: #aec7e8"/>
   </g>
   <g id="patch_17">
    <path d="M 93.734923 288.56325 
L 95.478641 288.56325 
L 95.478641 287.630568 
L 93.734923 287.630568 
z
" clip-path="url(#p75e9b8b749)" style="fill: #aec7e8"/>
   </g>
   <g id="patch_18">
    <path d="M 95.349477 288.56325 
L 97.093195 288.56325 
L 97.093195 287.008781 
L 95.349477 287.008781 
z
" clip-path="url(#p75e9b8b749)" style="fill: #aec7e8"/>
   </g>
   <g id="patch_19">
    <path d="M 96.964031 288.56325 
L 98.707749 288.56325 
L 98.707749 286.646071 
L 96.964031 286.646071 
z
" clip-path="url(#p75e9b8b749)" style="fill: #aec7e8"/>
   </g>
   <g id="patch_20">
    <path d="M 98.578585 288.56325 
L 100.322304 288.56325 
L 100.322304 286.905149 
L 98.578585 286.905149 
z
" clip-path="url(#p75e9b8b749)" style="fill: #aec7e8"/>
   </g>
   <g id="patch_21">
    <path d="M 100.193139 288.56325 
L 101.936858 288.56325 
L 101.936858 286.490624 
L 100.193139 286.490624 
z
" clip-path="url(#p75e9b8b749)" style="fill: #aec7e8"/>
   </g>
   <g id="patch_22">
    <path d="M 101.807693 288.56325 
L 103.551412 288.56325 
L 103.551412 286.335177 
L 101.807693 286.335177 
z
" clip-path="url(#p75e9b8b749)" style="fill: #aec7e8"/>
   </g>
   <g id="patch_23">
    <path d="M 103.422247 288.56325 
L 105.165966 288.56325 
L 105.165966 285.920652 
L 103.422247 285.920652 
z
" clip-path="url(#p75e9b8b749)" style="fill: #aec7e8"/>
   </g>
   <g id="patch_24">
    <path d="M 105.036802 288.56325 
L 106.78052 288.56325 
L 106.78052 285.039786 
L 105.036802 285.039786 
z
" clip-path="url(#p75e9b8b749)" style="fill: #aec7e8"/>
   </g>
   <g id="patch_25">
    <path d="M 106.651356 288.56325 
L 108.395074 288.56325 
L 108.395074 284.107105 
L 106.651356 284.107105 
z
" clip-path="url(#p75e9b8b749)" style="fill: #aec7e8"/>
   </g>
   <g id="patch_26">
    <path d="M 108.26591 288.56325 
L 110.009628 288.56325 
L 110.009628 284.52163 
L 108.26591 284.52163 
z
" clip-path="url(#p75e9b8b749)" style="fill: #aec7e8"/>
   </g>
   <g id="patch_27">
    <path d="M 109.880464 288.56325 
L 111.624182 288.56325 
L 111.624182 282.915345 
L 109.880464 282.915345 
z
" clip-path="url(#p75e9b8b749)" style="fill: #aec7e8"/>
   </g>
   <g id="patch_28">
    <path d="M 111.495018 288.56325 
L 113.238737 288.56325 
L 113.238737 281.723585 
L 111.495018 281.723585 
z
" clip-path="url(#p75e9b8b749)" style="fill: #aec7e8"/>
   </g>
   <g id="patch_29">
    <path d="M 113.109572 288.56325 
L 114.853291 288.56325 
L 114.853291 280.531825 
L 113.109572 280.531825 
z
" clip-path="url(#p75e9b8b749)" style="fill: #aec7e8"/>
   </g>
   <g id="patch_30">
    <path d="M 114.724126 288.56325 
L 116.467845 288.56325 
L 116.467845 279.495512 
L 114.724126 279.495512 
z
" clip-path="url(#p75e9b8b749)" style="fill: #aec7e8"/>
   </g>
   <g id="patch_31">
    <path d="M 116.338681 288.56325 
L 118.082399 288.56325 
L 118.082399 279.754591 
L 116.338681 279.754591 
z
" clip-path="url(#p75e9b8b749)" style="fill: #aec7e8"/>
   </g>
   <g id="patch_32">
    <path d="M 117.953235 288.56325 
L 119.696953 288.56325 
L 119.696953 277.785596 
L 117.953235 277.785596 
z
" clip-path="url(#p75e9b8b749)" style="fill: #aec7e8"/>
   </g>
   <g id="patch_33">
    <path d="M 119.567789 288.56325 
L 121.311507 288.56325 
L 121.311507 278.251937 
L 119.567789 278.251937 
z
" clip-path="url(#p75e9b8b749)" style="fill: #aec7e8"/>
   </g>
   <g id="patch_34">
    <path d="M 121.182343 288.56325 
L 122.926061 288.56325 
L 122.926061 274.52121 
L 121.182343 274.52121 
z
" clip-path="url(#p75e9b8b749)" style="fill: #aec7e8"/>
   </g>
   <g id="patch_35">
    <path d="M 122.796897 288.56325 
L 124.540616 288.56325 
L 124.540616 275.298445 
L 122.796897 275.298445 
z
" clip-path="url(#p75e9b8b749)" style="fill: #aec7e8"/>
   </g>
   <g id="patch_36">
    <path d="M 124.411451 288.56325 
L 126.15517 288.56325 
L 126.15517 273.69216 
L 124.411451 273.69216 
z
" clip-path="url(#p75e9b8b749)" style="fill: #aec7e8"/>
   </g>
   <g id="patch_37">
    <path d="M 126.026005 288.56325 
L 127.769724 288.56325 
L 127.769724 273.018557 
L 126.026005 273.018557 
z
" clip-path="url(#p75e9b8b749)" style="fill: #aec7e8"/>
   </g>
   <g id="patch_38">
    <path d="M 127.640559 288.56325 
L 129.384278 288.56325 
L 129.384278 268.717858 
L 127.640559 268.717858 
z
" clip-path="url(#p75e9b8b749)" style="fill: #aec7e8"/>
   </g>
   <g id="patch_39">
    <path d="M 129.255114 288.56325 
L 130.998832 288.56325 
L 130.998832 267.422467 
L 129.255114 267.422467 
z
" clip-path="url(#p75e9b8b749)" style="fill: #aec7e8"/>
   </g>
   <g id="patch_40">
    <path d="M 130.869668 288.56325 
L 132.613386 288.56325 
L 132.613386 265.453473 
L 130.869668 265.453473 
z
" clip-path="url(#p75e9b8b749)" style="fill: #aec7e8"/>
   </g>
   <g id="patch_41">
    <path d="M 132.484222 288.56325 
L 134.22794 288.56325 
L 134.22794 264.209897 
L 132.484222 264.209897 
z
" clip-path="url(#p75e9b8b749)" style="fill: #aec7e8"/>
   </g>
   <g id="patch_42">
    <path d="M 134.098776 288.56325 
L 135.842495 288.56325 
L 135.842495 261.256406 
L 134.098776 261.256406 
z
" clip-path="url(#p75e9b8b749)" style="fill: #aec7e8"/>
   </g>
   <g id="patch_43">
    <path d="M 135.71333 288.56325 
L 137.457049 288.56325 
L 137.457049 260.893696 
L 135.71333 260.893696 
z
" clip-path="url(#p75e9b8b749)" style="fill: #aec7e8"/>
   </g>
   <g id="patch_44">
    <path d="M 137.327884 288.56325 
L 139.071603 288.56325 
L 139.071603 257.318417 
L 137.327884 257.318417 
z
" clip-path="url(#p75e9b8b749)" style="fill: #aec7e8"/>
   </g>
   <g id="patch_45">
    <path d="M 138.942438 288.56325 
L 140.686157 288.56325 
L 140.686157 254.624003 
L 138.942438 254.624003 
z
" clip-path="url(#p75e9b8b749)" style="fill: #aec7e8"/>
   </g>
   <g id="patch_46">
    <path d="M 140.556993 288.56325 
L 142.300711 288.56325 
L 142.300711 252.188668 
L 140.556993 252.188668 
z
" clip-path="url(#p75e9b8b749)" style="fill: #aec7e8"/>
   </g>
   <g id="patch_47">
    <path d="M 142.171547 288.56325 
L 143.915265 288.56325 
L 143.915265 252.085037 
L 142.171547 252.085037 
z
" clip-path="url(#p75e9b8b749)" style="fill: #aec7e8"/>
   </g>
   <g id="patch_48">
    <path d="M 143.786101 288.56325 
L 145.529819 288.56325 
L 145.529819 246.488947 
L 143.786101 246.488947 
z
" clip-path="url(#p75e9b8b749)" style="fill: #aec7e8"/>
   </g>
   <g id="patch_49">
    <path d="M 145.400655 288.56325 
L 147.144373 288.56325 
L 147.144373 241.618277 
L 145.400655 241.618277 
z
" clip-path="url(#p75e9b8b749)" style="fill: #aec7e8"/>
   </g>
   <g id="patch_50">
    <path d="M 147.015209 288.56325 
L 148.758928 288.56325 
L 148.758928 239.649282 
L 147.015209 239.649282 
z
" clip-path="url(#p75e9b8b749)" style="fill: #aec7e8"/>
   </g>
   <g id="patch_51">
    <path d="M 148.629763 288.56325 
L 150.373482 288.56325 
L 150.373482 236.436712 
L 148.629763 236.436712 
z
" clip-path="url(#p75e9b8b749)" style="fill: #aec7e8"/>
   </g>
   <g id="patch_52">
    <path d="M 150.244317 288.56325 
L 151.988036 288.56325 
L 151.988036 237.162131 
L 150.244317 237.162131 
z
" clip-path="url(#p75e9b8b749)" style="fill: #aec7e8"/>
   </g>
   <g id="patch_53">
    <path d="M 151.858872 288.56325 
L 153.60259 288.56325 
L 153.60259 233.327774 
L 151.858872 233.327774 
z
" clip-path="url(#p75e9b8b749)" style="fill: #aec7e8"/>
   </g>
   <g id="patch_54">
    <path d="M 153.473426 288.56325 
L 155.217144 288.56325 
L 155.217144 227.524421 
L 153.473426 227.524421 
z
" clip-path="url(#p75e9b8b749)" style="fill: #aec7e8"/>
   </g>
   <g id="patch_55">
    <path d="M 155.08798 288.56325 
L 156.831698 288.56325 
L 156.831698 225.969952 
L 155.08798 225.969952 
z
" clip-path="url(#p75e9b8b749)" style="fill: #aec7e8"/>
   </g>
   <g id="patch_56">
    <path d="M 156.702534 288.56325 
L 158.446252 288.56325 
L 158.446252 220.943835 
L 156.702534 220.943835 
z
" clip-path="url(#p75e9b8b749)" style="fill: #aec7e8"/>
   </g>
   <g id="patch_57">
    <path d="M 158.317088 288.56325 
L 160.060807 288.56325 
L 160.060807 217.420371 
L 158.317088 217.420371 
z
" clip-path="url(#p75e9b8b749)" style="fill: #aec7e8"/>
   </g>
   <g id="patch_58">
    <path d="M 159.931642 288.56325 
L 161.675361 288.56325 
L 161.675361 215.555008 
L 159.931642 215.555008 
z
" clip-path="url(#p75e9b8b749)" style="fill: #aec7e8"/>
   </g>
   <g id="patch_59">
    <path d="M 161.546196 288.56325 
L 163.289915 288.56325 
L 163.289915 208.818974 
L 161.546196 208.818974 
z
" clip-path="url(#p75e9b8b749)" style="fill: #aec7e8"/>
   </g>
   <g id="patch_60">
    <path d="M 163.16075 288.56325 
L 164.904469 288.56325 
L 164.904469 209.233499 
L 163.16075 209.233499 
z
" clip-path="url(#p75e9b8b749)" style="fill: #aec7e8"/>
   </g>
   <g id="patch_61">
    <path d="M 164.775305 288.56325 
L 166.519023 288.56325 
L 166.519023 207.057242 
L 164.775305 207.057242 
z
" clip-path="url(#p75e9b8b749)" style="fill: #aec7e8"/>
   </g>
   <g id="patch_62">
    <path d="M 166.389859 288.56325 
L 168.133577 288.56325 
L 168.133577 201.564784 
L 166.389859 201.564784 
z
" clip-path="url(#p75e9b8b749)" style="fill: #aec7e8"/>
   </g>
   <g id="patch_63">
    <path d="M 168.004413 288.56325 
L 169.748131 288.56325 
L 169.748131 199.543974 
L 168.004413 199.543974 
z
" clip-path="url(#p75e9b8b749)" style="fill: #aec7e8"/>
   </g>
   <g id="patch_64">
    <path d="M 169.618967 288.56325 
L 171.362685 288.56325 
L 171.362685 196.072326 
L 169.618967 196.072326 
z
" clip-path="url(#p75e9b8b749)" style="fill: #aec7e8"/>
   </g>
   <g id="patch_65">
    <path d="M 171.233521 288.56325 
L 172.97724 288.56325 
L 172.97724 193.947884 
L 171.233521 193.947884 
z
" clip-path="url(#p75e9b8b749)" style="fill: #aec7e8"/>
   </g>
   <g id="patch_66">
    <path d="M 172.848075 288.56325 
L 174.591794 288.56325 
L 174.591794 188.455426 
L 172.848075 188.455426 
z
" clip-path="url(#p75e9b8b749)" style="fill: #aec7e8"/>
   </g>
   <g id="patch_67">
    <path d="M 174.462629 288.56325 
L 176.206348 288.56325 
L 176.206348 185.605566 
L 174.462629 185.605566 
z
" clip-path="url(#p75e9b8b749)" style="fill: #aec7e8"/>
   </g>
   <g id="patch_68">
    <path d="M 176.077184 288.56325 
L 177.820902 288.56325 
L 177.820902 176.589643 
L 176.077184 176.589643 
z
" clip-path="url(#p75e9b8b749)" style="fill: #aec7e8"/>
   </g>
   <g id="patch_69">
    <path d="M 177.691738 288.56325 
L 179.435456 288.56325 
L 179.435456 176.330565 
L 177.691738 176.330565 
z
" clip-path="url(#p75e9b8b749)" style="fill: #aec7e8"/>
   </g>
   <g id="patch_70">
    <path d="M 179.306292 288.56325 
L 181.05001 288.56325 
L 181.05001 168.66185 
L 179.306292 168.66185 
z
" clip-path="url(#p75e9b8b749)" style="fill: #aec7e8"/>
   </g>
   <g id="patch_71">
    <path d="M 180.920846 288.56325 
L 182.664564 288.56325 
L 182.664564 169.801794 
L 180.920846 169.801794 
z
" clip-path="url(#p75e9b8b749)" style="fill: #aec7e8"/>
   </g>
   <g id="patch_72">
    <path d="M 182.5354 288.56325 
L 184.279119 288.56325 
L 184.279119 164.568414 
L 182.5354 164.568414 
z
" clip-path="url(#p75e9b8b749)" style="fill: #aec7e8"/>
   </g>
   <g id="patch_73">
    <path d="M 184.149954 288.56325 
L 185.893673 288.56325 
L 185.893673 162.029448 
L 184.149954 162.029448 
z
" clip-path="url(#p75e9b8b749)" style="fill: #aec7e8"/>
   </g>
   <g id="patch_74">
    <path d="M 185.764508 288.56325 
L 187.508227 288.56325 
L 187.508227 154.516179 
L 185.764508 154.516179 
z
" clip-path="url(#p75e9b8b749)" style="fill: #aec7e8"/>
   </g>
   <g id="patch_75">
    <path d="M 187.379062 288.56325 
L 189.122781 288.56325 
L 189.122781 160.2159 
L 187.379062 160.2159 
z
" clip-path="url(#p75e9b8b749)" style="fill: #aec7e8"/>
   </g>
   <g id="patch_76">
    <path d="M 188.993617 288.56325 
L 190.737335 288.56325 
L 190.737335 155.397045 
L 188.993617 155.397045 
z
" clip-path="url(#p75e9b8b749)" style="fill: #aec7e8"/>
   </g>
   <g id="patch_77">
    <path d="M 190.608171 288.56325 
L 192.351889 288.56325 
L 192.351889 156.485174 
L 190.608171 156.485174 
z
" clip-path="url(#p75e9b8b749)" style="fill: #aec7e8"/>
   </g>
   <g id="patch_78">
    <path d="M 192.222725 288.56325 
L 193.966443 288.56325 
L 193.966443 147.417436 
L 192.222725 147.417436 
z
" clip-path="url(#p75e9b8b749)" style="fill: #aec7e8"/>
   </g>
   <g id="patch_79">
    <path d="M 193.837279 288.56325 
L 195.580997 288.56325 
L 195.580997 144.982101 
L 193.837279 144.982101 
z
" clip-path="url(#p75e9b8b749)" style="fill: #aec7e8"/>
   </g>
   <g id="patch_80">
    <path d="M 195.451833 288.56325 
L 197.195552 288.56325 
L 197.195552 149.645509 
L 195.451833 149.645509 
z
" clip-path="url(#p75e9b8b749)" style="fill: #aec7e8"/>
   </g>
   <g id="patch_81">
    <path d="M 197.066387 288.56325 
L 198.810106 288.56325 
L 198.810106 139.386011 
L 197.066387 139.386011 
z
" clip-path="url(#p75e9b8b749)" style="fill: #aec7e8"/>
   </g>
   <g id="patch_82">
    <path d="M 198.680941 288.56325 
L 200.42466 288.56325 
L 200.42466 131.976374 
L 198.680941 131.976374 
z
" clip-path="url(#p75e9b8b749)" style="fill: #aec7e8"/>
   </g>
   <g id="patch_83">
    <path d="M 200.295496 288.56325 
L 202.039214 288.56325 
L 202.039214 133.012687 
L 200.295496 133.012687 
z
" clip-path="url(#p75e9b8b749)" style="fill: #aec7e8"/>
   </g>
   <g id="patch_84">
    <path d="M 201.91005 288.56325 
L 203.653768 288.56325 
L 203.653768 129.748301 
L 201.91005 129.748301 
z
" clip-path="url(#p75e9b8b749)" style="fill: #aec7e8"/>
   </g>
   <g id="patch_85">
    <path d="M 203.524604 288.56325 
L 205.268322 288.56325 
L 205.268322 139.230564 
L 203.524604 139.230564 
z
" clip-path="url(#p75e9b8b749)" style="fill: #aec7e8"/>
   </g>
   <g id="patch_86">
    <path d="M 205.139158 288.56325 
L 206.882876 288.56325 
L 206.882876 127.312966 
L 205.139158 127.312966 
z
" clip-path="url(#p75e9b8b749)" style="fill: #aec7e8"/>
   </g>
   <g id="patch_87">
    <path d="M 206.753712 288.56325 
L 208.497431 288.56325 
L 208.497431 129.178329 
L 206.753712 129.178329 
z
" clip-path="url(#p75e9b8b749)" style="fill: #aec7e8"/>
   </g>
   <g id="patch_88">
    <path d="M 208.368266 288.56325 
L 210.111985 288.56325 
L 210.111985 129.281961 
L 208.368266 129.281961 
z
" clip-path="url(#p75e9b8b749)" style="fill: #aec7e8"/>
   </g>
   <g id="patch_89">
    <path d="M 209.98282 288.56325 
L 211.726539 288.56325 
L 211.726539 127.572044 
L 209.98282 127.572044 
z
" clip-path="url(#p75e9b8b749)" style="fill: #aec7e8"/>
   </g>
   <g id="patch_90">
    <path d="M 211.597375 288.56325 
L 213.341093 288.56325 
L 213.341093 126.846625 
L 211.597375 126.846625 
z
" clip-path="url(#p75e9b8b749)" style="fill: #aec7e8"/>
   </g>
   <g id="patch_91">
    <path d="M 213.211929 288.56325 
L 214.955647 288.56325 
L 214.955647 113.789083 
L 213.211929 113.789083 
z
" clip-path="url(#p75e9b8b749)" style="fill: #aec7e8"/>
   </g>
   <g id="patch_92">
    <path d="M 214.826483 288.56325 
L 216.570201 288.56325 
L 216.570201 130.940061 
L 214.826483 130.940061 
z
" clip-path="url(#p75e9b8b749)" style="fill: #aec7e8"/>
   </g>
   <g id="patch_93">
    <path d="M 216.441037 288.56325 
L 218.184755 288.56325 
L 218.184755 106.068552 
L 216.441037 106.068552 
z
" clip-path="url(#p75e9b8b749)" style="fill: #aec7e8"/>
   </g>
   <g id="patch_94">
    <path d="M 218.055591 288.56325 
L 219.79931 288.56325 
L 219.79931 115.13629 
L 218.055591 115.13629 
z
" clip-path="url(#p75e9b8b749)" style="fill: #aec7e8"/>
   </g>
   <g id="patch_95">
    <path d="M 219.670145 288.56325 
L 221.413864 288.56325 
L 221.413864 116.120787 
L 219.670145 116.120787 
z
" clip-path="url(#p75e9b8b749)" style="fill: #aec7e8"/>
   </g>
   <g id="patch_96">
    <path d="M 221.284699 288.56325 
L 223.028418 288.56325 
L 223.028418 108.814781 
L 221.284699 108.814781 
z
" clip-path="url(#p75e9b8b749)" style="fill: #aec7e8"/>
   </g>
   <g id="patch_97">
    <path d="M 222.899253 288.56325 
L 224.642972 288.56325 
L 224.642972 109.229306 
L 222.899253 109.229306 
z
" clip-path="url(#p75e9b8b749)" style="fill: #aec7e8"/>
   </g>
   <g id="patch_98">
    <path d="M 224.513808 288.56325 
L 226.257526 288.56325 
L 226.257526 105.49858 
L 224.513808 105.49858 
z
" clip-path="url(#p75e9b8b749)" style="fill: #aec7e8"/>
   </g>
   <g id="patch_99">
    <path d="M 226.128362 288.56325 
L 227.87208 288.56325 
L 227.87208 108.970228 
L 226.128362 108.970228 
z
" clip-path="url(#p75e9b8b749)" style="fill: #aec7e8"/>
   </g>
   <g id="patch_100">
    <path d="M 227.742916 288.56325 
L 229.486634 288.56325 
L 229.486634 103.425954 
L 227.742916 103.425954 
z
" clip-path="url(#p75e9b8b749)" style="fill: #aec7e8"/>
   </g>
   <g id="patch_101">
    <path d="M 229.35747 288.56325 
L 231.101188 288.56325 
L 231.101188 101.249697 
L 229.35747 101.249697 
z
" clip-path="url(#p75e9b8b749)" style="fill: #aec7e8"/>
   </g>
   <g id="patch_102">
    <path d="M 230.972024 288.56325 
L 232.715743 288.56325 
L 232.715743 105.602211 
L 230.972024 105.602211 
z
" clip-path="url(#p75e9b8b749)" style="fill: #aec7e8"/>
   </g>
   <g id="patch_103">
    <path d="M 232.586578 288.56325 
L 234.330297 288.56325 
L 234.330297 96.689921 
L 232.586578 96.689921 
z
" clip-path="url(#p75e9b8b749)" style="fill: #aec7e8"/>
   </g>
   <g id="patch_104">
    <path d="M 234.201132 288.56325 
L 235.944851 288.56325 
L 235.944851 97.000814 
L 234.201132 97.000814 
z
" clip-path="url(#p75e9b8b749)" style="fill: #aec7e8"/>
   </g>
   <g id="patch_105">
    <path d="M 235.815687 288.56325 
L 237.559405 288.56325 
L 237.559405 89.43573 
L 235.815687 89.43573 
z
" clip-path="url(#p75e9b8b749)" style="fill: #aec7e8"/>
   </g>
   <g id="patch_106">
    <path d="M 237.430241 288.56325 
L 239.173959 288.56325 
L 239.173959 91.715619 
L 237.430241 91.715619 
z
" clip-path="url(#p75e9b8b749)" style="fill: #aec7e8"/>
   </g>
   <g id="patch_107">
    <path d="M 239.044795 288.56325 
L 240.788513 288.56325 
L 240.788513 89.79844 
L 239.044795 89.79844 
z
" clip-path="url(#p75e9b8b749)" style="fill: #aec7e8"/>
   </g>
   <g id="patch_108">
    <path d="M 240.659349 288.56325 
L 242.403067 288.56325 
L 242.403067 86.534054 
L 240.659349 86.534054 
z
" clip-path="url(#p75e9b8b749)" style="fill: #aec7e8"/>
   </g>
   <g id="patch_109">
    <path d="M 242.273903 288.56325 
L 244.017622 288.56325 
L 244.017622 88.036708 
L 242.273903 88.036708 
z
" clip-path="url(#p75e9b8b749)" style="fill: #aec7e8"/>
   </g>
   <g id="patch_110">
    <path d="M 243.888457 288.56325 
L 245.632176 288.56325 
L 245.632176 75.497322 
L 243.888457 75.497322 
z
" clip-path="url(#p75e9b8b749)" style="fill: #aec7e8"/>
   </g>
   <g id="patch_111">
    <path d="M 245.503011 288.56325 
L 247.24673 288.56325 
L 247.24673 81.041596 
L 245.503011 81.041596 
z
" clip-path="url(#p75e9b8b749)" style="fill: #aec7e8"/>
   </g>
   <g id="patch_112">
    <path d="M 247.117565 288.56325 
L 248.861284 288.56325 
L 248.861284 77.414501 
L 247.117565 77.414501 
z
" clip-path="url(#p75e9b8b749)" style="fill: #aec7e8"/>
   </g>
   <g id="patch_113">
    <path d="M 248.73212 288.56325 
L 250.475838 288.56325 
L 250.475838 78.398998 
L 248.73212 78.398998 
z
" clip-path="url(#p75e9b8b749)" style="fill: #aec7e8"/>
   </g>
   <g id="patch_114">
    <path d="M 250.346674 288.56325 
L 252.090392 288.56325 
L 252.090392 74.668272 
L 250.346674 74.668272 
z
" clip-path="url(#p75e9b8b749)" style="fill: #aec7e8"/>
   </g>
   <g id="patch_115">
    <path d="M 251.961228 288.56325 
L 253.704946 288.56325 
L 253.704946 68.035869 
L 251.961228 68.035869 
z
" clip-path="url(#p75e9b8b749)" style="fill: #aec7e8"/>
   </g>
   <g id="patch_116">
    <path d="M 253.575782 288.56325 
L 255.3195 288.56325 
L 255.3195 75.29006 
L 253.575782 75.29006 
z
" clip-path="url(#p75e9b8b749)" style="fill: #aec7e8"/>
   </g>
   <g id="patch_117">
    <path d="M 255.190336 288.56325 
L 256.934055 288.56325 
L 256.934055 72.440199 
L 255.190336 72.440199 
z
" clip-path="url(#p75e9b8b749)" style="fill: #aec7e8"/>
   </g>
   <g id="patch_118">
    <path d="M 256.80489 288.56325 
L 258.548609 288.56325 
L 258.548609 71.818411 
L 256.80489 71.818411 
z
" clip-path="url(#p75e9b8b749)" style="fill: #aec7e8"/>
   </g>
   <g id="patch_119">
    <path d="M 258.419444 288.56325 
L 260.163163 288.56325 
L 260.163163 73.269249 
L 258.419444 73.269249 
z
" clip-path="url(#p75e9b8b749)" style="fill: #aec7e8"/>
   </g>
   <g id="patch_120">
    <path d="M 260.033999 288.56325 
L 261.777717 288.56325 
L 261.777717 62.336149 
L 260.033999 62.336149 
z
" clip-path="url(#p75e9b8b749)" style="fill: #aec7e8"/>
   </g>
   <g id="patch_121">
    <path d="M 261.648553 288.56325 
L 263.392271 288.56325 
L 263.392271 69.69397 
L 261.648553 69.69397 
z
" clip-path="url(#p75e9b8b749)" style="fill: #aec7e8"/>
   </g>
   <g id="patch_122">
    <path d="M 263.263107 288.56325 
L 265.006825 288.56325 
L 265.006825 62.180702 
L 263.263107 62.180702 
z
" clip-path="url(#p75e9b8b749)" style="fill: #aec7e8"/>
   </g>
   <g id="patch_123">
    <path d="M 264.877661 288.56325 
L 266.621379 288.56325 
L 266.621379 57.620925 
L 264.877661 57.620925 
z
" clip-path="url(#p75e9b8b749)" style="fill: #aec7e8"/>
   </g>
   <g id="patch_124">
    <path d="M 266.492215 288.56325 
L 268.235934 288.56325 
L 268.235934 64.097881 
L 266.492215 64.097881 
z
" clip-path="url(#p75e9b8b749)" style="fill: #aec7e8"/>
   </g>
   <g id="patch_125">
    <path d="M 268.106769 288.56325 
L 269.850488 288.56325 
L 269.850488 68.450395 
L 268.106769 68.450395 
z
" clip-path="url(#p75e9b8b749)" style="fill: #aec7e8"/>
   </g>
   <g id="patch_126">
    <path d="M 269.721323 288.56325 
L 271.465042 288.56325 
L 271.465042 60.626232 
L 269.721323 60.626232 
z
" clip-path="url(#p75e9b8b749)" style="fill: #aec7e8"/>
   </g>
   <g id="patch_127">
    <path d="M 271.335878 288.56325 
L 273.079596 288.56325 
L 273.079596 55.548299 
L 271.335878 55.548299 
z
" clip-path="url(#p75e9b8b749)" style="fill: #aec7e8"/>
   </g>
   <g id="patch_128">
    <path d="M 272.950432 288.56325 
L 274.69415 288.56325 
L 274.69415 57.880003 
L 272.950432 57.880003 
z
" clip-path="url(#p75e9b8b749)" style="fill: #aec7e8"/>
   </g>
   <g id="patch_129">
    <path d="M 274.564986 288.56325 
L 276.308704 288.56325 
L 276.308704 55.081958 
L 274.564986 55.081958 
z
" clip-path="url(#p75e9b8b749)" style="fill: #aec7e8"/>
   </g>
   <g id="patch_130">
    <path d="M 276.17954 288.56325 
L 277.923258 288.56325 
L 277.923258 64.097881 
L 276.17954 64.097881 
z
" clip-path="url(#p75e9b8b749)" style="fill: #aec7e8"/>
   </g>
   <g id="patch_131">
    <path d="M 277.794094 288.56325 
L 279.537813 288.56325 
L 279.537813 61.921623 
L 277.794094 61.921623 
z
" clip-path="url(#p75e9b8b749)" style="fill: #aec7e8"/>
   </g>
   <g id="patch_132">
    <path d="M 279.408648 288.56325 
L 281.152367 288.56325 
L 281.152367 60.678048 
L 279.408648 60.678048 
z
" clip-path="url(#p75e9b8b749)" style="fill: #aec7e8"/>
   </g>
   <g id="patch_133">
    <path d="M 281.023202 288.56325 
L 282.766921 288.56325 
L 282.766921 64.097881 
L 281.023202 64.097881 
z
" clip-path="url(#p75e9b8b749)" style="fill: #aec7e8"/>
   </g>
   <g id="patch_134">
    <path d="M 282.637756 288.56325 
L 284.381475 288.56325 
L 284.381475 65.755981 
L 282.637756 65.755981 
z
" clip-path="url(#p75e9b8b749)" style="fill: #aec7e8"/>
   </g>
   <g id="patch_135">
    <path d="M 284.252311 288.56325 
L 285.996029 288.56325 
L 285.996029 66.585031 
L 284.252311 66.585031 
z
" clip-path="url(#p75e9b8b749)" style="fill: #aec7e8"/>
   </g>
   <g id="patch_136">
    <path d="M 285.866865 288.56325 
L 287.610583 288.56325 
L 287.610583 61.299836 
L 285.866865 61.299836 
z
" clip-path="url(#p75e9b8b749)" style="fill: #aec7e8"/>
   </g>
   <g id="patch_137">
    <path d="M 287.481419 288.56325 
L 289.225137 288.56325 
L 289.225137 58.760869 
L 287.481419 58.760869 
z
" clip-path="url(#p75e9b8b749)" style="fill: #aec7e8"/>
   </g>
   <g id="patch_138">
    <path d="M 289.095973 288.56325 
L 290.839691 288.56325 
L 290.839691 61.24802 
L 289.095973 61.24802 
z
" clip-path="url(#p75e9b8b749)" style="fill: #aec7e8"/>
   </g>
   <g id="patch_139">
    <path d="M 290.710527 288.56325 
L 292.454246 288.56325 
L 292.454246 66.999557 
L 290.710527 66.999557 
z
" clip-path="url(#p75e9b8b749)" style="fill: #aec7e8"/>
   </g>
   <g id="patch_140">
    <path d="M 292.325081 288.56325 
L 294.0688 288.56325 
L 294.0688 66.688663 
L 292.325081 66.688663 
z
" clip-path="url(#p75e9b8b749)" style="fill: #aec7e8"/>
   </g>
   <g id="patch_141">
    <path d="M 293.939635 288.56325 
L 295.683354 288.56325 
L 295.683354 74.616456 
L 293.939635 74.616456 
z
" clip-path="url(#p75e9b8b749)" style="fill: #aec7e8"/>
   </g>
   <g id="patch_142">
    <path d="M 295.55419 288.56325 
L 297.297908 288.56325 
L 297.297908 67.67316 
L 295.55419 67.67316 
z
" clip-path="url(#p75e9b8b749)" style="fill: #aec7e8"/>
   </g>
   <g id="patch_143">
    <path d="M 297.168744 288.56325 
L 298.912462 288.56325 
L 298.912462 67.31045 
L 297.168744 67.31045 
z
" clip-path="url(#p75e9b8b749)" style="fill: #aec7e8"/>
   </g>
   <g id="patch_144">
    <path d="M 298.783298 288.56325 
L 300.527016 288.56325 
L 300.527016 67.621344 
L 298.783298 67.621344 
z
" clip-path="url(#p75e9b8b749)" style="fill: #aec7e8"/>
   </g>
   <g id="patch_145">
    <path d="M 300.397852 288.56325 
L 302.14157 288.56325 
L 302.14157 76.170926 
L 300.397852 76.170926 
z
" clip-path="url(#p75e9b8b749)" style="fill: #aec7e8"/>
   </g>
   <g id="patch_146">
    <path d="M 302.012406 288.56325 
L 303.756125 288.56325 
L 303.756125 80.419808 
L 302.012406 80.419808 
z
" clip-path="url(#p75e9b8b749)" style="fill: #aec7e8"/>
   </g>
   <g id="patch_147">
    <path d="M 303.62696 288.56325 
L 305.370679 288.56325 
L 305.370679 75.238244 
L 303.62696 75.238244 
z
" clip-path="url(#p75e9b8b749)" style="fill: #aec7e8"/>
   </g>
   <g id="patch_148">
    <path d="M 305.241514 288.56325 
L 306.985233 288.56325 
L 306.985233 78.088104 
L 305.241514 78.088104 
z
" clip-path="url(#p75e9b8b749)" style="fill: #aec7e8"/>
   </g>
   <g id="patch_149">
    <path d="M 306.856068 288.56325 
L 308.599787 288.56325 
L 308.599787 81.197043 
L 306.856068 81.197043 
z
" clip-path="url(#p75e9b8b749)" style="fill: #aec7e8"/>
   </g>
   <g id="patch_150">
    <path d="M 308.470623 288.56325 
L 310.214341 288.56325 
L 310.214341 85.031401 
L 308.470623 85.031401 
z
" clip-path="url(#p75e9b8b749)" style="fill: #aec7e8"/>
   </g>
   <g id="patch_151">
    <path d="M 310.085177 288.56325 
L 311.828895 288.56325 
L 311.828895 89.539362 
L 310.085177 89.539362 
z
" clip-path="url(#p75e9b8b749)" style="fill: #aec7e8"/>
   </g>
   <g id="patch_152">
    <path d="M 311.699731 288.56325 
L 313.443449 288.56325 
L 313.443449 90.523859 
L 311.699731 90.523859 
z
" clip-path="url(#p75e9b8b749)" style="fill: #aec7e8"/>
   </g>
   <g id="patch_153">
    <path d="M 313.314285 288.56325 
L 315.058003 288.56325 
L 315.058003 99.643412 
L 313.314285 99.643412 
z
" clip-path="url(#p75e9b8b749)" style="fill: #aec7e8"/>
   </g>
   <g id="patch_154">
    <path d="M 314.928839 288.56325 
L 316.672558 288.56325 
L 316.672558 93.891876 
L 314.928839 93.891876 
z
" clip-path="url(#p75e9b8b749)" style="fill: #aec7e8"/>
   </g>
   <g id="patch_155">
    <path d="M 316.543393 288.56325 
L 318.287112 288.56325 
L 318.287112 97.000814 
L 316.543393 97.000814 
z
" clip-path="url(#p75e9b8b749)" style="fill: #aec7e8"/>
   </g>
   <g id="patch_156">
    <path d="M 318.157947 288.56325 
L 319.901666 288.56325 
L 319.901666 108.400256 
L 318.157947 108.400256 
z
" clip-path="url(#p75e9b8b749)" style="fill: #aec7e8"/>
   </g>
   <g id="patch_157">
    <path d="M 319.772502 288.56325 
L 321.51622 288.56325 
L 321.51622 99.43615 
L 319.772502 99.43615 
z
" clip-path="url(#p75e9b8b749)" style="fill: #aec7e8"/>
   </g>
   <g id="patch_158">
    <path d="M 321.387056 288.56325 
L 323.130774 288.56325 
L 323.130774 110.110172 
L 321.387056 110.110172 
z
" clip-path="url(#p75e9b8b749)" style="fill: #aec7e8"/>
   </g>
   <g id="patch_159">
    <path d="M 323.00161 288.56325 
L 324.745328 288.56325 
L 324.745328 113.58182 
L 323.00161 113.58182 
z
" clip-path="url(#p75e9b8b749)" style="fill: #aec7e8"/>
   </g>
   <g id="patch_160">
    <path d="M 324.616164 288.56325 
L 326.359882 288.56325 
L 326.359882 124.255843 
L 324.616164 124.255843 
z
" clip-path="url(#p75e9b8b749)" style="fill: #aec7e8"/>
   </g>
   <g id="patch_161">
    <path d="M 326.230718 288.56325 
L 327.974437 288.56325 
L 327.974437 135.396207 
L 326.230718 135.396207 
z
" clip-path="url(#p75e9b8b749)" style="fill: #aec7e8"/>
   </g>
   <g id="patch_162">
    <path d="M 327.845272 288.56325 
L 329.588991 288.56325 
L 329.588991 118.452491 
L 327.845272 118.452491 
z
" clip-path="url(#p75e9b8b749)" style="fill: #aec7e8"/>
   </g>
   <g id="patch_163">
    <path d="M 329.459826 288.56325 
L 331.203545 288.56325 
L 331.203545 146.225676 
L 329.459826 146.225676 
z
" clip-path="url(#p75e9b8b749)" style="fill: #aec7e8"/>
   </g>
   <g id="patch_164">
    <path d="M 331.07438 288.56325 
L 332.818099 288.56325 
L 332.818099 125.654866 
L 331.07438 125.654866 
z
" clip-path="url(#p75e9b8b749)" style="fill: #aec7e8"/>
   </g>
   <g id="patch_165">
    <path d="M 332.688935 288.56325 
L 334.432653 288.56325 
L 334.432653 144.049419 
L 332.688935 144.049419 
z
" clip-path="url(#p75e9b8b749)" style="fill: #aec7e8"/>
   </g>
   <g id="patch_166">
    <path d="M 334.303489 288.56325 
L 336.047207 288.56325 
L 336.047207 151.510872 
L 334.303489 151.510872 
z
" clip-path="url(#p75e9b8b749)" style="fill: #aec7e8"/>
   </g>
   <g id="patch_167">
    <path d="M 335.918043 288.56325 
L 337.661761 288.56325 
L 337.661761 143.168553 
L 335.918043 143.168553 
z
" clip-path="url(#p75e9b8b749)" style="fill: #aec7e8"/>
   </g>
   <g id="patch_168">
    <path d="M 337.532597 288.56325 
L 339.276316 288.56325 
L 339.276316 168.195509 
L 337.532597 168.195509 
z
" clip-path="url(#p75e9b8b749)" style="fill: #aec7e8"/>
   </g>
   <g id="patch_169">
    <path d="M 339.147151 288.56325 
L 340.89087 288.56325 
L 340.89087 150.267296 
L 339.147151 150.267296 
z
" clip-path="url(#p75e9b8b749)" style="fill: #aec7e8"/>
   </g>
   <g id="patch_170">
    <path d="M 340.761705 288.56325 
L 342.505424 288.56325 
L 342.505424 179.750398 
L 340.761705 179.750398 
z
" clip-path="url(#p75e9b8b749)" style="fill: #aec7e8"/>
   </g>
   <g id="patch_171">
    <path d="M 342.376259 288.56325 
L 344.119978 288.56325 
L 344.119978 167.47009 
L 342.376259 167.47009 
z
" clip-path="url(#p75e9b8b749)" style="fill: #aec7e8"/>
   </g>
   <g id="patch_172">
    <path d="M 343.990814 288.56325 
L 345.734532 288.56325 
L 345.734532 175.708778 
L 343.990814 175.708778 
z
" clip-path="url(#p75e9b8b749)" style="fill: #aec7e8"/>
   </g>
   <g id="patch_173">
    <path d="M 345.605368 288.56325 
L 347.349086 288.56325 
L 347.349086 187.678191 
L 345.605368 187.678191 
z
" clip-path="url(#p75e9b8b749)" style="fill: #aec7e8"/>
   </g>
   <g id="patch_174">
    <path d="M 347.219922 288.56325 
L 348.96364 288.56325 
L 348.96364 178.040482 
L 347.219922 178.040482 
z
" clip-path="url(#p75e9b8b749)" style="fill: #aec7e8"/>
   </g>
   <g id="patch_175">
    <path d="M 348.834476 288.56325 
L 350.578194 288.56325 
L 350.578194 207.160873 
L 348.834476 207.160873 
z
" clip-path="url(#p75e9b8b749)" style="fill: #aec7e8"/>
   </g>
   <g id="patch_176">
    <path d="M 350.44903 288.56325 
L 352.192749 288.56325 
L 352.192749 193.17065 
L 350.44903 193.17065 
z
" clip-path="url(#p75e9b8b749)" style="fill: #aec7e8"/>
   </g>
   <g id="patch_177">
    <path d="M 352.063584 288.56325 
L 353.807303 288.56325 
L 353.807303 208.093555 
L 352.063584 208.093555 
z
" clip-path="url(#p75e9b8b749)" style="fill: #aec7e8"/>
   </g>
   <g id="patch_178">
    <path d="M 353.678138 288.56325 
L 355.421857 288.56325 
L 355.421857 219.33755 
L 353.678138 219.33755 
z
" clip-path="url(#p75e9b8b749)" style="fill: #aec7e8"/>
   </g>
   <g id="patch_179">
    <path d="M 355.292693 288.56325 
L 357.036411 288.56325 
L 357.036411 200.373024 
L 355.292693 200.373024 
z
" clip-path="url(#p75e9b8b749)" style="fill: #aec7e8"/>
   </g>
   <g id="patch_180">
    <path d="M 356.907247 288.56325 
L 358.650965 288.56325 
L 358.650965 234.882243 
L 356.907247 234.882243 
z
" clip-path="url(#p75e9b8b749)" style="fill: #aec7e8"/>
   </g>
   <g id="patch_181">
    <path d="M 358.521801 288.56325 
L 360.265519 288.56325 
L 360.265519 208.818974 
L 358.521801 208.818974 
z
" clip-path="url(#p75e9b8b749)" style="fill: #aec7e8"/>
   </g>
   <g id="patch_182">
    <path d="M 360.136355 288.56325 
L 361.880073 288.56325 
L 361.880073 236.436712 
L 360.136355 236.436712 
z
" clip-path="url(#p75e9b8b749)" style="fill: #aec7e8"/>
   </g>
   <g id="patch_183">
    <path d="M 361.750909 288.56325 
L 363.494628 288.56325 
L 363.494628 233.01688 
L 361.750909 233.01688 
z
" clip-path="url(#p75e9b8b749)" style="fill: #aec7e8"/>
   </g>
   <g id="patch_184">
    <path d="M 363.365463 288.56325 
L 365.109182 288.56325 
L 365.109182 234.053193 
L 363.365463 234.053193 
z
" clip-path="url(#p75e9b8b749)" style="fill: #aec7e8"/>
   </g>
   <g id="patch_185">
    <path d="M 364.980017 288.56325 
L 366.723736 288.56325 
L 366.723736 251.774143 
L 364.980017 251.774143 
z
" clip-path="url(#p75e9b8b749)" style="fill: #aec7e8"/>
   </g>
   <g id="patch_186">
    <path d="M 366.594571 288.56325 
L 368.33829 288.56325 
L 368.33829 230.115204 
L 366.594571 230.115204 
z
" clip-path="url(#p75e9b8b749)" style="fill: #aec7e8"/>
   </g>
   <g id="patch_187">
    <path d="M 368.209126 288.56325 
L 369.952844 288.56325 
L 369.952844 261.981825 
L 368.209126 261.981825 
z
" clip-path="url(#p75e9b8b749)" style="fill: #aec7e8"/>
   </g>
   <g id="patch_188">
    <path d="M 369.82368 288.56325 
L 371.567398 288.56325 
L 371.567398 247.991601 
L 369.82368 247.991601 
z
" clip-path="url(#p75e9b8b749)" style="fill: #aec7e8"/>
   </g>
   <g id="patch_189">
    <path d="M 371.438234 288.56325 
L 373.181952 288.56325 
L 373.181952 255.453054 
L 371.438234 255.453054 
z
" clip-path="url(#p75e9b8b749)" style="fill: #aec7e8"/>
   </g>
   <g id="patch_190">
    <path d="M 373.052788 288.56325 
L 374.796506 288.56325 
L 374.796506 264.728054 
L 373.052788 264.728054 
z
" clip-path="url(#p75e9b8b749)" style="fill: #aec7e8"/>
   </g>
   <g id="patch_191">
    <path d="M 374.667342 288.56325 
L 376.411061 288.56325 
L 376.411061 257.888389 
L 374.667342 257.888389 
z
" clip-path="url(#p75e9b8b749)" style="fill: #aec7e8"/>
   </g>
   <g id="patch_192">
    <path d="M 376.281896 288.56325 
L 378.025615 288.56325 
L 378.025615 278.511015 
L 376.281896 278.511015 
z
" clip-path="url(#p75e9b8b749)" style="fill: #aec7e8"/>
   </g>
   <g id="patch_193">
    <path d="M 377.89645 288.56325 
L 379.640169 288.56325 
L 379.640169 258.613808 
L 377.89645 258.613808 
z
" clip-path="url(#p75e9b8b749)" style="fill: #aec7e8"/>
   </g>
   <g id="patch_194">
    <path d="M 379.511005 288.56325 
L 381.254723 288.56325 
L 381.254723 276.386574 
L 379.511005 276.386574 
z
" clip-path="url(#p75e9b8b749)" style="fill: #aec7e8"/>
   </g>
   <g id="patch_195">
    <path d="M 381.125559 288.56325 
L 382.869277 288.56325 
L 382.869277 277.837412 
L 381.125559 277.837412 
z
" clip-path="url(#p75e9b8b749)" style="fill: #aec7e8"/>
   </g>
   <g id="patch_196">
    <path d="M 382.740113 288.56325 
L 384.483831 288.56325 
L 384.483831 269.702356 
L 382.740113 269.702356 
z
" clip-path="url(#p75e9b8b749)" style="fill: #aec7e8"/>
   </g>
   <g id="patch_197">
    <path d="M 384.354667 288.56325 
L 386.098385 288.56325 
L 386.098385 283.537133 
L 384.354667 283.537133 
z
" clip-path="url(#p75e9b8b749)" style="fill: #aec7e8"/>
   </g>
   <g id="patch_198">
    <path d="M 385.969221 288.56325 
L 387.71294 288.56325 
L 387.71294 278.977356 
L 385.969221 278.977356 
z
" clip-path="url(#p75e9b8b749)" style="fill: #aec7e8"/>
   </g>
   <g id="patch_199">
    <path d="M 387.583775 288.56325 
L 389.327494 288.56325 
L 389.327494 288.407803 
L 387.583775 288.407803 
z
" clip-path="url(#p75e9b8b749)" style="fill: #aec7e8"/>
   </g>
   <g id="patch_200">
    <path d="M 389.198329 288.56325 
L 390.942048 288.56325 
L 390.942048 280.583641 
L 389.198329 280.583641 
z
" clip-path="url(#p75e9b8b749)" style="fill: #aec7e8"/>
   </g>
   <g id="patch_201">
    <path d="M 390.812883 288.56325 
L 392.556602 288.56325 
L 392.556602 285.454311 
L 390.812883 285.454311 
z
" clip-path="url(#p75e9b8b749)" style="fill: #aec7e8"/>
   </g>
   <g id="patch_202">
    <path d="M 392.427438 288.56325 
L 394.171156 288.56325 
L 394.171156 288.56325 
L 392.427438 288.56325 
z
" clip-path="url(#p75e9b8b749)" style="fill: #aec7e8"/>
   </g>
   <g id="patch_203">
    <path d="M 394.041992 288.56325 
L 395.78571 288.56325 
L 395.78571 280.94635 
L 394.041992 280.94635 
z
" clip-path="url(#p75e9b8b749)" style="fill: #aec7e8"/>
   </g>
   <g id="matplotlib.axis_1">
    <g id="xtick_1">
     <g id="line2d_1">
      <defs>
       <path id="m3c33943c34" d="M 0 0 
L 0 3.5 
" style="stroke: #000000; stroke-width: 0.8"/>
      </defs>
      <g>
       <use xlink:href="#m3c33943c34" x="72.003024" y="288.56325" style="stroke: #000000; stroke-width: 0.8"/>
      </g>
     </g>
     <g id="text_1">
      <!-- 0 -->
      <g transform="translate(68.63818 303.272625) scale(0.1 -0.1)">
       <defs>
        <path id="HiraginoSans-W4-30" d="M 2144 -90 
C 2758 -90 3232 141 3565 602 
C 3846 998 4019 1696 4019 2464 
C 4019 3002 3936 3501 3770 3949 
C 3693 4160 3558 4371 3379 4550 
C 3078 4858 2650 5024 2157 5024 
C 1498 5024 986 4742 666 4205 
C 435 3834 288 3142 288 2458 
C 288 1939 371 1434 538 986 
C 614 768 749 563 928 384 
C 1242 70 1651 -90 2144 -90 
z
M 2144 4499 
C 2592 4499 2918 4307 3123 3923 
C 3283 3629 3398 3014 3398 2470 
C 3398 2022 3341 1619 3213 1235 
C 3155 1043 3046 870 2912 730 
C 2726 538 2458 435 2150 435 
C 1734 435 1414 614 1197 973 
C 1024 1261 902 1875 902 2451 
C 902 2906 966 3328 1088 3699 
C 1139 3866 1235 4026 1370 4173 
C 1568 4397 1818 4499 2144 4499 
z
" transform="scale(0.015625)"/>
       </defs>
       <use xlink:href="#HiraginoSans-W4-30"/>
      </g>
     </g>
    </g>
    <g id="xtick_2">
     <g id="line2d_2">
      <g>
       <use xlink:href="#m3c33943c34" x="112.366877" y="288.56325" style="stroke: #000000; stroke-width: 0.8"/>
      </g>
     </g>
     <g id="text_2">
      <!-- 25 -->
      <g transform="translate(105.63719 303.272625) scale(0.1 -0.1)">
       <defs>
        <path id="HiraginoSans-W4-32" d="M 3078 0 
C 3424 0 3642 -6 3917 -32 
L 3917 589 
C 3693 557 3430 544 3091 544 
L 1114 544 
C 1280 1114 1606 1478 2451 2042 
C 3181 2528 3341 2656 3546 2912 
C 3738 3142 3846 3443 3846 3744 
C 3846 4525 3200 5030 2202 5030 
C 1613 5030 1158 4858 858 4518 
C 640 4269 531 4026 442 3565 
L 1088 3469 
C 1139 3782 1190 3936 1306 4102 
C 1491 4371 1792 4506 2208 4506 
C 2816 4506 3206 4211 3206 3744 
C 3206 3360 2995 3085 2387 2675 
C 1754 2246 1600 2138 1389 1952 
C 979 1594 710 1229 544 806 
C 448 563 429 461 365 -26 
C 576 -6 678 0 1107 0 
L 3078 0 
z
" transform="scale(0.015625)"/>
        <path id="HiraginoSans-W4-35" d="M 1331 4416 
L 2835 4416 
C 3155 4416 3366 4403 3622 4365 
L 3622 4986 
C 3360 4947 3206 4934 2829 4934 
L 1446 4934 
C 1082 4934 954 4941 762 4966 
C 774 4768 774 4762 774 4742 
C 774 4563 774 4518 749 4307 
L 608 2822 
C 589 2566 570 2445 518 2157 
L 1088 2106 
C 1146 2240 1178 2291 1261 2374 
C 1485 2605 1811 2739 2131 2739 
C 2842 2739 3264 2317 3264 1613 
C 3264 902 2803 435 2106 435 
C 1747 435 1440 563 1235 794 
C 1146 902 1101 986 1037 1171 
L 410 1005 
C 557 685 646 544 813 378 
C 1133 64 1562 -96 2099 -96 
C 3194 -96 3885 576 3885 1638 
C 3885 2605 3245 3238 2272 3238 
C 1830 3238 1472 3098 1158 2803 
C 1197 2982 1197 2982 1203 3091 
L 1331 4416 
z
" transform="scale(0.015625)"/>
       </defs>
       <use xlink:href="#HiraginoSans-W4-32"/>
       <use xlink:href="#HiraginoSans-W4-35" x="67.299988"/>
      </g>
     </g>
    </g>
    <g id="xtick_3">
     <g id="line2d_3">
      <g>
       <use xlink:href="#m3c33943c34" x="152.730731" y="288.56325" style="stroke: #000000; stroke-width: 0.8"/>
      </g>
     </g>
     <g id="text_3">
      <!-- 50 -->
      <g transform="translate(146.001043 303.272625) scale(0.1 -0.1)">
       <use xlink:href="#HiraginoSans-W4-35"/>
       <use xlink:href="#HiraginoSans-W4-30" x="67.299988"/>
      </g>
     </g>
    </g>
    <g id="xtick_4">
     <g id="line2d_4">
      <g>
       <use xlink:href="#m3c33943c34" x="193.094584" y="288.56325" style="stroke: #000000; stroke-width: 0.8"/>
      </g>
     </g>
     <g id="text_4">
      <!-- 75 -->
      <g transform="translate(186.364897 303.272625) scale(0.1 -0.1)">
       <defs>
        <path id="HiraginoSans-W4-37" d="M 3898 4966 
C 3661 4941 3526 4934 3117 4934 
L 1165 4934 
C 838 4934 646 4947 390 4979 
L 390 4346 
C 634 4378 819 4390 1146 4390 
L 3200 4390 
C 2643 3635 2368 3187 2054 2541 
C 1664 1741 1491 1171 1280 0 
L 2003 0 
C 2099 685 2163 992 2317 1491 
C 2554 2291 2829 2861 3373 3718 
C 3642 4141 3763 4301 3898 4422 
L 3898 4966 
z
" transform="scale(0.015625)"/>
       </defs>
       <use xlink:href="#HiraginoSans-W4-37"/>
       <use xlink:href="#HiraginoSans-W4-35" x="67.299988"/>
      </g>
     </g>
    </g>
    <g id="xtick_5">
     <g id="line2d_5">
      <g>
       <use xlink:href="#m3c33943c34" x="233.458438" y="288.56325" style="stroke: #000000; stroke-width: 0.8"/>
      </g>
     </g>
     <g id="text_5">
      <!-- 100 -->
      <g transform="translate(223.363906 303.272625) scale(0.1 -0.1)">
       <defs>
        <path id="HiraginoSans-W4-31" d="M 1018 4371 
C 1222 4397 1389 4410 1606 4410 
L 1939 4410 
L 1939 755 
C 1939 454 1926 237 1888 0 
L 2598 0 
C 2560 250 2547 448 2547 755 
L 2547 3904 
C 2547 4256 2566 4582 2605 4966 
C 2387 4941 2278 4934 2035 4934 
L 1581 4934 
C 1325 4934 1197 4941 1018 4966 
L 1018 4371 
z
" transform="scale(0.015625)"/>
       </defs>
       <use xlink:href="#HiraginoSans-W4-31"/>
       <use xlink:href="#HiraginoSans-W4-30" x="67.299988"/>
       <use xlink:href="#HiraginoSans-W4-30" x="134.599976"/>
      </g>
     </g>
    </g>
    <g id="xtick_6">
     <g id="line2d_6">
      <g>
       <use xlink:href="#m3c33943c34" x="273.822291" y="288.56325" style="stroke: #000000; stroke-width: 0.8"/>
      </g>
     </g>
     <g id="text_6">
      <!-- 125 -->
      <g transform="translate(263.72776 303.272625) scale(0.1 -0.1)">
       <use xlink:href="#HiraginoSans-W4-31"/>
       <use xlink:href="#HiraginoSans-W4-32" x="67.299988"/>
       <use xlink:href="#HiraginoSans-W4-35" x="134.599976"/>
      </g>
     </g>
    </g>
    <g id="xtick_7">
     <g id="line2d_7">
      <g>
       <use xlink:href="#m3c33943c34" x="314.186144" y="288.56325" style="stroke: #000000; stroke-width: 0.8"/>
      </g>
     </g>
     <g id="text_7">
      <!-- 150 -->
      <g transform="translate(304.091613 303.272625) scale(0.1 -0.1)">
       <use xlink:href="#HiraginoSans-W4-31"/>
       <use xlink:href="#HiraginoSans-W4-35" x="67.299988"/>
       <use xlink:href="#HiraginoSans-W4-30" x="134.599976"/>
      </g>
     </g>
    </g>
    <g id="xtick_8">
     <g id="line2d_8">
      <g>
       <use xlink:href="#m3c33943c34" x="354.549998" y="288.56325" style="stroke: #000000; stroke-width: 0.8"/>
      </g>
     </g>
     <g id="text_8">
      <!-- 175 -->
      <g transform="translate(344.455466 303.272625) scale(0.1 -0.1)">
       <use xlink:href="#HiraginoSans-W4-31"/>
       <use xlink:href="#HiraginoSans-W4-37" x="67.299988"/>
       <use xlink:href="#HiraginoSans-W4-35" x="134.599976"/>
      </g>
     </g>
    </g>
    <g id="xtick_9">
     <g id="line2d_9">
      <g>
       <use xlink:href="#m3c33943c34" x="394.913851" y="288.56325" style="stroke: #000000; stroke-width: 0.8"/>
      </g>
     </g>
     <g id="text_9">
      <!-- 200 -->
      <g transform="translate(384.81932 303.272625) scale(0.1 -0.1)">
       <use xlink:href="#HiraginoSans-W4-32"/>
       <use xlink:href="#HiraginoSans-W4-30" x="67.299988"/>
       <use xlink:href="#HiraginoSans-W4-30" x="134.599976"/>
      </g>
     </g>
    </g>
    <g id="text_10">
     <!-- 点数 -->
     <g transform="translate(223.458438 317.032) scale(0.1 -0.1)">
      <defs>
       <path id="HiraginoSans-W4-70b9" d="M 3341 4122 
L 5114 4122 
C 5350 4122 5542 4109 5766 4083 
L 5766 4602 
C 5587 4576 5402 4563 5114 4563 
L 3341 4563 
L 3341 4736 
C 3341 4973 3354 5165 3386 5331 
L 2790 5331 
C 2822 5152 2835 4941 2835 4704 
L 2835 3341 
L 1850 3341 
C 1555 3341 1325 3354 1126 3373 
C 1146 3206 1152 3072 1152 2874 
L 1152 1805 
C 1152 1632 1146 1498 1126 1338 
C 1318 1357 1498 1363 1773 1363 
L 4640 1363 
C 4922 1363 5088 1357 5286 1338 
C 5267 1491 5261 1606 5261 1811 
L 5261 2874 
C 5261 3085 5267 3232 5286 3373 
C 5107 3347 4915 3341 4570 3341 
L 3341 3341 
L 3341 4122 
z
M 4774 2893 
L 4774 1818 
L 1645 1818 
L 1645 2893 
L 4774 2893 
z
M 749 -474 
C 1126 -19 1331 352 1562 966 
L 1114 1146 
C 1005 806 941 659 781 403 
C 627 147 531 26 294 -205 
L 749 -474 
z
M 2803 -378 
C 2778 109 2733 435 2618 1018 
L 2176 947 
C 2278 410 2304 141 2304 -474 
L 2803 -378 
z
M 4378 -288 
C 4211 211 4070 563 3827 1069 
L 3405 941 
C 3648 397 3776 26 3885 -480 
L 4378 -288 
z
M 5984 -205 
C 5632 429 5504 640 5126 1165 
L 4704 986 
C 5069 474 5242 160 5523 -467 
L 5984 -205 
z
" transform="scale(0.015625)"/>
       <path id="HiraginoSans-W4-6570" d="M 6170 4173 
C 6003 4141 5862 4134 5568 4134 
L 4288 4134 
C 4365 4384 4435 4627 4512 4947 
C 4557 5126 4563 5152 4595 5235 
L 4077 5344 
C 4070 5158 4032 4934 3974 4672 
C 3782 3853 3437 3130 2995 2598 
C 3142 2509 3226 2438 3354 2291 
C 3526 2515 3610 2643 3770 2931 
C 3904 2176 4070 1702 4397 1158 
C 4013 653 3526 275 2803 -77 
C 2944 -218 3021 -326 3110 -506 
C 3776 -141 4256 250 4666 755 
C 5069 230 5485 -141 6035 -467 
C 6138 -237 6202 -128 6317 13 
C 5747 314 5338 653 4954 1158 
C 5171 1523 5325 1875 5440 2304 
C 5562 2739 5613 3078 5651 3699 
C 5920 3699 6035 3693 6170 3667 
L 6170 4173 
z
M 5184 3699 
C 5133 2797 4992 2214 4672 1600 
C 4358 2170 4192 2707 4064 3539 
C 4096 3610 4102 3629 4128 3699 
L 5184 3699 
z
M 3046 339 
C 2752 512 2656 570 2419 685 
C 2643 992 2746 1190 2880 1626 
L 2963 1626 
C 3187 1626 3309 1619 3443 1594 
L 3443 2067 
C 3328 2042 3206 2035 2989 2035 
L 1862 2035 
C 1926 2176 1958 2234 2029 2426 
L 1562 2528 
C 1485 2285 1453 2202 1382 2035 
L 832 2035 
C 608 2035 493 2042 365 2067 
L 365 1594 
C 499 1619 614 1626 832 1626 
L 1165 1626 
C 1005 1344 941 1248 723 954 
C 1203 774 1402 691 1702 550 
C 1376 294 902 83 326 -58 
C 429 -205 493 -314 563 -480 
C 1325 -224 1715 -19 2112 346 
C 2432 173 2502 122 2778 -77 
L 3046 339 
z
M 2419 1626 
C 2310 1306 2214 1120 2022 870 
C 1818 960 1709 1005 1357 1146 
C 1504 1370 1549 1440 1651 1626 
L 2419 1626 
z
M 2163 4070 
L 2163 4902 
C 2163 5075 2170 5203 2189 5325 
L 1696 5325 
C 1722 5184 1728 5075 1728 4896 
L 1728 4070 
L 915 4070 
C 666 4070 531 4077 390 4102 
L 390 3642 
C 518 3667 678 3674 902 3674 
L 1434 3674 
C 1133 3258 864 3034 269 2688 
C 410 2566 486 2477 589 2317 
C 1184 2739 1408 2963 1747 3494 
C 1734 3366 1728 3258 1728 3162 
L 1728 2835 
C 1728 2752 1722 2662 1702 2586 
L 2182 2586 
C 2170 2662 2163 2758 2163 2848 
L 2163 3168 
C 2163 3258 2157 3347 2138 3494 
C 2355 3162 2490 3014 2848 2739 
C 2989 2970 3002 2982 3130 3110 
C 2816 3277 2566 3469 2406 3674 
L 2989 3674 
C 3200 3674 3309 3667 3418 3648 
L 3418 4096 
C 3322 4077 3200 4070 2995 4070 
L 2163 4070 
z
M 570 5056 
C 774 4768 896 4550 1024 4211 
L 1427 4371 
C 1286 4704 1190 4883 960 5210 
L 570 5056 
z
M 2918 5235 
C 2784 4883 2643 4634 2406 4333 
L 2790 4147 
C 3008 4442 3104 4608 3328 5050 
L 2918 5235 
z
" transform="scale(0.015625)"/>
      </defs>
      <use xlink:href="#HiraginoSans-W4-70b9"/>
      <use xlink:href="#HiraginoSans-W4-6570" x="99.999985"/>
     </g>
    </g>
   </g>
   <g id="matplotlib.axis_2">
    <g id="ytick_1">
     <g id="line2d_10">
      <defs>
       <path id="m92a015fafa" d="M 0 0 
L -3.5 0 
" style="stroke: #000000; stroke-width: 0.8"/>
      </defs>
      <g>
       <use xlink:href="#m92a015fafa" x="54.898438" y="288.56325" style="stroke: #000000; stroke-width: 0.8"/>
      </g>
     </g>
     <g id="text_11">
      <!-- 0 -->
      <g transform="translate(41.16875 292.417937) scale(0.1 -0.1)">
       <use xlink:href="#HiraginoSans-W4-30"/>
      </g>
     </g>
    </g>
    <g id="ytick_2">
     <g id="line2d_11">
      <g>
       <use xlink:href="#m92a015fafa" x="54.898438" y="236.747606" style="stroke: #000000; stroke-width: 0.8"/>
      </g>
     </g>
     <g id="text_12">
      <!-- 1000 -->
      <g transform="translate(20.979687 240.602294) scale(0.1 -0.1)">
       <use xlink:href="#HiraginoSans-W4-31"/>
       <use xlink:href="#HiraginoSans-W4-30" x="67.299988"/>
       <use xlink:href="#HiraginoSans-W4-30" x="134.599976"/>
       <use xlink:href="#HiraginoSans-W4-30" x="201.899963"/>
      </g>
     </g>
    </g>
    <g id="ytick_3">
     <g id="line2d_12">
      <g>
       <use xlink:href="#m92a015fafa" x="54.898438" y="184.931962" style="stroke: #000000; stroke-width: 0.8"/>
      </g>
     </g>
     <g id="text_13">
      <!-- 2000 -->
      <g transform="translate(20.979687 188.78665) scale(0.1 -0.1)">
       <use xlink:href="#HiraginoSans-W4-32"/>
       <use xlink:href="#HiraginoSans-W4-30" x="67.299988"/>
       <use xlink:href="#HiraginoSans-W4-30" x="134.599976"/>
       <use xlink:href="#HiraginoSans-W4-30" x="201.899963"/>
      </g>
     </g>
    </g>
    <g id="ytick_4">
     <g id="line2d_13">
      <g>
       <use xlink:href="#m92a015fafa" x="54.898438" y="133.116318" style="stroke: #000000; stroke-width: 0.8"/>
      </g>
     </g>
     <g id="text_14">
      <!-- 3000 -->
      <g transform="translate(20.979687 136.971006) scale(0.1 -0.1)">
       <defs>
        <path id="HiraginoSans-W4-33" d="M 282 1101 
C 397 768 474 621 621 448 
C 934 90 1434 -96 2112 -96 
C 2720 -96 3213 70 3533 384 
C 3770 614 3904 954 3904 1306 
C 3904 1677 3802 1958 3597 2182 
C 3379 2419 3130 2528 2688 2586 
C 2995 2650 3130 2701 3290 2816 
C 3578 3021 3738 3366 3738 3757 
C 3738 4538 3117 5043 2157 5043 
C 1594 5043 1146 4883 845 4576 
C 666 4390 582 4237 467 3891 
L 1107 3757 
C 1171 3981 1216 4083 1306 4192 
C 1478 4416 1741 4525 2125 4525 
C 2746 4525 3110 4224 3110 3725 
C 3110 3482 3021 3264 2867 3110 
C 2669 2918 2374 2829 1965 2829 
C 1779 2829 1613 2842 1459 2861 
L 1459 2272 
C 1651 2298 1811 2310 2003 2310 
C 2829 2310 3264 1990 3264 1376 
C 3264 794 2816 429 2106 429 
C 1779 429 1510 506 1293 666 
C 1107 800 1024 928 928 1248 
L 282 1101 
z
" transform="scale(0.015625)"/>
       </defs>
       <use xlink:href="#HiraginoSans-W4-33"/>
       <use xlink:href="#HiraginoSans-W4-30" x="67.299988"/>
       <use xlink:href="#HiraginoSans-W4-30" x="134.599976"/>
       <use xlink:href="#HiraginoSans-W4-30" x="201.899963"/>
      </g>
     </g>
    </g>
    <g id="ytick_5">
     <g id="line2d_14">
      <g>
       <use xlink:href="#m92a015fafa" x="54.898438" y="81.300674" style="stroke: #000000; stroke-width: 0.8"/>
      </g>
     </g>
     <g id="text_15">
      <!-- 4000 -->
      <g transform="translate(20.959375 85.155362) scale(0.1 -0.1)">
       <defs>
        <path id="HiraginoSans-W4-34" d="M 179 1210 
C 403 1229 589 1235 954 1235 
L 2688 1235 
L 2688 710 
C 2688 410 2675 218 2630 0 
L 3309 0 
C 3270 230 3258 390 3258 704 
L 3258 1235 
L 3494 1235 
C 3763 1235 3910 1222 4154 1190 
L 4154 1798 
C 3917 1766 3750 1754 3494 1754 
L 3258 1754 
L 3258 3853 
C 3258 4358 3264 4544 3296 4934 
L 2701 4934 
C 2560 4704 2445 4550 2214 4269 
L 621 2298 
C 467 2099 326 1939 179 1773 
L 179 1210 
z
M 2688 1747 
L 858 1747 
L 2259 3514 
C 2464 3763 2592 3936 2720 4128 
C 2694 3814 2688 3622 2688 3283 
L 2688 1747 
z
" transform="scale(0.015625)"/>
       </defs>
       <use xlink:href="#HiraginoSans-W4-34"/>
       <use xlink:href="#HiraginoSans-W4-30" x="67.499985"/>
       <use xlink:href="#HiraginoSans-W4-30" x="134.799973"/>
       <use xlink:href="#HiraginoSans-W4-30" x="202.09996"/>
      </g>
     </g>
    </g>
    <g id="ytick_6">
     <g id="line2d_15">
      <g>
       <use xlink:href="#m92a015fafa" x="54.898438" y="29.48503" style="stroke: #000000; stroke-width: 0.8"/>
      </g>
     </g>
     <g id="text_16">
      <!-- 5000 -->
      <g transform="translate(20.979687 33.339718) scale(0.1 -0.1)">
       <use xlink:href="#HiraginoSans-W4-35"/>
       <use xlink:href="#HiraginoSans-W4-30" x="67.299988"/>
       <use xlink:href="#HiraginoSans-W4-30" x="134.599976"/>
       <use xlink:href="#HiraginoSans-W4-30" x="201.899963"/>
      </g>
     </g>
    </g>
    <g id="text_17">
     <!-- 人数 -->
     <g transform="translate(14.909375 165.50725) rotate(-90) scale(0.1 -0.1)">
      <defs>
       <path id="HiraginoSans-W4-4eba" d="M 2893 5254 
C 2912 5088 2918 4973 2918 4717 
C 2918 3277 2586 2195 1856 1267 
C 1434 723 1056 422 307 13 
C 486 -134 576 -243 691 -448 
C 1222 -115 1466 77 1824 429 
C 2240 845 2528 1235 2758 1722 
C 2989 2195 3098 2528 3213 3110 
C 3411 2285 3661 1709 4051 1152 
C 4506 512 4954 83 5728 -448 
C 5856 -224 5926 -128 6112 38 
C 5760 243 5606 346 5414 499 
C 5082 768 4736 1120 4499 1434 
C 4109 1946 3750 2682 3616 3226 
C 3533 3565 3456 4262 3456 4672 
C 3456 4858 3475 5152 3494 5254 
L 2893 5254 
z
" transform="scale(0.015625)"/>
      </defs>
      <use xlink:href="#HiraginoSans-W4-4eba"/>
      <use xlink:href="#HiraginoSans-W4-6570" x="99.999985"/>
     </g>
    </g>
   </g>
   <g id="line2d_16">
    <path d="M 72.003024 287.460004 
L 75.232132 287.235695 
L 78.461241 286.970892 
L 81.690349 286.65938 
L 84.919457 286.294213 
L 88.148565 285.867658 
L 91.377674 285.371163 
L 94.606782 284.795315 
L 97.83589 284.129817 
L 101.064998 283.36347 
L 104.294107 282.48417 
L 107.523215 281.47892 
L 110.752323 280.333856 
L 113.981432 279.034302 
L 117.21054 277.564833 
L 120.439648 275.909377 
L 123.668756 274.051332 
L 126.897865 271.973714 
L 130.126973 269.659335 
L 133.356081 267.09101 
L 136.585189 264.251792 
L 139.814298 261.125231 
L 143.043406 257.695671 
L 146.272514 253.948559 
L 149.501622 249.870782 
L 152.730731 245.451021 
L 155.959839 240.680112 
L 159.188947 235.551419 
L 162.418056 230.061201 
L 165.647164 224.20897 
L 168.876272 217.99784 
L 172.10538 211.43484 
L 175.334489 204.531199 
L 178.563597 197.302586 
L 181.792705 189.769297 
L 185.021813 181.956383 
L 188.250922 173.893709 
L 191.48003 165.615937 
L 194.709138 157.162426 
L 197.938247 148.577054 
L 201.167355 139.907945 
L 204.396463 131.207111 
L 207.625571 122.53001 
L 210.85468 113.935011 
L 214.083788 105.482795 
L 217.312896 97.235675 
L 220.542004 89.256858 
L 223.771113 81.609659 
L 227.000221 74.356683 
L 230.229329 67.558975 
L 233.458438 61.275179 
L 236.687546 55.560692 
L 239.916654 50.46686 
L 243.145762 46.040206 
L 246.374871 42.321728 
L 249.603979 39.346264 
L 252.833087 37.141949 
L 256.062195 35.729774 
L 259.291304 35.12325 
L 262.520412 35.328197 
L 265.74952 36.342648 
L 268.978628 38.15688 
L 272.207737 40.753572 
L 275.436845 44.108078 
L 278.665953 48.188815 
L 281.895062 52.957765 
L 285.12417 58.371054 
L 288.353278 64.379633 
L 291.582386 70.930012 
L 294.811495 77.965051 
L 298.040603 85.424789 
L 301.269711 93.247286 
L 304.498819 101.369476 
L 307.727928 109.727996 
L 310.957036 118.259995 
L 314.186144 126.903896 
L 317.415253 135.600104 
L 320.644361 144.291649 
L 323.873469 152.924752 
L 327.102577 161.449313 
L 330.331686 169.819313 
L 333.560794 177.993127 
L 336.789902 185.933748 
L 340.01901 193.60893 
L 343.248119 200.991242 
L 346.477227 208.058044 
L 349.706335 214.791395 
L 352.935443 221.177896 
L 356.164552 227.20847 
L 359.39366 232.878103 
L 362.622768 238.185541 
L 365.851877 243.132957 
L 369.080985 247.725601 
L 372.310093 251.971431 
L 375.539201 255.880744 
L 378.76831 259.46581 
L 381.997418 262.740512 
L 385.226526 265.720001 
L 388.455634 268.420372 
L 391.684743 270.858359 
L 394.913851 273.051062 
" clip-path="url(#p75e9b8b749)" style="fill: none; stroke: #ff7f0e; stroke-width: 2; stroke-linecap: square"/>
   </g>
   <g id="patch_204">
    <path d="M 54.898438 288.56325 
L 54.898438 22.45125 
" style="fill: none; stroke: #000000; stroke-width: 0.8; stroke-linejoin: miter; stroke-linecap: square"/>
   </g>
   <g id="patch_205">
    <path d="M 412.018438 288.56325 
L 412.018438 22.45125 
" style="fill: none; stroke: #000000; stroke-width: 0.8; stroke-linejoin: miter; stroke-linecap: square"/>
   </g>
   <g id="patch_206">
    <path d="M 54.898438 288.56325 
L 412.018438 288.56325 
" style="fill: none; stroke: #000000; stroke-width: 0.8; stroke-linejoin: miter; stroke-linecap: square"/>
   </g>
   <g id="patch_207">
    <path d="M 54.898438 22.45125 
L 412.018438 22.45125 
" style="fill: none; stroke: #000000; stroke-width: 0.8; stroke-linejoin: miter; stroke-linecap: square"/>
   </g>
   <g id="text_18">
    <!-- 国語 -->
    <g transform="translate(221.458438 16.45125) scale(0.12 -0.12)">
     <defs>
      <path id="HiraginoSans-W4-56fd" d="M 2912 3674 
L 2912 2771 
L 2266 2771 
C 1978 2771 1850 2778 1696 2803 
L 1696 2336 
C 1862 2362 1997 2368 2266 2368 
L 2912 2368 
L 2912 1299 
L 2003 1299 
C 1728 1299 1562 1312 1382 1338 
L 1382 845 
C 1574 870 1734 877 2003 877 
L 4403 877 
C 4653 877 4851 864 5030 845 
L 5030 1338 
C 4851 1312 4678 1299 4403 1299 
L 3386 1299 
L 3386 2368 
L 4134 2368 
C 4403 2368 4538 2362 4704 2336 
L 4704 2803 
C 4550 2778 4422 2771 4134 2771 
L 3386 2771 
L 3386 3674 
L 4320 3674 
C 4608 3674 4762 3667 4934 3642 
L 4934 4122 
C 4774 4090 4608 4083 4320 4083 
L 2086 4083 
C 1792 4083 1677 4090 1491 4122 
L 1491 3642 
C 1658 3667 1811 3674 2086 3674 
L 2912 3674 
z
M 3834 2118 
C 4045 1882 4147 1741 4365 1357 
L 4710 1568 
C 4506 1901 4390 2054 4154 2304 
L 3834 2118 
z
M 538 358 
C 538 -96 525 -314 499 -493 
L 1030 -493 
L 1030 -115 
L 5370 -115 
L 5370 -493 
L 5894 -493 
C 5869 -314 5856 -83 5856 358 
L 5856 4326 
C 5856 4653 5869 4877 5894 5107 
C 5651 5082 5472 5075 5133 5075 
L 1254 5075 
C 902 5075 710 5082 499 5107 
C 525 4845 538 4621 538 4326 
L 538 358 
z
M 1030 4640 
L 5363 4640 
L 5363 320 
L 1030 320 
L 1030 4640 
z
" transform="scale(0.015625)"/>
      <path id="HiraginoSans-W4-8a9e" d="M 3187 2714 
C 2880 2714 2746 2720 2554 2746 
L 2554 2253 
C 2739 2278 2899 2285 3187 2285 
L 5536 2285 
C 5786 2285 5939 2278 6157 2253 
L 6157 2752 
C 5965 2720 5850 2714 5510 2714 
L 5510 3507 
C 5510 3770 5517 3898 5536 4038 
C 5389 4019 5254 4013 4998 4013 
L 4211 4013 
C 4269 4237 4269 4237 4365 4678 
L 5414 4678 
C 5709 4678 5862 4672 6048 4646 
L 6048 5139 
C 5882 5120 5690 5107 5395 5107 
L 3405 5107 
C 3117 5107 2938 5114 2739 5139 
L 2739 4646 
C 2925 4672 3085 4678 3379 4678 
L 3891 4678 
C 3834 4384 3814 4282 3744 4013 
L 3418 4013 
C 3194 4013 3034 4019 2874 4038 
L 2874 3565 
C 3034 3584 3226 3597 3411 3597 
L 3629 3597 
C 3526 3264 3462 3072 3322 2714 
L 3187 2714 
z
M 3808 2714 
C 3936 3066 3981 3206 4096 3597 
L 5043 3597 
L 5043 2714 
L 3808 2714 
z
M 563 4698 
C 717 4717 851 4723 1062 4723 
L 1907 4723 
C 2150 4723 2240 4717 2406 4698 
L 2406 5171 
C 2259 5146 2144 5139 1907 5139 
L 1062 5139 
C 826 5139 710 5146 563 5171 
L 563 4698 
z
M 346 3802 
C 493 3821 627 3827 858 3827 
L 2029 3827 
C 2278 3827 2400 3821 2541 3802 
L 2541 4282 
C 2406 4262 2266 4256 1984 4256 
L 858 4256 
C 614 4256 493 4262 346 4288 
L 346 3802 
z
M 589 2918 
C 723 2938 832 2944 1037 2944 
L 1965 2944 
C 2170 2944 2253 2938 2406 2918 
L 2406 3373 
C 2285 3354 2182 3347 1965 3347 
L 1037 3347 
C 819 3347 723 3354 589 3373 
L 589 2918 
z
M 589 2029 
C 730 2048 838 2054 1037 2054 
L 1958 2054 
C 2176 2054 2259 2048 2406 2029 
L 2406 2477 
C 2266 2464 2182 2458 1965 2458 
L 1037 2458 
C 826 2458 717 2464 589 2477 
L 589 2029 
z
M 582 147 
C 582 -96 570 -294 544 -474 
L 1024 -474 
L 1024 -141 
L 1971 -141 
L 1971 -390 
L 2432 -390 
C 2413 -224 2406 -90 2406 128 
L 2406 1088 
C 2406 1331 2413 1453 2426 1581 
C 2310 1562 2240 1562 1971 1562 
L 1056 1562 
C 870 1562 723 1568 550 1587 
C 576 1421 582 1274 582 1062 
L 582 147 
z
M 1024 1165 
L 1971 1165 
L 1971 262 
L 1024 262 
L 1024 1165 
z
M 2944 147 
C 2944 -128 2931 -326 2912 -480 
L 3418 -480 
L 3418 -173 
L 5274 -173 
L 5274 -480 
L 5786 -480 
C 5766 -339 5754 -122 5754 141 
L 5754 1248 
C 5754 1491 5760 1664 5779 1798 
C 5651 1779 5523 1773 5242 1773 
L 3475 1773 
C 3206 1773 3085 1779 2918 1798 
C 2938 1645 2944 1498 2944 1293 
L 2944 147 
z
M 3418 1350 
L 5274 1350 
L 5274 262 
L 3418 262 
L 3418 1350 
z
" transform="scale(0.015625)"/>
     </defs>
     <use xlink:href="#HiraginoSans-W4-56fd"/>
     <use xlink:href="#HiraginoSans-W4-8a9e" x="99.999985"/>
    </g>
   </g>
  </g>
 </g>
 <defs>
  <clipPath id="p75e9b8b749">
   <rect x="54.898438" y="22.45125" width="357.12" height="266.112"/>
  </clipPath>
 </defs>
</svg>
