<?xml version="1.0" encoding="utf-8" standalone="no"?>
<!DOCTYPE svg PUBLIC "-//W3C//DTD SVG 1.1//EN"
  "http://www.w3.org/Graphics/SVG/1.1/DTD/svg11.dtd">
<svg xmlns:xlink="http://www.w3.org/1999/xlink" width="419.218437pt" height="326.282pt" viewBox="0 0 419.218437 326.282" xmlns="http://www.w3.org/2000/svg" version="1.1">
 <metadata>
  <rdf:RDF xmlns:dc="http://purl.org/dc/elements/1.1/" xmlns:cc="http://creativecommons.org/ns#" xmlns:rdf="http://www.w3.org/1999/02/22-rdf-syntax-ns#">
   <cc:Work>
    <dc:type rdf:resource="http://purl.org/dc/dcmitype/StillImage"/>
    <dc:date>2024-07-06T09:42:47.817584</dc:date>
    <dc:format>image/svg+xml</dc:format>
    <dc:creator>
     <cc:Agent>
      <dc:title>Matplotlib v3.9.1, https://matplotlib.org/</dc:title>
     </cc:Agent>
    </dc:creator>
   </cc:Work>
  </rdf:RDF>
 </metadata>
 <defs>
  <style type="text/css">*{stroke-linejoin: round; stroke-linecap: butt}</style>
 </defs>
 <g id="figure_1">
  <g id="patch_1">
   <path d="M 0 326.282 
L 419.218437 326.282 
L 419.218437 0 
L 0 0 
z
" style="fill: #ffffff"/>
  </g>
  <g id="axes_1">
   <g id="patch_2">
    <path d="M 54.898438 288.56325 
L 412.018438 288.56325 
L 412.018438 22.45125 
L 54.898438 22.45125 
z
" style="fill: #ffffff"/>
   </g>
   <g id="patch_3">
    <path d="M 71.131165 288.56325 
L 74.599971 288.56325 
L 74.599971 287.858255 
L 71.131165 287.858255 
z
" clip-path="url(#p412518c32f)" style="fill: #aec7e8"/>
   </g>
   <g id="patch_4">
    <path d="M 74.343022 288.56325 
L 77.811828 288.56325 
L 77.811828 288.56325 
L 74.343022 288.56325 
z
" clip-path="url(#p412518c32f)" style="fill: #aec7e8"/>
   </g>
   <g id="patch_5">
    <path d="M 77.55488 288.56325 
L 81.023686 288.56325 
L 81.023686 288.083854 
L 77.55488 288.083854 
z
" clip-path="url(#p412518c32f)" style="fill: #aec7e8"/>
   </g>
   <g id="patch_6">
    <path d="M 80.766737 288.56325 
L 84.235543 288.56325 
L 84.235543 288.422251 
L 80.766737 288.422251 
z
" clip-path="url(#p412518c32f)" style="fill: #aec7e8"/>
   </g>
   <g id="patch_7">
    <path d="M 83.978594 288.56325 
L 87.4474 288.56325 
L 87.4474 287.491658 
L 83.978594 287.491658 
z
" clip-path="url(#p412518c32f)" style="fill: #aec7e8"/>
   </g>
   <g id="patch_8">
    <path d="M 87.190452 288.56325 
L 90.659258 288.56325 
L 90.659258 287.717256 
L 87.190452 287.717256 
z
" clip-path="url(#p412518c32f)" style="fill: #aec7e8"/>
   </g>
   <g id="patch_9">
    <path d="M 90.402309 288.56325 
L 93.871115 288.56325 
L 93.871115 286.307267 
L 90.402309 286.307267 
z
" clip-path="url(#p412518c32f)" style="fill: #aec7e8"/>
   </g>
   <g id="patch_10">
    <path d="M 93.614167 288.56325 
L 97.082973 288.56325 
L 97.082973 285.038277 
L 93.614167 285.038277 
z
" clip-path="url(#p412518c32f)" style="fill: #aec7e8"/>
   </g>
   <g id="patch_11">
    <path d="M 96.826024 288.56325 
L 100.29483 288.56325 
L 100.29483 283.656488 
L 96.826024 283.656488 
z
" clip-path="url(#p412518c32f)" style="fill: #aec7e8"/>
   </g>
   <g id="patch_12">
    <path d="M 100.037881 288.56325 
L 103.506687 288.56325 
L 103.506687 280.836509 
L 100.037881 280.836509 
z
" clip-path="url(#p412518c32f)" style="fill: #aec7e8"/>
   </g>
   <g id="patch_13">
    <path d="M 103.249739 288.56325 
L 106.718545 288.56325 
L 106.718545 276.070746 
L 103.249739 276.070746 
z
" clip-path="url(#p412518c32f)" style="fill: #aec7e8"/>
   </g>
   <g id="patch_14">
    <path d="M 106.461596 288.56325 
L 109.930402 288.56325 
L 109.930402 271.445981 
L 106.461596 271.445981 
z
" clip-path="url(#p412518c32f)" style="fill: #aec7e8"/>
   </g>
   <g id="patch_15">
    <path d="M 109.673454 288.56325 
L 113.142259 288.56325 
L 113.142259 265.411227 
L 109.673454 265.411227 
z
" clip-path="url(#p412518c32f)" style="fill: #aec7e8"/>
   </g>
   <g id="patch_16">
    <path d="M 112.885311 288.56325 
L 116.354117 288.56325 
L 116.354117 259.179075 
L 112.885311 259.179075 
z
" clip-path="url(#p412518c32f)" style="fill: #aec7e8"/>
   </g>
   <g id="patch_17">
    <path d="M 116.097168 288.56325 
L 119.565974 288.56325 
L 119.565974 249.844946 
L 116.097168 249.844946 
z
" clip-path="url(#p412518c32f)" style="fill: #aec7e8"/>
   </g>
   <g id="patch_18">
    <path d="M 119.309026 288.56325 
L 122.777832 288.56325 
L 122.777832 240.990214 
L 119.309026 240.990214 
z
" clip-path="url(#p412518c32f)" style="fill: #aec7e8"/>
   </g>
   <g id="patch_19">
    <path d="M 122.520883 288.56325 
L 125.989689 288.56325 
L 125.989689 228.159312 
L 122.520883 228.159312 
z
" clip-path="url(#p412518c32f)" style="fill: #aec7e8"/>
   </g>
   <g id="patch_20">
    <path d="M 125.73274 288.56325 
L 129.201546 288.56325 
L 129.201546 214.228619 
L 125.73274 214.228619 
z
" clip-path="url(#p412518c32f)" style="fill: #aec7e8"/>
   </g>
   <g id="patch_21">
    <path d="M 128.944598 288.56325 
L 132.413404 288.56325 
L 132.413404 203.033304 
L 128.944598 203.033304 
z
" clip-path="url(#p412518c32f)" style="fill: #aec7e8"/>
   </g>
   <g id="patch_22">
    <path d="M 132.156455 288.56325 
L 135.625261 288.56325 
L 135.625261 192.260987 
L 132.156455 192.260987 
z
" clip-path="url(#p412518c32f)" style="fill: #aec7e8"/>
   </g>
   <g id="patch_23">
    <path d="M 135.368313 288.56325 
L 138.837119 288.56325 
L 138.837119 182.052665 
L 135.368313 182.052665 
z
" clip-path="url(#p412518c32f)" style="fill: #aec7e8"/>
   </g>
   <g id="patch_24">
    <path d="M 138.58017 288.56325 
L 142.048976 288.56325 
L 142.048976 166.486384 
L 138.58017 166.486384 
z
" clip-path="url(#p412518c32f)" style="fill: #aec7e8"/>
   </g>
   <g id="patch_25">
    <path d="M 141.792027 288.56325 
L 145.260833 288.56325 
L 145.260833 152.499291 
L 141.792027 152.499291 
z
" clip-path="url(#p412518c32f)" style="fill: #aec7e8"/>
   </g>
   <g id="patch_26">
    <path d="M 145.003885 288.56325 
L 148.472691 288.56325 
L 148.472691 148.974318 
L 145.003885 148.974318 
z
" clip-path="url(#p412518c32f)" style="fill: #aec7e8"/>
   </g>
   <g id="patch_27">
    <path d="M 148.215742 288.56325 
L 151.684548 288.56325 
L 151.684548 133.887433 
L 148.215742 133.887433 
z
" clip-path="url(#p412518c32f)" style="fill: #aec7e8"/>
   </g>
   <g id="patch_28">
    <path d="M 151.4276 288.56325 
L 154.896406 288.56325 
L 154.896406 129.488267 
L 151.4276 129.488267 
z
" clip-path="url(#p412518c32f)" style="fill: #aec7e8"/>
   </g>
   <g id="patch_29">
    <path d="M 154.639457 288.56325 
L 158.108263 288.56325 
L 158.108263 120.859133 
L 154.639457 120.859133 
z
" clip-path="url(#p412518c32f)" style="fill: #aec7e8"/>
   </g>
   <g id="patch_30">
    <path d="M 157.851314 288.56325 
L 161.32012 288.56325 
L 161.32012 117.193161 
L 157.851314 117.193161 
z
" clip-path="url(#p412518c32f)" style="fill: #aec7e8"/>
   </g>
   <g id="patch_31">
    <path d="M 161.063172 288.56325 
L 164.531978 288.56325 
L 164.531978 111.609603 
L 161.063172 111.609603 
z
" clip-path="url(#p412518c32f)" style="fill: #aec7e8"/>
   </g>
   <g id="patch_32">
    <path d="M 164.275029 288.56325 
L 167.743835 288.56325 
L 167.743835 109.184422 
L 164.275029 109.184422 
z
" clip-path="url(#p412518c32f)" style="fill: #aec7e8"/>
   </g>
   <g id="patch_33">
    <path d="M 167.486887 288.56325 
L 170.955693 288.56325 
L 170.955693 104.869855 
L 167.486887 104.869855 
z
" clip-path="url(#p412518c32f)" style="fill: #aec7e8"/>
   </g>
   <g id="patch_34">
    <path d="M 170.698744 288.56325 
L 174.16755 288.56325 
L 174.16755 99.737494 
L 170.698744 99.737494 
z
" clip-path="url(#p412518c32f)" style="fill: #aec7e8"/>
   </g>
   <g id="patch_35">
    <path d="M 173.910601 288.56325 
L 177.379407 288.56325 
L 177.379407 97.368712 
L 173.910601 97.368712 
z
" clip-path="url(#p412518c32f)" style="fill: #aec7e8"/>
   </g>
   <g id="patch_36">
    <path d="M 177.122459 288.56325 
L 180.591265 288.56325 
L 180.591265 98.440304 
L 177.122459 98.440304 
z
" clip-path="url(#p412518c32f)" style="fill: #aec7e8"/>
   </g>
   <g id="patch_37">
    <path d="M 180.334316 288.56325 
L 183.803122 288.56325 
L 183.803122 96.099722 
L 180.334316 96.099722 
z
" clip-path="url(#p412518c32f)" style="fill: #aec7e8"/>
   </g>
   <g id="patch_38">
    <path d="M 183.546174 288.56325 
L 187.01498 288.56325 
L 187.01498 95.592126 
L 183.546174 95.592126 
z
" clip-path="url(#p412518c32f)" style="fill: #aec7e8"/>
   </g>
   <g id="patch_39">
    <path d="M 186.758031 288.56325 
L 190.226837 288.56325 
L 190.226837 91.785155 
L 186.758031 91.785155 
z
" clip-path="url(#p412518c32f)" style="fill: #aec7e8"/>
   </g>
   <g id="patch_40">
    <path d="M 189.969888 288.56325 
L 193.438694 288.56325 
L 193.438694 92.123552 
L 189.969888 92.123552 
z
" clip-path="url(#p412518c32f)" style="fill: #aec7e8"/>
   </g>
   <g id="patch_41">
    <path d="M 193.181746 288.56325 
L 196.650552 288.56325 
L 196.650552 91.221159 
L 193.181746 91.221159 
z
" clip-path="url(#p412518c32f)" style="fill: #aec7e8"/>
   </g>
   <g id="patch_42">
    <path d="M 196.393603 288.56325 
L 199.862409 288.56325 
L 199.862409 87.639787 
L 196.393603 87.639787 
z
" clip-path="url(#p412518c32f)" style="fill: #aec7e8"/>
   </g>
   <g id="patch_43">
    <path d="M 199.605461 288.56325 
L 203.074267 288.56325 
L 203.074267 90.375166 
L 199.605461 90.375166 
z
" clip-path="url(#p412518c32f)" style="fill: #aec7e8"/>
   </g>
   <g id="patch_44">
    <path d="M 202.817318 288.56325 
L 206.286124 288.56325 
L 206.286124 86.257997 
L 202.817318 86.257997 
z
" clip-path="url(#p412518c32f)" style="fill: #aec7e8"/>
   </g>
   <g id="patch_45">
    <path d="M 206.029175 288.56325 
L 209.497981 288.56325 
L 209.497981 84.763409 
L 206.029175 84.763409 
z
" clip-path="url(#p412518c32f)" style="fill: #aec7e8"/>
   </g>
   <g id="patch_46">
    <path d="M 209.241033 288.56325 
L 212.709839 288.56325 
L 212.709839 84.481411 
L 209.241033 84.481411 
z
" clip-path="url(#p412518c32f)" style="fill: #aec7e8"/>
   </g>
   <g id="patch_47">
    <path d="M 212.45289 288.56325 
L 215.921696 288.56325 
L 215.921696 82.789424 
L 212.45289 82.789424 
z
" clip-path="url(#p412518c32f)" style="fill: #aec7e8"/>
   </g>
   <g id="patch_48">
    <path d="M 215.664748 288.56325 
L 219.133554 288.56325 
L 219.133554 79.546449 
L 215.664748 79.546449 
z
" clip-path="url(#p412518c32f)" style="fill: #aec7e8"/>
   </g>
   <g id="patch_49">
    <path d="M 218.876605 288.56325 
L 222.345411 288.56325 
L 222.345411 78.728655 
L 218.876605 78.728655 
z
" clip-path="url(#p412518c32f)" style="fill: #aec7e8"/>
   </g>
   <g id="patch_50">
    <path d="M 222.088462 288.56325 
L 225.557268 288.56325 
L 225.557268 79.095252 
L 222.088462 79.095252 
z
" clip-path="url(#p412518c32f)" style="fill: #aec7e8"/>
   </g>
   <g id="patch_51">
    <path d="M 225.30032 288.56325 
L 228.769126 288.56325 
L 228.769126 77.657063 
L 225.30032 77.657063 
z
" clip-path="url(#p412518c32f)" style="fill: #aec7e8"/>
   </g>
   <g id="patch_52">
    <path d="M 228.512177 288.56325 
L 231.980983 288.56325 
L 231.980983 75.570279 
L 228.512177 75.570279 
z
" clip-path="url(#p412518c32f)" style="fill: #aec7e8"/>
   </g>
   <g id="patch_53">
    <path d="M 231.724035 288.56325 
L 235.19284 288.56325 
L 235.19284 78.192859 
L 231.724035 78.192859 
z
" clip-path="url(#p412518c32f)" style="fill: #aec7e8"/>
   </g>
   <g id="patch_54">
    <path d="M 234.935892 288.56325 
L 238.404698 288.56325 
L 238.404698 79.602848 
L 234.935892 79.602848 
z
" clip-path="url(#p412518c32f)" style="fill: #aec7e8"/>
   </g>
   <g id="patch_55">
    <path d="M 238.147749 288.56325 
L 241.616555 288.56325 
L 241.616555 79.32085 
L 238.147749 79.32085 
z
" clip-path="url(#p412518c32f)" style="fill: #aec7e8"/>
   </g>
   <g id="patch_56">
    <path d="M 241.359607 288.56325 
L 244.828413 288.56325 
L 244.828413 79.236251 
L 241.359607 79.236251 
z
" clip-path="url(#p412518c32f)" style="fill: #aec7e8"/>
   </g>
   <g id="patch_57">
    <path d="M 244.571464 288.56325 
L 248.04027 288.56325 
L 248.04027 76.218874 
L 244.571464 76.218874 
z
" clip-path="url(#p412518c32f)" style="fill: #aec7e8"/>
   </g>
   <g id="patch_58">
    <path d="M 247.783321 288.56325 
L 251.252127 288.56325 
L 251.252127 81.294835 
L 247.783321 81.294835 
z
" clip-path="url(#p412518c32f)" style="fill: #aec7e8"/>
   </g>
   <g id="patch_59">
    <path d="M 250.995179 288.56325 
L 254.463985 288.56325 
L 254.463985 80.195044 
L 250.995179 80.195044 
z
" clip-path="url(#p412518c32f)" style="fill: #aec7e8"/>
   </g>
   <g id="patch_60">
    <path d="M 254.207036 288.56325 
L 257.675842 288.56325 
L 257.675842 78.05186 
L 254.207036 78.05186 
z
" clip-path="url(#p412518c32f)" style="fill: #aec7e8"/>
   </g>
   <g id="patch_61">
    <path d="M 257.418894 288.56325 
L 260.8877 288.56325 
L 260.8877 83.494419 
L 257.418894 83.494419 
z
" clip-path="url(#p412518c32f)" style="fill: #aec7e8"/>
   </g>
   <g id="patch_62">
    <path d="M 260.630751 288.56325 
L 264.099557 288.56325 
L 264.099557 83.409819 
L 260.630751 83.409819 
z
" clip-path="url(#p412518c32f)" style="fill: #aec7e8"/>
   </g>
   <g id="patch_63">
    <path d="M 263.842608 288.56325 
L 267.311414 288.56325 
L 267.311414 87.526988 
L 263.842608 87.526988 
z
" clip-path="url(#p412518c32f)" style="fill: #aec7e8"/>
   </g>
   <g id="patch_64">
    <path d="M 267.054466 288.56325 
L 270.523272 288.56325 
L 270.523272 87.555187 
L 267.054466 87.555187 
z
" clip-path="url(#p412518c32f)" style="fill: #aec7e8"/>
   </g>
   <g id="patch_65">
    <path d="M 270.266323 288.56325 
L 273.735129 288.56325 
L 273.735129 94.576934 
L 270.266323 94.576934 
z
" clip-path="url(#p412518c32f)" style="fill: #aec7e8"/>
   </g>
   <g id="patch_66">
    <path d="M 273.478181 288.56325 
L 276.946987 288.56325 
L 276.946987 90.318766 
L 273.478181 90.318766 
z
" clip-path="url(#p412518c32f)" style="fill: #aec7e8"/>
   </g>
   <g id="patch_67">
    <path d="M 276.690038 288.56325 
L 280.158844 288.56325 
L 280.158844 96.579118 
L 276.690038 96.579118 
z
" clip-path="url(#p412518c32f)" style="fill: #aec7e8"/>
   </g>
   <g id="patch_68">
    <path d="M 279.901895 288.56325 
L 283.370701 288.56325 
L 283.370701 99.765694 
L 279.901895 99.765694 
z
" clip-path="url(#p412518c32f)" style="fill: #aec7e8"/>
   </g>
   <g id="patch_69">
    <path d="M 283.113753 288.56325 
L 286.582559 288.56325 
L 286.582559 99.991292 
L 283.113753 99.991292 
z
" clip-path="url(#p412518c32f)" style="fill: #aec7e8"/>
   </g>
   <g id="patch_70">
    <path d="M 286.32561 288.56325 
L 289.794416 288.56325 
L 289.794416 108.817825 
L 286.32561 108.817825 
z
" clip-path="url(#p412518c32f)" style="fill: #aec7e8"/>
   </g>
   <g id="patch_71">
    <path d="M 289.537468 288.56325 
L 293.006274 288.56325 
L 293.006274 105.800448 
L 289.537468 105.800448 
z
" clip-path="url(#p412518c32f)" style="fill: #aec7e8"/>
   </g>
   <g id="patch_72">
    <path d="M 292.749325 288.56325 
L 296.218131 288.56325 
L 296.218131 117.531558 
L 292.749325 117.531558 
z
" clip-path="url(#p412518c32f)" style="fill: #aec7e8"/>
   </g>
   <g id="patch_73">
    <path d="M 295.961182 288.56325 
L 299.429988 288.56325 
L 299.429988 122.015324 
L 295.961182 122.015324 
z
" clip-path="url(#p412518c32f)" style="fill: #aec7e8"/>
   </g>
   <g id="patch_74">
    <path d="M 299.17304 288.56325 
L 302.641846 288.56325 
L 302.641846 124.045708 
L 299.17304 124.045708 
z
" clip-path="url(#p412518c32f)" style="fill: #aec7e8"/>
   </g>
   <g id="patch_75">
    <path d="M 302.384897 288.56325 
L 305.853703 288.56325 
L 305.853703 127.71168 
L 302.384897 127.71168 
z
" clip-path="url(#p412518c32f)" style="fill: #aec7e8"/>
   </g>
   <g id="patch_76">
    <path d="M 305.596755 288.56325 
L 309.065561 288.56325 
L 309.065561 131.434052 
L 305.596755 131.434052 
z
" clip-path="url(#p412518c32f)" style="fill: #aec7e8"/>
   </g>
   <g id="patch_77">
    <path d="M 308.808612 288.56325 
L 312.277418 288.56325 
L 312.277418 140.76818 
L 308.808612 140.76818 
z
" clip-path="url(#p412518c32f)" style="fill: #aec7e8"/>
   </g>
   <g id="patch_78">
    <path d="M 312.020469 288.56325 
L 315.489275 288.56325 
L 315.489275 143.898356 
L 312.020469 143.898356 
z
" clip-path="url(#p412518c32f)" style="fill: #aec7e8"/>
   </g>
   <g id="patch_79">
    <path d="M 315.232327 288.56325 
L 318.701133 288.56325 
L 318.701133 144.349553 
L 315.232327 144.349553 
z
" clip-path="url(#p412518c32f)" style="fill: #aec7e8"/>
   </g>
   <g id="patch_80">
    <path d="M 318.444184 288.56325 
L 321.91299 288.56325 
L 321.91299 155.601267 
L 318.444184 155.601267 
z
" clip-path="url(#p412518c32f)" style="fill: #aec7e8"/>
   </g>
   <g id="patch_81">
    <path d="M 321.656042 288.56325 
L 325.124848 288.56325 
L 325.124848 159.380038 
L 321.656042 159.380038 
z
" clip-path="url(#p412518c32f)" style="fill: #aec7e8"/>
   </g>
   <g id="patch_82">
    <path d="M 324.867899 288.56325 
L 328.336705 288.56325 
L 328.336705 168.939765 
L 324.867899 168.939765 
z
" clip-path="url(#p412518c32f)" style="fill: #aec7e8"/>
   </g>
   <g id="patch_83">
    <path d="M 328.079756 288.56325 
L 331.548562 288.56325 
L 331.548562 173.620929 
L 328.079756 173.620929 
z
" clip-path="url(#p412518c32f)" style="fill: #aec7e8"/>
   </g>
   <g id="patch_84">
    <path d="M 331.291614 288.56325 
L 334.76042 288.56325 
L 334.76042 176.271709 
L 331.291614 176.271709 
z
" clip-path="url(#p412518c32f)" style="fill: #aec7e8"/>
   </g>
   <g id="patch_85">
    <path d="M 334.503471 288.56325 
L 337.972277 288.56325 
L 337.972277 185.352039 
L 334.503471 185.352039 
z
" clip-path="url(#p412518c32f)" style="fill: #aec7e8"/>
   </g>
   <g id="patch_86">
    <path d="M 337.715329 288.56325 
L 341.184135 288.56325 
L 341.184135 187.91822 
L 337.715329 187.91822 
z
" clip-path="url(#p412518c32f)" style="fill: #aec7e8"/>
   </g>
   <g id="patch_87">
    <path d="M 340.927186 288.56325 
L 344.395992 288.56325 
L 344.395992 195.67316 
L 340.927186 195.67316 
z
" clip-path="url(#p412518c32f)" style="fill: #aec7e8"/>
   </g>
   <g id="patch_88">
    <path d="M 344.139043 288.56325 
L 347.607849 288.56325 
L 347.607849 208.447663 
L 344.139043 208.447663 
z
" clip-path="url(#p412518c32f)" style="fill: #aec7e8"/>
   </g>
   <g id="patch_89">
    <path d="M 347.350901 288.56325 
L 350.819707 288.56325 
L 350.819707 199.62113 
L 347.350901 199.62113 
z
" clip-path="url(#p412518c32f)" style="fill: #aec7e8"/>
   </g>
   <g id="patch_90">
    <path d="M 350.562758 288.56325 
L 354.031564 288.56325 
L 354.031564 220.62997 
L 350.562758 220.62997 
z
" clip-path="url(#p412518c32f)" style="fill: #aec7e8"/>
   </g>
   <g id="patch_91">
    <path d="M 353.774616 288.56325 
L 357.243421 288.56325 
L 357.243421 226.410925 
L 353.774616 226.410925 
z
" clip-path="url(#p412518c32f)" style="fill: #aec7e8"/>
   </g>
   <g id="patch_92">
    <path d="M 356.986473 288.56325 
L 360.455279 288.56325 
L 360.455279 214.256818 
L 356.986473 214.256818 
z
" clip-path="url(#p412518c32f)" style="fill: #aec7e8"/>
   </g>
   <g id="patch_93">
    <path d="M 360.19833 288.56325 
L 363.667136 288.56325 
L 363.667136 245.107382 
L 360.19833 245.107382 
z
" clip-path="url(#p412518c32f)" style="fill: #aec7e8"/>
   </g>
   <g id="patch_94">
    <path d="M 363.410188 288.56325 
L 366.878994 288.56325 
L 366.878994 233.432672 
L 363.410188 233.432672 
z
" clip-path="url(#p412518c32f)" style="fill: #aec7e8"/>
   </g>
   <g id="patch_95">
    <path d="M 366.622045 288.56325 
L 370.090851 288.56325 
L 370.090851 231.797084 
L 366.622045 231.797084 
z
" clip-path="url(#p412518c32f)" style="fill: #aec7e8"/>
   </g>
   <g id="patch_96">
    <path d="M 369.833902 288.56325 
L 373.302708 288.56325 
L 373.302708 269.923193 
L 369.833902 269.923193 
z
" clip-path="url(#p412518c32f)" style="fill: #aec7e8"/>
   </g>
   <g id="patch_97">
    <path d="M 373.04576 288.56325 
L 376.514566 288.56325 
L 376.514566 241.413211 
L 373.04576 241.413211 
z
" clip-path="url(#p412518c32f)" style="fill: #aec7e8"/>
   </g>
   <g id="patch_98">
    <path d="M 376.257617 288.56325 
L 379.726423 288.56325 
L 379.726423 258.333081 
L 376.257617 258.333081 
z
" clip-path="url(#p412518c32f)" style="fill: #aec7e8"/>
   </g>
   <g id="patch_99">
    <path d="M 379.469475 288.56325 
L 382.938281 288.56325 
L 382.938281 285.433074 
L 379.469475 285.433074 
z
" clip-path="url(#p412518c32f)" style="fill: #aec7e8"/>
   </g>
   <g id="patch_100">
    <path d="M 382.681332 288.56325 
L 386.150138 288.56325 
L 386.150138 253.736516 
L 382.681332 253.736516 
z
" clip-path="url(#p412518c32f)" style="fill: #aec7e8"/>
   </g>
   <g id="patch_101">
    <path d="M 385.893189 288.56325 
L 389.361995 288.56325 
L 389.361995 282.443897 
L 385.893189 282.443897 
z
" clip-path="url(#p412518c32f)" style="fill: #aec7e8"/>
   </g>
   <g id="patch_102">
    <path d="M 389.105047 288.56325 
L 392.573853 288.56325 
L 392.573853 288.56325 
L 389.105047 288.56325 
z
" clip-path="url(#p412518c32f)" style="fill: #aec7e8"/>
   </g>
   <g id="patch_103">
    <path d="M 392.316904 288.56325 
L 395.78571 288.56325 
L 395.78571 278.947124 
L 392.316904 278.947124 
z
" clip-path="url(#p412518c32f)" style="fill: #aec7e8"/>
   </g>
   <g id="matplotlib.axis_1">
    <g id="xtick_1">
     <g id="line2d_1">
      <defs>
       <path id="m3bba7b7fe5" d="M 0 0 
L 0 3.5 
" style="stroke: #000000; stroke-width: 0.8"/>
      </defs>
      <g>
       <use xlink:href="#m3bba7b7fe5" x="72.865568" y="288.56325" style="stroke: #000000; stroke-width: 0.8"/>
      </g>
     </g>
     <g id="text_1">
      <!-- 0 -->
      <g transform="translate(69.500724 303.272625) scale(0.1 -0.1)">
       <defs>
        <path id="HiraginoSans-W4-30" d="M 2144 -90 
C 2758 -90 3232 141 3565 602 
C 3846 998 4019 1696 4019 2464 
C 4019 3002 3936 3501 3770 3949 
C 3693 4160 3558 4371 3379 4550 
C 3078 4858 2650 5024 2157 5024 
C 1498 5024 986 4742 666 4205 
C 435 3834 288 3142 288 2458 
C 288 1939 371 1434 538 986 
C 614 768 749 563 928 384 
C 1242 70 1651 -90 2144 -90 
z
M 2144 4499 
C 2592 4499 2918 4307 3123 3923 
C 3283 3629 3398 3014 3398 2470 
C 3398 2022 3341 1619 3213 1235 
C 3155 1043 3046 870 2912 730 
C 2726 538 2458 435 2150 435 
C 1734 435 1414 614 1197 973 
C 1024 1261 902 1875 902 2451 
C 902 2906 966 3328 1088 3699 
C 1139 3866 1235 4026 1370 4173 
C 1568 4397 1818 4499 2144 4499 
z
" transform="scale(0.015625)"/>
       </defs>
       <use xlink:href="#HiraginoSans-W4-30"/>
      </g>
     </g>
    </g>
    <g id="xtick_2">
     <g id="line2d_2">
      <g>
       <use xlink:href="#m3bba7b7fe5" x="137.102716" y="288.56325" style="stroke: #000000; stroke-width: 0.8"/>
      </g>
     </g>
     <g id="text_2">
      <!-- 20 -->
      <g transform="translate(130.373028 303.272625) scale(0.1 -0.1)">
       <defs>
        <path id="HiraginoSans-W4-32" d="M 3078 0 
C 3424 0 3642 -6 3917 -32 
L 3917 589 
C 3693 557 3430 544 3091 544 
L 1114 544 
C 1280 1114 1606 1478 2451 2042 
C 3181 2528 3341 2656 3546 2912 
C 3738 3142 3846 3443 3846 3744 
C 3846 4525 3200 5030 2202 5030 
C 1613 5030 1158 4858 858 4518 
C 640 4269 531 4026 442 3565 
L 1088 3469 
C 1139 3782 1190 3936 1306 4102 
C 1491 4371 1792 4506 2208 4506 
C 2816 4506 3206 4211 3206 3744 
C 3206 3360 2995 3085 2387 2675 
C 1754 2246 1600 2138 1389 1952 
C 979 1594 710 1229 544 806 
C 448 563 429 461 365 -26 
C 576 -6 678 0 1107 0 
L 3078 0 
z
" transform="scale(0.015625)"/>
       </defs>
       <use xlink:href="#HiraginoSans-W4-32"/>
       <use xlink:href="#HiraginoSans-W4-30" x="67.299988"/>
      </g>
     </g>
    </g>
    <g id="xtick_3">
     <g id="line2d_3">
      <g>
       <use xlink:href="#m3bba7b7fe5" x="201.339864" y="288.56325" style="stroke: #000000; stroke-width: 0.8"/>
      </g>
     </g>
     <g id="text_3">
      <!-- 40 -->
      <g transform="translate(194.60002 303.272625) scale(0.1 -0.1)">
       <defs>
        <path id="HiraginoSans-W4-34" d="M 179 1210 
C 403 1229 589 1235 954 1235 
L 2688 1235 
L 2688 710 
C 2688 410 2675 218 2630 0 
L 3309 0 
C 3270 230 3258 390 3258 704 
L 3258 1235 
L 3494 1235 
C 3763 1235 3910 1222 4154 1190 
L 4154 1798 
C 3917 1766 3750 1754 3494 1754 
L 3258 1754 
L 3258 3853 
C 3258 4358 3264 4544 3296 4934 
L 2701 4934 
C 2560 4704 2445 4550 2214 4269 
L 621 2298 
C 467 2099 326 1939 179 1773 
L 179 1210 
z
M 2688 1747 
L 858 1747 
L 2259 3514 
C 2464 3763 2592 3936 2720 4128 
C 2694 3814 2688 3622 2688 3283 
L 2688 1747 
z
" transform="scale(0.015625)"/>
       </defs>
       <use xlink:href="#HiraginoSans-W4-34"/>
       <use xlink:href="#HiraginoSans-W4-30" x="67.499985"/>
      </g>
     </g>
    </g>
    <g id="xtick_4">
     <g id="line2d_4">
      <g>
       <use xlink:href="#m3bba7b7fe5" x="265.577011" y="288.56325" style="stroke: #000000; stroke-width: 0.8"/>
      </g>
     </g>
     <g id="text_4">
      <!-- 60 -->
      <g transform="translate(258.847324 303.272625) scale(0.1 -0.1)">
       <defs>
        <path id="HiraginoSans-W4-36" d="M 3846 3994 
C 3706 4301 3616 4442 3462 4602 
C 3187 4877 2784 5024 2304 5024 
C 1683 5024 1222 4794 864 4307 
C 557 3891 371 3162 371 2355 
C 371 1446 614 704 1043 320 
C 1331 58 1773 -90 2253 -90 
C 3277 -90 3968 589 3968 1587 
C 3968 2586 3334 3213 2323 3213 
C 1894 3213 1568 3104 1274 2854 
C 1133 2739 1062 2656 941 2458 
C 979 3085 1043 3392 1210 3763 
C 1434 4262 1798 4518 2285 4518 
C 2765 4518 3040 4314 3238 3821 
L 3846 3994 
z
M 2266 2714 
C 2950 2714 3366 2285 3366 1574 
C 3366 1325 3309 1088 3206 922 
C 3008 614 2643 422 2234 422 
C 1568 422 1069 915 1069 1574 
C 1069 2234 1574 2714 2266 2714 
z
" transform="scale(0.015625)"/>
       </defs>
       <use xlink:href="#HiraginoSans-W4-36"/>
       <use xlink:href="#HiraginoSans-W4-30" x="67.299988"/>
      </g>
     </g>
    </g>
    <g id="xtick_5">
     <g id="line2d_5">
      <g>
       <use xlink:href="#m3bba7b7fe5" x="329.814159" y="288.56325" style="stroke: #000000; stroke-width: 0.8"/>
      </g>
     </g>
     <g id="text_5">
      <!-- 80 -->
      <g transform="translate(323.084472 303.272625) scale(0.1 -0.1)">
       <defs>
        <path id="HiraginoSans-W4-38" d="M 1446 2586 
C 1203 2547 1056 2490 851 2355 
C 480 2106 294 1754 294 1299 
C 294 397 966 -102 2163 -102 
C 3347 -102 4006 397 4006 1299 
C 4006 1728 3853 2061 3539 2304 
C 3322 2470 3136 2547 2867 2586 
C 3437 2714 3789 3162 3789 3757 
C 3789 4550 3162 5043 2150 5043 
C 1146 5043 512 4544 512 3750 
C 512 3162 877 2701 1446 2586 
z
M 2150 4538 
C 2784 4538 3187 4211 3187 3699 
C 3187 3155 2797 2829 2157 2829 
C 1510 2829 1114 3162 1114 3699 
C 1114 4211 1523 4538 2150 4538 
z
M 2157 2304 
C 2912 2304 3373 1939 3373 1344 
C 3373 749 2925 410 2144 410 
C 1376 410 928 749 928 1338 
C 928 1939 1389 2304 2157 2304 
z
" transform="scale(0.015625)"/>
       </defs>
       <use xlink:href="#HiraginoSans-W4-38"/>
       <use xlink:href="#HiraginoSans-W4-30" x="67.299988"/>
      </g>
     </g>
    </g>
    <g id="xtick_6">
     <g id="line2d_6">
      <g>
       <use xlink:href="#m3bba7b7fe5" x="394.051307" y="288.56325" style="stroke: #000000; stroke-width: 0.8"/>
      </g>
     </g>
     <g id="text_6">
      <!-- 100 -->
      <g transform="translate(383.956776 303.272625) scale(0.1 -0.1)">
       <defs>
        <path id="HiraginoSans-W4-31" d="M 1018 4371 
C 1222 4397 1389 4410 1606 4410 
L 1939 4410 
L 1939 755 
C 1939 454 1926 237 1888 0 
L 2598 0 
C 2560 250 2547 448 2547 755 
L 2547 3904 
C 2547 4256 2566 4582 2605 4966 
C 2387 4941 2278 4934 2035 4934 
L 1581 4934 
C 1325 4934 1197 4941 1018 4966 
L 1018 4371 
z
" transform="scale(0.015625)"/>
       </defs>
       <use xlink:href="#HiraginoSans-W4-31"/>
       <use xlink:href="#HiraginoSans-W4-30" x="67.299988"/>
       <use xlink:href="#HiraginoSans-W4-30" x="134.599976"/>
      </g>
     </g>
    </g>
    <g id="text_7">
     <!-- 点数 -->
     <g transform="translate(223.458438 317.032) scale(0.1 -0.1)">
      <defs>
       <path id="HiraginoSans-W4-70b9" d="M 3341 4122 
L 5114 4122 
C 5350 4122 5542 4109 5766 4083 
L 5766 4602 
C 5587 4576 5402 4563 5114 4563 
L 3341 4563 
L 3341 4736 
C 3341 4973 3354 5165 3386 5331 
L 2790 5331 
C 2822 5152 2835 4941 2835 4704 
L 2835 3341 
L 1850 3341 
C 1555 3341 1325 3354 1126 3373 
C 1146 3206 1152 3072 1152 2874 
L 1152 1805 
C 1152 1632 1146 1498 1126 1338 
C 1318 1357 1498 1363 1773 1363 
L 4640 1363 
C 4922 1363 5088 1357 5286 1338 
C 5267 1491 5261 1606 5261 1811 
L 5261 2874 
C 5261 3085 5267 3232 5286 3373 
C 5107 3347 4915 3341 4570 3341 
L 3341 3341 
L 3341 4122 
z
M 4774 2893 
L 4774 1818 
L 1645 1818 
L 1645 2893 
L 4774 2893 
z
M 749 -474 
C 1126 -19 1331 352 1562 966 
L 1114 1146 
C 1005 806 941 659 781 403 
C 627 147 531 26 294 -205 
L 749 -474 
z
M 2803 -378 
C 2778 109 2733 435 2618 1018 
L 2176 947 
C 2278 410 2304 141 2304 -474 
L 2803 -378 
z
M 4378 -288 
C 4211 211 4070 563 3827 1069 
L 3405 941 
C 3648 397 3776 26 3885 -480 
L 4378 -288 
z
M 5984 -205 
C 5632 429 5504 640 5126 1165 
L 4704 986 
C 5069 474 5242 160 5523 -467 
L 5984 -205 
z
" transform="scale(0.015625)"/>
       <path id="HiraginoSans-W4-6570" d="M 6170 4173 
C 6003 4141 5862 4134 5568 4134 
L 4288 4134 
C 4365 4384 4435 4627 4512 4947 
C 4557 5126 4563 5152 4595 5235 
L 4077 5344 
C 4070 5158 4032 4934 3974 4672 
C 3782 3853 3437 3130 2995 2598 
C 3142 2509 3226 2438 3354 2291 
C 3526 2515 3610 2643 3770 2931 
C 3904 2176 4070 1702 4397 1158 
C 4013 653 3526 275 2803 -77 
C 2944 -218 3021 -326 3110 -506 
C 3776 -141 4256 250 4666 755 
C 5069 230 5485 -141 6035 -467 
C 6138 -237 6202 -128 6317 13 
C 5747 314 5338 653 4954 1158 
C 5171 1523 5325 1875 5440 2304 
C 5562 2739 5613 3078 5651 3699 
C 5920 3699 6035 3693 6170 3667 
L 6170 4173 
z
M 5184 3699 
C 5133 2797 4992 2214 4672 1600 
C 4358 2170 4192 2707 4064 3539 
C 4096 3610 4102 3629 4128 3699 
L 5184 3699 
z
M 3046 339 
C 2752 512 2656 570 2419 685 
C 2643 992 2746 1190 2880 1626 
L 2963 1626 
C 3187 1626 3309 1619 3443 1594 
L 3443 2067 
C 3328 2042 3206 2035 2989 2035 
L 1862 2035 
C 1926 2176 1958 2234 2029 2426 
L 1562 2528 
C 1485 2285 1453 2202 1382 2035 
L 832 2035 
C 608 2035 493 2042 365 2067 
L 365 1594 
C 499 1619 614 1626 832 1626 
L 1165 1626 
C 1005 1344 941 1248 723 954 
C 1203 774 1402 691 1702 550 
C 1376 294 902 83 326 -58 
C 429 -205 493 -314 563 -480 
C 1325 -224 1715 -19 2112 346 
C 2432 173 2502 122 2778 -77 
L 3046 339 
z
M 2419 1626 
C 2310 1306 2214 1120 2022 870 
C 1818 960 1709 1005 1357 1146 
C 1504 1370 1549 1440 1651 1626 
L 2419 1626 
z
M 2163 4070 
L 2163 4902 
C 2163 5075 2170 5203 2189 5325 
L 1696 5325 
C 1722 5184 1728 5075 1728 4896 
L 1728 4070 
L 915 4070 
C 666 4070 531 4077 390 4102 
L 390 3642 
C 518 3667 678 3674 902 3674 
L 1434 3674 
C 1133 3258 864 3034 269 2688 
C 410 2566 486 2477 589 2317 
C 1184 2739 1408 2963 1747 3494 
C 1734 3366 1728 3258 1728 3162 
L 1728 2835 
C 1728 2752 1722 2662 1702 2586 
L 2182 2586 
C 2170 2662 2163 2758 2163 2848 
L 2163 3168 
C 2163 3258 2157 3347 2138 3494 
C 2355 3162 2490 3014 2848 2739 
C 2989 2970 3002 2982 3130 3110 
C 2816 3277 2566 3469 2406 3674 
L 2989 3674 
C 3200 3674 3309 3667 3418 3648 
L 3418 4096 
C 3322 4077 3200 4070 2995 4070 
L 2163 4070 
z
M 570 5056 
C 774 4768 896 4550 1024 4211 
L 1427 4371 
C 1286 4704 1190 4883 960 5210 
L 570 5056 
z
M 2918 5235 
C 2784 4883 2643 4634 2406 4333 
L 2790 4147 
C 3008 4442 3104 4608 3328 5050 
L 2918 5235 
z
" transform="scale(0.015625)"/>
      </defs>
      <use xlink:href="#HiraginoSans-W4-70b9"/>
      <use xlink:href="#HiraginoSans-W4-6570" x="99.999985"/>
     </g>
    </g>
   </g>
   <g id="matplotlib.axis_2">
    <g id="ytick_1">
     <g id="line2d_7">
      <defs>
       <path id="mc9a3d4d889" d="M 0 0 
L -3.5 0 
" style="stroke: #000000; stroke-width: 0.8"/>
      </defs>
      <g>
       <use xlink:href="#mc9a3d4d889" x="54.898438" y="288.56325" style="stroke: #000000; stroke-width: 0.8"/>
      </g>
     </g>
     <g id="text_8">
      <!-- 0 -->
      <g transform="translate(41.16875 292.417937) scale(0.1 -0.1)">
       <use xlink:href="#HiraginoSans-W4-30"/>
      </g>
     </g>
    </g>
    <g id="ytick_2">
     <g id="line2d_8">
      <g>
       <use xlink:href="#mc9a3d4d889" x="54.898438" y="232.163681" style="stroke: #000000; stroke-width: 0.8"/>
      </g>
     </g>
     <g id="text_9">
      <!-- 2000 -->
      <g transform="translate(20.979687 236.018369) scale(0.1 -0.1)">
       <use xlink:href="#HiraginoSans-W4-32"/>
       <use xlink:href="#HiraginoSans-W4-30" x="67.299988"/>
       <use xlink:href="#HiraginoSans-W4-30" x="134.599976"/>
       <use xlink:href="#HiraginoSans-W4-30" x="201.899963"/>
      </g>
     </g>
    </g>
    <g id="ytick_3">
     <g id="line2d_9">
      <g>
       <use xlink:href="#mc9a3d4d889" x="54.898438" y="175.764113" style="stroke: #000000; stroke-width: 0.8"/>
      </g>
     </g>
     <g id="text_10">
      <!-- 4000 -->
      <g transform="translate(20.959375 179.6188) scale(0.1 -0.1)">
       <use xlink:href="#HiraginoSans-W4-34"/>
       <use xlink:href="#HiraginoSans-W4-30" x="67.499985"/>
       <use xlink:href="#HiraginoSans-W4-30" x="134.799973"/>
       <use xlink:href="#HiraginoSans-W4-30" x="202.09996"/>
      </g>
     </g>
    </g>
    <g id="ytick_4">
     <g id="line2d_10">
      <g>
       <use xlink:href="#mc9a3d4d889" x="54.898438" y="119.364544" style="stroke: #000000; stroke-width: 0.8"/>
      </g>
     </g>
     <g id="text_11">
      <!-- 6000 -->
      <g transform="translate(20.979687 123.219232) scale(0.1 -0.1)">
       <use xlink:href="#HiraginoSans-W4-36"/>
       <use xlink:href="#HiraginoSans-W4-30" x="67.299988"/>
       <use xlink:href="#HiraginoSans-W4-30" x="134.599976"/>
       <use xlink:href="#HiraginoSans-W4-30" x="201.899963"/>
      </g>
     </g>
    </g>
    <g id="ytick_5">
     <g id="line2d_11">
      <g>
       <use xlink:href="#mc9a3d4d889" x="54.898438" y="62.964976" style="stroke: #000000; stroke-width: 0.8"/>
      </g>
     </g>
     <g id="text_12">
      <!-- 8000 -->
      <g transform="translate(20.979687 66.819663) scale(0.1 -0.1)">
       <use xlink:href="#HiraginoSans-W4-38"/>
       <use xlink:href="#HiraginoSans-W4-30" x="67.299988"/>
       <use xlink:href="#HiraginoSans-W4-30" x="134.599976"/>
       <use xlink:href="#HiraginoSans-W4-30" x="201.899963"/>
      </g>
     </g>
    </g>
    <g id="text_13">
     <!-- 人数 -->
     <g transform="translate(14.909375 165.50725) rotate(-90) scale(0.1 -0.1)">
      <defs>
       <path id="HiraginoSans-W4-4eba" d="M 2893 5254 
C 2912 5088 2918 4973 2918 4717 
C 2918 3277 2586 2195 1856 1267 
C 1434 723 1056 422 307 13 
C 486 -134 576 -243 691 -448 
C 1222 -115 1466 77 1824 429 
C 2240 845 2528 1235 2758 1722 
C 2989 2195 3098 2528 3213 3110 
C 3411 2285 3661 1709 4051 1152 
C 4506 512 4954 83 5728 -448 
C 5856 -224 5926 -128 6112 38 
C 5760 243 5606 346 5414 499 
C 5082 768 4736 1120 4499 1434 
C 4109 1946 3750 2682 3616 3226 
C 3533 3565 3456 4262 3456 4672 
C 3456 4858 3475 5152 3494 5254 
L 2893 5254 
z
" transform="scale(0.015625)"/>
      </defs>
      <use xlink:href="#HiraginoSans-W4-4eba"/>
      <use xlink:href="#HiraginoSans-W4-6570" x="99.999985"/>
     </g>
    </g>
   </g>
   <g id="line2d_12">
    <path d="M 72.865568 279.580322 
L 76.077425 278.349994 
L 79.289283 276.980325 
L 82.50114 275.459971 
L 85.712997 273.777291 
L 88.924855 271.920438 
L 92.136712 269.877452 
L 95.34857 267.636378 
L 98.560427 265.185392 
L 101.772284 262.512943 
L 104.984142 259.607907 
L 108.195999 256.459756 
L 111.407857 253.058731 
L 114.619714 249.396036 
L 117.831571 245.464024 
L 121.043429 241.256405 
L 124.255286 236.768442 
L 127.467143 231.997155 
L 130.679001 226.941518 
L 133.890858 221.60265 
L 137.102716 215.983996 
L 140.314573 210.09149 
L 143.52643 203.933703 
L 146.738288 197.521967 
L 149.950145 190.870474 
L 153.162003 183.996342 
L 156.37386 176.919656 
L 159.585717 169.663462 
L 162.797575 162.25373 
L 166.009432 154.719278 
L 169.22129 147.091645 
L 172.433147 139.404933 
L 175.645004 131.695598 
L 178.856862 124.0022 
L 182.068719 116.365119 
L 185.280577 108.826226 
L 188.492434 101.428522 
L 191.704291 94.215748 
L 194.916149 87.231965 
L 198.128006 80.521116 
L 201.339864 74.126576 
L 204.551721 68.090684 
L 207.763578 62.454287 
L 210.975436 57.256273 
L 214.187293 52.533136 
L 217.399151 48.318543 
L 220.611008 44.642935 
L 223.822865 41.533167 
L 227.034723 39.012173 
L 230.24658 37.098693 
L 233.458438 35.807035 
L 236.670295 35.146897 
L 239.882152 35.12325 
L 243.09401 35.736272 
L 246.305867 36.981348 
L 249.517724 38.849125 
L 252.729582 41.325631 
L 255.941439 44.392451 
L 259.153297 48.026949 
L 262.365154 52.202554 
L 265.577011 56.889076 
L 268.788869 62.053074 
L 272.000726 67.658253 
L 275.212584 73.665884 
L 278.424441 80.035251 
L 281.636298 86.724109 
L 284.848156 93.689146 
L 288.060013 100.886444 
L 291.271871 108.271935 
L 294.483728 115.80184 
L 297.695585 123.433089 
L 300.907443 131.123716 
L 304.1193 138.833217 
L 307.331158 146.522887 
L 310.543015 154.156105 
L 313.754872 161.698588 
L 316.96673 169.118598 
L 320.178587 176.387112 
L 323.390445 183.477946 
L 326.602302 190.367833 
L 329.814159 197.03647 
L 333.026017 203.466519 
L 336.237874 209.643573 
L 339.449732 215.556091 
L 342.661589 221.1953 
L 345.873446 226.555076 
L 349.085304 231.631794 
L 352.297161 236.42417 
L 355.509018 240.933076 
L 358.720876 245.161355 
L 361.932733 249.113618 
L 365.144591 252.796049 
L 368.356448 256.2162 
L 371.568305 259.38279 
L 374.780163 262.305512 
L 377.99202 264.994843 
L 381.203878 267.46187 
L 384.415735 269.718116 
L 387.627592 271.77539 
L 390.83945 273.645643 
L 394.051307 275.340836 
" clip-path="url(#p412518c32f)" style="fill: none; stroke: #ff7f0e; stroke-width: 2; stroke-linecap: square"/>
   </g>
   <g id="patch_104">
    <path d="M 54.898438 288.56325 
L 54.898438 22.45125 
" style="fill: none; stroke: #000000; stroke-width: 0.8; stroke-linejoin: miter; stroke-linecap: square"/>
   </g>
   <g id="patch_105">
    <path d="M 412.018438 288.56325 
L 412.018438 22.45125 
" style="fill: none; stroke: #000000; stroke-width: 0.8; stroke-linejoin: miter; stroke-linecap: square"/>
   </g>
   <g id="patch_106">
    <path d="M 54.898438 288.56325 
L 412.018438 288.56325 
" style="fill: none; stroke: #000000; stroke-width: 0.8; stroke-linejoin: miter; stroke-linecap: square"/>
   </g>
   <g id="patch_107">
    <path d="M 54.898438 22.45125 
L 412.018438 22.45125 
" style="fill: none; stroke: #000000; stroke-width: 0.8; stroke-linejoin: miter; stroke-linecap: square"/>
   </g>
   <g id="text_14">
    <!-- 英語（リーディング） -->
    <g transform="translate(173.458438 16.45125) scale(0.12 -0.12)">
     <defs>
      <path id="HiraginoSans-W4-82f1" d="M 5363 1504 
C 5658 1504 5856 1491 6093 1466 
L 6093 1978 
C 5920 1946 5766 1939 5408 1939 
L 5261 1939 
L 5261 2810 
C 5261 3110 5267 3245 5286 3398 
C 5120 3379 4986 3373 4672 3373 
L 3373 3373 
C 3379 3699 3379 3744 3411 3930 
L 2854 3930 
C 2886 3757 2893 3654 2893 3373 
L 1709 3373 
C 1389 3373 1254 3379 1082 3398 
C 1107 3245 1114 3091 1114 2803 
L 1114 1939 
L 998 1939 
C 653 1939 480 1952 314 1978 
L 314 1466 
C 550 1491 749 1504 1043 1504 
L 2669 1504 
C 2515 1120 2285 826 1933 576 
C 1517 282 1056 128 301 32 
C 403 -115 486 -275 550 -467 
C 1299 -314 1728 -147 2163 147 
C 2586 442 2880 800 3085 1274 
C 3328 864 3680 499 4134 205 
C 4608 -96 5114 -307 5830 -486 
C 5901 -282 5965 -154 6093 19 
C 5357 166 4832 352 4352 640 
C 3955 883 3706 1126 3475 1504 
L 5363 1504 
z
M 1594 1939 
L 1594 2950 
L 2886 2950 
C 2874 2560 2835 2214 2784 1939 
L 1594 1939 
z
M 3270 1939 
C 3315 2240 3341 2490 3360 2950 
L 4781 2950 
L 4781 1939 
L 3270 1939 
z
M 1920 4723 
L 1069 4723 
C 742 4723 525 4736 346 4762 
L 346 4256 
C 550 4282 736 4288 1069 4288 
L 1920 4288 
L 1920 4083 
C 1920 3930 1914 3827 1894 3686 
L 2419 3686 
C 2400 3808 2394 3910 2394 4090 
L 2394 4288 
L 3878 4288 
L 3878 4077 
C 3878 3923 3872 3795 3859 3686 
L 4378 3686 
C 4358 3834 4352 3917 4352 4083 
L 4352 4288 
L 5280 4288 
C 5613 4288 5798 4282 6016 4256 
L 6016 4762 
C 5830 4736 5613 4723 5280 4723 
L 4352 4723 
L 4352 4845 
C 4352 5005 4365 5139 4384 5280 
L 3846 5280 
C 3872 5126 3878 4998 3878 4845 
L 3878 4723 
L 2394 4723 
L 2394 4845 
C 2394 4998 2406 5152 2426 5280 
L 1888 5280 
C 1914 5126 1920 5005 1920 4845 
L 1920 4723 
z
" transform="scale(0.015625)"/>
      <path id="HiraginoSans-W4-8a9e" d="M 3187 2714 
C 2880 2714 2746 2720 2554 2746 
L 2554 2253 
C 2739 2278 2899 2285 3187 2285 
L 5536 2285 
C 5786 2285 5939 2278 6157 2253 
L 6157 2752 
C 5965 2720 5850 2714 5510 2714 
L 5510 3507 
C 5510 3770 5517 3898 5536 4038 
C 5389 4019 5254 4013 4998 4013 
L 4211 4013 
C 4269 4237 4269 4237 4365 4678 
L 5414 4678 
C 5709 4678 5862 4672 6048 4646 
L 6048 5139 
C 5882 5120 5690 5107 5395 5107 
L 3405 5107 
C 3117 5107 2938 5114 2739 5139 
L 2739 4646 
C 2925 4672 3085 4678 3379 4678 
L 3891 4678 
C 3834 4384 3814 4282 3744 4013 
L 3418 4013 
C 3194 4013 3034 4019 2874 4038 
L 2874 3565 
C 3034 3584 3226 3597 3411 3597 
L 3629 3597 
C 3526 3264 3462 3072 3322 2714 
L 3187 2714 
z
M 3808 2714 
C 3936 3066 3981 3206 4096 3597 
L 5043 3597 
L 5043 2714 
L 3808 2714 
z
M 563 4698 
C 717 4717 851 4723 1062 4723 
L 1907 4723 
C 2150 4723 2240 4717 2406 4698 
L 2406 5171 
C 2259 5146 2144 5139 1907 5139 
L 1062 5139 
C 826 5139 710 5146 563 5171 
L 563 4698 
z
M 346 3802 
C 493 3821 627 3827 858 3827 
L 2029 3827 
C 2278 3827 2400 3821 2541 3802 
L 2541 4282 
C 2406 4262 2266 4256 1984 4256 
L 858 4256 
C 614 4256 493 4262 346 4288 
L 346 3802 
z
M 589 2918 
C 723 2938 832 2944 1037 2944 
L 1965 2944 
C 2170 2944 2253 2938 2406 2918 
L 2406 3373 
C 2285 3354 2182 3347 1965 3347 
L 1037 3347 
C 819 3347 723 3354 589 3373 
L 589 2918 
z
M 589 2029 
C 730 2048 838 2054 1037 2054 
L 1958 2054 
C 2176 2054 2259 2048 2406 2029 
L 2406 2477 
C 2266 2464 2182 2458 1965 2458 
L 1037 2458 
C 826 2458 717 2464 589 2477 
L 589 2029 
z
M 582 147 
C 582 -96 570 -294 544 -474 
L 1024 -474 
L 1024 -141 
L 1971 -141 
L 1971 -390 
L 2432 -390 
C 2413 -224 2406 -90 2406 128 
L 2406 1088 
C 2406 1331 2413 1453 2426 1581 
C 2310 1562 2240 1562 1971 1562 
L 1056 1562 
C 870 1562 723 1568 550 1587 
C 576 1421 582 1274 582 1062 
L 582 147 
z
M 1024 1165 
L 1971 1165 
L 1971 262 
L 1024 262 
L 1024 1165 
z
M 2944 147 
C 2944 -128 2931 -326 2912 -480 
L 3418 -480 
L 3418 -173 
L 5274 -173 
L 5274 -480 
L 5786 -480 
C 5766 -339 5754 -122 5754 141 
L 5754 1248 
C 5754 1491 5760 1664 5779 1798 
C 5651 1779 5523 1773 5242 1773 
L 3475 1773 
C 3206 1773 3085 1779 2918 1798 
C 2938 1645 2944 1498 2944 1293 
L 2944 147 
z
M 3418 1350 
L 5274 1350 
L 5274 262 
L 3418 262 
L 3418 1350 
z
" transform="scale(0.015625)"/>
      <path id="HiraginoSans-W4-ff08" d="M 6170 -531 
C 5690 -26 5491 256 5280 698 
C 5024 1235 4902 1805 4902 2432 
C 4902 3059 5024 3629 5280 4166 
C 5491 4608 5690 4890 6170 5395 
L 5517 5395 
C 5139 4947 4966 4685 4774 4275 
C 4499 3686 4365 3085 4365 2432 
C 4365 1779 4499 1178 4774 589 
C 4966 179 5139 -83 5517 -531 
L 6170 -531 
z
" transform="scale(0.015625)"/>
      <path id="HiraginoSans-W4-30ea" d="M 1446 4960 
C 1472 4794 1478 4653 1478 4352 
L 1478 2790 
C 1478 2496 1472 2330 1446 2144 
L 2080 2144 
C 2061 2310 2054 2464 2054 2790 
L 2054 4358 
C 2054 4621 2061 4819 2080 4960 
L 1446 4960 
z
M 4301 4954 
C 4320 4800 4326 4710 4326 4320 
L 4326 3635 
C 4326 2912 4320 2771 4301 2496 
C 4224 1626 3994 1210 3373 794 
C 3008 544 2669 416 2003 275 
C 2195 45 2240 -32 2323 -256 
C 2886 -90 3200 32 3514 205 
C 4147 563 4557 1043 4736 1651 
C 4851 2029 4902 2592 4902 3603 
L 4902 4326 
C 4902 4672 4909 4787 4934 4954 
L 4301 4954 
z
" transform="scale(0.015625)"/>
      <path id="HiraginoSans-W4-30fc" d="M 531 2131 
C 755 2157 915 2163 1421 2163 
L 5005 2163 
C 5446 2163 5632 2157 5875 2131 
L 5875 2765 
C 5651 2733 5523 2726 5011 2726 
L 1414 2726 
C 973 2726 736 2739 531 2765 
L 531 2131 
z
" transform="scale(0.015625)"/>
      <path id="HiraginoSans-W4-30c7" d="M 5030 2714 
C 5370 2714 5619 2701 5818 2682 
L 5818 3251 
C 5600 3219 5402 3206 5024 3206 
L 1338 3206 
C 966 3206 787 3219 544 3251 
L 544 2682 
C 774 2707 941 2714 1331 2714 
L 2989 2714 
C 2970 2208 2874 1741 2726 1427 
C 2458 870 1952 486 1133 224 
C 1325 38 1389 -45 1498 -275 
C 2022 -64 2336 115 2624 352 
C 3091 749 3366 1267 3488 1978 
C 3539 2253 3571 2509 3578 2714 
L 5030 2714 
z
M 1190 4262 
C 1382 4288 1587 4294 1971 4294 
L 3795 4294 
C 4128 4294 4403 4288 4582 4262 
L 4582 4838 
C 4365 4800 4211 4794 3789 4794 
L 1978 4794 
C 1562 4794 1408 4800 1190 4838 
L 1190 4262 
z
M 5357 5427 
C 5638 5094 5830 4806 6016 4435 
L 6387 4646 
C 6157 5069 6016 5267 5715 5619 
L 5357 5427 
z
M 4550 5178 
C 4813 4883 5018 4563 5216 4166 
L 5594 4378 
C 5370 4794 5222 5011 4922 5370 
L 4550 5178 
z
" transform="scale(0.015625)"/>
      <path id="HiraginoSans-W4-30a3" d="M 4621 4000 
C 4525 3846 4454 3763 4256 3571 
C 3712 3034 3136 2618 2438 2253 
C 1939 1990 1542 1843 934 1683 
C 1082 1491 1126 1414 1210 1216 
C 1990 1466 2522 1702 3130 2080 
L 3130 269 
C 3130 -51 3123 -166 3098 -339 
L 3693 -339 
C 3667 -179 3661 -26 3661 275 
L 3661 2400 
C 4122 2746 4570 3136 4883 3469 
C 5011 3610 5011 3610 5088 3674 
L 4621 4000 
z
" transform="scale(0.015625)"/>
      <path id="HiraginoSans-W4-30f3" d="M 934 4160 
C 1504 3821 2016 3405 2496 2893 
L 2886 3373 
C 2419 3827 2022 4134 1312 4589 
L 934 4160 
z
M 1030 -19 
C 1171 26 1222 38 1427 83 
C 2458 314 3174 595 3827 1043 
C 4685 1626 5280 2368 5805 3507 
C 5581 3654 5510 3725 5331 3949 
C 4806 2573 3962 1645 2739 1101 
C 2144 838 1376 640 864 621 
L 1030 -19 
z
" transform="scale(0.015625)"/>
      <path id="HiraginoSans-W4-30b0" d="M 4614 5082 
C 4877 4787 5082 4467 5280 4070 
L 5658 4282 
C 5434 4698 5286 4915 4986 5274 
L 4614 5082 
z
M 5357 5427 
C 5638 5094 5830 4806 6016 4435 
L 6387 4646 
C 6157 5069 6016 5267 5715 5619 
L 5357 5427 
z
M 4691 4326 
C 4614 4301 4570 4294 4416 4294 
L 2899 4269 
C 2714 4262 2714 4262 2662 4250 
C 2739 4378 2790 4480 2944 4806 
C 3021 4973 3027 4979 3085 5056 
L 2458 5203 
C 2426 4979 2310 4704 2074 4294 
C 1619 3494 1146 2970 454 2509 
C 678 2374 749 2310 890 2118 
C 1498 2586 1997 3123 2406 3770 
L 4499 3802 
C 4269 3002 3885 2278 3405 1715 
C 2797 998 2131 531 1165 134 
C 1363 -26 1427 -102 1549 -326 
C 2496 102 3200 608 3789 1280 
C 4339 1914 4787 2758 5037 3578 
C 5094 3776 5101 3776 5146 3840 
L 4691 4326 
z
" transform="scale(0.015625)"/>
      <path id="HiraginoSans-W4-ff09" d="M 890 -531 
C 1261 -83 1434 179 1626 589 
C 1901 1178 2035 1773 2035 2432 
C 2035 3091 1901 3686 1626 4275 
C 1434 4685 1261 4947 890 5395 
L 230 5395 
C 710 4890 909 4608 1120 4166 
C 1376 3629 1498 3072 1498 2432 
C 1498 1792 1376 1235 1120 698 
C 909 256 710 -26 230 -531 
L 890 -531 
z
" transform="scale(0.015625)"/>
     </defs>
     <use xlink:href="#HiraginoSans-W4-82f1"/>
     <use xlink:href="#HiraginoSans-W4-8a9e" x="99.999985"/>
     <use xlink:href="#HiraginoSans-W4-ff08" x="199.999969"/>
     <use xlink:href="#HiraginoSans-W4-30ea" x="299.999954"/>
     <use xlink:href="#HiraginoSans-W4-30fc" x="399.999939"/>
     <use xlink:href="#HiraginoSans-W4-30c7" x="499.999924"/>
     <use xlink:href="#HiraginoSans-W4-30a3" x="599.999908"/>
     <use xlink:href="#HiraginoSans-W4-30f3" x="699.999893"/>
     <use xlink:href="#HiraginoSans-W4-30b0" x="799.999878"/>
     <use xlink:href="#HiraginoSans-W4-ff09" x="899.999863"/>
    </g>
   </g>
  </g>
 </g>
 <defs>
  <clipPath id="p412518c32f">
   <rect x="54.898438" y="22.45125" width="357.12" height="266.112"/>
  </clipPath>
 </defs>
</svg>
