<?xml version="1.0" encoding="utf-8" standalone="no"?>
<!DOCTYPE svg PUBLIC "-//W3C//DTD SVG 1.1//EN"
  "http://www.w3.org/Graphics/SVG/1.1/DTD/svg11.dtd">
<!-- Created with matplotlib (https://matplotlib.org/) -->
<svg height="311.891375pt" version="1.1" viewBox="0 0 406.840312 311.891375" width="406.840312pt" xmlns="http://www.w3.org/2000/svg" xmlns:xlink="http://www.w3.org/1999/xlink">
 <defs>
  <style type="text/css">
*{stroke-linecap:butt;stroke-linejoin:round;}
  </style>
 </defs>
 <g id="figure_1">
  <g id="patch_1">
   <path d="M -0 311.891375 
L 406.840312 311.891375 
L 406.840312 0 
L -0 0 
z
" style="fill:#ffffff;"/>
  </g>
  <g id="axes_1">
   <g id="patch_2">
    <path d="M 42.520313 288.30075 
L 399.640313 288.30075 
L 399.640313 22.18875 
L 42.520313 22.18875 
z
" style="fill:#ffffff;"/>
   </g>
   <g id="matplotlib.axis_1">
    <g id="xtick_1">
     <g id="line2d_1">
      <defs>
       <path d="M 0 0 
L 0 3.5 
" id="m3f2430152c" style="stroke:#000000;stroke-width:0.8;"/>
      </defs>
      <g>
       <use style="stroke:#000000;stroke-width:0.8;" x="58.75304" xlink:href="#m3f2430152c" y="288.30075"/>
      </g>
     </g>
     <g id="text_1">
      <!-- 0.0 -->
      <defs>
       <path d="M 31.84375 73.828125 
Q 45.015625 73.828125 52.09375 61.625 
Q 57.71875 51.953125 57.71875 36.625 
Q 57.71875 21.4375 52.09375 11.578125 
Q 45.125 -0.484375 31.5 -0.484375 
Q 17.921875 -0.484375 10.9375 11.578125 
Q 5.328125 21.4375 5.328125 36.71875 
Q 5.328125 58.015625 15.625 67.71875 
Q 22.171875 73.828125 31.84375 73.828125 
z
M 31.5 66.65625 
Q 23.6875 66.65625 19.1875 58.734375 
Q 14.59375 50.734375 14.59375 36.625 
Q 14.59375 22.75 19.09375 14.796875 
Q 23.640625 6.984375 31.5 6.984375 
Q 40.921875 6.984375 45.453125 18.015625 
Q 48.4375 25.34375 48.4375 37.109375 
Q 48.4375 50.875 43.84375 58.734375 
Q 39.203125 66.65625 31.5 66.65625 
z
" id="IPAexGothic-48"/>
       <path d="M 18.5 0.984375 
L 7.71875 0.984375 
L 7.71875 11.765625 
L 18.5 11.765625 
z
" id="IPAexGothic-46"/>
      </defs>
      <g transform="translate(51.133509 302.791375)scale(0.1 -0.1)">
       <use xlink:href="#IPAexGothic-48"/>
       <use x="62.988281" xlink:href="#IPAexGothic-46"/>
       <use x="89.404297" xlink:href="#IPAexGothic-48"/>
      </g>
     </g>
    </g>
    <g id="xtick_2">
     <g id="line2d_2">
      <g>
       <use style="stroke:#000000;stroke-width:0.8;" x="123.683949" xlink:href="#m3f2430152c" y="288.30075"/>
      </g>
     </g>
     <g id="text_2">
      <!-- 0.2 -->
      <defs>
       <path d="M 57.171875 0.984375 
L 6.984375 0.984375 
L 6.984375 9.28125 
Q 12.890625 23.046875 29.59375 34.421875 
L 32.375 36.28125 
Q 40.921875 42.140625 43.609375 45.40625 
Q 46.6875 49.265625 46.6875 53.8125 
Q 46.6875 58.9375 43.0625 62.546875 
Q 39.0625 66.546875 32.5625 66.546875 
Q 19.53125 66.546875 15.484375 52 
L 7.765625 54.78125 
Q 13.328125 73.828125 33.0625 73.828125 
Q 43.84375 73.828125 50.25 67.4375 
Q 55.859375 61.671875 55.859375 53.515625 
Q 55.859375 47.46875 52.25 42.53125 
Q 48.921875 37.75 36.96875 30.28125 
L 34.859375 29 
Q 19.625 19.578125 15.28125 8.890625 
L 57.171875 8.890625 
z
" id="IPAexGothic-50"/>
      </defs>
      <g transform="translate(116.064418 302.791375)scale(0.1 -0.1)">
       <use xlink:href="#IPAexGothic-48"/>
       <use x="62.988281" xlink:href="#IPAexGothic-46"/>
       <use x="89.404297" xlink:href="#IPAexGothic-50"/>
      </g>
     </g>
    </g>
    <g id="xtick_3">
     <g id="line2d_3">
      <g>
       <use style="stroke:#000000;stroke-width:0.8;" x="188.614858" xlink:href="#m3f2430152c" y="288.30075"/>
      </g>
     </g>
     <g id="text_3">
      <!-- 0.4 -->
      <defs>
       <path d="M 59.578125 18.109375 
L 47.796875 18.109375 
L 47.796875 0.984375 
L 39.796875 0.984375 
L 39.796875 18.109375 
L 3.078125 18.109375 
L 3.078125 26.125 
L 38.375 73.09375 
L 47.796875 73.09375 
L 47.796875 25.53125 
L 59.578125 25.53125 
z
M 40.28125 64.203125 
L 39.984375 64.203125 
Q 35.59375 57.125 31.296875 51.3125 
L 11.859375 25.53125 
L 39.796875 25.53125 
L 39.796875 49.125 
Q 39.796875 54.390625 40.28125 64.203125 
z
" id="IPAexGothic-52"/>
      </defs>
      <g transform="translate(180.995327 302.791375)scale(0.1 -0.1)">
       <use xlink:href="#IPAexGothic-48"/>
       <use x="62.988281" xlink:href="#IPAexGothic-46"/>
       <use x="89.404297" xlink:href="#IPAexGothic-52"/>
      </g>
     </g>
    </g>
    <g id="xtick_4">
     <g id="line2d_4">
      <g>
       <use style="stroke:#000000;stroke-width:0.8;" x="253.545767" xlink:href="#m3f2430152c" y="288.30075"/>
      </g>
     </g>
     <g id="text_4">
      <!-- 0.6 -->
      <defs>
       <path d="M 16.5 36.375 
Q 23.578125 46.578125 34.90625 46.578125 
Q 45.40625 46.578125 51.8125 39.265625 
Q 57.421875 32.90625 57.421875 23.78125 
Q 57.421875 13.8125 51.125 6.78125 
Q 44.578125 -0.484375 34.03125 -0.484375 
Q 21.484375 -0.484375 14.40625 9.078125 
Q 7.515625 18.40625 7.515625 34.8125 
Q 7.515625 53.515625 15.828125 64.203125 
Q 23.34375 73.828125 35.5 73.828125 
Q 49.859375 73.828125 56.390625 62.890625 
L 49.21875 58.984375 
Q 45.21875 66.65625 35.9375 66.65625 
Q 17.484375 66.65625 16.109375 36.375 
z
M 33.453125 39.796875 
Q 26.3125 39.796875 21.625 34.46875 
Q 17.4375 29.6875 17.4375 24.078125 
Q 17.4375 18.0625 21.140625 13.1875 
Q 26.125 6.6875 33.734375 6.6875 
Q 41.703125 6.6875 45.953125 13.1875 
Q 48.828125 17.625 48.828125 23.484375 
Q 48.828125 30.375 45.015625 34.8125 
Q 40.625 39.796875 33.453125 39.796875 
z
" id="IPAexGothic-54"/>
      </defs>
      <g transform="translate(245.926236 302.791375)scale(0.1 -0.1)">
       <use xlink:href="#IPAexGothic-48"/>
       <use x="62.988281" xlink:href="#IPAexGothic-46"/>
       <use x="89.404297" xlink:href="#IPAexGothic-54"/>
      </g>
     </g>
    </g>
    <g id="xtick_5">
     <g id="line2d_5">
      <g>
       <use style="stroke:#000000;stroke-width:0.8;" x="318.476676" xlink:href="#m3f2430152c" y="288.30075"/>
      </g>
     </g>
     <g id="text_5">
      <!-- 0.8 -->
      <defs>
       <path d="M 39.703125 37.890625 
Q 57.8125 31.734375 57.8125 18.703125 
Q 57.8125 8.453125 48.4375 3.078125 
Q 41.609375 -0.875 31.5 -0.875 
Q 21.34375 -0.875 14.5 3.078125 
Q 5.421875 8.296875 5.421875 18.40625 
Q 5.421875 31.0625 22.015625 37.203125 
L 22.015625 37.5 
Q 7.515625 42.71875 7.515625 54.828125 
Q 7.515625 64.0625 15.328125 69.625 
Q 21.96875 74.3125 31.546875 74.3125 
Q 42.234375 74.3125 48.921875 68.796875 
Q 55.515625 63.578125 55.515625 55.71875 
Q 55.515625 42.28125 39.703125 38.1875 
z
M 31.59375 41.015625 
Q 46.828125 44.625 46.828125 55.125 
Q 46.828125 61.1875 41.796875 64.84375 
Q 37.703125 67.921875 31.5 67.921875 
Q 25.09375 67.921875 20.796875 64.5 
Q 16.40625 60.890625 16.40625 55.03125 
Q 16.40625 49.21875 21.09375 45.703125 
Q 23.34375 43.890625 26.90625 42.53125 
Q 31 40.875 31.59375 41.015625 
z
M 30.90625 34.515625 
Q 14.40625 30.171875 14.40625 19 
Q 14.40625 12.109375 20.515625 8.6875 
Q 25.09375 6.109375 31.390625 6.109375 
Q 40.234375 6.109375 45.015625 10.890625 
Q 48.53125 14.40625 48.53125 19.53125 
Q 48.53125 24.90625 43.65625 28.90625 
Q 40.765625 31.15625 36.71875 32.8125 
Q 31.984375 34.71875 30.90625 34.515625 
z
" id="IPAexGothic-56"/>
      </defs>
      <g transform="translate(310.857145 302.791375)scale(0.1 -0.1)">
       <use xlink:href="#IPAexGothic-48"/>
       <use x="62.988281" xlink:href="#IPAexGothic-46"/>
       <use x="89.404297" xlink:href="#IPAexGothic-56"/>
      </g>
     </g>
    </g>
    <g id="xtick_6">
     <g id="line2d_6">
      <g>
       <use style="stroke:#000000;stroke-width:0.8;" x="383.407585" xlink:href="#m3f2430152c" y="288.30075"/>
      </g>
     </g>
     <g id="text_6">
      <!-- 1.0 -->
      <defs>
       <path d="M 38.484375 0.984375 
L 29.6875 0.984375 
L 29.6875 64.109375 
Q 21.4375 61.28125 12.3125 59.328125 
L 10.6875 66.109375 
Q 23.734375 69.390625 32.90625 73.921875 
L 38.484375 73.921875 
z
" id="IPAexGothic-49"/>
      </defs>
      <g transform="translate(375.788054 302.791375)scale(0.1 -0.1)">
       <use xlink:href="#IPAexGothic-49"/>
       <use x="62.988281" xlink:href="#IPAexGothic-46"/>
       <use x="89.404297" xlink:href="#IPAexGothic-48"/>
      </g>
     </g>
    </g>
   </g>
   <g id="matplotlib.axis_2">
    <g id="ytick_1">
     <g id="line2d_7">
      <defs>
       <path d="M 0 0 
L -3.5 0 
" id="m048678b3c0" style="stroke:#000000;stroke-width:0.8;"/>
      </defs>
      <g>
       <use style="stroke:#000000;stroke-width:0.8;" x="42.520313" xlink:href="#m048678b3c0" y="276.20475"/>
      </g>
     </g>
     <g id="text_7">
      <!-- −1.00 -->
      <defs>
       <path d="M 6.5 34.71875 
L 61.28125 34.71875 
L 61.28125 29 
L 6.5 29 
z
" id="IPAexGothic-8722"/>
      </defs>
      <g transform="translate(7.2 279.950062)scale(0.1 -0.1)">
       <use xlink:href="#IPAexGothic-8722"/>
       <use x="67.822266" xlink:href="#IPAexGothic-49"/>
       <use x="130.810547" xlink:href="#IPAexGothic-46"/>
       <use x="157.226562" xlink:href="#IPAexGothic-48"/>
       <use x="220.214844" xlink:href="#IPAexGothic-48"/>
      </g>
     </g>
    </g>
    <g id="ytick_2">
     <g id="line2d_8">
      <g>
       <use style="stroke:#000000;stroke-width:0.8;" x="42.520313" xlink:href="#m048678b3c0" y="245.96475"/>
      </g>
     </g>
     <g id="text_8">
      <!-- −0.75 -->
      <defs>
       <path d="M 56.203125 66.609375 
Q 34.96875 32.90625 27.78125 0.984375 
L 17.671875 0.984375 
Q 24.703125 28.65625 46.09375 64.5 
L 6.6875 64.5 
L 6.6875 72.40625 
L 56.203125 72.40625 
z
" id="IPAexGothic-55"/>
       <path d="M 18.40625 40.671875 
Q 25.53125 46.296875 33.9375 46.296875 
Q 44 46.296875 50.640625 39.5 
Q 56.84375 33.015625 56.84375 23.390625 
Q 56.84375 14.65625 51.515625 8.015625 
Q 44.828125 -0.484375 31.734375 -0.484375 
Q 14.984375 -0.484375 7.328125 12.25 
L 14.65625 16.0625 
Q 20.453125 6.78125 31.453125 6.78125 
Q 38.53125 6.78125 43.265625 11.1875 
Q 48.140625 15.828125 48.140625 23.484375 
Q 48.140625 30.71875 43.84375 35.015625 
Q 39.359375 39.5 32.125 39.5 
Q 21.96875 39.5 16.75 31.6875 
L 9.234375 32.671875 
L 13.8125 72.40625 
L 53.21875 72.40625 
L 53.21875 64.890625 
L 20.953125 64.890625 
L 17.71875 40.671875 
z
" id="IPAexGothic-53"/>
      </defs>
      <g transform="translate(7.2 249.710062)scale(0.1 -0.1)">
       <use xlink:href="#IPAexGothic-8722"/>
       <use x="67.822266" xlink:href="#IPAexGothic-48"/>
       <use x="130.810547" xlink:href="#IPAexGothic-46"/>
       <use x="157.226562" xlink:href="#IPAexGothic-55"/>
       <use x="220.214844" xlink:href="#IPAexGothic-53"/>
      </g>
     </g>
    </g>
    <g id="ytick_3">
     <g id="line2d_9">
      <g>
       <use style="stroke:#000000;stroke-width:0.8;" x="42.520313" xlink:href="#m048678b3c0" y="215.72475"/>
      </g>
     </g>
     <g id="text_9">
      <!-- −0.50 -->
      <g transform="translate(7.2 219.470062)scale(0.1 -0.1)">
       <use xlink:href="#IPAexGothic-8722"/>
       <use x="67.822266" xlink:href="#IPAexGothic-48"/>
       <use x="130.810547" xlink:href="#IPAexGothic-46"/>
       <use x="157.226562" xlink:href="#IPAexGothic-53"/>
       <use x="220.214844" xlink:href="#IPAexGothic-48"/>
      </g>
     </g>
    </g>
    <g id="ytick_4">
     <g id="line2d_10">
      <g>
       <use style="stroke:#000000;stroke-width:0.8;" x="42.520313" xlink:href="#m048678b3c0" y="185.48475"/>
      </g>
     </g>
     <g id="text_10">
      <!-- −0.25 -->
      <g transform="translate(7.2 189.230062)scale(0.1 -0.1)">
       <use xlink:href="#IPAexGothic-8722"/>
       <use x="67.822266" xlink:href="#IPAexGothic-48"/>
       <use x="130.810547" xlink:href="#IPAexGothic-46"/>
       <use x="157.226562" xlink:href="#IPAexGothic-50"/>
       <use x="220.214844" xlink:href="#IPAexGothic-53"/>
      </g>
     </g>
    </g>
    <g id="ytick_5">
     <g id="line2d_11">
      <g>
       <use style="stroke:#000000;stroke-width:0.8;" x="42.520313" xlink:href="#m048678b3c0" y="155.24475"/>
      </g>
     </g>
     <g id="text_11">
      <!-- 0.00 -->
      <g transform="translate(13.982813 158.990062)scale(0.1 -0.1)">
       <use xlink:href="#IPAexGothic-48"/>
       <use x="62.988281" xlink:href="#IPAexGothic-46"/>
       <use x="89.404297" xlink:href="#IPAexGothic-48"/>
       <use x="152.392578" xlink:href="#IPAexGothic-48"/>
      </g>
     </g>
    </g>
    <g id="ytick_6">
     <g id="line2d_12">
      <g>
       <use style="stroke:#000000;stroke-width:0.8;" x="42.520313" xlink:href="#m048678b3c0" y="125.00475"/>
      </g>
     </g>
     <g id="text_12">
      <!-- 0.25 -->
      <g transform="translate(13.982813 128.750062)scale(0.1 -0.1)">
       <use xlink:href="#IPAexGothic-48"/>
       <use x="62.988281" xlink:href="#IPAexGothic-46"/>
       <use x="89.404297" xlink:href="#IPAexGothic-50"/>
       <use x="152.392578" xlink:href="#IPAexGothic-53"/>
      </g>
     </g>
    </g>
    <g id="ytick_7">
     <g id="line2d_13">
      <g>
       <use style="stroke:#000000;stroke-width:0.8;" x="42.520313" xlink:href="#m048678b3c0" y="94.76475"/>
      </g>
     </g>
     <g id="text_13">
      <!-- 0.50 -->
      <g transform="translate(13.982813 98.510062)scale(0.1 -0.1)">
       <use xlink:href="#IPAexGothic-48"/>
       <use x="62.988281" xlink:href="#IPAexGothic-46"/>
       <use x="89.404297" xlink:href="#IPAexGothic-53"/>
       <use x="152.392578" xlink:href="#IPAexGothic-48"/>
      </g>
     </g>
    </g>
    <g id="ytick_8">
     <g id="line2d_14">
      <g>
       <use style="stroke:#000000;stroke-width:0.8;" x="42.520313" xlink:href="#m048678b3c0" y="64.52475"/>
      </g>
     </g>
     <g id="text_14">
      <!-- 0.75 -->
      <g transform="translate(13.982813 68.270062)scale(0.1 -0.1)">
       <use xlink:href="#IPAexGothic-48"/>
       <use x="62.988281" xlink:href="#IPAexGothic-46"/>
       <use x="89.404297" xlink:href="#IPAexGothic-55"/>
       <use x="152.392578" xlink:href="#IPAexGothic-53"/>
      </g>
     </g>
    </g>
    <g id="ytick_9">
     <g id="line2d_15">
      <g>
       <use style="stroke:#000000;stroke-width:0.8;" x="42.520313" xlink:href="#m048678b3c0" y="34.28475"/>
      </g>
     </g>
     <g id="text_15">
      <!-- 1.00 -->
      <g transform="translate(13.982813 38.030062)scale(0.1 -0.1)">
       <use xlink:href="#IPAexGothic-49"/>
       <use x="62.988281" xlink:href="#IPAexGothic-46"/>
       <use x="89.404297" xlink:href="#IPAexGothic-48"/>
       <use x="152.392578" xlink:href="#IPAexGothic-48"/>
      </g>
     </g>
    </g>
   </g>
   <g id="line2d_16">
    <path clip-path="url(#p2f4aa8dc0b)" d="M 58.75304 276.20475 
L 383.407585 34.28475 
" style="fill:none;stroke:#1f77b4;stroke-linecap:square;stroke-width:1.5;"/>
   </g>
   <g id="patch_3">
    <path d="M 42.520313 288.30075 
L 42.520313 22.18875 
" style="fill:none;stroke:#000000;stroke-linecap:square;stroke-linejoin:miter;stroke-width:0.8;"/>
   </g>
   <g id="patch_4">
    <path d="M 399.640313 288.30075 
L 399.640313 22.18875 
" style="fill:none;stroke:#000000;stroke-linecap:square;stroke-linejoin:miter;stroke-width:0.8;"/>
   </g>
   <g id="patch_5">
    <path d="M 42.520313 288.30075 
L 399.640313 288.30075 
" style="fill:none;stroke:#000000;stroke-linecap:square;stroke-linejoin:miter;stroke-width:0.8;"/>
   </g>
   <g id="patch_6">
    <path d="M 42.520313 22.18875 
L 399.640313 22.18875 
" style="fill:none;stroke:#000000;stroke-linecap:square;stroke-linejoin:miter;stroke-width:0.8;"/>
   </g>
   <g id="text_16">
    <!-- 日本語タイトル -->
    <defs>
     <path d="M 81.734375 75 
L 81.734375 -4.5 
L 74.125 -4.5 
L 74.125 2 
L 25.734375 2 
L 25.734375 -4.5 
L 18.109375 -4.5 
L 18.109375 75 
z
M 25.734375 68.3125 
L 25.734375 42.671875 
L 74.125 42.671875 
L 74.125 68.3125 
z
M 25.734375 35.890625 
L 25.734375 8.6875 
L 74.125 8.6875 
L 74.125 35.890625 
z
" id="IPAexGothic-26085"/>
     <path d="M 55.90625 54.109375 
Q 70.21875 29.734375 94.625 16.40625 
L 89.015625 9.375 
Q 64.796875 25.296875 53.265625 48.1875 
L 53.265625 19.390625 
L 69.828125 19.390625 
L 69.828125 12.890625 
L 53.515625 12.890625 
L 53.515625 -6.390625 
L 45.90625 -6.390625 
L 45.90625 12.890625 
L 29.6875 12.890625 
L 29.6875 19.390625 
L 46.09375 19.390625 
L 46.09375 47.40625 
Q 35.75 23.640625 11.8125 6.296875 
L 5.90625 12.40625 
Q 29.984375 26.609375 43.5 54.109375 
L 7.515625 54.109375 
L 7.515625 60.984375 
L 45.90625 60.984375 
L 45.90625 81.390625 
L 53.515625 81.390625 
L 53.515625 60.984375 
L 92.53125 60.984375 
L 92.53125 54.109375 
z
" id="IPAexGothic-26412"/>
     <path d="M 37.3125 26.3125 
L 37.3125 -2 
L 14.984375 -2 
L 14.984375 -6.984375 
L 8.40625 -6.984375 
L 8.40625 26.3125 
z
M 14.984375 20.515625 
L 14.984375 3.8125 
L 30.71875 3.8125 
L 30.71875 20.515625 
z
M 67.28125 72.796875 
Q 66.3125 64.5 65.71875 60.984375 
L 85.296875 60.984375 
L 85.296875 40.71875 
L 95.40625 40.71875 
L 95.40625 34.71875 
L 39.703125 34.71875 
L 39.703125 40.71875 
L 55.03125 40.71875 
Q 55.125 41.265625 57.625 53.375 
L 57.90625 55.171875 
L 45.015625 55.171875 
L 45.015625 60.984375 
L 58.890625 60.984375 
Q 58.984375 61.1875 58.984375 61.671875 
Q 59.859375 66.546875 60.6875 72.796875 
L 43.015625 72.796875 
L 43.015625 78.8125 
L 90.484375 78.8125 
L 90.484375 72.796875 
z
M 78.8125 55.171875 
L 64.703125 55.171875 
Q 62.703125 44.28125 61.921875 40.71875 
L 78.8125 40.71875 
z
M 87.59375 25.390625 
L 87.59375 -6.984375 
L 80.90625 -6.984375 
L 80.90625 -2.09375 
L 53.421875 -2.09375 
L 53.421875 -7.078125 
L 46.734375 -7.078125 
L 46.734375 25.390625 
z
M 53.421875 19.578125 
L 53.421875 3.71875 
L 80.90625 3.71875 
L 80.90625 19.578125 
z
M 9.90625 78.8125 
L 35.84375 78.8125 
L 35.84375 72.796875 
L 9.90625 72.796875 
z
M 5.421875 65.71875 
L 39.84375 65.71875 
L 39.84375 59.625 
L 5.421875 59.625 
z
M 9.90625 52.484375 
L 35.84375 52.484375 
L 35.84375 46.484375 
L 9.90625 46.484375 
z
M 9.90625 39.40625 
L 35.84375 39.40625 
L 35.84375 33.40625 
L 9.90625 33.40625 
z
" id="IPAexGothic-35486"/>
     <path d="M 77.78125 66.609375 
L 83.015625 62.3125 
Q 74.953125 37.984375 63.375 22.796875 
Q 49.859375 5.078125 28.46875 -4.6875 
L 22.90625 1.703125 
Q 33.296875 5.953125 40.828125 11.53125 
Q 47.703125 16.65625 55.171875 25 
Q 45.609375 34.765625 33.5 43.609375 
Q 25.046875 34.421875 18.3125 29.296875 
L 12.890625 34.90625 
Q 36.1875 52 44.78125 78.609375 
L 52.484375 76.515625 
Q 51.953125 74.609375 48.578125 66.609375 
z
M 45.21875 59.625 
Q 42.328125 55.03125 38.09375 49.515625 
Q 49.90625 40.875 60.015625 31.296875 
Q 68.21875 43.84375 74.171875 59.625 
z
" id="IPAexGothic-12479"/>
     <path d="M 48.921875 -3.609375 
L 48.921875 44.921875 
Q 32.671875 32.625 17.28125 25.875 
L 12.203125 32.171875 
Q 47.125 46.875 69.828125 76.8125 
L 76.8125 72.515625 
Q 68.5 61.53125 57.421875 51.8125 
L 57.421875 -3.609375 
z
" id="IPAexGothic-12452"/>
     <path d="M 35.6875 78.078125 
L 43.796875 78.078125 
L 43.796875 50.09375 
Q 63.875 40.921875 81.5 29.5 
L 76.21875 21.390625 
Q 59.671875 33.984375 43.796875 42 
L 43.796875 -2.875 
L 35.6875 -2.875 
z
" id="IPAexGothic-12488"/>
     <path d="M 5.515625 5.171875 
Q 20.515625 15.53125 24.125 31.59375 
Q 26.3125 41.40625 26.3125 68.703125 
L 34.421875 68.703125 
L 34.421875 64.890625 
L 34.421875 64.3125 
Q 34.421875 35.296875 30.21875 23.296875 
Q 25.296875 9.1875 11.625 -0.59375 
z
M 48.828125 72.90625 
L 57.03125 72.90625 
L 57.03125 12.015625 
Q 76.171875 23.25 88.625 42.71875 
L 93.75 35.59375 
Q 79.296875 15.09375 54.9375 0.984375 
L 48.828125 5.609375 
z
" id="IPAexGothic-12523"/>
    </defs>
    <g transform="translate(179.080313 16.18875)scale(0.12 -0.12)">
     <use xlink:href="#IPAexGothic-26085"/>
     <use x="100" xlink:href="#IPAexGothic-26412"/>
     <use x="200" xlink:href="#IPAexGothic-35486"/>
     <use x="300" xlink:href="#IPAexGothic-12479"/>
     <use x="400" xlink:href="#IPAexGothic-12452"/>
     <use x="500" xlink:href="#IPAexGothic-12488"/>
     <use x="600" xlink:href="#IPAexGothic-12523"/>
    </g>
   </g>
  </g>
 </g>
 <defs>
  <clipPath id="p2f4aa8dc0b">
   <rect height="266.112" width="357.12" x="42.520313" y="22.18875"/>
  </clipPath>
 </defs>
</svg>
