<?xml version="1.0" encoding="utf-8" standalone="no"?>
<!DOCTYPE svg PUBLIC "-//W3C//DTD SVG 1.1//EN"
  "http://www.w3.org/Graphics/SVG/1.1/DTD/svg11.dtd">
<svg xmlns:xlink="http://www.w3.org/1999/xlink" width="425.927813pt" height="311.03075pt" viewBox="0 0 425.927813 311.03075" xmlns="http://www.w3.org/2000/svg" version="1.1">
 <metadata>
  <rdf:RDF xmlns:dc="http://purl.org/dc/elements/1.1/" xmlns:cc="http://creativecommons.org/ns#" xmlns:rdf="http://www.w3.org/1999/02/22-rdf-syntax-ns#">
   <cc:Work>
    <dc:type rdf:resource="http://purl.org/dc/dcmitype/StillImage"/>
    <dc:date>2022-08-11T22:30:26.893299</dc:date>
    <dc:format>image/svg+xml</dc:format>
    <dc:creator>
     <cc:Agent>
      <dc:title>Matplotlib v3.5.2, https://matplotlib.org/</dc:title>
     </cc:Agent>
    </dc:creator>
   </cc:Work>
  </rdf:RDF>
 </metadata>
 <defs>
  <style type="text/css">*{stroke-linejoin: round; stroke-linecap: butt}</style>
 </defs>
 <g id="figure_1">
  <g id="patch_1">
   <path d="M 0 311.03075 
L 425.927813 311.03075 
L 425.927813 0 
L 0 0 
z
" style="fill: #ffffff"/>
  </g>
  <g id="axes_1">
   <g id="patch_2">
    <path d="M 61.607813 273.312 
L 418.727813 273.312 
L 418.727813 7.2 
L 61.607813 7.2 
z
" style="fill: #ffffff"/>
   </g>
   <g id="matplotlib.axis_1">
    <g id="xtick_1">
     <g id="line2d_1">
      <defs>
       <path id="me861fb2beb" d="M 0 0 
L 0 3.5 
" style="stroke: #000000; stroke-width: 0.8"/>
      </defs>
      <g>
       <use xlink:href="#me861fb2beb" x="77.84054" y="273.312" style="stroke: #000000; stroke-width: 0.8"/>
      </g>
     </g>
     <g id="text_1">
      <!-- 2003 -->
      <g transform="translate(64.381165 288.021375)scale(0.1 -0.1)">
       <defs>
        <path id="HiraginoSans-W4-32" d="M 3078 0 
C 3424 0 3642 -6 3917 -32 
L 3917 589 
C 3693 557 3430 544 3091 544 
L 1114 544 
C 1280 1114 1606 1478 2451 2042 
C 3181 2528 3341 2656 3546 2912 
C 3738 3142 3846 3443 3846 3744 
C 3846 4525 3200 5030 2202 5030 
C 1613 5030 1158 4858 858 4518 
C 640 4269 531 4026 442 3565 
L 1088 3469 
C 1139 3782 1190 3936 1306 4102 
C 1491 4371 1792 4506 2208 4506 
C 2816 4506 3206 4211 3206 3744 
C 3206 3360 2995 3085 2387 2675 
C 1754 2246 1600 2138 1389 1952 
C 979 1594 710 1229 544 806 
C 448 563 429 461 365 -26 
C 576 -6 678 0 1107 0 
L 3078 0 
z
" transform="scale(0.015625)"/>
        <path id="HiraginoSans-W4-30" d="M 2144 -90 
C 2758 -90 3232 141 3565 602 
C 3846 998 4019 1696 4019 2464 
C 4019 3002 3936 3501 3770 3949 
C 3693 4160 3558 4371 3379 4550 
C 3078 4858 2650 5024 2157 5024 
C 1498 5024 986 4742 666 4205 
C 435 3834 288 3142 288 2458 
C 288 1939 371 1434 538 986 
C 614 768 749 563 928 384 
C 1242 70 1651 -90 2144 -90 
z
M 2144 4499 
C 2592 4499 2918 4307 3123 3923 
C 3283 3629 3398 3014 3398 2470 
C 3398 2022 3341 1619 3213 1235 
C 3155 1043 3046 870 2912 730 
C 2726 538 2458 435 2150 435 
C 1734 435 1414 614 1197 973 
C 1024 1261 902 1875 902 2451 
C 902 2906 966 3328 1088 3699 
C 1139 3866 1235 4026 1370 4173 
C 1568 4397 1818 4499 2144 4499 
z
" transform="scale(0.015625)"/>
        <path id="HiraginoSans-W4-33" d="M 282 1101 
C 397 768 474 621 621 448 
C 934 90 1434 -96 2112 -96 
C 2720 -96 3213 70 3533 384 
C 3770 614 3904 954 3904 1306 
C 3904 1677 3802 1958 3597 2182 
C 3379 2419 3130 2528 2688 2586 
C 2995 2650 3130 2701 3290 2816 
C 3578 3021 3738 3366 3738 3757 
C 3738 4538 3117 5043 2157 5043 
C 1594 5043 1146 4883 845 4576 
C 666 4390 582 4237 467 3891 
L 1107 3757 
C 1171 3981 1216 4083 1306 4192 
C 1478 4416 1741 4525 2125 4525 
C 2746 4525 3110 4224 3110 3725 
C 3110 3482 3021 3264 2867 3110 
C 2669 2918 2374 2829 1965 2829 
C 1779 2829 1613 2842 1459 2861 
L 1459 2272 
C 1651 2298 1811 2310 2003 2310 
C 2829 2310 3264 1990 3264 1376 
C 3264 794 2816 429 2106 429 
C 1779 429 1510 506 1293 666 
C 1107 800 1024 928 928 1248 
L 282 1101 
z
" transform="scale(0.015625)"/>
       </defs>
       <use xlink:href="#HiraginoSans-W4-32"/>
       <use xlink:href="#HiraginoSans-W4-30" x="67.299988"/>
       <use xlink:href="#HiraginoSans-W4-30" x="134.599976"/>
       <use xlink:href="#HiraginoSans-W4-33" x="201.899963"/>
      </g>
     </g>
    </g>
    <g id="xtick_2">
     <g id="line2d_2">
      <g>
       <use xlink:href="#me861fb2beb" x="113.913267" y="273.312" style="stroke: #000000; stroke-width: 0.8"/>
      </g>
     </g>
     <g id="text_2">
      <!-- 2005 -->
      <g transform="translate(100.453892 288.021375)scale(0.1 -0.1)">
       <defs>
        <path id="HiraginoSans-W4-35" d="M 1331 4416 
L 2835 4416 
C 3155 4416 3366 4403 3622 4365 
L 3622 4986 
C 3360 4947 3206 4934 2829 4934 
L 1446 4934 
C 1082 4934 954 4941 762 4966 
C 774 4768 774 4762 774 4742 
C 774 4563 774 4518 749 4307 
L 608 2822 
C 589 2566 570 2445 518 2157 
L 1088 2106 
C 1146 2240 1178 2291 1261 2374 
C 1485 2605 1811 2739 2131 2739 
C 2842 2739 3264 2317 3264 1613 
C 3264 902 2803 435 2106 435 
C 1747 435 1440 563 1235 794 
C 1146 902 1101 986 1037 1171 
L 410 1005 
C 557 685 646 544 813 378 
C 1133 64 1562 -96 2099 -96 
C 3194 -96 3885 576 3885 1638 
C 3885 2605 3245 3238 2272 3238 
C 1830 3238 1472 3098 1158 2803 
C 1197 2982 1197 2982 1203 3091 
L 1331 4416 
z
" transform="scale(0.015625)"/>
       </defs>
       <use xlink:href="#HiraginoSans-W4-32"/>
       <use xlink:href="#HiraginoSans-W4-30" x="67.299988"/>
       <use xlink:href="#HiraginoSans-W4-30" x="134.599976"/>
       <use xlink:href="#HiraginoSans-W4-35" x="201.899963"/>
      </g>
     </g>
    </g>
    <g id="xtick_3">
     <g id="line2d_3">
      <g>
       <use xlink:href="#me861fb2beb" x="149.985994" y="273.312" style="stroke: #000000; stroke-width: 0.8"/>
      </g>
     </g>
     <g id="text_3">
      <!-- 2007 -->
      <g transform="translate(136.526619 288.021375)scale(0.1 -0.1)">
       <defs>
        <path id="HiraginoSans-W4-37" d="M 3898 4966 
C 3661 4941 3526 4934 3117 4934 
L 1165 4934 
C 838 4934 646 4947 390 4979 
L 390 4346 
C 634 4378 819 4390 1146 4390 
L 3200 4390 
C 2643 3635 2368 3187 2054 2541 
C 1664 1741 1491 1171 1280 0 
L 2003 0 
C 2099 685 2163 992 2317 1491 
C 2554 2291 2829 2861 3373 3718 
C 3642 4141 3763 4301 3898 4422 
L 3898 4966 
z
" transform="scale(0.015625)"/>
       </defs>
       <use xlink:href="#HiraginoSans-W4-32"/>
       <use xlink:href="#HiraginoSans-W4-30" x="67.299988"/>
       <use xlink:href="#HiraginoSans-W4-30" x="134.599976"/>
       <use xlink:href="#HiraginoSans-W4-37" x="201.899963"/>
      </g>
     </g>
    </g>
    <g id="xtick_4">
     <g id="line2d_4">
      <g>
       <use xlink:href="#me861fb2beb" x="186.058722" y="273.312" style="stroke: #000000; stroke-width: 0.8"/>
      </g>
     </g>
     <g id="text_4">
      <!-- 2009 -->
      <g transform="translate(172.599347 288.021375)scale(0.1 -0.1)">
       <defs>
        <path id="HiraginoSans-W4-39" d="M 410 934 
C 582 576 698 422 896 262 
C 1178 32 1542 -77 2003 -77 
C 2586 -77 3014 102 3341 486 
C 3712 928 3910 1664 3910 2624 
C 3910 3302 3814 3821 3610 4186 
C 3315 4723 2765 5037 2118 5037 
C 1030 5037 326 4358 326 3315 
C 326 2861 486 2438 768 2157 
C 1050 1875 1472 1722 1958 1722 
C 2426 1722 2765 1843 3085 2125 
C 3213 2240 3270 2310 3366 2483 
C 3354 2189 3334 1958 3315 1818 
C 3270 1517 3168 1216 3046 1011 
C 2816 621 2496 435 2042 435 
C 1702 435 1427 538 1254 723 
C 1158 826 1114 915 1037 1120 
L 410 934 
z
M 2029 2221 
C 1357 2221 928 2662 928 3360 
C 928 3706 1030 3981 1248 4192 
C 1459 4403 1754 4525 2067 4525 
C 2733 4525 3232 4032 3232 3366 
C 3232 2707 2720 2221 2029 2221 
z
" transform="scale(0.015625)"/>
       </defs>
       <use xlink:href="#HiraginoSans-W4-32"/>
       <use xlink:href="#HiraginoSans-W4-30" x="67.299988"/>
       <use xlink:href="#HiraginoSans-W4-30" x="134.599976"/>
       <use xlink:href="#HiraginoSans-W4-39" x="201.899963"/>
      </g>
     </g>
    </g>
    <g id="xtick_5">
     <g id="line2d_5">
      <g>
       <use xlink:href="#me861fb2beb" x="222.131449" y="273.312" style="stroke: #000000; stroke-width: 0.8"/>
      </g>
     </g>
     <g id="text_5">
      <!-- 2011 -->
      <g transform="translate(208.672074 288.021375)scale(0.1 -0.1)">
       <defs>
        <path id="HiraginoSans-W4-31" d="M 1018 4371 
C 1222 4397 1389 4410 1606 4410 
L 1939 4410 
L 1939 755 
C 1939 454 1926 237 1888 0 
L 2598 0 
C 2560 250 2547 448 2547 755 
L 2547 3904 
C 2547 4256 2566 4582 2605 4966 
C 2387 4941 2278 4934 2035 4934 
L 1581 4934 
C 1325 4934 1197 4941 1018 4966 
L 1018 4371 
z
" transform="scale(0.015625)"/>
       </defs>
       <use xlink:href="#HiraginoSans-W4-32"/>
       <use xlink:href="#HiraginoSans-W4-30" x="67.299988"/>
       <use xlink:href="#HiraginoSans-W4-31" x="134.599976"/>
       <use xlink:href="#HiraginoSans-W4-31" x="201.899963"/>
      </g>
     </g>
    </g>
    <g id="xtick_6">
     <g id="line2d_6">
      <g>
       <use xlink:href="#me861fb2beb" x="258.204176" y="273.312" style="stroke: #000000; stroke-width: 0.8"/>
      </g>
     </g>
     <g id="text_6">
      <!-- 2013 -->
      <g transform="translate(244.744801 288.021375)scale(0.1 -0.1)">
       <use xlink:href="#HiraginoSans-W4-32"/>
       <use xlink:href="#HiraginoSans-W4-30" x="67.299988"/>
       <use xlink:href="#HiraginoSans-W4-31" x="134.599976"/>
       <use xlink:href="#HiraginoSans-W4-33" x="201.899963"/>
      </g>
     </g>
    </g>
    <g id="xtick_7">
     <g id="line2d_7">
      <g>
       <use xlink:href="#me861fb2beb" x="294.276903" y="273.312" style="stroke: #000000; stroke-width: 0.8"/>
      </g>
     </g>
     <g id="text_7">
      <!-- 2015 -->
      <g transform="translate(280.817528 288.021375)scale(0.1 -0.1)">
       <use xlink:href="#HiraginoSans-W4-32"/>
       <use xlink:href="#HiraginoSans-W4-30" x="67.299988"/>
       <use xlink:href="#HiraginoSans-W4-31" x="134.599976"/>
       <use xlink:href="#HiraginoSans-W4-35" x="201.899963"/>
      </g>
     </g>
    </g>
    <g id="xtick_8">
     <g id="line2d_8">
      <g>
       <use xlink:href="#me861fb2beb" x="330.349631" y="273.312" style="stroke: #000000; stroke-width: 0.8"/>
      </g>
     </g>
     <g id="text_8">
      <!-- 2017 -->
      <g transform="translate(316.890256 288.021375)scale(0.1 -0.1)">
       <use xlink:href="#HiraginoSans-W4-32"/>
       <use xlink:href="#HiraginoSans-W4-30" x="67.299988"/>
       <use xlink:href="#HiraginoSans-W4-31" x="134.599976"/>
       <use xlink:href="#HiraginoSans-W4-37" x="201.899963"/>
      </g>
     </g>
    </g>
    <g id="xtick_9">
     <g id="line2d_9">
      <g>
       <use xlink:href="#me861fb2beb" x="366.422358" y="273.312" style="stroke: #000000; stroke-width: 0.8"/>
      </g>
     </g>
     <g id="text_9">
      <!-- 2019 -->
      <g transform="translate(352.962983 288.021375)scale(0.1 -0.1)">
       <use xlink:href="#HiraginoSans-W4-32"/>
       <use xlink:href="#HiraginoSans-W4-30" x="67.299988"/>
       <use xlink:href="#HiraginoSans-W4-31" x="134.599976"/>
       <use xlink:href="#HiraginoSans-W4-39" x="201.899963"/>
      </g>
     </g>
    </g>
    <g id="xtick_10">
     <g id="line2d_10">
      <g>
       <use xlink:href="#me861fb2beb" x="402.495085" y="273.312" style="stroke: #000000; stroke-width: 0.8"/>
      </g>
     </g>
     <g id="text_10">
      <!-- 2021 -->
      <g transform="translate(389.03571 288.021375)scale(0.1 -0.1)">
       <use xlink:href="#HiraginoSans-W4-32"/>
       <use xlink:href="#HiraginoSans-W4-30" x="67.299988"/>
       <use xlink:href="#HiraginoSans-W4-32" x="134.599976"/>
       <use xlink:href="#HiraginoSans-W4-31" x="201.899963"/>
      </g>
     </g>
    </g>
    <g id="text_11">
     <!-- 年度 -->
     <g transform="translate(230.167812 301.78075)scale(0.1 -0.1)">
      <defs>
       <path id="HiraginoSans-W4-5e74" d="M 1446 1555 
L 1005 1555 
C 723 1555 531 1568 339 1594 
L 339 1056 
C 544 1082 730 1094 1005 1094 
L 3270 1094 
L 3270 115 
C 3270 -192 3264 -339 3232 -512 
L 3814 -512 
C 3782 -339 3770 -179 3770 109 
L 3770 1094 
L 5344 1094 
C 5613 1094 5811 1082 6010 1056 
L 6010 1594 
C 5818 1568 5632 1555 5344 1555 
L 3770 1555 
L 3770 2746 
L 4902 2746 
C 5158 2746 5318 2739 5485 2720 
L 5485 3219 
C 5312 3194 5165 3187 4890 3187 
L 3770 3187 
L 3770 4173 
L 5178 4173 
C 5453 4173 5594 4166 5773 4141 
L 5773 4646 
C 5606 4621 5459 4614 5178 4614 
L 2061 4614 
C 2093 4685 2093 4685 2144 4800 
C 2246 5024 2246 5024 2285 5101 
C 2323 5184 2336 5210 2368 5280 
L 1830 5414 
C 1798 5280 1754 5139 1670 4947 
C 1376 4256 1037 3802 397 3258 
C 557 3142 627 3066 749 2874 
C 1184 3258 1472 3616 1811 4173 
L 3270 4173 
L 3270 3187 
L 1882 3187 
C 1702 3187 1562 3194 1427 3206 
C 1440 3085 1446 2970 1446 2829 
L 1446 1555 
z
M 1939 1555 
L 1939 2746 
L 3270 2746 
L 3270 1555 
L 1939 1555 
z
" transform="scale(0.015625)"/>
       <path id="HiraginoSans-W4-5ea6" d="M 2400 3379 
L 2400 2752 
C 2400 2624 2394 2483 2381 2362 
C 2464 2374 2579 2374 2835 2374 
L 4365 2374 
C 4602 2374 4672 2374 4774 2362 
C 4762 2477 4755 2605 4755 2752 
L 4755 3379 
L 5478 3379 
C 5760 3379 5920 3373 6061 3347 
L 6061 3821 
C 5901 3795 5760 3789 5485 3789 
L 4755 3789 
L 4755 3859 
C 4755 4026 4762 4141 4781 4256 
L 4262 4256 
C 4282 4141 4288 4013 4288 3866 
L 4288 3789 
L 2867 3789 
L 2867 3878 
C 2867 4006 2874 4115 2893 4256 
L 2374 4256 
C 2394 4147 2400 4032 2400 3872 
L 2400 3789 
L 1312 3789 
L 1312 4403 
L 5376 4403 
C 5677 4403 5837 4397 6048 4378 
L 6048 4864 
C 5875 4838 5677 4826 5325 4826 
L 3622 4826 
L 3622 4998 
C 3622 5171 3629 5280 3654 5402 
L 3098 5402 
C 3123 5274 3136 5152 3136 4998 
L 3136 4826 
L 1478 4826 
C 1222 4826 1011 4838 800 4858 
C 819 4672 826 4480 826 4051 
C 826 1670 698 845 198 -26 
C 358 -147 454 -237 595 -416 
C 1120 538 1267 1318 1306 3379 
L 2400 3379 
z
M 2867 3379 
L 4288 3379 
L 4288 2765 
L 2867 2765 
L 2867 3379 
z
M 5030 1933 
C 4896 1920 4787 1914 4570 1914 
L 2272 1914 
C 1939 1914 1766 1920 1613 1946 
L 1613 1491 
C 1766 1517 1907 1523 2195 1523 
C 2522 1056 2771 800 3187 493 
C 2598 224 1997 77 1126 -19 
C 1235 -218 1280 -320 1318 -493 
C 2291 -333 2931 -134 3610 224 
C 4256 -141 4902 -339 5882 -474 
C 5939 -275 6003 -128 6099 32 
C 5338 77 4653 230 4058 499 
C 4429 749 4774 1056 5069 1395 
C 5190 1536 5235 1587 5299 1651 
L 5030 1933 
z
M 4582 1523 
C 4230 1152 4013 973 3622 723 
C 3206 986 2957 1210 2733 1523 
L 4582 1523 
z
" transform="scale(0.015625)"/>
      </defs>
      <use xlink:href="#HiraginoSans-W4-5e74"/>
      <use xlink:href="#HiraginoSans-W4-5ea6" x="99.999985"/>
     </g>
    </g>
   </g>
   <g id="matplotlib.axis_2">
    <g id="ytick_1">
     <g id="line2d_11">
      <defs>
       <path id="m21fd576931" d="M 0 0 
L -3.5 0 
" style="stroke: #000000; stroke-width: 0.8"/>
      </defs>
      <g>
       <use xlink:href="#m21fd576931" x="61.607813" y="261.603987" style="stroke: #000000; stroke-width: 0.8"/>
      </g>
     </g>
     <g id="text_12">
      <!-- 0 -->
      <g transform="translate(47.878125 265.458674)scale(0.1 -0.1)">
       <use xlink:href="#HiraginoSans-W4-30"/>
      </g>
     </g>
    </g>
    <g id="ytick_2">
     <g id="line2d_12">
      <g>
       <use xlink:href="#m21fd576931" x="61.607813" y="210.553088" style="stroke: #000000; stroke-width: 0.8"/>
      </g>
     </g>
     <g id="text_13">
      <!-- 5000 -->
      <g transform="translate(27.689062 214.407775)scale(0.1 -0.1)">
       <use xlink:href="#HiraginoSans-W4-35"/>
       <use xlink:href="#HiraginoSans-W4-30" x="67.299988"/>
       <use xlink:href="#HiraginoSans-W4-30" x="134.599976"/>
       <use xlink:href="#HiraginoSans-W4-30" x="201.899963"/>
      </g>
     </g>
    </g>
    <g id="ytick_3">
     <g id="line2d_13">
      <g>
       <use xlink:href="#m21fd576931" x="61.607813" y="159.502189" style="stroke: #000000; stroke-width: 0.8"/>
      </g>
     </g>
     <g id="text_14">
      <!-- 10000 -->
      <g transform="translate(20.959375 163.356876)scale(0.1 -0.1)">
       <use xlink:href="#HiraginoSans-W4-31"/>
       <use xlink:href="#HiraginoSans-W4-30" x="67.299988"/>
       <use xlink:href="#HiraginoSans-W4-30" x="134.599976"/>
       <use xlink:href="#HiraginoSans-W4-30" x="201.899963"/>
       <use xlink:href="#HiraginoSans-W4-30" x="269.199951"/>
      </g>
     </g>
    </g>
    <g id="ytick_4">
     <g id="line2d_14">
      <g>
       <use xlink:href="#m21fd576931" x="61.607813" y="108.45129" style="stroke: #000000; stroke-width: 0.8"/>
      </g>
     </g>
     <g id="text_15">
      <!-- 15000 -->
      <g transform="translate(20.959375 112.305977)scale(0.1 -0.1)">
       <use xlink:href="#HiraginoSans-W4-31"/>
       <use xlink:href="#HiraginoSans-W4-35" x="67.299988"/>
       <use xlink:href="#HiraginoSans-W4-30" x="134.599976"/>
       <use xlink:href="#HiraginoSans-W4-30" x="201.899963"/>
       <use xlink:href="#HiraginoSans-W4-30" x="269.199951"/>
      </g>
     </g>
    </g>
    <g id="ytick_5">
     <g id="line2d_15">
      <g>
       <use xlink:href="#m21fd576931" x="61.607813" y="57.400391" style="stroke: #000000; stroke-width: 0.8"/>
      </g>
     </g>
     <g id="text_16">
      <!-- 20000 -->
      <g transform="translate(20.959375 61.255078)scale(0.1 -0.1)">
       <use xlink:href="#HiraginoSans-W4-32"/>
       <use xlink:href="#HiraginoSans-W4-30" x="67.299988"/>
       <use xlink:href="#HiraginoSans-W4-30" x="134.599976"/>
       <use xlink:href="#HiraginoSans-W4-30" x="201.899963"/>
       <use xlink:href="#HiraginoSans-W4-30" x="269.199951"/>
      </g>
     </g>
    </g>
    <g id="text_17">
     <!-- 会員数 -->
     <g transform="translate(14.909375 155.256)rotate(-90)scale(0.1 -0.1)">
      <defs>
       <path id="HiraginoSans-W4-4f1a" d="M 2368 1690 
C 2138 1152 1933 755 1587 218 
C 1030 186 1030 186 941 186 
C 845 186 730 192 608 205 
L 691 -358 
C 851 -326 1043 -307 1696 -256 
C 2656 -186 3782 -64 4858 77 
C 4998 -96 5075 -211 5299 -531 
L 5728 -224 
C 5286 346 4896 787 4198 1466 
L 3789 1235 
C 4083 954 4205 826 4525 474 
C 3706 371 2758 282 2170 250 
C 2477 730 2650 1056 2931 1690 
L 5197 1690 
C 5517 1690 5741 1677 5933 1651 
L 5933 2195 
C 5734 2170 5523 2157 5197 2157 
L 1248 2157 
C 934 2157 717 2170 512 2195 
L 512 1651 
C 704 1677 928 1690 1248 1690 
L 2368 1690 
z
M 2918 5312 
C 2643 4883 2336 4544 1901 4192 
C 1382 3770 877 3462 230 3194 
C 352 3072 454 2918 531 2746 
C 1146 3027 1664 3354 2221 3827 
C 2643 4179 2906 4454 3206 4870 
C 3507 4448 3808 4134 4250 3789 
C 4762 3373 5382 2995 5984 2714 
C 6048 2886 6125 3021 6266 3213 
C 5683 3430 5088 3763 4531 4192 
C 4038 4563 3770 4851 3462 5312 
L 2918 5312 
z
M 1645 2861 
C 1786 2880 1965 2886 2157 2886 
L 4250 2886 
C 4480 2886 4640 2880 4794 2861 
L 4794 3373 
C 4646 3354 4493 3347 4243 3347 
L 2163 3347 
C 1926 3347 1792 3354 1645 3373 
L 1645 2861 
z
" transform="scale(0.015625)"/>
       <path id="HiraginoSans-W4-54e1" d="M 2131 595 
C 1709 269 1011 6 250 -102 
C 410 -269 467 -352 563 -550 
C 1165 -384 1312 -339 1549 -243 
C 1946 -77 2182 51 2541 294 
L 2157 595 
L 4205 595 
L 3859 314 
C 4506 -134 4877 -301 5856 -557 
C 5926 -397 6016 -275 6163 -122 
C 5376 19 4749 256 4250 595 
L 4845 595 
C 5171 595 5357 589 5562 570 
C 5549 678 5542 730 5542 774 
L 5542 890 
L 5536 1242 
L 5536 2771 
C 5536 3117 5542 3309 5562 3462 
C 5350 3443 5158 3437 4845 3437 
L 1581 3437 
C 1261 3437 1056 3443 858 3462 
C 877 3290 883 3104 883 2771 
L 883 1242 
C 877 717 877 717 858 570 
C 1069 589 1248 595 1581 595 
L 2131 595 
z
M 1357 3040 
L 5062 3040 
L 5062 2618 
L 1357 2618 
L 1357 3040 
z
M 1357 2240 
L 5062 2240 
L 5062 1811 
L 1357 1811 
L 1357 2240 
z
M 1357 1434 
L 5062 1434 
L 5062 986 
L 1357 986 
L 1357 1434 
z
M 5299 4678 
C 5299 4877 5306 4986 5325 5146 
C 5120 5120 4947 5114 4602 5114 
L 1824 5114 
C 1472 5114 1299 5120 1101 5146 
C 1120 4966 1126 4864 1126 4678 
L 1126 4243 
C 1126 4064 1120 3942 1101 3782 
C 1306 3795 1510 3802 1811 3802 
L 4614 3802 
C 4909 3802 5120 3795 5325 3782 
C 5306 3923 5299 4051 5299 4243 
L 5299 4678 
z
M 4806 4717 
L 4806 4192 
L 1613 4192 
L 1613 4717 
L 4806 4717 
z
" transform="scale(0.015625)"/>
       <path id="HiraginoSans-W4-6570" d="M 6170 4173 
C 6003 4141 5862 4134 5568 4134 
L 4288 4134 
C 4365 4384 4435 4627 4512 4947 
C 4557 5126 4563 5152 4595 5235 
L 4077 5344 
C 4070 5158 4032 4934 3974 4672 
C 3782 3853 3437 3130 2995 2598 
C 3142 2509 3226 2438 3354 2291 
C 3526 2515 3610 2643 3770 2931 
C 3904 2176 4070 1702 4397 1158 
C 4013 653 3526 275 2803 -77 
C 2944 -218 3021 -326 3110 -506 
C 3776 -141 4256 250 4666 755 
C 5069 230 5485 -141 6035 -467 
C 6138 -237 6202 -128 6317 13 
C 5747 314 5338 653 4954 1158 
C 5171 1523 5325 1875 5440 2304 
C 5562 2739 5613 3078 5651 3699 
C 5920 3699 6035 3693 6170 3667 
L 6170 4173 
z
M 5184 3699 
C 5133 2797 4992 2214 4672 1600 
C 4358 2170 4192 2707 4064 3539 
C 4096 3610 4102 3629 4128 3699 
L 5184 3699 
z
M 3046 339 
C 2752 512 2656 570 2419 685 
C 2643 992 2746 1190 2880 1626 
L 2963 1626 
C 3187 1626 3309 1619 3443 1594 
L 3443 2067 
C 3328 2042 3206 2035 2989 2035 
L 1862 2035 
C 1926 2176 1958 2234 2029 2426 
L 1562 2528 
C 1485 2285 1453 2202 1382 2035 
L 832 2035 
C 608 2035 493 2042 365 2067 
L 365 1594 
C 499 1619 614 1626 832 1626 
L 1165 1626 
C 1005 1344 941 1248 723 954 
C 1203 774 1402 691 1702 550 
C 1376 294 902 83 326 -58 
C 429 -205 493 -314 563 -480 
C 1325 -224 1715 -19 2112 346 
C 2432 173 2502 122 2778 -77 
L 3046 339 
z
M 2419 1626 
C 2310 1306 2214 1120 2022 870 
C 1818 960 1709 1005 1357 1146 
C 1504 1370 1549 1440 1651 1626 
L 2419 1626 
z
M 2163 4070 
L 2163 4902 
C 2163 5075 2170 5203 2189 5325 
L 1696 5325 
C 1722 5184 1728 5075 1728 4896 
L 1728 4070 
L 915 4070 
C 666 4070 531 4077 390 4102 
L 390 3642 
C 518 3667 678 3674 902 3674 
L 1434 3674 
C 1133 3258 864 3034 269 2688 
C 410 2566 486 2477 589 2317 
C 1184 2739 1408 2963 1747 3494 
C 1734 3366 1728 3258 1728 3162 
L 1728 2835 
C 1728 2752 1722 2662 1702 2586 
L 2182 2586 
C 2170 2662 2163 2758 2163 2848 
L 2163 3168 
C 2163 3258 2157 3347 2138 3494 
C 2355 3162 2490 3014 2848 2739 
C 2989 2970 3002 2982 3130 3110 
C 2816 3277 2566 3469 2406 3674 
L 2989 3674 
C 3200 3674 3309 3667 3418 3648 
L 3418 4096 
C 3322 4077 3200 4070 2995 4070 
L 2163 4070 
z
M 570 5056 
C 774 4768 896 4550 1024 4211 
L 1427 4371 
C 1286 4704 1190 4883 960 5210 
L 570 5056 
z
M 2918 5235 
C 2784 4883 2643 4634 2406 4333 
L 2790 4147 
C 3008 4442 3104 4608 3328 5050 
L 2918 5235 
z
" transform="scale(0.015625)"/>
      </defs>
      <use xlink:href="#HiraginoSans-W4-4f1a"/>
      <use xlink:href="#HiraginoSans-W4-54e1" x="99.999985"/>
      <use xlink:href="#HiraginoSans-W4-6570" x="199.999969"/>
     </g>
    </g>
   </g>
   <g id="line2d_16">
    <path d="M 402.495085 111.677707 
L 384.458722 108.369609 
L 366.422358 106.296942 
L 348.385994 103.826079 
L 330.349631 106.76661 
L 312.313267 104.397849 
L 294.276903 101.314374 
L 276.24054 97.10778 
L 258.204176 95.116795 
L 240.167813 92.819505 
L 222.131449 88.980477 
L 204.095085 86.101206 
L 186.058722 82.006924 
L 168.022358 76.769102 
L 149.985994 71.296446 
L 131.949631 64.302473 
L 113.913267 56.022017 
L 95.876903 49.109725 
L 77.84054 40.155397 
" clip-path="url(#p9e7a9ef37e)" style="fill: none; stroke: #1f77b4; stroke-width: 1.5; stroke-linecap: square"/>
    <defs>
     <path id="m98420c4ddf" d="M 0 3 
C 0.795609 3 1.55874 2.683901 2.12132 2.12132 
C 2.683901 1.55874 3 0.795609 3 0 
C 3 -0.795609 2.683901 -1.55874 2.12132 -2.12132 
C 1.55874 -2.683901 0.795609 -3 0 -3 
C -0.795609 -3 -1.55874 -2.683901 -2.12132 -2.12132 
C -2.683901 -1.55874 -3 -0.795609 -3 0 
C -3 0.795609 -2.683901 1.55874 -2.12132 2.12132 
C -1.55874 2.683901 -0.795609 3 0 3 
z
" style="stroke: #1f77b4"/>
    </defs>
    <g clip-path="url(#p9e7a9ef37e)">
     <use xlink:href="#m98420c4ddf" x="402.495085" y="111.677707" style="fill: #1f77b4; stroke: #1f77b4"/>
     <use xlink:href="#m98420c4ddf" x="384.458722" y="108.369609" style="fill: #1f77b4; stroke: #1f77b4"/>
     <use xlink:href="#m98420c4ddf" x="366.422358" y="106.296942" style="fill: #1f77b4; stroke: #1f77b4"/>
     <use xlink:href="#m98420c4ddf" x="348.385994" y="103.826079" style="fill: #1f77b4; stroke: #1f77b4"/>
     <use xlink:href="#m98420c4ddf" x="330.349631" y="106.76661" style="fill: #1f77b4; stroke: #1f77b4"/>
     <use xlink:href="#m98420c4ddf" x="312.313267" y="104.397849" style="fill: #1f77b4; stroke: #1f77b4"/>
     <use xlink:href="#m98420c4ddf" x="294.276903" y="101.314374" style="fill: #1f77b4; stroke: #1f77b4"/>
     <use xlink:href="#m98420c4ddf" x="276.24054" y="97.10778" style="fill: #1f77b4; stroke: #1f77b4"/>
     <use xlink:href="#m98420c4ddf" x="258.204176" y="95.116795" style="fill: #1f77b4; stroke: #1f77b4"/>
     <use xlink:href="#m98420c4ddf" x="240.167813" y="92.819505" style="fill: #1f77b4; stroke: #1f77b4"/>
     <use xlink:href="#m98420c4ddf" x="222.131449" y="88.980477" style="fill: #1f77b4; stroke: #1f77b4"/>
     <use xlink:href="#m98420c4ddf" x="204.095085" y="86.101206" style="fill: #1f77b4; stroke: #1f77b4"/>
     <use xlink:href="#m98420c4ddf" x="186.058722" y="82.006924" style="fill: #1f77b4; stroke: #1f77b4"/>
     <use xlink:href="#m98420c4ddf" x="168.022358" y="76.769102" style="fill: #1f77b4; stroke: #1f77b4"/>
     <use xlink:href="#m98420c4ddf" x="149.985994" y="71.296446" style="fill: #1f77b4; stroke: #1f77b4"/>
     <use xlink:href="#m98420c4ddf" x="131.949631" y="64.302473" style="fill: #1f77b4; stroke: #1f77b4"/>
     <use xlink:href="#m98420c4ddf" x="113.913267" y="56.022017" style="fill: #1f77b4; stroke: #1f77b4"/>
     <use xlink:href="#m98420c4ddf" x="95.876903" y="49.109725" style="fill: #1f77b4; stroke: #1f77b4"/>
     <use xlink:href="#m98420c4ddf" x="77.84054" y="40.155397" style="fill: #1f77b4; stroke: #1f77b4"/>
    </g>
   </g>
   <g id="line2d_17">
    <path d="M 402.495085 233.199267 
L 384.458722 235.823283 
L 366.422358 235.210672 
L 348.385994 233.750616 
L 330.349631 237.477332 
L 312.313267 235.629289 
L 294.276903 234.087552 
L 276.24054 226.103192 
L 258.204176 231.228702 
L 240.167813 236.599257 
L 222.131449 236.629887 
L 204.095085 236.609467 
L 186.058722 237.35481 
L 168.022358 238.140994 
L 149.985994 237.36502 
L 131.949631 235.904964 
L 113.913267 237.90616 
L 95.876903 239.468317 
L 77.84054 241.612455 
" clip-path="url(#p9e7a9ef37e)" style="fill: none; stroke: #ff7f0e; stroke-width: 1.5; stroke-linecap: square"/>
    <defs>
     <path id="mf8e47baeeb" d="M -0 3 
L 3 -3 
L -3 -3 
z
" style="stroke: #ff7f0e; stroke-linejoin: miter"/>
    </defs>
    <g clip-path="url(#p9e7a9ef37e)">
     <use xlink:href="#mf8e47baeeb" x="402.495085" y="233.199267" style="fill: #ff7f0e; stroke: #ff7f0e; stroke-linejoin: miter"/>
     <use xlink:href="#mf8e47baeeb" x="384.458722" y="235.823283" style="fill: #ff7f0e; stroke: #ff7f0e; stroke-linejoin: miter"/>
     <use xlink:href="#mf8e47baeeb" x="366.422358" y="235.210672" style="fill: #ff7f0e; stroke: #ff7f0e; stroke-linejoin: miter"/>
     <use xlink:href="#mf8e47baeeb" x="348.385994" y="233.750616" style="fill: #ff7f0e; stroke: #ff7f0e; stroke-linejoin: miter"/>
     <use xlink:href="#mf8e47baeeb" x="330.349631" y="237.477332" style="fill: #ff7f0e; stroke: #ff7f0e; stroke-linejoin: miter"/>
     <use xlink:href="#mf8e47baeeb" x="312.313267" y="235.629289" style="fill: #ff7f0e; stroke: #ff7f0e; stroke-linejoin: miter"/>
     <use xlink:href="#mf8e47baeeb" x="294.276903" y="234.087552" style="fill: #ff7f0e; stroke: #ff7f0e; stroke-linejoin: miter"/>
     <use xlink:href="#mf8e47baeeb" x="276.24054" y="226.103192" style="fill: #ff7f0e; stroke: #ff7f0e; stroke-linejoin: miter"/>
     <use xlink:href="#mf8e47baeeb" x="258.204176" y="231.228702" style="fill: #ff7f0e; stroke: #ff7f0e; stroke-linejoin: miter"/>
     <use xlink:href="#mf8e47baeeb" x="240.167813" y="236.599257" style="fill: #ff7f0e; stroke: #ff7f0e; stroke-linejoin: miter"/>
     <use xlink:href="#mf8e47baeeb" x="222.131449" y="236.629887" style="fill: #ff7f0e; stroke: #ff7f0e; stroke-linejoin: miter"/>
     <use xlink:href="#mf8e47baeeb" x="204.095085" y="236.609467" style="fill: #ff7f0e; stroke: #ff7f0e; stroke-linejoin: miter"/>
     <use xlink:href="#mf8e47baeeb" x="186.058722" y="237.35481" style="fill: #ff7f0e; stroke: #ff7f0e; stroke-linejoin: miter"/>
     <use xlink:href="#mf8e47baeeb" x="168.022358" y="238.140994" style="fill: #ff7f0e; stroke: #ff7f0e; stroke-linejoin: miter"/>
     <use xlink:href="#mf8e47baeeb" x="149.985994" y="237.36502" style="fill: #ff7f0e; stroke: #ff7f0e; stroke-linejoin: miter"/>
     <use xlink:href="#mf8e47baeeb" x="131.949631" y="235.904964" style="fill: #ff7f0e; stroke: #ff7f0e; stroke-linejoin: miter"/>
     <use xlink:href="#mf8e47baeeb" x="113.913267" y="237.90616" style="fill: #ff7f0e; stroke: #ff7f0e; stroke-linejoin: miter"/>
     <use xlink:href="#mf8e47baeeb" x="95.876903" y="239.468317" style="fill: #ff7f0e; stroke: #ff7f0e; stroke-linejoin: miter"/>
     <use xlink:href="#mf8e47baeeb" x="77.84054" y="241.612455" style="fill: #ff7f0e; stroke: #ff7f0e; stroke-linejoin: miter"/>
    </g>
   </g>
   <g id="line2d_18">
    <path d="M 402.495085 234.50617 
L 384.458722 239.325375 
L 366.422358 241.92897 
L 348.385994 244.838872 
L 330.349631 253.619626 
L 312.313267 255.51872 
L 294.276903 254.783587 
" clip-path="url(#p9e7a9ef37e)" style="fill: none; stroke: #2ca02c; stroke-width: 1.5; stroke-linecap: square"/>
    <defs>
     <path id="me60f008feb" d="M 0 -3 
L -3 3 
L 3 3 
z
" style="stroke: #2ca02c; stroke-linejoin: miter"/>
    </defs>
    <g clip-path="url(#p9e7a9ef37e)">
     <use xlink:href="#me60f008feb" x="402.495085" y="234.50617" style="fill: #2ca02c; stroke: #2ca02c; stroke-linejoin: miter"/>
     <use xlink:href="#me60f008feb" x="384.458722" y="239.325375" style="fill: #2ca02c; stroke: #2ca02c; stroke-linejoin: miter"/>
     <use xlink:href="#me60f008feb" x="366.422358" y="241.92897" style="fill: #2ca02c; stroke: #2ca02c; stroke-linejoin: miter"/>
     <use xlink:href="#me60f008feb" x="348.385994" y="244.838872" style="fill: #2ca02c; stroke: #2ca02c; stroke-linejoin: miter"/>
     <use xlink:href="#me60f008feb" x="330.349631" y="253.619626" style="fill: #2ca02c; stroke: #2ca02c; stroke-linejoin: miter"/>
     <use xlink:href="#me60f008feb" x="312.313267" y="255.51872" style="fill: #2ca02c; stroke: #2ca02c; stroke-linejoin: miter"/>
     <use xlink:href="#me60f008feb" x="294.276903" y="254.783587" style="fill: #2ca02c; stroke: #2ca02c; stroke-linejoin: miter"/>
    </g>
   </g>
   <g id="line2d_19">
    <path d="M 186.058722 261.216 
L 168.022358 261.20579 
L 149.985994 261.164949 
L 131.949631 261.103688 
L 113.913267 261.073057 
L 95.876903 261.022007 
L 77.84054 261.124108 
" clip-path="url(#p9e7a9ef37e)" style="fill: none; stroke: #d62728; stroke-width: 1.5; stroke-linecap: square"/>
    <defs>
     <path id="m60b9cd0ea9" d="M -3 -0 
L 3 3 
L 3 -3 
z
" style="stroke: #d62728; stroke-linejoin: miter"/>
    </defs>
    <g clip-path="url(#p9e7a9ef37e)">
     <use xlink:href="#m60b9cd0ea9" x="186.058722" y="261.216" style="fill: #d62728; stroke: #d62728; stroke-linejoin: miter"/>
     <use xlink:href="#m60b9cd0ea9" x="168.022358" y="261.20579" style="fill: #d62728; stroke: #d62728; stroke-linejoin: miter"/>
     <use xlink:href="#m60b9cd0ea9" x="149.985994" y="261.164949" style="fill: #d62728; stroke: #d62728; stroke-linejoin: miter"/>
     <use xlink:href="#m60b9cd0ea9" x="131.949631" y="261.103688" style="fill: #d62728; stroke: #d62728; stroke-linejoin: miter"/>
     <use xlink:href="#m60b9cd0ea9" x="113.913267" y="261.073057" style="fill: #d62728; stroke: #d62728; stroke-linejoin: miter"/>
     <use xlink:href="#m60b9cd0ea9" x="95.876903" y="261.022007" style="fill: #d62728; stroke: #d62728; stroke-linejoin: miter"/>
     <use xlink:href="#m60b9cd0ea9" x="77.84054" y="261.124108" style="fill: #d62728; stroke: #d62728; stroke-linejoin: miter"/>
    </g>
   </g>
   <g id="line2d_20">
    <path d="M 402.495085 55.725921 
L 384.458722 59.871254 
L 366.422358 59.820204 
L 348.385994 58.809396 
L 330.349631 74.267608 
L 312.313267 71.970318 
L 294.276903 66.599763 
L 276.24054 61.239419 
L 258.204176 64.404574 
L 240.167813 67.457418 
L 222.131449 63.628601 
L 204.095085 60.72891 
L 186.058722 56.971563 
L 168.022358 52.499505 
L 149.985994 46.210034 
L 131.949631 37.704954 
L 113.913267 31.384853 
L 95.876903 25.993878 
L 77.84054 19.296 
" clip-path="url(#p9e7a9ef37e)" style="fill: none; stroke: #9467bd; stroke-width: 1.5; stroke-linecap: square"/>
    <defs>
     <path id="m33ea46a165" d="M 3 0 
L -3 -3 
L -3 3 
z
" style="stroke: #9467bd; stroke-linejoin: miter"/>
    </defs>
    <g clip-path="url(#p9e7a9ef37e)">
     <use xlink:href="#m33ea46a165" x="402.495085" y="55.725921" style="fill: #9467bd; stroke: #9467bd; stroke-linejoin: miter"/>
     <use xlink:href="#m33ea46a165" x="384.458722" y="59.871254" style="fill: #9467bd; stroke: #9467bd; stroke-linejoin: miter"/>
     <use xlink:href="#m33ea46a165" x="366.422358" y="59.820204" style="fill: #9467bd; stroke: #9467bd; stroke-linejoin: miter"/>
     <use xlink:href="#m33ea46a165" x="348.385994" y="58.809396" style="fill: #9467bd; stroke: #9467bd; stroke-linejoin: miter"/>
     <use xlink:href="#m33ea46a165" x="330.349631" y="74.267608" style="fill: #9467bd; stroke: #9467bd; stroke-linejoin: miter"/>
     <use xlink:href="#m33ea46a165" x="312.313267" y="71.970318" style="fill: #9467bd; stroke: #9467bd; stroke-linejoin: miter"/>
     <use xlink:href="#m33ea46a165" x="294.276903" y="66.599763" style="fill: #9467bd; stroke: #9467bd; stroke-linejoin: miter"/>
     <use xlink:href="#m33ea46a165" x="276.24054" y="61.239419" style="fill: #9467bd; stroke: #9467bd; stroke-linejoin: miter"/>
     <use xlink:href="#m33ea46a165" x="258.204176" y="64.404574" style="fill: #9467bd; stroke: #9467bd; stroke-linejoin: miter"/>
     <use xlink:href="#m33ea46a165" x="240.167813" y="67.457418" style="fill: #9467bd; stroke: #9467bd; stroke-linejoin: miter"/>
     <use xlink:href="#m33ea46a165" x="222.131449" y="63.628601" style="fill: #9467bd; stroke: #9467bd; stroke-linejoin: miter"/>
     <use xlink:href="#m33ea46a165" x="204.095085" y="60.72891" style="fill: #9467bd; stroke: #9467bd; stroke-linejoin: miter"/>
     <use xlink:href="#m33ea46a165" x="186.058722" y="56.971563" style="fill: #9467bd; stroke: #9467bd; stroke-linejoin: miter"/>
     <use xlink:href="#m33ea46a165" x="168.022358" y="52.499505" style="fill: #9467bd; stroke: #9467bd; stroke-linejoin: miter"/>
     <use xlink:href="#m33ea46a165" x="149.985994" y="46.210034" style="fill: #9467bd; stroke: #9467bd; stroke-linejoin: miter"/>
     <use xlink:href="#m33ea46a165" x="131.949631" y="37.704954" style="fill: #9467bd; stroke: #9467bd; stroke-linejoin: miter"/>
     <use xlink:href="#m33ea46a165" x="113.913267" y="31.384853" style="fill: #9467bd; stroke: #9467bd; stroke-linejoin: miter"/>
     <use xlink:href="#m33ea46a165" x="95.876903" y="25.993878" style="fill: #9467bd; stroke: #9467bd; stroke-linejoin: miter"/>
     <use xlink:href="#m33ea46a165" x="77.84054" y="19.296" style="fill: #9467bd; stroke: #9467bd; stroke-linejoin: miter"/>
    </g>
   </g>
   <g id="patch_3">
    <path d="M 61.607813 273.312 
L 61.607813 7.2 
" style="fill: none; stroke: #000000; stroke-width: 0.8; stroke-linejoin: miter; stroke-linecap: square"/>
   </g>
   <g id="patch_4">
    <path d="M 418.727813 273.312 
L 418.727813 7.2 
" style="fill: none; stroke: #000000; stroke-width: 0.8; stroke-linejoin: miter; stroke-linecap: square"/>
   </g>
   <g id="patch_5">
    <path d="M 61.607812 273.312 
L 418.727813 273.312 
" style="fill: none; stroke: #000000; stroke-width: 0.8; stroke-linejoin: miter; stroke-linecap: square"/>
   </g>
   <g id="patch_6">
    <path d="M 61.607812 7.2 
L 418.727813 7.2 
" style="fill: none; stroke: #000000; stroke-width: 0.8; stroke-linejoin: miter; stroke-linecap: square"/>
   </g>
   <g id="legend_1">
    <g id="patch_7">
     <path d="M 68.607812 178.654437 
L 160.607812 178.654437 
Q 162.607812 178.654437 162.607812 176.654437 
L 162.607812 103.857562 
Q 162.607812 101.857562 160.607812 101.857562 
L 68.607812 101.857562 
Q 66.607812 101.857562 66.607812 103.857562 
L 66.607812 176.654437 
Q 66.607812 178.654437 68.607812 178.654437 
z
" style="fill: #ffffff; opacity: 0.8; stroke: #cccccc; stroke-linejoin: miter"/>
    </g>
    <g id="line2d_21">
     <path d="M 70.607812 110.066937 
L 80.607812 110.066937 
L 90.607812 110.066937 
" style="fill: none; stroke: #1f77b4; stroke-width: 1.5; stroke-linecap: square"/>
     <g>
      <use xlink:href="#m98420c4ddf" x="80.607812" y="110.066937" style="fill: #1f77b4; stroke: #1f77b4"/>
     </g>
    </g>
    <g id="text_18">
     <!-- 正会員 -->
     <g transform="translate(98.607812 113.566937)scale(0.1 -0.1)">
      <defs>
       <path id="HiraginoSans-W4-6b63" d="M 3130 307 
L 1907 307 
L 1907 2483 
C 1907 2803 1920 3027 1952 3245 
L 1344 3245 
C 1376 3008 1389 2803 1389 2477 
L 1389 307 
L 1126 307 
C 755 307 570 320 358 352 
L 358 -205 
C 608 -173 826 -160 1133 -160 
L 5274 -160 
C 5587 -160 5818 -173 6042 -205 
L 6042 352 
C 5811 320 5594 307 5267 307 
L 3654 307 
L 3654 2323 
L 4877 2323 
C 5158 2323 5370 2310 5549 2285 
L 5549 2822 
C 5370 2797 5184 2784 4877 2784 
L 3654 2784 
L 3654 4531 
L 5082 4531 
C 5344 4531 5594 4518 5818 4493 
L 5818 5037 
C 5600 5011 5376 4998 5082 4998 
L 1344 4998 
C 1037 4998 813 5011 608 5037 
L 608 4493 
C 832 4518 1069 4531 1350 4531 
L 3130 4531 
L 3130 307 
z
" transform="scale(0.015625)"/>
      </defs>
      <use xlink:href="#HiraginoSans-W4-6b63"/>
      <use xlink:href="#HiraginoSans-W4-4f1a" x="99.999985"/>
      <use xlink:href="#HiraginoSans-W4-54e1" x="199.999969"/>
     </g>
    </g>
    <g id="line2d_22">
     <path d="M 70.607812 124.826312 
L 80.607812 124.826312 
L 90.607812 124.826312 
" style="fill: none; stroke: #ff7f0e; stroke-width: 1.5; stroke-linecap: square"/>
     <g>
      <use xlink:href="#mf8e47baeeb" x="80.607812" y="124.826312" style="fill: #ff7f0e; stroke: #ff7f0e; stroke-linejoin: miter"/>
     </g>
    </g>
    <g id="text_19">
     <!-- 学生会員 -->
     <g transform="translate(98.607812 128.326312)scale(0.1 -0.1)">
      <defs>
       <path id="HiraginoSans-W4-5b66" d="M 1229 4307 
C 864 4307 749 4314 486 4333 
C 506 4179 512 4045 512 3808 
L 512 3296 
C 512 3130 499 2982 480 2835 
L 986 2835 
L 986 3891 
L 5395 3891 
L 5395 2835 
L 5901 2835 
C 5882 2989 5869 3136 5869 3296 
L 5869 3808 
C 5869 4045 5875 4179 5894 4333 
C 5658 4314 5530 4307 5139 4307 
L 4704 4307 
C 4896 4538 5056 4768 5280 5139 
L 4794 5312 
C 4614 4902 4461 4646 4173 4307 
L 3520 4307 
C 3386 4678 3283 4890 3046 5325 
L 2573 5197 
C 2778 4883 2912 4602 3014 4307 
L 2157 4307 
C 1926 4710 1792 4915 1523 5242 
L 1069 5101 
C 1350 4774 1466 4608 1632 4307 
L 1229 4307 
z
M 3462 1338 
L 5299 1338 
C 5600 1338 5837 1325 6010 1299 
L 6010 1818 
C 5811 1792 5600 1779 5299 1779 
L 3462 1779 
L 3462 1926 
C 4038 2227 4429 2490 4877 2861 
C 5011 2976 5011 2976 5101 3046 
L 4826 3341 
C 4710 3322 4582 3315 4346 3315 
L 2093 3315 
C 1856 3315 1638 3328 1466 3347 
L 1466 2861 
C 1638 2880 1856 2893 2080 2893 
L 4262 2893 
C 3878 2598 3616 2432 3219 2240 
L 2950 2240 
C 2963 2112 2970 1997 2970 1869 
L 2970 1779 
L 1101 1779 
C 819 1779 602 1792 403 1818 
L 403 1299 
C 595 1325 806 1338 1101 1338 
L 2970 1338 
L 2970 147 
C 2970 19 2931 0 2643 0 
C 2400 0 2157 19 1811 64 
C 1888 -102 1920 -192 1965 -422 
C 2189 -442 2509 -454 2675 -454 
C 3334 -454 3462 -371 3462 58 
L 3462 1338 
z
" transform="scale(0.015625)"/>
       <path id="HiraginoSans-W4-751f" d="M 3034 3558 
L 3034 2253 
L 1914 2253 
C 1594 2253 1395 2266 1216 2291 
L 1216 1760 
C 1402 1786 1619 1798 1920 1798 
L 3034 1798 
L 3034 224 
L 1210 224 
C 896 224 666 237 422 269 
L 422 -282 
C 691 -250 909 -237 1222 -237 
L 5280 -237 
C 5600 -237 5786 -250 6061 -282 
L 6061 269 
C 5830 237 5600 224 5267 224 
L 3546 224 
L 3546 1798 
L 4794 1798 
C 5094 1798 5318 1786 5510 1760 
L 5510 2291 
C 5331 2266 5107 2253 4794 2253 
L 3546 2253 
L 3546 3558 
L 5069 3558 
C 5350 3558 5562 3546 5824 3520 
L 5824 4058 
C 5600 4032 5357 4019 5056 4019 
L 3546 4019 
L 3546 4640 
C 3546 4934 3552 5133 3584 5344 
L 2989 5344 
C 3021 5101 3034 4922 3034 4640 
L 3034 4019 
L 1786 4019 
C 1856 4205 1965 4493 1997 4595 
C 2048 4762 2067 4819 2118 4947 
L 1568 5094 
C 1555 4909 1523 4762 1427 4493 
C 1171 3718 800 3085 301 2547 
C 480 2445 538 2400 723 2208 
C 1062 2611 1318 3014 1587 3558 
L 3034 3558 
z
" transform="scale(0.015625)"/>
      </defs>
      <use xlink:href="#HiraginoSans-W4-5b66"/>
      <use xlink:href="#HiraginoSans-W4-751f" x="99.999985"/>
      <use xlink:href="#HiraginoSans-W4-4f1a" x="199.999969"/>
      <use xlink:href="#HiraginoSans-W4-54e1" x="299.999954"/>
     </g>
    </g>
    <g id="line2d_23">
     <path d="M 70.607812 139.585687 
L 80.607812 139.585687 
L 90.607812 139.585687 
" style="fill: none; stroke: #2ca02c; stroke-width: 1.5; stroke-linecap: square"/>
     <g>
      <use xlink:href="#me60f008feb" x="80.607812" y="139.585687" style="fill: #2ca02c; stroke: #2ca02c; stroke-linejoin: miter"/>
     </g>
    </g>
    <g id="text_20">
     <!-- ジュニア会員 -->
     <g transform="translate(98.607812 143.085687)scale(0.1 -0.1)">
      <defs>
       <path id="HiraginoSans-W4-30b8" d="M 1286 4467 
C 1773 4301 2413 3962 2899 3610 
L 3200 4115 
C 2650 4454 2208 4672 1581 4928 
L 1286 4467 
z
M 781 2931 
C 1389 2694 1965 2387 2445 2035 
L 2733 2547 
C 2189 2893 1696 3142 1088 3392 
L 781 2931 
z
M 4614 5011 
C 4877 4717 5082 4397 5280 4000 
L 5658 4211 
C 5434 4627 5286 4845 4986 5203 
L 4614 5011 
z
M 1037 -147 
C 1133 -115 1158 -102 1293 -77 
C 1421 -51 1530 -26 1638 -6 
C 2163 102 2848 333 3302 557 
C 4435 1120 5216 1990 5779 3328 
C 5562 3475 5491 3539 5299 3738 
C 5107 3168 4896 2771 4538 2304 
C 4026 1632 3424 1184 2643 883 
C 1990 634 1325 486 883 480 
L 1037 -147 
z
M 5357 5357 
C 5638 5024 5830 4736 6016 4365 
L 6387 4576 
C 6157 4998 6016 5197 5715 5549 
L 5357 5357 
z
" transform="scale(0.015625)"/>
       <path id="HiraginoSans-W4-30e5" d="M 4038 454 
C 4160 1088 4211 1389 4352 2381 
C 4410 2771 4410 2771 4474 2906 
L 4224 3123 
C 4115 3085 4045 3078 3872 3078 
L 2227 3078 
C 1946 3078 1786 3091 1606 3117 
L 1606 2586 
C 1786 2605 1869 2611 2214 2611 
L 3846 2611 
C 3789 2029 3642 1088 3507 454 
L 1626 454 
C 1299 454 1178 461 998 493 
L 998 -51 
C 1178 -26 1312 -19 1626 -19 
L 4736 -19 
C 5030 -19 5190 -26 5357 -51 
L 5357 493 
C 5178 461 5062 454 4736 454 
L 4038 454 
z
" transform="scale(0.015625)"/>
       <path id="HiraginoSans-W4-30cb" d="M 1261 3661 
C 1491 3686 1632 3693 2035 3693 
L 4378 3693 
C 4755 3693 4915 3686 5139 3661 
L 5139 4288 
C 4915 4250 4768 4243 4371 4243 
L 2042 4243 
C 1651 4243 1491 4250 1261 4288 
L 1261 3661 
z
M 614 595 
C 845 621 1050 627 1434 627 
L 4954 627 
C 5338 627 5568 621 5786 595 
L 5786 1229 
C 5555 1190 5376 1184 4947 1184 
L 1440 1184 
C 1024 1184 851 1197 614 1229 
L 614 595 
z
" transform="scale(0.015625)"/>
       <path id="HiraginoSans-W4-30a2" d="M 5574 4768 
C 5446 4723 5408 4723 5011 4723 
L 1606 4723 
C 1216 4723 1030 4736 806 4768 
L 806 4186 
C 1043 4211 1210 4218 1594 4218 
L 5152 4218 
C 4973 3866 4755 3578 4467 3309 
C 4166 3034 3923 2886 3475 2707 
C 3680 2534 3738 2470 3866 2278 
C 4698 2688 5280 3270 5722 4147 
C 5798 4301 5818 4326 5882 4416 
L 5574 4768 
z
M 2714 3610 
C 2739 3482 2739 3437 2739 3258 
C 2739 2016 2502 1395 1830 851 
C 1504 589 1197 435 678 282 
C 858 90 915 13 1030 -237 
C 1811 70 2285 397 2675 883 
C 3110 1440 3283 2061 3309 3142 
C 3315 3494 3315 3494 3334 3610 
L 2714 3610 
z
" transform="scale(0.015625)"/>
      </defs>
      <use xlink:href="#HiraginoSans-W4-30b8"/>
      <use xlink:href="#HiraginoSans-W4-30e5" x="99.999985"/>
      <use xlink:href="#HiraginoSans-W4-30cb" x="199.999969"/>
      <use xlink:href="#HiraginoSans-W4-30a2" x="299.999954"/>
      <use xlink:href="#HiraginoSans-W4-4f1a" x="399.999939"/>
      <use xlink:href="#HiraginoSans-W4-54e1" x="499.999924"/>
     </g>
    </g>
    <g id="line2d_24">
     <path d="M 70.607812 154.345062 
L 80.607812 154.345062 
L 90.607812 154.345062 
" style="fill: none; stroke: #d62728; stroke-width: 1.5; stroke-linecap: square"/>
     <g>
      <use xlink:href="#m60b9cd0ea9" x="80.607812" y="154.345062" style="fill: #d62728; stroke: #d62728; stroke-linejoin: miter"/>
     </g>
    </g>
    <g id="text_21">
     <!-- 準会員 -->
     <g transform="translate(98.607812 157.845062)scale(0.1 -0.1)">
      <defs>
       <path id="HiraginoSans-W4-6e96" d="M 4467 3802 
L 4467 4250 
L 5395 4250 
C 5619 4250 5792 4243 5965 4218 
L 5965 4678 
C 5786 4659 5574 4646 5344 4646 
L 4525 4646 
C 4659 4819 4717 4922 4896 5216 
L 4442 5357 
C 4339 5088 4243 4915 4051 4646 
L 3059 4646 
C 3117 4736 3117 4736 3245 4941 
C 3277 4986 3290 5011 3424 5248 
L 2950 5402 
C 2675 4710 2259 4166 1651 3686 
C 1798 3565 1882 3469 1958 3322 
C 2182 3526 2214 3565 2426 3834 
C 2400 3552 2400 3475 2400 3187 
L 2400 2195 
C 2400 1965 2394 1869 2374 1670 
C 2534 1690 2701 1696 2899 1696 
L 5446 1696 
C 5709 1696 5914 1683 6074 1664 
L 6074 2131 
C 5875 2106 5722 2099 5459 2099 
L 4467 2099 
L 4467 2598 
L 5190 2598 
C 5472 2598 5632 2592 5786 2573 
L 5786 3002 
C 5645 2982 5491 2976 5190 2976 
L 4467 2976 
L 4467 3424 
L 5190 3424 
C 5478 3424 5626 3418 5786 3398 
L 5786 3827 
C 5658 3808 5504 3802 5190 3802 
L 4467 3802 
z
M 2854 3802 
L 2854 4250 
L 4026 4250 
L 4026 3802 
L 2854 3802 
z
M 2854 3424 
L 4026 3424 
L 4026 2976 
L 2854 2976 
L 2854 3424 
z
M 2854 2598 
L 4026 2598 
L 4026 2099 
L 2854 2099 
L 2854 2598 
z
M 3411 666 
L 5382 666 
C 5690 666 5875 653 6074 627 
L 6074 1152 
C 5875 1120 5722 1114 5414 1114 
L 3411 1114 
C 3411 1318 3418 1427 3437 1536 
L 2899 1536 
C 2918 1414 2925 1299 2925 1114 
L 1005 1114 
C 717 1114 538 1126 365 1152 
L 365 627 
C 557 653 755 666 1056 666 
L 2925 666 
L 2925 141 
C 2925 -128 2912 -307 2880 -550 
L 3456 -550 
C 3424 -333 3411 -134 3411 147 
L 3411 666 
z
M 685 4973 
C 1107 4755 1331 4589 1690 4237 
L 1997 4627 
C 1645 4934 1453 5069 998 5325 
L 685 4973 
z
M 346 3750 
C 762 3546 1011 3386 1389 3072 
L 1683 3475 
C 1325 3744 1088 3891 659 4109 
L 346 3750 
z
M 1830 3021 
C 1389 2528 794 2054 378 1856 
L 685 1414 
C 1350 1914 1645 2170 2067 2624 
L 1830 3021 
z
" transform="scale(0.015625)"/>
      </defs>
      <use xlink:href="#HiraginoSans-W4-6e96"/>
      <use xlink:href="#HiraginoSans-W4-4f1a" x="99.999985"/>
      <use xlink:href="#HiraginoSans-W4-54e1" x="199.999969"/>
     </g>
    </g>
    <g id="line2d_25">
     <path d="M 70.607812 169.104437 
L 80.607812 169.104437 
L 90.607812 169.104437 
" style="fill: none; stroke: #9467bd; stroke-width: 1.5; stroke-linecap: square"/>
     <g>
      <use xlink:href="#m33ea46a165" x="80.607812" y="169.104437" style="fill: #9467bd; stroke: #9467bd; stroke-linejoin: miter"/>
     </g>
    </g>
    <g id="text_22">
     <!-- 合計人数 -->
     <g transform="translate(98.607812 172.604437)scale(0.1 -0.1)">
      <defs>
       <path id="HiraginoSans-W4-5408" d="M 1677 2899 
C 1824 2918 1990 2925 2189 2925 
L 4186 2925 
C 4429 2925 4595 2918 4736 2899 
L 4736 3411 
C 5178 3104 5498 2918 5958 2701 
C 6042 2899 6112 3014 6234 3187 
C 5626 3424 5056 3750 4518 4186 
C 4019 4582 3731 4890 3456 5318 
L 2893 5318 
C 2630 4883 2381 4595 1926 4211 
C 1402 3763 832 3424 198 3162 
C 358 2989 422 2893 493 2720 
C 966 2938 1203 3078 1677 3398 
L 1677 2899 
z
M 2195 3386 
C 1971 3386 1811 3392 1690 3411 
C 2355 3878 2733 4256 3187 4890 
C 3597 4320 4032 3898 4730 3411 
C 4595 3392 4435 3386 4186 3386 
L 2195 3386 
z
M 1690 -435 
L 1690 -77 
L 4698 -77 
L 4698 -435 
L 5242 -435 
C 5216 -243 5203 -58 5203 205 
L 5203 1645 
C 5203 1901 5210 2067 5235 2240 
C 5101 2221 4960 2214 4723 2214 
L 1664 2214 
C 1427 2214 1286 2221 1152 2240 
C 1178 2061 1184 1888 1184 1645 
L 1184 205 
C 1184 -51 1171 -230 1146 -435 
L 1690 -435 
z
M 1690 1766 
L 4698 1766 
L 4698 371 
L 1690 371 
L 1690 1766 
z
" transform="scale(0.015625)"/>
       <path id="HiraginoSans-W4-8a08" d="M 4314 3322 
L 3795 3322 
C 3469 3322 3245 3334 3046 3360 
L 3046 2822 
C 3264 2848 3520 2861 3795 2861 
L 4314 2861 
L 4314 448 
C 4314 -13 4301 -243 4269 -486 
L 4864 -486 
C 4826 -224 4813 26 4813 448 
L 4813 2861 
L 5376 2861 
C 5690 2861 5907 2848 6144 2822 
L 6144 3360 
C 5933 3334 5722 3322 5376 3322 
L 4813 3322 
L 4813 4576 
C 4813 4870 4826 5101 4858 5306 
L 4269 5306 
C 4301 5062 4314 4896 4314 4576 
L 4314 3322 
z
M 672 4634 
C 819 4653 973 4659 1197 4659 
L 2259 4659 
C 2490 4659 2611 4653 2778 4634 
L 2778 5101 
C 2611 5075 2496 5069 2259 5069 
L 1197 5069 
C 954 5069 826 5075 672 5101 
L 672 4634 
z
M 378 3738 
C 570 3763 717 3770 922 3770 
L 2502 3770 
C 2746 3770 2906 3763 3053 3738 
L 3053 4218 
C 2906 4192 2752 4186 2502 4186 
L 928 4186 
C 698 4186 538 4198 378 4224 
L 378 3738 
z
M 672 2861 
C 813 2880 915 2886 1126 2886 
L 2330 2886 
C 2534 2886 2611 2880 2771 2861 
L 2771 3309 
C 2618 3296 2547 3290 2330 3290 
L 1126 3290 
C 902 3290 819 3296 672 3309 
L 672 2861 
z
M 672 1978 
C 813 1990 909 1997 1120 1997 
L 2323 1997 
C 2541 1997 2630 1990 2771 1978 
L 2771 2419 
C 2630 2406 2554 2400 2330 2400 
L 1126 2400 
C 890 2400 806 2406 672 2426 
L 672 1978 
z
M 1190 -166 
L 2317 -166 
L 2317 -403 
L 2816 -403 
C 2790 -243 2778 -83 2778 141 
L 2778 1018 
C 2778 1261 2784 1370 2803 1523 
C 2682 1510 2554 1504 2374 1504 
L 1146 1504 
C 934 1504 832 1510 698 1523 
C 723 1370 730 1222 730 1011 
L 730 128 
C 730 -128 717 -314 698 -493 
L 1190 -493 
L 1190 -166 
z
M 1184 1094 
L 2317 1094 
L 2317 237 
L 1184 237 
L 1184 1094 
z
" transform="scale(0.015625)"/>
       <path id="HiraginoSans-W4-4eba" d="M 2893 5254 
C 2912 5088 2918 4973 2918 4717 
C 2918 3277 2586 2195 1856 1267 
C 1434 723 1056 422 307 13 
C 486 -134 576 -243 691 -448 
C 1222 -115 1466 77 1824 429 
C 2240 845 2528 1235 2758 1722 
C 2989 2195 3098 2528 3213 3110 
C 3411 2285 3661 1709 4051 1152 
C 4506 512 4954 83 5728 -448 
C 5856 -224 5926 -128 6112 38 
C 5760 243 5606 346 5414 499 
C 5082 768 4736 1120 4499 1434 
C 4109 1946 3750 2682 3616 3226 
C 3533 3565 3456 4262 3456 4672 
C 3456 4858 3475 5152 3494 5254 
L 2893 5254 
z
" transform="scale(0.015625)"/>
      </defs>
      <use xlink:href="#HiraginoSans-W4-5408"/>
      <use xlink:href="#HiraginoSans-W4-8a08" x="99.999985"/>
      <use xlink:href="#HiraginoSans-W4-4eba" x="199.999969"/>
      <use xlink:href="#HiraginoSans-W4-6570" x="299.999954"/>
     </g>
    </g>
   </g>
  </g>
 </g>
 <defs>
  <clipPath id="p9e7a9ef37e">
   <rect x="61.607813" y="7.2" width="357.12" height="266.112"/>
  </clipPath>
 </defs>
</svg>
