<?xml version="1.0" encoding="UTF-8" standalone="no"?>
<!DOCTYPE svg PUBLIC "-//W3C//DTD SVG 1.1//EN"
 "http://www.w3.org/Graphics/SVG/1.1/DTD/svg11.dtd">
<!-- Generated by graphviz version 2.44.1 (20200629.0846)
 -->
<!-- Title: Tree Pages: 1 -->
<svg width="527pt" height="433pt"
 viewBox="0.00 0.00 527.00 433.00" xmlns="http://www.w3.org/2000/svg" xmlns:xlink="http://www.w3.org/1999/xlink">
<g id="graph0" class="graph" transform="scale(1 1) rotate(0) translate(4 429)">
<title>Tree</title>
<polygon fill="white" stroke="transparent" points="-4,4 -4,-429 523,-429 523,4 -4,4"/>
<!-- 0 -->
<g id="node1" class="node">
<title>0</title>
<polygon fill="none" stroke="black" points="258,-425 109,-425 109,-342 258,-342 258,-425"/>
<text text-anchor="middle" x="183.5" y="-409.8" font-family="Times,serif" font-size="14.00">petal width (cm) &lt;= 0.8</text>
<text text-anchor="middle" x="183.5" y="-394.8" font-family="Times,serif" font-size="14.00">gini = 0.667</text>
<text text-anchor="middle" x="183.5" y="-379.8" font-family="Times,serif" font-size="14.00">samples = 150</text>
<text text-anchor="middle" x="183.5" y="-364.8" font-family="Times,serif" font-size="14.00">value = [50, 50, 50]</text>
<text text-anchor="middle" x="183.5" y="-349.8" font-family="Times,serif" font-size="14.00">class = setosa</text>
</g>
<!-- 1 -->
<g id="node2" class="node">
<title>1</title>
<polygon fill="none" stroke="black" points="164,-298.5 51,-298.5 51,-230.5 164,-230.5 164,-298.5"/>
<text text-anchor="middle" x="107.5" y="-283.3" font-family="Times,serif" font-size="14.00">gini = 0.0</text>
<text text-anchor="middle" x="107.5" y="-268.3" font-family="Times,serif" font-size="14.00">samples = 50</text>
<text text-anchor="middle" x="107.5" y="-253.3" font-family="Times,serif" font-size="14.00">value = [50, 0, 0]</text>
<text text-anchor="middle" x="107.5" y="-238.3" font-family="Times,serif" font-size="14.00">class = setosa</text>
</g>
<!-- 0&#45;&gt;1 -->
<g id="edge1" class="edge">
<title>0&#45;&gt;1</title>
<path fill="none" stroke="black" d="M157.13,-341.91C149.82,-330.65 141.87,-318.42 134.53,-307.11"/>
<polygon fill="black" stroke="black" points="137.43,-305.15 129.04,-298.67 131.56,-308.96 137.43,-305.15"/>
<text text-anchor="middle" x="123.85" y="-319.42" font-family="Times,serif" font-size="14.00">True</text>
</g>
<!-- 2 -->
<g id="node3" class="node">
<title>2</title>
<polygon fill="none" stroke="black" points="337,-306 182,-306 182,-223 337,-223 337,-306"/>
<text text-anchor="middle" x="259.5" y="-290.8" font-family="Times,serif" font-size="14.00">petal width (cm) &lt;= 1.75</text>
<text text-anchor="middle" x="259.5" y="-275.8" font-family="Times,serif" font-size="14.00">gini = 0.5</text>
<text text-anchor="middle" x="259.5" y="-260.8" font-family="Times,serif" font-size="14.00">samples = 100</text>
<text text-anchor="middle" x="259.5" y="-245.8" font-family="Times,serif" font-size="14.00">value = [0, 50, 50]</text>
<text text-anchor="middle" x="259.5" y="-230.8" font-family="Times,serif" font-size="14.00">class = versicolor</text>
</g>
<!-- 0&#45;&gt;2 -->
<g id="edge2" class="edge">
<title>0&#45;&gt;2</title>
<path fill="none" stroke="black" d="M209.87,-341.91C215.59,-333.1 221.69,-323.7 227.6,-314.61"/>
<polygon fill="black" stroke="black" points="230.67,-316.31 233.18,-306.02 224.8,-312.5 230.67,-316.31"/>
<text text-anchor="middle" x="238.37" y="-326.78" font-family="Times,serif" font-size="14.00">False</text>
</g>
<!-- 3 -->
<g id="node4" class="node">
<title>3</title>
<polygon fill="none" stroke="black" points="250.5,-187 92.5,-187 92.5,-104 250.5,-104 250.5,-187"/>
<text text-anchor="middle" x="171.5" y="-171.8" font-family="Times,serif" font-size="14.00">petal length (cm) &lt;= 4.95</text>
<text text-anchor="middle" x="171.5" y="-156.8" font-family="Times,serif" font-size="14.00">gini = 0.168</text>
<text text-anchor="middle" x="171.5" y="-141.8" font-family="Times,serif" font-size="14.00">samples = 54</text>
<text text-anchor="middle" x="171.5" y="-126.8" font-family="Times,serif" font-size="14.00">value = [0, 49, 5]</text>
<text text-anchor="middle" x="171.5" y="-111.8" font-family="Times,serif" font-size="14.00">class = versicolor</text>
</g>
<!-- 2&#45;&gt;3 -->
<g id="edge3" class="edge">
<title>2&#45;&gt;3</title>
<path fill="none" stroke="black" d="M228.97,-222.91C222.21,-213.92 214.98,-204.32 208.02,-195.05"/>
<polygon fill="black" stroke="black" points="210.79,-192.91 201.98,-187.02 205.19,-197.12 210.79,-192.91"/>
</g>
<!-- 6 -->
<g id="node7" class="node">
<title>6</title>
<polygon fill="none" stroke="black" points="426.5,-187 268.5,-187 268.5,-104 426.5,-104 426.5,-187"/>
<text text-anchor="middle" x="347.5" y="-171.8" font-family="Times,serif" font-size="14.00">petal length (cm) &lt;= 4.85</text>
<text text-anchor="middle" x="347.5" y="-156.8" font-family="Times,serif" font-size="14.00">gini = 0.043</text>
<text text-anchor="middle" x="347.5" y="-141.8" font-family="Times,serif" font-size="14.00">samples = 46</text>
<text text-anchor="middle" x="347.5" y="-126.8" font-family="Times,serif" font-size="14.00">value = [0, 1, 45]</text>
<text text-anchor="middle" x="347.5" y="-111.8" font-family="Times,serif" font-size="14.00">class = virginica</text>
</g>
<!-- 2&#45;&gt;6 -->
<g id="edge6" class="edge">
<title>2&#45;&gt;6</title>
<path fill="none" stroke="black" d="M290.03,-222.91C296.79,-213.92 304.02,-204.32 310.98,-195.05"/>
<polygon fill="black" stroke="black" points="313.81,-197.12 317.02,-187.02 308.21,-192.91 313.81,-197.12"/>
</g>
<!-- 4 -->
<g id="node5" class="node">
<title>4</title>
<polygon fill="none" stroke="black" points="113,-68 0,-68 0,0 113,0 113,-68"/>
<text text-anchor="middle" x="56.5" y="-52.8" font-family="Times,serif" font-size="14.00">gini = 0.041</text>
<text text-anchor="middle" x="56.5" y="-37.8" font-family="Times,serif" font-size="14.00">samples = 48</text>
<text text-anchor="middle" x="56.5" y="-22.8" font-family="Times,serif" font-size="14.00">value = [0, 47, 1]</text>
<text text-anchor="middle" x="56.5" y="-7.8" font-family="Times,serif" font-size="14.00">class = versicolor</text>
</g>
<!-- 3&#45;&gt;4 -->
<g id="edge4" class="edge">
<title>3&#45;&gt;4</title>
<path fill="none" stroke="black" d="M128.68,-103.73C118.91,-94.42 108.53,-84.54 98.78,-75.26"/>
<polygon fill="black" stroke="black" points="101.13,-72.66 91.47,-68.3 96.3,-77.73 101.13,-72.66"/>
</g>
<!-- 5 -->
<g id="node6" class="node">
<title>5</title>
<polygon fill="none" stroke="black" points="238,-68 131,-68 131,0 238,0 238,-68"/>
<text text-anchor="middle" x="184.5" y="-52.8" font-family="Times,serif" font-size="14.00">gini = 0.444</text>
<text text-anchor="middle" x="184.5" y="-37.8" font-family="Times,serif" font-size="14.00">samples = 6</text>
<text text-anchor="middle" x="184.5" y="-22.8" font-family="Times,serif" font-size="14.00">value = [0, 2, 4]</text>
<text text-anchor="middle" x="184.5" y="-7.8" font-family="Times,serif" font-size="14.00">class = virginica</text>
</g>
<!-- 3&#45;&gt;5 -->
<g id="edge5" class="edge">
<title>3&#45;&gt;5</title>
<path fill="none" stroke="black" d="M176.34,-103.73C177.33,-95.43 178.37,-86.67 179.36,-78.28"/>
<polygon fill="black" stroke="black" points="182.84,-78.64 180.55,-68.3 175.89,-77.82 182.84,-78.64"/>
</g>
<!-- 7 -->
<g id="node8" class="node">
<title>7</title>
<polygon fill="none" stroke="black" points="388,-68 281,-68 281,0 388,0 388,-68"/>
<text text-anchor="middle" x="334.5" y="-52.8" font-family="Times,serif" font-size="14.00">gini = 0.444</text>
<text text-anchor="middle" x="334.5" y="-37.8" font-family="Times,serif" font-size="14.00">samples = 3</text>
<text text-anchor="middle" x="334.5" y="-22.8" font-family="Times,serif" font-size="14.00">value = [0, 1, 2]</text>
<text text-anchor="middle" x="334.5" y="-7.8" font-family="Times,serif" font-size="14.00">class = virginica</text>
</g>
<!-- 6&#45;&gt;7 -->
<g id="edge7" class="edge">
<title>6&#45;&gt;7</title>
<path fill="none" stroke="black" d="M342.66,-103.73C341.67,-95.43 340.63,-86.67 339.64,-78.28"/>
<polygon fill="black" stroke="black" points="343.11,-77.82 338.45,-68.3 336.16,-78.64 343.11,-77.82"/>
</g>
<!-- 8 -->
<g id="node9" class="node">
<title>8</title>
<polygon fill="none" stroke="black" points="519,-68 406,-68 406,0 519,0 519,-68"/>
<text text-anchor="middle" x="462.5" y="-52.8" font-family="Times,serif" font-size="14.00">gini = 0.0</text>
<text text-anchor="middle" x="462.5" y="-37.8" font-family="Times,serif" font-size="14.00">samples = 43</text>
<text text-anchor="middle" x="462.5" y="-22.8" font-family="Times,serif" font-size="14.00">value = [0, 0, 43]</text>
<text text-anchor="middle" x="462.5" y="-7.8" font-family="Times,serif" font-size="14.00">class = virginica</text>
</g>
<!-- 6&#45;&gt;8 -->
<g id="edge8" class="edge">
<title>6&#45;&gt;8</title>
<path fill="none" stroke="black" d="M390.32,-103.73C400.09,-94.42 410.47,-84.54 420.22,-75.26"/>
<polygon fill="black" stroke="black" points="422.7,-77.73 427.53,-68.3 417.87,-72.66 422.7,-77.73"/>
</g>
</g>
</svg>
