<?xml version="1.0" encoding="utf-8" standalone="no"?>
<!DOCTYPE svg PUBLIC "-//W3C//DTD SVG 1.1//EN"
  "http://www.w3.org/Graphics/SVG/1.1/DTD/svg11.dtd">
<!-- Created with matplotlib (https://matplotlib.org/) -->
<svg height="310.29325pt" version="1.1" viewBox="0 0 413.448125 310.29325" width="413.448125pt" xmlns="http://www.w3.org/2000/svg" xmlns:xlink="http://www.w3.org/1999/xlink">
 <defs>
  <style type="text/css">
*{stroke-linecap:butt;stroke-linejoin:round;}
  </style>
 </defs>
 <g id="figure_1">
  <g id="patch_1">
   <path d="M 0 310.29325 
L 413.448125 310.29325 
L 413.448125 0 
L 0 0 
z
" style="fill:#ffffff;"/>
  </g>
  <g id="axes_1">
   <g id="patch_2">
    <path d="M 49.128125 273.312 
L 406.248125 273.312 
L 406.248125 7.2 
L 49.128125 7.2 
z
" style="fill:#ffffff;"/>
   </g>
   <g id="matplotlib.axis_1">
    <g id="xtick_1">
     <g id="line2d_1">
      <defs>
       <path d="M 0 0 
L 0 3.5 
" id="md84150fc16" style="stroke:#000000;stroke-width:0.8;"/>
      </defs>
      <g>
       <use style="stroke:#000000;stroke-width:0.8;" x="65.360852" xlink:href="#md84150fc16" y="273.312"/>
      </g>
     </g>
     <g id="text_1">
      <!-- 2016 -->
      <defs>
       <path d="M 57.171875 0.984375 
L 6.984375 0.984375 
L 6.984375 9.28125 
Q 12.890625 23.046875 29.59375 34.421875 
L 32.375 36.28125 
Q 40.921875 42.140625 43.609375 45.40625 
Q 46.6875 49.265625 46.6875 53.8125 
Q 46.6875 58.9375 43.0625 62.546875 
Q 39.0625 66.546875 32.5625 66.546875 
Q 19.53125 66.546875 15.484375 52 
L 7.765625 54.78125 
Q 13.328125 73.828125 33.0625 73.828125 
Q 43.84375 73.828125 50.25 67.4375 
Q 55.859375 61.671875 55.859375 53.515625 
Q 55.859375 47.46875 52.25 42.53125 
Q 48.921875 37.75 36.96875 30.28125 
L 34.859375 29 
Q 19.625 19.578125 15.28125 8.890625 
L 57.171875 8.890625 
z
" id="IPAexGothic-50"/>
       <path d="M 31.84375 73.828125 
Q 45.015625 73.828125 52.09375 61.625 
Q 57.71875 51.953125 57.71875 36.625 
Q 57.71875 21.4375 52.09375 11.578125 
Q 45.125 -0.484375 31.5 -0.484375 
Q 17.921875 -0.484375 10.9375 11.578125 
Q 5.328125 21.4375 5.328125 36.71875 
Q 5.328125 58.015625 15.625 67.71875 
Q 22.171875 73.828125 31.84375 73.828125 
z
M 31.5 66.65625 
Q 23.6875 66.65625 19.1875 58.734375 
Q 14.59375 50.734375 14.59375 36.625 
Q 14.59375 22.75 19.09375 14.796875 
Q 23.640625 6.984375 31.5 6.984375 
Q 40.921875 6.984375 45.453125 18.015625 
Q 48.4375 25.34375 48.4375 37.109375 
Q 48.4375 50.875 43.84375 58.734375 
Q 39.203125 66.65625 31.5 66.65625 
z
" id="IPAexGothic-48"/>
       <path d="M 38.484375 0.984375 
L 29.6875 0.984375 
L 29.6875 64.109375 
Q 21.4375 61.28125 12.3125 59.328125 
L 10.6875 66.109375 
Q 23.734375 69.390625 32.90625 73.921875 
L 38.484375 73.921875 
z
" id="IPAexGothic-49"/>
       <path d="M 16.5 36.375 
Q 23.578125 46.578125 34.90625 46.578125 
Q 45.40625 46.578125 51.8125 39.265625 
Q 57.421875 32.90625 57.421875 23.78125 
Q 57.421875 13.8125 51.125 6.78125 
Q 44.578125 -0.484375 34.03125 -0.484375 
Q 21.484375 -0.484375 14.40625 9.078125 
Q 7.515625 18.40625 7.515625 34.8125 
Q 7.515625 53.515625 15.828125 64.203125 
Q 23.34375 73.828125 35.5 73.828125 
Q 49.859375 73.828125 56.390625 62.890625 
L 49.21875 58.984375 
Q 45.21875 66.65625 35.9375 66.65625 
Q 17.484375 66.65625 16.109375 36.375 
z
M 33.453125 39.796875 
Q 26.3125 39.796875 21.625 34.46875 
Q 17.4375 29.6875 17.4375 24.078125 
Q 17.4375 18.0625 21.140625 13.1875 
Q 26.125 6.6875 33.734375 6.6875 
Q 41.703125 6.6875 45.953125 13.1875 
Q 48.828125 17.625 48.828125 23.484375 
Q 48.828125 30.375 45.015625 34.8125 
Q 40.625 39.796875 33.453125 39.796875 
z
" id="IPAexGothic-54"/>
      </defs>
      <g transform="translate(52.763977 287.802625)scale(0.1 -0.1)">
       <use xlink:href="#IPAexGothic-50"/>
       <use x="62.988281" xlink:href="#IPAexGothic-48"/>
       <use x="125.976562" xlink:href="#IPAexGothic-49"/>
       <use x="188.964844" xlink:href="#IPAexGothic-54"/>
      </g>
     </g>
    </g>
    <g id="xtick_2">
     <g id="line2d_2">
      <g>
       <use style="stroke:#000000;stroke-width:0.8;" x="146.524489" xlink:href="#md84150fc16" y="273.312"/>
      </g>
     </g>
     <g id="text_2">
      <!-- 2017 -->
      <defs>
       <path d="M 56.203125 66.609375 
Q 34.96875 32.90625 27.78125 0.984375 
L 17.671875 0.984375 
Q 24.703125 28.65625 46.09375 64.5 
L 6.6875 64.5 
L 6.6875 72.40625 
L 56.203125 72.40625 
z
" id="IPAexGothic-55"/>
      </defs>
      <g transform="translate(133.927614 287.802625)scale(0.1 -0.1)">
       <use xlink:href="#IPAexGothic-50"/>
       <use x="62.988281" xlink:href="#IPAexGothic-48"/>
       <use x="125.976562" xlink:href="#IPAexGothic-49"/>
       <use x="188.964844" xlink:href="#IPAexGothic-55"/>
      </g>
     </g>
    </g>
    <g id="xtick_3">
     <g id="line2d_3">
      <g>
       <use style="stroke:#000000;stroke-width:0.8;" x="227.688125" xlink:href="#md84150fc16" y="273.312"/>
      </g>
     </g>
     <g id="text_3">
      <!-- 2018 -->
      <defs>
       <path d="M 39.703125 37.890625 
Q 57.8125 31.734375 57.8125 18.703125 
Q 57.8125 8.453125 48.4375 3.078125 
Q 41.609375 -0.875 31.5 -0.875 
Q 21.34375 -0.875 14.5 3.078125 
Q 5.421875 8.296875 5.421875 18.40625 
Q 5.421875 31.0625 22.015625 37.203125 
L 22.015625 37.5 
Q 7.515625 42.71875 7.515625 54.828125 
Q 7.515625 64.0625 15.328125 69.625 
Q 21.96875 74.3125 31.546875 74.3125 
Q 42.234375 74.3125 48.921875 68.796875 
Q 55.515625 63.578125 55.515625 55.71875 
Q 55.515625 42.28125 39.703125 38.1875 
z
M 31.59375 41.015625 
Q 46.828125 44.625 46.828125 55.125 
Q 46.828125 61.1875 41.796875 64.84375 
Q 37.703125 67.921875 31.5 67.921875 
Q 25.09375 67.921875 20.796875 64.5 
Q 16.40625 60.890625 16.40625 55.03125 
Q 16.40625 49.21875 21.09375 45.703125 
Q 23.34375 43.890625 26.90625 42.53125 
Q 31 40.875 31.59375 41.015625 
z
M 30.90625 34.515625 
Q 14.40625 30.171875 14.40625 19 
Q 14.40625 12.109375 20.515625 8.6875 
Q 25.09375 6.109375 31.390625 6.109375 
Q 40.234375 6.109375 45.015625 10.890625 
Q 48.53125 14.40625 48.53125 19.53125 
Q 48.53125 24.90625 43.65625 28.90625 
Q 40.765625 31.15625 36.71875 32.8125 
Q 31.984375 34.71875 30.90625 34.515625 
z
" id="IPAexGothic-56"/>
      </defs>
      <g transform="translate(215.09125 287.802625)scale(0.1 -0.1)">
       <use xlink:href="#IPAexGothic-50"/>
       <use x="62.988281" xlink:href="#IPAexGothic-48"/>
       <use x="125.976562" xlink:href="#IPAexGothic-49"/>
       <use x="188.964844" xlink:href="#IPAexGothic-56"/>
      </g>
     </g>
    </g>
    <g id="xtick_4">
     <g id="line2d_4">
      <g>
       <use style="stroke:#000000;stroke-width:0.8;" x="308.851761" xlink:href="#md84150fc16" y="273.312"/>
      </g>
     </g>
     <g id="text_4">
      <!-- 2019 -->
      <defs>
       <path d="M 46.625 36.8125 
Q 39.75 26.8125 28.328125 26.8125 
Q 19.578125 26.8125 13.234375 32.125 
Q 5.71875 38.421875 5.71875 49.421875 
Q 5.71875 59.578125 12.015625 66.65625 
Q 18.453125 73.828125 29.203125 73.828125 
Q 43.75 73.828125 50.640625 61.71875 
Q 55.609375 52.78125 55.609375 38.625 
Q 55.609375 19.53125 47.515625 9.1875 
Q 39.890625 -0.484375 27.640625 -0.484375 
Q 13.421875 -0.484375 6.109375 10.984375 
L 13.328125 14.890625 
Q 18.0625 6.6875 27.390625 6.6875 
Q 45.65625 6.6875 47.015625 36.8125 
z
M 29.5 66.84375 
Q 22.65625 66.84375 18.3125 61.71875 
Q 14.40625 57.078125 14.40625 50 
Q 14.40625 42.828125 18.109375 38.71875 
Q 22.40625 33.796875 29.78125 33.796875 
Q 37.984375 33.796875 42.625 40.1875 
Q 45.703125 44.484375 45.703125 49.515625 
Q 45.703125 55.515625 42.09375 60.359375 
Q 37.109375 66.84375 29.5 66.84375 
z
" id="IPAexGothic-57"/>
      </defs>
      <g transform="translate(296.254886 287.802625)scale(0.1 -0.1)">
       <use xlink:href="#IPAexGothic-50"/>
       <use x="62.988281" xlink:href="#IPAexGothic-48"/>
       <use x="125.976562" xlink:href="#IPAexGothic-49"/>
       <use x="188.964844" xlink:href="#IPAexGothic-57"/>
      </g>
     </g>
    </g>
    <g id="xtick_5">
     <g id="line2d_5">
      <g>
       <use style="stroke:#000000;stroke-width:0.8;" x="390.015398" xlink:href="#md84150fc16" y="273.312"/>
      </g>
     </g>
     <g id="text_5">
      <!-- 2020 -->
      <g transform="translate(377.418523 287.802625)scale(0.1 -0.1)">
       <use xlink:href="#IPAexGothic-50"/>
       <use x="62.988281" xlink:href="#IPAexGothic-48"/>
       <use x="125.976562" xlink:href="#IPAexGothic-50"/>
       <use x="188.964844" xlink:href="#IPAexGothic-48"/>
      </g>
     </g>
    </g>
    <g id="text_6">
     <!-- 年 -->
     <defs>
      <path d="M 27.6875 64.984375 
Q 22.5625 53.46875 13.671875 43.796875 
L 8.25 49.46875 
Q 20.65625 61.578125 25.484375 82.171875 
L 32.953125 80.5625 
Q 31.15625 74.359375 30.171875 71.296875 
L 88.96875 71.296875 
L 88.96875 64.984375 
L 58.6875 64.984375 
L 58.6875 48.875 
L 84.90625 48.875 
L 84.90625 42.578125 
L 58.6875 42.578125 
L 58.6875 23.578125 
L 94.96875 23.578125 
L 94.96875 17.09375 
L 58.6875 17.09375 
L 58.6875 -7.03125 
L 51.171875 -7.03125 
L 51.171875 17.09375 
L 6.984375 17.09375 
L 6.984375 23.578125 
L 23.96875 23.578125 
L 23.96875 48.875 
L 51.171875 48.875 
L 51.171875 64.984375 
z
M 51.171875 42.578125 
L 31.15625 42.578125 
L 31.15625 23.578125 
L 51.171875 23.578125 
z
" id="IPAexGothic-24180"/>
     </defs>
     <g transform="translate(222.688125 301.19325)scale(0.1 -0.1)">
      <use xlink:href="#IPAexGothic-24180"/>
     </g>
    </g>
   </g>
   <g id="matplotlib.axis_2">
    <g id="ytick_1">
     <g id="line2d_6">
      <defs>
       <path d="M 0 0 
L -3.5 0 
" id="mcb317893f1" style="stroke:#000000;stroke-width:0.8;"/>
      </defs>
      <g>
       <use style="stroke:#000000;stroke-width:0.8;" x="49.128125" xlink:href="#mcb317893f1" y="262.40001"/>
      </g>
     </g>
     <g id="text_7">
      <!-- 42.5 -->
      <defs>
       <path d="M 59.578125 18.109375 
L 47.796875 18.109375 
L 47.796875 0.984375 
L 39.796875 0.984375 
L 39.796875 18.109375 
L 3.078125 18.109375 
L 3.078125 26.125 
L 38.375 73.09375 
L 47.796875 73.09375 
L 47.796875 25.53125 
L 59.578125 25.53125 
z
M 40.28125 64.203125 
L 39.984375 64.203125 
Q 35.59375 57.125 31.296875 51.3125 
L 11.859375 25.53125 
L 39.796875 25.53125 
L 39.796875 49.125 
Q 39.796875 54.390625 40.28125 64.203125 
z
" id="IPAexGothic-52"/>
       <path d="M 18.5 0.984375 
L 7.71875 0.984375 
L 7.71875 11.765625 
L 18.5 11.765625 
z
" id="IPAexGothic-46"/>
       <path d="M 18.40625 40.671875 
Q 25.53125 46.296875 33.9375 46.296875 
Q 44 46.296875 50.640625 39.5 
Q 56.84375 33.015625 56.84375 23.390625 
Q 56.84375 14.65625 51.515625 8.015625 
Q 44.828125 -0.484375 31.734375 -0.484375 
Q 14.984375 -0.484375 7.328125 12.25 
L 14.65625 16.0625 
Q 20.453125 6.78125 31.453125 6.78125 
Q 38.53125 6.78125 43.265625 11.1875 
Q 48.140625 15.828125 48.140625 23.484375 
Q 48.140625 30.71875 43.84375 35.015625 
Q 39.359375 39.5 32.125 39.5 
Q 21.96875 39.5 16.75 31.6875 
L 9.234375 32.671875 
L 13.8125 72.40625 
L 53.21875 72.40625 
L 53.21875 64.890625 
L 20.953125 64.890625 
L 17.71875 40.671875 
z
" id="IPAexGothic-53"/>
      </defs>
      <g transform="translate(20.590625 266.145323)scale(0.1 -0.1)">
       <use xlink:href="#IPAexGothic-52"/>
       <use x="62.988281" xlink:href="#IPAexGothic-50"/>
       <use x="125.976562" xlink:href="#IPAexGothic-46"/>
       <use x="152.392578" xlink:href="#IPAexGothic-53"/>
      </g>
     </g>
    </g>
    <g id="ytick_2">
     <g id="line2d_7">
      <g>
       <use style="stroke:#000000;stroke-width:0.8;" x="49.128125" xlink:href="#mcb317893f1" y="232.799757"/>
      </g>
     </g>
     <g id="text_8">
      <!-- 45.0 -->
      <g transform="translate(20.590625 236.54507)scale(0.1 -0.1)">
       <use xlink:href="#IPAexGothic-52"/>
       <use x="62.988281" xlink:href="#IPAexGothic-53"/>
       <use x="125.976562" xlink:href="#IPAexGothic-46"/>
       <use x="152.392578" xlink:href="#IPAexGothic-48"/>
      </g>
     </g>
    </g>
    <g id="ytick_3">
     <g id="line2d_8">
      <g>
       <use style="stroke:#000000;stroke-width:0.8;" x="49.128125" xlink:href="#mcb317893f1" y="203.199505"/>
      </g>
     </g>
     <g id="text_9">
      <!-- 47.5 -->
      <g transform="translate(20.590625 206.944817)scale(0.1 -0.1)">
       <use xlink:href="#IPAexGothic-52"/>
       <use x="62.988281" xlink:href="#IPAexGothic-55"/>
       <use x="125.976562" xlink:href="#IPAexGothic-46"/>
       <use x="152.392578" xlink:href="#IPAexGothic-53"/>
      </g>
     </g>
    </g>
    <g id="ytick_4">
     <g id="line2d_9">
      <g>
       <use style="stroke:#000000;stroke-width:0.8;" x="49.128125" xlink:href="#mcb317893f1" y="173.599252"/>
      </g>
     </g>
     <g id="text_10">
      <!-- 50.0 -->
      <g transform="translate(20.590625 177.344565)scale(0.1 -0.1)">
       <use xlink:href="#IPAexGothic-53"/>
       <use x="62.988281" xlink:href="#IPAexGothic-48"/>
       <use x="125.976562" xlink:href="#IPAexGothic-46"/>
       <use x="152.392578" xlink:href="#IPAexGothic-48"/>
      </g>
     </g>
    </g>
    <g id="ytick_5">
     <g id="line2d_10">
      <g>
       <use style="stroke:#000000;stroke-width:0.8;" x="49.128125" xlink:href="#mcb317893f1" y="143.999"/>
      </g>
     </g>
     <g id="text_11">
      <!-- 52.5 -->
      <g transform="translate(20.590625 147.744312)scale(0.1 -0.1)">
       <use xlink:href="#IPAexGothic-53"/>
       <use x="62.988281" xlink:href="#IPAexGothic-50"/>
       <use x="125.976562" xlink:href="#IPAexGothic-46"/>
       <use x="152.392578" xlink:href="#IPAexGothic-53"/>
      </g>
     </g>
    </g>
    <g id="ytick_6">
     <g id="line2d_11">
      <g>
       <use style="stroke:#000000;stroke-width:0.8;" x="49.128125" xlink:href="#mcb317893f1" y="114.398747"/>
      </g>
     </g>
     <g id="text_12">
      <!-- 55.0 -->
      <g transform="translate(20.590625 118.14406)scale(0.1 -0.1)">
       <use xlink:href="#IPAexGothic-53"/>
       <use x="62.988281" xlink:href="#IPAexGothic-53"/>
       <use x="125.976562" xlink:href="#IPAexGothic-46"/>
       <use x="152.392578" xlink:href="#IPAexGothic-48"/>
      </g>
     </g>
    </g>
    <g id="ytick_7">
     <g id="line2d_12">
      <g>
       <use style="stroke:#000000;stroke-width:0.8;" x="49.128125" xlink:href="#mcb317893f1" y="84.798494"/>
      </g>
     </g>
     <g id="text_13">
      <!-- 57.5 -->
      <g transform="translate(20.590625 88.543807)scale(0.1 -0.1)">
       <use xlink:href="#IPAexGothic-53"/>
       <use x="62.988281" xlink:href="#IPAexGothic-55"/>
       <use x="125.976562" xlink:href="#IPAexGothic-46"/>
       <use x="152.392578" xlink:href="#IPAexGothic-53"/>
      </g>
     </g>
    </g>
    <g id="ytick_8">
     <g id="line2d_13">
      <g>
       <use style="stroke:#000000;stroke-width:0.8;" x="49.128125" xlink:href="#mcb317893f1" y="55.198242"/>
      </g>
     </g>
     <g id="text_14">
      <!-- 60.0 -->
      <g transform="translate(20.590625 58.943554)scale(0.1 -0.1)">
       <use xlink:href="#IPAexGothic-54"/>
       <use x="62.988281" xlink:href="#IPAexGothic-48"/>
       <use x="125.976562" xlink:href="#IPAexGothic-46"/>
       <use x="152.392578" xlink:href="#IPAexGothic-48"/>
      </g>
     </g>
    </g>
    <g id="ytick_9">
     <g id="line2d_14">
      <g>
       <use style="stroke:#000000;stroke-width:0.8;" x="49.128125" xlink:href="#mcb317893f1" y="25.597989"/>
      </g>
     </g>
     <g id="text_15">
      <!-- 62.5 -->
      <g transform="translate(20.590625 29.343302)scale(0.1 -0.1)">
       <use xlink:href="#IPAexGothic-54"/>
       <use x="62.988281" xlink:href="#IPAexGothic-50"/>
       <use x="125.976562" xlink:href="#IPAexGothic-46"/>
       <use x="152.392578" xlink:href="#IPAexGothic-53"/>
      </g>
     </g>
    </g>
    <g id="text_16">
     <!-- 1日あたりの死亡数 -->
     <defs>
      <path d="M 81.734375 75 
L 81.734375 -4.5 
L 74.125 -4.5 
L 74.125 2 
L 25.734375 2 
L 25.734375 -4.5 
L 18.109375 -4.5 
L 18.109375 75 
z
M 25.734375 68.3125 
L 25.734375 42.671875 
L 74.125 42.671875 
L 74.125 68.3125 
z
M 25.734375 35.890625 
L 25.734375 8.6875 
L 74.125 8.6875 
L 74.125 35.890625 
z
" id="IPAexGothic-26085"/>
      <path d="M 15.09375 64.59375 
Q 19.1875 64.3125 24.21875 64.3125 
Q 30.21875 64.3125 35.6875 64.703125 
Q 35.890625 66.359375 36.234375 69.578125 
Q 37.015625 76.125 37.203125 78.90625 
L 44.578125 78.421875 
Q 43.65625 71.046875 43.109375 65.28125 
Q 57.375 66.796875 71.578125 70.703125 
L 72.40625 63.8125 
Q 58.59375 60.359375 42.390625 58.6875 
Q 41.796875 52.78125 41.609375 45.796875 
Q 48.25 48.1875 57.328125 49.03125 
Q 58.40625 51.953125 58.796875 55.421875 
L 66.21875 53.71875 
Q 65.4375 50.296875 64.890625 48.875 
Q 74.953125 47.515625 80.71875 42.828125 
Q 89.109375 35.890625 89.109375 24.703125 
Q 89.109375 12.40625 79 4.6875 
Q 71.234375 -1.3125 57.515625 -3.328125 
L 53.21875 3.328125 
Q 65.140625 4.640625 72.21875 9.28125 
Q 81.296875 15.140625 81.296875 24.8125 
Q 81.296875 34.625 73 39.890625 
Q 68.953125 42.578125 62.890625 43.3125 
Q 55.46875 24.3125 42.921875 12.5 
Q 43.21875 9.125 44.484375 4.296875 
L 37.3125 1.609375 
Q 37.015625 2.984375 36.1875 8.203125 
Q 27.4375 2 20.3125 2 
Q 10.40625 2 10.40625 12.40625 
Q 10.40625 19.4375 14.84375 26.421875 
Q 19 32.8125 26.21875 37.890625 
Q 28.65625 39.703125 34.28125 42.671875 
Q 34.46875 49.359375 35.203125 58.109375 
Q 27.6875 57.515625 20.90625 57.515625 
Q 17.28125 57.515625 15.71875 57.625 
z
M 34.1875 35.796875 
Q 30.71875 33.890625 26.609375 29.890625 
Q 22.359375 25.78125 19.875 21.140625 
Q 17.875 17.328125 17.71875 14.40625 
Q 17.484375 8.984375 21.625 8.984375 
Q 27.9375 8.984375 35.109375 15.578125 
Q 34.328125 23.390625 34.1875 35.796875 
z
M 55.515625 43.3125 
Q 47.46875 42.1875 41.21875 39.59375 
Q 41.21875 27.09375 41.609375 20.3125 
Q 50.484375 30.171875 55.515625 43.3125 
z
" id="IPAexGothic-12354"/>
      <path d="M 10.6875 62.40625 
Q 17.78125 61.765625 24.3125 61.765625 
Q 28.078125 61.765625 32.90625 62.109375 
Q 35.40625 71.78125 37.015625 79.890625 
L 44.921875 78.515625 
Q 43.84375 73.921875 40.921875 62.703125 
Q 50.140625 63.8125 57.125 65.484375 
L 57.625 58.109375 
Q 48.578125 56.453125 39.015625 55.71875 
Q 28.46875 20.21875 18.015625 -0.6875 
L 10.203125 2.6875 
Q 21.96875 23.4375 31.109375 55.171875 
Q 25.53125 54.890625 19.625 54.890625 
Q 17.28125 54.890625 10.890625 55.078125 
z
M 89.890625 1.21875 
Q 79.046875 -0.203125 71.828125 -0.203125 
Q 56.546875 -0.203125 50.09375 5.21875 
Q 44.78125 9.765625 43.21875 19.09375 
L 50.203125 21.6875 
Q 50.734375 16.703125 52.296875 14.109375 
Q 53.515625 12.109375 55.90625 10.5 
Q 60.40625 7.515625 71.1875 7.515625 
Q 78.265625 7.515625 89.5 8.984375 
z
M 49.125 44.671875 
Q 65.875 49.171875 84.515625 48 
L 84.078125 40.578125 
L 83.6875 40.578125 
Q 66.609375 41.609375 49.90625 37.796875 
z
" id="IPAexGothic-12383"/>
      <path d="M 44.96875 45.703125 
Q 39.109375 35.84375 37.0625 31.890625 
Q 34.71875 27.34375 33.796875 22.796875 
L 26.8125 23.484375 
Q 23.578125 33.296875 23.578125 48.296875 
Q 23.578125 58.5 25.984375 76.125 
L 34.078125 75.09375 
Q 31.296875 55.328125 31.296875 47.125 
Q 31.296875 40.828125 31.6875 35.296875 
Q 32.953125 37.703125 36.140625 43.21875 
Q 38.8125 47.859375 40.28125 50.59375 
z
M 38.875 2 
Q 55.21875 7.859375 61.375 18.5 
Q 66.15625 26.765625 66.15625 46.484375 
Q 66.15625 60.5 64.40625 77 
L 72.90625 77 
Q 74.359375 59.28125 74.359375 46.484375 
Q 74.359375 23.6875 68.0625 13.1875 
Q 61.140625 1.609375 44.578125 -4.5 
z
" id="IPAexGothic-12426"/>
      <path d="M 48.734375 7.328125 
Q 82.421875 11.96875 82.421875 37.890625 
Q 82.421875 53.953125 68.953125 61.328125 
Q 63.140625 64.3125 55.421875 64.984375 
Q 53.03125 39.453125 44.53125 21.875 
Q 36.28125 4.78125 26.90625 4.78125 
Q 21.625 4.78125 16.9375 10.40625 
Q 9.515625 19.4375 9.515625 31.296875 
Q 9.515625 47.265625 21.828125 59.28125 
Q 34.125 71.296875 53.609375 71.296875 
Q 67.28125 71.296875 77 64.40625 
Q 90.828125 54.78125 90.828125 37.890625 
Q 90.828125 6.84375 53.609375 0.09375 
z
M 47.703125 64.796875 
Q 37.15625 63.1875 29.546875 56.890625 
Q 17.140625 46.578125 17.140625 31.109375 
Q 17.140625 21.34375 22.40625 15.28125 
Q 24.703125 12.703125 26.859375 12.703125 
Q 31.59375 12.703125 37.75 25.390625 
Q 45.453125 41.21875 47.703125 64.796875 
z
" id="IPAexGothic-12398"/>
      <path d="M 33.34375 21.578125 
Q 26.421875 29.109375 19.625 34.375 
Q 15.578125 27.9375 9.625 21.96875 
L 4.828125 26.765625 
Q 20.703125 44.140625 24.75 68.796875 
L 24.859375 69.390625 
L 7.125 69.390625 
L 7.125 75.875 
L 92.921875 75.875 
L 92.921875 69.390625 
L 63.328125 69.390625 
L 63.328125 37.984375 
Q 76.375 45.015625 85.59375 54 
L 92.09375 48.6875 
Q 79.828125 38.578125 63.328125 30.46875 
L 63.328125 8.0625 
Q 63.328125 4.296875 66.21875 3.515625 
Q 68.40625 3.03125 73.1875 3.03125 
Q 84.8125 3.03125 86.03125 6.203125 
Q 87.109375 9.234375 87.40625 20.703125 
L 95.125 18.171875 
Q 94.53125 2.203125 91.703125 -0.875 
Q 88.53125 -4.390625 72.3125 -4.390625 
Q 63.484375 -4.390625 60.015625 -2.59375 
Q 56.15625 -0.640625 56.15625 5.5625 
L 56.15625 69.390625 
L 32.03125 69.390625 
Q 31.890625 68.75 31.734375 67.1875 
Q 30.90625 62.5 28.71875 54.984375 
L 46.921875 54.984375 
L 51.03125 51.90625 
Q 47.3125 30.28125 38.625 16.0625 
Q 29.78125 1.859375 11.53125 -6.84375 
L 6.546875 -0.734375 
Q 24.078125 6.453125 33.34375 21.578125 
z
M 36.8125 28.078125 
Q 41.359375 37.890625 43.109375 48.6875 
L 26.609375 48.6875 
Q 25.046875 44.4375 22.65625 39.59375 
Q 30.71875 34.1875 36.8125 28.078125 
z
" id="IPAexGothic-27515"/>
      <path d="M 28.328125 54.640625 
L 28.328125 12.796875 
Q 28.328125 8.40625 32.125 7.625 
Q 35.453125 7.03125 49.90625 7.03125 
Q 68.265625 7.03125 86.03125 8.5 
L 86.03125 0.59375 
Q 68.609375 -0.484375 50.921875 -0.484375 
Q 31.453125 -0.484375 26.515625 1.125 
Q 20.609375 3.078125 20.609375 10.109375 
L 20.609375 54.640625 
L 7.515625 54.640625 
L 7.515625 61.53125 
L 45.703125 61.53125 
L 45.703125 79.4375 
L 53.609375 79.4375 
L 53.609375 61.53125 
L 92.53125 61.53125 
L 92.53125 54.640625 
z
" id="IPAexGothic-20129"/>
      <path d="M 44.484375 24.265625 
Q 42.828125 15.71875 37.890625 8.34375 
Q 41.015625 6.890625 48.296875 3.171875 
L 43.890625 -2.9375 
Q 39.703125 0 33.5 3.265625 
Q 24.515625 -4.546875 10.984375 -7.8125 
L 6.59375 -1.953125 
Q 19.734375 0.296875 27.296875 6.34375 
Q 19.09375 10.15625 11.46875 12.75 
Q 15.234375 18.3125 17.921875 23.484375 
L 18.3125 24.265625 
L 5.609375 24.265625 
L 5.609375 30.078125 
L 21 30.078125 
Q 21.96875 32.28125 24.515625 38.671875 
L 26.421875 38.28125 
L 26.421875 52.6875 
Q 19.53125 42.78125 8.59375 35.984375 
L 4.296875 41.609375 
Q 15.921875 47.078125 23.875 56.890625 
L 5.90625 56.890625 
L 5.90625 62.59375 
L 26.421875 62.59375 
L 26.421875 83.015625 
L 33.015625 83.015625 
L 33.015625 62.59375 
L 51.515625 62.59375 
L 51.515625 56.890625 
L 33.015625 56.890625 
L 33.015625 54.890625 
Q 41.546875 51.421875 49.609375 46.296875 
L 46.1875 40.375 
Q 39.890625 45.65625 33.015625 49.359375 
L 33.015625 37.0625 
L 30.71875 37.0625 
Q 30.125 35.75 29.25 33.453125 
Q 28.21875 30.859375 27.875 30.078125 
L 52.78125 30.078125 
L 52.78125 24.265625 
z
M 37.796875 24.265625 
L 25.203125 24.265625 
Q 23.09375 19.828125 20.515625 15.578125 
Q 24.359375 14.203125 31.984375 10.984375 
Q 36.140625 16.359375 37.796875 24.265625 
z
M 68.171875 18.171875 
Q 61.765625 27.828125 58.40625 41.21875 
Q 55.859375 35.640625 53.5625 31.5 
L 48.484375 37.59375 
Q 57.421875 53.8125 61.1875 82.671875 
L 68.171875 81.25 
Q 66.9375 72.90625 65.578125 65.578125 
L 93.890625 65.578125 
L 93.890625 58.984375 
L 85.984375 58.984375 
Q 84.328125 35.546875 76.078125 18.609375 
Q 84.671875 7.859375 96 1.171875 
L 90.96875 -5.90625 
Q 81.0625 1.65625 72.359375 12.3125 
Q 64.265625 0.53125 52.203125 -7.234375 
L 47.359375 -1.21875 
Q 60.75 6.34375 68.171875 18.171875 
z
M 71.6875 24.90625 
Q 77.15625 37.3125 79.046875 58.984375 
L 64.0625 58.984375 
Q 63.140625 54.984375 62.0625 51.375 
Q 62.203125 50.78125 62.359375 49.90625 
Q 65.234375 35.25 71.6875 24.90625 
z
M 15.671875 64.3125 
Q 13.71875 71 9.96875 77.09375 
L 16.453125 79.59375 
Q 19.484375 74.8125 22.46875 66.703125 
z
M 36.1875 66.703125 
Q 39.84375 73.25 42 80.171875 
L 48.875 78.078125 
Q 46.34375 71.6875 41.796875 64.5 
z
" id="IPAexGothic-25968"/>
     </defs>
     <g transform="translate(14.690625 183.405219)rotate(-90)scale(0.1 -0.1)">
      <use xlink:href="#IPAexGothic-49"/>
      <use x="62.988281" xlink:href="#IPAexGothic-26085"/>
      <use x="162.988281" xlink:href="#IPAexGothic-12354"/>
      <use x="262.988281" xlink:href="#IPAexGothic-12383"/>
      <use x="362.988281" xlink:href="#IPAexGothic-12426"/>
      <use x="462.988281" xlink:href="#IPAexGothic-12398"/>
      <use x="562.988281" xlink:href="#IPAexGothic-27515"/>
      <use x="662.988281" xlink:href="#IPAexGothic-20129"/>
      <use x="762.988281" xlink:href="#IPAexGothic-25968"/>
     </g>
    </g>
   </g>
   <g id="line2d_15">
    <path clip-path="url(#p61bdede83d)" d="M 65.360852 159.849458 
L 146.524489 49.851099 
L 227.688125 92.628239 
L 308.851761 44.122018 
L 390.015398 19.296 
" style="fill:none;stroke:#1f77b4;stroke-linecap:square;stroke-width:1.5;"/>
    <defs>
     <path d="M 0 3 
C 0.795609 3 1.55874 2.683901 2.12132 2.12132 
C 2.683901 1.55874 3 0.795609 3 0 
C 3 -0.795609 2.683901 -1.55874 2.12132 -2.12132 
C 1.55874 -2.683901 0.795609 -3 0 -3 
C -0.795609 -3 -1.55874 -2.683901 -2.12132 -2.12132 
C -2.683901 -1.55874 -3 -0.795609 -3 0 
C -3 0.795609 -2.683901 1.55874 -2.12132 2.12132 
C -1.55874 2.683901 -0.795609 3 0 3 
z
" id="md6f77cf962" style="stroke:#1f77b4;"/>
    </defs>
    <g clip-path="url(#p61bdede83d)">
     <use style="fill:#1f77b4;stroke:#1f77b4;" x="65.360852" xlink:href="#md6f77cf962" y="159.849458"/>
     <use style="fill:#1f77b4;stroke:#1f77b4;" x="146.524489" xlink:href="#md6f77cf962" y="49.851099"/>
     <use style="fill:#1f77b4;stroke:#1f77b4;" x="227.688125" xlink:href="#md6f77cf962" y="92.628239"/>
     <use style="fill:#1f77b4;stroke:#1f77b4;" x="308.851761" xlink:href="#md6f77cf962" y="44.122018"/>
     <use style="fill:#1f77b4;stroke:#1f77b4;" x="390.015398" xlink:href="#md6f77cf962" y="19.296"/>
    </g>
   </g>
   <g id="line2d_16">
    <path clip-path="url(#p61bdede83d)" d="M 65.360852 118.481541 
L 146.524489 151.187632 
L 227.688125 95.370013 
L 308.851761 132.581759 
L 390.015398 195.646337 
" style="fill:none;stroke:#ff7f0e;stroke-linecap:square;stroke-width:1.5;"/>
    <defs>
     <path d="M 0 3 
C 0.795609 3 1.55874 2.683901 2.12132 2.12132 
C 2.683901 1.55874 3 0.795609 3 0 
C 3 -0.795609 2.683901 -1.55874 2.12132 -2.12132 
C 1.55874 -2.683901 0.795609 -3 0 -3 
C -0.795609 -3 -1.55874 -2.683901 -2.12132 -2.12132 
C -2.683901 -1.55874 -3 -0.795609 -3 0 
C -3 0.795609 -2.683901 1.55874 -2.12132 2.12132 
C -1.55874 2.683901 -0.795609 3 0 3 
z
" id="m36973509a6" style="stroke:#ff7f0e;"/>
    </defs>
    <g clip-path="url(#p61bdede83d)">
     <use style="fill:#ff7f0e;stroke:#ff7f0e;" x="65.360852" xlink:href="#m36973509a6" y="118.481541"/>
     <use style="fill:#ff7f0e;stroke:#ff7f0e;" x="146.524489" xlink:href="#m36973509a6" y="151.187632"/>
     <use style="fill:#ff7f0e;stroke:#ff7f0e;" x="227.688125" xlink:href="#m36973509a6" y="95.370013"/>
     <use style="fill:#ff7f0e;stroke:#ff7f0e;" x="308.851761" xlink:href="#m36973509a6" y="132.581759"/>
     <use style="fill:#ff7f0e;stroke:#ff7f0e;" x="390.015398" xlink:href="#m36973509a6" y="195.646337"/>
    </g>
   </g>
   <g id="line2d_17">
    <path clip-path="url(#p61bdede83d)" d="M 65.360852 171.30762 
L 146.524489 164.050784 
L 227.688125 170.925681 
L 308.851761 214.466698 
L 390.015398 172.453436 
" style="fill:none;stroke:#2ca02c;stroke-linecap:square;stroke-width:1.5;"/>
    <defs>
     <path d="M 0 3 
C 0.795609 3 1.55874 2.683901 2.12132 2.12132 
C 2.683901 1.55874 3 0.795609 3 0 
C 3 -0.795609 2.683901 -1.55874 2.12132 -2.12132 
C 1.55874 -2.683901 0.795609 -3 0 -3 
C -0.795609 -3 -1.55874 -2.683901 -2.12132 -2.12132 
C -2.683901 -1.55874 -3 -0.795609 -3 0 
C -3 0.795609 -2.683901 1.55874 -2.12132 2.12132 
C -1.55874 2.683901 -0.795609 3 0 3 
z
" id="mfadded1c3a" style="stroke:#2ca02c;"/>
    </defs>
    <g clip-path="url(#p61bdede83d)">
     <use style="fill:#2ca02c;stroke:#2ca02c;" x="65.360852" xlink:href="#mfadded1c3a" y="171.30762"/>
     <use style="fill:#2ca02c;stroke:#2ca02c;" x="146.524489" xlink:href="#mfadded1c3a" y="164.050784"/>
     <use style="fill:#2ca02c;stroke:#2ca02c;" x="227.688125" xlink:href="#mfadded1c3a" y="170.925681"/>
     <use style="fill:#2ca02c;stroke:#2ca02c;" x="308.851761" xlink:href="#mfadded1c3a" y="214.466698"/>
     <use style="fill:#2ca02c;stroke:#2ca02c;" x="390.015398" xlink:href="#mfadded1c3a" y="172.453436"/>
    </g>
   </g>
   <g id="line2d_18">
    <path clip-path="url(#p61bdede83d)" d="M 65.360852 246.218539 
L 146.524489 261.216 
L 227.688125 231.221077 
L 308.851761 226.090367 
L 390.015398 200.436815 
" style="fill:none;stroke:#d62728;stroke-linecap:square;stroke-width:1.5;"/>
    <defs>
     <path d="M 0 3 
C 0.795609 3 1.55874 2.683901 2.12132 2.12132 
C 2.683901 1.55874 3 0.795609 3 0 
C 3 -0.795609 2.683901 -1.55874 2.12132 -2.12132 
C 1.55874 -2.683901 0.795609 -3 0 -3 
C -0.795609 -3 -1.55874 -2.683901 -2.12132 -2.12132 
C -2.683901 -1.55874 -3 -0.795609 -3 0 
C -3 0.795609 -2.683901 1.55874 -2.12132 2.12132 
C -1.55874 2.683901 -0.795609 3 0 3 
z
" id="m6464f3c140" style="stroke:#d62728;"/>
    </defs>
    <g clip-path="url(#p61bdede83d)">
     <use style="fill:#d62728;stroke:#d62728;" x="65.360852" xlink:href="#m6464f3c140" y="246.218539"/>
     <use style="fill:#d62728;stroke:#d62728;" x="146.524489" xlink:href="#m6464f3c140" y="261.216"/>
     <use style="fill:#d62728;stroke:#d62728;" x="227.688125" xlink:href="#m6464f3c140" y="231.221077"/>
     <use style="fill:#d62728;stroke:#d62728;" x="308.851761" xlink:href="#m6464f3c140" y="226.090367"/>
     <use style="fill:#d62728;stroke:#d62728;" x="390.015398" xlink:href="#m6464f3c140" y="200.436815"/>
    </g>
   </g>
   <g id="patch_3">
    <path d="M 49.128125 273.312 
L 49.128125 7.2 
" style="fill:none;stroke:#000000;stroke-linecap:square;stroke-linejoin:miter;stroke-width:0.8;"/>
   </g>
   <g id="patch_4">
    <path d="M 406.248125 273.312 
L 406.248125 7.2 
" style="fill:none;stroke:#000000;stroke-linecap:square;stroke-linejoin:miter;stroke-width:0.8;"/>
   </g>
   <g id="patch_5">
    <path d="M 49.128125 273.312 
L 406.248125 273.312 
" style="fill:none;stroke:#000000;stroke-linecap:square;stroke-linejoin:miter;stroke-width:0.8;"/>
   </g>
   <g id="patch_6">
    <path d="M 49.128125 7.2 
L 406.248125 7.2 
" style="fill:none;stroke:#000000;stroke-linecap:square;stroke-linejoin:miter;stroke-width:0.8;"/>
   </g>
   <g id="legend_1">
    <g id="patch_7">
     <path d="M 56.128125 72.7625 
L 106.346875 72.7625 
Q 108.346875 72.7625 108.346875 70.7625 
L 108.346875 14.2 
Q 108.346875 12.2 106.346875 12.2 
L 56.128125 12.2 
Q 54.128125 12.2 54.128125 14.2 
L 54.128125 70.7625 
Q 54.128125 72.7625 56.128125 72.7625 
z
" style="fill:#ffffff;opacity:0.8;stroke:#cccccc;stroke-linejoin:miter;"/>
    </g>
    <g id="line2d_19">
     <path d="M 58.128125 20.190625 
L 78.128125 20.190625 
" style="fill:none;stroke:#1f77b4;stroke-linecap:square;stroke-width:1.5;"/>
    </g>
    <g id="line2d_20">
     <g>
      <use style="fill:#1f77b4;stroke:#1f77b4;" x="68.128125" xlink:href="#md6f77cf962" y="20.190625"/>
     </g>
    </g>
    <g id="text_17">
     <!-- Jan -->
     <defs>
      <path d="M 28.421875 72.40625 
L 28.421875 19.28125 
Q 28.421875 -0.484375 11.921875 -0.484375 
Q 4.734375 -0.484375 -1.953125 3.265625 
L 1.3125 10.0625 
Q 5.90625 6.984375 10.84375 6.984375 
Q 19.53125 6.984375 19.53125 18.796875 
L 19.53125 72.40625 
z
" id="IPAexGothic-74"/>
      <path d="M 49.3125 0.984375 
L 41.75 0.984375 
Q 39.984375 4.734375 39.546875 8.6875 
L 39.203125 8.6875 
Q 33.546875 -0.390625 22.3125 -0.390625 
Q 14.59375 -0.390625 9.71875 4.5 
Q 5.421875 8.796875 5.421875 14.984375 
Q 5.421875 30.421875 32.03125 31.203125 
L 38.71875 31.390625 
L 38.71875 33.984375 
Q 38.71875 39.203125 35.75 42.1875 
Q 32.625 45.3125 27.734375 45.3125 
Q 19.34375 45.3125 15.140625 37.15625 
L 7.71875 40.578125 
Q 14.65625 52 27.9375 52 
Q 37.109375 52 42.046875 46.875 
Q 46.625 42.28125 46.625 33.890625 
L 46.625 15.578125 
Q 46.625 6.25 49.3125 0.984375 
z
M 38.921875 25.390625 
L 33.453125 25.296875 
Q 14.109375 24.859375 14.109375 14.890625 
Q 14.109375 11.375 16.40625 9.078125 
Q 19.234375 6.296875 23.828125 6.296875 
Q 30.21875 6.296875 34.90625 10.984375 
Q 38.921875 15.140625 38.921875 21 
z
" id="IPAexGothic-97"/>
      <path d="M 52 0.984375 
L 43.40625 0.984375 
L 43.40625 31.890625 
Q 43.40625 44.578125 32.90625 44.578125 
Q 22.3125 44.578125 17.390625 31.890625 
L 17.390625 0.984375 
L 8.796875 0.984375 
L 8.796875 50.78125 
L 16.796875 50.78125 
L 16.796875 41.796875 
Q 23.828125 51.8125 34.71875 51.8125 
Q 52 51.8125 52 32.375 
z
" id="IPAexGothic-110"/>
     </defs>
     <g transform="translate(86.128125 23.690625)scale(0.1 -0.1)">
      <use xlink:href="#IPAexGothic-74"/>
      <use x="37.988281" xlink:href="#IPAexGothic-97"/>
      <use x="92.96875" xlink:href="#IPAexGothic-110"/>
     </g>
    </g>
    <g id="line2d_21">
     <path d="M 58.128125 34.58125 
L 78.128125 34.58125 
" style="fill:none;stroke:#ff7f0e;stroke-linecap:square;stroke-width:1.5;"/>
    </g>
    <g id="line2d_22">
     <g>
      <use style="fill:#ff7f0e;stroke:#ff7f0e;" x="68.128125" xlink:href="#m36973509a6" y="34.58125"/>
     </g>
    </g>
    <g id="text_18">
     <!-- Feb -->
     <defs>
      <path d="M 54.203125 64.703125 
L 18.3125 64.703125 
L 18.3125 41.5 
L 50.09375 41.5 
L 50.09375 34.1875 
L 18.3125 34.1875 
L 18.3125 0.984375 
L 9.515625 0.984375 
L 9.515625 72.40625 
L 54.203125 72.40625 
z
" id="IPAexGothic-70"/>
      <path d="M 13.484375 24.90625 
Q 13.921875 16.265625 18.890625 11.28125 
Q 23.96875 6.203125 31.203125 6.203125 
Q 40.71875 6.203125 46.296875 15.09375 
L 51.90625 11.375 
Q 44.828125 -0.484375 30.171875 -0.484375 
Q 19.09375 -0.484375 11.96875 6.59375 
Q 4.78125 13.8125 4.78125 25.640625 
Q 4.78125 38.1875 12.3125 45.703125 
Q 19 52.390625 29 52.390625 
Q 38.421875 52.390625 44.78125 46.1875 
Q 51.90625 38.96875 51.90625 26.90625 
L 51.90625 24.90625 
z
M 43.0625 31.203125 
Q 42.328125 37.984375 38.28125 41.890625 
Q 34.28125 45.90625 28.8125 45.90625 
Q 22.46875 45.90625 17.96875 40.484375 
Q 14.890625 36.8125 13.96875 31.203125 
z
" id="IPAexGothic-101"/>
      <path d="M 17.578125 42.671875 
Q 24.21875 52.203125 34.671875 52.203125 
Q 43.5625 52.203125 49.859375 45.90625 
Q 57.171875 38.578125 57.171875 25.6875 
Q 57.171875 13.09375 49.859375 5.8125 
Q 43.5625 -0.484375 34.46875 -0.484375 
Q 24.359375 -0.484375 17 8.0625 
L 15.765625 0.6875 
L 9.078125 0.6875 
L 9.078125 74.90625 
L 17.578125 74.90625 
z
M 17.578125 31.203125 
L 17.578125 19.578125 
Q 17.578125 13.875 23.875 9.375 
Q 28.171875 6.296875 33.109375 6.296875 
Q 38.875 6.296875 42.875 10.296875 
Q 48.1875 15.765625 48.1875 25.484375 
Q 48.1875 34.28125 43.796875 39.890625 
Q 39.453125 45.3125 33.203125 45.3125 
Q 27.484375 45.3125 22.46875 40.28125 
Q 17.578125 35.40625 17.578125 31.203125 
z
" id="IPAexGothic-98"/>
     </defs>
     <g transform="translate(86.128125 38.08125)scale(0.1 -0.1)">
      <use xlink:href="#IPAexGothic-70"/>
      <use x="57.177734" xlink:href="#IPAexGothic-101"/>
      <use x="114.0625" xlink:href="#IPAexGothic-98"/>
     </g>
    </g>
    <g id="line2d_23">
     <path d="M 58.128125 48.971875 
L 78.128125 48.971875 
" style="fill:none;stroke:#2ca02c;stroke-linecap:square;stroke-width:1.5;"/>
    </g>
    <g id="line2d_24">
     <g>
      <use style="fill:#2ca02c;stroke:#2ca02c;" x="68.128125" xlink:href="#mfadded1c3a" y="48.971875"/>
     </g>
    </g>
    <g id="text_19">
     <!-- Mar -->
     <defs>
      <path d="M 80.421875 0.984375 
L 71.828125 0.984375 
L 71.828125 39.59375 
Q 71.828125 51.265625 72.40625 64.59375 
L 72.015625 64.59375 
Q 68.0625 53.265625 63.53125 41.796875 
L 47.90625 3.265625 
L 41.40625 3.265625 
L 25.640625 42.578125 
Q 20.75 54.78125 17.625 64.703125 
L 17.234375 64.703125 
Q 17.828125 48.921875 17.828125 39.890625 
L 17.828125 0.984375 
L 9.515625 0.984375 
L 9.515625 72.40625 
L 22.125 72.40625 
L 39.109375 30.375 
Q 42.140625 23 44.828125 14.15625 
L 45.125 14.15625 
Q 47.3125 22.125 50.53125 30.171875 
L 67.4375 72.40625 
L 80.421875 72.40625 
z
" id="IPAexGothic-77"/>
      <path d="M 36.078125 51.8125 
L 34.578125 43.265625 
Q 32.90625 43.609375 31.59375 43.609375 
Q 25.828125 43.609375 22.078125 38.1875 
Q 17.390625 31.34375 17.390625 26.171875 
L 17.390625 0.984375 
L 8.796875 0.984375 
L 8.796875 50.78125 
L 16.890625 50.78125 
L 16.5 35.984375 
L 16.703125 35.984375 
Q 22.21875 52.203125 32.765625 52.203125 
Q 34.46875 52.203125 36.078125 51.8125 
z
" id="IPAexGothic-114"/>
     </defs>
     <g transform="translate(86.128125 52.471875)scale(0.1 -0.1)">
      <use xlink:href="#IPAexGothic-77"/>
      <use x="90.185547" xlink:href="#IPAexGothic-97"/>
      <use x="145.166016" xlink:href="#IPAexGothic-114"/>
     </g>
    </g>
    <g id="line2d_25">
     <path d="M 58.128125 63.3625 
L 78.128125 63.3625 
" style="fill:none;stroke:#d62728;stroke-linecap:square;stroke-width:1.5;"/>
    </g>
    <g id="line2d_26">
     <g>
      <use style="fill:#d62728;stroke:#d62728;" x="68.128125" xlink:href="#m6464f3c140" y="63.3625"/>
     </g>
    </g>
    <g id="text_20">
     <!-- Apr -->
     <defs>
      <path d="M 63.375 0.984375 
L 53.8125 0.984375 
L 45.90625 22.015625 
L 17.1875 22.015625 
L 9.421875 0.984375 
L -0.09375 0.984375 
L 28.21875 72.90625 
L 35.296875 72.90625 
z
M 43.40625 29.109375 
L 36.1875 48.09375 
Q 33.203125 56.0625 31.6875 62.5 
L 31.390625 62.5 
Q 29.640625 55.671875 26.8125 48.09375 
L 19.734375 29.109375 
z
" id="IPAexGothic-65"/>
      <path d="M 16.796875 42 
Q 23.828125 52.203125 34.46875 52.203125 
Q 43.265625 52.203125 49.5625 45.90625 
Q 56.890625 38.578125 56.890625 25.6875 
Q 56.890625 13.140625 49.65625 5.8125 
Q 43.359375 -0.484375 34.375 -0.484375 
Q 24.515625 -0.484375 17.28125 7.765625 
L 17.28125 -19 
L 8.796875 -19 
L 8.796875 50.78125 
L 16.796875 50.78125 
z
M 17.28125 30.46875 
L 17.28125 20.171875 
Q 17.28125 14.015625 23.6875 9.375 
Q 27.984375 6.296875 32.90625 6.296875 
Q 38.578125 6.296875 42.578125 10.296875 
Q 47.90625 15.578125 47.90625 25.484375 
Q 47.90625 34.375 43.5 39.984375 
Q 39.109375 45.3125 32.8125 45.3125 
Q 25.875 45.3125 20.90625 38.8125 
Q 17.28125 34.125 17.28125 30.46875 
z
" id="IPAexGothic-112"/>
     </defs>
     <g transform="translate(86.128125 66.8625)scale(0.1 -0.1)">
      <use xlink:href="#IPAexGothic-65"/>
      <use x="63.720703" xlink:href="#IPAexGothic-112"/>
      <use x="125.830078" xlink:href="#IPAexGothic-114"/>
     </g>
    </g>
   </g>
  </g>
 </g>
 <defs>
  <clipPath id="p61bdede83d">
   <rect height="266.112" width="357.12" x="49.128125" y="7.2"/>
  </clipPath>
 </defs>
</svg>
