<?xml version="1.0" encoding="utf-8" standalone="no"?>
<!DOCTYPE svg PUBLIC "-//W3C//DTD SVG 1.1//EN"
  "http://www.w3.org/Graphics/SVG/1.1/DTD/svg11.dtd">
<svg height="296.902625pt" version="1.1" viewBox="0 0 421.67066 296.902625" width="421.67066pt" xmlns="http://www.w3.org/2000/svg" xmlns:xlink="http://www.w3.org/1999/xlink">
 <metadata>
  <rdf:RDF xmlns:cc="http://creativecommons.org/ns#" xmlns:dc="http://purl.org/dc/elements/1.1/" xmlns:rdf="http://www.w3.org/1999/02/22-rdf-syntax-ns#">
   <cc:Work>
    <dc:type rdf:resource="http://purl.org/dc/dcmitype/StillImage"/>
    <dc:date>2021-10-26T13:57:35.276037</dc:date>
    <dc:format>image/svg+xml</dc:format>
    <dc:creator>
     <cc:Agent>
      <dc:title>Matplotlib v3.4.3, https://matplotlib.org/</dc:title>
     </cc:Agent>
    </dc:creator>
   </cc:Work>
  </rdf:RDF>
 </metadata>
 <defs>
  <style type="text/css">*{stroke-linecap:butt;stroke-linejoin:round;}</style>
 </defs>
 <g id="figure_1">
  <g id="patch_1">
   <path d="M 0 296.902625 
L 421.67066 296.902625 
L 421.67066 0 
L 0 0 
z
" style="fill:#ffffff;"/>
  </g>
  <g id="axes_1">
   <g id="patch_2">
    <path d="M 52.784375 273.312 
L 409.904375 273.312 
L 409.904375 7.2 
L 52.784375 7.2 
z
" style="fill:#ffffff;"/>
   </g>
   <g id="matplotlib.axis_1">
    <g id="xtick_1">
     <g id="line2d_1">
      <defs>
       <path d="M 0 0 
L 0 3.5 
" id="m4cc0f5597e" style="stroke:#000000;stroke-width:0.8;"/>
      </defs>
      <g>
       <use style="stroke:#000000;stroke-width:0.8;" x="88.584293" xlink:href="#m4cc0f5597e" y="273.312"/>
      </g>
     </g>
     <g id="text_1">
      <!-- 2006 -->
      <g transform="translate(75.987418 287.802625)scale(0.1 -0.1)">
       <defs>
        <path d="M 3659 63 
L 447 63 
L 447 594 
Q 825 1475 1894 2203 
L 2072 2322 
Q 2619 2697 2791 2906 
Q 2988 3153 2988 3444 
Q 2988 3772 2756 4003 
Q 2500 4259 2084 4259 
Q 1250 4259 991 3328 
L 497 3506 
Q 853 4725 2116 4725 
Q 2806 4725 3216 4316 
Q 3575 3947 3575 3425 
Q 3575 3038 3344 2722 
Q 3131 2416 2366 1938 
L 2231 1856 
Q 1256 1253 978 569 
L 3659 569 
L 3659 63 
z
" id="IPAexGothic-32" transform="scale(0.015625)"/>
        <path d="M 2038 4725 
Q 2881 4725 3334 3944 
Q 3694 3325 3694 2344 
Q 3694 1372 3334 741 
Q 2888 -31 2016 -31 
Q 1147 -31 700 741 
Q 341 1372 341 2350 
Q 341 3713 1000 4334 
Q 1419 4725 2038 4725 
z
M 2016 4266 
Q 1516 4266 1228 3759 
Q 934 3247 934 2344 
Q 934 1456 1222 947 
Q 1513 447 2016 447 
Q 2619 447 2909 1153 
Q 3100 1622 3100 2375 
Q 3100 3256 2806 3759 
Q 2509 4266 2016 4266 
z
" id="IPAexGothic-30" transform="scale(0.015625)"/>
        <path d="M 1056 2328 
Q 1509 2981 2234 2981 
Q 2906 2981 3316 2513 
Q 3675 2106 3675 1522 
Q 3675 884 3272 434 
Q 2853 -31 2178 -31 
Q 1375 -31 922 581 
Q 481 1178 481 2228 
Q 481 3425 1013 4109 
Q 1494 4725 2272 4725 
Q 3191 4725 3609 4025 
L 3150 3775 
Q 2894 4266 2300 4266 
Q 1119 4266 1031 2328 
L 1056 2328 
z
M 2141 2547 
Q 1684 2547 1384 2206 
Q 1116 1900 1116 1541 
Q 1116 1156 1353 844 
Q 1672 428 2159 428 
Q 2669 428 2941 844 
Q 3125 1128 3125 1503 
Q 3125 1944 2881 2228 
Q 2600 2547 2141 2547 
z
" id="IPAexGothic-36" transform="scale(0.015625)"/>
       </defs>
       <use xlink:href="#IPAexGothic-32"/>
       <use x="62.988281" xlink:href="#IPAexGothic-30"/>
       <use x="125.976562" xlink:href="#IPAexGothic-30"/>
       <use x="188.964844" xlink:href="#IPAexGothic-36"/>
      </g>
     </g>
    </g>
    <g id="xtick_2">
     <g id="line2d_2">
      <g>
       <use style="stroke:#000000;stroke-width:0.8;" x="127.718675" xlink:href="#m4cc0f5597e" y="273.312"/>
      </g>
     </g>
     <g id="text_2">
      <!-- 2008 -->
      <g transform="translate(115.1218 287.802625)scale(0.1 -0.1)">
       <defs>
        <path d="M 2541 2425 
Q 3700 2031 3700 1197 
Q 3700 541 3100 197 
Q 2663 -56 2016 -56 
Q 1366 -56 928 197 
Q 347 531 347 1178 
Q 347 1988 1409 2381 
L 1409 2400 
Q 481 2734 481 3509 
Q 481 4100 981 4456 
Q 1406 4756 2019 4756 
Q 2703 4756 3131 4403 
Q 3553 4069 3553 3566 
Q 3553 2706 2541 2444 
L 2541 2425 
z
M 2022 2625 
Q 2997 2856 2997 3528 
Q 2997 3916 2675 4150 
Q 2413 4347 2016 4347 
Q 1606 4347 1331 4128 
Q 1050 3897 1050 3522 
Q 1050 3150 1350 2925 
Q 1494 2809 1722 2722 
Q 1984 2616 2022 2625 
z
M 1978 2209 
Q 922 1931 922 1216 
Q 922 775 1313 556 
Q 1606 391 2009 391 
Q 2575 391 2881 697 
Q 3106 922 3106 1250 
Q 3106 1594 2794 1850 
Q 2609 1994 2350 2100 
Q 2047 2222 1978 2209 
z
" id="IPAexGothic-38" transform="scale(0.015625)"/>
       </defs>
       <use xlink:href="#IPAexGothic-32"/>
       <use x="62.988281" xlink:href="#IPAexGothic-30"/>
       <use x="125.976562" xlink:href="#IPAexGothic-30"/>
       <use x="188.964844" xlink:href="#IPAexGothic-38"/>
      </g>
     </g>
    </g>
    <g id="xtick_3">
     <g id="line2d_3">
      <g>
       <use style="stroke:#000000;stroke-width:0.8;" x="166.906666" xlink:href="#m4cc0f5597e" y="273.312"/>
      </g>
     </g>
     <g id="text_3">
      <!-- 2010 -->
      <g transform="translate(154.309791 287.802625)scale(0.1 -0.1)">
       <defs>
        <path d="M 2463 63 
L 1900 63 
L 1900 4103 
Q 1372 3922 788 3797 
L 684 4231 
Q 1519 4441 2106 4731 
L 2463 4731 
L 2463 63 
z
" id="IPAexGothic-31" transform="scale(0.015625)"/>
       </defs>
       <use xlink:href="#IPAexGothic-32"/>
       <use x="62.988281" xlink:href="#IPAexGothic-30"/>
       <use x="125.976562" xlink:href="#IPAexGothic-31"/>
       <use x="188.964844" xlink:href="#IPAexGothic-30"/>
      </g>
     </g>
    </g>
    <g id="xtick_4">
     <g id="line2d_4">
      <g>
       <use style="stroke:#000000;stroke-width:0.8;" x="206.041048" xlink:href="#m4cc0f5597e" y="273.312"/>
      </g>
     </g>
     <g id="text_4">
      <!-- 2012 -->
      <g transform="translate(193.444173 287.802625)scale(0.1 -0.1)">
       <use xlink:href="#IPAexGothic-32"/>
       <use x="62.988281" xlink:href="#IPAexGothic-30"/>
       <use x="125.976562" xlink:href="#IPAexGothic-31"/>
       <use x="188.964844" xlink:href="#IPAexGothic-32"/>
      </g>
     </g>
    </g>
    <g id="xtick_5">
     <g id="line2d_5">
      <g>
       <use style="stroke:#000000;stroke-width:0.8;" x="245.229039" xlink:href="#m4cc0f5597e" y="273.312"/>
      </g>
     </g>
     <g id="text_5">
      <!-- 2014 -->
      <g transform="translate(232.632164 287.802625)scale(0.1 -0.1)">
       <defs>
        <path d="M 3813 1159 
L 3059 1159 
L 3059 63 
L 2547 63 
L 2547 1159 
L 197 1159 
L 197 1672 
L 2456 4678 
L 3059 4678 
L 3059 1634 
L 3813 1634 
L 3813 1159 
z
M 2578 4109 
L 2559 4109 
Q 2278 3656 2003 3284 
L 759 1634 
L 2547 1634 
L 2547 3144 
Q 2547 3481 2578 4109 
z
" id="IPAexGothic-34" transform="scale(0.015625)"/>
       </defs>
       <use xlink:href="#IPAexGothic-32"/>
       <use x="62.988281" xlink:href="#IPAexGothic-30"/>
       <use x="125.976562" xlink:href="#IPAexGothic-31"/>
       <use x="188.964844" xlink:href="#IPAexGothic-34"/>
      </g>
     </g>
    </g>
    <g id="xtick_6">
     <g id="line2d_6">
      <g>
       <use style="stroke:#000000;stroke-width:0.8;" x="284.363421" xlink:href="#m4cc0f5597e" y="273.312"/>
      </g>
     </g>
     <g id="text_6">
      <!-- 2016 -->
      <g transform="translate(271.766546 287.802625)scale(0.1 -0.1)">
       <use xlink:href="#IPAexGothic-32"/>
       <use x="62.988281" xlink:href="#IPAexGothic-30"/>
       <use x="125.976562" xlink:href="#IPAexGothic-31"/>
       <use x="188.964844" xlink:href="#IPAexGothic-36"/>
      </g>
     </g>
    </g>
    <g id="xtick_7">
     <g id="line2d_7">
      <g>
       <use style="stroke:#000000;stroke-width:0.8;" x="323.551412" xlink:href="#m4cc0f5597e" y="273.312"/>
      </g>
     </g>
     <g id="text_7">
      <!-- 2018 -->
      <g transform="translate(310.954537 287.802625)scale(0.1 -0.1)">
       <use xlink:href="#IPAexGothic-32"/>
       <use x="62.988281" xlink:href="#IPAexGothic-30"/>
       <use x="125.976562" xlink:href="#IPAexGothic-31"/>
       <use x="188.964844" xlink:href="#IPAexGothic-38"/>
      </g>
     </g>
    </g>
    <g id="xtick_8">
     <g id="line2d_8">
      <g>
       <use style="stroke:#000000;stroke-width:0.8;" x="362.685794" xlink:href="#m4cc0f5597e" y="273.312"/>
      </g>
     </g>
     <g id="text_8">
      <!-- 2020 -->
      <g transform="translate(350.088919 287.802625)scale(0.1 -0.1)">
       <use xlink:href="#IPAexGothic-32"/>
       <use x="62.988281" xlink:href="#IPAexGothic-30"/>
       <use x="125.976562" xlink:href="#IPAexGothic-32"/>
       <use x="188.964844" xlink:href="#IPAexGothic-30"/>
      </g>
     </g>
    </g>
    <g id="xtick_9">
     <g id="line2d_9">
      <g>
       <use style="stroke:#000000;stroke-width:0.8;" x="401.873785" xlink:href="#m4cc0f5597e" y="273.312"/>
      </g>
     </g>
     <g id="text_9">
      <!-- 2022 -->
      <g transform="translate(389.27691 287.802625)scale(0.1 -0.1)">
       <use xlink:href="#IPAexGothic-32"/>
       <use x="62.988281" xlink:href="#IPAexGothic-30"/>
       <use x="125.976562" xlink:href="#IPAexGothic-32"/>
       <use x="188.964844" xlink:href="#IPAexGothic-32"/>
      </g>
     </g>
    </g>
   </g>
   <g id="matplotlib.axis_2">
    <g id="ytick_1">
     <g id="line2d_10">
      <defs>
       <path d="M 0 0 
L -3.5 0 
" id="md6b2b357e2" style="stroke:#000000;stroke-width:0.8;"/>
      </defs>
      <g>
       <use style="stroke:#000000;stroke-width:0.8;" x="52.784375" xlink:href="#md6b2b357e2" y="272.948804"/>
      </g>
     </g>
     <g id="text_10">
      <!-- 2500 -->
      <g transform="translate(20.590625 276.694116)scale(0.1 -0.1)">
       <defs>
        <path d="M 1178 2603 
Q 1634 2963 2172 2963 
Q 2816 2963 3241 2528 
Q 3638 2113 3638 1497 
Q 3638 938 3297 513 
Q 2869 -31 2031 -31 
Q 959 -31 469 784 
L 938 1028 
Q 1309 434 2013 434 
Q 2466 434 2769 716 
Q 3081 1013 3081 1503 
Q 3081 1966 2806 2241 
Q 2519 2528 2056 2528 
Q 1406 2528 1072 2028 
L 591 2091 
L 884 4634 
L 3406 4634 
L 3406 4153 
L 1341 4153 
L 1134 2603 
L 1178 2603 
z
" id="IPAexGothic-35" transform="scale(0.015625)"/>
       </defs>
       <use xlink:href="#IPAexGothic-32"/>
       <use x="62.988281" xlink:href="#IPAexGothic-35"/>
       <use x="125.976562" xlink:href="#IPAexGothic-30"/>
       <use x="188.964844" xlink:href="#IPAexGothic-30"/>
      </g>
     </g>
    </g>
    <g id="ytick_2">
     <g id="line2d_11">
      <g>
       <use style="stroke:#000000;stroke-width:0.8;" x="52.784375" xlink:href="#md6b2b357e2" y="241.914937"/>
      </g>
     </g>
     <g id="text_11">
      <!-- 2750 -->
      <g transform="translate(20.590625 245.66025)scale(0.1 -0.1)">
       <defs>
        <path d="M 3597 4263 
Q 2238 2106 1778 63 
L 1131 63 
Q 1581 1834 2950 4128 
L 428 4128 
L 428 4634 
L 3597 4634 
L 3597 4263 
z
" id="IPAexGothic-37" transform="scale(0.015625)"/>
       </defs>
       <use xlink:href="#IPAexGothic-32"/>
       <use x="62.988281" xlink:href="#IPAexGothic-37"/>
       <use x="125.976562" xlink:href="#IPAexGothic-35"/>
       <use x="188.964844" xlink:href="#IPAexGothic-30"/>
      </g>
     </g>
    </g>
    <g id="ytick_3">
     <g id="line2d_12">
      <g>
       <use style="stroke:#000000;stroke-width:0.8;" x="52.784375" xlink:href="#md6b2b357e2" y="210.881071"/>
      </g>
     </g>
     <g id="text_12">
      <!-- 3000 -->
      <g transform="translate(20.590625 214.626384)scale(0.1 -0.1)">
       <defs>
        <path d="M 2381 2419 
Q 3506 2216 3506 1278 
Q 3506 716 3128 356 
Q 2709 -31 1944 -31 
Q 797 -31 288 881 
L 756 1131 
Q 1109 441 1938 441 
Q 2425 441 2694 691 
Q 2950 928 2950 1291 
Q 2950 1719 2566 1978 
Q 2216 2213 1644 2213 
L 1363 2213 
L 1363 2669 
L 1656 2669 
Q 2231 2669 2534 2888 
Q 2859 3119 2859 3509 
Q 2859 3934 2494 4138 
Q 2259 4278 1931 4278 
Q 1238 4278 903 3578 
L 434 3803 
Q 897 4725 1938 4725 
Q 2597 4725 3006 4394 
Q 3416 4069 3416 3534 
Q 3416 3028 3019 2706 
Q 2763 2500 2381 2444 
L 2381 2419 
z
" id="IPAexGothic-33" transform="scale(0.015625)"/>
       </defs>
       <use xlink:href="#IPAexGothic-33"/>
       <use x="62.988281" xlink:href="#IPAexGothic-30"/>
       <use x="125.976562" xlink:href="#IPAexGothic-30"/>
       <use x="188.964844" xlink:href="#IPAexGothic-30"/>
      </g>
     </g>
    </g>
    <g id="ytick_4">
     <g id="line2d_13">
      <g>
       <use style="stroke:#000000;stroke-width:0.8;" x="52.784375" xlink:href="#md6b2b357e2" y="179.847205"/>
      </g>
     </g>
     <g id="text_13">
      <!-- 3250 -->
      <g transform="translate(20.590625 183.592517)scale(0.1 -0.1)">
       <use xlink:href="#IPAexGothic-33"/>
       <use x="62.988281" xlink:href="#IPAexGothic-32"/>
       <use x="125.976562" xlink:href="#IPAexGothic-35"/>
       <use x="188.964844" xlink:href="#IPAexGothic-30"/>
      </g>
     </g>
    </g>
    <g id="ytick_5">
     <g id="line2d_14">
      <g>
       <use style="stroke:#000000;stroke-width:0.8;" x="52.784375" xlink:href="#md6b2b357e2" y="148.813338"/>
      </g>
     </g>
     <g id="text_14">
      <!-- 3500 -->
      <g transform="translate(20.590625 152.558651)scale(0.1 -0.1)">
       <use xlink:href="#IPAexGothic-33"/>
       <use x="62.988281" xlink:href="#IPAexGothic-35"/>
       <use x="125.976562" xlink:href="#IPAexGothic-30"/>
       <use x="188.964844" xlink:href="#IPAexGothic-30"/>
      </g>
     </g>
    </g>
    <g id="ytick_6">
     <g id="line2d_15">
      <g>
       <use style="stroke:#000000;stroke-width:0.8;" x="52.784375" xlink:href="#md6b2b357e2" y="117.779472"/>
      </g>
     </g>
     <g id="text_15">
      <!-- 3750 -->
      <g transform="translate(20.590625 121.524785)scale(0.1 -0.1)">
       <use xlink:href="#IPAexGothic-33"/>
       <use x="62.988281" xlink:href="#IPAexGothic-37"/>
       <use x="125.976562" xlink:href="#IPAexGothic-35"/>
       <use x="188.964844" xlink:href="#IPAexGothic-30"/>
      </g>
     </g>
    </g>
    <g id="ytick_7">
     <g id="line2d_16">
      <g>
       <use style="stroke:#000000;stroke-width:0.8;" x="52.784375" xlink:href="#md6b2b357e2" y="86.745606"/>
      </g>
     </g>
     <g id="text_16">
      <!-- 4000 -->
      <g transform="translate(20.590625 90.490918)scale(0.1 -0.1)">
       <use xlink:href="#IPAexGothic-34"/>
       <use x="62.988281" xlink:href="#IPAexGothic-30"/>
       <use x="125.976562" xlink:href="#IPAexGothic-30"/>
       <use x="188.964844" xlink:href="#IPAexGothic-30"/>
      </g>
     </g>
    </g>
    <g id="ytick_8">
     <g id="line2d_17">
      <g>
       <use style="stroke:#000000;stroke-width:0.8;" x="52.784375" xlink:href="#md6b2b357e2" y="55.711739"/>
      </g>
     </g>
     <g id="text_17">
      <!-- 4250 -->
      <g transform="translate(20.590625 59.457052)scale(0.1 -0.1)">
       <use xlink:href="#IPAexGothic-34"/>
       <use x="62.988281" xlink:href="#IPAexGothic-32"/>
       <use x="125.976562" xlink:href="#IPAexGothic-35"/>
       <use x="188.964844" xlink:href="#IPAexGothic-30"/>
      </g>
     </g>
    </g>
    <g id="ytick_9">
     <g id="line2d_18">
      <g>
       <use style="stroke:#000000;stroke-width:0.8;" x="52.784375" xlink:href="#md6b2b357e2" y="24.677873"/>
      </g>
     </g>
     <g id="text_18">
      <!-- 4500 -->
      <g transform="translate(20.590625 28.423186)scale(0.1 -0.1)">
       <use xlink:href="#IPAexGothic-34"/>
       <use x="62.988281" xlink:href="#IPAexGothic-35"/>
       <use x="125.976562" xlink:href="#IPAexGothic-30"/>
       <use x="188.964844" xlink:href="#IPAexGothic-30"/>
      </g>
     </g>
    </g>
    <g id="text_19">
     <!-- 1日あたり死亡数 -->
     <g transform="translate(14.690625 178.405219)rotate(-90)scale(0.1 -0.1)">
      <defs>
       <path d="M 5231 4800 
L 5231 -288 
L 4744 -288 
L 4744 128 
L 1647 128 
L 1647 -288 
L 1159 -288 
L 1159 4800 
L 5231 4800 
z
M 1647 4372 
L 1647 2731 
L 4744 2731 
L 4744 4372 
L 1647 4372 
z
M 1647 2297 
L 1647 556 
L 4744 556 
L 4744 2297 
L 1647 2297 
z
" id="IPAexGothic-65e5" transform="scale(0.015625)"/>
       <path d="M 966 4134 
Q 1228 4116 1550 4116 
Q 1934 4116 2284 4141 
Q 2297 4247 2319 4453 
Q 2369 4872 2381 5050 
L 2853 5019 
Q 2794 4547 2759 4178 
Q 3672 4275 4581 4525 
L 4634 4084 
Q 3750 3863 2713 3756 
Q 2675 3378 2663 2931 
Q 3088 3084 3669 3138 
Q 3738 3325 3763 3547 
L 4238 3438 
Q 4188 3219 4153 3128 
Q 4797 3041 5166 2741 
Q 5703 2297 5703 1581 
Q 5703 794 5056 300 
Q 4559 -84 3681 -213 
L 3406 213 
Q 4169 297 4622 594 
Q 5203 969 5203 1588 
Q 5203 2216 4672 2553 
Q 4413 2725 4025 2772 
Q 3550 1556 2747 800 
Q 2766 584 2847 275 
L 2388 103 
Q 2369 191 2316 525 
Q 1756 128 1300 128 
Q 666 128 666 794 
Q 666 1244 950 1691 
Q 1216 2100 1678 2425 
Q 1834 2541 2194 2731 
Q 2206 3159 2253 3719 
Q 1772 3681 1338 3681 
Q 1106 3681 1006 3688 
L 966 4134 
z
M 2188 2291 
Q 1966 2169 1703 1913 
Q 1431 1650 1272 1353 
Q 1144 1109 1134 922 
Q 1119 575 1384 575 
Q 1788 575 2247 997 
Q 2197 1497 2188 2291 
z
M 3553 2772 
Q 3038 2700 2638 2534 
Q 2638 1734 2663 1300 
Q 3231 1931 3553 2772 
z
" id="IPAexGothic-3042" transform="scale(0.015625)"/>
       <path d="M 684 3994 
Q 1138 3953 1556 3953 
Q 1797 3953 2106 3975 
Q 2266 4594 2369 5113 
L 2875 5025 
Q 2806 4731 2619 4013 
Q 3209 4084 3656 4191 
L 3688 3719 
Q 3109 3613 2497 3566 
Q 1822 1294 1153 -44 
L 653 172 
Q 1406 1500 1991 3531 
Q 1634 3513 1256 3513 
Q 1106 3513 697 3525 
L 684 3994 
z
M 5753 78 
Q 5059 -13 4597 -13 
Q 3619 -13 3206 334 
Q 2866 625 2766 1222 
L 3213 1388 
Q 3247 1069 3347 903 
Q 3425 775 3578 672 
Q 3866 481 4556 481 
Q 5009 481 5728 575 
L 5753 78 
z
M 3144 2859 
Q 4216 3147 5409 3072 
L 5381 2597 
L 5356 2597 
Q 4263 2663 3194 2419 
L 3144 2859 
z
" id="IPAexGothic-305f" transform="scale(0.015625)"/>
       <path d="M 2878 2925 
Q 2503 2294 2372 2041 
Q 2222 1750 2163 1459 
L 1716 1503 
Q 1509 2131 1509 3091 
Q 1509 3744 1663 4872 
L 2181 4806 
Q 2003 3541 2003 3016 
Q 2003 2613 2028 2259 
Q 2109 2413 2313 2766 
Q 2484 3063 2578 3238 
L 2878 2925 
z
M 2488 128 
Q 3534 503 3928 1184 
Q 4234 1713 4234 2975 
Q 4234 3872 4122 4928 
L 4666 4928 
Q 4759 3794 4759 2975 
Q 4759 1516 4356 844 
Q 3913 103 2853 -288 
L 2488 128 
z
" id="IPAexGothic-308a" transform="scale(0.015625)"/>
       <path d="M 2134 1381 
Q 1691 1863 1256 2200 
Q 997 1788 616 1406 
L 309 1713 
Q 1325 2825 1584 4403 
L 1591 4441 
L 456 4441 
L 456 4856 
L 5947 4856 
L 5947 4441 
L 4053 4441 
L 4053 2431 
Q 4888 2881 5478 3456 
L 5894 3116 
Q 5109 2469 4053 1950 
L 4053 516 
Q 4053 275 4238 225 
Q 4378 194 4684 194 
Q 5428 194 5506 397 
Q 5575 591 5594 1325 
L 6088 1163 
Q 6050 141 5869 -56 
Q 5666 -281 4628 -281 
Q 4063 -281 3841 -166 
Q 3594 -41 3594 356 
L 3594 4441 
L 2050 4441 
Q 2041 4400 2031 4300 
Q 1978 4000 1838 3519 
L 3003 3519 
L 3266 3322 
Q 3028 1938 2472 1028 
Q 1906 119 738 -438 
L 419 -47 
Q 1541 413 2134 1381 
z
M 2356 1797 
Q 2647 2425 2759 3116 
L 1703 3116 
Q 1603 2844 1450 2534 
Q 1966 2188 2356 1797 
z
" id="IPAexGothic-6b7b" transform="scale(0.015625)"/>
       <path d="M 1813 3497 
L 1813 819 
Q 1813 538 2056 488 
Q 2269 450 3194 450 
Q 4369 450 5506 544 
L 5506 38 
Q 4391 -31 3259 -31 
Q 2013 -31 1697 72 
Q 1319 197 1319 647 
L 1319 3497 
L 481 3497 
L 481 3938 
L 2925 3938 
L 2925 5084 
L 3431 5084 
L 3431 3938 
L 5922 3938 
L 5922 3497 
L 1813 3497 
z
" id="IPAexGothic-4ea1" transform="scale(0.015625)"/>
       <path d="M 2847 1553 
Q 2741 1006 2425 534 
Q 2625 441 3091 203 
L 2809 -188 
Q 2541 0 2144 209 
Q 1569 -291 703 -500 
L 422 -125 
Q 1263 19 1747 406 
Q 1222 650 734 816 
Q 975 1172 1147 1503 
L 1172 1553 
L 359 1553 
L 359 1925 
L 1344 1925 
Q 1406 2066 1569 2475 
L 1691 2450 
L 1691 3372 
Q 1250 2738 550 2303 
L 275 2663 
Q 1019 3013 1528 3641 
L 378 3641 
L 378 4006 
L 1691 4006 
L 1691 5313 
L 2113 5313 
L 2113 4006 
L 3297 4006 
L 3297 3641 
L 2113 3641 
L 2113 3513 
Q 2659 3291 3175 2963 
L 2956 2584 
Q 2553 2922 2113 3159 
L 2113 2372 
L 1966 2372 
Q 1928 2288 1872 2141 
Q 1806 1975 1784 1925 
L 3378 1925 
L 3378 1553 
L 2847 1553 
z
M 2419 1553 
L 1613 1553 
Q 1478 1269 1313 997 
Q 1559 909 2047 703 
Q 2313 1047 2419 1553 
z
M 4363 1163 
Q 3953 1781 3738 2638 
Q 3575 2281 3428 2016 
L 3103 2406 
Q 3675 3444 3916 5291 
L 4363 5200 
Q 4284 4666 4197 4197 
L 6009 4197 
L 6009 3775 
L 5503 3775 
Q 5397 2275 4869 1191 
Q 5419 503 6144 75 
L 5822 -378 
Q 5188 106 4631 788 
Q 4113 34 3341 -463 
L 3031 -78 
Q 3888 406 4363 1163 
z
M 4588 1594 
Q 4938 2388 5059 3775 
L 4100 3775 
Q 4041 3519 3972 3288 
Q 3981 3250 3991 3194 
Q 4175 2256 4588 1594 
z
M 1003 4116 
Q 878 4544 638 4934 
L 1053 5094 
Q 1247 4788 1438 4269 
L 1003 4116 
z
M 2316 4269 
Q 2550 4688 2688 5131 
L 3128 4997 
Q 2966 4588 2675 4128 
L 2316 4269 
z
" id="IPAexGothic-6570" transform="scale(0.015625)"/>
      </defs>
      <use xlink:href="#IPAexGothic-31"/>
      <use x="62.988281" xlink:href="#IPAexGothic-65e5"/>
      <use x="162.988281" xlink:href="#IPAexGothic-3042"/>
      <use x="262.988281" xlink:href="#IPAexGothic-305f"/>
      <use x="362.988281" xlink:href="#IPAexGothic-308a"/>
      <use x="462.988281" xlink:href="#IPAexGothic-6b7b"/>
      <use x="562.988281" xlink:href="#IPAexGothic-4ea1"/>
      <use x="662.988281" xlink:href="#IPAexGothic-6570"/>
     </g>
    </g>
   </g>
   <g id="line2d_19">
    <path clip-path="url(#p11d1606fe8)" d="M 69.017102 169.976433 
L 70.678973 158.770776 
L 72.180018 150.363029 
L 73.841889 204.355683 
L 75.450151 237.682318 
L 77.112022 260.158713 
L 78.720285 261.216 
L 80.382156 254.368528 
L 82.044027 257.572557 
L 83.652289 241.350321 
L 85.31416 206.892185 
L 86.922422 170.444944 
L 88.584293 145.441659 
L 90.246164 171.680864 
L 91.747209 200.049251 
L 93.40908 208.150091 
L 95.017342 228.448242 
L 96.679213 247.426552 
L 98.287476 251.265141 
L 99.949347 249.150834 
L 101.611218 249.756161 
L 103.21948 236.861423 
L 104.881351 203.739144 
L 106.489613 179.166462 
L 108.151484 162.888698 
L 109.813355 177.958572 
L 111.3144 175.198131 
L 112.976271 202.067453 
L 116.246405 243.028019 
L 117.854667 244.826114 
L 119.516538 230.706706 
L 121.178409 239.854289 
L 122.786671 217.051805 
L 127.718675 141.269106 
L 129.380546 144.905211 
L 130.9352 171.726343 
L 134.205333 216.499202 
L 135.867204 234.640599 
L 137.475467 232.252393 
L 139.137338 230.650645 
L 140.799209 231.495834 
L 142.407471 211.822098 
L 144.069342 178.101032 
L 145.677604 160.862487 
L 147.339475 125.559963 
L 149.001346 165.079518 
L 150.502391 178.906178 
L 153.772524 212.026321 
L 155.434395 232.298577 
L 157.042658 235.463898 
L 160.3664 220.849149 
L 161.974662 204.041607 
L 165.244795 158.604023 
L 166.906666 130.429276 
L 168.568537 149.003975 
L 170.069582 169.956411 
L 171.731453 174.157663 
L 173.339715 192.032502 
L 175.001586 209.192829 
L 176.609849 202.215615 
L 178.27172 200.073277 
L 179.933591 203.78466 
L 181.541853 189.43767 
L 183.203724 153.203596 
L 184.811986 139.266921 
L 186.473857 95.651324 
L 188.135728 126.610824 
L 189.636773 62.511159 
L 191.298644 154.188404 
L 192.906907 178.041234 
L 196.17704 205.751473 
L 197.838911 198.543608 
L 199.500782 202.232967 
L 201.109044 181.172651 
L 202.770915 163.730283 
L 204.379177 124.81515 
L 206.041048 90.345534 
L 207.702919 94.454846 
L 209.257573 138.281846 
L 210.919444 158.901414 
L 212.527706 187.075092 
L 214.189577 206.912874 
L 215.79784 203.909463 
L 217.459711 195.007749 
L 219.121582 198.964066 
L 220.729844 172.246911 
L 222.391715 135.241194 
L 223.999977 102.963304 
L 225.661848 73.322958 
L 227.323719 92.189833 
L 228.824764 138.54213 
L 230.486635 154.726324 
L 232.094897 174.581458 
L 233.756768 201.310227 
L 235.365031 195.332103 
L 237.026902 186.658638 
L 238.688773 185.193305 
L 240.297035 170.59711 
L 241.958906 133.238475 
L 243.567168 113.430726 
L 245.229039 83.922525 
L 246.89091 94.207034 
L 248.391955 127.558143 
L 250.053826 151.205015 
L 251.662088 179.474798 
L 253.323959 200.499208 
L 254.932222 198.887983 
L 256.594093 190.382702 
L 258.255964 179.392041 
L 259.864226 165.499548 
L 261.526097 135.605325 
L 263.134359 94.065594 
L 264.79623 45.676789 
L 266.458101 95.426221 
L 267.959146 127.349916 
L 272.891151 191.97524 
L 274.499413 185.060894 
L 276.161284 178.521758 
L 277.823155 176.776921 
L 279.431417 151.103838 
L 281.093288 142.126575 
L 282.70155 115.372846 
L 284.363421 84.070687 
L 286.025292 93.050831 
L 287.579946 118.49225 
L 289.241817 147.720946 
L 290.850079 169.792232 
L 292.51195 188.35876 
L 294.120213 186.041965 
L 295.782084 169.42383 
L 297.443955 168.509499 
L 299.052217 144.376497 
L 300.714088 112.168549 
L 302.32235 92.099448 
L 303.984221 46.005147 
L 305.646092 66.644527 
L 307.147137 102.687002 
L 308.809008 134.65362 
L 310.41727 157.711048 
L 312.079141 178.423785 
L 313.687404 173.292051 
L 315.349275 168.366676 
L 317.011146 165.807484 
L 318.619408 141.11694 
L 320.281279 106.731416 
L 321.889541 83.514079 
L 323.551412 31.59342 
L 325.213283 38.620946 
L 326.714328 100.460572 
L 328.376199 132.357114 
L 329.984461 158.039406 
L 331.646332 176.098314 
L 333.254595 155.692846 
L 334.916466 159.03249 
L 336.578337 150.141588 
L 338.186599 133.516646 
L 339.84847 109.615496 
L 341.456732 88.803852 
L 343.118603 21.782714 
L 344.780474 63.195335 
L 346.281519 109.430361 
L 347.94339 116.579496 
L 349.551653 142.586543 
L 351.213524 164.164758 
L 352.821786 159.392884 
L 354.483657 140.940747 
L 356.145528 141.646584 
L 357.75379 130.205032 
L 359.415661 94.39235 
L 361.023923 75.801663 
L 362.685794 58.350619 
L 365.902319 110.691737 
L 367.56419 116.252606 
L 369.172452 154.851928 
L 370.834323 172.291493 
L 372.442586 166.328452 
L 374.104457 138.237798 
L 375.766328 143.247932 
L 377.37459 114.972409 
L 379.036461 96.647478 
L 380.644723 54.118 
L 380.644723 54.118 
" style="fill:none;stroke:#1f77b4;stroke-linecap:square;stroke-width:1.5;"/>
    <defs>
     <path d="M 0 3 
C 0.795609 3 1.55874 2.683901 2.12132 2.12132 
C 2.683901 1.55874 3 0.795609 3 0 
C 3 -0.795609 2.683901 -1.55874 2.12132 -2.12132 
C 1.55874 -2.683901 0.795609 -3 0 -3 
C -0.795609 -3 -1.55874 -2.683901 -2.12132 -2.12132 
C -2.683901 -1.55874 -3 -0.795609 -3 0 
C -3 0.795609 -2.683901 1.55874 -2.12132 2.12132 
C -1.55874 2.683901 -0.795609 3 0 3 
z
" id="m6e038d04f1" style="stroke:#1f77b4;"/>
    </defs>
    <g clip-path="url(#p11d1606fe8)">
     <use style="fill:#1f77b4;stroke:#1f77b4;" x="69.017102" xlink:href="#m6e038d04f1" y="169.976433"/>
     <use style="fill:#1f77b4;stroke:#1f77b4;" x="70.678973" xlink:href="#m6e038d04f1" y="158.770776"/>
     <use style="fill:#1f77b4;stroke:#1f77b4;" x="72.180018" xlink:href="#m6e038d04f1" y="150.363029"/>
     <use style="fill:#1f77b4;stroke:#1f77b4;" x="73.841889" xlink:href="#m6e038d04f1" y="204.355683"/>
     <use style="fill:#1f77b4;stroke:#1f77b4;" x="75.450151" xlink:href="#m6e038d04f1" y="237.682318"/>
     <use style="fill:#1f77b4;stroke:#1f77b4;" x="77.112022" xlink:href="#m6e038d04f1" y="260.158713"/>
     <use style="fill:#1f77b4;stroke:#1f77b4;" x="78.720285" xlink:href="#m6e038d04f1" y="261.216"/>
     <use style="fill:#1f77b4;stroke:#1f77b4;" x="80.382156" xlink:href="#m6e038d04f1" y="254.368528"/>
     <use style="fill:#1f77b4;stroke:#1f77b4;" x="82.044027" xlink:href="#m6e038d04f1" y="257.572557"/>
     <use style="fill:#1f77b4;stroke:#1f77b4;" x="83.652289" xlink:href="#m6e038d04f1" y="241.350321"/>
     <use style="fill:#1f77b4;stroke:#1f77b4;" x="85.31416" xlink:href="#m6e038d04f1" y="206.892185"/>
     <use style="fill:#1f77b4;stroke:#1f77b4;" x="86.922422" xlink:href="#m6e038d04f1" y="170.444944"/>
     <use style="fill:#1f77b4;stroke:#1f77b4;" x="88.584293" xlink:href="#m6e038d04f1" y="145.441659"/>
     <use style="fill:#1f77b4;stroke:#1f77b4;" x="90.246164" xlink:href="#m6e038d04f1" y="171.680864"/>
     <use style="fill:#1f77b4;stroke:#1f77b4;" x="91.747209" xlink:href="#m6e038d04f1" y="200.049251"/>
     <use style="fill:#1f77b4;stroke:#1f77b4;" x="93.40908" xlink:href="#m6e038d04f1" y="208.150091"/>
     <use style="fill:#1f77b4;stroke:#1f77b4;" x="95.017342" xlink:href="#m6e038d04f1" y="228.448242"/>
     <use style="fill:#1f77b4;stroke:#1f77b4;" x="96.679213" xlink:href="#m6e038d04f1" y="247.426552"/>
     <use style="fill:#1f77b4;stroke:#1f77b4;" x="98.287476" xlink:href="#m6e038d04f1" y="251.265141"/>
     <use style="fill:#1f77b4;stroke:#1f77b4;" x="99.949347" xlink:href="#m6e038d04f1" y="249.150834"/>
     <use style="fill:#1f77b4;stroke:#1f77b4;" x="101.611218" xlink:href="#m6e038d04f1" y="249.756161"/>
     <use style="fill:#1f77b4;stroke:#1f77b4;" x="103.21948" xlink:href="#m6e038d04f1" y="236.861423"/>
     <use style="fill:#1f77b4;stroke:#1f77b4;" x="104.881351" xlink:href="#m6e038d04f1" y="203.739144"/>
     <use style="fill:#1f77b4;stroke:#1f77b4;" x="106.489613" xlink:href="#m6e038d04f1" y="179.166462"/>
     <use style="fill:#1f77b4;stroke:#1f77b4;" x="108.151484" xlink:href="#m6e038d04f1" y="162.888698"/>
     <use style="fill:#1f77b4;stroke:#1f77b4;" x="109.813355" xlink:href="#m6e038d04f1" y="177.958572"/>
     <use style="fill:#1f77b4;stroke:#1f77b4;" x="111.3144" xlink:href="#m6e038d04f1" y="175.198131"/>
     <use style="fill:#1f77b4;stroke:#1f77b4;" x="112.976271" xlink:href="#m6e038d04f1" y="202.067453"/>
     <use style="fill:#1f77b4;stroke:#1f77b4;" x="114.584534" xlink:href="#m6e038d04f1" y="222.445691"/>
     <use style="fill:#1f77b4;stroke:#1f77b4;" x="116.246405" xlink:href="#m6e038d04f1" y="243.028019"/>
     <use style="fill:#1f77b4;stroke:#1f77b4;" x="117.854667" xlink:href="#m6e038d04f1" y="244.826114"/>
     <use style="fill:#1f77b4;stroke:#1f77b4;" x="119.516538" xlink:href="#m6e038d04f1" y="230.706706"/>
     <use style="fill:#1f77b4;stroke:#1f77b4;" x="121.178409" xlink:href="#m6e038d04f1" y="239.854289"/>
     <use style="fill:#1f77b4;stroke:#1f77b4;" x="122.786671" xlink:href="#m6e038d04f1" y="217.051805"/>
     <use style="fill:#1f77b4;stroke:#1f77b4;" x="124.448542" xlink:href="#m6e038d04f1" y="191.408354"/>
     <use style="fill:#1f77b4;stroke:#1f77b4;" x="126.056804" xlink:href="#m6e038d04f1" y="167.617859"/>
     <use style="fill:#1f77b4;stroke:#1f77b4;" x="127.718675" xlink:href="#m6e038d04f1" y="141.269106"/>
     <use style="fill:#1f77b4;stroke:#1f77b4;" x="129.380546" xlink:href="#m6e038d04f1" y="144.905211"/>
     <use style="fill:#1f77b4;stroke:#1f77b4;" x="130.9352" xlink:href="#m6e038d04f1" y="171.726343"/>
     <use style="fill:#1f77b4;stroke:#1f77b4;" x="132.597071" xlink:href="#m6e038d04f1" y="194.102094"/>
     <use style="fill:#1f77b4;stroke:#1f77b4;" x="134.205333" xlink:href="#m6e038d04f1" y="216.499202"/>
     <use style="fill:#1f77b4;stroke:#1f77b4;" x="135.867204" xlink:href="#m6e038d04f1" y="234.640599"/>
     <use style="fill:#1f77b4;stroke:#1f77b4;" x="137.475467" xlink:href="#m6e038d04f1" y="232.252393"/>
     <use style="fill:#1f77b4;stroke:#1f77b4;" x="139.137338" xlink:href="#m6e038d04f1" y="230.650645"/>
     <use style="fill:#1f77b4;stroke:#1f77b4;" x="140.799209" xlink:href="#m6e038d04f1" y="231.495834"/>
     <use style="fill:#1f77b4;stroke:#1f77b4;" x="142.407471" xlink:href="#m6e038d04f1" y="211.822098"/>
     <use style="fill:#1f77b4;stroke:#1f77b4;" x="144.069342" xlink:href="#m6e038d04f1" y="178.101032"/>
     <use style="fill:#1f77b4;stroke:#1f77b4;" x="145.677604" xlink:href="#m6e038d04f1" y="160.862487"/>
     <use style="fill:#1f77b4;stroke:#1f77b4;" x="147.339475" xlink:href="#m6e038d04f1" y="125.559963"/>
     <use style="fill:#1f77b4;stroke:#1f77b4;" x="149.001346" xlink:href="#m6e038d04f1" y="165.079518"/>
     <use style="fill:#1f77b4;stroke:#1f77b4;" x="150.502391" xlink:href="#m6e038d04f1" y="178.906178"/>
     <use style="fill:#1f77b4;stroke:#1f77b4;" x="152.164262" xlink:href="#m6e038d04f1" y="195.595857"/>
     <use style="fill:#1f77b4;stroke:#1f77b4;" x="153.772524" xlink:href="#m6e038d04f1" y="212.026321"/>
     <use style="fill:#1f77b4;stroke:#1f77b4;" x="155.434395" xlink:href="#m6e038d04f1" y="232.298577"/>
     <use style="fill:#1f77b4;stroke:#1f77b4;" x="157.042658" xlink:href="#m6e038d04f1" y="235.463898"/>
     <use style="fill:#1f77b4;stroke:#1f77b4;" x="158.704529" xlink:href="#m6e038d04f1" y="228.159927"/>
     <use style="fill:#1f77b4;stroke:#1f77b4;" x="160.3664" xlink:href="#m6e038d04f1" y="220.849149"/>
     <use style="fill:#1f77b4;stroke:#1f77b4;" x="161.974662" xlink:href="#m6e038d04f1" y="204.041607"/>
     <use style="fill:#1f77b4;stroke:#1f77b4;" x="163.636533" xlink:href="#m6e038d04f1" y="181.460966"/>
     <use style="fill:#1f77b4;stroke:#1f77b4;" x="165.244795" xlink:href="#m6e038d04f1" y="158.604023"/>
     <use style="fill:#1f77b4;stroke:#1f77b4;" x="166.906666" xlink:href="#m6e038d04f1" y="130.429276"/>
     <use style="fill:#1f77b4;stroke:#1f77b4;" x="168.568537" xlink:href="#m6e038d04f1" y="149.003975"/>
     <use style="fill:#1f77b4;stroke:#1f77b4;" x="170.069582" xlink:href="#m6e038d04f1" y="169.956411"/>
     <use style="fill:#1f77b4;stroke:#1f77b4;" x="171.731453" xlink:href="#m6e038d04f1" y="174.157663"/>
     <use style="fill:#1f77b4;stroke:#1f77b4;" x="173.339715" xlink:href="#m6e038d04f1" y="192.032502"/>
     <use style="fill:#1f77b4;stroke:#1f77b4;" x="175.001586" xlink:href="#m6e038d04f1" y="209.192829"/>
     <use style="fill:#1f77b4;stroke:#1f77b4;" x="176.609849" xlink:href="#m6e038d04f1" y="202.215615"/>
     <use style="fill:#1f77b4;stroke:#1f77b4;" x="178.27172" xlink:href="#m6e038d04f1" y="200.073277"/>
     <use style="fill:#1f77b4;stroke:#1f77b4;" x="179.933591" xlink:href="#m6e038d04f1" y="203.78466"/>
     <use style="fill:#1f77b4;stroke:#1f77b4;" x="181.541853" xlink:href="#m6e038d04f1" y="189.43767"/>
     <use style="fill:#1f77b4;stroke:#1f77b4;" x="183.203724" xlink:href="#m6e038d04f1" y="153.203596"/>
     <use style="fill:#1f77b4;stroke:#1f77b4;" x="184.811986" xlink:href="#m6e038d04f1" y="139.266921"/>
     <use style="fill:#1f77b4;stroke:#1f77b4;" x="186.473857" xlink:href="#m6e038d04f1" y="95.651324"/>
     <use style="fill:#1f77b4;stroke:#1f77b4;" x="188.135728" xlink:href="#m6e038d04f1" y="126.610824"/>
     <use style="fill:#1f77b4;stroke:#1f77b4;" x="189.636773" xlink:href="#m6e038d04f1" y="62.511159"/>
     <use style="fill:#1f77b4;stroke:#1f77b4;" x="191.298644" xlink:href="#m6e038d04f1" y="154.188404"/>
     <use style="fill:#1f77b4;stroke:#1f77b4;" x="192.906907" xlink:href="#m6e038d04f1" y="178.041234"/>
     <use style="fill:#1f77b4;stroke:#1f77b4;" x="194.568778" xlink:href="#m6e038d04f1" y="191.966964"/>
     <use style="fill:#1f77b4;stroke:#1f77b4;" x="196.17704" xlink:href="#m6e038d04f1" y="205.751473"/>
     <use style="fill:#1f77b4;stroke:#1f77b4;" x="197.838911" xlink:href="#m6e038d04f1" y="198.543608"/>
     <use style="fill:#1f77b4;stroke:#1f77b4;" x="199.500782" xlink:href="#m6e038d04f1" y="202.232967"/>
     <use style="fill:#1f77b4;stroke:#1f77b4;" x="201.109044" xlink:href="#m6e038d04f1" y="181.172651"/>
     <use style="fill:#1f77b4;stroke:#1f77b4;" x="202.770915" xlink:href="#m6e038d04f1" y="163.730283"/>
     <use style="fill:#1f77b4;stroke:#1f77b4;" x="204.379177" xlink:href="#m6e038d04f1" y="124.81515"/>
     <use style="fill:#1f77b4;stroke:#1f77b4;" x="206.041048" xlink:href="#m6e038d04f1" y="90.345534"/>
     <use style="fill:#1f77b4;stroke:#1f77b4;" x="207.702919" xlink:href="#m6e038d04f1" y="94.454846"/>
     <use style="fill:#1f77b4;stroke:#1f77b4;" x="209.257573" xlink:href="#m6e038d04f1" y="138.281846"/>
     <use style="fill:#1f77b4;stroke:#1f77b4;" x="210.919444" xlink:href="#m6e038d04f1" y="158.901414"/>
     <use style="fill:#1f77b4;stroke:#1f77b4;" x="212.527706" xlink:href="#m6e038d04f1" y="187.075092"/>
     <use style="fill:#1f77b4;stroke:#1f77b4;" x="214.189577" xlink:href="#m6e038d04f1" y="206.912874"/>
     <use style="fill:#1f77b4;stroke:#1f77b4;" x="215.79784" xlink:href="#m6e038d04f1" y="203.909463"/>
     <use style="fill:#1f77b4;stroke:#1f77b4;" x="217.459711" xlink:href="#m6e038d04f1" y="195.007749"/>
     <use style="fill:#1f77b4;stroke:#1f77b4;" x="219.121582" xlink:href="#m6e038d04f1" y="198.964066"/>
     <use style="fill:#1f77b4;stroke:#1f77b4;" x="220.729844" xlink:href="#m6e038d04f1" y="172.246911"/>
     <use style="fill:#1f77b4;stroke:#1f77b4;" x="222.391715" xlink:href="#m6e038d04f1" y="135.241194"/>
     <use style="fill:#1f77b4;stroke:#1f77b4;" x="223.999977" xlink:href="#m6e038d04f1" y="102.963304"/>
     <use style="fill:#1f77b4;stroke:#1f77b4;" x="225.661848" xlink:href="#m6e038d04f1" y="73.322958"/>
     <use style="fill:#1f77b4;stroke:#1f77b4;" x="227.323719" xlink:href="#m6e038d04f1" y="92.189833"/>
     <use style="fill:#1f77b4;stroke:#1f77b4;" x="228.824764" xlink:href="#m6e038d04f1" y="138.54213"/>
     <use style="fill:#1f77b4;stroke:#1f77b4;" x="230.486635" xlink:href="#m6e038d04f1" y="154.726324"/>
     <use style="fill:#1f77b4;stroke:#1f77b4;" x="232.094897" xlink:href="#m6e038d04f1" y="174.581458"/>
     <use style="fill:#1f77b4;stroke:#1f77b4;" x="233.756768" xlink:href="#m6e038d04f1" y="201.310227"/>
     <use style="fill:#1f77b4;stroke:#1f77b4;" x="235.365031" xlink:href="#m6e038d04f1" y="195.332103"/>
     <use style="fill:#1f77b4;stroke:#1f77b4;" x="237.026902" xlink:href="#m6e038d04f1" y="186.658638"/>
     <use style="fill:#1f77b4;stroke:#1f77b4;" x="238.688773" xlink:href="#m6e038d04f1" y="185.193305"/>
     <use style="fill:#1f77b4;stroke:#1f77b4;" x="240.297035" xlink:href="#m6e038d04f1" y="170.59711"/>
     <use style="fill:#1f77b4;stroke:#1f77b4;" x="241.958906" xlink:href="#m6e038d04f1" y="133.238475"/>
     <use style="fill:#1f77b4;stroke:#1f77b4;" x="243.567168" xlink:href="#m6e038d04f1" y="113.430726"/>
     <use style="fill:#1f77b4;stroke:#1f77b4;" x="245.229039" xlink:href="#m6e038d04f1" y="83.922525"/>
     <use style="fill:#1f77b4;stroke:#1f77b4;" x="246.89091" xlink:href="#m6e038d04f1" y="94.207034"/>
     <use style="fill:#1f77b4;stroke:#1f77b4;" x="248.391955" xlink:href="#m6e038d04f1" y="127.558143"/>
     <use style="fill:#1f77b4;stroke:#1f77b4;" x="250.053826" xlink:href="#m6e038d04f1" y="151.205015"/>
     <use style="fill:#1f77b4;stroke:#1f77b4;" x="251.662088" xlink:href="#m6e038d04f1" y="179.474798"/>
     <use style="fill:#1f77b4;stroke:#1f77b4;" x="253.323959" xlink:href="#m6e038d04f1" y="200.499208"/>
     <use style="fill:#1f77b4;stroke:#1f77b4;" x="254.932222" xlink:href="#m6e038d04f1" y="198.887983"/>
     <use style="fill:#1f77b4;stroke:#1f77b4;" x="256.594093" xlink:href="#m6e038d04f1" y="190.382702"/>
     <use style="fill:#1f77b4;stroke:#1f77b4;" x="258.255964" xlink:href="#m6e038d04f1" y="179.392041"/>
     <use style="fill:#1f77b4;stroke:#1f77b4;" x="259.864226" xlink:href="#m6e038d04f1" y="165.499548"/>
     <use style="fill:#1f77b4;stroke:#1f77b4;" x="261.526097" xlink:href="#m6e038d04f1" y="135.605325"/>
     <use style="fill:#1f77b4;stroke:#1f77b4;" x="263.134359" xlink:href="#m6e038d04f1" y="94.065594"/>
     <use style="fill:#1f77b4;stroke:#1f77b4;" x="264.79623" xlink:href="#m6e038d04f1" y="45.676789"/>
     <use style="fill:#1f77b4;stroke:#1f77b4;" x="266.458101" xlink:href="#m6e038d04f1" y="95.426221"/>
     <use style="fill:#1f77b4;stroke:#1f77b4;" x="267.959146" xlink:href="#m6e038d04f1" y="127.349916"/>
     <use style="fill:#1f77b4;stroke:#1f77b4;" x="269.621017" xlink:href="#m6e038d04f1" y="149.285053"/>
     <use style="fill:#1f77b4;stroke:#1f77b4;" x="271.22928" xlink:href="#m6e038d04f1" y="171.914548"/>
     <use style="fill:#1f77b4;stroke:#1f77b4;" x="272.891151" xlink:href="#m6e038d04f1" y="191.97524"/>
     <use style="fill:#1f77b4;stroke:#1f77b4;" x="274.499413" xlink:href="#m6e038d04f1" y="185.060894"/>
     <use style="fill:#1f77b4;stroke:#1f77b4;" x="276.161284" xlink:href="#m6e038d04f1" y="178.521758"/>
     <use style="fill:#1f77b4;stroke:#1f77b4;" x="277.823155" xlink:href="#m6e038d04f1" y="176.776921"/>
     <use style="fill:#1f77b4;stroke:#1f77b4;" x="279.431417" xlink:href="#m6e038d04f1" y="151.103838"/>
     <use style="fill:#1f77b4;stroke:#1f77b4;" x="281.093288" xlink:href="#m6e038d04f1" y="142.126575"/>
     <use style="fill:#1f77b4;stroke:#1f77b4;" x="282.70155" xlink:href="#m6e038d04f1" y="115.372846"/>
     <use style="fill:#1f77b4;stroke:#1f77b4;" x="284.363421" xlink:href="#m6e038d04f1" y="84.070687"/>
     <use style="fill:#1f77b4;stroke:#1f77b4;" x="286.025292" xlink:href="#m6e038d04f1" y="93.050831"/>
     <use style="fill:#1f77b4;stroke:#1f77b4;" x="287.579946" xlink:href="#m6e038d04f1" y="118.49225"/>
     <use style="fill:#1f77b4;stroke:#1f77b4;" x="289.241817" xlink:href="#m6e038d04f1" y="147.720946"/>
     <use style="fill:#1f77b4;stroke:#1f77b4;" x="290.850079" xlink:href="#m6e038d04f1" y="169.792232"/>
     <use style="fill:#1f77b4;stroke:#1f77b4;" x="292.51195" xlink:href="#m6e038d04f1" y="188.35876"/>
     <use style="fill:#1f77b4;stroke:#1f77b4;" x="294.120213" xlink:href="#m6e038d04f1" y="186.041965"/>
     <use style="fill:#1f77b4;stroke:#1f77b4;" x="295.782084" xlink:href="#m6e038d04f1" y="169.42383"/>
     <use style="fill:#1f77b4;stroke:#1f77b4;" x="297.443955" xlink:href="#m6e038d04f1" y="168.509499"/>
     <use style="fill:#1f77b4;stroke:#1f77b4;" x="299.052217" xlink:href="#m6e038d04f1" y="144.376497"/>
     <use style="fill:#1f77b4;stroke:#1f77b4;" x="300.714088" xlink:href="#m6e038d04f1" y="112.168549"/>
     <use style="fill:#1f77b4;stroke:#1f77b4;" x="302.32235" xlink:href="#m6e038d04f1" y="92.099448"/>
     <use style="fill:#1f77b4;stroke:#1f77b4;" x="303.984221" xlink:href="#m6e038d04f1" y="46.005147"/>
     <use style="fill:#1f77b4;stroke:#1f77b4;" x="305.646092" xlink:href="#m6e038d04f1" y="66.644527"/>
     <use style="fill:#1f77b4;stroke:#1f77b4;" x="307.147137" xlink:href="#m6e038d04f1" y="102.687002"/>
     <use style="fill:#1f77b4;stroke:#1f77b4;" x="308.809008" xlink:href="#m6e038d04f1" y="134.65362"/>
     <use style="fill:#1f77b4;stroke:#1f77b4;" x="310.41727" xlink:href="#m6e038d04f1" y="157.711048"/>
     <use style="fill:#1f77b4;stroke:#1f77b4;" x="312.079141" xlink:href="#m6e038d04f1" y="178.423785"/>
     <use style="fill:#1f77b4;stroke:#1f77b4;" x="313.687404" xlink:href="#m6e038d04f1" y="173.292051"/>
     <use style="fill:#1f77b4;stroke:#1f77b4;" x="315.349275" xlink:href="#m6e038d04f1" y="168.366676"/>
     <use style="fill:#1f77b4;stroke:#1f77b4;" x="317.011146" xlink:href="#m6e038d04f1" y="165.807484"/>
     <use style="fill:#1f77b4;stroke:#1f77b4;" x="318.619408" xlink:href="#m6e038d04f1" y="141.11694"/>
     <use style="fill:#1f77b4;stroke:#1f77b4;" x="320.281279" xlink:href="#m6e038d04f1" y="106.731416"/>
     <use style="fill:#1f77b4;stroke:#1f77b4;" x="321.889541" xlink:href="#m6e038d04f1" y="83.514079"/>
     <use style="fill:#1f77b4;stroke:#1f77b4;" x="323.551412" xlink:href="#m6e038d04f1" y="31.59342"/>
     <use style="fill:#1f77b4;stroke:#1f77b4;" x="325.213283" xlink:href="#m6e038d04f1" y="38.620946"/>
     <use style="fill:#1f77b4;stroke:#1f77b4;" x="326.714328" xlink:href="#m6e038d04f1" y="100.460572"/>
     <use style="fill:#1f77b4;stroke:#1f77b4;" x="328.376199" xlink:href="#m6e038d04f1" y="132.357114"/>
     <use style="fill:#1f77b4;stroke:#1f77b4;" x="329.984461" xlink:href="#m6e038d04f1" y="158.039406"/>
     <use style="fill:#1f77b4;stroke:#1f77b4;" x="331.646332" xlink:href="#m6e038d04f1" y="176.098314"/>
     <use style="fill:#1f77b4;stroke:#1f77b4;" x="333.254595" xlink:href="#m6e038d04f1" y="155.692846"/>
     <use style="fill:#1f77b4;stroke:#1f77b4;" x="334.916466" xlink:href="#m6e038d04f1" y="159.03249"/>
     <use style="fill:#1f77b4;stroke:#1f77b4;" x="336.578337" xlink:href="#m6e038d04f1" y="150.141588"/>
     <use style="fill:#1f77b4;stroke:#1f77b4;" x="338.186599" xlink:href="#m6e038d04f1" y="133.516646"/>
     <use style="fill:#1f77b4;stroke:#1f77b4;" x="339.84847" xlink:href="#m6e038d04f1" y="109.615496"/>
     <use style="fill:#1f77b4;stroke:#1f77b4;" x="341.456732" xlink:href="#m6e038d04f1" y="88.803852"/>
     <use style="fill:#1f77b4;stroke:#1f77b4;" x="343.118603" xlink:href="#m6e038d04f1" y="21.782714"/>
     <use style="fill:#1f77b4;stroke:#1f77b4;" x="344.780474" xlink:href="#m6e038d04f1" y="63.195335"/>
     <use style="fill:#1f77b4;stroke:#1f77b4;" x="346.281519" xlink:href="#m6e038d04f1" y="109.430361"/>
     <use style="fill:#1f77b4;stroke:#1f77b4;" x="347.94339" xlink:href="#m6e038d04f1" y="116.579496"/>
     <use style="fill:#1f77b4;stroke:#1f77b4;" x="349.551653" xlink:href="#m6e038d04f1" y="142.586543"/>
     <use style="fill:#1f77b4;stroke:#1f77b4;" x="351.213524" xlink:href="#m6e038d04f1" y="164.164758"/>
     <use style="fill:#1f77b4;stroke:#1f77b4;" x="352.821786" xlink:href="#m6e038d04f1" y="159.392884"/>
     <use style="fill:#1f77b4;stroke:#1f77b4;" x="354.483657" xlink:href="#m6e038d04f1" y="140.940747"/>
     <use style="fill:#1f77b4;stroke:#1f77b4;" x="356.145528" xlink:href="#m6e038d04f1" y="141.646584"/>
     <use style="fill:#1f77b4;stroke:#1f77b4;" x="357.75379" xlink:href="#m6e038d04f1" y="130.205032"/>
     <use style="fill:#1f77b4;stroke:#1f77b4;" x="359.415661" xlink:href="#m6e038d04f1" y="94.39235"/>
     <use style="fill:#1f77b4;stroke:#1f77b4;" x="361.023923" xlink:href="#m6e038d04f1" y="75.801663"/>
     <use style="fill:#1f77b4;stroke:#1f77b4;" x="362.685794" xlink:href="#m6e038d04f1" y="58.350619"/>
     <use style="fill:#1f77b4;stroke:#1f77b4;" x="364.347666" xlink:href="#m6e038d04f1" y="86.150612"/>
     <use style="fill:#1f77b4;stroke:#1f77b4;" x="365.902319" xlink:href="#m6e038d04f1" y="110.691737"/>
     <use style="fill:#1f77b4;stroke:#1f77b4;" x="367.56419" xlink:href="#m6e038d04f1" y="116.252606"/>
     <use style="fill:#1f77b4;stroke:#1f77b4;" x="369.172452" xlink:href="#m6e038d04f1" y="154.851928"/>
     <use style="fill:#1f77b4;stroke:#1f77b4;" x="370.834323" xlink:href="#m6e038d04f1" y="172.291493"/>
     <use style="fill:#1f77b4;stroke:#1f77b4;" x="372.442586" xlink:href="#m6e038d04f1" y="166.328452"/>
     <use style="fill:#1f77b4;stroke:#1f77b4;" x="374.104457" xlink:href="#m6e038d04f1" y="138.237798"/>
     <use style="fill:#1f77b4;stroke:#1f77b4;" x="375.766328" xlink:href="#m6e038d04f1" y="143.247932"/>
     <use style="fill:#1f77b4;stroke:#1f77b4;" x="377.37459" xlink:href="#m6e038d04f1" y="114.972409"/>
     <use style="fill:#1f77b4;stroke:#1f77b4;" x="379.036461" xlink:href="#m6e038d04f1" y="96.647478"/>
     <use style="fill:#1f77b4;stroke:#1f77b4;" x="380.644723" xlink:href="#m6e038d04f1" y="54.118"/>
    </g>
   </g>
   <g id="line2d_20">
    <path clip-path="url(#p11d1606fe8)" d="M 245.229039 83.922525 
L 246.89091 94.207034 
L 248.391955 127.558143 
L 250.053826 151.205015 
L 251.662088 179.474798 
L 253.323959 200.499208 
L 254.932222 198.887983 
L 256.594093 190.382702 
L 258.255964 179.392041 
L 259.864226 165.499548 
L 261.526097 135.605325 
L 263.134359 94.065594 
L 264.79623 45.676789 
L 266.458101 95.426221 
L 267.959146 127.349916 
L 272.891151 191.97524 
L 274.499413 185.060894 
L 276.161284 178.521758 
L 277.823155 176.776921 
L 279.431417 151.103838 
L 281.093288 142.126575 
L 282.70155 115.372846 
L 284.363421 84.070687 
L 286.025292 93.050831 
L 287.579946 118.49225 
L 289.241817 147.720946 
L 290.850079 169.792232 
L 292.51195 188.35876 
L 294.120213 186.041965 
L 295.782084 169.42383 
L 297.443955 168.509499 
L 299.052217 144.376497 
L 300.714088 112.168549 
L 302.32235 92.099448 
L 303.984221 54.498415 
L 305.646092 67.083435 
L 307.147137 102.462757 
L 308.809008 135.990145 
L 312.079141 177.476217 
L 313.687404 175.005922 
L 315.349275 167.373593 
L 317.011146 165.604729 
L 318.619408 141.949848 
L 320.281279 105.465234 
L 321.889541 76.622559 
L 323.551412 40.679335 
L 325.213283 40.527312 
L 326.714328 99.988057 
L 328.376199 133.627433 
L 329.984461 155.580723 
L 331.646332 175.978316 
L 333.254595 157.739079 
L 334.916466 158.05142 
L 336.578337 151.523629 
L 339.84847 108.866546 
L 341.456732 81.255615 
L 343.118603 31.537359 
L 344.780474 63.310603 
L 346.281519 110.043029 
L 347.94339 120.287008 
L 349.551653 138.325894 
L 351.213524 163.767524 
L 352.821786 160.205771 
L 354.483657 140.904708 
L 356.145528 141.27004 
L 357.75379 129.764551 
L 359.415661 93.250304 
L 361.023923 67.500604 
L 362.685794 66.751787 
L 364.347666 88.654724 
L 365.902319 110.855917 
L 367.56419 118.164292 
L 369.172452 152.881778 
L 370.834323 171.360477 
L 372.442586 166.648802 
L 374.104457 140.219961 
L 375.766328 142.267261 
L 377.37459 114.199565 
L 379.036461 96.738511 
L 380.644723 43.990949 
L 382.306594 33.271251 
L 383.968465 61.75891 
L 385.46951 93.168615 
L 387.131381 98.811573 
L 388.739643 112.549765 
L 388.739643 112.549765 
" style="fill:none;stroke:#ff7f0e;stroke-linecap:square;stroke-width:1.5;"/>
    <defs>
     <path d="M -3 3 
L 3 3 
L 3 -3 
L -3 -3 
z
" id="me4fa104d5e" style="stroke:#ff7f0e;stroke-linejoin:miter;"/>
    </defs>
    <g clip-path="url(#p11d1606fe8)">
     <use style="fill:#ff7f0e;stroke:#ff7f0e;stroke-linejoin:miter;" x="245.229039" xlink:href="#me4fa104d5e" y="83.922525"/>
     <use style="fill:#ff7f0e;stroke:#ff7f0e;stroke-linejoin:miter;" x="246.89091" xlink:href="#me4fa104d5e" y="94.207034"/>
     <use style="fill:#ff7f0e;stroke:#ff7f0e;stroke-linejoin:miter;" x="248.391955" xlink:href="#me4fa104d5e" y="127.558143"/>
     <use style="fill:#ff7f0e;stroke:#ff7f0e;stroke-linejoin:miter;" x="250.053826" xlink:href="#me4fa104d5e" y="151.205015"/>
     <use style="fill:#ff7f0e;stroke:#ff7f0e;stroke-linejoin:miter;" x="251.662088" xlink:href="#me4fa104d5e" y="179.474798"/>
     <use style="fill:#ff7f0e;stroke:#ff7f0e;stroke-linejoin:miter;" x="253.323959" xlink:href="#me4fa104d5e" y="200.499208"/>
     <use style="fill:#ff7f0e;stroke:#ff7f0e;stroke-linejoin:miter;" x="254.932222" xlink:href="#me4fa104d5e" y="198.887983"/>
     <use style="fill:#ff7f0e;stroke:#ff7f0e;stroke-linejoin:miter;" x="256.594093" xlink:href="#me4fa104d5e" y="190.382702"/>
     <use style="fill:#ff7f0e;stroke:#ff7f0e;stroke-linejoin:miter;" x="258.255964" xlink:href="#me4fa104d5e" y="179.392041"/>
     <use style="fill:#ff7f0e;stroke:#ff7f0e;stroke-linejoin:miter;" x="259.864226" xlink:href="#me4fa104d5e" y="165.499548"/>
     <use style="fill:#ff7f0e;stroke:#ff7f0e;stroke-linejoin:miter;" x="261.526097" xlink:href="#me4fa104d5e" y="135.605325"/>
     <use style="fill:#ff7f0e;stroke:#ff7f0e;stroke-linejoin:miter;" x="263.134359" xlink:href="#me4fa104d5e" y="94.065594"/>
     <use style="fill:#ff7f0e;stroke:#ff7f0e;stroke-linejoin:miter;" x="264.79623" xlink:href="#me4fa104d5e" y="45.676789"/>
     <use style="fill:#ff7f0e;stroke:#ff7f0e;stroke-linejoin:miter;" x="266.458101" xlink:href="#me4fa104d5e" y="95.426221"/>
     <use style="fill:#ff7f0e;stroke:#ff7f0e;stroke-linejoin:miter;" x="267.959146" xlink:href="#me4fa104d5e" y="127.349916"/>
     <use style="fill:#ff7f0e;stroke:#ff7f0e;stroke-linejoin:miter;" x="269.621017" xlink:href="#me4fa104d5e" y="149.285053"/>
     <use style="fill:#ff7f0e;stroke:#ff7f0e;stroke-linejoin:miter;" x="271.22928" xlink:href="#me4fa104d5e" y="171.914548"/>
     <use style="fill:#ff7f0e;stroke:#ff7f0e;stroke-linejoin:miter;" x="272.891151" xlink:href="#me4fa104d5e" y="191.97524"/>
     <use style="fill:#ff7f0e;stroke:#ff7f0e;stroke-linejoin:miter;" x="274.499413" xlink:href="#me4fa104d5e" y="185.060894"/>
     <use style="fill:#ff7f0e;stroke:#ff7f0e;stroke-linejoin:miter;" x="276.161284" xlink:href="#me4fa104d5e" y="178.521758"/>
     <use style="fill:#ff7f0e;stroke:#ff7f0e;stroke-linejoin:miter;" x="277.823155" xlink:href="#me4fa104d5e" y="176.776921"/>
     <use style="fill:#ff7f0e;stroke:#ff7f0e;stroke-linejoin:miter;" x="279.431417" xlink:href="#me4fa104d5e" y="151.103838"/>
     <use style="fill:#ff7f0e;stroke:#ff7f0e;stroke-linejoin:miter;" x="281.093288" xlink:href="#me4fa104d5e" y="142.126575"/>
     <use style="fill:#ff7f0e;stroke:#ff7f0e;stroke-linejoin:miter;" x="282.70155" xlink:href="#me4fa104d5e" y="115.372846"/>
     <use style="fill:#ff7f0e;stroke:#ff7f0e;stroke-linejoin:miter;" x="284.363421" xlink:href="#me4fa104d5e" y="84.070687"/>
     <use style="fill:#ff7f0e;stroke:#ff7f0e;stroke-linejoin:miter;" x="286.025292" xlink:href="#me4fa104d5e" y="93.050831"/>
     <use style="fill:#ff7f0e;stroke:#ff7f0e;stroke-linejoin:miter;" x="287.579946" xlink:href="#me4fa104d5e" y="118.49225"/>
     <use style="fill:#ff7f0e;stroke:#ff7f0e;stroke-linejoin:miter;" x="289.241817" xlink:href="#me4fa104d5e" y="147.720946"/>
     <use style="fill:#ff7f0e;stroke:#ff7f0e;stroke-linejoin:miter;" x="290.850079" xlink:href="#me4fa104d5e" y="169.792232"/>
     <use style="fill:#ff7f0e;stroke:#ff7f0e;stroke-linejoin:miter;" x="292.51195" xlink:href="#me4fa104d5e" y="188.35876"/>
     <use style="fill:#ff7f0e;stroke:#ff7f0e;stroke-linejoin:miter;" x="294.120213" xlink:href="#me4fa104d5e" y="186.041965"/>
     <use style="fill:#ff7f0e;stroke:#ff7f0e;stroke-linejoin:miter;" x="295.782084" xlink:href="#me4fa104d5e" y="169.42383"/>
     <use style="fill:#ff7f0e;stroke:#ff7f0e;stroke-linejoin:miter;" x="297.443955" xlink:href="#me4fa104d5e" y="168.509499"/>
     <use style="fill:#ff7f0e;stroke:#ff7f0e;stroke-linejoin:miter;" x="299.052217" xlink:href="#me4fa104d5e" y="144.376497"/>
     <use style="fill:#ff7f0e;stroke:#ff7f0e;stroke-linejoin:miter;" x="300.714088" xlink:href="#me4fa104d5e" y="112.168549"/>
     <use style="fill:#ff7f0e;stroke:#ff7f0e;stroke-linejoin:miter;" x="302.32235" xlink:href="#me4fa104d5e" y="92.099448"/>
     <use style="fill:#ff7f0e;stroke:#ff7f0e;stroke-linejoin:miter;" x="303.984221" xlink:href="#me4fa104d5e" y="54.498415"/>
     <use style="fill:#ff7f0e;stroke:#ff7f0e;stroke-linejoin:miter;" x="305.646092" xlink:href="#me4fa104d5e" y="67.083435"/>
     <use style="fill:#ff7f0e;stroke:#ff7f0e;stroke-linejoin:miter;" x="307.147137" xlink:href="#me4fa104d5e" y="102.462757"/>
     <use style="fill:#ff7f0e;stroke:#ff7f0e;stroke-linejoin:miter;" x="308.809008" xlink:href="#me4fa104d5e" y="135.990145"/>
     <use style="fill:#ff7f0e;stroke:#ff7f0e;stroke-linejoin:miter;" x="310.41727" xlink:href="#me4fa104d5e" y="155.965143"/>
     <use style="fill:#ff7f0e;stroke:#ff7f0e;stroke-linejoin:miter;" x="312.079141" xlink:href="#me4fa104d5e" y="177.476217"/>
     <use style="fill:#ff7f0e;stroke:#ff7f0e;stroke-linejoin:miter;" x="313.687404" xlink:href="#me4fa104d5e" y="175.005922"/>
     <use style="fill:#ff7f0e;stroke:#ff7f0e;stroke-linejoin:miter;" x="315.349275" xlink:href="#me4fa104d5e" y="167.373593"/>
     <use style="fill:#ff7f0e;stroke:#ff7f0e;stroke-linejoin:miter;" x="317.011146" xlink:href="#me4fa104d5e" y="165.604729"/>
     <use style="fill:#ff7f0e;stroke:#ff7f0e;stroke-linejoin:miter;" x="318.619408" xlink:href="#me4fa104d5e" y="141.949848"/>
     <use style="fill:#ff7f0e;stroke:#ff7f0e;stroke-linejoin:miter;" x="320.281279" xlink:href="#me4fa104d5e" y="105.465234"/>
     <use style="fill:#ff7f0e;stroke:#ff7f0e;stroke-linejoin:miter;" x="321.889541" xlink:href="#me4fa104d5e" y="76.622559"/>
     <use style="fill:#ff7f0e;stroke:#ff7f0e;stroke-linejoin:miter;" x="323.551412" xlink:href="#me4fa104d5e" y="40.679335"/>
     <use style="fill:#ff7f0e;stroke:#ff7f0e;stroke-linejoin:miter;" x="325.213283" xlink:href="#me4fa104d5e" y="40.527312"/>
     <use style="fill:#ff7f0e;stroke:#ff7f0e;stroke-linejoin:miter;" x="326.714328" xlink:href="#me4fa104d5e" y="99.988057"/>
     <use style="fill:#ff7f0e;stroke:#ff7f0e;stroke-linejoin:miter;" x="328.376199" xlink:href="#me4fa104d5e" y="133.627433"/>
     <use style="fill:#ff7f0e;stroke:#ff7f0e;stroke-linejoin:miter;" x="329.984461" xlink:href="#me4fa104d5e" y="155.580723"/>
     <use style="fill:#ff7f0e;stroke:#ff7f0e;stroke-linejoin:miter;" x="331.646332" xlink:href="#me4fa104d5e" y="175.978316"/>
     <use style="fill:#ff7f0e;stroke:#ff7f0e;stroke-linejoin:miter;" x="333.254595" xlink:href="#me4fa104d5e" y="157.739079"/>
     <use style="fill:#ff7f0e;stroke:#ff7f0e;stroke-linejoin:miter;" x="334.916466" xlink:href="#me4fa104d5e" y="158.05142"/>
     <use style="fill:#ff7f0e;stroke:#ff7f0e;stroke-linejoin:miter;" x="336.578337" xlink:href="#me4fa104d5e" y="151.523629"/>
     <use style="fill:#ff7f0e;stroke:#ff7f0e;stroke-linejoin:miter;" x="338.186599" xlink:href="#me4fa104d5e" y="130.349189"/>
     <use style="fill:#ff7f0e;stroke:#ff7f0e;stroke-linejoin:miter;" x="339.84847" xlink:href="#me4fa104d5e" y="108.866546"/>
     <use style="fill:#ff7f0e;stroke:#ff7f0e;stroke-linejoin:miter;" x="341.456732" xlink:href="#me4fa104d5e" y="81.255615"/>
     <use style="fill:#ff7f0e;stroke:#ff7f0e;stroke-linejoin:miter;" x="343.118603" xlink:href="#me4fa104d5e" y="31.537359"/>
     <use style="fill:#ff7f0e;stroke:#ff7f0e;stroke-linejoin:miter;" x="344.780474" xlink:href="#me4fa104d5e" y="63.310603"/>
     <use style="fill:#ff7f0e;stroke:#ff7f0e;stroke-linejoin:miter;" x="346.281519" xlink:href="#me4fa104d5e" y="110.043029"/>
     <use style="fill:#ff7f0e;stroke:#ff7f0e;stroke-linejoin:miter;" x="347.94339" xlink:href="#me4fa104d5e" y="120.287008"/>
     <use style="fill:#ff7f0e;stroke:#ff7f0e;stroke-linejoin:miter;" x="349.551653" xlink:href="#me4fa104d5e" y="138.325894"/>
     <use style="fill:#ff7f0e;stroke:#ff7f0e;stroke-linejoin:miter;" x="351.213524" xlink:href="#me4fa104d5e" y="163.767524"/>
     <use style="fill:#ff7f0e;stroke:#ff7f0e;stroke-linejoin:miter;" x="352.821786" xlink:href="#me4fa104d5e" y="160.205771"/>
     <use style="fill:#ff7f0e;stroke:#ff7f0e;stroke-linejoin:miter;" x="354.483657" xlink:href="#me4fa104d5e" y="140.904708"/>
     <use style="fill:#ff7f0e;stroke:#ff7f0e;stroke-linejoin:miter;" x="356.145528" xlink:href="#me4fa104d5e" y="141.27004"/>
     <use style="fill:#ff7f0e;stroke:#ff7f0e;stroke-linejoin:miter;" x="357.75379" xlink:href="#me4fa104d5e" y="129.764551"/>
     <use style="fill:#ff7f0e;stroke:#ff7f0e;stroke-linejoin:miter;" x="359.415661" xlink:href="#me4fa104d5e" y="93.250304"/>
     <use style="fill:#ff7f0e;stroke:#ff7f0e;stroke-linejoin:miter;" x="361.023923" xlink:href="#me4fa104d5e" y="67.500604"/>
     <use style="fill:#ff7f0e;stroke:#ff7f0e;stroke-linejoin:miter;" x="362.685794" xlink:href="#me4fa104d5e" y="66.751787"/>
     <use style="fill:#ff7f0e;stroke:#ff7f0e;stroke-linejoin:miter;" x="364.347666" xlink:href="#me4fa104d5e" y="88.654724"/>
     <use style="fill:#ff7f0e;stroke:#ff7f0e;stroke-linejoin:miter;" x="365.902319" xlink:href="#me4fa104d5e" y="110.855917"/>
     <use style="fill:#ff7f0e;stroke:#ff7f0e;stroke-linejoin:miter;" x="367.56419" xlink:href="#me4fa104d5e" y="118.164292"/>
     <use style="fill:#ff7f0e;stroke:#ff7f0e;stroke-linejoin:miter;" x="369.172452" xlink:href="#me4fa104d5e" y="152.881778"/>
     <use style="fill:#ff7f0e;stroke:#ff7f0e;stroke-linejoin:miter;" x="370.834323" xlink:href="#me4fa104d5e" y="171.360477"/>
     <use style="fill:#ff7f0e;stroke:#ff7f0e;stroke-linejoin:miter;" x="372.442586" xlink:href="#me4fa104d5e" y="166.648802"/>
     <use style="fill:#ff7f0e;stroke:#ff7f0e;stroke-linejoin:miter;" x="374.104457" xlink:href="#me4fa104d5e" y="140.219961"/>
     <use style="fill:#ff7f0e;stroke:#ff7f0e;stroke-linejoin:miter;" x="375.766328" xlink:href="#me4fa104d5e" y="142.267261"/>
     <use style="fill:#ff7f0e;stroke:#ff7f0e;stroke-linejoin:miter;" x="377.37459" xlink:href="#me4fa104d5e" y="114.199565"/>
     <use style="fill:#ff7f0e;stroke:#ff7f0e;stroke-linejoin:miter;" x="379.036461" xlink:href="#me4fa104d5e" y="96.738511"/>
     <use style="fill:#ff7f0e;stroke:#ff7f0e;stroke-linejoin:miter;" x="380.644723" xlink:href="#me4fa104d5e" y="43.990949"/>
     <use style="fill:#ff7f0e;stroke:#ff7f0e;stroke-linejoin:miter;" x="382.306594" xlink:href="#me4fa104d5e" y="33.271251"/>
     <use style="fill:#ff7f0e;stroke:#ff7f0e;stroke-linejoin:miter;" x="383.968465" xlink:href="#me4fa104d5e" y="61.75891"/>
     <use style="fill:#ff7f0e;stroke:#ff7f0e;stroke-linejoin:miter;" x="385.46951" xlink:href="#me4fa104d5e" y="93.168615"/>
     <use style="fill:#ff7f0e;stroke:#ff7f0e;stroke-linejoin:miter;" x="387.131381" xlink:href="#me4fa104d5e" y="98.811573"/>
     <use style="fill:#ff7f0e;stroke:#ff7f0e;stroke-linejoin:miter;" x="388.739643" xlink:href="#me4fa104d5e" y="112.549765"/>
    </g>
   </g>
   <g id="line2d_21">
    <path clip-path="url(#p11d1606fe8)" d="M 357.75379 125.652063 
L 359.415661 88.971768 
L 361.023923 73.787465 
L 362.685794 52.219929 
L 364.347666 82.422267 
L 365.902319 106.122751 
L 367.56419 114.212646 
L 369.172452 149.293863 
L 370.834323 167.752273 
L 372.442586 163.433293 
L 374.104457 136.435831 
L 375.766328 138.601127 
L 377.37459 110.619659 
L 379.036461 93.138582 
L 380.644723 49.965469 
L 382.306594 19.296 
L 385.46951 88.431445 
L 387.131381 94.322007 
L 388.739643 108.233054 
L 390.401514 133.362611 
L 392.009777 133.909074 
L 393.671648 111.556681 
L 393.671648 111.556681 
" style="fill:none;stroke:#2ca02c;stroke-linecap:square;stroke-width:1.5;"/>
    <defs>
     <path d="M 0 -3 
L -0.673542 -0.927051 
L -2.85317 -0.927051 
L -1.089814 0.354102 
L -1.763356 2.427051 
L -0 1.145898 
L 1.763356 2.427051 
L 1.089814 0.354102 
L 2.85317 -0.927051 
L 0.673542 -0.927051 
z
" id="m67484bf3b0" style="stroke:#2ca02c;stroke-linejoin:bevel;"/>
    </defs>
    <g clip-path="url(#p11d1606fe8)">
     <use style="fill:#2ca02c;stroke:#2ca02c;stroke-linejoin:bevel;" x="357.75379" xlink:href="#m67484bf3b0" y="125.652063"/>
     <use style="fill:#2ca02c;stroke:#2ca02c;stroke-linejoin:bevel;" x="359.415661" xlink:href="#m67484bf3b0" y="88.971768"/>
     <use style="fill:#2ca02c;stroke:#2ca02c;stroke-linejoin:bevel;" x="361.023923" xlink:href="#m67484bf3b0" y="73.787465"/>
     <use style="fill:#2ca02c;stroke:#2ca02c;stroke-linejoin:bevel;" x="362.685794" xlink:href="#m67484bf3b0" y="52.219929"/>
     <use style="fill:#2ca02c;stroke:#2ca02c;stroke-linejoin:bevel;" x="364.347666" xlink:href="#m67484bf3b0" y="82.422267"/>
     <use style="fill:#2ca02c;stroke:#2ca02c;stroke-linejoin:bevel;" x="365.902319" xlink:href="#m67484bf3b0" y="106.122751"/>
     <use style="fill:#2ca02c;stroke:#2ca02c;stroke-linejoin:bevel;" x="367.56419" xlink:href="#m67484bf3b0" y="114.212646"/>
     <use style="fill:#2ca02c;stroke:#2ca02c;stroke-linejoin:bevel;" x="369.172452" xlink:href="#m67484bf3b0" y="149.293863"/>
     <use style="fill:#2ca02c;stroke:#2ca02c;stroke-linejoin:bevel;" x="370.834323" xlink:href="#m67484bf3b0" y="167.752273"/>
     <use style="fill:#2ca02c;stroke:#2ca02c;stroke-linejoin:bevel;" x="372.442586" xlink:href="#m67484bf3b0" y="163.433293"/>
     <use style="fill:#2ca02c;stroke:#2ca02c;stroke-linejoin:bevel;" x="374.104457" xlink:href="#m67484bf3b0" y="136.435831"/>
     <use style="fill:#2ca02c;stroke:#2ca02c;stroke-linejoin:bevel;" x="375.766328" xlink:href="#m67484bf3b0" y="138.601127"/>
     <use style="fill:#2ca02c;stroke:#2ca02c;stroke-linejoin:bevel;" x="377.37459" xlink:href="#m67484bf3b0" y="110.619659"/>
     <use style="fill:#2ca02c;stroke:#2ca02c;stroke-linejoin:bevel;" x="379.036461" xlink:href="#m67484bf3b0" y="93.138582"/>
     <use style="fill:#2ca02c;stroke:#2ca02c;stroke-linejoin:bevel;" x="380.644723" xlink:href="#m67484bf3b0" y="49.965469"/>
     <use style="fill:#2ca02c;stroke:#2ca02c;stroke-linejoin:bevel;" x="382.306594" xlink:href="#m67484bf3b0" y="19.296"/>
     <use style="fill:#2ca02c;stroke:#2ca02c;stroke-linejoin:bevel;" x="383.968465" xlink:href="#m67484bf3b0" y="55.782674"/>
     <use style="fill:#2ca02c;stroke:#2ca02c;stroke-linejoin:bevel;" x="385.46951" xlink:href="#m67484bf3b0" y="88.431445"/>
     <use style="fill:#2ca02c;stroke:#2ca02c;stroke-linejoin:bevel;" x="387.131381" xlink:href="#m67484bf3b0" y="94.322007"/>
     <use style="fill:#2ca02c;stroke:#2ca02c;stroke-linejoin:bevel;" x="388.739643" xlink:href="#m67484bf3b0" y="108.233054"/>
     <use style="fill:#2ca02c;stroke:#2ca02c;stroke-linejoin:bevel;" x="390.401514" xlink:href="#m67484bf3b0" y="133.362611"/>
     <use style="fill:#2ca02c;stroke:#2ca02c;stroke-linejoin:bevel;" x="392.009777" xlink:href="#m67484bf3b0" y="133.909074"/>
     <use style="fill:#2ca02c;stroke:#2ca02c;stroke-linejoin:bevel;" x="393.671648" xlink:href="#m67484bf3b0" y="111.556681"/>
    </g>
   </g>
   <g id="patch_3">
    <path d="M 52.784375 273.312 
L 52.784375 7.2 
" style="fill:none;stroke:#000000;stroke-linecap:square;stroke-linejoin:miter;stroke-width:0.8;"/>
   </g>
   <g id="patch_4">
    <path d="M 409.904375 273.312 
L 409.904375 7.2 
" style="fill:none;stroke:#000000;stroke-linecap:square;stroke-linejoin:miter;stroke-width:0.8;"/>
   </g>
   <g id="patch_5">
    <path d="M 52.784375 273.312 
L 409.904375 273.312 
" style="fill:none;stroke:#000000;stroke-linecap:square;stroke-linejoin:miter;stroke-width:0.8;"/>
   </g>
   <g id="patch_6">
    <path d="M 52.784375 7.2 
L 409.904375 7.2 
" style="fill:none;stroke:#000000;stroke-linecap:square;stroke-linejoin:miter;stroke-width:0.8;"/>
   </g>
   <g id="legend_1">
    <g id="patch_7">
     <path d="M 59.784375 58.371875 
L 121.784375 58.371875 
Q 123.784375 58.371875 123.784375 56.371875 
L 123.784375 14.2 
Q 123.784375 12.2 121.784375 12.2 
L 59.784375 12.2 
Q 57.784375 12.2 57.784375 14.2 
L 57.784375 56.371875 
Q 57.784375 58.371875 59.784375 58.371875 
z
" style="fill:#ffffff;opacity:0.8;stroke:#cccccc;stroke-linejoin:miter;"/>
    </g>
    <g id="line2d_22">
     <path d="M 61.784375 20.190625 
L 81.784375 20.190625 
" style="fill:none;stroke:#1f77b4;stroke-linecap:square;stroke-width:1.5;"/>
    </g>
    <g id="line2d_23">
     <g>
      <use style="fill:#1f77b4;stroke:#1f77b4;" x="71.784375" xlink:href="#m6e038d04f1" y="20.190625"/>
     </g>
    </g>
    <g id="text_20">
     <!-- 確定数 -->
     <g transform="translate(89.784375 23.690625)scale(0.1 -0.1)">
      <defs>
       <path d="M 4347 3219 
Q 4516 3538 4647 3956 
L 5075 3853 
Q 4875 3431 4750 3219 
L 5888 3219 
L 5888 2847 
L 4700 2847 
L 4700 2222 
L 5741 2222 
L 5741 1869 
L 4700 1869 
L 4700 1250 
L 5741 1250 
L 5741 897 
L 4700 897 
L 4700 231 
L 6034 231 
L 6034 -141 
L 3463 -141 
L 3463 -447 
L 3047 -447 
L 3047 2444 
Q 2756 2019 2484 1703 
L 2284 2100 
Q 3159 3197 3506 4147 
L 2913 4147 
L 2913 3425 
L 2509 3425 
L 2509 4519 
L 3634 4519 
Q 3750 4903 3847 5319 
L 4269 5241 
Q 4175 4834 4072 4519 
L 5934 4519 
L 5934 3425 
L 5525 3425 
L 5525 4147 
L 3938 4147 
Q 3747 3647 3513 3219 
L 4347 3219 
z
M 4297 2847 
L 3463 2847 
L 3463 2222 
L 4297 2222 
L 4297 2847 
z
M 4297 1869 
L 3463 1869 
L 3463 1250 
L 4297 1250 
L 4297 1869 
z
M 4297 897 
L 3463 897 
L 3463 231 
L 4297 231 
L 4297 897 
z
M 1159 2944 
L 2275 2944 
L 2275 197 
L 1213 197 
L 1213 -328 
L 816 -328 
L 816 2206 
Q 650 1903 394 1522 
L 188 1919 
Q 931 3013 1200 4416 
L 406 4416 
L 406 4819 
L 2409 4819 
L 2409 4416 
L 1616 4416 
L 1597 4353 
Q 1456 3663 1159 2944 
z
M 1213 2553 
L 1213 588 
L 1878 588 
L 1878 2553 
L 1213 2553 
z
" id="IPAexGothic-78ba" transform="scale(0.015625)"/>
       <path d="M 3431 303 
Q 3931 225 4709 225 
Q 5191 225 6053 263 
Q 5963 59 5888 -228 
Q 5234 -250 4844 -250 
Q 3569 -250 3003 -78 
Q 2259 153 1750 903 
Q 1441 163 806 -459 
L 475 -75 
Q 1416 759 1684 2419 
L 2125 2303 
Q 2031 1756 1909 1356 
Q 2338 678 2972 416 
L 2972 2944 
L 1434 2944 
L 1434 3353 
L 4959 3353 
L 4959 2944 
L 3431 2944 
L 3431 1984 
L 5397 1984 
L 5397 1569 
L 3431 1569 
L 3431 303 
z
M 3419 4428 
L 5750 4428 
L 5750 3166 
L 5275 3166 
L 5275 4025 
L 1122 4025 
L 1122 3166 
L 647 3166 
L 647 4428 
L 2938 4428 
L 2938 5313 
L 3419 5313 
L 3419 4428 
z
" id="IPAexGothic-5b9a" transform="scale(0.015625)"/>
      </defs>
      <use xlink:href="#IPAexGothic-78ba"/>
      <use x="100" xlink:href="#IPAexGothic-5b9a"/>
      <use x="200" xlink:href="#IPAexGothic-6570"/>
     </g>
    </g>
    <g id="line2d_24">
     <path d="M 61.784375 34.58125 
L 81.784375 34.58125 
" style="fill:none;stroke:#ff7f0e;stroke-linecap:square;stroke-width:1.5;"/>
    </g>
    <g id="line2d_25">
     <g>
      <use style="fill:#ff7f0e;stroke:#ff7f0e;stroke-linejoin:miter;" x="71.784375" xlink:href="#me4fa104d5e" y="34.58125"/>
     </g>
    </g>
    <g id="text_21">
     <!-- 概数 -->
     <g transform="translate(89.784375 38.08125)scale(0.1 -0.1)">
      <defs>
       <path d="M 1119 2613 
Q 806 1556 381 850 
L 153 1300 
Q 753 2272 1063 3603 
L 294 3603 
L 294 4013 
L 1119 4013 
L 1119 5306 
L 1522 5306 
L 1522 4013 
L 2078 4013 
L 2078 3603 
L 1522 3603 
L 1522 2956 
Q 1900 2569 2231 2181 
L 1997 1772 
Q 1769 2153 1522 2478 
L 1522 -447 
L 1119 -447 
L 1119 2613 
z
M 5391 4563 
Q 5372 3697 5275 2881 
L 6081 2881 
L 6081 2491 
L 5209 2491 
Q 5209 2484 5103 2066 
L 5294 2066 
L 5294 191 
Q 5294 50 5441 50 
Q 5584 50 5613 197 
Q 5663 397 5672 972 
L 6063 825 
Q 6053 22 5922 -194 
Q 5794 -378 5447 -378 
Q 5069 -378 4975 -281 
Q 4897 -206 4897 19 
L 4897 1497 
Q 4434 369 3253 -506 
L 2963 -172 
Q 4488 872 4813 2491 
L 3706 2491 
L 3706 2206 
L 2631 2206 
L 2631 800 
Q 3088 1053 3425 1259 
Q 3259 1597 3097 1834 
L 3419 2009 
Q 3778 1469 4019 922 
L 3681 653 
Q 3644 747 3566 947 
Q 2859 444 2028 -6 
L 1806 409 
Q 2169 566 2247 606 
L 2247 5050 
L 3706 5050 
L 3706 2881 
L 4159 2881 
L 4159 4563 
L 3878 4563 
L 3878 4953 
L 5881 4953 
L 5881 4563 
L 5391 4563 
z
M 5006 4563 
L 4531 4563 
L 4531 2881 
L 4884 2881 
Q 4984 3706 5006 4563 
z
M 3328 4666 
L 2631 4666 
L 2631 3834 
L 3328 3834 
L 3328 4666 
z
M 3328 3463 
L 2631 3463 
L 2631 2591 
L 3328 2591 
L 3328 3463 
z
" id="IPAexGothic-6982" transform="scale(0.015625)"/>
      </defs>
      <use xlink:href="#IPAexGothic-6982"/>
      <use x="100" xlink:href="#IPAexGothic-6570"/>
     </g>
    </g>
    <g id="line2d_26">
     <path d="M 61.784375 48.971875 
L 81.784375 48.971875 
" style="fill:none;stroke:#2ca02c;stroke-linecap:square;stroke-width:1.5;"/>
    </g>
    <g id="line2d_27">
     <g>
      <use style="fill:#2ca02c;stroke:#2ca02c;stroke-linejoin:bevel;" x="71.784375" xlink:href="#m67484bf3b0" y="48.971875"/>
     </g>
    </g>
    <g id="text_22">
     <!-- 速報値 -->
     <g transform="translate(89.784375 52.471875)scale(0.1 -0.1)">
      <defs>
       <path d="M 3766 1809 
Q 3256 1066 2481 569 
L 2175 913 
Q 3125 1413 3644 2206 
L 2406 2206 
L 2406 3641 
L 3766 3641 
L 3766 4172 
L 2047 4172 
L 2047 4569 
L 3766 4569 
L 3766 5313 
L 4194 5313 
L 4194 4569 
L 5913 4569 
L 5913 4172 
L 4194 4172 
L 4194 3641 
L 5553 3641 
L 5553 2206 
L 4194 2206 
L 4194 2034 
L 4250 2009 
Q 4988 1653 5803 1125 
L 5497 753 
Q 4834 1244 4194 1638 
L 4194 350 
L 3766 350 
L 3766 1809 
z
M 3766 3269 
L 2822 3269 
L 2822 2578 
L 3766 2578 
L 3766 3269 
z
M 4194 3269 
L 4194 2578 
L 5138 2578 
L 5138 3269 
L 4194 3269 
z
M 1831 781 
Q 2084 456 2450 319 
Q 2903 147 4134 147 
Q 5069 147 6119 222 
Q 6000 9 5944 -263 
Q 5025 -294 4428 -294 
Q 2800 -294 2272 -63 
Q 1869 119 1600 491 
Q 1131 -53 666 -444 
L 372 44 
Q 881 344 1378 775 
L 1378 2303 
L 397 2303 
L 397 2731 
L 1831 2731 
L 1831 781 
z
M 1619 3622 
Q 1206 4169 619 4697 
L 959 4991 
Q 1488 4581 1972 3975 
L 1619 3622 
z
" id="IPAexGothic-901f" transform="scale(0.015625)"/>
       <path d="M 2741 3084 
Q 2600 2594 2428 2203 
L 3175 2203 
L 3175 1819 
L 2013 1819 
L 2013 1134 
L 3100 1134 
L 3100 750 
L 2013 750 
L 2013 -447 
L 1572 -447 
L 1572 750 
L 522 750 
L 522 1134 
L 1572 1134 
L 1572 1819 
L 438 1819 
L 438 2203 
L 1128 2203 
Q 994 2800 884 3084 
L 297 3084 
L 297 3469 
L 1572 3469 
L 1572 4134 
L 578 4134 
L 578 4519 
L 1572 4519 
L 1572 5313 
L 2013 5313 
L 2013 4519 
L 3028 4519 
L 3028 4134 
L 2013 4134 
L 2013 3469 
L 3169 3469 
L 3169 3084 
L 2741 3084 
z
M 2300 3084 
L 1309 3084 
Q 1469 2606 1544 2203 
L 2013 2203 
Q 2194 2606 2300 3084 
z
M 5684 4991 
L 5684 3591 
Q 5684 3316 5575 3219 
Q 5466 3128 5159 3128 
Q 4834 3128 4441 3166 
L 4391 3597 
Q 4763 3538 5019 3538 
Q 5256 3538 5256 3769 
L 5256 4594 
L 3800 4594 
L 3800 2741 
L 5594 2741 
L 5831 2550 
Q 5659 1603 5203 806 
Q 5544 331 6131 -6 
L 5856 -416 
Q 5319 -22 4959 425 
Q 4588 -94 4116 -497 
L 3828 -147 
Q 4319 231 4697 775 
Q 4169 1516 3969 2350 
L 3800 2350 
L 3800 -447 
L 3375 -447 
L 3375 4991 
L 5684 4991 
z
M 4353 2350 
Q 4503 1794 4922 1153 
Q 5228 1716 5350 2350 
L 4353 2350 
z
" id="IPAexGothic-5831" transform="scale(0.015625)"/>
       <path d="M 4172 3675 
L 5453 3675 
L 5453 684 
L 3019 684 
L 3019 3675 
L 3750 3675 
Q 3788 3884 3825 4153 
L 2141 4153 
L 2141 4544 
L 3884 4544 
Q 3922 4844 3966 5325 
L 4434 5272 
L 4388 4953 
Q 4331 4578 4331 4544 
L 5863 4544 
L 5863 4153 
L 4269 4153 
Q 4200 3781 4172 3675 
z
M 5038 3316 
L 3434 3316 
L 3434 2803 
L 5038 2803 
L 5038 3316 
z
M 3434 2450 
L 3434 1941 
L 5038 1941 
L 5038 2450 
L 3434 2450 
z
M 3434 1588 
L 3434 1044 
L 5038 1044 
L 5038 1588 
L 3434 1588 
z
M 1509 3669 
L 1509 -447 
L 1069 -447 
L 1069 2725 
Q 856 2338 531 1875 
L 288 2266 
Q 1163 3531 1541 5325 
L 1975 5222 
Q 1791 4378 1509 3669 
z
M 2488 244 
L 6031 244 
L 6031 -153 
L 2488 -153 
L 2488 -447 
L 2059 -447 
L 2059 3213 
L 2488 3213 
L 2488 244 
z
" id="IPAexGothic-5024" transform="scale(0.015625)"/>
      </defs>
      <use xlink:href="#IPAexGothic-901f"/>
      <use x="100" xlink:href="#IPAexGothic-5831"/>
      <use x="200" xlink:href="#IPAexGothic-5024"/>
     </g>
    </g>
   </g>
  </g>
 </g>
 <defs>
  <clipPath id="p11d1606fe8">
   <rect height="266.112" width="357.12" x="52.784375" y="7.2"/>
  </clipPath>
 </defs>
</svg>
