<?xml version="1.0" encoding="utf-8" standalone="no"?>
<!DOCTYPE svg PUBLIC "-//W3C//DTD SVG 1.1//EN"
  "http://www.w3.org/Graphics/SVG/1.1/DTD/svg11.dtd">
<svg xmlns:xlink="http://www.w3.org/1999/xlink" width="417.104375pt" height="296.902625pt" viewBox="0 0 417.104375 296.902625" xmlns="http://www.w3.org/2000/svg" version="1.1">
 <metadata>
  <rdf:RDF xmlns:dc="http://purl.org/dc/elements/1.1/" xmlns:cc="http://creativecommons.org/ns#" xmlns:rdf="http://www.w3.org/1999/02/22-rdf-syntax-ns#">
   <cc:Work>
    <dc:type rdf:resource="http://purl.org/dc/dcmitype/StillImage"/>
    <dc:date>2022-04-30T14:45:16.946949</dc:date>
    <dc:format>image/svg+xml</dc:format>
    <dc:creator>
     <cc:Agent>
      <dc:title>Matplotlib v3.5.1, https://matplotlib.org/</dc:title>
     </cc:Agent>
    </dc:creator>
   </cc:Work>
  </rdf:RDF>
 </metadata>
 <defs>
  <style type="text/css">*{stroke-linejoin: round; stroke-linecap: butt}</style>
 </defs>
 <g id="figure_1">
  <g id="patch_1">
   <path d="M 0 296.902625 
L 417.104375 296.902625 
L 417.104375 0 
L 0 0 
z
" style="fill: #ffffff"/>
  </g>
  <g id="axes_1">
   <g id="patch_2">
    <path d="M 52.784375 273.312 
L 409.904375 273.312 
L 409.904375 7.2 
L 52.784375 7.2 
z
" style="fill: #ffffff"/>
   </g>
   <g id="matplotlib.axis_1">
    <g id="xtick_1">
     <g id="line2d_1">
      <defs>
       <path id="ma6d2e16ddd" d="M 0 0 
L 0 3.5 
" style="stroke: #000000; stroke-width: 0.8"/>
      </defs>
      <g>
       <use xlink:href="#ma6d2e16ddd" x="88.19789" y="273.312" style="stroke: #000000; stroke-width: 0.8"/>
      </g>
     </g>
     <g id="text_1">
      <!-- 2006 -->
      <g transform="translate(75.601015 287.802625)scale(0.1 -0.1)">
       <defs>
        <path id="IPAexGothic-32" d="M 3659 63 
L 447 63 
L 447 594 
Q 825 1475 1894 2203 
L 2072 2322 
Q 2619 2697 2791 2906 
Q 2988 3153 2988 3444 
Q 2988 3772 2756 4003 
Q 2500 4259 2084 4259 
Q 1250 4259 991 3328 
L 497 3506 
Q 853 4725 2116 4725 
Q 2806 4725 3216 4316 
Q 3575 3947 3575 3425 
Q 3575 3038 3344 2722 
Q 3131 2416 2366 1938 
L 2231 1856 
Q 1256 1253 978 569 
L 3659 569 
L 3659 63 
z
" transform="scale(0.015625)"/>
        <path id="IPAexGothic-30" d="M 2038 4725 
Q 2881 4725 3334 3944 
Q 3694 3325 3694 2344 
Q 3694 1372 3334 741 
Q 2888 -31 2016 -31 
Q 1147 -31 700 741 
Q 341 1372 341 2350 
Q 341 3713 1000 4334 
Q 1419 4725 2038 4725 
z
M 2016 4266 
Q 1516 4266 1228 3759 
Q 934 3247 934 2344 
Q 934 1456 1222 947 
Q 1513 447 2016 447 
Q 2619 447 2909 1153 
Q 3100 1622 3100 2375 
Q 3100 3256 2806 3759 
Q 2509 4266 2016 4266 
z
" transform="scale(0.015625)"/>
        <path id="IPAexGothic-36" d="M 1056 2328 
Q 1509 2981 2234 2981 
Q 2906 2981 3316 2513 
Q 3675 2106 3675 1522 
Q 3675 884 3272 434 
Q 2853 -31 2178 -31 
Q 1375 -31 922 581 
Q 481 1178 481 2228 
Q 481 3425 1013 4109 
Q 1494 4725 2272 4725 
Q 3191 4725 3609 4025 
L 3150 3775 
Q 2894 4266 2300 4266 
Q 1119 4266 1031 2328 
L 1056 2328 
z
M 2141 2547 
Q 1684 2547 1384 2206 
Q 1116 1900 1116 1541 
Q 1116 1156 1353 844 
Q 1672 428 2159 428 
Q 2669 428 2941 844 
Q 3125 1128 3125 1503 
Q 3125 1944 2881 2228 
Q 2600 2547 2141 2547 
z
" transform="scale(0.015625)"/>
       </defs>
       <use xlink:href="#IPAexGothic-32"/>
       <use xlink:href="#IPAexGothic-30" x="62.988281"/>
       <use xlink:href="#IPAexGothic-30" x="125.976562"/>
       <use xlink:href="#IPAexGothic-36" x="188.964844"/>
      </g>
     </g>
    </g>
    <g id="xtick_2">
     <g id="line2d_2">
      <g>
       <use xlink:href="#ma6d2e16ddd" x="126.559467" y="273.312" style="stroke: #000000; stroke-width: 0.8"/>
      </g>
     </g>
     <g id="text_2">
      <!-- 2008 -->
      <g transform="translate(113.962592 287.802625)scale(0.1 -0.1)">
       <defs>
        <path id="IPAexGothic-38" d="M 2541 2425 
Q 3700 2031 3700 1197 
Q 3700 541 3100 197 
Q 2663 -56 2016 -56 
Q 1366 -56 928 197 
Q 347 531 347 1178 
Q 347 1988 1409 2381 
L 1409 2400 
Q 481 2734 481 3509 
Q 481 4100 981 4456 
Q 1406 4756 2019 4756 
Q 2703 4756 3131 4403 
Q 3553 4069 3553 3566 
Q 3553 2706 2541 2444 
L 2541 2425 
z
M 2022 2625 
Q 2997 2856 2997 3528 
Q 2997 3916 2675 4150 
Q 2413 4347 2016 4347 
Q 1606 4347 1331 4128 
Q 1050 3897 1050 3522 
Q 1050 3150 1350 2925 
Q 1494 2809 1722 2722 
Q 1984 2616 2022 2625 
z
M 1978 2209 
Q 922 1931 922 1216 
Q 922 775 1313 556 
Q 1606 391 2009 391 
Q 2575 391 2881 697 
Q 3106 922 3106 1250 
Q 3106 1594 2794 1850 
Q 2609 1994 2350 2100 
Q 2047 2222 1978 2209 
z
" transform="scale(0.015625)"/>
       </defs>
       <use xlink:href="#IPAexGothic-32"/>
       <use xlink:href="#IPAexGothic-30" x="62.988281"/>
       <use xlink:href="#IPAexGothic-30" x="125.976562"/>
       <use xlink:href="#IPAexGothic-38" x="188.964844"/>
      </g>
     </g>
    </g>
    <g id="xtick_3">
     <g id="line2d_3">
      <g>
       <use xlink:href="#ma6d2e16ddd" x="164.973593" y="273.312" style="stroke: #000000; stroke-width: 0.8"/>
      </g>
     </g>
     <g id="text_3">
      <!-- 2010 -->
      <g transform="translate(152.376718 287.802625)scale(0.1 -0.1)">
       <defs>
        <path id="IPAexGothic-31" d="M 2463 63 
L 1900 63 
L 1900 4103 
Q 1372 3922 788 3797 
L 684 4231 
Q 1519 4441 2106 4731 
L 2463 4731 
L 2463 63 
z
" transform="scale(0.015625)"/>
       </defs>
       <use xlink:href="#IPAexGothic-32"/>
       <use xlink:href="#IPAexGothic-30" x="62.988281"/>
       <use xlink:href="#IPAexGothic-31" x="125.976562"/>
       <use xlink:href="#IPAexGothic-30" x="188.964844"/>
      </g>
     </g>
    </g>
    <g id="xtick_4">
     <g id="line2d_4">
      <g>
       <use xlink:href="#ma6d2e16ddd" x="203.335169" y="273.312" style="stroke: #000000; stroke-width: 0.8"/>
      </g>
     </g>
     <g id="text_4">
      <!-- 2012 -->
      <g transform="translate(190.738294 287.802625)scale(0.1 -0.1)">
       <use xlink:href="#IPAexGothic-32"/>
       <use xlink:href="#IPAexGothic-30" x="62.988281"/>
       <use xlink:href="#IPAexGothic-31" x="125.976562"/>
       <use xlink:href="#IPAexGothic-32" x="188.964844"/>
      </g>
     </g>
    </g>
    <g id="xtick_5">
     <g id="line2d_5">
      <g>
       <use xlink:href="#ma6d2e16ddd" x="241.749296" y="273.312" style="stroke: #000000; stroke-width: 0.8"/>
      </g>
     </g>
     <g id="text_5">
      <!-- 2014 -->
      <g transform="translate(229.152421 287.802625)scale(0.1 -0.1)">
       <defs>
        <path id="IPAexGothic-34" d="M 3813 1159 
L 3059 1159 
L 3059 63 
L 2547 63 
L 2547 1159 
L 197 1159 
L 197 1672 
L 2456 4678 
L 3059 4678 
L 3059 1634 
L 3813 1634 
L 3813 1159 
z
M 2578 4109 
L 2559 4109 
Q 2278 3656 2003 3284 
L 759 1634 
L 2547 1634 
L 2547 3144 
Q 2547 3481 2578 4109 
z
" transform="scale(0.015625)"/>
       </defs>
       <use xlink:href="#IPAexGothic-32"/>
       <use xlink:href="#IPAexGothic-30" x="62.988281"/>
       <use xlink:href="#IPAexGothic-31" x="125.976562"/>
       <use xlink:href="#IPAexGothic-34" x="188.964844"/>
      </g>
     </g>
    </g>
    <g id="xtick_6">
     <g id="line2d_6">
      <g>
       <use xlink:href="#ma6d2e16ddd" x="280.110872" y="273.312" style="stroke: #000000; stroke-width: 0.8"/>
      </g>
     </g>
     <g id="text_6">
      <!-- 2016 -->
      <g transform="translate(267.513997 287.802625)scale(0.1 -0.1)">
       <use xlink:href="#IPAexGothic-32"/>
       <use xlink:href="#IPAexGothic-30" x="62.988281"/>
       <use xlink:href="#IPAexGothic-31" x="125.976562"/>
       <use xlink:href="#IPAexGothic-36" x="188.964844"/>
      </g>
     </g>
    </g>
    <g id="xtick_7">
     <g id="line2d_7">
      <g>
       <use xlink:href="#ma6d2e16ddd" x="318.524998" y="273.312" style="stroke: #000000; stroke-width: 0.8"/>
      </g>
     </g>
     <g id="text_7">
      <!-- 2018 -->
      <g transform="translate(305.928123 287.802625)scale(0.1 -0.1)">
       <use xlink:href="#IPAexGothic-32"/>
       <use xlink:href="#IPAexGothic-30" x="62.988281"/>
       <use xlink:href="#IPAexGothic-31" x="125.976562"/>
       <use xlink:href="#IPAexGothic-38" x="188.964844"/>
      </g>
     </g>
    </g>
    <g id="xtick_8">
     <g id="line2d_8">
      <g>
       <use xlink:href="#ma6d2e16ddd" x="356.886575" y="273.312" style="stroke: #000000; stroke-width: 0.8"/>
      </g>
     </g>
     <g id="text_8">
      <!-- 2020 -->
      <g transform="translate(344.2897 287.802625)scale(0.1 -0.1)">
       <use xlink:href="#IPAexGothic-32"/>
       <use xlink:href="#IPAexGothic-30" x="62.988281"/>
       <use xlink:href="#IPAexGothic-32" x="125.976562"/>
       <use xlink:href="#IPAexGothic-30" x="188.964844"/>
      </g>
     </g>
    </g>
    <g id="xtick_9">
     <g id="line2d_9">
      <g>
       <use xlink:href="#ma6d2e16ddd" x="395.300701" y="273.312" style="stroke: #000000; stroke-width: 0.8"/>
      </g>
     </g>
     <g id="text_9">
      <!-- 2022 -->
      <g transform="translate(382.703826 287.802625)scale(0.1 -0.1)">
       <use xlink:href="#IPAexGothic-32"/>
       <use xlink:href="#IPAexGothic-30" x="62.988281"/>
       <use xlink:href="#IPAexGothic-32" x="125.976562"/>
       <use xlink:href="#IPAexGothic-32" x="188.964844"/>
      </g>
     </g>
    </g>
   </g>
   <g id="matplotlib.axis_2">
    <g id="ytick_1">
     <g id="line2d_10">
      <defs>
       <path id="m961eeacdac" d="M 0 0 
L -3.5 0 
" style="stroke: #000000; stroke-width: 0.8"/>
      </defs>
      <g>
       <use xlink:href="#m961eeacdac" x="52.784375" y="272.948804" style="stroke: #000000; stroke-width: 0.8"/>
      </g>
     </g>
     <g id="text_10">
      <!-- 2500 -->
      <g transform="translate(20.590625 276.694116)scale(0.1 -0.1)">
       <defs>
        <path id="IPAexGothic-35" d="M 1178 2603 
Q 1634 2963 2172 2963 
Q 2816 2963 3241 2528 
Q 3638 2113 3638 1497 
Q 3638 938 3297 513 
Q 2869 -31 2031 -31 
Q 959 -31 469 784 
L 938 1028 
Q 1309 434 2013 434 
Q 2466 434 2769 716 
Q 3081 1013 3081 1503 
Q 3081 1966 2806 2241 
Q 2519 2528 2056 2528 
Q 1406 2528 1072 2028 
L 591 2091 
L 884 4634 
L 3406 4634 
L 3406 4153 
L 1341 4153 
L 1134 2603 
L 1178 2603 
z
" transform="scale(0.015625)"/>
       </defs>
       <use xlink:href="#IPAexGothic-32"/>
       <use xlink:href="#IPAexGothic-35" x="62.988281"/>
       <use xlink:href="#IPAexGothic-30" x="125.976562"/>
       <use xlink:href="#IPAexGothic-30" x="188.964844"/>
      </g>
     </g>
    </g>
    <g id="ytick_2">
     <g id="line2d_11">
      <g>
       <use xlink:href="#m961eeacdac" x="52.784375" y="241.914937" style="stroke: #000000; stroke-width: 0.8"/>
      </g>
     </g>
     <g id="text_11">
      <!-- 2750 -->
      <g transform="translate(20.590625 245.66025)scale(0.1 -0.1)">
       <defs>
        <path id="IPAexGothic-37" d="M 3597 4263 
Q 2238 2106 1778 63 
L 1131 63 
Q 1581 1834 2950 4128 
L 428 4128 
L 428 4634 
L 3597 4634 
L 3597 4263 
z
" transform="scale(0.015625)"/>
       </defs>
       <use xlink:href="#IPAexGothic-32"/>
       <use xlink:href="#IPAexGothic-37" x="62.988281"/>
       <use xlink:href="#IPAexGothic-35" x="125.976562"/>
       <use xlink:href="#IPAexGothic-30" x="188.964844"/>
      </g>
     </g>
    </g>
    <g id="ytick_3">
     <g id="line2d_12">
      <g>
       <use xlink:href="#m961eeacdac" x="52.784375" y="210.881071" style="stroke: #000000; stroke-width: 0.8"/>
      </g>
     </g>
     <g id="text_12">
      <!-- 3000 -->
      <g transform="translate(20.590625 214.626384)scale(0.1 -0.1)">
       <defs>
        <path id="IPAexGothic-33" d="M 2381 2419 
Q 3506 2216 3506 1278 
Q 3506 716 3128 356 
Q 2709 -31 1944 -31 
Q 797 -31 288 881 
L 756 1131 
Q 1109 441 1938 441 
Q 2425 441 2694 691 
Q 2950 928 2950 1291 
Q 2950 1719 2566 1978 
Q 2216 2213 1644 2213 
L 1363 2213 
L 1363 2669 
L 1656 2669 
Q 2231 2669 2534 2888 
Q 2859 3119 2859 3509 
Q 2859 3934 2494 4138 
Q 2259 4278 1931 4278 
Q 1238 4278 903 3578 
L 434 3803 
Q 897 4725 1938 4725 
Q 2597 4725 3006 4394 
Q 3416 4069 3416 3534 
Q 3416 3028 3019 2706 
Q 2763 2500 2381 2444 
L 2381 2419 
z
" transform="scale(0.015625)"/>
       </defs>
       <use xlink:href="#IPAexGothic-33"/>
       <use xlink:href="#IPAexGothic-30" x="62.988281"/>
       <use xlink:href="#IPAexGothic-30" x="125.976562"/>
       <use xlink:href="#IPAexGothic-30" x="188.964844"/>
      </g>
     </g>
    </g>
    <g id="ytick_4">
     <g id="line2d_13">
      <g>
       <use xlink:href="#m961eeacdac" x="52.784375" y="179.847205" style="stroke: #000000; stroke-width: 0.8"/>
      </g>
     </g>
     <g id="text_13">
      <!-- 3250 -->
      <g transform="translate(20.590625 183.592517)scale(0.1 -0.1)">
       <use xlink:href="#IPAexGothic-33"/>
       <use xlink:href="#IPAexGothic-32" x="62.988281"/>
       <use xlink:href="#IPAexGothic-35" x="125.976562"/>
       <use xlink:href="#IPAexGothic-30" x="188.964844"/>
      </g>
     </g>
    </g>
    <g id="ytick_5">
     <g id="line2d_14">
      <g>
       <use xlink:href="#m961eeacdac" x="52.784375" y="148.813338" style="stroke: #000000; stroke-width: 0.8"/>
      </g>
     </g>
     <g id="text_14">
      <!-- 3500 -->
      <g transform="translate(20.590625 152.558651)scale(0.1 -0.1)">
       <use xlink:href="#IPAexGothic-33"/>
       <use xlink:href="#IPAexGothic-35" x="62.988281"/>
       <use xlink:href="#IPAexGothic-30" x="125.976562"/>
       <use xlink:href="#IPAexGothic-30" x="188.964844"/>
      </g>
     </g>
    </g>
    <g id="ytick_6">
     <g id="line2d_15">
      <g>
       <use xlink:href="#m961eeacdac" x="52.784375" y="117.779472" style="stroke: #000000; stroke-width: 0.8"/>
      </g>
     </g>
     <g id="text_15">
      <!-- 3750 -->
      <g transform="translate(20.590625 121.524785)scale(0.1 -0.1)">
       <use xlink:href="#IPAexGothic-33"/>
       <use xlink:href="#IPAexGothic-37" x="62.988281"/>
       <use xlink:href="#IPAexGothic-35" x="125.976562"/>
       <use xlink:href="#IPAexGothic-30" x="188.964844"/>
      </g>
     </g>
    </g>
    <g id="ytick_7">
     <g id="line2d_16">
      <g>
       <use xlink:href="#m961eeacdac" x="52.784375" y="86.745606" style="stroke: #000000; stroke-width: 0.8"/>
      </g>
     </g>
     <g id="text_16">
      <!-- 4000 -->
      <g transform="translate(20.590625 90.490918)scale(0.1 -0.1)">
       <use xlink:href="#IPAexGothic-34"/>
       <use xlink:href="#IPAexGothic-30" x="62.988281"/>
       <use xlink:href="#IPAexGothic-30" x="125.976562"/>
       <use xlink:href="#IPAexGothic-30" x="188.964844"/>
      </g>
     </g>
    </g>
    <g id="ytick_8">
     <g id="line2d_17">
      <g>
       <use xlink:href="#m961eeacdac" x="52.784375" y="55.711739" style="stroke: #000000; stroke-width: 0.8"/>
      </g>
     </g>
     <g id="text_17">
      <!-- 4250 -->
      <g transform="translate(20.590625 59.457052)scale(0.1 -0.1)">
       <use xlink:href="#IPAexGothic-34"/>
       <use xlink:href="#IPAexGothic-32" x="62.988281"/>
       <use xlink:href="#IPAexGothic-35" x="125.976562"/>
       <use xlink:href="#IPAexGothic-30" x="188.964844"/>
      </g>
     </g>
    </g>
    <g id="ytick_9">
     <g id="line2d_18">
      <g>
       <use xlink:href="#m961eeacdac" x="52.784375" y="24.677873" style="stroke: #000000; stroke-width: 0.8"/>
      </g>
     </g>
     <g id="text_18">
      <!-- 4500 -->
      <g transform="translate(20.590625 28.423186)scale(0.1 -0.1)">
       <use xlink:href="#IPAexGothic-34"/>
       <use xlink:href="#IPAexGothic-35" x="62.988281"/>
       <use xlink:href="#IPAexGothic-30" x="125.976562"/>
       <use xlink:href="#IPAexGothic-30" x="188.964844"/>
      </g>
     </g>
    </g>
    <g id="text_19">
     <!-- 1日あたり死亡数 -->
     <g transform="translate(14.690625 178.405219)rotate(-90)scale(0.1 -0.1)">
      <defs>
       <path id="IPAexGothic-65e5" d="M 5231 4800 
L 5231 -288 
L 4744 -288 
L 4744 128 
L 1647 128 
L 1647 -288 
L 1159 -288 
L 1159 4800 
L 5231 4800 
z
M 1647 4372 
L 1647 2731 
L 4744 2731 
L 4744 4372 
L 1647 4372 
z
M 1647 2297 
L 1647 556 
L 4744 556 
L 4744 2297 
L 1647 2297 
z
" transform="scale(0.015625)"/>
       <path id="IPAexGothic-3042" d="M 966 4134 
Q 1228 4116 1550 4116 
Q 1934 4116 2284 4141 
Q 2297 4247 2319 4453 
Q 2369 4872 2381 5050 
L 2853 5019 
Q 2794 4547 2759 4178 
Q 3672 4275 4581 4525 
L 4634 4084 
Q 3750 3863 2713 3756 
Q 2675 3378 2663 2931 
Q 3088 3084 3669 3138 
Q 3738 3325 3763 3547 
L 4238 3438 
Q 4188 3219 4153 3128 
Q 4797 3041 5166 2741 
Q 5703 2297 5703 1581 
Q 5703 794 5056 300 
Q 4559 -84 3681 -213 
L 3406 213 
Q 4169 297 4622 594 
Q 5203 969 5203 1588 
Q 5203 2216 4672 2553 
Q 4413 2725 4025 2772 
Q 3550 1556 2747 800 
Q 2766 584 2847 275 
L 2388 103 
Q 2369 191 2316 525 
Q 1756 128 1300 128 
Q 666 128 666 794 
Q 666 1244 950 1691 
Q 1216 2100 1678 2425 
Q 1834 2541 2194 2731 
Q 2206 3159 2253 3719 
Q 1772 3681 1338 3681 
Q 1106 3681 1006 3688 
L 966 4134 
z
M 2188 2291 
Q 1966 2169 1703 1913 
Q 1431 1650 1272 1353 
Q 1144 1109 1134 922 
Q 1119 575 1384 575 
Q 1788 575 2247 997 
Q 2197 1497 2188 2291 
z
M 3553 2772 
Q 3038 2700 2638 2534 
Q 2638 1734 2663 1300 
Q 3231 1931 3553 2772 
z
" transform="scale(0.015625)"/>
       <path id="IPAexGothic-305f" d="M 684 3994 
Q 1138 3953 1556 3953 
Q 1797 3953 2106 3975 
Q 2266 4594 2369 5113 
L 2875 5025 
Q 2806 4731 2619 4013 
Q 3209 4084 3656 4191 
L 3688 3719 
Q 3109 3613 2497 3566 
Q 1822 1294 1153 -44 
L 653 172 
Q 1406 1500 1991 3531 
Q 1634 3513 1256 3513 
Q 1106 3513 697 3525 
L 684 3994 
z
M 5753 78 
Q 5059 -13 4597 -13 
Q 3619 -13 3206 334 
Q 2866 625 2766 1222 
L 3213 1388 
Q 3247 1069 3347 903 
Q 3425 775 3578 672 
Q 3866 481 4556 481 
Q 5009 481 5728 575 
L 5753 78 
z
M 3144 2859 
Q 4216 3147 5409 3072 
L 5381 2597 
L 5356 2597 
Q 4263 2663 3194 2419 
L 3144 2859 
z
" transform="scale(0.015625)"/>
       <path id="IPAexGothic-308a" d="M 2878 2925 
Q 2503 2294 2372 2041 
Q 2222 1750 2163 1459 
L 1716 1503 
Q 1509 2131 1509 3091 
Q 1509 3744 1663 4872 
L 2181 4806 
Q 2003 3541 2003 3016 
Q 2003 2613 2028 2259 
Q 2109 2413 2313 2766 
Q 2484 3063 2578 3238 
L 2878 2925 
z
M 2488 128 
Q 3534 503 3928 1184 
Q 4234 1713 4234 2975 
Q 4234 3872 4122 4928 
L 4666 4928 
Q 4759 3794 4759 2975 
Q 4759 1516 4356 844 
Q 3913 103 2853 -288 
L 2488 128 
z
" transform="scale(0.015625)"/>
       <path id="IPAexGothic-6b7b" d="M 2134 1381 
Q 1691 1863 1256 2200 
Q 997 1788 616 1406 
L 309 1713 
Q 1325 2825 1584 4403 
L 1591 4441 
L 456 4441 
L 456 4856 
L 5947 4856 
L 5947 4441 
L 4053 4441 
L 4053 2431 
Q 4888 2881 5478 3456 
L 5894 3116 
Q 5109 2469 4053 1950 
L 4053 516 
Q 4053 275 4238 225 
Q 4378 194 4684 194 
Q 5428 194 5506 397 
Q 5575 591 5594 1325 
L 6088 1163 
Q 6050 141 5869 -56 
Q 5666 -281 4628 -281 
Q 4063 -281 3841 -166 
Q 3594 -41 3594 356 
L 3594 4441 
L 2050 4441 
Q 2041 4400 2031 4300 
Q 1978 4000 1838 3519 
L 3003 3519 
L 3266 3322 
Q 3028 1938 2472 1028 
Q 1906 119 738 -438 
L 419 -47 
Q 1541 413 2134 1381 
z
M 2356 1797 
Q 2647 2425 2759 3116 
L 1703 3116 
Q 1603 2844 1450 2534 
Q 1966 2188 2356 1797 
z
" transform="scale(0.015625)"/>
       <path id="IPAexGothic-4ea1" d="M 1813 3497 
L 1813 819 
Q 1813 538 2056 488 
Q 2269 450 3194 450 
Q 4369 450 5506 544 
L 5506 38 
Q 4391 -31 3259 -31 
Q 2013 -31 1697 72 
Q 1319 197 1319 647 
L 1319 3497 
L 481 3497 
L 481 3938 
L 2925 3938 
L 2925 5084 
L 3431 5084 
L 3431 3938 
L 5922 3938 
L 5922 3497 
L 1813 3497 
z
" transform="scale(0.015625)"/>
       <path id="IPAexGothic-6570" d="M 2847 1553 
Q 2741 1006 2425 534 
Q 2625 441 3091 203 
L 2809 -188 
Q 2541 0 2144 209 
Q 1569 -291 703 -500 
L 422 -125 
Q 1263 19 1747 406 
Q 1222 650 734 816 
Q 975 1172 1147 1503 
L 1172 1553 
L 359 1553 
L 359 1925 
L 1344 1925 
Q 1406 2066 1569 2475 
L 1691 2450 
L 1691 3372 
Q 1250 2738 550 2303 
L 275 2663 
Q 1019 3013 1528 3641 
L 378 3641 
L 378 4006 
L 1691 4006 
L 1691 5313 
L 2113 5313 
L 2113 4006 
L 3297 4006 
L 3297 3641 
L 2113 3641 
L 2113 3513 
Q 2659 3291 3175 2963 
L 2956 2584 
Q 2553 2922 2113 3159 
L 2113 2372 
L 1966 2372 
Q 1928 2288 1872 2141 
Q 1806 1975 1784 1925 
L 3378 1925 
L 3378 1553 
L 2847 1553 
z
M 2419 1553 
L 1613 1553 
Q 1478 1269 1313 997 
Q 1559 909 2047 703 
Q 2313 1047 2419 1553 
z
M 4363 1163 
Q 3953 1781 3738 2638 
Q 3575 2281 3428 2016 
L 3103 2406 
Q 3675 3444 3916 5291 
L 4363 5200 
Q 4284 4666 4197 4197 
L 6009 4197 
L 6009 3775 
L 5503 3775 
Q 5397 2275 4869 1191 
Q 5419 503 6144 75 
L 5822 -378 
Q 5188 106 4631 788 
Q 4113 34 3341 -463 
L 3031 -78 
Q 3888 406 4363 1163 
z
M 4588 1594 
Q 4938 2388 5059 3775 
L 4100 3775 
Q 4041 3519 3972 3288 
Q 3981 3250 3991 3194 
Q 4175 2256 4588 1594 
z
M 1003 4116 
Q 878 4544 638 4934 
L 1053 5094 
Q 1247 4788 1438 4269 
L 1003 4116 
z
M 2316 4269 
Q 2550 4688 2688 5131 
L 3128 4997 
Q 2966 4588 2675 4128 
L 2316 4269 
z
" transform="scale(0.015625)"/>
      </defs>
      <use xlink:href="#IPAexGothic-31"/>
      <use xlink:href="#IPAexGothic-65e5" x="62.988281"/>
      <use xlink:href="#IPAexGothic-3042" x="162.988281"/>
      <use xlink:href="#IPAexGothic-305f" x="262.988281"/>
      <use xlink:href="#IPAexGothic-308a" x="362.988281"/>
      <use xlink:href="#IPAexGothic-6b7b" x="462.988281"/>
      <use xlink:href="#IPAexGothic-4ea1" x="562.988281"/>
      <use xlink:href="#IPAexGothic-6570" x="662.988281"/>
     </g>
    </g>
   </g>
   <g id="line2d_19">
    <path d="M 69.017102 169.976433 
L 70.646156 158.770776 
L 72.117558 150.363029 
L 73.746612 204.355683 
L 75.323115 237.682318 
L 76.952168 260.158713 
L 78.528671 261.216 
L 80.157724 254.368528 
L 81.786778 257.572557 
L 83.363281 241.350321 
L 84.992334 206.892185 
L 86.568837 170.444944 
L 88.19789 145.441659 
L 89.826944 171.680864 
L 91.298347 200.049251 
L 92.9274 208.150091 
L 94.503903 228.448242 
L 96.132956 247.426552 
L 97.709459 251.265141 
L 99.338513 249.150834 
L 100.967566 249.756161 
L 102.544069 236.861423 
L 104.173122 203.739144 
L 105.749625 179.166462 
L 107.378679 162.888698 
L 109.007732 177.958572 
L 110.479135 175.198131 
L 112.108188 202.067453 
L 115.313744 243.028019 
L 116.890247 244.826114 
L 118.519301 230.706706 
L 120.148354 239.854289 
L 121.724857 217.051805 
L 126.559467 141.269106 
L 128.18852 144.905211 
L 129.712473 171.726343 
L 132.918029 216.499202 
L 134.547083 234.640599 
L 136.123586 232.252393 
L 137.752639 230.650645 
L 139.381692 231.495834 
L 140.958195 211.822098 
L 142.587249 178.101032 
L 144.163752 160.862487 
L 145.792805 125.559963 
L 147.421858 165.079518 
L 148.893261 178.906178 
L 152.098817 212.026321 
L 153.727871 232.298577 
L 155.304374 235.463898 
L 158.56248 220.849149 
L 160.138983 204.041607 
L 163.34454 158.604023 
L 164.973593 130.429276 
L 166.602646 149.003975 
L 168.074049 169.956411 
L 169.703102 174.157663 
L 171.279606 192.032502 
L 172.908659 209.192829 
L 174.485162 202.215615 
L 176.114215 200.073277 
L 177.743268 203.78466 
L 179.319772 189.43767 
L 180.948825 153.203596 
L 182.525328 139.266921 
L 184.154381 95.651324 
L 185.783434 126.610824 
L 187.254837 62.511159 
L 188.883891 154.188404 
L 190.460394 178.041234 
L 193.66595 205.751473 
L 195.295003 198.543608 
L 196.924057 202.232967 
L 198.50056 181.172651 
L 200.129613 163.730283 
L 201.706116 124.81515 
L 203.335169 90.345534 
L 204.964223 94.454846 
L 206.488176 138.281846 
L 208.117229 158.901414 
L 209.693732 187.075092 
L 211.322785 206.912874 
L 212.899288 203.909463 
L 214.528342 195.007749 
L 216.157395 198.964066 
L 217.733898 172.246911 
L 219.362951 135.241194 
L 220.939454 102.963304 
L 222.568508 73.322958 
L 224.197561 92.189833 
L 225.668964 138.54213 
L 227.298017 154.726324 
L 228.87452 174.581458 
L 230.503573 201.310227 
L 232.080076 195.332103 
L 233.70913 186.658638 
L 235.338183 185.193305 
L 236.914686 170.59711 
L 238.543739 133.238475 
L 240.120242 113.430726 
L 241.749296 83.922525 
L 243.378349 94.207034 
L 244.849752 127.558143 
L 246.478805 151.205015 
L 248.055308 179.474798 
L 249.684361 200.499208 
L 251.260865 198.887983 
L 252.889918 190.382702 
L 254.518971 179.392041 
L 256.095474 165.499548 
L 257.724527 135.605325 
L 259.301031 94.065594 
L 260.930084 45.676789 
L 262.559137 95.426221 
L 264.03054 127.349916 
L 268.86515 191.97524 
L 270.441653 185.060894 
L 272.070706 178.521758 
L 273.699759 176.776921 
L 275.276262 151.103838 
L 276.905316 142.126575 
L 278.481819 115.372846 
L 280.110872 84.070687 
L 281.739925 93.050831 
L 283.263878 118.49225 
L 284.892931 147.720946 
L 286.469435 169.792232 
L 288.098488 188.35876 
L 289.674991 186.041965 
L 291.304044 169.42383 
L 292.933097 168.509499 
L 294.509601 144.376497 
L 296.138654 112.168549 
L 297.715157 92.099448 
L 299.34421 46.005147 
L 300.973263 66.644527 
L 302.444666 102.687002 
L 304.07372 134.65362 
L 305.650223 157.711048 
L 307.279276 178.423785 
L 310.484832 168.366676 
L 312.113886 165.807484 
L 313.690389 141.11694 
L 315.319442 106.731416 
L 316.895945 83.514079 
L 318.524998 31.59342 
L 320.154052 38.620946 
L 321.625454 100.460572 
L 323.254508 132.357114 
L 324.831011 158.039406 
L 326.460064 176.098314 
L 328.036567 155.692846 
L 329.66562 159.03249 
L 331.294674 150.141588 
L 332.871177 133.516646 
L 334.50023 109.615496 
L 336.076733 88.803852 
L 337.705786 21.782714 
L 339.33484 63.195335 
L 340.806243 109.430361 
L 342.435296 116.579496 
L 344.011799 142.586543 
L 345.640852 164.164758 
L 347.217355 159.392884 
L 348.846409 140.940747 
L 350.475462 141.646584 
L 352.051965 130.205032 
L 353.681018 94.39235 
L 355.257521 75.801663 
L 356.886575 58.350619 
L 360.039581 110.691737 
L 361.668634 116.252606 
L 363.245137 154.851928 
L 364.87419 172.291493 
L 366.450694 166.328452 
L 368.079747 138.237798 
L 369.7088 143.247932 
L 371.285303 114.972409 
L 372.914356 96.647478 
L 374.49086 54.118 
L 374.49086 54.118 
" clip-path="url(#pe91533a9c2)" style="fill: none; stroke: #1f77b4; stroke-width: 1.5; stroke-linecap: square"/>
    <defs>
     <path id="md97d046e85" d="M 0 3 
C 0.795609 3 1.55874 2.683901 2.12132 2.12132 
C 2.683901 1.55874 3 0.795609 3 0 
C 3 -0.795609 2.683901 -1.55874 2.12132 -2.12132 
C 1.55874 -2.683901 0.795609 -3 0 -3 
C -0.795609 -3 -1.55874 -2.683901 -2.12132 -2.12132 
C -2.683901 -1.55874 -3 -0.795609 -3 0 
C -3 0.795609 -2.683901 1.55874 -2.12132 2.12132 
C -1.55874 2.683901 -0.795609 3 0 3 
z
" style="stroke: #1f77b4"/>
    </defs>
    <g clip-path="url(#pe91533a9c2)">
     <use xlink:href="#md97d046e85" x="69.017102" y="169.976433" style="fill: #1f77b4; stroke: #1f77b4"/>
     <use xlink:href="#md97d046e85" x="70.646156" y="158.770776" style="fill: #1f77b4; stroke: #1f77b4"/>
     <use xlink:href="#md97d046e85" x="72.117558" y="150.363029" style="fill: #1f77b4; stroke: #1f77b4"/>
     <use xlink:href="#md97d046e85" x="73.746612" y="204.355683" style="fill: #1f77b4; stroke: #1f77b4"/>
     <use xlink:href="#md97d046e85" x="75.323115" y="237.682318" style="fill: #1f77b4; stroke: #1f77b4"/>
     <use xlink:href="#md97d046e85" x="76.952168" y="260.158713" style="fill: #1f77b4; stroke: #1f77b4"/>
     <use xlink:href="#md97d046e85" x="78.528671" y="261.216" style="fill: #1f77b4; stroke: #1f77b4"/>
     <use xlink:href="#md97d046e85" x="80.157724" y="254.368528" style="fill: #1f77b4; stroke: #1f77b4"/>
     <use xlink:href="#md97d046e85" x="81.786778" y="257.572557" style="fill: #1f77b4; stroke: #1f77b4"/>
     <use xlink:href="#md97d046e85" x="83.363281" y="241.350321" style="fill: #1f77b4; stroke: #1f77b4"/>
     <use xlink:href="#md97d046e85" x="84.992334" y="206.892185" style="fill: #1f77b4; stroke: #1f77b4"/>
     <use xlink:href="#md97d046e85" x="86.568837" y="170.444944" style="fill: #1f77b4; stroke: #1f77b4"/>
     <use xlink:href="#md97d046e85" x="88.19789" y="145.441659" style="fill: #1f77b4; stroke: #1f77b4"/>
     <use xlink:href="#md97d046e85" x="89.826944" y="171.680864" style="fill: #1f77b4; stroke: #1f77b4"/>
     <use xlink:href="#md97d046e85" x="91.298347" y="200.049251" style="fill: #1f77b4; stroke: #1f77b4"/>
     <use xlink:href="#md97d046e85" x="92.9274" y="208.150091" style="fill: #1f77b4; stroke: #1f77b4"/>
     <use xlink:href="#md97d046e85" x="94.503903" y="228.448242" style="fill: #1f77b4; stroke: #1f77b4"/>
     <use xlink:href="#md97d046e85" x="96.132956" y="247.426552" style="fill: #1f77b4; stroke: #1f77b4"/>
     <use xlink:href="#md97d046e85" x="97.709459" y="251.265141" style="fill: #1f77b4; stroke: #1f77b4"/>
     <use xlink:href="#md97d046e85" x="99.338513" y="249.150834" style="fill: #1f77b4; stroke: #1f77b4"/>
     <use xlink:href="#md97d046e85" x="100.967566" y="249.756161" style="fill: #1f77b4; stroke: #1f77b4"/>
     <use xlink:href="#md97d046e85" x="102.544069" y="236.861423" style="fill: #1f77b4; stroke: #1f77b4"/>
     <use xlink:href="#md97d046e85" x="104.173122" y="203.739144" style="fill: #1f77b4; stroke: #1f77b4"/>
     <use xlink:href="#md97d046e85" x="105.749625" y="179.166462" style="fill: #1f77b4; stroke: #1f77b4"/>
     <use xlink:href="#md97d046e85" x="107.378679" y="162.888698" style="fill: #1f77b4; stroke: #1f77b4"/>
     <use xlink:href="#md97d046e85" x="109.007732" y="177.958572" style="fill: #1f77b4; stroke: #1f77b4"/>
     <use xlink:href="#md97d046e85" x="110.479135" y="175.198131" style="fill: #1f77b4; stroke: #1f77b4"/>
     <use xlink:href="#md97d046e85" x="112.108188" y="202.067453" style="fill: #1f77b4; stroke: #1f77b4"/>
     <use xlink:href="#md97d046e85" x="113.684691" y="222.445691" style="fill: #1f77b4; stroke: #1f77b4"/>
     <use xlink:href="#md97d046e85" x="115.313744" y="243.028019" style="fill: #1f77b4; stroke: #1f77b4"/>
     <use xlink:href="#md97d046e85" x="116.890247" y="244.826114" style="fill: #1f77b4; stroke: #1f77b4"/>
     <use xlink:href="#md97d046e85" x="118.519301" y="230.706706" style="fill: #1f77b4; stroke: #1f77b4"/>
     <use xlink:href="#md97d046e85" x="120.148354" y="239.854289" style="fill: #1f77b4; stroke: #1f77b4"/>
     <use xlink:href="#md97d046e85" x="121.724857" y="217.051805" style="fill: #1f77b4; stroke: #1f77b4"/>
     <use xlink:href="#md97d046e85" x="123.35391" y="191.408354" style="fill: #1f77b4; stroke: #1f77b4"/>
     <use xlink:href="#md97d046e85" x="124.930413" y="167.617859" style="fill: #1f77b4; stroke: #1f77b4"/>
     <use xlink:href="#md97d046e85" x="126.559467" y="141.269106" style="fill: #1f77b4; stroke: #1f77b4"/>
     <use xlink:href="#md97d046e85" x="128.18852" y="144.905211" style="fill: #1f77b4; stroke: #1f77b4"/>
     <use xlink:href="#md97d046e85" x="129.712473" y="171.726343" style="fill: #1f77b4; stroke: #1f77b4"/>
     <use xlink:href="#md97d046e85" x="131.341526" y="194.102094" style="fill: #1f77b4; stroke: #1f77b4"/>
     <use xlink:href="#md97d046e85" x="132.918029" y="216.499202" style="fill: #1f77b4; stroke: #1f77b4"/>
     <use xlink:href="#md97d046e85" x="134.547083" y="234.640599" style="fill: #1f77b4; stroke: #1f77b4"/>
     <use xlink:href="#md97d046e85" x="136.123586" y="232.252393" style="fill: #1f77b4; stroke: #1f77b4"/>
     <use xlink:href="#md97d046e85" x="137.752639" y="230.650645" style="fill: #1f77b4; stroke: #1f77b4"/>
     <use xlink:href="#md97d046e85" x="139.381692" y="231.495834" style="fill: #1f77b4; stroke: #1f77b4"/>
     <use xlink:href="#md97d046e85" x="140.958195" y="211.822098" style="fill: #1f77b4; stroke: #1f77b4"/>
     <use xlink:href="#md97d046e85" x="142.587249" y="178.101032" style="fill: #1f77b4; stroke: #1f77b4"/>
     <use xlink:href="#md97d046e85" x="144.163752" y="160.862487" style="fill: #1f77b4; stroke: #1f77b4"/>
     <use xlink:href="#md97d046e85" x="145.792805" y="125.559963" style="fill: #1f77b4; stroke: #1f77b4"/>
     <use xlink:href="#md97d046e85" x="147.421858" y="165.079518" style="fill: #1f77b4; stroke: #1f77b4"/>
     <use xlink:href="#md97d046e85" x="148.893261" y="178.906178" style="fill: #1f77b4; stroke: #1f77b4"/>
     <use xlink:href="#md97d046e85" x="150.522314" y="195.595857" style="fill: #1f77b4; stroke: #1f77b4"/>
     <use xlink:href="#md97d046e85" x="152.098817" y="212.026321" style="fill: #1f77b4; stroke: #1f77b4"/>
     <use xlink:href="#md97d046e85" x="153.727871" y="232.298577" style="fill: #1f77b4; stroke: #1f77b4"/>
     <use xlink:href="#md97d046e85" x="155.304374" y="235.463898" style="fill: #1f77b4; stroke: #1f77b4"/>
     <use xlink:href="#md97d046e85" x="156.933427" y="228.159927" style="fill: #1f77b4; stroke: #1f77b4"/>
     <use xlink:href="#md97d046e85" x="158.56248" y="220.849149" style="fill: #1f77b4; stroke: #1f77b4"/>
     <use xlink:href="#md97d046e85" x="160.138983" y="204.041607" style="fill: #1f77b4; stroke: #1f77b4"/>
     <use xlink:href="#md97d046e85" x="161.768037" y="181.460966" style="fill: #1f77b4; stroke: #1f77b4"/>
     <use xlink:href="#md97d046e85" x="163.34454" y="158.604023" style="fill: #1f77b4; stroke: #1f77b4"/>
     <use xlink:href="#md97d046e85" x="164.973593" y="130.429276" style="fill: #1f77b4; stroke: #1f77b4"/>
     <use xlink:href="#md97d046e85" x="166.602646" y="149.003975" style="fill: #1f77b4; stroke: #1f77b4"/>
     <use xlink:href="#md97d046e85" x="168.074049" y="169.956411" style="fill: #1f77b4; stroke: #1f77b4"/>
     <use xlink:href="#md97d046e85" x="169.703102" y="174.157663" style="fill: #1f77b4; stroke: #1f77b4"/>
     <use xlink:href="#md97d046e85" x="171.279606" y="192.032502" style="fill: #1f77b4; stroke: #1f77b4"/>
     <use xlink:href="#md97d046e85" x="172.908659" y="209.192829" style="fill: #1f77b4; stroke: #1f77b4"/>
     <use xlink:href="#md97d046e85" x="174.485162" y="202.215615" style="fill: #1f77b4; stroke: #1f77b4"/>
     <use xlink:href="#md97d046e85" x="176.114215" y="200.073277" style="fill: #1f77b4; stroke: #1f77b4"/>
     <use xlink:href="#md97d046e85" x="177.743268" y="203.78466" style="fill: #1f77b4; stroke: #1f77b4"/>
     <use xlink:href="#md97d046e85" x="179.319772" y="189.43767" style="fill: #1f77b4; stroke: #1f77b4"/>
     <use xlink:href="#md97d046e85" x="180.948825" y="153.203596" style="fill: #1f77b4; stroke: #1f77b4"/>
     <use xlink:href="#md97d046e85" x="182.525328" y="139.266921" style="fill: #1f77b4; stroke: #1f77b4"/>
     <use xlink:href="#md97d046e85" x="184.154381" y="95.651324" style="fill: #1f77b4; stroke: #1f77b4"/>
     <use xlink:href="#md97d046e85" x="185.783434" y="126.610824" style="fill: #1f77b4; stroke: #1f77b4"/>
     <use xlink:href="#md97d046e85" x="187.254837" y="62.511159" style="fill: #1f77b4; stroke: #1f77b4"/>
     <use xlink:href="#md97d046e85" x="188.883891" y="154.188404" style="fill: #1f77b4; stroke: #1f77b4"/>
     <use xlink:href="#md97d046e85" x="190.460394" y="178.041234" style="fill: #1f77b4; stroke: #1f77b4"/>
     <use xlink:href="#md97d046e85" x="192.089447" y="191.966964" style="fill: #1f77b4; stroke: #1f77b4"/>
     <use xlink:href="#md97d046e85" x="193.66595" y="205.751473" style="fill: #1f77b4; stroke: #1f77b4"/>
     <use xlink:href="#md97d046e85" x="195.295003" y="198.543608" style="fill: #1f77b4; stroke: #1f77b4"/>
     <use xlink:href="#md97d046e85" x="196.924057" y="202.232967" style="fill: #1f77b4; stroke: #1f77b4"/>
     <use xlink:href="#md97d046e85" x="198.50056" y="181.172651" style="fill: #1f77b4; stroke: #1f77b4"/>
     <use xlink:href="#md97d046e85" x="200.129613" y="163.730283" style="fill: #1f77b4; stroke: #1f77b4"/>
     <use xlink:href="#md97d046e85" x="201.706116" y="124.81515" style="fill: #1f77b4; stroke: #1f77b4"/>
     <use xlink:href="#md97d046e85" x="203.335169" y="90.345534" style="fill: #1f77b4; stroke: #1f77b4"/>
     <use xlink:href="#md97d046e85" x="204.964223" y="94.454846" style="fill: #1f77b4; stroke: #1f77b4"/>
     <use xlink:href="#md97d046e85" x="206.488176" y="138.281846" style="fill: #1f77b4; stroke: #1f77b4"/>
     <use xlink:href="#md97d046e85" x="208.117229" y="158.901414" style="fill: #1f77b4; stroke: #1f77b4"/>
     <use xlink:href="#md97d046e85" x="209.693732" y="187.075092" style="fill: #1f77b4; stroke: #1f77b4"/>
     <use xlink:href="#md97d046e85" x="211.322785" y="206.912874" style="fill: #1f77b4; stroke: #1f77b4"/>
     <use xlink:href="#md97d046e85" x="212.899288" y="203.909463" style="fill: #1f77b4; stroke: #1f77b4"/>
     <use xlink:href="#md97d046e85" x="214.528342" y="195.007749" style="fill: #1f77b4; stroke: #1f77b4"/>
     <use xlink:href="#md97d046e85" x="216.157395" y="198.964066" style="fill: #1f77b4; stroke: #1f77b4"/>
     <use xlink:href="#md97d046e85" x="217.733898" y="172.246911" style="fill: #1f77b4; stroke: #1f77b4"/>
     <use xlink:href="#md97d046e85" x="219.362951" y="135.241194" style="fill: #1f77b4; stroke: #1f77b4"/>
     <use xlink:href="#md97d046e85" x="220.939454" y="102.963304" style="fill: #1f77b4; stroke: #1f77b4"/>
     <use xlink:href="#md97d046e85" x="222.568508" y="73.322958" style="fill: #1f77b4; stroke: #1f77b4"/>
     <use xlink:href="#md97d046e85" x="224.197561" y="92.189833" style="fill: #1f77b4; stroke: #1f77b4"/>
     <use xlink:href="#md97d046e85" x="225.668964" y="138.54213" style="fill: #1f77b4; stroke: #1f77b4"/>
     <use xlink:href="#md97d046e85" x="227.298017" y="154.726324" style="fill: #1f77b4; stroke: #1f77b4"/>
     <use xlink:href="#md97d046e85" x="228.87452" y="174.581458" style="fill: #1f77b4; stroke: #1f77b4"/>
     <use xlink:href="#md97d046e85" x="230.503573" y="201.310227" style="fill: #1f77b4; stroke: #1f77b4"/>
     <use xlink:href="#md97d046e85" x="232.080076" y="195.332103" style="fill: #1f77b4; stroke: #1f77b4"/>
     <use xlink:href="#md97d046e85" x="233.70913" y="186.658638" style="fill: #1f77b4; stroke: #1f77b4"/>
     <use xlink:href="#md97d046e85" x="235.338183" y="185.193305" style="fill: #1f77b4; stroke: #1f77b4"/>
     <use xlink:href="#md97d046e85" x="236.914686" y="170.59711" style="fill: #1f77b4; stroke: #1f77b4"/>
     <use xlink:href="#md97d046e85" x="238.543739" y="133.238475" style="fill: #1f77b4; stroke: #1f77b4"/>
     <use xlink:href="#md97d046e85" x="240.120242" y="113.430726" style="fill: #1f77b4; stroke: #1f77b4"/>
     <use xlink:href="#md97d046e85" x="241.749296" y="83.922525" style="fill: #1f77b4; stroke: #1f77b4"/>
     <use xlink:href="#md97d046e85" x="243.378349" y="94.207034" style="fill: #1f77b4; stroke: #1f77b4"/>
     <use xlink:href="#md97d046e85" x="244.849752" y="127.558143" style="fill: #1f77b4; stroke: #1f77b4"/>
     <use xlink:href="#md97d046e85" x="246.478805" y="151.205015" style="fill: #1f77b4; stroke: #1f77b4"/>
     <use xlink:href="#md97d046e85" x="248.055308" y="179.474798" style="fill: #1f77b4; stroke: #1f77b4"/>
     <use xlink:href="#md97d046e85" x="249.684361" y="200.499208" style="fill: #1f77b4; stroke: #1f77b4"/>
     <use xlink:href="#md97d046e85" x="251.260865" y="198.887983" style="fill: #1f77b4; stroke: #1f77b4"/>
     <use xlink:href="#md97d046e85" x="252.889918" y="190.382702" style="fill: #1f77b4; stroke: #1f77b4"/>
     <use xlink:href="#md97d046e85" x="254.518971" y="179.392041" style="fill: #1f77b4; stroke: #1f77b4"/>
     <use xlink:href="#md97d046e85" x="256.095474" y="165.499548" style="fill: #1f77b4; stroke: #1f77b4"/>
     <use xlink:href="#md97d046e85" x="257.724527" y="135.605325" style="fill: #1f77b4; stroke: #1f77b4"/>
     <use xlink:href="#md97d046e85" x="259.301031" y="94.065594" style="fill: #1f77b4; stroke: #1f77b4"/>
     <use xlink:href="#md97d046e85" x="260.930084" y="45.676789" style="fill: #1f77b4; stroke: #1f77b4"/>
     <use xlink:href="#md97d046e85" x="262.559137" y="95.426221" style="fill: #1f77b4; stroke: #1f77b4"/>
     <use xlink:href="#md97d046e85" x="264.03054" y="127.349916" style="fill: #1f77b4; stroke: #1f77b4"/>
     <use xlink:href="#md97d046e85" x="265.659593" y="149.285053" style="fill: #1f77b4; stroke: #1f77b4"/>
     <use xlink:href="#md97d046e85" x="267.236096" y="171.914548" style="fill: #1f77b4; stroke: #1f77b4"/>
     <use xlink:href="#md97d046e85" x="268.86515" y="191.97524" style="fill: #1f77b4; stroke: #1f77b4"/>
     <use xlink:href="#md97d046e85" x="270.441653" y="185.060894" style="fill: #1f77b4; stroke: #1f77b4"/>
     <use xlink:href="#md97d046e85" x="272.070706" y="178.521758" style="fill: #1f77b4; stroke: #1f77b4"/>
     <use xlink:href="#md97d046e85" x="273.699759" y="176.776921" style="fill: #1f77b4; stroke: #1f77b4"/>
     <use xlink:href="#md97d046e85" x="275.276262" y="151.103838" style="fill: #1f77b4; stroke: #1f77b4"/>
     <use xlink:href="#md97d046e85" x="276.905316" y="142.126575" style="fill: #1f77b4; stroke: #1f77b4"/>
     <use xlink:href="#md97d046e85" x="278.481819" y="115.372846" style="fill: #1f77b4; stroke: #1f77b4"/>
     <use xlink:href="#md97d046e85" x="280.110872" y="84.070687" style="fill: #1f77b4; stroke: #1f77b4"/>
     <use xlink:href="#md97d046e85" x="281.739925" y="93.050831" style="fill: #1f77b4; stroke: #1f77b4"/>
     <use xlink:href="#md97d046e85" x="283.263878" y="118.49225" style="fill: #1f77b4; stroke: #1f77b4"/>
     <use xlink:href="#md97d046e85" x="284.892931" y="147.720946" style="fill: #1f77b4; stroke: #1f77b4"/>
     <use xlink:href="#md97d046e85" x="286.469435" y="169.792232" style="fill: #1f77b4; stroke: #1f77b4"/>
     <use xlink:href="#md97d046e85" x="288.098488" y="188.35876" style="fill: #1f77b4; stroke: #1f77b4"/>
     <use xlink:href="#md97d046e85" x="289.674991" y="186.041965" style="fill: #1f77b4; stroke: #1f77b4"/>
     <use xlink:href="#md97d046e85" x="291.304044" y="169.42383" style="fill: #1f77b4; stroke: #1f77b4"/>
     <use xlink:href="#md97d046e85" x="292.933097" y="168.509499" style="fill: #1f77b4; stroke: #1f77b4"/>
     <use xlink:href="#md97d046e85" x="294.509601" y="144.376497" style="fill: #1f77b4; stroke: #1f77b4"/>
     <use xlink:href="#md97d046e85" x="296.138654" y="112.168549" style="fill: #1f77b4; stroke: #1f77b4"/>
     <use xlink:href="#md97d046e85" x="297.715157" y="92.099448" style="fill: #1f77b4; stroke: #1f77b4"/>
     <use xlink:href="#md97d046e85" x="299.34421" y="46.005147" style="fill: #1f77b4; stroke: #1f77b4"/>
     <use xlink:href="#md97d046e85" x="300.973263" y="66.644527" style="fill: #1f77b4; stroke: #1f77b4"/>
     <use xlink:href="#md97d046e85" x="302.444666" y="102.687002" style="fill: #1f77b4; stroke: #1f77b4"/>
     <use xlink:href="#md97d046e85" x="304.07372" y="134.65362" style="fill: #1f77b4; stroke: #1f77b4"/>
     <use xlink:href="#md97d046e85" x="305.650223" y="157.711048" style="fill: #1f77b4; stroke: #1f77b4"/>
     <use xlink:href="#md97d046e85" x="307.279276" y="178.423785" style="fill: #1f77b4; stroke: #1f77b4"/>
     <use xlink:href="#md97d046e85" x="308.855779" y="173.292051" style="fill: #1f77b4; stroke: #1f77b4"/>
     <use xlink:href="#md97d046e85" x="310.484832" y="168.366676" style="fill: #1f77b4; stroke: #1f77b4"/>
     <use xlink:href="#md97d046e85" x="312.113886" y="165.807484" style="fill: #1f77b4; stroke: #1f77b4"/>
     <use xlink:href="#md97d046e85" x="313.690389" y="141.11694" style="fill: #1f77b4; stroke: #1f77b4"/>
     <use xlink:href="#md97d046e85" x="315.319442" y="106.731416" style="fill: #1f77b4; stroke: #1f77b4"/>
     <use xlink:href="#md97d046e85" x="316.895945" y="83.514079" style="fill: #1f77b4; stroke: #1f77b4"/>
     <use xlink:href="#md97d046e85" x="318.524998" y="31.59342" style="fill: #1f77b4; stroke: #1f77b4"/>
     <use xlink:href="#md97d046e85" x="320.154052" y="38.620946" style="fill: #1f77b4; stroke: #1f77b4"/>
     <use xlink:href="#md97d046e85" x="321.625454" y="100.460572" style="fill: #1f77b4; stroke: #1f77b4"/>
     <use xlink:href="#md97d046e85" x="323.254508" y="132.357114" style="fill: #1f77b4; stroke: #1f77b4"/>
     <use xlink:href="#md97d046e85" x="324.831011" y="158.039406" style="fill: #1f77b4; stroke: #1f77b4"/>
     <use xlink:href="#md97d046e85" x="326.460064" y="176.098314" style="fill: #1f77b4; stroke: #1f77b4"/>
     <use xlink:href="#md97d046e85" x="328.036567" y="155.692846" style="fill: #1f77b4; stroke: #1f77b4"/>
     <use xlink:href="#md97d046e85" x="329.66562" y="159.03249" style="fill: #1f77b4; stroke: #1f77b4"/>
     <use xlink:href="#md97d046e85" x="331.294674" y="150.141588" style="fill: #1f77b4; stroke: #1f77b4"/>
     <use xlink:href="#md97d046e85" x="332.871177" y="133.516646" style="fill: #1f77b4; stroke: #1f77b4"/>
     <use xlink:href="#md97d046e85" x="334.50023" y="109.615496" style="fill: #1f77b4; stroke: #1f77b4"/>
     <use xlink:href="#md97d046e85" x="336.076733" y="88.803852" style="fill: #1f77b4; stroke: #1f77b4"/>
     <use xlink:href="#md97d046e85" x="337.705786" y="21.782714" style="fill: #1f77b4; stroke: #1f77b4"/>
     <use xlink:href="#md97d046e85" x="339.33484" y="63.195335" style="fill: #1f77b4; stroke: #1f77b4"/>
     <use xlink:href="#md97d046e85" x="340.806243" y="109.430361" style="fill: #1f77b4; stroke: #1f77b4"/>
     <use xlink:href="#md97d046e85" x="342.435296" y="116.579496" style="fill: #1f77b4; stroke: #1f77b4"/>
     <use xlink:href="#md97d046e85" x="344.011799" y="142.586543" style="fill: #1f77b4; stroke: #1f77b4"/>
     <use xlink:href="#md97d046e85" x="345.640852" y="164.164758" style="fill: #1f77b4; stroke: #1f77b4"/>
     <use xlink:href="#md97d046e85" x="347.217355" y="159.392884" style="fill: #1f77b4; stroke: #1f77b4"/>
     <use xlink:href="#md97d046e85" x="348.846409" y="140.940747" style="fill: #1f77b4; stroke: #1f77b4"/>
     <use xlink:href="#md97d046e85" x="350.475462" y="141.646584" style="fill: #1f77b4; stroke: #1f77b4"/>
     <use xlink:href="#md97d046e85" x="352.051965" y="130.205032" style="fill: #1f77b4; stroke: #1f77b4"/>
     <use xlink:href="#md97d046e85" x="353.681018" y="94.39235" style="fill: #1f77b4; stroke: #1f77b4"/>
     <use xlink:href="#md97d046e85" x="355.257521" y="75.801663" style="fill: #1f77b4; stroke: #1f77b4"/>
     <use xlink:href="#md97d046e85" x="356.886575" y="58.350619" style="fill: #1f77b4; stroke: #1f77b4"/>
     <use xlink:href="#md97d046e85" x="358.515628" y="86.150612" style="fill: #1f77b4; stroke: #1f77b4"/>
     <use xlink:href="#md97d046e85" x="360.039581" y="110.691737" style="fill: #1f77b4; stroke: #1f77b4"/>
     <use xlink:href="#md97d046e85" x="361.668634" y="116.252606" style="fill: #1f77b4; stroke: #1f77b4"/>
     <use xlink:href="#md97d046e85" x="363.245137" y="154.851928" style="fill: #1f77b4; stroke: #1f77b4"/>
     <use xlink:href="#md97d046e85" x="364.87419" y="172.291493" style="fill: #1f77b4; stroke: #1f77b4"/>
     <use xlink:href="#md97d046e85" x="366.450694" y="166.328452" style="fill: #1f77b4; stroke: #1f77b4"/>
     <use xlink:href="#md97d046e85" x="368.079747" y="138.237798" style="fill: #1f77b4; stroke: #1f77b4"/>
     <use xlink:href="#md97d046e85" x="369.7088" y="143.247932" style="fill: #1f77b4; stroke: #1f77b4"/>
     <use xlink:href="#md97d046e85" x="371.285303" y="114.972409" style="fill: #1f77b4; stroke: #1f77b4"/>
     <use xlink:href="#md97d046e85" x="372.914356" y="96.647478" style="fill: #1f77b4; stroke: #1f77b4"/>
     <use xlink:href="#md97d046e85" x="374.49086" y="54.118" style="fill: #1f77b4; stroke: #1f77b4"/>
    </g>
   </g>
   <g id="line2d_20">
    <path d="M 241.749296 83.922525 
L 243.378349 94.207034 
L 244.849752 127.558143 
L 246.478805 151.205015 
L 248.055308 179.474798 
L 249.684361 200.499208 
L 251.260865 198.887983 
L 252.889918 190.382702 
L 254.518971 179.392041 
L 256.095474 165.499548 
L 257.724527 135.605325 
L 259.301031 94.065594 
L 260.930084 45.676789 
L 262.559137 95.426221 
L 264.03054 127.349916 
L 268.86515 191.97524 
L 270.441653 185.060894 
L 272.070706 178.521758 
L 273.699759 176.776921 
L 275.276262 151.103838 
L 276.905316 142.126575 
L 278.481819 115.372846 
L 280.110872 84.070687 
L 281.739925 93.050831 
L 283.263878 118.49225 
L 284.892931 147.720946 
L 286.469435 169.792232 
L 288.098488 188.35876 
L 289.674991 186.041965 
L 291.304044 169.42383 
L 292.933097 168.509499 
L 294.509601 144.376497 
L 296.138654 112.168549 
L 297.715157 92.099448 
L 299.34421 54.498415 
L 300.973263 67.083435 
L 302.444666 102.462757 
L 304.07372 135.990145 
L 307.279276 177.476217 
L 308.855779 175.005922 
L 310.484832 167.373593 
L 312.113886 165.604729 
L 313.690389 141.949848 
L 315.319442 105.465234 
L 316.895945 76.622559 
L 318.524998 40.679335 
L 320.154052 40.527312 
L 321.625454 99.988057 
L 323.254508 133.627433 
L 324.831011 155.580723 
L 326.460064 175.978316 
L 328.036567 157.739079 
L 329.66562 158.05142 
L 331.294674 151.523629 
L 334.50023 108.866546 
L 336.076733 81.255615 
L 337.705786 31.537359 
L 339.33484 63.310603 
L 340.806243 110.043029 
L 342.435296 120.287008 
L 344.011799 138.325894 
L 345.640852 163.767524 
L 347.217355 160.205771 
L 348.846409 140.904708 
L 350.475462 141.27004 
L 352.051965 129.764551 
L 353.681018 93.250304 
L 355.257521 67.500604 
L 356.886575 66.751787 
L 358.515628 88.654724 
L 360.039581 110.855917 
L 361.668634 118.164292 
L 363.245137 152.881778 
L 364.87419 171.360477 
L 366.450694 166.648802 
L 368.079747 140.219961 
L 369.7088 142.267261 
L 371.285303 114.199565 
L 372.914356 96.738511 
L 374.49086 43.990949 
L 376.119913 33.271251 
L 377.748966 61.75891 
L 379.220369 93.168615 
L 380.849422 98.811573 
L 382.425925 112.549765 
L 384.054979 137.550114 
L 385.631482 137.637142 
L 387.260535 115.488972 
L 388.889588 108.609999 
L 390.466091 103.696103 
L 392.095145 79.065758 
L 392.095145 79.065758 
" clip-path="url(#pe91533a9c2)" style="fill: none; stroke: #ff7f0e; stroke-width: 1.5; stroke-linecap: square"/>
    <defs>
     <path id="m11a58ce8e6" d="M -3 3 
L 3 3 
L 3 -3 
L -3 -3 
z
" style="stroke: #ff7f0e; stroke-linejoin: miter"/>
    </defs>
    <g clip-path="url(#pe91533a9c2)">
     <use xlink:href="#m11a58ce8e6" x="241.749296" y="83.922525" style="fill: #ff7f0e; stroke: #ff7f0e; stroke-linejoin: miter"/>
     <use xlink:href="#m11a58ce8e6" x="243.378349" y="94.207034" style="fill: #ff7f0e; stroke: #ff7f0e; stroke-linejoin: miter"/>
     <use xlink:href="#m11a58ce8e6" x="244.849752" y="127.558143" style="fill: #ff7f0e; stroke: #ff7f0e; stroke-linejoin: miter"/>
     <use xlink:href="#m11a58ce8e6" x="246.478805" y="151.205015" style="fill: #ff7f0e; stroke: #ff7f0e; stroke-linejoin: miter"/>
     <use xlink:href="#m11a58ce8e6" x="248.055308" y="179.474798" style="fill: #ff7f0e; stroke: #ff7f0e; stroke-linejoin: miter"/>
     <use xlink:href="#m11a58ce8e6" x="249.684361" y="200.499208" style="fill: #ff7f0e; stroke: #ff7f0e; stroke-linejoin: miter"/>
     <use xlink:href="#m11a58ce8e6" x="251.260865" y="198.887983" style="fill: #ff7f0e; stroke: #ff7f0e; stroke-linejoin: miter"/>
     <use xlink:href="#m11a58ce8e6" x="252.889918" y="190.382702" style="fill: #ff7f0e; stroke: #ff7f0e; stroke-linejoin: miter"/>
     <use xlink:href="#m11a58ce8e6" x="254.518971" y="179.392041" style="fill: #ff7f0e; stroke: #ff7f0e; stroke-linejoin: miter"/>
     <use xlink:href="#m11a58ce8e6" x="256.095474" y="165.499548" style="fill: #ff7f0e; stroke: #ff7f0e; stroke-linejoin: miter"/>
     <use xlink:href="#m11a58ce8e6" x="257.724527" y="135.605325" style="fill: #ff7f0e; stroke: #ff7f0e; stroke-linejoin: miter"/>
     <use xlink:href="#m11a58ce8e6" x="259.301031" y="94.065594" style="fill: #ff7f0e; stroke: #ff7f0e; stroke-linejoin: miter"/>
     <use xlink:href="#m11a58ce8e6" x="260.930084" y="45.676789" style="fill: #ff7f0e; stroke: #ff7f0e; stroke-linejoin: miter"/>
     <use xlink:href="#m11a58ce8e6" x="262.559137" y="95.426221" style="fill: #ff7f0e; stroke: #ff7f0e; stroke-linejoin: miter"/>
     <use xlink:href="#m11a58ce8e6" x="264.03054" y="127.349916" style="fill: #ff7f0e; stroke: #ff7f0e; stroke-linejoin: miter"/>
     <use xlink:href="#m11a58ce8e6" x="265.659593" y="149.285053" style="fill: #ff7f0e; stroke: #ff7f0e; stroke-linejoin: miter"/>
     <use xlink:href="#m11a58ce8e6" x="267.236096" y="171.914548" style="fill: #ff7f0e; stroke: #ff7f0e; stroke-linejoin: miter"/>
     <use xlink:href="#m11a58ce8e6" x="268.86515" y="191.97524" style="fill: #ff7f0e; stroke: #ff7f0e; stroke-linejoin: miter"/>
     <use xlink:href="#m11a58ce8e6" x="270.441653" y="185.060894" style="fill: #ff7f0e; stroke: #ff7f0e; stroke-linejoin: miter"/>
     <use xlink:href="#m11a58ce8e6" x="272.070706" y="178.521758" style="fill: #ff7f0e; stroke: #ff7f0e; stroke-linejoin: miter"/>
     <use xlink:href="#m11a58ce8e6" x="273.699759" y="176.776921" style="fill: #ff7f0e; stroke: #ff7f0e; stroke-linejoin: miter"/>
     <use xlink:href="#m11a58ce8e6" x="275.276262" y="151.103838" style="fill: #ff7f0e; stroke: #ff7f0e; stroke-linejoin: miter"/>
     <use xlink:href="#m11a58ce8e6" x="276.905316" y="142.126575" style="fill: #ff7f0e; stroke: #ff7f0e; stroke-linejoin: miter"/>
     <use xlink:href="#m11a58ce8e6" x="278.481819" y="115.372846" style="fill: #ff7f0e; stroke: #ff7f0e; stroke-linejoin: miter"/>
     <use xlink:href="#m11a58ce8e6" x="280.110872" y="84.070687" style="fill: #ff7f0e; stroke: #ff7f0e; stroke-linejoin: miter"/>
     <use xlink:href="#m11a58ce8e6" x="281.739925" y="93.050831" style="fill: #ff7f0e; stroke: #ff7f0e; stroke-linejoin: miter"/>
     <use xlink:href="#m11a58ce8e6" x="283.263878" y="118.49225" style="fill: #ff7f0e; stroke: #ff7f0e; stroke-linejoin: miter"/>
     <use xlink:href="#m11a58ce8e6" x="284.892931" y="147.720946" style="fill: #ff7f0e; stroke: #ff7f0e; stroke-linejoin: miter"/>
     <use xlink:href="#m11a58ce8e6" x="286.469435" y="169.792232" style="fill: #ff7f0e; stroke: #ff7f0e; stroke-linejoin: miter"/>
     <use xlink:href="#m11a58ce8e6" x="288.098488" y="188.35876" style="fill: #ff7f0e; stroke: #ff7f0e; stroke-linejoin: miter"/>
     <use xlink:href="#m11a58ce8e6" x="289.674991" y="186.041965" style="fill: #ff7f0e; stroke: #ff7f0e; stroke-linejoin: miter"/>
     <use xlink:href="#m11a58ce8e6" x="291.304044" y="169.42383" style="fill: #ff7f0e; stroke: #ff7f0e; stroke-linejoin: miter"/>
     <use xlink:href="#m11a58ce8e6" x="292.933097" y="168.509499" style="fill: #ff7f0e; stroke: #ff7f0e; stroke-linejoin: miter"/>
     <use xlink:href="#m11a58ce8e6" x="294.509601" y="144.376497" style="fill: #ff7f0e; stroke: #ff7f0e; stroke-linejoin: miter"/>
     <use xlink:href="#m11a58ce8e6" x="296.138654" y="112.168549" style="fill: #ff7f0e; stroke: #ff7f0e; stroke-linejoin: miter"/>
     <use xlink:href="#m11a58ce8e6" x="297.715157" y="92.099448" style="fill: #ff7f0e; stroke: #ff7f0e; stroke-linejoin: miter"/>
     <use xlink:href="#m11a58ce8e6" x="299.34421" y="54.498415" style="fill: #ff7f0e; stroke: #ff7f0e; stroke-linejoin: miter"/>
     <use xlink:href="#m11a58ce8e6" x="300.973263" y="67.083435" style="fill: #ff7f0e; stroke: #ff7f0e; stroke-linejoin: miter"/>
     <use xlink:href="#m11a58ce8e6" x="302.444666" y="102.462757" style="fill: #ff7f0e; stroke: #ff7f0e; stroke-linejoin: miter"/>
     <use xlink:href="#m11a58ce8e6" x="304.07372" y="135.990145" style="fill: #ff7f0e; stroke: #ff7f0e; stroke-linejoin: miter"/>
     <use xlink:href="#m11a58ce8e6" x="305.650223" y="155.965143" style="fill: #ff7f0e; stroke: #ff7f0e; stroke-linejoin: miter"/>
     <use xlink:href="#m11a58ce8e6" x="307.279276" y="177.476217" style="fill: #ff7f0e; stroke: #ff7f0e; stroke-linejoin: miter"/>
     <use xlink:href="#m11a58ce8e6" x="308.855779" y="175.005922" style="fill: #ff7f0e; stroke: #ff7f0e; stroke-linejoin: miter"/>
     <use xlink:href="#m11a58ce8e6" x="310.484832" y="167.373593" style="fill: #ff7f0e; stroke: #ff7f0e; stroke-linejoin: miter"/>
     <use xlink:href="#m11a58ce8e6" x="312.113886" y="165.604729" style="fill: #ff7f0e; stroke: #ff7f0e; stroke-linejoin: miter"/>
     <use xlink:href="#m11a58ce8e6" x="313.690389" y="141.949848" style="fill: #ff7f0e; stroke: #ff7f0e; stroke-linejoin: miter"/>
     <use xlink:href="#m11a58ce8e6" x="315.319442" y="105.465234" style="fill: #ff7f0e; stroke: #ff7f0e; stroke-linejoin: miter"/>
     <use xlink:href="#m11a58ce8e6" x="316.895945" y="76.622559" style="fill: #ff7f0e; stroke: #ff7f0e; stroke-linejoin: miter"/>
     <use xlink:href="#m11a58ce8e6" x="318.524998" y="40.679335" style="fill: #ff7f0e; stroke: #ff7f0e; stroke-linejoin: miter"/>
     <use xlink:href="#m11a58ce8e6" x="320.154052" y="40.527312" style="fill: #ff7f0e; stroke: #ff7f0e; stroke-linejoin: miter"/>
     <use xlink:href="#m11a58ce8e6" x="321.625454" y="99.988057" style="fill: #ff7f0e; stroke: #ff7f0e; stroke-linejoin: miter"/>
     <use xlink:href="#m11a58ce8e6" x="323.254508" y="133.627433" style="fill: #ff7f0e; stroke: #ff7f0e; stroke-linejoin: miter"/>
     <use xlink:href="#m11a58ce8e6" x="324.831011" y="155.580723" style="fill: #ff7f0e; stroke: #ff7f0e; stroke-linejoin: miter"/>
     <use xlink:href="#m11a58ce8e6" x="326.460064" y="175.978316" style="fill: #ff7f0e; stroke: #ff7f0e; stroke-linejoin: miter"/>
     <use xlink:href="#m11a58ce8e6" x="328.036567" y="157.739079" style="fill: #ff7f0e; stroke: #ff7f0e; stroke-linejoin: miter"/>
     <use xlink:href="#m11a58ce8e6" x="329.66562" y="158.05142" style="fill: #ff7f0e; stroke: #ff7f0e; stroke-linejoin: miter"/>
     <use xlink:href="#m11a58ce8e6" x="331.294674" y="151.523629" style="fill: #ff7f0e; stroke: #ff7f0e; stroke-linejoin: miter"/>
     <use xlink:href="#m11a58ce8e6" x="332.871177" y="130.349189" style="fill: #ff7f0e; stroke: #ff7f0e; stroke-linejoin: miter"/>
     <use xlink:href="#m11a58ce8e6" x="334.50023" y="108.866546" style="fill: #ff7f0e; stroke: #ff7f0e; stroke-linejoin: miter"/>
     <use xlink:href="#m11a58ce8e6" x="336.076733" y="81.255615" style="fill: #ff7f0e; stroke: #ff7f0e; stroke-linejoin: miter"/>
     <use xlink:href="#m11a58ce8e6" x="337.705786" y="31.537359" style="fill: #ff7f0e; stroke: #ff7f0e; stroke-linejoin: miter"/>
     <use xlink:href="#m11a58ce8e6" x="339.33484" y="63.310603" style="fill: #ff7f0e; stroke: #ff7f0e; stroke-linejoin: miter"/>
     <use xlink:href="#m11a58ce8e6" x="340.806243" y="110.043029" style="fill: #ff7f0e; stroke: #ff7f0e; stroke-linejoin: miter"/>
     <use xlink:href="#m11a58ce8e6" x="342.435296" y="120.287008" style="fill: #ff7f0e; stroke: #ff7f0e; stroke-linejoin: miter"/>
     <use xlink:href="#m11a58ce8e6" x="344.011799" y="138.325894" style="fill: #ff7f0e; stroke: #ff7f0e; stroke-linejoin: miter"/>
     <use xlink:href="#m11a58ce8e6" x="345.640852" y="163.767524" style="fill: #ff7f0e; stroke: #ff7f0e; stroke-linejoin: miter"/>
     <use xlink:href="#m11a58ce8e6" x="347.217355" y="160.205771" style="fill: #ff7f0e; stroke: #ff7f0e; stroke-linejoin: miter"/>
     <use xlink:href="#m11a58ce8e6" x="348.846409" y="140.904708" style="fill: #ff7f0e; stroke: #ff7f0e; stroke-linejoin: miter"/>
     <use xlink:href="#m11a58ce8e6" x="350.475462" y="141.27004" style="fill: #ff7f0e; stroke: #ff7f0e; stroke-linejoin: miter"/>
     <use xlink:href="#m11a58ce8e6" x="352.051965" y="129.764551" style="fill: #ff7f0e; stroke: #ff7f0e; stroke-linejoin: miter"/>
     <use xlink:href="#m11a58ce8e6" x="353.681018" y="93.250304" style="fill: #ff7f0e; stroke: #ff7f0e; stroke-linejoin: miter"/>
     <use xlink:href="#m11a58ce8e6" x="355.257521" y="67.500604" style="fill: #ff7f0e; stroke: #ff7f0e; stroke-linejoin: miter"/>
     <use xlink:href="#m11a58ce8e6" x="356.886575" y="66.751787" style="fill: #ff7f0e; stroke: #ff7f0e; stroke-linejoin: miter"/>
     <use xlink:href="#m11a58ce8e6" x="358.515628" y="88.654724" style="fill: #ff7f0e; stroke: #ff7f0e; stroke-linejoin: miter"/>
     <use xlink:href="#m11a58ce8e6" x="360.039581" y="110.855917" style="fill: #ff7f0e; stroke: #ff7f0e; stroke-linejoin: miter"/>
     <use xlink:href="#m11a58ce8e6" x="361.668634" y="118.164292" style="fill: #ff7f0e; stroke: #ff7f0e; stroke-linejoin: miter"/>
     <use xlink:href="#m11a58ce8e6" x="363.245137" y="152.881778" style="fill: #ff7f0e; stroke: #ff7f0e; stroke-linejoin: miter"/>
     <use xlink:href="#m11a58ce8e6" x="364.87419" y="171.360477" style="fill: #ff7f0e; stroke: #ff7f0e; stroke-linejoin: miter"/>
     <use xlink:href="#m11a58ce8e6" x="366.450694" y="166.648802" style="fill: #ff7f0e; stroke: #ff7f0e; stroke-linejoin: miter"/>
     <use xlink:href="#m11a58ce8e6" x="368.079747" y="140.219961" style="fill: #ff7f0e; stroke: #ff7f0e; stroke-linejoin: miter"/>
     <use xlink:href="#m11a58ce8e6" x="369.7088" y="142.267261" style="fill: #ff7f0e; stroke: #ff7f0e; stroke-linejoin: miter"/>
     <use xlink:href="#m11a58ce8e6" x="371.285303" y="114.199565" style="fill: #ff7f0e; stroke: #ff7f0e; stroke-linejoin: miter"/>
     <use xlink:href="#m11a58ce8e6" x="372.914356" y="96.738511" style="fill: #ff7f0e; stroke: #ff7f0e; stroke-linejoin: miter"/>
     <use xlink:href="#m11a58ce8e6" x="374.49086" y="43.990949" style="fill: #ff7f0e; stroke: #ff7f0e; stroke-linejoin: miter"/>
     <use xlink:href="#m11a58ce8e6" x="376.119913" y="33.271251" style="fill: #ff7f0e; stroke: #ff7f0e; stroke-linejoin: miter"/>
     <use xlink:href="#m11a58ce8e6" x="377.748966" y="61.75891" style="fill: #ff7f0e; stroke: #ff7f0e; stroke-linejoin: miter"/>
     <use xlink:href="#m11a58ce8e6" x="379.220369" y="93.168615" style="fill: #ff7f0e; stroke: #ff7f0e; stroke-linejoin: miter"/>
     <use xlink:href="#m11a58ce8e6" x="380.849422" y="98.811573" style="fill: #ff7f0e; stroke: #ff7f0e; stroke-linejoin: miter"/>
     <use xlink:href="#m11a58ce8e6" x="382.425925" y="112.549765" style="fill: #ff7f0e; stroke: #ff7f0e; stroke-linejoin: miter"/>
     <use xlink:href="#m11a58ce8e6" x="384.054979" y="137.550114" style="fill: #ff7f0e; stroke: #ff7f0e; stroke-linejoin: miter"/>
     <use xlink:href="#m11a58ce8e6" x="385.631482" y="137.637142" style="fill: #ff7f0e; stroke: #ff7f0e; stroke-linejoin: miter"/>
     <use xlink:href="#m11a58ce8e6" x="387.260535" y="115.488972" style="fill: #ff7f0e; stroke: #ff7f0e; stroke-linejoin: miter"/>
     <use xlink:href="#m11a58ce8e6" x="388.889588" y="108.609999" style="fill: #ff7f0e; stroke: #ff7f0e; stroke-linejoin: miter"/>
     <use xlink:href="#m11a58ce8e6" x="390.466091" y="103.696103" style="fill: #ff7f0e; stroke: #ff7f0e; stroke-linejoin: miter"/>
     <use xlink:href="#m11a58ce8e6" x="392.095145" y="79.065758" style="fill: #ff7f0e; stroke: #ff7f0e; stroke-linejoin: miter"/>
    </g>
   </g>
   <g id="line2d_21">
    <path d="M 352.051965 125.652063 
L 353.681018 88.971768 
L 355.257521 73.787465 
L 356.886575 52.219929 
L 358.515628 82.422267 
L 360.039581 106.122751 
L 361.668634 114.212646 
L 363.245137 149.293863 
L 364.87419 167.752273 
L 366.450694 163.433293 
L 368.079747 136.435831 
L 369.7088 138.601127 
L 371.285303 110.619659 
L 372.914356 93.138582 
L 374.49086 49.965469 
L 376.119913 19.296 
L 379.220369 88.431445 
L 380.849422 94.322007 
L 382.425925 108.233054 
L 384.054979 133.362611 
L 385.631482 133.909074 
L 387.260535 111.556681 
L 388.889588 104.513529 
L 390.466091 99.635672 
L 392.095145 75.134802 
L 393.671648 46.597794 
L 393.671648 46.597794 
" clip-path="url(#pe91533a9c2)" style="fill: none; stroke: #2ca02c; stroke-width: 1.5; stroke-linecap: square"/>
    <defs>
     <path id="md5be8d3e85" d="M 0 -3 
L -0.673542 -0.927051 
L -2.85317 -0.927051 
L -1.089814 0.354102 
L -1.763356 2.427051 
L -0 1.145898 
L 1.763356 2.427051 
L 1.089814 0.354102 
L 2.85317 -0.927051 
L 0.673542 -0.927051 
z
" style="stroke: #2ca02c; stroke-linejoin: bevel"/>
    </defs>
    <g clip-path="url(#pe91533a9c2)">
     <use xlink:href="#md5be8d3e85" x="352.051965" y="125.652063" style="fill: #2ca02c; stroke: #2ca02c; stroke-linejoin: bevel"/>
     <use xlink:href="#md5be8d3e85" x="353.681018" y="88.971768" style="fill: #2ca02c; stroke: #2ca02c; stroke-linejoin: bevel"/>
     <use xlink:href="#md5be8d3e85" x="355.257521" y="73.787465" style="fill: #2ca02c; stroke: #2ca02c; stroke-linejoin: bevel"/>
     <use xlink:href="#md5be8d3e85" x="356.886575" y="52.219929" style="fill: #2ca02c; stroke: #2ca02c; stroke-linejoin: bevel"/>
     <use xlink:href="#md5be8d3e85" x="358.515628" y="82.422267" style="fill: #2ca02c; stroke: #2ca02c; stroke-linejoin: bevel"/>
     <use xlink:href="#md5be8d3e85" x="360.039581" y="106.122751" style="fill: #2ca02c; stroke: #2ca02c; stroke-linejoin: bevel"/>
     <use xlink:href="#md5be8d3e85" x="361.668634" y="114.212646" style="fill: #2ca02c; stroke: #2ca02c; stroke-linejoin: bevel"/>
     <use xlink:href="#md5be8d3e85" x="363.245137" y="149.293863" style="fill: #2ca02c; stroke: #2ca02c; stroke-linejoin: bevel"/>
     <use xlink:href="#md5be8d3e85" x="364.87419" y="167.752273" style="fill: #2ca02c; stroke: #2ca02c; stroke-linejoin: bevel"/>
     <use xlink:href="#md5be8d3e85" x="366.450694" y="163.433293" style="fill: #2ca02c; stroke: #2ca02c; stroke-linejoin: bevel"/>
     <use xlink:href="#md5be8d3e85" x="368.079747" y="136.435831" style="fill: #2ca02c; stroke: #2ca02c; stroke-linejoin: bevel"/>
     <use xlink:href="#md5be8d3e85" x="369.7088" y="138.601127" style="fill: #2ca02c; stroke: #2ca02c; stroke-linejoin: bevel"/>
     <use xlink:href="#md5be8d3e85" x="371.285303" y="110.619659" style="fill: #2ca02c; stroke: #2ca02c; stroke-linejoin: bevel"/>
     <use xlink:href="#md5be8d3e85" x="372.914356" y="93.138582" style="fill: #2ca02c; stroke: #2ca02c; stroke-linejoin: bevel"/>
     <use xlink:href="#md5be8d3e85" x="374.49086" y="49.965469" style="fill: #2ca02c; stroke: #2ca02c; stroke-linejoin: bevel"/>
     <use xlink:href="#md5be8d3e85" x="376.119913" y="19.296" style="fill: #2ca02c; stroke: #2ca02c; stroke-linejoin: bevel"/>
     <use xlink:href="#md5be8d3e85" x="377.748966" y="55.782674" style="fill: #2ca02c; stroke: #2ca02c; stroke-linejoin: bevel"/>
     <use xlink:href="#md5be8d3e85" x="379.220369" y="88.431445" style="fill: #2ca02c; stroke: #2ca02c; stroke-linejoin: bevel"/>
     <use xlink:href="#md5be8d3e85" x="380.849422" y="94.322007" style="fill: #2ca02c; stroke: #2ca02c; stroke-linejoin: bevel"/>
     <use xlink:href="#md5be8d3e85" x="382.425925" y="108.233054" style="fill: #2ca02c; stroke: #2ca02c; stroke-linejoin: bevel"/>
     <use xlink:href="#md5be8d3e85" x="384.054979" y="133.362611" style="fill: #2ca02c; stroke: #2ca02c; stroke-linejoin: bevel"/>
     <use xlink:href="#md5be8d3e85" x="385.631482" y="133.909074" style="fill: #2ca02c; stroke: #2ca02c; stroke-linejoin: bevel"/>
     <use xlink:href="#md5be8d3e85" x="387.260535" y="111.556681" style="fill: #2ca02c; stroke: #2ca02c; stroke-linejoin: bevel"/>
     <use xlink:href="#md5be8d3e85" x="388.889588" y="104.513529" style="fill: #2ca02c; stroke: #2ca02c; stroke-linejoin: bevel"/>
     <use xlink:href="#md5be8d3e85" x="390.466091" y="99.635672" style="fill: #2ca02c; stroke: #2ca02c; stroke-linejoin: bevel"/>
     <use xlink:href="#md5be8d3e85" x="392.095145" y="75.134802" style="fill: #2ca02c; stroke: #2ca02c; stroke-linejoin: bevel"/>
     <use xlink:href="#md5be8d3e85" x="393.671648" y="46.597794" style="fill: #2ca02c; stroke: #2ca02c; stroke-linejoin: bevel"/>
    </g>
   </g>
   <g id="patch_3">
    <path d="M 52.784375 273.312 
L 52.784375 7.2 
" style="fill: none; stroke: #000000; stroke-width: 0.8; stroke-linejoin: miter; stroke-linecap: square"/>
   </g>
   <g id="patch_4">
    <path d="M 409.904375 273.312 
L 409.904375 7.2 
" style="fill: none; stroke: #000000; stroke-width: 0.8; stroke-linejoin: miter; stroke-linecap: square"/>
   </g>
   <g id="patch_5">
    <path d="M 52.784375 273.312 
L 409.904375 273.312 
" style="fill: none; stroke: #000000; stroke-width: 0.8; stroke-linejoin: miter; stroke-linecap: square"/>
   </g>
   <g id="patch_6">
    <path d="M 52.784375 7.2 
L 409.904375 7.2 
" style="fill: none; stroke: #000000; stroke-width: 0.8; stroke-linejoin: miter; stroke-linecap: square"/>
   </g>
   <g id="legend_1">
    <g id="patch_7">
     <path d="M 59.784375 58.371875 
L 121.784375 58.371875 
Q 123.784375 58.371875 123.784375 56.371875 
L 123.784375 14.2 
Q 123.784375 12.2 121.784375 12.2 
L 59.784375 12.2 
Q 57.784375 12.2 57.784375 14.2 
L 57.784375 56.371875 
Q 57.784375 58.371875 59.784375 58.371875 
z
" style="fill: #ffffff; opacity: 0.8; stroke: #cccccc; stroke-linejoin: miter"/>
    </g>
    <g id="line2d_22">
     <path d="M 61.784375 20.190625 
L 71.784375 20.190625 
L 81.784375 20.190625 
" style="fill: none; stroke: #1f77b4; stroke-width: 1.5; stroke-linecap: square"/>
     <g>
      <use xlink:href="#md97d046e85" x="71.784375" y="20.190625" style="fill: #1f77b4; stroke: #1f77b4"/>
     </g>
    </g>
    <g id="text_20">
     <!-- 確定数 -->
     <g transform="translate(89.784375 23.690625)scale(0.1 -0.1)">
      <defs>
       <path id="IPAexGothic-78ba" d="M 4347 3219 
Q 4516 3538 4647 3956 
L 5075 3853 
Q 4875 3431 4750 3219 
L 5888 3219 
L 5888 2847 
L 4700 2847 
L 4700 2222 
L 5741 2222 
L 5741 1869 
L 4700 1869 
L 4700 1250 
L 5741 1250 
L 5741 897 
L 4700 897 
L 4700 231 
L 6034 231 
L 6034 -141 
L 3463 -141 
L 3463 -447 
L 3047 -447 
L 3047 2444 
Q 2756 2019 2484 1703 
L 2284 2100 
Q 3159 3197 3506 4147 
L 2913 4147 
L 2913 3425 
L 2509 3425 
L 2509 4519 
L 3634 4519 
Q 3750 4903 3847 5319 
L 4269 5241 
Q 4175 4834 4072 4519 
L 5934 4519 
L 5934 3425 
L 5525 3425 
L 5525 4147 
L 3938 4147 
Q 3747 3647 3513 3219 
L 4347 3219 
z
M 4297 2847 
L 3463 2847 
L 3463 2222 
L 4297 2222 
L 4297 2847 
z
M 4297 1869 
L 3463 1869 
L 3463 1250 
L 4297 1250 
L 4297 1869 
z
M 4297 897 
L 3463 897 
L 3463 231 
L 4297 231 
L 4297 897 
z
M 1159 2944 
L 2275 2944 
L 2275 197 
L 1213 197 
L 1213 -328 
L 816 -328 
L 816 2206 
Q 650 1903 394 1522 
L 188 1919 
Q 931 3013 1200 4416 
L 406 4416 
L 406 4819 
L 2409 4819 
L 2409 4416 
L 1616 4416 
L 1597 4353 
Q 1456 3663 1159 2944 
z
M 1213 2553 
L 1213 588 
L 1878 588 
L 1878 2553 
L 1213 2553 
z
" transform="scale(0.015625)"/>
       <path id="IPAexGothic-5b9a" d="M 3431 303 
Q 3931 225 4709 225 
Q 5191 225 6053 263 
Q 5963 59 5888 -228 
Q 5234 -250 4844 -250 
Q 3569 -250 3003 -78 
Q 2259 153 1750 903 
Q 1441 163 806 -459 
L 475 -75 
Q 1416 759 1684 2419 
L 2125 2303 
Q 2031 1756 1909 1356 
Q 2338 678 2972 416 
L 2972 2944 
L 1434 2944 
L 1434 3353 
L 4959 3353 
L 4959 2944 
L 3431 2944 
L 3431 1984 
L 5397 1984 
L 5397 1569 
L 3431 1569 
L 3431 303 
z
M 3419 4428 
L 5750 4428 
L 5750 3166 
L 5275 3166 
L 5275 4025 
L 1122 4025 
L 1122 3166 
L 647 3166 
L 647 4428 
L 2938 4428 
L 2938 5313 
L 3419 5313 
L 3419 4428 
z
" transform="scale(0.015625)"/>
      </defs>
      <use xlink:href="#IPAexGothic-78ba"/>
      <use xlink:href="#IPAexGothic-5b9a" x="100"/>
      <use xlink:href="#IPAexGothic-6570" x="200"/>
     </g>
    </g>
    <g id="line2d_23">
     <path d="M 61.784375 34.58125 
L 71.784375 34.58125 
L 81.784375 34.58125 
" style="fill: none; stroke: #ff7f0e; stroke-width: 1.5; stroke-linecap: square"/>
     <g>
      <use xlink:href="#m11a58ce8e6" x="71.784375" y="34.58125" style="fill: #ff7f0e; stroke: #ff7f0e; stroke-linejoin: miter"/>
     </g>
    </g>
    <g id="text_21">
     <!-- 概数 -->
     <g transform="translate(89.784375 38.08125)scale(0.1 -0.1)">
      <defs>
       <path id="IPAexGothic-6982" d="M 1119 2613 
Q 806 1556 381 850 
L 153 1300 
Q 753 2272 1063 3603 
L 294 3603 
L 294 4013 
L 1119 4013 
L 1119 5306 
L 1522 5306 
L 1522 4013 
L 2078 4013 
L 2078 3603 
L 1522 3603 
L 1522 2956 
Q 1900 2569 2231 2181 
L 1997 1772 
Q 1769 2153 1522 2478 
L 1522 -447 
L 1119 -447 
L 1119 2613 
z
M 5391 4563 
Q 5372 3697 5275 2881 
L 6081 2881 
L 6081 2491 
L 5209 2491 
Q 5209 2484 5103 2066 
L 5294 2066 
L 5294 191 
Q 5294 50 5441 50 
Q 5584 50 5613 197 
Q 5663 397 5672 972 
L 6063 825 
Q 6053 22 5922 -194 
Q 5794 -378 5447 -378 
Q 5069 -378 4975 -281 
Q 4897 -206 4897 19 
L 4897 1497 
Q 4434 369 3253 -506 
L 2963 -172 
Q 4488 872 4813 2491 
L 3706 2491 
L 3706 2206 
L 2631 2206 
L 2631 800 
Q 3088 1053 3425 1259 
Q 3259 1597 3097 1834 
L 3419 2009 
Q 3778 1469 4019 922 
L 3681 653 
Q 3644 747 3566 947 
Q 2859 444 2028 -6 
L 1806 409 
Q 2169 566 2247 606 
L 2247 5050 
L 3706 5050 
L 3706 2881 
L 4159 2881 
L 4159 4563 
L 3878 4563 
L 3878 4953 
L 5881 4953 
L 5881 4563 
L 5391 4563 
z
M 5006 4563 
L 4531 4563 
L 4531 2881 
L 4884 2881 
Q 4984 3706 5006 4563 
z
M 3328 4666 
L 2631 4666 
L 2631 3834 
L 3328 3834 
L 3328 4666 
z
M 3328 3463 
L 2631 3463 
L 2631 2591 
L 3328 2591 
L 3328 3463 
z
" transform="scale(0.015625)"/>
      </defs>
      <use xlink:href="#IPAexGothic-6982"/>
      <use xlink:href="#IPAexGothic-6570" x="100"/>
     </g>
    </g>
    <g id="line2d_24">
     <path d="M 61.784375 48.971875 
L 71.784375 48.971875 
L 81.784375 48.971875 
" style="fill: none; stroke: #2ca02c; stroke-width: 1.5; stroke-linecap: square"/>
     <g>
      <use xlink:href="#md5be8d3e85" x="71.784375" y="48.971875" style="fill: #2ca02c; stroke: #2ca02c; stroke-linejoin: bevel"/>
     </g>
    </g>
    <g id="text_22">
     <!-- 速報値 -->
     <g transform="translate(89.784375 52.471875)scale(0.1 -0.1)">
      <defs>
       <path id="IPAexGothic-901f" d="M 3766 1809 
Q 3256 1066 2481 569 
L 2175 913 
Q 3125 1413 3644 2206 
L 2406 2206 
L 2406 3641 
L 3766 3641 
L 3766 4172 
L 2047 4172 
L 2047 4569 
L 3766 4569 
L 3766 5313 
L 4194 5313 
L 4194 4569 
L 5913 4569 
L 5913 4172 
L 4194 4172 
L 4194 3641 
L 5553 3641 
L 5553 2206 
L 4194 2206 
L 4194 2034 
L 4250 2009 
Q 4988 1653 5803 1125 
L 5497 753 
Q 4834 1244 4194 1638 
L 4194 350 
L 3766 350 
L 3766 1809 
z
M 3766 3269 
L 2822 3269 
L 2822 2578 
L 3766 2578 
L 3766 3269 
z
M 4194 3269 
L 4194 2578 
L 5138 2578 
L 5138 3269 
L 4194 3269 
z
M 1831 781 
Q 2084 456 2450 319 
Q 2903 147 4134 147 
Q 5069 147 6119 222 
Q 6000 9 5944 -263 
Q 5025 -294 4428 -294 
Q 2800 -294 2272 -63 
Q 1869 119 1600 491 
Q 1131 -53 666 -444 
L 372 44 
Q 881 344 1378 775 
L 1378 2303 
L 397 2303 
L 397 2731 
L 1831 2731 
L 1831 781 
z
M 1619 3622 
Q 1206 4169 619 4697 
L 959 4991 
Q 1488 4581 1972 3975 
L 1619 3622 
z
" transform="scale(0.015625)"/>
       <path id="IPAexGothic-5831" d="M 2741 3084 
Q 2600 2594 2428 2203 
L 3175 2203 
L 3175 1819 
L 2013 1819 
L 2013 1134 
L 3100 1134 
L 3100 750 
L 2013 750 
L 2013 -447 
L 1572 -447 
L 1572 750 
L 522 750 
L 522 1134 
L 1572 1134 
L 1572 1819 
L 438 1819 
L 438 2203 
L 1128 2203 
Q 994 2800 884 3084 
L 297 3084 
L 297 3469 
L 1572 3469 
L 1572 4134 
L 578 4134 
L 578 4519 
L 1572 4519 
L 1572 5313 
L 2013 5313 
L 2013 4519 
L 3028 4519 
L 3028 4134 
L 2013 4134 
L 2013 3469 
L 3169 3469 
L 3169 3084 
L 2741 3084 
z
M 2300 3084 
L 1309 3084 
Q 1469 2606 1544 2203 
L 2013 2203 
Q 2194 2606 2300 3084 
z
M 5684 4991 
L 5684 3591 
Q 5684 3316 5575 3219 
Q 5466 3128 5159 3128 
Q 4834 3128 4441 3166 
L 4391 3597 
Q 4763 3538 5019 3538 
Q 5256 3538 5256 3769 
L 5256 4594 
L 3800 4594 
L 3800 2741 
L 5594 2741 
L 5831 2550 
Q 5659 1603 5203 806 
Q 5544 331 6131 -6 
L 5856 -416 
Q 5319 -22 4959 425 
Q 4588 -94 4116 -497 
L 3828 -147 
Q 4319 231 4697 775 
Q 4169 1516 3969 2350 
L 3800 2350 
L 3800 -447 
L 3375 -447 
L 3375 4991 
L 5684 4991 
z
M 4353 2350 
Q 4503 1794 4922 1153 
Q 5228 1716 5350 2350 
L 4353 2350 
z
" transform="scale(0.015625)"/>
       <path id="IPAexGothic-5024" d="M 4172 3675 
L 5453 3675 
L 5453 684 
L 3019 684 
L 3019 3675 
L 3750 3675 
Q 3788 3884 3825 4153 
L 2141 4153 
L 2141 4544 
L 3884 4544 
Q 3922 4844 3966 5325 
L 4434 5272 
L 4388 4953 
Q 4331 4578 4331 4544 
L 5863 4544 
L 5863 4153 
L 4269 4153 
Q 4200 3781 4172 3675 
z
M 5038 3316 
L 3434 3316 
L 3434 2803 
L 5038 2803 
L 5038 3316 
z
M 3434 2450 
L 3434 1941 
L 5038 1941 
L 5038 2450 
L 3434 2450 
z
M 3434 1588 
L 3434 1044 
L 5038 1044 
L 5038 1588 
L 3434 1588 
z
M 1509 3669 
L 1509 -447 
L 1069 -447 
L 1069 2725 
Q 856 2338 531 1875 
L 288 2266 
Q 1163 3531 1541 5325 
L 1975 5222 
Q 1791 4378 1509 3669 
z
M 2488 244 
L 6031 244 
L 6031 -153 
L 2488 -153 
L 2488 -447 
L 2059 -447 
L 2059 3213 
L 2488 3213 
L 2488 244 
z
" transform="scale(0.015625)"/>
      </defs>
      <use xlink:href="#IPAexGothic-901f"/>
      <use xlink:href="#IPAexGothic-5831" x="100"/>
      <use xlink:href="#IPAexGothic-5024" x="200"/>
     </g>
    </g>
   </g>
  </g>
 </g>
 <defs>
  <clipPath id="pe91533a9c2">
   <rect x="52.784375" y="7.2" width="357.12" height="266.112"/>
  </clipPath>
 </defs>
</svg>
