<?xml version="1.0" encoding="utf-8" standalone="no"?>
<!DOCTYPE svg PUBLIC "-//W3C//DTD SVG 1.1//EN"
  "http://www.w3.org/Graphics/SVG/1.1/DTD/svg11.dtd">
<!-- Created with matplotlib (https://matplotlib.org/) -->
<svg height="296.902625pt" version="1.1" viewBox="0 0 417.104375 296.902625" width="417.104375pt" xmlns="http://www.w3.org/2000/svg" xmlns:xlink="http://www.w3.org/1999/xlink">
 <metadata>
  <rdf:RDF xmlns:cc="http://creativecommons.org/ns#" xmlns:dc="http://purl.org/dc/elements/1.1/" xmlns:rdf="http://www.w3.org/1999/02/22-rdf-syntax-ns#">
   <cc:Work>
    <dc:type rdf:resource="http://purl.org/dc/dcmitype/StillImage"/>
    <dc:date>2020-07-29T18:58:56.058306</dc:date>
    <dc:format>image/svg+xml</dc:format>
    <dc:creator>
     <cc:Agent>
      <dc:title>Matplotlib v3.3.0, https://matplotlib.org/</dc:title>
     </cc:Agent>
    </dc:creator>
   </cc:Work>
  </rdf:RDF>
 </metadata>
 <defs>
  <style type="text/css">*{stroke-linecap:butt;stroke-linejoin:round;}</style>
 </defs>
 <g id="figure_1">
  <g id="patch_1">
   <path d="M 0 296.902625 
L 417.104375 296.902625 
L 417.104375 0 
L 0 0 
z
" style="fill:#ffffff;"/>
  </g>
  <g id="axes_1">
   <g id="patch_2">
    <path d="M 52.784375 273.312 
L 409.904375 273.312 
L 409.904375 7.2 
L 52.784375 7.2 
z
" style="fill:#ffffff;"/>
   </g>
   <g id="matplotlib.axis_1">
    <g id="xtick_1">
     <g id="line2d_1">
      <defs>
       <path d="M 0 0 
L 0 3.5 
" id="mfef7d8564e" style="stroke:#000000;stroke-width:0.8;"/>
      </defs>
      <g>
       <use style="stroke:#000000;stroke-width:0.8;" x="69.017102" xlink:href="#mfef7d8564e" y="273.312"/>
      </g>
     </g>
     <g id="text_1">
      <!-- 2014 -->
      <g transform="translate(56.420227 287.802625)scale(0.1 -0.1)">
       <defs>
        <path d="M 57.171875 0.984375 
L 6.984375 0.984375 
L 6.984375 9.28125 
Q 12.890625 23.046875 29.59375 34.421875 
L 32.375 36.28125 
Q 40.921875 42.140625 43.609375 45.40625 
Q 46.6875 49.265625 46.6875 53.8125 
Q 46.6875 58.9375 43.0625 62.546875 
Q 39.0625 66.546875 32.5625 66.546875 
Q 19.53125 66.546875 15.484375 52 
L 7.765625 54.78125 
Q 13.328125 73.828125 33.0625 73.828125 
Q 43.84375 73.828125 50.25 67.4375 
Q 55.859375 61.671875 55.859375 53.515625 
Q 55.859375 47.46875 52.25 42.53125 
Q 48.921875 37.75 36.96875 30.28125 
L 34.859375 29 
Q 19.625 19.578125 15.28125 8.890625 
L 57.171875 8.890625 
z
" id="IPAexGothic-50"/>
        <path d="M 31.84375 73.828125 
Q 45.015625 73.828125 52.09375 61.625 
Q 57.71875 51.953125 57.71875 36.625 
Q 57.71875 21.4375 52.09375 11.578125 
Q 45.125 -0.484375 31.5 -0.484375 
Q 17.921875 -0.484375 10.9375 11.578125 
Q 5.328125 21.4375 5.328125 36.71875 
Q 5.328125 58.015625 15.625 67.71875 
Q 22.171875 73.828125 31.84375 73.828125 
z
M 31.5 66.65625 
Q 23.6875 66.65625 19.1875 58.734375 
Q 14.59375 50.734375 14.59375 36.625 
Q 14.59375 22.75 19.09375 14.796875 
Q 23.640625 6.984375 31.5 6.984375 
Q 40.921875 6.984375 45.453125 18.015625 
Q 48.4375 25.34375 48.4375 37.109375 
Q 48.4375 50.875 43.84375 58.734375 
Q 39.203125 66.65625 31.5 66.65625 
z
" id="IPAexGothic-48"/>
        <path d="M 38.484375 0.984375 
L 29.6875 0.984375 
L 29.6875 64.109375 
Q 21.4375 61.28125 12.3125 59.328125 
L 10.6875 66.109375 
Q 23.734375 69.390625 32.90625 73.921875 
L 38.484375 73.921875 
z
" id="IPAexGothic-49"/>
        <path d="M 59.578125 18.109375 
L 47.796875 18.109375 
L 47.796875 0.984375 
L 39.796875 0.984375 
L 39.796875 18.109375 
L 3.078125 18.109375 
L 3.078125 26.125 
L 38.375 73.09375 
L 47.796875 73.09375 
L 47.796875 25.53125 
L 59.578125 25.53125 
z
M 40.28125 64.203125 
L 39.984375 64.203125 
Q 35.59375 57.125 31.296875 51.3125 
L 11.859375 25.53125 
L 39.796875 25.53125 
L 39.796875 49.125 
Q 39.796875 54.390625 40.28125 64.203125 
z
" id="IPAexGothic-52"/>
       </defs>
       <use xlink:href="#IPAexGothic-50"/>
       <use x="62.988281" xlink:href="#IPAexGothic-48"/>
       <use x="125.976562" xlink:href="#IPAexGothic-49"/>
       <use x="188.964844" xlink:href="#IPAexGothic-52"/>
      </g>
     </g>
    </g>
    <g id="xtick_2">
     <g id="line2d_2">
      <g>
       <use style="stroke:#000000;stroke-width:0.8;" x="120.270956" xlink:href="#mfef7d8564e" y="273.312"/>
      </g>
     </g>
     <g id="text_2">
      <!-- 2015 -->
      <g transform="translate(107.674081 287.802625)scale(0.1 -0.1)">
       <defs>
        <path d="M 18.40625 40.671875 
Q 25.53125 46.296875 33.9375 46.296875 
Q 44 46.296875 50.640625 39.5 
Q 56.84375 33.015625 56.84375 23.390625 
Q 56.84375 14.65625 51.515625 8.015625 
Q 44.828125 -0.484375 31.734375 -0.484375 
Q 14.984375 -0.484375 7.328125 12.25 
L 14.65625 16.0625 
Q 20.453125 6.78125 31.453125 6.78125 
Q 38.53125 6.78125 43.265625 11.1875 
Q 48.140625 15.828125 48.140625 23.484375 
Q 48.140625 30.71875 43.84375 35.015625 
Q 39.359375 39.5 32.125 39.5 
Q 21.96875 39.5 16.75 31.6875 
L 9.234375 32.671875 
L 13.8125 72.40625 
L 53.21875 72.40625 
L 53.21875 64.890625 
L 20.953125 64.890625 
L 17.71875 40.671875 
z
" id="IPAexGothic-53"/>
       </defs>
       <use xlink:href="#IPAexGothic-50"/>
       <use x="62.988281" xlink:href="#IPAexGothic-48"/>
       <use x="125.976562" xlink:href="#IPAexGothic-49"/>
       <use x="188.964844" xlink:href="#IPAexGothic-53"/>
      </g>
     </g>
    </g>
    <g id="xtick_3">
     <g id="line2d_3">
      <g>
       <use style="stroke:#000000;stroke-width:0.8;" x="171.524809" xlink:href="#mfef7d8564e" y="273.312"/>
      </g>
     </g>
     <g id="text_3">
      <!-- 2016 -->
      <g transform="translate(158.927934 287.802625)scale(0.1 -0.1)">
       <defs>
        <path d="M 16.5 36.375 
Q 23.578125 46.578125 34.90625 46.578125 
Q 45.40625 46.578125 51.8125 39.265625 
Q 57.421875 32.90625 57.421875 23.78125 
Q 57.421875 13.8125 51.125 6.78125 
Q 44.578125 -0.484375 34.03125 -0.484375 
Q 21.484375 -0.484375 14.40625 9.078125 
Q 7.515625 18.40625 7.515625 34.8125 
Q 7.515625 53.515625 15.828125 64.203125 
Q 23.34375 73.828125 35.5 73.828125 
Q 49.859375 73.828125 56.390625 62.890625 
L 49.21875 58.984375 
Q 45.21875 66.65625 35.9375 66.65625 
Q 17.484375 66.65625 16.109375 36.375 
z
M 33.453125 39.796875 
Q 26.3125 39.796875 21.625 34.46875 
Q 17.4375 29.6875 17.4375 24.078125 
Q 17.4375 18.0625 21.140625 13.1875 
Q 26.125 6.6875 33.734375 6.6875 
Q 41.703125 6.6875 45.953125 13.1875 
Q 48.828125 17.625 48.828125 23.484375 
Q 48.828125 30.375 45.015625 34.8125 
Q 40.625 39.796875 33.453125 39.796875 
z
" id="IPAexGothic-54"/>
       </defs>
       <use xlink:href="#IPAexGothic-50"/>
       <use x="62.988281" xlink:href="#IPAexGothic-48"/>
       <use x="125.976562" xlink:href="#IPAexGothic-49"/>
       <use x="188.964844" xlink:href="#IPAexGothic-54"/>
      </g>
     </g>
    </g>
    <g id="xtick_4">
     <g id="line2d_4">
      <g>
       <use style="stroke:#000000;stroke-width:0.8;" x="222.919084" xlink:href="#mfef7d8564e" y="273.312"/>
      </g>
     </g>
     <g id="text_4">
      <!-- 2017 -->
      <g transform="translate(210.322209 287.802625)scale(0.1 -0.1)">
       <defs>
        <path d="M 56.203125 66.609375 
Q 34.96875 32.90625 27.78125 0.984375 
L 17.671875 0.984375 
Q 24.703125 28.65625 46.09375 64.5 
L 6.6875 64.5 
L 6.6875 72.40625 
L 56.203125 72.40625 
z
" id="IPAexGothic-55"/>
       </defs>
       <use xlink:href="#IPAexGothic-50"/>
       <use x="62.988281" xlink:href="#IPAexGothic-48"/>
       <use x="125.976562" xlink:href="#IPAexGothic-49"/>
       <use x="188.964844" xlink:href="#IPAexGothic-55"/>
      </g>
     </g>
    </g>
    <g id="xtick_5">
     <g id="line2d_5">
      <g>
       <use style="stroke:#000000;stroke-width:0.8;" x="274.172937" xlink:href="#mfef7d8564e" y="273.312"/>
      </g>
     </g>
     <g id="text_5">
      <!-- 2018 -->
      <g transform="translate(261.576062 287.802625)scale(0.1 -0.1)">
       <defs>
        <path d="M 39.703125 37.890625 
Q 57.8125 31.734375 57.8125 18.703125 
Q 57.8125 8.453125 48.4375 3.078125 
Q 41.609375 -0.875 31.5 -0.875 
Q 21.34375 -0.875 14.5 3.078125 
Q 5.421875 8.296875 5.421875 18.40625 
Q 5.421875 31.0625 22.015625 37.203125 
L 22.015625 37.5 
Q 7.515625 42.71875 7.515625 54.828125 
Q 7.515625 64.0625 15.328125 69.625 
Q 21.96875 74.3125 31.546875 74.3125 
Q 42.234375 74.3125 48.921875 68.796875 
Q 55.515625 63.578125 55.515625 55.71875 
Q 55.515625 42.28125 39.703125 38.1875 
z
M 31.59375 41.015625 
Q 46.828125 44.625 46.828125 55.125 
Q 46.828125 61.1875 41.796875 64.84375 
Q 37.703125 67.921875 31.5 67.921875 
Q 25.09375 67.921875 20.796875 64.5 
Q 16.40625 60.890625 16.40625 55.03125 
Q 16.40625 49.21875 21.09375 45.703125 
Q 23.34375 43.890625 26.90625 42.53125 
Q 31 40.875 31.59375 41.015625 
z
M 30.90625 34.515625 
Q 14.40625 30.171875 14.40625 19 
Q 14.40625 12.109375 20.515625 8.6875 
Q 25.09375 6.109375 31.390625 6.109375 
Q 40.234375 6.109375 45.015625 10.890625 
Q 48.53125 14.40625 48.53125 19.53125 
Q 48.53125 24.90625 43.65625 28.90625 
Q 40.765625 31.15625 36.71875 32.8125 
Q 31.984375 34.71875 30.90625 34.515625 
z
" id="IPAexGothic-56"/>
       </defs>
       <use xlink:href="#IPAexGothic-50"/>
       <use x="62.988281" xlink:href="#IPAexGothic-48"/>
       <use x="125.976562" xlink:href="#IPAexGothic-49"/>
       <use x="188.964844" xlink:href="#IPAexGothic-56"/>
      </g>
     </g>
    </g>
    <g id="xtick_6">
     <g id="line2d_6">
      <g>
       <use style="stroke:#000000;stroke-width:0.8;" x="325.426791" xlink:href="#mfef7d8564e" y="273.312"/>
      </g>
     </g>
     <g id="text_6">
      <!-- 2019 -->
      <g transform="translate(312.829916 287.802625)scale(0.1 -0.1)">
       <defs>
        <path d="M 46.625 36.8125 
Q 39.75 26.8125 28.328125 26.8125 
Q 19.578125 26.8125 13.234375 32.125 
Q 5.71875 38.421875 5.71875 49.421875 
Q 5.71875 59.578125 12.015625 66.65625 
Q 18.453125 73.828125 29.203125 73.828125 
Q 43.75 73.828125 50.640625 61.71875 
Q 55.609375 52.78125 55.609375 38.625 
Q 55.609375 19.53125 47.515625 9.1875 
Q 39.890625 -0.484375 27.640625 -0.484375 
Q 13.421875 -0.484375 6.109375 10.984375 
L 13.328125 14.890625 
Q 18.0625 6.6875 27.390625 6.6875 
Q 45.65625 6.6875 47.015625 36.8125 
z
M 29.5 66.84375 
Q 22.65625 66.84375 18.3125 61.71875 
Q 14.40625 57.078125 14.40625 50 
Q 14.40625 42.828125 18.109375 38.71875 
Q 22.40625 33.796875 29.78125 33.796875 
Q 37.984375 33.796875 42.625 40.1875 
Q 45.703125 44.484375 45.703125 49.515625 
Q 45.703125 55.515625 42.09375 60.359375 
Q 37.109375 66.84375 29.5 66.84375 
z
" id="IPAexGothic-57"/>
       </defs>
       <use xlink:href="#IPAexGothic-50"/>
       <use x="62.988281" xlink:href="#IPAexGothic-48"/>
       <use x="125.976562" xlink:href="#IPAexGothic-49"/>
       <use x="188.964844" xlink:href="#IPAexGothic-57"/>
      </g>
     </g>
    </g>
    <g id="xtick_7">
     <g id="line2d_7">
      <g>
       <use style="stroke:#000000;stroke-width:0.8;" x="376.680644" xlink:href="#mfef7d8564e" y="273.312"/>
      </g>
     </g>
     <g id="text_7">
      <!-- 2020 -->
      <g transform="translate(364.083769 287.802625)scale(0.1 -0.1)">
       <use xlink:href="#IPAexGothic-50"/>
       <use x="62.988281" xlink:href="#IPAexGothic-48"/>
       <use x="125.976562" xlink:href="#IPAexGothic-50"/>
       <use x="188.964844" xlink:href="#IPAexGothic-48"/>
      </g>
     </g>
    </g>
   </g>
   <g id="matplotlib.axis_2">
    <g id="ytick_1">
     <g id="line2d_8">
      <defs>
       <path d="M 0 0 
L -3.5 0 
" id="ma7ca3fd71b" style="stroke:#000000;stroke-width:0.8;"/>
      </defs>
      <g>
       <use style="stroke:#000000;stroke-width:0.8;" x="52.784375" xlink:href="#ma7ca3fd71b" y="241.671485"/>
      </g>
     </g>
     <g id="text_8">
      <!-- 3200 -->
      <g transform="translate(20.590625 245.416797)scale(0.1 -0.1)">
       <defs>
        <path d="M 37.203125 37.796875 
Q 54.78125 34.625 54.78125 19.96875 
Q 54.78125 11.1875 48.875 5.5625 
Q 42.328125 -0.484375 30.375 -0.484375 
Q 12.453125 -0.484375 4.5 13.765625 
L 11.8125 17.671875 
Q 17.328125 6.890625 30.28125 6.890625 
Q 37.890625 6.890625 42.09375 10.796875 
Q 46.09375 14.5 46.09375 20.171875 
Q 46.09375 26.859375 40.09375 30.90625 
Q 34.625 34.578125 25.6875 34.578125 
L 21.296875 34.578125 
L 21.296875 41.703125 
L 25.875 41.703125 
Q 34.859375 41.703125 39.59375 45.125 
Q 44.671875 48.734375 44.671875 54.828125 
Q 44.671875 61.46875 38.96875 64.65625 
Q 35.296875 66.84375 30.171875 66.84375 
Q 19.34375 66.84375 14.109375 55.90625 
L 6.78125 59.421875 
Q 14.015625 73.828125 30.28125 73.828125 
Q 40.578125 73.828125 46.96875 68.65625 
Q 53.375 63.578125 53.375 55.21875 
Q 53.375 47.3125 47.171875 42.28125 
Q 43.171875 39.0625 37.203125 38.1875 
z
" id="IPAexGothic-51"/>
       </defs>
       <use xlink:href="#IPAexGothic-51"/>
       <use x="62.988281" xlink:href="#IPAexGothic-50"/>
       <use x="125.976562" xlink:href="#IPAexGothic-48"/>
       <use x="188.964844" xlink:href="#IPAexGothic-48"/>
      </g>
     </g>
    </g>
    <g id="ytick_2">
     <g id="line2d_9">
      <g>
       <use style="stroke:#000000;stroke-width:0.8;" x="52.784375" xlink:href="#ma7ca3fd71b" y="205.941109"/>
      </g>
     </g>
     <g id="text_9">
      <!-- 3400 -->
      <g transform="translate(20.590625 209.686421)scale(0.1 -0.1)">
       <use xlink:href="#IPAexGothic-51"/>
       <use x="62.988281" xlink:href="#IPAexGothic-52"/>
       <use x="125.976562" xlink:href="#IPAexGothic-48"/>
       <use x="188.964844" xlink:href="#IPAexGothic-48"/>
      </g>
     </g>
    </g>
    <g id="ytick_3">
     <g id="line2d_10">
      <g>
       <use style="stroke:#000000;stroke-width:0.8;" x="52.784375" xlink:href="#ma7ca3fd71b" y="170.210733"/>
      </g>
     </g>
     <g id="text_10">
      <!-- 3600 -->
      <g transform="translate(20.590625 173.956046)scale(0.1 -0.1)">
       <use xlink:href="#IPAexGothic-51"/>
       <use x="62.988281" xlink:href="#IPAexGothic-54"/>
       <use x="125.976562" xlink:href="#IPAexGothic-48"/>
       <use x="188.964844" xlink:href="#IPAexGothic-48"/>
      </g>
     </g>
    </g>
    <g id="ytick_4">
     <g id="line2d_11">
      <g>
       <use style="stroke:#000000;stroke-width:0.8;" x="52.784375" xlink:href="#ma7ca3fd71b" y="134.480358"/>
      </g>
     </g>
     <g id="text_11">
      <!-- 3800 -->
      <g transform="translate(20.590625 138.22567)scale(0.1 -0.1)">
       <use xlink:href="#IPAexGothic-51"/>
       <use x="62.988281" xlink:href="#IPAexGothic-56"/>
       <use x="125.976562" xlink:href="#IPAexGothic-48"/>
       <use x="188.964844" xlink:href="#IPAexGothic-48"/>
      </g>
     </g>
    </g>
    <g id="ytick_5">
     <g id="line2d_12">
      <g>
       <use style="stroke:#000000;stroke-width:0.8;" x="52.784375" xlink:href="#ma7ca3fd71b" y="98.749982"/>
      </g>
     </g>
     <g id="text_12">
      <!-- 4000 -->
      <g transform="translate(20.590625 102.495295)scale(0.1 -0.1)">
       <use xlink:href="#IPAexGothic-52"/>
       <use x="62.988281" xlink:href="#IPAexGothic-48"/>
       <use x="125.976562" xlink:href="#IPAexGothic-48"/>
       <use x="188.964844" xlink:href="#IPAexGothic-48"/>
      </g>
     </g>
    </g>
    <g id="ytick_6">
     <g id="line2d_13">
      <g>
       <use style="stroke:#000000;stroke-width:0.8;" x="52.784375" xlink:href="#ma7ca3fd71b" y="63.019606"/>
      </g>
     </g>
     <g id="text_13">
      <!-- 4200 -->
      <g transform="translate(20.590625 66.764919)scale(0.1 -0.1)">
       <use xlink:href="#IPAexGothic-52"/>
       <use x="62.988281" xlink:href="#IPAexGothic-50"/>
       <use x="125.976562" xlink:href="#IPAexGothic-48"/>
       <use x="188.964844" xlink:href="#IPAexGothic-48"/>
      </g>
     </g>
    </g>
    <g id="ytick_7">
     <g id="line2d_14">
      <g>
       <use style="stroke:#000000;stroke-width:0.8;" x="52.784375" xlink:href="#ma7ca3fd71b" y="27.289231"/>
      </g>
     </g>
     <g id="text_14">
      <!-- 4400 -->
      <g transform="translate(20.590625 31.034543)scale(0.1 -0.1)">
       <use xlink:href="#IPAexGothic-52"/>
       <use x="62.988281" xlink:href="#IPAexGothic-52"/>
       <use x="125.976562" xlink:href="#IPAexGothic-48"/>
       <use x="188.964844" xlink:href="#IPAexGothic-48"/>
      </g>
     </g>
    </g>
    <g id="text_15">
     <!-- 1日あたり死亡数 -->
     <g transform="translate(14.690625 178.405219)rotate(-90)scale(0.1 -0.1)">
      <defs>
       <path d="M 81.734375 75 
L 81.734375 -4.5 
L 74.125 -4.5 
L 74.125 2 
L 25.734375 2 
L 25.734375 -4.5 
L 18.109375 -4.5 
L 18.109375 75 
z
M 25.734375 68.3125 
L 25.734375 42.671875 
L 74.125 42.671875 
L 74.125 68.3125 
z
M 25.734375 35.890625 
L 25.734375 8.6875 
L 74.125 8.6875 
L 74.125 35.890625 
z
" id="IPAexGothic-26085"/>
       <path d="M 15.09375 64.59375 
Q 19.1875 64.3125 24.21875 64.3125 
Q 30.21875 64.3125 35.6875 64.703125 
Q 35.890625 66.359375 36.234375 69.578125 
Q 37.015625 76.125 37.203125 78.90625 
L 44.578125 78.421875 
Q 43.65625 71.046875 43.109375 65.28125 
Q 57.375 66.796875 71.578125 70.703125 
L 72.40625 63.8125 
Q 58.59375 60.359375 42.390625 58.6875 
Q 41.796875 52.78125 41.609375 45.796875 
Q 48.25 48.1875 57.328125 49.03125 
Q 58.40625 51.953125 58.796875 55.421875 
L 66.21875 53.71875 
Q 65.4375 50.296875 64.890625 48.875 
Q 74.953125 47.515625 80.71875 42.828125 
Q 89.109375 35.890625 89.109375 24.703125 
Q 89.109375 12.40625 79 4.6875 
Q 71.234375 -1.3125 57.515625 -3.328125 
L 53.21875 3.328125 
Q 65.140625 4.640625 72.21875 9.28125 
Q 81.296875 15.140625 81.296875 24.8125 
Q 81.296875 34.625 73 39.890625 
Q 68.953125 42.578125 62.890625 43.3125 
Q 55.46875 24.3125 42.921875 12.5 
Q 43.21875 9.125 44.484375 4.296875 
L 37.3125 1.609375 
Q 37.015625 2.984375 36.1875 8.203125 
Q 27.4375 2 20.3125 2 
Q 10.40625 2 10.40625 12.40625 
Q 10.40625 19.4375 14.84375 26.421875 
Q 19 32.8125 26.21875 37.890625 
Q 28.65625 39.703125 34.28125 42.671875 
Q 34.46875 49.359375 35.203125 58.109375 
Q 27.6875 57.515625 20.90625 57.515625 
Q 17.28125 57.515625 15.71875 57.625 
z
M 34.1875 35.796875 
Q 30.71875 33.890625 26.609375 29.890625 
Q 22.359375 25.78125 19.875 21.140625 
Q 17.875 17.328125 17.71875 14.40625 
Q 17.484375 8.984375 21.625 8.984375 
Q 27.9375 8.984375 35.109375 15.578125 
Q 34.328125 23.390625 34.1875 35.796875 
z
M 55.515625 43.3125 
Q 47.46875 42.1875 41.21875 39.59375 
Q 41.21875 27.09375 41.609375 20.3125 
Q 50.484375 30.171875 55.515625 43.3125 
z
" id="IPAexGothic-12354"/>
       <path d="M 10.6875 62.40625 
Q 17.78125 61.765625 24.3125 61.765625 
Q 28.078125 61.765625 32.90625 62.109375 
Q 35.40625 71.78125 37.015625 79.890625 
L 44.921875 78.515625 
Q 43.84375 73.921875 40.921875 62.703125 
Q 50.140625 63.8125 57.125 65.484375 
L 57.625 58.109375 
Q 48.578125 56.453125 39.015625 55.71875 
Q 28.46875 20.21875 18.015625 -0.6875 
L 10.203125 2.6875 
Q 21.96875 23.4375 31.109375 55.171875 
Q 25.53125 54.890625 19.625 54.890625 
Q 17.28125 54.890625 10.890625 55.078125 
z
M 89.890625 1.21875 
Q 79.046875 -0.203125 71.828125 -0.203125 
Q 56.546875 -0.203125 50.09375 5.21875 
Q 44.78125 9.765625 43.21875 19.09375 
L 50.203125 21.6875 
Q 50.734375 16.703125 52.296875 14.109375 
Q 53.515625 12.109375 55.90625 10.5 
Q 60.40625 7.515625 71.1875 7.515625 
Q 78.265625 7.515625 89.5 8.984375 
z
M 49.125 44.671875 
Q 65.875 49.171875 84.515625 48 
L 84.078125 40.578125 
L 83.6875 40.578125 
Q 66.609375 41.609375 49.90625 37.796875 
z
" id="IPAexGothic-12383"/>
       <path d="M 44.96875 45.703125 
Q 39.109375 35.84375 37.0625 31.890625 
Q 34.71875 27.34375 33.796875 22.796875 
L 26.8125 23.484375 
Q 23.578125 33.296875 23.578125 48.296875 
Q 23.578125 58.5 25.984375 76.125 
L 34.078125 75.09375 
Q 31.296875 55.328125 31.296875 47.125 
Q 31.296875 40.828125 31.6875 35.296875 
Q 32.953125 37.703125 36.140625 43.21875 
Q 38.8125 47.859375 40.28125 50.59375 
z
M 38.875 2 
Q 55.21875 7.859375 61.375 18.5 
Q 66.15625 26.765625 66.15625 46.484375 
Q 66.15625 60.5 64.40625 77 
L 72.90625 77 
Q 74.359375 59.28125 74.359375 46.484375 
Q 74.359375 23.6875 68.0625 13.1875 
Q 61.140625 1.609375 44.578125 -4.5 
z
" id="IPAexGothic-12426"/>
       <path d="M 33.34375 21.578125 
Q 26.421875 29.109375 19.625 34.375 
Q 15.578125 27.9375 9.625 21.96875 
L 4.828125 26.765625 
Q 20.703125 44.140625 24.75 68.796875 
L 24.859375 69.390625 
L 7.125 69.390625 
L 7.125 75.875 
L 92.921875 75.875 
L 92.921875 69.390625 
L 63.328125 69.390625 
L 63.328125 37.984375 
Q 76.375 45.015625 85.59375 54 
L 92.09375 48.6875 
Q 79.828125 38.578125 63.328125 30.46875 
L 63.328125 8.0625 
Q 63.328125 4.296875 66.21875 3.515625 
Q 68.40625 3.03125 73.1875 3.03125 
Q 84.8125 3.03125 86.03125 6.203125 
Q 87.109375 9.234375 87.40625 20.703125 
L 95.125 18.171875 
Q 94.53125 2.203125 91.703125 -0.875 
Q 88.53125 -4.390625 72.3125 -4.390625 
Q 63.484375 -4.390625 60.015625 -2.59375 
Q 56.15625 -0.640625 56.15625 5.5625 
L 56.15625 69.390625 
L 32.03125 69.390625 
Q 31.890625 68.75 31.734375 67.1875 
Q 30.90625 62.5 28.71875 54.984375 
L 46.921875 54.984375 
L 51.03125 51.90625 
Q 47.3125 30.28125 38.625 16.0625 
Q 29.78125 1.859375 11.53125 -6.84375 
L 6.546875 -0.734375 
Q 24.078125 6.453125 33.34375 21.578125 
z
M 36.8125 28.078125 
Q 41.359375 37.890625 43.109375 48.6875 
L 26.609375 48.6875 
Q 25.046875 44.4375 22.65625 39.59375 
Q 30.71875 34.1875 36.8125 28.078125 
z
" id="IPAexGothic-27515"/>
       <path d="M 28.328125 54.640625 
L 28.328125 12.796875 
Q 28.328125 8.40625 32.125 7.625 
Q 35.453125 7.03125 49.90625 7.03125 
Q 68.265625 7.03125 86.03125 8.5 
L 86.03125 0.59375 
Q 68.609375 -0.484375 50.921875 -0.484375 
Q 31.453125 -0.484375 26.515625 1.125 
Q 20.609375 3.078125 20.609375 10.109375 
L 20.609375 54.640625 
L 7.515625 54.640625 
L 7.515625 61.53125 
L 45.703125 61.53125 
L 45.703125 79.4375 
L 53.609375 79.4375 
L 53.609375 61.53125 
L 92.53125 61.53125 
L 92.53125 54.640625 
z
" id="IPAexGothic-20129"/>
       <path d="M 44.484375 24.265625 
Q 42.828125 15.71875 37.890625 8.34375 
Q 41.015625 6.890625 48.296875 3.171875 
L 43.890625 -2.9375 
Q 39.703125 0 33.5 3.265625 
Q 24.515625 -4.546875 10.984375 -7.8125 
L 6.59375 -1.953125 
Q 19.734375 0.296875 27.296875 6.34375 
Q 19.09375 10.15625 11.46875 12.75 
Q 15.234375 18.3125 17.921875 23.484375 
L 18.3125 24.265625 
L 5.609375 24.265625 
L 5.609375 30.078125 
L 21 30.078125 
Q 21.96875 32.28125 24.515625 38.671875 
L 26.421875 38.28125 
L 26.421875 52.6875 
Q 19.53125 42.78125 8.59375 35.984375 
L 4.296875 41.609375 
Q 15.921875 47.078125 23.875 56.890625 
L 5.90625 56.890625 
L 5.90625 62.59375 
L 26.421875 62.59375 
L 26.421875 83.015625 
L 33.015625 83.015625 
L 33.015625 62.59375 
L 51.515625 62.59375 
L 51.515625 56.890625 
L 33.015625 56.890625 
L 33.015625 54.890625 
Q 41.546875 51.421875 49.609375 46.296875 
L 46.1875 40.375 
Q 39.890625 45.65625 33.015625 49.359375 
L 33.015625 37.0625 
L 30.71875 37.0625 
Q 30.125 35.75 29.25 33.453125 
Q 28.21875 30.859375 27.875 30.078125 
L 52.78125 30.078125 
L 52.78125 24.265625 
z
M 37.796875 24.265625 
L 25.203125 24.265625 
Q 23.09375 19.828125 20.515625 15.578125 
Q 24.359375 14.203125 31.984375 10.984375 
Q 36.140625 16.359375 37.796875 24.265625 
z
M 68.171875 18.171875 
Q 61.765625 27.828125 58.40625 41.21875 
Q 55.859375 35.640625 53.5625 31.5 
L 48.484375 37.59375 
Q 57.421875 53.8125 61.1875 82.671875 
L 68.171875 81.25 
Q 66.9375 72.90625 65.578125 65.578125 
L 93.890625 65.578125 
L 93.890625 58.984375 
L 85.984375 58.984375 
Q 84.328125 35.546875 76.078125 18.609375 
Q 84.671875 7.859375 96 1.171875 
L 90.96875 -5.90625 
Q 81.0625 1.65625 72.359375 12.3125 
Q 64.265625 0.53125 52.203125 -7.234375 
L 47.359375 -1.21875 
Q 60.75 6.34375 68.171875 18.171875 
z
M 71.6875 24.90625 
Q 77.15625 37.3125 79.046875 58.984375 
L 64.0625 58.984375 
Q 63.140625 54.984375 62.0625 51.375 
Q 62.203125 50.78125 62.359375 49.90625 
Q 65.234375 35.25 71.6875 24.90625 
z
M 15.671875 64.3125 
Q 13.71875 71 9.96875 77.09375 
L 16.453125 79.59375 
Q 19.484375 74.8125 22.46875 66.703125 
z
M 36.1875 66.703125 
Q 39.84375 73.25 42 80.171875 
L 48.875 78.078125 
Q 46.34375 71.6875 41.796875 64.5 
z
" id="IPAexGothic-25968"/>
      </defs>
      <use xlink:href="#IPAexGothic-49"/>
      <use x="62.988281" xlink:href="#IPAexGothic-26085"/>
      <use x="162.988281" xlink:href="#IPAexGothic-12354"/>
      <use x="262.988281" xlink:href="#IPAexGothic-12383"/>
      <use x="362.988281" xlink:href="#IPAexGothic-12426"/>
      <use x="462.988281" xlink:href="#IPAexGothic-27515"/>
      <use x="562.988281" xlink:href="#IPAexGothic-20129"/>
      <use x="662.988281" xlink:href="#IPAexGothic-25968"/>
     </g>
    </g>
   </g>
   <g id="line2d_15">
    <path clip-path="url(#p26e1ad56b7)" d="M 69.017102 103.786812 
L 73.370169 111.364081 
L 77.301972 157.336272 
L 81.655039 192.29806 
L 85.867684 230.825587 
L 90.220751 261.216 
L 94.433397 259.980421 
L 98.786464 249.313175 
L 103.139531 231.184619 
L 107.352176 212.384102 
L 111.705243 170.234554 
L 115.917889 98.692352 
L 120.270956 50.969249 
L 124.624023 110.617571 
L 128.555825 157.797309 
L 132.908892 189.112102 
L 137.121538 221.77197 
L 141.474605 249.133178 
L 145.68725 241.210447 
L 150.040317 230.013009 
L 154.393384 228.350009 
L 158.60603 191.41844 
L 162.959097 176.981639 
L 167.171742 130.480861 
L 171.524809 106.097761 
L 175.877876 108.310938 
L 179.9501 146.017811 
L 184.303167 188.290303 
L 188.515813 214.86794 
L 192.86888 243.499689 
L 197.081525 243.619366 
L 201.434592 217.611111 
L 205.787659 214.998759 
L 210.000305 182.560765 
L 214.353372 136.010809 
L 218.566017 96.617685 
L 222.919084 52.340834 
L 227.272151 70.452801 
L 231.203953 121.369615 
L 235.55702 169.621182 
L 239.769666 198.368574 
L 244.122733 229.32664 
L 248.335378 225.771467 
L 252.688445 214.787258 
L 257.041512 212.241565 
L 261.254158 178.198201 
L 265.607225 125.690685 
L 269.81987 84.18121 
L 274.172937 32.452846 
L 278.526004 32.23406 
L 282.457807 117.808103 
L 286.810874 166.220841 
L 291.023519 197.81533 
L 295.376586 227.170907 
L 299.589232 200.921567 
L 303.942299 201.371079 
L 308.295366 191.976487 
L 312.508011 161.502895 
L 316.861078 130.585747 
L 321.073724 90.848959 
L 325.426791 19.296 
L 329.779858 65.02306 
L 333.71166 132.278905 
L 338.064727 147.02172 
L 342.277373 172.982719 
L 346.63044 209.597517 
L 350.843085 204.471553 
L 355.196152 176.694068 
L 359.549219 177.219842 
L 363.761865 160.661502 
L 368.114932 108.11134 
L 372.327577 71.053178 
" style="fill:none;stroke:#1f77b4;stroke-linecap:square;stroke-width:1.5;"/>
    <defs>
     <path d="M 0 3 
C 0.795609 3 1.55874 2.683901 2.12132 2.12132 
C 2.683901 1.55874 3 0.795609 3 0 
C 3 -0.795609 2.683901 -1.55874 2.12132 -2.12132 
C 1.55874 -2.683901 0.795609 -3 0 -3 
C -0.795609 -3 -1.55874 -2.683901 -2.12132 -2.12132 
C -2.683901 -1.55874 -3 -0.795609 -3 0 
C -3 0.795609 -2.683901 1.55874 -2.12132 2.12132 
C -1.55874 2.683901 -0.795609 3 0 3 
z
" id="mac16413521" style="stroke:#1f77b4;"/>
    </defs>
    <g clip-path="url(#p26e1ad56b7)">
     <use style="fill:#1f77b4;stroke:#1f77b4;" x="69.017102" xlink:href="#mac16413521" y="103.786812"/>
     <use style="fill:#1f77b4;stroke:#1f77b4;" x="73.370169" xlink:href="#mac16413521" y="111.364081"/>
     <use style="fill:#1f77b4;stroke:#1f77b4;" x="77.301972" xlink:href="#mac16413521" y="157.336272"/>
     <use style="fill:#1f77b4;stroke:#1f77b4;" x="81.655039" xlink:href="#mac16413521" y="192.29806"/>
     <use style="fill:#1f77b4;stroke:#1f77b4;" x="85.867684" xlink:href="#mac16413521" y="230.825587"/>
     <use style="fill:#1f77b4;stroke:#1f77b4;" x="90.220751" xlink:href="#mac16413521" y="261.216"/>
     <use style="fill:#1f77b4;stroke:#1f77b4;" x="94.433397" xlink:href="#mac16413521" y="259.980421"/>
     <use style="fill:#1f77b4;stroke:#1f77b4;" x="98.786464" xlink:href="#mac16413521" y="249.313175"/>
     <use style="fill:#1f77b4;stroke:#1f77b4;" x="103.139531" xlink:href="#mac16413521" y="231.184619"/>
     <use style="fill:#1f77b4;stroke:#1f77b4;" x="107.352176" xlink:href="#mac16413521" y="212.384102"/>
     <use style="fill:#1f77b4;stroke:#1f77b4;" x="111.705243" xlink:href="#mac16413521" y="170.234554"/>
     <use style="fill:#1f77b4;stroke:#1f77b4;" x="115.917889" xlink:href="#mac16413521" y="98.692352"/>
     <use style="fill:#1f77b4;stroke:#1f77b4;" x="120.270956" xlink:href="#mac16413521" y="50.969249"/>
     <use style="fill:#1f77b4;stroke:#1f77b4;" x="124.624023" xlink:href="#mac16413521" y="110.617571"/>
     <use style="fill:#1f77b4;stroke:#1f77b4;" x="128.555825" xlink:href="#mac16413521" y="157.797309"/>
     <use style="fill:#1f77b4;stroke:#1f77b4;" x="132.908892" xlink:href="#mac16413521" y="189.112102"/>
     <use style="fill:#1f77b4;stroke:#1f77b4;" x="137.121538" xlink:href="#mac16413521" y="221.77197"/>
     <use style="fill:#1f77b4;stroke:#1f77b4;" x="141.474605" xlink:href="#mac16413521" y="249.133178"/>
     <use style="fill:#1f77b4;stroke:#1f77b4;" x="145.68725" xlink:href="#mac16413521" y="241.210447"/>
     <use style="fill:#1f77b4;stroke:#1f77b4;" x="150.040317" xlink:href="#mac16413521" y="230.013009"/>
     <use style="fill:#1f77b4;stroke:#1f77b4;" x="154.393384" xlink:href="#mac16413521" y="228.350009"/>
     <use style="fill:#1f77b4;stroke:#1f77b4;" x="158.60603" xlink:href="#mac16413521" y="191.41844"/>
     <use style="fill:#1f77b4;stroke:#1f77b4;" x="162.959097" xlink:href="#mac16413521" y="176.981639"/>
     <use style="fill:#1f77b4;stroke:#1f77b4;" x="167.171742" xlink:href="#mac16413521" y="130.480861"/>
     <use style="fill:#1f77b4;stroke:#1f77b4;" x="171.524809" xlink:href="#mac16413521" y="106.097761"/>
     <use style="fill:#1f77b4;stroke:#1f77b4;" x="175.877876" xlink:href="#mac16413521" y="108.310938"/>
     <use style="fill:#1f77b4;stroke:#1f77b4;" x="179.9501" xlink:href="#mac16413521" y="146.017811"/>
     <use style="fill:#1f77b4;stroke:#1f77b4;" x="184.303167" xlink:href="#mac16413521" y="188.290303"/>
     <use style="fill:#1f77b4;stroke:#1f77b4;" x="188.515813" xlink:href="#mac16413521" y="214.86794"/>
     <use style="fill:#1f77b4;stroke:#1f77b4;" x="192.86888" xlink:href="#mac16413521" y="243.499689"/>
     <use style="fill:#1f77b4;stroke:#1f77b4;" x="197.081525" xlink:href="#mac16413521" y="243.619366"/>
     <use style="fill:#1f77b4;stroke:#1f77b4;" x="201.434592" xlink:href="#mac16413521" y="217.611111"/>
     <use style="fill:#1f77b4;stroke:#1f77b4;" x="205.787659" xlink:href="#mac16413521" y="214.998759"/>
     <use style="fill:#1f77b4;stroke:#1f77b4;" x="210.000305" xlink:href="#mac16413521" y="182.560765"/>
     <use style="fill:#1f77b4;stroke:#1f77b4;" x="214.353372" xlink:href="#mac16413521" y="136.010809"/>
     <use style="fill:#1f77b4;stroke:#1f77b4;" x="218.566017" xlink:href="#mac16413521" y="96.617685"/>
     <use style="fill:#1f77b4;stroke:#1f77b4;" x="222.919084" xlink:href="#mac16413521" y="52.340834"/>
     <use style="fill:#1f77b4;stroke:#1f77b4;" x="227.272151" xlink:href="#mac16413521" y="70.452801"/>
     <use style="fill:#1f77b4;stroke:#1f77b4;" x="231.203953" xlink:href="#mac16413521" y="121.369615"/>
     <use style="fill:#1f77b4;stroke:#1f77b4;" x="235.55702" xlink:href="#mac16413521" y="169.621182"/>
     <use style="fill:#1f77b4;stroke:#1f77b4;" x="239.769666" xlink:href="#mac16413521" y="198.368574"/>
     <use style="fill:#1f77b4;stroke:#1f77b4;" x="244.122733" xlink:href="#mac16413521" y="229.32664"/>
     <use style="fill:#1f77b4;stroke:#1f77b4;" x="248.335378" xlink:href="#mac16413521" y="225.771467"/>
     <use style="fill:#1f77b4;stroke:#1f77b4;" x="252.688445" xlink:href="#mac16413521" y="214.787258"/>
     <use style="fill:#1f77b4;stroke:#1f77b4;" x="257.041512" xlink:href="#mac16413521" y="212.241565"/>
     <use style="fill:#1f77b4;stroke:#1f77b4;" x="261.254158" xlink:href="#mac16413521" y="178.198201"/>
     <use style="fill:#1f77b4;stroke:#1f77b4;" x="265.607225" xlink:href="#mac16413521" y="125.690685"/>
     <use style="fill:#1f77b4;stroke:#1f77b4;" x="269.81987" xlink:href="#mac16413521" y="84.18121"/>
     <use style="fill:#1f77b4;stroke:#1f77b4;" x="274.172937" xlink:href="#mac16413521" y="32.452846"/>
     <use style="fill:#1f77b4;stroke:#1f77b4;" x="278.526004" xlink:href="#mac16413521" y="32.23406"/>
     <use style="fill:#1f77b4;stroke:#1f77b4;" x="282.457807" xlink:href="#mac16413521" y="117.808103"/>
     <use style="fill:#1f77b4;stroke:#1f77b4;" x="286.810874" xlink:href="#mac16413521" y="166.220841"/>
     <use style="fill:#1f77b4;stroke:#1f77b4;" x="291.023519" xlink:href="#mac16413521" y="197.81533"/>
     <use style="fill:#1f77b4;stroke:#1f77b4;" x="295.376586" xlink:href="#mac16413521" y="227.170907"/>
     <use style="fill:#1f77b4;stroke:#1f77b4;" x="299.589232" xlink:href="#mac16413521" y="200.921567"/>
     <use style="fill:#1f77b4;stroke:#1f77b4;" x="303.942299" xlink:href="#mac16413521" y="201.371079"/>
     <use style="fill:#1f77b4;stroke:#1f77b4;" x="308.295366" xlink:href="#mac16413521" y="191.976487"/>
     <use style="fill:#1f77b4;stroke:#1f77b4;" x="312.508011" xlink:href="#mac16413521" y="161.502895"/>
     <use style="fill:#1f77b4;stroke:#1f77b4;" x="316.861078" xlink:href="#mac16413521" y="130.585747"/>
     <use style="fill:#1f77b4;stroke:#1f77b4;" x="321.073724" xlink:href="#mac16413521" y="90.848959"/>
     <use style="fill:#1f77b4;stroke:#1f77b4;" x="325.426791" xlink:href="#mac16413521" y="19.296"/>
     <use style="fill:#1f77b4;stroke:#1f77b4;" x="329.779858" xlink:href="#mac16413521" y="65.02306"/>
     <use style="fill:#1f77b4;stroke:#1f77b4;" x="333.71166" xlink:href="#mac16413521" y="132.278905"/>
     <use style="fill:#1f77b4;stroke:#1f77b4;" x="338.064727" xlink:href="#mac16413521" y="147.02172"/>
     <use style="fill:#1f77b4;stroke:#1f77b4;" x="342.277373" xlink:href="#mac16413521" y="172.982719"/>
     <use style="fill:#1f77b4;stroke:#1f77b4;" x="346.63044" xlink:href="#mac16413521" y="209.597517"/>
     <use style="fill:#1f77b4;stroke:#1f77b4;" x="350.843085" xlink:href="#mac16413521" y="204.471553"/>
     <use style="fill:#1f77b4;stroke:#1f77b4;" x="355.196152" xlink:href="#mac16413521" y="176.694068"/>
     <use style="fill:#1f77b4;stroke:#1f77b4;" x="359.549219" xlink:href="#mac16413521" y="177.219842"/>
     <use style="fill:#1f77b4;stroke:#1f77b4;" x="363.761865" xlink:href="#mac16413521" y="160.661502"/>
     <use style="fill:#1f77b4;stroke:#1f77b4;" x="368.114932" xlink:href="#mac16413521" y="108.11134"/>
     <use style="fill:#1f77b4;stroke:#1f77b4;" x="372.327577" xlink:href="#mac16413521" y="71.053178"/>
    </g>
   </g>
   <g id="line2d_16">
    <path clip-path="url(#p26e1ad56b7)" d="M 363.761865 154.742938 
L 368.114932 101.953806 
L 372.327577 80.101031 
L 376.680644 49.061708 
L 381.033711 92.527968 
L 385.105935 126.636964 
L 389.459002 138.279688 
L 393.671648 188.767477 
" style="fill:none;stroke:#ff7f0e;stroke-linecap:square;stroke-width:1.5;"/>
    <defs>
     <path d="M -3 3 
L 3 3 
L 3 -3 
L -3 -3 
z
" id="m6ab0d5be85" style="stroke:#ff7f0e;stroke-linejoin:miter;"/>
    </defs>
    <g clip-path="url(#p26e1ad56b7)">
     <use style="fill:#ff7f0e;stroke:#ff7f0e;stroke-linejoin:miter;" x="363.761865" xlink:href="#m6ab0d5be85" y="154.742938"/>
     <use style="fill:#ff7f0e;stroke:#ff7f0e;stroke-linejoin:miter;" x="368.114932" xlink:href="#m6ab0d5be85" y="101.953806"/>
     <use style="fill:#ff7f0e;stroke:#ff7f0e;stroke-linejoin:miter;" x="372.327577" xlink:href="#m6ab0d5be85" y="80.101031"/>
     <use style="fill:#ff7f0e;stroke:#ff7f0e;stroke-linejoin:miter;" x="376.680644" xlink:href="#m6ab0d5be85" y="49.061708"/>
     <use style="fill:#ff7f0e;stroke:#ff7f0e;stroke-linejoin:miter;" x="381.033711" xlink:href="#m6ab0d5be85" y="92.527968"/>
     <use style="fill:#ff7f0e;stroke:#ff7f0e;stroke-linejoin:miter;" x="385.105935" xlink:href="#m6ab0d5be85" y="126.636964"/>
     <use style="fill:#ff7f0e;stroke:#ff7f0e;stroke-linejoin:miter;" x="389.459002" xlink:href="#m6ab0d5be85" y="138.279688"/>
     <use style="fill:#ff7f0e;stroke:#ff7f0e;stroke-linejoin:miter;" x="393.671648" xlink:href="#m6ab0d5be85" y="188.767477"/>
    </g>
   </g>
   <g id="patch_3">
    <path d="M 52.784375 273.312 
L 52.784375 7.2 
" style="fill:none;stroke:#000000;stroke-linecap:square;stroke-linejoin:miter;stroke-width:0.8;"/>
   </g>
   <g id="patch_4">
    <path d="M 409.904375 273.312 
L 409.904375 7.2 
" style="fill:none;stroke:#000000;stroke-linecap:square;stroke-linejoin:miter;stroke-width:0.8;"/>
   </g>
   <g id="patch_5">
    <path d="M 52.784375 273.312 
L 409.904375 273.312 
" style="fill:none;stroke:#000000;stroke-linecap:square;stroke-linejoin:miter;stroke-width:0.8;"/>
   </g>
   <g id="patch_6">
    <path d="M 52.784375 7.2 
L 409.904375 7.2 
" style="fill:none;stroke:#000000;stroke-linecap:square;stroke-linejoin:miter;stroke-width:0.8;"/>
   </g>
   <g id="legend_1">
    <g id="patch_7">
     <path d="M 340.904375 43.98125 
L 402.904375 43.98125 
Q 404.904375 43.98125 404.904375 41.98125 
L 404.904375 14.2 
Q 404.904375 12.2 402.904375 12.2 
L 340.904375 12.2 
Q 338.904375 12.2 338.904375 14.2 
L 338.904375 41.98125 
Q 338.904375 43.98125 340.904375 43.98125 
z
" style="fill:#ffffff;opacity:0.8;stroke:#cccccc;stroke-linejoin:miter;"/>
    </g>
    <g id="line2d_17">
     <path d="M 342.904375 20.190625 
L 362.904375 20.190625 
" style="fill:none;stroke:#1f77b4;stroke-linecap:square;stroke-width:1.5;"/>
    </g>
    <g id="line2d_18">
     <g>
      <use style="fill:#1f77b4;stroke:#1f77b4;" x="352.904375" xlink:href="#mac16413521" y="20.190625"/>
     </g>
    </g>
    <g id="text_16">
     <!-- 確定値 -->
     <g transform="translate(370.904375 23.690625)scale(0.1 -0.1)">
      <defs>
       <path d="M 67.921875 50.296875 
Q 70.5625 55.28125 72.609375 61.8125 
L 79.296875 60.203125 
Q 76.171875 53.609375 74.21875 50.296875 
L 92 50.296875 
L 92 44.484375 
L 73.4375 44.484375 
L 73.4375 34.71875 
L 89.703125 34.71875 
L 89.703125 29.203125 
L 73.4375 29.203125 
L 73.4375 19.53125 
L 89.703125 19.53125 
L 89.703125 14.015625 
L 73.4375 14.015625 
L 73.4375 3.609375 
L 94.28125 3.609375 
L 94.28125 -2.203125 
L 54.109375 -2.203125 
L 54.109375 -6.984375 
L 47.609375 -6.984375 
L 47.609375 38.1875 
Q 43.0625 31.546875 38.8125 26.609375 
L 35.6875 32.8125 
Q 49.359375 49.953125 54.78125 64.796875 
L 45.515625 64.796875 
L 45.515625 53.515625 
L 39.203125 53.515625 
L 39.203125 70.609375 
L 56.78125 70.609375 
Q 58.59375 76.609375 60.109375 83.109375 
L 66.703125 81.890625 
Q 65.234375 75.53125 63.625 70.609375 
L 92.71875 70.609375 
L 92.71875 53.515625 
L 86.328125 53.515625 
L 86.328125 64.796875 
L 61.53125 64.796875 
Q 58.546875 56.984375 54.890625 50.296875 
z
M 67.140625 44.484375 
L 54.109375 44.484375 
L 54.109375 34.71875 
L 67.140625 34.71875 
z
M 67.140625 29.203125 
L 54.109375 29.203125 
L 54.109375 19.53125 
L 67.140625 19.53125 
z
M 67.140625 14.015625 
L 54.109375 14.015625 
L 54.109375 3.609375 
L 67.140625 3.609375 
z
M 18.109375 46 
L 35.546875 46 
L 35.546875 3.078125 
L 18.953125 3.078125 
L 18.953125 -5.125 
L 12.75 -5.125 
L 12.75 34.46875 
Q 10.15625 29.734375 6.15625 23.78125 
L 2.9375 29.984375 
Q 14.546875 47.078125 18.75 69 
L 6.34375 69 
L 6.34375 75.296875 
L 37.640625 75.296875 
L 37.640625 69 
L 25.25 69 
L 24.953125 68.015625 
Q 22.75 57.234375 18.109375 46 
z
M 18.953125 39.890625 
L 18.953125 9.1875 
L 29.34375 9.1875 
L 29.34375 39.890625 
z
" id="IPAexGothic-30906"/>
       <path d="M 53.609375 4.734375 
Q 61.421875 3.515625 73.578125 3.515625 
Q 81.109375 3.515625 94.578125 4.109375 
Q 93.171875 0.921875 92 -3.5625 
Q 81.78125 -3.90625 75.6875 -3.90625 
Q 55.765625 -3.90625 46.921875 -1.21875 
Q 35.296875 2.390625 27.34375 14.109375 
Q 22.515625 2.546875 12.59375 -7.171875 
L 7.421875 -1.171875 
Q 22.125 11.859375 26.3125 37.796875 
L 33.203125 35.984375 
Q 31.734375 27.4375 29.828125 21.1875 
Q 36.53125 10.59375 46.4375 6.5 
L 46.4375 46 
L 22.40625 46 
L 22.40625 52.390625 
L 77.484375 52.390625 
L 77.484375 46 
L 53.609375 46 
L 53.609375 31 
L 84.328125 31 
L 84.328125 24.515625 
L 53.609375 24.515625 
z
M 53.421875 69.1875 
L 89.84375 69.1875 
L 89.84375 49.46875 
L 82.421875 49.46875 
L 82.421875 62.890625 
L 17.53125 62.890625 
L 17.53125 49.46875 
L 10.109375 49.46875 
L 10.109375 69.1875 
L 45.90625 69.1875 
L 45.90625 83.015625 
L 53.421875 83.015625 
z
" id="IPAexGothic-23450"/>
       <path d="M 65.1875 57.421875 
L 85.203125 57.421875 
L 85.203125 10.6875 
L 47.171875 10.6875 
L 47.171875 57.421875 
L 58.59375 57.421875 
Q 59.1875 60.6875 59.765625 64.890625 
L 33.453125 64.890625 
L 33.453125 71 
L 60.6875 71 
Q 61.28125 75.6875 61.96875 83.203125 
L 69.28125 82.375 
L 68.5625 77.390625 
Q 67.671875 71.53125 67.671875 71 
L 91.609375 71 
L 91.609375 64.890625 
L 66.703125 64.890625 
Q 65.625 59.078125 65.1875 57.421875 
z
M 78.71875 51.8125 
L 53.65625 51.8125 
L 53.65625 43.796875 
L 78.71875 43.796875 
z
M 53.65625 38.28125 
L 53.65625 30.328125 
L 78.71875 30.328125 
L 78.71875 38.28125 
z
M 53.65625 24.8125 
L 53.65625 16.3125 
L 78.71875 16.3125 
L 78.71875 24.8125 
z
M 23.578125 57.328125 
L 23.578125 -6.984375 
L 16.703125 -6.984375 
L 16.703125 42.578125 
Q 13.375 36.53125 8.296875 29.296875 
L 4.5 35.40625 
Q 18.171875 55.171875 24.078125 83.203125 
L 30.859375 81.59375 
Q 27.984375 68.40625 23.578125 57.328125 
z
M 38.875 3.8125 
L 94.234375 3.8125 
L 94.234375 -2.390625 
L 38.875 -2.390625 
L 38.875 -6.984375 
L 32.171875 -6.984375 
L 32.171875 50.203125 
L 38.875 50.203125 
z
" id="IPAexGothic-20516"/>
      </defs>
      <use xlink:href="#IPAexGothic-30906"/>
      <use x="100" xlink:href="#IPAexGothic-23450"/>
      <use x="200" xlink:href="#IPAexGothic-20516"/>
     </g>
    </g>
    <g id="line2d_19">
     <path d="M 342.904375 34.58125 
L 362.904375 34.58125 
" style="fill:none;stroke:#ff7f0e;stroke-linecap:square;stroke-width:1.5;"/>
    </g>
    <g id="line2d_20">
     <g>
      <use style="fill:#ff7f0e;stroke:#ff7f0e;stroke-linejoin:miter;" x="352.904375" xlink:href="#m6ab0d5be85" y="34.58125"/>
     </g>
    </g>
    <g id="text_17">
     <!-- 速報値 -->
     <g transform="translate(370.904375 38.08125)scale(0.1 -0.1)">
      <defs>
       <path d="M 58.84375 28.265625 
Q 50.875 16.65625 38.765625 8.890625 
L 33.984375 14.265625 
Q 48.828125 22.078125 56.9375 34.46875 
L 37.59375 34.46875 
L 37.59375 56.890625 
L 58.84375 56.890625 
L 58.84375 65.1875 
L 31.984375 65.1875 
L 31.984375 71.390625 
L 58.84375 71.390625 
L 58.84375 83.015625 
L 65.53125 83.015625 
L 65.53125 71.390625 
L 92.390625 71.390625 
L 92.390625 65.1875 
L 65.53125 65.1875 
L 65.53125 56.890625 
L 86.765625 56.890625 
L 86.765625 34.46875 
L 65.53125 34.46875 
L 65.53125 31.78125 
L 66.40625 31.390625 
Q 77.9375 25.828125 90.671875 17.578125 
L 85.890625 11.765625 
Q 75.53125 19.4375 65.53125 25.59375 
L 65.53125 5.46875 
L 58.84375 5.46875 
z
M 58.84375 51.078125 
L 44.09375 51.078125 
L 44.09375 40.28125 
L 58.84375 40.28125 
z
M 65.53125 51.078125 
L 65.53125 40.28125 
L 80.28125 40.28125 
L 80.28125 51.078125 
z
M 28.609375 12.203125 
Q 32.5625 7.125 38.28125 4.984375 
Q 45.359375 2.296875 64.59375 2.296875 
Q 79.203125 2.296875 95.609375 3.46875 
Q 93.75 0.140625 92.875 -4.109375 
Q 78.515625 -4.59375 69.1875 -4.59375 
Q 43.75 -4.59375 35.5 -0.984375 
Q 29.203125 1.859375 25 7.671875 
Q 17.671875 -0.828125 10.40625 -6.9375 
L 5.8125 0.6875 
Q 13.765625 5.375 21.53125 12.109375 
L 21.53125 35.984375 
L 6.203125 35.984375 
L 6.203125 42.671875 
L 28.609375 42.671875 
z
M 25.296875 56.59375 
Q 18.84375 65.140625 9.671875 73.390625 
L 14.984375 77.984375 
Q 23.25 71.578125 30.8125 62.109375 
z
" id="IPAexGothic-36895"/>
       <path d="M 42.828125 48.1875 
Q 40.625 40.53125 37.9375 34.421875 
L 49.609375 34.421875 
L 49.609375 28.421875 
L 31.453125 28.421875 
L 31.453125 17.71875 
L 48.4375 17.71875 
L 48.4375 11.71875 
L 31.453125 11.71875 
L 31.453125 -6.984375 
L 24.5625 -6.984375 
L 24.5625 11.71875 
L 8.15625 11.71875 
L 8.15625 17.71875 
L 24.5625 17.71875 
L 24.5625 28.421875 
L 6.84375 28.421875 
L 6.84375 34.421875 
L 17.625 34.421875 
Q 15.53125 43.75 13.8125 48.1875 
L 4.640625 48.1875 
L 4.640625 54.203125 
L 24.5625 54.203125 
L 24.5625 64.59375 
L 9.03125 64.59375 
L 9.03125 70.609375 
L 24.5625 70.609375 
L 24.5625 83.015625 
L 31.453125 83.015625 
L 31.453125 70.609375 
L 47.3125 70.609375 
L 47.3125 64.59375 
L 31.453125 64.59375 
L 31.453125 54.203125 
L 49.515625 54.203125 
L 49.515625 48.1875 
z
M 35.9375 48.1875 
L 20.453125 48.1875 
Q 22.953125 40.71875 24.125 34.421875 
L 31.453125 34.421875 
Q 34.28125 40.71875 35.9375 48.1875 
z
M 88.8125 77.984375 
L 88.8125 56.109375 
Q 88.8125 51.8125 87.109375 50.296875 
Q 85.40625 48.875 80.609375 48.875 
Q 75.53125 48.875 69.390625 49.46875 
L 68.609375 56.203125 
Q 74.421875 55.28125 78.421875 55.28125 
Q 82.125 55.28125 82.125 58.890625 
L 82.125 71.78125 
L 59.375 71.78125 
L 59.375 42.828125 
L 87.40625 42.828125 
L 91.109375 39.84375 
Q 88.421875 25.046875 81.296875 12.59375 
Q 86.625 5.171875 95.796875 -0.09375 
L 91.5 -6.5 
Q 83.109375 -0.34375 77.484375 6.640625 
Q 71.6875 -1.46875 64.3125 -7.765625 
L 59.8125 -2.296875 
Q 67.484375 3.609375 73.390625 12.109375 
Q 65.140625 23.6875 62.015625 36.71875 
L 59.375 36.71875 
L 59.375 -6.984375 
L 52.734375 -6.984375 
L 52.734375 77.984375 
z
M 68.015625 36.71875 
Q 70.359375 28.03125 76.90625 18.015625 
Q 81.6875 26.8125 83.59375 36.71875 
z
" id="IPAexGothic-22577"/>
      </defs>
      <use xlink:href="#IPAexGothic-36895"/>
      <use x="100" xlink:href="#IPAexGothic-22577"/>
      <use x="200" xlink:href="#IPAexGothic-20516"/>
     </g>
    </g>
   </g>
  </g>
 </g>
 <defs>
  <clipPath id="p26e1ad56b7">
   <rect height="266.112" width="357.12" x="52.784375" y="7.2"/>
  </clipPath>
 </defs>
</svg>
