<?xml version="1.0" encoding="utf-8" standalone="no"?>
<!DOCTYPE svg PUBLIC "-//W3C//DTD SVG 1.1//EN"
  "http://www.w3.org/Graphics/SVG/1.1/DTD/svg11.dtd">
<svg xmlns:xlink="http://www.w3.org/1999/xlink" width="419.218438pt" height="311.03075pt" viewBox="0 0 419.218438 311.03075" xmlns="http://www.w3.org/2000/svg" version="1.1">
 <metadata>
  <rdf:RDF xmlns:dc="http://purl.org/dc/elements/1.1/" xmlns:cc="http://creativecommons.org/ns#" xmlns:rdf="http://www.w3.org/1999/02/22-rdf-syntax-ns#">
   <cc:Work>
    <dc:type rdf:resource="http://purl.org/dc/dcmitype/StillImage"/>
    <dc:date>2022-09-27T21:25:01.256582</dc:date>
    <dc:format>image/svg+xml</dc:format>
    <dc:creator>
     <cc:Agent>
      <dc:title>Matplotlib v3.6.0, https://matplotlib.org/</dc:title>
     </cc:Agent>
    </dc:creator>
   </cc:Work>
  </rdf:RDF>
 </metadata>
 <defs>
  <style type="text/css">*{stroke-linejoin: round; stroke-linecap: butt}</style>
 </defs>
 <g id="figure_1">
  <g id="patch_1">
   <path d="M 0 311.03075 
L 419.218438 311.03075 
L 419.218438 0 
L 0 0 
z
" style="fill: #ffffff"/>
  </g>
  <g id="axes_1">
   <g id="patch_2">
    <path d="M 54.898438 273.312 
L 412.018438 273.312 
L 412.018438 7.2 
L 54.898438 7.2 
z
" style="fill: #ffffff"/>
   </g>
   <g id="matplotlib.axis_1">
    <g id="xtick_1">
     <g id="line2d_1">
      <defs>
       <path id="m439115e7db" d="M 0 0 
L 0 3.5 
" style="stroke: #000000; stroke-width: 0.8"/>
      </defs>
      <g>
       <use xlink:href="#m439115e7db" x="91.422074" y="273.312" style="stroke: #000000; stroke-width: 0.8"/>
      </g>
     </g>
     <g id="text_1">
      <!-- 2006 -->
      <g transform="translate(77.962699 288.021375) scale(0.1 -0.1)">
       <defs>
        <path id="HiraginoSans-W4-32" d="M 3078 0 
C 3424 0 3642 -6 3917 -32 
L 3917 589 
C 3693 557 3430 544 3091 544 
L 1114 544 
C 1280 1114 1606 1478 2451 2042 
C 3181 2528 3341 2656 3546 2912 
C 3738 3142 3846 3443 3846 3744 
C 3846 4525 3200 5030 2202 5030 
C 1613 5030 1158 4858 858 4518 
C 640 4269 531 4026 442 3565 
L 1088 3469 
C 1139 3782 1190 3936 1306 4102 
C 1491 4371 1792 4506 2208 4506 
C 2816 4506 3206 4211 3206 3744 
C 3206 3360 2995 3085 2387 2675 
C 1754 2246 1600 2138 1389 1952 
C 979 1594 710 1229 544 806 
C 448 563 429 461 365 -26 
C 576 -6 678 0 1107 0 
L 3078 0 
z
" transform="scale(0.015625)"/>
        <path id="HiraginoSans-W4-30" d="M 2144 -90 
C 2758 -90 3232 141 3565 602 
C 3846 998 4019 1696 4019 2464 
C 4019 3002 3936 3501 3770 3949 
C 3693 4160 3558 4371 3379 4550 
C 3078 4858 2650 5024 2157 5024 
C 1498 5024 986 4742 666 4205 
C 435 3834 288 3142 288 2458 
C 288 1939 371 1434 538 986 
C 614 768 749 563 928 384 
C 1242 70 1651 -90 2144 -90 
z
M 2144 4499 
C 2592 4499 2918 4307 3123 3923 
C 3283 3629 3398 3014 3398 2470 
C 3398 2022 3341 1619 3213 1235 
C 3155 1043 3046 870 2912 730 
C 2726 538 2458 435 2150 435 
C 1734 435 1414 614 1197 973 
C 1024 1261 902 1875 902 2451 
C 902 2906 966 3328 1088 3699 
C 1139 3866 1235 4026 1370 4173 
C 1568 4397 1818 4499 2144 4499 
z
" transform="scale(0.015625)"/>
        <path id="HiraginoSans-W4-36" d="M 3846 3994 
C 3706 4301 3616 4442 3462 4602 
C 3187 4877 2784 5024 2304 5024 
C 1683 5024 1222 4794 864 4307 
C 557 3891 371 3162 371 2355 
C 371 1446 614 704 1043 320 
C 1331 58 1773 -90 2253 -90 
C 3277 -90 3968 589 3968 1587 
C 3968 2586 3334 3213 2323 3213 
C 1894 3213 1568 3104 1274 2854 
C 1133 2739 1062 2656 941 2458 
C 979 3085 1043 3392 1210 3763 
C 1434 4262 1798 4518 2285 4518 
C 2765 4518 3040 4314 3238 3821 
L 3846 3994 
z
M 2266 2714 
C 2950 2714 3366 2285 3366 1574 
C 3366 1325 3309 1088 3206 922 
C 3008 614 2643 422 2234 422 
C 1568 422 1069 915 1069 1574 
C 1069 2234 1574 2714 2266 2714 
z
" transform="scale(0.015625)"/>
       </defs>
       <use xlink:href="#HiraginoSans-W4-32"/>
       <use xlink:href="#HiraginoSans-W4-30" x="67.299988"/>
       <use xlink:href="#HiraginoSans-W4-30" x="134.599976"/>
       <use xlink:href="#HiraginoSans-W4-36" x="201.899963"/>
      </g>
     </g>
    </g>
    <g id="xtick_2">
     <g id="line2d_2">
      <g>
       <use xlink:href="#m439115e7db" x="132.003892" y="273.312" style="stroke: #000000; stroke-width: 0.8"/>
      </g>
     </g>
     <g id="text_2">
      <!-- 2008 -->
      <g transform="translate(118.544517 288.021375) scale(0.1 -0.1)">
       <defs>
        <path id="HiraginoSans-W4-38" d="M 1446 2586 
C 1203 2547 1056 2490 851 2355 
C 480 2106 294 1754 294 1299 
C 294 397 966 -102 2163 -102 
C 3347 -102 4006 397 4006 1299 
C 4006 1728 3853 2061 3539 2304 
C 3322 2470 3136 2547 2867 2586 
C 3437 2714 3789 3162 3789 3757 
C 3789 4550 3162 5043 2150 5043 
C 1146 5043 512 4544 512 3750 
C 512 3162 877 2701 1446 2586 
z
M 2150 4538 
C 2784 4538 3187 4211 3187 3699 
C 3187 3155 2797 2829 2157 2829 
C 1510 2829 1114 3162 1114 3699 
C 1114 4211 1523 4538 2150 4538 
z
M 2157 2304 
C 2912 2304 3373 1939 3373 1344 
C 3373 749 2925 410 2144 410 
C 1376 410 928 749 928 1338 
C 928 1939 1389 2304 2157 2304 
z
" transform="scale(0.015625)"/>
       </defs>
       <use xlink:href="#HiraginoSans-W4-32"/>
       <use xlink:href="#HiraginoSans-W4-30" x="67.299988"/>
       <use xlink:href="#HiraginoSans-W4-30" x="134.599976"/>
       <use xlink:href="#HiraginoSans-W4-38" x="201.899963"/>
      </g>
     </g>
    </g>
    <g id="xtick_3">
     <g id="line2d_3">
      <g>
       <use xlink:href="#m439115e7db" x="172.58571" y="273.312" style="stroke: #000000; stroke-width: 0.8"/>
      </g>
     </g>
     <g id="text_3">
      <!-- 2010 -->
      <g transform="translate(159.126335 288.021375) scale(0.1 -0.1)">
       <defs>
        <path id="HiraginoSans-W4-31" d="M 1018 4371 
C 1222 4397 1389 4410 1606 4410 
L 1939 4410 
L 1939 755 
C 1939 454 1926 237 1888 0 
L 2598 0 
C 2560 250 2547 448 2547 755 
L 2547 3904 
C 2547 4256 2566 4582 2605 4966 
C 2387 4941 2278 4934 2035 4934 
L 1581 4934 
C 1325 4934 1197 4941 1018 4966 
L 1018 4371 
z
" transform="scale(0.015625)"/>
       </defs>
       <use xlink:href="#HiraginoSans-W4-32"/>
       <use xlink:href="#HiraginoSans-W4-30" x="67.299988"/>
       <use xlink:href="#HiraginoSans-W4-31" x="134.599976"/>
       <use xlink:href="#HiraginoSans-W4-30" x="201.899963"/>
      </g>
     </g>
    </g>
    <g id="xtick_4">
     <g id="line2d_4">
      <g>
       <use xlink:href="#m439115e7db" x="213.167528" y="273.312" style="stroke: #000000; stroke-width: 0.8"/>
      </g>
     </g>
     <g id="text_4">
      <!-- 2012 -->
      <g transform="translate(199.708153 288.021375) scale(0.1 -0.1)">
       <use xlink:href="#HiraginoSans-W4-32"/>
       <use xlink:href="#HiraginoSans-W4-30" x="67.299988"/>
       <use xlink:href="#HiraginoSans-W4-31" x="134.599976"/>
       <use xlink:href="#HiraginoSans-W4-32" x="201.899963"/>
      </g>
     </g>
    </g>
    <g id="xtick_5">
     <g id="line2d_5">
      <g>
       <use xlink:href="#m439115e7db" x="253.749347" y="273.312" style="stroke: #000000; stroke-width: 0.8"/>
      </g>
     </g>
     <g id="text_5">
      <!-- 2014 -->
      <g transform="translate(240.279815 288.021375) scale(0.1 -0.1)">
       <defs>
        <path id="HiraginoSans-W4-34" d="M 179 1210 
C 403 1229 589 1235 954 1235 
L 2688 1235 
L 2688 710 
C 2688 410 2675 218 2630 0 
L 3309 0 
C 3270 230 3258 390 3258 704 
L 3258 1235 
L 3494 1235 
C 3763 1235 3910 1222 4154 1190 
L 4154 1798 
C 3917 1766 3750 1754 3494 1754 
L 3258 1754 
L 3258 3853 
C 3258 4358 3264 4544 3296 4934 
L 2701 4934 
C 2560 4704 2445 4550 2214 4269 
L 621 2298 
C 467 2099 326 1939 179 1773 
L 179 1210 
z
M 2688 1747 
L 858 1747 
L 2259 3514 
C 2464 3763 2592 3936 2720 4128 
C 2694 3814 2688 3622 2688 3283 
L 2688 1747 
z
" transform="scale(0.015625)"/>
       </defs>
       <use xlink:href="#HiraginoSans-W4-32"/>
       <use xlink:href="#HiraginoSans-W4-30" x="67.299988"/>
       <use xlink:href="#HiraginoSans-W4-31" x="134.599976"/>
       <use xlink:href="#HiraginoSans-W4-34" x="201.899963"/>
      </g>
     </g>
    </g>
    <g id="xtick_6">
     <g id="line2d_6">
      <g>
       <use xlink:href="#m439115e7db" x="294.331165" y="273.312" style="stroke: #000000; stroke-width: 0.8"/>
      </g>
     </g>
     <g id="text_6">
      <!-- 2016 -->
      <g transform="translate(280.87179 288.021375) scale(0.1 -0.1)">
       <use xlink:href="#HiraginoSans-W4-32"/>
       <use xlink:href="#HiraginoSans-W4-30" x="67.299988"/>
       <use xlink:href="#HiraginoSans-W4-31" x="134.599976"/>
       <use xlink:href="#HiraginoSans-W4-36" x="201.899963"/>
      </g>
     </g>
    </g>
    <g id="xtick_7">
     <g id="line2d_7">
      <g>
       <use xlink:href="#m439115e7db" x="334.912983" y="273.312" style="stroke: #000000; stroke-width: 0.8"/>
      </g>
     </g>
     <g id="text_7">
      <!-- 2018 -->
      <g transform="translate(321.453608 288.021375) scale(0.1 -0.1)">
       <use xlink:href="#HiraginoSans-W4-32"/>
       <use xlink:href="#HiraginoSans-W4-30" x="67.299988"/>
       <use xlink:href="#HiraginoSans-W4-31" x="134.599976"/>
       <use xlink:href="#HiraginoSans-W4-38" x="201.899963"/>
      </g>
     </g>
    </g>
    <g id="xtick_8">
     <g id="line2d_8">
      <g>
       <use xlink:href="#m439115e7db" x="375.494801" y="273.312" style="stroke: #000000; stroke-width: 0.8"/>
      </g>
     </g>
     <g id="text_8">
      <!-- 2020 -->
      <g transform="translate(362.035426 288.021375) scale(0.1 -0.1)">
       <use xlink:href="#HiraginoSans-W4-32"/>
       <use xlink:href="#HiraginoSans-W4-30" x="67.299988"/>
       <use xlink:href="#HiraginoSans-W4-32" x="134.599976"/>
       <use xlink:href="#HiraginoSans-W4-30" x="201.899963"/>
      </g>
     </g>
    </g>
    <g id="text_9">
     <!-- 年 -->
     <g transform="translate(228.458438 301.78075) scale(0.1 -0.1)">
      <defs>
       <path id="HiraginoSans-W4-5e74" d="M 1446 1555 
L 1005 1555 
C 723 1555 531 1568 339 1594 
L 339 1056 
C 544 1082 730 1094 1005 1094 
L 3270 1094 
L 3270 115 
C 3270 -192 3264 -339 3232 -512 
L 3814 -512 
C 3782 -339 3770 -179 3770 109 
L 3770 1094 
L 5344 1094 
C 5613 1094 5811 1082 6010 1056 
L 6010 1594 
C 5818 1568 5632 1555 5344 1555 
L 3770 1555 
L 3770 2746 
L 4902 2746 
C 5158 2746 5318 2739 5485 2720 
L 5485 3219 
C 5312 3194 5165 3187 4890 3187 
L 3770 3187 
L 3770 4173 
L 5178 4173 
C 5453 4173 5594 4166 5773 4141 
L 5773 4646 
C 5606 4621 5459 4614 5178 4614 
L 2061 4614 
C 2093 4685 2093 4685 2144 4800 
C 2246 5024 2246 5024 2285 5101 
C 2323 5184 2336 5210 2368 5280 
L 1830 5414 
C 1798 5280 1754 5139 1670 4947 
C 1376 4256 1037 3802 397 3258 
C 557 3142 627 3066 749 2874 
C 1184 3258 1472 3616 1811 4173 
L 3270 4173 
L 3270 3187 
L 1882 3187 
C 1702 3187 1562 3194 1427 3206 
C 1440 3085 1446 2970 1446 2829 
L 1446 1555 
z
M 1939 1555 
L 1939 2746 
L 3270 2746 
L 3270 1555 
L 1939 1555 
z
" transform="scale(0.015625)"/>
      </defs>
      <use xlink:href="#HiraginoSans-W4-5e74"/>
     </g>
    </g>
   </g>
   <g id="matplotlib.axis_2">
    <g id="ytick_1">
     <g id="line2d_9">
      <defs>
       <path id="mca0cf2893b" d="M 0 0 
L -3.5 0 
" style="stroke: #000000; stroke-width: 0.8"/>
      </defs>
      <g>
       <use xlink:href="#mca0cf2893b" x="54.898438" y="253.603598" style="stroke: #000000; stroke-width: 0.8"/>
      </g>
     </g>
     <g id="text_10">
      <!-- 3000 -->
      <g transform="translate(20.979688 257.458286) scale(0.1 -0.1)">
       <defs>
        <path id="HiraginoSans-W4-33" d="M 282 1101 
C 397 768 474 621 621 448 
C 934 90 1434 -96 2112 -96 
C 2720 -96 3213 70 3533 384 
C 3770 614 3904 954 3904 1306 
C 3904 1677 3802 1958 3597 2182 
C 3379 2419 3130 2528 2688 2586 
C 2995 2650 3130 2701 3290 2816 
C 3578 3021 3738 3366 3738 3757 
C 3738 4538 3117 5043 2157 5043 
C 1594 5043 1146 4883 845 4576 
C 666 4390 582 4237 467 3891 
L 1107 3757 
C 1171 3981 1216 4083 1306 4192 
C 1478 4416 1741 4525 2125 4525 
C 2746 4525 3110 4224 3110 3725 
C 3110 3482 3021 3264 2867 3110 
C 2669 2918 2374 2829 1965 2829 
C 1779 2829 1613 2842 1459 2861 
L 1459 2272 
C 1651 2298 1811 2310 2003 2310 
C 2829 2310 3264 1990 3264 1376 
C 3264 794 2816 429 2106 429 
C 1779 429 1510 506 1293 666 
C 1107 800 1024 928 928 1248 
L 282 1101 
z
" transform="scale(0.015625)"/>
       </defs>
       <use xlink:href="#HiraginoSans-W4-33"/>
       <use xlink:href="#HiraginoSans-W4-30" x="67.299988"/>
       <use xlink:href="#HiraginoSans-W4-30" x="134.599976"/>
       <use xlink:href="#HiraginoSans-W4-30" x="201.899963"/>
      </g>
     </g>
    </g>
    <g id="ytick_2">
     <g id="line2d_10">
      <g>
       <use xlink:href="#mca0cf2893b" x="54.898438" y="204.004767" style="stroke: #000000; stroke-width: 0.8"/>
      </g>
     </g>
     <g id="text_11">
      <!-- 3200 -->
      <g transform="translate(20.979688 207.859454) scale(0.1 -0.1)">
       <use xlink:href="#HiraginoSans-W4-33"/>
       <use xlink:href="#HiraginoSans-W4-32" x="67.299988"/>
       <use xlink:href="#HiraginoSans-W4-30" x="134.599976"/>
       <use xlink:href="#HiraginoSans-W4-30" x="201.899963"/>
      </g>
     </g>
    </g>
    <g id="ytick_3">
     <g id="line2d_11">
      <g>
       <use xlink:href="#mca0cf2893b" x="54.898438" y="154.405935" style="stroke: #000000; stroke-width: 0.8"/>
      </g>
     </g>
     <g id="text_12">
      <!-- 3400 -->
      <g transform="translate(20.959375 158.260623) scale(0.1 -0.1)">
       <use xlink:href="#HiraginoSans-W4-33"/>
       <use xlink:href="#HiraginoSans-W4-34" x="67.299988"/>
       <use xlink:href="#HiraginoSans-W4-30" x="134.799973"/>
       <use xlink:href="#HiraginoSans-W4-30" x="202.09996"/>
      </g>
     </g>
    </g>
    <g id="ytick_4">
     <g id="line2d_12">
      <g>
       <use xlink:href="#mca0cf2893b" x="54.898438" y="104.807104" style="stroke: #000000; stroke-width: 0.8"/>
      </g>
     </g>
     <g id="text_13">
      <!-- 3600 -->
      <g transform="translate(20.979688 108.661791) scale(0.1 -0.1)">
       <use xlink:href="#HiraginoSans-W4-33"/>
       <use xlink:href="#HiraginoSans-W4-36" x="67.299988"/>
       <use xlink:href="#HiraginoSans-W4-30" x="134.599976"/>
       <use xlink:href="#HiraginoSans-W4-30" x="201.899963"/>
      </g>
     </g>
    </g>
    <g id="ytick_5">
     <g id="line2d_13">
      <g>
       <use xlink:href="#mca0cf2893b" x="54.898438" y="55.208272" style="stroke: #000000; stroke-width: 0.8"/>
      </g>
     </g>
     <g id="text_14">
      <!-- 3800 -->
      <g transform="translate(20.979688 59.062959) scale(0.1 -0.1)">
       <use xlink:href="#HiraginoSans-W4-33"/>
       <use xlink:href="#HiraginoSans-W4-38" x="67.299988"/>
       <use xlink:href="#HiraginoSans-W4-30" x="134.599976"/>
       <use xlink:href="#HiraginoSans-W4-30" x="201.899963"/>
      </g>
     </g>
    </g>
    <g id="text_15">
     <!-- 1日あたり死亡数 -->
     <g transform="translate(14.909375 178.620844) rotate(-90) scale(0.1 -0.1)">
      <defs>
       <path id="HiraginoSans-W4-65e5" d="M 1082 301 
C 1082 13 1069 -211 1043 -410 
L 1600 -410 
L 1600 0 
L 4800 0 
L 4800 -410 
L 5357 -410 
C 5331 -198 5318 -13 5318 307 
L 5318 4410 
C 5318 4653 5325 4826 5350 5018 
C 5165 4992 4979 4986 4678 4986 
L 1747 4986 
C 1453 4986 1254 4992 1050 5018 
C 1069 4826 1082 4621 1082 4371 
L 1082 301 
z
M 1600 4512 
L 4800 4512 
L 4800 2810 
L 1600 2810 
L 1600 4512 
z
M 1600 2336 
L 4800 2336 
L 4800 474 
L 1600 474 
L 1600 2336 
z
" transform="scale(0.015625)"/>
       <path id="HiraginoSans-W4-3042" d="M 851 3891 
C 902 3898 941 3898 966 3898 
C 979 3898 1024 3898 1082 3891 
C 1600 3872 1894 3866 1965 3866 
L 2176 3866 
C 2150 3418 2150 3418 2144 2957 
C 1210 2547 653 1824 653 1011 
C 653 422 1011 0 1517 0 
C 1978 0 2458 250 2963 755 
C 3482 1267 3840 1830 4211 2675 
C 4838 2502 5178 2138 5178 1626 
C 5178 1082 4781 634 4090 390 
C 3782 288 3520 243 3136 230 
C 3277 19 3315 -70 3379 -282 
C 3949 -218 4314 -115 4691 77 
C 5370 422 5722 941 5722 1594 
C 5722 2336 5216 2899 4365 3098 
C 4486 3398 4550 3558 4563 3584 
L 4038 3738 
C 4013 3565 3968 3386 3891 3187 
C 3731 3200 3654 3206 3533 3206 
C 3213 3206 2963 3174 2630 3091 
C 2630 3341 2637 3392 2669 3878 
C 3264 3898 4211 4000 4934 4122 
C 5050 4141 5075 4147 5165 4154 
L 5133 4685 
C 4646 4518 3731 4384 2701 4333 
C 2746 4813 2771 5024 2829 5197 
L 2246 5235 
C 2253 5184 2259 5152 2259 5133 
C 2259 5075 2246 4845 2240 4768 
C 2214 4454 2214 4454 2202 4314 
C 2093 4314 2067 4314 2048 4314 
C 1478 4314 1133 4339 858 4410 
L 851 3891 
z
M 2150 2458 
C 2150 1741 2189 1267 2272 806 
C 2010 589 1805 499 1587 499 
C 1325 499 1152 717 1152 1050 
C 1152 1357 1280 1670 1517 1952 
C 1683 2150 1850 2285 2150 2458 
z
M 2694 1126 
C 2694 1146 2694 1152 2694 1165 
C 2694 1190 2688 1248 2682 1312 
C 2637 1766 2630 1850 2618 2630 
C 2880 2726 3181 2778 3462 2778 
C 3590 2778 3622 2778 3738 2765 
C 3482 2170 3258 1805 2861 1325 
C 2752 1190 2752 1190 2707 1126 
L 2694 1126 
z
" transform="scale(0.015625)"/>
       <path id="HiraginoSans-W4-305f" d="M 672 3565 
C 768 3565 768 3565 787 3565 
C 800 3565 813 3565 832 3565 
C 1005 3558 1178 3552 1229 3552 
C 1440 3552 1677 3558 1760 3558 
C 1510 2259 1043 877 576 51 
L 1139 -186 
C 1485 640 1664 1133 1869 1818 
C 2048 2406 2214 3104 2304 3584 
C 2637 3610 3059 3667 3373 3731 
C 3507 3757 3507 3757 3558 3763 
L 3533 4288 
C 3219 4186 2880 4128 2394 4077 
C 2426 4243 2438 4314 2477 4531 
C 2554 4986 2554 4986 2592 5139 
L 1990 5203 
L 1990 5120 
C 1990 4922 1939 4550 1850 4045 
C 1677 4038 1600 4038 1498 4038 
C 1146 4038 890 4058 678 4096 
L 672 3565 
z
M 5574 3296 
C 5107 3315 5018 3315 4896 3315 
C 4307 3315 3910 3264 3142 3104 
L 3194 2592 
C 3795 2746 4224 2803 4813 2803 
C 5094 2803 5274 2790 5581 2752 
L 5574 3296 
z
M 3194 1926 
C 2854 1472 2752 1248 2752 954 
C 2752 301 3315 -38 4384 -38 
C 4736 -38 5062 -6 5536 70 
C 5754 109 5754 109 5830 122 
L 5779 691 
C 5414 557 4832 461 4358 461 
C 3667 461 3283 659 3283 1011 
C 3283 1114 3315 1248 3366 1357 
C 3411 1453 3450 1504 3635 1722 
L 3194 1926 
z
" transform="scale(0.015625)"/>
       <path id="HiraginoSans-W4-308a" d="M 1875 2963 
C 1894 3187 1907 3328 1965 3731 
C 2125 4851 2144 4941 2221 5165 
L 1632 5210 
C 1632 5133 1632 5101 1619 5005 
C 1453 3827 1408 3283 1408 2637 
C 1408 2560 1421 1875 1421 1811 
C 1427 1747 1427 1709 1427 1690 
C 1427 1677 1427 1651 1421 1619 
L 1971 1632 
C 1971 1715 1971 1754 1971 1786 
C 1971 2266 2086 2746 2323 3213 
C 2675 3923 3085 4282 3539 4282 
C 4141 4282 4486 3712 4486 2714 
C 4486 1702 4141 1050 3392 634 
C 3008 422 2675 326 2061 243 
C 2208 51 2253 -26 2349 -282 
C 2816 -186 3206 -58 3520 90 
C 4518 570 5050 1459 5050 2637 
C 5050 3347 4928 3827 4646 4237 
C 4384 4614 4026 4806 3590 4806 
C 3104 4806 2682 4544 2330 4032 
C 2150 3763 2029 3482 1946 3136 
C 1914 3008 1914 3008 1901 2963 
L 1875 2963 
z
" transform="scale(0.015625)"/>
       <path id="HiraginoSans-W4-6b7b" d="M 1229 2163 
C 1555 1920 1754 1734 2048 1395 
C 1626 742 1133 301 371 -109 
C 518 -218 602 -307 723 -506 
C 1504 -38 2061 499 2477 1190 
C 2848 1792 3053 2394 3162 3168 
C 3168 3213 3174 3251 3174 3277 
C 3194 3379 3194 3379 3200 3437 
L 2970 3680 
C 2842 3667 2720 3661 2477 3661 
L 1798 3661 
C 1907 3962 1965 4173 2054 4570 
L 5350 4570 
C 5606 4570 5850 4557 6054 4531 
L 6054 5050 
C 5850 5024 5606 5011 5350 5011 
L 1056 5011 
C 781 5011 570 5024 352 5050 
L 352 4531 
C 563 4557 781 4570 1005 4570 
L 1555 4570 
C 1459 4109 1382 3859 1235 3507 
C 979 2899 678 2464 243 2086 
C 378 1952 435 1869 538 1677 
C 1043 2163 1325 2566 1626 3232 
L 2707 3232 
C 2605 2605 2509 2278 2298 1830 
C 2048 2074 1811 2278 1504 2509 
L 1229 2163 
z
M 4134 1997 
C 4787 2310 5242 2592 5760 3008 
C 5901 3117 5901 3117 5997 3187 
L 5638 3603 
C 5370 3258 4800 2842 4134 2496 
L 4134 3738 
C 4134 3981 4147 4173 4173 4365 
L 3622 4365 
C 3648 4192 3654 4045 3654 3782 
L 3654 134 
C 3654 -301 3808 -371 4787 -371 
C 5952 -371 6029 -294 6131 998 
C 5971 1030 5818 1088 5651 1197 
C 5626 589 5594 365 5523 243 
C 5446 115 5299 83 4781 83 
C 4448 83 4250 102 4186 141 
C 4147 160 4134 192 4134 275 
L 4134 1997 
z
" transform="scale(0.015625)"/>
       <path id="HiraginoSans-W4-4ea1" d="M 2918 4115 
L 1082 4115 
C 755 4115 550 4128 346 4160 
L 346 3597 
C 525 3622 762 3635 1082 3635 
L 1299 3635 
L 1299 666 
C 1299 275 1402 51 1632 -51 
C 1901 -179 2246 -211 3238 -211 
C 4243 -211 4243 -211 5702 -122 
L 5696 416 
C 5030 320 4307 282 3181 282 
C 2458 282 2138 307 1971 371 
C 1862 416 1824 499 1824 691 
L 1824 3635 
L 5331 3635 
C 5664 3635 5888 3622 6067 3597 
L 6067 4160 
C 5856 4128 5632 4115 5318 4115 
L 3443 4115 
L 3443 4730 
C 3443 4966 3456 5139 3488 5286 
L 2874 5286 
C 2906 5101 2918 4928 2918 4723 
L 2918 4115 
z
" transform="scale(0.015625)"/>
       <path id="HiraginoSans-W4-6570" d="M 6170 4173 
C 6003 4141 5862 4134 5568 4134 
L 4288 4134 
C 4365 4384 4435 4627 4512 4947 
C 4557 5126 4563 5152 4595 5235 
L 4077 5344 
C 4070 5158 4032 4934 3974 4672 
C 3782 3853 3437 3130 2995 2598 
C 3142 2509 3226 2438 3354 2291 
C 3526 2515 3610 2643 3770 2931 
C 3904 2176 4070 1702 4397 1158 
C 4013 653 3526 275 2803 -77 
C 2944 -218 3021 -326 3110 -506 
C 3776 -141 4256 250 4666 755 
C 5069 230 5485 -141 6035 -467 
C 6138 -237 6202 -128 6317 13 
C 5747 314 5338 653 4954 1158 
C 5171 1523 5325 1875 5440 2304 
C 5562 2739 5613 3078 5651 3699 
C 5920 3699 6035 3693 6170 3667 
L 6170 4173 
z
M 5184 3699 
C 5133 2797 4992 2214 4672 1600 
C 4358 2170 4192 2707 4064 3539 
C 4096 3610 4102 3629 4128 3699 
L 5184 3699 
z
M 3046 339 
C 2752 512 2656 570 2419 685 
C 2643 992 2746 1190 2880 1626 
L 2963 1626 
C 3187 1626 3309 1619 3443 1594 
L 3443 2067 
C 3328 2042 3206 2035 2989 2035 
L 1862 2035 
C 1926 2176 1958 2234 2029 2426 
L 1562 2528 
C 1485 2285 1453 2202 1382 2035 
L 832 2035 
C 608 2035 493 2042 365 2067 
L 365 1594 
C 499 1619 614 1626 832 1626 
L 1165 1626 
C 1005 1344 941 1248 723 954 
C 1203 774 1402 691 1702 550 
C 1376 294 902 83 326 -58 
C 429 -205 493 -314 563 -480 
C 1325 -224 1715 -19 2112 346 
C 2432 173 2502 122 2778 -77 
L 3046 339 
z
M 2419 1626 
C 2310 1306 2214 1120 2022 870 
C 1818 960 1709 1005 1357 1146 
C 1504 1370 1549 1440 1651 1626 
L 2419 1626 
z
M 2163 4070 
L 2163 4902 
C 2163 5075 2170 5203 2189 5325 
L 1696 5325 
C 1722 5184 1728 5075 1728 4896 
L 1728 4070 
L 915 4070 
C 666 4070 531 4077 390 4102 
L 390 3642 
C 518 3667 678 3674 902 3674 
L 1434 3674 
C 1133 3258 864 3034 269 2688 
C 410 2566 486 2477 589 2317 
C 1184 2739 1408 2963 1747 3494 
C 1734 3366 1728 3258 1728 3162 
L 1728 2835 
C 1728 2752 1722 2662 1702 2586 
L 2182 2586 
C 2170 2662 2163 2758 2163 2848 
L 2163 3168 
C 2163 3258 2157 3347 2138 3494 
C 2355 3162 2490 3014 2848 2739 
C 2989 2970 3002 2982 3130 3110 
C 2816 3277 2566 3469 2406 3674 
L 2989 3674 
C 3200 3674 3309 3667 3418 3648 
L 3418 4096 
C 3322 4077 3200 4070 2995 4070 
L 2163 4070 
z
M 570 5056 
C 774 4768 896 4550 1024 4211 
L 1427 4371 
C 1286 4704 1190 4883 960 5210 
L 570 5056 
z
M 2918 5235 
C 2784 4883 2643 4634 2406 4333 
L 2790 4147 
C 3008 4442 3104 4608 3328 5050 
L 2918 5235 
z
" transform="scale(0.015625)"/>
      </defs>
      <use xlink:href="#HiraginoSans-W4-31"/>
      <use xlink:href="#HiraginoSans-W4-65e5" x="67.299988"/>
      <use xlink:href="#HiraginoSans-W4-3042" x="167.299973"/>
      <use xlink:href="#HiraginoSans-W4-305f" x="267.299957"/>
      <use xlink:href="#HiraginoSans-W4-308a" x="367.299942"/>
      <use xlink:href="#HiraginoSans-W4-6b7b" x="467.299927"/>
      <use xlink:href="#HiraginoSans-W4-4ea1" x="567.299911"/>
      <use xlink:href="#HiraginoSans-W4-6570" x="667.299896"/>
     </g>
    </g>
   </g>
   <g id="line2d_14">
    <path d="M 71.131165 261.216 
L 91.422074 260.770969 
L 111.712983 244.543998 
L 132.003892 223.514318 
L 152.294801 221.761828 
L 172.58571 184.291609 
L 192.876619 146.206501 
L 213.167528 146.30276 
L 233.458437 135.763569 
L 253.749347 132.646996 
L 274.040256 120.767056 
L 294.331165 111.204811 
L 314.622074 86.756526 
L 334.912983 71.874838 
L 355.203892 59.221701 
L 375.494801 67.435197 
L 395.78571 19.296 
" clip-path="url(#p7d982ea206)" style="fill: none; stroke: #1f77b4; stroke-width: 1.5; stroke-linecap: square"/>
    <defs>
     <path id="mbf141e8915" d="M 0 3 
C 0.795609 3 1.55874 2.683901 2.12132 2.12132 
C 2.683901 1.55874 3 0.795609 3 0 
C 3 -0.795609 2.683901 -1.55874 2.12132 -2.12132 
C 1.55874 -2.683901 0.795609 -3 0 -3 
C -0.795609 -3 -1.55874 -2.683901 -2.12132 -2.12132 
C -2.683901 -1.55874 -3 -0.795609 -3 0 
C -3 0.795609 -2.683901 1.55874 -2.12132 2.12132 
C -1.55874 2.683901 -0.795609 3 0 3 
z
" style="stroke: #1f77b4"/>
    </defs>
    <g clip-path="url(#p7d982ea206)">
     <use xlink:href="#mbf141e8915" x="71.131165" y="261.216" style="fill: #1f77b4; stroke: #1f77b4"/>
     <use xlink:href="#mbf141e8915" x="91.422074" y="260.770969" style="fill: #1f77b4; stroke: #1f77b4"/>
     <use xlink:href="#mbf141e8915" x="111.712983" y="244.543998" style="fill: #1f77b4; stroke: #1f77b4"/>
     <use xlink:href="#mbf141e8915" x="132.003892" y="223.514318" style="fill: #1f77b4; stroke: #1f77b4"/>
     <use xlink:href="#mbf141e8915" x="152.294801" y="221.761828" style="fill: #1f77b4; stroke: #1f77b4"/>
     <use xlink:href="#mbf141e8915" x="172.58571" y="184.291609" style="fill: #1f77b4; stroke: #1f77b4"/>
     <use xlink:href="#mbf141e8915" x="192.876619" y="146.206501" style="fill: #1f77b4; stroke: #1f77b4"/>
     <use xlink:href="#mbf141e8915" x="213.167528" y="146.30276" style="fill: #1f77b4; stroke: #1f77b4"/>
     <use xlink:href="#mbf141e8915" x="233.458437" y="135.763569" style="fill: #1f77b4; stroke: #1f77b4"/>
     <use xlink:href="#mbf141e8915" x="253.749347" y="132.646996" style="fill: #1f77b4; stroke: #1f77b4"/>
     <use xlink:href="#mbf141e8915" x="274.040256" y="120.767056" style="fill: #1f77b4; stroke: #1f77b4"/>
     <use xlink:href="#mbf141e8915" x="294.331165" y="111.204811" style="fill: #1f77b4; stroke: #1f77b4"/>
     <use xlink:href="#mbf141e8915" x="314.622074" y="86.756526" style="fill: #1f77b4; stroke: #1f77b4"/>
     <use xlink:href="#mbf141e8915" x="334.912983" y="71.874838" style="fill: #1f77b4; stroke: #1f77b4"/>
     <use xlink:href="#mbf141e8915" x="355.203892" y="59.221701" style="fill: #1f77b4; stroke: #1f77b4"/>
     <use xlink:href="#mbf141e8915" x="375.494801" y="67.435197" style="fill: #1f77b4; stroke: #1f77b4"/>
     <use xlink:href="#mbf141e8915" x="395.78571" y="19.296" style="fill: #1f77b4; stroke: #1f77b4"/>
    </g>
   </g>
   <g id="patch_3">
    <path d="M 54.898438 273.312 
L 54.898438 7.2 
" style="fill: none; stroke: #000000; stroke-width: 0.8; stroke-linejoin: miter; stroke-linecap: square"/>
   </g>
   <g id="patch_4">
    <path d="M 412.018438 273.312 
L 412.018438 7.2 
" style="fill: none; stroke: #000000; stroke-width: 0.8; stroke-linejoin: miter; stroke-linecap: square"/>
   </g>
   <g id="patch_5">
    <path d="M 54.898438 273.312 
L 412.018438 273.312 
" style="fill: none; stroke: #000000; stroke-width: 0.8; stroke-linejoin: miter; stroke-linecap: square"/>
   </g>
   <g id="patch_6">
    <path d="M 54.898438 7.2 
L 412.018438 7.2 
" style="fill: none; stroke: #000000; stroke-width: 0.8; stroke-linejoin: miter; stroke-linecap: square"/>
   </g>
  </g>
 </g>
 <defs>
  <clipPath id="p7d982ea206">
   <rect x="54.898438" y="7.2" width="357.12" height="266.112"/>
  </clipPath>
 </defs>
</svg>
