<?xml version="1.0" encoding="utf-8" standalone="no"?>
<!DOCTYPE svg PUBLIC "-//W3C//DTD SVG 1.1//EN"
  "http://www.w3.org/Graphics/SVG/1.1/DTD/svg11.dtd">
<svg height="297.939754pt" version="1.1" viewBox="0 0 417.104375 297.939754" width="417.104375pt" xmlns="http://www.w3.org/2000/svg" xmlns:xlink="http://www.w3.org/1999/xlink">
 <metadata>
  <rdf:RDF xmlns:cc="http://creativecommons.org/ns#" xmlns:dc="http://purl.org/dc/elements/1.1/" xmlns:rdf="http://www.w3.org/1999/02/22-rdf-syntax-ns#">
   <cc:Work>
    <dc:type rdf:resource="http://purl.org/dc/dcmitype/StillImage"/>
    <dc:date>2021-05-25T16:03:55.584685</dc:date>
    <dc:format>image/svg+xml</dc:format>
    <dc:creator>
     <cc:Agent>
      <dc:title>Matplotlib v3.4.2, https://matplotlib.org/</dc:title>
     </cc:Agent>
    </dc:creator>
   </cc:Work>
  </rdf:RDF>
 </metadata>
 <defs>
  <style type="text/css">*{stroke-linecap:butt;stroke-linejoin:round;}</style>
 </defs>
 <g id="figure_1">
  <g id="patch_1">
   <path d="M 0 297.939754 
L 417.104375 297.939754 
L 417.104375 0 
L 0 0 
z
" style="fill:#ffffff;"/>
  </g>
  <g id="axes_1">
   <g id="patch_2">
    <path d="M 52.784375 274.349129 
L 409.904375 274.349129 
L 409.904375 8.237129 
L 52.784375 8.237129 
z
" style="fill:#ffffff;"/>
   </g>
   <g id="matplotlib.axis_1">
    <g id="xtick_1">
     <g id="line2d_1">
      <defs>
       <path d="M 0 0 
L 0 3.5 
" id="mec9ef48477" style="stroke:#000000;stroke-width:0.8;"/>
      </defs>
      <g>
       <use style="stroke:#000000;stroke-width:0.8;" x="69.017102" xlink:href="#mec9ef48477" y="274.349129"/>
      </g>
     </g>
     <g id="text_1">
      <!-- 2014 -->
      <g transform="translate(56.420227 288.839754)scale(0.1 -0.1)">
       <defs>
        <path d="M 3659 63 
L 447 63 
L 447 594 
Q 825 1475 1894 2203 
L 2072 2322 
Q 2619 2697 2791 2906 
Q 2988 3153 2988 3444 
Q 2988 3772 2756 4003 
Q 2500 4259 2084 4259 
Q 1250 4259 991 3328 
L 497 3506 
Q 853 4725 2116 4725 
Q 2806 4725 3216 4316 
Q 3575 3947 3575 3425 
Q 3575 3038 3344 2722 
Q 3131 2416 2366 1938 
L 2231 1856 
Q 1256 1253 978 569 
L 3659 569 
L 3659 63 
z
" id="IPAexGothic-32" transform="scale(0.015625)"/>
        <path d="M 2038 4725 
Q 2881 4725 3334 3944 
Q 3694 3325 3694 2344 
Q 3694 1372 3334 741 
Q 2888 -31 2016 -31 
Q 1147 -31 700 741 
Q 341 1372 341 2350 
Q 341 3713 1000 4334 
Q 1419 4725 2038 4725 
z
M 2016 4266 
Q 1516 4266 1228 3759 
Q 934 3247 934 2344 
Q 934 1456 1222 947 
Q 1513 447 2016 447 
Q 2619 447 2909 1153 
Q 3100 1622 3100 2375 
Q 3100 3256 2806 3759 
Q 2509 4266 2016 4266 
z
" id="IPAexGothic-30" transform="scale(0.015625)"/>
        <path d="M 2463 63 
L 1900 63 
L 1900 4103 
Q 1372 3922 788 3797 
L 684 4231 
Q 1519 4441 2106 4731 
L 2463 4731 
L 2463 63 
z
" id="IPAexGothic-31" transform="scale(0.015625)"/>
        <path d="M 3813 1159 
L 3059 1159 
L 3059 63 
L 2547 63 
L 2547 1159 
L 197 1159 
L 197 1672 
L 2456 4678 
L 3059 4678 
L 3059 1634 
L 3813 1634 
L 3813 1159 
z
M 2578 4109 
L 2559 4109 
Q 2278 3656 2003 3284 
L 759 1634 
L 2547 1634 
L 2547 3144 
Q 2547 3481 2578 4109 
z
" id="IPAexGothic-34" transform="scale(0.015625)"/>
       </defs>
       <use xlink:href="#IPAexGothic-32"/>
       <use x="62.988281" xlink:href="#IPAexGothic-30"/>
       <use x="125.976562" xlink:href="#IPAexGothic-31"/>
       <use x="188.964844" xlink:href="#IPAexGothic-34"/>
      </g>
     </g>
    </g>
    <g id="xtick_2">
     <g id="line2d_2">
      <g>
       <use style="stroke:#000000;stroke-width:0.8;" x="115.396323" xlink:href="#mec9ef48477" y="274.349129"/>
      </g>
     </g>
     <g id="text_2">
      <!-- 2015 -->
      <g transform="translate(102.799448 288.839754)scale(0.1 -0.1)">
       <defs>
        <path d="M 1178 2603 
Q 1634 2963 2172 2963 
Q 2816 2963 3241 2528 
Q 3638 2113 3638 1497 
Q 3638 938 3297 513 
Q 2869 -31 2031 -31 
Q 959 -31 469 784 
L 938 1028 
Q 1309 434 2013 434 
Q 2466 434 2769 716 
Q 3081 1013 3081 1503 
Q 3081 1966 2806 2241 
Q 2519 2528 2056 2528 
Q 1406 2528 1072 2028 
L 591 2091 
L 884 4634 
L 3406 4634 
L 3406 4153 
L 1341 4153 
L 1134 2603 
L 1178 2603 
z
" id="IPAexGothic-35" transform="scale(0.015625)"/>
       </defs>
       <use xlink:href="#IPAexGothic-32"/>
       <use x="62.988281" xlink:href="#IPAexGothic-30"/>
       <use x="125.976562" xlink:href="#IPAexGothic-31"/>
       <use x="188.964844" xlink:href="#IPAexGothic-35"/>
      </g>
     </g>
    </g>
    <g id="xtick_3">
     <g id="line2d_3">
      <g>
       <use style="stroke:#000000;stroke-width:0.8;" x="161.775544" xlink:href="#mec9ef48477" y="274.349129"/>
      </g>
     </g>
     <g id="text_3">
      <!-- 2016 -->
      <g transform="translate(149.178669 288.839754)scale(0.1 -0.1)">
       <defs>
        <path d="M 1056 2328 
Q 1509 2981 2234 2981 
Q 2906 2981 3316 2513 
Q 3675 2106 3675 1522 
Q 3675 884 3272 434 
Q 2853 -31 2178 -31 
Q 1375 -31 922 581 
Q 481 1178 481 2228 
Q 481 3425 1013 4109 
Q 1494 4725 2272 4725 
Q 3191 4725 3609 4025 
L 3150 3775 
Q 2894 4266 2300 4266 
Q 1119 4266 1031 2328 
L 1056 2328 
z
M 2141 2547 
Q 1684 2547 1384 2206 
Q 1116 1900 1116 1541 
Q 1116 1156 1353 844 
Q 1672 428 2159 428 
Q 2669 428 2941 844 
Q 3125 1128 3125 1503 
Q 3125 1944 2881 2228 
Q 2600 2547 2141 2547 
z
" id="IPAexGothic-36" transform="scale(0.015625)"/>
       </defs>
       <use xlink:href="#IPAexGothic-32"/>
       <use x="62.988281" xlink:href="#IPAexGothic-30"/>
       <use x="125.976562" xlink:href="#IPAexGothic-31"/>
       <use x="188.964844" xlink:href="#IPAexGothic-36"/>
      </g>
     </g>
    </g>
    <g id="xtick_4">
     <g id="line2d_4">
      <g>
       <use style="stroke:#000000;stroke-width:0.8;" x="208.154765" xlink:href="#mec9ef48477" y="274.349129"/>
      </g>
     </g>
     <g id="text_4">
      <!-- 2017 -->
      <g transform="translate(195.55789 288.839754)scale(0.1 -0.1)">
       <defs>
        <path d="M 3597 4263 
Q 2238 2106 1778 63 
L 1131 63 
Q 1581 1834 2950 4128 
L 428 4128 
L 428 4634 
L 3597 4634 
L 3597 4263 
z
" id="IPAexGothic-37" transform="scale(0.015625)"/>
       </defs>
       <use xlink:href="#IPAexGothic-32"/>
       <use x="62.988281" xlink:href="#IPAexGothic-30"/>
       <use x="125.976562" xlink:href="#IPAexGothic-31"/>
       <use x="188.964844" xlink:href="#IPAexGothic-37"/>
      </g>
     </g>
    </g>
    <g id="xtick_5">
     <g id="line2d_5">
      <g>
       <use style="stroke:#000000;stroke-width:0.8;" x="254.533985" xlink:href="#mec9ef48477" y="274.349129"/>
      </g>
     </g>
     <g id="text_5">
      <!-- 2018 -->
      <g transform="translate(241.93711 288.839754)scale(0.1 -0.1)">
       <defs>
        <path d="M 2541 2425 
Q 3700 2031 3700 1197 
Q 3700 541 3100 197 
Q 2663 -56 2016 -56 
Q 1366 -56 928 197 
Q 347 531 347 1178 
Q 347 1988 1409 2381 
L 1409 2400 
Q 481 2734 481 3509 
Q 481 4100 981 4456 
Q 1406 4756 2019 4756 
Q 2703 4756 3131 4403 
Q 3553 4069 3553 3566 
Q 3553 2706 2541 2444 
L 2541 2425 
z
M 2022 2625 
Q 2997 2856 2997 3528 
Q 2997 3916 2675 4150 
Q 2413 4347 2016 4347 
Q 1606 4347 1331 4128 
Q 1050 3897 1050 3522 
Q 1050 3150 1350 2925 
Q 1494 2809 1722 2722 
Q 1984 2616 2022 2625 
z
M 1978 2209 
Q 922 1931 922 1216 
Q 922 775 1313 556 
Q 1606 391 2009 391 
Q 2575 391 2881 697 
Q 3106 922 3106 1250 
Q 3106 1594 2794 1850 
Q 2609 1994 2350 2100 
Q 2047 2222 1978 2209 
z
" id="IPAexGothic-38" transform="scale(0.015625)"/>
       </defs>
       <use xlink:href="#IPAexGothic-32"/>
       <use x="62.988281" xlink:href="#IPAexGothic-30"/>
       <use x="125.976562" xlink:href="#IPAexGothic-31"/>
       <use x="188.964844" xlink:href="#IPAexGothic-38"/>
      </g>
     </g>
    </g>
    <g id="xtick_6">
     <g id="line2d_6">
      <g>
       <use style="stroke:#000000;stroke-width:0.8;" x="300.913206" xlink:href="#mec9ef48477" y="274.349129"/>
      </g>
     </g>
     <g id="text_6">
      <!-- 2019 -->
      <g transform="translate(288.316331 288.839754)scale(0.1 -0.1)">
       <defs>
        <path d="M 2984 2356 
Q 2544 1716 1813 1716 
Q 1253 1716 847 2056 
Q 366 2459 366 3163 
Q 366 3813 769 4266 
Q 1181 4725 1869 4725 
Q 2800 4725 3241 3950 
Q 3559 3378 3559 2472 
Q 3559 1250 3041 588 
Q 2553 -31 1769 -31 
Q 859 -31 391 703 
L 853 953 
Q 1156 428 1753 428 
Q 2922 428 3009 2356 
L 2984 2356 
z
M 1888 4278 
Q 1450 4278 1172 3950 
Q 922 3653 922 3200 
Q 922 2741 1159 2478 
Q 1434 2163 1906 2163 
Q 2431 2163 2728 2572 
Q 2925 2847 2925 3169 
Q 2925 3553 2694 3863 
Q 2375 4278 1888 4278 
z
" id="IPAexGothic-39" transform="scale(0.015625)"/>
       </defs>
       <use xlink:href="#IPAexGothic-32"/>
       <use x="62.988281" xlink:href="#IPAexGothic-30"/>
       <use x="125.976562" xlink:href="#IPAexGothic-31"/>
       <use x="188.964844" xlink:href="#IPAexGothic-39"/>
      </g>
     </g>
    </g>
    <g id="xtick_7">
     <g id="line2d_7">
      <g>
       <use style="stroke:#000000;stroke-width:0.8;" x="347.292427" xlink:href="#mec9ef48477" y="274.349129"/>
      </g>
     </g>
     <g id="text_7">
      <!-- 2020 -->
      <g transform="translate(334.695552 288.839754)scale(0.1 -0.1)">
       <use xlink:href="#IPAexGothic-32"/>
       <use x="62.988281" xlink:href="#IPAexGothic-30"/>
       <use x="125.976562" xlink:href="#IPAexGothic-32"/>
       <use x="188.964844" xlink:href="#IPAexGothic-30"/>
      </g>
     </g>
    </g>
    <g id="xtick_8">
     <g id="line2d_8">
      <g>
       <use style="stroke:#000000;stroke-width:0.8;" x="393.671648" xlink:href="#mec9ef48477" y="274.349129"/>
      </g>
     </g>
     <g id="text_8">
      <!-- 2021 -->
      <g transform="translate(381.074773 288.839754)scale(0.1 -0.1)">
       <use xlink:href="#IPAexGothic-32"/>
       <use x="62.988281" xlink:href="#IPAexGothic-30"/>
       <use x="125.976562" xlink:href="#IPAexGothic-32"/>
       <use x="188.964844" xlink:href="#IPAexGothic-31"/>
      </g>
     </g>
    </g>
   </g>
   <g id="matplotlib.axis_2">
    <g id="ytick_1">
     <g id="line2d_9">
      <defs>
       <path d="M 0 0 
L -3.5 0 
" id="m1e069cdd0d" style="stroke:#000000;stroke-width:0.8;"/>
      </defs>
      <g>
       <use style="stroke:#000000;stroke-width:0.8;" x="52.784375" xlink:href="#m1e069cdd0d" y="242.967653"/>
      </g>
     </g>
     <g id="text_9">
      <!-- 3200 -->
      <g transform="translate(20.590625 246.712965)scale(0.1 -0.1)">
       <defs>
        <path d="M 2381 2419 
Q 3506 2216 3506 1278 
Q 3506 716 3128 356 
Q 2709 -31 1944 -31 
Q 797 -31 288 881 
L 756 1131 
Q 1109 441 1938 441 
Q 2425 441 2694 691 
Q 2950 928 2950 1291 
Q 2950 1719 2566 1978 
Q 2216 2213 1644 2213 
L 1363 2213 
L 1363 2669 
L 1656 2669 
Q 2231 2669 2534 2888 
Q 2859 3119 2859 3509 
Q 2859 3934 2494 4138 
Q 2259 4278 1931 4278 
Q 1238 4278 903 3578 
L 434 3803 
Q 897 4725 1938 4725 
Q 2597 4725 3006 4394 
Q 3416 4069 3416 3534 
Q 3416 3028 3019 2706 
Q 2763 2500 2381 2444 
L 2381 2419 
z
" id="IPAexGothic-33" transform="scale(0.015625)"/>
       </defs>
       <use xlink:href="#IPAexGothic-33"/>
       <use x="62.988281" xlink:href="#IPAexGothic-32"/>
       <use x="125.976562" xlink:href="#IPAexGothic-30"/>
       <use x="188.964844" xlink:href="#IPAexGothic-30"/>
      </g>
     </g>
    </g>
    <g id="ytick_2">
     <g id="line2d_10">
      <g>
       <use style="stroke:#000000;stroke-width:0.8;" x="52.784375" xlink:href="#m1e069cdd0d" y="209.821604"/>
      </g>
     </g>
     <g id="text_10">
      <!-- 3400 -->
      <g transform="translate(20.590625 213.566917)scale(0.1 -0.1)">
       <use xlink:href="#IPAexGothic-33"/>
       <use x="62.988281" xlink:href="#IPAexGothic-34"/>
       <use x="125.976562" xlink:href="#IPAexGothic-30"/>
       <use x="188.964844" xlink:href="#IPAexGothic-30"/>
      </g>
     </g>
    </g>
    <g id="ytick_3">
     <g id="line2d_11">
      <g>
       <use style="stroke:#000000;stroke-width:0.8;" x="52.784375" xlink:href="#m1e069cdd0d" y="176.675556"/>
      </g>
     </g>
     <g id="text_11">
      <!-- 3600 -->
      <g transform="translate(20.590625 180.420868)scale(0.1 -0.1)">
       <use xlink:href="#IPAexGothic-33"/>
       <use x="62.988281" xlink:href="#IPAexGothic-36"/>
       <use x="125.976562" xlink:href="#IPAexGothic-30"/>
       <use x="188.964844" xlink:href="#IPAexGothic-30"/>
      </g>
     </g>
    </g>
    <g id="ytick_4">
     <g id="line2d_12">
      <g>
       <use style="stroke:#000000;stroke-width:0.8;" x="52.784375" xlink:href="#m1e069cdd0d" y="143.529507"/>
      </g>
     </g>
     <g id="text_12">
      <!-- 3800 -->
      <g transform="translate(20.590625 147.27482)scale(0.1 -0.1)">
       <use xlink:href="#IPAexGothic-33"/>
       <use x="62.988281" xlink:href="#IPAexGothic-38"/>
       <use x="125.976562" xlink:href="#IPAexGothic-30"/>
       <use x="188.964844" xlink:href="#IPAexGothic-30"/>
      </g>
     </g>
    </g>
    <g id="ytick_5">
     <g id="line2d_13">
      <g>
       <use style="stroke:#000000;stroke-width:0.8;" x="52.784375" xlink:href="#m1e069cdd0d" y="110.383458"/>
      </g>
     </g>
     <g id="text_13">
      <!-- 4000 -->
      <g transform="translate(20.590625 114.128771)scale(0.1 -0.1)">
       <use xlink:href="#IPAexGothic-34"/>
       <use x="62.988281" xlink:href="#IPAexGothic-30"/>
       <use x="125.976562" xlink:href="#IPAexGothic-30"/>
       <use x="188.964844" xlink:href="#IPAexGothic-30"/>
      </g>
     </g>
    </g>
    <g id="ytick_6">
     <g id="line2d_14">
      <g>
       <use style="stroke:#000000;stroke-width:0.8;" x="52.784375" xlink:href="#m1e069cdd0d" y="77.23741"/>
      </g>
     </g>
     <g id="text_14">
      <!-- 4200 -->
      <g transform="translate(20.590625 80.982722)scale(0.1 -0.1)">
       <use xlink:href="#IPAexGothic-34"/>
       <use x="62.988281" xlink:href="#IPAexGothic-32"/>
       <use x="125.976562" xlink:href="#IPAexGothic-30"/>
       <use x="188.964844" xlink:href="#IPAexGothic-30"/>
      </g>
     </g>
    </g>
    <g id="ytick_7">
     <g id="line2d_15">
      <g>
       <use style="stroke:#000000;stroke-width:0.8;" x="52.784375" xlink:href="#m1e069cdd0d" y="44.091361"/>
      </g>
     </g>
     <g id="text_15">
      <!-- 4400 -->
      <g transform="translate(20.590625 47.836674)scale(0.1 -0.1)">
       <use xlink:href="#IPAexGothic-34"/>
       <use x="62.988281" xlink:href="#IPAexGothic-34"/>
       <use x="125.976562" xlink:href="#IPAexGothic-30"/>
       <use x="188.964844" xlink:href="#IPAexGothic-30"/>
      </g>
     </g>
    </g>
    <g id="ytick_8">
     <g id="line2d_16">
      <g>
       <use style="stroke:#000000;stroke-width:0.8;" x="52.784375" xlink:href="#m1e069cdd0d" y="10.945312"/>
      </g>
     </g>
     <g id="text_16">
      <!-- 4600 -->
      <g transform="translate(20.590625 14.690625)scale(0.1 -0.1)">
       <use xlink:href="#IPAexGothic-34"/>
       <use x="62.988281" xlink:href="#IPAexGothic-36"/>
       <use x="125.976562" xlink:href="#IPAexGothic-30"/>
       <use x="188.964844" xlink:href="#IPAexGothic-30"/>
      </g>
     </g>
    </g>
    <g id="text_17">
     <!-- 1日あたり死亡数 -->
     <g transform="translate(14.690625 179.442348)rotate(-90)scale(0.1 -0.1)">
      <defs>
       <path d="M 5231 4800 
L 5231 -288 
L 4744 -288 
L 4744 128 
L 1647 128 
L 1647 -288 
L 1159 -288 
L 1159 4800 
L 5231 4800 
z
M 1647 4372 
L 1647 2731 
L 4744 2731 
L 4744 4372 
L 1647 4372 
z
M 1647 2297 
L 1647 556 
L 4744 556 
L 4744 2297 
L 1647 2297 
z
" id="IPAexGothic-65e5" transform="scale(0.015625)"/>
       <path d="M 966 4134 
Q 1228 4116 1550 4116 
Q 1934 4116 2284 4141 
Q 2297 4247 2319 4453 
Q 2369 4872 2381 5050 
L 2853 5019 
Q 2794 4547 2759 4178 
Q 3672 4275 4581 4525 
L 4634 4084 
Q 3750 3863 2713 3756 
Q 2675 3378 2663 2931 
Q 3088 3084 3669 3138 
Q 3738 3325 3763 3547 
L 4238 3438 
Q 4188 3219 4153 3128 
Q 4797 3041 5166 2741 
Q 5703 2297 5703 1581 
Q 5703 794 5056 300 
Q 4559 -84 3681 -213 
L 3406 213 
Q 4169 297 4622 594 
Q 5203 969 5203 1588 
Q 5203 2216 4672 2553 
Q 4413 2725 4025 2772 
Q 3550 1556 2747 800 
Q 2766 584 2847 275 
L 2388 103 
Q 2369 191 2316 525 
Q 1756 128 1300 128 
Q 666 128 666 794 
Q 666 1244 950 1691 
Q 1216 2100 1678 2425 
Q 1834 2541 2194 2731 
Q 2206 3159 2253 3719 
Q 1772 3681 1338 3681 
Q 1106 3681 1006 3688 
L 966 4134 
z
M 2188 2291 
Q 1966 2169 1703 1913 
Q 1431 1650 1272 1353 
Q 1144 1109 1134 922 
Q 1119 575 1384 575 
Q 1788 575 2247 997 
Q 2197 1497 2188 2291 
z
M 3553 2772 
Q 3038 2700 2638 2534 
Q 2638 1734 2663 1300 
Q 3231 1931 3553 2772 
z
" id="IPAexGothic-3042" transform="scale(0.015625)"/>
       <path d="M 684 3994 
Q 1138 3953 1556 3953 
Q 1797 3953 2106 3975 
Q 2266 4594 2369 5113 
L 2875 5025 
Q 2806 4731 2619 4013 
Q 3209 4084 3656 4191 
L 3688 3719 
Q 3109 3613 2497 3566 
Q 1822 1294 1153 -44 
L 653 172 
Q 1406 1500 1991 3531 
Q 1634 3513 1256 3513 
Q 1106 3513 697 3525 
L 684 3994 
z
M 5753 78 
Q 5059 -13 4597 -13 
Q 3619 -13 3206 334 
Q 2866 625 2766 1222 
L 3213 1388 
Q 3247 1069 3347 903 
Q 3425 775 3578 672 
Q 3866 481 4556 481 
Q 5009 481 5728 575 
L 5753 78 
z
M 3144 2859 
Q 4216 3147 5409 3072 
L 5381 2597 
L 5356 2597 
Q 4263 2663 3194 2419 
L 3144 2859 
z
" id="IPAexGothic-305f" transform="scale(0.015625)"/>
       <path d="M 2878 2925 
Q 2503 2294 2372 2041 
Q 2222 1750 2163 1459 
L 1716 1503 
Q 1509 2131 1509 3091 
Q 1509 3744 1663 4872 
L 2181 4806 
Q 2003 3541 2003 3016 
Q 2003 2613 2028 2259 
Q 2109 2413 2313 2766 
Q 2484 3063 2578 3238 
L 2878 2925 
z
M 2488 128 
Q 3534 503 3928 1184 
Q 4234 1713 4234 2975 
Q 4234 3872 4122 4928 
L 4666 4928 
Q 4759 3794 4759 2975 
Q 4759 1516 4356 844 
Q 3913 103 2853 -288 
L 2488 128 
z
" id="IPAexGothic-308a" transform="scale(0.015625)"/>
       <path d="M 2134 1381 
Q 1691 1863 1256 2200 
Q 997 1788 616 1406 
L 309 1713 
Q 1325 2825 1584 4403 
L 1591 4441 
L 456 4441 
L 456 4856 
L 5947 4856 
L 5947 4441 
L 4053 4441 
L 4053 2431 
Q 4888 2881 5478 3456 
L 5894 3116 
Q 5109 2469 4053 1950 
L 4053 516 
Q 4053 275 4238 225 
Q 4378 194 4684 194 
Q 5428 194 5506 397 
Q 5575 591 5594 1325 
L 6088 1163 
Q 6050 141 5869 -56 
Q 5666 -281 4628 -281 
Q 4063 -281 3841 -166 
Q 3594 -41 3594 356 
L 3594 4441 
L 2050 4441 
Q 2041 4400 2031 4300 
Q 1978 4000 1838 3519 
L 3003 3519 
L 3266 3322 
Q 3028 1938 2472 1028 
Q 1906 119 738 -438 
L 419 -47 
Q 1541 413 2134 1381 
z
M 2356 1797 
Q 2647 2425 2759 3116 
L 1703 3116 
Q 1603 2844 1450 2534 
Q 1966 2188 2356 1797 
z
" id="IPAexGothic-6b7b" transform="scale(0.015625)"/>
       <path d="M 1813 3497 
L 1813 819 
Q 1813 538 2056 488 
Q 2269 450 3194 450 
Q 4369 450 5506 544 
L 5506 38 
Q 4391 -31 3259 -31 
Q 2013 -31 1697 72 
Q 1319 197 1319 647 
L 1319 3497 
L 481 3497 
L 481 3938 
L 2925 3938 
L 2925 5084 
L 3431 5084 
L 3431 3938 
L 5922 3938 
L 5922 3497 
L 1813 3497 
z
" id="IPAexGothic-4ea1" transform="scale(0.015625)"/>
       <path d="M 2847 1553 
Q 2741 1006 2425 534 
Q 2625 441 3091 203 
L 2809 -188 
Q 2541 0 2144 209 
Q 1569 -291 703 -500 
L 422 -125 
Q 1263 19 1747 406 
Q 1222 650 734 816 
Q 975 1172 1147 1503 
L 1172 1553 
L 359 1553 
L 359 1925 
L 1344 1925 
Q 1406 2066 1569 2475 
L 1691 2450 
L 1691 3372 
Q 1250 2738 550 2303 
L 275 2663 
Q 1019 3013 1528 3641 
L 378 3641 
L 378 4006 
L 1691 4006 
L 1691 5313 
L 2113 5313 
L 2113 4006 
L 3297 4006 
L 3297 3641 
L 2113 3641 
L 2113 3513 
Q 2659 3291 3175 2963 
L 2956 2584 
Q 2553 2922 2113 3159 
L 2113 2372 
L 1966 2372 
Q 1928 2288 1872 2141 
Q 1806 1975 1784 1925 
L 3378 1925 
L 3378 1553 
L 2847 1553 
z
M 2419 1553 
L 1613 1553 
Q 1478 1269 1313 997 
Q 1559 909 2047 703 
Q 2313 1047 2419 1553 
z
M 4363 1163 
Q 3953 1781 3738 2638 
Q 3575 2281 3428 2016 
L 3103 2406 
Q 3675 3444 3916 5291 
L 4363 5200 
Q 4284 4666 4197 4197 
L 6009 4197 
L 6009 3775 
L 5503 3775 
Q 5397 2275 4869 1191 
Q 5419 503 6144 75 
L 5822 -378 
Q 5188 106 4631 788 
Q 4113 34 3341 -463 
L 3031 -78 
Q 3888 406 4363 1163 
z
M 4588 1594 
Q 4938 2388 5059 3775 
L 4100 3775 
Q 4041 3519 3972 3288 
Q 3981 3250 3991 3194 
Q 4175 2256 4588 1594 
z
M 1003 4116 
Q 878 4544 638 4934 
L 1053 5094 
Q 1247 4788 1438 4269 
L 1003 4116 
z
M 2316 4269 
Q 2550 4688 2688 5131 
L 3128 4997 
Q 2966 4588 2675 4128 
L 2316 4269 
z
" id="IPAexGothic-6570" transform="scale(0.015625)"/>
      </defs>
      <use xlink:href="#IPAexGothic-31"/>
      <use x="62.988281" xlink:href="#IPAexGothic-65e5"/>
      <use x="162.988281" xlink:href="#IPAexGothic-3042"/>
      <use x="262.988281" xlink:href="#IPAexGothic-305f"/>
      <use x="362.988281" xlink:href="#IPAexGothic-308a"/>
      <use x="462.988281" xlink:href="#IPAexGothic-6b7b"/>
      <use x="562.988281" xlink:href="#IPAexGothic-4ea1"/>
      <use x="662.988281" xlink:href="#IPAexGothic-6570"/>
     </g>
    </g>
   </g>
   <g id="line2d_17">
    <path clip-path="url(#pac39641ece)" d="M 69.017102 106.614432 
L 115.396323 55.553479 
L 161.775544 106.812239 
L 208.154765 67.331018 
L 254.533985 48.8815 
L 300.913206 36.676269 
L 347.292427 83.690197 
L 393.671648 20.333129 
" style="fill:none;stroke:#1f77b4;stroke-linecap:square;stroke-width:1.5;"/>
    <defs>
     <path d="M -1.217102 2.317188 
L 0.108658 2.317188 
L 0.108658 -2.260609 
L -1.334119 -1.971282 
L -1.334119 -2.710673 
L 0.100943 -3 
L 0.912345 -3 
L 0.912345 2.317188 
L 2.238105 2.317188 
L 2.238105 3 
L -1.217102 3 
L -1.217102 2.317188 
z
" id="mdc74b992ba" style="stroke:#1f77b4;"/>
    </defs>
    <g clip-path="url(#pac39641ece)">
     <use style="fill:#1f77b4;stroke:#1f77b4;" x="69.017102" xlink:href="#mdc74b992ba" y="106.614432"/>
     <use style="fill:#1f77b4;stroke:#1f77b4;" x="115.396323" xlink:href="#mdc74b992ba" y="55.553479"/>
     <use style="fill:#1f77b4;stroke:#1f77b4;" x="161.775544" xlink:href="#mdc74b992ba" y="106.812239"/>
     <use style="fill:#1f77b4;stroke:#1f77b4;" x="208.154765" xlink:href="#mdc74b992ba" y="67.331018"/>
     <use style="fill:#1f77b4;stroke:#1f77b4;" x="254.533985" xlink:href="#mdc74b992ba" y="48.8815"/>
     <use style="fill:#1f77b4;stroke:#1f77b4;" x="300.913206" xlink:href="#mdc74b992ba" y="36.676269"/>
     <use style="fill:#1f77b4;stroke:#1f77b4;" x="347.292427" xlink:href="#mdc74b992ba" y="83.690197"/>
     <use style="fill:#1f77b4;stroke:#1f77b4;" x="393.671648" xlink:href="#mdc74b992ba" y="20.333129"/>
    </g>
   </g>
   <g id="line2d_18">
    <path clip-path="url(#pac39641ece)" d="M 69.017102 120.34503 
L 115.396323 121.972738 
L 161.775544 118.801412 
L 208.154765 84.132972 
L 254.533985 48.678538 
L 300.913206 79.095956 
L 347.292427 112.932275 
L 393.671648 69.045601 
" style="fill:none;stroke:#ff7f0e;stroke-linecap:square;stroke-width:1.5;"/>
    <defs>
     <path d="M -0.615789 2.329263 
L 2.166947 2.329263 
L 2.166947 3 
L -1.574526 3 
L -1.574526 2.329263 
Q -1.121053 1.859368 -0.337895 1.068632 
Q 0.446526 0.276632 0.647368 0.046737 
Q 1.030105 -0.382737 1.181684 -0.680842 
Q 1.334526 -0.978947 1.334526 -1.266947 
Q 1.334526 -1.736842 1.004842 -2.032421 
Q 0.675158 -2.329263 0.145895 -2.329263 
Q -0.229263 -2.329263 -0.646105 -2.199158 
Q -1.061684 -2.069053 -1.535368 -1.803789 
L -1.535368 -2.609684 
Q -1.054105 -2.802947 -0.636 -2.901474 
Q -0.216632 -3 0.130737 -3 
Q 1.046526 -3 1.590947 -2.541474 
Q 2.135368 -2.084211 2.135368 -1.318737 
Q 2.135368 -0.954947 1.998947 -0.629053 
Q 1.863789 -0.304421 1.503789 0.137684 
Q 1.405263 0.252632 0.876 0.799579 
Q 0.348 1.346526 -0.615789 2.329263 
z
" id="m22e5a3ad5e" style="stroke:#ff7f0e;"/>
    </defs>
    <g clip-path="url(#pac39641ece)">
     <use style="fill:#ff7f0e;stroke:#ff7f0e;" x="69.017102" xlink:href="#m22e5a3ad5e" y="120.34503"/>
     <use style="fill:#ff7f0e;stroke:#ff7f0e;" x="115.396323" xlink:href="#m22e5a3ad5e" y="121.972738"/>
     <use style="fill:#ff7f0e;stroke:#ff7f0e;" x="161.775544" xlink:href="#m22e5a3ad5e" y="118.801412"/>
     <use style="fill:#ff7f0e;stroke:#ff7f0e;" x="208.154765" xlink:href="#m22e5a3ad5e" y="84.132972"/>
     <use style="fill:#ff7f0e;stroke:#ff7f0e;" x="254.533985" xlink:href="#m22e5a3ad5e" y="48.678538"/>
     <use style="fill:#ff7f0e;stroke:#ff7f0e;" x="300.913206" xlink:href="#m22e5a3ad5e" y="79.095956"/>
     <use style="fill:#ff7f0e;stroke:#ff7f0e;" x="347.292427" xlink:href="#m22e5a3ad5e" y="112.932275"/>
     <use style="fill:#ff7f0e;stroke:#ff7f0e;" x="393.671648" xlink:href="#m22e5a3ad5e" y="69.045601"/>
    </g>
   </g>
   <g id="line2d_19">
    <path clip-path="url(#pac39641ece)" d="M 69.017102 164.871285 
L 115.396323 164.593286 
L 161.775544 152.767632 
L 208.154765 131.367046 
L 254.533985 128.063133 
L 300.913206 141.487283 
L 347.292427 142.572549 
L 393.671648 112.634182 
" style="fill:none;stroke:#2ca02c;stroke-linecap:square;stroke-width:1.5;"/>
    <defs>
     <path d="M 1.01322 -0.231151 
Q 1.574675 -0.110927 1.889486 0.269572 
Q 2.205536 0.648833 2.205536 1.206569 
Q 2.205536 2.061764 1.616815 2.531502 
Q 1.028093 3 -0.056393 3 
Q -0.419541 3 -0.804999 2.928114 
Q -1.190457 2.856228 -1.600702 2.712456 
L -1.600702 1.957653 
Q -1.275976 2.147284 -0.889279 2.243958 
Q -0.501343 2.340632 -0.078703 2.340632 
Q 0.656269 2.340632 1.041727 2.050609 
Q 1.427184 1.760587 1.427184 1.206569 
Q 1.427184 0.694691 1.068994 0.407147 
Q 0.710804 0.118364 0.072506 0.118364 
L -0.601735 0.118364 
L -0.601735 -0.524892 
L 0.103491 -0.524892 
Q 0.679818 -0.524892 0.985953 -0.755422 
Q 1.292088 -0.985953 1.292088 -1.419748 
Q 1.292088 -1.864697 0.976038 -2.102665 
Q 0.661227 -2.341872 0.072506 -2.341872 
Q -0.249742 -2.341872 -0.617848 -2.271225 
Q -0.985953 -2.201818 -1.427184 -2.055567 
L -1.427184 -2.752117 
Q -0.980996 -2.876059 -0.59182 -2.938029 
Q -0.202644 -3 0.141913 -3 
Q 1.033051 -3 1.551126 -2.594712 
Q 2.07044 -2.190663 2.07044 -1.501549 
Q 2.07044 -1.020657 1.79529 -0.689734 
Q 1.52014 -0.35881 1.01322 -0.231151 
z
" id="m851c00d1a6" style="stroke:#2ca02c;"/>
    </defs>
    <g clip-path="url(#pac39641ece)">
     <use style="fill:#2ca02c;stroke:#2ca02c;" x="69.017102" xlink:href="#m851c00d1a6" y="164.871285"/>
     <use style="fill:#2ca02c;stroke:#2ca02c;" x="115.396323" xlink:href="#m851c00d1a6" y="164.593286"/>
     <use style="fill:#2ca02c;stroke:#2ca02c;" x="161.775544" xlink:href="#m851c00d1a6" y="152.767632"/>
     <use style="fill:#2ca02c;stroke:#2ca02c;" x="208.154765" xlink:href="#m851c00d1a6" y="131.367046"/>
     <use style="fill:#2ca02c;stroke:#2ca02c;" x="254.533985" xlink:href="#m851c00d1a6" y="128.063133"/>
     <use style="fill:#2ca02c;stroke:#2ca02c;" x="300.913206" xlink:href="#m851c00d1a6" y="141.487283"/>
     <use style="fill:#2ca02c;stroke:#2ca02c;" x="347.292427" xlink:href="#m851c00d1a6" y="142.572549"/>
     <use style="fill:#2ca02c;stroke:#2ca02c;" x="393.671648" xlink:href="#m851c00d1a6" y="112.634182"/>
    </g>
   </g>
   <g id="line2d_20">
    <path clip-path="url(#pac39641ece)" d="M 69.017102 196.441649 
L 115.396323 193.878355 
L 161.775544 191.790154 
L 208.154765 176.128646 
L 254.533985 172.974247 
L 300.913206 155.16377 
L 347.292427 152.329783 
" style="fill:none;stroke:#d62728;stroke-linecap:square;stroke-width:1.5;"/>
    <defs>
     <path d="M 0.723318 -2.292756 
L -1.326404 0.910416 
L 0.723318 0.910416 
L 0.723318 -2.292756 
z
M 0.509859 -3 
L 1.530862 -3 
L 1.530862 0.910416 
L 2.38727 0.910416 
L 2.38727 1.585512 
L 1.530862 1.585512 
L 1.530862 3 
L 0.723318 3 
L 0.723318 1.585512 
L -1.984784 1.585512 
L -1.984784 0.8024 
L 0.509859 -3 
z
" id="m8a937179a0" style="stroke:#d62728;"/>
    </defs>
    <g clip-path="url(#pac39641ece)">
     <use style="fill:#d62728;stroke:#d62728;" x="69.017102" xlink:href="#m8a937179a0" y="196.441649"/>
     <use style="fill:#d62728;stroke:#d62728;" x="115.396323" xlink:href="#m8a937179a0" y="193.878355"/>
     <use style="fill:#d62728;stroke:#d62728;" x="161.775544" xlink:href="#m8a937179a0" y="191.790154"/>
     <use style="fill:#d62728;stroke:#d62728;" x="208.154765" xlink:href="#m8a937179a0" y="176.128646"/>
     <use style="fill:#d62728;stroke:#d62728;" x="254.533985" xlink:href="#m8a937179a0" y="172.974247"/>
     <use style="fill:#d62728;stroke:#d62728;" x="300.913206" xlink:href="#m8a937179a0" y="155.16377"/>
     <use style="fill:#d62728;stroke:#d62728;" x="347.292427" xlink:href="#m8a937179a0" y="152.329783"/>
    </g>
   </g>
   <g id="line2d_21">
    <path clip-path="url(#pac39641ece)" d="M 69.017102 234.18395 
L 115.396323 224.090444 
L 161.775544 221.256991 
L 208.154765 202.79678 
L 254.533985 202.283551 
L 300.913206 179.247047 
L 347.292427 198.680255 
" style="fill:none;stroke:#9467bd;stroke-linecap:square;stroke-width:1.5;"/>
    <defs>
     <path d="M -1.343914 -3 
L 1.781585 -3 
L 1.781585 -2.328989 
L -0.614883 -2.328989 
L -0.614883 -0.887324 
Q -0.442085 -0.946605 -0.269287 -0.975615 
Q -0.095228 -1.004625 0.078831 -1.004625 
Q 1.063906 -1.004625 1.639058 -0.464789 
Q 2.215472 0.075047 2.215472 0.997057 
Q 2.215472 1.946815 1.623923 2.474038 
Q 1.032373 3 -0.043515 3 
Q -0.414337 3 -0.799033 2.936935 
Q -1.182468 2.87387 -1.59239 2.74774 
L -1.59239 1.946815 
Q -1.237965 2.139794 -0.859575 2.234391 
Q -0.481186 2.328989 -0.059912 2.328989 
Q 0.622451 2.328989 1.01976 1.97078 
Q 1.418331 1.612571 1.418331 0.997057 
Q 1.418331 0.382804 1.01976 0.024595 
Q 0.622451 -0.334875 -0.059912 -0.334875 
Q -0.37902 -0.334875 -0.696868 -0.264242 
Q -1.013454 -0.193609 -1.343914 -0.043515 
L -1.343914 -3 
z
" id="m655f89ae04" style="stroke:#9467bd;"/>
    </defs>
    <g clip-path="url(#pac39641ece)">
     <use style="fill:#9467bd;stroke:#9467bd;" x="69.017102" xlink:href="#m655f89ae04" y="234.18395"/>
     <use style="fill:#9467bd;stroke:#9467bd;" x="115.396323" xlink:href="#m655f89ae04" y="224.090444"/>
     <use style="fill:#9467bd;stroke:#9467bd;" x="161.775544" xlink:href="#m655f89ae04" y="221.256991"/>
     <use style="fill:#9467bd;stroke:#9467bd;" x="208.154765" xlink:href="#m655f89ae04" y="202.79678"/>
     <use style="fill:#9467bd;stroke:#9467bd;" x="254.533985" xlink:href="#m655f89ae04" y="202.283551"/>
     <use style="fill:#9467bd;stroke:#9467bd;" x="300.913206" xlink:href="#m655f89ae04" y="179.247047"/>
     <use style="fill:#9467bd;stroke:#9467bd;" x="347.292427" xlink:href="#m655f89ae04" y="198.680255"/>
    </g>
   </g>
   <g id="line2d_22">
    <path clip-path="url(#pac39641ece)" d="M 69.017102 262.253129 
L 115.396323 250.872985 
L 161.775544 246.044711 
L 208.154765 231.515693 
L 254.533985 229.515881 
L 300.913206 213.21355 
L 347.292427 223.350716 
" style="fill:none;stroke:#8c564b;stroke-linecap:square;stroke-width:1.5;"/>
    <defs>
     <path d="M 0.345177 -0.315431 
Q -0.181574 -0.315431 -0.490188 0.045239 
Q -0.797562 0.404668 -0.797562 1.031812 
Q -0.797562 1.655237 -0.490188 2.018385 
Q -0.181574 2.380293 0.345177 2.380293 
Q 0.871927 2.380293 1.179302 2.018385 
Q 1.486676 1.655237 1.486676 1.031812 
Q 1.486676 0.404668 1.179302 0.045239 
Q 0.871927 -0.315431 0.345177 -0.315431 
z
M 1.898162 -2.76823 
L 1.898162 -2.055567 
Q 1.603181 -2.194381 1.303243 -2.267507 
Q 1.003305 -2.341872 0.708325 -2.341872 
Q -0.066309 -2.341872 -0.475315 -1.818839 
Q -0.883082 -1.295807 -0.941334 -0.238587 
Q -0.713282 -0.575707 -0.368725 -0.755422 
Q -0.022929 -0.935137 0.391035 -0.935137 
Q 1.262342 -0.935137 1.768023 -0.405908 
Q 2.273704 0.122082 2.273704 1.031812 
Q 2.273704 1.92295 1.746953 2.462095 
Q 1.220202 3 0.345177 3 
Q -0.658748 3 -1.189217 2.231564 
Q -1.719686 1.461888 -1.719686 0.001859 
Q -1.719686 -1.368932 -1.068994 -2.184466 
Q -0.418302 -3 0.677339 -3 
Q 0.97232 -3 1.272258 -2.941748 
Q 1.572196 -2.883495 1.898162 -2.76823 
z
" id="me43d7d6b95" style="stroke:#8c564b;"/>
    </defs>
    <g clip-path="url(#pac39641ece)">
     <use style="fill:#8c564b;stroke:#8c564b;" x="69.017102" xlink:href="#me43d7d6b95" y="262.253129"/>
     <use style="fill:#8c564b;stroke:#8c564b;" x="115.396323" xlink:href="#me43d7d6b95" y="250.872985"/>
     <use style="fill:#8c564b;stroke:#8c564b;" x="161.775544" xlink:href="#me43d7d6b95" y="246.044711"/>
     <use style="fill:#8c564b;stroke:#8c564b;" x="208.154765" xlink:href="#me43d7d6b95" y="231.515693"/>
     <use style="fill:#8c564b;stroke:#8c564b;" x="254.533985" xlink:href="#me43d7d6b95" y="229.515881"/>
     <use style="fill:#8c564b;stroke:#8c564b;" x="300.913206" xlink:href="#me43d7d6b95" y="213.21355"/>
     <use style="fill:#8c564b;stroke:#8c564b;" x="347.292427" xlink:href="#me43d7d6b95" y="223.350716"/>
    </g>
   </g>
   <g id="patch_3">
    <path d="M 52.784375 274.349129 
L 52.784375 8.237129 
" style="fill:none;stroke:#000000;stroke-linecap:square;stroke-linejoin:miter;stroke-width:0.8;"/>
   </g>
   <g id="patch_4">
    <path d="M 409.904375 274.349129 
L 409.904375 8.237129 
" style="fill:none;stroke:#000000;stroke-linecap:square;stroke-linejoin:miter;stroke-width:0.8;"/>
   </g>
   <g id="patch_5">
    <path d="M 52.784375 274.349129 
L 409.904375 274.349129 
" style="fill:none;stroke:#000000;stroke-linecap:square;stroke-linejoin:miter;stroke-width:0.8;"/>
   </g>
   <g id="patch_6">
    <path d="M 52.784375 8.237129 
L 409.904375 8.237129 
" style="fill:none;stroke:#000000;stroke-linecap:square;stroke-linejoin:miter;stroke-width:0.8;"/>
   </g>
   <g id="legend_1">
    <g id="patch_7">
     <path d="M 351.465313 269.349129 
L 402.904375 269.349129 
Q 404.904375 269.349129 404.904375 267.349129 
L 404.904375 182.005379 
Q 404.904375 180.005379 402.904375 180.005379 
L 351.465313 180.005379 
Q 349.465313 180.005379 349.465313 182.005379 
L 349.465313 267.349129 
Q 349.465313 269.349129 351.465313 269.349129 
z
" style="fill:#ffffff;opacity:0.8;stroke:#cccccc;stroke-linejoin:miter;"/>
    </g>
    <g id="line2d_23">
     <path d="M 353.465313 187.996004 
L 373.465313 187.996004 
" style="fill:none;stroke:#1f77b4;stroke-linecap:square;stroke-width:1.5;"/>
    </g>
    <g id="line2d_24">
     <g>
      <use style="fill:#1f77b4;stroke:#1f77b4;" x="363.465313" xlink:href="#mdc74b992ba" y="187.996004"/>
     </g>
    </g>
    <g id="text_18">
     <!-- Jan -->
     <g transform="translate(381.465313 191.496004)scale(0.1 -0.1)">
      <defs>
       <path d="M 1819 4634 
L 1819 1234 
Q 1819 -31 763 -31 
Q 303 -31 -125 209 
L 84 644 
Q 378 447 694 447 
Q 1250 447 1250 1203 
L 1250 4634 
L 1819 4634 
z
" id="IPAexGothic-4a" transform="scale(0.015625)"/>
       <path d="M 3156 63 
L 2672 63 
Q 2559 303 2531 556 
L 2509 556 
Q 2147 -25 1428 -25 
Q 934 -25 622 288 
Q 347 563 347 959 
Q 347 1947 2050 1997 
L 2478 2009 
L 2478 2175 
Q 2478 2509 2288 2700 
Q 2088 2900 1775 2900 
Q 1238 2900 969 2378 
L 494 2597 
Q 938 3328 1788 3328 
Q 2375 3328 2691 3000 
Q 2984 2706 2984 2169 
L 2984 997 
Q 2984 400 3156 63 
z
M 2491 1625 
L 2141 1619 
Q 903 1591 903 953 
Q 903 728 1050 581 
Q 1231 403 1525 403 
Q 1934 403 2234 703 
Q 2491 969 2491 1344 
L 2491 1625 
z
" id="IPAexGothic-61" transform="scale(0.015625)"/>
       <path d="M 3328 63 
L 2778 63 
L 2778 2041 
Q 2778 2853 2106 2853 
Q 1428 2853 1113 2041 
L 1113 63 
L 563 63 
L 563 3250 
L 1075 3250 
L 1075 2675 
Q 1525 3316 2222 3316 
Q 3328 3316 3328 2072 
L 3328 63 
z
" id="IPAexGothic-6e" transform="scale(0.015625)"/>
      </defs>
      <use xlink:href="#IPAexGothic-4a"/>
      <use x="37.988281" xlink:href="#IPAexGothic-61"/>
      <use x="92.96875" xlink:href="#IPAexGothic-6e"/>
     </g>
    </g>
    <g id="line2d_25">
     <path d="M 353.465313 202.386629 
L 373.465313 202.386629 
" style="fill:none;stroke:#ff7f0e;stroke-linecap:square;stroke-width:1.5;"/>
    </g>
    <g id="line2d_26">
     <g>
      <use style="fill:#ff7f0e;stroke:#ff7f0e;" x="363.465313" xlink:href="#m22e5a3ad5e" y="202.386629"/>
     </g>
    </g>
    <g id="text_19">
     <!-- Feb -->
     <g transform="translate(381.465313 205.886629)scale(0.1 -0.1)">
      <defs>
       <path d="M 3469 4141 
L 1172 4141 
L 1172 2656 
L 3206 2656 
L 3206 2188 
L 1172 2188 
L 1172 63 
L 609 63 
L 609 4634 
L 3469 4634 
L 3469 4141 
z
" id="IPAexGothic-46" transform="scale(0.015625)"/>
       <path d="M 863 1594 
Q 891 1041 1209 722 
Q 1534 397 1997 397 
Q 2606 397 2963 966 
L 3322 728 
Q 2869 -31 1931 -31 
Q 1222 -31 766 422 
Q 306 884 306 1641 
Q 306 2444 788 2925 
Q 1216 3353 1856 3353 
Q 2459 3353 2866 2956 
Q 3322 2494 3322 1722 
L 3322 1594 
L 863 1594 
z
M 2756 1997 
Q 2709 2431 2450 2681 
Q 2194 2938 1844 2938 
Q 1438 2938 1150 2591 
Q 953 2356 894 1997 
L 2756 1997 
z
" id="IPAexGothic-65" transform="scale(0.015625)"/>
       <path d="M 1125 2731 
Q 1550 3341 2219 3341 
Q 2788 3341 3191 2938 
Q 3659 2469 3659 1644 
Q 3659 838 3191 372 
Q 2788 -31 2206 -31 
Q 1559 -31 1088 516 
L 1009 44 
L 581 44 
L 581 4794 
L 1125 4794 
L 1125 2731 
z
M 1125 1997 
L 1125 1253 
Q 1125 888 1528 600 
Q 1803 403 2119 403 
Q 2488 403 2744 659 
Q 3084 1009 3084 1631 
Q 3084 2194 2803 2553 
Q 2525 2900 2125 2900 
Q 1759 2900 1438 2578 
Q 1125 2266 1125 1997 
z
" id="IPAexGothic-62" transform="scale(0.015625)"/>
      </defs>
      <use xlink:href="#IPAexGothic-46"/>
      <use x="57.177734" xlink:href="#IPAexGothic-65"/>
      <use x="114.0625" xlink:href="#IPAexGothic-62"/>
     </g>
    </g>
    <g id="line2d_27">
     <path d="M 353.465313 216.777254 
L 373.465313 216.777254 
" style="fill:none;stroke:#2ca02c;stroke-linecap:square;stroke-width:1.5;"/>
    </g>
    <g id="line2d_28">
     <g>
      <use style="fill:#2ca02c;stroke:#2ca02c;" x="363.465313" xlink:href="#m851c00d1a6" y="216.777254"/>
     </g>
    </g>
    <g id="text_20">
     <!-- Mar -->
     <g transform="translate(381.465313 220.277254)scale(0.1 -0.1)">
      <defs>
       <path d="M 5147 63 
L 4597 63 
L 4597 2534 
Q 4597 3281 4634 4134 
L 4609 4134 
Q 4356 3409 4066 2675 
L 3066 209 
L 2650 209 
L 1641 2725 
Q 1328 3506 1128 4141 
L 1103 4141 
Q 1141 3131 1141 2553 
L 1141 63 
L 609 63 
L 609 4634 
L 1416 4634 
L 2503 1944 
Q 2697 1472 2869 906 
L 2888 906 
Q 3028 1416 3234 1931 
L 4316 4634 
L 5147 4634 
L 5147 63 
z
" id="IPAexGothic-4d" transform="scale(0.015625)"/>
       <path d="M 2309 3316 
L 2213 2769 
Q 2106 2791 2022 2791 
Q 1653 2791 1413 2444 
Q 1113 2006 1113 1675 
L 1113 63 
L 563 63 
L 563 3250 
L 1081 3250 
L 1056 2303 
L 1069 2303 
Q 1422 3341 2097 3341 
Q 2206 3341 2309 3316 
z
" id="IPAexGothic-72" transform="scale(0.015625)"/>
      </defs>
      <use xlink:href="#IPAexGothic-4d"/>
      <use x="90.185547" xlink:href="#IPAexGothic-61"/>
      <use x="145.166016" xlink:href="#IPAexGothic-72"/>
     </g>
    </g>
    <g id="line2d_29">
     <path d="M 353.465313 231.167879 
L 373.465313 231.167879 
" style="fill:none;stroke:#d62728;stroke-linecap:square;stroke-width:1.5;"/>
    </g>
    <g id="line2d_30">
     <g>
      <use style="fill:#d62728;stroke:#d62728;" x="363.465313" xlink:href="#m8a937179a0" y="231.167879"/>
     </g>
    </g>
    <g id="text_21">
     <!-- Apr -->
     <g transform="translate(381.465313 234.667879)scale(0.1 -0.1)">
      <defs>
       <path d="M 4056 63 
L 3444 63 
L 2938 1409 
L 1100 1409 
L 603 63 
L -6 63 
L 1806 4666 
L 2259 4666 
L 4056 63 
z
M 2778 1863 
L 2316 3078 
Q 2125 3588 2028 4000 
L 2009 4000 
Q 1897 3563 1716 3078 
L 1263 1863 
L 2778 1863 
z
" id="IPAexGothic-41" transform="scale(0.015625)"/>
       <path d="M 1075 2688 
Q 1525 3341 2206 3341 
Q 2769 3341 3172 2938 
Q 3641 2469 3641 1644 
Q 3641 841 3178 372 
Q 2775 -31 2200 -31 
Q 1569 -31 1106 497 
L 1106 -1216 
L 563 -1216 
L 563 3250 
L 1075 3250 
L 1075 2688 
z
M 1106 1950 
L 1106 1291 
Q 1106 897 1516 600 
Q 1791 403 2106 403 
Q 2469 403 2725 659 
Q 3066 997 3066 1631 
Q 3066 2200 2784 2559 
Q 2503 2900 2100 2900 
Q 1656 2900 1338 2484 
Q 1106 2184 1106 1950 
z
" id="IPAexGothic-70" transform="scale(0.015625)"/>
      </defs>
      <use xlink:href="#IPAexGothic-41"/>
      <use x="63.720703" xlink:href="#IPAexGothic-70"/>
      <use x="125.830078" xlink:href="#IPAexGothic-72"/>
     </g>
    </g>
    <g id="line2d_31">
     <path d="M 353.465313 245.558504 
L 373.465313 245.558504 
" style="fill:none;stroke:#9467bd;stroke-linecap:square;stroke-width:1.5;"/>
    </g>
    <g id="line2d_32">
     <g>
      <use style="fill:#9467bd;stroke:#9467bd;" x="363.465313" xlink:href="#m655f89ae04" y="245.558504"/>
     </g>
    </g>
    <g id="text_22">
     <!-- May -->
     <g transform="translate(381.465313 249.058504)scale(0.1 -0.1)">
      <defs>
       <path d="M 3122 3250 
L 1575 -488 
Q 1278 -1203 550 -1203 
L 478 -1203 
L 344 -703 
L 447 -703 
Q 969 -703 1150 -238 
L 1356 275 
L 38 3250 
L 659 3250 
L 1363 1459 
Q 1528 1025 1606 781 
L 1625 781 
Q 1750 1169 1863 1459 
L 2528 3250 
L 3122 3250 
z
" id="IPAexGothic-79" transform="scale(0.015625)"/>
      </defs>
      <use xlink:href="#IPAexGothic-4d"/>
      <use x="90.185547" xlink:href="#IPAexGothic-61"/>
      <use x="145.166016" xlink:href="#IPAexGothic-79"/>
     </g>
    </g>
    <g id="line2d_33">
     <path d="M 353.465313 259.949129 
L 373.465313 259.949129 
" style="fill:none;stroke:#8c564b;stroke-linecap:square;stroke-width:1.5;"/>
    </g>
    <g id="line2d_34">
     <g>
      <use style="fill:#8c564b;stroke:#8c564b;" x="363.465313" xlink:href="#me43d7d6b95" y="259.949129"/>
     </g>
    </g>
    <g id="text_23">
     <!-- Jun -->
     <g transform="translate(381.465313 263.449129)scale(0.1 -0.1)">
      <defs>
       <path d="M 3284 63 
L 2772 63 
L 2772 644 
Q 2300 0 1625 0 
Q 1072 0 763 375 
Q 519 678 519 1241 
L 519 3250 
L 1069 3250 
L 1069 1259 
Q 1069 466 1734 466 
Q 2406 466 2734 1291 
L 2734 3250 
L 3284 3250 
L 3284 63 
z
" id="IPAexGothic-75" transform="scale(0.015625)"/>
      </defs>
      <use xlink:href="#IPAexGothic-4a"/>
      <use x="37.988281" xlink:href="#IPAexGothic-75"/>
      <use x="98.388672" xlink:href="#IPAexGothic-6e"/>
     </g>
    </g>
   </g>
  </g>
 </g>
 <defs>
  <clipPath id="pac39641ece">
   <rect height="266.112" width="357.12" x="52.784375" y="8.237129"/>
  </clipPath>
 </defs>
</svg>
