<?xml version="1.0" encoding="utf-8" standalone="no"?>
<!DOCTYPE svg PUBLIC "-//W3C//DTD SVG 1.1//EN"
  "http://www.w3.org/Graphics/SVG/1.1/DTD/svg11.dtd">
<svg xmlns:xlink="http://www.w3.org/1999/xlink" width="400.541875pt" height="296.902625pt" viewBox="0 0 400.541875 296.902625" xmlns="http://www.w3.org/2000/svg" version="1.1">
 <metadata>
  <rdf:RDF xmlns:dc="http://purl.org/dc/elements/1.1/" xmlns:cc="http://creativecommons.org/ns#" xmlns:rdf="http://www.w3.org/1999/02/22-rdf-syntax-ns#">
   <cc:Work>
    <dc:type rdf:resource="http://purl.org/dc/dcmitype/StillImage"/>
    <dc:date>2022-07-10T09:36:59.523178</dc:date>
    <dc:format>image/svg+xml</dc:format>
    <dc:creator>
     <cc:Agent>
      <dc:title>Matplotlib v3.5.2, https://matplotlib.org/</dc:title>
     </cc:Agent>
    </dc:creator>
   </cc:Work>
  </rdf:RDF>
 </metadata>
 <defs>
  <style type="text/css">*{stroke-linejoin: round; stroke-linecap: butt}</style>
 </defs>
 <g id="figure_1">
  <g id="patch_1">
   <path d="M 0 296.902625 
L 400.541875 296.902625 
L 400.541875 0 
L 0 0 
z
" style="fill: #ffffff"/>
  </g>
  <g id="axes_1">
   <g id="patch_2">
    <path d="M 36.221875 273.312 
L 393.341875 273.312 
L 393.341875 7.2 
L 36.221875 7.2 
z
" style="fill: #ffffff"/>
   </g>
   <g id="matplotlib.axis_1">
    <g id="xtick_1">
     <g id="line2d_1">
      <defs>
       <path id="mdaa2e70487" d="M 0 0 
L 0 3.5 
" style="stroke: #000000; stroke-width: 0.8"/>
      </defs>
      <g>
       <use xlink:href="#mdaa2e70487" x="42.413875" y="273.312" style="stroke: #000000; stroke-width: 0.8"/>
      </g>
     </g>
     <g id="text_1">
      <!-- −0.7 -->
      <g transform="translate(31.402938 287.802625)scale(0.1 -0.1)">
       <defs>
        <path id="IPAexGothic-2212" d="M 416 2222 
L 3922 2222 
L 3922 1856 
L 416 1856 
L 416 2222 
z
" transform="scale(0.015625)"/>
        <path id="IPAexGothic-30" d="M 2038 4725 
Q 2881 4725 3334 3944 
Q 3694 3325 3694 2344 
Q 3694 1372 3334 741 
Q 2888 -31 2016 -31 
Q 1147 -31 700 741 
Q 341 1372 341 2350 
Q 341 3713 1000 4334 
Q 1419 4725 2038 4725 
z
M 2016 4266 
Q 1516 4266 1228 3759 
Q 934 3247 934 2344 
Q 934 1456 1222 947 
Q 1513 447 2016 447 
Q 2619 447 2909 1153 
Q 3100 1622 3100 2375 
Q 3100 3256 2806 3759 
Q 2509 4266 2016 4266 
z
" transform="scale(0.015625)"/>
        <path id="IPAexGothic-2e" d="M 1184 63 
L 494 63 
L 494 753 
L 1184 753 
L 1184 63 
z
" transform="scale(0.015625)"/>
        <path id="IPAexGothic-37" d="M 3597 4263 
Q 2238 2106 1778 63 
L 1131 63 
Q 1581 1834 2950 4128 
L 428 4128 
L 428 4634 
L 3597 4634 
L 3597 4263 
z
" transform="scale(0.015625)"/>
       </defs>
       <use xlink:href="#IPAexGothic-2212"/>
       <use xlink:href="#IPAexGothic-30" x="67.822266"/>
       <use xlink:href="#IPAexGothic-2e" x="130.810547"/>
       <use xlink:href="#IPAexGothic-37" x="157.226562"/>
      </g>
     </g>
    </g>
    <g id="xtick_2">
     <g id="line2d_2">
      <g>
       <use xlink:href="#mdaa2e70487" x="90.797875" y="273.312" style="stroke: #000000; stroke-width: 0.8"/>
      </g>
     </g>
     <g id="text_2">
      <!-- −0.6 -->
      <g transform="translate(79.786937 287.802625)scale(0.1 -0.1)">
       <defs>
        <path id="IPAexGothic-36" d="M 1056 2328 
Q 1509 2981 2234 2981 
Q 2906 2981 3316 2513 
Q 3675 2106 3675 1522 
Q 3675 884 3272 434 
Q 2853 -31 2178 -31 
Q 1375 -31 922 581 
Q 481 1178 481 2228 
Q 481 3425 1013 4109 
Q 1494 4725 2272 4725 
Q 3191 4725 3609 4025 
L 3150 3775 
Q 2894 4266 2300 4266 
Q 1119 4266 1031 2328 
L 1056 2328 
z
M 2141 2547 
Q 1684 2547 1384 2206 
Q 1116 1900 1116 1541 
Q 1116 1156 1353 844 
Q 1672 428 2159 428 
Q 2669 428 2941 844 
Q 3125 1128 3125 1503 
Q 3125 1944 2881 2228 
Q 2600 2547 2141 2547 
z
" transform="scale(0.015625)"/>
       </defs>
       <use xlink:href="#IPAexGothic-2212"/>
       <use xlink:href="#IPAexGothic-30" x="67.822266"/>
       <use xlink:href="#IPAexGothic-2e" x="130.810547"/>
       <use xlink:href="#IPAexGothic-36" x="157.226562"/>
      </g>
     </g>
    </g>
    <g id="xtick_3">
     <g id="line2d_3">
      <g>
       <use xlink:href="#mdaa2e70487" x="139.181875" y="273.312" style="stroke: #000000; stroke-width: 0.8"/>
      </g>
     </g>
     <g id="text_3">
      <!-- −0.5 -->
      <g transform="translate(128.170938 287.802625)scale(0.1 -0.1)">
       <defs>
        <path id="IPAexGothic-35" d="M 1178 2603 
Q 1634 2963 2172 2963 
Q 2816 2963 3241 2528 
Q 3638 2113 3638 1497 
Q 3638 938 3297 513 
Q 2869 -31 2031 -31 
Q 959 -31 469 784 
L 938 1028 
Q 1309 434 2013 434 
Q 2466 434 2769 716 
Q 3081 1013 3081 1503 
Q 3081 1966 2806 2241 
Q 2519 2528 2056 2528 
Q 1406 2528 1072 2028 
L 591 2091 
L 884 4634 
L 3406 4634 
L 3406 4153 
L 1341 4153 
L 1134 2603 
L 1178 2603 
z
" transform="scale(0.015625)"/>
       </defs>
       <use xlink:href="#IPAexGothic-2212"/>
       <use xlink:href="#IPAexGothic-30" x="67.822266"/>
       <use xlink:href="#IPAexGothic-2e" x="130.810547"/>
       <use xlink:href="#IPAexGothic-35" x="157.226562"/>
      </g>
     </g>
    </g>
    <g id="xtick_4">
     <g id="line2d_4">
      <g>
       <use xlink:href="#mdaa2e70487" x="187.565875" y="273.312" style="stroke: #000000; stroke-width: 0.8"/>
      </g>
     </g>
     <g id="text_4">
      <!-- −0.4 -->
      <g transform="translate(176.554937 287.802625)scale(0.1 -0.1)">
       <defs>
        <path id="IPAexGothic-34" d="M 3813 1159 
L 3059 1159 
L 3059 63 
L 2547 63 
L 2547 1159 
L 197 1159 
L 197 1672 
L 2456 4678 
L 3059 4678 
L 3059 1634 
L 3813 1634 
L 3813 1159 
z
M 2578 4109 
L 2559 4109 
Q 2278 3656 2003 3284 
L 759 1634 
L 2547 1634 
L 2547 3144 
Q 2547 3481 2578 4109 
z
" transform="scale(0.015625)"/>
       </defs>
       <use xlink:href="#IPAexGothic-2212"/>
       <use xlink:href="#IPAexGothic-30" x="67.822266"/>
       <use xlink:href="#IPAexGothic-2e" x="130.810547"/>
       <use xlink:href="#IPAexGothic-34" x="157.226562"/>
      </g>
     </g>
    </g>
    <g id="xtick_5">
     <g id="line2d_5">
      <g>
       <use xlink:href="#mdaa2e70487" x="235.949875" y="273.312" style="stroke: #000000; stroke-width: 0.8"/>
      </g>
     </g>
     <g id="text_5">
      <!-- −0.3 -->
      <g transform="translate(224.938937 287.802625)scale(0.1 -0.1)">
       <defs>
        <path id="IPAexGothic-33" d="M 2381 2419 
Q 3506 2216 3506 1278 
Q 3506 716 3128 356 
Q 2709 -31 1944 -31 
Q 797 -31 288 881 
L 756 1131 
Q 1109 441 1938 441 
Q 2425 441 2694 691 
Q 2950 928 2950 1291 
Q 2950 1719 2566 1978 
Q 2216 2213 1644 2213 
L 1363 2213 
L 1363 2669 
L 1656 2669 
Q 2231 2669 2534 2888 
Q 2859 3119 2859 3509 
Q 2859 3934 2494 4138 
Q 2259 4278 1931 4278 
Q 1238 4278 903 3578 
L 434 3803 
Q 897 4725 1938 4725 
Q 2597 4725 3006 4394 
Q 3416 4069 3416 3534 
Q 3416 3028 3019 2706 
Q 2763 2500 2381 2444 
L 2381 2419 
z
" transform="scale(0.015625)"/>
       </defs>
       <use xlink:href="#IPAexGothic-2212"/>
       <use xlink:href="#IPAexGothic-30" x="67.822266"/>
       <use xlink:href="#IPAexGothic-2e" x="130.810547"/>
       <use xlink:href="#IPAexGothic-33" x="157.226562"/>
      </g>
     </g>
    </g>
    <g id="xtick_6">
     <g id="line2d_6">
      <g>
       <use xlink:href="#mdaa2e70487" x="284.333875" y="273.312" style="stroke: #000000; stroke-width: 0.8"/>
      </g>
     </g>
     <g id="text_6">
      <!-- −0.2 -->
      <g transform="translate(273.322938 287.802625)scale(0.1 -0.1)">
       <defs>
        <path id="IPAexGothic-32" d="M 3659 63 
L 447 63 
L 447 594 
Q 825 1475 1894 2203 
L 2072 2322 
Q 2619 2697 2791 2906 
Q 2988 3153 2988 3444 
Q 2988 3772 2756 4003 
Q 2500 4259 2084 4259 
Q 1250 4259 991 3328 
L 497 3506 
Q 853 4725 2116 4725 
Q 2806 4725 3216 4316 
Q 3575 3947 3575 3425 
Q 3575 3038 3344 2722 
Q 3131 2416 2366 1938 
L 2231 1856 
Q 1256 1253 978 569 
L 3659 569 
L 3659 63 
z
" transform="scale(0.015625)"/>
       </defs>
       <use xlink:href="#IPAexGothic-2212"/>
       <use xlink:href="#IPAexGothic-30" x="67.822266"/>
       <use xlink:href="#IPAexGothic-2e" x="130.810547"/>
       <use xlink:href="#IPAexGothic-32" x="157.226562"/>
      </g>
     </g>
    </g>
    <g id="xtick_7">
     <g id="line2d_7">
      <g>
       <use xlink:href="#mdaa2e70487" x="332.717875" y="273.312" style="stroke: #000000; stroke-width: 0.8"/>
      </g>
     </g>
     <g id="text_7">
      <!-- −0.1 -->
      <g transform="translate(321.706938 287.802625)scale(0.1 -0.1)">
       <defs>
        <path id="IPAexGothic-31" d="M 2463 63 
L 1900 63 
L 1900 4103 
Q 1372 3922 788 3797 
L 684 4231 
Q 1519 4441 2106 4731 
L 2463 4731 
L 2463 63 
z
" transform="scale(0.015625)"/>
       </defs>
       <use xlink:href="#IPAexGothic-2212"/>
       <use xlink:href="#IPAexGothic-30" x="67.822266"/>
       <use xlink:href="#IPAexGothic-2e" x="130.810547"/>
       <use xlink:href="#IPAexGothic-31" x="157.226562"/>
      </g>
     </g>
    </g>
    <g id="xtick_8">
     <g id="line2d_8">
      <g>
       <use xlink:href="#mdaa2e70487" x="381.101875" y="273.312" style="stroke: #000000; stroke-width: 0.8"/>
      </g>
     </g>
     <g id="text_8">
      <!-- 0.0 -->
      <g transform="translate(373.482344 287.802625)scale(0.1 -0.1)">
       <use xlink:href="#IPAexGothic-30"/>
       <use xlink:href="#IPAexGothic-2e" x="62.988281"/>
       <use xlink:href="#IPAexGothic-30" x="89.404297"/>
      </g>
     </g>
    </g>
   </g>
   <g id="matplotlib.axis_2">
    <g id="ytick_1">
     <g id="line2d_9">
      <defs>
       <path id="m823c276223" d="M 0 0 
L -3.5 0 
" style="stroke: #000000; stroke-width: 0.8"/>
      </defs>
      <g>
       <use xlink:href="#m823c276223" x="36.221875" y="261.216" style="stroke: #000000; stroke-width: 0.8"/>
      </g>
     </g>
     <g id="text_9">
      <!-- −0.5 -->
      <g transform="translate(7.2 264.961313)scale(0.1 -0.1)">
       <use xlink:href="#IPAexGothic-2212"/>
       <use xlink:href="#IPAexGothic-30" x="67.822266"/>
       <use xlink:href="#IPAexGothic-2e" x="130.810547"/>
       <use xlink:href="#IPAexGothic-35" x="157.226562"/>
      </g>
     </g>
    </g>
    <g id="ytick_2">
     <g id="line2d_10">
      <g>
       <use xlink:href="#m823c276223" x="36.221875" y="212.832" style="stroke: #000000; stroke-width: 0.8"/>
      </g>
     </g>
     <g id="text_10">
      <!-- −0.4 -->
      <g transform="translate(7.2 216.577313)scale(0.1 -0.1)">
       <use xlink:href="#IPAexGothic-2212"/>
       <use xlink:href="#IPAexGothic-30" x="67.822266"/>
       <use xlink:href="#IPAexGothic-2e" x="130.810547"/>
       <use xlink:href="#IPAexGothic-34" x="157.226562"/>
      </g>
     </g>
    </g>
    <g id="ytick_3">
     <g id="line2d_11">
      <g>
       <use xlink:href="#m823c276223" x="36.221875" y="164.448" style="stroke: #000000; stroke-width: 0.8"/>
      </g>
     </g>
     <g id="text_11">
      <!-- −0.3 -->
      <g transform="translate(7.2 168.193312)scale(0.1 -0.1)">
       <use xlink:href="#IPAexGothic-2212"/>
       <use xlink:href="#IPAexGothic-30" x="67.822266"/>
       <use xlink:href="#IPAexGothic-2e" x="130.810547"/>
       <use xlink:href="#IPAexGothic-33" x="157.226562"/>
      </g>
     </g>
    </g>
    <g id="ytick_4">
     <g id="line2d_12">
      <g>
       <use xlink:href="#m823c276223" x="36.221875" y="116.064" style="stroke: #000000; stroke-width: 0.8"/>
      </g>
     </g>
     <g id="text_12">
      <!-- −0.2 -->
      <g transform="translate(7.2 119.809312)scale(0.1 -0.1)">
       <use xlink:href="#IPAexGothic-2212"/>
       <use xlink:href="#IPAexGothic-30" x="67.822266"/>
       <use xlink:href="#IPAexGothic-2e" x="130.810547"/>
       <use xlink:href="#IPAexGothic-32" x="157.226562"/>
      </g>
     </g>
    </g>
    <g id="ytick_5">
     <g id="line2d_13">
      <g>
       <use xlink:href="#m823c276223" x="36.221875" y="67.68" style="stroke: #000000; stroke-width: 0.8"/>
      </g>
     </g>
     <g id="text_13">
      <!-- −0.1 -->
      <g transform="translate(7.2 71.425312)scale(0.1 -0.1)">
       <use xlink:href="#IPAexGothic-2212"/>
       <use xlink:href="#IPAexGothic-30" x="67.822266"/>
       <use xlink:href="#IPAexGothic-2e" x="130.810547"/>
       <use xlink:href="#IPAexGothic-31" x="157.226562"/>
      </g>
     </g>
    </g>
    <g id="ytick_6">
     <g id="line2d_14">
      <g>
       <use xlink:href="#m823c276223" x="36.221875" y="19.296" style="stroke: #000000; stroke-width: 0.8"/>
      </g>
     </g>
     <g id="text_14">
      <!-- 0.0 -->
      <g transform="translate(13.982813 23.041312)scale(0.1 -0.1)">
       <use xlink:href="#IPAexGothic-30"/>
       <use xlink:href="#IPAexGothic-2e" x="62.988281"/>
       <use xlink:href="#IPAexGothic-30" x="89.404297"/>
      </g>
     </g>
    </g>
   </g>
   <g id="line2d_15">
    <path d="M 381.101875 19.296 
L 139.181875 261.216 
L 139.181875 19.296 
L 260.141875 261.216 
L 48.461875 140.256 
L 337.631875 94.896 
L 131.274883 247.631625 
L 160.421062 25.417379 
L 239.757581 255.632043 
L 65.03233 123.134192 
L 323.37001 125.550945 
L 122.736056 235.859286 
L 180.214529 29.930654 
L 222.3553 252.385116 
L 78.975896 108.264202 
L 311.480086 150.106521 
L 113.834242 223.570239 
L 200.574119 35.538535 
L 205.99415 249.095347 
L 93.412562 94.881505 
L 298.432809 171.330327 
L 105.533847 209.262727 
L 221.5446 44.827291 
L 190.452289 244.376949 
L 109.597366 83.836744 
L 282.92607 188.782539 
L 99.732474 192.435091 
L 240.851011 59.843471 
L 176.438422 237.708982 
L 127.159096 76.4394 
L 265.714545 201.232726 
L 98.286669 174.438582 
L 254.747392 79.847444 
L 164.60139 229.590064 
L 144.65655 73.018385 
L 248.764169 208.709358 
L 101.226865 157.601048 
L 261.539958 101.21217 
L 154.858117 220.731318 
L 161.110716 72.833546 
L 233.282902 212.531365 
L 107.16828 143.144517 
L 262.572167 120.978444 
L 146.849641 211.396265 
L 176.325553 75.204442 
L 219.389357 213.891574 
L 114.966228 131.137708 
L 259.716794 138.179188 
L 140.42428 201.565514 
L 190.239102 79.88255 
L 206.885802 213.416244 
L 124.029285 121.422405 
L 254.212699 152.692937 
L 135.680966 191.248129 
L 202.557966 86.775491 
L 195.65601 211.414197 
L 133.975127 113.946137 
L 246.888929 164.528746 
L 132.817301 180.643436 
L 212.785204 95.62374 
L 185.694313 208.110713 
L 144.417324 108.703505 
L 238.441702 173.743384 
L 131.943802 170.13841 
L 220.461457 105.860493 
L 177.028958 203.735195 
L 154.947291 105.631325 
L 229.484676 180.506966 
L 132.978997 160.181133 
L 225.401167 116.718543 
L 169.670381 198.51445 
L 165.190522 104.583954 
L 220.497345 185.097294 
L 135.676059 151.144742 
L 227.743673 127.456555 
L 163.611506 192.650738 
L 174.834561 105.367017 
L 211.805025 187.829602 
L 139.714796 143.275326 
L 227.841037 137.509786 
L 158.846197 186.325359 
L 183.61553 107.763522 
L 203.612996 188.997384 
L 144.769967 136.711584 
L 226.124566 146.51259 
L 155.372983 179.719287 
L 191.302207 111.529447 
L 196.053785 188.853741 
L 150.534735 131.518843 
L 223.026203 154.259568 
L 153.179795 173.027935 
L 197.703219 116.379267 
L 189.218884 187.617534 
L 156.722681 127.708892 
L 218.94516 160.663762 
L 152.223286 166.45851 
L 202.691722 121.986719 
L 183.173275 185.484077 
L 163.068395 125.248022 
L 214.233065 165.725391 
L 152.416897 160.213609 
" clip-path="url(#p0a64805529)" style="fill: none; stroke: #1f77b4; stroke-width: 1.5; stroke-linecap: square"/>
    <defs>
     <path id="m0eb714992d" d="M 0 3 
C 0.795609 3 1.55874 2.683901 2.12132 2.12132 
C 2.683901 1.55874 3 0.795609 3 0 
C 3 -0.795609 2.683901 -1.55874 2.12132 -2.12132 
C 1.55874 -2.683901 0.795609 -3 0 -3 
C -0.795609 -3 -1.55874 -2.683901 -2.12132 -2.12132 
C -2.683901 -1.55874 -3 -0.795609 -3 0 
C -3 0.795609 -2.683901 1.55874 -2.12132 2.12132 
C -1.55874 2.683901 -0.795609 3 0 3 
z
" style="stroke: #1f77b4"/>
    </defs>
    <g clip-path="url(#p0a64805529)">
     <use xlink:href="#m0eb714992d" x="381.101875" y="19.296" style="fill: #1f77b4; stroke: #1f77b4"/>
     <use xlink:href="#m0eb714992d" x="139.181875" y="261.216" style="fill: #1f77b4; stroke: #1f77b4"/>
     <use xlink:href="#m0eb714992d" x="139.181875" y="19.296" style="fill: #1f77b4; stroke: #1f77b4"/>
     <use xlink:href="#m0eb714992d" x="260.141875" y="261.216" style="fill: #1f77b4; stroke: #1f77b4"/>
     <use xlink:href="#m0eb714992d" x="48.461875" y="140.256" style="fill: #1f77b4; stroke: #1f77b4"/>
     <use xlink:href="#m0eb714992d" x="337.631875" y="94.896" style="fill: #1f77b4; stroke: #1f77b4"/>
     <use xlink:href="#m0eb714992d" x="131.274883" y="247.631625" style="fill: #1f77b4; stroke: #1f77b4"/>
     <use xlink:href="#m0eb714992d" x="160.421062" y="25.417379" style="fill: #1f77b4; stroke: #1f77b4"/>
     <use xlink:href="#m0eb714992d" x="239.757581" y="255.632043" style="fill: #1f77b4; stroke: #1f77b4"/>
     <use xlink:href="#m0eb714992d" x="65.03233" y="123.134192" style="fill: #1f77b4; stroke: #1f77b4"/>
     <use xlink:href="#m0eb714992d" x="323.37001" y="125.550945" style="fill: #1f77b4; stroke: #1f77b4"/>
     <use xlink:href="#m0eb714992d" x="122.736056" y="235.859286" style="fill: #1f77b4; stroke: #1f77b4"/>
     <use xlink:href="#m0eb714992d" x="180.214529" y="29.930654" style="fill: #1f77b4; stroke: #1f77b4"/>
     <use xlink:href="#m0eb714992d" x="222.3553" y="252.385116" style="fill: #1f77b4; stroke: #1f77b4"/>
     <use xlink:href="#m0eb714992d" x="78.975896" y="108.264202" style="fill: #1f77b4; stroke: #1f77b4"/>
     <use xlink:href="#m0eb714992d" x="311.480086" y="150.106521" style="fill: #1f77b4; stroke: #1f77b4"/>
     <use xlink:href="#m0eb714992d" x="113.834242" y="223.570239" style="fill: #1f77b4; stroke: #1f77b4"/>
     <use xlink:href="#m0eb714992d" x="200.574119" y="35.538535" style="fill: #1f77b4; stroke: #1f77b4"/>
     <use xlink:href="#m0eb714992d" x="205.99415" y="249.095347" style="fill: #1f77b4; stroke: #1f77b4"/>
     <use xlink:href="#m0eb714992d" x="93.412562" y="94.881505" style="fill: #1f77b4; stroke: #1f77b4"/>
     <use xlink:href="#m0eb714992d" x="298.432809" y="171.330327" style="fill: #1f77b4; stroke: #1f77b4"/>
     <use xlink:href="#m0eb714992d" x="105.533847" y="209.262727" style="fill: #1f77b4; stroke: #1f77b4"/>
     <use xlink:href="#m0eb714992d" x="221.5446" y="44.827291" style="fill: #1f77b4; stroke: #1f77b4"/>
     <use xlink:href="#m0eb714992d" x="190.452289" y="244.376949" style="fill: #1f77b4; stroke: #1f77b4"/>
     <use xlink:href="#m0eb714992d" x="109.597366" y="83.836744" style="fill: #1f77b4; stroke: #1f77b4"/>
     <use xlink:href="#m0eb714992d" x="282.92607" y="188.782539" style="fill: #1f77b4; stroke: #1f77b4"/>
     <use xlink:href="#m0eb714992d" x="99.732474" y="192.435091" style="fill: #1f77b4; stroke: #1f77b4"/>
     <use xlink:href="#m0eb714992d" x="240.851011" y="59.843471" style="fill: #1f77b4; stroke: #1f77b4"/>
     <use xlink:href="#m0eb714992d" x="176.438422" y="237.708982" style="fill: #1f77b4; stroke: #1f77b4"/>
     <use xlink:href="#m0eb714992d" x="127.159096" y="76.4394" style="fill: #1f77b4; stroke: #1f77b4"/>
     <use xlink:href="#m0eb714992d" x="265.714545" y="201.232726" style="fill: #1f77b4; stroke: #1f77b4"/>
     <use xlink:href="#m0eb714992d" x="98.286669" y="174.438582" style="fill: #1f77b4; stroke: #1f77b4"/>
     <use xlink:href="#m0eb714992d" x="254.747392" y="79.847444" style="fill: #1f77b4; stroke: #1f77b4"/>
     <use xlink:href="#m0eb714992d" x="164.60139" y="229.590064" style="fill: #1f77b4; stroke: #1f77b4"/>
     <use xlink:href="#m0eb714992d" x="144.65655" y="73.018385" style="fill: #1f77b4; stroke: #1f77b4"/>
     <use xlink:href="#m0eb714992d" x="248.764169" y="208.709358" style="fill: #1f77b4; stroke: #1f77b4"/>
     <use xlink:href="#m0eb714992d" x="101.226865" y="157.601048" style="fill: #1f77b4; stroke: #1f77b4"/>
     <use xlink:href="#m0eb714992d" x="261.539958" y="101.21217" style="fill: #1f77b4; stroke: #1f77b4"/>
     <use xlink:href="#m0eb714992d" x="154.858117" y="220.731318" style="fill: #1f77b4; stroke: #1f77b4"/>
     <use xlink:href="#m0eb714992d" x="161.110716" y="72.833546" style="fill: #1f77b4; stroke: #1f77b4"/>
     <use xlink:href="#m0eb714992d" x="233.282902" y="212.531365" style="fill: #1f77b4; stroke: #1f77b4"/>
     <use xlink:href="#m0eb714992d" x="107.16828" y="143.144517" style="fill: #1f77b4; stroke: #1f77b4"/>
     <use xlink:href="#m0eb714992d" x="262.572167" y="120.978444" style="fill: #1f77b4; stroke: #1f77b4"/>
     <use xlink:href="#m0eb714992d" x="146.849641" y="211.396265" style="fill: #1f77b4; stroke: #1f77b4"/>
     <use xlink:href="#m0eb714992d" x="176.325553" y="75.204442" style="fill: #1f77b4; stroke: #1f77b4"/>
     <use xlink:href="#m0eb714992d" x="219.389357" y="213.891574" style="fill: #1f77b4; stroke: #1f77b4"/>
     <use xlink:href="#m0eb714992d" x="114.966228" y="131.137708" style="fill: #1f77b4; stroke: #1f77b4"/>
     <use xlink:href="#m0eb714992d" x="259.716794" y="138.179188" style="fill: #1f77b4; stroke: #1f77b4"/>
     <use xlink:href="#m0eb714992d" x="140.42428" y="201.565514" style="fill: #1f77b4; stroke: #1f77b4"/>
     <use xlink:href="#m0eb714992d" x="190.239102" y="79.88255" style="fill: #1f77b4; stroke: #1f77b4"/>
     <use xlink:href="#m0eb714992d" x="206.885802" y="213.416244" style="fill: #1f77b4; stroke: #1f77b4"/>
     <use xlink:href="#m0eb714992d" x="124.029285" y="121.422405" style="fill: #1f77b4; stroke: #1f77b4"/>
     <use xlink:href="#m0eb714992d" x="254.212699" y="152.692937" style="fill: #1f77b4; stroke: #1f77b4"/>
     <use xlink:href="#m0eb714992d" x="135.680966" y="191.248129" style="fill: #1f77b4; stroke: #1f77b4"/>
     <use xlink:href="#m0eb714992d" x="202.557966" y="86.775491" style="fill: #1f77b4; stroke: #1f77b4"/>
     <use xlink:href="#m0eb714992d" x="195.65601" y="211.414197" style="fill: #1f77b4; stroke: #1f77b4"/>
     <use xlink:href="#m0eb714992d" x="133.975127" y="113.946137" style="fill: #1f77b4; stroke: #1f77b4"/>
     <use xlink:href="#m0eb714992d" x="246.888929" y="164.528746" style="fill: #1f77b4; stroke: #1f77b4"/>
     <use xlink:href="#m0eb714992d" x="132.817301" y="180.643436" style="fill: #1f77b4; stroke: #1f77b4"/>
     <use xlink:href="#m0eb714992d" x="212.785204" y="95.62374" style="fill: #1f77b4; stroke: #1f77b4"/>
     <use xlink:href="#m0eb714992d" x="185.694313" y="208.110713" style="fill: #1f77b4; stroke: #1f77b4"/>
     <use xlink:href="#m0eb714992d" x="144.417324" y="108.703505" style="fill: #1f77b4; stroke: #1f77b4"/>
     <use xlink:href="#m0eb714992d" x="238.441702" y="173.743384" style="fill: #1f77b4; stroke: #1f77b4"/>
     <use xlink:href="#m0eb714992d" x="131.943802" y="170.13841" style="fill: #1f77b4; stroke: #1f77b4"/>
     <use xlink:href="#m0eb714992d" x="220.461457" y="105.860493" style="fill: #1f77b4; stroke: #1f77b4"/>
     <use xlink:href="#m0eb714992d" x="177.028958" y="203.735195" style="fill: #1f77b4; stroke: #1f77b4"/>
     <use xlink:href="#m0eb714992d" x="154.947291" y="105.631325" style="fill: #1f77b4; stroke: #1f77b4"/>
     <use xlink:href="#m0eb714992d" x="229.484676" y="180.506966" style="fill: #1f77b4; stroke: #1f77b4"/>
     <use xlink:href="#m0eb714992d" x="132.978997" y="160.181133" style="fill: #1f77b4; stroke: #1f77b4"/>
     <use xlink:href="#m0eb714992d" x="225.401167" y="116.718543" style="fill: #1f77b4; stroke: #1f77b4"/>
     <use xlink:href="#m0eb714992d" x="169.670381" y="198.51445" style="fill: #1f77b4; stroke: #1f77b4"/>
     <use xlink:href="#m0eb714992d" x="165.190522" y="104.583954" style="fill: #1f77b4; stroke: #1f77b4"/>
     <use xlink:href="#m0eb714992d" x="220.497345" y="185.097294" style="fill: #1f77b4; stroke: #1f77b4"/>
     <use xlink:href="#m0eb714992d" x="135.676059" y="151.144742" style="fill: #1f77b4; stroke: #1f77b4"/>
     <use xlink:href="#m0eb714992d" x="227.743673" y="127.456555" style="fill: #1f77b4; stroke: #1f77b4"/>
     <use xlink:href="#m0eb714992d" x="163.611506" y="192.650738" style="fill: #1f77b4; stroke: #1f77b4"/>
     <use xlink:href="#m0eb714992d" x="174.834561" y="105.367017" style="fill: #1f77b4; stroke: #1f77b4"/>
     <use xlink:href="#m0eb714992d" x="211.805025" y="187.829602" style="fill: #1f77b4; stroke: #1f77b4"/>
     <use xlink:href="#m0eb714992d" x="139.714796" y="143.275326" style="fill: #1f77b4; stroke: #1f77b4"/>
     <use xlink:href="#m0eb714992d" x="227.841037" y="137.509786" style="fill: #1f77b4; stroke: #1f77b4"/>
     <use xlink:href="#m0eb714992d" x="158.846197" y="186.325359" style="fill: #1f77b4; stroke: #1f77b4"/>
     <use xlink:href="#m0eb714992d" x="183.61553" y="107.763522" style="fill: #1f77b4; stroke: #1f77b4"/>
     <use xlink:href="#m0eb714992d" x="203.612996" y="188.997384" style="fill: #1f77b4; stroke: #1f77b4"/>
     <use xlink:href="#m0eb714992d" x="144.769967" y="136.711584" style="fill: #1f77b4; stroke: #1f77b4"/>
     <use xlink:href="#m0eb714992d" x="226.124566" y="146.51259" style="fill: #1f77b4; stroke: #1f77b4"/>
     <use xlink:href="#m0eb714992d" x="155.372983" y="179.719287" style="fill: #1f77b4; stroke: #1f77b4"/>
     <use xlink:href="#m0eb714992d" x="191.302207" y="111.529447" style="fill: #1f77b4; stroke: #1f77b4"/>
     <use xlink:href="#m0eb714992d" x="196.053785" y="188.853741" style="fill: #1f77b4; stroke: #1f77b4"/>
     <use xlink:href="#m0eb714992d" x="150.534735" y="131.518843" style="fill: #1f77b4; stroke: #1f77b4"/>
     <use xlink:href="#m0eb714992d" x="223.026203" y="154.259568" style="fill: #1f77b4; stroke: #1f77b4"/>
     <use xlink:href="#m0eb714992d" x="153.179795" y="173.027935" style="fill: #1f77b4; stroke: #1f77b4"/>
     <use xlink:href="#m0eb714992d" x="197.703219" y="116.379267" style="fill: #1f77b4; stroke: #1f77b4"/>
     <use xlink:href="#m0eb714992d" x="189.218884" y="187.617534" style="fill: #1f77b4; stroke: #1f77b4"/>
     <use xlink:href="#m0eb714992d" x="156.722681" y="127.708892" style="fill: #1f77b4; stroke: #1f77b4"/>
     <use xlink:href="#m0eb714992d" x="218.94516" y="160.663762" style="fill: #1f77b4; stroke: #1f77b4"/>
     <use xlink:href="#m0eb714992d" x="152.223286" y="166.45851" style="fill: #1f77b4; stroke: #1f77b4"/>
     <use xlink:href="#m0eb714992d" x="202.691722" y="121.986719" style="fill: #1f77b4; stroke: #1f77b4"/>
     <use xlink:href="#m0eb714992d" x="183.173275" y="185.484077" style="fill: #1f77b4; stroke: #1f77b4"/>
     <use xlink:href="#m0eb714992d" x="163.068395" y="125.248022" style="fill: #1f77b4; stroke: #1f77b4"/>
     <use xlink:href="#m0eb714992d" x="214.233065" y="165.725391" style="fill: #1f77b4; stroke: #1f77b4"/>
     <use xlink:href="#m0eb714992d" x="152.416897" y="160.213609" style="fill: #1f77b4; stroke: #1f77b4"/>
    </g>
   </g>
   <g id="patch_3">
    <path d="M 36.221875 273.312 
L 36.221875 7.2 
" style="fill: none; stroke: #000000; stroke-width: 0.8; stroke-linejoin: miter; stroke-linecap: square"/>
   </g>
   <g id="patch_4">
    <path d="M 393.341875 273.312 
L 393.341875 7.2 
" style="fill: none; stroke: #000000; stroke-width: 0.8; stroke-linejoin: miter; stroke-linecap: square"/>
   </g>
   <g id="patch_5">
    <path d="M 36.221875 273.312 
L 393.341875 273.312 
" style="fill: none; stroke: #000000; stroke-width: 0.8; stroke-linejoin: miter; stroke-linecap: square"/>
   </g>
   <g id="patch_6">
    <path d="M 36.221875 7.2 
L 393.341875 7.2 
" style="fill: none; stroke: #000000; stroke-width: 0.8; stroke-linejoin: miter; stroke-linecap: square"/>
   </g>
  </g>
 </g>
 <defs>
  <clipPath id="p0a64805529">
   <rect x="36.221875" y="7.2" width="357.12" height="266.112"/>
  </clipPath>
 </defs>
</svg>
