<?xml version="1.0" encoding="utf-8" standalone="no"?>
<!DOCTYPE svg PUBLIC "-//W3C//DTD SVG 1.1//EN"
  "http://www.w3.org/Graphics/SVG/1.1/DTD/svg11.dtd">
<svg height="316.018491pt" version="1.1" viewBox="0 0 438.031067 316.018491" width="438.031067pt" xmlns="http://www.w3.org/2000/svg" xmlns:xlink="http://www.w3.org/1999/xlink">
 <metadata>
  <rdf:RDF xmlns:cc="http://creativecommons.org/ns#" xmlns:dc="http://purl.org/dc/elements/1.1/" xmlns:rdf="http://www.w3.org/1999/02/22-rdf-syntax-ns#">
   <cc:Work>
    <dc:type rdf:resource="http://purl.org/dc/dcmitype/StillImage"/>
    <dc:date>2021-04-14T20:06:29.940043</dc:date>
    <dc:format>image/svg+xml</dc:format>
    <dc:creator>
     <cc:Agent>
      <dc:title>Matplotlib v3.4.1, https://matplotlib.org/</dc:title>
     </cc:Agent>
    </dc:creator>
   </cc:Work>
  </rdf:RDF>
 </metadata>
 <defs>
  <style type="text/css">*{stroke-linecap:butt;stroke-linejoin:round;}</style>
 </defs>
 <g id="figure_1">
  <g id="patch_1">
   <path d="M 0 316.018491 
L 438.031067 316.018491 
L 438.031067 0 
L 0 0 
z
" style="fill:#ffffff;"/>
  </g>
  <g id="axes_1">
   <g id="patch_2">
    <path d="M 51.990625 273.312 
L 409.110625 273.312 
L 409.110625 7.2 
L 51.990625 7.2 
z
" style="fill:#ffffff;"/>
   </g>
   <g id="patch_3">
    <path clip-path="url(#p0fdfacdbe3)" d="M 68.223352 273.312 
L 72.877898 273.312 
L 72.877898 272.994931 
L 68.223352 272.994931 
z
" style="fill:#1f77b4;"/>
   </g>
   <g id="patch_4">
    <path clip-path="url(#p0fdfacdbe3)" d="M 74.041534 273.312 
L 78.69608 273.312 
L 78.69608 272.079237 
L 74.041534 272.079237 
z
" style="fill:#1f77b4;"/>
   </g>
   <g id="patch_5">
    <path clip-path="url(#p0fdfacdbe3)" d="M 79.859716 273.312 
L 84.514261 273.312 
L 84.514261 262.080156 
L 79.859716 262.080156 
z
" style="fill:#1f77b4;"/>
   </g>
   <g id="patch_6">
    <path clip-path="url(#p0fdfacdbe3)" d="M 97.314261 273.312 
L 101.968807 273.312 
L 101.968807 255.822488 
L 97.314261 255.822488 
z
" style="fill:#1f77b4;"/>
   </g>
   <g id="patch_7">
    <path clip-path="url(#p0fdfacdbe3)" d="M 108.950625 273.312 
L 113.60517 273.312 
L 113.60517 258.209381 
L 108.950625 258.209381 
z
" style="fill:#1f77b4;"/>
   </g>
   <g id="patch_8">
    <path clip-path="url(#p0fdfacdbe3)" d="M 114.768807 273.312 
L 119.423352 273.312 
L 119.423352 263.145507 
L 114.768807 263.145507 
z
" style="fill:#1f77b4;"/>
   </g>
   <g id="patch_9">
    <path clip-path="url(#p0fdfacdbe3)" d="M 120.586989 273.312 
L 125.241534 273.312 
L 125.241534 256.484527 
L 120.586989 256.484527 
z
" style="fill:#1f77b4;"/>
   </g>
   <g id="patch_10">
    <path clip-path="url(#p0fdfacdbe3)" d="M 138.041534 273.312 
L 142.69608 273.312 
L 142.69608 265.05553 
L 138.041534 265.05553 
z
" style="fill:#1f77b4;"/>
   </g>
   <g id="patch_11">
    <path clip-path="url(#p0fdfacdbe3)" d="M 143.859716 273.312 
L 148.514261 273.312 
L 148.514261 265.735325 
L 143.859716 265.735325 
z
" style="fill:#1f77b4;"/>
   </g>
   <g id="patch_12">
    <path clip-path="url(#p0fdfacdbe3)" d="M 149.677898 273.312 
L 154.332443 273.312 
L 154.332443 266.891992 
L 149.677898 266.891992 
z
" style="fill:#1f77b4;"/>
   </g>
   <g id="patch_13">
    <path clip-path="url(#p0fdfacdbe3)" d="M 155.49608 273.312 
L 160.150625 273.312 
L 160.150625 268.566115 
L 155.49608 268.566115 
z
" style="fill:#1f77b4;"/>
   </g>
   <g id="patch_14">
    <path clip-path="url(#p0fdfacdbe3)" d="M 161.314261 273.312 
L 165.968807 273.312 
L 165.968807 254.807868 
L 161.314261 254.807868 
z
" style="fill:#1f77b4;"/>
   </g>
   <g id="patch_15">
    <path clip-path="url(#p0fdfacdbe3)" d="M 178.768807 273.312 
L 183.423352 273.312 
L 183.423352 211.605347 
L 178.768807 211.605347 
z
" style="fill:#1f77b4;"/>
   </g>
   <g id="patch_16">
    <path clip-path="url(#p0fdfacdbe3)" d="M 184.586989 273.312 
L 189.241534 273.312 
L 189.241534 180.063348 
L 184.586989 180.063348 
z
" style="fill:#1f77b4;"/>
   </g>
   <g id="patch_17">
    <path clip-path="url(#p0fdfacdbe3)" d="M 190.40517 273.312 
L 195.059716 273.312 
L 195.059716 168.4079 
L 190.40517 168.4079 
z
" style="fill:#1f77b4;"/>
   </g>
   <g id="patch_18">
    <path clip-path="url(#p0fdfacdbe3)" d="M 196.223352 273.312 
L 200.877898 273.312 
L 200.877898 192.583759 
L 196.223352 192.583759 
z
" style="fill:#1f77b4;"/>
   </g>
   <g id="patch_19">
    <path clip-path="url(#p0fdfacdbe3)" d="M 202.041534 273.312 
L 206.69608 273.312 
L 206.69608 155.481642 
L 202.041534 155.481642 
z
" style="fill:#1f77b4;"/>
   </g>
   <g id="patch_20">
    <path clip-path="url(#p0fdfacdbe3)" d="M 219.49608 273.312 
L 224.150625 273.312 
L 224.150625 133.284292 
L 219.49608 133.284292 
z
" style="fill:#1f77b4;"/>
   </g>
   <g id="patch_21">
    <path clip-path="url(#p0fdfacdbe3)" d="M 225.314261 273.312 
L 229.968807 273.312 
L 229.968807 102.231847 
L 225.314261 102.231847 
z
" style="fill:#1f77b4;"/>
   </g>
   <g id="patch_22">
    <path clip-path="url(#p0fdfacdbe3)" d="M 231.132443 273.312 
L 235.786989 273.312 
L 235.786989 87.250982 
L 231.132443 87.250982 
z
" style="fill:#1f77b4;"/>
   </g>
   <g id="patch_23">
    <path clip-path="url(#p0fdfacdbe3)" d="M 236.950625 273.312 
L 241.60517 273.312 
L 241.60517 102.812717 
L 236.950625 102.812717 
z
" style="fill:#1f77b4;"/>
   </g>
   <g id="patch_24">
    <path clip-path="url(#p0fdfacdbe3)" d="M 242.768807 273.312 
L 247.423352 273.312 
L 247.423352 113.40535 
L 242.768807 113.40535 
z
" style="fill:#1f77b4;"/>
   </g>
   <g id="patch_25">
    <path clip-path="url(#p0fdfacdbe3)" d="M 260.223352 273.312 
L 264.877898 273.312 
L 264.877898 95.461795 
L 260.223352 95.461795 
z
" style="fill:#1f77b4;"/>
   </g>
   <g id="patch_26">
    <path clip-path="url(#p0fdfacdbe3)" d="M 266.041534 273.312 
L 270.69608 273.312 
L 270.69608 162.208572 
L 266.041534 162.208572 
z
" style="fill:#1f77b4;"/>
   </g>
   <g id="patch_27">
    <path clip-path="url(#p0fdfacdbe3)" d="M 271.859716 273.312 
L 276.514261 273.312 
L 276.514261 175.068881 
L 271.859716 175.068881 
z
" style="fill:#1f77b4;"/>
   </g>
   <g id="patch_28">
    <path clip-path="url(#p0fdfacdbe3)" d="M 277.677898 273.312 
L 282.332443 273.312 
L 282.332443 193.230579 
L 277.677898 193.230579 
z
" style="fill:#1f77b4;"/>
   </g>
   <g id="patch_29">
    <path clip-path="url(#p0fdfacdbe3)" d="M 283.49608 273.312 
L 288.150625 273.312 
L 288.150625 161.721555 
L 283.49608 161.721555 
z
" style="fill:#1f77b4;"/>
   </g>
   <g id="patch_30">
    <path clip-path="url(#p0fdfacdbe3)" d="M 300.950625 273.312 
L 305.60517 273.312 
L 305.60517 161.604873 
L 300.950625 161.604873 
z
" style="fill:#1f77b4;"/>
   </g>
   <g id="patch_31">
    <path clip-path="url(#p0fdfacdbe3)" d="M 306.768807 273.312 
L 311.423352 273.312 
L 311.423352 204.211304 
L 306.768807 204.211304 
z
" style="fill:#1f77b4;"/>
   </g>
   <g id="patch_32">
    <path clip-path="url(#p0fdfacdbe3)" d="M 312.586989 273.312 
L 317.241534 273.312 
L 317.241534 211.894514 
L 312.586989 211.894514 
z
" style="fill:#1f77b4;"/>
   </g>
   <g id="patch_33">
    <path clip-path="url(#p0fdfacdbe3)" d="M 318.40517 273.312 
L 323.059716 273.312 
L 323.059716 232.331498 
L 318.40517 232.331498 
z
" style="fill:#1f77b4;"/>
   </g>
   <g id="patch_34">
    <path clip-path="url(#p0fdfacdbe3)" d="M 324.223352 273.312 
L 328.877898 273.312 
L 328.877898 222.515049 
L 324.223352 222.515049 
z
" style="fill:#1f77b4;"/>
   </g>
   <g id="patch_35">
    <path clip-path="url(#p0fdfacdbe3)" d="M 341.677898 273.312 
L 346.332443 273.312 
L 346.332443 163.486993 
L 341.677898 163.486993 
z
" style="fill:#1f77b4;"/>
   </g>
   <g id="patch_36">
    <path clip-path="url(#p0fdfacdbe3)" d="M 347.49608 273.312 
L 352.150625 273.312 
L 352.150625 173.321198 
L 347.49608 173.321198 
z
" style="fill:#1f77b4;"/>
   </g>
   <g id="patch_37">
    <path clip-path="url(#p0fdfacdbe3)" d="M 353.314261 273.312 
L 357.968807 273.312 
L 357.968807 170.908939 
L 353.314261 170.908939 
z
" style="fill:#1f77b4;"/>
   </g>
   <g id="patch_38">
    <path clip-path="url(#p0fdfacdbe3)" d="M 359.132443 273.312 
L 363.786989 273.312 
L 363.786989 197.327107 
L 359.132443 197.327107 
z
" style="fill:#1f77b4;"/>
   </g>
   <g id="patch_39">
    <path clip-path="url(#p0fdfacdbe3)" d="M 364.950625 273.312 
L 369.60517 273.312 
L 369.60517 183.738809 
L 364.950625 183.738809 
z
" style="fill:#1f77b4;"/>
   </g>
   <g id="patch_40">
    <path clip-path="url(#p0fdfacdbe3)" d="M 382.40517 273.312 
L 387.059716 273.312 
L 387.059716 205.205632 
L 382.40517 205.205632 
z
" style="fill:#1f77b4;"/>
   </g>
   <g id="patch_41">
    <path clip-path="url(#p0fdfacdbe3)" d="M 388.223352 273.312 
L 392.877898 273.312 
L 392.877898 238.064101 
L 388.223352 238.064101 
z
" style="fill:#1f77b4;"/>
   </g>
   <g id="patch_42">
    <path clip-path="url(#p0fdfacdbe3)" d="M 68.223352 272.994931 
L 72.877898 272.994931 
L 72.877898 272.994931 
L 68.223352 272.994931 
z
" style="fill:#ff7f0e;"/>
   </g>
   <g id="patch_43">
    <path clip-path="url(#p0fdfacdbe3)" d="M 74.041534 272.079237 
L 78.69608 272.079237 
L 78.69608 272.079237 
L 74.041534 272.079237 
z
" style="fill:#ff7f0e;"/>
   </g>
   <g id="patch_44">
    <path clip-path="url(#p0fdfacdbe3)" d="M 79.859716 262.080156 
L 84.514261 262.080156 
L 84.514261 262.080156 
L 79.859716 262.080156 
z
" style="fill:#ff7f0e;"/>
   </g>
   <g id="patch_45">
    <path clip-path="url(#p0fdfacdbe3)" d="M 97.314261 255.822488 
L 101.968807 255.822488 
L 101.968807 255.822488 
L 97.314261 255.822488 
z
" style="fill:#ff7f0e;"/>
   </g>
   <g id="patch_46">
    <path clip-path="url(#p0fdfacdbe3)" d="M 108.950625 258.209381 
L 113.60517 258.209381 
L 113.60517 258.209381 
L 108.950625 258.209381 
z
" style="fill:#ff7f0e;"/>
   </g>
   <g id="patch_47">
    <path clip-path="url(#p0fdfacdbe3)" d="M 114.768807 263.145507 
L 119.423352 263.145507 
L 119.423352 263.145507 
L 114.768807 263.145507 
z
" style="fill:#ff7f0e;"/>
   </g>
   <g id="patch_48">
    <path clip-path="url(#p0fdfacdbe3)" d="M 120.586989 256.484527 
L 125.241534 256.484527 
L 125.241534 256.484527 
L 120.586989 256.484527 
z
" style="fill:#ff7f0e;"/>
   </g>
   <g id="patch_49">
    <path clip-path="url(#p0fdfacdbe3)" d="M 138.041534 265.05553 
L 142.69608 265.05553 
L 142.69608 265.05553 
L 138.041534 265.05553 
z
" style="fill:#ff7f0e;"/>
   </g>
   <g id="patch_50">
    <path clip-path="url(#p0fdfacdbe3)" d="M 143.859716 265.735325 
L 148.514261 265.735325 
L 148.514261 265.735325 
L 143.859716 265.735325 
z
" style="fill:#ff7f0e;"/>
   </g>
   <g id="patch_51">
    <path clip-path="url(#p0fdfacdbe3)" d="M 149.677898 266.891992 
L 154.332443 266.891992 
L 154.332443 266.891992 
L 149.677898 266.891992 
z
" style="fill:#ff7f0e;"/>
   </g>
   <g id="patch_52">
    <path clip-path="url(#p0fdfacdbe3)" d="M 155.49608 268.566115 
L 160.150625 268.566115 
L 160.150625 268.566115 
L 155.49608 268.566115 
z
" style="fill:#ff7f0e;"/>
   </g>
   <g id="patch_53">
    <path clip-path="url(#p0fdfacdbe3)" d="M 161.314261 254.807868 
L 165.968807 254.807868 
L 165.968807 254.807868 
L 161.314261 254.807868 
z
" style="fill:#ff7f0e;"/>
   </g>
   <g id="patch_54">
    <path clip-path="url(#p0fdfacdbe3)" d="M 178.768807 211.605347 
L 183.423352 211.605347 
L 183.423352 211.605347 
L 178.768807 211.605347 
z
" style="fill:#ff7f0e;"/>
   </g>
   <g id="patch_55">
    <path clip-path="url(#p0fdfacdbe3)" d="M 184.586989 180.063348 
L 189.241534 180.063348 
L 189.241534 180.063348 
L 184.586989 180.063348 
z
" style="fill:#ff7f0e;"/>
   </g>
   <g id="patch_56">
    <path clip-path="url(#p0fdfacdbe3)" d="M 190.40517 168.4079 
L 195.059716 168.4079 
L 195.059716 168.319121 
L 190.40517 168.319121 
z
" style="fill:#ff7f0e;"/>
   </g>
   <g id="patch_57">
    <path clip-path="url(#p0fdfacdbe3)" d="M 196.223352 192.583759 
L 200.877898 192.583759 
L 200.877898 191.548846 
L 196.223352 191.548846 
z
" style="fill:#ff7f0e;"/>
   </g>
   <g id="patch_58">
    <path clip-path="url(#p0fdfacdbe3)" d="M 202.041534 155.481642 
L 206.69608 155.481642 
L 206.69608 148.112964 
L 202.041534 148.112964 
z
" style="fill:#ff7f0e;"/>
   </g>
   <g id="patch_59">
    <path clip-path="url(#p0fdfacdbe3)" d="M 219.49608 133.284292 
L 224.150625 133.284292 
L 224.150625 121.796257 
L 219.49608 121.796257 
z
" style="fill:#ff7f0e;"/>
   </g>
   <g id="patch_60">
    <path clip-path="url(#p0fdfacdbe3)" d="M 225.314261 102.231847 
L 229.968807 102.231847 
L 229.968807 98.503118 
L 225.314261 98.503118 
z
" style="fill:#ff7f0e;"/>
   </g>
   <g id="patch_61">
    <path clip-path="url(#p0fdfacdbe3)" d="M 231.132443 87.250982 
L 235.786989 87.250982 
L 235.786989 74.715352 
L 231.132443 74.715352 
z
" style="fill:#ff7f0e;"/>
   </g>
   <g id="patch_62">
    <path clip-path="url(#p0fdfacdbe3)" d="M 236.950625 102.812717 
L 241.60517 102.812717 
L 241.60517 92.666517 
L 236.950625 92.666517 
z
" style="fill:#ff7f0e;"/>
   </g>
   <g id="patch_63">
    <path clip-path="url(#p0fdfacdbe3)" d="M 242.768807 113.40535 
L 247.423352 113.40535 
L 247.423352 95.416137 
L 242.768807 95.416137 
z
" style="fill:#ff7f0e;"/>
   </g>
   <g id="patch_64">
    <path clip-path="url(#p0fdfacdbe3)" d="M 260.223352 95.461795 
L 264.877898 95.461795 
L 264.877898 85.954805 
L 260.223352 85.954805 
z
" style="fill:#ff7f0e;"/>
   </g>
   <g id="patch_65">
    <path clip-path="url(#p0fdfacdbe3)" d="M 266.041534 162.208572 
L 270.69608 162.208572 
L 270.69608 155.545055 
L 266.041534 155.545055 
z
" style="fill:#ff7f0e;"/>
   </g>
   <g id="patch_66">
    <path clip-path="url(#p0fdfacdbe3)" d="M 271.859716 175.068881 
L 276.514261 175.068881 
L 276.514261 166.639925 
L 271.859716 166.639925 
z
" style="fill:#ff7f0e;"/>
   </g>
   <g id="patch_67">
    <path clip-path="url(#p0fdfacdbe3)" d="M 277.677898 193.230579 
L 282.332443 193.230579 
L 282.332443 187.216419 
L 277.677898 187.216419 
z
" style="fill:#ff7f0e;"/>
   </g>
   <g id="patch_68">
    <path clip-path="url(#p0fdfacdbe3)" d="M 283.49608 161.721555 
L 288.150625 161.721555 
L 288.150625 152.199346 
L 283.49608 152.199346 
z
" style="fill:#ff7f0e;"/>
   </g>
   <g id="patch_69">
    <path clip-path="url(#p0fdfacdbe3)" d="M 300.950625 161.604873 
L 305.60517 161.604873 
L 305.60517 101.351664 
L 300.950625 101.351664 
z
" style="fill:#ff7f0e;"/>
   </g>
   <g id="patch_70">
    <path clip-path="url(#p0fdfacdbe3)" d="M 306.768807 204.211304 
L 311.423352 204.211304 
L 311.423352 123.480526 
L 306.768807 123.480526 
z
" style="fill:#ff7f0e;"/>
   </g>
   <g id="patch_71">
    <path clip-path="url(#p0fdfacdbe3)" d="M 312.586989 211.894514 
L 317.241534 211.894514 
L 317.241534 138.854556 
L 312.586989 138.854556 
z
" style="fill:#ff7f0e;"/>
   </g>
   <g id="patch_72">
    <path clip-path="url(#p0fdfacdbe3)" d="M 318.40517 232.331498 
L 323.059716 232.331498 
L 323.059716 153.148016 
L 318.40517 153.148016 
z
" style="fill:#ff7f0e;"/>
   </g>
   <g id="patch_73">
    <path clip-path="url(#p0fdfacdbe3)" d="M 324.223352 222.515049 
L 328.877898 222.515049 
L 328.877898 155.14428 
L 324.223352 155.14428 
z
" style="fill:#ff7f0e;"/>
   </g>
   <g id="patch_74">
    <path clip-path="url(#p0fdfacdbe3)" d="M 341.677898 163.486993 
L 346.332443 163.486993 
L 346.332443 19.185199 
L 341.677898 19.185199 
z
" style="fill:#ff7f0e;"/>
   </g>
   <g id="patch_75">
    <path clip-path="url(#p0fdfacdbe3)" d="M 347.49608 173.321198 
L 352.150625 173.321198 
L 352.150625 40.75602 
L 347.49608 40.75602 
z
" style="fill:#ff7f0e;"/>
   </g>
   <g id="patch_76">
    <path clip-path="url(#p0fdfacdbe3)" d="M 353.314261 170.908939 
L 357.968807 170.908939 
L 357.968807 8.135987 
L 353.314261 8.135987 
z
" style="fill:#ff7f0e;"/>
   </g>
   <g id="patch_77">
    <path clip-path="url(#p0fdfacdbe3)" d="M 359.132443 197.327107 
L 363.786989 197.327107 
L 363.786989 33.613095 
L 359.132443 33.613095 
z
" style="fill:#ff7f0e;"/>
   </g>
   <g id="patch_78">
    <path clip-path="url(#p0fdfacdbe3)" d="M 364.950625 183.738809 
L 369.60517 183.738809 
L 369.60517 7.2 
L 364.950625 7.2 
z
" style="fill:#ff7f0e;"/>
   </g>
   <g id="patch_79">
    <path clip-path="url(#p0fdfacdbe3)" d="M 382.40517 205.205632 
L 387.059716 205.205632 
L 387.059716 27.428986 
L 382.40517 27.428986 
z
" style="fill:#ff7f0e;"/>
   </g>
   <g id="patch_80">
    <path clip-path="url(#p0fdfacdbe3)" d="M 388.223352 238.064101 
L 392.877898 238.064101 
L 392.877898 136.37381 
L 388.223352 136.37381 
z
" style="fill:#ff7f0e;"/>
   </g>
   <g id="patch_81">
    <path clip-path="url(#p0fdfacdbe3)" d="M 68.223352 272.994931 
L 72.877898 272.994931 
L 72.877898 272.994931 
L 68.223352 272.994931 
z
" style="fill:#2ca02c;"/>
   </g>
   <g id="patch_82">
    <path clip-path="url(#p0fdfacdbe3)" d="M 74.041534 272.079237 
L 78.69608 272.079237 
L 78.69608 272.079237 
L 74.041534 272.079237 
z
" style="fill:#2ca02c;"/>
   </g>
   <g id="patch_83">
    <path clip-path="url(#p0fdfacdbe3)" d="M 79.859716 262.080156 
L 84.514261 262.080156 
L 84.514261 262.080156 
L 79.859716 262.080156 
z
" style="fill:#2ca02c;"/>
   </g>
   <g id="patch_84">
    <path clip-path="url(#p0fdfacdbe3)" d="M 97.314261 255.822488 
L 101.968807 255.822488 
L 101.968807 255.822488 
L 97.314261 255.822488 
z
" style="fill:#2ca02c;"/>
   </g>
   <g id="patch_85">
    <path clip-path="url(#p0fdfacdbe3)" d="M 108.950625 258.209381 
L 113.60517 258.209381 
L 113.60517 258.209381 
L 108.950625 258.209381 
z
" style="fill:#2ca02c;"/>
   </g>
   <g id="patch_86">
    <path clip-path="url(#p0fdfacdbe3)" d="M 114.768807 263.145507 
L 119.423352 263.145507 
L 119.423352 263.145507 
L 114.768807 263.145507 
z
" style="fill:#2ca02c;"/>
   </g>
   <g id="patch_87">
    <path clip-path="url(#p0fdfacdbe3)" d="M 120.586989 256.484527 
L 125.241534 256.484527 
L 125.241534 256.484527 
L 120.586989 256.484527 
z
" style="fill:#2ca02c;"/>
   </g>
   <g id="patch_88">
    <path clip-path="url(#p0fdfacdbe3)" d="M 138.041534 265.05553 
L 142.69608 265.05553 
L 142.69608 265.05553 
L 138.041534 265.05553 
z
" style="fill:#2ca02c;"/>
   </g>
   <g id="patch_89">
    <path clip-path="url(#p0fdfacdbe3)" d="M 143.859716 265.735325 
L 148.514261 265.735325 
L 148.514261 265.735325 
L 143.859716 265.735325 
z
" style="fill:#2ca02c;"/>
   </g>
   <g id="patch_90">
    <path clip-path="url(#p0fdfacdbe3)" d="M 149.677898 266.891992 
L 154.332443 266.891992 
L 154.332443 266.891992 
L 149.677898 266.891992 
z
" style="fill:#2ca02c;"/>
   </g>
   <g id="patch_91">
    <path clip-path="url(#p0fdfacdbe3)" d="M 155.49608 268.566115 
L 160.150625 268.566115 
L 160.150625 268.566115 
L 155.49608 268.566115 
z
" style="fill:#2ca02c;"/>
   </g>
   <g id="patch_92">
    <path clip-path="url(#p0fdfacdbe3)" d="M 161.314261 254.807868 
L 165.968807 254.807868 
L 165.968807 254.807868 
L 161.314261 254.807868 
z
" style="fill:#2ca02c;"/>
   </g>
   <g id="patch_93">
    <path clip-path="url(#p0fdfacdbe3)" d="M 178.768807 211.605347 
L 183.423352 211.605347 
L 183.423352 211.605347 
L 178.768807 211.605347 
z
" style="fill:#2ca02c;"/>
   </g>
   <g id="patch_94">
    <path clip-path="url(#p0fdfacdbe3)" d="M 184.586989 180.063348 
L 189.241534 180.063348 
L 189.241534 180.063348 
L 184.586989 180.063348 
z
" style="fill:#2ca02c;"/>
   </g>
   <g id="patch_95">
    <path clip-path="url(#p0fdfacdbe3)" d="M 190.40517 168.319121 
L 195.059716 168.319121 
L 195.059716 168.319121 
L 190.40517 168.319121 
z
" style="fill:#2ca02c;"/>
   </g>
   <g id="patch_96">
    <path clip-path="url(#p0fdfacdbe3)" d="M 196.223352 191.548846 
L 200.877898 191.548846 
L 200.877898 191.548846 
L 196.223352 191.548846 
z
" style="fill:#2ca02c;"/>
   </g>
   <g id="patch_97">
    <path clip-path="url(#p0fdfacdbe3)" d="M 202.041534 148.112964 
L 206.69608 148.112964 
L 206.69608 148.112964 
L 202.041534 148.112964 
z
" style="fill:#2ca02c;"/>
   </g>
   <g id="patch_98">
    <path clip-path="url(#p0fdfacdbe3)" d="M 219.49608 121.796257 
L 224.150625 121.796257 
L 224.150625 121.796257 
L 219.49608 121.796257 
z
" style="fill:#2ca02c;"/>
   </g>
   <g id="patch_99">
    <path clip-path="url(#p0fdfacdbe3)" d="M 225.314261 98.503118 
L 229.968807 98.503118 
L 229.968807 98.503118 
L 225.314261 98.503118 
z
" style="fill:#2ca02c;"/>
   </g>
   <g id="patch_100">
    <path clip-path="url(#p0fdfacdbe3)" d="M 231.132443 74.715352 
L 235.786989 74.715352 
L 235.786989 74.715352 
L 231.132443 74.715352 
z
" style="fill:#2ca02c;"/>
   </g>
   <g id="patch_101">
    <path clip-path="url(#p0fdfacdbe3)" d="M 236.950625 92.666517 
L 241.60517 92.666517 
L 241.60517 92.666517 
L 236.950625 92.666517 
z
" style="fill:#2ca02c;"/>
   </g>
   <g id="patch_102">
    <path clip-path="url(#p0fdfacdbe3)" d="M 242.768807 95.416137 
L 247.423352 95.416137 
L 247.423352 95.416137 
L 242.768807 95.416137 
z
" style="fill:#2ca02c;"/>
   </g>
   <g id="patch_103">
    <path clip-path="url(#p0fdfacdbe3)" d="M 260.223352 85.954805 
L 264.877898 85.954805 
L 264.877898 85.954805 
L 260.223352 85.954805 
z
" style="fill:#2ca02c;"/>
   </g>
   <g id="patch_104">
    <path clip-path="url(#p0fdfacdbe3)" d="M 266.041534 155.545055 
L 270.69608 155.545055 
L 270.69608 155.545055 
L 266.041534 155.545055 
z
" style="fill:#2ca02c;"/>
   </g>
   <g id="patch_105">
    <path clip-path="url(#p0fdfacdbe3)" d="M 271.859716 166.639925 
L 276.514261 166.639925 
L 276.514261 166.639925 
L 271.859716 166.639925 
z
" style="fill:#2ca02c;"/>
   </g>
   <g id="patch_106">
    <path clip-path="url(#p0fdfacdbe3)" d="M 277.677898 187.216419 
L 282.332443 187.216419 
L 282.332443 187.216419 
L 277.677898 187.216419 
z
" style="fill:#2ca02c;"/>
   </g>
   <g id="patch_107">
    <path clip-path="url(#p0fdfacdbe3)" d="M 283.49608 152.199346 
L 288.150625 152.199346 
L 288.150625 152.199346 
L 283.49608 152.199346 
z
" style="fill:#2ca02c;"/>
   </g>
   <g id="patch_108">
    <path clip-path="url(#p0fdfacdbe3)" d="M 300.950625 101.351664 
L 305.60517 101.351664 
L 305.60517 101.351664 
L 300.950625 101.351664 
z
" style="fill:#2ca02c;"/>
   </g>
   <g id="patch_109">
    <path clip-path="url(#p0fdfacdbe3)" d="M 306.768807 123.480526 
L 311.423352 123.480526 
L 311.423352 123.480526 
L 306.768807 123.480526 
z
" style="fill:#2ca02c;"/>
   </g>
   <g id="patch_110">
    <path clip-path="url(#p0fdfacdbe3)" d="M 312.586989 138.854556 
L 317.241534 138.854556 
L 317.241534 138.854556 
L 312.586989 138.854556 
z
" style="fill:#2ca02c;"/>
   </g>
   <g id="patch_111">
    <path clip-path="url(#p0fdfacdbe3)" d="M 318.40517 153.148016 
L 323.059716 153.148016 
L 323.059716 153.148016 
L 318.40517 153.148016 
z
" style="fill:#2ca02c;"/>
   </g>
   <g id="patch_112">
    <path clip-path="url(#p0fdfacdbe3)" d="M 324.223352 155.14428 
L 328.877898 155.14428 
L 328.877898 155.14428 
L 324.223352 155.14428 
z
" style="fill:#2ca02c;"/>
   </g>
   <g id="patch_113">
    <path clip-path="url(#p0fdfacdbe3)" d="M 341.677898 19.185199 
L 346.332443 19.185199 
L 346.332443 19.185199 
L 341.677898 19.185199 
z
" style="fill:#2ca02c;"/>
   </g>
   <g id="patch_114">
    <path clip-path="url(#p0fdfacdbe3)" d="M 347.49608 40.75602 
L 352.150625 40.75602 
L 352.150625 40.75602 
L 347.49608 40.75602 
z
" style="fill:#2ca02c;"/>
   </g>
   <g id="patch_115">
    <path clip-path="url(#p0fdfacdbe3)" d="M 353.314261 8.135987 
L 357.968807 8.135987 
L 357.968807 8.135987 
L 353.314261 8.135987 
z
" style="fill:#2ca02c;"/>
   </g>
   <g id="patch_116">
    <path clip-path="url(#p0fdfacdbe3)" d="M 359.132443 33.613095 
L 363.786989 33.613095 
L 363.786989 33.613095 
L 359.132443 33.613095 
z
" style="fill:#2ca02c;"/>
   </g>
   <g id="patch_117">
    <path clip-path="url(#p0fdfacdbe3)" d="M 364.950625 7.2 
L 369.60517 7.2 
L 369.60517 7.2 
L 364.950625 7.2 
z
" style="fill:#2ca02c;"/>
   </g>
   <g id="patch_118">
    <path clip-path="url(#p0fdfacdbe3)" d="M 382.40517 27.428986 
L 387.059716 27.428986 
L 387.059716 23.464359 
L 382.40517 23.464359 
z
" style="fill:#2ca02c;"/>
   </g>
   <g id="patch_119">
    <path clip-path="url(#p0fdfacdbe3)" d="M 388.223352 136.37381 
L 392.877898 136.37381 
L 392.877898 133.383218 
L 388.223352 133.383218 
z
" style="fill:#2ca02c;"/>
   </g>
   <g id="patch_120">
    <path clip-path="url(#p0fdfacdbe3)" d="M 68.223352 272.994931 
L 72.877898 272.994931 
L 72.877898 272.994931 
L 68.223352 272.994931 
z
" style="fill:#d62728;"/>
   </g>
   <g id="patch_121">
    <path clip-path="url(#p0fdfacdbe3)" d="M 74.041534 272.079237 
L 78.69608 272.079237 
L 78.69608 272.079237 
L 74.041534 272.079237 
z
" style="fill:#d62728;"/>
   </g>
   <g id="patch_122">
    <path clip-path="url(#p0fdfacdbe3)" d="M 79.859716 262.080156 
L 84.514261 262.080156 
L 84.514261 262.080156 
L 79.859716 262.080156 
z
" style="fill:#d62728;"/>
   </g>
   <g id="patch_123">
    <path clip-path="url(#p0fdfacdbe3)" d="M 97.314261 255.822488 
L 101.968807 255.822488 
L 101.968807 255.822488 
L 97.314261 255.822488 
z
" style="fill:#d62728;"/>
   </g>
   <g id="patch_124">
    <path clip-path="url(#p0fdfacdbe3)" d="M 108.950625 258.209381 
L 113.60517 258.209381 
L 113.60517 258.209381 
L 108.950625 258.209381 
z
" style="fill:#d62728;"/>
   </g>
   <g id="patch_125">
    <path clip-path="url(#p0fdfacdbe3)" d="M 114.768807 263.145507 
L 119.423352 263.145507 
L 119.423352 263.145507 
L 114.768807 263.145507 
z
" style="fill:#d62728;"/>
   </g>
   <g id="patch_126">
    <path clip-path="url(#p0fdfacdbe3)" d="M 120.586989 256.484527 
L 125.241534 256.484527 
L 125.241534 256.484527 
L 120.586989 256.484527 
z
" style="fill:#d62728;"/>
   </g>
   <g id="patch_127">
    <path clip-path="url(#p0fdfacdbe3)" d="M 138.041534 265.05553 
L 142.69608 265.05553 
L 142.69608 265.05553 
L 138.041534 265.05553 
z
" style="fill:#d62728;"/>
   </g>
   <g id="patch_128">
    <path clip-path="url(#p0fdfacdbe3)" d="M 143.859716 265.735325 
L 148.514261 265.735325 
L 148.514261 265.735325 
L 143.859716 265.735325 
z
" style="fill:#d62728;"/>
   </g>
   <g id="patch_129">
    <path clip-path="url(#p0fdfacdbe3)" d="M 149.677898 266.891992 
L 154.332443 266.891992 
L 154.332443 266.891992 
L 149.677898 266.891992 
z
" style="fill:#d62728;"/>
   </g>
   <g id="patch_130">
    <path clip-path="url(#p0fdfacdbe3)" d="M 155.49608 268.566115 
L 160.150625 268.566115 
L 160.150625 268.566115 
L 155.49608 268.566115 
z
" style="fill:#d62728;"/>
   </g>
   <g id="patch_131">
    <path clip-path="url(#p0fdfacdbe3)" d="M 161.314261 254.807868 
L 165.968807 254.807868 
L 165.968807 254.807868 
L 161.314261 254.807868 
z
" style="fill:#d62728;"/>
   </g>
   <g id="patch_132">
    <path clip-path="url(#p0fdfacdbe3)" d="M 178.768807 211.605347 
L 183.423352 211.605347 
L 183.423352 211.605347 
L 178.768807 211.605347 
z
" style="fill:#d62728;"/>
   </g>
   <g id="patch_133">
    <path clip-path="url(#p0fdfacdbe3)" d="M 184.586989 180.063348 
L 189.241534 180.063348 
L 189.241534 180.063348 
L 184.586989 180.063348 
z
" style="fill:#d62728;"/>
   </g>
   <g id="patch_134">
    <path clip-path="url(#p0fdfacdbe3)" d="M 190.40517 168.319121 
L 195.059716 168.319121 
L 195.059716 168.319121 
L 190.40517 168.319121 
z
" style="fill:#d62728;"/>
   </g>
   <g id="patch_135">
    <path clip-path="url(#p0fdfacdbe3)" d="M 196.223352 191.548846 
L 200.877898 191.548846 
L 200.877898 191.548846 
L 196.223352 191.548846 
z
" style="fill:#d62728;"/>
   </g>
   <g id="patch_136">
    <path clip-path="url(#p0fdfacdbe3)" d="M 202.041534 148.112964 
L 206.69608 148.112964 
L 206.69608 148.112964 
L 202.041534 148.112964 
z
" style="fill:#d62728;"/>
   </g>
   <g id="patch_137">
    <path clip-path="url(#p0fdfacdbe3)" d="M 219.49608 121.796257 
L 224.150625 121.796257 
L 224.150625 121.796257 
L 219.49608 121.796257 
z
" style="fill:#d62728;"/>
   </g>
   <g id="patch_138">
    <path clip-path="url(#p0fdfacdbe3)" d="M 225.314261 98.503118 
L 229.968807 98.503118 
L 229.968807 98.503118 
L 225.314261 98.503118 
z
" style="fill:#d62728;"/>
   </g>
   <g id="patch_139">
    <path clip-path="url(#p0fdfacdbe3)" d="M 231.132443 74.715352 
L 235.786989 74.715352 
L 235.786989 74.715352 
L 231.132443 74.715352 
z
" style="fill:#d62728;"/>
   </g>
   <g id="patch_140">
    <path clip-path="url(#p0fdfacdbe3)" d="M 236.950625 92.666517 
L 241.60517 92.666517 
L 241.60517 92.666517 
L 236.950625 92.666517 
z
" style="fill:#d62728;"/>
   </g>
   <g id="patch_141">
    <path clip-path="url(#p0fdfacdbe3)" d="M 242.768807 95.416137 
L 247.423352 95.416137 
L 247.423352 95.416137 
L 242.768807 95.416137 
z
" style="fill:#d62728;"/>
   </g>
   <g id="patch_142">
    <path clip-path="url(#p0fdfacdbe3)" d="M 260.223352 85.954805 
L 264.877898 85.954805 
L 264.877898 85.954805 
L 260.223352 85.954805 
z
" style="fill:#d62728;"/>
   </g>
   <g id="patch_143">
    <path clip-path="url(#p0fdfacdbe3)" d="M 266.041534 155.545055 
L 270.69608 155.545055 
L 270.69608 155.545055 
L 266.041534 155.545055 
z
" style="fill:#d62728;"/>
   </g>
   <g id="patch_144">
    <path clip-path="url(#p0fdfacdbe3)" d="M 271.859716 166.639925 
L 276.514261 166.639925 
L 276.514261 166.639925 
L 271.859716 166.639925 
z
" style="fill:#d62728;"/>
   </g>
   <g id="patch_145">
    <path clip-path="url(#p0fdfacdbe3)" d="M 277.677898 187.216419 
L 282.332443 187.216419 
L 282.332443 187.216419 
L 277.677898 187.216419 
z
" style="fill:#d62728;"/>
   </g>
   <g id="patch_146">
    <path clip-path="url(#p0fdfacdbe3)" d="M 283.49608 152.199346 
L 288.150625 152.199346 
L 288.150625 152.199346 
L 283.49608 152.199346 
z
" style="fill:#d62728;"/>
   </g>
   <g id="patch_147">
    <path clip-path="url(#p0fdfacdbe3)" d="M 300.950625 101.351664 
L 305.60517 101.351664 
L 305.60517 101.351664 
L 300.950625 101.351664 
z
" style="fill:#d62728;"/>
   </g>
   <g id="patch_148">
    <path clip-path="url(#p0fdfacdbe3)" d="M 306.768807 123.480526 
L 311.423352 123.480526 
L 311.423352 123.480526 
L 306.768807 123.480526 
z
" style="fill:#d62728;"/>
   </g>
   <g id="patch_149">
    <path clip-path="url(#p0fdfacdbe3)" d="M 312.586989 138.854556 
L 317.241534 138.854556 
L 317.241534 138.854556 
L 312.586989 138.854556 
z
" style="fill:#d62728;"/>
   </g>
   <g id="patch_150">
    <path clip-path="url(#p0fdfacdbe3)" d="M 318.40517 153.148016 
L 323.059716 153.148016 
L 323.059716 153.148016 
L 318.40517 153.148016 
z
" style="fill:#d62728;"/>
   </g>
   <g id="patch_151">
    <path clip-path="url(#p0fdfacdbe3)" d="M 324.223352 155.14428 
L 328.877898 155.14428 
L 328.877898 155.14428 
L 324.223352 155.14428 
z
" style="fill:#d62728;"/>
   </g>
   <g id="patch_152">
    <path clip-path="url(#p0fdfacdbe3)" d="M 341.677898 19.185199 
L 346.332443 19.185199 
L 346.332443 19.185199 
L 341.677898 19.185199 
z
" style="fill:#d62728;"/>
   </g>
   <g id="patch_153">
    <path clip-path="url(#p0fdfacdbe3)" d="M 347.49608 40.75602 
L 352.150625 40.75602 
L 352.150625 40.75602 
L 347.49608 40.75602 
z
" style="fill:#d62728;"/>
   </g>
   <g id="patch_154">
    <path clip-path="url(#p0fdfacdbe3)" d="M 353.314261 8.135987 
L 357.968807 8.135987 
L 357.968807 8.135987 
L 353.314261 8.135987 
z
" style="fill:#d62728;"/>
   </g>
   <g id="patch_155">
    <path clip-path="url(#p0fdfacdbe3)" d="M 359.132443 33.613095 
L 363.786989 33.613095 
L 363.786989 33.613095 
L 359.132443 33.613095 
z
" style="fill:#d62728;"/>
   </g>
   <g id="patch_156">
    <path clip-path="url(#p0fdfacdbe3)" d="M 364.950625 7.2 
L 369.60517 7.2 
L 369.60517 7.2 
L 364.950625 7.2 
z
" style="fill:#d62728;"/>
   </g>
   <g id="patch_157">
    <path clip-path="url(#p0fdfacdbe3)" d="M 382.40517 23.464359 
L 387.059716 23.464359 
L 387.059716 23.464359 
L 382.40517 23.464359 
z
" style="fill:#d62728;"/>
   </g>
   <g id="patch_158">
    <path clip-path="url(#p0fdfacdbe3)" d="M 388.223352 133.383218 
L 392.877898 133.383218 
L 392.877898 133.383218 
L 388.223352 133.383218 
z
" style="fill:#d62728;"/>
   </g>
   <g id="matplotlib.axis_1">
    <g id="xtick_1">
     <g id="line2d_1">
      <defs>
       <path d="M 0 0 
L 0 3.5 
" id="m64767e8236" style="stroke:#000000;stroke-width:0.8;"/>
      </defs>
      <g>
       <use style="stroke:#000000;stroke-width:0.8;" x="58.914261" xlink:href="#m64767e8236" y="273.312"/>
      </g>
     </g>
     <g id="text_1">
      <!-- 2021-02-15 -->
      <g transform="translate(32.832128 307.033075)rotate(-20)scale(0.1 -0.1)">
       <defs>
        <path d="M 3659 63 
L 447 63 
L 447 594 
Q 825 1475 1894 2203 
L 2072 2322 
Q 2619 2697 2791 2906 
Q 2988 3153 2988 3444 
Q 2988 3772 2756 4003 
Q 2500 4259 2084 4259 
Q 1250 4259 991 3328 
L 497 3506 
Q 853 4725 2116 4725 
Q 2806 4725 3216 4316 
Q 3575 3947 3575 3425 
Q 3575 3038 3344 2722 
Q 3131 2416 2366 1938 
L 2231 1856 
Q 1256 1253 978 569 
L 3659 569 
L 3659 63 
z
" id="IPAexGothic-32" transform="scale(0.015625)"/>
        <path d="M 2038 4725 
Q 2881 4725 3334 3944 
Q 3694 3325 3694 2344 
Q 3694 1372 3334 741 
Q 2888 -31 2016 -31 
Q 1147 -31 700 741 
Q 341 1372 341 2350 
Q 341 3713 1000 4334 
Q 1419 4725 2038 4725 
z
M 2016 4266 
Q 1516 4266 1228 3759 
Q 934 3247 934 2344 
Q 934 1456 1222 947 
Q 1513 447 2016 447 
Q 2619 447 2909 1153 
Q 3100 1622 3100 2375 
Q 3100 3256 2806 3759 
Q 2509 4266 2016 4266 
z
" id="IPAexGothic-30" transform="scale(0.015625)"/>
        <path d="M 2463 63 
L 1900 63 
L 1900 4103 
Q 1372 3922 788 3797 
L 684 4231 
Q 1519 4441 2106 4731 
L 2463 4731 
L 2463 63 
z
" id="IPAexGothic-31" transform="scale(0.015625)"/>
        <path d="M 1969 1703 
L 319 1703 
L 319 2203 
L 1969 2203 
L 1969 1703 
z
" id="IPAexGothic-2d" transform="scale(0.015625)"/>
        <path d="M 1178 2603 
Q 1634 2963 2172 2963 
Q 2816 2963 3241 2528 
Q 3638 2113 3638 1497 
Q 3638 938 3297 513 
Q 2869 -31 2031 -31 
Q 959 -31 469 784 
L 938 1028 
Q 1309 434 2013 434 
Q 2466 434 2769 716 
Q 3081 1013 3081 1503 
Q 3081 1966 2806 2241 
Q 2519 2528 2056 2528 
Q 1406 2528 1072 2028 
L 591 2091 
L 884 4634 
L 3406 4634 
L 3406 4153 
L 1341 4153 
L 1134 2603 
L 1178 2603 
z
" id="IPAexGothic-35" transform="scale(0.015625)"/>
       </defs>
       <use xlink:href="#IPAexGothic-32"/>
       <use x="62.988281" xlink:href="#IPAexGothic-30"/>
       <use x="125.976562" xlink:href="#IPAexGothic-32"/>
       <use x="188.964844" xlink:href="#IPAexGothic-31"/>
       <use x="251.953125" xlink:href="#IPAexGothic-2d"/>
       <use x="287.744141" xlink:href="#IPAexGothic-30"/>
       <use x="350.732422" xlink:href="#IPAexGothic-32"/>
       <use x="413.720703" xlink:href="#IPAexGothic-2d"/>
       <use x="449.511719" xlink:href="#IPAexGothic-31"/>
       <use x="512.5" xlink:href="#IPAexGothic-35"/>
      </g>
     </g>
    </g>
    <g id="xtick_2">
     <g id="line2d_2">
      <g>
       <use style="stroke:#000000;stroke-width:0.8;" x="99.641534" xlink:href="#m64767e8236" y="273.312"/>
      </g>
     </g>
     <g id="text_2">
      <!-- 2021-02-22 -->
      <g transform="translate(73.5594 307.033075)rotate(-20)scale(0.1 -0.1)">
       <use xlink:href="#IPAexGothic-32"/>
       <use x="62.988281" xlink:href="#IPAexGothic-30"/>
       <use x="125.976562" xlink:href="#IPAexGothic-32"/>
       <use x="188.964844" xlink:href="#IPAexGothic-31"/>
       <use x="251.953125" xlink:href="#IPAexGothic-2d"/>
       <use x="287.744141" xlink:href="#IPAexGothic-30"/>
       <use x="350.732422" xlink:href="#IPAexGothic-32"/>
       <use x="413.720703" xlink:href="#IPAexGothic-2d"/>
       <use x="449.511719" xlink:href="#IPAexGothic-32"/>
       <use x="512.5" xlink:href="#IPAexGothic-32"/>
      </g>
     </g>
    </g>
    <g id="xtick_3">
     <g id="line2d_3">
      <g>
       <use style="stroke:#000000;stroke-width:0.8;" x="140.368807" xlink:href="#m64767e8236" y="273.312"/>
      </g>
     </g>
     <g id="text_3">
      <!-- 2021-03-01 -->
      <g transform="translate(114.286673 307.033075)rotate(-20)scale(0.1 -0.1)">
       <defs>
        <path d="M 2381 2419 
Q 3506 2216 3506 1278 
Q 3506 716 3128 356 
Q 2709 -31 1944 -31 
Q 797 -31 288 881 
L 756 1131 
Q 1109 441 1938 441 
Q 2425 441 2694 691 
Q 2950 928 2950 1291 
Q 2950 1719 2566 1978 
Q 2216 2213 1644 2213 
L 1363 2213 
L 1363 2669 
L 1656 2669 
Q 2231 2669 2534 2888 
Q 2859 3119 2859 3509 
Q 2859 3934 2494 4138 
Q 2259 4278 1931 4278 
Q 1238 4278 903 3578 
L 434 3803 
Q 897 4725 1938 4725 
Q 2597 4725 3006 4394 
Q 3416 4069 3416 3534 
Q 3416 3028 3019 2706 
Q 2763 2500 2381 2444 
L 2381 2419 
z
" id="IPAexGothic-33" transform="scale(0.015625)"/>
       </defs>
       <use xlink:href="#IPAexGothic-32"/>
       <use x="62.988281" xlink:href="#IPAexGothic-30"/>
       <use x="125.976562" xlink:href="#IPAexGothic-32"/>
       <use x="188.964844" xlink:href="#IPAexGothic-31"/>
       <use x="251.953125" xlink:href="#IPAexGothic-2d"/>
       <use x="287.744141" xlink:href="#IPAexGothic-30"/>
       <use x="350.732422" xlink:href="#IPAexGothic-33"/>
       <use x="413.720703" xlink:href="#IPAexGothic-2d"/>
       <use x="449.511719" xlink:href="#IPAexGothic-30"/>
       <use x="512.5" xlink:href="#IPAexGothic-31"/>
      </g>
     </g>
    </g>
    <g id="xtick_4">
     <g id="line2d_4">
      <g>
       <use style="stroke:#000000;stroke-width:0.8;" x="181.09608" xlink:href="#m64767e8236" y="273.312"/>
      </g>
     </g>
     <g id="text_4">
      <!-- 2021-03-08 -->
      <g transform="translate(155.013946 307.033075)rotate(-20)scale(0.1 -0.1)">
       <defs>
        <path d="M 2541 2425 
Q 3700 2031 3700 1197 
Q 3700 541 3100 197 
Q 2663 -56 2016 -56 
Q 1366 -56 928 197 
Q 347 531 347 1178 
Q 347 1988 1409 2381 
L 1409 2400 
Q 481 2734 481 3509 
Q 481 4100 981 4456 
Q 1406 4756 2019 4756 
Q 2703 4756 3131 4403 
Q 3553 4069 3553 3566 
Q 3553 2706 2541 2444 
L 2541 2425 
z
M 2022 2625 
Q 2997 2856 2997 3528 
Q 2997 3916 2675 4150 
Q 2413 4347 2016 4347 
Q 1606 4347 1331 4128 
Q 1050 3897 1050 3522 
Q 1050 3150 1350 2925 
Q 1494 2809 1722 2722 
Q 1984 2616 2022 2625 
z
M 1978 2209 
Q 922 1931 922 1216 
Q 922 775 1313 556 
Q 1606 391 2009 391 
Q 2575 391 2881 697 
Q 3106 922 3106 1250 
Q 3106 1594 2794 1850 
Q 2609 1994 2350 2100 
Q 2047 2222 1978 2209 
z
" id="IPAexGothic-38" transform="scale(0.015625)"/>
       </defs>
       <use xlink:href="#IPAexGothic-32"/>
       <use x="62.988281" xlink:href="#IPAexGothic-30"/>
       <use x="125.976562" xlink:href="#IPAexGothic-32"/>
       <use x="188.964844" xlink:href="#IPAexGothic-31"/>
       <use x="251.953125" xlink:href="#IPAexGothic-2d"/>
       <use x="287.744141" xlink:href="#IPAexGothic-30"/>
       <use x="350.732422" xlink:href="#IPAexGothic-33"/>
       <use x="413.720703" xlink:href="#IPAexGothic-2d"/>
       <use x="449.511719" xlink:href="#IPAexGothic-30"/>
       <use x="512.5" xlink:href="#IPAexGothic-38"/>
      </g>
     </g>
    </g>
    <g id="xtick_5">
     <g id="line2d_5">
      <g>
       <use style="stroke:#000000;stroke-width:0.8;" x="221.823352" xlink:href="#m64767e8236" y="273.312"/>
      </g>
     </g>
     <g id="text_5">
      <!-- 2021-03-15 -->
      <g transform="translate(195.741219 307.033075)rotate(-20)scale(0.1 -0.1)">
       <use xlink:href="#IPAexGothic-32"/>
       <use x="62.988281" xlink:href="#IPAexGothic-30"/>
       <use x="125.976562" xlink:href="#IPAexGothic-32"/>
       <use x="188.964844" xlink:href="#IPAexGothic-31"/>
       <use x="251.953125" xlink:href="#IPAexGothic-2d"/>
       <use x="287.744141" xlink:href="#IPAexGothic-30"/>
       <use x="350.732422" xlink:href="#IPAexGothic-33"/>
       <use x="413.720703" xlink:href="#IPAexGothic-2d"/>
       <use x="449.511719" xlink:href="#IPAexGothic-31"/>
       <use x="512.5" xlink:href="#IPAexGothic-35"/>
      </g>
     </g>
    </g>
    <g id="xtick_6">
     <g id="line2d_6">
      <g>
       <use style="stroke:#000000;stroke-width:0.8;" x="262.550625" xlink:href="#m64767e8236" y="273.312"/>
      </g>
     </g>
     <g id="text_6">
      <!-- 2021-03-22 -->
      <g transform="translate(236.468491 307.033075)rotate(-20)scale(0.1 -0.1)">
       <use xlink:href="#IPAexGothic-32"/>
       <use x="62.988281" xlink:href="#IPAexGothic-30"/>
       <use x="125.976562" xlink:href="#IPAexGothic-32"/>
       <use x="188.964844" xlink:href="#IPAexGothic-31"/>
       <use x="251.953125" xlink:href="#IPAexGothic-2d"/>
       <use x="287.744141" xlink:href="#IPAexGothic-30"/>
       <use x="350.732422" xlink:href="#IPAexGothic-33"/>
       <use x="413.720703" xlink:href="#IPAexGothic-2d"/>
       <use x="449.511719" xlink:href="#IPAexGothic-32"/>
       <use x="512.5" xlink:href="#IPAexGothic-32"/>
      </g>
     </g>
    </g>
    <g id="xtick_7">
     <g id="line2d_7">
      <g>
       <use style="stroke:#000000;stroke-width:0.8;" x="320.732443" xlink:href="#m64767e8236" y="273.312"/>
      </g>
     </g>
     <g id="text_7">
      <!-- 2021-04-01 -->
      <g transform="translate(294.650309 307.033075)rotate(-20)scale(0.1 -0.1)">
       <defs>
        <path d="M 3813 1159 
L 3059 1159 
L 3059 63 
L 2547 63 
L 2547 1159 
L 197 1159 
L 197 1672 
L 2456 4678 
L 3059 4678 
L 3059 1634 
L 3813 1634 
L 3813 1159 
z
M 2578 4109 
L 2559 4109 
Q 2278 3656 2003 3284 
L 759 1634 
L 2547 1634 
L 2547 3144 
Q 2547 3481 2578 4109 
z
" id="IPAexGothic-34" transform="scale(0.015625)"/>
       </defs>
       <use xlink:href="#IPAexGothic-32"/>
       <use x="62.988281" xlink:href="#IPAexGothic-30"/>
       <use x="125.976562" xlink:href="#IPAexGothic-32"/>
       <use x="188.964844" xlink:href="#IPAexGothic-31"/>
       <use x="251.953125" xlink:href="#IPAexGothic-2d"/>
       <use x="287.744141" xlink:href="#IPAexGothic-30"/>
       <use x="350.732422" xlink:href="#IPAexGothic-34"/>
       <use x="413.720703" xlink:href="#IPAexGothic-2d"/>
       <use x="449.511719" xlink:href="#IPAexGothic-30"/>
       <use x="512.5" xlink:href="#IPAexGothic-31"/>
      </g>
     </g>
    </g>
    <g id="xtick_8">
     <g id="line2d_8">
      <g>
       <use style="stroke:#000000;stroke-width:0.8;" x="361.459716" xlink:href="#m64767e8236" y="273.312"/>
      </g>
     </g>
     <g id="text_8">
      <!-- 2021-04-08 -->
      <g transform="translate(335.377582 307.033075)rotate(-20)scale(0.1 -0.1)">
       <use xlink:href="#IPAexGothic-32"/>
       <use x="62.988281" xlink:href="#IPAexGothic-30"/>
       <use x="125.976562" xlink:href="#IPAexGothic-32"/>
       <use x="188.964844" xlink:href="#IPAexGothic-31"/>
       <use x="251.953125" xlink:href="#IPAexGothic-2d"/>
       <use x="287.744141" xlink:href="#IPAexGothic-30"/>
       <use x="350.732422" xlink:href="#IPAexGothic-34"/>
       <use x="413.720703" xlink:href="#IPAexGothic-2d"/>
       <use x="449.511719" xlink:href="#IPAexGothic-30"/>
       <use x="512.5" xlink:href="#IPAexGothic-38"/>
      </g>
     </g>
    </g>
    <g id="xtick_9">
     <g id="line2d_9">
      <g>
       <use style="stroke:#000000;stroke-width:0.8;" x="402.186989" xlink:href="#m64767e8236" y="273.312"/>
      </g>
     </g>
     <g id="text_9">
      <!-- 2021-04-15 -->
      <g transform="translate(376.104855 307.033075)rotate(-20)scale(0.1 -0.1)">
       <use xlink:href="#IPAexGothic-32"/>
       <use x="62.988281" xlink:href="#IPAexGothic-30"/>
       <use x="125.976562" xlink:href="#IPAexGothic-32"/>
       <use x="188.964844" xlink:href="#IPAexGothic-31"/>
       <use x="251.953125" xlink:href="#IPAexGothic-2d"/>
       <use x="287.744141" xlink:href="#IPAexGothic-30"/>
       <use x="350.732422" xlink:href="#IPAexGothic-34"/>
       <use x="413.720703" xlink:href="#IPAexGothic-2d"/>
       <use x="449.511719" xlink:href="#IPAexGothic-31"/>
       <use x="512.5" xlink:href="#IPAexGothic-35"/>
      </g>
     </g>
    </g>
   </g>
   <g id="matplotlib.axis_2">
    <g id="ytick_1">
     <g id="line2d_10">
      <defs>
       <path d="M 0 0 
L -3.5 0 
" id="m9de2249627" style="stroke:#000000;stroke-width:0.8;"/>
      </defs>
      <g>
       <use style="stroke:#000000;stroke-width:0.8;" x="51.990625" xlink:href="#m9de2249627" y="273.312"/>
      </g>
     </g>
     <g id="text_10">
      <!-- 0 -->
      <g transform="translate(38.692188 277.057312)scale(0.1 -0.1)">
       <use xlink:href="#IPAexGothic-30"/>
      </g>
     </g>
    </g>
    <g id="ytick_2">
     <g id="line2d_11">
      <g>
       <use style="stroke:#000000;stroke-width:0.8;" x="51.990625" xlink:href="#m9de2249627" y="222.580999"/>
      </g>
     </g>
     <g id="text_11">
      <!-- 20000 -->
      <g transform="translate(13.498438 226.326312)scale(0.1 -0.1)">
       <use xlink:href="#IPAexGothic-32"/>
       <use x="62.988281" xlink:href="#IPAexGothic-30"/>
       <use x="125.976562" xlink:href="#IPAexGothic-30"/>
       <use x="188.964844" xlink:href="#IPAexGothic-30"/>
       <use x="251.953125" xlink:href="#IPAexGothic-30"/>
      </g>
     </g>
    </g>
    <g id="ytick_3">
     <g id="line2d_12">
      <g>
       <use style="stroke:#000000;stroke-width:0.8;" x="51.990625" xlink:href="#m9de2249627" y="171.849999"/>
      </g>
     </g>
     <g id="text_12">
      <!-- 40000 -->
      <g transform="translate(13.498438 175.595311)scale(0.1 -0.1)">
       <use xlink:href="#IPAexGothic-34"/>
       <use x="62.988281" xlink:href="#IPAexGothic-30"/>
       <use x="125.976562" xlink:href="#IPAexGothic-30"/>
       <use x="188.964844" xlink:href="#IPAexGothic-30"/>
       <use x="251.953125" xlink:href="#IPAexGothic-30"/>
      </g>
     </g>
    </g>
    <g id="ytick_4">
     <g id="line2d_13">
      <g>
       <use style="stroke:#000000;stroke-width:0.8;" x="51.990625" xlink:href="#m9de2249627" y="121.118998"/>
      </g>
     </g>
     <g id="text_13">
      <!-- 60000 -->
      <g transform="translate(13.498438 124.864311)scale(0.1 -0.1)">
       <defs>
        <path d="M 1056 2328 
Q 1509 2981 2234 2981 
Q 2906 2981 3316 2513 
Q 3675 2106 3675 1522 
Q 3675 884 3272 434 
Q 2853 -31 2178 -31 
Q 1375 -31 922 581 
Q 481 1178 481 2228 
Q 481 3425 1013 4109 
Q 1494 4725 2272 4725 
Q 3191 4725 3609 4025 
L 3150 3775 
Q 2894 4266 2300 4266 
Q 1119 4266 1031 2328 
L 1056 2328 
z
M 2141 2547 
Q 1684 2547 1384 2206 
Q 1116 1900 1116 1541 
Q 1116 1156 1353 844 
Q 1672 428 2159 428 
Q 2669 428 2941 844 
Q 3125 1128 3125 1503 
Q 3125 1944 2881 2228 
Q 2600 2547 2141 2547 
z
" id="IPAexGothic-36" transform="scale(0.015625)"/>
       </defs>
       <use xlink:href="#IPAexGothic-36"/>
       <use x="62.988281" xlink:href="#IPAexGothic-30"/>
       <use x="125.976562" xlink:href="#IPAexGothic-30"/>
       <use x="188.964844" xlink:href="#IPAexGothic-30"/>
       <use x="251.953125" xlink:href="#IPAexGothic-30"/>
      </g>
     </g>
    </g>
    <g id="ytick_5">
     <g id="line2d_14">
      <g>
       <use style="stroke:#000000;stroke-width:0.8;" x="51.990625" xlink:href="#m9de2249627" y="70.387998"/>
      </g>
     </g>
     <g id="text_14">
      <!-- 80000 -->
      <g transform="translate(13.498438 74.13331)scale(0.1 -0.1)">
       <use xlink:href="#IPAexGothic-38"/>
       <use x="62.988281" xlink:href="#IPAexGothic-30"/>
       <use x="125.976562" xlink:href="#IPAexGothic-30"/>
       <use x="188.964844" xlink:href="#IPAexGothic-30"/>
       <use x="251.953125" xlink:href="#IPAexGothic-30"/>
      </g>
     </g>
    </g>
    <g id="ytick_6">
     <g id="line2d_15">
      <g>
       <use style="stroke:#000000;stroke-width:0.8;" x="51.990625" xlink:href="#m9de2249627" y="19.656997"/>
      </g>
     </g>
     <g id="text_15">
      <!-- 100000 -->
      <g transform="translate(7.2 23.40231)scale(0.1 -0.1)">
       <use xlink:href="#IPAexGothic-31"/>
       <use x="62.988281" xlink:href="#IPAexGothic-30"/>
       <use x="125.976562" xlink:href="#IPAexGothic-30"/>
       <use x="188.964844" xlink:href="#IPAexGothic-30"/>
       <use x="251.953125" xlink:href="#IPAexGothic-30"/>
       <use x="314.941406" xlink:href="#IPAexGothic-30"/>
      </g>
     </g>
    </g>
   </g>
   <g id="patch_159">
    <path d="M 51.990625 273.312 
L 51.990625 7.2 
" style="fill:none;stroke:#000000;stroke-linecap:square;stroke-linejoin:miter;stroke-width:0.8;"/>
   </g>
   <g id="patch_160">
    <path d="M 409.110625 273.312 
L 409.110625 7.2 
" style="fill:none;stroke:#000000;stroke-linecap:square;stroke-linejoin:miter;stroke-width:0.8;"/>
   </g>
   <g id="patch_161">
    <path d="M 51.990625 273.312 
L 409.110625 273.312 
" style="fill:none;stroke:#000000;stroke-linecap:square;stroke-linejoin:miter;stroke-width:0.8;"/>
   </g>
   <g id="patch_162">
    <path d="M 51.990625 7.2 
L 409.110625 7.2 
" style="fill:none;stroke:#000000;stroke-linecap:square;stroke-linejoin:miter;stroke-width:0.8;"/>
   </g>
   <g id="legend_1">
    <g id="patch_163">
     <path d="M 58.990625 72.7625 
L 167.289062 72.7625 
Q 169.289062 72.7625 169.289062 70.7625 
L 169.289062 14.2 
Q 169.289062 12.2 167.289062 12.2 
L 58.990625 12.2 
Q 56.990625 12.2 56.990625 14.2 
L 56.990625 70.7625 
Q 56.990625 72.7625 58.990625 72.7625 
z
" style="fill:#ffffff;opacity:0.8;stroke:#cccccc;stroke-linejoin:miter;"/>
    </g>
    <g id="patch_164">
     <path d="M 60.990625 23.690625 
L 80.990625 23.690625 
L 80.990625 16.690625 
L 60.990625 16.690625 
z
" style="fill:#1f77b4;"/>
    </g>
    <g id="text_16">
     <!-- 医療従事者1回目 -->
     <g transform="translate(88.990625 23.690625)scale(0.1 -0.1)">
      <defs>
       <path d="M 3666 3463 
L 3666 2675 
L 5613 2675 
L 5613 2291 
L 3634 2291 
Q 3628 2213 3588 2059 
Q 4456 1641 5425 972 
L 5088 575 
Q 4375 1169 3469 1697 
Q 3094 878 1863 416 
L 1594 800 
Q 3013 1241 3188 2291 
L 1434 2291 
L 1434 2675 
L 3213 2675 
L 3213 3463 
L 2491 3463 
Q 2244 3041 1972 2759 
L 1656 3041 
Q 2163 3584 2419 4409 
L 2847 4288 
Q 2781 4078 2681 3847 
L 5034 3847 
L 5034 3463 
L 3666 3463 
z
M 1172 4513 
L 1172 281 
L 5922 281 
L 5922 -122 
L 1172 -122 
L 1172 -447 
L 691 -447 
L 691 4922 
L 5759 4922 
L 5759 4513 
L 1172 4513 
z
" id="IPAexGothic-533b" transform="scale(0.015625)"/>
       <path d="M 5141 2328 
L 5141 1056 
L 3994 1056 
L 3994 -50 
Q 3994 -278 3897 -363 
Q 3816 -447 3534 -447 
Q 3169 -447 2944 -403 
L 2844 19 
Q 3175 -50 3406 -50 
Q 3578 -50 3578 122 
L 3578 1056 
L 2375 1056 
L 2375 2150 
Q 2119 1903 1813 1694 
L 1606 1931 
Q 1559 500 844 -494 
L 488 -166 
Q 959 478 1081 1075 
Q 1141 1319 1172 1822 
L 1119 1784 
Q 847 1563 422 1313 
L 206 1709 
Q 709 1938 1184 2272 
L 1184 2388 
L 1184 4709 
L 3334 4709 
L 3334 5306 
L 3803 5306 
L 3803 4709 
L 6075 4709 
L 6075 4331 
L 1619 4331 
L 1619 2594 
Q 1619 2194 1613 2059 
Q 1969 2263 2344 2638 
Q 2044 2897 1791 3059 
L 2075 3328 
Q 2306 3163 2588 2894 
Q 2822 3166 3034 3513 
L 1716 3513 
L 1716 3878 
L 3231 3878 
Q 3331 4084 3400 4288 
L 3809 4159 
Q 3747 4013 3681 3878 
L 5916 3878 
L 5916 3513 
L 4469 3513 
Q 4716 3184 5013 2919 
Q 5297 3113 5538 3409 
L 5891 3138 
Q 5647 2903 5306 2675 
Q 5694 2400 6166 2175 
L 5903 1797 
Q 5475 2059 5141 2328 
z
M 4744 2522 
L 2772 2522 
L 2772 2138 
L 4744 2138 
L 4744 2522 
z
M 3034 2869 
L 4556 2869 
Q 4272 3172 4031 3513 
L 3481 3513 
Q 3294 3191 3034 2869 
z
M 2772 1409 
L 4744 1409 
L 4744 1797 
L 2772 1797 
L 2772 1409 
z
M 5703 -250 
Q 5116 300 4463 703 
L 4794 953 
Q 5438 584 6050 116 
L 5703 -250 
z
M 675 2644 
Q 519 3363 328 3853 
L 719 4000 
Q 938 3494 1084 2816 
L 675 2644 
z
M 1506 -25 
Q 2128 391 2528 922 
L 2888 703 
Q 2466 113 1831 -347 
L 1506 -25 
z
" id="IPAexGothic-7642" transform="scale(0.015625)"/>
       <path d="M 3797 3431 
L 2191 3431 
L 2191 3834 
L 4244 3834 
Q 4563 4522 4769 5244 
L 5272 5094 
Q 4994 4369 4691 3834 
L 5894 3834 
L 5894 3431 
L 4250 3431 
L 4250 2266 
L 5656 2266 
L 5656 1856 
L 4250 1856 
L 4250 275 
Q 4725 156 5472 156 
Q 5716 156 6106 172 
Q 5969 -109 5925 -306 
Q 5716 -313 5478 -313 
Q 4216 -313 3638 47 
Q 3116 366 2856 966 
Q 2600 88 2138 -494 
L 1825 -122 
Q 2531 806 2675 2809 
L 3119 2734 
Q 3072 1991 2972 1478 
Q 3231 766 3797 447 
L 3797 3431 
z
M 1588 2791 
L 1588 -447 
L 1147 -447 
L 1147 2216 
Q 847 1875 544 1613 
L 244 1953 
Q 1231 2825 1703 3834 
L 2066 3609 
Q 1866 3200 1588 2791 
z
M 288 3716 
Q 1213 4372 1663 5209 
L 2072 4991 
Q 1459 4003 588 3372 
L 288 3716 
z
M 3291 3950 
Q 3069 4597 2778 4978 
L 3200 5178 
Q 3503 4734 3731 4141 
L 3291 3950 
z
" id="IPAexGothic-5f93" transform="scale(0.015625)"/>
       <path d="M 2950 3922 
L 2950 4294 
L 478 4294 
L 478 4659 
L 2950 4659 
L 2950 5313 
L 3403 5313 
L 3403 4659 
L 5919 4659 
L 5919 4294 
L 3403 4294 
L 3403 3922 
L 5234 3922 
L 5234 2822 
L 3403 2822 
L 3403 2450 
L 5325 2450 
L 5325 1759 
L 6081 1759 
L 6081 1381 
L 5325 1381 
L 5325 397 
L 4881 397 
L 4881 672 
L 3403 672 
L 3403 6 
Q 3403 -263 3269 -356 
Q 3150 -441 2841 -441 
Q 2497 -441 2116 -403 
L 2041 56 
Q 2450 -25 2731 -25 
Q 2950 -25 2950 159 
L 2950 672 
L 844 672 
L 844 1025 
L 2950 1025 
L 2950 1394 
L 319 1394 
L 319 1747 
L 2950 1747 
L 2950 2097 
L 838 2097 
L 838 2450 
L 2950 2450 
L 2950 2822 
L 1156 2822 
L 1156 3922 
L 2950 3922 
z
M 2950 3591 
L 1584 3591 
L 1584 3163 
L 2950 3163 
L 2950 3591 
z
M 3403 3591 
L 3403 3163 
L 4806 3163 
L 4806 3591 
L 3403 3591 
z
M 3403 1025 
L 4881 1025 
L 4881 1394 
L 3403 1394 
L 3403 1025 
z
M 3403 1747 
L 4881 1747 
L 4881 2097 
L 3403 2097 
L 3403 1747 
z
" id="IPAexGothic-4e8b" transform="scale(0.015625)"/>
       <path d="M 4328 4153 
Q 4694 4550 5038 5025 
L 5453 4794 
Q 4963 4138 4128 3372 
L 6041 3372 
L 6041 2963 
L 3656 2963 
Q 3319 2703 2778 2338 
L 5088 2338 
L 5088 -447 
L 4634 -447 
L 4634 -159 
L 2213 -159 
L 2213 -447 
L 1759 -447 
L 1759 1709 
Q 1141 1359 478 1075 
L 231 1472 
Q 1663 2022 2938 2913 
L 344 2913 
L 344 3322 
L 2703 3322 
L 2703 4109 
L 1125 4109 
L 1125 4500 
L 2741 4500 
L 2741 5313 
L 3194 5313 
L 3194 4500 
L 4328 4500 
L 4328 4153 
z
M 4281 4109 
L 3156 4109 
L 3156 3322 
L 3463 3322 
Q 3956 3747 4281 4109 
z
M 2213 1953 
L 2213 1306 
L 4634 1306 
L 4634 1953 
L 2213 1953 
z
M 2213 934 
L 2213 231 
L 4634 231 
L 4634 934 
L 2213 934 
z
" id="IPAexGothic-8005" transform="scale(0.015625)"/>
       <path d="M 4519 3647 
L 4519 1178 
L 1875 1178 
L 1875 3647 
L 4519 3647 
z
M 2328 3250 
L 2328 1575 
L 4066 1575 
L 4066 3250 
L 2328 3250 
z
M 5722 4891 
L 5722 -456 
L 5247 -456 
L 5247 -103 
L 1147 -103 
L 1147 -456 
L 672 -456 
L 672 4891 
L 5722 4891 
z
M 1147 4475 
L 1147 313 
L 5247 313 
L 5247 4475 
L 1147 4475 
z
" id="IPAexGothic-56de" transform="scale(0.015625)"/>
       <path d="M 5266 4819 
L 5266 -384 
L 4791 -384 
L 4791 38 
L 1600 38 
L 1600 -384 
L 1125 -384 
L 1125 4819 
L 5266 4819 
z
M 1600 4416 
L 1600 3384 
L 4791 3384 
L 4791 4416 
L 1600 4416 
z
M 1600 2988 
L 1600 1966 
L 4791 1966 
L 4791 2988 
L 1600 2988 
z
M 1600 1563 
L 1600 447 
L 4791 447 
L 4791 1563 
L 1600 1563 
z
" id="IPAexGothic-76ee" transform="scale(0.015625)"/>
      </defs>
      <use xlink:href="#IPAexGothic-533b"/>
      <use x="100" xlink:href="#IPAexGothic-7642"/>
      <use x="200" xlink:href="#IPAexGothic-5f93"/>
      <use x="300" xlink:href="#IPAexGothic-4e8b"/>
      <use x="400" xlink:href="#IPAexGothic-8005"/>
      <use x="500" xlink:href="#IPAexGothic-31"/>
      <use x="562.988281" xlink:href="#IPAexGothic-56de"/>
      <use x="662.988281" xlink:href="#IPAexGothic-76ee"/>
     </g>
    </g>
    <g id="patch_165">
     <path d="M 60.990625 38.08125 
L 80.990625 38.08125 
L 80.990625 31.08125 
L 60.990625 31.08125 
z
" style="fill:#ff7f0e;"/>
    </g>
    <g id="text_17">
     <!-- 医療従事者2回目 -->
     <g transform="translate(88.990625 38.08125)scale(0.1 -0.1)">
      <use xlink:href="#IPAexGothic-533b"/>
      <use x="100" xlink:href="#IPAexGothic-7642"/>
      <use x="200" xlink:href="#IPAexGothic-5f93"/>
      <use x="300" xlink:href="#IPAexGothic-4e8b"/>
      <use x="400" xlink:href="#IPAexGothic-8005"/>
      <use x="500" xlink:href="#IPAexGothic-32"/>
      <use x="562.988281" xlink:href="#IPAexGothic-56de"/>
      <use x="662.988281" xlink:href="#IPAexGothic-76ee"/>
     </g>
    </g>
    <g id="patch_166">
     <path d="M 60.990625 52.471875 
L 80.990625 52.471875 
L 80.990625 45.471875 
L 60.990625 45.471875 
z
" style="fill:#2ca02c;"/>
    </g>
    <g id="text_18">
     <!-- その他1回目 -->
     <g transform="translate(88.990625 52.471875)scale(0.1 -0.1)">
      <defs>
       <path d="M 1503 4575 
Q 2897 4641 4378 4813 
L 4641 4488 
Q 3566 3469 2738 2809 
Q 4478 3072 5516 3200 
L 5581 2741 
Q 4425 2644 3884 2394 
Q 2978 1972 2978 1131 
Q 2978 659 3506 450 
Q 3953 272 4819 269 
L 4838 -250 
Q 3725 -241 3200 44 
Q 2497 431 2497 1113 
Q 2497 1916 3403 2534 
Q 1234 2188 781 2106 
L 691 2559 
Q 809 2575 2072 2747 
Q 3203 3694 3872 4378 
Q 2759 4184 1606 4091 
L 1503 4575 
z
" id="IPAexGothic-305d" transform="scale(0.015625)"/>
       <path d="M 3119 469 
Q 5275 766 5275 2425 
Q 5275 3453 4413 3925 
Q 4041 4116 3547 4159 
Q 3394 2525 2850 1400 
Q 2322 306 1722 306 
Q 1384 306 1084 666 
Q 609 1244 609 2003 
Q 609 3025 1397 3794 
Q 2184 4563 3431 4563 
Q 4306 4563 4928 4122 
Q 5813 3506 5813 2425 
Q 5813 438 3431 6 
L 3119 469 
z
M 3053 4147 
Q 2378 4044 1891 3641 
Q 1097 2981 1097 1991 
Q 1097 1366 1434 978 
Q 1581 813 1719 813 
Q 2022 813 2416 1625 
Q 2909 2638 3053 4147 
z
" id="IPAexGothic-306e" transform="scale(0.015625)"/>
       <path d="M 2888 2881 
L 2888 581 
Q 2888 322 3022 256 
Q 3166 178 4047 178 
Q 4928 178 5184 228 
Q 5419 278 5466 478 
Q 5506 622 5538 1044 
L 5550 1159 
L 6009 1006 
Q 5934 34 5684 -128 
Q 5444 -281 4091 -281 
Q 2938 -281 2672 -153 
Q 2434 -41 2434 300 
L 2434 2747 
L 1794 2553 
L 1691 2988 
L 2434 3200 
L 2434 4825 
L 2888 4825 
L 2888 3328 
L 3644 3547 
L 3644 5247 
L 4097 5247 
L 4097 3675 
L 5300 4013 
L 5563 3834 
L 5563 1875 
Q 5563 1566 5428 1459 
Q 5319 1369 5059 1369 
Q 4844 1369 4438 1403 
L 4366 1850 
Q 4750 1778 4922 1778 
Q 5122 1778 5122 2009 
L 5122 3541 
L 4097 3238 
L 4097 991 
L 3644 991 
L 3644 3103 
L 2888 2881 
z
M 1503 3775 
L 1503 -447 
L 1063 -447 
L 1063 2900 
Q 797 2431 481 2022 
L 219 2419 
Q 1125 3622 1566 5241 
L 1991 5106 
Q 1822 4531 1503 3775 
z
" id="IPAexGothic-4ed6" transform="scale(0.015625)"/>
      </defs>
      <use xlink:href="#IPAexGothic-305d"/>
      <use x="100" xlink:href="#IPAexGothic-306e"/>
      <use x="200" xlink:href="#IPAexGothic-4ed6"/>
      <use x="300" xlink:href="#IPAexGothic-31"/>
      <use x="362.988281" xlink:href="#IPAexGothic-56de"/>
      <use x="462.988281" xlink:href="#IPAexGothic-76ee"/>
     </g>
    </g>
    <g id="patch_167">
     <path d="M 60.990625 66.8625 
L 80.990625 66.8625 
L 80.990625 59.8625 
L 60.990625 59.8625 
z
" style="fill:#d62728;"/>
    </g>
    <g id="text_19">
     <!-- その他2回目 -->
     <g transform="translate(88.990625 66.8625)scale(0.1 -0.1)">
      <use xlink:href="#IPAexGothic-305d"/>
      <use x="100" xlink:href="#IPAexGothic-306e"/>
      <use x="200" xlink:href="#IPAexGothic-4ed6"/>
      <use x="300" xlink:href="#IPAexGothic-32"/>
      <use x="362.988281" xlink:href="#IPAexGothic-56de"/>
      <use x="462.988281" xlink:href="#IPAexGothic-76ee"/>
     </g>
    </g>
   </g>
  </g>
 </g>
 <defs>
  <clipPath id="p0fdfacdbe3">
   <rect height="266.112" width="357.12" x="51.990625" y="7.2"/>
  </clipPath>
 </defs>
</svg>
