<?xml version="1.0" encoding="utf-8" standalone="no"?>
<!DOCTYPE svg PUBLIC "-//W3C//DTD SVG 1.1//EN"
  "http://www.w3.org/Graphics/SVG/1.1/DTD/svg11.dtd">
<svg xmlns:xlink="http://www.w3.org/1999/xlink" width="394.499687pt" height="297.271375pt" viewBox="0 0 394.499687 297.271375" xmlns="http://www.w3.org/2000/svg" version="1.1">
 <metadata>
  <rdf:RDF xmlns:dc="http://purl.org/dc/elements/1.1/" xmlns:cc="http://creativecommons.org/ns#" xmlns:rdf="http://www.w3.org/1999/02/22-rdf-syntax-ns#">
   <cc:Work>
    <dc:type rdf:resource="http://purl.org/dc/dcmitype/StillImage"/>
    <dc:date>2022-08-16T15:55:00.403375</dc:date>
    <dc:format>image/svg+xml</dc:format>
    <dc:creator>
     <cc:Agent>
      <dc:title>Matplotlib v3.5.2, https://matplotlib.org/</dc:title>
     </cc:Agent>
    </dc:creator>
   </cc:Work>
  </rdf:RDF>
 </metadata>
 <defs>
  <style type="text/css">*{stroke-linejoin: round; stroke-linecap: butt}</style>
 </defs>
 <g id="figure_1">
  <g id="patch_1">
   <path d="M 0 297.271375 
L 394.499687 297.271375 
L 394.499687 0 
L 0 0 
z
" style="fill: #ffffff"/>
  </g>
  <g id="axes_1">
   <g id="patch_2">
    <path d="M 30.179688 273.312 
L 387.299688 273.312 
L 387.299688 7.2 
L 30.179688 7.2 
z
" style="fill: #ffffff"/>
   </g>
   <g id="patch_3">
    <path d="M 46.412415 273.312 
L 62.645142 273.312 
L 62.645142 22.835212 
L 46.412415 22.835212 
z
" clip-path="url(#p9ad041c97f)" style="fill: #1f77b4; stroke: #000000; stroke-linejoin: miter"/>
   </g>
   <g id="patch_4">
    <path d="M 62.645142 273.312 
L 78.877869 273.312 
L 78.877869 21.353606 
L 62.645142 21.353606 
z
" clip-path="url(#p9ad041c97f)" style="fill: #1f77b4; stroke: #000000; stroke-linejoin: miter"/>
   </g>
   <g id="patch_5">
    <path d="M 78.877869 273.312 
L 95.110597 273.312 
L 95.110597 22.09692 
L 78.877869 22.09692 
z
" clip-path="url(#p9ad041c97f)" style="fill: #1f77b4; stroke: #000000; stroke-linejoin: miter"/>
   </g>
   <g id="patch_6">
    <path d="M 95.110597 273.312 
L 111.343324 273.312 
L 111.343324 19.877022 
L 95.110597 19.877022 
z
" clip-path="url(#p9ad041c97f)" style="fill: #1f77b4; stroke: #000000; stroke-linejoin: miter"/>
   </g>
   <g id="patch_7">
    <path d="M 111.343324 273.312 
L 127.576051 273.312 
L 127.576051 20.931725 
L 111.343324 20.931725 
z
" clip-path="url(#p9ad041c97f)" style="fill: #1f77b4; stroke: #000000; stroke-linejoin: miter"/>
   </g>
   <g id="patch_8">
    <path d="M 127.576051 273.312 
L 143.808778 273.312 
L 143.808778 23.206869 
L 127.576051 23.206869 
z
" clip-path="url(#p9ad041c97f)" style="fill: #1f77b4; stroke: #000000; stroke-linejoin: miter"/>
   </g>
   <g id="patch_9">
    <path d="M 143.808778 273.312 
L 160.041506 273.312 
L 160.041506 23.131533 
L 143.808778 23.131533 
z
" clip-path="url(#p9ad041c97f)" style="fill: #1f77b4; stroke: #000000; stroke-linejoin: miter"/>
   </g>
   <g id="patch_10">
    <path d="M 160.041506 273.312 
L 176.274233 273.312 
L 176.274233 19.872 
L 160.041506 19.872 
z
" clip-path="url(#p9ad041c97f)" style="fill: #1f77b4; stroke: #000000; stroke-linejoin: miter"/>
   </g>
   <g id="patch_11">
    <path d="M 176.274233 273.312 
L 192.50696 273.312 
L 192.50696 24.211348 
L 176.274233 24.211348 
z
" clip-path="url(#p9ad041c97f)" style="fill: #1f77b4; stroke: #000000; stroke-linejoin: miter"/>
   </g>
   <g id="patch_12">
    <path d="M 192.50696 273.312 
L 208.739688 273.312 
L 208.739688 23.548392 
L 192.50696 23.548392 
z
" clip-path="url(#p9ad041c97f)" style="fill: #1f77b4; stroke: #000000; stroke-linejoin: miter"/>
   </g>
   <g id="patch_13">
    <path d="M 208.739688 273.312 
L 224.972415 273.312 
L 224.972415 21.825711 
L 208.739688 21.825711 
z
" clip-path="url(#p9ad041c97f)" style="fill: #1f77b4; stroke: #000000; stroke-linejoin: miter"/>
   </g>
   <g id="patch_14">
    <path d="M 224.972415 273.312 
L 241.205142 273.312 
L 241.205142 21.825711 
L 224.972415 21.825711 
z
" clip-path="url(#p9ad041c97f)" style="fill: #1f77b4; stroke: #000000; stroke-linejoin: miter"/>
   </g>
   <g id="patch_15">
    <path d="M 241.205142 273.312 
L 257.437869 273.312 
L 257.437869 22.759876 
L 241.205142 22.759876 
z
" clip-path="url(#p9ad041c97f)" style="fill: #1f77b4; stroke: #000000; stroke-linejoin: miter"/>
   </g>
   <g id="patch_16">
    <path d="M 257.437869 273.312 
L 273.670597 273.312 
L 273.670597 22.639339 
L 257.437869 22.639339 
z
" clip-path="url(#p9ad041c97f)" style="fill: #1f77b4; stroke: #000000; stroke-linejoin: miter"/>
   </g>
   <g id="patch_17">
    <path d="M 273.670597 273.312 
L 289.903324 273.312 
L 289.903324 24.487579 
L 273.670597 24.487579 
z
" clip-path="url(#p9ad041c97f)" style="fill: #1f77b4; stroke: #000000; stroke-linejoin: miter"/>
   </g>
   <g id="patch_18">
    <path d="M 289.903324 273.312 
L 306.136051 273.312 
L 306.136051 21.388763 
L 289.903324 21.388763 
z
" clip-path="url(#p9ad041c97f)" style="fill: #1f77b4; stroke: #000000; stroke-linejoin: miter"/>
   </g>
   <g id="patch_19">
    <path d="M 306.136051 273.312 
L 322.368778 273.312 
L 322.368778 22.122032 
L 306.136051 22.122032 
z
" clip-path="url(#p9ad041c97f)" style="fill: #1f77b4; stroke: #000000; stroke-linejoin: miter"/>
   </g>
   <g id="patch_20">
    <path d="M 322.368778 273.312 
L 338.601506 273.312 
L 338.601506 21.559524 
L 322.368778 21.559524 
z
" clip-path="url(#p9ad041c97f)" style="fill: #1f77b4; stroke: #000000; stroke-linejoin: miter"/>
   </g>
   <g id="patch_21">
    <path d="M 338.601506 273.312 
L 354.834233 273.312 
L 354.834233 21.082397 
L 338.601506 21.082397 
z
" clip-path="url(#p9ad041c97f)" style="fill: #1f77b4; stroke: #000000; stroke-linejoin: miter"/>
   </g>
   <g id="patch_22">
    <path d="M 354.834233 273.312 
L 371.06696 273.312 
L 371.06696 23.091354 
L 354.834233 23.091354 
z
" clip-path="url(#p9ad041c97f)" style="fill: #1f77b4; stroke: #000000; stroke-linejoin: miter"/>
   </g>
   <g id="matplotlib.axis_1">
    <g id="xtick_1">
     <g id="line2d_1">
      <defs>
       <path id="m72b9919ba0" d="M 0 0 
L 0 3.5 
" style="stroke: #000000; stroke-width: 0.8"/>
      </defs>
      <g>
       <use xlink:href="#m72b9919ba0" x="46.412358" y="273.312" style="stroke: #000000; stroke-width: 0.8"/>
      </g>
     </g>
     <g id="text_1">
      <!-- 0.0 -->
      <g transform="translate(38.432671 288.021375)scale(0.1 -0.1)">
       <defs>
        <path id="HiraginoSans-W4-30" d="M 2144 -90 
C 2758 -90 3232 141 3565 602 
C 3846 998 4019 1696 4019 2464 
C 4019 3002 3936 3501 3770 3949 
C 3693 4160 3558 4371 3379 4550 
C 3078 4858 2650 5024 2157 5024 
C 1498 5024 986 4742 666 4205 
C 435 3834 288 3142 288 2458 
C 288 1939 371 1434 538 986 
C 614 768 749 563 928 384 
C 1242 70 1651 -90 2144 -90 
z
M 2144 4499 
C 2592 4499 2918 4307 3123 3923 
C 3283 3629 3398 3014 3398 2470 
C 3398 2022 3341 1619 3213 1235 
C 3155 1043 3046 870 2912 730 
C 2726 538 2458 435 2150 435 
C 1734 435 1414 614 1197 973 
C 1024 1261 902 1875 902 2451 
C 902 2906 966 3328 1088 3699 
C 1139 3866 1235 4026 1370 4173 
C 1568 4397 1818 4499 2144 4499 
z
" transform="scale(0.015625)"/>
        <path id="HiraginoSans-W4-2e" d="M 442 723 
L 442 0 
L 1165 0 
L 1165 723 
L 442 723 
z
" transform="scale(0.015625)"/>
       </defs>
       <use xlink:href="#HiraginoSans-W4-30"/>
       <use xlink:href="#HiraginoSans-W4-2e" x="67.299988"/>
       <use xlink:href="#HiraginoSans-W4-30" x="92.299973"/>
      </g>
     </g>
    </g>
    <g id="xtick_2">
     <g id="line2d_2">
      <g>
       <use xlink:href="#m72b9919ba0" x="111.343283" y="273.312" style="stroke: #000000; stroke-width: 0.8"/>
      </g>
     </g>
     <g id="text_2">
      <!-- 0.2 -->
      <g transform="translate(103.363596 288.021375)scale(0.1 -0.1)">
       <defs>
        <path id="HiraginoSans-W4-32" d="M 3078 0 
C 3424 0 3642 -6 3917 -32 
L 3917 589 
C 3693 557 3430 544 3091 544 
L 1114 544 
C 1280 1114 1606 1478 2451 2042 
C 3181 2528 3341 2656 3546 2912 
C 3738 3142 3846 3443 3846 3744 
C 3846 4525 3200 5030 2202 5030 
C 1613 5030 1158 4858 858 4518 
C 640 4269 531 4026 442 3565 
L 1088 3469 
C 1139 3782 1190 3936 1306 4102 
C 1491 4371 1792 4506 2208 4506 
C 2816 4506 3206 4211 3206 3744 
C 3206 3360 2995 3085 2387 2675 
C 1754 2246 1600 2138 1389 1952 
C 979 1594 710 1229 544 806 
C 448 563 429 461 365 -26 
C 576 -6 678 0 1107 0 
L 3078 0 
z
" transform="scale(0.015625)"/>
       </defs>
       <use xlink:href="#HiraginoSans-W4-30"/>
       <use xlink:href="#HiraginoSans-W4-2e" x="67.299988"/>
       <use xlink:href="#HiraginoSans-W4-32" x="92.299973"/>
      </g>
     </g>
    </g>
    <g id="xtick_3">
     <g id="line2d_3">
      <g>
       <use xlink:href="#m72b9919ba0" x="176.274208" y="273.312" style="stroke: #000000; stroke-width: 0.8"/>
      </g>
     </g>
     <g id="text_3">
      <!-- 0.4 -->
      <g transform="translate(168.284365 288.021375)scale(0.1 -0.1)">
       <defs>
        <path id="HiraginoSans-W4-34" d="M 179 1210 
C 403 1229 589 1235 954 1235 
L 2688 1235 
L 2688 710 
C 2688 410 2675 218 2630 0 
L 3309 0 
C 3270 230 3258 390 3258 704 
L 3258 1235 
L 3494 1235 
C 3763 1235 3910 1222 4154 1190 
L 4154 1798 
C 3917 1766 3750 1754 3494 1754 
L 3258 1754 
L 3258 3853 
C 3258 4358 3264 4544 3296 4934 
L 2701 4934 
C 2560 4704 2445 4550 2214 4269 
L 621 2298 
C 467 2099 326 1939 179 1773 
L 179 1210 
z
M 2688 1747 
L 858 1747 
L 2259 3514 
C 2464 3763 2592 3936 2720 4128 
C 2694 3814 2688 3622 2688 3283 
L 2688 1747 
z
" transform="scale(0.015625)"/>
       </defs>
       <use xlink:href="#HiraginoSans-W4-30"/>
       <use xlink:href="#HiraginoSans-W4-2e" x="67.299988"/>
       <use xlink:href="#HiraginoSans-W4-34" x="92.299973"/>
      </g>
     </g>
    </g>
    <g id="xtick_4">
     <g id="line2d_4">
      <g>
       <use xlink:href="#m72b9919ba0" x="241.205134" y="273.312" style="stroke: #000000; stroke-width: 0.8"/>
      </g>
     </g>
     <g id="text_4">
      <!-- 0.6 -->
      <g transform="translate(233.225446 288.021375)scale(0.1 -0.1)">
       <defs>
        <path id="HiraginoSans-W4-36" d="M 3846 3994 
C 3706 4301 3616 4442 3462 4602 
C 3187 4877 2784 5024 2304 5024 
C 1683 5024 1222 4794 864 4307 
C 557 3891 371 3162 371 2355 
C 371 1446 614 704 1043 320 
C 1331 58 1773 -90 2253 -90 
C 3277 -90 3968 589 3968 1587 
C 3968 2586 3334 3213 2323 3213 
C 1894 3213 1568 3104 1274 2854 
C 1133 2739 1062 2656 941 2458 
C 979 3085 1043 3392 1210 3763 
C 1434 4262 1798 4518 2285 4518 
C 2765 4518 3040 4314 3238 3821 
L 3846 3994 
z
M 2266 2714 
C 2950 2714 3366 2285 3366 1574 
C 3366 1325 3309 1088 3206 922 
C 3008 614 2643 422 2234 422 
C 1568 422 1069 915 1069 1574 
C 1069 2234 1574 2714 2266 2714 
z
" transform="scale(0.015625)"/>
       </defs>
       <use xlink:href="#HiraginoSans-W4-30"/>
       <use xlink:href="#HiraginoSans-W4-2e" x="67.299988"/>
       <use xlink:href="#HiraginoSans-W4-36" x="92.299973"/>
      </g>
     </g>
    </g>
    <g id="xtick_5">
     <g id="line2d_5">
      <g>
       <use xlink:href="#m72b9919ba0" x="306.136059" y="273.312" style="stroke: #000000; stroke-width: 0.8"/>
      </g>
     </g>
     <g id="text_5">
      <!-- 0.8 -->
      <g transform="translate(298.156371 288.021375)scale(0.1 -0.1)">
       <defs>
        <path id="HiraginoSans-W4-38" d="M 1446 2586 
C 1203 2547 1056 2490 851 2355 
C 480 2106 294 1754 294 1299 
C 294 397 966 -102 2163 -102 
C 3347 -102 4006 397 4006 1299 
C 4006 1728 3853 2061 3539 2304 
C 3322 2470 3136 2547 2867 2586 
C 3437 2714 3789 3162 3789 3757 
C 3789 4550 3162 5043 2150 5043 
C 1146 5043 512 4544 512 3750 
C 512 3162 877 2701 1446 2586 
z
M 2150 4538 
C 2784 4538 3187 4211 3187 3699 
C 3187 3155 2797 2829 2157 2829 
C 1510 2829 1114 3162 1114 3699 
C 1114 4211 1523 4538 2150 4538 
z
M 2157 2304 
C 2912 2304 3373 1939 3373 1344 
C 3373 749 2925 410 2144 410 
C 1376 410 928 749 928 1338 
C 928 1939 1389 2304 2157 2304 
z
" transform="scale(0.015625)"/>
       </defs>
       <use xlink:href="#HiraginoSans-W4-30"/>
       <use xlink:href="#HiraginoSans-W4-2e" x="67.299988"/>
       <use xlink:href="#HiraginoSans-W4-38" x="92.299973"/>
      </g>
     </g>
    </g>
    <g id="xtick_6">
     <g id="line2d_6">
      <g>
       <use xlink:href="#m72b9919ba0" x="371.066984" y="273.312" style="stroke: #000000; stroke-width: 0.8"/>
      </g>
     </g>
     <g id="text_6">
      <!-- 1.0 -->
      <g transform="translate(363.087296 288.021375)scale(0.1 -0.1)">
       <defs>
        <path id="HiraginoSans-W4-31" d="M 1018 4371 
C 1222 4397 1389 4410 1606 4410 
L 1939 4410 
L 1939 755 
C 1939 454 1926 237 1888 0 
L 2598 0 
C 2560 250 2547 448 2547 755 
L 2547 3904 
C 2547 4256 2566 4582 2605 4966 
C 2387 4941 2278 4934 2035 4934 
L 1581 4934 
C 1325 4934 1197 4941 1018 4966 
L 1018 4371 
z
" transform="scale(0.015625)"/>
       </defs>
       <use xlink:href="#HiraginoSans-W4-31"/>
       <use xlink:href="#HiraginoSans-W4-2e" x="67.299988"/>
       <use xlink:href="#HiraginoSans-W4-30" x="92.299973"/>
      </g>
     </g>
    </g>
   </g>
   <g id="matplotlib.axis_2">
    <g id="ytick_1">
     <g id="line2d_7">
      <defs>
       <path id="mb4eb82de0c" d="M 0 0 
L -3.5 0 
" style="stroke: #000000; stroke-width: 0.8"/>
      </defs>
      <g>
       <use xlink:href="#mb4eb82de0c" x="30.179688" y="273.312" style="stroke: #000000; stroke-width: 0.8"/>
      </g>
     </g>
     <g id="text_7">
      <!-- 0.0 -->
      <g transform="translate(7.220313 277.166687)scale(0.1 -0.1)">
       <use xlink:href="#HiraginoSans-W4-30"/>
       <use xlink:href="#HiraginoSans-W4-2e" x="67.299988"/>
       <use xlink:href="#HiraginoSans-W4-30" x="92.299973"/>
      </g>
     </g>
    </g>
    <g id="ytick_2">
     <g id="line2d_8">
      <g>
       <use xlink:href="#mb4eb82de0c" x="30.179688" y="223.088081" style="stroke: #000000; stroke-width: 0.8"/>
      </g>
     </g>
     <g id="text_8">
      <!-- 0.2 -->
      <g transform="translate(7.220313 226.942769)scale(0.1 -0.1)">
       <use xlink:href="#HiraginoSans-W4-30"/>
       <use xlink:href="#HiraginoSans-W4-2e" x="67.299988"/>
       <use xlink:href="#HiraginoSans-W4-32" x="92.299973"/>
      </g>
     </g>
    </g>
    <g id="ytick_3">
     <g id="line2d_9">
      <g>
       <use xlink:href="#mb4eb82de0c" x="30.179688" y="172.864163" style="stroke: #000000; stroke-width: 0.8"/>
      </g>
     </g>
     <g id="text_9">
      <!-- 0.4 -->
      <g transform="translate(7.2 176.71885)scale(0.1 -0.1)">
       <use xlink:href="#HiraginoSans-W4-30"/>
       <use xlink:href="#HiraginoSans-W4-2e" x="67.299988"/>
       <use xlink:href="#HiraginoSans-W4-34" x="92.299973"/>
      </g>
     </g>
    </g>
    <g id="ytick_4">
     <g id="line2d_10">
      <g>
       <use xlink:href="#mb4eb82de0c" x="30.179688" y="122.640244" style="stroke: #000000; stroke-width: 0.8"/>
      </g>
     </g>
     <g id="text_10">
      <!-- 0.6 -->
      <g transform="translate(7.220313 126.494932)scale(0.1 -0.1)">
       <use xlink:href="#HiraginoSans-W4-30"/>
       <use xlink:href="#HiraginoSans-W4-2e" x="67.299988"/>
       <use xlink:href="#HiraginoSans-W4-36" x="92.299973"/>
      </g>
     </g>
    </g>
    <g id="ytick_5">
     <g id="line2d_11">
      <g>
       <use xlink:href="#mb4eb82de0c" x="30.179688" y="72.416326" style="stroke: #000000; stroke-width: 0.8"/>
      </g>
     </g>
     <g id="text_11">
      <!-- 0.8 -->
      <g transform="translate(7.220313 76.271013)scale(0.1 -0.1)">
       <use xlink:href="#HiraginoSans-W4-30"/>
       <use xlink:href="#HiraginoSans-W4-2e" x="67.299988"/>
       <use xlink:href="#HiraginoSans-W4-38" x="92.299973"/>
      </g>
     </g>
    </g>
    <g id="ytick_6">
     <g id="line2d_12">
      <g>
       <use xlink:href="#mb4eb82de0c" x="30.179688" y="22.192407" style="stroke: #000000; stroke-width: 0.8"/>
      </g>
     </g>
     <g id="text_12">
      <!-- 1.0 -->
      <g transform="translate(7.220313 26.047095)scale(0.1 -0.1)">
       <use xlink:href="#HiraginoSans-W4-31"/>
       <use xlink:href="#HiraginoSans-W4-2e" x="67.299988"/>
       <use xlink:href="#HiraginoSans-W4-30" x="92.299973"/>
      </g>
     </g>
    </g>
   </g>
   <g id="patch_23">
    <path d="M 30.179688 273.312 
L 30.179688 7.2 
" style="fill: none; stroke: #000000; stroke-width: 0.8; stroke-linejoin: miter; stroke-linecap: square"/>
   </g>
   <g id="patch_24">
    <path d="M 387.299688 273.312 
L 387.299688 7.2 
" style="fill: none; stroke: #000000; stroke-width: 0.8; stroke-linejoin: miter; stroke-linecap: square"/>
   </g>
   <g id="patch_25">
    <path d="M 30.179688 273.312 
L 387.299688 273.312 
" style="fill: none; stroke: #000000; stroke-width: 0.8; stroke-linejoin: miter; stroke-linecap: square"/>
   </g>
   <g id="patch_26">
    <path d="M 30.179688 7.2 
L 387.299688 7.2 
" style="fill: none; stroke: #000000; stroke-width: 0.8; stroke-linejoin: miter; stroke-linecap: square"/>
   </g>
  </g>
 </g>
 <defs>
  <clipPath id="p9ad041c97f">
   <rect x="30.179688" y="7.2" width="357.12" height="266.112"/>
  </clipPath>
 </defs>
</svg>
