<?xml version="1.0" encoding="utf-8" standalone="no"?>
<!DOCTYPE svg PUBLIC "-//W3C//DTD SVG 1.1//EN"
  "http://www.w3.org/Graphics/SVG/1.1/DTD/svg11.dtd">
<svg xmlns:xlink="http://www.w3.org/1999/xlink" width="285.348437pt" height="311.18075pt" viewBox="0 0 285.348437 311.18075" xmlns="http://www.w3.org/2000/svg" version="1.1">
 <metadata>
  <rdf:RDF xmlns:dc="http://purl.org/dc/elements/1.1/" xmlns:cc="http://creativecommons.org/ns#" xmlns:rdf="http://www.w3.org/1999/02/22-rdf-syntax-ns#">
   <cc:Work>
    <dc:type rdf:resource="http://purl.org/dc/dcmitype/StillImage"/>
    <dc:date>2022-09-07T10:37:29.582772</dc:date>
    <dc:format>image/svg+xml</dc:format>
    <dc:creator>
     <cc:Agent>
      <dc:title>Matplotlib v3.5.3, https://matplotlib.org/</dc:title>
     </cc:Agent>
    </dc:creator>
   </cc:Work>
  </rdf:RDF>
 </metadata>
 <defs>
  <style type="text/css">*{stroke-linejoin: round; stroke-linecap: butt}</style>
 </defs>
 <g id="figure_1">
  <g id="patch_1">
   <path d="M 0 311.18075 
L 285.348437 311.18075 
L 285.348437 0 
L 0 0 
z
" style="fill: #ffffff"/>
  </g>
  <g id="axes_1">
   <g id="patch_2">
    <path d="M 54.948438 273.312 
L 278.148438 273.312 
L 278.148438 7.2 
L 54.948438 7.2 
z
" style="fill: #ffffff"/>
   </g>
   <g id="PolyCollection_1">
    <defs>
     <path id="mc87b22158b" d="M 92.520858 -58.054846 
L 91.776017 -58.054846 
L 91.621969 -59.525595 
L 91.419551 -60.996344 
L 91.159738 -62.467093 
L 90.833889 -63.937842 
L 90.434435 -65.408592 
L 89.955588 -66.879341 
L 89.393972 -68.35009 
L 88.749094 -69.820839 
L 88.023568 -71.291589 
L 87.223024 -72.762338 
L 86.355723 -74.233087 
L 85.431883 -75.703836 
L 84.462824 -77.174586 
L 83.46003 -78.645335 
L 82.434261 -80.116084 
L 81.394811 -81.586833 
L 80.349013 -83.057583 
L 79.302005 -84.528332 
L 78.256786 -85.999081 
L 77.214496 -87.46983 
L 76.174895 -88.940579 
L 75.13696 -90.411329 
L 74.099565 -91.882078 
L 73.062182 -93.352827 
L 72.025567 -94.823576 
L 70.992379 -96.294326 
L 69.967688 -97.765075 
L 68.959281 -99.235824 
L 67.977701 -100.706573 
L 67.035946 -102.177323 
L 66.148781 -103.648072 
L 65.331686 -105.118821 
L 64.599512 -106.58957 
L 63.964993 -108.060319 
L 63.437347 -109.531069 
L 63.021169 -111.001818 
L 62.715866 -112.472567 
L 62.515754 -113.943316 
L 62.410875 -115.414066 
L 62.388438 -116.884815 
L 62.43468 -118.355564 
L 62.536854 -119.826313 
L 62.685017 -121.297063 
L 62.873326 -122.767812 
L 63.100628 -124.238561 
L 63.370267 -125.70931 
L 63.689141 -127.18006 
L 64.066169 -128.650809 
L 64.510425 -130.121558 
L 65.0292 -131.592307 
L 65.626275 -133.063056 
L 66.300643 -134.533806 
L 67.045846 -136.004555 
L 67.850023 -137.475304 
L 68.69667 -138.946053 
L 69.566052 -140.416803 
L 70.437088 -141.887552 
L 71.289492 -143.358301 
L 72.105896 -144.82905 
L 72.87366 -146.2998 
L 73.586122 -147.770549 
L 74.24308 -149.241298 
L 74.850456 -150.712047 
L 75.419149 -152.182797 
L 75.963291 -153.653546 
L 76.498135 -155.124295 
L 77.037919 -156.595044 
L 77.594011 -158.065793 
L 78.173591 -159.536543 
L 78.779037 -161.007292 
L 79.408049 -162.478041 
L 80.054447 -163.94879 
L 80.709456 -165.41954 
L 81.363268 -166.890289 
L 82.006594 -168.361038 
L 82.632002 -169.831787 
L 83.234834 -171.302537 
L 83.813595 -172.773286 
L 84.369801 -174.244035 
L 84.907329 -175.714784 
L 85.431427 -177.185533 
L 85.947535 -178.656283 
L 86.460145 -180.127032 
L 86.971868 -181.597781 
L 87.482847 -183.06853 
L 87.9906 -184.53928 
L 88.490283 -186.010029 
L 88.975307 -187.480778 
L 89.43818 -188.951527 
L 89.871434 -190.422277 
L 90.268491 -191.893026 
L 90.624338 -193.363775 
L 90.935955 -194.834524 
L 91.202449 -196.305274 
L 91.424942 -197.776023 
L 91.606253 -199.246772 
L 91.75045 -200.717521 
L 91.862367 -202.18827 
L 91.947136 -203.65902 
L 92.349739 -203.65902 
L 92.349739 -203.65902 
L 92.434508 -202.18827 
L 92.546425 -200.717521 
L 92.690622 -199.246772 
L 92.871933 -197.776023 
L 93.094426 -196.305274 
L 93.36092 -194.834524 
L 93.672537 -193.363775 
L 94.028384 -191.893026 
L 94.425441 -190.422277 
L 94.858695 -188.951527 
L 95.321568 -187.480778 
L 95.806592 -186.010029 
L 96.306275 -184.53928 
L 96.814028 -183.06853 
L 97.325007 -181.597781 
L 97.83673 -180.127032 
L 98.34934 -178.656283 
L 98.865448 -177.185533 
L 99.389546 -175.714784 
L 99.927074 -174.244035 
L 100.48328 -172.773286 
L 101.062041 -171.302537 
L 101.664873 -169.831787 
L 102.290281 -168.361038 
L 102.933607 -166.890289 
L 103.587419 -165.41954 
L 104.242428 -163.94879 
L 104.888826 -162.478041 
L 105.517838 -161.007292 
L 106.123284 -159.536543 
L 106.702864 -158.065793 
L 107.258956 -156.595044 
L 107.79874 -155.124295 
L 108.333584 -153.653546 
L 108.877726 -152.182797 
L 109.446419 -150.712047 
L 110.053795 -149.241298 
L 110.710753 -147.770549 
L 111.423215 -146.2998 
L 112.190979 -144.82905 
L 113.007383 -143.358301 
L 113.859787 -141.887552 
L 114.730823 -140.416803 
L 115.600205 -138.946053 
L 116.446852 -137.475304 
L 117.251029 -136.004555 
L 117.996232 -134.533806 
L 118.6706 -133.063056 
L 119.267675 -131.592307 
L 119.78645 -130.121558 
L 120.230706 -128.650809 
L 120.607734 -127.18006 
L 120.926608 -125.70931 
L 121.196247 -124.238561 
L 121.423549 -122.767812 
L 121.611858 -121.297063 
L 121.760021 -119.826313 
L 121.862195 -118.355564 
L 121.908437 -116.884815 
L 121.886 -115.414066 
L 121.781121 -113.943316 
L 121.581009 -112.472567 
L 121.275706 -111.001818 
L 120.859528 -109.531069 
L 120.331882 -108.060319 
L 119.697363 -106.58957 
L 118.965189 -105.118821 
L 118.148094 -103.648072 
L 117.260929 -102.177323 
L 116.319174 -100.706573 
L 115.337594 -99.235824 
L 114.329187 -97.765075 
L 113.304496 -96.294326 
L 112.271308 -94.823576 
L 111.234693 -93.352827 
L 110.19731 -91.882078 
L 109.159915 -90.411329 
L 108.12198 -88.940579 
L 107.082379 -87.46983 
L 106.040089 -85.999081 
L 104.99487 -84.528332 
L 103.947862 -83.057583 
L 102.902064 -81.586833 
L 101.862614 -80.116084 
L 100.836845 -78.645335 
L 99.834051 -77.174586 
L 98.864992 -75.703836 
L 97.941152 -74.233087 
L 97.073851 -72.762338 
L 96.273307 -71.291589 
L 95.547781 -69.820839 
L 94.902903 -68.35009 
L 94.341287 -66.879341 
L 93.86244 -65.408592 
L 93.462986 -63.937842 
L 93.137137 -62.467093 
L 92.877324 -60.996344 
L 92.674906 -59.525595 
L 92.520858 -58.054846 
z
" style="stroke: #3d3d3d"/>
    </defs>
    <g clip-path="url(#p1c95e8b685)">
     <use xlink:href="#mc87b22158b" x="0" y="311.18075" style="fill: #3274a1; fill-opacity: 0.25; stroke: #3d3d3d"/>
    </g>
   </g>
   <g id="PolyCollection_2">
    <defs>
     <path id="m027a10816f" d="M 166.612731 -49.96475 
L 166.484144 -49.96475 
L 166.458781 -51.528157 
L 166.426679 -53.091565 
L 166.387337 -54.654972 
L 166.34067 -56.218379 
L 166.287105 -57.781786 
L 166.227642 -59.345194 
L 166.163829 -60.908601 
L 166.097666 -62.472008 
L 166.03143 -64.035415 
L 165.967431 -65.598823 
L 165.907737 -67.16223 
L 165.853873 -68.725637 
L 165.806529 -70.289045 
L 165.765284 -71.852452 
L 165.728351 -73.415859 
L 165.692367 -74.979266 
L 165.65223 -76.542674 
L 165.601036 -78.106081 
L 165.530162 -79.669488 
L 165.429541 -81.232895 
L 165.288192 -82.796303 
L 165.095014 -84.35971 
L 164.839801 -85.923117 
L 164.5144 -87.486524 
L 164.113842 -89.049932 
L 163.637294 -90.613339 
L 163.088614 -92.176746 
L 162.476391 -93.740154 
L 161.813385 -95.303561 
L 161.115405 -96.866968 
L 160.399748 -98.430375 
L 159.683435 -99.993783 
L 158.981518 -101.55719 
L 158.305738 -103.120597 
L 157.663773 -104.684004 
L 157.059204 -106.247412 
L 156.492215 -107.810819 
L 155.960901 -109.374226 
L 155.462921 -110.937634 
L 154.997199 -112.501041 
L 154.565312 -114.064448 
L 154.172284 -115.627855 
L 153.826603 -117.191263 
L 153.539418 -118.75467 
L 153.323058 -120.318077 
L 153.189133 -121.881484 
L 153.146583 -123.444892 
L 153.200068 -125.008299 
L 153.349007 -126.571706 
L 153.587468 -128.135113 
L 153.904931 -129.698521 
L 154.28776 -131.261928 
L 154.721085 -132.825335 
L 155.190704 -134.388743 
L 155.684645 -135.95215 
L 156.194088 -137.515557 
L 156.713514 -139.078964 
L 157.240114 -140.642372 
L 157.772663 -142.205779 
L 158.310157 -143.769186 
L 158.850543 -145.332593 
L 159.389869 -146.896001 
L 159.921998 -148.459408 
L 160.43898 -150.022815 
L 160.931942 -151.586223 
L 161.392315 -153.14963 
L 161.813113 -154.713037 
L 162.189999 -156.276444 
L 162.521938 -157.839852 
L 162.811313 -159.403259 
L 163.063511 -160.966666 
L 163.286058 -162.530073 
L 163.487494 -164.093481 
L 163.676166 -165.656888 
L 163.859153 -167.220295 
L 164.041479 -168.783702 
L 164.225721 -170.34711 
L 164.412037 -171.910517 
L 164.598579 -173.473924 
L 164.782167 -175.037332 
L 164.959108 -176.600739 
L 165.125976 -178.164146 
L 165.280224 -179.727553 
L 165.420544 -181.290961 
L 165.54693 -182.854368 
L 165.660469 -184.417775 
L 165.76296 -185.981182 
L 165.856443 -187.54459 
L 165.942774 -189.107997 
L 166.023313 -190.671404 
L 166.098773 -192.234812 
L 166.169244 -193.798219 
L 166.234348 -195.361626 
L 166.293459 -196.925033 
L 166.345944 -198.488441 
L 166.391352 -200.051848 
L 166.429541 -201.615255 
L 166.460714 -203.178662 
L 166.485391 -204.74207 
L 166.611484 -204.74207 
L 166.611484 -204.74207 
L 166.636161 -203.178662 
L 166.667334 -201.615255 
L 166.705523 -200.051848 
L 166.750931 -198.488441 
L 166.803416 -196.925033 
L 166.862527 -195.361626 
L 166.927631 -193.798219 
L 166.998102 -192.234812 
L 167.073562 -190.671404 
L 167.154101 -189.107997 
L 167.240432 -187.54459 
L 167.333915 -185.981182 
L 167.436406 -184.417775 
L 167.549945 -182.854368 
L 167.676331 -181.290961 
L 167.816651 -179.727553 
L 167.970899 -178.164146 
L 168.137767 -176.600739 
L 168.314708 -175.037332 
L 168.498296 -173.473924 
L 168.684838 -171.910517 
L 168.871154 -170.34711 
L 169.055396 -168.783702 
L 169.237722 -167.220295 
L 169.420709 -165.656888 
L 169.609381 -164.093481 
L 169.810817 -162.530073 
L 170.033364 -160.966666 
L 170.285562 -159.403259 
L 170.574937 -157.839852 
L 170.906876 -156.276444 
L 171.283762 -154.713037 
L 171.70456 -153.14963 
L 172.164933 -151.586223 
L 172.657895 -150.022815 
L 173.174877 -148.459408 
L 173.707006 -146.896001 
L 174.246332 -145.332593 
L 174.786718 -143.769186 
L 175.324212 -142.205779 
L 175.856761 -140.642372 
L 176.383361 -139.078964 
L 176.902787 -137.515557 
L 177.41223 -135.95215 
L 177.906171 -134.388743 
L 178.37579 -132.825335 
L 178.809115 -131.261928 
L 179.191944 -129.698521 
L 179.509407 -128.135113 
L 179.747868 -126.571706 
L 179.896807 -125.008299 
L 179.950292 -123.444892 
L 179.907742 -121.881484 
L 179.773817 -120.318077 
L 179.557457 -118.75467 
L 179.270272 -117.191263 
L 178.924591 -115.627855 
L 178.531563 -114.064448 
L 178.099676 -112.501041 
L 177.633954 -110.937634 
L 177.135974 -109.374226 
L 176.60466 -107.810819 
L 176.037671 -106.247412 
L 175.433102 -104.684004 
L 174.791137 -103.120597 
L 174.115357 -101.55719 
L 173.41344 -99.993783 
L 172.697127 -98.430375 
L 171.98147 -96.866968 
L 171.28349 -95.303561 
L 170.620484 -93.740154 
L 170.008261 -92.176746 
L 169.459581 -90.613339 
L 168.983033 -89.049932 
L 168.582475 -87.486524 
L 168.257074 -85.923117 
L 168.001861 -84.35971 
L 167.808683 -82.796303 
L 167.667334 -81.232895 
L 167.566713 -79.669488 
L 167.495839 -78.106081 
L 167.444645 -76.542674 
L 167.404508 -74.979266 
L 167.368524 -73.415859 
L 167.331591 -71.852452 
L 167.290346 -70.289045 
L 167.243002 -68.725637 
L 167.189138 -67.16223 
L 167.129444 -65.598823 
L 167.065445 -64.035415 
L 166.999209 -62.472008 
L 166.933046 -60.908601 
L 166.869233 -59.345194 
L 166.80977 -57.781786 
L 166.756205 -56.218379 
L 166.709538 -54.654972 
L 166.670196 -53.091565 
L 166.638094 -51.528157 
L 166.612731 -49.96475 
z
" style="stroke: #3d3d3d"/>
    </defs>
    <g clip-path="url(#p1c95e8b685)">
     <use xlink:href="#m027a10816f" x="0" y="311.18075" style="fill: #e1812c; fill-opacity: 0.25; stroke: #3d3d3d"/>
    </g>
   </g>
   <g id="PolyCollection_3">
    <defs>
     <path id="m608b748e69" d="M 241.056527 -116.977072 
L 240.840348 -116.977072 
L 240.793465 -118.743816 
L 240.730626 -120.51056 
L 240.648097 -122.277304 
L 240.541786 -124.044048 
L 240.407334 -125.810793 
L 240.240232 -127.577537 
L 240.035966 -129.344281 
L 239.790189 -131.111025 
L 239.498923 -132.87777 
L 239.158784 -134.644514 
L 238.767226 -136.411258 
L 238.322775 -138.178002 
L 237.825223 -139.944747 
L 237.27575 -141.711491 
L 236.676922 -143.478235 
L 236.03254 -145.244979 
L 235.347314 -147.011723 
L 234.626384 -148.778468 
L 233.874715 -150.545212 
L 233.096439 -152.311956 
L 232.294258 -154.0787 
L 231.469013 -155.845445 
L 230.619552 -157.612189 
L 229.742991 -159.378933 
L 228.83542 -161.145677 
L 227.893041 -162.912421 
L 226.913608 -164.679166 
L 225.897979 -166.44591 
L 224.851502 -168.212654 
L 223.78495 -169.979398 
L 222.714769 -171.746143 
L 221.662487 -173.512887 
L 220.653328 -175.279631 
L 219.714171 -177.046375 
L 218.871184 -178.81312 
L 218.147474 -180.579864 
L 217.561099 -182.346608 
L 217.12369 -184.113352 
L 216.839786 -185.880096 
L 216.706848 -187.646841 
L 216.715824 -189.413585 
L 216.852061 -191.180329 
L 217.096417 -192.947073 
L 217.42644 -194.713818 
L 217.81757 -196.480562 
L 218.244379 -198.247306 
L 218.681849 -200.01405 
L 219.106693 -201.780794 
L 219.498671 -203.547539 
L 219.841793 -205.314283 
L 220.125295 -207.081027 
L 220.344277 -208.847771 
L 220.49991 -210.614516 
L 220.599205 -212.38126 
L 220.654375 -214.148004 
L 220.68186 -215.914748 
L 220.701122 -217.681492 
L 220.733304 -219.448237 
L 220.799834 -221.214981 
L 220.921046 -222.981725 
L 221.114884 -224.748469 
L 221.395771 -226.515214 
L 221.7737 -228.281958 
L 222.253653 -230.048702 
L 222.835404 -231.815446 
L 223.513745 -233.582191 
L 224.279131 -235.348935 
L 225.11866 -237.115679 
L 226.017274 -238.882423 
L 226.959005 -240.649167 
L 227.928114 -242.415912 
L 228.909953 -244.182656 
L 229.891498 -245.9494 
L 230.861496 -247.716144 
L 231.810325 -249.482889 
L 232.729655 -251.249633 
L 233.612075 -253.016377 
L 234.450807 -254.783121 
L 235.239625 -256.549865 
L 235.972977 -258.31661 
L 236.646308 -260.083354 
L 237.256454 -261.850098 
L 237.802006 -263.616842 
L 238.283524 -265.383587 
L 238.703522 -267.150331 
L 239.066211 -268.917075 
L 239.377041 -270.683819 
L 239.642131 -272.450564 
L 239.867687 -274.217308 
L 240.059516 -275.984052 
L 240.222694 -277.750796 
L 240.361418 -279.51754 
L 240.479029 -281.284285 
L 240.578152 -283.051029 
L 240.66089 -284.817773 
L 240.729035 -286.584517 
L 240.784226 -288.351262 
L 240.828053 -290.118006 
L 240.862096 -291.88475 
L 241.034779 -291.88475 
L 241.034779 -291.88475 
L 241.068822 -290.118006 
L 241.112649 -288.351262 
L 241.16784 -286.584517 
L 241.235985 -284.817773 
L 241.318723 -283.051029 
L 241.417846 -281.284285 
L 241.535457 -279.51754 
L 241.674181 -277.750796 
L 241.837359 -275.984052 
L 242.029188 -274.217308 
L 242.254744 -272.450564 
L 242.519834 -270.683819 
L 242.830664 -268.917075 
L 243.193353 -267.150331 
L 243.613351 -265.383587 
L 244.094869 -263.616842 
L 244.640421 -261.850098 
L 245.250567 -260.083354 
L 245.923898 -258.31661 
L 246.65725 -256.549865 
L 247.446068 -254.783121 
L 248.2848 -253.016377 
L 249.16722 -251.249633 
L 250.08655 -249.482889 
L 251.035379 -247.716144 
L 252.005377 -245.9494 
L 252.986922 -244.182656 
L 253.968761 -242.415912 
L 254.93787 -240.649167 
L 255.879601 -238.882423 
L 256.778215 -237.115679 
L 257.617744 -235.348935 
L 258.38313 -233.582191 
L 259.061471 -231.815446 
L 259.643222 -230.048702 
L 260.123175 -228.281958 
L 260.501104 -226.515214 
L 260.781991 -224.748469 
L 260.975829 -222.981725 
L 261.097041 -221.214981 
L 261.163571 -219.448237 
L 261.195753 -217.681492 
L 261.215015 -215.914748 
L 261.2425 -214.148004 
L 261.29767 -212.38126 
L 261.396965 -210.614516 
L 261.552598 -208.847771 
L 261.77158 -207.081027 
L 262.055082 -205.314283 
L 262.398204 -203.547539 
L 262.790182 -201.780794 
L 263.215026 -200.01405 
L 263.652496 -198.247306 
L 264.079305 -196.480562 
L 264.470435 -194.713818 
L 264.800458 -192.947073 
L 265.044814 -191.180329 
L 265.181051 -189.413585 
L 265.190027 -187.646841 
L 265.057089 -185.880096 
L 264.773185 -184.113352 
L 264.335776 -182.346608 
L 263.749401 -180.579864 
L 263.025691 -178.81312 
L 262.182704 -177.046375 
L 261.243547 -175.279631 
L 260.234388 -173.512887 
L 259.182106 -171.746143 
L 258.111925 -169.979398 
L 257.045373 -168.212654 
L 255.998896 -166.44591 
L 254.983267 -164.679166 
L 254.003834 -162.912421 
L 253.061455 -161.145677 
L 252.153884 -159.378933 
L 251.277323 -157.612189 
L 250.427862 -155.845445 
L 249.602617 -154.0787 
L 248.800436 -152.311956 
L 248.02216 -150.545212 
L 247.270491 -148.778468 
L 246.549561 -147.011723 
L 245.864335 -145.244979 
L 245.219953 -143.478235 
L 244.621125 -141.711491 
L 244.071652 -139.944747 
L 243.5741 -138.178002 
L 243.129649 -136.411258 
L 242.738091 -134.644514 
L 242.397952 -132.87777 
L 242.106686 -131.111025 
L 241.860909 -129.344281 
L 241.656643 -127.577537 
L 241.489541 -125.810793 
L 241.355089 -124.044048 
L 241.248778 -122.277304 
L 241.166249 -120.51056 
L 241.10341 -118.743816 
L 241.056527 -116.977072 
z
" style="stroke: #3d3d3d"/>
    </defs>
    <g clip-path="url(#p1c95e8b685)">
     <use xlink:href="#m608b748e69" x="0" y="311.18075" style="fill: #3a923a; fill-opacity: 0.25; stroke: #3d3d3d"/>
    </g>
   </g>
   <g id="PathCollection_1">
    <defs>
     <path id="C0_0_fce4a20a50" d="M 0 2.5 
C 0.663008 2.5 1.29895 2.236584 1.767767 1.767767 
C 2.236584 1.29895 2.5 0.663008 2.5 -0 
C 2.5 -0.663008 2.236584 -1.29895 1.767767 -1.767767 
C 1.29895 -2.236584 0.663008 -2.5 0 -2.5 
C -0.663008 -2.5 -1.29895 -2.236584 -1.767767 -1.767767 
C -2.236584 -1.29895 -2.5 -0.663008 -2.5 0 
C -2.5 0.663008 -2.236584 1.29895 -1.767767 1.767767 
C -1.29895 2.236584 -0.663008 2.5 0 2.5 
z
"/>
    </defs>
    <g clip-path="url(#p1c95e8b685)">
     <use xlink:href="#C0_0_fce4a20a50" x="97.407652" y="183.82734" style="fill: #3274a1"/>
    </g>
    <g clip-path="url(#p1c95e8b685)">
     <use xlink:href="#C0_0_fce4a20a50" x="103.931479" y="181.024522" style="fill: #3274a1"/>
    </g>
    <g clip-path="url(#p1c95e8b685)">
     <use xlink:href="#C0_0_fce4a20a50" x="88.382119" y="211.855522" style="fill: #3274a1"/>
    </g>
    <g clip-path="url(#p1c95e8b685)">
     <use xlink:href="#C0_0_fce4a20a50" x="78.502611" y="200.644249" style="fill: #3274a1"/>
    </g>
    <g clip-path="url(#p1c95e8b685)">
     <use xlink:href="#C0_0_fce4a20a50" x="113.189073" y="189.432977" style="fill: #3274a1"/>
    </g>
    <g clip-path="url(#p1c95e8b685)">
     <use xlink:href="#C0_0_fce4a20a50" x="113.842871" y="190.834386" style="fill: #3274a1"/>
    </g>
    <g clip-path="url(#p1c95e8b685)">
     <use xlink:href="#C0_0_fce4a20a50" x="95.617384" y="131.975203" style="fill: #3274a1"/>
    </g>
    <g clip-path="url(#p1c95e8b685)">
     <use xlink:href="#C0_0_fce4a20a50" x="73.039425" y="199.24284" style="fill: #3274a1"/>
    </g>
    <g clip-path="url(#p1c95e8b685)">
     <use xlink:href="#C0_0_fce4a20a50" x="83.740222" y="155.799158" style="fill: #3274a1"/>
    </g>
    <g clip-path="url(#p1c95e8b685)">
     <use xlink:href="#C0_0_fce4a20a50" x="76.868312" y="209.052704" style="fill: #3274a1"/>
    </g>
    <g clip-path="url(#p1c95e8b685)">
     <use xlink:href="#C0_0_fce4a20a50" x="90.224731" y="186.630158" style="fill: #3274a1"/>
    </g>
    <g clip-path="url(#p1c95e8b685)">
     <use xlink:href="#C0_0_fce4a20a50" x="91.942518" y="214.658341" style="fill: #3274a1"/>
    </g>
    <g clip-path="url(#p1c95e8b685)">
     <use xlink:href="#C0_0_fce4a20a50" x="101.886692" y="181.024522" style="fill: #3274a1"/>
    </g>
    <g clip-path="url(#p1c95e8b685)">
     <use xlink:href="#C0_0_fce4a20a50" x="80.867271" y="147.390703" style="fill: #3274a1"/>
    </g>
    <g clip-path="url(#p1c95e8b685)">
     <use xlink:href="#C0_0_fce4a20a50" x="72.006683" y="186.630158" style="fill: #3274a1"/>
    </g>
    <g clip-path="url(#p1c95e8b685)">
     <use xlink:href="#C0_0_fce4a20a50" x="96.682577" y="200.644249" style="fill: #3274a1"/>
    </g>
    <g clip-path="url(#p1c95e8b685)">
     <use xlink:href="#C0_0_fce4a20a50" x="101.80166" y="141.785067" style="fill: #3274a1"/>
    </g>
    <g clip-path="url(#p1c95e8b685)">
     <use xlink:href="#C0_0_fce4a20a50" x="102.258857" y="207.651295" style="fill: #3274a1"/>
    </g>
    <g clip-path="url(#p1c95e8b685)">
     <use xlink:href="#C0_0_fce4a20a50" x="85.62746" y="158.601976" style="fill: #3274a1"/>
    </g>
    <g clip-path="url(#p1c95e8b685)">
     <use xlink:href="#C0_0_fce4a20a50" x="72.349272" y="203.447068" style="fill: #3274a1"/>
    </g>
    <g clip-path="url(#p1c95e8b685)">
     <use xlink:href="#C0_0_fce4a20a50" x="112.194103" y="192.235795" style="fill: #3274a1"/>
    </g>
    <g clip-path="url(#p1c95e8b685)">
     <use xlink:href="#C0_0_fce4a20a50" x="67.285232" y="181.024522" style="fill: #3274a1"/>
    </g>
    <g clip-path="url(#p1c95e8b685)">
     <use xlink:href="#C0_0_fce4a20a50" x="104.574335" y="172.616067" style="fill: #3274a1"/>
    </g>
    <g clip-path="url(#p1c95e8b685)">
     <use xlink:href="#C0_0_fce4a20a50" x="112.740587" y="181.024522" style="fill: #3274a1"/>
    </g>
    <g clip-path="url(#p1c95e8b685)">
     <use xlink:href="#C0_0_fce4a20a50" x="80.294925" y="181.024522" style="fill: #3274a1"/>
    </g>
    <g clip-path="url(#p1c95e8b685)">
     <use xlink:href="#C0_0_fce4a20a50" x="66.549446" y="195.038613" style="fill: #3274a1"/>
    </g>
    <g clip-path="url(#p1c95e8b685)">
     <use xlink:href="#C0_0_fce4a20a50" x="80.372567" y="214.658341" style="fill: #3274a1"/>
    </g>
    <g clip-path="url(#p1c95e8b685)">
     <use xlink:href="#C0_0_fce4a20a50" x="92.865352" y="217.461159" style="fill: #3274a1"/>
    </g>
    <g clip-path="url(#p1c95e8b685)">
     <use xlink:href="#C0_0_fce4a20a50" x="82.902211" y="172.616067" style="fill: #3274a1"/>
    </g>
    <g clip-path="url(#p1c95e8b685)">
     <use xlink:href="#C0_0_fce4a20a50" x="93.264539" y="211.855522" style="fill: #3274a1"/>
    </g>
    <g clip-path="url(#p1c95e8b685)">
     <use xlink:href="#C0_0_fce4a20a50" x="115.682689" y="175.418886" style="fill: #3274a1"/>
    </g>
    <g clip-path="url(#p1c95e8b685)">
     <use xlink:href="#C0_0_fce4a20a50" x="82.69355" y="209.052704" style="fill: #3274a1"/>
    </g>
    <g clip-path="url(#p1c95e8b685)">
     <use xlink:href="#C0_0_fce4a20a50" x="70.799536" y="175.418886" style="fill: #3274a1"/>
    </g>
    <g clip-path="url(#p1c95e8b685)">
     <use xlink:href="#C0_0_fce4a20a50" x="100.34782" y="207.651295" style="fill: #3274a1"/>
    </g>
    <g clip-path="url(#p1c95e8b685)">
     <use xlink:href="#C0_0_fce4a20a50" x="87.846989" y="161.404794" style="fill: #3274a1"/>
    </g>
    <g clip-path="url(#p1c95e8b685)">
     <use xlink:href="#C0_0_fce4a20a50" x="69.137301" y="172.616067" style="fill: #3274a1"/>
    </g>
    <g clip-path="url(#p1c95e8b685)">
     <use xlink:href="#C0_0_fce4a20a50" x="63.574738" y="195.038613" style="fill: #3274a1"/>
    </g>
    <g clip-path="url(#p1c95e8b685)">
     <use xlink:href="#C0_0_fce4a20a50" x="112.282433" y="209.052704" style="fill: #3274a1"/>
    </g>
    <g clip-path="url(#p1c95e8b685)">
     <use xlink:href="#C0_0_fce4a20a50" x="92.644144" y="133.376612" style="fill: #3274a1"/>
    </g>
    <g clip-path="url(#p1c95e8b685)">
     <use xlink:href="#C0_0_fce4a20a50" x="89.52769" y="217.461159" style="fill: #3274a1"/>
    </g>
    <g clip-path="url(#p1c95e8b685)">
     <use xlink:href="#C0_0_fce4a20a50" x="73.278187" y="175.418886" style="fill: #3274a1"/>
    </g>
    <g clip-path="url(#p1c95e8b685)">
     <use xlink:href="#C0_0_fce4a20a50" x="75.524771" y="220.263977" style="fill: #3274a1"/>
    </g>
    <g clip-path="url(#p1c95e8b685)">
     <use xlink:href="#C0_0_fce4a20a50" x="84.846626" y="147.390703" style="fill: #3274a1"/>
    </g>
    <g clip-path="url(#p1c95e8b685)">
     <use xlink:href="#C0_0_fce4a20a50" x="104.001794" y="225.869613" style="fill: #3274a1"/>
    </g>
    <g clip-path="url(#p1c95e8b685)">
     <use xlink:href="#C0_0_fce4a20a50" x="93.018065" y="136.17943" style="fill: #3274a1"/>
    </g>
    <g clip-path="url(#p1c95e8b685)">
     <use xlink:href="#C0_0_fce4a20a50" x="98.279867" y="202.045659" style="fill: #3274a1"/>
    </g>
    <g clip-path="url(#p1c95e8b685)">
     <use xlink:href="#C0_0_fce4a20a50" x="94.164845" y="227.271023" style="fill: #3274a1"/>
    </g>
    <g clip-path="url(#p1c95e8b685)">
     <use xlink:href="#C0_0_fce4a20a50" x="109.120489" y="200.644249" style="fill: #3274a1"/>
    </g>
    <g clip-path="url(#p1c95e8b685)">
     <use xlink:href="#C0_0_fce4a20a50" x="103.312015" y="161.404794" style="fill: #3274a1"/>
    </g>
    <g clip-path="url(#p1c95e8b685)">
     <use xlink:href="#C0_0_fce4a20a50" x="98.052265" y="197.841431" style="fill: #3274a1"/>
    </g>
    <g clip-path="url(#p1c95e8b685)">
     <use xlink:href="#C0_0_fce4a20a50" x="94.340627" y="152.99634" style="fill: #3274a1"/>
    </g>
    <g clip-path="url(#p1c95e8b685)">
     <use xlink:href="#C0_0_fce4a20a50" x="80.448148" y="200.644249" style="fill: #3274a1"/>
    </g>
    <g clip-path="url(#p1c95e8b685)">
     <use xlink:href="#C0_0_fce4a20a50" x="109.09043" y="167.010431" style="fill: #3274a1"/>
    </g>
    <g clip-path="url(#p1c95e8b685)">
     <use xlink:href="#C0_0_fce4a20a50" x="94.060015" y="231.47525" style="fill: #3274a1"/>
    </g>
    <g clip-path="url(#p1c95e8b685)">
     <use xlink:href="#C0_0_fce4a20a50" x="104.651924" y="186.630158" style="fill: #3274a1"/>
    </g>
    <g clip-path="url(#p1c95e8b685)">
     <use xlink:href="#C0_0_fce4a20a50" x="84.686084" y="195.038613" style="fill: #3274a1"/>
    </g>
    <g clip-path="url(#p1c95e8b685)">
     <use xlink:href="#C0_0_fce4a20a50" x="69.787972" y="181.024522" style="fill: #3274a1"/>
    </g>
    <g clip-path="url(#p1c95e8b685)">
     <use xlink:href="#C0_0_fce4a20a50" x="97.963609" y="234.278068" style="fill: #3274a1"/>
    </g>
    <g clip-path="url(#p1c95e8b685)">
     <use xlink:href="#C0_0_fce4a20a50" x="79.15939" y="183.82734" style="fill: #3274a1"/>
    </g>
    <g clip-path="url(#p1c95e8b685)">
     <use xlink:href="#C0_0_fce4a20a50" x="107.760577" y="217.461159" style="fill: #3274a1"/>
    </g>
    <g clip-path="url(#p1c95e8b685)">
     <use xlink:href="#C0_0_fce4a20a50" x="93.088544" y="147.390703" style="fill: #3274a1"/>
    </g>
    <g clip-path="url(#p1c95e8b685)">
     <use xlink:href="#C0_0_fce4a20a50" x="93.184408" y="192.235795" style="fill: #3274a1"/>
    </g>
    <g clip-path="url(#p1c95e8b685)">
     <use xlink:href="#C0_0_fce4a20a50" x="92.627092" y="167.010431" style="fill: #3274a1"/>
    </g>
    <g clip-path="url(#p1c95e8b685)">
     <use xlink:href="#C0_0_fce4a20a50" x="88.922142" y="234.278068" style="fill: #3274a1"/>
    </g>
    <g clip-path="url(#p1c95e8b685)">
     <use xlink:href="#C0_0_fce4a20a50" x="94.259317" y="172.616067" style="fill: #3274a1"/>
    </g>
    <g clip-path="url(#p1c95e8b685)">
     <use xlink:href="#C0_0_fce4a20a50" x="117.196133" y="206.249886" style="fill: #3274a1"/>
    </g>
    <g clip-path="url(#p1c95e8b685)">
     <use xlink:href="#C0_0_fce4a20a50" x="103.165055" y="164.207613" style="fill: #3274a1"/>
    </g>
    <g clip-path="url(#p1c95e8b685)">
     <use xlink:href="#C0_0_fce4a20a50" x="86.844205" y="223.066795" style="fill: #3274a1"/>
    </g>
    <g clip-path="url(#p1c95e8b685)">
     <use xlink:href="#C0_0_fce4a20a50" x="91.34079" y="144.587885" style="fill: #3274a1"/>
    </g>
    <g clip-path="url(#p1c95e8b685)">
     <use xlink:href="#C0_0_fce4a20a50" x="121.011252" y="192.235795" style="fill: #3274a1"/>
    </g>
    <g clip-path="url(#p1c95e8b685)">
     <use xlink:href="#C0_0_fce4a20a50" x="72.318947" y="175.418886" style="fill: #3274a1"/>
    </g>
    <g clip-path="url(#p1c95e8b685)">
     <use xlink:href="#C0_0_fce4a20a50" x="72.337988" y="195.038613" style="fill: #3274a1"/>
    </g>
    <g clip-path="url(#p1c95e8b685)">
     <use xlink:href="#C0_0_fce4a20a50" x="94.530017" y="161.404794" style="fill: #3274a1"/>
    </g>
    <g clip-path="url(#p1c95e8b685)">
     <use xlink:href="#C0_0_fce4a20a50" x="63.637812" y="186.630158" style="fill: #3274a1"/>
    </g>
    <g clip-path="url(#p1c95e8b685)">
     <use xlink:href="#C0_0_fce4a20a50" x="98.280398" y="155.799158" style="fill: #3274a1"/>
    </g>
    <g clip-path="url(#p1c95e8b685)">
     <use xlink:href="#C0_0_fce4a20a50" x="80.499237" y="186.630158" style="fill: #3274a1"/>
    </g>
    <g clip-path="url(#p1c95e8b685)">
     <use xlink:href="#C0_0_fce4a20a50" x="70.835798" y="175.418886" style="fill: #3274a1"/>
    </g>
    <g clip-path="url(#p1c95e8b685)">
     <use xlink:href="#C0_0_fce4a20a50" x="96.657031" y="195.038613" style="fill: #3274a1"/>
    </g>
    <g clip-path="url(#p1c95e8b685)">
     <use xlink:href="#C0_0_fce4a20a50" x="74.029579" y="169.813249" style="fill: #3274a1"/>
    </g>
    <g clip-path="url(#p1c95e8b685)">
     <use xlink:href="#C0_0_fce4a20a50" x="71.300482" y="214.658341" style="fill: #3274a1"/>
    </g>
    <g clip-path="url(#p1c95e8b685)">
     <use xlink:href="#C0_0_fce4a20a50" x="91.56515" y="130.573794" style="fill: #3274a1"/>
    </g>
    <g clip-path="url(#p1c95e8b685)">
     <use xlink:href="#C0_0_fce4a20a50" x="107.340833" y="181.024522" style="fill: #3274a1"/>
    </g>
    <g clip-path="url(#p1c95e8b685)">
     <use xlink:href="#C0_0_fce4a20a50" x="93.467096" y="158.601976" style="fill: #3274a1"/>
    </g>
    <g clip-path="url(#p1c95e8b685)">
     <use xlink:href="#C0_0_fce4a20a50" x="65.813798" y="206.249886" style="fill: #3274a1"/>
    </g>
    <g clip-path="url(#p1c95e8b685)">
     <use xlink:href="#C0_0_fce4a20a50" x="120.104542" y="195.038613" style="fill: #3274a1"/>
    </g>
    <g clip-path="url(#p1c95e8b685)">
     <use xlink:href="#C0_0_fce4a20a50" x="87.387284" y="181.024522" style="fill: #3274a1"/>
    </g>
    <g clip-path="url(#p1c95e8b685)">
     <use xlink:href="#C0_0_fce4a20a50" x="101.771208" y="197.841431" style="fill: #3274a1"/>
    </g>
    <g clip-path="url(#p1c95e8b685)">
     <use xlink:href="#C0_0_fce4a20a50" x="110.044121" y="172.616067" style="fill: #3274a1"/>
    </g>
    <g clip-path="url(#p1c95e8b685)">
     <use xlink:href="#C0_0_fce4a20a50" x="74.938886" y="192.235795" style="fill: #3274a1"/>
    </g>
    <g clip-path="url(#p1c95e8b685)">
     <use xlink:href="#C0_0_fce4a20a50" x="107.774738" y="195.038613" style="fill: #3274a1"/>
    </g>
    <g clip-path="url(#p1c95e8b685)">
     <use xlink:href="#C0_0_fce4a20a50" x="82.429359" y="152.99634" style="fill: #3274a1"/>
    </g>
    <g clip-path="url(#p1c95e8b685)">
     <use xlink:href="#C0_0_fce4a20a50" x="108.064037" y="203.447068" style="fill: #3274a1"/>
    </g>
    <g clip-path="url(#p1c95e8b685)">
     <use xlink:href="#C0_0_fce4a20a50" x="89.630586" y="144.587885" style="fill: #3274a1"/>
    </g>
    <g clip-path="url(#p1c95e8b685)">
     <use xlink:href="#C0_0_fce4a20a50" x="105.240336" y="209.052704" style="fill: #3274a1"/>
    </g>
    <g clip-path="url(#p1c95e8b685)">
     <use xlink:href="#C0_0_fce4a20a50" x="98.31208" y="152.99634" style="fill: #3274a1"/>
    </g>
    <g clip-path="url(#p1c95e8b685)">
     <use xlink:href="#C0_0_fce4a20a50" x="65.297677" y="186.630158" style="fill: #3274a1"/>
    </g>
    <g clip-path="url(#p1c95e8b685)">
     <use xlink:href="#C0_0_fce4a20a50" x="88.08819" y="150.193522" style="fill: #3274a1"/>
    </g>
    <g clip-path="url(#p1c95e8b685)">
     <use xlink:href="#C0_0_fce4a20a50" x="100.199403" y="231.47525" style="fill: #3274a1"/>
    </g>
    <g clip-path="url(#p1c95e8b685)">
     <use xlink:href="#C0_0_fce4a20a50" x="79.127592" y="164.207613" style="fill: #3274a1"/>
    </g>
    <g clip-path="url(#p1c95e8b685)">
     <use xlink:href="#C0_0_fce4a20a50" x="82.832604" y="185.228749" style="fill: #3274a1"/>
    </g>
    <g clip-path="url(#p1c95e8b685)">
     <use xlink:href="#C0_0_fce4a20a50" x="89.170219" y="129.172385" style="fill: #3274a1"/>
    </g>
    <g clip-path="url(#p1c95e8b685)">
     <use xlink:href="#C0_0_fce4a20a50" x="85.600787" y="221.665386" style="fill: #3274a1"/>
    </g>
    <g clip-path="url(#p1c95e8b685)">
     <use xlink:href="#C0_0_fce4a20a50" x="99.456961" y="155.799158" style="fill: #3274a1"/>
    </g>
    <g clip-path="url(#p1c95e8b685)">
     <use xlink:href="#C0_0_fce4a20a50" x="83.50714" y="230.073841" style="fill: #3274a1"/>
    </g>
    <g clip-path="url(#p1c95e8b685)">
     <use xlink:href="#C0_0_fce4a20a50" x="113.844691" y="195.038613" style="fill: #3274a1"/>
    </g>
    <g clip-path="url(#p1c95e8b685)">
     <use xlink:href="#C0_0_fce4a20a50" x="88.514876" y="183.82734" style="fill: #3274a1"/>
    </g>
    <g clip-path="url(#p1c95e8b685)">
     <use xlink:href="#C0_0_fce4a20a50" x="81.636" y="175.418886" style="fill: #3274a1"/>
    </g>
    <g clip-path="url(#p1c95e8b685)">
     <use xlink:href="#C0_0_fce4a20a50" x="88.040627" y="216.05975" style="fill: #3274a1"/>
    </g>
    <g clip-path="url(#p1c95e8b685)">
     <use xlink:href="#C0_0_fce4a20a50" x="89.415746" y="126.369567" style="fill: #3274a1"/>
    </g>
    <g clip-path="url(#p1c95e8b685)">
     <use xlink:href="#C0_0_fce4a20a50" x="74.888565" y="179.623113" style="fill: #3274a1"/>
    </g>
    <g clip-path="url(#p1c95e8b685)">
     <use xlink:href="#C0_0_fce4a20a50" x="85.839538" y="136.17943" style="fill: #3274a1"/>
    </g>
    <g clip-path="url(#p1c95e8b685)">
     <use xlink:href="#C0_0_fce4a20a50" x="74.390644" y="214.658341" style="fill: #3274a1"/>
    </g>
    <g clip-path="url(#p1c95e8b685)">
     <use xlink:href="#C0_0_fce4a20a50" x="100.111211" y="154.397749" style="fill: #3274a1"/>
    </g>
    <g clip-path="url(#p1c95e8b685)">
     <use xlink:href="#C0_0_fce4a20a50" x="97.921772" y="175.418886" style="fill: #3274a1"/>
    </g>
    <g clip-path="url(#p1c95e8b685)">
     <use xlink:href="#C0_0_fce4a20a50" x="86.550427" y="165.609022" style="fill: #3274a1"/>
    </g>
    <g clip-path="url(#p1c95e8b685)">
     <use xlink:href="#C0_0_fce4a20a50" x="97.792595" y="231.47525" style="fill: #3274a1"/>
    </g>
    <g clip-path="url(#p1c95e8b685)">
     <use xlink:href="#C0_0_fce4a20a50" x="100.47552" y="182.425931" style="fill: #3274a1"/>
    </g>
    <g clip-path="url(#p1c95e8b685)">
     <use xlink:href="#C0_0_fce4a20a50" x="79.219571" y="206.249886" style="fill: #3274a1"/>
    </g>
    <g clip-path="url(#p1c95e8b685)">
     <use xlink:href="#C0_0_fce4a20a50" x="81.24844" y="207.651295" style="fill: #3274a1"/>
    </g>
    <g clip-path="url(#p1c95e8b685)">
     <use xlink:href="#C0_0_fce4a20a50" x="79.745839" y="217.461159" style="fill: #3274a1"/>
    </g>
    <g clip-path="url(#p1c95e8b685)">
     <use xlink:href="#C0_0_fce4a20a50" x="111.729889" y="197.841431" style="fill: #3274a1"/>
    </g>
    <g clip-path="url(#p1c95e8b685)">
     <use xlink:href="#C0_0_fce4a20a50" x="81.53048" y="200.644249" style="fill: #3274a1"/>
    </g>
    <g clip-path="url(#p1c95e8b685)">
     <use xlink:href="#C0_0_fce4a20a50" x="70.326805" y="176.820295" style="fill: #3274a1"/>
    </g>
    <g clip-path="url(#p1c95e8b685)">
     <use xlink:href="#C0_0_fce4a20a50" x="83.000806" y="223.066795" style="fill: #3274a1"/>
    </g>
    <g clip-path="url(#p1c95e8b685)">
     <use xlink:href="#C0_0_fce4a20a50" x="74.15228" y="169.813249" style="fill: #3274a1"/>
    </g>
    <g clip-path="url(#p1c95e8b685)">
     <use xlink:href="#C0_0_fce4a20a50" x="69.661247" y="210.454113" style="fill: #3274a1"/>
    </g>
    <g clip-path="url(#p1c95e8b685)">
     <use xlink:href="#C0_0_fce4a20a50" x="100.2482" y="152.99634" style="fill: #3274a1"/>
    </g>
    <g clip-path="url(#p1c95e8b685)">
     <use xlink:href="#C0_0_fce4a20a50" x="101.047589" y="223.066795" style="fill: #3274a1"/>
    </g>
    <g clip-path="url(#p1c95e8b685)">
     <use xlink:href="#C0_0_fce4a20a50" x="106.830263" y="169.813249" style="fill: #3274a1"/>
    </g>
    <g clip-path="url(#p1c95e8b685)">
     <use xlink:href="#C0_0_fce4a20a50" x="79.708" y="207.651295" style="fill: #3274a1"/>
    </g>
    <g clip-path="url(#p1c95e8b685)">
     <use xlink:href="#C0_0_fce4a20a50" x="93.026161" y="197.841431" style="fill: #3274a1"/>
    </g>
    <g clip-path="url(#p1c95e8b685)">
     <use xlink:href="#C0_0_fce4a20a50" x="89.070831" y="197.841431" style="fill: #3274a1"/>
    </g>
    <g clip-path="url(#p1c95e8b685)">
     <use xlink:href="#C0_0_fce4a20a50" x="84.635456" y="143.186476" style="fill: #3274a1"/>
    </g>
    <g clip-path="url(#p1c95e8b685)">
     <use xlink:href="#C0_0_fce4a20a50" x="77.028989" y="202.045659" style="fill: #3274a1"/>
    </g>
    <g clip-path="url(#p1c95e8b685)">
     <use xlink:href="#C0_0_fce4a20a50" x="68.803105" y="175.418886" style="fill: #3274a1"/>
    </g>
    <g clip-path="url(#p1c95e8b685)">
     <use xlink:href="#C0_0_fce4a20a50" x="82.168327" y="216.05975" style="fill: #3274a1"/>
    </g>
    <g clip-path="url(#p1c95e8b685)">
     <use xlink:href="#C0_0_fce4a20a50" x="112.696524" y="171.214658" style="fill: #3274a1"/>
    </g>
    <g clip-path="url(#p1c95e8b685)">
     <use xlink:href="#C0_0_fce4a20a50" x="82.687204" y="203.447068" style="fill: #3274a1"/>
    </g>
    <g clip-path="url(#p1c95e8b685)">
     <use xlink:href="#C0_0_fce4a20a50" x="89.104898" y="155.799158" style="fill: #3274a1"/>
    </g>
    <g clip-path="url(#p1c95e8b685)">
     <use xlink:href="#C0_0_fce4a20a50" x="98.959336" y="203.447068" style="fill: #3274a1"/>
    </g>
    <g clip-path="url(#p1c95e8b685)">
     <use xlink:href="#C0_0_fce4a20a50" x="69.885027" y="199.24284" style="fill: #3274a1"/>
    </g>
    <g clip-path="url(#p1c95e8b685)">
     <use xlink:href="#C0_0_fce4a20a50" x="104.733289" y="223.066795" style="fill: #3274a1"/>
    </g>
    <g clip-path="url(#p1c95e8b685)">
     <use xlink:href="#C0_0_fce4a20a50" x="68.335117" y="185.228749" style="fill: #3274a1"/>
    </g>
    <g clip-path="url(#p1c95e8b685)">
     <use xlink:href="#C0_0_fce4a20a50" x="86.862989" y="225.869613" style="fill: #3274a1"/>
    </g>
    <g clip-path="url(#p1c95e8b685)">
     <use xlink:href="#C0_0_fce4a20a50" x="86.536426" y="189.432977" style="fill: #3274a1"/>
    </g>
    <g clip-path="url(#p1c95e8b685)">
     <use xlink:href="#C0_0_fce4a20a50" x="107.668548" y="155.799158" style="fill: #3274a1"/>
    </g>
    <g clip-path="url(#p1c95e8b685)">
     <use xlink:href="#C0_0_fce4a20a50" x="103.419859" y="199.24284" style="fill: #3274a1"/>
    </g>
    <g clip-path="url(#p1c95e8b685)">
     <use xlink:href="#C0_0_fce4a20a50" x="89.963203" y="200.644249" style="fill: #3274a1"/>
    </g>
    <g clip-path="url(#p1c95e8b685)">
     <use xlink:href="#C0_0_fce4a20a50" x="87.961706" y="183.82734" style="fill: #3274a1"/>
    </g>
    <g clip-path="url(#p1c95e8b685)">
     <use xlink:href="#C0_0_fce4a20a50" x="65.227607" y="186.630158" style="fill: #3274a1"/>
    </g>
    <g clip-path="url(#p1c95e8b685)">
     <use xlink:href="#C0_0_fce4a20a50" x="89.681927" y="169.813249" style="fill: #3274a1"/>
    </g>
   </g>
   <g id="PathCollection_2">
    <defs>
     <path id="C1_0_f2c3fac5bd" d="M 0 2.5 
C 0.663008 2.5 1.29895 2.236584 1.767767 1.767767 
C 2.236584 1.29895 2.5 0.663008 2.5 -0 
C 2.5 -0.663008 2.236584 -1.29895 1.767767 -1.767767 
C 1.29895 -2.236584 0.663008 -2.5 0 -2.5 
C -0.663008 -2.5 -1.29895 -2.236584 -1.767767 -1.767767 
C -2.236584 -1.29895 -2.5 -0.663008 -2.5 0 
C -2.5 0.663008 -2.236584 1.29895 -1.767767 1.767767 
C -1.29895 2.236584 -0.663008 2.5 0 2.5 
z
"/>
    </defs>
    <g clip-path="url(#p1c95e8b685)">
     <use xlink:href="#C1_0_f2c3fac5bd" x="174.026016" y="197.841431" style="fill: #e1812c"/>
    </g>
    <g clip-path="url(#p1c95e8b685)">
     <use xlink:href="#C1_0_f2c3fac5bd" x="169.332837" y="175.418886" style="fill: #e1812c"/>
    </g>
    <g clip-path="url(#p1c95e8b685)">
     <use xlink:href="#C1_0_f2c3fac5bd" x="167.888878" y="189.432977" style="fill: #e1812c"/>
    </g>
    <g clip-path="url(#p1c95e8b685)">
     <use xlink:href="#C1_0_f2c3fac5bd" x="168.165732" y="196.440022" style="fill: #e1812c"/>
    </g>
    <g clip-path="url(#p1c95e8b685)">
     <use xlink:href="#C1_0_f2c3fac5bd" x="165.969759" y="185.228749" style="fill: #e1812c"/>
    </g>
    <g clip-path="url(#p1c95e8b685)">
     <use xlink:href="#C1_0_f2c3fac5bd" x="169.627748" y="172.616067" style="fill: #e1812c"/>
    </g>
    <g clip-path="url(#p1c95e8b685)">
     <use xlink:href="#C1_0_f2c3fac5bd" x="170.555633" y="211.855522" style="fill: #e1812c"/>
    </g>
    <g clip-path="url(#p1c95e8b685)">
     <use xlink:href="#C1_0_f2c3fac5bd" x="164.810205" y="183.82734" style="fill: #e1812c"/>
    </g>
    <g clip-path="url(#p1c95e8b685)">
     <use xlink:href="#C1_0_f2c3fac5bd" x="167.189893" y="161.404794" style="fill: #e1812c"/>
    </g>
    <g clip-path="url(#p1c95e8b685)">
     <use xlink:href="#C1_0_f2c3fac5bd" x="166.931152" y="186.630158" style="fill: #e1812c"/>
    </g>
    <g clip-path="url(#p1c95e8b685)">
     <use xlink:href="#C1_0_f2c3fac5bd" x="162.672521" y="181.024522" style="fill: #e1812c"/>
    </g>
    <g clip-path="url(#p1c95e8b685)">
     <use xlink:href="#C1_0_f2c3fac5bd" x="155.615895" y="182.425931" style="fill: #e1812c"/>
    </g>
    <g clip-path="url(#p1c95e8b685)">
     <use xlink:href="#C1_0_f2c3fac5bd" x="174.590428" y="186.630158" style="fill: #e1812c"/>
    </g>
    <g clip-path="url(#p1c95e8b685)">
     <use xlink:href="#C1_0_f2c3fac5bd" x="163.160348" y="167.010431" style="fill: #e1812c"/>
    </g>
    <g clip-path="url(#p1c95e8b685)">
     <use xlink:href="#C1_0_f2c3fac5bd" x="174.177345" y="193.637204" style="fill: #e1812c"/>
    </g>
    <g clip-path="url(#p1c95e8b685)">
     <use xlink:href="#C1_0_f2c3fac5bd" x="162.499715" y="167.010431" style="fill: #e1812c"/>
    </g>
    <g clip-path="url(#p1c95e8b685)">
     <use xlink:href="#C1_0_f2c3fac5bd" x="170.313603" y="209.052704" style="fill: #e1812c"/>
    </g>
    <g clip-path="url(#p1c95e8b685)">
     <use xlink:href="#C1_0_f2c3fac5bd" x="167.808068" y="186.630158" style="fill: #e1812c"/>
    </g>
    <g clip-path="url(#p1c95e8b685)">
     <use xlink:href="#C1_0_f2c3fac5bd" x="167.672866" y="200.644249" style="fill: #e1812c"/>
    </g>
    <g clip-path="url(#p1c95e8b685)">
     <use xlink:href="#C1_0_f2c3fac5bd" x="168.644305" y="147.390703" style="fill: #e1812c"/>
    </g>
    <g clip-path="url(#p1c95e8b685)">
     <use xlink:href="#C1_0_f2c3fac5bd" x="173.508363" y="192.235795" style="fill: #e1812c"/>
    </g>
    <g clip-path="url(#p1c95e8b685)">
     <use xlink:href="#C1_0_f2c3fac5bd" x="156.840426" y="203.447068" style="fill: #e1812c"/>
    </g>
    <g clip-path="url(#p1c95e8b685)">
     <use xlink:href="#C1_0_f2c3fac5bd" x="166.367528" y="231.47525" style="fill: #e1812c"/>
    </g>
    <g clip-path="url(#p1c95e8b685)">
     <use xlink:href="#C1_0_f2c3fac5bd" x="161.643723" y="181.024522" style="fill: #e1812c"/>
    </g>
    <g clip-path="url(#p1c95e8b685)">
     <use xlink:href="#C1_0_f2c3fac5bd" x="163.099022" y="209.052704" style="fill: #e1812c"/>
    </g>
    <g clip-path="url(#p1c95e8b685)">
     <use xlink:href="#C1_0_f2c3fac5bd" x="164.030678" y="161.404794" style="fill: #e1812c"/>
    </g>
    <g clip-path="url(#p1c95e8b685)">
     <use xlink:href="#C1_0_f2c3fac5bd" x="164.277627" y="203.447068" style="fill: #e1812c"/>
    </g>
    <g clip-path="url(#p1c95e8b685)">
     <use xlink:href="#C1_0_f2c3fac5bd" x="166.482024" y="181.024522" style="fill: #e1812c"/>
    </g>
    <g clip-path="url(#p1c95e8b685)">
     <use xlink:href="#C1_0_f2c3fac5bd" x="153.895148" y="186.630158" style="fill: #e1812c"/>
    </g>
    <g clip-path="url(#p1c95e8b685)">
     <use xlink:href="#C1_0_f2c3fac5bd" x="167.88562" y="138.982249" style="fill: #e1812c"/>
    </g>
    <g clip-path="url(#p1c95e8b685)">
     <use xlink:href="#C1_0_f2c3fac5bd" x="166.370212" y="214.658341" style="fill: #e1812c"/>
    </g>
    <g clip-path="url(#p1c95e8b685)">
     <use xlink:href="#C1_0_f2c3fac5bd" x="166.450886" y="152.99634" style="fill: #e1812c"/>
    </g>
    <g clip-path="url(#p1c95e8b685)">
     <use xlink:href="#C1_0_f2c3fac5bd" x="164.417835" y="206.249886" style="fill: #e1812c"/>
    </g>
    <g clip-path="url(#p1c95e8b685)">
     <use xlink:href="#C1_0_f2c3fac5bd" x="160.46072" y="164.207613" style="fill: #e1812c"/>
    </g>
    <g clip-path="url(#p1c95e8b685)">
     <use xlink:href="#C1_0_f2c3fac5bd" x="154.738213" y="192.235795" style="fill: #e1812c"/>
    </g>
    <g clip-path="url(#p1c95e8b685)">
     <use xlink:href="#C1_0_f2c3fac5bd" x="164.845384" y="175.418886" style="fill: #e1812c"/>
    </g>
    <g clip-path="url(#p1c95e8b685)">
     <use xlink:href="#C1_0_f2c3fac5bd" x="170.488029" y="178.221704" style="fill: #e1812c"/>
    </g>
    <g clip-path="url(#p1c95e8b685)">
     <use xlink:href="#C1_0_f2c3fac5bd" x="166.391129" y="124.968158" style="fill: #e1812c"/>
    </g>
    <g clip-path="url(#p1c95e8b685)">
     <use xlink:href="#C1_0_f2c3fac5bd" x="166.15367" y="242.686523" style="fill: #e1812c"/>
    </g>
    <g clip-path="url(#p1c95e8b685)">
     <use xlink:href="#C1_0_f2c3fac5bd" x="164.152077" y="141.785067" style="fill: #e1812c"/>
    </g>
    <g clip-path="url(#p1c95e8b685)">
     <use xlink:href="#C1_0_f2c3fac5bd" x="165.29603" y="172.616067" style="fill: #e1812c"/>
    </g>
    <g clip-path="url(#p1c95e8b685)">
     <use xlink:href="#C1_0_f2c3fac5bd" x="169.524817" y="189.432977" style="fill: #e1812c"/>
    </g>
    <g clip-path="url(#p1c95e8b685)">
     <use xlink:href="#C1_0_f2c3fac5bd" x="172.316115" y="195.038613" style="fill: #e1812c"/>
    </g>
    <g clip-path="url(#p1c95e8b685)">
     <use xlink:href="#C1_0_f2c3fac5bd" x="164.077213" y="197.841431" style="fill: #e1812c"/>
    </g>
    <g clip-path="url(#p1c95e8b685)">
     <use xlink:href="#C1_0_f2c3fac5bd" x="169.730081" y="188.031567" style="fill: #e1812c"/>
    </g>
    <g clip-path="url(#p1c95e8b685)">
     <use xlink:href="#C1_0_f2c3fac5bd" x="168.447168" y="144.587885" style="fill: #e1812c"/>
    </g>
    <g clip-path="url(#p1c95e8b685)">
     <use xlink:href="#C1_0_f2c3fac5bd" x="167.452728" y="203.447068" style="fill: #e1812c"/>
    </g>
    <g clip-path="url(#p1c95e8b685)">
     <use xlink:href="#C1_0_f2c3fac5bd" x="170.357274" y="152.99634" style="fill: #e1812c"/>
    </g>
    <g clip-path="url(#p1c95e8b685)">
     <use xlink:href="#C1_0_f2c3fac5bd" x="162.824584" y="211.855522" style="fill: #e1812c"/>
    </g>
    <g clip-path="url(#p1c95e8b685)">
     <use xlink:href="#C1_0_f2c3fac5bd" x="175.613704" y="188.031567" style="fill: #e1812c"/>
    </g>
    <g clip-path="url(#p1c95e8b685)">
     <use xlink:href="#C1_0_f2c3fac5bd" x="159.426046" y="207.651295" style="fill: #e1812c"/>
    </g>
    <g clip-path="url(#p1c95e8b685)">
     <use xlink:href="#C1_0_f2c3fac5bd" x="169.828153" y="172.616067" style="fill: #e1812c"/>
    </g>
    <g clip-path="url(#p1c95e8b685)">
     <use xlink:href="#C1_0_f2c3fac5bd" x="154.257317" y="192.235795" style="fill: #e1812c"/>
    </g>
    <g clip-path="url(#p1c95e8b685)">
     <use xlink:href="#C1_0_f2c3fac5bd" x="162.346426" y="167.010431" style="fill: #e1812c"/>
    </g>
    <g clip-path="url(#p1c95e8b685)">
     <use xlink:href="#C1_0_f2c3fac5bd" x="173.09509" y="206.249886" style="fill: #e1812c"/>
    </g>
    <g clip-path="url(#p1c95e8b685)">
     <use xlink:href="#C1_0_f2c3fac5bd" x="165.968179" y="200.644249" style="fill: #e1812c"/>
    </g>
    <g clip-path="url(#p1c95e8b685)">
     <use xlink:href="#C1_0_f2c3fac5bd" x="172.710333" y="211.855522" style="fill: #e1812c"/>
    </g>
    <g clip-path="url(#p1c95e8b685)">
     <use xlink:href="#C1_0_f2c3fac5bd" x="172.527667" y="167.010431" style="fill: #e1812c"/>
    </g>
    <g clip-path="url(#p1c95e8b685)">
     <use xlink:href="#C1_0_f2c3fac5bd" x="161.570184" y="181.024522" style="fill: #e1812c"/>
    </g>
    <g clip-path="url(#p1c95e8b685)">
     <use xlink:href="#C1_0_f2c3fac5bd" x="165.651586" y="196.440022" style="fill: #e1812c"/>
    </g>
    <g clip-path="url(#p1c95e8b685)">
     <use xlink:href="#C1_0_f2c3fac5bd" x="168.8919" y="172.616067" style="fill: #e1812c"/>
    </g>
    <g clip-path="url(#p1c95e8b685)">
     <use xlink:href="#C1_0_f2c3fac5bd" x="156.790457" y="189.432977" style="fill: #e1812c"/>
    </g>
    <g clip-path="url(#p1c95e8b685)">
     <use xlink:href="#C1_0_f2c3fac5bd" x="177.642732" y="189.432977" style="fill: #e1812c"/>
    </g>
    <g clip-path="url(#p1c95e8b685)">
     <use xlink:href="#C1_0_f2c3fac5bd" x="170.074148" y="169.813249" style="fill: #e1812c"/>
    </g>
    <g clip-path="url(#p1c95e8b685)">
     <use xlink:href="#C1_0_f2c3fac5bd" x="169.828193" y="203.447068" style="fill: #e1812c"/>
    </g>
    <g clip-path="url(#p1c95e8b685)">
     <use xlink:href="#C1_0_f2c3fac5bd" x="174.591798" y="182.425931" style="fill: #e1812c"/>
    </g>
    <g clip-path="url(#p1c95e8b685)">
     <use xlink:href="#C1_0_f2c3fac5bd" x="166.343658" y="164.207613" style="fill: #e1812c"/>
    </g>
    <g clip-path="url(#p1c95e8b685)">
     <use xlink:href="#C1_0_f2c3fac5bd" x="178.320966" y="182.425931" style="fill: #e1812c"/>
    </g>
   </g>
   <g id="PathCollection_3">
    <defs>
     <path id="C2_0_ac5a83f47b" d="M 0 2.5 
C 0.663008 2.5 1.29895 2.236584 1.767767 1.767767 
C 2.236584 1.29895 2.5 0.663008 2.5 -0 
C 2.5 -0.663008 2.236584 -1.29895 1.767767 -1.767767 
C 1.29895 -2.236584 0.663008 -2.5 0 -2.5 
C -0.663008 -2.5 -1.29895 -2.236584 -1.767767 -1.767767 
C -2.236584 -1.29895 -2.5 -0.663008 -2.5 0 
C -2.5 0.663008 -2.236584 1.29895 -1.767767 1.767767 
C -1.29895 2.236584 -0.663008 2.5 0 2.5 
z
"/>
    </defs>
    <g clip-path="url(#p1c95e8b685)">
     <use xlink:href="#C2_0_ac5a83f47b" x="233.824118" y="141.785067" style="fill: #3a923a"/>
    </g>
    <g clip-path="url(#p1c95e8b685)">
     <use xlink:href="#C2_0_ac5a83f47b" x="249.532128" y="74.51743" style="fill: #3a923a"/>
    </g>
    <g clip-path="url(#p1c95e8b685)">
     <use xlink:href="#C2_0_ac5a83f47b" x="255.081322" y="144.587885" style="fill: #3a923a"/>
    </g>
    <g clip-path="url(#p1c95e8b685)">
     <use xlink:href="#C2_0_ac5a83f47b" x="228.237289" y="74.51743" style="fill: #3a923a"/>
    </g>
    <g clip-path="url(#p1c95e8b685)">
     <use xlink:href="#C2_0_ac5a83f47b" x="235.574982" y="91.334339" style="fill: #3a923a"/>
    </g>
    <g clip-path="url(#p1c95e8b685)">
     <use xlink:href="#C2_0_ac5a83f47b" x="225.582811" y="138.982249" style="fill: #3a923a"/>
    </g>
    <g clip-path="url(#p1c95e8b685)">
     <use xlink:href="#C2_0_ac5a83f47b" x="260.500245" y="124.968158" style="fill: #3a923a"/>
    </g>
    <g clip-path="url(#p1c95e8b685)">
     <use xlink:href="#C2_0_ac5a83f47b" x="244.695047" y="102.545612" style="fill: #3a923a"/>
    </g>
    <g clip-path="url(#p1c95e8b685)">
     <use xlink:href="#C2_0_ac5a83f47b" x="229.453537" y="147.390703" style="fill: #3a923a"/>
    </g>
    <g clip-path="url(#p1c95e8b685)">
     <use xlink:href="#C2_0_ac5a83f47b" x="249.693961" y="105.34843" style="fill: #3a923a"/>
    </g>
    <g clip-path="url(#p1c95e8b685)">
     <use xlink:href="#C2_0_ac5a83f47b" x="228.641214" y="133.376612" style="fill: #3a923a"/>
    </g>
    <g clip-path="url(#p1c95e8b685)">
     <use xlink:href="#C2_0_ac5a83f47b" x="228.724268" y="82.925884" style="fill: #3a923a"/>
    </g>
    <g clip-path="url(#p1c95e8b685)">
     <use xlink:href="#C2_0_ac5a83f47b" x="220.286195" y="133.376612" style="fill: #3a923a"/>
    </g>
    <g clip-path="url(#p1c95e8b685)">
     <use xlink:href="#C2_0_ac5a83f47b" x="237.429023" y="66.108975" style="fill: #3a923a"/>
    </g>
    <g clip-path="url(#p1c95e8b685)">
     <use xlink:href="#C2_0_ac5a83f47b" x="237.232905" y="158.601976" style="fill: #3a923a"/>
    </g>
    <g clip-path="url(#p1c95e8b685)">
     <use xlink:href="#C2_0_ac5a83f47b" x="248.589103" y="66.108975" style="fill: #3a923a"/>
    </g>
    <g clip-path="url(#p1c95e8b685)">
     <use xlink:href="#C2_0_ac5a83f47b" x="246.554295" y="161.404794" style="fill: #3a923a"/>
    </g>
    <g clip-path="url(#p1c95e8b685)">
     <use xlink:href="#C2_0_ac5a83f47b" x="240.792341" y="40.883611" style="fill: #3a923a"/>
    </g>
    <g clip-path="url(#p1c95e8b685)">
     <use xlink:href="#C2_0_ac5a83f47b" x="247.238936" y="124.968158" style="fill: #3a923a"/>
    </g>
    <g clip-path="url(#p1c95e8b685)">
     <use xlink:href="#C2_0_ac5a83f47b" x="259.376256" y="94.137157" style="fill: #3a923a"/>
    </g>
    <g clip-path="url(#p1c95e8b685)">
     <use xlink:href="#C2_0_ac5a83f47b" x="230.981382" y="74.51743" style="fill: #3a923a"/>
    </g>
    <g clip-path="url(#p1c95e8b685)">
     <use xlink:href="#C2_0_ac5a83f47b" x="220.57969" y="113.756885" style="fill: #3a923a"/>
    </g>
    <g clip-path="url(#p1c95e8b685)">
     <use xlink:href="#C2_0_ac5a83f47b" x="228.309108" y="147.390703" style="fill: #3a923a"/>
    </g>
    <g clip-path="url(#p1c95e8b685)">
     <use xlink:href="#C2_0_ac5a83f47b" x="254.376456" y="110.954067" style="fill: #3a923a"/>
    </g>
    <g clip-path="url(#p1c95e8b685)">
     <use xlink:href="#C2_0_ac5a83f47b" x="235.326088" y="113.756885" style="fill: #3a923a"/>
    </g>
    <g clip-path="url(#p1c95e8b685)">
     <use xlink:href="#C2_0_ac5a83f47b" x="233.230837" y="108.151248" style="fill: #3a923a"/>
    </g>
    <g clip-path="url(#p1c95e8b685)">
     <use xlink:href="#C2_0_ac5a83f47b" x="243.534526" y="164.207613" style="fill: #3a923a"/>
    </g>
    <g clip-path="url(#p1c95e8b685)">
     <use xlink:href="#C2_0_ac5a83f47b" x="255.960216" y="77.320248" style="fill: #3a923a"/>
    </g>
    <g clip-path="url(#p1c95e8b685)">
     <use xlink:href="#C2_0_ac5a83f47b" x="238.69436" y="136.17943" style="fill: #3a923a"/>
    </g>
    <g clip-path="url(#p1c95e8b685)">
     <use xlink:href="#C2_0_ac5a83f47b" x="255.508706" y="82.925884" style="fill: #3a923a"/>
    </g>
    <g clip-path="url(#p1c95e8b685)">
     <use xlink:href="#C2_0_ac5a83f47b" x="251.036013" y="99.742794" style="fill: #3a923a"/>
    </g>
    <g clip-path="url(#p1c95e8b685)">
     <use xlink:href="#C2_0_ac5a83f47b" x="228.933666" y="130.573794" style="fill: #3a923a"/>
    </g>
    <g clip-path="url(#p1c95e8b685)">
     <use xlink:href="#C2_0_ac5a83f47b" x="247.87846" y="110.954067" style="fill: #3a923a"/>
    </g>
    <g clip-path="url(#p1c95e8b685)">
     <use xlink:href="#C2_0_ac5a83f47b" x="241.608221" y="54.897702" style="fill: #3a923a"/>
    </g>
    <g clip-path="url(#p1c95e8b685)">
     <use xlink:href="#C2_0_ac5a83f47b" x="220.563923" y="105.34843" style="fill: #3a923a"/>
    </g>
    <g clip-path="url(#p1c95e8b685)">
     <use xlink:href="#C2_0_ac5a83f47b" x="235.506025" y="91.334339" style="fill: #3a923a"/>
    </g>
    <g clip-path="url(#p1c95e8b685)">
     <use xlink:href="#C2_0_ac5a83f47b" x="233.022266" y="116.559703" style="fill: #3a923a"/>
    </g>
    <g clip-path="url(#p1c95e8b685)">
     <use xlink:href="#C2_0_ac5a83f47b" x="225.26716" y="99.742794" style="fill: #3a923a"/>
    </g>
    <g clip-path="url(#p1c95e8b685)">
     <use xlink:href="#C2_0_ac5a83f47b" x="237.037019" y="150.193522" style="fill: #3a923a"/>
    </g>
    <g clip-path="url(#p1c95e8b685)">
     <use xlink:href="#C2_0_ac5a83f47b" x="241.066956" y="94.137157" style="fill: #3a923a"/>
    </g>
    <g clip-path="url(#p1c95e8b685)">
     <use xlink:href="#C2_0_ac5a83f47b" x="240.656617" y="172.616067" style="fill: #3a923a"/>
    </g>
    <g clip-path="url(#p1c95e8b685)">
     <use xlink:href="#C2_0_ac5a83f47b" x="233.363072" y="74.51743" style="fill: #3a923a"/>
    </g>
    <g clip-path="url(#p1c95e8b685)">
     <use xlink:href="#C2_0_ac5a83f47b" x="250.160115" y="152.99634" style="fill: #3a923a"/>
    </g>
    <g clip-path="url(#p1c95e8b685)">
     <use xlink:href="#C2_0_ac5a83f47b" x="259.382387" y="127.770976" style="fill: #3a923a"/>
    </g>
    <g clip-path="url(#p1c95e8b685)">
     <use xlink:href="#C2_0_ac5a83f47b" x="236.689319" y="82.925884" style="fill: #3a923a"/>
    </g>
    <g clip-path="url(#p1c95e8b685)">
     <use xlink:href="#C2_0_ac5a83f47b" x="243.770738" y="119.362521" style="fill: #3a923a"/>
    </g>
    <g clip-path="url(#p1c95e8b685)">
     <use xlink:href="#C2_0_ac5a83f47b" x="233.606092" y="158.601976" style="fill: #3a923a"/>
    </g>
    <g clip-path="url(#p1c95e8b685)">
     <use xlink:href="#C2_0_ac5a83f47b" x="246.485256" y="91.334339" style="fill: #3a923a"/>
    </g>
    <g clip-path="url(#p1c95e8b685)">
     <use xlink:href="#C2_0_ac5a83f47b" x="250.01857" y="108.151248" style="fill: #3a923a"/>
    </g>
    <g clip-path="url(#p1c95e8b685)">
     <use xlink:href="#C2_0_ac5a83f47b" x="241.144201" y="96.939975" style="fill: #3a923a"/>
    </g>
    <g clip-path="url(#p1c95e8b685)">
     <use xlink:href="#C2_0_ac5a83f47b" x="263.499791" y="122.165339" style="fill: #3a923a"/>
    </g>
    <g clip-path="url(#p1c95e8b685)">
     <use xlink:href="#C2_0_ac5a83f47b" x="250.973107" y="96.939975" style="fill: #3a923a"/>
    </g>
    <g clip-path="url(#p1c95e8b685)">
     <use xlink:href="#C2_0_ac5a83f47b" x="232.138518" y="147.390703" style="fill: #3a923a"/>
    </g>
    <g clip-path="url(#p1c95e8b685)">
     <use xlink:href="#C2_0_ac5a83f47b" x="244.428881" y="113.756885" style="fill: #3a923a"/>
    </g>
    <g clip-path="url(#p1c95e8b685)">
     <use xlink:href="#C2_0_ac5a83f47b" x="229.960616" y="119.362521" style="fill: #3a923a"/>
    </g>
    <g clip-path="url(#p1c95e8b685)">
     <use xlink:href="#C2_0_ac5a83f47b" x="253.037958" y="110.954067" style="fill: #3a923a"/>
    </g>
    <g clip-path="url(#p1c95e8b685)">
     <use xlink:href="#C2_0_ac5a83f47b" x="245.920771" y="152.99634" style="fill: #3a923a"/>
    </g>
    <g clip-path="url(#p1c95e8b685)">
     <use xlink:href="#C2_0_ac5a83f47b" x="251.009317" y="113.756885" style="fill: #3a923a"/>
    </g>
    <g clip-path="url(#p1c95e8b685)">
     <use xlink:href="#C2_0_ac5a83f47b" x="237.278995" y="144.587885" style="fill: #3a923a"/>
    </g>
    <g clip-path="url(#p1c95e8b685)">
     <use xlink:href="#C2_0_ac5a83f47b" x="233.091151" y="82.925884" style="fill: #3a923a"/>
    </g>
    <g clip-path="url(#p1c95e8b685)">
     <use xlink:href="#C2_0_ac5a83f47b" x="235.420061" y="158.601976" style="fill: #3a923a"/>
    </g>
    <g clip-path="url(#p1c95e8b685)">
     <use xlink:href="#C2_0_ac5a83f47b" x="232.040226" y="96.939975" style="fill: #3a923a"/>
    </g>
    <g clip-path="url(#p1c95e8b685)">
     <use xlink:href="#C2_0_ac5a83f47b" x="240.84493" y="147.390703" style="fill: #3a923a"/>
    </g>
    <g clip-path="url(#p1c95e8b685)">
     <use xlink:href="#C2_0_ac5a83f47b" x="242.371705" y="77.320248" style="fill: #3a923a"/>
    </g>
    <g clip-path="url(#p1c95e8b685)">
     <use xlink:href="#C2_0_ac5a83f47b" x="238.643924" y="130.573794" style="fill: #3a923a"/>
    </g>
    <g clip-path="url(#p1c95e8b685)">
     <use xlink:href="#C2_0_ac5a83f47b" x="246.315462" y="74.51743" style="fill: #3a923a"/>
    </g>
    <g clip-path="url(#p1c95e8b685)">
     <use xlink:href="#C2_0_ac5a83f47b" x="243.098585" y="133.376612" style="fill: #3a923a"/>
    </g>
    <g clip-path="url(#p1c95e8b685)">
     <use xlink:href="#C2_0_ac5a83f47b" x="240.141776" y="68.911793" style="fill: #3a923a"/>
    </g>
    <g clip-path="url(#p1c95e8b685)">
     <use xlink:href="#C2_0_ac5a83f47b" x="250.062097" y="130.573794" style="fill: #3a923a"/>
    </g>
    <g clip-path="url(#p1c95e8b685)">
     <use xlink:href="#C2_0_ac5a83f47b" x="224.334123" y="82.925884" style="fill: #3a923a"/>
    </g>
    <g clip-path="url(#p1c95e8b685)">
     <use xlink:href="#C2_0_ac5a83f47b" x="242.009125" y="127.770976" style="fill: #3a923a"/>
    </g>
    <g clip-path="url(#p1c95e8b685)">
     <use xlink:href="#C2_0_ac5a83f47b" x="238.313298" y="113.756885" style="fill: #3a923a"/>
    </g>
    <g clip-path="url(#p1c95e8b685)">
     <use xlink:href="#C2_0_ac5a83f47b" x="230.777466" y="108.151248" style="fill: #3a923a"/>
    </g>
    <g clip-path="url(#p1c95e8b685)">
     <use xlink:href="#C2_0_ac5a83f47b" x="245.178179" y="102.545612" style="fill: #3a923a"/>
    </g>
    <g clip-path="url(#p1c95e8b685)">
     <use xlink:href="#C2_0_ac5a83f47b" x="224.894319" y="130.573794" style="fill: #3a923a"/>
    </g>
    <g clip-path="url(#p1c95e8b685)">
     <use xlink:href="#C2_0_ac5a83f47b" x="245.396634" y="68.911793" style="fill: #3a923a"/>
    </g>
    <g clip-path="url(#p1c95e8b685)">
     <use xlink:href="#C2_0_ac5a83f47b" x="236.551566" y="136.17943" style="fill: #3a923a"/>
    </g>
    <g clip-path="url(#p1c95e8b685)">
     <use xlink:href="#C2_0_ac5a83f47b" x="240.91101" y="57.70052" style="fill: #3a923a"/>
    </g>
    <g clip-path="url(#p1c95e8b685)">
     <use xlink:href="#C2_0_ac5a83f47b" x="263.833217" y="127.770976" style="fill: #3a923a"/>
    </g>
    <g clip-path="url(#p1c95e8b685)">
     <use xlink:href="#C2_0_ac5a83f47b" x="237.490814" y="60.503339" style="fill: #3a923a"/>
    </g>
    <g clip-path="url(#p1c95e8b685)">
     <use xlink:href="#C2_0_ac5a83f47b" x="238.508224" y="134.778021" style="fill: #3a923a"/>
    </g>
    <g clip-path="url(#p1c95e8b685)">
     <use xlink:href="#C2_0_ac5a83f47b" x="221.458624" y="88.531521" style="fill: #3a923a"/>
    </g>
    <g clip-path="url(#p1c95e8b685)">
     <use xlink:href="#C2_0_ac5a83f47b" x="240.461613" y="129.172385" style="fill: #3a923a"/>
    </g>
    <g clip-path="url(#p1c95e8b685)">
     <use xlink:href="#C2_0_ac5a83f47b" x="259.697532" y="94.137157" style="fill: #3a923a"/>
    </g>
    <g clip-path="url(#p1c95e8b685)">
     <use xlink:href="#C2_0_ac5a83f47b" x="243.888792" y="127.770976" style="fill: #3a923a"/>
    </g>
    <g clip-path="url(#p1c95e8b685)">
     <use xlink:href="#C2_0_ac5a83f47b" x="243.848522" y="80.123066" style="fill: #3a923a"/>
    </g>
    <g clip-path="url(#p1c95e8b685)">
     <use xlink:href="#C2_0_ac5a83f47b" x="222.788304" y="136.17943" style="fill: #3a923a"/>
    </g>
    <g clip-path="url(#p1c95e8b685)">
     <use xlink:href="#C2_0_ac5a83f47b" x="256.695639" y="96.939975" style="fill: #3a923a"/>
    </g>
    <g clip-path="url(#p1c95e8b685)">
     <use xlink:href="#C2_0_ac5a83f47b" x="235.76281" y="120.76393" style="fill: #3a923a"/>
    </g>
    <g clip-path="url(#p1c95e8b685)">
     <use xlink:href="#C2_0_ac5a83f47b" x="228.463238" y="82.925884" style="fill: #3a923a"/>
    </g>
    <g clip-path="url(#p1c95e8b685)">
     <use xlink:href="#C2_0_ac5a83f47b" x="235.282768" y="116.559703" style="fill: #3a923a"/>
    </g>
    <g clip-path="url(#p1c95e8b685)">
     <use xlink:href="#C2_0_ac5a83f47b" x="222.186295" y="91.334339" style="fill: #3a923a"/>
    </g>
    <g clip-path="url(#p1c95e8b685)">
     <use xlink:href="#C2_0_ac5a83f47b" x="228.022169" y="127.770976" style="fill: #3a923a"/>
    </g>
    <g clip-path="url(#p1c95e8b685)">
     <use xlink:href="#C2_0_ac5a83f47b" x="243.380118" y="77.320248" style="fill: #3a923a"/>
    </g>
    <g clip-path="url(#p1c95e8b685)">
     <use xlink:href="#C2_0_ac5a83f47b" x="246.41798" y="122.165339" style="fill: #3a923a"/>
    </g>
    <g clip-path="url(#p1c95e8b685)">
     <use xlink:href="#C2_0_ac5a83f47b" x="224.590756" y="102.545612" style="fill: #3a923a"/>
    </g>
    <g clip-path="url(#p1c95e8b685)">
     <use xlink:href="#C2_0_ac5a83f47b" x="259.548823" y="117.961112" style="fill: #3a923a"/>
    </g>
    <g clip-path="url(#p1c95e8b685)">
     <use xlink:href="#C2_0_ac5a83f47b" x="253.763518" y="120.76393" style="fill: #3a923a"/>
    </g>
    <g clip-path="url(#p1c95e8b685)">
     <use xlink:href="#C2_0_ac5a83f47b" x="258.355166" y="134.778021" style="fill: #3a923a"/>
    </g>
    <g clip-path="url(#p1c95e8b685)">
     <use xlink:href="#C2_0_ac5a83f47b" x="253.349701" y="99.742794" style="fill: #3a923a"/>
    </g>
    <g clip-path="url(#p1c95e8b685)">
     <use xlink:href="#C2_0_ac5a83f47b" x="238.086036" y="122.165339" style="fill: #3a923a"/>
    </g>
    <g clip-path="url(#p1c95e8b685)">
     <use xlink:href="#C2_0_ac5a83f47b" x="247.259762" y="80.123066" style="fill: #3a923a"/>
    </g>
    <g clip-path="url(#p1c95e8b685)">
     <use xlink:href="#C2_0_ac5a83f47b" x="235.589627" y="115.158294" style="fill: #3a923a"/>
    </g>
    <g clip-path="url(#p1c95e8b685)">
     <use xlink:href="#C2_0_ac5a83f47b" x="232.676552" y="85.728703" style="fill: #3a923a"/>
    </g>
    <g clip-path="url(#p1c95e8b685)">
     <use xlink:href="#C2_0_ac5a83f47b" x="242.276969" y="129.172385" style="fill: #3a923a"/>
    </g>
    <g clip-path="url(#p1c95e8b685)">
     <use xlink:href="#C2_0_ac5a83f47b" x="225.623763" y="85.728703" style="fill: #3a923a"/>
    </g>
    <g clip-path="url(#p1c95e8b685)">
     <use xlink:href="#C2_0_ac5a83f47b" x="253.889944" y="130.573794" style="fill: #3a923a"/>
    </g>
    <g clip-path="url(#p1c95e8b685)">
     <use xlink:href="#C2_0_ac5a83f47b" x="241.097782" y="85.728703" style="fill: #3a923a"/>
    </g>
    <g clip-path="url(#p1c95e8b685)">
     <use xlink:href="#C2_0_ac5a83f47b" x="242.584254" y="137.58084" style="fill: #3a923a"/>
    </g>
    <g clip-path="url(#p1c95e8b685)">
     <use xlink:href="#C2_0_ac5a83f47b" x="241.356749" y="85.728703" style="fill: #3a923a"/>
    </g>
    <g clip-path="url(#p1c95e8b685)">
     <use xlink:href="#C2_0_ac5a83f47b" x="260.764728" y="113.756885" style="fill: #3a923a"/>
    </g>
    <g clip-path="url(#p1c95e8b685)">
     <use xlink:href="#C2_0_ac5a83f47b" x="235.783285" y="60.503339" style="fill: #3a923a"/>
    </g>
    <g clip-path="url(#p1c95e8b685)">
     <use xlink:href="#C2_0_ac5a83f47b" x="260.891333" y="133.376612" style="fill: #3a923a"/>
    </g>
    <g clip-path="url(#p1c95e8b685)">
     <use xlink:href="#C2_0_ac5a83f47b" x="235.584707" y="85.728703" style="fill: #3a923a"/>
    </g>
    <g clip-path="url(#p1c95e8b685)">
     <use xlink:href="#C2_0_ac5a83f47b" x="234.794724" y="148.792112" style="fill: #3a923a"/>
    </g>
    <g clip-path="url(#p1c95e8b685)">
     <use xlink:href="#C2_0_ac5a83f47b" x="237.710303" y="66.108975" style="fill: #3a923a"/>
    </g>
    <g clip-path="url(#p1c95e8b685)">
     <use xlink:href="#C2_0_ac5a83f47b" x="244.836869" y="120.76393" style="fill: #3a923a"/>
    </g>
    <g clip-path="url(#p1c95e8b685)">
     <use xlink:href="#C2_0_ac5a83f47b" x="239.138895" y="57.70052" style="fill: #3a923a"/>
    </g>
    <g clip-path="url(#p1c95e8b685)">
     <use xlink:href="#C2_0_ac5a83f47b" x="221.915693" y="117.961112" style="fill: #3a923a"/>
    </g>
    <g clip-path="url(#p1c95e8b685)">
     <use xlink:href="#C2_0_ac5a83f47b" x="222.806224" y="122.165339" style="fill: #3a923a"/>
    </g>
    <g clip-path="url(#p1c95e8b685)">
     <use xlink:href="#C2_0_ac5a83f47b" x="231.501953" y="71.714611" style="fill: #3a923a"/>
    </g>
    <g clip-path="url(#p1c95e8b685)">
     <use xlink:href="#C2_0_ac5a83f47b" x="243.032839" y="102.545612" style="fill: #3a923a"/>
    </g>
    <g clip-path="url(#p1c95e8b685)">
     <use xlink:href="#C2_0_ac5a83f47b" x="229.214009" y="91.334339" style="fill: #3a923a"/>
    </g>
   </g>
   <g id="matplotlib.axis_1">
    <g id="xtick_1">
     <g id="line2d_1">
      <defs>
       <path id="mf189c01805" d="M 0 0 
L 0 3.5 
" style="stroke: #000000; stroke-width: 0.8"/>
      </defs>
      <g>
       <use xlink:href="#mf189c01805" x="92.148438" y="273.312" style="stroke: #000000; stroke-width: 0.8"/>
      </g>
     </g>
     <g id="text_1">
      <!-- Adelie -->
      <g transform="translate(76.528906 288.021375)scale(0.1 -0.1)">
       <defs>
        <path id="HiraginoSans-W4-41" d="M 4826 0 
C 4730 166 4646 352 4486 742 
L 3053 4326 
C 2899 4710 2867 4806 2835 4934 
L 2054 4934 
C 2022 4781 1971 4634 1850 4326 
L 422 742 
C 269 358 198 205 83 0 
L 858 0 
C 902 230 954 397 1056 659 
L 1363 1453 
L 3546 1453 
L 3859 659 
C 3930 467 4006 218 4051 0 
L 4826 0 
z
M 3366 1978 
L 1542 1978 
L 2317 4026 
C 2330 4058 2349 4122 2381 4211 
C 2394 4256 2419 4333 2451 4422 
C 2566 4083 2566 4083 2586 4026 
L 3366 1978 
z
" transform="scale(0.015625)"/>
        <path id="HiraginoSans-W4-64" d="M 3187 0 
L 3802 0 
C 3770 250 3757 442 3757 774 
L 3757 4173 
C 3757 4467 3770 4666 3802 4934 
L 3142 4934 
C 3174 4691 3187 4486 3187 4173 
L 3187 3398 
C 3187 3296 3187 3194 3194 3149 
C 3200 3040 3200 3040 3206 2970 
C 2918 3379 2470 3597 1901 3597 
C 909 3597 282 2886 282 1766 
C 282 1171 461 672 794 339 
C 1069 70 1446 -64 1914 -64 
C 2483 -64 2880 128 3206 563 
C 3200 480 3187 365 3187 288 
L 3187 0 
z
M 1971 3098 
C 2310 3098 2618 2976 2842 2752 
C 3059 2541 3181 2189 3181 1786 
C 3181 966 2707 429 1978 429 
C 1709 429 1459 512 1274 672 
C 1024 890 883 1280 883 1786 
C 883 2598 1293 3098 1971 3098 
z
" transform="scale(0.015625)"/>
        <path id="HiraginoSans-W4-65" d="M 3578 1651 
C 3558 1971 3546 2106 3533 2170 
C 3405 3066 2797 3610 1933 3610 
C 934 3610 282 2880 282 1760 
C 282 621 941 -96 1978 -96 
C 2470 -96 2880 64 3187 371 
C 3341 518 3424 646 3546 915 
L 3008 1114 
C 2944 928 2899 845 2803 742 
C 2605 512 2323 390 1984 390 
C 1613 390 1312 531 1114 800 
C 947 1024 883 1235 858 1651 
L 3578 1651 
z
M 877 2118 
C 915 2349 947 2451 1037 2605 
C 1229 2944 1542 3130 1920 3130 
C 2221 3130 2464 3040 2656 2854 
C 2842 2669 2938 2451 2976 2118 
L 877 2118 
z
" transform="scale(0.015625)"/>
        <path id="HiraginoSans-W4-6c" d="M 442 4934 
C 474 4704 486 4518 486 4179 
L 486 755 
C 486 429 474 250 442 0 
L 1120 0 
C 1088 262 1075 448 1075 755 
L 1075 4179 
C 1075 4512 1088 4698 1120 4934 
L 442 4934 
z
" transform="scale(0.015625)"/>
        <path id="HiraginoSans-W4-69" d="M 442 4934 
L 442 4294 
L 1152 4294 
L 1152 4934 
L 442 4934 
z
M 454 3520 
C 486 3296 499 3085 499 2765 
L 499 755 
C 499 461 486 282 454 0 
L 1133 0 
C 1101 269 1088 448 1088 755 
L 1088 2758 
C 1088 3104 1101 3290 1133 3520 
L 454 3520 
z
" transform="scale(0.015625)"/>
       </defs>
       <use xlink:href="#HiraginoSans-W4-41"/>
       <use xlink:href="#HiraginoSans-W4-64" x="76.599991"/>
       <use xlink:href="#HiraginoSans-W4-65" x="142.899979"/>
       <use xlink:href="#HiraginoSans-W4-6c" x="203.099976"/>
       <use xlink:href="#HiraginoSans-W4-69" x="227.399963"/>
       <use xlink:href="#HiraginoSans-W4-65" x="252.199951"/>
      </g>
     </g>
    </g>
    <g id="xtick_2">
     <g id="line2d_2">
      <g>
       <use xlink:href="#mf189c01805" x="166.548437" y="273.312" style="stroke: #000000; stroke-width: 0.8"/>
      </g>
     </g>
     <g id="text_2">
      <!-- Chinstrap -->
      <g transform="translate(141.838281 288.171375)scale(0.1 -0.1)">
       <defs>
        <path id="HiraginoSans-W4-43" d="M 4544 3654 
C 4390 4064 4269 4269 4026 4506 
C 3661 4858 3174 5030 2560 5030 
C 1946 5030 1453 4845 1075 4480 
C 589 4006 320 3296 320 2458 
C 320 1651 570 947 1018 493 
C 1389 109 1920 -90 2554 -90 
C 3277 -90 3878 173 4237 640 
C 4403 858 4493 1062 4608 1459 
L 3968 1594 
C 3910 1306 3853 1152 3718 966 
C 3475 634 3066 448 2573 448 
C 1581 448 947 1235 947 2477 
C 947 3718 1568 4493 2573 4493 
C 3014 4493 3386 4339 3629 4051 
C 3763 3891 3834 3763 3923 3488 
L 4544 3654 
z
" transform="scale(0.015625)"/>
        <path id="HiraginoSans-W4-68" d="M 1107 0 
C 1075 256 1062 474 1062 755 
L 1062 2003 
C 1139 2272 1229 2438 1402 2643 
C 1645 2931 1933 3078 2259 3078 
C 2490 3078 2682 3002 2810 2861 
C 2931 2726 2995 2522 2995 2240 
L 2995 755 
C 2995 422 2982 224 2944 0 
L 3622 0 
C 3590 230 3578 448 3578 749 
L 3578 2362 
C 3578 3130 3123 3584 2355 3584 
C 1773 3584 1357 3347 1043 2854 
C 1056 3046 1062 3066 1062 3168 
L 1062 4173 
C 1062 4512 1069 4691 1107 4934 
L 442 4934 
C 480 4691 493 4512 493 4179 
L 493 755 
C 493 422 480 250 442 0 
L 1107 0 
z
" transform="scale(0.015625)"/>
        <path id="HiraginoSans-W4-6e" d="M 1114 0 
C 1082 256 1069 474 1069 755 
L 1069 2010 
C 1139 2272 1222 2426 1395 2630 
C 1658 2944 1933 3085 2266 3085 
C 2752 3085 3002 2797 3002 2234 
L 3002 755 
C 3002 454 2989 269 2957 0 
L 3629 0 
C 3597 218 3584 416 3584 749 
L 3584 2323 
C 3584 2662 3520 2912 3392 3110 
C 3181 3418 2816 3584 2349 3584 
C 1779 3584 1376 3360 1056 2867 
C 1069 3027 1069 3059 1069 3142 
L 1069 3520 
L 442 3520 
C 480 3264 493 3078 493 2765 
L 493 755 
C 493 429 480 256 442 0 
L 1114 0 
z
" transform="scale(0.015625)"/>
        <path id="HiraginoSans-W4-73" d="M 262 973 
C 326 704 378 589 480 448 
C 730 109 1184 -70 1786 -70 
C 2707 -70 3270 339 3270 1011 
C 3270 1293 3136 1555 2912 1722 
C 2720 1862 2483 1946 1894 2074 
C 1510 2157 1357 2208 1210 2285 
C 1075 2355 998 2483 998 2624 
C 998 2944 1312 3162 1760 3162 
C 2042 3162 2259 3078 2400 2925 
C 2483 2835 2515 2758 2554 2598 
L 3155 2688 
C 3066 2982 2982 3136 2810 3283 
C 2573 3494 2208 3610 1754 3610 
C 1299 3610 941 3494 698 3258 
C 518 3091 416 2861 416 2618 
C 416 2310 557 2054 819 1888 
C 1043 1747 1261 1677 1760 1574 
C 2246 1466 2349 1440 2490 1350 
C 2618 1274 2682 1139 2682 973 
C 2682 621 2342 397 1818 397 
C 1504 397 1267 474 1107 614 
C 986 730 934 832 890 1069 
L 262 973 
z
" transform="scale(0.015625)"/>
        <path id="HiraginoSans-W4-74" d="M 851 4480 
C 877 4262 896 4006 896 3750 
L 896 3520 
L 646 3520 
C 378 3520 250 3526 70 3558 
L 70 2995 
C 275 3021 416 3034 640 3034 
L 896 3034 
L 896 787 
C 896 461 954 269 1094 134 
C 1235 6 1466 -64 1773 -64 
C 2042 -64 2246 -26 2515 83 
L 2374 602 
C 2176 486 2048 448 1875 448 
C 1741 448 1632 486 1568 544 
C 1504 608 1478 698 1478 883 
L 1478 3034 
L 1779 3034 
C 2074 3034 2221 3027 2426 2995 
L 2426 3558 
C 2214 3526 2074 3520 1773 3520 
L 1478 3520 
L 1478 3750 
C 1478 4026 1498 4275 1523 4480 
L 851 4480 
z
" transform="scale(0.015625)"/>
        <path id="HiraginoSans-W4-72" d="M 2784 3520 
C 2522 3565 2394 3578 2195 3578 
C 1862 3578 1568 3488 1350 3315 
C 1242 3238 1165 3142 1056 2976 
C 1062 3027 1062 3040 1069 3085 
C 1069 3104 1069 3117 1069 3130 
C 1069 3162 1069 3181 1069 3187 
L 1069 3520 
L 442 3520 
C 474 3283 486 3104 486 2765 
L 486 755 
C 486 467 480 314 442 0 
L 1114 0 
C 1082 262 1069 448 1069 755 
L 1069 2022 
C 1101 2317 1158 2470 1312 2669 
C 1504 2912 1760 3034 2093 3034 
C 2259 3034 2381 3014 2618 2938 
L 2784 3520 
z
" transform="scale(0.015625)"/>
        <path id="HiraginoSans-W4-61" d="M 2765 0 
L 3373 0 
C 3334 269 3322 422 3322 736 
L 3322 2515 
C 3322 2867 3238 3110 3046 3290 
C 2816 3514 2464 3622 1978 3622 
C 1485 3622 1094 3507 813 3270 
C 627 3123 531 2976 416 2656 
L 1011 2541 
C 1069 2714 1114 2797 1197 2886 
C 1370 3066 1626 3155 1971 3155 
C 2515 3155 2765 2950 2765 2515 
L 2765 2182 
C 1933 2163 1581 2118 1197 1997 
C 646 1818 333 1434 333 941 
C 333 320 774 -58 1491 -58 
C 1741 -58 1978 -19 2195 64 
C 2406 141 2522 218 2765 429 
L 2765 0 
z
M 2765 1363 
C 2765 1126 2707 973 2554 813 
C 2304 557 1920 397 1568 397 
C 1165 397 915 608 915 941 
C 915 1235 1075 1440 1395 1568 
C 1677 1683 2035 1728 2765 1747 
L 2765 1363 
z
" transform="scale(0.015625)"/>
        <path id="HiraginoSans-W4-70" d="M 1101 -1312 
C 1069 -1075 1056 -877 1056 -550 
L 1056 128 
C 1056 301 1050 397 1037 570 
C 1363 154 1792 -51 2349 -51 
C 3334 -51 3968 659 3968 1773 
C 3968 2906 3354 3590 2336 3590 
C 1766 3590 1344 3379 1037 2944 
C 1050 3078 1050 3117 1050 3194 
L 1050 3520 
L 442 3520 
C 474 3277 486 3078 486 2752 
L 486 -557 
C 486 -845 474 -1056 442 -1312 
L 1101 -1312 
z
M 2272 442 
C 1952 442 1626 570 1421 781 
C 1197 1005 1062 1376 1062 1766 
C 1062 2547 1555 3091 2278 3091 
C 2976 3091 3373 2611 3373 1773 
C 3373 941 2957 442 2272 442 
z
" transform="scale(0.015625)"/>
       </defs>
       <use xlink:href="#HiraginoSans-W4-43"/>
       <use xlink:href="#HiraginoSans-W4-68" x="76.599991"/>
       <use xlink:href="#HiraginoSans-W4-69" x="139.899979"/>
       <use xlink:href="#HiraginoSans-W4-6e" x="164.699966"/>
       <use xlink:href="#HiraginoSans-W4-73" x="228.09996"/>
       <use xlink:href="#HiraginoSans-W4-74" x="283.399948"/>
       <use xlink:href="#HiraginoSans-W4-72" x="323.899933"/>
       <use xlink:href="#HiraginoSans-W4-61" x="368.59993"/>
       <use xlink:href="#HiraginoSans-W4-70" x="427.799927"/>
      </g>
     </g>
    </g>
    <g id="xtick_3">
     <g id="line2d_3">
      <g>
       <use xlink:href="#mf189c01805" x="240.948437" y="273.312" style="stroke: #000000; stroke-width: 0.8"/>
      </g>
     </g>
     <g id="text_3">
      <!-- Gentoo -->
      <g transform="translate(222.542969 288.021375)scale(0.1 -0.1)">
       <defs>
        <path id="HiraginoSans-W4-47" d="M 3859 2010 
L 3859 794 
C 3494 557 3104 448 2618 448 
C 2125 448 1734 602 1459 909 
C 1126 1274 947 1824 947 2496 
C 947 3731 1568 4506 2560 4506 
C 3258 4506 3648 4243 3872 3629 
L 4486 3808 
C 4346 4160 4224 4346 4013 4550 
C 3667 4877 3187 5043 2592 5043 
C 1210 5043 320 4051 320 2496 
C 320 1664 576 947 1037 493 
C 1427 115 1939 -70 2630 -70 
C 3334 -70 3808 64 4480 467 
C 4442 736 4435 890 4435 1210 
L 4435 1818 
C 4435 2125 4442 2278 4480 2566 
C 4294 2547 4115 2541 3776 2541 
L 3552 2541 
C 3181 2541 3021 2547 2835 2579 
L 2835 1971 
C 3008 2003 3162 2010 3494 2010 
L 3859 2010 
z
" transform="scale(0.015625)"/>
        <path id="HiraginoSans-W4-6f" d="M 2054 -90 
C 3110 -90 3802 640 3802 1766 
C 3802 2893 3117 3610 2042 3610 
C 966 3610 282 2886 282 1760 
C 282 627 966 -90 2054 -90 
z
M 2054 3130 
C 2771 3130 3213 2605 3213 1754 
C 3213 909 2771 397 2042 397 
C 1318 397 870 922 870 1766 
C 870 2611 1325 3130 2054 3130 
z
" transform="scale(0.015625)"/>
       </defs>
       <use xlink:href="#HiraginoSans-W4-47"/>
       <use xlink:href="#HiraginoSans-W4-65" x="76.399994"/>
       <use xlink:href="#HiraginoSans-W4-6e" x="136.599991"/>
       <use xlink:href="#HiraginoSans-W4-74" x="199.999985"/>
       <use xlink:href="#HiraginoSans-W4-6f" x="240.499969"/>
       <use xlink:href="#HiraginoSans-W4-6f" x="304.299957"/>
      </g>
     </g>
    </g>
    <g id="text_4">
     <!-- species -->
     <g transform="translate(147.483594 301.93075)scale(0.1 -0.1)">
      <defs>
       <path id="HiraginoSans-W4-63" d="M 3475 2573 
C 3405 2758 3347 2867 3251 3002 
C 2970 3405 2522 3616 1965 3616 
C 947 3616 282 2874 282 1747 
C 282 627 954 -90 1990 -90 
C 2534 -90 2970 102 3258 480 
C 3366 621 3430 742 3520 986 
L 2950 1126 
C 2899 966 2867 890 2816 806 
C 2650 550 2362 410 2010 410 
C 1312 410 870 934 870 1760 
C 870 2598 1299 3130 1984 3130 
C 2438 3130 2739 2899 2912 2413 
L 3475 2573 
z
" transform="scale(0.015625)"/>
      </defs>
      <use xlink:href="#HiraginoSans-W4-73"/>
      <use xlink:href="#HiraginoSans-W4-70" x="55.299988"/>
      <use xlink:href="#HiraginoSans-W4-65" x="121.699982"/>
      <use xlink:href="#HiraginoSans-W4-63" x="181.899979"/>
      <use xlink:href="#HiraginoSans-W4-69" x="240.999969"/>
      <use xlink:href="#HiraginoSans-W4-65" x="265.799957"/>
      <use xlink:href="#HiraginoSans-W4-73" x="325.999954"/>
     </g>
    </g>
   </g>
   <g id="matplotlib.axis_2">
    <g id="ytick_1">
     <g id="line2d_4">
      <defs>
       <path id="me11148fb16" d="M 0 0 
L -3.5 0 
" style="stroke: #000000; stroke-width: 0.8"/>
      </defs>
      <g>
       <use xlink:href="#me11148fb16" x="54.948438" y="225.869613" style="stroke: #000000; stroke-width: 0.8"/>
      </g>
     </g>
     <g id="text_5">
      <!-- 3000 -->
      <g transform="translate(21.029688 229.724301)scale(0.1 -0.1)">
       <defs>
        <path id="HiraginoSans-W4-33" d="M 282 1101 
C 397 768 474 621 621 448 
C 934 90 1434 -96 2112 -96 
C 2720 -96 3213 70 3533 384 
C 3770 614 3904 954 3904 1306 
C 3904 1677 3802 1958 3597 2182 
C 3379 2419 3130 2528 2688 2586 
C 2995 2650 3130 2701 3290 2816 
C 3578 3021 3738 3366 3738 3757 
C 3738 4538 3117 5043 2157 5043 
C 1594 5043 1146 4883 845 4576 
C 666 4390 582 4237 467 3891 
L 1107 3757 
C 1171 3981 1216 4083 1306 4192 
C 1478 4416 1741 4525 2125 4525 
C 2746 4525 3110 4224 3110 3725 
C 3110 3482 3021 3264 2867 3110 
C 2669 2918 2374 2829 1965 2829 
C 1779 2829 1613 2842 1459 2861 
L 1459 2272 
C 1651 2298 1811 2310 2003 2310 
C 2829 2310 3264 1990 3264 1376 
C 3264 794 2816 429 2106 429 
C 1779 429 1510 506 1293 666 
C 1107 800 1024 928 928 1248 
L 282 1101 
z
" transform="scale(0.015625)"/>
        <path id="HiraginoSans-W4-30" d="M 2144 -90 
C 2758 -90 3232 141 3565 602 
C 3846 998 4019 1696 4019 2464 
C 4019 3002 3936 3501 3770 3949 
C 3693 4160 3558 4371 3379 4550 
C 3078 4858 2650 5024 2157 5024 
C 1498 5024 986 4742 666 4205 
C 435 3834 288 3142 288 2458 
C 288 1939 371 1434 538 986 
C 614 768 749 563 928 384 
C 1242 70 1651 -90 2144 -90 
z
M 2144 4499 
C 2592 4499 2918 4307 3123 3923 
C 3283 3629 3398 3014 3398 2470 
C 3398 2022 3341 1619 3213 1235 
C 3155 1043 3046 870 2912 730 
C 2726 538 2458 435 2150 435 
C 1734 435 1414 614 1197 973 
C 1024 1261 902 1875 902 2451 
C 902 2906 966 3328 1088 3699 
C 1139 3866 1235 4026 1370 4173 
C 1568 4397 1818 4499 2144 4499 
z
" transform="scale(0.015625)"/>
       </defs>
       <use xlink:href="#HiraginoSans-W4-33"/>
       <use xlink:href="#HiraginoSans-W4-30" x="67.299988"/>
       <use xlink:href="#HiraginoSans-W4-30" x="134.599976"/>
       <use xlink:href="#HiraginoSans-W4-30" x="201.899963"/>
      </g>
     </g>
    </g>
    <g id="ytick_2">
     <g id="line2d_5">
      <g>
       <use xlink:href="#me11148fb16" x="54.948438" y="169.813249" style="stroke: #000000; stroke-width: 0.8"/>
      </g>
     </g>
     <g id="text_6">
      <!-- 4000 -->
      <g transform="translate(21.009375 173.667937)scale(0.1 -0.1)">
       <defs>
        <path id="HiraginoSans-W4-34" d="M 179 1210 
C 403 1229 589 1235 954 1235 
L 2688 1235 
L 2688 710 
C 2688 410 2675 218 2630 0 
L 3309 0 
C 3270 230 3258 390 3258 704 
L 3258 1235 
L 3494 1235 
C 3763 1235 3910 1222 4154 1190 
L 4154 1798 
C 3917 1766 3750 1754 3494 1754 
L 3258 1754 
L 3258 3853 
C 3258 4358 3264 4544 3296 4934 
L 2701 4934 
C 2560 4704 2445 4550 2214 4269 
L 621 2298 
C 467 2099 326 1939 179 1773 
L 179 1210 
z
M 2688 1747 
L 858 1747 
L 2259 3514 
C 2464 3763 2592 3936 2720 4128 
C 2694 3814 2688 3622 2688 3283 
L 2688 1747 
z
" transform="scale(0.015625)"/>
       </defs>
       <use xlink:href="#HiraginoSans-W4-34"/>
       <use xlink:href="#HiraginoSans-W4-30" x="67.499985"/>
       <use xlink:href="#HiraginoSans-W4-30" x="134.799973"/>
       <use xlink:href="#HiraginoSans-W4-30" x="202.09996"/>
      </g>
     </g>
    </g>
    <g id="ytick_3">
     <g id="line2d_6">
      <g>
       <use xlink:href="#me11148fb16" x="54.948438" y="113.756885" style="stroke: #000000; stroke-width: 0.8"/>
      </g>
     </g>
     <g id="text_7">
      <!-- 5000 -->
      <g transform="translate(21.029688 117.611572)scale(0.1 -0.1)">
       <defs>
        <path id="HiraginoSans-W4-35" d="M 1331 4416 
L 2835 4416 
C 3155 4416 3366 4403 3622 4365 
L 3622 4986 
C 3360 4947 3206 4934 2829 4934 
L 1446 4934 
C 1082 4934 954 4941 762 4966 
C 774 4768 774 4762 774 4742 
C 774 4563 774 4518 749 4307 
L 608 2822 
C 589 2566 570 2445 518 2157 
L 1088 2106 
C 1146 2240 1178 2291 1261 2374 
C 1485 2605 1811 2739 2131 2739 
C 2842 2739 3264 2317 3264 1613 
C 3264 902 2803 435 2106 435 
C 1747 435 1440 563 1235 794 
C 1146 902 1101 986 1037 1171 
L 410 1005 
C 557 685 646 544 813 378 
C 1133 64 1562 -96 2099 -96 
C 3194 -96 3885 576 3885 1638 
C 3885 2605 3245 3238 2272 3238 
C 1830 3238 1472 3098 1158 2803 
C 1197 2982 1197 2982 1203 3091 
L 1331 4416 
z
" transform="scale(0.015625)"/>
       </defs>
       <use xlink:href="#HiraginoSans-W4-35"/>
       <use xlink:href="#HiraginoSans-W4-30" x="67.299988"/>
       <use xlink:href="#HiraginoSans-W4-30" x="134.599976"/>
       <use xlink:href="#HiraginoSans-W4-30" x="201.899963"/>
      </g>
     </g>
    </g>
    <g id="ytick_4">
     <g id="line2d_7">
      <g>
       <use xlink:href="#me11148fb16" x="54.948438" y="57.70052" style="stroke: #000000; stroke-width: 0.8"/>
      </g>
     </g>
     <g id="text_8">
      <!-- 6000 -->
      <g transform="translate(21.029688 61.555208)scale(0.1 -0.1)">
       <defs>
        <path id="HiraginoSans-W4-36" d="M 3846 3994 
C 3706 4301 3616 4442 3462 4602 
C 3187 4877 2784 5024 2304 5024 
C 1683 5024 1222 4794 864 4307 
C 557 3891 371 3162 371 2355 
C 371 1446 614 704 1043 320 
C 1331 58 1773 -90 2253 -90 
C 3277 -90 3968 589 3968 1587 
C 3968 2586 3334 3213 2323 3213 
C 1894 3213 1568 3104 1274 2854 
C 1133 2739 1062 2656 941 2458 
C 979 3085 1043 3392 1210 3763 
C 1434 4262 1798 4518 2285 4518 
C 2765 4518 3040 4314 3238 3821 
L 3846 3994 
z
M 2266 2714 
C 2950 2714 3366 2285 3366 1574 
C 3366 1325 3309 1088 3206 922 
C 3008 614 2643 422 2234 422 
C 1568 422 1069 915 1069 1574 
C 1069 2234 1574 2714 2266 2714 
z
" transform="scale(0.015625)"/>
       </defs>
       <use xlink:href="#HiraginoSans-W4-36"/>
       <use xlink:href="#HiraginoSans-W4-30" x="67.299988"/>
       <use xlink:href="#HiraginoSans-W4-30" x="134.599976"/>
       <use xlink:href="#HiraginoSans-W4-30" x="201.899963"/>
      </g>
     </g>
    </g>
    <g id="text_9">
     <!-- body_mass_g -->
     <g transform="translate(14.909375 174.491156)rotate(-90)scale(0.1 -0.1)">
      <defs>
       <path id="HiraginoSans-W4-62" d="M 1050 0 
L 1050 314 
C 1043 448 1043 448 1037 506 
C 1037 518 1037 538 1037 557 
C 1338 141 1766 -64 2317 -64 
C 3341 -64 3962 634 3962 1786 
C 3962 2918 3360 3597 2355 3597 
C 1779 3597 1344 3379 1037 2931 
C 1050 3078 1056 3206 1056 3386 
L 1056 4173 
C 1056 4499 1069 4691 1101 4934 
L 442 4934 
C 474 4666 486 4461 486 4173 
L 486 774 
C 486 442 474 243 442 0 
L 1050 0 
z
M 3366 1786 
C 3366 941 2950 429 2259 429 
C 1555 429 1062 986 1062 1779 
C 1062 2566 1562 3104 2285 3104 
C 2970 3104 3366 2618 3366 1786 
z
" transform="scale(0.015625)"/>
       <path id="HiraginoSans-W4-79" d="M 1600 154 
L 1325 -486 
C 1229 -710 1069 -832 858 -832 
C 730 -832 621 -800 442 -717 
L 301 -1274 
C 550 -1325 710 -1344 864 -1344 
C 1357 -1344 1664 -1146 1843 -717 
L 3283 2758 
C 3462 3181 3571 3437 3603 3520 
L 2912 3520 
C 2880 3334 2829 3168 2694 2816 
L 1901 768 
L 1011 2822 
C 902 3072 819 3341 787 3520 
L 64 3520 
C 134 3386 134 3386 422 2758 
L 1600 154 
z
" transform="scale(0.015625)"/>
       <path id="HiraginoSans-W4-5f" d="M 0 -608 
L 0 -902 
L 3213 -902 
L 3213 -608 
L 0 -608 
z
" transform="scale(0.015625)"/>
       <path id="HiraginoSans-W4-6d" d="M 1107 0 
C 1075 262 1062 442 1062 755 
L 1062 2016 
C 1062 2144 1178 2464 1286 2624 
C 1485 2912 1786 3091 2074 3091 
C 2528 3091 2765 2803 2765 2246 
L 2765 755 
C 2765 422 2752 230 2720 0 
L 3392 0 
C 3360 230 3347 416 3347 749 
L 3347 2016 
C 3347 2176 3456 2483 3571 2650 
C 3763 2931 4045 3091 4346 3091 
C 4525 3091 4672 3053 4781 2976 
C 4973 2842 5043 2637 5043 2246 
L 5043 755 
C 5043 403 5037 256 4998 0 
L 5670 0 
C 5638 230 5626 416 5626 749 
L 5626 2336 
C 5626 2733 5555 2995 5382 3206 
C 5184 3462 4864 3590 4442 3590 
C 3898 3590 3552 3398 3232 2925 
C 3168 3104 3130 3181 3034 3277 
C 2842 3488 2566 3590 2202 3590 
C 1690 3590 1280 3373 1050 2970 
C 1050 3008 1050 3008 1056 3066 
C 1056 3085 1062 3181 1062 3200 
L 1062 3520 
L 442 3520 
C 474 3290 486 3117 486 2765 
L 486 755 
C 486 435 474 243 442 0 
L 1107 0 
z
" transform="scale(0.015625)"/>
       <path id="HiraginoSans-W4-67" d="M 416 -678 
C 838 -1146 1261 -1325 1920 -1325 
C 2509 -1325 3014 -1152 3290 -858 
C 3578 -557 3699 -147 3699 531 
L 3699 2778 
C 3699 3091 3712 3258 3744 3520 
L 3142 3520 
L 3142 3194 
C 3142 3123 3142 3078 3155 2976 
C 2886 3373 2477 3578 1939 3578 
C 928 3578 288 2880 288 1792 
C 288 710 915 26 1907 26 
C 2285 26 2630 134 2880 326 
C 2989 416 3053 493 3155 659 
C 3142 237 3098 -38 3027 -218 
C 2861 -627 2470 -851 1933 -851 
C 1485 -851 1165 -698 896 -346 
L 416 -678 
z
M 883 1779 
C 883 2592 1306 3098 1990 3098 
C 2675 3098 3130 2592 3130 1830 
C 3130 1037 2650 499 1952 499 
C 1293 499 883 992 883 1779 
z
" transform="scale(0.015625)"/>
      </defs>
      <use xlink:href="#HiraginoSans-W4-62"/>
      <use xlink:href="#HiraginoSans-W4-6f" x="66.299988"/>
      <use xlink:href="#HiraginoSans-W4-64" x="130.099976"/>
      <use xlink:href="#HiraginoSans-W4-79" x="196.399963"/>
      <use xlink:href="#HiraginoSans-W4-5f" x="253.799957"/>
      <use xlink:href="#HiraginoSans-W4-6d" x="303.999954"/>
      <use xlink:href="#HiraginoSans-W4-61" x="399.399948"/>
      <use xlink:href="#HiraginoSans-W4-73" x="458.599945"/>
      <use xlink:href="#HiraginoSans-W4-73" x="513.899933"/>
      <use xlink:href="#HiraginoSans-W4-5f" x="569.199921"/>
      <use xlink:href="#HiraginoSans-W4-67" x="619.399918"/>
     </g>
    </g>
   </g>
   <g id="patch_3">
    <path d="M 54.948438 273.312 
L 54.948438 7.2 
" style="fill: none; stroke: #000000; stroke-width: 0.8; stroke-linejoin: miter; stroke-linecap: square"/>
   </g>
   <g id="patch_4">
    <path d="M 278.148438 273.312 
L 278.148438 7.2 
" style="fill: none; stroke: #000000; stroke-width: 0.8; stroke-linejoin: miter; stroke-linecap: square"/>
   </g>
   <g id="patch_5">
    <path d="M 54.948438 273.312 
L 278.148438 273.312 
" style="fill: none; stroke: #000000; stroke-width: 0.8; stroke-linejoin: miter; stroke-linecap: square"/>
   </g>
   <g id="patch_6">
    <path d="M 54.948438 7.2 
L 278.148438 7.2 
" style="fill: none; stroke: #000000; stroke-width: 0.8; stroke-linejoin: miter; stroke-linecap: square"/>
   </g>
  </g>
 </g>
 <defs>
  <clipPath id="p1c95e8b685">
   <rect x="54.948438" y="7.2" width="223.2" height="266.112"/>
  </clipPath>
 </defs>
</svg>
