<?xml version="1.0" encoding="utf-8" standalone="no"?>
<!DOCTYPE svg PUBLIC "-//W3C//DTD SVG 1.1//EN"
  "http://www.w3.org/Graphics/SVG/1.1/DTD/svg11.dtd">
<svg xmlns:xlink="http://www.w3.org/1999/xlink" width="285.348437pt" height="311.18075pt" viewBox="0 0 285.348437 311.18075" xmlns="http://www.w3.org/2000/svg" version="1.1">
 <metadata>
  <rdf:RDF xmlns:dc="http://purl.org/dc/elements/1.1/" xmlns:cc="http://creativecommons.org/ns#" xmlns:rdf="http://www.w3.org/1999/02/22-rdf-syntax-ns#">
   <cc:Work>
    <dc:type rdf:resource="http://purl.org/dc/dcmitype/StillImage"/>
    <dc:date>2022-09-06T11:11:25.820946</dc:date>
    <dc:format>image/svg+xml</dc:format>
    <dc:creator>
     <cc:Agent>
      <dc:title>Matplotlib v3.5.3, https://matplotlib.org/</dc:title>
     </cc:Agent>
    </dc:creator>
   </cc:Work>
  </rdf:RDF>
 </metadata>
 <defs>
  <style type="text/css">*{stroke-linejoin: round; stroke-linecap: butt}</style>
 </defs>
 <g id="figure_1">
  <g id="patch_1">
   <path d="M 0 311.18075 
L 285.348437 311.18075 
L 285.348437 0 
L 0 0 
z
" style="fill: #ffffff"/>
  </g>
  <g id="axes_1">
   <g id="patch_2">
    <path d="M 54.948438 273.312 
L 278.148438 273.312 
L 278.148438 7.2 
L 54.948438 7.2 
z
" style="fill: #ffffff"/>
   </g>
   <g id="PolyCollection_1">
    <defs>
     <path id="mdb28f43351" d="M 92.428322 -58.054846 
L 91.868553 -58.054846 
L 91.752781 -59.525595 
L 91.600659 -60.996344 
L 91.405401 -62.467093 
L 91.160516 -63.937842 
L 90.860315 -65.408592 
L 90.500448 -66.879341 
L 90.078377 -68.35009 
L 89.593733 -69.820839 
L 89.048479 -71.291589 
L 88.446847 -72.762338 
L 87.795046 -74.233087 
L 87.100753 -75.703836 
L 86.372477 -77.174586 
L 85.618849 -78.645335 
L 84.847953 -80.116084 
L 84.066777 -81.586833 
L 83.280829 -83.057583 
L 82.493973 -84.528332 
L 81.70846 -85.999081 
L 80.925149 -87.46983 
L 80.143859 -88.940579 
L 79.36382 -90.411329 
L 78.584189 -91.882078 
L 77.804566 -93.352827 
L 77.025519 -94.823576 
L 76.249049 -96.294326 
L 75.478964 -97.765075 
L 74.721117 -99.235824 
L 73.983431 -100.706573 
L 73.275675 -102.177323 
L 72.608945 -103.648072 
L 71.994874 -105.118821 
L 71.444624 -106.58957 
L 70.967765 -108.060319 
L 70.571224 -109.531069 
L 70.258454 -111.001818 
L 70.02901 -112.472567 
L 69.87862 -113.943316 
L 69.7998 -115.414066 
L 69.782938 -116.884815 
L 69.81769 -118.355564 
L 69.894477 -119.826313 
L 70.005826 -121.297063 
L 70.147346 -122.767812 
L 70.31817 -124.238561 
L 70.520812 -125.70931 
L 70.760454 -127.18006 
L 71.043802 -128.650809 
L 71.377673 -130.121558 
L 71.767547 -131.592307 
L 72.216266 -133.063056 
L 72.723073 -134.533806 
L 73.283115 -136.004555 
L 73.887477 -137.475304 
L 74.523757 -138.946053 
L 75.177123 -140.416803 
L 75.831731 -141.887552 
L 76.472338 -143.358301 
L 77.085889 -144.82905 
L 77.662886 -146.2998 
L 78.198321 -147.770549 
L 78.692044 -149.241298 
L 79.148505 -150.712047 
L 79.575894 -152.182797 
L 79.984832 -153.653546 
L 80.386783 -155.124295 
L 80.792446 -156.595044 
L 81.210366 -158.065793 
L 81.645937 -159.536543 
L 82.100947 -161.007292 
L 82.573668 -162.478041 
L 83.059454 -163.94879 
L 83.551713 -165.41954 
L 84.043071 -166.890289 
L 84.526549 -168.361038 
L 84.996562 -169.831787 
L 85.449607 -171.302537 
L 85.884563 -172.773286 
L 86.302567 -174.244035 
L 86.706535 -175.714784 
L 87.10041 -177.185533 
L 87.48828 -178.656283 
L 87.873522 -180.127032 
L 88.258096 -181.597781 
L 88.642111 -183.06853 
L 89.023702 -184.53928 
L 89.399229 -186.010029 
L 89.763739 -187.480778 
L 90.111601 -188.951527 
L 90.437204 -190.422277 
L 90.735603 -191.893026 
L 91.003033 -193.363775 
L 91.237222 -194.834524 
L 91.4375 -196.305274 
L 91.60471 -197.776023 
L 91.74097 -199.246772 
L 91.849338 -200.717521 
L 91.933447 -202.18827 
L 91.997154 -203.65902 
L 92.299721 -203.65902 
L 92.299721 -203.65902 
L 92.363428 -202.18827 
L 92.447537 -200.717521 
L 92.555905 -199.246772 
L 92.692165 -197.776023 
L 92.859375 -196.305274 
L 93.059653 -194.834524 
L 93.293842 -193.363775 
L 93.561272 -191.893026 
L 93.859671 -190.422277 
L 94.185274 -188.951527 
L 94.533136 -187.480778 
L 94.897646 -186.010029 
L 95.273173 -184.53928 
L 95.654764 -183.06853 
L 96.038779 -181.597781 
L 96.423353 -180.127032 
L 96.808595 -178.656283 
L 97.196465 -177.185533 
L 97.59034 -175.714784 
L 97.994308 -174.244035 
L 98.412312 -172.773286 
L 98.847268 -171.302537 
L 99.300313 -169.831787 
L 99.770326 -168.361038 
L 100.253804 -166.890289 
L 100.745162 -165.41954 
L 101.237421 -163.94879 
L 101.723207 -162.478041 
L 102.195928 -161.007292 
L 102.650938 -159.536543 
L 103.086509 -158.065793 
L 103.504429 -156.595044 
L 103.910092 -155.124295 
L 104.312043 -153.653546 
L 104.720981 -152.182797 
L 105.14837 -150.712047 
L 105.604831 -149.241298 
L 106.098554 -147.770549 
L 106.633989 -146.2998 
L 107.210986 -144.82905 
L 107.824537 -143.358301 
L 108.465144 -141.887552 
L 109.119752 -140.416803 
L 109.773118 -138.946053 
L 110.409398 -137.475304 
L 111.01376 -136.004555 
L 111.573802 -134.533806 
L 112.080609 -133.063056 
L 112.529328 -131.592307 
L 112.919202 -130.121558 
L 113.253073 -128.650809 
L 113.536421 -127.18006 
L 113.776063 -125.70931 
L 113.978705 -124.238561 
L 114.149529 -122.767812 
L 114.291049 -121.297063 
L 114.402398 -119.826313 
L 114.479185 -118.355564 
L 114.513937 -116.884815 
L 114.497075 -115.414066 
L 114.418255 -113.943316 
L 114.267865 -112.472567 
L 114.038421 -111.001818 
L 113.725651 -109.531069 
L 113.32911 -108.060319 
L 112.852251 -106.58957 
L 112.302001 -105.118821 
L 111.68793 -103.648072 
L 111.0212 -102.177323 
L 110.313444 -100.706573 
L 109.575758 -99.235824 
L 108.817911 -97.765075 
L 108.047826 -96.294326 
L 107.271356 -94.823576 
L 106.492309 -93.352827 
L 105.712686 -91.882078 
L 104.933055 -90.411329 
L 104.153016 -88.940579 
L 103.371726 -87.46983 
L 102.588415 -85.999081 
L 101.802902 -84.528332 
L 101.016046 -83.057583 
L 100.230098 -81.586833 
L 99.448922 -80.116084 
L 98.678026 -78.645335 
L 97.924398 -77.174586 
L 97.196122 -75.703836 
L 96.501829 -74.233087 
L 95.850028 -72.762338 
L 95.248396 -71.291589 
L 94.703142 -69.820839 
L 94.218498 -68.35009 
L 93.796427 -66.879341 
L 93.43656 -65.408592 
L 93.136359 -63.937842 
L 92.891474 -62.467093 
L 92.696216 -60.996344 
L 92.544094 -59.525595 
L 92.428322 -58.054846 
z
" style="stroke: #3d3d3d; stroke-width: 1.5"/>
    </defs>
    <g clip-path="url(#p0eeac7f3f9)">
     <use xlink:href="#mdb28f43351" x="0" y="311.18075" style="fill: #3274a1; stroke: #3d3d3d; stroke-width: 1.5"/>
    </g>
   </g>
   <g id="PolyCollection_2">
    <defs>
     <path id="m6dceb48c37" d="M 166.691207 -49.96475 
L 166.405668 -49.96475 
L 166.349347 -51.528157 
L 166.278061 -53.091565 
L 166.1907 -54.654972 
L 166.087071 -56.218379 
L 165.968126 -57.781786 
L 165.836082 -59.345194 
L 165.69438 -60.908601 
L 165.54746 -62.472008 
L 165.400377 -64.035415 
L 165.258262 -65.598823 
L 165.125706 -67.16223 
L 165.006096 -68.725637 
L 164.900964 -70.289045 
L 164.809376 -71.852452 
L 164.727364 -73.415859 
L 164.647457 -74.979266 
L 164.558329 -76.542674 
L 164.44465 -78.106081 
L 164.287268 -79.669488 
L 164.063829 -81.232895 
L 163.749951 -82.796303 
L 163.320982 -84.35971 
L 162.75426 -85.923117 
L 162.031677 -87.486524 
L 161.142204 -89.049932 
L 160.083987 -90.613339 
L 158.865594 -92.176746 
L 157.506098 -93.740154 
L 156.033836 -95.303561 
L 154.48391 -96.866968 
L 152.89473 -98.430375 
L 151.304094 -99.993783 
L 149.745425 -101.55719 
L 148.244797 -103.120597 
L 146.819256 -104.684004 
L 145.476756 -106.247412 
L 144.217708 -107.810819 
L 143.037878 -109.374226 
L 141.93207 -110.937634 
L 140.897893 -112.501041 
L 139.93885 -114.064448 
L 139.066097 -115.627855 
L 138.298481 -117.191263 
L 137.660762 -118.75467 
L 137.180316 -120.318077 
L 136.882923 -121.881484 
L 136.788437 -123.444892 
L 136.907206 -125.008299 
L 137.237937 -126.571706 
L 137.76746 -128.135113 
L 138.472415 -129.698521 
L 139.322522 -131.261928 
L 140.284757 -132.825335 
L 141.327587 -134.388743 
L 142.424427 -135.95215 
L 143.555691 -137.515557 
L 144.709122 -139.078964 
L 145.878483 -140.642372 
L 147.061057 -142.205779 
L 148.254608 -143.769186 
L 149.454584 -145.332593 
L 150.652204 -146.896001 
L 151.833844 -148.459408 
L 152.981848 -150.022815 
L 154.076514 -151.586223 
L 155.098813 -153.14963 
L 156.033231 -154.713037 
L 156.87014 -156.276444 
L 157.60724 -157.839852 
L 158.249824 -159.403259 
L 158.80985 -160.966666 
L 159.304036 -162.530073 
L 159.751343 -164.093481 
L 160.170306 -165.656888 
L 160.576645 -167.220295 
L 160.981516 -168.783702 
L 161.390641 -170.34711 
L 161.804373 -171.910517 
L 162.218604 -173.473924 
L 162.626277 -175.037332 
L 163.019192 -176.600739 
L 163.389736 -178.164146 
L 163.732257 -179.727553 
L 164.043851 -181.290961 
L 164.324502 -182.854368 
L 164.576626 -184.417775 
L 164.804215 -185.981182 
L 165.011802 -187.54459 
L 165.203509 -189.107997 
L 165.382352 -190.671404 
L 165.549917 -192.234812 
L 165.706405 -193.798219 
L 165.850974 -195.361626 
L 165.982236 -196.925033 
L 166.098782 -198.488441 
L 166.199614 -200.051848 
L 166.284417 -201.615255 
L 166.35364 -203.178662 
L 166.408436 -204.74207 
L 166.688439 -204.74207 
L 166.688439 -204.74207 
L 166.743235 -203.178662 
L 166.812458 -201.615255 
L 166.897261 -200.051848 
L 166.998093 -198.488441 
L 167.114639 -196.925033 
L 167.245901 -195.361626 
L 167.39047 -193.798219 
L 167.546958 -192.234812 
L 167.714523 -190.671404 
L 167.893366 -189.107997 
L 168.085073 -187.54459 
L 168.29266 -185.981182 
L 168.520249 -184.417775 
L 168.772373 -182.854368 
L 169.053024 -181.290961 
L 169.364618 -179.727553 
L 169.707139 -178.164146 
L 170.077683 -176.600739 
L 170.470598 -175.037332 
L 170.878271 -173.473924 
L 171.292502 -171.910517 
L 171.706234 -170.34711 
L 172.115359 -168.783702 
L 172.52023 -167.220295 
L 172.926569 -165.656888 
L 173.345532 -164.093481 
L 173.792839 -162.530073 
L 174.287025 -160.966666 
L 174.847051 -159.403259 
L 175.489635 -157.839852 
L 176.226735 -156.276444 
L 177.063644 -154.713037 
L 177.998062 -153.14963 
L 179.020361 -151.586223 
L 180.115027 -150.022815 
L 181.263031 -148.459408 
L 182.444671 -146.896001 
L 183.642291 -145.332593 
L 184.842267 -143.769186 
L 186.035818 -142.205779 
L 187.218392 -140.642372 
L 188.387753 -139.078964 
L 189.541184 -137.515557 
L 190.672448 -135.95215 
L 191.769288 -134.388743 
L 192.812118 -132.825335 
L 193.774353 -131.261928 
L 194.62446 -129.698521 
L 195.329415 -128.135113 
L 195.858938 -126.571706 
L 196.189669 -125.008299 
L 196.308437 -123.444892 
L 196.213952 -121.881484 
L 195.916559 -120.318077 
L 195.436113 -118.75467 
L 194.798394 -117.191263 
L 194.030778 -115.627855 
L 193.158025 -114.064448 
L 192.198982 -112.501041 
L 191.164805 -110.937634 
L 190.058997 -109.374226 
L 188.879167 -107.810819 
L 187.620119 -106.247412 
L 186.277619 -104.684004 
L 184.852078 -103.120597 
L 183.35145 -101.55719 
L 181.792781 -99.993783 
L 180.202145 -98.430375 
L 178.612965 -96.866968 
L 177.063039 -95.303561 
L 175.590777 -93.740154 
L 174.231281 -92.176746 
L 173.012888 -90.613339 
L 171.954671 -89.049932 
L 171.065198 -87.486524 
L 170.342615 -85.923117 
L 169.775893 -84.35971 
L 169.346924 -82.796303 
L 169.033046 -81.232895 
L 168.809607 -79.669488 
L 168.652225 -78.106081 
L 168.538546 -76.542674 
L 168.449418 -74.979266 
L 168.369511 -73.415859 
L 168.287499 -71.852452 
L 168.195911 -70.289045 
L 168.090779 -68.725637 
L 167.971169 -67.16223 
L 167.838613 -65.598823 
L 167.696498 -64.035415 
L 167.549415 -62.472008 
L 167.402495 -60.908601 
L 167.260793 -59.345194 
L 167.128749 -57.781786 
L 167.009804 -56.218379 
L 166.906175 -54.654972 
L 166.818814 -53.091565 
L 166.747528 -51.528157 
L 166.691207 -49.96475 
z
" style="stroke: #3d3d3d; stroke-width: 1.5"/>
    </defs>
    <g clip-path="url(#p0eeac7f3f9)">
     <use xlink:href="#m6dceb48c37" x="0" y="311.18075" style="fill: #e1812c; stroke: #3d3d3d; stroke-width: 1.5"/>
    </g>
   </g>
   <g id="PolyCollection_3">
    <defs>
     <path id="m4c802eef04" d="M 241.035535 -116.977072 
L 240.86134 -116.977072 
L 240.823562 -118.743816 
L 240.772927 -120.51056 
L 240.706426 -122.277304 
L 240.620762 -124.044048 
L 240.512422 -125.810793 
L 240.377773 -127.577537 
L 240.213178 -129.344281 
L 240.015134 -131.111025 
L 239.780435 -132.87777 
L 239.506354 -134.644514 
L 239.190842 -136.411258 
L 238.832708 -138.178002 
L 238.431786 -139.944747 
L 237.989026 -141.711491 
L 237.506497 -143.478235 
L 236.987261 -145.244979 
L 236.435113 -147.011723 
L 235.854196 -148.778468 
L 235.248509 -150.545212 
L 234.621383 -152.311956 
L 233.974994 -154.0787 
L 233.310021 -155.845445 
L 232.625535 -157.612189 
L 231.919211 -159.378933 
L 231.187901 -161.145677 
L 230.428542 -162.912421 
L 229.639326 -164.679166 
L 228.820943 -166.44591 
L 227.977703 -168.212654 
L 227.118287 -169.979398 
L 226.255947 -171.746143 
L 225.40803 -173.512887 
L 224.59486 -175.279631 
L 223.838098 -177.046375 
L 223.158828 -178.81312 
L 222.575671 -180.579864 
L 222.103176 -182.346608 
L 221.750717 -184.113352 
L 221.52195 -185.880096 
L 221.41483 -187.646841 
L 221.422063 -189.413585 
L 221.531841 -191.180329 
L 221.728741 -192.947073 
L 221.994669 -194.713818 
L 222.309838 -196.480562 
L 222.653756 -198.247306 
L 223.006264 -200.01405 
L 223.348599 -201.780794 
L 223.664451 -203.547539 
L 223.940934 -205.314283 
L 224.169377 -207.081027 
L 224.34583 -208.847771 
L 224.471238 -210.614516 
L 224.551249 -212.38126 
L 224.595704 -214.148004 
L 224.617851 -215.914748 
L 224.633372 -217.681492 
L 224.659304 -219.448237 
L 224.712914 -221.214981 
L 224.810585 -222.981725 
L 224.966778 -224.748469 
L 225.193113 -226.515214 
L 225.497644 -228.281958 
L 225.884385 -230.048702 
L 226.353153 -231.815446 
L 226.899753 -233.582191 
L 227.516493 -235.348935 
L 228.192976 -237.115679 
L 228.917069 -238.882423 
L 229.675906 -240.649167 
L 230.456803 -242.415912 
L 231.247959 -244.182656 
L 232.038877 -245.9494 
L 232.82049 -247.716144 
L 233.585046 -249.482889 
L 234.325833 -251.249633 
L 235.036877 -253.016377 
L 235.712718 -254.783121 
L 236.348339 -256.549865 
L 236.939266 -258.31661 
L 237.481829 -260.083354 
L 237.973478 -261.850098 
L 238.413077 -263.616842 
L 238.801079 -265.383587 
L 239.139509 -267.150331 
L 239.43176 -268.917075 
L 239.682223 -270.683819 
L 239.89583 -272.450564 
L 240.077581 -274.217308 
L 240.232155 -275.984052 
L 240.363641 -277.750796 
L 240.475423 -279.51754 
L 240.570194 -281.284285 
L 240.650065 -283.051029 
L 240.716735 -284.817773 
L 240.771645 -286.584517 
L 240.816118 -288.351262 
L 240.851433 -290.118006 
L 240.878864 -291.88475 
L 241.018011 -291.88475 
L 241.018011 -291.88475 
L 241.045442 -290.118006 
L 241.080757 -288.351262 
L 241.12523 -286.584517 
L 241.18014 -284.817773 
L 241.24681 -283.051029 
L 241.326681 -281.284285 
L 241.421452 -279.51754 
L 241.533234 -277.750796 
L 241.66472 -275.984052 
L 241.819294 -274.217308 
L 242.001045 -272.450564 
L 242.214652 -270.683819 
L 242.465115 -268.917075 
L 242.757366 -267.150331 
L 243.095796 -265.383587 
L 243.483798 -263.616842 
L 243.923397 -261.850098 
L 244.415046 -260.083354 
L 244.957609 -258.31661 
L 245.548536 -256.549865 
L 246.184157 -254.783121 
L 246.859998 -253.016377 
L 247.571042 -251.249633 
L 248.311829 -249.482889 
L 249.076385 -247.716144 
L 249.857998 -245.9494 
L 250.648916 -244.182656 
L 251.440072 -242.415912 
L 252.220969 -240.649167 
L 252.979806 -238.882423 
L 253.703899 -237.115679 
L 254.380382 -235.348935 
L 254.997122 -233.582191 
L 255.543722 -231.815446 
L 256.01249 -230.048702 
L 256.399231 -228.281958 
L 256.703762 -226.515214 
L 256.930097 -224.748469 
L 257.08629 -222.981725 
L 257.183961 -221.214981 
L 257.237571 -219.448237 
L 257.263503 -217.681492 
L 257.279024 -215.914748 
L 257.301171 -214.148004 
L 257.345626 -212.38126 
L 257.425637 -210.614516 
L 257.551045 -208.847771 
L 257.727498 -207.081027 
L 257.955941 -205.314283 
L 258.232424 -203.547539 
L 258.548276 -201.780794 
L 258.890611 -200.01405 
L 259.243119 -198.247306 
L 259.587037 -196.480562 
L 259.902206 -194.713818 
L 260.168134 -192.947073 
L 260.365034 -191.180329 
L 260.474812 -189.413585 
L 260.482045 -187.646841 
L 260.374925 -185.880096 
L 260.146158 -184.113352 
L 259.793699 -182.346608 
L 259.321204 -180.579864 
L 258.738047 -178.81312 
L 258.058777 -177.046375 
L 257.302015 -175.279631 
L 256.488845 -173.512887 
L 255.640928 -171.746143 
L 254.778588 -169.979398 
L 253.919172 -168.212654 
L 253.075932 -166.44591 
L 252.257549 -164.679166 
L 251.468333 -162.912421 
L 250.708974 -161.145677 
L 249.977664 -159.378933 
L 249.27134 -157.612189 
L 248.586854 -155.845445 
L 247.921881 -154.0787 
L 247.275492 -152.311956 
L 246.648366 -150.545212 
L 246.042679 -148.778468 
L 245.461762 -147.011723 
L 244.909614 -145.244979 
L 244.390378 -143.478235 
L 243.907849 -141.711491 
L 243.465089 -139.944747 
L 243.064167 -138.178002 
L 242.706033 -136.411258 
L 242.390521 -134.644514 
L 242.11644 -132.87777 
L 241.881741 -131.111025 
L 241.683697 -129.344281 
L 241.519102 -127.577537 
L 241.384453 -125.810793 
L 241.276113 -124.044048 
L 241.190449 -122.277304 
L 241.123948 -120.51056 
L 241.073313 -118.743816 
L 241.035535 -116.977072 
z
" style="stroke: #3d3d3d; stroke-width: 1.5"/>
    </defs>
    <g clip-path="url(#p0eeac7f3f9)">
     <use xlink:href="#m4c802eef04" x="0" y="311.18075" style="fill: #3a923a; stroke: #3d3d3d; stroke-width: 1.5"/>
    </g>
   </g>
   <g id="matplotlib.axis_1">
    <g id="xtick_1">
     <g id="line2d_1">
      <defs>
       <path id="m5d17f18d3e" d="M 0 0 
L 0 3.5 
" style="stroke: #000000; stroke-width: 0.8"/>
      </defs>
      <g>
       <use xlink:href="#m5d17f18d3e" x="92.148438" y="273.312" style="stroke: #000000; stroke-width: 0.8"/>
      </g>
     </g>
     <g id="text_1">
      <!-- Adelie -->
      <g transform="translate(76.528906 288.021375)scale(0.1 -0.1)">
       <defs>
        <path id="HiraginoSans-W4-41" d="M 4826 0 
C 4730 166 4646 352 4486 742 
L 3053 4326 
C 2899 4710 2867 4806 2835 4934 
L 2054 4934 
C 2022 4781 1971 4634 1850 4326 
L 422 742 
C 269 358 198 205 83 0 
L 858 0 
C 902 230 954 397 1056 659 
L 1363 1453 
L 3546 1453 
L 3859 659 
C 3930 467 4006 218 4051 0 
L 4826 0 
z
M 3366 1978 
L 1542 1978 
L 2317 4026 
C 2330 4058 2349 4122 2381 4211 
C 2394 4256 2419 4333 2451 4422 
C 2566 4083 2566 4083 2586 4026 
L 3366 1978 
z
" transform="scale(0.015625)"/>
        <path id="HiraginoSans-W4-64" d="M 3187 0 
L 3802 0 
C 3770 250 3757 442 3757 774 
L 3757 4173 
C 3757 4467 3770 4666 3802 4934 
L 3142 4934 
C 3174 4691 3187 4486 3187 4173 
L 3187 3398 
C 3187 3296 3187 3194 3194 3149 
C 3200 3040 3200 3040 3206 2970 
C 2918 3379 2470 3597 1901 3597 
C 909 3597 282 2886 282 1766 
C 282 1171 461 672 794 339 
C 1069 70 1446 -64 1914 -64 
C 2483 -64 2880 128 3206 563 
C 3200 480 3187 365 3187 288 
L 3187 0 
z
M 1971 3098 
C 2310 3098 2618 2976 2842 2752 
C 3059 2541 3181 2189 3181 1786 
C 3181 966 2707 429 1978 429 
C 1709 429 1459 512 1274 672 
C 1024 890 883 1280 883 1786 
C 883 2598 1293 3098 1971 3098 
z
" transform="scale(0.015625)"/>
        <path id="HiraginoSans-W4-65" d="M 3578 1651 
C 3558 1971 3546 2106 3533 2170 
C 3405 3066 2797 3610 1933 3610 
C 934 3610 282 2880 282 1760 
C 282 621 941 -96 1978 -96 
C 2470 -96 2880 64 3187 371 
C 3341 518 3424 646 3546 915 
L 3008 1114 
C 2944 928 2899 845 2803 742 
C 2605 512 2323 390 1984 390 
C 1613 390 1312 531 1114 800 
C 947 1024 883 1235 858 1651 
L 3578 1651 
z
M 877 2118 
C 915 2349 947 2451 1037 2605 
C 1229 2944 1542 3130 1920 3130 
C 2221 3130 2464 3040 2656 2854 
C 2842 2669 2938 2451 2976 2118 
L 877 2118 
z
" transform="scale(0.015625)"/>
        <path id="HiraginoSans-W4-6c" d="M 442 4934 
C 474 4704 486 4518 486 4179 
L 486 755 
C 486 429 474 250 442 0 
L 1120 0 
C 1088 262 1075 448 1075 755 
L 1075 4179 
C 1075 4512 1088 4698 1120 4934 
L 442 4934 
z
" transform="scale(0.015625)"/>
        <path id="HiraginoSans-W4-69" d="M 442 4934 
L 442 4294 
L 1152 4294 
L 1152 4934 
L 442 4934 
z
M 454 3520 
C 486 3296 499 3085 499 2765 
L 499 755 
C 499 461 486 282 454 0 
L 1133 0 
C 1101 269 1088 448 1088 755 
L 1088 2758 
C 1088 3104 1101 3290 1133 3520 
L 454 3520 
z
" transform="scale(0.015625)"/>
       </defs>
       <use xlink:href="#HiraginoSans-W4-41"/>
       <use xlink:href="#HiraginoSans-W4-64" x="76.599991"/>
       <use xlink:href="#HiraginoSans-W4-65" x="142.899979"/>
       <use xlink:href="#HiraginoSans-W4-6c" x="203.099976"/>
       <use xlink:href="#HiraginoSans-W4-69" x="227.399963"/>
       <use xlink:href="#HiraginoSans-W4-65" x="252.199951"/>
      </g>
     </g>
    </g>
    <g id="xtick_2">
     <g id="line2d_2">
      <g>
       <use xlink:href="#m5d17f18d3e" x="166.548437" y="273.312" style="stroke: #000000; stroke-width: 0.8"/>
      </g>
     </g>
     <g id="text_2">
      <!-- Chinstrap -->
      <g transform="translate(141.838281 288.171375)scale(0.1 -0.1)">
       <defs>
        <path id="HiraginoSans-W4-43" d="M 4544 3654 
C 4390 4064 4269 4269 4026 4506 
C 3661 4858 3174 5030 2560 5030 
C 1946 5030 1453 4845 1075 4480 
C 589 4006 320 3296 320 2458 
C 320 1651 570 947 1018 493 
C 1389 109 1920 -90 2554 -90 
C 3277 -90 3878 173 4237 640 
C 4403 858 4493 1062 4608 1459 
L 3968 1594 
C 3910 1306 3853 1152 3718 966 
C 3475 634 3066 448 2573 448 
C 1581 448 947 1235 947 2477 
C 947 3718 1568 4493 2573 4493 
C 3014 4493 3386 4339 3629 4051 
C 3763 3891 3834 3763 3923 3488 
L 4544 3654 
z
" transform="scale(0.015625)"/>
        <path id="HiraginoSans-W4-68" d="M 1107 0 
C 1075 256 1062 474 1062 755 
L 1062 2003 
C 1139 2272 1229 2438 1402 2643 
C 1645 2931 1933 3078 2259 3078 
C 2490 3078 2682 3002 2810 2861 
C 2931 2726 2995 2522 2995 2240 
L 2995 755 
C 2995 422 2982 224 2944 0 
L 3622 0 
C 3590 230 3578 448 3578 749 
L 3578 2362 
C 3578 3130 3123 3584 2355 3584 
C 1773 3584 1357 3347 1043 2854 
C 1056 3046 1062 3066 1062 3168 
L 1062 4173 
C 1062 4512 1069 4691 1107 4934 
L 442 4934 
C 480 4691 493 4512 493 4179 
L 493 755 
C 493 422 480 250 442 0 
L 1107 0 
z
" transform="scale(0.015625)"/>
        <path id="HiraginoSans-W4-6e" d="M 1114 0 
C 1082 256 1069 474 1069 755 
L 1069 2010 
C 1139 2272 1222 2426 1395 2630 
C 1658 2944 1933 3085 2266 3085 
C 2752 3085 3002 2797 3002 2234 
L 3002 755 
C 3002 454 2989 269 2957 0 
L 3629 0 
C 3597 218 3584 416 3584 749 
L 3584 2323 
C 3584 2662 3520 2912 3392 3110 
C 3181 3418 2816 3584 2349 3584 
C 1779 3584 1376 3360 1056 2867 
C 1069 3027 1069 3059 1069 3142 
L 1069 3520 
L 442 3520 
C 480 3264 493 3078 493 2765 
L 493 755 
C 493 429 480 256 442 0 
L 1114 0 
z
" transform="scale(0.015625)"/>
        <path id="HiraginoSans-W4-73" d="M 262 973 
C 326 704 378 589 480 448 
C 730 109 1184 -70 1786 -70 
C 2707 -70 3270 339 3270 1011 
C 3270 1293 3136 1555 2912 1722 
C 2720 1862 2483 1946 1894 2074 
C 1510 2157 1357 2208 1210 2285 
C 1075 2355 998 2483 998 2624 
C 998 2944 1312 3162 1760 3162 
C 2042 3162 2259 3078 2400 2925 
C 2483 2835 2515 2758 2554 2598 
L 3155 2688 
C 3066 2982 2982 3136 2810 3283 
C 2573 3494 2208 3610 1754 3610 
C 1299 3610 941 3494 698 3258 
C 518 3091 416 2861 416 2618 
C 416 2310 557 2054 819 1888 
C 1043 1747 1261 1677 1760 1574 
C 2246 1466 2349 1440 2490 1350 
C 2618 1274 2682 1139 2682 973 
C 2682 621 2342 397 1818 397 
C 1504 397 1267 474 1107 614 
C 986 730 934 832 890 1069 
L 262 973 
z
" transform="scale(0.015625)"/>
        <path id="HiraginoSans-W4-74" d="M 851 4480 
C 877 4262 896 4006 896 3750 
L 896 3520 
L 646 3520 
C 378 3520 250 3526 70 3558 
L 70 2995 
C 275 3021 416 3034 640 3034 
L 896 3034 
L 896 787 
C 896 461 954 269 1094 134 
C 1235 6 1466 -64 1773 -64 
C 2042 -64 2246 -26 2515 83 
L 2374 602 
C 2176 486 2048 448 1875 448 
C 1741 448 1632 486 1568 544 
C 1504 608 1478 698 1478 883 
L 1478 3034 
L 1779 3034 
C 2074 3034 2221 3027 2426 2995 
L 2426 3558 
C 2214 3526 2074 3520 1773 3520 
L 1478 3520 
L 1478 3750 
C 1478 4026 1498 4275 1523 4480 
L 851 4480 
z
" transform="scale(0.015625)"/>
        <path id="HiraginoSans-W4-72" d="M 2784 3520 
C 2522 3565 2394 3578 2195 3578 
C 1862 3578 1568 3488 1350 3315 
C 1242 3238 1165 3142 1056 2976 
C 1062 3027 1062 3040 1069 3085 
C 1069 3104 1069 3117 1069 3130 
C 1069 3162 1069 3181 1069 3187 
L 1069 3520 
L 442 3520 
C 474 3283 486 3104 486 2765 
L 486 755 
C 486 467 480 314 442 0 
L 1114 0 
C 1082 262 1069 448 1069 755 
L 1069 2022 
C 1101 2317 1158 2470 1312 2669 
C 1504 2912 1760 3034 2093 3034 
C 2259 3034 2381 3014 2618 2938 
L 2784 3520 
z
" transform="scale(0.015625)"/>
        <path id="HiraginoSans-W4-61" d="M 2765 0 
L 3373 0 
C 3334 269 3322 422 3322 736 
L 3322 2515 
C 3322 2867 3238 3110 3046 3290 
C 2816 3514 2464 3622 1978 3622 
C 1485 3622 1094 3507 813 3270 
C 627 3123 531 2976 416 2656 
L 1011 2541 
C 1069 2714 1114 2797 1197 2886 
C 1370 3066 1626 3155 1971 3155 
C 2515 3155 2765 2950 2765 2515 
L 2765 2182 
C 1933 2163 1581 2118 1197 1997 
C 646 1818 333 1434 333 941 
C 333 320 774 -58 1491 -58 
C 1741 -58 1978 -19 2195 64 
C 2406 141 2522 218 2765 429 
L 2765 0 
z
M 2765 1363 
C 2765 1126 2707 973 2554 813 
C 2304 557 1920 397 1568 397 
C 1165 397 915 608 915 941 
C 915 1235 1075 1440 1395 1568 
C 1677 1683 2035 1728 2765 1747 
L 2765 1363 
z
" transform="scale(0.015625)"/>
        <path id="HiraginoSans-W4-70" d="M 1101 -1312 
C 1069 -1075 1056 -877 1056 -550 
L 1056 128 
C 1056 301 1050 397 1037 570 
C 1363 154 1792 -51 2349 -51 
C 3334 -51 3968 659 3968 1773 
C 3968 2906 3354 3590 2336 3590 
C 1766 3590 1344 3379 1037 2944 
C 1050 3078 1050 3117 1050 3194 
L 1050 3520 
L 442 3520 
C 474 3277 486 3078 486 2752 
L 486 -557 
C 486 -845 474 -1056 442 -1312 
L 1101 -1312 
z
M 2272 442 
C 1952 442 1626 570 1421 781 
C 1197 1005 1062 1376 1062 1766 
C 1062 2547 1555 3091 2278 3091 
C 2976 3091 3373 2611 3373 1773 
C 3373 941 2957 442 2272 442 
z
" transform="scale(0.015625)"/>
       </defs>
       <use xlink:href="#HiraginoSans-W4-43"/>
       <use xlink:href="#HiraginoSans-W4-68" x="76.599991"/>
       <use xlink:href="#HiraginoSans-W4-69" x="139.899979"/>
       <use xlink:href="#HiraginoSans-W4-6e" x="164.699966"/>
       <use xlink:href="#HiraginoSans-W4-73" x="228.09996"/>
       <use xlink:href="#HiraginoSans-W4-74" x="283.399948"/>
       <use xlink:href="#HiraginoSans-W4-72" x="323.899933"/>
       <use xlink:href="#HiraginoSans-W4-61" x="368.59993"/>
       <use xlink:href="#HiraginoSans-W4-70" x="427.799927"/>
      </g>
     </g>
    </g>
    <g id="xtick_3">
     <g id="line2d_3">
      <g>
       <use xlink:href="#m5d17f18d3e" x="240.948437" y="273.312" style="stroke: #000000; stroke-width: 0.8"/>
      </g>
     </g>
     <g id="text_3">
      <!-- Gentoo -->
      <g transform="translate(222.542969 288.021375)scale(0.1 -0.1)">
       <defs>
        <path id="HiraginoSans-W4-47" d="M 3859 2010 
L 3859 794 
C 3494 557 3104 448 2618 448 
C 2125 448 1734 602 1459 909 
C 1126 1274 947 1824 947 2496 
C 947 3731 1568 4506 2560 4506 
C 3258 4506 3648 4243 3872 3629 
L 4486 3808 
C 4346 4160 4224 4346 4013 4550 
C 3667 4877 3187 5043 2592 5043 
C 1210 5043 320 4051 320 2496 
C 320 1664 576 947 1037 493 
C 1427 115 1939 -70 2630 -70 
C 3334 -70 3808 64 4480 467 
C 4442 736 4435 890 4435 1210 
L 4435 1818 
C 4435 2125 4442 2278 4480 2566 
C 4294 2547 4115 2541 3776 2541 
L 3552 2541 
C 3181 2541 3021 2547 2835 2579 
L 2835 1971 
C 3008 2003 3162 2010 3494 2010 
L 3859 2010 
z
" transform="scale(0.015625)"/>
        <path id="HiraginoSans-W4-6f" d="M 2054 -90 
C 3110 -90 3802 640 3802 1766 
C 3802 2893 3117 3610 2042 3610 
C 966 3610 282 2886 282 1760 
C 282 627 966 -90 2054 -90 
z
M 2054 3130 
C 2771 3130 3213 2605 3213 1754 
C 3213 909 2771 397 2042 397 
C 1318 397 870 922 870 1766 
C 870 2611 1325 3130 2054 3130 
z
" transform="scale(0.015625)"/>
       </defs>
       <use xlink:href="#HiraginoSans-W4-47"/>
       <use xlink:href="#HiraginoSans-W4-65" x="76.399994"/>
       <use xlink:href="#HiraginoSans-W4-6e" x="136.599991"/>
       <use xlink:href="#HiraginoSans-W4-74" x="199.999985"/>
       <use xlink:href="#HiraginoSans-W4-6f" x="240.499969"/>
       <use xlink:href="#HiraginoSans-W4-6f" x="304.299957"/>
      </g>
     </g>
    </g>
    <g id="text_4">
     <!-- species -->
     <g transform="translate(147.483594 301.93075)scale(0.1 -0.1)">
      <defs>
       <path id="HiraginoSans-W4-63" d="M 3475 2573 
C 3405 2758 3347 2867 3251 3002 
C 2970 3405 2522 3616 1965 3616 
C 947 3616 282 2874 282 1747 
C 282 627 954 -90 1990 -90 
C 2534 -90 2970 102 3258 480 
C 3366 621 3430 742 3520 986 
L 2950 1126 
C 2899 966 2867 890 2816 806 
C 2650 550 2362 410 2010 410 
C 1312 410 870 934 870 1760 
C 870 2598 1299 3130 1984 3130 
C 2438 3130 2739 2899 2912 2413 
L 3475 2573 
z
" transform="scale(0.015625)"/>
      </defs>
      <use xlink:href="#HiraginoSans-W4-73"/>
      <use xlink:href="#HiraginoSans-W4-70" x="55.299988"/>
      <use xlink:href="#HiraginoSans-W4-65" x="121.699982"/>
      <use xlink:href="#HiraginoSans-W4-63" x="181.899979"/>
      <use xlink:href="#HiraginoSans-W4-69" x="240.999969"/>
      <use xlink:href="#HiraginoSans-W4-65" x="265.799957"/>
      <use xlink:href="#HiraginoSans-W4-73" x="325.999954"/>
     </g>
    </g>
   </g>
   <g id="matplotlib.axis_2">
    <g id="ytick_1">
     <g id="line2d_4">
      <defs>
       <path id="mee157aae3e" d="M 0 0 
L -3.5 0 
" style="stroke: #000000; stroke-width: 0.8"/>
      </defs>
      <g>
       <use xlink:href="#mee157aae3e" x="54.948438" y="225.869613" style="stroke: #000000; stroke-width: 0.8"/>
      </g>
     </g>
     <g id="text_5">
      <!-- 3000 -->
      <g transform="translate(21.029688 229.724301)scale(0.1 -0.1)">
       <defs>
        <path id="HiraginoSans-W4-33" d="M 282 1101 
C 397 768 474 621 621 448 
C 934 90 1434 -96 2112 -96 
C 2720 -96 3213 70 3533 384 
C 3770 614 3904 954 3904 1306 
C 3904 1677 3802 1958 3597 2182 
C 3379 2419 3130 2528 2688 2586 
C 2995 2650 3130 2701 3290 2816 
C 3578 3021 3738 3366 3738 3757 
C 3738 4538 3117 5043 2157 5043 
C 1594 5043 1146 4883 845 4576 
C 666 4390 582 4237 467 3891 
L 1107 3757 
C 1171 3981 1216 4083 1306 4192 
C 1478 4416 1741 4525 2125 4525 
C 2746 4525 3110 4224 3110 3725 
C 3110 3482 3021 3264 2867 3110 
C 2669 2918 2374 2829 1965 2829 
C 1779 2829 1613 2842 1459 2861 
L 1459 2272 
C 1651 2298 1811 2310 2003 2310 
C 2829 2310 3264 1990 3264 1376 
C 3264 794 2816 429 2106 429 
C 1779 429 1510 506 1293 666 
C 1107 800 1024 928 928 1248 
L 282 1101 
z
" transform="scale(0.015625)"/>
        <path id="HiraginoSans-W4-30" d="M 2144 -90 
C 2758 -90 3232 141 3565 602 
C 3846 998 4019 1696 4019 2464 
C 4019 3002 3936 3501 3770 3949 
C 3693 4160 3558 4371 3379 4550 
C 3078 4858 2650 5024 2157 5024 
C 1498 5024 986 4742 666 4205 
C 435 3834 288 3142 288 2458 
C 288 1939 371 1434 538 986 
C 614 768 749 563 928 384 
C 1242 70 1651 -90 2144 -90 
z
M 2144 4499 
C 2592 4499 2918 4307 3123 3923 
C 3283 3629 3398 3014 3398 2470 
C 3398 2022 3341 1619 3213 1235 
C 3155 1043 3046 870 2912 730 
C 2726 538 2458 435 2150 435 
C 1734 435 1414 614 1197 973 
C 1024 1261 902 1875 902 2451 
C 902 2906 966 3328 1088 3699 
C 1139 3866 1235 4026 1370 4173 
C 1568 4397 1818 4499 2144 4499 
z
" transform="scale(0.015625)"/>
       </defs>
       <use xlink:href="#HiraginoSans-W4-33"/>
       <use xlink:href="#HiraginoSans-W4-30" x="67.299988"/>
       <use xlink:href="#HiraginoSans-W4-30" x="134.599976"/>
       <use xlink:href="#HiraginoSans-W4-30" x="201.899963"/>
      </g>
     </g>
    </g>
    <g id="ytick_2">
     <g id="line2d_5">
      <g>
       <use xlink:href="#mee157aae3e" x="54.948438" y="169.813249" style="stroke: #000000; stroke-width: 0.8"/>
      </g>
     </g>
     <g id="text_6">
      <!-- 4000 -->
      <g transform="translate(21.009375 173.667937)scale(0.1 -0.1)">
       <defs>
        <path id="HiraginoSans-W4-34" d="M 179 1210 
C 403 1229 589 1235 954 1235 
L 2688 1235 
L 2688 710 
C 2688 410 2675 218 2630 0 
L 3309 0 
C 3270 230 3258 390 3258 704 
L 3258 1235 
L 3494 1235 
C 3763 1235 3910 1222 4154 1190 
L 4154 1798 
C 3917 1766 3750 1754 3494 1754 
L 3258 1754 
L 3258 3853 
C 3258 4358 3264 4544 3296 4934 
L 2701 4934 
C 2560 4704 2445 4550 2214 4269 
L 621 2298 
C 467 2099 326 1939 179 1773 
L 179 1210 
z
M 2688 1747 
L 858 1747 
L 2259 3514 
C 2464 3763 2592 3936 2720 4128 
C 2694 3814 2688 3622 2688 3283 
L 2688 1747 
z
" transform="scale(0.015625)"/>
       </defs>
       <use xlink:href="#HiraginoSans-W4-34"/>
       <use xlink:href="#HiraginoSans-W4-30" x="67.499985"/>
       <use xlink:href="#HiraginoSans-W4-30" x="134.799973"/>
       <use xlink:href="#HiraginoSans-W4-30" x="202.09996"/>
      </g>
     </g>
    </g>
    <g id="ytick_3">
     <g id="line2d_6">
      <g>
       <use xlink:href="#mee157aae3e" x="54.948438" y="113.756885" style="stroke: #000000; stroke-width: 0.8"/>
      </g>
     </g>
     <g id="text_7">
      <!-- 5000 -->
      <g transform="translate(21.029688 117.611572)scale(0.1 -0.1)">
       <defs>
        <path id="HiraginoSans-W4-35" d="M 1331 4416 
L 2835 4416 
C 3155 4416 3366 4403 3622 4365 
L 3622 4986 
C 3360 4947 3206 4934 2829 4934 
L 1446 4934 
C 1082 4934 954 4941 762 4966 
C 774 4768 774 4762 774 4742 
C 774 4563 774 4518 749 4307 
L 608 2822 
C 589 2566 570 2445 518 2157 
L 1088 2106 
C 1146 2240 1178 2291 1261 2374 
C 1485 2605 1811 2739 2131 2739 
C 2842 2739 3264 2317 3264 1613 
C 3264 902 2803 435 2106 435 
C 1747 435 1440 563 1235 794 
C 1146 902 1101 986 1037 1171 
L 410 1005 
C 557 685 646 544 813 378 
C 1133 64 1562 -96 2099 -96 
C 3194 -96 3885 576 3885 1638 
C 3885 2605 3245 3238 2272 3238 
C 1830 3238 1472 3098 1158 2803 
C 1197 2982 1197 2982 1203 3091 
L 1331 4416 
z
" transform="scale(0.015625)"/>
       </defs>
       <use xlink:href="#HiraginoSans-W4-35"/>
       <use xlink:href="#HiraginoSans-W4-30" x="67.299988"/>
       <use xlink:href="#HiraginoSans-W4-30" x="134.599976"/>
       <use xlink:href="#HiraginoSans-W4-30" x="201.899963"/>
      </g>
     </g>
    </g>
    <g id="ytick_4">
     <g id="line2d_7">
      <g>
       <use xlink:href="#mee157aae3e" x="54.948438" y="57.70052" style="stroke: #000000; stroke-width: 0.8"/>
      </g>
     </g>
     <g id="text_8">
      <!-- 6000 -->
      <g transform="translate(21.029688 61.555208)scale(0.1 -0.1)">
       <defs>
        <path id="HiraginoSans-W4-36" d="M 3846 3994 
C 3706 4301 3616 4442 3462 4602 
C 3187 4877 2784 5024 2304 5024 
C 1683 5024 1222 4794 864 4307 
C 557 3891 371 3162 371 2355 
C 371 1446 614 704 1043 320 
C 1331 58 1773 -90 2253 -90 
C 3277 -90 3968 589 3968 1587 
C 3968 2586 3334 3213 2323 3213 
C 1894 3213 1568 3104 1274 2854 
C 1133 2739 1062 2656 941 2458 
C 979 3085 1043 3392 1210 3763 
C 1434 4262 1798 4518 2285 4518 
C 2765 4518 3040 4314 3238 3821 
L 3846 3994 
z
M 2266 2714 
C 2950 2714 3366 2285 3366 1574 
C 3366 1325 3309 1088 3206 922 
C 3008 614 2643 422 2234 422 
C 1568 422 1069 915 1069 1574 
C 1069 2234 1574 2714 2266 2714 
z
" transform="scale(0.015625)"/>
       </defs>
       <use xlink:href="#HiraginoSans-W4-36"/>
       <use xlink:href="#HiraginoSans-W4-30" x="67.299988"/>
       <use xlink:href="#HiraginoSans-W4-30" x="134.599976"/>
       <use xlink:href="#HiraginoSans-W4-30" x="201.899963"/>
      </g>
     </g>
    </g>
    <g id="text_9">
     <!-- body_mass_g -->
     <g transform="translate(14.909375 174.491156)rotate(-90)scale(0.1 -0.1)">
      <defs>
       <path id="HiraginoSans-W4-62" d="M 1050 0 
L 1050 314 
C 1043 448 1043 448 1037 506 
C 1037 518 1037 538 1037 557 
C 1338 141 1766 -64 2317 -64 
C 3341 -64 3962 634 3962 1786 
C 3962 2918 3360 3597 2355 3597 
C 1779 3597 1344 3379 1037 2931 
C 1050 3078 1056 3206 1056 3386 
L 1056 4173 
C 1056 4499 1069 4691 1101 4934 
L 442 4934 
C 474 4666 486 4461 486 4173 
L 486 774 
C 486 442 474 243 442 0 
L 1050 0 
z
M 3366 1786 
C 3366 941 2950 429 2259 429 
C 1555 429 1062 986 1062 1779 
C 1062 2566 1562 3104 2285 3104 
C 2970 3104 3366 2618 3366 1786 
z
" transform="scale(0.015625)"/>
       <path id="HiraginoSans-W4-79" d="M 1600 154 
L 1325 -486 
C 1229 -710 1069 -832 858 -832 
C 730 -832 621 -800 442 -717 
L 301 -1274 
C 550 -1325 710 -1344 864 -1344 
C 1357 -1344 1664 -1146 1843 -717 
L 3283 2758 
C 3462 3181 3571 3437 3603 3520 
L 2912 3520 
C 2880 3334 2829 3168 2694 2816 
L 1901 768 
L 1011 2822 
C 902 3072 819 3341 787 3520 
L 64 3520 
C 134 3386 134 3386 422 2758 
L 1600 154 
z
" transform="scale(0.015625)"/>
       <path id="HiraginoSans-W4-5f" d="M 0 -608 
L 0 -902 
L 3213 -902 
L 3213 -608 
L 0 -608 
z
" transform="scale(0.015625)"/>
       <path id="HiraginoSans-W4-6d" d="M 1107 0 
C 1075 262 1062 442 1062 755 
L 1062 2016 
C 1062 2144 1178 2464 1286 2624 
C 1485 2912 1786 3091 2074 3091 
C 2528 3091 2765 2803 2765 2246 
L 2765 755 
C 2765 422 2752 230 2720 0 
L 3392 0 
C 3360 230 3347 416 3347 749 
L 3347 2016 
C 3347 2176 3456 2483 3571 2650 
C 3763 2931 4045 3091 4346 3091 
C 4525 3091 4672 3053 4781 2976 
C 4973 2842 5043 2637 5043 2246 
L 5043 755 
C 5043 403 5037 256 4998 0 
L 5670 0 
C 5638 230 5626 416 5626 749 
L 5626 2336 
C 5626 2733 5555 2995 5382 3206 
C 5184 3462 4864 3590 4442 3590 
C 3898 3590 3552 3398 3232 2925 
C 3168 3104 3130 3181 3034 3277 
C 2842 3488 2566 3590 2202 3590 
C 1690 3590 1280 3373 1050 2970 
C 1050 3008 1050 3008 1056 3066 
C 1056 3085 1062 3181 1062 3200 
L 1062 3520 
L 442 3520 
C 474 3290 486 3117 486 2765 
L 486 755 
C 486 435 474 243 442 0 
L 1107 0 
z
" transform="scale(0.015625)"/>
       <path id="HiraginoSans-W4-67" d="M 416 -678 
C 838 -1146 1261 -1325 1920 -1325 
C 2509 -1325 3014 -1152 3290 -858 
C 3578 -557 3699 -147 3699 531 
L 3699 2778 
C 3699 3091 3712 3258 3744 3520 
L 3142 3520 
L 3142 3194 
C 3142 3123 3142 3078 3155 2976 
C 2886 3373 2477 3578 1939 3578 
C 928 3578 288 2880 288 1792 
C 288 710 915 26 1907 26 
C 2285 26 2630 134 2880 326 
C 2989 416 3053 493 3155 659 
C 3142 237 3098 -38 3027 -218 
C 2861 -627 2470 -851 1933 -851 
C 1485 -851 1165 -698 896 -346 
L 416 -678 
z
M 883 1779 
C 883 2592 1306 3098 1990 3098 
C 2675 3098 3130 2592 3130 1830 
C 3130 1037 2650 499 1952 499 
C 1293 499 883 992 883 1779 
z
" transform="scale(0.015625)"/>
      </defs>
      <use xlink:href="#HiraginoSans-W4-62"/>
      <use xlink:href="#HiraginoSans-W4-6f" x="66.299988"/>
      <use xlink:href="#HiraginoSans-W4-64" x="130.099976"/>
      <use xlink:href="#HiraginoSans-W4-79" x="196.399963"/>
      <use xlink:href="#HiraginoSans-W4-5f" x="253.799957"/>
      <use xlink:href="#HiraginoSans-W4-6d" x="303.999954"/>
      <use xlink:href="#HiraginoSans-W4-61" x="399.399948"/>
      <use xlink:href="#HiraginoSans-W4-73" x="458.599945"/>
      <use xlink:href="#HiraginoSans-W4-73" x="513.899933"/>
      <use xlink:href="#HiraginoSans-W4-5f" x="569.199921"/>
      <use xlink:href="#HiraginoSans-W4-67" x="619.399918"/>
     </g>
    </g>
   </g>
   <g id="line2d_8">
    <path d="M 92.148438 234.278068 
L 92.148438 126.369567 
" clip-path="url(#p0eeac7f3f9)" style="fill: none; stroke: #3d3d3d; stroke-width: 1.5; stroke-linecap: square"/>
   </g>
   <g id="line2d_9">
    <path d="M 92.148438 206.249886 
L 92.148438 169.813249 
" clip-path="url(#p0eeac7f3f9)" style="fill: none; stroke: #3d3d3d; stroke-width: 4.5; stroke-linecap: square"/>
   </g>
   <g id="line2d_10">
    <path d="M 166.548437 231.47525 
L 166.548437 138.982249 
" clip-path="url(#p0eeac7f3f9)" style="fill: none; stroke: #3d3d3d; stroke-width: 1.5; stroke-linecap: square"/>
   </g>
   <g id="line2d_11">
    <path d="M 166.548437 198.542136 
L 166.548437 172.616067 
" clip-path="url(#p0eeac7f3f9)" style="fill: none; stroke: #3d3d3d; stroke-width: 4.5; stroke-linecap: square"/>
   </g>
   <g id="line2d_12">
    <path d="M 240.948437 172.616067 
L 240.948437 40.883611 
" clip-path="url(#p0eeac7f3f9)" style="fill: none; stroke: #3d3d3d; stroke-width: 1.5; stroke-linecap: square"/>
   </g>
   <g id="line2d_13">
    <path d="M 240.948437 130.573794 
L 240.948437 85.728703 
" clip-path="url(#p0eeac7f3f9)" style="fill: none; stroke: #3d3d3d; stroke-width: 4.5; stroke-linecap: square"/>
   </g>
   <g id="patch_3">
    <path d="M 54.948438 273.312 
L 54.948438 7.2 
" style="fill: none; stroke: #000000; stroke-width: 0.8; stroke-linejoin: miter; stroke-linecap: square"/>
   </g>
   <g id="patch_4">
    <path d="M 278.148438 273.312 
L 278.148438 7.2 
" style="fill: none; stroke: #000000; stroke-width: 0.8; stroke-linejoin: miter; stroke-linecap: square"/>
   </g>
   <g id="patch_5">
    <path d="M 54.948438 273.312 
L 278.148438 273.312 
" style="fill: none; stroke: #000000; stroke-width: 0.8; stroke-linejoin: miter; stroke-linecap: square"/>
   </g>
   <g id="patch_6">
    <path d="M 54.948438 7.2 
L 278.148438 7.2 
" style="fill: none; stroke: #000000; stroke-width: 0.8; stroke-linejoin: miter; stroke-linecap: square"/>
   </g>
   <g id="PathCollection_1">
    <defs>
     <path id="m7d3cf47000" d="M 0 1.5 
C 0.397805 1.5 0.77937 1.341951 1.06066 1.06066 
C 1.341951 0.77937 1.5 0.397805 1.5 0 
C 1.5 -0.397805 1.341951 -0.77937 1.06066 -1.06066 
C 0.77937 -1.341951 0.397805 -1.5 0 -1.5 
C -0.397805 -1.5 -0.77937 -1.341951 -1.06066 -1.06066 
C -1.341951 -0.77937 -1.5 -0.397805 -1.5 0 
C -1.5 0.397805 -1.341951 0.77937 -1.06066 1.06066 
C -0.77937 1.341951 -0.397805 1.5 0 1.5 
z
" style="stroke: #3d3d3d"/>
    </defs>
    <g clip-path="url(#p0eeac7f3f9)">
     <use xlink:href="#m7d3cf47000" x="92.148438" y="186.630158" style="fill: #ffffff; stroke: #3d3d3d"/>
    </g>
   </g>
   <g id="PathCollection_2">
    <g clip-path="url(#p0eeac7f3f9)">
     <use xlink:href="#m7d3cf47000" x="166.548437" y="186.630158" style="fill: #ffffff; stroke: #3d3d3d"/>
    </g>
   </g>
   <g id="PathCollection_3">
    <g clip-path="url(#p0eeac7f3f9)">
     <use xlink:href="#m7d3cf47000" x="240.948437" y="113.756885" style="fill: #ffffff; stroke: #3d3d3d"/>
    </g>
   </g>
  </g>
 </g>
 <defs>
  <clipPath id="p0eeac7f3f9">
   <rect x="54.948438" y="7.2" width="223.2" height="266.112"/>
  </clipPath>
 </defs>
</svg>
