<?xml version="1.0" encoding="utf-8" standalone="no"?>
<!DOCTYPE svg PUBLIC "-//W3C//DTD SVG 1.1//EN"
  "http://www.w3.org/Graphics/SVG/1.1/DTD/svg11.dtd">
<svg xmlns:xlink="http://www.w3.org/1999/xlink" width="412.48875pt" height="311.03075pt" viewBox="0 0 412.48875 311.03075" xmlns="http://www.w3.org/2000/svg" version="1.1">
 <metadata>
  <rdf:RDF xmlns:dc="http://purl.org/dc/elements/1.1/" xmlns:cc="http://creativecommons.org/ns#" xmlns:rdf="http://www.w3.org/1999/02/22-rdf-syntax-ns#">
   <cc:Work>
    <dc:type rdf:resource="http://purl.org/dc/dcmitype/StillImage"/>
    <dc:date>2024-06-07T17:56:39.230958</dc:date>
    <dc:format>image/svg+xml</dc:format>
    <dc:creator>
     <cc:Agent>
      <dc:title>Matplotlib v3.9.0, https://matplotlib.org/</dc:title>
     </cc:Agent>
    </dc:creator>
   </cc:Work>
  </rdf:RDF>
 </metadata>
 <defs>
  <style type="text/css">*{stroke-linejoin: round; stroke-linecap: butt}</style>
 </defs>
 <g id="figure_1">
  <g id="patch_1">
   <path d="M 0 311.03075 
L 412.48875 311.03075 
L 412.48875 0 
L 0 0 
z
" style="fill: #ffffff"/>
  </g>
  <g id="axes_1">
   <g id="patch_2">
    <path d="M 48.16875 273.312 
L 405.28875 273.312 
L 405.28875 7.2 
L 48.16875 7.2 
z
" style="fill: #ffffff"/>
   </g>
   <g id="PathCollection_1">
    <defs>
     <path id="m5074fe3652" d="M 0 3 
C 0.795609 3 1.55874 2.683901 2.12132 2.12132 
C 2.683901 1.55874 3 0.795609 3 0 
C 3 -0.795609 2.683901 -1.55874 2.12132 -2.12132 
C 1.55874 -2.683901 0.795609 -3 0 -3 
C -0.795609 -3 -1.55874 -2.683901 -2.12132 -2.12132 
C -2.683901 -1.55874 -3 -0.795609 -3 0 
C -3 0.795609 -2.683901 1.55874 -2.12132 2.12132 
C -1.55874 2.683901 -0.795609 3 0 3 
z
" style="stroke: #1f77b4"/>
    </defs>
    <g clip-path="url(#p5ca1410c62)">
     <use xlink:href="#m5074fe3652" x="171.110913" y="157.97777" style="fill: #1f77b4; stroke: #1f77b4"/>
     <use xlink:href="#m5074fe3652" x="212.732344" y="91.848212" style="fill: #1f77b4; stroke: #1f77b4"/>
     <use xlink:href="#m5074fe3652" x="161.470344" y="19.296" style="fill: #1f77b4; stroke: #1f77b4"/>
     <use xlink:href="#m5074fe3652" x="172.311254" y="106.120779" style="fill: #1f77b4; stroke: #1f77b4"/>
     <use xlink:href="#m5074fe3652" x="237.079419" y="74.245381" style="fill: #1f77b4; stroke: #1f77b4"/>
     <use xlink:href="#m5074fe3652" x="389.056023" y="96.843611" style="fill: #1f77b4; stroke: #1f77b4"/>
     <use xlink:href="#m5074fe3652" x="207.793475" y="108.737416" style="fill: #1f77b4; stroke: #1f77b4"/>
     <use xlink:href="#m5074fe3652" x="161.982818" y="91.37246" style="fill: #1f77b4; stroke: #1f77b4"/>
     <use xlink:href="#m5074fe3652" x="242.686948" y="84.711929" style="fill: #1f77b4; stroke: #1f77b4"/>
     <use xlink:href="#m5074fe3652" x="185.43401" y="128.956885" style="fill: #1f77b4; stroke: #1f77b4"/>
     <use xlink:href="#m5074fe3652" x="79.76055" y="164.162549" style="fill: #1f77b4; stroke: #1f77b4"/>
     <use xlink:href="#m5074fe3652" x="106.307216" y="152.506619" style="fill: #1f77b4; stroke: #1f77b4"/>
     <use xlink:href="#m5074fe3652" x="107.03192" y="157.026265" style="fill: #1f77b4; stroke: #1f77b4"/>
     <use xlink:href="#m5074fe3652" x="76.218037" y="174.153345" style="fill: #1f77b4; stroke: #1f77b4"/>
     <use xlink:href="#m5074fe3652" x="249.291696" y="92.799717" style="fill: #1f77b4; stroke: #1f77b4"/>
     <use xlink:href="#m5074fe3652" x="205.467921" y="127.291752" style="fill: #1f77b4; stroke: #1f77b4"/>
     <use xlink:href="#m5074fe3652" x="196.255499" y="137.996177" style="fill: #1f77b4; stroke: #1f77b4"/>
     <use xlink:href="#m5074fe3652" x="144.642772" y="143.467327" style="fill: #1f77b4; stroke: #1f77b4"/>
     <use xlink:href="#m5074fe3652" x="181.177935" y="121.34485" style="fill: #1f77b4; stroke: #1f77b4"/>
     <use xlink:href="#m5074fe3652" x="196.344483" y="142.515823" style="fill: #1f77b4; stroke: #1f77b4"/>
     <use xlink:href="#m5074fe3652" x="105.370683" y="162.497416" style="fill: #1f77b4; stroke: #1f77b4"/>
     <use xlink:href="#m5074fe3652" x="135.861645" y="96.605735" style="fill: #1f77b4; stroke: #1f77b4"/>
     <use xlink:href="#m5074fe3652" x="86.37456" y="161.070159" style="fill: #1f77b4; stroke: #1f77b4"/>
     <use xlink:href="#m5074fe3652" x="85.724264" y="152.030867" style="fill: #1f77b4; stroke: #1f77b4"/>
     <use xlink:href="#m5074fe3652" x="69.187654" y="188.188035" style="fill: #1f77b4; stroke: #1f77b4"/>
     <use xlink:href="#m5074fe3652" x="94.769414" y="171.298832" style="fill: #1f77b4; stroke: #1f77b4"/>
     <use xlink:href="#m5074fe3652" x="68.241048" y="182.479009" style="fill: #1f77b4; stroke: #1f77b4"/>
     <use xlink:href="#m5074fe3652" x="64.401477" y="158.453522" style="fill: #1f77b4; stroke: #1f77b4"/>
     <use xlink:href="#m5074fe3652" x="66.654781" y="186.285027" style="fill: #1f77b4; stroke: #1f77b4"/>
     <use xlink:href="#m5074fe3652" x="83.47114" y="160.356531" style="fill: #1f77b4; stroke: #1f77b4"/>
     <use xlink:href="#m5074fe3652" x="143.432673" y="126.578124" style="fill: #1f77b4; stroke: #1f77b4"/>
     <use xlink:href="#m5074fe3652" x="149.555778" y="160.118655" style="fill: #1f77b4; stroke: #1f77b4"/>
     <use xlink:href="#m5074fe3652" x="128.529408" y="152.982372" style="fill: #1f77b4; stroke: #1f77b4"/>
     <use xlink:href="#m5074fe3652" x="137.093857" y="164.400425" style="fill: #1f77b4; stroke: #1f77b4"/>
     <use xlink:href="#m5074fe3652" x="112.675925" y="133.952283" style="fill: #1f77b4; stroke: #1f77b4"/>
     <use xlink:href="#m5074fe3652" x="176.287538" y="148.462726" style="fill: #1f77b4; stroke: #1f77b4"/>
     <use xlink:href="#m5074fe3652" x="104.060865" y="153.933876" style="fill: #1f77b4; stroke: #1f77b4"/>
     <use xlink:href="#m5074fe3652" x="118.971459" y="131.09777" style="fill: #1f77b4; stroke: #1f77b4"/>
     <use xlink:href="#m5074fe3652" x="127.490597" y="130.622018" style="fill: #1f77b4; stroke: #1f77b4"/>
     <use xlink:href="#m5074fe3652" x="116.702871" y="163.211044" style="fill: #1f77b4; stroke: #1f77b4"/>
     <use xlink:href="#m5074fe3652" x="139.601782" y="167.017062" style="fill: #1f77b4; stroke: #1f77b4"/>
     <use xlink:href="#m5074fe3652" x="72.714538" y="166.303434" style="fill: #1f77b4; stroke: #1f77b4"/>
     <use xlink:href="#m5074fe3652" x="121.362843" y="166.779186" style="fill: #1f77b4; stroke: #1f77b4"/>
     <use xlink:href="#m5074fe3652" x="123.263767" y="129.908389" style="fill: #1f77b4; stroke: #1f77b4"/>
     <use xlink:href="#m5074fe3652" x="165.84994" y="119.203965" style="fill: #1f77b4; stroke: #1f77b4"/>
     <use xlink:href="#m5074fe3652" x="161.316116" y="131.573522" style="fill: #1f77b4; stroke: #1f77b4"/>
     <use xlink:href="#m5074fe3652" x="73.792177" y="131.811398" style="fill: #1f77b4; stroke: #1f77b4"/>
    </g>
   </g>
   <g id="PathCollection_2">
    <defs>
     <path id="m95730fc454" d="M 0 3 
C 0.795609 3 1.55874 2.683901 2.12132 2.12132 
C 2.683901 1.55874 3 0.795609 3 0 
C 3 -0.795609 2.683901 -1.55874 2.12132 -2.12132 
C 1.55874 -2.683901 0.795609 -3 0 -3 
C -0.795609 -3 -1.55874 -2.683901 -2.12132 -2.12132 
C -2.683901 -1.55874 -3 -0.795609 -3 0 
C -3 0.795609 -2.683901 1.55874 -2.12132 2.12132 
C -1.55874 2.683901 -0.795609 3 0 3 
z
" style="stroke: #ff7f0e"/>
    </defs>
    <g clip-path="url(#p5ca1410c62)">
     <use xlink:href="#m95730fc454" x="171.110913" y="234.811752" style="fill: #ff7f0e; stroke: #ff7f0e"/>
     <use xlink:href="#m95730fc454" x="212.732344" y="203.649982" style="fill: #ff7f0e; stroke: #ff7f0e"/>
     <use xlink:href="#m95730fc454" x="161.470344" y="168.920071" style="fill: #ff7f0e; stroke: #ff7f0e"/>
     <use xlink:href="#m95730fc454" x="172.311254" y="200.557593" style="fill: #ff7f0e; stroke: #ff7f0e"/>
     <use xlink:href="#m95730fc454" x="237.079419" y="183.430513" style="fill: #ff7f0e; stroke: #ff7f0e"/>
     <use xlink:href="#m95730fc454" x="389.056023" y="199.606088" style="fill: #ff7f0e; stroke: #ff7f0e"/>
     <use xlink:href="#m95730fc454" x="207.793475" y="190.566796" style="fill: #ff7f0e; stroke: #ff7f0e"/>
     <use xlink:href="#m95730fc454" x="161.982818" y="199.368212" style="fill: #ff7f0e; stroke: #ff7f0e"/>
     <use xlink:href="#m95730fc454" x="242.686948" y="192.231929" style="fill: #ff7f0e; stroke: #ff7f0e"/>
     <use xlink:href="#m95730fc454" x="185.43401" y="227.437593" style="fill: #ff7f0e; stroke: #ff7f0e"/>
     <use xlink:href="#m95730fc454" x="79.76055" y="235.525381" style="fill: #ff7f0e; stroke: #ff7f0e"/>
     <use xlink:href="#m95730fc454" x="106.307216" y="237.428389" style="fill: #ff7f0e; stroke: #ff7f0e"/>
     <use xlink:href="#m95730fc454" x="107.03192" y="244.326796" style="fill: #ff7f0e; stroke: #ff7f0e"/>
     <use xlink:href="#m95730fc454" x="76.218037" y="251.46308" style="fill: #ff7f0e; stroke: #ff7f0e"/>
     <use xlink:href="#m95730fc454" x="249.291696" y="205.790867" style="fill: #ff7f0e; stroke: #ff7f0e"/>
     <use xlink:href="#m95730fc454" x="205.467921" y="215.781664" style="fill: #ff7f0e; stroke: #ff7f0e"/>
     <use xlink:href="#m95730fc454" x="196.255499" y="233.622372" style="fill: #ff7f0e; stroke: #ff7f0e"/>
     <use xlink:href="#m95730fc454" x="144.642772" y="230.292106" style="fill: #ff7f0e; stroke: #ff7f0e"/>
     <use xlink:href="#m95730fc454" x="181.177935" y="235.287504" style="fill: #ff7f0e; stroke: #ff7f0e"/>
     <use xlink:href="#m95730fc454" x="196.344483" y="213.640779" style="fill: #ff7f0e; stroke: #ff7f0e"/>
     <use xlink:href="#m95730fc454" x="105.370683" y="232.195115" style="fill: #ff7f0e; stroke: #ff7f0e"/>
     <use xlink:href="#m95730fc454" x="135.861645" y="216.733168" style="fill: #ff7f0e; stroke: #ff7f0e"/>
     <use xlink:href="#m95730fc454" x="86.37456" y="245.754053" style="fill: #ff7f0e; stroke: #ff7f0e"/>
     <use xlink:href="#m95730fc454" x="85.724264" y="234.573876" style="fill: #ff7f0e; stroke: #ff7f0e"/>
     <use xlink:href="#m95730fc454" x="69.187654" y="255.269097" style="fill: #ff7f0e; stroke: #ff7f0e"/>
     <use xlink:href="#m95730fc454" x="94.769414" y="257.172106" style="fill: #ff7f0e; stroke: #ff7f0e"/>
     <use xlink:href="#m95730fc454" x="68.241048" y="261.216" style="fill: #ff7f0e; stroke: #ff7f0e"/>
     <use xlink:href="#m95730fc454" x="64.401477" y="247.18131" style="fill: #ff7f0e; stroke: #ff7f0e"/>
     <use xlink:href="#m95730fc454" x="66.654781" y="258.837239" style="fill: #ff7f0e; stroke: #ff7f0e"/>
     <use xlink:href="#m95730fc454" x="83.47114" y="254.079717" style="fill: #ff7f0e; stroke: #ff7f0e"/>
     <use xlink:href="#m95730fc454" x="143.432673" y="232.195115" style="fill: #ff7f0e; stroke: #ff7f0e"/>
     <use xlink:href="#m95730fc454" x="149.555778" y="217.684673" style="fill: #ff7f0e; stroke: #ff7f0e"/>
     <use xlink:href="#m95730fc454" x="128.529408" y="248.37069" style="fill: #ff7f0e; stroke: #ff7f0e"/>
     <use xlink:href="#m95730fc454" x="137.093857" y="253.366088" style="fill: #ff7f0e; stroke: #ff7f0e"/>
     <use xlink:href="#m95730fc454" x="112.675925" y="235.763257" style="fill: #ff7f0e; stroke: #ff7f0e"/>
     <use xlink:href="#m95730fc454" x="176.287538" y="246.229805" style="fill: #ff7f0e; stroke: #ff7f0e"/>
     <use xlink:href="#m95730fc454" x="104.060865" y="253.841841" style="fill: #ff7f0e; stroke: #ff7f0e"/>
     <use xlink:href="#m95730fc454" x="118.971459" y="230.767858" style="fill: #ff7f0e; stroke: #ff7f0e"/>
     <use xlink:href="#m95730fc454" x="127.490597" y="242.89954" style="fill: #ff7f0e; stroke: #ff7f0e"/>
     <use xlink:href="#m95730fc454" x="116.702871" y="255.982726" style="fill: #ff7f0e; stroke: #ff7f0e"/>
     <use xlink:href="#m95730fc454" x="139.601782" y="244.08892" style="fill: #ff7f0e; stroke: #ff7f0e"/>
     <use xlink:href="#m95730fc454" x="72.714538" y="240.045027" style="fill: #ff7f0e; stroke: #ff7f0e"/>
     <use xlink:href="#m95730fc454" x="121.362843" y="247.657062" style="fill: #ff7f0e; stroke: #ff7f0e"/>
     <use xlink:href="#m95730fc454" x="123.263767" y="228.151221" style="fill: #ff7f0e; stroke: #ff7f0e"/>
     <use xlink:href="#m95730fc454" x="165.84994" y="223.393699" style="fill: #ff7f0e; stroke: #ff7f0e"/>
     <use xlink:href="#m95730fc454" x="161.316116" y="224.107327" style="fill: #ff7f0e; stroke: #ff7f0e"/>
     <use xlink:href="#m95730fc454" x="73.792177" y="244.802549" style="fill: #ff7f0e; stroke: #ff7f0e"/>
    </g>
   </g>
   <g id="matplotlib.axis_1">
    <g id="xtick_1">
     <g id="line2d_1">
      <defs>
       <path id="meff381cb8d" d="M 0 0 
L 0 3.5 
" style="stroke: #000000; stroke-width: 0.8"/>
      </defs>
      <g>
       <use xlink:href="#meff381cb8d" x="57.730171" y="273.312" style="stroke: #000000; stroke-width: 0.8"/>
      </g>
     </g>
     <g id="text_1">
      <!-- 0.1 -->
      <g transform="translate(49.750484 288.021375) scale(0.1 -0.1)">
       <defs>
        <path id="HiraginoSans-W4-30" d="M 2144 -90 
C 2758 -90 3232 141 3565 602 
C 3846 998 4019 1696 4019 2464 
C 4019 3002 3936 3501 3770 3949 
C 3693 4160 3558 4371 3379 4550 
C 3078 4858 2650 5024 2157 5024 
C 1498 5024 986 4742 666 4205 
C 435 3834 288 3142 288 2458 
C 288 1939 371 1434 538 986 
C 614 768 749 563 928 384 
C 1242 70 1651 -90 2144 -90 
z
M 2144 4499 
C 2592 4499 2918 4307 3123 3923 
C 3283 3629 3398 3014 3398 2470 
C 3398 2022 3341 1619 3213 1235 
C 3155 1043 3046 870 2912 730 
C 2726 538 2458 435 2150 435 
C 1734 435 1414 614 1197 973 
C 1024 1261 902 1875 902 2451 
C 902 2906 966 3328 1088 3699 
C 1139 3866 1235 4026 1370 4173 
C 1568 4397 1818 4499 2144 4499 
z
" transform="scale(0.015625)"/>
        <path id="HiraginoSans-W4-2e" d="M 442 723 
L 442 0 
L 1165 0 
L 1165 723 
L 442 723 
z
" transform="scale(0.015625)"/>
        <path id="HiraginoSans-W4-31" d="M 1018 4371 
C 1222 4397 1389 4410 1606 4410 
L 1939 4410 
L 1939 755 
C 1939 454 1926 237 1888 0 
L 2598 0 
C 2560 250 2547 448 2547 755 
L 2547 3904 
C 2547 4256 2566 4582 2605 4966 
C 2387 4941 2278 4934 2035 4934 
L 1581 4934 
C 1325 4934 1197 4941 1018 4966 
L 1018 4371 
z
" transform="scale(0.015625)"/>
       </defs>
       <use xlink:href="#HiraginoSans-W4-30"/>
       <use xlink:href="#HiraginoSans-W4-2e" x="67.299988"/>
       <use xlink:href="#HiraginoSans-W4-31" x="92.299973"/>
      </g>
     </g>
    </g>
    <g id="xtick_2">
     <g id="line2d_2">
      <g>
       <use xlink:href="#meff381cb8d" x="124.716035" y="273.312" style="stroke: #000000; stroke-width: 0.8"/>
      </g>
     </g>
     <g id="text_2">
      <!-- 0.2 -->
      <g transform="translate(116.736347 288.021375) scale(0.1 -0.1)">
       <defs>
        <path id="HiraginoSans-W4-32" d="M 3078 0 
C 3424 0 3642 -6 3917 -32 
L 3917 589 
C 3693 557 3430 544 3091 544 
L 1114 544 
C 1280 1114 1606 1478 2451 2042 
C 3181 2528 3341 2656 3546 2912 
C 3738 3142 3846 3443 3846 3744 
C 3846 4525 3200 5030 2202 5030 
C 1613 5030 1158 4858 858 4518 
C 640 4269 531 4026 442 3565 
L 1088 3469 
C 1139 3782 1190 3936 1306 4102 
C 1491 4371 1792 4506 2208 4506 
C 2816 4506 3206 4211 3206 3744 
C 3206 3360 2995 3085 2387 2675 
C 1754 2246 1600 2138 1389 1952 
C 979 1594 710 1229 544 806 
C 448 563 429 461 365 -26 
C 576 -6 678 0 1107 0 
L 3078 0 
z
" transform="scale(0.015625)"/>
       </defs>
       <use xlink:href="#HiraginoSans-W4-30"/>
       <use xlink:href="#HiraginoSans-W4-2e" x="67.299988"/>
       <use xlink:href="#HiraginoSans-W4-32" x="92.299973"/>
      </g>
     </g>
    </g>
    <g id="xtick_3">
     <g id="line2d_3">
      <g>
       <use xlink:href="#meff381cb8d" x="191.701898" y="273.312" style="stroke: #000000; stroke-width: 0.8"/>
      </g>
     </g>
     <g id="text_3">
      <!-- 0.3 -->
      <g transform="translate(183.722211 288.021375) scale(0.1 -0.1)">
       <defs>
        <path id="HiraginoSans-W4-33" d="M 282 1101 
C 397 768 474 621 621 448 
C 934 90 1434 -96 2112 -96 
C 2720 -96 3213 70 3533 384 
C 3770 614 3904 954 3904 1306 
C 3904 1677 3802 1958 3597 2182 
C 3379 2419 3130 2528 2688 2586 
C 2995 2650 3130 2701 3290 2816 
C 3578 3021 3738 3366 3738 3757 
C 3738 4538 3117 5043 2157 5043 
C 1594 5043 1146 4883 845 4576 
C 666 4390 582 4237 467 3891 
L 1107 3757 
C 1171 3981 1216 4083 1306 4192 
C 1478 4416 1741 4525 2125 4525 
C 2746 4525 3110 4224 3110 3725 
C 3110 3482 3021 3264 2867 3110 
C 2669 2918 2374 2829 1965 2829 
C 1779 2829 1613 2842 1459 2861 
L 1459 2272 
C 1651 2298 1811 2310 2003 2310 
C 2829 2310 3264 1990 3264 1376 
C 3264 794 2816 429 2106 429 
C 1779 429 1510 506 1293 666 
C 1107 800 1024 928 928 1248 
L 282 1101 
z
" transform="scale(0.015625)"/>
       </defs>
       <use xlink:href="#HiraginoSans-W4-30"/>
       <use xlink:href="#HiraginoSans-W4-2e" x="67.299988"/>
       <use xlink:href="#HiraginoSans-W4-33" x="92.299973"/>
      </g>
     </g>
    </g>
    <g id="xtick_4">
     <g id="line2d_4">
      <g>
       <use xlink:href="#meff381cb8d" x="258.687762" y="273.312" style="stroke: #000000; stroke-width: 0.8"/>
      </g>
     </g>
     <g id="text_4">
      <!-- 0.4 -->
      <g transform="translate(250.697918 288.021375) scale(0.1 -0.1)">
       <defs>
        <path id="HiraginoSans-W4-34" d="M 179 1210 
C 403 1229 589 1235 954 1235 
L 2688 1235 
L 2688 710 
C 2688 410 2675 218 2630 0 
L 3309 0 
C 3270 230 3258 390 3258 704 
L 3258 1235 
L 3494 1235 
C 3763 1235 3910 1222 4154 1190 
L 4154 1798 
C 3917 1766 3750 1754 3494 1754 
L 3258 1754 
L 3258 3853 
C 3258 4358 3264 4544 3296 4934 
L 2701 4934 
C 2560 4704 2445 4550 2214 4269 
L 621 2298 
C 467 2099 326 1939 179 1773 
L 179 1210 
z
M 2688 1747 
L 858 1747 
L 2259 3514 
C 2464 3763 2592 3936 2720 4128 
C 2694 3814 2688 3622 2688 3283 
L 2688 1747 
z
" transform="scale(0.015625)"/>
       </defs>
       <use xlink:href="#HiraginoSans-W4-30"/>
       <use xlink:href="#HiraginoSans-W4-2e" x="67.299988"/>
       <use xlink:href="#HiraginoSans-W4-34" x="92.299973"/>
      </g>
     </g>
    </g>
    <g id="xtick_5">
     <g id="line2d_5">
      <g>
       <use xlink:href="#meff381cb8d" x="325.673625" y="273.312" style="stroke: #000000; stroke-width: 0.8"/>
      </g>
     </g>
     <g id="text_5">
      <!-- 0.5 -->
      <g transform="translate(317.693938 288.021375) scale(0.1 -0.1)">
       <defs>
        <path id="HiraginoSans-W4-35" d="M 1331 4416 
L 2835 4416 
C 3155 4416 3366 4403 3622 4365 
L 3622 4986 
C 3360 4947 3206 4934 2829 4934 
L 1446 4934 
C 1082 4934 954 4941 762 4966 
C 774 4768 774 4762 774 4742 
C 774 4563 774 4518 749 4307 
L 608 2822 
C 589 2566 570 2445 518 2157 
L 1088 2106 
C 1146 2240 1178 2291 1261 2374 
C 1485 2605 1811 2739 2131 2739 
C 2842 2739 3264 2317 3264 1613 
C 3264 902 2803 435 2106 435 
C 1747 435 1440 563 1235 794 
C 1146 902 1101 986 1037 1171 
L 410 1005 
C 557 685 646 544 813 378 
C 1133 64 1562 -96 2099 -96 
C 3194 -96 3885 576 3885 1638 
C 3885 2605 3245 3238 2272 3238 
C 1830 3238 1472 3098 1158 2803 
C 1197 2982 1197 2982 1203 3091 
L 1331 4416 
z
" transform="scale(0.015625)"/>
       </defs>
       <use xlink:href="#HiraginoSans-W4-30"/>
       <use xlink:href="#HiraginoSans-W4-2e" x="67.299988"/>
       <use xlink:href="#HiraginoSans-W4-35" x="92.299973"/>
      </g>
     </g>
    </g>
    <g id="xtick_6">
     <g id="line2d_6">
      <g>
       <use xlink:href="#meff381cb8d" x="392.659489" y="273.312" style="stroke: #000000; stroke-width: 0.8"/>
      </g>
     </g>
     <g id="text_6">
      <!-- 0.6 -->
      <g transform="translate(384.679801 288.021375) scale(0.1 -0.1)">
       <defs>
        <path id="HiraginoSans-W4-36" d="M 3846 3994 
C 3706 4301 3616 4442 3462 4602 
C 3187 4877 2784 5024 2304 5024 
C 1683 5024 1222 4794 864 4307 
C 557 3891 371 3162 371 2355 
C 371 1446 614 704 1043 320 
C 1331 58 1773 -90 2253 -90 
C 3277 -90 3968 589 3968 1587 
C 3968 2586 3334 3213 2323 3213 
C 1894 3213 1568 3104 1274 2854 
C 1133 2739 1062 2656 941 2458 
C 979 3085 1043 3392 1210 3763 
C 1434 4262 1798 4518 2285 4518 
C 2765 4518 3040 4314 3238 3821 
L 3846 3994 
z
M 2266 2714 
C 2950 2714 3366 2285 3366 1574 
C 3366 1325 3309 1088 3206 922 
C 3008 614 2643 422 2234 422 
C 1568 422 1069 915 1069 1574 
C 1069 2234 1574 2714 2266 2714 
z
" transform="scale(0.015625)"/>
       </defs>
       <use xlink:href="#HiraginoSans-W4-30"/>
       <use xlink:href="#HiraginoSans-W4-2e" x="67.299988"/>
       <use xlink:href="#HiraginoSans-W4-36" x="92.299973"/>
      </g>
     </g>
    </g>
    <g id="text_7">
     <!-- 人口1000人あたりラーメン店舗数 -->
     <g transform="translate(148.269375 301.78075) scale(0.1 -0.1)">
      <defs>
       <path id="HiraginoSans-W4-4eba" d="M 2893 5254 
C 2912 5088 2918 4973 2918 4717 
C 2918 3277 2586 2195 1856 1267 
C 1434 723 1056 422 307 13 
C 486 -134 576 -243 691 -448 
C 1222 -115 1466 77 1824 429 
C 2240 845 2528 1235 2758 1722 
C 2989 2195 3098 2528 3213 3110 
C 3411 2285 3661 1709 4051 1152 
C 4506 512 4954 83 5728 -448 
C 5856 -224 5926 -128 6112 38 
C 5760 243 5606 346 5414 499 
C 5082 768 4736 1120 4499 1434 
C 4109 1946 3750 2682 3616 3226 
C 3533 3565 3456 4262 3456 4672 
C 3456 4858 3475 5152 3494 5254 
L 2893 5254 
z
" transform="scale(0.015625)"/>
       <path id="HiraginoSans-W4-53e3" d="M 1357 -237 
L 1357 262 
L 5062 262 
L 5062 -237 
L 5638 -237 
C 5606 -19 5594 224 5594 518 
L 5594 4096 
C 5594 4397 5600 4582 5626 4787 
C 5395 4762 5235 4755 4928 4755 
L 1491 4755 
C 1178 4755 1018 4762 794 4787 
C 813 4557 826 4378 826 4096 
L 826 518 
C 826 218 813 0 781 -237 
L 1357 -237 
z
M 1357 4262 
L 5062 4262 
L 5062 749 
L 1357 749 
L 1357 4262 
z
" transform="scale(0.015625)"/>
       <path id="HiraginoSans-W4-3042" d="M 851 3891 
C 902 3898 941 3898 966 3898 
C 979 3898 1024 3898 1082 3891 
C 1600 3872 1894 3866 1965 3866 
L 2176 3866 
C 2150 3418 2150 3418 2144 2957 
C 1210 2547 653 1824 653 1011 
C 653 422 1011 0 1517 0 
C 1978 0 2458 250 2963 755 
C 3482 1267 3840 1830 4211 2675 
C 4838 2502 5178 2138 5178 1626 
C 5178 1082 4781 634 4090 390 
C 3782 288 3520 243 3136 230 
C 3277 19 3315 -70 3379 -282 
C 3949 -218 4314 -115 4691 77 
C 5370 422 5722 941 5722 1594 
C 5722 2336 5216 2899 4365 3098 
C 4486 3398 4550 3558 4563 3584 
L 4038 3738 
C 4013 3565 3968 3386 3891 3187 
C 3731 3200 3654 3206 3533 3206 
C 3213 3206 2963 3174 2630 3091 
C 2630 3341 2637 3392 2669 3878 
C 3264 3898 4211 4000 4934 4122 
C 5050 4141 5075 4147 5165 4154 
L 5133 4685 
C 4646 4518 3731 4384 2701 4333 
C 2746 4813 2771 5024 2829 5197 
L 2246 5235 
C 2253 5184 2259 5152 2259 5133 
C 2259 5075 2246 4845 2240 4768 
C 2214 4454 2214 4454 2202 4314 
C 2093 4314 2067 4314 2048 4314 
C 1478 4314 1133 4339 858 4410 
L 851 3891 
z
M 2150 2458 
C 2150 1741 2189 1267 2272 806 
C 2010 589 1805 499 1587 499 
C 1325 499 1152 717 1152 1050 
C 1152 1357 1280 1670 1517 1952 
C 1683 2150 1850 2285 2150 2458 
z
M 2694 1126 
C 2694 1146 2694 1152 2694 1165 
C 2694 1190 2688 1248 2682 1312 
C 2637 1766 2630 1850 2618 2630 
C 2880 2726 3181 2778 3462 2778 
C 3590 2778 3622 2778 3738 2765 
C 3482 2170 3258 1805 2861 1325 
C 2752 1190 2752 1190 2707 1126 
L 2694 1126 
z
" transform="scale(0.015625)"/>
       <path id="HiraginoSans-W4-305f" d="M 672 3565 
C 768 3565 768 3565 787 3565 
C 800 3565 813 3565 832 3565 
C 1005 3558 1178 3552 1229 3552 
C 1440 3552 1677 3558 1760 3558 
C 1510 2259 1043 877 576 51 
L 1139 -186 
C 1485 640 1664 1133 1869 1818 
C 2048 2406 2214 3104 2304 3584 
C 2637 3610 3059 3667 3373 3731 
C 3507 3757 3507 3757 3558 3763 
L 3533 4288 
C 3219 4186 2880 4128 2394 4077 
C 2426 4243 2438 4314 2477 4531 
C 2554 4986 2554 4986 2592 5139 
L 1990 5203 
L 1990 5120 
C 1990 4922 1939 4550 1850 4045 
C 1677 4038 1600 4038 1498 4038 
C 1146 4038 890 4058 678 4096 
L 672 3565 
z
M 5574 3296 
C 5107 3315 5018 3315 4896 3315 
C 4307 3315 3910 3264 3142 3104 
L 3194 2592 
C 3795 2746 4224 2803 4813 2803 
C 5094 2803 5274 2790 5581 2752 
L 5574 3296 
z
M 3194 1926 
C 2854 1472 2752 1248 2752 954 
C 2752 301 3315 -38 4384 -38 
C 4736 -38 5062 -6 5536 70 
C 5754 109 5754 109 5830 122 
L 5779 691 
C 5414 557 4832 461 4358 461 
C 3667 461 3283 659 3283 1011 
C 3283 1114 3315 1248 3366 1357 
C 3411 1453 3450 1504 3635 1722 
L 3194 1926 
z
" transform="scale(0.015625)"/>
       <path id="HiraginoSans-W4-308a" d="M 1875 2963 
C 1894 3187 1907 3328 1965 3731 
C 2125 4851 2144 4941 2221 5165 
L 1632 5210 
C 1632 5133 1632 5101 1619 5005 
C 1453 3827 1408 3283 1408 2637 
C 1408 2560 1421 1875 1421 1811 
C 1427 1747 1427 1709 1427 1690 
C 1427 1677 1427 1651 1421 1619 
L 1971 1632 
C 1971 1715 1971 1754 1971 1786 
C 1971 2266 2086 2746 2323 3213 
C 2675 3923 3085 4282 3539 4282 
C 4141 4282 4486 3712 4486 2714 
C 4486 1702 4141 1050 3392 634 
C 3008 422 2675 326 2061 243 
C 2208 51 2253 -26 2349 -282 
C 2816 -186 3206 -58 3520 90 
C 4518 570 5050 1459 5050 2637 
C 5050 3347 4928 3827 4646 4237 
C 4384 4614 4026 4806 3590 4806 
C 3104 4806 2682 4544 2330 4032 
C 2150 3763 2029 3482 1946 3136 
C 1914 3008 1914 3008 1901 2963 
L 1875 2963 
z
" transform="scale(0.015625)"/>
       <path id="HiraginoSans-W4-30e9" d="M 1395 4314 
C 1619 4339 1786 4346 2125 4346 
L 4218 4346 
C 4570 4346 4736 4339 4947 4314 
L 4947 4890 
C 4717 4851 4582 4845 4211 4845 
L 2131 4845 
C 1728 4845 1619 4851 1395 4890 
L 1395 4314 
z
M 845 2816 
C 1062 2842 1229 2848 1651 2848 
L 4883 2848 
C 4589 2074 4314 1632 3840 1216 
C 3354 774 2803 499 1984 282 
C 2176 58 2227 -19 2323 -243 
C 3027 6 3443 211 3891 531 
C 4595 1043 5088 1722 5434 2675 
C 5523 2925 5549 2982 5613 3078 
L 5338 3398 
C 5203 3354 5114 3347 4832 3347 
L 1658 3347 
C 1261 3347 1094 3354 845 3392 
L 845 2816 
z
" transform="scale(0.015625)"/>
       <path id="HiraginoSans-W4-30fc" d="M 531 2131 
C 755 2157 915 2163 1421 2163 
L 5005 2163 
C 5446 2163 5632 2157 5875 2131 
L 5875 2765 
C 5651 2733 5523 2726 5011 2726 
L 1414 2726 
C 973 2726 736 2739 531 2765 
L 531 2131 
z
" transform="scale(0.015625)"/>
       <path id="HiraginoSans-W4-30e1" d="M 4397 5018 
C 4365 4832 4326 4717 4173 4339 
C 3955 3802 3725 3341 3437 2880 
C 2426 3597 2426 3597 1792 3974 
L 1408 3571 
C 1952 3270 2547 2874 3123 2419 
C 2419 1485 1626 832 595 326 
C 794 160 858 83 992 -141 
C 1632 218 2029 493 2477 890 
C 2893 1261 3258 1651 3552 2054 
C 4166 1530 4582 1114 4915 678 
L 5350 1146 
C 4826 1702 4454 2054 3891 2522 
C 4192 2970 4429 3437 4819 4378 
C 4915 4602 4947 4666 5024 4787 
L 4397 5018 
z
" transform="scale(0.015625)"/>
       <path id="HiraginoSans-W4-30f3" d="M 934 4160 
C 1504 3821 2016 3405 2496 2893 
L 2886 3373 
C 2419 3827 2022 4134 1312 4589 
L 934 4160 
z
M 1030 -19 
C 1171 26 1222 38 1427 83 
C 2458 314 3174 595 3827 1043 
C 4685 1626 5280 2368 5805 3507 
C 5581 3654 5510 3725 5331 3949 
C 4806 2573 3962 1645 2739 1101 
C 2144 838 1376 640 864 621 
L 1030 -19 
z
" transform="scale(0.015625)"/>
       <path id="HiraginoSans-W4-5e97" d="M 3302 1894 
L 2432 1894 
C 2176 1894 2042 1901 1882 1920 
C 1901 1741 1907 1613 1907 1357 
L 1907 301 
C 1907 -64 1894 -288 1869 -474 
L 2387 -474 
L 2387 -173 
L 5037 -173 
L 5037 -474 
L 5555 -474 
C 5523 -288 5517 -58 5517 320 
L 5517 1318 
C 5517 1574 5523 1734 5542 1920 
C 5382 1901 5248 1894 4992 1894 
L 3776 1894 
L 3776 2803 
L 5216 2803 
C 5478 2803 5683 2790 5843 2765 
L 5843 3283 
C 5696 3258 5510 3245 5197 3245 
L 3776 3245 
L 3776 3475 
C 3776 3814 3782 3942 3802 4070 
L 3270 4070 
C 3296 3936 3302 3814 3302 3482 
L 3302 1894 
z
M 2387 1453 
L 5037 1453 
L 5037 275 
L 2387 275 
L 2387 1453 
z
M 3091 4698 
L 1574 4698 
C 1312 4698 1088 4710 877 4730 
C 896 4531 902 4339 902 3891 
C 902 1587 762 723 256 -45 
C 474 -198 525 -243 672 -416 
C 1254 550 1389 1446 1395 4256 
L 5312 4256 
C 5651 4256 5869 4250 6042 4224 
L 6042 4736 
C 5875 4710 5658 4698 5306 4698 
L 3584 4698 
L 3584 4960 
C 3584 5158 3590 5280 3616 5389 
L 3053 5389 
C 3078 5267 3091 5146 3091 4960 
L 3091 4698 
z
" transform="scale(0.015625)"/>
       <path id="HiraginoSans-W4-8217" d="M 4243 4179 
L 4243 3648 
L 3629 3648 
C 3328 3648 3187 3654 3008 3674 
C 3027 3494 3034 3347 3034 3059 
L 3034 198 
C 3034 -115 3021 -301 3002 -467 
L 3488 -467 
C 3469 -301 3462 -134 3462 205 
L 3462 1075 
L 4243 1075 
L 4243 173 
C 4243 -90 4237 -224 4218 -390 
L 4698 -390 
C 4678 -243 4672 -90 4672 179 
L 4672 1075 
L 5530 1075 
L 5530 192 
C 5530 70 5498 38 5395 38 
C 5286 38 5088 58 4909 77 
C 4973 -102 4998 -198 5011 -371 
C 5171 -378 5235 -384 5306 -384 
C 5837 -384 5958 -301 5958 45 
L 5958 3046 
C 5958 3360 5965 3501 5978 3674 
C 5811 3654 5670 3648 5382 3648 
L 4672 3648 
L 4672 4179 
L 5581 4179 
C 5824 4179 5978 4173 6118 4147 
L 6118 4646 
C 5958 4621 5837 4614 5587 4614 
L 4672 4614 
L 4672 4813 
C 4672 5056 4678 5210 4710 5357 
L 4205 5357 
C 4230 5203 4243 5050 4243 4813 
L 4243 4614 
L 3398 4614 
C 3142 4614 2995 4621 2848 4646 
L 2848 4262 
C 2438 4576 2138 4915 1920 5286 
L 1440 5286 
C 1312 5030 1158 4787 947 4525 
C 704 4211 506 4019 147 3744 
C 262 3578 301 3501 378 3309 
C 1011 3853 1350 4250 1702 4877 
C 1984 4422 2221 4160 2707 3770 
C 2790 3949 2848 4051 2938 4166 
C 3085 4173 3213 4179 3398 4179 
L 4243 4179 
z
M 4243 1472 
L 3462 1472 
L 3462 2176 
L 4243 2176 
L 4243 1472 
z
M 4672 1472 
L 4672 2176 
L 5530 2176 
L 5530 1472 
L 4672 1472 
z
M 4243 2573 
L 3462 2573 
L 3462 3238 
L 4243 3238 
L 4243 2573 
z
M 4672 2573 
L 4672 3238 
L 5530 3238 
L 5530 2573 
L 4672 2573 
z
M 1914 2541 
L 1914 3142 
L 2246 3142 
C 2477 3142 2547 3136 2662 3123 
L 2662 3558 
C 2560 3539 2483 3533 2234 3533 
L 1914 3533 
L 1914 3635 
C 1914 3904 1920 4026 1946 4160 
L 1446 4160 
C 1472 4019 1478 3885 1478 3635 
L 1478 3533 
L 1197 3533 
C 1011 3533 909 3539 762 3558 
L 762 3123 
C 902 3136 992 3142 1197 3142 
L 1478 3142 
L 1478 2541 
L 845 2541 
C 595 2541 467 2547 320 2573 
L 320 2099 
C 486 2125 595 2131 845 2131 
L 2342 2131 
C 2592 2131 2701 2125 2835 2106 
L 2835 2566 
C 2714 2547 2573 2541 2330 2541 
L 1914 2541 
z
M 2624 -397 
C 2605 -250 2598 -128 2598 102 
L 2598 1171 
C 2598 1402 2605 1530 2618 1670 
C 2470 1651 2374 1645 2163 1645 
L 1094 1645 
C 883 1645 768 1651 614 1670 
C 634 1504 640 1376 640 1139 
L 640 128 
C 640 -147 634 -288 602 -467 
L 1094 -467 
L 1094 -147 
L 2150 -147 
L 2150 -397 
L 2624 -397 
z
M 1094 1242 
L 2150 1242 
L 2150 262 
L 1094 262 
L 1094 1242 
z
M 4922 5126 
C 5254 4960 5446 4838 5677 4646 
L 5939 4954 
C 5683 5139 5562 5216 5190 5395 
L 4922 5126 
z
" transform="scale(0.015625)"/>
       <path id="HiraginoSans-W4-6570" d="M 6170 4173 
C 6003 4141 5862 4134 5568 4134 
L 4288 4134 
C 4365 4384 4435 4627 4512 4947 
C 4557 5126 4563 5152 4595 5235 
L 4077 5344 
C 4070 5158 4032 4934 3974 4672 
C 3782 3853 3437 3130 2995 2598 
C 3142 2509 3226 2438 3354 2291 
C 3526 2515 3610 2643 3770 2931 
C 3904 2176 4070 1702 4397 1158 
C 4013 653 3526 275 2803 -77 
C 2944 -218 3021 -326 3110 -506 
C 3776 -141 4256 250 4666 755 
C 5069 230 5485 -141 6035 -467 
C 6138 -237 6202 -128 6317 13 
C 5747 314 5338 653 4954 1158 
C 5171 1523 5325 1875 5440 2304 
C 5562 2739 5613 3078 5651 3699 
C 5920 3699 6035 3693 6170 3667 
L 6170 4173 
z
M 5184 3699 
C 5133 2797 4992 2214 4672 1600 
C 4358 2170 4192 2707 4064 3539 
C 4096 3610 4102 3629 4128 3699 
L 5184 3699 
z
M 3046 339 
C 2752 512 2656 570 2419 685 
C 2643 992 2746 1190 2880 1626 
L 2963 1626 
C 3187 1626 3309 1619 3443 1594 
L 3443 2067 
C 3328 2042 3206 2035 2989 2035 
L 1862 2035 
C 1926 2176 1958 2234 2029 2426 
L 1562 2528 
C 1485 2285 1453 2202 1382 2035 
L 832 2035 
C 608 2035 493 2042 365 2067 
L 365 1594 
C 499 1619 614 1626 832 1626 
L 1165 1626 
C 1005 1344 941 1248 723 954 
C 1203 774 1402 691 1702 550 
C 1376 294 902 83 326 -58 
C 429 -205 493 -314 563 -480 
C 1325 -224 1715 -19 2112 346 
C 2432 173 2502 122 2778 -77 
L 3046 339 
z
M 2419 1626 
C 2310 1306 2214 1120 2022 870 
C 1818 960 1709 1005 1357 1146 
C 1504 1370 1549 1440 1651 1626 
L 2419 1626 
z
M 2163 4070 
L 2163 4902 
C 2163 5075 2170 5203 2189 5325 
L 1696 5325 
C 1722 5184 1728 5075 1728 4896 
L 1728 4070 
L 915 4070 
C 666 4070 531 4077 390 4102 
L 390 3642 
C 518 3667 678 3674 902 3674 
L 1434 3674 
C 1133 3258 864 3034 269 2688 
C 410 2566 486 2477 589 2317 
C 1184 2739 1408 2963 1747 3494 
C 1734 3366 1728 3258 1728 3162 
L 1728 2835 
C 1728 2752 1722 2662 1702 2586 
L 2182 2586 
C 2170 2662 2163 2758 2163 2848 
L 2163 3168 
C 2163 3258 2157 3347 2138 3494 
C 2355 3162 2490 3014 2848 2739 
C 2989 2970 3002 2982 3130 3110 
C 2816 3277 2566 3469 2406 3674 
L 2989 3674 
C 3200 3674 3309 3667 3418 3648 
L 3418 4096 
C 3322 4077 3200 4070 2995 4070 
L 2163 4070 
z
M 570 5056 
C 774 4768 896 4550 1024 4211 
L 1427 4371 
C 1286 4704 1190 4883 960 5210 
L 570 5056 
z
M 2918 5235 
C 2784 4883 2643 4634 2406 4333 
L 2790 4147 
C 3008 4442 3104 4608 3328 5050 
L 2918 5235 
z
" transform="scale(0.015625)"/>
      </defs>
      <use xlink:href="#HiraginoSans-W4-4eba"/>
      <use xlink:href="#HiraginoSans-W4-53e3" x="99.999985"/>
      <use xlink:href="#HiraginoSans-W4-31" x="199.999969"/>
      <use xlink:href="#HiraginoSans-W4-30" x="267.299957"/>
      <use xlink:href="#HiraginoSans-W4-30" x="334.599945"/>
      <use xlink:href="#HiraginoSans-W4-30" x="401.899933"/>
      <use xlink:href="#HiraginoSans-W4-4eba" x="469.199921"/>
      <use xlink:href="#HiraginoSans-W4-3042" x="569.199905"/>
      <use xlink:href="#HiraginoSans-W4-305f" x="669.19989"/>
      <use xlink:href="#HiraginoSans-W4-308a" x="769.199875"/>
      <use xlink:href="#HiraginoSans-W4-30e9" x="869.19986"/>
      <use xlink:href="#HiraginoSans-W4-30fc" x="969.199844"/>
      <use xlink:href="#HiraginoSans-W4-30e1" x="1069.199829"/>
      <use xlink:href="#HiraginoSans-W4-30f3" x="1169.199814"/>
      <use xlink:href="#HiraginoSans-W4-5e97" x="1269.199799"/>
      <use xlink:href="#HiraginoSans-W4-8217" x="1369.199783"/>
      <use xlink:href="#HiraginoSans-W4-6570" x="1469.199768"/>
     </g>
    </g>
   </g>
   <g id="matplotlib.axis_2">
    <g id="ytick_1">
     <g id="line2d_7">
      <defs>
       <path id="me4b7bef411" d="M 0 0 
L -3.5 0 
" style="stroke: #000000; stroke-width: 0.8"/>
      </defs>
      <g>
       <use xlink:href="#me4b7bef411" x="48.16875" y="226.723965" style="stroke: #000000; stroke-width: 0.8"/>
      </g>
     </g>
     <g id="text_8">
      <!-- 60 -->
      <g transform="translate(27.709375 230.578652) scale(0.1 -0.1)">
       <use xlink:href="#HiraginoSans-W4-36"/>
       <use xlink:href="#HiraginoSans-W4-30" x="67.299988"/>
      </g>
     </g>
    </g>
    <g id="ytick_2">
     <g id="line2d_8">
      <g>
       <use xlink:href="#me4b7bef411" x="48.16875" y="179.148743" style="stroke: #000000; stroke-width: 0.8"/>
      </g>
     </g>
     <g id="text_9">
      <!-- 80 -->
      <g transform="translate(27.709375 183.003431) scale(0.1 -0.1)">
       <defs>
        <path id="HiraginoSans-W4-38" d="M 1446 2586 
C 1203 2547 1056 2490 851 2355 
C 480 2106 294 1754 294 1299 
C 294 397 966 -102 2163 -102 
C 3347 -102 4006 397 4006 1299 
C 4006 1728 3853 2061 3539 2304 
C 3322 2470 3136 2547 2867 2586 
C 3437 2714 3789 3162 3789 3757 
C 3789 4550 3162 5043 2150 5043 
C 1146 5043 512 4544 512 3750 
C 512 3162 877 2701 1446 2586 
z
M 2150 4538 
C 2784 4538 3187 4211 3187 3699 
C 3187 3155 2797 2829 2157 2829 
C 1510 2829 1114 3162 1114 3699 
C 1114 4211 1523 4538 2150 4538 
z
M 2157 2304 
C 2912 2304 3373 1939 3373 1344 
C 3373 749 2925 410 2144 410 
C 1376 410 928 749 928 1338 
C 928 1939 1389 2304 2157 2304 
z
" transform="scale(0.015625)"/>
       </defs>
       <use xlink:href="#HiraginoSans-W4-38"/>
       <use xlink:href="#HiraginoSans-W4-30" x="67.299988"/>
      </g>
     </g>
    </g>
    <g id="ytick_3">
     <g id="line2d_9">
      <g>
       <use xlink:href="#me4b7bef411" x="48.16875" y="131.573522" style="stroke: #000000; stroke-width: 0.8"/>
      </g>
     </g>
     <g id="text_10">
      <!-- 100 -->
      <g transform="translate(20.979688 135.42821) scale(0.1 -0.1)">
       <use xlink:href="#HiraginoSans-W4-31"/>
       <use xlink:href="#HiraginoSans-W4-30" x="67.299988"/>
       <use xlink:href="#HiraginoSans-W4-30" x="134.599976"/>
      </g>
     </g>
    </g>
    <g id="ytick_4">
     <g id="line2d_10">
      <g>
       <use xlink:href="#me4b7bef411" x="48.16875" y="83.998301" style="stroke: #000000; stroke-width: 0.8"/>
      </g>
     </g>
     <g id="text_11">
      <!-- 120 -->
      <g transform="translate(20.979688 87.852988) scale(0.1 -0.1)">
       <use xlink:href="#HiraginoSans-W4-31"/>
       <use xlink:href="#HiraginoSans-W4-32" x="67.299988"/>
       <use xlink:href="#HiraginoSans-W4-30" x="134.599976"/>
      </g>
     </g>
    </g>
    <g id="ytick_5">
     <g id="line2d_11">
      <g>
       <use xlink:href="#me4b7bef411" x="48.16875" y="36.42308" style="stroke: #000000; stroke-width: 0.8"/>
      </g>
     </g>
     <g id="text_12">
      <!-- 140 -->
      <g transform="translate(20.959375 40.277767) scale(0.1 -0.1)">
       <use xlink:href="#HiraginoSans-W4-31"/>
       <use xlink:href="#HiraginoSans-W4-34" x="67.299988"/>
       <use xlink:href="#HiraginoSans-W4-30" x="134.799973"/>
      </g>
     </g>
    </g>
    <g id="text_13">
     <!-- 脳血管疾患年齢調整死亡率 -->
     <g transform="translate(14.909375 200.256) rotate(-90) scale(0.1 -0.1)">
      <defs>
       <path id="HiraginoSans-W4-8133" d="M 1766 1734 
L 1766 275 
C 1766 115 1734 90 1562 90 
C 1427 90 1267 109 1101 154 
C 1178 -51 1197 -141 1203 -346 
C 1459 -365 1472 -365 1568 -365 
C 2093 -365 2195 -275 2195 205 
L 2195 4589 
C 2195 4883 2202 5050 2221 5210 
C 2086 5190 1971 5184 1728 5184 
L 1114 5184 
C 902 5184 742 5190 602 5210 
C 627 4979 634 4723 634 4294 
C 634 1542 544 627 205 -90 
C 390 -224 442 -269 595 -448 
C 838 109 954 704 1018 1734 
L 1766 1734 
z
M 1766 3680 
L 1069 3680 
L 1069 4742 
L 1766 4742 
L 1766 3680 
z
M 1766 3251 
L 1766 2163 
L 1037 2163 
C 1043 2310 1050 2394 1050 2758 
C 1050 2867 1056 3034 1062 3251 
L 1766 3251 
z
M 5306 1018 
C 4966 1427 4838 1581 4608 1837 
C 4749 2099 4826 2272 4979 2714 
C 5030 2867 5062 2950 5101 3040 
L 4659 3187 
C 4582 2784 4499 2528 4314 2150 
C 4096 2374 4051 2419 3590 2867 
L 3283 2566 
C 3654 2240 3763 2131 4096 1773 
C 3834 1370 3597 1114 3200 800 
C 3347 698 3430 627 3533 480 
C 3859 781 4109 1069 4378 1459 
C 4627 1165 4723 1043 4986 678 
L 5306 1018 
z
M 3578 3610 
C 3366 4205 3194 4602 2912 5114 
L 2483 4915 
C 2790 4403 2970 4000 3155 3405 
L 3578 3610 
z
M 4595 3846 
C 4435 4410 4269 4851 4051 5306 
L 3616 5152 
C 3891 4614 4019 4282 4179 3661 
L 4595 3846 
z
M 5101 3283 
C 5485 3834 5658 4166 6029 5037 
L 5549 5267 
C 5325 4538 5120 4102 4704 3501 
L 5101 3283 
z
M 5408 -109 
L 5408 -448 
L 5894 -448 
C 5869 -256 5856 -51 5856 243 
L 5856 2470 
C 5856 2720 5869 2906 5894 3091 
L 5376 3091 
C 5402 2931 5408 2771 5408 2477 
L 5408 320 
L 3091 320 
L 3091 2464 
C 3091 2758 3098 2912 3123 3072 
L 2611 3072 
C 2637 2906 2643 2739 2643 2451 
L 2643 250 
C 2643 -64 2630 -301 2611 -448 
L 3091 -448 
L 3091 -109 
L 5408 -109 
z
" transform="scale(0.015625)"/>
       <path id="HiraginoSans-W4-8840" d="M 1587 4237 
C 1293 4237 1094 4243 858 4269 
C 883 4045 896 3840 896 3565 
L 896 378 
L 710 378 
C 493 378 358 384 224 410 
L 224 -115 
C 461 -90 678 -77 1005 -77 
L 5408 -77 
C 5709 -77 5952 -90 6170 -115 
L 6170 410 
C 6042 384 5901 378 5677 378 
L 5504 378 
L 5504 3539 
C 5504 3853 5510 4038 5542 4269 
C 5318 4243 5146 4237 4838 4237 
L 3008 4237 
C 3155 4531 3181 4582 3437 5229 
L 2880 5306 
C 2790 4928 2675 4627 2477 4237 
L 1587 4237 
z
M 2272 3795 
L 2272 378 
L 1395 378 
L 1395 3795 
L 2272 3795 
z
M 3635 3795 
L 3635 378 
L 2746 378 
L 2746 3795 
L 3635 3795 
z
M 4109 3795 
L 5005 3795 
L 5005 378 
L 4109 378 
L 4109 3795 
z
" transform="scale(0.015625)"/>
       <path id="HiraginoSans-W4-7ba1" d="M 1747 4474 
C 1888 4218 1946 4077 2035 3795 
L 2458 3962 
C 2374 4160 2317 4269 2202 4474 
L 2675 4474 
C 2918 4474 3002 4467 3149 4454 
L 3149 4909 
C 3002 4883 2874 4877 2598 4877 
L 1581 4877 
C 1677 5030 1722 5107 1824 5293 
L 1338 5421 
C 1139 4922 813 4512 326 4166 
C 538 4026 557 4006 691 3846 
C 934 4058 1094 4218 1293 4474 
L 1747 4474 
z
M 4262 4467 
C 4410 4224 4480 4077 4589 3795 
L 5030 3962 
C 4941 4147 4870 4262 4742 4467 
L 5510 4467 
C 5779 4467 5914 4461 6080 4435 
L 6080 4902 
C 5907 4877 5786 4870 5498 4870 
L 4038 4870 
C 4147 5082 4179 5139 4250 5306 
L 3782 5402 
C 3654 4973 3418 4608 3098 4346 
C 3258 4262 3379 4179 3462 4083 
C 3590 4211 3667 4301 3789 4467 
L 4262 4467 
z
M 3379 3686 
L 3379 3782 
C 3379 3942 3379 3994 3398 4083 
C 3398 4090 3398 4109 3405 4128 
L 2886 4128 
C 2906 4006 2912 3930 2912 3782 
L 2912 3686 
L 1203 3686 
C 877 3686 749 3693 557 3712 
C 576 3584 582 3475 582 3302 
L 582 2938 
C 582 2758 570 2650 557 2522 
L 1050 2522 
L 1050 3290 
L 5434 3290 
L 5434 2522 
L 5926 2522 
C 5907 2643 5901 2752 5901 2944 
L 5901 3309 
C 5901 3501 5901 3584 5920 3712 
C 5709 3693 5574 3686 5254 3686 
L 3379 3686 
z
M 1875 -486 
L 1875 -179 
L 4730 -179 
L 4730 -486 
L 5229 -486 
C 5203 -294 5197 -122 5197 109 
L 5197 659 
C 5197 890 5203 1069 5222 1222 
C 5075 1203 4915 1197 4653 1197 
L 1875 1197 
L 1875 1613 
L 4378 1613 
C 4634 1613 4800 1606 4979 1587 
C 4960 1734 4960 1850 4960 2080 
L 4960 2483 
C 4960 2688 4966 2822 4979 2944 
C 4794 2918 4627 2912 4365 2912 
L 1997 2912 
C 1741 2912 1574 2918 1382 2944 
C 1402 2803 1408 2694 1408 2483 
L 1408 179 
C 1408 -90 1395 -275 1370 -486 
L 1875 -486 
z
M 1875 2522 
L 4506 2522 
L 4506 1997 
L 1875 1997 
L 1875 2522 
z
M 1875 800 
L 4730 800 
L 4730 211 
L 1875 211 
L 1875 800 
z
" transform="scale(0.015625)"/>
       <path id="HiraginoSans-W4-75be" d="M 3654 3155 
C 3642 2547 3642 2528 3603 2176 
L 2464 2176 
C 2163 2176 2016 2182 1862 2208 
L 1862 1709 
C 2029 1734 2182 1741 2483 1741 
L 3526 1741 
C 3405 1235 3187 890 2835 614 
C 2490 346 2150 192 1523 0 
C 1651 -147 1722 -262 1792 -442 
C 2426 -218 2810 -6 3168 301 
C 3507 595 3725 909 3878 1344 
C 4090 928 4384 563 4749 262 
C 5120 -38 5414 -211 5946 -435 
C 6042 -218 6086 -141 6227 45 
C 5197 365 4563 883 4147 1741 
L 5421 1741 
C 5690 1741 5920 1728 6086 1709 
L 6086 2214 
C 5920 2189 5715 2176 5427 2176 
L 4064 2176 
C 4102 2490 4102 2534 4115 3155 
L 5139 3155 
C 5421 3155 5606 3142 5786 3117 
L 5786 3622 
C 5606 3590 5440 3584 5133 3584 
L 3046 3584 
C 3117 3750 3142 3814 3238 4090 
L 2758 4243 
C 2573 3507 2342 3078 1869 2592 
C 2042 2490 2138 2413 2253 2291 
C 2522 2605 2650 2784 2848 3155 
L 3654 3155 
z
M 3309 4768 
L 1914 4768 
C 1587 4768 1389 4774 1171 4800 
C 1203 4525 1203 4403 1203 3194 
C 1203 2925 1197 2739 1190 2445 
C 774 2202 365 2022 128 1971 
L 326 1491 
C 378 1530 416 1549 467 1574 
C 749 1728 928 1824 1158 1971 
C 1056 1037 819 506 237 -102 
C 422 -230 499 -294 634 -474 
C 947 -115 1165 230 1331 634 
C 1568 1222 1683 2067 1683 3226 
L 1683 4320 
L 5344 4320 
C 5664 4320 5830 4314 6035 4288 
L 6035 4806 
C 5837 4781 5600 4768 5306 4768 
L 3808 4768 
L 3808 4858 
C 3808 5107 3814 5216 3840 5357 
L 3277 5357 
C 3302 5203 3309 5101 3309 4864 
L 3309 4768 
z
M 198 4038 
C 397 3674 525 3347 666 2835 
L 1056 3053 
C 909 3558 781 3878 589 4250 
L 198 4038 
z
" transform="scale(0.015625)"/>
       <path id="HiraginoSans-W4-60a3" d="M 2918 3584 
L 2918 3187 
L 1446 3187 
C 1088 3187 915 3194 762 3213 
C 781 3078 787 2938 787 2739 
L 787 2330 
C 787 2118 781 1984 762 1843 
C 979 1869 1139 1875 1453 1875 
L 2918 1875 
C 2912 1741 2906 1664 2880 1562 
L 3411 1562 
C 3392 1664 3379 1728 3379 1875 
L 4954 1875 
C 5318 1875 5498 1869 5658 1850 
C 5638 1978 5632 2099 5632 2330 
L 5632 2739 
C 5632 2957 5638 3085 5658 3213 
C 5504 3194 5318 3187 4973 3187 
L 3379 3187 
L 3379 3584 
L 4768 3584 
C 5094 3584 5242 3578 5459 3565 
C 5440 3706 5434 3814 5434 4019 
L 5434 4461 
C 5434 4653 5440 4768 5459 4922 
C 5274 4896 5101 4890 4749 4890 
L 3379 4890 
C 3379 5107 3392 5222 3418 5376 
L 2880 5376 
C 2912 5190 2918 5107 2918 4890 
L 1677 4890 
C 1325 4890 1152 4896 960 4922 
C 979 4774 986 4653 986 4461 
L 986 4019 
C 986 3821 979 3712 960 3565 
C 1190 3578 1338 3584 1658 3584 
L 2918 3584 
z
M 2918 4506 
L 2918 3962 
L 1446 3962 
L 1446 4506 
L 2918 4506 
z
M 3379 4506 
L 4973 4506 
L 4973 3962 
L 3379 3962 
L 3379 4506 
z
M 2918 2803 
L 2918 2266 
L 1248 2266 
L 1248 2803 
L 2918 2803 
z
M 3379 2803 
L 5165 2803 
L 5165 2266 
L 3379 2266 
L 3379 2803 
z
M 774 -320 
C 1165 243 1312 550 1510 1216 
L 1082 1395 
C 909 781 749 461 358 -32 
L 774 -320 
z
M 1875 1370 
C 1907 1210 1914 1101 1914 883 
L 1914 134 
C 1914 -96 1978 -192 2163 -262 
C 2323 -320 2605 -339 3226 -339 
C 4653 -339 4730 -288 4826 685 
C 4640 717 4525 755 4352 845 
C 4333 467 4307 288 4243 218 
C 4160 122 3917 90 3264 90 
C 2490 90 2381 109 2381 250 
L 2381 928 
C 2381 1126 2387 1229 2419 1370 
L 1875 1370 
z
M 3987 794 
C 3629 1126 3405 1306 3078 1530 
L 2733 1280 
C 3085 1037 3328 819 3622 486 
L 3987 794 
z
M 6080 58 
C 5773 595 5504 966 5126 1408 
L 4742 1184 
C 5120 742 5338 403 5670 -243 
L 6080 58 
z
" transform="scale(0.015625)"/>
       <path id="HiraginoSans-W4-5e74" d="M 1446 1555 
L 1005 1555 
C 723 1555 531 1568 339 1594 
L 339 1056 
C 544 1082 730 1094 1005 1094 
L 3270 1094 
L 3270 115 
C 3270 -192 3264 -339 3232 -512 
L 3814 -512 
C 3782 -339 3770 -179 3770 109 
L 3770 1094 
L 5344 1094 
C 5613 1094 5811 1082 6010 1056 
L 6010 1594 
C 5818 1568 5632 1555 5344 1555 
L 3770 1555 
L 3770 2746 
L 4902 2746 
C 5158 2746 5318 2739 5485 2720 
L 5485 3219 
C 5312 3194 5165 3187 4890 3187 
L 3770 3187 
L 3770 4173 
L 5178 4173 
C 5453 4173 5594 4166 5773 4141 
L 5773 4646 
C 5606 4621 5459 4614 5178 4614 
L 2061 4614 
C 2093 4685 2093 4685 2144 4800 
C 2246 5024 2246 5024 2285 5101 
C 2323 5184 2336 5210 2368 5280 
L 1830 5414 
C 1798 5280 1754 5139 1670 4947 
C 1376 4256 1037 3802 397 3258 
C 557 3142 627 3066 749 2874 
C 1184 3258 1472 3616 1811 4173 
L 3270 4173 
L 3270 3187 
L 1882 3187 
C 1702 3187 1562 3194 1427 3206 
C 1440 3085 1446 2970 1446 2829 
L 1446 1555 
z
M 1939 1555 
L 1939 2746 
L 3270 2746 
L 3270 1555 
L 1939 1555 
z
" transform="scale(0.015625)"/>
       <path id="HiraginoSans-W4-9f62" d="M 934 2643 
C 934 2874 941 3078 960 3251 
L 493 3251 
C 518 3072 525 2893 525 2598 
L 525 211 
C 525 -141 518 -314 493 -512 
L 947 -512 
L 947 -192 
L 2822 -192 
L 2822 -448 
L 3270 -448 
C 3251 -250 3245 -102 3245 262 
L 3245 2643 
C 3245 2899 3251 3072 3270 3251 
L 2822 3251 
C 2835 3098 2842 2918 2842 2669 
L 2842 979 
C 2566 1222 2355 1510 2189 1850 
L 2445 1850 
C 2534 1850 2637 1843 2714 1830 
L 2714 2202 
C 2630 2189 2573 2182 2445 2182 
L 2067 2182 
L 2067 2758 
C 2067 2989 2074 3174 2086 3315 
L 1690 3315 
C 1709 3149 1715 2982 1715 2758 
L 1715 2182 
L 1344 2182 
C 1229 2182 1152 2189 1069 2202 
L 1069 1830 
C 1146 1843 1248 1850 1344 1850 
L 1581 1850 
C 1389 1427 1222 1190 934 934 
L 934 2643 
z
M 934 902 
C 1018 813 1069 742 1133 621 
C 1434 941 1555 1139 1741 1574 
C 1722 1254 1715 1024 1715 883 
L 1715 685 
C 1715 525 1709 467 1696 339 
L 2086 339 
C 2074 461 2067 512 2067 678 
L 2067 890 
C 2067 1120 2067 1197 2048 1587 
C 2227 1190 2381 947 2650 646 
C 2726 774 2784 864 2842 928 
L 2842 198 
L 934 198 
L 934 902 
z
M 2240 3872 
L 2240 4422 
L 2682 4422 
C 2918 4422 3040 4416 3200 4397 
L 3200 4813 
C 3034 4787 2925 4781 2682 4781 
L 2240 4781 
L 2240 4819 
C 2240 5056 2246 5178 2278 5344 
L 1773 5344 
C 1805 5158 1811 5030 1811 4742 
L 1811 3872 
L 1261 3872 
L 1261 4448 
C 1261 4742 1267 4819 1293 4998 
L 819 4998 
C 845 4826 851 4698 851 4448 
L 851 3872 
C 621 3872 531 3878 371 3910 
L 371 3443 
C 589 3462 704 3469 986 3469 
L 2797 3469 
C 2989 3469 3174 3462 3290 3450 
C 3366 3360 3418 3290 3494 3142 
C 3782 3411 3942 3597 4147 3885 
C 4371 4211 4486 4429 4659 4877 
C 5011 4109 5344 3667 6010 3098 
C 6093 3296 6144 3379 6266 3546 
C 5907 3802 5670 4038 5421 4384 
C 5197 4685 5024 4998 4902 5299 
L 4384 5299 
C 4211 4678 3821 4064 3322 3622 
L 3322 3904 
C 3162 3878 3053 3872 2803 3872 
L 2240 3872 
z
M 4141 2118 
L 4141 160 
C 4141 -205 4134 -352 4102 -538 
L 4634 -538 
C 4602 -371 4595 -198 4595 160 
L 4595 2118 
L 5434 2118 
L 5434 710 
C 5434 602 5402 570 5293 570 
C 5178 570 5011 589 4870 621 
C 4934 454 4954 346 4966 160 
C 5203 147 5235 147 5286 147 
C 5747 147 5882 256 5882 634 
L 5882 1965 
C 5882 2246 5888 2406 5907 2573 
C 5792 2554 5606 2547 5286 2547 
L 4090 2547 
C 3750 2547 3629 2554 3462 2579 
L 3462 2086 
C 3648 2112 3776 2118 4051 2118 
L 4141 2118 
z
M 1037 3072 
C 1190 2784 1248 2650 1331 2336 
L 1606 2483 
C 1517 2784 1453 2950 1318 3213 
L 1037 3072 
z
M 2438 3213 
C 2362 2893 2304 2726 2170 2483 
L 2432 2336 
C 2573 2598 2630 2752 2746 3078 
L 2438 3213 
z
M 3891 3078 
C 4038 3091 4128 3098 4410 3098 
L 4954 3098 
C 5248 3098 5312 3098 5453 3078 
L 5453 3520 
C 5312 3501 5235 3501 4941 3501 
L 4422 3501 
C 4115 3501 4058 3501 3891 3520 
L 3891 3078 
z
" transform="scale(0.015625)"/>
       <path id="HiraginoSans-W4-8abf" d="M 4090 3590 
L 4090 2976 
L 3731 2976 
C 3552 2976 3430 2982 3315 3008 
L 3315 2566 
C 3443 2586 3546 2592 3731 2592 
L 4877 2592 
C 5088 2592 5178 2586 5312 2566 
L 5312 3008 
C 5190 2982 5075 2976 4870 2976 
L 4499 2976 
L 4499 3590 
L 4794 3590 
C 5005 3590 5101 3584 5242 3565 
L 5242 3994 
C 5094 3974 4986 3968 4794 3968 
L 4499 3968 
L 4499 4026 
C 4499 4262 4506 4371 4531 4506 
L 4058 4506 
C 4083 4358 4090 4256 4090 4032 
L 4090 3968 
L 3808 3968 
C 3654 3968 3539 3974 3379 3994 
L 3379 3565 
C 3520 3584 3642 3590 3814 3590 
L 4090 3590 
z
M 570 4653 
C 723 4672 845 4678 1050 4678 
L 1818 4678 
C 2016 4678 2150 4672 2298 4653 
L 2298 5126 
C 2157 5101 2048 5094 1818 5094 
L 1050 5094 
C 819 5094 704 5101 570 5126 
L 570 4653 
z
M 352 3750 
C 506 3770 646 3776 864 3776 
L 1965 3776 
C 2195 3776 2304 3770 2432 3750 
L 2432 4237 
C 2285 4211 2189 4205 1920 4205 
L 864 4205 
C 621 4205 518 4211 352 4237 
L 352 3750 
z
M 557 2861 
C 678 2880 781 2886 986 2886 
L 1850 2886 
C 2042 2886 2138 2880 2266 2861 
L 2266 3322 
C 2150 3302 2061 3296 1850 3296 
L 986 3296 
C 774 3296 678 3302 557 3322 
L 557 2861 
z
M 557 1978 
C 672 1997 787 2003 979 2003 
L 1843 2003 
C 2035 2003 2138 1997 2266 1978 
L 2266 2438 
C 2150 2419 2061 2413 1850 2413 
L 986 2413 
C 768 2413 685 2419 557 2438 
L 557 1978 
z
M 992 -474 
L 992 -109 
L 1830 -109 
L 1830 -378 
L 2253 -378 
C 2246 -275 2240 -173 2240 45 
L 2240 1062 
C 2240 1344 2246 1446 2259 1542 
C 2214 1536 2086 1536 1869 1530 
L 954 1530 
C 723 1530 653 1536 538 1555 
C 557 1370 563 1248 563 1037 
L 563 147 
C 563 -58 550 -301 531 -474 
L 992 -474 
z
M 986 1146 
L 1830 1146 
L 1830 288 
L 986 288 
L 986 1146 
z
M 3898 2170 
C 3706 2170 3590 2176 3456 2189 
C 3469 2067 3475 1946 3475 1766 
L 3475 640 
C 3475 410 3469 262 3450 141 
L 3878 141 
L 3878 570 
L 4634 570 
C 4858 570 4979 563 5082 550 
C 5069 666 5062 768 5062 954 
L 5062 1786 
C 5062 1971 5069 2074 5082 2189 
C 4979 2176 4858 2170 4634 2170 
L 3898 2170 
z
M 3878 1786 
L 4666 1786 
L 4666 966 
L 3878 966 
L 3878 1786 
z
M 5926 4461 
C 5926 4774 5933 4941 5952 5120 
C 5792 5101 5645 5094 5318 5094 
L 3334 5094 
C 3014 5094 2874 5101 2694 5120 
C 2726 4864 2733 4685 2733 4077 
C 2733 2733 2688 1709 2598 1030 
C 2528 493 2451 230 2253 -166 
C 2432 -269 2490 -314 2643 -480 
C 2835 -77 2938 262 3014 742 
C 3117 1414 3174 2541 3174 3936 
L 3174 4672 
L 5472 4672 
L 5472 224 
C 5472 77 5427 45 5216 45 
C 5024 45 4806 64 4499 115 
C 4570 -90 4582 -160 4602 -371 
C 4896 -390 5069 -397 5216 -397 
C 5498 -397 5658 -371 5754 -301 
C 5869 -224 5926 -77 5926 128 
L 5926 4461 
z
" transform="scale(0.015625)"/>
       <path id="HiraginoSans-W4-6574" d="M 6042 4691 
C 5824 4666 5664 4653 5440 4653 
L 4269 4653 
C 4371 4883 4403 4966 4512 5261 
L 4051 5350 
C 3994 5037 3853 4666 3661 4339 
C 3507 4077 3366 3904 3130 3693 
L 3130 3872 
C 3130 4077 3136 4154 3149 4262 
C 3008 4243 2899 4237 2630 4237 
L 2061 4237 
L 2061 4563 
L 2867 4563 
C 3264 4557 3264 4557 3392 4538 
L 3392 4979 
C 3251 4960 3091 4947 2854 4947 
L 2061 4947 
C 2061 5107 2067 5197 2093 5338 
L 1619 5338 
C 1638 5235 1651 5126 1651 4947 
L 922 4947 
C 672 4947 506 4960 358 4979 
L 358 4531 
C 499 4557 666 4563 915 4563 
L 1651 4563 
L 1651 4237 
L 1094 4237 
C 826 4237 730 4243 582 4262 
C 595 4141 602 4058 602 3872 
L 602 3482 
C 602 3341 595 3200 582 3072 
C 717 3085 819 3091 1069 3091 
L 1395 3091 
C 1094 2752 710 2502 192 2298 
C 320 2189 378 2118 474 1952 
C 1030 2234 1414 2547 1670 2944 
C 1658 2803 1651 2675 1651 2579 
L 1651 2368 
C 1651 2189 1645 2099 1626 2016 
L 2080 2016 
C 2067 2157 2061 2214 2061 2374 
L 2061 2579 
C 2061 2669 2054 2746 2042 2950 
C 2285 2630 2522 2426 2931 2182 
C 3027 2362 3053 2394 3181 2534 
C 2784 2688 2547 2842 2291 3091 
L 2669 3091 
C 2957 3091 3046 3091 3149 3072 
C 3136 3187 3130 3309 3130 3482 
L 3130 3674 
C 3270 3565 3334 3494 3424 3366 
C 3590 3546 3674 3648 3795 3821 
C 3949 3507 4102 3264 4326 3002 
C 3955 2688 3610 2509 3110 2362 
C 3238 2214 3270 2163 3360 1978 
C 3885 2157 4237 2362 4621 2707 
C 4986 2381 5331 2170 5882 1952 
C 5958 2150 6003 2234 6118 2400 
C 5626 2547 5261 2733 4915 3014 
C 5242 3405 5382 3686 5555 4250 
C 5786 4250 5888 4237 6042 4218 
L 6042 4691 
z
M 4064 4250 
L 5094 4250 
C 4979 3846 4851 3584 4608 3290 
C 4371 3539 4186 3834 4038 4198 
L 4064 4250 
z
M 1651 3898 
L 1651 3418 
L 992 3418 
L 992 3898 
L 1651 3898 
z
M 2061 3898 
L 2746 3898 
L 2746 3418 
L 2061 3418 
L 2061 3898 
z
M 2963 115 
L 1997 115 
L 1997 678 
C 1997 864 2003 992 2029 1139 
L 1498 1139 
C 1523 1005 1530 890 1530 678 
L 1530 115 
L 1024 115 
C 768 115 525 128 346 154 
L 346 -320 
C 557 -294 762 -282 1024 -282 
L 5421 -282 
C 5683 -282 5882 -294 6099 -320 
L 6099 154 
C 5914 128 5702 115 5421 115 
L 3424 115 
L 3424 621 
L 4826 621 
C 5062 621 5203 614 5389 589 
L 5389 1050 
C 5229 1024 5094 1018 4826 1018 
L 3424 1018 
L 3424 1459 
L 5069 1459 
C 5389 1459 5536 1453 5722 1427 
L 5722 1888 
C 5555 1862 5414 1856 5069 1856 
L 1299 1856 
C 992 1856 851 1862 678 1888 
L 678 1427 
C 858 1453 1011 1459 1299 1459 
L 2963 1459 
L 2963 115 
z
" transform="scale(0.015625)"/>
       <path id="HiraginoSans-W4-6b7b" d="M 1229 2163 
C 1555 1920 1754 1734 2048 1395 
C 1626 742 1133 301 371 -109 
C 518 -218 602 -307 723 -506 
C 1504 -38 2061 499 2477 1190 
C 2848 1792 3053 2394 3162 3168 
C 3168 3213 3174 3251 3174 3277 
C 3194 3379 3194 3379 3200 3437 
L 2970 3680 
C 2842 3667 2720 3661 2477 3661 
L 1798 3661 
C 1907 3962 1965 4173 2054 4570 
L 5350 4570 
C 5606 4570 5850 4557 6054 4531 
L 6054 5050 
C 5850 5024 5606 5011 5350 5011 
L 1056 5011 
C 781 5011 570 5024 352 5050 
L 352 4531 
C 563 4557 781 4570 1005 4570 
L 1555 4570 
C 1459 4109 1382 3859 1235 3507 
C 979 2899 678 2464 243 2086 
C 378 1952 435 1869 538 1677 
C 1043 2163 1325 2566 1626 3232 
L 2707 3232 
C 2605 2605 2509 2278 2298 1830 
C 2048 2074 1811 2278 1504 2509 
L 1229 2163 
z
M 4134 1997 
C 4787 2310 5242 2592 5760 3008 
C 5901 3117 5901 3117 5997 3187 
L 5638 3603 
C 5370 3258 4800 2842 4134 2496 
L 4134 3738 
C 4134 3981 4147 4173 4173 4365 
L 3622 4365 
C 3648 4192 3654 4045 3654 3782 
L 3654 134 
C 3654 -301 3808 -371 4787 -371 
C 5952 -371 6029 -294 6131 998 
C 5971 1030 5818 1088 5651 1197 
C 5626 589 5594 365 5523 243 
C 5446 115 5299 83 4781 83 
C 4448 83 4250 102 4186 141 
C 4147 160 4134 192 4134 275 
L 4134 1997 
z
" transform="scale(0.015625)"/>
       <path id="HiraginoSans-W4-4ea1" d="M 2918 4115 
L 1082 4115 
C 755 4115 550 4128 346 4160 
L 346 3597 
C 525 3622 762 3635 1082 3635 
L 1299 3635 
L 1299 666 
C 1299 275 1402 51 1632 -51 
C 1901 -179 2246 -211 3238 -211 
C 4243 -211 4243 -211 5702 -122 
L 5696 416 
C 5030 320 4307 282 3181 282 
C 2458 282 2138 307 1971 371 
C 1862 416 1824 499 1824 691 
L 1824 3635 
L 5331 3635 
C 5664 3635 5888 3622 6067 3597 
L 6067 4160 
C 5856 4128 5632 4115 5318 4115 
L 3443 4115 
L 3443 4730 
C 3443 4966 3456 5139 3488 5286 
L 2874 5286 
C 2906 5101 2918 4928 2918 4723 
L 2918 4115 
z
" transform="scale(0.015625)"/>
       <path id="HiraginoSans-W4-7387" d="M 2074 2310 
C 2035 2304 2003 2304 1997 2304 
C 1894 2304 1728 2310 1645 2323 
L 1722 1862 
C 1798 1875 1888 1888 2061 1901 
C 3078 1984 3469 2029 4109 2144 
C 4198 2003 4230 1939 4333 1734 
L 4742 1926 
C 4371 2490 4250 2643 3872 3053 
L 3526 2886 
C 3718 2688 3776 2618 3898 2458 
C 3680 2426 3680 2426 2739 2342 
C 2925 2502 2925 2502 3315 2893 
L 3398 2970 
C 3814 3398 3872 3462 4147 3827 
L 3782 4083 
C 3520 3693 3398 3539 3091 3200 
C 2963 3341 2906 3405 2720 3571 
C 2970 3866 3117 4077 3302 4403 
L 5427 4403 
C 5696 4403 5888 4397 6074 4371 
L 6074 4883 
C 5882 4858 5677 4845 5376 4845 
L 3398 4845 
L 3398 4960 
C 3398 5126 3411 5235 3437 5382 
L 2886 5382 
C 2906 5248 2918 5114 2918 4960 
L 2918 4845 
L 1082 4845 
C 787 4845 589 4858 390 4883 
L 390 4371 
C 576 4397 774 4403 1030 4403 
L 2810 4403 
C 2714 4205 2592 4026 2432 3827 
C 2342 3904 2291 3942 2150 4045 
L 1856 3738 
C 2253 3456 2534 3206 2803 2899 
C 2573 2669 2458 2560 2170 2310 
L 2074 2310 
z
M 3379 928 
L 5402 928 
C 5683 928 5901 915 6093 890 
L 6093 1414 
C 5920 1389 5690 1370 5453 1370 
L 3379 1370 
L 3379 1453 
C 3379 1632 3386 1747 3405 1856 
L 2867 1856 
C 2886 1754 2893 1619 2893 1459 
L 2893 1370 
L 966 1370 
C 723 1370 474 1389 314 1414 
L 314 890 
C 538 915 730 928 998 928 
L 2893 928 
L 2893 32 
C 2893 -179 2880 -352 2848 -544 
L 3424 -544 
C 3392 -358 3379 -192 3379 32 
L 3379 928 
z
M 595 3898 
C 986 3597 1146 3443 1485 3040 
L 1837 3366 
C 1536 3693 1312 3891 941 4186 
L 595 3898 
z
M 563 1722 
C 678 1786 698 1792 787 1843 
C 954 1920 992 1946 1146 2029 
C 1478 2221 1651 2336 2035 2624 
L 1830 2995 
C 1350 2611 845 2336 352 2195 
L 563 1722 
z
M 5299 4205 
C 4973 3827 4717 3610 4275 3315 
L 4589 2995 
C 5024 3302 5312 3552 5658 3910 
L 5299 4205 
z
M 4499 2643 
C 4986 2323 5280 2080 5651 1690 
L 5978 2067 
C 5536 2451 5312 2618 4787 2944 
L 4499 2643 
z
" transform="scale(0.015625)"/>
      </defs>
      <use xlink:href="#HiraginoSans-W4-8133"/>
      <use xlink:href="#HiraginoSans-W4-8840" x="99.999985"/>
      <use xlink:href="#HiraginoSans-W4-7ba1" x="199.999969"/>
      <use xlink:href="#HiraginoSans-W4-75be" x="299.999954"/>
      <use xlink:href="#HiraginoSans-W4-60a3" x="399.999939"/>
      <use xlink:href="#HiraginoSans-W4-5e74" x="499.999924"/>
      <use xlink:href="#HiraginoSans-W4-9f62" x="599.999908"/>
      <use xlink:href="#HiraginoSans-W4-8abf" x="699.999893"/>
      <use xlink:href="#HiraginoSans-W4-6574" x="799.999878"/>
      <use xlink:href="#HiraginoSans-W4-6b7b" x="899.999863"/>
      <use xlink:href="#HiraginoSans-W4-4ea1" x="999.999847"/>
      <use xlink:href="#HiraginoSans-W4-7387" x="1099.999832"/>
     </g>
    </g>
   </g>
   <g id="patch_3">
    <path d="M 48.16875 273.312 
L 48.16875 7.2 
" style="fill: none; stroke: #000000; stroke-width: 0.8; stroke-linejoin: miter; stroke-linecap: square"/>
   </g>
   <g id="patch_4">
    <path d="M 405.28875 273.312 
L 405.28875 7.2 
" style="fill: none; stroke: #000000; stroke-width: 0.8; stroke-linejoin: miter; stroke-linecap: square"/>
   </g>
   <g id="patch_5">
    <path d="M 48.16875 273.312 
L 405.28875 273.312 
" style="fill: none; stroke: #000000; stroke-width: 0.8; stroke-linejoin: miter; stroke-linecap: square"/>
   </g>
   <g id="patch_6">
    <path d="M 48.16875 7.2 
L 405.28875 7.2 
" style="fill: none; stroke: #000000; stroke-width: 0.8; stroke-linejoin: miter; stroke-linecap: square"/>
   </g>
  </g>
 </g>
 <defs>
  <clipPath id="p5ca1410c62">
   <rect x="48.16875" y="7.2" width="357.12" height="266.112"/>
  </clipPath>
 </defs>
</svg>
