<?xml version="1.0" encoding="utf-8" standalone="no"?>
<!DOCTYPE svg PUBLIC "-//W3C//DTD SVG 1.1//EN"
  "http://www.w3.org/Graphics/SVG/1.1/DTD/svg11.dtd">
<svg xmlns:xlink="http://www.w3.org/1999/xlink" width="419.218437pt" height="297.271375pt" viewBox="0 0 419.218437 297.271375" xmlns="http://www.w3.org/2000/svg" version="1.1">
 <metadata>
  <rdf:RDF xmlns:dc="http://purl.org/dc/elements/1.1/" xmlns:cc="http://creativecommons.org/ns#" xmlns:rdf="http://www.w3.org/1999/02/22-rdf-syntax-ns#">
   <cc:Work>
    <dc:type rdf:resource="http://purl.org/dc/dcmitype/StillImage"/>
    <dc:date>2022-08-09T16:14:57.419261</dc:date>
    <dc:format>image/svg+xml</dc:format>
    <dc:creator>
     <cc:Agent>
      <dc:title>Matplotlib v3.5.2, https://matplotlib.org/</dc:title>
     </cc:Agent>
    </dc:creator>
   </cc:Work>
  </rdf:RDF>
 </metadata>
 <defs>
  <style type="text/css">*{stroke-linejoin: round; stroke-linecap: butt}</style>
 </defs>
 <g id="figure_1">
  <g id="patch_1">
   <path d="M 0 297.271375 
L 419.218437 297.271375 
L 419.218437 0 
L 0 0 
z
" style="fill: #ffffff"/>
  </g>
  <g id="axes_1">
   <g id="patch_2">
    <path d="M 54.898438 273.312 
L 412.018438 273.312 
L 412.018438 7.2 
L 54.898438 7.2 
z
" style="fill: #ffffff"/>
   </g>
   <g id="patch_3">
    <path d="M 71.131165 273.312 
L 78.68127 273.312 
L 78.68127 273.133143 
L 71.131165 273.133143 
z
" clip-path="url(#pb0b2599166)" style="fill: #1f77b4; fill-opacity: 0.75; stroke: #000000; stroke-width: 0.755011; stroke-linejoin: miter"/>
   </g>
   <g id="patch_4">
    <path d="M 78.68127 273.312 
L 86.231376 273.312 
L 86.231376 273.312 
L 78.68127 273.312 
z
" clip-path="url(#pb0b2599166)" style="fill: #1f77b4; fill-opacity: 0.75; stroke: #000000; stroke-width: 0.755011; stroke-linejoin: miter"/>
   </g>
   <g id="patch_5">
    <path d="M 86.231376 273.312 
L 93.781482 273.312 
L 93.781482 273.133143 
L 86.231376 273.133143 
z
" clip-path="url(#pb0b2599166)" style="fill: #1f77b4; fill-opacity: 0.75; stroke: #000000; stroke-width: 0.755011; stroke-linejoin: miter"/>
   </g>
   <g id="patch_6">
    <path d="M 93.781482 273.312 
L 101.331588 273.312 
L 101.331588 273.312 
L 93.781482 273.312 
z
" clip-path="url(#pb0b2599166)" style="fill: #1f77b4; fill-opacity: 0.75; stroke: #000000; stroke-width: 0.755011; stroke-linejoin: miter"/>
   </g>
   <g id="patch_7">
    <path d="M 101.331588 273.312 
L 108.881693 273.312 
L 108.881693 272.417716 
L 101.331588 272.417716 
z
" clip-path="url(#pb0b2599166)" style="fill: #1f77b4; fill-opacity: 0.75; stroke: #000000; stroke-width: 0.755011; stroke-linejoin: miter"/>
   </g>
   <g id="patch_8">
    <path d="M 108.881693 273.312 
L 116.431799 273.312 
L 116.431799 273.312 
L 108.881693 273.312 
z
" clip-path="url(#pb0b2599166)" style="fill: #1f77b4; fill-opacity: 0.75; stroke: #000000; stroke-width: 0.755011; stroke-linejoin: miter"/>
   </g>
   <g id="patch_9">
    <path d="M 116.431799 273.312 
L 123.981905 273.312 
L 123.981905 270.808006 
L 116.431799 270.808006 
z
" clip-path="url(#pb0b2599166)" style="fill: #1f77b4; fill-opacity: 0.75; stroke: #000000; stroke-width: 0.755011; stroke-linejoin: miter"/>
   </g>
   <g id="patch_10">
    <path d="M 123.981905 273.312 
L 131.53201 273.312 
L 131.53201 273.312 
L 123.981905 273.312 
z
" clip-path="url(#pb0b2599166)" style="fill: #1f77b4; fill-opacity: 0.75; stroke: #000000; stroke-width: 0.755011; stroke-linejoin: miter"/>
   </g>
   <g id="patch_11">
    <path d="M 131.53201 273.312 
L 139.082116 273.312 
L 139.082116 261.865169 
L 131.53201 261.865169 
z
" clip-path="url(#pb0b2599166)" style="fill: #1f77b4; fill-opacity: 0.75; stroke: #000000; stroke-width: 0.755011; stroke-linejoin: miter"/>
   </g>
   <g id="patch_12">
    <path d="M 139.082116 273.312 
L 146.632222 273.312 
L 146.632222 273.312 
L 139.082116 273.312 
z
" clip-path="url(#pb0b2599166)" style="fill: #1f77b4; fill-opacity: 0.75; stroke: #000000; stroke-width: 0.755011; stroke-linejoin: miter"/>
   </g>
   <g id="patch_13">
    <path d="M 146.632222 273.312 
L 154.182328 273.312 
L 154.182328 247.914343 
L 146.632222 247.914343 
z
" clip-path="url(#pb0b2599166)" style="fill: #1f77b4; fill-opacity: 0.75; stroke: #000000; stroke-width: 0.755011; stroke-linejoin: miter"/>
   </g>
   <g id="patch_14">
    <path d="M 154.182328 273.312 
L 161.732433 273.312 
L 161.732433 273.312 
L 154.182328 273.312 
z
" clip-path="url(#pb0b2599166)" style="fill: #1f77b4; fill-opacity: 0.75; stroke: #000000; stroke-width: 0.755011; stroke-linejoin: miter"/>
   </g>
   <g id="patch_15">
    <path d="M 161.732433 273.312 
L 169.282539 273.312 
L 169.282539 222.874399 
L 161.732433 222.874399 
z
" clip-path="url(#pb0b2599166)" style="fill: #1f77b4; fill-opacity: 0.75; stroke: #000000; stroke-width: 0.755011; stroke-linejoin: miter"/>
   </g>
   <g id="patch_16">
    <path d="M 169.282539 273.312 
L 176.832645 273.312 
L 176.832645 273.312 
L 169.282539 273.312 
z
" clip-path="url(#pb0b2599166)" style="fill: #1f77b4; fill-opacity: 0.75; stroke: #000000; stroke-width: 0.755011; stroke-linejoin: miter"/>
   </g>
   <g id="patch_17">
    <path d="M 176.832645 273.312 
L 184.38275 273.312 
L 184.38275 179.233355 
L 176.832645 179.233355 
z
" clip-path="url(#pb0b2599166)" style="fill: #1f77b4; fill-opacity: 0.75; stroke: #000000; stroke-width: 0.755011; stroke-linejoin: miter"/>
   </g>
   <g id="patch_18">
    <path d="M 184.38275 273.312 
L 191.932856 273.312 
L 191.932856 273.312 
L 184.38275 273.312 
z
" clip-path="url(#pb0b2599166)" style="fill: #1f77b4; fill-opacity: 0.75; stroke: #000000; stroke-width: 0.755011; stroke-linejoin: miter"/>
   </g>
   <g id="patch_19">
    <path d="M 191.932856 273.312 
L 199.482962 273.312 
L 199.482962 129.868895 
L 191.932856 129.868895 
z
" clip-path="url(#pb0b2599166)" style="fill: #1f77b4; fill-opacity: 0.75; stroke: #000000; stroke-width: 0.755011; stroke-linejoin: miter"/>
   </g>
   <g id="patch_20">
    <path d="M 199.482962 273.312 
L 207.033068 273.312 
L 207.033068 273.312 
L 199.482962 273.312 
z
" clip-path="url(#pb0b2599166)" style="fill: #1f77b4; fill-opacity: 0.75; stroke: #000000; stroke-width: 0.755011; stroke-linejoin: miter"/>
   </g>
   <g id="patch_21">
    <path d="M 207.033068 273.312 
L 214.583173 273.312 
L 214.583173 75.138733 
L 207.033068 75.138733 
z
" clip-path="url(#pb0b2599166)" style="fill: #1f77b4; fill-opacity: 0.75; stroke: #000000; stroke-width: 0.755011; stroke-linejoin: miter"/>
   </g>
   <g id="patch_22">
    <path d="M 214.583173 273.312 
L 222.133279 273.312 
L 222.133279 273.312 
L 214.583173 273.312 
z
" clip-path="url(#pb0b2599166)" style="fill: #1f77b4; fill-opacity: 0.75; stroke: #000000; stroke-width: 0.755011; stroke-linejoin: miter"/>
   </g>
   <g id="patch_23">
    <path d="M 222.133279 273.312 
L 229.683385 273.312 
L 229.683385 27.56284 
L 222.133279 27.56284 
z
" clip-path="url(#pb0b2599166)" style="fill: #1f77b4; fill-opacity: 0.75; stroke: #000000; stroke-width: 0.755011; stroke-linejoin: miter"/>
   </g>
   <g id="patch_24">
    <path d="M 229.683385 273.312 
L 237.23349 273.312 
L 237.23349 273.312 
L 229.683385 273.312 
z
" clip-path="url(#pb0b2599166)" style="fill: #1f77b4; fill-opacity: 0.75; stroke: #000000; stroke-width: 0.755011; stroke-linejoin: miter"/>
   </g>
   <g id="patch_25">
    <path d="M 237.23349 273.312 
L 244.783596 273.312 
L 244.783596 19.872 
L 237.23349 19.872 
z
" clip-path="url(#pb0b2599166)" style="fill: #1f77b4; fill-opacity: 0.75; stroke: #000000; stroke-width: 0.755011; stroke-linejoin: miter"/>
   </g>
   <g id="patch_26">
    <path d="M 244.783596 273.312 
L 252.333702 273.312 
L 252.333702 273.312 
L 244.783596 273.312 
z
" clip-path="url(#pb0b2599166)" style="fill: #1f77b4; fill-opacity: 0.75; stroke: #000000; stroke-width: 0.755011; stroke-linejoin: miter"/>
   </g>
   <g id="patch_27">
    <path d="M 252.333702 273.312 
L 259.883807 273.312 
L 259.883807 37.39996 
L 252.333702 37.39996 
z
" clip-path="url(#pb0b2599166)" style="fill: #1f77b4; fill-opacity: 0.75; stroke: #000000; stroke-width: 0.755011; stroke-linejoin: miter"/>
   </g>
   <g id="patch_28">
    <path d="M 259.883807 273.312 
L 267.433913 273.312 
L 267.433913 273.312 
L 259.883807 273.312 
z
" clip-path="url(#pb0b2599166)" style="fill: #1f77b4; fill-opacity: 0.75; stroke: #000000; stroke-width: 0.755011; stroke-linejoin: miter"/>
   </g>
   <g id="patch_29">
    <path d="M 267.433913 273.312 
L 274.984019 273.312 
L 274.984019 63.513044 
L 267.433913 63.513044 
z
" clip-path="url(#pb0b2599166)" style="fill: #1f77b4; fill-opacity: 0.75; stroke: #000000; stroke-width: 0.755011; stroke-linejoin: miter"/>
   </g>
   <g id="patch_30">
    <path d="M 274.984019 273.312 
L 282.534125 273.312 
L 282.534125 273.312 
L 274.984019 273.312 
z
" clip-path="url(#pb0b2599166)" style="fill: #1f77b4; fill-opacity: 0.75; stroke: #000000; stroke-width: 0.755011; stroke-linejoin: miter"/>
   </g>
   <g id="patch_31">
    <path d="M 282.534125 273.312 
L 290.08423 273.312 
L 290.08423 131.836319 
L 282.534125 131.836319 
z
" clip-path="url(#pb0b2599166)" style="fill: #1f77b4; fill-opacity: 0.75; stroke: #000000; stroke-width: 0.755011; stroke-linejoin: miter"/>
   </g>
   <g id="patch_32">
    <path d="M 290.08423 273.312 
L 297.634336 273.312 
L 297.634336 273.312 
L 290.08423 273.312 
z
" clip-path="url(#pb0b2599166)" style="fill: #1f77b4; fill-opacity: 0.75; stroke: #000000; stroke-width: 0.755011; stroke-linejoin: miter"/>
   </g>
   <g id="patch_33">
    <path d="M 297.634336 273.312 
L 305.184442 273.312 
L 305.184442 190.50133 
L 297.634336 190.50133 
z
" clip-path="url(#pb0b2599166)" style="fill: #1f77b4; fill-opacity: 0.75; stroke: #000000; stroke-width: 0.755011; stroke-linejoin: miter"/>
   </g>
   <g id="patch_34">
    <path d="M 305.184442 273.312 
L 312.734547 273.312 
L 312.734547 273.312 
L 305.184442 273.312 
z
" clip-path="url(#pb0b2599166)" style="fill: #1f77b4; fill-opacity: 0.75; stroke: #000000; stroke-width: 0.755011; stroke-linejoin: miter"/>
   </g>
   <g id="patch_35">
    <path d="M 312.734547 273.312 
L 320.284653 273.312 
L 320.284653 224.662967 
L 312.734547 224.662967 
z
" clip-path="url(#pb0b2599166)" style="fill: #1f77b4; fill-opacity: 0.75; stroke: #000000; stroke-width: 0.755011; stroke-linejoin: miter"/>
   </g>
   <g id="patch_36">
    <path d="M 320.284653 273.312 
L 327.834759 273.312 
L 327.834759 273.312 
L 320.284653 273.312 
z
" clip-path="url(#pb0b2599166)" style="fill: #1f77b4; fill-opacity: 0.75; stroke: #000000; stroke-width: 0.755011; stroke-linejoin: miter"/>
   </g>
   <g id="patch_37">
    <path d="M 327.834759 273.312 
L 335.384865 273.312 
L 335.384865 247.377773 
L 327.834759 247.377773 
z
" clip-path="url(#pb0b2599166)" style="fill: #1f77b4; fill-opacity: 0.75; stroke: #000000; stroke-width: 0.755011; stroke-linejoin: miter"/>
   </g>
   <g id="patch_38">
    <path d="M 335.384865 273.312 
L 342.93497 273.312 
L 342.93497 273.312 
L 335.384865 273.312 
z
" clip-path="url(#pb0b2599166)" style="fill: #1f77b4; fill-opacity: 0.75; stroke: #000000; stroke-width: 0.755011; stroke-linejoin: miter"/>
   </g>
   <g id="patch_39">
    <path d="M 342.93497 273.312 
L 350.485076 273.312 
L 350.485076 261.865169 
L 342.93497 261.865169 
z
" clip-path="url(#pb0b2599166)" style="fill: #1f77b4; fill-opacity: 0.75; stroke: #000000; stroke-width: 0.755011; stroke-linejoin: miter"/>
   </g>
   <g id="patch_40">
    <path d="M 350.485076 273.312 
L 358.035182 273.312 
L 358.035182 273.312 
L 350.485076 273.312 
z
" clip-path="url(#pb0b2599166)" style="fill: #1f77b4; fill-opacity: 0.75; stroke: #000000; stroke-width: 0.755011; stroke-linejoin: miter"/>
   </g>
   <g id="patch_41">
    <path d="M 358.035182 273.312 
L 365.585287 273.312 
L 365.585287 268.840582 
L 358.035182 268.840582 
z
" clip-path="url(#pb0b2599166)" style="fill: #1f77b4; fill-opacity: 0.75; stroke: #000000; stroke-width: 0.755011; stroke-linejoin: miter"/>
   </g>
   <g id="patch_42">
    <path d="M 365.585287 273.312 
L 373.135393 273.312 
L 373.135393 273.312 
L 365.585287 273.312 
z
" clip-path="url(#pb0b2599166)" style="fill: #1f77b4; fill-opacity: 0.75; stroke: #000000; stroke-width: 0.755011; stroke-linejoin: miter"/>
   </g>
   <g id="patch_43">
    <path d="M 373.135393 273.312 
L 380.685499 273.312 
L 380.685499 271.344576 
L 373.135393 271.344576 
z
" clip-path="url(#pb0b2599166)" style="fill: #1f77b4; fill-opacity: 0.75; stroke: #000000; stroke-width: 0.755011; stroke-linejoin: miter"/>
   </g>
   <g id="patch_44">
    <path d="M 380.685499 273.312 
L 388.235605 273.312 
L 388.235605 273.312 
L 380.685499 273.312 
z
" clip-path="url(#pb0b2599166)" style="fill: #1f77b4; fill-opacity: 0.75; stroke: #000000; stroke-width: 0.755011; stroke-linejoin: miter"/>
   </g>
   <g id="patch_45">
    <path d="M 388.235605 273.312 
L 395.78571 273.312 
L 395.78571 273.133143 
L 388.235605 273.133143 
z
" clip-path="url(#pb0b2599166)" style="fill: #1f77b4; fill-opacity: 0.75; stroke: #000000; stroke-width: 0.755011; stroke-linejoin: miter"/>
   </g>
   <g id="matplotlib.axis_1">
    <g id="xtick_1">
     <g id="line2d_1">
      <defs>
       <path id="m5d5aedd7b5" d="M 0 0 
L 0 3.5 
" style="stroke: #000000; stroke-width: 0.8"/>
      </defs>
      <g>
       <use xlink:href="#m5d5aedd7b5" x="120.206852" y="273.312" style="stroke: #000000; stroke-width: 0.8"/>
      </g>
     </g>
     <g id="text_1">
      <!-- 0 -->
      <g transform="translate(116.842008 288.021375)scale(0.1 -0.1)">
       <defs>
        <path id="HiraginoSans-W4-30" d="M 2144 -90 
C 2758 -90 3232 141 3565 602 
C 3846 998 4019 1696 4019 2464 
C 4019 3002 3936 3501 3770 3949 
C 3693 4160 3558 4371 3379 4550 
C 3078 4858 2650 5024 2157 5024 
C 1498 5024 986 4742 666 4205 
C 435 3834 288 3142 288 2458 
C 288 1939 371 1434 538 986 
C 614 768 749 563 928 384 
C 1242 70 1651 -90 2144 -90 
z
M 2144 4499 
C 2592 4499 2918 4307 3123 3923 
C 3283 3629 3398 3014 3398 2470 
C 3398 2022 3341 1619 3213 1235 
C 3155 1043 3046 870 2912 730 
C 2726 538 2458 435 2150 435 
C 1734 435 1414 614 1197 973 
C 1024 1261 902 1875 902 2451 
C 902 2906 966 3328 1088 3699 
C 1139 3866 1235 4026 1370 4173 
C 1568 4397 1818 4499 2144 4499 
z
" transform="scale(0.015625)"/>
       </defs>
       <use xlink:href="#HiraginoSans-W4-30"/>
      </g>
     </g>
    </g>
    <g id="xtick_2">
     <g id="line2d_2">
      <g>
       <use xlink:href="#m5d5aedd7b5" x="195.707909" y="273.312" style="stroke: #000000; stroke-width: 0.8"/>
      </g>
     </g>
     <g id="text_2">
      <!-- 10 -->
      <g transform="translate(188.978221 288.021375)scale(0.1 -0.1)">
       <defs>
        <path id="HiraginoSans-W4-31" d="M 1018 4371 
C 1222 4397 1389 4410 1606 4410 
L 1939 4410 
L 1939 755 
C 1939 454 1926 237 1888 0 
L 2598 0 
C 2560 250 2547 448 2547 755 
L 2547 3904 
C 2547 4256 2566 4582 2605 4966 
C 2387 4941 2278 4934 2035 4934 
L 1581 4934 
C 1325 4934 1197 4941 1018 4966 
L 1018 4371 
z
" transform="scale(0.015625)"/>
       </defs>
       <use xlink:href="#HiraginoSans-W4-31"/>
       <use xlink:href="#HiraginoSans-W4-30" x="67.299988"/>
      </g>
     </g>
    </g>
    <g id="xtick_3">
     <g id="line2d_3">
      <g>
       <use xlink:href="#m5d5aedd7b5" x="271.208966" y="273.312" style="stroke: #000000; stroke-width: 0.8"/>
      </g>
     </g>
     <g id="text_3">
      <!-- 20 -->
      <g transform="translate(264.479279 288.021375)scale(0.1 -0.1)">
       <defs>
        <path id="HiraginoSans-W4-32" d="M 3078 0 
C 3424 0 3642 -6 3917 -32 
L 3917 589 
C 3693 557 3430 544 3091 544 
L 1114 544 
C 1280 1114 1606 1478 2451 2042 
C 3181 2528 3341 2656 3546 2912 
C 3738 3142 3846 3443 3846 3744 
C 3846 4525 3200 5030 2202 5030 
C 1613 5030 1158 4858 858 4518 
C 640 4269 531 4026 442 3565 
L 1088 3469 
C 1139 3782 1190 3936 1306 4102 
C 1491 4371 1792 4506 2208 4506 
C 2816 4506 3206 4211 3206 3744 
C 3206 3360 2995 3085 2387 2675 
C 1754 2246 1600 2138 1389 1952 
C 979 1594 710 1229 544 806 
C 448 563 429 461 365 -26 
C 576 -6 678 0 1107 0 
L 3078 0 
z
" transform="scale(0.015625)"/>
       </defs>
       <use xlink:href="#HiraginoSans-W4-32"/>
       <use xlink:href="#HiraginoSans-W4-30" x="67.299988"/>
      </g>
     </g>
    </g>
    <g id="xtick_4">
     <g id="line2d_4">
      <g>
       <use xlink:href="#m5d5aedd7b5" x="346.710023" y="273.312" style="stroke: #000000; stroke-width: 0.8"/>
      </g>
     </g>
     <g id="text_4">
      <!-- 30 -->
      <g transform="translate(339.980336 288.021375)scale(0.1 -0.1)">
       <defs>
        <path id="HiraginoSans-W4-33" d="M 282 1101 
C 397 768 474 621 621 448 
C 934 90 1434 -96 2112 -96 
C 2720 -96 3213 70 3533 384 
C 3770 614 3904 954 3904 1306 
C 3904 1677 3802 1958 3597 2182 
C 3379 2419 3130 2528 2688 2586 
C 2995 2650 3130 2701 3290 2816 
C 3578 3021 3738 3366 3738 3757 
C 3738 4538 3117 5043 2157 5043 
C 1594 5043 1146 4883 845 4576 
C 666 4390 582 4237 467 3891 
L 1107 3757 
C 1171 3981 1216 4083 1306 4192 
C 1478 4416 1741 4525 2125 4525 
C 2746 4525 3110 4224 3110 3725 
C 3110 3482 3021 3264 2867 3110 
C 2669 2918 2374 2829 1965 2829 
C 1779 2829 1613 2842 1459 2861 
L 1459 2272 
C 1651 2298 1811 2310 2003 2310 
C 2829 2310 3264 1990 3264 1376 
C 3264 794 2816 429 2106 429 
C 1779 429 1510 506 1293 666 
C 1107 800 1024 928 928 1248 
L 282 1101 
z
" transform="scale(0.015625)"/>
       </defs>
       <use xlink:href="#HiraginoSans-W4-33"/>
       <use xlink:href="#HiraginoSans-W4-30" x="67.299988"/>
      </g>
     </g>
    </g>
   </g>
   <g id="matplotlib.axis_2">
    <g id="ytick_1">
     <g id="line2d_5">
      <defs>
       <path id="m71860849dc" d="M 0 0 
L -3.5 0 
" style="stroke: #000000; stroke-width: 0.8"/>
      </defs>
      <g>
       <use xlink:href="#m71860849dc" x="54.898438" y="273.312" style="stroke: #000000; stroke-width: 0.8"/>
      </g>
     </g>
     <g id="text_5">
      <!-- 0 -->
      <g transform="translate(41.16875 277.166687)scale(0.1 -0.1)">
       <use xlink:href="#HiraginoSans-W4-30"/>
      </g>
     </g>
    </g>
    <g id="ytick_2">
     <g id="line2d_6">
      <g>
       <use xlink:href="#m71860849dc" x="54.898438" y="237.540652" style="stroke: #000000; stroke-width: 0.8"/>
      </g>
     </g>
     <g id="text_6">
      <!-- 200 -->
      <g transform="translate(27.709375 241.39534)scale(0.1 -0.1)">
       <use xlink:href="#HiraginoSans-W4-32"/>
       <use xlink:href="#HiraginoSans-W4-30" x="67.299988"/>
       <use xlink:href="#HiraginoSans-W4-30" x="134.599976"/>
      </g>
     </g>
    </g>
    <g id="ytick_3">
     <g id="line2d_7">
      <g>
       <use xlink:href="#m71860849dc" x="54.898438" y="201.769304" style="stroke: #000000; stroke-width: 0.8"/>
      </g>
     </g>
     <g id="text_7">
      <!-- 400 -->
      <g transform="translate(27.689063 205.623992)scale(0.1 -0.1)">
       <defs>
        <path id="HiraginoSans-W4-34" d="M 179 1210 
C 403 1229 589 1235 954 1235 
L 2688 1235 
L 2688 710 
C 2688 410 2675 218 2630 0 
L 3309 0 
C 3270 230 3258 390 3258 704 
L 3258 1235 
L 3494 1235 
C 3763 1235 3910 1222 4154 1190 
L 4154 1798 
C 3917 1766 3750 1754 3494 1754 
L 3258 1754 
L 3258 3853 
C 3258 4358 3264 4544 3296 4934 
L 2701 4934 
C 2560 4704 2445 4550 2214 4269 
L 621 2298 
C 467 2099 326 1939 179 1773 
L 179 1210 
z
M 2688 1747 
L 858 1747 
L 2259 3514 
C 2464 3763 2592 3936 2720 4128 
C 2694 3814 2688 3622 2688 3283 
L 2688 1747 
z
" transform="scale(0.015625)"/>
       </defs>
       <use xlink:href="#HiraginoSans-W4-34"/>
       <use xlink:href="#HiraginoSans-W4-30" x="67.499985"/>
       <use xlink:href="#HiraginoSans-W4-30" x="134.799973"/>
      </g>
     </g>
    </g>
    <g id="ytick_4">
     <g id="line2d_8">
      <g>
       <use xlink:href="#m71860849dc" x="54.898438" y="165.997956" style="stroke: #000000; stroke-width: 0.8"/>
      </g>
     </g>
     <g id="text_8">
      <!-- 600 -->
      <g transform="translate(27.709375 169.852644)scale(0.1 -0.1)">
       <defs>
        <path id="HiraginoSans-W4-36" d="M 3846 3994 
C 3706 4301 3616 4442 3462 4602 
C 3187 4877 2784 5024 2304 5024 
C 1683 5024 1222 4794 864 4307 
C 557 3891 371 3162 371 2355 
C 371 1446 614 704 1043 320 
C 1331 58 1773 -90 2253 -90 
C 3277 -90 3968 589 3968 1587 
C 3968 2586 3334 3213 2323 3213 
C 1894 3213 1568 3104 1274 2854 
C 1133 2739 1062 2656 941 2458 
C 979 3085 1043 3392 1210 3763 
C 1434 4262 1798 4518 2285 4518 
C 2765 4518 3040 4314 3238 3821 
L 3846 3994 
z
M 2266 2714 
C 2950 2714 3366 2285 3366 1574 
C 3366 1325 3309 1088 3206 922 
C 3008 614 2643 422 2234 422 
C 1568 422 1069 915 1069 1574 
C 1069 2234 1574 2714 2266 2714 
z
" transform="scale(0.015625)"/>
       </defs>
       <use xlink:href="#HiraginoSans-W4-36"/>
       <use xlink:href="#HiraginoSans-W4-30" x="67.299988"/>
       <use xlink:href="#HiraginoSans-W4-30" x="134.599976"/>
      </g>
     </g>
    </g>
    <g id="ytick_5">
     <g id="line2d_9">
      <g>
       <use xlink:href="#m71860849dc" x="54.898438" y="130.226608" style="stroke: #000000; stroke-width: 0.8"/>
      </g>
     </g>
     <g id="text_9">
      <!-- 800 -->
      <g transform="translate(27.709375 134.081296)scale(0.1 -0.1)">
       <defs>
        <path id="HiraginoSans-W4-38" d="M 1446 2586 
C 1203 2547 1056 2490 851 2355 
C 480 2106 294 1754 294 1299 
C 294 397 966 -102 2163 -102 
C 3347 -102 4006 397 4006 1299 
C 4006 1728 3853 2061 3539 2304 
C 3322 2470 3136 2547 2867 2586 
C 3437 2714 3789 3162 3789 3757 
C 3789 4550 3162 5043 2150 5043 
C 1146 5043 512 4544 512 3750 
C 512 3162 877 2701 1446 2586 
z
M 2150 4538 
C 2784 4538 3187 4211 3187 3699 
C 3187 3155 2797 2829 2157 2829 
C 1510 2829 1114 3162 1114 3699 
C 1114 4211 1523 4538 2150 4538 
z
M 2157 2304 
C 2912 2304 3373 1939 3373 1344 
C 3373 749 2925 410 2144 410 
C 1376 410 928 749 928 1338 
C 928 1939 1389 2304 2157 2304 
z
" transform="scale(0.015625)"/>
       </defs>
       <use xlink:href="#HiraginoSans-W4-38"/>
       <use xlink:href="#HiraginoSans-W4-30" x="67.299988"/>
       <use xlink:href="#HiraginoSans-W4-30" x="134.599976"/>
      </g>
     </g>
    </g>
    <g id="ytick_6">
     <g id="line2d_10">
      <g>
       <use xlink:href="#m71860849dc" x="54.898438" y="94.45526" style="stroke: #000000; stroke-width: 0.8"/>
      </g>
     </g>
     <g id="text_10">
      <!-- 1000 -->
      <g transform="translate(20.979688 98.309948)scale(0.1 -0.1)">
       <use xlink:href="#HiraginoSans-W4-31"/>
       <use xlink:href="#HiraginoSans-W4-30" x="67.299988"/>
       <use xlink:href="#HiraginoSans-W4-30" x="134.599976"/>
       <use xlink:href="#HiraginoSans-W4-30" x="201.899963"/>
      </g>
     </g>
    </g>
    <g id="ytick_7">
     <g id="line2d_11">
      <g>
       <use xlink:href="#m71860849dc" x="54.898438" y="58.683912" style="stroke: #000000; stroke-width: 0.8"/>
      </g>
     </g>
     <g id="text_11">
      <!-- 1200 -->
      <g transform="translate(20.979688 62.5386)scale(0.1 -0.1)">
       <use xlink:href="#HiraginoSans-W4-31"/>
       <use xlink:href="#HiraginoSans-W4-32" x="67.299988"/>
       <use xlink:href="#HiraginoSans-W4-30" x="134.599976"/>
       <use xlink:href="#HiraginoSans-W4-30" x="201.899963"/>
      </g>
     </g>
    </g>
    <g id="ytick_8">
     <g id="line2d_12">
      <g>
       <use xlink:href="#m71860849dc" x="54.898438" y="22.912565" style="stroke: #000000; stroke-width: 0.8"/>
      </g>
     </g>
     <g id="text_12">
      <!-- 1400 -->
      <g transform="translate(20.959375 26.767252)scale(0.1 -0.1)">
       <use xlink:href="#HiraginoSans-W4-31"/>
       <use xlink:href="#HiraginoSans-W4-34" x="67.299988"/>
       <use xlink:href="#HiraginoSans-W4-30" x="134.799973"/>
       <use xlink:href="#HiraginoSans-W4-30" x="202.09996"/>
      </g>
     </g>
    </g>
    <g id="text_13">
     <!-- Count -->
     <g transform="translate(14.909375 155.641156)rotate(-90)scale(0.1 -0.1)">
      <defs>
       <path id="HiraginoSans-W4-43" d="M 4544 3654 
C 4390 4064 4269 4269 4026 4506 
C 3661 4858 3174 5030 2560 5030 
C 1946 5030 1453 4845 1075 4480 
C 589 4006 320 3296 320 2458 
C 320 1651 570 947 1018 493 
C 1389 109 1920 -90 2554 -90 
C 3277 -90 3878 173 4237 640 
C 4403 858 4493 1062 4608 1459 
L 3968 1594 
C 3910 1306 3853 1152 3718 966 
C 3475 634 3066 448 2573 448 
C 1581 448 947 1235 947 2477 
C 947 3718 1568 4493 2573 4493 
C 3014 4493 3386 4339 3629 4051 
C 3763 3891 3834 3763 3923 3488 
L 4544 3654 
z
" transform="scale(0.015625)"/>
       <path id="HiraginoSans-W4-6f" d="M 2054 -90 
C 3110 -90 3802 640 3802 1766 
C 3802 2893 3117 3610 2042 3610 
C 966 3610 282 2886 282 1760 
C 282 627 966 -90 2054 -90 
z
M 2054 3130 
C 2771 3130 3213 2605 3213 1754 
C 3213 909 2771 397 2042 397 
C 1318 397 870 922 870 1766 
C 870 2611 1325 3130 2054 3130 
z
" transform="scale(0.015625)"/>
       <path id="HiraginoSans-W4-75" d="M 2944 3520 
C 2976 3264 2989 3046 2989 2765 
L 2989 1510 
C 2918 1248 2835 1094 2662 890 
C 2400 576 2125 435 1792 435 
C 1306 435 1056 723 1056 1286 
L 1056 2765 
C 1056 3066 1069 3251 1101 3520 
L 429 3520 
C 461 3302 474 3104 474 2771 
L 474 1197 
C 474 858 538 608 666 416 
C 877 109 1242 -58 1709 -58 
C 2272 -58 2682 166 3002 653 
C 2989 493 2989 461 2989 378 
L 2989 0 
L 3616 0 
C 3578 256 3565 442 3565 755 
L 3565 2765 
C 3565 3091 3578 3264 3616 3520 
L 2944 3520 
z
" transform="scale(0.015625)"/>
       <path id="HiraginoSans-W4-6e" d="M 1114 0 
C 1082 256 1069 474 1069 755 
L 1069 2010 
C 1139 2272 1222 2426 1395 2630 
C 1658 2944 1933 3085 2266 3085 
C 2752 3085 3002 2797 3002 2234 
L 3002 755 
C 3002 454 2989 269 2957 0 
L 3629 0 
C 3597 218 3584 416 3584 749 
L 3584 2323 
C 3584 2662 3520 2912 3392 3110 
C 3181 3418 2816 3584 2349 3584 
C 1779 3584 1376 3360 1056 2867 
C 1069 3027 1069 3059 1069 3142 
L 1069 3520 
L 442 3520 
C 480 3264 493 3078 493 2765 
L 493 755 
C 493 429 480 256 442 0 
L 1114 0 
z
" transform="scale(0.015625)"/>
       <path id="HiraginoSans-W4-74" d="M 851 4480 
C 877 4262 896 4006 896 3750 
L 896 3520 
L 646 3520 
C 378 3520 250 3526 70 3558 
L 70 2995 
C 275 3021 416 3034 640 3034 
L 896 3034 
L 896 787 
C 896 461 954 269 1094 134 
C 1235 6 1466 -64 1773 -64 
C 2042 -64 2246 -26 2515 83 
L 2374 602 
C 2176 486 2048 448 1875 448 
C 1741 448 1632 486 1568 544 
C 1504 608 1478 698 1478 883 
L 1478 3034 
L 1779 3034 
C 2074 3034 2221 3027 2426 2995 
L 2426 3558 
C 2214 3526 2074 3520 1773 3520 
L 1478 3520 
L 1478 3750 
C 1478 4026 1498 4275 1523 4480 
L 851 4480 
z
" transform="scale(0.015625)"/>
      </defs>
      <use xlink:href="#HiraginoSans-W4-43"/>
      <use xlink:href="#HiraginoSans-W4-6f" x="76.599991"/>
      <use xlink:href="#HiraginoSans-W4-75" x="140.399979"/>
      <use xlink:href="#HiraginoSans-W4-6e" x="203.799973"/>
      <use xlink:href="#HiraginoSans-W4-74" x="267.199966"/>
     </g>
    </g>
   </g>
   <g id="patch_46">
    <path d="M 54.898438 273.312 
L 54.898438 7.2 
" style="fill: none; stroke: #000000; stroke-width: 0.8; stroke-linejoin: miter; stroke-linecap: square"/>
   </g>
   <g id="patch_47">
    <path d="M 412.018438 273.312 
L 412.018438 7.2 
" style="fill: none; stroke: #000000; stroke-width: 0.8; stroke-linejoin: miter; stroke-linecap: square"/>
   </g>
   <g id="patch_48">
    <path d="M 54.898438 273.312 
L 412.018438 273.312 
" style="fill: none; stroke: #000000; stroke-width: 0.8; stroke-linejoin: miter; stroke-linecap: square"/>
   </g>
   <g id="patch_49">
    <path d="M 54.898438 7.2 
L 412.018438 7.2 
" style="fill: none; stroke: #000000; stroke-width: 0.8; stroke-linejoin: miter; stroke-linecap: square"/>
   </g>
  </g>
 </g>
 <defs>
  <clipPath id="pb0b2599166">
   <rect x="54.898438" y="7.2" width="357.12" height="266.112"/>
  </clipPath>
 </defs>
</svg>
