<?xml version="1.0" encoding="utf-8" standalone="no"?>
<!DOCTYPE svg PUBLIC "-//W3C//DTD SVG 1.1//EN"
  "http://www.w3.org/Graphics/SVG/1.1/DTD/svg11.dtd">
<svg height="310.29325pt" version="1.1" viewBox="0 0 416.774773 310.29325" width="416.774773pt" xmlns="http://www.w3.org/2000/svg" xmlns:xlink="http://www.w3.org/1999/xlink">
 <metadata>
  <rdf:RDF xmlns:cc="http://creativecommons.org/ns#" xmlns:dc="http://purl.org/dc/elements/1.1/" xmlns:rdf="http://www.w3.org/1999/02/22-rdf-syntax-ns#">
   <cc:Work>
    <dc:type rdf:resource="http://purl.org/dc/dcmitype/StillImage"/>
    <dc:date>2021-11-22T12:23:53.685746</dc:date>
    <dc:format>image/svg+xml</dc:format>
    <dc:creator>
     <cc:Agent>
      <dc:title>Matplotlib v3.4.3, https://matplotlib.org/</dc:title>
     </cc:Agent>
    </dc:creator>
   </cc:Work>
  </rdf:RDF>
 </metadata>
 <defs>
  <style type="text/css">*{stroke-linecap:butt;stroke-linejoin:round;}</style>
 </defs>
 <g id="figure_1">
  <g id="patch_1">
   <path d="M 0 310.29325 
L 416.774773 310.29325 
L 416.774773 0 
L 0 0 
z
" style="fill:#ffffff;"/>
  </g>
  <g id="axes_1">
   <g id="patch_2">
    <path d="M 49.792188 273.312 
L 406.912188 273.312 
L 406.912188 7.2 
L 49.792188 7.2 
z
" style="fill:#ffffff;"/>
   </g>
   <g id="matplotlib.axis_1">
    <g id="xtick_1">
     <g id="line2d_1">
      <defs>
       <path d="M 0 0 
L 0 3.5 
" id="m7fc69da4ca" style="stroke:#000000;stroke-width:0.8;"/>
      </defs>
      <g>
       <use style="stroke:#000000;stroke-width:0.8;" x="66.024915" xlink:href="#m7fc69da4ca" y="273.312"/>
      </g>
     </g>
     <g id="text_1">
      <!-- 0 -->
      <g transform="translate(62.875696 287.802625)scale(0.1 -0.1)">
       <defs>
        <path d="M 2038 4725 
Q 2881 4725 3334 3944 
Q 3694 3325 3694 2344 
Q 3694 1372 3334 741 
Q 2888 -31 2016 -31 
Q 1147 -31 700 741 
Q 341 1372 341 2350 
Q 341 3713 1000 4334 
Q 1419 4725 2038 4725 
z
M 2016 4266 
Q 1516 4266 1228 3759 
Q 934 3247 934 2344 
Q 934 1456 1222 947 
Q 1513 447 2016 447 
Q 2619 447 2909 1153 
Q 3100 1622 3100 2375 
Q 3100 3256 2806 3759 
Q 2509 4266 2016 4266 
z
" id="IPAexGothic-30" transform="scale(0.015625)"/>
       </defs>
       <use xlink:href="#IPAexGothic-30"/>
      </g>
     </g>
    </g>
    <g id="xtick_2">
     <g id="line2d_2">
      <g>
       <use style="stroke:#000000;stroke-width:0.8;" x="106.606733" xlink:href="#m7fc69da4ca" y="273.312"/>
      </g>
     </g>
     <g id="text_2">
      <!-- 25000 -->
      <g transform="translate(90.860639 287.802625)scale(0.1 -0.1)">
       <defs>
        <path d="M 3659 63 
L 447 63 
L 447 594 
Q 825 1475 1894 2203 
L 2072 2322 
Q 2619 2697 2791 2906 
Q 2988 3153 2988 3444 
Q 2988 3772 2756 4003 
Q 2500 4259 2084 4259 
Q 1250 4259 991 3328 
L 497 3506 
Q 853 4725 2116 4725 
Q 2806 4725 3216 4316 
Q 3575 3947 3575 3425 
Q 3575 3038 3344 2722 
Q 3131 2416 2366 1938 
L 2231 1856 
Q 1256 1253 978 569 
L 3659 569 
L 3659 63 
z
" id="IPAexGothic-32" transform="scale(0.015625)"/>
        <path d="M 1178 2603 
Q 1634 2963 2172 2963 
Q 2816 2963 3241 2528 
Q 3638 2113 3638 1497 
Q 3638 938 3297 513 
Q 2869 -31 2031 -31 
Q 959 -31 469 784 
L 938 1028 
Q 1309 434 2013 434 
Q 2466 434 2769 716 
Q 3081 1013 3081 1503 
Q 3081 1966 2806 2241 
Q 2519 2528 2056 2528 
Q 1406 2528 1072 2028 
L 591 2091 
L 884 4634 
L 3406 4634 
L 3406 4153 
L 1341 4153 
L 1134 2603 
L 1178 2603 
z
" id="IPAexGothic-35" transform="scale(0.015625)"/>
       </defs>
       <use xlink:href="#IPAexGothic-32"/>
       <use x="62.988281" xlink:href="#IPAexGothic-35"/>
       <use x="125.976562" xlink:href="#IPAexGothic-30"/>
       <use x="188.964844" xlink:href="#IPAexGothic-30"/>
       <use x="251.953125" xlink:href="#IPAexGothic-30"/>
      </g>
     </g>
    </g>
    <g id="xtick_3">
     <g id="line2d_3">
      <g>
       <use style="stroke:#000000;stroke-width:0.8;" x="147.188551" xlink:href="#m7fc69da4ca" y="273.312"/>
      </g>
     </g>
     <g id="text_3">
      <!-- 50000 -->
      <g transform="translate(131.442457 287.802625)scale(0.1 -0.1)">
       <use xlink:href="#IPAexGothic-35"/>
       <use x="62.988281" xlink:href="#IPAexGothic-30"/>
       <use x="125.976562" xlink:href="#IPAexGothic-30"/>
       <use x="188.964844" xlink:href="#IPAexGothic-30"/>
       <use x="251.953125" xlink:href="#IPAexGothic-30"/>
      </g>
     </g>
    </g>
    <g id="xtick_4">
     <g id="line2d_4">
      <g>
       <use style="stroke:#000000;stroke-width:0.8;" x="187.770369" xlink:href="#m7fc69da4ca" y="273.312"/>
      </g>
     </g>
     <g id="text_4">
      <!-- 75000 -->
      <g transform="translate(172.024276 287.802625)scale(0.1 -0.1)">
       <defs>
        <path d="M 3597 4263 
Q 2238 2106 1778 63 
L 1131 63 
Q 1581 1834 2950 4128 
L 428 4128 
L 428 4634 
L 3597 4634 
L 3597 4263 
z
" id="IPAexGothic-37" transform="scale(0.015625)"/>
       </defs>
       <use xlink:href="#IPAexGothic-37"/>
       <use x="62.988281" xlink:href="#IPAexGothic-35"/>
       <use x="125.976562" xlink:href="#IPAexGothic-30"/>
       <use x="188.964844" xlink:href="#IPAexGothic-30"/>
       <use x="251.953125" xlink:href="#IPAexGothic-30"/>
      </g>
     </g>
    </g>
    <g id="xtick_5">
     <g id="line2d_5">
      <g>
       <use style="stroke:#000000;stroke-width:0.8;" x="228.352188" xlink:href="#m7fc69da4ca" y="273.312"/>
      </g>
     </g>
     <g id="text_5">
      <!-- 100000 -->
      <g transform="translate(209.456875 287.802625)scale(0.1 -0.1)">
       <defs>
        <path d="M 2463 63 
L 1900 63 
L 1900 4103 
Q 1372 3922 788 3797 
L 684 4231 
Q 1519 4441 2106 4731 
L 2463 4731 
L 2463 63 
z
" id="IPAexGothic-31" transform="scale(0.015625)"/>
       </defs>
       <use xlink:href="#IPAexGothic-31"/>
       <use x="62.988281" xlink:href="#IPAexGothic-30"/>
       <use x="125.976562" xlink:href="#IPAexGothic-30"/>
       <use x="188.964844" xlink:href="#IPAexGothic-30"/>
       <use x="251.953125" xlink:href="#IPAexGothic-30"/>
       <use x="314.941406" xlink:href="#IPAexGothic-30"/>
      </g>
     </g>
    </g>
    <g id="xtick_6">
     <g id="line2d_6">
      <g>
       <use style="stroke:#000000;stroke-width:0.8;" x="268.934006" xlink:href="#m7fc69da4ca" y="273.312"/>
      </g>
     </g>
     <g id="text_6">
      <!-- 125000 -->
      <g transform="translate(250.038693 287.802625)scale(0.1 -0.1)">
       <use xlink:href="#IPAexGothic-31"/>
       <use x="62.988281" xlink:href="#IPAexGothic-32"/>
       <use x="125.976562" xlink:href="#IPAexGothic-35"/>
       <use x="188.964844" xlink:href="#IPAexGothic-30"/>
       <use x="251.953125" xlink:href="#IPAexGothic-30"/>
       <use x="314.941406" xlink:href="#IPAexGothic-30"/>
      </g>
     </g>
    </g>
    <g id="xtick_7">
     <g id="line2d_7">
      <g>
       <use style="stroke:#000000;stroke-width:0.8;" x="309.515824" xlink:href="#m7fc69da4ca" y="273.312"/>
      </g>
     </g>
     <g id="text_7">
      <!-- 150000 -->
      <g transform="translate(290.620511 287.802625)scale(0.1 -0.1)">
       <use xlink:href="#IPAexGothic-31"/>
       <use x="62.988281" xlink:href="#IPAexGothic-35"/>
       <use x="125.976562" xlink:href="#IPAexGothic-30"/>
       <use x="188.964844" xlink:href="#IPAexGothic-30"/>
       <use x="251.953125" xlink:href="#IPAexGothic-30"/>
       <use x="314.941406" xlink:href="#IPAexGothic-30"/>
      </g>
     </g>
    </g>
    <g id="xtick_8">
     <g id="line2d_8">
      <g>
       <use style="stroke:#000000;stroke-width:0.8;" x="350.097642" xlink:href="#m7fc69da4ca" y="273.312"/>
      </g>
     </g>
     <g id="text_8">
      <!-- 175000 -->
      <g transform="translate(331.20233 287.802625)scale(0.1 -0.1)">
       <use xlink:href="#IPAexGothic-31"/>
       <use x="62.988281" xlink:href="#IPAexGothic-37"/>
       <use x="125.976562" xlink:href="#IPAexGothic-35"/>
       <use x="188.964844" xlink:href="#IPAexGothic-30"/>
       <use x="251.953125" xlink:href="#IPAexGothic-30"/>
       <use x="314.941406" xlink:href="#IPAexGothic-30"/>
      </g>
     </g>
    </g>
    <g id="xtick_9">
     <g id="line2d_9">
      <g>
       <use style="stroke:#000000;stroke-width:0.8;" x="390.67946" xlink:href="#m7fc69da4ca" y="273.312"/>
      </g>
     </g>
     <g id="text_9">
      <!-- 200000 -->
      <g transform="translate(371.784148 287.802625)scale(0.1 -0.1)">
       <use xlink:href="#IPAexGothic-32"/>
       <use x="62.988281" xlink:href="#IPAexGothic-30"/>
       <use x="125.976562" xlink:href="#IPAexGothic-30"/>
       <use x="188.964844" xlink:href="#IPAexGothic-30"/>
       <use x="251.953125" xlink:href="#IPAexGothic-30"/>
       <use x="314.941406" xlink:href="#IPAexGothic-30"/>
      </g>
     </g>
    </g>
    <g id="text_10">
     <!-- N -->
     <g transform="translate(224.552969 301.19325)scale(0.1 -0.1)">
      <defs>
       <path d="M 4244 63 
L 3731 63 
L 1697 3150 
Q 1466 3500 1141 4097 
L 1116 4097 
L 1128 3797 
Q 1159 2803 1159 2469 
L 1159 63 
L 609 63 
L 609 4634 
L 1366 4634 
L 3113 1978 
Q 3453 1447 3713 966 
L 3738 966 
Q 3694 1897 3694 2469 
L 3694 4634 
L 4244 4634 
L 4244 63 
z
" id="IPAexGothic-4e" transform="scale(0.015625)"/>
      </defs>
      <use xlink:href="#IPAexGothic-4e"/>
     </g>
    </g>
   </g>
   <g id="matplotlib.axis_2">
    <g id="ytick_1">
     <g id="line2d_10">
      <defs>
       <path d="M 0 0 
L -3.5 0 
" id="m1cc05dfb95" style="stroke:#000000;stroke-width:0.8;"/>
      </defs>
      <g>
       <use style="stroke:#000000;stroke-width:0.8;" x="49.792188" xlink:href="#m1cc05dfb95" y="270.074287"/>
      </g>
     </g>
     <g id="text_11">
      <!-- $\mathdefault{10^{-4}}$ -->
      <g transform="translate(20.692188 273.8196)scale(0.1 -0.1)">
       <defs>
        <path d="M 416 2222 
L 3922 2222 
L 3922 1856 
L 416 1856 
L 416 2222 
z
" id="IPAexGothic-2212" transform="scale(0.015625)"/>
        <path d="M 3813 1159 
L 3059 1159 
L 3059 63 
L 2547 63 
L 2547 1159 
L 197 1159 
L 197 1672 
L 2456 4678 
L 3059 4678 
L 3059 1634 
L 3813 1634 
L 3813 1159 
z
M 2578 4109 
L 2559 4109 
Q 2278 3656 2003 3284 
L 759 1634 
L 2547 1634 
L 2547 3144 
Q 2547 3481 2578 4109 
z
" id="IPAexGothic-34" transform="scale(0.015625)"/>
       </defs>
       <use transform="translate(0 0.2875)" xlink:href="#IPAexGothic-31"/>
       <use transform="translate(62.988281 0.2875)" xlink:href="#IPAexGothic-30"/>
       <use transform="translate(126.865234 35.834375)scale(0.7)" xlink:href="#IPAexGothic-2212"/>
       <use transform="translate(174.34082 35.834375)scale(0.7)" xlink:href="#IPAexGothic-34"/>
      </g>
     </g>
    </g>
    <g id="ytick_2">
     <g id="line2d_11">
      <g>
       <use style="stroke:#000000;stroke-width:0.8;" x="49.792188" xlink:href="#m1cc05dfb95" y="225.468953"/>
      </g>
     </g>
     <g id="text_12">
      <!-- $\mathdefault{10^{-3}}$ -->
      <g transform="translate(20.692188 229.214265)scale(0.1 -0.1)">
       <defs>
        <path d="M 2381 2419 
Q 3506 2216 3506 1278 
Q 3506 716 3128 356 
Q 2709 -31 1944 -31 
Q 797 -31 288 881 
L 756 1131 
Q 1109 441 1938 441 
Q 2425 441 2694 691 
Q 2950 928 2950 1291 
Q 2950 1719 2566 1978 
Q 2216 2213 1644 2213 
L 1363 2213 
L 1363 2669 
L 1656 2669 
Q 2231 2669 2534 2888 
Q 2859 3119 2859 3509 
Q 2859 3934 2494 4138 
Q 2259 4278 1931 4278 
Q 1238 4278 903 3578 
L 434 3803 
Q 897 4725 1938 4725 
Q 2597 4725 3006 4394 
Q 3416 4069 3416 3534 
Q 3416 3028 3019 2706 
Q 2763 2500 2381 2444 
L 2381 2419 
z
" id="IPAexGothic-33" transform="scale(0.015625)"/>
       </defs>
       <use transform="translate(0 0.773438)" xlink:href="#IPAexGothic-31"/>
       <use transform="translate(62.988281 0.773438)" xlink:href="#IPAexGothic-30"/>
       <use transform="translate(126.865234 36.320312)scale(0.7)" xlink:href="#IPAexGothic-2212"/>
       <use transform="translate(174.34082 36.320312)scale(0.7)" xlink:href="#IPAexGothic-33"/>
      </g>
     </g>
    </g>
    <g id="ytick_3">
     <g id="line2d_12">
      <g>
       <use style="stroke:#000000;stroke-width:0.8;" x="49.792188" xlink:href="#m1cc05dfb95" y="180.863618"/>
      </g>
     </g>
     <g id="text_13">
      <!-- $\mathdefault{10^{-2}}$ -->
      <g transform="translate(20.692188 184.608931)scale(0.1 -0.1)">
       <use transform="translate(0 0.773438)" xlink:href="#IPAexGothic-31"/>
       <use transform="translate(62.988281 0.773438)" xlink:href="#IPAexGothic-30"/>
       <use transform="translate(126.865234 36.320312)scale(0.7)" xlink:href="#IPAexGothic-2212"/>
       <use transform="translate(174.34082 36.320312)scale(0.7)" xlink:href="#IPAexGothic-32"/>
      </g>
     </g>
    </g>
    <g id="ytick_4">
     <g id="line2d_13">
      <g>
       <use style="stroke:#000000;stroke-width:0.8;" x="49.792188" xlink:href="#m1cc05dfb95" y="136.258284"/>
      </g>
     </g>
     <g id="text_14">
      <!-- $\mathdefault{10^{-1}}$ -->
      <g transform="translate(20.692188 140.003596)scale(0.1 -0.1)">
       <use transform="translate(0 0.707813)" xlink:href="#IPAexGothic-31"/>
       <use transform="translate(62.988281 0.707813)" xlink:href="#IPAexGothic-30"/>
       <use transform="translate(126.865234 36.254688)scale(0.7)" xlink:href="#IPAexGothic-2212"/>
       <use transform="translate(174.34082 36.254688)scale(0.7)" xlink:href="#IPAexGothic-31"/>
      </g>
     </g>
    </g>
    <g id="ytick_5">
     <g id="line2d_14">
      <g>
       <use style="stroke:#000000;stroke-width:0.8;" x="49.792188" xlink:href="#m1cc05dfb95" y="91.652949"/>
      </g>
     </g>
     <g id="text_15">
      <!-- $\mathdefault{10^{0}}$ -->
      <g transform="translate(25.392188 95.398261)scale(0.1 -0.1)">
       <use transform="translate(0 0.773438)" xlink:href="#IPAexGothic-31"/>
       <use transform="translate(62.988281 0.773438)" xlink:href="#IPAexGothic-30"/>
       <use transform="translate(126.865234 36.320312)scale(0.7)" xlink:href="#IPAexGothic-30"/>
      </g>
     </g>
    </g>
    <g id="ytick_6">
     <g id="line2d_15">
      <g>
       <use style="stroke:#000000;stroke-width:0.8;" x="49.792188" xlink:href="#m1cc05dfb95" y="47.047614"/>
      </g>
     </g>
     <g id="text_16">
      <!-- $\mathdefault{10^{1}}$ -->
      <g transform="translate(25.392188 50.792927)scale(0.1 -0.1)">
       <use transform="translate(0 0.707813)" xlink:href="#IPAexGothic-31"/>
       <use transform="translate(62.988281 0.707813)" xlink:href="#IPAexGothic-30"/>
       <use transform="translate(126.865234 36.254688)scale(0.7)" xlink:href="#IPAexGothic-31"/>
      </g>
     </g>
    </g>
    <g id="ytick_7">
     <g id="line2d_16">
      <defs>
       <path d="M 0 0 
L -2 0 
" id="mdc052c875e" style="stroke:#000000;stroke-width:0.6;"/>
      </defs>
      <g>
       <use style="stroke:#000000;stroke-width:0.6;" x="49.792188" xlink:href="#mdc052c875e" y="272.115316"/>
      </g>
     </g>
    </g>
    <g id="ytick_8">
     <g id="line2d_17">
      <g>
       <use style="stroke:#000000;stroke-width:0.6;" x="49.792188" xlink:href="#mdc052c875e" y="256.646744"/>
      </g>
     </g>
    </g>
    <g id="ytick_9">
     <g id="line2d_18">
      <g>
       <use style="stroke:#000000;stroke-width:0.6;" x="49.792188" xlink:href="#mdc052c875e" y="248.792134"/>
      </g>
     </g>
    </g>
    <g id="ytick_10">
     <g id="line2d_19">
      <g>
       <use style="stroke:#000000;stroke-width:0.6;" x="49.792188" xlink:href="#mdc052c875e" y="243.2192"/>
      </g>
     </g>
    </g>
    <g id="ytick_11">
     <g id="line2d_20">
      <g>
       <use style="stroke:#000000;stroke-width:0.6;" x="49.792188" xlink:href="#mdc052c875e" y="238.896497"/>
      </g>
     </g>
    </g>
    <g id="ytick_12">
     <g id="line2d_21">
      <g>
       <use style="stroke:#000000;stroke-width:0.6;" x="49.792188" xlink:href="#mdc052c875e" y="235.364591"/>
      </g>
     </g>
    </g>
    <g id="ytick_13">
     <g id="line2d_22">
      <g>
       <use style="stroke:#000000;stroke-width:0.6;" x="49.792188" xlink:href="#mdc052c875e" y="232.378407"/>
      </g>
     </g>
    </g>
    <g id="ytick_14">
     <g id="line2d_23">
      <g>
       <use style="stroke:#000000;stroke-width:0.6;" x="49.792188" xlink:href="#mdc052c875e" y="229.791656"/>
      </g>
     </g>
    </g>
    <g id="ytick_15">
     <g id="line2d_24">
      <g>
       <use style="stroke:#000000;stroke-width:0.6;" x="49.792188" xlink:href="#mdc052c875e" y="227.509981"/>
      </g>
     </g>
    </g>
    <g id="ytick_16">
     <g id="line2d_25">
      <g>
       <use style="stroke:#000000;stroke-width:0.6;" x="49.792188" xlink:href="#mdc052c875e" y="212.041409"/>
      </g>
     </g>
    </g>
    <g id="ytick_17">
     <g id="line2d_26">
      <g>
       <use style="stroke:#000000;stroke-width:0.6;" x="49.792188" xlink:href="#mdc052c875e" y="204.1868"/>
      </g>
     </g>
    </g>
    <g id="ytick_18">
     <g id="line2d_27">
      <g>
       <use style="stroke:#000000;stroke-width:0.6;" x="49.792188" xlink:href="#mdc052c875e" y="198.613865"/>
      </g>
     </g>
    </g>
    <g id="ytick_19">
     <g id="line2d_28">
      <g>
       <use style="stroke:#000000;stroke-width:0.6;" x="49.792188" xlink:href="#mdc052c875e" y="194.291162"/>
      </g>
     </g>
    </g>
    <g id="ytick_20">
     <g id="line2d_29">
      <g>
       <use style="stroke:#000000;stroke-width:0.6;" x="49.792188" xlink:href="#mdc052c875e" y="190.759256"/>
      </g>
     </g>
    </g>
    <g id="ytick_21">
     <g id="line2d_30">
      <g>
       <use style="stroke:#000000;stroke-width:0.6;" x="49.792188" xlink:href="#mdc052c875e" y="187.773072"/>
      </g>
     </g>
    </g>
    <g id="ytick_22">
     <g id="line2d_31">
      <g>
       <use style="stroke:#000000;stroke-width:0.6;" x="49.792188" xlink:href="#mdc052c875e" y="185.186322"/>
      </g>
     </g>
    </g>
    <g id="ytick_23">
     <g id="line2d_32">
      <g>
       <use style="stroke:#000000;stroke-width:0.6;" x="49.792188" xlink:href="#mdc052c875e" y="182.904646"/>
      </g>
     </g>
    </g>
    <g id="ytick_24">
     <g id="line2d_33">
      <g>
       <use style="stroke:#000000;stroke-width:0.6;" x="49.792188" xlink:href="#mdc052c875e" y="167.436074"/>
      </g>
     </g>
    </g>
    <g id="ytick_25">
     <g id="line2d_34">
      <g>
       <use style="stroke:#000000;stroke-width:0.6;" x="49.792188" xlink:href="#mdc052c875e" y="159.581465"/>
      </g>
     </g>
    </g>
    <g id="ytick_26">
     <g id="line2d_35">
      <g>
       <use style="stroke:#000000;stroke-width:0.6;" x="49.792188" xlink:href="#mdc052c875e" y="154.008531"/>
      </g>
     </g>
    </g>
    <g id="ytick_27">
     <g id="line2d_36">
      <g>
       <use style="stroke:#000000;stroke-width:0.6;" x="49.792188" xlink:href="#mdc052c875e" y="149.685827"/>
      </g>
     </g>
    </g>
    <g id="ytick_28">
     <g id="line2d_37">
      <g>
       <use style="stroke:#000000;stroke-width:0.6;" x="49.792188" xlink:href="#mdc052c875e" y="146.153921"/>
      </g>
     </g>
    </g>
    <g id="ytick_29">
     <g id="line2d_38">
      <g>
       <use style="stroke:#000000;stroke-width:0.6;" x="49.792188" xlink:href="#mdc052c875e" y="143.167737"/>
      </g>
     </g>
    </g>
    <g id="ytick_30">
     <g id="line2d_39">
      <g>
       <use style="stroke:#000000;stroke-width:0.6;" x="49.792188" xlink:href="#mdc052c875e" y="140.580987"/>
      </g>
     </g>
    </g>
    <g id="ytick_31">
     <g id="line2d_40">
      <g>
       <use style="stroke:#000000;stroke-width:0.6;" x="49.792188" xlink:href="#mdc052c875e" y="138.299312"/>
      </g>
     </g>
    </g>
    <g id="ytick_32">
     <g id="line2d_41">
      <g>
       <use style="stroke:#000000;stroke-width:0.6;" x="49.792188" xlink:href="#mdc052c875e" y="122.83074"/>
      </g>
     </g>
    </g>
    <g id="ytick_33">
     <g id="line2d_42">
      <g>
       <use style="stroke:#000000;stroke-width:0.6;" x="49.792188" xlink:href="#mdc052c875e" y="114.97613"/>
      </g>
     </g>
    </g>
    <g id="ytick_34">
     <g id="line2d_43">
      <g>
       <use style="stroke:#000000;stroke-width:0.6;" x="49.792188" xlink:href="#mdc052c875e" y="109.403196"/>
      </g>
     </g>
    </g>
    <g id="ytick_35">
     <g id="line2d_44">
      <g>
       <use style="stroke:#000000;stroke-width:0.6;" x="49.792188" xlink:href="#mdc052c875e" y="105.080493"/>
      </g>
     </g>
    </g>
    <g id="ytick_36">
     <g id="line2d_45">
      <g>
       <use style="stroke:#000000;stroke-width:0.6;" x="49.792188" xlink:href="#mdc052c875e" y="101.548587"/>
      </g>
     </g>
    </g>
    <g id="ytick_37">
     <g id="line2d_46">
      <g>
       <use style="stroke:#000000;stroke-width:0.6;" x="49.792188" xlink:href="#mdc052c875e" y="98.562403"/>
      </g>
     </g>
    </g>
    <g id="ytick_38">
     <g id="line2d_47">
      <g>
       <use style="stroke:#000000;stroke-width:0.6;" x="49.792188" xlink:href="#mdc052c875e" y="95.975652"/>
      </g>
     </g>
    </g>
    <g id="ytick_39">
     <g id="line2d_48">
      <g>
       <use style="stroke:#000000;stroke-width:0.6;" x="49.792188" xlink:href="#mdc052c875e" y="93.693977"/>
      </g>
     </g>
    </g>
    <g id="ytick_40">
     <g id="line2d_49">
      <g>
       <use style="stroke:#000000;stroke-width:0.6;" x="49.792188" xlink:href="#mdc052c875e" y="78.225405"/>
      </g>
     </g>
    </g>
    <g id="ytick_41">
     <g id="line2d_50">
      <g>
       <use style="stroke:#000000;stroke-width:0.6;" x="49.792188" xlink:href="#mdc052c875e" y="70.370796"/>
      </g>
     </g>
    </g>
    <g id="ytick_42">
     <g id="line2d_51">
      <g>
       <use style="stroke:#000000;stroke-width:0.6;" x="49.792188" xlink:href="#mdc052c875e" y="64.797861"/>
      </g>
     </g>
    </g>
    <g id="ytick_43">
     <g id="line2d_52">
      <g>
       <use style="stroke:#000000;stroke-width:0.6;" x="49.792188" xlink:href="#mdc052c875e" y="60.475158"/>
      </g>
     </g>
    </g>
    <g id="ytick_44">
     <g id="line2d_53">
      <g>
       <use style="stroke:#000000;stroke-width:0.6;" x="49.792188" xlink:href="#mdc052c875e" y="56.943252"/>
      </g>
     </g>
    </g>
    <g id="ytick_45">
     <g id="line2d_54">
      <g>
       <use style="stroke:#000000;stroke-width:0.6;" x="49.792188" xlink:href="#mdc052c875e" y="53.957068"/>
      </g>
     </g>
    </g>
    <g id="ytick_46">
     <g id="line2d_55">
      <g>
       <use style="stroke:#000000;stroke-width:0.6;" x="49.792188" xlink:href="#mdc052c875e" y="51.370318"/>
      </g>
     </g>
    </g>
    <g id="ytick_47">
     <g id="line2d_56">
      <g>
       <use style="stroke:#000000;stroke-width:0.6;" x="49.792188" xlink:href="#mdc052c875e" y="49.088642"/>
      </g>
     </g>
    </g>
    <g id="ytick_48">
     <g id="line2d_57">
      <g>
       <use style="stroke:#000000;stroke-width:0.6;" x="49.792188" xlink:href="#mdc052c875e" y="33.62007"/>
      </g>
     </g>
    </g>
    <g id="ytick_49">
     <g id="line2d_58">
      <g>
       <use style="stroke:#000000;stroke-width:0.6;" x="49.792188" xlink:href="#mdc052c875e" y="25.765461"/>
      </g>
     </g>
    </g>
    <g id="ytick_50">
     <g id="line2d_59">
      <g>
       <use style="stroke:#000000;stroke-width:0.6;" x="49.792188" xlink:href="#mdc052c875e" y="20.192527"/>
      </g>
     </g>
    </g>
    <g id="ytick_51">
     <g id="line2d_60">
      <g>
       <use style="stroke:#000000;stroke-width:0.6;" x="49.792188" xlink:href="#mdc052c875e" y="15.869823"/>
      </g>
     </g>
    </g>
    <g id="ytick_52">
     <g id="line2d_61">
      <g>
       <use style="stroke:#000000;stroke-width:0.6;" x="49.792188" xlink:href="#mdc052c875e" y="12.337917"/>
      </g>
     </g>
    </g>
    <g id="ytick_53">
     <g id="line2d_62">
      <g>
       <use style="stroke:#000000;stroke-width:0.6;" x="49.792188" xlink:href="#mdc052c875e" y="9.351733"/>
      </g>
     </g>
    </g>
    <g id="text_17">
     <!-- time (seconds) -->
     <g transform="translate(14.792188 174.560687)rotate(-90)scale(0.1 -0.1)">
      <defs>
       <path d="M 2125 241 
Q 1769 -6 1397 -6 
Q 653 -6 653 831 
L 653 2859 
L 219 2859 
L 219 3250 
L 653 3250 
L 653 3966 
L 1178 4228 
L 1178 3250 
L 2063 3250 
L 2063 2859 
L 1178 2859 
L 1178 906 
Q 1178 416 1513 416 
Q 1738 416 1941 588 
L 2125 241 
z
" id="IPAexGothic-74" transform="scale(0.015625)"/>
       <path d="M 1178 3928 
L 550 3928 
L 550 4569 
L 1178 4569 
L 1178 3928 
z
M 1138 63 
L 588 63 
L 588 3250 
L 1138 3250 
L 1138 63 
z
" id="IPAexGothic-69" transform="scale(0.015625)"/>
       <path d="M 5022 63 
L 4472 63 
L 4472 2059 
Q 4472 2869 3847 2869 
Q 3550 2869 3303 2594 
Q 3128 2397 3059 2103 
L 3059 63 
L 2509 63 
L 2509 2066 
Q 2509 2869 1919 2869 
Q 1606 2869 1369 2594 
Q 1113 2306 1113 2041 
L 1113 63 
L 563 63 
L 563 3250 
L 1075 3250 
L 1075 2700 
Q 1391 3316 2028 3316 
Q 2725 3316 2956 2647 
Q 3303 3316 3953 3316 
Q 4478 3316 4772 2944 
Q 5022 2638 5022 2072 
L 5022 63 
z
" id="IPAexGothic-6d" transform="scale(0.015625)"/>
       <path d="M 863 1594 
Q 891 1041 1209 722 
Q 1534 397 1997 397 
Q 2606 397 2963 966 
L 3322 728 
Q 2869 -31 1931 -31 
Q 1222 -31 766 422 
Q 306 884 306 1641 
Q 306 2444 788 2925 
Q 1216 3353 1856 3353 
Q 2459 3353 2866 2956 
Q 3322 2494 3322 1722 
L 3322 1594 
L 863 1594 
z
M 2756 1997 
Q 2709 2431 2450 2681 
Q 2194 2938 1844 2938 
Q 1438 2938 1150 2591 
Q 953 2356 894 1997 
L 2756 1997 
z
" id="IPAexGothic-65" transform="scale(0.015625)"/>
       <path id="IPAexGothic-20" transform="scale(0.015625)"/>
       <path d="M 1928 -1016 
L 1653 -1166 
Q 488 69 488 1875 
Q 488 3678 1653 4909 
L 1928 4763 
Q 1006 3522 1006 1881 
Q 1006 203 1928 -1016 
z
" id="IPAexGothic-28" transform="scale(0.015625)"/>
       <path d="M 2234 2547 
Q 1938 2931 1484 2931 
Q 891 2931 891 2475 
Q 891 2153 1531 1944 
L 1741 1875 
Q 2650 1578 2650 894 
Q 2650 434 2272 172 
Q 1972 -31 1497 -31 
Q 766 -31 256 503 
L 603 819 
Q 997 397 1516 397 
Q 2131 397 2131 875 
Q 2131 1238 1453 1478 
L 1234 1553 
Q 378 1853 378 2431 
Q 378 2797 628 3047 
Q 928 3347 1453 3347 
Q 2156 3347 2606 2859 
L 2234 2547 
z
" id="IPAexGothic-73" transform="scale(0.015625)"/>
       <path d="M 3269 784 
Q 2834 -31 1900 -31 
Q 1228 -31 788 409 
Q 313 891 313 1663 
Q 313 2428 788 2913 
Q 1222 3347 1881 3347 
Q 2813 3347 3206 2541 
L 2763 2309 
Q 2484 2900 1900 2900 
Q 1516 2900 1234 2619 
Q 881 2266 881 1650 
Q 881 1069 1222 728 
Q 1522 428 1956 428 
Q 2547 428 2847 1016 
L 3269 784 
z
" id="IPAexGothic-63" transform="scale(0.015625)"/>
       <path d="M 1919 3341 
Q 2594 3341 3056 2888 
Q 3531 2413 3531 1638 
Q 3531 888 3066 422 
Q 2609 -31 1919 -31 
Q 1228 -31 781 416 
Q 313 881 313 1656 
Q 313 2413 788 2888 
Q 1241 3341 1919 3341 
z
M 1919 2919 
Q 1519 2919 1241 2631 
Q 888 2278 888 1650 
Q 888 1031 1234 684 
Q 1516 403 1919 403 
Q 2331 403 2609 691 
Q 2956 1038 2956 1672 
Q 2956 2269 2603 2631 
Q 2316 2919 1919 2919 
z
" id="IPAexGothic-6f" transform="scale(0.015625)"/>
       <path d="M 3328 63 
L 2778 63 
L 2778 2041 
Q 2778 2853 2106 2853 
Q 1428 2853 1113 2041 
L 1113 63 
L 563 63 
L 563 3250 
L 1075 3250 
L 1075 2675 
Q 1525 3316 2222 3316 
Q 3328 3316 3328 2072 
L 3328 63 
z
" id="IPAexGothic-6e" transform="scale(0.015625)"/>
       <path d="M 3391 63 
L 2891 63 
L 2891 619 
Q 2441 -31 1753 -31 
Q 1181 -31 788 372 
Q 313 844 313 1663 
Q 313 2466 772 2938 
Q 1169 3341 1753 3341 
Q 2384 3341 2847 2809 
L 2847 4794 
L 3391 4794 
L 3391 63 
z
M 2847 1303 
L 2847 2097 
Q 2847 2413 2456 2706 
Q 2181 2906 1853 2906 
Q 1484 2906 1228 2650 
Q 888 2309 888 1678 
Q 888 1109 1169 750 
Q 1441 409 1847 409 
Q 2322 409 2656 875 
Q 2847 1134 2847 1303 
z
" id="IPAexGothic-64" transform="scale(0.015625)"/>
       <path d="M 466 4909 
Q 1638 3672 1638 1875 
Q 1638 75 466 -1166 
L 191 -1016 
Q 1119 216 1119 1881 
Q 1119 3509 191 4763 
L 466 4909 
z
" id="IPAexGothic-29" transform="scale(0.015625)"/>
      </defs>
      <use xlink:href="#IPAexGothic-74"/>
      <use x="34.619141" xlink:href="#IPAexGothic-69"/>
      <use x="61.621094" xlink:href="#IPAexGothic-6d"/>
      <use x="148.730469" xlink:href="#IPAexGothic-65"/>
      <use x="205.615234" xlink:href="#IPAexGothic-20"/>
      <use x="232.617188" xlink:href="#IPAexGothic-28"/>
      <use x="265.917969" xlink:href="#IPAexGothic-73"/>
      <use x="312.109375" xlink:href="#IPAexGothic-65"/>
      <use x="368.994141" xlink:href="#IPAexGothic-63"/>
      <use x="423.388672" xlink:href="#IPAexGothic-6f"/>
      <use x="483.789062" xlink:href="#IPAexGothic-6e"/>
      <use x="544.189453" xlink:href="#IPAexGothic-64"/>
      <use x="606.591797" xlink:href="#IPAexGothic-73"/>
      <use x="652.783203" xlink:href="#IPAexGothic-29"/>
     </g>
    </g>
   </g>
   <g id="line2d_63">
    <defs>
     <path d="M 0 3 
C 0.795609 3 1.55874 2.683901 2.12132 2.12132 
C 2.683901 1.55874 3 0.795609 3 0 
C 3 -0.795609 2.683901 -1.55874 2.12132 -2.12132 
C 1.55874 -2.683901 0.795609 -3 0 -3 
C -0.795609 -3 -1.55874 -2.683901 -2.12132 -2.12132 
C -2.683901 -1.55874 -3 -0.795609 -3 0 
C -3 0.795609 -2.683901 1.55874 -2.12132 2.12132 
C -1.55874 2.683901 -0.795609 3 0 3 
z
" id="m270870893e" style="stroke:#1f77b4;"/>
    </defs>
    <g clip-path="url(#pe806df41b0)">
     <use style="fill:#1f77b4;stroke:#1f77b4;" x="82.301146" xlink:href="#m270870893e" y="22342.114"/>
     <use style="fill:#1f77b4;stroke:#1f77b4;" x="98.490369" xlink:href="#m270870893e" y="106.744197"/>
     <use style="fill:#1f77b4;stroke:#1f77b4;" x="130.955824" xlink:href="#m270870893e" y="81.603299"/>
     <use style="fill:#1f77b4;stroke:#1f77b4;" x="163.421278" xlink:href="#m270870893e" y="65.912192"/>
     <use style="fill:#1f77b4;stroke:#1f77b4;" x="195.886733" xlink:href="#m270870893e" y="54.779977"/>
     <use style="fill:#1f77b4;stroke:#1f77b4;" x="228.352188" xlink:href="#m270870893e" y="46.138468"/>
     <use style="fill:#1f77b4;stroke:#1f77b4;" x="260.817642" xlink:href="#m270870893e" y="39.07802"/>
     <use style="fill:#1f77b4;stroke:#1f77b4;" x="293.283097" xlink:href="#m270870893e" y="33.104722"/>
     <use style="fill:#1f77b4;stroke:#1f77b4;" x="325.748551" xlink:href="#m270870893e" y="27.93455"/>
     <use style="fill:#1f77b4;stroke:#1f77b4;" x="358.214006" xlink:href="#m270870893e" y="23.375777"/>
     <use style="fill:#1f77b4;stroke:#1f77b4;" x="390.67946" xlink:href="#m270870893e" y="19.296"/>
    </g>
   </g>
   <g id="line2d_64">
    <defs>
     <path d="M 0 3 
C 0.795609 3 1.55874 2.683901 2.12132 2.12132 
C 2.683901 1.55874 3 0.795609 3 0 
C 3 -0.795609 2.683901 -1.55874 2.12132 -2.12132 
C 1.55874 -2.683901 0.795609 -3 0 -3 
C -0.795609 -3 -1.55874 -2.683901 -2.12132 -2.12132 
C -2.683901 -1.55874 -3 -0.795609 -3 0 
C -3 0.795609 -2.683901 1.55874 -2.12132 2.12132 
C -1.55874 2.683901 -0.795609 3 0 3 
z
" id="m2797d93216" style="stroke:#ff7f0e;"/>
    </defs>
    <g clip-path="url(#pe806df41b0)">
     <use style="fill:#ff7f0e;stroke:#ff7f0e;" x="82.339279" xlink:href="#m2797d93216" y="22342.114"/>
     <use style="fill:#ff7f0e;stroke:#ff7f0e;" x="98.490369" xlink:href="#m2797d93216" y="210.967536"/>
     <use style="fill:#ff7f0e;stroke:#ff7f0e;" x="130.955824" xlink:href="#m2797d93216" y="196.075605"/>
     <use style="fill:#ff7f0e;stroke:#ff7f0e;" x="163.421278" xlink:href="#m2797d93216" y="188.274882"/>
     <use style="fill:#ff7f0e;stroke:#ff7f0e;" x="195.886733" xlink:href="#m2797d93216" y="182.242387"/>
     <use style="fill:#ff7f0e;stroke:#ff7f0e;" x="228.352188" xlink:href="#m2797d93216" y="177.746151"/>
     <use style="fill:#ff7f0e;stroke:#ff7f0e;" x="260.817642" xlink:href="#m2797d93216" y="173.859089"/>
     <use style="fill:#ff7f0e;stroke:#ff7f0e;" x="293.283097" xlink:href="#m2797d93216" y="170.788271"/>
     <use style="fill:#ff7f0e;stroke:#ff7f0e;" x="325.748551" xlink:href="#m2797d93216" y="167.694467"/>
     <use style="fill:#ff7f0e;stroke:#ff7f0e;" x="358.214006" xlink:href="#m2797d93216" y="165.116553"/>
     <use style="fill:#ff7f0e;stroke:#ff7f0e;" x="390.67946" xlink:href="#m2797d93216" y="162.829532"/>
    </g>
   </g>
   <g id="line2d_65">
    <path clip-path="url(#pe806df41b0)" d="M 69.27146 197.717339 
L 72.518006 170.862251 
L 75.764551 155.153032 
L 79.011097 144.007164 
L 82.257642 135.361757 
L 85.504188 128.297945 
L 88.750733 122.325577 
L 91.997278 117.152076 
L 95.243824 112.588726 
L 98.490369 108.506669 
L 101.736915 104.814 
L 104.98346 101.442857 
L 108.230006 98.341707 
L 111.476551 95.470489 
L 114.723097 92.79745 
L 117.969642 90.296989 
L 121.216188 87.948167 
L 124.462733 85.733638 
L 127.709278 83.638874 
L 130.955824 81.651582 
L 134.202369 79.76127 
L 137.448915 77.958913 
L 140.69546 76.236687 
L 143.942006 74.58777 
L 147.188551 73.006175 
L 150.435097 71.486619 
L 153.681642 70.024419 
L 156.928188 68.615402 
L 160.174733 67.255834 
L 163.421278 65.942363 
L 166.667824 64.671964 
L 169.914369 63.441902 
L 173.160915 62.249694 
L 176.40746 61.093079 
L 179.654006 59.969995 
L 182.900551 58.878551 
L 186.147097 57.817013 
L 189.393642 56.783787 
L 192.640187 55.7774 
L 195.886733 54.796495 
L 199.133278 53.839811 
L 202.379824 52.906183 
L 205.626369 51.994524 
L 208.872915 51.103825 
L 212.11946 50.233144 
L 215.366006 49.3816 
L 218.612551 48.54837 
L 221.859097 47.732683 
L 225.105642 46.933815 
L 228.352188 46.151087 
L 231.598733 45.38386 
L 234.845278 44.631532 
L 238.091824 43.893534 
L 241.338369 43.169332 
L 244.584915 42.458418 
L 247.83146 41.760315 
L 251.078006 41.074568 
L 254.324551 40.400747 
L 257.571097 39.738445 
L 260.817642 39.087275 
L 264.064188 38.446869 
L 267.310733 37.816876 
L 270.557278 37.196964 
L 273.803824 36.586814 
L 277.050369 35.986125 
L 280.296915 35.394606 
L 283.54346 34.811983 
L 286.790006 34.237992 
L 290.036551 33.67238 
L 293.283097 33.114908 
L 296.529642 32.565342 
L 299.776187 32.023463 
L 303.022733 31.489059 
L 306.269278 30.961926 
L 309.515824 30.441868 
L 312.762369 29.928699 
L 316.008915 29.422238 
L 319.25546 28.922313 
L 322.502006 28.428756 
L 325.748551 27.941407 
L 328.995097 27.460113 
L 332.241642 26.984724 
L 335.488187 26.515098 
L 338.734733 26.051096 
L 341.981278 25.592585 
L 345.227824 25.139437 
L 348.474369 24.691528 
L 351.720915 24.248738 
L 354.96746 23.810951 
L 358.214006 23.378056 
L 361.460551 22.949945 
L 364.707097 22.526512 
L 367.953642 22.107657 
L 371.200187 21.693282 
L 374.446733 21.283292 
L 377.693278 20.877595 
L 380.939824 20.476102 
L 384.186369 20.078728 
L 387.432915 19.685387 
L 390.67946 19.296 
" style="fill:none;stroke:#1f77b4;stroke-linecap:square;stroke-width:1.5;"/>
   </g>
   <g id="line2d_66">
    <path clip-path="url(#pe806df41b0)" d="M 69.27146 261.216 
L 72.518006 246.097849 
L 75.764551 237.318642 
L 79.011097 231.115469 
L 82.257642 226.317655 
L 85.504188 222.406023 
L 88.750733 219.104493 
L 91.997278 216.248665 
L 95.243824 213.732711 
L 98.490369 211.484486 
L 101.736915 209.45261 
L 104.98346 207.599191 
L 108.230006 205.895484 
L 111.476551 204.319169 
L 114.723097 202.852567 
L 117.969642 201.481438 
L 121.216188 200.194144 
L 124.462733 198.98105 
L 127.709278 197.83409 
L 130.955824 196.746447 
L 134.202369 195.712302 
L 137.448915 194.726653 
L 140.69546 193.785169 
L 143.942006 192.884071 
L 147.188551 192.020047 
L 150.435097 191.190175 
L 153.681642 190.391865 
L 156.928188 189.622811 
L 160.174733 188.88095 
L 163.421278 188.16443 
L 166.667824 187.471582 
L 169.914369 186.800896 
L 173.160915 186.151002 
L 176.40746 185.520653 
L 179.654006 184.908711 
L 182.900551 184.314134 
L 186.147097 183.735967 
L 189.393642 183.173331 
L 192.640187 182.625416 
L 195.886733 182.091472 
L 199.133278 181.570807 
L 202.379824 181.062779 
L 205.626369 180.566789 
L 208.872915 180.082283 
L 212.11946 179.608742 
L 215.366006 179.145683 
L 218.612551 178.692651 
L 221.859097 178.249224 
L 225.105642 177.815004 
L 228.352188 177.389617 
L 231.598733 176.972711 
L 234.845278 176.563958 
L 238.091824 176.163043 
L 241.338369 175.769674 
L 244.584915 175.383572 
L 247.83146 175.004474 
L 251.078006 174.632131 
L 254.324551 174.266308 
L 257.571097 173.906781 
L 260.817642 173.553337 
L 264.064188 173.205774 
L 267.310733 172.863901 
L 270.557278 172.527534 
L 273.803824 172.196499 
L 277.050369 171.870632 
L 280.296915 171.549772 
L 283.54346 171.233769 
L 286.790006 170.922478 
L 290.036551 170.615762 
L 293.283097 170.313488 
L 296.529642 170.01553 
L 299.776187 169.721766 
L 303.022733 169.43208 
L 306.269278 169.146362 
L 309.515824 168.864503 
L 312.762369 168.586402 
L 316.008915 168.31196 
L 319.25546 168.041082 
L 322.502006 167.773676 
L 325.748551 167.509656 
L 328.995097 167.248937 
L 332.241642 166.991437 
L 335.488187 166.737079 
L 338.734733 166.485786 
L 341.981278 166.237485 
L 345.227824 165.992108 
L 348.474369 165.749585 
L 351.720915 165.509851 
L 354.96746 165.272843 
L 358.214006 165.0385 
L 361.460551 164.806763 
L 364.707097 164.577574 
L 367.953642 164.350879 
L 371.200187 164.126623 
L 374.446733 163.904755 
L 377.693278 163.685225 
L 380.939824 163.467984 
L 384.186369 163.252985 
L 387.432915 163.040183 
L 390.67946 162.829532 
" style="fill:none;stroke:#ff7f0e;stroke-linecap:square;stroke-width:1.5;"/>
   </g>
   <g id="patch_3">
    <path d="M 49.792188 273.312 
L 49.792188 7.2 
" style="fill:none;stroke:#000000;stroke-linecap:square;stroke-linejoin:miter;stroke-width:0.8;"/>
   </g>
   <g id="patch_4">
    <path d="M 406.912188 273.312 
L 406.912188 7.2 
" style="fill:none;stroke:#000000;stroke-linecap:square;stroke-linejoin:miter;stroke-width:0.8;"/>
   </g>
   <g id="patch_5">
    <path d="M 49.792187 273.312 
L 406.912187 273.312 
" style="fill:none;stroke:#000000;stroke-linecap:square;stroke-linejoin:miter;stroke-width:0.8;"/>
   </g>
   <g id="patch_6">
    <path d="M 49.792187 7.2 
L 406.912187 7.2 
" style="fill:none;stroke:#000000;stroke-linecap:square;stroke-linejoin:miter;stroke-width:0.8;"/>
   </g>
   <g id="legend_1">
    <g id="patch_7">
     <path d="M 56.792188 43.98125 
L 134.214063 43.98125 
Q 136.214063 43.98125 136.214063 41.98125 
L 136.214063 14.2 
Q 136.214063 12.2 134.214063 12.2 
L 56.792188 12.2 
Q 54.792188 12.2 54.792188 14.2 
L 54.792188 41.98125 
Q 54.792188 43.98125 56.792188 43.98125 
z
" style="fill:#ffffff;opacity:0.8;stroke:#cccccc;stroke-linejoin:miter;"/>
    </g>
    <g id="line2d_67"/>
    <g id="line2d_68">
     <g>
      <use style="fill:#1f77b4;stroke:#1f77b4;" x="68.792188" xlink:href="#m270870893e" y="20.190625"/>
     </g>
    </g>
    <g id="text_18">
     <!-- selectsort -->
     <g transform="translate(86.792188 23.690625)scale(0.1 -0.1)">
      <defs>
       <path d="M 1131 63 
L 581 63 
L 581 4794 
L 1131 4794 
L 1131 63 
z
" id="IPAexGothic-6c" transform="scale(0.015625)"/>
       <path d="M 2309 3316 
L 2213 2769 
Q 2106 2791 2022 2791 
Q 1653 2791 1413 2444 
Q 1113 2006 1113 1675 
L 1113 63 
L 563 63 
L 563 3250 
L 1081 3250 
L 1056 2303 
L 1069 2303 
Q 1422 3341 2097 3341 
Q 2206 3341 2309 3316 
z
" id="IPAexGothic-72" transform="scale(0.015625)"/>
      </defs>
      <use xlink:href="#IPAexGothic-73"/>
      <use x="46.191406" xlink:href="#IPAexGothic-65"/>
      <use x="103.076172" xlink:href="#IPAexGothic-6c"/>
      <use x="130.078125" xlink:href="#IPAexGothic-65"/>
      <use x="186.962891" xlink:href="#IPAexGothic-63"/>
      <use x="241.357422" xlink:href="#IPAexGothic-74"/>
      <use x="275.976562" xlink:href="#IPAexGothic-73"/>
      <use x="322.167969" xlink:href="#IPAexGothic-6f"/>
      <use x="382.568359" xlink:href="#IPAexGothic-72"/>
      <use x="419.580078" xlink:href="#IPAexGothic-74"/>
     </g>
    </g>
    <g id="line2d_69"/>
    <g id="line2d_70">
     <g>
      <use style="fill:#ff7f0e;stroke:#ff7f0e;" x="68.792188" xlink:href="#m2797d93216" y="34.58125"/>
     </g>
    </g>
    <g id="text_19">
     <!-- quicksort -->
     <g transform="translate(86.792188 38.08125)scale(0.1 -0.1)">
      <defs>
       <path d="M 3397 -1216 
L 2847 -1216 
L 2847 556 
Q 2441 -31 1759 -31 
Q 1181 -31 788 372 
Q 313 844 313 1656 
Q 313 2450 788 2925 
Q 1203 3341 1803 3341 
Q 2472 3341 2903 2803 
L 2981 3275 
L 3397 3275 
L 3397 -1216 
z
M 2847 1278 
L 2847 2091 
Q 2847 2272 2650 2509 
Q 2319 2906 1869 2906 
Q 1406 2906 1131 2516 
Q 888 2175 888 1672 
Q 888 1116 1169 756 
Q 1447 409 1853 409 
Q 2334 409 2669 875 
Q 2847 1131 2847 1278 
z
" id="IPAexGothic-71" transform="scale(0.015625)"/>
       <path d="M 3284 63 
L 2772 63 
L 2772 644 
Q 2300 0 1625 0 
Q 1072 0 763 375 
Q 519 678 519 1241 
L 519 3250 
L 1069 3250 
L 1069 1259 
Q 1069 466 1734 466 
Q 2406 466 2734 1291 
L 2734 3250 
L 3284 3250 
L 3284 63 
z
" id="IPAexGothic-75" transform="scale(0.015625)"/>
       <path d="M 3244 63 
L 2578 63 
L 1484 1613 
L 1119 1259 
L 1119 63 
L 581 63 
L 581 4794 
L 1119 4794 
L 1119 1766 
L 2463 3250 
L 3153 3250 
L 1828 1925 
L 3244 63 
z
" id="IPAexGothic-6b" transform="scale(0.015625)"/>
      </defs>
      <use xlink:href="#IPAexGothic-71"/>
      <use x="62.207031" xlink:href="#IPAexGothic-75"/>
      <use x="122.607422" xlink:href="#IPAexGothic-69"/>
      <use x="149.609375" xlink:href="#IPAexGothic-63"/>
      <use x="204.003906" xlink:href="#IPAexGothic-6b"/>
      <use x="255.810547" xlink:href="#IPAexGothic-73"/>
      <use x="302.001953" xlink:href="#IPAexGothic-6f"/>
      <use x="362.402344" xlink:href="#IPAexGothic-72"/>
      <use x="399.414062" xlink:href="#IPAexGothic-74"/>
     </g>
    </g>
   </g>
  </g>
 </g>
 <defs>
  <clipPath id="pe806df41b0">
   <rect height="266.112" width="357.12" x="49.792188" y="7.2"/>
  </clipPath>
 </defs>
</svg>
