<?xml version="1.0" encoding="utf-8" standalone="no"?>
<!DOCTYPE svg PUBLIC "-//W3C//DTD SVG 1.1//EN"
  "http://www.w3.org/Graphics/SVG/1.1/DTD/svg11.dtd">
<svg xmlns:xlink="http://www.w3.org/1999/xlink" width="410.879375pt" height="399.73475pt" viewBox="0 0 410.879375 399.73475" xmlns="http://www.w3.org/2000/svg" version="1.1">
 <metadata>
  <rdf:RDF xmlns:dc="http://purl.org/dc/elements/1.1/" xmlns:cc="http://creativecommons.org/ns#" xmlns:rdf="http://www.w3.org/1999/02/22-rdf-syntax-ns#">
   <cc:Work>
    <dc:type rdf:resource="http://purl.org/dc/dcmitype/StillImage"/>
    <dc:date>2024-07-09T15:30:11.578267</dc:date>
    <dc:format>image/svg+xml</dc:format>
    <dc:creator>
     <cc:Agent>
      <dc:title>Matplotlib v3.9.1, https://matplotlib.org/</dc:title>
     </cc:Agent>
    </dc:creator>
   </cc:Work>
  </rdf:RDF>
 </metadata>
 <defs>
  <style type="text/css">*{stroke-linejoin: round; stroke-linecap: butt}</style>
 </defs>
 <g id="figure_1">
  <g id="patch_1">
   <path d="M 0 399.73475 
L 410.879375 399.73475 
L 410.879375 0 
L 0 0 
z
" style="fill: #ffffff"/>
  </g>
  <g id="axes_1">
   <g id="patch_2">
    <path d="M 46.559375 362.016 
L 403.679375 362.016 
L 403.679375 7.2 
L 46.559375 7.2 
z
" style="fill: #ffffff"/>
   </g>
   <g id="matplotlib.axis_1">
    <g id="xtick_1">
     <g id="line2d_1">
      <defs>
       <path id="ma8eb2ed1e1" d="M 0 0 
L 0 3.5 
" style="stroke: #000000; stroke-width: 0.8"/>
      </defs>
      <g>
       <use xlink:href="#ma8eb2ed1e1" x="56.889292" y="362.016" style="stroke: #000000; stroke-width: 0.8"/>
      </g>
     </g>
     <g id="text_1">
      <!-- 0 -->
      <g transform="translate(53.524449 376.725375) scale(0.1 -0.1)">
       <defs>
        <path id="HiraginoSans-W4-30" d="M 2144 -90 
C 2758 -90 3232 141 3565 602 
C 3846 998 4019 1696 4019 2464 
C 4019 3002 3936 3501 3770 3949 
C 3693 4160 3558 4371 3379 4550 
C 3078 4858 2650 5024 2157 5024 
C 1498 5024 986 4742 666 4205 
C 435 3834 288 3142 288 2458 
C 288 1939 371 1434 538 986 
C 614 768 749 563 928 384 
C 1242 70 1651 -90 2144 -90 
z
M 2144 4499 
C 2592 4499 2918 4307 3123 3923 
C 3283 3629 3398 3014 3398 2470 
C 3398 2022 3341 1619 3213 1235 
C 3155 1043 3046 870 2912 730 
C 2726 538 2458 435 2150 435 
C 1734 435 1414 614 1197 973 
C 1024 1261 902 1875 902 2451 
C 902 2906 966 3328 1088 3699 
C 1139 3866 1235 4026 1370 4173 
C 1568 4397 1818 4499 2144 4499 
z
" transform="scale(0.015625)"/>
       </defs>
       <use xlink:href="#HiraginoSans-W4-30"/>
      </g>
     </g>
    </g>
    <g id="xtick_2">
     <g id="line2d_2">
      <g>
       <use xlink:href="#ma8eb2ed1e1" x="115.917392" y="362.016" style="stroke: #000000; stroke-width: 0.8"/>
      </g>
     </g>
     <g id="text_2">
      <!-- 10 -->
      <g transform="translate(109.187704 376.725375) scale(0.1 -0.1)">
       <defs>
        <path id="HiraginoSans-W4-31" d="M 1018 4371 
C 1222 4397 1389 4410 1606 4410 
L 1939 4410 
L 1939 755 
C 1939 454 1926 237 1888 0 
L 2598 0 
C 2560 250 2547 448 2547 755 
L 2547 3904 
C 2547 4256 2566 4582 2605 4966 
C 2387 4941 2278 4934 2035 4934 
L 1581 4934 
C 1325 4934 1197 4941 1018 4966 
L 1018 4371 
z
" transform="scale(0.015625)"/>
       </defs>
       <use xlink:href="#HiraginoSans-W4-31"/>
       <use xlink:href="#HiraginoSans-W4-30" x="67.299988"/>
      </g>
     </g>
    </g>
    <g id="xtick_3">
     <g id="line2d_3">
      <g>
       <use xlink:href="#ma8eb2ed1e1" x="174.945491" y="362.016" style="stroke: #000000; stroke-width: 0.8"/>
      </g>
     </g>
     <g id="text_3">
      <!-- 20 -->
      <g transform="translate(168.215803 376.725375) scale(0.1 -0.1)">
       <defs>
        <path id="HiraginoSans-W4-32" d="M 3078 0 
C 3424 0 3642 -6 3917 -32 
L 3917 589 
C 3693 557 3430 544 3091 544 
L 1114 544 
C 1280 1114 1606 1478 2451 2042 
C 3181 2528 3341 2656 3546 2912 
C 3738 3142 3846 3443 3846 3744 
C 3846 4525 3200 5030 2202 5030 
C 1613 5030 1158 4858 858 4518 
C 640 4269 531 4026 442 3565 
L 1088 3469 
C 1139 3782 1190 3936 1306 4102 
C 1491 4371 1792 4506 2208 4506 
C 2816 4506 3206 4211 3206 3744 
C 3206 3360 2995 3085 2387 2675 
C 1754 2246 1600 2138 1389 1952 
C 979 1594 710 1229 544 806 
C 448 563 429 461 365 -26 
C 576 -6 678 0 1107 0 
L 3078 0 
z
" transform="scale(0.015625)"/>
       </defs>
       <use xlink:href="#HiraginoSans-W4-32"/>
       <use xlink:href="#HiraginoSans-W4-30" x="67.299988"/>
      </g>
     </g>
    </g>
    <g id="xtick_4">
     <g id="line2d_4">
      <g>
       <use xlink:href="#ma8eb2ed1e1" x="233.97359" y="362.016" style="stroke: #000000; stroke-width: 0.8"/>
      </g>
     </g>
     <g id="text_4">
      <!-- 30 -->
      <g transform="translate(227.243902 376.725375) scale(0.1 -0.1)">
       <defs>
        <path id="HiraginoSans-W4-33" d="M 282 1101 
C 397 768 474 621 621 448 
C 934 90 1434 -96 2112 -96 
C 2720 -96 3213 70 3533 384 
C 3770 614 3904 954 3904 1306 
C 3904 1677 3802 1958 3597 2182 
C 3379 2419 3130 2528 2688 2586 
C 2995 2650 3130 2701 3290 2816 
C 3578 3021 3738 3366 3738 3757 
C 3738 4538 3117 5043 2157 5043 
C 1594 5043 1146 4883 845 4576 
C 666 4390 582 4237 467 3891 
L 1107 3757 
C 1171 3981 1216 4083 1306 4192 
C 1478 4416 1741 4525 2125 4525 
C 2746 4525 3110 4224 3110 3725 
C 3110 3482 3021 3264 2867 3110 
C 2669 2918 2374 2829 1965 2829 
C 1779 2829 1613 2842 1459 2861 
L 1459 2272 
C 1651 2298 1811 2310 2003 2310 
C 2829 2310 3264 1990 3264 1376 
C 3264 794 2816 429 2106 429 
C 1779 429 1510 506 1293 666 
C 1107 800 1024 928 928 1248 
L 282 1101 
z
" transform="scale(0.015625)"/>
       </defs>
       <use xlink:href="#HiraginoSans-W4-33"/>
       <use xlink:href="#HiraginoSans-W4-30" x="67.299988"/>
      </g>
     </g>
    </g>
    <g id="xtick_5">
     <g id="line2d_5">
      <g>
       <use xlink:href="#ma8eb2ed1e1" x="293.001689" y="362.016" style="stroke: #000000; stroke-width: 0.8"/>
      </g>
     </g>
     <g id="text_5">
      <!-- 40 -->
      <g transform="translate(286.261845 376.725375) scale(0.1 -0.1)">
       <defs>
        <path id="HiraginoSans-W4-34" d="M 179 1210 
C 403 1229 589 1235 954 1235 
L 2688 1235 
L 2688 710 
C 2688 410 2675 218 2630 0 
L 3309 0 
C 3270 230 3258 390 3258 704 
L 3258 1235 
L 3494 1235 
C 3763 1235 3910 1222 4154 1190 
L 4154 1798 
C 3917 1766 3750 1754 3494 1754 
L 3258 1754 
L 3258 3853 
C 3258 4358 3264 4544 3296 4934 
L 2701 4934 
C 2560 4704 2445 4550 2214 4269 
L 621 2298 
C 467 2099 326 1939 179 1773 
L 179 1210 
z
M 2688 1747 
L 858 1747 
L 2259 3514 
C 2464 3763 2592 3936 2720 4128 
C 2694 3814 2688 3622 2688 3283 
L 2688 1747 
z
" transform="scale(0.015625)"/>
       </defs>
       <use xlink:href="#HiraginoSans-W4-34"/>
       <use xlink:href="#HiraginoSans-W4-30" x="67.499985"/>
      </g>
     </g>
    </g>
    <g id="xtick_6">
     <g id="line2d_6">
      <g>
       <use xlink:href="#ma8eb2ed1e1" x="352.029788" y="362.016" style="stroke: #000000; stroke-width: 0.8"/>
      </g>
     </g>
     <g id="text_6">
      <!-- 50 -->
      <g transform="translate(345.300101 376.725375) scale(0.1 -0.1)">
       <defs>
        <path id="HiraginoSans-W4-35" d="M 1331 4416 
L 2835 4416 
C 3155 4416 3366 4403 3622 4365 
L 3622 4986 
C 3360 4947 3206 4934 2829 4934 
L 1446 4934 
C 1082 4934 954 4941 762 4966 
C 774 4768 774 4762 774 4742 
C 774 4563 774 4518 749 4307 
L 608 2822 
C 589 2566 570 2445 518 2157 
L 1088 2106 
C 1146 2240 1178 2291 1261 2374 
C 1485 2605 1811 2739 2131 2739 
C 2842 2739 3264 2317 3264 1613 
C 3264 902 2803 435 2106 435 
C 1747 435 1440 563 1235 794 
C 1146 902 1101 986 1037 1171 
L 410 1005 
C 557 685 646 544 813 378 
C 1133 64 1562 -96 2099 -96 
C 3194 -96 3885 576 3885 1638 
C 3885 2605 3245 3238 2272 3238 
C 1830 3238 1472 3098 1158 2803 
C 1197 2982 1197 2982 1203 3091 
L 1331 4416 
z
" transform="scale(0.015625)"/>
       </defs>
       <use xlink:href="#HiraginoSans-W4-35"/>
       <use xlink:href="#HiraginoSans-W4-30" x="67.299988"/>
      </g>
     </g>
    </g>
    <g id="text_7">
     <!-- 順位 -->
     <g transform="translate(215.119375 390.48475) scale(0.1 -0.1)">
      <defs>
       <path id="HiraginoSans-W4-9806" d="M 3795 736 
C 3584 474 3437 333 3155 141 
C 3014 51 2957 19 2714 -96 
C 2707 58 2707 160 2707 474 
L 2707 4454 
C 2707 4902 2714 5050 2739 5216 
L 2253 5216 
C 2272 5037 2285 4877 2285 4454 
L 2285 474 
C 2285 13 2278 -128 2246 -301 
L 2733 -301 
C 2720 -224 2720 -198 2714 -109 
C 2829 -211 2912 -314 3014 -474 
C 3552 -173 3821 45 4198 480 
L 3795 736 
z
M 4243 4685 
C 4192 4486 4115 4275 4019 4058 
L 3674 4058 
C 3386 4058 3283 4064 3123 4083 
C 3136 3923 3149 3731 3149 3482 
L 3149 1376 
C 3149 1158 3136 947 3123 794 
C 3302 806 3443 813 3661 813 
L 5293 813 
C 5510 813 5677 806 5850 787 
C 5830 992 5824 1146 5824 1395 
L 5824 3494 
C 5824 3750 5830 3904 5850 4083 
C 5722 4064 5562 4058 5254 4058 
L 4493 4058 
C 4563 4211 4659 4467 4723 4685 
L 5466 4685 
C 5773 4685 5939 4678 6112 4646 
L 6112 5158 
C 5971 5133 5779 5120 5466 5120 
L 3565 5120 
C 3200 5120 3059 5126 2931 5152 
L 2931 4653 
C 3078 4678 3226 4685 3565 4685 
L 4243 4685 
z
M 3590 3648 
L 5376 3648 
L 5376 3130 
L 3590 3130 
L 3590 3648 
z
M 3590 2726 
L 5376 2726 
L 5376 2195 
L 3590 2195 
L 3590 2726 
z
M 3590 1792 
L 5376 1792 
L 5376 1222 
L 3590 1222 
L 3590 1792 
z
M 557 5222 
C 582 5030 595 4896 595 4563 
L 595 2906 
C 595 2266 550 1574 480 1094 
C 416 678 320 384 141 64 
C 294 -51 294 -51 538 -301 
C 883 410 1024 1312 1024 2861 
L 1024 4563 
C 1024 4922 1030 5056 1056 5222 
L 557 5222 
z
M 1421 5024 
C 1440 4845 1446 4742 1446 4365 
L 1446 1133 
C 1446 838 1434 659 1414 486 
L 1882 486 
C 1862 640 1856 819 1856 1126 
L 1856 4365 
C 1856 4742 1856 4877 1875 5024 
L 1421 5024 
z
M 4685 499 
C 5133 26 5414 -186 5984 -480 
C 6074 -307 6163 -179 6266 -58 
C 5722 179 5427 371 5069 749 
L 4685 499 
z
" transform="scale(0.015625)"/>
       <path id="HiraginoSans-W4-4f4d" d="M 3667 4141 
L 2707 4141 
C 2381 4141 2202 4147 2016 4179 
L 2016 3661 
C 2163 3680 2374 3693 2720 3693 
L 5280 3693 
C 5555 3693 5754 3680 5965 3661 
L 5965 4179 
C 5779 4154 5581 4141 5280 4141 
L 4154 4141 
L 4154 4806 
C 4154 5024 4166 5152 4192 5293 
L 3622 5293 
C 3654 5139 3667 4992 3667 4794 
L 3667 4141 
z
M 2560 301 
C 2234 301 2035 314 1856 339 
L 1856 -198 
C 2061 -166 2278 -154 2573 -154 
L 5440 -154 
C 5728 -154 5965 -166 6157 -198 
L 6157 339 
C 5971 314 5773 301 5453 301 
L 4531 301 
C 4787 954 5050 1734 5229 2406 
C 5376 2957 5376 2957 5453 3206 
L 4883 3360 
C 4800 2618 4435 1306 4038 301 
L 2560 301 
z
M 992 294 
C 992 -45 979 -243 947 -467 
L 1510 -467 
C 1485 -224 1472 -6 1472 282 
L 1472 3718 
C 1696 4192 1786 4416 1971 4915 
C 2022 5069 2022 5075 2093 5261 
L 1562 5414 
C 1530 5197 1440 4864 1318 4550 
C 1037 3827 640 3187 141 2650 
C 250 2509 358 2310 410 2170 
C 672 2477 800 2662 1018 3027 
C 998 2758 992 2522 992 2253 
L 992 294 
z
M 3533 781 
C 3309 1856 3149 2426 2829 3296 
L 2342 3130 
C 2656 2330 2835 1670 3027 634 
L 3533 781 
z
" transform="scale(0.015625)"/>
      </defs>
      <use xlink:href="#HiraginoSans-W4-9806"/>
      <use xlink:href="#HiraginoSans-W4-4f4d" x="99.999985"/>
     </g>
    </g>
   </g>
   <g id="matplotlib.axis_2">
    <g id="ytick_1">
     <g id="line2d_7">
      <defs>
       <path id="m63b5635505" d="M 0 0 
L -3.5 0 
" style="stroke: #000000; stroke-width: 0.8"/>
      </defs>
      <g>
       <use xlink:href="#m63b5635505" x="46.559375" y="293.251025" style="stroke: #000000; stroke-width: 0.8"/>
      </g>
     </g>
     <g id="text_8">
      <!-- $\mathdefault{10^{3}}$ -->
      <g transform="translate(20.959375 297.105713) scale(0.1 -0.1)">
       <use xlink:href="#HiraginoSans-W4-31" transform="translate(0 0.342187)"/>
       <use xlink:href="#HiraginoSans-W4-30" transform="translate(67.299988 0.342187)"/>
       <use xlink:href="#HiraginoSans-W4-33" transform="translate(135.562476 38.842187) scale(0.7)"/>
      </g>
     </g>
    </g>
    <g id="ytick_2">
     <g id="line2d_8">
      <g>
       <use xlink:href="#m63b5635505" x="46.559375" y="215.35313" style="stroke: #000000; stroke-width: 0.8"/>
      </g>
     </g>
     <g id="text_9">
      <!-- $\mathdefault{10^{4}}$ -->
      <g transform="translate(20.959375 219.207817) scale(0.1 -0.1)">
       <use xlink:href="#HiraginoSans-W4-31" transform="translate(0 0.534375)"/>
       <use xlink:href="#HiraginoSans-W4-30" transform="translate(67.299988 0.534375)"/>
       <use xlink:href="#HiraginoSans-W4-34" transform="translate(135.562476 39.034375) scale(0.7)"/>
      </g>
     </g>
    </g>
    <g id="ytick_3">
     <g id="line2d_9">
      <g>
       <use xlink:href="#m63b5635505" x="46.559375" y="137.455234" style="stroke: #000000; stroke-width: 0.8"/>
      </g>
     </g>
     <g id="text_10">
      <!-- $\mathdefault{10^{5}}$ -->
      <g transform="translate(20.959375 141.309922) scale(0.1 -0.1)">
       <use xlink:href="#HiraginoSans-W4-31" transform="translate(0 0.965625)"/>
       <use xlink:href="#HiraginoSans-W4-30" transform="translate(67.299988 0.965625)"/>
       <use xlink:href="#HiraginoSans-W4-35" transform="translate(135.562476 39.465625) scale(0.7)"/>
      </g>
     </g>
    </g>
    <g id="ytick_4">
     <g id="line2d_10">
      <g>
       <use xlink:href="#m63b5635505" x="46.559375" y="59.557339" style="stroke: #000000; stroke-width: 0.8"/>
      </g>
     </g>
     <g id="text_11">
      <!-- $\mathdefault{10^{6}}$ -->
      <g transform="translate(20.959375 63.412027) scale(0.1 -0.1)">
       <defs>
        <path id="HiraginoSans-W4-36" d="M 3846 3994 
C 3706 4301 3616 4442 3462 4602 
C 3187 4877 2784 5024 2304 5024 
C 1683 5024 1222 4794 864 4307 
C 557 3891 371 3162 371 2355 
C 371 1446 614 704 1043 320 
C 1331 58 1773 -90 2253 -90 
C 3277 -90 3968 589 3968 1587 
C 3968 2586 3334 3213 2323 3213 
C 1894 3213 1568 3104 1274 2854 
C 1133 2739 1062 2656 941 2458 
C 979 3085 1043 3392 1210 3763 
C 1434 4262 1798 4518 2285 4518 
C 2765 4518 3040 4314 3238 3821 
L 3846 3994 
z
M 2266 2714 
C 2950 2714 3366 2285 3366 1574 
C 3366 1325 3309 1088 3206 922 
C 3008 614 2643 422 2234 422 
C 1568 422 1069 915 1069 1574 
C 1069 2234 1574 2714 2266 2714 
z
" transform="scale(0.015625)"/>
       </defs>
       <use xlink:href="#HiraginoSans-W4-31" transform="translate(0 0.55)"/>
       <use xlink:href="#HiraginoSans-W4-30" transform="translate(67.299988 0.55)"/>
       <use xlink:href="#HiraginoSans-W4-36" transform="translate(135.562476 39.05) scale(0.7)"/>
      </g>
     </g>
    </g>
    <g id="ytick_5">
     <g id="line2d_11">
      <defs>
       <path id="m8c7edc0fba" d="M 0 0 
L -2 0 
" style="stroke: #000000; stroke-width: 0.6"/>
      </defs>
      <g>
       <use xlink:href="#m8c7edc0fba" x="46.559375" y="347.699318" style="stroke: #000000; stroke-width: 0.6"/>
      </g>
     </g>
    </g>
    <g id="ytick_6">
     <g id="line2d_12">
      <g>
       <use xlink:href="#m8c7edc0fba" x="46.559375" y="333.982179" style="stroke: #000000; stroke-width: 0.6"/>
      </g>
     </g>
    </g>
    <g id="ytick_7">
     <g id="line2d_13">
      <g>
       <use xlink:href="#m8c7edc0fba" x="46.559375" y="324.249715" style="stroke: #000000; stroke-width: 0.6"/>
      </g>
     </g>
    </g>
    <g id="ytick_8">
     <g id="line2d_14">
      <g>
       <use xlink:href="#m8c7edc0fba" x="46.559375" y="316.700628" style="stroke: #000000; stroke-width: 0.6"/>
      </g>
     </g>
    </g>
    <g id="ytick_9">
     <g id="line2d_15">
      <g>
       <use xlink:href="#m8c7edc0fba" x="46.559375" y="310.532576" style="stroke: #000000; stroke-width: 0.6"/>
      </g>
     </g>
    </g>
    <g id="ytick_10">
     <g id="line2d_16">
      <g>
       <use xlink:href="#m8c7edc0fba" x="46.559375" y="305.317562" style="stroke: #000000; stroke-width: 0.6"/>
      </g>
     </g>
    </g>
    <g id="ytick_11">
     <g id="line2d_17">
      <g>
       <use xlink:href="#m8c7edc0fba" x="46.559375" y="300.800111" style="stroke: #000000; stroke-width: 0.6"/>
      </g>
     </g>
    </g>
    <g id="ytick_12">
     <g id="line2d_18">
      <g>
       <use xlink:href="#m8c7edc0fba" x="46.559375" y="296.815438" style="stroke: #000000; stroke-width: 0.6"/>
      </g>
     </g>
    </g>
    <g id="ytick_13">
     <g id="line2d_19">
      <g>
       <use xlink:href="#m8c7edc0fba" x="46.559375" y="269.801422" style="stroke: #000000; stroke-width: 0.6"/>
      </g>
     </g>
    </g>
    <g id="ytick_14">
     <g id="line2d_20">
      <g>
       <use xlink:href="#m8c7edc0fba" x="46.559375" y="256.084284" style="stroke: #000000; stroke-width: 0.6"/>
      </g>
     </g>
    </g>
    <g id="ytick_15">
     <g id="line2d_21">
      <g>
       <use xlink:href="#m8c7edc0fba" x="46.559375" y="246.351819" style="stroke: #000000; stroke-width: 0.6"/>
      </g>
     </g>
    </g>
    <g id="ytick_16">
     <g id="line2d_22">
      <g>
       <use xlink:href="#m8c7edc0fba" x="46.559375" y="238.802733" style="stroke: #000000; stroke-width: 0.6"/>
      </g>
     </g>
    </g>
    <g id="ytick_17">
     <g id="line2d_23">
      <g>
       <use xlink:href="#m8c7edc0fba" x="46.559375" y="232.634681" style="stroke: #000000; stroke-width: 0.6"/>
      </g>
     </g>
    </g>
    <g id="ytick_18">
     <g id="line2d_24">
      <g>
       <use xlink:href="#m8c7edc0fba" x="46.559375" y="227.419667" style="stroke: #000000; stroke-width: 0.6"/>
      </g>
     </g>
    </g>
    <g id="ytick_19">
     <g id="line2d_25">
      <g>
       <use xlink:href="#m8c7edc0fba" x="46.559375" y="222.902216" style="stroke: #000000; stroke-width: 0.6"/>
      </g>
     </g>
    </g>
    <g id="ytick_20">
     <g id="line2d_26">
      <g>
       <use xlink:href="#m8c7edc0fba" x="46.559375" y="218.917542" style="stroke: #000000; stroke-width: 0.6"/>
      </g>
     </g>
    </g>
    <g id="ytick_21">
     <g id="line2d_27">
      <g>
       <use xlink:href="#m8c7edc0fba" x="46.559375" y="191.903527" style="stroke: #000000; stroke-width: 0.6"/>
      </g>
     </g>
    </g>
    <g id="ytick_22">
     <g id="line2d_28">
      <g>
       <use xlink:href="#m8c7edc0fba" x="46.559375" y="178.186388" style="stroke: #000000; stroke-width: 0.6"/>
      </g>
     </g>
    </g>
    <g id="ytick_23">
     <g id="line2d_29">
      <g>
       <use xlink:href="#m8c7edc0fba" x="46.559375" y="168.453924" style="stroke: #000000; stroke-width: 0.6"/>
      </g>
     </g>
    </g>
    <g id="ytick_24">
     <g id="line2d_30">
      <g>
       <use xlink:href="#m8c7edc0fba" x="46.559375" y="160.904838" style="stroke: #000000; stroke-width: 0.6"/>
      </g>
     </g>
    </g>
    <g id="ytick_25">
     <g id="line2d_31">
      <g>
       <use xlink:href="#m8c7edc0fba" x="46.559375" y="154.736785" style="stroke: #000000; stroke-width: 0.6"/>
      </g>
     </g>
    </g>
    <g id="ytick_26">
     <g id="line2d_32">
      <g>
       <use xlink:href="#m8c7edc0fba" x="46.559375" y="149.521771" style="stroke: #000000; stroke-width: 0.6"/>
      </g>
     </g>
    </g>
    <g id="ytick_27">
     <g id="line2d_33">
      <g>
       <use xlink:href="#m8c7edc0fba" x="46.559375" y="145.004321" style="stroke: #000000; stroke-width: 0.6"/>
      </g>
     </g>
    </g>
    <g id="ytick_28">
     <g id="line2d_34">
      <g>
       <use xlink:href="#m8c7edc0fba" x="46.559375" y="141.019647" style="stroke: #000000; stroke-width: 0.6"/>
      </g>
     </g>
    </g>
    <g id="ytick_29">
     <g id="line2d_35">
      <g>
       <use xlink:href="#m8c7edc0fba" x="46.559375" y="114.005631" style="stroke: #000000; stroke-width: 0.6"/>
      </g>
     </g>
    </g>
    <g id="ytick_30">
     <g id="line2d_36">
      <g>
       <use xlink:href="#m8c7edc0fba" x="46.559375" y="100.288493" style="stroke: #000000; stroke-width: 0.6"/>
      </g>
     </g>
    </g>
    <g id="ytick_31">
     <g id="line2d_37">
      <g>
       <use xlink:href="#m8c7edc0fba" x="46.559375" y="90.556028" style="stroke: #000000; stroke-width: 0.6"/>
      </g>
     </g>
    </g>
    <g id="ytick_32">
     <g id="line2d_38">
      <g>
       <use xlink:href="#m8c7edc0fba" x="46.559375" y="83.006942" style="stroke: #000000; stroke-width: 0.6"/>
      </g>
     </g>
    </g>
    <g id="ytick_33">
     <g id="line2d_39">
      <g>
       <use xlink:href="#m8c7edc0fba" x="46.559375" y="76.83889" style="stroke: #000000; stroke-width: 0.6"/>
      </g>
     </g>
    </g>
    <g id="ytick_34">
     <g id="line2d_40">
      <g>
       <use xlink:href="#m8c7edc0fba" x="46.559375" y="71.623876" style="stroke: #000000; stroke-width: 0.6"/>
      </g>
     </g>
    </g>
    <g id="ytick_35">
     <g id="line2d_41">
      <g>
       <use xlink:href="#m8c7edc0fba" x="46.559375" y="67.106425" style="stroke: #000000; stroke-width: 0.6"/>
      </g>
     </g>
    </g>
    <g id="ytick_36">
     <g id="line2d_42">
      <g>
       <use xlink:href="#m8c7edc0fba" x="46.559375" y="63.121751" style="stroke: #000000; stroke-width: 0.6"/>
      </g>
     </g>
    </g>
    <g id="ytick_37">
     <g id="line2d_43">
      <g>
       <use xlink:href="#m8c7edc0fba" x="46.559375" y="36.107736" style="stroke: #000000; stroke-width: 0.6"/>
      </g>
     </g>
    </g>
    <g id="ytick_38">
     <g id="line2d_44">
      <g>
       <use xlink:href="#m8c7edc0fba" x="46.559375" y="22.390597" style="stroke: #000000; stroke-width: 0.6"/>
      </g>
     </g>
    </g>
    <g id="ytick_39">
     <g id="line2d_45">
      <g>
       <use xlink:href="#m8c7edc0fba" x="46.559375" y="12.658133" style="stroke: #000000; stroke-width: 0.6"/>
      </g>
     </g>
    </g>
    <g id="text_12">
     <!-- 票 -->
     <g transform="translate(14.909375 189.608) rotate(-90) scale(0.1 -0.1)">
      <defs>
       <path id="HiraginoSans-W4-7968" d="M 2246 4653 
L 2246 4192 
L 1344 4192 
C 1094 4192 947 4198 774 4218 
C 794 4032 800 3949 800 3731 
L 800 3258 
C 800 3046 794 2963 774 2778 
C 954 2797 1114 2803 1344 2803 
L 5050 2803 
C 5299 2803 5459 2797 5619 2778 
C 5600 2938 5594 3027 5594 3258 
L 5594 3731 
C 5594 3955 5600 4058 5619 4218 
C 5440 4198 5293 4192 5043 4192 
L 4109 4192 
L 4109 4653 
L 5331 4653 
C 5606 4653 5811 4640 5978 4614 
L 5978 5107 
C 5818 5082 5600 5069 5293 5069 
L 1126 5069 
C 819 5069 602 5082 442 5107 
L 442 4614 
C 634 4640 800 4653 1082 4653 
L 2246 4653 
z
M 2694 4653 
L 3661 4653 
L 3661 4192 
L 2694 4192 
L 2694 4653 
z
M 2246 3814 
L 2246 3181 
L 1274 3181 
L 1274 3814 
L 2246 3814 
z
M 2694 3814 
L 3661 3814 
L 3661 3181 
L 2694 3181 
L 2694 3814 
z
M 4109 3814 
L 5120 3814 
L 5120 3181 
L 4109 3181 
L 4109 3814 
z
M 3021 1171 
L 3021 147 
C 3021 0 2989 -19 2739 -19 
C 2522 -19 2304 0 2035 32 
C 2106 -160 2125 -237 2144 -429 
C 2394 -442 2560 -448 2701 -448 
C 3373 -448 3520 -365 3520 26 
L 3520 1171 
L 5312 1171 
C 5581 1171 5773 1158 5958 1133 
L 5958 1626 
C 5773 1600 5581 1587 5312 1587 
L 1082 1587 
C 819 1587 627 1600 435 1626 
L 435 1133 
C 627 1158 826 1171 1082 1171 
L 3021 1171 
z
M 1011 1978 
C 1158 1997 1350 2003 1600 2003 
L 4787 2003 
C 5043 2003 5229 1997 5376 1978 
L 5376 2438 
C 5229 2413 5050 2406 4787 2406 
L 1600 2406 
C 1331 2406 1152 2413 1011 2438 
L 1011 1978 
z
M 1798 1037 
C 1574 762 1453 640 1210 474 
C 966 301 774 198 371 38 
C 538 -102 595 -166 704 -352 
C 1395 -26 1734 230 2202 787 
L 1798 1037 
z
M 4205 755 
C 4730 230 5094 -26 5766 -352 
C 5856 -173 5939 -64 6067 70 
C 5421 326 5043 570 4576 1011 
L 4205 755 
z
" transform="scale(0.015625)"/>
      </defs>
      <use xlink:href="#HiraginoSans-W4-7968"/>
     </g>
    </g>
   </g>
   <g id="line2d_46">
    <defs>
     <path id="m6d9ecff44b" d="M 0 3 
C 0.795609 3 1.55874 2.683901 2.12132 2.12132 
C 2.683901 1.55874 3 0.795609 3 0 
C 3 -0.795609 2.683901 -1.55874 2.12132 -2.12132 
C 1.55874 -2.683901 0.795609 -3 0 -3 
C -0.795609 -3 -1.55874 -2.683901 -2.12132 -2.12132 
C -2.683901 -1.55874 -3 -0.795609 -3 0 
C -3 0.795609 -2.683901 1.55874 -2.12132 2.12132 
C -1.55874 2.683901 -0.795609 3 0 3 
z
" style="stroke: #1f77b4"/>
    </defs>
    <g clip-path="url(#pb8a2374e90)">
     <use xlink:href="#m6d9ecff44b" x="62.792102" y="23.328" style="fill: #1f77b4; stroke: #1f77b4"/>
     <use xlink:href="#m6d9ecff44b" x="68.694912" y="42.444761" style="fill: #1f77b4; stroke: #1f77b4"/>
     <use xlink:href="#m6d9ecff44b" x="74.597722" y="51.119802" style="fill: #1f77b4; stroke: #1f77b4"/>
     <use xlink:href="#m6d9ecff44b" x="80.500532" y="104.142453" style="fill: #1f77b4; stroke: #1f77b4"/>
     <use xlink:href="#m6d9ecff44b" x="86.403342" y="122.707899" style="fill: #1f77b4; stroke: #1f77b4"/>
     <use xlink:href="#m6d9ecff44b" x="92.306152" y="130.807108" style="fill: #1f77b4; stroke: #1f77b4"/>
     <use xlink:href="#m6d9ecff44b" x="98.208962" y="134.170605" style="fill: #1f77b4; stroke: #1f77b4"/>
     <use xlink:href="#m6d9ecff44b" x="104.111772" y="138.758125" style="fill: #1f77b4; stroke: #1f77b4"/>
     <use xlink:href="#m6d9ecff44b" x="110.014582" y="143.515202" style="fill: #1f77b4; stroke: #1f77b4"/>
     <use xlink:href="#m6d9ecff44b" x="115.917392" y="170.141167" style="fill: #1f77b4; stroke: #1f77b4"/>
     <use xlink:href="#m6d9ecff44b" x="121.820201" y="185.98306" style="fill: #1f77b4; stroke: #1f77b4"/>
     <use xlink:href="#m6d9ecff44b" x="127.723011" y="216.43594" style="fill: #1f77b4; stroke: #1f77b4"/>
     <use xlink:href="#m6d9ecff44b" x="133.625821" y="225.50315" style="fill: #1f77b4; stroke: #1f77b4"/>
     <use xlink:href="#m6d9ecff44b" x="139.528631" y="236.080268" style="fill: #1f77b4; stroke: #1f77b4"/>
     <use xlink:href="#m6d9ecff44b" x="145.431441" y="239.666191" style="fill: #1f77b4; stroke: #1f77b4"/>
     <use xlink:href="#m6d9ecff44b" x="151.334251" y="253.428476" style="fill: #1f77b4; stroke: #1f77b4"/>
     <use xlink:href="#m6d9ecff44b" x="157.237061" y="258.892881" style="fill: #1f77b4; stroke: #1f77b4"/>
     <use xlink:href="#m6d9ecff44b" x="163.139871" y="264.504348" style="fill: #1f77b4; stroke: #1f77b4"/>
     <use xlink:href="#m6d9ecff44b" x="169.042681" y="266.979217" style="fill: #1f77b4; stroke: #1f77b4"/>
     <use xlink:href="#m6d9ecff44b" x="174.945491" y="267.323313" style="fill: #1f77b4; stroke: #1f77b4"/>
     <use xlink:href="#m6d9ecff44b" x="180.848301" y="269.214507" style="fill: #1f77b4; stroke: #1f77b4"/>
     <use xlink:href="#m6d9ecff44b" x="186.751111" y="270.640595" style="fill: #1f77b4; stroke: #1f77b4"/>
     <use xlink:href="#m6d9ecff44b" x="192.65392" y="272.751223" style="fill: #1f77b4; stroke: #1f77b4"/>
     <use xlink:href="#m6d9ecff44b" x="198.55673" y="274.376918" style="fill: #1f77b4; stroke: #1f77b4"/>
     <use xlink:href="#m6d9ecff44b" x="204.45954" y="284.873174" style="fill: #1f77b4; stroke: #1f77b4"/>
     <use xlink:href="#m6d9ecff44b" x="210.36235" y="285.973673" style="fill: #1f77b4; stroke: #1f77b4"/>
     <use xlink:href="#m6d9ecff44b" x="216.26516" y="286.192642" style="fill: #1f77b4; stroke: #1f77b4"/>
     <use xlink:href="#m6d9ecff44b" x="222.16797" y="288.434652" style="fill: #1f77b4; stroke: #1f77b4"/>
     <use xlink:href="#m6d9ecff44b" x="228.07078" y="297.04173" style="fill: #1f77b4; stroke: #1f77b4"/>
     <use xlink:href="#m6d9ecff44b" x="233.97359" y="297.498908" style="fill: #1f77b4; stroke: #1f77b4"/>
     <use xlink:href="#m6d9ecff44b" x="239.8764" y="299.432613" style="fill: #1f77b4; stroke: #1f77b4"/>
     <use xlink:href="#m6d9ecff44b" x="245.77921" y="300.29642" style="fill: #1f77b4; stroke: #1f77b4"/>
     <use xlink:href="#m6d9ecff44b" x="251.68202" y="301.140121" style="fill: #1f77b4; stroke: #1f77b4"/>
     <use xlink:href="#m6d9ecff44b" x="257.58483" y="302.579939" style="fill: #1f77b4; stroke: #1f77b4"/>
     <use xlink:href="#m6d9ecff44b" x="263.487639" y="305.755348" style="fill: #1f77b4; stroke: #1f77b4"/>
     <use xlink:href="#m6d9ecff44b" x="269.390449" y="306.49782" style="fill: #1f77b4; stroke: #1f77b4"/>
     <use xlink:href="#m6d9ecff44b" x="275.293259" y="306.849963" style="fill: #1f77b4; stroke: #1f77b4"/>
     <use xlink:href="#m6d9ecff44b" x="281.196069" y="309.862641" style="fill: #1f77b4; stroke: #1f77b4"/>
     <use xlink:href="#m6d9ecff44b" x="287.098879" y="311.216046" style="fill: #1f77b4; stroke: #1f77b4"/>
     <use xlink:href="#m6d9ecff44b" x="293.001689" y="311.796346" style="fill: #1f77b4; stroke: #1f77b4"/>
     <use xlink:href="#m6d9ecff44b" x="298.904499" y="312.149364" style="fill: #1f77b4; stroke: #1f77b4"/>
     <use xlink:href="#m6d9ecff44b" x="304.807309" y="312.866648" style="fill: #1f77b4; stroke: #1f77b4"/>
     <use xlink:href="#m6d9ecff44b" x="310.710119" y="315.308771" style="fill: #1f77b4; stroke: #1f77b4"/>
     <use xlink:href="#m6d9ecff44b" x="316.612929" y="318.011255" style="fill: #1f77b4; stroke: #1f77b4"/>
     <use xlink:href="#m6d9ecff44b" x="322.515739" y="319.083065" style="fill: #1f77b4; stroke: #1f77b4"/>
     <use xlink:href="#m6d9ecff44b" x="328.418549" y="320.567102" style="fill: #1f77b4; stroke: #1f77b4"/>
     <use xlink:href="#m6d9ecff44b" x="334.321358" y="322.841627" style="fill: #1f77b4; stroke: #1f77b4"/>
     <use xlink:href="#m6d9ecff44b" x="340.224168" y="326.795892" style="fill: #1f77b4; stroke: #1f77b4"/>
     <use xlink:href="#m6d9ecff44b" x="346.126978" y="327.720283" style="fill: #1f77b4; stroke: #1f77b4"/>
     <use xlink:href="#m6d9ecff44b" x="352.029788" y="328.670644" style="fill: #1f77b4; stroke: #1f77b4"/>
     <use xlink:href="#m6d9ecff44b" x="357.932598" y="329.450635" style="fill: #1f77b4; stroke: #1f77b4"/>
     <use xlink:href="#m6d9ecff44b" x="363.835408" y="330.860449" style="fill: #1f77b4; stroke: #1f77b4"/>
     <use xlink:href="#m6d9ecff44b" x="369.738218" y="333.312244" style="fill: #1f77b4; stroke: #1f77b4"/>
     <use xlink:href="#m6d9ecff44b" x="375.641028" y="333.75739" style="fill: #1f77b4; stroke: #1f77b4"/>
     <use xlink:href="#m6d9ecff44b" x="381.543838" y="334.322188" style="fill: #1f77b4; stroke: #1f77b4"/>
     <use xlink:href="#m6d9ecff44b" x="387.446648" y="345.888" style="fill: #1f77b4; stroke: #1f77b4"/>
    </g>
   </g>
   <g id="patch_3">
    <path d="M 46.559375 362.016 
L 46.559375 7.2 
" style="fill: none; stroke: #000000; stroke-width: 0.8; stroke-linejoin: miter; stroke-linecap: square"/>
   </g>
   <g id="patch_4">
    <path d="M 403.679375 362.016 
L 403.679375 7.2 
" style="fill: none; stroke: #000000; stroke-width: 0.8; stroke-linejoin: miter; stroke-linecap: square"/>
   </g>
   <g id="patch_5">
    <path d="M 46.559375 362.016 
L 403.679375 362.016 
" style="fill: none; stroke: #000000; stroke-width: 0.8; stroke-linejoin: miter; stroke-linecap: square"/>
   </g>
   <g id="patch_6">
    <path d="M 46.559375 7.2 
L 403.679375 7.2 
" style="fill: none; stroke: #000000; stroke-width: 0.8; stroke-linejoin: miter; stroke-linecap: square"/>
   </g>
   <g id="text_13">
    <!-- 小池 百合子 -->
    <g transform="translate(62.792102 23.328) scale(0.1 -0.1)">
     <defs>
      <path id="HiraginoSans-W4-5c0f" d="M 2899 5242 
C 2925 5056 2938 4851 2938 4557 
L 2938 269 
C 2938 141 2880 109 2650 109 
C 2400 109 2112 141 1715 211 
C 1798 6 1830 -109 1856 -339 
C 2214 -371 2464 -384 2726 -384 
C 3302 -384 3469 -256 3469 198 
L 3469 4550 
C 3469 4858 3482 5069 3507 5242 
L 2899 5242 
z
M 4410 3712 
C 4410 3699 4435 3616 4480 3469 
L 4595 3066 
C 4902 2042 5229 1370 5818 563 
C 5965 723 6042 794 6259 934 
C 5837 1472 5549 1971 5306 2605 
C 5082 3174 4986 3514 4941 3866 
L 4410 3712 
z
M 1363 3834 
C 1344 3571 1286 3264 1178 2880 
C 954 2099 666 1510 198 896 
C 403 787 512 710 666 576 
C 1248 1427 1498 2010 1811 3309 
C 1862 3501 1888 3603 1914 3693 
L 1363 3834 
z
" transform="scale(0.015625)"/>
      <path id="HiraginoSans-W4-6c60" d="M 3840 3072 
L 3840 1517 
C 3840 1248 3834 1088 3808 883 
L 4346 883 
C 4320 1075 4314 1229 4314 1504 
L 4314 3232 
L 5370 3590 
C 5363 2944 5338 2438 5306 2157 
C 5274 1901 5216 1843 4986 1843 
C 4858 1843 4723 1862 4531 1901 
C 4602 1722 4627 1619 4653 1427 
C 4813 1408 4883 1402 5030 1402 
C 5472 1402 5632 1504 5709 1837 
C 5766 2086 5811 2797 5856 4250 
C 5734 4192 5549 4115 5350 4051 
L 4314 3712 
L 4314 4672 
C 4314 4941 4326 5114 4352 5299 
L 3802 5299 
C 3827 5114 3840 4934 3840 4678 
L 3840 3552 
L 2906 3245 
L 2906 4032 
C 2906 4307 2918 4486 2944 4672 
L 2394 4672 
C 2419 4461 2432 4288 2432 4013 
L 2432 3091 
L 2342 3059 
C 2131 2989 1978 2950 1773 2918 
L 1901 2387 
C 2061 2464 2189 2509 2432 2592 
L 2432 307 
C 2432 45 2502 -77 2701 -173 
C 2899 -269 3296 -307 4141 -307 
C 5184 -307 5594 -256 5786 -90 
C 5965 64 6061 352 6138 986 
C 5926 1024 5830 1062 5651 1158 
C 5619 646 5549 378 5427 288 
C 5293 192 4934 154 4102 154 
C 3571 154 3168 179 3059 211 
C 2944 256 2906 314 2906 448 
L 2906 2752 
L 3840 3072 
z
M 570 4896 
C 1030 4589 1184 4454 1587 4026 
L 1914 4403 
C 1549 4768 1293 4979 890 5242 
L 570 4896 
z
M 256 3302 
C 742 3008 992 2810 1350 2458 
L 1638 2874 
C 1293 3181 1024 3379 538 3674 
L 256 3302 
z
M 1286 1901 
C 1018 1024 678 333 352 0 
L 794 -390 
C 851 -282 864 -269 909 -186 
C 1018 0 1056 64 1126 205 
C 1331 608 1485 998 1683 1600 
L 1286 1901 
z
" transform="scale(0.015625)"/>
      <path id="HiraginoSans-W4-20" transform="scale(0.015625)"/>
      <path id="HiraginoSans-W4-767e" d="M 2963 4634 
C 2861 4256 2746 3930 2618 3667 
L 1632 3667 
C 1402 3667 1216 3680 1030 3699 
C 1050 3520 1062 3309 1062 3104 
L 1062 186 
C 1062 -70 1050 -282 1024 -499 
L 1562 -499 
L 1562 -109 
L 4864 -109 
L 4864 -499 
L 5402 -499 
C 5376 -269 5363 -45 5363 186 
L 5363 3098 
C 5363 3315 5376 3520 5395 3699 
C 5203 3680 5018 3667 4774 3667 
L 3142 3667 
C 3264 3936 3386 4275 3494 4634 
L 5325 4634 
C 5587 4634 5818 4621 6029 4595 
L 6029 5126 
C 5824 5101 5600 5088 5325 5088 
L 1082 5088 
C 794 5088 589 5101 378 5126 
L 378 4595 
C 608 4621 806 4634 1082 4634 
L 2963 4634 
z
M 1562 3219 
L 4864 3219 
L 4864 2086 
L 1562 2086 
L 1562 3219 
z
M 1562 1638 
L 4864 1638 
L 4864 339 
L 1562 339 
L 1562 1638 
z
" transform="scale(0.015625)"/>
      <path id="HiraginoSans-W4-5408" d="M 1677 2899 
C 1824 2918 1990 2925 2189 2925 
L 4186 2925 
C 4429 2925 4595 2918 4736 2899 
L 4736 3411 
C 5178 3104 5498 2918 5958 2701 
C 6042 2899 6112 3014 6234 3187 
C 5626 3424 5056 3750 4518 4186 
C 4019 4582 3731 4890 3456 5318 
L 2893 5318 
C 2630 4883 2381 4595 1926 4211 
C 1402 3763 832 3424 198 3162 
C 358 2989 422 2893 493 2720 
C 966 2938 1203 3078 1677 3398 
L 1677 2899 
z
M 2195 3386 
C 1971 3386 1811 3392 1690 3411 
C 2355 3878 2733 4256 3187 4890 
C 3597 4320 4032 3898 4730 3411 
C 4595 3392 4435 3386 4186 3386 
L 2195 3386 
z
M 1690 -435 
L 1690 -77 
L 4698 -77 
L 4698 -435 
L 5242 -435 
C 5216 -243 5203 -58 5203 205 
L 5203 1645 
C 5203 1901 5210 2067 5235 2240 
C 5101 2221 4960 2214 4723 2214 
L 1664 2214 
C 1427 2214 1286 2221 1152 2240 
C 1178 2061 1184 1888 1184 1645 
L 1184 205 
C 1184 -51 1171 -230 1146 -435 
L 1690 -435 
z
M 1690 1766 
L 4698 1766 
L 4698 371 
L 1690 371 
L 1690 1766 
z
" transform="scale(0.015625)"/>
      <path id="HiraginoSans-W4-5b50" d="M 3008 2765 
L 1165 2765 
C 794 2765 570 2778 339 2803 
L 339 2246 
C 589 2272 813 2285 1146 2285 
L 3008 2285 
L 3008 314 
C 3008 166 2950 134 2701 134 
C 2432 134 2163 160 1779 218 
C 1856 13 1875 -70 1907 -326 
C 2349 -358 2509 -365 2694 -365 
C 3354 -365 3526 -243 3526 224 
L 3526 2285 
L 5261 2285 
C 5619 2285 5818 2278 6061 2246 
L 6061 2803 
C 5837 2771 5645 2765 5254 2765 
L 3526 2765 
L 3526 3213 
C 4173 3584 4602 3891 4973 4230 
C 5331 4557 5331 4557 5523 4730 
L 5216 5069 
C 5101 5050 4979 5043 4704 5043 
L 1702 5043 
C 1421 5043 1222 5056 1018 5082 
L 1018 4538 
C 1203 4563 1421 4576 1702 4576 
L 4640 4576 
C 4141 4115 3834 3891 3296 3590 
L 2989 3590 
C 3002 3462 3008 3322 3008 3149 
L 3008 2765 
z
" transform="scale(0.015625)"/>
     </defs>
     <use xlink:href="#HiraginoSans-W4-5c0f"/>
     <use xlink:href="#HiraginoSans-W4-6c60" x="99.999985"/>
     <use xlink:href="#HiraginoSans-W4-20" x="199.999969"/>
     <use xlink:href="#HiraginoSans-W4-767e" x="233.299957"/>
     <use xlink:href="#HiraginoSans-W4-5408" x="333.299942"/>
     <use xlink:href="#HiraginoSans-W4-5b50" x="433.299927"/>
    </g>
   </g>
   <g id="text_14">
    <!-- 石丸 伸二 -->
    <g transform="translate(68.694912 42.444761) scale(0.1 -0.1)">
     <defs>
      <path id="HiraginoSans-W4-77f3" d="M 2317 4486 
C 2157 3917 1997 3546 1734 3104 
C 1312 2406 794 1862 154 1434 
C 301 1293 397 1158 486 966 
C 992 1370 1274 1658 1619 2138 
C 1606 1952 1606 1875 1606 1677 
L 1606 314 
C 1606 70 1587 -147 1562 -352 
L 2106 -352 
L 2106 38 
L 4966 38 
L 4966 -358 
L 5510 -358 
C 5485 -166 5472 64 5472 307 
L 5472 2323 
C 5472 2522 5485 2771 5504 2957 
C 5318 2931 5146 2925 4864 2925 
L 2176 2925 
C 2515 3488 2669 3853 2848 4486 
L 5197 4486 
C 5510 4486 5728 4474 5971 4442 
L 5971 4992 
C 5754 4960 5555 4947 5197 4947 
L 1242 4947 
C 864 4947 659 4960 454 4992 
L 454 4442 
C 736 4480 883 4486 1248 4486 
L 2317 4486 
z
M 2106 2464 
L 4973 2464 
L 4973 506 
L 2106 506 
L 2106 2464 
z
" transform="scale(0.015625)"/>
      <path id="HiraginoSans-W4-4e38" d="M 1120 2694 
C 1517 2445 1747 2266 2195 1894 
C 1850 1062 1274 486 282 -32 
C 454 -179 531 -275 653 -474 
C 1594 102 2221 755 2579 1555 
C 2886 1274 3091 1069 3418 704 
L 3712 1139 
C 3386 1478 3194 1658 2758 2035 
C 2906 2528 2982 3021 3021 3667 
L 4301 3667 
L 4275 186 
C 4269 -160 4352 -282 4614 -326 
C 4736 -346 4934 -358 5158 -358 
C 5677 -358 5856 -320 5978 -173 
C 6125 6 6202 403 6240 1229 
C 6029 1286 5990 1299 5760 1427 
C 5760 890 5722 435 5664 269 
C 5619 141 5530 115 5152 115 
C 5043 115 4954 122 4890 141 
C 4794 160 4768 198 4768 307 
L 4794 3616 
C 4800 3866 4806 4026 4826 4173 
C 4595 4147 4410 4141 4090 4141 
L 3040 4141 
C 3053 4403 3053 4557 3053 4774 
C 3059 5018 3066 5139 3098 5312 
L 2509 5312 
C 2547 5094 2554 4960 2554 4506 
C 2554 4352 2554 4288 2554 4141 
L 1312 4141 
C 986 4141 819 4147 621 4179 
L 621 3629 
C 832 3661 992 3667 1325 3667 
L 2534 3667 
C 2496 3104 2445 2733 2355 2368 
C 2016 2637 1811 2790 1427 3046 
L 1120 2694 
z
" transform="scale(0.015625)"/>
      <path id="HiraginoSans-W4-4f38" d="M 3731 4339 
L 2733 4339 
C 2413 4339 2234 4346 2093 4365 
C 2112 4192 2118 4051 2118 3821 
L 2118 1677 
C 2118 1331 2106 1165 2086 986 
L 2579 986 
L 2579 1357 
L 3731 1357 
L 3731 218 
C 3731 -102 3718 -294 3693 -512 
L 4230 -512 
C 4198 -301 4192 -102 4192 230 
L 4192 1357 
L 5434 1357 
L 5434 992 
L 5933 992 
C 5907 1178 5901 1312 5901 1677 
L 5901 3821 
C 5901 4090 5907 4211 5926 4365 
C 5779 4346 5594 4339 5280 4339 
L 4192 4339 
L 4192 4621 
C 4192 4941 4198 5133 4230 5344 
L 3693 5344 
C 3718 5146 3731 4934 3731 4627 
L 3731 4339 
z
M 3731 3904 
L 3731 3085 
L 2579 3085 
L 2579 3904 
L 3731 3904 
z
M 3731 2662 
L 3731 1798 
L 2579 1798 
L 2579 2662 
L 3731 2662 
z
M 4192 1798 
L 4192 2662 
L 5440 2662 
L 5440 1798 
L 4192 1798 
z
M 4192 3085 
L 4192 3904 
L 5440 3904 
L 5440 3085 
L 4192 3085 
z
M 1504 3814 
C 1664 4109 1875 4582 1984 4877 
C 2035 5037 2042 5043 2112 5216 
L 1587 5389 
C 1555 5178 1453 4838 1312 4499 
C 1024 3808 640 3213 160 2720 
C 301 2522 320 2483 422 2234 
C 710 2566 864 2784 1050 3104 
C 1030 2790 1024 2579 1024 2342 
L 1024 282 
C 1024 -64 1011 -243 979 -480 
L 1542 -480 
C 1517 -250 1504 -26 1504 269 
L 1504 3814 
z
" transform="scale(0.015625)"/>
      <path id="HiraginoSans-W4-4e8c" d="M 1011 4000 
C 1229 4026 1472 4038 1856 4038 
L 4493 4038 
C 4896 4038 5082 4032 5344 4000 
L 5344 4602 
C 5120 4570 4922 4563 4493 4563 
L 1850 4563 
C 1485 4563 1235 4576 1011 4608 
L 1011 4000 
z
M 5971 883 
C 5709 851 5510 838 5088 838 
L 1306 838 
C 877 838 678 851 429 883 
L 429 262 
C 678 294 941 307 1312 307 
L 5101 307 
C 5478 307 5728 294 5971 262 
L 5971 883 
z
" transform="scale(0.015625)"/>
     </defs>
     <use xlink:href="#HiraginoSans-W4-77f3"/>
     <use xlink:href="#HiraginoSans-W4-4e38" x="99.999985"/>
     <use xlink:href="#HiraginoSans-W4-20" x="199.999969"/>
     <use xlink:href="#HiraginoSans-W4-4f38" x="233.299957"/>
     <use xlink:href="#HiraginoSans-W4-4e8c" x="333.299942"/>
    </g>
   </g>
   <g id="text_15">
    <!-- 蓮舫 -->
    <g transform="translate(74.597722 51.119802) scale(0.1 -0.1)">
     <defs>
      <path id="HiraginoSans-W4-84ee" d="M 3699 3168 
L 2797 3168 
C 2534 3168 2419 3174 2285 3187 
C 2304 3053 2304 2976 2304 2669 
L 2304 1856 
C 2304 1562 2304 1478 2285 1363 
C 2432 1382 2592 1389 2854 1389 
L 3699 1389 
L 3699 1030 
L 2573 1030 
C 2323 1030 2163 1043 1997 1069 
L 1997 621 
C 2163 646 2310 653 2573 653 
L 3699 653 
C 3693 422 3686 390 3667 237 
L 4160 237 
C 4141 358 4134 461 4128 653 
L 5357 653 
C 5645 653 5850 640 6003 621 
L 6003 1069 
C 5843 1043 5632 1030 5357 1030 
L 4128 1030 
L 4128 1389 
L 5030 1389 
C 5318 1389 5459 1382 5600 1370 
C 5587 1549 5581 1651 5581 1856 
L 5581 2669 
C 5581 2970 5587 3059 5600 3187 
C 5485 3174 5357 3168 5075 3168 
L 4128 3168 
L 4128 3494 
L 5267 3494 
C 5536 3494 5741 3482 5914 3456 
L 5914 3904 
C 5747 3878 5542 3866 5267 3866 
L 4128 3866 
C 4128 3987 4134 4064 4147 4154 
L 4467 4154 
C 4454 4256 4448 4314 4448 4486 
L 5408 4486 
C 5683 4486 5875 4474 6061 4448 
L 6061 4934 
C 5875 4909 5683 4896 5395 4896 
L 4448 4896 
L 4448 4960 
C 4448 5139 4454 5242 4474 5357 
L 3962 5357 
C 3981 5242 3987 5133 3987 4960 
L 3987 4896 
L 2400 4896 
L 2400 4966 
C 2400 5146 2406 5242 2426 5363 
L 1920 5363 
C 1939 5254 1946 5133 1946 4966 
L 1946 4896 
L 1043 4896 
C 755 4896 550 4909 365 4934 
L 365 4448 
C 570 4474 755 4486 1030 4486 
L 1946 4486 
C 1946 4301 1939 4218 1920 4096 
L 2426 4096 
C 2406 4205 2400 4294 2400 4486 
L 3987 4486 
C 3987 4339 3981 4282 3974 4218 
L 3674 4218 
C 3693 4083 3699 4032 3699 3866 
L 2598 3866 
C 2342 3866 2195 3872 2016 3904 
L 2016 3456 
C 2195 3482 2355 3494 2598 3494 
L 3699 3494 
L 3699 3168 
z
M 3699 2822 
L 3699 2458 
L 2733 2458 
L 2733 2822 
L 3699 2822 
z
M 3699 2118 
L 3699 1734 
L 2733 1734 
L 2733 2118 
L 3699 2118 
z
M 4128 1734 
L 4128 2118 
L 5139 2118 
L 5139 1734 
L 4128 1734 
z
M 4128 2458 
L 4128 2822 
L 5139 2822 
L 5139 2458 
L 4128 2458 
z
M 480 3846 
C 890 3494 1114 3258 1427 2842 
L 1786 3187 
C 1421 3603 1171 3846 806 4154 
L 480 3846 
z
M 1677 1760 
C 1677 2067 1683 2202 1702 2374 
C 1581 2362 1459 2355 1235 2355 
L 806 2355 
C 595 2355 486 2362 346 2387 
L 346 1920 
C 480 1946 595 1952 768 1952 
L 1216 1952 
L 1216 800 
C 954 525 576 243 294 109 
L 538 -378 
C 634 -294 672 -256 710 -224 
C 1024 26 1261 243 1427 422 
C 1658 83 1882 -96 2234 -211 
C 2586 -333 2982 -365 4013 -365 
C 4659 -365 5363 -352 6054 -320 
C 6093 -102 6118 -19 6214 198 
C 5568 122 4781 90 3642 90 
C 2899 90 2534 134 2227 262 
C 1971 371 1843 499 1677 806 
L 1677 1760 
z
" transform="scale(0.015625)"/>
      <path id="HiraginoSans-W4-822b" d="M 1325 3904 
C 1530 3558 1626 3322 1722 2970 
L 2093 3130 
C 1952 3520 1850 3731 1645 4064 
L 1325 3904 
z
M 314 2029 
C 378 2048 589 2080 723 2099 
C 672 979 557 429 275 -77 
C 448 -192 493 -230 646 -416 
C 979 237 1101 870 1152 2150 
C 1280 2163 1306 2170 1478 2195 
L 1478 1197 
C 1478 966 1466 826 1440 646 
L 1888 646 
C 1869 826 1862 960 1862 1197 
L 1862 2253 
C 2016 2278 2144 2298 2240 2317 
L 2240 262 
C 2240 115 2214 83 2093 83 
C 1875 83 1690 102 1434 160 
C 1498 -19 1517 -128 1530 -333 
C 1741 -346 1888 -352 2048 -352 
C 2483 -352 2598 -294 2650 -58 
C 2765 -160 2810 -218 2963 -467 
C 3354 -32 3571 326 3757 851 
C 3923 1312 4000 1715 4070 2477 
L 5299 2477 
C 5293 1747 5229 1088 5133 557 
C 5062 205 4973 122 4666 122 
C 4448 122 4205 147 3917 205 
C 3987 19 4019 -115 4045 -301 
C 4352 -326 4538 -339 4685 -339 
C 5216 -339 5402 -224 5530 205 
C 5645 582 5734 1414 5773 2573 
C 5779 2765 5786 2810 5798 2931 
C 5606 2912 5472 2906 5235 2906 
L 4102 2906 
C 4122 3219 4128 3392 4128 3616 
C 4128 3654 4128 3699 4122 3853 
L 5440 3853 
C 5747 3853 5920 3846 6106 3814 
L 6106 4339 
C 5914 4307 5741 4294 5427 4294 
L 4550 4294 
L 4550 4800 
C 4550 5030 4563 5203 4589 5363 
L 4045 5363 
C 4070 5184 4083 5030 4083 4800 
L 4083 4294 
L 3507 4294 
C 3187 4294 3014 4301 2835 4333 
L 2835 3821 
C 3008 3846 3174 3853 3501 3853 
L 3661 3853 
C 3648 2752 3610 2227 3494 1664 
C 3334 870 3130 454 2656 -13 
C 2662 58 2669 90 2669 141 
L 2669 2387 
C 2880 2426 2880 2426 3034 2458 
L 3021 2886 
C 2758 2835 2758 2835 2669 2816 
L 2669 4179 
C 2669 4397 2675 4589 2688 4730 
C 2534 4710 2400 4704 2176 4704 
L 1837 4704 
C 1920 4890 1920 4890 2112 5363 
L 1619 5459 
C 1555 5165 1491 4960 1376 4704 
L 1254 4704 
C 1011 4704 890 4710 723 4730 
C 749 4461 755 4134 755 3360 
C 755 3136 749 2822 736 2554 
C 461 2528 435 2528 243 2528 
L 314 2029 
z
M 1184 4301 
L 2240 4301 
L 2240 2746 
C 1875 2682 1555 2643 1171 2598 
C 1184 3168 1184 3341 1184 3885 
L 1184 4301 
z
" transform="scale(0.015625)"/>
     </defs>
     <use xlink:href="#HiraginoSans-W4-84ee"/>
     <use xlink:href="#HiraginoSans-W4-822b" x="99.999985"/>
    </g>
   </g>
   <g id="text_16">
    <!-- 田母神 俊雄 -->
    <g transform="translate(80.500532 104.142453) scale(0.1 -0.1)">
     <defs>
      <path id="HiraginoSans-W4-7530" d="M 5798 -403 
C 5773 -186 5760 51 5760 358 
L 5760 4346 
C 5760 4602 5766 4787 5792 4992 
C 5549 4966 5344 4960 5056 4960 
L 1357 4960 
C 1075 4960 870 4966 627 4992 
C 653 4774 659 4582 659 4339 
L 659 358 
C 659 51 646 -173 621 -403 
L 1146 -403 
L 1146 -26 
L 5267 -26 
L 5267 -403 
L 5798 -403 
z
M 1146 4512 
L 2899 4512 
L 2899 2758 
L 1146 2758 
L 1146 4512 
z
M 3386 4512 
L 5267 4512 
L 5267 2758 
L 3386 2758 
L 3386 4512 
z
M 1146 2317 
L 2899 2317 
L 2899 422 
L 1146 422 
L 1146 2317 
z
M 3386 2317 
L 5267 2317 
L 5267 422 
L 3386 422 
L 3386 2317 
z
" transform="scale(0.015625)"/>
      <path id="HiraginoSans-W4-6bcd" d="M 4019 3475 
C 3680 3853 3443 4070 2957 4435 
L 2579 4160 
C 3078 3782 3309 3558 3642 3136 
L 4019 3475 
z
M 3789 1453 
C 3379 1926 3219 2074 2714 2483 
L 2330 2202 
C 2829 1805 3066 1562 3405 1114 
L 3789 1453 
z
M 4550 531 
C 4499 294 4461 186 4422 122 
C 4371 38 4262 0 4070 0 
C 3795 0 3654 13 3238 64 
C 3322 -134 3360 -256 3386 -429 
C 3610 -448 3872 -461 4083 -461 
C 4768 -461 4877 -346 5050 531 
L 5402 531 
C 5651 531 5786 525 5952 499 
L 5952 1005 
C 5805 979 5683 973 5421 973 
L 5126 973 
C 5197 1440 5248 1939 5299 2592 
L 5510 2592 
C 5779 2592 5990 2579 6170 2554 
L 6170 3072 
C 5984 3046 5792 3034 5510 3034 
L 5331 3034 
C 5338 3168 5338 3200 5344 3309 
C 5414 4762 5414 4762 5446 5011 
C 5312 4992 5190 4986 4902 4986 
L 1824 4986 
C 1600 4986 1498 4992 1363 5011 
C 1370 4890 1370 4877 1370 4826 
C 1370 4499 1293 3738 1197 3034 
L 902 3034 
C 621 3034 429 3046 237 3072 
L 237 2554 
C 429 2579 640 2592 902 2592 
L 1126 2592 
C 973 1619 794 915 518 134 
L 1043 77 
C 1114 307 1133 358 1184 531 
L 4550 531 
z
M 1690 3034 
C 1786 3706 1798 3853 1862 4550 
L 4928 4550 
C 4902 3853 4890 3546 4858 3034 
L 1690 3034 
z
M 4826 2592 
C 4768 1888 4723 1478 4640 973 
L 1299 973 
C 1446 1562 1542 2029 1626 2592 
L 4826 2592 
z
" transform="scale(0.015625)"/>
      <path id="HiraginoSans-W4-795e" d="M 1702 2195 
C 1920 1946 2067 1805 2413 1530 
C 2477 1690 2534 1798 2650 1952 
C 2272 2214 1997 2445 1779 2701 
C 2054 3072 2259 3424 2470 3878 
C 2522 4000 2522 4006 2554 4051 
L 2330 4301 
C 2266 4288 2163 4282 1971 4282 
L 1702 4282 
L 1702 4858 
C 1702 5050 1715 5242 1734 5363 
L 1190 5363 
C 1210 5216 1229 5018 1229 4864 
L 1229 4282 
L 883 4282 
C 659 4282 550 4288 410 4314 
L 410 3821 
C 557 3840 717 3853 915 3853 
L 1958 3853 
C 1581 3008 960 2266 186 1734 
C 294 1587 339 1510 435 1286 
C 787 1568 960 1728 1235 2029 
L 1235 224 
C 1235 -70 1222 -320 1197 -486 
L 1734 -486 
C 1709 -269 1702 -64 1702 224 
L 1702 2195 
z
M 4019 4365 
L 3309 4365 
C 2970 4365 2816 4371 2675 4390 
C 2694 4211 2701 4077 2701 3808 
L 2701 1626 
C 2701 1350 2688 1184 2669 1018 
L 3155 1018 
L 3155 1414 
L 4019 1414 
L 4019 243 
C 4019 -64 4006 -262 3981 -493 
L 4518 -493 
C 4486 -294 4480 -64 4480 256 
L 4480 1414 
L 5421 1414 
L 5421 1050 
L 5907 1050 
C 5888 1229 5882 1402 5882 1670 
L 5882 3808 
C 5882 4122 5882 4237 5907 4390 
C 5754 4371 5606 4365 5274 4365 
L 4480 4365 
L 4480 4678 
C 4480 4966 4486 5139 4518 5363 
L 3981 5363 
C 4006 5165 4019 4960 4019 4685 
L 4019 4365 
z
M 4019 3936 
L 4019 3130 
L 3155 3130 
L 3155 3936 
L 4019 3936 
z
M 4019 2714 
L 4019 1843 
L 3155 1843 
L 3155 2714 
L 4019 2714 
z
M 4480 1843 
L 4480 2714 
L 5427 2714 
L 5427 1843 
L 4480 1843 
z
M 4480 3130 
L 4480 3936 
L 5427 3936 
L 5427 3130 
L 4480 3130 
z
" transform="scale(0.015625)"/>
      <path id="HiraginoSans-W4-4fca" d="M 4083 2931 
C 4083 2643 4256 2573 4954 2573 
C 5901 2573 5990 2643 6054 3392 
C 5882 3424 5754 3462 5619 3533 
C 5619 3213 5594 3078 5523 3027 
C 5472 2989 5312 2970 5050 2970 
C 4621 2970 4531 2995 4531 3098 
L 4531 3878 
C 4902 3917 5165 3949 5318 3962 
C 5434 3834 5459 3795 5606 3616 
L 6016 3910 
C 5350 4576 5293 4634 4717 5075 
L 4358 4838 
C 4710 4557 4806 4474 4973 4326 
C 4179 4250 4013 4237 3206 4205 
C 3405 4486 3616 4838 3834 5254 
L 3315 5370 
C 3181 4986 3002 4627 2694 4186 
C 2502 4179 2438 4179 2342 4179 
C 2214 4179 2131 4179 1958 4192 
L 2016 3712 
C 2150 3731 2221 3731 2534 3744 
C 2643 3744 2733 3750 2944 3763 
C 2886 3507 2835 3379 2720 3219 
C 2502 2918 2234 2746 1728 2605 
C 1862 2445 1920 2355 1984 2189 
C 2214 2272 2310 2317 2438 2387 
C 2752 2560 3002 2803 3181 3098 
C 3302 3309 3347 3430 3430 3789 
C 3744 3814 3910 3827 4083 3840 
L 4083 2931 
z
M 3558 2099 
C 3667 2266 3731 2362 3885 2624 
L 3411 2778 
C 3232 2374 3053 2118 2739 1811 
C 2438 1517 2144 1306 1709 1075 
C 1843 947 1914 851 2003 691 
C 2419 947 2637 1101 2906 1350 
C 3136 1043 3296 877 3610 621 
C 3014 262 2490 83 1658 -32 
C 1786 -198 1824 -275 1901 -486 
C 2739 -320 3366 -77 4000 339 
C 4544 -19 5171 -275 5997 -486 
C 6054 -282 6118 -141 6227 13 
C 5530 134 4973 320 4397 634 
C 4768 947 5005 1210 5261 1606 
C 5344 1741 5344 1747 5440 1882 
L 5184 2125 
C 5075 2106 4928 2099 4691 2099 
L 3558 2099 
z
M 4774 1715 
C 4531 1350 4365 1171 4000 883 
C 3648 1133 3475 1299 3200 1645 
C 3219 1670 3238 1690 3258 1715 
L 4774 1715 
z
M 979 262 
C 979 -83 966 -269 934 -499 
L 1485 -499 
C 1466 -275 1453 -38 1453 250 
L 1453 3757 
C 1632 4070 1837 4518 1971 4877 
C 2054 5101 2054 5101 2099 5203 
L 1562 5363 
C 1530 5165 1440 4864 1306 4550 
C 1005 3808 621 3219 128 2726 
C 262 2534 294 2483 390 2240 
C 672 2566 800 2746 1005 3098 
C 986 2739 979 2586 979 2323 
L 979 262 
z
" transform="scale(0.015625)"/>
      <path id="HiraginoSans-W4-96c4" d="M 4947 269 
L 4947 1248 
L 5299 1248 
C 5606 1248 5728 1242 5882 1216 
L 5882 1702 
C 5747 1683 5562 1670 5306 1670 
L 4947 1670 
L 4947 2573 
L 5306 2573 
C 5562 2573 5760 2560 5875 2541 
L 5875 3027 
C 5734 3008 5568 2995 5299 2995 
L 4947 2995 
L 4947 3840 
L 5382 3840 
C 5677 3840 5875 3834 6022 3808 
L 6022 4314 
C 5856 4288 5658 4275 5382 4275 
L 4986 4275 
C 5126 4518 5261 4826 5402 5203 
L 4922 5318 
C 4826 4922 4723 4666 4512 4275 
L 3712 4275 
C 3853 4550 3930 4723 4026 4979 
C 4090 5146 4096 5158 4147 5274 
L 3635 5402 
C 3616 5267 3578 5126 3507 4922 
C 3258 4198 2976 3718 2502 3168 
C 2637 3053 2720 2950 2810 2765 
C 2938 2944 3008 3040 3021 3053 
C 3155 3290 3155 3290 3206 3379 
C 3187 2982 3187 2938 3187 2675 
L 3187 147 
C 3187 -147 3174 -339 3149 -512 
L 3635 -512 
L 3635 -166 
L 5459 -166 
C 5747 -166 5920 -173 6093 -198 
L 6093 307 
C 5939 275 5792 269 5466 269 
L 4947 269 
z
M 3635 2995 
L 3635 3840 
L 4499 3840 
L 4499 2995 
L 3635 2995 
z
M 3635 2573 
L 4499 2573 
L 4499 1670 
L 3635 1670 
L 3635 2573 
z
M 3635 1248 
L 4499 1248 
L 4499 269 
L 3635 269 
L 3635 1248 
z
M 3117 19 
C 2925 800 2803 1178 2515 1869 
L 2144 1728 
C 2323 1274 2394 1082 2490 717 
C 2214 634 1952 576 1670 525 
C 1882 1075 2131 1978 2298 2790 
C 2330 2938 2330 2938 2381 3130 
L 1901 3251 
C 1882 2662 1613 1562 1229 454 
C 1114 435 1024 429 890 422 
L 979 -77 
C 1082 -51 1165 -32 1286 -6 
C 1811 90 2189 186 2592 314 
C 2630 154 2643 70 2688 -154 
L 3117 19 
z
M 902 4256 
C 634 4256 499 4262 339 4288 
L 339 3782 
C 493 3808 653 3814 902 3814 
L 1152 3814 
C 1075 3142 998 2675 864 2118 
C 666 1267 486 755 160 128 
C 288 45 397 -64 544 -250 
C 1062 845 1427 2234 1606 3814 
L 2253 3814 
C 2490 3814 2643 3808 2797 3782 
L 2797 4288 
C 2630 4262 2502 4256 2234 4256 
L 1658 4256 
C 1722 4890 1760 5235 1773 5286 
L 1222 5312 
C 1235 5216 1242 5184 1242 5101 
C 1242 4909 1222 4582 1197 4256 
L 902 4256 
z
" transform="scale(0.015625)"/>
     </defs>
     <use xlink:href="#HiraginoSans-W4-7530"/>
     <use xlink:href="#HiraginoSans-W4-6bcd" x="99.999985"/>
     <use xlink:href="#HiraginoSans-W4-795e" x="199.999969"/>
     <use xlink:href="#HiraginoSans-W4-20" x="299.999954"/>
     <use xlink:href="#HiraginoSans-W4-4fca" x="333.299942"/>
     <use xlink:href="#HiraginoSans-W4-96c4" x="433.299927"/>
    </g>
   </g>
   <g id="text_17">
    <!-- 安野 貴博 -->
    <g transform="translate(86.403342 122.707899) scale(0.1 -0.1)">
     <defs>
      <path id="HiraginoSans-W4-5b89" d="M 5350 2566 
C 5638 2566 5830 2554 6016 2528 
L 6016 3059 
C 5843 3027 5664 3021 5350 3021 
L 2758 3021 
L 2835 3181 
C 2944 3405 3021 3571 3066 3667 
C 3123 3789 3123 3789 3181 3917 
L 2637 4019 
C 2573 3744 2470 3488 2227 3021 
L 1094 3021 
C 774 3021 608 3027 435 3059 
L 435 2528 
C 621 2554 813 2566 1094 2566 
L 1978 2566 
C 1722 2138 1542 1875 1158 1395 
C 1952 1197 2266 1101 2899 864 
C 2650 691 2432 576 2170 474 
C 1581 250 1114 122 422 13 
C 550 -154 621 -282 691 -467 
C 1491 -301 2182 -70 2726 211 
C 2982 346 3174 474 3411 659 
C 4211 326 4787 26 5517 -435 
L 5888 -6 
C 4992 474 4627 646 3770 992 
C 4198 1440 4416 1824 4678 2566 
L 5350 2566 
z
M 4154 2566 
C 4006 2131 3936 1997 3750 1715 
C 3603 1498 3482 1357 3296 1178 
C 2931 1312 2522 1446 1920 1619 
C 2189 2010 2291 2163 2515 2566 
L 4154 2566 
z
M 2886 4659 
L 1210 4659 
C 928 4659 730 4666 506 4691 
C 525 4538 538 4371 538 4205 
L 538 3808 
C 538 3642 525 3494 506 3354 
L 1018 3354 
L 1018 4211 
L 5389 4211 
L 5389 3354 
L 5894 3354 
C 5869 3501 5862 3642 5862 3808 
L 5862 4205 
C 5862 4384 5869 4531 5888 4691 
C 5670 4666 5466 4659 5190 4659 
L 3392 4659 
L 3392 4806 
C 3392 5024 3398 5171 3424 5325 
L 2848 5325 
C 2874 5165 2886 5018 2886 4806 
L 2886 4659 
z
" transform="scale(0.015625)"/>
      <path id="HiraginoSans-W4-91ce" d="M 1651 2387 
L 1651 1728 
L 1043 1728 
C 800 1728 627 1734 467 1760 
L 467 1274 
C 646 1299 794 1306 1037 1306 
L 1651 1306 
L 1651 474 
C 1030 384 659 346 326 346 
L 435 -192 
C 608 -147 685 -134 947 -96 
C 1792 38 2374 154 3322 371 
L 3309 794 
C 2746 659 2515 614 2086 544 
L 2086 1306 
L 2714 1306 
C 2976 1306 3098 1299 3277 1274 
L 3277 1760 
C 3098 1734 2963 1728 2714 1728 
L 2086 1728 
L 2086 2387 
L 2650 2387 
C 2899 2387 3091 2381 3206 2362 
C 3194 2496 3187 2650 3187 2950 
L 3187 4461 
C 3187 4730 3194 4909 3206 5050 
C 3059 5030 2906 5024 2624 5024 
L 1158 5024 
C 934 5024 749 5030 557 5050 
C 576 4890 582 4723 582 4461 
L 582 2976 
C 582 2733 576 2515 557 2362 
C 685 2381 890 2387 1133 2387 
L 1651 2387 
z
M 1651 4608 
L 1651 3917 
L 998 3917 
L 998 4608 
L 1651 4608 
z
M 2086 4608 
L 2771 4608 
L 2771 3917 
L 2086 3917 
L 2086 4608 
z
M 1651 3520 
L 1651 2790 
L 998 2790 
L 998 3520 
L 1651 3520 
z
M 2086 3520 
L 2771 3520 
L 2771 2790 
L 2086 2790 
L 2086 3520 
z
M 5696 5050 
C 5581 5030 5453 5024 5203 5024 
L 4051 5024 
C 3789 5024 3629 5030 3469 5056 
L 3469 4550 
C 3642 4576 3789 4582 4026 4582 
L 5286 4582 
C 5088 4333 4864 4096 4582 3859 
C 4358 4026 4237 4109 3923 4307 
L 3642 3987 
C 4211 3629 4518 3392 4864 3046 
L 3898 3046 
C 3622 3046 3507 3053 3334 3078 
L 3334 2560 
C 3494 2586 3648 2592 3898 2592 
L 4358 2592 
L 4358 186 
C 4358 64 4314 32 4128 32 
C 3949 32 3731 58 3418 115 
C 3482 -64 3501 -154 3533 -384 
C 3789 -410 3942 -416 4115 -416 
C 4659 -416 4832 -294 4832 102 
L 4832 2592 
L 5645 2592 
C 5421 2208 5280 2016 4973 1709 
C 5126 1632 5216 1568 5344 1453 
C 5683 1856 5882 2144 6214 2765 
L 5965 3072 
C 5850 3053 5722 3046 5472 3046 
L 4986 3046 
L 5248 3315 
C 5082 3456 5030 3501 4915 3597 
C 5242 3891 5421 4083 5670 4390 
C 5888 4659 5888 4659 5965 4742 
L 5696 5050 
z
" transform="scale(0.015625)"/>
      <path id="HiraginoSans-W4-8cb4" d="M 2963 3840 
L 2963 3514 
L 1030 3514 
C 723 3514 557 3520 352 3552 
L 352 3104 
C 563 3136 736 3142 1030 3142 
L 5414 3142 
C 5715 3142 5901 3130 6093 3104 
L 6093 3552 
C 5882 3520 5722 3514 5414 3514 
L 3411 3514 
L 3411 3840 
L 4794 3840 
C 5120 3840 5312 3834 5510 3821 
C 5491 3974 5485 4083 5485 4294 
L 5485 4499 
C 5485 4710 5491 4826 5510 4986 
C 5318 4960 5139 4954 4774 4954 
L 3411 4954 
L 3411 4986 
C 3411 5114 3424 5222 3450 5363 
L 2925 5363 
C 2950 5216 2963 5107 2963 4986 
L 2963 4954 
L 1664 4954 
C 1299 4954 1114 4960 928 4986 
C 947 4832 954 4717 954 4499 
L 954 4294 
C 954 4077 947 3962 928 3821 
C 1126 3834 1318 3840 1645 3840 
L 2963 3840 
z
M 3411 4186 
L 3411 4589 
L 5030 4589 
L 5030 4186 
L 3411 4186 
z
M 2963 4186 
L 1408 4186 
L 1408 4589 
L 2963 4589 
L 2963 4186 
z
M 1722 2861 
C 1389 2861 1242 2867 1062 2880 
C 1075 2701 1082 2483 1082 2202 
L 1082 1107 
C 1082 813 1075 595 1056 454 
C 1242 474 1421 480 1760 480 
L 4653 480 
C 4979 480 5184 474 5357 454 
C 5338 602 5331 819 5331 1126 
L 5331 2182 
C 5331 2502 5338 2701 5350 2886 
C 5178 2867 5037 2861 4691 2861 
L 1722 2861 
z
M 1549 2502 
L 4864 2502 
L 4864 2176 
L 1549 2176 
L 1549 2502 
z
M 1549 1843 
L 4864 1843 
L 4864 1517 
L 1549 1517 
L 1549 1843 
z
M 1549 1184 
L 4864 1184 
L 4864 838 
L 1549 838 
L 1549 1184 
z
M 2099 442 
C 1568 147 1101 13 301 -70 
C 448 -224 531 -333 614 -499 
C 1466 -326 1907 -166 2534 179 
L 2099 442 
z
M 3834 179 
C 4499 -186 4960 -346 5811 -493 
C 5946 -250 5978 -211 6112 -58 
C 5293 26 4838 147 4243 435 
L 3834 179 
z
" transform="scale(0.015625)"/>
      <path id="HiraginoSans-W4-535a" d="M 922 3706 
L 819 3706 
C 557 3706 429 3712 275 3738 
L 275 3226 
C 442 3245 589 3251 819 3251 
L 922 3251 
L 922 237 
C 922 -70 909 -282 877 -486 
L 1459 -486 
C 1427 -256 1414 -45 1414 243 
L 1414 3251 
L 1466 3251 
C 1658 3251 1766 3245 1901 3226 
L 1901 3731 
C 1779 3712 1677 3706 1466 3706 
L 1414 3706 
L 1414 4755 
C 1414 5030 1421 5158 1453 5338 
L 877 5338 
C 909 5146 922 4998 922 4742 
L 922 3706 
z
M 5235 4710 
L 5491 4973 
C 5222 5158 5088 5242 4749 5395 
L 4474 5120 
C 4787 4966 4928 4890 5171 4710 
L 4134 4710 
L 4134 4826 
C 4134 5030 4147 5178 4173 5338 
L 3654 5338 
C 3680 5171 3693 5011 3693 4826 
L 3693 4710 
L 2554 4710 
C 2291 4710 2093 4723 1920 4749 
L 1920 4282 
C 2093 4301 2298 4307 2541 4307 
L 3693 4307 
L 3693 3891 
L 2682 3891 
C 2451 3891 2342 3898 2202 3910 
C 2214 3750 2214 3718 2214 3494 
L 2214 2317 
C 2214 2150 2208 2029 2202 1875 
C 2342 1888 2445 1894 2682 1894 
L 4717 1894 
L 4717 1446 
L 2426 1446 
C 2170 1446 1965 1459 1830 1485 
L 1830 992 
C 2016 1018 2176 1030 2413 1030 
L 4717 1030 
L 4717 141 
C 4717 13 4672 -13 4474 -13 
C 4275 -13 4051 6 3750 51 
C 3846 -141 3878 -250 3904 -435 
C 4301 -461 4352 -461 4467 -461 
C 4755 -461 4883 -442 4992 -378 
C 5114 -307 5178 -160 5178 58 
L 5178 1030 
L 5549 1030 
C 5805 1030 5946 1024 6106 998 
L 6106 1485 
C 5946 1453 5824 1446 5549 1446 
L 5178 1446 
L 5178 1894 
L 5267 1894 
C 5510 1894 5619 1888 5766 1875 
C 5754 2016 5747 2118 5747 2310 
L 5747 3488 
C 5747 3712 5747 3789 5766 3910 
C 5619 3898 5491 3891 5254 3891 
L 4134 3891 
L 4134 4307 
L 5459 4307 
C 5728 4307 5907 4301 6080 4282 
L 6080 4749 
C 5926 4723 5754 4710 5542 4710 
L 5235 4710 
z
M 3693 3520 
L 3693 3085 
L 2662 3085 
L 2662 3520 
L 3693 3520 
z
M 4134 3520 
L 5293 3520 
L 5293 3085 
L 4134 3085 
L 4134 3520 
z
M 3693 2720 
L 3693 2266 
L 2662 2266 
L 2662 2720 
L 3693 2720 
z
M 4134 2720 
L 5293 2720 
L 5293 2266 
L 4134 2266 
L 4134 2720 
z
M 3712 173 
C 3386 512 3226 653 2816 966 
L 2477 678 
C 2854 384 3040 198 3354 -173 
L 3712 173 
z
" transform="scale(0.015625)"/>
     </defs>
     <use xlink:href="#HiraginoSans-W4-5b89"/>
     <use xlink:href="#HiraginoSans-W4-91ce" x="99.999985"/>
     <use xlink:href="#HiraginoSans-W4-20" x="199.999969"/>
     <use xlink:href="#HiraginoSans-W4-8cb4" x="233.299957"/>
     <use xlink:href="#HiraginoSans-W4-535a" x="333.299942"/>
    </g>
   </g>
   <g id="text_18">
    <!-- 内海 聡 -->
    <g transform="translate(92.306152 130.807108) scale(0.1 -0.1)">
     <defs>
      <path id="HiraginoSans-W4-5185" d="M 5286 3968 
L 5286 294 
C 5286 141 5242 122 4947 122 
C 4659 122 4390 147 4077 198 
C 4154 0 4179 -102 4205 -326 
C 4493 -346 4698 -352 4922 -352 
C 5651 -352 5792 -262 5792 186 
L 5792 3872 
C 5792 4128 5798 4275 5818 4454 
C 5606 4429 5434 4422 5146 4422 
L 3424 4422 
C 3430 4544 3430 4570 3437 4928 
C 3450 5152 3456 5254 3488 5395 
L 2906 5395 
C 2938 5216 2944 5094 2944 4838 
C 2944 4717 2938 4602 2931 4422 
L 1274 4422 
C 998 4422 826 4429 608 4454 
C 627 4294 634 4122 634 3866 
L 634 275 
C 634 -26 621 -243 589 -454 
L 1171 -454 
C 1146 -288 1139 -102 1139 269 
L 1139 3968 
L 2893 3968 
C 2803 3219 2611 2733 2240 2298 
C 1965 1984 1715 1792 1203 1504 
C 1357 1363 1459 1242 1542 1101 
C 2189 1504 2534 1818 2835 2285 
C 2989 2522 3098 2739 3187 3027 
C 3501 2323 4070 1702 4883 1178 
C 4979 1357 5082 1491 5216 1626 
C 4672 1926 4282 2240 3987 2598 
C 3693 2950 3507 3264 3341 3680 
C 3360 3795 3366 3840 3379 3968 
L 5286 3968 
z
" transform="scale(0.015625)"/>
      <path id="HiraginoSans-W4-6d77" d="M 2944 4717 
C 3021 4877 3059 4960 3098 5062 
C 3162 5235 3162 5235 3200 5306 
L 2675 5408 
C 2656 5280 2611 5139 2541 4973 
C 2259 4301 1984 3898 1517 3475 
C 1670 3373 1766 3277 1875 3123 
C 2253 3533 2419 3757 2720 4282 
L 5210 4282 
C 5664 4282 5875 4275 6029 4256 
L 6029 4755 
C 5824 4723 5645 4717 5171 4717 
L 2944 4717 
z
M 4883 448 
C 4806 32 4768 -6 4480 -6 
C 4288 -6 4045 19 3770 70 
C 3834 -109 3853 -211 3859 -410 
C 4064 -429 4352 -448 4499 -448 
C 5088 -448 5216 -314 5344 448 
L 5453 448 
C 5664 448 5798 442 5958 422 
L 5958 915 
C 5818 883 5709 877 5466 877 
L 5408 877 
C 5459 1280 5485 1504 5510 1926 
L 5574 1926 
C 5786 1926 5965 1914 6157 1888 
L 6157 2394 
C 5997 2362 5862 2355 5574 2355 
L 5530 2355 
C 5549 2656 5555 2861 5562 2963 
C 5581 3469 5587 3558 5613 3712 
C 5414 3693 5261 3686 4947 3686 
L 2842 3686 
C 2637 3686 2483 3693 2394 3699 
C 2400 3590 2406 3533 2406 3533 
L 2406 3437 
C 2406 3238 2368 2854 2310 2355 
L 2246 2355 
C 1952 2355 1786 2368 1632 2394 
L 1632 1888 
C 1818 1920 1952 1926 2195 1926 
L 2253 1926 
C 2144 1190 1997 576 1805 64 
L 2317 6 
C 2381 218 2394 288 2432 448 
L 4883 448 
z
M 4115 2355 
C 4141 2618 4141 2618 4186 3270 
L 5114 3270 
C 5107 2854 5101 2707 5088 2355 
L 4115 2355 
z
M 2771 2355 
C 2816 2771 2829 2880 2854 3270 
L 3738 3270 
C 3712 2720 3712 2720 3680 2355 
L 2771 2355 
z
M 5062 1926 
C 5037 1574 5011 1318 4954 877 
L 3930 877 
C 4019 1459 4019 1459 4077 1926 
L 5062 1926 
z
M 3635 1926 
C 3590 1542 3558 1331 3533 1178 
C 3494 973 3494 973 3482 877 
L 2528 877 
C 2656 1517 2662 1555 2714 1926 
L 3635 1926 
z
M 512 4928 
C 909 4659 1088 4493 1459 4058 
L 1811 4416 
C 1510 4742 1254 4966 858 5254 
L 512 4928 
z
M 179 3315 
C 653 3021 870 2842 1197 2477 
L 1523 2854 
C 1146 3213 928 3379 486 3654 
L 179 3315 
z
M 1178 1862 
C 902 954 557 160 307 -115 
L 742 -467 
C 774 -384 774 -384 851 -250 
C 1094 224 1357 864 1574 1542 
L 1178 1862 
z
" transform="scale(0.015625)"/>
      <path id="HiraginoSans-W4-8061" d="M 2720 2406 
C 2893 2426 2893 2426 3200 2451 
C 3846 2509 3853 2509 4314 2566 
C 4723 2611 4845 2630 5210 2694 
C 5325 2496 5357 2432 5485 2176 
L 5894 2445 
C 5472 3136 5357 3296 4870 3859 
L 4506 3642 
C 4736 3386 4819 3283 4986 3046 
C 4550 2989 4301 2963 3718 2925 
C 3955 3302 4083 3565 4397 4275 
L 3910 4435 
C 3789 3981 3597 3558 3200 2893 
C 3066 2893 3053 2893 3014 2893 
C 2925 2893 2835 2899 2650 2912 
L 2720 2406 
z
M 653 947 
C 461 909 339 890 262 890 
L 378 390 
C 461 416 480 422 576 448 
C 947 550 1574 742 1824 832 
L 1824 198 
C 1824 -122 1811 -320 1792 -474 
L 2298 -474 
C 2272 -307 2259 -115 2259 192 
L 2259 4685 
C 2272 4685 2298 4685 2323 4685 
L 2368 4685 
C 2394 4685 2426 4685 2477 4678 
C 2496 4678 2522 4672 2554 4672 
L 2554 5146 
C 2438 5120 2291 5114 2061 5114 
L 787 5114 
C 595 5114 403 5126 288 5146 
L 288 4659 
C 384 4678 518 4691 653 4691 
L 653 947 
z
M 1094 4691 
L 1824 4691 
L 1824 3782 
L 1094 3782 
L 1094 4691 
z
M 1094 3379 
L 1824 3379 
L 1824 2528 
L 1094 2528 
L 1094 3379 
z
M 1094 2125 
L 1824 2125 
L 1824 1261 
C 1542 1171 1299 1101 1094 1050 
L 1094 2125 
z
M 4550 5056 
C 4621 4966 4621 4960 4672 4890 
C 4890 4582 4890 4582 4973 4480 
C 5235 4141 5440 3949 5869 3629 
C 5958 3802 6029 3910 6157 4045 
C 5581 4397 5248 4749 4960 5318 
L 4550 5056 
z
M 3693 2106 
C 4096 1818 4269 1651 4602 1216 
L 4922 1523 
C 4678 1818 4410 2067 4006 2362 
L 3693 2106 
z
M 2835 1683 
C 2720 1011 2598 691 2310 250 
L 2694 -45 
C 2963 429 3117 851 3251 1510 
L 2835 1683 
z
M 5165 1530 
C 5478 1050 5670 634 5856 13 
L 6259 288 
C 6042 864 5875 1203 5542 1734 
L 5165 1530 
z
M 3475 5299 
C 3258 4755 2957 4384 2400 3962 
C 2541 3859 2650 3757 2752 3616 
C 3283 4083 3424 4262 3917 5069 
L 3475 5299 
z
M 3386 1747 
C 3411 1600 3418 1466 3418 1267 
L 3418 83 
C 3418 -256 3552 -320 4262 -320 
C 4768 -320 4979 -288 5101 -186 
C 5254 -58 5331 211 5370 806 
C 5165 851 5107 870 4947 947 
C 4928 448 4896 275 4819 186 
C 4762 122 4627 96 4294 96 
C 3930 96 3859 122 3859 262 
L 3859 1318 
C 3859 1491 3866 1606 3891 1747 
L 3386 1747 
z
" transform="scale(0.015625)"/>
     </defs>
     <use xlink:href="#HiraginoSans-W4-5185"/>
     <use xlink:href="#HiraginoSans-W4-6d77" x="99.999985"/>
     <use xlink:href="#HiraginoSans-W4-20" x="199.999969"/>
     <use xlink:href="#HiraginoSans-W4-8061" x="233.299957"/>
    </g>
   </g>
   <g id="text_19">
    <!-- ひまそら あかね -->
    <g transform="translate(98.208962 134.170605) scale(0.1 -0.1)">
     <defs>
      <path id="HiraginoSans-W4-3072" d="M 768 4128 
C 838 4141 845 4141 960 4147 
C 1606 4186 1971 4237 2323 4333 
C 2272 4282 2266 4282 2189 4211 
C 2010 4058 1811 3840 1626 3590 
C 1184 2989 941 2310 941 1677 
C 941 608 1658 -141 2694 -141 
C 3469 -141 4154 301 4454 998 
C 4614 1376 4698 1805 4698 2259 
C 4698 2746 4646 3046 4480 3622 
C 4634 3341 4749 3149 4819 3040 
C 5037 2701 5350 2355 5683 2074 
C 5773 1997 5779 1997 5824 1946 
L 6112 2477 
C 6016 2522 5978 2547 5869 2637 
C 5485 2957 5222 3245 4954 3648 
C 4698 4026 4467 4480 4365 4806 
L 3821 4634 
C 4045 4154 4198 3334 4198 2605 
C 4198 2048 4128 1638 3968 1254 
C 3750 749 3238 403 2701 403 
C 1984 403 1478 928 1478 1670 
C 1478 2310 1773 2995 2342 3680 
C 2611 4006 2752 4134 3104 4371 
L 2790 4858 
C 2534 4742 1792 4653 1075 4653 
C 934 4653 877 4659 762 4672 
L 768 4128 
z
" transform="scale(0.015625)"/>
      <path id="HiraginoSans-W4-307e" d="M 5651 563 
C 5562 614 5536 640 5427 710 
C 4749 1197 4256 1453 3648 1638 
C 3635 1901 3635 1901 3616 2554 
C 3949 2573 4518 2624 4768 2662 
C 5261 2733 5280 2739 5389 2746 
L 5363 3264 
C 4998 3149 4371 3059 3610 3014 
C 3603 3366 3597 3462 3597 3808 
C 4179 3840 4499 3872 5050 3949 
C 5389 4000 5389 4000 5510 4006 
L 5485 4525 
C 5107 4403 4442 4314 3597 4269 
C 3603 4755 3616 4986 3642 5133 
L 3066 5133 
C 3091 4986 3091 4986 3098 4250 
C 2906 4243 2682 4237 2560 4237 
C 1850 4237 1203 4288 896 4365 
L 890 3846 
C 928 3853 960 3853 979 3853 
C 1005 3853 1050 3853 1107 3846 
C 1562 3814 2266 3782 2650 3782 
C 2771 3782 2880 3782 3098 3789 
C 3098 3686 3104 3622 3110 2989 
C 2893 2982 2701 2976 2554 2976 
C 1914 2976 1363 3014 1075 3078 
L 1069 2579 
C 1094 2579 1114 2579 1126 2579 
C 1165 2579 1216 2579 1293 2573 
C 1702 2534 2016 2522 2394 2522 
C 2554 2522 2778 2528 3117 2534 
C 3136 1875 3136 1875 3149 1722 
C 2963 1747 2803 1760 2586 1760 
C 1600 1760 1005 1382 1005 755 
C 1005 192 1510 -160 2317 -160 
C 2925 -160 3354 0 3520 294 
C 3616 461 3674 704 3674 954 
C 3674 1011 3674 1043 3667 1120 
C 3898 1024 3898 1024 4038 954 
C 4576 685 5043 352 5344 32 
L 5651 563 
z
M 3155 1242 
C 3155 1242 3162 1075 3162 1024 
C 3162 755 3123 595 3034 499 
C 2918 371 2682 301 2355 301 
C 1843 301 1536 474 1536 768 
C 1536 870 1574 973 1638 1037 
C 1798 1203 2138 1306 2528 1306 
C 2790 1306 2912 1293 3155 1242 
z
" transform="scale(0.015625)"/>
      <path id="HiraginoSans-W4-305d" d="M 1562 4282 
C 1690 4294 1728 4301 1958 4307 
C 3002 4352 3507 4390 3898 4461 
C 3814 4384 3795 4365 3661 4243 
C 2963 3597 2266 3053 1670 2701 
C 1248 2624 762 2573 550 2573 
C 538 2573 512 2573 480 2573 
L 538 2010 
C 774 2074 1331 2157 2342 2278 
C 3072 2368 3258 2394 3680 2464 
C 2848 2112 2413 1606 2413 1005 
C 2413 678 2554 397 2829 186 
C 3142 -64 3738 -205 4442 -211 
C 4794 -211 4794 -211 4915 -218 
L 4890 365 
C 4736 333 4602 320 4403 320 
C 3910 320 3482 410 3238 563 
C 3053 691 2944 877 2944 1094 
C 2944 1274 3002 1421 3142 1600 
C 3315 1824 3603 2042 3917 2182 
C 4390 2406 5024 2528 5690 2528 
C 5722 2528 5773 2528 5837 2522 
L 5792 3059 
C 5709 3040 5683 3040 5600 3027 
C 5491 3021 5312 3002 5050 2982 
C 4646 2944 4288 2912 4000 2886 
C 3104 2816 2758 2778 2464 2726 
C 3117 3136 3885 3744 4454 4288 
C 4627 4454 4685 4499 4787 4570 
L 4474 4966 
C 4384 4928 4250 4896 4090 4883 
C 3616 4832 2714 4794 2106 4794 
C 1837 4794 1722 4800 1523 4826 
L 1562 4282 
z
" transform="scale(0.015625)"/>
      <path id="HiraginoSans-W4-3089" d="M 1978 4627 
C 2541 4365 2541 4365 2989 4211 
C 3379 4083 3635 4006 4282 3846 
L 4486 4371 
C 3795 4480 2707 4826 2253 5082 
L 1978 4627 
z
M 1453 3968 
C 1446 3846 1440 3789 1408 3616 
C 1293 2893 1203 2310 1139 1824 
C 1114 1606 1107 1562 1088 1446 
L 1677 1427 
C 1773 1555 1830 1613 1939 1696 
C 2406 2029 3040 2227 3674 2227 
C 4422 2227 4870 1933 4870 1440 
C 4870 819 4205 403 3213 403 
C 2662 403 2067 518 1542 723 
C 1587 506 1600 416 1600 275 
L 1600 205 
C 1600 173 1600 147 1600 122 
C 2355 -70 2662 -115 3226 -115 
C 3910 -115 4429 19 4838 307 
C 5216 570 5446 1005 5446 1446 
C 5446 2208 4768 2714 3750 2714 
C 3040 2714 2342 2522 1907 2202 
C 1811 2131 1773 2099 1683 2003 
L 1677 2010 
C 1690 2067 1696 2080 1709 2157 
C 1824 2995 1946 3642 2029 3930 
L 1453 3968 
z
" transform="scale(0.015625)"/>
      <path id="HiraginoSans-W4-3042" d="M 851 3891 
C 902 3898 941 3898 966 3898 
C 979 3898 1024 3898 1082 3891 
C 1600 3872 1894 3866 1965 3866 
L 2176 3866 
C 2150 3418 2150 3418 2144 2957 
C 1210 2547 653 1824 653 1011 
C 653 422 1011 0 1517 0 
C 1978 0 2458 250 2963 755 
C 3482 1267 3840 1830 4211 2675 
C 4838 2502 5178 2138 5178 1626 
C 5178 1082 4781 634 4090 390 
C 3782 288 3520 243 3136 230 
C 3277 19 3315 -70 3379 -282 
C 3949 -218 4314 -115 4691 77 
C 5370 422 5722 941 5722 1594 
C 5722 2336 5216 2899 4365 3098 
C 4486 3398 4550 3558 4563 3584 
L 4038 3738 
C 4013 3565 3968 3386 3891 3187 
C 3731 3200 3654 3206 3533 3206 
C 3213 3206 2963 3174 2630 3091 
C 2630 3341 2637 3392 2669 3878 
C 3264 3898 4211 4000 4934 4122 
C 5050 4141 5075 4147 5165 4154 
L 5133 4685 
C 4646 4518 3731 4384 2701 4333 
C 2746 4813 2771 5024 2829 5197 
L 2246 5235 
C 2253 5184 2259 5152 2259 5133 
C 2259 5075 2246 4845 2240 4768 
C 2214 4454 2214 4454 2202 4314 
C 2093 4314 2067 4314 2048 4314 
C 1478 4314 1133 4339 858 4410 
L 851 3891 
z
M 2150 2458 
C 2150 1741 2189 1267 2272 806 
C 2010 589 1805 499 1587 499 
C 1325 499 1152 717 1152 1050 
C 1152 1357 1280 1670 1517 1952 
C 1683 2150 1850 2285 2150 2458 
z
M 2694 1126 
C 2694 1146 2694 1152 2694 1165 
C 2694 1190 2688 1248 2682 1312 
C 2637 1766 2630 1850 2618 2630 
C 2880 2726 3181 2778 3462 2778 
C 3590 2778 3622 2778 3738 2765 
C 3482 2170 3258 1805 2861 1325 
C 2752 1190 2752 1190 2707 1126 
L 2694 1126 
z
" transform="scale(0.015625)"/>
      <path id="HiraginoSans-W4-304b" d="M 582 3027 
C 864 3104 1133 3155 1824 3251 
C 1619 2438 1440 1920 1146 1286 
C 928 806 672 358 480 115 
L 1005 -186 
C 1197 173 1331 442 1421 621 
C 1843 1485 2118 2266 2362 3296 
C 2547 3315 2662 3322 2797 3322 
C 3366 3322 3546 3117 3546 2464 
C 3546 1754 3450 1101 3290 717 
C 3206 525 3085 429 2931 429 
C 2707 429 2342 544 1990 717 
C 2016 563 2022 480 2022 358 
C 2022 282 2022 250 2010 141 
C 2426 -26 2707 -96 2976 -96 
C 3283 -96 3469 -13 3629 198 
C 3904 563 4077 1421 4077 2438 
C 4077 2982 3994 3277 3770 3501 
C 3571 3699 3283 3789 2848 3789 
C 2707 3789 2611 3782 2458 3770 
C 2490 3923 2560 4326 2592 4499 
C 2650 4858 2669 4966 2707 5094 
L 2106 5158 
C 2106 5120 2106 5088 2106 5075 
C 2106 4813 2029 4256 1926 3731 
C 1389 3648 749 3578 518 3571 
L 582 3027 
z
M 4346 3942 
C 4954 3309 5395 2496 5632 1574 
L 6138 1843 
C 5850 2765 5446 3462 4806 4173 
L 4346 3942 
z
" transform="scale(0.015625)"/>
      <path id="HiraginoSans-W4-306d" d="M 518 3456 
C 678 3488 806 3501 1210 3533 
C 1395 3552 1395 3552 1510 3558 
C 1491 2970 1491 2970 1485 2496 
C 454 1466 454 1466 294 1357 
L 595 819 
C 710 973 736 1005 1107 1402 
C 1286 1587 1421 1741 1498 1843 
C 1485 1658 1478 1587 1478 1139 
C 1478 -51 1478 -51 1446 -307 
L 2035 -307 
C 2003 -19 1997 474 1997 1523 
L 1997 2266 
C 2573 2803 2771 2976 2989 3130 
C 3430 3456 3808 3622 4115 3622 
C 4723 3622 5056 3066 5056 2035 
C 5056 1792 5043 1638 5005 1389 
C 4653 1562 4365 1638 4038 1638 
C 3386 1638 2931 1267 2931 742 
C 2931 224 3392 -134 4058 -134 
C 4435 -134 4800 -6 5030 205 
C 5158 326 5235 435 5318 627 
C 5626 384 5811 218 5946 51 
L 6182 595 
C 6118 634 6112 640 6029 710 
C 5933 794 5786 909 5498 1126 
C 5555 1446 5587 1702 5587 1971 
C 5587 2586 5517 2976 5350 3341 
C 5114 3866 4710 4128 4147 4128 
C 3782 4128 3494 4045 3142 3827 
C 2842 3648 2368 3277 2138 3046 
C 2029 2938 2029 2938 1990 2899 
C 1990 2944 1990 2957 1990 2982 
C 1997 3014 1997 3072 1997 3149 
C 2003 3366 2003 3366 2010 3488 
C 2208 3718 2323 3840 2362 3866 
L 2170 4109 
C 2131 4090 2118 4083 2067 4077 
L 2035 4070 
C 2067 4947 2074 5011 2099 5184 
L 1530 5197 
C 1536 5056 1542 4986 1542 4870 
C 1542 4742 1530 4339 1523 4026 
C 1056 3987 794 3968 653 3968 
C 621 3968 576 3968 486 3974 
L 518 3456 
z
M 4896 909 
C 4896 909 4877 870 4851 813 
C 4787 666 4678 538 4544 454 
C 4403 371 4218 320 4038 320 
C 3693 320 3430 499 3430 742 
C 3430 1005 3686 1190 4051 1190 
C 4339 1190 4570 1114 4896 909 
z
" transform="scale(0.015625)"/>
     </defs>
     <use xlink:href="#HiraginoSans-W4-3072"/>
     <use xlink:href="#HiraginoSans-W4-307e" x="99.999985"/>
     <use xlink:href="#HiraginoSans-W4-305d" x="199.999969"/>
     <use xlink:href="#HiraginoSans-W4-3089" x="299.999954"/>
     <use xlink:href="#HiraginoSans-W4-20" x="399.999939"/>
     <use xlink:href="#HiraginoSans-W4-3042" x="433.299927"/>
     <use xlink:href="#HiraginoSans-W4-304b" x="533.299911"/>
     <use xlink:href="#HiraginoSans-W4-306d" x="633.299896"/>
    </g>
   </g>
   <g id="text_20">
    <!-- 石丸 幸人 -->
    <g transform="translate(104.111772 138.758125) scale(0.1 -0.1)">
     <defs>
      <path id="HiraginoSans-W4-5e78" d="M 2893 4704 
L 1504 4704 
C 1222 4704 1018 4717 832 4742 
L 832 4230 
C 1018 4256 1229 4269 1504 4269 
L 2893 4269 
L 2893 3584 
L 1088 3584 
C 794 3584 589 3597 403 3622 
L 403 3110 
C 602 3136 826 3149 1088 3149 
L 1568 3149 
C 1798 2752 1920 2522 2029 2234 
L 1107 2234 
C 832 2234 608 2246 422 2272 
L 422 1766 
C 627 1792 838 1805 1107 1805 
L 2893 1805 
L 2893 1088 
L 1408 1088 
C 1133 1088 909 1101 736 1126 
L 736 621 
C 934 646 1126 659 1414 659 
L 2893 659 
L 2893 134 
C 2893 -122 2880 -301 2848 -531 
L 3437 -531 
C 3405 -326 3392 -122 3392 134 
L 3392 659 
L 4960 659 
C 5242 659 5459 646 5632 621 
L 5632 1126 
C 5466 1101 5242 1088 4966 1088 
L 3392 1088 
L 3392 1805 
L 5293 1805 
C 5594 1805 5786 1792 5971 1766 
L 5971 2272 
C 5792 2246 5568 2234 5293 2234 
L 4294 2234 
C 4435 2470 4544 2694 4742 3149 
L 5312 3149 
C 5613 3149 5805 3136 5990 3110 
L 5990 3622 
C 5811 3597 5613 3584 5312 3584 
L 3392 3584 
L 3392 4269 
L 4870 4269 
C 5146 4269 5376 4256 5542 4230 
L 5542 4742 
C 5357 4717 5152 4704 4870 4704 
L 3392 4704 
L 3392 4787 
C 3392 5030 3405 5190 3430 5357 
L 2854 5357 
C 2880 5171 2893 5030 2893 4794 
L 2893 4704 
z
M 2515 2234 
C 2362 2605 2259 2816 2074 3149 
L 4237 3149 
C 4090 2771 3987 2566 3795 2234 
L 2515 2234 
z
" transform="scale(0.015625)"/>
      <path id="HiraginoSans-W4-4eba" d="M 2893 5254 
C 2912 5088 2918 4973 2918 4717 
C 2918 3277 2586 2195 1856 1267 
C 1434 723 1056 422 307 13 
C 486 -134 576 -243 691 -448 
C 1222 -115 1466 77 1824 429 
C 2240 845 2528 1235 2758 1722 
C 2989 2195 3098 2528 3213 3110 
C 3411 2285 3661 1709 4051 1152 
C 4506 512 4954 83 5728 -448 
C 5856 -224 5926 -128 6112 38 
C 5760 243 5606 346 5414 499 
C 5082 768 4736 1120 4499 1434 
C 4109 1946 3750 2682 3616 3226 
C 3533 3565 3456 4262 3456 4672 
C 3456 4858 3475 5152 3494 5254 
L 2893 5254 
z
" transform="scale(0.015625)"/>
     </defs>
     <use xlink:href="#HiraginoSans-W4-77f3"/>
     <use xlink:href="#HiraginoSans-W4-4e38" x="99.999985"/>
     <use xlink:href="#HiraginoSans-W4-20" x="199.999969"/>
     <use xlink:href="#HiraginoSans-W4-5e78" x="233.299957"/>
     <use xlink:href="#HiraginoSans-W4-4eba" x="333.299942"/>
    </g>
   </g>
   <g id="text_21">
    <!-- 桜井 誠 -->
    <g transform="translate(110.014582 143.515202) scale(0.1 -0.1)">
     <defs>
      <path id="HiraginoSans-W4-685c" d="M 5971 -13 
C 5440 301 5062 499 4570 736 
C 4941 1158 5114 1485 5312 2131 
L 5440 2131 
C 5722 2131 5914 2118 6106 2093 
L 6106 2605 
C 5907 2579 5734 2566 5440 2566 
L 3821 2566 
C 4000 2976 4102 3206 4128 3251 
L 3578 3360 
C 3539 3130 3469 2931 3309 2566 
L 2944 2566 
C 2688 2566 2458 2579 2278 2598 
C 2304 2630 2310 2643 2336 2675 
C 2035 2995 1843 3290 1683 3674 
L 1946 3674 
C 2099 3674 2208 3667 2362 3654 
L 2362 4128 
C 2240 4109 2118 4102 1946 4102 
L 1664 4102 
L 1664 4691 
C 1664 4998 1670 5203 1696 5350 
L 1158 5350 
C 1184 5203 1197 5043 1197 4691 
L 1197 4102 
L 787 4102 
C 570 4102 448 4109 326 4128 
L 326 3648 
C 454 3667 582 3674 781 3674 
L 1133 3674 
C 1043 3309 928 2970 806 2669 
C 602 2202 429 1901 173 1587 
C 301 1446 339 1376 454 1139 
C 813 1613 1030 2106 1254 2957 
C 1216 2541 1203 2202 1203 1856 
L 1203 256 
C 1203 -64 1184 -320 1158 -499 
L 1702 -499 
C 1677 -320 1664 -83 1664 256 
L 1664 2106 
C 1664 2330 1645 2822 1632 3110 
C 1779 2752 1882 2573 2080 2291 
C 2144 2406 2170 2445 2272 2592 
L 2272 2099 
C 2451 2118 2656 2131 2899 2131 
L 3098 2131 
C 2886 1741 2746 1530 2406 1120 
C 2944 966 3264 845 3770 621 
C 3603 506 3469 429 3245 326 
C 2803 128 2490 51 1920 -13 
C 2048 -160 2118 -269 2189 -461 
C 3085 -307 3667 -64 4230 403 
C 4704 166 5210 -141 5645 -442 
L 5971 -13 
z
M 4813 2131 
C 4653 1606 4480 1299 4128 941 
C 3802 1082 3571 1171 3130 1318 
C 3386 1728 3482 1882 3610 2131 
L 4813 2131 
z
M 4499 3789 
C 4339 4358 4224 4666 3936 5274 
L 3482 5133 
C 3763 4570 3891 4230 4045 3642 
L 4499 3789 
z
M 5062 3027 
C 5421 3552 5683 4083 6035 4947 
L 5568 5146 
C 5402 4653 5312 4429 5094 3981 
C 4934 3654 4858 3526 4640 3213 
L 5062 3027 
z
M 3290 3590 
C 3072 4166 2918 4512 2637 5030 
L 2208 4845 
C 2509 4301 2630 4019 2842 3386 
L 3290 3590 
z
" transform="scale(0.015625)"/>
      <path id="HiraginoSans-W4-4e95" d="M 1933 3629 
L 1933 3155 
C 1933 2694 1920 2406 1882 2029 
L 992 2029 
C 698 2029 493 2042 307 2067 
L 307 1517 
C 512 1549 672 1562 998 1562 
L 1811 1562 
C 1741 1197 1626 922 1440 659 
C 1242 378 1043 198 608 -96 
C 774 -218 870 -320 1011 -518 
C 1472 -147 1645 19 1837 294 
C 2086 653 2240 1056 2323 1562 
L 4083 1562 
L 4083 282 
C 4083 -70 4070 -282 4045 -467 
L 4627 -467 
C 4595 -256 4582 -51 4582 282 
L 4582 1562 
L 5421 1562 
C 5734 1562 5907 1549 6131 1517 
L 6131 2067 
C 5933 2042 5734 2029 5421 2029 
L 4582 2029 
L 4582 3629 
L 5267 3629 
C 5594 3629 5760 3622 5971 3590 
L 5971 4141 
C 5741 4109 5555 4096 5267 4096 
L 4582 4096 
L 4582 4589 
C 4582 4909 4595 5082 4627 5280 
L 4045 5286 
C 4077 5101 4083 4941 4083 4595 
L 4083 4096 
L 2432 4096 
L 2432 4608 
C 2432 4954 2438 5107 2470 5286 
L 1894 5286 
C 1920 5107 1933 4934 1933 4627 
L 1933 4096 
L 1210 4096 
C 909 4096 710 4109 493 4141 
L 493 3590 
C 678 3622 845 3629 1216 3629 
L 1933 3629 
z
M 2432 3629 
L 4083 3629 
L 4083 2029 
L 2381 2029 
C 2413 2381 2432 2726 2432 3085 
L 2432 3629 
z
" transform="scale(0.015625)"/>
      <path id="HiraginoSans-W4-8aa0" d="M 5536 3366 
C 5498 3117 5498 3104 5466 2970 
C 5357 2560 5203 2150 5018 1792 
C 4960 2093 4902 2534 4864 2906 
C 4832 3251 4832 3264 4819 3910 
L 5446 3910 
C 5702 3910 5901 3904 6106 3878 
L 6106 4384 
C 5971 4358 5779 4346 5504 4346 
L 4813 4346 
C 4813 4474 4813 4576 4813 4640 
C 4806 4762 4806 4832 4806 4864 
C 4806 5050 4819 5184 4845 5318 
L 4326 5318 
C 4352 5146 4352 5146 4358 4346 
L 3149 4346 
C 2899 4346 2650 4358 2528 4378 
C 2547 4147 2554 3968 2554 3603 
C 2554 1421 2445 582 2067 -70 
C 2067 19 2067 64 2067 141 
L 2067 1120 
C 2067 1421 2067 1504 2086 1613 
C 1997 1600 1920 1594 1702 1594 
L 883 1594 
C 672 1594 576 1600 467 1613 
C 486 1434 493 1306 493 1101 
L 493 237 
C 493 26 480 -218 461 -390 
L 902 -390 
L 902 -32 
L 1677 -32 
L 1677 -269 
L 2080 -269 
C 2074 -134 2074 -134 2067 -77 
C 2214 -179 2317 -282 2426 -435 
C 2816 320 2938 998 2982 2624 
L 3680 2624 
C 3674 1978 3635 1421 3584 1203 
C 3558 1101 3507 1062 3386 1062 
C 3283 1062 3187 1075 3014 1107 
C 3072 915 3085 826 3091 653 
C 3245 634 3373 627 3443 627 
C 3814 627 3942 730 4006 1094 
C 4051 1331 4102 1939 4115 2432 
C 4128 2982 4128 2982 4141 3078 
C 4006 3059 3840 3053 3610 3053 
L 2989 3053 
C 2995 3264 2995 3366 2995 3546 
L 2995 3910 
L 4371 3910 
C 4410 2720 4506 1946 4698 1248 
C 4307 685 3878 288 3187 -128 
C 3328 -237 3405 -314 3520 -480 
C 4128 -77 4480 250 4858 755 
C 5133 64 5427 -314 5709 -314 
C 5978 -314 6125 38 6214 902 
C 6086 947 5984 1011 5830 1146 
C 5818 877 5792 640 5766 499 
C 5728 307 5722 282 5664 256 
C 5606 282 5568 333 5472 499 
C 5357 710 5261 934 5171 1216 
C 5434 1658 5651 2144 5862 2803 
C 5952 3072 5958 3091 5997 3174 
L 5536 3366 
z
M 896 1203 
L 1677 1203 
L 1677 371 
L 896 371 
L 896 1203 
z
M 493 4710 
C 646 4730 768 4736 973 4736 
L 1734 4736 
C 1933 4736 2067 4730 2214 4710 
L 2214 5184 
C 2061 5158 1958 5152 1734 5152 
L 973 5152 
C 749 5152 640 5158 493 5184 
L 493 4710 
z
M 269 3808 
C 416 3827 550 3834 781 3834 
L 1837 3834 
C 2074 3834 2170 3827 2304 3808 
L 2304 4288 
C 2150 4269 2054 4262 1792 4262 
L 781 4262 
C 538 4262 416 4269 269 4294 
L 269 3808 
z
M 480 2918 
C 614 2938 704 2944 909 2944 
L 1715 2944 
C 1901 2944 1990 2938 2131 2918 
L 2131 3373 
C 2010 3360 1920 3354 1715 3354 
L 909 3354 
C 691 3354 614 3360 480 3373 
L 480 2918 
z
M 480 2035 
C 595 2054 710 2061 902 2061 
L 1709 2061 
C 1901 2061 2016 2054 2131 2035 
L 2131 2496 
C 2010 2477 1914 2470 1715 2470 
L 909 2470 
C 704 2470 602 2477 480 2496 
L 480 2035 
z
M 5926 4710 
C 5638 5011 5536 5107 5235 5331 
L 4947 5088 
C 5280 4826 5363 4742 5619 4429 
L 5926 4710 
z
" transform="scale(0.015625)"/>
     </defs>
     <use xlink:href="#HiraginoSans-W4-685c"/>
     <use xlink:href="#HiraginoSans-W4-4e95" x="99.999985"/>
     <use xlink:href="#HiraginoSans-W4-20" x="199.999969"/>
     <use xlink:href="#HiraginoSans-W4-8aa0" x="233.299957"/>
    </g>
   </g>
   <g id="text_22">
    <!-- 清水 国明 -->
    <g transform="translate(115.917392 170.141167) scale(0.1 -0.1)">
     <defs>
      <path id="HiraginoSans-W4-6e05" d="M 3667 4467 
L 3667 4096 
L 2720 4096 
C 2458 4096 2285 4102 2112 4122 
L 2112 3680 
C 2304 3706 2458 3712 2720 3712 
L 3667 3712 
L 3667 3309 
L 2515 3309 
C 2195 3309 1990 3322 1824 3347 
L 1824 2867 
C 2010 2893 2208 2906 2515 2906 
L 5434 2906 
C 5741 2906 5920 2893 6099 2867 
L 6099 3347 
C 5920 3322 5747 3309 5427 3309 
L 4115 3309 
L 4115 3712 
L 5120 3712 
C 5370 3712 5542 3706 5722 3680 
L 5722 4122 
C 5549 4102 5395 4096 5114 4096 
L 4115 4096 
L 4115 4467 
L 5312 4467 
C 5613 4467 5786 4461 5952 4435 
L 5952 4909 
C 5754 4883 5581 4870 5306 4870 
L 4115 4870 
C 4115 5088 4122 5190 4154 5363 
L 3629 5363 
C 3661 5203 3667 5107 3667 4870 
L 2618 4870 
C 2355 4870 2189 4883 1990 4909 
L 1990 4435 
C 2163 4461 2304 4467 2611 4467 
L 3667 4467 
z
M 2778 621 
L 5069 621 
L 5069 173 
C 5069 38 5030 6 4832 6 
C 4614 6 4378 26 4083 77 
C 4166 -90 4198 -198 4224 -371 
C 4666 -397 4666 -397 4838 -397 
C 5139 -397 5280 -371 5370 -307 
C 5478 -224 5530 -83 5530 134 
L 5530 1933 
C 5530 2246 5536 2458 5555 2605 
C 5440 2586 5286 2579 4966 2579 
L 2931 2579 
C 2650 2579 2528 2586 2298 2605 
C 2317 2413 2317 2336 2317 2022 
L 2317 269 
C 2317 -64 2304 -275 2285 -448 
L 2816 -448 
C 2790 -282 2778 -70 2778 269 
L 2778 621 
z
M 2778 1018 
L 2778 1421 
L 5069 1421 
L 5069 1018 
L 2778 1018 
z
M 2778 1811 
L 2778 2182 
L 5069 2182 
L 5069 1811 
L 2778 1811 
z
M 531 4934 
C 966 4646 1254 4403 1555 4070 
L 1869 4461 
C 1549 4781 1274 4998 845 5280 
L 531 4934 
z
M 282 3373 
C 717 3110 960 2918 1370 2522 
L 1670 2938 
C 1267 3283 992 3488 570 3738 
L 282 3373 
z
M 1274 1888 
C 966 1011 621 333 307 -6 
L 742 -397 
C 774 -326 794 -294 832 -218 
C 1267 563 1389 838 1683 1600 
L 1274 1888 
z
" transform="scale(0.015625)"/>
      <path id="HiraginoSans-W4-6c34" d="M 5280 4301 
C 5088 3904 4678 3450 3974 2854 
C 3706 3334 3565 3699 3475 4134 
L 3475 4602 
C 3475 4845 3488 5043 3520 5254 
L 2938 5254 
C 2970 5050 2982 4845 2982 4602 
L 2982 275 
C 2982 134 2944 102 2778 102 
C 2515 102 2272 122 1901 179 
C 1984 -26 2010 -128 2029 -346 
C 2323 -371 2611 -384 2842 -384 
C 3341 -384 3482 -262 3482 166 
L 3482 1958 
C 3482 2266 3475 2458 3443 3136 
C 3699 2413 4006 1869 4467 1331 
C 4819 928 5325 499 5786 211 
C 5946 461 5997 525 6176 691 
C 5357 1120 4787 1632 4224 2451 
C 4787 2912 5203 3309 5555 3718 
C 5664 3846 5664 3846 5754 3930 
L 5280 4301 
z
M 2413 3763 
C 2291 3744 2150 3738 1818 3738 
L 1139 3738 
C 819 3738 672 3744 499 3770 
L 499 3213 
C 653 3238 858 3251 1114 3251 
L 2099 3251 
C 1907 2560 1677 2099 1286 1587 
C 973 1184 653 883 256 608 
C 448 474 538 397 685 218 
C 1587 947 2208 1882 2560 3072 
C 2630 3328 2643 3354 2694 3482 
L 2413 3763 
z
" transform="scale(0.015625)"/>
      <path id="HiraginoSans-W4-56fd" d="M 2912 3674 
L 2912 2771 
L 2266 2771 
C 1978 2771 1850 2778 1696 2803 
L 1696 2336 
C 1862 2362 1997 2368 2266 2368 
L 2912 2368 
L 2912 1299 
L 2003 1299 
C 1728 1299 1562 1312 1382 1338 
L 1382 845 
C 1574 870 1734 877 2003 877 
L 4403 877 
C 4653 877 4851 864 5030 845 
L 5030 1338 
C 4851 1312 4678 1299 4403 1299 
L 3386 1299 
L 3386 2368 
L 4134 2368 
C 4403 2368 4538 2362 4704 2336 
L 4704 2803 
C 4550 2778 4422 2771 4134 2771 
L 3386 2771 
L 3386 3674 
L 4320 3674 
C 4608 3674 4762 3667 4934 3642 
L 4934 4122 
C 4774 4090 4608 4083 4320 4083 
L 2086 4083 
C 1792 4083 1677 4090 1491 4122 
L 1491 3642 
C 1658 3667 1811 3674 2086 3674 
L 2912 3674 
z
M 3834 2118 
C 4045 1882 4147 1741 4365 1357 
L 4710 1568 
C 4506 1901 4390 2054 4154 2304 
L 3834 2118 
z
M 538 358 
C 538 -96 525 -314 499 -493 
L 1030 -493 
L 1030 -115 
L 5370 -115 
L 5370 -493 
L 5894 -493 
C 5869 -314 5856 -83 5856 358 
L 5856 4326 
C 5856 4653 5869 4877 5894 5107 
C 5651 5082 5472 5075 5133 5075 
L 1254 5075 
C 902 5075 710 5082 499 5107 
C 525 4845 538 4621 538 4326 
L 538 358 
z
M 1030 4640 
L 5363 4640 
L 5363 320 
L 1030 320 
L 1030 4640 
z
" transform="scale(0.015625)"/>
      <path id="HiraginoSans-W4-660e" d="M 5363 1600 
L 5363 288 
C 5363 115 5318 70 5146 70 
C 4941 70 4710 96 4390 147 
C 4461 -26 4493 -160 4518 -371 
C 4768 -384 4998 -397 5133 -397 
C 5690 -397 5850 -262 5850 198 
L 5850 4397 
C 5850 4698 5856 4890 5875 5043 
C 5702 5024 5555 5018 5242 5018 
L 3866 5018 
C 3571 5018 3405 5024 3226 5043 
C 3251 4851 3258 4486 3258 3802 
C 3258 2291 3187 1613 2970 1050 
C 2778 557 2522 224 2048 -147 
C 2227 -269 2317 -352 2445 -512 
C 2835 -173 3027 64 3226 442 
C 3411 794 3526 1152 3603 1600 
L 5363 1600 
z
M 5363 3123 
L 5363 2035 
L 3661 2035 
C 3693 2374 3712 2637 3725 3123 
L 5363 3123 
z
M 5363 3552 
L 3738 3552 
C 3738 3629 3738 3654 3738 3770 
L 3738 4576 
L 5363 4576 
L 5363 3552 
z
M 582 1389 
C 582 1107 570 883 544 685 
L 1056 685 
L 1056 1184 
L 2195 1184 
L 2195 896 
L 2675 896 
C 2662 1069 2656 1197 2656 1530 
L 2656 4294 
C 2656 4614 2662 4736 2675 4896 
C 2515 4883 2400 4877 2106 4877 
L 1325 4877 
C 909 4877 755 4883 557 4896 
C 576 4704 582 4557 582 4275 
L 582 1389 
z
M 1050 4442 
L 2195 4442 
L 2195 3302 
L 1050 3302 
L 1050 4442 
z
M 1050 2880 
L 2195 2880 
L 2195 1613 
L 1050 1613 
L 1050 2880 
z
" transform="scale(0.015625)"/>
     </defs>
     <use xlink:href="#HiraginoSans-W4-6e05"/>
     <use xlink:href="#HiraginoSans-W4-6c34" x="99.999985"/>
     <use xlink:href="#HiraginoSans-W4-20" x="199.999969"/>
     <use xlink:href="#HiraginoSans-W4-56fd" x="233.299957"/>
     <use xlink:href="#HiraginoSans-W4-660e" x="333.299942"/>
    </g>
   </g>
   <g id="text_23">
    <!-- ドクター・中松 -->
    <g transform="translate(121.820201 185.98306) scale(0.1 -0.1)">
     <defs>
      <path id="HiraginoSans-W4-30c9" d="M 2426 -224 
C 2400 -26 2394 179 2394 518 
L 2394 2189 
C 2394 2445 2387 2554 2368 2714 
C 2464 2662 2483 2650 2579 2611 
C 3488 2221 4371 1747 4934 1350 
L 5254 1907 
C 4166 2534 3296 2944 2394 3258 
L 2394 4403 
C 2394 4762 2400 4941 2426 5120 
L 1779 5120 
C 1811 4954 1818 4806 1818 4416 
L 1818 518 
C 1818 154 1811 -13 1779 -224 
L 2426 -224 
z
M 4006 4666 
C 4269 4371 4474 4051 4672 3654 
L 5050 3866 
C 4826 4282 4678 4499 4378 4858 
L 4006 4666 
z
M 4749 5011 
C 5030 4678 5222 4390 5408 4019 
L 5779 4230 
C 5549 4653 5408 4851 5107 5203 
L 4749 5011 
z
" transform="scale(0.015625)"/>
      <path id="HiraginoSans-W4-30af" d="M 2669 5229 
C 2637 5005 2522 4730 2285 4320 
C 1830 3520 1357 2995 666 2534 
C 890 2400 960 2336 1101 2144 
C 1709 2611 2208 3155 2618 3795 
L 4710 3827 
C 4480 3027 4096 2304 3616 1741 
C 3008 1024 2342 557 1376 166 
C 1574 0 1638 -77 1760 -301 
C 2707 128 3411 634 4000 1306 
C 4550 1939 5005 2790 5286 3731 
C 5363 3968 5370 3981 5427 4064 
L 5114 4371 
C 5011 4333 4973 4326 4742 4320 
C 4550 4314 4006 4307 3110 4294 
C 3072 4294 3072 4294 3034 4294 
C 2925 4288 2925 4288 2874 4275 
C 2950 4403 3002 4506 3155 4832 
C 3232 5005 3238 5005 3296 5082 
L 2669 5229 
z
" transform="scale(0.015625)"/>
      <path id="HiraginoSans-W4-30bf" d="M 2650 5299 
C 2592 5069 2470 4787 2272 4422 
C 1862 3693 1344 3110 646 2598 
C 864 2470 941 2413 1094 2234 
C 1728 2746 2176 3245 2611 3930 
L 4774 3955 
C 4563 3309 4288 2746 3942 2208 
C 3424 2630 3098 2854 2560 3162 
L 2208 2771 
C 2707 2496 3149 2176 3610 1766 
C 3290 1376 3008 1120 2522 787 
C 2099 506 1760 326 1216 109 
C 1395 -51 1459 -128 1594 -365 
C 2938 262 3802 973 4448 1984 
C 4736 2438 5069 3130 5299 3750 
C 5402 4045 5414 4064 5485 4173 
L 5158 4499 
C 5043 4454 4922 4435 4736 4435 
C 2944 4416 2944 4416 2848 4397 
C 2899 4486 2963 4595 3034 4736 
C 3174 5030 3174 5030 3245 5146 
L 2650 5299 
z
" transform="scale(0.015625)"/>
      <path id="HiraginoSans-W4-30fc" d="M 531 2131 
C 755 2157 915 2163 1421 2163 
L 5005 2163 
C 5446 2163 5632 2157 5875 2131 
L 5875 2765 
C 5651 2733 5523 2726 5011 2726 
L 1414 2726 
C 973 2726 736 2739 531 2765 
L 531 2131 
z
" transform="scale(0.015625)"/>
      <path id="HiraginoSans-W4-30fb" d="M 3206 3027 
C 2880 3027 2611 2758 2611 2432 
C 2611 2112 2880 1843 3206 1843 
C 3526 1843 3795 2112 3795 2438 
C 3795 2765 3533 3027 3206 3027 
z
" transform="scale(0.015625)"/>
      <path id="HiraginoSans-W4-4e2d" d="M 2906 4160 
L 1152 4160 
C 928 4160 806 4166 646 4186 
C 666 4019 678 3878 678 3667 
L 678 1850 
C 678 1626 666 1459 640 1267 
L 1184 1267 
L 1184 1683 
L 2906 1683 
L 2906 250 
C 2906 -96 2893 -275 2861 -499 
L 3462 -499 
C 3424 -294 3418 -122 3418 250 
L 3418 1683 
L 5229 1683 
L 5229 1267 
L 5766 1267 
C 5741 1453 5734 1619 5734 1850 
L 5734 3661 
C 5734 3885 5741 4019 5760 4186 
C 5606 4166 5485 4160 5254 4160 
L 3418 4160 
L 3418 4678 
C 3418 4966 3430 5146 3456 5338 
L 2861 5338 
C 2893 5133 2906 4979 2906 4666 
L 2906 4160 
z
M 2906 3693 
L 2906 2150 
L 1184 2150 
L 1184 3693 
L 2906 3693 
z
M 3418 2150 
L 3418 3693 
L 5229 3693 
L 5229 2150 
L 3418 2150 
z
" transform="scale(0.015625)"/>
      <path id="HiraginoSans-W4-677e" d="M 2118 3648 
C 2272 3648 2394 3642 2534 3629 
L 2534 4102 
C 2419 4083 2291 4077 2112 4077 
L 1773 4077 
L 1773 4666 
C 1773 4973 1779 5158 1805 5325 
L 1267 5325 
C 1293 5171 1299 5018 1299 4659 
L 1299 4077 
L 864 4077 
C 653 4077 499 4083 403 4102 
L 403 3622 
C 518 3642 666 3648 864 3648 
L 1242 3648 
C 1178 3398 1056 3034 915 2701 
C 730 2240 506 1862 211 1491 
C 339 1338 410 1210 486 1011 
C 870 1549 1082 2016 1338 2899 
C 1312 2477 1306 2157 1306 1894 
L 1306 256 
C 1306 -77 1293 -314 1267 -499 
L 1811 -499 
C 1786 -320 1773 -83 1773 256 
L 1773 2054 
C 1773 2381 1760 2746 1741 3078 
C 1926 2573 2074 2298 2355 1901 
C 2426 2080 2496 2208 2605 2336 
C 2234 2758 2074 3021 1798 3648 
L 2118 3648 
z
M 2458 -205 
C 2573 -179 2630 -166 2829 -147 
C 3917 -26 4230 26 5357 250 
C 5427 83 5466 -13 5581 -326 
L 6048 -83 
C 5696 755 5517 1101 4954 2048 
L 4525 1837 
C 4890 1235 5005 1024 5178 666 
C 4429 525 4429 525 3469 410 
C 3840 1331 4032 1901 4416 3238 
L 3872 3379 
C 3738 2624 3379 1446 2944 358 
C 2803 346 2650 339 2528 339 
C 2464 339 2432 339 2355 346 
L 2458 -205 
z
M 4486 4986 
C 4915 3827 5248 3200 5779 2554 
C 5933 2746 6016 2822 6170 2950 
C 5862 3270 5683 3526 5459 3930 
C 5222 4378 5075 4730 4947 5171 
L 4486 4986 
z
M 3373 5152 
C 3290 4678 3187 4333 3002 3910 
C 2810 3462 2637 3174 2381 2874 
C 2554 2765 2630 2701 2797 2534 
C 3232 3149 3590 3955 3885 4986 
L 3373 5152 
z
" transform="scale(0.015625)"/>
     </defs>
     <use xlink:href="#HiraginoSans-W4-30c9"/>
     <use xlink:href="#HiraginoSans-W4-30af" x="99.999985"/>
     <use xlink:href="#HiraginoSans-W4-30bf" x="199.999969"/>
     <use xlink:href="#HiraginoSans-W4-30fc" x="299.999954"/>
     <use xlink:href="#HiraginoSans-W4-30fb" x="399.999939"/>
     <use xlink:href="#HiraginoSans-W4-4e2d" x="499.999924"/>
     <use xlink:href="#HiraginoSans-W4-677e" x="599.999908"/>
    </g>
   </g>
  </g>
 </g>
 <defs>
  <clipPath id="pb8a2374e90">
   <rect x="46.559375" y="7.2" width="357.12" height="354.816"/>
  </clipPath>
 </defs>
</svg>
