<?xml version="1.0" encoding="utf-8" standalone="no"?>
<!DOCTYPE svg PUBLIC "-//W3C//DTD SVG 1.1//EN"
  "http://www.w3.org/Graphics/SVG/1.1/DTD/svg11.dtd">
<!-- Created with matplotlib (https://matplotlib.org/) -->
<svg height="296.902625pt" version="1.1" viewBox="0 0 397.415312 296.902625" width="397.415312pt" xmlns="http://www.w3.org/2000/svg" xmlns:xlink="http://www.w3.org/1999/xlink">
 <metadata>
  <rdf:RDF xmlns:cc="http://creativecommons.org/ns#" xmlns:dc="http://purl.org/dc/elements/1.1/" xmlns:rdf="http://www.w3.org/1999/02/22-rdf-syntax-ns#">
   <cc:Work>
    <dc:type rdf:resource="http://purl.org/dc/dcmitype/StillImage"/>
    <dc:date>2020-08-17T17:49:56.652526</dc:date>
    <dc:format>image/svg+xml</dc:format>
    <dc:creator>
     <cc:Agent>
      <dc:title>Matplotlib v3.3.0, https://matplotlib.org/</dc:title>
     </cc:Agent>
    </dc:creator>
   </cc:Work>
  </rdf:RDF>
 </metadata>
 <defs>
  <style type="text/css">*{stroke-linecap:butt;stroke-linejoin:round;}</style>
 </defs>
 <g id="figure_1">
  <g id="patch_1">
   <path d="M 0 296.902625 
L 397.415312 296.902625 
L 397.415312 0 
L 0 0 
z
" style="fill:#ffffff;"/>
  </g>
  <g id="axes_1">
   <g id="patch_2">
    <path d="M 33.095313 273.312 
L 390.215312 273.312 
L 390.215312 7.2 
L 33.095313 7.2 
z
" style="fill:#ffffff;"/>
   </g>
   <g id="matplotlib.axis_1">
    <g id="xtick_1">
     <g id="line2d_1">
      <defs>
       <path d="M 0 0 
L 0 3.5 
" id="m7380ab3f65" style="stroke:#000000;stroke-width:0.8;"/>
      </defs>
      <g>
       <use style="stroke:#000000;stroke-width:0.8;" x="78.842089" xlink:href="#m7380ab3f65" y="273.312"/>
      </g>
     </g>
     <g id="text_1">
      <!-- 2 -->
      <g transform="translate(75.692871 287.802625)scale(0.1 -0.1)">
       <defs>
        <path d="M 57.171875 0.984375 
L 6.984375 0.984375 
L 6.984375 9.28125 
Q 12.890625 23.046875 29.59375 34.421875 
L 32.375 36.28125 
Q 40.921875 42.140625 43.609375 45.40625 
Q 46.6875 49.265625 46.6875 53.8125 
Q 46.6875 58.9375 43.0625 62.546875 
Q 39.0625 66.546875 32.5625 66.546875 
Q 19.53125 66.546875 15.484375 52 
L 7.765625 54.78125 
Q 13.328125 73.828125 33.0625 73.828125 
Q 43.84375 73.828125 50.25 67.4375 
Q 55.859375 61.671875 55.859375 53.515625 
Q 55.859375 47.46875 52.25 42.53125 
Q 48.921875 37.75 36.96875 30.28125 
L 34.859375 29 
Q 19.625 19.578125 15.28125 8.890625 
L 57.171875 8.890625 
z
" id="IPAexGothic-50"/>
       </defs>
       <use xlink:href="#IPAexGothic-50"/>
      </g>
     </g>
    </g>
    <g id="xtick_2">
     <g id="line2d_2">
      <g>
       <use style="stroke:#000000;stroke-width:0.8;" x="137.870189" xlink:href="#m7380ab3f65" y="273.312"/>
      </g>
     </g>
     <g id="text_2">
      <!-- 4 -->
      <g transform="translate(134.72097 287.802625)scale(0.1 -0.1)">
       <defs>
        <path d="M 59.578125 18.109375 
L 47.796875 18.109375 
L 47.796875 0.984375 
L 39.796875 0.984375 
L 39.796875 18.109375 
L 3.078125 18.109375 
L 3.078125 26.125 
L 38.375 73.09375 
L 47.796875 73.09375 
L 47.796875 25.53125 
L 59.578125 25.53125 
z
M 40.28125 64.203125 
L 39.984375 64.203125 
Q 35.59375 57.125 31.296875 51.3125 
L 11.859375 25.53125 
L 39.796875 25.53125 
L 39.796875 49.125 
Q 39.796875 54.390625 40.28125 64.203125 
z
" id="IPAexGothic-52"/>
       </defs>
       <use xlink:href="#IPAexGothic-52"/>
      </g>
     </g>
    </g>
    <g id="xtick_3">
     <g id="line2d_3">
      <g>
       <use style="stroke:#000000;stroke-width:0.8;" x="196.898288" xlink:href="#m7380ab3f65" y="273.312"/>
      </g>
     </g>
     <g id="text_3">
      <!-- 6 -->
      <g transform="translate(193.749069 287.802625)scale(0.1 -0.1)">
       <defs>
        <path d="M 16.5 36.375 
Q 23.578125 46.578125 34.90625 46.578125 
Q 45.40625 46.578125 51.8125 39.265625 
Q 57.421875 32.90625 57.421875 23.78125 
Q 57.421875 13.8125 51.125 6.78125 
Q 44.578125 -0.484375 34.03125 -0.484375 
Q 21.484375 -0.484375 14.40625 9.078125 
Q 7.515625 18.40625 7.515625 34.8125 
Q 7.515625 53.515625 15.828125 64.203125 
Q 23.34375 73.828125 35.5 73.828125 
Q 49.859375 73.828125 56.390625 62.890625 
L 49.21875 58.984375 
Q 45.21875 66.65625 35.9375 66.65625 
Q 17.484375 66.65625 16.109375 36.375 
z
M 33.453125 39.796875 
Q 26.3125 39.796875 21.625 34.46875 
Q 17.4375 29.6875 17.4375 24.078125 
Q 17.4375 18.0625 21.140625 13.1875 
Q 26.125 6.6875 33.734375 6.6875 
Q 41.703125 6.6875 45.953125 13.1875 
Q 48.828125 17.625 48.828125 23.484375 
Q 48.828125 30.375 45.015625 34.8125 
Q 40.625 39.796875 33.453125 39.796875 
z
" id="IPAexGothic-54"/>
       </defs>
       <use xlink:href="#IPAexGothic-54"/>
      </g>
     </g>
    </g>
    <g id="xtick_4">
     <g id="line2d_4">
      <g>
       <use style="stroke:#000000;stroke-width:0.8;" x="255.926387" xlink:href="#m7380ab3f65" y="273.312"/>
      </g>
     </g>
     <g id="text_4">
      <!-- 8 -->
      <g transform="translate(252.777168 287.802625)scale(0.1 -0.1)">
       <defs>
        <path d="M 39.703125 37.890625 
Q 57.8125 31.734375 57.8125 18.703125 
Q 57.8125 8.453125 48.4375 3.078125 
Q 41.609375 -0.875 31.5 -0.875 
Q 21.34375 -0.875 14.5 3.078125 
Q 5.421875 8.296875 5.421875 18.40625 
Q 5.421875 31.0625 22.015625 37.203125 
L 22.015625 37.5 
Q 7.515625 42.71875 7.515625 54.828125 
Q 7.515625 64.0625 15.328125 69.625 
Q 21.96875 74.3125 31.546875 74.3125 
Q 42.234375 74.3125 48.921875 68.796875 
Q 55.515625 63.578125 55.515625 55.71875 
Q 55.515625 42.28125 39.703125 38.1875 
z
M 31.59375 41.015625 
Q 46.828125 44.625 46.828125 55.125 
Q 46.828125 61.1875 41.796875 64.84375 
Q 37.703125 67.921875 31.5 67.921875 
Q 25.09375 67.921875 20.796875 64.5 
Q 16.40625 60.890625 16.40625 55.03125 
Q 16.40625 49.21875 21.09375 45.703125 
Q 23.34375 43.890625 26.90625 42.53125 
Q 31 40.875 31.59375 41.015625 
z
M 30.90625 34.515625 
Q 14.40625 30.171875 14.40625 19 
Q 14.40625 12.109375 20.515625 8.6875 
Q 25.09375 6.109375 31.390625 6.109375 
Q 40.234375 6.109375 45.015625 10.890625 
Q 48.53125 14.40625 48.53125 19.53125 
Q 48.53125 24.90625 43.65625 28.90625 
Q 40.765625 31.15625 36.71875 32.8125 
Q 31.984375 34.71875 30.90625 34.515625 
z
" id="IPAexGothic-56"/>
       </defs>
       <use xlink:href="#IPAexGothic-56"/>
      </g>
     </g>
    </g>
    <g id="xtick_5">
     <g id="line2d_5">
      <g>
       <use style="stroke:#000000;stroke-width:0.8;" x="314.954486" xlink:href="#m7380ab3f65" y="273.312"/>
      </g>
     </g>
     <g id="text_5">
      <!-- 10 -->
      <g transform="translate(308.656049 287.802625)scale(0.1 -0.1)">
       <defs>
        <path d="M 38.484375 0.984375 
L 29.6875 0.984375 
L 29.6875 64.109375 
Q 21.4375 61.28125 12.3125 59.328125 
L 10.6875 66.109375 
Q 23.734375 69.390625 32.90625 73.921875 
L 38.484375 73.921875 
z
" id="IPAexGothic-49"/>
        <path d="M 31.84375 73.828125 
Q 45.015625 73.828125 52.09375 61.625 
Q 57.71875 51.953125 57.71875 36.625 
Q 57.71875 21.4375 52.09375 11.578125 
Q 45.125 -0.484375 31.5 -0.484375 
Q 17.921875 -0.484375 10.9375 11.578125 
Q 5.328125 21.4375 5.328125 36.71875 
Q 5.328125 58.015625 15.625 67.71875 
Q 22.171875 73.828125 31.84375 73.828125 
z
M 31.5 66.65625 
Q 23.6875 66.65625 19.1875 58.734375 
Q 14.59375 50.734375 14.59375 36.625 
Q 14.59375 22.75 19.09375 14.796875 
Q 23.640625 6.984375 31.5 6.984375 
Q 40.921875 6.984375 45.453125 18.015625 
Q 48.4375 25.34375 48.4375 37.109375 
Q 48.4375 50.875 43.84375 58.734375 
Q 39.203125 66.65625 31.5 66.65625 
z
" id="IPAexGothic-48"/>
       </defs>
       <use xlink:href="#IPAexGothic-49"/>
       <use x="62.988281" xlink:href="#IPAexGothic-48"/>
      </g>
     </g>
    </g>
    <g id="xtick_6">
     <g id="line2d_6">
      <g>
       <use style="stroke:#000000;stroke-width:0.8;" x="373.982585" xlink:href="#m7380ab3f65" y="273.312"/>
      </g>
     </g>
     <g id="text_6">
      <!-- 12 -->
      <g transform="translate(367.684148 287.802625)scale(0.1 -0.1)">
       <use xlink:href="#IPAexGothic-49"/>
       <use x="62.988281" xlink:href="#IPAexGothic-50"/>
      </g>
     </g>
    </g>
   </g>
   <g id="matplotlib.axis_2">
    <g id="ytick_1">
     <g id="line2d_7">
      <defs>
       <path d="M 0 0 
L -3.5 0 
" id="mc582b84aff" style="stroke:#000000;stroke-width:0.8;"/>
      </defs>
      <g>
       <use style="stroke:#000000;stroke-width:0.8;" x="33.095313" xlink:href="#mc582b84aff" y="261.776335"/>
      </g>
     </g>
     <g id="text_7">
      <!-- 250 -->
      <g transform="translate(7.2 265.521647)scale(0.1 -0.1)">
       <defs>
        <path d="M 18.40625 40.671875 
Q 25.53125 46.296875 33.9375 46.296875 
Q 44 46.296875 50.640625 39.5 
Q 56.84375 33.015625 56.84375 23.390625 
Q 56.84375 14.65625 51.515625 8.015625 
Q 44.828125 -0.484375 31.734375 -0.484375 
Q 14.984375 -0.484375 7.328125 12.25 
L 14.65625 16.0625 
Q 20.453125 6.78125 31.453125 6.78125 
Q 38.53125 6.78125 43.265625 11.1875 
Q 48.140625 15.828125 48.140625 23.484375 
Q 48.140625 30.71875 43.84375 35.015625 
Q 39.359375 39.5 32.125 39.5 
Q 21.96875 39.5 16.75 31.6875 
L 9.234375 32.671875 
L 13.8125 72.40625 
L 53.21875 72.40625 
L 53.21875 64.890625 
L 20.953125 64.890625 
L 17.71875 40.671875 
z
" id="IPAexGothic-53"/>
       </defs>
       <use xlink:href="#IPAexGothic-50"/>
       <use x="62.988281" xlink:href="#IPAexGothic-53"/>
       <use x="125.976562" xlink:href="#IPAexGothic-48"/>
      </g>
     </g>
    </g>
    <g id="ytick_2">
     <g id="line2d_8">
      <g>
       <use style="stroke:#000000;stroke-width:0.8;" x="33.095313" xlink:href="#mc582b84aff" y="226.755414"/>
      </g>
     </g>
     <g id="text_8">
      <!-- 275 -->
      <g transform="translate(7.2 230.500727)scale(0.1 -0.1)">
       <defs>
        <path d="M 56.203125 66.609375 
Q 34.96875 32.90625 27.78125 0.984375 
L 17.671875 0.984375 
Q 24.703125 28.65625 46.09375 64.5 
L 6.6875 64.5 
L 6.6875 72.40625 
L 56.203125 72.40625 
z
" id="IPAexGothic-55"/>
       </defs>
       <use xlink:href="#IPAexGothic-50"/>
       <use x="62.988281" xlink:href="#IPAexGothic-55"/>
       <use x="125.976562" xlink:href="#IPAexGothic-53"/>
      </g>
     </g>
    </g>
    <g id="ytick_3">
     <g id="line2d_9">
      <g>
       <use style="stroke:#000000;stroke-width:0.8;" x="33.095313" xlink:href="#mc582b84aff" y="191.734494"/>
      </g>
     </g>
     <g id="text_9">
      <!-- 300 -->
      <g transform="translate(7.2 195.479806)scale(0.1 -0.1)">
       <defs>
        <path d="M 37.203125 37.796875 
Q 54.78125 34.625 54.78125 19.96875 
Q 54.78125 11.1875 48.875 5.5625 
Q 42.328125 -0.484375 30.375 -0.484375 
Q 12.453125 -0.484375 4.5 13.765625 
L 11.8125 17.671875 
Q 17.328125 6.890625 30.28125 6.890625 
Q 37.890625 6.890625 42.09375 10.796875 
Q 46.09375 14.5 46.09375 20.171875 
Q 46.09375 26.859375 40.09375 30.90625 
Q 34.625 34.578125 25.6875 34.578125 
L 21.296875 34.578125 
L 21.296875 41.703125 
L 25.875 41.703125 
Q 34.859375 41.703125 39.59375 45.125 
Q 44.671875 48.734375 44.671875 54.828125 
Q 44.671875 61.46875 38.96875 64.65625 
Q 35.296875 66.84375 30.171875 66.84375 
Q 19.34375 66.84375 14.109375 55.90625 
L 6.78125 59.421875 
Q 14.015625 73.828125 30.28125 73.828125 
Q 40.578125 73.828125 46.96875 68.65625 
Q 53.375 63.578125 53.375 55.21875 
Q 53.375 47.3125 47.171875 42.28125 
Q 43.171875 39.0625 37.203125 38.1875 
z
" id="IPAexGothic-51"/>
       </defs>
       <use xlink:href="#IPAexGothic-51"/>
       <use x="62.988281" xlink:href="#IPAexGothic-48"/>
       <use x="125.976562" xlink:href="#IPAexGothic-48"/>
      </g>
     </g>
    </g>
    <g id="ytick_4">
     <g id="line2d_10">
      <g>
       <use style="stroke:#000000;stroke-width:0.8;" x="33.095313" xlink:href="#mc582b84aff" y="156.713573"/>
      </g>
     </g>
     <g id="text_10">
      <!-- 325 -->
      <g transform="translate(7.2 160.458886)scale(0.1 -0.1)">
       <use xlink:href="#IPAexGothic-51"/>
       <use x="62.988281" xlink:href="#IPAexGothic-50"/>
       <use x="125.976562" xlink:href="#IPAexGothic-53"/>
      </g>
     </g>
    </g>
    <g id="ytick_5">
     <g id="line2d_11">
      <g>
       <use style="stroke:#000000;stroke-width:0.8;" x="33.095313" xlink:href="#mc582b84aff" y="121.692653"/>
      </g>
     </g>
     <g id="text_11">
      <!-- 350 -->
      <g transform="translate(7.2 125.437965)scale(0.1 -0.1)">
       <use xlink:href="#IPAexGothic-51"/>
       <use x="62.988281" xlink:href="#IPAexGothic-53"/>
       <use x="125.976562" xlink:href="#IPAexGothic-48"/>
      </g>
     </g>
    </g>
    <g id="ytick_6">
     <g id="line2d_12">
      <g>
       <use style="stroke:#000000;stroke-width:0.8;" x="33.095313" xlink:href="#mc582b84aff" y="86.671732"/>
      </g>
     </g>
     <g id="text_12">
      <!-- 375 -->
      <g transform="translate(7.2 90.417045)scale(0.1 -0.1)">
       <use xlink:href="#IPAexGothic-51"/>
       <use x="62.988281" xlink:href="#IPAexGothic-55"/>
       <use x="125.976562" xlink:href="#IPAexGothic-53"/>
      </g>
     </g>
    </g>
    <g id="ytick_7">
     <g id="line2d_13">
      <g>
       <use style="stroke:#000000;stroke-width:0.8;" x="33.095313" xlink:href="#mc582b84aff" y="51.650812"/>
      </g>
     </g>
     <g id="text_13">
      <!-- 400 -->
      <g transform="translate(7.2 55.396124)scale(0.1 -0.1)">
       <use xlink:href="#IPAexGothic-52"/>
       <use x="62.988281" xlink:href="#IPAexGothic-48"/>
       <use x="125.976562" xlink:href="#IPAexGothic-48"/>
      </g>
     </g>
    </g>
    <g id="ytick_8">
     <g id="line2d_14">
      <g>
       <use style="stroke:#000000;stroke-width:0.8;" x="33.095313" xlink:href="#mc582b84aff" y="16.629891"/>
      </g>
     </g>
     <g id="text_14">
      <!-- 425 -->
      <g transform="translate(7.2 20.375204)scale(0.1 -0.1)">
       <use xlink:href="#IPAexGothic-52"/>
       <use x="62.988281" xlink:href="#IPAexGothic-50"/>
       <use x="125.976562" xlink:href="#IPAexGothic-53"/>
      </g>
     </g>
    </g>
   </g>
   <g id="line2d_15">
    <path clip-path="url(#p6f0026225f)" d="M 49.32804 153.324452 
L 78.842089 176.675498 
L 108.356139 186.899347 
L 137.870189 210.505707 
L 167.384238 239.49851 
L 196.898288 231.051314 
L 226.412337 236.742025 
L 255.926387 215.684285 
L 285.440436 229.977339 
L 314.954486 255.31441 
L 344.468536 182.302192 
L 373.982585 221.106879 
" style="fill:none;stroke:#000000;stroke-linecap:square;stroke-opacity:0.2;stroke-width:1.5;"/>
    <defs>
     <path d="M 0 3 
C 0.795609 3 1.55874 2.683901 2.12132 2.12132 
C 2.683901 1.55874 3 0.795609 3 0 
C 3 -0.795609 2.683901 -1.55874 2.12132 -2.12132 
C 1.55874 -2.683901 0.795609 -3 0 -3 
C -0.795609 -3 -1.55874 -2.683901 -2.12132 -2.12132 
C -2.683901 -1.55874 -3 -0.795609 -3 0 
C -3 0.795609 -2.683901 1.55874 -2.12132 2.12132 
C -1.55874 2.683901 -0.795609 3 0 3 
z
" id="m2539d169cb" style="stroke:#000000;stroke-opacity:0.2;"/>
    </defs>
    <g clip-path="url(#p6f0026225f)">
     <use style="fill-opacity:0.2;stroke:#000000;stroke-opacity:0.2;" x="49.32804" xlink:href="#m2539d169cb" y="153.324452"/>
     <use style="fill-opacity:0.2;stroke:#000000;stroke-opacity:0.2;" x="78.842089" xlink:href="#m2539d169cb" y="176.675498"/>
     <use style="fill-opacity:0.2;stroke:#000000;stroke-opacity:0.2;" x="108.356139" xlink:href="#m2539d169cb" y="186.899347"/>
     <use style="fill-opacity:0.2;stroke:#000000;stroke-opacity:0.2;" x="137.870189" xlink:href="#m2539d169cb" y="210.505707"/>
     <use style="fill-opacity:0.2;stroke:#000000;stroke-opacity:0.2;" x="167.384238" xlink:href="#m2539d169cb" y="239.49851"/>
     <use style="fill-opacity:0.2;stroke:#000000;stroke-opacity:0.2;" x="196.898288" xlink:href="#m2539d169cb" y="231.051314"/>
     <use style="fill-opacity:0.2;stroke:#000000;stroke-opacity:0.2;" x="226.412337" xlink:href="#m2539d169cb" y="236.742025"/>
     <use style="fill-opacity:0.2;stroke:#000000;stroke-opacity:0.2;" x="255.926387" xlink:href="#m2539d169cb" y="215.684285"/>
     <use style="fill-opacity:0.2;stroke:#000000;stroke-opacity:0.2;" x="285.440436" xlink:href="#m2539d169cb" y="229.977339"/>
     <use style="fill-opacity:0.2;stroke:#000000;stroke-opacity:0.2;" x="314.954486" xlink:href="#m2539d169cb" y="255.31441"/>
     <use style="fill-opacity:0.2;stroke:#000000;stroke-opacity:0.2;" x="344.468536" xlink:href="#m2539d169cb" y="182.302192"/>
     <use style="fill-opacity:0.2;stroke:#000000;stroke-opacity:0.2;" x="373.982585" xlink:href="#m2539d169cb" y="221.106879"/>
    </g>
   </g>
   <g id="line2d_16">
    <path clip-path="url(#p6f0026225f)" d="M 49.32804 114.598092 
L 78.842089 169.221045 
L 108.356139 183.14872 
L 137.870189 221.152067 
L 167.384238 206.511063 
L 196.898288 219.564452 
L 226.412337 258.432402 
L 255.926387 208.6801 
L 285.440436 234.973657 
L 314.954486 230.731983 
L 344.468536 206.116418 
L 373.982585 211.255833 
" style="fill:none;stroke:#000000;stroke-linecap:square;stroke-opacity:0.2;stroke-width:1.5;"/>
    <g clip-path="url(#p6f0026225f)">
     <use style="fill-opacity:0.2;stroke:#000000;stroke-opacity:0.2;" x="49.32804" xlink:href="#m2539d169cb" y="114.598092"/>
     <use style="fill-opacity:0.2;stroke:#000000;stroke-opacity:0.2;" x="78.842089" xlink:href="#m2539d169cb" y="169.221045"/>
     <use style="fill-opacity:0.2;stroke:#000000;stroke-opacity:0.2;" x="108.356139" xlink:href="#m2539d169cb" y="183.14872"/>
     <use style="fill-opacity:0.2;stroke:#000000;stroke-opacity:0.2;" x="137.870189" xlink:href="#m2539d169cb" y="221.152067"/>
     <use style="fill-opacity:0.2;stroke:#000000;stroke-opacity:0.2;" x="167.384238" xlink:href="#m2539d169cb" y="206.511063"/>
     <use style="fill-opacity:0.2;stroke:#000000;stroke-opacity:0.2;" x="196.898288" xlink:href="#m2539d169cb" y="219.564452"/>
     <use style="fill-opacity:0.2;stroke:#000000;stroke-opacity:0.2;" x="226.412337" xlink:href="#m2539d169cb" y="258.432402"/>
     <use style="fill-opacity:0.2;stroke:#000000;stroke-opacity:0.2;" x="255.926387" xlink:href="#m2539d169cb" y="208.6801"/>
     <use style="fill-opacity:0.2;stroke:#000000;stroke-opacity:0.2;" x="285.440436" xlink:href="#m2539d169cb" y="234.973657"/>
     <use style="fill-opacity:0.2;stroke:#000000;stroke-opacity:0.2;" x="314.954486" xlink:href="#m2539d169cb" y="230.731983"/>
     <use style="fill-opacity:0.2;stroke:#000000;stroke-opacity:0.2;" x="344.468536" xlink:href="#m2539d169cb" y="206.116418"/>
     <use style="fill-opacity:0.2;stroke:#000000;stroke-opacity:0.2;" x="373.982585" xlink:href="#m2539d169cb" y="211.255833"/>
    </g>
   </g>
   <g id="line2d_17">
    <path clip-path="url(#p6f0026225f)" d="M 49.32804 100.499347 
L 78.842089 130.532416 
L 108.356139 178.991397 
L 137.870189 218.303699 
L 167.384238 189.565456 
L 196.898288 246.787381 
L 226.412337 241.577172 
L 255.926387 212.656669 
L 285.440436 254.772151 
L 314.954486 186.673406 
L 344.468536 160.682611 
L 373.982585 186.221523 
" style="fill:none;stroke:#000000;stroke-linecap:square;stroke-opacity:0.2;stroke-width:1.5;"/>
    <g clip-path="url(#p6f0026225f)">
     <use style="fill-opacity:0.2;stroke:#000000;stroke-opacity:0.2;" x="49.32804" xlink:href="#m2539d169cb" y="100.499347"/>
     <use style="fill-opacity:0.2;stroke:#000000;stroke-opacity:0.2;" x="78.842089" xlink:href="#m2539d169cb" y="130.532416"/>
     <use style="fill-opacity:0.2;stroke:#000000;stroke-opacity:0.2;" x="108.356139" xlink:href="#m2539d169cb" y="178.991397"/>
     <use style="fill-opacity:0.2;stroke:#000000;stroke-opacity:0.2;" x="137.870189" xlink:href="#m2539d169cb" y="218.303699"/>
     <use style="fill-opacity:0.2;stroke:#000000;stroke-opacity:0.2;" x="167.384238" xlink:href="#m2539d169cb" y="189.565456"/>
     <use style="fill-opacity:0.2;stroke:#000000;stroke-opacity:0.2;" x="196.898288" xlink:href="#m2539d169cb" y="246.787381"/>
     <use style="fill-opacity:0.2;stroke:#000000;stroke-opacity:0.2;" x="226.412337" xlink:href="#m2539d169cb" y="241.577172"/>
     <use style="fill-opacity:0.2;stroke:#000000;stroke-opacity:0.2;" x="255.926387" xlink:href="#m2539d169cb" y="212.656669"/>
     <use style="fill-opacity:0.2;stroke:#000000;stroke-opacity:0.2;" x="285.440436" xlink:href="#m2539d169cb" y="254.772151"/>
     <use style="fill-opacity:0.2;stroke:#000000;stroke-opacity:0.2;" x="314.954486" xlink:href="#m2539d169cb" y="186.673406"/>
     <use style="fill-opacity:0.2;stroke:#000000;stroke-opacity:0.2;" x="344.468536" xlink:href="#m2539d169cb" y="160.682611"/>
     <use style="fill-opacity:0.2;stroke:#000000;stroke-opacity:0.2;" x="373.982585" xlink:href="#m2539d169cb" y="186.221523"/>
    </g>
   </g>
   <g id="line2d_18">
    <path clip-path="url(#p6f0026225f)" d="M 49.32804 60.326962 
L 78.842089 120.541965 
L 108.356139 192.186377 
L 137.870189 177.25918 
L 167.384238 182.832402 
L 196.898288 261.216 
L 226.412337 189.610644 
L 255.926387 218.395582 
L 285.440436 232.0319 
L 314.954486 175.737841 
L 344.468536 171.002109 
L 373.982585 191.779682 
" style="fill:none;stroke:#000000;stroke-linecap:square;stroke-opacity:0.2;stroke-width:1.5;"/>
    <g clip-path="url(#p6f0026225f)">
     <use style="fill-opacity:0.2;stroke:#000000;stroke-opacity:0.2;" x="49.32804" xlink:href="#m2539d169cb" y="60.326962"/>
     <use style="fill-opacity:0.2;stroke:#000000;stroke-opacity:0.2;" x="78.842089" xlink:href="#m2539d169cb" y="120.541965"/>
     <use style="fill-opacity:0.2;stroke:#000000;stroke-opacity:0.2;" x="108.356139" xlink:href="#m2539d169cb" y="192.186377"/>
     <use style="fill-opacity:0.2;stroke:#000000;stroke-opacity:0.2;" x="137.870189" xlink:href="#m2539d169cb" y="177.25918"/>
     <use style="fill-opacity:0.2;stroke:#000000;stroke-opacity:0.2;" x="167.384238" xlink:href="#m2539d169cb" y="182.832402"/>
     <use style="fill-opacity:0.2;stroke:#000000;stroke-opacity:0.2;" x="196.898288" xlink:href="#m2539d169cb" y="261.216"/>
     <use style="fill-opacity:0.2;stroke:#000000;stroke-opacity:0.2;" x="226.412337" xlink:href="#m2539d169cb" y="189.610644"/>
     <use style="fill-opacity:0.2;stroke:#000000;stroke-opacity:0.2;" x="255.926387" xlink:href="#m2539d169cb" y="218.395582"/>
     <use style="fill-opacity:0.2;stroke:#000000;stroke-opacity:0.2;" x="285.440436" xlink:href="#m2539d169cb" y="232.0319"/>
     <use style="fill-opacity:0.2;stroke:#000000;stroke-opacity:0.2;" x="314.954486" xlink:href="#m2539d169cb" y="175.737841"/>
     <use style="fill-opacity:0.2;stroke:#000000;stroke-opacity:0.2;" x="344.468536" xlink:href="#m2539d169cb" y="171.002109"/>
     <use style="fill-opacity:0.2;stroke:#000000;stroke-opacity:0.2;" x="373.982585" xlink:href="#m2539d169cb" y="191.779682"/>
    </g>
   </g>
   <g id="line2d_19">
    <path clip-path="url(#p6f0026225f)" d="M 49.32804 64.167967 
L 78.842089 135.751051 
L 108.356139 176.2801 
L 137.870189 172.869891 
L 167.384238 216.407297 
L 196.898288 230.117423 
L 226.412337 217.311063 
L 255.926387 227.93031 
L 285.440436 193.041941 
L 314.954486 191.237423 
L 344.468536 200.933322 
L 373.982585 178.765456 
" style="fill:none;stroke:#000000;stroke-linecap:square;stroke-opacity:0.2;stroke-width:1.5;"/>
    <g clip-path="url(#p6f0026225f)">
     <use style="fill-opacity:0.2;stroke:#000000;stroke-opacity:0.2;" x="49.32804" xlink:href="#m2539d169cb" y="64.167967"/>
     <use style="fill-opacity:0.2;stroke:#000000;stroke-opacity:0.2;" x="78.842089" xlink:href="#m2539d169cb" y="135.751051"/>
     <use style="fill-opacity:0.2;stroke:#000000;stroke-opacity:0.2;" x="108.356139" xlink:href="#m2539d169cb" y="176.2801"/>
     <use style="fill-opacity:0.2;stroke:#000000;stroke-opacity:0.2;" x="137.870189" xlink:href="#m2539d169cb" y="172.869891"/>
     <use style="fill-opacity:0.2;stroke:#000000;stroke-opacity:0.2;" x="167.384238" xlink:href="#m2539d169cb" y="216.407297"/>
     <use style="fill-opacity:0.2;stroke:#000000;stroke-opacity:0.2;" x="196.898288" xlink:href="#m2539d169cb" y="230.117423"/>
     <use style="fill-opacity:0.2;stroke:#000000;stroke-opacity:0.2;" x="226.412337" xlink:href="#m2539d169cb" y="217.311063"/>
     <use style="fill-opacity:0.2;stroke:#000000;stroke-opacity:0.2;" x="255.926387" xlink:href="#m2539d169cb" y="227.93031"/>
     <use style="fill-opacity:0.2;stroke:#000000;stroke-opacity:0.2;" x="285.440436" xlink:href="#m2539d169cb" y="193.041941"/>
     <use style="fill-opacity:0.2;stroke:#000000;stroke-opacity:0.2;" x="314.954486" xlink:href="#m2539d169cb" y="191.237423"/>
     <use style="fill-opacity:0.2;stroke:#000000;stroke-opacity:0.2;" x="344.468536" xlink:href="#m2539d169cb" y="200.933322"/>
     <use style="fill-opacity:0.2;stroke:#000000;stroke-opacity:0.2;" x="373.982585" xlink:href="#m2539d169cb" y="178.765456"/>
    </g>
   </g>
   <g id="line2d_20">
    <path clip-path="url(#p6f0026225f)" d="M 49.32804 19.296 
L 78.842089 127.746269 
L 108.356139 165.570477 
L 137.870189 189.866711 
L 167.384238 221.513573 
L 196.898288 218.303699 
L 226.412337 206.556251 
L 255.926387 213.560435 
L 285.440436 213.587548 
L 314.954486 181.973824 
L 344.468536 184.216669 
L 373.982585 186.04077 
" style="fill:none;stroke:#000000;stroke-linecap:square;stroke-opacity:0.2;stroke-width:1.5;"/>
    <g clip-path="url(#p6f0026225f)">
     <use style="fill-opacity:0.2;stroke:#000000;stroke-opacity:0.2;" x="49.32804" xlink:href="#m2539d169cb" y="19.296"/>
     <use style="fill-opacity:0.2;stroke:#000000;stroke-opacity:0.2;" x="78.842089" xlink:href="#m2539d169cb" y="127.746269"/>
     <use style="fill-opacity:0.2;stroke:#000000;stroke-opacity:0.2;" x="108.356139" xlink:href="#m2539d169cb" y="165.570477"/>
     <use style="fill-opacity:0.2;stroke:#000000;stroke-opacity:0.2;" x="137.870189" xlink:href="#m2539d169cb" y="189.866711"/>
     <use style="fill-opacity:0.2;stroke:#000000;stroke-opacity:0.2;" x="167.384238" xlink:href="#m2539d169cb" y="221.513573"/>
     <use style="fill-opacity:0.2;stroke:#000000;stroke-opacity:0.2;" x="196.898288" xlink:href="#m2539d169cb" y="218.303699"/>
     <use style="fill-opacity:0.2;stroke:#000000;stroke-opacity:0.2;" x="226.412337" xlink:href="#m2539d169cb" y="206.556251"/>
     <use style="fill-opacity:0.2;stroke:#000000;stroke-opacity:0.2;" x="255.926387" xlink:href="#m2539d169cb" y="213.560435"/>
     <use style="fill-opacity:0.2;stroke:#000000;stroke-opacity:0.2;" x="285.440436" xlink:href="#m2539d169cb" y="213.587548"/>
     <use style="fill-opacity:0.2;stroke:#000000;stroke-opacity:0.2;" x="314.954486" xlink:href="#m2539d169cb" y="181.973824"/>
     <use style="fill-opacity:0.2;stroke:#000000;stroke-opacity:0.2;" x="344.468536" xlink:href="#m2539d169cb" y="184.216669"/>
     <use style="fill-opacity:0.2;stroke:#000000;stroke-opacity:0.2;" x="373.982585" xlink:href="#m2539d169cb" y="186.04077"/>
    </g>
   </g>
   <g id="line2d_21">
    <path clip-path="url(#p6f0026225f)" d="M 49.32804 116.541188 
L 78.842089 113.57746 
L 108.356139 147.58554 
L 137.870189 202.053992 
L 167.384238 182.425707 
L 196.898288 202.941188 
L 226.412337 243.701021 
L 255.926387 182.60646 
L 285.440436 195.563448 
L 314.954486 182.832402 
L 344.468536 143.125456 
L 373.982585 166.157925 
" style="fill:none;stroke:#000000;stroke-linecap:square;stroke-opacity:0.2;stroke-width:1.5;"/>
    <g clip-path="url(#p6f0026225f)">
     <use style="fill-opacity:0.2;stroke:#000000;stroke-opacity:0.2;" x="49.32804" xlink:href="#m2539d169cb" y="116.541188"/>
     <use style="fill-opacity:0.2;stroke:#000000;stroke-opacity:0.2;" x="78.842089" xlink:href="#m2539d169cb" y="113.57746"/>
     <use style="fill-opacity:0.2;stroke:#000000;stroke-opacity:0.2;" x="108.356139" xlink:href="#m2539d169cb" y="147.58554"/>
     <use style="fill-opacity:0.2;stroke:#000000;stroke-opacity:0.2;" x="137.870189" xlink:href="#m2539d169cb" y="202.053992"/>
     <use style="fill-opacity:0.2;stroke:#000000;stroke-opacity:0.2;" x="167.384238" xlink:href="#m2539d169cb" y="182.425707"/>
     <use style="fill-opacity:0.2;stroke:#000000;stroke-opacity:0.2;" x="196.898288" xlink:href="#m2539d169cb" y="202.941188"/>
     <use style="fill-opacity:0.2;stroke:#000000;stroke-opacity:0.2;" x="226.412337" xlink:href="#m2539d169cb" y="243.701021"/>
     <use style="fill-opacity:0.2;stroke:#000000;stroke-opacity:0.2;" x="255.926387" xlink:href="#m2539d169cb" y="182.60646"/>
     <use style="fill-opacity:0.2;stroke:#000000;stroke-opacity:0.2;" x="285.440436" xlink:href="#m2539d169cb" y="195.563448"/>
     <use style="fill-opacity:0.2;stroke:#000000;stroke-opacity:0.2;" x="314.954486" xlink:href="#m2539d169cb" y="182.832402"/>
     <use style="fill-opacity:0.2;stroke:#000000;stroke-opacity:0.2;" x="344.468536" xlink:href="#m2539d169cb" y="143.125456"/>
     <use style="fill-opacity:0.2;stroke:#000000;stroke-opacity:0.2;" x="373.982585" xlink:href="#m2539d169cb" y="166.157925"/>
    </g>
   </g>
   <g id="line2d_22">
    <path clip-path="url(#p6f0026225f)" d="M 49.32804 50.837423 
L 78.842089 101.330489 
L 108.356139 142.027381 
L 137.870189 186.224536 
L 167.384238 169.275916 
L 196.898288 198.084954 
L 226.412337 223.547046 
L 255.926387 185.091816 
L 285.440436 196.777506 
L 314.954486 166.519431 
L 344.468536 146.95441 
L 373.982585 159.786377 
" style="fill:none;stroke:#000000;stroke-linecap:square;stroke-opacity:0.2;stroke-width:1.5;"/>
    <g clip-path="url(#p6f0026225f)">
     <use style="fill-opacity:0.2;stroke:#000000;stroke-opacity:0.2;" x="49.32804" xlink:href="#m2539d169cb" y="50.837423"/>
     <use style="fill-opacity:0.2;stroke:#000000;stroke-opacity:0.2;" x="78.842089" xlink:href="#m2539d169cb" y="101.330489"/>
     <use style="fill-opacity:0.2;stroke:#000000;stroke-opacity:0.2;" x="108.356139" xlink:href="#m2539d169cb" y="142.027381"/>
     <use style="fill-opacity:0.2;stroke:#000000;stroke-opacity:0.2;" x="137.870189" xlink:href="#m2539d169cb" y="186.224536"/>
     <use style="fill-opacity:0.2;stroke:#000000;stroke-opacity:0.2;" x="167.384238" xlink:href="#m2539d169cb" y="169.275916"/>
     <use style="fill-opacity:0.2;stroke:#000000;stroke-opacity:0.2;" x="196.898288" xlink:href="#m2539d169cb" y="198.084954"/>
     <use style="fill-opacity:0.2;stroke:#000000;stroke-opacity:0.2;" x="226.412337" xlink:href="#m2539d169cb" y="223.547046"/>
     <use style="fill-opacity:0.2;stroke:#000000;stroke-opacity:0.2;" x="255.926387" xlink:href="#m2539d169cb" y="185.091816"/>
     <use style="fill-opacity:0.2;stroke:#000000;stroke-opacity:0.2;" x="285.440436" xlink:href="#m2539d169cb" y="196.777506"/>
     <use style="fill-opacity:0.2;stroke:#000000;stroke-opacity:0.2;" x="314.954486" xlink:href="#m2539d169cb" y="166.519431"/>
     <use style="fill-opacity:0.2;stroke:#000000;stroke-opacity:0.2;" x="344.468536" xlink:href="#m2539d169cb" y="146.95441"/>
     <use style="fill-opacity:0.2;stroke:#000000;stroke-opacity:0.2;" x="373.982585" xlink:href="#m2539d169cb" y="159.786377"/>
    </g>
   </g>
   <g id="line2d_23">
    <path clip-path="url(#p6f0026225f)" d="M 49.32804 38.275079 
L 78.842089 63.657984 
L 108.356139 135.926962 
L 137.870189 196.824201 
L 167.384238 154.228218 
L 196.898288 206.303197 
L 226.412337 184.73031 
L 255.926387 156.849138 
L 285.440436 212.747046 
L 314.954486 136.649975 
L 344.468536 140.043615 
L 373.982585 166.700184 
" style="fill:none;stroke:#000000;stroke-linecap:square;stroke-opacity:0.2;stroke-width:1.5;"/>
    <g clip-path="url(#p6f0026225f)">
     <use style="fill-opacity:0.2;stroke:#000000;stroke-opacity:0.2;" x="49.32804" xlink:href="#m2539d169cb" y="38.275079"/>
     <use style="fill-opacity:0.2;stroke:#000000;stroke-opacity:0.2;" x="78.842089" xlink:href="#m2539d169cb" y="63.657984"/>
     <use style="fill-opacity:0.2;stroke:#000000;stroke-opacity:0.2;" x="108.356139" xlink:href="#m2539d169cb" y="135.926962"/>
     <use style="fill-opacity:0.2;stroke:#000000;stroke-opacity:0.2;" x="137.870189" xlink:href="#m2539d169cb" y="196.824201"/>
     <use style="fill-opacity:0.2;stroke:#000000;stroke-opacity:0.2;" x="167.384238" xlink:href="#m2539d169cb" y="154.228218"/>
     <use style="fill-opacity:0.2;stroke:#000000;stroke-opacity:0.2;" x="196.898288" xlink:href="#m2539d169cb" y="206.303197"/>
     <use style="fill-opacity:0.2;stroke:#000000;stroke-opacity:0.2;" x="226.412337" xlink:href="#m2539d169cb" y="184.73031"/>
     <use style="fill-opacity:0.2;stroke:#000000;stroke-opacity:0.2;" x="255.926387" xlink:href="#m2539d169cb" y="156.849138"/>
     <use style="fill-opacity:0.2;stroke:#000000;stroke-opacity:0.2;" x="285.440436" xlink:href="#m2539d169cb" y="212.747046"/>
     <use style="fill-opacity:0.2;stroke:#000000;stroke-opacity:0.2;" x="314.954486" xlink:href="#m2539d169cb" y="136.649975"/>
     <use style="fill-opacity:0.2;stroke:#000000;stroke-opacity:0.2;" x="344.468536" xlink:href="#m2539d169cb" y="140.043615"/>
     <use style="fill-opacity:0.2;stroke:#000000;stroke-opacity:0.2;" x="373.982585" xlink:href="#m2539d169cb" y="166.700184"/>
    </g>
   </g>
   <g id="line2d_24">
    <path clip-path="url(#p6f0026225f)" d="M 49.32804 24.763782 
L 78.842089 65.45906 
L 108.356139 148.082611 
L 137.870189 172.216167 
L 167.384238 126.166293 
L 196.898288 224.747548 
L 226.412337 176.189724 
L 255.926387 173.342862 
L 285.440436 175.017841 
L 314.954486 141.439933 
L 344.468536 150.316418 
L 373.982585 151.426544 
" style="fill:none;stroke:#000000;stroke-linecap:square;stroke-opacity:0.2;stroke-width:1.5;"/>
    <g clip-path="url(#p6f0026225f)">
     <use style="fill-opacity:0.2;stroke:#000000;stroke-opacity:0.2;" x="49.32804" xlink:href="#m2539d169cb" y="24.763782"/>
     <use style="fill-opacity:0.2;stroke:#000000;stroke-opacity:0.2;" x="78.842089" xlink:href="#m2539d169cb" y="65.45906"/>
     <use style="fill-opacity:0.2;stroke:#000000;stroke-opacity:0.2;" x="108.356139" xlink:href="#m2539d169cb" y="148.082611"/>
     <use style="fill-opacity:0.2;stroke:#000000;stroke-opacity:0.2;" x="137.870189" xlink:href="#m2539d169cb" y="172.216167"/>
     <use style="fill-opacity:0.2;stroke:#000000;stroke-opacity:0.2;" x="167.384238" xlink:href="#m2539d169cb" y="126.166293"/>
     <use style="fill-opacity:0.2;stroke:#000000;stroke-opacity:0.2;" x="196.898288" xlink:href="#m2539d169cb" y="224.747548"/>
     <use style="fill-opacity:0.2;stroke:#000000;stroke-opacity:0.2;" x="226.412337" xlink:href="#m2539d169cb" y="176.189724"/>
     <use style="fill-opacity:0.2;stroke:#000000;stroke-opacity:0.2;" x="255.926387" xlink:href="#m2539d169cb" y="173.342862"/>
     <use style="fill-opacity:0.2;stroke:#000000;stroke-opacity:0.2;" x="285.440436" xlink:href="#m2539d169cb" y="175.017841"/>
     <use style="fill-opacity:0.2;stroke:#000000;stroke-opacity:0.2;" x="314.954486" xlink:href="#m2539d169cb" y="141.439933"/>
     <use style="fill-opacity:0.2;stroke:#000000;stroke-opacity:0.2;" x="344.468536" xlink:href="#m2539d169cb" y="150.316418"/>
     <use style="fill-opacity:0.2;stroke:#000000;stroke-opacity:0.2;" x="373.982585" xlink:href="#m2539d169cb" y="151.426544"/>
    </g>
   </g>
   <g id="line2d_25">
    <path clip-path="url(#p6f0026225f)" d="M 49.32804 114.598092 
L 78.842089 169.221045 
L 108.356139 183.14872 
L 137.870189 221.152067 
L 167.384238 206.511063 
L 196.898288 219.564452 
L 226.412337 258.432402 
L 255.926387 208.6801 
L 285.440436 234.973657 
L 314.954486 230.731983 
L 344.468536 206.116418 
L 373.982585 211.255833 
" style="fill:none;stroke:#1f77b4;stroke-linecap:square;stroke-width:1.5;"/>
    <defs>
     <path d="M 0 3 
C 0.795609 3 1.55874 2.683901 2.12132 2.12132 
C 2.683901 1.55874 3 0.795609 3 0 
C 3 -0.795609 2.683901 -1.55874 2.12132 -2.12132 
C 1.55874 -2.683901 0.795609 -3 0 -3 
C -0.795609 -3 -1.55874 -2.683901 -2.12132 -2.12132 
C -2.683901 -1.55874 -3 -0.795609 -3 0 
C -3 0.795609 -2.683901 1.55874 -2.12132 2.12132 
C -1.55874 2.683901 -0.795609 3 0 3 
z
" id="m6bd11a2ead" style="stroke:#1f77b4;"/>
    </defs>
    <g clip-path="url(#p6f0026225f)">
     <use style="fill:#1f77b4;stroke:#1f77b4;" x="49.32804" xlink:href="#m6bd11a2ead" y="114.598092"/>
     <use style="fill:#1f77b4;stroke:#1f77b4;" x="78.842089" xlink:href="#m6bd11a2ead" y="169.221045"/>
     <use style="fill:#1f77b4;stroke:#1f77b4;" x="108.356139" xlink:href="#m6bd11a2ead" y="183.14872"/>
     <use style="fill:#1f77b4;stroke:#1f77b4;" x="137.870189" xlink:href="#m6bd11a2ead" y="221.152067"/>
     <use style="fill:#1f77b4;stroke:#1f77b4;" x="167.384238" xlink:href="#m6bd11a2ead" y="206.511063"/>
     <use style="fill:#1f77b4;stroke:#1f77b4;" x="196.898288" xlink:href="#m6bd11a2ead" y="219.564452"/>
     <use style="fill:#1f77b4;stroke:#1f77b4;" x="226.412337" xlink:href="#m6bd11a2ead" y="258.432402"/>
     <use style="fill:#1f77b4;stroke:#1f77b4;" x="255.926387" xlink:href="#m6bd11a2ead" y="208.6801"/>
     <use style="fill:#1f77b4;stroke:#1f77b4;" x="285.440436" xlink:href="#m6bd11a2ead" y="234.973657"/>
     <use style="fill:#1f77b4;stroke:#1f77b4;" x="314.954486" xlink:href="#m6bd11a2ead" y="230.731983"/>
     <use style="fill:#1f77b4;stroke:#1f77b4;" x="344.468536" xlink:href="#m6bd11a2ead" y="206.116418"/>
     <use style="fill:#1f77b4;stroke:#1f77b4;" x="373.982585" xlink:href="#m6bd11a2ead" y="211.255833"/>
    </g>
   </g>
   <g id="line2d_26">
    <path clip-path="url(#p6f0026225f)" d="M 49.32804 38.229891 
L 78.842089 142.705205 
L 108.356139 128.742025 
L 137.870189 140.043615 
L 167.384238 191.011481 
L 196.898288 180.060854 
" style="fill:none;stroke:#ff7f0e;stroke-linecap:square;stroke-width:1.5;"/>
    <defs>
     <path d="M 0 3 
C 0.795609 3 1.55874 2.683901 2.12132 2.12132 
C 2.683901 1.55874 3 0.795609 3 0 
C 3 -0.795609 2.683901 -1.55874 2.12132 -2.12132 
C 1.55874 -2.683901 0.795609 -3 0 -3 
C -0.795609 -3 -1.55874 -2.683901 -2.12132 -2.12132 
C -2.683901 -1.55874 -3 -0.795609 -3 0 
C -3 0.795609 -2.683901 1.55874 -2.12132 2.12132 
C -1.55874 2.683901 -0.795609 3 0 3 
z
" id="m88d3be77f1" style="stroke:#ff7f0e;"/>
    </defs>
    <g clip-path="url(#p6f0026225f)">
     <use style="fill:#ff7f0e;stroke:#ff7f0e;" x="49.32804" xlink:href="#m88d3be77f1" y="38.229891"/>
     <use style="fill:#ff7f0e;stroke:#ff7f0e;" x="78.842089" xlink:href="#m88d3be77f1" y="142.705205"/>
     <use style="fill:#ff7f0e;stroke:#ff7f0e;" x="108.356139" xlink:href="#m88d3be77f1" y="128.742025"/>
     <use style="fill:#ff7f0e;stroke:#ff7f0e;" x="137.870189" xlink:href="#m88d3be77f1" y="140.043615"/>
     <use style="fill:#ff7f0e;stroke:#ff7f0e;" x="167.384238" xlink:href="#m88d3be77f1" y="191.011481"/>
     <use style="fill:#ff7f0e;stroke:#ff7f0e;" x="196.898288" xlink:href="#m88d3be77f1" y="180.060854"/>
    </g>
   </g>
   <g id="patch_3">
    <path d="M 33.095313 273.312 
L 33.095313 7.2 
" style="fill:none;stroke:#000000;stroke-linecap:square;stroke-linejoin:miter;stroke-width:0.8;"/>
   </g>
   <g id="patch_4">
    <path d="M 390.215312 273.312 
L 390.215312 7.2 
" style="fill:none;stroke:#000000;stroke-linecap:square;stroke-linejoin:miter;stroke-width:0.8;"/>
   </g>
   <g id="patch_5">
    <path d="M 33.095313 273.312 
L 390.215313 273.312 
" style="fill:none;stroke:#000000;stroke-linecap:square;stroke-linejoin:miter;stroke-width:0.8;"/>
   </g>
   <g id="patch_6">
    <path d="M 33.095313 7.2 
L 390.215313 7.2 
" style="fill:none;stroke:#000000;stroke-linecap:square;stroke-linejoin:miter;stroke-width:0.8;"/>
   </g>
   <g id="legend_1">
    <g id="patch_7">
     <path d="M 326.021562 43.98125 
L 383.215312 43.98125 
Q 385.215312 43.98125 385.215312 41.98125 
L 385.215312 14.2 
Q 385.215312 12.2 383.215312 12.2 
L 326.021562 12.2 
Q 324.021562 12.2 324.021562 14.2 
L 324.021562 41.98125 
Q 324.021562 43.98125 326.021562 43.98125 
z
" style="fill:#ffffff;opacity:0.8;stroke:#cccccc;stroke-linejoin:miter;"/>
    </g>
    <g id="line2d_27">
     <path d="M 328.021562 20.190625 
L 348.021562 20.190625 
" style="fill:none;stroke:#1f77b4;stroke-linecap:square;stroke-width:1.5;"/>
    </g>
    <g id="line2d_28">
     <g>
      <use style="fill:#1f77b4;stroke:#1f77b4;" x="338.021562" xlink:href="#m6bd11a2ead" y="20.190625"/>
     </g>
    </g>
    <g id="text_15">
     <!-- 2011 -->
     <g transform="translate(356.021562 23.690625)scale(0.1 -0.1)">
      <use xlink:href="#IPAexGothic-50"/>
      <use x="62.988281" xlink:href="#IPAexGothic-48"/>
      <use x="125.976562" xlink:href="#IPAexGothic-49"/>
      <use x="188.964844" xlink:href="#IPAexGothic-49"/>
     </g>
    </g>
    <g id="line2d_29">
     <path d="M 328.021562 34.58125 
L 348.021562 34.58125 
" style="fill:none;stroke:#ff7f0e;stroke-linecap:square;stroke-width:1.5;"/>
    </g>
    <g id="line2d_30">
     <g>
      <use style="fill:#ff7f0e;stroke:#ff7f0e;" x="338.021562" xlink:href="#m88d3be77f1" y="34.58125"/>
     </g>
    </g>
    <g id="text_16">
     <!-- 2020 -->
     <g transform="translate(356.021562 38.08125)scale(0.1 -0.1)">
      <use xlink:href="#IPAexGothic-50"/>
      <use x="62.988281" xlink:href="#IPAexGothic-48"/>
      <use x="125.976562" xlink:href="#IPAexGothic-50"/>
      <use x="188.964844" xlink:href="#IPAexGothic-48"/>
     </g>
    </g>
   </g>
  </g>
 </g>
 <defs>
  <clipPath id="p6f0026225f">
   <rect height="266.112" width="357.12" x="33.095313" y="7.2"/>
  </clipPath>
 </defs>
</svg>
