<?xml version="1.0" encoding="utf-8" standalone="no"?>
<!DOCTYPE svg PUBLIC "-//W3C//DTD SVG 1.1//EN"
  "http://www.w3.org/Graphics/SVG/1.1/DTD/svg11.dtd">
<!-- Created with matplotlib (https://matplotlib.org/) -->
<svg height="296.902625pt" version="1.1" viewBox="0 0 397.415313 296.902625" width="397.415313pt" xmlns="http://www.w3.org/2000/svg" xmlns:xlink="http://www.w3.org/1999/xlink">
 <defs>
  <style type="text/css">
*{stroke-linecap:butt;stroke-linejoin:round;}
  </style>
 </defs>
 <g id="figure_1">
  <g id="patch_1">
   <path d="M 0 296.902625 
L 397.415313 296.902625 
L 397.415313 0 
L 0 0 
z
" style="fill:#ffffff;"/>
  </g>
  <g id="axes_1">
   <g id="patch_2">
    <path d="M 33.095313 273.312 
L 390.215312 273.312 
L 390.215312 7.2 
L 33.095313 7.2 
z
" style="fill:#ffffff;"/>
   </g>
   <g id="matplotlib.axis_1">
    <g id="xtick_1">
     <g id="line2d_1">
      <defs>
       <path d="M 0 0 
L 0 3.5 
" id="m8bee5b4df4" style="stroke:#000000;stroke-width:0.8;"/>
      </defs>
      <g>
       <use style="stroke:#000000;stroke-width:0.8;" x="49.32804" xlink:href="#m8bee5b4df4" y="273.312"/>
      </g>
     </g>
     <g id="text_1">
      <!-- 2010 -->
      <defs>
       <path d="M 57.171875 0.984375 
L 6.984375 0.984375 
L 6.984375 9.28125 
Q 12.890625 23.046875 29.59375 34.421875 
L 32.375 36.28125 
Q 40.921875 42.140625 43.609375 45.40625 
Q 46.6875 49.265625 46.6875 53.8125 
Q 46.6875 58.9375 43.0625 62.546875 
Q 39.0625 66.546875 32.5625 66.546875 
Q 19.53125 66.546875 15.484375 52 
L 7.765625 54.78125 
Q 13.328125 73.828125 33.0625 73.828125 
Q 43.84375 73.828125 50.25 67.4375 
Q 55.859375 61.671875 55.859375 53.515625 
Q 55.859375 47.46875 52.25 42.53125 
Q 48.921875 37.75 36.96875 30.28125 
L 34.859375 29 
Q 19.625 19.578125 15.28125 8.890625 
L 57.171875 8.890625 
z
" id="IPAexGothic-50"/>
       <path d="M 31.84375 73.828125 
Q 45.015625 73.828125 52.09375 61.625 
Q 57.71875 51.953125 57.71875 36.625 
Q 57.71875 21.4375 52.09375 11.578125 
Q 45.125 -0.484375 31.5 -0.484375 
Q 17.921875 -0.484375 10.9375 11.578125 
Q 5.328125 21.4375 5.328125 36.71875 
Q 5.328125 58.015625 15.625 67.71875 
Q 22.171875 73.828125 31.84375 73.828125 
z
M 31.5 66.65625 
Q 23.6875 66.65625 19.1875 58.734375 
Q 14.59375 50.734375 14.59375 36.625 
Q 14.59375 22.75 19.09375 14.796875 
Q 23.640625 6.984375 31.5 6.984375 
Q 40.921875 6.984375 45.453125 18.015625 
Q 48.4375 25.34375 48.4375 37.109375 
Q 48.4375 50.875 43.84375 58.734375 
Q 39.203125 66.65625 31.5 66.65625 
z
" id="IPAexGothic-48"/>
       <path d="M 38.484375 0.984375 
L 29.6875 0.984375 
L 29.6875 64.109375 
Q 21.4375 61.28125 12.3125 59.328125 
L 10.6875 66.109375 
Q 23.734375 69.390625 32.90625 73.921875 
L 38.484375 73.921875 
z
" id="IPAexGothic-49"/>
      </defs>
      <g transform="translate(36.731165 287.802625)scale(0.1 -0.1)">
       <use xlink:href="#IPAexGothic-50"/>
       <use x="62.988281" xlink:href="#IPAexGothic-48"/>
       <use x="125.976562" xlink:href="#IPAexGothic-49"/>
       <use x="188.964844" xlink:href="#IPAexGothic-48"/>
      </g>
     </g>
    </g>
    <g id="xtick_2">
     <g id="line2d_2">
      <g>
       <use style="stroke:#000000;stroke-width:0.8;" x="114.258949" xlink:href="#m8bee5b4df4" y="273.312"/>
      </g>
     </g>
     <g id="text_2">
      <!-- 2012 -->
      <g transform="translate(101.662074 287.802625)scale(0.1 -0.1)">
       <use xlink:href="#IPAexGothic-50"/>
       <use x="62.988281" xlink:href="#IPAexGothic-48"/>
       <use x="125.976562" xlink:href="#IPAexGothic-49"/>
       <use x="188.964844" xlink:href="#IPAexGothic-50"/>
      </g>
     </g>
    </g>
    <g id="xtick_3">
     <g id="line2d_3">
      <g>
       <use style="stroke:#000000;stroke-width:0.8;" x="179.189858" xlink:href="#m8bee5b4df4" y="273.312"/>
      </g>
     </g>
     <g id="text_3">
      <!-- 2014 -->
      <defs>
       <path d="M 59.578125 18.109375 
L 47.796875 18.109375 
L 47.796875 0.984375 
L 39.796875 0.984375 
L 39.796875 18.109375 
L 3.078125 18.109375 
L 3.078125 26.125 
L 38.375 73.09375 
L 47.796875 73.09375 
L 47.796875 25.53125 
L 59.578125 25.53125 
z
M 40.28125 64.203125 
L 39.984375 64.203125 
Q 35.59375 57.125 31.296875 51.3125 
L 11.859375 25.53125 
L 39.796875 25.53125 
L 39.796875 49.125 
Q 39.796875 54.390625 40.28125 64.203125 
z
" id="IPAexGothic-52"/>
      </defs>
      <g transform="translate(166.592983 287.802625)scale(0.1 -0.1)">
       <use xlink:href="#IPAexGothic-50"/>
       <use x="62.988281" xlink:href="#IPAexGothic-48"/>
       <use x="125.976562" xlink:href="#IPAexGothic-49"/>
       <use x="188.964844" xlink:href="#IPAexGothic-52"/>
      </g>
     </g>
    </g>
    <g id="xtick_4">
     <g id="line2d_4">
      <g>
       <use style="stroke:#000000;stroke-width:0.8;" x="244.120767" xlink:href="#m8bee5b4df4" y="273.312"/>
      </g>
     </g>
     <g id="text_4">
      <!-- 2016 -->
      <defs>
       <path d="M 16.5 36.375 
Q 23.578125 46.578125 34.90625 46.578125 
Q 45.40625 46.578125 51.8125 39.265625 
Q 57.421875 32.90625 57.421875 23.78125 
Q 57.421875 13.8125 51.125 6.78125 
Q 44.578125 -0.484375 34.03125 -0.484375 
Q 21.484375 -0.484375 14.40625 9.078125 
Q 7.515625 18.40625 7.515625 34.8125 
Q 7.515625 53.515625 15.828125 64.203125 
Q 23.34375 73.828125 35.5 73.828125 
Q 49.859375 73.828125 56.390625 62.890625 
L 49.21875 58.984375 
Q 45.21875 66.65625 35.9375 66.65625 
Q 17.484375 66.65625 16.109375 36.375 
z
M 33.453125 39.796875 
Q 26.3125 39.796875 21.625 34.46875 
Q 17.4375 29.6875 17.4375 24.078125 
Q 17.4375 18.0625 21.140625 13.1875 
Q 26.125 6.6875 33.734375 6.6875 
Q 41.703125 6.6875 45.953125 13.1875 
Q 48.828125 17.625 48.828125 23.484375 
Q 48.828125 30.375 45.015625 34.8125 
Q 40.625 39.796875 33.453125 39.796875 
z
" id="IPAexGothic-54"/>
      </defs>
      <g transform="translate(231.523892 287.802625)scale(0.1 -0.1)">
       <use xlink:href="#IPAexGothic-50"/>
       <use x="62.988281" xlink:href="#IPAexGothic-48"/>
       <use x="125.976562" xlink:href="#IPAexGothic-49"/>
       <use x="188.964844" xlink:href="#IPAexGothic-54"/>
      </g>
     </g>
    </g>
    <g id="xtick_5">
     <g id="line2d_5">
      <g>
       <use style="stroke:#000000;stroke-width:0.8;" x="309.051676" xlink:href="#m8bee5b4df4" y="273.312"/>
      </g>
     </g>
     <g id="text_5">
      <!-- 2018 -->
      <defs>
       <path d="M 39.703125 37.890625 
Q 57.8125 31.734375 57.8125 18.703125 
Q 57.8125 8.453125 48.4375 3.078125 
Q 41.609375 -0.875 31.5 -0.875 
Q 21.34375 -0.875 14.5 3.078125 
Q 5.421875 8.296875 5.421875 18.40625 
Q 5.421875 31.0625 22.015625 37.203125 
L 22.015625 37.5 
Q 7.515625 42.71875 7.515625 54.828125 
Q 7.515625 64.0625 15.328125 69.625 
Q 21.96875 74.3125 31.546875 74.3125 
Q 42.234375 74.3125 48.921875 68.796875 
Q 55.515625 63.578125 55.515625 55.71875 
Q 55.515625 42.28125 39.703125 38.1875 
z
M 31.59375 41.015625 
Q 46.828125 44.625 46.828125 55.125 
Q 46.828125 61.1875 41.796875 64.84375 
Q 37.703125 67.921875 31.5 67.921875 
Q 25.09375 67.921875 20.796875 64.5 
Q 16.40625 60.890625 16.40625 55.03125 
Q 16.40625 49.21875 21.09375 45.703125 
Q 23.34375 43.890625 26.90625 42.53125 
Q 31 40.875 31.59375 41.015625 
z
M 30.90625 34.515625 
Q 14.40625 30.171875 14.40625 19 
Q 14.40625 12.109375 20.515625 8.6875 
Q 25.09375 6.109375 31.390625 6.109375 
Q 40.234375 6.109375 45.015625 10.890625 
Q 48.53125 14.40625 48.53125 19.53125 
Q 48.53125 24.90625 43.65625 28.90625 
Q 40.765625 31.15625 36.71875 32.8125 
Q 31.984375 34.71875 30.90625 34.515625 
z
" id="IPAexGothic-56"/>
      </defs>
      <g transform="translate(296.454801 287.802625)scale(0.1 -0.1)">
       <use xlink:href="#IPAexGothic-50"/>
       <use x="62.988281" xlink:href="#IPAexGothic-48"/>
       <use x="125.976562" xlink:href="#IPAexGothic-49"/>
       <use x="188.964844" xlink:href="#IPAexGothic-56"/>
      </g>
     </g>
    </g>
    <g id="xtick_6">
     <g id="line2d_6">
      <g>
       <use style="stroke:#000000;stroke-width:0.8;" x="373.982585" xlink:href="#m8bee5b4df4" y="273.312"/>
      </g>
     </g>
     <g id="text_6">
      <!-- 2020 -->
      <g transform="translate(361.38571 287.802625)scale(0.1 -0.1)">
       <use xlink:href="#IPAexGothic-50"/>
       <use x="62.988281" xlink:href="#IPAexGothic-48"/>
       <use x="125.976562" xlink:href="#IPAexGothic-50"/>
       <use x="188.964844" xlink:href="#IPAexGothic-48"/>
      </g>
     </g>
    </g>
   </g>
   <g id="matplotlib.axis_2">
    <g id="ytick_1">
     <g id="line2d_7">
      <defs>
       <path d="M 0 0 
L -3.5 0 
" id="mab333b615b" style="stroke:#000000;stroke-width:0.8;"/>
      </defs>
      <g>
       <use style="stroke:#000000;stroke-width:0.8;" x="33.095313" xlink:href="#mab333b615b" y="259.537128"/>
      </g>
     </g>
     <g id="text_7">
      <!-- 280 -->
      <g transform="translate(7.2 263.282441)scale(0.1 -0.1)">
       <use xlink:href="#IPAexGothic-50"/>
       <use x="62.988281" xlink:href="#IPAexGothic-56"/>
       <use x="125.976562" xlink:href="#IPAexGothic-48"/>
      </g>
     </g>
    </g>
    <g id="ytick_2">
     <g id="line2d_8">
      <g>
       <use style="stroke:#000000;stroke-width:0.8;" x="33.095313" xlink:href="#mab333b615b" y="225.959694"/>
      </g>
     </g>
     <g id="text_8">
      <!-- 300 -->
      <defs>
       <path d="M 37.203125 37.796875 
Q 54.78125 34.625 54.78125 19.96875 
Q 54.78125 11.1875 48.875 5.5625 
Q 42.328125 -0.484375 30.375 -0.484375 
Q 12.453125 -0.484375 4.5 13.765625 
L 11.8125 17.671875 
Q 17.328125 6.890625 30.28125 6.890625 
Q 37.890625 6.890625 42.09375 10.796875 
Q 46.09375 14.5 46.09375 20.171875 
Q 46.09375 26.859375 40.09375 30.90625 
Q 34.625 34.578125 25.6875 34.578125 
L 21.296875 34.578125 
L 21.296875 41.703125 
L 25.875 41.703125 
Q 34.859375 41.703125 39.59375 45.125 
Q 44.671875 48.734375 44.671875 54.828125 
Q 44.671875 61.46875 38.96875 64.65625 
Q 35.296875 66.84375 30.171875 66.84375 
Q 19.34375 66.84375 14.109375 55.90625 
L 6.78125 59.421875 
Q 14.015625 73.828125 30.28125 73.828125 
Q 40.578125 73.828125 46.96875 68.65625 
Q 53.375 63.578125 53.375 55.21875 
Q 53.375 47.3125 47.171875 42.28125 
Q 43.171875 39.0625 37.203125 38.1875 
z
" id="IPAexGothic-51"/>
      </defs>
      <g transform="translate(7.2 229.705006)scale(0.1 -0.1)">
       <use xlink:href="#IPAexGothic-51"/>
       <use x="62.988281" xlink:href="#IPAexGothic-48"/>
       <use x="125.976562" xlink:href="#IPAexGothic-48"/>
      </g>
     </g>
    </g>
    <g id="ytick_3">
     <g id="line2d_9">
      <g>
       <use style="stroke:#000000;stroke-width:0.8;" x="33.095313" xlink:href="#mab333b615b" y="192.382259"/>
      </g>
     </g>
     <g id="text_9">
      <!-- 320 -->
      <g transform="translate(7.2 196.127572)scale(0.1 -0.1)">
       <use xlink:href="#IPAexGothic-51"/>
       <use x="62.988281" xlink:href="#IPAexGothic-50"/>
       <use x="125.976562" xlink:href="#IPAexGothic-48"/>
      </g>
     </g>
    </g>
    <g id="ytick_4">
     <g id="line2d_10">
      <g>
       <use style="stroke:#000000;stroke-width:0.8;" x="33.095313" xlink:href="#mab333b615b" y="158.804825"/>
      </g>
     </g>
     <g id="text_10">
      <!-- 340 -->
      <g transform="translate(7.2 162.550137)scale(0.1 -0.1)">
       <use xlink:href="#IPAexGothic-51"/>
       <use x="62.988281" xlink:href="#IPAexGothic-52"/>
       <use x="125.976562" xlink:href="#IPAexGothic-48"/>
      </g>
     </g>
    </g>
    <g id="ytick_5">
     <g id="line2d_11">
      <g>
       <use style="stroke:#000000;stroke-width:0.8;" x="33.095313" xlink:href="#mab333b615b" y="125.22739"/>
      </g>
     </g>
     <g id="text_11">
      <!-- 360 -->
      <g transform="translate(7.2 128.972703)scale(0.1 -0.1)">
       <use xlink:href="#IPAexGothic-51"/>
       <use x="62.988281" xlink:href="#IPAexGothic-54"/>
       <use x="125.976562" xlink:href="#IPAexGothic-48"/>
      </g>
     </g>
    </g>
    <g id="ytick_6">
     <g id="line2d_12">
      <g>
       <use style="stroke:#000000;stroke-width:0.8;" x="33.095313" xlink:href="#mab333b615b" y="91.649956"/>
      </g>
     </g>
     <g id="text_12">
      <!-- 380 -->
      <g transform="translate(7.2 95.395268)scale(0.1 -0.1)">
       <use xlink:href="#IPAexGothic-51"/>
       <use x="62.988281" xlink:href="#IPAexGothic-56"/>
       <use x="125.976562" xlink:href="#IPAexGothic-48"/>
      </g>
     </g>
    </g>
    <g id="ytick_7">
     <g id="line2d_13">
      <g>
       <use style="stroke:#000000;stroke-width:0.8;" x="33.095313" xlink:href="#mab333b615b" y="58.072521"/>
      </g>
     </g>
     <g id="text_13">
      <!-- 400 -->
      <g transform="translate(7.2 61.817834)scale(0.1 -0.1)">
       <use xlink:href="#IPAexGothic-52"/>
       <use x="62.988281" xlink:href="#IPAexGothic-48"/>
       <use x="125.976562" xlink:href="#IPAexGothic-48"/>
      </g>
     </g>
    </g>
    <g id="ytick_8">
     <g id="line2d_14">
      <g>
       <use style="stroke:#000000;stroke-width:0.8;" x="33.095313" xlink:href="#mab333b615b" y="24.495087"/>
      </g>
     </g>
     <g id="text_14">
      <!-- 420 -->
      <g transform="translate(7.2 28.240399)scale(0.1 -0.1)">
       <use xlink:href="#IPAexGothic-52"/>
       <use x="62.988281" xlink:href="#IPAexGothic-50"/>
       <use x="125.976562" xlink:href="#IPAexGothic-48"/>
      </g>
     </g>
    </g>
   </g>
   <g id="line2d_15">
    <path clip-path="url(#pc02b5c3cca)" d="M 49.32804 179.926114 
L 81.793494 133.513435 
L 114.258949 116.616403 
L 146.724403 68.470694 
L 179.189858 73.074052 
L 211.655313 19.296 
L 244.120767 135.842192 
L 276.586222 57.097692 
L 309.051676 42.042004 
L 341.517131 25.849015 
L 373.982585 41.987847 
" style="fill:none;stroke:#1f77b4;stroke-linecap:square;stroke-width:1.5;"/>
    <defs>
     <path d="M -1.217102 2.317188 
L 0.108658 2.317188 
L 0.108658 -2.260609 
L -1.334119 -1.971282 
L -1.334119 -2.710673 
L 0.100943 -3 
L 0.912345 -3 
L 0.912345 2.317188 
L 2.238105 2.317188 
L 2.238105 3 
L -1.217102 3 
z
" id="m372301ba09" style="stroke:#1f77b4;"/>
    </defs>
    <g clip-path="url(#pc02b5c3cca)">
     <use style="fill:#1f77b4;stroke:#1f77b4;" x="49.32804" xlink:href="#m372301ba09" y="179.926114"/>
     <use style="fill:#1f77b4;stroke:#1f77b4;" x="81.793494" xlink:href="#m372301ba09" y="133.513435"/>
     <use style="fill:#1f77b4;stroke:#1f77b4;" x="114.258949" xlink:href="#m372301ba09" y="116.616403"/>
     <use style="fill:#1f77b4;stroke:#1f77b4;" x="146.724403" xlink:href="#m372301ba09" y="68.470694"/>
     <use style="fill:#1f77b4;stroke:#1f77b4;" x="179.189858" xlink:href="#m372301ba09" y="73.074052"/>
     <use style="fill:#1f77b4;stroke:#1f77b4;" x="211.655313" xlink:href="#m372301ba09" y="19.296"/>
     <use style="fill:#1f77b4;stroke:#1f77b4;" x="244.120767" xlink:href="#m372301ba09" y="135.842192"/>
     <use style="fill:#1f77b4;stroke:#1f77b4;" x="276.586222" xlink:href="#m372301ba09" y="57.097692"/>
     <use style="fill:#1f77b4;stroke:#1f77b4;" x="309.051676" xlink:href="#m372301ba09" y="42.042004"/>
     <use style="fill:#1f77b4;stroke:#1f77b4;" x="341.517131" xlink:href="#m372301ba09" y="25.849015"/>
     <use style="fill:#1f77b4;stroke:#1f77b4;" x="373.982585" xlink:href="#m372301ba09" y="41.987847"/>
    </g>
   </g>
   <g id="line2d_16">
    <path clip-path="url(#pc02b5c3cca)" d="M 49.32804 207.911823 
L 81.793494 198.977827 
L 114.258949 152.610367 
L 146.724403 140.637034 
L 179.189858 158.864784 
L 211.655313 149.271232 
L 244.120767 132.29023 
L 276.586222 117.612508 
L 309.051676 72.46285 
L 341.517131 74.6214 
L 373.982585 167.199183 
" style="fill:none;stroke:#ff7f0e;stroke-linecap:square;stroke-width:1.5;"/>
    <defs>
     <path d="M -0.615789 2.329263 
L 2.166947 2.329263 
L 2.166947 3 
L -1.574526 3 
L -1.574526 2.329263 
Q -1.121053 1.859368 -0.337895 1.068632 
Q 0.446526 0.276632 0.647368 0.046737 
Q 1.030105 -0.382737 1.181684 -0.680842 
Q 1.334526 -0.978947 1.334526 -1.266947 
Q 1.334526 -1.736842 1.004842 -2.032421 
Q 0.675158 -2.329263 0.145895 -2.329263 
Q -0.229263 -2.329263 -0.646105 -2.199158 
Q -1.061684 -2.069053 -1.535368 -1.803789 
L -1.535368 -2.609684 
Q -1.054105 -2.802947 -0.636 -2.901474 
Q -0.216632 -3 0.130737 -3 
Q 1.046526 -3 1.590947 -2.541474 
Q 2.135368 -2.084211 2.135368 -1.318737 
Q 2.135368 -0.954947 1.998947 -0.629053 
Q 1.863789 -0.304421 1.503789 0.137684 
Q 1.405263 0.252632 0.876 0.799579 
Q 0.348 1.346526 -0.615789 2.329263 
z
" id="m8af2082a2a" style="stroke:#ff7f0e;"/>
    </defs>
    <g clip-path="url(#pc02b5c3cca)">
     <use style="fill:#ff7f0e;stroke:#ff7f0e;" x="49.32804" xlink:href="#m8af2082a2a" y="207.911823"/>
     <use style="fill:#ff7f0e;stroke:#ff7f0e;" x="81.793494" xlink:href="#m8af2082a2a" y="198.977827"/>
     <use style="fill:#ff7f0e;stroke:#ff7f0e;" x="114.258949" xlink:href="#m8af2082a2a" y="152.610367"/>
     <use style="fill:#ff7f0e;stroke:#ff7f0e;" x="146.724403" xlink:href="#m8af2082a2a" y="140.637034"/>
     <use style="fill:#ff7f0e;stroke:#ff7f0e;" x="179.189858" xlink:href="#m8af2082a2a" y="158.864784"/>
     <use style="fill:#ff7f0e;stroke:#ff7f0e;" x="211.655313" xlink:href="#m8af2082a2a" y="149.271232"/>
     <use style="fill:#ff7f0e;stroke:#ff7f0e;" x="244.120767" xlink:href="#m8af2082a2a" y="132.29023"/>
     <use style="fill:#ff7f0e;stroke:#ff7f0e;" x="276.586222" xlink:href="#m8af2082a2a" y="117.612508"/>
     <use style="fill:#ff7f0e;stroke:#ff7f0e;" x="309.051676" xlink:href="#m8af2082a2a" y="72.46285"/>
     <use style="fill:#ff7f0e;stroke:#ff7f0e;" x="341.517131" xlink:href="#m8af2082a2a" y="74.6214"/>
     <use style="fill:#ff7f0e;stroke:#ff7f0e;" x="373.982585" xlink:href="#m8af2082a2a" y="167.199183"/>
    </g>
   </g>
   <g id="line2d_17">
    <path clip-path="url(#pc02b5c3cca)" d="M 49.32804 220.164878 
L 81.793494 215.669835 
L 114.258949 210.687377 
L 146.724403 226.501265 
L 179.189858 207.437948 
L 211.655313 194.602702 
L 244.120767 173.048156 
L 276.586222 166.386826 
L 309.051676 159.07561 
L 341.517131 173.643884 
L 373.982585 150.464623 
" style="fill:none;stroke:#2ca02c;stroke-linecap:square;stroke-width:1.5;"/>
    <defs>
     <path d="M 1.01322 -0.231151 
Q 1.574675 -0.110927 1.889486 0.269572 
Q 2.205536 0.648833 2.205536 1.206569 
Q 2.205536 2.061764 1.616815 2.531502 
Q 1.028093 3 -0.056393 3 
Q -0.419541 3 -0.804999 2.928114 
Q -1.190457 2.856228 -1.600702 2.712456 
L -1.600702 1.957653 
Q -1.275976 2.147284 -0.889279 2.243958 
Q -0.501343 2.340632 -0.078703 2.340632 
Q 0.656269 2.340632 1.041727 2.050609 
Q 1.427184 1.760587 1.427184 1.206569 
Q 1.427184 0.694691 1.068994 0.407147 
Q 0.710804 0.118364 0.072506 0.118364 
L -0.601735 0.118364 
L -0.601735 -0.524892 
L 0.103491 -0.524892 
Q 0.679818 -0.524892 0.985953 -0.755422 
Q 1.292088 -0.985953 1.292088 -1.419748 
Q 1.292088 -1.864697 0.976038 -2.102665 
Q 0.661227 -2.341872 0.072506 -2.341872 
Q -0.249742 -2.341872 -0.617848 -2.271225 
Q -0.985953 -2.201818 -1.427184 -2.055567 
L -1.427184 -2.752117 
Q -0.980996 -2.876059 -0.59182 -2.938029 
Q -0.202644 -3 0.141913 -3 
Q 1.033051 -3 1.551126 -2.594712 
Q 2.07044 -2.190663 2.07044 -1.501549 
Q 2.07044 -1.020657 1.79529 -0.689734 
Q 1.52014 -0.35881 1.01322 -0.231151 
z
" id="m1aa3800e4b" style="stroke:#2ca02c;"/>
    </defs>
    <g clip-path="url(#pc02b5c3cca)">
     <use style="fill:#2ca02c;stroke:#2ca02c;" x="49.32804" xlink:href="#m1aa3800e4b" y="220.164878"/>
     <use style="fill:#2ca02c;stroke:#2ca02c;" x="81.793494" xlink:href="#m1aa3800e4b" y="215.669835"/>
     <use style="fill:#2ca02c;stroke:#2ca02c;" x="114.258949" xlink:href="#m1aa3800e4b" y="210.687377"/>
     <use style="fill:#2ca02c;stroke:#2ca02c;" x="146.724403" xlink:href="#m1aa3800e4b" y="226.501265"/>
     <use style="fill:#2ca02c;stroke:#2ca02c;" x="179.189858" xlink:href="#m1aa3800e4b" y="207.437948"/>
     <use style="fill:#2ca02c;stroke:#2ca02c;" x="211.655313" xlink:href="#m1aa3800e4b" y="194.602702"/>
     <use style="fill:#2ca02c;stroke:#2ca02c;" x="244.120767" xlink:href="#m1aa3800e4b" y="173.048156"/>
     <use style="fill:#2ca02c;stroke:#2ca02c;" x="276.586222" xlink:href="#m1aa3800e4b" y="166.386826"/>
     <use style="fill:#2ca02c;stroke:#2ca02c;" x="309.051676" xlink:href="#m1aa3800e4b" y="159.07561"/>
     <use style="fill:#2ca02c;stroke:#2ca02c;" x="341.517131" xlink:href="#m1aa3800e4b" y="173.643884"/>
     <use style="fill:#2ca02c;stroke:#2ca02c;" x="373.982585" xlink:href="#m1aa3800e4b" y="150.464623"/>
    </g>
   </g>
   <g id="line2d_18">
    <path clip-path="url(#pc02b5c3cca)" d="M 49.32804 248.456575 
L 81.793494 261.216 
L 114.258949 257.802294 
L 146.724403 208.611353 
L 179.189858 203.350888 
L 211.655313 223.721198 
L 244.120767 238.327382 
L 276.586222 219.356132 
L 309.051676 232.059594 
L 341.517131 202.567414 
L 373.982585 164.009327 
" style="fill:none;stroke:#d62728;stroke-linecap:square;stroke-width:1.5;"/>
    <defs>
     <path d="M 0.723318 -2.292756 
L -1.326404 0.910416 
L 0.723318 0.910416 
z
M 0.509859 -3 
L 1.530862 -3 
L 1.530862 0.910416 
L 2.38727 0.910416 
L 2.38727 1.585512 
L 1.530862 1.585512 
L 1.530862 3 
L 0.723318 3 
L 0.723318 1.585512 
L -1.984784 1.585512 
L -1.984784 0.8024 
z
" id="m7c59f952c1" style="stroke:#d62728;"/>
    </defs>
    <g clip-path="url(#pc02b5c3cca)">
     <use style="fill:#d62728;stroke:#d62728;" x="49.32804" xlink:href="#m7c59f952c1" y="248.456575"/>
     <use style="fill:#d62728;stroke:#d62728;" x="81.793494" xlink:href="#m7c59f952c1" y="261.216"/>
     <use style="fill:#d62728;stroke:#d62728;" x="114.258949" xlink:href="#m7c59f952c1" y="257.802294"/>
     <use style="fill:#d62728;stroke:#d62728;" x="146.724403" xlink:href="#m7c59f952c1" y="208.611353"/>
     <use style="fill:#d62728;stroke:#d62728;" x="179.189858" xlink:href="#m7c59f952c1" y="203.350888"/>
     <use style="fill:#d62728;stroke:#d62728;" x="211.655313" xlink:href="#m7c59f952c1" y="223.721198"/>
     <use style="fill:#d62728;stroke:#d62728;" x="244.120767" xlink:href="#m7c59f952c1" y="238.327382"/>
     <use style="fill:#d62728;stroke:#d62728;" x="276.586222" xlink:href="#m7c59f952c1" y="219.356132"/>
     <use style="fill:#d62728;stroke:#d62728;" x="309.051676" xlink:href="#m7c59f952c1" y="232.059594"/>
     <use style="fill:#d62728;stroke:#d62728;" x="341.517131" xlink:href="#m7c59f952c1" y="202.567414"/>
     <use style="fill:#d62728;stroke:#d62728;" x="373.982585" xlink:href="#m7c59f952c1" y="164.009327"/>
    </g>
   </g>
   <g id="patch_3">
    <path d="M 33.095313 273.312 
L 33.095313 7.2 
" style="fill:none;stroke:#000000;stroke-linecap:square;stroke-linejoin:miter;stroke-width:0.8;"/>
   </g>
   <g id="patch_4">
    <path d="M 390.215312 273.312 
L 390.215312 7.2 
" style="fill:none;stroke:#000000;stroke-linecap:square;stroke-linejoin:miter;stroke-width:0.8;"/>
   </g>
   <g id="patch_5">
    <path d="M 33.095313 273.312 
L 390.215313 273.312 
" style="fill:none;stroke:#000000;stroke-linecap:square;stroke-linejoin:miter;stroke-width:0.8;"/>
   </g>
   <g id="patch_6">
    <path d="M 33.095313 7.2 
L 390.215313 7.2 
" style="fill:none;stroke:#000000;stroke-linecap:square;stroke-linejoin:miter;stroke-width:0.8;"/>
   </g>
   <g id="legend_1">
    <g id="patch_7">
     <path d="M 40.095313 72.7625 
L 90.314063 72.7625 
Q 92.314063 72.7625 92.314063 70.7625 
L 92.314063 14.2 
Q 92.314063 12.2 90.314063 12.2 
L 40.095313 12.2 
Q 38.095313 12.2 38.095313 14.2 
L 38.095313 70.7625 
Q 38.095313 72.7625 40.095313 72.7625 
z
" style="fill:#ffffff;opacity:0.8;stroke:#cccccc;stroke-linejoin:miter;"/>
    </g>
    <g id="line2d_19">
     <path d="M 42.095313 20.190625 
L 62.095313 20.190625 
" style="fill:none;stroke:#1f77b4;stroke-linecap:square;stroke-width:1.5;"/>
    </g>
    <g id="line2d_20">
     <g>
      <use style="fill:#1f77b4;stroke:#1f77b4;" x="52.095313" xlink:href="#m372301ba09" y="20.190625"/>
     </g>
    </g>
    <g id="text_15">
     <!-- Jan -->
     <defs>
      <path d="M 28.421875 72.40625 
L 28.421875 19.28125 
Q 28.421875 -0.484375 11.921875 -0.484375 
Q 4.734375 -0.484375 -1.953125 3.265625 
L 1.3125 10.0625 
Q 5.90625 6.984375 10.84375 6.984375 
Q 19.53125 6.984375 19.53125 18.796875 
L 19.53125 72.40625 
z
" id="IPAexGothic-74"/>
      <path d="M 49.3125 0.984375 
L 41.75 0.984375 
Q 39.984375 4.734375 39.546875 8.6875 
L 39.203125 8.6875 
Q 33.546875 -0.390625 22.3125 -0.390625 
Q 14.59375 -0.390625 9.71875 4.5 
Q 5.421875 8.796875 5.421875 14.984375 
Q 5.421875 30.421875 32.03125 31.203125 
L 38.71875 31.390625 
L 38.71875 33.984375 
Q 38.71875 39.203125 35.75 42.1875 
Q 32.625 45.3125 27.734375 45.3125 
Q 19.34375 45.3125 15.140625 37.15625 
L 7.71875 40.578125 
Q 14.65625 52 27.9375 52 
Q 37.109375 52 42.046875 46.875 
Q 46.625 42.28125 46.625 33.890625 
L 46.625 15.578125 
Q 46.625 6.25 49.3125 0.984375 
z
M 38.921875 25.390625 
L 33.453125 25.296875 
Q 14.109375 24.859375 14.109375 14.890625 
Q 14.109375 11.375 16.40625 9.078125 
Q 19.234375 6.296875 23.828125 6.296875 
Q 30.21875 6.296875 34.90625 10.984375 
Q 38.921875 15.140625 38.921875 21 
z
" id="IPAexGothic-97"/>
      <path d="M 52 0.984375 
L 43.40625 0.984375 
L 43.40625 31.890625 
Q 43.40625 44.578125 32.90625 44.578125 
Q 22.3125 44.578125 17.390625 31.890625 
L 17.390625 0.984375 
L 8.796875 0.984375 
L 8.796875 50.78125 
L 16.796875 50.78125 
L 16.796875 41.796875 
Q 23.828125 51.8125 34.71875 51.8125 
Q 52 51.8125 52 32.375 
z
" id="IPAexGothic-110"/>
     </defs>
     <g transform="translate(70.095313 23.690625)scale(0.1 -0.1)">
      <use xlink:href="#IPAexGothic-74"/>
      <use x="37.988281" xlink:href="#IPAexGothic-97"/>
      <use x="92.96875" xlink:href="#IPAexGothic-110"/>
     </g>
    </g>
    <g id="line2d_21">
     <path d="M 42.095313 34.58125 
L 62.095313 34.58125 
" style="fill:none;stroke:#ff7f0e;stroke-linecap:square;stroke-width:1.5;"/>
    </g>
    <g id="line2d_22">
     <g>
      <use style="fill:#ff7f0e;stroke:#ff7f0e;" x="52.095313" xlink:href="#m8af2082a2a" y="34.58125"/>
     </g>
    </g>
    <g id="text_16">
     <!-- Feb -->
     <defs>
      <path d="M 54.203125 64.703125 
L 18.3125 64.703125 
L 18.3125 41.5 
L 50.09375 41.5 
L 50.09375 34.1875 
L 18.3125 34.1875 
L 18.3125 0.984375 
L 9.515625 0.984375 
L 9.515625 72.40625 
L 54.203125 72.40625 
z
" id="IPAexGothic-70"/>
      <path d="M 13.484375 24.90625 
Q 13.921875 16.265625 18.890625 11.28125 
Q 23.96875 6.203125 31.203125 6.203125 
Q 40.71875 6.203125 46.296875 15.09375 
L 51.90625 11.375 
Q 44.828125 -0.484375 30.171875 -0.484375 
Q 19.09375 -0.484375 11.96875 6.59375 
Q 4.78125 13.8125 4.78125 25.640625 
Q 4.78125 38.1875 12.3125 45.703125 
Q 19 52.390625 29 52.390625 
Q 38.421875 52.390625 44.78125 46.1875 
Q 51.90625 38.96875 51.90625 26.90625 
L 51.90625 24.90625 
z
M 43.0625 31.203125 
Q 42.328125 37.984375 38.28125 41.890625 
Q 34.28125 45.90625 28.8125 45.90625 
Q 22.46875 45.90625 17.96875 40.484375 
Q 14.890625 36.8125 13.96875 31.203125 
z
" id="IPAexGothic-101"/>
      <path d="M 17.578125 42.671875 
Q 24.21875 52.203125 34.671875 52.203125 
Q 43.5625 52.203125 49.859375 45.90625 
Q 57.171875 38.578125 57.171875 25.6875 
Q 57.171875 13.09375 49.859375 5.8125 
Q 43.5625 -0.484375 34.46875 -0.484375 
Q 24.359375 -0.484375 17 8.0625 
L 15.765625 0.6875 
L 9.078125 0.6875 
L 9.078125 74.90625 
L 17.578125 74.90625 
z
M 17.578125 31.203125 
L 17.578125 19.578125 
Q 17.578125 13.875 23.875 9.375 
Q 28.171875 6.296875 33.109375 6.296875 
Q 38.875 6.296875 42.875 10.296875 
Q 48.1875 15.765625 48.1875 25.484375 
Q 48.1875 34.28125 43.796875 39.890625 
Q 39.453125 45.3125 33.203125 45.3125 
Q 27.484375 45.3125 22.46875 40.28125 
Q 17.578125 35.40625 17.578125 31.203125 
z
" id="IPAexGothic-98"/>
     </defs>
     <g transform="translate(70.095313 38.08125)scale(0.1 -0.1)">
      <use xlink:href="#IPAexGothic-70"/>
      <use x="57.177734" xlink:href="#IPAexGothic-101"/>
      <use x="114.0625" xlink:href="#IPAexGothic-98"/>
     </g>
    </g>
    <g id="line2d_23">
     <path d="M 42.095313 48.971875 
L 62.095313 48.971875 
" style="fill:none;stroke:#2ca02c;stroke-linecap:square;stroke-width:1.5;"/>
    </g>
    <g id="line2d_24">
     <g>
      <use style="fill:#2ca02c;stroke:#2ca02c;" x="52.095313" xlink:href="#m1aa3800e4b" y="48.971875"/>
     </g>
    </g>
    <g id="text_17">
     <!-- Mar -->
     <defs>
      <path d="M 80.421875 0.984375 
L 71.828125 0.984375 
L 71.828125 39.59375 
Q 71.828125 51.265625 72.40625 64.59375 
L 72.015625 64.59375 
Q 68.0625 53.265625 63.53125 41.796875 
L 47.90625 3.265625 
L 41.40625 3.265625 
L 25.640625 42.578125 
Q 20.75 54.78125 17.625 64.703125 
L 17.234375 64.703125 
Q 17.828125 48.921875 17.828125 39.890625 
L 17.828125 0.984375 
L 9.515625 0.984375 
L 9.515625 72.40625 
L 22.125 72.40625 
L 39.109375 30.375 
Q 42.140625 23 44.828125 14.15625 
L 45.125 14.15625 
Q 47.3125 22.125 50.53125 30.171875 
L 67.4375 72.40625 
L 80.421875 72.40625 
z
" id="IPAexGothic-77"/>
      <path d="M 36.078125 51.8125 
L 34.578125 43.265625 
Q 32.90625 43.609375 31.59375 43.609375 
Q 25.828125 43.609375 22.078125 38.1875 
Q 17.390625 31.34375 17.390625 26.171875 
L 17.390625 0.984375 
L 8.796875 0.984375 
L 8.796875 50.78125 
L 16.890625 50.78125 
L 16.5 35.984375 
L 16.703125 35.984375 
Q 22.21875 52.203125 32.765625 52.203125 
Q 34.46875 52.203125 36.078125 51.8125 
z
" id="IPAexGothic-114"/>
     </defs>
     <g transform="translate(70.095313 52.471875)scale(0.1 -0.1)">
      <use xlink:href="#IPAexGothic-77"/>
      <use x="90.185547" xlink:href="#IPAexGothic-97"/>
      <use x="145.166016" xlink:href="#IPAexGothic-114"/>
     </g>
    </g>
    <g id="line2d_25">
     <path d="M 42.095313 63.3625 
L 62.095313 63.3625 
" style="fill:none;stroke:#d62728;stroke-linecap:square;stroke-width:1.5;"/>
    </g>
    <g id="line2d_26">
     <g>
      <use style="fill:#d62728;stroke:#d62728;" x="52.095313" xlink:href="#m7c59f952c1" y="63.3625"/>
     </g>
    </g>
    <g id="text_18">
     <!-- Apr -->
     <defs>
      <path d="M 63.375 0.984375 
L 53.8125 0.984375 
L 45.90625 22.015625 
L 17.1875 22.015625 
L 9.421875 0.984375 
L -0.09375 0.984375 
L 28.21875 72.90625 
L 35.296875 72.90625 
z
M 43.40625 29.109375 
L 36.1875 48.09375 
Q 33.203125 56.0625 31.6875 62.5 
L 31.390625 62.5 
Q 29.640625 55.671875 26.8125 48.09375 
L 19.734375 29.109375 
z
" id="IPAexGothic-65"/>
      <path d="M 16.796875 42 
Q 23.828125 52.203125 34.46875 52.203125 
Q 43.265625 52.203125 49.5625 45.90625 
Q 56.890625 38.578125 56.890625 25.6875 
Q 56.890625 13.140625 49.65625 5.8125 
Q 43.359375 -0.484375 34.375 -0.484375 
Q 24.515625 -0.484375 17.28125 7.765625 
L 17.28125 -19 
L 8.796875 -19 
L 8.796875 50.78125 
L 16.796875 50.78125 
z
M 17.28125 30.46875 
L 17.28125 20.171875 
Q 17.28125 14.015625 23.6875 9.375 
Q 27.984375 6.296875 32.90625 6.296875 
Q 38.578125 6.296875 42.578125 10.296875 
Q 47.90625 15.578125 47.90625 25.484375 
Q 47.90625 34.375 43.5 39.984375 
Q 39.109375 45.3125 32.8125 45.3125 
Q 25.875 45.3125 20.90625 38.8125 
Q 17.28125 34.125 17.28125 30.46875 
z
" id="IPAexGothic-112"/>
     </defs>
     <g transform="translate(70.095313 66.8625)scale(0.1 -0.1)">
      <use xlink:href="#IPAexGothic-65"/>
      <use x="63.720703" xlink:href="#IPAexGothic-112"/>
      <use x="125.830078" xlink:href="#IPAexGothic-114"/>
     </g>
    </g>
   </g>
  </g>
 </g>
 <defs>
  <clipPath id="pc02b5c3cca">
   <rect height="266.112" width="357.12" x="33.095313" y="7.2"/>
  </clipPath>
 </defs>
</svg>
