<?xml version="1.0" encoding="utf-8" standalone="no"?>
<!DOCTYPE svg PUBLIC "-//W3C//DTD SVG 1.1//EN"
  "http://www.w3.org/Graphics/SVG/1.1/DTD/svg11.dtd">
<svg height="296.902625pt" version="1.1" viewBox="0 0 397.415313 296.902625" width="397.415313pt" xmlns="http://www.w3.org/2000/svg" xmlns:xlink="http://www.w3.org/1999/xlink">
 <metadata>
  <rdf:RDF xmlns:cc="http://creativecommons.org/ns#" xmlns:dc="http://purl.org/dc/elements/1.1/" xmlns:rdf="http://www.w3.org/1999/02/22-rdf-syntax-ns#">
   <cc:Work>
    <dc:type rdf:resource="http://purl.org/dc/dcmitype/StillImage"/>
    <dc:date>2021-09-01T14:17:53.172947</dc:date>
    <dc:format>image/svg+xml</dc:format>
    <dc:creator>
     <cc:Agent>
      <dc:title>Matplotlib v3.4.3, https://matplotlib.org/</dc:title>
     </cc:Agent>
    </dc:creator>
   </cc:Work>
  </rdf:RDF>
 </metadata>
 <defs>
  <style type="text/css">*{stroke-linecap:butt;stroke-linejoin:round;}</style>
 </defs>
 <g id="figure_1">
  <g id="patch_1">
   <path d="M 0 296.902625 
L 397.415313 296.902625 
L 397.415313 0 
L 0 0 
z
" style="fill:#ffffff;"/>
  </g>
  <g id="axes_1">
   <g id="patch_2">
    <path d="M 33.095313 273.312 
L 390.215312 273.312 
L 390.215312 7.2 
L 33.095313 7.2 
z
" style="fill:#ffffff;"/>
   </g>
   <g id="matplotlib.axis_1">
    <g id="xtick_1">
     <g id="line2d_1">
      <defs>
       <path d="M 0 0 
L 0 3.5 
" id="m7414c7a2d5" style="stroke:#000000;stroke-width:0.8;"/>
      </defs>
      <g>
       <use style="stroke:#000000;stroke-width:0.8;" x="49.32804" xlink:href="#m7414c7a2d5" y="273.312"/>
      </g>
     </g>
     <g id="text_1">
      <!-- 2010 -->
      <g transform="translate(36.731165 287.802625)scale(0.1 -0.1)">
       <defs>
        <path d="M 3659 63 
L 447 63 
L 447 594 
Q 825 1475 1894 2203 
L 2072 2322 
Q 2619 2697 2791 2906 
Q 2988 3153 2988 3444 
Q 2988 3772 2756 4003 
Q 2500 4259 2084 4259 
Q 1250 4259 991 3328 
L 497 3506 
Q 853 4725 2116 4725 
Q 2806 4725 3216 4316 
Q 3575 3947 3575 3425 
Q 3575 3038 3344 2722 
Q 3131 2416 2366 1938 
L 2231 1856 
Q 1256 1253 978 569 
L 3659 569 
L 3659 63 
z
" id="IPAexGothic-32" transform="scale(0.015625)"/>
        <path d="M 2038 4725 
Q 2881 4725 3334 3944 
Q 3694 3325 3694 2344 
Q 3694 1372 3334 741 
Q 2888 -31 2016 -31 
Q 1147 -31 700 741 
Q 341 1372 341 2350 
Q 341 3713 1000 4334 
Q 1419 4725 2038 4725 
z
M 2016 4266 
Q 1516 4266 1228 3759 
Q 934 3247 934 2344 
Q 934 1456 1222 947 
Q 1513 447 2016 447 
Q 2619 447 2909 1153 
Q 3100 1622 3100 2375 
Q 3100 3256 2806 3759 
Q 2509 4266 2016 4266 
z
" id="IPAexGothic-30" transform="scale(0.015625)"/>
        <path d="M 2463 63 
L 1900 63 
L 1900 4103 
Q 1372 3922 788 3797 
L 684 4231 
Q 1519 4441 2106 4731 
L 2463 4731 
L 2463 63 
z
" id="IPAexGothic-31" transform="scale(0.015625)"/>
       </defs>
       <use xlink:href="#IPAexGothic-32"/>
       <use x="62.988281" xlink:href="#IPAexGothic-30"/>
       <use x="125.976562" xlink:href="#IPAexGothic-31"/>
       <use x="188.964844" xlink:href="#IPAexGothic-30"/>
      </g>
     </g>
    </g>
    <g id="xtick_2">
     <g id="line2d_2">
      <g>
       <use style="stroke:#000000;stroke-width:0.8;" x="108.356139" xlink:href="#m7414c7a2d5" y="273.312"/>
      </g>
     </g>
     <g id="text_2">
      <!-- 2012 -->
      <g transform="translate(95.759264 287.802625)scale(0.1 -0.1)">
       <use xlink:href="#IPAexGothic-32"/>
       <use x="62.988281" xlink:href="#IPAexGothic-30"/>
       <use x="125.976562" xlink:href="#IPAexGothic-31"/>
       <use x="188.964844" xlink:href="#IPAexGothic-32"/>
      </g>
     </g>
    </g>
    <g id="xtick_3">
     <g id="line2d_3">
      <g>
       <use style="stroke:#000000;stroke-width:0.8;" x="167.384238" xlink:href="#m7414c7a2d5" y="273.312"/>
      </g>
     </g>
     <g id="text_3">
      <!-- 2014 -->
      <g transform="translate(154.787363 287.802625)scale(0.1 -0.1)">
       <defs>
        <path d="M 3813 1159 
L 3059 1159 
L 3059 63 
L 2547 63 
L 2547 1159 
L 197 1159 
L 197 1672 
L 2456 4678 
L 3059 4678 
L 3059 1634 
L 3813 1634 
L 3813 1159 
z
M 2578 4109 
L 2559 4109 
Q 2278 3656 2003 3284 
L 759 1634 
L 2547 1634 
L 2547 3144 
Q 2547 3481 2578 4109 
z
" id="IPAexGothic-34" transform="scale(0.015625)"/>
       </defs>
       <use xlink:href="#IPAexGothic-32"/>
       <use x="62.988281" xlink:href="#IPAexGothic-30"/>
       <use x="125.976562" xlink:href="#IPAexGothic-31"/>
       <use x="188.964844" xlink:href="#IPAexGothic-34"/>
      </g>
     </g>
    </g>
    <g id="xtick_4">
     <g id="line2d_4">
      <g>
       <use style="stroke:#000000;stroke-width:0.8;" x="226.412337" xlink:href="#m7414c7a2d5" y="273.312"/>
      </g>
     </g>
     <g id="text_4">
      <!-- 2016 -->
      <g transform="translate(213.815462 287.802625)scale(0.1 -0.1)">
       <defs>
        <path d="M 1056 2328 
Q 1509 2981 2234 2981 
Q 2906 2981 3316 2513 
Q 3675 2106 3675 1522 
Q 3675 884 3272 434 
Q 2853 -31 2178 -31 
Q 1375 -31 922 581 
Q 481 1178 481 2228 
Q 481 3425 1013 4109 
Q 1494 4725 2272 4725 
Q 3191 4725 3609 4025 
L 3150 3775 
Q 2894 4266 2300 4266 
Q 1119 4266 1031 2328 
L 1056 2328 
z
M 2141 2547 
Q 1684 2547 1384 2206 
Q 1116 1900 1116 1541 
Q 1116 1156 1353 844 
Q 1672 428 2159 428 
Q 2669 428 2941 844 
Q 3125 1128 3125 1503 
Q 3125 1944 2881 2228 
Q 2600 2547 2141 2547 
z
" id="IPAexGothic-36" transform="scale(0.015625)"/>
       </defs>
       <use xlink:href="#IPAexGothic-32"/>
       <use x="62.988281" xlink:href="#IPAexGothic-30"/>
       <use x="125.976562" xlink:href="#IPAexGothic-31"/>
       <use x="188.964844" xlink:href="#IPAexGothic-36"/>
      </g>
     </g>
    </g>
    <g id="xtick_5">
     <g id="line2d_5">
      <g>
       <use style="stroke:#000000;stroke-width:0.8;" x="285.440436" xlink:href="#m7414c7a2d5" y="273.312"/>
      </g>
     </g>
     <g id="text_5">
      <!-- 2018 -->
      <g transform="translate(272.843561 287.802625)scale(0.1 -0.1)">
       <defs>
        <path d="M 2541 2425 
Q 3700 2031 3700 1197 
Q 3700 541 3100 197 
Q 2663 -56 2016 -56 
Q 1366 -56 928 197 
Q 347 531 347 1178 
Q 347 1988 1409 2381 
L 1409 2400 
Q 481 2734 481 3509 
Q 481 4100 981 4456 
Q 1406 4756 2019 4756 
Q 2703 4756 3131 4403 
Q 3553 4069 3553 3566 
Q 3553 2706 2541 2444 
L 2541 2425 
z
M 2022 2625 
Q 2997 2856 2997 3528 
Q 2997 3916 2675 4150 
Q 2413 4347 2016 4347 
Q 1606 4347 1331 4128 
Q 1050 3897 1050 3522 
Q 1050 3150 1350 2925 
Q 1494 2809 1722 2722 
Q 1984 2616 2022 2625 
z
M 1978 2209 
Q 922 1931 922 1216 
Q 922 775 1313 556 
Q 1606 391 2009 391 
Q 2575 391 2881 697 
Q 3106 922 3106 1250 
Q 3106 1594 2794 1850 
Q 2609 1994 2350 2100 
Q 2047 2222 1978 2209 
z
" id="IPAexGothic-38" transform="scale(0.015625)"/>
       </defs>
       <use xlink:href="#IPAexGothic-32"/>
       <use x="62.988281" xlink:href="#IPAexGothic-30"/>
       <use x="125.976562" xlink:href="#IPAexGothic-31"/>
       <use x="188.964844" xlink:href="#IPAexGothic-38"/>
      </g>
     </g>
    </g>
    <g id="xtick_6">
     <g id="line2d_6">
      <g>
       <use style="stroke:#000000;stroke-width:0.8;" x="344.468536" xlink:href="#m7414c7a2d5" y="273.312"/>
      </g>
     </g>
     <g id="text_6">
      <!-- 2020 -->
      <g transform="translate(331.871661 287.802625)scale(0.1 -0.1)">
       <use xlink:href="#IPAexGothic-32"/>
       <use x="62.988281" xlink:href="#IPAexGothic-30"/>
       <use x="125.976562" xlink:href="#IPAexGothic-32"/>
       <use x="188.964844" xlink:href="#IPAexGothic-30"/>
      </g>
     </g>
    </g>
   </g>
   <g id="matplotlib.axis_2">
    <g id="ytick_1">
     <g id="line2d_7">
      <defs>
       <path d="M 0 0 
L -3.5 0 
" id="m9d5811a96d" style="stroke:#000000;stroke-width:0.8;"/>
      </defs>
      <g>
       <use style="stroke:#000000;stroke-width:0.8;" x="33.095313" xlink:href="#m9d5811a96d" y="261.77373"/>
      </g>
     </g>
     <g id="text_7">
      <!-- 250 -->
      <g transform="translate(7.2 265.519043)scale(0.1 -0.1)">
       <defs>
        <path d="M 1178 2603 
Q 1634 2963 2172 2963 
Q 2816 2963 3241 2528 
Q 3638 2113 3638 1497 
Q 3638 938 3297 513 
Q 2869 -31 2031 -31 
Q 959 -31 469 784 
L 938 1028 
Q 1309 434 2013 434 
Q 2466 434 2769 716 
Q 3081 1013 3081 1503 
Q 3081 1966 2806 2241 
Q 2519 2528 2056 2528 
Q 1406 2528 1072 2028 
L 591 2091 
L 884 4634 
L 3406 4634 
L 3406 4153 
L 1341 4153 
L 1134 2603 
L 1178 2603 
z
" id="IPAexGothic-35" transform="scale(0.015625)"/>
       </defs>
       <use xlink:href="#IPAexGothic-32"/>
       <use x="62.988281" xlink:href="#IPAexGothic-35"/>
       <use x="125.976562" xlink:href="#IPAexGothic-30"/>
      </g>
     </g>
    </g>
    <g id="ytick_2">
     <g id="line2d_8">
      <g>
       <use style="stroke:#000000;stroke-width:0.8;" x="33.095313" xlink:href="#m9d5811a96d" y="226.915589"/>
      </g>
     </g>
     <g id="text_8">
      <!-- 275 -->
      <g transform="translate(7.2 230.660901)scale(0.1 -0.1)">
       <defs>
        <path d="M 3597 4263 
Q 2238 2106 1778 63 
L 1131 63 
Q 1581 1834 2950 4128 
L 428 4128 
L 428 4634 
L 3597 4634 
L 3597 4263 
z
" id="IPAexGothic-37" transform="scale(0.015625)"/>
       </defs>
       <use xlink:href="#IPAexGothic-32"/>
       <use x="62.988281" xlink:href="#IPAexGothic-37"/>
       <use x="125.976562" xlink:href="#IPAexGothic-35"/>
      </g>
     </g>
    </g>
    <g id="ytick_3">
     <g id="line2d_9">
      <g>
       <use style="stroke:#000000;stroke-width:0.8;" x="33.095313" xlink:href="#m9d5811a96d" y="192.057447"/>
      </g>
     </g>
     <g id="text_9">
      <!-- 300 -->
      <g transform="translate(7.2 195.80276)scale(0.1 -0.1)">
       <defs>
        <path d="M 2381 2419 
Q 3506 2216 3506 1278 
Q 3506 716 3128 356 
Q 2709 -31 1944 -31 
Q 797 -31 288 881 
L 756 1131 
Q 1109 441 1938 441 
Q 2425 441 2694 691 
Q 2950 928 2950 1291 
Q 2950 1719 2566 1978 
Q 2216 2213 1644 2213 
L 1363 2213 
L 1363 2669 
L 1656 2669 
Q 2231 2669 2534 2888 
Q 2859 3119 2859 3509 
Q 2859 3934 2494 4138 
Q 2259 4278 1931 4278 
Q 1238 4278 903 3578 
L 434 3803 
Q 897 4725 1938 4725 
Q 2597 4725 3006 4394 
Q 3416 4069 3416 3534 
Q 3416 3028 3019 2706 
Q 2763 2500 2381 2444 
L 2381 2419 
z
" id="IPAexGothic-33" transform="scale(0.015625)"/>
       </defs>
       <use xlink:href="#IPAexGothic-33"/>
       <use x="62.988281" xlink:href="#IPAexGothic-30"/>
       <use x="125.976562" xlink:href="#IPAexGothic-30"/>
      </g>
     </g>
    </g>
    <g id="ytick_4">
     <g id="line2d_10">
      <g>
       <use style="stroke:#000000;stroke-width:0.8;" x="33.095313" xlink:href="#m9d5811a96d" y="157.199306"/>
      </g>
     </g>
     <g id="text_10">
      <!-- 325 -->
      <g transform="translate(7.2 160.944618)scale(0.1 -0.1)">
       <use xlink:href="#IPAexGothic-33"/>
       <use x="62.988281" xlink:href="#IPAexGothic-32"/>
       <use x="125.976562" xlink:href="#IPAexGothic-35"/>
      </g>
     </g>
    </g>
    <g id="ytick_5">
     <g id="line2d_11">
      <g>
       <use style="stroke:#000000;stroke-width:0.8;" x="33.095313" xlink:href="#m9d5811a96d" y="122.341164"/>
      </g>
     </g>
     <g id="text_11">
      <!-- 350 -->
      <g transform="translate(7.2 126.086477)scale(0.1 -0.1)">
       <use xlink:href="#IPAexGothic-33"/>
       <use x="62.988281" xlink:href="#IPAexGothic-35"/>
       <use x="125.976562" xlink:href="#IPAexGothic-30"/>
      </g>
     </g>
    </g>
    <g id="ytick_6">
     <g id="line2d_12">
      <g>
       <use style="stroke:#000000;stroke-width:0.8;" x="33.095313" xlink:href="#m9d5811a96d" y="87.483023"/>
      </g>
     </g>
     <g id="text_12">
      <!-- 375 -->
      <g transform="translate(7.2 91.228335)scale(0.1 -0.1)">
       <use xlink:href="#IPAexGothic-33"/>
       <use x="62.988281" xlink:href="#IPAexGothic-37"/>
       <use x="125.976562" xlink:href="#IPAexGothic-35"/>
      </g>
     </g>
    </g>
    <g id="ytick_7">
     <g id="line2d_13">
      <g>
       <use style="stroke:#000000;stroke-width:0.8;" x="33.095313" xlink:href="#m9d5811a96d" y="52.624881"/>
      </g>
     </g>
     <g id="text_13">
      <!-- 400 -->
      <g transform="translate(7.2 56.370194)scale(0.1 -0.1)">
       <use xlink:href="#IPAexGothic-34"/>
       <use x="62.988281" xlink:href="#IPAexGothic-30"/>
       <use x="125.976562" xlink:href="#IPAexGothic-30"/>
      </g>
     </g>
    </g>
    <g id="ytick_8">
     <g id="line2d_14">
      <g>
       <use style="stroke:#000000;stroke-width:0.8;" x="33.095313" xlink:href="#m9d5811a96d" y="17.76674"/>
      </g>
     </g>
     <g id="text_14">
      <!-- 425 -->
      <g transform="translate(7.2 21.512052)scale(0.1 -0.1)">
       <use xlink:href="#IPAexGothic-34"/>
       <use x="62.988281" xlink:href="#IPAexGothic-32"/>
       <use x="125.976562" xlink:href="#IPAexGothic-35"/>
      </g>
     </g>
    </g>
   </g>
   <g id="line2d_15">
    <path clip-path="url(#pba35cef5bb)" d="M 49.32804 153.825937 
L 78.842089 115.279579 
L 108.356139 101.246366 
L 137.870189 61.260705 
L 167.384238 65.083856 
L 196.898288 20.420456 
L 226.412337 117.213644 
L 255.926387 51.815273 
L 285.440436 39.31132 
L 314.954486 25.862824 
L 344.468536 39.266342 
L 373.982585 19.296 
" style="fill:none;stroke:#1f77b4;stroke-linecap:square;stroke-width:1.5;"/>
    <defs>
     <path d="M -1.217102 2.317188 
L 0.108658 2.317188 
L 0.108658 -2.260609 
L -1.334119 -1.971282 
L -1.334119 -2.710673 
L 0.100943 -3 
L 0.912345 -3 
L 0.912345 2.317188 
L 2.238105 2.317188 
L 2.238105 3 
L -1.217102 3 
L -1.217102 2.317188 
z
" id="me304008810" style="stroke:#1f77b4;"/>
    </defs>
    <g clip-path="url(#pba35cef5bb)">
     <use style="fill:#1f77b4;stroke:#1f77b4;" x="49.32804" xlink:href="#me304008810" y="153.825937"/>
     <use style="fill:#1f77b4;stroke:#1f77b4;" x="78.842089" xlink:href="#me304008810" y="115.279579"/>
     <use style="fill:#1f77b4;stroke:#1f77b4;" x="108.356139" xlink:href="#me304008810" y="101.246366"/>
     <use style="fill:#1f77b4;stroke:#1f77b4;" x="137.870189" xlink:href="#me304008810" y="61.260705"/>
     <use style="fill:#1f77b4;stroke:#1f77b4;" x="167.384238" xlink:href="#me304008810" y="65.083856"/>
     <use style="fill:#1f77b4;stroke:#1f77b4;" x="196.898288" xlink:href="#me304008810" y="20.420456"/>
     <use style="fill:#1f77b4;stroke:#1f77b4;" x="226.412337" xlink:href="#me304008810" y="117.213644"/>
     <use style="fill:#1f77b4;stroke:#1f77b4;" x="255.926387" xlink:href="#me304008810" y="51.815273"/>
     <use style="fill:#1f77b4;stroke:#1f77b4;" x="285.440436" xlink:href="#me304008810" y="39.31132"/>
     <use style="fill:#1f77b4;stroke:#1f77b4;" x="314.954486" xlink:href="#me304008810" y="25.862824"/>
     <use style="fill:#1f77b4;stroke:#1f77b4;" x="344.468536" xlink:href="#me304008810" y="39.266342"/>
     <use style="fill:#1f77b4;stroke:#1f77b4;" x="373.982585" xlink:href="#me304008810" y="19.296"/>
    </g>
   </g>
   <g id="line2d_16">
    <path clip-path="url(#pba35cef5bb)" d="M 49.32804 177.068446 
L 78.842089 169.648642 
L 108.356139 131.13984 
L 137.870189 121.195825 
L 167.384238 136.334218 
L 196.898288 128.366643 
L 226.412337 114.263691 
L 255.926387 102.073645 
L 285.440436 64.576244 
L 314.954486 66.368948 
L 344.468536 143.256049 
L 373.982585 57.007047 
" style="fill:none;stroke:#ff7f0e;stroke-linecap:square;stroke-width:1.5;"/>
    <defs>
     <path d="M -0.615789 2.329263 
L 2.166947 2.329263 
L 2.166947 3 
L -1.574526 3 
L -1.574526 2.329263 
Q -1.121053 1.859368 -0.337895 1.068632 
Q 0.446526 0.276632 0.647368 0.046737 
Q 1.030105 -0.382737 1.181684 -0.680842 
Q 1.334526 -0.978947 1.334526 -1.266947 
Q 1.334526 -1.736842 1.004842 -2.032421 
Q 0.675158 -2.329263 0.145895 -2.329263 
Q -0.229263 -2.329263 -0.646105 -2.199158 
Q -1.061684 -2.069053 -1.535368 -1.803789 
L -1.535368 -2.609684 
Q -1.054105 -2.802947 -0.636 -2.901474 
Q -0.216632 -3 0.130737 -3 
Q 1.046526 -3 1.590947 -2.541474 
Q 2.135368 -2.084211 2.135368 -1.318737 
Q 2.135368 -0.954947 1.998947 -0.629053 
Q 1.863789 -0.304421 1.503789 0.137684 
Q 1.405263 0.252632 0.876 0.799579 
Q 0.348 1.346526 -0.615789 2.329263 
z
" id="m3594fa7fc8" style="stroke:#ff7f0e;"/>
    </defs>
    <g clip-path="url(#pba35cef5bb)">
     <use style="fill:#ff7f0e;stroke:#ff7f0e;" x="49.32804" xlink:href="#m3594fa7fc8" y="177.068446"/>
     <use style="fill:#ff7f0e;stroke:#ff7f0e;" x="78.842089" xlink:href="#m3594fa7fc8" y="169.648642"/>
     <use style="fill:#ff7f0e;stroke:#ff7f0e;" x="108.356139" xlink:href="#m3594fa7fc8" y="131.13984"/>
     <use style="fill:#ff7f0e;stroke:#ff7f0e;" x="137.870189" xlink:href="#m3594fa7fc8" y="121.195825"/>
     <use style="fill:#ff7f0e;stroke:#ff7f0e;" x="167.384238" xlink:href="#m3594fa7fc8" y="136.334218"/>
     <use style="fill:#ff7f0e;stroke:#ff7f0e;" x="196.898288" xlink:href="#m3594fa7fc8" y="128.366643"/>
     <use style="fill:#ff7f0e;stroke:#ff7f0e;" x="226.412337" xlink:href="#m3594fa7fc8" y="114.263691"/>
     <use style="fill:#ff7f0e;stroke:#ff7f0e;" x="255.926387" xlink:href="#m3594fa7fc8" y="102.073645"/>
     <use style="fill:#ff7f0e;stroke:#ff7f0e;" x="285.440436" xlink:href="#m3594fa7fc8" y="64.576244"/>
     <use style="fill:#ff7f0e;stroke:#ff7f0e;" x="314.954486" xlink:href="#m3594fa7fc8" y="66.368948"/>
     <use style="fill:#ff7f0e;stroke:#ff7f0e;" x="344.468536" xlink:href="#m3594fa7fc8" y="143.256049"/>
     <use style="fill:#ff7f0e;stroke:#ff7f0e;" x="373.982585" xlink:href="#m3594fa7fc8" y="57.007047"/>
    </g>
   </g>
   <g id="line2d_17">
    <path clip-path="url(#pba35cef5bb)" d="M 49.32804 187.244775 
L 78.842089 183.51158 
L 108.356139 179.373582 
L 137.870189 192.50723 
L 167.384238 176.674887 
L 196.898288 166.015042 
L 226.412337 148.1137 
L 255.926387 142.581375 
L 285.440436 136.509312 
L 314.954486 148.60846 
L 344.468536 129.357771 
L 373.982585 79.926677 
" style="fill:none;stroke:#2ca02c;stroke-linecap:square;stroke-width:1.5;"/>
    <defs>
     <path d="M 1.01322 -0.231151 
Q 1.574675 -0.110927 1.889486 0.269572 
Q 2.205536 0.648833 2.205536 1.206569 
Q 2.205536 2.061764 1.616815 2.531502 
Q 1.028093 3 -0.056393 3 
Q -0.419541 3 -0.804999 2.928114 
Q -1.190457 2.856228 -1.600702 2.712456 
L -1.600702 1.957653 
Q -1.275976 2.147284 -0.889279 2.243958 
Q -0.501343 2.340632 -0.078703 2.340632 
Q 0.656269 2.340632 1.041727 2.050609 
Q 1.427184 1.760587 1.427184 1.206569 
Q 1.427184 0.694691 1.068994 0.407147 
Q 0.710804 0.118364 0.072506 0.118364 
L -0.601735 0.118364 
L -0.601735 -0.524892 
L 0.103491 -0.524892 
Q 0.679818 -0.524892 0.985953 -0.755422 
Q 1.292088 -0.985953 1.292088 -1.419748 
Q 1.292088 -1.864697 0.976038 -2.102665 
Q 0.661227 -2.341872 0.072506 -2.341872 
Q -0.249742 -2.341872 -0.617848 -2.271225 
Q -0.985953 -2.201818 -1.427184 -2.055567 
L -1.427184 -2.752117 
Q -0.980996 -2.876059 -0.59182 -2.938029 
Q -0.202644 -3 0.141913 -3 
Q 1.033051 -3 1.551126 -2.594712 
Q 2.07044 -2.190663 2.07044 -1.501549 
Q 2.07044 -1.020657 1.79529 -0.689734 
Q 1.52014 -0.35881 1.01322 -0.231151 
z
" id="md715bc4034" style="stroke:#2ca02c;"/>
    </defs>
    <g clip-path="url(#pba35cef5bb)">
     <use style="fill:#2ca02c;stroke:#2ca02c;" x="49.32804" xlink:href="#md715bc4034" y="187.244775"/>
     <use style="fill:#2ca02c;stroke:#2ca02c;" x="78.842089" xlink:href="#md715bc4034" y="183.51158"/>
     <use style="fill:#2ca02c;stroke:#2ca02c;" x="108.356139" xlink:href="#md715bc4034" y="179.373582"/>
     <use style="fill:#2ca02c;stroke:#2ca02c;" x="137.870189" xlink:href="#md715bc4034" y="192.50723"/>
     <use style="fill:#2ca02c;stroke:#2ca02c;" x="167.384238" xlink:href="#md715bc4034" y="176.674887"/>
     <use style="fill:#2ca02c;stroke:#2ca02c;" x="196.898288" xlink:href="#md715bc4034" y="166.015042"/>
     <use style="fill:#2ca02c;stroke:#2ca02c;" x="226.412337" xlink:href="#md715bc4034" y="148.1137"/>
     <use style="fill:#2ca02c;stroke:#2ca02c;" x="255.926387" xlink:href="#md715bc4034" y="142.581375"/>
     <use style="fill:#2ca02c;stroke:#2ca02c;" x="285.440436" xlink:href="#md715bc4034" y="136.509312"/>
     <use style="fill:#2ca02c;stroke:#2ca02c;" x="314.954486" xlink:href="#md715bc4034" y="148.60846"/>
     <use style="fill:#2ca02c;stroke:#2ca02c;" x="344.468536" xlink:href="#md715bc4034" y="129.357771"/>
     <use style="fill:#2ca02c;stroke:#2ca02c;" x="373.982585" xlink:href="#md715bc4034" y="79.926677"/>
    </g>
   </g>
   <g id="line2d_18">
    <path clip-path="url(#pba35cef5bb)" d="M 49.32804 210.741411 
L 78.842089 221.338286 
L 108.356139 218.503157 
L 137.870189 177.649415 
L 167.384238 173.280528 
L 196.898288 190.198346 
L 226.412337 202.32898 
L 255.926387 186.5731 
L 285.440436 197.123497 
L 314.954486 172.629843 
L 344.468536 140.60683 
L 373.982585 121.922866 
" style="fill:none;stroke:#d62728;stroke-linecap:square;stroke-width:1.5;"/>
    <defs>
     <path d="M 0.723318 -2.292756 
L -1.326404 0.910416 
L 0.723318 0.910416 
L 0.723318 -2.292756 
z
M 0.509859 -3 
L 1.530862 -3 
L 1.530862 0.910416 
L 2.38727 0.910416 
L 2.38727 1.585512 
L 1.530862 1.585512 
L 1.530862 3 
L 0.723318 3 
L 0.723318 1.585512 
L -1.984784 1.585512 
L -1.984784 0.8024 
L 0.509859 -3 
z
" id="mbdadc302eb" style="stroke:#d62728;"/>
    </defs>
    <g clip-path="url(#pba35cef5bb)">
     <use style="fill:#d62728;stroke:#d62728;" x="49.32804" xlink:href="#mbdadc302eb" y="210.741411"/>
     <use style="fill:#d62728;stroke:#d62728;" x="78.842089" xlink:href="#mbdadc302eb" y="221.338286"/>
     <use style="fill:#d62728;stroke:#d62728;" x="108.356139" xlink:href="#mbdadc302eb" y="218.503157"/>
     <use style="fill:#d62728;stroke:#d62728;" x="137.870189" xlink:href="#mbdadc302eb" y="177.649415"/>
     <use style="fill:#d62728;stroke:#d62728;" x="167.384238" xlink:href="#mbdadc302eb" y="173.280528"/>
     <use style="fill:#d62728;stroke:#d62728;" x="196.898288" xlink:href="#mbdadc302eb" y="190.198346"/>
     <use style="fill:#d62728;stroke:#d62728;" x="226.412337" xlink:href="#mbdadc302eb" y="202.32898"/>
     <use style="fill:#d62728;stroke:#d62728;" x="255.926387" xlink:href="#mbdadc302eb" y="186.5731"/>
     <use style="fill:#d62728;stroke:#d62728;" x="285.440436" xlink:href="#mbdadc302eb" y="197.123497"/>
     <use style="fill:#d62728;stroke:#d62728;" x="314.954486" xlink:href="#mbdadc302eb" y="172.629843"/>
     <use style="fill:#d62728;stroke:#d62728;" x="344.468536" xlink:href="#mbdadc302eb" y="140.60683"/>
     <use style="fill:#d62728;stroke:#d62728;" x="373.982585" xlink:href="#mbdadc302eb" y="121.922866"/>
    </g>
   </g>
   <g id="line2d_19">
    <path clip-path="url(#pba35cef5bb)" d="M 49.32804 239.599454 
L 78.842089 206.765334 
L 108.356139 189.898491 
L 137.870189 183.196733 
L 167.384238 216.61557 
L 196.898288 221.698112 
L 226.412337 182.791928 
L 255.926387 169.703258 
L 285.440436 154.725502 
L 314.954486 126.794011 
L 344.468536 191.337795 
L 373.982585 161.472239 
" style="fill:none;stroke:#9467bd;stroke-linecap:square;stroke-width:1.5;"/>
    <defs>
     <path d="M -1.343914 -3 
L 1.781585 -3 
L 1.781585 -2.328989 
L -0.614883 -2.328989 
L -0.614883 -0.887324 
Q -0.442085 -0.946605 -0.269287 -0.975615 
Q -0.095228 -1.004625 0.078831 -1.004625 
Q 1.063906 -1.004625 1.639058 -0.464789 
Q 2.215472 0.075047 2.215472 0.997057 
Q 2.215472 1.946815 1.623923 2.474038 
Q 1.032373 3 -0.043515 3 
Q -0.414337 3 -0.799033 2.936935 
Q -1.182468 2.87387 -1.59239 2.74774 
L -1.59239 1.946815 
Q -1.237965 2.139794 -0.859575 2.234391 
Q -0.481186 2.328989 -0.059912 2.328989 
Q 0.622451 2.328989 1.01976 1.97078 
Q 1.418331 1.612571 1.418331 0.997057 
Q 1.418331 0.382804 1.01976 0.024595 
Q 0.622451 -0.334875 -0.059912 -0.334875 
Q -0.37902 -0.334875 -0.696868 -0.264242 
Q -1.013454 -0.193609 -1.343914 -0.043515 
L -1.343914 -3 
z
" id="md66c5fa59f" style="stroke:#9467bd;"/>
    </defs>
    <g clip-path="url(#pba35cef5bb)">
     <use style="fill:#9467bd;stroke:#9467bd;" x="49.32804" xlink:href="#md66c5fa59f" y="239.599454"/>
     <use style="fill:#9467bd;stroke:#9467bd;" x="78.842089" xlink:href="#md66c5fa59f" y="206.765334"/>
     <use style="fill:#9467bd;stroke:#9467bd;" x="108.356139" xlink:href="#md66c5fa59f" y="189.898491"/>
     <use style="fill:#9467bd;stroke:#9467bd;" x="137.870189" xlink:href="#md66c5fa59f" y="183.196733"/>
     <use style="fill:#9467bd;stroke:#9467bd;" x="167.384238" xlink:href="#md66c5fa59f" y="216.61557"/>
     <use style="fill:#9467bd;stroke:#9467bd;" x="196.898288" xlink:href="#md66c5fa59f" y="221.698112"/>
     <use style="fill:#9467bd;stroke:#9467bd;" x="226.412337" xlink:href="#md66c5fa59f" y="182.791928"/>
     <use style="fill:#9467bd;stroke:#9467bd;" x="255.926387" xlink:href="#md66c5fa59f" y="169.703258"/>
     <use style="fill:#9467bd;stroke:#9467bd;" x="285.440436" xlink:href="#md66c5fa59f" y="154.725502"/>
     <use style="fill:#9467bd;stroke:#9467bd;" x="314.954486" xlink:href="#md66c5fa59f" y="126.794011"/>
     <use style="fill:#9467bd;stroke:#9467bd;" x="344.468536" xlink:href="#md66c5fa59f" y="191.337795"/>
     <use style="fill:#9467bd;stroke:#9467bd;" x="373.982585" xlink:href="#md66c5fa59f" y="161.472239"/>
    </g>
   </g>
   <g id="line2d_20">
    <path clip-path="url(#pba35cef5bb)" d="M 49.32804 231.191521 
L 78.842089 219.75805 
L 108.356139 246.854446 
L 137.870189 261.216 
L 167.384238 230.26197 
L 196.898288 218.503157 
L 226.412337 203.212053 
L 255.926387 198.37839 
L 285.440436 206.558434 
L 314.954486 224.917055 
L 344.468536 180.438067 
L 373.982585 157.896469 
" style="fill:none;stroke:#8c564b;stroke-linecap:square;stroke-width:1.5;"/>
    <defs>
     <path d="M 0.345177 -0.315431 
Q -0.181574 -0.315431 -0.490188 0.045239 
Q -0.797562 0.404668 -0.797562 1.031812 
Q -0.797562 1.655237 -0.490188 2.018385 
Q -0.181574 2.380293 0.345177 2.380293 
Q 0.871927 2.380293 1.179302 2.018385 
Q 1.486676 1.655237 1.486676 1.031812 
Q 1.486676 0.404668 1.179302 0.045239 
Q 0.871927 -0.315431 0.345177 -0.315431 
z
M 1.898162 -2.76823 
L 1.898162 -2.055567 
Q 1.603181 -2.194381 1.303243 -2.267507 
Q 1.003305 -2.341872 0.708325 -2.341872 
Q -0.066309 -2.341872 -0.475315 -1.818839 
Q -0.883082 -1.295807 -0.941334 -0.238587 
Q -0.713282 -0.575707 -0.368725 -0.755422 
Q -0.022929 -0.935137 0.391035 -0.935137 
Q 1.262342 -0.935137 1.768023 -0.405908 
Q 2.273704 0.122082 2.273704 1.031812 
Q 2.273704 1.92295 1.746953 2.462095 
Q 1.220202 3 0.345177 3 
Q -0.658748 3 -1.189217 2.231564 
Q -1.719686 1.461888 -1.719686 0.001859 
Q -1.719686 -1.368932 -1.068994 -2.184466 
Q -0.418302 -3 0.677339 -3 
Q 0.97232 -3 1.272258 -2.941748 
Q 1.572196 -2.883495 1.898162 -2.76823 
z
" id="mc3adb8b6bc" style="stroke:#8c564b;"/>
    </defs>
    <g clip-path="url(#pba35cef5bb)">
     <use style="fill:#8c564b;stroke:#8c564b;" x="49.32804" xlink:href="#mc3adb8b6bc" y="231.191521"/>
     <use style="fill:#8c564b;stroke:#8c564b;" x="78.842089" xlink:href="#mc3adb8b6bc" y="219.75805"/>
     <use style="fill:#8c564b;stroke:#8c564b;" x="108.356139" xlink:href="#mc3adb8b6bc" y="246.854446"/>
     <use style="fill:#8c564b;stroke:#8c564b;" x="137.870189" xlink:href="#mc3adb8b6bc" y="261.216"/>
     <use style="fill:#8c564b;stroke:#8c564b;" x="167.384238" xlink:href="#mc3adb8b6bc" y="230.26197"/>
     <use style="fill:#8c564b;stroke:#8c564b;" x="196.898288" xlink:href="#mc3adb8b6bc" y="218.503157"/>
     <use style="fill:#8c564b;stroke:#8c564b;" x="226.412337" xlink:href="#mc3adb8b6bc" y="203.212053"/>
     <use style="fill:#8c564b;stroke:#8c564b;" x="255.926387" xlink:href="#mc3adb8b6bc" y="198.37839"/>
     <use style="fill:#8c564b;stroke:#8c564b;" x="285.440436" xlink:href="#mc3adb8b6bc" y="206.558434"/>
     <use style="fill:#8c564b;stroke:#8c564b;" x="314.954486" xlink:href="#mc3adb8b6bc" y="224.917055"/>
     <use style="fill:#8c564b;stroke:#8c564b;" x="344.468536" xlink:href="#mc3adb8b6bc" y="180.438067"/>
     <use style="fill:#8c564b;stroke:#8c564b;" x="373.982585" xlink:href="#mc3adb8b6bc" y="157.896469"/>
    </g>
   </g>
   <g id="line2d_21">
    <path clip-path="url(#pba35cef5bb)" d="M 49.32804 236.855781 
L 78.842089 258.44534 
L 108.356139 241.668454 
L 137.870189 189.94347 
L 167.384238 217.515135 
L 196.898288 206.810312 
L 226.412337 243.782431 
L 255.926387 223.722133 
L 285.440436 185.085819 
L 314.954486 176.58493 
L 344.468536 186.615079 
L 373.982585 181.127733 
" style="fill:none;stroke:#e377c2;stroke-linecap:square;stroke-width:1.5;"/>
    <defs>
     <path d="M -1.591299 -3 
L 2.266395 -3 
L 2.266395 -2.654093 
L 0.088084 3 
L -0.759323 3 
L 1.290399 -2.315902 
L -1.591299 -2.315902 
L -1.591299 -3 
z
" id="m3f391cdad4" style="stroke:#e377c2;"/>
    </defs>
    <g clip-path="url(#pba35cef5bb)">
     <use style="fill:#e377c2;stroke:#e377c2;" x="49.32804" xlink:href="#m3f391cdad4" y="236.855781"/>
     <use style="fill:#e377c2;stroke:#e377c2;" x="78.842089" xlink:href="#m3f391cdad4" y="258.44534"/>
     <use style="fill:#e377c2;stroke:#e377c2;" x="108.356139" xlink:href="#m3f391cdad4" y="241.668454"/>
     <use style="fill:#e377c2;stroke:#e377c2;" x="137.870189" xlink:href="#m3f391cdad4" y="189.94347"/>
     <use style="fill:#e377c2;stroke:#e377c2;" x="167.384238" xlink:href="#m3f391cdad4" y="217.515135"/>
     <use style="fill:#e377c2;stroke:#e377c2;" x="196.898288" xlink:href="#m3f391cdad4" y="206.810312"/>
     <use style="fill:#e377c2;stroke:#e377c2;" x="226.412337" xlink:href="#m3f391cdad4" y="243.782431"/>
     <use style="fill:#e377c2;stroke:#e377c2;" x="255.926387" xlink:href="#m3f391cdad4" y="223.722133"/>
     <use style="fill:#e377c2;stroke:#e377c2;" x="285.440436" xlink:href="#m3f391cdad4" y="185.085819"/>
     <use style="fill:#e377c2;stroke:#e377c2;" x="314.954486" xlink:href="#m3f391cdad4" y="176.58493"/>
     <use style="fill:#e377c2;stroke:#e377c2;" x="344.468536" xlink:href="#m3f391cdad4" y="186.615079"/>
     <use style="fill:#e377c2;stroke:#e377c2;" x="373.982585" xlink:href="#m3f391cdad4" y="181.127733"/>
    </g>
   </g>
   <g id="line2d_22">
    <path clip-path="url(#pba35cef5bb)" d="M 49.32804 215.895918 
L 78.842089 208.92429 
L 108.356139 212.882376 
L 137.870189 218.594613 
L 167.384238 228.085023 
L 196.898288 213.781941 
L 226.412337 182.971841 
L 255.926387 185.445645 
L 285.440436 157.33424 
L 314.954486 173.751301 
L 344.468536 169.343432 
" style="fill:none;stroke:#7f7f7f;stroke-linecap:square;stroke-width:1.5;"/>
    <defs>
     <path d="M 0.268953 0.140673 
Q -0.288783 0.140673 -0.608552 0.439372 
Q -0.927081 0.738071 -0.927081 1.259864 
Q -0.927081 1.782896 -0.608552 2.081595 
Q -0.288783 2.380293 0.268953 2.380293 
Q 0.826689 2.380293 1.147697 2.080355 
Q 1.469944 1.779178 1.469944 1.259864 
Q 1.469944 0.738071 1.150176 0.439372 
Q 0.831646 0.140673 0.268953 0.140673 
z
M -0.513117 -0.191489 
Q -1.016319 -0.315431 -1.297666 -0.659988 
Q -1.577773 -1.005784 -1.577773 -1.501549 
Q -1.577773 -2.194381 -1.084487 -2.597191 
Q -0.589961 -3 0.268953 -3 
Q 1.132824 -3 1.624871 -2.597191 
Q 2.116918 -2.194381 2.116918 -1.501549 
Q 2.116918 -1.005784 1.835571 -0.659988 
Q 1.555464 -0.315431 1.05598 -0.191489 
Q 1.621153 -0.060112 1.935964 0.324107 
Q 2.252014 0.707085 2.252014 1.259864 
Q 2.252014 2.101425 1.738897 2.551332 
Q 1.22578 3 0.268953 3 
Q -0.686635 3 -1.200992 2.551332 
Q -1.714109 2.101425 -1.714109 1.259864 
Q -1.714109 0.707085 -1.396819 0.324107 
Q -1.07829 -0.060112 -0.513117 -0.191489 
z
M -0.799422 -1.427184 
Q -0.799422 -0.978517 -0.519314 -0.726916 
Q -0.237967 -0.475315 0.268953 -0.475315 
Q 0.773394 -0.475315 1.05722 -0.726916 
Q 1.342285 -0.978517 1.342285 -1.427184 
Q 1.342285 -1.877092 1.05722 -2.128692 
Q 0.773394 -2.380293 0.268953 -2.380293 
Q -0.237967 -2.380293 -0.519314 -2.128692 
Q -0.799422 -1.877092 -0.799422 -1.427184 
z
" id="m01dce35df6" style="stroke:#7f7f7f;"/>
    </defs>
    <g clip-path="url(#pba35cef5bb)">
     <use style="fill:#7f7f7f;stroke:#7f7f7f;" x="49.32804" xlink:href="#m01dce35df6" y="215.895918"/>
     <use style="fill:#7f7f7f;stroke:#7f7f7f;" x="78.842089" xlink:href="#m01dce35df6" y="208.92429"/>
     <use style="fill:#7f7f7f;stroke:#7f7f7f;" x="108.356139" xlink:href="#m01dce35df6" y="212.882376"/>
     <use style="fill:#7f7f7f;stroke:#7f7f7f;" x="137.870189" xlink:href="#m01dce35df6" y="218.594613"/>
     <use style="fill:#7f7f7f;stroke:#7f7f7f;" x="167.384238" xlink:href="#m01dce35df6" y="228.085023"/>
     <use style="fill:#7f7f7f;stroke:#7f7f7f;" x="196.898288" xlink:href="#m01dce35df6" y="213.781941"/>
     <use style="fill:#7f7f7f;stroke:#7f7f7f;" x="226.412337" xlink:href="#m01dce35df6" y="182.971841"/>
     <use style="fill:#7f7f7f;stroke:#7f7f7f;" x="255.926387" xlink:href="#m01dce35df6" y="185.445645"/>
     <use style="fill:#7f7f7f;stroke:#7f7f7f;" x="285.440436" xlink:href="#m01dce35df6" y="157.33424"/>
     <use style="fill:#7f7f7f;stroke:#7f7f7f;" x="314.954486" xlink:href="#m01dce35df6" y="173.751301"/>
     <use style="fill:#7f7f7f;stroke:#7f7f7f;" x="344.468536" xlink:href="#m01dce35df6" y="169.343432"/>
    </g>
   </g>
   <g id="line2d_23">
    <path clip-path="url(#pba35cef5bb)" d="M 49.32804 230.122538 
L 78.842089 235.095633 
L 108.356139 254.802102 
L 137.870189 232.167549 
L 167.384238 193.358818 
L 196.898288 213.808928 
L 226.412337 195.868604 
L 255.926387 197.07702 
L 285.440436 212.972332 
L 314.954486 175.418494 
L 344.468536 154.782475 
" style="fill:none;stroke:#bcbd22;stroke-linecap:square;stroke-width:1.5;"/>
    <defs>
     <path d="M -1.37327 2.76699 
L -1.37327 2.054328 
Q -1.07829 2.194381 -0.777112 2.267507 
Q -0.474695 2.340632 -0.183433 2.340632 
Q 0.5912 2.340632 0.998967 1.820078 
Q 1.407974 1.299525 1.466226 0.237348 
Q 1.241892 0.57075 0.896096 0.749225 
Q 0.551539 0.927701 0.133857 0.927701 
Q -0.733733 0.927701 -1.239413 0.403429 
Q -1.745094 -0.122082 -1.745094 -1.033051 
Q -1.745094 -1.92295 -1.218343 -2.460855 
Q -0.691593 -3 0.183433 -3 
Q 1.187358 -3 1.715348 -2.230324 
Q 2.244578 -1.461888 2.244578 0.001859 
Q 2.244578 1.368932 1.595125 2.184466 
Q 0.946912 3 -0.14873 3 
Q -0.44371 3 -0.746127 2.941748 
Q -1.047304 2.883495 -1.37327 2.76699 
z
M 0.183433 0.315431 
Q 0.710184 0.315431 1.017558 -0.043999 
Q 1.326172 -0.404668 1.326172 -1.033051 
Q 1.326172 -1.656476 1.017558 -2.018385 
Q 0.710184 -2.380293 0.183433 -2.380293 
Q -0.343317 -2.380293 -0.650692 -2.018385 
Q -0.958067 -1.656476 -0.958067 -1.033051 
Q -0.958067 -0.404668 -0.650692 -0.043999 
Q -0.343317 0.315431 0.183433 0.315431 
z
" id="m3d18bc7805" style="stroke:#bcbd22;"/>
    </defs>
    <g clip-path="url(#pba35cef5bb)">
     <use style="fill:#bcbd22;stroke:#bcbd22;" x="49.32804" xlink:href="#m3d18bc7805" y="230.122538"/>
     <use style="fill:#bcbd22;stroke:#bcbd22;" x="78.842089" xlink:href="#m3d18bc7805" y="235.095633"/>
     <use style="fill:#bcbd22;stroke:#bcbd22;" x="108.356139" xlink:href="#m3d18bc7805" y="254.802102"/>
     <use style="fill:#bcbd22;stroke:#bcbd22;" x="137.870189" xlink:href="#m3d18bc7805" y="232.167549"/>
     <use style="fill:#bcbd22;stroke:#bcbd22;" x="167.384238" xlink:href="#m3d18bc7805" y="193.358818"/>
     <use style="fill:#bcbd22;stroke:#bcbd22;" x="196.898288" xlink:href="#m3d18bc7805" y="213.808928"/>
     <use style="fill:#bcbd22;stroke:#bcbd22;" x="226.412337" xlink:href="#m3d18bc7805" y="195.868604"/>
     <use style="fill:#bcbd22;stroke:#bcbd22;" x="255.926387" xlink:href="#m3d18bc7805" y="197.07702"/>
     <use style="fill:#bcbd22;stroke:#bcbd22;" x="285.440436" xlink:href="#m3d18bc7805" y="212.972332"/>
     <use style="fill:#bcbd22;stroke:#bcbd22;" x="314.954486" xlink:href="#m3d18bc7805" y="175.418494"/>
     <use style="fill:#bcbd22;stroke:#bcbd22;" x="344.468536" xlink:href="#m3d18bc7805" y="154.782475"/>
    </g>
   </g>
   <g id="line2d_24">
    <path clip-path="url(#pba35cef5bb)" d="M 49.32804 255.341841 
L 78.842089 230.873674 
L 108.356139 187.019884 
L 137.870189 176.135148 
L 167.384238 191.562686 
L 196.898288 182.342146 
L 226.412337 183.196733 
L 255.926387 166.959585 
L 285.440436 137.228964 
L 314.954486 141.996658 
L 344.468536 146.494483 
" style="fill:none;stroke:#17becf;stroke-linecap:square;stroke-width:1.5;"/>
    <defs>
     <path d="M -2.382812 1.398002 
L -1.581399 1.398002 
L -1.581399 -1.369241 
L -2.453547 -1.194345 
L -2.453547 -1.641301 
L -1.586063 -1.816197 
L -1.095577 -1.816197 
L -1.095577 1.398002 
L -0.294165 1.398002 
L -0.294165 1.810756 
L -2.382812 1.810756 
L -2.382812 1.398002 
z
M 1.74619 -1.492834 
Q 1.367638 -1.492834 1.176418 -1.119723 
Q 0.985976 -0.747389 0.985976 0.001166 
Q 0.985976 0.746611 1.176418 1.119723 
Q 1.367638 1.492834 1.74619 1.492834 
Q 2.127852 1.492834 2.318294 1.119723 
Q 2.509514 0.746611 2.509514 0.001166 
Q 2.509514 -0.747389 2.318294 -1.119723 
Q 2.127852 -1.492834 1.74619 -1.492834 
z
M 1.74619 -1.881492 
Q 2.356383 -1.881492 2.678191 -1.398779 
Q 3 -0.916843 3 0.001166 
Q 3 0.916843 2.678191 1.399556 
Q 2.356383 1.881492 1.74619 1.881492 
Q 1.136775 1.881492 0.814967 1.399556 
Q 0.493158 0.916843 0.493158 0.001166 
Q 0.493158 -0.916843 0.814967 -1.398779 
Q 1.136775 -1.881492 1.74619 -1.881492 
z
" id="m98eff01c88" style="stroke:#17becf;"/>
    </defs>
    <g clip-path="url(#pba35cef5bb)">
     <use style="fill:#17becf;stroke:#17becf;" x="49.32804" xlink:href="#m98eff01c88" y="255.341841"/>
     <use style="fill:#17becf;stroke:#17becf;" x="78.842089" xlink:href="#m98eff01c88" y="230.873674"/>
     <use style="fill:#17becf;stroke:#17becf;" x="108.356139" xlink:href="#m98eff01c88" y="187.019884"/>
     <use style="fill:#17becf;stroke:#17becf;" x="137.870189" xlink:href="#m98eff01c88" y="176.135148"/>
     <use style="fill:#17becf;stroke:#17becf;" x="167.384238" xlink:href="#m98eff01c88" y="191.562686"/>
     <use style="fill:#17becf;stroke:#17becf;" x="196.898288" xlink:href="#m98eff01c88" y="182.342146"/>
     <use style="fill:#17becf;stroke:#17becf;" x="226.412337" xlink:href="#m98eff01c88" y="183.196733"/>
     <use style="fill:#17becf;stroke:#17becf;" x="255.926387" xlink:href="#m98eff01c88" y="166.959585"/>
     <use style="fill:#17becf;stroke:#17becf;" x="285.440436" xlink:href="#m98eff01c88" y="137.228964"/>
     <use style="fill:#17becf;stroke:#17becf;" x="314.954486" xlink:href="#m98eff01c88" y="141.996658"/>
     <use style="fill:#17becf;stroke:#17becf;" x="344.468536" xlink:href="#m98eff01c88" y="146.494483"/>
    </g>
   </g>
   <g id="line2d_25">
    <path clip-path="url(#pba35cef5bb)" d="M 49.32804 182.668988 
L 78.842089 206.372524 
L 108.356139 161.149895 
L 137.870189 171.421427 
L 167.384238 201.213519 
L 196.898288 184.574566 
L 226.412337 143.674347 
L 255.926387 147.485504 
L 285.440436 140.60683 
L 314.954486 150.831885 
L 344.468536 126.942439 
" style="fill:none;stroke:#1f77b4;stroke-linecap:square;stroke-width:1.5;"/>
    <defs>
     <path d="M -2.369247 1.431508 
L -1.550221 1.431508 
L -1.550221 -1.396554 
L -2.441537 -1.217814 
L -2.441537 -1.674594 
L -1.554987 -1.853334 
L -1.053721 -1.853334 
L -1.053721 1.431508 
L -0.234695 1.431508 
L -0.234695 1.853334 
L -2.369247 1.853334 
L -2.369247 1.431508 
z
M 0.865449 1.431508 
L 1.684474 1.431508 
L 1.684474 -1.396554 
L 0.793158 -1.217814 
L 0.793158 -1.674594 
L 1.679708 -1.853334 
L 2.180974 -1.853334 
L 2.180974 1.431508 
L 3 1.431508 
L 3 1.853334 
L 0.865449 1.853334 
L 0.865449 1.431508 
z
" id="mf171fb1edc" style="stroke:#1f77b4;"/>
    </defs>
    <g clip-path="url(#pba35cef5bb)">
     <use style="fill:#1f77b4;stroke:#1f77b4;" x="49.32804" xlink:href="#mf171fb1edc" y="182.668988"/>
     <use style="fill:#1f77b4;stroke:#1f77b4;" x="78.842089" xlink:href="#mf171fb1edc" y="206.372524"/>
     <use style="fill:#1f77b4;stroke:#1f77b4;" x="108.356139" xlink:href="#mf171fb1edc" y="161.149895"/>
     <use style="fill:#1f77b4;stroke:#1f77b4;" x="137.870189" xlink:href="#mf171fb1edc" y="171.421427"/>
     <use style="fill:#1f77b4;stroke:#1f77b4;" x="167.384238" xlink:href="#mf171fb1edc" y="201.213519"/>
     <use style="fill:#1f77b4;stroke:#1f77b4;" x="196.898288" xlink:href="#mf171fb1edc" y="184.574566"/>
     <use style="fill:#1f77b4;stroke:#1f77b4;" x="226.412337" xlink:href="#mf171fb1edc" y="143.674347"/>
     <use style="fill:#1f77b4;stroke:#1f77b4;" x="255.926387" xlink:href="#mf171fb1edc" y="147.485504"/>
     <use style="fill:#1f77b4;stroke:#1f77b4;" x="285.440436" xlink:href="#mf171fb1edc" y="140.60683"/>
     <use style="fill:#1f77b4;stroke:#1f77b4;" x="314.954486" xlink:href="#mf171fb1edc" y="150.831885"/>
     <use style="fill:#1f77b4;stroke:#1f77b4;" x="344.468536" xlink:href="#mf171fb1edc" y="126.942439"/>
    </g>
   </g>
   <g id="line2d_26">
    <path clip-path="url(#pba35cef5bb)" d="M 49.32804 221.293308 
L 78.842089 211.48805 
L 108.356139 186.570101 
L 137.870189 192.102425 
L 167.384238 179.14869 
L 196.898288 186.390188 
L 226.412337 166.599759 
L 255.926387 160.257826 
L 285.440436 167.139498 
L 314.954486 151.936851 
L 344.468536 131.021966 
" style="fill:none;stroke:#ff7f0e;stroke-linecap:square;stroke-width:1.5;"/>
    <defs>
     <path d="M -2.365043 1.474635 
L -1.540559 1.474635 
L -1.540559 -1.372274 
L -2.437816 -1.192343 
L -2.437816 -1.652167 
L -1.545358 -1.832098 
L -1.040751 -1.832098 
L -1.040751 1.474635 
L -0.216267 1.474635 
L -0.216267 1.899272 
L -2.365043 1.899272 
L -2.365043 1.474635 
z
M 1.238275 1.474635 
L 3 1.474635 
L 3 1.899272 
L 0.631308 1.899272 
L 0.631308 1.474635 
Q 0.918398 1.177149 1.414208 0.676541 
Q 1.910818 0.175133 2.037969 0.029589 
Q 2.280276 -0.242307 2.376239 -0.431035 
Q 2.473002 -0.619762 2.473002 -0.802093 
Q 2.473002 -1.099578 2.264282 -1.286707 
Q 2.055562 -1.474635 1.72049 -1.474635 
Q 1.482982 -1.474635 1.219083 -1.392266 
Q 0.955984 -1.309898 0.656098 -1.141962 
L 0.656098 -1.652167 
Q 0.960782 -1.77452 1.22548 -1.836896 
Q 1.490978 -1.899272 1.710894 -1.899272 
Q 2.290672 -1.899272 2.63534 -1.608983 
Q 2.980008 -1.319494 2.980008 -0.83488 
Q 2.980008 -0.604568 2.893641 -0.398247 
Q 2.808074 -0.192726 2.580161 0.087167 
Q 2.517785 0.159939 2.182713 0.506206 
Q 1.848441 0.852473 1.238275 1.474635 
z
" id="m1dc9f5eaf8" style="stroke:#ff7f0e;"/>
    </defs>
    <g clip-path="url(#pba35cef5bb)">
     <use style="fill:#ff7f0e;stroke:#ff7f0e;" x="49.32804" xlink:href="#m1dc9f5eaf8" y="221.293308"/>
     <use style="fill:#ff7f0e;stroke:#ff7f0e;" x="78.842089" xlink:href="#m1dc9f5eaf8" y="211.48805"/>
     <use style="fill:#ff7f0e;stroke:#ff7f0e;" x="108.356139" xlink:href="#m1dc9f5eaf8" y="186.570101"/>
     <use style="fill:#ff7f0e;stroke:#ff7f0e;" x="137.870189" xlink:href="#m1dc9f5eaf8" y="192.102425"/>
     <use style="fill:#ff7f0e;stroke:#ff7f0e;" x="167.384238" xlink:href="#m1dc9f5eaf8" y="179.14869"/>
     <use style="fill:#ff7f0e;stroke:#ff7f0e;" x="196.898288" xlink:href="#m1dc9f5eaf8" y="186.390188"/>
     <use style="fill:#ff7f0e;stroke:#ff7f0e;" x="226.412337" xlink:href="#m1dc9f5eaf8" y="166.599759"/>
     <use style="fill:#ff7f0e;stroke:#ff7f0e;" x="255.926387" xlink:href="#m1dc9f5eaf8" y="160.257826"/>
     <use style="fill:#ff7f0e;stroke:#ff7f0e;" x="285.440436" xlink:href="#m1dc9f5eaf8" y="167.139498"/>
     <use style="fill:#ff7f0e;stroke:#ff7f0e;" x="314.954486" xlink:href="#m1dc9f5eaf8" y="151.936851"/>
     <use style="fill:#ff7f0e;stroke:#ff7f0e;" x="344.468536" xlink:href="#m1dc9f5eaf8" y="131.021966"/>
    </g>
   </g>
   <g id="patch_3">
    <path d="M 33.095313 273.312 
L 33.095313 7.2 
" style="fill:none;stroke:#000000;stroke-linecap:square;stroke-linejoin:miter;stroke-width:0.8;"/>
   </g>
   <g id="patch_4">
    <path d="M 390.215312 273.312 
L 390.215312 7.2 
" style="fill:none;stroke:#000000;stroke-linecap:square;stroke-linejoin:miter;stroke-width:0.8;"/>
   </g>
   <g id="patch_5">
    <path d="M 33.095313 273.312 
L 390.215313 273.312 
" style="fill:none;stroke:#000000;stroke-linecap:square;stroke-linejoin:miter;stroke-width:0.8;"/>
   </g>
   <g id="patch_6">
    <path d="M 33.095313 7.2 
L 390.215313 7.2 
" style="fill:none;stroke:#000000;stroke-linecap:square;stroke-linejoin:miter;stroke-width:0.8;"/>
   </g>
  </g>
 </g>
 <defs>
  <clipPath id="pba35cef5bb">
   <rect height="266.112" width="357.12" x="33.095313" y="7.2"/>
  </clipPath>
 </defs>
</svg>
