<?xml version="1.0" encoding="utf-8" standalone="no"?>
<!DOCTYPE svg PUBLIC "-//W3C//DTD SVG 1.1//EN"
  "http://www.w3.org/Graphics/SVG/1.1/DTD/svg11.dtd">
<svg height="296.902625pt" version="1.1" viewBox="0 0 397.415312 296.902625" width="397.415312pt" xmlns="http://www.w3.org/2000/svg" xmlns:xlink="http://www.w3.org/1999/xlink">
 <metadata>
  <rdf:RDF xmlns:cc="http://creativecommons.org/ns#" xmlns:dc="http://purl.org/dc/elements/1.1/" xmlns:rdf="http://www.w3.org/1999/02/22-rdf-syntax-ns#">
   <cc:Work>
    <dc:type rdf:resource="http://purl.org/dc/dcmitype/StillImage"/>
    <dc:date>2021-11-02T14:46:47.103767</dc:date>
    <dc:format>image/svg+xml</dc:format>
    <dc:creator>
     <cc:Agent>
      <dc:title>Matplotlib v3.4.3, https://matplotlib.org/</dc:title>
     </cc:Agent>
    </dc:creator>
   </cc:Work>
  </rdf:RDF>
 </metadata>
 <defs>
  <style type="text/css">*{stroke-linecap:butt;stroke-linejoin:round;}</style>
 </defs>
 <g id="figure_1">
  <g id="patch_1">
   <path d="M 0 296.902625 
L 397.415312 296.902625 
L 397.415312 0 
L 0 0 
z
" style="fill:#ffffff;"/>
  </g>
  <g id="axes_1">
   <g id="patch_2">
    <path d="M 33.095313 273.312 
L 390.215312 273.312 
L 390.215312 7.2 
L 33.095313 7.2 
z
" style="fill:#ffffff;"/>
   </g>
   <g id="matplotlib.axis_1">
    <g id="xtick_1">
     <g id="line2d_1">
      <defs>
       <path d="M 0 0 
L 0 3.5 
" id="m58eb4b13a1" style="stroke:#000000;stroke-width:0.8;"/>
      </defs>
      <g>
       <use style="stroke:#000000;stroke-width:0.8;" x="78.842089" xlink:href="#m58eb4b13a1" y="273.312"/>
      </g>
     </g>
     <g id="text_1">
      <!-- 2 -->
      <g transform="translate(75.692871 287.802625)scale(0.1 -0.1)">
       <defs>
        <path d="M 3659 63 
L 447 63 
L 447 594 
Q 825 1475 1894 2203 
L 2072 2322 
Q 2619 2697 2791 2906 
Q 2988 3153 2988 3444 
Q 2988 3772 2756 4003 
Q 2500 4259 2084 4259 
Q 1250 4259 991 3328 
L 497 3506 
Q 853 4725 2116 4725 
Q 2806 4725 3216 4316 
Q 3575 3947 3575 3425 
Q 3575 3038 3344 2722 
Q 3131 2416 2366 1938 
L 2231 1856 
Q 1256 1253 978 569 
L 3659 569 
L 3659 63 
z
" id="IPAexGothic-32" transform="scale(0.015625)"/>
       </defs>
       <use xlink:href="#IPAexGothic-32"/>
      </g>
     </g>
    </g>
    <g id="xtick_2">
     <g id="line2d_2">
      <g>
       <use style="stroke:#000000;stroke-width:0.8;" x="137.870189" xlink:href="#m58eb4b13a1" y="273.312"/>
      </g>
     </g>
     <g id="text_2">
      <!-- 4 -->
      <g transform="translate(134.72097 287.802625)scale(0.1 -0.1)">
       <defs>
        <path d="M 3813 1159 
L 3059 1159 
L 3059 63 
L 2547 63 
L 2547 1159 
L 197 1159 
L 197 1672 
L 2456 4678 
L 3059 4678 
L 3059 1634 
L 3813 1634 
L 3813 1159 
z
M 2578 4109 
L 2559 4109 
Q 2278 3656 2003 3284 
L 759 1634 
L 2547 1634 
L 2547 3144 
Q 2547 3481 2578 4109 
z
" id="IPAexGothic-34" transform="scale(0.015625)"/>
       </defs>
       <use xlink:href="#IPAexGothic-34"/>
      </g>
     </g>
    </g>
    <g id="xtick_3">
     <g id="line2d_3">
      <g>
       <use style="stroke:#000000;stroke-width:0.8;" x="196.898288" xlink:href="#m58eb4b13a1" y="273.312"/>
      </g>
     </g>
     <g id="text_3">
      <!-- 6 -->
      <g transform="translate(193.749069 287.802625)scale(0.1 -0.1)">
       <defs>
        <path d="M 1056 2328 
Q 1509 2981 2234 2981 
Q 2906 2981 3316 2513 
Q 3675 2106 3675 1522 
Q 3675 884 3272 434 
Q 2853 -31 2178 -31 
Q 1375 -31 922 581 
Q 481 1178 481 2228 
Q 481 3425 1013 4109 
Q 1494 4725 2272 4725 
Q 3191 4725 3609 4025 
L 3150 3775 
Q 2894 4266 2300 4266 
Q 1119 4266 1031 2328 
L 1056 2328 
z
M 2141 2547 
Q 1684 2547 1384 2206 
Q 1116 1900 1116 1541 
Q 1116 1156 1353 844 
Q 1672 428 2159 428 
Q 2669 428 2941 844 
Q 3125 1128 3125 1503 
Q 3125 1944 2881 2228 
Q 2600 2547 2141 2547 
z
" id="IPAexGothic-36" transform="scale(0.015625)"/>
       </defs>
       <use xlink:href="#IPAexGothic-36"/>
      </g>
     </g>
    </g>
    <g id="xtick_4">
     <g id="line2d_4">
      <g>
       <use style="stroke:#000000;stroke-width:0.8;" x="255.926387" xlink:href="#m58eb4b13a1" y="273.312"/>
      </g>
     </g>
     <g id="text_4">
      <!-- 8 -->
      <g transform="translate(252.777168 287.802625)scale(0.1 -0.1)">
       <defs>
        <path d="M 2541 2425 
Q 3700 2031 3700 1197 
Q 3700 541 3100 197 
Q 2663 -56 2016 -56 
Q 1366 -56 928 197 
Q 347 531 347 1178 
Q 347 1988 1409 2381 
L 1409 2400 
Q 481 2734 481 3509 
Q 481 4100 981 4456 
Q 1406 4756 2019 4756 
Q 2703 4756 3131 4403 
Q 3553 4069 3553 3566 
Q 3553 2706 2541 2444 
L 2541 2425 
z
M 2022 2625 
Q 2997 2856 2997 3528 
Q 2997 3916 2675 4150 
Q 2413 4347 2016 4347 
Q 1606 4347 1331 4128 
Q 1050 3897 1050 3522 
Q 1050 3150 1350 2925 
Q 1494 2809 1722 2722 
Q 1984 2616 2022 2625 
z
M 1978 2209 
Q 922 1931 922 1216 
Q 922 775 1313 556 
Q 1606 391 2009 391 
Q 2575 391 2881 697 
Q 3106 922 3106 1250 
Q 3106 1594 2794 1850 
Q 2609 1994 2350 2100 
Q 2047 2222 1978 2209 
z
" id="IPAexGothic-38" transform="scale(0.015625)"/>
       </defs>
       <use xlink:href="#IPAexGothic-38"/>
      </g>
     </g>
    </g>
    <g id="xtick_5">
     <g id="line2d_5">
      <g>
       <use style="stroke:#000000;stroke-width:0.8;" x="314.954486" xlink:href="#m58eb4b13a1" y="273.312"/>
      </g>
     </g>
     <g id="text_5">
      <!-- 10 -->
      <g transform="translate(308.656049 287.802625)scale(0.1 -0.1)">
       <defs>
        <path d="M 2463 63 
L 1900 63 
L 1900 4103 
Q 1372 3922 788 3797 
L 684 4231 
Q 1519 4441 2106 4731 
L 2463 4731 
L 2463 63 
z
" id="IPAexGothic-31" transform="scale(0.015625)"/>
        <path d="M 2038 4725 
Q 2881 4725 3334 3944 
Q 3694 3325 3694 2344 
Q 3694 1372 3334 741 
Q 2888 -31 2016 -31 
Q 1147 -31 700 741 
Q 341 1372 341 2350 
Q 341 3713 1000 4334 
Q 1419 4725 2038 4725 
z
M 2016 4266 
Q 1516 4266 1228 3759 
Q 934 3247 934 2344 
Q 934 1456 1222 947 
Q 1513 447 2016 447 
Q 2619 447 2909 1153 
Q 3100 1622 3100 2375 
Q 3100 3256 2806 3759 
Q 2509 4266 2016 4266 
z
" id="IPAexGothic-30" transform="scale(0.015625)"/>
       </defs>
       <use xlink:href="#IPAexGothic-31"/>
       <use x="62.988281" xlink:href="#IPAexGothic-30"/>
      </g>
     </g>
    </g>
    <g id="xtick_6">
     <g id="line2d_6">
      <g>
       <use style="stroke:#000000;stroke-width:0.8;" x="373.982585" xlink:href="#m58eb4b13a1" y="273.312"/>
      </g>
     </g>
     <g id="text_6">
      <!-- 12 -->
      <g transform="translate(367.684148 287.802625)scale(0.1 -0.1)">
       <use xlink:href="#IPAexGothic-31"/>
       <use x="62.988281" xlink:href="#IPAexGothic-32"/>
      </g>
     </g>
    </g>
   </g>
   <g id="matplotlib.axis_2">
    <g id="ytick_1">
     <g id="line2d_7">
      <defs>
       <path d="M 0 0 
L -3.5 0 
" id="mebc8110ff7" style="stroke:#000000;stroke-width:0.8;"/>
      </defs>
      <g>
       <use style="stroke:#000000;stroke-width:0.8;" x="33.095313" xlink:href="#mebc8110ff7" y="261.77373"/>
      </g>
     </g>
     <g id="text_7">
      <!-- 250 -->
      <g transform="translate(7.2 265.519043)scale(0.1 -0.1)">
       <defs>
        <path d="M 1178 2603 
Q 1634 2963 2172 2963 
Q 2816 2963 3241 2528 
Q 3638 2113 3638 1497 
Q 3638 938 3297 513 
Q 2869 -31 2031 -31 
Q 959 -31 469 784 
L 938 1028 
Q 1309 434 2013 434 
Q 2466 434 2769 716 
Q 3081 1013 3081 1503 
Q 3081 1966 2806 2241 
Q 2519 2528 2056 2528 
Q 1406 2528 1072 2028 
L 591 2091 
L 884 4634 
L 3406 4634 
L 3406 4153 
L 1341 4153 
L 1134 2603 
L 1178 2603 
z
" id="IPAexGothic-35" transform="scale(0.015625)"/>
       </defs>
       <use xlink:href="#IPAexGothic-32"/>
       <use x="62.988281" xlink:href="#IPAexGothic-35"/>
       <use x="125.976562" xlink:href="#IPAexGothic-30"/>
      </g>
     </g>
    </g>
    <g id="ytick_2">
     <g id="line2d_8">
      <g>
       <use style="stroke:#000000;stroke-width:0.8;" x="33.095313" xlink:href="#mebc8110ff7" y="226.915589"/>
      </g>
     </g>
     <g id="text_8">
      <!-- 275 -->
      <g transform="translate(7.2 230.660901)scale(0.1 -0.1)">
       <defs>
        <path d="M 3597 4263 
Q 2238 2106 1778 63 
L 1131 63 
Q 1581 1834 2950 4128 
L 428 4128 
L 428 4634 
L 3597 4634 
L 3597 4263 
z
" id="IPAexGothic-37" transform="scale(0.015625)"/>
       </defs>
       <use xlink:href="#IPAexGothic-32"/>
       <use x="62.988281" xlink:href="#IPAexGothic-37"/>
       <use x="125.976562" xlink:href="#IPAexGothic-35"/>
      </g>
     </g>
    </g>
    <g id="ytick_3">
     <g id="line2d_9">
      <g>
       <use style="stroke:#000000;stroke-width:0.8;" x="33.095313" xlink:href="#mebc8110ff7" y="192.057447"/>
      </g>
     </g>
     <g id="text_9">
      <!-- 300 -->
      <g transform="translate(7.2 195.80276)scale(0.1 -0.1)">
       <defs>
        <path d="M 2381 2419 
Q 3506 2216 3506 1278 
Q 3506 716 3128 356 
Q 2709 -31 1944 -31 
Q 797 -31 288 881 
L 756 1131 
Q 1109 441 1938 441 
Q 2425 441 2694 691 
Q 2950 928 2950 1291 
Q 2950 1719 2566 1978 
Q 2216 2213 1644 2213 
L 1363 2213 
L 1363 2669 
L 1656 2669 
Q 2231 2669 2534 2888 
Q 2859 3119 2859 3509 
Q 2859 3934 2494 4138 
Q 2259 4278 1931 4278 
Q 1238 4278 903 3578 
L 434 3803 
Q 897 4725 1938 4725 
Q 2597 4725 3006 4394 
Q 3416 4069 3416 3534 
Q 3416 3028 3019 2706 
Q 2763 2500 2381 2444 
L 2381 2419 
z
" id="IPAexGothic-33" transform="scale(0.015625)"/>
       </defs>
       <use xlink:href="#IPAexGothic-33"/>
       <use x="62.988281" xlink:href="#IPAexGothic-30"/>
       <use x="125.976562" xlink:href="#IPAexGothic-30"/>
      </g>
     </g>
    </g>
    <g id="ytick_4">
     <g id="line2d_10">
      <g>
       <use style="stroke:#000000;stroke-width:0.8;" x="33.095313" xlink:href="#mebc8110ff7" y="157.199306"/>
      </g>
     </g>
     <g id="text_10">
      <!-- 325 -->
      <g transform="translate(7.2 160.944618)scale(0.1 -0.1)">
       <use xlink:href="#IPAexGothic-33"/>
       <use x="62.988281" xlink:href="#IPAexGothic-32"/>
       <use x="125.976562" xlink:href="#IPAexGothic-35"/>
      </g>
     </g>
    </g>
    <g id="ytick_5">
     <g id="line2d_11">
      <g>
       <use style="stroke:#000000;stroke-width:0.8;" x="33.095313" xlink:href="#mebc8110ff7" y="122.341164"/>
      </g>
     </g>
     <g id="text_11">
      <!-- 350 -->
      <g transform="translate(7.2 126.086477)scale(0.1 -0.1)">
       <use xlink:href="#IPAexGothic-33"/>
       <use x="62.988281" xlink:href="#IPAexGothic-35"/>
       <use x="125.976562" xlink:href="#IPAexGothic-30"/>
      </g>
     </g>
    </g>
    <g id="ytick_6">
     <g id="line2d_12">
      <g>
       <use style="stroke:#000000;stroke-width:0.8;" x="33.095313" xlink:href="#mebc8110ff7" y="87.483023"/>
      </g>
     </g>
     <g id="text_12">
      <!-- 375 -->
      <g transform="translate(7.2 91.228335)scale(0.1 -0.1)">
       <use xlink:href="#IPAexGothic-33"/>
       <use x="62.988281" xlink:href="#IPAexGothic-37"/>
       <use x="125.976562" xlink:href="#IPAexGothic-35"/>
      </g>
     </g>
    </g>
    <g id="ytick_7">
     <g id="line2d_13">
      <g>
       <use style="stroke:#000000;stroke-width:0.8;" x="33.095313" xlink:href="#mebc8110ff7" y="52.624881"/>
      </g>
     </g>
     <g id="text_13">
      <!-- 400 -->
      <g transform="translate(7.2 56.370194)scale(0.1 -0.1)">
       <use xlink:href="#IPAexGothic-34"/>
       <use x="62.988281" xlink:href="#IPAexGothic-30"/>
       <use x="125.976562" xlink:href="#IPAexGothic-30"/>
      </g>
     </g>
    </g>
    <g id="ytick_8">
     <g id="line2d_14">
      <g>
       <use style="stroke:#000000;stroke-width:0.8;" x="33.095313" xlink:href="#mebc8110ff7" y="17.76674"/>
      </g>
     </g>
     <g id="text_14">
      <!-- 425 -->
      <g transform="translate(7.2 21.512052)scale(0.1 -0.1)">
       <use xlink:href="#IPAexGothic-34"/>
       <use x="62.988281" xlink:href="#IPAexGothic-32"/>
       <use x="125.976562" xlink:href="#IPAexGothic-35"/>
      </g>
     </g>
    </g>
   </g>
   <g id="line2d_15">
    <path clip-path="url(#p59b1ff37f8)" d="M 49.32804 153.825937 
L 78.842089 177.068446 
L 108.356139 187.244775 
L 137.870189 210.741411 
L 167.384238 239.599454 
L 196.898288 231.191521 
L 226.412337 236.855781 
L 255.926387 215.895918 
L 285.440436 230.122538 
L 314.954486 255.341841 
L 344.468536 182.668988 
L 373.982585 221.293308 
" style="fill:none;stroke:#000000;stroke-linecap:square;stroke-opacity:0.2;stroke-width:1.5;"/>
    <defs>
     <path d="M 0 3 
C 0.795609 3 1.55874 2.683901 2.12132 2.12132 
C 2.683901 1.55874 3 0.795609 3 0 
C 3 -0.795609 2.683901 -1.55874 2.12132 -2.12132 
C 1.55874 -2.683901 0.795609 -3 0 -3 
C -0.795609 -3 -1.55874 -2.683901 -2.12132 -2.12132 
C -2.683901 -1.55874 -3 -0.795609 -3 0 
C -3 0.795609 -2.683901 1.55874 -2.12132 2.12132 
C -1.55874 2.683901 -0.795609 3 0 3 
z
" id="m9a8e900ca8" style="stroke:#000000;stroke-opacity:0.2;"/>
    </defs>
    <g clip-path="url(#p59b1ff37f8)">
     <use style="fill-opacity:0.2;stroke:#000000;stroke-opacity:0.2;" x="49.32804" xlink:href="#m9a8e900ca8" y="153.825937"/>
     <use style="fill-opacity:0.2;stroke:#000000;stroke-opacity:0.2;" x="78.842089" xlink:href="#m9a8e900ca8" y="177.068446"/>
     <use style="fill-opacity:0.2;stroke:#000000;stroke-opacity:0.2;" x="108.356139" xlink:href="#m9a8e900ca8" y="187.244775"/>
     <use style="fill-opacity:0.2;stroke:#000000;stroke-opacity:0.2;" x="137.870189" xlink:href="#m9a8e900ca8" y="210.741411"/>
     <use style="fill-opacity:0.2;stroke:#000000;stroke-opacity:0.2;" x="167.384238" xlink:href="#m9a8e900ca8" y="239.599454"/>
     <use style="fill-opacity:0.2;stroke:#000000;stroke-opacity:0.2;" x="196.898288" xlink:href="#m9a8e900ca8" y="231.191521"/>
     <use style="fill-opacity:0.2;stroke:#000000;stroke-opacity:0.2;" x="226.412337" xlink:href="#m9a8e900ca8" y="236.855781"/>
     <use style="fill-opacity:0.2;stroke:#000000;stroke-opacity:0.2;" x="255.926387" xlink:href="#m9a8e900ca8" y="215.895918"/>
     <use style="fill-opacity:0.2;stroke:#000000;stroke-opacity:0.2;" x="285.440436" xlink:href="#m9a8e900ca8" y="230.122538"/>
     <use style="fill-opacity:0.2;stroke:#000000;stroke-opacity:0.2;" x="314.954486" xlink:href="#m9a8e900ca8" y="255.341841"/>
     <use style="fill-opacity:0.2;stroke:#000000;stroke-opacity:0.2;" x="344.468536" xlink:href="#m9a8e900ca8" y="182.668988"/>
     <use style="fill-opacity:0.2;stroke:#000000;stroke-opacity:0.2;" x="373.982585" xlink:href="#m9a8e900ca8" y="221.293308"/>
    </g>
   </g>
   <g id="line2d_16">
    <path clip-path="url(#p59b1ff37f8)" d="M 49.32804 115.279579 
L 78.842089 169.648642 
L 108.356139 183.51158 
L 137.870189 221.338286 
L 167.384238 206.765334 
L 196.898288 219.75805 
L 226.412337 258.44534 
L 255.926387 208.92429 
L 285.440436 235.095633 
L 314.954486 230.873674 
L 344.468536 206.372524 
L 373.982585 211.48805 
" style="fill:none;stroke:#000000;stroke-linecap:square;stroke-opacity:0.2;stroke-width:1.5;"/>
    <g clip-path="url(#p59b1ff37f8)">
     <use style="fill-opacity:0.2;stroke:#000000;stroke-opacity:0.2;" x="49.32804" xlink:href="#m9a8e900ca8" y="115.279579"/>
     <use style="fill-opacity:0.2;stroke:#000000;stroke-opacity:0.2;" x="78.842089" xlink:href="#m9a8e900ca8" y="169.648642"/>
     <use style="fill-opacity:0.2;stroke:#000000;stroke-opacity:0.2;" x="108.356139" xlink:href="#m9a8e900ca8" y="183.51158"/>
     <use style="fill-opacity:0.2;stroke:#000000;stroke-opacity:0.2;" x="137.870189" xlink:href="#m9a8e900ca8" y="221.338286"/>
     <use style="fill-opacity:0.2;stroke:#000000;stroke-opacity:0.2;" x="167.384238" xlink:href="#m9a8e900ca8" y="206.765334"/>
     <use style="fill-opacity:0.2;stroke:#000000;stroke-opacity:0.2;" x="196.898288" xlink:href="#m9a8e900ca8" y="219.75805"/>
     <use style="fill-opacity:0.2;stroke:#000000;stroke-opacity:0.2;" x="226.412337" xlink:href="#m9a8e900ca8" y="258.44534"/>
     <use style="fill-opacity:0.2;stroke:#000000;stroke-opacity:0.2;" x="255.926387" xlink:href="#m9a8e900ca8" y="208.92429"/>
     <use style="fill-opacity:0.2;stroke:#000000;stroke-opacity:0.2;" x="285.440436" xlink:href="#m9a8e900ca8" y="235.095633"/>
     <use style="fill-opacity:0.2;stroke:#000000;stroke-opacity:0.2;" x="314.954486" xlink:href="#m9a8e900ca8" y="230.873674"/>
     <use style="fill-opacity:0.2;stroke:#000000;stroke-opacity:0.2;" x="344.468536" xlink:href="#m9a8e900ca8" y="206.372524"/>
     <use style="fill-opacity:0.2;stroke:#000000;stroke-opacity:0.2;" x="373.982585" xlink:href="#m9a8e900ca8" y="211.48805"/>
    </g>
   </g>
   <g id="line2d_17">
    <path clip-path="url(#p59b1ff37f8)" d="M 49.32804 101.246366 
L 78.842089 131.13984 
L 108.356139 179.373582 
L 137.870189 218.503157 
L 167.384238 189.898491 
L 196.898288 246.854446 
L 226.412337 241.668454 
L 255.926387 212.882376 
L 285.440436 254.802102 
L 314.954486 187.019884 
L 344.468536 161.149895 
L 373.982585 186.570101 
" style="fill:none;stroke:#000000;stroke-linecap:square;stroke-opacity:0.2;stroke-width:1.5;"/>
    <g clip-path="url(#p59b1ff37f8)">
     <use style="fill-opacity:0.2;stroke:#000000;stroke-opacity:0.2;" x="49.32804" xlink:href="#m9a8e900ca8" y="101.246366"/>
     <use style="fill-opacity:0.2;stroke:#000000;stroke-opacity:0.2;" x="78.842089" xlink:href="#m9a8e900ca8" y="131.13984"/>
     <use style="fill-opacity:0.2;stroke:#000000;stroke-opacity:0.2;" x="108.356139" xlink:href="#m9a8e900ca8" y="179.373582"/>
     <use style="fill-opacity:0.2;stroke:#000000;stroke-opacity:0.2;" x="137.870189" xlink:href="#m9a8e900ca8" y="218.503157"/>
     <use style="fill-opacity:0.2;stroke:#000000;stroke-opacity:0.2;" x="167.384238" xlink:href="#m9a8e900ca8" y="189.898491"/>
     <use style="fill-opacity:0.2;stroke:#000000;stroke-opacity:0.2;" x="196.898288" xlink:href="#m9a8e900ca8" y="246.854446"/>
     <use style="fill-opacity:0.2;stroke:#000000;stroke-opacity:0.2;" x="226.412337" xlink:href="#m9a8e900ca8" y="241.668454"/>
     <use style="fill-opacity:0.2;stroke:#000000;stroke-opacity:0.2;" x="255.926387" xlink:href="#m9a8e900ca8" y="212.882376"/>
     <use style="fill-opacity:0.2;stroke:#000000;stroke-opacity:0.2;" x="285.440436" xlink:href="#m9a8e900ca8" y="254.802102"/>
     <use style="fill-opacity:0.2;stroke:#000000;stroke-opacity:0.2;" x="314.954486" xlink:href="#m9a8e900ca8" y="187.019884"/>
     <use style="fill-opacity:0.2;stroke:#000000;stroke-opacity:0.2;" x="344.468536" xlink:href="#m9a8e900ca8" y="161.149895"/>
     <use style="fill-opacity:0.2;stroke:#000000;stroke-opacity:0.2;" x="373.982585" xlink:href="#m9a8e900ca8" y="186.570101"/>
    </g>
   </g>
   <g id="line2d_18">
    <path clip-path="url(#p59b1ff37f8)" d="M 49.32804 61.260705 
L 78.842089 121.195825 
L 108.356139 192.50723 
L 137.870189 177.649415 
L 167.384238 183.196733 
L 196.898288 261.216 
L 226.412337 189.94347 
L 255.926387 218.594613 
L 285.440436 232.167549 
L 314.954486 176.135148 
L 344.468536 171.421427 
L 373.982585 192.102425 
" style="fill:none;stroke:#000000;stroke-linecap:square;stroke-opacity:0.2;stroke-width:1.5;"/>
    <g clip-path="url(#p59b1ff37f8)">
     <use style="fill-opacity:0.2;stroke:#000000;stroke-opacity:0.2;" x="49.32804" xlink:href="#m9a8e900ca8" y="61.260705"/>
     <use style="fill-opacity:0.2;stroke:#000000;stroke-opacity:0.2;" x="78.842089" xlink:href="#m9a8e900ca8" y="121.195825"/>
     <use style="fill-opacity:0.2;stroke:#000000;stroke-opacity:0.2;" x="108.356139" xlink:href="#m9a8e900ca8" y="192.50723"/>
     <use style="fill-opacity:0.2;stroke:#000000;stroke-opacity:0.2;" x="137.870189" xlink:href="#m9a8e900ca8" y="177.649415"/>
     <use style="fill-opacity:0.2;stroke:#000000;stroke-opacity:0.2;" x="167.384238" xlink:href="#m9a8e900ca8" y="183.196733"/>
     <use style="fill-opacity:0.2;stroke:#000000;stroke-opacity:0.2;" x="196.898288" xlink:href="#m9a8e900ca8" y="261.216"/>
     <use style="fill-opacity:0.2;stroke:#000000;stroke-opacity:0.2;" x="226.412337" xlink:href="#m9a8e900ca8" y="189.94347"/>
     <use style="fill-opacity:0.2;stroke:#000000;stroke-opacity:0.2;" x="255.926387" xlink:href="#m9a8e900ca8" y="218.594613"/>
     <use style="fill-opacity:0.2;stroke:#000000;stroke-opacity:0.2;" x="285.440436" xlink:href="#m9a8e900ca8" y="232.167549"/>
     <use style="fill-opacity:0.2;stroke:#000000;stroke-opacity:0.2;" x="314.954486" xlink:href="#m9a8e900ca8" y="176.135148"/>
     <use style="fill-opacity:0.2;stroke:#000000;stroke-opacity:0.2;" x="344.468536" xlink:href="#m9a8e900ca8" y="171.421427"/>
     <use style="fill-opacity:0.2;stroke:#000000;stroke-opacity:0.2;" x="373.982585" xlink:href="#m9a8e900ca8" y="192.102425"/>
    </g>
   </g>
   <g id="line2d_19">
    <path clip-path="url(#p59b1ff37f8)" d="M 49.32804 65.083856 
L 78.842089 136.334218 
L 108.356139 176.674887 
L 137.870189 173.280528 
L 167.384238 216.61557 
L 196.898288 230.26197 
L 226.412337 217.515135 
L 255.926387 228.085023 
L 285.440436 193.358818 
L 314.954486 191.562686 
L 344.468536 201.213519 
L 373.982585 179.14869 
" style="fill:none;stroke:#000000;stroke-linecap:square;stroke-opacity:0.2;stroke-width:1.5;"/>
    <g clip-path="url(#p59b1ff37f8)">
     <use style="fill-opacity:0.2;stroke:#000000;stroke-opacity:0.2;" x="49.32804" xlink:href="#m9a8e900ca8" y="65.083856"/>
     <use style="fill-opacity:0.2;stroke:#000000;stroke-opacity:0.2;" x="78.842089" xlink:href="#m9a8e900ca8" y="136.334218"/>
     <use style="fill-opacity:0.2;stroke:#000000;stroke-opacity:0.2;" x="108.356139" xlink:href="#m9a8e900ca8" y="176.674887"/>
     <use style="fill-opacity:0.2;stroke:#000000;stroke-opacity:0.2;" x="137.870189" xlink:href="#m9a8e900ca8" y="173.280528"/>
     <use style="fill-opacity:0.2;stroke:#000000;stroke-opacity:0.2;" x="167.384238" xlink:href="#m9a8e900ca8" y="216.61557"/>
     <use style="fill-opacity:0.2;stroke:#000000;stroke-opacity:0.2;" x="196.898288" xlink:href="#m9a8e900ca8" y="230.26197"/>
     <use style="fill-opacity:0.2;stroke:#000000;stroke-opacity:0.2;" x="226.412337" xlink:href="#m9a8e900ca8" y="217.515135"/>
     <use style="fill-opacity:0.2;stroke:#000000;stroke-opacity:0.2;" x="255.926387" xlink:href="#m9a8e900ca8" y="228.085023"/>
     <use style="fill-opacity:0.2;stroke:#000000;stroke-opacity:0.2;" x="285.440436" xlink:href="#m9a8e900ca8" y="193.358818"/>
     <use style="fill-opacity:0.2;stroke:#000000;stroke-opacity:0.2;" x="314.954486" xlink:href="#m9a8e900ca8" y="191.562686"/>
     <use style="fill-opacity:0.2;stroke:#000000;stroke-opacity:0.2;" x="344.468536" xlink:href="#m9a8e900ca8" y="201.213519"/>
     <use style="fill-opacity:0.2;stroke:#000000;stroke-opacity:0.2;" x="373.982585" xlink:href="#m9a8e900ca8" y="179.14869"/>
    </g>
   </g>
   <g id="line2d_20">
    <path clip-path="url(#p59b1ff37f8)" d="M 49.32804 20.420456 
L 78.842089 128.366643 
L 108.356139 166.015042 
L 137.870189 190.198346 
L 167.384238 221.698112 
L 196.898288 218.503157 
L 226.412337 206.810312 
L 255.926387 213.781941 
L 285.440436 213.808928 
L 314.954486 182.342146 
L 344.468536 184.574566 
L 373.982585 186.390188 
" style="fill:none;stroke:#000000;stroke-linecap:square;stroke-opacity:0.2;stroke-width:1.5;"/>
    <g clip-path="url(#p59b1ff37f8)">
     <use style="fill-opacity:0.2;stroke:#000000;stroke-opacity:0.2;" x="49.32804" xlink:href="#m9a8e900ca8" y="20.420456"/>
     <use style="fill-opacity:0.2;stroke:#000000;stroke-opacity:0.2;" x="78.842089" xlink:href="#m9a8e900ca8" y="128.366643"/>
     <use style="fill-opacity:0.2;stroke:#000000;stroke-opacity:0.2;" x="108.356139" xlink:href="#m9a8e900ca8" y="166.015042"/>
     <use style="fill-opacity:0.2;stroke:#000000;stroke-opacity:0.2;" x="137.870189" xlink:href="#m9a8e900ca8" y="190.198346"/>
     <use style="fill-opacity:0.2;stroke:#000000;stroke-opacity:0.2;" x="167.384238" xlink:href="#m9a8e900ca8" y="221.698112"/>
     <use style="fill-opacity:0.2;stroke:#000000;stroke-opacity:0.2;" x="196.898288" xlink:href="#m9a8e900ca8" y="218.503157"/>
     <use style="fill-opacity:0.2;stroke:#000000;stroke-opacity:0.2;" x="226.412337" xlink:href="#m9a8e900ca8" y="206.810312"/>
     <use style="fill-opacity:0.2;stroke:#000000;stroke-opacity:0.2;" x="255.926387" xlink:href="#m9a8e900ca8" y="213.781941"/>
     <use style="fill-opacity:0.2;stroke:#000000;stroke-opacity:0.2;" x="285.440436" xlink:href="#m9a8e900ca8" y="213.808928"/>
     <use style="fill-opacity:0.2;stroke:#000000;stroke-opacity:0.2;" x="314.954486" xlink:href="#m9a8e900ca8" y="182.342146"/>
     <use style="fill-opacity:0.2;stroke:#000000;stroke-opacity:0.2;" x="344.468536" xlink:href="#m9a8e900ca8" y="184.574566"/>
     <use style="fill-opacity:0.2;stroke:#000000;stroke-opacity:0.2;" x="373.982585" xlink:href="#m9a8e900ca8" y="186.390188"/>
    </g>
   </g>
   <g id="line2d_21">
    <path clip-path="url(#p59b1ff37f8)" d="M 49.32804 117.213644 
L 78.842089 114.263691 
L 108.356139 148.1137 
L 137.870189 202.32898 
L 167.384238 182.791928 
L 196.898288 203.212053 
L 226.412337 243.782431 
L 255.926387 182.971841 
L 285.440436 195.868604 
L 314.954486 183.196733 
L 344.468536 143.674347 
L 373.982585 166.599759 
" style="fill:none;stroke:#000000;stroke-linecap:square;stroke-opacity:0.2;stroke-width:1.5;"/>
    <g clip-path="url(#p59b1ff37f8)">
     <use style="fill-opacity:0.2;stroke:#000000;stroke-opacity:0.2;" x="49.32804" xlink:href="#m9a8e900ca8" y="117.213644"/>
     <use style="fill-opacity:0.2;stroke:#000000;stroke-opacity:0.2;" x="78.842089" xlink:href="#m9a8e900ca8" y="114.263691"/>
     <use style="fill-opacity:0.2;stroke:#000000;stroke-opacity:0.2;" x="108.356139" xlink:href="#m9a8e900ca8" y="148.1137"/>
     <use style="fill-opacity:0.2;stroke:#000000;stroke-opacity:0.2;" x="137.870189" xlink:href="#m9a8e900ca8" y="202.32898"/>
     <use style="fill-opacity:0.2;stroke:#000000;stroke-opacity:0.2;" x="167.384238" xlink:href="#m9a8e900ca8" y="182.791928"/>
     <use style="fill-opacity:0.2;stroke:#000000;stroke-opacity:0.2;" x="196.898288" xlink:href="#m9a8e900ca8" y="203.212053"/>
     <use style="fill-opacity:0.2;stroke:#000000;stroke-opacity:0.2;" x="226.412337" xlink:href="#m9a8e900ca8" y="243.782431"/>
     <use style="fill-opacity:0.2;stroke:#000000;stroke-opacity:0.2;" x="255.926387" xlink:href="#m9a8e900ca8" y="182.971841"/>
     <use style="fill-opacity:0.2;stroke:#000000;stroke-opacity:0.2;" x="285.440436" xlink:href="#m9a8e900ca8" y="195.868604"/>
     <use style="fill-opacity:0.2;stroke:#000000;stroke-opacity:0.2;" x="314.954486" xlink:href="#m9a8e900ca8" y="183.196733"/>
     <use style="fill-opacity:0.2;stroke:#000000;stroke-opacity:0.2;" x="344.468536" xlink:href="#m9a8e900ca8" y="143.674347"/>
     <use style="fill-opacity:0.2;stroke:#000000;stroke-opacity:0.2;" x="373.982585" xlink:href="#m9a8e900ca8" y="166.599759"/>
    </g>
   </g>
   <g id="line2d_22">
    <path clip-path="url(#p59b1ff37f8)" d="M 49.32804 51.815273 
L 78.842089 102.073645 
L 108.356139 142.581375 
L 137.870189 186.5731 
L 167.384238 169.703258 
L 196.898288 198.37839 
L 226.412337 223.722133 
L 255.926387 185.445645 
L 285.440436 197.07702 
L 314.954486 166.959585 
L 344.468536 147.485504 
L 373.982585 160.257826 
" style="fill:none;stroke:#000000;stroke-linecap:square;stroke-opacity:0.2;stroke-width:1.5;"/>
    <g clip-path="url(#p59b1ff37f8)">
     <use style="fill-opacity:0.2;stroke:#000000;stroke-opacity:0.2;" x="49.32804" xlink:href="#m9a8e900ca8" y="51.815273"/>
     <use style="fill-opacity:0.2;stroke:#000000;stroke-opacity:0.2;" x="78.842089" xlink:href="#m9a8e900ca8" y="102.073645"/>
     <use style="fill-opacity:0.2;stroke:#000000;stroke-opacity:0.2;" x="108.356139" xlink:href="#m9a8e900ca8" y="142.581375"/>
     <use style="fill-opacity:0.2;stroke:#000000;stroke-opacity:0.2;" x="137.870189" xlink:href="#m9a8e900ca8" y="186.5731"/>
     <use style="fill-opacity:0.2;stroke:#000000;stroke-opacity:0.2;" x="167.384238" xlink:href="#m9a8e900ca8" y="169.703258"/>
     <use style="fill-opacity:0.2;stroke:#000000;stroke-opacity:0.2;" x="196.898288" xlink:href="#m9a8e900ca8" y="198.37839"/>
     <use style="fill-opacity:0.2;stroke:#000000;stroke-opacity:0.2;" x="226.412337" xlink:href="#m9a8e900ca8" y="223.722133"/>
     <use style="fill-opacity:0.2;stroke:#000000;stroke-opacity:0.2;" x="255.926387" xlink:href="#m9a8e900ca8" y="185.445645"/>
     <use style="fill-opacity:0.2;stroke:#000000;stroke-opacity:0.2;" x="285.440436" xlink:href="#m9a8e900ca8" y="197.07702"/>
     <use style="fill-opacity:0.2;stroke:#000000;stroke-opacity:0.2;" x="314.954486" xlink:href="#m9a8e900ca8" y="166.959585"/>
     <use style="fill-opacity:0.2;stroke:#000000;stroke-opacity:0.2;" x="344.468536" xlink:href="#m9a8e900ca8" y="147.485504"/>
     <use style="fill-opacity:0.2;stroke:#000000;stroke-opacity:0.2;" x="373.982585" xlink:href="#m9a8e900ca8" y="160.257826"/>
    </g>
   </g>
   <g id="line2d_23">
    <path clip-path="url(#p59b1ff37f8)" d="M 49.32804 39.31132 
L 78.842089 64.576244 
L 108.356139 136.509312 
L 137.870189 197.123497 
L 167.384238 154.725502 
L 196.898288 206.558434 
L 226.412337 185.085819 
L 255.926387 157.33424 
L 285.440436 212.972332 
L 314.954486 137.228964 
L 344.468536 140.60683 
L 373.982585 167.139498 
" style="fill:none;stroke:#000000;stroke-linecap:square;stroke-opacity:0.2;stroke-width:1.5;"/>
    <g clip-path="url(#p59b1ff37f8)">
     <use style="fill-opacity:0.2;stroke:#000000;stroke-opacity:0.2;" x="49.32804" xlink:href="#m9a8e900ca8" y="39.31132"/>
     <use style="fill-opacity:0.2;stroke:#000000;stroke-opacity:0.2;" x="78.842089" xlink:href="#m9a8e900ca8" y="64.576244"/>
     <use style="fill-opacity:0.2;stroke:#000000;stroke-opacity:0.2;" x="108.356139" xlink:href="#m9a8e900ca8" y="136.509312"/>
     <use style="fill-opacity:0.2;stroke:#000000;stroke-opacity:0.2;" x="137.870189" xlink:href="#m9a8e900ca8" y="197.123497"/>
     <use style="fill-opacity:0.2;stroke:#000000;stroke-opacity:0.2;" x="167.384238" xlink:href="#m9a8e900ca8" y="154.725502"/>
     <use style="fill-opacity:0.2;stroke:#000000;stroke-opacity:0.2;" x="196.898288" xlink:href="#m9a8e900ca8" y="206.558434"/>
     <use style="fill-opacity:0.2;stroke:#000000;stroke-opacity:0.2;" x="226.412337" xlink:href="#m9a8e900ca8" y="185.085819"/>
     <use style="fill-opacity:0.2;stroke:#000000;stroke-opacity:0.2;" x="255.926387" xlink:href="#m9a8e900ca8" y="157.33424"/>
     <use style="fill-opacity:0.2;stroke:#000000;stroke-opacity:0.2;" x="285.440436" xlink:href="#m9a8e900ca8" y="212.972332"/>
     <use style="fill-opacity:0.2;stroke:#000000;stroke-opacity:0.2;" x="314.954486" xlink:href="#m9a8e900ca8" y="137.228964"/>
     <use style="fill-opacity:0.2;stroke:#000000;stroke-opacity:0.2;" x="344.468536" xlink:href="#m9a8e900ca8" y="140.60683"/>
     <use style="fill-opacity:0.2;stroke:#000000;stroke-opacity:0.2;" x="373.982585" xlink:href="#m9a8e900ca8" y="167.139498"/>
    </g>
   </g>
   <g id="line2d_24">
    <path clip-path="url(#p59b1ff37f8)" d="M 49.32804 25.862824 
L 78.842089 66.368948 
L 108.356139 148.60846 
L 137.870189 172.629843 
L 167.384238 126.794011 
L 196.898288 224.917055 
L 226.412337 176.58493 
L 255.926387 173.751301 
L 285.440436 175.418494 
L 314.954486 141.996658 
L 344.468536 150.831885 
L 373.982585 151.936851 
" style="fill:none;stroke:#000000;stroke-linecap:square;stroke-opacity:0.2;stroke-width:1.5;"/>
    <g clip-path="url(#p59b1ff37f8)">
     <use style="fill-opacity:0.2;stroke:#000000;stroke-opacity:0.2;" x="49.32804" xlink:href="#m9a8e900ca8" y="25.862824"/>
     <use style="fill-opacity:0.2;stroke:#000000;stroke-opacity:0.2;" x="78.842089" xlink:href="#m9a8e900ca8" y="66.368948"/>
     <use style="fill-opacity:0.2;stroke:#000000;stroke-opacity:0.2;" x="108.356139" xlink:href="#m9a8e900ca8" y="148.60846"/>
     <use style="fill-opacity:0.2;stroke:#000000;stroke-opacity:0.2;" x="137.870189" xlink:href="#m9a8e900ca8" y="172.629843"/>
     <use style="fill-opacity:0.2;stroke:#000000;stroke-opacity:0.2;" x="167.384238" xlink:href="#m9a8e900ca8" y="126.794011"/>
     <use style="fill-opacity:0.2;stroke:#000000;stroke-opacity:0.2;" x="196.898288" xlink:href="#m9a8e900ca8" y="224.917055"/>
     <use style="fill-opacity:0.2;stroke:#000000;stroke-opacity:0.2;" x="226.412337" xlink:href="#m9a8e900ca8" y="176.58493"/>
     <use style="fill-opacity:0.2;stroke:#000000;stroke-opacity:0.2;" x="255.926387" xlink:href="#m9a8e900ca8" y="173.751301"/>
     <use style="fill-opacity:0.2;stroke:#000000;stroke-opacity:0.2;" x="285.440436" xlink:href="#m9a8e900ca8" y="175.418494"/>
     <use style="fill-opacity:0.2;stroke:#000000;stroke-opacity:0.2;" x="314.954486" xlink:href="#m9a8e900ca8" y="141.996658"/>
     <use style="fill-opacity:0.2;stroke:#000000;stroke-opacity:0.2;" x="344.468536" xlink:href="#m9a8e900ca8" y="150.831885"/>
     <use style="fill-opacity:0.2;stroke:#000000;stroke-opacity:0.2;" x="373.982585" xlink:href="#m9a8e900ca8" y="151.936851"/>
    </g>
   </g>
   <g id="line2d_25">
    <path clip-path="url(#p59b1ff37f8)" d="M 49.32804 39.266342 
L 78.842089 143.256049 
L 108.356139 129.357771 
L 137.870189 140.60683 
L 167.384238 191.337795 
L 196.898288 180.438067 
L 226.412337 186.615079 
L 255.926387 169.343432 
L 285.440436 154.782475 
L 314.954486 146.494483 
L 344.468536 126.942439 
L 373.982585 131.021966 
" style="fill:none;stroke:#000000;stroke-linecap:square;stroke-opacity:0.2;stroke-width:1.5;"/>
    <g clip-path="url(#p59b1ff37f8)">
     <use style="fill-opacity:0.2;stroke:#000000;stroke-opacity:0.2;" x="49.32804" xlink:href="#m9a8e900ca8" y="39.266342"/>
     <use style="fill-opacity:0.2;stroke:#000000;stroke-opacity:0.2;" x="78.842089" xlink:href="#m9a8e900ca8" y="143.256049"/>
     <use style="fill-opacity:0.2;stroke:#000000;stroke-opacity:0.2;" x="108.356139" xlink:href="#m9a8e900ca8" y="129.357771"/>
     <use style="fill-opacity:0.2;stroke:#000000;stroke-opacity:0.2;" x="137.870189" xlink:href="#m9a8e900ca8" y="140.60683"/>
     <use style="fill-opacity:0.2;stroke:#000000;stroke-opacity:0.2;" x="167.384238" xlink:href="#m9a8e900ca8" y="191.337795"/>
     <use style="fill-opacity:0.2;stroke:#000000;stroke-opacity:0.2;" x="196.898288" xlink:href="#m9a8e900ca8" y="180.438067"/>
     <use style="fill-opacity:0.2;stroke:#000000;stroke-opacity:0.2;" x="226.412337" xlink:href="#m9a8e900ca8" y="186.615079"/>
     <use style="fill-opacity:0.2;stroke:#000000;stroke-opacity:0.2;" x="255.926387" xlink:href="#m9a8e900ca8" y="169.343432"/>
     <use style="fill-opacity:0.2;stroke:#000000;stroke-opacity:0.2;" x="285.440436" xlink:href="#m9a8e900ca8" y="154.782475"/>
     <use style="fill-opacity:0.2;stroke:#000000;stroke-opacity:0.2;" x="314.954486" xlink:href="#m9a8e900ca8" y="146.494483"/>
     <use style="fill-opacity:0.2;stroke:#000000;stroke-opacity:0.2;" x="344.468536" xlink:href="#m9a8e900ca8" y="126.942439"/>
     <use style="fill-opacity:0.2;stroke:#000000;stroke-opacity:0.2;" x="373.982585" xlink:href="#m9a8e900ca8" y="131.021966"/>
    </g>
   </g>
   <g id="line2d_26">
    <path clip-path="url(#p59b1ff37f8)" d="M 49.32804 115.279579 
L 78.842089 169.648642 
L 108.356139 183.51158 
L 137.870189 221.338286 
L 167.384238 206.765334 
L 196.898288 219.75805 
L 226.412337 258.44534 
L 255.926387 208.92429 
L 285.440436 235.095633 
L 314.954486 230.873674 
L 344.468536 206.372524 
L 373.982585 211.48805 
" style="fill:none;stroke:#1f77b4;stroke-linecap:square;stroke-width:1.5;"/>
    <defs>
     <path d="M 0 3 
C 0.795609 3 1.55874 2.683901 2.12132 2.12132 
C 2.683901 1.55874 3 0.795609 3 0 
C 3 -0.795609 2.683901 -1.55874 2.12132 -2.12132 
C 1.55874 -2.683901 0.795609 -3 0 -3 
C -0.795609 -3 -1.55874 -2.683901 -2.12132 -2.12132 
C -2.683901 -1.55874 -3 -0.795609 -3 0 
C -3 0.795609 -2.683901 1.55874 -2.12132 2.12132 
C -1.55874 2.683901 -0.795609 3 0 3 
z
" id="m388d82f8a1" style="stroke:#1f77b4;"/>
    </defs>
    <g clip-path="url(#p59b1ff37f8)">
     <use style="fill:#1f77b4;stroke:#1f77b4;" x="49.32804" xlink:href="#m388d82f8a1" y="115.279579"/>
     <use style="fill:#1f77b4;stroke:#1f77b4;" x="78.842089" xlink:href="#m388d82f8a1" y="169.648642"/>
     <use style="fill:#1f77b4;stroke:#1f77b4;" x="108.356139" xlink:href="#m388d82f8a1" y="183.51158"/>
     <use style="fill:#1f77b4;stroke:#1f77b4;" x="137.870189" xlink:href="#m388d82f8a1" y="221.338286"/>
     <use style="fill:#1f77b4;stroke:#1f77b4;" x="167.384238" xlink:href="#m388d82f8a1" y="206.765334"/>
     <use style="fill:#1f77b4;stroke:#1f77b4;" x="196.898288" xlink:href="#m388d82f8a1" y="219.75805"/>
     <use style="fill:#1f77b4;stroke:#1f77b4;" x="226.412337" xlink:href="#m388d82f8a1" y="258.44534"/>
     <use style="fill:#1f77b4;stroke:#1f77b4;" x="255.926387" xlink:href="#m388d82f8a1" y="208.92429"/>
     <use style="fill:#1f77b4;stroke:#1f77b4;" x="285.440436" xlink:href="#m388d82f8a1" y="235.095633"/>
     <use style="fill:#1f77b4;stroke:#1f77b4;" x="314.954486" xlink:href="#m388d82f8a1" y="230.873674"/>
     <use style="fill:#1f77b4;stroke:#1f77b4;" x="344.468536" xlink:href="#m388d82f8a1" y="206.372524"/>
     <use style="fill:#1f77b4;stroke:#1f77b4;" x="373.982585" xlink:href="#m388d82f8a1" y="211.48805"/>
    </g>
   </g>
   <g id="line2d_27">
    <path clip-path="url(#p59b1ff37f8)" d="M 49.32804 19.296 
L 78.842089 57.007047 
L 108.356139 79.926677 
L 137.870189 121.922866 
L 167.384238 161.472239 
L 196.898288 157.896469 
L 226.412337 181.127733 
L 255.926387 127.648597 
L 285.440436 110.907694 
" style="fill:none;stroke:#ff7f0e;stroke-linecap:square;stroke-width:1.5;"/>
    <defs>
     <path d="M 0 3 
C 0.795609 3 1.55874 2.683901 2.12132 2.12132 
C 2.683901 1.55874 3 0.795609 3 0 
C 3 -0.795609 2.683901 -1.55874 2.12132 -2.12132 
C 1.55874 -2.683901 0.795609 -3 0 -3 
C -0.795609 -3 -1.55874 -2.683901 -2.12132 -2.12132 
C -2.683901 -1.55874 -3 -0.795609 -3 0 
C -3 0.795609 -2.683901 1.55874 -2.12132 2.12132 
C -1.55874 2.683901 -0.795609 3 0 3 
z
" id="mc6b6e01987" style="stroke:#ff7f0e;"/>
    </defs>
    <g clip-path="url(#p59b1ff37f8)">
     <use style="fill:#ff7f0e;stroke:#ff7f0e;" x="49.32804" xlink:href="#mc6b6e01987" y="19.296"/>
     <use style="fill:#ff7f0e;stroke:#ff7f0e;" x="78.842089" xlink:href="#mc6b6e01987" y="57.007047"/>
     <use style="fill:#ff7f0e;stroke:#ff7f0e;" x="108.356139" xlink:href="#mc6b6e01987" y="79.926677"/>
     <use style="fill:#ff7f0e;stroke:#ff7f0e;" x="137.870189" xlink:href="#mc6b6e01987" y="121.922866"/>
     <use style="fill:#ff7f0e;stroke:#ff7f0e;" x="167.384238" xlink:href="#mc6b6e01987" y="161.472239"/>
     <use style="fill:#ff7f0e;stroke:#ff7f0e;" x="196.898288" xlink:href="#mc6b6e01987" y="157.896469"/>
     <use style="fill:#ff7f0e;stroke:#ff7f0e;" x="226.412337" xlink:href="#mc6b6e01987" y="181.127733"/>
     <use style="fill:#ff7f0e;stroke:#ff7f0e;" x="255.926387" xlink:href="#mc6b6e01987" y="127.648597"/>
     <use style="fill:#ff7f0e;stroke:#ff7f0e;" x="285.440436" xlink:href="#mc6b6e01987" y="110.907694"/>
    </g>
   </g>
   <g id="patch_3">
    <path d="M 33.095313 273.312 
L 33.095313 7.2 
" style="fill:none;stroke:#000000;stroke-linecap:square;stroke-linejoin:miter;stroke-width:0.8;"/>
   </g>
   <g id="patch_4">
    <path d="M 390.215312 273.312 
L 390.215312 7.2 
" style="fill:none;stroke:#000000;stroke-linecap:square;stroke-linejoin:miter;stroke-width:0.8;"/>
   </g>
   <g id="patch_5">
    <path d="M 33.095313 273.312 
L 390.215313 273.312 
" style="fill:none;stroke:#000000;stroke-linecap:square;stroke-linejoin:miter;stroke-width:0.8;"/>
   </g>
   <g id="patch_6">
    <path d="M 33.095313 7.2 
L 390.215313 7.2 
" style="fill:none;stroke:#000000;stroke-linecap:square;stroke-linejoin:miter;stroke-width:0.8;"/>
   </g>
   <g id="legend_1">
    <g id="patch_7">
     <path d="M 326.021562 43.98125 
L 383.215312 43.98125 
Q 385.215312 43.98125 385.215312 41.98125 
L 385.215312 14.2 
Q 385.215312 12.2 383.215312 12.2 
L 326.021562 12.2 
Q 324.021562 12.2 324.021562 14.2 
L 324.021562 41.98125 
Q 324.021562 43.98125 326.021562 43.98125 
z
" style="fill:#ffffff;opacity:0.8;stroke:#cccccc;stroke-linejoin:miter;"/>
    </g>
    <g id="line2d_28">
     <path d="M 328.021562 20.190625 
L 348.021562 20.190625 
" style="fill:none;stroke:#1f77b4;stroke-linecap:square;stroke-width:1.5;"/>
    </g>
    <g id="line2d_29">
     <g>
      <use style="fill:#1f77b4;stroke:#1f77b4;" x="338.021562" xlink:href="#m388d82f8a1" y="20.190625"/>
     </g>
    </g>
    <g id="text_15">
     <!-- 2011 -->
     <g transform="translate(356.021562 23.690625)scale(0.1 -0.1)">
      <use xlink:href="#IPAexGothic-32"/>
      <use x="62.988281" xlink:href="#IPAexGothic-30"/>
      <use x="125.976562" xlink:href="#IPAexGothic-31"/>
      <use x="188.964844" xlink:href="#IPAexGothic-31"/>
     </g>
    </g>
    <g id="line2d_30">
     <path d="M 328.021562 34.58125 
L 348.021562 34.58125 
" style="fill:none;stroke:#ff7f0e;stroke-linecap:square;stroke-width:1.5;"/>
    </g>
    <g id="line2d_31">
     <g>
      <use style="fill:#ff7f0e;stroke:#ff7f0e;" x="338.021562" xlink:href="#mc6b6e01987" y="34.58125"/>
     </g>
    </g>
    <g id="text_16">
     <!-- 2021 -->
     <g transform="translate(356.021562 38.08125)scale(0.1 -0.1)">
      <use xlink:href="#IPAexGothic-32"/>
      <use x="62.988281" xlink:href="#IPAexGothic-30"/>
      <use x="125.976562" xlink:href="#IPAexGothic-32"/>
      <use x="188.964844" xlink:href="#IPAexGothic-31"/>
     </g>
    </g>
   </g>
  </g>
 </g>
 <defs>
  <clipPath id="p59b1ff37f8">
   <rect height="266.112" width="357.12" x="33.095313" y="7.2"/>
  </clipPath>
 </defs>
</svg>
