<?xml version="1.0" encoding="utf-8" standalone="no"?>
<!DOCTYPE svg PUBLIC "-//W3C//DTD SVG 1.1//EN"
  "http://www.w3.org/Graphics/SVG/1.1/DTD/svg11.dtd">
<svg xmlns:xlink="http://www.w3.org/1999/xlink" width="501.448438pt" height="297.271375pt" viewBox="0 0 501.448438 297.271375" xmlns="http://www.w3.org/2000/svg" version="1.1">
 <metadata>
  <rdf:RDF xmlns:dc="http://purl.org/dc/elements/1.1/" xmlns:cc="http://creativecommons.org/ns#" xmlns:rdf="http://www.w3.org/1999/02/22-rdf-syntax-ns#">
   <cc:Work>
    <dc:type rdf:resource="http://purl.org/dc/dcmitype/StillImage"/>
    <dc:date>2024-12-28T11:05:43.661658</dc:date>
    <dc:format>image/svg+xml</dc:format>
    <dc:creator>
     <cc:Agent>
      <dc:title>Matplotlib v3.10.0, https://matplotlib.org/</dc:title>
     </cc:Agent>
    </dc:creator>
   </cc:Work>
  </rdf:RDF>
 </metadata>
 <defs>
  <style type="text/css">*{stroke-linejoin: round; stroke-linecap: butt}</style>
 </defs>
 <g id="figure_1">
  <g id="patch_1">
   <path d="M 0 297.271375 
L 501.448438 297.271375 
L 501.448438 0 
L 0 0 
z
" style="fill: #ffffff"/>
  </g>
  <g id="axes_1">
   <g id="patch_2">
    <path d="M 47.848438 273.312 
L 494.248437 273.312 
L 494.248437 7.2 
L 47.848438 7.2 
z
" style="fill: #ffffff"/>
   </g>
   <g id="patch_3">
    <path d="M 68.139347 273.312 
L 83.031757 273.312 
L 83.031757 19.872 
L 68.139347 19.872 
z
" clip-path="url(#p05a72f6c03)" style="fill: #d3d3d3"/>
   </g>
   <g id="patch_4">
    <path d="M 86.75486 273.312 
L 101.64727 273.312 
L 101.64727 21.872573 
L 86.75486 21.872573 
z
" clip-path="url(#p05a72f6c03)" style="fill: #d3d3d3"/>
   </g>
   <g id="patch_5">
    <path d="M 105.370372 273.312 
L 120.262783 273.312 
L 120.262783 23.975217 
L 105.370372 23.975217 
z
" clip-path="url(#p05a72f6c03)" style="fill: #d3d3d3"/>
   </g>
   <g id="patch_6">
    <path d="M 123.985885 273.312 
L 138.878296 273.312 
L 138.878296 27.466014 
L 123.985885 27.466014 
z
" clip-path="url(#p05a72f6c03)" style="fill: #d3d3d3"/>
   </g>
   <g id="patch_7">
    <path d="M 142.601398 273.312 
L 157.493809 273.312 
L 157.493809 32.161237 
L 142.601398 32.161237 
z
" clip-path="url(#p05a72f6c03)" style="fill: #d3d3d3"/>
   </g>
   <g id="patch_8">
    <path d="M 161.216911 273.312 
L 176.109322 273.312 
L 176.109322 34.570091 
L 161.216911 34.570091 
z
" clip-path="url(#p05a72f6c03)" style="fill: #d3d3d3"/>
   </g>
   <g id="patch_9">
    <path d="M 179.832424 273.312 
L 194.724834 273.312 
L 194.724834 36.815633 
L 179.832424 36.815633 
z
" clip-path="url(#p05a72f6c03)" style="fill: #d3d3d3"/>
   </g>
   <g id="patch_10">
    <path d="M 198.447937 273.312 
L 213.340347 273.312 
L 213.340347 37.979232 
L 198.447937 37.979232 
z
" clip-path="url(#p05a72f6c03)" style="fill: #d3d3d3"/>
   </g>
   <g id="patch_11">
    <path d="M 217.06345 273.312 
L 231.95586 273.312 
L 231.95586 41.286302 
L 217.06345 41.286302 
z
" clip-path="url(#p05a72f6c03)" style="fill: #d3d3d3"/>
   </g>
   <g id="patch_12">
    <path d="M 235.678963 273.312 
L 250.571373 273.312 
L 250.571373 53.003947 
L 235.678963 53.003947 
z
" clip-path="url(#p05a72f6c03)" style="fill: #d3d3d3"/>
   </g>
   <g id="patch_13">
    <path d="M 254.294476 273.312 
L 269.186886 273.312 
L 269.186886 46.246908 
L 254.294476 46.246908 
z
" clip-path="url(#p05a72f6c03)" style="fill: #d3d3d3"/>
   </g>
   <g id="patch_14">
    <path d="M 272.909989 273.312 
L 287.802399 273.312 
L 287.802399 49.880602 
L 272.909989 49.880602 
z
" clip-path="url(#p05a72f6c03)" style="fill: #d3d3d3"/>
   </g>
   <g id="patch_15">
    <path d="M 291.525502 273.312 
L 306.417912 273.312 
L 306.417912 49.880602 
L 291.525502 49.880602 
z
" clip-path="url(#p05a72f6c03)" style="fill: #d3d3d3"/>
   </g>
   <g id="patch_16">
    <path d="M 310.141015 273.312 
L 325.033425 273.312 
L 325.033425 49.349838 
L 310.141015 49.349838 
z
" clip-path="url(#p05a72f6c03)" style="fill: #d3d3d3"/>
   </g>
   <g id="patch_17">
    <path d="M 328.756528 273.312 
L 343.648938 273.312 
L 343.648938 49.349838 
L 328.756528 49.349838 
z
" clip-path="url(#p05a72f6c03)" style="fill: #d3d3d3"/>
   </g>
   <g id="patch_18">
    <path d="M 347.372041 273.312 
L 362.264451 273.312 
L 362.264451 49.349838 
L 347.372041 49.349838 
z
" clip-path="url(#p05a72f6c03)" style="fill: #d3d3d3"/>
   </g>
   <g id="patch_19">
    <path d="M 365.987553 273.312 
L 380.879964 273.312 
L 380.879964 52.697737 
L 365.987553 52.697737 
z
" clip-path="url(#p05a72f6c03)" style="fill: #d3d3d3"/>
   </g>
   <g id="patch_20">
    <path d="M 384.603066 273.312 
L 399.495477 273.312 
L 399.495477 53.044775 
L 384.603066 53.044775 
z
" clip-path="url(#p05a72f6c03)" style="fill: #d3d3d3"/>
   </g>
   <g id="patch_21">
    <path d="M 403.218579 273.312 
L 418.11099 273.312 
L 418.11099 53.126431 
L 403.218579 53.126431 
z
" clip-path="url(#p05a72f6c03)" style="fill: #d3d3d3"/>
   </g>
   <g id="patch_22">
    <path d="M 421.834092 273.312 
L 436.726503 273.312 
L 436.726503 53.167259 
L 421.834092 53.167259 
z
" clip-path="url(#p05a72f6c03)" style="fill: #d3d3d3"/>
   </g>
   <g id="patch_23">
    <path d="M 440.449605 273.312 
L 455.342015 273.312 
L 455.342015 53.167259 
L 440.449605 53.167259 
z
" clip-path="url(#p05a72f6c03)" style="fill: #d3d3d3"/>
   </g>
   <g id="patch_24">
    <path d="M 459.065118 273.312 
L 473.957528 273.312 
L 473.957528 53.167259 
L 459.065118 53.167259 
z
" clip-path="url(#p05a72f6c03)" style="fill: #d3d3d3"/>
   </g>
   <g id="matplotlib.axis_1">
    <g id="xtick_1">
     <g id="line2d_1">
      <defs>
       <path id="ma7a35e4b94" d="M 0 0 
L 0 3.5 
" style="stroke: #000000; stroke-width: 0.8"/>
      </defs>
      <g>
       <use xlink:href="#ma7a35e4b94" x="94.201065" y="273.312" style="stroke: #000000; stroke-width: 0.8"/>
      </g>
     </g>
     <g id="text_1">
      <!-- 2005 -->
      <g transform="translate(80.74169 288.021375) scale(0.1 -0.1)">
       <defs>
        <path id="HiraginoSans-W4-32" d="M 3078 0 
C 3424 0 3642 -6 3917 -32 
L 3917 589 
C 3693 557 3430 544 3091 544 
L 1114 544 
C 1280 1114 1606 1478 2451 2042 
C 3181 2528 3341 2656 3546 2912 
C 3738 3142 3846 3443 3846 3744 
C 3846 4525 3200 5030 2202 5030 
C 1613 5030 1158 4858 858 4518 
C 640 4269 531 4026 442 3565 
L 1088 3469 
C 1139 3782 1190 3936 1306 4102 
C 1491 4371 1792 4506 2208 4506 
C 2816 4506 3206 4211 3206 3744 
C 3206 3360 2995 3085 2387 2675 
C 1754 2246 1600 2138 1389 1952 
C 979 1594 710 1229 544 806 
C 448 563 429 461 365 -26 
C 576 -6 678 0 1107 0 
L 3078 0 
z
" transform="scale(0.015625)"/>
        <path id="HiraginoSans-W4-30" d="M 2144 -90 
C 2758 -90 3232 141 3565 602 
C 3846 998 4019 1696 4019 2464 
C 4019 3002 3936 3501 3770 3949 
C 3693 4160 3558 4371 3379 4550 
C 3078 4858 2650 5024 2157 5024 
C 1498 5024 986 4742 666 4205 
C 435 3834 288 3142 288 2458 
C 288 1939 371 1434 538 986 
C 614 768 749 563 928 384 
C 1242 70 1651 -90 2144 -90 
z
M 2144 4499 
C 2592 4499 2918 4307 3123 3923 
C 3283 3629 3398 3014 3398 2470 
C 3398 2022 3341 1619 3213 1235 
C 3155 1043 3046 870 2912 730 
C 2726 538 2458 435 2150 435 
C 1734 435 1414 614 1197 973 
C 1024 1261 902 1875 902 2451 
C 902 2906 966 3328 1088 3699 
C 1139 3866 1235 4026 1370 4173 
C 1568 4397 1818 4499 2144 4499 
z
" transform="scale(0.015625)"/>
        <path id="HiraginoSans-W4-35" d="M 1331 4416 
L 2835 4416 
C 3155 4416 3366 4403 3622 4365 
L 3622 4986 
C 3360 4947 3206 4934 2829 4934 
L 1446 4934 
C 1082 4934 954 4941 762 4966 
C 774 4768 774 4762 774 4742 
C 774 4563 774 4518 749 4307 
L 608 2822 
C 589 2566 570 2445 518 2157 
L 1088 2106 
C 1146 2240 1178 2291 1261 2374 
C 1485 2605 1811 2739 2131 2739 
C 2842 2739 3264 2317 3264 1613 
C 3264 902 2803 435 2106 435 
C 1747 435 1440 563 1235 794 
C 1146 902 1101 986 1037 1171 
L 410 1005 
C 557 685 646 544 813 378 
C 1133 64 1562 -96 2099 -96 
C 3194 -96 3885 576 3885 1638 
C 3885 2605 3245 3238 2272 3238 
C 1830 3238 1472 3098 1158 2803 
C 1197 2982 1197 2982 1203 3091 
L 1331 4416 
z
" transform="scale(0.015625)"/>
       </defs>
       <use xlink:href="#HiraginoSans-W4-32"/>
       <use xlink:href="#HiraginoSans-W4-30" transform="translate(67.299988 0)"/>
       <use xlink:href="#HiraginoSans-W4-30" transform="translate(134.599976 0)"/>
       <use xlink:href="#HiraginoSans-W4-35" transform="translate(201.899963 0)"/>
      </g>
     </g>
    </g>
    <g id="xtick_2">
     <g id="line2d_2">
      <g>
       <use xlink:href="#ma7a35e4b94" x="187.278629" y="273.312" style="stroke: #000000; stroke-width: 0.8"/>
      </g>
     </g>
     <g id="text_2">
      <!-- 2010 -->
      <g transform="translate(173.819254 288.021375) scale(0.1 -0.1)">
       <defs>
        <path id="HiraginoSans-W4-31" d="M 1018 4371 
C 1222 4397 1389 4410 1606 4410 
L 1939 4410 
L 1939 755 
C 1939 454 1926 237 1888 0 
L 2598 0 
C 2560 250 2547 448 2547 755 
L 2547 3904 
C 2547 4256 2566 4582 2605 4966 
C 2387 4941 2278 4934 2035 4934 
L 1581 4934 
C 1325 4934 1197 4941 1018 4966 
L 1018 4371 
z
" transform="scale(0.015625)"/>
       </defs>
       <use xlink:href="#HiraginoSans-W4-32"/>
       <use xlink:href="#HiraginoSans-W4-30" transform="translate(67.299988 0)"/>
       <use xlink:href="#HiraginoSans-W4-31" transform="translate(134.599976 0)"/>
       <use xlink:href="#HiraginoSans-W4-30" transform="translate(201.899963 0)"/>
      </g>
     </g>
    </g>
    <g id="xtick_3">
     <g id="line2d_3">
      <g>
       <use xlink:href="#ma7a35e4b94" x="280.356194" y="273.312" style="stroke: #000000; stroke-width: 0.8"/>
      </g>
     </g>
     <g id="text_3">
      <!-- 2015 -->
      <g transform="translate(266.896819 288.021375) scale(0.1 -0.1)">
       <use xlink:href="#HiraginoSans-W4-32"/>
       <use xlink:href="#HiraginoSans-W4-30" transform="translate(67.299988 0)"/>
       <use xlink:href="#HiraginoSans-W4-31" transform="translate(134.599976 0)"/>
       <use xlink:href="#HiraginoSans-W4-35" transform="translate(201.899963 0)"/>
      </g>
     </g>
    </g>
    <g id="xtick_4">
     <g id="line2d_4">
      <g>
       <use xlink:href="#ma7a35e4b94" x="373.433759" y="273.312" style="stroke: #000000; stroke-width: 0.8"/>
      </g>
     </g>
     <g id="text_4">
      <!-- 2020 -->
      <g transform="translate(359.974384 288.021375) scale(0.1 -0.1)">
       <use xlink:href="#HiraginoSans-W4-32"/>
       <use xlink:href="#HiraginoSans-W4-30" transform="translate(67.299988 0)"/>
       <use xlink:href="#HiraginoSans-W4-32" transform="translate(134.599976 0)"/>
       <use xlink:href="#HiraginoSans-W4-30" transform="translate(201.899963 0)"/>
      </g>
     </g>
    </g>
    <g id="xtick_5">
     <g id="line2d_5">
      <g>
       <use xlink:href="#ma7a35e4b94" x="466.511323" y="273.312" style="stroke: #000000; stroke-width: 0.8"/>
      </g>
     </g>
     <g id="text_5">
      <!-- 2025 -->
      <g transform="translate(453.051948 288.021375) scale(0.1 -0.1)">
       <use xlink:href="#HiraginoSans-W4-32"/>
       <use xlink:href="#HiraginoSans-W4-30" transform="translate(67.299988 0)"/>
       <use xlink:href="#HiraginoSans-W4-32" transform="translate(134.599976 0)"/>
       <use xlink:href="#HiraginoSans-W4-35" transform="translate(201.899963 0)"/>
      </g>
     </g>
    </g>
   </g>
   <g id="matplotlib.axis_2">
    <g id="ytick_1">
     <g id="line2d_6">
      <defs>
       <path id="m237d243c01" d="M 0 0 
L -3.5 0 
" style="stroke: #000000; stroke-width: 0.8"/>
      </defs>
      <g>
       <use xlink:href="#m237d243c01" x="47.848438" y="273.312" style="stroke: #000000; stroke-width: 0.8"/>
      </g>
     </g>
     <g id="text_6">
      <!-- 0 -->
      <g transform="translate(34.11875 277.166687) scale(0.1 -0.1)">
       <use xlink:href="#HiraginoSans-W4-30"/>
      </g>
     </g>
    </g>
    <g id="ytick_2">
     <g id="line2d_7">
      <g>
       <use xlink:href="#m237d243c01" x="47.848438" y="232.483969" style="stroke: #000000; stroke-width: 0.8"/>
      </g>
     </g>
     <g id="text_7">
      <!-- 2000 -->
      <g transform="translate(13.929688 236.338657) scale(0.1 -0.1)">
       <use xlink:href="#HiraginoSans-W4-32"/>
       <use xlink:href="#HiraginoSans-W4-30" transform="translate(67.299988 0)"/>
       <use xlink:href="#HiraginoSans-W4-30" transform="translate(134.599976 0)"/>
       <use xlink:href="#HiraginoSans-W4-30" transform="translate(201.899963 0)"/>
      </g>
     </g>
    </g>
    <g id="ytick_3">
     <g id="line2d_8">
      <g>
       <use xlink:href="#m237d243c01" x="47.848438" y="191.655939" style="stroke: #000000; stroke-width: 0.8"/>
      </g>
     </g>
     <g id="text_8">
      <!-- 4000 -->
      <g transform="translate(13.909375 195.510626) scale(0.1 -0.1)">
       <defs>
        <path id="HiraginoSans-W4-34" d="M 179 1210 
C 403 1229 589 1235 954 1235 
L 2688 1235 
L 2688 710 
C 2688 410 2675 218 2630 0 
L 3309 0 
C 3270 230 3258 390 3258 704 
L 3258 1235 
L 3494 1235 
C 3763 1235 3910 1222 4154 1190 
L 4154 1798 
C 3917 1766 3750 1754 3494 1754 
L 3258 1754 
L 3258 3853 
C 3258 4358 3264 4544 3296 4934 
L 2701 4934 
C 2560 4704 2445 4550 2214 4269 
L 621 2298 
C 467 2099 326 1939 179 1773 
L 179 1210 
z
M 2688 1747 
L 858 1747 
L 2259 3514 
C 2464 3763 2592 3936 2720 4128 
C 2694 3814 2688 3622 2688 3283 
L 2688 1747 
z
" transform="scale(0.015625)"/>
       </defs>
       <use xlink:href="#HiraginoSans-W4-34"/>
       <use xlink:href="#HiraginoSans-W4-30" transform="translate(67.499985 0)"/>
       <use xlink:href="#HiraginoSans-W4-30" transform="translate(134.799973 0)"/>
       <use xlink:href="#HiraginoSans-W4-30" transform="translate(202.09996 0)"/>
      </g>
     </g>
    </g>
    <g id="ytick_4">
     <g id="line2d_9">
      <g>
       <use xlink:href="#m237d243c01" x="47.848438" y="150.827908" style="stroke: #000000; stroke-width: 0.8"/>
      </g>
     </g>
     <g id="text_9">
      <!-- 6000 -->
      <g transform="translate(13.929688 154.682596) scale(0.1 -0.1)">
       <defs>
        <path id="HiraginoSans-W4-36" d="M 3846 3994 
C 3706 4301 3616 4442 3462 4602 
C 3187 4877 2784 5024 2304 5024 
C 1683 5024 1222 4794 864 4307 
C 557 3891 371 3162 371 2355 
C 371 1446 614 704 1043 320 
C 1331 58 1773 -90 2253 -90 
C 3277 -90 3968 589 3968 1587 
C 3968 2586 3334 3213 2323 3213 
C 1894 3213 1568 3104 1274 2854 
C 1133 2739 1062 2656 941 2458 
C 979 3085 1043 3392 1210 3763 
C 1434 4262 1798 4518 2285 4518 
C 2765 4518 3040 4314 3238 3821 
L 3846 3994 
z
M 2266 2714 
C 2950 2714 3366 2285 3366 1574 
C 3366 1325 3309 1088 3206 922 
C 3008 614 2643 422 2234 422 
C 1568 422 1069 915 1069 1574 
C 1069 2234 1574 2714 2266 2714 
z
" transform="scale(0.015625)"/>
       </defs>
       <use xlink:href="#HiraginoSans-W4-36"/>
       <use xlink:href="#HiraginoSans-W4-30" transform="translate(67.299988 0)"/>
       <use xlink:href="#HiraginoSans-W4-30" transform="translate(134.599976 0)"/>
       <use xlink:href="#HiraginoSans-W4-30" transform="translate(201.899963 0)"/>
      </g>
     </g>
    </g>
    <g id="ytick_5">
     <g id="line2d_10">
      <g>
       <use xlink:href="#m237d243c01" x="47.848438" y="109.999878" style="stroke: #000000; stroke-width: 0.8"/>
      </g>
     </g>
     <g id="text_10">
      <!-- 8000 -->
      <g transform="translate(13.929688 113.854565) scale(0.1 -0.1)">
       <defs>
        <path id="HiraginoSans-W4-38" d="M 1446 2586 
C 1203 2547 1056 2490 851 2355 
C 480 2106 294 1754 294 1299 
C 294 397 966 -102 2163 -102 
C 3347 -102 4006 397 4006 1299 
C 4006 1728 3853 2061 3539 2304 
C 3322 2470 3136 2547 2867 2586 
C 3437 2714 3789 3162 3789 3757 
C 3789 4550 3162 5043 2150 5043 
C 1146 5043 512 4544 512 3750 
C 512 3162 877 2701 1446 2586 
z
M 2150 4538 
C 2784 4538 3187 4211 3187 3699 
C 3187 3155 2797 2829 2157 2829 
C 1510 2829 1114 3162 1114 3699 
C 1114 4211 1523 4538 2150 4538 
z
M 2157 2304 
C 2912 2304 3373 1939 3373 1344 
C 3373 749 2925 410 2144 410 
C 1376 410 928 749 928 1338 
C 928 1939 1389 2304 2157 2304 
z
" transform="scale(0.015625)"/>
       </defs>
       <use xlink:href="#HiraginoSans-W4-38"/>
       <use xlink:href="#HiraginoSans-W4-30" transform="translate(67.299988 0)"/>
       <use xlink:href="#HiraginoSans-W4-30" transform="translate(134.599976 0)"/>
       <use xlink:href="#HiraginoSans-W4-30" transform="translate(201.899963 0)"/>
      </g>
     </g>
    </g>
    <g id="ytick_6">
     <g id="line2d_11">
      <g>
       <use xlink:href="#m237d243c01" x="47.848438" y="69.171847" style="stroke: #000000; stroke-width: 0.8"/>
      </g>
     </g>
     <g id="text_11">
      <!-- 10000 -->
      <g transform="translate(7.2 73.026534) scale(0.1 -0.1)">
       <use xlink:href="#HiraginoSans-W4-31"/>
       <use xlink:href="#HiraginoSans-W4-30" transform="translate(67.299988 0)"/>
       <use xlink:href="#HiraginoSans-W4-30" transform="translate(134.599976 0)"/>
       <use xlink:href="#HiraginoSans-W4-30" transform="translate(201.899963 0)"/>
       <use xlink:href="#HiraginoSans-W4-30" transform="translate(269.199951 0)"/>
      </g>
     </g>
    </g>
    <g id="ytick_7">
     <g id="line2d_12">
      <g>
       <use xlink:href="#m237d243c01" x="47.848438" y="28.343816" style="stroke: #000000; stroke-width: 0.8"/>
      </g>
     </g>
     <g id="text_12">
      <!-- 12000 -->
      <g transform="translate(7.2 32.198504) scale(0.1 -0.1)">
       <use xlink:href="#HiraginoSans-W4-31"/>
       <use xlink:href="#HiraginoSans-W4-32" transform="translate(67.299988 0)"/>
       <use xlink:href="#HiraginoSans-W4-30" transform="translate(134.599976 0)"/>
       <use xlink:href="#HiraginoSans-W4-30" transform="translate(201.899963 0)"/>
       <use xlink:href="#HiraginoSans-W4-30" transform="translate(269.199951 0)"/>
      </g>
     </g>
    </g>
   </g>
   <g id="patch_25">
    <path d="M 47.848438 273.312 
L 47.848438 7.2 
" style="fill: none; stroke: #000000; stroke-width: 0.8; stroke-linejoin: miter; stroke-linecap: square"/>
   </g>
   <g id="patch_26">
    <path d="M 494.248437 273.312 
L 494.248437 7.2 
" style="fill: none; stroke: #000000; stroke-width: 0.8; stroke-linejoin: miter; stroke-linecap: square"/>
   </g>
   <g id="patch_27">
    <path d="M 47.848438 273.312 
L 494.248438 273.312 
" style="fill: none; stroke: #000000; stroke-width: 0.8; stroke-linejoin: miter; stroke-linecap: square"/>
   </g>
   <g id="patch_28">
    <path d="M 47.848438 7.2 
L 494.248438 7.2 
" style="fill: none; stroke: #000000; stroke-width: 0.8; stroke-linejoin: miter; stroke-linecap: square"/>
   </g>
   <g id="text_13">
    <!-- 12415 -->
    <g transform="translate(67.168364 18.847) scale(0.05 -0.05)">
     <use xlink:href="#HiraginoSans-W4-31"/>
     <use xlink:href="#HiraginoSans-W4-32" transform="translate(67.299988 0)"/>
     <use xlink:href="#HiraginoSans-W4-34" transform="translate(134.599976 0)"/>
     <use xlink:href="#HiraginoSans-W4-31" transform="translate(202.09996 0)"/>
     <use xlink:href="#HiraginoSans-W4-35" transform="translate(269.399948 0)"/>
    </g>
   </g>
   <g id="text_14">
    <!-- 12317 -->
    <g transform="translate(85.788955 20.847573) scale(0.05 -0.05)">
     <defs>
      <path id="HiraginoSans-W4-33" d="M 282 1101 
C 397 768 474 621 621 448 
C 934 90 1434 -96 2112 -96 
C 2720 -96 3213 70 3533 384 
C 3770 614 3904 954 3904 1306 
C 3904 1677 3802 1958 3597 2182 
C 3379 2419 3130 2528 2688 2586 
C 2995 2650 3130 2701 3290 2816 
C 3578 3021 3738 3366 3738 3757 
C 3738 4538 3117 5043 2157 5043 
C 1594 5043 1146 4883 845 4576 
C 666 4390 582 4237 467 3891 
L 1107 3757 
C 1171 3981 1216 4083 1306 4192 
C 1478 4416 1741 4525 2125 4525 
C 2746 4525 3110 4224 3110 3725 
C 3110 3482 3021 3264 2867 3110 
C 2669 2918 2374 2829 1965 2829 
C 1779 2829 1613 2842 1459 2861 
L 1459 2272 
C 1651 2298 1811 2310 2003 2310 
C 2829 2310 3264 1990 3264 1376 
C 3264 794 2816 429 2106 429 
C 1779 429 1510 506 1293 666 
C 1107 800 1024 928 928 1248 
L 282 1101 
z
" transform="scale(0.015625)"/>
      <path id="HiraginoSans-W4-37" d="M 3898 4966 
C 3661 4941 3526 4934 3117 4934 
L 1165 4934 
C 838 4934 646 4947 390 4979 
L 390 4346 
C 634 4378 819 4390 1146 4390 
L 3200 4390 
C 2643 3635 2368 3187 2054 2541 
C 1664 1741 1491 1171 1280 0 
L 2003 0 
C 2099 685 2163 992 2317 1491 
C 2554 2291 2829 2861 3373 3718 
C 3642 4141 3763 4301 3898 4422 
L 3898 4966 
z
" transform="scale(0.015625)"/>
     </defs>
     <use xlink:href="#HiraginoSans-W4-31"/>
     <use xlink:href="#HiraginoSans-W4-32" transform="translate(67.299988 0)"/>
     <use xlink:href="#HiraginoSans-W4-33" transform="translate(134.599976 0)"/>
     <use xlink:href="#HiraginoSans-W4-31" transform="translate(201.899963 0)"/>
     <use xlink:href="#HiraginoSans-W4-37" transform="translate(269.199951 0)"/>
    </g>
   </g>
   <g id="text_15">
    <!-- 12214 -->
    <g transform="translate(104.39939 22.950217) scale(0.05 -0.05)">
     <use xlink:href="#HiraginoSans-W4-31"/>
     <use xlink:href="#HiraginoSans-W4-32" transform="translate(67.299988 0)"/>
     <use xlink:href="#HiraginoSans-W4-32" transform="translate(134.599976 0)"/>
     <use xlink:href="#HiraginoSans-W4-31" transform="translate(201.899963 0)"/>
     <use xlink:href="#HiraginoSans-W4-34" transform="translate(269.199951 0)"/>
    </g>
   </g>
   <g id="text_16">
    <!-- 12043 -->
    <g transform="translate(123.014903 26.441014) scale(0.05 -0.05)">
     <use xlink:href="#HiraginoSans-W4-31"/>
     <use xlink:href="#HiraginoSans-W4-32" transform="translate(67.299988 0)"/>
     <use xlink:href="#HiraginoSans-W4-30" transform="translate(134.599976 0)"/>
     <use xlink:href="#HiraginoSans-W4-34" transform="translate(201.899963 0)"/>
     <use xlink:href="#HiraginoSans-W4-33" transform="translate(269.399948 0)"/>
    </g>
   </g>
   <g id="text_17">
    <!-- 11813 -->
    <g transform="translate(141.635494 31.136237) scale(0.05 -0.05)">
     <use xlink:href="#HiraginoSans-W4-31"/>
     <use xlink:href="#HiraginoSans-W4-31" transform="translate(67.299988 0)"/>
     <use xlink:href="#HiraginoSans-W4-38" transform="translate(134.599976 0)"/>
     <use xlink:href="#HiraginoSans-W4-31" transform="translate(201.899963 0)"/>
     <use xlink:href="#HiraginoSans-W4-33" transform="translate(269.199951 0)"/>
    </g>
   </g>
   <g id="text_18">
    <!-- 11695 -->
    <g transform="translate(160.251007 33.545091) scale(0.05 -0.05)">
     <defs>
      <path id="HiraginoSans-W4-39" d="M 410 934 
C 582 576 698 422 896 262 
C 1178 32 1542 -77 2003 -77 
C 2586 -77 3014 102 3341 486 
C 3712 928 3910 1664 3910 2624 
C 3910 3302 3814 3821 3610 4186 
C 3315 4723 2765 5037 2118 5037 
C 1030 5037 326 4358 326 3315 
C 326 2861 486 2438 768 2157 
C 1050 1875 1472 1722 1958 1722 
C 2426 1722 2765 1843 3085 2125 
C 3213 2240 3270 2310 3366 2483 
C 3354 2189 3334 1958 3315 1818 
C 3270 1517 3168 1216 3046 1011 
C 2816 621 2496 435 2042 435 
C 1702 435 1427 538 1254 723 
C 1158 826 1114 915 1037 1120 
L 410 934 
z
M 2029 2221 
C 1357 2221 928 2662 928 3360 
C 928 3706 1030 3981 1248 4192 
C 1459 4403 1754 4525 2067 4525 
C 2733 4525 3232 4032 3232 3366 
C 3232 2707 2720 2221 2029 2221 
z
" transform="scale(0.015625)"/>
     </defs>
     <use xlink:href="#HiraginoSans-W4-31"/>
     <use xlink:href="#HiraginoSans-W4-31" transform="translate(67.299988 0)"/>
     <use xlink:href="#HiraginoSans-W4-36" transform="translate(134.599976 0)"/>
     <use xlink:href="#HiraginoSans-W4-39" transform="translate(201.899963 0)"/>
     <use xlink:href="#HiraginoSans-W4-35" transform="translate(269.199951 0)"/>
    </g>
   </g>
   <g id="text_19">
    <!-- 11585 -->
    <g transform="translate(178.86652 35.790633) scale(0.05 -0.05)">
     <use xlink:href="#HiraginoSans-W4-31"/>
     <use xlink:href="#HiraginoSans-W4-31" transform="translate(67.299988 0)"/>
     <use xlink:href="#HiraginoSans-W4-35" transform="translate(134.599976 0)"/>
     <use xlink:href="#HiraginoSans-W4-38" transform="translate(201.899963 0)"/>
     <use xlink:href="#HiraginoSans-W4-35" transform="translate(269.199951 0)"/>
    </g>
   </g>
   <g id="text_20">
    <!-- 11528 -->
    <g transform="translate(197.482033 36.954232) scale(0.05 -0.05)">
     <use xlink:href="#HiraginoSans-W4-31"/>
     <use xlink:href="#HiraginoSans-W4-31" transform="translate(67.299988 0)"/>
     <use xlink:href="#HiraginoSans-W4-35" transform="translate(134.599976 0)"/>
     <use xlink:href="#HiraginoSans-W4-32" transform="translate(201.899963 0)"/>
     <use xlink:href="#HiraginoSans-W4-38" transform="translate(269.199951 0)"/>
    </g>
   </g>
   <g id="text_21">
    <!-- 11366 -->
    <g transform="translate(216.097546 40.261302) scale(0.05 -0.05)">
     <use xlink:href="#HiraginoSans-W4-31"/>
     <use xlink:href="#HiraginoSans-W4-31" transform="translate(67.299988 0)"/>
     <use xlink:href="#HiraginoSans-W4-33" transform="translate(134.599976 0)"/>
     <use xlink:href="#HiraginoSans-W4-36" transform="translate(201.899963 0)"/>
     <use xlink:href="#HiraginoSans-W4-36" transform="translate(269.199951 0)"/>
    </g>
   </g>
   <g id="text_22">
    <!-- 10792 -->
    <g transform="translate(234.713059 51.978947) scale(0.05 -0.05)">
     <use xlink:href="#HiraginoSans-W4-31"/>
     <use xlink:href="#HiraginoSans-W4-30" transform="translate(67.299988 0)"/>
     <use xlink:href="#HiraginoSans-W4-37" transform="translate(134.599976 0)"/>
     <use xlink:href="#HiraginoSans-W4-39" transform="translate(201.899963 0)"/>
     <use xlink:href="#HiraginoSans-W4-32" transform="translate(269.199951 0)"/>
    </g>
   </g>
   <g id="text_23">
    <!-- 11123 -->
    <g transform="translate(253.328572 45.221908) scale(0.05 -0.05)">
     <use xlink:href="#HiraginoSans-W4-31"/>
     <use xlink:href="#HiraginoSans-W4-31" transform="translate(67.299988 0)"/>
     <use xlink:href="#HiraginoSans-W4-31" transform="translate(134.599976 0)"/>
     <use xlink:href="#HiraginoSans-W4-32" transform="translate(201.899963 0)"/>
     <use xlink:href="#HiraginoSans-W4-33" transform="translate(269.199951 0)"/>
    </g>
   </g>
   <g id="text_24">
    <!-- 10945 -->
    <g transform="translate(271.939006 48.855602) scale(0.05 -0.05)">
     <use xlink:href="#HiraginoSans-W4-31"/>
     <use xlink:href="#HiraginoSans-W4-30" transform="translate(67.299988 0)"/>
     <use xlink:href="#HiraginoSans-W4-39" transform="translate(134.599976 0)"/>
     <use xlink:href="#HiraginoSans-W4-34" transform="translate(201.899963 0)"/>
     <use xlink:href="#HiraginoSans-W4-35" transform="translate(269.399948 0)"/>
    </g>
   </g>
   <g id="text_25">
    <!-- 10945 -->
    <g transform="translate(290.554519 48.855602) scale(0.05 -0.05)">
     <use xlink:href="#HiraginoSans-W4-31"/>
     <use xlink:href="#HiraginoSans-W4-30" transform="translate(67.299988 0)"/>
     <use xlink:href="#HiraginoSans-W4-39" transform="translate(134.599976 0)"/>
     <use xlink:href="#HiraginoSans-W4-34" transform="translate(201.899963 0)"/>
     <use xlink:href="#HiraginoSans-W4-35" transform="translate(269.399948 0)"/>
    </g>
   </g>
   <g id="text_26">
    <!-- 10971 -->
    <g transform="translate(309.17511 48.324838) scale(0.05 -0.05)">
     <use xlink:href="#HiraginoSans-W4-31"/>
     <use xlink:href="#HiraginoSans-W4-30" transform="translate(67.299988 0)"/>
     <use xlink:href="#HiraginoSans-W4-39" transform="translate(134.599976 0)"/>
     <use xlink:href="#HiraginoSans-W4-37" transform="translate(201.899963 0)"/>
     <use xlink:href="#HiraginoSans-W4-31" transform="translate(269.199951 0)"/>
    </g>
   </g>
   <g id="text_27">
    <!-- 10971 -->
    <g transform="translate(327.790623 48.324838) scale(0.05 -0.05)">
     <use xlink:href="#HiraginoSans-W4-31"/>
     <use xlink:href="#HiraginoSans-W4-30" transform="translate(67.299988 0)"/>
     <use xlink:href="#HiraginoSans-W4-39" transform="translate(134.599976 0)"/>
     <use xlink:href="#HiraginoSans-W4-37" transform="translate(201.899963 0)"/>
     <use xlink:href="#HiraginoSans-W4-31" transform="translate(269.199951 0)"/>
    </g>
   </g>
   <g id="text_28">
    <!-- 10971 -->
    <g transform="translate(346.406136 48.324838) scale(0.05 -0.05)">
     <use xlink:href="#HiraginoSans-W4-31"/>
     <use xlink:href="#HiraginoSans-W4-30" transform="translate(67.299988 0)"/>
     <use xlink:href="#HiraginoSans-W4-39" transform="translate(134.599976 0)"/>
     <use xlink:href="#HiraginoSans-W4-37" transform="translate(201.899963 0)"/>
     <use xlink:href="#HiraginoSans-W4-31" transform="translate(269.199951 0)"/>
    </g>
   </g>
   <g id="text_29">
    <!-- 10807 -->
    <g transform="translate(365.021649 51.672737) scale(0.05 -0.05)">
     <use xlink:href="#HiraginoSans-W4-31"/>
     <use xlink:href="#HiraginoSans-W4-30" transform="translate(67.299988 0)"/>
     <use xlink:href="#HiraginoSans-W4-38" transform="translate(134.599976 0)"/>
     <use xlink:href="#HiraginoSans-W4-30" transform="translate(201.899963 0)"/>
     <use xlink:href="#HiraginoSans-W4-37" transform="translate(269.199951 0)"/>
    </g>
   </g>
   <g id="text_30">
    <!-- 10790 -->
    <g transform="translate(383.637162 52.019775) scale(0.05 -0.05)">
     <use xlink:href="#HiraginoSans-W4-31"/>
     <use xlink:href="#HiraginoSans-W4-30" transform="translate(67.299988 0)"/>
     <use xlink:href="#HiraginoSans-W4-37" transform="translate(134.599976 0)"/>
     <use xlink:href="#HiraginoSans-W4-39" transform="translate(201.899963 0)"/>
     <use xlink:href="#HiraginoSans-W4-30" transform="translate(269.199951 0)"/>
    </g>
   </g>
   <g id="text_31">
    <!-- 10786 -->
    <g transform="translate(402.252675 52.101431) scale(0.05 -0.05)">
     <use xlink:href="#HiraginoSans-W4-31"/>
     <use xlink:href="#HiraginoSans-W4-30" transform="translate(67.299988 0)"/>
     <use xlink:href="#HiraginoSans-W4-37" transform="translate(134.599976 0)"/>
     <use xlink:href="#HiraginoSans-W4-38" transform="translate(201.899963 0)"/>
     <use xlink:href="#HiraginoSans-W4-36" transform="translate(269.199951 0)"/>
    </g>
   </g>
   <g id="text_32">
    <!-- 10784 -->
    <g transform="translate(420.86311 52.142259) scale(0.05 -0.05)">
     <use xlink:href="#HiraginoSans-W4-31"/>
     <use xlink:href="#HiraginoSans-W4-30" transform="translate(67.299988 0)"/>
     <use xlink:href="#HiraginoSans-W4-37" transform="translate(134.599976 0)"/>
     <use xlink:href="#HiraginoSans-W4-38" transform="translate(201.899963 0)"/>
     <use xlink:href="#HiraginoSans-W4-34" transform="translate(269.199951 0)"/>
    </g>
   </g>
   <g id="text_33">
    <!-- 10784 -->
    <g transform="translate(439.478623 52.142259) scale(0.05 -0.05)">
     <use xlink:href="#HiraginoSans-W4-31"/>
     <use xlink:href="#HiraginoSans-W4-30" transform="translate(67.299988 0)"/>
     <use xlink:href="#HiraginoSans-W4-37" transform="translate(134.599976 0)"/>
     <use xlink:href="#HiraginoSans-W4-38" transform="translate(201.899963 0)"/>
     <use xlink:href="#HiraginoSans-W4-34" transform="translate(269.199951 0)"/>
    </g>
   </g>
   <g id="text_34">
    <!-- 10784 -->
    <g transform="translate(458.094136 52.142259) scale(0.05 -0.05)">
     <use xlink:href="#HiraginoSans-W4-31"/>
     <use xlink:href="#HiraginoSans-W4-30" transform="translate(67.299988 0)"/>
     <use xlink:href="#HiraginoSans-W4-37" transform="translate(134.599976 0)"/>
     <use xlink:href="#HiraginoSans-W4-38" transform="translate(201.899963 0)"/>
     <use xlink:href="#HiraginoSans-W4-34" transform="translate(269.199951 0)"/>
    </g>
   </g>
   <g id="text_35">
    <!-- 億円 -->
    <g transform="translate(20.216077 22.211013) scale(0.1 -0.1)">
     <defs>
      <path id="HiraginoSans-W4-5104" d="M 4134 4877 
L 4134 4960 
C 4134 5146 4141 5242 4166 5363 
L 3616 5363 
C 3642 5254 3648 5133 3648 4960 
L 3648 4877 
L 2688 4877 
C 2400 4877 2214 4883 2042 4909 
L 2042 4480 
C 2227 4499 2394 4506 2688 4506 
L 2726 4506 
C 2822 4333 2906 4141 2982 3936 
L 2368 3936 
C 2054 3936 1901 3942 1741 3968 
L 1741 3520 
C 1933 3546 2067 3552 2368 3552 
L 5478 3552 
C 5811 3552 5946 3546 6138 3520 
L 6138 3968 
C 5978 3942 5811 3936 5478 3936 
L 4864 3936 
C 4960 4115 5062 4320 5133 4506 
L 5261 4506 
C 5530 4506 5734 4499 5920 4480 
L 5920 4909 
C 5722 4883 5568 4877 5261 4877 
L 4134 4877 
z
M 3462 3936 
C 3386 4147 3290 4371 3226 4506 
L 4634 4506 
C 4563 4320 4480 4141 4371 3936 
L 3462 3936 
z
M 934 288 
C 934 -64 922 -256 896 -493 
L 1427 -493 
C 1408 -269 1402 -70 1402 301 
L 1402 3757 
C 1587 4186 1773 4678 1862 4979 
C 1914 5152 1933 5216 1978 5318 
L 1453 5434 
C 1421 5210 1357 4947 1242 4614 
C 973 3827 634 3219 173 2694 
C 269 2554 358 2374 429 2195 
C 653 2477 787 2682 954 3002 
C 941 2784 934 2400 934 2099 
L 934 288 
z
M 5011 1395 
C 5331 1395 5485 1389 5651 1376 
C 5632 1574 5626 1664 5626 2010 
L 5626 2675 
C 5626 2944 5632 3091 5651 3226 
C 5459 3213 5357 3206 5037 3206 
L 2752 3206 
C 2432 3206 2304 3213 2144 3226 
C 2163 3078 2170 2944 2170 2675 
L 2170 2010 
C 2170 1670 2163 1581 2144 1370 
C 2317 1389 2470 1395 2778 1395 
L 5011 1395 
z
M 2624 2842 
L 5165 2842 
L 5165 2490 
L 2624 2490 
L 2624 2842 
z
M 2624 2138 
L 5165 2138 
L 5165 1760 
L 2624 1760 
L 2624 2138 
z
M 2854 1184 
C 2880 1030 2893 902 2893 710 
L 2893 38 
C 2893 -301 3078 -384 3859 -384 
C 4499 -384 4845 -339 4966 -243 
C 5088 -147 5139 45 5171 480 
C 4992 506 4883 538 4755 595 
C 4749 288 4730 154 4678 96 
C 4621 32 4416 6 4026 6 
C 3430 6 3347 26 3347 179 
L 3347 723 
C 3347 954 3354 1037 3379 1184 
L 2854 1184 
z
M 2202 1139 
C 2074 621 1939 352 1606 -64 
L 2010 -326 
C 2310 115 2458 448 2611 1011 
L 2202 1139 
z
M 3539 1101 
C 3853 851 4032 672 4262 378 
L 4595 659 
C 4352 922 4173 1082 3834 1344 
L 3539 1101 
z
M 5037 947 
C 5376 531 5562 243 5811 -294 
L 6202 -32 
C 5946 442 5766 710 5395 1165 
L 5037 947 
z
" transform="scale(0.015625)"/>
      <path id="HiraginoSans-W4-5186" d="M 1165 2150 
L 5242 2150 
L 5242 282 
C 5242 154 5190 128 4915 128 
C 4666 128 4352 154 3917 205 
C 3987 13 4013 -102 4038 -294 
C 4333 -314 4691 -326 4941 -326 
C 5587 -326 5747 -224 5747 211 
L 5747 4384 
C 5747 4678 5754 4819 5773 5005 
C 5619 4986 5459 4979 5152 4979 
L 1261 4979 
C 973 4979 819 4986 634 5005 
C 653 4832 659 4672 659 4422 
L 659 282 
C 659 -58 646 -256 621 -435 
L 1197 -435 
C 1171 -288 1165 -147 1165 262 
L 1165 2150 
z
M 2906 2618 
L 1165 2618 
L 1165 4506 
L 2906 4506 
L 2906 2618 
z
M 3398 2618 
L 3398 4506 
L 5242 4506 
L 5242 2618 
L 3398 2618 
z
" transform="scale(0.015625)"/>
     </defs>
     <use xlink:href="#HiraginoSans-W4-5104"/>
     <use xlink:href="#HiraginoSans-W4-5186" transform="translate(99.999985 0)"/>
    </g>
   </g>
  </g>
 </g>
 <defs>
  <clipPath id="p05a72f6c03">
   <rect x="47.848438" y="7.2" width="446.4" height="266.112"/>
  </clipPath>
 </defs>
</svg>
