<?xml version="1.0" encoding="utf-8" standalone="no"?>
<!DOCTYPE svg PUBLIC "-//W3C//DTD SVG 1.1//EN"
  "http://www.w3.org/Graphics/SVG/1.1/DTD/svg11.dtd">
<!-- Created with matplotlib (https://matplotlib.org/) -->
<svg height="310.29325pt" version="1.1" viewBox="0 0 443.793437 310.29325" width="443.793437pt" xmlns="http://www.w3.org/2000/svg" xmlns:xlink="http://www.w3.org/1999/xlink">
 <metadata>
  <rdf:RDF xmlns:cc="http://creativecommons.org/ns#" xmlns:dc="http://purl.org/dc/elements/1.1/" xmlns:rdf="http://www.w3.org/1999/02/22-rdf-syntax-ns#">
   <cc:Work>
    <dc:type rdf:resource="http://purl.org/dc/dcmitype/StillImage"/>
    <dc:date>2021-01-23T13:26:33.797081</dc:date>
    <dc:format>image/svg+xml</dc:format>
    <dc:creator>
     <cc:Agent>
      <dc:title>Matplotlib v3.3.3, https://matplotlib.org/</dc:title>
     </cc:Agent>
    </dc:creator>
   </cc:Work>
  </rdf:RDF>
 </metadata>
 <defs>
  <style type="text/css">*{stroke-linecap:butt;stroke-linejoin:round;}</style>
 </defs>
 <g id="figure_1">
  <g id="patch_1">
   <path d="M 0 310.29325 
L 443.793437 310.29325 
L 443.793437 0 
L 0 0 
z
" style="fill:#ffffff;"/>
  </g>
  <g id="axes_1">
   <g id="patch_2">
    <path clip-path="url(#p00e42f7542)" d="M 56.420227 273.312 
L 78.430705 273.312 
L 78.430705 122.475737 
L 56.420227 122.475737 
z
" style="fill:#1f77b4;"/>
   </g>
   <g id="patch_3">
    <path clip-path="url(#p00e42f7542)" d="M 83.933324 273.312 
L 105.943802 273.312 
L 105.943802 216.309924 
L 83.933324 216.309924 
z
" style="fill:#1f77b4;"/>
   </g>
   <g id="patch_4">
    <path clip-path="url(#p00e42f7542)" d="M 111.446421 273.312 
L 133.456899 273.312 
L 133.456899 204.909509 
L 111.446421 204.909509 
z
" style="fill:#1f77b4;"/>
   </g>
   <g id="patch_5">
    <path clip-path="url(#p00e42f7542)" d="M 138.959518 273.312 
L 160.969996 273.312 
L 160.969996 219.817744 
L 138.959518 219.817744 
z
" style="fill:#1f77b4;"/>
   </g>
   <g id="patch_6">
    <path clip-path="url(#p00e42f7542)" d="M 166.472616 273.312 
L 188.483093 273.312 
L 188.483093 221.571654 
L 166.472616 221.571654 
z
" style="fill:#1f77b4;"/>
   </g>
   <g id="patch_7">
    <path clip-path="url(#p00e42f7542)" d="M 193.985713 273.312 
L 215.99619 273.312 
L 215.99619 148.784388 
L 193.985713 148.784388 
z
" style="fill:#1f77b4;"/>
   </g>
   <g id="patch_8">
    <path clip-path="url(#p00e42f7542)" d="M 221.49881 273.312 
L 243.509287 273.312 
L 243.509287 218.063834 
L 221.49881 218.063834 
z
" style="fill:#1f77b4;"/>
   </g>
   <g id="patch_9">
    <path clip-path="url(#p00e42f7542)" d="M 249.011907 273.312 
L 271.022384 273.312 
L 271.022384 19.872 
L 249.011907 19.872 
z
" style="fill:#1f77b4;"/>
   </g>
   <g id="patch_10">
    <path clip-path="url(#p00e42f7542)" d="M 276.525004 273.312 
L 298.535482 273.312 
L 298.535482 83.012761 
L 276.525004 83.012761 
z
" style="fill:#1f77b4;"/>
   </g>
   <g id="patch_11">
    <path clip-path="url(#p00e42f7542)" d="M 304.038101 273.312 
L 326.048579 273.312 
L 326.048579 103.182727 
L 304.038101 103.182727 
z
" style="fill:#1f77b4;"/>
   </g>
   <g id="patch_12">
    <path clip-path="url(#p00e42f7542)" d="M 331.551198 273.312 
L 353.561676 273.312 
L 353.561676 129.491377 
L 331.551198 129.491377 
z
" style="fill:#1f77b4;"/>
   </g>
   <g id="patch_13">
    <path clip-path="url(#p00e42f7542)" d="M 359.064295 273.312 
L 381.074773 273.312 
L 381.074773 164.569578 
L 359.064295 164.569578 
z
" style="fill:#1f77b4;"/>
   </g>
   <g id="matplotlib.axis_1">
    <g id="ytick_1">
     <g id="line2d_1">
      <defs>
       <path d="M 0 0 
L 3.5 0 
" id="m2a532e66d3" style="stroke:#000000;stroke-width:0.8;"/>
      </defs>
      <g>
       <use style="stroke:#000000;stroke-width:0.8;" x="397.3075" xlink:href="#m2a532e66d3" y="273.312"/>
      </g>
     </g>
     <g id="text_1">
      <!-- 0 -->
      <g transform="translate(404.3075 277.057312)scale(0.1 -0.1)">
       <defs>
        <path d="M 31.84375 73.828125 
Q 45.015625 73.828125 52.09375 61.625 
Q 57.71875 51.953125 57.71875 36.625 
Q 57.71875 21.4375 52.09375 11.578125 
Q 45.125 -0.484375 31.5 -0.484375 
Q 17.921875 -0.484375 10.9375 11.578125 
Q 5.328125 21.4375 5.328125 36.71875 
Q 5.328125 58.015625 15.625 67.71875 
Q 22.171875 73.828125 31.84375 73.828125 
z
M 31.5 66.65625 
Q 23.6875 66.65625 19.1875 58.734375 
Q 14.59375 50.734375 14.59375 36.625 
Q 14.59375 22.75 19.09375 14.796875 
Q 23.640625 6.984375 31.5 6.984375 
Q 40.921875 6.984375 45.453125 18.015625 
Q 48.4375 25.34375 48.4375 37.109375 
Q 48.4375 50.875 43.84375 58.734375 
Q 39.203125 66.65625 31.5 66.65625 
z
" id="IPAexGothic-48"/>
       </defs>
       <use xlink:href="#IPAexGothic-48"/>
      </g>
     </g>
    </g>
    <g id="ytick_2">
     <g id="line2d_2">
      <g>
       <use style="stroke:#000000;stroke-width:0.8;" x="397.3075" xlink:href="#m2a532e66d3" y="238.233799"/>
      </g>
     </g>
     <g id="text_2">
      <!-- 20 -->
      <g transform="translate(404.3075 241.979112)scale(0.1 -0.1)">
       <defs>
        <path d="M 57.171875 0.984375 
L 6.984375 0.984375 
L 6.984375 9.28125 
Q 12.890625 23.046875 29.59375 34.421875 
L 32.375 36.28125 
Q 40.921875 42.140625 43.609375 45.40625 
Q 46.6875 49.265625 46.6875 53.8125 
Q 46.6875 58.9375 43.0625 62.546875 
Q 39.0625 66.546875 32.5625 66.546875 
Q 19.53125 66.546875 15.484375 52 
L 7.765625 54.78125 
Q 13.328125 73.828125 33.0625 73.828125 
Q 43.84375 73.828125 50.25 67.4375 
Q 55.859375 61.671875 55.859375 53.515625 
Q 55.859375 47.46875 52.25 42.53125 
Q 48.921875 37.75 36.96875 30.28125 
L 34.859375 29 
Q 19.625 19.578125 15.28125 8.890625 
L 57.171875 8.890625 
z
" id="IPAexGothic-50"/>
       </defs>
       <use xlink:href="#IPAexGothic-50"/>
       <use x="62.988281" xlink:href="#IPAexGothic-48"/>
      </g>
     </g>
    </g>
    <g id="ytick_3">
     <g id="line2d_3">
      <g>
       <use style="stroke:#000000;stroke-width:0.8;" x="397.3075" xlink:href="#m2a532e66d3" y="203.155599"/>
      </g>
     </g>
     <g id="text_3">
      <!-- 40 -->
      <g transform="translate(404.3075 206.900911)scale(0.1 -0.1)">
       <defs>
        <path d="M 59.578125 18.109375 
L 47.796875 18.109375 
L 47.796875 0.984375 
L 39.796875 0.984375 
L 39.796875 18.109375 
L 3.078125 18.109375 
L 3.078125 26.125 
L 38.375 73.09375 
L 47.796875 73.09375 
L 47.796875 25.53125 
L 59.578125 25.53125 
z
M 40.28125 64.203125 
L 39.984375 64.203125 
Q 35.59375 57.125 31.296875 51.3125 
L 11.859375 25.53125 
L 39.796875 25.53125 
L 39.796875 49.125 
Q 39.796875 54.390625 40.28125 64.203125 
z
" id="IPAexGothic-52"/>
       </defs>
       <use xlink:href="#IPAexGothic-52"/>
       <use x="62.988281" xlink:href="#IPAexGothic-48"/>
      </g>
     </g>
    </g>
    <g id="ytick_4">
     <g id="line2d_4">
      <g>
       <use style="stroke:#000000;stroke-width:0.8;" x="397.3075" xlink:href="#m2a532e66d3" y="168.077398"/>
      </g>
     </g>
     <g id="text_4">
      <!-- 60 -->
      <g transform="translate(404.3075 171.82271)scale(0.1 -0.1)">
       <defs>
        <path d="M 16.5 36.375 
Q 23.578125 46.578125 34.90625 46.578125 
Q 45.40625 46.578125 51.8125 39.265625 
Q 57.421875 32.90625 57.421875 23.78125 
Q 57.421875 13.8125 51.125 6.78125 
Q 44.578125 -0.484375 34.03125 -0.484375 
Q 21.484375 -0.484375 14.40625 9.078125 
Q 7.515625 18.40625 7.515625 34.8125 
Q 7.515625 53.515625 15.828125 64.203125 
Q 23.34375 73.828125 35.5 73.828125 
Q 49.859375 73.828125 56.390625 62.890625 
L 49.21875 58.984375 
Q 45.21875 66.65625 35.9375 66.65625 
Q 17.484375 66.65625 16.109375 36.375 
z
M 33.453125 39.796875 
Q 26.3125 39.796875 21.625 34.46875 
Q 17.4375 29.6875 17.4375 24.078125 
Q 17.4375 18.0625 21.140625 13.1875 
Q 26.125 6.6875 33.734375 6.6875 
Q 41.703125 6.6875 45.953125 13.1875 
Q 48.828125 17.625 48.828125 23.484375 
Q 48.828125 30.375 45.015625 34.8125 
Q 40.625 39.796875 33.453125 39.796875 
z
" id="IPAexGothic-54"/>
       </defs>
       <use xlink:href="#IPAexGothic-54"/>
       <use x="62.988281" xlink:href="#IPAexGothic-48"/>
      </g>
     </g>
    </g>
    <g id="ytick_5">
     <g id="line2d_5">
      <g>
       <use style="stroke:#000000;stroke-width:0.8;" x="397.3075" xlink:href="#m2a532e66d3" y="132.999197"/>
      </g>
     </g>
     <g id="text_5">
      <!-- 80 -->
      <g transform="translate(404.3075 136.74451)scale(0.1 -0.1)">
       <defs>
        <path d="M 39.703125 37.890625 
Q 57.8125 31.734375 57.8125 18.703125 
Q 57.8125 8.453125 48.4375 3.078125 
Q 41.609375 -0.875 31.5 -0.875 
Q 21.34375 -0.875 14.5 3.078125 
Q 5.421875 8.296875 5.421875 18.40625 
Q 5.421875 31.0625 22.015625 37.203125 
L 22.015625 37.5 
Q 7.515625 42.71875 7.515625 54.828125 
Q 7.515625 64.0625 15.328125 69.625 
Q 21.96875 74.3125 31.546875 74.3125 
Q 42.234375 74.3125 48.921875 68.796875 
Q 55.515625 63.578125 55.515625 55.71875 
Q 55.515625 42.28125 39.703125 38.1875 
z
M 31.59375 41.015625 
Q 46.828125 44.625 46.828125 55.125 
Q 46.828125 61.1875 41.796875 64.84375 
Q 37.703125 67.921875 31.5 67.921875 
Q 25.09375 67.921875 20.796875 64.5 
Q 16.40625 60.890625 16.40625 55.03125 
Q 16.40625 49.21875 21.09375 45.703125 
Q 23.34375 43.890625 26.90625 42.53125 
Q 31 40.875 31.59375 41.015625 
z
M 30.90625 34.515625 
Q 14.40625 30.171875 14.40625 19 
Q 14.40625 12.109375 20.515625 8.6875 
Q 25.09375 6.109375 31.390625 6.109375 
Q 40.234375 6.109375 45.015625 10.890625 
Q 48.53125 14.40625 48.53125 19.53125 
Q 48.53125 24.90625 43.65625 28.90625 
Q 40.765625 31.15625 36.71875 32.8125 
Q 31.984375 34.71875 30.90625 34.515625 
z
" id="IPAexGothic-56"/>
       </defs>
       <use xlink:href="#IPAexGothic-56"/>
       <use x="62.988281" xlink:href="#IPAexGothic-48"/>
      </g>
     </g>
    </g>
    <g id="ytick_6">
     <g id="line2d_6">
      <g>
       <use style="stroke:#000000;stroke-width:0.8;" x="397.3075" xlink:href="#m2a532e66d3" y="97.920997"/>
      </g>
     </g>
     <g id="text_6">
      <!-- 100 -->
      <g transform="translate(404.3075 101.666309)scale(0.1 -0.1)">
       <defs>
        <path d="M 38.484375 0.984375 
L 29.6875 0.984375 
L 29.6875 64.109375 
Q 21.4375 61.28125 12.3125 59.328125 
L 10.6875 66.109375 
Q 23.734375 69.390625 32.90625 73.921875 
L 38.484375 73.921875 
z
" id="IPAexGothic-49"/>
       </defs>
       <use xlink:href="#IPAexGothic-49"/>
       <use x="62.988281" xlink:href="#IPAexGothic-48"/>
       <use x="125.976562" xlink:href="#IPAexGothic-48"/>
      </g>
     </g>
    </g>
    <g id="ytick_7">
     <g id="line2d_7">
      <g>
       <use style="stroke:#000000;stroke-width:0.8;" x="397.3075" xlink:href="#m2a532e66d3" y="62.842796"/>
      </g>
     </g>
     <g id="text_7">
      <!-- 120 -->
      <g transform="translate(404.3075 66.588108)scale(0.1 -0.1)">
       <use xlink:href="#IPAexGothic-49"/>
       <use x="62.988281" xlink:href="#IPAexGothic-50"/>
       <use x="125.976562" xlink:href="#IPAexGothic-48"/>
      </g>
     </g>
    </g>
    <g id="ytick_8">
     <g id="line2d_8">
      <g>
       <use style="stroke:#000000;stroke-width:0.8;" x="397.3075" xlink:href="#m2a532e66d3" y="27.764595"/>
      </g>
     </g>
     <g id="text_8">
      <!-- 140 -->
      <g transform="translate(404.3075 31.509908)scale(0.1 -0.1)">
       <use xlink:href="#IPAexGothic-49"/>
       <use x="62.988281" xlink:href="#IPAexGothic-52"/>
       <use x="125.976562" xlink:href="#IPAexGothic-48"/>
      </g>
     </g>
    </g>
    <g id="text_9">
     <!-- 降水量（mm） -->
     <g transform="translate(434.693438 173.966937)rotate(-90)scale(0.1 -0.1)">
      <defs>
       <path d="M 72.3125 15.71875 
L 93.890625 15.71875 
L 93.890625 9.515625 
L 72.3125 9.515625 
L 72.3125 -6.984375 
L 65.625 -6.984375 
L 65.625 9.515625 
L 35.453125 9.515625 
L 35.453125 15.71875 
L 46.875 15.71875 
L 46.875 27.984375 
L 39.890625 27.984375 
L 39.890625 33.984375 
L 65.625 33.984375 
L 65.625 43.3125 
L 72.3125 43.3125 
L 72.3125 33.984375 
L 90.09375 33.984375 
L 90.09375 27.984375 
L 72.3125 27.984375 
z
M 65.625 15.71875 
L 65.625 27.984375 
L 53.5625 27.984375 
L 53.5625 15.71875 
z
M 70.703125 55.328125 
Q 81.5 48.640625 96.09375 45.015625 
L 91.796875 38.8125 
Q 77.203125 43.3125 65.921875 51.21875 
Q 54.9375 42.28125 38.1875 36.921875 
L 34.078125 42.578125 
Q 49.125 46.484375 60.890625 54.984375 
L 60.296875 55.515625 
Q 55.171875 59.859375 51.703125 63.921875 
Q 46.875 57.625 40.1875 52.484375 
L 35.40625 56.984375 
Q 48.734375 66.890625 55.171875 83.59375 
L 61.921875 81.890625 
Q 61.375 80.515625 59.625 76.8125 
L 81.5 76.8125 
L 85.5 73.484375 
Q 79.6875 63.671875 70.703125 55.328125 
z
M 65.578125 58.796875 
Q 72.5625 65.140625 75.875 70.796875 
L 56.390625 70.796875 
L 55.078125 68.796875 
Q 59.03125 63.8125 65.578125 58.796875 
z
M 33.296875 77.984375 
L 36.765625 74.75 
Q 31.84375 58.453125 26.90625 48.09375 
Q 34.90625 36.46875 34.90625 23.875 
Q 34.90625 17.71875 32.90625 15.09375 
Q 30.8125 12.40625 25.6875 12.40625 
Q 22.90625 12.40625 17.578125 13.1875 
L 16.5 19.96875 
Q 20.359375 19 24.125 19 
Q 28.125 19 28.125 24.421875 
Q 28.125 37.15625 19.78125 47.5625 
Q 25 58.296875 28.65625 71.578125 
L 15.09375 71.578125 
L 15.09375 -7.03125 
L 8.40625 -7.03125 
L 8.40625 77.984375 
z
" id="IPAexGothic-38477"/>
       <path d="M 54.203125 65.921875 
Q 56.15625 55.5625 60.203125 47.3125 
Q 71.578125 56.453125 81 68.109375 
L 87.40625 63.1875 
Q 77.25 51.515625 63.375 41.40625 
Q 75 22.609375 94.671875 11.375 
L 89.5 4.296875 
Q 62.75 21.78125 54.203125 46.78125 
L 54.203125 0.984375 
Q 54.203125 -6.109375 44.875 -6.109375 
Q 38.8125 -6.109375 32.171875 -5.421875 
L 30.765625 2.390625 
Q 38.421875 1.21875 44 1.21875 
Q 46.875 1.21875 46.875 4.109375 
L 46.875 81.6875 
L 54.203125 81.6875 
z
M 8.796875 59.28125 
L 38.09375 59.28125 
L 41.359375 55.765625 
Q 38.671875 41.21875 34.078125 31.296875 
Q 26.65625 15.375 10.890625 1.703125 
L 4.984375 7.421875 
Q 28.265625 24.65625 33.6875 52.59375 
L 8.796875 52.59375 
z
" id="IPAexGothic-27700"/>
       <path d="M 79.390625 80.609375 
L 79.390625 54.640625 
L 19.921875 54.640625 
L 19.921875 80.609375 
z
M 26.8125 75.296875 
L 26.8125 69.921875 
L 72.609375 69.921875 
L 72.609375 75.296875 
z
M 26.8125 65.234375 
L 26.8125 59.625 
L 72.609375 59.625 
L 72.609375 65.234375 
z
M 81.84375 41.015625 
L 81.84375 15.578125 
L 52.9375 15.578125 
L 52.9375 10.84375 
L 84.8125 10.84375 
L 84.8125 5.515625 
L 52.9375 5.515625 
L 52.9375 0.53125 
L 94.4375 0.53125 
L 94.4375 -5.171875 
L 5.515625 -5.171875 
L 5.515625 0.53125 
L 46.4375 0.53125 
L 46.4375 5.515625 
L 15.140625 5.515625 
L 15.140625 10.84375 
L 46.4375 10.84375 
L 46.4375 15.578125 
L 18.109375 15.578125 
L 18.109375 41.015625 
z
M 24.8125 36.328125 
L 24.8125 30.8125 
L 46.4375 30.8125 
L 46.4375 36.328125 
z
M 24.8125 26.125 
L 24.8125 20.359375 
L 46.4375 20.359375 
L 46.4375 26.125 
z
M 75.140625 20.359375 
L 75.140625 26.125 
L 52.9375 26.125 
L 52.9375 20.359375 
z
M 75.140625 30.8125 
L 75.140625 36.328125 
L 52.9375 36.328125 
L 52.9375 30.8125 
z
M 6 50.484375 
L 93.890625 50.484375 
L 93.890625 45.0625 
L 6 45.0625 
z
" id="IPAexGothic-37327"/>
       <path d="M 84.671875 -6.78125 
Q 65.578125 12.015625 65.578125 38.09375 
Q 65.578125 64.015625 84.671875 82.8125 
L 92.484375 82.8125 
Q 73.09375 63.71875 73.09375 37.890625 
Q 73.09375 12.3125 92.484375 -6.78125 
z
" id="IPAexGothic-65288"/>
       <path d="M 78.46875 0.984375 
L 69.875 0.984375 
L 69.875 32.171875 
Q 69.875 44.828125 60.109375 44.828125 
Q 55.46875 44.828125 51.609375 40.53125 
Q 48.875 37.453125 47.796875 32.859375 
L 47.796875 0.984375 
L 39.203125 0.984375 
L 39.203125 32.28125 
Q 39.203125 44.828125 29.984375 44.828125 
Q 25.09375 44.828125 21.390625 40.53125 
Q 17.390625 36.03125 17.390625 31.890625 
L 17.390625 0.984375 
L 8.796875 0.984375 
L 8.796875 50.78125 
L 16.796875 50.78125 
L 16.796875 42.1875 
Q 21.734375 51.8125 31.6875 51.8125 
Q 42.578125 51.8125 46.1875 41.359375 
Q 51.609375 51.8125 61.765625 51.8125 
Q 69.96875 51.8125 74.5625 46 
Q 78.46875 41.21875 78.46875 32.375 
z
" id="IPAexGothic-109"/>
       <path d="M 7.515625 -6.78125 
Q 26.90625 12.3125 26.90625 37.984375 
Q 26.90625 63.53125 7.515625 82.8125 
L 15.328125 82.8125 
Q 34.421875 64.015625 34.421875 37.984375 
Q 34.421875 12.015625 15.328125 -6.78125 
z
" id="IPAexGothic-65289"/>
      </defs>
      <use xlink:href="#IPAexGothic-38477"/>
      <use x="100" xlink:href="#IPAexGothic-27700"/>
      <use x="200" xlink:href="#IPAexGothic-37327"/>
      <use x="300" xlink:href="#IPAexGothic-65288"/>
      <use x="400" xlink:href="#IPAexGothic-109"/>
      <use x="487.109375" xlink:href="#IPAexGothic-109"/>
      <use x="574.21875" xlink:href="#IPAexGothic-65289"/>
     </g>
    </g>
   </g>
   <g id="patch_14">
    <path d="M 40.1875 273.312 
L 40.1875 7.2 
" style="fill:none;stroke:#000000;stroke-linecap:square;stroke-linejoin:miter;stroke-width:0.8;"/>
   </g>
   <g id="patch_15">
    <path d="M 397.3075 273.312 
L 397.3075 7.2 
" style="fill:none;stroke:#000000;stroke-linecap:square;stroke-linejoin:miter;stroke-width:0.8;"/>
   </g>
   <g id="patch_16">
    <path d="M 40.1875 273.312 
L 397.3075 273.312 
" style="fill:none;stroke:#000000;stroke-linecap:square;stroke-linejoin:miter;stroke-width:0.8;"/>
   </g>
   <g id="patch_17">
    <path d="M 40.1875 7.2 
L 397.3075 7.2 
" style="fill:none;stroke:#000000;stroke-linecap:square;stroke-linejoin:miter;stroke-width:0.8;"/>
   </g>
   <g id="legend_1">
    <g id="patch_18">
     <path d="M 328.3075 29.590625 
L 390.3075 29.590625 
Q 392.3075 29.590625 392.3075 27.590625 
L 392.3075 14.2 
Q 392.3075 12.2 390.3075 12.2 
L 328.3075 12.2 
Q 326.3075 12.2 326.3075 14.2 
L 326.3075 27.590625 
Q 326.3075 29.590625 328.3075 29.590625 
z
" style="fill:#ffffff;opacity:0.8;stroke:#cccccc;stroke-linejoin:miter;"/>
    </g>
    <g id="patch_19">
     <path d="M 330.3075 23.690625 
L 350.3075 23.690625 
L 350.3075 16.690625 
L 330.3075 16.690625 
z
" style="fill:#1f77b4;"/>
    </g>
    <g id="text_10">
     <!-- 降水量 -->
     <g transform="translate(358.3075 23.690625)scale(0.1 -0.1)">
      <use xlink:href="#IPAexGothic-38477"/>
      <use x="100" xlink:href="#IPAexGothic-27700"/>
      <use x="200" xlink:href="#IPAexGothic-37327"/>
     </g>
    </g>
   </g>
  </g>
  <g id="axes_2">
   <g id="matplotlib.axis_2">
    <g id="xtick_1">
     <g id="line2d_9">
      <defs>
       <path d="M 0 0 
L 0 3.5 
" id="m8e65d0e900" style="stroke:#000000;stroke-width:0.8;"/>
      </defs>
      <g>
       <use style="stroke:#000000;stroke-width:0.8;" x="67.425466" xlink:href="#m8e65d0e900" y="273.312"/>
      </g>
     </g>
     <g id="text_11">
      <!-- 1 -->
      <g transform="translate(64.276247 287.802625)scale(0.1 -0.1)">
       <use xlink:href="#IPAexGothic-49"/>
      </g>
     </g>
    </g>
    <g id="xtick_2">
     <g id="line2d_10">
      <g>
       <use style="stroke:#000000;stroke-width:0.8;" x="94.938563" xlink:href="#m8e65d0e900" y="273.312"/>
      </g>
     </g>
     <g id="text_12">
      <!-- 2 -->
      <g transform="translate(91.789344 287.802625)scale(0.1 -0.1)">
       <use xlink:href="#IPAexGothic-50"/>
      </g>
     </g>
    </g>
    <g id="xtick_3">
     <g id="line2d_11">
      <g>
       <use style="stroke:#000000;stroke-width:0.8;" x="122.45166" xlink:href="#m8e65d0e900" y="273.312"/>
      </g>
     </g>
     <g id="text_13">
      <!-- 3 -->
      <g transform="translate(119.302441 287.802625)scale(0.1 -0.1)">
       <defs>
        <path d="M 37.203125 37.796875 
Q 54.78125 34.625 54.78125 19.96875 
Q 54.78125 11.1875 48.875 5.5625 
Q 42.328125 -0.484375 30.375 -0.484375 
Q 12.453125 -0.484375 4.5 13.765625 
L 11.8125 17.671875 
Q 17.328125 6.890625 30.28125 6.890625 
Q 37.890625 6.890625 42.09375 10.796875 
Q 46.09375 14.5 46.09375 20.171875 
Q 46.09375 26.859375 40.09375 30.90625 
Q 34.625 34.578125 25.6875 34.578125 
L 21.296875 34.578125 
L 21.296875 41.703125 
L 25.875 41.703125 
Q 34.859375 41.703125 39.59375 45.125 
Q 44.671875 48.734375 44.671875 54.828125 
Q 44.671875 61.46875 38.96875 64.65625 
Q 35.296875 66.84375 30.171875 66.84375 
Q 19.34375 66.84375 14.109375 55.90625 
L 6.78125 59.421875 
Q 14.015625 73.828125 30.28125 73.828125 
Q 40.578125 73.828125 46.96875 68.65625 
Q 53.375 63.578125 53.375 55.21875 
Q 53.375 47.3125 47.171875 42.28125 
Q 43.171875 39.0625 37.203125 38.1875 
z
" id="IPAexGothic-51"/>
       </defs>
       <use xlink:href="#IPAexGothic-51"/>
      </g>
     </g>
    </g>
    <g id="xtick_4">
     <g id="line2d_12">
      <g>
       <use style="stroke:#000000;stroke-width:0.8;" x="149.964757" xlink:href="#m8e65d0e900" y="273.312"/>
      </g>
     </g>
     <g id="text_14">
      <!-- 4 -->
      <g transform="translate(146.815539 287.802625)scale(0.1 -0.1)">
       <use xlink:href="#IPAexGothic-52"/>
      </g>
     </g>
    </g>
    <g id="xtick_5">
     <g id="line2d_13">
      <g>
       <use style="stroke:#000000;stroke-width:0.8;" x="177.477854" xlink:href="#m8e65d0e900" y="273.312"/>
      </g>
     </g>
     <g id="text_15">
      <!-- 5 -->
      <g transform="translate(174.328636 287.802625)scale(0.1 -0.1)">
       <defs>
        <path d="M 18.40625 40.671875 
Q 25.53125 46.296875 33.9375 46.296875 
Q 44 46.296875 50.640625 39.5 
Q 56.84375 33.015625 56.84375 23.390625 
Q 56.84375 14.65625 51.515625 8.015625 
Q 44.828125 -0.484375 31.734375 -0.484375 
Q 14.984375 -0.484375 7.328125 12.25 
L 14.65625 16.0625 
Q 20.453125 6.78125 31.453125 6.78125 
Q 38.53125 6.78125 43.265625 11.1875 
Q 48.140625 15.828125 48.140625 23.484375 
Q 48.140625 30.71875 43.84375 35.015625 
Q 39.359375 39.5 32.125 39.5 
Q 21.96875 39.5 16.75 31.6875 
L 9.234375 32.671875 
L 13.8125 72.40625 
L 53.21875 72.40625 
L 53.21875 64.890625 
L 20.953125 64.890625 
L 17.71875 40.671875 
z
" id="IPAexGothic-53"/>
       </defs>
       <use xlink:href="#IPAexGothic-53"/>
      </g>
     </g>
    </g>
    <g id="xtick_6">
     <g id="line2d_14">
      <g>
       <use style="stroke:#000000;stroke-width:0.8;" x="204.990951" xlink:href="#m8e65d0e900" y="273.312"/>
      </g>
     </g>
     <g id="text_16">
      <!-- 6 -->
      <g transform="translate(201.841733 287.802625)scale(0.1 -0.1)">
       <use xlink:href="#IPAexGothic-54"/>
      </g>
     </g>
    </g>
    <g id="xtick_7">
     <g id="line2d_15">
      <g>
       <use style="stroke:#000000;stroke-width:0.8;" x="232.504049" xlink:href="#m8e65d0e900" y="273.312"/>
      </g>
     </g>
     <g id="text_17">
      <!-- 7 -->
      <g transform="translate(229.35483 287.802625)scale(0.1 -0.1)">
       <defs>
        <path d="M 56.203125 66.609375 
Q 34.96875 32.90625 27.78125 0.984375 
L 17.671875 0.984375 
Q 24.703125 28.65625 46.09375 64.5 
L 6.6875 64.5 
L 6.6875 72.40625 
L 56.203125 72.40625 
z
" id="IPAexGothic-55"/>
       </defs>
       <use xlink:href="#IPAexGothic-55"/>
      </g>
     </g>
    </g>
    <g id="xtick_8">
     <g id="line2d_16">
      <g>
       <use style="stroke:#000000;stroke-width:0.8;" x="260.017146" xlink:href="#m8e65d0e900" y="273.312"/>
      </g>
     </g>
     <g id="text_18">
      <!-- 8 -->
      <g transform="translate(256.867927 287.802625)scale(0.1 -0.1)">
       <use xlink:href="#IPAexGothic-56"/>
      </g>
     </g>
    </g>
    <g id="xtick_9">
     <g id="line2d_17">
      <g>
       <use style="stroke:#000000;stroke-width:0.8;" x="287.530243" xlink:href="#m8e65d0e900" y="273.312"/>
      </g>
     </g>
     <g id="text_19">
      <!-- 9 -->
      <g transform="translate(284.381024 287.802625)scale(0.1 -0.1)">
       <defs>
        <path d="M 46.625 36.8125 
Q 39.75 26.8125 28.328125 26.8125 
Q 19.578125 26.8125 13.234375 32.125 
Q 5.71875 38.421875 5.71875 49.421875 
Q 5.71875 59.578125 12.015625 66.65625 
Q 18.453125 73.828125 29.203125 73.828125 
Q 43.75 73.828125 50.640625 61.71875 
Q 55.609375 52.78125 55.609375 38.625 
Q 55.609375 19.53125 47.515625 9.1875 
Q 39.890625 -0.484375 27.640625 -0.484375 
Q 13.421875 -0.484375 6.109375 10.984375 
L 13.328125 14.890625 
Q 18.0625 6.6875 27.390625 6.6875 
Q 45.65625 6.6875 47.015625 36.8125 
z
M 29.5 66.84375 
Q 22.65625 66.84375 18.3125 61.71875 
Q 14.40625 57.078125 14.40625 50 
Q 14.40625 42.828125 18.109375 38.71875 
Q 22.40625 33.796875 29.78125 33.796875 
Q 37.984375 33.796875 42.625 40.1875 
Q 45.703125 44.484375 45.703125 49.515625 
Q 45.703125 55.515625 42.09375 60.359375 
Q 37.109375 66.84375 29.5 66.84375 
z
" id="IPAexGothic-57"/>
       </defs>
       <use xlink:href="#IPAexGothic-57"/>
      </g>
     </g>
    </g>
    <g id="xtick_10">
     <g id="line2d_18">
      <g>
       <use style="stroke:#000000;stroke-width:0.8;" x="315.04334" xlink:href="#m8e65d0e900" y="273.312"/>
      </g>
     </g>
     <g id="text_20">
      <!-- 10 -->
      <g transform="translate(308.744902 287.802625)scale(0.1 -0.1)">
       <use xlink:href="#IPAexGothic-49"/>
       <use x="62.988281" xlink:href="#IPAexGothic-48"/>
      </g>
     </g>
    </g>
    <g id="xtick_11">
     <g id="line2d_19">
      <g>
       <use style="stroke:#000000;stroke-width:0.8;" x="342.556437" xlink:href="#m8e65d0e900" y="273.312"/>
      </g>
     </g>
     <g id="text_21">
      <!-- 11 -->
      <g transform="translate(336.257999 287.802625)scale(0.1 -0.1)">
       <use xlink:href="#IPAexGothic-49"/>
       <use x="62.988281" xlink:href="#IPAexGothic-49"/>
      </g>
     </g>
    </g>
    <g id="xtick_12">
     <g id="line2d_20">
      <g>
       <use style="stroke:#000000;stroke-width:0.8;" x="370.069534" xlink:href="#m8e65d0e900" y="273.312"/>
      </g>
     </g>
     <g id="text_22">
      <!-- 12 -->
      <g transform="translate(363.771096 287.802625)scale(0.1 -0.1)">
       <use xlink:href="#IPAexGothic-49"/>
       <use x="62.988281" xlink:href="#IPAexGothic-50"/>
      </g>
     </g>
    </g>
    <g id="text_23">
     <!-- 月 -->
     <g transform="translate(213.7475 301.19325)scale(0.1 -0.1)">
      <defs>
       <path d="M 78.8125 77.875 
L 78.8125 4 
Q 78.8125 -1.21875 76.078125 -3.171875 
Q 73.96875 -4.6875 68.796875 -4.6875 
Q 60.84375 -4.6875 50.828125 -3.859375 
L 49.515625 3.8125 
Q 58.59375 2.484375 67.09375 2.484375 
Q 70.359375 2.484375 71.046875 4.109375 
Q 71.390625 4.890625 71.390625 6.84375 
L 71.390625 26.125 
L 30.515625 26.125 
Q 29.78125 14.9375 26.8125 7.421875 
Q 24.03125 0.09375 17.4375 -7.375 
L 11.625 -0.984375 
Q 19.671875 7.421875 21.921875 19.4375 
Q 23.4375 27.6875 23.4375 41.40625 
L 23.4375 77.875 
z
M 30.953125 71.390625 
L 30.953125 55.328125 
L 71.390625 55.328125 
L 71.390625 71.390625 
z
M 30.953125 49.125 
L 30.953125 39.9375 
Q 30.953125 35.75 30.859375 33.546875 
L 30.859375 32.328125 
L 71.390625 32.328125 
L 71.390625 49.125 
z
" id="IPAexGothic-26376"/>
      </defs>
      <use xlink:href="#IPAexGothic-26376"/>
     </g>
    </g>
   </g>
   <g id="matplotlib.axis_3">
    <g id="ytick_9">
     <g id="line2d_21">
      <defs>
       <path d="M 0 0 
L -3.5 0 
" id="m3616b7c484" style="stroke:#000000;stroke-width:0.8;"/>
      </defs>
      <g>
       <use style="stroke:#000000;stroke-width:0.8;" x="40.1875" xlink:href="#m3616b7c484" y="232.754824"/>
      </g>
     </g>
     <g id="text_24">
      <!-- 0 -->
      <g transform="translate(26.889063 236.500136)scale(0.1 -0.1)">
       <use xlink:href="#IPAexGothic-48"/>
      </g>
     </g>
    </g>
    <g id="ytick_10">
     <g id="line2d_22">
      <g>
       <use style="stroke:#000000;stroke-width:0.8;" x="40.1875" xlink:href="#m3616b7c484" y="185.319529"/>
      </g>
     </g>
     <g id="text_25">
      <!-- 5 -->
      <g transform="translate(26.889063 189.064842)scale(0.1 -0.1)">
       <use xlink:href="#IPAexGothic-53"/>
      </g>
     </g>
    </g>
    <g id="ytick_11">
     <g id="line2d_23">
      <g>
       <use style="stroke:#000000;stroke-width:0.8;" x="40.1875" xlink:href="#m3616b7c484" y="137.884235"/>
      </g>
     </g>
     <g id="text_26">
      <!-- 10 -->
      <g transform="translate(20.590625 141.629548)scale(0.1 -0.1)">
       <use xlink:href="#IPAexGothic-49"/>
       <use x="62.988281" xlink:href="#IPAexGothic-48"/>
      </g>
     </g>
    </g>
    <g id="ytick_12">
     <g id="line2d_24">
      <g>
       <use style="stroke:#000000;stroke-width:0.8;" x="40.1875" xlink:href="#m3616b7c484" y="90.448941"/>
      </g>
     </g>
     <g id="text_27">
      <!-- 15 -->
      <g transform="translate(20.590625 94.194254)scale(0.1 -0.1)">
       <use xlink:href="#IPAexGothic-49"/>
       <use x="62.988281" xlink:href="#IPAexGothic-53"/>
      </g>
     </g>
    </g>
    <g id="ytick_13">
     <g id="line2d_25">
      <g>
       <use style="stroke:#000000;stroke-width:0.8;" x="40.1875" xlink:href="#m3616b7c484" y="43.013647"/>
      </g>
     </g>
     <g id="text_28">
      <!-- 20 -->
      <g transform="translate(20.590625 46.75896)scale(0.1 -0.1)">
       <use xlink:href="#IPAexGothic-50"/>
       <use x="62.988281" xlink:href="#IPAexGothic-48"/>
      </g>
     </g>
    </g>
    <g id="text_29">
     <!-- 平均気温（℃） -->
     <g transform="translate(14.690625 175.256)rotate(-90)scale(0.1 -0.1)">
      <defs>
       <path d="M 53.46875 69.1875 
L 53.46875 30.328125 
L 95.0625 30.328125 
L 95.0625 23.640625 
L 53.46875 23.640625 
L 53.46875 -6.984375 
L 45.84375 -6.984375 
L 45.84375 23.640625 
L 5.03125 23.640625 
L 5.03125 30.328125 
L 45.84375 30.328125 
L 45.84375 69.1875 
L 10.015625 69.1875 
L 10.015625 75.875 
L 90.046875 75.875 
L 90.046875 69.1875 
z
M 27 35.59375 
Q 23.25 48.34375 16.890625 60.296875 
L 24.125 63.09375 
Q 29.296875 53.46875 34.71875 38.625 
z
M 64.59375 37.890625 
Q 70.453125 49.03125 75.203125 64.5 
L 82.90625 61.625 
Q 77.875 46.96875 71.390625 34.8125 
z
" id="IPAexGothic-24179"/>
       <path d="M 18.84375 59.28125 
L 18.84375 80.375 
L 25.921875 80.375 
L 25.921875 59.28125 
L 37.015625 59.28125 
L 37.015625 52.6875 
L 25.921875 52.6875 
L 25.921875 20.703125 
Q 32.46875 23.640625 38.8125 26.90625 
L 40.09375 20.515625 
Q 24.3125 12.109375 8.734375 6.203125 
L 5.21875 13.09375 
Q 12.546875 15.234375 18.84375 17.78125 
L 18.84375 52.6875 
L 6.453125 52.6875 
L 6.453125 59.28125 
z
M 54.296875 66.3125 
L 91.3125 66.3125 
Q 91.15625 17.671875 87.796875 2.875 
Q 85.84375 -5.71875 75.59375 -5.71875 
Q 68.265625 -5.71875 60.296875 -4.78125 
L 58.890625 2.875 
Q 66.265625 1.375 73.921875 1.375 
Q 79.046875 1.375 80.421875 4.78125 
Q 83.734375 14.359375 83.890625 59.8125 
L 51.8125 59.8125 
Q 47.078125 48.734375 38.53125 38.625 
L 33.59375 44.1875 
Q 46 59.1875 50.921875 82.234375 
L 58.109375 80.421875 
Q 56.546875 72.859375 54.296875 66.3125 
z
M 46.484375 44.484375 
L 73.09375 44.484375 
L 73.09375 37.984375 
L 46.484375 37.984375 
z
M 39.984375 16.3125 
Q 58.546875 20.90625 75.59375 28.078125 
L 76.421875 21.6875 
Q 59.859375 13.921875 43.21875 9.1875 
z
" id="IPAexGothic-22343"/>
       <path d="M 29.109375 72.796875 
L 87.40625 72.796875 
L 87.40625 66.609375 
L 26.125 66.609375 
Q 20.40625 55.8125 12.984375 47.796875 
L 8.296875 53.078125 
Q 19.78125 65.328125 25 82.625 
L 32.328125 81.296875 
Q 30.953125 77.203125 29.109375 72.796875 
z
M 78.125 46.09375 
L 78.21875 37.5 
Q 78.515625 16.3125 81.59375 7.28125 
Q 83.25 2.875 84.28125 2.875 
Q 86.140625 2.875 88.09375 18.609375 
L 94.484375 14.3125 
Q 91.359375 -7.03125 84.71875 -7.03125 
Q 80.125 -7.03125 75.875 2.296875 
Q 71.09375 12.796875 71.09375 37.203125 
L 71.09375 39.890625 
L 10.5 39.890625 
L 10.5 46.09375 
z
M 37.3125 17.28125 
Q 27.203125 24.265625 16.703125 29.296875 
L 21.09375 34.1875 
Q 31.109375 29.34375 40.71875 23.09375 
L 41.703125 22.515625 
Q 47.40625 29.59375 50.78125 37.984375 
L 57.515625 35.015625 
Q 53.171875 25.53125 47.609375 18.5 
Q 57.375 11.625 66.703125 3.609375 
L 61.625 -2 
Q 52.875 6.109375 43.109375 13.1875 
Q 31.734375 0.78125 14.5 -5.8125 
L 10.203125 0.484375 
Q 27 6.296875 36.8125 16.703125 
z
M 23.6875 59.71875 
L 77.984375 59.71875 
L 77.984375 53.515625 
L 23.6875 53.515625 
z
" id="IPAexGothic-27671"/>
       <path d="M 83.5 77.875 
L 83.5 41.703125 
L 37.203125 41.703125 
L 37.203125 77.875 
z
M 44.09375 72.078125 
L 44.09375 62.890625 
L 76.703125 62.890625 
L 76.703125 72.078125 
z
M 44.09375 57.171875 
L 44.09375 47.515625 
L 76.703125 47.515625 
L 76.703125 57.171875 
z
M 87.9375 33.296875 
L 87.9375 2.78125 
L 95.21875 2.78125 
L 95.21875 -3.515625 
L 25.484375 -3.515625 
L 25.484375 2.78125 
L 33.40625 2.78125 
L 33.40625 33.296875 
z
M 39.890625 27.296875 
L 39.890625 2.78125 
L 49.515625 2.78125 
L 49.515625 27.296875 
z
M 81.453125 2.78125 
L 81.453125 27.296875 
L 71.4375 27.296875 
L 71.4375 2.78125 
z
M 55.71875 27.296875 
L 55.71875 2.78125 
L 65.234375 2.78125 
L 65.234375 27.296875 
z
M 25.203125 60.296875 
Q 19.484375 67.140625 11.03125 73.6875 
L 15.828125 79.109375 
Q 23.34375 73.921875 30.21875 66.3125 
z
M 22.21875 37.3125 
Q 15.234375 45.359375 7.421875 50.78125 
L 12.203125 56.390625 
Q 20.90625 50.390625 27.296875 43.109375 
z
M 5.515625 0.296875 
Q 15.140625 12.59375 22.90625 29.984375 
L 28.125 24.421875 
Q 20.359375 6.59375 11.421875 -5.8125 
z
" id="IPAexGothic-28201"/>
       <path d="M 16.5 82.8125 
Q 21.296875 82.8125 24.703125 79.109375 
Q 27.59375 75.875 27.59375 71.625 
Q 27.59375 68.3125 25.78125 65.578125 
Q 22.515625 60.40625 16.40625 60.40625 
Q 13.71875 60.40625 11.078125 61.8125 
Q 5.171875 64.984375 5.171875 71.734375 
Q 5.171875 77.25 9.859375 80.71875 
Q 12.75 82.8125 16.5 82.8125 
z
M 16.40625 78.421875 
Q 14.3125 78.421875 12.25 77 
Q 9.578125 75.046875 9.578125 71.625 
Q 9.578125 69.875 10.453125 68.21875 
Q 12.40625 64.796875 16.5 64.796875 
Q 18.75 64.796875 20.515625 66.109375 
Q 23.1875 68.21875 23.1875 71.625 
Q 23.1875 74.859375 20.796875 76.8125 
Q 18.890625 78.421875 16.40625 78.421875 
z
M 89.15625 29.203125 
Q 87.0625 19.4375 81.15625 13.09375 
Q 71.921875 3.078125 57.171875 3.078125 
Q 40.625 3.078125 31.390625 15.1875 
Q 23.875 25.09375 23.875 39.984375 
Q 23.875 52.640625 30.28125 62.3125 
Q 39.984375 77.09375 57.375 77.09375 
Q 69.1875 77.09375 77.390625 70.40625 
Q 84.515625 64.59375 87.703125 54.5 
L 77.984375 54.5 
Q 73.484375 69.28125 57.375 69.28125 
Q 45.0625 69.28125 38.375 58.984375 
Q 33.15625 51.265625 33.15625 39.890625 
Q 33.15625 28.90625 37.453125 21.78125 
Q 43.953125 11.078125 57.171875 11.078125 
Q 68.265625 11.078125 74.65625 19 
Q 78.03125 23.140625 79.390625 29.203125 
z
" id="IPAexGothic-8451"/>
      </defs>
      <use xlink:href="#IPAexGothic-24179"/>
      <use x="100" xlink:href="#IPAexGothic-22343"/>
      <use x="200" xlink:href="#IPAexGothic-27671"/>
      <use x="300" xlink:href="#IPAexGothic-28201"/>
      <use x="400" xlink:href="#IPAexGothic-65288"/>
      <use x="500" xlink:href="#IPAexGothic-8451"/>
      <use x="600" xlink:href="#IPAexGothic-65289"/>
     </g>
    </g>
   </g>
   <g id="line2d_26">
    <path clip-path="url(#p00e42f7542)" d="M 67.425466 261.216 
L 94.938563 257.421176 
L 122.45166 209.037176 
L 149.964757 156.858353 
L 177.477854 83.808 
L 204.990951 67.68 
L 232.504049 26.885647 
L 260.017146 19.296 
L 287.530243 49.654588 
L 315.04334 106.576941 
L 342.556437 195.755294 
L 370.069534 240.344471 
" style="fill:none;stroke:#ff7f0e;stroke-linecap:square;stroke-width:3;"/>
    <defs>
     <path d="M 0 3 
C 0.795609 3 1.55874 2.683901 2.12132 2.12132 
C 2.683901 1.55874 3 0.795609 3 0 
C 3 -0.795609 2.683901 -1.55874 2.12132 -2.12132 
C 1.55874 -2.683901 0.795609 -3 0 -3 
C -0.795609 -3 -1.55874 -2.683901 -2.12132 -2.12132 
C -2.683901 -1.55874 -3 -0.795609 -3 0 
C -3 0.795609 -2.683901 1.55874 -2.12132 2.12132 
C -1.55874 2.683901 -0.795609 3 0 3 
z
" id="m46f71fba3b" style="stroke:#ff7f0e;"/>
    </defs>
    <g clip-path="url(#p00e42f7542)">
     <use style="fill:#ff7f0e;stroke:#ff7f0e;" x="67.425466" xlink:href="#m46f71fba3b" y="261.216"/>
     <use style="fill:#ff7f0e;stroke:#ff7f0e;" x="94.938563" xlink:href="#m46f71fba3b" y="257.421176"/>
     <use style="fill:#ff7f0e;stroke:#ff7f0e;" x="122.45166" xlink:href="#m46f71fba3b" y="209.037176"/>
     <use style="fill:#ff7f0e;stroke:#ff7f0e;" x="149.964757" xlink:href="#m46f71fba3b" y="156.858353"/>
     <use style="fill:#ff7f0e;stroke:#ff7f0e;" x="177.477854" xlink:href="#m46f71fba3b" y="83.808"/>
     <use style="fill:#ff7f0e;stroke:#ff7f0e;" x="204.990951" xlink:href="#m46f71fba3b" y="67.68"/>
     <use style="fill:#ff7f0e;stroke:#ff7f0e;" x="232.504049" xlink:href="#m46f71fba3b" y="26.885647"/>
     <use style="fill:#ff7f0e;stroke:#ff7f0e;" x="260.017146" xlink:href="#m46f71fba3b" y="19.296"/>
     <use style="fill:#ff7f0e;stroke:#ff7f0e;" x="287.530243" xlink:href="#m46f71fba3b" y="49.654588"/>
     <use style="fill:#ff7f0e;stroke:#ff7f0e;" x="315.04334" xlink:href="#m46f71fba3b" y="106.576941"/>
     <use style="fill:#ff7f0e;stroke:#ff7f0e;" x="342.556437" xlink:href="#m46f71fba3b" y="195.755294"/>
     <use style="fill:#ff7f0e;stroke:#ff7f0e;" x="370.069534" xlink:href="#m46f71fba3b" y="240.344471"/>
    </g>
   </g>
   <g id="patch_20">
    <path d="M 40.1875 273.312 
L 40.1875 7.2 
" style="fill:none;stroke:#000000;stroke-linecap:square;stroke-linejoin:miter;stroke-width:0.8;"/>
   </g>
   <g id="patch_21">
    <path d="M 397.3075 273.312 
L 397.3075 7.2 
" style="fill:none;stroke:#000000;stroke-linecap:square;stroke-linejoin:miter;stroke-width:0.8;"/>
   </g>
   <g id="patch_22">
    <path d="M 40.1875 273.312 
L 397.3075 273.312 
" style="fill:none;stroke:#000000;stroke-linecap:square;stroke-linejoin:miter;stroke-width:0.8;"/>
   </g>
   <g id="patch_23">
    <path d="M 40.1875 7.2 
L 397.3075 7.2 
" style="fill:none;stroke:#000000;stroke-linecap:square;stroke-linejoin:miter;stroke-width:0.8;"/>
   </g>
   <g id="legend_2">
    <g id="patch_24">
     <path d="M 47.1875 29.590625 
L 119.1875 29.590625 
Q 121.1875 29.590625 121.1875 27.590625 
L 121.1875 14.2 
Q 121.1875 12.2 119.1875 12.2 
L 47.1875 12.2 
Q 45.1875 12.2 45.1875 14.2 
L 45.1875 27.590625 
Q 45.1875 29.590625 47.1875 29.590625 
z
" style="fill:#ffffff;opacity:0.8;stroke:#cccccc;stroke-linejoin:miter;"/>
    </g>
    <g id="line2d_27">
     <path d="M 49.1875 20.190625 
L 69.1875 20.190625 
" style="fill:none;stroke:#ff7f0e;stroke-linecap:square;stroke-width:3;"/>
    </g>
    <g id="line2d_28">
     <g>
      <use style="fill:#ff7f0e;stroke:#ff7f0e;" x="59.1875" xlink:href="#m46f71fba3b" y="20.190625"/>
     </g>
    </g>
    <g id="text_30">
     <!-- 平均気温 -->
     <g transform="translate(77.1875 23.690625)scale(0.1 -0.1)">
      <use xlink:href="#IPAexGothic-24179"/>
      <use x="100" xlink:href="#IPAexGothic-22343"/>
      <use x="200" xlink:href="#IPAexGothic-27671"/>
      <use x="300" xlink:href="#IPAexGothic-28201"/>
     </g>
    </g>
   </g>
  </g>
 </g>
 <defs>
  <clipPath id="p00e42f7542">
   <rect height="266.112" width="357.12" x="40.1875" y="7.2"/>
  </clipPath>
 </defs>
</svg>
