<?xml version="1.0" encoding="utf-8" standalone="no"?>
<!DOCTYPE svg PUBLIC "-//W3C//DTD SVG 1.1//EN"
  "http://www.w3.org/Graphics/SVG/1.1/DTD/svg11.dtd">
<!-- Created with matplotlib (https://matplotlib.org/) -->
<svg height="310.29325pt" version="1.1" viewBox="0 0 410.805937 310.29325" width="410.805937pt" xmlns="http://www.w3.org/2000/svg" xmlns:xlink="http://www.w3.org/1999/xlink">
 <metadata>
  <rdf:RDF xmlns:cc="http://creativecommons.org/ns#" xmlns:dc="http://purl.org/dc/elements/1.1/" xmlns:rdf="http://www.w3.org/1999/02/22-rdf-syntax-ns#">
   <cc:Work>
    <dc:type rdf:resource="http://purl.org/dc/dcmitype/StillImage"/>
    <dc:date>2021-01-23T10:00:57.429915</dc:date>
    <dc:format>image/svg+xml</dc:format>
    <dc:creator>
     <cc:Agent>
      <dc:title>Matplotlib v3.3.3, https://matplotlib.org/</dc:title>
     </cc:Agent>
    </dc:creator>
   </cc:Work>
  </rdf:RDF>
 </metadata>
 <defs>
  <style type="text/css">*{stroke-linecap:butt;stroke-linejoin:round;}</style>
 </defs>
 <g id="figure_1">
  <g id="patch_1">
   <path d="M 0 310.29325 
L 410.805937 310.29325 
L 410.805937 0 
L 0 0 
z
" style="fill:#ffffff;"/>
  </g>
  <g id="axes_1">
   <g id="patch_2">
    <path d="M 46.485938 273.312 
L 403.605937 273.312 
L 403.605937 7.2 
L 46.485938 7.2 
z
" style="fill:#ffffff;"/>
   </g>
   <g id="patch_3">
    <path clip-path="url(#p50af9c2cc5)" d="M 62.718665 273.312 
L 84.729142 273.312 
L 84.729142 122.475737 
L 62.718665 122.475737 
z
" style="fill:#1f77b4;"/>
   </g>
   <g id="patch_4">
    <path clip-path="url(#p50af9c2cc5)" d="M 90.231762 273.312 
L 112.24224 273.312 
L 112.24224 216.309924 
L 90.231762 216.309924 
z
" style="fill:#1f77b4;"/>
   </g>
   <g id="patch_5">
    <path clip-path="url(#p50af9c2cc5)" d="M 117.744859 273.312 
L 139.755337 273.312 
L 139.755337 204.909509 
L 117.744859 204.909509 
z
" style="fill:#1f77b4;"/>
   </g>
   <g id="patch_6">
    <path clip-path="url(#p50af9c2cc5)" d="M 145.257956 273.312 
L 167.268434 273.312 
L 167.268434 219.817744 
L 145.257956 219.817744 
z
" style="fill:#1f77b4;"/>
   </g>
   <g id="patch_7">
    <path clip-path="url(#p50af9c2cc5)" d="M 172.771053 273.312 
L 194.781531 273.312 
L 194.781531 221.571654 
L 172.771053 221.571654 
z
" style="fill:#1f77b4;"/>
   </g>
   <g id="patch_8">
    <path clip-path="url(#p50af9c2cc5)" d="M 200.28415 273.312 
L 222.294628 273.312 
L 222.294628 148.784388 
L 200.28415 148.784388 
z
" style="fill:#1f77b4;"/>
   </g>
   <g id="patch_9">
    <path clip-path="url(#p50af9c2cc5)" d="M 227.797247 273.312 
L 249.807725 273.312 
L 249.807725 218.063834 
L 227.797247 218.063834 
z
" style="fill:#1f77b4;"/>
   </g>
   <g id="patch_10">
    <path clip-path="url(#p50af9c2cc5)" d="M 255.310344 273.312 
L 277.320822 273.312 
L 277.320822 19.872 
L 255.310344 19.872 
z
" style="fill:#1f77b4;"/>
   </g>
   <g id="patch_11">
    <path clip-path="url(#p50af9c2cc5)" d="M 282.823441 273.312 
L 304.833919 273.312 
L 304.833919 83.012761 
L 282.823441 83.012761 
z
" style="fill:#1f77b4;"/>
   </g>
   <g id="patch_12">
    <path clip-path="url(#p50af9c2cc5)" d="M 310.336538 273.312 
L 332.347016 273.312 
L 332.347016 103.182727 
L 310.336538 103.182727 
z
" style="fill:#1f77b4;"/>
   </g>
   <g id="patch_13">
    <path clip-path="url(#p50af9c2cc5)" d="M 337.849635 273.312 
L 359.860113 273.312 
L 359.860113 129.491377 
L 337.849635 129.491377 
z
" style="fill:#1f77b4;"/>
   </g>
   <g id="patch_14">
    <path clip-path="url(#p50af9c2cc5)" d="M 365.362733 273.312 
L 387.37321 273.312 
L 387.37321 164.569578 
L 365.362733 164.569578 
z
" style="fill:#1f77b4;"/>
   </g>
   <g id="matplotlib.axis_1">
    <g id="xtick_1">
     <g id="line2d_1">
      <defs>
       <path d="M 0 0 
L 0 3.5 
" id="mfef6f7fe8e" style="stroke:#000000;stroke-width:0.8;"/>
      </defs>
      <g>
       <use style="stroke:#000000;stroke-width:0.8;" x="101.237001" xlink:href="#mfef6f7fe8e" y="273.312"/>
      </g>
     </g>
     <g id="text_1">
      <!-- 2 -->
      <g transform="translate(98.087782 287.802625)scale(0.1 -0.1)">
       <defs>
        <path d="M 57.171875 0.984375 
L 6.984375 0.984375 
L 6.984375 9.28125 
Q 12.890625 23.046875 29.59375 34.421875 
L 32.375 36.28125 
Q 40.921875 42.140625 43.609375 45.40625 
Q 46.6875 49.265625 46.6875 53.8125 
Q 46.6875 58.9375 43.0625 62.546875 
Q 39.0625 66.546875 32.5625 66.546875 
Q 19.53125 66.546875 15.484375 52 
L 7.765625 54.78125 
Q 13.328125 73.828125 33.0625 73.828125 
Q 43.84375 73.828125 50.25 67.4375 
Q 55.859375 61.671875 55.859375 53.515625 
Q 55.859375 47.46875 52.25 42.53125 
Q 48.921875 37.75 36.96875 30.28125 
L 34.859375 29 
Q 19.625 19.578125 15.28125 8.890625 
L 57.171875 8.890625 
z
" id="IPAexGothic-50"/>
       </defs>
       <use xlink:href="#IPAexGothic-50"/>
      </g>
     </g>
    </g>
    <g id="xtick_2">
     <g id="line2d_2">
      <g>
       <use style="stroke:#000000;stroke-width:0.8;" x="156.263195" xlink:href="#mfef6f7fe8e" y="273.312"/>
      </g>
     </g>
     <g id="text_2">
      <!-- 4 -->
      <g transform="translate(153.113976 287.802625)scale(0.1 -0.1)">
       <defs>
        <path d="M 59.578125 18.109375 
L 47.796875 18.109375 
L 47.796875 0.984375 
L 39.796875 0.984375 
L 39.796875 18.109375 
L 3.078125 18.109375 
L 3.078125 26.125 
L 38.375 73.09375 
L 47.796875 73.09375 
L 47.796875 25.53125 
L 59.578125 25.53125 
z
M 40.28125 64.203125 
L 39.984375 64.203125 
Q 35.59375 57.125 31.296875 51.3125 
L 11.859375 25.53125 
L 39.796875 25.53125 
L 39.796875 49.125 
Q 39.796875 54.390625 40.28125 64.203125 
z
" id="IPAexGothic-52"/>
       </defs>
       <use xlink:href="#IPAexGothic-52"/>
      </g>
     </g>
    </g>
    <g id="xtick_3">
     <g id="line2d_3">
      <g>
       <use style="stroke:#000000;stroke-width:0.8;" x="211.289389" xlink:href="#mfef6f7fe8e" y="273.312"/>
      </g>
     </g>
     <g id="text_3">
      <!-- 6 -->
      <g transform="translate(208.14017 287.802625)scale(0.1 -0.1)">
       <defs>
        <path d="M 16.5 36.375 
Q 23.578125 46.578125 34.90625 46.578125 
Q 45.40625 46.578125 51.8125 39.265625 
Q 57.421875 32.90625 57.421875 23.78125 
Q 57.421875 13.8125 51.125 6.78125 
Q 44.578125 -0.484375 34.03125 -0.484375 
Q 21.484375 -0.484375 14.40625 9.078125 
Q 7.515625 18.40625 7.515625 34.8125 
Q 7.515625 53.515625 15.828125 64.203125 
Q 23.34375 73.828125 35.5 73.828125 
Q 49.859375 73.828125 56.390625 62.890625 
L 49.21875 58.984375 
Q 45.21875 66.65625 35.9375 66.65625 
Q 17.484375 66.65625 16.109375 36.375 
z
M 33.453125 39.796875 
Q 26.3125 39.796875 21.625 34.46875 
Q 17.4375 29.6875 17.4375 24.078125 
Q 17.4375 18.0625 21.140625 13.1875 
Q 26.125 6.6875 33.734375 6.6875 
Q 41.703125 6.6875 45.953125 13.1875 
Q 48.828125 17.625 48.828125 23.484375 
Q 48.828125 30.375 45.015625 34.8125 
Q 40.625 39.796875 33.453125 39.796875 
z
" id="IPAexGothic-54"/>
       </defs>
       <use xlink:href="#IPAexGothic-54"/>
      </g>
     </g>
    </g>
    <g id="xtick_4">
     <g id="line2d_4">
      <g>
       <use style="stroke:#000000;stroke-width:0.8;" x="266.315583" xlink:href="#mfef6f7fe8e" y="273.312"/>
      </g>
     </g>
     <g id="text_4">
      <!-- 8 -->
      <g transform="translate(263.166364 287.802625)scale(0.1 -0.1)">
       <defs>
        <path d="M 39.703125 37.890625 
Q 57.8125 31.734375 57.8125 18.703125 
Q 57.8125 8.453125 48.4375 3.078125 
Q 41.609375 -0.875 31.5 -0.875 
Q 21.34375 -0.875 14.5 3.078125 
Q 5.421875 8.296875 5.421875 18.40625 
Q 5.421875 31.0625 22.015625 37.203125 
L 22.015625 37.5 
Q 7.515625 42.71875 7.515625 54.828125 
Q 7.515625 64.0625 15.328125 69.625 
Q 21.96875 74.3125 31.546875 74.3125 
Q 42.234375 74.3125 48.921875 68.796875 
Q 55.515625 63.578125 55.515625 55.71875 
Q 55.515625 42.28125 39.703125 38.1875 
z
M 31.59375 41.015625 
Q 46.828125 44.625 46.828125 55.125 
Q 46.828125 61.1875 41.796875 64.84375 
Q 37.703125 67.921875 31.5 67.921875 
Q 25.09375 67.921875 20.796875 64.5 
Q 16.40625 60.890625 16.40625 55.03125 
Q 16.40625 49.21875 21.09375 45.703125 
Q 23.34375 43.890625 26.90625 42.53125 
Q 31 40.875 31.59375 41.015625 
z
M 30.90625 34.515625 
Q 14.40625 30.171875 14.40625 19 
Q 14.40625 12.109375 20.515625 8.6875 
Q 25.09375 6.109375 31.390625 6.109375 
Q 40.234375 6.109375 45.015625 10.890625 
Q 48.53125 14.40625 48.53125 19.53125 
Q 48.53125 24.90625 43.65625 28.90625 
Q 40.765625 31.15625 36.71875 32.8125 
Q 31.984375 34.71875 30.90625 34.515625 
z
" id="IPAexGothic-56"/>
       </defs>
       <use xlink:href="#IPAexGothic-56"/>
      </g>
     </g>
    </g>
    <g id="xtick_5">
     <g id="line2d_5">
      <g>
       <use style="stroke:#000000;stroke-width:0.8;" x="321.341777" xlink:href="#mfef6f7fe8e" y="273.312"/>
      </g>
     </g>
     <g id="text_5">
      <!-- 10 -->
      <g transform="translate(315.04334 287.802625)scale(0.1 -0.1)">
       <defs>
        <path d="M 38.484375 0.984375 
L 29.6875 0.984375 
L 29.6875 64.109375 
Q 21.4375 61.28125 12.3125 59.328125 
L 10.6875 66.109375 
Q 23.734375 69.390625 32.90625 73.921875 
L 38.484375 73.921875 
z
" id="IPAexGothic-49"/>
        <path d="M 31.84375 73.828125 
Q 45.015625 73.828125 52.09375 61.625 
Q 57.71875 51.953125 57.71875 36.625 
Q 57.71875 21.4375 52.09375 11.578125 
Q 45.125 -0.484375 31.5 -0.484375 
Q 17.921875 -0.484375 10.9375 11.578125 
Q 5.328125 21.4375 5.328125 36.71875 
Q 5.328125 58.015625 15.625 67.71875 
Q 22.171875 73.828125 31.84375 73.828125 
z
M 31.5 66.65625 
Q 23.6875 66.65625 19.1875 58.734375 
Q 14.59375 50.734375 14.59375 36.625 
Q 14.59375 22.75 19.09375 14.796875 
Q 23.640625 6.984375 31.5 6.984375 
Q 40.921875 6.984375 45.453125 18.015625 
Q 48.4375 25.34375 48.4375 37.109375 
Q 48.4375 50.875 43.84375 58.734375 
Q 39.203125 66.65625 31.5 66.65625 
z
" id="IPAexGothic-48"/>
       </defs>
       <use xlink:href="#IPAexGothic-49"/>
       <use x="62.988281" xlink:href="#IPAexGothic-48"/>
      </g>
     </g>
    </g>
    <g id="xtick_6">
     <g id="line2d_6">
      <g>
       <use style="stroke:#000000;stroke-width:0.8;" x="376.367971" xlink:href="#mfef6f7fe8e" y="273.312"/>
      </g>
     </g>
     <g id="text_6">
      <!-- 12 -->
      <g transform="translate(370.069534 287.802625)scale(0.1 -0.1)">
       <use xlink:href="#IPAexGothic-49"/>
       <use x="62.988281" xlink:href="#IPAexGothic-50"/>
      </g>
     </g>
    </g>
    <g id="text_7">
     <!-- 月 -->
     <g transform="translate(220.045938 301.19325)scale(0.1 -0.1)">
      <defs>
       <path d="M 78.8125 77.875 
L 78.8125 4 
Q 78.8125 -1.21875 76.078125 -3.171875 
Q 73.96875 -4.6875 68.796875 -4.6875 
Q 60.84375 -4.6875 50.828125 -3.859375 
L 49.515625 3.8125 
Q 58.59375 2.484375 67.09375 2.484375 
Q 70.359375 2.484375 71.046875 4.109375 
Q 71.390625 4.890625 71.390625 6.84375 
L 71.390625 26.125 
L 30.515625 26.125 
Q 29.78125 14.9375 26.8125 7.421875 
Q 24.03125 0.09375 17.4375 -7.375 
L 11.625 -0.984375 
Q 19.671875 7.421875 21.921875 19.4375 
Q 23.4375 27.6875 23.4375 41.40625 
L 23.4375 77.875 
z
M 30.953125 71.390625 
L 30.953125 55.328125 
L 71.390625 55.328125 
L 71.390625 71.390625 
z
M 30.953125 49.125 
L 30.953125 39.9375 
Q 30.953125 35.75 30.859375 33.546875 
L 30.859375 32.328125 
L 71.390625 32.328125 
L 71.390625 49.125 
z
" id="IPAexGothic-26376"/>
      </defs>
      <use xlink:href="#IPAexGothic-26376"/>
     </g>
    </g>
   </g>
   <g id="matplotlib.axis_2">
    <g id="ytick_1">
     <g id="line2d_7">
      <defs>
       <path d="M 0 0 
L -3.5 0 
" id="m1320ddf928" style="stroke:#000000;stroke-width:0.8;"/>
      </defs>
      <g>
       <use style="stroke:#000000;stroke-width:0.8;" x="46.485938" xlink:href="#m1320ddf928" y="273.312"/>
      </g>
     </g>
     <g id="text_8">
      <!-- 0 -->
      <g transform="translate(33.1875 277.057312)scale(0.1 -0.1)">
       <use xlink:href="#IPAexGothic-48"/>
      </g>
     </g>
    </g>
    <g id="ytick_2">
     <g id="line2d_8">
      <g>
       <use style="stroke:#000000;stroke-width:0.8;" x="46.485938" xlink:href="#m1320ddf928" y="238.233799"/>
      </g>
     </g>
     <g id="text_9">
      <!-- 20 -->
      <g transform="translate(26.889063 241.979112)scale(0.1 -0.1)">
       <use xlink:href="#IPAexGothic-50"/>
       <use x="62.988281" xlink:href="#IPAexGothic-48"/>
      </g>
     </g>
    </g>
    <g id="ytick_3">
     <g id="line2d_9">
      <g>
       <use style="stroke:#000000;stroke-width:0.8;" x="46.485938" xlink:href="#m1320ddf928" y="203.155599"/>
      </g>
     </g>
     <g id="text_10">
      <!-- 40 -->
      <g transform="translate(26.889063 206.900911)scale(0.1 -0.1)">
       <use xlink:href="#IPAexGothic-52"/>
       <use x="62.988281" xlink:href="#IPAexGothic-48"/>
      </g>
     </g>
    </g>
    <g id="ytick_4">
     <g id="line2d_10">
      <g>
       <use style="stroke:#000000;stroke-width:0.8;" x="46.485938" xlink:href="#m1320ddf928" y="168.077398"/>
      </g>
     </g>
     <g id="text_11">
      <!-- 60 -->
      <g transform="translate(26.889063 171.82271)scale(0.1 -0.1)">
       <use xlink:href="#IPAexGothic-54"/>
       <use x="62.988281" xlink:href="#IPAexGothic-48"/>
      </g>
     </g>
    </g>
    <g id="ytick_5">
     <g id="line2d_11">
      <g>
       <use style="stroke:#000000;stroke-width:0.8;" x="46.485938" xlink:href="#m1320ddf928" y="132.999197"/>
      </g>
     </g>
     <g id="text_12">
      <!-- 80 -->
      <g transform="translate(26.889063 136.74451)scale(0.1 -0.1)">
       <use xlink:href="#IPAexGothic-56"/>
       <use x="62.988281" xlink:href="#IPAexGothic-48"/>
      </g>
     </g>
    </g>
    <g id="ytick_6">
     <g id="line2d_12">
      <g>
       <use style="stroke:#000000;stroke-width:0.8;" x="46.485938" xlink:href="#m1320ddf928" y="97.920997"/>
      </g>
     </g>
     <g id="text_13">
      <!-- 100 -->
      <g transform="translate(20.590625 101.666309)scale(0.1 -0.1)">
       <use xlink:href="#IPAexGothic-49"/>
       <use x="62.988281" xlink:href="#IPAexGothic-48"/>
       <use x="125.976562" xlink:href="#IPAexGothic-48"/>
      </g>
     </g>
    </g>
    <g id="ytick_7">
     <g id="line2d_13">
      <g>
       <use style="stroke:#000000;stroke-width:0.8;" x="46.485938" xlink:href="#m1320ddf928" y="62.842796"/>
      </g>
     </g>
     <g id="text_14">
      <!-- 120 -->
      <g transform="translate(20.590625 66.588108)scale(0.1 -0.1)">
       <use xlink:href="#IPAexGothic-49"/>
       <use x="62.988281" xlink:href="#IPAexGothic-50"/>
       <use x="125.976562" xlink:href="#IPAexGothic-48"/>
      </g>
     </g>
    </g>
    <g id="ytick_8">
     <g id="line2d_14">
      <g>
       <use style="stroke:#000000;stroke-width:0.8;" x="46.485938" xlink:href="#m1320ddf928" y="27.764595"/>
      </g>
     </g>
     <g id="text_15">
      <!-- 140 -->
      <g transform="translate(20.590625 31.509908)scale(0.1 -0.1)">
       <use xlink:href="#IPAexGothic-49"/>
       <use x="62.988281" xlink:href="#IPAexGothic-52"/>
       <use x="125.976562" xlink:href="#IPAexGothic-48"/>
      </g>
     </g>
    </g>
    <g id="text_16">
     <!-- 降水量（mm） -->
     <g transform="translate(14.690625 173.966937)rotate(-90)scale(0.1 -0.1)">
      <defs>
       <path d="M 72.3125 15.71875 
L 93.890625 15.71875 
L 93.890625 9.515625 
L 72.3125 9.515625 
L 72.3125 -6.984375 
L 65.625 -6.984375 
L 65.625 9.515625 
L 35.453125 9.515625 
L 35.453125 15.71875 
L 46.875 15.71875 
L 46.875 27.984375 
L 39.890625 27.984375 
L 39.890625 33.984375 
L 65.625 33.984375 
L 65.625 43.3125 
L 72.3125 43.3125 
L 72.3125 33.984375 
L 90.09375 33.984375 
L 90.09375 27.984375 
L 72.3125 27.984375 
z
M 65.625 15.71875 
L 65.625 27.984375 
L 53.5625 27.984375 
L 53.5625 15.71875 
z
M 70.703125 55.328125 
Q 81.5 48.640625 96.09375 45.015625 
L 91.796875 38.8125 
Q 77.203125 43.3125 65.921875 51.21875 
Q 54.9375 42.28125 38.1875 36.921875 
L 34.078125 42.578125 
Q 49.125 46.484375 60.890625 54.984375 
L 60.296875 55.515625 
Q 55.171875 59.859375 51.703125 63.921875 
Q 46.875 57.625 40.1875 52.484375 
L 35.40625 56.984375 
Q 48.734375 66.890625 55.171875 83.59375 
L 61.921875 81.890625 
Q 61.375 80.515625 59.625 76.8125 
L 81.5 76.8125 
L 85.5 73.484375 
Q 79.6875 63.671875 70.703125 55.328125 
z
M 65.578125 58.796875 
Q 72.5625 65.140625 75.875 70.796875 
L 56.390625 70.796875 
L 55.078125 68.796875 
Q 59.03125 63.8125 65.578125 58.796875 
z
M 33.296875 77.984375 
L 36.765625 74.75 
Q 31.84375 58.453125 26.90625 48.09375 
Q 34.90625 36.46875 34.90625 23.875 
Q 34.90625 17.71875 32.90625 15.09375 
Q 30.8125 12.40625 25.6875 12.40625 
Q 22.90625 12.40625 17.578125 13.1875 
L 16.5 19.96875 
Q 20.359375 19 24.125 19 
Q 28.125 19 28.125 24.421875 
Q 28.125 37.15625 19.78125 47.5625 
Q 25 58.296875 28.65625 71.578125 
L 15.09375 71.578125 
L 15.09375 -7.03125 
L 8.40625 -7.03125 
L 8.40625 77.984375 
z
" id="IPAexGothic-38477"/>
       <path d="M 54.203125 65.921875 
Q 56.15625 55.5625 60.203125 47.3125 
Q 71.578125 56.453125 81 68.109375 
L 87.40625 63.1875 
Q 77.25 51.515625 63.375 41.40625 
Q 75 22.609375 94.671875 11.375 
L 89.5 4.296875 
Q 62.75 21.78125 54.203125 46.78125 
L 54.203125 0.984375 
Q 54.203125 -6.109375 44.875 -6.109375 
Q 38.8125 -6.109375 32.171875 -5.421875 
L 30.765625 2.390625 
Q 38.421875 1.21875 44 1.21875 
Q 46.875 1.21875 46.875 4.109375 
L 46.875 81.6875 
L 54.203125 81.6875 
z
M 8.796875 59.28125 
L 38.09375 59.28125 
L 41.359375 55.765625 
Q 38.671875 41.21875 34.078125 31.296875 
Q 26.65625 15.375 10.890625 1.703125 
L 4.984375 7.421875 
Q 28.265625 24.65625 33.6875 52.59375 
L 8.796875 52.59375 
z
" id="IPAexGothic-27700"/>
       <path d="M 79.390625 80.609375 
L 79.390625 54.640625 
L 19.921875 54.640625 
L 19.921875 80.609375 
z
M 26.8125 75.296875 
L 26.8125 69.921875 
L 72.609375 69.921875 
L 72.609375 75.296875 
z
M 26.8125 65.234375 
L 26.8125 59.625 
L 72.609375 59.625 
L 72.609375 65.234375 
z
M 81.84375 41.015625 
L 81.84375 15.578125 
L 52.9375 15.578125 
L 52.9375 10.84375 
L 84.8125 10.84375 
L 84.8125 5.515625 
L 52.9375 5.515625 
L 52.9375 0.53125 
L 94.4375 0.53125 
L 94.4375 -5.171875 
L 5.515625 -5.171875 
L 5.515625 0.53125 
L 46.4375 0.53125 
L 46.4375 5.515625 
L 15.140625 5.515625 
L 15.140625 10.84375 
L 46.4375 10.84375 
L 46.4375 15.578125 
L 18.109375 15.578125 
L 18.109375 41.015625 
z
M 24.8125 36.328125 
L 24.8125 30.8125 
L 46.4375 30.8125 
L 46.4375 36.328125 
z
M 24.8125 26.125 
L 24.8125 20.359375 
L 46.4375 20.359375 
L 46.4375 26.125 
z
M 75.140625 20.359375 
L 75.140625 26.125 
L 52.9375 26.125 
L 52.9375 20.359375 
z
M 75.140625 30.8125 
L 75.140625 36.328125 
L 52.9375 36.328125 
L 52.9375 30.8125 
z
M 6 50.484375 
L 93.890625 50.484375 
L 93.890625 45.0625 
L 6 45.0625 
z
" id="IPAexGothic-37327"/>
       <path d="M 84.671875 -6.78125 
Q 65.578125 12.015625 65.578125 38.09375 
Q 65.578125 64.015625 84.671875 82.8125 
L 92.484375 82.8125 
Q 73.09375 63.71875 73.09375 37.890625 
Q 73.09375 12.3125 92.484375 -6.78125 
z
" id="IPAexGothic-65288"/>
       <path d="M 78.46875 0.984375 
L 69.875 0.984375 
L 69.875 32.171875 
Q 69.875 44.828125 60.109375 44.828125 
Q 55.46875 44.828125 51.609375 40.53125 
Q 48.875 37.453125 47.796875 32.859375 
L 47.796875 0.984375 
L 39.203125 0.984375 
L 39.203125 32.28125 
Q 39.203125 44.828125 29.984375 44.828125 
Q 25.09375 44.828125 21.390625 40.53125 
Q 17.390625 36.03125 17.390625 31.890625 
L 17.390625 0.984375 
L 8.796875 0.984375 
L 8.796875 50.78125 
L 16.796875 50.78125 
L 16.796875 42.1875 
Q 21.734375 51.8125 31.6875 51.8125 
Q 42.578125 51.8125 46.1875 41.359375 
Q 51.609375 51.8125 61.765625 51.8125 
Q 69.96875 51.8125 74.5625 46 
Q 78.46875 41.21875 78.46875 32.375 
z
" id="IPAexGothic-109"/>
       <path d="M 7.515625 -6.78125 
Q 26.90625 12.3125 26.90625 37.984375 
Q 26.90625 63.53125 7.515625 82.8125 
L 15.328125 82.8125 
Q 34.421875 64.015625 34.421875 37.984375 
Q 34.421875 12.015625 15.328125 -6.78125 
z
" id="IPAexGothic-65289"/>
      </defs>
      <use xlink:href="#IPAexGothic-38477"/>
      <use x="100" xlink:href="#IPAexGothic-27700"/>
      <use x="200" xlink:href="#IPAexGothic-37327"/>
      <use x="300" xlink:href="#IPAexGothic-65288"/>
      <use x="400" xlink:href="#IPAexGothic-109"/>
      <use x="487.109375" xlink:href="#IPAexGothic-109"/>
      <use x="574.21875" xlink:href="#IPAexGothic-65289"/>
     </g>
    </g>
   </g>
   <g id="patch_15">
    <path d="M 46.485938 273.312 
L 46.485938 7.2 
" style="fill:none;stroke:#000000;stroke-linecap:square;stroke-linejoin:miter;stroke-width:0.8;"/>
   </g>
   <g id="patch_16">
    <path d="M 403.605937 273.312 
L 403.605937 7.2 
" style="fill:none;stroke:#000000;stroke-linecap:square;stroke-linejoin:miter;stroke-width:0.8;"/>
   </g>
   <g id="patch_17">
    <path d="M 46.485938 273.312 
L 403.605937 273.312 
" style="fill:none;stroke:#000000;stroke-linecap:square;stroke-linejoin:miter;stroke-width:0.8;"/>
   </g>
   <g id="patch_18">
    <path d="M 46.485938 7.2 
L 403.605937 7.2 
" style="fill:none;stroke:#000000;stroke-linecap:square;stroke-linejoin:miter;stroke-width:0.8;"/>
   </g>
  </g>
 </g>
 <defs>
  <clipPath id="p50af9c2cc5">
   <rect height="266.112" width="357.12" x="46.485938" y="7.2"/>
  </clipPath>
 </defs>
</svg>
